<?xml version="1.0" encoding="UTF-8" standalone="no"?>
<!DOCTYPE svg PUBLIC "-//W3C//DTD SVG 1.1//EN"
 "http://www.w3.org/Graphics/SVG/1.1/DTD/svg11.dtd">
<!-- Generated by graphviz version 7.0.3 (0)
 -->
<!-- Title: /var/dev/u3d/stable/Source/Urho3D/Scene/Component.h Pages: 1 -->
<svg width="1783pt" height="203pt"
 viewBox="0.00 0.00 1782.50 203.00" xmlns="http://www.w3.org/2000/svg" xmlns:xlink="http://www.w3.org/1999/xlink">
<g id="graph0" class="graph" transform="scale(1 1) rotate(0) translate(4 199)">
<title>/var/dev/u3d/stable/Source/Urho3D/Scene/Component.h</title>
<!-- Node1 -->
<g id="node1" class="node">
<title>Node1</title>
<g id="a_node1"><a xlink:title=" ">
<polygon fill="#999999" stroke="#666666" points="973,-195 854,-195 854,-154 973,-154 973,-195"/>
<text text-anchor="start" x="862" y="-183" font-family="Roboto" font-size="10.00">/var/dev/u3d/stable</text>
<text text-anchor="start" x="862" y="-172" font-family="Roboto" font-size="10.00">/Source/Urho3D/Scene</text>
<text text-anchor="middle" x="913.5" y="-161" font-family="Roboto" font-size="10.00">/Component.h</text>
</a>
</g>
</g>
<!-- Node2 -->
<g id="node2" class="node">
<title>Node2</title>
<g id="a_node2"><a xlink:href="_script_instance_8h.html" target="_top" xlink:title=" ">
<polygon fill="white" stroke="#666666" points="143,-118 0,-118 0,-77 143,-77 143,-118"/>
<text text-anchor="start" x="8" y="-106" font-family="Roboto" font-size="10.00">/var/dev/u3d/stable</text>
<text text-anchor="start" x="8" y="-95" font-family="Roboto" font-size="10.00">/Source/Urho3D/AngelScript</text>
<text text-anchor="middle" x="71.5" y="-84" font-family="Roboto" font-size="10.00">/ScriptInstance.h</text>
</a>
</g>
</g>
<!-- Node1&#45;&gt;Node2 -->
<g id="edge1" class="edge">
<title>Node1&#45;&gt;Node2</title>
<path fill="none" stroke="#63b8ff" d="M842.44,-172.26C707.16,-169.04 403.6,-157.62 151.5,-118 148.82,-117.58 146.09,-117.11 143.34,-116.61"/>
<polygon fill="#63b8ff" stroke="#63b8ff" points="842.24,-175.76 852.32,-172.49 842.4,-168.76 842.24,-175.76"/>
</g>
<!-- Node3 -->
<g id="node3" class="node">
<title>Node3</title>
<g id="a_node3"><a xlink:href="_camera_8h.html" target="_top" xlink:title=" ">
<polygon fill="white" stroke="#666666" points="292,-118 161,-118 161,-77 292,-77 292,-118"/>
<text text-anchor="start" x="169" y="-106" font-family="Roboto" font-size="10.00">/var/dev/u3d/stable</text>
<text text-anchor="start" x="169" y="-95" font-family="Roboto" font-size="10.00">/Source/Urho3D/Graphics</text>
<text text-anchor="middle" x="226.5" y="-84" font-family="Roboto" font-size="10.00">/Camera.h</text>
</a>
</g>
</g>
<!-- Node1&#45;&gt;Node3 -->
<g id="edge2" class="edge">
<title>Node1&#45;&gt;Node3</title>
<path fill="none" stroke="#63b8ff" d="M842.17,-170.83C727.49,-165.68 495.33,-151.75 301.5,-118 298.45,-117.47 295.35,-116.88 292.22,-116.24"/>
<polygon fill="#63b8ff" stroke="#63b8ff" points="841.91,-174.32 852.05,-171.26 842.22,-167.32 841.91,-174.32"/>
</g>
<!-- Node4 -->
<g id="node4" class="node">
<title>Node4</title>
<g id="a_node4"><a xlink:href="_drawable_8h.html" target="_top" xlink:title=" ">
<polygon fill="white" stroke="#666666" points="441,-118 310,-118 310,-77 441,-77 441,-118"/>
<text text-anchor="start" x="318" y="-106" font-family="Roboto" font-size="10.00">/var/dev/u3d/stable</text>
<text text-anchor="start" x="318" y="-95" font-family="Roboto" font-size="10.00">/Source/Urho3D/Graphics</text>
<text text-anchor="middle" x="375.5" y="-84" font-family="Roboto" font-size="10.00">/Drawable.h</text>
</a>
</g>
</g>
<!-- Node1&#45;&gt;Node4 -->
<g id="edge3" class="edge">
<title>Node1&#45;&gt;Node4</title>
<path fill="none" stroke="#63b8ff" d="M842.22,-167.97C750.91,-160.19 588.01,-143.99 450.5,-118 447.46,-117.43 444.36,-116.8 441.24,-116.13"/>
<polygon fill="#63b8ff" stroke="#63b8ff" points="841.77,-171.44 852.03,-168.79 842.36,-164.46 841.77,-171.44"/>
</g>
<!-- Node9 -->
<g id="node9" class="node">
<title>Node9</title>
<g id="a_node9"><a xlink:href="_lua_script_instance_8h.html" target="_top" xlink:title=" ">
<polygon fill="white" stroke="#666666" points="593.5,-118 459.5,-118 459.5,-77 593.5,-77 593.5,-118"/>
<text text-anchor="start" x="467.5" y="-106" font-family="Roboto" font-size="10.00">/var/dev/u3d/stable</text>
<text text-anchor="start" x="467.5" y="-95" font-family="Roboto" font-size="10.00">/Source/Urho3D/LuaScript</text>
<text text-anchor="middle" x="526.5" y="-84" font-family="Roboto" font-size="10.00">/LuaScriptInstance.h</text>
</a>
</g>
</g>
<!-- Node1&#45;&gt;Node9 -->
<g id="edge8" class="edge">
<title>Node1&#45;&gt;Node9</title>
<path fill="none" stroke="#63b8ff" d="M842.53,-162.26C779.52,-151.94 685.05,-135.6 603.5,-118 600.26,-117.3 596.96,-116.56 593.63,-115.8"/>
<polygon fill="#63b8ff" stroke="#63b8ff" points="841.61,-165.66 852.04,-163.82 842.73,-158.75 841.61,-165.66"/>
</g>
<!-- Node10 -->
<g id="node10" class="node">
<title>Node10</title>
<g id="a_node10"><a xlink:href="_crowd_agent_8h.html" target="_top" xlink:title=" ">
<polygon fill="white" stroke="#666666" points="751,-118 612,-118 612,-77 751,-77 751,-118"/>
<text text-anchor="start" x="620" y="-106" font-family="Roboto" font-size="10.00">/var/dev/u3d/stable</text>
<text text-anchor="start" x="620" y="-95" font-family="Roboto" font-size="10.00">/Source/Urho3D/Navigation</text>
<text text-anchor="middle" x="681.5" y="-84" font-family="Roboto" font-size="10.00">/CrowdAgent.h</text>
</a>
</g>
</g>
<!-- Node1&#45;&gt;Node10 -->
<g id="edge9" class="edge">
<title>Node1&#45;&gt;Node10</title>
<path fill="none" stroke="#63b8ff" d="M843.16,-150.76C811.25,-140.44 773.85,-128.35 743.07,-118.4"/>
<polygon fill="#63b8ff" stroke="#63b8ff" points="841.72,-153.97 852.31,-153.72 843.88,-147.31 841.72,-153.97"/>
</g>
<!-- Node11 -->
<g id="node11" class="node">
<title>Node11</title>
<g id="a_node11"><a xlink:href="_navigation_mesh_8h.html" target="_top" xlink:title=" ">
<polygon fill="white" stroke="#666666" points="908,-118 769,-118 769,-77 908,-77 908,-118"/>
<text text-anchor="start" x="777" y="-106" font-family="Roboto" font-size="10.00">/var/dev/u3d/stable</text>
<text text-anchor="start" x="777" y="-95" font-family="Roboto" font-size="10.00">/Source/Urho3D/Navigation</text>
<text text-anchor="middle" x="838.5" y="-84" font-family="Roboto" font-size="10.00">/NavigationMesh.h</text>
</a>
</g>
</g>
<!-- Node1&#45;&gt;Node11 -->
<g id="edge10" class="edge">
<title>Node1&#45;&gt;Node11</title>
<path fill="none" stroke="#63b8ff" d="M885.74,-145.74C876.64,-136.64 866.72,-126.72 858.33,-118.33"/>
<polygon fill="#63b8ff" stroke="#63b8ff" points="883.18,-148.13 892.72,-152.72 888.13,-143.18 883.18,-148.13"/>
</g>
<!-- Node12 -->
<g id="node12" class="node">
<title>Node12</title>
<g id="a_node12"><a xlink:href="_collision_shape_8h.html" target="_top" xlink:title=" ">
<polygon fill="white" stroke="#666666" points="1052.5,-118 926.5,-118 926.5,-77 1052.5,-77 1052.5,-118"/>
<text text-anchor="start" x="934.5" y="-106" font-family="Roboto" font-size="10.00">/var/dev/u3d/stable</text>
<text text-anchor="start" x="934.5" y="-95" font-family="Roboto" font-size="10.00">/Source/Urho3D/Physics</text>
<text text-anchor="middle" x="989.5" y="-84" font-family="Roboto" font-size="10.00">/CollisionShape.h</text>
</a>
</g>
</g>
<!-- Node1&#45;&gt;Node12 -->
<g id="edge11" class="edge">
<title>Node1&#45;&gt;Node12</title>
<path fill="none" stroke="#63b8ff" d="M941.63,-145.74C950.85,-136.64 960.9,-126.72 969.4,-118.33"/>
<polygon fill="#63b8ff" stroke="#63b8ff" points="939.2,-143.22 934.55,-152.73 944.12,-148.2 939.2,-143.22"/>
</g>
<!-- Node13 -->
<g id="node13" class="node">
<title>Node13</title>
<g id="a_node13"><a xlink:href="_constraint_8h.html" target="_top" xlink:title=" ">
<polygon fill="white" stroke="#666666" points="1196.5,-118 1070.5,-118 1070.5,-77 1196.5,-77 1196.5,-118"/>
<text text-anchor="start" x="1078.5" y="-106" font-family="Roboto" font-size="10.00">/var/dev/u3d/stable</text>
<text text-anchor="start" x="1078.5" y="-95" font-family="Roboto" font-size="10.00">/Source/Urho3D/Physics</text>
<text text-anchor="middle" x="1133.5" y="-84" font-family="Roboto" font-size="10.00">/Constraint.h</text>
</a>
</g>
</g>
<!-- Node1&#45;&gt;Node13 -->
<g id="edge12" class="edge">
<title>Node1&#45;&gt;Node13</title>
<path fill="none" stroke="#63b8ff" d="M982.57,-149.95C1012.21,-139.85 1046.47,-128.17 1074.85,-118.49"/>
<polygon fill="#63b8ff" stroke="#63b8ff" points="981.65,-146.57 973.31,-153.11 983.91,-153.2 981.65,-146.57"/>
</g>
<!-- Node14 -->
<g id="node14" class="node">
<title>Node14</title>
<g id="a_node14"><a xlink:href="_rigid_body_8h.html" target="_top" xlink:title=" ">
<polygon fill="white" stroke="#666666" points="1340.5,-118 1214.5,-118 1214.5,-77 1340.5,-77 1340.5,-118"/>
<text text-anchor="start" x="1222.5" y="-106" font-family="Roboto" font-size="10.00">/var/dev/u3d/stable</text>
<text text-anchor="start" x="1222.5" y="-95" font-family="Roboto" font-size="10.00">/Source/Urho3D/Physics</text>
<text text-anchor="middle" x="1277.5" y="-84" font-family="Roboto" font-size="10.00">/RigidBody.h</text>
</a>
</g>
</g>
<!-- Node1&#45;&gt;Node14 -->
<g id="edge13" class="edge">
<title>Node1&#45;&gt;Node14</title>
<path fill="none" stroke="#63b8ff" d="M984.46,-161.58C1043.79,-151.24 1130.5,-135.26 1205.5,-118 1208.4,-117.33 1211.37,-116.63 1214.35,-115.9"/>
<polygon fill="#63b8ff" stroke="#63b8ff" points="984.09,-158.09 974.83,-163.25 985.28,-164.99 984.09,-158.09"/>
</g>
<!-- Node15 -->
<g id="node15" class="node">
<title>Node15</title>
<g id="a_node15"><a xlink:href="_rigid_body2_d_8h.html" target="_top" xlink:title=" ">
<polygon fill="white" stroke="#666666" points="1496.5,-118 1358.5,-118 1358.5,-77 1496.5,-77 1496.5,-118"/>
<text text-anchor="start" x="1366.5" y="-106" font-family="Roboto" font-size="10.00">/var/dev/u3d/stable</text>
<text text-anchor="start" x="1366.5" y="-95" font-family="Roboto" font-size="10.00">/Source/Urho3D/Physics2D</text>
<text text-anchor="middle" x="1427.5" y="-84" font-family="Roboto" font-size="10.00">/RigidBody2D.h</text>
</a>
</g>
</g>
<!-- Node1&#45;&gt;Node15 -->
<g id="edge14" class="edge">
<title>Node1&#45;&gt;Node15</title>
<path fill="none" stroke="#63b8ff" d="M984.72,-167.05C1071.38,-158.6 1221.93,-141.98 1349.5,-118 1352.38,-117.46 1355.31,-116.87 1358.27,-116.26"/>
<polygon fill="#63b8ff" stroke="#63b8ff" points="984.57,-163.55 974.95,-167.99 985.24,-170.51 984.57,-163.55"/>
</g>
<!-- Node16 -->
<g id="node16" class="node">
<title>Node16</title>
<g id="a_node16"><a xlink:href="_logic_component_8h.html" target="_top" xlink:title=" ">
<polygon fill="white" stroke="#666666" points="1634,-118 1515,-118 1515,-77 1634,-77 1634,-118"/>
<text text-anchor="start" x="1523" y="-106" font-family="Roboto" font-size="10.00">/var/dev/u3d/stable</text>
<text text-anchor="start" x="1523" y="-95" font-family="Roboto" font-size="10.00">/Source/Urho3D/Scene</text>
<text text-anchor="middle" x="1574.5" y="-84" font-family="Roboto" font-size="10.00">/LogicComponent.h</text>
</a>
</g>
</g>
<!-- Node1&#45;&gt;Node16 -->
<g id="edge15" class="edge">
<title>Node1&#45;&gt;Node16</title>
<path fill="none" stroke="#63b8ff" d="M984.67,-171.01C1096.43,-166.16 1319.53,-152.7 1505.5,-118 1508.56,-117.43 1511.68,-116.78 1514.82,-116.08"/>
<polygon fill="#63b8ff" stroke="#63b8ff" points="984.59,-167.51 974.75,-171.43 984.89,-174.5 984.59,-167.51"/>
</g>
<!-- Node17 -->
<g id="node17" class="node">
<title>Node17</title>
<g id="a_node17"><a xlink:href="_smoothed_transform_8h.html" target="_top" xlink:title=" ">
<polygon fill="white" stroke="#666666" points="1774.5,-118 1652.5,-118 1652.5,-77 1774.5,-77 1774.5,-118"/>
<text text-anchor="start" x="1660.5" y="-106" font-family="Roboto" font-size="10.00">/var/dev/u3d/stable</text>
<text text-anchor="start" x="1660.5" y="-95" font-family="Roboto" font-size="10.00">/Source/Urho3D/Scene</text>
<text text-anchor="middle" x="1713.5" y="-84" font-family="Roboto" font-size="10.00">/SmoothedTransform.h</text>
</a>
</g>
</g>
<!-- Node1&#45;&gt;Node17 -->
<g id="edge16" class="edge">
<title>Node1&#45;&gt;Node17</title>
<path fill="none" stroke="#63b8ff" d="M984.57,-172.7C1115.76,-170.21 1404.41,-159.97 1643.5,-118 1646.36,-117.5 1649.27,-116.93 1652.2,-116.31"/>
<polygon fill="#63b8ff" stroke="#63b8ff" points="984.58,-169.2 974.64,-172.88 984.7,-176.2 984.58,-169.2"/>
</g>
<!-- Node5 -->
<g id="node5" class="node">
<title>Node5</title>
<g id="a_node5"><a xlink:href="_light_8h.html" target="_top" xlink:title=" ">
<polygon fill="white" stroke="#666666" points="217,-41 86,-41 86,0 217,0 217,-41"/>
<text text-anchor="start" x="94" y="-29" font-family="Roboto" font-size="10.00">/var/dev/u3d/stable</text>
<text text-anchor="start" x="94" y="-18" font-family="Roboto" font-size="10.00">/Source/Urho3D/Graphics</text>
<text text-anchor="middle" x="151.5" y="-7" font-family="Roboto" font-size="10.00">/Light.h</text>
</a>
</g>
</g>
<!-- Node4&#45;&gt;Node5 -->
<g id="edge4" class="edge">
<title>Node4&#45;&gt;Node5</title>
<path fill="none" stroke="#63b8ff" d="M305.18,-72.95C275,-62.85 240.11,-51.17 211.22,-41.49"/>
<polygon fill="#63b8ff" stroke="#63b8ff" points="304.03,-76.26 314.62,-76.12 306.25,-69.62 304.03,-76.26"/>
</g>
<!-- Node6 -->
<g id="node6" class="node">
<title>Node6</title>
<g id="a_node6"><a xlink:href="_octree_query_8h.html" target="_top" xlink:title=" ">
<polygon fill="white" stroke="#666666" points="366,-41 235,-41 235,0 366,0 366,-41"/>
<text text-anchor="start" x="243" y="-29" font-family="Roboto" font-size="10.00">/var/dev/u3d/stable</text>
<text text-anchor="start" x="243" y="-18" font-family="Roboto" font-size="10.00">/Source/Urho3D/Graphics</text>
<text text-anchor="middle" x="300.5" y="-7" font-family="Roboto" font-size="10.00">/OctreeQuery.h</text>
</a>
</g>
</g>
<!-- Node4&#45;&gt;Node6 -->
<g id="edge5" class="edge">
<title>Node4&#45;&gt;Node6</title>
<path fill="none" stroke="#63b8ff" d="M347.74,-68.74C338.64,-59.64 328.72,-49.72 320.33,-41.33"/>
<polygon fill="#63b8ff" stroke="#63b8ff" points="345.18,-71.13 354.72,-75.72 350.13,-66.18 345.18,-71.13"/>
</g>
<!-- Node7 -->
<g id="node7" class="node">
<title>Node7</title>
<g id="a_node7"><a xlink:href="_renderer_8h.html" target="_top" xlink:title=" ">
<polygon fill="white" stroke="#666666" points="515,-41 384,-41 384,0 515,0 515,-41"/>
<text text-anchor="start" x="392" y="-29" font-family="Roboto" font-size="10.00">/var/dev/u3d/stable</text>
<text text-anchor="start" x="392" y="-18" font-family="Roboto" font-size="10.00">/Source/Urho3D/Graphics</text>
<text text-anchor="middle" x="449.5" y="-7" font-family="Roboto" font-size="10.00">/Renderer.h</text>
</a>
</g>
</g>
<!-- Node4&#45;&gt;Node7 -->
<g id="edge6" class="edge">
<title>Node4&#45;&gt;Node7</title>
<path fill="none" stroke="#63b8ff" d="M402.89,-68.74C411.87,-59.64 421.65,-49.72 429.93,-41.33"/>
<polygon fill="#63b8ff" stroke="#63b8ff" points="400.54,-66.14 396.01,-75.72 405.52,-71.06 400.54,-66.14"/>
</g>
<!-- Node8 -->
<g id="node8" class="node">
<title>Node8</title>
<g id="a_node8"><a xlink:href="_ribbon_trail_8h.html" target="_top" xlink:title=" ">
<polygon fill="white" stroke="#666666" points="664,-41 533,-41 533,0 664,0 664,-41"/>
<text text-anchor="start" x="541" y="-29" font-family="Roboto" font-size="10.00">/var/dev/u3d/stable</text>
<text text-anchor="start" x="541" y="-18" font-family="Roboto" font-size="10.00">/Source/Urho3D/Graphics</text>
<text text-anchor="middle" x="598.5" y="-7" font-family="Roboto" font-size="10.00">/RibbonTrail.h</text>
</a>
</g>
</g>
<!-- Node4&#45;&gt;Node8 -->
<g id="edge7" class="edge">
<title>Node4&#45;&gt;Node8</title>
<path fill="none" stroke="#63b8ff" d="M445.51,-72.95C475.55,-62.85 510.28,-51.17 539.05,-41.49"/>
<polygon fill="#63b8ff" stroke="#63b8ff" points="444.47,-69.61 436.11,-76.12 446.7,-76.25 444.47,-69.61"/>
</g>
</g>
</svg>
