<?xml version="1.0" encoding="UTF-8" standalone="no"?>
<!DOCTYPE svg PUBLIC "-//W3C//DTD SVG 1.1//EN"
 "http://www.w3.org/Graphics/SVG/1.1/DTD/svg11.dtd">
<!-- Generated by graphviz version 7.0.3 (0)
 -->
<!-- Title: /var/dev/u3d/stable/Source/Urho3D/IK/IKConverters.h Pages: 1 -->
<svg width="179pt" height="93pt"
 viewBox="0.00 0.00 179.00 93.00" xmlns="http://www.w3.org/2000/svg" xmlns:xlink="http://www.w3.org/1999/xlink">
<g id="graph0" class="graph" transform="scale(1 1) rotate(0) translate(4 89)">
<title>/var/dev/u3d/stable/Source/Urho3D/IK/IKConverters.h</title>
<!-- Node1 -->
<g id="node1" class="node">
<title>Node1</title>
<g id="a_node1"><a xlink:title=" ">
<polygon fill="#999999" stroke="#666666" points="171,-85 0,-85 0,-55 171,-55 171,-85"/>
<text text-anchor="start" x="8" y="-73" font-family="Roboto" font-size="10.00">/var/dev/u3d/stable</text>
<text text-anchor="middle" x="85.5" y="-62" font-family="Roboto" font-size="10.00">/Source/Urho3D/IK/IKConverters.h</text>
</a>
</g>
</g>
<!-- Node2 -->
<g id="node2" class="node">
<title>Node2</title>
<g id="a_node2"><a xlink:title=" ">
<polygon fill="#e0e0e0" stroke="#999999" points="76.5,-19 20.5,-19 20.5,0 76.5,0 76.5,-19"/>
<text text-anchor="middle" x="48.5" y="-7" font-family="Roboto" font-size="10.00">ik/quat.h</text>
</a>
</g>
</g>
<!-- Node1&#45;&gt;Node2 -->
<g id="edge1" class="edge">
<title>Node1&#45;&gt;Node2</title>
<path fill="none" stroke="#63b8ff" d="M76.35,-54.54C71.42,-46.74 65.28,-37.03 60.02,-28.71"/>
<polygon fill="#63b8ff" stroke="#63b8ff" points="63.1,-27.03 54.8,-20.45 57.18,-30.78 63.1,-27.03"/>
</g>
<!-- Node3 -->
<g id="node3" class="node">
<title>Node3</title>
<g id="a_node3"><a xlink:title=" ">
<polygon fill="#e0e0e0" stroke="#999999" points="150.5,-19 94.5,-19 94.5,0 150.5,0 150.5,-19"/>
<text text-anchor="middle" x="122.5" y="-7" font-family="Roboto" font-size="10.00">ik/vec3.h</text>
</a>
</g>
</g>
<!-- Node1&#45;&gt;Node3 -->
<g id="edge2" class="edge">
<title>Node1&#45;&gt;Node3</title>
<path fill="none" stroke="#63b8ff" d="M94.65,-54.54C99.58,-46.74 105.72,-37.03 110.98,-28.71"/>
<polygon fill="#63b8ff" stroke="#63b8ff" points="113.82,-30.78 116.2,-20.45 107.9,-27.03 113.82,-30.78"/>
</g>
</g>
</svg>
