<?xml version="1.0" encoding="UTF-8" standalone="no"?>
<!DOCTYPE svg PUBLIC "-//W3C//DTD SVG 1.1//EN"
 "http://www.w3.org/Graphics/SVG/1.1/DTD/svg11.dtd">
<!-- Generated by graphviz version 7.0.3 (0)
 -->
<!-- Title: Urho3D::Sqrt Pages: 1 -->
<svg width="394pt" height="51pt"
 viewBox="0.00 0.00 394.00 50.50" xmlns="http://www.w3.org/2000/svg" xmlns:xlink="http://www.w3.org/1999/xlink">
<g id="graph0" class="graph" transform="scale(1 1) rotate(0) translate(4 46.5)">
<title>Urho3D::Sqrt</title>
<!-- Node1 -->
<g id="node1" class="node">
<title>Node1</title>
<g id="a_node1"><a xlink:title=" ">
<polygon fill="#999999" stroke="#666666" points="386,-24.5 312,-24.5 312,-5.5 386,-5.5 386,-24.5"/>
<text text-anchor="middle" x="349" y="-12.5" font-family="Roboto" font-size="10.00">Urho3D::Sqrt</text>
</a>
</g>
</g>
<!-- Node1&#45;&gt;Node1 -->
<g id="edge3" class="edge">
<title>Node1&#45;&gt;Node1</title>
<path fill="none" stroke="#63b8ff" d="M372.61,-35.93C369.65,-39.79 361.79,-42.5 349,-42.5 325.62,-42.5 318.68,-33.44 328.18,-24.87"/>
<polygon fill="#63b8ff" stroke="#63b8ff" points="376.03,-35.18 370.19,-26.34 369.24,-36.89 376.03,-35.18"/>
</g>
<!-- Node2 -->
<g id="node2" class="node">
<title>Node2</title>
<g id="a_node2"><a xlink:href="class_urho3_d_1_1_particle_emitter.html#a4e4872622bad52221835f26ac78be6b4" target="_top" xlink:title="Create a new particle. Return true if there was room.">
<polygon fill="white" stroke="#666666" points="276,-30 156,-30 156,0 276,0 276,-30"/>
<text text-anchor="start" x="164" y="-18" font-family="Roboto" font-size="10.00">Urho3D::ParticleEmitter</text>
<text text-anchor="middle" x="216" y="-7" font-family="Roboto" font-size="10.00">::EmitNewParticle</text>
</a>
</g>
</g>
<!-- Node1&#45;&gt;Node2 -->
<g id="edge1" class="edge">
<title>Node1&#45;&gt;Node2</title>
<path fill="none" stroke="#63b8ff" d="M300.13,-15C292.41,-15 284.34,-15 276.39,-15"/>
<polygon fill="#63b8ff" stroke="#63b8ff" points="300,-18.5 310,-15 300,-11.5 300,-18.5"/>
</g>
<!-- Node3 -->
<g id="node3" class="node">
<title>Node3</title>
<g id="a_node3"><a xlink:href="class_urho3_d_1_1_particle_emitter.html#a482ed0bdc3327f8c7c5e856e4e39a812" target="_top" xlink:title="Update before octree reinsertion. Is called from a worker thread.">
<polygon fill="white" stroke="#666666" points="120,-30 0,-30 0,0 120,0 120,-30"/>
<text text-anchor="start" x="8" y="-18" font-family="Roboto" font-size="10.00">Urho3D::ParticleEmitter</text>
<text text-anchor="middle" x="60" y="-7" font-family="Roboto" font-size="10.00">::Update</text>
</a>
</g>
</g>
<!-- Node2&#45;&gt;Node3 -->
<g id="edge2" class="edge">
<title>Node2&#45;&gt;Node3</title>
<path fill="none" stroke="#63b8ff" d="M144.59,-15C136.52,-15 128.36,-15 120.45,-15"/>
<polygon fill="#63b8ff" stroke="#63b8ff" points="144.39,-18.5 154.39,-15 144.39,-11.5 144.39,-18.5"/>
</g>
</g>
</svg>
