<?xml version="1.0" encoding="UTF-8" standalone="no"?>
<!DOCTYPE svg PUBLIC "-//W3C//DTD SVG 1.1//EN"
 "http://www.w3.org/Graphics/SVG/1.1/DTD/svg11.dtd">
<!-- Generated by graphviz version 7.0.3 (0)
 -->
<!-- Title: Urho3D::Acos Pages: 1 -->
<svg width="205pt" height="45pt"
 viewBox="0.00 0.00 205.00 45.00" xmlns="http://www.w3.org/2000/svg" xmlns:xlink="http://www.w3.org/1999/xlink">
<g id="graph0" class="graph" transform="scale(1 1) rotate(0) translate(4 41)">
<title>Urho3D::Acos</title>
<!-- Node1 -->
<g id="node1" class="node">
<title>Node1</title>
<g id="a_node1"><a xlink:title=" ">
<polygon fill="#999999" stroke="#666666" points="78,-19 0,-19 0,0 78,0 78,-19"/>
<text text-anchor="middle" x="39" y="-7" font-family="Roboto" font-size="10.00">Urho3D::Acos</text>
</a>
</g>
</g>
<!-- Node1&#45;&gt;Node1 -->
<g id="edge1" class="edge">
<title>Node1&#45;&gt;Node1</title>
<path fill="none" stroke="#63b8ff" d="M20.76,-19.37C12.44,-27.94 18.52,-37 39,-37 50.2,-37 57.09,-34.29 59.68,-30.43"/>
<polygon fill="#63b8ff" stroke="#63b8ff" points="63.14,-29.86 57.56,-20.85 56.3,-31.37 63.14,-29.86"/>
</g>
<!-- Node2 -->
<g id="node2" class="node">
<title>Node2</title>
<g id="a_node2"><a xlink:href="_math_defs_8h.html#a937fef228b452d2488ce13d78f0bd810" target="_top" xlink:title=" ">
<polygon fill="white" stroke="#666666" points="197,-19 114,-19 114,0 197,0 197,-19"/>
<text text-anchor="middle" x="155.5" y="-7" font-family="Roboto" font-size="10.00">Urho3D::Clamp</text>
</a>
</g>
</g>
<!-- Node1&#45;&gt;Node2 -->
<g id="edge2" class="edge">
<title>Node1&#45;&gt;Node2</title>
<path fill="none" stroke="#63b8ff" d="M78.45,-9.5C86.04,-9.5 94.13,-9.5 102.1,-9.5"/>
<polygon fill="#63b8ff" stroke="#63b8ff" points="102.09,-13 112.09,-9.5 102.09,-6 102.09,-13"/>
</g>
<!-- Node2&#45;&gt;Node2 -->
<g id="edge3" class="edge">
<title>Node2&#45;&gt;Node2</title>
<path fill="none" stroke="#63b8ff" d="M137.26,-19.37C128.94,-27.94 135.02,-37 155.5,-37 166.7,-37 173.59,-34.29 176.18,-30.43"/>
<polygon fill="#63b8ff" stroke="#63b8ff" points="179.64,-29.86 174.06,-20.85 172.8,-31.37 179.64,-29.86"/>
</g>
</g>
</svg>
