<?xml version="1.0" encoding="UTF-8" standalone="no"?>
<!DOCTYPE svg PUBLIC "-//W3C//DTD SVG 1.1//EN"
 "http://www.w3.org/Graphics/SVG/1.1/DTD/svg11.dtd">
<!-- Generated by graphviz version 7.0.3 (0)
 -->
<!-- Title: Urho3D::IsNaN Pages: 1 -->
<svg width="957pt" height="310pt"
 viewBox="0.00 0.00 957.00 310.00" xmlns="http://www.w3.org/2000/svg" xmlns:xlink="http://www.w3.org/1999/xlink">
<g id="graph0" class="graph" transform="scale(1 1) rotate(0) translate(4 306)">
<title>Urho3D::IsNaN</title>
<!-- Node1 -->
<g id="node1" class="node">
<title>Node1</title>
<g id="a_node1"><a xlink:title=" ">
<polygon fill="#999999" stroke="#666666" points="949,-157 866,-157 866,-138 949,-138 949,-157"/>
<text text-anchor="middle" x="907.5" y="-145" font-family="Roboto" font-size="10.00">Urho3D::IsNaN</text>
</a>
</g>
</g>
<!-- Node1&#45;&gt;Node1 -->
<g id="edge17" class="edge">
<title>Node1&#45;&gt;Node1</title>
<path fill="none" stroke="#63b8ff" d="M932.08,-168.43C929.01,-172.29 920.81,-175 907.5,-175 883.15,-175 875.93,-165.94 885.82,-157.37"/>
<polygon fill="#63b8ff" stroke="#63b8ff" points="935.49,-167.62 929.57,-158.83 928.72,-169.39 935.49,-167.62"/>
</g>
<!-- Node2 -->
<g id="node2" class="node">
<title>Node2</title>
<g id="a_node2"><a xlink:href="class_urho3_d_1_1_matrix2.html#a9df1b552d864ff9cd82b925c4b904177" target="_top" xlink:title="Return whether any element is NaN.">
<polygon fill="white" stroke="#666666" points="830,-302 708,-302 708,-283 830,-283 830,-302"/>
<text text-anchor="middle" x="769" y="-290" font-family="Roboto" font-size="10.00">Urho3D::Matrix2::IsNaN</text>
</a>
</g>
</g>
<!-- Node1&#45;&gt;Node2 -->
<g id="edge1" class="edge">
<title>Node1&#45;&gt;Node2</title>
<path fill="none" stroke="#63b8ff" d="M899.54,-168.04C888.94,-196.19 866.12,-246.47 830,-274.5 825.88,-277.7 821.19,-280.33 816.3,-282.5"/>
<polygon fill="#63b8ff" stroke="#63b8ff" points="902.74,-169.48 902.82,-158.88 896.15,-167.11 902.74,-169.48"/>
</g>
<!-- Node3 -->
<g id="node3" class="node">
<title>Node3</title>
<g id="a_node3"><a xlink:href="class_urho3_d_1_1_matrix3.html#af889ca04e44840025786a3ea547e705e" target="_top" xlink:title="Return whether any element is NaN.">
<polygon fill="white" stroke="#666666" points="830,-265 708,-265 708,-246 830,-246 830,-265"/>
<text text-anchor="middle" x="769" y="-253" font-family="Roboto" font-size="10.00">Urho3D::Matrix3::IsNaN</text>
</a>
</g>
</g>
<!-- Node1&#45;&gt;Node3 -->
<g id="edge2" class="edge">
<title>Node1&#45;&gt;Node3</title>
<path fill="none" stroke="#63b8ff" d="M894.46,-167.05C881.08,-187.21 857.67,-218.22 830,-236.5 824.44,-240.17 818.12,-243.18 811.72,-245.62"/>
<polygon fill="#63b8ff" stroke="#63b8ff" points="897.4,-168.95 899.85,-158.64 891.51,-165.17 897.4,-168.95"/>
</g>
<!-- Node4 -->
<g id="node4" class="node">
<title>Node4</title>
<g id="a_node4"><a xlink:href="class_urho3_d_1_1_matrix3x4.html#a58070ab0d121a4d984cf50151552eb43" target="_top" xlink:title="Return whether any element is NaN.">
<polygon fill="white" stroke="#666666" points="821,-227.5 717,-227.5 717,-197.5 821,-197.5 821,-227.5"/>
<text text-anchor="start" x="725" y="-215.5" font-family="Roboto" font-size="10.00">Urho3D::Matrix3x4::</text>
<text text-anchor="middle" x="769" y="-204.5" font-family="Roboto" font-size="10.00">IsNaN</text>
</a>
</g>
</g>
<!-- Node1&#45;&gt;Node4 -->
<g id="edge3" class="edge">
<title>Node1&#45;&gt;Node4</title>
<path fill="none" stroke="#63b8ff" d="M878.71,-162.78C864.32,-170.49 846.38,-179.82 830,-187.5 823.05,-190.76 815.56,-194.05 808.31,-197.12"/>
<polygon fill="#63b8ff" stroke="#63b8ff" points="880.02,-166.04 887.15,-158.21 876.69,-159.89 880.02,-166.04"/>
</g>
<!-- Node5 -->
<g id="node5" class="node">
<title>Node5</title>
<g id="a_node5"><a xlink:href="class_urho3_d_1_1_matrix4.html#a1e12e8ef7183f9e6610f980ec269381b" target="_top" xlink:title="Return whether any element is NaN.">
<polygon fill="white" stroke="#666666" points="830,-179 708,-179 708,-160 830,-160 830,-179"/>
<text text-anchor="middle" x="769" y="-167" font-family="Roboto" font-size="10.00">Urho3D::Matrix4::IsNaN</text>
</a>
</g>
</g>
<!-- Node1&#45;&gt;Node5 -->
<g id="edge4" class="edge">
<title>Node1&#45;&gt;Node5</title>
<path fill="none" stroke="#63b8ff" d="M854.33,-155.91C846.49,-157.17 838.35,-158.48 830.36,-159.77"/>
<polygon fill="#63b8ff" stroke="#63b8ff" points="854.74,-159.39 864.05,-154.34 853.62,-152.48 854.74,-159.39"/>
</g>
<!-- Node6 -->
<g id="node6" class="node">
<title>Node6</title>
<g id="a_node6"><a xlink:href="class_urho3_d_1_1_quaternion.html#a59be2a20efbfd54a6aa5b920ab9aa3f8" target="_top" xlink:title="Return whether any element is NaN.">
<polygon fill="white" stroke="#666666" points="820.5,-141.5 717.5,-141.5 717.5,-111.5 820.5,-111.5 820.5,-141.5"/>
<text text-anchor="start" x="725.5" y="-129.5" font-family="Roboto" font-size="10.00">Urho3D::Quaternion</text>
<text text-anchor="middle" x="769" y="-118.5" font-family="Roboto" font-size="10.00">::IsNaN</text>
</a>
</g>
</g>
<!-- Node1&#45;&gt;Node6 -->
<g id="edge5" class="edge">
<title>Node1&#45;&gt;Node6</title>
<path fill="none" stroke="#63b8ff" d="M854.29,-139.47C843.24,-137.77 831.59,-135.97 820.59,-134.28"/>
<polygon fill="#63b8ff" stroke="#63b8ff" points="853.63,-142.91 864.05,-140.97 854.7,-135.99 853.63,-142.91"/>
</g>
<!-- Node15 -->
<g id="node15" class="node">
<title>Node15</title>
<g id="a_node15"><a xlink:href="class_urho3_d_1_1_vector2.html#a24f2475ba3aed4e0673e8a671e823285" target="_top" xlink:title="Return whether any component is NaN.">
<polygon fill="white" stroke="#666666" points="830,-93 708,-93 708,-74 830,-74 830,-93"/>
<text text-anchor="middle" x="769" y="-81" font-family="Roboto" font-size="10.00">Urho3D::Vector2::IsNaN</text>
</a>
</g>
</g>
<!-- Node1&#45;&gt;Node15 -->
<g id="edge14" class="edge">
<title>Node1&#45;&gt;Node15</title>
<path fill="none" stroke="#63b8ff" d="M882.72,-131.63C867.98,-122.27 848.41,-110.7 830,-102.5 822.41,-99.12 814.05,-96.07 806.03,-93.46"/>
<polygon fill="#63b8ff" stroke="#63b8ff" points="880.51,-134.37 890.8,-136.86 884.31,-128.49 880.51,-134.37"/>
</g>
<!-- Node16 -->
<g id="node16" class="node">
<title>Node16</title>
<g id="a_node16"><a xlink:href="class_urho3_d_1_1_vector3.html#ae3b4753e30af7a6fe34a9a7f4646084e" target="_top" xlink:title="Return whether any component is NaN.">
<polygon fill="white" stroke="#666666" points="830,-56 708,-56 708,-37 830,-37 830,-56"/>
<text text-anchor="middle" x="769" y="-44" font-family="Roboto" font-size="10.00">Urho3D::Vector3::IsNaN</text>
</a>
</g>
</g>
<!-- Node1&#45;&gt;Node16 -->
<g id="edge15" class="edge">
<title>Node1&#45;&gt;Node16</title>
<path fill="none" stroke="#63b8ff" d="M893.59,-128.36C879.91,-109.5 856.64,-81.16 830,-64.5 824.93,-61.33 819.27,-58.69 813.5,-56.5"/>
<polygon fill="#63b8ff" stroke="#63b8ff" points="890.69,-130.31 899.29,-136.49 896.42,-126.29 890.69,-130.31"/>
</g>
<!-- Node17 -->
<g id="node17" class="node">
<title>Node17</title>
<g id="a_node17"><a xlink:href="class_urho3_d_1_1_vector4.html#ad43a5b4100c213db7c4aad98a1b3a662" target="_top" xlink:title="Return whether any component is NaN.">
<polygon fill="white" stroke="#666666" points="830,-19 708,-19 708,0 830,0 830,-19"/>
<text text-anchor="middle" x="769" y="-7" font-family="Roboto" font-size="10.00">Urho3D::Vector4::IsNaN</text>
</a>
</g>
</g>
<!-- Node1&#45;&gt;Node17 -->
<g id="edge16" class="edge">
<title>Node1&#45;&gt;Node17</title>
<path fill="none" stroke="#63b8ff" d="M898.91,-127.33C887.83,-100.59 864.68,-53.72 830,-27.5 825.75,-24.29 820.93,-21.64 815.91,-19.47"/>
<polygon fill="#63b8ff" stroke="#63b8ff" points="895.54,-128.34 902.48,-136.34 902.05,-125.76 895.54,-128.34"/>
</g>
<!-- Node7 -->
<g id="node7" class="node">
<title>Node7</title>
<g id="a_node7"><a xlink:href="class_urho3_d_1_1_quaternion.html#a18879f2754646ddf9a8608d9eaafff35" target="_top" xlink:title="Define from a direction to look in and an up direction. Return true if successful,...">
<polygon fill="white" stroke="#666666" points="672,-141.5 568,-141.5 568,-111.5 672,-111.5 672,-141.5"/>
<text text-anchor="start" x="576" y="-129.5" font-family="Roboto" font-size="10.00">Urho3D::Quaternion</text>
<text text-anchor="middle" x="620" y="-118.5" font-family="Roboto" font-size="10.00">::FromLookRotation</text>
</a>
</g>
</g>
<!-- Node6&#45;&gt;Node7 -->
<g id="edge6" class="edge">
<title>Node6&#45;&gt;Node7</title>
<path fill="none" stroke="#63b8ff" d="M705.95,-126.5C694.78,-126.5 683.26,-126.5 672.43,-126.5"/>
<polygon fill="#63b8ff" stroke="#63b8ff" points="705.9,-130 715.9,-126.5 705.9,-123 705.9,-130"/>
</g>
<!-- Node8 -->
<g id="node8" class="node">
<title>Node8</title>
<g id="a_node8"><a xlink:href="class_urho3_d_1_1_camera.html#a550d2bdf61207a877e5ecf7bbb6e247e" target="_top" xlink:title="Return a world rotation for facing a camera on certain axes based on the existing world rotation.">
<polygon fill="white" stroke="#666666" points="532,-163.5 368,-163.5 368,-133.5 532,-133.5 532,-163.5"/>
<text text-anchor="start" x="376" y="-151.5" font-family="Roboto" font-size="10.00">Urho3D::Camera::GetFaceCamera</text>
<text text-anchor="middle" x="450" y="-140.5" font-family="Roboto" font-size="10.00">Rotation</text>
</a>
</g>
</g>
<!-- Node7&#45;&gt;Node8 -->
<g id="edge7" class="edge">
<title>Node7&#45;&gt;Node8</title>
<path fill="none" stroke="#63b8ff" d="M556.4,-134.7C548.55,-135.73 540.43,-136.79 532.34,-137.85"/>
<polygon fill="#63b8ff" stroke="#63b8ff" points="556.72,-138.19 566.18,-133.42 555.81,-131.24 556.72,-138.19"/>
</g>
<!-- Node14 -->
<g id="node14" class="node">
<title>Node14</title>
<g id="a_node14"><a xlink:href="class_urho3_d_1_1_node.html#afb32a557cfa6483f55c896046efb9b4a" target="_top" xlink:title="Look at a target position in the chosen transform space. Note that the up vector is always specified ...">
<polygon fill="white" stroke="#666666" points="508,-115 392,-115 392,-96 508,-96 508,-115"/>
<text text-anchor="middle" x="450" y="-103" font-family="Roboto" font-size="10.00">Urho3D::Node::LookAt</text>
</a>
</g>
</g>
<!-- Node7&#45;&gt;Node14 -->
<g id="edge13" class="edge">
<title>Node7&#45;&gt;Node14</title>
<path fill="none" stroke="#63b8ff" d="M556.45,-118.68C540.73,-116.72 523.92,-114.62 508.46,-112.68"/>
<polygon fill="#63b8ff" stroke="#63b8ff" points="555.82,-122.13 566.18,-119.9 556.69,-115.18 555.82,-122.13"/>
</g>
<!-- Node9 -->
<g id="node9" class="node">
<title>Node9</title>
<g id="a_node9"><a xlink:href="class_urho3_d_1_1_text3_d.html#aa77a802e886bfb646350e8d0a0a70958" target="_top" xlink:title="Recalculate camera facing and fixed screen size.">
<polygon fill="white" stroke="#666666" points="332,-211.5 201,-211.5 201,-181.5 332,-181.5 332,-211.5"/>
<text text-anchor="start" x="209" y="-199.5" font-family="Roboto" font-size="10.00">Urho3D::Text3D::Calculate</text>
<text text-anchor="middle" x="266.5" y="-188.5" font-family="Roboto" font-size="10.00">FixedScreenSize</text>
</a>
</g>
</g>
<!-- Node8&#45;&gt;Node9 -->
<g id="edge8" class="edge">
<title>Node8&#45;&gt;Node9</title>
<path fill="none" stroke="#63b8ff" d="M379.68,-166.83C361.91,-171.53 342.97,-176.54 325.82,-181.08"/>
<polygon fill="#63b8ff" stroke="#63b8ff" points="380.34,-170.28 389.11,-164.34 378.55,-163.51 380.34,-170.28"/>
</g>
<!-- Node12 -->
<g id="node12" class="node">
<title>Node12</title>
<g id="a_node12"><a xlink:href="class_urho3_d_1_1_billboard_set.html#ae8d8caed716187e339f5e6488d25f156" target="_top" xlink:title="Calculate distance and prepare batches for rendering. May be called from worker thread(s),...">
<polygon fill="white" stroke="#666666" points="320,-163.5 213,-163.5 213,-133.5 320,-133.5 320,-163.5"/>
<text text-anchor="start" x="221" y="-151.5" font-family="Roboto" font-size="10.00">Urho3D::BillboardSet</text>
<text text-anchor="middle" x="266.5" y="-140.5" font-family="Roboto" font-size="10.00">::UpdateBatches</text>
</a>
</g>
</g>
<!-- Node8&#45;&gt;Node12 -->
<g id="edge11" class="edge">
<title>Node8&#45;&gt;Node12</title>
<path fill="none" stroke="#63b8ff" d="M356.24,-148.5C343.92,-148.5 331.65,-148.5 320.33,-148.5"/>
<polygon fill="#63b8ff" stroke="#63b8ff" points="356.03,-152 366.03,-148.5 356.03,-145 356.03,-152"/>
</g>
<!-- Node13 -->
<g id="node13" class="node">
<title>Node13</title>
<g id="a_node13"><a xlink:href="class_urho3_d_1_1_billboard_set.html#adc0ee0f5b93f2ecea3db3569355ba0fc" target="_top" xlink:title="Prepare geometry for rendering. Called from a worker thread if possible (no GPU update).">
<polygon fill="white" stroke="#666666" points="320,-115.5 213,-115.5 213,-85.5 320,-85.5 320,-115.5"/>
<text text-anchor="start" x="221" y="-103.5" font-family="Roboto" font-size="10.00">Urho3D::BillboardSet</text>
<text text-anchor="middle" x="266.5" y="-92.5" font-family="Roboto" font-size="10.00">::UpdateGeometry</text>
</a>
</g>
</g>
<!-- Node8&#45;&gt;Node13 -->
<g id="edge12" class="edge">
<title>Node8&#45;&gt;Node13</title>
<path fill="none" stroke="#63b8ff" d="M379.51,-130.12C359.85,-124.92 338.79,-119.35 320.29,-114.46"/>
<polygon fill="#63b8ff" stroke="#63b8ff" points="378.55,-133.49 389.11,-132.66 380.34,-126.72 378.55,-133.49"/>
</g>
<!-- Node10 -->
<g id="node10" class="node">
<title>Node10</title>
<g id="a_node10"><a xlink:href="class_urho3_d_1_1_text3_d.html#aff78b88d77fa5beca14427ab5572c99b" target="_top" xlink:title="Calculate distance and prepare batches for rendering. May be called from worker thread(s),...">
<polygon fill="white" stroke="#666666" points="161,-224 4,-224 4,-205 161,-205 161,-224"/>
<text text-anchor="middle" x="82.5" y="-212" font-family="Roboto" font-size="10.00">Urho3D::Text3D::UpdateBatches</text>
</a>
</g>
</g>
<!-- Node9&#45;&gt;Node10 -->
<g id="edge9" class="edge">
<title>Node9&#45;&gt;Node10</title>
<path fill="none" stroke="#63b8ff" d="M189.12,-204.05C179.99,-204.96 170.64,-205.88 161.48,-206.79"/>
<polygon fill="#63b8ff" stroke="#63b8ff" points="189.45,-207.54 199.06,-203.07 188.76,-200.57 189.45,-207.54"/>
</g>
<!-- Node11 -->
<g id="node11" class="node">
<title>Node11</title>
<g id="a_node11"><a xlink:href="class_urho3_d_1_1_text3_d.html#ae76455bed7ea206ebb893e49c5a14ae7" target="_top" xlink:title="Prepare geometry for rendering. Called from a worker thread if possible (no GPU update).">
<polygon fill="white" stroke="#666666" points="165,-187 0,-187 0,-168 165,-168 165,-187"/>
<text text-anchor="middle" x="82.5" y="-175" font-family="Roboto" font-size="10.00">Urho3D::Text3D::UpdateGeometry</text>
</a>
</g>
</g>
<!-- Node9&#45;&gt;Node11 -->
<g id="edge10" class="edge">
<title>Node9&#45;&gt;Node11</title>
<path fill="none" stroke="#63b8ff" d="M189.14,-188.53C181.26,-187.71 173.22,-186.87 165.27,-186.04"/>
<polygon fill="#63b8ff" stroke="#63b8ff" points="188.75,-192.01 199.06,-189.56 189.48,-185.04 188.75,-192.01"/>
</g>
</g>
</svg>
