<?xml version="1.0" encoding="UTF-8" standalone="no"?>
<!DOCTYPE svg PUBLIC "-//W3C//DTD SVG 1.1//EN"
 "http://www.w3.org/Graphics/SVG/1.1/DTD/svg11.dtd">
<!-- Generated by graphviz version 7.0.3 (0)
 -->
<!-- Title: Urho3D::Sign Pages: 1 -->
<svg width="282pt" height="45pt"
 viewBox="0.00 0.00 282.00 45.00" xmlns="http://www.w3.org/2000/svg" xmlns:xlink="http://www.w3.org/1999/xlink">
<g id="graph0" class="graph" transform="scale(1 1) rotate(0) translate(4 41)">
<title>Urho3D::Sign</title>
<!-- Node1 -->
<g id="node1" class="node">
<title>Node1</title>
<g id="a_node1"><a xlink:title=" ">
<polygon fill="#999999" stroke="#666666" points="274,-19 200,-19 200,0 274,0 274,-19"/>
<text text-anchor="middle" x="237" y="-7" font-family="Roboto" font-size="10.00">Urho3D::Sign</text>
</a>
</g>
</g>
<!-- Node1&#45;&gt;Node1 -->
<g id="edge3" class="edge">
<title>Node1&#45;&gt;Node1</title>
<path fill="none" stroke="#63b8ff" d="M264.79,-30.1C261.59,-34.13 252.33,-37 237,-37 209.75,-37 201.67,-27.94 212.73,-19.37"/>
<polygon fill="#63b8ff" stroke="#63b8ff" points="268.19,-29.21 261.74,-20.81 261.54,-31.4 268.19,-29.21"/>
</g>
<!-- Node2 -->
<g id="node2" class="node">
<title>Node2</title>
<g id="a_node2"><a xlink:href="_math_defs_8h.html#a54e94e7a3fac6a9bed6a02f8cc115c24" target="_top" xlink:title="Round value to nearest multiple.">
<polygon fill="white" stroke="#666666" points="164,-19 0,-19 0,0 164,0 164,-19"/>
<text text-anchor="middle" x="82" y="-7" font-family="Roboto" font-size="10.00">Urho3D::RoundToNearestMultiple</text>
</a>
</g>
</g>
<!-- Node1&#45;&gt;Node2 -->
<g id="edge1" class="edge">
<title>Node1&#45;&gt;Node2</title>
<path fill="none" stroke="#63b8ff" d="M188.42,-9.5C180.7,-9.5 172.51,-9.5 164.25,-9.5"/>
<polygon fill="#63b8ff" stroke="#63b8ff" points="188.23,-13 198.23,-9.5 188.23,-6 188.23,-13"/>
</g>
<!-- Node2&#45;&gt;Node2 -->
<g id="edge2" class="edge">
<title>Node2&#45;&gt;Node2</title>
<path fill="none" stroke="#63b8ff" d="M109.79,-30.1C106.59,-34.13 97.33,-37 82,-37 54.75,-37 46.67,-27.94 57.73,-19.37"/>
<polygon fill="#63b8ff" stroke="#63b8ff" points="113.19,-29.21 106.74,-20.81 106.54,-31.4 113.19,-29.21"/>
</g>
</g>
</svg>
