<?xml version="1.0" encoding="UTF-8" standalone="no"?>
<!DOCTYPE svg PUBLIC "-//W3C//DTD SVG 1.1//EN"
 "http://www.w3.org/Graphics/SVG/1.1/DTD/svg11.dtd">
<!-- Generated by graphviz version 7.0.3 (0)
 -->
<!-- Title: /var/dev/u3d/stable/Source/Urho3D/Graphics/Renderer.h Pages: 1 -->
<svg width="280pt" height="159pt"
 viewBox="0.00 0.00 279.50 159.00" xmlns="http://www.w3.org/2000/svg" xmlns:xlink="http://www.w3.org/1999/xlink">
<g id="graph0" class="graph" transform="scale(1 1) rotate(0) translate(4 155)">
<title>/var/dev/u3d/stable/Source/Urho3D/Graphics/Renderer.h</title>
<!-- Node1 -->
<g id="node1" class="node">
<title>Node1</title>
<g id="a_node1"><a xlink:title=" ">
<polygon fill="#999999" stroke="#666666" points="205.5,-151 74.5,-151 74.5,-110 205.5,-110 205.5,-151"/>
<text text-anchor="start" x="82.5" y="-139" font-family="Roboto" font-size="10.00">/var/dev/u3d/stable</text>
<text text-anchor="start" x="82.5" y="-128" font-family="Roboto" font-size="10.00">/Source/Urho3D/Graphics</text>
<text text-anchor="middle" x="140" y="-117" font-family="Roboto" font-size="10.00">/Renderer.h</text>
</a>
</g>
</g>
<!-- Node2 -->
<g id="node2" class="node">
<title>Node2</title>
<g id="a_node2"><a xlink:href="_drawable_8h.html" target="_top" xlink:title=" ">
<polygon fill="white" stroke="#666666" points="198.5,-74 81.5,-74 81.5,-55 198.5,-55 198.5,-74"/>
<text text-anchor="middle" x="140" y="-62" font-family="Roboto" font-size="10.00">../Graphics/Drawable.h</text>
</a>
</g>
</g>
<!-- Node1&#45;&gt;Node2 -->
<g id="edge1" class="edge">
<title>Node1&#45;&gt;Node2</title>
<path fill="none" stroke="#63b8ff" d="M140,-109.6C140,-101.98 140,-93.3 140,-85.66"/>
<polygon fill="#63b8ff" stroke="#63b8ff" points="143.5,-85.68 140,-75.68 136.5,-85.68 143.5,-85.68"/>
</g>
<!-- Node3 -->
<g id="node3" class="node">
<title>Node3</title>
<g id="a_node3"><a xlink:href="_graphics_defs_8h.html" target="_top" xlink:title=" ">
<polygon fill="white" stroke="#666666" points="136,-19 0,-19 0,0 136,0 136,-19"/>
<text text-anchor="middle" x="68" y="-7" font-family="Roboto" font-size="10.00">../Graphics/GraphicsDefs.h</text>
</a>
</g>
</g>
<!-- Node2&#45;&gt;Node3 -->
<g id="edge2" class="edge">
<title>Node2&#45;&gt;Node3</title>
<path fill="none" stroke="#63b8ff" d="M127.79,-54.51C117.17,-46.7 101.56,-35.21 88.96,-25.93"/>
<polygon fill="#63b8ff" stroke="#63b8ff" points="91.38,-23.36 81.25,-20.26 87.23,-29 91.38,-23.36"/>
</g>
<!-- Node4 -->
<g id="node4" class="node">
<title>Node4</title>
<g id="a_node4"><a xlink:href="_component_8h.html" target="_top" xlink:title=" ">
<polygon fill="white" stroke="#666666" points="271.5,-19 154.5,-19 154.5,0 271.5,0 271.5,-19"/>
<text text-anchor="middle" x="213" y="-7" font-family="Roboto" font-size="10.00">../Scene/Component.h</text>
</a>
</g>
</g>
<!-- Node2&#45;&gt;Node4 -->
<g id="edge3" class="edge">
<title>Node2&#45;&gt;Node4</title>
<path fill="none" stroke="#63b8ff" d="M152.38,-54.51C163.15,-46.7 178.97,-35.21 191.75,-25.93"/>
<polygon fill="#63b8ff" stroke="#63b8ff" points="193.54,-28.95 199.57,-20.25 189.43,-23.29 193.54,-28.95"/>
</g>
</g>
</svg>
