<?xml version="1.0" encoding="UTF-8" standalone="no"?>
<!DOCTYPE svg PUBLIC "-//W3C//DTD SVG 1.1//EN"
 "http://www.w3.org/Graphics/SVG/1.1/DTD/svg11.dtd">
<!-- Generated by graphviz version 7.0.3 (0)
 -->
<!-- Title: /var/dev/u3d/stable/Source/Urho3D/Physics2D/RigidBody2D.h Pages: 1 -->
<svg width="228pt" height="104pt"
 viewBox="0.00 0.00 228.00 104.00" xmlns="http://www.w3.org/2000/svg" xmlns:xlink="http://www.w3.org/1999/xlink">
<g id="graph0" class="graph" transform="scale(1 1) rotate(0) translate(4 100)">
<title>/var/dev/u3d/stable/Source/Urho3D/Physics2D/RigidBody2D.h</title>
<!-- Node1 -->
<g id="node1" class="node">
<title>Node1</title>
<g id="a_node1"><a xlink:title=" ">
<polygon fill="#999999" stroke="#666666" points="186.5,-96 48.5,-96 48.5,-55 186.5,-55 186.5,-96"/>
<text text-anchor="start" x="56.5" y="-84" font-family="Roboto" font-size="10.00">/var/dev/u3d/stable</text>
<text text-anchor="start" x="56.5" y="-73" font-family="Roboto" font-size="10.00">/Source/Urho3D/Physics2D</text>
<text text-anchor="middle" x="117.5" y="-62" font-family="Roboto" font-size="10.00">/RigidBody2D.h</text>
</a>
</g>
</g>
<!-- Node2 -->
<g id="node2" class="node">
<title>Node2</title>
<g id="a_node2"><a xlink:href="_component_8h.html" target="_top" xlink:title=" ">
<polygon fill="white" stroke="#666666" points="117,-19 0,-19 0,0 117,0 117,-19"/>
<text text-anchor="middle" x="58.5" y="-7" font-family="Roboto" font-size="10.00">../Scene/Component.h</text>
</a>
</g>
</g>
<!-- Node1&#45;&gt;Node2 -->
<g id="edge1" class="edge">
<title>Node1&#45;&gt;Node2</title>
<path fill="none" stroke="#63b8ff" d="M99.16,-54.6C91.11,-45.87 81.76,-35.73 74.06,-27.38"/>
<polygon fill="#63b8ff" stroke="#63b8ff" points="76.86,-25.26 67.51,-20.28 71.72,-30 76.86,-25.26"/>
</g>
<!-- Node3 -->
<g id="node3" class="node">
<title>Node3</title>
<g id="a_node3"><a xlink:title=" ">
<polygon fill="#e0e0e0" stroke="#999999" points="220,-19 135,-19 135,0 220,0 220,-19"/>
<text text-anchor="middle" x="177.5" y="-7" font-family="Roboto" font-size="10.00">Box2D/Box2D.h</text>
</a>
</g>
</g>
<!-- Node1&#45;&gt;Node3 -->
<g id="edge2" class="edge">
<title>Node1&#45;&gt;Node3</title>
<path fill="none" stroke="#63b8ff" d="M136.16,-54.6C144.34,-45.87 153.85,-35.73 161.68,-27.38"/>
<polygon fill="#63b8ff" stroke="#63b8ff" points="164.06,-29.96 168.34,-20.27 158.95,-25.17 164.06,-29.96"/>
</g>
</g>
</svg>
