<?xml version="1.0" encoding="UTF-8" standalone="no"?>
<!DOCTYPE svg PUBLIC "-//W3C//DTD SVG 1.1//EN"
 "http://www.w3.org/Graphics/SVG/1.1/DTD/svg11.dtd">
<!-- Generated by graphviz version 7.0.3 (0)
 -->
<!-- Title: Urho3D::ScrollView::SetViewPosition Pages: 1 -->
<svg width="1125pt" height="212pt"
 viewBox="0.00 0.00 1125.00 212.00" xmlns="http://www.w3.org/2000/svg" xmlns:xlink="http://www.w3.org/1999/xlink">
<g id="graph0" class="graph" transform="scale(1 1) rotate(0) translate(4 208)">
<title>Urho3D::ScrollView::SetViewPosition</title>
<!-- Node1 -->
<g id="node1" class="node">
<title>Node1</title>
<g id="a_node1"><a xlink:title=" ">
<polygon fill="#999999" stroke="#666666" points="101,-140.5 0,-140.5 0,-110.5 101,-110.5 101,-140.5"/>
<text text-anchor="start" x="8" y="-128.5" font-family="Roboto" font-size="10.00">Urho3D::ScrollView</text>
<text text-anchor="middle" x="50.5" y="-117.5" font-family="Roboto" font-size="10.00">::SetViewPosition</text>
</a>
</g>
</g>
<!-- Node2 -->
<g id="node2" class="node">
<title>Node2</title>
<g id="a_node2"><a xlink:href="class_urho3_d_1_1_scroll_view.html#a22536fbdac5ebd948a424eb15d7a7c39" target="_top" xlink:title="Update the scrollbars&#39; ranges and positions.">
<polygon fill="white" stroke="#666666" points="238,-164.5 137,-164.5 137,-134.5 238,-134.5 238,-164.5"/>
<text text-anchor="start" x="145" y="-152.5" font-family="Roboto" font-size="10.00">Urho3D::ScrollView</text>
<text text-anchor="middle" x="187.5" y="-141.5" font-family="Roboto" font-size="10.00">::UpdateScrollBars</text>
</a>
</g>
</g>
<!-- Node1&#45;&gt;Node2 -->
<g id="edge1" class="edge">
<title>Node1&#45;&gt;Node2</title>
<path fill="none" stroke="#63b8ff" d="M101.39,-134.37C109.25,-135.77 117.45,-137.22 125.53,-138.66"/>
<polygon fill="#63b8ff" stroke="#63b8ff" points="124.87,-142.1 135.33,-140.4 126.1,-135.21 124.87,-142.1"/>
</g>
<!-- Node3 -->
<g id="node3" class="node">
<title>Node3</title>
<g id="a_node3"><a xlink:href="class_urho3_d_1_1_scroll_view.html#a7246427277d9a85bb7eaaabeec9828f5" target="_top" xlink:title="Limit and update the view with a new position.">
<polygon fill="white" stroke="#666666" points="238,-116.5 137,-116.5 137,-86.5 238,-86.5 238,-116.5"/>
<text text-anchor="start" x="145" y="-104.5" font-family="Roboto" font-size="10.00">Urho3D::ScrollView</text>
<text text-anchor="middle" x="187.5" y="-93.5" font-family="Roboto" font-size="10.00">::UpdateView</text>
</a>
</g>
</g>
<!-- Node1&#45;&gt;Node3 -->
<g id="edge2" class="edge">
<title>Node1&#45;&gt;Node3</title>
<path fill="none" stroke="#63b8ff" d="M101.39,-116.63C109.25,-115.23 117.45,-113.78 125.53,-112.34"/>
<polygon fill="#63b8ff" stroke="#63b8ff" points="126.1,-115.79 135.33,-110.6 124.87,-108.9 126.1,-115.79"/>
</g>
<!-- Node4 -->
<g id="node4" class="node">
<title>Node4</title>
<g id="a_node4"><a xlink:href="_math_defs_8h.html#a937fef228b452d2488ce13d78f0bd810" target="_top" xlink:title=" ">
<polygon fill="white" stroke="#666666" points="382,-154 299,-154 299,-135 382,-135 382,-154"/>
<text text-anchor="middle" x="340.5" y="-142" font-family="Roboto" font-size="10.00">Urho3D::Clamp</text>
</a>
</g>
</g>
<!-- Node3&#45;&gt;Node4 -->
<g id="edge3" class="edge">
<title>Node3&#45;&gt;Node4</title>
<path fill="none" stroke="#63b8ff" d="M238.36,-115.7C256.12,-120.76 276.02,-126.42 293.45,-131.39"/>
<polygon fill="#63b8ff" stroke="#63b8ff" points="292.46,-134.74 303.04,-134.12 294.38,-128.01 292.46,-134.74"/>
</g>
<!-- Node5 -->
<g id="node5" class="node">
<title>Node5</title>
<g id="a_node5"><a xlink:href="class_urho3_d_1_1_object.html#a69af51cfa67f9626273b35a6d501e03e" target="_top" xlink:title="Return a preallocated map for event data. Used for optimization to avoid constant re&#45;allocation of ev...">
<polygon fill="white" stroke="#666666" points="403,-116.5 278,-116.5 278,-86.5 403,-86.5 403,-116.5"/>
<text text-anchor="start" x="286" y="-104.5" font-family="Roboto" font-size="10.00">Urho3D::Object::GetEvent</text>
<text text-anchor="middle" x="340.5" y="-93.5" font-family="Roboto" font-size="10.00">DataMap</text>
</a>
</g>
</g>
<!-- Node3&#45;&gt;Node5 -->
<g id="edge5" class="edge">
<title>Node3&#45;&gt;Node5</title>
<path fill="none" stroke="#63b8ff" d="M238.36,-101.5C247.28,-101.5 256.74,-101.5 266.15,-101.5"/>
<polygon fill="#63b8ff" stroke="#63b8ff" points="266.06,-105 276.06,-101.5 266.06,-98 266.06,-105"/>
</g>
<!-- Node18 -->
<g id="node18" class="node">
<title>Node18</title>
<g id="a_node18"><a xlink:href="class_urho3_d_1_1_object.html#a32020dbf77c196b9777eca479e8abb36" target="_top" xlink:title="Send event to all subscribers.">
<polygon fill="white" stroke="#666666" points="407,-50 274,-50 274,-31 407,-31 407,-50"/>
<text text-anchor="middle" x="340.5" y="-38" font-family="Roboto" font-size="10.00">Urho3D::Object::SendEvent</text>
</a>
</g>
</g>
<!-- Node3&#45;&gt;Node18 -->
<g id="edge18" class="edge">
<title>Node3&#45;&gt;Node18</title>
<path fill="none" stroke="#63b8ff" d="M226.6,-86.11C250.59,-76.42 281.31,-64.01 304.65,-54.58"/>
<polygon fill="#63b8ff" stroke="#63b8ff" points="305.76,-57.91 313.72,-50.91 303.14,-51.41 305.76,-57.91"/>
</g>
<!-- Node4&#45;&gt;Node4 -->
<g id="edge4" class="edge">
<title>Node4&#45;&gt;Node4</title>
<path fill="none" stroke="#63b8ff" d="M316.55,-154.37C305.62,-162.94 313.61,-172 340.5,-172 355.63,-172 364.77,-169.13 367.93,-165.1"/>
<polygon fill="#63b8ff" stroke="#63b8ff" points="371.34,-164.24 364.92,-155.81 364.68,-166.4 371.34,-164.24"/>
</g>
<!-- Node6 -->
<g id="node6" class="node">
<title>Node6</title>
<g id="a_node6"><a xlink:href="class_urho3_d_1_1_context.html#acb628095602a49ade116c4761ab44004" target="_top" xlink:title="Return a preallocated map for event data. Used for optimization to avoid constant re&#45;allocation of ev...">
<polygon fill="white" stroke="#666666" points="575,-116.5 443,-116.5 443,-86.5 575,-86.5 575,-116.5"/>
<text text-anchor="start" x="451" y="-104.5" font-family="Roboto" font-size="10.00">Urho3D::Context::GetEvent</text>
<text text-anchor="middle" x="509" y="-93.5" font-family="Roboto" font-size="10.00">DataMap</text>
</a>
</g>
</g>
<!-- Node5&#45;&gt;Node6 -->
<g id="edge6" class="edge">
<title>Node5&#45;&gt;Node6</title>
<path fill="none" stroke="#63b8ff" d="M403.5,-101.5C412.57,-101.5 422,-101.5 431.32,-101.5"/>
<polygon fill="#63b8ff" stroke="#63b8ff" points="431.09,-105 441.09,-101.5 431.09,-98 431.09,-105"/>
</g>
<!-- Node7 -->
<g id="node7" class="node">
<title>Node7</title>
<g id="a_node7"><a xlink:href="class_urho3_d_1_1_hash_map.html#ac02bdba9ea0d1055a3a75f6bae2ffc69" target="_top" xlink:title="Clear the map.">
<polygon fill="white" stroke="#666666" points="736,-111 611,-111 611,-92 736,-92 736,-111"/>
<text text-anchor="middle" x="673.5" y="-99" font-family="Roboto" font-size="10.00">Urho3D::HashMap::Clear</text>
</a>
</g>
</g>
<!-- Node6&#45;&gt;Node7 -->
<g id="edge7" class="edge">
<title>Node6&#45;&gt;Node7</title>
<path fill="none" stroke="#63b8ff" d="M575.16,-101.5C583.14,-101.5 591.34,-101.5 599.43,-101.5"/>
<polygon fill="#63b8ff" stroke="#63b8ff" points="599.24,-105 609.24,-101.5 599.24,-98 599.24,-105"/>
</g>
<!-- Node8 -->
<g id="node8" class="node">
<title>Node8</title>
<g id="a_node8"><a xlink:href="class_urho3_d_1_1_hash_map.html#a620be7ef6fc8e2958ef4f09523fd5c72" target="_top" xlink:title="Return iterator to the beginning.">
<polygon fill="white" stroke="#666666" points="909,-204 783,-204 783,-185 909,-185 909,-204"/>
<text text-anchor="middle" x="846" y="-192" font-family="Roboto" font-size="10.00">Urho3D::HashMap::Begin</text>
</a>
</g>
</g>
<!-- Node7&#45;&gt;Node8 -->
<g id="edge8" class="edge">
<title>Node7&#45;&gt;Node8</title>
<path fill="none" stroke="#63b8ff" d="M684.36,-111.39C700.96,-127.48 736.21,-159.27 772,-176.5 775.29,-178.09 778.74,-179.54 782.27,-180.87"/>
<polygon fill="#63b8ff" stroke="#63b8ff" points="780.98,-184.13 791.58,-184.03 783.23,-177.5 780.98,-184.13"/>
</g>
<!-- Node10 -->
<g id="node10" class="node">
<title>Node10</title>
<g id="a_node10"><a xlink:href="class_urho3_d_1_1_hash_map.html#a47eb201d8441d4e4be8626e615cb562d" target="_top" xlink:title="Return iterator to the end.">
<polygon fill="white" stroke="#666666" points="905.5,-167 786.5,-167 786.5,-148 905.5,-148 905.5,-167"/>
<text text-anchor="middle" x="846" y="-155" font-family="Roboto" font-size="10.00">Urho3D::HashMap::End</text>
</a>
</g>
</g>
<!-- Node7&#45;&gt;Node10 -->
<g id="edge10" class="edge">
<title>Node7&#45;&gt;Node10</title>
<path fill="none" stroke="#63b8ff" d="M697.44,-111.42C717.01,-119.64 746.02,-131.27 772,-139.5 777.76,-141.32 783.81,-143.07 789.88,-144.72"/>
<polygon fill="#63b8ff" stroke="#63b8ff" points="788.71,-148.03 799.27,-147.18 790.48,-141.26 788.71,-148.03"/>
</g>
<!-- Node12 -->
<g id="node12" class="node">
<title>Node12</title>
<g id="a_node12"><a xlink:href="class_urho3_d_1_1_hash_map.html#a3313b8ec65ab0b23c74570898b09175c" target="_top" xlink:title="Free a node.">
<polygon fill="white" stroke="#666666" points="919,-130 773,-130 773,-111 919,-111 919,-130"/>
<text text-anchor="middle" x="846" y="-118" font-family="Roboto" font-size="10.00">Urho3D::HashMap::FreeNode</text>
</a>
</g>
</g>
<!-- Node7&#45;&gt;Node12 -->
<g id="edge12" class="edge">
<title>Node7&#45;&gt;Node12</title>
<path fill="none" stroke="#63b8ff" d="M736.05,-108.36C744.28,-109.28 752.82,-110.23 761.34,-111.18"/>
<polygon fill="#63b8ff" stroke="#63b8ff" points="760.68,-114.62 771,-112.25 761.45,-107.67 760.68,-114.62"/>
</g>
<!-- Node13 -->
<g id="node13" class="node">
<title>Node13</title>
<g id="a_node13"><a xlink:href="class_urho3_d_1_1_hash_base.html#a2774d115a617b0d6c315132352d43c01" target="_top" xlink:title="Reset bucket head pointers.">
<polygon fill="white" stroke="#666666" points="920,-93 772,-93 772,-74 920,-74 920,-93"/>
<text text-anchor="middle" x="846" y="-81" font-family="Roboto" font-size="10.00">Urho3D::HashBase::ResetPtrs</text>
</a>
</g>
</g>
<!-- Node7&#45;&gt;Node13 -->
<g id="edge13" class="edge">
<title>Node7&#45;&gt;Node13</title>
<path fill="none" stroke="#63b8ff" d="M736.05,-95C743.99,-94.16 752.22,-93.29 760.45,-92.43"/>
<polygon fill="#63b8ff" stroke="#63b8ff" points="760.54,-95.94 770.12,-91.41 759.81,-88.97 760.54,-95.94"/>
</g>
<!-- Node16 -->
<g id="node16" class="node">
<title>Node16</title>
<g id="a_node16"><a xlink:href="class_urho3_d_1_1_hash_base.html#a7790b0fb5131f0e0a098e322c9198f39" target="_top" xlink:title="Set new size.">
<polygon fill="white" stroke="#666666" points="914.5,-56 777.5,-56 777.5,-37 914.5,-37 914.5,-56"/>
<text text-anchor="middle" x="846" y="-44" font-family="Roboto" font-size="10.00">Urho3D::HashBase::SetSize</text>
</a>
</g>
</g>
<!-- Node7&#45;&gt;Node16 -->
<g id="edge16" class="edge">
<title>Node7&#45;&gt;Node16</title>
<path fill="none" stroke="#63b8ff" d="M698.26,-91.56C717.83,-83.6 746.42,-72.48 772,-64.5 777.76,-62.7 783.83,-60.97 789.89,-59.33"/>
<polygon fill="#63b8ff" stroke="#63b8ff" points="790.5,-62.79 799.29,-56.88 788.73,-56.02 790.5,-62.79"/>
</g>
<!-- Node17 -->
<g id="node17" class="node">
<title>Node17</title>
<g id="a_node17"><a xlink:href="class_urho3_d_1_1_hash_base.html#a42b5c2ba692fe96bff763b501b8922a9" target="_top" xlink:title="Return number of elements.">
<polygon fill="white" stroke="#666666" points="907.5,-19 784.5,-19 784.5,0 907.5,0 907.5,-19"/>
<text text-anchor="middle" x="846" y="-7" font-family="Roboto" font-size="10.00">Urho3D::HashBase::Size</text>
</a>
</g>
</g>
<!-- Node7&#45;&gt;Node17 -->
<g id="edge17" class="edge">
<title>Node7&#45;&gt;Node17</title>
<path fill="none" stroke="#63b8ff" d="M684.38,-91.75C701.02,-75.88 736.33,-44.53 772,-27.5 775.46,-25.85 779.09,-24.34 782.8,-22.96"/>
<polygon fill="#63b8ff" stroke="#63b8ff" points="783.61,-26.38 791.98,-19.89 781.39,-19.74 783.61,-26.38"/>
</g>
<!-- Node9 -->
<g id="node9" class="node">
<title>Node9</title>
<g id="a_node9"><a xlink:href="class_urho3_d_1_1_hash_map.html#a992327678684d4e38150f32fc676faaf" target="_top" xlink:title="Return the head node.">
<polygon fill="white" stroke="#666666" points="1099.5,-204 973.5,-204 973.5,-185 1099.5,-185 1099.5,-204"/>
<text text-anchor="middle" x="1036.5" y="-192" font-family="Roboto" font-size="10.00">Urho3D::HashMap::Head</text>
</a>
</g>
</g>
<!-- Node8&#45;&gt;Node9 -->
<g id="edge9" class="edge">
<title>Node8&#45;&gt;Node9</title>
<path fill="none" stroke="#63b8ff" d="M909.24,-194.5C926.13,-194.5 944.58,-194.5 962.03,-194.5"/>
<polygon fill="#63b8ff" stroke="#63b8ff" points="961.81,-198 971.81,-194.5 961.81,-191 961.81,-198"/>
</g>
<!-- Node11 -->
<g id="node11" class="node">
<title>Node11</title>
<g id="a_node11"><a xlink:href="class_urho3_d_1_1_hash_map.html#ac7ee3646e27a2a7710ab5786cb0b7c73" target="_top" xlink:title="Return the tail node.">
<polygon fill="white" stroke="#666666" points="1095,-167 978,-167 978,-148 1095,-148 1095,-167"/>
<text text-anchor="middle" x="1036.5" y="-155" font-family="Roboto" font-size="10.00">Urho3D::HashMap::Tail</text>
</a>
</g>
</g>
<!-- Node10&#45;&gt;Node11 -->
<g id="edge11" class="edge">
<title>Node10&#45;&gt;Node11</title>
<path fill="none" stroke="#63b8ff" d="M905.87,-157.5C925.01,-157.5 946.43,-157.5 966.26,-157.5"/>
<polygon fill="#63b8ff" stroke="#63b8ff" points="966.21,-161 976.21,-157.5 966.21,-154 966.21,-161"/>
</g>
<!-- Node14 -->
<g id="node14" class="node">
<title>Node14</title>
<g id="a_node14"><a xlink:href="class_urho3_d_1_1_hash_base.html#af0f242c3642f60dc7cf69f3b7d24fa11" target="_top" xlink:title="Return number of buckets.">
<polygon fill="white" stroke="#666666" points="1117,-111 956,-111 956,-92 1117,-92 1117,-111"/>
<text text-anchor="middle" x="1036.5" y="-99" font-family="Roboto" font-size="10.00">Urho3D::HashBase::NumBuckets</text>
</a>
</g>
</g>
<!-- Node13&#45;&gt;Node14 -->
<g id="edge14" class="edge">
<title>Node13&#45;&gt;Node14</title>
<path fill="none" stroke="#63b8ff" d="M920.42,-90.51C928.29,-91.26 936.36,-92.03 944.4,-92.8"/>
<polygon fill="#63b8ff" stroke="#63b8ff" points="943.94,-96.27 954.22,-93.74 944.6,-89.3 943.94,-96.27"/>
</g>
<!-- Node15 -->
<g id="node15" class="node">
<title>Node15</title>
<g id="a_node15"><a xlink:href="class_urho3_d_1_1_hash_base.html#ab2e9d0c50ac79b0a7eccd15b096745e9" target="_top" xlink:title="Return bucket head pointers.">
<polygon fill="white" stroke="#666666" points="1098,-74 975,-74 975,-55 1098,-55 1098,-74"/>
<text text-anchor="middle" x="1036.5" y="-62" font-family="Roboto" font-size="10.00">Urho3D::HashBase::Ptrs</text>
</a>
</g>
</g>
<!-- Node13&#45;&gt;Node15 -->
<g id="edge15" class="edge">
<title>Node13&#45;&gt;Node15</title>
<path fill="none" stroke="#63b8ff" d="M920.42,-76.1C934.61,-74.67 949.47,-73.17 963.61,-71.75"/>
<polygon fill="#63b8ff" stroke="#63b8ff" points="963.67,-75.26 973.27,-70.77 962.97,-68.29 963.67,-75.26"/>
</g>
<!-- Node18&#45;&gt;Node18 -->
<g id="edge19" class="edge">
<title>Node18&#45;&gt;Node18</title>
<path fill="none" stroke="#63b8ff" d="M316.55,-50.37C305.62,-58.94 313.61,-68 340.5,-68 355.63,-68 364.77,-65.13 367.93,-61.1"/>
<polygon fill="#63b8ff" stroke="#63b8ff" points="371.34,-60.24 364.92,-51.81 364.68,-62.4 371.34,-60.24"/>
</g>
</g>
</svg>
