<?xml version="1.0" encoding="UTF-8" standalone="no"?>
<!DOCTYPE svg PUBLIC "-//W3C//DTD SVG 1.1//EN"
 "http://www.w3.org/Graphics/SVG/1.1/DTD/svg11.dtd">
<!-- Generated by graphviz version 7.0.3 (0)
 -->
<!-- Title: Urho3D::DecalSet::AddDecal Pages: 1 -->
<svg width="547pt" height="969pt"
 viewBox="0.00 0.00 547.00 968.50" xmlns="http://www.w3.org/2000/svg" xmlns:xlink="http://www.w3.org/1999/xlink">
<g id="graph0" class="graph" transform="scale(1 1) rotate(0) translate(4 964.5)">
<title>Urho3D::DecalSet::AddDecal</title>
<!-- Node1 -->
<g id="node1" class="node">
<title>Node1</title>
<g id="a_node1"><a xlink:title="Add a decal at world coordinates, using a target drawable&#39;s geometry for reference....">
<polygon fill="#999999" stroke="#666666" points="142,-500.5 0,-500.5 0,-481.5 142,-481.5 142,-500.5"/>
<text text-anchor="middle" x="71" y="-488.5" font-family="Roboto" font-size="10.00">Urho3D::DecalSet::AddDecal</text>
</a>
</g>
</g>
<!-- Node1&#45;&gt;Node1 -->
<g id="edge1" class="edge">
<title>Node1&#45;&gt;Node1</title>
<path fill="none" stroke="#63b8ff" d="M40.71,-500.87C26.89,-509.44 36.99,-518.5 71,-518.5 90.66,-518.5 102.33,-515.47 106.01,-511.26"/>
<polygon fill="#63b8ff" stroke="#63b8ff" points="109.24,-509.9 101.92,-502.25 102.87,-512.8 109.24,-509.9"/>
</g>
<!-- Node2 -->
<g id="node2" class="node">
<title>Node2</title>
<g id="a_node2"><a xlink:href="struct_urho3_d_1_1_decal.html#a016dea5d4b0d65db727ea158529500a9" target="_top" xlink:title="Add a vertex.">
<polygon fill="#fff0f0" stroke="red" points="330,-960.5 199,-960.5 199,-941.5 330,-941.5 330,-960.5"/>
<text text-anchor="middle" x="264.5" y="-948.5" font-family="Roboto" font-size="10.00">Urho3D::Decal::AddVertex</text>
</a>
</g>
</g>
<!-- Node1&#45;&gt;Node2 -->
<g id="edge2" class="edge">
<title>Node1&#45;&gt;Node2</title>
<path fill="none" stroke="#63b8ff" d="M72.98,-500.97C79.02,-560.48 113.14,-868.25 178,-932 181.2,-935.15 184.8,-937.82 188.67,-940.09"/>
<polygon fill="#63b8ff" stroke="#63b8ff" points="186.85,-943.1 197.38,-944.28 189.88,-936.79 186.85,-943.1"/>
</g>
<!-- Node10 -->
<g id="node4" class="node">
<title>Node10</title>
<g id="a_node4"><a xlink:href="struct_urho3_d_1_1_decal.html#a75bf0396068482fd69ec5eb4c5d0a7e0" target="_top" xlink:title="Calculate local&#45;space bounding box.">
<polygon fill="#fff0f0" stroke="red" points="327,-923 202,-923 202,-893 327,-893 327,-923"/>
<text text-anchor="start" x="210" y="-911" font-family="Roboto" font-size="10.00">Urho3D::Decal::Calculate</text>
<text text-anchor="middle" x="264.5" y="-900" font-family="Roboto" font-size="10.00">BoundingBox</text>
</a>
</g>
</g>
<!-- Node1&#45;&gt;Node10 -->
<g id="edge4" class="edge">
<title>Node1&#45;&gt;Node10</title>
<path fill="none" stroke="#63b8ff" d="M73.34,-500.91C81,-556.22 120.95,-826.37 178,-884 182.03,-888.07 186.7,-891.47 191.72,-894.3"/>
<polygon fill="#63b8ff" stroke="#63b8ff" points="189.87,-897.29 200.4,-898.42 192.87,-890.97 189.87,-897.29"/>
</g>
<!-- Node13 -->
<g id="node5" class="node">
<title>Node13</title>
<g id="a_node5"><a xlink:href="class_urho3_d_1_1_decal_set.html#a7e801673ba80a4f58e5a024ceada5485" target="_top" xlink:title="Calculate UV coordinates for the decal.">
<polygon fill="#fff0f0" stroke="red" points="343,-874.5 186,-874.5 186,-855.5 343,-855.5 343,-874.5"/>
<text text-anchor="middle" x="264.5" y="-862.5" font-family="Roboto" font-size="10.00">Urho3D::DecalSet::CalculateUVs</text>
</a>
</g>
</g>
<!-- Node1&#45;&gt;Node13 -->
<g id="edge5" class="edge">
<title>Node1&#45;&gt;Node13</title>
<path fill="none" stroke="#63b8ff" d="M71.6,-500.76C70.27,-547.3 71.05,-748.47 178,-847 178.65,-847.6 179.31,-848.18 179.99,-848.74"/>
<polygon fill="#63b8ff" stroke="#63b8ff" points="177.96,-851.6 188.22,-854.27 181.87,-845.79 177.96,-851.6"/>
</g>
<!-- Node15 -->
<g id="node6" class="node">
<title>Node15</title>
<g id="a_node6"><a xlink:href="class_urho3_d_1_1_frustum.html#aca09b9b4205607926beb618374834762" target="_top" xlink:title="Define with orthographic projection parameters and a transform matrix.">
<polygon fill="#fff0f0" stroke="red" points="339,-837.5 190,-837.5 190,-818.5 339,-818.5 339,-837.5"/>
<text text-anchor="middle" x="264.5" y="-825.5" font-family="Roboto" font-size="10.00">Urho3D::Frustum::DefineOrtho</text>
</a>
</g>
</g>
<!-- Node1&#45;&gt;Node15 -->
<g id="edge6" class="edge">
<title>Node1&#45;&gt;Node15</title>
<path fill="none" stroke="#63b8ff" d="M72.02,-500.86C72.68,-544.5 81.41,-721.89 178,-809 179.27,-810.15 180.59,-811.23 181.96,-812.25"/>
<polygon fill="#63b8ff" stroke="#63b8ff" points="179.96,-815.12 190.31,-817.35 183.61,-809.15 179.96,-815.12"/>
</g>
<!-- Node18 -->
<g id="node7" class="node">
<title>Node18</title>
<g id="a_node7"><a xlink:href="class_urho3_d_1_1_p_o_d_vector.html#a5be72d35fc52d2623985f20b95855d10" target="_top" xlink:title="Return whether vector is empty.">
<polygon fill="white" stroke="#666666" points="318.5,-800 210.5,-800 210.5,-770 318.5,-770 318.5,-800"/>
<text text-anchor="start" x="218.5" y="-788" font-family="Roboto" font-size="10.00">Urho3D::PODVector::</text>
<text text-anchor="middle" x="264.5" y="-777" font-family="Roboto" font-size="10.00">Empty</text>
</a>
</g>
</g>
<!-- Node1&#45;&gt;Node18 -->
<g id="edge7" class="edge">
<title>Node1&#45;&gt;Node18</title>
<path fill="none" stroke="#63b8ff" d="M72.8,-500.84C76.52,-540.04 95.64,-686.52 178,-761 184.28,-766.68 191.8,-771.03 199.74,-774.35"/>
<polygon fill="#63b8ff" stroke="#63b8ff" points="198.34,-777.57 208.93,-777.65 200.7,-770.98 198.34,-777.57"/>
</g>
<!-- Node19 -->
<g id="node8" class="node">
<title>Node19</title>
<g id="a_node8"><a xlink:href="class_urho3_d_1_1_drawable.html#a97ce585b50328905eb4a0c7e50d84aab" target="_top" xlink:title="Return draw call source data.">
<polygon fill="white" stroke="#666666" points="339.5,-751.5 189.5,-751.5 189.5,-732.5 339.5,-732.5 339.5,-751.5"/>
<text text-anchor="middle" x="264.5" y="-739.5" font-family="Roboto" font-size="10.00">Urho3D::Drawable::GetBatches</text>
</a>
</g>
</g>
<!-- Node1&#45;&gt;Node19 -->
<g id="edge8" class="edge">
<title>Node1&#45;&gt;Node19</title>
<path fill="none" stroke="#63b8ff" d="M73.32,-500.87C78.69,-537.05 102.41,-663.41 178,-724 179.13,-724.91 180.3,-725.77 181.5,-726.6"/>
<polygon fill="#63b8ff" stroke="#63b8ff" points="179.47,-729.47 189.89,-731.39 182.94,-723.39 179.47,-729.47"/>
</g>
<!-- Node20 -->
<g id="node9" class="node">
<title>Node20</title>
<g id="a_node9"><a xlink:href="class_urho3_d_1_1_skeleton.html#a0725533171475c6f23a550b9c9d26b2f" target="_top" xlink:title=" ">
<polygon fill="white" stroke="#666666" points="332,-714.5 197,-714.5 197,-695.5 332,-695.5 332,-714.5"/>
<text text-anchor="middle" x="264.5" y="-702.5" font-family="Roboto" font-size="10.00">Urho3D::Skeleton::GetBone</text>
</a>
</g>
</g>
<!-- Node1&#45;&gt;Node20 -->
<g id="edge9" class="edge">
<title>Node1&#45;&gt;Node20</title>
<path fill="none" stroke="#63b8ff" d="M74.16,-500.64C81.89,-532.82 111.35,-637.24 178,-687 180.62,-688.96 183.41,-690.71 186.31,-692.28"/>
<polygon fill="#63b8ff" stroke="#63b8ff" points="184.65,-695.37 195.2,-696.33 187.55,-689 184.65,-695.37"/>
</g>
<!-- Node21 -->
<g id="node10" class="node">
<title>Node21</title>
<g id="a_node10"><a xlink:href="class_urho3_d_1_1_decal_set.html#a51865d14929f67473aa71cc3b9ba36d6" target="_top" xlink:title="Get triangle faces from the target geometry.">
<polygon fill="#fff0f0" stroke="red" points="334.5,-677.5 194.5,-677.5 194.5,-658.5 334.5,-658.5 334.5,-677.5"/>
<text text-anchor="middle" x="264.5" y="-665.5" font-family="Roboto" font-size="10.00">Urho3D::DecalSet::GetFaces</text>
</a>
</g>
</g>
<!-- Node1&#45;&gt;Node21 -->
<g id="edge10" class="edge">
<title>Node1&#45;&gt;Node21</title>
<path fill="none" stroke="#63b8ff" d="M75.49,-500.68C86.09,-528.62 120.72,-609.87 178,-649 180.36,-650.61 182.84,-652.09 185.4,-653.45"/>
<polygon fill="#63b8ff" stroke="#63b8ff" points="183.71,-656.52 194.26,-657.46 186.6,-650.15 183.71,-656.52"/>
</g>
<!-- Node48 -->
<g id="node11" class="node">
<title>Node48</title>
<g id="a_node11"><a xlink:href="class_urho3_d_1_1_component.html#ada751ff77fe3e5bc417db31cfebc0df8" target="_top" xlink:title=" ">
<polygon fill="white" stroke="#666666" points="320,-640 209,-640 209,-610 320,-610 320,-640"/>
<text text-anchor="start" x="217" y="-628" font-family="Roboto" font-size="10.00">Urho3D::Component::</text>
<text text-anchor="middle" x="264.5" y="-617" font-family="Roboto" font-size="10.00">GetNode</text>
</a>
</g>
</g>
<!-- Node1&#45;&gt;Node48 -->
<g id="edge11" class="edge">
<title>Node1&#45;&gt;Node48</title>
<path fill="none" stroke="#63b8ff" d="M78.69,-500.9C93.78,-522.47 132.7,-573.92 178,-601 184.31,-604.77 191.24,-607.97 198.34,-610.68"/>
<polygon fill="#63b8ff" stroke="#63b8ff" points="196.78,-613.85 207.37,-613.82 199.07,-607.23 196.78,-613.85"/>
</g>
<!-- Node49 -->
<g id="node12" class="node">
<title>Node49</title>
<g id="a_node12"><a xlink:href="class_urho3_d_1_1_skeleton.html#ad2159e16479f1f972b5450722c8f3560" target="_top" xlink:title=" ">
<polygon fill="white" stroke="#666666" points="331.5,-592 197.5,-592 197.5,-562 331.5,-562 331.5,-592"/>
<text text-anchor="start" x="205.5" y="-580" font-family="Roboto" font-size="10.00">Urho3D::Skeleton::GetNum</text>
<text text-anchor="middle" x="264.5" y="-569" font-family="Roboto" font-size="10.00">Bones</text>
</a>
</g>
</g>
<!-- Node1&#45;&gt;Node49 -->
<g id="edge12" class="edge">
<title>Node1&#45;&gt;Node49</title>
<path fill="none" stroke="#63b8ff" d="M86.13,-500.86C105.89,-514.26 143.26,-538.25 178,-553 182.04,-554.71 186.23,-556.34 190.5,-557.88"/>
<polygon fill="#63b8ff" stroke="#63b8ff" points="189.18,-561.13 199.78,-561.05 191.44,-554.51 189.18,-561.13"/>
</g>
<!-- Node32 -->
<g id="node13" class="node">
<title>Node32</title>
<g id="a_node13"><a xlink:href="class_urho3_d_1_1_node.html#a2eb3e2cda5c98b2a92d95fcca8e43fbb" target="_top" xlink:title=" ">
<polygon fill="white" stroke="#666666" points="351,-543.5 178,-543.5 178,-524.5 351,-524.5 351,-543.5"/>
<text text-anchor="middle" x="264.5" y="-531.5" font-family="Roboto" font-size="10.00">Urho3D::Node::GetWorldTransform</text>
</a>
</g>
</g>
<!-- Node1&#45;&gt;Node32 -->
<g id="edge13" class="edge">
<title>Node1&#45;&gt;Node32</title>
<path fill="none" stroke="#63b8ff" d="M115.83,-500.96C134.92,-505.29 157.56,-510.42 178,-515 187.59,-517.15 197.8,-519.43 207.69,-521.63"/>
<polygon fill="#63b8ff" stroke="#63b8ff" points="206.68,-524.99 217.2,-523.75 208.2,-518.16 206.68,-524.99"/>
</g>
<!-- Node50 -->
<g id="node14" class="node">
<title>Node50</title>
<g id="a_node14"><a xlink:href="class_urho3_d_1_1_bounding_box.html#a0a9e6a1766bd3700e1512f22f2d8e6e4" target="_top" xlink:title=" ">
<polygon fill="white" stroke="#666666" points="321,-506 208,-506 208,-476 321,-476 321,-506"/>
<text text-anchor="start" x="216" y="-494" font-family="Roboto" font-size="10.00">Urho3D::BoundingBox</text>
<text text-anchor="middle" x="264.5" y="-483" font-family="Roboto" font-size="10.00">::HalfSize</text>
</a>
</g>
</g>
<!-- Node1&#45;&gt;Node50 -->
<g id="edge14" class="edge">
<title>Node1&#45;&gt;Node50</title>
<path fill="none" stroke="#63b8ff" d="M142.49,-491C160.08,-491 178.88,-491 196.3,-491"/>
<polygon fill="#63b8ff" stroke="#63b8ff" points="196.01,-494.5 206.01,-491 196.01,-487.5 196.01,-494.5"/>
</g>
<!-- Node51 -->
<g id="node15" class="node">
<title>Node51</title>
<g id="a_node15"><a xlink:href="class_urho3_d_1_1_matrix3x4.html#a8d184f29d81512103ed020bc0da8a69b" target="_top" xlink:title="Return inverse.">
<polygon fill="white" stroke="#666666" points="316.5,-458 212.5,-458 212.5,-428 316.5,-428 316.5,-458"/>
<text text-anchor="start" x="220.5" y="-446" font-family="Roboto" font-size="10.00">Urho3D::Matrix3x4::</text>
<text text-anchor="middle" x="264.5" y="-435" font-family="Roboto" font-size="10.00">Inverse</text>
</a>
</g>
</g>
<!-- Node1&#45;&gt;Node51 -->
<g id="edge15" class="edge">
<title>Node1&#45;&gt;Node51</title>
<path fill="none" stroke="#63b8ff" d="M111.68,-481.05C137.52,-474.58 171.77,-465.99 201.2,-458.62"/>
<polygon fill="#63b8ff" stroke="#63b8ff" points="201.9,-462.05 210.75,-456.22 200.2,-455.26 201.9,-462.05"/>
</g>
<!-- Node52 -->
<g id="node16" class="node">
<title>Node52</title>
<g id="a_node16"><a xlink:href="class_urho3_d_1_1_bounding_box.html#a03f691b8e5e7e0a83758321c89ac7e40" target="_top" xlink:title="Test if a point is inside.">
<polygon fill="white" stroke="#666666" points="321,-410 208,-410 208,-380 321,-380 321,-410"/>
<text text-anchor="start" x="216" y="-398" font-family="Roboto" font-size="10.00">Urho3D::BoundingBox</text>
<text text-anchor="middle" x="264.5" y="-387" font-family="Roboto" font-size="10.00">::IsInside</text>
</a>
</g>
</g>
<!-- Node1&#45;&gt;Node52 -->
<g id="edge16" class="edge">
<title>Node1&#45;&gt;Node52</title>
<path fill="none" stroke="#63b8ff" d="M83.63,-481.21C102.36,-465.9 140.88,-436.26 178,-419 184.15,-416.14 190.7,-413.56 197.35,-411.24"/>
<polygon fill="#63b8ff" stroke="#63b8ff" points="197.97,-414.72 206.38,-408.28 195.79,-408.07 197.97,-414.72"/>
</g>
<!-- Node53 -->
<g id="node17" class="node">
<title>Node53</title>
<g id="a_node17"><a xlink:href="class_urho3_d_1_1_sphere.html#a23cedf63ba7aa18b8c3cb5300743ba2d" target="_top" xlink:title="Test if a point is inside.">
<polygon fill="white" stroke="#666666" points="327,-361.5 202,-361.5 202,-342.5 327,-342.5 327,-361.5"/>
<text text-anchor="middle" x="264.5" y="-349.5" font-family="Roboto" font-size="10.00">Urho3D::Sphere::IsInside</text>
</a>
</g>
</g>
<!-- Node1&#45;&gt;Node53 -->
<g id="edge17" class="edge">
<title>Node1&#45;&gt;Node53</title>
<path fill="none" stroke="#63b8ff" d="M77.7,-481.04C91.6,-457.75 129.64,-399.53 178,-371 182.13,-368.57 186.53,-366.44 191.08,-364.59"/>
<polygon fill="#63b8ff" stroke="#63b8ff" points="192.23,-367.9 200.49,-361.25 189.89,-361.3 192.23,-367.9"/>
</g>
<!-- Node54 -->
<g id="node18" class="node">
<title>Node54</title>
<g id="a_node18"><a xlink:href="class_urho3_d_1_1_vector3.html#a8cec272610e59b1abfa3f42909c90351" target="_top" xlink:title=" ">
<polygon fill="white" stroke="#666666" points="326,-324.5 203,-324.5 203,-305.5 326,-305.5 326,-324.5"/>
<text text-anchor="middle" x="264.5" y="-312.5" font-family="Roboto" font-size="10.00">Urho3D::Vector3::Length</text>
</a>
</g>
</g>
<!-- Node1&#45;&gt;Node54 -->
<g id="edge18" class="edge">
<title>Node1&#45;&gt;Node54</title>
<path fill="none" stroke="#63b8ff" d="M75.51,-481.38C86.16,-453.62 120.91,-372.87 178,-334 182.4,-331 187.2,-328.47 192.21,-326.33"/>
<polygon fill="#63b8ff" stroke="#63b8ff" points="193.11,-329.73 201.28,-322.99 190.69,-323.16 193.11,-329.73"/>
</g>
<!-- Node55 -->
<g id="node19" class="node">
<title>Node55</title>
<g id="a_node19"><a xlink:href="class_urho3_d_1_1_decal_set.html#a41027d16a7e3f21f99bf61cbfbb66770" target="_top" xlink:title="Mark decals and the bounding box dirty.">
<polygon fill="#fff0f0" stroke="red" points="539,-271 387,-271 387,-241 539,-241 539,-271"/>
<text text-anchor="start" x="395" y="-259" font-family="Roboto" font-size="10.00">Urho3D::DecalSet::MarkDecals</text>
<text text-anchor="middle" x="463" y="-248" font-family="Roboto" font-size="10.00">Dirty</text>
</a>
</g>
</g>
<!-- Node1&#45;&gt;Node55 -->
<g id="edge19" class="edge">
<title>Node1&#45;&gt;Node55</title>
<path fill="none" stroke="#63b8ff" d="M74.07,-481.29C81.53,-448.91 110.23,-344.07 178,-297 209.17,-275.35 303.82,-264.95 375.36,-260.07"/>
<polygon fill="#63b8ff" stroke="#63b8ff" points="375.37,-263.58 385.12,-259.44 374.91,-256.6 375.37,-263.58"/>
</g>
<!-- Node63 -->
<g id="node20" class="node">
<title>Node63</title>
<g id="a_node20"><a xlink:href="class_urho3_d_1_1_decal_set.html#a3051b0c9144329e9c9466c9e8f84781c" target="_top" xlink:title="Remove all decals.">
<polygon fill="#fff0f0" stroke="red" points="331.5,-249 197.5,-249 197.5,-219 331.5,-219 331.5,-249"/>
<text text-anchor="start" x="205.5" y="-237" font-family="Roboto" font-size="10.00">Urho3D::DecalSet::Remove</text>
<text text-anchor="middle" x="264.5" y="-226" font-family="Roboto" font-size="10.00">AllDecals</text>
</a>
</g>
</g>
<!-- Node1&#45;&gt;Node63 -->
<g id="edge20" class="edge">
<title>Node1&#45;&gt;Node63</title>
<path fill="none" stroke="#63b8ff" d="M73.72,-481.14C80.36,-446.1 107.5,-326.26 178,-263 181.48,-259.88 185.31,-257.09 189.35,-254.6"/>
<polygon fill="#63b8ff" stroke="#63b8ff" points="190.67,-257.87 197.81,-250.04 187.35,-251.71 190.67,-257.87"/>
</g>
<!-- Node64 -->
<g id="node21" class="node">
<title>Node64</title>
<g id="a_node21"><a xlink:href="class_urho3_d_1_1_decal_set.html#a18384b227e33e1a36084ae9805bb8d18" target="_top" xlink:title="Remove n oldest decals.">
<polygon fill="#fff0f0" stroke="red" points="331.5,-201 197.5,-201 197.5,-171 331.5,-171 331.5,-201"/>
<text text-anchor="start" x="205.5" y="-189" font-family="Roboto" font-size="10.00">Urho3D::DecalSet::Remove</text>
<text text-anchor="middle" x="264.5" y="-178" font-family="Roboto" font-size="10.00">Decals</text>
</a>
</g>
</g>
<!-- Node1&#45;&gt;Node64 -->
<g id="edge22" class="edge">
<title>Node1&#45;&gt;Node64</title>
<path fill="none" stroke="#63b8ff" d="M72.64,-481.04C75.77,-440.71 93.05,-287.86 178,-210 180.78,-207.45 183.82,-205.16 187.03,-203.12"/>
<polygon fill="#63b8ff" stroke="#63b8ff" points="188.64,-206.23 195.79,-198.4 185.33,-200.06 188.64,-206.23"/>
</g>
<!-- Node66 -->
<g id="node22" class="node">
<title>Node66</title>
<g id="a_node22"><a xlink:href="class_urho3_d_1_1_vector.html#a5da7101c355895f41098fcf875e4c56a" target="_top" xlink:title="Return size of vector.">
<polygon fill="white" stroke="#666666" points="318,-152.5 211,-152.5 211,-133.5 318,-133.5 318,-152.5"/>
<text text-anchor="middle" x="264.5" y="-140.5" font-family="Roboto" font-size="10.00">Urho3D::Vector::Size</text>
</a>
</g>
</g>
<!-- Node1&#45;&gt;Node66 -->
<g id="edge23" class="edge">
<title>Node1&#45;&gt;Node66</title>
<path fill="none" stroke="#63b8ff" d="M71.9,-481.11C72,-436.52 78.63,-252.53 178,-162 184.18,-156.37 191.65,-152.28 199.58,-149.33"/>
<polygon fill="#63b8ff" stroke="#63b8ff" points="200.59,-152.68 209.13,-146.42 198.55,-145.98 200.59,-152.68"/>
</g>
<!-- Node67 -->
<g id="node23" class="node">
<title>Node67</title>
<g id="a_node23"><a xlink:href="class_urho3_d_1_1_p_o_d_vector.html#ab1ba347a0118ed7d9ef79f3026153c88" target="_top" xlink:title="Return number of elements.">
<polygon fill="white" stroke="#666666" points="328,-115.5 201,-115.5 201,-96.5 328,-96.5 328,-115.5"/>
<text text-anchor="middle" x="264.5" y="-103.5" font-family="Roboto" font-size="10.00">Urho3D::PODVector::Size</text>
</a>
</g>
</g>
<!-- Node1&#45;&gt;Node67 -->
<g id="edge24" class="edge">
<title>Node1&#45;&gt;Node67</title>
<path fill="none" stroke="#63b8ff" d="M71.5,-481.26C69.65,-433.93 68.19,-226.01 178,-124 181.73,-120.54 185.94,-117.67 190.46,-115.31"/>
<polygon fill="#63b8ff" stroke="#63b8ff" points="191.54,-118.66 199.35,-111.5 188.78,-112.22 191.54,-118.66"/>
</g>
<!-- Node68 -->
<g id="node24" class="node">
<title>Node68</title>
<g id="a_node24"><a xlink:href="class_urho3_d_1_1_decal_set.html#acaeecfa659d401b21bdfb686f4f20bcd" target="_top" xlink:title="Transform decal&#39;s vertices from the target geometry to the decal set local space.">
<polygon fill="white" stroke="#666666" points="337,-78 192,-78 192,-48 337,-48 337,-78"/>
<text text-anchor="start" x="200" y="-66" font-family="Roboto" font-size="10.00">Urho3D::DecalSet::Transform</text>
<text text-anchor="middle" x="264.5" y="-55" font-family="Roboto" font-size="10.00">Vertices</text>
</a>
</g>
</g>
<!-- Node1&#45;&gt;Node68 -->
<g id="edge25" class="edge">
<title>Node1&#45;&gt;Node68</title>
<path fill="none" stroke="#63b8ff" d="M73.25,-481.18C80.56,-425.18 119.54,-146.47 178,-87 179.37,-85.6 180.82,-84.28 182.34,-83.04"/>
<polygon fill="#63b8ff" stroke="#63b8ff" points="184.08,-86.09 190.37,-77.56 180.14,-80.3 184.08,-86.09"/>
</g>
<!-- Node69 -->
<g id="node25" class="node">
<title>Node69</title>
<g id="a_node25"><a xlink:href="class_urho3_d_1_1_decal_set.html#ab57603264541b21bb532f47a9b3f9acc" target="_top" xlink:title="Subscribe/unsubscribe from scene post&#45;update as necessary.">
<polygon fill="#fff0f0" stroke="red" points="329.5,-30 199.5,-30 199.5,0 329.5,0 329.5,-30"/>
<text text-anchor="start" x="207.5" y="-18" font-family="Roboto" font-size="10.00">Urho3D::DecalSet::Update</text>
<text text-anchor="middle" x="264.5" y="-7" font-family="Roboto" font-size="10.00">EventSubscription</text>
</a>
</g>
</g>
<!-- Node1&#45;&gt;Node69 -->
<g id="edge26" class="edge">
<title>Node1&#45;&gt;Node69</title>
<path fill="none" stroke="#63b8ff" d="M72.95,-481.22C78.97,-421.52 113.47,-106.38 178,-39 181.36,-35.49 185.19,-32.48 189.31,-29.91"/>
<polygon fill="#63b8ff" stroke="#63b8ff" points="190.83,-33.07 198.08,-25.34 187.59,-26.86 190.83,-33.07"/>
</g>
<!-- Node3 -->
<g id="node3" class="node">
<title>Node3</title>
<g id="a_node3"><a xlink:href="class_urho3_d_1_1_vector3.html#a33cac219f3eab4ffe4d3d5effdde33e0" target="_top" xlink:title="Test for equality with another vector with epsilon.">
<polygon fill="#fff0f0" stroke="red" points="524.5,-960.5 401.5,-960.5 401.5,-941.5 524.5,-941.5 524.5,-960.5"/>
<text text-anchor="middle" x="463" y="-948.5" font-family="Roboto" font-size="10.00">Urho3D::Vector3::Equals</text>
</a>
</g>
</g>
<!-- Node2&#45;&gt;Node3 -->
<g id="edge3" class="edge">
<title>Node2&#45;&gt;Node3</title>
<path fill="none" stroke="#63b8ff" d="M330.39,-951C349.45,-951 370.41,-951 389.9,-951"/>
<polygon fill="#63b8ff" stroke="#63b8ff" points="389.66,-954.5 399.66,-951 389.66,-947.5 389.66,-954.5"/>
</g>
<!-- Node63&#45;&gt;Node55 -->
<g id="edge21" class="edge">
<title>Node63&#45;&gt;Node55</title>
<path fill="none" stroke="#63b8ff" d="M331.75,-241.42C345.78,-242.99 360.79,-244.67 375.44,-246.31"/>
<polygon fill="#63b8ff" stroke="#63b8ff" points="374.72,-249.75 385.05,-247.38 375.5,-242.79 374.72,-249.75"/>
</g>
</g>
</svg>
