<?xml version="1.0" encoding="UTF-8" standalone="no"?>
<!DOCTYPE svg PUBLIC "-//W3C//DTD SVG 1.1//EN"
 "http://www.w3.org/Graphics/SVG/1.1/DTD/svg11.dtd">
<!-- Generated by graphviz version 7.0.3 (0)
 -->
<!-- Title: Urho3D::BoundingBox::Center Pages: 1 -->
<svg width="695pt" height="754pt"
 viewBox="0.00 0.00 695.00 754.00" xmlns="http://www.w3.org/2000/svg" xmlns:xlink="http://www.w3.org/1999/xlink">
<g id="graph0" class="graph" transform="scale(1 1) rotate(0) translate(4 750)">
<title>Urho3D::BoundingBox::Center</title>
<!-- Node1 -->
<g id="node1" class="node">
<title>Node1</title>
<g id="a_node1"><a xlink:title=" ">
<polygon fill="#999999" stroke="#666666" points="687,-414 574,-414 574,-384 687,-384 687,-414"/>
<text text-anchor="start" x="582" y="-402" font-family="Roboto" font-size="10.00">Urho3D::BoundingBox</text>
<text text-anchor="middle" x="630.5" y="-391" font-family="Roboto" font-size="10.00">::Center</text>
</a>
</g>
</g>
<!-- Node2 -->
<g id="node2" class="node">
<title>Node2</title>
<g id="a_node2"><a xlink:href="class_urho3_d_1_1_bounding_box.html#a1eaac173d1df592326f91ea174a74a43" target="_top" xlink:title="Return distance to point.">
<polygon fill="white" stroke="#666666" points="517.5,-746 404.5,-746 404.5,-716 517.5,-716 517.5,-746"/>
<text text-anchor="start" x="412.5" y="-734" font-family="Roboto" font-size="10.00">Urho3D::BoundingBox</text>
<text text-anchor="middle" x="461" y="-723" font-family="Roboto" font-size="10.00">::DistanceToPoint</text>
</a>
</g>
</g>
<!-- Node1&#45;&gt;Node2 -->
<g id="edge1" class="edge">
<title>Node1&#45;&gt;Node2</title>
<path fill="none" stroke="#63b8ff" d="M629.5,-425.53C628.04,-484.51 616.13,-627.52 538,-707 532.37,-712.72 525.4,-717.08 517.97,-720.41"/>
<polygon fill="#63b8ff" stroke="#63b8ff" points="633,-425.84 629.65,-415.79 626,-425.73 633,-425.84"/>
</g>
<!-- Node4 -->
<g id="node4" class="node">
<title>Node4</title>
<g id="a_node4"><a xlink:href="class_urho3_d_1_1_view.html#ae6b753dabd0921ef05ce5d73b75c6209" target="_top" xlink:title="Find and set a new zone for a drawable when it has moved.">
<polygon fill="white" stroke="#666666" points="522,-697.5 400,-697.5 400,-678.5 522,-678.5 522,-697.5"/>
<text text-anchor="middle" x="461" y="-685.5" font-family="Roboto" font-size="10.00">Urho3D::View::FindZone</text>
</a>
</g>
</g>
<!-- Node1&#45;&gt;Node4 -->
<g id="edge3" class="edge">
<title>Node1&#45;&gt;Node4</title>
<path fill="none" stroke="#63b8ff" d="M628.55,-425.53C625.11,-479.65 609.42,-603.19 538,-669 533.4,-673.24 528,-676.57 522.23,-679.18"/>
<polygon fill="#63b8ff" stroke="#63b8ff" points="632.03,-425.89 629.07,-415.72 625.04,-425.52 632.03,-425.89"/>
</g>
<!-- Node5 -->
<g id="node5" class="node">
<title>Node5</title>
<g id="a_node5"><a xlink:href="class_urho3_d_1_1_octant.html#af6b16c407e941cff6bf54e509abf25a8" target="_top" xlink:title="Return or create a child octant.">
<polygon fill="white" stroke="#666666" points="532,-660 390,-660 390,-630 532,-630 532,-660"/>
<text text-anchor="start" x="398" y="-648" font-family="Roboto" font-size="10.00">Urho3D::Octant::GetOrCreate</text>
<text text-anchor="middle" x="461" y="-637" font-family="Roboto" font-size="10.00">Child</text>
</a>
</g>
</g>
<!-- Node1&#45;&gt;Node5 -->
<g id="edge4" class="edge">
<title>Node1&#45;&gt;Node5</title>
<path fill="none" stroke="#63b8ff" d="M625.23,-425.65C616.66,-470.81 593.22,-562.66 538,-616 532.31,-621.49 525.48,-625.97 518.27,-629.62"/>
<polygon fill="#63b8ff" stroke="#63b8ff" points="628.65,-426.42 626.96,-415.96 621.76,-425.19 628.65,-426.42"/>
</g>
<!-- Node6 -->
<g id="node6" class="node">
<title>Node6</title>
<g id="a_node6"><a xlink:href="class_urho3_d_1_1_octant.html#a2065c1ede777a63ec52954ca57a6de45" target="_top" xlink:title="Insert a drawable object by checking for fit recursively.">
<polygon fill="white" stroke="#666666" points="348,-632.5 194,-632.5 194,-613.5 348,-613.5 348,-632.5"/>
<text text-anchor="middle" x="271" y="-620.5" font-family="Roboto" font-size="10.00">Urho3D::Octant::InsertDrawable</text>
</a>
</g>
</g>
<!-- Node1&#45;&gt;Node6 -->
<g id="edge13" class="edge">
<title>Node1&#45;&gt;Node6</title>
<path fill="none" stroke="#63b8ff" d="M624.37,-425.67C614.98,-466.67 590.91,-544.48 538,-583 508.5,-604.47 415.92,-614.64 348.25,-619.29"/>
<polygon fill="#63b8ff" stroke="#63b8ff" points="627.78,-426.44 626.46,-415.93 620.94,-424.97 627.78,-426.44"/>
</g>
<!-- Node19 -->
<g id="node9" class="node">
<title>Node19</title>
<g id="a_node9"><a xlink:href="class_urho3_d_1_1_physics_world.html#abe003859a8d5428d310c9113efa11647" target="_top" xlink:title="Return rigid bodies by a box query.">
<polygon fill="white" stroke="#666666" points="519,-574 403,-574 403,-544 519,-544 519,-574"/>
<text text-anchor="start" x="411" y="-562" font-family="Roboto" font-size="10.00">Urho3D::PhysicsWorld</text>
<text text-anchor="middle" x="461" y="-551" font-family="Roboto" font-size="10.00">::GetRigidBodies</text>
</a>
</g>
</g>
<!-- Node1&#45;&gt;Node19 -->
<g id="edge9" class="edge">
<title>Node1&#45;&gt;Node19</title>
<path fill="none" stroke="#63b8ff" d="M618.82,-424.38C604.7,-454.96 576.97,-505.85 538,-535 532.35,-539.23 525.93,-542.72 519.28,-545.61"/>
<polygon fill="#63b8ff" stroke="#63b8ff" points="621.91,-426.05 622.79,-415.5 615.52,-423.2 621.91,-426.05"/>
</g>
<!-- Node20 -->
<g id="node10" class="node">
<title>Node20</title>
<g id="a_node10"><a xlink:href="class_urho3_d_1_1_octant.html#a6304500141e75a6b6537a334d3922cec" target="_top" xlink:title="Initialize bounding box.">
<polygon fill="white" stroke="#666666" points="523,-525.5 399,-525.5 399,-506.5 523,-506.5 523,-525.5"/>
<text text-anchor="middle" x="461" y="-513.5" font-family="Roboto" font-size="10.00">Urho3D::Octant::Initialize</text>
</a>
</g>
</g>
<!-- Node1&#45;&gt;Node20 -->
<g id="edge10" class="edge">
<title>Node1&#45;&gt;Node20</title>
<path fill="none" stroke="#63b8ff" d="M613.2,-423.74C596.88,-446.52 569.69,-479.49 538,-498 532.5,-501.21 526.45,-503.86 520.25,-506.02"/>
<polygon fill="#63b8ff" stroke="#63b8ff" points="616.01,-425.83 618.85,-415.62 610.27,-421.83 616.01,-425.83"/>
</g>
<!-- Node23 -->
<g id="node13" class="node">
<title>Node23</title>
<g id="a_node13"><a xlink:href="class_urho3_d_1_1_frustum.html#ae0de3431d6acbb6dcc47f668d98dd469" target="_top" xlink:title="Test if a bounding box is inside, outside or intersects.">
<polygon fill="white" stroke="#666666" points="526.5,-488.5 395.5,-488.5 395.5,-469.5 526.5,-469.5 526.5,-488.5"/>
<text text-anchor="middle" x="461" y="-476.5" font-family="Roboto" font-size="10.00">Urho3D::Frustum::IsInside</text>
</a>
</g>
</g>
<!-- Node1&#45;&gt;Node23 -->
<g id="edge14" class="edge">
<title>Node1&#45;&gt;Node23</title>
<path fill="none" stroke="#63b8ff" d="M602.07,-421.49C584.66,-434.74 561.12,-450.84 538,-461 530.8,-464.16 522.96,-466.82 515.14,-469.03"/>
<polygon fill="#63b8ff" stroke="#63b8ff" points="604.13,-424.31 609.87,-415.41 599.83,-418.79 604.13,-424.31"/>
</g>
<!-- Node24 -->
<g id="node14" class="node">
<title>Node24</title>
<g id="a_node14"><a xlink:href="class_urho3_d_1_1_frustum.html#a14dc2400d17d695892ce4edfcc9b724e" target="_top" xlink:title="Test if a bounding box is (partially) inside or outside.">
<polygon fill="white" stroke="#666666" points="536,-451.5 386,-451.5 386,-432.5 536,-432.5 536,-451.5"/>
<text text-anchor="middle" x="461" y="-439.5" font-family="Roboto" font-size="10.00">Urho3D::Frustum::IsInsideFast</text>
</a>
</g>
</g>
<!-- Node1&#45;&gt;Node24 -->
<g id="edge15" class="edge">
<title>Node1&#45;&gt;Node24</title>
<path fill="none" stroke="#63b8ff" d="M562.94,-416.56C554.55,-418.74 546.08,-420.93 538,-423 526.41,-425.97 513.8,-429.14 502.25,-432.03"/>
<polygon fill="#63b8ff" stroke="#63b8ff" points="563.63,-419.99 572.42,-414.08 561.86,-413.22 563.63,-419.99"/>
</g>
<!-- Node25 -->
<g id="node15" class="node">
<title>Node25</title>
<g id="a_node15"><a xlink:href="class_urho3_d_1_1_view.html#a49001e64316a935b378b045fde2043a2" target="_top" xlink:title="Check visibility of one shadow caster.">
<polygon fill="white" stroke="#666666" points="538,-414 384,-414 384,-384 538,-384 538,-414"/>
<text text-anchor="start" x="392" y="-402" font-family="Roboto" font-size="10.00">Urho3D::View::IsShadowCaster</text>
<text text-anchor="middle" x="461" y="-391" font-family="Roboto" font-size="10.00">Visible</text>
</a>
</g>
</g>
<!-- Node1&#45;&gt;Node25 -->
<g id="edge16" class="edge">
<title>Node1&#45;&gt;Node25</title>
<path fill="none" stroke="#63b8ff" d="M562.36,-399C554.48,-399 546.4,-399 538.41,-399"/>
<polygon fill="#63b8ff" stroke="#63b8ff" points="562.21,-402.5 572.21,-399 562.21,-395.5 562.21,-402.5"/>
</g>
<!-- Node28 -->
<g id="node17" class="node">
<title>Node28</title>
<g id="a_node17"><a xlink:href="class_urho3_d_1_1_light.html#a32fb13d9f87c9f6ee99a8998d708a23f" target="_top" xlink:title="Set sort value based on overall intensity over a bounding box.">
<polygon fill="white" stroke="#666666" points="526.5,-366 395.5,-366 395.5,-336 526.5,-336 526.5,-366"/>
<text text-anchor="start" x="403.5" y="-354" font-family="Roboto" font-size="10.00">Urho3D::Light::SetIntensity</text>
<text text-anchor="middle" x="461" y="-343" font-family="Roboto" font-size="10.00">SortValue</text>
</a>
</g>
</g>
<!-- Node1&#45;&gt;Node28 -->
<g id="edge18" class="edge">
<title>Node1&#45;&gt;Node28</title>
<path fill="none" stroke="#63b8ff" d="M564.6,-380.4C548.47,-375.78 531.35,-370.87 515.82,-366.42"/>
<polygon fill="#63b8ff" stroke="#63b8ff" points="563.55,-383.74 574.12,-383.13 565.48,-377.01 563.55,-383.74"/>
</g>
<!-- Node29 -->
<g id="node18" class="node">
<title>Node29</title>
<g id="a_node18"><a xlink:href="class_urho3_d_1_1_bounding_box.html#a5ba8b6f96c6587ad5c70e8d01521ca28" target="_top" xlink:title="Return transformed by a 3x4 matrix.">
<polygon fill="white" stroke="#666666" points="517.5,-318 404.5,-318 404.5,-288 517.5,-288 517.5,-318"/>
<text text-anchor="start" x="412.5" y="-306" font-family="Roboto" font-size="10.00">Urho3D::BoundingBox</text>
<text text-anchor="middle" x="461" y="-295" font-family="Roboto" font-size="10.00">::Transformed</text>
</a>
</g>
</g>
<!-- Node1&#45;&gt;Node29 -->
<g id="edge19" class="edge">
<title>Node1&#45;&gt;Node29</title>
<path fill="none" stroke="#63b8ff" d="M605.45,-376.08C587.92,-360.42 562.96,-340.19 538,-327 531.64,-323.64 524.73,-320.65 517.75,-318.03"/>
<polygon fill="#63b8ff" stroke="#63b8ff" points="603.03,-378.61 612.78,-382.77 607.75,-373.44 603.03,-378.61"/>
</g>
<!-- Node30 -->
<g id="node19" class="node">
<title>Node30</title>
<g id="a_node19"><a xlink:href="class_urho3_d_1_1_zone.html#adef9612f3087baa6b90b52e6582722dd" target="_top" xlink:title="Recalculate the ambient gradient colors from neighbor zones. Not safe to call from worker threads due...">
<polygon fill="#fff0f0" stroke="red" points="536,-222 386,-222 386,-192 536,-192 536,-222"/>
<text text-anchor="start" x="394" y="-210" font-family="Roboto" font-size="10.00">Urho3D::Zone::UpdateAmbient</text>
<text text-anchor="middle" x="461" y="-199" font-family="Roboto" font-size="10.00">Gradient</text>
</a>
</g>
</g>
<!-- Node1&#45;&gt;Node30 -->
<g id="edge20" class="edge">
<title>Node1&#45;&gt;Node30</title>
<path fill="none" stroke="#63b8ff" d="M622.21,-373.15C610.51,-336.3 584.03,-268.91 538,-231 534.05,-227.75 529.65,-224.93 525.02,-222.5"/>
<polygon fill="#63b8ff" stroke="#63b8ff" points="618.8,-373.97 625.06,-382.52 625.5,-371.94 618.8,-373.97"/>
</g>
<!-- Node40 -->
<g id="node21" class="node">
<title>Node40</title>
<g id="a_node21"><a xlink:href="class_urho3_d_1_1_drawable.html#a4f1798df7e5a110d9c29ddd2e68df80b" target="_top" xlink:title="Calculate distance and prepare batches for rendering. May be called from worker thread(s),...">
<polygon fill="#fff0f0" stroke="red" points="526.5,-270 395.5,-270 395.5,-240 526.5,-240 526.5,-270"/>
<text text-anchor="start" x="403.5" y="-258" font-family="Roboto" font-size="10.00">Urho3D::Drawable::Update</text>
<text text-anchor="middle" x="461" y="-247" font-family="Roboto" font-size="10.00">Batches</text>
</a>
</g>
</g>
<!-- Node1&#45;&gt;Node40 -->
<g id="edge22" class="edge">
<title>Node1&#45;&gt;Node40</title>
<path fill="none" stroke="#63b8ff" d="M616.46,-373.76C601.18,-346.57 573.39,-303.87 538,-279 533.36,-275.74 528.25,-272.91 522.95,-270.45"/>
<polygon fill="#63b8ff" stroke="#63b8ff" points="613.29,-375.25 621.15,-382.36 619.44,-371.9 613.29,-375.25"/>
</g>
<!-- Node50 -->
<g id="node22" class="node">
<title>Node50</title>
<g id="a_node22"><a xlink:href="class_urho3_d_1_1_animated_model.html#a59fb5fdb95f5e8bfa3c3fbf1012eaf60" target="_top" xlink:title="Calculate distance and prepare batches for rendering. May be called from worker thread(s),...">
<polygon fill="white" stroke="#666666" points="524,-174 398,-174 398,-144 524,-144 524,-174"/>
<text text-anchor="start" x="406" y="-162" font-family="Roboto" font-size="10.00">Urho3D::AnimatedModel</text>
<text text-anchor="middle" x="461" y="-151" font-family="Roboto" font-size="10.00">::UpdateBatches</text>
</a>
</g>
</g>
<!-- Node1&#45;&gt;Node50 -->
<g id="edge24" class="edge">
<title>Node1&#45;&gt;Node50</title>
<path fill="none" stroke="#63b8ff" d="M625.58,-372.45C617.5,-327.09 594.72,-234.58 538,-183 533.91,-179.28 529.23,-176.13 524.27,-173.47"/>
<polygon fill="#63b8ff" stroke="#63b8ff" points="622.11,-372.89 627.2,-382.18 629.01,-371.74 622.11,-372.89"/>
</g>
<!-- Node51 -->
<g id="node23" class="node">
<title>Node51</title>
<g id="a_node23"><a xlink:href="class_urho3_d_1_1_decal_set.html#a738073327526ae29261d31019889bcb3" target="_top" xlink:title="Calculate distance and prepare batches for rendering. May be called from worker thread(s),...">
<polygon fill="white" stroke="#666666" points="526,-126 396,-126 396,-96 526,-96 526,-126"/>
<text text-anchor="start" x="404" y="-114" font-family="Roboto" font-size="10.00">Urho3D::DecalSet::Update</text>
<text text-anchor="middle" x="461" y="-103" font-family="Roboto" font-size="10.00">Batches</text>
</a>
</g>
</g>
<!-- Node1&#45;&gt;Node51 -->
<g id="edge25" class="edge">
<title>Node1&#45;&gt;Node51</title>
<path fill="none" stroke="#63b8ff" d="M627.93,-372.31C623.38,-319.46 605.76,-200.91 538,-135 534.53,-131.62 530.59,-128.72 526.36,-126.23"/>
<polygon fill="#63b8ff" stroke="#63b8ff" points="624.43,-372.48 628.68,-382.18 631.41,-371.95 624.43,-372.48"/>
</g>
<!-- Node52 -->
<g id="node24" class="node">
<title>Node52</title>
<g id="a_node24"><a xlink:href="class_urho3_d_1_1_static_model.html#ac59f46b979f0e586501f3b4e7689c284" target="_top" xlink:title="Calculate distance and prepare batches for rendering. May be called from worker thread(s),...">
<polygon fill="white" stroke="#666666" points="515,-78 407,-78 407,-48 515,-48 515,-78"/>
<text text-anchor="start" x="415" y="-66" font-family="Roboto" font-size="10.00">Urho3D::StaticModel</text>
<text text-anchor="middle" x="461" y="-55" font-family="Roboto" font-size="10.00">::UpdateBatches</text>
</a>
</g>
</g>
<!-- Node1&#45;&gt;Node52 -->
<g id="edge26" class="edge">
<title>Node1&#45;&gt;Node52</title>
<path fill="none" stroke="#63b8ff" d="M629.62,-372.13C628.39,-312.41 616.92,-167.56 538,-87 531.71,-80.58 523.71,-75.87 515.28,-72.41"/>
<polygon fill="#63b8ff" stroke="#63b8ff" points="626.12,-372.06 629.73,-382.02 633.12,-371.98 626.12,-372.06"/>
</g>
<!-- Node53 -->
<g id="node25" class="node">
<title>Node53</title>
<g id="a_node25"><a xlink:href="class_urho3_d_1_1_static_model_group.html#a91aa25c17c0160a3673bb985190479af" target="_top" xlink:title="Calculate distance and prepare batches for rendering. May be called from worker thread(s),...">
<polygon fill="white" stroke="#666666" points="528,-30 394,-30 394,0 528,0 528,-30"/>
<text text-anchor="start" x="402" y="-18" font-family="Roboto" font-size="10.00">Urho3D::StaticModelGroup</text>
<text text-anchor="middle" x="461" y="-7" font-family="Roboto" font-size="10.00">::UpdateBatches</text>
</a>
</g>
</g>
<!-- Node1&#45;&gt;Node53 -->
<g id="edge27" class="edge">
<title>Node1&#45;&gt;Node53</title>
<path fill="none" stroke="#63b8ff" d="M626.11,-372.38C616.08,-297.63 584.35,-88.07 538,-39 534.86,-35.68 531.27,-32.82 527.4,-30.35"/>
<polygon fill="#63b8ff" stroke="#63b8ff" points="622.61,-372.6 627.38,-382.06 629.55,-371.69 622.61,-372.6"/>
</g>
<!-- Node3 -->
<g id="node3" class="node">
<title>Node3</title>
<g id="a_node3"><a xlink:href="class_urho3_d_1_1_dynamic_navigation_mesh.html#a2a4d9936b66f8f056928dd48b07ef9a2" target="_top" xlink:title="Return whether the Obstacle is touching the given tile.">
<polygon fill="white" stroke="#666666" points="341,-746 201,-746 201,-716 341,-716 341,-746"/>
<text text-anchor="start" x="209" y="-734" font-family="Roboto" font-size="10.00">Urho3D::DynamicNavigation</text>
<text text-anchor="middle" x="271" y="-723" font-family="Roboto" font-size="10.00">Mesh::IsObstacleInTile</text>
</a>
</g>
</g>
<!-- Node2&#45;&gt;Node3 -->
<g id="edge2" class="edge">
<title>Node2&#45;&gt;Node3</title>
<path fill="none" stroke="#63b8ff" d="M392.77,-731C376.07,-731 358.14,-731 341.34,-731"/>
<polygon fill="#63b8ff" stroke="#63b8ff" points="392.59,-734.5 402.59,-731 392.59,-727.5 392.59,-734.5"/>
</g>
<!-- Node5&#45;&gt;Node6 -->
<g id="edge5" class="edge">
<title>Node5&#45;&gt;Node6</title>
<path fill="none" stroke="#63b8ff" d="M378.56,-635.47C368.58,-634.3 358.4,-633.11 348.49,-631.95"/>
<polygon fill="#63b8ff" stroke="#63b8ff" points="377.89,-638.91 388.23,-636.6 378.7,-631.96 377.89,-638.91"/>
</g>
<!-- Node6&#45;&gt;Node6 -->
<g id="edge7" class="edge">
<title>Node6&#45;&gt;Node6</title>
<path fill="none" stroke="#63b8ff" d="M305.38,-643.26C301.77,-647.47 290.31,-650.5 271,-650.5 237.6,-650.5 227.69,-641.44 241.25,-632.87"/>
<polygon fill="#63b8ff" stroke="#63b8ff" points="308.63,-641.96 301.36,-634.25 302.24,-644.81 308.63,-641.96"/>
</g>
<!-- Node7 -->
<g id="node7" class="node">
<title>Node7</title>
<g id="a_node7"><a xlink:href="class_urho3_d_1_1_drawable.html#adaacb5c93a02cfd9d662b167b0bae813" target="_top" xlink:title="Add to octree.">
<polygon fill="#fff0f0" stroke="red" points="158,-650.5 0,-650.5 0,-631.5 158,-631.5 158,-650.5"/>
<text text-anchor="middle" x="79" y="-638.5" font-family="Roboto" font-size="10.00">Urho3D::Drawable::AddToOctree</text>
</a>
</g>
</g>
<!-- Node6&#45;&gt;Node7 -->
<g id="edge6" class="edge">
<title>Node6&#45;&gt;Node7</title>
<path fill="none" stroke="#63b8ff" d="M182.35,-631.3C174.38,-632.06 166.35,-632.82 158.47,-633.57"/>
<polygon fill="#63b8ff" stroke="#63b8ff" points="182.41,-634.81 192.03,-630.39 181.75,-627.85 182.41,-634.81"/>
</g>
<!-- Node16 -->
<g id="node8" class="node">
<title>Node16</title>
<g id="a_node8"><a xlink:href="class_urho3_d_1_1_octree.html#a56ad2ab6941f97453c66625bd8dad9da" target="_top" xlink:title="Update and reinsert drawable objects.">
<polygon fill="#fff0f0" stroke="red" points="138.5,-613.5 19.5,-613.5 19.5,-594.5 138.5,-594.5 138.5,-613.5"/>
<text text-anchor="middle" x="79" y="-601.5" font-family="Roboto" font-size="10.00">Urho3D::Octree::Update</text>
</a>
</g>
</g>
<!-- Node6&#45;&gt;Node16 -->
<g id="edge8" class="edge">
<title>Node6&#45;&gt;Node16</title>
<path fill="none" stroke="#63b8ff" d="M182.33,-614.23C167.57,-612.76 152.57,-611.26 138.77,-609.88"/>
<polygon fill="#63b8ff" stroke="#63b8ff" points="181.74,-617.69 192.03,-615.2 182.43,-610.73 181.74,-617.69"/>
</g>
<!-- Node21 -->
<g id="node11" class="node">
<title>Node21</title>
<g id="a_node11"><a xlink:href="class_urho3_d_1_1_octant.html#a45c74cdea87783c7b5e65e1d5559eaaa" target="_top" xlink:title="Construct.">
<polygon fill="white" stroke="#666666" points="329,-543.5 213,-543.5 213,-524.5 329,-524.5 329,-543.5"/>
<text text-anchor="middle" x="271" y="-531.5" font-family="Roboto" font-size="10.00">Urho3D::Octant::Octant</text>
</a>
</g>
</g>
<!-- Node20&#45;&gt;Node21 -->
<g id="edge11" class="edge">
<title>Node20&#45;&gt;Node21</title>
<path fill="none" stroke="#63b8ff" d="M387.26,-522.96C368.07,-524.8 347.64,-526.76 329.39,-528.51"/>
<polygon fill="#63b8ff" stroke="#63b8ff" points="387.57,-526.45 397.2,-522.01 386.91,-519.48 387.57,-526.45"/>
</g>
<!-- Node22 -->
<g id="node12" class="node">
<title>Node22</title>
<g id="a_node12"><a xlink:href="class_urho3_d_1_1_octree.html#af2145144805c864820bbdca1c637ca34" target="_top" xlink:title="Set size and maximum subdivision levels. If octree is not empty, drawable objects will be temporarily...">
<polygon fill="white" stroke="#666666" points="331.5,-506.5 210.5,-506.5 210.5,-487.5 331.5,-487.5 331.5,-506.5"/>
<text text-anchor="middle" x="271" y="-494.5" font-family="Roboto" font-size="10.00">Urho3D::Octree::SetSize</text>
</a>
</g>
</g>
<!-- Node20&#45;&gt;Node22 -->
<g id="edge12" class="edge">
<title>Node20&#45;&gt;Node22</title>
<path fill="none" stroke="#63b8ff" d="M387.45,-508.67C369.09,-506.81 349.59,-504.84 331.93,-503.06"/>
<polygon fill="#63b8ff" stroke="#63b8ff" points="386.89,-512.13 397.2,-509.65 387.6,-505.16 386.89,-512.13"/>
</g>
<!-- Node26 -->
<g id="node16" class="node">
<title>Node26</title>
<g id="a_node16"><a xlink:href="class_urho3_d_1_1_view.html#a7d398cea4906919b033f5fc86f67d764" target="_top" xlink:title="Process shadow casters&#39; visibilities and build their combined view&#45; or projection&#45;space bounding box.">
<polygon fill="#fff0f0" stroke="red" points="347,-342 195,-342 195,-312 347,-312 347,-342"/>
<text text-anchor="start" x="203" y="-330" font-family="Roboto" font-size="10.00">Urho3D::View::ProcessShadow</text>
<text text-anchor="middle" x="271" y="-319" font-family="Roboto" font-size="10.00">Casters</text>
</a>
</g>
</g>
<!-- Node25&#45;&gt;Node26 -->
<g id="edge17" class="edge">
<title>Node25&#45;&gt;Node26</title>
<path fill="none" stroke="#63b8ff" d="M398.13,-380.03C393.33,-378.38 388.57,-376.7 384,-375 357.23,-365.06 327.54,-352.26 305.47,-342.37"/>
<polygon fill="#63b8ff" stroke="#63b8ff" points="396.63,-383.22 407.23,-383.07 398.85,-376.58 396.63,-383.22"/>
</g>
<!-- Node31 -->
<g id="node20" class="node">
<title>Node31</title>
<g id="a_node20"><a xlink:href="class_urho3_d_1_1_zone.html#a6c92c15c40080776d405946a08529b21" target="_top" xlink:title=" ">
<polygon fill="#fff0f0" stroke="red" points="338,-222 204,-222 204,-192 338,-192 338,-222"/>
<text text-anchor="start" x="212" y="-210" font-family="Roboto" font-size="10.00">Urho3D::Zone::GetAmbient</text>
<text text-anchor="middle" x="271" y="-199" font-family="Roboto" font-size="10.00">EndColor</text>
</a>
</g>
</g>
<!-- Node30&#45;&gt;Node31 -->
<g id="edge21" class="edge">
<title>Node30&#45;&gt;Node31</title>
<path fill="none" stroke="#63b8ff" d="M374.26,-207C362.24,-207 350.04,-207 338.45,-207"/>
<polygon fill="#63b8ff" stroke="#63b8ff" points="374.18,-210.5 384.18,-207 374.18,-203.5 374.18,-210.5"/>
</g>
<!-- Node40&#45;&gt;Node26 -->
<g id="edge23" class="edge">
<title>Node40&#45;&gt;Node26</title>
<path fill="none" stroke="#63b8ff" d="M398.13,-273.97C393.33,-275.62 388.57,-277.3 384,-279 357.23,-288.94 327.54,-301.74 305.47,-311.63"/>
<polygon fill="#63b8ff" stroke="#63b8ff" points="398.85,-277.42 407.23,-270.93 396.63,-270.78 398.85,-277.42"/>
</g>
</g>
</svg>
