<?xml version="1.0" encoding="UTF-8" standalone="no"?>
<!DOCTYPE svg PUBLIC "-//W3C//DTD SVG 1.1//EN"
 "http://www.w3.org/Graphics/SVG/1.1/DTD/svg11.dtd">
<!-- Generated by graphviz version 7.0.3 (0)
 -->
<!-- Title: Urho3D::UIElement::GetDerivedOpacity Pages: 1 -->
<svg width="1219pt" height="441pt"
 viewBox="0.00 0.00 1219.00 440.50" xmlns="http://www.w3.org/2000/svg" xmlns:xlink="http://www.w3.org/1999/xlink">
<g id="graph0" class="graph" transform="scale(1 1) rotate(0) translate(4 436.5)">
<title>Urho3D::UIElement::GetDerivedOpacity</title>
<!-- Node1 -->
<g id="node1" class="node">
<title>Node1</title>
<g id="a_node1"><a xlink:title=" ">
<polygon fill="#999999" stroke="#666666" points="1211,-308 1106,-308 1106,-278 1211,-278 1211,-308"/>
<text text-anchor="start" x="1114" y="-296" font-family="Roboto" font-size="10.00">Urho3D::UIElement::</text>
<text text-anchor="middle" x="1158.5" y="-285" font-family="Roboto" font-size="10.00">GetDerivedOpacity</text>
</a>
</g>
</g>
<!-- Node2 -->
<g id="node2" class="node">
<title>Node2</title>
<g id="a_node2"><a xlink:href="class_urho3_d_1_1_sprite.html#a76d599f607f45d7abbf5389983dec9b5" target="_top" xlink:title="Return UI rendering batches.">
<polygon fill="white" stroke="#666666" points="690.5,-432.5 555.5,-432.5 555.5,-413.5 690.5,-413.5 690.5,-432.5"/>
<text text-anchor="middle" x="623" y="-420.5" font-family="Roboto" font-size="10.00">Urho3D::Sprite::GetBatches</text>
</a>
</g>
</g>
<!-- Node1&#45;&gt;Node2 -->
<g id="edge1" class="edge">
<title>Node1&#45;&gt;Node2</title>
<path fill="none" stroke="#63b8ff" d="M1123.32,-314.01C1107.58,-322.88 1088.35,-332.61 1070,-339 939.97,-384.28 779.64,-406.88 690.97,-416.67"/>
<polygon fill="#63b8ff" stroke="#63b8ff" points="1124.9,-317.14 1131.81,-309.1 1121.4,-311.07 1124.9,-317.14"/>
</g>
<!-- Node3 -->
<g id="node3" class="node">
<title>Node3</title>
<g id="a_node3"><a xlink:href="class_urho3_d_1_1_border_image.html#ab2b83d25430d5985c6945455808348b7" target="_top" xlink:title="Return UI rendering batches with offset to image rectangle.">
<polygon fill="white" stroke="#666666" points="679.5,-358 566.5,-358 566.5,-328 679.5,-328 679.5,-358"/>
<text text-anchor="start" x="574.5" y="-346" font-family="Roboto" font-size="10.00">Urho3D::BorderImage</text>
<text text-anchor="middle" x="623" y="-335" font-family="Roboto" font-size="10.00">::GetBatches</text>
</a>
</g>
</g>
<!-- Node1&#45;&gt;Node3 -->
<g id="edge2" class="edge">
<title>Node1&#45;&gt;Node3</title>
<path fill="none" stroke="#63b8ff" d="M1097.42,-311.25C1088.3,-313.5 1078.95,-315.53 1070,-317 930.9,-339.87 764.51,-343.37 679.69,-343.48"/>
<polygon fill="#63b8ff" stroke="#63b8ff" points="1098.12,-314.69 1106.92,-308.79 1096.36,-307.91 1098.12,-314.69"/>
</g>
<!-- Node4 -->
<g id="node4" class="node">
<title>Node4</title>
<g id="a_node4"><a xlink:href="class_urho3_d_1_1_u_i_element.html#a0917ee6f734626695897e92de6fcfc7c" target="_top" xlink:title="Return derived color. Only valid when no gradient.">
<polygon fill="white" stroke="#666666" points="1041.5,-308 936.5,-308 936.5,-278 1041.5,-278 1041.5,-308"/>
<text text-anchor="start" x="944.5" y="-296" font-family="Roboto" font-size="10.00">Urho3D::UIElement::</text>
<text text-anchor="middle" x="989" y="-285" font-family="Roboto" font-size="10.00">GetDerivedColor</text>
</a>
</g>
</g>
<!-- Node1&#45;&gt;Node4 -->
<g id="edge3" class="edge">
<title>Node1&#45;&gt;Node4</title>
<path fill="none" stroke="#63b8ff" d="M1094.64,-293C1077.2,-293 1058.47,-293 1041.74,-293"/>
<polygon fill="#63b8ff" stroke="#63b8ff" points="1094.36,-296.5 1104.36,-293 1094.36,-289.5 1094.36,-296.5"/>
</g>
<!-- Node20 -->
<g id="node17" class="node">
<title>Node20</title>
<g id="a_node17"><a xlink:href="class_urho3_d_1_1_u_i_batch.html#a0419872b79f435029f6358e5e691075c" target="_top" xlink:title="Return an interpolated color for the UI element.">
<polygon fill="white" stroke="#666666" points="1070,-244 908,-244 908,-214 1070,-214 1070,-244"/>
<text text-anchor="start" x="916" y="-232" font-family="Roboto" font-size="10.00">Urho3D::UIBatch::GetInterpolated</text>
<text text-anchor="middle" x="989" y="-221" font-family="Roboto" font-size="10.00">Color</text>
</a>
</g>
</g>
<!-- Node1&#45;&gt;Node20 -->
<g id="edge16" class="edge">
<title>Node1&#45;&gt;Node20</title>
<path fill="none" stroke="#63b8ff" d="M1106.45,-273.49C1082.07,-264.18 1053.31,-253.19 1030.46,-244.46"/>
<polygon fill="#63b8ff" stroke="#63b8ff" points="1104.95,-276.67 1115.54,-276.97 1107.45,-270.13 1104.95,-276.67"/>
</g>
<!-- Node31 -->
<g id="node25" class="node">
<title>Node31</title>
<g id="a_node25"><a xlink:href="class_urho3_d_1_1_u_i_batch.html#abcc8c0f4f3221e3e814ffa0f8f11b73f" target="_top" xlink:title="Set new color for the batch. Overrides gradient.">
<polygon fill="white" stroke="#666666" points="868.5,-148.5 735.5,-148.5 735.5,-129.5 868.5,-129.5 868.5,-148.5"/>
<text text-anchor="middle" x="802" y="-136.5" font-family="Roboto" font-size="10.00">Urho3D::UIBatch::SetColor</text>
</a>
</g>
</g>
<!-- Node1&#45;&gt;Node31 -->
<g id="edge30" class="edge">
<title>Node1&#45;&gt;Node31</title>
<path fill="none" stroke="#63b8ff" d="M1139.73,-268.85C1123.69,-248.79 1098.32,-221.04 1070,-205 1007.16,-169.41 925.37,-152.84 868.96,-145.23"/>
<polygon fill="#63b8ff" stroke="#63b8ff" points="1136.79,-270.78 1145.69,-276.53 1142.32,-266.49 1136.79,-270.78"/>
</g>
<!-- Node5 -->
<g id="node5" class="node">
<title>Node5</title>
<g id="a_node5"><a xlink:href="class_urho3_d_1_1_u_i_batch.html#a0c8fcf983576330117d1f3574a831821" target="_top" xlink:title="Add a quad with tiled texture.">
<polygon fill="white" stroke="#666666" points="691,-309.5 555,-309.5 555,-290.5 691,-290.5 691,-309.5"/>
<text text-anchor="middle" x="623" y="-297.5" font-family="Roboto" font-size="10.00">Urho3D::UIBatch::AddQuad</text>
</a>
</g>
</g>
<!-- Node4&#45;&gt;Node5 -->
<g id="edge4" class="edge">
<title>Node4&#45;&gt;Node5</title>
<path fill="none" stroke="#63b8ff" d="M924.89,-294.21C859.64,-295.47 758.15,-297.42 691.37,-298.7"/>
<polygon fill="#63b8ff" stroke="#63b8ff" points="924.79,-297.72 934.72,-294.02 924.66,-290.72 924.79,-297.72"/>
</g>
<!-- Node6 -->
<g id="node6" class="node">
<title>Node6</title>
<g id="a_node6"><a xlink:href="class_urho3_d_1_1_u_i_batch.html#a2f2038027b731686692757da512dfc0f" target="_top" xlink:title="Restore UI element&#39;s default color.">
<polygon fill="white" stroke="#666666" points="872,-278 732,-278 732,-248 872,-248 872,-278"/>
<text text-anchor="start" x="740" y="-266" font-family="Roboto" font-size="10.00">Urho3D::UIBatch::SetDefault</text>
<text text-anchor="middle" x="802" y="-255" font-family="Roboto" font-size="10.00">Color</text>
</a>
</g>
</g>
<!-- Node4&#45;&gt;Node6 -->
<g id="edge5" class="edge">
<title>Node4&#45;&gt;Node6</title>
<path fill="none" stroke="#63b8ff" d="M925.47,-282.86C908.35,-280.08 889.7,-277.06 872.24,-274.23"/>
<polygon fill="#63b8ff" stroke="#63b8ff" points="924.54,-286.26 934.97,-284.4 925.66,-279.35 924.54,-286.26"/>
</g>
<!-- Node7 -->
<g id="node7" class="node">
<title>Node7</title>
<g id="a_node7"><a xlink:href="class_urho3_d_1_1_text.html#a18a702a227da75230588bee036a754f5" target="_top" xlink:title="Construct batch.">
<polygon fill="white" stroke="#666666" points="696,-272.5 550,-272.5 550,-253.5 696,-253.5 696,-272.5"/>
<text text-anchor="middle" x="623" y="-260.5" font-family="Roboto" font-size="10.00">Urho3D::Text::ConstructBatch</text>
</a>
</g>
</g>
<!-- Node6&#45;&gt;Node7 -->
<g id="edge6" class="edge">
<title>Node6&#45;&gt;Node7</title>
<path fill="none" stroke="#63b8ff" d="M720.09,-263C712.21,-263 704.24,-263 696.45,-263"/>
<polygon fill="#63b8ff" stroke="#63b8ff" points="720.04,-266.5 730.04,-263 720.04,-259.5 720.04,-266.5"/>
</g>
<!-- Node19 -->
<g id="node16" class="node">
<title>Node19</title>
<g id="a_node16"><a xlink:href="class_urho3_d_1_1_u_i_batch.html#a96b2148cc7ea02f422e3da8501c22a1c" target="_top" xlink:title="Construct with defaults.">
<polygon fill="white" stroke="#666666" points="687,-395.5 559,-395.5 559,-376.5 687,-376.5 687,-395.5"/>
<text text-anchor="middle" x="623" y="-383.5" font-family="Roboto" font-size="10.00">Urho3D::UIBatch::UIBatch</text>
</a>
</g>
</g>
<!-- Node6&#45;&gt;Node19 -->
<g id="edge15" class="edge">
<title>Node6&#45;&gt;Node19</title>
<path fill="none" stroke="#63b8ff" d="M783.05,-287.01C764.01,-310.8 731.79,-346.54 696,-367 689.6,-370.66 682.48,-373.63 675.28,-376.04"/>
<polygon fill="#63b8ff" stroke="#63b8ff" points="785.58,-289.46 788.98,-279.43 780.06,-285.15 785.58,-289.46"/>
</g>
<!-- Node8 -->
<g id="node8" class="node">
<title>Node8</title>
<g id="a_node8"><a xlink:href="class_urho3_d_1_1_text.html#ad553fd06643ea9dbbf0c18cbee39d9f0" target="_top" xlink:title="Return UI rendering batches.">
<polygon fill="white" stroke="#666666" points="512,-212.5 384,-212.5 384,-193.5 512,-193.5 512,-212.5"/>
<text text-anchor="middle" x="448" y="-200.5" font-family="Roboto" font-size="10.00">Urho3D::Text::GetBatches</text>
</a>
</g>
</g>
<!-- Node7&#45;&gt;Node8 -->
<g id="edge7" class="edge">
<title>Node7&#45;&gt;Node8</title>
<path fill="none" stroke="#63b8ff" d="M581.12,-249.54C570.94,-246.14 560.06,-242.47 550,-239 525.01,-230.38 496.67,-220.25 476.38,-212.93"/>
<polygon fill="#63b8ff" stroke="#63b8ff" points="579.8,-252.78 590.39,-252.62 582.01,-246.14 579.8,-252.78"/>
</g>
<!-- Node9 -->
<g id="node9" class="node">
<title>Node9</title>
<g id="a_node9"><a xlink:href="class_urho3_d_1_1_text3_d.html#a1f643feab9477ca50a084501df1a8e3b" target="_top" xlink:title="Update text UI batches.">
<polygon fill="#fff0f0" stroke="red" points="346,-218 206,-218 206,-188 346,-188 346,-218"/>
<text text-anchor="start" x="214" y="-206" font-family="Roboto" font-size="10.00">Urho3D::Text3D::UpdateText</text>
<text text-anchor="middle" x="276" y="-195" font-family="Roboto" font-size="10.00">Batches</text>
</a>
</g>
</g>
<!-- Node8&#45;&gt;Node9 -->
<g id="edge8" class="edge">
<title>Node8&#45;&gt;Node9</title>
<path fill="none" stroke="#63b8ff" d="M372.42,-203C363.75,-203 354.94,-203 346.35,-203"/>
<polygon fill="#63b8ff" stroke="#63b8ff" points="372.18,-206.5 382.18,-203 372.18,-199.5 372.18,-206.5"/>
</g>
<!-- Node10 -->
<g id="node10" class="node">
<title>Node10</title>
<g id="a_node10"><a xlink:href="class_urho3_d_1_1_text3_d.html#afb163e8eb837396d7578c13ea9224072" target="_top" xlink:title="Apply attribute changes that can not be applied immediately.">
<polygon fill="white" stroke="#666666" points="163.5,-317.5 6.5,-317.5 6.5,-298.5 163.5,-298.5 163.5,-317.5"/>
<text text-anchor="middle" x="85" y="-305.5" font-family="Roboto" font-size="10.00">Urho3D::Text3D::ApplyAttributes</text>
</a>
</g>
</g>
<!-- Node9&#45;&gt;Node10 -->
<g id="edge9" class="edge">
<title>Node9&#45;&gt;Node10</title>
<path fill="none" stroke="#63b8ff" d="M252.86,-226.43C232.99,-246.06 202.09,-273.33 170,-289 162.48,-292.67 154.22,-295.65 145.92,-298.06"/>
<polygon fill="#63b8ff" stroke="#63b8ff" points="255.31,-228.93 259.86,-219.36 250.34,-224 255.31,-228.93"/>
</g>
<!-- Node11 -->
<g id="node11" class="node">
<title>Node11</title>
<g id="a_node11"><a xlink:href="class_urho3_d_1_1_text3_d.html#a08bfb84e885535f73aeefb4181491e3d" target="_top" xlink:title="Recalculate the world&#45;space bounding box.">
<polygon fill="white" stroke="#666666" points="170,-280 0,-280 0,-250 170,-250 170,-280"/>
<text text-anchor="start" x="8" y="-268" font-family="Roboto" font-size="10.00">Urho3D::Text3D::OnWorldBounding</text>
<text text-anchor="middle" x="85" y="-257" font-family="Roboto" font-size="10.00">BoxUpdate</text>
</a>
</g>
</g>
<!-- Node9&#45;&gt;Node11 -->
<g id="edge10" class="edge">
<title>Node9&#45;&gt;Node11</title>
<path fill="none" stroke="#63b8ff" d="M224.01,-222.25C206.93,-228.49 187.72,-235.27 170,-241 161.05,-243.89 151.51,-246.79 142.19,-249.53"/>
<polygon fill="#63b8ff" stroke="#63b8ff" points="224.74,-225.71 232.92,-218.98 222.32,-219.14 224.74,-225.71"/>
</g>
<!-- Node12 -->
<g id="node12" class="node">
<title>Node12</title>
<g id="a_node12"><a xlink:href="class_urho3_d_1_1_text3_d.html#a0e5e82af6713193ee73b60191a2048e0" target="_top" xlink:title=" ">
<polygon fill="#fff0f0" stroke="red" points="149.5,-231.5 20.5,-231.5 20.5,-212.5 149.5,-212.5 149.5,-231.5"/>
<text text-anchor="middle" x="85" y="-219.5" font-family="Roboto" font-size="10.00">Urho3D::Text3D::SetColor</text>
</a>
</g>
</g>
<!-- Node9&#45;&gt;Node12 -->
<g id="edge11" class="edge">
<title>Node9&#45;&gt;Node12</title>
<path fill="none" stroke="#63b8ff" d="M194.45,-211.1C179.59,-212.59 164.25,-214.13 149.96,-215.57"/>
<polygon fill="#63b8ff" stroke="#63b8ff" points="194.59,-214.6 204.19,-210.12 193.89,-207.64 194.59,-214.6"/>
</g>
<!-- Node14 -->
<g id="node13" class="node">
<title>Node14</title>
<g id="a_node13"><a xlink:href="class_urho3_d_1_1_text3_d.html#a6c34a3c420fa1e6c35f4f4662c8248df" target="_top" xlink:title="Set font by looking from resource cache by name and font size. Return true if successful.">
<polygon fill="white" stroke="#666666" points="147,-194.5 23,-194.5 23,-175.5 147,-175.5 147,-194.5"/>
<text text-anchor="middle" x="85" y="-182.5" font-family="Roboto" font-size="10.00">Urho3D::Text3D::SetFont</text>
</a>
</g>
</g>
<!-- Node9&#45;&gt;Node14 -->
<g id="edge12" class="edge">
<title>Node9&#45;&gt;Node14</title>
<path fill="none" stroke="#63b8ff" d="M194.38,-195.32C178.68,-193.83 162.45,-192.28 147.49,-190.86"/>
<polygon fill="#63b8ff" stroke="#63b8ff" points="193.9,-198.79 204.19,-196.26 194.57,-191.82 193.9,-198.79"/>
</g>
<!-- Node15 -->
<g id="node14" class="node">
<title>Node15</title>
<g id="a_node14"><a xlink:href="class_urho3_d_1_1_text3_d.html#ae57645a33f1cefafd9b57908fba27569" target="_top" xlink:title=" ">
<polygon fill="white" stroke="#666666" points="156.5,-157.5 13.5,-157.5 13.5,-138.5 156.5,-138.5 156.5,-157.5"/>
<text text-anchor="middle" x="85" y="-145.5" font-family="Roboto" font-size="10.00">Urho3D::Text3D::SetFontSize</text>
</a>
</g>
</g>
<!-- Node9&#45;&gt;Node15 -->
<g id="edge13" class="edge">
<title>Node9&#45;&gt;Node15</title>
<path fill="none" stroke="#63b8ff" d="M224.62,-183.78C207.44,-177.62 188.02,-171.08 170,-166 159.52,-163.04 148.19,-160.31 137.34,-157.91"/>
<polygon fill="#63b8ff" stroke="#63b8ff" points="222.98,-186.91 233.58,-187.03 225.37,-180.33 222.98,-186.91"/>
</g>
<!-- Node16 -->
<g id="node15" class="node">
<title>Node16</title>
<g id="a_node15"><a xlink:href="class_urho3_d_1_1_text3_d.html#a38405cba1bb3686bea808f0d997116e5" target="_top" xlink:title=" ">
<polygon fill="#fff0f0" stroke="red" points="153.5,-120.5 16.5,-120.5 16.5,-101.5 153.5,-101.5 153.5,-120.5"/>
<text text-anchor="middle" x="85" y="-108.5" font-family="Roboto" font-size="10.00">Urho3D::Text3D::SetOpacity</text>
</a>
</g>
</g>
<!-- Node9&#45;&gt;Node16 -->
<g id="edge14" class="edge">
<title>Node9&#45;&gt;Node16</title>
<path fill="none" stroke="#63b8ff" d="M249.53,-180.58C229.3,-163.93 199.59,-141.95 170,-129 162.62,-125.77 154.62,-123.1 146.58,-120.9"/>
<polygon fill="#63b8ff" stroke="#63b8ff" points="247.06,-183.07 256.96,-186.83 251.56,-177.71 247.06,-183.07"/>
</g>
<!-- Node21 -->
<g id="node18" class="node">
<title>Node21</title>
<g id="a_node18"><a xlink:href="class_urho3_d_1_1_u_i_batch.html#aadd10d72e59d9f8e1001b1b87d0ca40f" target="_top" xlink:title="Add a quad.">
<polygon fill="white" stroke="#666666" points="870,-229.5 734,-229.5 734,-210.5 870,-210.5 870,-229.5"/>
<text text-anchor="middle" x="802" y="-217.5" font-family="Roboto" font-size="10.00">Urho3D::UIBatch::AddQuad</text>
</a>
</g>
</g>
<!-- Node20&#45;&gt;Node21 -->
<g id="edge17" class="edge">
<title>Node20&#45;&gt;Node21</title>
<path fill="none" stroke="#63b8ff" d="M896.2,-224.53C887.45,-224.11 878.7,-223.68 870.25,-223.27"/>
<polygon fill="#63b8ff" stroke="#63b8ff" points="895.99,-228.03 906.15,-225.02 896.33,-221.04 895.99,-228.03"/>
</g>
<!-- Node21&#45;&gt;Node2 -->
<g id="edge20" class="edge">
<title>Node21&#45;&gt;Node2</title>
<path fill="none" stroke="#63b8ff" d="M734.74,-236.35C733.79,-237.19 732.88,-238.07 732,-239 680.11,-293.83 748.54,-350.79 696,-405 692.86,-408.24 689.24,-410.93 685.31,-413.16"/>
<polygon fill="#63b8ff" stroke="#63b8ff" points="736.66,-239.28 742.91,-230.72 732.69,-233.52 736.66,-239.28"/>
</g>
<!-- Node21&#45;&gt;Node3 -->
<g id="edge25" class="edge">
<title>Node21&#45;&gt;Node3</title>
<path fill="none" stroke="#63b8ff" d="M736.7,-235.42C735.06,-236.53 733.49,-237.72 732,-239 702.39,-264.37 724.93,-292.86 696,-319 691.21,-323.33 685.62,-326.88 679.7,-329.79"/>
<polygon fill="#63b8ff" stroke="#63b8ff" points="738.29,-238.53 745.32,-230.61 734.88,-232.42 738.29,-238.53"/>
</g>
<!-- Node21&#45;&gt;Node5 -->
<g id="edge18" class="edge">
<title>Node21&#45;&gt;Node5</title>
<path fill="none" stroke="#63b8ff" d="M740.5,-234.26C737.55,-235.69 734.69,-237.27 732,-239 711.03,-252.48 717.13,-268.77 696,-282 690.87,-285.21 685.19,-287.85 679.35,-290.02"/>
<polygon fill="#63b8ff" stroke="#63b8ff" points="741.57,-237.61 749.42,-230.5 738.85,-231.15 741.57,-237.61"/>
</g>
<!-- Node21&#45;&gt;Node7 -->
<g id="edge19" class="edge">
<title>Node21&#45;&gt;Node7</title>
<path fill="none" stroke="#63b8ff" d="M748.86,-232.67C722.15,-239.16 690.08,-246.95 665.14,-253.01"/>
<polygon fill="#63b8ff" stroke="#63b8ff" points="749.59,-236.09 758.48,-230.33 747.93,-229.29 749.59,-236.09"/>
</g>
<!-- Node21&#45;&gt;Node8 -->
<g id="edge21" class="edge">
<title>Node21&#45;&gt;Node8</title>
<path fill="none" stroke="#63b8ff" d="M722.42,-216.2C659.11,-213.15 571.25,-208.9 512.38,-206.06"/>
<polygon fill="#63b8ff" stroke="#63b8ff" points="721.88,-219.68 732.04,-216.67 722.22,-212.69 721.88,-219.68"/>
</g>
<!-- Node22 -->
<g id="node19" class="node">
<title>Node22</title>
<g id="a_node19"><a xlink:href="class_urho3_d_1_1_u_i_selectable.html#aaa115c0723cfc723c1f714f61e732d74" target="_top" xlink:title="Return UI rendering batches.">
<polygon fill="white" stroke="#666666" points="678,-197 568,-197 568,-167 678,-167 678,-197"/>
<text text-anchor="start" x="576" y="-185" font-family="Roboto" font-size="10.00">Urho3D::UISelectable</text>
<text text-anchor="middle" x="623" y="-174" font-family="Roboto" font-size="10.00">::GetBatches</text>
</a>
</g>
</g>
<!-- Node21&#45;&gt;Node22 -->
<g id="edge22" class="edge">
<title>Node21&#45;&gt;Node22</title>
<path fill="none" stroke="#63b8ff" d="M743.5,-207.66C722.57,-203.16 699,-198.1 678.35,-193.67"/>
<polygon fill="#63b8ff" stroke="#63b8ff" points="742.5,-211.02 753.02,-209.7 743.97,-204.18 742.5,-211.02"/>
</g>
<!-- Node23 -->
<g id="node20" class="node">
<title>Node23</title>
<g id="a_node20"><a xlink:href="class_urho3_d_1_1_window.html#a455bbccbf47246497a114dde4d518098" target="_top" xlink:title="Return UI rendering batches.">
<polygon fill="white" stroke="#666666" points="696,-148.5 550,-148.5 550,-129.5 696,-129.5 696,-148.5"/>
<text text-anchor="middle" x="623" y="-136.5" font-family="Roboto" font-size="10.00">Urho3D::Window::GetBatches</text>
</a>
</g>
</g>
<!-- Node21&#45;&gt;Node23 -->
<g id="edge24" class="edge">
<title>Node21&#45;&gt;Node23</title>
<path fill="none" stroke="#63b8ff" d="M777.56,-203.6C756.9,-189.79 725.58,-170.36 696,-158 687.65,-154.51 678.48,-151.51 669.57,-148.99"/>
<polygon fill="#63b8ff" stroke="#63b8ff" points="775.56,-206.48 785.8,-209.21 779.5,-200.69 775.56,-206.48"/>
</g>
<!-- Node24 -->
<g id="node21" class="node">
<title>Node24</title>
<g id="a_node21"><a xlink:href="class_urho3_d_1_1_u_i_element.html#a25f627ac3b7e4f6319174670b7bb3c59" target="_top" xlink:title="Return UI rendering batches for debug draw.">
<polygon fill="white" stroke="#666666" points="681.5,-111 564.5,-111 564.5,-81 681.5,-81 681.5,-111"/>
<text text-anchor="start" x="572.5" y="-99" font-family="Roboto" font-size="10.00">Urho3D::UIElement::</text>
<text text-anchor="middle" x="623" y="-88" font-family="Roboto" font-size="10.00">GetDebugDrawBatches</text>
</a>
</g>
</g>
<!-- Node21&#45;&gt;Node24 -->
<g id="edge26" class="edge">
<title>Node21&#45;&gt;Node24</title>
<path fill="none" stroke="#63b8ff" d="M781.71,-202.94C767.72,-190.43 748.44,-172.92 732,-157 715.52,-141.04 715.43,-132.2 696,-120 690.87,-116.78 685.25,-113.94 679.5,-111.45"/>
<polygon fill="#63b8ff" stroke="#63b8ff" points="779.13,-205.33 788.93,-209.37 783.79,-200.1 779.13,-205.33"/>
</g>
<!-- Node26 -->
<g id="node23" class="node">
<title>Node26</title>
<g id="a_node23"><a xlink:href="class_urho3_d_1_1_u_i.html#aa007010436204316b3fe4859db32458e" target="_top" xlink:title="Update the UI for rendering. Called by HandleRenderUpdate().">
<polygon fill="white" stroke="#666666" points="689,-24.5 557,-24.5 557,-5.5 689,-5.5 689,-24.5"/>
<text text-anchor="middle" x="623" y="-12.5" font-family="Roboto" font-size="10.00">Urho3D::UI::RenderUpdate</text>
</a>
</g>
</g>
<!-- Node21&#45;&gt;Node26 -->
<g id="edge28" class="edge">
<title>Node21&#45;&gt;Node26</title>
<path fill="none" stroke="#63b8ff" d="M777.92,-203.15C763.24,-191.51 744.68,-174.92 732,-157 708.31,-123.51 720.86,-104.64 696,-72 680.74,-51.96 656.89,-34.94 640.87,-24.85"/>
<polygon fill="#63b8ff" stroke="#63b8ff" points="775.64,-205.82 785.7,-209.14 779.91,-200.27 775.64,-205.82"/>
</g>
<!-- Node22&#45;&gt;Node8 -->
<g id="edge23" class="edge">
<title>Node22&#45;&gt;Node8</title>
<path fill="none" stroke="#63b8ff" d="M556.39,-189.96C541.99,-191.71 526.77,-193.56 512.45,-195.3"/>
<polygon fill="#63b8ff" stroke="#63b8ff" points="556.73,-193.45 566.23,-188.77 555.88,-186.5 556.73,-193.45"/>
</g>
<!-- Node25 -->
<g id="node22" class="node">
<title>Node25</title>
<g id="a_node22"><a xlink:href="class_urho3_d_1_1_u_i.html#ae9abe9e6d8b996feaa7466a47d9e7c0c" target="_top" xlink:title="Debug draw a UI element.">
<polygon fill="white" stroke="#666666" points="507.5,-105.5 388.5,-105.5 388.5,-86.5 507.5,-86.5 507.5,-105.5"/>
<text text-anchor="middle" x="448" y="-93.5" font-family="Roboto" font-size="10.00">Urho3D::UI::DebugDraw</text>
</a>
</g>
</g>
<!-- Node24&#45;&gt;Node25 -->
<g id="edge27" class="edge">
<title>Node24&#45;&gt;Node25</title>
<path fill="none" stroke="#63b8ff" d="M553.11,-96C538.12,-96 522.39,-96 507.83,-96"/>
<polygon fill="#63b8ff" stroke="#63b8ff" points="552.88,-99.5 562.88,-96 552.88,-92.5 552.88,-99.5"/>
</g>
<!-- Node27 -->
<g id="node24" class="node">
<title>Node27</title>
<g id="a_node24"><a xlink:href="class_urho3_d_1_1_u_i.html#a05bd51bad1a135929174fcd7fe5fcf96" target="_top" xlink:title="Handle render update event.">
<polygon fill="#fff0f0" stroke="red" points="514,-30 382,-30 382,0 514,0 514,-30"/>
<text text-anchor="start" x="390" y="-18" font-family="Roboto" font-size="10.00">Urho3D::UI::HandleRender</text>
<text text-anchor="middle" x="448" y="-7" font-family="Roboto" font-size="10.00">Update</text>
</a>
</g>
</g>
<!-- Node26&#45;&gt;Node27 -->
<g id="edge29" class="edge">
<title>Node26&#45;&gt;Node27</title>
<path fill="none" stroke="#63b8ff" d="M545.15,-15C534.92,-15 524.51,-15 514.5,-15"/>
<polygon fill="#63b8ff" stroke="#63b8ff" points="545.08,-18.5 555.08,-15 545.08,-11.5 545.08,-18.5"/>
</g>
<!-- Node31&#45;&gt;Node7 -->
<g id="edge31" class="edge">
<title>Node31&#45;&gt;Node7</title>
<path fill="none" stroke="#63b8ff" d="M777.72,-155.31C740.51,-181.37 668.74,-231.66 638.25,-253.01"/>
<polygon fill="#63b8ff" stroke="#63b8ff" points="779.39,-158.41 785.57,-149.81 775.38,-152.68 779.39,-158.41"/>
</g>
<!-- Node31&#45;&gt;Node8 -->
<g id="edge32" class="edge">
<title>Node31&#45;&gt;Node8</title>
<path fill="none" stroke="#63b8ff" d="M781.73,-121.84C761.86,-105.4 729.18,-81.68 696,-72 633.71,-53.82 608.23,-43.37 550,-72 543.17,-75.36 478.39,-162.99 456.32,-193.02"/>
<polygon fill="#63b8ff" stroke="#63b8ff" points="779.37,-124.43 789.25,-128.26 783.91,-119.1 779.37,-124.43"/>
</g>
<!-- Node31&#45;&gt;Node22 -->
<g id="edge33" class="edge">
<title>Node31&#45;&gt;Node22</title>
<path fill="none" stroke="#63b8ff" d="M749.02,-151.63C726.76,-157.04 700.76,-163.35 678.25,-168.82"/>
<polygon fill="#63b8ff" stroke="#63b8ff" points="749.59,-155.09 758.48,-149.33 747.93,-148.29 749.59,-155.09"/>
</g>
<!-- Node31&#45;&gt;Node23 -->
<g id="edge34" class="edge">
<title>Node31&#45;&gt;Node23</title>
<path fill="none" stroke="#63b8ff" d="M723.65,-139C714.53,-139 705.25,-139 696.2,-139"/>
<polygon fill="#63b8ff" stroke="#63b8ff" points="723.58,-142.5 733.58,-139 723.58,-135.5 723.58,-142.5"/>
</g>
<!-- Node31&#45;&gt;Node24 -->
<g id="edge35" class="edge">
<title>Node31&#45;&gt;Node24</title>
<path fill="none" stroke="#63b8ff" d="M748.96,-126.36C727.91,-121.24 703.53,-115.32 681.93,-110.07"/>
<polygon fill="#63b8ff" stroke="#63b8ff" points="747.93,-129.71 758.48,-128.67 749.59,-122.91 747.93,-129.71"/>
</g>
<!-- Node31&#45;&gt;Node26 -->
<g id="edge36" class="edge">
<title>Node31&#45;&gt;Node26</title>
<path fill="none" stroke="#63b8ff" d="M786.07,-120.48C767.24,-98.23 732.83,-61.15 696,-39 686.29,-33.16 674.98,-28.54 664.24,-24.97"/>
<polygon fill="#63b8ff" stroke="#63b8ff" points="783.33,-122.65 792.4,-128.12 788.72,-118.19 783.33,-122.65"/>
</g>
</g>
</svg>
