<?xml version="1.0" encoding="UTF-8" standalone="no"?>
<!DOCTYPE svg PUBLIC "-//W3C//DTD SVG 1.1//EN"
 "http://www.w3.org/Graphics/SVG/1.1/DTD/svg11.dtd">
<!-- Generated by graphviz version 7.0.3 (0)
 -->
<!-- Title: Urho3D::CollisionShape::SetModel Pages: 1 -->
<svg width="847pt" height="678pt"
 viewBox="0.00 0.00 847.00 678.00" xmlns="http://www.w3.org/2000/svg" xmlns:xlink="http://www.w3.org/1999/xlink">
<g id="graph0" class="graph" transform="scale(1 1) rotate(0) translate(4 674)">
<title>Urho3D::CollisionShape::SetModel</title>
<!-- Node1 -->
<g id="node1" class="node">
<title>Node1</title>
<g id="a_node1"><a xlink:title=" ">
<polygon fill="#999999" stroke="#666666" points="120,-336 0,-336 0,-306 120,-306 120,-336"/>
<text text-anchor="start" x="8" y="-324" font-family="Roboto" font-size="10.00">Urho3D::CollisionShape</text>
<text text-anchor="middle" x="60" y="-313" font-family="Roboto" font-size="10.00">::SetModel</text>
</a>
</g>
</g>
<!-- Node2 -->
<g id="node2" class="node">
<title>Node2</title>
<g id="a_node2"><a xlink:href="class_urho3_d_1_1_component.html#aaf87acb64001774c62f0784254f9b291" target="_top" xlink:title="Mark for attribute check on the next network update.">
<polygon fill="white" stroke="#666666" points="282.5,-272 171.5,-272 171.5,-242 282.5,-242 282.5,-272"/>
<text text-anchor="start" x="179.5" y="-260" font-family="Roboto" font-size="10.00">Urho3D::Component::</text>
<text text-anchor="middle" x="227" y="-249" font-family="Roboto" font-size="10.00">MarkNetworkUpdate</text>
</a>
</g>
</g>
<!-- Node1&#45;&gt;Node2 -->
<g id="edge1" class="edge">
<title>Node1&#45;&gt;Node2</title>
<path fill="none" stroke="#63b8ff" d="M100.94,-305.51C123.36,-296.81 151.54,-285.88 175.48,-276.6"/>
<polygon fill="#63b8ff" stroke="#63b8ff" points="176.67,-279.89 184.73,-273.01 174.14,-273.36 176.67,-279.89"/>
</g>
<!-- Node8 -->
<g id="node8" class="node">
<title>Node8</title>
<g id="a_node8"><a xlink:href="class_urho3_d_1_1_collision_shape.html#a8cfe09cb27ec041dedcd92a69293bcbc" target="_top" xlink:title="Update the new collision shape to the RigidBody.">
<polygon fill="white" stroke="#666666" points="287,-369 167,-369 167,-339 287,-339 287,-369"/>
<text text-anchor="start" x="175" y="-357" font-family="Roboto" font-size="10.00">Urho3D::CollisionShape</text>
<text text-anchor="middle" x="227" y="-346" font-family="Roboto" font-size="10.00">::NotifyRigidBody</text>
</a>
</g>
</g>
<!-- Node1&#45;&gt;Node8 -->
<g id="edge8" class="edge">
<title>Node1&#45;&gt;Node8</title>
<path fill="none" stroke="#63b8ff" d="M120.1,-332.82C131.6,-335.12 143.75,-337.55 155.56,-339.91"/>
<polygon fill="#63b8ff" stroke="#63b8ff" points="154.78,-343.33 165.27,-341.85 156.15,-336.46 154.78,-343.33"/>
</g>
<!-- Node14 -->
<g id="node14" class="node">
<title>Node14</title>
<g id="a_node14"><a xlink:href="class_urho3_d_1_1_object.html#a153b96c4397e045b2ca2b2d5471d097c" target="_top" xlink:title="Unsubscribe from an event.">
<polygon fill="white" stroke="#666666" points="298,-102 156,-102 156,-72 298,-72 298,-102"/>
<text text-anchor="start" x="164" y="-90" font-family="Roboto" font-size="10.00">Urho3D::Object::Unsubscribe</text>
<text text-anchor="middle" x="227" y="-79" font-family="Roboto" font-size="10.00">FromEvent</text>
</a>
</g>
</g>
<!-- Node1&#45;&gt;Node14 -->
<g id="edge14" class="edge">
<title>Node1&#45;&gt;Node14</title>
<path fill="none" stroke="#63b8ff" d="M71.83,-305.65C99.8,-265.98 174.65,-159.82 208.71,-111.53"/>
<polygon fill="#63b8ff" stroke="#63b8ff" points="211.36,-113.84 214.26,-103.65 205.64,-109.8 211.36,-113.84"/>
</g>
<!-- Node29 -->
<g id="node20" class="node">
<title>Node29</title>
<g id="a_node20"><a xlink:href="class_urho3_d_1_1_collision_shape.html#a5ecb900b219e57ddf9696a1fb194f33a" target="_top" xlink:title="Update the collision shape after attribute changes.">
<polygon fill="white" stroke="#666666" points="287,-536 167,-536 167,-506 287,-506 287,-536"/>
<text text-anchor="start" x="175" y="-524" font-family="Roboto" font-size="10.00">Urho3D::CollisionShape</text>
<text text-anchor="middle" x="227" y="-513" font-family="Roboto" font-size="10.00">::UpdateShape</text>
</a>
</g>
</g>
<!-- Node1&#45;&gt;Node29 -->
<g id="edge20" class="edge">
<title>Node1&#45;&gt;Node29</title>
<path fill="none" stroke="#63b8ff" d="M73.67,-336.36C102.23,-370.97 171.77,-455.27 206.13,-496.91"/>
<polygon fill="#63b8ff" stroke="#63b8ff" points="203.26,-498.93 212.32,-504.42 208.66,-494.48 203.26,-498.93"/>
</g>
<!-- Node3 -->
<g id="node3" class="node">
<title>Node3</title>
<g id="a_node3"><a xlink:href="class_urho3_d_1_1_component.html#a2c22f727341671a0420934f249ffe059" target="_top" xlink:title="Return the scene the node belongs to.">
<polygon fill="white" stroke="#666666" points="657.5,-510 546.5,-510 546.5,-480 657.5,-480 657.5,-510"/>
<text text-anchor="start" x="554.5" y="-498" font-family="Roboto" font-size="10.00">Urho3D::Component::</text>
<text text-anchor="middle" x="602" y="-487" font-family="Roboto" font-size="10.00">GetScene</text>
</a>
</g>
</g>
<!-- Node2&#45;&gt;Node3 -->
<g id="edge2" class="edge">
<title>Node2&#45;&gt;Node3</title>
<path fill="none" stroke="#63b8ff" d="M261.91,-272.32C314.41,-297.03 417.02,-349.28 491,-412 510.01,-428.12 507.69,-439.24 527,-455 535.82,-462.2 546.14,-468.73 556.22,-474.33"/>
<polygon fill="#63b8ff" stroke="#63b8ff" points="554.35,-477.29 564.82,-478.89 557.63,-471.11 554.35,-477.29"/>
</g>
<!-- Node5 -->
<g id="node5" class="node">
<title>Node5</title>
<g id="a_node5"><a xlink:href="class_urho3_d_1_1_component.html#a8f1388c232ca01b7c7328c761aae6e76" target="_top" xlink:title=" ">
<polygon fill="white" stroke="#666666" points="468,-240 357,-240 357,-210 468,-210 468,-240"/>
<text text-anchor="start" x="365" y="-228" font-family="Roboto" font-size="10.00">Urho3D::Component::</text>
<text text-anchor="middle" x="412.5" y="-217" font-family="Roboto" font-size="10.00">IsReplicated</text>
</a>
</g>
</g>
<!-- Node2&#45;&gt;Node5 -->
<g id="edge4" class="edge">
<title>Node2&#45;&gt;Node5</title>
<path fill="none" stroke="#63b8ff" d="M282.56,-247.49C302.26,-244.05 324.71,-240.13 345.3,-236.54"/>
<polygon fill="#63b8ff" stroke="#63b8ff" points="345.78,-240.01 355.03,-234.85 344.57,-233.12 345.78,-240.01"/>
</g>
<!-- Node7 -->
<g id="node7" class="node">
<title>Node7</title>
<g id="a_node7"><a xlink:href="class_urho3_d_1_1_scene.html#a00b724dfff718639b9de12d71139499c" target="_top" xlink:title="Mark for attribute check on the next network update.">
<polygon fill="white" stroke="#666666" points="486.5,-174 338.5,-174 338.5,-144 486.5,-144 486.5,-174"/>
<text text-anchor="start" x="346.5" y="-162" font-family="Roboto" font-size="10.00">Urho3D::Scene::MarkNetwork</text>
<text text-anchor="middle" x="412.5" y="-151" font-family="Roboto" font-size="10.00">Update</text>
</a>
</g>
</g>
<!-- Node2&#45;&gt;Node7 -->
<g id="edge6" class="edge">
<title>Node2&#45;&gt;Node7</title>
<path fill="none" stroke="#63b8ff" d="M256.67,-241.69C287.96,-224.98 338.2,-198.14 372.93,-179.6"/>
<polygon fill="#63b8ff" stroke="#63b8ff" points="374.22,-182.88 381.39,-175.08 370.92,-176.7 374.22,-182.88"/>
</g>
<!-- Node4 -->
<g id="node4" class="node">
<title>Node4</title>
<g id="a_node4"><a xlink:href="class_urho3_d_1_1_node.html#ad3742cda838a2b291daa44d3ab00de56" target="_top" xlink:title=" ">
<polygon fill="white" stroke="#666666" points="839,-504.5 713,-504.5 713,-485.5 839,-485.5 839,-504.5"/>
<text text-anchor="middle" x="776" y="-492.5" font-family="Roboto" font-size="10.00">Urho3D::Node::GetScene</text>
</a>
</g>
</g>
<!-- Node3&#45;&gt;Node4 -->
<g id="edge3" class="edge">
<title>Node3&#45;&gt;Node4</title>
<path fill="none" stroke="#63b8ff" d="M657.89,-495C671.63,-495 686.58,-495 701.07,-495"/>
<polygon fill="#63b8ff" stroke="#63b8ff" points="701.04,-498.5 711.04,-495 701.04,-491.5 701.04,-498.5"/>
</g>
<!-- Node6 -->
<g id="node6" class="node">
<title>Node6</title>
<g id="a_node6"><a xlink:href="class_urho3_d_1_1_scene.html#a97fb1222bd2f38e6c1c433c0b7e54d40" target="_top" xlink:title="Return whether the specified id is a replicated id.">
<polygon fill="white" stroke="#666666" points="677,-234.5 527,-234.5 527,-215.5 677,-215.5 677,-234.5"/>
<text text-anchor="middle" x="602" y="-222.5" font-family="Roboto" font-size="10.00">Urho3D::Scene::IsReplicatedID</text>
</a>
</g>
</g>
<!-- Node5&#45;&gt;Node6 -->
<g id="edge5" class="edge">
<title>Node5&#45;&gt;Node6</title>
<path fill="none" stroke="#63b8ff" d="M468.49,-225C483.1,-225 499.23,-225 515.06,-225"/>
<polygon fill="#63b8ff" stroke="#63b8ff" points="515,-228.5 525,-225 515,-221.5 515,-228.5"/>
</g>
<!-- Node7&#45;&gt;Node7 -->
<g id="edge7" class="edge">
<title>Node7&#45;&gt;Node7</title>
<path fill="none" stroke="#63b8ff" d="M379.89,-174.28C372.65,-183.41 383.52,-192 412.5,-192 428.35,-192 438.78,-189.43 443.8,-185.61"/>
<polygon fill="#63b8ff" stroke="#63b8ff" points="447.26,-186.11 444.93,-175.78 440.31,-185.31 447.26,-186.11"/>
</g>
<!-- Node9 -->
<g id="node9" class="node">
<title>Node9</title>
<g id="a_node9"><a xlink:href="class_urho3_d_1_1_unique_ptr.html#a0a3ac051f536377b767fb97eabc203f5" target="_top" xlink:title="Return the raw pointer.">
<polygon fill="white" stroke="#666666" points="661.5,-380.5 542.5,-380.5 542.5,-361.5 661.5,-361.5 661.5,-380.5"/>
<text text-anchor="middle" x="602" y="-368.5" font-family="Roboto" font-size="10.00">Urho3D::UniquePtr::Get</text>
</a>
</g>
</g>
<!-- Node8&#45;&gt;Node9 -->
<g id="edge9" class="edge">
<title>Node8&#45;&gt;Node9</title>
<path fill="none" stroke="#63b8ff" d="M287.1,-356.69C353.26,-359.71 460.4,-364.59 530.77,-367.8"/>
<polygon fill="#63b8ff" stroke="#63b8ff" points="530.51,-371.29 540.66,-368.25 530.83,-364.3 530.51,-371.29"/>
</g>
<!-- Node10 -->
<g id="node10" class="node">
<title>Node10</title>
<g id="a_node10"><a xlink:href="class_urho3_d_1_1_collision_shape.html#ab1f08f05ff8c76e97b03d6d9a94baf7e" target="_top" xlink:title="Find the parent rigid body component and return its compound collision shape.">
<polygon fill="white" stroke="#666666" points="672,-446 532,-446 532,-416 672,-416 672,-446"/>
<text text-anchor="start" x="540" y="-434" font-family="Roboto" font-size="10.00">Urho3D::CollisionShape</text>
<text text-anchor="middle" x="602" y="-423" font-family="Roboto" font-size="10.00">::GetParentCompoundShape</text>
</a>
</g>
</g>
<!-- Node8&#45;&gt;Node10 -->
<g id="edge10" class="edge">
<title>Node8&#45;&gt;Node10</title>
<path fill="none" stroke="#63b8ff" d="M287.42,-366.35C302.61,-369.5 318.91,-372.88 334,-376 396.63,-388.95 467.54,-403.55 520.54,-414.46"/>
<polygon fill="#63b8ff" stroke="#63b8ff" points="519.58,-417.83 530.08,-416.42 520.99,-410.98 519.58,-417.83"/>
</g>
<!-- Node11 -->
<g id="node11" class="node">
<title>Node11</title>
<g id="a_node11"><a xlink:href="class_urho3_d_1_1_node.html#a8ae450b752efd7da057b842882d28a23" target="_top" xlink:title=" ">
<polygon fill="white" stroke="#666666" points="487.5,-439.5 337.5,-439.5 337.5,-420.5 487.5,-420.5 487.5,-439.5"/>
<text text-anchor="middle" x="412.5" y="-427.5" font-family="Roboto" font-size="10.00">Urho3D::Node::GetWorldScale</text>
</a>
</g>
</g>
<!-- Node8&#45;&gt;Node11 -->
<g id="edge11" class="edge">
<title>Node8&#45;&gt;Node11</title>
<path fill="none" stroke="#63b8ff" d="M256.25,-369.36C277.29,-380.43 306.95,-395.25 334,-406 343.71,-409.86 354.3,-413.49 364.44,-416.71"/>
<polygon fill="#63b8ff" stroke="#63b8ff" points="363.18,-419.99 373.76,-419.59 365.24,-413.3 363.18,-419.99"/>
</g>
<!-- Node12 -->
<g id="node12" class="node">
<title>Node12</title>
<g id="a_node12"><a xlink:href="class_urho3_d_1_1_component.html#aafa7952d0f225edde3387da0c91a9356" target="_top" xlink:title=" ">
<polygon fill="white" stroke="#666666" points="468,-288 357,-288 357,-258 468,-258 468,-288"/>
<text text-anchor="start" x="365" y="-276" font-family="Roboto" font-size="10.00">Urho3D::Component::</text>
<text text-anchor="middle" x="412.5" y="-265" font-family="Roboto" font-size="10.00">IsEnabledEffective</text>
</a>
</g>
</g>
<!-- Node8&#45;&gt;Node12 -->
<g id="edge12" class="edge">
<title>Node8&#45;&gt;Node12</title>
<path fill="none" stroke="#63b8ff" d="M262.95,-338.57C292.28,-325.62 334.39,-307.04 366.29,-292.96"/>
<polygon fill="#63b8ff" stroke="#63b8ff" points="367.56,-296.22 375.3,-288.98 364.74,-289.82 367.56,-296.22"/>
</g>
<!-- Node13 -->
<g id="node13" class="node">
<title>Node13</title>
<g id="a_node13"><a xlink:href="class_urho3_d_1_1_node.html#a36ffa108037ab29617bf178fcb4ec1da" target="_top" xlink:title=" ">
<polygon fill="white" stroke="#666666" points="666,-282.5 538,-282.5 538,-263.5 666,-263.5 666,-282.5"/>
<text text-anchor="middle" x="602" y="-270.5" font-family="Roboto" font-size="10.00">Urho3D::Node::IsEnabled</text>
</a>
</g>
</g>
<!-- Node12&#45;&gt;Node13 -->
<g id="edge13" class="edge">
<title>Node12&#45;&gt;Node13</title>
<path fill="none" stroke="#63b8ff" d="M468.49,-273C486.65,-273 507.16,-273 526.52,-273"/>
<polygon fill="#63b8ff" stroke="#63b8ff" points="526.25,-276.5 536.25,-273 526.25,-269.5 526.25,-276.5"/>
</g>
<!-- Node15 -->
<g id="node15" class="node">
<title>Node15</title>
<g id="a_node15"><a xlink:href="class_urho3_d_1_1_object.html#a00bec56f305dd6636d186e5b351d0264" target="_top" xlink:title="Find the first event handler with no specific sender.">
<polygon fill="white" stroke="#666666" points="477,-126 348,-126 348,-96 477,-96 477,-126"/>
<text text-anchor="start" x="356" y="-114" font-family="Roboto" font-size="10.00">Urho3D::Object::FindEvent</text>
<text text-anchor="middle" x="412.5" y="-103" font-family="Roboto" font-size="10.00">Handler</text>
</a>
</g>
</g>
<!-- Node14&#45;&gt;Node15 -->
<g id="edge15" class="edge">
<title>Node14&#45;&gt;Node15</title>
<path fill="none" stroke="#63b8ff" d="M298.42,-96.21C310.8,-97.83 323.73,-99.52 336.24,-101.16"/>
<polygon fill="#63b8ff" stroke="#63b8ff" points="335.71,-104.62 346.08,-102.44 336.62,-97.68 335.71,-104.62"/>
</g>
<!-- Node17 -->
<g id="node17" class="node">
<title>Node17</title>
<g id="a_node17"><a xlink:href="class_urho3_d_1_1_event_handler.html#a18d3379ef44dac87304f2b118e36c83e" target="_top" xlink:title="Return event sender. Null if the handler is non&#45;specific.">
<polygon fill="white" stroke="#666666" points="469,-78 356,-78 356,-48 469,-48 469,-78"/>
<text text-anchor="start" x="364" y="-66" font-family="Roboto" font-size="10.00">Urho3D::EventHandler</text>
<text text-anchor="middle" x="412.5" y="-55" font-family="Roboto" font-size="10.00">::GetSender</text>
</a>
</g>
</g>
<!-- Node14&#45;&gt;Node17 -->
<g id="edge17" class="edge">
<title>Node14&#45;&gt;Node17</title>
<path fill="none" stroke="#63b8ff" d="M298.42,-77.79C313.48,-75.82 329.35,-73.74 344.29,-71.79"/>
<polygon fill="#63b8ff" stroke="#63b8ff" points="344.54,-75.29 354,-70.52 343.63,-68.35 344.54,-75.29"/>
</g>
<!-- Node18 -->
<g id="node18" class="node">
<title>Node18</title>
<g id="a_node18"><a xlink:href="class_urho3_d_1_1_context.html#a7b5bd076e695054df7930255c3eee18b" target="_top" xlink:title="Remove event receiver from specific events.">
<polygon fill="#fff0f0" stroke="red" points="489,-30 336,-30 336,0 489,0 489,-30"/>
<text text-anchor="start" x="344" y="-18" font-family="Roboto" font-size="10.00">Urho3D::Context::RemoveEvent</text>
<text text-anchor="middle" x="412.5" y="-7" font-family="Roboto" font-size="10.00">Receiver</text>
</a>
</g>
</g>
<!-- Node14&#45;&gt;Node18 -->
<g id="edge18" class="edge">
<title>Node14&#45;&gt;Node18</title>
<path fill="none" stroke="#63b8ff" d="M259.11,-71.67C280,-61.69 308.31,-48.75 334,-39 338.57,-37.27 343.32,-35.56 348.12,-33.91"/>
<polygon fill="#63b8ff" stroke="#63b8ff" points="348.86,-37.36 357.23,-30.87 346.64,-30.72 348.86,-37.36"/>
</g>
<!-- Node16 -->
<g id="node16" class="node">
<title>Node16</title>
<g id="a_node16"><a xlink:href="class_urho3_d_1_1_event_handler.html#ae09d06f06d3590e6f4e06006efa90176" target="_top" xlink:title="Return event type.">
<polygon fill="white" stroke="#666666" points="658.5,-126 545.5,-126 545.5,-96 658.5,-96 658.5,-126"/>
<text text-anchor="start" x="553.5" y="-114" font-family="Roboto" font-size="10.00">Urho3D::EventHandler</text>
<text text-anchor="middle" x="602" y="-103" font-family="Roboto" font-size="10.00">::GetEventType</text>
</a>
</g>
</g>
<!-- Node15&#45;&gt;Node16 -->
<g id="edge16" class="edge">
<title>Node15&#45;&gt;Node16</title>
<path fill="none" stroke="#63b8ff" d="M477.24,-111C495.53,-111 515.52,-111 533.99,-111"/>
<polygon fill="#63b8ff" stroke="#63b8ff" points="533.76,-114.5 543.76,-111 533.76,-107.5 533.76,-114.5"/>
</g>
<!-- Node19 -->
<g id="node19" class="node">
<title>Node19</title>
<g id="a_node19"><a xlink:href="class_urho3_d_1_1_context.html#a1b685db14efe388bbf40ec5c27bab7eb" target="_top" xlink:title="Return event receivers for a sender and event type, or null if they do not exist.">
<polygon fill="#fff0f0" stroke="red" points="668,-30 536,-30 536,0 668,0 668,-30"/>
<text text-anchor="start" x="544" y="-18" font-family="Roboto" font-size="10.00">Urho3D::Context::GetEvent</text>
<text text-anchor="middle" x="602" y="-7" font-family="Roboto" font-size="10.00">Receivers</text>
</a>
</g>
</g>
<!-- Node18&#45;&gt;Node19 -->
<g id="edge19" class="edge">
<title>Node18&#45;&gt;Node19</title>
<path fill="none" stroke="#63b8ff" d="M489.49,-15C500.99,-15 512.86,-15 524.37,-15"/>
<polygon fill="#63b8ff" stroke="#63b8ff" points="524.22,-18.5 534.22,-15 524.22,-11.5 524.22,-18.5"/>
</g>
<!-- Node29&#45;&gt;Node11 -->
<g id="edge22" class="edge">
<title>Node29&#45;&gt;Node11</title>
<path fill="none" stroke="#63b8ff" d="M246.31,-505.53C266.54,-489.21 300.66,-463.83 334,-449 338.81,-446.86 343.9,-444.94 349.08,-443.21"/>
<polygon fill="#63b8ff" stroke="#63b8ff" points="349.79,-446.66 358.33,-440.39 347.75,-439.96 349.79,-446.66"/>
</g>
<!-- Node30 -->
<g id="node21" class="node">
<title>Node30</title>
<g id="a_node21"><a xlink:href="class_urho3_d_1_1_vector3.html#a6b5f7e4dcec16c52e21e7dbf0a3cff15" target="_top" xlink:title="Return absolute vector.">
<polygon fill="#fff0f0" stroke="red" points="657.5,-555.5 546.5,-555.5 546.5,-536.5 657.5,-536.5 657.5,-555.5"/>
<text text-anchor="middle" x="602" y="-543.5" font-family="Roboto" font-size="10.00">Urho3D::Vector3::Abs</text>
</a>
</g>
</g>
<!-- Node29&#45;&gt;Node30 -->
<g id="edge21" class="edge">
<title>Node29&#45;&gt;Node30</title>
<path fill="none" stroke="#63b8ff" d="M234.94,-536.13C248.95,-564.58 283.61,-625.3 334,-649 397.14,-678.69 426.1,-674.64 491,-649 533.77,-632.1 569.67,-589.85 587.97,-565.02"/>
<polygon fill="#63b8ff" stroke="#63b8ff" points="590.66,-567.27 593.62,-557.1 584.96,-563.21 590.66,-567.27"/>
</g>
<!-- Node32 -->
<g id="node22" class="node">
<title>Node32</title>
<g id="a_node22"><a xlink:href="_math_defs_8h.html#a8096c22c3716e172f685af2a5f5e26bb" target="_top" xlink:title=" ">
<polygon fill="white" stroke="#666666" points="449.5,-621.5 375.5,-621.5 375.5,-602.5 449.5,-602.5 449.5,-621.5"/>
<text text-anchor="middle" x="412.5" y="-609.5" font-family="Roboto" font-size="10.00">Urho3D::Max</text>
</a>
</g>
</g>
<!-- Node29&#45;&gt;Node32 -->
<g id="edge23" class="edge">
<title>Node29&#45;&gt;Node32</title>
<path fill="none" stroke="#63b8ff" d="M246.31,-536.47C266.54,-552.79 300.66,-578.17 334,-593 343.48,-597.22 354.05,-600.59 364.26,-603.26"/>
<polygon fill="#63b8ff" stroke="#63b8ff" points="363.11,-606.58 373.65,-605.53 364.75,-599.78 363.11,-606.58"/>
</g>
<!-- Node33 -->
<g id="node23" class="node">
<title>Node33</title>
<g id="a_node23"><a xlink:href="class_urho3_d_1_1_collision_shape.html#ae8711104bc670ce7d5ec44ee687c5986" target="_top" xlink:title="Release the collision shape.">
<polygon fill="#fff0f0" stroke="red" points="472.5,-488 352.5,-488 352.5,-458 472.5,-458 472.5,-488"/>
<text text-anchor="start" x="360.5" y="-476" font-family="Roboto" font-size="10.00">Urho3D::CollisionShape</text>
<text text-anchor="middle" x="412.5" y="-465" font-family="Roboto" font-size="10.00">::ReleaseShape</text>
</a>
</g>
</g>
<!-- Node29&#45;&gt;Node33 -->
<g id="edge25" class="edge">
<title>Node29&#45;&gt;Node33</title>
<path fill="none" stroke="#63b8ff" d="M287.07,-505.55C304.42,-501.01 323.57,-496 341.53,-491.3"/>
<polygon fill="#63b8ff" stroke="#63b8ff" points="342.29,-494.72 351.08,-488.81 340.52,-487.95 342.29,-494.72"/>
</g>
<!-- Node35 -->
<g id="node24" class="node">
<title>Node35</title>
<g id="a_node24"><a xlink:href="class_urho3_d_1_1_collision_shape.html#a02029eaf22f387547af8d3cdbe430323" target="_top" xlink:title="Update cached geometry collision shape.">
<polygon fill="#fff0f0" stroke="red" points="491,-536 334,-536 334,-506 491,-506 491,-536"/>
<text text-anchor="start" x="342" y="-524" font-family="Roboto" font-size="10.00">Urho3D::CollisionShape</text>
<text text-anchor="middle" x="412.5" y="-513" font-family="Roboto" font-size="10.00">::UpdateCachedGeometryShape</text>
</a>
</g>
</g>
<!-- Node29&#45;&gt;Node35 -->
<g id="edge28" class="edge">
<title>Node29&#45;&gt;Node35</title>
<path fill="none" stroke="#63b8ff" d="M287.32,-521C298.51,-521 310.44,-521 322.31,-521"/>
<polygon fill="#63b8ff" stroke="#63b8ff" points="322.13,-524.5 332.13,-521 322.13,-517.5 322.13,-524.5"/>
</g>
<!-- Node42 -->
<g id="node25" class="node">
<title>Node42</title>
<g id="a_node25"><a xlink:href="class_urho3_d_1_1_collision_shape.html#a41c97935a817938bf566419da49581e7" target="_top" xlink:title=" ">
<polygon fill="white" stroke="#666666" points="472.5,-584 352.5,-584 352.5,-554 472.5,-554 472.5,-584"/>
<text text-anchor="start" x="360.5" y="-572" font-family="Roboto" font-size="10.00">Urho3D::CollisionShape</text>
<text text-anchor="middle" x="412.5" y="-561" font-family="Roboto" font-size="10.00">::UpdateDerivedShape</text>
</a>
</g>
</g>
<!-- Node29&#45;&gt;Node42 -->
<g id="edge31" class="edge">
<title>Node29&#45;&gt;Node42</title>
<path fill="none" stroke="#63b8ff" d="M287.07,-536.45C304.42,-540.99 323.57,-546 341.53,-550.7"/>
<polygon fill="#63b8ff" stroke="#63b8ff" points="340.52,-554.05 351.08,-553.19 342.29,-547.28 340.52,-554.05"/>
</g>
<!-- Node32&#45;&gt;Node32 -->
<g id="edge24" class="edge">
<title>Node32&#45;&gt;Node32</title>
<path fill="none" stroke="#63b8ff" d="M383.46,-621.87C370.21,-630.44 379.89,-639.5 412.5,-639.5 431.35,-639.5 442.54,-636.47 446.06,-632.26"/>
<polygon fill="#63b8ff" stroke="#63b8ff" points="449.35,-631.03 442.15,-623.26 442.93,-633.82 449.35,-631.03"/>
</g>
<!-- Node33&#45;&gt;Node9 -->
<g id="edge26" class="edge">
<title>Node33&#45;&gt;Node9</title>
<path fill="none" stroke="#63b8ff" d="M472.66,-458.57C479.09,-455.88 485.35,-452.71 491,-449 511.55,-435.5 507.54,-422.02 527,-407 538.02,-398.49 551.37,-391.24 563.69,-385.53"/>
<polygon fill="#63b8ff" stroke="#63b8ff" points="565.04,-388.76 572.77,-381.52 562.21,-382.36 565.04,-388.76"/>
</g>
<!-- Node33&#45;&gt;Node10 -->
<g id="edge27" class="edge">
<title>Node33&#45;&gt;Node10</title>
<path fill="none" stroke="#63b8ff" d="M472.83,-459.71C488.08,-456.29 504.75,-452.56 520.87,-448.95"/>
<polygon fill="#63b8ff" stroke="#63b8ff" points="521.44,-452.41 530.44,-446.81 519.91,-445.58 521.44,-452.41"/>
</g>
<!-- Node35&#45;&gt;Node3 -->
<g id="edge30" class="edge">
<title>Node35&#45;&gt;Node3</title>
<path fill="none" stroke="#63b8ff" d="M491.39,-510.2C505.92,-508.18 520.97,-506.1 535.09,-504.14"/>
<polygon fill="#63b8ff" stroke="#63b8ff" points="535.27,-507.65 544.7,-502.81 534.31,-500.71 535.27,-507.65"/>
</g>
<!-- Node35&#45;&gt;Node30 -->
<g id="edge29" class="edge">
<title>Node35&#45;&gt;Node30</title>
<path fill="none" stroke="#63b8ff" d="M491.39,-531.39C505.92,-533.32 520.97,-535.33 535.09,-537.21"/>
<polygon fill="#63b8ff" stroke="#63b8ff" points="534.32,-540.64 544.69,-538.49 535.25,-533.7 534.32,-540.64"/>
</g>
</g>
</svg>
