<?xml version="1.0" encoding="UTF-8" standalone="no"?>
<!DOCTYPE svg PUBLIC "-//W3C//DTD SVG 1.1//EN"
 "http://www.w3.org/Graphics/SVG/1.1/DTD/svg11.dtd">
<!-- Generated by graphviz version 7.0.3 (0)
 -->
<!-- Title: Urho3D::Texture::SetNumLevels Pages: 1 -->
<svg width="356pt" height="220pt"
 viewBox="0.00 0.00 356.00 219.50" xmlns="http://www.w3.org/2000/svg" xmlns:xlink="http://www.w3.org/1999/xlink">
<g id="graph0" class="graph" transform="scale(1 1) rotate(0) translate(4 215.5)">
<title>Urho3D::Texture::SetNumLevels</title>
<!-- Node1 -->
<g id="node1" class="node">
<title>Node1</title>
<g id="a_node1"><a xlink:title="Set number of requested mip levels. Needs to be called before setting size.">
<polygon fill="#999999" stroke="#666666" points="348,-110 193,-110 193,-91 348,-91 348,-110"/>
<text text-anchor="middle" x="270.5" y="-98" font-family="Roboto" font-size="10.00">Urho3D::Texture::SetNumLevels</text>
</a>
</g>
</g>
<!-- Node2 -->
<g id="node2" class="node">
<title>Node2</title>
<g id="a_node2"><a xlink:href="class_urho3_d_1_1_texture_cube.html#a40f3c72a68d864e9d0e57d35491f9934" target="_top" xlink:title="Set data of one face from an image. Return true if successful. Optionally make a single channel image...">
<polygon fill="white" stroke="#666666" points="133.5,-211.5 23.5,-211.5 23.5,-181.5 133.5,-181.5 133.5,-211.5"/>
<text text-anchor="start" x="31.5" y="-199.5" font-family="Roboto" font-size="10.00">Urho3D::TextureCube</text>
<text text-anchor="middle" x="78.5" y="-188.5" font-family="Roboto" font-size="10.00">::SetData</text>
</a>
</g>
</g>
<!-- Node1&#45;&gt;Node2 -->
<g id="edge1" class="edge">
<title>Node1&#45;&gt;Node2</title>
<path fill="none" stroke="#63b8ff" d="M247.56,-117.08C225.6,-133.05 190.38,-157 157,-172.5 149.72,-175.88 141.84,-178.95 133.98,-181.67"/>
<polygon fill="#63b8ff" stroke="#63b8ff" points="249.48,-120.02 255.44,-111.26 245.32,-114.38 249.48,-120.02"/>
</g>
<!-- Node3 -->
<g id="node3" class="node">
<title>Node3</title>
<g id="a_node3"><a xlink:href="class_urho3_d_1_1_texture2_d.html#ab49167ad05742f9610fd938c2f9f29ce" target="_top" xlink:title="Set data from an image. Return true if successful. Optionally make a single channel image alpha&#45;only.">
<polygon fill="white" stroke="#666666" points="130.5,-163.5 26.5,-163.5 26.5,-133.5 130.5,-133.5 130.5,-163.5"/>
<text text-anchor="start" x="34.5" y="-151.5" font-family="Roboto" font-size="10.00">Urho3D::Texture2D::</text>
<text text-anchor="middle" x="78.5" y="-140.5" font-family="Roboto" font-size="10.00">SetData</text>
</a>
</g>
</g>
<!-- Node1&#45;&gt;Node3 -->
<g id="edge2" class="edge">
<title>Node1&#45;&gt;Node3</title>
<path fill="none" stroke="#63b8ff" d="M219.24,-113.2C191.92,-120.1 158.2,-128.62 130.73,-135.56"/>
<polygon fill="#63b8ff" stroke="#63b8ff" points="219.83,-116.66 228.66,-110.82 218.11,-109.87 219.83,-116.66"/>
</g>
<!-- Node4 -->
<g id="node4" class="node">
<title>Node4</title>
<g id="a_node4"><a xlink:href="class_urho3_d_1_1_texture3_d.html#adc338a79d4dbbb51605bf14a252135a3" target="_top" xlink:title="Set data from an image. Return true if successful. Optionally make a single channel image alpha&#45;only.">
<polygon fill="white" stroke="#666666" points="130.5,-115.5 26.5,-115.5 26.5,-85.5 130.5,-85.5 130.5,-115.5"/>
<text text-anchor="start" x="34.5" y="-103.5" font-family="Roboto" font-size="10.00">Urho3D::Texture3D::</text>
<text text-anchor="middle" x="78.5" y="-92.5" font-family="Roboto" font-size="10.00">SetData</text>
</a>
</g>
</g>
<!-- Node1&#45;&gt;Node4 -->
<g id="edge3" class="edge">
<title>Node1&#45;&gt;Node4</title>
<path fill="none" stroke="#63b8ff" d="M181.46,-100.5C164.15,-100.5 146.52,-100.5 130.91,-100.5"/>
<polygon fill="#63b8ff" stroke="#63b8ff" points="181.25,-104 191.25,-100.5 181.25,-97 181.25,-104"/>
</g>
<!-- Node5 -->
<g id="node5" class="node">
<title>Node5</title>
<g id="a_node5"><a xlink:href="class_urho3_d_1_1_texture2_d_array.html#a6bf5a1b684ec0d37ea5e81e0f2d7dd84" target="_top" xlink:title="Set data of one layer from an image. Return true if successful. Optionally make a single channel imag...">
<polygon fill="white" stroke="#666666" points="139.5,-67.5 17.5,-67.5 17.5,-37.5 139.5,-37.5 139.5,-67.5"/>
<text text-anchor="start" x="25.5" y="-55.5" font-family="Roboto" font-size="10.00">Urho3D::Texture2DArray</text>
<text text-anchor="middle" x="78.5" y="-44.5" font-family="Roboto" font-size="10.00">::SetData</text>
</a>
</g>
</g>
<!-- Node1&#45;&gt;Node5 -->
<g id="edge4" class="edge">
<title>Node1&#45;&gt;Node5</title>
<path fill="none" stroke="#63b8ff" d="M218.98,-87.74C194.65,-81.59 165.28,-74.17 139.78,-67.73"/>
<polygon fill="#63b8ff" stroke="#63b8ff" points="218.11,-91.13 228.66,-90.18 219.83,-84.34 218.11,-91.13"/>
</g>
<!-- Node6 -->
<g id="node6" class="node">
<title>Node6</title>
<g id="a_node6"><a xlink:href="class_urho3_d_1_1_texture.html#aee2915774cd960588e9dcdb3e213ff33" target="_top" xlink:title="Set additional parameters from an XML element.">
<polygon fill="white" stroke="#666666" points="157,-19 0,-19 0,0 157,0 157,-19"/>
<text text-anchor="middle" x="78.5" y="-7" font-family="Roboto" font-size="10.00">Urho3D::Texture::SetParameters</text>
</a>
</g>
</g>
<!-- Node1&#45;&gt;Node6 -->
<g id="edge5" class="edge">
<title>Node1&#45;&gt;Node6</title>
<path fill="none" stroke="#63b8ff" d="M248.11,-83.75C226.33,-67.45 191.01,-43.07 157,-28.5 148.6,-24.9 139.37,-21.89 130.31,-19.41"/>
<polygon fill="#63b8ff" stroke="#63b8ff" points="245.83,-86.42 255.91,-89.69 250.08,-80.85 245.83,-86.42"/>
</g>
</g>
</svg>
