<?xml version="1.0" encoding="UTF-8" standalone="no"?>
<!DOCTYPE svg PUBLIC "-//W3C//DTD SVG 1.1//EN"
 "http://www.w3.org/Graphics/SVG/1.1/DTD/svg11.dtd">
<!-- Generated by graphviz version 7.0.3 (0)
 -->
<!-- Title: Urho3D::ShaderParameterAnimationInfo Pages: 1 -->
<svg width="1691pt" height="966pt"
 viewBox="0.00 0.00 1691.00 966.00" xmlns="http://www.w3.org/2000/svg" xmlns:xlink="http://www.w3.org/1999/xlink">
<g id="graph0" class="graph" transform="scale(1 1) rotate(0) translate(4 962)">
<title>Urho3D::ShaderParameterAnimationInfo</title>
<!-- Node1 -->
<g id="node1" class="node">
<title>Node1</title>
<g id="a_node1"><a xlink:title="Material&#39;s shader parameter animation instance.">
<polygon fill="#999999" stroke="#666666" points="1683,-231.5 1488,-231.5 1488,-212.5 1683,-212.5 1683,-231.5"/>
<text text-anchor="middle" x="1585.5" y="-219.5" font-family="Roboto" font-size="10.00">Urho3D::ShaderParameterAnimationInfo</text>
</a>
</g>
</g>
<!-- Node2 -->
<g id="node2" class="node">
<title>Node2</title>
<g id="a_node2"><a xlink:href="class_urho3_d_1_1_value_animation_info.html" target="_top" xlink:title="Base class for a value animation instance, which includes animation runtime information and updates t...">
<polygon fill="white" stroke="#666666" points="1451,-892.5 1309,-892.5 1309,-873.5 1451,-873.5 1451,-892.5"/>
<text text-anchor="middle" x="1380" y="-880.5" font-family="Roboto" font-size="10.00">Urho3D::ValueAnimationInfo</text>
</a>
</g>
</g>
<!-- Node2&#45;&gt;Node1 -->
<g id="edge1" class="edge">
<title>Node2&#45;&gt;Node1</title>
<path fill="none" stroke="#63b8ff" d="M1387.34,-862.42C1418.95,-759.74 1558.96,-304.95 1581.45,-231.91"/>
<polygon fill="#63b8ff" stroke="#63b8ff" points="1384.08,-861.11 1384.48,-871.7 1390.77,-863.17 1384.08,-861.11"/>
</g>
<!-- Node3 -->
<g id="node3" class="node">
<title>Node3</title>
<g id="a_node3"><a xlink:href="class_urho3_d_1_1_ref_counted.html" target="_top" xlink:title="Base class for intrusively reference&#45;counted objects. These are noncopyable and non&#45;assignable.">
<polygon fill="white" stroke="#666666" points="285,-805.5 178,-805.5 178,-786.5 285,-786.5 285,-805.5"/>
<text text-anchor="middle" x="231.5" y="-793.5" font-family="Roboto" font-size="10.00">Urho3D::RefCounted</text>
</a>
</g>
</g>
<!-- Node3&#45;&gt;Node2 -->
<g id="edge2" class="edge">
<title>Node3&#45;&gt;Node2</title>
<path fill="none" stroke="#63b8ff" d="M249.11,-814.31C278.1,-844.15 341.2,-900 407.5,-900 407.5,-900 407.5,-900 1156,-900 1207.16,-900 1264.72,-895.5 1308.55,-891.13"/>
<polygon fill="#63b8ff" stroke="#63b8ff" points="251.69,-811.94 242.28,-807.07 246.6,-816.75 251.69,-811.94"/>
</g>
<!-- Node6 -->
<g id="node6" class="node">
<title>Node6</title>
<g id="a_node6"><a xlink:href="class_urho3_d_1_1_object.html" target="_top" xlink:title=" ">
<polygon fill="white" stroke="#666666" points="450,-723.5 367,-723.5 367,-704.5 450,-704.5 450,-723.5"/>
<text text-anchor="middle" x="408.5" y="-711.5" font-family="Roboto" font-size="10.00">Urho3D::Object</text>
</a>
</g>
</g>
<!-- Node3&#45;&gt;Node6 -->
<g id="edge6" class="edge">
<title>Node3&#45;&gt;Node6</title>
<path fill="none" stroke="#63b8ff" d="M263.85,-781.31C299.23,-764.73 355.79,-738.23 386.32,-723.93"/>
<polygon fill="#63b8ff" stroke="#63b8ff" points="262.55,-778.05 254.98,-785.47 265.52,-784.39 262.55,-778.05"/>
</g>
<!-- Node7 -->
<g id="node7" class="node">
<title>Node7</title>
<g id="a_node7"><a xlink:href="class_urho3_d_1_1_context.html" target="_top" xlink:title="Urho3D execution context. Provides access to subsystems, object factories and attributes,...">
<polygon fill="white" stroke="#666666" points="1000.5,-340.5 911.5,-340.5 911.5,-321.5 1000.5,-321.5 1000.5,-340.5"/>
<text text-anchor="middle" x="956" y="-328.5" font-family="Roboto" font-size="10.00">Urho3D::Context</text>
</a>
</g>
</g>
<!-- Node3&#45;&gt;Node7 -->
<g id="edge8" class="edge">
<title>Node3&#45;&gt;Node7</title>
<path fill="none" stroke="#63b8ff" d="M236.36,-774.79C252.92,-690.73 326.55,-379.87 528,-261 668.72,-177.97 878.55,-286.55 938.48,-321.09"/>
<polygon fill="#63b8ff" stroke="#63b8ff" points="232.92,-774.11 234.5,-784.59 239.8,-775.42 232.92,-774.11"/>
</g>
<!-- Node4 -->
<g id="node4" class="node">
<title>Node4</title>
<g id="a_node4"><a xlink:href="struct_urho3_d_1_1_ref_count.html" target="_top" xlink:title="Reference count structure.">
<polygon fill="white" stroke="#666666" points="96,-928.5 0,-928.5 0,-909.5 96,-909.5 96,-928.5"/>
<text text-anchor="middle" x="48" y="-916.5" font-family="Roboto" font-size="10.00">Urho3D::RefCount</text>
</a>
</g>
</g>
<!-- Node4&#45;&gt;Node3 -->
<g id="edge3" class="edge">
<title>Node4&#45;&gt;Node3</title>
<path fill="none" stroke="#9a32cd" stroke-dasharray="5,2" d="M72.87,-902.82C111.02,-876.97 184.63,-827.09 215.88,-805.9"/>
<polygon fill="#9a32cd" stroke="#9a32cd" points="71.11,-899.79 64.8,-908.29 75.04,-905.58 71.11,-899.79"/>
<text text-anchor="middle" x="137" y="-875" font-family="Roboto" font-size="10.00"> refCount_</text>
</g>
<!-- Node5 -->
<g id="node5" class="node">
<title>Node5</title>
<g id="a_node5"><a xlink:href="class_urho3_d_1_1_weak_ptr.html" target="_top" xlink:title=" ">
<polygon fill="white" stroke="#666666" points="705.5,-958 571.5,-958 571.5,-928 705.5,-928 705.5,-958"/>
<text text-anchor="start" x="579.5" y="-946" font-family="Roboto" font-size="10.00">Urho3D::WeakPtr&lt; Urho3D</text>
<text text-anchor="middle" x="638.5" y="-935" font-family="Roboto" font-size="10.00">::Object &gt;</text>
</a>
</g>
</g>
<!-- Node4&#45;&gt;Node5 -->
<g id="edge22" class="edge">
<title>Node4&#45;&gt;Node5</title>
<path fill="none" stroke="#9a32cd" stroke-dasharray="5,2" d="M107.36,-921.38C217.47,-925.87 455.17,-935.56 571.15,-940.29"/>
<polygon fill="#9a32cd" stroke="#9a32cd" points="107.81,-917.9 97.68,-920.99 107.53,-924.89 107.81,-917.9"/>
<text text-anchor="middle" x="326" y="-934" font-family="Roboto" font-size="10.00"> refCount_</text>
</g>
<!-- Node5&#45;&gt;Node2 -->
<g id="edge4" class="edge">
<title>Node5&#45;&gt;Node2</title>
<path fill="none" stroke="#9a32cd" stroke-dasharray="5,2" d="M717.06,-946.84C840.03,-951.3 1086.75,-953.62 1291,-914 1314.06,-909.53 1339.23,-900.18 1356.72,-892.91"/>
<polygon fill="#9a32cd" stroke="#9a32cd" points="717.55,-943.36 707.42,-946.47 717.28,-950.35 717.55,-943.36"/>
<text text-anchor="middle" x="1054" y="-946" font-family="Roboto" font-size="10.00"> target_</text>
</g>
<!-- Node6&#45;&gt;Node5 -->
<g id="edge5" class="edge">
<title>Node6&#45;&gt;Node5</title>
<path fill="none" stroke="#9a32cd" stroke-dasharray="5,2" d="M419.71,-733.73C437.84,-767.31 478.45,-836.26 528,-881 549.73,-900.62 578.71,-916.69 601.4,-927.54"/>
<polygon fill="#9a32cd" stroke="#9a32cd" points="422.92,-732.32 415.15,-725.12 416.74,-735.6 422.92,-732.32"/>
<text text-anchor="middle" x="489" y="-864" font-family="Roboto" font-size="10.00"> ptr_</text>
</g>
<!-- Node20 -->
<g id="node15" class="node">
<title>Node20</title>
<g id="a_node15"><a xlink:href="class_urho3_d_1_1_event_handler.html" target="_top" xlink:title="Internal helper class for invoking event handler functions.">
<polygon fill="#fff0f0" stroke="red" points="695,-653.5 582,-653.5 582,-634.5 695,-634.5 695,-653.5"/>
<text text-anchor="middle" x="638.5" y="-641.5" font-family="Roboto" font-size="10.00">Urho3D::EventHandler</text>
</a>
</g>
</g>
<!-- Node6&#45;&gt;Node20 -->
<g id="edge17" class="edge">
<title>Node6&#45;&gt;Node20</title>
<path fill="none" stroke="#9a32cd" stroke-dasharray="5,2" d="M428.84,-697.16C439.67,-688.61 453.81,-678.84 468,-673 504.17,-658.12 547.7,-650.87 581.6,-647.35"/>
<polygon fill="#9a32cd" stroke="#9a32cd" points="426.93,-694.19 421.44,-703.25 431.38,-699.6 426.93,-694.19"/>
<text text-anchor="middle" x="489" y="-687" font-family="Roboto" font-size="10.00"> receiver_</text>
<text text-anchor="middle" x="489" y="-676" font-family="Roboto" font-size="10.00">sender_</text>
</g>
<!-- Node28 -->
<g id="node21" class="node">
<title>Node28</title>
<g id="a_node21"><a xlink:href="class_urho3_d_1_1_resource.html" target="_top" xlink:title=" ">
<polygon fill="#fff0f0" stroke="red" points="686.5,-690.5 590.5,-690.5 590.5,-671.5 686.5,-671.5 686.5,-690.5"/>
<text text-anchor="middle" x="638.5" y="-678.5" font-family="Roboto" font-size="10.00">Urho3D::Resource</text>
</a>
</g>
</g>
<!-- Node6&#45;&gt;Node28 -->
<g id="edge26" class="edge">
<title>Node6&#45;&gt;Node28</title>
<path fill="none" stroke="#63b8ff" d="M461.32,-706.5C500.13,-700.88 552.78,-693.26 590.4,-687.82"/>
<polygon fill="#63b8ff" stroke="#63b8ff" points="461.16,-702.99 451.76,-707.88 462.16,-709.91 461.16,-702.99"/>
</g>
<!-- Node7&#45;&gt;Node6 -->
<g id="edge7" class="edge">
<title>Node7&#45;&gt;Node6</title>
<path fill="none" stroke="#9a32cd" stroke-dasharray="5,2" d="M924.11,-345.51C909.17,-352.23 890.85,-360.03 874,-366 819.62,-385.26 805.31,-388.44 749,-401 651.8,-422.68 606.33,-376.5 528,-438 437.15,-509.32 414.8,-663.85 410.43,-704.2"/>
<polygon fill="#9a32cd" stroke="#9a32cd" points="925.31,-348.81 932.95,-341.48 922.4,-342.45 925.31,-348.81"/>
<text text-anchor="middle" x="638.5" y="-441" font-family="Roboto" font-size="10.00"> context_</text>
</g>
<!-- Node8 -->
<g id="node8" class="node">
<title>Node8</title>
<g id="a_node8"><a xlink:href="class_urho3_d_1_1_hash_map.html" target="_top" xlink:title=" ">
<polygon fill="white" stroke="orangered" points="729.5,-616.5 547.5,-616.5 547.5,-575.5 729.5,-575.5 729.5,-616.5"/>
<text text-anchor="start" x="555.5" y="-604.5" font-family="Roboto" font-size="10.00">Urho3D::HashMap&lt; Urho3D</text>
<text text-anchor="start" x="555.5" y="-593.5" font-family="Roboto" font-size="10.00">::StringHash, Urho3D::</text>
<text text-anchor="middle" x="638.5" y="-582.5" font-family="Roboto" font-size="10.00">SharedPtr&lt; Urho3D::ObjectFactory &gt; &gt;</text>
</a>
</g>
</g>
<!-- Node8&#45;&gt;Node7 -->
<g id="edge9" class="edge">
<title>Node8&#45;&gt;Node7</title>
<path fill="none" stroke="#9a32cd" stroke-dasharray="5,2" d="M741.16,-599.71C786.39,-596.27 837.54,-584.7 874,-554 942.37,-496.43 953.03,-376.23 954.69,-340.94"/>
<polygon fill="#9a32cd" stroke="#9a32cd" points="741.08,-596.21 731.31,-600.33 741.51,-603.2 741.08,-596.21"/>
<text text-anchor="middle" x="820.5" y="-599" font-family="Roboto" font-size="10.00"> factories_</text>
</g>
<!-- Node13 -->
<g id="node9" class="node">
<title>Node13</title>
<g id="a_node9"><a xlink:href="class_urho3_d_1_1_hash_map.html" target="_top" xlink:title=" ">
<polygon fill="white" stroke="orangered" points="713,-557.5 564,-557.5 564,-516.5 713,-516.5 713,-557.5"/>
<text text-anchor="start" x="572" y="-545.5" font-family="Roboto" font-size="10.00">Urho3D::HashMap&lt; Urho3D</text>
<text text-anchor="start" x="572" y="-534.5" font-family="Roboto" font-size="10.00">::StringHash, Urho3D::</text>
<text text-anchor="middle" x="638.5" y="-523.5" font-family="Roboto" font-size="10.00">SharedPtr&lt; Urho3D::Object &gt; &gt;</text>
</a>
</g>
</g>
<!-- Node13&#45;&gt;Node7 -->
<g id="edge10" class="edge">
<title>Node13&#45;&gt;Node7</title>
<path fill="none" stroke="#9a32cd" stroke-dasharray="5,2" d="M724.77,-542.6C772.86,-541.48 831.62,-532.51 874,-501 929.62,-459.65 948.67,-370.2 953.57,-340.68"/>
<polygon fill="#9a32cd" stroke="#9a32cd" points="724.9,-539.09 714.93,-542.7 724.97,-546.09 724.9,-539.09"/>
<text text-anchor="middle" x="820.5" y="-542" font-family="Roboto" font-size="10.00"> subsystems_</text>
</g>
<!-- Node14 -->
<g id="node10" class="node">
<title>Node14</title>
<g id="a_node10"><a xlink:href="class_urho3_d_1_1_hash_map.html" target="_top" xlink:title=" ">
<polygon fill="white" stroke="orangered" points="719.5,-498.5 557.5,-498.5 557.5,-457.5 719.5,-457.5 719.5,-498.5"/>
<text text-anchor="start" x="565.5" y="-486.5" font-family="Roboto" font-size="10.00">Urho3D::HashMap&lt; Urho3D</text>
<text text-anchor="start" x="565.5" y="-475.5" font-family="Roboto" font-size="10.00">::StringHash, Urho3D::</text>
<text text-anchor="middle" x="638.5" y="-464.5" font-family="Roboto" font-size="10.00">Vector&lt; Urho3D::AttributeInfo &gt; &gt;</text>
</a>
</g>
</g>
<!-- Node14&#45;&gt;Node7 -->
<g id="edge11" class="edge">
<title>Node14&#45;&gt;Node7</title>
<path fill="none" stroke="#9a32cd" stroke-dasharray="5,2" d="M731.36,-480.1C777.12,-477.28 831.58,-467.8 874,-442 914.97,-417.09 941.54,-362.87 951.06,-340.72"/>
<polygon fill="#9a32cd" stroke="#9a32cd" points="731.25,-476.6 721.44,-480.6 731.6,-483.59 731.25,-476.6"/>
<text text-anchor="middle" x="820.5" y="-489" font-family="Roboto" font-size="10.00"> attributes_</text>
<text text-anchor="middle" x="820.5" y="-478" font-family="Roboto" font-size="10.00">networkAttributes_</text>
</g>
<!-- Node15 -->
<g id="node11" class="node">
<title>Node15</title>
<g id="a_node11"><a xlink:href="class_urho3_d_1_1_hash_map.html" target="_top" xlink:title=" ">
<polygon fill="white" stroke="orangered" points="722,-392 555,-392 555,-340 722,-340 722,-392"/>
<text text-anchor="start" x="563" y="-380" font-family="Roboto" font-size="10.00">Urho3D::HashMap&lt; Urho3D</text>
<text text-anchor="start" x="563" y="-369" font-family="Roboto" font-size="10.00">::StringHash, Urho3D::</text>
<text text-anchor="start" x="563" y="-358" font-family="Roboto" font-size="10.00">SharedPtr&lt; Urho3D::EventReceiver</text>
<text text-anchor="middle" x="638.5" y="-347" font-family="Roboto" font-size="10.00">Group &gt; &gt;</text>
</a>
</g>
</g>
<!-- Node15&#45;&gt;Node7 -->
<g id="edge12" class="edge">
<title>Node15&#45;&gt;Node7</title>
<path fill="none" stroke="#9a32cd" stroke-dasharray="5,2" d="M733.57,-355.56C792.34,-349.04 865.28,-340.95 911,-335.88"/>
<polygon fill="#9a32cd" stroke="#9a32cd" points="733.45,-352.06 723.9,-356.64 734.22,-359.01 733.45,-352.06"/>
<text text-anchor="middle" x="820.5" y="-354" font-family="Roboto" font-size="10.00"> eventReceivers_</text>
</g>
<!-- Node16 -->
<g id="node12" class="node">
<title>Node16</title>
<g id="a_node12"><a xlink:href="class_urho3_d_1_1_hash_map.html" target="_top" xlink:title=" ">
<polygon fill="white" stroke="orangered" points="749,-322 528,-322 528,-270 749,-270 749,-322"/>
<text text-anchor="start" x="536" y="-310" font-family="Roboto" font-size="10.00">Urho3D::HashMap&lt; Urho3D</text>
<text text-anchor="start" x="536" y="-299" font-family="Roboto" font-size="10.00">::Object *, Urho3D::HashMap</text>
<text text-anchor="start" x="536" y="-288" font-family="Roboto" font-size="10.00">&lt; Urho3D::StringHash, Urho3D</text>
<text text-anchor="middle" x="638.5" y="-277" font-family="Roboto" font-size="10.00">::SharedPtr&lt; Urho3D::EventReceiverGroup &gt; &gt; &gt;</text>
</a>
</g>
</g>
<!-- Node16&#45;&gt;Node7 -->
<g id="edge13" class="edge">
<title>Node16&#45;&gt;Node7</title>
<path fill="none" stroke="#9a32cd" stroke-dasharray="5,2" d="M760.6,-309.43C813.53,-315.31 872.28,-321.82 911.19,-326.14"/>
<polygon fill="#9a32cd" stroke="#9a32cd" points="761.23,-305.98 750.91,-308.36 760.46,-312.94 761.23,-305.98"/>
<text text-anchor="middle" x="820.5" y="-324" font-family="Roboto" font-size="10.00"> specificEventReceivers_</text>
</g>
<!-- Node17 -->
<g id="node13" class="node">
<title>Node17</title>
<g id="a_node13"><a xlink:href="class_urho3_d_1_1_p_o_d_vector.html" target="_top" xlink:title=" ">
<polygon fill="white" stroke="orangered" points="693,-214 584,-214 584,-184 693,-184 693,-214"/>
<text text-anchor="start" x="592" y="-202" font-family="Roboto" font-size="10.00">Urho3D::PODVector&lt;</text>
<text text-anchor="middle" x="638.5" y="-191" font-family="Roboto" font-size="10.00"> Urho3D::Object * &gt;</text>
</a>
</g>
</g>
<!-- Node17&#45;&gt;Node7 -->
<g id="edge14" class="edge">
<title>Node17&#45;&gt;Node7</title>
<path fill="none" stroke="#9a32cd" stroke-dasharray="5,2" d="M704.27,-189.79C753.9,-185.94 822.4,-187.81 874,-217 916.69,-241.15 942.44,-298.17 951.41,-321.15"/>
<polygon fill="#9a32cd" stroke="#9a32cd" points="704.19,-186.28 694.54,-190.65 704.81,-193.26 704.19,-186.28"/>
<text text-anchor="middle" x="820.5" y="-220" font-family="Roboto" font-size="10.00"> eventSenders_</text>
</g>
<!-- Node19 -->
<g id="node14" class="node">
<title>Node19</title>
<g id="a_node14"><a xlink:href="class_urho3_d_1_1_p_o_d_vector.html" target="_top" xlink:title=" ">
<polygon fill="white" stroke="orangered" points="695.5,-166 581.5,-166 581.5,-136 695.5,-136 695.5,-166"/>
<text text-anchor="start" x="589.5" y="-154" font-family="Roboto" font-size="10.00">Urho3D::PODVector&lt;</text>
<text text-anchor="middle" x="638.5" y="-143" font-family="Roboto" font-size="10.00"> Urho3D::HashMap * &gt;</text>
</a>
</g>
</g>
<!-- Node19&#45;&gt;Node7 -->
<g id="edge15" class="edge">
<title>Node19&#45;&gt;Node7</title>
<path fill="none" stroke="#9a32cd" stroke-dasharray="5,2" d="M707.1,-141.35C757.34,-137.79 825.32,-140.97 874,-174 927.3,-210.16 947.66,-292.64 953.26,-321.12"/>
<polygon fill="#9a32cd" stroke="#9a32cd" points="706.89,-137.85 697.21,-142.17 707.46,-144.83 706.89,-137.85"/>
<text text-anchor="middle" x="820.5" y="-177" font-family="Roboto" font-size="10.00"> eventDataMaps_</text>
</g>
<!-- Node20&#45;&gt;Node7 -->
<g id="edge16" class="edge">
<title>Node20&#45;&gt;Node7</title>
<path fill="none" stroke="#9a32cd" stroke-dasharray="5,2" d="M706.78,-642.49C767.06,-639.76 849.64,-632.13 874,-611 916.91,-573.78 946.85,-386.51 953.57,-340.98"/>
<polygon fill="#9a32cd" stroke="#9a32cd" points="706.78,-638.99 696.93,-642.9 707.07,-645.98 706.78,-638.99"/>
<text text-anchor="middle" x="820.5" y="-641" font-family="Roboto" font-size="10.00"> eventHandler_</text>
</g>
<!-- Node25 -->
<g id="node18" class="node">
<title>Node25</title>
<g id="a_node18"><a xlink:href="class_urho3_d_1_1_linked_list.html" target="_top" xlink:title=" ">
<polygon fill="white" stroke="#666666" points="1020,-715 892,-715 892,-685 1020,-685 1020,-715"/>
<text text-anchor="start" x="900" y="-703" font-family="Roboto" font-size="10.00">Urho3D::LinkedList</text>
<text text-anchor="middle" x="956" y="-692" font-family="Roboto" font-size="10.00">&lt; Urho3D::EventHandler &gt;</text>
</a>
</g>
</g>
<!-- Node20&#45;&gt;Node25 -->
<g id="edge21" class="edge">
<title>Node20&#45;&gt;Node25</title>
<path fill="none" stroke="#9a32cd" stroke-dasharray="5,2" d="M706.65,-650.41C753.79,-655.58 818.15,-663.99 874,-676 884.9,-678.34 896.46,-681.41 907.34,-684.57"/>
<polygon fill="#9a32cd" stroke="#9a32cd" points="707.17,-646.95 696.85,-649.36 706.42,-653.91 707.17,-646.95"/>
<text text-anchor="middle" x="820.5" y="-679" font-family="Roboto" font-size="10.00"> head_</text>
</g>
<!-- Node23 -->
<g id="node16" class="node">
<title>Node23</title>
<g id="a_node16"><a xlink:href="class_urho3_d_1_1_hash_map.html" target="_top" xlink:title=" ">
<polygon fill="white" stroke="orangered" points="708,-117.5 569,-117.5 569,-76.5 708,-76.5 708,-117.5"/>
<text text-anchor="start" x="577" y="-105.5" font-family="Roboto" font-size="10.00">Urho3D::HashMap&lt; Urho3D</text>
<text text-anchor="start" x="577" y="-94.5" font-family="Roboto" font-size="10.00">::String, Urho3D::Vector</text>
<text text-anchor="middle" x="638.5" y="-83.5" font-family="Roboto" font-size="10.00">&lt; Urho3D::StringHash &gt; &gt;</text>
</a>
</g>
</g>
<!-- Node23&#45;&gt;Node7 -->
<g id="edge18" class="edge">
<title>Node23&#45;&gt;Node7</title>
<path fill="none" stroke="#9a32cd" stroke-dasharray="5,2" d="M719.6,-87.53C768.91,-86.04 830.74,-92.51 874,-126 939.36,-176.6 952.09,-287.75 954.47,-321.26"/>
<polygon fill="#9a32cd" stroke="#9a32cd" points="719.68,-84.03 709.84,-87.95 719.98,-91.02 719.68,-84.03"/>
<text text-anchor="middle" x="820.5" y="-129" font-family="Roboto" font-size="10.00"> objectCategories_</text>
</g>
<!-- Node24 -->
<g id="node17" class="node">
<title>Node24</title>
<g id="a_node17"><a xlink:href="class_urho3_d_1_1_hash_map.html" target="_top" xlink:title=" ">
<polygon fill="white" stroke="orangered" points="716.5,-58 560.5,-58 560.5,-28 716.5,-28 716.5,-58"/>
<text text-anchor="start" x="568.5" y="-46" font-family="Roboto" font-size="10.00">Urho3D::HashMap&lt; StringHash,</text>
<text text-anchor="middle" x="638.5" y="-35" font-family="Roboto" font-size="10.00"> Variant &gt;</text>
</a>
</g>
</g>
<!-- Node24&#45;&gt;Node7 -->
<g id="edge19" class="edge">
<title>Node24&#45;&gt;Node7</title>
<path fill="none" stroke="#9a32cd" stroke-dasharray="5,2" d="M728.13,-32.68C776.37,-31.95 834.15,-39.65 874,-73 953.2,-139.29 956.1,-282.18 955.34,-321.06"/>
<polygon fill="#9a32cd" stroke="#9a32cd" points="728.14,-29.18 718.24,-32.97 728.34,-36.18 728.14,-29.18"/>
<text text-anchor="middle" x="820.5" y="-76" font-family="Roboto" font-size="10.00"> globalVars_</text>
</g>
<!-- Node25&#45;&gt;Node6 -->
<g id="edge20" class="edge">
<title>Node25&#45;&gt;Node6</title>
<path fill="none" stroke="#9a32cd" stroke-dasharray="5,2" d="M880.38,-702.62C791.99,-705.62 640.29,-710.45 510,-713 490.29,-713.39 468.4,-713.63 450.09,-713.77"/>
<polygon fill="#9a32cd" stroke="#9a32cd" points="880.25,-706.13 890.12,-702.29 880.01,-699.13 880.25,-706.13"/>
<text text-anchor="middle" x="638.5" y="-715" font-family="Roboto" font-size="10.00"> eventHandlers_</text>
</g>
<!-- Node26 -->
<g id="node19" class="node">
<title>Node26</title>
<g id="a_node19"><a xlink:href="class_urho3_d_1_1_shared_ptr.html" target="_top" xlink:title=" ">
<polygon fill="white" stroke="#666666" points="1222,-848 1088,-848 1088,-818 1222,-818 1222,-848"/>
<text text-anchor="start" x="1096" y="-836" font-family="Roboto" font-size="10.00">Urho3D::SharedPtr&lt;</text>
<text text-anchor="middle" x="1155" y="-825" font-family="Roboto" font-size="10.00"> Urho3D::ValueAnimation &gt;</text>
</a>
</g>
</g>
<!-- Node26&#45;&gt;Node2 -->
<g id="edge23" class="edge">
<title>Node26&#45;&gt;Node2</title>
<path fill="none" stroke="#9a32cd" stroke-dasharray="5,2" d="M1233.11,-850.29C1266.96,-857.88 1305.5,-866.52 1334.46,-873.01"/>
<polygon fill="#9a32cd" stroke="#9a32cd" points="1234.3,-846.97 1223.78,-848.2 1232.77,-853.8 1234.3,-846.97"/>
<text text-anchor="middle" x="1265.5" y="-865" font-family="Roboto" font-size="10.00"> animation_</text>
</g>
<!-- Node27 -->
<g id="node20" class="node">
<title>Node27</title>
<g id="a_node20"><a xlink:href="class_urho3_d_1_1_value_animation.html" target="_top" xlink:title="Value animation class.">
<polygon fill="white" stroke="#666666" points="1018,-818.5 894,-818.5 894,-799.5 1018,-799.5 1018,-818.5"/>
<text text-anchor="middle" x="956" y="-806.5" font-family="Roboto" font-size="10.00">Urho3D::ValueAnimation</text>
</a>
</g>
</g>
<!-- Node27&#45;&gt;Node26 -->
<g id="edge24" class="edge">
<title>Node27&#45;&gt;Node26</title>
<path fill="none" stroke="#9a32cd" stroke-dasharray="5,2" d="M1029.57,-817.84C1048.58,-820.16 1068.99,-822.64 1087.65,-824.92"/>
<polygon fill="#9a32cd" stroke="#9a32cd" points="1030.1,-814.38 1019.75,-816.65 1029.26,-821.33 1030.1,-814.38"/>
<text text-anchor="middle" x="1054" y="-825" font-family="Roboto" font-size="10.00"> ptr_</text>
</g>
<!-- Node28&#45;&gt;Node27 -->
<g id="edge25" class="edge">
<title>Node28&#45;&gt;Node27</title>
<path fill="none" stroke="#63b8ff" d="M697.66,-690.91C714.47,-694.53 732.68,-699.2 749,-705 823.17,-731.38 904.85,-778.53 938.81,-799.03"/>
<polygon fill="#63b8ff" stroke="#63b8ff" points="698.83,-687.57 688.33,-688.98 697.42,-694.43 698.83,-687.57"/>
</g>
<!-- Node29 -->
<g id="node22" class="node">
<title>Node29</title>
<g id="a_node22"><a xlink:href="class_urho3_d_1_1_string.html" target="_top" xlink:title="String class.">
<polygon fill="white" stroke="#666666" points="448.5,-97.5 368.5,-97.5 368.5,-78.5 448.5,-78.5 448.5,-97.5"/>
<text text-anchor="middle" x="408.5" y="-85.5" font-family="Roboto" font-size="10.00">Urho3D::String</text>
</a>
</g>
</g>
<!-- Node29&#45;&gt;Node1 -->
<g id="edge32" class="edge">
<title>Node29&#45;&gt;Node1</title>
<path fill="none" stroke="#9a32cd" stroke-dasharray="5,2" d="M432.15,-71.49C455.15,-55.56 492.35,-32 528,-19 574.41,-2.08 588.11,0 637.5,0 637.5,0 637.5,0 1381,0 1497.86,0 1565.78,-169.21 1581.14,-212.17"/>
<polygon fill="#9a32cd" stroke="#9a32cd" points="430.31,-68.51 424.16,-77.13 434.35,-74.23 430.31,-68.51"/>
<text text-anchor="middle" x="1054" y="-3" font-family="Roboto" font-size="10.00"> name_</text>
</g>
<!-- Node29&#45;&gt;Node28 -->
<g id="edge27" class="edge">
<title>Node29&#45;&gt;Node28</title>
<path fill="none" stroke="#9a32cd" stroke-dasharray="5,2" d="M410.74,-109.04C416.7,-203.11 445.68,-583.94 528,-663 544.26,-678.61 568.53,-683.72 590.09,-684.65"/>
<polygon fill="#9a32cd" stroke="#9a32cd" points="414.24,-109.01 410.14,-99.24 407.25,-109.44 414.24,-109.01"/>
<text text-anchor="middle" x="489" y="-637" font-family="Roboto" font-size="10.00"> name_</text>
</g>
<!-- Node29&#45;&gt;Node29 -->
<g id="edge28" class="edge">
<title>Node29&#45;&gt;Node29</title>
<path fill="none" stroke="#9a32cd" stroke-dasharray="5,2" d="M394.37,-109.26C396.27,-112.94 400.98,-115.5 408.5,-115.5 422.65,-115.5 426.85,-106.44 421.1,-97.87"/>
<polygon fill="#9a32cd" stroke="#9a32cd" points="397.84,-109.74 395.7,-99.37 390.9,-108.82 397.84,-109.74"/>
<text text-anchor="middle" x="408.5" y="-118.5" font-family="Roboto" font-size="10.00"> EMPTY</text>
</g>
<!-- Node31 -->
<g id="node23" class="node">
<title>Node31</title>
<g id="a_node23"><a xlink:href="class_urho3_d_1_1_vector.html" target="_top" xlink:title=" ">
<polygon fill="white" stroke="orangered" points="701,-824 576,-824 576,-794 701,-794 701,-824"/>
<text text-anchor="start" x="584" y="-812" font-family="Roboto" font-size="10.00">Urho3D::Vector&lt; Urho3D</text>
<text text-anchor="middle" x="638.5" y="-801" font-family="Roboto" font-size="10.00">::VAnimKeyFrame &gt;</text>
</a>
</g>
</g>
<!-- Node31&#45;&gt;Node27 -->
<g id="edge29" class="edge">
<title>Node31&#45;&gt;Node27</title>
<path fill="none" stroke="#9a32cd" stroke-dasharray="5,2" d="M712.86,-809C767.76,-809 841.98,-809 893.72,-809"/>
<polygon fill="#9a32cd" stroke="#9a32cd" points="712.97,-805.5 702.97,-809 712.97,-812.5 712.97,-805.5"/>
<text text-anchor="middle" x="820.5" y="-812" font-family="Roboto" font-size="10.00"> keyFrames_</text>
</g>
<!-- Node32 -->
<g id="node24" class="node">
<title>Node32</title>
<g id="a_node24"><a xlink:href="class_urho3_d_1_1_vector.html" target="_top" xlink:title=" ">
<polygon fill="white" stroke="orangered" points="703.5,-775.5 573.5,-775.5 573.5,-756.5 703.5,-756.5 703.5,-775.5"/>
<text text-anchor="middle" x="638.5" y="-763.5" font-family="Roboto" font-size="10.00">Urho3D::Vector&lt; Variant &gt;</text>
</a>
</g>
</g>
<!-- Node32&#45;&gt;Node27 -->
<g id="edge30" class="edge">
<title>Node32&#45;&gt;Node27</title>
<path fill="none" stroke="#9a32cd" stroke-dasharray="5,2" d="M715.23,-773.79C761.25,-778.84 821.12,-785.96 874,-794 883.76,-795.48 894.14,-797.26 904.1,-799.06"/>
<polygon fill="#9a32cd" stroke="#9a32cd" points="715.67,-770.32 705.35,-772.72 714.92,-777.28 715.67,-770.32"/>
<text text-anchor="middle" x="820.5" y="-797" font-family="Roboto" font-size="10.00"> splineTangents_</text>
</g>
<!-- Node33 -->
<g id="node25" class="node">
<title>Node33</title>
<g id="a_node25"><a xlink:href="class_urho3_d_1_1_vector.html" target="_top" xlink:title=" ">
<polygon fill="white" stroke="orangered" points="701,-872 576,-872 576,-842 701,-842 701,-872"/>
<text text-anchor="start" x="584" y="-860" font-family="Roboto" font-size="10.00">Urho3D::Vector&lt; Urho3D</text>
<text text-anchor="middle" x="638.5" y="-849" font-family="Roboto" font-size="10.00">::VAnimEventFrame &gt;</text>
</a>
</g>
</g>
<!-- Node33&#45;&gt;Node27 -->
<g id="edge31" class="edge">
<title>Node33&#45;&gt;Node27</title>
<path fill="none" stroke="#9a32cd" stroke-dasharray="5,2" d="M712.47,-847.56C758.82,-841.36 820.02,-832.79 874,-824 883.46,-822.46 893.51,-820.7 903.21,-818.94"/>
<polygon fill="#9a32cd" stroke="#9a32cd" points="712.28,-844.05 702.83,-848.84 713.2,-850.99 712.28,-844.05"/>
<text text-anchor="middle" x="820.5" y="-842" font-family="Roboto" font-size="10.00"> eventFrames_</text>
</g>
</g>
</svg>
