<?xml version="1.0" encoding="UTF-8" standalone="no"?>
<!DOCTYPE svg PUBLIC "-//W3C//DTD SVG 1.1//EN"
 "http://www.w3.org/Graphics/SVG/1.1/DTD/svg11.dtd">
<!-- Generated by graphviz version 7.0.3 (0)
 -->
<!-- Title: Urho3D::List&lt; T &gt; Pages: 1 -->
<svg width="352pt" height="229pt"
 viewBox="0.00 0.00 351.50 229.00" xmlns="http://www.w3.org/2000/svg" xmlns:xlink="http://www.w3.org/1999/xlink">
<g id="graph0" class="graph" transform="scale(1 1) rotate(0) translate(4 225)">
<title>Urho3D::List&lt; T &gt;</title>
<!-- Node1 -->
<g id="node1" class="node">
<title>Node1</title>
<g id="a_node1"><a xlink:title="Doubly&#45;linked list template class.">
<polygon fill="#999999" stroke="#666666" points="194.5,-19 102.5,-19 102.5,0 194.5,0 194.5,-19"/>
<text text-anchor="middle" x="148.5" y="-7" font-family="Roboto" font-size="10.00">Urho3D::List&lt; T &gt;</text>
</a>
</g>
</g>
<!-- Node2 -->
<g id="node2" class="node">
<title>Node2</title>
<g id="a_node2"><a xlink:href="class_urho3_d_1_1_list_base.html" target="_top" xlink:title="Doubly&#45;linked list base class.">
<polygon fill="white" stroke="#666666" points="194.5,-75 102.5,-75 102.5,-56 194.5,-56 194.5,-75"/>
<text text-anchor="middle" x="148.5" y="-63" font-family="Roboto" font-size="10.00">Urho3D::ListBase</text>
</a>
</g>
</g>
<!-- Node2&#45;&gt;Node1 -->
<g id="edge1" class="edge">
<title>Node2&#45;&gt;Node1</title>
<path fill="none" stroke="#63b8ff" d="M148.5,-44.11C148.5,-35.52 148.5,-25.97 148.5,-19.25"/>
<polygon fill="#63b8ff" stroke="#63b8ff" points="145,-44.07 148.5,-54.07 152,-44.07 145,-44.07"/>
</g>
<!-- Node3 -->
<g id="node3" class="node">
<title>Node3</title>
<g id="a_node3"><a xlink:href="struct_urho3_d_1_1_list_node_base.html" target="_top" xlink:title="Doubly&#45;linked list node base class.">
<polygon fill="white" stroke="#666666" points="117,-153.5 0,-153.5 0,-134.5 117,-134.5 117,-153.5"/>
<text text-anchor="middle" x="58.5" y="-141.5" font-family="Roboto" font-size="10.00">Urho3D::ListNodeBase</text>
</a>
</g>
</g>
<!-- Node3&#45;&gt;Node2 -->
<g id="edge2" class="edge">
<title>Node3&#45;&gt;Node2</title>
<path fill="none" stroke="#9a32cd" stroke-dasharray="5,2" d="M77.54,-126.81C95.97,-111.15 123.23,-87.98 138.02,-75.41"/>
<polygon fill="#9a32cd" stroke="#9a32cd" points="75.33,-124.1 69.98,-133.24 79.86,-129.43 75.33,-124.1"/>
<text text-anchor="middle" x="131" y="-107" font-family="Roboto" font-size="10.00"> head_</text>
<text text-anchor="middle" x="131" y="-96" font-family="Roboto" font-size="10.00">tail_</text>
</g>
<!-- Node3&#45;&gt;Node3 -->
<g id="edge3" class="edge">
<title>Node3&#45;&gt;Node3</title>
<path fill="none" stroke="#9a32cd" stroke-dasharray="5,2" d="M128.46,-148.43C132.55,-147.36 135,-145.89 135,-144 135,-140.73 127.68,-138.7 117.2,-137.91"/>
<polygon fill="#9a32cd" stroke="#9a32cd" points="128.07,-144.95 118.69,-149.87 129.1,-151.87 128.07,-144.95"/>
<text text-anchor="middle" x="148" y="-147" font-family="Roboto" font-size="10.00"> next_</text>
<text text-anchor="middle" x="148" y="-136" font-family="Roboto" font-size="10.00">prev_</text>
</g>
<!-- Node4 -->
<g id="node4" class="node">
<title>Node4</title>
<g id="a_node4"><a xlink:href="struct_urho3_d_1_1_allocator_block.html" target="_top" xlink:title="Allocator memory block.">
<polygon fill="white" stroke="#666666" points="299.5,-153.5 179.5,-153.5 179.5,-134.5 299.5,-134.5 299.5,-153.5"/>
<text text-anchor="middle" x="239.5" y="-141.5" font-family="Roboto" font-size="10.00">Urho3D::AllocatorBlock</text>
</a>
</g>
</g>
<!-- Node4&#45;&gt;Node2 -->
<g id="edge4" class="edge">
<title>Node4&#45;&gt;Node2</title>
<path fill="none" stroke="#9a32cd" stroke-dasharray="5,2" d="M220.5,-127.03C201.86,-111.36 174.12,-88.04 159.1,-75.41"/>
<polygon fill="#9a32cd" stroke="#9a32cd" points="218,-129.49 227.9,-133.25 222.5,-124.14 218,-129.49"/>
<text text-anchor="middle" x="227.5" y="-101.5" font-family="Roboto" font-size="10.00"> allocator_</text>
</g>
<!-- Node4&#45;&gt;Node4 -->
<g id="edge7" class="edge">
<title>Node4&#45;&gt;Node4</title>
<path fill="none" stroke="#9a32cd" stroke-dasharray="5,2" d="M310.96,-148.39C315.06,-147.33 317.5,-145.87 317.5,-144 317.5,-140.77 310.19,-138.74 299.68,-137.94"/>
<polygon fill="#9a32cd" stroke="#9a32cd" points="310.55,-144.92 301.17,-149.84 311.58,-151.84 310.55,-144.92"/>
<text text-anchor="middle" x="330.5" y="-141.5" font-family="Roboto" font-size="10.00"> next_</text>
</g>
<!-- Node5 -->
<g id="node5" class="node">
<title>Node5</title>
<g id="a_node5"><a xlink:href="struct_urho3_d_1_1_allocator_node.html" target="_top" xlink:title="Allocator node.">
<polygon fill="white" stroke="#666666" points="299.5,-221 179.5,-221 179.5,-202 299.5,-202 299.5,-221"/>
<text text-anchor="middle" x="239.5" y="-209" font-family="Roboto" font-size="10.00">Urho3D::AllocatorNode</text>
</a>
</g>
</g>
<!-- Node5&#45;&gt;Node4 -->
<g id="edge5" class="edge">
<title>Node5&#45;&gt;Node4</title>
<path fill="none" stroke="#9a32cd" stroke-dasharray="5,2" d="M239.5,-190.24C239.5,-177.98 239.5,-162.97 239.5,-153.69"/>
<polygon fill="#9a32cd" stroke="#9a32cd" points="236,-190.15 239.5,-200.15 243,-190.15 236,-190.15"/>
<text text-anchor="middle" x="252" y="-176" font-family="Roboto" font-size="10.00"> free_</text>
</g>
<!-- Node5&#45;&gt;Node5 -->
<g id="edge6" class="edge">
<title>Node5&#45;&gt;Node5</title>
<path fill="none" stroke="#9a32cd" stroke-dasharray="5,2" d="M310.96,-215.7C315.06,-214.69 317.5,-213.29 317.5,-211.5 317.5,-208.41 310.19,-206.47 299.68,-205.7"/>
<polygon fill="#9a32cd" stroke="#9a32cd" points="310.58,-212.22 301.17,-217.09 311.57,-219.15 310.58,-212.22"/>
<text text-anchor="middle" x="330.5" y="-209" font-family="Roboto" font-size="10.00"> next_</text>
</g>
</g>
</svg>
