<?xml version="1.0" encoding="UTF-8" standalone="no"?>
<!DOCTYPE svg PUBLIC "-//W3C//DTD SVG 1.1//EN"
 "http://www.w3.org/Graphics/SVG/1.1/DTD/svg11.dtd">
<!-- Generated by graphviz version 7.0.3 (0)
 -->
<!-- Title: Urho3D::RigidBody::ApplyAttributes Pages: 1 -->
<svg width="785pt" height="753pt"
 viewBox="0.00 0.00 785.00 752.85" xmlns="http://www.w3.org/2000/svg" xmlns:xlink="http://www.w3.org/1999/xlink">
<g id="graph0" class="graph" transform="scale(1 1) rotate(0) translate(4 748.85)">
<title>Urho3D::RigidBody::ApplyAttributes</title>
<!-- Node1 -->
<g id="node1" class="node">
<title>Node1</title>
<g id="a_node1"><a xlink:title="Apply attribute changes that can not be applied immediately. Called after scene load or a network upd...">
<polygon fill="#999999" stroke="#666666" points="104,-373.85 0,-373.85 0,-343.85 104,-343.85 104,-373.85"/>
<text text-anchor="start" x="8" y="-361.85" font-family="Roboto" font-size="10.00">Urho3D::RigidBody::</text>
<text text-anchor="middle" x="52" y="-350.85" font-family="Roboto" font-size="10.00">ApplyAttributes</text>
</a>
</g>
</g>
<!-- Node2 -->
<g id="node2" class="node">
<title>Node2</title>
<g id="a_node2"><a xlink:href="class_urho3_d_1_1_rigid_body.html#a84c961b128867e4b196defc0973d3e03" target="_top" xlink:title="Create the rigid body, or re&#45;add to the physics world with changed flags. Calls UpdateMass().">
<polygon fill="white" stroke="#666666" points="244,-373.85 140,-373.85 140,-343.85 244,-343.85 244,-373.85"/>
<text text-anchor="start" x="148" y="-361.85" font-family="Roboto" font-size="10.00">Urho3D::RigidBody::</text>
<text text-anchor="middle" x="192" y="-350.85" font-family="Roboto" font-size="10.00">AddBodyToWorld</text>
</a>
</g>
</g>
<!-- Node1&#45;&gt;Node2 -->
<g id="edge1" class="edge">
<title>Node1&#45;&gt;Node2</title>
<path fill="none" stroke="#63b8ff" d="M104.39,-358.85C112.11,-358.85 120.15,-358.85 128.08,-358.85"/>
<polygon fill="#63b8ff" stroke="#63b8ff" points="128.06,-362.35 138.06,-358.85 128.06,-355.35 128.06,-362.35"/>
</g>
<!-- Node2&#45;&gt;Node2 -->
<g id="edge3" class="edge">
<title>Node2&#45;&gt;Node2</title>
<path fill="none" stroke="#63b8ff" d="M167.39,-374.13C161.92,-383.26 170.12,-391.85 192,-391.85 203.96,-391.85 211.84,-389.28 215.62,-385.46"/>
<polygon fill="#63b8ff" stroke="#63b8ff" points="219.1,-385.9 216.48,-375.64 212.12,-385.29 219.1,-385.9"/>
</g>
<!-- Node3 -->
<g id="node3" class="node">
<title>Node3</title>
<g id="a_node3"><a xlink:href="class_urho3_d_1_1_rigid_body.html#a0549375a0e491e9ce9871aa9fbad6a23" target="_top" xlink:title="Activate rigid body if it was resting.">
<polygon fill="white" stroke="#666666" points="769.5,-170.85 665.5,-170.85 665.5,-140.85 769.5,-140.85 769.5,-170.85"/>
<text text-anchor="start" x="673.5" y="-158.85" font-family="Roboto" font-size="10.00">Urho3D::RigidBody::</text>
<text text-anchor="middle" x="717.5" y="-147.85" font-family="Roboto" font-size="10.00">Activate</text>
</a>
</g>
</g>
<!-- Node2&#45;&gt;Node3 -->
<g id="edge2" class="edge">
<title>Node2&#45;&gt;Node3</title>
<path fill="none" stroke="#63b8ff" d="M194.85,-343.47C202.12,-285.72 230.83,-83.22 280,-45.85 401.76,46.68 482.75,-20.61 622,-83.85 648.63,-95.95 674.75,-116.73 692.76,-132.87"/>
<polygon fill="#63b8ff" stroke="#63b8ff" points="690.07,-135.15 699.8,-139.34 694.8,-130 690.07,-135.15"/>
</g>
<!-- Node4 -->
<g id="node4" class="node">
<title>Node4</title>
<g id="a_node4"><a xlink:href="class_urho3_d_1_1_p_o_d_vector.html#ac564a928bd75354adfdeb2b7fd225149" target="_top" xlink:title="Return iterator to the beginning.">
<polygon fill="white" stroke="#666666" points="412,-635.85 304,-635.85 304,-605.85 412,-605.85 412,-635.85"/>
<text text-anchor="start" x="312" y="-623.85" font-family="Roboto" font-size="10.00">Urho3D::PODVector::</text>
<text text-anchor="middle" x="358" y="-612.85" font-family="Roboto" font-size="10.00">Begin</text>
</a>
</g>
</g>
<!-- Node2&#45;&gt;Node4 -->
<g id="edge4" class="edge">
<title>Node2&#45;&gt;Node4</title>
<path fill="none" stroke="#63b8ff" d="M194.56,-374.32C199.47,-415.08 218.13,-526.58 280,-589.85 284.05,-594 288.73,-597.6 293.74,-600.74"/>
<polygon fill="#63b8ff" stroke="#63b8ff" points="291.93,-603.74 302.38,-605.48 295.29,-597.6 291.93,-603.74"/>
</g>
<!-- Node6 -->
<g id="node6" class="node">
<title>Node6</title>
<g id="a_node6"><a xlink:href="class_urho3_d_1_1_constraint.html#ac35c8dbd49e89d58bd3a27b7dcd050d1" target="_top" xlink:title="Create the constraint.">
<polygon fill="white" stroke="#666666" points="408,-562.85 308,-562.85 308,-532.85 408,-532.85 408,-562.85"/>
<text text-anchor="start" x="316" y="-550.85" font-family="Roboto" font-size="10.00">Urho3D::Constraint</text>
<text text-anchor="middle" x="358" y="-539.85" font-family="Roboto" font-size="10.00">::CreateConstraint</text>
</a>
</g>
</g>
<!-- Node2&#45;&gt;Node6 -->
<g id="edge6" class="edge">
<title>Node2&#45;&gt;Node6</title>
<path fill="none" stroke="#63b8ff" d="M197.25,-373.91C206.83,-405.25 233.03,-477.95 280,-518.85 285.23,-523.41 291.25,-527.28 297.57,-530.56"/>
<polygon fill="#63b8ff" stroke="#63b8ff" points="295.75,-533.58 306.3,-534.61 298.7,-527.23 295.75,-533.58"/>
</g>
<!-- Node8 -->
<g id="node8" class="node">
<title>Node8</title>
<g id="a_node8"><a xlink:href="class_urho3_d_1_1_unique_ptr.html#a0a3ac051f536377b767fb97eabc203f5" target="_top" xlink:title="Return the raw pointer.">
<polygon fill="white" stroke="#666666" points="777,-557.35 658,-557.35 658,-538.35 777,-538.35 777,-557.35"/>
<text text-anchor="middle" x="717.5" y="-545.35" font-family="Roboto" font-size="10.00">Urho3D::UniquePtr::Get</text>
</a>
</g>
</g>
<!-- Node2&#45;&gt;Node8 -->
<g id="edge17" class="edge">
<title>Node2&#45;&gt;Node8</title>
<path fill="none" stroke="#63b8ff" d="M244.12,-361.21C343.62,-366.59 559.1,-382.31 622,-419.85 664.93,-445.47 694.39,-498.84 707.97,-527.92"/>
<polygon fill="#63b8ff" stroke="#63b8ff" points="704.63,-529.02 711.91,-536.71 711.01,-526.15 704.63,-529.02"/>
</g>
<!-- Node10 -->
<g id="node10" class="node">
<title>Node10</title>
<g id="a_node10"><a xlink:href="class_urho3_d_1_1_component.html#aafa7952d0f225edde3387da0c91a9356" target="_top" xlink:title=" ">
<polygon fill="#fff0f0" stroke="red" points="602.5,-514.85 491.5,-514.85 491.5,-484.85 602.5,-484.85 602.5,-514.85"/>
<text text-anchor="start" x="499.5" y="-502.85" font-family="Roboto" font-size="10.00">Urho3D::Component::</text>
<text text-anchor="middle" x="547" y="-491.85" font-family="Roboto" font-size="10.00">IsEnabledEffective</text>
</a>
</g>
</g>
<!-- Node2&#45;&gt;Node10 -->
<g id="edge27" class="edge">
<title>Node2&#45;&gt;Node10</title>
<path fill="none" stroke="#63b8ff" d="M198.2,-373.99C208.69,-401.86 235.25,-460.74 280,-485.85 341.12,-520.15 423.1,-518.75 479.82,-511.89"/>
<polygon fill="#63b8ff" stroke="#63b8ff" points="480.21,-515.37 489.67,-510.6 479.3,-508.43 480.21,-515.37"/>
</g>
<!-- Node14 -->
<g id="node12" class="node">
<title>Node14</title>
<g id="a_node12"><a xlink:href="class_urho3_d_1_1_p_o_d_vector.html#ad9cedde70f6aac8dde2b7bfba7ca4fbb" target="_top" xlink:title="Return iterator to the end.">
<polygon fill="white" stroke="#666666" points="420.5,-685.35 295.5,-685.35 295.5,-666.35 420.5,-666.35 420.5,-685.35"/>
<text text-anchor="middle" x="358" y="-673.35" font-family="Roboto" font-size="10.00">Urho3D::PODVector::End</text>
</a>
</g>
</g>
<!-- Node2&#45;&gt;Node14 -->
<g id="edge15" class="edge">
<title>Node2&#45;&gt;Node14</title>
<path fill="none" stroke="#63b8ff" d="M193.24,-374.1C194.79,-420.83 205.67,-563.73 280,-644.85 286.3,-651.73 294.33,-657.11 302.82,-661.31"/>
<polygon fill="#63b8ff" stroke="#63b8ff" points="301.36,-664.49 311.92,-665.27 304.15,-658.07 301.36,-664.49"/>
</g>
<!-- Node15 -->
<g id="node13" class="node">
<title>Node15</title>
<g id="a_node13"><a xlink:href="class_urho3_d_1_1_node.html#a33c8b46fb4ba500ad71dbf7f2652066f" target="_top" xlink:title="Return all components.">
<polygon fill="white" stroke="#666666" points="436,-428.35 280,-428.35 280,-409.35 436,-409.35 436,-428.35"/>
<text text-anchor="middle" x="358" y="-416.35" font-family="Roboto" font-size="10.00">Urho3D::Node::GetComponents</text>
</a>
</g>
</g>
<!-- Node2&#45;&gt;Node15 -->
<g id="edge18" class="edge">
<title>Node2&#45;&gt;Node15</title>
<path fill="none" stroke="#63b8ff" d="M228.27,-374.3C243.98,-380.95 262.78,-388.62 280,-394.85 290.26,-398.57 301.41,-402.24 311.96,-405.56"/>
<polygon fill="#63b8ff" stroke="#63b8ff" points="310.63,-408.81 321.22,-408.43 312.7,-402.13 310.63,-408.81"/>
</g>
<!-- Node16 -->
<g id="node14" class="node">
<title>Node16</title>
<g id="a_node14"><a xlink:href="class_urho3_d_1_1_rigid_body.html#a37ae8640d12032625ad4529e379f7e87" target="_top" xlink:title="Handle SmoothedTransform target position update.">
<polygon fill="white" stroke="#666666" points="413.5,-304.85 302.5,-304.85 302.5,-274.85 413.5,-274.85 413.5,-304.85"/>
<text text-anchor="start" x="310.5" y="-292.85" font-family="Roboto" font-size="10.00">Urho3D::RigidBody::</text>
<text text-anchor="middle" x="358" y="-281.85" font-family="Roboto" font-size="10.00">HandleTargetPosition</text>
</a>
</g>
</g>
<!-- Node2&#45;&gt;Node16 -->
<g id="edge19" class="edge">
<title>Node2&#45;&gt;Node16</title>
<path fill="none" stroke="#63b8ff" d="M219.85,-343.41C236.75,-334.08 259.24,-322.38 280,-313.85 284.04,-312.19 288.23,-310.58 292.49,-309.03"/>
<polygon fill="#63b8ff" stroke="#63b8ff" points="293.42,-312.42 301.71,-305.81 291.11,-305.81 293.42,-312.42"/>
</g>
<!-- Node26 -->
<g id="node17" class="node">
<title>Node26</title>
<g id="a_node17"><a xlink:href="class_urho3_d_1_1_rigid_body.html#a82a3a354368c42172fe2b2f04e517311" target="_top" xlink:title="Handle SmoothedTransform target rotation update.">
<polygon fill="white" stroke="#666666" points="414,-256.85 302,-256.85 302,-226.85 414,-226.85 414,-256.85"/>
<text text-anchor="start" x="310" y="-244.85" font-family="Roboto" font-size="10.00">Urho3D::RigidBody::</text>
<text text-anchor="middle" x="358" y="-233.85" font-family="Roboto" font-size="10.00">HandleTargetRotation</text>
</a>
</g>
</g>
<!-- Node2&#45;&gt;Node26 -->
<g id="edge23" class="edge">
<title>Node2&#45;&gt;Node26</title>
<path fill="none" stroke="#63b8ff" d="M203.27,-343.69C217.95,-323.15 246.85,-286.65 280,-265.85 283.53,-263.64 287.28,-261.61 291.15,-259.77"/>
<polygon fill="#63b8ff" stroke="#63b8ff" points="292.4,-263.04 300.21,-255.87 289.64,-256.6 292.4,-263.04"/>
</g>
<!-- Node31 -->
<g id="node19" class="node">
<title>Node31</title>
<g id="a_node19"><a xlink:href="class_urho3_d_1_1_collision_shape.html#a8cfe09cb27ec041dedcd92a69293bcbc" target="_top" xlink:title="Update the new collision shape to the RigidBody.">
<polygon fill="#fff0f0" stroke="red" points="418,-476.85 298,-476.85 298,-446.85 418,-446.85 418,-476.85"/>
<text text-anchor="start" x="306" y="-464.85" font-family="Roboto" font-size="10.00">Urho3D::CollisionShape</text>
<text text-anchor="middle" x="358" y="-453.85" font-family="Roboto" font-size="10.00">::NotifyRigidBody</text>
</a>
</g>
</g>
<!-- Node2&#45;&gt;Node31 -->
<g id="edge28" class="edge">
<title>Node2&#45;&gt;Node31</title>
<path fill="none" stroke="#63b8ff" d="M206.3,-374.14C222.23,-391.57 250.47,-419.85 280,-436.85 283.17,-438.68 286.48,-440.39 289.89,-441.99"/>
<polygon fill="#63b8ff" stroke="#63b8ff" points="288.35,-445.14 298.92,-445.88 291.12,-438.71 288.35,-445.14"/>
</g>
<!-- Node33 -->
<g id="node20" class="node">
<title>Node33</title>
<g id="a_node20"><a xlink:href="class_urho3_d_1_1_rigid_body.html#a1bdc0a663b7be7779c7b0ca5e798a185" target="_top" xlink:title="Remove the rigid body from the physics world.">
<polygon fill="white" stroke="#666666" points="609.5,-744.85 484.5,-744.85 484.5,-714.85 609.5,-714.85 609.5,-744.85"/>
<text text-anchor="start" x="492.5" y="-732.85" font-family="Roboto" font-size="10.00">Urho3D::RigidBody::</text>
<text text-anchor="middle" x="547" y="-721.85" font-family="Roboto" font-size="10.00">RemoveBodyFromWorld</text>
</a>
</g>
</g>
<!-- Node2&#45;&gt;Node33 -->
<g id="edge32" class="edge">
<title>Node2&#45;&gt;Node33</title>
<path fill="none" stroke="#63b8ff" d="M194.73,-374.31C201.78,-434.36 230.35,-650.94 280,-694.85 332.12,-740.95 413.98,-745.16 473.13,-740.68"/>
<polygon fill="#63b8ff" stroke="#63b8ff" points="473.1,-744.2 482.76,-739.85 472.49,-737.23 473.1,-744.2"/>
</g>
<!-- Node34 -->
<g id="node21" class="node">
<title>Node34</title>
<g id="a_node21"><a xlink:href="class_urho3_d_1_1_rigid_body.html#a0df5cff91b5c733ed89b5a1e653fa9ca" target="_top" xlink:title=" ">
<polygon fill="#fff0f0" stroke="red" points="599,-122.85 495,-122.85 495,-92.85 599,-92.85 599,-122.85"/>
<text text-anchor="start" x="503" y="-110.85" font-family="Roboto" font-size="10.00">Urho3D::RigidBody::</text>
<text text-anchor="middle" x="547" y="-99.85" font-family="Roboto" font-size="10.00">SetAngularVelocity</text>
</a>
</g>
</g>
<!-- Node2&#45;&gt;Node34 -->
<g id="edge34" class="edge">
<title>Node2&#45;&gt;Node34</title>
<path fill="none" stroke="#63b8ff" d="M195.55,-343.39C202.31,-307.65 224.14,-219 280,-174.85 335.6,-130.91 367.41,-159.67 436,-141.85 453.22,-137.38 471.76,-131.91 488.63,-126.67"/>
<polygon fill="#63b8ff" stroke="#63b8ff" points="489.5,-130.07 497.99,-123.73 487.4,-123.39 489.5,-130.07"/>
</g>
<!-- Node35 -->
<g id="node22" class="node">
<title>Node35</title>
<g id="a_node22"><a xlink:href="class_urho3_d_1_1_rigid_body.html#a24ca02f33ced726d73ca08a0d5b3bb41" target="_top" xlink:title=" ">
<polygon fill="#fff0f0" stroke="red" points="599,-170.85 495,-170.85 495,-140.85 599,-140.85 599,-170.85"/>
<text text-anchor="start" x="503" y="-158.85" font-family="Roboto" font-size="10.00">Urho3D::RigidBody::</text>
<text text-anchor="middle" x="547" y="-147.85" font-family="Roboto" font-size="10.00">SetLinearVelocity</text>
</a>
</g>
</g>
<!-- Node2&#45;&gt;Node35 -->
<g id="edge36" class="edge">
<title>Node2&#45;&gt;Node35</title>
<path fill="none" stroke="#63b8ff" d="M197.87,-343.78C208.09,-314.61 234.7,-250.43 280,-217.85 296.52,-205.97 410.52,-182.14 483.82,-167.73"/>
<polygon fill="#63b8ff" stroke="#63b8ff" points="484.14,-171.23 493.29,-165.88 482.8,-164.37 484.14,-171.23"/>
</g>
<!-- Node36 -->
<g id="node23" class="node">
<title>Node36</title>
<g id="a_node23"><a xlink:href="class_urho3_d_1_1_object.html#a7d9d061f4cf32f5fd5531e11a72834b6" target="_top" xlink:title="Subscribe to an event that can be sent by any sender.">
<polygon fill="#fff0f0" stroke="red" points="423.5,-132.85 292.5,-132.85 292.5,-102.85 423.5,-102.85 423.5,-132.85"/>
<text text-anchor="start" x="300.5" y="-120.85" font-family="Roboto" font-size="10.00">Urho3D::Object::Subscribe</text>
<text text-anchor="middle" x="358" y="-109.85" font-family="Roboto" font-size="10.00">ToEvent</text>
</a>
</g>
</g>
<!-- Node2&#45;&gt;Node36 -->
<g id="edge38" class="edge">
<title>Node2&#45;&gt;Node36</title>
<path fill="none" stroke="#63b8ff" d="M195.06,-343.45C201,-304.94 221.64,-203.53 280,-146.85 282.99,-143.94 286.31,-141.32 289.83,-138.96"/>
<polygon fill="#63b8ff" stroke="#63b8ff" points="291.37,-142.11 298.25,-134.05 287.85,-136.06 291.37,-142.11"/>
</g>
<!-- Node41 -->
<g id="node24" class="node">
<title>Node41</title>
<g id="a_node24"><a xlink:href="class_urho3_d_1_1_rigid_body.html#a4d0f803bf8285833124c55ec86bcd3d3" target="_top" xlink:title="Update gravity parameters to the Bullet rigid body.">
<polygon fill="white" stroke="#666666" points="410,-84.85 306,-84.85 306,-54.85 410,-54.85 410,-84.85"/>
<text text-anchor="start" x="314" y="-72.85" font-family="Roboto" font-size="10.00">Urho3D::RigidBody::</text>
<text text-anchor="middle" x="358" y="-61.85" font-family="Roboto" font-size="10.00">UpdateGravity</text>
</a>
</g>
</g>
<!-- Node2&#45;&gt;Node41 -->
<g id="edge39" class="edge">
<title>Node2&#45;&gt;Node41</title>
<path fill="none" stroke="#63b8ff" d="M193.39,-343.49C195.36,-298.45 207.38,-165.38 280,-93.85 284.43,-89.49 289.63,-85.92 295.21,-83"/>
<polygon fill="#63b8ff" stroke="#63b8ff" points="296.47,-86.27 304.2,-79.02 293.63,-79.87 296.47,-86.27"/>
</g>
<!-- Node42 -->
<g id="node25" class="node">
<title>Node42</title>
<g id="a_node25"><a xlink:href="class_urho3_d_1_1_rigid_body.html#a1207bc70121deacf2aa07fde3c2731df" target="_top" xlink:title="Update mass and inertia to the Bullet rigid body. Readd body to world if necessary: if was in world a...">
<polygon fill="#fff0f0" stroke="red" points="410,-352.85 306,-352.85 306,-322.85 410,-322.85 410,-352.85"/>
<text text-anchor="start" x="314" y="-340.85" font-family="Roboto" font-size="10.00">Urho3D::RigidBody::</text>
<text text-anchor="middle" x="358" y="-329.85" font-family="Roboto" font-size="10.00">UpdateMass</text>
</a>
</g>
</g>
<!-- Node2&#45;&gt;Node42 -->
<g id="edge40" class="edge">
<title>Node2&#45;&gt;Node42</title>
<path fill="none" stroke="#63b8ff" d="M244.44,-352.27C260.32,-350.23 277.97,-347.97 294.51,-345.85"/>
<polygon fill="#63b8ff" stroke="#63b8ff" points="294.77,-349.35 304.24,-344.61 293.88,-342.41 294.77,-349.35"/>
</g>
<!-- Node5 -->
<g id="node5" class="node">
<title>Node5</title>
<g id="a_node5"><a xlink:href="class_urho3_d_1_1_p_o_d_vector.html#a75ae397d58ffa509b1c4df45913107d6" target="_top" xlink:title="Return the buffer with right type.">
<polygon fill="white" stroke="#666666" points="601,-696.85 493,-696.85 493,-666.85 601,-666.85 601,-696.85"/>
<text text-anchor="start" x="501" y="-684.85" font-family="Roboto" font-size="10.00">Urho3D::PODVector::</text>
<text text-anchor="middle" x="547" y="-673.85" font-family="Roboto" font-size="10.00">Buffer</text>
</a>
</g>
</g>
<!-- Node4&#45;&gt;Node5 -->
<g id="edge5" class="edge">
<title>Node4&#45;&gt;Node5</title>
<path fill="none" stroke="#63b8ff" d="M406.19,-636.25C430.9,-644.31 461.38,-654.25 487.57,-662.79"/>
<polygon fill="#63b8ff" stroke="#63b8ff" points="486.47,-666.12 497.06,-665.89 488.64,-659.46 486.47,-666.12"/>
</g>
<!-- Node6&#45;&gt;Node6 -->
<g id="edge9" class="edge">
<title>Node6&#45;&gt;Node6</title>
<path fill="none" stroke="#63b8ff" d="M328.82,-563.13C322.34,-572.26 332.06,-580.85 358,-580.85 372.18,-580.85 381.52,-578.28 386.01,-574.46"/>
<polygon fill="#63b8ff" stroke="#63b8ff" points="389.48,-574.94 387.02,-564.63 382.51,-574.22 389.48,-574.94"/>
</g>
<!-- Node7 -->
<g id="node7" class="node">
<title>Node7</title>
<g id="a_node7"><a xlink:href="class_urho3_d_1_1_constraint.html#a99f0746af3049d429da0c6c98dfcd8de" target="_top" xlink:title="Apply high and low constraint limits.">
<polygon fill="white" stroke="#666666" points="597,-562.85 497,-562.85 497,-532.85 597,-532.85 597,-562.85"/>
<text text-anchor="start" x="505" y="-550.85" font-family="Roboto" font-size="10.00">Urho3D::Constraint</text>
<text text-anchor="middle" x="547" y="-539.85" font-family="Roboto" font-size="10.00">::ApplyLimits</text>
</a>
</g>
</g>
<!-- Node6&#45;&gt;Node7 -->
<g id="edge7" class="edge">
<title>Node6&#45;&gt;Node7</title>
<path fill="none" stroke="#63b8ff" d="M408.13,-547.85C431.78,-547.85 460.36,-547.85 485.35,-547.85"/>
<polygon fill="#63b8ff" stroke="#63b8ff" points="485.03,-551.35 495.03,-547.85 485.03,-544.35 485.03,-551.35"/>
</g>
<!-- Node6&#45;&gt;Node8 -->
<g id="edge10" class="edge">
<title>Node6&#45;&gt;Node8</title>
<path fill="none" stroke="#63b8ff" d="M383.28,-563.29C398.44,-572.93 418.36,-585.61 436,-596.85 452.01,-607.06 453.78,-614.53 472,-619.85 535.99,-638.55 558.83,-641.17 622,-619.85 653.57,-609.2 682.93,-583.31 700.3,-565.67"/>
<polygon fill="#63b8ff" stroke="#63b8ff" points="702.41,-568.52 706.77,-558.87 697.34,-563.7 702.41,-568.52"/>
</g>
<!-- Node9 -->
<g id="node9" class="node">
<title>Node9</title>
<g id="a_node9"><a xlink:href="class_urho3_d_1_1_node.html#a8ae450b752efd7da057b842882d28a23" target="_top" xlink:title=" ">
<polygon fill="white" stroke="#666666" points="622,-466.35 472,-466.35 472,-447.35 622,-447.35 622,-466.35"/>
<text text-anchor="middle" x="547" y="-454.35" font-family="Roboto" font-size="10.00">Urho3D::Node::GetWorldScale</text>
</a>
</g>
</g>
<!-- Node6&#45;&gt;Node9 -->
<g id="edge11" class="edge">
<title>Node6&#45;&gt;Node9</title>
<path fill="none" stroke="#63b8ff" d="M378.73,-532.52C400.47,-516.31 437,-491.04 472,-475.85 476.84,-473.75 481.96,-471.85 487.16,-470.12"/>
<polygon fill="#63b8ff" stroke="#63b8ff" points="487.9,-473.56 496.44,-467.29 485.85,-466.87 487.9,-473.56"/>
</g>
<!-- Node6&#45;&gt;Node10 -->
<g id="edge12" class="edge">
<title>Node6&#45;&gt;Node10</title>
<path fill="none" stroke="#63b8ff" d="M408.13,-535.24C430.18,-529.58 456.51,-522.82 480.22,-516.74"/>
<polygon fill="#63b8ff" stroke="#63b8ff" points="480.99,-520.15 489.8,-514.28 479.25,-513.37 480.99,-520.15"/>
</g>
<!-- Node12 -->
<g id="node11" class="node">
<title>Node12</title>
<g id="a_node11"><a xlink:href="class_urho3_d_1_1_constraint.html#a96d464ec50d1fc25f2c176ecc77e1da8" target="_top" xlink:title="Release the constraint.">
<polygon fill="#fff0f0" stroke="red" points="597.5,-610.85 496.5,-610.85 496.5,-580.85 597.5,-580.85 597.5,-610.85"/>
<text text-anchor="start" x="504.5" y="-598.85" font-family="Roboto" font-size="10.00">Urho3D::Constraint</text>
<text text-anchor="middle" x="547" y="-587.85" font-family="Roboto" font-size="10.00">::ReleaseConstraint</text>
</a>
</g>
</g>
<!-- Node6&#45;&gt;Node12 -->
<g id="edge13" class="edge">
<title>Node6&#45;&gt;Node12</title>
<path fill="none" stroke="#63b8ff" d="M408.13,-560.46C431.79,-566.54 460.39,-573.88 485.39,-580.29"/>
<polygon fill="#63b8ff" stroke="#63b8ff" points="484.2,-583.6 494.76,-582.7 485.94,-576.82 484.2,-583.6"/>
</g>
<!-- Node7&#45;&gt;Node8 -->
<g id="edge8" class="edge">
<title>Node7&#45;&gt;Node8</title>
<path fill="none" stroke="#63b8ff" d="M597.19,-547.85C612.58,-547.85 629.87,-547.85 646.41,-547.85"/>
<polygon fill="#63b8ff" stroke="#63b8ff" points="646.2,-551.35 656.2,-547.85 646.2,-544.35 646.2,-551.35"/>
</g>
<!-- Node12&#45;&gt;Node8 -->
<g id="edge14" class="edge">
<title>Node12&#45;&gt;Node8</title>
<path fill="none" stroke="#63b8ff" d="M597.64,-581.71C620.73,-575.13 648.01,-567.36 670.61,-560.92"/>
<polygon fill="#63b8ff" stroke="#63b8ff" points="671.51,-564.31 680.17,-558.2 669.59,-557.58 671.51,-564.31"/>
</g>
<!-- Node14&#45;&gt;Node5 -->
<g id="edge16" class="edge">
<title>Node14&#45;&gt;Node5</title>
<path fill="none" stroke="#63b8ff" d="M420.75,-677.83C440.22,-678.46 461.79,-679.15 481.45,-679.78"/>
<polygon fill="#63b8ff" stroke="#63b8ff" points="481.16,-683.27 491.27,-680.1 481.39,-676.28 481.16,-683.27"/>
</g>
<!-- Node17 -->
<g id="node15" class="node">
<title>Node17</title>
<g id="a_node15"><a xlink:href="class_urho3_d_1_1_object.html#acc5ba824ee1b4e69c816920debba17ac" target="_top" xlink:title="Return active event sender. Null outside event handling.">
<polygon fill="#fff0f0" stroke="red" points="609.5,-266.85 484.5,-266.85 484.5,-236.85 609.5,-236.85 609.5,-266.85"/>
<text text-anchor="start" x="492.5" y="-254.85" font-family="Roboto" font-size="10.00">Urho3D::Object::GetEvent</text>
<text text-anchor="middle" x="547" y="-243.85" font-family="Roboto" font-size="10.00">Sender</text>
</a>
</g>
</g>
<!-- Node16&#45;&gt;Node17 -->
<g id="edge20" class="edge">
<title>Node16&#45;&gt;Node17</title>
<path fill="none" stroke="#63b8ff" d="M413.84,-278.71C432.4,-274.94 453.42,-270.67 473.15,-266.66"/>
<polygon fill="#63b8ff" stroke="#63b8ff" points="473.68,-270.12 482.78,-264.7 472.29,-263.26 473.68,-270.12"/>
</g>
<!-- Node19 -->
<g id="node16" class="node">
<title>Node19</title>
<g id="a_node16"><a xlink:href="class_urho3_d_1_1_rigid_body.html#aed70a2b7db10634aa8f98cbac628fd30" target="_top" xlink:title=" ">
<polygon fill="#fff0f0" stroke="red" points="599,-314.85 495,-314.85 495,-284.85 599,-284.85 599,-314.85"/>
<text text-anchor="start" x="503" y="-302.85" font-family="Roboto" font-size="10.00">Urho3D::RigidBody::</text>
<text text-anchor="middle" x="547" y="-291.85" font-family="Roboto" font-size="10.00">SetPosition</text>
</a>
</g>
</g>
<!-- Node16&#45;&gt;Node19 -->
<g id="edge21" class="edge">
<title>Node16&#45;&gt;Node19</title>
<path fill="none" stroke="#63b8ff" d="M413.84,-292.79C435.59,-293.95 460.73,-295.29 483.21,-296.49"/>
<polygon fill="#63b8ff" stroke="#63b8ff" points="483,-299.99 493.17,-297.03 483.37,-293 483,-299.99"/>
</g>
<!-- Node19&#45;&gt;Node3 -->
<g id="edge22" class="edge">
<title>Node19&#45;&gt;Node3</title>
<path fill="none" stroke="#63b8ff" d="M599.25,-287.64C607.25,-284.52 615.13,-280.64 622,-275.85 657.92,-250.82 686.81,-208.17 702.8,-181.04"/>
<polygon fill="#63b8ff" stroke="#63b8ff" points="705.79,-182.86 707.72,-172.44 699.71,-179.38 705.79,-182.86"/>
</g>
<!-- Node26&#45;&gt;Node17 -->
<g id="edge24" class="edge">
<title>Node26&#45;&gt;Node17</title>
<path fill="none" stroke="#63b8ff" d="M414.35,-244.81C432.71,-245.79 453.45,-246.9 472.94,-247.95"/>
<polygon fill="#63b8ff" stroke="#63b8ff" points="472.56,-251.43 482.73,-248.47 472.93,-244.44 472.56,-251.43"/>
</g>
<!-- Node27 -->
<g id="node18" class="node">
<title>Node27</title>
<g id="a_node18"><a xlink:href="class_urho3_d_1_1_rigid_body.html#a59d127c11fae5261bd7eca9873c2db95" target="_top" xlink:title=" ">
<polygon fill="#fff0f0" stroke="red" points="599,-218.85 495,-218.85 495,-188.85 599,-188.85 599,-218.85"/>
<text text-anchor="start" x="503" y="-206.85" font-family="Roboto" font-size="10.00">Urho3D::RigidBody::</text>
<text text-anchor="middle" x="547" y="-195.85" font-family="Roboto" font-size="10.00">SetRotation</text>
</a>
</g>
</g>
<!-- Node26&#45;&gt;Node27 -->
<g id="edge25" class="edge">
<title>Node26&#45;&gt;Node27</title>
<path fill="none" stroke="#63b8ff" d="M414.35,-230.61C436.09,-226.19 461.16,-221.09 483.54,-216.54"/>
<polygon fill="#63b8ff" stroke="#63b8ff" points="484.05,-220.01 493.15,-214.59 482.65,-213.15 484.05,-220.01"/>
</g>
<!-- Node27&#45;&gt;Node3 -->
<g id="edge26" class="edge">
<title>Node27&#45;&gt;Node3</title>
<path fill="none" stroke="#63b8ff" d="M599.47,-189.19C616.7,-184.28 636.1,-178.76 654.08,-173.63"/>
<polygon fill="#63b8ff" stroke="#63b8ff" points="654.94,-177.03 663.6,-170.92 653.02,-170.3 654.94,-177.03"/>
</g>
<!-- Node31&#45;&gt;Node8 -->
<g id="edge29" class="edge">
<title>Node31&#45;&gt;Node8</title>
<path fill="none" stroke="#63b8ff" d="M418.44,-446.79C435.61,-443.11 454.45,-439.7 472,-437.85 538.3,-430.89 561.42,-410.03 622,-437.85 662.44,-456.42 692.09,-501.79 706.56,-528.09"/>
<polygon fill="#63b8ff" stroke="#63b8ff" points="703.36,-529.52 711.12,-536.73 709.55,-526.25 703.36,-529.52"/>
</g>
<!-- Node31&#45;&gt;Node9 -->
<g id="edge30" class="edge">
<title>Node31&#45;&gt;Node9</title>
<path fill="none" stroke="#63b8ff" d="M418.42,-460.26C431.76,-459.91 446.16,-459.52 460.33,-459.14"/>
<polygon fill="#63b8ff" stroke="#63b8ff" points="460.19,-462.65 470.09,-458.88 460,-455.65 460.19,-462.65"/>
</g>
<!-- Node31&#45;&gt;Node10 -->
<g id="edge31" class="edge">
<title>Node31&#45;&gt;Node10</title>
<path fill="none" stroke="#63b8ff" d="M418.42,-473.93C438.01,-477.91 459.9,-482.36 479.94,-486.43"/>
<polygon fill="#63b8ff" stroke="#63b8ff" points="479.2,-489.85 489.69,-488.41 480.59,-482.99 479.2,-489.85"/>
</g>
<!-- Node33&#45;&gt;Node8 -->
<g id="edge33" class="edge">
<title>Node33&#45;&gt;Node8</title>
<path fill="none" stroke="#63b8ff" d="M608.49,-714.43C613.3,-711.97 617.88,-709.13 622,-705.85 668.53,-668.78 697.36,-602.09 709.62,-568.45"/>
<polygon fill="#63b8ff" stroke="#63b8ff" points="712.9,-569.69 712.9,-559.09 706.29,-567.38 712.9,-569.69"/>
</g>
<!-- Node34&#45;&gt;Node3 -->
<g id="edge35" class="edge">
<title>Node34&#45;&gt;Node3</title>
<path fill="none" stroke="#63b8ff" d="M599.47,-122.51C616.7,-127.42 636.1,-132.95 654.08,-138.07"/>
<polygon fill="#63b8ff" stroke="#63b8ff" points="653.02,-141.41 663.6,-140.78 654.94,-134.68 653.02,-141.41"/>
</g>
<!-- Node35&#45;&gt;Node3 -->
<g id="edge37" class="edge">
<title>Node35&#45;&gt;Node3</title>
<path fill="none" stroke="#63b8ff" d="M599.47,-155.85C616.54,-155.85 635.74,-155.85 653.57,-155.85"/>
<polygon fill="#63b8ff" stroke="#63b8ff" points="653.54,-159.35 663.54,-155.85 653.54,-152.35 653.54,-159.35"/>
</g>
<!-- Node42&#45;&gt;Node8 -->
<g id="edge41" class="edge">
<title>Node42&#45;&gt;Node8</title>
<path fill="none" stroke="#63b8ff" d="M410.32,-330.13C467.16,-324.4 559.05,-323.81 622,-366.85 678.12,-405.22 703.19,-487.69 712.24,-526.64"/>
<polygon fill="#63b8ff" stroke="#63b8ff" points="708.81,-527.35 714.35,-536.38 715.65,-525.86 708.81,-527.35"/>
</g>
<!-- Node42&#45;&gt;Node19 -->
<g id="edge42" class="edge">
<title>Node42&#45;&gt;Node19</title>
<path fill="none" stroke="#63b8ff" d="M410.1,-327.47C432.78,-322.86 459.69,-317.39 483.56,-312.54"/>
<polygon fill="#63b8ff" stroke="#63b8ff" points="484.05,-316.01 493.16,-310.59 482.66,-309.15 484.05,-316.01"/>
</g>
</g>
</svg>
