<?xml version="1.0" encoding="UTF-8" standalone="no"?>
<!DOCTYPE svg PUBLIC "-//W3C//DTD SVG 1.1//EN"
 "http://www.w3.org/Graphics/SVG/1.1/DTD/svg11.dtd">
<!-- Generated by graphviz version 7.0.3 (0)
 -->
<!-- Title: Urho3D::JSONValue::GetValueType Pages: 1 -->
<svg width="624pt" height="599pt"
 viewBox="0.00 0.00 624.00 598.50" xmlns="http://www.w3.org/2000/svg" xmlns:xlink="http://www.w3.org/1999/xlink">
<g id="graph0" class="graph" transform="scale(1 1) rotate(0) translate(4 594.5)">
<title>Urho3D::JSONValue::GetValueType</title>
<!-- Node1 -->
<g id="node1" class="node">
<title>Node1</title>
<g id="a_node1"><a xlink:title=" ">
<polygon fill="#999999" stroke="#666666" points="616,-297.5 507,-297.5 507,-267.5 616,-267.5 616,-297.5"/>
<text text-anchor="start" x="515" y="-285.5" font-family="Roboto" font-size="10.00">Urho3D::JSONValue::</text>
<text text-anchor="middle" x="561.5" y="-274.5" font-family="Roboto" font-size="10.00">GetValueType</text>
</a>
</g>
</g>
<!-- Node2 -->
<g id="node2" class="node">
<title>Node2</title>
<g id="a_node2"><a xlink:href="class_urho3_d_1_1_j_s_o_n_value.html#a5d201ed16c4fe1f3b7cc59eb72a67fcc" target="_top" xlink:title="Return iterator to the beginning.">
<polygon fill="white" stroke="#666666" points="461.5,-583.5 352.5,-583.5 352.5,-553.5 461.5,-553.5 461.5,-583.5"/>
<text text-anchor="start" x="360.5" y="-571.5" font-family="Roboto" font-size="10.00">Urho3D::JSONValue::</text>
<text text-anchor="middle" x="407" y="-560.5" font-family="Roboto" font-size="10.00">Begin</text>
</a>
</g>
</g>
<!-- Node1&#45;&gt;Node2 -->
<g id="edge1" class="edge">
<title>Node1&#45;&gt;Node2</title>
<path fill="none" stroke="#63b8ff" d="M558.72,-309.02C553.85,-361.05 535.92,-477.28 471,-544.5 467.83,-547.78 464.16,-550.62 460.22,-553.08"/>
<polygon fill="#63b8ff" stroke="#63b8ff" points="562.19,-309.57 559.54,-299.31 555.21,-308.99 562.19,-309.57"/>
</g>
<!-- Node3 -->
<g id="node3" class="node">
<title>Node3</title>
<g id="a_node3"><a xlink:href="class_urho3_d_1_1_j_s_o_n_value.html#a3cc9ca81f8840109329e4e644cf94bbd" target="_top" xlink:title="Clear array or object.">
<polygon fill="white" stroke="#666666" points="461.5,-535.5 352.5,-535.5 352.5,-505.5 461.5,-505.5 461.5,-535.5"/>
<text text-anchor="start" x="360.5" y="-523.5" font-family="Roboto" font-size="10.00">Urho3D::JSONValue::</text>
<text text-anchor="middle" x="407" y="-512.5" font-family="Roboto" font-size="10.00">Clear</text>
</a>
</g>
</g>
<!-- Node1&#45;&gt;Node3 -->
<g id="edge2" class="edge">
<title>Node1&#45;&gt;Node3</title>
<path fill="none" stroke="#63b8ff" d="M556.34,-309.07C548.01,-353.7 525.21,-444.01 471,-496.5 467.64,-499.76 463.79,-502.58 459.68,-505.03"/>
<polygon fill="#63b8ff" stroke="#63b8ff" points="559.78,-309.7 558.06,-299.25 552.89,-308.5 559.78,-309.7"/>
</g>
<!-- Node4 -->
<g id="node4" class="node">
<title>Node4</title>
<g id="a_node4"><a xlink:href="class_urho3_d_1_1_j_s_o_n_value.html#a621ebce4250fb5971da25974b3fa3e8e" target="_top" xlink:title="Return whether contains a pair with key.">
<polygon fill="white" stroke="#666666" points="461.5,-487.5 352.5,-487.5 352.5,-457.5 461.5,-457.5 461.5,-487.5"/>
<text text-anchor="start" x="360.5" y="-475.5" font-family="Roboto" font-size="10.00">Urho3D::JSONValue::</text>
<text text-anchor="middle" x="407" y="-464.5" font-family="Roboto" font-size="10.00">Contains</text>
</a>
</g>
</g>
<!-- Node1&#45;&gt;Node4 -->
<g id="edge3" class="edge">
<title>Node1&#45;&gt;Node4</title>
<path fill="none" stroke="#63b8ff" d="M552.97,-308.23C541.16,-344.34 514.97,-409.92 471,-448.5 467.3,-451.74 463.13,-454.57 458.72,-457.02"/>
<polygon fill="#63b8ff" stroke="#63b8ff" points="556.19,-309.65 555.85,-299.06 549.51,-307.55 556.19,-309.65"/>
</g>
<!-- Node5 -->
<g id="node5" class="node">
<title>Node5</title>
<g id="a_node5"><a xlink:href="class_urho3_d_1_1_j_s_o_n_value.html#ab31ea008137a3a7eb2813b38eb42f963" target="_top" xlink:title="Return iterator to the beginning.">
<polygon fill="white" stroke="#666666" points="470,-439 344,-439 344,-420 470,-420 470,-439"/>
<text text-anchor="middle" x="407" y="-427" font-family="Roboto" font-size="10.00">Urho3D::JSONValue::End</text>
</a>
</g>
</g>
<!-- Node1&#45;&gt;Node5 -->
<g id="edge4" class="edge">
<title>Node1&#45;&gt;Node5</title>
<path fill="none" stroke="#63b8ff" d="M549.24,-307.76C535.06,-336.74 508,-383.71 471,-410.5 465.91,-414.19 460.1,-417.16 454.11,-419.57"/>
<polygon fill="#63b8ff" stroke="#63b8ff" points="552.28,-309.52 553.39,-298.98 545.96,-306.52 552.28,-309.52"/>
</g>
<!-- Node6 -->
<g id="node6" class="node">
<title>Node6</title>
<g id="a_node6"><a xlink:href="class_urho3_d_1_1_j_s_o_n_value.html#a454ee7b38116a1838b124b65aed859f3" target="_top" xlink:title="Erase a range of JSON values.">
<polygon fill="white" stroke="#666666" points="461.5,-401.5 352.5,-401.5 352.5,-371.5 461.5,-371.5 461.5,-401.5"/>
<text text-anchor="start" x="360.5" y="-389.5" font-family="Roboto" font-size="10.00">Urho3D::JSONValue::</text>
<text text-anchor="middle" x="407" y="-378.5" font-family="Roboto" font-size="10.00">Erase</text>
</a>
</g>
</g>
<!-- Node1&#45;&gt;Node6 -->
<g id="edge5" class="edge">
<title>Node1&#45;&gt;Node6</title>
<path fill="none" stroke="#63b8ff" d="M538.95,-305.94C521.88,-323.41 496.7,-346.86 471,-362.5 465.8,-365.66 460.11,-368.53 454.35,-371.1"/>
<polygon fill="#63b8ff" stroke="#63b8ff" points="541.21,-308.64 545.6,-299 536.16,-303.8 541.21,-308.64"/>
</g>
<!-- Node7 -->
<g id="node7" class="node">
<title>Node7</title>
<g id="a_node7"><a xlink:href="class_urho3_d_1_1_j_s_o_n_value.html#a8ef53c37d618d5fb4d4288135c289ae7" target="_top" xlink:title="Return JSON value with key.">
<polygon fill="#fff0f0" stroke="red" points="469,-353 345,-353 345,-334 469,-334 469,-353"/>
<text text-anchor="middle" x="407" y="-341" font-family="Roboto" font-size="10.00">Urho3D::JSONValue::Get</text>
</a>
</g>
</g>
<!-- Node1&#45;&gt;Node7 -->
<g id="edge6" class="edge">
<title>Node1&#45;&gt;Node7</title>
<path fill="none" stroke="#63b8ff" d="M520.58,-302.76C505.29,-310.11 487.54,-318.16 471,-324.5 462.47,-327.77 453.11,-330.85 444.29,-333.54"/>
<polygon fill="#63b8ff" stroke="#63b8ff" points="521.92,-306 529.37,-298.47 518.85,-299.71 521.92,-306"/>
</g>
<!-- Node33 -->
<g id="node19" class="node">
<title>Node33</title>
<g id="a_node19"><a xlink:href="class_urho3_d_1_1_j_s_o_n_value.html#a70402e8589b4bf3eaded5ddeb422e5b0" target="_top" xlink:title=" ">
<polygon fill="white" stroke="#666666" points="461.5,-297.5 352.5,-297.5 352.5,-267.5 461.5,-267.5 461.5,-297.5"/>
<text text-anchor="start" x="360.5" y="-285.5" font-family="Roboto" font-size="10.00">Urho3D::JSONValue::</text>
<text text-anchor="middle" x="407" y="-274.5" font-family="Roboto" font-size="10.00">GetValueTypeName</text>
</a>
</g>
</g>
<!-- Node1&#45;&gt;Node33 -->
<g id="edge20" class="edge">
<title>Node1&#45;&gt;Node33</title>
<path fill="none" stroke="#63b8ff" d="M495.26,-282.5C484.1,-282.5 472.62,-282.5 461.79,-282.5"/>
<polygon fill="#63b8ff" stroke="#63b8ff" points="495.22,-286 505.22,-282.5 495.22,-279 495.22,-286"/>
</g>
<!-- Node34 -->
<g id="node20" class="node">
<title>Node34</title>
<g id="a_node20"><a xlink:href="class_urho3_d_1_1_j_s_o_n_value.html#a2783dbe89ba7d558ca49b848a5e734d0" target="_top" xlink:title="Insert an JSON value at position.">
<polygon fill="white" stroke="#666666" points="461.5,-249.5 352.5,-249.5 352.5,-219.5 461.5,-219.5 461.5,-249.5"/>
<text text-anchor="start" x="360.5" y="-237.5" font-family="Roboto" font-size="10.00">Urho3D::JSONValue::</text>
<text text-anchor="middle" x="407" y="-226.5" font-family="Roboto" font-size="10.00">Insert</text>
</a>
</g>
</g>
<!-- Node1&#45;&gt;Node34 -->
<g id="edge22" class="edge">
<title>Node1&#45;&gt;Node34</title>
<path fill="none" stroke="#63b8ff" d="M500.56,-263.63C486.13,-259.09 470.87,-254.29 457,-249.92"/>
<polygon fill="#63b8ff" stroke="#63b8ff" points="499.38,-266.93 509.96,-266.59 501.48,-260.25 499.38,-266.93"/>
</g>
<!-- Node35 -->
<g id="node21" class="node">
<title>Node35</title>
<g id="a_node21"><a xlink:href="class_urho3_d_1_1_j_s_o_n_value.html#ac8bd29e781182940397d0de67c9d60e0" target="_top" xlink:title="Assign from another JSON value.">
<polygon fill="white" stroke="#666666" points="461.5,-201.5 352.5,-201.5 352.5,-171.5 461.5,-171.5 461.5,-201.5"/>
<text text-anchor="start" x="360.5" y="-189.5" font-family="Roboto" font-size="10.00">Urho3D::JSONValue::</text>
<text text-anchor="middle" x="407" y="-178.5" font-family="Roboto" font-size="10.00">operator=</text>
</a>
</g>
</g>
<!-- Node1&#45;&gt;Node35 -->
<g id="edge23" class="edge">
<title>Node1&#45;&gt;Node35</title>
<path fill="none" stroke="#63b8ff" d="M536.18,-259.42C519,-244.03 494.86,-224.19 471,-210.5 465.52,-207.36 459.54,-204.47 453.53,-201.87"/>
<polygon fill="#63b8ff" stroke="#63b8ff" points="533.63,-261.83 543.38,-265.99 538.35,-256.66 533.63,-261.83"/>
</g>
<!-- Node36 -->
<g id="node22" class="node">
<title>Node36</title>
<g id="a_node22"><a xlink:href="class_urho3_d_1_1_j_s_o_n_value.html#ad94fc99b7d23c01aeffe0b37ef997be4" target="_top" xlink:title="Return JSON value at index.">
<polygon fill="white" stroke="#666666" points="461.5,-153.5 352.5,-153.5 352.5,-123.5 461.5,-123.5 461.5,-153.5"/>
<text text-anchor="start" x="360.5" y="-141.5" font-family="Roboto" font-size="10.00">Urho3D::JSONValue::</text>
<text text-anchor="middle" x="407" y="-130.5" font-family="Roboto" font-size="10.00">operator[]</text>
</a>
</g>
</g>
<!-- Node1&#45;&gt;Node36 -->
<g id="edge24" class="edge">
<title>Node1&#45;&gt;Node36</title>
<path fill="none" stroke="#63b8ff" d="M547.36,-257.2C532.24,-230.32 505.05,-188.22 471,-162.5 466.7,-159.25 461.92,-156.4 456.96,-153.9"/>
<polygon fill="#63b8ff" stroke="#63b8ff" points="544.14,-258.6 552.01,-265.7 550.28,-255.24 544.14,-258.6"/>
</g>
<!-- Node37 -->
<g id="node23" class="node">
<title>Node37</title>
<g id="a_node23"><a xlink:href="class_urho3_d_1_1_j_s_o_n_value.html#ac3ea500b15c728aea30078a1a5d75b6a" target="_top" xlink:title="Remove the last JSON value.">
<polygon fill="white" stroke="#666666" points="470,-105 344,-105 344,-86 470,-86 470,-105"/>
<text text-anchor="middle" x="407" y="-93" font-family="Roboto" font-size="10.00">Urho3D::JSONValue::Pop</text>
</a>
</g>
</g>
<!-- Node1&#45;&gt;Node37 -->
<g id="edge25" class="edge">
<title>Node1&#45;&gt;Node37</title>
<path fill="none" stroke="#63b8ff" d="M553.6,-256.58C542.43,-219.63 516.88,-152.14 471,-114.5 466.5,-110.8 461.29,-107.83 455.83,-105.43"/>
<polygon fill="#63b8ff" stroke="#63b8ff" points="550.17,-257.33 556.31,-265.97 556.9,-255.39 550.17,-257.33"/>
</g>
<!-- Node38 -->
<g id="node24" class="node">
<title>Node38</title>
<g id="a_node24"><a xlink:href="class_urho3_d_1_1_j_s_o_n_value.html#aaa39b31173d0e0dd2021de34b08cc4a0" target="_top" xlink:title="Set value type and number type, internal function.">
<polygon fill="#fff0f0" stroke="red" points="461.5,-67.5 352.5,-67.5 352.5,-37.5 461.5,-37.5 461.5,-67.5"/>
<text text-anchor="start" x="360.5" y="-55.5" font-family="Roboto" font-size="10.00">Urho3D::JSONValue::</text>
<text text-anchor="middle" x="407" y="-44.5" font-family="Roboto" font-size="10.00">SetType</text>
</a>
</g>
</g>
<!-- Node1&#45;&gt;Node38 -->
<g id="edge26" class="edge">
<title>Node1&#45;&gt;Node38</title>
<path fill="none" stroke="#63b8ff" d="M555.86,-256C546.95,-212.71 523.47,-126.61 471,-76.5 467.53,-73.19 463.56,-70.32 459.33,-67.84"/>
<polygon fill="#63b8ff" stroke="#63b8ff" points="552.41,-256.62 557.75,-265.77 559.28,-255.29 552.41,-256.62"/>
</g>
<!-- Node62 -->
<g id="node25" class="node">
<title>Node62</title>
<g id="a_node25"><a xlink:href="class_urho3_d_1_1_j_s_o_n_value.html#a3d68e1b4e5acb3c8c5f1cb67e4bdab5b" target="_top" xlink:title=" ">
<polygon fill="#fff0f0" stroke="red" points="471,-19 343,-19 343,0 471,0 471,-19"/>
<text text-anchor="middle" x="407" y="-7" font-family="Roboto" font-size="10.00">Urho3D::JSONValue::Size</text>
</a>
</g>
</g>
<!-- Node1&#45;&gt;Node62 -->
<g id="edge27" class="edge">
<title>Node1&#45;&gt;Node62</title>
<path fill="none" stroke="#63b8ff" d="M558.8,-255.68C554.09,-204.18 536.44,-91 471,-28.5 467.12,-24.79 462.54,-21.8 457.65,-19.4"/>
<polygon fill="#63b8ff" stroke="#63b8ff" points="555.31,-255.91 559.6,-265.59 562.29,-255.34 555.31,-255.91"/>
</g>
<!-- Node8 -->
<g id="node8" class="node">
<title>Node8</title>
<g id="a_node8"><a xlink:href="class_urho3_d_1_1_animation.html#a457f24ea561a38677e2994741f6d863e" target="_top" xlink:title="Load resource from stream. May be called from a worker thread. Return true if successful.">
<polygon fill="white" stroke="#666666" points="275.5,-590.5 171.5,-590.5 171.5,-560.5 275.5,-560.5 275.5,-590.5"/>
<text text-anchor="start" x="179.5" y="-578.5" font-family="Roboto" font-size="10.00">Urho3D::Animation::</text>
<text text-anchor="middle" x="223.5" y="-567.5" font-family="Roboto" font-size="10.00">BeginLoad</text>
</a>
</g>
</g>
<!-- Node7&#45;&gt;Node8 -->
<g id="edge7" class="edge">
<title>Node7&#45;&gt;Node8</title>
<path fill="none" stroke="#63b8ff" d="M345.25,-360.2C344.47,-360.94 343.72,-361.7 343,-362.5 285.78,-426.05 364.53,-488.24 307,-551.5 298.77,-560.55 287.35,-566.26 275.62,-569.85"/>
<polygon fill="#63b8ff" stroke="#63b8ff" points="347.27,-363.06 353.33,-354.38 343.18,-357.38 347.27,-363.06"/>
</g>
<!-- Node9 -->
<g id="node9" class="node">
<title>Node9</title>
<g id="a_node9"><a xlink:href="class_urho3_d_1_1_sprite_sheet2_d.html#a6ac266c978182f23967a322b022b22a9" target="_top" xlink:title="Begin load from JSON file.">
<polygon fill="#fff0f0" stroke="red" points="289,-542.5 158,-542.5 158,-512.5 289,-512.5 289,-542.5"/>
<text text-anchor="start" x="166" y="-530.5" font-family="Roboto" font-size="10.00">Urho3D::SpriteSheet2D</text>
<text text-anchor="middle" x="223.5" y="-519.5" font-family="Roboto" font-size="10.00">::BeginLoadFromJSONFile</text>
</a>
</g>
</g>
<!-- Node7&#45;&gt;Node9 -->
<g id="edge8" class="edge">
<title>Node7&#45;&gt;Node9</title>
<path fill="none" stroke="#63b8ff" d="M346.16,-359.54C345.06,-360.47 344,-361.46 343,-362.5 298.26,-409.2 351.97,-457.02 307,-503.5 301.92,-508.75 295.76,-512.87 289.12,-516.11"/>
<polygon fill="#63b8ff" stroke="#63b8ff" points="347.76,-362.67 354.14,-354.22 343.88,-356.85 347.76,-362.67"/>
</g>
<!-- Node11 -->
<g id="node10" class="node">
<title>Node11</title>
<g id="a_node10"><a xlink:href="class_urho3_d_1_1_material.html#a4395cdd6b565b52783713ea1712ec0c1" target="_top" xlink:title="Helper function for loading JSON files.">
<polygon fill="#fff0f0" stroke="red" points="307,-494 140,-494 140,-475 307,-475 307,-494"/>
<text text-anchor="middle" x="223.5" y="-482" font-family="Roboto" font-size="10.00">Urho3D::Material::BeginLoadJSON</text>
</a>
</g>
</g>
<!-- Node7&#45;&gt;Node11 -->
<g id="edge9" class="edge">
<title>Node7&#45;&gt;Node11</title>
<path fill="none" stroke="#63b8ff" d="M346.83,-359.23C345.49,-360.25 344.21,-361.34 343,-362.5 307.98,-396.04 343.12,-433.14 307,-465.5 302.95,-469.13 298.35,-472.1 293.43,-474.54"/>
<polygon fill="#63b8ff" stroke="#63b8ff" points="348.36,-362.39 355.06,-354.18 344.7,-356.43 348.36,-362.39"/>
</g>
<!-- Node13 -->
<g id="node11" class="node">
<title>Node13</title>
<g id="a_node11"><a xlink:href="class_urho3_d_1_1_sprite_sheet2_d.html#a342ae88d8e8f88834900568a735e6f67" target="_top" xlink:title="End load from JSON file.">
<polygon fill="#fff0f0" stroke="red" points="286,-456.5 161,-456.5 161,-426.5 286,-426.5 286,-456.5"/>
<text text-anchor="start" x="169" y="-444.5" font-family="Roboto" font-size="10.00">Urho3D::SpriteSheet2D</text>
<text text-anchor="middle" x="223.5" y="-433.5" font-family="Roboto" font-size="10.00">::EndLoadFromJSONFile</text>
</a>
</g>
</g>
<!-- Node7&#45;&gt;Node13 -->
<g id="edge10" class="edge">
<title>Node7&#45;&gt;Node13</title>
<path fill="none" stroke="#63b8ff" d="M349.34,-358.34C347.13,-359.62 345.01,-361 343,-362.5 319.6,-380 330.48,-400.12 307,-417.5 300.77,-422.11 293.66,-425.84 286.29,-428.86"/>
<polygon fill="#63b8ff" stroke="#63b8ff" points="350.63,-361.61 358.09,-354.08 347.57,-355.31 350.63,-361.61"/>
</g>
<!-- Node15 -->
<g id="node12" class="node">
<title>Node15</title>
<g id="a_node12"><a xlink:href="class_urho3_d_1_1_scene.html#a03f80f9703e4d92e89b0de7fd930d239" target="_top" xlink:title="Instantiate scene content from JSON data. Return root node if successful.">
<polygon fill="white" stroke="#666666" points="302.5,-390 144.5,-390 144.5,-371 302.5,-371 302.5,-390"/>
<text text-anchor="middle" x="223.5" y="-378" font-family="Roboto" font-size="10.00">Urho3D::Scene::InstantiateJSON</text>
</a>
</g>
</g>
<!-- Node7&#45;&gt;Node15 -->
<g id="edge11" class="edge">
<title>Node7&#45;&gt;Node15</title>
<path fill="none" stroke="#63b8ff" d="M346.38,-355.65C322.68,-360.48 295.77,-365.97 273.27,-370.56"/>
<polygon fill="#63b8ff" stroke="#63b8ff" points="346.78,-359.14 355.88,-353.72 345.38,-352.29 346.78,-359.14"/>
</g>
<!-- Node16 -->
<g id="node13" class="node">
<title>Node16</title>
<g id="a_node13"><a xlink:href="class_urho3_d_1_1_material.html#a2f610bf80fad592119370c0682d9c324" target="_top" xlink:title="Load from a JSON value. Return true if successful.">
<polygon fill="white" stroke="#666666" points="282.5,-353 164.5,-353 164.5,-334 282.5,-334 282.5,-353"/>
<text text-anchor="middle" x="223.5" y="-341" font-family="Roboto" font-size="10.00">Urho3D::Material::Load</text>
</a>
</g>
</g>
<!-- Node7&#45;&gt;Node16 -->
<g id="edge13" class="edge">
<title>Node7&#45;&gt;Node16</title>
<path fill="none" stroke="#63b8ff" d="M333.14,-343.5C316.41,-343.5 298.84,-343.5 282.82,-343.5"/>
<polygon fill="#63b8ff" stroke="#63b8ff" points="333.04,-347 343.04,-343.5 333.04,-340 333.04,-347"/>
</g>
<!-- Node17 -->
<g id="node14" class="node">
<title>Node17</title>
<g id="a_node14"><a xlink:href="class_urho3_d_1_1_scene.html#aa66ba16b03bd936a00b96e18da703947" target="_top" xlink:title="Load from a JSON file asynchronously. Return true if started successfully. The LOAD_RESOURCES_ONLY mo...">
<polygon fill="white" stroke="#666666" points="304,-316 143,-316 143,-297 304,-297 304,-316"/>
<text text-anchor="middle" x="223.5" y="-304" font-family="Roboto" font-size="10.00">Urho3D::Scene::LoadAsyncJSON</text>
</a>
</g>
</g>
<!-- Node7&#45;&gt;Node17 -->
<g id="edge14" class="edge">
<title>Node7&#45;&gt;Node17</title>
<path fill="none" stroke="#63b8ff" d="M346.38,-331.35C322.68,-326.52 295.77,-321.03 273.27,-316.44"/>
<polygon fill="#63b8ff" stroke="#63b8ff" points="345.38,-334.71 355.88,-333.28 346.78,-327.86 345.38,-334.71"/>
</g>
<!-- Node18 -->
<g id="node15" class="node">
<title>Node18</title>
<g id="a_node15"><a xlink:href="class_urho3_d_1_1_object_animation.html#a6abe177f7630bc448bf4ffe7d0a0695c" target="_top" xlink:title="Load from JSON data. Return true if successful.">
<polygon fill="white" stroke="#666666" points="287.5,-278.5 159.5,-278.5 159.5,-248.5 287.5,-248.5 287.5,-278.5"/>
<text text-anchor="start" x="167.5" y="-266.5" font-family="Roboto" font-size="10.00">Urho3D::ObjectAnimation</text>
<text text-anchor="middle" x="223.5" y="-255.5" font-family="Roboto" font-size="10.00">::LoadJSON</text>
</a>
</g>
</g>
<!-- Node7&#45;&gt;Node18 -->
<g id="edge15" class="edge">
<title>Node7&#45;&gt;Node18</title>
<path fill="none" stroke="#63b8ff" d="M352.28,-329.34C349.06,-327.87 345.94,-326.26 343,-324.5 323.58,-312.88 326.41,-300.13 307,-288.5 300.84,-284.81 294.09,-281.62 287.18,-278.88"/>
<polygon fill="#63b8ff" stroke="#63b8ff" points="350.78,-332.51 361.36,-333 353.4,-326.02 350.78,-332.51"/>
</g>
<!-- Node19 -->
<g id="node16" class="node">
<title>Node19</title>
<g id="a_node16"><a xlink:href="class_urho3_d_1_1_serializable.html#a7363a7dda75d1dc158a0841d459b32e4" target="_top" xlink:title="Load from JSON data. Return true if successful.">
<polygon fill="white" stroke="#666666" points="276,-230.5 171,-230.5 171,-200.5 276,-200.5 276,-230.5"/>
<text text-anchor="start" x="179" y="-218.5" font-family="Roboto" font-size="10.00">Urho3D::Serializable</text>
<text text-anchor="middle" x="223.5" y="-207.5" font-family="Roboto" font-size="10.00">::LoadJSON</text>
</a>
</g>
</g>
<!-- Node7&#45;&gt;Node19 -->
<g id="edge16" class="edge">
<title>Node7&#45;&gt;Node19</title>
<path fill="none" stroke="#63b8ff" d="M347.01,-327.73C345.62,-326.72 344.28,-325.64 343,-324.5 312.47,-297.09 337.66,-266.76 307,-239.5 298.3,-231.77 287.25,-226.52 276.08,-222.96"/>
<polygon fill="#63b8ff" stroke="#63b8ff" points="345.19,-330.72 355.59,-332.74 348.72,-324.68 345.19,-330.72"/>
</g>
<!-- Node20 -->
<g id="node17" class="node">
<title>Node20</title>
<g id="a_node17"><a xlink:href="class_urho3_d_1_1_animatable.html#ad1b16987196e91435eb8af471b7a2714" target="_top" xlink:title="Load from JSON data. Return true if successful.">
<polygon fill="#fff0f0" stroke="red" points="104,-208.5 0,-208.5 0,-178.5 104,-178.5 104,-208.5"/>
<text text-anchor="start" x="8" y="-196.5" font-family="Roboto" font-size="10.00">Urho3D::Animatable</text>
<text text-anchor="middle" x="52" y="-185.5" font-family="Roboto" font-size="10.00">::LoadJSON</text>
</a>
</g>
</g>
<!-- Node7&#45;&gt;Node20 -->
<g id="edge19" class="edge">
<title>Node7&#45;&gt;Node20</title>
<path fill="none" stroke="#63b8ff" d="M346.18,-327.45C345.07,-326.52 344.01,-325.54 343,-324.5 300.32,-280.58 355.63,-228.72 307,-191.5 246.77,-145.4 152.81,-162.15 97.64,-178.11"/>
<polygon fill="#63b8ff" stroke="#63b8ff" points="343.92,-330.15 354.19,-332.73 347.78,-324.31 343.92,-330.15"/>
</g>
<!-- Node23 -->
<g id="node18" class="node">
<title>Node23</title>
<g id="a_node18"><a xlink:href="class_urho3_d_1_1_value_animation.html#abb90d4733017bb3e85f68f344a4a9571" target="_top" xlink:title="Load from JSON data. Return true if successful.">
<polygon fill="white" stroke="#666666" points="285.5,-144.5 161.5,-144.5 161.5,-114.5 285.5,-114.5 285.5,-144.5"/>
<text text-anchor="start" x="169.5" y="-132.5" font-family="Roboto" font-size="10.00">Urho3D::ValueAnimation</text>
<text text-anchor="middle" x="223.5" y="-121.5" font-family="Roboto" font-size="10.00">::LoadJSON</text>
</a>
</g>
</g>
<!-- Node7&#45;&gt;Node23 -->
<g id="edge18" class="edge">
<title>Node7&#45;&gt;Node23</title>
<path fill="none" stroke="#63b8ff" d="M345.68,-327.14C344.75,-326.3 343.85,-325.42 343,-324.5 291.78,-269.04 356.96,-215.1 307,-158.5 301.17,-151.9 293.75,-146.8 285.76,-142.86"/>
<polygon fill="#63b8ff" stroke="#63b8ff" points="343.51,-329.89 353.72,-332.72 347.5,-324.14 343.51,-329.89"/>
</g>
<!-- Node15&#45;&gt;Node15 -->
<g id="edge12" class="edge">
<title>Node15&#45;&gt;Node15</title>
<path fill="none" stroke="#63b8ff" d="M254.25,-401.1C250.71,-405.13 240.46,-408 223.5,-408 193.35,-408 184.4,-398.94 196.65,-390.37"/>
<polygon fill="#63b8ff" stroke="#63b8ff" points="257.57,-399.99 250.87,-391.79 251,-402.38 257.57,-399.99"/>
</g>
<!-- Node19&#45;&gt;Node20 -->
<g id="edge17" class="edge">
<title>Node19&#45;&gt;Node20</title>
<path fill="none" stroke="#63b8ff" d="M159.37,-207.31C141.27,-204.96 121.77,-202.43 104.46,-200.18"/>
<polygon fill="#63b8ff" stroke="#63b8ff" points="158.86,-210.77 169.22,-208.58 159.76,-203.83 158.86,-210.77"/>
</g>
<!-- Node33&#45;&gt;Node33 -->
<g id="edge21" class="edge">
<title>Node33&#45;&gt;Node33</title>
<path fill="none" stroke="#63b8ff" d="M433.07,-309.11C428.89,-312.93 420.2,-315.5 407,-315.5 382.86,-315.5 373.81,-306.91 379.84,-297.78"/>
<polygon fill="#63b8ff" stroke="#63b8ff" points="436.54,-309.57 434.01,-299.28 429.57,-308.9 436.54,-309.57"/>
</g>
</g>
</svg>
