<?xml version="1.0" encoding="UTF-8" standalone="no"?>
<!DOCTYPE svg PUBLIC "-//W3C//DTD SVG 1.1//EN"
 "http://www.w3.org/Graphics/SVG/1.1/DTD/svg11.dtd">
<!-- Generated by graphviz version 7.0.3 (0)
 -->
<!-- Title: Urho3D::ObjectFactoryImpl&lt; T &gt; Pages: 1 -->
<svg width="1499pt" height="703pt"
 viewBox="0.00 0.00 1499.00 702.61" xmlns="http://www.w3.org/2000/svg" xmlns:xlink="http://www.w3.org/1999/xlink">
<g id="graph0" class="graph" transform="scale(1 1) rotate(0) translate(4 698.61)">
<title>Urho3D::ObjectFactoryImpl&lt; T &gt;</title>
<!-- Node1 -->
<g id="node1" class="node">
<title>Node1</title>
<g id="a_node1"><a xlink:title="Template implementation of the object factory.">
<polygon fill="#999999" stroke="#666666" points="1298,-450 1142,-450 1142,-431 1298,-431 1298,-450"/>
<text text-anchor="middle" x="1220" y="-438" font-family="Roboto" font-size="10.00">Urho3D::ObjectFactoryImpl&lt; T &gt;</text>
</a>
</g>
</g>
<!-- Node2 -->
<g id="node2" class="node">
<title>Node2</title>
<g id="a_node2"><a xlink:href="class_urho3_d_1_1_object_factory.html" target="_top" xlink:title="Base class for object factories.">
<polygon fill="white" stroke="#666666" points="1059.5,-450 943.5,-450 943.5,-431 1059.5,-431 1059.5,-450"/>
<text text-anchor="middle" x="1001.5" y="-438" font-family="Roboto" font-size="10.00">Urho3D::ObjectFactory</text>
</a>
</g>
</g>
<!-- Node2&#45;&gt;Node1 -->
<g id="edge1" class="edge">
<title>Node2&#45;&gt;Node1</title>
<path fill="none" stroke="#63b8ff" d="M1071.39,-440.5C1093.77,-440.5 1118.75,-440.5 1141.71,-440.5"/>
<polygon fill="#63b8ff" stroke="#63b8ff" points="1071.46,-437 1061.46,-440.5 1071.46,-444 1071.46,-437"/>
</g>
<!-- Node3 -->
<g id="node3" class="node">
<title>Node3</title>
<g id="a_node3"><a xlink:href="class_urho3_d_1_1_ref_counted.html" target="_top" xlink:title="Base class for intrusively reference&#45;counted objects. These are noncopyable and non&#45;assignable.">
<polygon fill="white" stroke="#666666" points="559,-674 452,-674 452,-655 559,-655 559,-674"/>
<text text-anchor="middle" x="505.5" y="-662" font-family="Roboto" font-size="10.00">Urho3D::RefCounted</text>
</a>
</g>
</g>
<!-- Node3&#45;&gt;Node2 -->
<g id="edge2" class="edge">
<title>Node3&#45;&gt;Node2</title>
<path fill="none" stroke="#63b8ff" d="M555.95,-676.89C639.78,-694.8 811.35,-717.74 921,-638.5 985.85,-591.63 997.86,-482.89 1000.03,-450.06"/>
<polygon fill="#63b8ff" stroke="#63b8ff" points="556.95,-673.52 546.43,-674.78 555.44,-680.36 556.95,-673.52"/>
</g>
<!-- Node5 -->
<g id="node5" class="node">
<title>Node5</title>
<g id="a_node5"><a xlink:href="class_urho3_d_1_1_context.html" target="_top" xlink:title="Urho3D execution context. Provides access to subsystems, object factories and attributes,...">
<polygon fill="white" stroke="#666666" points="850,-412 761,-412 761,-393 850,-393 850,-412"/>
<text text-anchor="middle" x="805.5" y="-400" font-family="Roboto" font-size="10.00">Urho3D::Context</text>
</a>
</g>
</g>
<!-- Node3&#45;&gt;Node5 -->
<g id="edge5" class="edge">
<title>Node3&#45;&gt;Node5</title>
<path fill="none" stroke="#63b8ff" d="M570.32,-663.24C586.39,-660.4 602.81,-655.08 616,-645.5 629.84,-635.46 620.6,-622.12 634,-611.5 672.53,-580.98 704.85,-616.81 741,-583.5 792.91,-535.65 802.39,-442.92 804.12,-412.46"/>
<polygon fill="#63b8ff" stroke="#63b8ff" points="570.19,-659.72 560.79,-664.61 571.19,-666.65 570.19,-659.72"/>
</g>
<!-- Node20 -->
<g id="node19" class="node">
<title>Node20</title>
<g id="a_node19"><a xlink:href="class_urho3_d_1_1_object.html" target="_top" xlink:title=" ">
<polygon fill="white" stroke="#666666" points="1043,-412 960,-412 960,-393 1043,-393 1043,-412"/>
<text text-anchor="middle" x="1001.5" y="-400" font-family="Roboto" font-size="10.00">Urho3D::Object</text>
</a>
</g>
</g>
<!-- Node3&#45;&gt;Node20 -->
<g id="edge28" class="edge">
<title>Node3&#45;&gt;Node20</title>
<path fill="none" stroke="#63b8ff" d="M570.57,-659.65C619.83,-653.66 688.16,-640.29 741,-610.5 836.58,-556.6 844.23,-519.91 921,-441.5 929.37,-432.96 928.92,-427.94 939,-421.5 945.31,-417.47 952.53,-414.24 959.75,-411.68"/>
<polygon fill="#63b8ff" stroke="#63b8ff" points="570.47,-656.14 560.93,-660.75 571.26,-663.1 570.47,-656.14"/>
</g>
<!-- Node4 -->
<g id="node4" class="node">
<title>Node4</title>
<g id="a_node4"><a xlink:href="struct_urho3_d_1_1_ref_count.html" target="_top" xlink:title="Reference count structure.">
<polygon fill="white" stroke="#666666" points="308,-674 212,-674 212,-655 308,-655 308,-674"/>
<text text-anchor="middle" x="260" y="-662" font-family="Roboto" font-size="10.00">Urho3D::RefCount</text>
</a>
</g>
</g>
<!-- Node4&#45;&gt;Node3 -->
<g id="edge3" class="edge">
<title>Node4&#45;&gt;Node3</title>
<path fill="none" stroke="#9a32cd" stroke-dasharray="5,2" d="M319.51,-664.5C359.82,-664.5 412.93,-664.5 451.9,-664.5"/>
<polygon fill="#9a32cd" stroke="#9a32cd" points="319.75,-661 309.75,-664.5 319.75,-668 319.75,-661"/>
<text text-anchor="middle" x="354" y="-667.5" font-family="Roboto" font-size="10.00"> refCount_</text>
</g>
<!-- Node5&#45;&gt;Node2 -->
<g id="edge4" class="edge">
<title>Node5&#45;&gt;Node2</title>
<path fill="none" stroke="#9a32cd" stroke-dasharray="5,2" d="M861.42,-414.73C864.32,-415.34 867.19,-415.93 870,-416.5 894.16,-421.38 920.92,-426.38 943.89,-430.54"/>
<polygon fill="#9a32cd" stroke="#9a32cd" points="862.17,-411.32 851.66,-412.66 860.71,-418.16 862.17,-411.32"/>
<text text-anchor="middle" x="895.5" y="-429.5" font-family="Roboto" font-size="10.00"> context_</text>
</g>
<!-- Node5&#45;&gt;Node20 -->
<g id="edge29" class="edge">
<title>Node5&#45;&gt;Node20</title>
<path fill="none" stroke="#9a32cd" stroke-dasharray="5,2" d="M861.21,-402.5C892.52,-402.5 931.13,-402.5 959.76,-402.5"/>
<polygon fill="#9a32cd" stroke="#9a32cd" points="861.55,-399 851.55,-402.5 861.55,-406 861.55,-399"/>
<text text-anchor="middle" x="895.5" y="-405.5" font-family="Roboto" font-size="10.00"> context_</text>
</g>
<!-- Node6 -->
<g id="node6" class="node">
<title>Node6</title>
<g id="a_node6"><a xlink:href="class_urho3_d_1_1_hash_map.html" target="_top" xlink:title=" ">
<polygon fill="white" stroke="#666666" points="596.5,-458 414.5,-458 414.5,-417 596.5,-417 596.5,-458"/>
<text text-anchor="start" x="422.5" y="-446" font-family="Roboto" font-size="10.00">Urho3D::HashMap&lt; Urho3D</text>
<text text-anchor="start" x="422.5" y="-435" font-family="Roboto" font-size="10.00">::StringHash, Urho3D::</text>
<text text-anchor="middle" x="505.5" y="-424" font-family="Roboto" font-size="10.00">SharedPtr&lt; Urho3D::ObjectFactory &gt; &gt;</text>
</a>
</g>
</g>
<!-- Node6&#45;&gt;Node5 -->
<g id="edge6" class="edge">
<title>Node6&#45;&gt;Node5</title>
<path fill="none" stroke="#9a32cd" stroke-dasharray="5,2" d="M608.02,-425.58C660.03,-419.47 720.67,-412.35 760.67,-407.65"/>
<polygon fill="#9a32cd" stroke="#9a32cd" points="607.75,-422.08 598.22,-426.73 608.56,-429.04 607.75,-422.08"/>
<text text-anchor="middle" x="687.5" y="-425.5" font-family="Roboto" font-size="10.00"> factories_</text>
</g>
<!-- Node7 -->
<g id="node7" class="node">
<title>Node7</title>
<g id="a_node7"><a xlink:href="class_urho3_d_1_1_hash_base.html" target="_top" xlink:title="Hash set/map base class.">
<polygon fill="white" stroke="#666666" points="310,-447 210,-447 210,-428 310,-428 310,-447"/>
<text text-anchor="middle" x="260" y="-435" font-family="Roboto" font-size="10.00">Urho3D::HashBase</text>
</a>
</g>
</g>
<!-- Node7&#45;&gt;Node6 -->
<g id="edge7" class="edge">
<title>Node7&#45;&gt;Node6</title>
<path fill="none" stroke="#63b8ff" d="M321.51,-437.5C349.55,-437.5 383.45,-437.5 414.42,-437.5"/>
<polygon fill="#63b8ff" stroke="#63b8ff" points="321.79,-434 311.79,-437.5 321.79,-441 321.79,-434"/>
</g>
<!-- Node11 -->
<g id="node10" class="node">
<title>Node11</title>
<g id="a_node10"><a xlink:href="class_urho3_d_1_1_hash_map.html" target="_top" xlink:title=" ">
<polygon fill="white" stroke="#666666" points="580,-399 431,-399 431,-358 580,-358 580,-399"/>
<text text-anchor="start" x="439" y="-387" font-family="Roboto" font-size="10.00">Urho3D::HashMap&lt; Urho3D</text>
<text text-anchor="start" x="439" y="-376" font-family="Roboto" font-size="10.00">::StringHash, Urho3D::</text>
<text text-anchor="middle" x="505.5" y="-365" font-family="Roboto" font-size="10.00">SharedPtr&lt; Urho3D::Object &gt; &gt;</text>
</a>
</g>
</g>
<!-- Node7&#45;&gt;Node11 -->
<g id="edge13" class="edge">
<title>Node7&#45;&gt;Node11</title>
<path fill="none" stroke="#63b8ff" d="M313.2,-424.85C347.48,-416.55 392.82,-405.56 430.76,-396.37"/>
<polygon fill="#63b8ff" stroke="#63b8ff" points="312.4,-421.45 303.5,-427.2 314.05,-428.25 312.4,-421.45"/>
</g>
<!-- Node12 -->
<g id="node11" class="node">
<title>Node12</title>
<g id="a_node11"><a xlink:href="class_urho3_d_1_1_hash_map.html" target="_top" xlink:title=" ">
<polygon fill="white" stroke="#666666" points="586.5,-340 424.5,-340 424.5,-299 586.5,-299 586.5,-340"/>
<text text-anchor="start" x="432.5" y="-328" font-family="Roboto" font-size="10.00">Urho3D::HashMap&lt; Urho3D</text>
<text text-anchor="start" x="432.5" y="-317" font-family="Roboto" font-size="10.00">::StringHash, Urho3D::</text>
<text text-anchor="middle" x="505.5" y="-306" font-family="Roboto" font-size="10.00">Vector&lt; Urho3D::AttributeInfo &gt; &gt;</text>
</a>
</g>
</g>
<!-- Node7&#45;&gt;Node12 -->
<g id="edge15" class="edge">
<title>Node7&#45;&gt;Node12</title>
<path fill="none" stroke="#63b8ff" d="M281.44,-420.8C306.68,-400.93 351.64,-368 395,-348.5 404.24,-344.35 414.19,-340.69 424.19,-337.5"/>
<polygon fill="#63b8ff" stroke="#63b8ff" points="279.58,-417.8 273.95,-426.77 283.95,-423.27 279.58,-417.8"/>
</g>
<!-- Node13 -->
<g id="node12" class="node">
<title>Node13</title>
<g id="a_node12"><a xlink:href="class_urho3_d_1_1_hash_map.html" target="_top" xlink:title=" ">
<polygon fill="white" stroke="#666666" points="589,-280.5 422,-280.5 422,-228.5 589,-228.5 589,-280.5"/>
<text text-anchor="start" x="430" y="-268.5" font-family="Roboto" font-size="10.00">Urho3D::HashMap&lt; Urho3D</text>
<text text-anchor="start" x="430" y="-257.5" font-family="Roboto" font-size="10.00">::StringHash, Urho3D::</text>
<text text-anchor="start" x="430" y="-246.5" font-family="Roboto" font-size="10.00">SharedPtr&lt; Urho3D::EventReceiver</text>
<text text-anchor="middle" x="505.5" y="-235.5" font-family="Roboto" font-size="10.00">Group &gt; &gt;</text>
</a>
</g>
</g>
<!-- Node7&#45;&gt;Node13 -->
<g id="edge17" class="edge">
<title>Node7&#45;&gt;Node13</title>
<path fill="none" stroke="#63b8ff" d="M272.96,-418.38C293.8,-386.69 339.82,-323.43 395,-289.5 403.25,-284.43 412.3,-280.03 421.55,-276.21"/>
<polygon fill="#63b8ff" stroke="#63b8ff" points="270.17,-416.25 267.71,-426.55 276.06,-420.03 270.17,-416.25"/>
</g>
<!-- Node14 -->
<g id="node13" class="node">
<title>Node14</title>
<g id="a_node13"><a xlink:href="class_urho3_d_1_1_hash_map.html" target="_top" xlink:title=" ">
<polygon fill="white" stroke="#666666" points="616,-636.5 395,-636.5 395,-584.5 616,-584.5 616,-636.5"/>
<text text-anchor="start" x="403" y="-624.5" font-family="Roboto" font-size="10.00">Urho3D::HashMap&lt; Urho3D</text>
<text text-anchor="start" x="403" y="-613.5" font-family="Roboto" font-size="10.00">::Object *, Urho3D::HashMap</text>
<text text-anchor="start" x="403" y="-602.5" font-family="Roboto" font-size="10.00">&lt; Urho3D::StringHash, Urho3D</text>
<text text-anchor="middle" x="505.5" y="-591.5" font-family="Roboto" font-size="10.00">::SharedPtr&lt; Urho3D::EventReceiverGroup &gt; &gt; &gt;</text>
</a>
</g>
</g>
<!-- Node7&#45;&gt;Node14 -->
<g id="edge19" class="edge">
<title>Node7&#45;&gt;Node14</title>
<path fill="none" stroke="#63b8ff" d="M274.69,-456.6C296.76,-486.07 343.04,-542.53 395,-574.5 400.62,-577.96 406.62,-581.13 412.79,-584.02"/>
<polygon fill="#63b8ff" stroke="#63b8ff" points="277.56,-454.6 268.82,-448.61 271.92,-458.74 277.56,-454.6"/>
</g>
<!-- Node23 -->
<g id="node22" class="node">
<title>Node23</title>
<g id="a_node22"><a xlink:href="class_urho3_d_1_1_hash_map.html" target="_top" xlink:title=" ">
<polygon fill="white" stroke="#666666" points="575,-566 436,-566 436,-525 575,-525 575,-566"/>
<text text-anchor="start" x="444" y="-554" font-family="Roboto" font-size="10.00">Urho3D::HashMap&lt; Urho3D</text>
<text text-anchor="start" x="444" y="-543" font-family="Roboto" font-size="10.00">::String, Urho3D::Vector</text>
<text text-anchor="middle" x="505.5" y="-532" font-family="Roboto" font-size="10.00">&lt; Urho3D::StringHash &gt; &gt;</text>
</a>
</g>
</g>
<!-- Node7&#45;&gt;Node23 -->
<g id="edge35" class="edge">
<title>Node7&#45;&gt;Node23</title>
<path fill="none" stroke="#63b8ff" d="M284.61,-453.8C310.64,-471.14 354.24,-498.4 395,-515.5 407.81,-520.88 421.87,-525.57 435.52,-529.54"/>
<polygon fill="#63b8ff" stroke="#63b8ff" points="286.72,-451 276.48,-448.31 282.81,-456.8 286.72,-451"/>
</g>
<!-- Node24 -->
<g id="node23" class="node">
<title>Node24</title>
<g id="a_node23"><a xlink:href="class_urho3_d_1_1_hash_map.html" target="_top" xlink:title=" ">
<polygon fill="white" stroke="#666666" points="583.5,-506.5 427.5,-506.5 427.5,-476.5 583.5,-476.5 583.5,-506.5"/>
<text text-anchor="start" x="435.5" y="-494.5" font-family="Roboto" font-size="10.00">Urho3D::HashMap&lt; StringHash,</text>
<text text-anchor="middle" x="505.5" y="-483.5" font-family="Roboto" font-size="10.00"> Variant &gt;</text>
</a>
</g>
</g>
<!-- Node7&#45;&gt;Node24 -->
<g id="edge37" class="edge">
<title>Node7&#45;&gt;Node24</title>
<path fill="none" stroke="#63b8ff" d="M316.95,-449.91C352.03,-457.69 397.54,-467.78 434.94,-476.07"/>
<polygon fill="#63b8ff" stroke="#63b8ff" points="317.94,-446.54 307.42,-447.8 316.43,-453.38 317.94,-446.54"/>
</g>
<!-- Node8 -->
<g id="node8" class="node">
<title>Node8</title>
<g id="a_node8"><a xlink:href="struct_urho3_d_1_1_hash_node_base.html" target="_top" xlink:title="Hash set/map node base class.">
<polygon fill="white" stroke="#666666" points="125,-476 0,-476 0,-457 125,-457 125,-476"/>
<text text-anchor="middle" x="62.5" y="-464" font-family="Roboto" font-size="10.00">Urho3D::HashNodeBase</text>
</a>
</g>
</g>
<!-- Node8&#45;&gt;Node7 -->
<g id="edge8" class="edge">
<title>Node8&#45;&gt;Node7</title>
<path fill="none" stroke="#9a32cd" stroke-dasharray="5,2" d="M136.72,-455.64C161.04,-452.03 187.52,-448.1 209.6,-444.83"/>
<polygon fill="#9a32cd" stroke="#9a32cd" points="136.23,-452.17 126.85,-457.1 137.26,-459.1 136.23,-452.17"/>
<text text-anchor="middle" x="166" y="-480.5" font-family="Roboto" font-size="10.00"> head_</text>
<text text-anchor="middle" x="166" y="-469.5" font-family="Roboto" font-size="10.00">ptrs_</text>
<text text-anchor="middle" x="166" y="-458.5" font-family="Roboto" font-size="10.00">tail_</text>
</g>
<!-- Node8&#45;&gt;Node8 -->
<g id="edge9" class="edge">
<title>Node8&#45;&gt;Node8</title>
<path fill="none" stroke="#9a32cd" stroke-dasharray="5,2" d="M44.13,-487.43C46.43,-491.29 52.55,-494 62.5,-494 80.69,-494 86.09,-484.94 78.7,-476.37"/>
<polygon fill="#9a32cd" stroke="#9a32cd" points="47.52,-488.34 46.01,-477.85 40.65,-486.99 47.52,-488.34"/>
<text text-anchor="middle" x="62.5" y="-519" font-family="Roboto" font-size="10.00"> down_</text>
<text text-anchor="middle" x="62.5" y="-508" font-family="Roboto" font-size="10.00">next_</text>
<text text-anchor="middle" x="62.5" y="-497" font-family="Roboto" font-size="10.00">prev_</text>
</g>
<!-- Node9 -->
<g id="node9" class="node">
<title>Node9</title>
<g id="a_node9"><a xlink:href="struct_urho3_d_1_1_allocator_block.html" target="_top" xlink:title="Allocator memory block.">
<polygon fill="#fff0f0" stroke="red" points="122.5,-410 2.5,-410 2.5,-391 122.5,-391 122.5,-410"/>
<text text-anchor="middle" x="62.5" y="-398" font-family="Roboto" font-size="10.00">Urho3D::AllocatorBlock</text>
</a>
</g>
</g>
<!-- Node9&#45;&gt;Node7 -->
<g id="edge10" class="edge">
<title>Node9&#45;&gt;Node7</title>
<path fill="none" stroke="#9a32cd" stroke-dasharray="5,2" d="M127.34,-412.58C154.07,-417.64 184.66,-423.43 209.62,-428.15"/>
<polygon fill="#9a32cd" stroke="#9a32cd" points="128.11,-409.17 117.63,-410.75 126.81,-416.04 128.11,-409.17"/>
<text text-anchor="middle" x="166" y="-426.5" font-family="Roboto" font-size="10.00"> allocator_</text>
</g>
<!-- Node9&#45;&gt;Node9 -->
<g id="edge11" class="edge">
<title>Node9&#45;&gt;Node9</title>
<path fill="none" stroke="#9a32cd" stroke-dasharray="5,2" d="M44.13,-421.43C46.43,-425.29 52.55,-428 62.5,-428 80.69,-428 86.09,-418.94 78.7,-410.37"/>
<polygon fill="#9a32cd" stroke="#9a32cd" points="47.52,-422.34 46.01,-411.85 40.65,-420.99 47.52,-422.34"/>
<text text-anchor="middle" x="62.5" y="-431" font-family="Roboto" font-size="10.00"> next_</text>
</g>
<!-- Node11&#45;&gt;Node5 -->
<g id="edge12" class="edge">
<title>Node11&#45;&gt;Node5</title>
<path fill="none" stroke="#9a32cd" stroke-dasharray="5,2" d="M591.7,-381.6C636.27,-383.73 691.67,-387.16 741,-392.5 747.32,-393.19 753.98,-394.06 760.51,-395.01"/>
<polygon fill="#9a32cd" stroke="#9a32cd" points="591.98,-378.11 581.83,-381.15 591.66,-385.11 591.98,-378.11"/>
<text text-anchor="middle" x="687.5" y="-395.5" font-family="Roboto" font-size="10.00"> subsystems_</text>
</g>
<!-- Node12&#45;&gt;Node5 -->
<g id="edge14" class="edge">
<title>Node12&#45;&gt;Node5</title>
<path fill="none" stroke="#9a32cd" stroke-dasharray="5,2" d="M598.14,-325.32C642.54,-330.48 695.88,-340.2 741,-358.5 761.38,-366.77 781.71,-382.5 793.69,-392.74"/>
<polygon fill="#9a32cd" stroke="#9a32cd" points="598.59,-321.85 588.27,-324.24 597.83,-328.81 598.59,-321.85"/>
<text text-anchor="middle" x="687.5" y="-372.5" font-family="Roboto" font-size="10.00"> attributes_</text>
<text text-anchor="middle" x="687.5" y="-361.5" font-family="Roboto" font-size="10.00">networkAttributes_</text>
</g>
<!-- Node13&#45;&gt;Node5 -->
<g id="edge16" class="edge">
<title>Node13&#45;&gt;Node5</title>
<path fill="none" stroke="#9a32cd" stroke-dasharray="5,2" d="M600.34,-263.98C645.87,-272.14 699.55,-287.3 741,-315.5 770.68,-335.69 791.56,-374.53 800.14,-392.69"/>
<polygon fill="#9a32cd" stroke="#9a32cd" points="601.19,-260.58 590.74,-262.36 600.02,-267.48 601.19,-260.58"/>
<text text-anchor="middle" x="687.5" y="-318.5" font-family="Roboto" font-size="10.00"> eventReceivers_</text>
</g>
<!-- Node14&#45;&gt;Node5 -->
<g id="edge18" class="edge">
<title>Node14&#45;&gt;Node5</title>
<path fill="none" stroke="#9a32cd" stroke-dasharray="5,2" d="M605.72,-580.85C615.28,-578.02 624.82,-575.2 634,-572.5 681.5,-558.54 703.52,-573.85 741,-541.5 782.37,-505.79 798.28,-437.54 802.91,-412.25"/>
<polygon fill="#9a32cd" stroke="#9a32cd" points="605,-577.41 596.4,-583.61 606.99,-584.12 605,-577.41"/>
<text text-anchor="middle" x="687.5" y="-575.5" font-family="Roboto" font-size="10.00"> specificEventReceivers_</text>
</g>
<!-- Node15 -->
<g id="node14" class="node">
<title>Node15</title>
<g id="a_node14"><a xlink:href="class_urho3_d_1_1_p_o_d_vector.html" target="_top" xlink:title=" ">
<polygon fill="white" stroke="#666666" points="560,-210.5 451,-210.5 451,-180.5 560,-180.5 560,-210.5"/>
<text text-anchor="start" x="459" y="-198.5" font-family="Roboto" font-size="10.00">Urho3D::PODVector&lt;</text>
<text text-anchor="middle" x="505.5" y="-187.5" font-family="Roboto" font-size="10.00"> Urho3D::Object * &gt;</text>
</a>
</g>
</g>
<!-- Node15&#45;&gt;Node5 -->
<g id="edge20" class="edge">
<title>Node15&#45;&gt;Node5</title>
<path fill="none" stroke="#9a32cd" stroke-dasharray="5,2" d="M571.81,-197.2C623.49,-201.88 694.47,-216.15 741,-257.5 783.52,-295.29 798.8,-366.77 803.08,-392.75"/>
<polygon fill="#9a32cd" stroke="#9a32cd" points="572.19,-193.72 561.94,-196.42 571.63,-200.7 572.19,-193.72"/>
<text text-anchor="middle" x="687.5" y="-260.5" font-family="Roboto" font-size="10.00"> eventSenders_</text>
</g>
<!-- Node16 -->
<g id="node15" class="node">
<title>Node16</title>
<g id="a_node15"><a xlink:href="class_urho3_d_1_1_vector_base.html" target="_top" xlink:title="Vector base class.">
<polygon fill="white" stroke="#666666" points="313,-179 207,-179 207,-160 313,-160 313,-179"/>
<text text-anchor="middle" x="260" y="-167" font-family="Roboto" font-size="10.00">Urho3D::VectorBase</text>
</a>
</g>
</g>
<!-- Node16&#45;&gt;Node15 -->
<g id="edge21" class="edge">
<title>Node16&#45;&gt;Node15</title>
<path fill="none" stroke="#63b8ff" d="M324.51,-176.28C363.7,-180.47 413.42,-185.77 450.66,-189.75"/>
<polygon fill="#63b8ff" stroke="#63b8ff" points="325.06,-172.82 314.74,-175.24 324.31,-179.78 325.06,-172.82"/>
</g>
<!-- Node17 -->
<g id="node16" class="node">
<title>Node17</title>
<g id="a_node16"><a xlink:href="class_urho3_d_1_1_p_o_d_vector.html" target="_top" xlink:title=" ">
<polygon fill="white" stroke="#666666" points="562.5,-162.5 448.5,-162.5 448.5,-132.5 562.5,-132.5 562.5,-162.5"/>
<text text-anchor="start" x="456.5" y="-150.5" font-family="Roboto" font-size="10.00">Urho3D::PODVector&lt;</text>
<text text-anchor="middle" x="505.5" y="-139.5" font-family="Roboto" font-size="10.00"> Urho3D::HashMap * &gt;</text>
</a>
</g>
</g>
<!-- Node16&#45;&gt;Node17 -->
<g id="edge23" class="edge">
<title>Node16&#45;&gt;Node17</title>
<path fill="none" stroke="#63b8ff" d="M324.27,-163.78C362.61,-160.32 411.08,-155.94 448.11,-152.6"/>
<polygon fill="#63b8ff" stroke="#63b8ff" points="324.39,-160.26 314.74,-164.64 325.02,-167.23 324.39,-160.26"/>
</g>
<!-- Node17&#45;&gt;Node5 -->
<g id="edge22" class="edge">
<title>Node17&#45;&gt;Node5</title>
<path fill="none" stroke="#9a32cd" stroke-dasharray="5,2" d="M574.32,-142.85C626.12,-143.05 696.05,-152 741,-192.5 802.12,-247.57 805.31,-359.21 804.81,-392.75"/>
<polygon fill="#9a32cd" stroke="#9a32cd" points="574.38,-139.34 564.41,-142.93 574.43,-146.34 574.38,-139.34"/>
<text text-anchor="middle" x="687.5" y="-195.5" font-family="Roboto" font-size="10.00"> eventDataMaps_</text>
</g>
<!-- Node18 -->
<g id="node17" class="node">
<title>Node18</title>
<g id="a_node17"><a xlink:href="class_urho3_d_1_1_event_handler.html" target="_top" xlink:title="Internal helper class for invoking event handler functions.">
<polygon fill="white" stroke="#666666" points="1276.5,-341 1163.5,-341 1163.5,-322 1276.5,-322 1276.5,-341"/>
<text text-anchor="middle" x="1220" y="-329" font-family="Roboto" font-size="10.00">Urho3D::EventHandler</text>
</a>
</g>
</g>
<!-- Node18&#45;&gt;Node5 -->
<g id="edge24" class="edge">
<title>Node18&#45;&gt;Node5</title>
<path fill="none" stroke="#9a32cd" stroke-dasharray="5,2" d="M1179.21,-318.29C1123.9,-302.08 1021.31,-279.82 939,-306.5 885.5,-323.85 835.49,-371.79 815.58,-392.62"/>
<polygon fill="#9a32cd" stroke="#9a32cd" points="1177.91,-321.56 1188.5,-321.1 1179.94,-314.86 1177.91,-321.56"/>
<text text-anchor="middle" x="1001.5" y="-309.5" font-family="Roboto" font-size="10.00"> eventHandler_</text>
</g>
<!-- Node21 -->
<g id="node20" class="node">
<title>Node21</title>
<g id="a_node20"><a xlink:href="class_urho3_d_1_1_linked_list.html" target="_top" xlink:title=" ">
<polygon fill="white" stroke="#666666" points="1491,-381.5 1363,-381.5 1363,-351.5 1491,-351.5 1491,-381.5"/>
<text text-anchor="start" x="1371" y="-369.5" font-family="Roboto" font-size="10.00">Urho3D::LinkedList</text>
<text text-anchor="middle" x="1427" y="-358.5" font-family="Roboto" font-size="10.00">&lt; Urho3D::EventHandler &gt;</text>
</a>
</g>
</g>
<!-- Node18&#45;&gt;Node21 -->
<g id="edge31" class="edge">
<title>Node18&#45;&gt;Node21</title>
<path fill="none" stroke="#9a32cd" stroke-dasharray="5,2" d="M1287.91,-342.92C1311.94,-347.03 1338.95,-351.64 1362.66,-355.69"/>
<polygon fill="#9a32cd" stroke="#9a32cd" points="1288.68,-339.51 1278.24,-341.27 1287.51,-346.41 1288.68,-339.51"/>
<text text-anchor="middle" x="1330.5" y="-355.5" font-family="Roboto" font-size="10.00"> head_</text>
</g>
<!-- Node19 -->
<g id="node18" class="node">
<title>Node19</title>
<g id="a_node18"><a xlink:href="struct_urho3_d_1_1_linked_list_node.html" target="_top" xlink:title="Singly&#45;linked list node base class.">
<polygon fill="white" stroke="#666666" points="1064,-346 939,-346 939,-327 1064,-327 1064,-346"/>
<text text-anchor="middle" x="1001.5" y="-334" font-family="Roboto" font-size="10.00">Urho3D::LinkedListNode</text>
</a>
</g>
</g>
<!-- Node19&#45;&gt;Node18 -->
<g id="edge25" class="edge">
<title>Node19&#45;&gt;Node18</title>
<path fill="none" stroke="#63b8ff" d="M1075.43,-334.82C1104.05,-334.15 1136.37,-333.41 1163.09,-332.79"/>
<polygon fill="#63b8ff" stroke="#63b8ff" points="1075.68,-331.31 1065.76,-335.04 1075.84,-338.31 1075.68,-331.31"/>
</g>
<!-- Node19&#45;&gt;Node19 -->
<g id="edge26" class="edge">
<title>Node19&#45;&gt;Node19</title>
<path fill="none" stroke="#9a32cd" stroke-dasharray="5,2" d="M983.48,-357.43C985.74,-361.29 991.74,-364 1001.5,-364 1019.34,-364 1024.64,-354.94 1017.39,-346.37"/>
<polygon fill="#9a32cd" stroke="#9a32cd" points="986.87,-358.34 985.32,-347.85 980,-357.01 986.87,-358.34"/>
<text text-anchor="middle" x="1001.5" y="-367" font-family="Roboto" font-size="10.00"> next_</text>
</g>
<!-- Node20&#45;&gt;Node18 -->
<g id="edge27" class="edge">
<title>Node20&#45;&gt;Node18</title>
<path fill="none" stroke="#9a32cd" stroke-dasharray="5,2" d="M1054.01,-388.7C1057.48,-387.13 1060.84,-385.4 1064,-383.5 1073.69,-377.66 1072.15,-371.07 1082,-365.5 1106.75,-351.52 1137.2,-343.22 1163.1,-338.34"/>
<polygon fill="#9a32cd" stroke="#9a32cd" points="1052.8,-385.41 1044.81,-392.37 1055.4,-391.91 1052.8,-385.41"/>
<text text-anchor="middle" x="1103" y="-379.5" font-family="Roboto" font-size="10.00"> receiver_</text>
<text text-anchor="middle" x="1103" y="-368.5" font-family="Roboto" font-size="10.00">sender_</text>
</g>
<!-- Node21&#45;&gt;Node20 -->
<g id="edge30" class="edge">
<title>Node21&#45;&gt;Node20</title>
<path fill="none" stroke="#9a32cd" stroke-dasharray="5,2" d="M1351.36,-372.85C1261.72,-380.46 1114.59,-392.97 1043.49,-399.02"/>
<polygon fill="#9a32cd" stroke="#9a32cd" points="1351.63,-376.33 1361.29,-372 1351.03,-369.36 1351.63,-376.33"/>
<text text-anchor="middle" x="1220" y="-393.5" font-family="Roboto" font-size="10.00"> eventHandlers_</text>
</g>
<!-- Node22 -->
<g id="node21" class="node">
<title>Node22</title>
<g id="a_node21"><a xlink:href="class_urho3_d_1_1_string_hash.html" target="_top" xlink:title="32&#45;bit hash value for a string.">
<polygon fill="white" stroke="#666666" points="557.5,-85 453.5,-85 453.5,-66 557.5,-66 557.5,-85"/>
<text text-anchor="middle" x="505.5" y="-73" font-family="Roboto" font-size="10.00">Urho3D::StringHash</text>
</a>
</g>
</g>
<!-- Node22&#45;&gt;Node18 -->
<g id="edge32" class="edge">
<title>Node22&#45;&gt;Node18</title>
<path fill="none" stroke="#9a32cd" stroke-dasharray="5,2" d="M569.1,-69.49C639.7,-64.85 757.02,-63.64 852,-94.5 1010.33,-145.95 1166.96,-283.41 1208.4,-321.56"/>
<polygon fill="#9a32cd" stroke="#9a32cd" points="569,-65.99 559.27,-70.18 569.49,-72.97 569,-65.99"/>
<text text-anchor="middle" x="895.5" y="-124.5" font-family="Roboto" font-size="10.00"> eventType_</text>
</g>
<!-- Node22&#45;&gt;Node22 -->
<g id="edge33" class="edge">
<title>Node22&#45;&gt;Node22</title>
<path fill="none" stroke="#9a32cd" stroke-dasharray="5,2" d="M478.61,-96.43C481.97,-100.29 490.94,-103 505.5,-103 532.13,-103 540.04,-93.94 529.22,-85.37"/>
<polygon fill="#9a32cd" stroke="#9a32cd" points="481.97,-97.4 481.36,-86.82 475.24,-95.47 481.97,-97.4"/>
<text text-anchor="middle" x="505.5" y="-106" font-family="Roboto" font-size="10.00"> ZERO</text>
</g>
<!-- Node25 -->
<g id="node24" class="node">
<title>Node25</title>
<g id="a_node24"><a xlink:href="class_urho3_d_1_1_type_info.html" target="_top" xlink:title=" ">
<polygon fill="white" stroke="#666666" points="852,-123 759,-123 759,-104 852,-104 852,-123"/>
<text text-anchor="middle" x="805.5" y="-111" font-family="Roboto" font-size="10.00">Urho3D::TypeInfo</text>
</a>
</g>
</g>
<!-- Node22&#45;&gt;Node25 -->
<g id="edge39" class="edge">
<title>Node22&#45;&gt;Node25</title>
<path fill="none" stroke="#9a32cd" stroke-dasharray="5,2" d="M569.07,-83.48C625.79,-90.71 708.06,-101.2 758.82,-107.67"/>
<polygon fill="#9a32cd" stroke="#9a32cd" points="569.59,-80.02 559.23,-82.22 568.71,-86.96 569.59,-80.02"/>
<text text-anchor="middle" x="687.5" y="-108.5" font-family="Roboto" font-size="10.00"> type_</text>
</g>
<!-- Node23&#45;&gt;Node5 -->
<g id="edge34" class="edge">
<title>Node23&#45;&gt;Node5</title>
<path fill="none" stroke="#9a32cd" stroke-dasharray="5,2" d="M586.67,-537.29C634.6,-529.36 694.92,-513.83 741,-483.5 769.21,-464.93 790.38,-429.63 799.52,-412.42"/>
<polygon fill="#9a32cd" stroke="#9a32cd" points="586.23,-533.81 576.9,-538.82 587.32,-540.73 586.23,-533.81"/>
<text text-anchor="middle" x="687.5" y="-529.5" font-family="Roboto" font-size="10.00"> objectCategories_</text>
</g>
<!-- Node24&#45;&gt;Node5 -->
<g id="edge36" class="edge">
<title>Node24&#45;&gt;Node5</title>
<path fill="none" stroke="#9a32cd" stroke-dasharray="5,2" d="M595.01,-477.17C639.67,-468.44 694.16,-455.45 741,-437.5 758.4,-430.84 776.9,-420.18 789.42,-412.37"/>
<polygon fill="#9a32cd" stroke="#9a32cd" points="594.53,-473.7 585.36,-479.02 595.84,-480.58 594.53,-473.7"/>
<text text-anchor="middle" x="687.5" y="-471.5" font-family="Roboto" font-size="10.00"> globalVars_</text>
</g>
<!-- Node25&#45;&gt;Node2 -->
<g id="edge38" class="edge">
<title>Node25&#45;&gt;Node2</title>
<path fill="none" stroke="#9a32cd" stroke-dasharray="5,2" d="M814.69,-133.71C841.78,-200.43 927.46,-409.99 939,-420.5 943.56,-424.66 949.01,-427.95 954.74,-430.56"/>
<polygon fill="#9a32cd" stroke="#9a32cd" points="818.04,-132.67 811.04,-124.72 811.55,-135.3 818.04,-132.67"/>
<text text-anchor="middle" x="895.5" y="-387.5" font-family="Roboto" font-size="10.00"> typeInfo_</text>
</g>
<!-- Node25&#45;&gt;Node25 -->
<g id="edge42" class="edge">
<title>Node25&#45;&gt;Node25</title>
<path fill="none" stroke="#9a32cd" stroke-dasharray="5,2" d="M789.53,-134.43C791.52,-138.29 796.85,-141 805.5,-141 821.32,-141 826.02,-131.94 819.59,-123.37"/>
<polygon fill="#9a32cd" stroke="#9a32cd" points="792.93,-135.31 791.16,-124.86 786.03,-134.13 792.93,-135.31"/>
<text text-anchor="middle" x="805.5" y="-144" font-family="Roboto" font-size="10.00"> baseTypeInfo_</text>
</g>
<!-- Node26 -->
<g id="node25" class="node">
<title>Node26</title>
<g id="a_node25"><a xlink:href="class_urho3_d_1_1_string.html" target="_top" xlink:title="String class.">
<polygon fill="white" stroke="#666666" points="545.5,-19 465.5,-19 465.5,0 545.5,0 545.5,-19"/>
<text text-anchor="middle" x="505.5" y="-7" font-family="Roboto" font-size="10.00">Urho3D::String</text>
</a>
</g>
</g>
<!-- Node26&#45;&gt;Node25 -->
<g id="edge40" class="edge">
<title>Node26&#45;&gt;Node25</title>
<path fill="none" stroke="#9a32cd" stroke-dasharray="5,2" d="M556.72,-20.46C605.01,-31.83 679.53,-51.58 741,-77.5 758.28,-84.79 776.81,-95.68 789.36,-103.57"/>
<polygon fill="#9a32cd" stroke="#9a32cd" points="557.64,-17.08 547.11,-18.23 556.06,-23.9 557.64,-17.08"/>
<text text-anchor="middle" x="687.5" y="-80.5" font-family="Roboto" font-size="10.00"> typeName_</text>
</g>
<!-- Node26&#45;&gt;Node26 -->
<g id="edge41" class="edge">
<title>Node26&#45;&gt;Node26</title>
<path fill="none" stroke="#9a32cd" stroke-dasharray="5,2" d="M478.61,-30.43C481.97,-34.29 490.94,-37 505.5,-37 532.13,-37 540.04,-27.94 529.22,-19.37"/>
<polygon fill="#9a32cd" stroke="#9a32cd" points="481.97,-31.4 481.36,-20.82 475.24,-29.47 481.97,-31.4"/>
<text text-anchor="middle" x="505.5" y="-40" font-family="Roboto" font-size="10.00"> EMPTY</text>
</g>
</g>
</svg>
