<?xml version="1.0" encoding="UTF-8" standalone="no"?>
<!DOCTYPE svg PUBLIC "-//W3C//DTD SVG 1.1//EN"
 "http://www.w3.org/Graphics/SVG/1.1/DTD/svg11.dtd">
<!-- Generated by graphviz version 7.0.3 (0)
 -->
<!-- Title: Urho3D::AreaAllocator Pages: 1 -->
<svg width="287pt" height="207pt"
 viewBox="0.00 0.00 287.00 207.00" xmlns="http://www.w3.org/2000/svg" xmlns:xlink="http://www.w3.org/1999/xlink">
<g id="graph0" class="graph" transform="scale(1 1) rotate(0) translate(4 203)">
<title>Urho3D::AreaAllocator</title>
<!-- Node1 -->
<g id="node1" class="node">
<title>Node1</title>
<g id="a_node1"><a xlink:title="Rectangular area allocator.">
<polygon fill="#999999" stroke="#666666" points="173.5,-19 57.5,-19 57.5,0 173.5,0 173.5,-19"/>
<text text-anchor="middle" x="115.5" y="-7" font-family="Roboto" font-size="10.00">Urho3D::AreaAllocator</text>
</a>
</g>
</g>
<!-- Node2 -->
<g id="node2" class="node">
<title>Node2</title>
<g id="a_node2"><a xlink:href="class_urho3_d_1_1_p_o_d_vector.html" target="_top" xlink:title=" ">
<polygon fill="white" stroke="#666666" points="109,-125 0,-125 0,-95 109,-95 109,-125"/>
<text text-anchor="start" x="8" y="-113" font-family="Roboto" font-size="10.00">Urho3D::PODVector&lt;</text>
<text text-anchor="middle" x="54.5" y="-102" font-family="Roboto" font-size="10.00"> Urho3D::IntRect &gt;</text>
</a>
</g>
</g>
<!-- Node2&#45;&gt;Node1 -->
<g id="edge1" class="edge">
<title>Node2&#45;&gt;Node1</title>
<path fill="none" stroke="#9a32cd" stroke-dasharray="5,2" d="M65.66,-84.56C72.62,-70.24 82.19,-52.06 92.5,-37 96.77,-30.77 102.3,-24.35 106.86,-19.4"/>
<polygon fill="#9a32cd" stroke="#9a32cd" points="62.65,-82.75 61.53,-93.28 68.97,-85.74 62.65,-82.75"/>
<text text-anchor="middle" x="117.5" y="-45.5" font-family="Roboto" font-size="10.00"> freeAreas_</text>
</g>
<!-- Node3 -->
<g id="node3" class="node">
<title>Node3</title>
<g id="a_node3"><a xlink:href="class_urho3_d_1_1_vector_base.html" target="_top" xlink:title="Vector base class.">
<polygon fill="white" stroke="#666666" points="107.5,-199 1.5,-199 1.5,-180 107.5,-180 107.5,-199"/>
<text text-anchor="middle" x="54.5" y="-187" font-family="Roboto" font-size="10.00">Urho3D::VectorBase</text>
</a>
</g>
</g>
<!-- Node3&#45;&gt;Node2 -->
<g id="edge2" class="edge">
<title>Node3&#45;&gt;Node2</title>
<path fill="none" stroke="#63b8ff" d="M54.5,-168.17C54.5,-154.69 54.5,-137.33 54.5,-125.3"/>
<polygon fill="#63b8ff" stroke="#63b8ff" points="51,-168.1 54.5,-178.1 58,-168.1 51,-168.1"/>
</g>
<!-- Node4 -->
<g id="node4" class="node">
<title>Node4</title>
<g id="a_node4"><a xlink:href="class_urho3_d_1_1_int_vector2.html" target="_top" xlink:title="Two&#45;dimensional vector with integer values.">
<polygon fill="white" stroke="#666666" points="228,-119.5 127,-119.5 127,-100.5 228,-100.5 228,-119.5"/>
<text text-anchor="middle" x="177.5" y="-107.5" font-family="Roboto" font-size="10.00">Urho3D::IntVector2</text>
</a>
</g>
</g>
<!-- Node4&#45;&gt;Node1 -->
<g id="edge3" class="edge">
<title>Node4&#45;&gt;Node1</title>
<path fill="none" stroke="#9a32cd" stroke-dasharray="5,2" d="M170.13,-89.42C163.96,-74.34 154.28,-53.38 142.5,-37 137.82,-30.5 131.47,-24.17 126.1,-19.33"/>
<polygon fill="#9a32cd" stroke="#9a32cd" points="166.83,-90.6 173.74,-98.64 173.35,-88.05 166.83,-90.6"/>
<text text-anchor="middle" x="177.5" y="-51" font-family="Roboto" font-size="10.00"> maxSize_</text>
<text text-anchor="middle" x="177.5" y="-40" font-family="Roboto" font-size="10.00">size_</text>
</g>
<!-- Node4&#45;&gt;Node4 -->
<g id="edge4" class="edge">
<title>Node4&#45;&gt;Node4</title>
<path fill="none" stroke="#9a32cd" stroke-dasharray="5,2" d="M239.45,-116.89C243.53,-115.29 246,-112.99 246,-110 246,-104.82 238.61,-101.72 228.28,-100.71"/>
<polygon fill="#9a32cd" stroke="#9a32cd" points="238.81,-113.45 229.76,-118.97 240.28,-120.3 238.81,-113.45"/>
<text text-anchor="middle" x="262.5" y="-135" font-family="Roboto" font-size="10.00"> DOWN</text>
<text text-anchor="middle" x="262.5" y="-124" font-family="Roboto" font-size="10.00">LEFT</text>
<text text-anchor="middle" x="262.5" y="-113" font-family="Roboto" font-size="10.00">ONE</text>
<text text-anchor="middle" x="262.5" y="-102" font-family="Roboto" font-size="10.00">RIGHT</text>
<text text-anchor="middle" x="262.5" y="-91" font-family="Roboto" font-size="10.00">UP</text>
<text text-anchor="middle" x="262.5" y="-80" font-family="Roboto" font-size="10.00">ZERO</text>
</g>
</g>
</svg>
