<?xml version="1.0" encoding="UTF-8" standalone="no"?>
<!DOCTYPE svg PUBLIC "-//W3C//DTD SVG 1.1//EN"
 "http://www.w3.org/Graphics/SVG/1.1/DTD/svg11.dtd">
<!-- Generated by graphviz version 7.0.3 (0)
 -->
<!-- Title: Urho3D::Log Pages: 1 -->
<svg width="1243pt" height="975pt"
 viewBox="0.00 0.00 1243.00 974.50" xmlns="http://www.w3.org/2000/svg" xmlns:xlink="http://www.w3.org/1999/xlink">
<g id="graph0" class="graph" transform="scale(1 1) rotate(0) translate(4 970.5)">
<title>Urho3D::Log</title>
<!-- Node1 -->
<g id="node1" class="node">
<title>Node1</title>
<g id="a_node1"><a xlink:title="Logging subsystem.">
<polygon fill="#999999" stroke="#666666" points="1235,-813.5 1164,-813.5 1164,-794.5 1235,-794.5 1235,-813.5"/>
<text text-anchor="middle" x="1199.5" y="-801.5" font-family="Roboto" font-size="10.00">Urho3D::Log</text>
</a>
</g>
</g>
<!-- Node2 -->
<g id="node2" class="node">
<title>Node2</title>
<g id="a_node2"><a xlink:href="class_urho3_d_1_1_object.html" target="_top" xlink:title=" ">
<polygon fill="white" stroke="#666666" points="454.5,-708.5 371.5,-708.5 371.5,-689.5 454.5,-689.5 454.5,-708.5"/>
<text text-anchor="middle" x="413" y="-696.5" font-family="Roboto" font-size="10.00">Urho3D::Object</text>
</a>
</g>
</g>
<!-- Node2&#45;&gt;Node1 -->
<g id="edge1" class="edge">
<title>Node2&#45;&gt;Node1</title>
<path fill="none" stroke="#63b8ff" d="M434.82,-716.04C449.81,-727.75 470.85,-743.09 491,-754 517.85,-768.54 525.11,-772.77 555,-779 783.2,-826.59 1066.54,-813.25 1163.83,-806.65"/>
<polygon fill="#63b8ff" stroke="#63b8ff" points="437.1,-713.38 427.1,-709.89 432.74,-718.86 437.1,-713.38"/>
</g>
<!-- Node18 -->
<g id="node13" class="node">
<title>Node18</title>
<g id="a_node13"><a xlink:href="class_urho3_d_1_1_event_handler.html" target="_top" xlink:title="Internal helper class for invoking event handler functions.">
<polygon fill="#fff0f0" stroke="red" points="722,-728.5 609,-728.5 609,-709.5 722,-709.5 722,-728.5"/>
<text text-anchor="middle" x="665.5" y="-716.5" font-family="Roboto" font-size="10.00">Urho3D::EventHandler</text>
</a>
</g>
</g>
<!-- Node2&#45;&gt;Node18 -->
<g id="edge14" class="edge">
<title>Node2&#45;&gt;Node18</title>
<path fill="none" stroke="#9a32cd" stroke-dasharray="5,2" d="M466.09,-703.16C507.78,-706.49 566.11,-711.14 608.74,-714.55"/>
<polygon fill="#9a32cd" stroke="#9a32cd" points="466.56,-699.69 456.31,-702.38 466,-706.66 466.56,-699.69"/>
<text text-anchor="middle" x="514" y="-723" font-family="Roboto" font-size="10.00"> receiver_</text>
<text text-anchor="middle" x="514" y="-712" font-family="Roboto" font-size="10.00">sender_</text>
</g>
<!-- Node29 -->
<g id="node23" class="node">
<title>Node29</title>
<g id="a_node23"><a xlink:href="class_urho3_d_1_1_file.html" target="_top" xlink:title="File opened either through the filesystem or from within a package file.">
<polygon fill="#fff0f0" stroke="red" points="700.5,-691.5 630.5,-691.5 630.5,-672.5 700.5,-672.5 700.5,-691.5"/>
<text text-anchor="middle" x="665.5" y="-679.5" font-family="Roboto" font-size="10.00">Urho3D::File</text>
</a>
</g>
</g>
<!-- Node2&#45;&gt;Node29 -->
<g id="edge28" class="edge">
<title>Node2&#45;&gt;Node29</title>
<path fill="none" stroke="#63b8ff" d="M466.17,-695.46C515.41,-692.12 587.81,-687.2 630.16,-684.33"/>
<polygon fill="#63b8ff" stroke="#63b8ff" points="466.05,-691.96 456.31,-696.13 466.53,-698.94 466.05,-691.96"/>
</g>
<!-- Node3 -->
<g id="node3" class="node">
<title>Node3</title>
<g id="a_node3"><a xlink:href="class_urho3_d_1_1_ref_counted.html" target="_top" xlink:title="Base class for intrusively reference&#45;counted objects. These are noncopyable and non&#45;assignable.">
<polygon fill="white" stroke="#666666" points="285,-97.5 178,-97.5 178,-78.5 285,-78.5 285,-97.5"/>
<text text-anchor="middle" x="231.5" y="-85.5" font-family="Roboto" font-size="10.00">Urho3D::RefCounted</text>
</a>
</g>
</g>
<!-- Node3&#45;&gt;Node2 -->
<g id="edge2" class="edge">
<title>Node3&#45;&gt;Node2</title>
<path fill="none" stroke="#63b8ff" d="M238.54,-108.55C267.21,-206.14 389.08,-620.99 409.19,-689.42"/>
<polygon fill="#63b8ff" stroke="#63b8ff" points="241.92,-107.66 235.75,-99.05 235.21,-109.63 241.92,-107.66"/>
</g>
<!-- Node5 -->
<g id="node5" class="node">
<title>Node5</title>
<g id="a_node5"><a xlink:href="class_urho3_d_1_1_context.html" target="_top" xlink:title="Urho3D execution context. Provides access to subsystems, object factories and attributes,...">
<polygon fill="white" stroke="#666666" points="1027.5,-392.5 938.5,-392.5 938.5,-373.5 1027.5,-373.5 1027.5,-392.5"/>
<text text-anchor="middle" x="983" y="-380.5" font-family="Roboto" font-size="10.00">Urho3D::Context</text>
</a>
</g>
</g>
<!-- Node3&#45;&gt;Node5 -->
<g id="edge5" class="edge">
<title>Node3&#45;&gt;Node5</title>
<path fill="none" stroke="#63b8ff" d="M296.66,-82.28C447.24,-70.37 816.93,-50.44 901,-133 972.29,-203.01 980.89,-336.19 981.88,-373.23"/>
<polygon fill="#63b8ff" stroke="#63b8ff" points="296.54,-78.78 286.85,-83.07 297.1,-85.76 296.54,-78.78"/>
</g>
<!-- Node4 -->
<g id="node4" class="node">
<title>Node4</title>
<g id="a_node4"><a xlink:href="struct_urho3_d_1_1_ref_count.html" target="_top" xlink:title="Reference count structure.">
<polygon fill="white" stroke="#666666" points="96,-97.5 0,-97.5 0,-78.5 96,-78.5 96,-97.5"/>
<text text-anchor="middle" x="48" y="-85.5" font-family="Roboto" font-size="10.00">Urho3D::RefCount</text>
</a>
</g>
</g>
<!-- Node4&#45;&gt;Node3 -->
<g id="edge3" class="edge">
<title>Node4&#45;&gt;Node3</title>
<path fill="none" stroke="#9a32cd" stroke-dasharray="5,2" d="M107.69,-88C130.24,-88 155.81,-88 177.76,-88"/>
<polygon fill="#9a32cd" stroke="#9a32cd" points="107.73,-84.5 97.73,-88 107.73,-91.5 107.73,-84.5"/>
<text text-anchor="middle" x="137" y="-91" font-family="Roboto" font-size="10.00"> refCount_</text>
</g>
<!-- Node5&#45;&gt;Node2 -->
<g id="edge4" class="edge">
<title>Node5&#45;&gt;Node2</title>
<path fill="none" stroke="#9a32cd" stroke-dasharray="5,2" d="M926.95,-373.22C825.62,-356.45 614.49,-327.63 555,-367 437.24,-444.93 417.54,-643.17 414.51,-689.3"/>
<polygon fill="#9a32cd" stroke="#9a32cd" points="926.23,-376.65 936.67,-374.85 927.39,-369.74 926.23,-376.65"/>
<text text-anchor="middle" x="665.5" y="-370" font-family="Roboto" font-size="10.00"> context_</text>
</g>
<!-- Node6 -->
<g id="node6" class="node">
<title>Node6</title>
<g id="a_node6"><a xlink:href="class_urho3_d_1_1_hash_map.html" target="_top" xlink:title=" ">
<polygon fill="white" stroke="orangered" points="756.5,-546.5 574.5,-546.5 574.5,-505.5 756.5,-505.5 756.5,-546.5"/>
<text text-anchor="start" x="582.5" y="-534.5" font-family="Roboto" font-size="10.00">Urho3D::HashMap&lt; Urho3D</text>
<text text-anchor="start" x="582.5" y="-523.5" font-family="Roboto" font-size="10.00">::StringHash, Urho3D::</text>
<text text-anchor="middle" x="665.5" y="-512.5" font-family="Roboto" font-size="10.00">SharedPtr&lt; Urho3D::ObjectFactory &gt; &gt;</text>
</a>
</g>
</g>
<!-- Node6&#45;&gt;Node5 -->
<g id="edge6" class="edge">
<title>Node6&#45;&gt;Node5</title>
<path fill="none" stroke="#9a32cd" stroke-dasharray="5,2" d="M767.94,-511.93C811.02,-502.91 860.52,-488.34 901,-465 933.94,-446.01 962.6,-410.04 975.19,-392.75"/>
<polygon fill="#9a32cd" stroke="#9a32cd" points="767.45,-508.46 758.34,-513.86 768.83,-515.32 767.45,-508.46"/>
<text text-anchor="middle" x="847.5" y="-509" font-family="Roboto" font-size="10.00"> factories_</text>
</g>
<!-- Node11 -->
<g id="node7" class="node">
<title>Node11</title>
<g id="a_node7"><a xlink:href="class_urho3_d_1_1_hash_map.html" target="_top" xlink:title=" ">
<polygon fill="white" stroke="orangered" points="740,-487.5 591,-487.5 591,-446.5 740,-446.5 740,-487.5"/>
<text text-anchor="start" x="599" y="-475.5" font-family="Roboto" font-size="10.00">Urho3D::HashMap&lt; Urho3D</text>
<text text-anchor="start" x="599" y="-464.5" font-family="Roboto" font-size="10.00">::StringHash, Urho3D::</text>
<text text-anchor="middle" x="665.5" y="-453.5" font-family="Roboto" font-size="10.00">SharedPtr&lt; Urho3D::Object &gt; &gt;</text>
</a>
</g>
</g>
<!-- Node11&#45;&gt;Node5 -->
<g id="edge7" class="edge">
<title>Node11&#45;&gt;Node5</title>
<path fill="none" stroke="#9a32cd" stroke-dasharray="5,2" d="M751.73,-457.38C796.88,-450.79 852.82,-440.23 901,-424 924.6,-416.05 949.92,-402.29 965.85,-392.93"/>
<polygon fill="#9a32cd" stroke="#9a32cd" points="751.4,-453.89 741.99,-458.76 752.38,-460.82 751.4,-453.89"/>
<text text-anchor="middle" x="847.5" y="-453" font-family="Roboto" font-size="10.00"> subsystems_</text>
</g>
<!-- Node12 -->
<g id="node8" class="node">
<title>Node12</title>
<g id="a_node8"><a xlink:href="class_urho3_d_1_1_hash_map.html" target="_top" xlink:title=" ">
<polygon fill="white" stroke="orangered" points="746.5,-428.5 584.5,-428.5 584.5,-387.5 746.5,-387.5 746.5,-428.5"/>
<text text-anchor="start" x="592.5" y="-416.5" font-family="Roboto" font-size="10.00">Urho3D::HashMap&lt; Urho3D</text>
<text text-anchor="start" x="592.5" y="-405.5" font-family="Roboto" font-size="10.00">::StringHash, Urho3D::</text>
<text text-anchor="middle" x="665.5" y="-394.5" font-family="Roboto" font-size="10.00">Vector&lt; Urho3D::AttributeInfo &gt; &gt;</text>
</a>
</g>
</g>
<!-- Node12&#45;&gt;Node5 -->
<g id="edge8" class="edge">
<title>Node12&#45;&gt;Node5</title>
<path fill="none" stroke="#9a32cd" stroke-dasharray="5,2" d="M758.19,-400.73C817.44,-396.04 891.86,-390.14 938.19,-386.47"/>
<polygon fill="#9a32cd" stroke="#9a32cd" points="758.13,-397.23 748.44,-401.51 758.68,-404.21 758.13,-397.23"/>
<text text-anchor="middle" x="847.5" y="-412" font-family="Roboto" font-size="10.00"> attributes_</text>
<text text-anchor="middle" x="847.5" y="-401" font-family="Roboto" font-size="10.00">networkAttributes_</text>
</g>
<!-- Node13 -->
<g id="node9" class="node">
<title>Node13</title>
<g id="a_node9"><a xlink:href="class_urho3_d_1_1_hash_map.html" target="_top" xlink:title=" ">
<polygon fill="white" stroke="orangered" points="749,-156 582,-156 582,-104 749,-104 749,-156"/>
<text text-anchor="start" x="590" y="-144" font-family="Roboto" font-size="10.00">Urho3D::HashMap&lt; Urho3D</text>
<text text-anchor="start" x="590" y="-133" font-family="Roboto" font-size="10.00">::StringHash, Urho3D::</text>
<text text-anchor="start" x="590" y="-122" font-family="Roboto" font-size="10.00">SharedPtr&lt; Urho3D::EventReceiver</text>
<text text-anchor="middle" x="665.5" y="-111" font-family="Roboto" font-size="10.00">Group &gt; &gt;</text>
</a>
</g>
</g>
<!-- Node13&#45;&gt;Node5 -->
<g id="edge9" class="edge">
<title>Node13&#45;&gt;Node5</title>
<path fill="none" stroke="#9a32cd" stroke-dasharray="5,2" d="M760.68,-130.86C807.58,-135.87 862.35,-149.25 901,-182 962.71,-234.29 977.9,-340.52 981.18,-373.21"/>
<polygon fill="#9a32cd" stroke="#9a32cd" points="761.05,-127.38 750.76,-129.92 760.39,-134.34 761.05,-127.38"/>
<text text-anchor="middle" x="847.5" y="-185" font-family="Roboto" font-size="10.00"> eventReceivers_</text>
</g>
<!-- Node14 -->
<g id="node10" class="node">
<title>Node14</title>
<g id="a_node10"><a xlink:href="class_urho3_d_1_1_hash_map.html" target="_top" xlink:title=" ">
<polygon fill="white" stroke="orangered" points="776,-322 555,-322 555,-270 776,-270 776,-322"/>
<text text-anchor="start" x="563" y="-310" font-family="Roboto" font-size="10.00">Urho3D::HashMap&lt; Urho3D</text>
<text text-anchor="start" x="563" y="-299" font-family="Roboto" font-size="10.00">::Object *, Urho3D::HashMap</text>
<text text-anchor="start" x="563" y="-288" font-family="Roboto" font-size="10.00">&lt; Urho3D::StringHash, Urho3D</text>
<text text-anchor="middle" x="665.5" y="-277" font-family="Roboto" font-size="10.00">::SharedPtr&lt; Urho3D::EventReceiverGroup &gt; &gt; &gt;</text>
</a>
</g>
</g>
<!-- Node14&#45;&gt;Node5 -->
<g id="edge10" class="edge">
<title>Node14&#45;&gt;Node5</title>
<path fill="none" stroke="#9a32cd" stroke-dasharray="5,2" d="M787.88,-305.84C824.97,-311.31 865.36,-319.8 901,-333 927.34,-342.76 954.42,-361.61 969.64,-373.17"/>
<polygon fill="#9a32cd" stroke="#9a32cd" points="788.37,-302.38 777.98,-304.46 787.4,-309.31 788.37,-302.38"/>
<text text-anchor="middle" x="847.5" y="-336" font-family="Roboto" font-size="10.00"> specificEventReceivers_</text>
</g>
<!-- Node15 -->
<g id="node11" class="node">
<title>Node15</title>
<g id="a_node11"><a xlink:href="class_urho3_d_1_1_p_o_d_vector.html" target="_top" xlink:title=" ">
<polygon fill="white" stroke="orangered" points="720,-252 611,-252 611,-222 720,-222 720,-252"/>
<text text-anchor="start" x="619" y="-240" font-family="Roboto" font-size="10.00">Urho3D::PODVector&lt;</text>
<text text-anchor="middle" x="665.5" y="-229" font-family="Roboto" font-size="10.00"> Urho3D::Object * &gt;</text>
</a>
</g>
</g>
<!-- Node15&#45;&gt;Node5 -->
<g id="edge11" class="edge">
<title>Node15&#45;&gt;Node5</title>
<path fill="none" stroke="#9a32cd" stroke-dasharray="5,2" d="M731.53,-241.41C781.02,-247.22 849.19,-260.71 901,-292 935.94,-313.1 964.24,-354.11 976.05,-373.01"/>
<polygon fill="#9a32cd" stroke="#9a32cd" points="732.15,-237.95 721.83,-240.35 731.39,-244.91 732.15,-237.95"/>
<text text-anchor="middle" x="847.5" y="-295" font-family="Roboto" font-size="10.00"> eventSenders_</text>
</g>
<!-- Node17 -->
<g id="node12" class="node">
<title>Node17</title>
<g id="a_node12"><a xlink:href="class_urho3_d_1_1_p_o_d_vector.html" target="_top" xlink:title=" ">
<polygon fill="white" stroke="orangered" points="722.5,-204 608.5,-204 608.5,-174 722.5,-174 722.5,-204"/>
<text text-anchor="start" x="616.5" y="-192" font-family="Roboto" font-size="10.00">Urho3D::PODVector&lt;</text>
<text text-anchor="middle" x="665.5" y="-181" font-family="Roboto" font-size="10.00"> Urho3D::HashMap * &gt;</text>
</a>
</g>
</g>
<!-- Node17&#45;&gt;Node5 -->
<g id="edge12" class="edge">
<title>Node17&#45;&gt;Node5</title>
<path fill="none" stroke="#9a32cd" stroke-dasharray="5,2" d="M734.38,-188.58C784.76,-191.5 852.8,-202.59 901,-238 949.33,-273.51 972.6,-347.04 979.62,-373.36"/>
<polygon fill="#9a32cd" stroke="#9a32cd" points="734.61,-185.09 724.45,-188.11 734.28,-192.08 734.61,-185.09"/>
<text text-anchor="middle" x="847.5" y="-241" font-family="Roboto" font-size="10.00"> eventDataMaps_</text>
</g>
<!-- Node18&#45;&gt;Node5 -->
<g id="edge13" class="edge">
<title>Node18&#45;&gt;Node5</title>
<path fill="none" stroke="#9a32cd" stroke-dasharray="5,2" d="M733.63,-716.69C794.03,-713.23 876.88,-704.57 901,-683 946.44,-642.36 974.78,-439.67 980.8,-392.72"/>
<polygon fill="#9a32cd" stroke="#9a32cd" points="733.56,-713.19 723.76,-717.22 733.94,-720.18 733.56,-713.19"/>
<text text-anchor="middle" x="847.5" y="-715" font-family="Roboto" font-size="10.00"> eventHandler_</text>
</g>
<!-- Node23 -->
<g id="node16" class="node">
<title>Node23</title>
<g id="a_node16"><a xlink:href="class_urho3_d_1_1_linked_list.html" target="_top" xlink:title=" ">
<polygon fill="white" stroke="#666666" points="1047,-765 919,-765 919,-735 1047,-735 1047,-765"/>
<text text-anchor="start" x="927" y="-753" font-family="Roboto" font-size="10.00">Urho3D::LinkedList</text>
<text text-anchor="middle" x="983" y="-742" font-family="Roboto" font-size="10.00">&lt; Urho3D::EventHandler &gt;</text>
</a>
</g>
</g>
<!-- Node18&#45;&gt;Node23 -->
<g id="edge18" class="edge">
<title>Node18&#45;&gt;Node23</title>
<path fill="none" stroke="#9a32cd" stroke-dasharray="5,2" d="M733.7,-724.42C780.62,-728.35 844.68,-734 901,-740 906.78,-740.62 912.78,-741.29 918.79,-741.99"/>
<polygon fill="#9a32cd" stroke="#9a32cd" points="734.23,-720.95 723.97,-723.61 733.64,-727.92 734.23,-720.95"/>
<text text-anchor="middle" x="847.5" y="-743" font-family="Roboto" font-size="10.00"> head_</text>
</g>
<!-- Node21 -->
<g id="node14" class="node">
<title>Node21</title>
<g id="a_node14"><a xlink:href="class_urho3_d_1_1_hash_map.html" target="_top" xlink:title=" ">
<polygon fill="white" stroke="orangered" points="735,-654.5 596,-654.5 596,-613.5 735,-613.5 735,-654.5"/>
<text text-anchor="start" x="604" y="-642.5" font-family="Roboto" font-size="10.00">Urho3D::HashMap&lt; Urho3D</text>
<text text-anchor="start" x="604" y="-631.5" font-family="Roboto" font-size="10.00">::String, Urho3D::Vector</text>
<text text-anchor="middle" x="665.5" y="-620.5" font-family="Roboto" font-size="10.00">&lt; Urho3D::StringHash &gt; &gt;</text>
</a>
</g>
</g>
<!-- Node21&#45;&gt;Node5 -->
<g id="edge15" class="edge">
<title>Node21&#45;&gt;Node5</title>
<path fill="none" stroke="#9a32cd" stroke-dasharray="5,2" d="M746.62,-633.96C796.22,-629.93 858.36,-617.09 901,-581 961.95,-529.41 977.66,-424.82 981.12,-392.64"/>
<polygon fill="#9a32cd" stroke="#9a32cd" points="746.51,-630.46 736.78,-634.65 747,-637.45 746.51,-630.46"/>
<text text-anchor="middle" x="847.5" y="-631" font-family="Roboto" font-size="10.00"> objectCategories_</text>
</g>
<!-- Node22 -->
<g id="node15" class="node">
<title>Node22</title>
<g id="a_node15"><a xlink:href="class_urho3_d_1_1_hash_map.html" target="_top" xlink:title=" ">
<polygon fill="white" stroke="orangered" points="743.5,-595 587.5,-595 587.5,-565 743.5,-565 743.5,-595"/>
<text text-anchor="start" x="595.5" y="-583" font-family="Roboto" font-size="10.00">Urho3D::HashMap&lt; StringHash,</text>
<text text-anchor="middle" x="665.5" y="-572" font-family="Roboto" font-size="10.00"> Variant &gt;</text>
</a>
</g>
</g>
<!-- Node22&#45;&gt;Node5 -->
<g id="edge16" class="edge">
<title>Node22&#45;&gt;Node5</title>
<path fill="none" stroke="#9a32cd" stroke-dasharray="5,2" d="M755.15,-574.5C802.45,-567.68 859.32,-552.87 901,-521 946.46,-486.24 971.21,-418.06 979.14,-392.76"/>
<polygon fill="#9a32cd" stroke="#9a32cd" points="754.92,-571 745.47,-575.79 755.84,-577.94 754.92,-571"/>
<text text-anchor="middle" x="847.5" y="-569" font-family="Roboto" font-size="10.00"> globalVars_</text>
</g>
<!-- Node23&#45;&gt;Node2 -->
<g id="edge17" class="edge">
<title>Node23&#45;&gt;Node2</title>
<path fill="none" stroke="#9a32cd" stroke-dasharray="5,2" d="M907.63,-757.44C810.27,-764.98 635.05,-771.02 491,-735 468.95,-729.49 445.57,-717.58 430.43,-708.97"/>
<polygon fill="#9a32cd" stroke="#9a32cd" points="907.63,-760.95 917.32,-756.66 907.07,-753.97 907.63,-760.95"/>
<text text-anchor="middle" x="665.5" y="-767" font-family="Roboto" font-size="10.00"> eventHandlers_</text>
</g>
<!-- Node24 -->
<g id="node17" class="node">
<title>Node24</title>
<g id="a_node17"><a xlink:href="class_urho3_d_1_1_mutex.html" target="_top" xlink:title="Operating system mutual exclusion primitive.">
<polygon fill="white" stroke="#666666" points="1024.5,-851.5 941.5,-851.5 941.5,-832.5 1024.5,-832.5 1024.5,-851.5"/>
<text text-anchor="middle" x="983" y="-839.5" font-family="Roboto" font-size="10.00">Urho3D::Mutex</text>
</a>
</g>
</g>
<!-- Node24&#45;&gt;Node1 -->
<g id="edge19" class="edge">
<title>Node24&#45;&gt;Node1</title>
<path fill="none" stroke="#9a32cd" stroke-dasharray="5,2" d="M1036.12,-835.81C1068.01,-831.64 1109.55,-825.54 1146,-818 1151.73,-816.82 1157.76,-815.38 1163.61,-813.89"/>
<polygon fill="#9a32cd" stroke="#9a32cd" points="1035.81,-832.32 1026.34,-837.06 1036.7,-839.26 1035.81,-832.32"/>
<text text-anchor="middle" x="1105.5" y="-835" font-family="Roboto" font-size="10.00"> logMutex_</text>
</g>
<!-- Node25 -->
<g id="node18" class="node">
<title>Node25</title>
<g id="a_node18"><a xlink:href="class_urho3_d_1_1_list.html" target="_top" xlink:title=" ">
<polygon fill="white" stroke="#666666" points="1040.5,-900 925.5,-900 925.5,-870 1040.5,-870 1040.5,-900"/>
<text text-anchor="start" x="933.5" y="-888" font-family="Roboto" font-size="10.00">Urho3D::List&lt; Urho3D</text>
<text text-anchor="middle" x="983" y="-877" font-family="Roboto" font-size="10.00">::StoredLogMessage &gt;</text>
</a>
</g>
</g>
<!-- Node25&#45;&gt;Node1 -->
<g id="edge20" class="edge">
<title>Node25&#45;&gt;Node1</title>
<path fill="none" stroke="#9a32cd" stroke-dasharray="5,2" d="M1052.08,-876.14C1081.97,-870.48 1116.83,-861.39 1146,-847 1163.12,-838.56 1179.59,-823.58 1189.39,-813.72"/>
<polygon fill="#9a32cd" stroke="#9a32cd" points="1051.6,-872.67 1042.38,-877.88 1052.84,-879.56 1051.6,-872.67"/>
<text text-anchor="middle" x="1105.5" y="-876" font-family="Roboto" font-size="10.00"> threadMessages_</text>
</g>
<!-- Node26 -->
<g id="node19" class="node">
<title>Node26</title>
<g id="a_node19"><a xlink:href="class_urho3_d_1_1_list_base.html" target="_top" xlink:title="Doubly&#45;linked list base class.">
<polygon fill="white" stroke="#666666" points="711.5,-894.5 619.5,-894.5 619.5,-875.5 711.5,-875.5 711.5,-894.5"/>
<text text-anchor="middle" x="665.5" y="-882.5" font-family="Roboto" font-size="10.00">Urho3D::ListBase</text>
</a>
</g>
</g>
<!-- Node26&#45;&gt;Node25 -->
<g id="edge21" class="edge">
<title>Node26&#45;&gt;Node25</title>
<path fill="none" stroke="#63b8ff" d="M723.05,-885C780.17,-885 867.91,-885 925.13,-885"/>
<polygon fill="#63b8ff" stroke="#63b8ff" points="723.22,-881.5 713.22,-885 723.22,-888.5 723.22,-881.5"/>
</g>
<!-- Node27 -->
<g id="node20" class="node">
<title>Node27</title>
<g id="a_node20"><a xlink:href="struct_urho3_d_1_1_list_node_base.html" target="_top" xlink:title="Doubly&#45;linked list node base class.">
<polygon fill="white" stroke="#666666" points="471.5,-926.5 354.5,-926.5 354.5,-907.5 471.5,-907.5 471.5,-926.5"/>
<text text-anchor="middle" x="413" y="-914.5" font-family="Roboto" font-size="10.00">Urho3D::ListNodeBase</text>
</a>
</g>
</g>
<!-- Node27&#45;&gt;Node26 -->
<g id="edge22" class="edge">
<title>Node27&#45;&gt;Node26</title>
<path fill="none" stroke="#9a32cd" stroke-dasharray="5,2" d="M483.12,-908.17C526.48,-902.63 581.17,-895.65 619.09,-890.8"/>
<polygon fill="#9a32cd" stroke="#9a32cd" points="482.76,-904.69 473.29,-909.43 483.65,-911.63 482.76,-904.69"/>
<text text-anchor="middle" x="514" y="-921" font-family="Roboto" font-size="10.00"> head_</text>
<text text-anchor="middle" x="514" y="-910" font-family="Roboto" font-size="10.00">tail_</text>
</g>
<!-- Node27&#45;&gt;Node27 -->
<g id="edge23" class="edge">
<title>Node27&#45;&gt;Node27</title>
<path fill="none" stroke="#9a32cd" stroke-dasharray="5,2" d="M396.32,-937.93C398.4,-941.79 403.96,-944.5 413,-944.5 429.52,-944.5 434.43,-935.44 427.72,-926.87"/>
<polygon fill="#9a32cd" stroke="#9a32cd" points="399.71,-938.82 398.02,-928.36 392.82,-937.59 399.71,-938.82"/>
<text text-anchor="middle" x="413" y="-958.5" font-family="Roboto" font-size="10.00"> next_</text>
<text text-anchor="middle" x="413" y="-947.5" font-family="Roboto" font-size="10.00">prev_</text>
</g>
<!-- Node9 -->
<g id="node21" class="node">
<title>Node9</title>
<g id="a_node21"><a xlink:href="struct_urho3_d_1_1_allocator_block.html" target="_top" xlink:title="Allocator memory block.">
<polygon fill="#fff0f0" stroke="red" points="473,-860.5 353,-860.5 353,-841.5 473,-841.5 473,-860.5"/>
<text text-anchor="middle" x="413" y="-848.5" font-family="Roboto" font-size="10.00">Urho3D::AllocatorBlock</text>
</a>
</g>
</g>
<!-- Node9&#45;&gt;Node26 -->
<g id="edge24" class="edge">
<title>Node9&#45;&gt;Node26</title>
<path fill="none" stroke="#9a32cd" stroke-dasharray="5,2" d="M484.66,-860.59C527.84,-866.45 581.78,-873.77 619.27,-878.86"/>
<polygon fill="#9a32cd" stroke="#9a32cd" points="485.24,-857.14 474.86,-859.26 484.3,-864.07 485.24,-857.14"/>
<text text-anchor="middle" x="514" y="-870" font-family="Roboto" font-size="10.00"> allocator_</text>
</g>
<!-- Node9&#45;&gt;Node9 -->
<g id="edge25" class="edge">
<title>Node9&#45;&gt;Node9</title>
<path fill="none" stroke="#9a32cd" stroke-dasharray="5,2" d="M396.32,-871.93C398.4,-875.79 403.96,-878.5 413,-878.5 429.52,-878.5 434.43,-869.44 427.72,-860.87"/>
<polygon fill="#9a32cd" stroke="#9a32cd" points="399.71,-872.82 398.02,-862.36 392.82,-871.59 399.71,-872.82"/>
<text text-anchor="middle" x="413" y="-881.5" font-family="Roboto" font-size="10.00"> next_</text>
</g>
<!-- Node28 -->
<g id="node22" class="node">
<title>Node28</title>
<g id="a_node22"><a xlink:href="class_urho3_d_1_1_shared_ptr.html" target="_top" xlink:title=" ">
<polygon fill="white" stroke="#666666" points="1035,-702 931,-702 931,-672 1035,-672 1035,-702"/>
<text text-anchor="start" x="939" y="-690" font-family="Roboto" font-size="10.00">Urho3D::SharedPtr&lt;</text>
<text text-anchor="middle" x="983" y="-679" font-family="Roboto" font-size="10.00"> Urho3D::File &gt;</text>
</a>
</g>
</g>
<!-- Node28&#45;&gt;Node1 -->
<g id="edge26" class="edge">
<title>Node28&#45;&gt;Node1</title>
<path fill="none" stroke="#9a32cd" stroke-dasharray="5,2" d="M1022.04,-707.75C1068.52,-733.1 1145.28,-774.97 1180.2,-794.02"/>
<polygon fill="#9a32cd" stroke="#9a32cd" points="1023.83,-704.74 1013.37,-703.02 1020.47,-710.88 1023.83,-704.74"/>
<text text-anchor="middle" x="1105.5" y="-776" font-family="Roboto" font-size="10.00"> logFile_</text>
</g>
<!-- Node29&#45;&gt;Node28 -->
<g id="edge27" class="edge">
<title>Node29&#45;&gt;Node28</title>
<path fill="none" stroke="#9a32cd" stroke-dasharray="5,2" d="M712.13,-676.44C759.45,-671.53 835.54,-665.99 901,-672 910.68,-672.89 920.94,-674.36 930.78,-676.05"/>
<polygon fill="#9a32cd" stroke="#9a32cd" points="711.82,-672.96 702.25,-677.51 712.57,-679.92 711.82,-672.96"/>
<text text-anchor="middle" x="847.5" y="-675" font-family="Roboto" font-size="10.00"> ptr_</text>
</g>
<!-- Node30 -->
<g id="node24" class="node">
<title>Node30</title>
<g id="a_node24"><a xlink:href="class_urho3_d_1_1_abstract_file.html" target="_top" xlink:title="A common root class for objects that implement both Serializer and Deserializer.">
<polygon fill="#fff0f0" stroke="red" points="466.5,-47.5 359.5,-47.5 359.5,-28.5 466.5,-28.5 466.5,-47.5"/>
<text text-anchor="middle" x="413" y="-35.5" font-family="Roboto" font-size="10.00">Urho3D::AbstractFile</text>
</a>
</g>
</g>
<!-- Node30&#45;&gt;Node29 -->
<g id="edge29" class="edge">
<title>Node30&#45;&gt;Node29</title>
<path fill="none" stroke="#63b8ff" d="M415.67,-58.98C423.98,-157.9 464.17,-576.61 555,-663 574.78,-681.82 606.15,-685.64 630.25,-685.29"/>
<polygon fill="#63b8ff" stroke="#63b8ff" points="419.17,-58.83 414.87,-49.15 412.19,-59.41 419.17,-58.83"/>
</g>
<!-- Node33 -->
<g id="node25" class="node">
<title>Node33</title>
<g id="a_node25"><a xlink:href="class_urho3_d_1_1_string.html" target="_top" xlink:title="String class.">
<polygon fill="white" stroke="#666666" points="271.5,-26.5 191.5,-26.5 191.5,-7.5 271.5,-7.5 271.5,-26.5"/>
<text text-anchor="middle" x="231.5" y="-14.5" font-family="Roboto" font-size="10.00">Urho3D::String</text>
</a>
</g>
</g>
<!-- Node33&#45;&gt;Node1 -->
<g id="edge32" class="edge">
<title>Node33&#45;&gt;Node1</title>
<path fill="none" stroke="#9a32cd" stroke-dasharray="5,2" d="M283.13,-9.63C319.02,-5.04 368.36,0 412,0 412,0 412,0 984,0 1156.82,0 1193.96,-702.23 1198.08,-794.12"/>
<polygon fill="#9a32cd" stroke="#9a32cd" points="282.93,-6.13 273.47,-10.9 283.84,-13.07 282.93,-6.13"/>
<text text-anchor="middle" x="665.5" y="-3" font-family="Roboto" font-size="10.00"> lastMessage_</text>
</g>
<!-- Node33&#45;&gt;Node30 -->
<g id="edge30" class="edge">
<title>Node33&#45;&gt;Node30</title>
<path fill="none" stroke="#9a32cd" stroke-dasharray="5,2" d="M283.13,-22.92C306.84,-25.7 335.08,-29 359.08,-31.81"/>
<polygon fill="#9a32cd" stroke="#9a32cd" points="283.73,-19.47 273.4,-21.78 282.92,-26.42 283.73,-19.47"/>
<text text-anchor="middle" x="319" y="-32" font-family="Roboto" font-size="10.00"> name_</text>
</g>
<!-- Node33&#45;&gt;Node33 -->
<g id="edge31" class="edge">
<title>Node33&#45;&gt;Node33</title>
<path fill="none" stroke="#9a32cd" stroke-dasharray="5,2" d="M216.14,-38.26C218.21,-41.94 223.33,-44.5 231.5,-44.5 246.88,-44.5 251.45,-35.44 245.2,-26.87"/>
<polygon fill="#9a32cd" stroke="#9a32cd" points="219.61,-38.77 217.58,-28.37 212.68,-37.76 219.61,-38.77"/>
<text text-anchor="middle" x="231.5" y="-47.5" font-family="Roboto" font-size="10.00"> EMPTY</text>
</g>
</g>
</svg>
