<?xml version="1.0" encoding="UTF-8" standalone="no"?>
<!DOCTYPE svg PUBLIC "-//W3C//DTD SVG 1.1//EN"
 "http://www.w3.org/Graphics/SVG/1.1/DTD/svg11.dtd">
<!-- Generated by graphviz version 7.0.3 (0)
 -->
<!-- Title: Urho3D::OcclusionBuffer Pages: 1 -->
<svg width="1025pt" height="1084pt"
 viewBox="0.00 0.00 1025.00 1084.00" xmlns="http://www.w3.org/2000/svg" xmlns:xlink="http://www.w3.org/1999/xlink">
<g id="graph0" class="graph" transform="scale(1 1) rotate(0) translate(4 1080)">
<title>Urho3D::OcclusionBuffer</title>
<!-- Node1 -->
<g id="node1" class="node">
<title>Node1</title>
<g id="a_node1"><a xlink:title="Software renderer for occlusion.">
<polygon fill="#999999" stroke="#666666" points="1015.5,-873.5 890.5,-873.5 890.5,-854.5 1015.5,-854.5 1015.5,-873.5"/>
<text text-anchor="middle" x="953" y="-861.5" font-family="Roboto" font-size="10.00">Urho3D::OcclusionBuffer</text>
</a>
</g>
</g>
<!-- Node2 -->
<g id="node2" class="node">
<title>Node2</title>
<g id="a_node2"><a xlink:href="class_urho3_d_1_1_object.html" target="_top" xlink:title=" ">
<polygon fill="white" stroke="#666666" points="426,-548.5 343,-548.5 343,-529.5 426,-529.5 426,-548.5"/>
<text text-anchor="middle" x="384.5" y="-536.5" font-family="Roboto" font-size="10.00">Urho3D::Object</text>
</a>
</g>
</g>
<!-- Node2&#45;&gt;Node1 -->
<g id="edge1" class="edge">
<title>Node2&#45;&gt;Node1</title>
<path fill="none" stroke="#63b8ff" d="M398.3,-558.42C420.17,-589.87 467.95,-651.41 525,-681 667.21,-754.76 735.7,-696.23 871,-782 902.94,-802.25 931.87,-837.29 944.82,-854.25"/>
<polygon fill="#63b8ff" stroke="#63b8ff" points="401.26,-556.55 392.75,-550.25 395.47,-560.49 401.26,-556.55"/>
</g>
<!-- Node18 -->
<g id="node15" class="node">
<title>Node18</title>
<g id="a_node15"><a xlink:href="class_urho3_d_1_1_event_handler.html" target="_top" xlink:title="Internal helper class for invoking event handler functions.">
<polygon fill="#fff0f0" stroke="red" points="692,-482.5 579,-482.5 579,-463.5 692,-463.5 692,-482.5"/>
<text text-anchor="middle" x="635.5" y="-470.5" font-family="Roboto" font-size="10.00">Urho3D::EventHandler</text>
</a>
</g>
</g>
<!-- Node2&#45;&gt;Node18 -->
<g id="edge23" class="edge">
<title>Node2&#45;&gt;Node18</title>
<path fill="none" stroke="#9a32cd" stroke-dasharray="5,2" d="M436.83,-527.08C440.42,-525.32 443.86,-523.31 447,-521 458.62,-512.46 452.73,-501.58 465,-494 498.81,-473.13 543.67,-468.35 578.74,-468.54"/>
<polygon fill="#9a32cd" stroke="#9a32cd" points="435.73,-523.75 427.82,-530.81 438.4,-530.22 435.73,-523.75"/>
<text text-anchor="middle" x="486" y="-508" font-family="Roboto" font-size="10.00"> receiver_</text>
<text text-anchor="middle" x="486" y="-497" font-family="Roboto" font-size="10.00">sender_</text>
</g>
<!-- Node3 -->
<g id="node3" class="node">
<title>Node3</title>
<g id="a_node3"><a xlink:href="class_urho3_d_1_1_ref_counted.html" target="_top" xlink:title="Base class for intrusively reference&#45;counted objects. These are noncopyable and non&#45;assignable.">
<polygon fill="white" stroke="#666666" points="285,-456.5 178,-456.5 178,-437.5 285,-437.5 285,-456.5"/>
<text text-anchor="middle" x="231.5" y="-444.5" font-family="Roboto" font-size="10.00">Urho3D::RefCounted</text>
</a>
</g>
</g>
<!-- Node3&#45;&gt;Node2 -->
<g id="edge2" class="edge">
<title>Node3&#45;&gt;Node2</title>
<path fill="none" stroke="#63b8ff" d="M249.58,-464.81C266.52,-481.52 293.94,-506.11 322,-521 328.39,-524.39 335.5,-527.22 342.55,-529.55"/>
<polygon fill="#63b8ff" stroke="#63b8ff" points="252.32,-462.6 242.8,-457.96 247.35,-467.53 252.32,-462.6"/>
</g>
<!-- Node5 -->
<g id="node5" class="node">
<title>Node5</title>
<g id="a_node5"><a xlink:href="class_urho3_d_1_1_context.html" target="_top" xlink:title="Urho3D execution context. Provides access to subsystems, object factories and attributes,...">
<polygon fill="white" stroke="#666666" points="997.5,-370.5 908.5,-370.5 908.5,-351.5 997.5,-351.5 997.5,-370.5"/>
<text text-anchor="middle" x="953" y="-358.5" font-family="Roboto" font-size="10.00">Urho3D::Context</text>
</a>
</g>
</g>
<!-- Node3&#45;&gt;Node5 -->
<g id="edge5" class="edge">
<title>Node3&#45;&gt;Node5</title>
<path fill="none" stroke="#63b8ff" d="M296.68,-446.42C394.22,-444.79 585.39,-438.69 746,-416 802.37,-408.04 816.15,-403.24 871,-388 889,-383 908.9,-376.38 924.47,-370.95"/>
<polygon fill="#63b8ff" stroke="#63b8ff" points="296.72,-442.91 286.78,-446.57 296.83,-449.91 296.72,-442.91"/>
</g>
<!-- Node4 -->
<g id="node4" class="node">
<title>Node4</title>
<g id="a_node4"><a xlink:href="struct_urho3_d_1_1_ref_count.html" target="_top" xlink:title="Reference count structure.">
<polygon fill="white" stroke="#666666" points="96,-456.5 0,-456.5 0,-437.5 96,-437.5 96,-456.5"/>
<text text-anchor="middle" x="48" y="-444.5" font-family="Roboto" font-size="10.00">Urho3D::RefCount</text>
</a>
</g>
</g>
<!-- Node4&#45;&gt;Node3 -->
<g id="edge3" class="edge">
<title>Node4&#45;&gt;Node3</title>
<path fill="none" stroke="#9a32cd" stroke-dasharray="5,2" d="M107.69,-447C130.24,-447 155.81,-447 177.76,-447"/>
<polygon fill="#9a32cd" stroke="#9a32cd" points="107.73,-443.5 97.73,-447 107.73,-450.5 107.73,-443.5"/>
<text text-anchor="middle" x="137" y="-450" font-family="Roboto" font-size="10.00"> refCount_</text>
</g>
<!-- Node5&#45;&gt;Node2 -->
<g id="edge4" class="edge">
<title>Node5&#45;&gt;Node2</title>
<path fill="none" stroke="#9a32cd" stroke-dasharray="5,2" d="M945.6,-381.8C935.23,-411.62 911.69,-465.71 871,-491 861.57,-496.86 541.67,-525.34 426.39,-535.44"/>
<polygon fill="#9a32cd" stroke="#9a32cd" points="948.88,-383.03 948.68,-372.43 942.23,-380.84 948.88,-383.03"/>
<text text-anchor="middle" x="635.5" y="-529" font-family="Roboto" font-size="10.00"> context_</text>
</g>
<!-- Node6 -->
<g id="node6" class="node">
<title>Node6</title>
<g id="a_node6"><a xlink:href="class_urho3_d_1_1_hash_map.html" target="_top" xlink:title=" ">
<polygon fill="white" stroke="#666666" points="726.5,-288.5 544.5,-288.5 544.5,-247.5 726.5,-247.5 726.5,-288.5"/>
<text text-anchor="start" x="552.5" y="-276.5" font-family="Roboto" font-size="10.00">Urho3D::HashMap&lt; Urho3D</text>
<text text-anchor="start" x="552.5" y="-265.5" font-family="Roboto" font-size="10.00">::StringHash, Urho3D::</text>
<text text-anchor="middle" x="635.5" y="-254.5" font-family="Roboto" font-size="10.00">SharedPtr&lt; Urho3D::ObjectFactory &gt; &gt;</text>
</a>
</g>
</g>
<!-- Node6&#45;&gt;Node5 -->
<g id="edge6" class="edge">
<title>Node6&#45;&gt;Node5</title>
<path fill="none" stroke="#9a32cd" stroke-dasharray="5,2" d="M737.78,-287.68C779.55,-296.95 828.13,-309.25 871,-324 892.93,-331.55 916.97,-342.95 933.12,-351.1"/>
<polygon fill="#9a32cd" stroke="#9a32cd" points="738.74,-284.31 728.23,-285.59 737.25,-291.14 738.74,-284.31"/>
<text text-anchor="middle" x="817.5" y="-327" font-family="Roboto" font-size="10.00"> factories_</text>
</g>
<!-- Node7 -->
<g id="node7" class="node">
<title>Node7</title>
<g id="a_node7"><a xlink:href="class_urho3_d_1_1_hash_base.html" target="_top" xlink:title="Hash set/map base class.">
<polygon fill="#fff0f0" stroke="red" points="434.5,-218.5 334.5,-218.5 334.5,-199.5 434.5,-199.5 434.5,-218.5"/>
<text text-anchor="middle" x="384.5" y="-206.5" font-family="Roboto" font-size="10.00">Urho3D::HashBase</text>
</a>
</g>
</g>
<!-- Node7&#45;&gt;Node6 -->
<g id="edge7" class="edge">
<title>Node7&#45;&gt;Node6</title>
<path fill="none" stroke="#63b8ff" d="M438.54,-221.57C469.8,-228.97 510.14,-238.53 546.09,-247.05"/>
<polygon fill="#63b8ff" stroke="#63b8ff" points="439.47,-218.19 428.93,-219.29 437.85,-225 439.47,-218.19"/>
</g>
<!-- Node11 -->
<g id="node8" class="node">
<title>Node11</title>
<g id="a_node8"><a xlink:href="class_urho3_d_1_1_hash_map.html" target="_top" xlink:title=" ">
<polygon fill="white" stroke="#666666" points="710,-229.5 561,-229.5 561,-188.5 710,-188.5 710,-229.5"/>
<text text-anchor="start" x="569" y="-217.5" font-family="Roboto" font-size="10.00">Urho3D::HashMap&lt; Urho3D</text>
<text text-anchor="start" x="569" y="-206.5" font-family="Roboto" font-size="10.00">::StringHash, Urho3D::</text>
<text text-anchor="middle" x="635.5" y="-195.5" font-family="Roboto" font-size="10.00">SharedPtr&lt; Urho3D::Object &gt; &gt;</text>
</a>
</g>
</g>
<!-- Node7&#45;&gt;Node11 -->
<g id="edge9" class="edge">
<title>Node7&#45;&gt;Node11</title>
<path fill="none" stroke="#63b8ff" d="M446.31,-209C480.77,-209 524.13,-209 560.54,-209"/>
<polygon fill="#63b8ff" stroke="#63b8ff" points="446.51,-205.5 436.51,-209 446.51,-212.5 446.51,-205.5"/>
</g>
<!-- Node12 -->
<g id="node9" class="node">
<title>Node12</title>
<g id="a_node9"><a xlink:href="class_urho3_d_1_1_hash_map.html" target="_top" xlink:title=" ">
<polygon fill="white" stroke="#666666" points="716.5,-170.5 554.5,-170.5 554.5,-129.5 716.5,-129.5 716.5,-170.5"/>
<text text-anchor="start" x="562.5" y="-158.5" font-family="Roboto" font-size="10.00">Urho3D::HashMap&lt; Urho3D</text>
<text text-anchor="start" x="562.5" y="-147.5" font-family="Roboto" font-size="10.00">::StringHash, Urho3D::</text>
<text text-anchor="middle" x="635.5" y="-136.5" font-family="Roboto" font-size="10.00">Vector&lt; Urho3D::AttributeInfo &gt; &gt;</text>
</a>
</g>
</g>
<!-- Node7&#45;&gt;Node12 -->
<g id="edge11" class="edge">
<title>Node7&#45;&gt;Node12</title>
<path fill="none" stroke="#63b8ff" d="M438.43,-196.46C472.03,-188.5 516.16,-178.04 554.05,-169.06"/>
<polygon fill="#63b8ff" stroke="#63b8ff" points="437.85,-193 428.93,-198.71 439.47,-199.81 437.85,-193"/>
</g>
<!-- Node13 -->
<g id="node10" class="node">
<title>Node13</title>
<g id="a_node10"><a xlink:href="class_urho3_d_1_1_hash_map.html" target="_top" xlink:title=" ">
<polygon fill="white" stroke="#666666" points="719,-52 552,-52 552,0 719,0 719,-52"/>
<text text-anchor="start" x="560" y="-40" font-family="Roboto" font-size="10.00">Urho3D::HashMap&lt; Urho3D</text>
<text text-anchor="start" x="560" y="-29" font-family="Roboto" font-size="10.00">::StringHash, Urho3D::</text>
<text text-anchor="start" x="560" y="-18" font-family="Roboto" font-size="10.00">SharedPtr&lt; Urho3D::EventReceiver</text>
<text text-anchor="middle" x="635.5" y="-7" font-family="Roboto" font-size="10.00">Group &gt; &gt;</text>
</a>
</g>
</g>
<!-- Node7&#45;&gt;Node13 -->
<g id="edge13" class="edge">
<title>Node7&#45;&gt;Node13</title>
<path fill="none" stroke="#63b8ff" d="M398.63,-189.69C420.98,-158.26 469.44,-96 525,-61 533.27,-55.79 542.39,-51.29 551.73,-47.42"/>
<polygon fill="#63b8ff" stroke="#63b8ff" points="395.79,-187.64 392.94,-197.85 401.54,-191.65 395.79,-187.64"/>
</g>
<!-- Node14 -->
<g id="node11" class="node">
<title>Node14</title>
<g id="a_node11"><a xlink:href="class_urho3_d_1_1_hash_map.html" target="_top" xlink:title=" ">
<polygon fill="white" stroke="#666666" points="746,-407 525,-407 525,-355 746,-355 746,-407"/>
<text text-anchor="start" x="533" y="-395" font-family="Roboto" font-size="10.00">Urho3D::HashMap&lt; Urho3D</text>
<text text-anchor="start" x="533" y="-384" font-family="Roboto" font-size="10.00">::Object *, Urho3D::HashMap</text>
<text text-anchor="start" x="533" y="-373" font-family="Roboto" font-size="10.00">&lt; Urho3D::StringHash, Urho3D</text>
<text text-anchor="middle" x="635.5" y="-362" font-family="Roboto" font-size="10.00">::SharedPtr&lt; Urho3D::EventReceiverGroup &gt; &gt; &gt;</text>
</a>
</g>
</g>
<!-- Node7&#45;&gt;Node14 -->
<g id="edge15" class="edge">
<title>Node7&#45;&gt;Node14</title>
<path fill="none" stroke="#63b8ff" d="M399.51,-227.89C422.45,-257.48 470.92,-314.63 525,-346 530.35,-349.1 536.01,-351.97 541.83,-354.61"/>
<polygon fill="#63b8ff" stroke="#63b8ff" points="402.49,-226.03 393.65,-220.19 396.92,-230.27 402.49,-226.03"/>
</g>
<!-- Node21 -->
<g id="node17" class="node">
<title>Node21</title>
<g id="a_node17"><a xlink:href="class_urho3_d_1_1_hash_map.html" target="_top" xlink:title=" ">
<polygon fill="white" stroke="#666666" points="705,-111.5 566,-111.5 566,-70.5 705,-70.5 705,-111.5"/>
<text text-anchor="start" x="574" y="-99.5" font-family="Roboto" font-size="10.00">Urho3D::HashMap&lt; Urho3D</text>
<text text-anchor="start" x="574" y="-88.5" font-family="Roboto" font-size="10.00">::String, Urho3D::Vector</text>
<text text-anchor="middle" x="635.5" y="-77.5" font-family="Roboto" font-size="10.00">&lt; Urho3D::StringHash &gt; &gt;</text>
</a>
</g>
</g>
<!-- Node7&#45;&gt;Node21 -->
<g id="edge25" class="edge">
<title>Node7&#45;&gt;Node21</title>
<path fill="none" stroke="#63b8ff" d="M406.89,-192.35C433.3,-172.53 480.21,-139.65 525,-120 537.79,-114.39 551.9,-109.66 565.63,-105.76"/>
<polygon fill="#63b8ff" stroke="#63b8ff" points="404.87,-189.49 399.03,-198.33 409.11,-195.06 404.87,-189.49"/>
</g>
<!-- Node22 -->
<g id="node18" class="node">
<title>Node22</title>
<g id="a_node18"><a xlink:href="class_urho3_d_1_1_hash_map.html" target="_top" xlink:title=" ">
<polygon fill="white" stroke="#666666" points="713.5,-337 557.5,-337 557.5,-307 713.5,-307 713.5,-337"/>
<text text-anchor="start" x="565.5" y="-325" font-family="Roboto" font-size="10.00">Urho3D::HashMap&lt; StringHash,</text>
<text text-anchor="middle" x="635.5" y="-314" font-family="Roboto" font-size="10.00"> Variant &gt;</text>
</a>
</g>
</g>
<!-- Node7&#45;&gt;Node22 -->
<g id="edge27" class="edge">
<title>Node7&#45;&gt;Node22</title>
<path fill="none" stroke="#63b8ff" d="M406.82,-225.71C433.14,-245.55 479.98,-278.3 525,-297 535.17,-301.23 546.19,-304.8 557.18,-307.81"/>
<polygon fill="#63b8ff" stroke="#63b8ff" points="409.05,-223.01 398.98,-219.72 404.79,-228.57 409.05,-223.01"/>
</g>
<!-- Node11&#45;&gt;Node5 -->
<g id="edge8" class="edge">
<title>Node11&#45;&gt;Node5</title>
<path fill="none" stroke="#9a32cd" stroke-dasharray="5,2" d="M721.36,-223.51C768.01,-234.15 825.48,-251.79 871,-280 902.78,-299.69 931.57,-334.15 944.62,-351.06"/>
<polygon fill="#9a32cd" stroke="#9a32cd" points="722.35,-220.15 711.84,-221.42 720.85,-226.99 722.35,-220.15"/>
<text text-anchor="middle" x="817.5" y="-283" font-family="Roboto" font-size="10.00"> subsystems_</text>
</g>
<!-- Node12&#45;&gt;Node5 -->
<g id="edge10" class="edge">
<title>Node12&#45;&gt;Node5</title>
<path fill="none" stroke="#9a32cd" stroke-dasharray="5,2" d="M728.35,-156.05C775.12,-163.18 830.5,-178.28 871,-210 919.71,-248.16 942.74,-323.99 949.66,-351.09"/>
<polygon fill="#9a32cd" stroke="#9a32cd" points="728.85,-152.59 718.46,-154.66 727.88,-159.52 728.85,-152.59"/>
<text text-anchor="middle" x="817.5" y="-224" font-family="Roboto" font-size="10.00"> attributes_</text>
<text text-anchor="middle" x="817.5" y="-213" font-family="Roboto" font-size="10.00">networkAttributes_</text>
</g>
<!-- Node13&#45;&gt;Node5 -->
<g id="edge12" class="edge">
<title>Node13&#45;&gt;Node5</title>
<path fill="none" stroke="#9a32cd" stroke-dasharray="5,2" d="M730.6,-28.26C778.29,-34.21 833.81,-49.24 871,-85 950.54,-161.5 953.12,-311.61 952.33,-351.22"/>
<polygon fill="#9a32cd" stroke="#9a32cd" points="731.13,-24.8 720.8,-27.16 730.35,-31.75 731.13,-24.8"/>
<text text-anchor="middle" x="817.5" y="-88" font-family="Roboto" font-size="10.00"> eventReceivers_</text>
</g>
<!-- Node14&#45;&gt;Node5 -->
<g id="edge14" class="edge">
<title>Node14&#45;&gt;Node5</title>
<path fill="none" stroke="#9a32cd" stroke-dasharray="5,2" d="M757.6,-373.32C810.53,-369.97 869.28,-366.24 908.19,-363.78"/>
<polygon fill="#9a32cd" stroke="#9a32cd" points="757.67,-369.81 747.91,-373.94 758.12,-376.8 757.67,-369.81"/>
<text text-anchor="middle" x="817.5" y="-376" font-family="Roboto" font-size="10.00"> specificEventReceivers_</text>
</g>
<!-- Node15 -->
<g id="node12" class="node">
<title>Node15</title>
<g id="a_node12"><a xlink:href="class_urho3_d_1_1_p_o_d_vector.html" target="_top" xlink:title=" ">
<polygon fill="white" stroke="#666666" points="690,-626 581,-626 581,-596 690,-596 690,-626"/>
<text text-anchor="start" x="589" y="-614" font-family="Roboto" font-size="10.00">Urho3D::PODVector&lt;</text>
<text text-anchor="middle" x="635.5" y="-603" font-family="Roboto" font-size="10.00"> Urho3D::Object * &gt;</text>
</a>
</g>
</g>
<!-- Node15&#45;&gt;Node5 -->
<g id="edge16" class="edge">
<title>Node15&#45;&gt;Node5</title>
<path fill="none" stroke="#9a32cd" stroke-dasharray="5,2" d="M701.74,-603.21C766.51,-594.95 857.98,-581.66 871,-571 936.32,-517.55 949.08,-404.79 951.47,-370.86"/>
<polygon fill="#9a32cd" stroke="#9a32cd" points="701.37,-599.73 691.89,-604.46 702.25,-606.68 701.37,-599.73"/>
<text text-anchor="middle" x="817.5" y="-597" font-family="Roboto" font-size="10.00"> eventSenders_</text>
</g>
<!-- Node16 -->
<g id="node13" class="node">
<title>Node16</title>
<g id="a_node13"><a xlink:href="class_urho3_d_1_1_vector_base.html" target="_top" xlink:title="Vector base class.">
<polygon fill="white" stroke="#666666" points="437.5,-771.5 331.5,-771.5 331.5,-752.5 437.5,-752.5 437.5,-771.5"/>
<text text-anchor="middle" x="384.5" y="-759.5" font-family="Roboto" font-size="10.00">Urho3D::VectorBase</text>
</a>
</g>
</g>
<!-- Node16&#45;&gt;Node15 -->
<g id="edge17" class="edge">
<title>Node16&#45;&gt;Node15</title>
<path fill="none" stroke="#63b8ff" d="M417.11,-747C444,-732.9 482.11,-709.56 507,-680 519.56,-665.09 510.13,-652.61 525,-640 540.52,-626.83 561.39,-619.57 580.75,-615.6"/>
<polygon fill="#63b8ff" stroke="#63b8ff" points="415.72,-743.78 408.4,-751.43 418.9,-750.02 415.72,-743.78"/>
</g>
<!-- Node17 -->
<g id="node14" class="node">
<title>Node17</title>
<g id="a_node14"><a xlink:href="class_urho3_d_1_1_p_o_d_vector.html" target="_top" xlink:title=" ">
<polygon fill="white" stroke="#666666" points="692.5,-578 578.5,-578 578.5,-548 692.5,-548 692.5,-578"/>
<text text-anchor="start" x="586.5" y="-566" font-family="Roboto" font-size="10.00">Urho3D::PODVector&lt;</text>
<text text-anchor="middle" x="635.5" y="-555" font-family="Roboto" font-size="10.00"> Urho3D::HashMap * &gt;</text>
</a>
</g>
</g>
<!-- Node16&#45;&gt;Node17 -->
<g id="edge19" class="edge">
<title>Node16&#45;&gt;Node17</title>
<path fill="none" stroke="#63b8ff" d="M395.38,-742.12C414.8,-705.25 461.63,-626.45 525,-587 540.86,-577.13 560.23,-571.28 578.23,-567.84"/>
<polygon fill="#63b8ff" stroke="#63b8ff" points="392.39,-740.28 390.94,-750.78 398.62,-743.48 392.39,-740.28"/>
</g>
<!-- Node24 -->
<g id="node20" class="node">
<title>Node24</title>
<g id="a_node20"><a xlink:href="class_urho3_d_1_1_vector.html" target="_top" xlink:title=" ">
<polygon fill="white" stroke="#666666" points="698,-1076 573,-1076 573,-1046 698,-1046 698,-1076"/>
<text text-anchor="start" x="581" y="-1064" font-family="Roboto" font-size="10.00">Urho3D::Vector&lt; Urho3D</text>
<text text-anchor="middle" x="635.5" y="-1053" font-family="Roboto" font-size="10.00">::OcclusionBufferData &gt;</text>
</a>
</g>
</g>
<!-- Node16&#45;&gt;Node24 -->
<g id="edge31" class="edge">
<title>Node16&#45;&gt;Node24</title>
<path fill="none" stroke="#63b8ff" d="M389.71,-783.03C401.27,-835 438.56,-970.11 525,-1037 538.62,-1047.54 555.91,-1053.66 572.71,-1057.16"/>
<polygon fill="#63b8ff" stroke="#63b8ff" points="393.17,-782.49 387.68,-773.44 386.33,-783.94 393.17,-782.49"/>
</g>
<!-- Node25 -->
<g id="node21" class="node">
<title>Node25</title>
<g id="a_node21"><a xlink:href="class_urho3_d_1_1_vector.html" target="_top" xlink:title=" ">
<polygon fill="white" stroke="#666666" points="700.5,-836.5 570.5,-836.5 570.5,-795.5 700.5,-795.5 700.5,-836.5"/>
<text text-anchor="start" x="578.5" y="-824.5" font-family="Roboto" font-size="10.00">Urho3D::Vector&lt; Urho3D</text>
<text text-anchor="start" x="578.5" y="-813.5" font-family="Roboto" font-size="10.00">::SharedArrayPtr&lt; Urho3D</text>
<text text-anchor="middle" x="635.5" y="-802.5" font-family="Roboto" font-size="10.00">::DepthValue &gt; &gt;</text>
</a>
</g>
</g>
<!-- Node16&#45;&gt;Node25 -->
<g id="edge33" class="edge">
<title>Node16&#45;&gt;Node25</title>
<path fill="none" stroke="#63b8ff" d="M442.35,-774.33C480.39,-782.58 530.52,-793.45 570.04,-802.02"/>
<polygon fill="#63b8ff" stroke="#63b8ff" points="443.45,-770.99 432.94,-772.29 441.97,-777.83 443.45,-770.99"/>
</g>
<!-- Node26 -->
<g id="node22" class="node">
<title>Node26</title>
<g id="a_node22"><a xlink:href="class_urho3_d_1_1_p_o_d_vector.html" target="_top" xlink:title=" ">
<polygon fill="white" stroke="#666666" points="702,-777 569,-777 569,-747 702,-747 702,-777"/>
<text text-anchor="start" x="577" y="-765" font-family="Roboto" font-size="10.00">Urho3D::PODVector&lt;</text>
<text text-anchor="middle" x="635.5" y="-754" font-family="Roboto" font-size="10.00"> Urho3D::OcclusionBatch &gt;</text>
</a>
</g>
</g>
<!-- Node16&#45;&gt;Node26 -->
<g id="edge35" class="edge">
<title>Node16&#45;&gt;Node26</title>
<path fill="none" stroke="#63b8ff" d="M448.75,-762C485.41,-762 531.5,-762 568.59,-762"/>
<polygon fill="#63b8ff" stroke="#63b8ff" points="449.21,-758.5 439.21,-762 449.21,-765.5 449.21,-758.5"/>
</g>
<!-- Node17&#45;&gt;Node5 -->
<g id="edge18" class="edge">
<title>Node17&#45;&gt;Node5</title>
<path fill="none" stroke="#9a32cd" stroke-dasharray="5,2" d="M704.1,-561.46C763.75,-558.85 845.12,-551.83 871,-533 927.58,-491.83 946,-400.89 950.66,-370.85"/>
<polygon fill="#9a32cd" stroke="#9a32cd" points="704.22,-557.95 694.37,-561.85 704.5,-564.95 704.22,-557.95"/>
<text text-anchor="middle" x="817.5" y="-559" font-family="Roboto" font-size="10.00"> eventDataMaps_</text>
</g>
<!-- Node18&#45;&gt;Node5 -->
<g id="edge20" class="edge">
<title>Node18&#45;&gt;Node5</title>
<path fill="none" stroke="#9a32cd" stroke-dasharray="5,2" d="M703.57,-478.44C752.47,-479.57 819,-475.05 871,-449 907.02,-430.96 934.96,-389.72 946.39,-370.81"/>
<polygon fill="#9a32cd" stroke="#9a32cd" points="703.79,-474.95 693.68,-478.12 703.56,-481.94 703.79,-474.95"/>
<text text-anchor="middle" x="817.5" y="-479" font-family="Roboto" font-size="10.00"> eventHandler_</text>
</g>
<!-- Node23 -->
<g id="node19" class="node">
<title>Node23</title>
<g id="a_node19"><a xlink:href="class_urho3_d_1_1_linked_list.html" target="_top" xlink:title=" ">
<polygon fill="white" stroke="#666666" points="1017,-663 889,-663 889,-633 1017,-633 1017,-663"/>
<text text-anchor="start" x="897" y="-651" font-family="Roboto" font-size="10.00">Urho3D::LinkedList</text>
<text text-anchor="middle" x="953" y="-640" font-family="Roboto" font-size="10.00">&lt; Urho3D::EventHandler &gt;</text>
</a>
</g>
</g>
<!-- Node18&#45;&gt;Node23 -->
<g id="edge29" class="edge">
<title>Node18&#45;&gt;Node23</title>
<path fill="none" stroke="#9a32cd" stroke-dasharray="5,2" d="M703.35,-474.88C719.25,-478.49 734.82,-485.16 746,-497 780.91,-533.98 728.79,-573.3 764,-610 772.77,-619.15 837.61,-630.85 888.72,-638.84"/>
<polygon fill="#9a32cd" stroke="#9a32cd" points="704.3,-471.5 693.83,-473.12 703.03,-478.38 704.3,-471.5"/>
<text text-anchor="middle" x="817.5" y="-638" font-family="Roboto" font-size="10.00"> head_</text>
</g>
<!-- Node19 -->
<g id="node16" class="node">
<title>Node19</title>
<g id="a_node16"><a xlink:href="struct_urho3_d_1_1_linked_list_node.html" target="_top" xlink:title="Singly&#45;linked list node base class.">
<polygon fill="white" stroke="#666666" points="447,-482.5 322,-482.5 322,-463.5 447,-463.5 447,-482.5"/>
<text text-anchor="middle" x="384.5" y="-470.5" font-family="Roboto" font-size="10.00">Urho3D::LinkedListNode</text>
</a>
</g>
</g>
<!-- Node19&#45;&gt;Node18 -->
<g id="edge21" class="edge">
<title>Node19&#45;&gt;Node18</title>
<path fill="none" stroke="#63b8ff" d="M458.51,-473C496.97,-473 543.39,-473 578.9,-473"/>
<polygon fill="#63b8ff" stroke="#63b8ff" points="458.88,-469.5 448.88,-473 458.88,-476.5 458.88,-469.5"/>
</g>
<!-- Node19&#45;&gt;Node19 -->
<g id="edge22" class="edge">
<title>Node19&#45;&gt;Node19</title>
<path fill="none" stroke="#9a32cd" stroke-dasharray="5,2" d="M370.28,-494.26C372.2,-497.94 376.94,-500.5 384.5,-500.5 398.74,-500.5 402.97,-491.44 397.18,-482.87"/>
<polygon fill="#9a32cd" stroke="#9a32cd" points="373.75,-494.75 371.62,-484.37 366.81,-493.81 373.75,-494.75"/>
<text text-anchor="middle" x="384.5" y="-503.5" font-family="Roboto" font-size="10.00"> next_</text>
</g>
<!-- Node21&#45;&gt;Node5 -->
<g id="edge24" class="edge">
<title>Node21&#45;&gt;Node5</title>
<path fill="none" stroke="#9a32cd" stroke-dasharray="5,2" d="M716.76,-92.18C766.57,-96.97 828.88,-110.84 871,-148 935.08,-204.54 948.69,-317.31 951.38,-351.17"/>
<polygon fill="#9a32cd" stroke="#9a32cd" points="717.13,-88.7 706.88,-91.35 716.55,-95.68 717.13,-88.7"/>
<text text-anchor="middle" x="817.5" y="-151" font-family="Roboto" font-size="10.00"> objectCategories_</text>
</g>
<!-- Node22&#45;&gt;Node5 -->
<g id="edge26" class="edge">
<title>Node22&#45;&gt;Node5</title>
<path fill="none" stroke="#9a32cd" stroke-dasharray="5,2" d="M725.01,-332.94C784.74,-340.32 861,-349.75 908.16,-355.58"/>
<polygon fill="#9a32cd" stroke="#9a32cd" points="725.54,-329.48 715.18,-331.73 724.68,-336.43 725.54,-329.48"/>
<text text-anchor="middle" x="817.5" y="-354" font-family="Roboto" font-size="10.00"> globalVars_</text>
</g>
<!-- Node23&#45;&gt;Node2 -->
<g id="edge28" class="edge">
<title>Node23&#45;&gt;Node2</title>
<path fill="none" stroke="#9a32cd" stroke-dasharray="5,2" d="M877.44,-658.67C790.32,-668.22 643.07,-675.25 525,-635 470.18,-616.31 417.12,-569.54 395.58,-548.97"/>
<polygon fill="#9a32cd" stroke="#9a32cd" points="877.76,-662.15 887.29,-657.54 876.96,-655.2 877.76,-662.15"/>
<text text-anchor="middle" x="635.5" y="-669" font-family="Roboto" font-size="10.00"> eventHandlers_</text>
</g>
<!-- Node24&#45;&gt;Node1 -->
<g id="edge30" class="edge">
<title>Node24&#45;&gt;Node1</title>
<path fill="none" stroke="#9a32cd" stroke-dasharray="5,2" d="M709.69,-1047.97C721.98,-1044.93 734.48,-1041.3 746,-1037 805.26,-1014.9 822.87,-1010.03 871,-969 905.34,-939.72 934.58,-893.73 946.4,-873.78"/>
<polygon fill="#9a32cd" stroke="#9a32cd" points="708.89,-1044.57 699.96,-1050.26 710.49,-1051.38 708.89,-1044.57"/>
<text text-anchor="middle" x="817.5" y="-1032" font-family="Roboto" font-size="10.00"> buffers_</text>
</g>
<!-- Node25&#45;&gt;Node1 -->
<g id="edge32" class="edge">
<title>Node25&#45;&gt;Node1</title>
<path fill="none" stroke="#9a32cd" stroke-dasharray="5,2" d="M712.19,-825.81C758.19,-831.98 818.07,-840.38 871,-849 880.46,-850.54 890.51,-852.3 900.21,-854.06"/>
<polygon fill="#9a32cd" stroke="#9a32cd" points="712.69,-822.34 702.31,-824.49 711.76,-829.28 712.69,-822.34"/>
<text text-anchor="middle" x="817.5" y="-852" font-family="Roboto" font-size="10.00"> mipBuffers_</text>
</g>
<!-- Node26&#45;&gt;Node1 -->
<g id="edge34" class="edge">
<title>Node26&#45;&gt;Node1</title>
<path fill="none" stroke="#9a32cd" stroke-dasharray="5,2" d="M713.5,-774.53C760.12,-783.55 820.18,-797.72 871,-818 895.48,-827.77 921.63,-843.75 937.39,-854.07"/>
<polygon fill="#9a32cd" stroke="#9a32cd" points="714.22,-771.11 703.74,-772.69 712.92,-777.99 714.22,-771.11"/>
<text text-anchor="middle" x="817.5" y="-821" font-family="Roboto" font-size="10.00"> batches_</text>
</g>
<!-- Node27 -->
<g id="node23" class="node">
<title>Node27</title>
<g id="a_node23"><a xlink:href="class_urho3_d_1_1_matrix3x4.html" target="_top" xlink:title="3x4 matrix for scene node transform calculations.">
<polygon fill="white" stroke="#666666" points="685,-987.5 586,-987.5 586,-968.5 685,-968.5 685,-987.5"/>
<text text-anchor="middle" x="635.5" y="-975.5" font-family="Roboto" font-size="10.00">Urho3D::Matrix3x4</text>
</a>
</g>
</g>
<!-- Node27&#45;&gt;Node1 -->
<g id="edge36" class="edge">
<title>Node27&#45;&gt;Node1</title>
<path fill="none" stroke="#9a32cd" stroke-dasharray="5,2" d="M696.43,-970.25C712.65,-967.59 730.11,-964.19 746,-960 803.24,-944.91 817.77,-939.9 871,-914 895.52,-902.07 922.08,-884.75 937.87,-873.94"/>
<polygon fill="#9a32cd" stroke="#9a32cd" points="696.26,-966.74 686.93,-971.75 697.35,-973.65 696.26,-966.74"/>
<text text-anchor="middle" x="817.5" y="-957" font-family="Roboto" font-size="10.00"> view_</text>
</g>
<!-- Node27&#45;&gt;Node27 -->
<g id="edge37" class="edge">
<title>Node27&#45;&gt;Node27</title>
<path fill="none" stroke="#9a32cd" stroke-dasharray="5,2" d="M608.96,-998.93C612.28,-1002.79 621.13,-1005.5 635.5,-1005.5 661.78,-1005.5 669.58,-996.44 658.9,-987.87"/>
<polygon fill="#9a32cd" stroke="#9a32cd" points="612.33,-999.9 611.68,-989.32 605.59,-997.99 612.33,-999.9"/>
<text text-anchor="middle" x="635.5" y="-1019.5" font-family="Roboto" font-size="10.00"> IDENTITY</text>
<text text-anchor="middle" x="635.5" y="-1008.5" font-family="Roboto" font-size="10.00">ZERO</text>
</g>
<!-- Node28 -->
<g id="node24" class="node">
<title>Node28</title>
<g id="a_node24"><a xlink:href="class_urho3_d_1_1_matrix4.html" target="_top" xlink:title="4x4 matrix for arbitrary linear transforms including projection.">
<polygon fill="white" stroke="#666666" points="680,-910.5 591,-910.5 591,-891.5 680,-891.5 680,-910.5"/>
<text text-anchor="middle" x="635.5" y="-898.5" font-family="Roboto" font-size="10.00">Urho3D::Matrix4</text>
</a>
</g>
</g>
<!-- Node28&#45;&gt;Node1 -->
<g id="edge38" class="edge">
<title>Node28&#45;&gt;Node1</title>
<path fill="none" stroke="#9a32cd" stroke-dasharray="5,2" d="M691.52,-896.26C739.11,-891.95 809.71,-885.05 871,-877 877.92,-876.09 885.16,-875.05 892.34,-873.97"/>
<polygon fill="#9a32cd" stroke="#9a32cd" points="691.39,-892.76 681.75,-897.14 692.02,-899.73 691.39,-892.76"/>
<text text-anchor="middle" x="817.5" y="-902" font-family="Roboto" font-size="10.00"> projection_</text>
<text text-anchor="middle" x="817.5" y="-891" font-family="Roboto" font-size="10.00">viewProj_</text>
</g>
<!-- Node28&#45;&gt;Node28 -->
<g id="edge39" class="edge">
<title>Node28&#45;&gt;Node28</title>
<path fill="none" stroke="#9a32cd" stroke-dasharray="5,2" d="M608.96,-921.93C612.28,-925.79 621.13,-928.5 635.5,-928.5 661.78,-928.5 669.58,-919.44 658.9,-910.87"/>
<polygon fill="#9a32cd" stroke="#9a32cd" points="612.33,-922.9 611.68,-912.32 605.59,-920.99 612.33,-922.9"/>
<text text-anchor="middle" x="635.5" y="-942.5" font-family="Roboto" font-size="10.00"> IDENTITY</text>
<text text-anchor="middle" x="635.5" y="-931.5" font-family="Roboto" font-size="10.00">ZERO</text>
</g>
<!-- Node29 -->
<g id="node25" class="node">
<title>Node29</title>
<g id="a_node25"><a xlink:href="class_urho3_d_1_1_timer.html" target="_top" xlink:title="Low&#45;resolution operating system timer.">
<polygon fill="white" stroke="#666666" points="676,-873.5 595,-873.5 595,-854.5 676,-854.5 676,-873.5"/>
<text text-anchor="middle" x="635.5" y="-861.5" font-family="Roboto" font-size="10.00">Urho3D::Timer</text>
</a>
</g>
</g>
<!-- Node29&#45;&gt;Node1 -->
<g id="edge40" class="edge">
<title>Node29&#45;&gt;Node1</title>
<path fill="none" stroke="#9a32cd" stroke-dasharray="5,2" d="M687.74,-864C743.02,-864 831.05,-864 890.15,-864"/>
<polygon fill="#9a32cd" stroke="#9a32cd" points="687.97,-860.5 677.97,-864 687.97,-867.5 687.97,-860.5"/>
<text text-anchor="middle" x="817.5" y="-867" font-family="Roboto" font-size="10.00"> useTimer_</text>
</g>
</g>
</svg>
