<?xml version="1.0" encoding="UTF-8" standalone="no"?>
<!DOCTYPE svg PUBLIC "-//W3C//DTD SVG 1.1//EN"
 "http://www.w3.org/Graphics/SVG/1.1/DTD/svg11.dtd">
<!-- Generated by graphviz version 7.0.3 (0)
 -->
<!-- Title: Urho3D::Object::GetGlobalVar Pages: 1 -->
<svg width="877pt" height="150pt"
 viewBox="0.00 0.00 877.00 150.00" xmlns="http://www.w3.org/2000/svg" xmlns:xlink="http://www.w3.org/1999/xlink">
<g id="graph0" class="graph" transform="scale(1 1) rotate(0) translate(4 146)">
<title>Urho3D::Object::GetGlobalVar</title>
<!-- Node1 -->
<g id="node1" class="node">
<title>Node1</title>
<g id="a_node1"><a xlink:title=" ">
<polygon fill="#999999" stroke="#666666" points="145,-107 0,-107 0,-88 145,-88 145,-107"/>
<text text-anchor="middle" x="72.5" y="-95" font-family="Roboto" font-size="10.00">Urho3D::Object::GetGlobalVar</text>
</a>
</g>
</g>
<!-- Node2 -->
<g id="node2" class="node">
<title>Node2</title>
<g id="a_node2"><a xlink:href="class_urho3_d_1_1_context.html#a8856236257d604dac81d7085f231fc98" target="_top" xlink:title="Return global variable based on key.">
<polygon fill="white" stroke="#666666" points="333,-107 181,-107 181,-88 333,-88 333,-107"/>
<text text-anchor="middle" x="257" y="-95" font-family="Roboto" font-size="10.00">Urho3D::Context::GetGlobalVar</text>
</a>
</g>
</g>
<!-- Node1&#45;&gt;Node2 -->
<g id="edge1" class="edge">
<title>Node1&#45;&gt;Node2</title>
<path fill="none" stroke="#63b8ff" d="M145.37,-97.5C153.23,-97.5 161.3,-97.5 169.32,-97.5"/>
<polygon fill="#63b8ff" stroke="#63b8ff" points="169.08,-101 179.08,-97.5 169.08,-94 169.08,-101"/>
</g>
<!-- Node3 -->
<g id="node3" class="node">
<title>Node3</title>
<g id="a_node3"><a xlink:href="class_urho3_d_1_1_hash_map.html#a47eb201d8441d4e4be8626e615cb562d" target="_top" xlink:title="Return iterator to the end.">
<polygon fill="white" stroke="#666666" points="658.5,-126 539.5,-126 539.5,-107 658.5,-107 658.5,-126"/>
<text text-anchor="middle" x="599" y="-114" font-family="Roboto" font-size="10.00">Urho3D::HashMap::End</text>
</a>
</g>
</g>
<!-- Node2&#45;&gt;Node3 -->
<g id="edge2" class="edge">
<title>Node2&#45;&gt;Node3</title>
<path fill="none" stroke="#63b8ff" d="M333.46,-101.72C391.48,-104.96 471.04,-109.41 527.72,-112.57"/>
<polygon fill="#63b8ff" stroke="#63b8ff" points="527.41,-116.06 537.59,-113.12 527.8,-109.07 527.41,-116.06"/>
</g>
<!-- Node5 -->
<g id="node5" class="node">
<title>Node5</title>
<g id="a_node5"><a xlink:href="class_urho3_d_1_1_hash_map.html#a9dc4e5c0ad1feb3eec2d2f1f1714698d" target="_top" xlink:title="Return iterator to the pair with key, or end iterator if not found.">
<polygon fill="white" stroke="#666666" points="490,-88 369,-88 369,-69 490,-69 490,-88"/>
<text text-anchor="middle" x="429.5" y="-76" font-family="Roboto" font-size="10.00">Urho3D::HashMap::Find</text>
</a>
</g>
</g>
<!-- Node2&#45;&gt;Node5 -->
<g id="edge4" class="edge">
<title>Node2&#45;&gt;Node5</title>
<path fill="none" stroke="#63b8ff" d="M333.28,-89.11C341.34,-88.21 349.53,-87.3 357.54,-86.41"/>
<polygon fill="#63b8ff" stroke="#63b8ff" points="357.67,-89.92 367.22,-85.33 356.89,-82.96 357.67,-89.92"/>
</g>
<!-- Node4 -->
<g id="node4" class="node">
<title>Node4</title>
<g id="a_node4"><a xlink:href="class_urho3_d_1_1_hash_map.html#ac7ee3646e27a2a7710ab5786cb0b7c73" target="_top" xlink:title="Return the tail node.">
<polygon fill="white" stroke="#666666" points="847,-142 730,-142 730,-123 847,-123 847,-142"/>
<text text-anchor="middle" x="788.5" y="-130" font-family="Roboto" font-size="10.00">Urho3D::HashMap::Tail</text>
</a>
</g>
</g>
<!-- Node3&#45;&gt;Node4 -->
<g id="edge3" class="edge">
<title>Node3&#45;&gt;Node4</title>
<path fill="none" stroke="#63b8ff" d="M658.81,-121.52C677.67,-123.13 698.72,-124.92 718.25,-126.59"/>
<polygon fill="#63b8ff" stroke="#63b8ff" points="717.77,-130.06 728.03,-127.43 718.37,-123.09 717.77,-130.06"/>
</g>
<!-- Node5&#45;&gt;Node3 -->
<g id="edge5" class="edge">
<title>Node5&#45;&gt;Node3</title>
<path fill="none" stroke="#63b8ff" d="M474.51,-88.48C495.49,-93.24 520.8,-98.99 543.03,-104.03"/>
<polygon fill="#63b8ff" stroke="#63b8ff" points="541.99,-107.38 552.52,-106.18 543.54,-100.56 541.99,-107.38"/>
</g>
<!-- Node6 -->
<g id="node6" class="node">
<title>Node6</title>
<g id="a_node6"><a xlink:href="class_urho3_d_1_1_hash_map.html#a85f871cbe77f2d780e1a169f19936ad8" target="_top" xlink:title="Find a node from the buckets. Do not call if the buckets have not been allocated.">
<polygon fill="white" stroke="#666666" points="672,-88 526,-88 526,-69 672,-69 672,-88"/>
<text text-anchor="middle" x="599" y="-76" font-family="Roboto" font-size="10.00">Urho3D::HashMap::FindNode</text>
</a>
</g>
</g>
<!-- Node5&#45;&gt;Node6 -->
<g id="edge6" class="edge">
<title>Node5&#45;&gt;Node6</title>
<path fill="none" stroke="#63b8ff" d="M490.5,-78.5C498.22,-78.5 506.23,-78.5 514.25,-78.5"/>
<polygon fill="#63b8ff" stroke="#63b8ff" points="514.03,-82 524.03,-78.5 514.03,-75 514.03,-82"/>
</g>
<!-- Node9 -->
<g id="node9" class="node">
<title>Node9</title>
<g id="a_node9"><a xlink:href="class_urho3_d_1_1_hash_map.html#a6baa78766271c323b914fd2e6ca70c66" target="_top" xlink:title="Compute a hash based on the key and the bucket size.">
<polygon fill="white" stroke="#666666" points="661.5,-40 536.5,-40 536.5,-21 661.5,-21 661.5,-40"/>
<text text-anchor="middle" x="599" y="-28" font-family="Roboto" font-size="10.00">Urho3D::HashMap::Hash</text>
</a>
</g>
</g>
<!-- Node5&#45;&gt;Node9 -->
<g id="edge9" class="edge">
<title>Node5&#45;&gt;Node9</title>
<path fill="none" stroke="#63b8ff" d="M465.21,-68.55C490.47,-61.31 524.93,-51.44 552.42,-43.56"/>
<polygon fill="#63b8ff" stroke="#63b8ff" points="553.23,-46.97 561.88,-40.85 551.31,-40.24 553.23,-46.97"/>
</g>
<!-- Node7 -->
<g id="node7" class="node">
<title>Node7</title>
<g id="a_node7"><a xlink:href="struct_urho3_d_1_1_hash_map_1_1_node.html#a5b917a49ae9df7b89215e8808db681da" target="_top" xlink:title="Return next node in the bucket.">
<polygon fill="white" stroke="#666666" points="852,-104.5 725,-104.5 725,-74.5 852,-74.5 852,-104.5"/>
<text text-anchor="start" x="733" y="-92.5" font-family="Roboto" font-size="10.00">Urho3D::HashMap::Node</text>
<text text-anchor="middle" x="788.5" y="-81.5" font-family="Roboto" font-size="10.00">::Down</text>
</a>
</g>
</g>
<!-- Node6&#45;&gt;Node7 -->
<g id="edge7" class="edge">
<title>Node6&#45;&gt;Node7</title>
<path fill="none" stroke="#63b8ff" d="M672.49,-82.75C685.94,-83.54 700,-84.37 713.49,-85.16"/>
<polygon fill="#63b8ff" stroke="#63b8ff" points="712.96,-88.63 723.15,-85.72 713.37,-81.64 712.96,-88.63"/>
</g>
<!-- Node8 -->
<g id="node8" class="node">
<title>Node8</title>
<g id="a_node8"><a xlink:href="class_urho3_d_1_1_hash_base.html#ab2e9d0c50ac79b0a7eccd15b096745e9" target="_top" xlink:title="Return bucket head pointers.">
<polygon fill="white" stroke="#666666" points="850,-56 727,-56 727,-37 850,-37 850,-56"/>
<text text-anchor="middle" x="788.5" y="-44" font-family="Roboto" font-size="10.00">Urho3D::HashBase::Ptrs</text>
</a>
</g>
</g>
<!-- Node6&#45;&gt;Node8 -->
<g id="edge8" class="edge">
<title>Node6&#45;&gt;Node8</title>
<path fill="none" stroke="#63b8ff" d="M658.55,-68.51C677.33,-65.3 698.3,-61.72 717.79,-58.4"/>
<polygon fill="#63b8ff" stroke="#63b8ff" points="718.31,-61.86 727.57,-56.73 717.13,-54.96 718.31,-61.86"/>
</g>
<!-- Node10 -->
<g id="node10" class="node">
<title>Node10</title>
<g id="a_node10"><a xlink:href="class_urho3_d_1_1_hash_base.html#af0f242c3642f60dc7cf69f3b7d24fa11" target="_top" xlink:title="Return number of buckets.">
<polygon fill="white" stroke="#666666" points="869,-19 708,-19 708,0 869,0 869,-19"/>
<text text-anchor="middle" x="788.5" y="-7" font-family="Roboto" font-size="10.00">Urho3D::HashBase::NumBuckets</text>
</a>
</g>
</g>
<!-- Node9&#45;&gt;Node10 -->
<g id="edge10" class="edge">
<title>Node9&#45;&gt;Node10</title>
<path fill="none" stroke="#63b8ff" d="M661.91,-23.57C672.99,-22.33 684.74,-21.01 696.43,-19.7"/>
<polygon fill="#63b8ff" stroke="#63b8ff" points="696.54,-23.21 706.09,-18.62 695.76,-16.25 696.54,-23.21"/>
</g>
</g>
</svg>
