<?xml version="1.0" encoding="UTF-8" standalone="no"?>
<!DOCTYPE svg PUBLIC "-//W3C//DTD SVG 1.1//EN"
 "http://www.w3.org/Graphics/SVG/1.1/DTD/svg11.dtd">
<!-- Generated by graphviz version 7.0.3 (0)
 -->
<!-- Title: Urho3D::Drawable::SetOccludee Pages: 1 -->
<svg width="343pt" height="364pt"
 viewBox="0.00 0.00 343.00 364.00" xmlns="http://www.w3.org/2000/svg" xmlns:xlink="http://www.w3.org/1999/xlink">
<g id="graph0" class="graph" transform="scale(1 1) rotate(0) translate(4 360)">
<title>Urho3D::Drawable::SetOccludee</title>
<!-- Node1 -->
<g id="node1" class="node">
<title>Node1</title>
<g id="a_node1"><a xlink:title=" ">
<polygon fill="#999999" stroke="#666666" points="335,-184.5 180,-184.5 180,-165.5 335,-165.5 335,-184.5"/>
<text text-anchor="middle" x="257.5" y="-172.5" font-family="Roboto" font-size="10.00">Urho3D::Drawable::SetOccludee</text>
</a>
</g>
</g>
<!-- Node2 -->
<g id="node2" class="node">
<title>Node2</title>
<g id="a_node2"><a xlink:href="class_urho3_d_1_1_animated_model.html#a76a01a86a9b1bcca181bfe91ae0e4a95" target="_top" xlink:title=" ">
<polygon fill="white" stroke="#666666" points="135,-356 9,-356 9,-326 135,-326 135,-356"/>
<text text-anchor="start" x="17" y="-344" font-family="Roboto" font-size="10.00">Urho3D::AnimatedModel</text>
<text text-anchor="middle" x="72" y="-333" font-family="Roboto" font-size="10.00">::RegisterObject</text>
</a>
</g>
</g>
<!-- Node1&#45;&gt;Node2 -->
<g id="edge1" class="edge">
<title>Node1&#45;&gt;Node2</title>
<path fill="none" stroke="#63b8ff" d="M245.89,-194.74C228.52,-225.24 191.19,-283.78 144,-317 139.32,-320.3 134.15,-323.17 128.8,-325.66"/>
<polygon fill="#63b8ff" stroke="#63b8ff" points="248.84,-196.63 250.63,-186.19 242.72,-193.24 248.84,-196.63"/>
</g>
<!-- Node3 -->
<g id="node3" class="node">
<title>Node3</title>
<g id="a_node3"><a xlink:href="class_urho3_d_1_1_billboard_set.html#abd9c58891183fd07f23f9fdfcec57527" target="_top" xlink:title=" ">
<polygon fill="white" stroke="#666666" points="125.5,-308 18.5,-308 18.5,-278 125.5,-278 125.5,-308"/>
<text text-anchor="start" x="26.5" y="-296" font-family="Roboto" font-size="10.00">Urho3D::BillboardSet</text>
<text text-anchor="middle" x="72" y="-285" font-family="Roboto" font-size="10.00">::RegisterObject</text>
</a>
</g>
</g>
<!-- Node1&#45;&gt;Node3 -->
<g id="edge2" class="edge">
<title>Node1&#45;&gt;Node3</title>
<path fill="none" stroke="#63b8ff" d="M239.31,-192.95C218.47,-213.79 181.49,-247.98 144,-269 138.33,-272.18 132.16,-275.04 125.91,-277.57"/>
<polygon fill="#63b8ff" stroke="#63b8ff" points="241.63,-195.58 246.14,-185.99 236.63,-190.67 241.63,-195.58"/>
</g>
<!-- Node4 -->
<g id="node4" class="node">
<title>Node4</title>
<g id="a_node4"><a xlink:href="class_urho3_d_1_1_custom_geometry.html#adf40494db43b2ab2869faad887ddf8a4" target="_top" xlink:title=" ">
<polygon fill="white" stroke="#666666" points="139,-260 5,-260 5,-230 139,-230 139,-260"/>
<text text-anchor="start" x="13" y="-248" font-family="Roboto" font-size="10.00">Urho3D::CustomGeometry</text>
<text text-anchor="middle" x="72" y="-237" font-family="Roboto" font-size="10.00">::RegisterObject</text>
</a>
</g>
</g>
<!-- Node1&#45;&gt;Node4 -->
<g id="edge3" class="edge">
<title>Node1&#45;&gt;Node4</title>
<path fill="none" stroke="#63b8ff" d="M222.83,-189.41C200.59,-198.77 170.72,-211.03 144,-221 136.32,-223.87 128.12,-226.77 120.12,-229.53"/>
<polygon fill="#63b8ff" stroke="#63b8ff" points="224.15,-192.65 232,-185.53 221.43,-186.2 224.15,-192.65"/>
</g>
<!-- Node5 -->
<g id="node5" class="node">
<title>Node5</title>
<g id="a_node5"><a xlink:href="class_urho3_d_1_1_decal_set.html#a76978cd431ca41ad6d845193a98a243b" target="_top" xlink:title=" ">
<polygon fill="white" stroke="#666666" points="139,-212 5,-212 5,-182 139,-182 139,-212"/>
<text text-anchor="start" x="13" y="-200" font-family="Roboto" font-size="10.00">Urho3D::DecalSet::Register</text>
<text text-anchor="middle" x="72" y="-189" font-family="Roboto" font-size="10.00">Object</text>
</a>
</g>
</g>
<!-- Node1&#45;&gt;Node5 -->
<g id="edge4" class="edge">
<title>Node1&#45;&gt;Node5</title>
<path fill="none" stroke="#63b8ff" d="M168.31,-185.57C158.53,-186.75 148.7,-187.92 139.25,-189.06"/>
<polygon fill="#63b8ff" stroke="#63b8ff" points="168.73,-189.05 178.24,-184.38 167.89,-182.1 168.73,-189.05"/>
</g>
<!-- Node6 -->
<g id="node6" class="node">
<title>Node6</title>
<g id="a_node6"><a xlink:href="class_urho3_d_1_1_light.html#addf06c14a914ff91a084194c409a7917" target="_top" xlink:title=" ">
<polygon fill="white" stroke="#666666" points="144,-163.5 0,-163.5 0,-144.5 144,-144.5 144,-163.5"/>
<text text-anchor="middle" x="72" y="-151.5" font-family="Roboto" font-size="10.00">Urho3D::Light::RegisterObject</text>
</a>
</g>
</g>
<!-- Node1&#45;&gt;Node6 -->
<g id="edge5" class="edge">
<title>Node1&#45;&gt;Node6</title>
<path fill="none" stroke="#63b8ff" d="M168.44,-164.92C160.4,-164 152.33,-163.08 144.47,-162.18"/>
<polygon fill="#63b8ff" stroke="#63b8ff" points="167.91,-168.38 178.24,-166.04 168.7,-161.43 167.91,-168.38"/>
</g>
<!-- Node7 -->
<g id="node7" class="node">
<title>Node7</title>
<g id="a_node7"><a xlink:href="class_urho3_d_1_1_particle_emitter.html#a866c84f59b51494573ee28e000523ede" target="_top" xlink:title=" ">
<polygon fill="white" stroke="#666666" points="132,-126 12,-126 12,-96 132,-96 132,-126"/>
<text text-anchor="start" x="20" y="-114" font-family="Roboto" font-size="10.00">Urho3D::ParticleEmitter</text>
<text text-anchor="middle" x="72" y="-103" font-family="Roboto" font-size="10.00">::RegisterObject</text>
</a>
</g>
</g>
<!-- Node1&#45;&gt;Node7 -->
<g id="edge6" class="edge">
<title>Node1&#45;&gt;Node7</title>
<path fill="none" stroke="#63b8ff" d="M217.14,-161.27C187.78,-151.03 147.65,-137.04 117.19,-126.41"/>
<polygon fill="#63b8ff" stroke="#63b8ff" points="215.8,-164.51 226.4,-164.5 218.11,-157.9 215.8,-164.51"/>
</g>
<!-- Node8 -->
<g id="node8" class="node">
<title>Node8</title>
<g id="a_node8"><a xlink:href="class_urho3_d_1_1_static_model.html#aac7bd4f30d276bad34d0afd36dec5f6f" target="_top" xlink:title=" ">
<polygon fill="white" stroke="#666666" points="126,-78 18,-78 18,-48 126,-48 126,-78"/>
<text text-anchor="start" x="26" y="-66" font-family="Roboto" font-size="10.00">Urho3D::StaticModel</text>
<text text-anchor="middle" x="72" y="-55" font-family="Roboto" font-size="10.00">::RegisterObject</text>
</a>
</g>
</g>
<!-- Node1&#45;&gt;Node8 -->
<g id="edge7" class="edge">
<title>Node1&#45;&gt;Node8</title>
<path fill="none" stroke="#63b8ff" d="M238.14,-157.4C216.94,-137.89 180.31,-106.59 144,-87 138.16,-83.85 131.83,-81 125.43,-78.46"/>
<polygon fill="#63b8ff" stroke="#63b8ff" points="235.69,-159.9 245.38,-164.18 240.47,-154.79 235.69,-159.9"/>
</g>
<!-- Node9 -->
<g id="node9" class="node">
<title>Node9</title>
<g id="a_node9"><a xlink:href="class_urho3_d_1_1_text3_d.html#a8d7300ae719ca749d031f65acdc0a23b" target="_top" xlink:title=" ">
<polygon fill="white" stroke="#666666" points="135,-30 9,-30 9,0 135,0 135,-30"/>
<text text-anchor="start" x="17" y="-18" font-family="Roboto" font-size="10.00">Urho3D::Text3D::Register</text>
<text text-anchor="middle" x="72" y="-7" font-family="Roboto" font-size="10.00">Object</text>
</a>
</g>
</g>
<!-- Node1&#45;&gt;Node9 -->
<g id="edge8" class="edge">
<title>Node1&#45;&gt;Node9</title>
<path fill="none" stroke="#63b8ff" d="M245.18,-155.3C227.33,-125.88 189.88,-70.58 144,-39 139.28,-35.75 134.09,-32.91 128.73,-30.44"/>
<polygon fill="#63b8ff" stroke="#63b8ff" points="242.17,-157.07 250.27,-163.9 248.19,-153.51 242.17,-157.07"/>
</g>
</g>
</svg>
