<?xml version="1.0" encoding="UTF-8" standalone="no"?>
<!DOCTYPE svg PUBLIC "-//W3C//DTD SVG 1.1//EN"
 "http://www.w3.org/Graphics/SVG/1.1/DTD/svg11.dtd">
<!-- Generated by graphviz version 7.0.3 (0)
 -->
<!-- Title: Urho3D::Window::OnDragMove Pages: 1 -->
<svg width="1007pt" height="703pt"
 viewBox="0.00 0.00 1007.00 702.81" xmlns="http://www.w3.org/2000/svg" xmlns:xlink="http://www.w3.org/1999/xlink">
<g id="graph0" class="graph" transform="scale(1 1) rotate(0) translate(4 698.81)">
<title>Urho3D::Window::OnDragMove</title>
<!-- Node1 -->
<g id="node1" class="node">
<title>Node1</title>
<g id="a_node1"><a xlink:title="React to mouse drag motion.">
<polygon fill="#999999" stroke="#666666" points="152,-364.35 0,-364.35 0,-345.35 152,-345.35 152,-364.35"/>
<text text-anchor="middle" x="76" y="-352.35" font-family="Roboto" font-size="10.00">Urho3D::Window::OnDragMove</text>
</a>
</g>
</g>
<!-- Node2 -->
<g id="node2" class="node">
<title>Node2</title>
<g id="a_node2"><a xlink:href="_math_defs_8h.html#a937fef228b452d2488ce13d78f0bd810" target="_top" xlink:title=" ">
<polygon fill="white" stroke="#666666" points="833,-356.35 750,-356.35 750,-337.35 833,-337.35 833,-356.35"/>
<text text-anchor="middle" x="791.5" y="-344.35" font-family="Roboto" font-size="10.00">Urho3D::Clamp</text>
</a>
</g>
</g>
<!-- Node1&#45;&gt;Node2 -->
<g id="edge1" class="edge">
<title>Node1&#45;&gt;Node2</title>
<path fill="none" stroke="#63b8ff" d="M88.31,-364.62C107.35,-380.34 147.67,-410.62 188,-421.85 397.55,-480.19 660.77,-395.74 754.96,-360.8"/>
<polygon fill="#63b8ff" stroke="#63b8ff" points="756.06,-364.12 764.18,-357.33 753.59,-357.57 756.06,-364.12"/>
</g>
<!-- Node3 -->
<g id="node3" class="node">
<title>Node3</title>
<g id="a_node3"><a xlink:href="class_urho3_d_1_1_u_i_element.html#a6eca4b74842f82376a1d9a7f889aa174" target="_top" xlink:title="Return effective minimum size, also considering layout. Used internally.">
<polygon fill="white" stroke="#666666" points="844,-660.85 739,-660.85 739,-630.85 844,-630.85 844,-660.85"/>
<text text-anchor="start" x="747" y="-648.85" font-family="Roboto" font-size="10.00">Urho3D::UIElement::</text>
<text text-anchor="middle" x="791.5" y="-637.85" font-family="Roboto" font-size="10.00">GetEffectiveMinSize</text>
</a>
</g>
</g>
<!-- Node1&#45;&gt;Node3 -->
<g id="edge3" class="edge">
<title>Node1&#45;&gt;Node3</title>
<path fill="none" stroke="#63b8ff" d="M77.6,-364.78C80.63,-404.92 97.86,-556.01 188,-618.85 353.17,-733.99 610.16,-691.39 727.83,-663.06"/>
<polygon fill="#63b8ff" stroke="#63b8ff" points="728.43,-666.51 737.3,-660.73 726.76,-659.72 728.43,-666.51"/>
</g>
<!-- Node5 -->
<g id="node5" class="node">
<title>Node5</title>
<g id="a_node5"><a xlink:href="_math_defs_8h.html#a8096c22c3716e172f685af2a5f5e26bb" target="_top" xlink:title=" ">
<polygon fill="white" stroke="#666666" points="983.5,-505.35 909.5,-505.35 909.5,-486.35 983.5,-486.35 983.5,-505.35"/>
<text text-anchor="middle" x="946.5" y="-493.35" font-family="Roboto" font-size="10.00">Urho3D::Max</text>
</a>
</g>
</g>
<!-- Node1&#45;&gt;Node5 -->
<g id="edge10" class="edge">
<title>Node1&#45;&gt;Node5</title>
<path fill="none" stroke="#63b8ff" d="M78.98,-364.65C86.33,-398.32 115.53,-509.75 188,-556.85 428.1,-712.91 805.58,-560.49 914.9,-510.5"/>
<polygon fill="#63b8ff" stroke="#63b8ff" points="916.22,-513.74 923.82,-506.36 913.28,-507.39 916.22,-513.74"/>
</g>
<!-- Node6 -->
<g id="node6" class="node">
<title>Node6</title>
<g id="a_node6"><a xlink:href="class_urho3_d_1_1_u_i_element.html#aed02c88efc2efd2f405cc2d68cb0b813" target="_top" xlink:title=" ">
<polygon fill="white" stroke="#666666" points="310.5,-499.85 205.5,-499.85 205.5,-469.85 310.5,-469.85 310.5,-499.85"/>
<text text-anchor="start" x="213.5" y="-487.85" font-family="Roboto" font-size="10.00">Urho3D::UIElement::</text>
<text text-anchor="middle" x="258" y="-476.85" font-family="Roboto" font-size="10.00">GetMaxSize</text>
</a>
</g>
</g>
<!-- Node1&#45;&gt;Node6 -->
<g id="edge7" class="edge">
<title>Node1&#45;&gt;Node6</title>
<path fill="none" stroke="#63b8ff" d="M85.61,-364.66C103.19,-384.22 145.17,-428.52 188,-455.85 192.87,-458.96 198.14,-461.86 203.51,-464.54"/>
<polygon fill="#63b8ff" stroke="#63b8ff" points="201.98,-467.69 212.52,-468.76 204.95,-461.35 201.98,-467.69"/>
</g>
<!-- Node7 -->
<g id="node7" class="node">
<title>Node7</title>
<g id="a_node7"><a xlink:href="class_urho3_d_1_1_u_i_element.html#a8d3b546a5105cf91207cd9471a3d9a4f" target="_top" xlink:title=" ">
<polygon fill="white" stroke="#666666" points="482,-328.85 377,-328.85 377,-298.85 482,-298.85 482,-328.85"/>
<text text-anchor="start" x="385" y="-316.85" font-family="Roboto" font-size="10.00">Urho3D::UIElement::</text>
<text text-anchor="middle" x="429.5" y="-305.85" font-family="Roboto" font-size="10.00">GetPosition</text>
</a>
</g>
</g>
<!-- Node1&#45;&gt;Node7 -->
<g id="edge8" class="edge">
<title>Node1&#45;&gt;Node7</title>
<path fill="none" stroke="#63b8ff" d="M152.41,-346.05C215.89,-338.65 305.65,-328.18 365.39,-321.21"/>
<polygon fill="#63b8ff" stroke="#63b8ff" points="365.52,-324.72 375.05,-320.08 364.71,-317.77 365.52,-324.72"/>
</g>
<!-- Node8 -->
<g id="node8" class="node">
<title>Node8</title>
<g id="a_node8"><a xlink:href="class_urho3_d_1_1_u_i_element.html#a5eb156615aef75c2c020de6c879cfd01" target="_top" xlink:title=" ">
<polygon fill="white" stroke="#666666" points="482,-204.85 377,-204.85 377,-174.85 482,-174.85 482,-204.85"/>
<text text-anchor="start" x="385" y="-192.85" font-family="Roboto" font-size="10.00">Urho3D::UIElement::</text>
<text text-anchor="middle" x="429.5" y="-181.85" font-family="Roboto" font-size="10.00">GetSize</text>
</a>
</g>
</g>
<!-- Node1&#45;&gt;Node8 -->
<g id="edge9" class="edge">
<title>Node1&#45;&gt;Node8</title>
<path fill="none" stroke="#63b8ff" d="M84.08,-345C100.04,-323.58 141.1,-272.61 188,-246.85 243.48,-216.38 314.87,-202.1 365.42,-195.47"/>
<polygon fill="#63b8ff" stroke="#63b8ff" points="365.84,-198.94 375.34,-194.24 364.98,-192 365.84,-198.94"/>
</g>
<!-- Node9 -->
<g id="node9" class="node">
<title>Node9</title>
<g id="a_node9"><a xlink:href="class_urho3_d_1_1_window.html#a051e2a3e7e8052bd903a6460ea6dde0c" target="_top" xlink:title="Set cursor shape based on drag mode.">
<polygon fill="white" stroke="#666666" points="328,-547.85 188,-547.85 188,-517.85 328,-517.85 328,-547.85"/>
<text text-anchor="start" x="196" y="-535.85" font-family="Roboto" font-size="10.00">Urho3D::Window::SetCursor</text>
<text text-anchor="middle" x="258" y="-524.85" font-family="Roboto" font-size="10.00">Shape</text>
</a>
</g>
</g>
<!-- Node1&#45;&gt;Node9 -->
<g id="edge11" class="edge">
<title>Node1&#45;&gt;Node9</title>
<path fill="none" stroke="#63b8ff" d="M81.45,-364.74C94.11,-391.82 133.04,-467.88 188,-508.85 189.37,-509.87 190.78,-510.85 192.23,-511.78"/>
<polygon fill="#63b8ff" stroke="#63b8ff" points="190.52,-514.84 200.95,-516.68 193.94,-508.73 190.52,-514.84"/>
</g>
<!-- Node54 -->
<g id="node19" class="node">
<title>Node54</title>
<g id="a_node19"><a xlink:href="class_urho3_d_1_1_u_i_element.html#a4396e1c9eb02df3a4f5438900c704f76" target="_top" xlink:title="Set fixed height.">
<polygon fill="white" stroke="#666666" points="310.5,-80.85 205.5,-80.85 205.5,-50.85 310.5,-50.85 310.5,-80.85"/>
<text text-anchor="start" x="213.5" y="-68.85" font-family="Roboto" font-size="10.00">Urho3D::UIElement::</text>
<text text-anchor="middle" x="258" y="-57.85" font-family="Roboto" font-size="10.00">SetFixedHeight</text>
</a>
</g>
</g>
<!-- Node1&#45;&gt;Node54 -->
<g id="edge24" class="edge">
<title>Node1&#45;&gt;Node54</title>
<path fill="none" stroke="#63b8ff" d="M78.51,-344.88C84.74,-307.03 111.78,-170.64 188,-94.85 190.8,-92.06 193.91,-89.53 197.22,-87.23"/>
<polygon fill="#63b8ff" stroke="#63b8ff" points="198.92,-90.29 205.67,-82.12 195.3,-84.3 198.92,-90.29"/>
</g>
<!-- Node55 -->
<g id="node20" class="node">
<title>Node55</title>
<g id="a_node20"><a xlink:href="class_urho3_d_1_1_u_i_element.html#a96b226ae18928769cce09d7025dbe133" target="_top" xlink:title=" ">
<polygon fill="white" stroke="#666666" points="482,-118.85 377,-118.85 377,-88.85 482,-88.85 482,-118.85"/>
<text text-anchor="start" x="385" y="-106.85" font-family="Roboto" font-size="10.00">Urho3D::UIElement::</text>
<text text-anchor="middle" x="429.5" y="-95.85" font-family="Roboto" font-size="10.00">SetHeight</text>
</a>
</g>
</g>
<!-- Node1&#45;&gt;Node55 -->
<g id="edge32" class="edge">
<title>Node1&#45;&gt;Node55</title>
<path fill="none" stroke="#63b8ff" d="M78.53,-345.2C84.71,-309.89 111.2,-186.94 188,-132.85 239.47,-96.6 312.97,-92.83 365.14,-95.95"/>
<polygon fill="#63b8ff" stroke="#63b8ff" points="364.86,-99.43 375.08,-96.65 365.36,-92.45 364.86,-99.43"/>
</g>
<!-- Node56 -->
<g id="node21" class="node">
<title>Node56</title>
<g id="a_node21"><a xlink:href="class_urho3_d_1_1_u_i_element.html#aa594dc23bd881becc7204e973fb09d10" target="_top" xlink:title="Set fixed width.">
<polygon fill="white" stroke="#666666" points="310.5,-412.85 205.5,-412.85 205.5,-382.85 310.5,-382.85 310.5,-412.85"/>
<text text-anchor="start" x="213.5" y="-400.85" font-family="Roboto" font-size="10.00">Urho3D::UIElement::</text>
<text text-anchor="middle" x="258" y="-389.85" font-family="Roboto" font-size="10.00">SetFixedWidth</text>
</a>
</g>
</g>
<!-- Node1&#45;&gt;Node56 -->
<g id="edge28" class="edge">
<title>Node1&#45;&gt;Node56</title>
<path fill="none" stroke="#63b8ff" d="M118.75,-364.82C141.18,-370.18 169.3,-376.9 194.31,-382.87"/>
<polygon fill="#63b8ff" stroke="#63b8ff" points="193.17,-386.2 203.71,-385.12 194.79,-379.39 193.17,-386.2"/>
</g>
<!-- Node57 -->
<g id="node22" class="node">
<title>Node57</title>
<g id="a_node22"><a xlink:href="class_urho3_d_1_1_u_i_element.html#a9b41d8ab02a737060859ee63d2155391" target="_top" xlink:title=" ">
<polygon fill="white" stroke="#666666" points="482,-376.85 377,-376.85 377,-346.85 482,-346.85 482,-376.85"/>
<text text-anchor="start" x="385" y="-364.85" font-family="Roboto" font-size="10.00">Urho3D::UIElement::</text>
<text text-anchor="middle" x="429.5" y="-353.85" font-family="Roboto" font-size="10.00">SetWidth</text>
</a>
</g>
</g>
<!-- Node1&#45;&gt;Node57 -->
<g id="edge38" class="edge">
<title>Node1&#45;&gt;Node57</title>
<path fill="none" stroke="#63b8ff" d="M152.41,-356.35C215.89,-357.62 305.65,-359.4 365.39,-360.59"/>
<polygon fill="#63b8ff" stroke="#63b8ff" points="364.97,-364.09 375.04,-360.79 365.11,-357.09 364.97,-364.09"/>
</g>
<!-- Node58 -->
<g id="node23" class="node">
<title>Node58</title>
<g id="a_node23"><a xlink:href="class_urho3_d_1_1_u_i_element.html#a9637bdc3ff09125524784682dffaf1b5" target="_top" xlink:title=" ">
<polygon fill="white" stroke="#666666" points="662.5,-180.85 557.5,-180.85 557.5,-150.85 662.5,-150.85 662.5,-180.85"/>
<text text-anchor="start" x="565.5" y="-168.85" font-family="Roboto" font-size="10.00">Urho3D::UIElement::</text>
<text text-anchor="middle" x="610" y="-157.85" font-family="Roboto" font-size="10.00">SetPosition</text>
</a>
</g>
</g>
<!-- Node1&#45;&gt;Node58 -->
<g id="edge33" class="edge">
<title>Node1&#45;&gt;Node58</title>
<path fill="none" stroke="#63b8ff" d="M80.74,-345.11C92.06,-317.04 128.89,-235.54 188,-197.85 297.98,-127.72 458.49,-139.63 546.13,-153.4"/>
<polygon fill="#63b8ff" stroke="#63b8ff" points="545.3,-156.81 555.73,-154.98 546.43,-149.91 545.3,-156.81"/>
</g>
<!-- Node60 -->
<g id="node25" class="node">
<title>Node60</title>
<g id="a_node25"><a xlink:href="class_urho3_d_1_1_window.html#a24c9bcde5479c0a65342d7cc2c474d04" target="_top" xlink:title="Validate window position.">
<polygon fill="white" stroke="#666666" points="323.5,-285.85 192.5,-285.85 192.5,-255.85 323.5,-255.85 323.5,-285.85"/>
<text text-anchor="start" x="200.5" y="-273.85" font-family="Roboto" font-size="10.00">Urho3D::Window::Validate</text>
<text text-anchor="middle" x="258" y="-262.85" font-family="Roboto" font-size="10.00">Position</text>
</a>
</g>
</g>
<!-- Node1&#45;&gt;Node60 -->
<g id="edge39" class="edge">
<title>Node1&#45;&gt;Node60</title>
<path fill="none" stroke="#63b8ff" d="M96.53,-345.04C118.61,-334.02 155.69,-315.73 188,-300.85 195.18,-297.55 202.82,-294.13 210.3,-290.83"/>
<polygon fill="#63b8ff" stroke="#63b8ff" points="211.55,-294.1 219.32,-286.89 208.75,-287.69 211.55,-294.1"/>
</g>
<!-- Node2&#45;&gt;Node2 -->
<g id="edge2" class="edge">
<title>Node2&#45;&gt;Node2</title>
<path fill="none" stroke="#63b8ff" d="M767.23,-356.72C756.17,-365.29 764.25,-374.35 791.5,-374.35 806.83,-374.35 816.09,-371.48 819.29,-367.45"/>
<polygon fill="#63b8ff" stroke="#63b8ff" points="822.69,-366.56 816.24,-358.16 816.04,-368.75 822.69,-366.56"/>
</g>
<!-- Node4 -->
<g id="node4" class="node">
<title>Node4</title>
<g id="a_node4"><a xlink:href="class_urho3_d_1_1_u_i_element.html#a41f04deaaa70ebe9101a25fcf8bc1666" target="_top" xlink:title=" ">
<polygon fill="white" stroke="#666666" points="999,-660.85 894,-660.85 894,-630.85 999,-630.85 999,-660.85"/>
<text text-anchor="start" x="902" y="-648.85" font-family="Roboto" font-size="10.00">Urho3D::UIElement::</text>
<text text-anchor="middle" x="946.5" y="-637.85" font-family="Roboto" font-size="10.00">IsFixedSize</text>
</a>
</g>
</g>
<!-- Node3&#45;&gt;Node4 -->
<g id="edge4" class="edge">
<title>Node3&#45;&gt;Node4</title>
<path fill="none" stroke="#63b8ff" d="M844.3,-645.85C856.51,-645.85 869.67,-645.85 882.32,-645.85"/>
<polygon fill="#63b8ff" stroke="#63b8ff" points="882.24,-649.35 892.24,-645.85 882.24,-642.35 882.24,-649.35"/>
</g>
<!-- Node3&#45;&gt;Node5 -->
<g id="edge5" class="edge">
<title>Node3&#45;&gt;Node5</title>
<path fill="none" stroke="#63b8ff" d="M835.96,-630.51C843.73,-626.71 851.43,-622.17 858,-616.85 893.43,-588.15 921.48,-541.78 935.56,-515.56"/>
<polygon fill="#63b8ff" stroke="#63b8ff" points="938.5,-517.49 940.03,-507.01 932.3,-514.25 938.5,-517.49"/>
</g>
<!-- Node5&#45;&gt;Node5 -->
<g id="edge6" class="edge">
<title>Node5&#45;&gt;Node5</title>
<path fill="none" stroke="#63b8ff" d="M922.23,-505.72C911.17,-514.29 919.25,-523.35 946.5,-523.35 961.83,-523.35 971.09,-520.48 974.29,-516.45"/>
<polygon fill="#63b8ff" stroke="#63b8ff" points="977.69,-515.56 971.24,-507.16 971.04,-517.75 977.69,-515.56"/>
</g>
<!-- Node10 -->
<g id="node10" class="node">
<title>Node10</title>
<g id="a_node10"><a xlink:href="class_urho3_d_1_1_cursor.html#a132e53f70b2e45f29a5ead1e5db84bbd" target="_top" xlink:title=" ">
<polygon fill="white" stroke="#666666" points="495,-533.35 364,-533.35 364,-514.35 495,-514.35 495,-533.35"/>
<text text-anchor="middle" x="429.5" y="-521.35" font-family="Roboto" font-size="10.00">Urho3D::Cursor::SetShape</text>
</a>
</g>
</g>
<!-- Node9&#45;&gt;Node10 -->
<g id="edge12" class="edge">
<title>Node9&#45;&gt;Node10</title>
<path fill="none" stroke="#63b8ff" d="M328.43,-529.16C336.23,-528.75 344.21,-528.33 352.1,-527.91"/>
<polygon fill="#63b8ff" stroke="#63b8ff" points="352.23,-531.4 362.03,-527.38 351.86,-524.41 352.23,-531.4"/>
</g>
<!-- Node11 -->
<g id="node11" class="node">
<title>Node11</title>
<g id="a_node11"><a xlink:href="class_urho3_d_1_1_cursor.html#ae68eb5551f79e8859e661620130e4d58" target="_top" xlink:title="Apply pending OS cursor shape. Called by UI. No&#45;op when the OS mouse pointer is not used.">
<polygon fill="white" stroke="#666666" points="689,-538.85 531,-538.85 531,-508.85 689,-508.85 689,-538.85"/>
<text text-anchor="start" x="539" y="-526.85" font-family="Roboto" font-size="10.00">Urho3D::Cursor::ApplyOSCursor</text>
<text text-anchor="middle" x="610" y="-515.85" font-family="Roboto" font-size="10.00">Shape</text>
</a>
</g>
</g>
<!-- Node10&#45;&gt;Node11 -->
<g id="edge13" class="edge">
<title>Node10&#45;&gt;Node11</title>
<path fill="none" stroke="#63b8ff" d="M495.45,-523.85C503.24,-523.85 511.3,-523.85 519.36,-523.85"/>
<polygon fill="#63b8ff" stroke="#63b8ff" points="519.22,-527.35 529.22,-523.85 519.22,-520.35 519.22,-527.35"/>
</g>
<!-- Node12 -->
<g id="node12" class="node">
<title>Node12</title>
<g id="a_node12"><a xlink:href="class_urho3_d_1_1_string.html#a8413f000551027cd127996e3c5b00185" target="_top" xlink:title=" ">
<polygon fill="white" stroke="#666666" points="666.5,-490.35 553.5,-490.35 553.5,-471.35 666.5,-471.35 666.5,-490.35"/>
<text text-anchor="middle" x="610" y="-478.35" font-family="Roboto" font-size="10.00">Urho3D::String::Empty</text>
</a>
</g>
</g>
<!-- Node10&#45;&gt;Node12 -->
<g id="edge14" class="edge">
<title>Node10&#45;&gt;Node12</title>
<path fill="none" stroke="#63b8ff" d="M471.9,-513.88C497.04,-507.82 529.38,-500.03 556.33,-493.54"/>
<polygon fill="#63b8ff" stroke="#63b8ff" points="557.14,-496.94 566.04,-491.2 555.5,-490.14 557.14,-496.94"/>
</g>
<!-- Node13 -->
<g id="node13" class="node">
<title>Node13</title>
<g id="a_node13"><a xlink:href="class_urho3_d_1_1_u_i_element.html#a388303ecaef3a6d4764cf84f3dfcceb8" target="_top" xlink:title=" ">
<polygon fill="#fff0f0" stroke="red" points="662.5,-256.85 557.5,-256.85 557.5,-226.85 662.5,-226.85 662.5,-256.85"/>
<text text-anchor="start" x="565.5" y="-244.85" font-family="Roboto" font-size="10.00">Urho3D::UIElement::</text>
<text text-anchor="middle" x="610" y="-233.85" font-family="Roboto" font-size="10.00">SetSize</text>
</a>
</g>
</g>
<!-- Node10&#45;&gt;Node13 -->
<g id="edge15" class="edge">
<title>Node10&#45;&gt;Node13</title>
<path fill="none" stroke="#63b8ff" d="M436.64,-514.14C461.57,-474.76 555.6,-326.21 593.26,-266.72"/>
<polygon fill="#63b8ff" stroke="#63b8ff" points="596.21,-268.6 598.6,-258.28 590.29,-264.86 596.21,-268.6"/>
</g>
<!-- Node53 -->
<g id="node18" class="node">
<title>Node53</title>
<g id="a_node18"><a xlink:href="class_urho3_d_1_1_int_rect.html#a55a4bf2a2282cc3de62288ff424efd73" target="_top" xlink:title=" ">
<polygon fill="white" stroke="#666666" points="664.5,-576.35 555.5,-576.35 555.5,-557.35 664.5,-557.35 664.5,-576.35"/>
<text text-anchor="middle" x="610" y="-564.35" font-family="Roboto" font-size="10.00">Urho3D::IntRect::Size</text>
</a>
</g>
</g>
<!-- Node10&#45;&gt;Node53 -->
<g id="edge23" class="edge">
<title>Node10&#45;&gt;Node53</title>
<path fill="none" stroke="#63b8ff" d="M471.9,-533.82C497.04,-539.88 529.38,-547.67 556.33,-554.16"/>
<polygon fill="#63b8ff" stroke="#63b8ff" points="555.5,-557.56 566.04,-556.5 557.14,-550.76 555.5,-557.56"/>
</g>
<!-- Node13&#45;&gt;Node2 -->
<g id="edge16" class="edge">
<title>Node13&#45;&gt;Node2</title>
<path fill="none" stroke="#63b8ff" d="M662.66,-255.61C672.03,-259.57 681.26,-264.57 689,-270.85 712.27,-289.73 701.05,-309.84 725,-327.85 729.27,-331.06 734.07,-333.73 739.08,-335.95"/>
<polygon fill="#63b8ff" stroke="#63b8ff" points="737.55,-339.11 748.14,-339.37 740.02,-332.56 737.55,-339.11"/>
</g>
<!-- Node13&#45;&gt;Node3 -->
<g id="edge17" class="edge">
<title>Node13&#45;&gt;Node3</title>
<path fill="none" stroke="#63b8ff" d="M617.82,-257.19C644.92,-318.19 745.19,-543.87 779.16,-620.33"/>
<polygon fill="#63b8ff" stroke="#63b8ff" points="775.8,-621.39 783.06,-629.11 782.2,-618.55 775.8,-621.39"/>
</g>
<!-- Node14 -->
<g id="node14" class="node">
<title>Node14</title>
<g id="a_node14"><a xlink:href="class_urho3_d_1_1_object.html#a69af51cfa67f9626273b35a6d501e03e" target="_top" xlink:title="Return a preallocated map for event data. Used for optimization to avoid constant re&#45;allocation of ev...">
<polygon fill="#fff0f0" stroke="red" points="854,-166.85 729,-166.85 729,-136.85 854,-136.85 854,-166.85"/>
<text text-anchor="start" x="737" y="-154.85" font-family="Roboto" font-size="10.00">Urho3D::Object::GetEvent</text>
<text text-anchor="middle" x="791.5" y="-143.85" font-family="Roboto" font-size="10.00">DataMap</text>
</a>
</g>
</g>
<!-- Node13&#45;&gt;Node14 -->
<g id="edge18" class="edge">
<title>Node13&#45;&gt;Node14</title>
<path fill="none" stroke="#63b8ff" d="M634.81,-226.43C657.43,-212.18 692.69,-190.98 725,-175.85 728.13,-174.38 731.39,-172.94 734.69,-171.54"/>
<polygon fill="#63b8ff" stroke="#63b8ff" points="735.97,-174.8 743.93,-167.8 733.34,-168.31 735.97,-174.8"/>
</g>
<!-- Node27 -->
<g id="node15" class="node">
<title>Node27</title>
<g id="a_node15"><a xlink:href="class_urho3_d_1_1_u_i_element.html#ad18ecc5e79b04d47079bdc979eed8240" target="_top" xlink:title="Mark screen position as needing an update.">
<polygon fill="white" stroke="#666666" points="844,-270.85 739,-270.85 739,-240.85 844,-240.85 844,-270.85"/>
<text text-anchor="start" x="747" y="-258.85" font-family="Roboto" font-size="10.00">Urho3D::UIElement::</text>
<text text-anchor="middle" x="791.5" y="-247.85" font-family="Roboto" font-size="10.00">MarkDirty</text>
</a>
</g>
</g>
<!-- Node13&#45;&gt;Node27 -->
<g id="edge19" class="edge">
<title>Node13&#45;&gt;Node27</title>
<path fill="none" stroke="#63b8ff" d="M662.92,-245.9C683.01,-247.47 706.2,-249.28 727.26,-250.92"/>
<polygon fill="#63b8ff" stroke="#63b8ff" points="726.95,-254.4 737.19,-251.69 727.49,-247.42 726.95,-254.4"/>
</g>
<!-- Node28 -->
<g id="node16" class="node">
<title>Node28</title>
<g id="a_node16"><a xlink:href="class_urho3_d_1_1_u_i_element.html#aa99ec115621b2ef219b0f17edd1ff91c" target="_top" xlink:title="React to resize.">
<polygon fill="white" stroke="#666666" points="844,-318.85 739,-318.85 739,-288.85 844,-288.85 844,-318.85"/>
<text text-anchor="start" x="747" y="-306.85" font-family="Roboto" font-size="10.00">Urho3D::UIElement::</text>
<text text-anchor="middle" x="791.5" y="-295.85" font-family="Roboto" font-size="10.00">OnResize</text>
</a>
</g>
</g>
<!-- Node13&#45;&gt;Node28 -->
<g id="edge20" class="edge">
<title>Node13&#45;&gt;Node28</title>
<path fill="none" stroke="#63b8ff" d="M655.83,-257.34C679.91,-265.65 709.8,-275.98 735.3,-284.78"/>
<polygon fill="#63b8ff" stroke="#63b8ff" points="733.9,-288 744.5,-287.96 736.19,-281.39 733.9,-288"/>
</g>
<!-- Node29 -->
<g id="node17" class="node">
<title>Node29</title>
<g id="a_node17"><a xlink:href="class_urho3_d_1_1_object.html#a32020dbf77c196b9777eca479e8abb36" target="_top" xlink:title="Send event to all subscribers.">
<polygon fill="white" stroke="#666666" points="858,-204.35 725,-204.35 725,-185.35 858,-185.35 858,-204.35"/>
<text text-anchor="middle" x="791.5" y="-192.35" font-family="Roboto" font-size="10.00">Urho3D::Object::SendEvent</text>
</a>
</g>
</g>
<!-- Node13&#45;&gt;Node29 -->
<g id="edge21" class="edge">
<title>Node13&#45;&gt;Node29</title>
<path fill="none" stroke="#63b8ff" d="M662.92,-228.26C687.7,-221.77 717.19,-214.04 741.58,-207.66"/>
<polygon fill="#63b8ff" stroke="#63b8ff" points="742.13,-211.13 750.92,-205.21 740.36,-204.36 742.13,-211.13"/>
</g>
<!-- Node29&#45;&gt;Node29 -->
<g id="edge22" class="edge">
<title>Node29&#45;&gt;Node29</title>
<path fill="none" stroke="#63b8ff" d="M767.23,-204.72C756.17,-213.29 764.25,-222.35 791.5,-222.35 806.83,-222.35 816.09,-219.48 819.29,-215.45"/>
<polygon fill="#63b8ff" stroke="#63b8ff" points="822.69,-214.56 816.24,-206.16 816.04,-216.75 822.69,-214.56"/>
</g>
<!-- Node54&#45;&gt;Node5 -->
<g id="edge25" class="edge">
<title>Node54&#45;&gt;Node5</title>
<path fill="none" stroke="#63b8ff" d="M303.3,-50.43C412.02,-15.68 695,55.62 858,-79.85 919.96,-131.35 939.88,-397.62 944.4,-474.84"/>
<polygon fill="#63b8ff" stroke="#63b8ff" points="940.88,-474.61 944.93,-484.4 947.87,-474.22 940.88,-474.61"/>
</g>
<!-- Node54&#45;&gt;Node55 -->
<g id="edge26" class="edge">
<title>Node54&#45;&gt;Node55</title>
<path fill="none" stroke="#63b8ff" d="M310.78,-77.46C328.11,-81.34 347.63,-85.72 365.71,-89.77"/>
<polygon fill="#63b8ff" stroke="#63b8ff" points="364.75,-93.14 375.27,-91.92 366.28,-86.31 364.75,-93.14"/>
</g>
<!-- Node55&#45;&gt;Node13 -->
<g id="edge27" class="edge">
<title>Node55&#45;&gt;Node13</title>
<path fill="none" stroke="#63b8ff" d="M447.06,-119.1C466.57,-136.81 500.24,-166.57 531,-189.85 544.89,-200.36 560.8,-211.17 574.61,-220.2"/>
<polygon fill="#63b8ff" stroke="#63b8ff" points="572.67,-223.11 582.97,-225.6 576.47,-217.23 572.67,-223.11"/>
</g>
<!-- Node56&#45;&gt;Node5 -->
<g id="edge29" class="edge">
<title>Node56&#45;&gt;Node5</title>
<path fill="none" stroke="#63b8ff" d="M310.88,-405.26C439.79,-423.66 773.19,-471.25 897.68,-489.02"/>
<polygon fill="#63b8ff" stroke="#63b8ff" points="897.17,-492.49 907.56,-490.43 898.16,-485.56 897.17,-492.49"/>
</g>
<!-- Node56&#45;&gt;Node57 -->
<g id="edge30" class="edge">
<title>Node56&#45;&gt;Node57</title>
<path fill="none" stroke="#63b8ff" d="M310.78,-386.85C328.11,-383.17 347.63,-379.03 365.71,-375.19"/>
<polygon fill="#63b8ff" stroke="#63b8ff" points="366.21,-378.66 375.27,-373.16 364.76,-371.81 366.21,-378.66"/>
</g>
<!-- Node57&#45;&gt;Node13 -->
<g id="edge31" class="edge">
<title>Node57&#45;&gt;Node13</title>
<path fill="none" stroke="#63b8ff" d="M477.87,-346.38C483.79,-343.83 489.63,-340.98 495,-337.85 529.92,-317.48 564.69,-286.21 586.47,-264.94"/>
<polygon fill="#63b8ff" stroke="#63b8ff" points="588.72,-267.63 593.36,-258.11 583.79,-262.66 588.72,-267.63"/>
</g>
<!-- Node58&#45;&gt;Node14 -->
<g id="edge34" class="edge">
<title>Node58&#45;&gt;Node14</title>
<path fill="none" stroke="#63b8ff" d="M662.92,-161.8C679.82,-160.48 698.9,-158.99 717.07,-157.58"/>
<polygon fill="#63b8ff" stroke="#63b8ff" points="717.33,-161.07 727.02,-156.8 716.78,-154.09 717.33,-161.07"/>
</g>
<!-- Node58&#45;&gt;Node27 -->
<g id="edge35" class="edge">
<title>Node58&#45;&gt;Node27</title>
<path fill="none" stroke="#63b8ff" d="M635.32,-181.17C658.01,-195.12 693.07,-215.76 725,-230.85 728.74,-232.62 732.64,-234.36 736.6,-236.04"/>
<polygon fill="#63b8ff" stroke="#63b8ff" points="735.14,-239.23 745.72,-239.8 737.8,-232.75 735.14,-239.23"/>
</g>
<!-- Node58&#45;&gt;Node29 -->
<g id="edge37" class="edge">
<title>Node58&#45;&gt;Node29</title>
<path fill="none" stroke="#63b8ff" d="M662.92,-174.24C679.98,-176.99 699.28,-180.11 717.6,-183.07"/>
<polygon fill="#63b8ff" stroke="#63b8ff" points="716.93,-186.51 727.36,-184.65 718.05,-179.6 716.93,-186.51"/>
</g>
<!-- Node59 -->
<g id="node24" class="node">
<title>Node59</title>
<g id="a_node24"><a xlink:href="class_urho3_d_1_1_u_i_element.html#a1bb93347504295168ef246844957e0cd" target="_top" xlink:title="React to position change.">
<polygon fill="white" stroke="#666666" points="844,-118.85 739,-118.85 739,-88.85 844,-88.85 844,-118.85"/>
<text text-anchor="start" x="747" y="-106.85" font-family="Roboto" font-size="10.00">Urho3D::UIElement::</text>
<text text-anchor="middle" x="791.5" y="-95.85" font-family="Roboto" font-size="10.00">OnPositionSet</text>
</a>
</g>
</g>
<!-- Node58&#45;&gt;Node59 -->
<g id="edge36" class="edge">
<title>Node58&#45;&gt;Node59</title>
<path fill="none" stroke="#63b8ff" d="M655.83,-150.36C679.91,-142.05 709.8,-131.72 735.3,-122.92"/>
<polygon fill="#63b8ff" stroke="#63b8ff" points="736.19,-126.31 744.5,-119.74 733.9,-119.7 736.19,-126.31"/>
</g>
<!-- Node60&#45;&gt;Node2 -->
<g id="edge40" class="edge">
<title>Node60&#45;&gt;Node2</title>
<path fill="none" stroke="#63b8ff" d="M323.81,-274.14C371.35,-277.02 437.37,-282 495,-289.85 580.9,-301.56 679.6,-322.04 738.41,-335"/>
<polygon fill="#63b8ff" stroke="#63b8ff" points="737.63,-338.41 748.15,-337.16 739.14,-331.57 737.63,-338.41"/>
</g>
<!-- Node60&#45;&gt;Node7 -->
<g id="edge41" class="edge">
<title>Node60&#45;&gt;Node7</title>
<path fill="none" stroke="#63b8ff" d="M319.71,-286.25C334.7,-290.05 350.77,-294.13 365.84,-297.95"/>
<polygon fill="#63b8ff" stroke="#63b8ff" points="364.59,-301.25 375.14,-300.31 366.31,-294.46 364.59,-301.25"/>
</g>
<!-- Node60&#45;&gt;Node8 -->
<g id="edge42" class="edge">
<title>Node60&#45;&gt;Node8</title>
<path fill="none" stroke="#63b8ff" d="M289.18,-255.53C310.09,-245.01 338.62,-230.84 364,-218.85 370.27,-215.89 376.9,-212.83 383.45,-209.85"/>
<polygon fill="#63b8ff" stroke="#63b8ff" points="384.53,-213.2 392.2,-205.89 381.64,-206.82 384.53,-213.2"/>
</g>
<!-- Node60&#45;&gt;Node58 -->
<g id="edge43" class="edge">
<title>Node60&#45;&gt;Node58</title>
<path fill="none" stroke="#63b8ff" d="M323.89,-258.13C371.75,-248.04 438.14,-232.55 495,-213.85 519.08,-205.93 545.2,-195.11 566.35,-185.74"/>
<polygon fill="#63b8ff" stroke="#63b8ff" points="567.54,-189.05 575.23,-181.76 564.67,-182.66 567.54,-189.05"/>
</g>
</g>
</svg>
