<?xml version="1.0" encoding="UTF-8" standalone="no"?>
<!DOCTYPE svg PUBLIC "-//W3C//DTD SVG 1.1//EN"
 "http://www.w3.org/Graphics/SVG/1.1/DTD/svg11.dtd">
<!-- Generated by graphviz version 7.0.3 (0)
 -->
<!-- Title: Urho3D::FileSelector::SetPath Pages: 1 -->
<svg width="809pt" height="739pt"
 viewBox="0.00 0.00 809.00 739.00" xmlns="http://www.w3.org/2000/svg" xmlns:xlink="http://www.w3.org/1999/xlink">
<g id="graph0" class="graph" transform="scale(1 1) rotate(0) translate(4 735)">
<title>Urho3D::FileSelector::SetPath</title>
<!-- Node1 -->
<g id="node1" class="node">
<title>Node1</title>
<g id="a_node1"><a xlink:title=" ">
<polygon fill="#999999" stroke="#666666" points="107,-698.5 0,-698.5 0,-668.5 107,-668.5 107,-698.5"/>
<text text-anchor="start" x="8" y="-686.5" font-family="Roboto" font-size="10.00">Urho3D::FileSelector</text>
<text text-anchor="middle" x="53.5" y="-675.5" font-family="Roboto" font-size="10.00">::SetPath</text>
</a>
</g>
</g>
<!-- Node2 -->
<g id="node2" class="node">
<title>Node2</title>
<g id="a_node2"><a xlink:href="class_urho3_d_1_1_line_edit.html#a86d61ed0232168e93ed5987c535fe59b" target="_top" xlink:title=" ">
<polygon fill="white" stroke="#666666" points="271,-731 143,-731 143,-712 271,-712 271,-731"/>
<text text-anchor="middle" x="207" y="-719" font-family="Roboto" font-size="10.00">Urho3D::LineEdit::GetText</text>
</a>
</g>
</g>
<!-- Node1&#45;&gt;Node2 -->
<g id="edge1" class="edge">
<title>Node1&#45;&gt;Node2</title>
<path fill="none" stroke="#63b8ff" d="M107.49,-696.79C123.01,-700.68 139.93,-704.93 155.3,-708.78"/>
<polygon fill="#63b8ff" stroke="#63b8ff" points="154.16,-712.1 164.71,-711.14 155.86,-705.32 154.16,-712.1"/>
</g>
<!-- Node3 -->
<g id="node3" class="node">
<title>Node3</title>
<g id="a_node3"><a xlink:href="class_urho3_d_1_1_file_selector.html#a8ec8d229ef0e2a4836634e01e96803a7" target="_top" xlink:title="Refresh the directory listing.">
<polygon fill="white" stroke="#666666" points="260.5,-508.5 153.5,-508.5 153.5,-478.5 260.5,-478.5 260.5,-508.5"/>
<text text-anchor="start" x="161.5" y="-496.5" font-family="Roboto" font-size="10.00">Urho3D::FileSelector</text>
<text text-anchor="middle" x="207" y="-485.5" font-family="Roboto" font-size="10.00">::RefreshFiles</text>
</a>
</g>
</g>
<!-- Node1&#45;&gt;Node3 -->
<g id="edge2" class="edge">
<title>Node1&#45;&gt;Node3</title>
<path fill="none" stroke="#63b8ff" d="M66.64,-668.27C92.9,-635.34 155.16,-557.26 186.81,-517.56"/>
<polygon fill="#63b8ff" stroke="#63b8ff" points="189.36,-519.98 192.86,-509.98 183.89,-515.62 189.36,-519.98"/>
</g>
<!-- Node102 -->
<g id="node15" class="node">
<title>Node102</title>
<g id="a_node15"><a xlink:href="class_urho3_d_1_1_file_selector.html#a333215b0e92a89a68233beae4aea3478" target="_top" xlink:title="Set the text of an edit field and ignore the resulting event.">
<polygon fill="white" stroke="#666666" points="611.5,-677.5 504.5,-677.5 504.5,-647.5 611.5,-647.5 611.5,-677.5"/>
<text text-anchor="start" x="512.5" y="-665.5" font-family="Roboto" font-size="10.00">Urho3D::FileSelector</text>
<text text-anchor="middle" x="558" y="-654.5" font-family="Roboto" font-size="10.00">::SetLineEditText</text>
</a>
</g>
</g>
<!-- Node1&#45;&gt;Node102 -->
<g id="edge27" class="edge">
<title>Node1&#45;&gt;Node102</title>
<path fill="none" stroke="#63b8ff" d="M107.33,-681.29C200.16,-677.41 392.22,-669.39 492.64,-665.19"/>
<polygon fill="#63b8ff" stroke="#63b8ff" points="492.77,-668.69 502.62,-664.77 492.48,-661.69 492.77,-668.69"/>
</g>
<!-- Node4 -->
<g id="node4" class="node">
<title>Node4</title>
<g id="a_node4"><a xlink:href="class_urho3_d_1_1_list_view.html#aa7328480b37cc673aa9ccea8653e2c67" target="_top" xlink:title="Add item to the end of the list.">
<polygon fill="white" stroke="#666666" points="442,-522 307,-522 307,-503 442,-503 442,-522"/>
<text text-anchor="middle" x="374.5" y="-510" font-family="Roboto" font-size="10.00">Urho3D::ListView::AddItem</text>
</a>
</g>
</g>
<!-- Node3&#45;&gt;Node4 -->
<g id="edge3" class="edge">
<title>Node3&#45;&gt;Node4</title>
<path fill="none" stroke="#63b8ff" d="M260.82,-499.56C271.86,-500.83 283.72,-502.19 295.46,-503.54"/>
<polygon fill="#63b8ff" stroke="#63b8ff" points="294.8,-506.99 305.13,-504.65 295.6,-500.03 294.8,-506.99"/>
</g>
<!-- Node57 -->
<g id="node6" class="node">
<title>Node57</title>
<g id="a_node6"><a xlink:href="class_urho3_d_1_1_u_i_element.html#a7e286d16e39b54282ca0d64666d26b67" target="_top" xlink:title="Disable automatic layout update. Should only be used if there are performance problems.">
<polygon fill="white" stroke="#666666" points="613,-499.5 503,-499.5 503,-469.5 613,-469.5 613,-499.5"/>
<text text-anchor="start" x="511" y="-487.5" font-family="Roboto" font-size="10.00">Urho3D::UIElement::</text>
<text text-anchor="middle" x="558" y="-476.5" font-family="Roboto" font-size="10.00">DisableLayoutUpdate</text>
</a>
</g>
</g>
<!-- Node3&#45;&gt;Node57 -->
<g id="edge5" class="edge">
<title>Node3&#45;&gt;Node57</title>
<path fill="none" stroke="#63b8ff" d="M260.63,-492.14C322.28,-490.55 424.47,-487.92 491.28,-486.19"/>
<polygon fill="#63b8ff" stroke="#63b8ff" points="491.09,-489.7 500.99,-485.94 490.91,-482.7 491.09,-489.7"/>
</g>
<!-- Node58 -->
<g id="node7" class="node">
<title>Node58</title>
<g id="a_node7"><a xlink:href="class_urho3_d_1_1_u_i_element.html#a952c4e37f3ee8fe5615791389d03f813" target="_top" xlink:title="Enable automatic layout update.">
<polygon fill="white" stroke="#666666" points="611.5,-451.5 504.5,-451.5 504.5,-421.5 611.5,-421.5 611.5,-451.5"/>
<text text-anchor="start" x="512.5" y="-439.5" font-family="Roboto" font-size="10.00">Urho3D::UIElement::</text>
<text text-anchor="middle" x="558" y="-428.5" font-family="Roboto" font-size="10.00">EnableLayoutUpdate</text>
</a>
</g>
</g>
<!-- Node3&#45;&gt;Node58 -->
<g id="edge6" class="edge">
<title>Node3&#45;&gt;Node58</title>
<path fill="none" stroke="#63b8ff" d="M260.63,-484.9C322.82,-474.75 426.27,-457.85 493.03,-446.95"/>
<polygon fill="#63b8ff" stroke="#63b8ff" points="493.43,-450.43 502.74,-445.36 492.3,-443.52 493.43,-450.43"/>
</g>
<!-- Node91 -->
<g id="node8" class="node">
<title>Node91</title>
<g id="a_node8"><a xlink:href="class_urho3_d_1_1_scroll_view.html#a76fccc59d9ba72d61dcadb95f66e81e3" target="_top" xlink:title=" ">
<polygon fill="white" stroke="#666666" points="428,-408.5 321,-408.5 321,-378.5 428,-378.5 428,-408.5"/>
<text text-anchor="start" x="329" y="-396.5" font-family="Roboto" font-size="10.00">Urho3D::ScrollView</text>
<text text-anchor="middle" x="374.5" y="-385.5" font-family="Roboto" font-size="10.00">::GetContentElement</text>
</a>
</g>
</g>
<!-- Node3&#45;&gt;Node91 -->
<g id="edge7" class="edge">
<title>Node3&#45;&gt;Node91</title>
<path fill="none" stroke="#63b8ff" d="M226.91,-478.09C246.26,-462.77 277.58,-439.22 307,-422.5 312.41,-419.43 318.2,-416.46 324.03,-413.68"/>
<polygon fill="#63b8ff" stroke="#63b8ff" points="325.5,-416.86 333.12,-409.5 322.57,-410.5 325.5,-416.86"/>
</g>
<!-- Node92 -->
<g id="node9" class="node">
<title>Node92</title>
<g id="a_node9"><a xlink:href="class_urho3_d_1_1_file_selector.html#ad466c4ce221ba557aa0cc022f42da870" target="_top" xlink:title=" ">
<polygon fill="white" stroke="#666666" points="428,-67.5 321,-67.5 321,-37.5 428,-37.5 428,-67.5"/>
<text text-anchor="start" x="329" y="-55.5" font-family="Roboto" font-size="10.00">Urho3D::FileSelector</text>
<text text-anchor="middle" x="374.5" y="-44.5" font-family="Roboto" font-size="10.00">::GetFilter</text>
</a>
</g>
</g>
<!-- Node3&#45;&gt;Node92 -->
<g id="edge8" class="edge">
<title>Node3&#45;&gt;Node92</title>
<path fill="none" stroke="#63b8ff" d="M213.79,-478.06C238.27,-412.83 333.37,-159.42 363.96,-77.91"/>
<polygon fill="#63b8ff" stroke="#63b8ff" points="367.07,-79.59 367.31,-69 360.52,-77.13 367.07,-79.59"/>
</g>
<!-- Node95 -->
<g id="node12" class="node">
<title>Node95</title>
<g id="a_node12"><a xlink:href="class_urho3_d_1_1_list_view.html#af63a6ce119dace69776b04ba70753911" target="_top" xlink:title="Remove all items.">
<polygon fill="white" stroke="#666666" points="440.5,-607.5 308.5,-607.5 308.5,-577.5 440.5,-577.5 440.5,-607.5"/>
<text text-anchor="start" x="316.5" y="-595.5" font-family="Roboto" font-size="10.00">Urho3D::ListView::Remove</text>
<text text-anchor="middle" x="374.5" y="-584.5" font-family="Roboto" font-size="10.00">AllItems</text>
</a>
</g>
</g>
<!-- Node3&#45;&gt;Node95 -->
<g id="edge11" class="edge">
<title>Node3&#45;&gt;Node95</title>
<path fill="none" stroke="#63b8ff" d="M225.21,-508.76C244.18,-524.99 276.13,-550.61 307,-567.5 310.19,-569.25 313.53,-570.92 316.94,-572.52"/>
<polygon fill="#63b8ff" stroke="#63b8ff" points="315.36,-575.65 325.92,-576.47 318.18,-569.24 315.36,-575.65"/>
</g>
<!-- Node101 -->
<g id="node14" class="node">
<title>Node101</title>
<g id="a_node14"><a xlink:href="class_urho3_d_1_1_file_selector.html#ab38ccd4b59e77adcc8234bb85eb8e45c" target="_top" xlink:title=" ">
<polygon fill="white" stroke="#666666" points="428,-655.5 321,-655.5 321,-625.5 428,-625.5 428,-655.5"/>
<text text-anchor="start" x="329" y="-643.5" font-family="Roboto" font-size="10.00">Urho3D::FileSelector</text>
<text text-anchor="middle" x="374.5" y="-632.5" font-family="Roboto" font-size="10.00">::SetFileName</text>
</a>
</g>
</g>
<!-- Node3&#45;&gt;Node101 -->
<g id="edge13" class="edge">
<title>Node3&#45;&gt;Node101</title>
<path fill="none" stroke="#63b8ff" d="M216.36,-508.59C231.32,-534.26 265.05,-586.57 307,-616.5 308.55,-617.6 310.15,-618.66 311.79,-619.67"/>
<polygon fill="#63b8ff" stroke="#63b8ff" points="309.82,-622.58 320.28,-624.28 313.16,-616.43 309.82,-622.58"/>
</g>
<!-- Node12 -->
<g id="node17" class="node">
<title>Node12</title>
<g id="a_node17"><a xlink:href="class_urho3_d_1_1_vector.html#a5da7101c355895f41098fcf875e4c56a" target="_top" xlink:title="Return size of vector.">
<polygon fill="white" stroke="#666666" points="428,-559 321,-559 321,-540 428,-540 428,-559"/>
<text text-anchor="middle" x="374.5" y="-547" font-family="Roboto" font-size="10.00">Urho3D::Vector::Size</text>
</a>
</g>
</g>
<!-- Node3&#45;&gt;Node12 -->
<g id="edge16" class="edge">
<title>Node3&#45;&gt;Node12</title>
<path fill="none" stroke="#63b8ff" d="M247.25,-508.99C265.33,-515.91 287.13,-523.96 307,-530.5 313.14,-532.52 319.63,-534.53 326.06,-536.45"/>
<polygon fill="#63b8ff" stroke="#63b8ff" points="324.72,-539.7 335.3,-539.14 326.68,-532.98 324.72,-539.7"/>
</g>
<!-- Node47 -->
<g id="node18" class="node">
<title>Node47</title>
<g id="a_node18"><a xlink:href="class_urho3_d_1_1_u_i_element.html#a7cba78373c23a734a1ccd2d4a27d8cb0" target="_top" xlink:title="Manually update layout. Should not be necessary in most cases, but is provided for completeness.">
<polygon fill="#fff0f0" stroke="red" points="427,-331.5 322,-331.5 322,-301.5 427,-301.5 427,-331.5"/>
<text text-anchor="start" x="330" y="-319.5" font-family="Roboto" font-size="10.00">Urho3D::UIElement::</text>
<text text-anchor="middle" x="374.5" y="-308.5" font-family="Roboto" font-size="10.00">UpdateLayout</text>
</a>
</g>
</g>
<!-- Node3&#45;&gt;Node47 -->
<g id="edge17" class="edge">
<title>Node3&#45;&gt;Node47</title>
<path fill="none" stroke="#63b8ff" d="M218.58,-478.09C235.69,-453.71 271.14,-405.33 307,-369.5 317.96,-358.55 331.11,-347.67 342.81,-338.64"/>
<polygon fill="#63b8ff" stroke="#63b8ff" points="344.74,-341.57 350.61,-332.75 340.52,-335.99 344.74,-341.57"/>
</g>
<!-- Node5 -->
<g id="node5" class="node">
<title>Node5</title>
<g id="a_node5"><a xlink:href="class_urho3_d_1_1_list_view.html#aeb784361fd2f048e99d554b6c4375e07" target="_top" xlink:title="Insert item at a specific index. In hierarchy mode, the optional parameter will be used to determine ...">
<polygon fill="#fff0f0" stroke="red" points="629,-537 487,-537 487,-518 629,-518 629,-537"/>
<text text-anchor="middle" x="558" y="-525" font-family="Roboto" font-size="10.00">Urho3D::ListView::InsertItem</text>
</a>
</g>
</g>
<!-- Node4&#45;&gt;Node5 -->
<g id="edge4" class="edge">
<title>Node4&#45;&gt;Node5</title>
<path fill="none" stroke="#63b8ff" d="M442.31,-518.02C453.04,-518.91 464.25,-519.83 475.28,-520.75"/>
<polygon fill="#63b8ff" stroke="#63b8ff" points="474.91,-524.23 485.17,-521.56 475.49,-517.25 474.91,-524.23"/>
</g>
<!-- Node93 -->
<g id="node10" class="node">
<title>Node93</title>
<g id="a_node10"><a xlink:href="class_urho3_d_1_1_drop_down_list.html#a51cd58dae013d0ef628979b6cbb20465" target="_top" xlink:title=" ">
<polygon fill="white" stroke="#666666" points="616.5,-67.5 499.5,-67.5 499.5,-37.5 616.5,-37.5 616.5,-67.5"/>
<text text-anchor="start" x="507.5" y="-55.5" font-family="Roboto" font-size="10.00">Urho3D::DropDownList</text>
<text text-anchor="middle" x="558" y="-44.5" font-family="Roboto" font-size="10.00">::GetSelectedItem</text>
</a>
</g>
</g>
<!-- Node92&#45;&gt;Node93 -->
<g id="edge9" class="edge">
<title>Node92&#45;&gt;Node93</title>
<path fill="none" stroke="#63b8ff" d="M428.49,-52.5C447.03,-52.5 468.13,-52.5 487.8,-52.5"/>
<polygon fill="#63b8ff" stroke="#63b8ff" points="487.67,-56 497.67,-52.5 487.67,-49 487.67,-56"/>
</g>
<!-- Node94 -->
<g id="node11" class="node">
<title>Node94</title>
<g id="a_node11"><a xlink:href="class_urho3_d_1_1_text.html#a0c36a4a302a211451f2973d47e021c25" target="_top" xlink:title=" ">
<polygon fill="white" stroke="#666666" points="614,-19 502,-19 502,0 614,0 614,-19"/>
<text text-anchor="middle" x="558" y="-7" font-family="Roboto" font-size="10.00">Urho3D::Text::GetText</text>
</a>
</g>
</g>
<!-- Node92&#45;&gt;Node94 -->
<g id="edge10" class="edge">
<title>Node92&#45;&gt;Node94</title>
<path fill="none" stroke="#63b8ff" d="M428.49,-39.95C452.24,-34.32 480.2,-27.7 503.96,-22.07"/>
<polygon fill="#63b8ff" stroke="#63b8ff" points="504.51,-25.53 513.43,-19.82 502.89,-18.72 504.51,-25.53"/>
</g>
<!-- Node96 -->
<g id="node13" class="node">
<title>Node96</title>
<g id="a_node13"><a xlink:href="class_urho3_d_1_1_list_view.html#a2f9e3fec256a10393489a0814dea0037" target="_top" xlink:title="Clear selection.">
<polygon fill="#fff0f0" stroke="red" points="638,-602 478,-602 478,-583 638,-583 638,-602"/>
<text text-anchor="middle" x="558" y="-590" font-family="Roboto" font-size="10.00">Urho3D::ListView::ClearSelection</text>
</a>
</g>
</g>
<!-- Node95&#45;&gt;Node96 -->
<g id="edge12" class="edge">
<title>Node95&#45;&gt;Node96</title>
<path fill="none" stroke="#63b8ff" d="M440.77,-592.5C449.11,-592.5 457.76,-592.5 466.41,-592.5"/>
<polygon fill="#63b8ff" stroke="#63b8ff" points="466.24,-596 476.24,-592.5 466.24,-589 466.24,-596"/>
</g>
<!-- Node101&#45;&gt;Node102 -->
<g id="edge14" class="edge">
<title>Node101&#45;&gt;Node102</title>
<path fill="none" stroke="#63b8ff" d="M428.49,-646.92C448.71,-649.37 471.97,-652.19 493.11,-654.76"/>
<polygon fill="#63b8ff" stroke="#63b8ff" points="492.41,-658.2 502.76,-655.93 493.25,-651.25 492.41,-658.2"/>
</g>
<!-- Node103 -->
<g id="node16" class="node">
<title>Node103</title>
<g id="a_node16"><a xlink:href="class_urho3_d_1_1_line_edit.html#a25dd0420a6256168141deaa8acfe1988" target="_top" xlink:title=" ">
<polygon fill="#fff0f0" stroke="red" points="801,-672 674,-672 674,-653 801,-653 801,-672"/>
<text text-anchor="middle" x="737.5" y="-660" font-family="Roboto" font-size="10.00">Urho3D::LineEdit::SetText</text>
</a>
</g>
</g>
<!-- Node102&#45;&gt;Node103 -->
<g id="edge15" class="edge">
<title>Node102&#45;&gt;Node103</title>
<path fill="none" stroke="#63b8ff" d="M611.78,-662.5C627.7,-662.5 645.49,-662.5 662.53,-662.5"/>
<polygon fill="#63b8ff" stroke="#63b8ff" points="662.08,-666 672.08,-662.5 662.08,-659 662.08,-666"/>
</g>
<!-- Node47&#45;&gt;Node57 -->
<g id="edge20" class="edge">
<title>Node47&#45;&gt;Node57</title>
<path fill="none" stroke="#63b8ff" d="M400.64,-331.83C414.39,-341.27 430.84,-354.43 442,-369.5 467.88,-404.46 446.01,-431.03 478,-460.5 482.24,-464.41 487.1,-467.68 492.27,-470.42"/>
<polygon fill="#63b8ff" stroke="#63b8ff" points="490.61,-473.51 501.16,-474.43 493.49,-467.13 490.61,-473.51"/>
</g>
<!-- Node47&#45;&gt;Node58 -->
<g id="edge21" class="edge">
<title>Node47&#45;&gt;Node58</title>
<path fill="none" stroke="#63b8ff" d="M397.07,-331.95C410.55,-342.01 427.95,-355.78 442,-369.5 459.84,-386.91 457.21,-398.75 478,-412.5 482.81,-415.68 488.06,-418.45 493.49,-420.87"/>
<polygon fill="#63b8ff" stroke="#63b8ff" points="492.09,-424.08 502.68,-424.53 494.68,-417.58 492.09,-424.08"/>
</g>
<!-- Node48 -->
<g id="node19" class="node">
<title>Node48</title>
<g id="a_node19"><a xlink:href="class_urho3_d_1_1_u_i_element.html#a2c26825089539496dc3c05f2701e9bff" target="_top" xlink:title="Calculate child widths/positions in the layout.">
<polygon fill="#fff0f0" stroke="red" points="610.5,-163.5 505.5,-163.5 505.5,-133.5 610.5,-133.5 610.5,-163.5"/>
<text text-anchor="start" x="513.5" y="-151.5" font-family="Roboto" font-size="10.00">Urho3D::UIElement::</text>
<text text-anchor="middle" x="558" y="-140.5" font-family="Roboto" font-size="10.00">CalculateLayout</text>
</a>
</g>
</g>
<!-- Node47&#45;&gt;Node48 -->
<g id="edge18" class="edge">
<title>Node47&#45;&gt;Node48</title>
<path fill="none" stroke="#63b8ff" d="M382.12,-301.37C395.73,-272.03 429.67,-207.26 478,-172.5 483.22,-168.75 489.03,-165.57 495.07,-162.89"/>
<polygon fill="#63b8ff" stroke="#63b8ff" points="495.96,-166.3 503.98,-159.37 493.4,-159.79 495.96,-166.3"/>
</g>
<!-- Node56 -->
<g id="node20" class="node">
<title>Node56</title>
<g id="a_node20"><a xlink:href="class_urho3_d_1_1_u_i_element.html#aa8ec3dcc9f57f4c5b7d13f60dcb76f38" target="_top" xlink:title="Calculate layout width for resizing the parent element.">
<polygon fill="#fff0f0" stroke="red" points="624.5,-115.5 491.5,-115.5 491.5,-85.5 624.5,-85.5 624.5,-115.5"/>
<text text-anchor="start" x="499.5" y="-103.5" font-family="Roboto" font-size="10.00">Urho3D::UIElement::</text>
<text text-anchor="middle" x="558" y="-92.5" font-family="Roboto" font-size="10.00">CalculateLayoutParentSize</text>
</a>
</g>
</g>
<!-- Node47&#45;&gt;Node56 -->
<g id="edge19" class="edge">
<title>Node47&#45;&gt;Node56</title>
<path fill="none" stroke="#63b8ff" d="M379.31,-301.21C389.15,-264.94 418.87,-173.07 478,-124.5 479.12,-123.58 480.28,-122.69 481.46,-121.84"/>
<polygon fill="#63b8ff" stroke="#63b8ff" points="483.09,-124.95 489.79,-116.74 479.44,-118.98 483.09,-124.95"/>
</g>
<!-- Node59 -->
<g id="node21" class="node">
<title>Node59</title>
<g id="a_node21"><a xlink:href="class_urho3_d_1_1_u_i_element.html#a6eca4b74842f82376a1d9a7f889aa174" target="_top" xlink:title="Return effective minimum size, also considering layout. Used internally.">
<polygon fill="#fff0f0" stroke="red" points="610.5,-403.5 505.5,-403.5 505.5,-373.5 610.5,-373.5 610.5,-403.5"/>
<text text-anchor="start" x="513.5" y="-391.5" font-family="Roboto" font-size="10.00">Urho3D::UIElement::</text>
<text text-anchor="middle" x="558" y="-380.5" font-family="Roboto" font-size="10.00">GetEffectiveMinSize</text>
</a>
</g>
</g>
<!-- Node47&#45;&gt;Node59 -->
<g id="edge22" class="edge">
<title>Node47&#45;&gt;Node59</title>
<path fill="none" stroke="#63b8ff" d="M405.51,-331.94C425.68,-341.98 453.05,-354.92 478,-364.5 483.3,-366.53 488.85,-368.51 494.45,-370.41"/>
<polygon fill="#63b8ff" stroke="#63b8ff" points="493.19,-373.68 503.78,-373.46 495.37,-367.02 493.19,-373.68"/>
</g>
<!-- Node62 -->
<g id="node22" class="node">
<title>Node62</title>
<g id="a_node22"><a xlink:href="class_urho3_d_1_1_u_i_element.html#aa54260b906ecc9755c56d59530bedd85" target="_top" xlink:title=" ">
<polygon fill="white" stroke="#666666" points="610.5,-355.5 505.5,-355.5 505.5,-325.5 610.5,-325.5 610.5,-355.5"/>
<text text-anchor="start" x="513.5" y="-343.5" font-family="Roboto" font-size="10.00">Urho3D::UIElement::</text>
<text text-anchor="middle" x="558" y="-332.5" font-family="Roboto" font-size="10.00">GetEnableAnchor</text>
</a>
</g>
</g>
<!-- Node47&#45;&gt;Node62 -->
<g id="edge23" class="edge">
<title>Node47&#45;&gt;Node62</title>
<path fill="none" stroke="#63b8ff" d="M427.03,-323.31C447.82,-326.06 472.02,-329.26 493.86,-332.15"/>
<polygon fill="#63b8ff" stroke="#63b8ff" points="493.16,-335.59 503.53,-333.43 494.08,-328.65 493.16,-335.59"/>
</g>
<!-- Node27 -->
<g id="node23" class="node">
<title>Node27</title>
<g id="a_node23"><a xlink:href="class_urho3_d_1_1_object.html#a69af51cfa67f9626273b35a6d501e03e" target="_top" xlink:title="Return a preallocated map for event data. Used for optimization to avoid constant re&#45;allocation of ev...">
<polygon fill="#fff0f0" stroke="red" points="620.5,-307.5 495.5,-307.5 495.5,-277.5 620.5,-277.5 620.5,-307.5"/>
<text text-anchor="start" x="503.5" y="-295.5" font-family="Roboto" font-size="10.00">Urho3D::Object::GetEvent</text>
<text text-anchor="middle" x="558" y="-284.5" font-family="Roboto" font-size="10.00">DataMap</text>
</a>
</g>
</g>
<!-- Node47&#45;&gt;Node27 -->
<g id="edge24" class="edge">
<title>Node47&#45;&gt;Node27</title>
<path fill="none" stroke="#63b8ff" d="M427.03,-309.69C444.64,-307.36 464.7,-304.71 483.69,-302.19"/>
<polygon fill="#63b8ff" stroke="#63b8ff" points="484.08,-305.67 493.54,-300.89 483.16,-298.73 484.08,-305.67"/>
</g>
<!-- Node8 -->
<g id="node24" class="node">
<title>Node8</title>
<g id="a_node24"><a xlink:href="class_urho3_d_1_1_u_i_element.html#a74426efba577c8b92f7b49c307d7a446" target="_top" xlink:title=" ">
<polygon fill="white" stroke="#666666" points="610.5,-259.5 505.5,-259.5 505.5,-229.5 610.5,-229.5 610.5,-259.5"/>
<text text-anchor="start" x="513.5" y="-247.5" font-family="Roboto" font-size="10.00">Urho3D::UIElement::</text>
<text text-anchor="middle" x="558" y="-236.5" font-family="Roboto" font-size="10.00">GetHeight</text>
</a>
</g>
</g>
<!-- Node47&#45;&gt;Node8 -->
<g id="edge25" class="edge">
<title>Node47&#45;&gt;Node8</title>
<path fill="none" stroke="#63b8ff" d="M405.51,-301.06C425.68,-291.02 453.05,-278.08 478,-268.5 483.3,-266.47 488.85,-264.49 494.45,-262.59"/>
<polygon fill="#63b8ff" stroke="#63b8ff" points="495.37,-265.98 503.78,-259.54 493.19,-259.32 495.37,-265.98"/>
</g>
<!-- Node63 -->
<g id="node25" class="node">
<title>Node63</title>
<g id="a_node25"><a xlink:href="class_urho3_d_1_1_u_i_element.html#af0d0d929939b0fb4b8d38c7699ecdfa0" target="_top" xlink:title=" ">
<polygon fill="white" stroke="#666666" points="610.5,-211.5 505.5,-211.5 505.5,-181.5 610.5,-181.5 610.5,-211.5"/>
<text text-anchor="start" x="513.5" y="-199.5" font-family="Roboto" font-size="10.00">Urho3D::UIElement::</text>
<text text-anchor="middle" x="558" y="-188.5" font-family="Roboto" font-size="10.00">GetIndentWidth</text>
</a>
</g>
</g>
<!-- Node47&#45;&gt;Node63 -->
<g id="edge26" class="edge">
<title>Node47&#45;&gt;Node63</title>
<path fill="none" stroke="#63b8ff" d="M387.78,-301.24C405.55,-280.14 440.42,-242.21 478,-220.5 483.28,-217.45 488.98,-214.76 494.82,-212.38"/>
<polygon fill="#63b8ff" stroke="#63b8ff" points="495.85,-215.73 504,-208.96 493.41,-209.17 495.85,-215.73"/>
</g>
</g>
</svg>
