<?xml version="1.0" encoding="UTF-8" standalone="no"?>
<!DOCTYPE svg PUBLIC "-//W3C//DTD SVG 1.1//EN"
 "http://www.w3.org/Graphics/SVG/1.1/DTD/svg11.dtd">
<!-- Generated by graphviz version 7.0.3 (0)
 -->
<!-- Title: Urho3D::UIElement::OnDragBegin Pages: 1 -->
<svg width="301pt" height="113pt"
 viewBox="0.00 0.00 301.00 112.50" xmlns="http://www.w3.org/2000/svg" xmlns:xlink="http://www.w3.org/1999/xlink">
<g id="graph0" class="graph" transform="scale(1 1) rotate(0) translate(4 108.5)">
<title>Urho3D::UIElement::OnDragBegin</title>
<!-- Node1 -->
<g id="node1" class="node">
<title>Node1</title>
<g id="a_node1"><a xlink:title="React to mouse drag begin.">
<polygon fill="#999999" stroke="#666666" points="293,-61.5 188,-61.5 188,-31.5 293,-31.5 293,-61.5"/>
<text text-anchor="start" x="196" y="-49.5" font-family="Roboto" font-size="10.00">Urho3D::UIElement::</text>
<text text-anchor="middle" x="240.5" y="-38.5" font-family="Roboto" font-size="10.00">OnDragBegin</text>
</a>
</g>
</g>
<!-- Node2 -->
<g id="node2" class="node">
<title>Node2</title>
<g id="a_node2"><a xlink:href="class_urho3_d_1_1_line_edit.html#ab6b1fed419e29781d4a048954ef7a575" target="_top" xlink:title="React to mouse drag begin.">
<polygon fill="white" stroke="#666666" points="139,-104.5 13,-104.5 13,-74.5 139,-74.5 139,-104.5"/>
<text text-anchor="start" x="21" y="-92.5" font-family="Roboto" font-size="10.00">Urho3D::LineEdit::OnDrag</text>
<text text-anchor="middle" x="76" y="-81.5" font-family="Roboto" font-size="10.00">Begin</text>
</a>
</g>
</g>
<!-- Node1&#45;&gt;Node2 -->
<g id="edge1" class="edge">
<title>Node1&#45;&gt;Node2</title>
<path fill="none" stroke="#63b8ff" d="M176.89,-63.07C163.26,-66.67 148.89,-70.48 135.42,-74.04"/>
<polygon fill="#63b8ff" stroke="#63b8ff" points="177.4,-66.55 186.17,-60.61 175.61,-59.79 177.4,-66.55"/>
</g>
<!-- Node3 -->
<g id="node3" class="node">
<title>Node3</title>
<g id="a_node3"><a xlink:href="class_urho3_d_1_1_slider.html#abdc26dff7a5f58c1dd00460f205f62c4" target="_top" xlink:title="React to mouse drag begin.">
<polygon fill="white" stroke="#666666" points="146.5,-56 5.5,-56 5.5,-37 146.5,-37 146.5,-56"/>
<text text-anchor="middle" x="76" y="-44" font-family="Roboto" font-size="10.00">Urho3D::Slider::OnDragBegin</text>
</a>
</g>
</g>
<!-- Node1&#45;&gt;Node3 -->
<g id="edge2" class="edge">
<title>Node1&#45;&gt;Node3</title>
<path fill="none" stroke="#63b8ff" d="M176.43,-46.5C166.7,-46.5 156.61,-46.5 146.75,-46.5"/>
<polygon fill="#63b8ff" stroke="#63b8ff" points="176.12,-50 186.12,-46.5 176.12,-43 176.12,-50"/>
</g>
<!-- Node4 -->
<g id="node4" class="node">
<title>Node4</title>
<g id="a_node4"><a xlink:href="class_urho3_d_1_1_window.html#a932ccd738d5c204646be87a8e6d72dde" target="_top" xlink:title="React to mouse drag begin.">
<polygon fill="white" stroke="#666666" points="152,-19 0,-19 0,0 152,0 152,-19"/>
<text text-anchor="middle" x="76" y="-7" font-family="Roboto" font-size="10.00">Urho3D::Window::OnDragBegin</text>
</a>
</g>
</g>
<!-- Node1&#45;&gt;Node4 -->
<g id="edge3" class="edge">
<title>Node1&#45;&gt;Node4</title>
<path fill="none" stroke="#63b8ff" d="M176.54,-32.17C157.89,-27.92 137.89,-23.36 120.74,-19.46"/>
<polygon fill="#63b8ff" stroke="#63b8ff" points="175.63,-35.55 186.16,-34.36 177.19,-28.72 175.63,-35.55"/>
</g>
</g>
</svg>
