<?xml version="1.0" encoding="UTF-8" standalone="no"?>
<!DOCTYPE svg PUBLIC "-//W3C//DTD SVG 1.1//EN"
 "http://www.w3.org/Graphics/SVG/1.1/DTD/svg11.dtd">
<!-- Generated by graphviz version 7.0.3 (0)
 -->
<!-- Title: Urho3D::IntRect::Width Pages: 1 -->
<svg width="715pt" height="807pt"
 viewBox="0.00 0.00 715.00 807.00" xmlns="http://www.w3.org/2000/svg" xmlns:xlink="http://www.w3.org/1999/xlink">
<g id="graph0" class="graph" transform="scale(1 1) rotate(0) translate(4 803)">
<title>Urho3D::IntRect::Width</title>
<!-- Node1 -->
<g id="node1" class="node">
<title>Node1</title>
<g id="a_node1"><a xlink:title=" ">
<polygon fill="#999999" stroke="#666666" points="707,-419.5 591,-419.5 591,-400.5 707,-400.5 707,-419.5"/>
<text text-anchor="middle" x="649" y="-407.5" font-family="Roboto" font-size="10.00">Urho3D::IntRect::Width</text>
</a>
</g>
</g>
<!-- Node2 -->
<g id="node2" class="node">
<title>Node2</title>
<g id="a_node2"><a xlink:href="class_urho3_d_1_1_graphics.html#a72c254ccb779fe20b39574042ba49786" target="_top" xlink:title="Clear any or all of rendertarget, depth buffer and stencil buffer.">
<polygon fill="white" stroke="#666666" points="340,-400.5 219,-400.5 219,-381.5 340,-381.5 340,-400.5"/>
<text text-anchor="middle" x="279.5" y="-388.5" font-family="Roboto" font-size="10.00">Urho3D::Graphics::Clear</text>
</a>
</g>
</g>
<!-- Node1&#45;&gt;Node2 -->
<g id="edge1" class="edge">
<title>Node1&#45;&gt;Node2</title>
<path fill="none" stroke="#63b8ff" d="M579.44,-406.46C510.65,-402.9 405.76,-397.48 340.26,-394.09"/>
<polygon fill="#63b8ff" stroke="#63b8ff" points="578.9,-409.93 589.07,-406.95 579.26,-402.94 578.9,-409.93"/>
</g>
<!-- Node10 -->
<g id="node4" class="node">
<title>Node10</title>
<g id="a_node4"><a xlink:href="class_urho3_d_1_1_sprite_sheet2_d.html#ae5759481ecc681a18a42a0deb1dc84fb" target="_top" xlink:title="End load from PList file.">
<polygon fill="white" stroke="#666666" points="533.5,-799 412.5,-799 412.5,-769 533.5,-769 533.5,-799"/>
<text text-anchor="start" x="420.5" y="-787" font-family="Roboto" font-size="10.00">Urho3D::SpriteSheet2D</text>
<text text-anchor="middle" x="473" y="-776" font-family="Roboto" font-size="10.00">::EndLoadFromPListFile</text>
</a>
</g>
</g>
<!-- Node1&#45;&gt;Node10 -->
<g id="edge3" class="edge">
<title>Node1&#45;&gt;Node10</title>
<path fill="none" stroke="#63b8ff" d="M645.12,-431.09C635.43,-499.21 601.93,-711.72 555,-760 549.07,-766.1 541.67,-770.67 533.77,-774.08"/>
<polygon fill="#63b8ff" stroke="#63b8ff" points="648.58,-431.69 646.49,-421.3 641.64,-430.72 648.58,-431.69"/>
</g>
<!-- Node12 -->
<g id="node6" class="node">
<title>Node12</title>
<g id="a_node6"><a xlink:href="class_urho3_d_1_1_animation_set2_d.html#a3b678397fa1bdef4df12c0009df462f1" target="_top" xlink:title="Finish load scml.">
<polygon fill="white" stroke="#666666" points="536,-751 410,-751 410,-721 536,-721 536,-751"/>
<text text-anchor="start" x="418" y="-739" font-family="Roboto" font-size="10.00">Urho3D::AnimationSet2D</text>
<text text-anchor="middle" x="473" y="-728" font-family="Roboto" font-size="10.00">::EndLoadSpriter</text>
</a>
</g>
</g>
<!-- Node1&#45;&gt;Node12 -->
<g id="edge5" class="edge">
<title>Node1&#45;&gt;Node12</title>
<path fill="none" stroke="#63b8ff" d="M647.94,-430.98C646.6,-485.42 635.33,-632.52 555,-712 549.68,-717.26 543.27,-721.38 536.41,-724.6"/>
<polygon fill="#63b8ff" stroke="#63b8ff" points="651.43,-431.31 648.08,-421.26 644.43,-431.21 651.43,-431.31"/>
</g>
<!-- Node14 -->
<g id="node8" class="node">
<title>Node14</title>
<g id="a_node8"><a xlink:href="class_urho3_d_1_1_view.html#a12e115af146e183d6ac73cd2de04e39d" target="_top" xlink:title="Finalize shadow camera view after shadow casters and the shadow map are known.">
<polygon fill="white" stroke="#666666" points="354,-681 205,-681 205,-651 354,-651 354,-681"/>
<text text-anchor="start" x="213" y="-669" font-family="Roboto" font-size="10.00">Urho3D::View::FinalizeShadow</text>
<text text-anchor="middle" x="279.5" y="-658" font-family="Roboto" font-size="10.00">Camera</text>
</a>
</g>
</g>
<!-- Node1&#45;&gt;Node14 -->
<g id="edge7" class="edge">
<title>Node1&#45;&gt;Node14</title>
<path fill="none" stroke="#63b8ff" d="M645.67,-430.99C639.59,-475 618.98,-576.91 555,-626 524.43,-649.45 424.85,-659.21 354.46,-663.24"/>
<polygon fill="#63b8ff" stroke="#63b8ff" points="649.12,-431.62 646.89,-421.26 642.18,-430.75 649.12,-431.62"/>
</g>
<!-- Node24 -->
<g id="node10" class="node">
<title>Node24</title>
<g id="a_node10"><a xlink:href="class_urho3_d_1_1_sprite2_d.html#a8160551f366771876fa46090c5ee5248" target="_top" xlink:title="Return draw rectangle with custom hot spot.">
<polygon fill="white" stroke="#666666" points="540,-617 406,-617 406,-587 540,-587 540,-617"/>
<text text-anchor="start" x="414" y="-605" font-family="Roboto" font-size="10.00">Urho3D::Sprite2D::GetDraw</text>
<text text-anchor="middle" x="473" y="-594" font-family="Roboto" font-size="10.00">Rectangle</text>
</a>
</g>
</g>
<!-- Node1&#45;&gt;Node24 -->
<g id="edge10" class="edge">
<title>Node1&#45;&gt;Node24</title>
<path fill="none" stroke="#63b8ff" d="M642.27,-430.53C631.33,-465.97 604.06,-538.6 555,-578 550.54,-581.58 545.56,-584.63 540.32,-587.22"/>
<polygon fill="#63b8ff" stroke="#63b8ff" points="645.58,-431.7 645.05,-421.12 638.87,-429.72 645.58,-431.7"/>
</g>
<!-- Node25 -->
<g id="node11" class="node">
<title>Node25</title>
<g id="a_node11"><a xlink:href="class_urho3_d_1_1_viewport.html#a8c4201376e14c0703281473d43527089" target="_top" xlink:title="Return ray corresponding to normalized screen coordinates.">
<polygon fill="white" stroke="#666666" points="552.5,-568.5 393.5,-568.5 393.5,-549.5 552.5,-549.5 552.5,-568.5"/>
<text text-anchor="middle" x="473" y="-556.5" font-family="Roboto" font-size="10.00">Urho3D::Viewport::GetScreenRay</text>
</a>
</g>
</g>
<!-- Node1&#45;&gt;Node25 -->
<g id="edge11" class="edge">
<title>Node1&#45;&gt;Node25</title>
<path fill="none" stroke="#63b8ff" d="M639.56,-429.97C626.13,-459.17 597.05,-513.08 555,-541 550.08,-544.27 544.66,-546.95 539.02,-549.15"/>
<polygon fill="#63b8ff" stroke="#63b8ff" points="642.61,-431.71 643.46,-421.14 636.21,-428.87 642.61,-431.71"/>
</g>
<!-- Node26 -->
<g id="node12" class="node">
<title>Node26</title>
<g id="a_node12"><a xlink:href="class_urho3_d_1_1_image.html#af9f6ee50d0efc9445e7c96f5db36cf47" target="_top" xlink:title="Return an SDL surface from the image, or null if failed. Only RGB images are supported....">
<polygon fill="white" stroke="#666666" points="550.5,-531.5 395.5,-531.5 395.5,-512.5 550.5,-512.5 550.5,-531.5"/>
<text text-anchor="middle" x="473" y="-519.5" font-family="Roboto" font-size="10.00">Urho3D::Image::GetSDLSurface</text>
</a>
</g>
</g>
<!-- Node1&#45;&gt;Node26 -->
<g id="edge12" class="edge">
<title>Node1&#45;&gt;Node26</title>
<path fill="none" stroke="#63b8ff" d="M634.65,-428.94C618.38,-450.56 588.83,-485.31 555,-504 549.2,-507.2 542.87,-509.84 536.38,-512"/>
<polygon fill="#63b8ff" stroke="#63b8ff" points="637.38,-431.14 640.46,-421 631.73,-427.01 637.38,-431.14"/>
</g>
<!-- Node27 -->
<g id="node13" class="node">
<title>Node27</title>
<g id="a_node13"><a xlink:href="class_urho3_d_1_1_image.html#aa00356020ffcbf5ff333a6748e959b5d" target="_top" xlink:title="Return subimage from the image by the defined rect or null if failed. 3D images are not supported....">
<polygon fill="white" stroke="#666666" points="546,-494.5 400,-494.5 400,-475.5 546,-475.5 546,-494.5"/>
<text text-anchor="middle" x="473" y="-482.5" font-family="Roboto" font-size="10.00">Urho3D::Image::GetSubimage</text>
</a>
</g>
</g>
<!-- Node1&#45;&gt;Node27 -->
<g id="edge13" class="edge">
<title>Node1&#45;&gt;Node27</title>
<path fill="none" stroke="#63b8ff" d="M625.74,-426.57C607.57,-439.36 580.77,-456.58 555,-467 547.12,-470.19 538.57,-472.86 530.08,-475.09"/>
<polygon fill="#63b8ff" stroke="#63b8ff" points="627.59,-429.56 633.66,-420.88 623.5,-423.88 627.59,-429.56"/>
</g>
<!-- Node28 -->
<g id="node14" class="node">
<title>Node28</title>
<g id="a_node14"><a xlink:href="class_urho3_d_1_1_int_rect.html#a284c2c7d90a1af7c02e8c49fd217a144" target="_top" xlink:title=" ">
<polygon fill="white" stroke="#666666" points="532,-457.5 414,-457.5 414,-438.5 532,-438.5 532,-457.5"/>
<text text-anchor="middle" x="473" y="-445.5" font-family="Roboto" font-size="10.00">Urho3D::IntRect::Merge</text>
</a>
</g>
</g>
<!-- Node1&#45;&gt;Node28 -->
<g id="edge14" class="edge">
<title>Node1&#45;&gt;Node28</title>
<path fill="none" stroke="#63b8ff" d="M591.21,-422.4C568.04,-427.46 541.6,-433.24 519.71,-438.02"/>
<polygon fill="#63b8ff" stroke="#63b8ff" points="591.78,-425.86 600.8,-420.31 590.29,-419.02 591.78,-425.86"/>
</g>
<!-- Node29 -->
<g id="node15" class="node">
<title>Node29</title>
<g id="a_node15"><a xlink:href="struct_urho3_d_1_1_batch.html#ad8794a08ef43585f0c54aebf11f39e11" target="_top" xlink:title="Prepare for rendering.">
<polygon fill="#fff0f0" stroke="red" points="338,-188.5 221,-188.5 221,-169.5 338,-169.5 338,-188.5"/>
<text text-anchor="middle" x="279.5" y="-176.5" font-family="Roboto" font-size="10.00">Urho3D::Batch::Prepare</text>
</a>
</g>
</g>
<!-- Node1&#45;&gt;Node29 -->
<g id="edge15" class="edge">
<title>Node1&#45;&gt;Node29</title>
<path fill="none" stroke="#63b8ff" d="M645.64,-389.07C639.52,-345.68 618.88,-246.23 555,-201 521.35,-177.17 408.41,-175.47 338.32,-176.89"/>
<polygon fill="#63b8ff" stroke="#63b8ff" points="642.16,-389.41 646.89,-398.89 649.1,-388.53 642.16,-389.41"/>
</g>
<!-- Node36 -->
<g id="node17" class="node">
<title>Node36</title>
<g id="a_node17"><a xlink:href="class_urho3_d_1_1_view.html#a12a5286373ed1a6d3a63520e6181c6b9" target="_top" xlink:title="Quantize a directional light shadow camera view to eliminate swimming.">
<polygon fill="#fff0f0" stroke="red" points="538.5,-703 407.5,-703 407.5,-673 538.5,-673 538.5,-703"/>
<text text-anchor="start" x="415.5" y="-691" font-family="Roboto" font-size="10.00">Urho3D::View::QuantizeDir</text>
<text text-anchor="middle" x="473" y="-680" font-family="Roboto" font-size="10.00">LightShadowCamera</text>
</a>
</g>
</g>
<!-- Node1&#45;&gt;Node36 -->
<g id="edge17" class="edge">
<title>Node1&#45;&gt;Node36</title>
<path fill="none" stroke="#63b8ff" d="M646.04,-431.12C640.54,-478.49 620.75,-594.14 555,-659 549.36,-664.56 542.59,-669.06 535.39,-672.7"/>
<polygon fill="#63b8ff" stroke="#63b8ff" points="649.5,-431.72 647.06,-421.41 642.54,-430.99 649.5,-431.72"/>
</g>
<!-- Node40 -->
<g id="node18" class="node">
<title>Node40</title>
<g id="a_node18"><a xlink:href="class_urho3_d_1_1_view.html#a798fe80282652472bd0fb2c0694bbfb8" target="_top" xlink:title="Perform a quad rendering command.">
<polygon fill="#fff0f0" stroke="red" points="347,-127.5 212,-127.5 212,-108.5 347,-108.5 347,-127.5"/>
<text text-anchor="middle" x="279.5" y="-115.5" font-family="Roboto" font-size="10.00">Urho3D::View::RenderQuad</text>
</a>
</g>
</g>
<!-- Node1&#45;&gt;Node40 -->
<g id="edge19" class="edge">
<title>Node1&#45;&gt;Node40</title>
<path fill="none" stroke="#63b8ff" d="M644.62,-388.96C634.24,-327.17 600.69,-148.5 555,-115 480.25,-60.19 360.63,-90.4 307.47,-108.07"/>
<polygon fill="#63b8ff" stroke="#63b8ff" points="641.16,-389.48 646.24,-398.78 648.07,-388.35 641.16,-389.48"/>
</g>
<!-- Node41 -->
<g id="node19" class="node">
<title>Node41</title>
<g id="a_node19"><a xlink:href="class_urho3_d_1_1_graphics.html#abd08617bb78ea63930fed43edff8d3db" target="_top" xlink:title="Resolve multisampled backbuffer to a texture rendertarget. The texture&#39;s size should match the viewpo...">
<polygon fill="#fff0f0" stroke="red" points="539,-288 407,-288 407,-258 539,-258 539,-288"/>
<text text-anchor="start" x="415" y="-276" font-family="Roboto" font-size="10.00">Urho3D::Graphics::Resolve</text>
<text text-anchor="middle" x="473" y="-265" font-family="Roboto" font-size="10.00">ToTexture</text>
</a>
</g>
</g>
<!-- Node1&#45;&gt;Node41 -->
<g id="edge20" class="edge">
<title>Node1&#45;&gt;Node41</title>
<path fill="none" stroke="#63b8ff" d="M631.75,-391.84C614.03,-372.64 584.26,-342.13 555,-320 539.18,-308.04 520.04,-296.8 504.34,-288.32"/>
<polygon fill="#63b8ff" stroke="#63b8ff" points="629.09,-394.12 638.41,-399.15 634.27,-389.4 629.09,-394.12"/>
</g>
<!-- Node64 -->
<g id="node20" class="node">
<title>Node64</title>
<g id="a_node20"><a xlink:href="class_urho3_d_1_1_viewport.html#aada0c3ada21f92bac763432c8754fecd" target="_top" xlink:title="Convert screen coordinates and depth to a world space point.">
<polygon fill="#fff0f0" stroke="red" points="537,-240 409,-240 409,-210 537,-210 537,-240"/>
<text text-anchor="start" x="417" y="-228" font-family="Roboto" font-size="10.00">Urho3D::Viewport::Screen</text>
<text text-anchor="middle" x="473" y="-217" font-family="Roboto" font-size="10.00">ToWorldPoint</text>
</a>
</g>
</g>
<!-- Node1&#45;&gt;Node64 -->
<g id="edge22" class="edge">
<title>Node1&#45;&gt;Node64</title>
<path fill="none" stroke="#63b8ff" d="M641.71,-389.38C630.19,-355.07 602.41,-286.37 555,-249 549.7,-244.82 543.69,-241.37 537.4,-238.52"/>
<polygon fill="#63b8ff" stroke="#63b8ff" points="638.38,-390.44 644.77,-398.9 645.04,-388.31 638.38,-390.44"/>
</g>
<!-- Node66 -->
<g id="node21" class="node">
<title>Node66</title>
<g id="a_node21"><a xlink:href="class_urho3_d_1_1_view.html#af8780a9f8ed62181090adf6d0f71e2e8" target="_top" xlink:title="Set G&#45;buffer offset and inverse size shader parameters. Called by Batch and internally by View.">
<polygon fill="#fff0f0" stroke="red" points="537,-154 409,-154 409,-124 537,-124 537,-154"/>
<text text-anchor="start" x="417" y="-142" font-family="Roboto" font-size="10.00">Urho3D::View::SetGBuffer</text>
<text text-anchor="middle" x="473" y="-131" font-family="Roboto" font-size="10.00">ShaderParameters</text>
</a>
</g>
</g>
<!-- Node1&#45;&gt;Node66 -->
<g id="edge23" class="edge">
<title>Node1&#45;&gt;Node66</title>
<path fill="none" stroke="#63b8ff" d="M645.77,-388.85C639.78,-342.41 619.15,-230.68 555,-168 549.34,-162.47 542.55,-157.98 535.34,-154.35"/>
<polygon fill="#63b8ff" stroke="#63b8ff" points="642.28,-389.09 646.92,-398.62 649.23,-388.28 642.28,-389.09"/>
</g>
<!-- Node67 -->
<g id="node22" class="node">
<title>Node67</title>
<g id="a_node22"><a xlink:href="class_urho3_d_1_1_graphics.html#a27670beb9e90540f69da3d24da2d07bd" target="_top" xlink:title="Set scissor test.">
<polygon fill="#fff0f0" stroke="red" points="555,-381.5 391,-381.5 391,-362.5 555,-362.5 555,-381.5"/>
<text text-anchor="middle" x="473" y="-369.5" font-family="Roboto" font-size="10.00">Urho3D::Graphics::SetScissorTest</text>
</a>
</g>
</g>
<!-- Node1&#45;&gt;Node67 -->
<g id="edge26" class="edge">
<title>Node1&#45;&gt;Node67</title>
<path fill="none" stroke="#63b8ff" d="M591.21,-397.6C568.04,-392.54 541.6,-386.76 519.71,-381.98"/>
<polygon fill="#63b8ff" stroke="#63b8ff" points="590.29,-400.98 600.8,-399.69 591.78,-394.14 590.29,-400.98"/>
</g>
<!-- Node57 -->
<g id="node23" class="node">
<title>Node57</title>
<g id="a_node23"><a xlink:href="class_urho3_d_1_1_graphics.html#ad417d2adc6d3fb173ec3e3d8fefd8b48" target="_top" xlink:title="Set viewport.">
<polygon fill="#fff0f0" stroke="red" points="355,-353.5 204,-353.5 204,-334.5 355,-334.5 355,-353.5"/>
<text text-anchor="middle" x="279.5" y="-341.5" font-family="Roboto" font-size="10.00">Urho3D::Graphics::SetViewport</text>
</a>
</g>
</g>
<!-- Node1&#45;&gt;Node57 -->
<g id="edge30" class="edge">
<title>Node1&#45;&gt;Node57</title>
<path fill="none" stroke="#63b8ff" d="M627.07,-393.12C609.13,-379.75 581.98,-362.03 555,-354 489.52,-334.52 411.37,-333.71 355.24,-336.77"/>
<polygon fill="#63b8ff" stroke="#63b8ff" points="624.77,-395.77 634.83,-399.09 629.04,-390.22 624.77,-395.77"/>
</g>
<!-- Node68 -->
<g id="node24" class="node">
<title>Node68</title>
<g id="a_node24"><a xlink:href="class_urho3_d_1_1_image.html#a46a9d296c44006d85b0dd65f97515ebb" target="_top" xlink:title="Copy contents of the image into the defined rect, scaling if necessary. This image should already be ...">
<polygon fill="white" stroke="#666666" points="545.5,-67.5 400.5,-67.5 400.5,-48.5 545.5,-48.5 545.5,-67.5"/>
<text text-anchor="middle" x="473" y="-55.5" font-family="Roboto" font-size="10.00">Urho3D::Image::SetSubimage</text>
</a>
</g>
</g>
<!-- Node1&#45;&gt;Node68 -->
<g id="edge29" class="edge">
<title>Node1&#45;&gt;Node68</title>
<path fill="none" stroke="#63b8ff" d="M648.55,-388.79C648.83,-331.03 641.45,-169.47 555,-82 548.92,-75.85 541.34,-71.25 533.27,-67.83"/>
<polygon fill="#63b8ff" stroke="#63b8ff" points="645.05,-388.47 648.4,-398.52 652.05,-388.57 645.05,-388.47"/>
</g>
<!-- Node69 -->
<g id="node25" class="node">
<title>Node69</title>
<g id="a_node25"><a xlink:href="class_urho3_d_1_1_viewport.html#a5a57ee091281b06807b541d491bd5875" target="_top" xlink:title="Convert a world space point to normalized screen coordinates.">
<polygon fill="white" stroke="#666666" points="541.5,-30 404.5,-30 404.5,0 541.5,0 541.5,-30"/>
<text text-anchor="start" x="412.5" y="-18" font-family="Roboto" font-size="10.00">Urho3D::Viewport::WorldTo</text>
<text text-anchor="middle" x="473" y="-7" font-family="Roboto" font-size="10.00">ScreenPoint</text>
</a>
</g>
</g>
<!-- Node1&#45;&gt;Node69 -->
<g id="edge31" class="edge">
<title>Node1&#45;&gt;Node69</title>
<path fill="none" stroke="#63b8ff" d="M645.48,-389.04C636.59,-318.42 604.53,-90.67 555,-39 551.14,-34.98 546.65,-31.62 541.79,-28.82"/>
<polygon fill="#63b8ff" stroke="#63b8ff" points="641.99,-389.32 646.69,-398.82 648.94,-388.47 641.99,-389.32"/>
</g>
<!-- Node3 -->
<g id="node3" class="node">
<title>Node3</title>
<g id="a_node3"><a xlink:href="class_urho3_d_1_1_graphics.html#afdcde1ab06c42a77cc58fb29e4594f0c" target="_top" xlink:title=" ">
<polygon fill="#fff0f0" stroke="red" points="168,-400.5 0,-400.5 0,-381.5 168,-381.5 168,-400.5"/>
<text text-anchor="middle" x="84" y="-388.5" font-family="Roboto" font-size="10.00">Urho3D::Graphics::SetScreenMode</text>
</a>
</g>
</g>
<!-- Node2&#45;&gt;Node3 -->
<g id="edge2" class="edge">
<title>Node2&#45;&gt;Node3</title>
<path fill="none" stroke="#63b8ff" d="M207.21,-391C194.59,-391 181.35,-391 168.42,-391"/>
<polygon fill="#63b8ff" stroke="#63b8ff" points="207.09,-394.5 217.09,-391 207.09,-387.5 207.09,-394.5"/>
</g>
<!-- Node11 -->
<g id="node5" class="node">
<title>Node11</title>
<g id="a_node5"><a xlink:href="class_urho3_d_1_1_sprite_sheet2_d.html#a05ebdc87304187318050a337b2e4d4c9" target="_top" xlink:title="Finish resource loading. Always called from the main thread. Return true if successful.">
<polygon fill="white" stroke="#666666" points="338,-799 221,-799 221,-769 338,-769 338,-799"/>
<text text-anchor="start" x="229" y="-787" font-family="Roboto" font-size="10.00">Urho3D::SpriteSheet2D</text>
<text text-anchor="middle" x="279.5" y="-776" font-family="Roboto" font-size="10.00">::EndLoad</text>
</a>
</g>
</g>
<!-- Node10&#45;&gt;Node11 -->
<g id="edge4" class="edge">
<title>Node10&#45;&gt;Node11</title>
<path fill="none" stroke="#63b8ff" d="M400.91,-784C380.25,-784 357.95,-784 338.21,-784"/>
<polygon fill="#63b8ff" stroke="#63b8ff" points="400.68,-787.5 410.68,-784 400.68,-780.5 400.68,-787.5"/>
</g>
<!-- Node13 -->
<g id="node7" class="node">
<title>Node13</title>
<g id="a_node7"><a xlink:href="class_urho3_d_1_1_animation_set2_d.html#a400a05b2809c877bb5902b0ac46ccb82" target="_top" xlink:title="Finish resource loading. Always called from the main thread. Return true if successful.">
<polygon fill="white" stroke="#666666" points="342.5,-751 216.5,-751 216.5,-721 342.5,-721 342.5,-751"/>
<text text-anchor="start" x="224.5" y="-739" font-family="Roboto" font-size="10.00">Urho3D::AnimationSet2D</text>
<text text-anchor="middle" x="279.5" y="-728" font-family="Roboto" font-size="10.00">::EndLoad</text>
</a>
</g>
</g>
<!-- Node12&#45;&gt;Node13 -->
<g id="edge6" class="edge">
<title>Node12&#45;&gt;Node13</title>
<path fill="none" stroke="#63b8ff" d="M398.07,-736C379.83,-736 360.48,-736 342.85,-736"/>
<polygon fill="#63b8ff" stroke="#63b8ff" points="398.05,-739.5 408.05,-736 398.05,-732.5 398.05,-739.5"/>
</g>
<!-- Node15 -->
<g id="node9" class="node">
<title>Node15</title>
<g id="a_node9"><a xlink:href="class_urho3_d_1_1_view.html#a22d0ec09958510be31cf7e42a9d7f88f" target="_top" xlink:title="Get batches from lit geometries and shadowcasters.">
<polygon fill="#fff0f0" stroke="red" points="160,-675.5 8,-675.5 8,-656.5 160,-656.5 160,-675.5"/>
<text text-anchor="middle" x="84" y="-663.5" font-family="Roboto" font-size="10.00">Urho3D::View::GetLightBatches</text>
</a>
</g>
</g>
<!-- Node14&#45;&gt;Node15 -->
<g id="edge8" class="edge">
<title>Node14&#45;&gt;Node15</title>
<path fill="none" stroke="#63b8ff" d="M193.17,-666C182.2,-666 171.02,-666 160.22,-666"/>
<polygon fill="#63b8ff" stroke="#63b8ff" points="193,-669.5 203,-666 193,-662.5 193,-669.5"/>
</g>
<!-- Node15&#45;&gt;Node15 -->
<g id="edge9" class="edge">
<title>Node15&#45;&gt;Node15</title>
<path fill="none" stroke="#63b8ff" d="M119.37,-686.26C115.66,-690.47 103.87,-693.5 84,-693.5 49.63,-693.5 39.43,-684.44 53.39,-675.87"/>
<polygon fill="#63b8ff" stroke="#63b8ff" points="122.59,-684.87 115.24,-677.24 116.23,-687.79 122.59,-684.87"/>
</g>
<!-- Node30 -->
<g id="node16" class="node">
<title>Node30</title>
<g id="a_node16"><a xlink:href="struct_urho3_d_1_1_batch.html#add3a46f1fc8c0dd490d0cc965bec2e5b" target="_top" xlink:title="Prepare and draw.">
<polygon fill="#fff0f0" stroke="red" points="137.5,-188.5 30.5,-188.5 30.5,-169.5 137.5,-169.5 137.5,-188.5"/>
<text text-anchor="middle" x="84" y="-176.5" font-family="Roboto" font-size="10.00">Urho3D::Batch::Draw</text>
</a>
</g>
</g>
<!-- Node29&#45;&gt;Node30 -->
<g id="edge16" class="edge">
<title>Node29&#45;&gt;Node30</title>
<path fill="none" stroke="#63b8ff" d="M209.37,-179C185.84,-179 159.93,-179 137.88,-179"/>
<polygon fill="#63b8ff" stroke="#63b8ff" points="209.19,-182.5 219.19,-179 209.19,-175.5 209.19,-182.5"/>
</g>
<!-- Node36&#45;&gt;Node14 -->
<g id="edge18" class="edge">
<title>Node36&#45;&gt;Node14</title>
<path fill="none" stroke="#63b8ff" d="M395.8,-679.25C382.09,-677.67 367.81,-676.03 354.17,-674.46"/>
<polygon fill="#63b8ff" stroke="#63b8ff" points="395.33,-682.71 405.66,-680.38 396.13,-675.76 395.33,-682.71"/>
</g>
<!-- Node41&#45;&gt;Node41 -->
<g id="edge21" class="edge">
<title>Node41&#45;&gt;Node41</title>
<path fill="none" stroke="#63b8ff" d="M502.7,-299.61C497.94,-303.43 488.04,-306 473,-306 445.5,-306 435.19,-297.41 442.06,-288.28"/>
<polygon fill="#63b8ff" stroke="#63b8ff" points="506.16,-300.1 503.77,-289.78 499.2,-299.34 506.16,-300.1"/>
</g>
<!-- Node66&#45;&gt;Node29 -->
<g id="edge24" class="edge">
<title>Node66&#45;&gt;Node29</title>
<path fill="none" stroke="#63b8ff" d="M397.81,-154.5C374.42,-159.38 349.22,-164.65 328.2,-169.04"/>
<polygon fill="#63b8ff" stroke="#63b8ff" points="398.21,-157.99 407.28,-152.52 396.78,-151.14 398.21,-157.99"/>
</g>
<!-- Node66&#45;&gt;Node40 -->
<g id="edge25" class="edge">
<title>Node66&#45;&gt;Node40</title>
<path fill="none" stroke="#63b8ff" d="M397.48,-130.83C380.93,-129.01 363.5,-127.1 347.29,-125.32"/>
<polygon fill="#63b8ff" stroke="#63b8ff" points="396.94,-134.29 407.26,-131.9 397.7,-127.33 396.94,-134.29"/>
</g>
<!-- Node67&#45;&gt;Node2 -->
<g id="edge27" class="edge">
<title>Node67&#45;&gt;Node2</title>
<path fill="none" stroke="#63b8ff" d="M379.42,-381.19C366.17,-382.5 352.85,-383.82 340.45,-385.05"/>
<polygon fill="#63b8ff" stroke="#63b8ff" points="379.4,-384.71 389,-380.23 378.71,-377.74 379.4,-384.71"/>
</g>
<!-- Node67&#45;&gt;Node57 -->
<g id="edge28" class="edge">
<title>Node67&#45;&gt;Node57</title>
<path fill="none" stroke="#63b8ff" d="M392.66,-360.4C378.09,-358.27 363.01,-356.06 348.8,-353.99"/>
<polygon fill="#63b8ff" stroke="#63b8ff" points="391.78,-363.81 402.18,-361.79 392.79,-356.88 391.78,-363.81"/>
</g>
</g>
</svg>
