<?xml version="1.0" encoding="UTF-8" standalone="no"?>
<!DOCTYPE svg PUBLIC "-//W3C//DTD SVG 1.1//EN"
 "http://www.w3.org/Graphics/SVG/1.1/DTD/svg11.dtd">
<!-- Generated by graphviz version 7.0.3 (0)
 -->
<!-- Title: Urho3D::Button::Update Pages: 1 -->
<svg width="1011pt" height="224pt"
 viewBox="0.00 0.00 1011.00 223.50" xmlns="http://www.w3.org/2000/svg" xmlns:xlink="http://www.w3.org/1999/xlink">
<g id="graph0" class="graph" transform="scale(1 1) rotate(0) translate(4 219.5)">
<title>Urho3D::Button::Update</title>
<!-- Node1 -->
<g id="node1" class="node">
<title>Node1</title>
<g id="a_node1"><a xlink:title="Perform UI element update.">
<polygon fill="#999999" stroke="#666666" points="119,-61.5 0,-61.5 0,-42.5 119,-42.5 119,-61.5"/>
<text text-anchor="middle" x="59.5" y="-49.5" font-family="Roboto" font-size="10.00">Urho3D::Button::Update</text>
</a>
</g>
</g>
<!-- Node2 -->
<g id="node2" class="node">
<title>Node2</title>
<g id="a_node2"><a xlink:href="class_urho3_d_1_1_object.html#a69af51cfa67f9626273b35a6d501e03e" target="_top" xlink:title="Return a preallocated map for event data. Used for optimization to avoid constant re&#45;allocation of ev...">
<polygon fill="white" stroke="#666666" points="286.5,-128 161.5,-128 161.5,-98 286.5,-98 286.5,-128"/>
<text text-anchor="start" x="169.5" y="-116" font-family="Roboto" font-size="10.00">Urho3D::Object::GetEvent</text>
<text text-anchor="middle" x="224" y="-105" font-family="Roboto" font-size="10.00">DataMap</text>
</a>
</g>
</g>
<!-- Node1&#45;&gt;Node2 -->
<g id="edge1" class="edge">
<title>Node1&#45;&gt;Node2</title>
<path fill="none" stroke="#63b8ff" d="M86.14,-61.86C105.13,-69.14 131.65,-79.26 155,-88 159.97,-89.86 165.14,-91.78 170.32,-93.7"/>
<polygon fill="#63b8ff" stroke="#63b8ff" points="168.88,-96.9 179.47,-97.08 171.31,-90.33 168.88,-96.9"/>
</g>
<!-- Node15 -->
<g id="node15" class="node">
<title>Node15</title>
<g id="a_node15"><a xlink:href="class_urho3_d_1_1_object.html#a32020dbf77c196b9777eca479e8abb36" target="_top" xlink:title="Send event to all subscribers.">
<polygon fill="white" stroke="#666666" points="290.5,-61.5 157.5,-61.5 157.5,-42.5 290.5,-42.5 290.5,-61.5"/>
<text text-anchor="middle" x="224" y="-49.5" font-family="Roboto" font-size="10.00">Urho3D::Object::SendEvent</text>
</a>
</g>
</g>
<!-- Node1&#45;&gt;Node15 -->
<g id="edge14" class="edge">
<title>Node1&#45;&gt;Node15</title>
<path fill="none" stroke="#63b8ff" d="M119.17,-52C127.86,-52 136.93,-52 145.93,-52"/>
<polygon fill="#63b8ff" stroke="#63b8ff" points="145.74,-55.5 155.74,-52 145.74,-48.5 145.74,-55.5"/>
</g>
<!-- Node16 -->
<g id="node16" class="node">
<title>Node16</title>
<g id="a_node16"><a xlink:href="class_urho3_d_1_1_button.html#a7da6b87c3d323a912ab3e97b17c6be46" target="_top" xlink:title="Set new pressed state.">
<polygon fill="white" stroke="#666666" points="293,-24.5 155,-24.5 155,-5.5 293,-5.5 293,-24.5"/>
<text text-anchor="middle" x="224" y="-12.5" font-family="Roboto" font-size="10.00">Urho3D::Button::SetPressed</text>
</a>
</g>
</g>
<!-- Node1&#45;&gt;Node16 -->
<g id="edge16" class="edge">
<title>Node1&#45;&gt;Node16</title>
<path fill="none" stroke="#63b8ff" d="M104.05,-42.08C123.81,-37.58 147.4,-32.21 168.34,-27.45"/>
<polygon fill="#63b8ff" stroke="#63b8ff" points="168.88,-30.91 177.86,-25.28 167.33,-24.09 168.88,-30.91"/>
</g>
<!-- Node3 -->
<g id="node3" class="node">
<title>Node3</title>
<g id="a_node3"><a xlink:href="class_urho3_d_1_1_context.html#acb628095602a49ade116c4761ab44004" target="_top" xlink:title="Return a preallocated map for event data. Used for optimization to avoid constant re&#45;allocation of ev...">
<polygon fill="white" stroke="#666666" points="461,-128 329,-128 329,-98 461,-98 461,-128"/>
<text text-anchor="start" x="337" y="-116" font-family="Roboto" font-size="10.00">Urho3D::Context::GetEvent</text>
<text text-anchor="middle" x="395" y="-105" font-family="Roboto" font-size="10.00">DataMap</text>
</a>
</g>
</g>
<!-- Node2&#45;&gt;Node3 -->
<g id="edge2" class="edge">
<title>Node2&#45;&gt;Node3</title>
<path fill="none" stroke="#63b8ff" d="M286.97,-113C296.83,-113 307.12,-113 317.27,-113"/>
<polygon fill="#63b8ff" stroke="#63b8ff" points="317.12,-116.5 327.12,-113 317.12,-109.5 317.12,-116.5"/>
</g>
<!-- Node4 -->
<g id="node4" class="node">
<title>Node4</title>
<g id="a_node4"><a xlink:href="class_urho3_d_1_1_hash_map.html#ac02bdba9ea0d1055a3a75f6bae2ffc69" target="_top" xlink:title="Clear the map.">
<polygon fill="white" stroke="#666666" points="622,-122.5 497,-122.5 497,-103.5 622,-103.5 622,-122.5"/>
<text text-anchor="middle" x="559.5" y="-110.5" font-family="Roboto" font-size="10.00">Urho3D::HashMap::Clear</text>
</a>
</g>
</g>
<!-- Node3&#45;&gt;Node4 -->
<g id="edge3" class="edge">
<title>Node3&#45;&gt;Node4</title>
<path fill="none" stroke="#63b8ff" d="M461.16,-113C469.14,-113 477.34,-113 485.43,-113"/>
<polygon fill="#63b8ff" stroke="#63b8ff" points="485.24,-116.5 495.24,-113 485.24,-109.5 485.24,-116.5"/>
</g>
<!-- Node5 -->
<g id="node5" class="node">
<title>Node5</title>
<g id="a_node5"><a xlink:href="class_urho3_d_1_1_hash_map.html#a620be7ef6fc8e2958ef4f09523fd5c72" target="_top" xlink:title="Return iterator to the beginning.">
<polygon fill="white" stroke="#666666" points="795,-215.5 669,-215.5 669,-196.5 795,-196.5 795,-215.5"/>
<text text-anchor="middle" x="732" y="-203.5" font-family="Roboto" font-size="10.00">Urho3D::HashMap::Begin</text>
</a>
</g>
</g>
<!-- Node4&#45;&gt;Node5 -->
<g id="edge4" class="edge">
<title>Node4&#45;&gt;Node5</title>
<path fill="none" stroke="#63b8ff" d="M570.36,-122.89C586.96,-138.98 622.21,-170.77 658,-188 661.29,-189.59 664.74,-191.04 668.27,-192.37"/>
<polygon fill="#63b8ff" stroke="#63b8ff" points="666.98,-195.63 677.58,-195.53 669.23,-189 666.98,-195.63"/>
</g>
<!-- Node7 -->
<g id="node7" class="node">
<title>Node7</title>
<g id="a_node7"><a xlink:href="class_urho3_d_1_1_hash_map.html#a47eb201d8441d4e4be8626e615cb562d" target="_top" xlink:title="Return iterator to the end.">
<polygon fill="white" stroke="#666666" points="791.5,-178.5 672.5,-178.5 672.5,-159.5 791.5,-159.5 791.5,-178.5"/>
<text text-anchor="middle" x="732" y="-166.5" font-family="Roboto" font-size="10.00">Urho3D::HashMap::End</text>
</a>
</g>
</g>
<!-- Node4&#45;&gt;Node7 -->
<g id="edge6" class="edge">
<title>Node4&#45;&gt;Node7</title>
<path fill="none" stroke="#63b8ff" d="M583.44,-122.92C603.01,-131.14 632.02,-142.77 658,-151 663.76,-152.82 669.81,-154.57 675.88,-156.22"/>
<polygon fill="#63b8ff" stroke="#63b8ff" points="674.71,-159.53 685.27,-158.68 676.48,-152.76 674.71,-159.53"/>
</g>
<!-- Node9 -->
<g id="node9" class="node">
<title>Node9</title>
<g id="a_node9"><a xlink:href="class_urho3_d_1_1_hash_map.html#a3313b8ec65ab0b23c74570898b09175c" target="_top" xlink:title="Free a node.">
<polygon fill="white" stroke="#666666" points="805,-141.5 659,-141.5 659,-122.5 805,-122.5 805,-141.5"/>
<text text-anchor="middle" x="732" y="-129.5" font-family="Roboto" font-size="10.00">Urho3D::HashMap::FreeNode</text>
</a>
</g>
</g>
<!-- Node4&#45;&gt;Node9 -->
<g id="edge8" class="edge">
<title>Node4&#45;&gt;Node9</title>
<path fill="none" stroke="#63b8ff" d="M622.05,-119.86C630.28,-120.78 638.82,-121.73 647.34,-122.68"/>
<polygon fill="#63b8ff" stroke="#63b8ff" points="646.68,-126.12 657,-123.75 647.45,-119.17 646.68,-126.12"/>
</g>
<!-- Node10 -->
<g id="node10" class="node">
<title>Node10</title>
<g id="a_node10"><a xlink:href="class_urho3_d_1_1_hash_base.html#a2774d115a617b0d6c315132352d43c01" target="_top" xlink:title="Reset bucket head pointers.">
<polygon fill="white" stroke="#666666" points="806,-104.5 658,-104.5 658,-85.5 806,-85.5 806,-104.5"/>
<text text-anchor="middle" x="732" y="-92.5" font-family="Roboto" font-size="10.00">Urho3D::HashBase::ResetPtrs</text>
</a>
</g>
</g>
<!-- Node4&#45;&gt;Node10 -->
<g id="edge9" class="edge">
<title>Node4&#45;&gt;Node10</title>
<path fill="none" stroke="#63b8ff" d="M622.05,-106.5C629.99,-105.66 638.22,-104.79 646.45,-103.93"/>
<polygon fill="#63b8ff" stroke="#63b8ff" points="646.54,-107.44 656.12,-102.91 645.81,-100.47 646.54,-107.44"/>
</g>
<!-- Node13 -->
<g id="node13" class="node">
<title>Node13</title>
<g id="a_node13"><a xlink:href="class_urho3_d_1_1_hash_base.html#a7790b0fb5131f0e0a098e322c9198f39" target="_top" xlink:title="Set new size.">
<polygon fill="white" stroke="#666666" points="800.5,-67.5 663.5,-67.5 663.5,-48.5 800.5,-48.5 800.5,-67.5"/>
<text text-anchor="middle" x="732" y="-55.5" font-family="Roboto" font-size="10.00">Urho3D::HashBase::SetSize</text>
</a>
</g>
</g>
<!-- Node4&#45;&gt;Node13 -->
<g id="edge12" class="edge">
<title>Node4&#45;&gt;Node13</title>
<path fill="none" stroke="#63b8ff" d="M584.26,-103.06C603.83,-95.1 632.42,-83.98 658,-76 663.76,-74.2 669.83,-72.47 675.89,-70.83"/>
<polygon fill="#63b8ff" stroke="#63b8ff" points="676.5,-74.29 685.29,-68.38 674.73,-67.52 676.5,-74.29"/>
</g>
<!-- Node14 -->
<g id="node14" class="node">
<title>Node14</title>
<g id="a_node14"><a xlink:href="class_urho3_d_1_1_hash_base.html#a42b5c2ba692fe96bff763b501b8922a9" target="_top" xlink:title="Return number of elements.">
<polygon fill="white" stroke="#666666" points="793.5,-30.5 670.5,-30.5 670.5,-11.5 793.5,-11.5 793.5,-30.5"/>
<text text-anchor="middle" x="732" y="-18.5" font-family="Roboto" font-size="10.00">Urho3D::HashBase::Size</text>
</a>
</g>
</g>
<!-- Node4&#45;&gt;Node14 -->
<g id="edge13" class="edge">
<title>Node4&#45;&gt;Node14</title>
<path fill="none" stroke="#63b8ff" d="M570.38,-103.25C587.02,-87.38 622.33,-56.03 658,-39 661.46,-37.35 665.09,-35.84 668.8,-34.46"/>
<polygon fill="#63b8ff" stroke="#63b8ff" points="669.61,-37.88 677.98,-31.39 667.39,-31.24 669.61,-37.88"/>
</g>
<!-- Node6 -->
<g id="node6" class="node">
<title>Node6</title>
<g id="a_node6"><a xlink:href="class_urho3_d_1_1_hash_map.html#a992327678684d4e38150f32fc676faaf" target="_top" xlink:title="Return the head node.">
<polygon fill="white" stroke="#666666" points="985.5,-215.5 859.5,-215.5 859.5,-196.5 985.5,-196.5 985.5,-215.5"/>
<text text-anchor="middle" x="922.5" y="-203.5" font-family="Roboto" font-size="10.00">Urho3D::HashMap::Head</text>
</a>
</g>
</g>
<!-- Node5&#45;&gt;Node6 -->
<g id="edge5" class="edge">
<title>Node5&#45;&gt;Node6</title>
<path fill="none" stroke="#63b8ff" d="M795.24,-206C812.13,-206 830.58,-206 848.03,-206"/>
<polygon fill="#63b8ff" stroke="#63b8ff" points="847.81,-209.5 857.81,-206 847.81,-202.5 847.81,-209.5"/>
</g>
<!-- Node8 -->
<g id="node8" class="node">
<title>Node8</title>
<g id="a_node8"><a xlink:href="class_urho3_d_1_1_hash_map.html#ac7ee3646e27a2a7710ab5786cb0b7c73" target="_top" xlink:title="Return the tail node.">
<polygon fill="white" stroke="#666666" points="981,-178.5 864,-178.5 864,-159.5 981,-159.5 981,-178.5"/>
<text text-anchor="middle" x="922.5" y="-166.5" font-family="Roboto" font-size="10.00">Urho3D::HashMap::Tail</text>
</a>
</g>
</g>
<!-- Node7&#45;&gt;Node8 -->
<g id="edge7" class="edge">
<title>Node7&#45;&gt;Node8</title>
<path fill="none" stroke="#63b8ff" d="M791.87,-169C811.01,-169 832.43,-169 852.26,-169"/>
<polygon fill="#63b8ff" stroke="#63b8ff" points="852.21,-172.5 862.21,-169 852.21,-165.5 852.21,-172.5"/>
</g>
<!-- Node11 -->
<g id="node11" class="node">
<title>Node11</title>
<g id="a_node11"><a xlink:href="class_urho3_d_1_1_hash_base.html#af0f242c3642f60dc7cf69f3b7d24fa11" target="_top" xlink:title="Return number of buckets.">
<polygon fill="white" stroke="#666666" points="1003,-122.5 842,-122.5 842,-103.5 1003,-103.5 1003,-122.5"/>
<text text-anchor="middle" x="922.5" y="-110.5" font-family="Roboto" font-size="10.00">Urho3D::HashBase::NumBuckets</text>
</a>
</g>
</g>
<!-- Node10&#45;&gt;Node11 -->
<g id="edge10" class="edge">
<title>Node10&#45;&gt;Node11</title>
<path fill="none" stroke="#63b8ff" d="M806.42,-102.01C814.29,-102.76 822.36,-103.53 830.4,-104.3"/>
<polygon fill="#63b8ff" stroke="#63b8ff" points="829.94,-107.77 840.22,-105.24 830.6,-100.8 829.94,-107.77"/>
</g>
<!-- Node12 -->
<g id="node12" class="node">
<title>Node12</title>
<g id="a_node12"><a xlink:href="class_urho3_d_1_1_hash_base.html#ab2e9d0c50ac79b0a7eccd15b096745e9" target="_top" xlink:title="Return bucket head pointers.">
<polygon fill="white" stroke="#666666" points="984,-85.5 861,-85.5 861,-66.5 984,-66.5 984,-85.5"/>
<text text-anchor="middle" x="922.5" y="-73.5" font-family="Roboto" font-size="10.00">Urho3D::HashBase::Ptrs</text>
</a>
</g>
</g>
<!-- Node10&#45;&gt;Node12 -->
<g id="edge11" class="edge">
<title>Node10&#45;&gt;Node12</title>
<path fill="none" stroke="#63b8ff" d="M806.42,-87.6C820.61,-86.17 835.47,-84.67 849.61,-83.25"/>
<polygon fill="#63b8ff" stroke="#63b8ff" points="849.67,-86.76 859.27,-82.27 848.97,-79.79 849.67,-86.76"/>
</g>
<!-- Node15&#45;&gt;Node15 -->
<g id="edge15" class="edge">
<title>Node15&#45;&gt;Node15</title>
<path fill="none" stroke="#63b8ff" d="M198.25,-61.87C186.5,-70.44 195.08,-79.5 224,-79.5 240.27,-79.5 250.1,-76.63 253.5,-72.6"/>
<polygon fill="#63b8ff" stroke="#63b8ff" points="256.85,-71.59 250.25,-63.3 250.24,-73.89 256.85,-71.59"/>
</g>
<!-- Node17 -->
<g id="node17" class="node">
<title>Node17</title>
<g id="a_node17"><a xlink:href="class_urho3_d_1_1_u_i_element.html#a1514f8d82ab6e8a2cf10f20b807f738d" target="_top" xlink:title="Set child offset.">
<polygon fill="white" stroke="#666666" points="447.5,-30 342.5,-30 342.5,0 447.5,0 447.5,-30"/>
<text text-anchor="start" x="350.5" y="-18" font-family="Roboto" font-size="10.00">Urho3D::UIElement::</text>
<text text-anchor="middle" x="395" y="-7" font-family="Roboto" font-size="10.00">SetChildOffset</text>
</a>
</g>
</g>
<!-- Node16&#45;&gt;Node17 -->
<g id="edge17" class="edge">
<title>Node16&#45;&gt;Node17</title>
<path fill="none" stroke="#63b8ff" d="M293.25,-15C305.61,-15 318.45,-15 330.66,-15"/>
<polygon fill="#63b8ff" stroke="#63b8ff" points="330.62,-18.5 340.62,-15 330.62,-11.5 330.62,-18.5"/>
</g>
</g>
</svg>
