<?xml version="1.0" encoding="UTF-8" standalone="no"?>
<!DOCTYPE svg PUBLIC "-//W3C//DTD SVG 1.1//EN"
 "http://www.w3.org/Graphics/SVG/1.1/DTD/svg11.dtd">
<!-- Generated by graphviz version 7.0.3 (0)
 -->
<!-- Title: Urho3D::ParticleEffect Pages: 1 -->
<svg width="121pt" height="192pt"
 viewBox="0.00 0.00 121.00 192.00" xmlns="http://www.w3.org/2000/svg" xmlns:xlink="http://www.w3.org/1999/xlink">
<g id="graph0" class="graph" transform="scale(1 1) rotate(0) translate(4 188)">
<title>Urho3D::ParticleEffect</title>
<!-- Node1 -->
<g id="node1" class="node">
<title>Node1</title>
<g id="a_node1"><a xlink:title="Particle effect definition.">
<polygon fill="#999999" stroke="#666666" points="113,-19 0,-19 0,0 113,0 113,-19"/>
<text text-anchor="middle" x="56.5" y="-7" font-family="Roboto" font-size="10.00">Urho3D::ParticleEffect</text>
</a>
</g>
</g>
<!-- Node2 -->
<g id="node2" class="node">
<title>Node2</title>
<g id="a_node2"><a xlink:href="class_urho3_d_1_1_resource.html" target="_top" xlink:title=" ">
<polygon fill="white" stroke="#666666" points="104.5,-74 8.5,-74 8.5,-55 104.5,-55 104.5,-74"/>
<text text-anchor="middle" x="56.5" y="-62" font-family="Roboto" font-size="10.00">Urho3D::Resource</text>
</a>
</g>
</g>
<!-- Node2&#45;&gt;Node1 -->
<g id="edge1" class="edge">
<title>Node2&#45;&gt;Node1</title>
<path fill="none" stroke="#63b8ff" d="M56.5,-43.35C56.5,-35.1 56.5,-25.97 56.5,-19.44"/>
<polygon fill="#63b8ff" stroke="#63b8ff" points="53,-43.23 56.5,-53.23 60,-43.23 53,-43.23"/>
</g>
<!-- Node3 -->
<g id="node3" class="node">
<title>Node3</title>
<g id="a_node3"><a xlink:href="class_urho3_d_1_1_object.html" target="_top" xlink:title=" ">
<polygon fill="white" stroke="#666666" points="98,-129 15,-129 15,-110 98,-110 98,-129"/>
<text text-anchor="middle" x="56.5" y="-117" font-family="Roboto" font-size="10.00">Urho3D::Object</text>
</a>
</g>
</g>
<!-- Node3&#45;&gt;Node2 -->
<g id="edge2" class="edge">
<title>Node3&#45;&gt;Node2</title>
<path fill="none" stroke="#63b8ff" d="M56.5,-98.35C56.5,-90.1 56.5,-80.97 56.5,-74.44"/>
<polygon fill="#63b8ff" stroke="#63b8ff" points="53,-98.23 56.5,-108.23 60,-98.23 53,-98.23"/>
</g>
<!-- Node4 -->
<g id="node4" class="node">
<title>Node4</title>
<g id="a_node4"><a xlink:href="class_urho3_d_1_1_ref_counted.html" target="_top" xlink:title="Base class for intrusively reference&#45;counted objects. These are noncopyable and non&#45;assignable.">
<polygon fill="white" stroke="#666666" points="110,-184 3,-184 3,-165 110,-165 110,-184"/>
<text text-anchor="middle" x="56.5" y="-172" font-family="Roboto" font-size="10.00">Urho3D::RefCounted</text>
</a>
</g>
</g>
<!-- Node4&#45;&gt;Node3 -->
<g id="edge3" class="edge">
<title>Node4&#45;&gt;Node3</title>
<path fill="none" stroke="#63b8ff" d="M56.5,-153.35C56.5,-145.1 56.5,-135.97 56.5,-129.44"/>
<polygon fill="#63b8ff" stroke="#63b8ff" points="53,-153.23 56.5,-163.23 60,-153.23 53,-153.23"/>
</g>
</g>
</svg>
