<?xml version="1.0" encoding="UTF-8" standalone="no"?>
<!DOCTYPE svg PUBLIC "-//W3C//DTD SVG 1.1//EN"
 "http://www.w3.org/Graphics/SVG/1.1/DTD/svg11.dtd">
<!-- Generated by graphviz version 7.0.3 (0)
 -->
<!-- Title: Urho3D::TextureCube::BeginLoad Pages: 1 -->
<svg width="450pt" height="332pt"
 viewBox="0.00 0.00 450.00 332.00" xmlns="http://www.w3.org/2000/svg" xmlns:xlink="http://www.w3.org/1999/xlink">
<g id="graph0" class="graph" transform="scale(1 1) rotate(0) translate(4 328)">
<title>Urho3D::TextureCube::BeginLoad</title>
<!-- Node1 -->
<g id="node1" class="node">
<title>Node1</title>
<g id="a_node1"><a xlink:title="Load resource from stream. May be called from a worker thread. Return true if successful.">
<polygon fill="#999999" stroke="#666666" points="110,-177 0,-177 0,-147 110,-147 110,-177"/>
<text text-anchor="start" x="8" y="-165" font-family="Roboto" font-size="10.00">Urho3D::TextureCube</text>
<text text-anchor="middle" x="55" y="-154" font-family="Roboto" font-size="10.00">::BeginLoad</text>
</a>
</g>
</g>
<!-- Node2 -->
<g id="node2" class="node">
<title>Node2</title>
<g id="a_node2"><a xlink:href="class_urho3_d_1_1_string.html#a3e075eaafa63ccbe5b6f28a2ad7a50ad" target="_top" xlink:title="Return the C string.">
<polygon fill="white" stroke="#666666" points="442,-140.5 325,-140.5 325,-121.5 442,-121.5 442,-140.5"/>
<text text-anchor="middle" x="383.5" y="-128.5" font-family="Roboto" font-size="10.00">Urho3D::String::CString</text>
</a>
</g>
</g>
<!-- Node1&#45;&gt;Node2 -->
<g id="edge1" class="edge">
<title>Node1&#45;&gt;Node2</title>
<path fill="none" stroke="#63b8ff" d="M110.21,-158.29C157.47,-154.89 227.85,-149.41 289,-143 296.94,-142.17 305.26,-141.21 313.51,-140.22"/>
<polygon fill="#63b8ff" stroke="#63b8ff" points="313.69,-143.72 323.19,-139.03 312.84,-136.78 313.69,-143.72"/>
</g>
<!-- Node3 -->
<g id="node3" class="node">
<title>Node3</title>
<g id="a_node3"><a xlink:href="class_urho3_d_1_1_string.html#a8413f000551027cd127996e3c5b00185" target="_top" xlink:title=" ">
<polygon fill="white" stroke="#666666" points="274,-257.5 161,-257.5 161,-238.5 274,-238.5 274,-257.5"/>
<text text-anchor="middle" x="217.5" y="-245.5" font-family="Roboto" font-size="10.00">Urho3D::String::Empty</text>
</a>
</g>
</g>
<!-- Node1&#45;&gt;Node3 -->
<g id="edge2" class="edge">
<title>Node1&#45;&gt;Node3</title>
<path fill="none" stroke="#63b8ff" d="M72.65,-177.46C89.81,-192.63 117.96,-215.4 146,-229 150.17,-231.02 154.59,-232.86 159.1,-234.51"/>
<polygon fill="#63b8ff" stroke="#63b8ff" points="157.68,-237.73 168.27,-237.58 159.9,-231.09 157.68,-237.73"/>
</g>
<!-- Node4 -->
<g id="node4" class="node">
<title>Node4</title>
<g id="a_node4"><a xlink:href="class_urho3_d_1_1_resource.html#a35f0e2447dcc25e8f3b9e42e10b69737" target="_top" xlink:title="Return the asynchronous loading state.">
<polygon fill="white" stroke="#666666" points="289,-220 146,-220 146,-190 289,-190 289,-220"/>
<text text-anchor="start" x="154" y="-208" font-family="Roboto" font-size="10.00">Urho3D::Resource::GetAsync</text>
<text text-anchor="middle" x="217.5" y="-197" font-family="Roboto" font-size="10.00">LoadState</text>
</a>
</g>
</g>
<!-- Node1&#45;&gt;Node4 -->
<g id="edge3" class="edge">
<title>Node1&#45;&gt;Node4</title>
<path fill="none" stroke="#63b8ff" d="M110.34,-176.56C122.37,-179.78 135.26,-183.24 147.78,-186.59"/>
<polygon fill="#63b8ff" stroke="#63b8ff" points="146.62,-189.9 157.19,-189.11 148.43,-183.14 146.62,-189.9"/>
</g>
<!-- Node5 -->
<g id="node5" class="node">
<title>Node5</title>
<g id="a_node5"><a xlink:href="class_urho3_d_1_1_x_m_l_element.html#a6de3d4f87f59ced8e52fa31f3a83873c" target="_top" xlink:title="Return attribute, or empty if missing.">
<polygon fill="white" stroke="#666666" points="273,-30 162,-30 162,0 273,0 273,-30"/>
<text text-anchor="start" x="170" y="-18" font-family="Roboto" font-size="10.00">Urho3D::XMLElement</text>
<text text-anchor="middle" x="217.5" y="-7" font-family="Roboto" font-size="10.00">::GetAttribute</text>
</a>
</g>
</g>
<!-- Node1&#45;&gt;Node5 -->
<g id="edge4" class="edge">
<title>Node1&#45;&gt;Node5</title>
<path fill="none" stroke="#63b8ff" d="M63.19,-146.81C76.16,-120.98 105.91,-68.45 146,-39 147.8,-37.68 149.67,-36.43 151.61,-35.24"/>
<polygon fill="#63b8ff" stroke="#63b8ff" points="153.19,-38.37 160.35,-30.56 149.88,-32.19 153.19,-38.37"/>
</g>
<!-- Node7 -->
<g id="node7" class="node">
<title>Node7</title>
<g id="a_node7"><a xlink:href="class_urho3_d_1_1_x_m_l_element.html#abb0379163b8d534a37e24740a4e0cd0f" target="_top" xlink:title="Return child element, or null if missing.">
<polygon fill="white" stroke="#666666" points="273,-116 162,-116 162,-86 273,-86 273,-116"/>
<text text-anchor="start" x="170" y="-104" font-family="Roboto" font-size="10.00">Urho3D::XMLElement</text>
<text text-anchor="middle" x="217.5" y="-93" font-family="Roboto" font-size="10.00">::GetChild</text>
</a>
</g>
</g>
<!-- Node1&#45;&gt;Node7 -->
<g id="edge7" class="edge">
<title>Node1&#45;&gt;Node7</title>
<path fill="none" stroke="#63b8ff" d="M96.5,-146.61C117.33,-138.69 142.94,-128.96 165.14,-120.52"/>
<polygon fill="#63b8ff" stroke="#63b8ff" points="166.21,-123.86 174.32,-117.03 163.73,-117.31 166.21,-123.86"/>
</g>
<!-- Node8 -->
<g id="node8" class="node">
<title>Node8</title>
<g id="a_node8"><a xlink:href="class_urho3_d_1_1_resource.html#aa6fcd2703fb5cb0e1cb6bb57b9590599" target="_top" xlink:title=" ">
<polygon fill="white" stroke="#666666" points="289,-67.5 146,-67.5 146,-48.5 289,-48.5 289,-67.5"/>
<text text-anchor="middle" x="217.5" y="-55.5" font-family="Roboto" font-size="10.00">Urho3D::Resource::GetName</text>
</a>
</g>
</g>
<!-- Node1&#45;&gt;Node8 -->
<g id="edge10" class="edge">
<title>Node1&#45;&gt;Node8</title>
<path fill="none" stroke="#63b8ff" d="M68.01,-146.71C83.86,-127.59 113.55,-95.15 146,-77 149.37,-75.12 152.93,-73.41 156.59,-71.87"/>
<polygon fill="#63b8ff" stroke="#63b8ff" points="157.54,-75.25 165.69,-68.48 155.09,-68.7 157.54,-75.25"/>
</g>
<!-- Node9 -->
<g id="node9" class="node">
<title>Node9</title>
<g id="a_node9"><a xlink:href="class_urho3_d_1_1_x_m_l_element.html#a9aafd5a9e7302bcda8cf64b0664b588b" target="_top" xlink:title="Return next sibling element.">
<polygon fill="white" stroke="#666666" points="273,-306 162,-306 162,-276 273,-276 273,-306"/>
<text text-anchor="start" x="170" y="-294" font-family="Roboto" font-size="10.00">Urho3D::XMLElement</text>
<text text-anchor="middle" x="217.5" y="-283" font-family="Roboto" font-size="10.00">::GetNext</text>
</a>
</g>
</g>
<!-- Node1&#45;&gt;Node9 -->
<g id="edge11" class="edge">
<title>Node1&#45;&gt;Node9</title>
<path fill="none" stroke="#63b8ff" d="M65.38,-177.48C79.92,-200.24 110.01,-242.64 146,-267 147.81,-268.22 149.68,-269.39 151.61,-270.5"/>
<polygon fill="#63b8ff" stroke="#63b8ff" points="149.74,-273.48 160.24,-274.92 152.94,-267.25 149.74,-273.48"/>
</g>
<!-- Node5&#45;&gt;Node2 -->
<g id="edge5" class="edge">
<title>Node5&#45;&gt;Node2</title>
<path fill="none" stroke="#63b8ff" d="M272.4,-30.49C278.18,-32.98 283.83,-35.81 289,-39 321.29,-58.92 351.16,-91.88 368.07,-112.47"/>
<polygon fill="#63b8ff" stroke="#63b8ff" points="365.16,-114.43 374.15,-120.04 370.62,-110.05 365.16,-114.43"/>
</g>
<!-- Node6 -->
<g id="node6" class="node">
<title>Node6</title>
<g id="a_node6"><a xlink:href="class_urho3_d_1_1_x_m_l_element.html#afd561acf36305fd70cf86f60f666798f" target="_top" xlink:title="Return attribute as C string, or null if missing.">
<polygon fill="white" stroke="#666666" points="439,-30 328,-30 328,0 439,0 439,-30"/>
<text text-anchor="start" x="336" y="-18" font-family="Roboto" font-size="10.00">Urho3D::XMLElement</text>
<text text-anchor="middle" x="383.5" y="-7" font-family="Roboto" font-size="10.00">::GetAttributeCString</text>
</a>
</g>
</g>
<!-- Node5&#45;&gt;Node6 -->
<g id="edge6" class="edge">
<title>Node5&#45;&gt;Node6</title>
<path fill="none" stroke="#63b8ff" d="M273.11,-15C286.93,-15 301.93,-15 316.26,-15"/>
<polygon fill="#63b8ff" stroke="#63b8ff" points="316.06,-18.5 326.06,-15 316.06,-11.5 316.06,-18.5"/>
</g>
<!-- Node7&#45;&gt;Node2 -->
<g id="edge8" class="edge">
<title>Node7&#45;&gt;Node2</title>
<path fill="none" stroke="#63b8ff" d="M273.11,-110.99C287.14,-113.56 302.39,-116.35 316.91,-119"/>
<polygon fill="#63b8ff" stroke="#63b8ff" points="315.89,-122.37 326.36,-120.73 317.15,-115.49 315.89,-122.37"/>
</g>
<!-- Node7&#45;&gt;Node7 -->
<g id="edge9" class="edge">
<title>Node7&#45;&gt;Node7</title>
<path fill="none" stroke="#63b8ff" d="M188.94,-116.28C182.59,-125.41 192.11,-134 217.5,-134 231.39,-134 240.52,-131.43 244.92,-127.61"/>
<polygon fill="#63b8ff" stroke="#63b8ff" points="248.39,-128.08 245.91,-117.78 241.42,-127.38 248.39,-128.08"/>
</g>
<!-- Node9&#45;&gt;Node2 -->
<g id="edge12" class="edge">
<title>Node9&#45;&gt;Node2</title>
<path fill="none" stroke="#63b8ff" d="M273.42,-276.3C278.95,-273.67 284.26,-270.59 289,-267 330.33,-235.69 359.95,-180.68 373.77,-151.13"/>
<polygon fill="#63b8ff" stroke="#63b8ff" points="376.87,-152.75 377.8,-142.2 370.49,-149.87 376.87,-152.75"/>
</g>
<!-- Node9&#45;&gt;Node9 -->
<g id="edge13" class="edge">
<title>Node9&#45;&gt;Node9</title>
<path fill="none" stroke="#63b8ff" d="M188.94,-306.28C182.59,-315.41 192.11,-324 217.5,-324 231.39,-324 240.52,-321.43 244.92,-317.61"/>
<polygon fill="#63b8ff" stroke="#63b8ff" points="248.39,-318.08 245.91,-307.78 241.42,-317.38 248.39,-318.08"/>
</g>
</g>
</svg>
