<?xml version="1.0" encoding="UTF-8" standalone="no"?>
<!DOCTYPE svg PUBLIC "-//W3C//DTD SVG 1.1//EN"
 "http://www.w3.org/Graphics/SVG/1.1/DTD/svg11.dtd">
<!-- Generated by graphviz version 7.0.3 (0)
 -->
<!-- Title: Urho3D::Skeleton::GetNumBones Pages: 1 -->
<svg width="831pt" height="452pt"
 viewBox="0.00 0.00 831.00 452.00" xmlns="http://www.w3.org/2000/svg" xmlns:xlink="http://www.w3.org/1999/xlink">
<g id="graph0" class="graph" transform="scale(1 1) rotate(0) translate(4 448)">
<title>Urho3D::Skeleton::GetNumBones</title>
<!-- Node1 -->
<g id="node1" class="node">
<title>Node1</title>
<g id="a_node1"><a xlink:title=" ">
<polygon fill="#999999" stroke="#666666" points="823,-255 689,-255 689,-225 823,-225 823,-255"/>
<text text-anchor="start" x="697" y="-243" font-family="Roboto" font-size="10.00">Urho3D::Skeleton::GetNum</text>
<text text-anchor="middle" x="756" y="-232" font-family="Roboto" font-size="10.00">Bones</text>
</a>
</g>
</g>
<!-- Node2 -->
<g id="node2" class="node">
<title>Node2</title>
<g id="a_node2"><a xlink:href="class_urho3_d_1_1_animated_model.html#a849cb76532b41588869360da17a823c9" target="_top" xlink:title="Add an animation.">
<polygon fill="white" stroke="#666666" points="644,-444 518,-444 518,-414 644,-414 644,-444"/>
<text text-anchor="start" x="526" y="-432" font-family="Roboto" font-size="10.00">Urho3D::AnimatedModel</text>
<text text-anchor="middle" x="581" y="-421" font-family="Roboto" font-size="10.00">::AddAnimationState</text>
</a>
</g>
</g>
<!-- Node1&#45;&gt;Node2 -->
<g id="edge1" class="edge">
<title>Node1&#45;&gt;Node2</title>
<path fill="none" stroke="#63b8ff" d="M745.59,-265.83C731.14,-302.01 700.1,-367.56 653,-405 648.82,-408.32 644.16,-411.19 639.28,-413.67"/>
<polygon fill="#63b8ff" stroke="#63b8ff" points="748.82,-267.18 749.16,-256.59 742.29,-264.66 748.82,-267.18"/>
</g>
<!-- Node3 -->
<g id="node3" class="node">
<title>Node3</title>
<g id="a_node3"><a xlink:href="class_urho3_d_1_1_decal_set.html#a70a16cdcd0674837b6b2338f94f476b8" target="_top" xlink:title="Add a decal at world coordinates, using a target drawable&#39;s geometry for reference....">
<polygon fill="white" stroke="#666666" points="652,-377.5 510,-377.5 510,-358.5 652,-358.5 652,-377.5"/>
<text text-anchor="middle" x="581" y="-365.5" font-family="Roboto" font-size="10.00">Urho3D::DecalSet::AddDecal</text>
</a>
</g>
</g>
<!-- Node1&#45;&gt;Node3 -->
<g id="edge2" class="edge">
<title>Node1&#45;&gt;Node3</title>
<path fill="none" stroke="#63b8ff" d="M738.66,-264.69C720.66,-289.93 689.38,-328.41 653,-350 647.53,-353.25 641.49,-355.91 635.31,-358.1"/>
<polygon fill="#63b8ff" stroke="#63b8ff" points="741.42,-266.86 744.25,-256.65 735.67,-262.86 741.42,-266.86"/>
</g>
<!-- Node4 -->
<g id="node4" class="node">
<title>Node4</title>
<g id="a_node4"><a xlink:href="class_urho3_d_1_1_model.html#abc42a5abe2c69533897bdcd28c8b5f51" target="_top" xlink:title="Load resource from stream. May be called from a worker thread. Return true if successful.">
<polygon fill="white" stroke="#666666" points="648,-340.5 514,-340.5 514,-321.5 648,-321.5 648,-340.5"/>
<text text-anchor="middle" x="581" y="-328.5" font-family="Roboto" font-size="10.00">Urho3D::Model::BeginLoad</text>
</a>
</g>
</g>
<!-- Node1&#45;&gt;Node4 -->
<g id="edge4" class="edge">
<title>Node1&#45;&gt;Node4</title>
<path fill="none" stroke="#63b8ff" d="M728.74,-262.49C709.04,-278.34 680.79,-298.98 653,-312 645.37,-315.57 636.96,-318.57 628.67,-321.04"/>
<polygon fill="#63b8ff" stroke="#63b8ff" points="730.74,-265.38 736.25,-256.33 726.3,-259.97 730.74,-265.38"/>
</g>
<!-- Node5 -->
<g id="node5" class="node">
<title>Node5</title>
<g id="a_node5"><a xlink:href="class_urho3_d_1_1_animated_model.html#a8a8f8a073acd87e16d3d87558ae74d7d" target="_top" xlink:title="Handle node transform being dirtied.">
<polygon fill="white" stroke="#666666" points="644,-303 518,-303 518,-273 644,-273 644,-303"/>
<text text-anchor="start" x="526" y="-291" font-family="Roboto" font-size="10.00">Urho3D::AnimatedModel</text>
<text text-anchor="middle" x="581" y="-280" font-family="Roboto" font-size="10.00">::OnMarkedDirty</text>
</a>
</g>
</g>
<!-- Node1&#45;&gt;Node5 -->
<g id="edge5" class="edge">
<title>Node1&#45;&gt;Node5</title>
<path fill="none" stroke="#63b8ff" d="M688.45,-258.46C671.65,-263.13 653.78,-268.08 637.59,-272.58"/>
<polygon fill="#63b8ff" stroke="#63b8ff" points="689.15,-261.9 697.85,-255.86 687.28,-255.16 689.15,-261.9"/>
</g>
<!-- Node6 -->
<g id="node6" class="node">
<title>Node6</title>
<g id="a_node6"><a xlink:href="class_urho3_d_1_1_animated_model.html#a21938736faaa6f521e4e58bc964367e2" target="_top" xlink:title="Process octree raycast. May be called from a worker thread.">
<polygon fill="white" stroke="#666666" points="644,-255 518,-255 518,-225 644,-225 644,-255"/>
<text text-anchor="start" x="526" y="-243" font-family="Roboto" font-size="10.00">Urho3D::AnimatedModel</text>
<text text-anchor="middle" x="581" y="-232" font-family="Roboto" font-size="10.00">::ProcessRayQuery</text>
</a>
</g>
</g>
<!-- Node1&#45;&gt;Node6 -->
<g id="edge6" class="edge">
<title>Node1&#45;&gt;Node6</title>
<path fill="none" stroke="#63b8ff" d="M677.2,-240C666.16,-240 654.93,-240 644.24,-240"/>
<polygon fill="#63b8ff" stroke="#63b8ff" points="677.09,-243.5 687.09,-240 677.09,-236.5 677.09,-243.5"/>
</g>
<!-- Node7 -->
<g id="node7" class="node">
<title>Node7</title>
<g id="a_node7"><a xlink:href="class_urho3_d_1_1_animated_model.html#a032b06b55cb0a8c810858d914284f70e" target="_top" xlink:title="Set mapping of subgeometry bone indices.">
<polygon fill="white" stroke="#666666" points="653,-207 509,-207 509,-177 653,-177 653,-207"/>
<text text-anchor="start" x="517" y="-195" font-family="Roboto" font-size="10.00">Urho3D::AnimatedModel</text>
<text text-anchor="middle" x="581" y="-184" font-family="Roboto" font-size="10.00">::SetGeometryBoneMappings</text>
</a>
</g>
</g>
<!-- Node1&#45;&gt;Node7 -->
<g id="edge7" class="edge">
<title>Node1&#45;&gt;Node7</title>
<path fill="none" stroke="#63b8ff" d="M688.45,-221.54C671.65,-216.87 653.78,-211.92 637.59,-207.42"/>
<polygon fill="#63b8ff" stroke="#63b8ff" points="687.28,-224.84 697.85,-224.14 689.15,-218.1 687.28,-224.84"/>
</g>
<!-- Node8 -->
<g id="node8" class="node">
<title>Node8</title>
<g id="a_node8"><a xlink:href="class_urho3_d_1_1_animated_model.html#a67a9794df35c334b050f689bb706847a" target="_top" xlink:title="Set model.">
<polygon fill="white" stroke="#666666" points="473,-188 347,-188 347,-158 473,-158 473,-188"/>
<text text-anchor="start" x="355" y="-176" font-family="Roboto" font-size="10.00">Urho3D::AnimatedModel</text>
<text text-anchor="middle" x="410" y="-165" font-family="Roboto" font-size="10.00">::SetModel</text>
</a>
</g>
</g>
<!-- Node1&#45;&gt;Node8 -->
<g id="edge13" class="edge">
<title>Node1&#45;&gt;Node8</title>
<path fill="none" stroke="#63b8ff" d="M731.35,-216.81C712.06,-199.61 683.14,-177.57 653,-168 594.22,-149.34 523.31,-153.72 473.49,-160.85"/>
<polygon fill="#63b8ff" stroke="#63b8ff" points="728.92,-219.33 738.65,-223.52 733.66,-214.17 728.92,-219.33"/>
</g>
<!-- Node12 -->
<g id="node12" class="node">
<title>Node12</title>
<g id="a_node12"><a xlink:href="class_urho3_d_1_1_animated_model.html#aeae317724517abf074f05f2c2c411697" target="_top" xlink:title="Set skeleton.">
<polygon fill="white" stroke="#666666" points="644,-121 518,-121 518,-91 644,-91 644,-121"/>
<text text-anchor="start" x="526" y="-109" font-family="Roboto" font-size="10.00">Urho3D::AnimatedModel</text>
<text text-anchor="middle" x="581" y="-98" font-family="Roboto" font-size="10.00">::SetSkeleton</text>
</a>
</g>
</g>
<!-- Node1&#45;&gt;Node12 -->
<g id="edge14" class="edge">
<title>Node1&#45;&gt;Node12</title>
<path fill="none" stroke="#63b8ff" d="M736.31,-215.59C717.41,-192.29 686.32,-157.5 653,-135 645.28,-129.78 636.47,-125.25 627.74,-121.42"/>
<polygon fill="#63b8ff" stroke="#63b8ff" points="733.49,-217.67 742.45,-223.32 738.97,-213.31 733.49,-217.67"/>
</g>
<!-- Node15 -->
<g id="node15" class="node">
<title>Node15</title>
<g id="a_node15"><a xlink:href="class_urho3_d_1_1_animated_model.html#ab6505918614fd80f5621e2a36abd2cf2" target="_top" xlink:title="Recalculate the bone bounding box. Normally called internally, but can also be manually called if up&#45;...">
<polygon fill="white" stroke="#666666" points="647.5,-73 514.5,-73 514.5,-43 647.5,-43 647.5,-73"/>
<text text-anchor="start" x="522.5" y="-61" font-family="Roboto" font-size="10.00">Urho3D::AnimatedModel</text>
<text text-anchor="middle" x="581" y="-50" font-family="Roboto" font-size="10.00">::UpdateBoneBoundingBox</text>
</a>
</g>
</g>
<!-- Node1&#45;&gt;Node15 -->
<g id="edge18" class="edge">
<title>Node1&#45;&gt;Node15</title>
<path fill="none" stroke="#63b8ff" d="M744.84,-214.21C729.85,-179.35 698.56,-117.48 653,-82 648.79,-78.72 644.11,-75.88 639.21,-73.41"/>
<polygon fill="#63b8ff" stroke="#63b8ff" points="741.48,-215.23 748.55,-223.11 747.94,-212.54 741.48,-215.23"/>
</g>
<!-- Node3&#45;&gt;Node3 -->
<g id="edge3" class="edge">
<title>Node3&#45;&gt;Node3</title>
<path fill="none" stroke="#63b8ff" d="M611.66,-388.6C608.13,-392.63 597.91,-395.5 581,-395.5 550.94,-395.5 542.02,-386.44 554.23,-377.87"/>
<polygon fill="#63b8ff" stroke="#63b8ff" points="614.99,-387.5 608.29,-379.29 608.41,-389.89 614.99,-387.5"/>
</g>
<!-- Node7&#45;&gt;Node8 -->
<g id="edge8" class="edge">
<title>Node7&#45;&gt;Node8</title>
<path fill="none" stroke="#63b8ff" d="M497.38,-182.71C489.26,-181.8 481.12,-180.88 473.25,-180"/>
<polygon fill="#63b8ff" stroke="#63b8ff" points="496.99,-186.19 507.31,-183.83 497.77,-179.23 496.99,-186.19"/>
</g>
<!-- Node9 -->
<g id="node9" class="node">
<title>Node9</title>
<g id="a_node9"><a xlink:href="class_urho3_d_1_1_animated_model.html#af6af95070304f3ecca53d9dee1ce63ad" target="_top" xlink:title="Handle model reload finished.">
<polygon fill="white" stroke="#666666" points="311,-217 162,-217 162,-187 311,-187 311,-217"/>
<text text-anchor="start" x="170" y="-205" font-family="Roboto" font-size="10.00">Urho3D::AnimatedModel</text>
<text text-anchor="middle" x="236.5" y="-194" font-family="Roboto" font-size="10.00">::HandleModelReloadFinished</text>
</a>
</g>
</g>
<!-- Node8&#45;&gt;Node9 -->
<g id="edge9" class="edge">
<title>Node8&#45;&gt;Node9</title>
<path fill="none" stroke="#63b8ff" d="M335.47,-178.74C320.76,-181.08 305.56,-183.78 291.64,-186.52"/>
<polygon fill="#63b8ff" stroke="#63b8ff" points="335.75,-182.24 345.1,-177.26 334.69,-175.32 335.75,-182.24"/>
</g>
<!-- Node10 -->
<g id="node10" class="node">
<title>Node10</title>
<g id="a_node10"><a xlink:href="class_urho3_d_1_1_animated_model.html#a4bcb1159367b1b112ba751b0b5747f59" target="_top" xlink:title="Set model attribute.">
<polygon fill="white" stroke="#666666" points="299.5,-169 173.5,-169 173.5,-139 299.5,-139 299.5,-169"/>
<text text-anchor="start" x="181.5" y="-157" font-family="Roboto" font-size="10.00">Urho3D::AnimatedModel</text>
<text text-anchor="middle" x="236.5" y="-146" font-family="Roboto" font-size="10.00">::SetModelAttr</text>
</a>
</g>
</g>
<!-- Node8&#45;&gt;Node10 -->
<g id="edge11" class="edge">
<title>Node8&#45;&gt;Node10</title>
<path fill="none" stroke="#63b8ff" d="M335.38,-164.84C323.54,-163.53 311.39,-162.19 299.85,-160.91"/>
<polygon fill="#63b8ff" stroke="#63b8ff" points="334.77,-168.3 345.1,-165.92 335.54,-161.34 334.77,-168.3"/>
</g>
<!-- Node9&#45;&gt;Node8 -->
<g id="edge10" class="edge">
<title>Node9&#45;&gt;Node8</title>
<path fill="none" stroke="#63b8ff" d="M322.36,-194.4C333.54,-192.52 344.75,-190.48 355.21,-188.41"/>
<polygon fill="#63b8ff" stroke="#63b8ff" points="322.01,-190.91 312.71,-195.98 323.14,-197.82 322.01,-190.91"/>
</g>
<!-- Node11 -->
<g id="node11" class="node">
<title>Node11</title>
<g id="a_node11"><a xlink:href="class_urho3_d_1_1_animated_model.html#a76a01a86a9b1bcca181bfe91ae0e4a95" target="_top" xlink:title=" ">
<polygon fill="white" stroke="#666666" points="126,-169 0,-169 0,-139 126,-139 126,-169"/>
<text text-anchor="start" x="8" y="-157" font-family="Roboto" font-size="10.00">Urho3D::AnimatedModel</text>
<text text-anchor="middle" x="63" y="-146" font-family="Roboto" font-size="10.00">::RegisterObject</text>
</a>
</g>
</g>
<!-- Node10&#45;&gt;Node11 -->
<g id="edge12" class="edge">
<title>Node10&#45;&gt;Node11</title>
<path fill="none" stroke="#63b8ff" d="M161.88,-154C150.04,-154 137.89,-154 126.35,-154"/>
<polygon fill="#63b8ff" stroke="#63b8ff" points="161.59,-157.5 171.59,-154 161.59,-150.5 161.59,-157.5"/>
</g>
<!-- Node12&#45;&gt;Node8 -->
<g id="edge17" class="edge">
<title>Node12&#45;&gt;Node8</title>
<path fill="none" stroke="#63b8ff" d="M530.57,-125.6C504.85,-135.79 473.87,-148.08 449.88,-157.58"/>
<polygon fill="#63b8ff" stroke="#63b8ff" points="531.81,-128.87 539.82,-121.93 529.23,-122.36 531.81,-128.87"/>
</g>
<!-- Node13 -->
<g id="node13" class="node">
<title>Node13</title>
<g id="a_node13"><a xlink:href="class_urho3_d_1_1_animated_model.html#a1a9c66f9b072816093f73d60e5b58f62" target="_top" xlink:title="Assign skeleton and animation bone node references as a postprocess. Called by ApplyAttributes.">
<polygon fill="white" stroke="#666666" points="473,-121 347,-121 347,-91 473,-91 473,-121"/>
<text text-anchor="start" x="355" y="-109" font-family="Roboto" font-size="10.00">Urho3D::AnimatedModel</text>
<text text-anchor="middle" x="410" y="-98" font-family="Roboto" font-size="10.00">::AssignBoneNodes</text>
</a>
</g>
</g>
<!-- Node12&#45;&gt;Node13 -->
<g id="edge15" class="edge">
<title>Node12&#45;&gt;Node13</title>
<path fill="none" stroke="#63b8ff" d="M506.27,-106C495.33,-106 484.15,-106 473.47,-106"/>
<polygon fill="#63b8ff" stroke="#63b8ff" points="506.04,-109.5 516.04,-106 506.04,-102.5 506.04,-109.5"/>
</g>
<!-- Node14 -->
<g id="node14" class="node">
<title>Node14</title>
<g id="a_node14"><a xlink:href="class_urho3_d_1_1_animated_model.html#a92285931ef13f7c032bb04a7799d5970" target="_top" xlink:title="Apply attribute changes that can not be applied immediately. Called after scene load or a network upd...">
<polygon fill="white" stroke="#666666" points="299.5,-121 173.5,-121 173.5,-91 299.5,-91 299.5,-121"/>
<text text-anchor="start" x="181.5" y="-109" font-family="Roboto" font-size="10.00">Urho3D::AnimatedModel</text>
<text text-anchor="middle" x="236.5" y="-98" font-family="Roboto" font-size="10.00">::ApplyAttributes</text>
</a>
</g>
</g>
<!-- Node13&#45;&gt;Node14 -->
<g id="edge16" class="edge">
<title>Node13&#45;&gt;Node14</title>
<path fill="none" stroke="#63b8ff" d="M335.38,-106C323.54,-106 311.39,-106 299.85,-106"/>
<polygon fill="#63b8ff" stroke="#63b8ff" points="335.09,-109.5 345.09,-106 335.09,-102.5 335.09,-109.5"/>
</g>
<!-- Node16 -->
<g id="node16" class="node">
<title>Node16</title>
<g id="a_node16"><a xlink:href="class_urho3_d_1_1_animated_model.html#ae9b801066aad3b39204f6c72507e3ac8" target="_top" xlink:title="Apply all animation states to nodes.">
<polygon fill="white" stroke="#666666" points="473,-73 347,-73 347,-43 473,-43 473,-73"/>
<text text-anchor="start" x="355" y="-61" font-family="Roboto" font-size="10.00">Urho3D::AnimatedModel</text>
<text text-anchor="middle" x="410" y="-50" font-family="Roboto" font-size="10.00">::ApplyAnimation</text>
</a>
</g>
</g>
<!-- Node15&#45;&gt;Node16 -->
<g id="edge19" class="edge">
<title>Node15&#45;&gt;Node16</title>
<path fill="none" stroke="#63b8ff" d="M502.71,-58C492.87,-58 482.89,-58 473.32,-58"/>
<polygon fill="#63b8ff" stroke="#63b8ff" points="502.66,-61.5 512.66,-58 502.66,-54.5 502.66,-61.5"/>
</g>
<!-- Node18 -->
<g id="node18" class="node">
<title>Node18</title>
<g id="a_node18"><a xlink:href="class_urho3_d_1_1_animated_model.html#a4ddbe87cb65a57aadbd52a611fccea8b" target="_top" xlink:title="Update before octree reinsertion. Is called from a worker thread.">
<polygon fill="white" stroke="#666666" points="126,-30 0,-30 0,0 126,0 126,-30"/>
<text text-anchor="start" x="8" y="-18" font-family="Roboto" font-size="10.00">Urho3D::AnimatedModel</text>
<text text-anchor="middle" x="63" y="-7" font-family="Roboto" font-size="10.00">::Update</text>
</a>
</g>
</g>
<!-- Node15&#45;&gt;Node18 -->
<g id="edge23" class="edge">
<title>Node15&#45;&gt;Node18</title>
<path fill="none" stroke="#63b8ff" d="M508.37,-40.13C496.61,-37.72 484.51,-35.55 473,-34 350.94,-17.6 206.77,-14.7 126.32,-14.53"/>
<polygon fill="#63b8ff" stroke="#63b8ff" points="507.51,-43.53 518.02,-42.19 508.97,-36.68 507.51,-43.53"/>
</g>
<!-- Node17 -->
<g id="node17" class="node">
<title>Node17</title>
<g id="a_node17"><a xlink:href="class_urho3_d_1_1_animated_model.html#a4490aea6f65d9c5c617f8f6a4f762401" target="_top" xlink:title="Recalculate animations. Called from Update().">
<polygon fill="white" stroke="#666666" points="299.5,-73 173.5,-73 173.5,-43 299.5,-43 299.5,-73"/>
<text text-anchor="start" x="181.5" y="-61" font-family="Roboto" font-size="10.00">Urho3D::AnimatedModel</text>
<text text-anchor="middle" x="236.5" y="-50" font-family="Roboto" font-size="10.00">::UpdateAnimation</text>
</a>
</g>
</g>
<!-- Node16&#45;&gt;Node17 -->
<g id="edge20" class="edge">
<title>Node16&#45;&gt;Node17</title>
<path fill="none" stroke="#63b8ff" d="M335.38,-58C323.54,-58 311.39,-58 299.85,-58"/>
<polygon fill="#63b8ff" stroke="#63b8ff" points="335.09,-61.5 345.09,-58 335.09,-54.5 335.09,-61.5"/>
</g>
<!-- Node17&#45;&gt;Node18 -->
<g id="edge21" class="edge">
<title>Node17&#45;&gt;Node18</title>
<path fill="none" stroke="#63b8ff" d="M163.2,-39.87C150.68,-36.73 137.78,-33.5 125.58,-30.44"/>
<polygon fill="#63b8ff" stroke="#63b8ff" points="162.05,-43.19 172.6,-42.23 163.75,-36.4 162.05,-43.19"/>
</g>
<!-- Node19 -->
<g id="node19" class="node">
<title>Node19</title>
<g id="a_node19"><a xlink:href="class_urho3_d_1_1_animated_model.html#aa95a74690909b8503056f917d1101a93" target="_top" xlink:title="Prepare geometry for rendering. Called from a worker thread if possible (no GPU update).">
<polygon fill="white" stroke="#666666" points="126,-78 0,-78 0,-48 126,-48 126,-78"/>
<text text-anchor="start" x="8" y="-66" font-family="Roboto" font-size="10.00">Urho3D::AnimatedModel</text>
<text text-anchor="middle" x="63" y="-55" font-family="Roboto" font-size="10.00">::UpdateGeometry</text>
</a>
</g>
</g>
<!-- Node17&#45;&gt;Node19 -->
<g id="edge22" class="edge">
<title>Node17&#45;&gt;Node19</title>
<path fill="none" stroke="#63b8ff" d="M161.88,-60.15C150.04,-60.49 137.89,-60.85 126.35,-61.18"/>
<polygon fill="#63b8ff" stroke="#63b8ff" points="161.69,-63.65 171.59,-59.86 161.49,-56.66 161.69,-63.65"/>
</g>
</g>
</svg>
