<?xml version="1.0" encoding="UTF-8" standalone="no"?>
<!DOCTYPE svg PUBLIC "-//W3C//DTD SVG 1.1//EN"
 "http://www.w3.org/Graphics/SVG/1.1/DTD/svg11.dtd">
<!-- Generated by graphviz version 7.0.3 (0)
 -->
<!-- Title: Urho3D::ValueAnimation::SetInterpolationMethod Pages: 1 -->
<svg width="453pt" height="86pt"
 viewBox="0.00 0.00 453.00 86.00" xmlns="http://www.w3.org/2000/svg" xmlns:xlink="http://www.w3.org/1999/xlink">
<g id="graph0" class="graph" transform="scale(1 1) rotate(0) translate(4 82)">
<title>Urho3D::ValueAnimation::SetInterpolationMethod</title>
<!-- Node1 -->
<g id="node1" class="node">
<title>Node1</title>
<g id="a_node1"><a xlink:title=" ">
<polygon fill="#999999" stroke="#666666" points="445,-54 320,-54 320,-24 445,-24 445,-54"/>
<text text-anchor="start" x="328" y="-42" font-family="Roboto" font-size="10.00">Urho3D::ValueAnimation</text>
<text text-anchor="middle" x="382.5" y="-31" font-family="Roboto" font-size="10.00">::SetInterpolationMethod</text>
</a>
</g>
</g>
<!-- Node2 -->
<g id="node2" class="node">
<title>Node2</title>
<g id="a_node2"><a xlink:href="class_urho3_d_1_1_value_animation.html#abb90d4733017bb3e85f68f344a4a9571" target="_top" xlink:title="Load from JSON data. Return true if successful.">
<polygon fill="white" stroke="#666666" points="284,-78 160,-78 160,-48 284,-48 284,-78"/>
<text text-anchor="start" x="168" y="-66" font-family="Roboto" font-size="10.00">Urho3D::ValueAnimation</text>
<text text-anchor="middle" x="222" y="-55" font-family="Roboto" font-size="10.00">::LoadJSON</text>
</a>
</g>
</g>
<!-- Node1&#45;&gt;Node2 -->
<g id="edge1" class="edge">
<title>Node1&#45;&gt;Node2</title>
<path fill="none" stroke="#63b8ff" d="M308.45,-50.06C300.37,-51.28 292.21,-52.52 284.31,-53.72"/>
<polygon fill="#63b8ff" stroke="#63b8ff" points="308.91,-53.53 318.27,-48.57 307.86,-46.61 308.91,-53.53"/>
</g>
<!-- Node3 -->
<g id="node3" class="node">
<title>Node3</title>
<g id="a_node3"><a xlink:href="class_urho3_d_1_1_value_animation.html#a9ec6ef8e4dcd6e23e591936d45147991" target="_top" xlink:title="Load from XML data. Return true if successful.">
<polygon fill="white" stroke="#666666" points="284,-30 160,-30 160,0 284,0 284,-30"/>
<text text-anchor="start" x="168" y="-18" font-family="Roboto" font-size="10.00">Urho3D::ValueAnimation</text>
<text text-anchor="middle" x="222" y="-7" font-family="Roboto" font-size="10.00">::LoadXML</text>
</a>
</g>
</g>
<!-- Node1&#45;&gt;Node3 -->
<g id="edge2" class="edge">
<title>Node1&#45;&gt;Node3</title>
<path fill="none" stroke="#63b8ff" d="M308.45,-27.94C300.37,-26.72 292.21,-25.48 284.31,-24.28"/>
<polygon fill="#63b8ff" stroke="#63b8ff" points="307.86,-31.39 318.27,-29.43 308.91,-24.47 307.86,-31.39"/>
</g>
<!-- Node4 -->
<g id="node4" class="node">
<title>Node4</title>
<g id="a_node4"><a xlink:href="class_urho3_d_1_1_value_animation.html#a753729f770a747b938de50ff088356a4" target="_top" xlink:title="Load resource from stream. May be called from a worker thread. Return true if successful.">
<polygon fill="white" stroke="#666666" points="124,-30 0,-30 0,0 124,0 124,-30"/>
<text text-anchor="start" x="8" y="-18" font-family="Roboto" font-size="10.00">Urho3D::ValueAnimation</text>
<text text-anchor="middle" x="62" y="-7" font-family="Roboto" font-size="10.00">::BeginLoad</text>
</a>
</g>
</g>
<!-- Node3&#45;&gt;Node4 -->
<g id="edge3" class="edge">
<title>Node3&#45;&gt;Node4</title>
<path fill="none" stroke="#63b8ff" d="M148.6,-15C140.53,-15 132.36,-15 124.45,-15"/>
<polygon fill="#63b8ff" stroke="#63b8ff" points="148.4,-18.5 158.4,-15 148.4,-11.5 148.4,-18.5"/>
</g>
</g>
</svg>
