<?xml version="1.0" encoding="UTF-8" standalone="no"?>
<!DOCTYPE svg PUBLIC "-//W3C//DTD SVG 1.1//EN"
 "http://www.w3.org/Graphics/SVG/1.1/DTD/svg11.dtd">
<!-- Generated by graphviz version 7.0.3 (0)
 -->
<!-- Title: Urho3D::IntRect::Size Pages: 1 -->
<svg width="1115pt" height="453pt"
 viewBox="0.00 0.00 1115.00 452.50" xmlns="http://www.w3.org/2000/svg" xmlns:xlink="http://www.w3.org/1999/xlink">
<g id="graph0" class="graph" transform="scale(1 1) rotate(0) translate(4 448.5)">
<title>Urho3D::IntRect::Size</title>
<!-- Node1 -->
<g id="node1" class="node">
<title>Node1</title>
<g id="a_node1"><a xlink:title=" ">
<polygon fill="#999999" stroke="#666666" points="1107,-324 998,-324 998,-305 1107,-305 1107,-324"/>
<text text-anchor="middle" x="1052.5" y="-312" font-family="Roboto" font-size="10.00">Urho3D::IntRect::Size</text>
</a>
</g>
</g>
<!-- Node2 -->
<g id="node2" class="node">
<title>Node2</title>
<g id="a_node2"><a xlink:href="class_urho3_d_1_1_view.html#a38bd2f1292778c57fae949c4e271c20d" target="_top" xlink:title="Define with rendertarget and viewport. Return true if successful.">
<polygon fill="white" stroke="#666666" points="934,-392 826,-392 826,-373 934,-373 934,-392"/>
<text text-anchor="middle" x="880" y="-380" font-family="Roboto" font-size="10.00">Urho3D::View::Define</text>
</a>
</g>
</g>
<!-- Node1&#45;&gt;Node2 -->
<g id="edge1" class="edge">
<title>Node1&#45;&gt;Node2</title>
<path fill="none" stroke="#63b8ff" d="M1020.74,-329.05C1003.6,-336.95 981.79,-346.67 962,-354.5 945.53,-361.01 926.87,-367.52 911.62,-372.62"/>
<polygon fill="#63b8ff" stroke="#63b8ff" points="1021.78,-332.42 1029.37,-325.04 1018.83,-326.08 1021.78,-332.42"/>
</g>
<!-- Node3 -->
<g id="node3" class="node">
<title>Node3</title>
<g id="a_node3"><a xlink:href="class_urho3_d_1_1_renderer.html#a0fa71f5839321a9d68def7a2978f452a" target="_top" xlink:title="Update a queued viewport for rendering.">
<polygon fill="white" stroke="#666666" points="752,-399.5 621,-399.5 621,-369.5 752,-369.5 752,-399.5"/>
<text text-anchor="start" x="629" y="-387.5" font-family="Roboto" font-size="10.00">Urho3D::Renderer::Update</text>
<text text-anchor="middle" x="686.5" y="-376.5" font-family="Roboto" font-size="10.00">QueuedViewport</text>
</a>
</g>
</g>
<!-- Node1&#45;&gt;Node3 -->
<g id="edge29" class="edge">
<title>Node1&#45;&gt;Node3</title>
<path fill="none" stroke="#63b8ff" d="M988.66,-326.59C922.57,-339.29 819.1,-359.19 752.3,-372.04"/>
<polygon fill="#63b8ff" stroke="#63b8ff" points="989.09,-330.07 998.25,-324.74 987.77,-323.19 989.09,-330.07"/>
</g>
<!-- Node9 -->
<g id="node6" class="node">
<title>Node9</title>
<g id="a_node6"><a xlink:href="class_urho3_d_1_1_graphics.html#a27670beb9e90540f69da3d24da2d07bd" target="_top" xlink:title="Set scissor test.">
<polygon fill="white" stroke="#666666" points="962,-305 798,-305 798,-286 962,-286 962,-305"/>
<text text-anchor="middle" x="880" y="-293" font-family="Roboto" font-size="10.00">Urho3D::Graphics::SetScissorTest</text>
</a>
</g>
</g>
<!-- Node1&#45;&gt;Node9 -->
<g id="edge5" class="edge">
<title>Node1&#45;&gt;Node9</title>
<path fill="none" stroke="#63b8ff" d="M986.27,-307.23C978.43,-306.36 970.35,-305.46 962.32,-304.56"/>
<polygon fill="#63b8ff" stroke="#63b8ff" points="985.72,-310.69 996.05,-308.32 986.5,-303.73 985.72,-310.69"/>
</g>
<!-- Node49 -->
<g id="node15" class="node">
<title>Node49</title>
<g id="a_node15"><a xlink:href="class_urho3_d_1_1_cursor.html#a132e53f70b2e45f29a5ead1e5db84bbd" target="_top" xlink:title=" ">
<polygon fill="white" stroke="#666666" points="945.5,-133 814.5,-133 814.5,-114 945.5,-114 945.5,-133"/>
<text text-anchor="middle" x="880" y="-121" font-family="Roboto" font-size="10.00">Urho3D::Cursor::SetShape</text>
</a>
</g>
</g>
<!-- Node1&#45;&gt;Node49 -->
<g id="edge17" class="edge">
<title>Node1&#45;&gt;Node49</title>
<path fill="none" stroke="#63b8ff" d="M1035.29,-296.34C999.99,-256.8 917.15,-163.99 889.88,-133.44"/>
<polygon fill="#63b8ff" stroke="#63b8ff" points="1032.53,-298.51 1041.8,-303.64 1037.75,-293.85 1032.53,-298.51"/>
</g>
<!-- Node2&#45;&gt;Node3 -->
<g id="edge2" class="edge">
<title>Node2&#45;&gt;Node3</title>
<path fill="none" stroke="#63b8ff" d="M814.2,-383.18C794.3,-383.38 772.39,-383.61 752.48,-383.82"/>
<polygon fill="#63b8ff" stroke="#63b8ff" points="814.18,-386.68 824.14,-383.07 814.11,-379.68 814.18,-386.68"/>
</g>
<!-- Node4 -->
<g id="node4" class="node">
<title>Node4</title>
<g id="a_node4"><a xlink:href="class_urho3_d_1_1_renderer.html#a993f63f35d27a9ea6df861962018f354" target="_top" xlink:title="Update for rendering. Called by HandleRenderUpdate().">
<polygon fill="white" stroke="#666666" points="557,-439 426,-439 426,-420 557,-420 557,-439"/>
<text text-anchor="middle" x="491.5" y="-427" font-family="Roboto" font-size="10.00">Urho3D::Renderer::Update</text>
</a>
</g>
</g>
<!-- Node3&#45;&gt;Node4 -->
<g id="edge3" class="edge">
<title>Node3&#45;&gt;Node4</title>
<path fill="none" stroke="#63b8ff" d="M612.47,-402.62C599.98,-405.64 587.13,-408.7 575,-411.5 563.43,-414.18 550.92,-416.96 539.23,-419.52"/>
<polygon fill="#63b8ff" stroke="#63b8ff" points="612.96,-406.1 621.85,-400.34 611.31,-399.3 612.96,-406.1"/>
</g>
<!-- Node5 -->
<g id="node5" class="node">
<title>Node5</title>
<g id="a_node5"><a xlink:href="class_urho3_d_1_1_renderer.html#adf594e7a524f6e003e8370cf23dbee13" target="_top" xlink:title="Handle render update event.">
<polygon fill="#fff0f0" stroke="red" points="353.5,-444.5 222.5,-444.5 222.5,-414.5 353.5,-414.5 353.5,-444.5"/>
<text text-anchor="start" x="230.5" y="-432.5" font-family="Roboto" font-size="10.00">Urho3D::Renderer::Handle</text>
<text text-anchor="middle" x="288" y="-421.5" font-family="Roboto" font-size="10.00">RenderUpdate</text>
</a>
</g>
</g>
<!-- Node4&#45;&gt;Node5 -->
<g id="edge4" class="edge">
<title>Node4&#45;&gt;Node5</title>
<path fill="none" stroke="#63b8ff" d="M414.38,-429.5C394.41,-429.5 373.06,-429.5 353.74,-429.5"/>
<polygon fill="#63b8ff" stroke="#63b8ff" points="414.12,-433 424.12,-429.5 414.12,-426 414.12,-433"/>
</g>
<!-- Node10 -->
<g id="node7" class="node">
<title>Node10</title>
<g id="a_node7"><a xlink:href="class_urho3_d_1_1_graphics.html#a72c254ccb779fe20b39574042ba49786" target="_top" xlink:title="Clear any or all of rendertarget, depth buffer and stencil buffer.">
<polygon fill="white" stroke="#666666" points="747,-263 626,-263 626,-244 747,-244 747,-263"/>
<text text-anchor="middle" x="686.5" y="-251" font-family="Roboto" font-size="10.00">Urho3D::Graphics::Clear</text>
</a>
</g>
</g>
<!-- Node9&#45;&gt;Node10 -->
<g id="edge6" class="edge">
<title>Node9&#45;&gt;Node10</title>
<path fill="none" stroke="#63b8ff" d="M822.56,-283.12C793.98,-276.85 759.74,-269.34 732.89,-263.45"/>
<polygon fill="#63b8ff" stroke="#63b8ff" points="821.62,-286.5 832.14,-285.22 823.12,-279.66 821.62,-286.5"/>
</g>
<!-- Node18 -->
<g id="node10" class="node">
<title>Node18</title>
<g id="a_node10"><a xlink:href="struct_urho3_d_1_1_batch_queue.html#a9a3a0ba457231d2a75e65fe2a1d1d94c" target="_top" xlink:title="Draw.">
<polygon fill="white" stroke="#666666" points="740,-351.5 633,-351.5 633,-321.5 740,-321.5 740,-351.5"/>
<text text-anchor="start" x="641" y="-339.5" font-family="Roboto" font-size="10.00">Urho3D::BatchQueue</text>
<text text-anchor="middle" x="686.5" y="-328.5" font-family="Roboto" font-size="10.00">::Draw</text>
</a>
</g>
</g>
<!-- Node9&#45;&gt;Node18 -->
<g id="edge9" class="edge">
<title>Node9&#45;&gt;Node18</title>
<path fill="none" stroke="#63b8ff" d="M821.5,-307.81C795.68,-313.34 765.42,-319.82 740.19,-325.22"/>
<polygon fill="#63b8ff" stroke="#63b8ff" points="822.12,-311.26 831.16,-305.74 820.65,-304.41 822.12,-311.26"/>
</g>
<!-- Node22 -->
<g id="node13" class="node">
<title>Node22</title>
<g id="a_node13"><a xlink:href="class_urho3_d_1_1_graphics.html#ad417d2adc6d3fb173ec3e3d8fefd8b48" target="_top" xlink:title="Set viewport.">
<polygon fill="white" stroke="#666666" points="762,-303 611,-303 611,-284 762,-284 762,-303"/>
<text text-anchor="middle" x="686.5" y="-291" font-family="Roboto" font-size="10.00">Urho3D::Graphics::SetViewport</text>
</a>
</g>
</g>
<!-- Node9&#45;&gt;Node22 -->
<g id="edge14" class="edge">
<title>Node9&#45;&gt;Node22</title>
<path fill="none" stroke="#63b8ff" d="M786.19,-294.53C778.16,-294.45 770.1,-294.36 762.24,-294.28"/>
<polygon fill="#63b8ff" stroke="#63b8ff" points="785.96,-298.03 796,-294.63 786.03,-291.03 785.96,-298.03"/>
</g>
<!-- Node11 -->
<g id="node8" class="node">
<title>Node11</title>
<g id="a_node8"><a xlink:href="class_urho3_d_1_1_graphics.html#afdcde1ab06c42a77cc58fb29e4594f0c" target="_top" xlink:title=" ">
<polygon fill="#fff0f0" stroke="red" points="372,-292 204,-292 204,-273 372,-273 372,-292"/>
<text text-anchor="middle" x="288" y="-280" font-family="Roboto" font-size="10.00">Urho3D::Graphics::SetScreenMode</text>
</a>
</g>
</g>
<!-- Node10&#45;&gt;Node11 -->
<g id="edge7" class="edge">
<title>Node10&#45;&gt;Node11</title>
<path fill="none" stroke="#63b8ff" d="M614.38,-256.6C558.28,-259.28 478.07,-263.66 408,-269.5 396.51,-270.46 384.4,-271.61 372.49,-272.83"/>
<polygon fill="#63b8ff" stroke="#63b8ff" points="614.29,-260.1 624.11,-256.14 613.96,-253.11 614.29,-260.1"/>
</g>
<!-- Node12 -->
<g id="node9" class="node">
<title>Node12</title>
<g id="a_node9"><a xlink:href="class_urho3_d_1_1_graphics.html#a573706d930b58c9d903611affebae991" target="_top" xlink:title=" ">
<polygon fill="white" stroke="#666666" points="168,-292 0,-292 0,-273 168,-273 168,-292"/>
<text text-anchor="middle" x="84" y="-280" font-family="Roboto" font-size="10.00">Urho3D::Graphics::SetScreenMode</text>
</a>
</g>
</g>
<!-- Node11&#45;&gt;Node12 -->
<g id="edge8" class="edge">
<title>Node11&#45;&gt;Node12</title>
<path fill="none" stroke="#63b8ff" d="M192.42,-282.5C184.42,-282.5 176.37,-282.5 168.46,-282.5"/>
<polygon fill="#63b8ff" stroke="#63b8ff" points="192.16,-286 202.16,-282.5 192.16,-279 192.16,-286"/>
</g>
<!-- Node19 -->
<g id="node11" class="node">
<title>Node19</title>
<g id="a_node11"><a xlink:href="class_urho3_d_1_1_view.html#a2dd8e9237f495ba4ec4a69b195988cfa" target="_top" xlink:title="Execute render commands.">
<polygon fill="#fff0f0" stroke="red" points="361,-361.5 215,-361.5 215,-331.5 361,-331.5 361,-361.5"/>
<text text-anchor="start" x="223" y="-349.5" font-family="Roboto" font-size="10.00">Urho3D::View::ExecuteRender</text>
<text text-anchor="middle" x="288" y="-338.5" font-family="Roboto" font-size="10.00">PathCommands</text>
</a>
</g>
</g>
<!-- Node18&#45;&gt;Node19 -->
<g id="edge10" class="edge">
<title>Node18&#45;&gt;Node19</title>
<path fill="none" stroke="#63b8ff" d="M621.38,-338.12C550.24,-339.91 435.7,-342.8 361.39,-344.67"/>
<polygon fill="#63b8ff" stroke="#63b8ff" points="621.43,-341.62 631.33,-337.87 621.25,-334.62 621.43,-341.62"/>
</g>
<!-- Node21 -->
<g id="node12" class="node">
<title>Node21</title>
<g id="a_node12"><a xlink:href="class_urho3_d_1_1_view.html#ae7e6e47346e5ff4346eb8cb251e013ef" target="_top" xlink:title="Render a shadow map.">
<polygon fill="white" stroke="#666666" points="575,-384 408,-384 408,-365 575,-365 575,-384"/>
<text text-anchor="middle" x="491.5" y="-372" font-family="Roboto" font-size="10.00">Urho3D::View::RenderShadowMap</text>
</a>
</g>
</g>
<!-- Node18&#45;&gt;Node21 -->
<g id="edge11" class="edge">
<title>Node18&#45;&gt;Node21</title>
<path fill="none" stroke="#63b8ff" d="M621.44,-349.11C595.94,-354.13 567.03,-359.83 543.05,-364.55"/>
<polygon fill="#63b8ff" stroke="#63b8ff" points="621.89,-352.59 631.02,-347.23 620.53,-345.72 621.89,-352.59"/>
</g>
<!-- Node21&#45;&gt;Node19 -->
<g id="edge12" class="edge">
<title>Node21&#45;&gt;Node19</title>
<path fill="none" stroke="#63b8ff" d="M407.54,-362.97C392.17,-360.84 376.22,-358.62 361.2,-356.53"/>
<polygon fill="#63b8ff" stroke="#63b8ff" points="406.72,-366.39 417.11,-364.3 407.69,-359.46 406.72,-366.39"/>
</g>
<!-- Node21&#45;&gt;Node21 -->
<g id="edge13" class="edge">
<title>Node21&#45;&gt;Node21</title>
<path fill="none" stroke="#63b8ff" d="M526.78,-394.76C523.08,-398.97 511.32,-402 491.5,-402 457.22,-402 447.05,-392.94 460.97,-384.37"/>
<polygon fill="#63b8ff" stroke="#63b8ff" points="530,-393.38 522.66,-385.74 523.64,-396.29 530,-393.38"/>
</g>
<!-- Node23 -->
<g id="node14" class="node">
<title>Node23</title>
<g id="a_node14"><a xlink:href="class_urho3_d_1_1_graphics.html#ae1d5bec42a30f9b3d6ad41db33084388" target="_top" xlink:title="Reset all rendertargets, depth&#45;stencil surface and viewport.">
<polygon fill="#fff0f0" stroke="red" points="568.5,-308.5 414.5,-308.5 414.5,-278.5 568.5,-278.5 568.5,-308.5"/>
<text text-anchor="start" x="422.5" y="-296.5" font-family="Roboto" font-size="10.00">Urho3D::Graphics::ResetRender</text>
<text text-anchor="middle" x="491.5" y="-285.5" font-family="Roboto" font-size="10.00">Targets</text>
</a>
</g>
</g>
<!-- Node22&#45;&gt;Node23 -->
<g id="edge15" class="edge">
<title>Node22&#45;&gt;Node23</title>
<path fill="none" stroke="#63b8ff" d="M599.28,-293.5C589.17,-293.5 578.91,-293.5 568.94,-293.5"/>
<polygon fill="#63b8ff" stroke="#63b8ff" points="599.09,-297 609.09,-293.5 599.09,-290 599.09,-297"/>
</g>
<!-- Node23&#45;&gt;Node11 -->
<g id="edge16" class="edge">
<title>Node23&#45;&gt;Node11</title>
<path fill="none" stroke="#63b8ff" d="M402.77,-288.71C392.71,-288.16 382.48,-287.6 372.48,-287.06"/>
<polygon fill="#63b8ff" stroke="#63b8ff" points="402.35,-292.19 412.52,-289.24 402.73,-285.2 402.35,-292.19"/>
</g>
<!-- Node50 -->
<g id="node16" class="node">
<title>Node50</title>
<g id="a_node16"><a xlink:href="class_urho3_d_1_1_cursor.html#ac42187d96290b83a4f8995d2264cba87" target="_top" xlink:title="Define a shape.">
<polygon fill="white" stroke="#666666" points="759,-185 614,-185 614,-166 759,-166 759,-185"/>
<text text-anchor="middle" x="686.5" y="-173" font-family="Roboto" font-size="10.00">Urho3D::Cursor::DefineShape</text>
</a>
</g>
</g>
<!-- Node49&#45;&gt;Node50 -->
<g id="edge18" class="edge">
<title>Node49&#45;&gt;Node50</title>
<path fill="none" stroke="#63b8ff" d="M831.71,-136.34C798.5,-145.36 754.73,-157.24 724.16,-165.55"/>
<polygon fill="#63b8ff" stroke="#63b8ff" points="832.34,-139.8 841.07,-133.8 830.5,-133.04 832.34,-139.8"/>
</g>
<!-- Node54 -->
<g id="node19" class="node">
<title>Node54</title>
<g id="a_node19"><a xlink:href="class_urho3_d_1_1_u_i.html#a444cb18d7cdbab6b37be5a6245c77388" target="_top" xlink:title="Handle button or touch hover.">
<polygon fill="white" stroke="#666666" points="752.5,-133 620.5,-133 620.5,-114 752.5,-114 752.5,-133"/>
<text text-anchor="middle" x="686.5" y="-121" font-family="Roboto" font-size="10.00">Urho3D::UI::ProcessHover</text>
</a>
</g>
</g>
<!-- Node49&#45;&gt;Node54 -->
<g id="edge21" class="edge">
<title>Node49&#45;&gt;Node54</title>
<path fill="none" stroke="#63b8ff" d="M802.88,-123.5C786.34,-123.5 768.99,-123.5 752.92,-123.5"/>
<polygon fill="#63b8ff" stroke="#63b8ff" points="802.65,-127 812.65,-123.5 802.65,-120 802.65,-127"/>
</g>
<!-- Node60 -->
<g id="node21" class="node">
<title>Node60</title>
<g id="a_node21"><a xlink:href="class_urho3_d_1_1_window.html#a051e2a3e7e8052bd903a6460ea6dde0c" target="_top" xlink:title="Set cursor shape based on drag mode.">
<polygon fill="white" stroke="#666666" points="756.5,-95.5 616.5,-95.5 616.5,-65.5 756.5,-65.5 756.5,-95.5"/>
<text text-anchor="start" x="624.5" y="-83.5" font-family="Roboto" font-size="10.00">Urho3D::Window::SetCursor</text>
<text text-anchor="middle" x="686.5" y="-72.5" font-family="Roboto" font-size="10.00">Shape</text>
</a>
</g>
</g>
<!-- Node49&#45;&gt;Node60 -->
<g id="edge24" class="edge">
<title>Node49&#45;&gt;Node60</title>
<path fill="none" stroke="#63b8ff" d="M823.61,-111.06C802.64,-106.35 778.5,-100.93 756.43,-95.98"/>
<polygon fill="#63b8ff" stroke="#63b8ff" points="822.58,-114.42 833.11,-113.2 824.12,-107.59 822.58,-114.42"/>
</g>
<!-- Node64 -->
<g id="node25" class="node">
<title>Node64</title>
<g id="a_node25"><a xlink:href="class_urho3_d_1_1_cursor.html#a80576d788b0d9598414fe08daffd3543" target="_top" xlink:title="Set current shape.">
<polygon fill="white" stroke="#666666" points="752,-47 621,-47 621,-28 752,-28 752,-47"/>
<text text-anchor="middle" x="686.5" y="-35" font-family="Roboto" font-size="10.00">Urho3D::Cursor::SetShape</text>
</a>
</g>
</g>
<!-- Node49&#45;&gt;Node64 -->
<g id="edge28" class="edge">
<title>Node49&#45;&gt;Node64</title>
<path fill="none" stroke="#63b8ff" d="M855.31,-107.37C832.33,-92.36 796.05,-70.29 762,-56.5 753.34,-52.99 743.85,-49.98 734.62,-47.46"/>
<polygon fill="#63b8ff" stroke="#63b8ff" points="853.34,-110.27 863.61,-112.88 857.21,-104.43 853.34,-110.27"/>
</g>
<!-- Node51 -->
<g id="node17" class="node">
<title>Node51</title>
<g id="a_node17"><a xlink:href="class_urho3_d_1_1_cursor.html#a97d9d20ad1d104a8d6a768415bd26d21" target="_top" xlink:title="Define a shape.">
<polygon fill="white" stroke="#666666" points="564,-185 419,-185 419,-166 564,-166 564,-185"/>
<text text-anchor="middle" x="491.5" y="-173" font-family="Roboto" font-size="10.00">Urho3D::Cursor::DefineShape</text>
</a>
</g>
</g>
<!-- Node50&#45;&gt;Node51 -->
<g id="edge19" class="edge">
<title>Node50&#45;&gt;Node51</title>
<path fill="none" stroke="#63b8ff" d="M602.19,-175.5C589.62,-175.5 576.74,-175.5 564.43,-175.5"/>
<polygon fill="#63b8ff" stroke="#63b8ff" points="602.12,-179 612.12,-175.5 602.12,-172 602.12,-179"/>
</g>
<!-- Node52 -->
<g id="node18" class="node">
<title>Node52</title>
<g id="a_node18"><a xlink:href="class_urho3_d_1_1_cursor.html#a704d15848ce28eef980f3334146ad161" target="_top" xlink:title="Set shapes attribute.">
<polygon fill="#fff0f0" stroke="red" points="568,-222 415,-222 415,-203 568,-203 568,-222"/>
<text text-anchor="middle" x="491.5" y="-210" font-family="Roboto" font-size="10.00">Urho3D::Cursor::SetShapesAttr</text>
</a>
</g>
</g>
<!-- Node50&#45;&gt;Node52 -->
<g id="edge20" class="edge">
<title>Node50&#45;&gt;Node52</title>
<path fill="none" stroke="#63b8ff" d="M622.24,-187.63C597.08,-192.45 568.49,-197.93 544.57,-202.52"/>
<polygon fill="#63b8ff" stroke="#63b8ff" points="622.88,-191.07 632.04,-185.75 621.56,-184.19 622.88,-191.07"/>
</g>
<!-- Node55 -->
<g id="node20" class="node">
<title>Node55</title>
<g id="a_node20"><a xlink:href="class_urho3_d_1_1_u_i.html#a72b99e98631cc015245568170dc221e0" target="_top" xlink:title="Update the UI logic. Called by HandlePostUpdate().">
<polygon fill="#fff0f0" stroke="red" points="542,-130 441,-130 441,-111 542,-111 542,-130"/>
<text text-anchor="middle" x="491.5" y="-118" font-family="Roboto" font-size="10.00">Urho3D::UI::Update</text>
</a>
</g>
</g>
<!-- Node54&#45;&gt;Node55 -->
<g id="edge22" class="edge">
<title>Node54&#45;&gt;Node55</title>
<path fill="none" stroke="#63b8ff" d="M608.93,-122.31C586.48,-121.96 562.52,-121.59 542.21,-121.27"/>
<polygon fill="#63b8ff" stroke="#63b8ff" points="608.59,-125.8 618.65,-122.46 608.7,-118.81 608.59,-125.8"/>
</g>
<!-- Node55&#45;&gt;Node55 -->
<g id="edge23" class="edge">
<title>Node55&#45;&gt;Node55</title>
<path fill="none" stroke="#63b8ff" d="M526.78,-140.76C523.08,-144.97 511.32,-148 491.5,-148 457.22,-148 447.05,-138.94 460.97,-130.37"/>
<polygon fill="#63b8ff" stroke="#63b8ff" points="530,-139.38 522.66,-131.74 523.64,-142.29 530,-139.38"/>
</g>
<!-- Node61 -->
<g id="node22" class="node">
<title>Node61</title>
<g id="a_node22"><a xlink:href="class_urho3_d_1_1_window.html#a932ccd738d5c204646be87a8e6d72dde" target="_top" xlink:title="React to mouse drag begin.">
<polygon fill="white" stroke="#666666" points="567.5,-19 415.5,-19 415.5,0 567.5,0 567.5,-19"/>
<text text-anchor="middle" x="491.5" y="-7" font-family="Roboto" font-size="10.00">Urho3D::Window::OnDragBegin</text>
</a>
</g>
</g>
<!-- Node60&#45;&gt;Node61 -->
<g id="edge25" class="edge">
<title>Node60&#45;&gt;Node61</title>
<path fill="none" stroke="#63b8ff" d="M619.23,-60.6C616.41,-59.3 613.66,-57.93 611,-56.5 592.92,-46.74 593.53,-36.37 575,-27.5 568.26,-24.27 560.93,-21.62 553.51,-19.43"/>
<polygon fill="#63b8ff" stroke="#63b8ff" points="617.67,-63.74 628.24,-64.41 620.4,-57.29 617.67,-63.74"/>
</g>
<!-- Node62 -->
<g id="node23" class="node">
<title>Node62</title>
<g id="a_node23"><a xlink:href="class_urho3_d_1_1_window.html#a6b1bc0d6b435cc9fea0c0ed1fda015f3" target="_top" xlink:title="React to mouse drag motion.">
<polygon fill="white" stroke="#666666" points="567.5,-93 415.5,-93 415.5,-74 567.5,-74 567.5,-93"/>
<text text-anchor="middle" x="491.5" y="-81" font-family="Roboto" font-size="10.00">Urho3D::Window::OnDragMove</text>
</a>
</g>
</g>
<!-- Node60&#45;&gt;Node62 -->
<g id="edge26" class="edge">
<title>Node60&#45;&gt;Node62</title>
<path fill="none" stroke="#63b8ff" d="M604.93,-81.75C592.64,-81.94 579.99,-82.14 567.82,-82.33"/>
<polygon fill="#63b8ff" stroke="#63b8ff" points="604.64,-85.26 614.58,-81.6 604.53,-78.26 604.64,-85.26"/>
</g>
<!-- Node63 -->
<g id="node24" class="node">
<title>Node63</title>
<g id="a_node24"><a xlink:href="class_urho3_d_1_1_window.html#ad453fbdaf401511490f0206a40c94b59" target="_top" xlink:title="React to mouse hover.">
<polygon fill="white" stroke="#666666" points="558.5,-56 424.5,-56 424.5,-37 558.5,-37 558.5,-56"/>
<text text-anchor="middle" x="491.5" y="-44" font-family="Roboto" font-size="10.00">Urho3D::Window::OnHover</text>
</a>
</g>
</g>
<!-- Node60&#45;&gt;Node63 -->
<g id="edge27" class="edge">
<title>Node60&#45;&gt;Node63</title>
<path fill="none" stroke="#63b8ff" d="M604.89,-66.3C586.19,-63 566.67,-59.57 549.24,-56.5"/>
<polygon fill="#63b8ff" stroke="#63b8ff" points="604.15,-69.72 614.6,-68.01 605.36,-62.83 604.15,-69.72"/>
</g>
</g>
</svg>
