<?xml version="1.0" encoding="UTF-8" standalone="no"?>
<!DOCTYPE svg PUBLIC "-//W3C//DTD SVG 1.1//EN"
 "http://www.w3.org/Graphics/SVG/1.1/DTD/svg11.dtd">
<!-- Generated by graphviz version 7.0.3 (0)
 -->
<!-- Title: Urho3D::ScrollBar::RegisterObject Pages: 1 -->
<svg width="566pt" height="498pt"
 viewBox="0.00 0.00 566.00 498.00" xmlns="http://www.w3.org/2000/svg" xmlns:xlink="http://www.w3.org/1999/xlink">
<g id="graph0" class="graph" transform="scale(1 1) rotate(0) translate(4 494)">
<title>Urho3D::ScrollBar::RegisterObject</title>
<!-- Node1 -->
<g id="node1" class="node">
<title>Node1</title>
<g id="a_node1"><a xlink:title=" ">
<polygon fill="#999999" stroke="#666666" points="99,-250 0,-250 0,-220 99,-220 99,-250"/>
<text text-anchor="start" x="8" y="-238" font-family="Roboto" font-size="10.00">Urho3D::ScrollBar::</text>
<text text-anchor="middle" x="49.5" y="-227" font-family="Roboto" font-size="10.00">RegisterObject</text>
</a>
</g>
</g>
<!-- Node2 -->
<g id="node2" class="node">
<title>Node2</title>
<g id="a_node2"><a xlink:href="class_urho3_d_1_1_scroll_bar.html#a202d9c16974f8ddc69545e8034e51e97" target="_top" xlink:title=" ">
<polygon fill="white" stroke="#666666" points="249.5,-490 150.5,-490 150.5,-460 249.5,-460 249.5,-490"/>
<text text-anchor="start" x="158.5" y="-478" font-family="Roboto" font-size="10.00">Urho3D::ScrollBar::</text>
<text text-anchor="middle" x="200" y="-467" font-family="Roboto" font-size="10.00">GetOrientation</text>
</a>
</g>
</g>
<!-- Node1&#45;&gt;Node2 -->
<g id="edge1" class="edge">
<title>Node1&#45;&gt;Node2</title>
<path fill="none" stroke="#63b8ff" d="M52.23,-250.4C57.39,-289.4 76.22,-393.04 135,-451 136.79,-452.76 138.71,-454.39 140.74,-455.91"/>
<polygon fill="#63b8ff" stroke="#63b8ff" points="138.6,-458.7 148.94,-461.02 142.31,-452.76 138.6,-458.7"/>
</g>
<!-- Node3 -->
<g id="node3" class="node">
<title>Node3</title>
<g id="a_node3"><a xlink:href="class_urho3_d_1_1_scroll_bar.html#ac6dc05afcaa892948d50e01584b3669d" target="_top" xlink:title=" ">
<polygon fill="white" stroke="#666666" points="249.5,-442 150.5,-442 150.5,-412 249.5,-412 249.5,-442"/>
<text text-anchor="start" x="158.5" y="-430" font-family="Roboto" font-size="10.00">Urho3D::ScrollBar::</text>
<text text-anchor="middle" x="200" y="-419" font-family="Roboto" font-size="10.00">GetRange</text>
</a>
</g>
</g>
<!-- Node1&#45;&gt;Node3 -->
<g id="edge2" class="edge">
<title>Node1&#45;&gt;Node3</title>
<path fill="none" stroke="#63b8ff" d="M54.14,-250.31C62.66,-282.93 86.91,-359.81 135,-403 136.83,-404.64 138.78,-406.18 140.83,-407.61"/>
<polygon fill="#63b8ff" stroke="#63b8ff" points="138.59,-410.35 148.97,-412.48 142.18,-404.34 138.59,-410.35"/>
</g>
<!-- Node4 -->
<g id="node4" class="node">
<title>Node4</title>
<g id="a_node4"><a xlink:href="class_urho3_d_1_1_scroll_bar.html#a0db1f0d00169c0fc6b234303d7ae382b" target="_top" xlink:title=" ">
<polygon fill="white" stroke="#666666" points="249.5,-394 150.5,-394 150.5,-364 249.5,-364 249.5,-394"/>
<text text-anchor="start" x="158.5" y="-382" font-family="Roboto" font-size="10.00">Urho3D::ScrollBar::</text>
<text text-anchor="middle" x="200" y="-371" font-family="Roboto" font-size="10.00">GetScrollStep</text>
</a>
</g>
</g>
<!-- Node1&#45;&gt;Node4 -->
<g id="edge3" class="edge">
<title>Node1&#45;&gt;Node4</title>
<path fill="none" stroke="#63b8ff" d="M57.39,-250.1C69.59,-275.26 97.3,-325.86 135,-355 136.73,-356.33 138.53,-357.6 140.4,-358.8"/>
<polygon fill="#63b8ff" stroke="#63b8ff" points="138.41,-361.69 148.84,-363.54 141.83,-355.59 138.41,-361.69"/>
</g>
<!-- Node5 -->
<g id="node5" class="node">
<title>Node5</title>
<g id="a_node5"><a xlink:href="class_urho3_d_1_1_scroll_bar.html#a1845f3790f6779ead6b8bfdba169b3f3" target="_top" xlink:title=" ">
<polygon fill="white" stroke="#666666" points="249.5,-346 150.5,-346 150.5,-316 249.5,-316 249.5,-346"/>
<text text-anchor="start" x="158.5" y="-334" font-family="Roboto" font-size="10.00">Urho3D::ScrollBar::</text>
<text text-anchor="middle" x="200" y="-323" font-family="Roboto" font-size="10.00">GetStepFactor</text>
</a>
</g>
</g>
<!-- Node1&#45;&gt;Node5 -->
<g id="edge4" class="edge">
<title>Node1&#45;&gt;Node5</title>
<path fill="none" stroke="#63b8ff" d="M65.14,-250.29C81.07,-266.23 107.93,-291.06 135,-307 137.16,-308.27 139.4,-309.5 141.69,-310.68"/>
<polygon fill="#63b8ff" stroke="#63b8ff" points="140.07,-313.78 150.61,-314.89 143.06,-307.45 140.07,-313.78"/>
</g>
<!-- Node6 -->
<g id="node6" class="node">
<title>Node6</title>
<g id="a_node6"><a xlink:href="class_urho3_d_1_1_scroll_bar.html#acdbd94490eca6838f00e19a127efe2bd" target="_top" xlink:title=" ">
<polygon fill="white" stroke="#666666" points="249.5,-298 150.5,-298 150.5,-268 249.5,-268 249.5,-298"/>
<text text-anchor="start" x="158.5" y="-286" font-family="Roboto" font-size="10.00">Urho3D::ScrollBar::</text>
<text text-anchor="middle" x="200" y="-275" font-family="Roboto" font-size="10.00">GetValue</text>
</a>
</g>
</g>
<!-- Node1&#45;&gt;Node6 -->
<g id="edge5" class="edge">
<title>Node1&#45;&gt;Node6</title>
<path fill="none" stroke="#63b8ff" d="M98.3,-250.45C111.82,-254.82 126.67,-259.62 140.73,-264.17"/>
<polygon fill="#63b8ff" stroke="#63b8ff" points="139.25,-267.37 149.85,-267.11 141.41,-260.71 139.25,-267.37"/>
</g>
<!-- Node7 -->
<g id="node7" class="node">
<title>Node7</title>
<g id="a_node7"><a xlink:href="class_urho3_d_1_1_context.html#aa9b2cffef8d52fa18bfe533a2615a598" target="_top" xlink:title="Register a factory for an object type.">
<polygon fill="white" stroke="#666666" points="265,-250 135,-250 135,-220 265,-220 265,-250"/>
<text text-anchor="start" x="143" y="-238" font-family="Roboto" font-size="10.00">Urho3D::Context::Register</text>
<text text-anchor="middle" x="200" y="-227" font-family="Roboto" font-size="10.00">Factory</text>
</a>
</g>
</g>
<!-- Node1&#45;&gt;Node7 -->
<g id="edge6" class="edge">
<title>Node1&#45;&gt;Node7</title>
<path fill="none" stroke="#63b8ff" d="M99.12,-235C106.83,-235 114.95,-235 123.1,-235"/>
<polygon fill="#63b8ff" stroke="#63b8ff" points="123.09,-238.5 133.09,-235 123.09,-231.5 123.09,-238.5"/>
</g>
<!-- Node9 -->
<g id="node9" class="node">
<title>Node9</title>
<g id="a_node9"><a xlink:href="class_urho3_d_1_1_scroll_bar.html#a08a7da485adf24fc57154fb931477610" target="_top" xlink:title=" ">
<polygon fill="white" stroke="#666666" points="249.5,-202 150.5,-202 150.5,-172 249.5,-172 249.5,-202"/>
<text text-anchor="start" x="158.5" y="-190" font-family="Roboto" font-size="10.00">Urho3D::ScrollBar::</text>
<text text-anchor="middle" x="200" y="-179" font-family="Roboto" font-size="10.00">SetOrientation</text>
</a>
</g>
</g>
<!-- Node1&#45;&gt;Node9 -->
<g id="edge8" class="edge">
<title>Node1&#45;&gt;Node9</title>
<path fill="none" stroke="#63b8ff" d="M98.3,-219.55C111.82,-215.18 126.67,-210.38 140.73,-205.83"/>
<polygon fill="#63b8ff" stroke="#63b8ff" points="141.41,-209.29 149.85,-202.89 139.25,-202.63 141.41,-209.29"/>
</g>
<!-- Node15 -->
<g id="node15" class="node">
<title>Node15</title>
<g id="a_node15"><a xlink:href="class_urho3_d_1_1_scroll_bar.html#a5ce3ea065c6659c533cfef8b97799cab" target="_top" xlink:title=" ">
<polygon fill="white" stroke="#666666" points="249.5,-154 150.5,-154 150.5,-124 249.5,-124 249.5,-154"/>
<text text-anchor="start" x="158.5" y="-142" font-family="Roboto" font-size="10.00">Urho3D::ScrollBar::</text>
<text text-anchor="middle" x="200" y="-131" font-family="Roboto" font-size="10.00">SetRange</text>
</a>
</g>
</g>
<!-- Node1&#45;&gt;Node15 -->
<g id="edge15" class="edge">
<title>Node1&#45;&gt;Node15</title>
<path fill="none" stroke="#63b8ff" d="M65.14,-219.71C81.07,-203.77 107.93,-178.94 135,-163 137.16,-161.73 139.4,-160.5 141.69,-159.32"/>
<polygon fill="#63b8ff" stroke="#63b8ff" points="143.06,-162.55 150.61,-155.11 140.07,-156.22 143.06,-162.55"/>
</g>
<!-- Node16 -->
<g id="node16" class="node">
<title>Node16</title>
<g id="a_node16"><a xlink:href="class_urho3_d_1_1_scroll_bar.html#a2ff3d813b826d36a6aaaf0c7543ded0a" target="_top" xlink:title=" ">
<polygon fill="white" stroke="#666666" points="408.5,-111 309.5,-111 309.5,-81 408.5,-81 408.5,-111"/>
<text text-anchor="start" x="317.5" y="-99" font-family="Roboto" font-size="10.00">Urho3D::ScrollBar::</text>
<text text-anchor="middle" x="359" y="-88" font-family="Roboto" font-size="10.00">SetScrollStep</text>
</a>
</g>
</g>
<!-- Node1&#45;&gt;Node16 -->
<g id="edge16" class="edge">
<title>Node1&#45;&gt;Node16</title>
<path fill="none" stroke="#63b8ff" d="M56.25,-219.57C67.08,-192.96 93.24,-138.98 135,-115 184.5,-86.58 250.61,-84.52 297.98,-87.93"/>
<polygon fill="#63b8ff" stroke="#63b8ff" points="297.53,-91.4 307.78,-88.74 298.11,-84.43 297.53,-91.4"/>
</g>
<!-- Node17 -->
<g id="node17" class="node">
<title>Node17</title>
<g id="a_node17"><a xlink:href="class_urho3_d_1_1_scroll_bar.html#a9f9a1b88eb4b1e8bd276f3cbf4f5ab2e" target="_top" xlink:title=" ">
<polygon fill="white" stroke="#666666" points="408.5,-63 309.5,-63 309.5,-33 408.5,-33 408.5,-63"/>
<text text-anchor="start" x="317.5" y="-51" font-family="Roboto" font-size="10.00">Urho3D::ScrollBar::</text>
<text text-anchor="middle" x="359" y="-40" font-family="Roboto" font-size="10.00">SetStepFactor</text>
</a>
</g>
</g>
<!-- Node1&#45;&gt;Node17 -->
<g id="edge18" class="edge">
<title>Node1&#45;&gt;Node17</title>
<path fill="none" stroke="#63b8ff" d="M54.08,-219.81C62.36,-188.36 85.96,-116.18 135,-82 182.49,-48.9 249.48,-42.69 297.63,-43.35"/>
<polygon fill="#63b8ff" stroke="#63b8ff" points="297.53,-46.85 307.61,-43.6 297.71,-39.85 297.53,-46.85"/>
</g>
<!-- Node18 -->
<g id="node18" class="node">
<title>Node18</title>
<g id="a_node18"><a xlink:href="class_urho3_d_1_1_scroll_bar.html#a64a6b8b3da2f14f5ef23a46c88f1c403" target="_top" xlink:title=" ">
<polygon fill="white" stroke="#666666" points="249.5,-30 150.5,-30 150.5,0 249.5,0 249.5,-30"/>
<text text-anchor="start" x="158.5" y="-18" font-family="Roboto" font-size="10.00">Urho3D::ScrollBar::</text>
<text text-anchor="middle" x="200" y="-7" font-family="Roboto" font-size="10.00">SetValue</text>
</a>
</g>
</g>
<!-- Node1&#45;&gt;Node18 -->
<g id="edge20" class="edge">
<title>Node1&#45;&gt;Node18</title>
<path fill="none" stroke="#63b8ff" d="M53.42,-219.51C60.86,-183.99 83.69,-95.77 135,-44 137.75,-41.23 140.8,-38.7 144.05,-36.39"/>
<polygon fill="#63b8ff" stroke="#63b8ff" points="145.67,-39.51 152.33,-31.26 141.99,-33.56 145.67,-39.51"/>
</g>
<!-- Node8 -->
<g id="node8" class="node">
<title>Node8</title>
<g id="a_node8"><a xlink:href="class_urho3_d_1_1_object_factory.html#a191ee9fd0ce7c127dfd92b2b9ae47709" target="_top" xlink:title="Return type hash of objects created by this factory.">
<polygon fill="white" stroke="#666666" points="417,-255 301,-255 301,-225 417,-225 417,-255"/>
<text text-anchor="start" x="309" y="-243" font-family="Roboto" font-size="10.00">Urho3D::ObjectFactory</text>
<text text-anchor="middle" x="359" y="-232" font-family="Roboto" font-size="10.00">::GetType</text>
</a>
</g>
</g>
<!-- Node7&#45;&gt;Node8 -->
<g id="edge7" class="edge">
<title>Node7&#45;&gt;Node8</title>
<path fill="none" stroke="#63b8ff" d="M265.31,-237.05C273.16,-237.3 281.21,-237.55 289.13,-237.81"/>
<polygon fill="#63b8ff" stroke="#63b8ff" points="288.97,-241.3 299.08,-238.12 289.19,-234.31 288.97,-241.3"/>
</g>
<!-- Node10 -->
<g id="node10" class="node">
<title>Node10</title>
<g id="a_node10"><a xlink:href="class_urho3_d_1_1_u_i_element.html#a5eb156615aef75c2c020de6c879cfd01" target="_top" xlink:title=" ">
<polygon fill="white" stroke="#666666" points="411.5,-207 306.5,-207 306.5,-177 411.5,-177 411.5,-207"/>
<text text-anchor="start" x="314.5" y="-195" font-family="Roboto" font-size="10.00">Urho3D::UIElement::</text>
<text text-anchor="middle" x="359" y="-184" font-family="Roboto" font-size="10.00">GetSize</text>
</a>
</g>
</g>
<!-- Node9&#45;&gt;Node10 -->
<g id="edge9" class="edge">
<title>Node9&#45;&gt;Node10</title>
<path fill="none" stroke="#63b8ff" d="M249.82,-188.55C264.09,-189.01 279.9,-189.51 294.93,-189.99"/>
<polygon fill="#63b8ff" stroke="#63b8ff" points="294.6,-193.48 304.71,-190.3 294.83,-186.49 294.6,-193.48"/>
</g>
<!-- Node11 -->
<g id="node11" class="node">
<title>Node11</title>
<g id="a_node11"><a xlink:href="class_urho3_d_1_1_scroll_bar.html#a43243d9cfc1faba14ebbfc1aab7618e8" target="_top" xlink:title="React to resize.">
<polygon fill="white" stroke="#666666" points="408.5,-159 309.5,-159 309.5,-129 408.5,-129 408.5,-159"/>
<text text-anchor="start" x="317.5" y="-147" font-family="Roboto" font-size="10.00">Urho3D::ScrollBar::</text>
<text text-anchor="middle" x="359" y="-136" font-family="Roboto" font-size="10.00">OnResize</text>
</a>
</g>
</g>
<!-- Node9&#45;&gt;Node11 -->
<g id="edge10" class="edge">
<title>Node9&#45;&gt;Node11</title>
<path fill="none" stroke="#63b8ff" d="M249.82,-173.63C265.17,-169.42 282.31,-164.73 298.33,-160.34"/>
<polygon fill="#63b8ff" stroke="#63b8ff" points="299.04,-163.78 307.76,-157.76 297.19,-157.03 299.04,-163.78"/>
</g>
<!-- Node12 -->
<g id="node12" class="node">
<title>Node12</title>
<g id="a_node12"><a xlink:href="class_urho3_d_1_1_u_i_element.html#a74426efba577c8b92f7b49c307d7a446" target="_top" xlink:title=" ">
<polygon fill="white" stroke="#666666" points="558,-207 453,-207 453,-177 558,-177 558,-207"/>
<text text-anchor="start" x="461" y="-195" font-family="Roboto" font-size="10.00">Urho3D::UIElement::</text>
<text text-anchor="middle" x="505.5" y="-184" font-family="Roboto" font-size="10.00">GetHeight</text>
</a>
</g>
</g>
<!-- Node11&#45;&gt;Node12 -->
<g id="edge11" class="edge">
<title>Node11&#45;&gt;Node12</title>
<path fill="none" stroke="#63b8ff" d="M406.52,-159.45C419.54,-163.78 433.84,-168.53 447.4,-173.03"/>
<polygon fill="#63b8ff" stroke="#63b8ff" points="446.04,-176.27 456.63,-176.1 448.25,-169.63 446.04,-176.27"/>
</g>
<!-- Node13 -->
<g id="node13" class="node">
<title>Node13</title>
<g id="a_node13"><a xlink:href="class_urho3_d_1_1_u_i_element.html#a8c3df9a7b24aa874345db797a95e130e" target="_top" xlink:title=" ">
<polygon fill="white" stroke="#666666" points="558,-159 453,-159 453,-129 558,-129 558,-159"/>
<text text-anchor="start" x="461" y="-147" font-family="Roboto" font-size="10.00">Urho3D::UIElement::</text>
<text text-anchor="middle" x="505.5" y="-136" font-family="Roboto" font-size="10.00">GetWidth</text>
</a>
</g>
</g>
<!-- Node11&#45;&gt;Node13 -->
<g id="edge12" class="edge">
<title>Node11&#45;&gt;Node13</title>
<path fill="none" stroke="#63b8ff" d="M408.92,-144C419.37,-144 430.55,-144 441.45,-144"/>
<polygon fill="#63b8ff" stroke="#63b8ff" points="441.15,-147.5 451.15,-144 441.15,-140.5 441.15,-147.5"/>
</g>
<!-- Node14 -->
<g id="node14" class="node">
<title>Node14</title>
<g id="a_node14"><a xlink:href="_math_defs_8h.html#a8096c22c3716e172f685af2a5f5e26bb" target="_top" xlink:title=" ">
<polygon fill="white" stroke="#666666" points="542.5,-92.5 468.5,-92.5 468.5,-73.5 542.5,-73.5 542.5,-92.5"/>
<text text-anchor="middle" x="505.5" y="-80.5" font-family="Roboto" font-size="10.00">Urho3D::Max</text>
</a>
</g>
</g>
<!-- Node11&#45;&gt;Node14 -->
<g id="edge13" class="edge">
<title>Node11&#45;&gt;Node14</title>
<path fill="none" stroke="#63b8ff" d="M396.8,-128.52C403.52,-125.68 410.47,-122.76 417,-120 434.66,-112.55 454.31,-104.24 470.51,-97.39"/>
<polygon fill="#63b8ff" stroke="#63b8ff" points="471.87,-100.61 479.71,-93.49 469.14,-94.17 471.87,-100.61"/>
</g>
<!-- Node14&#45;&gt;Node14 -->
<g id="edge14" class="edge">
<title>Node14&#45;&gt;Node14</title>
<path fill="none" stroke="#63b8ff" d="M482.56,-92.87C472.1,-101.44 479.75,-110.5 505.5,-110.5 519.58,-110.5 528.25,-107.79 531.5,-103.93"/>
<polygon fill="#63b8ff" stroke="#63b8ff" points="534.89,-103.03 528.84,-94.33 528.14,-104.9 534.89,-103.03"/>
</g>
<!-- Node16&#45;&gt;Node14 -->
<g id="edge17" class="edge">
<title>Node16&#45;&gt;Node14</title>
<path fill="none" stroke="#63b8ff" d="M408.92,-91.6C424.45,-90.2 441.59,-88.66 457.01,-87.27"/>
<polygon fill="#63b8ff" stroke="#63b8ff" points="457.27,-90.76 466.91,-86.38 456.64,-83.79 457.27,-90.76"/>
</g>
<!-- Node17&#45;&gt;Node14 -->
<g id="edge19" class="edge">
<title>Node17&#45;&gt;Node14</title>
<path fill="none" stroke="#63b8ff" d="M408.92,-59.85C424.6,-63.65 441.92,-67.84 457.47,-71.61"/>
<polygon fill="#63b8ff" stroke="#63b8ff" points="456.41,-74.95 466.95,-73.9 458.05,-68.15 456.41,-74.95"/>
</g>
</g>
</svg>
