<?xml version="1.0" encoding="UTF-8" standalone="no"?>
<!DOCTYPE svg PUBLIC "-//W3C//DTD SVG 1.1//EN"
 "http://www.w3.org/Graphics/SVG/1.1/DTD/svg11.dtd">
<!-- Generated by graphviz version 7.0.3 (0)
 -->
<!-- Title: Urho3D::TileMap2D Pages: 1 -->
<svg width="115pt" height="302pt"
 viewBox="0.00 0.00 115.00 302.00" xmlns="http://www.w3.org/2000/svg" xmlns:xlink="http://www.w3.org/1999/xlink">
<g id="graph0" class="graph" transform="scale(1 1) rotate(0) translate(4 298)">
<title>Urho3D::TileMap2D</title>
<!-- Node1 -->
<g id="node1" class="node">
<title>Node1</title>
<g id="a_node1"><a xlink:title="Tile map component.">
<polygon fill="#999999" stroke="#666666" points="104.5,-19 2.5,-19 2.5,0 104.5,0 104.5,-19"/>
<text text-anchor="middle" x="53.5" y="-7" font-family="Roboto" font-size="10.00">Urho3D::TileMap2D</text>
</a>
</g>
</g>
<!-- Node2 -->
<g id="node2" class="node">
<title>Node2</title>
<g id="a_node2"><a xlink:href="class_urho3_d_1_1_component.html" target="_top" xlink:title=" ">
<polygon fill="white" stroke="#666666" points="107,-74 0,-74 0,-55 107,-55 107,-74"/>
<text text-anchor="middle" x="53.5" y="-62" font-family="Roboto" font-size="10.00">Urho3D::Component</text>
</a>
</g>
</g>
<!-- Node2&#45;&gt;Node1 -->
<g id="edge1" class="edge">
<title>Node2&#45;&gt;Node1</title>
<path fill="none" stroke="#63b8ff" d="M53.5,-43.35C53.5,-35.1 53.5,-25.97 53.5,-19.44"/>
<polygon fill="#63b8ff" stroke="#63b8ff" points="50,-43.23 53.5,-53.23 57,-43.23 50,-43.23"/>
</g>
<!-- Node3 -->
<g id="node3" class="node">
<title>Node3</title>
<g id="a_node3"><a xlink:href="class_urho3_d_1_1_animatable.html" target="_top" xlink:title="Base class for animatable object, an animatable object can be set animation on it&#39;s attributes,...">
<polygon fill="white" stroke="#666666" points="105.5,-129 1.5,-129 1.5,-110 105.5,-110 105.5,-129"/>
<text text-anchor="middle" x="53.5" y="-117" font-family="Roboto" font-size="10.00">Urho3D::Animatable</text>
</a>
</g>
</g>
<!-- Node3&#45;&gt;Node2 -->
<g id="edge2" class="edge">
<title>Node3&#45;&gt;Node2</title>
<path fill="none" stroke="#63b8ff" d="M53.5,-98.35C53.5,-90.1 53.5,-80.97 53.5,-74.44"/>
<polygon fill="#63b8ff" stroke="#63b8ff" points="50,-98.23 53.5,-108.23 57,-98.23 50,-98.23"/>
</g>
<!-- Node4 -->
<g id="node4" class="node">
<title>Node4</title>
<g id="a_node4"><a xlink:href="class_urho3_d_1_1_serializable.html" target="_top" xlink:title="Base class for objects with automatic serialization through attributes.">
<polygon fill="white" stroke="#666666" points="106,-184 1,-184 1,-165 106,-165 106,-184"/>
<text text-anchor="middle" x="53.5" y="-172" font-family="Roboto" font-size="10.00">Urho3D::Serializable</text>
</a>
</g>
</g>
<!-- Node4&#45;&gt;Node3 -->
<g id="edge3" class="edge">
<title>Node4&#45;&gt;Node3</title>
<path fill="none" stroke="#63b8ff" d="M53.5,-153.35C53.5,-145.1 53.5,-135.97 53.5,-129.44"/>
<polygon fill="#63b8ff" stroke="#63b8ff" points="50,-153.23 53.5,-163.23 57,-153.23 50,-153.23"/>
</g>
<!-- Node5 -->
<g id="node5" class="node">
<title>Node5</title>
<g id="a_node5"><a xlink:href="class_urho3_d_1_1_object.html" target="_top" xlink:title=" ">
<polygon fill="white" stroke="#666666" points="95,-239 12,-239 12,-220 95,-220 95,-239"/>
<text text-anchor="middle" x="53.5" y="-227" font-family="Roboto" font-size="10.00">Urho3D::Object</text>
</a>
</g>
</g>
<!-- Node5&#45;&gt;Node4 -->
<g id="edge4" class="edge">
<title>Node5&#45;&gt;Node4</title>
<path fill="none" stroke="#63b8ff" d="M53.5,-208.35C53.5,-200.1 53.5,-190.97 53.5,-184.44"/>
<polygon fill="#63b8ff" stroke="#63b8ff" points="50,-208.23 53.5,-218.23 57,-208.23 50,-208.23"/>
</g>
<!-- Node6 -->
<g id="node6" class="node">
<title>Node6</title>
<g id="a_node6"><a xlink:href="class_urho3_d_1_1_ref_counted.html" target="_top" xlink:title="Base class for intrusively reference&#45;counted objects. These are noncopyable and non&#45;assignable.">
<polygon fill="white" stroke="#666666" points="107,-294 0,-294 0,-275 107,-275 107,-294"/>
<text text-anchor="middle" x="53.5" y="-282" font-family="Roboto" font-size="10.00">Urho3D::RefCounted</text>
</a>
</g>
</g>
<!-- Node6&#45;&gt;Node5 -->
<g id="edge5" class="edge">
<title>Node6&#45;&gt;Node5</title>
<path fill="none" stroke="#63b8ff" d="M53.5,-263.35C53.5,-255.1 53.5,-245.97 53.5,-239.44"/>
<polygon fill="#63b8ff" stroke="#63b8ff" points="50,-263.23 53.5,-273.23 57,-263.23 50,-263.23"/>
</g>
</g>
</svg>
