<?xml version="1.0" encoding="UTF-8" standalone="no"?>
<!DOCTYPE svg PUBLIC "-//W3C//DTD SVG 1.1//EN"
 "http://www.w3.org/Graphics/SVG/1.1/DTD/svg11.dtd">
<!-- Generated by graphviz version 7.0.3 (0)
 -->
<!-- Title: Urho3D::XMLElement::IsNull Pages: 1 -->
<svg width="798pt" height="539pt"
 viewBox="0.00 0.00 798.00 539.00" xmlns="http://www.w3.org/2000/svg" xmlns:xlink="http://www.w3.org/1999/xlink">
<g id="graph0" class="graph" transform="scale(1 1) rotate(0) translate(4 535)">
<title>Urho3D::XMLElement::IsNull</title>
<!-- Node1 -->
<g id="node1" class="node">
<title>Node1</title>
<g id="a_node1"><a xlink:title=" ">
<polygon fill="#999999" stroke="#666666" points="790,-306 679,-306 679,-276 790,-276 790,-306"/>
<text text-anchor="start" x="687" y="-294" font-family="Roboto" font-size="10.00">Urho3D::XMLElement</text>
<text text-anchor="middle" x="734.5" y="-283" font-family="Roboto" font-size="10.00">::IsNull</text>
</a>
</g>
</g>
<!-- Node2 -->
<g id="node2" class="node">
<title>Node2</title>
<g id="a_node2"><a xlink:href="class_urho3_d_1_1_particle_effect.html#ad4c5be7e7d289782cd30729c55123baa" target="_top" xlink:title="Read a float range from an XML element.">
<polygon fill="white" stroke="#666666" points="625.5,-531 512.5,-531 512.5,-501 625.5,-501 625.5,-531"/>
<text text-anchor="start" x="520.5" y="-519" font-family="Roboto" font-size="10.00">Urho3D::ParticleEffect</text>
<text text-anchor="middle" x="569" y="-508" font-family="Roboto" font-size="10.00">::GetFloatMinMax</text>
</a>
</g>
</g>
<!-- Node1&#45;&gt;Node2 -->
<g id="edge1" class="edge">
<title>Node1&#45;&gt;Node2</title>
<path fill="none" stroke="#63b8ff" d="M727.98,-317.33C718,-358.8 693.16,-439.5 643,-487 637.26,-492.44 630.37,-496.9 623.15,-500.55"/>
<polygon fill="#63b8ff" stroke="#63b8ff" points="731.36,-318.27 730.18,-307.74 724.54,-316.71 731.36,-318.27"/>
</g>
<!-- Node3 -->
<g id="node3" class="node">
<title>Node3</title>
<g id="a_node3"><a xlink:href="class_urho3_d_1_1_particle_effect.html#a6dc4d9435d5a4231bbe2e062a8868a8c" target="_top" xlink:title="Load resource from XMLElement synchronously. Return true if successful.">
<polygon fill="white" stroke="#666666" points="448,-466 335,-466 335,-436 448,-436 448,-466"/>
<text text-anchor="start" x="343" y="-454" font-family="Roboto" font-size="10.00">Urho3D::ParticleEffect</text>
<text text-anchor="middle" x="391.5" y="-443" font-family="Roboto" font-size="10.00">::Load</text>
</a>
</g>
</g>
<!-- Node1&#45;&gt;Node3 -->
<g id="edge11" class="edge">
<title>Node1&#45;&gt;Node3</title>
<path fill="none" stroke="#63b8ff" d="M727.79,-316.96C717.89,-354.91 693.56,-424.24 643,-454 582.47,-489.63 498.61,-479.11 444.96,-466.49"/>
<polygon fill="#63b8ff" stroke="#63b8ff" points="731.07,-318.29 730.05,-307.74 724.27,-316.62 731.07,-318.29"/>
</g>
<!-- Node5 -->
<g id="node5" class="node">
<title>Node5</title>
<g id="a_node5"><a xlink:href="class_urho3_d_1_1_particle_effect.html#aa5d97729e6ada2433663415846e7c064" target="_top" xlink:title="Read a Vector2 range from an XML element.">
<polygon fill="white" stroke="#666666" points="625.5,-445 512.5,-445 512.5,-415 625.5,-415 625.5,-445"/>
<text text-anchor="start" x="520.5" y="-433" font-family="Roboto" font-size="10.00">Urho3D::ParticleEffect</text>
<text text-anchor="middle" x="569" y="-422" font-family="Roboto" font-size="10.00">::GetVector2MinMax</text>
</a>
</g>
</g>
<!-- Node1&#45;&gt;Node5 -->
<g id="edge4" class="edge">
<title>Node1&#45;&gt;Node5</title>
<path fill="none" stroke="#63b8ff" d="M719.66,-316.29C704.2,-342.32 676.84,-382.31 643,-406 637.75,-409.67 631.91,-412.81 625.87,-415.49"/>
<polygon fill="#63b8ff" stroke="#63b8ff" points="722.64,-318.13 724.61,-307.72 716.58,-314.64 722.64,-318.13"/>
</g>
<!-- Node6 -->
<g id="node6" class="node">
<title>Node6</title>
<g id="a_node6"><a xlink:href="class_urho3_d_1_1_particle_effect.html#a5b59cb70a3df1c8208c67d2fc8b06a6c" target="_top" xlink:title="Read a Vector3 from an XML element.">
<polygon fill="white" stroke="#666666" points="625.5,-397 512.5,-397 512.5,-367 625.5,-367 625.5,-397"/>
<text text-anchor="start" x="520.5" y="-385" font-family="Roboto" font-size="10.00">Urho3D::ParticleEffect</text>
<text text-anchor="middle" x="569" y="-374" font-family="Roboto" font-size="10.00">::GetVector3MinMax</text>
</a>
</g>
</g>
<!-- Node1&#45;&gt;Node6 -->
<g id="edge6" class="edge">
<title>Node1&#45;&gt;Node6</title>
<path fill="none" stroke="#63b8ff" d="M707.82,-313.5C690.47,-327.8 666.51,-345.84 643,-358 636.84,-361.19 630.17,-364.07 623.45,-366.64"/>
<polygon fill="#63b8ff" stroke="#63b8ff" points="709.69,-316.5 715.1,-307.39 705.19,-311.14 709.69,-316.5"/>
</g>
<!-- Node7 -->
<g id="node7" class="node">
<title>Node7</title>
<g id="a_node7"><a xlink:href="class_urho3_d_1_1_font_face_bitmap.html#aa7c66b38a3934b0ec5fa4b76afe01f2a" target="_top" xlink:title="Load font face.">
<polygon fill="white" stroke="#666666" points="632,-349 506,-349 506,-319 632,-319 632,-349"/>
<text text-anchor="start" x="514" y="-337" font-family="Roboto" font-size="10.00">Urho3D::FontFaceBitmap</text>
<text text-anchor="middle" x="569" y="-326" font-family="Roboto" font-size="10.00">::Load</text>
</a>
</g>
</g>
<!-- Node1&#45;&gt;Node7 -->
<g id="edge8" class="edge">
<title>Node1&#45;&gt;Node7</title>
<path fill="none" stroke="#63b8ff" d="M667.49,-308.36C654.64,-311.74 641.26,-315.26 628.68,-318.57"/>
<polygon fill="#63b8ff" stroke="#63b8ff" points="668.36,-311.75 677.14,-305.82 666.58,-304.98 668.36,-311.75"/>
</g>
<!-- Node8 -->
<g id="node8" class="node">
<title>Node8</title>
<g id="a_node8"><a xlink:href="class_urho3_d_1_1_material.html#a843c233ee44a1b2d1aaea55d989782fe" target="_top" xlink:title="Load from an XML element. Return true if successful.">
<polygon fill="white" stroke="#666666" points="628,-300.5 510,-300.5 510,-281.5 628,-281.5 628,-300.5"/>
<text text-anchor="middle" x="569" y="-288.5" font-family="Roboto" font-size="10.00">Urho3D::Material::Load</text>
</a>
</g>
</g>
<!-- Node1&#45;&gt;Node8 -->
<g id="edge9" class="edge">
<title>Node1&#45;&gt;Node8</title>
<path fill="none" stroke="#63b8ff" d="M667.42,-291C654.5,-291 641.04,-291 628.39,-291"/>
<polygon fill="#63b8ff" stroke="#63b8ff" points="667.09,-294.5 677.09,-291 667.09,-287.5 667.09,-294.5"/>
</g>
<!-- Node10 -->
<g id="node10" class="node">
<title>Node10</title>
<g id="a_node10"><a xlink:href="class_urho3_d_1_1_serializable.html#a725a0fc06d1b050525e2d02c5e7187ad" target="_top" xlink:title="Load from XML data. Return true if successful.">
<polygon fill="white" stroke="#666666" points="621.5,-263 516.5,-263 516.5,-233 621.5,-233 621.5,-263"/>
<text text-anchor="start" x="524.5" y="-251" font-family="Roboto" font-size="10.00">Urho3D::Serializable</text>
<text text-anchor="middle" x="569" y="-240" font-family="Roboto" font-size="10.00">::LoadXML</text>
</a>
</g>
</g>
<!-- Node1&#45;&gt;Node10 -->
<g id="edge12" class="edge">
<title>Node1&#45;&gt;Node10</title>
<path fill="none" stroke="#63b8ff" d="M667.69,-273.69C652.49,-269.69 636.51,-265.49 621.99,-261.67"/>
<polygon fill="#63b8ff" stroke="#63b8ff" points="666.58,-277.02 677.14,-276.18 668.36,-270.25 666.58,-277.02"/>
</g>
<!-- Node16 -->
<g id="node16" class="node">
<title>Node16</title>
<g id="a_node16"><a xlink:href="class_urho3_d_1_1_material.html#afb17e0a0301cbbdaaa9a258d53b1993b" target="_top" xlink:title="Save to an XML element. Return true if successful.">
<polygon fill="white" stroke="#666666" points="627,-214.5 511,-214.5 511,-195.5 627,-195.5 627,-214.5"/>
<text text-anchor="middle" x="569" y="-202.5" font-family="Roboto" font-size="10.00">Urho3D::Material::Save</text>
</a>
</g>
</g>
<!-- Node1&#45;&gt;Node16 -->
<g id="edge18" class="edge">
<title>Node1&#45;&gt;Node16</title>
<path fill="none" stroke="#63b8ff" d="M708.72,-268.55C691.42,-253.95 667.18,-235.56 643,-224 635.44,-220.38 627.1,-217.39 618.83,-214.93"/>
<polygon fill="#63b8ff" stroke="#63b8ff" points="706.09,-270.9 715.95,-274.79 710.66,-265.6 706.09,-270.9"/>
</g>
<!-- Node17 -->
<g id="node17" class="node">
<title>Node17</title>
<g id="a_node17"><a xlink:href="class_urho3_d_1_1_particle_effect.html#a9ace98e5fccc8ec89dfdf17f91fb67df" target="_top" xlink:title="Save resource to XMLElement. Return true if successful.">
<polygon fill="white" stroke="#666666" points="625.5,-177 512.5,-177 512.5,-147 625.5,-147 625.5,-177"/>
<text text-anchor="start" x="520.5" y="-165" font-family="Roboto" font-size="10.00">Urho3D::ParticleEffect</text>
<text text-anchor="middle" x="569" y="-154" font-family="Roboto" font-size="10.00">::Save</text>
</a>
</g>
</g>
<!-- Node1&#45;&gt;Node17 -->
<g id="edge19" class="edge">
<title>Node1&#45;&gt;Node17</title>
<path fill="none" stroke="#63b8ff" d="M717.78,-266.4C701.62,-242.94 674.45,-208.16 643,-187 637.55,-183.34 631.52,-180.16 625.32,-177.41"/>
<polygon fill="#63b8ff" stroke="#63b8ff" points="714.68,-268.07 723.16,-274.42 720.5,-264.17 714.68,-268.07"/>
</g>
<!-- Node18 -->
<g id="node18" class="node">
<title>Node18</title>
<g id="a_node18"><a xlink:href="class_urho3_d_1_1_serializable.html#a3fbac3aa471adea86dea09bfa4b3960f" target="_top" xlink:title="Save as XML data. Return true if successful.">
<polygon fill="white" stroke="#666666" points="621.5,-129 516.5,-129 516.5,-99 621.5,-99 621.5,-129"/>
<text text-anchor="start" x="524.5" y="-117" font-family="Roboto" font-size="10.00">Urho3D::Serializable</text>
<text text-anchor="middle" x="569" y="-106" font-family="Roboto" font-size="10.00">::SaveXML</text>
</a>
</g>
</g>
<!-- Node1&#45;&gt;Node18 -->
<g id="edge20" class="edge">
<title>Node1&#45;&gt;Node18</title>
<path fill="none" stroke="#63b8ff" d="M724.74,-265.02C711.99,-231.04 685.14,-171.88 643,-138 636.76,-132.98 629.44,-129 621.88,-125.84"/>
<polygon fill="#63b8ff" stroke="#63b8ff" points="721.32,-265.86 728.01,-274.08 727.9,-263.48 721.32,-265.86"/>
</g>
<!-- Node25 -->
<g id="node25" class="node">
<title>Node25</title>
<g id="a_node25"><a xlink:href="class_urho3_d_1_1_unknown_component.html#a6e2e9af0ae462c5baee7d4e7d56883da" target="_top" xlink:title="Save as XML data. Return true if successful.">
<polygon fill="white" stroke="#666666" points="643,-81 495,-81 495,-51 643,-51 643,-81"/>
<text text-anchor="start" x="503" y="-69" font-family="Roboto" font-size="10.00">Urho3D::UnknownComponent</text>
<text text-anchor="middle" x="569" y="-58" font-family="Roboto" font-size="10.00">::SaveXML</text>
</a>
</g>
</g>
<!-- Node1&#45;&gt;Node25 -->
<g id="edge30" class="edge">
<title>Node1&#45;&gt;Node25</title>
<path fill="none" stroke="#63b8ff" d="M728.71,-264.55C719.61,-221.79 695.81,-137.51 643,-90 639.33,-86.7 635.2,-83.85 630.81,-81.39"/>
<polygon fill="#63b8ff" stroke="#63b8ff" points="725.25,-265.08 730.65,-274.2 732.11,-263.7 725.25,-265.08"/>
</g>
<!-- Node2&#45;&gt;Node3 -->
<g id="edge2" class="edge">
<title>Node2&#45;&gt;Node3</title>
<path fill="none" stroke="#63b8ff" d="M515.93,-496.72C489.81,-487.04 458.6,-475.48 434.1,-466.41"/>
<polygon fill="#63b8ff" stroke="#63b8ff" points="514.4,-499.88 524.99,-500.07 516.83,-493.31 514.4,-499.88"/>
</g>
<!-- Node4 -->
<g id="node4" class="node">
<title>Node4</title>
<g id="a_node4"><a xlink:href="class_urho3_d_1_1_particle_effect.html#aa0d9efcb340d6a16860aef9d7cd9916f" target="_top" xlink:title="Load resource from stream. May be called from a worker thread. Return true if successful.">
<polygon fill="white" stroke="#666666" points="281,-466 168,-466 168,-436 281,-436 281,-466"/>
<text text-anchor="start" x="176" y="-454" font-family="Roboto" font-size="10.00">Urho3D::ParticleEffect</text>
<text text-anchor="middle" x="224.5" y="-443" font-family="Roboto" font-size="10.00">::BeginLoad</text>
</a>
</g>
</g>
<!-- Node3&#45;&gt;Node4 -->
<g id="edge3" class="edge">
<title>Node3&#45;&gt;Node4</title>
<path fill="none" stroke="#63b8ff" d="M323.14,-451C309.24,-451 294.74,-451 281.3,-451"/>
<polygon fill="#63b8ff" stroke="#63b8ff" points="323.13,-454.5 333.12,-451 323.12,-447.5 323.13,-454.5"/>
</g>
<!-- Node5&#45;&gt;Node3 -->
<g id="edge5" class="edge">
<title>Node5&#45;&gt;Node3</title>
<path fill="none" stroke="#63b8ff" d="M501.2,-437.99C483.73,-440.08 465.09,-442.31 448.27,-444.33"/>
<polygon fill="#63b8ff" stroke="#63b8ff" points="501.45,-441.49 510.97,-436.82 500.62,-434.54 501.45,-441.49"/>
</g>
<!-- Node6&#45;&gt;Node3 -->
<g id="edge7" class="edge">
<title>Node6&#45;&gt;Node3</title>
<path fill="none" stroke="#63b8ff" d="M507.83,-401.27C503.47,-402.82 499.16,-404.41 495,-406 471.41,-415.03 445.34,-426.5 425.4,-435.59"/>
<polygon fill="#63b8ff" stroke="#63b8ff" points="508.96,-404.58 517.26,-397.99 506.66,-397.97 508.96,-404.58"/>
</g>
<!-- Node9 -->
<g id="node9" class="node">
<title>Node9</title>
<g id="a_node9"><a xlink:href="class_urho3_d_1_1_material.html#a2ed97bf462e83b2587c88fbabd794229" target="_top" xlink:title="Finish resource loading. Always called from the main thread. Return true if successful.">
<polygon fill="white" stroke="#666666" points="459,-300.5 324,-300.5 324,-281.5 459,-281.5 459,-300.5"/>
<text text-anchor="middle" x="391.5" y="-288.5" font-family="Roboto" font-size="10.00">Urho3D::Material::EndLoad</text>
</a>
</g>
</g>
<!-- Node8&#45;&gt;Node9 -->
<g id="edge10" class="edge">
<title>Node8&#45;&gt;Node9</title>
<path fill="none" stroke="#63b8ff" d="M498.06,-291C485.35,-291 472.11,-291 459.48,-291"/>
<polygon fill="#63b8ff" stroke="#63b8ff" points="498.05,-294.5 508.05,-291 498.05,-287.5 498.05,-294.5"/>
</g>
<!-- Node11 -->
<g id="node11" class="node">
<title>Node11</title>
<g id="a_node11"><a xlink:href="class_urho3_d_1_1_animatable.html#afa12710c0500b10d8e68eb6f62847204" target="_top" xlink:title="Load from XML data. Return true if successful.">
<polygon fill="white" stroke="#666666" points="443.5,-263 339.5,-263 339.5,-233 443.5,-233 443.5,-263"/>
<text text-anchor="start" x="347.5" y="-251" font-family="Roboto" font-size="10.00">Urho3D::Animatable</text>
<text text-anchor="middle" x="391.5" y="-240" font-family="Roboto" font-size="10.00">::LoadXML</text>
</a>
</g>
</g>
<!-- Node10&#45;&gt;Node11 -->
<g id="edge13" class="edge">
<title>Node10&#45;&gt;Node11</title>
<path fill="none" stroke="#63b8ff" d="M505.04,-248C484.96,-248 462.99,-248 443.84,-248"/>
<polygon fill="#63b8ff" stroke="#63b8ff" points="504.78,-251.5 514.78,-248 504.78,-244.5 504.78,-251.5"/>
</g>
<!-- Node15 -->
<g id="node15" class="node">
<title>Node15</title>
<g id="a_node15"><a xlink:href="class_urho3_d_1_1_menu.html#a00efa90d9d6a5023541fffd71a38a984" target="_top" xlink:title="Load from XML data with style. Return true if successful.">
<polygon fill="white" stroke="#666666" points="455,-214.5 328,-214.5 328,-195.5 455,-195.5 455,-214.5"/>
<text text-anchor="middle" x="391.5" y="-202.5" font-family="Roboto" font-size="10.00">Urho3D::Menu::LoadXML</text>
</a>
</g>
</g>
<!-- Node10&#45;&gt;Node15 -->
<g id="edge17" class="edge">
<title>Node10&#45;&gt;Node15</title>
<path fill="none" stroke="#63b8ff" d="M505.16,-232.6C481.24,-226.74 454.63,-220.22 433.27,-214.99"/>
<polygon fill="#63b8ff" stroke="#63b8ff" points="504.28,-235.99 514.82,-234.97 505.94,-229.19 504.28,-235.99"/>
</g>
<!-- Node12 -->
<g id="node12" class="node">
<title>Node12</title>
<g id="a_node12"><a xlink:href="class_urho3_d_1_1_animated_model.html#a8132d5f7592e0beee39b8c68fc6d8603" target="_top" xlink:title="Load from XML data. Return true if successful.">
<polygon fill="white" stroke="#666666" points="287.5,-306 161.5,-306 161.5,-276 287.5,-276 287.5,-306"/>
<text text-anchor="start" x="169.5" y="-294" font-family="Roboto" font-size="10.00">Urho3D::AnimatedModel</text>
<text text-anchor="middle" x="224.5" y="-283" font-family="Roboto" font-size="10.00">::LoadXML</text>
</a>
</g>
</g>
<!-- Node11&#45;&gt;Node12 -->
<g id="edge14" class="edge">
<title>Node11&#45;&gt;Node12</title>
<path fill="none" stroke="#63b8ff" d="M328.47,-264.16C314.19,-267.89 299.02,-271.84 284.85,-275.53"/>
<polygon fill="#63b8ff" stroke="#63b8ff" points="328.94,-267.66 337.73,-261.75 327.17,-260.89 328.94,-267.66"/>
</g>
<!-- Node13 -->
<g id="node13" class="node">
<title>Node13</title>
<g id="a_node13"><a xlink:href="class_urho3_d_1_1_node.html#ab44e461de1af5859a176dfaa75ec95bd" target="_top" xlink:title="Load components from XML data and optionally load child nodes.">
<polygon fill="white" stroke="#666666" points="288,-257.5 161,-257.5 161,-238.5 288,-238.5 288,-257.5"/>
<text text-anchor="middle" x="224.5" y="-245.5" font-family="Roboto" font-size="10.00">Urho3D::Node::LoadXML</text>
</a>
</g>
</g>
<!-- Node11&#45;&gt;Node13 -->
<g id="edge15" class="edge">
<title>Node11&#45;&gt;Node13</title>
<path fill="none" stroke="#63b8ff" d="M328.02,-248C315.05,-248 301.37,-248 288.39,-248"/>
<polygon fill="#63b8ff" stroke="#63b8ff" points="327.68,-251.5 337.68,-248 327.68,-244.5 327.68,-251.5"/>
</g>
<!-- Node14 -->
<g id="node14" class="node">
<title>Node14</title>
<g id="a_node14"><a xlink:href="class_urho3_d_1_1_u_i_element.html#ae38f1a5383c92526b1d8ba66b2e50ea1" target="_top" xlink:title="Load from XML data with style. Return true if successful.">
<polygon fill="white" stroke="#666666" points="277,-220 172,-220 172,-190 277,-190 277,-220"/>
<text text-anchor="start" x="180" y="-208" font-family="Roboto" font-size="10.00">Urho3D::UIElement::</text>
<text text-anchor="middle" x="224.5" y="-197" font-family="Roboto" font-size="10.00">LoadXML</text>
</a>
</g>
</g>
<!-- Node11&#45;&gt;Node14 -->
<g id="edge16" class="edge">
<title>Node11&#45;&gt;Node14</title>
<path fill="none" stroke="#63b8ff" d="M328.35,-231.8C311.54,-227.42 293.52,-222.73 277.34,-218.51"/>
<polygon fill="#63b8ff" stroke="#63b8ff" points="327.17,-235.11 337.73,-234.25 328.94,-228.34 327.17,-235.11"/>
</g>
<!-- Node19 -->
<g id="node19" class="node">
<title>Node19</title>
<g id="a_node19"><a xlink:href="class_urho3_d_1_1_animatable.html#a6deb3ef91d5828dd64e67fbe88bac8bd" target="_top" xlink:title="Save as XML data. Return true if successful.">
<polygon fill="white" stroke="#666666" points="443.5,-129 339.5,-129 339.5,-99 443.5,-99 443.5,-129"/>
<text text-anchor="start" x="347.5" y="-117" font-family="Roboto" font-size="10.00">Urho3D::Animatable</text>
<text text-anchor="middle" x="391.5" y="-106" font-family="Roboto" font-size="10.00">::SaveXML</text>
</a>
</g>
</g>
<!-- Node18&#45;&gt;Node19 -->
<g id="edge21" class="edge">
<title>Node18&#45;&gt;Node19</title>
<path fill="none" stroke="#63b8ff" d="M505.04,-114C484.96,-114 462.99,-114 443.84,-114"/>
<polygon fill="#63b8ff" stroke="#63b8ff" points="504.78,-117.5 514.78,-114 504.78,-110.5 504.78,-117.5"/>
</g>
<!-- Node20 -->
<g id="node20" class="node">
<title>Node20</title>
<g id="a_node20"><a xlink:href="class_urho3_d_1_1_component.html#ab02324fafcfde655d1e7110dedb9134e" target="_top" xlink:title="Save as XML data. Return true if successful.">
<polygon fill="white" stroke="#666666" points="280,-172 169,-172 169,-142 280,-142 280,-172"/>
<text text-anchor="start" x="177" y="-160" font-family="Roboto" font-size="10.00">Urho3D::Component::</text>
<text text-anchor="middle" x="224.5" y="-149" font-family="Roboto" font-size="10.00">SaveXML</text>
</a>
</g>
</g>
<!-- Node19&#45;&gt;Node20 -->
<g id="edge22" class="edge">
<title>Node19&#45;&gt;Node20</title>
<path fill="none" stroke="#63b8ff" d="M328.48,-130.16C312.71,-134.27 295.88,-138.66 280.49,-142.67"/>
<polygon fill="#63b8ff" stroke="#63b8ff" points="328.94,-133.66 337.73,-127.75 327.17,-126.89 328.94,-133.66"/>
</g>
<!-- Node21 -->
<g id="node21" class="node">
<title>Node21</title>
<g id="a_node21"><a xlink:href="class_urho3_d_1_1_node.html#aee9138da9786316c8355e6bcec11a8cf" target="_top" xlink:title="Save as XML data. Return true if successful.">
<polygon fill="white" stroke="#666666" points="125,-144.5 0,-144.5 0,-125.5 125,-125.5 125,-144.5"/>
<text text-anchor="middle" x="62.5" y="-132.5" font-family="Roboto" font-size="10.00">Urho3D::Node::SaveXML</text>
</a>
</g>
</g>
<!-- Node19&#45;&gt;Node21 -->
<g id="edge25" class="edge">
<title>Node19&#45;&gt;Node21</title>
<path fill="none" stroke="#63b8ff" d="M327.78,-118.03C269.5,-121.77 183.21,-127.31 125.25,-131.03"/>
<polygon fill="#63b8ff" stroke="#63b8ff" points="327.78,-121.54 337.54,-117.4 327.33,-114.55 327.78,-121.54"/>
</g>
<!-- Node22 -->
<g id="node22" class="node">
<title>Node22</title>
<g id="a_node22"><a xlink:href="class_urho3_d_1_1_menu.html#a827fcf395930a1cdca3ab5db32885672" target="_top" xlink:title="Save as XML data. Return true if successful.">
<polygon fill="white" stroke="#666666" points="287,-85.5 162,-85.5 162,-66.5 287,-66.5 287,-85.5"/>
<text text-anchor="middle" x="224.5" y="-73.5" font-family="Roboto" font-size="10.00">Urho3D::Menu::SaveXML</text>
</a>
</g>
</g>
<!-- Node19&#45;&gt;Node22 -->
<g id="edge26" class="edge">
<title>Node19&#45;&gt;Node22</title>
<path fill="none" stroke="#63b8ff" d="M328.09,-99.63C308.29,-95.07 286.85,-90.13 268.72,-85.95"/>
<polygon fill="#63b8ff" stroke="#63b8ff" points="327.19,-103.01 337.72,-101.85 328.76,-96.19 327.19,-103.01"/>
</g>
<!-- Node23 -->
<g id="node23" class="node">
<title>Node23</title>
<g id="a_node23"><a xlink:href="class_urho3_d_1_1_u_i_element.html#aba2d5669c9b8aa49f4c7c4690adb3bfc" target="_top" xlink:title="Save as XML data. Return true if successful.">
<polygon fill="white" stroke="#666666" points="277,-30 172,-30 172,0 277,0 277,-30"/>
<text text-anchor="start" x="180" y="-18" font-family="Roboto" font-size="10.00">Urho3D::UIElement::</text>
<text text-anchor="middle" x="224.5" y="-7" font-family="Roboto" font-size="10.00">SaveXML</text>
</a>
</g>
</g>
<!-- Node19&#45;&gt;Node23 -->
<g id="edge27" class="edge">
<title>Node19&#45;&gt;Node23</title>
<path fill="none" stroke="#63b8ff" d="M355.08,-92.75C323.82,-73.99 279,-47.1 251.1,-30.36"/>
<polygon fill="#63b8ff" stroke="#63b8ff" points="353.05,-95.61 363.42,-97.75 356.65,-89.61 353.05,-95.61"/>
</g>
<!-- Node20&#45;&gt;Node21 -->
<g id="edge23" class="edge">
<title>Node20&#45;&gt;Node21</title>
<path fill="none" stroke="#63b8ff" d="M157.49,-147.92C146.84,-146.46 135.84,-144.95 125.29,-143.5"/>
<polygon fill="#63b8ff" stroke="#63b8ff" points="157,-151.39 167.39,-149.28 157.96,-144.45 157,-151.39"/>
</g>
<!-- Node21&#45;&gt;Node21 -->
<g id="edge24" class="edge">
<title>Node21&#45;&gt;Node21</title>
<path fill="none" stroke="#63b8ff" d="M91.55,-155.6C88.2,-159.63 78.52,-162.5 62.5,-162.5 34.02,-162.5 25.57,-153.44 37.14,-144.87"/>
<polygon fill="#63b8ff" stroke="#63b8ff" points="94.91,-154.62 88.35,-146.3 88.29,-156.89 94.91,-154.62"/>
</g>
<!-- Node23&#45;&gt;Node23 -->
<g id="edge29" class="edge">
<title>Node23&#45;&gt;Node23</title>
<path fill="none" stroke="#63b8ff" d="M251.83,-41.61C247.45,-45.43 238.34,-48 224.5,-48 199.19,-48 189.7,-39.41 196.02,-30.28"/>
<polygon fill="#63b8ff" stroke="#63b8ff" points="255.3,-42.08 252.82,-31.78 248.34,-41.38 255.3,-42.08"/>
</g>
<!-- Node24 -->
<g id="node24" class="node">
<title>Node24</title>
<g id="a_node24"><a xlink:href="class_urho3_d_1_1_u_i.html#a5cd07643076e6439a75cb6de7e038df9" target="_top" xlink:title="Save a UI layout to an XML file. Return true if successful.">
<polygon fill="white" stroke="#666666" points="122,-24.5 3,-24.5 3,-5.5 122,-5.5 122,-24.5"/>
<text text-anchor="middle" x="62.5" y="-12.5" font-family="Roboto" font-size="10.00">Urho3D::UI::SaveLayout</text>
</a>
</g>
</g>
<!-- Node23&#45;&gt;Node24 -->
<g id="edge28" class="edge">
<title>Node23&#45;&gt;Node24</title>
<path fill="none" stroke="#63b8ff" d="M160.28,-15C147.8,-15 134.74,-15 122.4,-15"/>
<polygon fill="#63b8ff" stroke="#63b8ff" points="160.04,-18.5 170.04,-15 160.04,-11.5 160.04,-18.5"/>
</g>
</g>
</svg>
