<?xml version="1.0" encoding="UTF-8" standalone="no"?>
<!DOCTYPE svg PUBLIC "-//W3C//DTD SVG 1.1//EN"
 "http://www.w3.org/Graphics/SVG/1.1/DTD/svg11.dtd">
<!-- Generated by graphviz version 7.0.3 (0)
 -->
<!-- Title: Urho3D::GPUObject Pages: 1 -->
<svg width="1294pt" height="1137pt"
 viewBox="0.00 0.00 1294.00 1137.00" xmlns="http://www.w3.org/2000/svg" xmlns:xlink="http://www.w3.org/1999/xlink">
<g id="graph0" class="graph" transform="scale(1 1) rotate(0) translate(4 1133)">
<title>Urho3D::GPUObject</title>
<!-- Node1 -->
<g id="node1" class="node">
<title>Node1</title>
<g id="a_node1"><a xlink:title="Base class for GPU resources.">
<polygon fill="#999999" stroke="#666666" points="306,-704.5 204,-704.5 204,-685.5 306,-685.5 306,-704.5"/>
<text text-anchor="middle" x="255" y="-692.5" font-family="Roboto" font-size="10.00">Urho3D::GPUObject</text>
</a>
</g>
</g>
<!-- Node56 -->
<g id="node15" class="node">
<title>Node56</title>
<g id="a_node15"><a xlink:href="class_urho3_d_1_1_vertex_buffer.html" target="_top" xlink:title="Hardware vertex buffer.">
<polygon fill="#fff0f0" stroke="red" points="833.5,-692.5 723.5,-692.5 723.5,-673.5 833.5,-673.5 833.5,-692.5"/>
<text text-anchor="middle" x="778.5" y="-680.5" font-family="Roboto" font-size="10.00">Urho3D::VertexBuffer</text>
</a>
</g>
</g>
<!-- Node1&#45;&gt;Node56 -->
<g id="edge19" class="edge">
<title>Node1&#45;&gt;Node56</title>
<path fill="none" stroke="#63b8ff" d="M317.91,-693.58C420.82,-691.21 625.4,-686.5 723.1,-684.25"/>
<polygon fill="#63b8ff" stroke="#63b8ff" points="317.91,-690.07 307.99,-693.8 318.07,-697.07 317.91,-690.07"/>
</g>
<!-- Node58 -->
<g id="node16" class="node">
<title>Node58</title>
<g id="a_node16"><a xlink:href="class_urho3_d_1_1_index_buffer.html" target="_top" xlink:title="Hardware index buffer.">
<polygon fill="#fff0f0" stroke="red" points="832,-616.5 725,-616.5 725,-597.5 832,-597.5 832,-616.5"/>
<text text-anchor="middle" x="778.5" y="-604.5" font-family="Roboto" font-size="10.00">Urho3D::IndexBuffer</text>
</a>
</g>
</g>
<!-- Node1&#45;&gt;Node58 -->
<g id="edge22" class="edge">
<title>Node1&#45;&gt;Node58</title>
<path fill="none" stroke="#63b8ff" d="M279.73,-678.7C305.22,-662.15 347.53,-637.4 388,-626 504.65,-593.15 648.6,-596.95 724.64,-602.21"/>
<polygon fill="#63b8ff" stroke="#63b8ff" points="277.87,-675.74 271.46,-684.18 281.73,-681.57 277.87,-675.74"/>
</g>
<!-- Node37 -->
<g id="node17" class="node">
<title>Node37</title>
<g id="a_node17"><a xlink:href="class_urho3_d_1_1_shader_variation.html" target="_top" xlink:title="Vertex or pixel shader on the GPU.">
<polygon fill="#fff0f0" stroke="red" points="841,-815.5 716,-815.5 716,-796.5 841,-796.5 841,-815.5"/>
<text text-anchor="middle" x="778.5" y="-803.5" font-family="Roboto" font-size="10.00">Urho3D::ShaderVariation</text>
</a>
</g>
</g>
<!-- Node1&#45;&gt;Node37 -->
<g id="edge24" class="edge">
<title>Node1&#45;&gt;Node37</title>
<path fill="none" stroke="#63b8ff" d="M284.09,-710.02C310.22,-723.23 350.62,-741.75 388,-751 501.86,-779.18 638.26,-794.3 715.7,-801.21"/>
<polygon fill="#63b8ff" stroke="#63b8ff" points="285.99,-707.06 275.5,-705.6 282.79,-713.29 285.99,-707.06"/>
</g>
<!-- Node59 -->
<g id="node19" class="node">
<title>Node59</title>
<g id="a_node19"><a xlink:href="class_urho3_d_1_1_texture.html" target="_top" xlink:title="Base class for texture resources.">
<polygon fill="#fff0f0" stroke="red" points="504,-742.5 417,-742.5 417,-723.5 504,-723.5 504,-742.5"/>
<text text-anchor="middle" x="460.5" y="-730.5" font-family="Roboto" font-size="10.00">Urho3D::Texture</text>
</a>
</g>
</g>
<!-- Node1&#45;&gt;Node59 -->
<g id="edge29" class="edge">
<title>Node1&#45;&gt;Node59</title>
<path fill="none" stroke="#63b8ff" d="M314.49,-707.15C317.71,-707.78 320.89,-708.41 324,-709 354.97,-714.93 390.03,-721.13 416.73,-725.74"/>
<polygon fill="#63b8ff" stroke="#63b8ff" points="315.5,-703.78 305.01,-705.26 314.13,-710.65 315.5,-703.78"/>
</g>
<!-- Node2 -->
<g id="node2" class="node">
<title>Node2</title>
<g id="a_node2"><a xlink:href="class_urho3_d_1_1_weak_ptr.html" target="_top" xlink:title=" ">
<polygon fill="white" stroke="#666666" points="1286,-601 1152,-601 1152,-571 1286,-571 1286,-601"/>
<text text-anchor="start" x="1160" y="-589" font-family="Roboto" font-size="10.00">Urho3D::WeakPtr&lt; Urho3D</text>
<text text-anchor="middle" x="1219" y="-578" font-family="Roboto" font-size="10.00">::Graphics &gt;</text>
</a>
</g>
</g>
<!-- Node2&#45;&gt;Node1 -->
<g id="edge1" class="edge">
<title>Node2&#45;&gt;Node1</title>
<path fill="none" stroke="#9a32cd" stroke-dasharray="5,2" d="M1216.3,-559.48C1208.29,-445.14 1169.49,0 1051.5,0 459.5,0 459.5,0 459.5,0 309.89,0 262.57,-600.7 256.66,-685.18"/>
<polygon fill="#9a32cd" stroke="#9a32cd" points="1212.79,-559.38 1216.96,-569.12 1219.77,-558.9 1212.79,-559.38"/>
<text text-anchor="middle" x="778.5" y="-3" font-family="Roboto" font-size="10.00"> graphics_</text>
</g>
<!-- Node3 -->
<g id="node3" class="node">
<title>Node3</title>
<g id="a_node3"><a xlink:href="class_urho3_d_1_1_graphics.html" target="_top" xlink:title="Graphics subsystem. Manages the application window, rendering state and GPU resources.">
<polygon fill="#fff0f0" stroke="red" points="1097,-595.5 1004,-595.5 1004,-576.5 1097,-576.5 1097,-595.5"/>
<text text-anchor="middle" x="1050.5" y="-583.5" font-family="Roboto" font-size="10.00">Urho3D::Graphics</text>
</a>
</g>
</g>
<!-- Node3&#45;&gt;Node2 -->
<g id="edge2" class="edge">
<title>Node3&#45;&gt;Node2</title>
<path fill="none" stroke="#9a32cd" stroke-dasharray="5,2" d="M1108.76,-586C1122.57,-586 1137.45,-586 1151.64,-586"/>
<polygon fill="#9a32cd" stroke="#9a32cd" points="1108.95,-582.5 1098.95,-586 1108.95,-589.5 1108.95,-582.5"/>
<text text-anchor="middle" x="1124.5" y="-589" font-family="Roboto" font-size="10.00"> ptr_</text>
</g>
<!-- Node4 -->
<g id="node4" class="node">
<title>Node4</title>
<g id="a_node4"><a xlink:href="class_urho3_d_1_1_object.html" target="_top" xlink:title=" ">
<polygon fill="#fff0f0" stroke="red" points="502,-654.5 419,-654.5 419,-635.5 502,-635.5 502,-654.5"/>
<text text-anchor="middle" x="460.5" y="-642.5" font-family="Roboto" font-size="10.00">Urho3D::Object</text>
</a>
</g>
</g>
<!-- Node4&#45;&gt;Node3 -->
<g id="edge3" class="edge">
<title>Node4&#45;&gt;Node3</title>
<path fill="none" stroke="#63b8ff" d="M513.81,-648.62C609.34,-653.78 817.69,-658.34 986,-615 1002.43,-610.77 1019.88,-602.49 1032.32,-595.86"/>
<polygon fill="#63b8ff" stroke="#63b8ff" points="514.15,-645.13 503.97,-648.06 513.76,-652.12 514.15,-645.13"/>
</g>
<!-- Node4&#45;&gt;Node56 -->
<g id="edge18" class="edge">
<title>Node4&#45;&gt;Node56</title>
<path fill="none" stroke="#63b8ff" d="M513.89,-651.47C526.07,-652.97 538.99,-654.55 551,-656 609.77,-663.11 677.15,-671.13 723.03,-676.56"/>
<polygon fill="#63b8ff" stroke="#63b8ff" points="514.34,-648 503.99,-650.25 513.49,-654.95 514.34,-648"/>
</g>
<!-- Node4&#45;&gt;Node58 -->
<g id="edge21" class="edge">
<title>Node4&#45;&gt;Node58</title>
<path fill="none" stroke="#63b8ff" d="M513.89,-638.53C526.07,-637.03 538.99,-635.45 551,-634 610.56,-626.79 678.95,-618.66 724.86,-613.22"/>
<polygon fill="#63b8ff" stroke="#63b8ff" points="513.49,-635.05 503.99,-639.75 514.34,-642 513.49,-635.05"/>
</g>
<!-- Node26 -->
<g id="node5" class="node">
<title>Node26</title>
<g id="a_node5"><a xlink:href="class_urho3_d_1_1_mutex.html" target="_top" xlink:title="Operating system mutual exclusion primitive.">
<polygon fill="white" stroke="#666666" points="820,-531.5 737,-531.5 737,-512.5 820,-512.5 820,-531.5"/>
<text text-anchor="middle" x="778.5" y="-519.5" font-family="Roboto" font-size="10.00">Urho3D::Mutex</text>
</a>
</g>
</g>
<!-- Node26&#45;&gt;Node3 -->
<g id="edge4" class="edge">
<title>Node26&#45;&gt;Node3</title>
<path fill="none" stroke="#9a32cd" stroke-dasharray="5,2" d="M831.64,-520.34C874.36,-520.6 935.74,-524.75 986,-543 1006.52,-550.45 1026.81,-566 1038.74,-576.22"/>
<polygon fill="#9a32cd" stroke="#9a32cd" points="831.89,-516.84 821.9,-520.35 831.9,-523.84 831.89,-516.84"/>
<text text-anchor="middle" x="929" y="-546" font-family="Roboto" font-size="10.00"> gpuObjectMutex_</text>
</g>
<!-- Node27 -->
<g id="node6" class="node">
<title>Node27</title>
<g id="a_node6"><a xlink:href="class_urho3_d_1_1_graphics_impl.html" target="_top" xlink:title="Graphics subsystem implementation. Holds API&#45;specific objects.">
<polygon fill="#fff0f0" stroke="red" points="835,-494.5 722,-494.5 722,-475.5 835,-475.5 835,-494.5"/>
<text text-anchor="middle" x="778.5" y="-482.5" font-family="Roboto" font-size="10.00">Urho3D::GraphicsImpl</text>
</a>
</g>
</g>
<!-- Node27&#45;&gt;Node3 -->
<g id="edge5" class="edge">
<title>Node27&#45;&gt;Node3</title>
<path fill="none" stroke="#9a32cd" stroke-dasharray="5,2" d="M846.39,-479.93C888.81,-479.63 943.5,-484.83 986,-508 1014.97,-523.8 1035.78,-558.78 1044.68,-576.02"/>
<polygon fill="#9a32cd" stroke="#9a32cd" points="846.5,-476.42 836.57,-480.11 846.63,-483.42 846.5,-476.42"/>
<text text-anchor="middle" x="929" y="-511" font-family="Roboto" font-size="10.00"> impl_</text>
</g>
<!-- Node41 -->
<g id="node7" class="node">
<title>Node41</title>
<g id="a_node7"><a xlink:href="class_urho3_d_1_1_string.html" target="_top" xlink:title="String class.">
<polygon fill="white" stroke="#666666" points="500.5,-858.5 420.5,-858.5 420.5,-839.5 500.5,-839.5 500.5,-858.5"/>
<text text-anchor="middle" x="460.5" y="-846.5" font-family="Roboto" font-size="10.00">Urho3D::String</text>
</a>
</g>
</g>
<!-- Node41&#45;&gt;Node3 -->
<g id="edge6" class="edge">
<title>Node41&#45;&gt;Node3</title>
<path fill="none" stroke="#9a32cd" stroke-dasharray="5,2" d="M511.93,-857.62C524.64,-859.44 538.29,-861.08 551,-862 599.31,-865.49 949.19,-864.49 986,-833 1023.43,-800.98 1043.76,-638.04 1048.45,-595.94"/>
<polygon fill="#9a32cd" stroke="#9a32cd" points="512.48,-854.17 502.07,-856.15 511.44,-861.09 512.48,-854.17"/>
<text text-anchor="middle" x="778.5" y="-943" font-family="Roboto" font-size="10.00"> apiName_</text>
<text text-anchor="middle" x="778.5" y="-932" font-family="Roboto" font-size="10.00">lastShaderName_</text>
<text text-anchor="middle" x="778.5" y="-921" font-family="Roboto" font-size="10.00">orientations_</text>
<text text-anchor="middle" x="778.5" y="-910" font-family="Roboto" font-size="10.00">shaderCacheDir_</text>
<text text-anchor="start" x="739" y="-899" font-family="Roboto" font-size="10.00">shaderExtension</text>
<text text-anchor="middle" x="778.5" y="-888" font-family="Roboto" font-size="10.00">_</text>
<text text-anchor="middle" x="778.5" y="-877" font-family="Roboto" font-size="10.00">shaderPath_</text>
<text text-anchor="middle" x="778.5" y="-866" font-family="Roboto" font-size="10.00">windowTitle_</text>
</g>
<!-- Node41&#45;&gt;Node41 -->
<g id="edge7" class="edge">
<title>Node41&#45;&gt;Node41</title>
<path fill="none" stroke="#9a32cd" stroke-dasharray="5,2" d="M440.35,-869.93C442.87,-873.79 449.59,-876.5 460.5,-876.5 480.45,-876.5 486.37,-867.44 478.27,-858.87"/>
<polygon fill="#9a32cd" stroke="#9a32cd" points="443.73,-870.86 442.41,-860.35 436.89,-869.39 443.73,-870.86"/>
<text text-anchor="middle" x="460.5" y="-879.5" font-family="Roboto" font-size="10.00"> EMPTY</text>
</g>
<!-- Node41&#45;&gt;Node37 -->
<g id="edge27" class="edge">
<title>Node41&#45;&gt;Node37</title>
<path fill="none" stroke="#9a32cd" stroke-dasharray="5,2" d="M494.83,-834.95C511.41,-828.62 531.94,-821.73 551,-818 606.07,-807.23 670.01,-804.73 715.89,-804.63"/>
<polygon fill="#9a32cd" stroke="#9a32cd" points="493.99,-831.52 485.97,-838.45 496.55,-838.04 493.99,-831.52"/>
<text text-anchor="middle" x="618" y="-854" font-family="Roboto" font-size="10.00"> compilerOutput_</text>
<text text-anchor="middle" x="618" y="-843" font-family="Roboto" font-size="10.00">definesClipPlane_</text>
<text text-anchor="middle" x="618" y="-832" font-family="Roboto" font-size="10.00">defines_</text>
<text text-anchor="middle" x="618" y="-821" font-family="Roboto" font-size="10.00">name_</text>
</g>
<!-- Node48 -->
<g id="node8" class="node">
<title>Node48</title>
<g id="a_node8"><a xlink:href="class_urho3_d_1_1_weak_ptr.html" target="_top" xlink:title=" ">
<polygon fill="white" stroke="orangered" points="685,-1038 551,-1038 551,-1008 685,-1008 685,-1038"/>
<text text-anchor="start" x="559" y="-1026" font-family="Roboto" font-size="10.00">Urho3D::WeakPtr&lt; Urho3D</text>
<text text-anchor="middle" x="618" y="-1015" font-family="Roboto" font-size="10.00">::Image &gt;</text>
</a>
</g>
</g>
<!-- Node48&#45;&gt;Node3 -->
<g id="edge8" class="edge">
<title>Node48&#45;&gt;Node3</title>
<path fill="none" stroke="#9a32cd" stroke-dasharray="5,2" d="M696.63,-1026.76C791.83,-1029.59 945.55,-1027.86 986,-990 1045.62,-934.21 1049.37,-652.56 1049.51,-595.93"/>
<polygon fill="#9a32cd" stroke="#9a32cd" points="696.95,-1023.26 686.84,-1026.44 696.72,-1030.26 696.95,-1023.26"/>
<text text-anchor="middle" x="778.5" y="-1031" font-family="Roboto" font-size="10.00"> windowIcon_</text>
</g>
<!-- Node6 -->
<g id="node9" class="node">
<title>Node6</title>
<g id="a_node9"><a xlink:href="struct_urho3_d_1_1_ref_count.html" target="_top" xlink:title="Reference count structure.">
<polygon fill="white" stroke="#666666" points="303,-1032.5 207,-1032.5 207,-1013.5 303,-1013.5 303,-1032.5"/>
<text text-anchor="middle" x="255" y="-1020.5" font-family="Roboto" font-size="10.00">Urho3D::RefCount</text>
</a>
</g>
</g>
<!-- Node6&#45;&gt;Node2 -->
<g id="edge39" class="edge">
<title>Node6&#45;&gt;Node2</title>
<path fill="none" stroke="#9a32cd" stroke-dasharray="5,2" d="M276.28,-1039.82C311.3,-1067.1 386.44,-1118 459.5,-1118 459.5,-1118 459.5,-1118 1051.5,-1118 1162.8,-1118 1208.5,-688.57 1216.64,-601.35"/>
<polygon fill="#9a32cd" stroke="#9a32cd" points="278.68,-1037.25 268.68,-1033.75 274.31,-1042.73 278.68,-1037.25"/>
<text text-anchor="middle" x="778.5" y="-1121" font-family="Roboto" font-size="10.00"> refCount_</text>
</g>
<!-- Node6&#45;&gt;Node48 -->
<g id="edge9" class="edge">
<title>Node6&#45;&gt;Node48</title>
<path fill="none" stroke="#9a32cd" stroke-dasharray="5,2" d="M314.4,-1023C379.08,-1023 483.14,-1023 550.79,-1023"/>
<polygon fill="#9a32cd" stroke="#9a32cd" points="314.71,-1019.5 304.71,-1023 314.71,-1026.5 314.71,-1019.5"/>
<text text-anchor="middle" x="347" y="-1026" font-family="Roboto" font-size="10.00"> refCount_</text>
</g>
<!-- Node38 -->
<g id="node18" class="node">
<title>Node38</title>
<g id="a_node18"><a xlink:href="class_urho3_d_1_1_weak_ptr.html" target="_top" xlink:title=" ">
<polygon fill="white" stroke="orangered" points="527.5,-991 393.5,-991 393.5,-961 527.5,-961 527.5,-991"/>
<text text-anchor="start" x="401.5" y="-979" font-family="Roboto" font-size="10.00">Urho3D::WeakPtr&lt; Urho3D</text>
<text text-anchor="middle" x="460.5" y="-968" font-family="Roboto" font-size="10.00">::Shader &gt;</text>
</a>
</g>
</g>
<!-- Node6&#45;&gt;Node38 -->
<g id="edge26" class="edge">
<title>Node6&#45;&gt;Node38</title>
<path fill="none" stroke="#9a32cd" stroke-dasharray="5,2" d="M282.37,-1007.53C294.63,-1001.05 309.65,-994.09 324,-990 346.06,-983.72 370.86,-980.19 393.15,-978.22"/>
<polygon fill="#9a32cd" stroke="#9a32cd" points="280.8,-1004.41 273.72,-1012.29 284.17,-1010.54 280.8,-1004.41"/>
<text text-anchor="middle" x="347" y="-993" font-family="Roboto" font-size="10.00"> refCount_</text>
</g>
<!-- Node51 -->
<g id="node10" class="node">
<title>Node51</title>
<g id="a_node10"><a xlink:href="struct_urho3_d_1_1_window_mode_params.html" target="_top" xlink:title="Window mode parameters.">
<polygon fill="white" stroke="#666666" points="854,-457.5 703,-457.5 703,-438.5 854,-438.5 854,-457.5"/>
<text text-anchor="middle" x="778.5" y="-445.5" font-family="Roboto" font-size="10.00">Urho3D::WindowModeParams</text>
</a>
</g>
</g>
<!-- Node51&#45;&gt;Node3 -->
<g id="edge10" class="edge">
<title>Node51&#45;&gt;Node3</title>
<path fill="none" stroke="#9a32cd" stroke-dasharray="5,2" d="M830.4,-435.98C875.08,-428.43 939.94,-425.04 986,-455 1029.65,-483.39 1044.17,-550.91 1048.17,-576.21"/>
<polygon fill="#9a32cd" stroke="#9a32cd" points="829.91,-432.51 820.7,-437.76 831.17,-439.4 829.91,-432.51"/>
<text text-anchor="middle" x="929" y="-469" font-family="Roboto" font-size="10.00"> primaryWindowMode_</text>
<text text-anchor="middle" x="929" y="-458" font-family="Roboto" font-size="10.00">secondaryWindowMode_</text>
</g>
<!-- Node52 -->
<g id="node11" class="node">
<title>Node52</title>
<g id="a_node11"><a xlink:href="struct_urho3_d_1_1_screen_mode_params.html" target="_top" xlink:title="Screen mode parameters.">
<polygon fill="white" stroke="#666666" points="533,-535.5 388,-535.5 388,-516.5 533,-516.5 533,-535.5"/>
<text text-anchor="middle" x="460.5" y="-523.5" font-family="Roboto" font-size="10.00">Urho3D::ScreenModeParams</text>
</a>
</g>
</g>
<!-- Node52&#45;&gt;Node3 -->
<g id="edge14" class="edge">
<title>Node52&#45;&gt;Node3</title>
<path fill="none" stroke="#9a32cd" stroke-dasharray="5,2" d="M544.39,-534.46C670.15,-547.29 904.96,-571.25 1003.8,-581.34"/>
<polygon fill="#9a32cd" stroke="#9a32cd" points="545.12,-531.01 534.81,-533.48 544.4,-537.98 545.12,-531.01"/>
<text text-anchor="middle" x="778.5" y="-569" font-family="Roboto" font-size="10.00"> screenParams_</text>
</g>
<!-- Node52&#45;&gt;Node51 -->
<g id="edge11" class="edge">
<title>Node52&#45;&gt;Node51</title>
<path fill="none" stroke="#9a32cd" stroke-dasharray="5,2" d="M512.13,-513.32C560.97,-501.11 637.02,-482.17 703,-466 713.73,-463.37 725.33,-460.56 736.11,-457.95"/>
<polygon fill="#9a32cd" stroke="#9a32cd" points="511.54,-509.86 502.69,-515.68 513.24,-516.65 511.54,-509.86"/>
<text text-anchor="middle" x="618" y="-506" font-family="Roboto" font-size="10.00"> screenParams_</text>
</g>
<!-- Node53 -->
<g id="node12" class="node">
<title>Node53</title>
<g id="a_node12"><a xlink:href="class_urho3_d_1_1_int_vector2.html" target="_top" xlink:title="Two&#45;dimensional vector with integer values.">
<polygon fill="white" stroke="#666666" points="829,-336.5 728,-336.5 728,-317.5 829,-317.5 829,-336.5"/>
<text text-anchor="middle" x="778.5" y="-324.5" font-family="Roboto" font-size="10.00">Urho3D::IntVector2</text>
</a>
</g>
</g>
<!-- Node53&#45;&gt;Node3 -->
<g id="edge12" class="edge">
<title>Node53&#45;&gt;Node3</title>
<path fill="none" stroke="#9a32cd" stroke-dasharray="5,2" d="M840.25,-339.55C885.88,-351.88 946.96,-374.98 986,-416 1031.61,-463.93 1045.12,-547.62 1048.5,-576.15"/>
<polygon fill="#9a32cd" stroke="#9a32cd" points="841.33,-336.21 830.77,-337.1 839.57,-342.99 841.33,-336.21"/>
<text text-anchor="middle" x="929" y="-419" font-family="Roboto" font-size="10.00"> position_</text>
</g>
<!-- Node53&#45;&gt;Node53 -->
<g id="edge13" class="edge">
<title>Node53&#45;&gt;Node53</title>
<path fill="none" stroke="#9a32cd" stroke-dasharray="5,2" d="M751.79,-347.93C755.13,-351.79 764.03,-354.5 778.5,-354.5 804.96,-354.5 812.81,-345.44 802.06,-336.87"/>
<polygon fill="#9a32cd" stroke="#9a32cd" points="755.15,-348.9 754.52,-338.32 748.42,-346.98 755.15,-348.9"/>
<text text-anchor="middle" x="778.5" y="-412.5" font-family="Roboto" font-size="10.00"> DOWN</text>
<text text-anchor="middle" x="778.5" y="-401.5" font-family="Roboto" font-size="10.00">LEFT</text>
<text text-anchor="middle" x="778.5" y="-390.5" font-family="Roboto" font-size="10.00">ONE</text>
<text text-anchor="middle" x="778.5" y="-379.5" font-family="Roboto" font-size="10.00">RIGHT</text>
<text text-anchor="middle" x="778.5" y="-368.5" font-family="Roboto" font-size="10.00">UP</text>
<text text-anchor="middle" x="778.5" y="-357.5" font-family="Roboto" font-size="10.00">ZERO</text>
</g>
<!-- Node54 -->
<g id="node13" class="node">
<title>Node54</title>
<g id="a_node13"><a xlink:href="class_urho3_d_1_1_p_o_d_vector.html" target="_top" xlink:title=" ">
<polygon fill="white" stroke="orangered" points="838,-299 719,-299 719,-269 838,-269 838,-299"/>
<text text-anchor="start" x="727" y="-287" font-family="Roboto" font-size="10.00">Urho3D::PODVector&lt;</text>
<text text-anchor="middle" x="778.5" y="-276" font-family="Roboto" font-size="10.00"> Urho3D::GPUObject * &gt;</text>
</a>
</g>
</g>
<!-- Node54&#45;&gt;Node3 -->
<g id="edge15" class="edge">
<title>Node54&#45;&gt;Node3</title>
<path fill="none" stroke="#9a32cd" stroke-dasharray="5,2" d="M849.46,-283.76C894.21,-287.38 950.35,-299.55 986,-335 1021.46,-370.26 1043.25,-533.83 1048.34,-576.04"/>
<polygon fill="#9a32cd" stroke="#9a32cd" points="849.78,-280.27 839.57,-283.1 849.31,-287.26 849.78,-280.27"/>
<text text-anchor="middle" x="929" y="-338" font-family="Roboto" font-size="10.00"> gpuObjects_</text>
</g>
<!-- Node55 -->
<g id="node14" class="node">
<title>Node55</title>
<g id="a_node14"><a xlink:href="class_urho3_d_1_1_vector.html" target="_top" xlink:title=" ">
<polygon fill="white" stroke="orangered" points="841,-251 716,-251 716,-221 841,-221 841,-251"/>
<text text-anchor="start" x="724" y="-239" font-family="Roboto" font-size="10.00">Urho3D::Vector&lt; Urho3D</text>
<text text-anchor="middle" x="778.5" y="-228" font-family="Roboto" font-size="10.00">::ScratchBuffer &gt;</text>
</a>
</g>
</g>
<!-- Node55&#45;&gt;Node3 -->
<g id="edge16" class="edge">
<title>Node55&#45;&gt;Node3</title>
<path fill="none" stroke="#9a32cd" stroke-dasharray="5,2" d="M852.76,-229.57C896.99,-229.85 951.34,-238.26 986,-272 1031.13,-315.93 1046.11,-527.93 1048.96,-576.2"/>
<polygon fill="#9a32cd" stroke="#9a32cd" points="852.93,-226.06 842.97,-229.65 853,-233.06 852.93,-226.06"/>
<text text-anchor="middle" x="929" y="-275" font-family="Roboto" font-size="10.00"> scratchBuffers_</text>
</g>
<!-- Node56&#45;&gt;Node3 -->
<g id="edge17" class="edge">
<title>Node56&#45;&gt;Node3</title>
<path fill="none" stroke="#9a32cd" stroke-dasharray="5,2" d="M845.3,-687.22C887.74,-687.17 942.87,-681.75 986,-659 1013.78,-644.35 1034.86,-612.15 1044.2,-595.86"/>
<polygon fill="#9a32cd" stroke="#9a32cd" points="845.51,-683.72 835.48,-687.12 845.44,-690.72 845.51,-683.72"/>
<text text-anchor="middle" x="929" y="-690" font-family="Roboto" font-size="10.00"> vertexBuffers_</text>
</g>
<!-- Node58&#45;&gt;Node3 -->
<g id="edge20" class="edge">
<title>Node58&#45;&gt;Node3</title>
<path fill="none" stroke="#9a32cd" stroke-dasharray="5,2" d="M843.37,-602.03C892.65,-598.2 959.62,-592.99 1003.67,-589.56"/>
<polygon fill="#9a32cd" stroke="#9a32cd" points="843.41,-598.52 833.71,-602.78 843.95,-605.5 843.41,-598.52"/>
<text text-anchor="middle" x="929" y="-603" font-family="Roboto" font-size="10.00"> indexBuffer_</text>
</g>
<!-- Node37&#45;&gt;Node3 -->
<g id="edge23" class="edge">
<title>Node37&#45;&gt;Node3</title>
<path fill="none" stroke="#9a32cd" stroke-dasharray="5,2" d="M852.81,-806.83C903.75,-805.9 965.97,-801.25 986,-785 1046.55,-735.87 1050.18,-628.9 1049.79,-595.9"/>
<polygon fill="#9a32cd" stroke="#9a32cd" points="852.93,-803.33 842.98,-806.96 853.02,-810.33 852.93,-803.33"/>
<text text-anchor="middle" x="929" y="-821" font-family="Roboto" font-size="10.00"> pixelShader_</text>
<text text-anchor="middle" x="929" y="-810" font-family="Roboto" font-size="10.00">vertexShader_</text>
</g>
<!-- Node38&#45;&gt;Node3 -->
<g id="edge37" class="edge">
<title>Node38&#45;&gt;Node3</title>
<path fill="none" stroke="#9a32cd" stroke-dasharray="5,2" d="M539.08,-984.28C620.14,-990.07 749.77,-991.15 854,-954 922.33,-929.64 945.9,-918.45 986,-858 1044.7,-769.5 1049.44,-633.36 1049.58,-595.86"/>
<polygon fill="#9a32cd" stroke="#9a32cd" points="539.72,-980.82 529.49,-983.55 539.19,-987.8 539.72,-980.82"/>
<text text-anchor="middle" x="778.5" y="-987" font-family="Roboto" font-size="10.00"> lastShader_</text>
</g>
<!-- Node38&#45;&gt;Node37 -->
<g id="edge25" class="edge">
<title>Node38&#45;&gt;Node37</title>
<path fill="none" stroke="#9a32cd" stroke-dasharray="5,2" d="M526,-956.83C574.7,-939.63 640.51,-910.21 685,-866 697.69,-853.39 689.43,-841.65 703,-830 710.11,-823.89 718.81,-819.33 727.71,-815.93"/>
<polygon fill="#9a32cd" stroke="#9a32cd" points="525.01,-953.47 516.69,-960.04 527.29,-960.09 525.01,-953.47"/>
<text text-anchor="middle" x="618" y="-949" font-family="Roboto" font-size="10.00"> owner_</text>
</g>
<!-- Node59&#45;&gt;Node3 -->
<g id="edge28" class="edge">
<title>Node59&#45;&gt;Node3</title>
<path fill="none" stroke="#9a32cd" stroke-dasharray="5,2" d="M515.67,-732.74C641.72,-731.72 947,-726.7 986,-702 1025.18,-677.19 1042.07,-619.31 1047.45,-595.99"/>
<polygon fill="#9a32cd" stroke="#9a32cd" points="515.88,-729.24 505.91,-732.81 515.94,-736.24 515.88,-729.24"/>
<text text-anchor="middle" x="778.5" y="-733" font-family="Roboto" font-size="10.00"> textures_</text>
</g>
<!-- Node66 -->
<g id="node21" class="node">
<title>Node66</title>
<g id="a_node21"><a xlink:href="class_urho3_d_1_1_render_surface.html" target="_top" xlink:title="Color or depth&#45;stencil surface that can be rendered into.">
<polygon fill="#fff0f0" stroke="red" points="839,-777.5 718,-777.5 718,-758.5 839,-758.5 839,-777.5"/>
<text text-anchor="middle" x="778.5" y="-765.5" font-family="Roboto" font-size="10.00">Urho3D::RenderSurface</text>
</a>
</g>
</g>
<!-- Node59&#45;&gt;Node66 -->
<g id="edge32" class="edge">
<title>Node59&#45;&gt;Node66</title>
<path fill="none" stroke="#9a32cd" stroke-dasharray="5,2" d="M515.59,-738.99C571.76,-745.21 659.42,-754.92 717.64,-761.37"/>
<polygon fill="#9a32cd" stroke="#9a32cd" points="516.27,-735.55 505.95,-737.92 515.5,-742.5 516.27,-735.55"/>
<text text-anchor="middle" x="618" y="-761" font-family="Roboto" font-size="10.00"> parentTexture_</text>
</g>
<!-- Node65 -->
<g id="node20" class="node">
<title>Node65</title>
<g id="a_node20"><a xlink:href="class_urho3_d_1_1_hash_map.html" target="_top" xlink:title=" ">
<polygon fill="white" stroke="orangered" points="848,-203 709,-203 709,-173 848,-173 848,-203"/>
<text text-anchor="start" x="717" y="-191" font-family="Roboto" font-size="10.00">Urho3D::HashMap&lt; Urho3D</text>
<text text-anchor="middle" x="778.5" y="-180" font-family="Roboto" font-size="10.00">::String, TextureUnit &gt;</text>
</a>
</g>
</g>
<!-- Node65&#45;&gt;Node3 -->
<g id="edge30" class="edge">
<title>Node65&#45;&gt;Node3</title>
<path fill="none" stroke="#9a32cd" stroke-dasharray="5,2" d="M859.57,-177.84C902.49,-177.04 953.15,-184.28 986,-216 1039.69,-267.83 1048.14,-523 1049.32,-576.25"/>
<polygon fill="#9a32cd" stroke="#9a32cd" points="859.65,-174.33 849.78,-178.18 859.9,-181.33 859.65,-174.33"/>
<text text-anchor="middle" x="929" y="-219" font-family="Roboto" font-size="10.00"> textureUnits_</text>
</g>
<!-- Node66&#45;&gt;Node3 -->
<g id="edge31" class="edge">
<title>Node66&#45;&gt;Node3</title>
<path fill="none" stroke="#9a32cd" stroke-dasharray="5,2" d="M850.7,-761.85C906.07,-756.49 975.25,-748.3 986,-740 1033.85,-703.07 1045.89,-623.8 1048.7,-595.93"/>
<polygon fill="#9a32cd" stroke="#9a32cd" points="850.6,-758.35 840.98,-762.78 851.27,-765.32 850.6,-758.35"/>
<text text-anchor="middle" x="929" y="-774" font-family="Roboto" font-size="10.00"> depthStencil_</text>
<text text-anchor="middle" x="929" y="-763" font-family="Roboto" font-size="10.00">renderTargets_</text>
</g>
<!-- Node69 -->
<g id="node22" class="node">
<title>Node69</title>
<g id="a_node22"><a xlink:href="class_urho3_d_1_1_int_rect.html" target="_top" xlink:title="Two&#45;dimensional bounding rectangle with integer values.">
<polygon fill="white" stroke="#666666" points="821.5,-125.5 735.5,-125.5 735.5,-106.5 821.5,-106.5 821.5,-125.5"/>
<text text-anchor="middle" x="778.5" y="-113.5" font-family="Roboto" font-size="10.00">Urho3D::IntRect</text>
</a>
</g>
</g>
<!-- Node69&#45;&gt;Node3 -->
<g id="edge33" class="edge">
<title>Node69&#45;&gt;Node3</title>
<path fill="none" stroke="#9a32cd" stroke-dasharray="5,2" d="M832.85,-109.48C879.89,-106.95 946.85,-111.76 986,-152 1047.34,-215.04 1049.68,-517.68 1049.56,-576.2"/>
<polygon fill="#9a32cd" stroke="#9a32cd" points="832.9,-105.96 823.16,-110.13 833.38,-112.95 832.9,-105.96"/>
<text text-anchor="middle" x="929" y="-166" font-family="Roboto" font-size="10.00"> scissorRect_</text>
<text text-anchor="middle" x="929" y="-155" font-family="Roboto" font-size="10.00">viewport_</text>
</g>
<!-- Node69&#45;&gt;Node69 -->
<g id="edge34" class="edge">
<title>Node69&#45;&gt;Node69</title>
<path fill="none" stroke="#9a32cd" stroke-dasharray="5,2" d="M751.79,-136.93C755.13,-140.79 764.03,-143.5 778.5,-143.5 804.96,-143.5 812.81,-134.44 802.06,-125.87"/>
<polygon fill="#9a32cd" stroke="#9a32cd" points="755.15,-137.9 754.52,-127.32 748.42,-135.98 755.15,-137.9"/>
<text text-anchor="middle" x="778.5" y="-146.5" font-family="Roboto" font-size="10.00"> ZERO</text>
</g>
<!-- Node70 -->
<g id="node23" class="node">
<title>Node70</title>
<g id="a_node23"><a xlink:href="class_urho3_d_1_1_vector4.html" target="_top" xlink:title="Four&#45;dimensional vector.">
<polygon fill="white" stroke="#666666" points="823,-48.5 734,-48.5 734,-29.5 823,-29.5 823,-48.5"/>
<text text-anchor="middle" x="778.5" y="-36.5" font-family="Roboto" font-size="10.00">Urho3D::Vector4</text>
</a>
</g>
</g>
<!-- Node70&#45;&gt;Node3 -->
<g id="edge35" class="edge">
<title>Node70&#45;&gt;Node3</title>
<path fill="none" stroke="#9a32cd" stroke-dasharray="5,2" d="M834.41,-38.09C881.87,-40.48 948.55,-52.07 986,-95 1051.68,-170.3 1050.44,-513.82 1049.65,-576.25"/>
<polygon fill="#9a32cd" stroke="#9a32cd" points="834.73,-34.59 824.61,-37.72 834.47,-41.59 834.73,-34.59"/>
<text text-anchor="middle" x="929" y="-98" font-family="Roboto" font-size="10.00"> clipPlane_</text>
</g>
<!-- Node70&#45;&gt;Node70 -->
<g id="edge36" class="edge">
<title>Node70&#45;&gt;Node70</title>
<path fill="none" stroke="#9a32cd" stroke-dasharray="5,2" d="M751.79,-59.93C755.13,-63.79 764.03,-66.5 778.5,-66.5 804.96,-66.5 812.81,-57.44 802.06,-48.87"/>
<polygon fill="#9a32cd" stroke="#9a32cd" points="755.15,-60.9 754.52,-50.32 748.42,-58.98 755.15,-60.9"/>
<text text-anchor="middle" x="778.5" y="-80.5" font-family="Roboto" font-size="10.00"> ONE</text>
<text text-anchor="middle" x="778.5" y="-69.5" font-family="Roboto" font-size="10.00">ZERO</text>
</g>
<!-- Node71 -->
<g id="node24" class="node">
<title>Node71</title>
<g id="a_node24"><a xlink:href="class_urho3_d_1_1_shared_ptr.html" target="_top" xlink:title=" ">
<polygon fill="white" stroke="orangered" points="847,-1082 710,-1082 710,-1052 847,-1052 847,-1082"/>
<text text-anchor="start" x="718" y="-1070" font-family="Roboto" font-size="10.00">Urho3D::SharedPtr&lt;</text>
<text text-anchor="middle" x="778.5" y="-1059" font-family="Roboto" font-size="10.00"> Urho3D::ShaderPrecache &gt;</text>
</a>
</g>
</g>
<!-- Node71&#45;&gt;Node3 -->
<g id="edge38" class="edge">
<title>Node71&#45;&gt;Node3</title>
<path fill="none" stroke="#9a32cd" stroke-dasharray="5,2" d="M858.62,-1076.65C901.98,-1077.31 953.39,-1069.76 986,-1037 1050.58,-972.14 1050.29,-655.78 1049.64,-595.82"/>
<polygon fill="#9a32cd" stroke="#9a32cd" points="858.83,-1073.16 848.72,-1076.34 858.61,-1080.15 858.83,-1073.16"/>
<text text-anchor="middle" x="929" y="-1080" font-family="Roboto" font-size="10.00"> shaderPrecache_</text>
</g>
<!-- Node78 -->
<g id="node25" class="node">
<title>Node78</title>
<g id="a_node25"><a xlink:href="union_urho3_d_1_1_g_p_u_object_handle.html" target="_top" xlink:title="API&#45;specific GPU object representation.">
<polygon fill="white" stroke="#666666" points="134,-704.5 0,-704.5 0,-685.5 134,-685.5 134,-704.5"/>
<text text-anchor="middle" x="67" y="-692.5" font-family="Roboto" font-size="10.00">Urho3D::GPUObjectHandle</text>
</a>
</g>
</g>
<!-- Node78&#45;&gt;Node1 -->
<g id="edge40" class="edge">
<title>Node78&#45;&gt;Node1</title>
<path fill="none" stroke="#9a32cd" stroke-dasharray="5,2" d="M145.77,-695C165.37,-695 185.9,-695 203.75,-695"/>
<polygon fill="#9a32cd" stroke="#9a32cd" points="145.88,-691.5 135.88,-695 145.88,-698.5 145.88,-691.5"/>
<text text-anchor="middle" x="169" y="-698" font-family="Roboto" font-size="10.00"> object_</text>
</g>
</g>
</svg>
