<?xml version="1.0" encoding="UTF-8" standalone="no"?>
<!DOCTYPE svg PUBLIC "-//W3C//DTD SVG 1.1//EN"
 "http://www.w3.org/Graphics/SVG/1.1/DTD/svg11.dtd">
<!-- Generated by graphviz version 7.0.3 (0)
 -->
<!-- Title: Urho3D::Node::SetParent Pages: 1 -->
<svg width="709pt" height="598pt"
 viewBox="0.00 0.00 709.00 598.00" xmlns="http://www.w3.org/2000/svg" xmlns:xlink="http://www.w3.org/1999/xlink">
<g id="graph0" class="graph" transform="scale(1 1) rotate(0) translate(4 594)">
<title>Urho3D::Node::SetParent</title>
<!-- Node1 -->
<g id="node1" class="node">
<title>Node1</title>
<g id="a_node1"><a xlink:title=" ">
<polygon fill="#999999" stroke="#666666" points="126,-168.5 0,-168.5 0,-149.5 126,-149.5 126,-168.5"/>
<text text-anchor="middle" x="63" y="-156.5" font-family="Roboto" font-size="10.00">Urho3D::Node::SetParent</text>
</a>
</g>
</g>
<!-- Node2 -->
<g id="node2" class="node">
<title>Node2</title>
<g id="a_node2"><a xlink:href="class_urho3_d_1_1_node.html#aefe578aa19c22b27311a4377239cca01" target="_top" xlink:title="Add a child scene node at a specific index. If index is not explicitly specified or is greater than c...">
<polygon fill="white" stroke="#666666" points="311,-346.5 186,-346.5 186,-327.5 311,-327.5 311,-346.5"/>
<text text-anchor="middle" x="248.5" y="-334.5" font-family="Roboto" font-size="10.00">Urho3D::Node::AddChild</text>
</a>
</g>
</g>
<!-- Node1&#45;&gt;Node2 -->
<g id="edge1" class="edge">
<title>Node1&#45;&gt;Node2</title>
<path fill="none" stroke="#63b8ff" d="M73.59,-168.98C90.98,-187 128.95,-226.07 162,-258 184.4,-279.64 210.82,-303.86 228.3,-319.71"/>
<polygon fill="#63b8ff" stroke="#63b8ff" points="225.67,-322.05 235.44,-326.16 230.37,-316.86 225.67,-322.05"/>
</g>
<!-- Node50 -->
<g id="node20" class="node">
<title>Node50</title>
<g id="a_node20"><a xlink:href="class_urho3_d_1_1_node.html#a2eb3e2cda5c98b2a92d95fcca8e43fbb" target="_top" xlink:title=" ">
<polygon fill="white" stroke="#666666" points="335,-211.5 162,-211.5 162,-192.5 335,-192.5 335,-211.5"/>
<text text-anchor="middle" x="248.5" y="-199.5" font-family="Roboto" font-size="10.00">Urho3D::Node::GetWorldTransform</text>
</a>
</g>
</g>
<!-- Node1&#45;&gt;Node50 -->
<g id="edge25" class="edge">
<title>Node1&#45;&gt;Node50</title>
<path fill="none" stroke="#63b8ff" d="M103.53,-168.89C121.37,-173.29 142.72,-178.5 162,-183 171.26,-185.16 181.1,-187.4 190.68,-189.55"/>
<polygon fill="#63b8ff" stroke="#63b8ff" points="189.76,-192.93 200.28,-191.7 191.28,-186.1 189.76,-192.93"/>
</g>
<!-- Node51 -->
<g id="node21" class="node">
<title>Node51</title>
<g id="a_node21"><a xlink:href="class_urho3_d_1_1_matrix3x4.html#a8d184f29d81512103ed020bc0da8a69b" target="_top" xlink:title="Return inverse.">
<polygon fill="white" stroke="#666666" points="300.5,-174 196.5,-174 196.5,-144 300.5,-144 300.5,-174"/>
<text text-anchor="start" x="204.5" y="-162" font-family="Roboto" font-size="10.00">Urho3D::Matrix3x4::</text>
<text text-anchor="middle" x="248.5" y="-151" font-family="Roboto" font-size="10.00">Inverse</text>
</a>
</g>
</g>
<!-- Node1&#45;&gt;Node51 -->
<g id="edge26" class="edge">
<title>Node1&#45;&gt;Node51</title>
<path fill="none" stroke="#63b8ff" d="M126.38,-159C145.22,-159 165.91,-159 184.78,-159"/>
<polygon fill="#63b8ff" stroke="#63b8ff" points="184.74,-162.5 194.74,-159 184.74,-155.5 184.74,-162.5"/>
</g>
<!-- Node52 -->
<g id="node22" class="node">
<title>Node52</title>
<g id="a_node22"><a xlink:href="class_urho3_d_1_1_matrix3x4.html#a4e420dc4d1429c92a437853fcf7bc5f8" target="_top" xlink:title="Return the rotation part.">
<polygon fill="white" stroke="#666666" points="300.5,-126 196.5,-126 196.5,-96 300.5,-96 300.5,-126"/>
<text text-anchor="start" x="204.5" y="-114" font-family="Roboto" font-size="10.00">Urho3D::Matrix3x4::</text>
<text text-anchor="middle" x="248.5" y="-103" font-family="Roboto" font-size="10.00">Rotation</text>
</a>
</g>
</g>
<!-- Node1&#45;&gt;Node52 -->
<g id="edge27" class="edge">
<title>Node1&#45;&gt;Node52</title>
<path fill="none" stroke="#63b8ff" d="M102.02,-149.05C126.12,-142.75 157.85,-134.45 185.52,-127.21"/>
<polygon fill="#63b8ff" stroke="#63b8ff" points="186.05,-130.69 194.84,-124.78 184.28,-123.92 186.05,-130.69"/>
</g>
<!-- Node53 -->
<g id="node23" class="node">
<title>Node53</title>
<g id="a_node23"><a xlink:href="class_urho3_d_1_1_matrix3x4.html#a0cdac780b2a7ea2077287c6b7a6ea631" target="_top" xlink:title="Return the scaling part.">
<polygon fill="white" stroke="#666666" points="300.5,-78 196.5,-78 196.5,-48 300.5,-48 300.5,-78"/>
<text text-anchor="start" x="204.5" y="-66" font-family="Roboto" font-size="10.00">Urho3D::Matrix3x4::</text>
<text text-anchor="middle" x="248.5" y="-55" font-family="Roboto" font-size="10.00">Scale</text>
</a>
</g>
</g>
<!-- Node1&#45;&gt;Node53 -->
<g id="edge28" class="edge">
<title>Node1&#45;&gt;Node53</title>
<path fill="none" stroke="#63b8ff" d="M74.61,-149.16C91.73,-133.77 127.08,-104.02 162,-87 169.34,-83.42 177.29,-80.3 185.3,-77.59"/>
<polygon fill="#63b8ff" stroke="#63b8ff" points="186.27,-80.96 194.76,-74.62 184.17,-74.28 186.27,-80.96"/>
</g>
<!-- Node54 -->
<g id="node24" class="node">
<title>Node54</title>
<g id="a_node24"><a xlink:href="class_urho3_d_1_1_node.html#af7fc2b6d072cd23a0b7b87e509d010fd" target="_top" xlink:title="Set both position and rotation in parent space as an atomic operation. This is faster than setting po...">
<polygon fill="white" stroke="#666666" points="321,-248.5 176,-248.5 176,-229.5 321,-229.5 321,-248.5"/>
<text text-anchor="middle" x="248.5" y="-236.5" font-family="Roboto" font-size="10.00">Urho3D::Node::SetTransform</text>
</a>
</g>
</g>
<!-- Node1&#45;&gt;Node54 -->
<g id="edge29" class="edge">
<title>Node1&#45;&gt;Node54</title>
<path fill="none" stroke="#63b8ff" d="M76.55,-168.78C94.5,-182.29 128.98,-206.51 162,-220 167.54,-222.26 173.4,-224.28 179.35,-226.07"/>
<polygon fill="#63b8ff" stroke="#63b8ff" points="178.08,-229.35 188.65,-228.66 179.95,-222.61 178.08,-229.35"/>
</g>
<!-- Node55 -->
<g id="node25" class="node">
<title>Node55</title>
<g id="a_node25"><a xlink:href="class_urho3_d_1_1_matrix3x4.html#a30a35295a4d931ac923e4fc0bdb10502" target="_top" xlink:title="Return the translation part.">
<polygon fill="white" stroke="#666666" points="300.5,-30 196.5,-30 196.5,0 300.5,0 300.5,-30"/>
<text text-anchor="start" x="204.5" y="-18" font-family="Roboto" font-size="10.00">Urho3D::Matrix3x4::</text>
<text text-anchor="middle" x="248.5" y="-7" font-family="Roboto" font-size="10.00">Translation</text>
</a>
</g>
</g>
<!-- Node1&#45;&gt;Node55 -->
<g id="edge32" class="edge">
<title>Node1&#45;&gt;Node55</title>
<path fill="none" stroke="#63b8ff" d="M69.17,-149.21C81.81,-126.27 116.55,-68.77 162,-39 169.08,-34.36 177.07,-30.61 185.23,-27.57"/>
<polygon fill="#63b8ff" stroke="#63b8ff" points="186.19,-30.94 194.58,-24.46 183.98,-24.3 186.19,-30.94"/>
</g>
<!-- Node3 -->
<g id="node3" class="node">
<title>Node3</title>
<g id="a_node3"><a xlink:href="class_urho3_d_1_1_object.html#a69af51cfa67f9626273b35a6d501e03e" target="_top" xlink:title="Return a preallocated map for event data. Used for optimization to avoid constant re&#45;allocation of ev...">
<polygon fill="white" stroke="#666666" points="506.5,-583 381.5,-583 381.5,-553 506.5,-553 506.5,-583"/>
<text text-anchor="start" x="389.5" y="-571" font-family="Roboto" font-size="10.00">Urho3D::Object::GetEvent</text>
<text text-anchor="middle" x="444" y="-560" font-family="Roboto" font-size="10.00">DataMap</text>
</a>
</g>
</g>
<!-- Node2&#45;&gt;Node3 -->
<g id="edge2" class="edge">
<title>Node2&#45;&gt;Node3</title>
<path fill="none" stroke="#63b8ff" d="M253.74,-346.76C267.15,-376.72 311.27,-468.8 371,-526 379.31,-533.96 389.4,-541.02 399.37,-546.98"/>
<polygon fill="#63b8ff" stroke="#63b8ff" points="397.48,-549.94 407.9,-551.82 400.93,-543.85 397.48,-549.94"/>
</g>
<!-- Node16 -->
<g id="node5" class="node">
<title>Node16</title>
<g id="a_node5"><a xlink:href="class_urho3_d_1_1_node.html#ad3742cda838a2b291daa44d3ab00de56" target="_top" xlink:title=" ">
<polygon fill="white" stroke="#666666" points="690,-541.5 564,-541.5 564,-522.5 690,-522.5 690,-541.5"/>
<text text-anchor="middle" x="627" y="-529.5" font-family="Roboto" font-size="10.00">Urho3D::Node::GetScene</text>
</a>
</g>
</g>
<!-- Node2&#45;&gt;Node16 -->
<g id="edge4" class="edge">
<title>Node2&#45;&gt;Node16</title>
<path fill="none" stroke="#63b8ff" d="M255.83,-346.83C271.93,-371.05 317.06,-433.92 371,-466 426.77,-499.17 499.07,-515.85 552.43,-524.12"/>
<polygon fill="#63b8ff" stroke="#63b8ff" points="551.62,-527.54 562.02,-525.54 552.64,-520.62 551.62,-527.54"/>
</g>
<!-- Node17 -->
<g id="node6" class="node">
<title>Node17</title>
<g id="a_node6"><a xlink:href="class_urho3_d_1_1_node.html#a694f0e597e47193dc169cd672db60b08" target="_top" xlink:title="Return whether is a direct or indirect child of specified node.">
<polygon fill="white" stroke="#666666" points="506.5,-401.5 381.5,-401.5 381.5,-382.5 506.5,-382.5 506.5,-401.5"/>
<text text-anchor="middle" x="444" y="-389.5" font-family="Roboto" font-size="10.00">Urho3D::Node::IsChildOf</text>
</a>
</g>
</g>
<!-- Node2&#45;&gt;Node17 -->
<g id="edge5" class="edge">
<title>Node2&#45;&gt;Node17</title>
<path fill="none" stroke="#63b8ff" d="M280.59,-346.94C305.06,-354.65 340.08,-365.43 371,-374 377.36,-375.76 384.07,-377.54 390.71,-379.26"/>
<polygon fill="#63b8ff" stroke="#63b8ff" points="389.76,-382.63 400.32,-381.7 391.49,-375.85 389.76,-382.63"/>
</g>
<!-- Node18 -->
<g id="node7" class="node">
<title>Node18</title>
<g id="a_node7"><a xlink:href="class_urho3_d_1_1_node.html#a729772e9f5530a69584e7c3a6a8722ce" target="_top" xlink:title="Mark node and child nodes to need world transform recalculation. Notify listener components.">
<polygon fill="white" stroke="#666666" points="508,-205.5 380,-205.5 380,-186.5 508,-186.5 508,-205.5"/>
<text text-anchor="middle" x="444" y="-193.5" font-family="Roboto" font-size="10.00">Urho3D::Node::MarkDirty</text>
</a>
</g>
</g>
<!-- Node2&#45;&gt;Node18 -->
<g id="edge6" class="edge">
<title>Node2&#45;&gt;Node18</title>
<path fill="none" stroke="#63b8ff" d="M261,-327.21C277.83,-312.7 309.91,-284.34 335,-258 352.19,-239.95 349.96,-228.36 371,-215 373.71,-213.28 376.57,-211.71 379.53,-210.29"/>
<polygon fill="#63b8ff" stroke="#63b8ff" points="380.61,-213.63 388.49,-206.55 377.92,-207.17 380.61,-213.63"/>
</g>
<!-- Node20 -->
<g id="node9" class="node">
<title>Node20</title>
<g id="a_node9"><a xlink:href="class_urho3_d_1_1_node.html#a9c4864e96c873752bed6b1f178888fde" target="_top" xlink:title="Mark for attribute check on the next network update.">
<polygon fill="white" stroke="#666666" points="517,-254 371,-254 371,-224 517,-224 517,-254"/>
<text text-anchor="start" x="379" y="-242" font-family="Roboto" font-size="10.00">Urho3D::Node::MarkNetwork</text>
<text text-anchor="middle" x="444" y="-231" font-family="Roboto" font-size="10.00">Update</text>
</a>
</g>
</g>
<!-- Node2&#45;&gt;Node20 -->
<g id="edge8" class="edge">
<title>Node2&#45;&gt;Node20</title>
<path fill="none" stroke="#63b8ff" d="M263.55,-327.23C285.65,-312.19 330.21,-283.08 371,-264 375,-262.13 379.18,-260.32 383.42,-258.59"/>
<polygon fill="#63b8ff" stroke="#63b8ff" points="384.58,-261.9 392.63,-255.01 382.04,-255.37 384.58,-261.9"/>
</g>
<!-- Node24 -->
<g id="node12" class="node">
<title>Node24</title>
<g id="a_node12"><a xlink:href="class_urho3_d_1_1_scene.html#af7c4ba456a0fdbd205c063761126b02e" target="_top" xlink:title="Node added. Assign scene pointer and add to ID map.">
<polygon fill="#fff0f0" stroke="red" points="514.5,-438.5 373.5,-438.5 373.5,-419.5 514.5,-419.5 514.5,-438.5"/>
<text text-anchor="middle" x="444" y="-426.5" font-family="Roboto" font-size="10.00">Urho3D::Scene::NodeAdded</text>
</a>
</g>
</g>
<!-- Node2&#45;&gt;Node24 -->
<g id="edge12" class="edge">
<title>Node2&#45;&gt;Node24</title>
<path fill="none" stroke="#63b8ff" d="M262.63,-346.85C284.17,-362.58 328.84,-393.37 371,-411 375.1,-412.71 379.39,-414.29 383.76,-415.74"/>
<polygon fill="#63b8ff" stroke="#63b8ff" points="382.67,-419.06 393.26,-418.63 384.71,-412.37 382.67,-419.06"/>
</g>
<!-- Node43 -->
<g id="node18" class="node">
<title>Node43</title>
<g id="a_node18"><a xlink:href="class_urho3_d_1_1_node.html#a3ffe2c6ea129ee77f6d2ed1d4a67f41f" target="_top" xlink:title="Remove a child scene node.">
<polygon fill="white" stroke="#666666" points="515.5,-346.5 372.5,-346.5 372.5,-327.5 515.5,-327.5 515.5,-346.5"/>
<text text-anchor="middle" x="444" y="-334.5" font-family="Roboto" font-size="10.00">Urho3D::Node::RemoveChild</text>
</a>
</g>
</g>
<!-- Node2&#45;&gt;Node43 -->
<g id="edge21" class="edge">
<title>Node2&#45;&gt;Node43</title>
<path fill="none" stroke="#63b8ff" d="M311.26,-337C326.98,-337 344.14,-337 360.71,-337"/>
<polygon fill="#63b8ff" stroke="#63b8ff" points="360.55,-340.5 370.55,-337 360.55,-333.5 360.55,-340.5"/>
</g>
<!-- Node49 -->
<g id="node19" class="node">
<title>Node49</title>
<g id="a_node19"><a xlink:href="class_urho3_d_1_1_object.html#a32020dbf77c196b9777eca479e8abb36" target="_top" xlink:title="Send event to all subscribers.">
<polygon fill="white" stroke="#666666" points="510.5,-291.5 377.5,-291.5 377.5,-272.5 510.5,-272.5 510.5,-291.5"/>
<text text-anchor="middle" x="444" y="-279.5" font-family="Roboto" font-size="10.00">Urho3D::Object::SendEvent</text>
</a>
</g>
</g>
<!-- Node2&#45;&gt;Node49 -->
<g id="edge23" class="edge">
<title>Node2&#45;&gt;Node49</title>
<path fill="none" stroke="#63b8ff" d="M284.54,-327.04C316.09,-318.07 362.65,-304.84 397.15,-295.03"/>
<polygon fill="#63b8ff" stroke="#63b8ff" points="397.77,-298.49 406.44,-292.39 395.86,-291.76 397.77,-298.49"/>
</g>
<!-- Node4 -->
<g id="node4" class="node">
<title>Node4</title>
<g id="a_node4"><a xlink:href="class_urho3_d_1_1_context.html#acb628095602a49ade116c4761ab44004" target="_top" xlink:title="Return a preallocated map for event data. Used for optimization to avoid constant re&#45;allocation of ev...">
<polygon fill="#fff0f0" stroke="red" points="693,-590 561,-590 561,-560 693,-560 693,-590"/>
<text text-anchor="start" x="569" y="-578" font-family="Roboto" font-size="10.00">Urho3D::Context::GetEvent</text>
<text text-anchor="middle" x="627" y="-567" font-family="Roboto" font-size="10.00">DataMap</text>
</a>
</g>
</g>
<!-- Node3&#45;&gt;Node4 -->
<g id="edge3" class="edge">
<title>Node3&#45;&gt;Node4</title>
<path fill="none" stroke="#63b8ff" d="M506.78,-570.39C520.52,-570.92 535.24,-571.49 549.49,-572.04"/>
<polygon fill="#63b8ff" stroke="#63b8ff" points="549.15,-575.53 559.28,-572.42 549.42,-568.54 549.15,-575.53"/>
</g>
<!-- Node19 -->
<g id="node8" class="node">
<title>Node19</title>
<g id="a_node8"><a xlink:href="class_urho3_d_1_1_component.html#ab49b4b66b2eb1601cf166972fe42e5ce" target="_top" xlink:title="Handle scene node transform dirtied.">
<polygon fill="white" stroke="#666666" points="682.5,-204 571.5,-204 571.5,-174 682.5,-174 682.5,-204"/>
<text text-anchor="start" x="579.5" y="-192" font-family="Roboto" font-size="10.00">Urho3D::Component::</text>
<text text-anchor="middle" x="627" y="-181" font-family="Roboto" font-size="10.00">OnMarkedDirty</text>
</a>
</g>
</g>
<!-- Node18&#45;&gt;Node19 -->
<g id="edge7" class="edge">
<title>Node18&#45;&gt;Node19</title>
<path fill="none" stroke="#63b8ff" d="M508.31,-193.55C524.95,-192.91 542.96,-192.21 559.75,-191.56"/>
<polygon fill="#63b8ff" stroke="#63b8ff" points="559.79,-195.06 569.65,-191.18 559.52,-188.07 559.79,-195.06"/>
</g>
<!-- Node21 -->
<g id="node10" class="node">
<title>Node21</title>
<g id="a_node10"><a xlink:href="class_urho3_d_1_1_node.html#a9db232116d4278bd3e10c365d2ef57d5" target="_top" xlink:title=" ">
<polygon fill="#fff0f0" stroke="red" points="696,-241.5 558,-241.5 558,-222.5 696,-222.5 696,-241.5"/>
<text text-anchor="middle" x="627" y="-229.5" font-family="Roboto" font-size="10.00">Urho3D::Node::IsReplicated</text>
</a>
</g>
</g>
<!-- Node20&#45;&gt;Node21 -->
<g id="edge9" class="edge">
<title>Node20&#45;&gt;Node21</title>
<path fill="none" stroke="#63b8ff" d="M517.32,-236.2C526.87,-235.83 536.71,-235.45 546.38,-235.08"/>
<polygon fill="#63b8ff" stroke="#63b8ff" points="546.25,-238.59 556.11,-234.7 545.98,-231.59 546.25,-238.59"/>
</g>
<!-- Node23 -->
<g id="node11" class="node">
<title>Node23</title>
<g id="a_node11"><a xlink:href="class_urho3_d_1_1_scene.html#a00b724dfff718639b9de12d71139499c" target="_top" xlink:title="Mark for attribute check on the next network update.">
<polygon fill="white" stroke="#666666" points="701,-290 553,-290 553,-260 701,-260 701,-290"/>
<text text-anchor="start" x="561" y="-278" font-family="Roboto" font-size="10.00">Urho3D::Scene::MarkNetwork</text>
<text text-anchor="middle" x="627" y="-267" font-family="Roboto" font-size="10.00">Update</text>
</a>
</g>
</g>
<!-- Node20&#45;&gt;Node23 -->
<g id="edge10" class="edge">
<title>Node20&#45;&gt;Node23</title>
<path fill="none" stroke="#63b8ff" d="M517.32,-253.38C525.21,-254.95 533.3,-256.56 541.33,-258.16"/>
<polygon fill="#63b8ff" stroke="#63b8ff" points="540.64,-261.59 551.13,-260.11 542.01,-254.73 540.64,-261.59"/>
</g>
<!-- Node23&#45;&gt;Node23 -->
<g id="edge11" class="edge">
<title>Node23&#45;&gt;Node23</title>
<path fill="none" stroke="#63b8ff" d="M594.83,-290.28C587.68,-299.41 598.41,-308 627,-308 642.64,-308 652.93,-305.43 657.88,-301.61"/>
<polygon fill="#63b8ff" stroke="#63b8ff" points="661.34,-302.11 659,-291.78 654.39,-301.32 661.34,-302.11"/>
</g>
<!-- Node24&#45;&gt;Node16 -->
<g id="edge18" class="edge">
<title>Node24&#45;&gt;Node16</title>
<path fill="none" stroke="#63b8ff" d="M454.43,-438.79C472.09,-456.53 512.05,-494 553,-514 556.28,-515.6 559.72,-517.07 563.24,-518.42"/>
<polygon fill="#63b8ff" stroke="#63b8ff" points="561.95,-521.67 572.55,-521.59 564.21,-515.05 561.95,-521.67"/>
</g>
<!-- Node24&#45;&gt;Node23 -->
<g id="edge19" class="edge">
<title>Node24&#45;&gt;Node23</title>
<path fill="none" stroke="#63b8ff" d="M504.74,-419.14C509.17,-416.93 513.34,-414.25 517,-411 550.49,-381.33 523.93,-351.01 553,-317 560.05,-308.75 569.15,-301.75 578.52,-295.98"/>
<polygon fill="#63b8ff" stroke="#63b8ff" points="580.03,-299.14 586.98,-291.15 576.56,-293.06 580.03,-299.14"/>
</g>
<!-- Node24&#45;&gt;Node24 -->
<g id="edge20" class="edge">
<title>Node24&#45;&gt;Node24</title>
<path fill="none" stroke="#63b8ff" d="M415.35,-438.87C402.28,-447.44 411.83,-456.5 444,-456.5 462.09,-456.5 473.03,-453.63 476.81,-449.6"/>
<polygon fill="#63b8ff" stroke="#63b8ff" points="480.08,-448.34 473.2,-440.28 473.55,-450.87 480.08,-448.34"/>
</g>
<!-- Node25 -->
<g id="node13" class="node">
<title>Node25</title>
<g id="a_node13"><a xlink:href="class_urho3_d_1_1_vector.html#aa20f23bae4cf1d7cda06f6c3b47c7504" target="_top" xlink:title="Return iterator to the beginning.">
<polygon fill="#fff0f0" stroke="red" points="683.5,-393.5 570.5,-393.5 570.5,-374.5 683.5,-374.5 683.5,-393.5"/>
<text text-anchor="middle" x="627" y="-381.5" font-family="Roboto" font-size="10.00">Urho3D::Vector::Begin</text>
</a>
</g>
</g>
<!-- Node24&#45;&gt;Node25 -->
<g id="edge13" class="edge">
<title>Node24&#45;&gt;Node25</title>
<path fill="none" stroke="#63b8ff" d="M485.17,-419.01C511.65,-412.43 546.56,-403.75 575,-396.68"/>
<polygon fill="#63b8ff" stroke="#63b8ff" points="575.61,-400.13 584.47,-394.32 573.92,-393.34 575.61,-400.13"/>
</g>
<!-- Node27 -->
<g id="node14" class="node">
<title>Node27</title>
<g id="a_node14"><a xlink:href="class_urho3_d_1_1_scene.html#a6b1a145dd07c1d09ac9126c35577aa09" target="_top" xlink:title="Component added. Add to ID map.">
<polygon fill="#fff0f0" stroke="red" points="696,-356 558,-356 558,-326 696,-326 696,-356"/>
<text text-anchor="start" x="566" y="-344" font-family="Roboto" font-size="10.00">Urho3D::Scene::Component</text>
<text text-anchor="middle" x="627" y="-333" font-family="Roboto" font-size="10.00">Added</text>
</a>
</g>
</g>
<!-- Node24&#45;&gt;Node27 -->
<g id="edge14" class="edge">
<title>Node24&#45;&gt;Node27</title>
<path fill="none" stroke="#63b8ff" d="M500.42,-419.14C506.25,-416.95 511.9,-414.27 517,-411 538.56,-397.17 532.05,-380.74 553,-366 555.22,-364.44 557.54,-362.97 559.94,-361.58"/>
<polygon fill="#63b8ff" stroke="#63b8ff" points="561.49,-364.72 568.81,-357.06 558.31,-358.49 561.49,-364.72"/>
</g>
<!-- Node33 -->
<g id="node15" class="node">
<title>Node33</title>
<g id="a_node15"><a xlink:href="class_urho3_d_1_1_vector.html#a83b3a48f0d5d0aae79aa6b6304cde595" target="_top" xlink:title="Return whether vector is empty.">
<polygon fill="white" stroke="#666666" points="685,-504.5 569,-504.5 569,-485.5 685,-485.5 685,-504.5"/>
<text text-anchor="middle" x="627" y="-492.5" font-family="Roboto" font-size="10.00">Urho3D::Vector::Empty</text>
</a>
</g>
</g>
<!-- Node24&#45;&gt;Node33 -->
<g id="edge15" class="edge">
<title>Node24&#45;&gt;Node33</title>
<path fill="none" stroke="#63b8ff" d="M464.49,-438.92C485.8,-449.46 521.17,-466.1 553,-477 558.34,-478.83 563.96,-480.56 569.62,-482.16"/>
<polygon fill="#63b8ff" stroke="#63b8ff" points="568.44,-485.47 579.01,-484.7 570.26,-478.71 568.44,-485.47"/>
</g>
<!-- Node34 -->
<g id="node16" class="node">
<title>Node34</title>
<g id="a_node16"><a xlink:href="class_urho3_d_1_1_vector.html#af79ffb0683568b08fe130ee028bfd1ef" target="_top" xlink:title="Return iterator to the end.">
<polygon fill="#fff0f0" stroke="red" points="680,-467.5 574,-467.5 574,-448.5 680,-448.5 680,-467.5"/>
<text text-anchor="middle" x="627" y="-455.5" font-family="Roboto" font-size="10.00">Urho3D::Vector::End</text>
</a>
</g>
</g>
<!-- Node24&#45;&gt;Node34 -->
<g id="edge16" class="edge">
<title>Node24&#45;&gt;Node34</title>
<path fill="none" stroke="#63b8ff" d="M507.29,-438.98C525.07,-441.83 544.47,-444.94 562.34,-447.8"/>
<polygon fill="#63b8ff" stroke="#63b8ff" points="561.61,-451.23 572.03,-449.35 562.71,-444.32 561.61,-451.23"/>
</g>
<!-- Node35 -->
<g id="node17" class="node">
<title>Node35</title>
<g id="a_node17"><a xlink:href="class_urho3_d_1_1_node.html#a609638715475a7611a09f06825cbaf8b" target="_top" xlink:title="Return immediate child scene nodes.">
<polygon fill="white" stroke="#666666" points="694.5,-430.5 559.5,-430.5 559.5,-411.5 694.5,-411.5 694.5,-430.5"/>
<text text-anchor="middle" x="627" y="-418.5" font-family="Roboto" font-size="10.00">Urho3D::Node::GetChildren</text>
</a>
</g>
</g>
<!-- Node24&#45;&gt;Node35 -->
<g id="edge17" class="edge">
<title>Node24&#45;&gt;Node35</title>
<path fill="none" stroke="#63b8ff" d="M514.98,-425.91C525.76,-425.43 536.95,-424.94 547.89,-424.45"/>
<polygon fill="#63b8ff" stroke="#63b8ff" points="547.83,-427.96 557.67,-424.02 547.52,-420.97 547.83,-427.96"/>
</g>
<!-- Node43&#45;&gt;Node43 -->
<g id="edge22" class="edge">
<title>Node43&#45;&gt;Node43</title>
<path fill="none" stroke="#63b8ff" d="M415.35,-346.87C402.28,-355.44 411.83,-364.5 444,-364.5 462.09,-364.5 473.03,-361.63 476.81,-357.6"/>
<polygon fill="#63b8ff" stroke="#63b8ff" points="480.08,-356.34 473.2,-348.28 473.55,-358.87 480.08,-356.34"/>
</g>
<!-- Node49&#45;&gt;Node49 -->
<g id="edge24" class="edge">
<title>Node49&#45;&gt;Node49</title>
<path fill="none" stroke="#63b8ff" d="M415.35,-291.87C402.28,-300.44 411.83,-309.5 444,-309.5 462.09,-309.5 473.03,-306.63 476.81,-302.6"/>
<polygon fill="#63b8ff" stroke="#63b8ff" points="480.08,-301.34 473.2,-293.28 473.55,-303.87 480.08,-301.34"/>
</g>
<!-- Node54&#45;&gt;Node18 -->
<g id="edge30" class="edge">
<title>Node54&#45;&gt;Node18</title>
<path fill="none" stroke="#63b8ff" d="M294.38,-229.03C322,-222.89 357.63,-214.97 387.08,-208.43"/>
<polygon fill="#63b8ff" stroke="#63b8ff" points="387.55,-211.91 396.55,-206.32 386.03,-205.07 387.55,-211.91"/>
</g>
<!-- Node54&#45;&gt;Node20 -->
<g id="edge31" class="edge">
<title>Node54&#45;&gt;Node20</title>
<path fill="none" stroke="#63b8ff" d="M321.28,-239C333.63,-239 346.56,-239 359.2,-239"/>
<polygon fill="#63b8ff" stroke="#63b8ff" points="359.18,-242.5 369.18,-239 359.18,-235.5 359.18,-242.5"/>
</g>
</g>
</svg>
