<?xml version="1.0" encoding="UTF-8" standalone="no"?>
<!DOCTYPE svg PUBLIC "-//W3C//DTD SVG 1.1//EN"
 "http://www.w3.org/Graphics/SVG/1.1/DTD/svg11.dtd">
<!-- Generated by graphviz version 7.0.3 (0)
 -->
<!-- Title: Urho3D::Texture2DArray::EndLoad Pages: 1 -->
<svg width="724pt" height="408pt"
 viewBox="0.00 0.00 724.00 408.00" xmlns="http://www.w3.org/2000/svg" xmlns:xlink="http://www.w3.org/1999/xlink">
<g id="graph0" class="graph" transform="scale(1 1) rotate(0) translate(4 404)">
<title>Urho3D::Texture2DArray::EndLoad</title>
<!-- Node1 -->
<g id="node1" class="node">
<title>Node1</title>
<g id="a_node1"><a xlink:title="Finish resource loading. Always called from the main thread. Return true if successful.">
<polygon fill="#999999" stroke="#666666" points="122,-176.5 0,-176.5 0,-146.5 122,-146.5 122,-176.5"/>
<text text-anchor="start" x="8" y="-164.5" font-family="Roboto" font-size="10.00">Urho3D::Texture2DArray</text>
<text text-anchor="middle" x="61" y="-153.5" font-family="Roboto" font-size="10.00">::EndLoad</text>
</a>
</g>
</g>
<!-- Node2 -->
<g id="node2" class="node">
<title>Node2</title>
<g id="a_node2"><a xlink:href="class_urho3_d_1_1_texture.html#a0af2da2738e6f62ee40ae331a5891a03" target="_top" xlink:title="Check whether texture memory budget has been exceeded. Free unused materials in that case to release ...">
<polygon fill="white" stroke="#666666" points="312.5,-262.5 160.5,-262.5 160.5,-232.5 312.5,-232.5 312.5,-262.5"/>
<text text-anchor="start" x="168.5" y="-250.5" font-family="Roboto" font-size="10.00">Urho3D::Texture::CheckTexture</text>
<text text-anchor="middle" x="236.5" y="-239.5" font-family="Roboto" font-size="10.00">Budget</text>
</a>
</g>
</g>
<!-- Node1&#45;&gt;Node2 -->
<g id="edge1" class="edge">
<title>Node1&#45;&gt;Node2</title>
<path fill="none" stroke="#63b8ff" d="M82.03,-176.76C100.82,-190.5 130.14,-210.49 158,-223.5 161.49,-225.13 165.11,-226.68 168.81,-228.16"/>
<polygon fill="#63b8ff" stroke="#63b8ff" points="167.34,-231.35 177.93,-231.59 169.8,-224.79 167.34,-231.35"/>
</g>
<!-- Node3 -->
<g id="node3" class="node">
<title>Node3</title>
<g id="a_node3"><a xlink:href="class_urho3_d_1_1_texture2_d_array.html#a88cea1582887c4fa073ba60f07ae4ee8" target="_top" xlink:title="Set data either partially or fully on a layer&#39;s mip level. Return true if successful.">
<polygon fill="white" stroke="#666666" points="297.5,-214.5 175.5,-214.5 175.5,-184.5 297.5,-184.5 297.5,-214.5"/>
<text text-anchor="start" x="183.5" y="-202.5" font-family="Roboto" font-size="10.00">Urho3D::Texture2DArray</text>
<text text-anchor="middle" x="236.5" y="-191.5" font-family="Roboto" font-size="10.00">::SetData</text>
</a>
</g>
</g>
<!-- Node1&#45;&gt;Node3 -->
<g id="edge2" class="edge">
<title>Node1&#45;&gt;Node3</title>
<path fill="none" stroke="#63b8ff" d="M122.19,-174.68C135.71,-177.64 150.18,-180.81 164.1,-183.86"/>
<polygon fill="#63b8ff" stroke="#63b8ff" points="163.12,-187.23 173.64,-185.95 164.62,-180.39 163.12,-187.23"/>
</g>
<!-- Node14 -->
<g id="node14" class="node">
<title>Node14</title>
<g id="a_node14"><a xlink:href="class_urho3_d_1_1_texture2_d_array.html#a1bd5785f318407847d93aaba973e6a38" target="_top" xlink:title=" ">
<polygon fill="white" stroke="#666666" points="297.5,-152.5 175.5,-152.5 175.5,-122.5 297.5,-122.5 297.5,-152.5"/>
<text text-anchor="start" x="183.5" y="-140.5" font-family="Roboto" font-size="10.00">Urho3D::Texture2DArray</text>
<text text-anchor="middle" x="236.5" y="-129.5" font-family="Roboto" font-size="10.00">::SetLayers</text>
</a>
</g>
</g>
<!-- Node1&#45;&gt;Node14 -->
<g id="edge16" class="edge">
<title>Node1&#45;&gt;Node14</title>
<path fill="none" stroke="#63b8ff" d="M122.19,-153.17C135.71,-151.3 150.18,-149.3 164.1,-147.38"/>
<polygon fill="#63b8ff" stroke="#63b8ff" points="164.19,-150.9 173.62,-146.06 163.23,-143.96 164.19,-150.9"/>
</g>
<!-- Node16 -->
<g id="node16" class="node">
<title>Node16</title>
<g id="a_node16"><a xlink:href="class_urho3_d_1_1_texture.html#a6e635893e2f569815c31347bb7569797" target="_top" xlink:title="Set additional parameters from an XML file.">
<polygon fill="white" stroke="#666666" points="315,-58 158,-58 158,-39 315,-39 315,-58"/>
<text text-anchor="middle" x="236.5" y="-46" font-family="Roboto" font-size="10.00">Urho3D::Texture::SetParameters</text>
</a>
</g>
</g>
<!-- Node1&#45;&gt;Node16 -->
<g id="edge18" class="edge">
<title>Node1&#45;&gt;Node16</title>
<path fill="none" stroke="#63b8ff" d="M85.76,-146.02C118.56,-124.66 177.43,-86.32 210.75,-64.62"/>
<polygon fill="#63b8ff" stroke="#63b8ff" points="212.47,-67.67 218.94,-59.28 208.65,-61.81 212.47,-67.67"/>
</g>
<!-- Node4 -->
<g id="node4" class="node">
<title>Node4</title>
<g id="a_node4"><a xlink:href="class_urho3_d_1_1_texture.html#a728bf72dad6c6da0ad4c7d6fb394c2de" target="_top" xlink:title="Return data size in bytes for a rectangular region.">
<polygon fill="white" stroke="#666666" points="506,-400 360,-400 360,-381 506,-381 506,-400"/>
<text text-anchor="middle" x="433" y="-388" font-family="Roboto" font-size="10.00">Urho3D::Texture::GetDataSize</text>
</a>
</g>
</g>
<!-- Node3&#45;&gt;Node4 -->
<g id="edge3" class="edge">
<title>Node3&#45;&gt;Node4</title>
<path fill="none" stroke="#63b8ff" d="M297.88,-211.18C304.25,-214.36 310.16,-218.39 315,-223.5 360.08,-271.07 305.63,-319.21 351,-366.5 354.31,-369.95 358.1,-372.92 362.18,-375.46"/>
<polygon fill="#63b8ff" stroke="#63b8ff" points="360.33,-378.44 370.82,-379.95 363.56,-372.23 360.33,-378.44"/>
</g>
<!-- Node6 -->
<g id="node6" class="node">
<title>Node6</title>
<g id="a_node6"><a xlink:href="class_urho3_d_1_1_texture.html#a49289626d40733f33cb84e044cca1eab" target="_top" xlink:title=" ">
<polygon fill="white" stroke="#666666" points="712,-362 555,-362 555,-343 712,-343 712,-362"/>
<text text-anchor="middle" x="633.5" y="-350" font-family="Roboto" font-size="10.00">Urho3D::Texture::IsCompressed</text>
</a>
</g>
</g>
<!-- Node3&#45;&gt;Node6 -->
<g id="edge15" class="edge">
<title>Node3&#45;&gt;Node6</title>
<path fill="none" stroke="#63b8ff" d="M297.92,-211.7C304.21,-214.79 310.08,-218.66 315,-223.5 351.66,-259.58 310.39,-301.92 351,-333.5 380.13,-356.16 472.5,-358.72 543.57,-357"/>
<polygon fill="#63b8ff" stroke="#63b8ff" points="543.37,-360.51 553.27,-356.73 543.18,-353.51 543.37,-360.51"/>
</g>
<!-- Node7 -->
<g id="node7" class="node">
<title>Node7</title>
<g id="a_node7"><a xlink:href="class_urho3_d_1_1_texture.html#a60c268d6f819bd4fdc219ba8f5f3820c" target="_top" xlink:title=" ">
<polygon fill="white" stroke="#666666" points="506.5,-324 359.5,-324 359.5,-305 506.5,-305 506.5,-324"/>
<text text-anchor="middle" x="433" y="-312" font-family="Roboto" font-size="10.00">Urho3D::Texture::GetDataType</text>
</a>
</g>
</g>
<!-- Node3&#45;&gt;Node7 -->
<g id="edge6" class="edge">
<title>Node3&#45;&gt;Node7</title>
<path fill="none" stroke="#63b8ff" d="M297.64,-212.62C303.9,-215.55 309.85,-219.13 315,-223.5 342.28,-246.65 322.93,-273.32 351,-295.5 352.74,-296.88 354.57,-298.16 356.46,-299.35"/>
<polygon fill="#63b8ff" stroke="#63b8ff" points="354.58,-302.31 365.06,-303.87 357.84,-296.12 354.58,-302.31"/>
</g>
<!-- Node8 -->
<g id="node8" class="node">
<title>Node8</title>
<g id="a_node8"><a xlink:href="class_urho3_d_1_1_texture.html#a09c2fc9bd5347131e3a0126b109d07ab" target="_top" xlink:title=" ">
<polygon fill="white" stroke="#666666" points="504.5,-286.5 361.5,-286.5 361.5,-256.5 504.5,-256.5 504.5,-286.5"/>
<text text-anchor="start" x="369.5" y="-274.5" font-family="Roboto" font-size="10.00">Urho3D::Texture::GetExternal</text>
<text text-anchor="middle" x="433" y="-263.5" font-family="Roboto" font-size="10.00">Format</text>
</a>
</g>
</g>
<!-- Node3&#45;&gt;Node8 -->
<g id="edge7" class="edge">
<title>Node3&#45;&gt;Node8</title>
<path fill="none" stroke="#63b8ff" d="M294.11,-214.94C301.26,-217.49 308.39,-220.35 315,-223.5 332.36,-231.76 333.59,-239.34 351,-247.5 354.49,-249.14 358.12,-250.69 361.82,-252.16"/>
<polygon fill="#63b8ff" stroke="#63b8ff" points="360.38,-255.36 370.98,-255.55 362.82,-248.79 360.38,-255.36"/>
</g>
<!-- Node9 -->
<g id="node9" class="node">
<title>Node9</title>
<g id="a_node9"><a xlink:href="class_urho3_d_1_1_texture.html#a846792b1ba7a9cd53aba7d8620b76907" target="_top" xlink:title=" ">
<polygon fill="white" stroke="#666666" points="497.5,-238.5 368.5,-238.5 368.5,-208.5 497.5,-208.5 497.5,-238.5"/>
<text text-anchor="start" x="376.5" y="-226.5" font-family="Roboto" font-size="10.00">Urho3D::Texture::GetLevel</text>
<text text-anchor="middle" x="433" y="-215.5" font-family="Roboto" font-size="10.00">Height</text>
</a>
</g>
</g>
<!-- Node3&#45;&gt;Node9 -->
<g id="edge8" class="edge">
<title>Node3&#45;&gt;Node9</title>
<path fill="none" stroke="#63b8ff" d="M297.97,-206.96C316.62,-209.26 337.38,-211.82 356.88,-214.23"/>
<polygon fill="#63b8ff" stroke="#63b8ff" points="356.34,-217.69 366.69,-215.44 357.2,-210.74 356.34,-217.69"/>
</g>
<!-- Node11 -->
<g id="node11" class="node">
<title>Node11</title>
<g id="a_node11"><a xlink:href="class_urho3_d_1_1_texture.html#ab8097a345104d479b277648ab98a9d20" target="_top" xlink:title=" ">
<polygon fill="white" stroke="#666666" points="497.5,-190.5 368.5,-190.5 368.5,-160.5 497.5,-160.5 497.5,-190.5"/>
<text text-anchor="start" x="376.5" y="-178.5" font-family="Roboto" font-size="10.00">Urho3D::Texture::GetLevel</text>
<text text-anchor="middle" x="433" y="-167.5" font-family="Roboto" font-size="10.00">Width</text>
</a>
</g>
</g>
<!-- Node3&#45;&gt;Node11 -->
<g id="edge11" class="edge">
<title>Node3&#45;&gt;Node11</title>
<path fill="none" stroke="#63b8ff" d="M297.97,-192.04C316.62,-189.74 337.38,-187.18 356.88,-184.77"/>
<polygon fill="#63b8ff" stroke="#63b8ff" points="357.2,-188.26 366.69,-183.56 356.34,-181.31 357.2,-188.26"/>
</g>
<!-- Node12 -->
<g id="node12" class="node">
<title>Node12</title>
<g id="a_node12"><a xlink:href="class_urho3_d_1_1_texture.html#af49ebd8d0572e8616402f9c663b6a818" target="_top" xlink:title=" ">
<polygon fill="white" stroke="#666666" points="498.5,-142 367.5,-142 367.5,-123 498.5,-123 498.5,-142"/>
<text text-anchor="middle" x="433" y="-130" font-family="Roboto" font-size="10.00">Urho3D::Texture::GetSRGB</text>
</a>
</g>
</g>
<!-- Node3&#45;&gt;Node12 -->
<g id="edge13" class="edge">
<title>Node3&#45;&gt;Node12</title>
<path fill="none" stroke="#63b8ff" d="M269.72,-184.14C292.14,-173.89 322.93,-160.65 351,-151.5 357.93,-149.24 365.28,-147.13 372.6,-145.21"/>
<polygon fill="#63b8ff" stroke="#63b8ff" points="373.35,-148.63 382.19,-142.79 371.64,-141.84 373.35,-148.63"/>
</g>
<!-- Node13 -->
<g id="node13" class="node">
<title>Node13</title>
<g id="a_node13"><a xlink:href="class_urho3_d_1_1_texture.html#af633d70298690db00993d6c89b2f0a50" target="_top" xlink:title=" ">
<polygon fill="white" stroke="#666666" points="515,-105 351,-105 351,-86 515,-86 515,-105"/>
<text text-anchor="middle" x="433" y="-93" font-family="Roboto" font-size="10.00">Urho3D::Texture::GetSRGBFormat</text>
</a>
</g>
</g>
<!-- Node3&#45;&gt;Node13 -->
<g id="edge14" class="edge">
<title>Node3&#45;&gt;Node13</title>
<path fill="none" stroke="#63b8ff" d="M277.84,-184.02C290.48,-178.08 303.99,-170.52 315,-161.5 335.35,-144.82 328.9,-128.78 351,-114.5 353.58,-112.83 356.3,-111.31 359.1,-109.92"/>
<polygon fill="#63b8ff" stroke="#63b8ff" points="360.37,-113.18 368.2,-106.04 357.63,-106.74 360.37,-113.18"/>
</g>
<!-- Node5 -->
<g id="node5" class="node">
<title>Node5</title>
<g id="a_node5"><a xlink:href="class_urho3_d_1_1_texture.html#abf684025c32c9a6bc816693313d255eb" target="_top" xlink:title="Return data size in bytes for a pixel or block row.">
<polygon fill="white" stroke="#666666" points="716,-400 551,-400 551,-381 716,-381 716,-400"/>
<text text-anchor="middle" x="633.5" y="-388" font-family="Roboto" font-size="10.00">Urho3D::Texture::GetRowDataSize</text>
</a>
</g>
</g>
<!-- Node4&#45;&gt;Node5 -->
<g id="edge4" class="edge">
<title>Node4&#45;&gt;Node5</title>
<path fill="none" stroke="#63b8ff" d="M506.22,-390.5C516.92,-390.5 528.07,-390.5 539.12,-390.5"/>
<polygon fill="#63b8ff" stroke="#63b8ff" points="539.06,-394 549.06,-390.5 539.06,-387 539.06,-394"/>
</g>
<!-- Node4&#45;&gt;Node6 -->
<g id="edge5" class="edge">
<title>Node4&#45;&gt;Node6</title>
<path fill="none" stroke="#63b8ff" d="M486.15,-380.52C511.58,-375.65 542.38,-369.75 569.15,-364.63"/>
<polygon fill="#63b8ff" stroke="#63b8ff" points="569.7,-368.09 578.86,-362.77 568.38,-361.21 569.7,-368.09"/>
</g>
<!-- Node10 -->
<g id="node10" class="node">
<title>Node10</title>
<g id="a_node10"><a xlink:href="_math_defs_8h.html#a8096c22c3716e172f685af2a5f5e26bb" target="_top" xlink:title=" ">
<polygon fill="white" stroke="#666666" points="670.5,-209 596.5,-209 596.5,-190 670.5,-190 670.5,-209"/>
<text text-anchor="middle" x="633.5" y="-197" font-family="Roboto" font-size="10.00">Urho3D::Max</text>
</a>
</g>
</g>
<!-- Node9&#45;&gt;Node10 -->
<g id="edge9" class="edge">
<title>Node9&#45;&gt;Node10</title>
<path fill="none" stroke="#63b8ff" d="M497.9,-215.77C526.23,-212.35 558.99,-208.39 585.09,-205.23"/>
<polygon fill="#63b8ff" stroke="#63b8ff" points="585.2,-208.74 594.71,-204.07 584.36,-201.8 585.2,-208.74"/>
</g>
<!-- Node10&#45;&gt;Node10 -->
<g id="edge10" class="edge">
<title>Node10&#45;&gt;Node10</title>
<path fill="none" stroke="#63b8ff" d="M602.11,-209.37C587.79,-217.94 598.26,-227 633.5,-227 653.88,-227 665.97,-223.97 669.78,-219.76"/>
<polygon fill="#63b8ff" stroke="#63b8ff" points="672.96,-218.3 665.53,-210.74 666.62,-221.28 672.96,-218.3"/>
</g>
<!-- Node11&#45;&gt;Node10 -->
<g id="edge12" class="edge">
<title>Node11&#45;&gt;Node10</title>
<path fill="none" stroke="#63b8ff" d="M497.9,-183.23C526.23,-186.65 558.99,-190.61 585.09,-193.77"/>
<polygon fill="#63b8ff" stroke="#63b8ff" points="584.36,-197.2 594.71,-194.93 585.2,-190.26 584.36,-197.2"/>
</g>
<!-- Node15 -->
<g id="node15" class="node">
<title>Node15</title>
<g id="a_node15"><a xlink:href="class_urho3_d_1_1_texture2_d_array.html#a44f47d575bcb17bdc43061b6ffce2a75" target="_top" xlink:title="Release the texture.">
<polygon fill="white" stroke="#666666" points="494,-67.5 372,-67.5 372,-37.5 494,-37.5 494,-67.5"/>
<text text-anchor="start" x="380" y="-55.5" font-family="Roboto" font-size="10.00">Urho3D::Texture2DArray</text>
<text text-anchor="middle" x="433" y="-44.5" font-family="Roboto" font-size="10.00">::Release</text>
</a>
</g>
</g>
<!-- Node14&#45;&gt;Node15 -->
<g id="edge17" class="edge">
<title>Node14&#45;&gt;Node15</title>
<path fill="none" stroke="#63b8ff" d="M263.43,-122C286.01,-108.94 319.91,-90.38 351,-77.5 355.92,-75.46 361.08,-73.5 366.29,-71.63"/>
<polygon fill="#63b8ff" stroke="#63b8ff" points="367.29,-74.99 375.61,-68.43 365.02,-68.37 367.29,-74.99"/>
</g>
<!-- Node16&#45;&gt;Node16 -->
<g id="edge21" class="edge">
<title>Node16&#45;&gt;Node16</title>
<path fill="none" stroke="#63b8ff" d="M209.02,-58.37C196.49,-66.94 205.65,-76 236.5,-76 253.85,-76 264.34,-73.13 267.97,-69.1"/>
<polygon fill="#63b8ff" stroke="#63b8ff" points="271.27,-67.94 264.5,-59.79 264.71,-70.38 271.27,-67.94"/>
</g>
<!-- Node17 -->
<g id="node17" class="node">
<title>Node17</title>
<g id="a_node17"><a xlink:href="class_urho3_d_1_1_x_m_l_file.html#a657534de06bc465c977cc3c28139cec4" target="_top" xlink:title="Return the root element, with optionally specified name. Return null element if not found.">
<polygon fill="white" stroke="#666666" points="498.5,-19 367.5,-19 367.5,0 498.5,0 498.5,-19"/>
<text text-anchor="middle" x="433" y="-7" font-family="Roboto" font-size="10.00">Urho3D::XMLFile::GetRoot</text>
</a>
</g>
</g>
<!-- Node16&#45;&gt;Node17 -->
<g id="edge19" class="edge">
<title>Node16&#45;&gt;Node17</title>
<path fill="none" stroke="#63b8ff" d="M287.34,-38.51C312.84,-33.39 344.11,-27.12 371.05,-21.72"/>
<polygon fill="#63b8ff" stroke="#63b8ff" points="371.69,-25.16 380.81,-19.76 370.32,-18.3 371.69,-25.16"/>
</g>
<!-- Node18 -->
<g id="node18" class="node">
<title>Node18</title>
<g id="a_node18"><a xlink:href="class_urho3_d_1_1_string.html#a8413f000551027cd127996e3c5b00185" target="_top" xlink:title=" ">
<polygon fill="white" stroke="#666666" points="690,-19 577,-19 577,0 690,0 690,-19"/>
<text text-anchor="middle" x="633.5" y="-7" font-family="Roboto" font-size="10.00">Urho3D::String::Empty</text>
</a>
</g>
</g>
<!-- Node17&#45;&gt;Node18 -->
<g id="edge20" class="edge">
<title>Node17&#45;&gt;Node18</title>
<path fill="none" stroke="#63b8ff" d="M499,-9.5C520.27,-9.5 543.94,-9.5 565.38,-9.5"/>
<polygon fill="#63b8ff" stroke="#63b8ff" points="565.17,-13 575.17,-9.5 565.17,-6 565.17,-13"/>
</g>
</g>
</svg>
