<?xml version="1.0" encoding="UTF-8" standalone="no"?>
<!DOCTYPE svg PUBLIC "-//W3C//DTD SVG 1.1//EN"
 "http://www.w3.org/Graphics/SVG/1.1/DTD/svg11.dtd">
<!-- Generated by graphviz version 7.0.3 (0)
 -->
<!-- Title: Urho3D::Camera::SetFarClip Pages: 1 -->
<svg width="664pt" height="152pt"
 viewBox="0.00 0.00 664.00 152.00" xmlns="http://www.w3.org/2000/svg" xmlns:xlink="http://www.w3.org/1999/xlink">
<g id="graph0" class="graph" transform="scale(1 1) rotate(0) translate(4 148)">
<title>Urho3D::Camera::SetFarClip</title>
<!-- Node1 -->
<g id="node1" class="node">
<title>Node1</title>
<g id="a_node1"><a xlink:title=" ">
<polygon fill="#999999" stroke="#666666" points="139,-59.5 0,-59.5 0,-40.5 139,-40.5 139,-59.5"/>
<text text-anchor="middle" x="69.5" y="-47.5" font-family="Roboto" font-size="10.00">Urho3D::Camera::SetFarClip</text>
</a>
</g>
</g>
<!-- Node2 -->
<g id="node2" class="node">
<title>Node2</title>
<g id="a_node2"><a xlink:href="class_urho3_d_1_1_component.html#aaf87acb64001774c62f0784254f9b291" target="_top" xlink:title="Mark for attribute check on the next network update.">
<polygon fill="white" stroke="#666666" points="286,-96 175,-96 175,-66 286,-66 286,-96"/>
<text text-anchor="start" x="183" y="-84" font-family="Roboto" font-size="10.00">Urho3D::Component::</text>
<text text-anchor="middle" x="230.5" y="-73" font-family="Roboto" font-size="10.00">MarkNetworkUpdate</text>
</a>
</g>
</g>
<!-- Node1&#45;&gt;Node2 -->
<g id="edge1" class="edge">
<title>Node1&#45;&gt;Node2</title>
<path fill="none" stroke="#63b8ff" d="M121.68,-59.98C135.01,-62.58 149.55,-65.41 163.52,-68.14"/>
<polygon fill="#63b8ff" stroke="#63b8ff" points="162.6,-71.52 173.08,-70 163.94,-64.65 162.6,-71.52"/>
</g>
<!-- Node8 -->
<g id="node8" class="node">
<title>Node8</title>
<g id="a_node8"><a xlink:href="_math_defs_8h.html#a8096c22c3716e172f685af2a5f5e26bb" target="_top" xlink:title=" ">
<polygon fill="white" stroke="#666666" points="267.5,-29.5 193.5,-29.5 193.5,-10.5 267.5,-10.5 267.5,-29.5"/>
<text text-anchor="middle" x="230.5" y="-17.5" font-family="Roboto" font-size="10.00">Urho3D::Max</text>
</a>
</g>
</g>
<!-- Node1&#45;&gt;Node8 -->
<g id="edge8" class="edge">
<title>Node1&#45;&gt;Node8</title>
<path fill="none" stroke="#63b8ff" d="M123.44,-40.01C142.45,-36.43 163.74,-32.41 182.23,-28.92"/>
<polygon fill="#63b8ff" stroke="#63b8ff" points="182.67,-32.4 191.84,-27.11 181.37,-25.52 182.67,-32.4"/>
</g>
<!-- Node3 -->
<g id="node3" class="node">
<title>Node3</title>
<g id="a_node3"><a xlink:href="class_urho3_d_1_1_component.html#a2c22f727341671a0420934f249ffe059" target="_top" xlink:title="Return the scene the node belongs to.">
<polygon fill="white" stroke="#666666" points="451.5,-144 340.5,-144 340.5,-114 451.5,-114 451.5,-144"/>
<text text-anchor="start" x="348.5" y="-132" font-family="Roboto" font-size="10.00">Urho3D::Component::</text>
<text text-anchor="middle" x="396" y="-121" font-family="Roboto" font-size="10.00">GetScene</text>
</a>
</g>
</g>
<!-- Node2&#45;&gt;Node3 -->
<g id="edge2" class="edge">
<title>Node2&#45;&gt;Node3</title>
<path fill="none" stroke="#63b8ff" d="M284.13,-96.45C299.3,-100.91 316.01,-105.81 331.75,-110.43"/>
<polygon fill="#63b8ff" stroke="#63b8ff" points="330.43,-113.69 341.01,-113.15 332.4,-106.98 330.43,-113.69"/>
</g>
<!-- Node5 -->
<g id="node5" class="node">
<title>Node5</title>
<g id="a_node5"><a xlink:href="class_urho3_d_1_1_component.html#a8f1388c232ca01b7c7328c761aae6e76" target="_top" xlink:title=" ">
<polygon fill="white" stroke="#666666" points="451.5,-96 340.5,-96 340.5,-66 451.5,-66 451.5,-96"/>
<text text-anchor="start" x="348.5" y="-84" font-family="Roboto" font-size="10.00">Urho3D::Component::</text>
<text text-anchor="middle" x="396" y="-73" font-family="Roboto" font-size="10.00">IsReplicated</text>
</a>
</g>
</g>
<!-- Node2&#45;&gt;Node5 -->
<g id="edge4" class="edge">
<title>Node2&#45;&gt;Node5</title>
<path fill="none" stroke="#63b8ff" d="M286.4,-81C300.09,-81 314.91,-81 329.07,-81"/>
<polygon fill="#63b8ff" stroke="#63b8ff" points="328.73,-84.5 338.73,-81 328.73,-77.5 328.73,-84.5"/>
</g>
<!-- Node7 -->
<g id="node7" class="node">
<title>Node7</title>
<g id="a_node7"><a xlink:href="class_urho3_d_1_1_scene.html#a00b724dfff718639b9de12d71139499c" target="_top" xlink:title="Mark for attribute check on the next network update.">
<polygon fill="white" stroke="#666666" points="470,-30 322,-30 322,0 470,0 470,-30"/>
<text text-anchor="start" x="330" y="-18" font-family="Roboto" font-size="10.00">Urho3D::Scene::MarkNetwork</text>
<text text-anchor="middle" x="396" y="-7" font-family="Roboto" font-size="10.00">Update</text>
</a>
</g>
</g>
<!-- Node2&#45;&gt;Node7 -->
<g id="edge6" class="edge">
<title>Node2&#45;&gt;Node7</title>
<path fill="none" stroke="#63b8ff" d="M269.83,-65.53C292.61,-56.33 321.72,-44.58 346.13,-34.73"/>
<polygon fill="#63b8ff" stroke="#63b8ff" points="347.26,-38.05 355.22,-31.06 344.64,-31.56 347.26,-38.05"/>
</g>
<!-- Node4 -->
<g id="node4" class="node">
<title>Node4</title>
<g id="a_node4"><a xlink:href="class_urho3_d_1_1_node.html#ad3742cda838a2b291daa44d3ab00de56" target="_top" xlink:title=" ">
<polygon fill="white" stroke="#666666" points="644,-138.5 518,-138.5 518,-119.5 644,-119.5 644,-138.5"/>
<text text-anchor="middle" x="581" y="-126.5" font-family="Roboto" font-size="10.00">Urho3D::Node::GetScene</text>
</a>
</g>
</g>
<!-- Node3&#45;&gt;Node4 -->
<g id="edge3" class="edge">
<title>Node3&#45;&gt;Node4</title>
<path fill="none" stroke="#63b8ff" d="M451.91,-129C469,-129 488.14,-129 506.3,-129"/>
<polygon fill="#63b8ff" stroke="#63b8ff" points="506.24,-132.5 516.24,-129 506.24,-125.5 506.24,-132.5"/>
</g>
<!-- Node6 -->
<g id="node6" class="node">
<title>Node6</title>
<g id="a_node6"><a xlink:href="class_urho3_d_1_1_scene.html#a97fb1222bd2f38e6c1c433c0b7e54d40" target="_top" xlink:title="Return whether the specified id is a replicated id.">
<polygon fill="white" stroke="#666666" points="656,-90.5 506,-90.5 506,-71.5 656,-71.5 656,-90.5"/>
<text text-anchor="middle" x="581" y="-78.5" font-family="Roboto" font-size="10.00">Urho3D::Scene::IsReplicatedID</text>
</a>
</g>
</g>
<!-- Node5&#45;&gt;Node6 -->
<g id="edge5" class="edge">
<title>Node5&#45;&gt;Node6</title>
<path fill="none" stroke="#63b8ff" d="M451.91,-81C465.2,-81 479.72,-81 494.07,-81"/>
<polygon fill="#63b8ff" stroke="#63b8ff" points="493.99,-84.5 503.99,-81 493.99,-77.5 493.99,-84.5"/>
</g>
<!-- Node7&#45;&gt;Node7 -->
<g id="edge7" class="edge">
<title>Node7&#45;&gt;Node7</title>
<path fill="none" stroke="#63b8ff" d="M366.91,-30.28C360.44,-39.41 370.14,-48 396,-48 410.14,-48 419.45,-45.43 423.92,-41.61"/>
<polygon fill="#63b8ff" stroke="#63b8ff" points="427.39,-42.09 424.94,-31.78 420.43,-41.37 427.39,-42.09"/>
</g>
<!-- Node8&#45;&gt;Node8 -->
<g id="edge9" class="edge">
<title>Node8&#45;&gt;Node8</title>
<path fill="none" stroke="#63b8ff" d="M205.29,-29.87C193.8,-38.44 202.2,-47.5 230.5,-47.5 246.42,-47.5 256.04,-44.63 259.37,-40.6"/>
<polygon fill="#63b8ff" stroke="#63b8ff" points="262.74,-39.63 256.19,-31.3 256.11,-41.9 262.74,-39.63"/>
</g>
</g>
</svg>
