<?xml version="1.0" encoding="UTF-8" standalone="no"?>
<!DOCTYPE svg PUBLIC "-//W3C//DTD SVG 1.1//EN"
 "http://www.w3.org/Graphics/SVG/1.1/DTD/svg11.dtd">
<!-- Generated by graphviz version 7.0.3 (0)
 -->
<!-- Title: Urho3D::Input::SetTouchEmulation Pages: 1 -->
<svg width="749pt" height="751pt"
 viewBox="0.00 0.00 749.00 751.00" xmlns="http://www.w3.org/2000/svg" xmlns:xlink="http://www.w3.org/1999/xlink">
<g id="graph0" class="graph" transform="scale(1 1) rotate(0) translate(4 747)">
<title>Urho3D::Input::SetTouchEmulation</title>
<!-- Node1 -->
<g id="node1" class="node">
<title>Node1</title>
<g id="a_node1"><a xlink:title=" ">
<polygon fill="#999999" stroke="#666666" points="167,-300 0,-300 0,-281 167,-281 167,-300"/>
<text text-anchor="middle" x="83.5" y="-288" font-family="Roboto" font-size="10.00">Urho3D::Input::SetTouchEmulation</text>
</a>
</g>
</g>
<!-- Node2 -->
<g id="node2" class="node">
<title>Node2</title>
<g id="a_node2"><a xlink:href="class_urho3_d_1_1_input.html#a217821ddb7741352962e19c43bf9c148" target="_top" xlink:title="Clear touch states and send touch end events.">
<polygon fill="white" stroke="#666666" points="352,-425 209,-425 209,-406 352,-406 352,-425"/>
<text text-anchor="middle" x="280.5" y="-413" font-family="Roboto" font-size="10.00">Urho3D::Input::ResetTouches</text>
</a>
</g>
</g>
<!-- Node1&#45;&gt;Node2 -->
<g id="edge1" class="edge">
<title>Node1&#45;&gt;Node2</title>
<path fill="none" stroke="#63b8ff" d="M99.8,-300.31C133.32,-321.8 213.51,-373.2 254.48,-399.46"/>
<polygon fill="#63b8ff" stroke="#63b8ff" points="252.42,-402.3 262.73,-404.75 256.2,-396.4 252.42,-402.3"/>
</g>
<!-- Node28 -->
<g id="node18" class="node">
<title>Node28</title>
<g id="a_node18"><a xlink:href="class_urho3_d_1_1_input.html#a42f016907a65f849a98e0ad9c24d97ee" target="_top" xlink:title="Set whether the operating system mouse cursor is visible. When not visible (default),...">
<polygon fill="white" stroke="#666666" points="358,-227 203,-227 203,-208 358,-208 358,-227"/>
<text text-anchor="middle" x="280.5" y="-215" font-family="Roboto" font-size="10.00">Urho3D::Input::SetMouseVisible</text>
</a>
</g>
</g>
<!-- Node1&#45;&gt;Node28 -->
<g id="edge18" class="edge">
<title>Node1&#45;&gt;Node28</title>
<path fill="none" stroke="#63b8ff" d="M111.21,-280.5C145.1,-267.81 203.75,-245.86 242.09,-231.5"/>
<polygon fill="#63b8ff" stroke="#63b8ff" points="243.25,-234.81 251.39,-228.02 240.8,-228.25 243.25,-234.81"/>
</g>
<!-- Node3 -->
<g id="node3" class="node">
<title>Node3</title>
<g id="a_node3"><a xlink:href="class_urho3_d_1_1_hash_map.html#ac02bdba9ea0d1055a3a75f6bae2ffc69" target="_top" xlink:title="Clear the map.">
<polygon fill="white" stroke="#666666" points="538,-632 413,-632 413,-613 538,-613 538,-632"/>
<text text-anchor="middle" x="475.5" y="-620" font-family="Roboto" font-size="10.00">Urho3D::HashMap::Clear</text>
</a>
</g>
</g>
<!-- Node2&#45;&gt;Node3 -->
<g id="edge2" class="edge">
<title>Node2&#45;&gt;Node3</title>
<path fill="none" stroke="#63b8ff" d="M290.81,-425.48C321.25,-458.14 418.17,-562.09 457.59,-604.36"/>
<polygon fill="#63b8ff" stroke="#63b8ff" points="454.87,-606.58 464.25,-611.51 459.99,-601.81 454.87,-606.58"/>
</g>
<!-- Node14 -->
<g id="node10" class="node">
<title>Node14</title>
<g id="a_node10"><a xlink:href="class_urho3_d_1_1_list.html#a2c7cf1404299d404c12476dd066a2a17" target="_top" xlink:title="Clear the list.">
<polygon fill="white" stroke="#666666" points="524.5,-484 426.5,-484 426.5,-465 524.5,-465 524.5,-484"/>
<text text-anchor="middle" x="475.5" y="-472" font-family="Roboto" font-size="10.00">Urho3D::List::Clear</text>
</a>
</g>
</g>
<!-- Node2&#45;&gt;Node14 -->
<g id="edge9" class="edge">
<title>Node2&#45;&gt;Node14</title>
<path fill="none" stroke="#63b8ff" d="M306.71,-425.36C329.34,-434 363.58,-446.53 394,-455.5 401.49,-457.71 409.43,-459.84 417.29,-461.82"/>
<polygon fill="#63b8ff" stroke="#63b8ff" points="416.28,-465.17 426.82,-464.15 417.95,-458.37 416.28,-465.17"/>
</g>
<!-- Node21 -->
<g id="node15" class="node">
<title>Node21</title>
<g id="a_node15"><a xlink:href="class_urho3_d_1_1_object.html#a69af51cfa67f9626273b35a6d501e03e" target="_top" xlink:title="Return a preallocated map for event data. Used for optimization to avoid constant re&#45;allocation of ev...">
<polygon fill="#fff0f0" stroke="red" points="538,-409.5 413,-409.5 413,-379.5 538,-379.5 538,-409.5"/>
<text text-anchor="start" x="421" y="-397.5" font-family="Roboto" font-size="10.00">Urho3D::Object::GetEvent</text>
<text text-anchor="middle" x="475.5" y="-386.5" font-family="Roboto" font-size="10.00">DataMap</text>
</a>
</g>
</g>
<!-- Node2&#45;&gt;Node21 -->
<g id="edge14" class="edge">
<title>Node2&#45;&gt;Node21</title>
<path fill="none" stroke="#63b8ff" d="M352.27,-407.8C368.35,-406.05 385.47,-404.19 401.63,-402.43"/>
<polygon fill="#63b8ff" stroke="#63b8ff" points="401.59,-405.95 411.15,-401.39 400.83,-399 401.59,-405.95"/>
</g>
<!-- Node23 -->
<g id="node16" class="node">
<title>Node23</title>
<g id="a_node16"><a xlink:href="class_urho3_d_1_1_list.html#ad98bf477e49b2969f494f1da08085d9a" target="_top" xlink:title="Insert an element to the end.">
<polygon fill="#fff0f0" stroke="red" points="524,-447 427,-447 427,-428 524,-428 524,-447"/>
<text text-anchor="middle" x="475.5" y="-435" font-family="Roboto" font-size="10.00">Urho3D::List::Push</text>
</a>
</g>
</g>
<!-- Node2&#45;&gt;Node23 -->
<g id="edge15" class="edge">
<title>Node2&#45;&gt;Node23</title>
<path fill="none" stroke="#63b8ff" d="M352.27,-423.57C372.95,-425.92 395.34,-428.48 415.23,-430.74"/>
<polygon fill="#63b8ff" stroke="#63b8ff" points="414.79,-434.22 425.12,-431.87 415.58,-427.26 414.79,-434.22"/>
</g>
<!-- Node27 -->
<g id="node17" class="node">
<title>Node27</title>
<g id="a_node17"><a xlink:href="class_urho3_d_1_1_object.html#a32020dbf77c196b9777eca479e8abb36" target="_top" xlink:title="Send event to all subscribers.">
<polygon fill="white" stroke="#666666" points="542,-343 409,-343 409,-324 542,-324 542,-343"/>
<text text-anchor="middle" x="475.5" y="-331" font-family="Roboto" font-size="10.00">Urho3D::Object::SendEvent</text>
</a>
</g>
</g>
<!-- Node2&#45;&gt;Node27 -->
<g id="edge16" class="edge">
<title>Node2&#45;&gt;Node27</title>
<path fill="none" stroke="#63b8ff" d="M304.78,-405.61C338.62,-391.23 401.58,-364.48 440.58,-347.91"/>
<polygon fill="#63b8ff" stroke="#63b8ff" points="441.91,-351.15 449.74,-344.02 439.17,-344.71 441.91,-351.15"/>
</g>
<!-- Node4 -->
<g id="node4" class="node">
<title>Node4</title>
<g id="a_node4"><a xlink:href="class_urho3_d_1_1_hash_map.html#a620be7ef6fc8e2958ef4f09523fd5c72" target="_top" xlink:title="Return iterator to the beginning.">
<polygon fill="#fff0f0" stroke="red" points="730,-743 604,-743 604,-724 730,-724 730,-743"/>
<text text-anchor="middle" x="667" y="-731" font-family="Roboto" font-size="10.00">Urho3D::HashMap::Begin</text>
</a>
</g>
</g>
<!-- Node3&#45;&gt;Node4 -->
<g id="edge3" class="edge">
<title>Node3&#45;&gt;Node4</title>
<path fill="none" stroke="#63b8ff" d="M485.76,-632.32C504.28,-651.35 547.96,-693.31 593,-715.5 596.12,-717.04 599.38,-718.45 602.72,-719.74"/>
<polygon fill="#63b8ff" stroke="#63b8ff" points="601.55,-723.04 612.14,-723.01 603.84,-716.43 601.55,-723.04"/>
</g>
<!-- Node6 -->
<g id="node5" class="node">
<title>Node6</title>
<g id="a_node5"><a xlink:href="class_urho3_d_1_1_hash_map.html#a47eb201d8441d4e4be8626e615cb562d" target="_top" xlink:title="Return iterator to the end.">
<polygon fill="#fff0f0" stroke="red" points="726.5,-706 607.5,-706 607.5,-687 726.5,-687 726.5,-706"/>
<text text-anchor="middle" x="667" y="-694" font-family="Roboto" font-size="10.00">Urho3D::HashMap::End</text>
</a>
</g>
</g>
<!-- Node3&#45;&gt;Node6 -->
<g id="edge4" class="edge">
<title>Node3&#45;&gt;Node6</title>
<path fill="none" stroke="#63b8ff" d="M494.61,-632.35C517.14,-644.3 557.04,-664.46 593,-677.5 598.99,-679.67 605.35,-681.71 611.71,-683.58"/>
<polygon fill="#63b8ff" stroke="#63b8ff" points="610.33,-686.82 620.9,-686.15 612.22,-680.08 610.33,-686.82"/>
</g>
<!-- Node8 -->
<g id="node6" class="node">
<title>Node8</title>
<g id="a_node6"><a xlink:href="class_urho3_d_1_1_hash_map.html#a3313b8ec65ab0b23c74570898b09175c" target="_top" xlink:title="Free a node.">
<polygon fill="white" stroke="#666666" points="740,-669 594,-669 594,-650 740,-650 740,-669"/>
<text text-anchor="middle" x="667" y="-657" font-family="Roboto" font-size="10.00">Urho3D::HashMap::FreeNode</text>
</a>
</g>
</g>
<!-- Node3&#45;&gt;Node8 -->
<g id="edge5" class="edge">
<title>Node3&#45;&gt;Node8</title>
<path fill="none" stroke="#63b8ff" d="M527.28,-632.42C550.86,-637.02 579.11,-642.53 603.94,-647.38"/>
<polygon fill="#63b8ff" stroke="#63b8ff" points="603.11,-650.79 613.59,-649.27 604.45,-643.92 603.11,-650.79"/>
</g>
<!-- Node9 -->
<g id="node7" class="node">
<title>Node9</title>
<g id="a_node7"><a xlink:href="class_urho3_d_1_1_hash_base.html#a2774d115a617b0d6c315132352d43c01" target="_top" xlink:title="Reset bucket head pointers.">
<polygon fill="#fff0f0" stroke="red" points="741,-632 593,-632 593,-613 741,-613 741,-632"/>
<text text-anchor="middle" x="667" y="-620" font-family="Roboto" font-size="10.00">Urho3D::HashBase::ResetPtrs</text>
</a>
</g>
</g>
<!-- Node3&#45;&gt;Node9 -->
<g id="edge6" class="edge">
<title>Node3&#45;&gt;Node9</title>
<path fill="none" stroke="#63b8ff" d="M538.29,-622.5C552.01,-622.5 566.78,-622.5 581.24,-622.5"/>
<polygon fill="#63b8ff" stroke="#63b8ff" points="581.23,-626 591.23,-622.5 581.23,-619 581.23,-626"/>
</g>
<!-- Node12 -->
<g id="node8" class="node">
<title>Node12</title>
<g id="a_node8"><a xlink:href="class_urho3_d_1_1_hash_base.html#a7790b0fb5131f0e0a098e322c9198f39" target="_top" xlink:title="Set new size.">
<polygon fill="white" stroke="#666666" points="735.5,-595 598.5,-595 598.5,-576 735.5,-576 735.5,-595"/>
<text text-anchor="middle" x="667" y="-583" font-family="Roboto" font-size="10.00">Urho3D::HashBase::SetSize</text>
</a>
</g>
</g>
<!-- Node3&#45;&gt;Node12 -->
<g id="edge7" class="edge">
<title>Node3&#45;&gt;Node12</title>
<path fill="none" stroke="#63b8ff" d="M527.28,-612.58C550.86,-607.98 579.11,-602.47 603.94,-597.62"/>
<polygon fill="#63b8ff" stroke="#63b8ff" points="604.45,-601.08 613.59,-595.73 603.11,-594.21 604.45,-601.08"/>
</g>
<!-- Node13 -->
<g id="node9" class="node">
<title>Node13</title>
<g id="a_node9"><a xlink:href="class_urho3_d_1_1_hash_base.html#a42b5c2ba692fe96bff763b501b8922a9" target="_top" xlink:title="Return number of elements.">
<polygon fill="white" stroke="#666666" points="728.5,-558 605.5,-558 605.5,-539 728.5,-539 728.5,-558"/>
<text text-anchor="middle" x="667" y="-546" font-family="Roboto" font-size="10.00">Urho3D::HashBase::Size</text>
</a>
</g>
</g>
<!-- Node3&#45;&gt;Node13 -->
<g id="edge8" class="edge">
<title>Node3&#45;&gt;Node13</title>
<path fill="none" stroke="#63b8ff" d="M494.16,-612.58C516.57,-600.34 556.67,-579.55 593,-566.5 598.03,-564.69 603.32,-563 608.66,-561.44"/>
<polygon fill="#63b8ff" stroke="#63b8ff" points="609.46,-564.85 618.16,-558.81 607.59,-558.1 609.46,-564.85"/>
</g>
<!-- Node15 -->
<g id="node11" class="node">
<title>Node15</title>
<g id="a_node11"><a xlink:href="class_urho3_d_1_1_list.html#a92d7346e3890b9494cd2bfe7444b0197" target="_top" xlink:title="Return iterator to the first element.">
<polygon fill="#fff0f0" stroke="red" points="716.5,-447 617.5,-447 617.5,-428 716.5,-428 716.5,-447"/>
<text text-anchor="middle" x="667" y="-435" font-family="Roboto" font-size="10.00">Urho3D::List::Begin</text>
</a>
</g>
</g>
<!-- Node14&#45;&gt;Node15 -->
<g id="edge10" class="edge">
<title>Node14&#45;&gt;Node15</title>
<path fill="none" stroke="#63b8ff" d="M524.81,-465.07C549.56,-460.23 579.94,-454.3 606.16,-449.18"/>
<polygon fill="#63b8ff" stroke="#63b8ff" points="606.49,-452.69 615.63,-447.33 605.15,-445.82 606.49,-452.69"/>
</g>
<!-- Node17 -->
<g id="node12" class="node">
<title>Node17</title>
<g id="a_node12"><a xlink:href="class_urho3_d_1_1_list.html#a036fa54a08fc8b2377f062c8bcee2f52" target="_top" xlink:title="Return iterator to the end.">
<polygon fill="#fff0f0" stroke="red" points="713,-410 621,-410 621,-391 713,-391 713,-410"/>
<text text-anchor="middle" x="667" y="-398" font-family="Roboto" font-size="10.00">Urho3D::List::End</text>
</a>
</g>
</g>
<!-- Node14&#45;&gt;Node17 -->
<g id="edge11" class="edge">
<title>Node14&#45;&gt;Node17</title>
<path fill="none" stroke="#63b8ff" d="M524.58,-467.83C535.69,-465.04 547.13,-461.09 557,-455.5 576.96,-444.19 573.09,-429.91 593,-418.5 598.31,-415.46 604.12,-412.93 610.07,-410.82"/>
<polygon fill="#63b8ff" stroke="#63b8ff" points="610.91,-414.23 619.42,-407.92 608.83,-407.54 610.91,-414.23"/>
</g>
<!-- Node19 -->
<g id="node13" class="node">
<title>Node19</title>
<g id="a_node13"><a xlink:href="class_urho3_d_1_1_list.html#a04c1d4c943f323b8932686e9731d5c2b" target="_top" xlink:title="Free a node.">
<polygon fill="white" stroke="#666666" points="726.5,-521 607.5,-521 607.5,-502 726.5,-502 726.5,-521"/>
<text text-anchor="middle" x="667" y="-509" font-family="Roboto" font-size="10.00">Urho3D::List::FreeNode</text>
</a>
</g>
</g>
<!-- Node14&#45;&gt;Node19 -->
<g id="edge12" class="edge">
<title>Node14&#45;&gt;Node19</title>
<path fill="none" stroke="#63b8ff" d="M524.81,-483.93C548.78,-488.61 578.03,-494.32 603.67,-499.33"/>
<polygon fill="#63b8ff" stroke="#63b8ff" points="602.82,-502.73 613.31,-501.21 604.16,-495.86 602.82,-502.73"/>
</g>
<!-- Node20 -->
<g id="node14" class="node">
<title>Node20</title>
<g id="a_node14"><a xlink:href="class_urho3_d_1_1_list.html#a1a8e5c7427195f2095b3853eb680aa5a" target="_top" xlink:title="Return number of elements.">
<polygon fill="white" stroke="#666666" points="714,-484 620,-484 620,-465 714,-465 714,-484"/>
<text text-anchor="middle" x="667" y="-472" font-family="Roboto" font-size="10.00">Urho3D::List::Size</text>
</a>
</g>
</g>
<!-- Node14&#45;&gt;Node20 -->
<g id="edge13" class="edge">
<title>Node14&#45;&gt;Node20</title>
<path fill="none" stroke="#63b8ff" d="M524.81,-474.5C550.22,-474.5 581.55,-474.5 608.23,-474.5"/>
<polygon fill="#63b8ff" stroke="#63b8ff" points="608.23,-478 618.23,-474.5 608.23,-471 608.23,-478"/>
</g>
<!-- Node27&#45;&gt;Node27 -->
<g id="edge17" class="edge">
<title>Node27&#45;&gt;Node27</title>
<path fill="none" stroke="#63b8ff" d="M445.52,-343.37C431.84,-351.94 441.84,-361 475.5,-361 494.96,-361 506.51,-357.97 510.15,-353.76"/>
<polygon fill="#63b8ff" stroke="#63b8ff" points="513.39,-352.44 506.1,-344.75 507.01,-355.3 513.39,-352.44"/>
</g>
<!-- Node28&#45;&gt;Node21 -->
<g id="edge19" class="edge">
<title>Node28&#45;&gt;Node21</title>
<path fill="none" stroke="#63b8ff" d="M286.01,-227.36C298.85,-254.33 338.32,-329.97 394,-369.5 396.68,-371.41 399.52,-373.17 402.46,-374.8"/>
<polygon fill="#63b8ff" stroke="#63b8ff" points="400.89,-377.93 411.41,-379.19 403.98,-371.65 400.89,-377.93"/>
</g>
<!-- Node28&#45;&gt;Node27 -->
<g id="edge24" class="edge">
<title>Node28&#45;&gt;Node27</title>
<path fill="none" stroke="#63b8ff" d="M289.72,-227.2C306.95,-246.87 348.97,-291.53 394,-314.5 397.92,-316.5 402.05,-318.29 406.29,-319.9"/>
<polygon fill="#63b8ff" stroke="#63b8ff" points="404.96,-323.14 415.55,-323.03 407.21,-316.51 404.96,-323.14"/>
</g>
<!-- Node29 -->
<g id="node19" class="node">
<title>Node29</title>
<g id="a_node19"><a xlink:href="class_urho3_d_1_1_input.html#af799244a701a0e94b767a59f0a82e92b" target="_top" xlink:title=" ">
<polygon fill="white" stroke="#666666" points="557,-257 394,-257 394,-238 557,-238 557,-257"/>
<text text-anchor="middle" x="475.5" y="-245" font-family="Roboto" font-size="10.00">Urho3D::Input::GetMousePosition</text>
</a>
</g>
</g>
<!-- Node28&#45;&gt;Node29 -->
<g id="edge20" class="edge">
<title>Node28&#45;&gt;Node29</title>
<path fill="none" stroke="#63b8ff" d="M345.77,-227.49C362.77,-230.13 381.28,-233.01 398.82,-235.74"/>
<polygon fill="#63b8ff" stroke="#63b8ff" points="398.27,-239.19 408.69,-237.27 399.35,-232.28 398.27,-239.19"/>
</g>
<!-- Node30 -->
<g id="node20" class="node">
<title>Node30</title>
<g id="a_node20"><a xlink:href="class_urho3_d_1_1_u_i_element.html#a031e2acb1765a940b9427003cb8653d7" target="_top" xlink:title=" ">
<polygon fill="#fff0f0" stroke="red" points="528,-201.5 423,-201.5 423,-171.5 528,-171.5 528,-201.5"/>
<text text-anchor="start" x="431" y="-189.5" font-family="Roboto" font-size="10.00">Urho3D::UIElement::</text>
<text text-anchor="middle" x="475.5" y="-178.5" font-family="Roboto" font-size="10.00">GetScreenPosition</text>
</a>
</g>
</g>
<!-- Node28&#45;&gt;Node30 -->
<g id="edge21" class="edge">
<title>Node28&#45;&gt;Node30</title>
<path fill="none" stroke="#63b8ff" d="M343.63,-207.52C365.31,-204.04 389.64,-200.13 411.4,-196.64"/>
<polygon fill="#63b8ff" stroke="#63b8ff" points="411.7,-200.13 421.02,-195.09 410.59,-193.22 411.7,-200.13"/>
</g>
<!-- Node32 -->
<g id="node21" class="node">
<title>Node32</title>
<g id="a_node21"><a xlink:href="class_urho3_d_1_1_u_i_element.html#a8d8ba4e0f53c653b1defd109f5335246" target="_top" xlink:title=" ">
<polygon fill="white" stroke="#666666" points="528,-153.5 423,-153.5 423,-123.5 528,-123.5 528,-153.5"/>
<text text-anchor="start" x="431" y="-141.5" font-family="Roboto" font-size="10.00">Urho3D::UIElement::</text>
<text text-anchor="middle" x="475.5" y="-130.5" font-family="Roboto" font-size="10.00">IsVisible</text>
</a>
</g>
</g>
<!-- Node28&#45;&gt;Node32 -->
<g id="edge23" class="edge">
<title>Node28&#45;&gt;Node32</title>
<path fill="none" stroke="#63b8ff" d="M299.4,-207.6C321.26,-195.79 359.57,-175.94 394,-162.5 399.69,-160.28 405.67,-158.14 411.7,-156.12"/>
<polygon fill="#63b8ff" stroke="#63b8ff" points="412.66,-159.49 421.1,-153.08 410.51,-152.83 412.66,-159.49"/>
</g>
<!-- Node33 -->
<g id="node22" class="node">
<title>Node33</title>
<g id="a_node22"><a xlink:href="class_urho3_d_1_1_input.html#afee26f2c5df67c89a3f48135fe86d6fe" target="_top" xlink:title="Set whether the mouse is currently being grabbed by an operation.">
<polygon fill="white" stroke="#666666" points="557,-105 394,-105 394,-86 557,-86 557,-105"/>
<text text-anchor="middle" x="475.5" y="-93" font-family="Roboto" font-size="10.00">Urho3D::Input::SetMouseGrabbed</text>
</a>
</g>
</g>
<!-- Node28&#45;&gt;Node33 -->
<g id="edge25" class="edge">
<title>Node28&#45;&gt;Node33</title>
<path fill="none" stroke="#63b8ff" d="M289.07,-207.81C305.7,-187.22 347.65,-139.02 394,-114.5 397.71,-112.54 401.62,-110.78 405.64,-109.2"/>
<polygon fill="#63b8ff" stroke="#63b8ff" points="406.75,-112.52 415.03,-105.91 404.44,-105.91 406.75,-112.52"/>
</g>
<!-- Node34 -->
<g id="node23" class="node">
<title>Node34</title>
<g id="a_node23"><a xlink:href="class_urho3_d_1_1_input.html#a09b8ea81693b77ea3c1a64f676f96c8e" target="_top" xlink:title="Set SDL mouse mode absolute.">
<polygon fill="white" stroke="#666666" points="551.5,-67.5 399.5,-67.5 399.5,-37.5 551.5,-37.5 551.5,-67.5"/>
<text text-anchor="start" x="407.5" y="-55.5" font-family="Roboto" font-size="10.00">Urho3D::Input::SetMouseMode</text>
<text text-anchor="middle" x="475.5" y="-44.5" font-family="Roboto" font-size="10.00">Absolute</text>
</a>
</g>
</g>
<!-- Node28&#45;&gt;Node34 -->
<g id="edge26" class="edge">
<title>Node28&#45;&gt;Node34</title>
<path fill="none" stroke="#63b8ff" d="M286.58,-207.59C300.26,-181.89 340.52,-112.58 394,-76.5 395.81,-75.28 397.69,-74.11 399.62,-73.01"/>
<polygon fill="#63b8ff" stroke="#63b8ff" points="400.91,-76.28 408.26,-68.64 397.76,-70.03 400.91,-76.28"/>
</g>
<!-- Node35 -->
<g id="node24" class="node">
<title>Node35</title>
<g id="a_node24"><a xlink:href="class_urho3_d_1_1_input.html#adb9cfe10463876f946380c2c4b23505a" target="_top" xlink:title=" ">
<polygon fill="white" stroke="#666666" points="556.5,-19 394.5,-19 394.5,0 556.5,0 556.5,-19"/>
<text text-anchor="middle" x="475.5" y="-7" font-family="Roboto" font-size="10.00">Urho3D::Input::SetMousePosition</text>
</a>
</g>
</g>
<!-- Node28&#45;&gt;Node35 -->
<g id="edge27" class="edge">
<title>Node28&#45;&gt;Node35</title>
<path fill="none" stroke="#63b8ff" d="M284.27,-207.81C293.76,-176.43 328.11,-76.83 394,-28.5 395.94,-27.07 397.98,-25.75 400.09,-24.53"/>
<polygon fill="#63b8ff" stroke="#63b8ff" points="401.59,-27.69 409.03,-20.15 398.51,-21.4 401.59,-27.69"/>
</g>
<!-- Node36 -->
<g id="node25" class="node">
<title>Node36</title>
<g id="a_node25"><a xlink:href="class_urho3_d_1_1_input.html#ae54b715827d591258b8b15382860c1e2" target="_top" xlink:title="Suppress next mouse movement.">
<polygon fill="white" stroke="#666666" points="547,-305.5 404,-305.5 404,-275.5 547,-275.5 547,-305.5"/>
<text text-anchor="start" x="412" y="-293.5" font-family="Roboto" font-size="10.00">Urho3D::Input::SuppressNext</text>
<text text-anchor="middle" x="475.5" y="-282.5" font-family="Roboto" font-size="10.00">MouseMove</text>
</a>
</g>
</g>
<!-- Node28&#45;&gt;Node36 -->
<g id="edge28" class="edge">
<title>Node28&#45;&gt;Node36</title>
<path fill="none" stroke="#63b8ff" d="M302.8,-227.36C325.24,-237.56 361.71,-253.63 394,-265.5 399.67,-267.58 405.6,-269.64 411.56,-271.63"/>
<polygon fill="#63b8ff" stroke="#63b8ff" points="410.24,-274.89 420.84,-274.66 412.42,-268.23 410.24,-274.89"/>
</g>
<!-- Node30&#45;&gt;Node30 -->
<g id="edge22" class="edge">
<title>Node30&#45;&gt;Node30</title>
<path fill="none" stroke="#63b8ff" d="M441.84,-201.78C434.36,-210.91 445.58,-219.5 475.5,-219.5 491.86,-219.5 502.63,-216.93 507.81,-213.11"/>
<polygon fill="#63b8ff" stroke="#63b8ff" points="511.27,-213.62 508.98,-203.28 504.32,-212.79 511.27,-213.62"/>
</g>
</g>
</svg>
