<?xml version="1.0" encoding="UTF-8" standalone="no"?>
<!DOCTYPE svg PUBLIC "-//W3C//DTD SVG 1.1//EN"
 "http://www.w3.org/Graphics/SVG/1.1/DTD/svg11.dtd">
<!-- Generated by graphviz version 7.0.3 (0)
 -->
<!-- Title: Urho3D::UIElement::SetLayoutBorder Pages: 1 -->
<svg width="733pt" height="882pt"
 viewBox="0.00 0.00 733.00 881.97" xmlns="http://www.w3.org/2000/svg" xmlns:xlink="http://www.w3.org/1999/xlink">
<g id="graph0" class="graph" transform="scale(1 1) rotate(0) translate(4 877.97)">
<title>Urho3D::UIElement::SetLayoutBorder</title>
<!-- Node1 -->
<g id="node1" class="node">
<title>Node1</title>
<g id="a_node1"><a xlink:title=" ">
<polygon fill="#999999" stroke="#666666" points="105,-693 0,-693 0,-663 105,-663 105,-693"/>
<text text-anchor="start" x="8" y="-681" font-family="Roboto" font-size="10.00">Urho3D::UIElement::</text>
<text text-anchor="middle" x="52.5" y="-670" font-family="Roboto" font-size="10.00">SetLayoutBorder</text>
</a>
</g>
</g>
<!-- Node2 -->
<g id="node2" class="node">
<title>Node2</title>
<g id="a_node2"><a xlink:href="_math_defs_8h.html#a8096c22c3716e172f685af2a5f5e26bb" target="_top" xlink:title=" ">
<polygon fill="white" stroke="#666666" points="709.5,-843.5 635.5,-843.5 635.5,-824.5 709.5,-824.5 709.5,-843.5"/>
<text text-anchor="middle" x="672.5" y="-831.5" font-family="Roboto" font-size="10.00">Urho3D::Max</text>
</a>
</g>
</g>
<!-- Node1&#45;&gt;Node2 -->
<g id="edge1" class="edge">
<title>Node1&#45;&gt;Node2</title>
<path fill="none" stroke="#63b8ff" d="M68.34,-693.36C102.37,-727.45 190.21,-809.07 282,-843 408.03,-889.58 450.74,-874.22 584,-857 599.52,-854.99 616.21,-851.07 630.81,-847.02"/>
<polygon fill="#63b8ff" stroke="#63b8ff" points="631.42,-850.48 640.05,-844.35 629.48,-843.76 631.42,-850.48"/>
</g>
<!-- Node3 -->
<g id="node3" class="node">
<title>Node3</title>
<g id="a_node3"><a xlink:href="class_urho3_d_1_1_u_i_element.html#a7cba78373c23a734a1ccd2d4a27d8cb0" target="_top" xlink:title="Manually update layout. Should not be necessary in most cases, but is provided for completeness.">
<polygon fill="white" stroke="#666666" points="246,-500 141,-500 141,-470 246,-470 246,-500"/>
<text text-anchor="start" x="149" y="-488" font-family="Roboto" font-size="10.00">Urho3D::UIElement::</text>
<text text-anchor="middle" x="193.5" y="-477" font-family="Roboto" font-size="10.00">UpdateLayout</text>
</a>
</g>
</g>
<!-- Node1&#45;&gt;Node3 -->
<g id="edge3" class="edge">
<title>Node1&#45;&gt;Node3</title>
<path fill="none" stroke="#63b8ff" d="M64.64,-662.53C88.74,-629.06 145.9,-549.71 174.93,-509.4"/>
<polygon fill="#63b8ff" stroke="#63b8ff" points="177.61,-511.66 180.62,-501.5 171.93,-507.57 177.61,-511.66"/>
</g>
<!-- Node2&#45;&gt;Node2 -->
<g id="edge2" class="edge">
<title>Node2&#45;&gt;Node2</title>
<path fill="none" stroke="#63b8ff" d="M648.23,-843.87C637.17,-852.44 645.25,-861.5 672.5,-861.5 687.83,-861.5 697.09,-858.63 700.29,-854.6"/>
<polygon fill="#63b8ff" stroke="#63b8ff" points="703.69,-853.71 697.24,-845.31 697.04,-855.9 703.69,-853.71"/>
</g>
<!-- Node3&#45;&gt;Node2 -->
<g id="edge28" class="edge">
<title>Node3&#45;&gt;Node2</title>
<path fill="none" stroke="#63b8ff" d="M196.2,-500.31C203.12,-559.75 231.31,-773.99 282,-815 333.23,-856.45 531.79,-845.84 623.97,-838.39"/>
<polygon fill="#63b8ff" stroke="#63b8ff" points="624.02,-841.9 633.69,-837.58 623.43,-834.92 624.02,-841.9"/>
</g>
<!-- Node4 -->
<g id="node4" class="node">
<title>Node4</title>
<g id="a_node4"><a xlink:href="class_urho3_d_1_1_u_i_element.html#a2c26825089539496dc3c05f2701e9bff" target="_top" xlink:title="Calculate child widths/positions in the layout.">
<polygon fill="white" stroke="#666666" points="401,-500 296,-500 296,-470 401,-470 401,-500"/>
<text text-anchor="start" x="304" y="-488" font-family="Roboto" font-size="10.00">Urho3D::UIElement::</text>
<text text-anchor="middle" x="348.5" y="-477" font-family="Roboto" font-size="10.00">CalculateLayout</text>
</a>
</g>
</g>
<!-- Node3&#45;&gt;Node4 -->
<g id="edge4" class="edge">
<title>Node3&#45;&gt;Node4</title>
<path fill="none" stroke="#63b8ff" d="M246.3,-485C258.51,-485 271.67,-485 284.32,-485"/>
<polygon fill="#63b8ff" stroke="#63b8ff" points="284.24,-488.5 294.24,-485 284.24,-481.5 284.24,-488.5"/>
</g>
<!-- Node7 -->
<g id="node7" class="node">
<title>Node7</title>
<g id="a_node7"><a xlink:href="class_urho3_d_1_1_p_o_d_vector.html#a3eb78093c096ab9e9d68595facc56470" target="_top" xlink:title="Add an element at the end.">
<polygon fill="#fff0f0" stroke="red" points="582.5,-402.5 452.5,-402.5 452.5,-383.5 582.5,-383.5 582.5,-402.5"/>
<text text-anchor="middle" x="517.5" y="-390.5" font-family="Roboto" font-size="10.00">Urho3D::PODVector::Push</text>
</a>
</g>
</g>
<!-- Node3&#45;&gt;Node7 -->
<g id="edge29" class="edge">
<title>Node3&#45;&gt;Node7</title>
<path fill="none" stroke="#63b8ff" d="M207.56,-469.75C223.27,-452.58 251.39,-425.47 282,-413 332.25,-392.53 393.47,-387.92 440.76,-388.22"/>
<polygon fill="#63b8ff" stroke="#63b8ff" points="440.59,-391.71 450.64,-388.36 440.7,-384.71 440.59,-391.71"/>
</g>
<!-- Node13 -->
<g id="node9" class="node">
<title>Node13</title>
<g id="a_node9"><a xlink:href="class_urho3_d_1_1_u_i_element.html#aa8ec3dcc9f57f4c5b7d13f60dcb76f38" target="_top" xlink:title="Calculate layout width for resizing the parent element.">
<polygon fill="white" stroke="#666666" points="415,-452 282,-452 282,-422 415,-422 415,-452"/>
<text text-anchor="start" x="290" y="-440" font-family="Roboto" font-size="10.00">Urho3D::UIElement::</text>
<text text-anchor="middle" x="348.5" y="-429" font-family="Roboto" font-size="10.00">CalculateLayoutParentSize</text>
</a>
</g>
</g>
<!-- Node3&#45;&gt;Node13 -->
<g id="edge10" class="edge">
<title>Node3&#45;&gt;Node13</title>
<path fill="none" stroke="#63b8ff" d="M243.75,-469.55C257.67,-465.18 272.98,-460.38 287.46,-455.83"/>
<polygon fill="#63b8ff" stroke="#63b8ff" points="288.4,-459.21 296.9,-452.88 286.31,-452.53 288.4,-459.21"/>
</g>
<!-- Node14 -->
<g id="node10" class="node">
<title>Node14</title>
<g id="a_node10"><a xlink:href="class_urho3_d_1_1_u_i_element.html#a7e286d16e39b54282ca0d64666d26b67" target="_top" xlink:title="Disable automatic layout update. Should only be used if there are performance problems.">
<polygon fill="white" stroke="#666666" points="403.5,-366 293.5,-366 293.5,-336 403.5,-336 403.5,-366"/>
<text text-anchor="start" x="301.5" y="-354" font-family="Roboto" font-size="10.00">Urho3D::UIElement::</text>
<text text-anchor="middle" x="348.5" y="-343" font-family="Roboto" font-size="10.00">DisableLayoutUpdate</text>
</a>
</g>
</g>
<!-- Node3&#45;&gt;Node14 -->
<g id="edge13" class="edge">
<title>Node3&#45;&gt;Node14</title>
<path fill="none" stroke="#63b8ff" d="M204.04,-469.53C218.5,-447.19 247.91,-405.73 282,-380 286.02,-376.97 290.4,-374.17 294.94,-371.61"/>
<polygon fill="#63b8ff" stroke="#63b8ff" points="296.41,-374.79 303.68,-367.07 293.19,-368.57 296.41,-374.79"/>
</g>
<!-- Node15 -->
<g id="node11" class="node">
<title>Node15</title>
<g id="a_node11"><a xlink:href="class_urho3_d_1_1_u_i_element.html#a952c4e37f3ee8fe5615791389d03f813" target="_top" xlink:title="Enable automatic layout update.">
<polygon fill="white" stroke="#666666" points="402,-318 295,-318 295,-288 402,-288 402,-318"/>
<text text-anchor="start" x="303" y="-306" font-family="Roboto" font-size="10.00">Urho3D::UIElement::</text>
<text text-anchor="middle" x="348.5" y="-295" font-family="Roboto" font-size="10.00">EnableLayoutUpdate</text>
</a>
</g>
</g>
<!-- Node3&#45;&gt;Node15 -->
<g id="edge14" class="edge">
<title>Node3&#45;&gt;Node15</title>
<path fill="none" stroke="#63b8ff" d="M198.97,-469.62C208.83,-438.35 235.32,-366.97 282,-327 283.09,-326.07 284.21,-325.17 285.37,-324.31"/>
<polygon fill="#63b8ff" stroke="#63b8ff" points="286.95,-327.45 293.53,-319.15 283.21,-321.54 286.95,-327.45"/>
</g>
<!-- Node16 -->
<g id="node12" class="node">
<title>Node16</title>
<g id="a_node12"><a xlink:href="class_urho3_d_1_1_u_i_element.html#a6eca4b74842f82376a1d9a7f889aa174" target="_top" xlink:title="Return effective minimum size, also considering layout. Used internally.">
<polygon fill="white" stroke="#666666" points="570,-695 465,-695 465,-665 570,-665 570,-695"/>
<text text-anchor="start" x="473" y="-683" font-family="Roboto" font-size="10.00">Urho3D::UIElement::</text>
<text text-anchor="middle" x="517.5" y="-672" font-family="Roboto" font-size="10.00">GetEffectiveMinSize</text>
</a>
</g>
</g>
<!-- Node3&#45;&gt;Node16 -->
<g id="edge15" class="edge">
<title>Node3&#45;&gt;Node16</title>
<path fill="none" stroke="#63b8ff" d="M199.37,-500.21C209.61,-529.63 236.29,-594.34 282,-627 309.12,-646.38 393.67,-662.2 453.44,-671.37"/>
<polygon fill="#63b8ff" stroke="#63b8ff" points="452.75,-674.81 463.16,-672.83 453.8,-667.88 452.75,-674.81"/>
</g>
<!-- Node18 -->
<g id="node14" class="node">
<title>Node18</title>
<g id="a_node14"><a xlink:href="class_urho3_d_1_1_u_i_element.html#aa54260b906ecc9755c56d59530bedd85" target="_top" xlink:title=" ">
<polygon fill="white" stroke="#666666" points="401,-270 296,-270 296,-240 401,-240 401,-270"/>
<text text-anchor="start" x="304" y="-258" font-family="Roboto" font-size="10.00">Urho3D::UIElement::</text>
<text text-anchor="middle" x="348.5" y="-247" font-family="Roboto" font-size="10.00">GetEnableAnchor</text>
</a>
</g>
</g>
<!-- Node3&#45;&gt;Node18 -->
<g id="edge18" class="edge">
<title>Node3&#45;&gt;Node18</title>
<path fill="none" stroke="#63b8ff" d="M196.75,-469.72C203.1,-432 224.55,-333.62 282,-279 283.39,-277.68 284.85,-276.43 286.38,-275.25"/>
<polygon fill="#63b8ff" stroke="#63b8ff" points="287.97,-278.4 294.46,-270.03 284.17,-272.52 287.97,-278.4"/>
</g>
<!-- Node19 -->
<g id="node15" class="node">
<title>Node19</title>
<g id="a_node15"><a xlink:href="class_urho3_d_1_1_object.html#a69af51cfa67f9626273b35a6d501e03e" target="_top" xlink:title="Return a preallocated map for event data. Used for optimization to avoid constant re&#45;allocation of ev...">
<polygon fill="#fff0f0" stroke="red" points="580,-647 455,-647 455,-617 580,-617 580,-647"/>
<text text-anchor="start" x="463" y="-635" font-family="Roboto" font-size="10.00">Urho3D::Object::GetEvent</text>
<text text-anchor="middle" x="517.5" y="-624" font-family="Roboto" font-size="10.00">DataMap</text>
</a>
</g>
</g>
<!-- Node3&#45;&gt;Node19 -->
<g id="edge19" class="edge">
<title>Node3&#45;&gt;Node19</title>
<path fill="none" stroke="#63b8ff" d="M201.96,-500.44C214.67,-524.95 243,-572.27 282,-595 330.79,-623.43 394.53,-632.03 443.24,-633.88"/>
<polygon fill="#63b8ff" stroke="#63b8ff" points="443.04,-637.37 453.13,-634.16 443.24,-630.38 443.04,-637.37"/>
</g>
<!-- Node32 -->
<g id="node16" class="node">
<title>Node32</title>
<g id="a_node16"><a xlink:href="class_urho3_d_1_1_u_i_element.html#a74426efba577c8b92f7b49c307d7a446" target="_top" xlink:title=" ">
<polygon fill="white" stroke="#666666" points="401,-222 296,-222 296,-192 401,-192 401,-222"/>
<text text-anchor="start" x="304" y="-210" font-family="Roboto" font-size="10.00">Urho3D::UIElement::</text>
<text text-anchor="middle" x="348.5" y="-199" font-family="Roboto" font-size="10.00">GetHeight</text>
</a>
</g>
</g>
<!-- Node3&#45;&gt;Node32 -->
<g id="edge20" class="edge">
<title>Node3&#45;&gt;Node32</title>
<path fill="none" stroke="#63b8ff" d="M195.34,-469.81C198.55,-426.45 213.58,-300.76 282,-231 283.37,-229.6 284.83,-228.29 286.36,-227.05"/>
<polygon fill="#63b8ff" stroke="#63b8ff" points="288.16,-230.05 294.52,-221.59 284.27,-224.24 288.16,-230.05"/>
</g>
<!-- Node33 -->
<g id="node17" class="node">
<title>Node33</title>
<g id="a_node17"><a xlink:href="class_urho3_d_1_1_u_i_element.html#af0d0d929939b0fb4b8d38c7699ecdfa0" target="_top" xlink:title=" ">
<polygon fill="white" stroke="#666666" points="401,-174 296,-174 296,-144 401,-144 401,-174"/>
<text text-anchor="start" x="304" y="-162" font-family="Roboto" font-size="10.00">Urho3D::UIElement::</text>
<text text-anchor="middle" x="348.5" y="-151" font-family="Roboto" font-size="10.00">GetIndentWidth</text>
</a>
</g>
</g>
<!-- Node3&#45;&gt;Node33 -->
<g id="edge21" class="edge">
<title>Node3&#45;&gt;Node33</title>
<path fill="none" stroke="#63b8ff" d="M194.36,-469.84C194.74,-421.34 202.49,-268.21 282,-183 283.33,-181.57 284.76,-180.22 286.26,-178.96"/>
<polygon fill="#63b8ff" stroke="#63b8ff" points="288.08,-181.96 294.33,-173.41 284.11,-176.19 288.08,-181.96"/>
</g>
<!-- Node34 -->
<g id="node18" class="node">
<title>Node34</title>
<g id="a_node18"><a xlink:href="class_urho3_d_1_1_u_i_element.html#a94a1fe4987f7861a8010ae1746aabed5" target="_top" xlink:title="Get child element constant position in a layout.">
<polygon fill="#fff0f0" stroke="red" points="408,-126 289,-126 289,-96 408,-96 408,-126"/>
<text text-anchor="start" x="297" y="-114" font-family="Roboto" font-size="10.00">Urho3D::UIElement::</text>
<text text-anchor="middle" x="348.5" y="-103" font-family="Roboto" font-size="10.00">GetLayoutChildPosition</text>
</a>
</g>
</g>
<!-- Node3&#45;&gt;Node34 -->
<g id="edge22" class="edge">
<title>Node3&#45;&gt;Node34</title>
<path fill="none" stroke="#63b8ff" d="M196.42,-469.64C204.28,-408.9 235.83,-186.35 282,-135 282.47,-134.48 282.95,-133.97 283.44,-133.47"/>
<polygon fill="#63b8ff" stroke="#63b8ff" points="285.53,-136.28 291.11,-127.28 281.13,-130.84 285.53,-136.28"/>
</g>
<!-- Node37 -->
<g id="node19" class="node">
<title>Node37</title>
<g id="a_node19"><a xlink:href="class_urho3_d_1_1_u_i_element.html#a5a2a6a83eaf5713c846685142f90f24f" target="_top" xlink:title=" ">
<polygon fill="white" stroke="#666666" points="401,-78 296,-78 296,-48 401,-48 401,-78"/>
<text text-anchor="start" x="304" y="-66" font-family="Roboto" font-size="10.00">Urho3D::UIElement::</text>
<text text-anchor="middle" x="348.5" y="-55" font-family="Roboto" font-size="10.00">GetLayoutFlexScale</text>
</a>
</g>
</g>
<!-- Node3&#45;&gt;Node37 -->
<g id="edge23" class="edge">
<title>Node3&#45;&gt;Node37</title>
<path fill="none" stroke="#63b8ff" d="M195.9,-469.83C202.23,-404.32 230.1,-146.41 282,-87 283.31,-85.5 284.73,-84.08 286.23,-82.76"/>
<polygon fill="#63b8ff" stroke="#63b8ff" points="288.25,-85.63 294.38,-76.99 284.2,-79.91 288.25,-85.63"/>
</g>
<!-- Node38 -->
<g id="node20" class="node">
<title>Node38</title>
<g id="a_node20"><a xlink:href="class_urho3_d_1_1_u_i_element.html#a7fea1c06051cf2ed6e639f4cc2915b18" target="_top" xlink:title=" ">
<polygon fill="white" stroke="#666666" points="401,-30 296,-30 296,0 401,0 401,-30"/>
<text text-anchor="start" x="304" y="-18" font-family="Roboto" font-size="10.00">Urho3D::UIElement::</text>
<text text-anchor="middle" x="348.5" y="-7" font-family="Roboto" font-size="10.00">GetMaxHeight</text>
</a>
</g>
</g>
<!-- Node3&#45;&gt;Node38 -->
<g id="edge24" class="edge">
<title>Node3&#45;&gt;Node38</title>
<path fill="none" stroke="#63b8ff" d="M195.5,-469.93C200.45,-399.88 224.36,-106.51 282,-39 283.3,-37.48 284.7,-36.06 286.19,-34.72"/>
<polygon fill="#63b8ff" stroke="#63b8ff" points="288.2,-37.58 294.29,-28.91 284.12,-31.9 288.2,-37.58"/>
</g>
<!-- Node39 -->
<g id="node21" class="node">
<title>Node39</title>
<g id="a_node21"><a xlink:href="class_urho3_d_1_1_u_i_element.html#a829de89e3280b1828723fdac83307bc4" target="_top" xlink:title=" ">
<polygon fill="white" stroke="#666666" points="401,-806 296,-806 296,-776 401,-776 401,-806"/>
<text text-anchor="start" x="304" y="-794" font-family="Roboto" font-size="10.00">Urho3D::UIElement::</text>
<text text-anchor="middle" x="348.5" y="-783" font-family="Roboto" font-size="10.00">GetMaxWidth</text>
</a>
</g>
</g>
<!-- Node3&#45;&gt;Node39 -->
<g id="edge25" class="edge">
<title>Node3&#45;&gt;Node39</title>
<path fill="none" stroke="#63b8ff" d="M194.74,-500.48C196.3,-547.2 207.29,-688.43 282,-767 283.35,-768.42 284.79,-769.75 286.3,-771.01"/>
<polygon fill="#63b8ff" stroke="#63b8ff" points="284.17,-773.79 294.4,-776.53 288.11,-768.01 284.17,-773.79"/>
</g>
<!-- Node40 -->
<g id="node22" class="node">
<title>Node40</title>
<g id="a_node22"><a xlink:href="class_urho3_d_1_1_u_i_element.html#a8c3df9a7b24aa874345db797a95e130e" target="_top" xlink:title=" ">
<polygon fill="white" stroke="#666666" points="401,-758 296,-758 296,-728 401,-728 401,-758"/>
<text text-anchor="start" x="304" y="-746" font-family="Roboto" font-size="10.00">Urho3D::UIElement::</text>
<text text-anchor="middle" x="348.5" y="-735" font-family="Roboto" font-size="10.00">GetWidth</text>
</a>
</g>
</g>
<!-- Node3&#45;&gt;Node40 -->
<g id="edge26" class="edge">
<title>Node3&#45;&gt;Node40</title>
<path fill="none" stroke="#63b8ff" d="M195.89,-500.48C200.41,-541.78 218.31,-655.73 282,-719 283.36,-720.35 284.8,-721.62 286.31,-722.83"/>
<polygon fill="#63b8ff" stroke="#63b8ff" points="284.03,-725.52 294.3,-728.14 287.91,-719.69 284.03,-725.52"/>
</g>
<!-- Node41 -->
<g id="node23" class="node">
<title>Node41</title>
<g id="a_node23"><a xlink:href="class_urho3_d_1_1_u_i_element.html#a8d8ba4e0f53c653b1defd109f5335246" target="_top" xlink:title=" ">
<polygon fill="white" stroke="#666666" points="401,-710 296,-710 296,-680 401,-680 401,-710"/>
<text text-anchor="start" x="304" y="-698" font-family="Roboto" font-size="10.00">Urho3D::UIElement::</text>
<text text-anchor="middle" x="348.5" y="-687" font-family="Roboto" font-size="10.00">IsVisible</text>
</a>
</g>
</g>
<!-- Node3&#45;&gt;Node41 -->
<g id="edge27" class="edge">
<title>Node3&#45;&gt;Node41</title>
<path fill="none" stroke="#63b8ff" d="M198.09,-500.48C206.77,-534.71 231.95,-617.59 282,-666 284.86,-668.76 288.02,-671.29 291.38,-673.59"/>
<polygon fill="#63b8ff" stroke="#63b8ff" points="289.54,-676.58 299.92,-678.73 293.15,-670.58 289.54,-676.58"/>
</g>
<!-- Node42 -->
<g id="node24" class="node">
<title>Node42</title>
<g id="a_node24"><a xlink:href="class_urho3_d_1_1_object.html#a32020dbf77c196b9777eca479e8abb36" target="_top" xlink:title="Send event to all subscribers.">
<polygon fill="white" stroke="#666666" points="584,-580.5 451,-580.5 451,-561.5 584,-561.5 584,-580.5"/>
<text text-anchor="middle" x="517.5" y="-568.5" font-family="Roboto" font-size="10.00">Urho3D::Object::SendEvent</text>
</a>
</g>
</g>
<!-- Node3&#45;&gt;Node42 -->
<g id="edge30" class="edge">
<title>Node3&#45;&gt;Node42</title>
<path fill="none" stroke="#63b8ff" d="M246.3,-499.29C258.03,-502.51 270.44,-505.89 282,-509 345.99,-526.24 419.93,-545.71 467.4,-558.16"/>
<polygon fill="#63b8ff" stroke="#63b8ff" points="466.27,-561.48 476.83,-560.63 468.04,-554.71 466.27,-561.48"/>
</g>
<!-- Node43 -->
<g id="node25" class="node">
<title>Node43</title>
<g id="a_node25"><a xlink:href="class_urho3_d_1_1_u_i_element.html#a388303ecaef3a6d4764cf84f3dfcceb8" target="_top" xlink:title=" ">
<polygon fill="#fff0f0" stroke="red" points="401,-586 296,-586 296,-556 401,-556 401,-586"/>
<text text-anchor="start" x="304" y="-574" font-family="Roboto" font-size="10.00">Urho3D::UIElement::</text>
<text text-anchor="middle" x="348.5" y="-563" font-family="Roboto" font-size="10.00">SetSize</text>
</a>
</g>
</g>
<!-- Node3&#45;&gt;Node43 -->
<g id="edge32" class="edge">
<title>Node3&#45;&gt;Node43</title>
<path fill="none" stroke="#63b8ff" d="M227.8,-500.34C243.82,-510.33 263.51,-522.97 282,-533 293.27,-539.11 306.08,-545 317.36,-550.45"/>
<polygon fill="#63b8ff" stroke="#63b8ff" points="315.74,-553.55 326.26,-554.85 318.85,-547.28 315.74,-553.55"/>
</g>
<!-- Node5 -->
<g id="node5" class="node">
<title>Node5</title>
<g id="a_node5"><a xlink:href="_math_defs_8h.html#a937fef228b452d2488ce13d78f0bd810" target="_top" xlink:title=" ">
<polygon fill="white" stroke="#666666" points="559,-525.5 476,-525.5 476,-506.5 559,-506.5 559,-525.5"/>
<text text-anchor="middle" x="517.5" y="-513.5" font-family="Roboto" font-size="10.00">Urho3D::Clamp</text>
</a>
</g>
</g>
<!-- Node4&#45;&gt;Node5 -->
<g id="edge5" class="edge">
<title>Node4&#45;&gt;Node5</title>
<path fill="none" stroke="#63b8ff" d="M401.42,-494.64C421.53,-498.37 444.5,-502.63 464.6,-506.37"/>
<polygon fill="#63b8ff" stroke="#63b8ff" points="463.79,-509.77 474.26,-508.16 465.06,-502.89 463.79,-509.77"/>
</g>
<!-- Node6 -->
<g id="node6" class="node">
<title>Node6</title>
<g id="a_node6"><a xlink:href="class_urho3_d_1_1_p_o_d_vector.html#a5be72d35fc52d2623985f20b95855d10" target="_top" xlink:title="Return whether vector is empty.">
<polygon fill="white" stroke="#666666" points="571.5,-451 463.5,-451 463.5,-421 571.5,-421 571.5,-451"/>
<text text-anchor="start" x="471.5" y="-439" font-family="Roboto" font-size="10.00">Urho3D::PODVector::</text>
<text text-anchor="middle" x="517.5" y="-428" font-family="Roboto" font-size="10.00">Empty</text>
</a>
</g>
</g>
<!-- Node4&#45;&gt;Node6 -->
<g id="edge7" class="edge">
<title>Node4&#45;&gt;Node6</title>
<path fill="none" stroke="#63b8ff" d="M401.42,-469.76C417.68,-464.99 435.81,-459.67 452.79,-454.69"/>
<polygon fill="#63b8ff" stroke="#63b8ff" points="453.68,-458.08 462.29,-451.91 451.71,-451.36 453.68,-458.08"/>
</g>
<!-- Node4&#45;&gt;Node7 -->
<g id="edge8" class="edge">
<title>Node4&#45;&gt;Node7</title>
<path fill="none" stroke="#63b8ff" d="M400.76,-469.63C405.79,-467.14 410.64,-464.27 415,-461 436.61,-444.77 428.85,-427.48 451,-412 453.21,-410.46 455.55,-409.04 457.97,-407.73"/>
<polygon fill="#63b8ff" stroke="#63b8ff" points="459.3,-410.97 466.93,-403.61 456.38,-404.61 459.3,-410.97"/>
</g>
<!-- Node12 -->
<g id="node8" class="node">
<title>Node12</title>
<g id="a_node8"><a xlink:href="class_urho3_d_1_1_p_o_d_vector.html#ab1ba347a0118ed7d9ef79f3026153c88" target="_top" xlink:title="Return number of elements.">
<polygon fill="white" stroke="#666666" points="581,-488.5 454,-488.5 454,-469.5 581,-469.5 581,-488.5"/>
<text text-anchor="middle" x="517.5" y="-476.5" font-family="Roboto" font-size="10.00">Urho3D::PODVector::Size</text>
</a>
</g>
</g>
<!-- Node4&#45;&gt;Node12 -->
<g id="edge9" class="edge">
<title>Node4&#45;&gt;Node12</title>
<path fill="none" stroke="#63b8ff" d="M401.42,-483.13C414.37,-482.67 428.49,-482.16 442.28,-481.67"/>
<polygon fill="#63b8ff" stroke="#63b8ff" points="442.37,-485.17 452.23,-481.31 442.11,-478.17 442.37,-485.17"/>
</g>
<!-- Node5&#45;&gt;Node5 -->
<g id="edge6" class="edge">
<title>Node5&#45;&gt;Node5</title>
<path fill="none" stroke="#63b8ff" d="M493.23,-525.87C482.17,-534.44 490.25,-543.5 517.5,-543.5 532.83,-543.5 542.09,-540.63 545.29,-536.6"/>
<polygon fill="#63b8ff" stroke="#63b8ff" points="548.69,-535.71 542.24,-527.31 542.04,-537.9 548.69,-535.71"/>
</g>
<!-- Node13&#45;&gt;Node6 -->
<g id="edge11" class="edge">
<title>Node13&#45;&gt;Node6</title>
<path fill="none" stroke="#63b8ff" d="M415.02,-436.61C427.07,-436.54 439.65,-436.46 451.67,-436.39"/>
<polygon fill="#63b8ff" stroke="#63b8ff" points="451.51,-439.89 461.49,-436.33 451.47,-432.89 451.51,-439.89"/>
</g>
<!-- Node13&#45;&gt;Node12 -->
<g id="edge12" class="edge">
<title>Node13&#45;&gt;Node12</title>
<path fill="none" stroke="#63b8ff" d="M410.74,-452.4C428.91,-456.97 448.6,-461.92 466.01,-466.3"/>
<polygon fill="#63b8ff" stroke="#63b8ff" points="465.07,-469.67 475.62,-468.72 466.77,-462.88 465.07,-469.67"/>
</g>
<!-- Node16&#45;&gt;Node2 -->
<g id="edge17" class="edge">
<title>Node16&#45;&gt;Node2</title>
<path fill="none" stroke="#63b8ff" d="M533.73,-695.33C562.21,-724 623.39,-785.57 653.71,-816.1"/>
<polygon fill="#63b8ff" stroke="#63b8ff" points="651.13,-818.46 660.66,-823.09 656.1,-813.53 651.13,-818.46"/>
</g>
<!-- Node17 -->
<g id="node13" class="node">
<title>Node17</title>
<g id="a_node13"><a xlink:href="class_urho3_d_1_1_u_i_element.html#a41f04deaaa70ebe9101a25fcf8bc1666" target="_top" xlink:title=" ">
<polygon fill="white" stroke="#666666" points="725,-695 620,-695 620,-665 725,-665 725,-695"/>
<text text-anchor="start" x="628" y="-683" font-family="Roboto" font-size="10.00">Urho3D::UIElement::</text>
<text text-anchor="middle" x="672.5" y="-672" font-family="Roboto" font-size="10.00">IsFixedSize</text>
</a>
</g>
</g>
<!-- Node16&#45;&gt;Node17 -->
<g id="edge16" class="edge">
<title>Node16&#45;&gt;Node17</title>
<path fill="none" stroke="#63b8ff" d="M570.3,-680C582.51,-680 595.67,-680 608.32,-680"/>
<polygon fill="#63b8ff" stroke="#63b8ff" points="608.24,-683.5 618.24,-680 608.24,-676.5 608.24,-683.5"/>
</g>
<!-- Node42&#45;&gt;Node42 -->
<g id="edge31" class="edge">
<title>Node42&#45;&gt;Node42</title>
<path fill="none" stroke="#63b8ff" d="M493.23,-580.87C482.17,-589.44 490.25,-598.5 517.5,-598.5 532.83,-598.5 542.09,-595.63 545.29,-591.6"/>
<polygon fill="#63b8ff" stroke="#63b8ff" points="548.69,-590.71 542.24,-582.31 542.04,-592.9 548.69,-590.71"/>
</g>
<!-- Node43&#45;&gt;Node3 -->
<g id="edge37" class="edge">
<title>Node43&#45;&gt;Node3</title>
<path fill="none" stroke="#63b8ff" d="M295.64,-557.93C290.98,-555.71 286.37,-553.37 282,-551 258.6,-538.31 233.27,-521.43 215.91,-507.64"/>
<polygon fill="#63b8ff" stroke="#63b8ff" points="218.23,-505.02 208.31,-501.31 213.75,-510.4 218.23,-505.02"/>
</g>
<!-- Node43&#45;&gt;Node5 -->
<g id="edge33" class="edge">
<title>Node43&#45;&gt;Node5</title>
<path fill="none" stroke="#63b8ff" d="M396.46,-555.53C421.28,-547.36 451.46,-537.42 475.36,-529.55"/>
<polygon fill="#63b8ff" stroke="#63b8ff" points="476.35,-532.91 484.75,-526.46 474.16,-526.26 476.35,-532.91"/>
</g>
<!-- Node43&#45;&gt;Node16 -->
<g id="edge34" class="edge">
<title>Node43&#45;&gt;Node16</title>
<path fill="none" stroke="#63b8ff" d="M364.39,-586.38C383.12,-605.01 416.97,-636.33 451,-656 453.3,-657.33 455.69,-658.61 458.13,-659.83"/>
<polygon fill="#63b8ff" stroke="#63b8ff" points="456.48,-662.93 467.02,-663.94 459.41,-656.57 456.48,-662.93"/>
</g>
<!-- Node43&#45;&gt;Node19 -->
<g id="edge35" class="edge">
<title>Node43&#45;&gt;Node19</title>
<path fill="none" stroke="#63b8ff" d="M391.64,-586.39C413.41,-594.35 440.2,-604.13 463.38,-612.6"/>
<polygon fill="#63b8ff" stroke="#63b8ff" points="462.07,-615.84 472.66,-615.99 464.47,-609.27 462.07,-615.84"/>
</g>
<!-- Node43&#45;&gt;Node42 -->
<g id="edge36" class="edge">
<title>Node43&#45;&gt;Node42</title>
<path fill="none" stroke="#63b8ff" d="M401.42,-571C413.5,-571 426.6,-571 439.49,-571"/>
<polygon fill="#63b8ff" stroke="#63b8ff" points="439.23,-574.5 449.23,-571 439.23,-567.5 439.23,-574.5"/>
</g>
</g>
</svg>
