<?xml version="1.0" encoding="UTF-8" standalone="no"?>
<!DOCTYPE svg PUBLIC "-//W3C//DTD SVG 1.1//EN"
 "http://www.w3.org/Graphics/SVG/1.1/DTD/svg11.dtd">
<!-- Generated by graphviz version 7.0.3 (0)
 -->
<!-- Title: Urho3D::NavigationMesh Pages: 1 -->
<svg width="1429pt" height="687pt"
 viewBox="0.00 0.00 1429.00 686.69" xmlns="http://www.w3.org/2000/svg" xmlns:xlink="http://www.w3.org/1999/xlink">
<g id="graph0" class="graph" transform="scale(1 1) rotate(0) translate(4 682.69)">
<title>Urho3D::NavigationMesh</title>
<!-- Node1 -->
<g id="node1" class="node">
<title>Node1</title>
<g id="a_node1"><a xlink:title="Navigation mesh component. Collects the navigation geometry from child nodes with the Navigable compo...">
<polygon fill="#999999" stroke="#666666" points="1421,-172.19 1295,-172.19 1295,-153.19 1421,-153.19 1421,-172.19"/>
<text text-anchor="middle" x="1358" y="-160.19" font-family="Roboto" font-size="10.00">Urho3D::NavigationMesh</text>
</a>
</g>
</g>
<!-- Node2 -->
<g id="node2" class="node">
<title>Node2</title>
<g id="a_node2"><a xlink:href="class_urho3_d_1_1_component.html" target="_top" xlink:title=" ">
<polygon fill="white" stroke="#666666" points="1205,-424.19 1098,-424.19 1098,-405.19 1205,-405.19 1205,-424.19"/>
<text text-anchor="middle" x="1151.5" y="-412.19" font-family="Roboto" font-size="10.00">Urho3D::Component</text>
</a>
</g>
</g>
<!-- Node2&#45;&gt;Node1 -->
<g id="edge1" class="edge">
<title>Node2&#45;&gt;Node1</title>
<path fill="none" stroke="#63b8ff" d="M1185.58,-399.52C1192.41,-395.56 1199.26,-390.92 1205,-385.69 1279.83,-317.56 1336.6,-205.64 1352.51,-172.33"/>
<polygon fill="#63b8ff" stroke="#63b8ff" points="1184.21,-396.28 1177.06,-404.09 1187.52,-402.45 1184.21,-396.28"/>
</g>
<!-- Node3 -->
<g id="node3" class="node">
<title>Node3</title>
<g id="a_node3"><a xlink:href="class_urho3_d_1_1_animatable.html" target="_top" xlink:title="Base class for animatable object, an animatable object can be set animation on it&#39;s attributes,...">
<polygon fill="white" stroke="#666666" points="605,-610.19 501,-610.19 501,-591.19 605,-591.19 605,-610.19"/>
<text text-anchor="middle" x="553" y="-598.19" font-family="Roboto" font-size="10.00">Urho3D::Animatable</text>
</a>
</g>
</g>
<!-- Node3&#45;&gt;Node2 -->
<g id="edge2" class="edge">
<title>Node3&#45;&gt;Node2</title>
<path fill="none" stroke="#63b8ff" d="M616.52,-588.55C625.11,-586.69 633.79,-584.72 642,-582.69 831.11,-536.03 1051.25,-453.23 1124.98,-424.69"/>
<polygon fill="#63b8ff" stroke="#63b8ff" points="615.88,-585.11 606.82,-590.6 617.33,-591.96 615.88,-585.11"/>
</g>
<!-- Node42 -->
<g id="node9" class="node">
<title>Node42</title>
<g id="a_node9"><a xlink:href="class_urho3_d_1_1_node.html" target="_top" xlink:title="Scene node that may contain components and child nodes.">
<polygon fill="white" stroke="#666666" points="932.5,-391.19 852.5,-391.19 852.5,-372.19 932.5,-372.19 932.5,-391.19"/>
<text text-anchor="middle" x="892.5" y="-379.19" font-family="Roboto" font-size="10.00">Urho3D::Node</text>
</a>
</g>
</g>
<!-- Node3&#45;&gt;Node42 -->
<g id="edge9" class="edge">
<title>Node3&#45;&gt;Node42</title>
<path fill="none" stroke="#63b8ff" d="M616.43,-596.14C625.75,-593.24 634.67,-588.95 642,-582.69 659.32,-567.89 642.48,-549.26 660,-534.69 714.83,-489.09 759.44,-547.39 818,-506.69 860.17,-477.38 881.81,-415.41 888.85,-391.44"/>
<polygon fill="#63b8ff" stroke="#63b8ff" points="615.69,-592.72 606.86,-598.57 617.41,-599.5 615.69,-592.72"/>
</g>
<!-- Node4 -->
<g id="node4" class="node">
<title>Node4</title>
<g id="a_node4"><a xlink:href="class_urho3_d_1_1_serializable.html" target="_top" xlink:title="Base class for objects with automatic serialization through attributes.">
<polygon fill="#fff0f0" stroke="red" points="261.5,-571.19 156.5,-571.19 156.5,-552.19 261.5,-552.19 261.5,-571.19"/>
<text text-anchor="middle" x="209" y="-559.19" font-family="Roboto" font-size="10.00">Urho3D::Serializable</text>
</a>
</g>
</g>
<!-- Node4&#45;&gt;Node3 -->
<g id="edge3" class="edge">
<title>Node4&#45;&gt;Node3</title>
<path fill="none" stroke="#63b8ff" d="M273.35,-568.92C338.88,-576.39 439.98,-587.92 500.69,-594.84"/>
<polygon fill="#63b8ff" stroke="#63b8ff" points="273.78,-565.44 263.45,-567.79 272.99,-572.4 273.78,-565.44"/>
</g>
<!-- Node5 -->
<g id="node5" class="node">
<title>Node5</title>
<g id="a_node5"><a xlink:href="class_urho3_d_1_1_object.html" target="_top" xlink:title=" ">
<polygon fill="#fff0f0" stroke="red" points="83,-571.19 0,-571.19 0,-552.19 83,-552.19 83,-571.19"/>
<text text-anchor="middle" x="41.5" y="-559.19" font-family="Roboto" font-size="10.00">Urho3D::Object</text>
</a>
</g>
</g>
<!-- Node5&#45;&gt;Node4 -->
<g id="edge4" class="edge">
<title>Node5&#45;&gt;Node4</title>
<path fill="none" stroke="#63b8ff" d="M94.91,-561.69C114.51,-561.69 136.75,-561.69 156.28,-561.69"/>
<polygon fill="#63b8ff" stroke="#63b8ff" points="94.92,-558.19 84.92,-561.69 94.92,-565.19 94.92,-558.19"/>
</g>
<!-- Node34 -->
<g id="node6" class="node">
<title>Node34</title>
<g id="a_node6"><a xlink:href="class_urho3_d_1_1_shared_ptr.html" target="_top" xlink:title=" ">
<polygon fill="white" stroke="orangered" points="277.5,-533.69 140.5,-533.69 140.5,-503.69 277.5,-503.69 277.5,-533.69"/>
<text text-anchor="start" x="148.5" y="-521.69" font-family="Roboto" font-size="10.00">Urho3D::SharedPtr&lt;</text>
<text text-anchor="middle" x="209" y="-510.69" font-family="Roboto" font-size="10.00"> Urho3D::ObjectAnimation &gt;</text>
</a>
</g>
</g>
<!-- Node34&#45;&gt;Node3 -->
<g id="edge5" class="edge">
<title>Node34&#45;&gt;Node3</title>
<path fill="none" stroke="#9a32cd" stroke-dasharray="5,2" d="M289.34,-517.64C337.74,-520.37 399.11,-530.1 446,-558.69 457.38,-565.63 452.74,-575.56 464,-582.69 474.93,-589.62 488.03,-593.94 500.73,-596.63"/>
<polygon fill="#9a32cd" stroke="#9a32cd" points="289.62,-514.15 279.47,-517.19 289.3,-521.15 289.62,-514.15"/>
<text text-anchor="middle" x="381" y="-561.69" font-family="Roboto" font-size="10.00"> objectAnimation_</text>
</g>
<!-- Node40 -->
<g id="node7" class="node">
<title>Node40</title>
<g id="a_node7"><a xlink:href="class_urho3_d_1_1_hash_set.html" target="_top" xlink:title=" ">
<polygon fill="white" stroke="orangered" points="272.5,-678.69 145.5,-678.69 145.5,-648.69 272.5,-648.69 272.5,-678.69"/>
<text text-anchor="start" x="153.5" y="-666.69" font-family="Roboto" font-size="10.00">Urho3D::HashSet&lt; const</text>
<text text-anchor="middle" x="209" y="-655.69" font-family="Roboto" font-size="10.00"> Urho3D::AttributeInfo * &gt;</text>
</a>
</g>
</g>
<!-- Node40&#45;&gt;Node3 -->
<g id="edge6" class="edge">
<title>Node40&#45;&gt;Node3</title>
<path fill="none" stroke="#9a32cd" stroke-dasharray="5,2" d="M283.87,-650.93C330.43,-642.79 391.78,-631.89 446,-621.69 464.53,-618.21 484.85,-614.22 502.69,-610.67"/>
<polygon fill="#9a32cd" stroke="#9a32cd" points="283.41,-647.45 274.16,-652.62 284.61,-654.35 283.41,-647.45"/>
<text text-anchor="middle" x="381" y="-647.69" font-family="Roboto" font-size="10.00"> animatedNetworkAttributes_</text>
</g>
<!-- Node41 -->
<g id="node8" class="node">
<title>Node41</title>
<g id="a_node8"><a xlink:href="class_urho3_d_1_1_hash_map.html" target="_top" xlink:title=" ">
<polygon fill="white" stroke="orangered" points="298,-630.19 120,-630.19 120,-589.19 298,-589.19 298,-630.19"/>
<text text-anchor="start" x="128" y="-618.19" font-family="Roboto" font-size="10.00">Urho3D::HashMap&lt; Urho3D</text>
<text text-anchor="start" x="128" y="-607.19" font-family="Roboto" font-size="10.00">::String, Urho3D::SharedPtr</text>
<text text-anchor="middle" x="209" y="-596.19" font-family="Roboto" font-size="10.00">&lt; Urho3D::AttributeAnimationInfo &gt; &gt;</text>
</a>
</g>
</g>
<!-- Node41&#45;&gt;Node3 -->
<g id="edge7" class="edge">
<title>Node41&#45;&gt;Node3</title>
<path fill="none" stroke="#9a32cd" stroke-dasharray="5,2" d="M309.58,-607.07C372.25,-605.42 450.51,-603.36 500.87,-602.04"/>
<polygon fill="#9a32cd" stroke="#9a32cd" points="309.49,-603.57 299.59,-607.33 309.68,-610.57 309.49,-603.57"/>
<text text-anchor="middle" x="381" y="-609.69" font-family="Roboto" font-size="10.00"> attributeAnimationInfos_</text>
</g>
<!-- Node42&#45;&gt;Node2 -->
<g id="edge8" class="edge">
<title>Node42&#45;&gt;Node2</title>
<path fill="none" stroke="#9a32cd" stroke-dasharray="5,2" d="M944.21,-388.2C988.6,-393.9 1052.86,-402.15 1097.82,-407.93"/>
<polygon fill="#9a32cd" stroke="#9a32cd" points="944.68,-384.74 934.31,-386.93 943.79,-391.68 944.68,-384.74"/>
<text text-anchor="middle" x="1023.5" y="-407.69" font-family="Roboto" font-size="10.00"> node_</text>
</g>
<!-- Node42&#45;&gt;Node42 -->
<g id="edge12" class="edge">
<title>Node42&#45;&gt;Node42</title>
<path fill="none" stroke="#9a32cd" stroke-dasharray="5,2" d="M869.25,-402.62C872.16,-406.48 879.91,-409.19 892.5,-409.19 915.53,-409.19 922.36,-400.13 913.01,-391.56"/>
<polygon fill="#9a32cd" stroke="#9a32cd" points="872.62,-403.58 871.63,-393.03 865.82,-401.89 872.62,-403.58"/>
<text text-anchor="middle" x="892.5" y="-412.19" font-family="Roboto" font-size="10.00"> parent_</text>
</g>
<!-- Node44 -->
<g id="node11" class="node">
<title>Node44</title>
<g id="a_node11"><a xlink:href="class_urho3_d_1_1_scene.html" target="_top" xlink:title="Root scene node, represents the whole scene.">
<polygon fill="#fff0f0" stroke="red" points="1192.5,-376.19 1110.5,-376.19 1110.5,-357.19 1192.5,-357.19 1192.5,-376.19"/>
<text text-anchor="middle" x="1151.5" y="-364.19" font-family="Roboto" font-size="10.00">Urho3D::Scene</text>
</a>
</g>
</g>
<!-- Node42&#45;&gt;Node44 -->
<g id="edge14" class="edge">
<title>Node42&#45;&gt;Node44</title>
<path fill="none" stroke="#63b8ff" d="M944.04,-378.74C992.74,-375.9 1065.47,-371.65 1110.34,-369.04"/>
<polygon fill="#63b8ff" stroke="#63b8ff" points="944.1,-375.23 934.32,-379.31 944.51,-382.22 944.1,-375.23"/>
</g>
<!-- Node43 -->
<g id="node10" class="node">
<title>Node43</title>
<g id="a_node10"><a xlink:href="class_urho3_d_1_1_matrix3x4.html" target="_top" xlink:title="3x4 matrix for scene node transform calculations.">
<polygon fill="white" stroke="#666666" points="602.5,-274.19 503.5,-274.19 503.5,-255.19 602.5,-255.19 602.5,-274.19"/>
<text text-anchor="middle" x="553" y="-262.19" font-family="Roboto" font-size="10.00">Urho3D::Matrix3x4</text>
</a>
</g>
</g>
<!-- Node43&#45;&gt;Node42 -->
<g id="edge10" class="edge">
<title>Node43&#45;&gt;Node42</title>
<path fill="none" stroke="#9a32cd" stroke-dasharray="5,2" d="M605.25,-277.37C676.37,-295.11 798.5,-326.12 818,-334.69 840.74,-344.69 864.51,-361.16 878.66,-371.72"/>
<polygon fill="#9a32cd" stroke="#9a32cd" points="606.31,-274.03 595.77,-275.01 604.62,-280.83 606.31,-274.03"/>
<text text-anchor="middle" x="739" y="-337.69" font-family="Roboto" font-size="10.00"> worldTransform_</text>
</g>
<!-- Node43&#45;&gt;Node43 -->
<g id="edge11" class="edge">
<title>Node43&#45;&gt;Node43</title>
<path fill="none" stroke="#9a32cd" stroke-dasharray="5,2" d="M522.16,-285.29C525.71,-289.32 535.99,-292.19 553,-292.19 583.23,-292.19 592.21,-283.13 579.93,-274.56"/>
<polygon fill="#9a32cd" stroke="#9a32cd" points="525.41,-286.58 525.55,-275.98 518.84,-284.18 525.41,-286.58"/>
<text text-anchor="middle" x="553" y="-306.19" font-family="Roboto" font-size="10.00"> IDENTITY</text>
<text text-anchor="middle" x="553" y="-295.19" font-family="Roboto" font-size="10.00">ZERO</text>
</g>
<!-- Node44&#45;&gt;Node42 -->
<g id="edge13" class="edge">
<title>Node44&#45;&gt;Node42</title>
<path fill="none" stroke="#9a32cd" stroke-dasharray="5,2" d="M1099.13,-357.95C1062.16,-353.1 1011.22,-349.38 967,-356.69 949.58,-359.57 930.74,-366.05 916.5,-371.69"/>
<polygon fill="#9a32cd" stroke="#9a32cd" points="1098.25,-361.36 1108.63,-359.27 1099.21,-354.43 1098.25,-361.36"/>
<text text-anchor="middle" x="1023.5" y="-359.69" font-family="Roboto" font-size="10.00"> scene_</text>
</g>
<!-- Node37 -->
<g id="node12" class="node">
<title>Node37</title>
<g id="a_node12"><a xlink:href="class_urho3_d_1_1_string.html" target="_top" xlink:title="String class.">
<polygon fill="white" stroke="#666666" points="932.5,-603.19 852.5,-603.19 852.5,-584.19 932.5,-584.19 932.5,-603.19"/>
<text text-anchor="middle" x="892.5" y="-591.19" font-family="Roboto" font-size="10.00">Urho3D::String</text>
</a>
</g>
</g>
<!-- Node37&#45;&gt;Node1 -->
<g id="edge30" class="edge">
<title>Node37&#45;&gt;Node1</title>
<path fill="none" stroke="#9a32cd" stroke-dasharray="5,2" d="M944.26,-586.95C983.16,-580.26 1037.25,-567.58 1080,-544.69 1189.44,-486.1 1212.04,-452.47 1277,-346.69 1315.28,-284.36 1344.59,-200.48 1353.89,-172.34"/>
<polygon fill="#9a32cd" stroke="#9a32cd" points="943.75,-583.48 934.45,-588.55 944.88,-590.39 943.75,-583.48"/>
<text text-anchor="middle" x="1151.5" y="-535.69" font-family="Roboto" font-size="10.00"> meshName_</text>
</g>
<!-- Node37&#45;&gt;Node44 -->
<g id="edge15" class="edge">
<title>Node37&#45;&gt;Node44</title>
<path fill="none" stroke="#9a32cd" stroke-dasharray="5,2" d="M913.97,-576.46C949.39,-546.26 1023.68,-481.11 1080,-419.69 1088.77,-410.12 1088.18,-405.18 1098,-396.69 1107.21,-388.73 1118.85,-381.82 1128.83,-376.65"/>
<polygon fill="#9a32cd" stroke="#9a32cd" points="911.97,-573.57 906.61,-582.71 916.49,-578.91 911.97,-573.57"/>
<text text-anchor="middle" x="1023.5" y="-532.69" font-family="Roboto" font-size="10.00"> fileName_</text>
</g>
<!-- Node37&#45;&gt;Node37 -->
<g id="edge16" class="edge">
<title>Node37&#45;&gt;Node37</title>
<path fill="none" stroke="#9a32cd" stroke-dasharray="5,2" d="M869.25,-614.62C872.16,-618.48 879.91,-621.19 892.5,-621.19 915.53,-621.19 922.36,-612.13 913.01,-603.56"/>
<polygon fill="#9a32cd" stroke="#9a32cd" points="872.62,-615.58 871.63,-605.03 865.82,-613.89 872.62,-615.58"/>
<text text-anchor="middle" x="892.5" y="-624.19" font-family="Roboto" font-size="10.00"> EMPTY</text>
</g>
<!-- Node25 -->
<g id="node13" class="node">
<title>Node25</title>
<g id="a_node13"><a xlink:href="class_urho3_d_1_1_hash_map.html" target="_top" xlink:title=" ">
<polygon fill="white" stroke="orangered" points="631,-236.69 475,-236.69 475,-206.69 631,-206.69 631,-236.69"/>
<text text-anchor="start" x="483" y="-224.69" font-family="Roboto" font-size="10.00">Urho3D::HashMap&lt; StringHash,</text>
<text text-anchor="middle" x="553" y="-213.69" font-family="Roboto" font-size="10.00"> Variant &gt;</text>
</a>
</g>
</g>
<!-- Node25&#45;&gt;Node42 -->
<g id="edge29" class="edge">
<title>Node25&#45;&gt;Node42</title>
<path fill="none" stroke="#9a32cd" stroke-dasharray="5,2" d="M622.1,-240.35C628.85,-242.4 635.58,-244.54 642,-246.69 650.14,-249.42 651.69,-251.53 660,-253.69 728.61,-271.55 757.61,-238.55 818,-275.69 855.96,-299.04 879.32,-350.14 887.84,-371.74"/>
<polygon fill="#9a32cd" stroke="#9a32cd" points="623.55,-237.13 612.97,-237.62 621.55,-243.84 623.55,-237.13"/>
<text text-anchor="middle" x="739" y="-278.69" font-family="Roboto" font-size="10.00"> vars_</text>
</g>
<!-- Node25&#45;&gt;Node44 -->
<g id="edge17" class="edge">
<title>Node25&#45;&gt;Node44</title>
<path fill="none" stroke="#9a32cd" stroke-dasharray="5,2" d="M642.71,-227.83C694.32,-232.55 760.35,-240.55 818,-253.69 936.89,-280.79 1072.95,-334.52 1126.8,-356.73"/>
<polygon fill="#9a32cd" stroke="#9a32cd" points="643.03,-224.35 632.76,-226.95 642.42,-231.32 643.03,-224.35"/>
<text text-anchor="middle" x="892.5" y="-292.69" font-family="Roboto" font-size="10.00"> smoothingData_</text>
</g>
<!-- Node74 -->
<g id="node14" class="node">
<title>Node74</title>
<g id="a_node14"><a xlink:href="class_urho3_d_1_1_vector3.html" target="_top" xlink:title="Three&#45;dimensional vector.">
<polygon fill="white" stroke="#666666" points="597.5,-82.19 508.5,-82.19 508.5,-63.19 597.5,-63.19 597.5,-82.19"/>
<text text-anchor="middle" x="553" y="-70.19" font-family="Roboto" font-size="10.00">Urho3D::Vector3</text>
</a>
</g>
</g>
<!-- Node74&#45;&gt;Node1 -->
<g id="edge35" class="edge">
<title>Node74&#45;&gt;Node1</title>
<path fill="none" stroke="#9a32cd" stroke-dasharray="5,2" d="M609.27,-71.02C705.34,-68.81 909.22,-67.23 1080,-86.69 1168.77,-96.81 1191.96,-99.3 1277,-126.69 1298.6,-133.65 1322.16,-144.7 1338.08,-152.73"/>
<polygon fill="#9a32cd" stroke="#9a32cd" points="609.25,-67.52 599.33,-71.26 609.42,-74.52 609.25,-67.52"/>
<text text-anchor="middle" x="1023.5" y="-89.69" font-family="Roboto" font-size="10.00"> padding_</text>
</g>
<!-- Node74&#45;&gt;Node42 -->
<g id="edge18" class="edge">
<title>Node74&#45;&gt;Node42</title>
<path fill="none" stroke="#9a32cd" stroke-dasharray="5,2" d="M569.19,-91.17C588.3,-113.33 623.1,-150.29 660,-172.69 723.56,-211.28 762.6,-178.09 818,-227.69 829.86,-238.31 873.64,-339.72 887.36,-371.92"/>
<polygon fill="#9a32cd" stroke="#9a32cd" points="572.11,-89.19 562.98,-83.81 566.76,-93.71 572.11,-89.19"/>
<text text-anchor="middle" x="739" y="-241.69" font-family="Roboto" font-size="10.00"> position_</text>
<text text-anchor="middle" x="739" y="-230.69" font-family="Roboto" font-size="10.00">scale_</text>
</g>
<!-- Node74&#45;&gt;Node74 -->
<g id="edge19" class="edge">
<title>Node74&#45;&gt;Node74</title>
<path fill="none" stroke="#9a32cd" stroke-dasharray="5,2" d="M522.16,-93.29C525.71,-97.32 535.99,-100.19 553,-100.19 583.23,-100.19 592.21,-91.13 579.93,-82.56"/>
<polygon fill="#9a32cd" stroke="#9a32cd" points="525.41,-94.58 525.55,-83.98 518.84,-92.18 525.41,-94.58"/>
<text text-anchor="middle" x="553" y="-180.19" font-family="Roboto" font-size="10.00"> BACK</text>
<text text-anchor="middle" x="553" y="-169.19" font-family="Roboto" font-size="10.00">DOWN</text>
<text text-anchor="middle" x="553" y="-158.19" font-family="Roboto" font-size="10.00">FORWARD</text>
<text text-anchor="middle" x="553" y="-147.19" font-family="Roboto" font-size="10.00">LEFT</text>
<text text-anchor="middle" x="553" y="-136.19" font-family="Roboto" font-size="10.00">ONE</text>
<text text-anchor="middle" x="553" y="-125.19" font-family="Roboto" font-size="10.00">RIGHT</text>
<text text-anchor="middle" x="553" y="-114.19" font-family="Roboto" font-size="10.00">UP</text>
<text text-anchor="middle" x="553" y="-103.19" font-family="Roboto" font-size="10.00">ZERO</text>
</g>
<!-- Node99 -->
<g id="node23" class="node">
<title>Node99</title>
<g id="a_node23"><a xlink:title=" ">
<polygon fill="white" stroke="#666666" points="949,-169.19 836,-169.19 836,-150.19 949,-150.19 949,-169.19"/>
<text text-anchor="middle" x="892.5" y="-157.19" font-family="Roboto" font-size="10.00">Urho3D::FindPathData</text>
</a>
</g>
</g>
<!-- Node74&#45;&gt;Node99 -->
<g id="edge34" class="edge">
<title>Node74&#45;&gt;Node99</title>
<path fill="none" stroke="#9a32cd" stroke-dasharray="5,2" d="M575.16,-89.4C595.61,-104.55 628.1,-126.08 660,-136.69 717.87,-155.94 788.01,-160.48 835.82,-160.97"/>
<polygon fill="#9a32cd" stroke="#9a32cd" points="577.43,-86.73 567.35,-83.46 573.2,-92.3 577.43,-86.73"/>
<text text-anchor="middle" x="739" y="-162.69" font-family="Roboto" font-size="10.00"> pathPoints_</text>
</g>
<!-- Node100 -->
<g id="node24" class="node">
<title>Node100</title>
<g id="a_node24"><a xlink:href="class_urho3_d_1_1_bounding_box.html" target="_top" xlink:title=" ">
<polygon fill="white" stroke="#666666" points="1080,-125.19 967,-125.19 967,-106.19 1080,-106.19 1080,-125.19"/>
<text text-anchor="middle" x="1023.5" y="-113.19" font-family="Roboto" font-size="10.00">Urho3D::BoundingBox</text>
</a>
</g>
</g>
<!-- Node74&#45;&gt;Node100 -->
<g id="edge37" class="edge">
<title>Node74&#45;&gt;Node100</title>
<path fill="none" stroke="#9a32cd" stroke-dasharray="5,2" d="M608.85,-80.48C625.28,-82.67 643.35,-84.93 660,-86.69 768.3,-98.17 895.24,-107.35 966.53,-112.11"/>
<polygon fill="#9a32cd" stroke="#9a32cd" points="609.65,-77.06 599.28,-79.19 608.72,-84 609.65,-77.06"/>
<text text-anchor="middle" x="739" y="-114.69" font-family="Roboto" font-size="10.00"> max_</text>
<text text-anchor="middle" x="739" y="-103.69" font-family="Roboto" font-size="10.00">min_</text>
</g>
<!-- Node75 -->
<g id="node15" class="node">
<title>Node75</title>
<g id="a_node15"><a xlink:href="class_urho3_d_1_1_quaternion.html" target="_top" xlink:title="Rotation represented as a four&#45;dimensional normalized vector.">
<polygon fill="white" stroke="#666666" points="604.5,-544.19 501.5,-544.19 501.5,-525.19 604.5,-525.19 604.5,-544.19"/>
<text text-anchor="middle" x="553" y="-532.19" font-family="Roboto" font-size="10.00">Urho3D::Quaternion</text>
</a>
</g>
</g>
<!-- Node75&#45;&gt;Node42 -->
<g id="edge20" class="edge">
<title>Node75&#45;&gt;Node42</title>
<path fill="none" stroke="#9a32cd" stroke-dasharray="5,2" d="M615.93,-528.19C625.23,-525.33 634.28,-521.31 642,-515.69 654.89,-506.32 646.8,-493.62 660,-484.69 718.78,-444.94 755.26,-494.85 818,-461.69 849.68,-444.95 874.82,-408.99 885.68,-391.56"/>
<polygon fill="#9a32cd" stroke="#9a32cd" points="615.22,-524.76 606.42,-530.66 616.98,-531.53 615.22,-524.76"/>
<text text-anchor="middle" x="739" y="-498.69" font-family="Roboto" font-size="10.00"> rotation_</text>
<text text-anchor="middle" x="739" y="-487.69" font-family="Roboto" font-size="10.00">worldRotation_</text>
</g>
<!-- Node75&#45;&gt;Node75 -->
<g id="edge21" class="edge">
<title>Node75&#45;&gt;Node75</title>
<path fill="none" stroke="#9a32cd" stroke-dasharray="5,2" d="M522.16,-555.29C525.71,-559.32 535.99,-562.19 553,-562.19 583.23,-562.19 592.21,-553.13 579.93,-544.56"/>
<polygon fill="#9a32cd" stroke="#9a32cd" points="525.41,-556.58 525.55,-545.98 518.84,-554.18 525.41,-556.58"/>
<text text-anchor="middle" x="553" y="-565.19" font-family="Roboto" font-size="10.00"> IDENTITY</text>
</g>
<!-- Node76 -->
<g id="node16" class="node">
<title>Node76</title>
<g id="a_node16"><a xlink:href="class_urho3_d_1_1_vector.html" target="_top" xlink:title=" ">
<polygon fill="white" stroke="#666666" points="642,-506.69 464,-506.69 464,-476.69 642,-476.69 642,-506.69"/>
<text text-anchor="start" x="472" y="-494.69" font-family="Roboto" font-size="10.00">Urho3D::Vector&lt; Urho3D</text>
<text text-anchor="middle" x="553" y="-483.69" font-family="Roboto" font-size="10.00">::SharedPtr&lt; Urho3D::Component &gt; &gt;</text>
</a>
</g>
</g>
<!-- Node76&#45;&gt;Node42 -->
<g id="edge22" class="edge">
<title>Node76&#45;&gt;Node42</title>
<path fill="none" stroke="#9a32cd" stroke-dasharray="5,2" d="M633.86,-471.86C636.65,-470.56 639.37,-469.17 642,-467.69 651.6,-462.31 650.09,-455.49 660,-450.69 723.88,-419.78 751.39,-452.15 818,-427.69 841.46,-419.08 865.4,-402.29 879.33,-391.56"/>
<polygon fill="#9a32cd" stroke="#9a32cd" points="632.75,-468.53 624.91,-475.65 635.48,-474.98 632.75,-468.53"/>
<text text-anchor="middle" x="739" y="-453.69" font-family="Roboto" font-size="10.00"> components_</text>
</g>
<!-- Node19 -->
<g id="node17" class="node">
<title>Node19</title>
<g id="a_node17"><a xlink:href="class_urho3_d_1_1_vector_base.html" target="_top" xlink:title="Vector base class.">
<polygon fill="white" stroke="#666666" points="262,-429.19 156,-429.19 156,-410.19 262,-410.19 262,-429.19"/>
<text text-anchor="middle" x="209" y="-417.19" font-family="Roboto" font-size="10.00">Urho3D::VectorBase</text>
</a>
</g>
</g>
<!-- Node19&#45;&gt;Node76 -->
<g id="edge23" class="edge">
<title>Node19&#45;&gt;Node76</title>
<path fill="none" stroke="#63b8ff" d="M259.64,-432.39C277.38,-436.79 297.54,-441.63 316,-445.69 366.04,-456.7 422.36,-467.73 467.42,-476.22"/>
<polygon fill="#63b8ff" stroke="#63b8ff" points="260.68,-429.04 250.13,-430.02 258.98,-435.83 260.68,-429.04"/>
</g>
<!-- Node77 -->
<g id="node18" class="node">
<title>Node77</title>
<g id="a_node18"><a xlink:href="class_urho3_d_1_1_vector.html" target="_top" xlink:title=" ">
<polygon fill="white" stroke="#666666" points="628.5,-458.69 477.5,-458.69 477.5,-428.69 628.5,-428.69 628.5,-458.69"/>
<text text-anchor="start" x="485.5" y="-446.69" font-family="Roboto" font-size="10.00">Urho3D::Vector&lt; Urho3D</text>
<text text-anchor="middle" x="553" y="-435.69" font-family="Roboto" font-size="10.00">::SharedPtr&lt; Urho3D::Node &gt; &gt;</text>
</a>
</g>
</g>
<!-- Node19&#45;&gt;Node77 -->
<g id="edge25" class="edge">
<title>Node19&#45;&gt;Node77</title>
<path fill="none" stroke="#63b8ff" d="M273.46,-424.15C331.12,-428.19 416.23,-434.16 477.18,-438.44"/>
<polygon fill="#63b8ff" stroke="#63b8ff" points="274.05,-420.68 263.82,-423.47 273.55,-427.66 274.05,-420.68"/>
</g>
<!-- Node78 -->
<g id="node19" class="node">
<title>Node78</title>
<g id="a_node19"><a xlink:href="class_urho3_d_1_1_vector.html" target="_top" xlink:title=" ">
<polygon fill="white" stroke="#666666" points="639,-410.69 467,-410.69 467,-380.69 639,-380.69 639,-410.69"/>
<text text-anchor="start" x="475" y="-398.69" font-family="Roboto" font-size="10.00">Urho3D::Vector&lt; Urho3D</text>
<text text-anchor="middle" x="553" y="-387.69" font-family="Roboto" font-size="10.00">::WeakPtr&lt; Urho3D::Component &gt; &gt;</text>
</a>
</g>
</g>
<!-- Node19&#45;&gt;Node78 -->
<g id="edge27" class="edge">
<title>Node19&#45;&gt;Node78</title>
<path fill="none" stroke="#63b8ff" d="M273.55,-415.23C327.99,-411.41 406.87,-405.88 466.78,-401.67"/>
<polygon fill="#63b8ff" stroke="#63b8ff" points="273.55,-411.72 263.82,-415.92 274.05,-418.71 273.55,-411.72"/>
</g>
<!-- Node101 -->
<g id="node25" class="node">
<title>Node101</title>
<g id="a_node25"><a xlink:href="class_urho3_d_1_1_vector.html" target="_top" xlink:title=" ">
<polygon fill="white" stroke="#666666" points="818,-49.69 660,-49.69 660,-19.69 818,-19.69 818,-49.69"/>
<text text-anchor="start" x="668" y="-37.69" font-family="Roboto" font-size="10.00">Urho3D::Vector&lt; Urho3D</text>
<text text-anchor="middle" x="739" y="-26.69" font-family="Roboto" font-size="10.00">::WeakPtr&lt; Urho3D::NavArea &gt; &gt;</text>
</a>
</g>
</g>
<!-- Node19&#45;&gt;Node101 -->
<g id="edge39" class="edge">
<title>Node19&#45;&gt;Node101</title>
<path fill="none" stroke="#63b8ff" d="M216.88,-399.3C239.85,-334.88 320.59,-135.17 464,-53.69 523.29,-20.01 601.83,-18.03 659.63,-22.84"/>
<polygon fill="#63b8ff" stroke="#63b8ff" points="213.64,-397.98 213.66,-408.58 220.25,-400.28 213.64,-397.98"/>
</g>
<!-- Node77&#45;&gt;Node42 -->
<g id="edge24" class="edge">
<title>Node77&#45;&gt;Node42</title>
<path fill="none" stroke="#9a32cd" stroke-dasharray="5,2" d="M621.23,-425.44C634.05,-422.28 647.4,-419.21 660,-416.69 729.59,-402.8 747.87,-404.52 818,-393.69 829.12,-391.98 841.17,-390.04 852.23,-388.23"/>
<polygon fill="#9a32cd" stroke="#9a32cd" points="620.45,-422.03 611.6,-427.86 622.16,-428.82 620.45,-422.03"/>
<text text-anchor="middle" x="739" y="-419.69" font-family="Roboto" font-size="10.00"> children_</text>
</g>
<!-- Node78&#45;&gt;Node42 -->
<g id="edge26" class="edge">
<title>Node78&#45;&gt;Node42</title>
<path fill="none" stroke="#9a32cd" stroke-dasharray="5,2" d="M650.7,-383.36C653.83,-383.11 656.94,-382.89 660,-382.69 727.39,-378.43 806.03,-379.33 852.13,-380.45"/>
<polygon fill="#9a32cd" stroke="#9a32cd" points="650.42,-379.87 640.76,-384.22 651.03,-386.84 650.42,-379.87"/>
<text text-anchor="middle" x="739" y="-385.69" font-family="Roboto" font-size="10.00"> listeners_</text>
</g>
<!-- Node79 -->
<g id="node20" class="node">
<title>Node79</title>
<g id="a_node20"><a xlink:href="class_urho3_d_1_1_unique_ptr.html" target="_top" xlink:title=" ">
<polygon fill="white" stroke="orangered" points="607.5,-362.69 498.5,-362.69 498.5,-332.69 607.5,-332.69 607.5,-362.69"/>
<text text-anchor="start" x="506.5" y="-350.69" font-family="Roboto" font-size="10.00">Urho3D::UniquePtr&lt;</text>
<text text-anchor="middle" x="553" y="-339.69" font-family="Roboto" font-size="10.00"> Urho3D::NodeImpl &gt;</text>
</a>
</g>
</g>
<!-- Node79&#45;&gt;Node42 -->
<g id="edge28" class="edge">
<title>Node79&#45;&gt;Node42</title>
<path fill="none" stroke="#9a32cd" stroke-dasharray="5,2" d="M619.3,-348.39C672.93,-349.75 750.75,-353.5 818,-363.69 830.6,-365.6 844.2,-368.65 856.24,-371.7"/>
<polygon fill="#9a32cd" stroke="#9a32cd" points="619.48,-344.9 609.41,-348.17 619.32,-351.9 619.48,-344.9"/>
<text text-anchor="middle" x="739" y="-366.69" font-family="Roboto" font-size="10.00"> impl_</text>
</g>
<!-- Node97 -->
<g id="node21" class="node">
<title>Node97</title>
<g id="a_node21"><a xlink:href="class_urho3_d_1_1_unique_ptr.html" target="_top" xlink:title=" ">
<polygon fill="white" stroke="#666666" points="1203.5,-225.69 1099.5,-225.69 1099.5,-195.69 1203.5,-195.69 1203.5,-225.69"/>
<text text-anchor="start" x="1107.5" y="-213.69" font-family="Roboto" font-size="10.00">Urho3D::UniquePtr&lt;</text>
<text text-anchor="middle" x="1151.5" y="-202.69" font-family="Roboto" font-size="10.00"> dtQueryFilter &gt;</text>
</a>
</g>
</g>
<!-- Node97&#45;&gt;Node1 -->
<g id="edge31" class="edge">
<title>Node97&#45;&gt;Node1</title>
<path fill="none" stroke="#9a32cd" stroke-dasharray="5,2" d="M1214.97,-196.03C1247.26,-188.45 1285.82,-179.4 1314.6,-172.64"/>
<polygon fill="#9a32cd" stroke="#9a32cd" points="1214.25,-192.6 1205.31,-198.3 1215.85,-199.42 1214.25,-192.6"/>
<text text-anchor="middle" x="1250" y="-196.69" font-family="Roboto" font-size="10.00"> queryFilter_</text>
</g>
<!-- Node98 -->
<g id="node22" class="node">
<title>Node98</title>
<g id="a_node22"><a xlink:href="class_urho3_d_1_1_unique_ptr.html" target="_top" xlink:title=" ">
<polygon fill="white" stroke="#666666" points="1203.5,-177.69 1099.5,-177.69 1099.5,-147.69 1203.5,-147.69 1203.5,-177.69"/>
<text text-anchor="start" x="1107.5" y="-165.69" font-family="Roboto" font-size="10.00">Urho3D::UniquePtr&lt;</text>
<text text-anchor="middle" x="1151.5" y="-154.69" font-family="Roboto" font-size="10.00"> FindPathData &gt;</text>
</a>
</g>
</g>
<!-- Node98&#45;&gt;Node1 -->
<g id="edge32" class="edge">
<title>Node98&#45;&gt;Node1</title>
<path fill="none" stroke="#9a32cd" stroke-dasharray="5,2" d="M1215.15,-162.69C1240.4,-162.69 1269.47,-162.69 1294.68,-162.69"/>
<polygon fill="#9a32cd" stroke="#9a32cd" points="1215.35,-159.19 1205.35,-162.69 1215.35,-166.19 1215.35,-159.19"/>
<text text-anchor="middle" x="1250" y="-165.69" font-family="Roboto" font-size="10.00"> pathData_</text>
</g>
<!-- Node99&#45;&gt;Node98 -->
<g id="edge33" class="edge">
<title>Node99&#45;&gt;Node98</title>
<path fill="none" stroke="#9a32cd" stroke-dasharray="5,2" d="M960.57,-160.48C1003.9,-160.98 1059.41,-161.63 1099.21,-162.09"/>
<polygon fill="#9a32cd" stroke="#9a32cd" points="960.82,-156.98 950.78,-160.36 960.74,-163.98 960.82,-156.98"/>
<text text-anchor="middle" x="1023.5" y="-164.69" font-family="Roboto" font-size="10.00"> ptr_</text>
</g>
<!-- Node100&#45;&gt;Node1 -->
<g id="edge36" class="edge">
<title>Node100&#45;&gt;Node1</title>
<path fill="none" stroke="#9a32cd" stroke-dasharray="5,2" d="M1091.68,-117.6C1125.77,-119.22 1167.73,-122.2 1205,-127.69 1245.18,-133.62 1290.46,-144.61 1321.07,-152.71"/>
<polygon fill="#9a32cd" stroke="#9a32cd" points="1092.1,-114.12 1081.96,-117.17 1091.79,-121.11 1092.1,-114.12"/>
<text text-anchor="middle" x="1151.5" y="-130.69" font-family="Roboto" font-size="10.00"> boundingBox_</text>
</g>
<!-- Node101&#45;&gt;Node1 -->
<g id="edge38" class="edge">
<title>Node101&#45;&gt;Node1</title>
<path fill="none" stroke="#9a32cd" stroke-dasharray="5,2" d="M820.71,-17.26C931.27,2.18 1132.55,21.28 1277,-58.69 1316.66,-80.65 1343,-131.31 1352.77,-152.79"/>
<polygon fill="#9a32cd" stroke="#9a32cd" points="820.35,-13.76 811.14,-18.99 821.6,-20.65 820.35,-13.76"/>
<text text-anchor="middle" x="1023.5" y="-6.69" font-family="Roboto" font-size="10.00"> areas_</text>
</g>
</g>
</svg>
