<?xml version="1.0" encoding="UTF-8" standalone="no"?>
<!DOCTYPE svg PUBLIC "-//W3C//DTD SVG 1.1//EN"
 "http://www.w3.org/Graphics/SVG/1.1/DTD/svg11.dtd">
<!-- Generated by graphviz version 7.0.3 (0)
 -->
<!-- Title: Urho3D::UIElement::ElementToScreen Pages: 1 -->
<svg width="992pt" height="448pt"
 viewBox="0.00 0.00 992.00 447.50" xmlns="http://www.w3.org/2000/svg" xmlns:xlink="http://www.w3.org/1999/xlink">
<g id="graph0" class="graph" transform="scale(1 1) rotate(0) translate(4 443.5)">
<title>Urho3D::UIElement::ElementToScreen</title>
<!-- Node1 -->
<g id="node1" class="node">
<title>Node1</title>
<g id="a_node1"><a xlink:title="Convert element coordinates to screen coordinates.">
<polygon fill="#999999" stroke="#666666" points="984,-195.5 879,-195.5 879,-165.5 984,-165.5 984,-195.5"/>
<text text-anchor="start" x="887" y="-183.5" font-family="Roboto" font-size="10.00">Urho3D::UIElement::</text>
<text text-anchor="middle" x="931.5" y="-172.5" font-family="Roboto" font-size="10.00">ElementToScreen</text>
</a>
</g>
</g>
<!-- Node2 -->
<g id="node2" class="node">
<title>Node2</title>
<g id="a_node2"><a xlink:href="class_urho3_d_1_1_line_edit.html#add16b13ffa1b32a49d7294ea059317d0" target="_top" xlink:title="Return char index corresponding to position within element, or M_MAX_UNSIGNED if not found.">
<polygon fill="white" stroke="#666666" points="675,-401.5 545,-401.5 545,-371.5 675,-371.5 675,-401.5"/>
<text text-anchor="start" x="553" y="-389.5" font-family="Roboto" font-size="10.00">Urho3D::LineEdit::GetChar</text>
<text text-anchor="middle" x="610" y="-378.5" font-family="Roboto" font-size="10.00">Index</text>
</a>
</g>
</g>
<!-- Node1&#45;&gt;Node2 -->
<g id="edge1" class="edge">
<title>Node1&#45;&gt;Node2</title>
<path fill="none" stroke="#63b8ff" d="M904.9,-203.44C861.7,-241.15 770.39,-316.59 682,-362.5 676,-365.62 669.5,-368.46 662.96,-371.01"/>
<polygon fill="#63b8ff" stroke="#63b8ff" points="907.03,-206.23 912.23,-197 902.41,-200.97 907.03,-206.23"/>
</g>
<!-- Node6 -->
<g id="node6" class="node">
<title>Node6</title>
<g id="a_node6"><a xlink:href="class_urho3_d_1_1_u_i_element.html#aaa6b4eddcd2e94d531ef885a68e0f13a" target="_top" xlink:title="Return whether a point (either in element or screen coordinates) is inside the combined rect of the e...">
<polygon fill="white" stroke="#666666" points="833,-95.5 728,-95.5 728,-65.5 833,-65.5 833,-95.5"/>
<text text-anchor="start" x="736" y="-83.5" font-family="Roboto" font-size="10.00">Urho3D::UIElement::</text>
<text text-anchor="middle" x="780.5" y="-72.5" font-family="Roboto" font-size="10.00">IsInsideCombined</text>
</a>
</g>
</g>
<!-- Node1&#45;&gt;Node6 -->
<g id="edge5" class="edge">
<title>Node1&#45;&gt;Node6</title>
<path fill="none" stroke="#63b8ff" d="M898.07,-158.73C869.71,-139.7 829.27,-112.56 804.24,-95.76"/>
<polygon fill="#63b8ff" stroke="#63b8ff" points="896.03,-161.58 906.29,-164.25 899.94,-155.77 896.03,-161.58"/>
</g>
<!-- Node8 -->
<g id="node8" class="node">
<title>Node8</title>
<g id="a_node8"><a xlink:href="class_urho3_d_1_1_line_edit.html#af9825009b8da28fc2704bf1dfcce7a5f" target="_top" xlink:title="Update cursor position and restart cursor blinking.">
<polygon fill="white" stroke="#666666" points="843,-195.5 718,-195.5 718,-165.5 843,-165.5 843,-195.5"/>
<text text-anchor="start" x="726" y="-183.5" font-family="Roboto" font-size="10.00">Urho3D::LineEdit::Update</text>
<text text-anchor="middle" x="780.5" y="-172.5" font-family="Roboto" font-size="10.00">Cursor</text>
</a>
</g>
</g>
<!-- Node1&#45;&gt;Node8 -->
<g id="edge7" class="edge">
<title>Node1&#45;&gt;Node8</title>
<path fill="none" stroke="#63b8ff" d="M867.34,-180.5C859.4,-180.5 851.28,-180.5 843.36,-180.5"/>
<polygon fill="#63b8ff" stroke="#63b8ff" points="867.29,-184 877.29,-180.5 867.29,-177 867.29,-184"/>
</g>
<!-- Node3 -->
<g id="node3" class="node">
<title>Node3</title>
<g id="a_node3"><a xlink:href="class_urho3_d_1_1_line_edit.html#ad86bab2fe5985f3a9dc671ba985cf519" target="_top" xlink:title="React to mouse click begin.">
<polygon fill="white" stroke="#666666" points="490.5,-353.5 362.5,-353.5 362.5,-323.5 490.5,-323.5 490.5,-353.5"/>
<text text-anchor="start" x="370.5" y="-341.5" font-family="Roboto" font-size="10.00">Urho3D::LineEdit::OnClick</text>
<text text-anchor="middle" x="426.5" y="-330.5" font-family="Roboto" font-size="10.00">Begin</text>
</a>
</g>
</g>
<!-- Node2&#45;&gt;Node3 -->
<g id="edge2" class="edge">
<title>Node2&#45;&gt;Node3</title>
<path fill="none" stroke="#63b8ff" d="M539.68,-368.17C521.91,-363.47 502.97,-358.46 485.82,-353.92"/>
<polygon fill="#63b8ff" stroke="#63b8ff" points="538.55,-371.49 549.11,-370.66 540.34,-364.72 538.55,-371.49"/>
</g>
<!-- Node4 -->
<g id="node4" class="node">
<title>Node4</title>
<g id="a_node4"><a xlink:href="class_urho3_d_1_1_line_edit.html#ab6b1fed419e29781d4a048954ef7a575" target="_top" xlink:title="React to mouse drag begin.">
<polygon fill="white" stroke="#666666" points="489.5,-439.5 363.5,-439.5 363.5,-409.5 489.5,-409.5 489.5,-439.5"/>
<text text-anchor="start" x="371.5" y="-427.5" font-family="Roboto" font-size="10.00">Urho3D::LineEdit::OnDrag</text>
<text text-anchor="middle" x="426.5" y="-416.5" font-family="Roboto" font-size="10.00">Begin</text>
</a>
</g>
</g>
<!-- Node2&#45;&gt;Node4 -->
<g id="edge3" class="edge">
<title>Node2&#45;&gt;Node4</title>
<path fill="none" stroke="#63b8ff" d="M533.72,-402.26C519.12,-405.32 503.96,-408.49 489.83,-411.45"/>
<polygon fill="#63b8ff" stroke="#63b8ff" points="534.2,-405.74 543.27,-400.26 532.77,-398.88 534.2,-405.74"/>
</g>
<!-- Node5 -->
<g id="node5" class="node">
<title>Node5</title>
<g id="a_node5"><a xlink:href="class_urho3_d_1_1_line_edit.html#aac9214f63279538a940f42dad72cea8e" target="_top" xlink:title="React to mouse drag motion.">
<polygon fill="white" stroke="#666666" points="502,-391 351,-391 351,-372 502,-372 502,-391"/>
<text text-anchor="middle" x="426.5" y="-379" font-family="Roboto" font-size="10.00">Urho3D::LineEdit::OnDragMove</text>
</a>
</g>
</g>
<!-- Node2&#45;&gt;Node5 -->
<g id="edge4" class="edge">
<title>Node2&#45;&gt;Node5</title>
<path fill="none" stroke="#63b8ff" d="M533.29,-384.41C523.01,-384.13 512.47,-383.84 502.21,-383.56"/>
<polygon fill="#63b8ff" stroke="#63b8ff" points="533.15,-387.91 543.24,-384.69 533.34,-380.91 533.15,-387.91"/>
</g>
<!-- Node7 -->
<g id="node7" class="node">
<title>Node7</title>
<g id="a_node7"><a xlink:href="class_urho3_d_1_1_u_i.html#a64c370ff3f5dcbee044573fae5db7a43" target="_top" xlink:title="Return UI element at screen position recursively.">
<polygon fill="white" stroke="#666666" points="675,-19 545,-19 545,0 675,0 675,-19"/>
<text text-anchor="middle" x="610" y="-7" font-family="Roboto" font-size="10.00">Urho3D::UI::GetElementAt</text>
</a>
</g>
</g>
<!-- Node6&#45;&gt;Node7 -->
<g id="edge6" class="edge">
<title>Node6&#45;&gt;Node7</title>
<path fill="none" stroke="#63b8ff" d="M740.16,-60.17C722.59,-51.45 701.49,-41.46 682,-33.5 669.47,-28.39 655.4,-23.47 643.12,-19.43"/>
<polygon fill="#63b8ff" stroke="#63b8ff" points="738.2,-63.1 748.71,-64.46 741.34,-56.85 738.2,-63.1"/>
</g>
<!-- Node9 -->
<g id="node9" class="node">
<title>Node9</title>
<g id="a_node9"><a xlink:href="class_urho3_d_1_1_line_edit.html#aa2cf565b389e9a2be242812907b92dcb" target="_top" xlink:title="Handle being focused.">
<polygon fill="white" stroke="#666666" points="672.5,-305.5 547.5,-305.5 547.5,-275.5 672.5,-275.5 672.5,-305.5"/>
<text text-anchor="start" x="555.5" y="-293.5" font-family="Roboto" font-size="10.00">Urho3D::LineEdit::Handle</text>
<text text-anchor="middle" x="610" y="-282.5" font-family="Roboto" font-size="10.00">Focused</text>
</a>
</g>
</g>
<!-- Node8&#45;&gt;Node9 -->
<g id="edge8" class="edge">
<title>Node8&#45;&gt;Node9</title>
<path fill="none" stroke="#63b8ff" d="M757.95,-204.13C739.42,-223.24 711.14,-249.64 682,-266.5 676.48,-269.69 670.47,-272.54 664.37,-275.06"/>
<polygon fill="#63b8ff" stroke="#63b8ff" points="760.36,-206.68 764.71,-197.02 755.28,-201.86 760.36,-206.68"/>
</g>
<!-- Node11 -->
<g id="node11" class="node">
<title>Node11</title>
<g id="a_node11"><a xlink:href="class_urho3_d_1_1_line_edit.html#a071e48b0b161da35f6748146d43b8970" target="_top" xlink:title="Handle the element layout having been updated.">
<polygon fill="white" stroke="#666666" points="672.5,-257.5 547.5,-257.5 547.5,-227.5 672.5,-227.5 672.5,-257.5"/>
<text text-anchor="start" x="555.5" y="-245.5" font-family="Roboto" font-size="10.00">Urho3D::LineEdit::Handle</text>
<text text-anchor="middle" x="610" y="-234.5" font-family="Roboto" font-size="10.00">LayoutUpdated</text>
</a>
</g>
</g>
<!-- Node8&#45;&gt;Node11 -->
<g id="edge10" class="edge">
<title>Node8&#45;&gt;Node11</title>
<path fill="none" stroke="#63b8ff" d="M726.78,-199.9C702.96,-208.66 675.2,-218.88 652.84,-227.1"/>
<polygon fill="#63b8ff" stroke="#63b8ff" points="727.82,-203.25 735.99,-196.51 725.4,-196.68 727.82,-203.25"/>
</g>
<!-- Node12 -->
<g id="node12" class="node">
<title>Node12</title>
<g id="a_node12"><a xlink:href="class_urho3_d_1_1_line_edit.html#a6c5818c3cd32e40cee82388e3529f4dd" target="_top" xlink:title="React to a key press.">
<polygon fill="white" stroke="#666666" points="487.5,-74 365.5,-74 365.5,-55 487.5,-55 487.5,-74"/>
<text text-anchor="middle" x="426.5" y="-62" font-family="Roboto" font-size="10.00">Urho3D::LineEdit::OnKey</text>
</a>
</g>
</g>
<!-- Node8&#45;&gt;Node12 -->
<g id="edge12" class="edge">
<title>Node8&#45;&gt;Node12</title>
<path fill="none" stroke="#63b8ff" d="M759.85,-156.52C732.93,-123.81 687.29,-68.96 682,-66.5 613.3,-34.53 522.43,-44.5 469.92,-54.56"/>
<polygon fill="#63b8ff" stroke="#63b8ff" points="756.88,-158.42 765.94,-163.92 762.29,-153.98 756.88,-158.42"/>
</g>
<!-- Node13 -->
<g id="node13" class="node">
<title>Node13</title>
<g id="a_node13"><a xlink:href="class_urho3_d_1_1_line_edit.html#a3be81e25b9503e4c6fcf8b689bd781bc" target="_top" xlink:title="React to text input event.">
<polygon fill="white" stroke="#666666" points="489,-224.5 364,-224.5 364,-194.5 489,-194.5 489,-224.5"/>
<text text-anchor="start" x="372" y="-212.5" font-family="Roboto" font-size="10.00">Urho3D::LineEdit::OnText</text>
<text text-anchor="middle" x="426.5" y="-201.5" font-family="Roboto" font-size="10.00">Input</text>
</a>
</g>
</g>
<!-- Node8&#45;&gt;Node13 -->
<g id="edge13" class="edge">
<title>Node8&#45;&gt;Node13</title>
<path fill="none" stroke="#63b8ff" d="M706.55,-186.51C642.4,-191.8 550.06,-199.4 489.44,-204.4"/>
<polygon fill="#63b8ff" stroke="#63b8ff" points="706.6,-190.02 716.28,-185.71 706.02,-183.04 706.6,-190.02"/>
</g>
<!-- Node14 -->
<g id="node14" class="node">
<title>Node14</title>
<g id="a_node14"><a xlink:href="class_urho3_d_1_1_line_edit.html#add758c21b19b35c5aad9a2312ad9526d" target="_top" xlink:title=" ">
<polygon fill="white" stroke="#666666" points="679.5,-353.5 540.5,-353.5 540.5,-323.5 679.5,-323.5 679.5,-353.5"/>
<text text-anchor="start" x="548.5" y="-341.5" font-family="Roboto" font-size="10.00">Urho3D::LineEdit::SetCursor</text>
<text text-anchor="middle" x="610" y="-330.5" font-family="Roboto" font-size="10.00">Position</text>
</a>
</g>
</g>
<!-- Node8&#45;&gt;Node14 -->
<g id="edge14" class="edge">
<title>Node8&#45;&gt;Node14</title>
<path fill="none" stroke="#63b8ff" d="M767.26,-205.84C751.51,-235.88 721.43,-285.51 682,-314.5 677.6,-317.74 672.73,-320.56 667.66,-323.01"/>
<polygon fill="#63b8ff" stroke="#63b8ff" points="770.3,-207.58 771.71,-197.08 764.06,-204.41 770.3,-207.58"/>
</g>
<!-- Node15 -->
<g id="node15" class="node">
<title>Node15</title>
<g id="a_node15"><a xlink:href="class_urho3_d_1_1_line_edit.html#a25dd0420a6256168141deaa8acfe1988" target="_top" xlink:title=" ">
<polygon fill="white" stroke="#666666" points="490,-128 363,-128 363,-109 490,-109 490,-128"/>
<text text-anchor="middle" x="426.5" y="-116" font-family="Roboto" font-size="10.00">Urho3D::LineEdit::SetText</text>
</a>
</g>
</g>
<!-- Node8&#45;&gt;Node15 -->
<g id="edge17" class="edge">
<title>Node8&#45;&gt;Node15</title>
<path fill="none" stroke="#63b8ff" d="M735.08,-160.8C718.7,-154.3 699.79,-147.67 682,-143.5 617.81,-128.45 542.45,-122.45 490.49,-120.06"/>
<polygon fill="#63b8ff" stroke="#63b8ff" points="733.47,-163.93 744.05,-164.46 736.11,-157.44 733.47,-163.93"/>
</g>
<!-- Node32 -->
<g id="node23" class="node">
<title>Node32</title>
<g id="a_node23"><a xlink:href="class_urho3_d_1_1_line_edit.html#ae7cfe838bb8463b22bdec345cd6e44ba" target="_top" xlink:title="Perform UI element update.">
<polygon fill="white" stroke="#666666" points="672.5,-95 547.5,-95 547.5,-76 672.5,-76 672.5,-95"/>
<text text-anchor="middle" x="610" y="-83" font-family="Roboto" font-size="10.00">Urho3D::LineEdit::Update</text>
</a>
</g>
</g>
<!-- Node8&#45;&gt;Node32 -->
<g id="edge26" class="edge">
<title>Node8&#45;&gt;Node32</title>
<path fill="none" stroke="#63b8ff" d="M753.05,-157.81C734.21,-142.54 707.77,-122.84 682,-109.5 671.14,-103.88 658.68,-99.15 647.26,-95.41"/>
<polygon fill="#63b8ff" stroke="#63b8ff" points="750.79,-160.49 760.73,-164.16 755.25,-155.09 750.79,-160.49"/>
</g>
<!-- Node33 -->
<g id="node24" class="node">
<title>Node33</title>
<g id="a_node24"><a xlink:href="class_urho3_d_1_1_line_edit.html#a6419ff9761457b8c509b293a15bf81e3" target="_top" xlink:title="Update displayed text.">
<polygon fill="white" stroke="#666666" points="682,-171 538,-171 538,-152 682,-152 682,-171"/>
<text text-anchor="middle" x="610" y="-159" font-family="Roboto" font-size="10.00">Urho3D::LineEdit::UpdateText</text>
</a>
</g>
</g>
<!-- Node8&#45;&gt;Node33 -->
<g id="edge27" class="edge">
<title>Node8&#45;&gt;Node33</title>
<path fill="none" stroke="#63b8ff" d="M706.27,-172.24C698.38,-171.35 690.35,-170.45 682.48,-169.56"/>
<polygon fill="#63b8ff" stroke="#63b8ff" points="705.88,-175.72 716.21,-173.36 706.66,-168.76 705.88,-175.72"/>
</g>
<!-- Node10 -->
<g id="node10" class="node">
<title>Node10</title>
<g id="a_node10"><a xlink:href="class_urho3_d_1_1_line_edit.html#a7446f9a89cd811030fda7bee9492a807" target="_top" xlink:title="Construct.">
<polygon fill="white" stroke="#666666" points="490.5,-281 362.5,-281 362.5,-262 490.5,-262 490.5,-281"/>
<text text-anchor="middle" x="426.5" y="-269" font-family="Roboto" font-size="10.00">Urho3D::LineEdit::LineEdit</text>
</a>
</g>
</g>
<!-- Node9&#45;&gt;Node10 -->
<g id="edge9" class="edge">
<title>Node9&#45;&gt;Node10</title>
<path fill="none" stroke="#63b8ff" d="M535.78,-282.84C520.85,-281.27 505.26,-279.64 490.72,-278.12"/>
<polygon fill="#63b8ff" stroke="#63b8ff" points="535.23,-286.3 545.54,-283.86 535.96,-279.33 535.23,-286.3"/>
</g>
<!-- Node11&#45;&gt;Node10 -->
<g id="edge11" class="edge">
<title>Node11&#45;&gt;Node10</title>
<path fill="none" stroke="#63b8ff" d="M536.04,-254.16C520.71,-256.61 504.68,-259.17 489.79,-261.55"/>
<polygon fill="#63b8ff" stroke="#63b8ff" points="536.23,-257.67 545.55,-252.64 535.12,-250.76 536.23,-257.67"/>
</g>
<!-- Node14&#45;&gt;Node3 -->
<g id="edge15" class="edge">
<title>Node14&#45;&gt;Node3</title>
<path fill="none" stroke="#63b8ff" d="M528.64,-338.5C516.02,-338.5 503.12,-338.5 490.95,-338.5"/>
<polygon fill="#63b8ff" stroke="#63b8ff" points="528.61,-342 538.61,-338.5 528.61,-335 528.61,-342"/>
</g>
<!-- Node14&#45;&gt;Node5 -->
<g id="edge16" class="edge">
<title>Node14&#45;&gt;Node5</title>
<path fill="none" stroke="#63b8ff" d="M532.58,-356.61C511.01,-361.72 488.33,-367.09 469.59,-371.53"/>
<polygon fill="#63b8ff" stroke="#63b8ff" points="533.33,-360.02 542.26,-354.31 531.72,-353.21 533.33,-360.02"/>
</g>
<!-- Node16 -->
<g id="node16" class="node">
<title>Node16</title>
<g id="a_node16"><a xlink:href="class_urho3_d_1_1_console.html#aaa466812eb6162f77ac458ab53e29ae0" target="_top" xlink:title="Handle unhandled key on the line edit for scrolling the history.">
<polygon fill="white" stroke="#666666" points="315,-205.5 169,-205.5 169,-175.5 315,-175.5 315,-205.5"/>
<text text-anchor="start" x="177" y="-193.5" font-family="Roboto" font-size="10.00">Urho3D::Console::HandleLine</text>
<text text-anchor="middle" x="242" y="-182.5" font-family="Roboto" font-size="10.00">EditKey</text>
</a>
</g>
</g>
<!-- Node15&#45;&gt;Node16 -->
<g id="edge18" class="edge">
<title>Node15&#45;&gt;Node16</title>
<path fill="none" stroke="#63b8ff" d="M363.5,-132.1C359.19,-133.71 354.98,-135.51 351,-137.5 332.63,-146.69 333.03,-156.65 315,-166.5 309.22,-169.66 302.95,-172.5 296.6,-175.02"/>
<polygon fill="#63b8ff" stroke="#63b8ff" points="364.56,-135.43 372.91,-128.92 362.32,-128.8 364.56,-135.43"/>
</g>
<!-- Node18 -->
<g id="node18" class="node">
<title>Node18</title>
<g id="a_node18"><a xlink:href="class_urho3_d_1_1_console.html#a08a6a59af924fde47f10ba2f702a1c9d" target="_top" xlink:title="Handle enter pressed on the line edit.">
<polygon fill="white" stroke="#666666" points="315,-157.5 169,-157.5 169,-127.5 315,-127.5 315,-157.5"/>
<text text-anchor="start" x="177" y="-145.5" font-family="Roboto" font-size="10.00">Urho3D::Console::HandleText</text>
<text text-anchor="middle" x="242" y="-134.5" font-family="Roboto" font-size="10.00">Finished</text>
</a>
</g>
</g>
<!-- Node15&#45;&gt;Node18 -->
<g id="edge20" class="edge">
<title>Node15&#45;&gt;Node18</title>
<path fill="none" stroke="#63b8ff" d="M351.43,-128.24C339.52,-129.81 327.2,-131.43 315.33,-132.99"/>
<polygon fill="#63b8ff" stroke="#63b8ff" points="351.73,-131.73 361.19,-126.96 350.82,-124.79 351.73,-131.73"/>
</g>
<!-- Node19 -->
<g id="node19" class="node">
<title>Node19</title>
<g id="a_node19"><a xlink:href="class_urho3_d_1_1_line_edit.html#a2cea151bec49d573052ad2f7d16a69ae" target="_top" xlink:title="React to drag and drop finish. Return true to signal that the drop was accepted.">
<polygon fill="white" stroke="#666666" points="305,-109.5 179,-109.5 179,-79.5 305,-79.5 305,-109.5"/>
<text text-anchor="start" x="187" y="-97.5" font-family="Roboto" font-size="10.00">Urho3D::LineEdit::OnDrag</text>
<text text-anchor="middle" x="242" y="-86.5" font-family="Roboto" font-size="10.00">DropFinish</text>
</a>
</g>
</g>
<!-- Node15&#45;&gt;Node19 -->
<g id="edge22" class="edge">
<title>Node15&#45;&gt;Node19</title>
<path fill="none" stroke="#63b8ff" d="M351.65,-108.79C336.27,-106.77 320.21,-104.65 305.3,-102.69"/>
<polygon fill="#63b8ff" stroke="#63b8ff" points="350.82,-112.21 361.19,-110.04 351.73,-105.27 350.82,-112.21"/>
</g>
<!-- Node20 -->
<g id="node20" class="node">
<title>Node20</title>
<g id="a_node20"><a xlink:href="class_urho3_d_1_1_file_selector.html#a333215b0e92a89a68233beae4aea3478" target="_top" xlink:title="Set the text of an edit field and ignore the resulting event.">
<polygon fill="white" stroke="#666666" points="295.5,-61.5 188.5,-61.5 188.5,-31.5 295.5,-31.5 295.5,-61.5"/>
<text text-anchor="start" x="196.5" y="-49.5" font-family="Roboto" font-size="10.00">Urho3D::FileSelector</text>
<text text-anchor="middle" x="242" y="-38.5" font-family="Roboto" font-size="10.00">::SetLineEditText</text>
</a>
</g>
</g>
<!-- Node15&#45;&gt;Node20 -->
<g id="edge23" class="edge">
<title>Node15&#45;&gt;Node20</title>
<path fill="none" stroke="#63b8ff" d="M393.76,-103.83C371.84,-93.91 341.9,-80.8 315,-70.5 307.37,-67.58 299.21,-64.66 291.23,-61.92"/>
<polygon fill="#63b8ff" stroke="#63b8ff" points="392.21,-106.97 402.76,-107.92 395.11,-100.59 392.21,-106.97"/>
</g>
<!-- Node17 -->
<g id="node17" class="node">
<title>Node17</title>
<g id="a_node17"><a xlink:href="class_urho3_d_1_1_console.html#afa65f6eacc596b544de5b0c3bc1a3d55" target="_top" xlink:title="Construct.">
<polygon fill="white" stroke="#666666" points="133,-176 0,-176 0,-157 133,-157 133,-176"/>
<text text-anchor="middle" x="66.5" y="-164" font-family="Roboto" font-size="10.00">Urho3D::Console::Console</text>
</a>
</g>
</g>
<!-- Node16&#45;&gt;Node17 -->
<g id="edge19" class="edge">
<title>Node16&#45;&gt;Node17</title>
<path fill="none" stroke="#63b8ff" d="M157.34,-178.93C149.28,-177.81 141.18,-176.69 133.33,-175.61"/>
<polygon fill="#63b8ff" stroke="#63b8ff" points="156.79,-182.38 167.18,-180.29 157.75,-175.45 156.79,-182.38"/>
</g>
<!-- Node18&#45;&gt;Node17 -->
<g id="edge21" class="edge">
<title>Node18&#45;&gt;Node17</title>
<path fill="none" stroke="#63b8ff" d="M157.34,-154.07C149.28,-155.19 141.18,-156.31 133.33,-157.39"/>
<polygon fill="#63b8ff" stroke="#63b8ff" points="157.75,-157.55 167.18,-152.71 156.79,-150.62 157.75,-157.55"/>
</g>
<!-- Node21 -->
<g id="node21" class="node">
<title>Node21</title>
<g id="a_node21"><a xlink:href="class_urho3_d_1_1_file_selector.html#ab38ccd4b59e77adcc8234bb85eb8e45c" target="_top" xlink:title=" ">
<polygon fill="#fff0f0" stroke="red" points="120,-37.5 13,-37.5 13,-7.5 120,-7.5 120,-37.5"/>
<text text-anchor="start" x="21" y="-25.5" font-family="Roboto" font-size="10.00">Urho3D::FileSelector</text>
<text text-anchor="middle" x="66.5" y="-14.5" font-family="Roboto" font-size="10.00">::SetFileName</text>
</a>
</g>
</g>
<!-- Node20&#45;&gt;Node21 -->
<g id="edge24" class="edge">
<title>Node20&#45;&gt;Node21</title>
<path fill="none" stroke="#63b8ff" d="M176.7,-37.61C158.19,-35.04 138.21,-32.28 120.47,-29.83"/>
<polygon fill="#63b8ff" stroke="#63b8ff" points="176.12,-41.06 186.5,-38.96 177.08,-34.12 176.12,-41.06"/>
</g>
<!-- Node27 -->
<g id="node22" class="node">
<title>Node27</title>
<g id="a_node22"><a xlink:href="class_urho3_d_1_1_file_selector.html#a70224d0b3a485fd4aab57cc6b9af1c6f" target="_top" xlink:title=" ">
<polygon fill="#fff0f0" stroke="red" points="120,-85.5 13,-85.5 13,-55.5 120,-55.5 120,-85.5"/>
<text text-anchor="start" x="21" y="-73.5" font-family="Roboto" font-size="10.00">Urho3D::FileSelector</text>
<text text-anchor="middle" x="66.5" y="-62.5" font-family="Roboto" font-size="10.00">::SetPath</text>
</a>
</g>
</g>
<!-- Node20&#45;&gt;Node27 -->
<g id="edge25" class="edge">
<title>Node20&#45;&gt;Node27</title>
<path fill="none" stroke="#63b8ff" d="M176.7,-55.39C158.19,-57.96 138.21,-60.72 120.47,-63.17"/>
<polygon fill="#63b8ff" stroke="#63b8ff" points="177.08,-58.88 186.5,-54.04 176.12,-51.94 177.08,-58.88"/>
</g>
<!-- Node33&#45;&gt;Node12 -->
<g id="edge28" class="edge">
<title>Node33&#45;&gt;Node12</title>
<path fill="none" stroke="#63b8ff" d="M582.81,-145.91C561.32,-133.27 529.97,-115.21 502,-100.5 484.33,-91.21 463.88,-81.39 448.89,-74.36"/>
<polygon fill="#63b8ff" stroke="#63b8ff" points="580.82,-148.8 591.21,-150.87 584.38,-142.77 580.82,-148.8"/>
</g>
<!-- Node33&#45;&gt;Node13 -->
<g id="edge29" class="edge">
<title>Node33&#45;&gt;Node13</title>
<path fill="none" stroke="#63b8ff" d="M560.52,-174.32C537.54,-180.4 509.9,-187.71 485.79,-194.08"/>
<polygon fill="#63b8ff" stroke="#63b8ff" points="561.16,-177.77 569.93,-171.83 559.37,-171.01 561.16,-177.77"/>
</g>
<!-- Node33&#45;&gt;Node15 -->
<g id="edge31" class="edge">
<title>Node33&#45;&gt;Node15</title>
<path fill="none" stroke="#63b8ff" d="M555.9,-148.92C528.44,-142.41 495.38,-134.58 469.68,-128.49"/>
<polygon fill="#63b8ff" stroke="#63b8ff" points="554.89,-152.28 565.43,-151.18 556.51,-145.47 554.89,-152.28"/>
</g>
<!-- Node34 -->
<g id="node25" class="node">
<title>Node34</title>
<g id="a_node25"><a xlink:href="class_urho3_d_1_1_line_edit.html#a7c1dcdc39578ef32cafb937b3dff16a4" target="_top" xlink:title=" ">
<polygon fill="white" stroke="#666666" points="491.5,-176.5 361.5,-176.5 361.5,-146.5 491.5,-146.5 491.5,-176.5"/>
<text text-anchor="start" x="369.5" y="-164.5" font-family="Roboto" font-size="10.00">Urho3D::LineEdit::SetEcho</text>
<text text-anchor="middle" x="426.5" y="-153.5" font-family="Roboto" font-size="10.00">Character</text>
</a>
</g>
</g>
<!-- Node33&#45;&gt;Node34 -->
<g id="edge30" class="edge">
<title>Node33&#45;&gt;Node34</title>
<path fill="none" stroke="#63b8ff" d="M526.11,-161.5C514.6,-161.5 502.93,-161.5 491.83,-161.5"/>
<polygon fill="#63b8ff" stroke="#63b8ff" points="526.01,-165 536.01,-161.5 526.01,-158 526.01,-165"/>
</g>
</g>
</svg>
