<?xml version="1.0" encoding="UTF-8" standalone="no"?>
<!DOCTYPE svg PUBLIC "-//W3C//DTD SVG 1.1//EN"
 "http://www.w3.org/Graphics/SVG/1.1/DTD/svg11.dtd">
<!-- Generated by graphviz version 7.0.3 (0)
 -->
<!-- Title: Urho3D::Constraint2D::ApplyAttributes Pages: 1 -->
<svg width="825pt" height="306pt"
 viewBox="0.00 0.00 825.00 305.50" xmlns="http://www.w3.org/2000/svg" xmlns:xlink="http://www.w3.org/1999/xlink">
<g id="graph0" class="graph" transform="scale(1 1) rotate(0) translate(4 301.5)">
<title>Urho3D::Constraint2D::ApplyAttributes</title>
<!-- Node1 -->
<g id="node1" class="node">
<title>Node1</title>
<g id="a_node1"><a xlink:title="Apply attribute changes that can not be applied immediately. Called after scene load or a network upd...">
<polygon fill="#999999" stroke="#666666" points="112,-208.5 0,-208.5 0,-178.5 112,-178.5 112,-208.5"/>
<text text-anchor="start" x="8" y="-196.5" font-family="Roboto" font-size="10.00">Urho3D::Constraint2D</text>
<text text-anchor="middle" x="56" y="-185.5" font-family="Roboto" font-size="10.00">::ApplyAttributes</text>
</a>
</g>
</g>
<!-- Node2 -->
<g id="node2" class="node">
<title>Node2</title>
<g id="a_node2"><a xlink:href="class_urho3_d_1_1_node.html#a34f6d23128c61664a11ceb275604e013" target="_top" xlink:title="Return component by type. If there are several, returns the first.">
<polygon fill="white" stroke="#666666" points="299,-292 148,-292 148,-273 299,-273 299,-292"/>
<text text-anchor="middle" x="223.5" y="-280" font-family="Roboto" font-size="10.00">Urho3D::Node::GetComponent</text>
</a>
</g>
</g>
<!-- Node1&#45;&gt;Node2 -->
<g id="edge1" class="edge">
<title>Node1&#45;&gt;Node2</title>
<path fill="none" stroke="#63b8ff" d="M77.56,-208.88C95.52,-221.86 122.62,-240.38 148,-253.5 158.84,-259.1 171.02,-264.28 182.34,-268.66"/>
<polygon fill="#63b8ff" stroke="#63b8ff" points="180.85,-271.84 191.44,-272.07 183.31,-265.28 180.85,-271.84"/>
</g>
<!-- Node4 -->
<g id="node4" class="node">
<title>Node4</title>
<g id="a_node4"><a xlink:href="class_urho3_d_1_1_scene.html#af130e2e88e5d29e1da2b9d4e52d73db2" target="_top" xlink:title="Return node from the whole scene by ID, or null if not found.">
<polygon fill="white" stroke="#666666" points="286.5,-67 160.5,-67 160.5,-48 286.5,-48 286.5,-67"/>
<text text-anchor="middle" x="223.5" y="-55" font-family="Roboto" font-size="10.00">Urho3D::Scene::GetNode</text>
</a>
</g>
</g>
<!-- Node1&#45;&gt;Node4 -->
<g id="edge4" class="edge">
<title>Node1&#45;&gt;Node4</title>
<path fill="none" stroke="#63b8ff" d="M75.66,-178.16C106.9,-152.49 169.53,-101.02 201.97,-74.37"/>
<polygon fill="#63b8ff" stroke="#63b8ff" points="203.96,-77.26 209.47,-68.21 199.52,-71.85 203.96,-77.26"/>
</g>
<!-- Node6 -->
<g id="node6" class="node">
<title>Node6</title>
<g id="a_node6"><a xlink:href="class_urho3_d_1_1_component.html#a2c22f727341671a0420934f249ffe059" target="_top" xlink:title="Return the scene the node belongs to.">
<polygon fill="white" stroke="#666666" points="612.5,-277.5 501.5,-277.5 501.5,-247.5 612.5,-247.5 612.5,-277.5"/>
<text text-anchor="start" x="509.5" y="-265.5" font-family="Roboto" font-size="10.00">Urho3D::Component::</text>
<text text-anchor="middle" x="557" y="-254.5" font-family="Roboto" font-size="10.00">GetScene</text>
</a>
</g>
</g>
<!-- Node1&#45;&gt;Node6 -->
<g id="edge6" class="edge">
<title>Node1&#45;&gt;Node6</title>
<path fill="none" stroke="#63b8ff" d="M112.31,-201.15C204.82,-213.94 390.54,-239.62 489.83,-253.35"/>
<polygon fill="#63b8ff" stroke="#63b8ff" points="489.32,-256.81 499.71,-254.72 490.28,-249.88 489.32,-256.81"/>
</g>
<!-- Node8 -->
<g id="node8" class="node">
<title>Node8</title>
<g id="a_node8"><a xlink:href="class_urho3_d_1_1_constraint2_d.html#a91ff88d8da06b1290859d5d4d042cebc" target="_top" xlink:title=" ">
<polygon fill="white" stroke="#666666" points="279.5,-163.5 167.5,-163.5 167.5,-133.5 279.5,-133.5 279.5,-163.5"/>
<text text-anchor="start" x="175.5" y="-151.5" font-family="Roboto" font-size="10.00">Urho3D::Constraint2D</text>
<text text-anchor="middle" x="223.5" y="-140.5" font-family="Roboto" font-size="10.00">::SetOtherBody</text>
</a>
</g>
</g>
<!-- Node1&#45;&gt;Node8 -->
<g id="edge8" class="edge">
<title>Node1&#45;&gt;Node8</title>
<path fill="none" stroke="#63b8ff" d="M112.11,-178.52C126.2,-174.69 141.49,-170.53 156.08,-166.56"/>
<polygon fill="#63b8ff" stroke="#63b8ff" points="156.88,-169.97 165.61,-163.97 155.04,-163.22 156.88,-169.97"/>
</g>
<!-- Node3 -->
<g id="node3" class="node">
<title>Node3</title>
<g id="a_node3"><a xlink:href="class_urho3_d_1_1_component.html#a6070c8208ad98595d8c3fe43778d6069" target="_top" xlink:title="Return component in the same scene node by type. If there are several, returns the first.">
<polygon fill="white" stroke="#666666" points="446.5,-297.5 335.5,-297.5 335.5,-267.5 446.5,-267.5 446.5,-297.5"/>
<text text-anchor="start" x="343.5" y="-285.5" font-family="Roboto" font-size="10.00">Urho3D::Component::</text>
<text text-anchor="middle" x="391" y="-274.5" font-family="Roboto" font-size="10.00">GetComponent</text>
</a>
</g>
</g>
<!-- Node2&#45;&gt;Node3 -->
<g id="edge2" class="edge">
<title>Node2&#45;&gt;Node3</title>
<path fill="none" stroke="#63b8ff" d="M299.02,-275.78C307.3,-275.72 315.69,-275.75 323.86,-275.87"/>
<polygon fill="#63b8ff" stroke="#63b8ff" points="323.64,-279.37 333.71,-276.07 323.78,-272.37 323.64,-279.37"/>
</g>
<!-- Node3&#45;&gt;Node2 -->
<g id="edge3" class="edge">
<title>Node3&#45;&gt;Node2</title>
<path fill="none" stroke="#63b8ff" d="M335.22,-288.89C327.25,-289.1 318.89,-289.22 310.48,-289.25"/>
<polygon fill="#63b8ff" stroke="#63b8ff" points="310.54,-285.75 300.53,-289.22 310.53,-292.75 310.54,-285.75"/>
</g>
<!-- Node5 -->
<g id="node5" class="node">
<title>Node5</title>
<g id="a_node5"><a xlink:href="class_urho3_d_1_1_scene.html#a97fb1222bd2f38e6c1c433c0b7e54d40" target="_top" xlink:title="Return whether the specified id is a replicated id.">
<polygon fill="white" stroke="#666666" points="817,-19 667,-19 667,0 817,0 817,-19"/>
<text text-anchor="middle" x="742" y="-7" font-family="Roboto" font-size="10.00">Urho3D::Scene::IsReplicatedID</text>
</a>
</g>
</g>
<!-- Node4&#45;&gt;Node5 -->
<g id="edge5" class="edge">
<title>Node4&#45;&gt;Node5</title>
<path fill="none" stroke="#63b8ff" d="M276.06,-47.55C294.59,-44.26 315.68,-40.85 335,-38.5 445.21,-25.12 573.07,-17.24 655.39,-13.15"/>
<polygon fill="#63b8ff" stroke="#63b8ff" points="655.37,-16.66 665.19,-12.67 655.03,-9.66 655.37,-16.66"/>
</g>
<!-- Node7 -->
<g id="node7" class="node">
<title>Node7</title>
<g id="a_node7"><a xlink:href="class_urho3_d_1_1_node.html#ad3742cda838a2b291daa44d3ab00de56" target="_top" xlink:title=" ">
<polygon fill="white" stroke="#666666" points="805,-272 679,-272 679,-253 805,-253 805,-272"/>
<text text-anchor="middle" x="742" y="-260" font-family="Roboto" font-size="10.00">Urho3D::Node::GetScene</text>
</a>
</g>
</g>
<!-- Node6&#45;&gt;Node7 -->
<g id="edge7" class="edge">
<title>Node6&#45;&gt;Node7</title>
<path fill="none" stroke="#63b8ff" d="M612.91,-262.5C630,-262.5 649.14,-262.5 667.3,-262.5"/>
<polygon fill="#63b8ff" stroke="#63b8ff" points="667.24,-266 677.24,-262.5 667.24,-259 667.24,-266"/>
</g>
<!-- Node9 -->
<g id="node9" class="node">
<title>Node9</title>
<g id="a_node9"><a xlink:href="class_urho3_d_1_1_node.html#a1ce16fa386bfc7b728711030eb941723" target="_top" xlink:title=" ">
<polygon fill="white" stroke="#666666" points="445.5,-67 336.5,-67 336.5,-48 445.5,-48 445.5,-67"/>
<text text-anchor="middle" x="391" y="-55" font-family="Roboto" font-size="10.00">Urho3D::Node::GetID</text>
</a>
</g>
</g>
<!-- Node8&#45;&gt;Node9 -->
<g id="edge9" class="edge">
<title>Node8&#45;&gt;Node9</title>
<path fill="none" stroke="#63b8ff" d="M244.78,-133.1C266.28,-117.3 301.68,-92.8 335,-76.5 338.66,-74.71 342.54,-73.01 346.47,-71.42"/>
<polygon fill="#63b8ff" stroke="#63b8ff" points="347.37,-74.82 355.48,-68 344.89,-68.27 347.37,-74.82"/>
</g>
<!-- Node10 -->
<g id="node10" class="node">
<title>Node10</title>
<g id="a_node10"><a xlink:href="class_urho3_d_1_1_component.html#ada751ff77fe3e5bc417db31cfebc0df8" target="_top" xlink:title=" ">
<polygon fill="white" stroke="#666666" points="446.5,-163.5 335.5,-163.5 335.5,-133.5 446.5,-133.5 446.5,-163.5"/>
<text text-anchor="start" x="343.5" y="-151.5" font-family="Roboto" font-size="10.00">Urho3D::Component::</text>
<text text-anchor="middle" x="391" y="-140.5" font-family="Roboto" font-size="10.00">GetNode</text>
</a>
</g>
</g>
<!-- Node8&#45;&gt;Node10 -->
<g id="edge10" class="edge">
<title>Node8&#45;&gt;Node10</title>
<path fill="none" stroke="#63b8ff" d="M279.61,-148.5C293.85,-148.5 309.32,-148.5 324.05,-148.5"/>
<polygon fill="#63b8ff" stroke="#63b8ff" points="323.62,-152 333.62,-148.5 323.62,-145 323.62,-152"/>
</g>
<!-- Node11 -->
<g id="node11" class="node">
<title>Node11</title>
<g id="a_node11"><a xlink:href="class_urho3_d_1_1_component.html#aaf87acb64001774c62f0784254f9b291" target="_top" xlink:title="Mark for attribute check on the next network update.">
<polygon fill="white" stroke="#666666" points="446.5,-211.5 335.5,-211.5 335.5,-181.5 446.5,-181.5 446.5,-211.5"/>
<text text-anchor="start" x="343.5" y="-199.5" font-family="Roboto" font-size="10.00">Urho3D::Component::</text>
<text text-anchor="middle" x="391" y="-188.5" font-family="Roboto" font-size="10.00">MarkNetworkUpdate</text>
</a>
</g>
</g>
<!-- Node8&#45;&gt;Node11 -->
<g id="edge11" class="edge">
<title>Node8&#45;&gt;Node11</title>
<path fill="none" stroke="#63b8ff" d="M277.78,-163.95C293.13,-168.41 310.04,-173.31 325.98,-177.93"/>
<polygon fill="#63b8ff" stroke="#63b8ff" points="324.79,-181.23 335.37,-180.66 326.74,-174.51 324.79,-181.23"/>
</g>
<!-- Node14 -->
<g id="node14" class="node">
<title>Node14</title>
<g id="a_node14"><a xlink:href="class_urho3_d_1_1_constraint2_d.html#a6b020a0b52d60cf6f05f584f85801c58" target="_top" xlink:title="Recreate joint.">
<polygon fill="white" stroke="#666666" points="447,-115.5 335,-115.5 335,-85.5 447,-85.5 447,-115.5"/>
<text text-anchor="start" x="343" y="-103.5" font-family="Roboto" font-size="10.00">Urho3D::Constraint2D</text>
<text text-anchor="middle" x="391" y="-92.5" font-family="Roboto" font-size="10.00">::RecreateJoint</text>
</a>
</g>
</g>
<!-- Node8&#45;&gt;Node14 -->
<g id="edge17" class="edge">
<title>Node8&#45;&gt;Node14</title>
<path fill="none" stroke="#63b8ff" d="M277.78,-133.05C293.13,-128.59 310.04,-123.69 325.98,-119.07"/>
<polygon fill="#63b8ff" stroke="#63b8ff" points="326.74,-122.49 335.37,-116.34 324.79,-115.77 326.74,-122.49"/>
</g>
<!-- Node11&#45;&gt;Node6 -->
<g id="edge12" class="edge">
<title>Node11&#45;&gt;Node6</title>
<path fill="none" stroke="#63b8ff" d="M423.2,-211.98C440.59,-220.33 462.76,-230.53 483,-238.5 487.14,-240.13 491.44,-241.74 495.79,-243.32"/>
<polygon fill="#63b8ff" stroke="#63b8ff" points="494.62,-246.61 505.21,-246.63 496.94,-240.01 494.62,-246.61"/>
</g>
<!-- Node12 -->
<g id="node12" class="node">
<title>Node12</title>
<g id="a_node12"><a xlink:href="class_urho3_d_1_1_component.html#a8f1388c232ca01b7c7328c761aae6e76" target="_top" xlink:title=" ">
<polygon fill="white" stroke="#666666" points="612.5,-229.5 501.5,-229.5 501.5,-199.5 612.5,-199.5 612.5,-229.5"/>
<text text-anchor="start" x="509.5" y="-217.5" font-family="Roboto" font-size="10.00">Urho3D::Component::</text>
<text text-anchor="middle" x="557" y="-206.5" font-family="Roboto" font-size="10.00">IsReplicated</text>
</a>
</g>
</g>
<!-- Node11&#45;&gt;Node12 -->
<g id="edge13" class="edge">
<title>Node11&#45;&gt;Node12</title>
<path fill="none" stroke="#63b8ff" d="M446.61,-202.49C460.43,-204.01 475.43,-205.66 489.76,-207.23"/>
<polygon fill="#63b8ff" stroke="#63b8ff" points="489.24,-210.69 499.57,-208.31 490.01,-203.74 489.24,-210.69"/>
</g>
<!-- Node13 -->
<g id="node13" class="node">
<title>Node13</title>
<g id="a_node13"><a xlink:href="class_urho3_d_1_1_scene.html#a00b724dfff718639b9de12d71139499c" target="_top" xlink:title="Mark for attribute check on the next network update.">
<polygon fill="white" stroke="#666666" points="631,-163.5 483,-163.5 483,-133.5 631,-133.5 631,-163.5"/>
<text text-anchor="start" x="491" y="-151.5" font-family="Roboto" font-size="10.00">Urho3D::Scene::MarkNetwork</text>
<text text-anchor="middle" x="557" y="-140.5" font-family="Roboto" font-size="10.00">Update</text>
</a>
</g>
</g>
<!-- Node11&#45;&gt;Node13 -->
<g id="edge15" class="edge">
<title>Node11&#45;&gt;Node13</title>
<path fill="none" stroke="#63b8ff" d="M444.79,-181.05C460.01,-176.59 476.77,-171.69 492.56,-167.07"/>
<polygon fill="#63b8ff" stroke="#63b8ff" points="493.24,-170.52 501.85,-164.35 491.27,-163.8 493.24,-170.52"/>
</g>
<!-- Node12&#45;&gt;Node5 -->
<g id="edge14" class="edge">
<title>Node12&#45;&gt;Node5</title>
<path fill="none" stroke="#63b8ff" d="M612.87,-203.58C619.67,-200.3 625.99,-196.04 631,-190.5 680.51,-135.83 615.7,-81.5 667,-28.5 667.88,-27.59 668.79,-26.73 669.74,-25.9"/>
<polygon fill="#63b8ff" stroke="#63b8ff" points="671.54,-28.91 677.79,-20.35 667.57,-23.15 671.54,-28.91"/>
</g>
<!-- Node13&#45;&gt;Node13 -->
<g id="edge16" class="edge">
<title>Node13&#45;&gt;Node13</title>
<path fill="none" stroke="#63b8ff" d="M527.82,-163.78C521.34,-172.91 531.06,-181.5 557,-181.5 571.18,-181.5 580.52,-178.93 585.01,-175.11"/>
<polygon fill="#63b8ff" stroke="#63b8ff" points="588.48,-175.59 586.02,-165.28 581.51,-174.87 588.48,-175.59"/>
</g>
<!-- Node15 -->
<g id="node15" class="node">
<title>Node15</title>
<g id="a_node15"><a xlink:href="class_urho3_d_1_1_constraint2_d.html#a5bd16c56eb8593d219bb77c676c2d531" target="_top" xlink:title="Create joint.">
<polygon fill="white" stroke="#666666" points="613,-67.5 501,-67.5 501,-37.5 613,-37.5 613,-67.5"/>
<text text-anchor="start" x="509" y="-55.5" font-family="Roboto" font-size="10.00">Urho3D::Constraint2D</text>
<text text-anchor="middle" x="557" y="-44.5" font-family="Roboto" font-size="10.00">::CreateJoint</text>
</a>
</g>
</g>
<!-- Node14&#45;&gt;Node15 -->
<g id="edge18" class="edge">
<title>Node14&#45;&gt;Node15</title>
<path fill="none" stroke="#63b8ff" d="M444.79,-85.05C460.01,-80.59 476.77,-75.69 492.56,-71.07"/>
<polygon fill="#63b8ff" stroke="#63b8ff" points="493.24,-74.52 501.85,-68.35 491.27,-67.8 493.24,-74.52"/>
</g>
<!-- Node17 -->
<g id="node17" class="node">
<title>Node17</title>
<g id="a_node17"><a xlink:href="class_urho3_d_1_1_constraint2_d.html#a96753482a7b07d8a9cd15c55c22d1079" target="_top" xlink:title="Release joint.">
<polygon fill="white" stroke="#666666" points="613,-115.5 501,-115.5 501,-85.5 613,-85.5 613,-115.5"/>
<text text-anchor="start" x="509" y="-103.5" font-family="Roboto" font-size="10.00">Urho3D::Constraint2D</text>
<text text-anchor="middle" x="557" y="-92.5" font-family="Roboto" font-size="10.00">::ReleaseJoint</text>
</a>
</g>
</g>
<!-- Node14&#45;&gt;Node17 -->
<g id="edge20" class="edge">
<title>Node14&#45;&gt;Node17</title>
<path fill="none" stroke="#63b8ff" d="M447.07,-100.5C460.65,-100.5 475.34,-100.5 489.41,-100.5"/>
<polygon fill="#63b8ff" stroke="#63b8ff" points="489.01,-104 499.01,-100.5 489.01,-97 489.01,-104"/>
</g>
<!-- Node16 -->
<g id="node16" class="node">
<title>Node16</title>
<g id="a_node16"><a xlink:href="class_urho3_d_1_1_constraint2_d.html#acb84b297b4881b1c7c549e8468f26105" target="_top" xlink:title="Return joint def.">
<polygon fill="white" stroke="#666666" points="798,-67.5 686,-67.5 686,-37.5 798,-37.5 798,-67.5"/>
<text text-anchor="start" x="694" y="-55.5" font-family="Roboto" font-size="10.00">Urho3D::Constraint2D</text>
<text text-anchor="middle" x="742" y="-44.5" font-family="Roboto" font-size="10.00">::GetJointDef</text>
</a>
</g>
</g>
<!-- Node15&#45;&gt;Node16 -->
<g id="edge19" class="edge">
<title>Node15&#45;&gt;Node16</title>
<path fill="none" stroke="#63b8ff" d="M613.4,-52.5C632.66,-52.5 654.46,-52.5 674.53,-52.5"/>
<polygon fill="#63b8ff" stroke="#63b8ff" points="674.27,-56 684.27,-52.5 674.27,-49 674.27,-56"/>
</g>
</g>
</svg>
