<?xml version="1.0" encoding="UTF-8" standalone="no"?>
<!DOCTYPE svg PUBLIC "-//W3C//DTD SVG 1.1//EN"
 "http://www.w3.org/Graphics/SVG/1.1/DTD/svg11.dtd">
<!-- Generated by graphviz version 7.0.3 (0)
 -->
<!-- Title: Urho3D::NavArea::DrawDebugGeometry Pages: 1 -->
<svg width="507pt" height="86pt"
 viewBox="0.00 0.00 507.00 86.00" xmlns="http://www.w3.org/2000/svg" xmlns:xlink="http://www.w3.org/1999/xlink">
<g id="graph0" class="graph" transform="scale(1 1) rotate(0) translate(4 82)">
<title>Urho3D::NavArea::DrawDebugGeometry</title>
<!-- Node1 -->
<g id="node1" class="node">
<title>Node1</title>
<g id="a_node1"><a xlink:title="Render debug geometry for the bounds.">
<polygon fill="#999999" stroke="#666666" points="499,-54 352,-54 352,-24 499,-24 499,-54"/>
<text text-anchor="start" x="360" y="-42" font-family="Roboto" font-size="10.00">Urho3D::NavArea::DrawDebug</text>
<text text-anchor="middle" x="425.5" y="-31" font-family="Roboto" font-size="10.00">Geometry</text>
</a>
</g>
</g>
<!-- Node2 -->
<g id="node2" class="node">
<title>Node2</title>
<g id="a_node2"><a xlink:href="class_urho3_d_1_1_dynamic_navigation_mesh.html#a9cab2b73806cb46dd3e9c0449961cb0c" target="_top" xlink:title="Visualize the component as debug geometry.">
<polygon fill="white" stroke="#666666" points="316,-78 176,-78 176,-48 316,-48 316,-78"/>
<text text-anchor="start" x="184" y="-66" font-family="Roboto" font-size="10.00">Urho3D::DynamicNavigation</text>
<text text-anchor="middle" x="246" y="-55" font-family="Roboto" font-size="10.00">Mesh::DrawDebugGeometry</text>
</a>
</g>
</g>
<!-- Node1&#45;&gt;Node2 -->
<g id="edge1" class="edge">
<title>Node1&#45;&gt;Node2</title>
<path fill="none" stroke="#63b8ff" d="M340.24,-50.39C332.2,-51.48 324.12,-52.57 316.25,-53.64"/>
<polygon fill="#63b8ff" stroke="#63b8ff" points="340.59,-53.88 350.04,-49.07 339.66,-46.94 340.59,-53.88"/>
</g>
<!-- Node4 -->
<g id="node4" class="node">
<title>Node4</title>
<g id="a_node4"><a xlink:href="class_urho3_d_1_1_navigation_mesh.html#aa810398f062f052eb649c02f2ba4f02c" target="_top" xlink:title="Visualize the component as debug geometry.">
<polygon fill="white" stroke="#666666" points="309,-30 183,-30 183,0 309,0 309,-30"/>
<text text-anchor="start" x="191" y="-18" font-family="Roboto" font-size="10.00">Urho3D::NavigationMesh</text>
<text text-anchor="middle" x="246" y="-7" font-family="Roboto" font-size="10.00">::DrawDebugGeometry</text>
</a>
</g>
</g>
<!-- Node1&#45;&gt;Node4 -->
<g id="edge3" class="edge">
<title>Node1&#45;&gt;Node4</title>
<path fill="none" stroke="#63b8ff" d="M340.32,-27.62C329.94,-26.21 319.47,-24.8 309.48,-23.45"/>
<polygon fill="#63b8ff" stroke="#63b8ff" points="339.66,-31.06 350.04,-28.93 340.59,-24.12 339.66,-31.06"/>
</g>
<!-- Node3 -->
<g id="node3" class="node">
<title>Node3</title>
<g id="a_node3"><a xlink:href="class_urho3_d_1_1_dynamic_navigation_mesh.html#ac3525ed32fcfa8a82da4e67fda1a811a" target="_top" xlink:title="Add debug geometry to the debug renderer.">
<polygon fill="white" stroke="#666666" points="140,-78 0,-78 0,-48 140,-48 140,-78"/>
<text text-anchor="start" x="8" y="-66" font-family="Roboto" font-size="10.00">Urho3D::DynamicNavigation</text>
<text text-anchor="middle" x="70" y="-55" font-family="Roboto" font-size="10.00">Mesh::DrawDebugGeometry</text>
</a>
</g>
</g>
<!-- Node2&#45;&gt;Node3 -->
<g id="edge2" class="edge">
<title>Node2&#45;&gt;Node3</title>
<path fill="none" stroke="#63b8ff" d="M164.42,-63C156.37,-63 148.24,-63 140.32,-63"/>
<polygon fill="#63b8ff" stroke="#63b8ff" points="164.22,-66.5 174.22,-63 164.22,-59.5 164.22,-66.5"/>
</g>
<!-- Node5 -->
<g id="node5" class="node">
<title>Node5</title>
<g id="a_node5"><a xlink:href="class_urho3_d_1_1_navigation_mesh.html#a250c94d8ee843a6219679daccf951a1f" target="_top" xlink:title="Add debug geometry to the debug renderer.">
<polygon fill="white" stroke="#666666" points="133,-30 7,-30 7,0 133,0 133,-30"/>
<text text-anchor="start" x="15" y="-18" font-family="Roboto" font-size="10.00">Urho3D::NavigationMesh</text>
<text text-anchor="middle" x="70" y="-7" font-family="Roboto" font-size="10.00">::DrawDebugGeometry</text>
</a>
</g>
</g>
<!-- Node4&#45;&gt;Node5 -->
<g id="edge4" class="edge">
<title>Node4&#45;&gt;Node5</title>
<path fill="none" stroke="#63b8ff" d="M171.26,-15C158.68,-15 145.73,-15 133.48,-15"/>
<polygon fill="#63b8ff" stroke="#63b8ff" points="171.16,-18.5 181.16,-15 171.16,-11.5 171.16,-18.5"/>
</g>
</g>
</svg>
