<?xml version="1.0" encoding="UTF-8" standalone="no"?>
<!DOCTYPE svg PUBLIC "-//W3C//DTD SVG 1.1//EN"
 "http://www.w3.org/Graphics/SVG/1.1/DTD/svg11.dtd">
<!-- Generated by graphviz version 7.0.3 (0)
 -->
<!-- Title: Urho3D::Light::GetLength Pages: 1 -->
<svg width="1132pt" height="86pt"
 viewBox="0.00 0.00 1132.00 86.00" xmlns="http://www.w3.org/2000/svg" xmlns:xlink="http://www.w3.org/1999/xlink">
<g id="graph0" class="graph" transform="scale(1 1) rotate(0) translate(4 82)">
<title>Urho3D::Light::GetLength</title>
<!-- Node1 -->
<g id="node1" class="node">
<title>Node1</title>
<g id="a_node1"><a xlink:title=" ">
<polygon fill="#999999" stroke="#666666" points="1124,-37 999,-37 999,-18 1124,-18 1124,-37"/>
<text text-anchor="middle" x="1061.5" y="-25" font-family="Roboto" font-size="10.00">Urho3D::Light::GetLength</text>
</a>
</g>
</g>
<!-- Node2 -->
<g id="node2" class="node">
<title>Node2</title>
<g id="a_node2"><a xlink:href="struct_urho3_d_1_1_batch.html#ad8794a08ef43585f0c54aebf11f39e11" target="_top" xlink:title="Prepare for rendering.">
<polygon fill="white" stroke="#666666" points="949.5,-56 832.5,-56 832.5,-37 949.5,-37 949.5,-56"/>
<text text-anchor="middle" x="891" y="-44" font-family="Roboto" font-size="10.00">Urho3D::Batch::Prepare</text>
</a>
</g>
</g>
<!-- Node1&#45;&gt;Node2 -->
<g id="edge1" class="edge">
<title>Node1&#45;&gt;Node2</title>
<path fill="none" stroke="#63b8ff" d="M987.33,-35.75C974.79,-37.16 961.92,-38.62 949.86,-39.98"/>
<polygon fill="#63b8ff" stroke="#63b8ff" points="987.66,-39.24 997.21,-34.64 986.88,-32.28 987.66,-39.24"/>
</g>
<!-- Node9 -->
<g id="node9" class="node">
<title>Node9</title>
<g id="a_node9"><a xlink:href="class_urho3_d_1_1_light.html#addf06c14a914ff91a084194c409a7917" target="_top" xlink:title=" ">
<polygon fill="white" stroke="#666666" points="963,-19 819,-19 819,0 963,0 963,-19"/>
<text text-anchor="middle" x="891" y="-7" font-family="Roboto" font-size="10.00">Urho3D::Light::RegisterObject</text>
</a>
</g>
</g>
<!-- Node1&#45;&gt;Node9 -->
<g id="edge11" class="edge">
<title>Node1&#45;&gt;Node9</title>
<path fill="none" stroke="#63b8ff" d="M987.27,-19.68C979.38,-18.83 971.35,-17.98 963.48,-17.14"/>
<polygon fill="#63b8ff" stroke="#63b8ff" points="986.89,-23.16 997.21,-20.74 987.64,-16.2 986.89,-23.16"/>
</g>
<!-- Node3 -->
<g id="node3" class="node">
<title>Node3</title>
<g id="a_node3"><a xlink:href="struct_urho3_d_1_1_batch.html#add3a46f1fc8c0dd490d0cc965bec2e5b" target="_top" xlink:title="Prepare and draw.">
<polygon fill="white" stroke="#666666" points="783,-78 676,-78 676,-59 783,-59 783,-78"/>
<text text-anchor="middle" x="729.5" y="-66" font-family="Roboto" font-size="10.00">Urho3D::Batch::Draw</text>
</a>
</g>
</g>
<!-- Node2&#45;&gt;Node3 -->
<g id="edge2" class="edge">
<title>Node2&#45;&gt;Node3</title>
<path fill="none" stroke="#63b8ff" d="M821.4,-55.96C808.7,-57.71 795.63,-59.52 783.49,-61.19"/>
<polygon fill="#63b8ff" stroke="#63b8ff" points="821.49,-59.48 830.92,-54.65 820.53,-52.55 821.49,-59.48"/>
</g>
<!-- Node8 -->
<g id="node8" class="node">
<title>Node8</title>
<g id="a_node8"><a xlink:href="struct_urho3_d_1_1_batch_group.html#ae44c18517fde1462221ddc7c7a1b2cd4" target="_top" xlink:title="Prepare and draw.">
<polygon fill="white" stroke="#666666" points="782.5,-40.5 676.5,-40.5 676.5,-10.5 782.5,-10.5 782.5,-40.5"/>
<text text-anchor="start" x="684.5" y="-28.5" font-family="Roboto" font-size="10.00">Urho3D::BatchGroup</text>
<text text-anchor="middle" x="729.5" y="-17.5" font-family="Roboto" font-size="10.00">::Draw</text>
</a>
</g>
</g>
<!-- Node2&#45;&gt;Node8 -->
<g id="edge9" class="edge">
<title>Node2&#45;&gt;Node8</title>
<path fill="none" stroke="#63b8ff" d="M821.27,-37.45C808.43,-35.76 795.21,-34.02 782.96,-32.41"/>
<polygon fill="#63b8ff" stroke="#63b8ff" points="820.54,-40.89 830.92,-38.72 821.46,-33.95 820.54,-40.89"/>
</g>
<!-- Node4 -->
<g id="node4" class="node">
<title>Node4</title>
<g id="a_node4"><a xlink:href="struct_urho3_d_1_1_batch_queue.html#a9a3a0ba457231d2a75e65fe2a1d1d94c" target="_top" xlink:title="Draw.">
<polygon fill="white" stroke="#666666" points="640,-61.5 533,-61.5 533,-31.5 640,-31.5 640,-61.5"/>
<text text-anchor="start" x="541" y="-49.5" font-family="Roboto" font-size="10.00">Urho3D::BatchQueue</text>
<text text-anchor="middle" x="586.5" y="-38.5" font-family="Roboto" font-size="10.00">::Draw</text>
</a>
</g>
</g>
<!-- Node3&#45;&gt;Node4 -->
<g id="edge3" class="edge">
<title>Node3&#45;&gt;Node4</title>
<path fill="none" stroke="#63b8ff" d="M664.32,-58.49C656.26,-57.23 648.09,-55.95 640.23,-54.73"/>
<polygon fill="#63b8ff" stroke="#63b8ff" points="663.68,-61.93 674.1,-60.01 664.76,-55.01 663.68,-61.93"/>
</g>
<!-- Node5 -->
<g id="node5" class="node">
<title>Node5</title>
<g id="a_node5"><a xlink:href="class_urho3_d_1_1_view.html#a2dd8e9237f495ba4ec4a69b195988cfa" target="_top" xlink:title="Execute render commands.">
<polygon fill="white" stroke="#666666" points="294,-61.5 148,-61.5 148,-31.5 294,-31.5 294,-61.5"/>
<text text-anchor="start" x="156" y="-49.5" font-family="Roboto" font-size="10.00">Urho3D::View::ExecuteRender</text>
<text text-anchor="middle" x="221" y="-38.5" font-family="Roboto" font-size="10.00">PathCommands</text>
</a>
</g>
</g>
<!-- Node4&#45;&gt;Node5 -->
<g id="edge4" class="edge">
<title>Node4&#45;&gt;Node5</title>
<path fill="none" stroke="#63b8ff" d="M521.26,-53.8C513.1,-54.5 504.86,-55.1 497,-55.5 422.87,-59.26 404.16,-58.58 330,-55.5 318.44,-55.02 306.2,-54.25 294.27,-53.36"/>
<polygon fill="#63b8ff" stroke="#63b8ff" points="521.54,-57.29 531.18,-52.89 520.9,-50.32 521.54,-57.29"/>
</g>
<!-- Node7 -->
<g id="node7" class="node">
<title>Node7</title>
<g id="a_node7"><a xlink:href="class_urho3_d_1_1_view.html#ae7e6e47346e5ff4346eb8cb251e013ef" target="_top" xlink:title="Render a shadow map.">
<polygon fill="white" stroke="#666666" points="497,-28 330,-28 330,-9 497,-9 497,-28"/>
<text text-anchor="middle" x="413.5" y="-16" font-family="Roboto" font-size="10.00">Urho3D::View::RenderShadowMap</text>
</a>
</g>
</g>
<!-- Node4&#45;&gt;Node7 -->
<g id="edge6" class="edge">
<title>Node4&#45;&gt;Node7</title>
<path fill="none" stroke="#63b8ff" d="M521.48,-36.02C506.4,-33.55 490.36,-30.92 475.41,-28.47"/>
<polygon fill="#63b8ff" stroke="#63b8ff" points="520.87,-39.46 531.31,-37.63 522,-32.56 520.87,-39.46"/>
</g>
<!-- Node6 -->
<g id="node6" class="node">
<title>Node6</title>
<g id="a_node6"><a xlink:href="class_urho3_d_1_1_view.html#a124582e02f0e82ba799467b20b162436" target="_top" xlink:title="Render batches.">
<polygon fill="white" stroke="#666666" points="112,-56 0,-56 0,-37 112,-37 112,-56"/>
<text text-anchor="middle" x="56" y="-44" font-family="Roboto" font-size="10.00">Urho3D::View::Render</text>
</a>
</g>
</g>
<!-- Node5&#45;&gt;Node6 -->
<g id="edge5" class="edge">
<title>Node5&#45;&gt;Node6</title>
<path fill="none" stroke="#63b8ff" d="M136.07,-46.5C127.94,-46.5 119.84,-46.5 112.1,-46.5"/>
<polygon fill="#63b8ff" stroke="#63b8ff" points="136.04,-50 146.04,-46.5 136.04,-43 136.04,-50"/>
</g>
<!-- Node7&#45;&gt;Node5 -->
<g id="edge7" class="edge">
<title>Node7&#45;&gt;Node5</title>
<path fill="none" stroke="#63b8ff" d="M333.34,-30.14C320.46,-32.03 307.17,-33.98 294.46,-35.85"/>
<polygon fill="#63b8ff" stroke="#63b8ff" points="333.65,-33.63 343.03,-28.71 332.63,-26.7 333.65,-33.63"/>
</g>
<!-- Node7&#45;&gt;Node7 -->
<g id="edge8" class="edge">
<title>Node7&#45;&gt;Node7</title>
<path fill="none" stroke="#63b8ff" d="M444.52,-39.1C440.95,-43.13 430.61,-46 413.5,-46 383.09,-46 374.06,-36.94 386.42,-28.37"/>
<polygon fill="#63b8ff" stroke="#63b8ff" points="447.84,-37.97 441.11,-29.79 441.26,-40.38 447.84,-37.97"/>
</g>
<!-- Node8&#45;&gt;Node4 -->
<g id="edge10" class="edge">
<title>Node8&#45;&gt;Node4</title>
<path fill="none" stroke="#63b8ff" d="M665.19,-34.93C656.88,-36.17 648.44,-37.42 640.33,-38.63"/>
<polygon fill="#63b8ff" stroke="#63b8ff" points="665.53,-38.42 674.9,-33.48 664.49,-31.49 665.53,-38.42"/>
</g>
</g>
</svg>
