<?xml version="1.0" encoding="UTF-8" standalone="no"?>
<!DOCTYPE svg PUBLIC "-//W3C//DTD SVG 1.1//EN"
 "http://www.w3.org/Graphics/SVG/1.1/DTD/svg11.dtd">
<!-- Generated by graphviz version 7.0.3 (0)
 -->
<!-- Title: Urho3D::CrowdManager::RegisterObject Pages: 1 -->
<svg width="1132pt" height="448pt"
 viewBox="0.00 0.00 1132.00 447.54" xmlns="http://www.w3.org/2000/svg" xmlns:xlink="http://www.w3.org/1999/xlink">
<g id="graph0" class="graph" transform="scale(1 1) rotate(0) translate(4 443.54)">
<title>Urho3D::CrowdManager::RegisterObject</title>
<!-- Node1 -->
<g id="node1" class="node">
<title>Node1</title>
<g id="a_node1"><a xlink:title=" ">
<polygon fill="#999999" stroke="#666666" points="123,-150 0,-150 0,-120 123,-120 123,-150"/>
<text text-anchor="start" x="8" y="-138" font-family="Roboto" font-size="10.00">Urho3D::CrowdManager</text>
<text text-anchor="middle" x="61.5" y="-127" font-family="Roboto" font-size="10.00">::RegisterObject</text>
</a>
</g>
</g>
<!-- Node2 -->
<g id="node2" class="node">
<title>Node2</title>
<g id="a_node2"><a xlink:href="class_urho3_d_1_1_crowd_manager.html#af723818c2ca8130d548ee6574b76106f" target="_top" xlink:title="Return all the obstacle avoidance types configured in the crowd as attribute.">
<polygon fill="white" stroke="#666666" points="322.5,-270 160.5,-270 160.5,-240 322.5,-240 322.5,-270"/>
<text text-anchor="start" x="168.5" y="-258" font-family="Roboto" font-size="10.00">Urho3D::CrowdManager</text>
<text text-anchor="middle" x="241.5" y="-247" font-family="Roboto" font-size="10.00">::GetObstacleAvoidanceTypesAttr</text>
</a>
</g>
</g>
<!-- Node1&#45;&gt;Node2 -->
<g id="edge1" class="edge">
<title>Node1&#45;&gt;Node2</title>
<path fill="none" stroke="#63b8ff" d="M73.84,-150.34C90.29,-171.53 122.8,-209.57 159,-231 161.3,-232.36 163.69,-233.65 166.13,-234.88"/>
<polygon fill="#63b8ff" stroke="#63b8ff" points="164.52,-237.99 175.08,-238.89 167.39,-231.6 164.52,-237.99"/>
</g>
<!-- Node14 -->
<g id="node14" class="node">
<title>Node14</title>
<g id="a_node14"><a xlink:href="class_urho3_d_1_1_crowd_manager.html#aff4ea699ceaeb82d26106768afefb0f8" target="_top" xlink:title="Return all the filter types configured in the crowd as attribute.">
<polygon fill="white" stroke="#666666" points="304,-222 179,-222 179,-192 304,-192 304,-222"/>
<text text-anchor="start" x="187" y="-210" font-family="Roboto" font-size="10.00">Urho3D::CrowdManager</text>
<text text-anchor="middle" x="241.5" y="-199" font-family="Roboto" font-size="10.00">::GetQueryFilterTypesAttr</text>
</a>
</g>
</g>
<!-- Node1&#45;&gt;Node14 -->
<g id="edge20" class="edge">
<title>Node1&#45;&gt;Node14</title>
<path fill="none" stroke="#63b8ff" d="M90.2,-150.4C109.18,-160.55 135.14,-173.64 159,-183 163.4,-184.73 167.98,-186.4 172.62,-188"/>
<polygon fill="#63b8ff" stroke="#63b8ff" points="171.48,-191.31 182.07,-191.13 173.68,-184.67 171.48,-191.31"/>
</g>
<!-- Node15 -->
<g id="node15" class="node">
<title>Node15</title>
<g id="a_node15"><a xlink:href="namespace_urho3_d_1_1_attribute_metadata.html#a0eec60ed91ef3d0a83f7c94563ac8f43" target="_top" xlink:title="Names of vector struct elements. StringVector.">
<polygon fill="white" stroke="#666666" points="324,-174 159,-174 159,-144 324,-144 324,-174"/>
<text text-anchor="start" x="167" y="-162" font-family="Roboto" font-size="10.00">Urho3D::AttributeMetadata</text>
<text text-anchor="middle" x="241.5" y="-151" font-family="Roboto" font-size="10.00">::P_VECTOR_STRUCT_ELEMENTS</text>
</a>
</g>
</g>
<!-- Node1&#45;&gt;Node15 -->
<g id="edge23" class="edge">
<title>Node1&#45;&gt;Node15</title>
<path fill="none" stroke="#63b8ff" d="M123.26,-143.19C131.08,-144.25 139.23,-145.35 147.43,-146.45"/>
<polygon fill="#63b8ff" stroke="#63b8ff" points="146.73,-149.89 157.11,-147.76 147.66,-142.95 146.73,-149.89"/>
</g>
<!-- Node16 -->
<g id="node16" class="node">
<title>Node16</title>
<g id="a_node16"><a xlink:href="class_urho3_d_1_1_context.html#aa9b2cffef8d52fa18bfe533a2615a598" target="_top" xlink:title="Register a factory for an object type.">
<polygon fill="white" stroke="#666666" points="306.5,-126 176.5,-126 176.5,-96 306.5,-96 306.5,-126"/>
<text text-anchor="start" x="184.5" y="-114" font-family="Roboto" font-size="10.00">Urho3D::Context::Register</text>
<text text-anchor="middle" x="241.5" y="-103" font-family="Roboto" font-size="10.00">Factory</text>
</a>
</g>
</g>
<!-- Node1&#45;&gt;Node16 -->
<g id="edge24" class="edge">
<title>Node1&#45;&gt;Node16</title>
<path fill="none" stroke="#63b8ff" d="M123.26,-126.81C136.69,-125 151.08,-123.06 165.01,-121.18"/>
<polygon fill="#63b8ff" stroke="#63b8ff" points="165.12,-124.7 174.56,-119.89 164.19,-117.76 165.12,-124.7"/>
</g>
<!-- Node18 -->
<g id="node18" class="node">
<title>Node18</title>
<g id="a_node18"><a xlink:href="class_urho3_d_1_1_crowd_manager.html#a9fdc347fc186fdca44005be49b20a2d9" target="_top" xlink:title="Set all the obstacle avoidance types configured in the crowd based on the corresponding attribute.">
<polygon fill="white" stroke="#666666" points="322,-78 161,-78 161,-48 322,-48 322,-78"/>
<text text-anchor="start" x="169" y="-66" font-family="Roboto" font-size="10.00">Urho3D::CrowdManager</text>
<text text-anchor="middle" x="241.5" y="-55" font-family="Roboto" font-size="10.00">::SetObstacleAvoidanceTypesAttr</text>
</a>
</g>
</g>
<!-- Node1&#45;&gt;Node18 -->
<g id="edge26" class="edge">
<title>Node1&#45;&gt;Node18</title>
<path fill="none" stroke="#63b8ff" d="M90.2,-119.6C109.18,-109.45 135.14,-96.36 159,-87 163.4,-85.27 167.98,-83.6 172.62,-82"/>
<polygon fill="#63b8ff" stroke="#63b8ff" points="173.68,-85.33 182.07,-78.87 171.48,-78.69 173.68,-85.33"/>
</g>
<!-- Node21 -->
<g id="node21" class="node">
<title>Node21</title>
<g id="a_node21"><a xlink:href="class_urho3_d_1_1_crowd_manager.html#aade58f13dc5072c99436bf791953bdad" target="_top" xlink:title="Set all the query filter types configured in the crowd based on the corresponding attribute.">
<polygon fill="white" stroke="#666666" points="304,-30 179,-30 179,0 304,0 304,-30"/>
<text text-anchor="start" x="187" y="-18" font-family="Roboto" font-size="10.00">Urho3D::CrowdManager</text>
<text text-anchor="middle" x="241.5" y="-7" font-family="Roboto" font-size="10.00">::SetQueryFilterTypesAttr</text>
</a>
</g>
</g>
<!-- Node1&#45;&gt;Node21 -->
<g id="edge30" class="edge">
<title>Node1&#45;&gt;Node21</title>
<path fill="none" stroke="#63b8ff" d="M73.84,-119.66C90.29,-98.47 122.8,-60.43 159,-39 161.95,-37.25 165.04,-35.62 168.21,-34.11"/>
<polygon fill="#63b8ff" stroke="#63b8ff" points="169.4,-37.41 177.2,-30.24 166.63,-30.98 169.4,-37.41"/>
</g>
<!-- Node3 -->
<g id="node3" class="node">
<title>Node3</title>
<g id="a_node3"><a xlink:href="class_urho3_d_1_1_vector.html#a083b39861b996df82f811a9a4ebff109" target="_top" xlink:title="Add an element at the end.">
<polygon fill="white" stroke="#666666" points="473,-282.5 363,-282.5 363,-263.5 473,-263.5 473,-282.5"/>
<text text-anchor="middle" x="418" y="-270.5" font-family="Roboto" font-size="10.00">Urho3D::Vector::Push</text>
</a>
</g>
</g>
<!-- Node2&#45;&gt;Node3 -->
<g id="edge2" class="edge">
<title>Node2&#45;&gt;Node3</title>
<path fill="none" stroke="#63b8ff" d="M322.85,-263.29C332.46,-264.28 342.17,-265.28 351.53,-266.25"/>
<polygon fill="#63b8ff" stroke="#63b8ff" points="350.92,-269.7 361.23,-267.25 351.64,-262.74 350.92,-269.7"/>
</g>
<!-- Node10 -->
<g id="node10" class="node">
<title>Node10</title>
<g id="a_node10"><a xlink:href="class_urho3_d_1_1_vector.html#a30b2235d2061acfb649faa5afddebb69" target="_top" xlink:title="Set new capacity.">
<polygon fill="white" stroke="#666666" points="801.5,-199.5 677.5,-199.5 677.5,-180.5 801.5,-180.5 801.5,-199.5"/>
<text text-anchor="middle" x="739.5" y="-187.5" font-family="Roboto" font-size="10.00">Urho3D::Vector::Reserve</text>
</a>
</g>
</g>
<!-- Node2&#45;&gt;Node10 -->
<g id="edge19" class="edge">
<title>Node2&#45;&gt;Node10</title>
<path fill="none" stroke="#63b8ff" d="M322.85,-247.42C403.11,-239.44 529.92,-225.72 639,-209 651.91,-207.02 665.7,-204.59 678.77,-202.14"/>
<polygon fill="#63b8ff" stroke="#63b8ff" points="679.39,-205.59 688.55,-200.27 678.07,-198.71 679.39,-205.59"/>
</g>
<!-- Node4 -->
<g id="node4" class="node">
<title>Node4</title>
<g id="a_node4"><a xlink:href="class_urho3_d_1_1_vector.html#a2966c346317753692342733ce84a6829" target="_top" xlink:title="Return last element.">
<polygon fill="white" stroke="#666666" points="630.5,-387.5 520.5,-387.5 520.5,-368.5 630.5,-368.5 630.5,-387.5"/>
<text text-anchor="middle" x="575.5" y="-375.5" font-family="Roboto" font-size="10.00">Urho3D::Vector::Back</text>
</a>
</g>
</g>
<!-- Node3&#45;&gt;Node4 -->
<g id="edge3" class="edge">
<title>Node3&#45;&gt;Node4</title>
<path fill="none" stroke="#63b8ff" d="M433.63,-282.88C460.49,-301.01 517.89,-339.78 550.53,-361.81"/>
<polygon fill="#63b8ff" stroke="#63b8ff" points="548.3,-364.53 558.54,-367.22 552.21,-358.73 548.3,-364.53"/>
</g>
<!-- Node6 -->
<g id="node6" class="node">
<title>Node6</title>
<g id="a_node6"><a xlink:href="class_urho3_d_1_1_vector.html#a17e4a13942a9512bc0eceb3e46d950dd" target="_top" xlink:title="Insert elements into the vector using copy or move constructor.">
<polygon fill="white" stroke="#666666" points="639,-291 512,-291 512,-261 639,-261 639,-291"/>
<text text-anchor="start" x="520" y="-279" font-family="Roboto" font-size="10.00">Urho3D::Vector::DoInsert</text>
<text text-anchor="middle" x="575.5" y="-268" font-family="Roboto" font-size="10.00">Elements</text>
</a>
</g>
</g>
<!-- Node3&#45;&gt;Node6 -->
<g id="edge5" class="edge">
<title>Node3&#45;&gt;Node6</title>
<path fill="none" stroke="#63b8ff" d="M473.39,-274.05C482.07,-274.22 491.18,-274.39 500.23,-274.57"/>
<polygon fill="#63b8ff" stroke="#63b8ff" points="500.04,-278.06 510.11,-274.76 500.18,-271.07 500.04,-278.06"/>
</g>
<!-- Node5 -->
<g id="node5" class="node">
<title>Node5</title>
<g id="a_node5"><a xlink:href="class_urho3_d_1_1_vector.html#a2126455bfd4dd42c90838abba6fef37a" target="_top" xlink:title="Return the buffer with right type.">
<polygon fill="white" stroke="#666666" points="1124,-350.5 1008,-350.5 1008,-331.5 1124,-331.5 1124,-350.5"/>
<text text-anchor="middle" x="1066" y="-338.5" font-family="Roboto" font-size="10.00">Urho3D::Vector::Buffer</text>
</a>
</g>
</g>
<!-- Node4&#45;&gt;Node5 -->
<g id="edge4" class="edge">
<title>Node4&#45;&gt;Node5</title>
<path fill="none" stroke="#63b8ff" d="M597.04,-387.92C616.57,-396.76 647.03,-409.05 675,-414 804.98,-437.01 847.24,-457.12 972,-414 1003.22,-403.21 1031.95,-377.13 1048.97,-359.26"/>
<polygon fill="#63b8ff" stroke="#63b8ff" points="1051.55,-361.63 1055.73,-351.89 1046.39,-356.89 1051.55,-361.63"/>
</g>
<!-- Node6&#45;&gt;Node5 -->
<g id="edge8" class="edge">
<title>Node6&#45;&gt;Node5</title>
<path fill="none" stroke="#63b8ff" d="M587.78,-291.31C604.23,-312.18 637.02,-348.63 675,-363 794.66,-408.28 949.76,-374.87 1023.08,-354.17"/>
<polygon fill="#63b8ff" stroke="#63b8ff" points="1024.04,-357.53 1032.67,-351.39 1022.09,-350.81 1024.04,-357.53"/>
</g>
<!-- Node7 -->
<g id="node7" class="node">
<title>Node7</title>
<g id="a_node7"><a xlink:href="class_urho3_d_1_1_vector.html#aa20f23bae4cf1d7cda06f6c3b47c7504" target="_top" xlink:title="Return iterator to the beginning.">
<polygon fill="white" stroke="#666666" points="962.5,-350.5 849.5,-350.5 849.5,-331.5 962.5,-331.5 962.5,-350.5"/>
<text text-anchor="middle" x="906" y="-338.5" font-family="Roboto" font-size="10.00">Urho3D::Vector::Begin</text>
</a>
</g>
</g>
<!-- Node6&#45;&gt;Node7 -->
<g id="edge6" class="edge">
<title>Node6&#45;&gt;Node7</title>
<path fill="none" stroke="#63b8ff" d="M592.3,-291.27C610.51,-307.73 642.19,-332.9 675,-343 728.06,-359.34 791.33,-357.34 838.07,-352.1"/>
<polygon fill="#63b8ff" stroke="#63b8ff" points="838.26,-355.6 847.77,-350.93 837.42,-348.65 838.26,-355.6"/>
</g>
<!-- Node8 -->
<g id="node8" class="node">
<title>Node8</title>
<g id="a_node8"><a xlink:href="class_urho3_d_1_1_vector.html#a05f68c0546419caf7d6050a3e7d8d1d5" target="_top" xlink:title="Calculate new vector capacity.">
<polygon fill="white" stroke="#666666" points="804,-334 675,-334 675,-304 804,-304 804,-334"/>
<text text-anchor="start" x="683" y="-322" font-family="Roboto" font-size="10.00">Urho3D::Vector::Calculate</text>
<text text-anchor="middle" x="739.5" y="-311" font-family="Roboto" font-size="10.00">Capacity</text>
</a>
</g>
</g>
<!-- Node6&#45;&gt;Node8 -->
<g id="edge9" class="edge">
<title>Node6&#45;&gt;Node8</title>
<path fill="none" stroke="#63b8ff" d="M634.53,-291.4C645.81,-294.4 657.74,-297.56 669.34,-300.64"/>
<polygon fill="#63b8ff" stroke="#63b8ff" points="668.31,-303.99 678.87,-303.17 670.1,-297.22 668.31,-303.99"/>
</g>
<!-- Node9 -->
<g id="node9" class="node">
<title>Node9</title>
<g id="a_node9"><a xlink:href="class_urho3_d_1_1_vector.html#a5c0b7ecbd0ae0c75a9a69bf9dedc517a" target="_top" xlink:title="Construct elements using default ctor.">
<polygon fill="white" stroke="#666666" points="972,-291 840,-291 840,-261 972,-261 972,-291"/>
<text text-anchor="start" x="848" y="-279" font-family="Roboto" font-size="10.00">Urho3D::Vector::Construct</text>
<text text-anchor="middle" x="906" y="-268" font-family="Roboto" font-size="10.00">Elements</text>
</a>
</g>
</g>
<!-- Node6&#45;&gt;Node9 -->
<g id="edge10" class="edge">
<title>Node6&#45;&gt;Node9</title>
<path fill="none" stroke="#63b8ff" d="M639.45,-276C693.33,-276 771.07,-276 828.53,-276"/>
<polygon fill="#63b8ff" stroke="#63b8ff" points="828.22,-279.5 838.22,-276 828.22,-272.5 828.22,-279.5"/>
</g>
<!-- Node6&#45;&gt;Node10 -->
<g id="edge11" class="edge">
<title>Node6&#45;&gt;Node10</title>
<path fill="none" stroke="#63b8ff" d="M614.07,-260.61C622.6,-256.41 631.38,-251.48 639,-246 657.63,-232.61 655.38,-220.89 675,-209 677.91,-207.24 680.99,-205.63 684.17,-204.16"/>
<polygon fill="#63b8ff" stroke="#63b8ff" points="685.2,-207.52 693.14,-200.51 682.56,-201.04 685.2,-207.52"/>
</g>
<!-- Node13 -->
<g id="node13" class="node">
<title>Node13</title>
<g id="a_node13"><a xlink:href="class_urho3_d_1_1_vector_base.html#aec648d72344954c3be22218eb180f6a4" target="_top" xlink:title="Swap with another vector.">
<polygon fill="white" stroke="#666666" points="792.5,-248 686.5,-248 686.5,-218 792.5,-218 792.5,-248"/>
<text text-anchor="start" x="694.5" y="-236" font-family="Roboto" font-size="10.00">Urho3D::VectorBase</text>
<text text-anchor="middle" x="739.5" y="-225" font-family="Roboto" font-size="10.00">::Swap</text>
</a>
</g>
</g>
<!-- Node6&#45;&gt;Node13 -->
<g id="edge18" class="edge">
<title>Node6&#45;&gt;Node13</title>
<path fill="none" stroke="#63b8ff" d="M634.53,-260.6C647.72,-257.1 661.8,-253.36 675.2,-249.8"/>
<polygon fill="#63b8ff" stroke="#63b8ff" points="676.03,-253.2 684.8,-247.25 674.24,-246.44 676.03,-253.2"/>
</g>
<!-- Node7&#45;&gt;Node5 -->
<g id="edge7" class="edge">
<title>Node7&#45;&gt;Node5</title>
<path fill="none" stroke="#63b8ff" d="M962.7,-341C973.52,-341 984.97,-341 996.15,-341"/>
<polygon fill="#63b8ff" stroke="#63b8ff" points="996.15,-344.5 1006.15,-341 996.15,-337.5 996.15,-344.5"/>
</g>
<!-- Node10&#45;&gt;Node5 -->
<g id="edge13" class="edge">
<title>Node10&#45;&gt;Node5</title>
<path fill="none" stroke="#63b8ff" d="M782.19,-199.97C844.24,-214.99 955.41,-242.67 972,-252 1004.14,-270.08 1033.48,-301.83 1050.28,-322.11"/>
<polygon fill="#63b8ff" stroke="#63b8ff" points="1047.53,-324.27 1056.53,-329.86 1052.98,-319.88 1047.53,-324.27"/>
</g>
<!-- Node10&#45;&gt;Node7 -->
<g id="edge12" class="edge">
<title>Node10&#45;&gt;Node7</title>
<path fill="none" stroke="#63b8ff" d="M790.08,-199.85C795.15,-202.26 799.93,-205.27 804,-209 836.05,-238.4 812.23,-266.52 840,-300 848.61,-310.38 860.55,-318.95 871.85,-325.53"/>
<polygon fill="#63b8ff" stroke="#63b8ff" points="870.15,-328.59 880.61,-330.28 873.49,-322.43 870.15,-328.59"/>
</g>
<!-- Node10&#45;&gt;Node9 -->
<g id="edge14" class="edge">
<title>Node10&#45;&gt;Node9</title>
<path fill="none" stroke="#63b8ff" d="M784.83,-200C791.51,-202.42 798.12,-205.38 804,-209 823.81,-221.19 821.01,-233.56 840,-247 844.31,-250.05 849,-252.89 853.81,-255.51"/>
<polygon fill="#63b8ff" stroke="#63b8ff" points="851.93,-258.48 862.44,-259.88 855.09,-252.24 851.93,-258.48"/>
</g>
<!-- Node11 -->
<g id="node11" class="node">
<title>Node11</title>
<g id="a_node11"><a xlink:href="class_urho3_d_1_1_vector.html#afb87585db12d120ab5148ec782d14632" target="_top" xlink:title="Call the elements&#39; destructors.">
<polygon fill="white" stroke="#666666" points="969,-205 843,-205 843,-175 969,-175 969,-205"/>
<text text-anchor="start" x="851" y="-193" font-family="Roboto" font-size="10.00">Urho3D::Vector::Destruct</text>
<text text-anchor="middle" x="906" y="-182" font-family="Roboto" font-size="10.00">Elements</text>
</a>
</g>
</g>
<!-- Node10&#45;&gt;Node11 -->
<g id="edge15" class="edge">
<title>Node10&#45;&gt;Node11</title>
<path fill="none" stroke="#63b8ff" d="M801.75,-190C811.34,-190 821.33,-190 831.16,-190"/>
<polygon fill="#63b8ff" stroke="#63b8ff" points="831.08,-193.5 841.08,-190 831.08,-186.5 831.08,-193.5"/>
</g>
<!-- Node12 -->
<g id="node12" class="node">
<title>Node12</title>
<g id="a_node12"><a xlink:href="class_urho3_d_1_1_vector.html#af79ffb0683568b08fe130ee028bfd1ef" target="_top" xlink:title="Return iterator to the end.">
<polygon fill="white" stroke="#666666" points="959,-156.5 853,-156.5 853,-137.5 959,-137.5 959,-156.5"/>
<text text-anchor="middle" x="906" y="-144.5" font-family="Roboto" font-size="10.00">Urho3D::Vector::End</text>
</a>
</g>
</g>
<!-- Node10&#45;&gt;Node12 -->
<g id="edge16" class="edge">
<title>Node10&#45;&gt;Node12</title>
<path fill="none" stroke="#63b8ff" d="M778.65,-180.03C801.62,-174.02 831.09,-166.32 855.79,-159.86"/>
<polygon fill="#63b8ff" stroke="#63b8ff" points="856.52,-163.29 865.3,-157.38 854.74,-156.52 856.52,-163.29"/>
</g>
<!-- Node12&#45;&gt;Node5 -->
<g id="edge17" class="edge">
<title>Node12&#45;&gt;Node5</title>
<path fill="none" stroke="#63b8ff" d="M956.67,-156.9C962.18,-159.3 967.44,-162.29 972,-166 1022.82,-207.38 1049.5,-284.06 1059.83,-320.6"/>
<polygon fill="#63b8ff" stroke="#63b8ff" points="1056.35,-321.14 1062.32,-329.89 1063.11,-319.32 1056.35,-321.14"/>
</g>
<!-- Node14&#45;&gt;Node3 -->
<g id="edge21" class="edge">
<title>Node14&#45;&gt;Node3</title>
<path fill="none" stroke="#63b8ff" d="M298.51,-222.39C307.11,-225.07 315.84,-227.97 324,-231 345.42,-238.95 368.86,-249.55 386.85,-258.11"/>
<polygon fill="#63b8ff" stroke="#63b8ff" points="385.12,-261.16 395.65,-262.35 388.16,-254.86 385.12,-261.16"/>
</g>
<!-- Node14&#45;&gt;Node10 -->
<g id="edge22" class="edge">
<title>Node14&#45;&gt;Node10</title>
<path fill="none" stroke="#63b8ff" d="M304.32,-204.88C396.12,-201.73 568.13,-195.84 665.83,-192.49"/>
<polygon fill="#63b8ff" stroke="#63b8ff" points="665.69,-196 675.56,-192.16 665.45,-189 665.69,-196"/>
</g>
<!-- Node17 -->
<g id="node17" class="node">
<title>Node17</title>
<g id="a_node17"><a xlink:href="class_urho3_d_1_1_object_factory.html#a191ee9fd0ce7c127dfd92b2b9ae47709" target="_top" xlink:title="Return type hash of objects created by this factory.">
<polygon fill="white" stroke="#666666" points="476,-128 360,-128 360,-98 476,-98 476,-128"/>
<text text-anchor="start" x="368" y="-116" font-family="Roboto" font-size="10.00">Urho3D::ObjectFactory</text>
<text text-anchor="middle" x="418" y="-105" font-family="Roboto" font-size="10.00">::GetType</text>
</a>
</g>
</g>
<!-- Node16&#45;&gt;Node17 -->
<g id="edge25" class="edge">
<title>Node16&#45;&gt;Node17</title>
<path fill="none" stroke="#63b8ff" d="M306.98,-111.74C320.48,-111.89 334.77,-112.06 348.41,-112.21"/>
<polygon fill="#63b8ff" stroke="#63b8ff" points="348.14,-115.71 358.18,-112.33 348.22,-108.71 348.14,-115.71"/>
</g>
<!-- Node19 -->
<g id="node19" class="node">
<title>Node19</title>
<g id="a_node19"><a xlink:href="_math_defs_8h.html#a639c291adc131849b469a216007c4af5" target="_top" xlink:title=" ">
<polygon fill="white" stroke="#666666" points="453.5,-61.5 382.5,-61.5 382.5,-42.5 453.5,-42.5 453.5,-61.5"/>
<text text-anchor="middle" x="418" y="-49.5" font-family="Roboto" font-size="10.00">Urho3D::Min</text>
</a>
</g>
</g>
<!-- Node18&#45;&gt;Node19 -->
<g id="edge27" class="edge">
<title>Node18&#45;&gt;Node19</title>
<path fill="none" stroke="#63b8ff" d="M322.35,-57.97C338.92,-56.92 355.84,-55.86 370.72,-54.92"/>
<polygon fill="#63b8ff" stroke="#63b8ff" points="370.89,-58.41 380.65,-54.29 370.45,-51.43 370.89,-58.41"/>
</g>
<!-- Node20 -->
<g id="node20" class="node">
<title>Node20</title>
<g id="a_node20"><a xlink:href="class_urho3_d_1_1_vector.html#a5da7101c355895f41098fcf875e4c56a" target="_top" xlink:title="Return size of vector.">
<polygon fill="white" stroke="#666666" points="471.5,-24.5 364.5,-24.5 364.5,-5.5 471.5,-5.5 471.5,-24.5"/>
<text text-anchor="middle" x="418" y="-12.5" font-family="Roboto" font-size="10.00">Urho3D::Vector::Size</text>
</a>
</g>
</g>
<!-- Node18&#45;&gt;Node20 -->
<g id="edge29" class="edge">
<title>Node18&#45;&gt;Node20</title>
<path fill="none" stroke="#63b8ff" d="M298.67,-47.55C321.58,-41.25 347.78,-34.04 369.69,-28.01"/>
<polygon fill="#63b8ff" stroke="#63b8ff" points="370.54,-31.41 379.26,-25.38 368.68,-24.66 370.54,-31.41"/>
</g>
<!-- Node19&#45;&gt;Node19 -->
<g id="edge28" class="edge">
<title>Node19&#45;&gt;Node19</title>
<path fill="none" stroke="#63b8ff" d="M393.34,-61.87C382.1,-70.44 390.31,-79.5 418,-79.5 433.57,-79.5 442.99,-76.63 446.24,-72.6"/>
<polygon fill="#63b8ff" stroke="#63b8ff" points="449.62,-71.68 443.14,-63.3 442.99,-73.9 449.62,-71.68"/>
</g>
<!-- Node21&#45;&gt;Node19 -->
<g id="edge31" class="edge">
<title>Node21&#45;&gt;Node19</title>
<path fill="none" stroke="#63b8ff" d="M304.02,-28.04C326.03,-32.71 350.43,-37.88 370.9,-42.23"/>
<polygon fill="#63b8ff" stroke="#63b8ff" points="370.16,-45.65 380.67,-44.3 371.61,-38.8 370.16,-45.65"/>
</g>
<!-- Node21&#45;&gt;Node20 -->
<g id="edge32" class="edge">
<title>Node21&#45;&gt;Node20</title>
<path fill="none" stroke="#63b8ff" d="M304.02,-15C319.81,-15 336.84,-15 352.77,-15"/>
<polygon fill="#63b8ff" stroke="#63b8ff" points="352.62,-18.5 362.62,-15 352.62,-11.5 352.62,-18.5"/>
</g>
</g>
</svg>
