<?xml version="1.0" encoding="UTF-8" standalone="no"?>
<!DOCTYPE svg PUBLIC "-//W3C//DTD SVG 1.1//EN"
 "http://www.w3.org/Graphics/SVG/1.1/DTD/svg11.dtd">
<!-- Generated by graphviz version 7.0.3 (0)
 -->
<!-- Title: Urho3D::UIComponent Pages: 1 -->
<svg width="124pt" height="302pt"
 viewBox="0.00 0.00 124.00 302.00" xmlns="http://www.w3.org/2000/svg" xmlns:xlink="http://www.w3.org/1999/xlink">
<g id="graph0" class="graph" transform="scale(1 1) rotate(0) translate(4 298)">
<title>Urho3D::UIComponent</title>
<!-- Node1 -->
<g id="node1" class="node">
<title>Node1</title>
<g id="a_node1"><a xlink:title=" ">
<polygon fill="#999999" stroke="#666666" points="116,-19 0,-19 0,0 116,0 116,-19"/>
<text text-anchor="middle" x="58" y="-7" font-family="Roboto" font-size="10.00">Urho3D::UIComponent</text>
</a>
</g>
</g>
<!-- Node2 -->
<g id="node2" class="node">
<title>Node2</title>
<g id="a_node2"><a xlink:href="class_urho3_d_1_1_component.html" target="_top" xlink:title=" ">
<polygon fill="white" stroke="#666666" points="111.5,-74 4.5,-74 4.5,-55 111.5,-55 111.5,-74"/>
<text text-anchor="middle" x="58" y="-62" font-family="Roboto" font-size="10.00">Urho3D::Component</text>
</a>
</g>
</g>
<!-- Node2&#45;&gt;Node1 -->
<g id="edge1" class="edge">
<title>Node2&#45;&gt;Node1</title>
<path fill="none" stroke="#63b8ff" d="M58,-43.35C58,-35.1 58,-25.97 58,-19.44"/>
<polygon fill="#63b8ff" stroke="#63b8ff" points="54.5,-43.23 58,-53.23 61.5,-43.23 54.5,-43.23"/>
</g>
<!-- Node3 -->
<g id="node3" class="node">
<title>Node3</title>
<g id="a_node3"><a xlink:href="class_urho3_d_1_1_animatable.html" target="_top" xlink:title="Base class for animatable object, an animatable object can be set animation on it&#39;s attributes,...">
<polygon fill="white" stroke="#666666" points="110,-129 6,-129 6,-110 110,-110 110,-129"/>
<text text-anchor="middle" x="58" y="-117" font-family="Roboto" font-size="10.00">Urho3D::Animatable</text>
</a>
</g>
</g>
<!-- Node3&#45;&gt;Node2 -->
<g id="edge2" class="edge">
<title>Node3&#45;&gt;Node2</title>
<path fill="none" stroke="#63b8ff" d="M58,-98.35C58,-90.1 58,-80.97 58,-74.44"/>
<polygon fill="#63b8ff" stroke="#63b8ff" points="54.5,-98.23 58,-108.23 61.5,-98.23 54.5,-98.23"/>
</g>
<!-- Node4 -->
<g id="node4" class="node">
<title>Node4</title>
<g id="a_node4"><a xlink:href="class_urho3_d_1_1_serializable.html" target="_top" xlink:title="Base class for objects with automatic serialization through attributes.">
<polygon fill="white" stroke="#666666" points="110.5,-184 5.5,-184 5.5,-165 110.5,-165 110.5,-184"/>
<text text-anchor="middle" x="58" y="-172" font-family="Roboto" font-size="10.00">Urho3D::Serializable</text>
</a>
</g>
</g>
<!-- Node4&#45;&gt;Node3 -->
<g id="edge3" class="edge">
<title>Node4&#45;&gt;Node3</title>
<path fill="none" stroke="#63b8ff" d="M58,-153.35C58,-145.1 58,-135.97 58,-129.44"/>
<polygon fill="#63b8ff" stroke="#63b8ff" points="54.5,-153.23 58,-163.23 61.5,-153.23 54.5,-153.23"/>
</g>
<!-- Node5 -->
<g id="node5" class="node">
<title>Node5</title>
<g id="a_node5"><a xlink:href="class_urho3_d_1_1_object.html" target="_top" xlink:title=" ">
<polygon fill="white" stroke="#666666" points="99.5,-239 16.5,-239 16.5,-220 99.5,-220 99.5,-239"/>
<text text-anchor="middle" x="58" y="-227" font-family="Roboto" font-size="10.00">Urho3D::Object</text>
</a>
</g>
</g>
<!-- Node5&#45;&gt;Node4 -->
<g id="edge4" class="edge">
<title>Node5&#45;&gt;Node4</title>
<path fill="none" stroke="#63b8ff" d="M58,-208.35C58,-200.1 58,-190.97 58,-184.44"/>
<polygon fill="#63b8ff" stroke="#63b8ff" points="54.5,-208.23 58,-218.23 61.5,-208.23 54.5,-208.23"/>
</g>
<!-- Node6 -->
<g id="node6" class="node">
<title>Node6</title>
<g id="a_node6"><a xlink:href="class_urho3_d_1_1_ref_counted.html" target="_top" xlink:title="Base class for intrusively reference&#45;counted objects. These are noncopyable and non&#45;assignable.">
<polygon fill="white" stroke="#666666" points="111.5,-294 4.5,-294 4.5,-275 111.5,-275 111.5,-294"/>
<text text-anchor="middle" x="58" y="-282" font-family="Roboto" font-size="10.00">Urho3D::RefCounted</text>
</a>
</g>
</g>
<!-- Node6&#45;&gt;Node5 -->
<g id="edge5" class="edge">
<title>Node6&#45;&gt;Node5</title>
<path fill="none" stroke="#63b8ff" d="M58,-263.35C58,-255.1 58,-245.97 58,-239.44"/>
<polygon fill="#63b8ff" stroke="#63b8ff" points="54.5,-263.23 58,-273.23 61.5,-263.23 54.5,-263.23"/>
</g>
</g>
</svg>
