<?xml version="1.0" encoding="UTF-8" standalone="no"?>
<!DOCTYPE svg PUBLIC "-//W3C//DTD SVG 1.1//EN"
 "http://www.w3.org/Graphics/SVG/1.1/DTD/svg11.dtd">
<!-- Generated by graphviz version 7.0.3 (0)
 -->
<!-- Title: Urho3D::SphereOctreeQuery::TestDrawables Pages: 1 -->
<svg width="519pt" height="162pt"
 viewBox="0.00 0.00 519.00 161.50" xmlns="http://www.w3.org/2000/svg" xmlns:xlink="http://www.w3.org/1999/xlink">
<g id="graph0" class="graph" transform="scale(1 1) rotate(0) translate(4 157.5)">
<title>Urho3D::SphereOctreeQuery::TestDrawables</title>
<!-- Node1 -->
<g id="node1" class="node">
<title>Node1</title>
<g id="a_node1"><a xlink:title="Intersection test for drawables.">
<polygon fill="#999999" stroke="#666666" points="139,-88.5 0,-88.5 0,-58.5 139,-58.5 139,-88.5"/>
<text text-anchor="start" x="8" y="-76.5" font-family="Roboto" font-size="10.00">Urho3D::SphereOctreeQuery</text>
<text text-anchor="middle" x="69.5" y="-65.5" font-family="Roboto" font-size="10.00">::TestDrawables</text>
</a>
</g>
</g>
<!-- Node2 -->
<g id="node2" class="node">
<title>Node2</title>
<g id="a_node2"><a xlink:href="class_urho3_d_1_1_drawable.html#a74be6fab1f5cfdd44da3572015edf6ba" target="_top" xlink:title="Return drawable flags.">
<polygon fill="white" stroke="#666666" points="333,-153.5 178,-153.5 178,-123.5 333,-123.5 333,-153.5"/>
<text text-anchor="start" x="186" y="-141.5" font-family="Roboto" font-size="10.00">Urho3D::Drawable::GetDrawable</text>
<text text-anchor="middle" x="255.5" y="-130.5" font-family="Roboto" font-size="10.00">Flags</text>
</a>
</g>
</g>
<!-- Node1&#45;&gt;Node2 -->
<g id="edge1" class="edge">
<title>Node1&#45;&gt;Node2</title>
<path fill="none" stroke="#63b8ff" d="M107.47,-88.85C127.34,-96.88 152.35,-106.65 175,-114.5 180.01,-116.24 185.23,-117.97 190.49,-119.67"/>
<polygon fill="#63b8ff" stroke="#63b8ff" points="189.25,-122.95 199.84,-122.63 191.36,-116.27 189.25,-122.95"/>
</g>
<!-- Node3 -->
<g id="node3" class="node">
<title>Node3</title>
<g id="a_node3"><a xlink:href="class_urho3_d_1_1_drawable.html#ae45bf9bcfe8d1c09c72258e77a76f992" target="_top" xlink:title=" ">
<polygon fill="white" stroke="#666666" points="336,-105 175,-105 175,-86 336,-86 336,-105"/>
<text text-anchor="middle" x="255.5" y="-93" font-family="Roboto" font-size="10.00">Urho3D::Drawable::GetViewMask</text>
</a>
</g>
</g>
<!-- Node1&#45;&gt;Node3 -->
<g id="edge2" class="edge">
<title>Node1&#45;&gt;Node3</title>
<path fill="none" stroke="#63b8ff" d="M139.28,-81.72C147.12,-82.66 155.2,-83.63 163.27,-84.59"/>
<polygon fill="#63b8ff" stroke="#63b8ff" points="162.8,-88.06 173.15,-85.77 163.63,-81.11 162.8,-88.06"/>
</g>
<!-- Node4 -->
<g id="node4" class="node">
<title>Node4</title>
<g id="a_node4"><a xlink:href="class_urho3_d_1_1_drawable.html#a3930dc9342c0aefcfd4c94eb8079e365" target="_top" xlink:title=" ">
<polygon fill="white" stroke="#666666" points="326.5,-67.5 184.5,-67.5 184.5,-37.5 326.5,-37.5 326.5,-67.5"/>
<text text-anchor="start" x="192.5" y="-55.5" font-family="Roboto" font-size="10.00">Urho3D::Drawable::GetWorld</text>
<text text-anchor="middle" x="255.5" y="-44.5" font-family="Roboto" font-size="10.00">BoundingBox</text>
</a>
</g>
</g>
<!-- Node1&#45;&gt;Node4 -->
<g id="edge3" class="edge">
<title>Node1&#45;&gt;Node4</title>
<path fill="none" stroke="#63b8ff" d="M139.28,-65.65C150.3,-64.39 161.8,-63.08 173.09,-61.79"/>
<polygon fill="#63b8ff" stroke="#63b8ff" points="173.23,-65.3 182.77,-60.69 172.44,-58.34 173.23,-65.3"/>
</g>
<!-- Node6 -->
<g id="node6" class="node">
<title>Node6</title>
<g id="a_node6"><a xlink:href="class_urho3_d_1_1_sphere.html#a681c28b29e99b644f9a3cb89f4a68946" target="_top" xlink:title="Test if another sphere is (partially) inside or outside.">
<polygon fill="white" stroke="#666666" points="327,-19 184,-19 184,0 327,0 327,-19"/>
<text text-anchor="middle" x="255.5" y="-7" font-family="Roboto" font-size="10.00">Urho3D::Sphere::IsInsideFast</text>
</a>
</g>
</g>
<!-- Node1&#45;&gt;Node6 -->
<g id="edge5" class="edge">
<title>Node1&#45;&gt;Node6</title>
<path fill="none" stroke="#63b8ff" d="M102.42,-58.05C122.84,-48.6 150.07,-36.78 175,-28.5 181.72,-26.27 188.83,-24.19 195.94,-22.28"/>
<polygon fill="#63b8ff" stroke="#63b8ff" points="196.76,-25.68 205.57,-19.81 195.02,-18.9 196.76,-25.68"/>
</g>
<!-- Node5 -->
<g id="node5" class="node">
<title>Node5</title>
<g id="a_node5"><a xlink:href="class_urho3_d_1_1_drawable.html#af146747caaf6fd85ab71fda4e364bde4" target="_top" xlink:title="Recalculate the world&#45;space bounding box.">
<polygon fill="white" stroke="#666666" points="511,-67.5 372,-67.5 372,-37.5 511,-37.5 511,-67.5"/>
<text text-anchor="start" x="380" y="-55.5" font-family="Roboto" font-size="10.00">Urho3D::Drawable::OnWorld</text>
<text text-anchor="middle" x="441.5" y="-44.5" font-family="Roboto" font-size="10.00">BoundingBoxUpdate</text>
</a>
</g>
</g>
<!-- Node4&#45;&gt;Node5 -->
<g id="edge4" class="edge">
<title>Node4&#45;&gt;Node5</title>
<path fill="none" stroke="#63b8ff" d="M326.85,-52.5C337.77,-52.5 349.12,-52.5 360.23,-52.5"/>
<polygon fill="#63b8ff" stroke="#63b8ff" points="360.19,-56 370.19,-52.5 360.19,-49 360.19,-56"/>
</g>
</g>
</svg>
