<?xml version="1.0" encoding="UTF-8" standalone="no"?>
<!DOCTYPE svg PUBLIC "-//W3C//DTD SVG 1.1//EN"
 "http://www.w3.org/Graphics/SVG/1.1/DTD/svg11.dtd">
<!-- Generated by graphviz version 7.0.3 (0)
 -->
<!-- Title: Urho3D::View Pages: 1 -->
<svg width="907pt" height="1198pt"
 viewBox="0.00 0.00 907.00 1197.72" xmlns="http://www.w3.org/2000/svg" xmlns:xlink="http://www.w3.org/1999/xlink">
<g id="graph0" class="graph" transform="scale(1 1) rotate(0) translate(4 1193.72)">
<title>Urho3D::View</title>
<!-- Node1 -->
<g id="node1" class="node">
<title>Node1</title>
<g id="a_node1"><a xlink:title="Internal structure for 3D rendering work. Created for each backbuffer and texture viewport,...">
<polygon fill="#999999" stroke="#666666" points="671,-568.34 595,-568.34 595,-549.34 671,-549.34 671,-568.34"/>
<text text-anchor="middle" x="633" y="-556.34" font-family="Roboto" font-size="10.00">Urho3D::View</text>
</a>
</g>
</g>
<!-- Node213 -->
<g id="node9" class="node">
<title>Node213</title>
<g id="a_node9"><a xlink:href="class_urho3_d_1_1_weak_ptr.html" target="_top" xlink:title=" ">
<polygon fill="white" stroke="orangered" points="899,-573.84 765,-573.84 765,-543.84 899,-543.84 899,-573.84"/>
<text text-anchor="start" x="773" y="-561.84" font-family="Roboto" font-size="10.00">Urho3D::WeakPtr&lt; Urho3D</text>
<text text-anchor="middle" x="832" y="-550.84" font-family="Roboto" font-size="10.00">::View &gt;</text>
</a>
</g>
</g>
<!-- Node1&#45;&gt;Node213 -->
<g id="edge9" class="edge">
<title>Node1&#45;&gt;Node213</title>
<path fill="none" stroke="#9a32cd" stroke-dasharray="5,2" d="M682.35,-558.84C707.12,-558.84 737.66,-558.84 764.61,-558.84"/>
<polygon fill="#9a32cd" stroke="#9a32cd" points="682.57,-555.34 672.57,-558.84 682.57,-562.34 682.57,-555.34"/>
<text text-anchor="middle" x="718" y="-561.84" font-family="Roboto" font-size="10.00"> ptr_</text>
</g>
<!-- Node2 -->
<g id="node2" class="node">
<title>Node2</title>
<g id="a_node2"><a xlink:href="class_urho3_d_1_1_object.html" target="_top" xlink:title=" ">
<polygon fill="#fff0f0" stroke="red" points="97.5,-1130.34 14.5,-1130.34 14.5,-1111.34 97.5,-1111.34 97.5,-1130.34"/>
<text text-anchor="middle" x="56" y="-1118.34" font-family="Roboto" font-size="10.00">Urho3D::Object</text>
</a>
</g>
</g>
<!-- Node2&#45;&gt;Node1 -->
<g id="edge1" class="edge">
<title>Node2&#45;&gt;Node1</title>
<path fill="none" stroke="#63b8ff" d="M92.19,-1134.75C185.04,-1168.89 438.95,-1245.26 577,-1119.84 619.55,-1081.18 630.33,-640.76 631.81,-568.76"/>
<polygon fill="#63b8ff" stroke="#63b8ff" points="93.7,-1131.58 83.1,-1131.34 91.24,-1138.13 93.7,-1131.58"/>
</g>
<!-- Node214 -->
<g id="node11" class="node">
<title>Node214</title>
<g id="a_node11"><a xlink:href="class_urho3_d_1_1_occlusion_buffer.html" target="_top" xlink:title="Software renderer for occlusion.">
<polygon fill="#fff0f0" stroke="red" points="420.5,-1105.34 295.5,-1105.34 295.5,-1086.34 420.5,-1086.34 420.5,-1105.34"/>
<text text-anchor="middle" x="358" y="-1093.34" font-family="Roboto" font-size="10.00">Urho3D::OcclusionBuffer</text>
</a>
</g>
</g>
<!-- Node2&#45;&gt;Node214 -->
<g id="edge12" class="edge">
<title>Node2&#45;&gt;Node214</title>
<path fill="none" stroke="#63b8ff" d="M109.02,-1116.5C160.8,-1112.19 240.26,-1105.57 295.22,-1100.99"/>
<polygon fill="#63b8ff" stroke="#63b8ff" points="108.95,-1113 99.28,-1117.31 109.54,-1119.97 108.95,-1113"/>
</g>
<!-- Node24 -->
<g id="node3" class="node">
<title>Node24</title>
<g id="a_node3"><a xlink:href="class_urho3_d_1_1_weak_ptr.html" target="_top" xlink:title=" ">
<polygon fill="white" stroke="orangered" points="425,-1067.84 291,-1067.84 291,-1037.84 425,-1037.84 425,-1067.84"/>
<text text-anchor="start" x="299" y="-1055.84" font-family="Roboto" font-size="10.00">Urho3D::WeakPtr&lt; Urho3D</text>
<text text-anchor="middle" x="358" y="-1044.84" font-family="Roboto" font-size="10.00">::Graphics &gt;</text>
</a>
</g>
</g>
<!-- Node24&#45;&gt;Node1 -->
<g id="edge2" class="edge">
<title>Node24&#45;&gt;Node1</title>
<path fill="none" stroke="#9a32cd" stroke-dasharray="5,2" d="M436.81,-1053.03C491.29,-1051.4 557.67,-1045.28 577,-1025.84 610.52,-992.11 628.59,-632.92 631.56,-568.65"/>
<polygon fill="#9a32cd" stroke="#9a32cd" points="436.81,-1049.53 426.9,-1053.28 436.98,-1056.53 436.81,-1049.53"/>
<text text-anchor="middle" x="521" y="-1053.84" font-family="Roboto" font-size="10.00"> graphics_</text>
</g>
<!-- Node80 -->
<g id="node4" class="node">
<title>Node80</title>
<g id="a_node4"><a xlink:href="class_urho3_d_1_1_weak_ptr.html" target="_top" xlink:title=" ">
<polygon fill="white" stroke="orangered" points="425,-1019.84 291,-1019.84 291,-989.84 425,-989.84 425,-1019.84"/>
<text text-anchor="start" x="299" y="-1007.84" font-family="Roboto" font-size="10.00">Urho3D::WeakPtr&lt; Urho3D</text>
<text text-anchor="middle" x="358" y="-996.84" font-family="Roboto" font-size="10.00">::Renderer &gt;</text>
</a>
</g>
</g>
<!-- Node80&#45;&gt;Node1 -->
<g id="edge3" class="edge">
<title>Node80&#45;&gt;Node1</title>
<path fill="none" stroke="#9a32cd" stroke-dasharray="5,2" d="M436.8,-1012.45C483.89,-1012.51 541.5,-1003.73 577,-966.84 633.99,-907.61 632.97,-625.47 632.18,-568.78"/>
<polygon fill="#9a32cd" stroke="#9a32cd" points="436.96,-1008.95 426.9,-1012.29 436.85,-1015.95 436.96,-1008.95"/>
<text text-anchor="middle" x="521" y="-1013.84" font-family="Roboto" font-size="10.00"> renderer_</text>
</g>
<!-- Node111 -->
<g id="node5" class="node">
<title>Node111</title>
<g id="a_node5"><a xlink:href="class_urho3_d_1_1_scene.html" target="_top" xlink:title="Root scene node, represents the whole scene.">
<polygon fill="#fff0f0" stroke="red" points="399,-971.34 317,-971.34 317,-952.34 399,-952.34 399,-971.34"/>
<text text-anchor="middle" x="358" y="-959.34" font-family="Roboto" font-size="10.00">Urho3D::Scene</text>
</a>
</g>
</g>
<!-- Node111&#45;&gt;Node1 -->
<g id="edge4" class="edge">
<title>Node111&#45;&gt;Node1</title>
<path fill="none" stroke="#9a32cd" stroke-dasharray="5,2" d="M410.67,-960.5C461.11,-956.22 536.05,-941.41 577,-892.84 619.99,-841.84 629.98,-618.67 631.7,-568.76"/>
<polygon fill="#9a32cd" stroke="#9a32cd" points="410.59,-956.99 400.87,-961.21 411.1,-963.97 410.59,-956.99"/>
<text text-anchor="middle" x="521" y="-954.84" font-family="Roboto" font-size="10.00"> scene_</text>
</g>
<!-- Node161 -->
<g id="node6" class="node">
<title>Node161</title>
<g id="a_node6"><a xlink:href="class_urho3_d_1_1_octree.html" target="_top" xlink:title="Octree component. Should be added only to the root scene node.">
<polygon fill="#fff0f0" stroke="red" points="399.5,-842.34 316.5,-842.34 316.5,-823.34 399.5,-823.34 399.5,-842.34"/>
<text text-anchor="middle" x="358" y="-830.34" font-family="Roboto" font-size="10.00">Urho3D::Octree</text>
</a>
</g>
</g>
<!-- Node161&#45;&gt;Node1 -->
<g id="edge5" class="edge">
<title>Node161&#45;&gt;Node1</title>
<path fill="none" stroke="#9a32cd" stroke-dasharray="5,2" d="M411.1,-839.29C460.26,-842.3 532.85,-838.27 577,-796.84 611.32,-764.62 627.48,-609.3 631.16,-568.61"/>
<polygon fill="#9a32cd" stroke="#9a32cd" points="411.49,-835.81 401.26,-838.56 410.97,-842.79 411.49,-835.81"/>
<text text-anchor="middle" x="521" y="-840.84" font-family="Roboto" font-size="10.00"> octree_</text>
</g>
<!-- Node160 -->
<g id="node7" class="node">
<title>Node160</title>
<g id="a_node7"><a xlink:href="class_urho3_d_1_1_p_o_d_vector.html" target="_top" xlink:title=" ">
<polygon fill="white" stroke="orangered" points="112,-867.84 0,-867.84 0,-837.84 112,-837.84 112,-867.84"/>
<text text-anchor="start" x="8" y="-855.84" font-family="Roboto" font-size="10.00">Urho3D::PODVector&lt;</text>
<text text-anchor="middle" x="56" y="-844.84" font-family="Roboto" font-size="10.00"> Urho3D::Drawable * &gt;</text>
</a>
</g>
</g>
<!-- Node160&#45;&gt;Node1 -->
<g id="edge27" class="edge">
<title>Node160&#45;&gt;Node1</title>
<path fill="none" stroke="#9a32cd" stroke-dasharray="5,2" d="M123.71,-864.26C125.83,-864.47 127.93,-864.67 130,-864.84 251.4,-874.75 566.85,-861.58 577,-852.84 621.35,-814.62 630.24,-615.61 631.73,-568.74"/>
<polygon fill="#9a32cd" stroke="#9a32cd" points="124.13,-860.78 113.79,-863.08 123.31,-867.73 124.13,-860.78"/>
<text text-anchor="middle" x="358" y="-914.84" font-family="Roboto" font-size="10.00"> geometries_</text>
<text text-anchor="start" x="302.5" y="-903.84" font-family="Roboto" font-size="10.00">nonThreadedGeometries</text>
<text text-anchor="middle" x="358" y="-892.84" font-family="Roboto" font-size="10.00">_</text>
<text text-anchor="middle" x="358" y="-881.84" font-family="Roboto" font-size="10.00">occluders_</text>
<text text-anchor="middle" x="358" y="-870.84" font-family="Roboto" font-size="10.00">threadedGeometries_</text>
</g>
<!-- Node160&#45;&gt;Node161 -->
<g id="edge6" class="edge">
<title>Node160&#45;&gt;Node161</title>
<path fill="none" stroke="#9a32cd" stroke-dasharray="5,2" d="M94.98,-832.67C105.97,-827.81 118.2,-823.31 130,-820.84 194.12,-807.4 270.53,-816.44 316.33,-824.45"/>
<polygon fill="#9a32cd" stroke="#9a32cd" points="93.82,-829.34 86.24,-836.74 96.78,-835.69 93.82,-829.34"/>
<text text-anchor="middle" x="190.5" y="-856.84" font-family="Roboto" font-size="10.00"> drawableUpdates_</text>
<text text-anchor="start" x="130" y="-845.84" font-family="Roboto" font-size="10.00">rayQueryDrawables</text>
<text text-anchor="middle" x="190.5" y="-834.84" font-family="Roboto" font-size="10.00">_</text>
<text text-anchor="middle" x="190.5" y="-823.84" font-family="Roboto" font-size="10.00">threadedDrawableUpdates_</text>
</g>
<!-- Node209 -->
<g id="node8" class="node">
<title>Node209</title>
<g id="a_node8"><a xlink:href="class_urho3_d_1_1_camera.html" target="_top" xlink:title="Camera component.">
<polygon fill="#fff0f0" stroke="red" points="100.5,-804.34 11.5,-804.34 11.5,-785.34 100.5,-785.34 100.5,-804.34"/>
<text text-anchor="middle" x="56" y="-792.34" font-family="Roboto" font-size="10.00">Urho3D::Camera</text>
</a>
</g>
</g>
<!-- Node209&#45;&gt;Node1 -->
<g id="edge7" class="edge">
<title>Node209&#45;&gt;Node1</title>
<path fill="none" stroke="#9a32cd" stroke-dasharray="5,2" d="M112.03,-794.12C238.49,-791.97 541.66,-783.83 577,-754.84 606.92,-730.29 625.9,-604.3 630.76,-568.4"/>
<polygon fill="#9a32cd" stroke="#9a32cd" points="112.18,-790.62 102.23,-794.28 112.29,-797.61 112.18,-790.62"/>
<text text-anchor="middle" x="358" y="-802.84" font-family="Roboto" font-size="10.00"> camera_</text>
<text text-anchor="middle" x="358" y="-791.84" font-family="Roboto" font-size="10.00">cullCamera_</text>
</g>
<!-- Node208 -->
<g id="node16" class="node">
<title>Node208</title>
<g id="a_node16"><a xlink:href="struct_urho3_d_1_1_frame_info.html" target="_top" xlink:title="Rendering frame update parameters.">
<polygon fill="white" stroke="#666666" points="408.5,-746.34 307.5,-746.34 307.5,-727.34 408.5,-727.34 408.5,-746.34"/>
<text text-anchor="middle" x="358" y="-734.34" font-family="Roboto" font-size="10.00">Urho3D::FrameInfo</text>
</a>
</g>
</g>
<!-- Node209&#45;&gt;Node208 -->
<g id="edge22" class="edge">
<title>Node209&#45;&gt;Node208</title>
<path fill="none" stroke="#9a32cd" stroke-dasharray="5,2" d="M106.14,-780.19C108.16,-779.14 110.12,-778.03 112,-776.84 121.83,-770.62 119.54,-762.92 130,-757.84 160.17,-743.18 249.9,-738.72 307.1,-737.39"/>
<polygon fill="#9a32cd" stroke="#9a32cd" points="104.75,-776.98 97.06,-784.28 107.62,-783.36 104.75,-776.98"/>
<text text-anchor="middle" x="190.5" y="-760.84" font-family="Roboto" font-size="10.00"> camera_</text>
</g>
<!-- Node213&#45;&gt;Node1 -->
<g id="edge8" class="edge">
<title>Node213&#45;&gt;Node1</title>
<path fill="none" stroke="#9a32cd" stroke-dasharray="5,2" d="M753.65,-542.99C732.65,-540.63 709.92,-539.86 689,-542.84 680.24,-544.09 670.92,-546.4 662.49,-548.89"/>
<polygon fill="#9a32cd" stroke="#9a32cd" points="752.93,-546.43 763.29,-544.22 753.81,-539.48 752.93,-546.43"/>
<text text-anchor="middle" x="718" y="-545.84" font-family="Roboto" font-size="10.00"> sourceView_</text>
</g>
<!-- Node92 -->
<g id="node10" class="node">
<title>Node92</title>
<g id="a_node10"><a xlink:href="class_urho3_d_1_1_zone.html" target="_top" xlink:title="Component that describes global rendering properties.">
<polygon fill="#fff0f0" stroke="red" points="396.5,-650.34 319.5,-650.34 319.5,-631.34 396.5,-631.34 396.5,-650.34"/>
<text text-anchor="middle" x="358" y="-638.34" font-family="Roboto" font-size="10.00">Urho3D::Zone</text>
</a>
</g>
</g>
<!-- Node92&#45;&gt;Node1 -->
<g id="edge10" class="edge">
<title>Node92&#45;&gt;Node1</title>
<path fill="none" stroke="#9a32cd" stroke-dasharray="5,2" d="M407.72,-627.9C420.53,-624.4 434.31,-620.56 447,-616.84 501.75,-600.8 565.1,-580.57 601.66,-568.73"/>
<polygon fill="#9a32cd" stroke="#9a32cd" points="406.97,-624.48 398.23,-630.47 408.8,-631.23 406.97,-624.48"/>
<text text-anchor="middle" x="521" y="-624.84" font-family="Roboto" font-size="10.00"> cameraZone_</text>
<text text-anchor="middle" x="521" y="-613.84" font-family="Roboto" font-size="10.00">farClipZone_</text>
</g>
<!-- Node214&#45;&gt;Node1 -->
<g id="edge11" class="edge">
<title>Node214&#45;&gt;Node1</title>
<path fill="none" stroke="#9a32cd" stroke-dasharray="5,2" d="M430.93,-1106.64C479.02,-1109.48 540.03,-1103.89 577,-1065.84 613.09,-1028.69 629.16,-635.85 631.65,-568.6"/>
<polygon fill="#9a32cd" stroke="#9a32cd" points="431.37,-1103.16 421.14,-1105.92 430.86,-1110.14 431.37,-1103.16"/>
<text text-anchor="middle" x="521" y="-1109.84" font-family="Roboto" font-size="10.00"> occlusionBuffer_</text>
</g>
<!-- Node68 -->
<g id="node12" class="node">
<title>Node68</title>
<g id="a_node12"><a xlink:href="class_urho3_d_1_1_render_surface.html" target="_top" xlink:title="Color or depth&#45;stencil surface that can be rendered into.">
<polygon fill="#fff0f0" stroke="red" points="418.5,-521.34 297.5,-521.34 297.5,-502.34 418.5,-502.34 418.5,-521.34"/>
<text text-anchor="middle" x="358" y="-509.34" font-family="Roboto" font-size="10.00">Urho3D::RenderSurface</text>
</a>
</g>
</g>
<!-- Node68&#45;&gt;Node1 -->
<g id="edge13" class="edge">
<title>Node68&#45;&gt;Node1</title>
<path fill="none" stroke="#9a32cd" stroke-dasharray="5,2" d="M429.51,-500.7C435.55,-498.77 441.47,-496.5 447,-493.84 456.38,-489.32 455.21,-482.38 465,-478.84 511.8,-461.89 532.95,-455.66 577,-478.84 605.49,-493.82 622.08,-530.98 628.67,-548.88"/>
<polygon fill="#9a32cd" stroke="#9a32cd" points="428.65,-497.31 419.99,-503.42 430.57,-504.04 428.65,-497.31"/>
<text text-anchor="start" x="465" y="-536.84" font-family="Roboto" font-size="10.00"> currentRenderTarget</text>
<text text-anchor="middle" x="521" y="-525.84" font-family="Roboto" font-size="10.00">_</text>
<text text-anchor="start" x="465" y="-514.84" font-family="Roboto" font-size="10.00">lastCustomDepthSurface</text>
<text text-anchor="middle" x="521" y="-503.84" font-family="Roboto" font-size="10.00">_</text>
<text text-anchor="middle" x="521" y="-492.84" font-family="Roboto" font-size="10.00">renderTarget_</text>
<text text-anchor="middle" x="521" y="-481.84" font-family="Roboto" font-size="10.00">substituteRenderTarget_</text>
</g>
<!-- Node61 -->
<g id="node13" class="node">
<title>Node61</title>
<g id="a_node13"><a xlink:href="class_urho3_d_1_1_texture.html" target="_top" xlink:title="Base class for texture resources.">
<polygon fill="#fff0f0" stroke="red" points="99.5,-554.34 12.5,-554.34 12.5,-535.34 99.5,-535.34 99.5,-554.34"/>
<text text-anchor="middle" x="56" y="-542.34" font-family="Roboto" font-size="10.00">Urho3D::Texture</text>
</a>
</g>
</g>
<!-- Node61&#45;&gt;Node1 -->
<g id="edge15" class="edge">
<title>Node61&#45;&gt;Node1</title>
<path fill="none" stroke="#9a32cd" stroke-dasharray="5,2" d="M111.12,-546.16C226.83,-548.97 495.8,-555.52 594.67,-557.93"/>
<polygon fill="#9a32cd" stroke="#9a32cd" points="111.34,-542.66 101.26,-545.92 111.17,-549.66 111.34,-542.66"/>
<text text-anchor="start" x="302.5" y="-600.84" font-family="Roboto" font-size="10.00"> currentViewportTexture</text>
<text text-anchor="middle" x="358" y="-589.84" font-family="Roboto" font-size="10.00">_</text>
<text text-anchor="start" x="302.5" y="-578.84" font-family="Roboto" font-size="10.00">depthOnlyDummyTexture</text>
<text text-anchor="middle" x="358" y="-567.84" font-family="Roboto" font-size="10.00">_</text>
<text text-anchor="middle" x="358" y="-556.84" font-family="Roboto" font-size="10.00">viewportTextures_</text>
</g>
<!-- Node61&#45;&gt;Node68 -->
<g id="edge14" class="edge">
<title>Node61&#45;&gt;Node68</title>
<path fill="none" stroke="#9a32cd" stroke-dasharray="5,2" d="M111.1,-535.51C117.46,-534.54 123.87,-533.62 130,-532.84 186.53,-525.59 251.29,-519.85 297.13,-516.22"/>
<polygon fill="#9a32cd" stroke="#9a32cd" points="110.6,-532.04 101.27,-537.05 111.69,-538.96 110.6,-532.04"/>
<text text-anchor="middle" x="190.5" y="-535.84" font-family="Roboto" font-size="10.00"> parentTexture_</text>
</g>
<!-- Node71 -->
<g id="node14" class="node">
<title>Node71</title>
<g id="a_node14"><a xlink:href="class_urho3_d_1_1_int_rect.html" target="_top" xlink:title="Two&#45;dimensional bounding rectangle with integer values.">
<polygon fill="white" stroke="#666666" points="401,-455.34 315,-455.34 315,-436.34 401,-436.34 401,-455.34"/>
<text text-anchor="middle" x="358" y="-443.34" font-family="Roboto" font-size="10.00">Urho3D::IntRect</text>
</a>
</g>
</g>
<!-- Node71&#45;&gt;Node1 -->
<g id="edge16" class="edge">
<title>Node71&#45;&gt;Node1</title>
<path fill="none" stroke="#9a32cd" stroke-dasharray="5,2" d="M412.72,-440.07C468.32,-435.18 550.65,-431.32 577,-447.84 613.63,-470.8 626.64,-526.13 630.55,-548.85"/>
<polygon fill="#9a32cd" stroke="#9a32cd" points="412.44,-436.58 402.8,-440.98 413.08,-443.55 412.44,-436.58"/>
<text text-anchor="middle" x="521" y="-450.84" font-family="Roboto" font-size="10.00"> viewRect_</text>
</g>
<!-- Node71&#45;&gt;Node71 -->
<g id="edge17" class="edge">
<title>Node71&#45;&gt;Node71</title>
<path fill="none" stroke="#9a32cd" stroke-dasharray="5,2" d="M328.77,-466.44C332.14,-470.47 341.88,-473.34 358,-473.34 386.65,-473.34 395.16,-464.27 383.52,-455.71"/>
<polygon fill="#9a32cd" stroke="#9a32cd" points="332.03,-467.73 331.99,-457.14 325.41,-465.44 332.03,-467.73"/>
<text text-anchor="middle" x="358" y="-476.34" font-family="Roboto" font-size="10.00"> ZERO</text>
</g>
<!-- Node55 -->
<g id="node15" class="node">
<title>Node55</title>
<g id="a_node15"><a xlink:href="class_urho3_d_1_1_int_vector2.html" target="_top" xlink:title="Two&#45;dimensional vector with integer values.">
<polygon fill="white" stroke="#666666" points="106.5,-683.34 5.5,-683.34 5.5,-664.34 106.5,-664.34 106.5,-683.34"/>
<text text-anchor="middle" x="56" y="-671.34" font-family="Roboto" font-size="10.00">Urho3D::IntVector2</text>
</a>
</g>
</g>
<!-- Node55&#45;&gt;Node1 -->
<g id="edge18" class="edge">
<title>Node55&#45;&gt;Node1</title>
<path fill="none" stroke="#9a32cd" stroke-dasharray="5,2" d="M117.99,-676.57C238.59,-680.84 502.34,-684.26 577,-636.84 603.43,-620.05 620.82,-585.53 628.1,-568.62"/>
<polygon fill="#9a32cd" stroke="#9a32cd" points="118.41,-673.08 108.29,-676.21 118.15,-680.07 118.41,-673.08"/>
<text text-anchor="middle" x="358" y="-691.84" font-family="Roboto" font-size="10.00"> rtSize_</text>
<text text-anchor="middle" x="358" y="-680.84" font-family="Roboto" font-size="10.00">viewSize_</text>
</g>
<!-- Node55&#45;&gt;Node55 -->
<g id="edge19" class="edge">
<title>Node55&#45;&gt;Node55</title>
<path fill="none" stroke="#9a32cd" stroke-dasharray="5,2" d="M32.13,-694.77C35.11,-698.63 43.07,-701.34 56,-701.34 79.64,-701.34 86.66,-692.27 77.06,-683.71"/>
<polygon fill="#9a32cd" stroke="#9a32cd" points="35.49,-695.73 34.57,-685.17 28.71,-694 35.49,-695.73"/>
<text text-anchor="middle" x="56" y="-759.34" font-family="Roboto" font-size="10.00"> DOWN</text>
<text text-anchor="middle" x="56" y="-748.34" font-family="Roboto" font-size="10.00">LEFT</text>
<text text-anchor="middle" x="56" y="-737.34" font-family="Roboto" font-size="10.00">ONE</text>
<text text-anchor="middle" x="56" y="-726.34" font-family="Roboto" font-size="10.00">RIGHT</text>
<text text-anchor="middle" x="56" y="-715.34" font-family="Roboto" font-size="10.00">UP</text>
<text text-anchor="middle" x="56" y="-704.34" font-family="Roboto" font-size="10.00">ZERO</text>
</g>
<!-- Node55&#45;&gt;Node208 -->
<g id="edge21" class="edge">
<title>Node55&#45;&gt;Node208</title>
<path fill="none" stroke="#9a32cd" stroke-dasharray="5,2" d="M93.33,-687.59C104.93,-691.63 117.9,-695.77 130,-698.84 190.24,-714.08 261.05,-724.83 307.36,-730.92"/>
<polygon fill="#9a32cd" stroke="#9a32cd" points="94.72,-684.37 84.13,-684.3 92.37,-690.96 94.72,-684.37"/>
<text text-anchor="middle" x="190.5" y="-724.84" font-family="Roboto" font-size="10.00"> viewSize_</text>
</g>
<!-- Node208&#45;&gt;Node1 -->
<g id="edge20" class="edge">
<title>Node208&#45;&gt;Node1</title>
<path fill="none" stroke="#9a32cd" stroke-dasharray="5,2" d="M420.22,-742.16C467.95,-742.98 533.27,-736.38 577,-700.84 619.47,-666.32 629.22,-594.78 631.39,-568.66"/>
<polygon fill="#9a32cd" stroke="#9a32cd" points="420.4,-738.66 410.3,-741.86 420.19,-745.66 420.4,-738.66"/>
<text text-anchor="middle" x="521" y="-742.84" font-family="Roboto" font-size="10.00"> frame_</text>
</g>
<!-- Node83 -->
<g id="node17" class="node">
<title>Node83</title>
<g id="a_node17"><a xlink:href="class_urho3_d_1_1_render_path.html" target="_top" xlink:title="Rendering path definition. A sequence of commands (e.g. clear screen, draw objects with specific pass...">
<polygon fill="#fff0f0" stroke="red" points="411,-418.34 305,-418.34 305,-399.34 411,-399.34 411,-418.34"/>
<text text-anchor="middle" x="358" y="-406.34" font-family="Roboto" font-size="10.00">Urho3D::RenderPath</text>
</a>
</g>
</g>
<!-- Node83&#45;&gt;Node1 -->
<g id="edge23" class="edge">
<title>Node83&#45;&gt;Node1</title>
<path fill="none" stroke="#9a32cd" stroke-dasharray="5,2" d="M411.99,-396.92C459.67,-389.37 529.37,-386.6 577,-420.84 620.35,-452 629.55,-522.99 631.49,-549.03"/>
<polygon fill="#9a32cd" stroke="#9a32cd" points="411.42,-393.46 402.15,-398.61 412.6,-400.36 411.42,-393.46"/>
<text text-anchor="middle" x="521" y="-423.84" font-family="Roboto" font-size="10.00"> renderPath_</text>
</g>
<!-- Node218 -->
<g id="node18" class="node">
<title>Node218</title>
<g id="a_node18"><a xlink:href="class_urho3_d_1_1_vector.html" target="_top" xlink:title=" ">
<polygon fill="white" stroke="orangered" points="447,-380.84 269,-380.84 269,-350.84 447,-350.84 447,-380.84"/>
<text text-anchor="start" x="277" y="-368.84" font-family="Roboto" font-size="10.00">Urho3D::Vector&lt; Urho3D</text>
<text text-anchor="middle" x="358" y="-357.84" font-family="Roboto" font-size="10.00">::PODVector&lt; Urho3D::Drawable * &gt; &gt;</text>
</a>
</g>
</g>
<!-- Node218&#45;&gt;Node1 -->
<g id="edge24" class="edge">
<title>Node218&#45;&gt;Node1</title>
<path fill="none" stroke="#9a32cd" stroke-dasharray="5,2" d="M438.71,-348.99C483.78,-344.17 538.62,-346.81 577,-376.84 632.64,-420.36 633.69,-518.3 632.54,-549.26"/>
<polygon fill="#9a32cd" stroke="#9a32cd" points="438.49,-345.49 428.98,-350.18 439.33,-352.44 438.49,-345.49"/>
<text text-anchor="middle" x="521" y="-379.84" font-family="Roboto" font-size="10.00"> tempDrawables_</text>
</g>
<!-- Node219 -->
<g id="node19" class="node">
<title>Node219</title>
<g id="a_node19"><a xlink:href="class_urho3_d_1_1_vector.html" target="_top" xlink:title=" ">
<polygon fill="white" stroke="orangered" points="422,-332.84 294,-332.84 294,-302.84 422,-302.84 422,-332.84"/>
<text text-anchor="start" x="302" y="-320.84" font-family="Roboto" font-size="10.00">Urho3D::Vector&lt; Urho3D</text>
<text text-anchor="middle" x="358" y="-309.84" font-family="Roboto" font-size="10.00">::PerThreadSceneResult &gt;</text>
</a>
</g>
</g>
<!-- Node219&#45;&gt;Node1 -->
<g id="edge25" class="edge">
<title>Node219&#45;&gt;Node1</title>
<path fill="none" stroke="#9a32cd" stroke-dasharray="5,2" d="M433.4,-302.13C479.82,-296.84 537.96,-299.05 577,-331.84 611.31,-360.66 627.37,-508.89 631.12,-548.88"/>
<polygon fill="#9a32cd" stroke="#9a32cd" points="433.14,-298.63 423.67,-303.38 434.03,-305.57 433.14,-298.63"/>
<text text-anchor="middle" x="521" y="-334.84" font-family="Roboto" font-size="10.00"> sceneResults_</text>
</g>
<!-- Node220 -->
<g id="node20" class="node">
<title>Node220</title>
<g id="a_node20"><a xlink:href="class_urho3_d_1_1_p_o_d_vector.html" target="_top" xlink:title=" ">
<polygon fill="white" stroke="orangered" points="412.5,-284.84 303.5,-284.84 303.5,-254.84 412.5,-254.84 412.5,-284.84"/>
<text text-anchor="start" x="311.5" y="-272.84" font-family="Roboto" font-size="10.00">Urho3D::PODVector&lt;</text>
<text text-anchor="middle" x="358" y="-261.84" font-family="Roboto" font-size="10.00"> Urho3D::Zone * &gt;</text>
</a>
</g>
</g>
<!-- Node220&#45;&gt;Node1 -->
<g id="edge26" class="edge">
<title>Node220&#45;&gt;Node1</title>
<path fill="none" stroke="#9a32cd" stroke-dasharray="5,2" d="M424.14,-255.23C472.15,-248.55 535.97,-248.8 577,-284.84 617.92,-320.78 629.37,-504.4 631.57,-549.05"/>
<polygon fill="#9a32cd" stroke="#9a32cd" points="423.77,-251.75 414.42,-256.73 424.83,-258.67 423.77,-251.75"/>
<text text-anchor="middle" x="521" y="-287.84" font-family="Roboto" font-size="10.00"> zones_</text>
</g>
<!-- Node178 -->
<g id="node21" class="node">
<title>Node178</title>
<g id="a_node21"><a xlink:href="class_urho3_d_1_1_p_o_d_vector.html" target="_top" xlink:title=" ">
<polygon fill="white" stroke="orangered" points="412.5,-236.84 303.5,-236.84 303.5,-206.84 412.5,-206.84 412.5,-236.84"/>
<text text-anchor="start" x="311.5" y="-224.84" font-family="Roboto" font-size="10.00">Urho3D::PODVector&lt;</text>
<text text-anchor="middle" x="358" y="-213.84" font-family="Roboto" font-size="10.00"> Urho3D::Light * &gt;</text>
</a>
</g>
</g>
<!-- Node178&#45;&gt;Node1 -->
<g id="edge28" class="edge">
<title>Node178&#45;&gt;Node1</title>
<path fill="none" stroke="#9a32cd" stroke-dasharray="5,2" d="M423.98,-206.96C472.19,-200.03 536.36,-200.09 577,-236.84 624.74,-280.01 631.06,-499.8 631.88,-549.04"/>
<polygon fill="#9a32cd" stroke="#9a32cd" points="423.53,-203.49 414.21,-208.51 424.63,-210.4 423.53,-203.49"/>
<text text-anchor="middle" x="521" y="-239.84" font-family="Roboto" font-size="10.00"> lights_</text>
</g>
<!-- Node221 -->
<g id="node22" class="node">
<title>Node221</title>
<g id="a_node22"><a xlink:href="class_urho3_d_1_1_hash_set.html" target="_top" xlink:title=" ">
<polygon fill="white" stroke="orangered" points="425,-188.84 291,-188.84 291,-158.84 425,-158.84 425,-188.84"/>
<text text-anchor="start" x="299" y="-176.84" font-family="Roboto" font-size="10.00">Urho3D::HashSet&lt; Urho3D</text>
<text text-anchor="middle" x="358" y="-165.84" font-family="Roboto" font-size="10.00">::Drawable * &gt;</text>
</a>
</g>
</g>
<!-- Node221&#45;&gt;Node1 -->
<g id="edge29" class="edge">
<title>Node221&#45;&gt;Node1</title>
<path fill="none" stroke="#9a32cd" stroke-dasharray="5,2" d="M435.39,-156.84C482.07,-151.22 539.75,-153.56 577,-187.84 631.86,-238.32 632.58,-495.36 632.12,-549.01"/>
<polygon fill="#9a32cd" stroke="#9a32cd" points="435.03,-153.35 425.59,-158.17 435.97,-160.29 435.03,-153.35"/>
<text text-anchor="middle" x="521" y="-190.84" font-family="Roboto" font-size="10.00"> maxLightsDrawables_</text>
</g>
<!-- Node222 -->
<g id="node23" class="node">
<title>Node222</title>
<g id="a_node23"><a xlink:href="class_urho3_d_1_1_hash_map.html" target="_top" xlink:title=" ">
<polygon fill="white" stroke="orangered" points="427.5,-140.34 288.5,-140.34 288.5,-99.34 427.5,-99.34 427.5,-140.34"/>
<text text-anchor="start" x="296.5" y="-128.34" font-family="Roboto" font-size="10.00">Urho3D::HashMap&lt; Urho3D</text>
<text text-anchor="start" x="296.5" y="-117.34" font-family="Roboto" font-size="10.00">::StringHash, Urho3D::</text>
<text text-anchor="middle" x="358" y="-106.34" font-family="Roboto" font-size="10.00">Texture * &gt;</text>
</a>
</g>
</g>
<!-- Node222&#45;&gt;Node1 -->
<g id="edge30" class="edge">
<title>Node222&#45;&gt;Node1</title>
<path fill="none" stroke="#9a32cd" stroke-dasharray="5,2" d="M439,-104.34C485.25,-100.28 541.2,-104.55 577,-138.84 638.21,-197.46 633.78,-491.01 632.29,-548.91"/>
<polygon fill="#9a32cd" stroke="#9a32cd" points="438.87,-100.83 429.28,-105.34 439.59,-107.79 438.87,-100.83"/>
<text text-anchor="middle" x="521" y="-141.84" font-family="Roboto" font-size="10.00"> renderTargets_</text>
</g>
<!-- Node223 -->
<g id="node24" class="node">
<title>Node223</title>
<g id="a_node24"><a xlink:href="class_urho3_d_1_1_vector.html" target="_top" xlink:title=" ">
<polygon fill="white" stroke="orangered" points="420.5,-80.84 295.5,-80.84 295.5,-50.84 420.5,-50.84 420.5,-80.84"/>
<text text-anchor="start" x="303.5" y="-68.84" font-family="Roboto" font-size="10.00">Urho3D::Vector&lt; Urho3D</text>
<text text-anchor="middle" x="358" y="-57.84" font-family="Roboto" font-size="10.00">::LightQueryResult &gt;</text>
</a>
</g>
</g>
<!-- Node223&#45;&gt;Node1 -->
<g id="edge31" class="edge">
<title>Node223&#45;&gt;Node1</title>
<path fill="none" stroke="#9a32cd" stroke-dasharray="5,2" d="M431.95,-52.03C479.62,-47.52 539.73,-51.15 577,-87.84 611.17,-121.48 628.7,-484.05 631.58,-548.93"/>
<polygon fill="#9a32cd" stroke="#9a32cd" points="431.81,-48.52 422.25,-53.09 432.57,-55.48 431.81,-48.52"/>
<text text-anchor="middle" x="521" y="-90.84" font-family="Roboto" font-size="10.00"> lightQueryResults_</text>
</g>
<!-- Node224 -->
<g id="node25" class="node">
<title>Node224</title>
<g id="a_node25"><a xlink:href="class_urho3_d_1_1_p_o_d_vector.html" target="_top" xlink:title=" ">
<polygon fill="white" stroke="orangered" points="423.5,-32.84 292.5,-32.84 292.5,-2.84 423.5,-2.84 423.5,-32.84"/>
<text text-anchor="start" x="300.5" y="-20.84" font-family="Roboto" font-size="10.00">Urho3D::PODVector&lt;</text>
<text text-anchor="middle" x="358" y="-9.84" font-family="Roboto" font-size="10.00"> Urho3D::ScenePassInfo &gt;</text>
</a>
</g>
</g>
<!-- Node224&#45;&gt;Node1 -->
<g id="edge32" class="edge">
<title>Node224&#45;&gt;Node1</title>
<path fill="none" stroke="#9a32cd" stroke-dasharray="5,2" d="M435.36,-1.99C482.43,3.01 540.57,-0.21 577,-35.84 615.27,-73.26 629.58,-480.96 631.71,-549.18"/>
<polygon fill="#9a32cd" stroke="#9a32cd" points="434.96,1.49 425.46,-3.19 435.81,-5.46 434.96,1.49"/>
<text text-anchor="middle" x="521" y="-38.84" font-family="Roboto" font-size="10.00"> scenePasses_</text>
</g>
</g>
</svg>
