<?xml version="1.0" encoding="UTF-8" standalone="no"?>
<!DOCTYPE svg PUBLIC "-//W3C//DTD SVG 1.1//EN"
 "http://www.w3.org/Graphics/SVG/1.1/DTD/svg11.dtd">
<!-- Generated by graphviz version 7.0.3 (0)
 -->
<!-- Title: Urho3D::UIElement::SetSize Pages: 1 -->
<svg width="687pt" height="630pt"
 viewBox="0.00 0.00 687.00 629.50" xmlns="http://www.w3.org/2000/svg" xmlns:xlink="http://www.w3.org/1999/xlink">
<g id="graph0" class="graph" transform="scale(1 1) rotate(0) translate(4 625.5)">
<title>Urho3D::UIElement::SetSize</title>
<!-- Node1 -->
<g id="node1" class="node">
<title>Node1</title>
<g id="a_node1"><a xlink:title=" ">
<polygon fill="#999999" stroke="#666666" points="679,-276 574,-276 574,-246 679,-246 679,-276"/>
<text text-anchor="start" x="582" y="-264" font-family="Roboto" font-size="10.00">Urho3D::UIElement::</text>
<text text-anchor="middle" x="626.5" y="-253" font-family="Roboto" font-size="10.00">SetSize</text>
</a>
</g>
</g>
<!-- Node2 -->
<g id="node2" class="node">
<title>Node2</title>
<g id="a_node2"><a xlink:href="class_urho3_d_1_1_input.html#ac0a172bd8f0568c96db9ceb0b46ed0e5" target="_top" xlink:title="Handle screen mode event.">
<polygon fill="white" stroke="#666666" points="538,-591.5 369,-591.5 369,-572.5 538,-572.5 538,-591.5"/>
<text text-anchor="middle" x="453.5" y="-579.5" font-family="Roboto" font-size="10.00">Urho3D::Input::HandleScreenMode</text>
</a>
</g>
</g>
<!-- Node1&#45;&gt;Node2 -->
<g id="edge1" class="edge">
<title>Node1&#45;&gt;Node2</title>
<path fill="none" stroke="#63b8ff" d="M623.39,-287.87C617.97,-340.76 599.32,-459.73 538,-535 523.82,-552.41 501.37,-564.53 483.32,-572.1"/>
<polygon fill="#63b8ff" stroke="#63b8ff" points="626.87,-288.28 624.31,-277.99 619.9,-287.62 626.87,-288.28"/>
</g>
<!-- Node4 -->
<g id="node4" class="node">
<title>Node4</title>
<g id="a_node4"><a xlink:href="class_urho3_d_1_1_window.html#aedff495d092ea1a241c08fe9f9c05397" target="_top" xlink:title="React to mouse drag cancel.">
<polygon fill="white" stroke="#666666" points="532.5,-525.5 374.5,-525.5 374.5,-506.5 532.5,-506.5 532.5,-525.5"/>
<text text-anchor="middle" x="453.5" y="-513.5" font-family="Roboto" font-size="10.00">Urho3D::Window::OnDragCancel</text>
</a>
</g>
</g>
<!-- Node1&#45;&gt;Node4 -->
<g id="edge3" class="edge">
<title>Node1&#45;&gt;Node4</title>
<path fill="none" stroke="#63b8ff" d="M623.64,-287.7C618.72,-336.87 601.01,-441.77 538,-497 533.86,-500.63 529.18,-503.6 524.19,-506.04"/>
<polygon fill="#63b8ff" stroke="#63b8ff" points="627.1,-288.24 624.5,-277.97 620.13,-287.62 627.1,-288.24"/>
</g>
<!-- Node5 -->
<g id="node5" class="node">
<title>Node5</title>
<g id="a_node5"><a xlink:href="class_urho3_d_1_1_sprite.html#aedada728de8e83b44472e1dd798a1b0d" target="_top" xlink:title=" ">
<polygon fill="white" stroke="#666666" points="514,-488 393,-488 393,-458 514,-458 514,-488"/>
<text text-anchor="start" x="401" y="-476" font-family="Roboto" font-size="10.00">Urho3D::Sprite::Register</text>
<text text-anchor="middle" x="453.5" y="-465" font-family="Roboto" font-size="10.00">Object</text>
</a>
</g>
</g>
<!-- Node1&#45;&gt;Node5 -->
<g id="edge4" class="edge">
<title>Node1&#45;&gt;Node5</title>
<path fill="none" stroke="#63b8ff" d="M620.49,-287.39C611.38,-328.12 588.19,-406.07 538,-449 531.12,-454.88 522.88,-459.33 514.29,-462.68"/>
<polygon fill="#63b8ff" stroke="#63b8ff" points="623.89,-288.24 622.53,-277.74 617.04,-286.8 623.89,-288.24"/>
</g>
<!-- Node6 -->
<g id="node6" class="node">
<title>Node6</title>
<g id="a_node6"><a xlink:href="class_urho3_d_1_1_u_i_element.html#aa6fad1d07806bb3035f0759984b2afc1" target="_top" xlink:title=" ">
<polygon fill="white" stroke="#666666" points="313,-440 208,-440 208,-410 313,-410 313,-440"/>
<text text-anchor="start" x="216" y="-428" font-family="Roboto" font-size="10.00">Urho3D::UIElement::</text>
<text text-anchor="middle" x="260.5" y="-417" font-family="Roboto" font-size="10.00">RegisterObject</text>
</a>
</g>
</g>
<!-- Node1&#45;&gt;Node6 -->
<g id="edge5" class="edge">
<title>Node1&#45;&gt;Node6</title>
<path fill="none" stroke="#63b8ff" d="M609.08,-285.4C593.33,-306.9 567.61,-337.47 538,-355 518.67,-366.45 387.76,-396.85 313.21,-413.57"/>
<polygon fill="#63b8ff" stroke="#63b8ff" points="611.77,-287.64 614.71,-277.46 606.07,-283.59 611.77,-287.64"/>
</g>
<!-- Node7 -->
<g id="node7" class="node">
<title>Node7</title>
<g id="a_node7"><a xlink:href="class_urho3_d_1_1_u_i_element.html#aff1d72eee016e597db40e9ea18755517" target="_top" xlink:title="Set fixed size.">
<polygon fill="white" stroke="#666666" points="506,-298 401,-298 401,-268 506,-268 506,-298"/>
<text text-anchor="start" x="409" y="-286" font-family="Roboto" font-size="10.00">Urho3D::UIElement::</text>
<text text-anchor="middle" x="453.5" y="-275" font-family="Roboto" font-size="10.00">SetFixedSize</text>
</a>
</g>
</g>
<!-- Node1&#45;&gt;Node7 -->
<g id="edge6" class="edge">
<title>Node1&#45;&gt;Node7</title>
<path fill="none" stroke="#63b8ff" d="M562.47,-269.11C544.02,-271.48 524.06,-274.05 506.39,-276.32"/>
<polygon fill="#63b8ff" stroke="#63b8ff" points="562.76,-272.6 572.23,-267.85 561.86,-265.66 562.76,-272.6"/>
</g>
<!-- Node9 -->
<g id="node9" class="node">
<title>Node9</title>
<g id="a_node9"><a xlink:href="class_urho3_d_1_1_u_i_element.html#a96b226ae18928769cce09d7025dbe133" target="_top" xlink:title=" ">
<polygon fill="white" stroke="#666666" points="506,-212 401,-212 401,-182 506,-182 506,-212"/>
<text text-anchor="start" x="409" y="-200" font-family="Roboto" font-size="10.00">Urho3D::UIElement::</text>
<text text-anchor="middle" x="453.5" y="-189" font-family="Roboto" font-size="10.00">SetHeight</text>
</a>
</g>
</g>
<!-- Node1&#45;&gt;Node9 -->
<g id="edge8" class="edge">
<title>Node1&#45;&gt;Node9</title>
<path fill="none" stroke="#63b8ff" d="M577.69,-241.41C564.85,-236.28 550.93,-230.83 538,-226 525.78,-221.44 512.47,-216.71 500.14,-212.42"/>
<polygon fill="#63b8ff" stroke="#63b8ff" points="576.19,-244.58 586.77,-245.07 578.8,-238.09 576.19,-244.58"/>
</g>
<!-- Node40 -->
<g id="node12" class="node">
<title>Node40</title>
<g id="a_node12"><a xlink:href="class_urho3_d_1_1_u_i_element.html#a660f383fa229f3b564390131e49934d1" target="_top" xlink:title=" ">
<polygon fill="white" stroke="#666666" points="506,-440 401,-440 401,-410 506,-410 506,-440"/>
<text text-anchor="start" x="409" y="-428" font-family="Roboto" font-size="10.00">Urho3D::UIElement::</text>
<text text-anchor="middle" x="453.5" y="-417" font-family="Roboto" font-size="10.00">SetMaxSize</text>
</a>
</g>
</g>
<!-- Node1&#45;&gt;Node40 -->
<g id="edge12" class="edge">
<title>Node1&#45;&gt;Node40</title>
<path fill="none" stroke="#63b8ff" d="M614.06,-286.52C599.94,-315.42 573.38,-362.24 538,-391 528.65,-398.6 517.37,-404.71 506.16,-409.53"/>
<polygon fill="#63b8ff" stroke="#63b8ff" points="617.09,-288.29 618.21,-277.76 610.76,-285.3 617.09,-288.29"/>
</g>
<!-- Node49 -->
<g id="node16" class="node">
<title>Node49</title>
<g id="a_node16"><a xlink:href="class_urho3_d_1_1_u_i_element.html#aee217206040fc3c780ba9f42056dd219" target="_top" xlink:title=" ">
<polygon fill="white" stroke="#666666" points="506,-346 401,-346 401,-316 506,-316 506,-346"/>
<text text-anchor="start" x="409" y="-334" font-family="Roboto" font-size="10.00">Urho3D::UIElement::</text>
<text text-anchor="middle" x="453.5" y="-323" font-family="Roboto" font-size="10.00">SetMinSize</text>
</a>
</g>
</g>
<!-- Node1&#45;&gt;Node49 -->
<g id="edge17" class="edge">
<title>Node1&#45;&gt;Node49</title>
<path fill="none" stroke="#63b8ff" d="M589.99,-281.78C574.39,-290.35 555.64,-299.92 538,-307 527.92,-311.05 516.91,-314.72 506.28,-317.9"/>
<polygon fill="#63b8ff" stroke="#63b8ff" points="591.4,-285 598.42,-277.07 587.99,-278.89 591.4,-285"/>
</g>
<!-- Node55 -->
<g id="node20" class="node">
<title>Node55</title>
<g id="a_node20"><a xlink:href="class_urho3_d_1_1_cursor.html#a132e53f70b2e45f29a5ead1e5db84bbd" target="_top" xlink:title=" ">
<polygon fill="#fff0f0" stroke="red" points="519,-163.5 388,-163.5 388,-144.5 519,-144.5 519,-163.5"/>
<text text-anchor="middle" x="453.5" y="-151.5" font-family="Roboto" font-size="10.00">Urho3D::Cursor::SetShape</text>
</a>
</g>
</g>
<!-- Node1&#45;&gt;Node55 -->
<g id="edge22" class="edge">
<title>Node1&#45;&gt;Node55</title>
<path fill="none" stroke="#63b8ff" d="M607.8,-236.72C591.81,-216.58 566.47,-188.78 538,-173 531.37,-169.33 524.06,-166.36 516.62,-163.97"/>
<polygon fill="#63b8ff" stroke="#63b8ff" points="604.87,-238.65 613.74,-244.43 610.41,-234.38 604.87,-238.65"/>
</g>
<!-- Node70 -->
<g id="node22" class="node">
<title>Node70</title>
<g id="a_node22"><a xlink:href="class_urho3_d_1_1_u_i_element.html#afbee9a73b9a68e706e1a63e0b910b24c" target="_top" xlink:title="Set size.">
<polygon fill="white" stroke="#666666" points="506,-126 401,-126 401,-96 506,-96 506,-126"/>
<text text-anchor="start" x="409" y="-114" font-family="Roboto" font-size="10.00">Urho3D::UIElement::</text>
<text text-anchor="middle" x="453.5" y="-103" font-family="Roboto" font-size="10.00">SetSize</text>
</a>
</g>
</g>
<!-- Node1&#45;&gt;Node70 -->
<g id="edge24" class="edge">
<title>Node1&#45;&gt;Node70</title>
<path fill="none" stroke="#63b8ff" d="M614.2,-235.22C600.32,-206.55 574.12,-160.89 538,-135 528.68,-128.32 517.54,-123.49 506.47,-120.01"/>
<polygon fill="#63b8ff" stroke="#63b8ff" points="611.02,-236.7 618.42,-244.28 617.37,-233.74 611.02,-236.7"/>
</g>
<!-- Node71 -->
<g id="node23" class="node">
<title>Node71</title>
<g id="a_node23"><a xlink:href="class_urho3_d_1_1_u_i_element.html#a9b41d8ab02a737060859ee63d2155391" target="_top" xlink:title=" ">
<polygon fill="#fff0f0" stroke="red" points="313,-200 208,-200 208,-170 313,-170 313,-200"/>
<text text-anchor="start" x="216" y="-188" font-family="Roboto" font-size="10.00">Urho3D::UIElement::</text>
<text text-anchor="middle" x="260.5" y="-177" font-family="Roboto" font-size="10.00">SetWidth</text>
</a>
</g>
</g>
<!-- Node1&#45;&gt;Node71 -->
<g id="edge25" class="edge">
<title>Node1&#45;&gt;Node71</title>
<path fill="none" stroke="#63b8ff" d="M562.79,-254.21C510.5,-247.84 434.27,-236.9 369,-221 368.17,-220.8 336.32,-210.13 307.51,-200.45"/>
<polygon fill="#63b8ff" stroke="#63b8ff" points="562.05,-257.65 572.4,-255.36 562.88,-250.7 562.05,-257.65"/>
</g>
<!-- Node73 -->
<g id="node24" class="node">
<title>Node73</title>
<g id="a_node24"><a xlink:href="class_urho3_d_1_1_u_i_element.html#a4a5e995e122f9caafc20a8fd5ccc92bc" target="_top" xlink:title="Update anchored size &amp; position. Only called when anchoring is enabled.">
<polygon fill="#fff0f0" stroke="red" points="506,-78 401,-78 401,-48 506,-48 506,-78"/>
<text text-anchor="start" x="409" y="-66" font-family="Roboto" font-size="10.00">Urho3D::UIElement::</text>
<text text-anchor="middle" x="453.5" y="-55" font-family="Roboto" font-size="10.00">UpdateAnchoring</text>
</a>
</g>
</g>
<!-- Node1&#45;&gt;Node73 -->
<g id="edge27" class="edge">
<title>Node1&#45;&gt;Node73</title>
<path fill="none" stroke="#63b8ff" d="M619.47,-234.88C609.29,-196.71 585.06,-126.02 538,-87 528.94,-79.49 517.65,-74.33 506.33,-70.78"/>
<polygon fill="#63b8ff" stroke="#63b8ff" points="615.96,-235.31 621.81,-244.14 622.75,-233.59 615.96,-235.31"/>
</g>
<!-- Node88 -->
<g id="node25" class="node">
<title>Node88</title>
<g id="a_node25"><a xlink:href="class_urho3_d_1_1_u_i_element.html#a7cba78373c23a734a1ccd2d4a27d8cb0" target="_top" xlink:title="Manually update layout. Should not be necessary in most cases, but is provided for completeness.">
<polygon fill="#fff0f0" stroke="red" points="506,-30 401,-30 401,0 506,0 506,-30"/>
<text text-anchor="start" x="409" y="-18" font-family="Roboto" font-size="10.00">Urho3D::UIElement::</text>
<text text-anchor="middle" x="453.5" y="-7" font-family="Roboto" font-size="10.00">UpdateLayout</text>
</a>
</g>
</g>
<!-- Node1&#45;&gt;Node88 -->
<g id="edge28" class="edge">
<title>Node1&#45;&gt;Node88</title>
<path fill="none" stroke="#63b8ff" d="M623.23,-234.13C617.45,-185.67 598.07,-84.59 538,-30 529.18,-21.99 517.85,-16.63 506.41,-13.33"/>
<polygon fill="#63b8ff" stroke="#63b8ff" points="619.75,-234.45 624.29,-244.02 626.71,-233.7 619.75,-234.45"/>
</g>
<!-- Node3 -->
<g id="node3" class="node">
<title>Node3</title>
<g id="a_node3"><a xlink:href="class_urho3_d_1_1_input.html#a48199becd3824e420e4bce2ed6a03c12" target="_top" xlink:title="Construct.">
<polygon fill="white" stroke="#666666" points="312,-621.5 209,-621.5 209,-602.5 312,-602.5 312,-621.5"/>
<text text-anchor="middle" x="260.5" y="-609.5" font-family="Roboto" font-size="10.00">Urho3D::Input::Input</text>
</a>
</g>
</g>
<!-- Node2&#45;&gt;Node3 -->
<g id="edge2" class="edge">
<title>Node2&#45;&gt;Node3</title>
<path fill="none" stroke="#63b8ff" d="M377.64,-593.76C355.81,-597.19 332.46,-600.85 312.46,-604"/>
<polygon fill="#63b8ff" stroke="#63b8ff" points="378.07,-597.23 387.4,-592.22 376.98,-590.32 378.07,-597.23"/>
</g>
<!-- Node8 -->
<g id="node8" class="node">
<title>Node8</title>
<g id="a_node8"><a xlink:href="class_urho3_d_1_1_u_i_element.html#af91ec26d76c71c26f98f142f4a6ef185" target="_top" xlink:title="Set fixed size.">
<polygon fill="white" stroke="#666666" points="313,-248 208,-248 208,-218 313,-218 313,-248"/>
<text text-anchor="start" x="216" y="-236" font-family="Roboto" font-size="10.00">Urho3D::UIElement::</text>
<text text-anchor="middle" x="260.5" y="-225" font-family="Roboto" font-size="10.00">SetFixedSize</text>
</a>
</g>
</g>
<!-- Node7&#45;&gt;Node8 -->
<g id="edge7" class="edge">
<title>Node7&#45;&gt;Node8</title>
<path fill="none" stroke="#63b8ff" d="M389.49,-266.51C364.83,-260.05 336.9,-252.74 313.43,-246.59"/>
<polygon fill="#63b8ff" stroke="#63b8ff" points="388.54,-269.87 399.1,-269.02 390.31,-263.1 388.54,-269.87"/>
</g>
<!-- Node10 -->
<g id="node10" class="node">
<title>Node10</title>
<g id="a_node10"><a xlink:href="class_urho3_d_1_1_window.html#a6b1bc0d6b435cc9fea0c0ed1fda015f3" target="_top" xlink:title="React to mouse drag motion.">
<polygon fill="white" stroke="#666666" points="152,-146.5 0,-146.5 0,-127.5 152,-127.5 152,-146.5"/>
<text text-anchor="middle" x="76" y="-134.5" font-family="Roboto" font-size="10.00">Urho3D::Window::OnDragMove</text>
</a>
</g>
</g>
<!-- Node9&#45;&gt;Node10 -->
<g id="edge9" class="edge">
<title>Node9&#45;&gt;Node10</title>
<path fill="none" stroke="#63b8ff" d="M389.93,-184.73C382.45,-181.66 375.26,-177.81 369,-173 344.34,-154.05 360.06,-128.32 333,-113 256.28,-69.56 145.57,-107.43 98.98,-127.01"/>
<polygon fill="#63b8ff" stroke="#63b8ff" points="388.61,-187.98 399.2,-188.07 390.98,-181.39 388.61,-187.98"/>
</g>
<!-- Node11 -->
<g id="node11" class="node">
<title>Node11</title>
<g id="a_node11"><a xlink:href="class_urho3_d_1_1_u_i_element.html#a4396e1c9eb02df3a4f5438900c704f76" target="_top" xlink:title="Set fixed height.">
<polygon fill="#fff0f0" stroke="red" points="313,-152 208,-152 208,-122 313,-122 313,-152"/>
<text text-anchor="start" x="216" y="-140" font-family="Roboto" font-size="10.00">Urho3D::UIElement::</text>
<text text-anchor="middle" x="260.5" y="-129" font-family="Roboto" font-size="10.00">SetFixedHeight</text>
</a>
</g>
</g>
<!-- Node9&#45;&gt;Node11 -->
<g id="edge10" class="edge">
<title>Node9&#45;&gt;Node11</title>
<path fill="none" stroke="#63b8ff" d="M389.76,-179.29C382.75,-177.21 375.71,-175.09 369,-173 365.78,-172 335.22,-161.76 307.5,-152.46"/>
<polygon fill="#63b8ff" stroke="#63b8ff" points="388.69,-182.62 399.27,-182.07 390.66,-175.9 388.69,-182.62"/>
</g>
<!-- Node11&#45;&gt;Node10 -->
<g id="edge11" class="edge">
<title>Node11&#45;&gt;Node10</title>
<path fill="none" stroke="#63b8ff" d="M196.54,-137C182.33,-137 167.11,-137 152.44,-137"/>
<polygon fill="#63b8ff" stroke="#63b8ff" points="196.18,-140.5 206.18,-137 196.18,-133.5 196.18,-140.5"/>
</g>
<!-- Node40&#45;&gt;Node6 -->
<g id="edge13" class="edge">
<title>Node40&#45;&gt;Node6</title>
<path fill="none" stroke="#63b8ff" d="M389.16,-425C364.58,-425 336.79,-425 313.43,-425"/>
<polygon fill="#63b8ff" stroke="#63b8ff" points="389.05,-428.5 399.05,-425 389.05,-421.5 389.05,-428.5"/>
</g>
<!-- Node41 -->
<g id="node13" class="node">
<title>Node41</title>
<g id="a_node13"><a xlink:href="class_urho3_d_1_1_u_i_element.html#a9fa7546339360d06375e185289765d15" target="_top" xlink:title=" ">
<polygon fill="white" stroke="#666666" points="313,-536 208,-536 208,-506 313,-506 313,-536"/>
<text text-anchor="start" x="216" y="-524" font-family="Roboto" font-size="10.00">Urho3D::UIElement::</text>
<text text-anchor="middle" x="260.5" y="-513" font-family="Roboto" font-size="10.00">SetMaxHeight</text>
</a>
</g>
</g>
<!-- Node40&#45;&gt;Node41 -->
<g id="edge14" class="edge">
<title>Node40&#45;&gt;Node41</title>
<path fill="none" stroke="#63b8ff" d="M390.09,-438.01C382.64,-440.96 375.41,-444.58 369,-449 347.05,-464.14 354.62,-481.39 333,-497 327.06,-501.29 320.29,-504.86 313.35,-507.8"/>
<polygon fill="#63b8ff" stroke="#63b8ff" points="391.02,-441.39 399.28,-434.76 388.68,-434.79 391.02,-441.39"/>
</g>
<!-- Node42 -->
<g id="node14" class="node">
<title>Node42</title>
<g id="a_node14"><a xlink:href="class_urho3_d_1_1_u_i_element.html#a5ca6f5ad3810ec5b1ed4c0e3adcf2b36" target="_top" xlink:title="Set maximum size.">
<polygon fill="white" stroke="#666666" points="313,-488 208,-488 208,-458 313,-458 313,-488"/>
<text text-anchor="start" x="216" y="-476" font-family="Roboto" font-size="10.00">Urho3D::UIElement::</text>
<text text-anchor="middle" x="260.5" y="-465" font-family="Roboto" font-size="10.00">SetMaxSize</text>
</a>
</g>
</g>
<!-- Node40&#45;&gt;Node42 -->
<g id="edge15" class="edge">
<title>Node40&#45;&gt;Node42</title>
<path fill="none" stroke="#63b8ff" d="M389.49,-440.83C364.83,-447.03 336.9,-454.05 313.43,-459.95"/>
<polygon fill="#63b8ff" stroke="#63b8ff" points="390.25,-444.25 399.09,-438.42 388.54,-437.46 390.25,-444.25"/>
</g>
<!-- Node43 -->
<g id="node15" class="node">
<title>Node43</title>
<g id="a_node15"><a xlink:href="class_urho3_d_1_1_u_i_element.html#a2f4e6c855f453d1c60f03bb186e60d32" target="_top" xlink:title=" ">
<polygon fill="#fff0f0" stroke="red" points="313,-584 208,-584 208,-554 313,-554 313,-584"/>
<text text-anchor="start" x="216" y="-572" font-family="Roboto" font-size="10.00">Urho3D::UIElement::</text>
<text text-anchor="middle" x="260.5" y="-561" font-family="Roboto" font-size="10.00">SetMaxWidth</text>
</a>
</g>
</g>
<!-- Node40&#45;&gt;Node43 -->
<g id="edge16" class="edge">
<title>Node40&#45;&gt;Node43</title>
<path fill="none" stroke="#63b8ff" d="M390.17,-435.74C382.42,-439.05 375.09,-443.37 369,-449 335.53,-479.93 365.78,-513.35 333,-545 327.44,-550.37 320.65,-554.53 313.48,-557.77"/>
<polygon fill="#63b8ff" stroke="#63b8ff" points="391.31,-439.05 399.51,-432.34 388.92,-432.47 391.31,-439.05"/>
</g>
<!-- Node49&#45;&gt;Node6 -->
<g id="edge18" class="edge">
<title>Node49&#45;&gt;Node6</title>
<path fill="none" stroke="#63b8ff" d="M390.83,-350.98C383.21,-354.49 375.74,-358.49 369,-363 349.66,-375.93 352.61,-388.48 333,-401 326.93,-404.87 320.17,-408.19 313.29,-411.01"/>
<polygon fill="#63b8ff" stroke="#63b8ff" points="392.07,-354.26 399.87,-347.09 389.3,-347.83 392.07,-354.26"/>
</g>
<!-- Node50 -->
<g id="node17" class="node">
<title>Node50</title>
<g id="a_node17"><a xlink:href="class_urho3_d_1_1_u_i_element.html#a27630c90048d87cad40b7f12af7fcc5a" target="_top" xlink:title=" ">
<polygon fill="white" stroke="#666666" points="313,-344 208,-344 208,-314 313,-314 313,-344"/>
<text text-anchor="start" x="216" y="-332" font-family="Roboto" font-size="10.00">Urho3D::UIElement::</text>
<text text-anchor="middle" x="260.5" y="-321" font-family="Roboto" font-size="10.00">SetMinHeight</text>
</a>
</g>
</g>
<!-- Node49&#45;&gt;Node50 -->
<g id="edge19" class="edge">
<title>Node49&#45;&gt;Node50</title>
<path fill="none" stroke="#63b8ff" d="M389.16,-330.34C364.58,-330.08 336.79,-329.79 313.43,-329.54"/>
<polygon fill="#63b8ff" stroke="#63b8ff" points="389.01,-333.84 399.05,-330.44 389.08,-326.84 389.01,-333.84"/>
</g>
<!-- Node51 -->
<g id="node18" class="node">
<title>Node51</title>
<g id="a_node18"><a xlink:href="class_urho3_d_1_1_u_i_element.html#aabe432e3307b7396c9701b7b0242932e" target="_top" xlink:title="Set minimum size.">
<polygon fill="white" stroke="#666666" points="313,-296 208,-296 208,-266 313,-266 313,-296"/>
<text text-anchor="start" x="216" y="-284" font-family="Roboto" font-size="10.00">Urho3D::UIElement::</text>
<text text-anchor="middle" x="260.5" y="-273" font-family="Roboto" font-size="10.00">SetMinSize</text>
</a>
</g>
</g>
<!-- Node49&#45;&gt;Node51 -->
<g id="edge20" class="edge">
<title>Node49&#45;&gt;Node51</title>
<path fill="none" stroke="#63b8ff" d="M389.49,-314.51C364.83,-308.05 336.9,-300.74 313.43,-294.59"/>
<polygon fill="#63b8ff" stroke="#63b8ff" points="388.54,-317.87 399.1,-317.02 390.31,-311.1 388.54,-317.87"/>
</g>
<!-- Node52 -->
<g id="node19" class="node">
<title>Node52</title>
<g id="a_node19"><a xlink:href="class_urho3_d_1_1_u_i_element.html#ab5a8fa3fdc2f038afd6f51e8327c3505" target="_top" xlink:title=" ">
<polygon fill="#fff0f0" stroke="red" points="313,-392 208,-392 208,-362 313,-362 313,-392"/>
<text text-anchor="start" x="216" y="-380" font-family="Roboto" font-size="10.00">Urho3D::UIElement::</text>
<text text-anchor="middle" x="260.5" y="-369" font-family="Roboto" font-size="10.00">SetMinWidth</text>
</a>
</g>
</g>
<!-- Node49&#45;&gt;Node52 -->
<g id="edge21" class="edge">
<title>Node49&#45;&gt;Node52</title>
<path fill="none" stroke="#63b8ff" d="M389.49,-346.18C364.83,-352.11 336.9,-358.84 313.43,-364.49"/>
<polygon fill="#63b8ff" stroke="#63b8ff" points="390.19,-349.61 399.09,-343.86 388.55,-342.8 390.19,-349.61"/>
</g>
<!-- Node56 -->
<g id="node21" class="node">
<title>Node56</title>
<g id="a_node21"><a xlink:href="class_urho3_d_1_1_cursor.html#ac42187d96290b83a4f8995d2264cba87" target="_top" xlink:title="Define a shape.">
<polygon fill="#fff0f0" stroke="red" points="333,-65.5 188,-65.5 188,-46.5 333,-46.5 333,-65.5"/>
<text text-anchor="middle" x="260.5" y="-53.5" font-family="Roboto" font-size="10.00">Urho3D::Cursor::DefineShape</text>
</a>
</g>
</g>
<!-- Node55&#45;&gt;Node56 -->
<g id="edge23" class="edge">
<title>Node55&#45;&gt;Node56</title>
<path fill="none" stroke="#63b8ff" d="M377.49,-140.08C374.53,-138.56 371.69,-136.87 369,-135 345.01,-118.32 356.12,-97.86 333,-80 325.12,-73.92 315.62,-69.33 306.15,-65.89"/>
<polygon fill="#63b8ff" stroke="#63b8ff" points="375.93,-143.22 386.5,-144.05 378.76,-136.82 375.93,-143.22"/>
</g>
<!-- Node71&#45;&gt;Node10 -->
<g id="edge26" class="edge">
<title>Node71&#45;&gt;Node10</title>
<path fill="none" stroke="#63b8ff" d="M196.7,-168.48C169.53,-161.34 138.61,-153.2 115.01,-147"/>
<polygon fill="#63b8ff" stroke="#63b8ff" points="195.67,-171.83 206.23,-170.99 197.45,-165.06 195.67,-171.83"/>
</g>
<!-- Node88&#45;&gt;Node1 -->
<g id="edge29" class="edge">
<title>Node88&#45;&gt;Node1</title>
<path fill="none" stroke="#63b8ff" d="M515.88,-34.38C523.96,-37.82 531.64,-42.22 538,-48 598.86,-103.3 617.95,-206.32 623.45,-245.61"/>
<polygon fill="#63b8ff" stroke="#63b8ff" points="517.11,-31.1 506.52,-30.89 514.67,-37.66 517.11,-31.1"/>
</g>
</g>
</svg>
