<?xml version="1.0" encoding="UTF-8" standalone="no"?>
<!DOCTYPE svg PUBLIC "-//W3C//DTD SVG 1.1//EN"
 "http://www.w3.org/Graphics/SVG/1.1/DTD/svg11.dtd">
<!-- Generated by graphviz version 7.0.3 (0)
 -->
<!-- Title: Urho3D::Text::ApplyAttributes Pages: 1 -->
<svg width="702pt" height="940pt"
 viewBox="0.00 0.00 702.00 940.00" xmlns="http://www.w3.org/2000/svg" xmlns:xlink="http://www.w3.org/1999/xlink">
<g id="graph0" class="graph" transform="scale(1 1) rotate(0) translate(4 936)">
<title>Urho3D::Text::ApplyAttributes</title>
<!-- Node1 -->
<g id="node1" class="node">
<title>Node1</title>
<g id="a_node1"><a xlink:title="Apply attribute changes that can not be applied immediately.">
<polygon fill="#999999" stroke="#666666" points="145,-790 0,-790 0,-771 145,-771 145,-790"/>
<text text-anchor="middle" x="72.5" y="-778" font-family="Roboto" font-size="10.00">Urho3D::Text::ApplyAttributes</text>
</a>
</g>
</g>
<!-- Node2 -->
<g id="node2" class="node">
<title>Node2</title>
<g id="a_node2"><a xlink:href="_math_defs_8h.html#ac3865cf9a0484b8452ccc4e62c5661ca" target="_top" xlink:title=" ">
<polygon fill="white" stroke="#666666" points="297.5,-914 225.5,-914 225.5,-895 297.5,-895 297.5,-914"/>
<text text-anchor="middle" x="261.5" y="-902" font-family="Roboto" font-size="10.00">Urho3D::Abs</text>
</a>
</g>
</g>
<!-- Node1&#45;&gt;Node2 -->
<g id="edge1" class="edge">
<title>Node1&#45;&gt;Node2</title>
<path fill="none" stroke="#63b8ff" d="M80.59,-790.38C96.2,-811.38 135.77,-860.55 181,-885.5 191.16,-891.1 202.94,-895.07 214.26,-897.86"/>
<polygon fill="#63b8ff" stroke="#63b8ff" points="213.37,-901.25 223.88,-899.97 214.86,-894.41 213.37,-901.25"/>
</g>
<!-- Node3 -->
<g id="node3" class="node">
<title>Node3</title>
<g id="a_node3"><a xlink:href="class_urho3_d_1_1_serializable.html#a58f03d097b05420b50a9017f44a24593" target="_top" xlink:title="Apply attribute changes that can not be applied immediately. Called after scene load or a network upd...">
<polygon fill="white" stroke="#666666" points="314,-876.5 209,-876.5 209,-846.5 314,-846.5 314,-876.5"/>
<text text-anchor="start" x="217" y="-864.5" font-family="Roboto" font-size="10.00">Urho3D::Serializable</text>
<text text-anchor="middle" x="261.5" y="-853.5" font-family="Roboto" font-size="10.00">::ApplyAttributes</text>
</a>
</g>
</g>
<!-- Node1&#45;&gt;Node3 -->
<g id="edge3" class="edge">
<title>Node1&#45;&gt;Node3</title>
<path fill="none" stroke="#63b8ff" d="M92.65,-790.49C113.94,-801.42 149.49,-819.17 181,-832.5 188.71,-835.76 196.94,-839.01 205.06,-842.09"/>
<polygon fill="#63b8ff" stroke="#63b8ff" points="203.61,-845.29 214.2,-845.5 206.05,-838.73 203.61,-845.29"/>
</g>
<!-- Node4 -->
<g id="node4" class="node">
<title>Node4</title>
<g id="a_node4"><a xlink:href="class_urho3_d_1_1_text.html#addf8cee35ae07d806d55953f8e37bd99" target="_top" xlink:title="UTF8 to Unicode.">
<polygon fill="white" stroke="#666666" points="342,-790 181,-790 181,-771 342,-771 342,-790"/>
<text text-anchor="middle" x="261.5" y="-778" font-family="Roboto" font-size="10.00">Urho3D::Text::DecodeToUnicode</text>
</a>
</g>
</g>
<!-- Node1&#45;&gt;Node4 -->
<g id="edge4" class="edge">
<title>Node1&#45;&gt;Node4</title>
<path fill="none" stroke="#63b8ff" d="M145.26,-780.5C153.1,-780.5 161.16,-780.5 169.2,-780.5"/>
<polygon fill="#63b8ff" stroke="#63b8ff" points="169,-784 179,-780.5 169,-777 169,-784"/>
</g>
<!-- Node9 -->
<g id="node7" class="node">
<title>Node9</title>
<g id="a_node7"><a xlink:href="class_urho3_d_1_1_string.html#a0a988cc147946dd80bf73cea2c1ac04c" target="_top" xlink:title=" ">
<polygon fill="white" stroke="#666666" points="510,-892 396,-892 396,-873 510,-873 510,-892"/>
<text text-anchor="middle" x="453" y="-880" font-family="Roboto" font-size="10.00">Urho3D::String::Length</text>
</a>
</g>
</g>
<!-- Node1&#45;&gt;Node9 -->
<g id="edge12" class="edge">
<title>Node1&#45;&gt;Node9</title>
<path fill="none" stroke="#63b8ff" d="M126.49,-790.47C199.05,-804.33 322.58,-828.68 342,-837.5 360.21,-845.77 359.91,-855.96 378,-864.5 381.51,-866.16 385.2,-867.67 388.96,-869.06"/>
<polygon fill="#63b8ff" stroke="#63b8ff" points="387.7,-872.32 398.29,-872.14 389.89,-865.68 387.7,-872.32"/>
</g>
<!-- Node14 -->
<g id="node11" class="node">
<title>Node14</title>
<g id="a_node11"><a xlink:href="_math_defs_8h.html#a8096c22c3716e172f685af2a5f5e26bb" target="_top" xlink:title=" ">
<polygon fill="white" stroke="#666666" points="666,-100 592,-100 592,-81 666,-81 666,-100"/>
<text text-anchor="middle" x="629" y="-88" font-family="Roboto" font-size="10.00">Urho3D::Max</text>
</a>
</g>
</g>
<!-- Node1&#45;&gt;Node14 -->
<g id="edge13" class="edge">
<title>Node1&#45;&gt;Node14</title>
<path fill="none" stroke="#63b8ff" d="M73.89,-770.77C77.39,-697.95 109.99,-236.47 378,-66.5 446.12,-23.3 546.35,-55.07 596.7,-76.02"/>
<polygon fill="#63b8ff" stroke="#63b8ff" points="595.28,-79.22 605.84,-79.95 598.04,-72.78 595.28,-79.22"/>
</g>
<!-- Node15 -->
<g id="node12" class="node">
<title>Node15</title>
<g id="a_node12"><a xlink:href="class_urho3_d_1_1_text.html#a27a4bc43cff802472202b3d1e532ceba" target="_top" xlink:title="Update text when text, font or spacing changed.">
<polygon fill="#fff0f0" stroke="red" points="325.5,-513 197.5,-513 197.5,-494 325.5,-494 325.5,-513"/>
<text text-anchor="middle" x="261.5" y="-501" font-family="Roboto" font-size="10.00">Urho3D::Text::UpdateText</text>
</a>
</g>
</g>
<!-- Node1&#45;&gt;Node15 -->
<g id="edge15" class="edge">
<title>Node1&#45;&gt;Node15</title>
<path fill="none" stroke="#63b8ff" d="M80.16,-770.64C107.42,-730.25 210.87,-577.02 247.53,-522.72"/>
<polygon fill="#63b8ff" stroke="#63b8ff" points="250.38,-524.74 253.08,-514.49 244.58,-520.82 250.38,-524.74"/>
</g>
<!-- Node73 -->
<g id="node25" class="node">
<title>Node73</title>
<g id="a_node25"><a xlink:href="class_urho3_d_1_1_text.html#ae0ac58c7dfc1c6efdcfe69214b98eeb8" target="_top" xlink:title="Validate text selection to be within the text.">
<polygon fill="#fff0f0" stroke="red" points="338.5,-19 184.5,-19 184.5,0 338.5,0 338.5,-19"/>
<text text-anchor="middle" x="261.5" y="-7" font-family="Roboto" font-size="10.00">Urho3D::Text::ValidateSelection</text>
</a>
</g>
</g>
<!-- Node1&#45;&gt;Node73 -->
<g id="edge37" class="edge">
<title>Node1&#45;&gt;Node73</title>
<path fill="none" stroke="#63b8ff" d="M73.52,-770.71C73.84,-691.21 79.76,-151.22 181,-33.5 183.8,-30.25 187.02,-27.43 190.52,-24.98"/>
<polygon fill="#63b8ff" stroke="#63b8ff" points="192.13,-28.1 199.07,-20.1 188.65,-22.02 192.13,-28.1"/>
</g>
<!-- Node2&#45;&gt;Node2 -->
<g id="edge2" class="edge">
<title>Node2&#45;&gt;Node2</title>
<path fill="none" stroke="#63b8ff" d="M231.91,-914.37C218.41,-922.94 228.28,-932 261.5,-932 280.71,-932 292.11,-928.97 295.7,-924.76"/>
<polygon fill="#63b8ff" stroke="#63b8ff" points="298.96,-923.47 291.7,-915.75 292.56,-926.31 298.96,-923.47"/>
</g>
<!-- Node5 -->
<g id="node5" class="node">
<title>Node5</title>
<g id="a_node5"><a xlink:href="class_urho3_d_1_1_p_o_d_vector.html#a56e61cb5b8216360fd62b20eb78b5faf" target="_top" xlink:title="Clear the vector.">
<polygon fill="white" stroke="#666666" points="507,-817.5 399,-817.5 399,-787.5 507,-787.5 507,-817.5"/>
<text text-anchor="start" x="407" y="-805.5" font-family="Roboto" font-size="10.00">Urho3D::PODVector::</text>
<text text-anchor="middle" x="453" y="-794.5" font-family="Roboto" font-size="10.00">Clear</text>
</a>
</g>
</g>
<!-- Node4&#45;&gt;Node5 -->
<g id="edge5" class="edge">
<title>Node4&#45;&gt;Node5</title>
<path fill="none" stroke="#63b8ff" d="M342.32,-789.77C357.32,-791.51 372.84,-793.31 387.31,-794.99"/>
<polygon fill="#63b8ff" stroke="#63b8ff" points="386.83,-798.46 397.16,-796.13 387.63,-791.5 386.83,-798.46"/>
</g>
<!-- Node4&#45;&gt;Node9 -->
<g id="edge7" class="edge">
<title>Node4&#45;&gt;Node9</title>
<path fill="none" stroke="#63b8ff" d="M315.22,-790.42C324.76,-793.83 334.15,-798.39 342,-804.5 366.53,-823.61 352.95,-846.07 378,-864.5 380.33,-866.21 382.8,-867.77 385.37,-869.17"/>
<polygon fill="#63b8ff" stroke="#63b8ff" points="383.78,-872.29 394.33,-873.27 386.7,-865.93 383.78,-872.29"/>
</g>
<!-- Node10 -->
<g id="node8" class="node">
<title>Node10</title>
<g id="a_node8"><a xlink:href="class_urho3_d_1_1_string.html#a16643a545e2cfcf7a59979bd3c290614" target="_top" xlink:title="Return next Unicode character from UTF8 content and increase byte offset.">
<polygon fill="#fff0f0" stroke="red" points="528,-855 378,-855 378,-836 528,-836 528,-855"/>
<text text-anchor="middle" x="453" y="-843" font-family="Roboto" font-size="10.00">Urho3D::String::NextUTF8Char</text>
</a>
</g>
</g>
<!-- Node4&#45;&gt;Node10 -->
<g id="edge8" class="edge">
<title>Node4&#45;&gt;Node10</title>
<path fill="none" stroke="#63b8ff" d="M302.45,-790.4C315.33,-794.16 329.5,-798.9 342,-804.5 359.11,-812.16 360.73,-819.2 378,-826.5 383.14,-828.67 388.58,-830.64 394.1,-832.42"/>
<polygon fill="#63b8ff" stroke="#63b8ff" points="392.69,-835.65 403.27,-835.17 394.7,-828.95 392.69,-835.65"/>
</g>
<!-- Node12 -->
<g id="node9" class="node">
<title>Node12</title>
<g id="a_node9"><a xlink:href="class_urho3_d_1_1_p_o_d_vector.html#a3eb78093c096ab9e9d68595facc56470" target="_top" xlink:title="Add an element at the end.">
<polygon fill="white" stroke="#666666" points="518,-769 388,-769 388,-750 518,-750 518,-769"/>
<text text-anchor="middle" x="453" y="-757" font-family="Roboto" font-size="10.00">Urho3D::PODVector::Push</text>
</a>
</g>
</g>
<!-- Node4&#45;&gt;Node12 -->
<g id="edge9" class="edge">
<title>Node4&#45;&gt;Node12</title>
<path fill="none" stroke="#63b8ff" d="M342.32,-771.65C353.5,-770.42 364.97,-769.14 376.08,-767.91"/>
<polygon fill="#63b8ff" stroke="#63b8ff" points="376.45,-771.39 386,-766.81 375.68,-764.44 376.45,-771.39"/>
</g>
<!-- Node6 -->
<g id="node6" class="node">
<title>Node6</title>
<g id="a_node6"><a xlink:href="class_urho3_d_1_1_p_o_d_vector.html#a90931bab46c47be9f1989f4ec86bd487" target="_top" xlink:title="Resize the vector.">
<polygon fill="#fff0f0" stroke="red" points="683,-755.5 575,-755.5 575,-725.5 683,-725.5 683,-755.5"/>
<text text-anchor="start" x="583" y="-743.5" font-family="Roboto" font-size="10.00">Urho3D::PODVector::</text>
<text text-anchor="middle" x="629" y="-732.5" font-family="Roboto" font-size="10.00">Resize</text>
</a>
</g>
</g>
<!-- Node5&#45;&gt;Node6 -->
<g id="edge6" class="edge">
<title>Node5&#45;&gt;Node6</title>
<path fill="none" stroke="#63b8ff" d="M500.26,-787.1C509.46,-783.97 519.05,-780.67 528,-777.5 543.88,-771.88 561.11,-765.58 576.72,-759.8"/>
<polygon fill="#63b8ff" stroke="#63b8ff" points="577.66,-763.18 585.81,-756.41 575.22,-756.62 577.66,-763.18"/>
</g>
<!-- Node12&#45;&gt;Node6 -->
<g id="edge11" class="edge">
<title>Node12&#45;&gt;Node6</title>
<path fill="none" stroke="#63b8ff" d="M518.3,-752.48C533.03,-750.87 548.7,-749.16 563.45,-747.55"/>
<polygon fill="#63b8ff" stroke="#63b8ff" points="563.45,-751.07 573.01,-746.51 562.69,-744.11 563.45,-751.07"/>
</g>
<!-- Node13 -->
<g id="node10" class="node">
<title>Node13</title>
<g id="a_node10"><a xlink:href="class_urho3_d_1_1_p_o_d_vector.html#a02b72389727e56688c9f6ed66c2f8733" target="_top" xlink:title="Return last element.">
<polygon fill="#fff0f0" stroke="red" points="694,-629 564,-629 564,-610 694,-610 694,-629"/>
<text text-anchor="middle" x="629" y="-617" font-family="Roboto" font-size="10.00">Urho3D::PODVector::Back</text>
</a>
</g>
</g>
<!-- Node12&#45;&gt;Node13 -->
<g id="edge10" class="edge">
<title>Node12&#45;&gt;Node13</title>
<path fill="none" stroke="#63b8ff" d="M508.99,-749.58C515.67,-747.18 522.18,-744.2 528,-740.5 568.85,-714.56 601.13,-666.41 617.09,-639.32"/>
<polygon fill="#63b8ff" stroke="#63b8ff" points="620.06,-641.17 621.98,-630.76 613.98,-637.7 620.06,-641.17"/>
</g>
<!-- Node14&#45;&gt;Node14 -->
<g id="edge14" class="edge">
<title>Node14&#45;&gt;Node14</title>
<path fill="none" stroke="#63b8ff" d="M601.45,-100.37C588.88,-108.94 598.06,-118 629,-118 646.4,-118 656.92,-115.13 660.56,-111.1"/>
<polygon fill="#63b8ff" stroke="#63b8ff" points="663.86,-109.93 657.08,-101.79 657.3,-112.38 663.86,-109.93"/>
</g>
<!-- Node15&#45;&gt;Node5 -->
<g id="edge17" class="edge">
<title>Node15&#45;&gt;Node5</title>
<path fill="none" stroke="#63b8ff" d="M263.74,-513.38C269.19,-552.73 294.62,-700.01 378,-777.5 381.26,-780.53 384.9,-783.19 388.77,-785.53"/>
<polygon fill="#63b8ff" stroke="#63b8ff" points="386.94,-788.53 397.43,-790.02 390.16,-782.31 386.94,-788.53"/>
</g>
<!-- Node15&#45;&gt;Node6 -->
<g id="edge31" class="edge">
<title>Node15&#45;&gt;Node6</title>
<path fill="none" stroke="#63b8ff" d="M266.55,-513.35C278.76,-541.77 318.12,-624.56 378,-665.5 434.77,-704.32 462.32,-683.09 528,-703.5 544.66,-708.68 562.61,-715.06 578.64,-721.05"/>
<polygon fill="#63b8ff" stroke="#63b8ff" points="577.38,-724.32 587.97,-724.59 579.86,-717.77 577.38,-724.32"/>
</g>
<!-- Node15&#45;&gt;Node12 -->
<g id="edge30" class="edge">
<title>Node15&#45;&gt;Node12</title>
<path fill="none" stroke="#63b8ff" d="M264.27,-513.45C271.29,-549.91 300.68,-677.42 378,-740.5 379.7,-741.88 381.48,-743.17 383.34,-744.36"/>
<polygon fill="#63b8ff" stroke="#63b8ff" points="381.31,-747.24 391.78,-748.87 384.6,-741.07 381.31,-747.24"/>
</g>
<!-- Node15&#45;&gt;Node13 -->
<g id="edge16" class="edge">
<title>Node15&#45;&gt;Node13</title>
<path fill="none" stroke="#63b8ff" d="M297.32,-513.44C368.7,-533.83 525.2,-578.54 528,-579.5 550.58,-587.23 575.51,-597.19 594.83,-605.25"/>
<polygon fill="#63b8ff" stroke="#63b8ff" points="593.24,-608.38 603.82,-609.03 595.96,-601.92 593.24,-608.38"/>
</g>
<!-- Node15&#45;&gt;Node14 -->
<g id="edge25" class="edge">
<title>Node15&#45;&gt;Node14</title>
<path fill="none" stroke="#63b8ff" d="M290.55,-513.49C343.33,-530.34 458.35,-557.48 528,-502.5 591.07,-452.71 619.3,-188.14 626.24,-111.39"/>
<polygon fill="#63b8ff" stroke="#63b8ff" points="629.69,-112.16 627.07,-101.89 622.71,-111.55 629.69,-112.16"/>
</g>
<!-- Node16 -->
<g id="node13" class="node">
<title>Node16</title>
<g id="a_node13"><a xlink:href="class_urho3_d_1_1_font_face.html#a4b91e47bb935a890c515f4e840217c8b" target="_top" xlink:title="Return pointer to the glyph structure corresponding to a character. Return null if glyph not found.">
<polygon fill="white" stroke="#666666" points="522.5,-608 383.5,-608 383.5,-589 522.5,-589 522.5,-608"/>
<text text-anchor="middle" x="453" y="-596" font-family="Roboto" font-size="10.00">Urho3D::FontFace::GetGlyph</text>
</a>
</g>
</g>
<!-- Node15&#45;&gt;Node16 -->
<g id="edge18" class="edge">
<title>Node15&#45;&gt;Node16</title>
<path fill="none" stroke="#63b8ff" d="M276.12,-513.37C297.14,-528.24 339.1,-556.55 378,-574.5 386.46,-578.4 395.73,-581.94 404.76,-585.04"/>
<polygon fill="#63b8ff" stroke="#63b8ff" points="403.56,-588.33 414.15,-588.11 405.73,-581.67 403.56,-588.33"/>
</g>
<!-- Node17 -->
<g id="node14" class="node">
<title>Node17</title>
<g id="a_node14"><a xlink:href="class_urho3_d_1_1_font_face.html#a7a5a7c77278cea7c12ac7ce9932d64f2" target="_top" xlink:title="Return the kerning for a character and the next character.">
<polygon fill="#fff0f0" stroke="red" points="527,-494 379,-494 379,-475 527,-475 527,-494"/>
<text text-anchor="middle" x="453" y="-482" font-family="Roboto" font-size="10.00">Urho3D::FontFace::GetKerning</text>
</a>
</g>
</g>
<!-- Node15&#45;&gt;Node17 -->
<g id="edge19" class="edge">
<title>Node15&#45;&gt;Node17</title>
<path fill="none" stroke="#63b8ff" d="M325.86,-497.15C339.19,-495.81 353.46,-494.38 367.42,-492.98"/>
<polygon fill="#63b8ff" stroke="#63b8ff" points="367.43,-496.5 377.03,-492.02 366.73,-489.53 367.43,-496.5"/>
</g>
<!-- Node27 -->
<g id="node15" class="node">
<title>Node27</title>
<g id="a_node15"><a xlink:href="class_urho3_d_1_1_u_i_element.html#ac2708f43d9290982eb31d26a7cc10afa" target="_top" xlink:title=" ">
<polygon fill="white" stroke="#666666" points="505.5,-456.5 400.5,-456.5 400.5,-426.5 505.5,-426.5 505.5,-456.5"/>
<text text-anchor="start" x="408.5" y="-444.5" font-family="Roboto" font-size="10.00">Urho3D::UIElement::</text>
<text text-anchor="middle" x="453" y="-433.5" font-family="Roboto" font-size="10.00">GetLayoutMode</text>
</a>
</g>
</g>
<!-- Node15&#45;&gt;Node27 -->
<g id="edge20" class="edge">
<title>Node15&#45;&gt;Node27</title>
<path fill="none" stroke="#63b8ff" d="M292.4,-493.62C315.71,-485.93 348.9,-475 378,-465.5 383.03,-463.86 388.26,-462.15 393.5,-460.45"/>
<polygon fill="#63b8ff" stroke="#63b8ff" points="394.35,-463.85 402.78,-457.43 392.19,-457.19 394.35,-463.85"/>
</g>
<!-- Node28 -->
<g id="node16" class="node">
<title>Node28</title>
<g id="a_node16"><a xlink:href="class_urho3_d_1_1_u_i_element.html#a2213dfdd16c9f98be3696a23cdd31388" target="_top" xlink:title=" ">
<polygon fill="white" stroke="#666666" points="505.5,-408.5 400.5,-408.5 400.5,-378.5 505.5,-378.5 505.5,-408.5"/>
<text text-anchor="start" x="408.5" y="-396.5" font-family="Roboto" font-size="10.00">Urho3D::UIElement::</text>
<text text-anchor="middle" x="453" y="-385.5" font-family="Roboto" font-size="10.00">GetParent</text>
</a>
</g>
</g>
<!-- Node15&#45;&gt;Node28 -->
<g id="edge21" class="edge">
<title>Node15&#45;&gt;Node28</title>
<path fill="none" stroke="#63b8ff" d="M273.16,-493.65C292.62,-476.11 335.8,-439.3 378,-417.5 381.7,-415.59 385.58,-413.79 389.54,-412.11"/>
<polygon fill="#63b8ff" stroke="#63b8ff" points="390.74,-415.4 398.76,-408.47 388.17,-408.89 390.74,-415.4"/>
</g>
<!-- Node29 -->
<g id="node17" class="node">
<title>Node29</title>
<g id="a_node17"><a xlink:href="class_urho3_d_1_1_font_face.html#a503984368c0c052770c7ddf4a71e9db8" target="_top" xlink:title="Return row height.">
<polygon fill="white" stroke="#666666" points="520,-360.5 386,-360.5 386,-330.5 520,-330.5 520,-360.5"/>
<text text-anchor="start" x="394" y="-348.5" font-family="Roboto" font-size="10.00">Urho3D::FontFace::GetRow</text>
<text text-anchor="middle" x="453" y="-337.5" font-family="Roboto" font-size="10.00">Height</text>
</a>
</g>
</g>
<!-- Node15&#45;&gt;Node29 -->
<g id="edge22" class="edge">
<title>Node15&#45;&gt;Node29</title>
<path fill="none" stroke="#63b8ff" d="M268.18,-493.81C283.04,-469.31 325.56,-404.35 378,-369.5 379.86,-368.27 381.78,-367.09 383.76,-365.98"/>
<polygon fill="#63b8ff" stroke="#63b8ff" points="385.26,-369.14 392.64,-361.53 382.13,-362.88 385.26,-369.14"/>
</g>
<!-- Node30 -->
<g id="node18" class="node">
<title>Node30</title>
<g id="a_node18"><a xlink:href="class_urho3_d_1_1_u_i_element.html#a8c3df9a7b24aa874345db797a95e130e" target="_top" xlink:title=" ">
<polygon fill="white" stroke="#666666" points="505.5,-312.5 400.5,-312.5 400.5,-282.5 505.5,-282.5 505.5,-312.5"/>
<text text-anchor="start" x="408.5" y="-300.5" font-family="Roboto" font-size="10.00">Urho3D::UIElement::</text>
<text text-anchor="middle" x="453" y="-289.5" font-family="Roboto" font-size="10.00">GetWidth</text>
</a>
</g>
</g>
<!-- Node15&#45;&gt;Node30 -->
<g id="edge23" class="edge">
<title>Node15&#45;&gt;Node30</title>
<path fill="none" stroke="#63b8ff" d="M266.01,-493.53C277.24,-463.02 315.3,-370.11 378,-321.5 381.72,-318.61 385.8,-316.07 390.08,-313.83"/>
<polygon fill="#63b8ff" stroke="#63b8ff" points="391.32,-317.11 398.95,-309.75 388.4,-310.75 391.32,-317.11"/>
</g>
<!-- Node31 -->
<g id="node19" class="node">
<title>Node31</title>
<g id="a_node19"><a xlink:href="class_urho3_d_1_1_u_i_element.html#af7389fe1ec87c47bd6c9e6bdb151cda1" target="_top" xlink:title=" ">
<polygon fill="white" stroke="#666666" points="505.5,-264.5 400.5,-264.5 400.5,-234.5 505.5,-234.5 505.5,-264.5"/>
<text text-anchor="start" x="408.5" y="-252.5" font-family="Roboto" font-size="10.00">Urho3D::UIElement::</text>
<text text-anchor="middle" x="453" y="-241.5" font-family="Roboto" font-size="10.00">IsFixedWidth</text>
</a>
</g>
</g>
<!-- Node15&#45;&gt;Node31 -->
<g id="edge24" class="edge">
<title>Node15&#45;&gt;Node31</title>
<path fill="none" stroke="#63b8ff" d="M264.6,-493.51C272.6,-458.01 304.44,-336.67 378,-273.5 381.63,-270.38 385.68,-267.67 389.95,-265.3"/>
<polygon fill="#63b8ff" stroke="#63b8ff" points="391.35,-268.51 398.88,-261.05 388.35,-262.19 391.35,-268.51"/>
</g>
<!-- Node32 -->
<g id="node20" class="node">
<title>Node32</title>
<g id="a_node20"><a xlink:href="_math_defs_8h.html#a639c291adc131849b469a216007c4af5" target="_top" xlink:title=" ">
<polygon fill="white" stroke="#666666" points="488.5,-198 417.5,-198 417.5,-179 488.5,-179 488.5,-198"/>
<text text-anchor="middle" x="453" y="-186" font-family="Roboto" font-size="10.00">Urho3D::Min</text>
</a>
</g>
</g>
<!-- Node15&#45;&gt;Node32 -->
<g id="edge26" class="edge">
<title>Node15&#45;&gt;Node32</title>
<path fill="none" stroke="#63b8ff" d="M264.06,-493.54C270.65,-454.46 299.59,-309.59 378,-225.5 386.85,-216.01 398.67,-208.61 410.26,-203.01"/>
<polygon fill="#63b8ff" stroke="#63b8ff" points="411.64,-206.22 419.37,-198.97 408.81,-199.82 411.64,-206.22"/>
</g>
<!-- Node33 -->
<g id="node21" class="node">
<title>Node33</title>
<g id="a_node21"><a xlink:href="class_urho3_d_1_1_p_o_d_vector.html#a76e8bca181c0ab7e7ebbe5b325c35aa2" target="_top" xlink:title="Remove the last element.">
<polygon fill="white" stroke="#666666" points="515.5,-732 390.5,-732 390.5,-713 515.5,-713 515.5,-732"/>
<text text-anchor="middle" x="453" y="-720" font-family="Roboto" font-size="10.00">Urho3D::PODVector::Pop</text>
</a>
</g>
</g>
<!-- Node15&#45;&gt;Node33 -->
<g id="edge28" class="edge">
<title>Node15&#45;&gt;Node33</title>
<path fill="none" stroke="#63b8ff" d="M265.5,-513.28C275.72,-544.97 312.25,-645.89 378,-698.5 382.75,-702.3 388.11,-705.5 393.73,-708.2"/>
<polygon fill="#63b8ff" stroke="#63b8ff" points="392.07,-711.3 402.64,-711.96 394.78,-704.85 392.07,-711.3"/>
</g>
<!-- Node34 -->
<g id="node22" class="node">
<title>Node34</title>
<g id="a_node22"><a xlink:href="_math_defs_8h.html#a1e0439c3642fe1b9779fe2199b9d89af" target="_top" xlink:title=" ">
<polygon fill="white" stroke="#666666" points="506,-143 400,-143 400,-124 506,-124 506,-143"/>
<text text-anchor="middle" x="453" y="-131" font-family="Roboto" font-size="10.00">Urho3D::RoundToInt</text>
</a>
</g>
</g>
<!-- Node15&#45;&gt;Node34 -->
<g id="edge32" class="edge">
<title>Node15&#45;&gt;Node34</title>
<path fill="none" stroke="#63b8ff" d="M263.21,-493.68C266.86,-450.13 287.02,-272.1 378,-169.5 386.05,-160.43 396.89,-153.41 407.79,-148.09"/>
<polygon fill="#63b8ff" stroke="#63b8ff" points="409.07,-151.36 416.79,-144.11 406.23,-144.95 409.07,-151.36"/>
</g>
<!-- Node35 -->
<g id="node23" class="node">
<title>Node35</title>
<g id="a_node23"><a xlink:href="class_urho3_d_1_1_u_i_element.html#a4396e1c9eb02df3a4f5438900c704f76" target="_top" xlink:title="Set fixed height.">
<polygon fill="#fff0f0" stroke="red" points="505.5,-105.5 400.5,-105.5 400.5,-75.5 505.5,-75.5 505.5,-105.5"/>
<text text-anchor="start" x="408.5" y="-93.5" font-family="Roboto" font-size="10.00">Urho3D::UIElement::</text>
<text text-anchor="middle" x="453" y="-82.5" font-family="Roboto" font-size="10.00">SetFixedHeight</text>
</a>
</g>
</g>
<!-- Node15&#45;&gt;Node35 -->
<g id="edge34" class="edge">
<title>Node15&#45;&gt;Node35</title>
<path fill="none" stroke="#63b8ff" d="M262.31,-493.74C261.91,-445.34 266.59,-228.73 378,-114.5 381.54,-110.87 385.64,-107.78 390.05,-105.17"/>
<polygon fill="#63b8ff" stroke="#63b8ff" points="391.38,-108.42 398.77,-100.82 388.26,-102.15 391.38,-108.42"/>
</g>
<!-- Node70 -->
<g id="node24" class="node">
<title>Node70</title>
<g id="a_node24"><a xlink:href="class_urho3_d_1_1_u_i_element.html#ab5a8fa3fdc2f038afd6f51e8327c3505" target="_top" xlink:title=" ">
<polygon fill="#fff0f0" stroke="red" points="505.5,-656.5 400.5,-656.5 400.5,-626.5 505.5,-626.5 505.5,-656.5"/>
<text text-anchor="start" x="408.5" y="-644.5" font-family="Roboto" font-size="10.00">Urho3D::UIElement::</text>
<text text-anchor="middle" x="453" y="-633.5" font-family="Roboto" font-size="10.00">SetMinWidth</text>
</a>
</g>
</g>
<!-- Node15&#45;&gt;Node70 -->
<g id="edge36" class="edge">
<title>Node15&#45;&gt;Node70</title>
<path fill="none" stroke="#63b8ff" d="M270.05,-513.47C287.02,-535.22 330.41,-587.31 378,-616.5 381.73,-618.79 385.7,-620.9 389.78,-622.83"/>
<polygon fill="#63b8ff" stroke="#63b8ff" points="388.14,-625.94 398.71,-626.7 390.92,-619.51 388.14,-625.94"/>
</g>
<!-- Node32&#45;&gt;Node32 -->
<g id="edge27" class="edge">
<title>Node32&#45;&gt;Node32</title>
<path fill="none" stroke="#63b8ff" d="M425.45,-198.37C412.88,-206.94 422.06,-216 453,-216 470.4,-216 480.92,-213.13 484.56,-209.1"/>
<polygon fill="#63b8ff" stroke="#63b8ff" points="487.86,-207.93 481.08,-199.79 481.3,-210.38 487.86,-207.93"/>
</g>
<!-- Node33&#45;&gt;Node6 -->
<g id="edge29" class="edge">
<title>Node33&#45;&gt;Node6</title>
<path fill="none" stroke="#63b8ff" d="M515.84,-728.9C531.32,-730.5 547.97,-732.22 563.58,-733.84"/>
<polygon fill="#63b8ff" stroke="#63b8ff" points="562.91,-737.29 573.22,-734.83 563.63,-730.32 562.91,-737.29"/>
</g>
<!-- Node34&#45;&gt;Node34 -->
<g id="edge33" class="edge">
<title>Node34&#45;&gt;Node34</title>
<path fill="none" stroke="#63b8ff" d="M425.45,-143.37C412.88,-151.94 422.06,-161 453,-161 470.4,-161 480.92,-158.13 484.56,-154.1"/>
<polygon fill="#63b8ff" stroke="#63b8ff" points="487.86,-152.93 481.08,-144.79 481.3,-155.38 487.86,-152.93"/>
</g>
<!-- Node35&#45;&gt;Node14 -->
<g id="edge35" class="edge">
<title>Node35&#45;&gt;Node14</title>
<path fill="none" stroke="#63b8ff" d="M505.73,-90.5C529.39,-90.5 557.23,-90.5 580.36,-90.5"/>
<polygon fill="#63b8ff" stroke="#63b8ff" points="580.13,-94 590.13,-90.5 580.13,-87 580.13,-94"/>
</g>
</g>
</svg>
