<?xml version="1.0" encoding="UTF-8" standalone="no"?>
<!DOCTYPE svg PUBLIC "-//W3C//DTD SVG 1.1//EN"
 "http://www.w3.org/Graphics/SVG/1.1/DTD/svg11.dtd">
<!-- Generated by graphviz version 7.0.3 (0)
 -->
<!-- Title: Urho3D::Camera::GetGPUProjection Pages: 1 -->
<svg width="1443pt" height="195pt"
 viewBox="0.00 0.00 1443.00 195.05" xmlns="http://www.w3.org/2000/svg" xmlns:xlink="http://www.w3.org/1999/xlink">
<g id="graph0" class="graph" transform="scale(1 1) rotate(0) translate(4 191.05)">
<title>Urho3D::Camera::GetGPUProjection</title>
<!-- Node1 -->
<g id="node1" class="node">
<title>Node1</title>
<g id="a_node1"><a xlink:title=" ">
<polygon fill="#999999" stroke="#666666" points="1435,-121.5 1262,-121.5 1262,-102.5 1435,-102.5 1435,-121.5"/>
<text text-anchor="middle" x="1348.5" y="-109.5" font-family="Roboto" font-size="10.00">Urho3D::Camera::GetGPUProjection</text>
</a>
</g>
</g>
<!-- Node2 -->
<g id="node2" class="node">
<title>Node2</title>
<g id="a_node2"><a xlink:href="class_urho3_d_1_1_view.html#a2dd8e9237f495ba4ec4a69b195988cfa" target="_top" xlink:title="Execute render commands.">
<polygon fill="white" stroke="#666666" points="321,-139 175,-139 175,-109 321,-109 321,-139"/>
<text text-anchor="start" x="183" y="-127" font-family="Roboto" font-size="10.00">Urho3D::View::ExecuteRender</text>
<text text-anchor="middle" x="248" y="-116" font-family="Roboto" font-size="10.00">PathCommands</text>
</a>
</g>
</g>
<!-- Node1&#45;&gt;Node2 -->
<g id="edge1" class="edge">
<title>Node1&#45;&gt;Node2</title>
<path fill="none" stroke="#63b8ff" d="M1317.14,-126.69C1293.01,-137.7 1258.1,-152.16 1226,-160 1112.5,-187.72 1081.34,-187 964.5,-187 964.5,-187 964.5,-187 626.5,-187 511.38,-187 379.18,-158.15 305.75,-139.49"/>
<polygon fill="#63b8ff" stroke="#63b8ff" points="1318.46,-129.94 1326.05,-122.55 1315.5,-123.59 1318.46,-129.94"/>
</g>
<!-- Node4 -->
<g id="node4" class="node">
<title>Node4</title>
<g id="a_node4"><a xlink:href="class_urho3_d_1_1_renderer.html#a408789b2d93f27c7884360b7ecccec55" target="_top" xlink:title="Optimize a light by marking it to the stencil buffer and setting a stencil test.">
<polygon fill="white" stroke="#666666" points="1214.5,-151 1076.5,-151 1076.5,-121 1214.5,-121 1214.5,-151"/>
<text text-anchor="start" x="1084.5" y="-139" font-family="Roboto" font-size="10.00">Urho3D::Renderer::Optimize</text>
<text text-anchor="middle" x="1145.5" y="-128" font-family="Roboto" font-size="10.00">LightByStencil</text>
</a>
</g>
</g>
<!-- Node1&#45;&gt;Node4 -->
<g id="edge3" class="edge">
<title>Node1&#45;&gt;Node4</title>
<path fill="none" stroke="#63b8ff" d="M1252.79,-123.31C1239.96,-124.84 1227.01,-126.39 1214.77,-127.85"/>
<polygon fill="#63b8ff" stroke="#63b8ff" points="1252.99,-126.81 1262.5,-122.15 1252.16,-119.86 1252.99,-126.81"/>
</g>
<!-- Node5 -->
<g id="node5" class="node">
<title>Node5</title>
<g id="a_node5"><a xlink:href="class_urho3_d_1_1_view.html#afe8c414e896c0d06ee17ed18e5ce85dd" target="_top" xlink:title="Set camera&#45;specific shader parameters. Called by Batch and internally by View.">
<polygon fill="white" stroke="#666666" points="1226,-103 1065,-103 1065,-73 1226,-73 1226,-103"/>
<text text-anchor="start" x="1073" y="-91" font-family="Roboto" font-size="10.00">Urho3D::View::SetCameraShader</text>
<text text-anchor="middle" x="1145.5" y="-80" font-family="Roboto" font-size="10.00">Parameters</text>
</a>
</g>
</g>
<!-- Node1&#45;&gt;Node5 -->
<g id="edge4" class="edge">
<title>Node1&#45;&gt;Node5</title>
<path fill="none" stroke="#63b8ff" d="M1252.79,-100.69C1243.89,-99.63 1234.93,-98.56 1226.19,-97.52"/>
<polygon fill="#63b8ff" stroke="#63b8ff" points="1252.16,-104.14 1262.5,-101.85 1252.99,-97.19 1252.16,-104.14"/>
</g>
<!-- Node12 -->
<g id="node12" class="node">
<title>Node12</title>
<g id="a_node12"><a xlink:href="class_urho3_d_1_1_debug_renderer.html#a65ddc45de33de57b41a9889fdce2363c" target="_top" xlink:title="Set the camera viewpoint. Call before rendering, or before adding geometry if you want to use culling...">
<polygon fill="white" stroke="#666666" points="1206.5,-40 1084.5,-40 1084.5,-10 1206.5,-10 1206.5,-40"/>
<text text-anchor="start" x="1092.5" y="-28" font-family="Roboto" font-size="10.00">Urho3D::DebugRenderer</text>
<text text-anchor="middle" x="1145.5" y="-17" font-family="Roboto" font-size="10.00">::SetView</text>
</a>
</g>
</g>
<!-- Node1&#45;&gt;Node12 -->
<g id="edge16" class="edge">
<title>Node1&#45;&gt;Node12</title>
<path fill="none" stroke="#63b8ff" d="M1314.33,-97.64C1277.86,-81.86 1219.51,-56.6 1182.11,-40.41"/>
<polygon fill="#63b8ff" stroke="#63b8ff" points="1312.49,-100.66 1323.05,-101.42 1315.27,-94.23 1312.49,-100.66"/>
</g>
<!-- Node3 -->
<g id="node3" class="node">
<title>Node3</title>
<g id="a_node3"><a xlink:href="class_urho3_d_1_1_view.html#a124582e02f0e82ba799467b20b162436" target="_top" xlink:title="Render batches.">
<polygon fill="white" stroke="#666666" points="125.5,-133.5 13.5,-133.5 13.5,-114.5 125.5,-114.5 125.5,-133.5"/>
<text text-anchor="middle" x="69.5" y="-121.5" font-family="Roboto" font-size="10.00">Urho3D::View::Render</text>
</a>
</g>
</g>
<!-- Node2&#45;&gt;Node3 -->
<g id="edge2" class="edge">
<title>Node2&#45;&gt;Node3</title>
<path fill="none" stroke="#63b8ff" d="M163.55,-124C150.79,-124 137.89,-124 125.93,-124"/>
<polygon fill="#63b8ff" stroke="#63b8ff" points="163.19,-127.5 173.19,-124 163.19,-120.5 163.19,-127.5"/>
</g>
<!-- Node6 -->
<g id="node6" class="node">
<title>Node6</title>
<g id="a_node6"><a xlink:href="struct_urho3_d_1_1_batch.html#ad8794a08ef43585f0c54aebf11f39e11" target="_top" xlink:title="Prepare for rendering.">
<polygon fill="white" stroke="#666666" points="1022,-110.5 905,-110.5 905,-91.5 1022,-91.5 1022,-110.5"/>
<text text-anchor="middle" x="963.5" y="-98.5" font-family="Roboto" font-size="10.00">Urho3D::Batch::Prepare</text>
</a>
</g>
</g>
<!-- Node5&#45;&gt;Node6 -->
<g id="edge5" class="edge">
<title>Node5&#45;&gt;Node6</title>
<path fill="none" stroke="#63b8ff" d="M1053.16,-94.6C1042.69,-95.35 1032.25,-96.11 1022.39,-96.82"/>
<polygon fill="#63b8ff" stroke="#63b8ff" points="1053.27,-98.1 1062.99,-93.89 1052.77,-91.12 1053.27,-98.1"/>
</g>
<!-- Node11 -->
<g id="node11" class="node">
<title>Node11</title>
<g id="a_node11"><a xlink:href="class_urho3_d_1_1_view.html#a798fe80282652472bd0fb2c0694bbfb8" target="_top" xlink:title="Perform a quad rendering command.">
<polygon fill="white" stroke="#666666" points="695,-67.5 560,-67.5 560,-48.5 695,-48.5 695,-67.5"/>
<text text-anchor="middle" x="627.5" y="-55.5" font-family="Roboto" font-size="10.00">Urho3D::View::RenderQuad</text>
</a>
</g>
</g>
<!-- Node5&#45;&gt;Node11 -->
<g id="edge14" class="edge">
<title>Node5&#45;&gt;Node11</title>
<path fill="none" stroke="#63b8ff" d="M1053.46,-82.71C950.89,-76.74 786.62,-67.19 695.27,-61.88"/>
<polygon fill="#63b8ff" stroke="#63b8ff" points="1053.03,-86.19 1063.21,-83.27 1053.43,-79.2 1053.03,-86.19"/>
</g>
<!-- Node7 -->
<g id="node7" class="node">
<title>Node7</title>
<g id="a_node7"><a xlink:href="struct_urho3_d_1_1_batch.html#add3a46f1fc8c0dd490d0cc965bec2e5b" target="_top" xlink:title="Prepare and draw.">
<polygon fill="white" stroke="#666666" points="850,-153.5 743,-153.5 743,-134.5 850,-134.5 850,-153.5"/>
<text text-anchor="middle" x="796.5" y="-141.5" font-family="Roboto" font-size="10.00">Urho3D::Batch::Draw</text>
</a>
</g>
</g>
<!-- Node6&#45;&gt;Node7 -->
<g id="edge6" class="edge">
<title>Node6&#45;&gt;Node7</title>
<path fill="none" stroke="#63b8ff" d="M913.23,-113.84C888.46,-120.3 858.89,-128 835.85,-134.01"/>
<polygon fill="#63b8ff" stroke="#63b8ff" points="913.97,-117.26 922.77,-111.35 912.21,-110.49 913.97,-117.26"/>
</g>
<!-- Node10 -->
<g id="node10" class="node">
<title>Node10</title>
<g id="a_node10"><a xlink:href="struct_urho3_d_1_1_batch_group.html#ae44c18517fde1462221ddc7c7a1b2cd4" target="_top" xlink:title="Prepare and draw.">
<polygon fill="white" stroke="#666666" points="849.5,-116 743.5,-116 743.5,-86 849.5,-86 849.5,-116"/>
<text text-anchor="start" x="751.5" y="-104" font-family="Roboto" font-size="10.00">Urho3D::BatchGroup</text>
<text text-anchor="middle" x="796.5" y="-93" font-family="Roboto" font-size="10.00">::Draw</text>
</a>
</g>
</g>
<!-- Node6&#45;&gt;Node10 -->
<g id="edge12" class="edge">
<title>Node6&#45;&gt;Node10</title>
<path fill="none" stroke="#63b8ff" d="M893.31,-101C878.79,-101 863.72,-101 849.93,-101"/>
<polygon fill="#63b8ff" stroke="#63b8ff" points="893.28,-104.5 903.28,-101 893.28,-97.5 893.28,-104.5"/>
</g>
<!-- Node8 -->
<g id="node8" class="node">
<title>Node8</title>
<g id="a_node8"><a xlink:href="struct_urho3_d_1_1_batch_queue.html#a9a3a0ba457231d2a75e65fe2a1d1d94c" target="_top" xlink:title="Draw.">
<polygon fill="white" stroke="#666666" points="681,-139 574,-139 574,-109 681,-109 681,-139"/>
<text text-anchor="start" x="582" y="-127" font-family="Roboto" font-size="10.00">Urho3D::BatchQueue</text>
<text text-anchor="middle" x="627.5" y="-116" font-family="Roboto" font-size="10.00">::Draw</text>
</a>
</g>
</g>
<!-- Node7&#45;&gt;Node8 -->
<g id="edge7" class="edge">
<title>Node7&#45;&gt;Node8</title>
<path fill="none" stroke="#63b8ff" d="M731.4,-136.32C714.84,-134.34 697.19,-132.23 681.28,-130.32"/>
<polygon fill="#63b8ff" stroke="#63b8ff" points="730.81,-139.78 741.16,-137.49 731.64,-132.83 730.81,-139.78"/>
</g>
<!-- Node8&#45;&gt;Node2 -->
<g id="edge8" class="edge">
<title>Node8&#45;&gt;Node2</title>
<path fill="none" stroke="#63b8ff" d="M562.16,-128.34C549.52,-129.03 536.35,-129.64 524,-130 449.81,-132.17 431.19,-132.06 357,-130 345.46,-129.68 333.22,-129.17 321.3,-128.57"/>
<polygon fill="#63b8ff" stroke="#63b8ff" points="562.3,-131.84 572.08,-127.78 561.9,-124.85 562.3,-131.84"/>
</g>
<!-- Node9 -->
<g id="node9" class="node">
<title>Node9</title>
<g id="a_node9"><a xlink:href="class_urho3_d_1_1_view.html#ae7e6e47346e5ff4346eb8cb251e013ef" target="_top" xlink:title="Render a shadow map.">
<polygon fill="white" stroke="#666666" points="524,-102.5 357,-102.5 357,-83.5 524,-83.5 524,-102.5"/>
<text text-anchor="middle" x="440.5" y="-90.5" font-family="Roboto" font-size="10.00">Urho3D::View::RenderShadowMap</text>
</a>
</g>
</g>
<!-- Node8&#45;&gt;Node9 -->
<g id="edge9" class="edge">
<title>Node8&#45;&gt;Node9</title>
<path fill="none" stroke="#63b8ff" d="M562.77,-113.32C542.74,-109.97 520.72,-106.27 500.99,-102.97"/>
<polygon fill="#63b8ff" stroke="#63b8ff" points="562.05,-116.75 572.49,-114.95 563.2,-109.84 562.05,-116.75"/>
</g>
<!-- Node9&#45;&gt;Node2 -->
<g id="edge10" class="edge">
<title>Node9&#45;&gt;Node2</title>
<path fill="none" stroke="#63b8ff" d="M366.9,-104.81C351.92,-107.25 336.14,-109.82 321.17,-112.26"/>
<polygon fill="#63b8ff" stroke="#63b8ff" points="367.37,-108.28 376.68,-103.22 366.25,-101.37 367.37,-108.28"/>
</g>
<!-- Node9&#45;&gt;Node9 -->
<g id="edge11" class="edge">
<title>Node9&#45;&gt;Node9</title>
<path fill="none" stroke="#63b8ff" d="M474.34,-113.26C470.78,-117.47 459.5,-120.5 440.5,-120.5 407.63,-120.5 397.87,-111.44 411.22,-102.87"/>
<polygon fill="#63b8ff" stroke="#63b8ff" points="477.61,-112 470.38,-104.25 471.2,-114.82 477.61,-112"/>
</g>
<!-- Node10&#45;&gt;Node8 -->
<g id="edge13" class="edge">
<title>Node10&#45;&gt;Node8</title>
<path fill="none" stroke="#63b8ff" d="M731.79,-109.78C715.11,-112.07 697.31,-114.52 681.27,-116.73"/>
<polygon fill="#63b8ff" stroke="#63b8ff" points="732.19,-113.25 741.62,-108.42 731.23,-106.32 732.19,-113.25"/>
</g>
<!-- Node11&#45;&gt;Node2 -->
<g id="edge15" class="edge">
<title>Node11&#45;&gt;Node2</title>
<path fill="none" stroke="#63b8ff" d="M548.27,-55.52C493.86,-55.59 420.06,-59.27 357,-75 327.83,-82.28 296.81,-97.19 275.53,-108.66"/>
<polygon fill="#63b8ff" stroke="#63b8ff" points="548.05,-59.02 558.06,-55.56 548.08,-52.02 548.05,-59.02"/>
</g>
<!-- Node13 -->
<g id="node13" class="node">
<title>Node13</title>
<g id="a_node13"><a xlink:href="class_urho3_d_1_1_renderer.html#a0fa71f5839321a9d68def7a2978f452a" target="_top" xlink:title="Update a queued viewport for rendering.">
<polygon fill="white" stroke="#666666" points="1029,-30 898,-30 898,0 1029,0 1029,-30"/>
<text text-anchor="start" x="906" y="-18" font-family="Roboto" font-size="10.00">Urho3D::Renderer::Update</text>
<text text-anchor="middle" x="963.5" y="-7" font-family="Roboto" font-size="10.00">QueuedViewport</text>
</a>
</g>
</g>
<!-- Node12&#45;&gt;Node13 -->
<g id="edge17" class="edge">
<title>Node12&#45;&gt;Node13</title>
<path fill="none" stroke="#63b8ff" d="M1072.75,-21.01C1058.43,-20.22 1043.48,-19.39 1029.41,-18.61"/>
<polygon fill="#63b8ff" stroke="#63b8ff" points="1072.37,-24.5 1082.55,-21.56 1072.76,-17.51 1072.37,-24.5"/>
</g>
<!-- Node14 -->
<g id="node14" class="node">
<title>Node14</title>
<g id="a_node14"><a xlink:href="class_urho3_d_1_1_renderer.html#a993f63f35d27a9ea6df861962018f354" target="_top" xlink:title="Update for rendering. Called by HandleRenderUpdate().">
<polygon fill="white" stroke="#666666" points="862,-24.5 731,-24.5 731,-5.5 862,-5.5 862,-24.5"/>
<text text-anchor="middle" x="796.5" y="-12.5" font-family="Roboto" font-size="10.00">Urho3D::Renderer::Update</text>
</a>
</g>
</g>
<!-- Node13&#45;&gt;Node14 -->
<g id="edge18" class="edge">
<title>Node13&#45;&gt;Node14</title>
<path fill="none" stroke="#63b8ff" d="M886.45,-15C878.39,-15 870.24,-15 862.32,-15"/>
<polygon fill="#63b8ff" stroke="#63b8ff" points="886.25,-18.5 896.25,-15 886.25,-11.5 886.25,-18.5"/>
</g>
<!-- Node15 -->
<g id="node15" class="node">
<title>Node15</title>
<g id="a_node15"><a xlink:href="class_urho3_d_1_1_renderer.html#adf594e7a524f6e003e8370cf23dbee13" target="_top" xlink:title="Handle render update event.">
<polygon fill="white" stroke="#666666" points="693,-30 562,-30 562,0 693,0 693,-30"/>
<text text-anchor="start" x="570" y="-18" font-family="Roboto" font-size="10.00">Urho3D::Renderer::Handle</text>
<text text-anchor="middle" x="627.5" y="-7" font-family="Roboto" font-size="10.00">RenderUpdate</text>
</a>
</g>
</g>
<!-- Node14&#45;&gt;Node15 -->
<g id="edge19" class="edge">
<title>Node14&#45;&gt;Node15</title>
<path fill="none" stroke="#63b8ff" d="M719.56,-15C710.84,-15 702.01,-15 693.45,-15"/>
<polygon fill="#63b8ff" stroke="#63b8ff" points="719.42,-18.5 729.42,-15 719.42,-11.5 719.42,-18.5"/>
</g>
<!-- Node16 -->
<g id="node16" class="node">
<title>Node16</title>
<g id="a_node16"><a xlink:href="class_urho3_d_1_1_renderer.html#ae0d765a240f7cf5f829ddc95cb2729c9" target="_top" xlink:title="Initialize when screen mode initially set.">
<polygon fill="white" stroke="#666666" points="508,-24.5 373,-24.5 373,-5.5 508,-5.5 508,-24.5"/>
<text text-anchor="middle" x="440.5" y="-12.5" font-family="Roboto" font-size="10.00">Urho3D::Renderer::Initialize</text>
</a>
</g>
</g>
<!-- Node15&#45;&gt;Node16 -->
<g id="edge20" class="edge">
<title>Node15&#45;&gt;Node16</title>
<path fill="none" stroke="#63b8ff" d="M550.44,-15C536.43,-15 521.89,-15 508.19,-15"/>
<polygon fill="#63b8ff" stroke="#63b8ff" points="550.02,-18.5 560.02,-15 550.02,-11.5 550.02,-18.5"/>
</g>
<!-- Node17 -->
<g id="node17" class="node">
<title>Node17</title>
<g id="a_node17"><a xlink:href="class_urho3_d_1_1_renderer.html#ade42fa3aa8f7f48620bffc61ab32c635" target="_top" xlink:title="Handle screen mode event.">
<polygon fill="white" stroke="#666666" points="313.5,-66 182.5,-66 182.5,-36 313.5,-36 313.5,-66"/>
<text text-anchor="start" x="190.5" y="-54" font-family="Roboto" font-size="10.00">Urho3D::Renderer::Handle</text>
<text text-anchor="middle" x="248" y="-43" font-family="Roboto" font-size="10.00">ScreenMode</text>
</a>
</g>
</g>
<!-- Node16&#45;&gt;Node17 -->
<g id="edge21" class="edge">
<title>Node16&#45;&gt;Node17</title>
<path fill="none" stroke="#63b8ff" d="M375.56,-27.08C355.68,-30.84 333.74,-34.99 313.8,-38.75"/>
<polygon fill="#63b8ff" stroke="#63b8ff" points="376.02,-30.56 385.2,-25.26 374.72,-23.68 376.02,-30.56"/>
</g>
<!-- Node18 -->
<g id="node18" class="node">
<title>Node18</title>
<g id="a_node18"><a xlink:href="class_urho3_d_1_1_renderer.html#a8e41f9dda2e33e9e208c5ccfd0d1c6ac" target="_top" xlink:title="Construct.">
<polygon fill="white" stroke="#666666" points="139,-39.5 0,-39.5 0,-20.5 139,-20.5 139,-39.5"/>
<text text-anchor="middle" x="69.5" y="-27.5" font-family="Roboto" font-size="10.00">Urho3D::Renderer::Renderer</text>
</a>
</g>
</g>
<!-- Node16&#45;&gt;Node18 -->
<g id="edge23" class="edge">
<title>Node16&#45;&gt;Node18</title>
<path fill="none" stroke="#63b8ff" d="M361.54,-18.17C295.73,-20.84 202.41,-24.64 139.33,-27.2"/>
<polygon fill="#63b8ff" stroke="#63b8ff" points="361.32,-21.68 371.16,-17.78 361.03,-14.69 361.32,-21.68"/>
</g>
<!-- Node17&#45;&gt;Node18 -->
<g id="edge22" class="edge">
<title>Node17&#45;&gt;Node18</title>
<path fill="none" stroke="#63b8ff" d="M170.84,-41.94C160.42,-40.7 149.77,-39.43 139.48,-38.21"/>
<polygon fill="#63b8ff" stroke="#63b8ff" points="170.18,-45.38 180.53,-43.09 171.01,-38.43 170.18,-45.38"/>
</g>
</g>
</svg>
