<?xml version="1.0" encoding="UTF-8" standalone="no"?>
<!DOCTYPE svg PUBLIC "-//W3C//DTD SVG 1.1//EN"
 "http://www.w3.org/Graphics/SVG/1.1/DTD/svg11.dtd">
<!-- Generated by graphviz version 7.0.3 (0)
 -->
<!-- Title: Urho3D::Console::SetNumRows Pages: 1 -->
<svg width="1073pt" height="801pt"
 viewBox="0.00 0.00 1073.00 800.68" xmlns="http://www.w3.org/2000/svg" xmlns:xlink="http://www.w3.org/1999/xlink">
<g id="graph0" class="graph" transform="scale(1 1) rotate(0) translate(4 796.68)">
<title>Urho3D::Console::SetNumRows</title>
<!-- Node1 -->
<g id="node1" class="node">
<title>Node1</title>
<g id="a_node1"><a xlink:title=" ">
<polygon fill="#999999" stroke="#666666" points="157,-406 0,-406 0,-387 157,-387 157,-406"/>
<text text-anchor="middle" x="78.5" y="-394" font-family="Roboto" font-size="10.00">Urho3D::Console::SetNumRows</text>
</a>
</g>
</g>
<!-- Node2 -->
<g id="node2" class="node">
<title>Node2</title>
<g id="a_node2"><a xlink:href="class_urho3_d_1_1_console.html#a13476aa3348e2965240853b8a8fa9a0a" target="_top" xlink:title=" ">
<polygon fill="white" stroke="#666666" points="388,-462 193,-462 193,-443 388,-443 388,-462"/>
<text text-anchor="middle" x="290.5" y="-450" font-family="Roboto" font-size="10.00">Urho3D::Console::GetNumBufferedRows</text>
</a>
</g>
</g>
<!-- Node1&#45;&gt;Node2 -->
<g id="edge1" class="edge">
<title>Node1&#45;&gt;Node2</title>
<path fill="none" stroke="#63b8ff" d="M116.56,-406.38C151.28,-415.64 203.38,-429.53 241.31,-439.65"/>
<polygon fill="#63b8ff" stroke="#63b8ff" points="240.08,-442.94 250.64,-442.14 241.88,-436.18 240.08,-442.94"/>
</g>
<!-- Node4 -->
<g id="node4" class="node">
<title>Node4</title>
<g id="a_node4"><a xlink:href="class_urho3_d_1_1_console.html#a18546b712ec118a256122c627696662e" target="_top" xlink:title=" ">
<polygon fill="white" stroke="#666666" points="387.5,-406 193.5,-406 193.5,-387 387.5,-387 387.5,-406"/>
<text text-anchor="middle" x="290.5" y="-394" font-family="Roboto" font-size="10.00">Urho3D::Console::SetNumBufferedRows</text>
</a>
</g>
</g>
<!-- Node1&#45;&gt;Node4 -->
<g id="edge3" class="edge">
<title>Node1&#45;&gt;Node4</title>
<path fill="none" stroke="#63b8ff" d="M157.4,-396.5C165.42,-396.5 173.67,-396.5 181.95,-396.5"/>
<polygon fill="#63b8ff" stroke="#63b8ff" points="181.71,-400 191.71,-396.5 181.71,-393 181.71,-400"/>
</g>
<!-- Node95 -->
<g id="node20" class="node">
<title>Node95</title>
<g id="a_node20"><a xlink:href="class_urho3_d_1_1_console.html#a34c1811446ef1218f69c6a40b8898e80" target="_top" xlink:title="Update elements to layout properly. Call this after manually adjusting the sub&#45;elements.">
<polygon fill="white" stroke="#666666" points="593,-214 424,-214 424,-195 593,-195 593,-214"/>
<text text-anchor="middle" x="508.5" y="-202" font-family="Roboto" font-size="10.00">Urho3D::Console::UpdateElements</text>
</a>
</g>
</g>
<!-- Node1&#45;&gt;Node95 -->
<g id="edge41" class="edge">
<title>Node1&#45;&gt;Node95</title>
<path fill="none" stroke="#63b8ff" d="M101.2,-386.51C155.47,-361.56 301.49,-294.64 424,-240.5 440.27,-233.31 458.39,-225.48 473.58,-218.96"/>
<polygon fill="#63b8ff" stroke="#63b8ff" points="474.85,-222.22 482.66,-215.07 472.09,-215.79 474.85,-222.22"/>
</g>
<!-- Node3 -->
<g id="node3" class="node">
<title>Node3</title>
<g id="a_node3"><a xlink:href="class_urho3_d_1_1_list_view.html#a49abcdd3ab8c9142b09df967c3fe7e9e" target="_top" xlink:title=" ">
<polygon fill="white" stroke="#666666" points="770,-452.5 637,-452.5 637,-422.5 770,-422.5 770,-452.5"/>
<text text-anchor="start" x="645" y="-440.5" font-family="Roboto" font-size="10.00">Urho3D::ListView::GetNum</text>
<text text-anchor="middle" x="703.5" y="-429.5" font-family="Roboto" font-size="10.00">Items</text>
</a>
</g>
</g>
<!-- Node2&#45;&gt;Node3 -->
<g id="edge2" class="edge">
<title>Node2&#45;&gt;Node3</title>
<path fill="none" stroke="#63b8ff" d="M388.32,-453.35C447.48,-453.34 524.66,-452.38 593,-448.5 603.48,-447.91 614.5,-447.06 625.35,-446.1"/>
<polygon fill="#63b8ff" stroke="#63b8ff" points="625.42,-449.61 635.06,-445.2 624.78,-442.64 625.42,-449.61"/>
</g>
<!-- Node4&#45;&gt;Node3 -->
<g id="edge10" class="edge">
<title>Node4&#45;&gt;Node3</title>
<path fill="none" stroke="#63b8ff" d="M384.87,-406.47C398.01,-407.84 411.34,-409.22 424,-410.5 492.05,-417.39 569.49,-424.87 625.41,-430.21"/>
<polygon fill="#63b8ff" stroke="#63b8ff" points="624.85,-433.67 635.14,-431.13 625.52,-426.7 624.85,-433.67"/>
</g>
<!-- Node5 -->
<g id="node5" class="node">
<title>Node5</title>
<g id="a_node5"><a xlink:href="class_urho3_d_1_1_u_i_element.html#a7e286d16e39b54282ca0d64666d26b67" target="_top" xlink:title="Disable automatic layout update. Should only be used if there are performance problems.">
<polygon fill="white" stroke="#666666" points="1065,-624.5 955,-624.5 955,-594.5 1065,-594.5 1065,-624.5"/>
<text text-anchor="start" x="963" y="-612.5" font-family="Roboto" font-size="10.00">Urho3D::UIElement::</text>
<text text-anchor="middle" x="1010" y="-601.5" font-family="Roboto" font-size="10.00">DisableLayoutUpdate</text>
</a>
</g>
</g>
<!-- Node4&#45;&gt;Node5 -->
<g id="edge4" class="edge">
<title>Node4&#45;&gt;Node5</title>
<path fill="none" stroke="#63b8ff" d="M342.96,-406.42C359.54,-412.05 376.56,-420.83 388,-434.5 440.34,-497.08 379.32,-546.24 424,-614.5 484.84,-707.45 523.02,-724.19 629,-757.5 752,-796.16 807.63,-814.47 919,-749.5 962.54,-724.1 988.53,-668.32 1000.67,-635.35"/>
<polygon fill="#63b8ff" stroke="#63b8ff" points="1003.89,-636.75 1003.89,-626.15 997.28,-634.43 1003.89,-636.75"/>
</g>
<!-- Node6 -->
<g id="node6" class="node">
<title>Node6</title>
<g id="a_node6"><a xlink:href="class_urho3_d_1_1_u_i_element.html#a952c4e37f3ee8fe5615791389d03f813" target="_top" xlink:title="Enable automatic layout update.">
<polygon fill="white" stroke="#666666" points="1063.5,-347.5 956.5,-347.5 956.5,-317.5 1063.5,-317.5 1063.5,-347.5"/>
<text text-anchor="start" x="964.5" y="-335.5" font-family="Roboto" font-size="10.00">Urho3D::UIElement::</text>
<text text-anchor="middle" x="1010" y="-324.5" font-family="Roboto" font-size="10.00">EnableLayoutUpdate</text>
</a>
</g>
</g>
<!-- Node4&#45;&gt;Node6 -->
<g id="edge5" class="edge">
<title>Node4&#45;&gt;Node6</title>
<path fill="none" stroke="#63b8ff" d="M303.06,-386.71C332.64,-361.76 409.77,-297.42 424,-292.5 607.76,-228.99 842.94,-282.51 950.54,-313.79"/>
<polygon fill="#63b8ff" stroke="#63b8ff" points="949.44,-317.11 960.02,-316.59 951.42,-310.4 949.44,-317.11"/>
</g>
<!-- Node7 -->
<g id="node7" class="node">
<title>Node7</title>
<g id="a_node7"><a xlink:href="class_urho3_d_1_1_list_view.html#a5f380aa477866c4d1ab390844e22c176" target="_top" xlink:title="Ensure full visibility of the item.">
<polygon fill="white" stroke="#666666" points="571.5,-350.5 445.5,-350.5 445.5,-320.5 571.5,-320.5 571.5,-350.5"/>
<text text-anchor="start" x="453.5" y="-338.5" font-family="Roboto" font-size="10.00">Urho3D::ListView::Ensure</text>
<text text-anchor="middle" x="508.5" y="-327.5" font-family="Roboto" font-size="10.00">ItemVisibility</text>
</a>
</g>
</g>
<!-- Node4&#45;&gt;Node7 -->
<g id="edge6" class="edge">
<title>Node4&#45;&gt;Node7</title>
<path fill="none" stroke="#63b8ff" d="M326.68,-386.56C357.8,-377.78 404.02,-364.72 441.93,-354.02"/>
<polygon fill="#63b8ff" stroke="#63b8ff" points="442.77,-357.42 451.44,-351.33 440.86,-350.68 442.77,-357.42"/>
</g>
<!-- Node8 -->
<g id="node8" class="node">
<title>Node8</title>
<g id="a_node8"><a xlink:href="class_urho3_d_1_1_list_view.html#a4e9b0b83c0d6a22b6b75086b9c89fa31" target="_top" xlink:title=" ">
<polygon fill="white" stroke="#666666" points="769,-366 638,-366 638,-347 769,-347 769,-366"/>
<text text-anchor="middle" x="703.5" y="-354" font-family="Roboto" font-size="10.00">Urho3D::ListView::GetItem</text>
</a>
</g>
</g>
<!-- Node4&#45;&gt;Node8 -->
<g id="edge9" class="edge">
<title>Node4&#45;&gt;Node8</title>
<path fill="none" stroke="#63b8ff" d="M302.1,-386.58C323.26,-367.54 373.12,-326.42 424,-311.5 496.08,-290.37 520.49,-291.9 593,-311.5 610.88,-316.33 612.1,-324.92 629,-332.5 637.53,-336.33 646.86,-339.85 655.93,-342.95"/>
<polygon fill="#63b8ff" stroke="#63b8ff" points="654.75,-346.25 665.34,-346.04 656.93,-339.6 654.75,-346.25"/>
</g>
<!-- Node9 -->
<g id="node9" class="node">
<title>Node9</title>
<g id="a_node9"><a xlink:href="class_urho3_d_1_1_list_view.html#aeb784361fd2f048e99d554b6c4375e07" target="_top" xlink:title="Insert item at a specific index. In hierarchy mode, the optional parameter will be used to determine ...">
<polygon fill="#fff0f0" stroke="red" points="579.5,-605 437.5,-605 437.5,-586 579.5,-586 579.5,-605"/>
<text text-anchor="middle" x="508.5" y="-593" font-family="Roboto" font-size="10.00">Urho3D::ListView::InsertItem</text>
</a>
</g>
</g>
<!-- Node4&#45;&gt;Node9 -->
<g id="edge11" class="edge">
<title>Node4&#45;&gt;Node9</title>
<path fill="none" stroke="#63b8ff" d="M338.26,-406.36C355.74,-412.07 374.59,-420.92 388,-434.5 419.72,-466.63 397.32,-493.07 424,-529.5 439.04,-550.03 462.06,-567.58 480.13,-579.4"/>
<polygon fill="#63b8ff" stroke="#63b8ff" points="478.23,-582.34 488.56,-584.72 481.97,-576.42 478.23,-582.34"/>
</g>
<!-- Node51 -->
<g id="node16" class="node">
<title>Node51</title>
<g id="a_node16"><a xlink:href="class_urho3_d_1_1_u_i_element.html#a7cba78373c23a734a1ccd2d4a27d8cb0" target="_top" xlink:title="Manually update layout. Should not be necessary in most cases, but is provided for completeness.">
<polygon fill="#fff0f0" stroke="red" points="919,-409.5 814,-409.5 814,-379.5 919,-379.5 919,-409.5"/>
<text text-anchor="start" x="822" y="-397.5" font-family="Roboto" font-size="10.00">Urho3D::UIElement::</text>
<text text-anchor="middle" x="866.5" y="-386.5" font-family="Roboto" font-size="10.00">UpdateLayout</text>
</a>
</g>
</g>
<!-- Node4&#45;&gt;Node51 -->
<g id="edge40" class="edge">
<title>Node4&#45;&gt;Node51</title>
<path fill="none" stroke="#63b8ff" d="M387.9,-396.16C505.85,-395.75 702.19,-395.07 802.42,-394.72"/>
<polygon fill="#63b8ff" stroke="#63b8ff" points="802.36,-398.22 812.35,-394.68 802.34,-391.22 802.36,-398.22"/>
</g>
<!-- Node91 -->
<g id="node19" class="node">
<title>Node91</title>
<g id="a_node19"><a xlink:href="class_urho3_d_1_1_list_view.html#a2c7adecbfcfc748d393a79f945d84faf" target="_top" xlink:title="Remove specific item, starting search at the specified index if provided. In hierarchy mode will also...">
<polygon fill="#fff0f0" stroke="red" points="584.5,-520 432.5,-520 432.5,-501 584.5,-501 584.5,-520"/>
<text text-anchor="middle" x="508.5" y="-508" font-family="Roboto" font-size="10.00">Urho3D::ListView::RemoveItem</text>
</a>
</g>
</g>
<!-- Node4&#45;&gt;Node91 -->
<g id="edge26" class="edge">
<title>Node4&#45;&gt;Node91</title>
<path fill="none" stroke="#63b8ff" d="M320.85,-406.4C340.31,-413.36 366.18,-423.39 388,-434.5 423.28,-452.46 461.45,-477.89 484.92,-494.29"/>
<polygon fill="#63b8ff" stroke="#63b8ff" points="482.6,-496.94 492.79,-499.84 486.64,-491.22 482.6,-496.94"/>
</g>
<!-- Node4&#45;&gt;Node95 -->
<g id="edge31" class="edge">
<title>Node4&#45;&gt;Node95</title>
<path fill="none" stroke="#63b8ff" d="M303.47,-386.54C322.75,-370.12 361.22,-335.77 388,-301.5 407.38,-276.69 400.38,-261.31 424,-240.5 434.55,-231.2 447.86,-224.02 460.74,-218.6"/>
<polygon fill="#63b8ff" stroke="#63b8ff" points="461.93,-221.9 469.98,-215.01 459.39,-215.37 461.93,-221.9"/>
</g>
<!-- Node7&#45;&gt;Node7 -->
<g id="edge7" class="edge">
<title>Node7&#45;&gt;Node7</title>
<path fill="none" stroke="#63b8ff" d="M474.22,-350.78C466.61,-359.91 478.03,-368.5 508.5,-368.5 525.16,-368.5 536.13,-365.93 541.4,-362.11"/>
<polygon fill="#63b8ff" stroke="#63b8ff" points="544.86,-362.63 542.59,-352.28 537.92,-361.78 544.86,-362.63"/>
</g>
<!-- Node7&#45;&gt;Node8 -->
<g id="edge8" class="edge">
<title>Node7&#45;&gt;Node8</title>
<path fill="none" stroke="#63b8ff" d="M571.9,-342.29C589.23,-344.18 608.26,-346.25 626.29,-348.21"/>
<polygon fill="#63b8ff" stroke="#63b8ff" points="625.84,-351.68 636.16,-349.28 626.6,-344.72 625.84,-351.68"/>
</g>
<!-- Node10 -->
<g id="node10" class="node">
<title>Node10</title>
<g id="a_node10"><a xlink:href="class_urho3_d_1_1_p_o_d_vector.html#a5be72d35fc52d2623985f20b95855d10" target="_top" xlink:title="Return whether vector is empty.">
<polygon fill="white" stroke="#666666" points="757.5,-548.5 649.5,-548.5 649.5,-518.5 757.5,-518.5 757.5,-548.5"/>
<text text-anchor="start" x="657.5" y="-536.5" font-family="Roboto" font-size="10.00">Urho3D::PODVector::</text>
<text text-anchor="middle" x="703.5" y="-525.5" font-family="Roboto" font-size="10.00">Empty</text>
</a>
</g>
</g>
<!-- Node9&#45;&gt;Node10 -->
<g id="edge12" class="edge">
<title>Node9&#45;&gt;Node10</title>
<path fill="none" stroke="#63b8ff" d="M540.51,-585.54C568.3,-576.61 609.8,-563.28 643.84,-552.34"/>
<polygon fill="#63b8ff" stroke="#63b8ff" points="644.71,-555.74 653.16,-549.35 642.57,-549.08 644.71,-555.74"/>
</g>
<!-- Node11 -->
<g id="node11" class="node">
<title>Node11</title>
<g id="a_node11"><a xlink:href="class_urho3_d_1_1_list_view.html#ae2921128849b9ff41009cd07ea825cfd" target="_top" xlink:title="Return index of item, or M_MAX_UNSIGNED If not found.">
<polygon fill="#fff0f0" stroke="red" points="771,-748 636,-748 636,-729 771,-729 771,-748"/>
<text text-anchor="middle" x="703.5" y="-736" font-family="Roboto" font-size="10.00">Urho3D::ListView::FindItem</text>
</a>
</g>
</g>
<!-- Node9&#45;&gt;Node11 -->
<g id="edge13" class="edge">
<title>Node9&#45;&gt;Node11</title>
<path fill="none" stroke="#63b8ff" d="M516.73,-605.36C533.77,-627.93 578.81,-683.77 629,-714.5 635.46,-718.46 642.65,-721.83 649.92,-724.7"/>
<polygon fill="#63b8ff" stroke="#63b8ff" points="648.55,-727.92 659.15,-728.02 650.92,-721.34 648.55,-727.92"/>
</g>
<!-- Node13 -->
<g id="node13" class="node">
<title>Node13</title>
<g id="a_node13"><a xlink:href="class_urho3_d_1_1_u_i_element.html#a2213dfdd16c9f98be3696a23cdd31388" target="_top" xlink:title=" ">
<polygon fill="white" stroke="#666666" points="919,-710.5 814,-710.5 814,-680.5 919,-680.5 919,-710.5"/>
<text text-anchor="start" x="822" y="-698.5" font-family="Roboto" font-size="10.00">Urho3D::UIElement::</text>
<text text-anchor="middle" x="866.5" y="-687.5" font-family="Roboto" font-size="10.00">GetParent</text>
</a>
</g>
</g>
<!-- Node9&#45;&gt;Node13 -->
<g id="edge17" class="edge">
<title>Node9&#45;&gt;Node13</title>
<path fill="none" stroke="#63b8ff" d="M518.91,-605.27C537.74,-624.07 582.28,-664.89 629,-681.5 685.15,-701.46 753.5,-703.31 802.25,-701.16"/>
<polygon fill="#63b8ff" stroke="#63b8ff" points="802.26,-704.66 812.07,-700.65 801.9,-697.67 802.26,-704.66"/>
</g>
<!-- Node17 -->
<g id="node14" class="node">
<title>Node17</title>
<g id="a_node14"><a xlink:href="class_urho3_d_1_1_u_i_element.html#a7492d01d288cb54c5e68dbcb06926b3c" target="_top" xlink:title=" ">
<polygon fill="white" stroke="#666666" points="756,-500.5 651,-500.5 651,-470.5 756,-470.5 756,-500.5"/>
<text text-anchor="start" x="659" y="-488.5" font-family="Roboto" font-size="10.00">Urho3D::UIElement::</text>
<text text-anchor="middle" x="703.5" y="-477.5" font-family="Roboto" font-size="10.00">GetIndent</text>
</a>
</g>
</g>
<!-- Node9&#45;&gt;Node17 -->
<g id="edge16" class="edge">
<title>Node9&#45;&gt;Node17</title>
<path fill="none" stroke="#63b8ff" d="M520.6,-585.68C540.85,-568.21 585.69,-531.48 629,-509.5 632.62,-507.66 636.42,-505.92 640.3,-504.28"/>
<polygon fill="#63b8ff" stroke="#63b8ff" points="641.25,-507.67 649.27,-500.74 638.68,-501.15 641.25,-507.67"/>
</g>
<!-- Node18 -->
<g id="node15" class="node">
<title>Node18</title>
<g id="a_node15"><a xlink:href="class_urho3_d_1_1_u_i_element.html#afca95d8f1971fbbdcf725f715cc8c7a9" target="_top" xlink:title="Insert a child element into a specific position in the child list.">
<polygon fill="#fff0f0" stroke="red" points="756,-672.5 651,-672.5 651,-642.5 756,-642.5 756,-672.5"/>
<text text-anchor="start" x="659" y="-660.5" font-family="Roboto" font-size="10.00">Urho3D::UIElement::</text>
<text text-anchor="middle" x="703.5" y="-649.5" font-family="Roboto" font-size="10.00">InsertChild</text>
</a>
</g>
</g>
<!-- Node9&#45;&gt;Node18 -->
<g id="edge18" class="edge">
<title>Node9&#45;&gt;Node18</title>
<path fill="none" stroke="#63b8ff" d="M540.51,-605.46C568.3,-614.39 609.8,-627.72 643.84,-638.66"/>
<polygon fill="#63b8ff" stroke="#63b8ff" points="642.57,-641.92 653.16,-641.65 644.71,-635.26 642.57,-641.92"/>
</g>
<!-- Node73 -->
<g id="node17" class="node">
<title>Node73</title>
<g id="a_node17"><a xlink:href="class_urho3_d_1_1_u_i_element.html#a8d8ba4e0f53c653b1defd109f5335246" target="_top" xlink:title=" ">
<polygon fill="white" stroke="#666666" points="1062.5,-257.5 957.5,-257.5 957.5,-227.5 1062.5,-227.5 1062.5,-257.5"/>
<text text-anchor="start" x="965.5" y="-245.5" font-family="Roboto" font-size="10.00">Urho3D::UIElement::</text>
<text text-anchor="middle" x="1010" y="-234.5" font-family="Roboto" font-size="10.00">IsVisible</text>
</a>
</g>
</g>
<!-- Node9&#45;&gt;Node73 -->
<g id="edge25" class="edge">
<title>Node9&#45;&gt;Node73</title>
<path fill="none" stroke="#63b8ff" d="M579.7,-594.55C649.57,-592.07 750.29,-583.87 778,-557.5 839.31,-499.15 766.91,-440.83 814,-370.5 848.73,-318.63 912.34,-282.82 957.45,-262.53"/>
<polygon fill="#63b8ff" stroke="#63b8ff" points="958.77,-265.77 966.53,-258.56 955.97,-259.36 958.77,-265.77"/>
</g>
<!-- Node77 -->
<g id="node18" class="node">
<title>Node77</title>
<g id="a_node18"><a xlink:href="class_urho3_d_1_1_list_view.html#ae4d576ff2f5cded408a02933d8984d80" target="_top" xlink:title="Return whether an item at index has its children expanded (in hierarchy mode only).">
<polygon fill="white" stroke="#666666" points="778,-624 629,-624 629,-605 778,-605 778,-624"/>
<text text-anchor="middle" x="703.5" y="-612" font-family="Roboto" font-size="10.00">Urho3D::ListView::IsExpanded</text>
</a>
</g>
</g>
<!-- Node9&#45;&gt;Node77 -->
<g id="edge24" class="edge">
<title>Node9&#45;&gt;Node77</title>
<path fill="none" stroke="#63b8ff" d="M580,-602.44C592.12,-603.63 604.83,-604.88 617.28,-606.11"/>
<polygon fill="#63b8ff" stroke="#63b8ff" points="616.83,-609.58 627.12,-607.08 617.51,-602.62 616.83,-609.58"/>
</g>
<!-- Node12 -->
<g id="node12" class="node">
<title>Node12</title>
<g id="a_node12"><a xlink:href="class_urho3_d_1_1_u_i_element.html#a74426efba577c8b92f7b49c307d7a446" target="_top" xlink:title=" ">
<polygon fill="white" stroke="#666666" points="1062.5,-409.5 957.5,-409.5 957.5,-379.5 1062.5,-379.5 1062.5,-409.5"/>
<text text-anchor="start" x="965.5" y="-397.5" font-family="Roboto" font-size="10.00">Urho3D::UIElement::</text>
<text text-anchor="middle" x="1010" y="-386.5" font-family="Roboto" font-size="10.00">GetHeight</text>
</a>
</g>
</g>
<!-- Node11&#45;&gt;Node12 -->
<g id="edge14" class="edge">
<title>Node11&#45;&gt;Node12</title>
<path fill="none" stroke="#63b8ff" d="M751.26,-748.45C799.04,-755.7 872.61,-758.44 919,-719.5 966.23,-679.85 938.61,-644.95 955,-585.5 971.28,-526.45 990.99,-457.31 1001.51,-420.57"/>
<polygon fill="#63b8ff" stroke="#63b8ff" points="1004.78,-421.86 1004.17,-411.29 998.05,-419.93 1004.78,-421.86"/>
</g>
<!-- Node11&#45;&gt;Node13 -->
<g id="edge15" class="edge">
<title>Node11&#45;&gt;Node13</title>
<path fill="none" stroke="#63b8ff" d="M741.84,-728.53C759.95,-723.69 782.2,-717.75 802.81,-712.24"/>
<polygon fill="#63b8ff" stroke="#63b8ff" points="803.51,-715.68 812.27,-709.72 801.7,-708.92 803.51,-715.68"/>
</g>
<!-- Node18&#45;&gt;Node51 -->
<g id="edge19" class="edge">
<title>Node18&#45;&gt;Node51</title>
<path fill="none" stroke="#63b8ff" d="M756.46,-647.16C764.37,-643.81 771.92,-639.37 778,-633.5 838.96,-574.66 857.69,-469.88 863.25,-420.99"/>
<polygon fill="#63b8ff" stroke="#63b8ff" points="866.7,-421.63 864.24,-411.33 859.74,-420.92 866.7,-421.63"/>
</g>
<!-- Node51&#45;&gt;Node5 -->
<g id="edge20" class="edge">
<title>Node51&#45;&gt;Node5</title>
<path fill="none" stroke="#63b8ff" d="M877.68,-409.96C901.9,-446.76 963.14,-539.82 992.63,-584.63"/>
<polygon fill="#63b8ff" stroke="#63b8ff" points="989.66,-586.48 998.08,-592.91 995.51,-582.64 989.66,-586.48"/>
</g>
<!-- Node51&#45;&gt;Node6 -->
<g id="edge21" class="edge">
<title>Node51&#45;&gt;Node6</title>
<path fill="none" stroke="#63b8ff" d="M902.84,-379.01C921.3,-370.93 944.09,-360.94 963.81,-352.3"/>
<polygon fill="#63b8ff" stroke="#63b8ff" points="964.97,-355.61 972.72,-348.4 962.16,-349.2 964.97,-355.61"/>
</g>
<!-- Node51&#45;&gt;Node12 -->
<g id="edge22" class="edge">
<title>Node51&#45;&gt;Node12</title>
<path fill="none" stroke="#63b8ff" d="M919.39,-394.5C927.94,-394.5 936.89,-394.5 945.69,-394.5"/>
<polygon fill="#63b8ff" stroke="#63b8ff" points="945.61,-398 955.61,-394.5 945.61,-391 945.61,-398"/>
</g>
<!-- Node51&#45;&gt;Node73 -->
<g id="edge23" class="edge">
<title>Node51&#45;&gt;Node73</title>
<path fill="none" stroke="#63b8ff" d="M881.85,-379.09C906.64,-352.46 957.64,-297.67 986.96,-266.17"/>
<polygon fill="#63b8ff" stroke="#63b8ff" points="989.33,-268.76 993.58,-259.06 984.21,-263.99 989.33,-268.76"/>
</g>
<!-- Node91&#45;&gt;Node3 -->
<g id="edge30" class="edge">
<title>Node91&#45;&gt;Node3</title>
<path fill="none" stroke="#63b8ff" d="M554.26,-500.54C567.09,-496.91 580.87,-492.26 593,-486.5 610.6,-478.14 611.56,-470.17 629,-461.5 632.09,-459.97 635.29,-458.5 638.56,-457.1"/>
<polygon fill="#63b8ff" stroke="#63b8ff" points="639.77,-460.39 647.76,-453.43 637.17,-453.89 639.77,-460.39"/>
</g>
<!-- Node91&#45;&gt;Node8 -->
<g id="edge29" class="edge">
<title>Node91&#45;&gt;Node8</title>
<path fill="none" stroke="#63b8ff" d="M521.3,-500.77C542.67,-483.2 589.23,-445.06 629,-413.5 646.33,-399.75 666.16,-384.39 680.85,-373.09"/>
<polygon fill="#63b8ff" stroke="#63b8ff" points="682.69,-376.09 688.49,-367.22 678.42,-370.54 682.69,-376.09"/>
</g>
<!-- Node91&#45;&gt;Node10 -->
<g id="edge27" class="edge">
<title>Node91&#45;&gt;Node10</title>
<path fill="none" stroke="#63b8ff" d="M584.95,-519.49C602.55,-521.59 621.14,-523.8 638.21,-525.84"/>
<polygon fill="#63b8ff" stroke="#63b8ff" points="637.34,-529.26 647.68,-526.97 638.17,-522.31 637.34,-529.26"/>
</g>
<!-- Node91&#45;&gt;Node17 -->
<g id="edge28" class="edge">
<title>Node91&#45;&gt;Node17</title>
<path fill="none" stroke="#63b8ff" d="M584.95,-500.73C602.99,-498.39 622.06,-495.92 639.47,-493.66"/>
<polygon fill="#63b8ff" stroke="#63b8ff" points="639.68,-497.17 649.14,-492.41 638.78,-490.22 639.68,-497.17"/>
</g>
<!-- Node95&#45;&gt;Node8 -->
<g id="edge35" class="edge">
<title>Node95&#45;&gt;Node8</title>
<path fill="none" stroke="#63b8ff" d="M522.16,-214.47C554.55,-239.98 640.67,-307.8 681.04,-339.6"/>
<polygon fill="#63b8ff" stroke="#63b8ff" points="678.83,-342.31 688.85,-345.75 683.16,-336.81 678.83,-342.31"/>
</g>
<!-- Node95&#45;&gt;Node12 -->
<g id="edge33" class="edge">
<title>Node95&#45;&gt;Node12</title>
<path fill="none" stroke="#63b8ff" d="M534.71,-214.44C551.47,-221.27 573.83,-230.82 593,-240.5 609.54,-248.85 612.18,-253.74 629,-261.5 737.12,-311.4 869.64,-353.79 946.19,-376.56"/>
<polygon fill="#63b8ff" stroke="#63b8ff" points="945.03,-379.87 955.61,-379.35 947.02,-373.16 945.03,-379.87"/>
</g>
<!-- Node95&#45;&gt;Node73 -->
<g id="edge37" class="edge">
<title>Node95&#45;&gt;Node73</title>
<path fill="none" stroke="#63b8ff" d="M512.19,-194.91C521.73,-163.02 557.26,-60.34 629,-21.5 687.24,10.03 716.54,3.16 778,-21.5 878.5,-61.83 960,-169.07 993.07,-217.79"/>
<polygon fill="#63b8ff" stroke="#63b8ff" points="990.09,-219.62 998.55,-226 995.91,-215.74 990.09,-219.62"/>
</g>
<!-- Node96 -->
<g id="node21" class="node">
<title>Node96</title>
<g id="a_node21"><a xlink:href="class_urho3_d_1_1_u_i_element.html#aff16cf263a6eff1ea2e8f0aeb2d31c0d" target="_top" xlink:title=" ">
<polygon fill="white" stroke="#666666" points="756,-252.5 651,-252.5 651,-222.5 756,-222.5 756,-252.5"/>
<text text-anchor="start" x="659" y="-240.5" font-family="Roboto" font-size="10.00">Urho3D::UIElement::</text>
<text text-anchor="middle" x="703.5" y="-229.5" font-family="Roboto" font-size="10.00">GetClipBorder</text>
</a>
</g>
</g>
<!-- Node95&#45;&gt;Node96 -->
<g id="edge32" class="edge">
<title>Node95&#45;&gt;Node96</title>
<path fill="none" stroke="#63b8ff" d="M567.93,-214.49C590.62,-218.37 616.66,-222.82 639.75,-226.77"/>
<polygon fill="#63b8ff" stroke="#63b8ff" points="638.88,-230.17 649.33,-228.41 640.06,-223.27 638.88,-230.17"/>
</g>
<!-- Node97 -->
<g id="node22" class="node">
<title>Node97</title>
<g id="a_node22"><a xlink:href="class_urho3_d_1_1_scroll_view.html#a10091313ac1c6605fef308ca30261d2d" target="_top" xlink:title=" ">
<polygon fill="white" stroke="#666666" points="764.5,-204.5 642.5,-204.5 642.5,-174.5 764.5,-174.5 764.5,-204.5"/>
<text text-anchor="start" x="650.5" y="-192.5" font-family="Roboto" font-size="10.00">Urho3D::ScrollView</text>
<text text-anchor="middle" x="703.5" y="-181.5" font-family="Roboto" font-size="10.00">::GetHorizontalScrollBar</text>
</a>
</g>
</g>
<!-- Node95&#45;&gt;Node97 -->
<g id="edge34" class="edge">
<title>Node95&#45;&gt;Node97</title>
<path fill="none" stroke="#63b8ff" d="M593.31,-197.99C605.72,-197.02 618.42,-196.03 630.56,-195.09"/>
<polygon fill="#63b8ff" stroke="#63b8ff" points="630.8,-198.58 640.49,-194.32 630.25,-191.6 630.8,-198.58"/>
</g>
<!-- Node98 -->
<g id="node23" class="node">
<title>Node98</title>
<g id="a_node23"><a xlink:href="class_urho3_d_1_1_scroll_view.html#ab37c41bceb0bf4127bff16038134e248" target="_top" xlink:title=" ">
<polygon fill="white" stroke="#666666" points="754,-156.5 653,-156.5 653,-126.5 754,-126.5 754,-156.5"/>
<text text-anchor="start" x="661" y="-144.5" font-family="Roboto" font-size="10.00">Urho3D::ScrollView</text>
<text text-anchor="middle" x="703.5" y="-133.5" font-family="Roboto" font-size="10.00">::GetScrollPanel</text>
</a>
</g>
</g>
<!-- Node95&#45;&gt;Node98 -->
<g id="edge36" class="edge">
<title>Node95&#45;&gt;Node98</title>
<path fill="none" stroke="#63b8ff" d="M540.08,-194.52C567.99,-185.41 609.99,-171.7 644.29,-160.5"/>
<polygon fill="#63b8ff" stroke="#63b8ff" points="645.27,-163.86 653.69,-157.43 643.1,-157.21 645.27,-163.86"/>
</g>
<!-- Node99 -->
<g id="node24" class="node">
<title>Node99</title>
<g id="a_node24"><a xlink:href="class_urho3_d_1_1_u_i_element.html#a4396e1c9eb02df3a4f5438900c704f76" target="_top" xlink:title="Set fixed height.">
<polygon fill="#fff0f0" stroke="red" points="756,-108.5 651,-108.5 651,-78.5 756,-78.5 756,-108.5"/>
<text text-anchor="start" x="659" y="-96.5" font-family="Roboto" font-size="10.00">Urho3D::UIElement::</text>
<text text-anchor="middle" x="703.5" y="-85.5" font-family="Roboto" font-size="10.00">SetFixedHeight</text>
</a>
</g>
</g>
<!-- Node95&#45;&gt;Node99 -->
<g id="edge38" class="edge">
<title>Node95&#45;&gt;Node99</title>
<path fill="none" stroke="#63b8ff" d="M520.58,-194.56C540.79,-176.86 585.58,-139.69 629,-117.5 632.62,-115.65 636.41,-113.9 640.28,-112.26"/>
<polygon fill="#63b8ff" stroke="#63b8ff" points="641.24,-115.64 649.25,-108.71 638.67,-109.13 641.24,-115.64"/>
</g>
<!-- Node101 -->
<g id="node25" class="node">
<title>Node101</title>
<g id="a_node25"><a xlink:href="class_urho3_d_1_1_u_i_element.html#aa594dc23bd881becc7204e973fb09d10" target="_top" xlink:title="Set fixed width.">
<polygon fill="#fff0f0" stroke="red" points="756,-60.5 651,-60.5 651,-30.5 756,-30.5 756,-60.5"/>
<text text-anchor="start" x="659" y="-48.5" font-family="Roboto" font-size="10.00">Urho3D::UIElement::</text>
<text text-anchor="middle" x="703.5" y="-37.5" font-family="Roboto" font-size="10.00">SetFixedWidth</text>
</a>
</g>
</g>
<!-- Node95&#45;&gt;Node101 -->
<g id="edge39" class="edge">
<title>Node95&#45;&gt;Node101</title>
<path fill="none" stroke="#63b8ff" d="M515.45,-194.75C531,-170.1 575.36,-104.71 629,-69.5 632.52,-67.19 636.27,-65.09 640.16,-63.17"/>
<polygon fill="#63b8ff" stroke="#63b8ff" points="641.55,-66.39 649.29,-59.15 638.73,-59.98 641.55,-66.39"/>
</g>
</g>
</svg>
