<?xml version="1.0" encoding="UTF-8" standalone="no"?>
<!DOCTYPE svg PUBLIC "-//W3C//DTD SVG 1.1//EN"
 "http://www.w3.org/Graphics/SVG/1.1/DTD/svg11.dtd">
<!-- Generated by graphviz version 7.0.3 (0)
 -->
<!-- Title: Urho3D::ScrollView::SetPageStep Pages: 1 -->
<svg width="219pt" height="51pt"
 viewBox="0.00 0.00 219.00 50.50" xmlns="http://www.w3.org/2000/svg" xmlns:xlink="http://www.w3.org/1999/xlink">
<g id="graph0" class="graph" transform="scale(1 1) rotate(0) translate(4 46.5)">
<title>Urho3D::ScrollView::SetPageStep</title>
<!-- Node1 -->
<g id="node1" class="node">
<title>Node1</title>
<g id="a_node1"><a xlink:title=" ">
<polygon fill="#999999" stroke="#666666" points="101,-30 0,-30 0,0 101,0 101,-30"/>
<text text-anchor="start" x="8" y="-18" font-family="Roboto" font-size="10.00">Urho3D::ScrollView</text>
<text text-anchor="middle" x="50.5" y="-7" font-family="Roboto" font-size="10.00">::SetPageStep</text>
</a>
</g>
</g>
<!-- Node2 -->
<g id="node2" class="node">
<title>Node2</title>
<g id="a_node2"><a xlink:href="_math_defs_8h.html#a8096c22c3716e172f685af2a5f5e26bb" target="_top" xlink:title=" ">
<polygon fill="white" stroke="#666666" points="211,-24.5 137,-24.5 137,-5.5 211,-5.5 211,-24.5"/>
<text text-anchor="middle" x="174" y="-12.5" font-family="Roboto" font-size="10.00">Urho3D::Max</text>
</a>
</g>
</g>
<!-- Node1&#45;&gt;Node2 -->
<g id="edge1" class="edge">
<title>Node1&#45;&gt;Node2</title>
<path fill="none" stroke="#63b8ff" d="M101.27,-15C109.19,-15 117.38,-15 125.26,-15"/>
<polygon fill="#63b8ff" stroke="#63b8ff" points="125,-18.5 135,-15 125,-11.5 125,-18.5"/>
</g>
<!-- Node2&#45;&gt;Node2 -->
<g id="edge2" class="edge">
<title>Node2&#45;&gt;Node2</title>
<path fill="none" stroke="#63b8ff" d="M154.67,-24.87C145.85,-33.44 152.29,-42.5 174,-42.5 185.87,-42.5 193.18,-39.79 195.92,-35.93"/>
<polygon fill="#63b8ff" stroke="#63b8ff" points="199.36,-35.28 193.68,-26.34 192.55,-36.88 199.36,-35.28"/>
</g>
</g>
</svg>
