<?xml version="1.0" encoding="UTF-8" standalone="no"?>
<!DOCTYPE svg PUBLIC "-//W3C//DTD SVG 1.1//EN"
 "http://www.w3.org/Graphics/SVG/1.1/DTD/svg11.dtd">
<!-- Generated by graphviz version 7.0.3 (0)
 -->
<!-- Title: Urho3D::UnknownComponent::SaveJSON Pages: 1 -->
<svg width="988pt" height="300pt"
 viewBox="0.00 0.00 988.00 299.80" xmlns="http://www.w3.org/2000/svg" xmlns:xlink="http://www.w3.org/1999/xlink">
<g id="graph0" class="graph" transform="scale(1 1) rotate(0) translate(4 295.8)">
<title>Urho3D::UnknownComponent::SaveJSON</title>
<!-- Node1 -->
<g id="node1" class="node">
<title>Node1</title>
<g id="a_node1"><a xlink:title="Save as JSON data. Return true if successful.">
<polygon fill="#999999" stroke="#666666" points="148,-104 0,-104 0,-74 148,-74 148,-104"/>
<text text-anchor="start" x="8" y="-92" font-family="Roboto" font-size="10.00">Urho3D::UnknownComponent</text>
<text text-anchor="middle" x="74" y="-81" font-family="Roboto" font-size="10.00">::SaveJSON</text>
</a>
</g>
</g>
<!-- Node2 -->
<g id="node2" class="node">
<title>Node2</title>
<g id="a_node2"><a xlink:href="class_urho3_d_1_1_unknown_component.html#a18760e601139d873b9b797f20fa776fb" target="_top" xlink:title="Return type name of the stored component.">
<polygon fill="white" stroke="#666666" points="332,-190 184,-190 184,-160 332,-160 332,-190"/>
<text text-anchor="start" x="192" y="-178" font-family="Roboto" font-size="10.00">Urho3D::UnknownComponent</text>
<text text-anchor="middle" x="258" y="-167" font-family="Roboto" font-size="10.00">::GetTypeName</text>
</a>
</g>
</g>
<!-- Node1&#45;&gt;Node2 -->
<g id="edge1" class="edge">
<title>Node1&#45;&gt;Node2</title>
<path fill="none" stroke="#63b8ff" d="M98.95,-104.48C120.56,-117.99 153.55,-137.5 184,-151 187.58,-152.59 191.31,-154.13 195.09,-155.61"/>
<polygon fill="#63b8ff" stroke="#63b8ff" points="193.84,-158.88 204.43,-159.1 196.28,-152.32 193.84,-158.88"/>
</g>
<!-- Node3 -->
<g id="node3" class="node">
<title>Node3</title>
<g id="a_node3"><a xlink:href="class_urho3_d_1_1_vector.html#a083b39861b996df82f811a9a4ebff109" target="_top" xlink:title="Add an element at the end.">
<polygon fill="white" stroke="#666666" points="313,-141.5 203,-141.5 203,-122.5 313,-122.5 313,-141.5"/>
<text text-anchor="middle" x="258" y="-129.5" font-family="Roboto" font-size="10.00">Urho3D::Vector::Push</text>
</a>
</g>
</g>
<!-- Node1&#45;&gt;Node3 -->
<g id="edge2" class="edge">
<title>Node1&#45;&gt;Node3</title>
<path fill="none" stroke="#63b8ff" d="M140.45,-104.46C161.25,-109.38 183.98,-114.75 203.81,-119.43"/>
<polygon fill="#63b8ff" stroke="#63b8ff" points="202.79,-122.79 213.32,-121.68 204.4,-115.98 202.79,-122.79"/>
</g>
<!-- Node10 -->
<g id="node10" class="node">
<title>Node10</title>
<g id="a_node10"><a xlink:href="class_urho3_d_1_1_vector.html#a30b2235d2061acfb649faa5afddebb69" target="_top" xlink:title="Set new capacity.">
<polygon fill="white" stroke="#666666" points="657.5,-67.5 533.5,-67.5 533.5,-48.5 657.5,-48.5 657.5,-67.5"/>
<text text-anchor="middle" x="595.5" y="-55.5" font-family="Roboto" font-size="10.00">Urho3D::Vector::Reserve</text>
</a>
</g>
</g>
<!-- Node1&#45;&gt;Node10 -->
<g id="edge19" class="edge">
<title>Node1&#45;&gt;Node10</title>
<path fill="none" stroke="#63b8ff" d="M148.33,-84.62C247.47,-78.71 423.19,-68.22 521.93,-62.33"/>
<polygon fill="#63b8ff" stroke="#63b8ff" points="522.01,-65.83 531.78,-61.74 521.59,-58.84 522.01,-65.83"/>
</g>
<!-- Node14 -->
<g id="node14" class="node">
<title>Node14</title>
<g id="a_node14"><a xlink:href="class_urho3_d_1_1_j_s_o_n_value.html#abaa12eb8d43333b563bdb559774c8365" target="_top" xlink:title="Set JSON value with key.">
<polygon fill="white" stroke="#666666" points="319.5,-39.5 196.5,-39.5 196.5,-20.5 319.5,-20.5 319.5,-39.5"/>
<text text-anchor="middle" x="258" y="-27.5" font-family="Roboto" font-size="10.00">Urho3D::JSONValue::Set</text>
</a>
</g>
</g>
<!-- Node1&#45;&gt;Node14 -->
<g id="edge20" class="edge">
<title>Node1&#45;&gt;Node14</title>
<path fill="none" stroke="#63b8ff" d="M122.34,-73.65C151.13,-64.32 187.56,-52.51 215.27,-43.53"/>
<polygon fill="#63b8ff" stroke="#63b8ff" points="216.31,-46.87 224.74,-40.46 214.15,-40.21 216.31,-46.87"/>
</g>
<!-- Node4 -->
<g id="node4" class="node">
<title>Node4</title>
<g id="a_node4"><a xlink:href="class_urho3_d_1_1_vector.html#a2966c346317753692342733ce84a6829" target="_top" xlink:title="Return last element.">
<polygon fill="white" stroke="#666666" points="486.5,-255.5 376.5,-255.5 376.5,-236.5 486.5,-236.5 486.5,-255.5"/>
<text text-anchor="middle" x="431.5" y="-243.5" font-family="Roboto" font-size="10.00">Urho3D::Vector::Back</text>
</a>
</g>
</g>
<!-- Node3&#45;&gt;Node4 -->
<g id="edge3" class="edge">
<title>Node3&#45;&gt;Node4</title>
<path fill="none" stroke="#63b8ff" d="M310.95,-141.98C318.26,-144.38 325.49,-147.35 332,-151 367.04,-170.65 398.77,-205.79 416.27,-227.38"/>
<polygon fill="#63b8ff" stroke="#63b8ff" points="413.39,-229.38 422.33,-235.06 418.88,-225.04 413.39,-229.38"/>
</g>
<!-- Node6 -->
<g id="node6" class="node">
<title>Node6</title>
<g id="a_node6"><a xlink:href="class_urho3_d_1_1_vector.html#a17e4a13942a9512bc0eceb3e46d950dd" target="_top" xlink:title="Insert elements into the vector using copy or move constructor.">
<polygon fill="white" stroke="#666666" points="495,-159 368,-159 368,-129 495,-129 495,-159"/>
<text text-anchor="start" x="376" y="-147" font-family="Roboto" font-size="10.00">Urho3D::Vector::DoInsert</text>
<text text-anchor="middle" x="431.5" y="-136" font-family="Roboto" font-size="10.00">Elements</text>
</a>
</g>
</g>
<!-- Node3&#45;&gt;Node6 -->
<g id="edge5" class="edge">
<title>Node3&#45;&gt;Node6</title>
<path fill="none" stroke="#63b8ff" d="M313.26,-135.8C326.89,-136.75 341.75,-137.79 356.17,-138.8"/>
<polygon fill="#63b8ff" stroke="#63b8ff" points="355.88,-142.29 366.1,-139.49 356.37,-135.3 355.88,-142.29"/>
</g>
<!-- Node5 -->
<g id="node5" class="node">
<title>Node5</title>
<g id="a_node5"><a xlink:href="class_urho3_d_1_1_vector.html#a2126455bfd4dd42c90838abba6fef37a" target="_top" xlink:title="Return the buffer with right type.">
<polygon fill="white" stroke="#666666" points="980,-196.5 864,-196.5 864,-177.5 980,-177.5 980,-196.5"/>
<text text-anchor="middle" x="922" y="-184.5" font-family="Roboto" font-size="10.00">Urho3D::Vector::Buffer</text>
</a>
</g>
</g>
<!-- Node4&#45;&gt;Node5 -->
<g id="edge4" class="edge">
<title>Node4&#45;&gt;Node5</title>
<path fill="none" stroke="#63b8ff" d="M460.96,-255.98C480.41,-262.26 506.92,-269.76 531,-273 661.93,-290.62 704.91,-308.98 828,-261 859.06,-248.89 887.96,-222.59 905.05,-204.84"/>
<polygon fill="#63b8ff" stroke="#63b8ff" points="907.15,-207.71 911.42,-198.01 902.04,-202.94 907.15,-207.71"/>
</g>
<!-- Node6&#45;&gt;Node5 -->
<g id="edge8" class="edge">
<title>Node6&#45;&gt;Node5</title>
<path fill="none" stroke="#63b8ff" d="M441,-159.11C455.67,-183.47 488.34,-230.53 531,-249 657.34,-303.71 825.46,-234.43 892.06,-202.03"/>
<polygon fill="#63b8ff" stroke="#63b8ff" points="893.46,-205.24 900.86,-197.66 890.35,-198.97 893.46,-205.24"/>
</g>
<!-- Node7 -->
<g id="node7" class="node">
<title>Node7</title>
<g id="a_node7"><a xlink:href="class_urho3_d_1_1_vector.html#aa20f23bae4cf1d7cda06f6c3b47c7504" target="_top" xlink:title="Return iterator to the beginning.">
<polygon fill="white" stroke="#666666" points="818.5,-196.5 705.5,-196.5 705.5,-177.5 818.5,-177.5 818.5,-196.5"/>
<text text-anchor="middle" x="762" y="-184.5" font-family="Roboto" font-size="10.00">Urho3D::Vector::Begin</text>
</a>
</g>
</g>
<!-- Node6&#45;&gt;Node7 -->
<g id="edge6" class="edge">
<title>Node6&#45;&gt;Node7</title>
<path fill="none" stroke="#63b8ff" d="M495.27,-153.07C507.13,-154.74 519.44,-156.45 531,-158 585.79,-165.35 648,-173.16 693.89,-178.82"/>
<polygon fill="#63b8ff" stroke="#63b8ff" points="693.34,-182.28 703.69,-180.03 694.2,-175.33 693.34,-182.28"/>
</g>
<!-- Node8 -->
<g id="node8" class="node">
<title>Node8</title>
<g id="a_node8"><a xlink:href="class_urho3_d_1_1_vector.html#a05f68c0546419caf7d6050a3e7d8d1d5" target="_top" xlink:title="Calculate new vector capacity.">
<polygon fill="white" stroke="#666666" points="660,-240 531,-240 531,-210 660,-210 660,-240"/>
<text text-anchor="start" x="539" y="-228" font-family="Roboto" font-size="10.00">Urho3D::Vector::Calculate</text>
<text text-anchor="middle" x="595.5" y="-217" font-family="Roboto" font-size="10.00">Capacity</text>
</a>
</g>
</g>
<!-- Node6&#45;&gt;Node8 -->
<g id="edge9" class="edge">
<title>Node6&#45;&gt;Node8</title>
<path fill="none" stroke="#63b8ff" d="M460.73,-159.45C480.3,-170.03 507.05,-184.22 531,-196 536.92,-198.91 543.2,-201.9 549.41,-204.79"/>
<polygon fill="#63b8ff" stroke="#63b8ff" points="547.81,-207.91 558.35,-208.92 550.74,-201.55 547.81,-207.91"/>
</g>
<!-- Node9 -->
<g id="node9" class="node">
<title>Node9</title>
<g id="a_node9"><a xlink:href="class_urho3_d_1_1_vector.html#a5c0b7ecbd0ae0c75a9a69bf9dedc517a" target="_top" xlink:title="Construct elements using default ctor.">
<polygon fill="white" stroke="#666666" points="828,-159 696,-159 696,-129 828,-129 828,-159"/>
<text text-anchor="start" x="704" y="-147" font-family="Roboto" font-size="10.00">Urho3D::Vector::Construct</text>
<text text-anchor="middle" x="762" y="-136" font-family="Roboto" font-size="10.00">Elements</text>
</a>
</g>
</g>
<!-- Node6&#45;&gt;Node9 -->
<g id="edge10" class="edge">
<title>Node6&#45;&gt;Node9</title>
<path fill="none" stroke="#63b8ff" d="M495.45,-144C549.33,-144 627.07,-144 684.53,-144"/>
<polygon fill="#63b8ff" stroke="#63b8ff" points="684.22,-147.5 694.22,-144 684.22,-140.5 684.22,-147.5"/>
</g>
<!-- Node6&#45;&gt;Node10 -->
<g id="edge11" class="edge">
<title>Node6&#45;&gt;Node10</title>
<path fill="none" stroke="#63b8ff" d="M451.42,-128.52C470.5,-113.55 501.3,-91.13 531,-77 535.03,-75.08 539.31,-73.31 543.65,-71.68"/>
<polygon fill="#63b8ff" stroke="#63b8ff" points="544.76,-75 553.07,-68.42 542.48,-68.38 544.76,-75"/>
</g>
<!-- Node13 -->
<g id="node13" class="node">
<title>Node13</title>
<g id="a_node13"><a xlink:href="class_urho3_d_1_1_vector_base.html#aec648d72344954c3be22218eb180f6a4" target="_top" xlink:title="Swap with another vector.">
<polygon fill="white" stroke="#666666" points="648.5,-116 542.5,-116 542.5,-86 648.5,-86 648.5,-116"/>
<text text-anchor="start" x="550.5" y="-104" font-family="Roboto" font-size="10.00">Urho3D::VectorBase</text>
<text text-anchor="middle" x="595.5" y="-93" font-family="Roboto" font-size="10.00">::Swap</text>
</a>
</g>
</g>
<!-- Node6&#45;&gt;Node13 -->
<g id="edge18" class="edge">
<title>Node6&#45;&gt;Node13</title>
<path fill="none" stroke="#63b8ff" d="M490.53,-128.6C503.72,-125.1 517.8,-121.36 531.2,-117.8"/>
<polygon fill="#63b8ff" stroke="#63b8ff" points="532.03,-121.2 540.8,-115.25 530.24,-114.44 532.03,-121.2"/>
</g>
<!-- Node7&#45;&gt;Node5 -->
<g id="edge7" class="edge">
<title>Node7&#45;&gt;Node5</title>
<path fill="none" stroke="#63b8ff" d="M818.7,-187C829.52,-187 840.97,-187 852.15,-187"/>
<polygon fill="#63b8ff" stroke="#63b8ff" points="852.15,-190.5 862.15,-187 852.15,-183.5 852.15,-190.5"/>
</g>
<!-- Node10&#45;&gt;Node5 -->
<g id="edge13" class="edge">
<title>Node10&#45;&gt;Node5</title>
<path fill="none" stroke="#63b8ff" d="M629.31,-48.01C648.54,-42.69 673.41,-36.69 696,-34 754.26,-27.07 776.87,-5.24 828,-34 878.9,-62.62 905.17,-131.62 915.56,-166.33"/>
<polygon fill="#63b8ff" stroke="#63b8ff" points="912.09,-166.92 918.17,-175.6 918.83,-165.02 912.09,-166.92"/>
</g>
<!-- Node10&#45;&gt;Node7 -->
<g id="edge12" class="edge">
<title>Node10&#45;&gt;Node7</title>
<path fill="none" stroke="#63b8ff" d="M646.08,-67.85C651.15,-70.26 655.93,-73.27 660,-77 692.05,-106.4 663.86,-138.7 696,-168 697.28,-169.16 698.62,-170.26 700.02,-171.28"/>
<polygon fill="#63b8ff" stroke="#63b8ff" points="698.24,-174.29 708.63,-176.36 701.79,-168.27 698.24,-174.29"/>
</g>
<!-- Node10&#45;&gt;Node9 -->
<g id="edge14" class="edge">
<title>Node10&#45;&gt;Node9</title>
<path fill="none" stroke="#63b8ff" d="M641.66,-67.99C648.08,-70.4 654.4,-73.36 660,-77 680.61,-90.4 675.91,-104.82 696,-119 698.17,-120.53 700.44,-121.98 702.78,-123.36"/>
<polygon fill="#63b8ff" stroke="#63b8ff" points="700.92,-126.33 711.4,-127.88 704.17,-120.13 700.92,-126.33"/>
</g>
<!-- Node11 -->
<g id="node11" class="node">
<title>Node11</title>
<g id="a_node11"><a xlink:href="class_urho3_d_1_1_vector.html#afb87585db12d120ab5148ec782d14632" target="_top" xlink:title="Call the elements&#39; destructors.">
<polygon fill="white" stroke="#666666" points="825,-73 699,-73 699,-43 825,-43 825,-73"/>
<text text-anchor="start" x="707" y="-61" font-family="Roboto" font-size="10.00">Urho3D::Vector::Destruct</text>
<text text-anchor="middle" x="762" y="-50" font-family="Roboto" font-size="10.00">Elements</text>
</a>
</g>
</g>
<!-- Node10&#45;&gt;Node11 -->
<g id="edge15" class="edge">
<title>Node10&#45;&gt;Node11</title>
<path fill="none" stroke="#63b8ff" d="M657.75,-58C667.34,-58 677.33,-58 687.16,-58"/>
<polygon fill="#63b8ff" stroke="#63b8ff" points="687.08,-61.5 697.08,-58 687.08,-54.5 687.08,-61.5"/>
</g>
<!-- Node12 -->
<g id="node12" class="node">
<title>Node12</title>
<g id="a_node12"><a xlink:href="class_urho3_d_1_1_vector.html#af79ffb0683568b08fe130ee028bfd1ef" target="_top" xlink:title="Return iterator to the end.">
<polygon fill="white" stroke="#666666" points="815,-110.5 709,-110.5 709,-91.5 815,-91.5 815,-110.5"/>
<text text-anchor="middle" x="762" y="-98.5" font-family="Roboto" font-size="10.00">Urho3D::Vector::End</text>
</a>
</g>
</g>
<!-- Node10&#45;&gt;Node12 -->
<g id="edge16" class="edge">
<title>Node10&#45;&gt;Node12</title>
<path fill="none" stroke="#63b8ff" d="M634.65,-67.97C657.62,-73.98 687.09,-81.68 711.79,-88.14"/>
<polygon fill="#63b8ff" stroke="#63b8ff" points="710.74,-91.48 721.3,-90.62 712.52,-84.71 710.74,-91.48"/>
</g>
<!-- Node12&#45;&gt;Node5 -->
<g id="edge17" class="edge">
<title>Node12&#45;&gt;Node5</title>
<path fill="none" stroke="#63b8ff" d="M804.71,-110.9C812.63,-113.42 820.71,-116.44 828,-120 855.56,-133.46 883.65,-155 901.63,-170.01"/>
<polygon fill="#63b8ff" stroke="#63b8ff" points="899.03,-172.39 908.91,-176.21 903.57,-167.06 899.03,-172.39"/>
</g>
<!-- Node15 -->
<g id="node15" class="node">
<title>Node15</title>
<g id="a_node15"><a xlink:href="class_urho3_d_1_1_j_s_o_n_value.html#aaa39b31173d0e0dd2021de34b08cc4a0" target="_top" xlink:title="Set value type and number type, internal function.">
<polygon fill="white" stroke="#666666" points="486,-42 377,-42 377,-12 486,-12 486,-42"/>
<text text-anchor="start" x="385" y="-30" font-family="Roboto" font-size="10.00">Urho3D::JSONValue::</text>
<text text-anchor="middle" x="431.5" y="-19" font-family="Roboto" font-size="10.00">SetType</text>
</a>
</g>
</g>
<!-- Node14&#45;&gt;Node15 -->
<g id="edge21" class="edge">
<title>Node14&#45;&gt;Node15</title>
<path fill="none" stroke="#63b8ff" d="M319.95,-28.93C334.68,-28.68 350.48,-28.4 365.39,-28.14"/>
<polygon fill="#63b8ff" stroke="#63b8ff" points="365.14,-31.64 375.08,-27.97 365.02,-24.65 365.14,-31.64"/>
</g>
<!-- Node16 -->
<g id="node16" class="node">
<title>Node16</title>
<g id="a_node16"><a xlink:href="class_urho3_d_1_1_j_s_o_n_value.html#a7f87ac739ce187f929cd61ccd642802b" target="_top" xlink:title=" ">
<polygon fill="white" stroke="#666666" points="650,-30 541,-30 541,0 650,0 650,-30"/>
<text text-anchor="start" x="549" y="-18" font-family="Roboto" font-size="10.00">Urho3D::JSONValue::</text>
<text text-anchor="middle" x="595.5" y="-7" font-family="Roboto" font-size="10.00">GetValueType</text>
</a>
</g>
</g>
<!-- Node15&#45;&gt;Node16 -->
<g id="edge22" class="edge">
<title>Node15&#45;&gt;Node16</title>
<path fill="none" stroke="#63b8ff" d="M486.44,-23C500.17,-21.99 515.07,-20.88 529.29,-19.83"/>
<polygon fill="#63b8ff" stroke="#63b8ff" points="529.29,-23.34 539.01,-19.11 528.78,-16.36 529.29,-23.34"/>
</g>
</g>
</svg>
