<?xml version="1.0" encoding="UTF-8" standalone="no"?>
<!DOCTYPE svg PUBLIC "-//W3C//DTD SVG 1.1//EN"
 "http://www.w3.org/Graphics/SVG/1.1/DTD/svg11.dtd">
<!-- Generated by graphviz version 7.0.3 (0)
 -->
<!-- Title: Urho3D::Constraint2D::OnNodeSet Pages: 1 -->
<svg width="454pt" height="81pt"
 viewBox="0.00 0.00 454.00 81.00" xmlns="http://www.w3.org/2000/svg" xmlns:xlink="http://www.w3.org/1999/xlink">
<g id="graph0" class="graph" transform="scale(1 1) rotate(0) translate(4 77)">
<title>Urho3D::Constraint2D::OnNodeSet</title>
<!-- Node1 -->
<g id="node1" class="node">
<title>Node1</title>
<g id="a_node1"><a xlink:title="Handle node being assigned.">
<polygon fill="#999999" stroke="#666666" points="112,-51 0,-51 0,-21 112,-21 112,-51"/>
<text text-anchor="start" x="8" y="-39" font-family="Roboto" font-size="10.00">Urho3D::Constraint2D</text>
<text text-anchor="middle" x="56" y="-28" font-family="Roboto" font-size="10.00">::OnNodeSet</text>
</a>
</g>
</g>
<!-- Node2 -->
<g id="node2" class="node">
<title>Node2</title>
<g id="a_node2"><a xlink:href="class_urho3_d_1_1_node.html#a34f6d23128c61664a11ceb275604e013" target="_top" xlink:title="Return component by type. If there are several, returns the first.">
<polygon fill="white" stroke="#666666" points="299,-67.5 148,-67.5 148,-48.5 299,-48.5 299,-67.5"/>
<text text-anchor="middle" x="223.5" y="-55.5" font-family="Roboto" font-size="10.00">Urho3D::Node::GetComponent</text>
</a>
</g>
</g>
<!-- Node1&#45;&gt;Node2 -->
<g id="edge1" class="edge">
<title>Node1&#45;&gt;Node2</title>
<path fill="none" stroke="#63b8ff" d="M112.11,-43.33C119.93,-44.37 128.13,-45.45 136.37,-46.55"/>
<polygon fill="#63b8ff" stroke="#63b8ff" points="135.72,-50 146.1,-47.84 136.65,-43.06 135.72,-50"/>
</g>
<!-- Node4 -->
<g id="node4" class="node">
<title>Node4</title>
<g id="a_node4"><a xlink:href="class_urho3_d_1_1_component.html#a5092f734dab3100e777b678ad6c13215" target="_top" xlink:title="Handle scene node being assigned at creation.">
<polygon fill="white" stroke="#666666" points="279,-30 168,-30 168,0 279,0 279,-30"/>
<text text-anchor="start" x="176" y="-18" font-family="Roboto" font-size="10.00">Urho3D::Component::</text>
<text text-anchor="middle" x="223.5" y="-7" font-family="Roboto" font-size="10.00">OnNodeSet</text>
</a>
</g>
</g>
<!-- Node1&#45;&gt;Node4 -->
<g id="edge4" class="edge">
<title>Node1&#45;&gt;Node4</title>
<path fill="none" stroke="#63b8ff" d="M112.11,-29.01C126.35,-27.2 141.82,-25.24 156.55,-23.37"/>
<polygon fill="#63b8ff" stroke="#63b8ff" points="156.65,-26.88 166.13,-22.15 155.77,-19.94 156.65,-26.88"/>
</g>
<!-- Node3 -->
<g id="node3" class="node">
<title>Node3</title>
<g id="a_node3"><a xlink:href="class_urho3_d_1_1_component.html#a6070c8208ad98595d8c3fe43778d6069" target="_top" xlink:title="Return component in the same scene node by type. If there are several, returns the first.">
<polygon fill="white" stroke="#666666" points="446,-73 335,-73 335,-43 446,-43 446,-73"/>
<text text-anchor="start" x="343" y="-61" font-family="Roboto" font-size="10.00">Urho3D::Component::</text>
<text text-anchor="middle" x="390.5" y="-50" font-family="Roboto" font-size="10.00">GetComponent</text>
</a>
</g>
</g>
<!-- Node2&#45;&gt;Node3 -->
<g id="edge2" class="edge">
<title>Node2&#45;&gt;Node3</title>
<path fill="none" stroke="#63b8ff" d="M299.28,-51.28C307.3,-51.22 315.41,-51.25 323.32,-51.37"/>
<polygon fill="#63b8ff" stroke="#63b8ff" points="323.15,-54.87 333.22,-51.57 323.29,-47.87 323.15,-54.87"/>
</g>
<!-- Node3&#45;&gt;Node2 -->
<g id="edge3" class="edge">
<title>Node3&#45;&gt;Node2</title>
<path fill="none" stroke="#63b8ff" d="M334.73,-64.4C327.01,-64.6 318.92,-64.72 310.78,-64.74"/>
<polygon fill="#63b8ff" stroke="#63b8ff" points="310.8,-61.24 300.79,-64.73 310.78,-68.24 310.8,-61.24"/>
</g>
</g>
</svg>
