<?xml version="1.0" encoding="UTF-8" standalone="no"?>
<!DOCTYPE svg PUBLIC "-//W3C//DTD SVG 1.1//EN"
 "http://www.w3.org/Graphics/SVG/1.1/DTD/svg11.dtd">
<!-- Generated by graphviz version 7.0.3 (0)
 -->
<!-- Title: Urho3D::Light::GetShadowCascade Pages: 1 -->
<svg width="1165pt" height="162pt"
 viewBox="0.00 0.00 1165.00 161.50" xmlns="http://www.w3.org/2000/svg" xmlns:xlink="http://www.w3.org/1999/xlink">
<g id="graph0" class="graph" transform="scale(1 1) rotate(0) translate(4 157.5)">
<title>Urho3D::Light::GetShadowCascade</title>
<!-- Node1 -->
<g id="node1" class="node">
<title>Node1</title>
<g id="a_node1"><a xlink:title=" ">
<polygon fill="#999999" stroke="#666666" points="1157,-73 1026,-73 1026,-43 1157,-43 1157,-73"/>
<text text-anchor="start" x="1034" y="-61" font-family="Roboto" font-size="10.00">Urho3D::Light::GetShadow</text>
<text text-anchor="middle" x="1091.5" y="-50" font-family="Roboto" font-size="10.00">Cascade</text>
</a>
</g>
</g>
<!-- Node2 -->
<g id="node2" class="node">
<title>Node2</title>
<g id="a_node2"><a xlink:href="struct_urho3_d_1_1_batch.html#ad8794a08ef43585f0c54aebf11f39e11" target="_top" xlink:title="Prepare for rendering.">
<polygon fill="white" stroke="#666666" points="978,-110.5 861,-110.5 861,-91.5 978,-91.5 978,-110.5"/>
<text text-anchor="middle" x="919.5" y="-98.5" font-family="Roboto" font-size="10.00">Urho3D::Batch::Prepare</text>
</a>
</g>
</g>
<!-- Node1&#45;&gt;Node2 -->
<g id="edge1" class="edge">
<title>Node1&#45;&gt;Node2</title>
<path fill="none" stroke="#63b8ff" d="M1018.59,-76.19C998.53,-81.26 977.47,-86.59 960.03,-91"/>
<polygon fill="#63b8ff" stroke="#63b8ff" points="1019.3,-79.62 1028.14,-73.77 1017.59,-72.83 1019.3,-79.62"/>
</g>
<!-- Node7 -->
<g id="node7" class="node">
<title>Node7</title>
<g id="a_node7"><a xlink:href="class_urho3_d_1_1_view.html#ae7e6e47346e5ff4346eb8cb251e013ef" target="_top" xlink:title="Render a shadow map.">
<polygon fill="white" stroke="#666666" points="497,-67.5 330,-67.5 330,-48.5 497,-48.5 497,-67.5"/>
<text text-anchor="middle" x="413.5" y="-55.5" font-family="Roboto" font-size="10.00">Urho3D::View::RenderShadowMap</text>
</a>
</g>
</g>
<!-- Node1&#45;&gt;Node7 -->
<g id="edge11" class="edge">
<title>Node1&#45;&gt;Node7</title>
<path fill="none" stroke="#63b8ff" d="M1014.47,-58C886.63,-58 629.67,-58 497.38,-58"/>
<polygon fill="#63b8ff" stroke="#63b8ff" points="1014.17,-61.5 1024.17,-58 1014.17,-54.5 1014.17,-61.5"/>
</g>
<!-- Node9 -->
<g id="node9" class="node">
<title>Node9</title>
<g id="a_node9"><a xlink:href="class_urho3_d_1_1_view.html#a4d3766cb580e7a61b7ce50bc4e9aa926" target="_top" xlink:title="Set up initial shadow camera view(s).">
<polygon fill="white" stroke="#666666" points="990,-30 849,-30 849,0 990,0 990,-30"/>
<text text-anchor="start" x="857" y="-18" font-family="Roboto" font-size="10.00">Urho3D::View::SetupShadow</text>
<text text-anchor="middle" x="919.5" y="-7" font-family="Roboto" font-size="10.00">Cameras</text>
</a>
</g>
</g>
<!-- Node1&#45;&gt;Node9 -->
<g id="edge12" class="edge">
<title>Node1&#45;&gt;Node9</title>
<path fill="none" stroke="#63b8ff" d="M1018.46,-39.78C1006.17,-36.67 993.51,-33.47 981.54,-30.44"/>
<polygon fill="#63b8ff" stroke="#63b8ff" points="1017.59,-43.17 1028.14,-42.23 1019.3,-36.38 1017.59,-43.17"/>
</g>
<!-- Node3 -->
<g id="node3" class="node">
<title>Node3</title>
<g id="a_node3"><a xlink:href="struct_urho3_d_1_1_batch.html#add3a46f1fc8c0dd490d0cc965bec2e5b" target="_top" xlink:title="Prepare and draw.">
<polygon fill="white" stroke="#666666" points="798,-153.5 691,-153.5 691,-134.5 798,-134.5 798,-153.5"/>
<text text-anchor="middle" x="744.5" y="-141.5" font-family="Roboto" font-size="10.00">Urho3D::Batch::Draw</text>
</a>
</g>
</g>
<!-- Node2&#45;&gt;Node3 -->
<g id="edge2" class="edge">
<title>Node2&#45;&gt;Node3</title>
<path fill="none" stroke="#63b8ff" d="M867.54,-113.67C841.43,-120.16 810.09,-127.95 785.71,-134.01"/>
<polygon fill="#63b8ff" stroke="#63b8ff" points="868.05,-117.15 876.91,-111.34 866.36,-110.35 868.05,-117.15"/>
</g>
<!-- Node8 -->
<g id="node8" class="node">
<title>Node8</title>
<g id="a_node8"><a xlink:href="struct_urho3_d_1_1_batch_group.html#ae44c18517fde1462221ddc7c7a1b2cd4" target="_top" xlink:title="Prepare and draw.">
<polygon fill="white" stroke="#666666" points="797.5,-116 691.5,-116 691.5,-86 797.5,-86 797.5,-116"/>
<text text-anchor="start" x="699.5" y="-104" font-family="Roboto" font-size="10.00">Urho3D::BatchGroup</text>
<text text-anchor="middle" x="744.5" y="-93" font-family="Roboto" font-size="10.00">::Draw</text>
</a>
</g>
</g>
<!-- Node2&#45;&gt;Node8 -->
<g id="edge9" class="edge">
<title>Node2&#45;&gt;Node8</title>
<path fill="none" stroke="#63b8ff" d="M849.72,-101C832.46,-101 814.22,-101 797.9,-101"/>
<polygon fill="#63b8ff" stroke="#63b8ff" points="849.38,-104.5 859.38,-101 849.38,-97.5 849.38,-104.5"/>
</g>
<!-- Node4 -->
<g id="node4" class="node">
<title>Node4</title>
<g id="a_node4"><a xlink:href="struct_urho3_d_1_1_batch_queue.html#a9a3a0ba457231d2a75e65fe2a1d1d94c" target="_top" xlink:title="Draw.">
<polygon fill="white" stroke="#666666" points="640,-122 533,-122 533,-92 640,-92 640,-122"/>
<text text-anchor="start" x="541" y="-110" font-family="Roboto" font-size="10.00">Urho3D::BatchQueue</text>
<text text-anchor="middle" x="586.5" y="-99" font-family="Roboto" font-size="10.00">::Draw</text>
</a>
</g>
</g>
<!-- Node3&#45;&gt;Node4 -->
<g id="edge3" class="edge">
<title>Node3&#45;&gt;Node4</title>
<path fill="none" stroke="#63b8ff" d="M690.74,-131.49C674.48,-127.63 656.59,-123.39 640.33,-119.53"/>
<polygon fill="#63b8ff" stroke="#63b8ff" points="689.68,-134.83 700.22,-133.74 691.3,-128.02 689.68,-134.83"/>
</g>
<!-- Node5 -->
<g id="node5" class="node">
<title>Node5</title>
<g id="a_node5"><a xlink:href="class_urho3_d_1_1_view.html#a2dd8e9237f495ba4ec4a69b195988cfa" target="_top" xlink:title="Execute render commands.">
<polygon fill="white" stroke="#666666" points="294,-101 148,-101 148,-71 294,-71 294,-101"/>
<text text-anchor="start" x="156" y="-89" font-family="Roboto" font-size="10.00">Urho3D::View::ExecuteRender</text>
<text text-anchor="middle" x="221" y="-78" font-family="Roboto" font-size="10.00">PathCommands</text>
</a>
</g>
</g>
<!-- Node4&#45;&gt;Node5 -->
<g id="edge4" class="edge">
<title>Node4&#45;&gt;Node5</title>
<path fill="none" stroke="#63b8ff" d="M521.31,-104.15C469.62,-101.75 395.11,-98.07 330,-94 318.46,-93.28 306.23,-92.44 294.31,-91.59"/>
<polygon fill="#63b8ff" stroke="#63b8ff" points="520.97,-107.63 531.12,-104.6 521.29,-100.64 520.97,-107.63"/>
</g>
<!-- Node4&#45;&gt;Node7 -->
<g id="edge6" class="edge">
<title>Node4&#45;&gt;Node7</title>
<path fill="none" stroke="#63b8ff" d="M522.06,-88.82C497.4,-81.76 470.12,-73.94 449.21,-67.95"/>
<polygon fill="#63b8ff" stroke="#63b8ff" points="520.77,-92.09 531.34,-91.48 522.7,-85.36 520.77,-92.09"/>
</g>
<!-- Node6 -->
<g id="node6" class="node">
<title>Node6</title>
<g id="a_node6"><a xlink:href="class_urho3_d_1_1_view.html#a124582e02f0e82ba799467b20b162436" target="_top" xlink:title="Render batches.">
<polygon fill="white" stroke="#666666" points="112,-95.5 0,-95.5 0,-76.5 112,-76.5 112,-95.5"/>
<text text-anchor="middle" x="56" y="-83.5" font-family="Roboto" font-size="10.00">Urho3D::View::Render</text>
</a>
</g>
</g>
<!-- Node5&#45;&gt;Node6 -->
<g id="edge5" class="edge">
<title>Node5&#45;&gt;Node6</title>
<path fill="none" stroke="#63b8ff" d="M136.07,-86C127.94,-86 119.84,-86 112.1,-86"/>
<polygon fill="#63b8ff" stroke="#63b8ff" points="136.04,-89.5 146.04,-86 136.04,-82.5 136.04,-89.5"/>
</g>
<!-- Node7&#45;&gt;Node5 -->
<g id="edge7" class="edge">
<title>Node7&#45;&gt;Node5</title>
<path fill="none" stroke="#63b8ff" d="M333.34,-69.64C320.46,-71.53 307.17,-73.48 294.46,-75.35"/>
<polygon fill="#63b8ff" stroke="#63b8ff" points="333.65,-73.13 343.03,-68.21 332.63,-66.2 333.65,-73.13"/>
</g>
<!-- Node7&#45;&gt;Node7 -->
<g id="edge8" class="edge">
<title>Node7&#45;&gt;Node7</title>
<path fill="none" stroke="#63b8ff" d="M444.52,-78.6C440.95,-82.63 430.61,-85.5 413.5,-85.5 383.09,-85.5 374.06,-76.44 386.42,-67.87"/>
<polygon fill="#63b8ff" stroke="#63b8ff" points="447.84,-77.47 441.11,-69.29 441.26,-79.88 447.84,-77.47"/>
</g>
<!-- Node8&#45;&gt;Node4 -->
<g id="edge10" class="edge">
<title>Node8&#45;&gt;Node4</title>
<path fill="none" stroke="#63b8ff" d="M679.77,-103.45C666.64,-103.96 652.96,-104.48 640.27,-104.97"/>
<polygon fill="#63b8ff" stroke="#63b8ff" points="679.75,-106.95 689.61,-103.07 679.48,-99.96 679.75,-106.95"/>
</g>
<!-- Node10 -->
<g id="node10" class="node">
<title>Node10</title>
<g id="a_node10"><a xlink:href="class_urho3_d_1_1_view.html#a8386e461553bac5a6b4512b8a9712e79" target="_top" xlink:title="Query for lit geometries and shadow casters for a light.">
<polygon fill="white" stroke="#666666" points="813,-24.5 676,-24.5 676,-5.5 813,-5.5 813,-24.5"/>
<text text-anchor="middle" x="744.5" y="-12.5" font-family="Roboto" font-size="10.00">Urho3D::View::ProcessLight</text>
</a>
</g>
</g>
<!-- Node9&#45;&gt;Node10 -->
<g id="edge13" class="edge">
<title>Node9&#45;&gt;Node10</title>
<path fill="none" stroke="#63b8ff" d="M837.36,-15C829.34,-15 821.25,-15 813.38,-15"/>
<polygon fill="#63b8ff" stroke="#63b8ff" points="837.12,-18.5 847.12,-15 837.12,-11.5 837.12,-18.5"/>
</g>
</g>
</svg>
