<?xml version="1.0" encoding="UTF-8" standalone="no"?>
<!DOCTYPE svg PUBLIC "-//W3C//DTD SVG 1.1//EN"
 "http://www.w3.org/Graphics/SVG/1.1/DTD/svg11.dtd">
<!-- Generated by graphviz version 7.0.3 (0)
 -->
<!-- Title: Urho3D::AbstractFile Pages: 1 -->
<svg width="382pt" height="93pt"
 viewBox="0.00 0.00 381.50 93.00" xmlns="http://www.w3.org/2000/svg" xmlns:xlink="http://www.w3.org/1999/xlink">
<g id="graph0" class="graph" transform="scale(1 1) rotate(0) translate(4 89)">
<title>Urho3D::AbstractFile</title>
<!-- Node1 -->
<g id="node1" class="node">
<title>Node1</title>
<g id="a_node1"><a xlink:title="A common root class for objects that implement both Serializer and Deserializer.">
<polygon fill="#999999" stroke="#666666" points="227,-19 120,-19 120,0 227,0 227,-19"/>
<text text-anchor="middle" x="173.5" y="-7" font-family="Roboto" font-size="10.00">Urho3D::AbstractFile</text>
</a>
</g>
</g>
<!-- Node2 -->
<g id="node2" class="node">
<title>Node2</title>
<g id="a_node2"><a xlink:href="class_urho3_d_1_1_deserializer.html" target="_top" xlink:title=" ">
<polygon fill="white" stroke="#666666" points="107,-85 0,-85 0,-66 107,-66 107,-85"/>
<text text-anchor="middle" x="53.5" y="-73" font-family="Roboto" font-size="10.00">Urho3D::Deserializer</text>
</a>
</g>
</g>
<!-- Node2&#45;&gt;Node1 -->
<g id="edge1" class="edge">
<title>Node2&#45;&gt;Node1</title>
<path fill="none" stroke="#63b8ff" d="M80.19,-60.26C103.68,-47.74 137.14,-29.89 156.96,-19.32"/>
<polygon fill="#63b8ff" stroke="#63b8ff" points="78.7,-57.09 71.52,-64.89 81.99,-63.27 78.7,-57.09"/>
</g>
<!-- Node3 -->
<g id="node3" class="node">
<title>Node3</title>
<g id="a_node3"><a xlink:href="class_urho3_d_1_1_serializer.html" target="_top" xlink:title=" ">
<polygon fill="white" stroke="#666666" points="221.5,-85 125.5,-85 125.5,-66 221.5,-66 221.5,-85"/>
<text text-anchor="middle" x="173.5" y="-73" font-family="Roboto" font-size="10.00">Urho3D::Serializer</text>
</a>
</g>
</g>
<!-- Node3&#45;&gt;Node1 -->
<g id="edge2" class="edge">
<title>Node3&#45;&gt;Node1</title>
<path fill="none" stroke="#63b8ff" d="M173.5,-54.18C173.5,-42.44 173.5,-28.27 173.5,-19.32"/>
<polygon fill="#63b8ff" stroke="#63b8ff" points="170,-54.09 173.5,-64.09 177,-54.09 170,-54.09"/>
</g>
<!-- Node4 -->
<g id="node4" class="node">
<title>Node4</title>
<g id="a_node4"><a xlink:href="class_urho3_d_1_1_string.html" target="_top" xlink:title="String class.">
<polygon fill="white" stroke="#666666" points="319.5,-85 239.5,-85 239.5,-66 319.5,-66 319.5,-85"/>
<text text-anchor="middle" x="279.5" y="-73" font-family="Roboto" font-size="10.00">Urho3D::String</text>
</a>
</g>
</g>
<!-- Node4&#45;&gt;Node1 -->
<g id="edge3" class="edge">
<title>Node4&#45;&gt;Node1</title>
<path fill="none" stroke="#9a32cd" stroke-dasharray="5,2" d="M255.08,-59.75C234.38,-47.26 205.38,-29.75 188.11,-19.32"/>
<polygon fill="#9a32cd" stroke="#9a32cd" points="253.1,-62.65 263.47,-64.82 256.71,-56.65 253.1,-62.65"/>
<text text-anchor="middle" x="248.5" y="-40" font-family="Roboto" font-size="10.00"> name_</text>
</g>
<!-- Node4&#45;&gt;Node4 -->
<g id="edge4" class="edge">
<title>Node4&#45;&gt;Node4</title>
<path fill="none" stroke="#9a32cd" stroke-dasharray="5,2" d="M331.24,-80.12C335.12,-79.09 337.5,-77.55 337.5,-75.5 337.5,-71.86 329.97,-69.82 319.89,-69.4"/>
<polygon fill="#9a32cd" stroke="#9a32cd" points="330.85,-76.64 321.39,-81.41 331.76,-83.58 330.85,-76.64"/>
<text text-anchor="middle" x="355.5" y="-73" font-family="Roboto" font-size="10.00"> EMPTY</text>
</g>
</g>
</svg>
