<?xml version="1.0" encoding="UTF-8" standalone="no"?>
<!DOCTYPE svg PUBLIC "-//W3C//DTD SVG 1.1//EN"
 "http://www.w3.org/Graphics/SVG/1.1/DTD/svg11.dtd">
<!-- Generated by graphviz version 7.0.3 (0)
 -->
<!-- Title: Urho3D::Terrain::SetHeightMap Pages: 1 -->
<svg width="1059pt" height="558pt"
 viewBox="0.00 0.00 1059.00 558.00" xmlns="http://www.w3.org/2000/svg" xmlns:xlink="http://www.w3.org/1999/xlink">
<g id="graph0" class="graph" transform="scale(1 1) rotate(0) translate(4 554)">
<title>Urho3D::Terrain::SetHeightMap</title>
<!-- Node1 -->
<g id="node1" class="node">
<title>Node1</title>
<g id="a_node1"><a xlink:title=" ">
<polygon fill="#999999" stroke="#666666" points="152,-257.5 0,-257.5 0,-238.5 152,-238.5 152,-257.5"/>
<text text-anchor="middle" x="76" y="-245.5" font-family="Roboto" font-size="10.00">Urho3D::Terrain::SetHeightMap</text>
</a>
</g>
</g>
<!-- Node2 -->
<g id="node2" class="node">
<title>Node2</title>
<g id="a_node2"><a xlink:href="class_urho3_d_1_1_component.html#aaf87acb64001774c62f0784254f9b291" target="_top" xlink:title="Mark for attribute check on the next network update.">
<polygon fill="white" stroke="#666666" points="309.5,-360 198.5,-360 198.5,-330 309.5,-330 309.5,-360"/>
<text text-anchor="start" x="206.5" y="-348" font-family="Roboto" font-size="10.00">Urho3D::Component::</text>
<text text-anchor="middle" x="254" y="-337" font-family="Roboto" font-size="10.00">MarkNetworkUpdate</text>
</a>
</g>
</g>
<!-- Node1&#45;&gt;Node2 -->
<g id="edge1" class="edge">
<title>Node1&#45;&gt;Node2</title>
<path fill="none" stroke="#63b8ff" d="M94.84,-257.83C122.88,-273.29 177.88,-303.6 215.05,-324.08"/>
<polygon fill="#63b8ff" stroke="#63b8ff" points="213.25,-327.09 223.69,-328.85 216.62,-320.96 213.25,-327.09"/>
</g>
<!-- Node8 -->
<g id="node8" class="node">
<title>Node8</title>
<g id="a_node8"><a xlink:href="class_urho3_d_1_1_terrain.html#a22a49ec302f5976a837f343248e5c28c" target="_top" xlink:title="Set heightmap image and optionally recreate the geometry immediately. Return true if successful.">
<polygon fill="white" stroke="#666666" points="320,-220 188,-220 188,-190 320,-190 320,-220"/>
<text text-anchor="start" x="196" y="-208" font-family="Roboto" font-size="10.00">Urho3D::Terrain::SetHeight</text>
<text text-anchor="middle" x="254" y="-197" font-family="Roboto" font-size="10.00">MapInternal</text>
</a>
</g>
</g>
<!-- Node1&#45;&gt;Node8 -->
<g id="edge8" class="edge">
<title>Node1&#45;&gt;Node8</title>
<path fill="none" stroke="#63b8ff" d="M117.82,-238.03C135.9,-233.61 157.74,-228.27 178.55,-223.19"/>
<polygon fill="#63b8ff" stroke="#63b8ff" points="179.29,-226.61 188.18,-220.84 177.63,-219.81 179.29,-226.61"/>
</g>
<!-- Node3 -->
<g id="node3" class="node">
<title>Node3</title>
<g id="a_node3"><a xlink:href="class_urho3_d_1_1_component.html#a2c22f727341671a0420934f249ffe059" target="_top" xlink:title="Return the scene the node belongs to.">
<polygon fill="white" stroke="#666666" points="487.5,-441 376.5,-441 376.5,-411 487.5,-411 487.5,-441"/>
<text text-anchor="start" x="384.5" y="-429" font-family="Roboto" font-size="10.00">Urho3D::Component::</text>
<text text-anchor="middle" x="432" y="-418" font-family="Roboto" font-size="10.00">GetScene</text>
</a>
</g>
</g>
<!-- Node2&#45;&gt;Node3 -->
<g id="edge2" class="edge">
<title>Node2&#45;&gt;Node3</title>
<path fill="none" stroke="#63b8ff" d="M278.77,-360.26C298.8,-372.65 328.51,-389.99 356,-402 359.73,-403.63 363.6,-405.2 367.54,-406.71"/>
<polygon fill="#63b8ff" stroke="#63b8ff" points="366.03,-409.89 376.62,-410.03 368.43,-403.31 366.03,-409.89"/>
</g>
<!-- Node5 -->
<g id="node5" class="node">
<title>Node5</title>
<g id="a_node5"><a xlink:href="class_urho3_d_1_1_component.html#a8f1388c232ca01b7c7328c761aae6e76" target="_top" xlink:title=" ">
<polygon fill="white" stroke="#666666" points="487.5,-393 376.5,-393 376.5,-363 487.5,-363 487.5,-393"/>
<text text-anchor="start" x="384.5" y="-381" font-family="Roboto" font-size="10.00">Urho3D::Component::</text>
<text text-anchor="middle" x="432" y="-370" font-family="Roboto" font-size="10.00">IsReplicated</text>
</a>
</g>
</g>
<!-- Node2&#45;&gt;Node5 -->
<g id="edge4" class="edge">
<title>Node2&#45;&gt;Node5</title>
<path fill="none" stroke="#63b8ff" d="M309.72,-355.26C327.19,-358.54 346.7,-362.19 364.89,-365.6"/>
<polygon fill="#63b8ff" stroke="#63b8ff" points="364.05,-369.01 374.52,-367.41 365.34,-362.13 364.05,-369.01"/>
</g>
<!-- Node7 -->
<g id="node7" class="node">
<title>Node7</title>
<g id="a_node7"><a xlink:href="class_urho3_d_1_1_scene.html#a00b724dfff718639b9de12d71139499c" target="_top" xlink:title="Mark for attribute check on the next network update.">
<polygon fill="white" stroke="#666666" points="506,-327 358,-327 358,-297 506,-297 506,-327"/>
<text text-anchor="start" x="366" y="-315" font-family="Roboto" font-size="10.00">Urho3D::Scene::MarkNetwork</text>
<text text-anchor="middle" x="432" y="-304" font-family="Roboto" font-size="10.00">Update</text>
</a>
</g>
</g>
<!-- Node2&#45;&gt;Node7 -->
<g id="edge6" class="edge">
<title>Node2&#45;&gt;Node7</title>
<path fill="none" stroke="#63b8ff" d="M309.72,-334.74C321.43,-332.54 334.06,-330.18 346.59,-327.83"/>
<polygon fill="#63b8ff" stroke="#63b8ff" points="346.88,-331.33 356.06,-326.05 345.59,-324.45 346.88,-331.33"/>
</g>
<!-- Node4 -->
<g id="node4" class="node">
<title>Node4</title>
<g id="a_node4"><a xlink:href="class_urho3_d_1_1_node.html#ad3742cda838a2b291daa44d3ab00de56" target="_top" xlink:title=" ">
<polygon fill="white" stroke="#666666" points="687.5,-435.5 561.5,-435.5 561.5,-416.5 687.5,-416.5 687.5,-435.5"/>
<text text-anchor="middle" x="624.5" y="-423.5" font-family="Roboto" font-size="10.00">Urho3D::Node::GetScene</text>
</a>
</g>
</g>
<!-- Node3&#45;&gt;Node4 -->
<g id="edge3" class="edge">
<title>Node3&#45;&gt;Node4</title>
<path fill="none" stroke="#63b8ff" d="M487.84,-426C507.23,-426 529.35,-426 550.03,-426"/>
<polygon fill="#63b8ff" stroke="#63b8ff" points="549.83,-429.5 559.83,-426 549.83,-422.5 549.83,-429.5"/>
</g>
<!-- Node6 -->
<g id="node6" class="node">
<title>Node6</title>
<g id="a_node6"><a xlink:href="class_urho3_d_1_1_scene.html#a97fb1222bd2f38e6c1c433c0b7e54d40" target="_top" xlink:title="Return whether the specified id is a replicated id.">
<polygon fill="white" stroke="#666666" points="699.5,-387.5 549.5,-387.5 549.5,-368.5 699.5,-368.5 699.5,-387.5"/>
<text text-anchor="middle" x="624.5" y="-375.5" font-family="Roboto" font-size="10.00">Urho3D::Scene::IsReplicatedID</text>
</a>
</g>
</g>
<!-- Node5&#45;&gt;Node6 -->
<g id="edge5" class="edge">
<title>Node5&#45;&gt;Node6</title>
<path fill="none" stroke="#63b8ff" d="M487.84,-378C503.53,-378 521.02,-378 538.08,-378"/>
<polygon fill="#63b8ff" stroke="#63b8ff" points="537.69,-381.5 547.69,-378 537.69,-374.5 537.69,-381.5"/>
</g>
<!-- Node7&#45;&gt;Node7 -->
<g id="edge7" class="edge">
<title>Node7&#45;&gt;Node7</title>
<path fill="none" stroke="#63b8ff" d="M400.71,-327.28C393.76,-336.41 404.19,-345 432,-345 447.21,-345 457.22,-342.43 462.03,-338.61"/>
<polygon fill="#63b8ff" stroke="#63b8ff" points="465.5,-339.1 463.12,-328.78 458.54,-338.33 465.5,-339.1"/>
</g>
<!-- Node9 -->
<g id="node9" class="node">
<title>Node9</title>
<g id="a_node9"><a xlink:href="class_urho3_d_1_1_terrain.html#a4c3774f5e5fb85197eb87d8fd1fff046" target="_top" xlink:title="Regenerate terrain geometry.">
<polygon fill="#fff0f0" stroke="red" points="705,-257.5 544,-257.5 544,-238.5 705,-238.5 705,-257.5"/>
<text text-anchor="middle" x="624.5" y="-245.5" font-family="Roboto" font-size="10.00">Urho3D::Terrain::CreateGeometry</text>
</a>
</g>
</g>
<!-- Node8&#45;&gt;Node9 -->
<g id="edge9" class="edge">
<title>Node8&#45;&gt;Node9</title>
<path fill="none" stroke="#63b8ff" d="M281.39,-220.45C301.18,-231.1 329.34,-244.33 356,-250 413.77,-262.29 480.15,-261.87 532.34,-258.34"/>
<polygon fill="#63b8ff" stroke="#63b8ff" points="532.36,-261.85 542.08,-257.63 531.85,-254.87 532.36,-261.85"/>
</g>
<!-- Node115 -->
<g id="node22" class="node">
<title>Node115</title>
<g id="a_node22"><a xlink:href="class_urho3_d_1_1_terrain.html#a43af67aece762c4ec605c85eb51815ba" target="_top" xlink:title="Handle heightmap image reload finished.">
<polygon fill="white" stroke="#666666" points="506.5,-241 357.5,-241 357.5,-211 506.5,-211 506.5,-241"/>
<text text-anchor="start" x="365.5" y="-229" font-family="Roboto" font-size="10.00">Urho3D::Terrain::HandleHeight</text>
<text text-anchor="middle" x="432" y="-218" font-family="Roboto" font-size="10.00">MapReloadFinished</text>
</a>
</g>
</g>
<!-- Node8&#45;&gt;Node115 -->
<g id="edge27" class="edge">
<title>Node8&#45;&gt;Node115</title>
<path fill="none" stroke="#63b8ff" d="M320.04,-212.76C328.41,-213.76 337.08,-214.79 345.72,-215.82"/>
<polygon fill="#63b8ff" stroke="#63b8ff" points="345.18,-219.29 355.53,-216.99 346.01,-212.33 345.18,-219.29"/>
</g>
<!-- Node116 -->
<g id="node23" class="node">
<title>Node116</title>
<g id="a_node23"><a xlink:href="class_urho3_d_1_1_image.html#a7f857b190bc10a60737469481fb407af" target="_top" xlink:title=" ">
<polygon fill="white" stroke="#666666" points="508,-192.5 356,-192.5 356,-173.5 508,-173.5 508,-192.5"/>
<text text-anchor="middle" x="432" y="-180.5" font-family="Roboto" font-size="10.00">Urho3D::Image::IsCompressed</text>
</a>
</g>
</g>
<!-- Node8&#45;&gt;Node116 -->
<g id="edge29" class="edge">
<title>Node8&#45;&gt;Node116</title>
<path fill="none" stroke="#63b8ff" d="M320.04,-196.87C327.89,-195.89 336.01,-194.87 344.11,-193.86"/>
<polygon fill="#63b8ff" stroke="#63b8ff" points="344.54,-197.34 354.03,-192.62 343.67,-190.39 344.54,-197.34"/>
</g>
<!-- Node117 -->
<g id="node24" class="node">
<title>Node117</title>
<g id="a_node24"><a xlink:href="class_urho3_d_1_1_object.html#a7d9d061f4cf32f5fd5531e11a72834b6" target="_top" xlink:title="Subscribe to an event that can be sent by any sender.">
<polygon fill="#fff0f0" stroke="red" points="497.5,-155 366.5,-155 366.5,-125 497.5,-125 497.5,-155"/>
<text text-anchor="start" x="374.5" y="-143" font-family="Roboto" font-size="10.00">Urho3D::Object::Subscribe</text>
<text text-anchor="middle" x="432" y="-132" font-family="Roboto" font-size="10.00">ToEvent</text>
</a>
</g>
</g>
<!-- Node8&#45;&gt;Node117 -->
<g id="edge30" class="edge">
<title>Node8&#45;&gt;Node117</title>
<path fill="none" stroke="#63b8ff" d="M291.21,-189.53C310.34,-181.55 334.29,-171.87 356,-164 360.61,-162.33 365.39,-160.66 370.22,-159.02"/>
<polygon fill="#63b8ff" stroke="#63b8ff" points="370.98,-162.45 379.36,-155.96 368.77,-155.81 370.98,-162.45"/>
</g>
<!-- Node122 -->
<g id="node25" class="node">
<title>Node122</title>
<g id="a_node25"><a xlink:href="class_urho3_d_1_1_object.html#a153b96c4397e045b2ca2b2d5471d097c" target="_top" xlink:title="Unsubscribe from an event.">
<polygon fill="#fff0f0" stroke="red" points="503,-107 361,-107 361,-77 503,-77 503,-107"/>
<text text-anchor="start" x="369" y="-95" font-family="Roboto" font-size="10.00">Urho3D::Object::Unsubscribe</text>
<text text-anchor="middle" x="432" y="-84" font-family="Roboto" font-size="10.00">FromEvent</text>
</a>
</g>
</g>
<!-- Node8&#45;&gt;Node122 -->
<g id="edge31" class="edge">
<title>Node8&#45;&gt;Node122</title>
<path fill="none" stroke="#63b8ff" d="M268.56,-189.63C286.68,-169.97 320.63,-136.07 356,-116 358.5,-114.58 361.09,-113.24 363.74,-111.96"/>
<polygon fill="#63b8ff" stroke="#63b8ff" points="365.08,-115.2 372.84,-107.98 362.27,-108.78 365.08,-115.2"/>
</g>
<!-- Node10 -->
<g id="node10" class="node">
<title>Node10</title>
<g id="a_node10"><a xlink:href="class_urho3_d_1_1_p_o_d_vector.html#ac564a928bd75354adfdeb2b7fd225149" target="_top" xlink:title="Return iterator to the beginning.">
<polygon fill="#fff0f0" stroke="red" points="877,-550 769,-550 769,-520 877,-520 877,-550"/>
<text text-anchor="start" x="777" y="-538" font-family="Roboto" font-size="10.00">Urho3D::PODVector::</text>
<text text-anchor="middle" x="823" y="-527" font-family="Roboto" font-size="10.00">Begin</text>
</a>
</g>
</g>
<!-- Node9&#45;&gt;Node10 -->
<g id="edge10" class="edge">
<title>Node9&#45;&gt;Node10</title>
<path fill="none" stroke="#63b8ff" d="M634.65,-257.86C651.22,-276.29 686.25,-317.79 705,-359 733.75,-422.19 693.29,-460.57 741,-511 745.89,-516.17 751.85,-520.25 758.28,-523.46"/>
<polygon fill="#63b8ff" stroke="#63b8ff" points="756.73,-526.6 767.3,-527.23 759.43,-520.14 756.73,-526.6"/>
</g>
<!-- Node12 -->
<g id="node11" class="node">
<title>Node12</title>
<g id="a_node11"><a xlink:href="class_urho3_d_1_1_terrain.html#a3836071d62973e24f72cfaf65d46afee" target="_top" xlink:title="Calculate LOD errors for a patch.">
<polygon fill="#fff0f0" stroke="red" points="888,-484 758,-484 758,-454 888,-454 888,-484"/>
<text text-anchor="start" x="766" y="-472" font-family="Roboto" font-size="10.00">Urho3D::Terrain::Calculate</text>
<text text-anchor="middle" x="823" y="-461" font-family="Roboto" font-size="10.00">LodErrors</text>
</a>
</g>
</g>
<!-- Node9&#45;&gt;Node12 -->
<g id="edge11" class="edge">
<title>Node9&#45;&gt;Node12</title>
<path fill="none" stroke="#63b8ff" d="M633.68,-257.94C648.98,-276.81 682.39,-319.5 705,-359 724.57,-393.19 712.13,-413.2 741,-440 744.23,-443 747.8,-445.7 751.58,-448.11"/>
<polygon fill="#63b8ff" stroke="#63b8ff" points="749.58,-451.01 760.01,-452.84 753,-444.9 749.58,-451.01"/>
</g>
<!-- Node17 -->
<g id="node12" class="node">
<title>Node17</title>
<g id="a_node12"><a xlink:href="class_urho3_d_1_1_terrain_patch.html#a8713045be618a976aa03e1ca0fff7712" target="_top" xlink:title="Return patch coordinates.">
<polygon fill="white" stroke="#666666" points="1051,-441 941,-441 941,-411 1051,-411 1051,-441"/>
<text text-anchor="start" x="949" y="-429" font-family="Roboto" font-size="10.00">Urho3D::TerrainPatch</text>
<text text-anchor="middle" x="996" y="-418" font-family="Roboto" font-size="10.00">::GetCoordinates</text>
</a>
</g>
</g>
<!-- Node9&#45;&gt;Node17 -->
<g id="edge25" class="edge">
<title>Node9&#45;&gt;Node17</title>
<path fill="none" stroke="#63b8ff" d="M632.44,-257.73C656.78,-291.79 736.98,-403.75 741,-406 798.7,-438.2 875.54,-439.63 929.54,-435.24"/>
<polygon fill="#63b8ff" stroke="#63b8ff" points="929.56,-438.75 939.2,-434.36 928.92,-431.78 929.56,-438.75"/>
</g>
<!-- Node26 -->
<g id="node13" class="node">
<title>Node26</title>
<g id="a_node13"><a xlink:href="class_urho3_d_1_1_node.html#ab23d77af7fe3350c1dcfec8281849ed3" target="_top" xlink:title="Create a component to this node (with specified ID if provided).">
<polygon fill="#fff0f0" stroke="red" points="905,-397.5 741,-397.5 741,-378.5 905,-378.5 905,-397.5"/>
<text text-anchor="middle" x="823" y="-385.5" font-family="Roboto" font-size="10.00">Urho3D::Node::CreateComponent</text>
</a>
</g>
</g>
<!-- Node9&#45;&gt;Node26 -->
<g id="edge14" class="edge">
<title>Node9&#45;&gt;Node26</title>
<path fill="none" stroke="#63b8ff" d="M631.95,-257.99C647.6,-281.38 690.08,-339.88 741,-369 744.36,-370.92 747.91,-372.65 751.56,-374.2"/>
<polygon fill="#63b8ff" stroke="#63b8ff" points="750.08,-377.39 760.67,-377.61 752.53,-370.83 750.08,-377.39"/>
</g>
<!-- Node59 -->
<g id="node14" class="node">
<title>Node59</title>
<g id="a_node14"><a xlink:href="class_urho3_d_1_1_terrain.html#ac5f9117661ac3c1b077540c4732cda94" target="_top" xlink:title="Create index data shared by all patches.">
<polygon fill="#fff0f0" stroke="red" points="904.5,-342.5 741.5,-342.5 741.5,-323.5 904.5,-323.5 904.5,-342.5"/>
<text text-anchor="middle" x="823" y="-330.5" font-family="Roboto" font-size="10.00">Urho3D::Terrain::CreateIndexData</text>
</a>
</g>
</g>
<!-- Node9&#45;&gt;Node59 -->
<g id="edge15" class="edge">
<title>Node9&#45;&gt;Node59</title>
<path fill="none" stroke="#63b8ff" d="M639.77,-257.97C660.93,-272.34 702.31,-298.78 741,-314 746.63,-316.21 752.58,-318.21 758.61,-320.01"/>
<polygon fill="#63b8ff" stroke="#63b8ff" points="757.44,-323.31 768.01,-322.61 759.31,-316.57 757.44,-323.31"/>
</g>
<!-- Node61 -->
<g id="node15" class="node">
<title>Node61</title>
<g id="a_node15"><a xlink:href="class_urho3_d_1_1_terrain.html#a03006159674e5b8e1bb6d34e2afdcc81" target="_top" xlink:title="Regenerate patch geometry.">
<polygon fill="#fff0f0" stroke="red" points="894.5,-287 751.5,-287 751.5,-257 894.5,-257 894.5,-287"/>
<text text-anchor="start" x="759.5" y="-275" font-family="Roboto" font-size="10.00">Urho3D::Terrain::CreatePatch</text>
<text text-anchor="middle" x="823" y="-264" font-family="Roboto" font-size="10.00">Geometry</text>
</a>
</g>
</g>
<!-- Node9&#45;&gt;Node61 -->
<g id="edge17" class="edge">
<title>Node9&#45;&gt;Node61</title>
<path fill="none" stroke="#63b8ff" d="M705.42,-257.76C716.82,-259.15 728.56,-260.59 739.99,-261.98"/>
<polygon fill="#63b8ff" stroke="#63b8ff" points="739.45,-265.44 749.8,-263.18 740.3,-258.49 739.45,-265.44"/>
</g>
<!-- Node93 -->
<g id="node16" class="node">
<title>Node93</title>
<g id="a_node16"><a xlink:href="class_urho3_d_1_1_node.html#aefe4240e24961864d51e9a0d9f742756" target="_top" xlink:title="Create a temporary child scene node (with specified ID if provided).">
<polygon fill="#fff0f0" stroke="red" points="903,-239 743,-239 743,-209 903,-209 903,-239"/>
<text text-anchor="start" x="751" y="-227" font-family="Roboto" font-size="10.00">Urho3D::Node::CreateTemporary</text>
<text text-anchor="middle" x="823" y="-216" font-family="Roboto" font-size="10.00">Child</text>
</a>
</g>
</g>
<!-- Node9&#45;&gt;Node93 -->
<g id="edge20" class="edge">
<title>Node9&#45;&gt;Node93</title>
<path fill="none" stroke="#63b8ff" d="M705.42,-238.24C713.99,-237.19 722.76,-236.12 731.44,-235.06"/>
<polygon fill="#63b8ff" stroke="#63b8ff" points="731.78,-238.55 741.28,-233.86 730.93,-231.6 731.78,-238.55"/>
</g>
<!-- Node96 -->
<g id="node17" class="node">
<title>Node96</title>
<g id="a_node17"><a xlink:href="class_urho3_d_1_1_p_o_d_vector.html#ad9cedde70f6aac8dde2b7bfba7ca4fbb" target="_top" xlink:title="Return iterator to the end.">
<polygon fill="#fff0f0" stroke="red" points="885.5,-190.5 760.5,-190.5 760.5,-171.5 885.5,-171.5 885.5,-190.5"/>
<text text-anchor="middle" x="823" y="-178.5" font-family="Roboto" font-size="10.00">Urho3D::PODVector::End</text>
</a>
</g>
</g>
<!-- Node9&#45;&gt;Node96 -->
<g id="edge21" class="edge">
<title>Node9&#45;&gt;Node96</title>
<path fill="none" stroke="#63b8ff" d="M646.4,-238.1C669.24,-227.56 707.11,-210.94 741,-200 747.94,-197.76 755.29,-195.67 762.62,-193.75"/>
<polygon fill="#63b8ff" stroke="#63b8ff" points="763.36,-197.17 772.2,-191.34 761.65,-190.38 763.36,-197.17"/>
</g>
<!-- Node97 -->
<g id="node18" class="node">
<title>Node97</title>
<g id="a_node18"><a xlink:href="class_urho3_d_1_1_node.html#aa413f1ee8b3fd0928b371a6d9875563c" target="_top" xlink:title="Return child scene node by index.">
<polygon fill="white" stroke="#666666" points="884,-153.5 762,-153.5 762,-134.5 884,-134.5 884,-153.5"/>
<text text-anchor="middle" x="823" y="-141.5" font-family="Roboto" font-size="10.00">Urho3D::Node::GetChild</text>
</a>
</g>
</g>
<!-- Node9&#45;&gt;Node97 -->
<g id="edge22" class="edge">
<title>Node9&#45;&gt;Node97</title>
<path fill="none" stroke="#63b8ff" d="M635.66,-238.03C654.66,-219.97 697.58,-181.88 741,-162 744.76,-160.28 748.69,-158.72 752.71,-157.3"/>
<polygon fill="#63b8ff" stroke="#63b8ff" points="753.58,-160.7 762.06,-154.34 751.47,-154.03 753.58,-160.7"/>
</g>
<!-- Node98 -->
<g id="node19" class="node">
<title>Node98</title>
<g id="a_node19"><a xlink:href="class_urho3_d_1_1_node.html#a8018ae5a2c8035dd296966c0508916c2" target="_top" xlink:title="Return child scene nodes with a specific component.">
<polygon fill="#fff0f0" stroke="red" points="890.5,-116 755.5,-116 755.5,-86 890.5,-86 890.5,-116"/>
<text text-anchor="start" x="763.5" y="-104" font-family="Roboto" font-size="10.00">Urho3D::Node::GetChildren</text>
<text text-anchor="middle" x="823" y="-93" font-family="Roboto" font-size="10.00">WithComponent</text>
</a>
</g>
</g>
<!-- Node9&#45;&gt;Node98 -->
<g id="edge23" class="edge">
<title>Node9&#45;&gt;Node98</title>
<path fill="none" stroke="#63b8ff" d="M632.03,-238.04C647.84,-214.68 690.63,-156.05 741,-125 743.13,-123.69 745.34,-122.44 747.6,-121.26"/>
<polygon fill="#63b8ff" stroke="#63b8ff" points="748.86,-124.53 756.45,-117.14 745.9,-118.19 748.86,-124.53"/>
</g>
<!-- Node101 -->
<g id="node20" class="node">
<title>Node101</title>
<g id="a_node20"><a xlink:href="class_urho3_d_1_1_node.html#a34f6d23128c61664a11ceb275604e013" target="_top" xlink:title="Return component by type. If there are several, returns the first.">
<polygon fill="#fff0f0" stroke="red" points="898.5,-67.5 747.5,-67.5 747.5,-48.5 898.5,-48.5 898.5,-67.5"/>
<text text-anchor="middle" x="823" y="-55.5" font-family="Roboto" font-size="10.00">Urho3D::Node::GetComponent</text>
</a>
</g>
</g>
<!-- Node9&#45;&gt;Node101 -->
<g id="edge24" class="edge">
<title>Node9&#45;&gt;Node101</title>
<path fill="none" stroke="#63b8ff" d="M629.02,-238.4C640.3,-209.09 678.47,-120.11 741,-77 743.26,-75.44 745.63,-74.01 748.08,-72.7"/>
<polygon fill="#63b8ff" stroke="#63b8ff" points="749.51,-75.89 757.16,-68.55 746.61,-69.52 749.51,-75.89"/>
</g>
<!-- Node35 -->
<g id="node21" class="node">
<title>Node35</title>
<g id="a_node21"><a xlink:href="class_urho3_d_1_1_object.html#a69af51cfa67f9626273b35a6d501e03e" target="_top" xlink:title="Return a preallocated map for event data. Used for optimization to avoid constant re&#45;allocation of ev...">
<polygon fill="#fff0f0" stroke="red" points="885.5,-30 760.5,-30 760.5,0 885.5,0 885.5,-30"/>
<text text-anchor="start" x="768.5" y="-18" font-family="Roboto" font-size="10.00">Urho3D::Object::GetEvent</text>
<text text-anchor="middle" x="823" y="-7" font-family="Roboto" font-size="10.00">DataMap</text>
</a>
</g>
</g>
<!-- Node9&#45;&gt;Node35 -->
<g id="edge26" class="edge">
<title>Node9&#45;&gt;Node35</title>
<path fill="none" stroke="#63b8ff" d="M627.97,-238.4C636.96,-205.32 671.2,-95.1 741,-39 743.86,-36.7 746.93,-34.63 750.15,-32.75"/>
<polygon fill="#63b8ff" stroke="#63b8ff" points="751.47,-36 758.82,-28.37 748.31,-29.75 751.47,-36"/>
</g>
<!-- Node12&#45;&gt;Node12 -->
<g id="edge12" class="edge">
<title>Node12&#45;&gt;Node12</title>
<path fill="none" stroke="#63b8ff" d="M792.59,-484.28C785.83,-493.41 795.97,-502 823,-502 837.78,-502 847.51,-499.43 852.19,-495.61"/>
<polygon fill="#63b8ff" stroke="#63b8ff" points="855.66,-496.1 853.25,-485.78 848.7,-495.35 855.66,-496.1"/>
</g>
<!-- Node12&#45;&gt;Node17 -->
<g id="edge13" class="edge">
<title>Node12&#45;&gt;Node17</title>
<path fill="none" stroke="#63b8ff" d="M885.25,-453.6C899.69,-449.97 915.12,-446.09 929.73,-442.41"/>
<polygon fill="#63b8ff" stroke="#63b8ff" points="930.39,-445.86 939.23,-440.02 928.68,-439.07 930.39,-445.86"/>
</g>
<!-- Node59&#45;&gt;Node59 -->
<g id="edge16" class="edge">
<title>Node59&#45;&gt;Node59</title>
<path fill="none" stroke="#63b8ff" d="M795.92,-342.87C783.56,-351.44 792.59,-360.5 823,-360.5 840.11,-360.5 850.45,-357.63 854.02,-353.6"/>
<polygon fill="#63b8ff" stroke="#63b8ff" points="857.34,-352.47 850.61,-344.29 850.76,-354.88 857.34,-352.47"/>
</g>
<!-- Node61&#45;&gt;Node17 -->
<g id="edge19" class="edge">
<title>Node61&#45;&gt;Node17</title>
<path fill="none" stroke="#63b8ff" d="M861.46,-287.4C875.89,-294.33 892.01,-303.36 905,-314 935.87,-339.28 963.3,-376.7 979.54,-401.21"/>
<polygon fill="#63b8ff" stroke="#63b8ff" points="976.39,-402.79 984.77,-409.28 982.26,-398.98 976.39,-402.79"/>
</g>
<!-- Node61&#45;&gt;Node61 -->
<g id="edge18" class="edge">
<title>Node61&#45;&gt;Node61</title>
<path fill="none" stroke="#63b8ff" d="M792.59,-287.28C785.83,-296.41 795.97,-305 823,-305 837.78,-305 847.51,-302.43 852.19,-298.61"/>
<polygon fill="#63b8ff" stroke="#63b8ff" points="855.66,-299.1 853.25,-288.78 848.7,-298.35 855.66,-299.1"/>
</g>
<!-- Node115&#45;&gt;Node9 -->
<g id="edge28" class="edge">
<title>Node115&#45;&gt;Node9</title>
<path fill="none" stroke="#63b8ff" d="M506.92,-234.54C515.29,-235.5 523.88,-236.5 532.43,-237.48"/>
<polygon fill="#63b8ff" stroke="#63b8ff" points="531.78,-240.93 542.12,-238.6 532.58,-233.98 531.78,-240.93"/>
</g>
</g>
</svg>
