<?xml version="1.0" encoding="UTF-8" standalone="no"?>
<!DOCTYPE svg PUBLIC "-//W3C//DTD SVG 1.1//EN"
 "http://www.w3.org/Graphics/SVG/1.1/DTD/svg11.dtd">
<!-- Generated by graphviz version 7.0.3 (0)
 -->
<!-- Title: Urho3D::EventReceiverGroup Pages: 1 -->
<svg width="242pt" height="170pt"
 viewBox="0.00 0.00 242.00 170.00" xmlns="http://www.w3.org/2000/svg" xmlns:xlink="http://www.w3.org/1999/xlink">
<g id="graph0" class="graph" transform="scale(1 1) rotate(0) translate(4 166)">
<title>Urho3D::EventReceiverGroup</title>
<!-- Node1 -->
<g id="node1" class="node">
<title>Node1</title>
<g id="a_node1"><a xlink:title="Tracking structure for event receivers.">
<polygon fill="#999999" stroke="#666666" points="186.5,-19 44.5,-19 44.5,0 186.5,0 186.5,-19"/>
<text text-anchor="middle" x="115.5" y="-7" font-family="Roboto" font-size="10.00">Urho3D::EventReceiverGroup</text>
</a>
</g>
</g>
<!-- Node2 -->
<g id="node2" class="node">
<title>Node2</title>
<g id="a_node2"><a xlink:href="class_urho3_d_1_1_ref_counted.html" target="_top" xlink:title="Base class for intrusively reference&#45;counted objects. These are noncopyable and non&#45;assignable.">
<polygon fill="white" stroke="#666666" points="107,-90.5 0,-90.5 0,-71.5 107,-71.5 107,-90.5"/>
<text text-anchor="middle" x="53.5" y="-78.5" font-family="Roboto" font-size="10.00">Urho3D::RefCounted</text>
</a>
</g>
</g>
<!-- Node2&#45;&gt;Node1 -->
<g id="edge1" class="edge">
<title>Node2&#45;&gt;Node1</title>
<path fill="none" stroke="#63b8ff" d="M68.99,-62.63C81.23,-48.91 97.82,-30.32 107.52,-19.45"/>
<polygon fill="#63b8ff" stroke="#63b8ff" points="66.41,-60.28 62.36,-70.07 71.63,-64.94 66.41,-60.28"/>
</g>
<!-- Node3 -->
<g id="node3" class="node">
<title>Node3</title>
<g id="a_node3"><a xlink:href="struct_urho3_d_1_1_ref_count.html" target="_top" xlink:title="Reference count structure.">
<polygon fill="white" stroke="#666666" points="101.5,-162 5.5,-162 5.5,-143 101.5,-143 101.5,-162"/>
<text text-anchor="middle" x="53.5" y="-150" font-family="Roboto" font-size="10.00">Urho3D::RefCount</text>
</a>
</g>
</g>
<!-- Node3&#45;&gt;Node2 -->
<g id="edge2" class="edge">
<title>Node3&#45;&gt;Node2</title>
<path fill="none" stroke="#9a32cd" stroke-dasharray="5,2" d="M53.5,-131.3C53.5,-117.94 53.5,-101.09 53.5,-90.95"/>
<polygon fill="#9a32cd" stroke="#9a32cd" points="50,-131.18 53.5,-141.18 57,-131.18 50,-131.18"/>
<text text-anchor="middle" x="76.5" y="-117" font-family="Roboto" font-size="10.00"> refCount_</text>
</g>
<!-- Node4 -->
<g id="node4" class="node">
<title>Node4</title>
<g id="a_node4"><a xlink:href="class_urho3_d_1_1_p_o_d_vector.html" target="_top" xlink:title=" ">
<polygon fill="white" stroke="#666666" points="234,-96 125,-96 125,-66 234,-66 234,-96"/>
<text text-anchor="start" x="133" y="-84" font-family="Roboto" font-size="10.00">Urho3D::PODVector&lt;</text>
<text text-anchor="middle" x="179.5" y="-73" font-family="Roboto" font-size="10.00"> Urho3D::Object * &gt;</text>
</a>
</g>
</g>
<!-- Node4&#45;&gt;Node1 -->
<g id="edge3" class="edge">
<title>Node4&#45;&gt;Node1</title>
<path fill="none" stroke="#9a32cd" stroke-dasharray="5,2" d="M158.77,-57.49C146.74,-44.43 132.28,-28.72 123.49,-19.18"/>
<polygon fill="#9a32cd" stroke="#9a32cd" points="155.87,-59.5 165.21,-64.49 161.01,-54.76 155.87,-59.5"/>
<text text-anchor="middle" x="172" y="-40" font-family="Roboto" font-size="10.00"> receivers_</text>
</g>
<!-- Node5 -->
<g id="node5" class="node">
<title>Node5</title>
<g id="a_node5"><a xlink:href="class_urho3_d_1_1_vector_base.html" target="_top" xlink:title="Vector base class.">
<polygon fill="white" stroke="#666666" points="232.5,-162 126.5,-162 126.5,-143 232.5,-143 232.5,-162"/>
<text text-anchor="middle" x="179.5" y="-150" font-family="Roboto" font-size="10.00">Urho3D::VectorBase</text>
</a>
</g>
</g>
<!-- Node5&#45;&gt;Node4 -->
<g id="edge4" class="edge">
<title>Node5&#45;&gt;Node4</title>
<path fill="none" stroke="#63b8ff" d="M179.5,-131.39C179.5,-120.15 179.5,-106.41 179.5,-96.27"/>
<polygon fill="#63b8ff" stroke="#63b8ff" points="176,-131.18 179.5,-141.18 183,-131.18 176,-131.18"/>
</g>
</g>
</svg>
