<?xml version="1.0" encoding="UTF-8" standalone="no"?>
<!DOCTYPE svg PUBLIC "-//W3C//DTD SVG 1.1//EN"
 "http://www.w3.org/Graphics/SVG/1.1/DTD/svg11.dtd">
<!-- Generated by graphviz version 7.0.3 (0)
 -->
<!-- Title: Urho3D::PhysicsWorld::RaycastSingleSegmented Pages: 1 -->
<svg width="270pt" height="100pt"
 viewBox="0.00 0.00 270.00 100.00" xmlns="http://www.w3.org/2000/svg" xmlns:xlink="http://www.w3.org/1999/xlink">
<g id="graph0" class="graph" transform="scale(1 1) rotate(0) translate(4 96)">
<title>Urho3D::PhysicsWorld::RaycastSingleSegmented</title>
<!-- Node1 -->
<g id="node1" class="node">
<title>Node1</title>
<g id="a_node1"><a xlink:title=" ">
<polygon fill="#999999" stroke="#666666" points="132,-51.5 0,-51.5 0,-21.5 132,-21.5 132,-51.5"/>
<text text-anchor="start" x="8" y="-39.5" font-family="Roboto" font-size="10.00">Urho3D::PhysicsWorld</text>
<text text-anchor="middle" x="66" y="-28.5" font-family="Roboto" font-size="10.00">::RaycastSingleSegmented</text>
</a>
</g>
</g>
<!-- Node2 -->
<g id="node2" class="node">
<title>Node2</title>
<g id="a_node2"><a xlink:href="_math_defs_8h.html#a1a55d5f5c4764f0184f60d1577c43478" target="_top" xlink:title=" ">
<polygon fill="white" stroke="#666666" points="262,-74 168,-74 168,-55 262,-55 262,-74"/>
<text text-anchor="middle" x="215" y="-62" font-family="Roboto" font-size="10.00">Urho3D::CeilToInt</text>
</a>
</g>
</g>
<!-- Node1&#45;&gt;Node2 -->
<g id="edge1" class="edge">
<title>Node1&#45;&gt;Node2</title>
<path fill="none" stroke="#63b8ff" d="M132.33,-48.94C140.46,-50.49 148.73,-52.07 156.72,-53.59"/>
<polygon fill="#63b8ff" stroke="#63b8ff" points="155.84,-56.99 166.32,-55.42 157.15,-50.11 155.84,-56.99"/>
</g>
<!-- Node3 -->
<g id="node3" class="node">
<title>Node3</title>
<g id="a_node3"><a xlink:href="_math_defs_8h.html#a639c291adc131849b469a216007c4af5" target="_top" xlink:title=" ">
<polygon fill="white" stroke="#666666" points="250.5,-19 179.5,-19 179.5,0 250.5,0 250.5,-19"/>
<text text-anchor="middle" x="215" y="-7" font-family="Roboto" font-size="10.00">Urho3D::Min</text>
</a>
</g>
</g>
<!-- Node1&#45;&gt;Node3 -->
<g id="edge3" class="edge">
<title>Node1&#45;&gt;Node3</title>
<path fill="none" stroke="#63b8ff" d="M132.33,-24.5C144.28,-22.31 156.53,-20.06 167.78,-17.99"/>
<polygon fill="#63b8ff" stroke="#63b8ff" points="168.39,-21.44 177.6,-16.19 167.13,-14.55 168.39,-21.44"/>
</g>
<!-- Node2&#45;&gt;Node2 -->
<g id="edge2" class="edge">
<title>Node2&#45;&gt;Node2</title>
<path fill="none" stroke="#63b8ff" d="M191.67,-74.37C181.03,-82.94 188.81,-92 215,-92 229.32,-92 238.14,-89.29 241.45,-85.43"/>
<polygon fill="#63b8ff" stroke="#63b8ff" points="244.82,-84.5 238.74,-75.82 238.08,-86.4 244.82,-84.5"/>
</g>
<!-- Node3&#45;&gt;Node3 -->
<g id="edge4" class="edge">
<title>Node3&#45;&gt;Node3</title>
<path fill="none" stroke="#63b8ff" d="M191.67,-19.37C181.03,-27.94 188.81,-37 215,-37 229.32,-37 238.14,-34.29 241.45,-30.43"/>
<polygon fill="#63b8ff" stroke="#63b8ff" points="244.82,-29.5 238.74,-20.82 238.08,-31.4 244.82,-29.5"/>
</g>
</g>
</svg>
