<?xml version="1.0" encoding="UTF-8" standalone="no"?>
<!DOCTYPE svg PUBLIC "-//W3C//DTD SVG 1.1//EN"
 "http://www.w3.org/Graphics/SVG/1.1/DTD/svg11.dtd">
<!-- Generated by graphviz version 7.0.3 (0)
 -->
<!-- Title: Urho3D::IndexBuffer Pages: 1 -->
<svg width="224pt" height="137pt"
 viewBox="0.00 0.00 223.50 137.00" xmlns="http://www.w3.org/2000/svg" xmlns:xlink="http://www.w3.org/1999/xlink">
<g id="graph0" class="graph" transform="scale(1 1) rotate(0) translate(4 133)">
<title>Urho3D::IndexBuffer</title>
<!-- Node1 -->
<g id="node1" class="node">
<title>Node1</title>
<g id="a_node1"><a xlink:title="Hardware index buffer.">
<polygon fill="#999999" stroke="#666666" points="162,-19 55,-19 55,0 162,0 162,-19"/>
<text text-anchor="middle" x="108.5" y="-7" font-family="Roboto" font-size="10.00">Urho3D::IndexBuffer</text>
</a>
</g>
</g>
<!-- Node2 -->
<g id="node2" class="node">
<title>Node2</title>
<g id="a_node2"><a xlink:href="class_urho3_d_1_1_object.html" target="_top" xlink:title=" ">
<polygon fill="white" stroke="#666666" points="95,-74 12,-74 12,-55 95,-55 95,-74"/>
<text text-anchor="middle" x="53.5" y="-62" font-family="Roboto" font-size="10.00">Urho3D::Object</text>
</a>
</g>
</g>
<!-- Node2&#45;&gt;Node1 -->
<g id="edge1" class="edge">
<title>Node2&#45;&gt;Node1</title>
<path fill="none" stroke="#63b8ff" d="M70.85,-46.78C80.25,-37.72 91.48,-26.9 99.22,-19.44"/>
<polygon fill="#63b8ff" stroke="#63b8ff" points="68.44,-44.24 63.67,-53.7 73.3,-49.28 68.44,-44.24"/>
</g>
<!-- Node3 -->
<g id="node3" class="node">
<title>Node3</title>
<g id="a_node3"><a xlink:href="class_urho3_d_1_1_ref_counted.html" target="_top" xlink:title="Base class for intrusively reference&#45;counted objects. These are noncopyable and non&#45;assignable.">
<polygon fill="white" stroke="#666666" points="107,-129 0,-129 0,-110 107,-110 107,-129"/>
<text text-anchor="middle" x="53.5" y="-117" font-family="Roboto" font-size="10.00">Urho3D::RefCounted</text>
</a>
</g>
</g>
<!-- Node3&#45;&gt;Node2 -->
<g id="edge2" class="edge">
<title>Node3&#45;&gt;Node2</title>
<path fill="none" stroke="#63b8ff" d="M53.5,-98.35C53.5,-90.1 53.5,-80.97 53.5,-74.44"/>
<polygon fill="#63b8ff" stroke="#63b8ff" points="50,-98.23 53.5,-108.23 57,-98.23 50,-98.23"/>
</g>
<!-- Node4 -->
<g id="node4" class="node">
<title>Node4</title>
<g id="a_node4"><a xlink:href="class_urho3_d_1_1_g_p_u_object.html" target="_top" xlink:title="Base class for GPU resources.">
<polygon fill="white" stroke="#666666" points="215.5,-74 113.5,-74 113.5,-55 215.5,-55 215.5,-74"/>
<text text-anchor="middle" x="164.5" y="-62" font-family="Roboto" font-size="10.00">Urho3D::GPUObject</text>
</a>
</g>
</g>
<!-- Node4&#45;&gt;Node1 -->
<g id="edge3" class="edge">
<title>Node4&#45;&gt;Node1</title>
<path fill="none" stroke="#63b8ff" d="M146.87,-46.81C137.26,-37.72 125.75,-26.82 117.86,-19.36"/>
<polygon fill="#63b8ff" stroke="#63b8ff" points="144.23,-49.14 153.9,-53.47 149.04,-44.05 144.23,-49.14"/>
</g>
</g>
</svg>
