<?xml version="1.0" encoding="UTF-8" standalone="no"?>
<!DOCTYPE svg PUBLIC "-//W3C//DTD SVG 1.1//EN"
 "http://www.w3.org/Graphics/SVG/1.1/DTD/svg11.dtd">
<!-- Generated by graphviz version 7.0.3 (0)
 -->
<!-- Title: Urho3D::Resource::LoadFile Pages: 1 -->
<svg width="981pt" height="318pt"
 viewBox="0.00 0.00 981.00 317.50" xmlns="http://www.w3.org/2000/svg" xmlns:xlink="http://www.w3.org/1999/xlink">
<g id="graph0" class="graph" transform="scale(1 1) rotate(0) translate(4 313.5)">
<title>Urho3D::Resource::LoadFile</title>
<!-- Node1 -->
<g id="node1" class="node">
<title>Node1</title>
<g id="a_node1"><a xlink:title=" ">
<polygon fill="#999999" stroke="#666666" points="138,-111 0,-111 0,-92 138,-92 138,-111"/>
<text text-anchor="middle" x="69" y="-99" font-family="Roboto" font-size="10.00">Urho3D::Resource::LoadFile</text>
</a>
</g>
</g>
<!-- Node2 -->
<g id="node2" class="node">
<title>Node2</title>
<g id="a_node2"><a xlink:href="class_urho3_d_1_1_resource.html#ab0f4146b46be0c02323e3211e8a6aadf" target="_top" xlink:title="Load resource synchronously. Call both BeginLoad() &amp; EndLoad() and return true if both succeeded.">
<polygon fill="white" stroke="#666666" points="297,-168 174,-168 174,-149 297,-149 297,-168"/>
<text text-anchor="middle" x="235.5" y="-156" font-family="Roboto" font-size="10.00">Urho3D::Resource::Load</text>
</a>
</g>
</g>
<!-- Node1&#45;&gt;Node2 -->
<g id="edge1" class="edge">
<title>Node1&#45;&gt;Node2</title>
<path fill="none" stroke="#63b8ff" d="M98.65,-111.43C125.34,-120.68 165.37,-134.55 195.07,-144.84"/>
<polygon fill="#63b8ff" stroke="#63b8ff" points="193.87,-148.13 204.47,-148.09 196.17,-141.51 193.87,-148.13"/>
</g>
<!-- Node11 -->
<g id="node11" class="node">
<title>Node11</title>
<g id="a_node11"><a xlink:href="class_urho3_d_1_1_file.html#ac541c06977cdebc925147603f7793689" target="_top" xlink:title="Open a filesystem file. Return true if successful.">
<polygon fill="white" stroke="#666666" points="284,-93 187,-93 187,-74 284,-74 284,-93"/>
<text text-anchor="middle" x="235.5" y="-81" font-family="Roboto" font-size="10.00">Urho3D::File::Open</text>
</a>
</g>
</g>
<!-- Node1&#45;&gt;Node11 -->
<g id="edge11" class="edge">
<title>Node1&#45;&gt;Node11</title>
<path fill="none" stroke="#63b8ff" d="M138.33,-94.02C150.64,-92.68 163.38,-91.28 175.4,-89.97"/>
<polygon fill="#63b8ff" stroke="#63b8ff" points="175.6,-93.47 185.16,-88.9 174.84,-86.51 175.6,-93.47"/>
</g>
<!-- Node2&#45;&gt;Node2 -->
<g id="edge9" class="edge">
<title>Node2&#45;&gt;Node2</title>
<path fill="none" stroke="#63b8ff" d="M209.43,-168.37C197.54,-176.94 206.23,-186 235.5,-186 251.96,-186 261.91,-183.13 265.36,-179.1"/>
<polygon fill="#63b8ff" stroke="#63b8ff" points="268.7,-178.06 262.07,-169.8 262.1,-180.39 268.7,-178.06"/>
</g>
<!-- Node3 -->
<g id="node3" class="node">
<title>Node3</title>
<g id="a_node3"><a xlink:href="class_urho3_d_1_1_resource.html#a0300ecba56eb1a6b92863053c2a8c038" target="_top" xlink:title="Load resource from stream. May be called from a worker thread. Return true if successful.">
<polygon fill="white" stroke="#666666" points="482,-261 335,-261 335,-242 482,-242 482,-261"/>
<text text-anchor="middle" x="408.5" y="-249" font-family="Roboto" font-size="10.00">Urho3D::Resource::BeginLoad</text>
</a>
</g>
</g>
<!-- Node2&#45;&gt;Node3 -->
<g id="edge2" class="edge">
<title>Node2&#45;&gt;Node3</title>
<path fill="none" stroke="#63b8ff" d="M246.22,-168.41C262.61,-184.54 297.44,-216.37 333,-233.5 336.3,-235.09 339.74,-236.54 343.27,-237.87"/>
<polygon fill="#63b8ff" stroke="#63b8ff" points="342,-241.14 352.6,-241.02 344.25,-234.51 342,-241.14"/>
</g>
<!-- Node4 -->
<g id="node4" class="node">
<title>Node4</title>
<g id="a_node4"><a xlink:href="class_urho3_d_1_1_string.html#a3e075eaafa63ccbe5b6f28a2ad7a50ad" target="_top" xlink:title="Return the C string.">
<polygon fill="white" stroke="#666666" points="647,-103 530,-103 530,-84 647,-84 647,-103"/>
<text text-anchor="middle" x="588.5" y="-91" font-family="Roboto" font-size="10.00">Urho3D::String::CString</text>
</a>
</g>
</g>
<!-- Node2&#45;&gt;Node4 -->
<g id="edge3" class="edge">
<title>Node2&#45;&gt;Node4</title>
<path fill="none" stroke="#63b8ff" d="M258.25,-148.64C277.5,-140.34 306.57,-128.84 333,-122.5 394.71,-107.71 466.71,-100.4 518.34,-96.82"/>
<polygon fill="#63b8ff" stroke="#63b8ff" points="518.44,-100.32 528.19,-96.17 517.98,-93.34 518.44,-100.32"/>
</g>
<!-- Node5 -->
<g id="node5" class="node">
<title>Node5</title>
<g id="a_node5"><a xlink:href="class_urho3_d_1_1_resource.html#a3b2fab64e6c9f8b53cb579b1b6f89268" target="_top" xlink:title="Finish resource loading. Always called from the main thread. Return true if successful.">
<polygon fill="white" stroke="#666666" points="478.5,-187 338.5,-187 338.5,-168 478.5,-168 478.5,-187"/>
<text text-anchor="middle" x="408.5" y="-175" font-family="Roboto" font-size="10.00">Urho3D::Resource::EndLoad</text>
</a>
</g>
</g>
<!-- Node2&#45;&gt;Node5 -->
<g id="edge4" class="edge">
<title>Node2&#45;&gt;Node5</title>
<path fill="none" stroke="#63b8ff" d="M297.27,-165.25C306.89,-166.32 316.98,-167.44 326.97,-168.55"/>
<polygon fill="#63b8ff" stroke="#63b8ff" points="326.35,-172.01 336.68,-169.63 327.13,-165.05 326.35,-172.01"/>
</g>
<!-- Node6 -->
<g id="node6" class="node">
<title>Node6</title>
<g id="a_node6"><a xlink:href="class_urho3_d_1_1_object.html#aa70436408fab29ff5d6ea54fa1e09b9b" target="_top" xlink:title=" ">
<polygon fill="white" stroke="#666666" points="483,-150 334,-150 334,-131 483,-131 483,-150"/>
<text text-anchor="middle" x="408.5" y="-138" font-family="Roboto" font-size="10.00">Urho3D::Object::GetTypeName</text>
</a>
</g>
</g>
<!-- Node2&#45;&gt;Node6 -->
<g id="edge5" class="edge">
<title>Node2&#45;&gt;Node6</title>
<path fill="none" stroke="#63b8ff" d="M297.27,-152.1C305.48,-151.24 314.02,-150.34 322.56,-149.44"/>
<polygon fill="#63b8ff" stroke="#63b8ff" points="322.66,-152.95 332.24,-148.42 321.93,-145.99 322.66,-152.95"/>
</g>
<!-- Node7 -->
<g id="node7" class="node">
<title>Node7</title>
<g id="a_node7"><a xlink:href="class_urho3_d_1_1_thread.html#a591d469de804a63cbcca350b84f96670" target="_top" xlink:title="Return whether is executing in the main thread.">
<polygon fill="white" stroke="#666666" points="484,-224 333,-224 333,-205 484,-205 484,-224"/>
<text text-anchor="middle" x="408.5" y="-212" font-family="Roboto" font-size="10.00">Urho3D::Thread::IsMainThread</text>
</a>
</g>
</g>
<!-- Node2&#45;&gt;Node7 -->
<g id="edge6" class="edge">
<title>Node2&#45;&gt;Node7</title>
<path fill="none" stroke="#63b8ff" d="M259.19,-168.46C278.54,-176.71 307.25,-188.36 333,-196.5 338.79,-198.33 344.88,-200.08 350.98,-201.72"/>
<polygon fill="#63b8ff" stroke="#63b8ff" points="349.89,-205.05 360.45,-204.16 351.65,-198.27 349.89,-205.05"/>
</g>
<!-- Node9 -->
<g id="node9" class="node">
<title>Node9</title>
<g id="a_node9"><a xlink:href="class_urho3_d_1_1_string.html#a0a988cc147946dd80bf73cea2c1ac04c" target="_top" xlink:title=" ">
<polygon fill="white" stroke="#666666" points="465.5,-74 351.5,-74 351.5,-55 465.5,-55 465.5,-74"/>
<text text-anchor="middle" x="408.5" y="-62" font-family="Roboto" font-size="10.00">Urho3D::String::Length</text>
</a>
</g>
</g>
<!-- Node2&#45;&gt;Node9 -->
<g id="edge8" class="edge">
<title>Node2&#45;&gt;Node9</title>
<path fill="none" stroke="#63b8ff" d="M247.61,-148.61C264.81,-133.74 299.41,-105.55 333,-88.5 340.84,-84.52 349.47,-81.02 358,-78.01"/>
<polygon fill="#63b8ff" stroke="#63b8ff" points="358.85,-81.42 367.24,-74.94 356.65,-74.77 358.85,-81.42"/>
</g>
<!-- Node10 -->
<g id="node10" class="node">
<title>Node10</title>
<g id="a_node10"><a xlink:href="class_urho3_d_1_1_resource.html#af525961d5ee1dcfdd8e67c8bba6c03d0" target="_top" xlink:title="Set the asynchronous loading state. Called by ResourceCache. Resources in the middle of asynchronous ...">
<polygon fill="white" stroke="#666666" points="479.5,-309.5 337.5,-309.5 337.5,-279.5 479.5,-279.5 479.5,-309.5"/>
<text text-anchor="start" x="345.5" y="-297.5" font-family="Roboto" font-size="10.00">Urho3D::Resource::SetAsync</text>
<text text-anchor="middle" x="408.5" y="-286.5" font-family="Roboto" font-size="10.00">LoadState</text>
</a>
</g>
</g>
<!-- Node2&#45;&gt;Node10 -->
<g id="edge10" class="edge">
<title>Node2&#45;&gt;Node10</title>
<path fill="none" stroke="#63b8ff" d="M242.39,-168.49C255.73,-190.25 290.43,-242.27 333,-270.5 334.83,-271.71 336.72,-272.86 338.66,-273.96"/>
<polygon fill="#63b8ff" stroke="#63b8ff" points="336.85,-276.97 347.36,-278.33 339.99,-270.72 336.85,-276.97"/>
</g>
<!-- Node8 -->
<g id="node8" class="node">
<title>Node8</title>
<g id="a_node8"><a xlink:href="class_urho3_d_1_1_thread.html#a0f1bc30494bec12d878e356376b542ad" target="_top" xlink:title=" ">
<polygon fill="white" stroke="#666666" points="657,-229.5 520,-229.5 520,-199.5 657,-199.5 657,-229.5"/>
<text text-anchor="start" x="528" y="-217.5" font-family="Roboto" font-size="10.00">Urho3D::Thread::GetCurrent</text>
<text text-anchor="middle" x="588.5" y="-206.5" font-family="Roboto" font-size="10.00">ThreadID</text>
</a>
</g>
</g>
<!-- Node7&#45;&gt;Node8 -->
<g id="edge7" class="edge">
<title>Node7&#45;&gt;Node8</title>
<path fill="none" stroke="#63b8ff" d="M484.47,-214.5C492.32,-214.5 500.33,-214.5 508.22,-214.5"/>
<polygon fill="#63b8ff" stroke="#63b8ff" points="508.18,-218 518.18,-214.5 508.18,-211 508.18,-218"/>
</g>
<!-- Node12 -->
<g id="node12" class="node">
<title>Node12</title>
<g id="a_node12"><a xlink:href="class_urho3_d_1_1_file.html#aeb5170a54cb5a37ff895e9aaeffa78b0" target="_top" xlink:title="Open file internally using either C standard IO functions or SDL RWops for Android asset files....">
<polygon fill="white" stroke="#666666" points="473.5,-37 343.5,-37 343.5,-18 473.5,-18 473.5,-37"/>
<text text-anchor="middle" x="408.5" y="-25" font-family="Roboto" font-size="10.00">Urho3D::File::OpenInternal</text>
</a>
</g>
</g>
<!-- Node11&#45;&gt;Node12 -->
<g id="edge12" class="edge">
<title>Node11&#45;&gt;Node12</title>
<path fill="none" stroke="#63b8ff" d="M259.19,-73.54C278.54,-65.29 307.25,-53.64 333,-45.5 338.79,-43.67 344.88,-41.92 350.98,-40.28"/>
<polygon fill="#63b8ff" stroke="#63b8ff" points="351.65,-43.73 360.45,-37.84 349.89,-36.95 351.65,-43.73"/>
</g>
<!-- Node12&#45;&gt;Node4 -->
<g id="edge16" class="edge">
<title>Node12&#45;&gt;Node4</title>
<path fill="none" stroke="#63b8ff" d="M458.12,-37.4C466.85,-39.69 475.79,-42.4 484,-45.5 500.92,-51.9 503.68,-56.7 520,-64.5 530.51,-69.52 542.1,-74.65 552.68,-79.17"/>
<polygon fill="#63b8ff" stroke="#63b8ff" points="551.27,-82.37 561.84,-83.04 553.99,-75.92 551.27,-82.37"/>
</g>
<!-- Node13 -->
<g id="node13" class="node">
<title>Node13</title>
<g id="a_node13"><a xlink:href="class_urho3_d_1_1_file.html#adcf2a6360ca11626bc39f35b2da97a7c" target="_top" xlink:title="Close the file.">
<polygon fill="white" stroke="#666666" points="638.5,-56 538.5,-56 538.5,-37 638.5,-37 638.5,-56"/>
<text text-anchor="middle" x="588.5" y="-44" font-family="Roboto" font-size="10.00">Urho3D::File::Close</text>
</a>
</g>
</g>
<!-- Node12&#45;&gt;Node13 -->
<g id="edge13" class="edge">
<title>Node12&#45;&gt;Node13</title>
<path fill="none" stroke="#63b8ff" d="M473.76,-34.36C491.16,-36.22 509.93,-38.22 527.11,-40.05"/>
<polygon fill="#63b8ff" stroke="#63b8ff" points="526.32,-43.49 536.63,-41.07 527.06,-36.53 526.32,-43.49"/>
</g>
<!-- Node16 -->
<g id="node16" class="node">
<title>Node16</title>
<g id="a_node16"><a xlink:href="class_urho3_d_1_1_string.html#a8413f000551027cd127996e3c5b00185" target="_top" xlink:title=" ">
<polygon fill="white" stroke="#666666" points="645,-19 532,-19 532,0 645,0 645,-19"/>
<text text-anchor="middle" x="588.5" y="-7" font-family="Roboto" font-size="10.00">Urho3D::String::Empty</text>
</a>
</g>
</g>
<!-- Node12&#45;&gt;Node16 -->
<g id="edge17" class="edge">
<title>Node12&#45;&gt;Node16</title>
<path fill="none" stroke="#63b8ff" d="M473.76,-21C488.84,-19.48 504.95,-17.85 520.15,-16.31"/>
<polygon fill="#63b8ff" stroke="#63b8ff" points="520.47,-19.8 530.07,-15.31 519.77,-12.83 520.47,-19.8"/>
</g>
<!-- Node14 -->
<g id="node14" class="node">
<title>Node14</title>
<g id="a_node14"><a xlink:href="class_urho3_d_1_1_shared_array_ptr.html#a5f621b62e29d89c1d29f1c2089932bd5" target="_top" xlink:title="Reset to null and release the array reference.">
<polygon fill="white" stroke="#666666" points="815,-61.5 693,-61.5 693,-31.5 815,-31.5 815,-61.5"/>
<text text-anchor="start" x="701" y="-49.5" font-family="Roboto" font-size="10.00">Urho3D::SharedArrayPtr</text>
<text text-anchor="middle" x="754" y="-38.5" font-family="Roboto" font-size="10.00">::Reset</text>
</a>
</g>
</g>
<!-- Node13&#45;&gt;Node14 -->
<g id="edge14" class="edge">
<title>Node13&#45;&gt;Node14</title>
<path fill="none" stroke="#63b8ff" d="M639,-46.5C652.35,-46.5 667.06,-46.5 681.36,-46.5"/>
<polygon fill="#63b8ff" stroke="#63b8ff" points="681.19,-50 691.19,-46.5 681.19,-43 681.19,-50"/>
</g>
<!-- Node15 -->
<g id="node15" class="node">
<title>Node15</title>
<g id="a_node15"><a xlink:href="class_urho3_d_1_1_shared_array_ptr.html#a4fe651dd5116bb958bd304858c5f3a35" target="_top" xlink:title="Release the array reference and delete it and the RefCount structure if necessary.">
<polygon fill="white" stroke="#666666" points="973,-61.5 851,-61.5 851,-31.5 973,-31.5 973,-61.5"/>
<text text-anchor="start" x="859" y="-49.5" font-family="Roboto" font-size="10.00">Urho3D::SharedArrayPtr</text>
<text text-anchor="middle" x="912" y="-38.5" font-family="Roboto" font-size="10.00">::ReleaseRef</text>
</a>
</g>
</g>
<!-- Node14&#45;&gt;Node15 -->
<g id="edge15" class="edge">
<title>Node14&#45;&gt;Node15</title>
<path fill="none" stroke="#63b8ff" d="M815.31,-46.5C823.18,-46.5 831.3,-46.5 839.33,-46.5"/>
<polygon fill="#63b8ff" stroke="#63b8ff" points="839.08,-50 849.08,-46.5 839.08,-43 839.08,-50"/>
</g>
</g>
</svg>
