<?xml version="1.0" encoding="UTF-8" standalone="no"?>
<!DOCTYPE svg PUBLIC "-//W3C//DTD SVG 1.1//EN"
 "http://www.w3.org/Graphics/SVG/1.1/DTD/svg11.dtd">
<!-- Generated by graphviz version 7.0.3 (0)
 -->
<!-- Title: Urho3D::Light Pages: 1 -->
<svg width="1483pt" height="799pt"
 viewBox="0.00 0.00 1483.00 799.13" xmlns="http://www.w3.org/2000/svg" xmlns:xlink="http://www.w3.org/1999/xlink">
<g id="graph0" class="graph" transform="scale(1 1) rotate(0) translate(4 795.13)">
<title>Urho3D::Light</title>
<!-- Node1 -->
<g id="node1" class="node">
<title>Node1</title>
<g id="a_node1"><a xlink:title="Light component.">
<polygon fill="#999999" stroke="#666666" points="1036.5,-298.63 960.5,-298.63 960.5,-279.63 1036.5,-279.63 1036.5,-298.63"/>
<text text-anchor="middle" x="998.5" y="-286.63" font-family="Roboto" font-size="10.00">Urho3D::Light</text>
</a>
</g>
</g>
<!-- Node2 -->
<g id="node2" class="node">
<title>Node2</title>
<g id="a_node2"><a xlink:href="class_urho3_d_1_1_drawable.html" target="_top" xlink:title="Base class for visible components.">
<polygon fill="white" stroke="#666666" points="1316.5,-457.63 1221.5,-457.63 1221.5,-438.63 1316.5,-438.63 1316.5,-457.63"/>
<text text-anchor="middle" x="1269" y="-445.63" font-family="Roboto" font-size="10.00">Urho3D::Drawable</text>
</a>
</g>
</g>
<!-- Node1&#45;&gt;Node2 -->
<g id="edge26" class="edge">
<title>Node1&#45;&gt;Node2</title>
<path fill="none" stroke="#9a32cd" stroke-dasharray="5,2" d="M1046.28,-301.97C1057,-304.78 1068.37,-307.65 1079,-310.13 1126.7,-321.28 1146.05,-305.24 1187,-332.13 1228.47,-359.37 1254.93,-415.85 1264.24,-438.46"/>
<polygon fill="#9a32cd" stroke="#9a32cd" points="1047.43,-298.65 1036.87,-299.47 1045.64,-305.42 1047.43,-298.65"/>
<text text-anchor="middle" x="1133" y="-335.13" font-family="Roboto" font-size="10.00"> firstLight_</text>
</g>
<!-- Node156 -->
<g id="node21" class="node">
<title>Node156</title>
<g id="a_node21"><a xlink:href="struct_urho3_d_1_1_light_batch_queue.html" target="_top" xlink:title="Queue for light related draw calls.">
<polygon fill="white" stroke="#666666" points="1333,-146.63 1205,-146.63 1205,-127.63 1333,-127.63 1333,-146.63"/>
<text text-anchor="middle" x="1269" y="-134.63" font-family="Roboto" font-size="10.00">Urho3D::LightBatchQueue</text>
</a>
</g>
</g>
<!-- Node1&#45;&gt;Node156 -->
<g id="edge37" class="edge">
<title>Node1&#45;&gt;Node156</title>
<path fill="none" stroke="#9a32cd" stroke-dasharray="5,2" d="M1012.39,-270.11C1026.46,-250.89 1050.78,-221.86 1079,-206.13 1121.87,-182.24 1141.12,-200.57 1187,-183.13 1211.79,-173.71 1238.06,-157.48 1253.74,-147.03"/>
<polygon fill="#9a32cd" stroke="#9a32cd" points="1009.62,-267.96 1006.71,-278.15 1015.34,-272 1009.62,-267.96"/>
<text text-anchor="middle" x="1133" y="-209.13" font-family="Roboto" font-size="10.00"> light_</text>
</g>
<!-- Node2&#45;&gt;Node1 -->
<g id="edge1" class="edge">
<title>Node2&#45;&gt;Node1</title>
<path fill="none" stroke="#63b8ff" d="M1265.19,-427.6C1258.87,-390.32 1239.69,-312.31 1187,-279.13 1136.79,-247.52 1063.21,-265.91 1024.86,-279.18"/>
<polygon fill="#63b8ff" stroke="#63b8ff" points="1261.67,-427.71 1266.65,-437.06 1268.59,-426.64 1261.67,-427.71"/>
</g>
<!-- Node103 -->
<g id="node10" class="node">
<title>Node103</title>
<g id="a_node10"><a xlink:href="class_urho3_d_1_1_zone.html" target="_top" xlink:title="Component that describes global rendering properties.">
<polygon fill="#fff0f0" stroke="red" points="1475,-611.63 1398,-611.63 1398,-592.63 1475,-592.63 1475,-611.63"/>
<text text-anchor="middle" x="1436.5" y="-599.63" font-family="Roboto" font-size="10.00">Urho3D::Zone</text>
</a>
</g>
</g>
<!-- Node2&#45;&gt;Node103 -->
<g id="edge15" class="edge">
<title>Node2&#45;&gt;Node103</title>
<path fill="none" stroke="#63b8ff" d="M1299.59,-463.59C1323.1,-476.81 1355.93,-497.42 1380,-521.13 1402.59,-543.39 1421.65,-576.06 1430.39,-592.27"/>
<polygon fill="#63b8ff" stroke="#63b8ff" points="1301.28,-460.53 1290.83,-458.78 1297.91,-466.66 1301.28,-460.53"/>
</g>
<!-- Node3 -->
<g id="node3" class="node">
<title>Node3</title>
<g id="a_node3"><a xlink:href="class_urho3_d_1_1_component.html" target="_top" xlink:title=" ">
<polygon fill="white" stroke="#666666" points="1052,-660.63 945,-660.63 945,-641.63 1052,-641.63 1052,-660.63"/>
<text text-anchor="middle" x="998.5" y="-648.63" font-family="Roboto" font-size="10.00">Urho3D::Component</text>
</a>
</g>
</g>
<!-- Node3&#45;&gt;Node2 -->
<g id="edge2" class="edge">
<title>Node3&#45;&gt;Node2</title>
<path fill="none" stroke="#63b8ff" d="M1019.95,-634.11C1035.6,-621.49 1057.99,-604.27 1079,-591.13 1124.67,-562.58 1144.08,-568.68 1187,-536.13 1218.43,-512.29 1247.83,-475.36 1260.89,-457.91"/>
<polygon fill="#63b8ff" stroke="#63b8ff" points="1017.86,-631.31 1012.32,-640.34 1022.28,-636.73 1017.86,-631.31"/>
</g>
<!-- Node4 -->
<g id="node4" class="node">
<title>Node4</title>
<g id="a_node4"><a xlink:href="class_urho3_d_1_1_animatable.html" target="_top" xlink:title="Base class for animatable object, an animatable object can be set animation on it&#39;s attributes,...">
<polygon fill="#fff0f0" stroke="red" points="541,-693.63 437,-693.63 437,-674.63 541,-674.63 541,-693.63"/>
<text text-anchor="middle" x="489" y="-681.63" font-family="Roboto" font-size="10.00">Urho3D::Animatable</text>
</a>
</g>
</g>
<!-- Node4&#45;&gt;Node3 -->
<g id="edge3" class="edge">
<title>Node4&#45;&gt;Node3</title>
<path fill="none" stroke="#63b8ff" d="M552.71,-680.42C636.13,-675.42 788.18,-666.13 918,-657.13 926.7,-656.53 935.93,-655.86 944.91,-655.19"/>
<polygon fill="#63b8ff" stroke="#63b8ff" points="552.69,-676.91 542.91,-681 553.1,-683.9 552.69,-676.91"/>
</g>
<!-- Node43 -->
<g id="node5" class="node">
<title>Node43</title>
<g id="a_node5"><a xlink:href="class_urho3_d_1_1_node.html" target="_top" xlink:title="Scene node that may contain components and child nodes.">
<polygon fill="#fff0f0" stroke="red" points="768.5,-595.63 688.5,-595.63 688.5,-576.63 768.5,-576.63 768.5,-595.63"/>
<text text-anchor="middle" x="728.5" y="-583.63" font-family="Roboto" font-size="10.00">Urho3D::Node</text>
</a>
</g>
</g>
<!-- Node4&#45;&gt;Node43 -->
<g id="edge5" class="edge">
<title>Node4&#45;&gt;Node43</title>
<path fill="none" stroke="#63b8ff" d="M524.43,-669.93C573.15,-649.82 660.99,-613.58 703.36,-596.09"/>
<polygon fill="#63b8ff" stroke="#63b8ff" points="523.39,-666.57 515.48,-673.62 526.06,-673.04 523.39,-666.57"/>
</g>
<!-- Node43&#45;&gt;Node3 -->
<g id="edge4" class="edge">
<title>Node43&#45;&gt;Node3</title>
<path fill="none" stroke="#9a32cd" stroke-dasharray="5,2" d="M758.85,-600.81C776,-608.82 798.29,-618.27 819,-624.13 860.47,-635.87 908.88,-642.79 944.82,-646.68"/>
<polygon fill="#9a32cd" stroke="#9a32cd" points="760.79,-597.86 750.26,-596.7 757.77,-604.17 760.79,-597.86"/>
<text text-anchor="middle" x="868.5" y="-645.13" font-family="Roboto" font-size="10.00"> node_</text>
</g>
<!-- Node43&#45;&gt;Node43 -->
<g id="edge8" class="edge">
<title>Node43&#45;&gt;Node43</title>
<path fill="none" stroke="#9a32cd" stroke-dasharray="5,2" d="M705.43,-607.06C708.31,-610.92 716,-613.63 728.5,-613.63 751.35,-613.63 758.14,-604.57 748.85,-596"/>
<polygon fill="#9a32cd" stroke="#9a32cd" points="708.79,-608.02 707.79,-597.47 702,-606.34 708.79,-608.02"/>
<text text-anchor="middle" x="728.5" y="-616.63" font-family="Roboto" font-size="10.00"> parent_</text>
</g>
<!-- Node44 -->
<g id="node6" class="node">
<title>Node44</title>
<g id="a_node6"><a xlink:href="class_urho3_d_1_1_matrix3x4.html" target="_top" xlink:title="3x4 matrix for scene node transform calculations.">
<polygon fill="white" stroke="#666666" points="538.5,-595.63 439.5,-595.63 439.5,-576.63 538.5,-576.63 538.5,-595.63"/>
<text text-anchor="middle" x="489" y="-583.63" font-family="Roboto" font-size="10.00">Urho3D::Matrix3x4</text>
</a>
</g>
</g>
<!-- Node44&#45;&gt;Node1 -->
<g id="edge34" class="edge">
<title>Node44&#45;&gt;Node1</title>
<path fill="none" stroke="#9a32cd" stroke-dasharray="5,2" d="M519.73,-571.34C552.81,-554.99 607.94,-528.06 656,-506.13 684.84,-492.97 897.79,-417.56 918,-393.13 941.51,-364.72 911.8,-339.96 936,-312.13 942.28,-304.91 951.06,-299.95 960.03,-296.54"/>
<polygon fill="#9a32cd" stroke="#9a32cd" points="518.57,-568.01 511.16,-575.58 521.67,-574.28 518.57,-568.01"/>
<text text-anchor="middle" x="728.5" y="-509.13" font-family="Roboto" font-size="10.00"> volumeTransform_</text>
</g>
<!-- Node44&#45;&gt;Node43 -->
<g id="edge6" class="edge">
<title>Node44&#45;&gt;Node43</title>
<path fill="none" stroke="#9a32cd" stroke-dasharray="5,2" d="M550.16,-586.13C593.41,-586.13 650.5,-586.13 688.07,-586.13"/>
<polygon fill="#9a32cd" stroke="#9a32cd" points="550.44,-582.63 540.44,-586.13 550.44,-589.63 550.44,-582.63"/>
<text text-anchor="middle" x="598.5" y="-589.13" font-family="Roboto" font-size="10.00"> worldTransform_</text>
</g>
<!-- Node44&#45;&gt;Node44 -->
<g id="edge7" class="edge">
<title>Node44&#45;&gt;Node44</title>
<path fill="none" stroke="#9a32cd" stroke-dasharray="5,2" d="M471.16,-607.06C473.39,-610.92 479.34,-613.63 489,-613.63 506.67,-613.63 511.91,-604.57 504.73,-596"/>
<polygon fill="#9a32cd" stroke="#9a32cd" points="474.55,-607.97 472.98,-597.49 467.68,-606.66 474.55,-607.97"/>
<text text-anchor="middle" x="489" y="-627.63" font-family="Roboto" font-size="10.00"> IDENTITY</text>
<text text-anchor="middle" x="489" y="-616.63" font-family="Roboto" font-size="10.00">ZERO</text>
</g>
<!-- Node44&#45;&gt;Node103 -->
<g id="edge16" class="edge">
<title>Node44&#45;&gt;Node103</title>
<path fill="none" stroke="#9a32cd" stroke-dasharray="5,2" d="M530.36,-599.54C563.73,-610.2 612.51,-624.83 656,-634.13 832.71,-671.95 880.84,-684.17 1061,-670.13 1204.08,-658.99 1240.42,-653.48 1380,-620.13 1389.16,-617.94 1398.99,-614.97 1407.8,-612.07"/>
<polygon fill="#9a32cd" stroke="#9a32cd" points="531.7,-596.29 521.11,-596.55 529.55,-602.96 531.7,-596.29"/>
<text text-anchor="middle" x="998.5" y="-678.13" font-family="Roboto" font-size="10.00"> inverseWorld_</text>
</g>
<!-- Node98 -->
<g id="node7" class="node">
<title>Node98</title>
<g id="a_node7"><a xlink:href="class_urho3_d_1_1_bounding_box.html" target="_top" xlink:title=" ">
<polygon fill="#fff0f0" stroke="red" points="785,-544.63 672,-544.63 672,-525.63 785,-525.63 785,-544.63"/>
<text text-anchor="middle" x="728.5" y="-532.63" font-family="Roboto" font-size="10.00">Urho3D::BoundingBox</text>
</a>
</g>
</g>
<!-- Node98&#45;&gt;Node2 -->
<g id="edge9" class="edge">
<title>Node98&#45;&gt;Node2</title>
<path fill="none" stroke="#9a32cd" stroke-dasharray="5,2" d="M755.93,-519.54C794.12,-498.01 867.68,-460.23 936,-446.13 1035.92,-425.52 1156.38,-434.36 1221.21,-441.79"/>
<polygon fill="#9a32cd" stroke="#9a32cd" points="754.38,-516.4 747.44,-524.4 757.86,-522.47 754.38,-516.4"/>
<text text-anchor="middle" x="998.5" y="-460.13" font-family="Roboto" font-size="10.00"> boundingBox_</text>
<text text-anchor="middle" x="998.5" y="-449.13" font-family="Roboto" font-size="10.00">worldBoundingBox_</text>
</g>
<!-- Node100 -->
<g id="node9" class="node">
<title>Node100</title>
<g id="a_node9"><a xlink:href="class_urho3_d_1_1_octant.html" target="_top" xlink:title=" ">
<polygon fill="#fff0f0" stroke="red" points="1040,-544.63 957,-544.63 957,-525.63 1040,-525.63 1040,-544.63"/>
<text text-anchor="middle" x="998.5" y="-532.63" font-family="Roboto" font-size="10.00">Urho3D::Octant</text>
</a>
</g>
</g>
<!-- Node98&#45;&gt;Node100 -->
<g id="edge12" class="edge">
<title>Node98&#45;&gt;Node100</title>
<path fill="none" stroke="#9a32cd" stroke-dasharray="5,2" d="M796.78,-535.13C847.04,-535.13 914.12,-535.13 956.57,-535.13"/>
<polygon fill="#9a32cd" stroke="#9a32cd" points="796.87,-531.63 786.87,-535.13 796.87,-538.63 796.87,-531.63"/>
<text text-anchor="middle" x="868.5" y="-549.13" font-family="Roboto" font-size="10.00"> cullingBox_</text>
<text text-anchor="middle" x="868.5" y="-538.13" font-family="Roboto" font-size="10.00">worldBoundingBox_</text>
</g>
<!-- Node98&#45;&gt;Node103 -->
<g id="edge17" class="edge">
<title>Node98&#45;&gt;Node103</title>
<path fill="none" stroke="#9a32cd" stroke-dasharray="5,2" d="M766.5,-548.94C807.33,-563.41 875.3,-585.24 936,-594.13 1106.77,-619.15 1313.88,-610.11 1397.64,-604.84"/>
<polygon fill="#9a32cd" stroke="#9a32cd" points="767.75,-545.67 757.16,-545.58 765.39,-552.26 767.75,-545.67"/>
<text text-anchor="middle" x="1133" y="-613.13" font-family="Roboto" font-size="10.00"> lastWorldBoundingBox_</text>
</g>
<!-- Node99 -->
<g id="node8" class="node">
<title>Node99</title>
<g id="a_node8"><a xlink:href="class_urho3_d_1_1_vector.html" target="_top" xlink:title=" ">
<polygon fill="white" stroke="orangered" points="1061,-507.13 936,-507.13 936,-477.13 1061,-477.13 1061,-507.13"/>
<text text-anchor="start" x="944" y="-495.13" font-family="Roboto" font-size="10.00">Urho3D::Vector&lt; Urho3D</text>
<text text-anchor="middle" x="998.5" y="-484.13" font-family="Roboto" font-size="10.00">::SourceBatch &gt;</text>
</a>
</g>
</g>
<!-- Node99&#45;&gt;Node2 -->
<g id="edge10" class="edge">
<title>Node99&#45;&gt;Node2</title>
<path fill="none" stroke="#9a32cd" stroke-dasharray="5,2" d="M1072.55,-480.16C1119.84,-472.41 1180.03,-462.55 1221.04,-455.83"/>
<polygon fill="#9a32cd" stroke="#9a32cd" points="1072.23,-476.67 1062.93,-481.74 1073.36,-483.57 1072.23,-476.67"/>
<text text-anchor="middle" x="1133" y="-480.13" font-family="Roboto" font-size="10.00"> batches_</text>
</g>
<!-- Node100&#45;&gt;Node2 -->
<g id="edge11" class="edge">
<title>Node100&#45;&gt;Node2</title>
<path fill="none" stroke="#9a32cd" stroke-dasharray="5,2" d="M1051.19,-527.19C1089.48,-520.37 1142.5,-508.96 1187,-492.13 1211.1,-483.02 1236.92,-467.97 1252.77,-458.05"/>
<polygon fill="#9a32cd" stroke="#9a32cd" points="1051.05,-523.66 1041.79,-528.81 1052.24,-530.56 1051.05,-523.66"/>
<text text-anchor="middle" x="1133" y="-524.13" font-family="Roboto" font-size="10.00"> octant_</text>
</g>
<!-- Node100&#45;&gt;Node100 -->
<g id="edge13" class="edge">
<title>Node100&#45;&gt;Node100</title>
<path fill="none" stroke="#9a32cd" stroke-dasharray="5,2" d="M975.43,-556.06C978.31,-559.92 986,-562.63 998.5,-562.63 1021.35,-562.63 1028.14,-553.57 1018.85,-545"/>
<polygon fill="#9a32cd" stroke="#9a32cd" points="978.79,-557.02 977.79,-546.47 972,-555.34 978.79,-557.02"/>
<text text-anchor="middle" x="998.5" y="-576.63" font-family="Roboto" font-size="10.00"> children_</text>
<text text-anchor="middle" x="998.5" y="-565.63" font-family="Roboto" font-size="10.00">parent_</text>
</g>
<!-- Node103&#45;&gt;Node2 -->
<g id="edge14" class="edge">
<title>Node103&#45;&gt;Node2</title>
<path fill="none" stroke="#9a32cd" stroke-dasharray="5,2" d="M1416.78,-584.71C1381.8,-552.17 1307.64,-483.15 1280.35,-457.77"/>
<polygon fill="#9a32cd" stroke="#9a32cd" points="1414.34,-587.22 1424.04,-591.47 1419.11,-582.1 1414.34,-587.22"/>
<text text-anchor="middle" x="1365.5" y="-550.13" font-family="Roboto" font-size="10.00"> zone_</text>
</g>
<!-- Node104 -->
<g id="node11" class="node">
<title>Node104</title>
<g id="a_node11"><a xlink:href="class_urho3_d_1_1_color.html" target="_top" xlink:title="RGBA color.">
<polygon fill="white" stroke="#666666" points="314,-309.63 234,-309.63 234,-290.63 314,-290.63 314,-309.63"/>
<text text-anchor="middle" x="274" y="-297.63" font-family="Roboto" font-size="10.00">Urho3D::Color</text>
</a>
</g>
</g>
<!-- Node104&#45;&gt;Node1 -->
<g id="edge28" class="edge">
<title>Node104&#45;&gt;Node1</title>
<path fill="none" stroke="#9a32cd" stroke-dasharray="5,2" d="M325.75,-299.36C463.18,-297.27 840.26,-291.53 960.29,-289.7"/>
<polygon fill="#9a32cd" stroke="#9a32cd" points="325.82,-295.86 315.87,-299.51 325.92,-302.86 325.82,-295.86"/>
<text text-anchor="middle" x="598.5" y="-299.13" font-family="Roboto" font-size="10.00"> color_</text>
</g>
<!-- Node104&#45;&gt;Node103 -->
<g id="edge18" class="edge">
<title>Node104&#45;&gt;Node103</title>
<path fill="none" stroke="#9a32cd" stroke-dasharray="5,2" d="M275.38,-321.34C278.17,-408.7 301.1,-736.13 488,-736.13 488,-736.13 488,-736.13 1270,-736.13 1349.12,-736.13 1411.61,-642.49 1429.99,-611.77"/>
<polygon fill="#9a32cd" stroke="#9a32cd" points="278.89,-321.48 275.13,-311.57 271.89,-321.66 278.89,-321.48"/>
<text text-anchor="middle" x="868.5" y="-783.13" font-family="Roboto" font-size="10.00"> ambientColor_</text>
<text text-anchor="middle" x="868.5" y="-772.13" font-family="Roboto" font-size="10.00">ambientEndColor_</text>
<text text-anchor="start" x="827.5" y="-761.13" font-family="Roboto" font-size="10.00">ambientStartColor</text>
<text text-anchor="middle" x="868.5" y="-750.13" font-family="Roboto" font-size="10.00">_</text>
<text text-anchor="middle" x="868.5" y="-739.13" font-family="Roboto" font-size="10.00">fogColor_</text>
</g>
<!-- Node104&#45;&gt;Node104 -->
<g id="edge20" class="edge">
<title>Node104&#45;&gt;Node104</title>
<path fill="none" stroke="#9a32cd" stroke-dasharray="5,2" d="M256.61,-321.06C258.78,-324.92 264.58,-327.63 274,-327.63 291.23,-327.63 296.34,-318.57 289.34,-310"/>
<polygon fill="#9a32cd" stroke="#9a32cd" points="260,-321.96 258.38,-311.49 253.12,-320.68 260,-321.96"/>
<text text-anchor="middle" x="274" y="-451.63" font-family="Roboto" font-size="10.00"> BLACK</text>
<text text-anchor="middle" x="274" y="-440.63" font-family="Roboto" font-size="10.00">BLUE</text>
<text text-anchor="middle" x="274" y="-429.63" font-family="Roboto" font-size="10.00">CYAN</text>
<text text-anchor="middle" x="274" y="-418.63" font-family="Roboto" font-size="10.00">GRAY</text>
<text text-anchor="middle" x="274" y="-407.63" font-family="Roboto" font-size="10.00">GREEN</text>
<text text-anchor="middle" x="274" y="-396.63" font-family="Roboto" font-size="10.00">MAGENTA</text>
<text text-anchor="middle" x="274" y="-385.63" font-family="Roboto" font-size="10.00">RED</text>
<text text-anchor="start" x="239" y="-374.63" font-family="Roboto" font-size="10.00">TRANSPARENT</text>
<text text-anchor="middle" x="274" y="-363.63" font-family="Roboto" font-size="10.00">_BLACK</text>
<text text-anchor="middle" x="274" y="-352.63" font-family="Roboto" font-size="10.00">WHITE</text>
<text text-anchor="middle" x="274" y="-341.63" font-family="Roboto" font-size="10.00">YELLOW</text>
<text text-anchor="middle" x="274" y="-330.63" font-family="Roboto" font-size="10.00">...</text>
</g>
<!-- Node107 -->
<g id="node14" class="node">
<title>Node107</title>
<g id="a_node14"><a xlink:href="class_urho3_d_1_1_texture.html" target="_top" xlink:title="Base class for texture resources.">
<polygon fill="#fff0f0" stroke="red" points="532.5,-194.63 445.5,-194.63 445.5,-175.63 532.5,-175.63 532.5,-194.63"/>
<text text-anchor="middle" x="489" y="-182.63" font-family="Roboto" font-size="10.00">Urho3D::Texture</text>
</a>
</g>
</g>
<!-- Node104&#45;&gt;Node107 -->
<g id="edge23" class="edge">
<title>Node104&#45;&gt;Node107</title>
<path fill="none" stroke="#9a32cd" stroke-dasharray="5,2" d="M298.65,-283.91C329.48,-263.24 385.56,-227.31 437,-203.13 443.2,-200.22 450.02,-197.5 456.59,-195.11"/>
<polygon fill="#9a32cd" stroke="#9a32cd" points="296.78,-280.94 290.46,-289.44 300.7,-286.74 296.78,-280.94"/>
<text text-anchor="middle" x="388.5" y="-248.13" font-family="Roboto" font-size="10.00"> borderColor_</text>
</g>
<!-- Node105 -->
<g id="node12" class="node">
<title>Node105</title>
<g id="a_node12"><a xlink:href="struct_urho3_d_1_1_color_1_1_channel_mask.html" target="_top" xlink:title="Mask describing color channels.">
<polygon fill="white" stroke="#666666" points="144,-309.63 0,-309.63 0,-290.63 144,-290.63 144,-309.63"/>
<text text-anchor="middle" x="72" y="-297.63" font-family="Roboto" font-size="10.00">Urho3D::Color::ChannelMask</text>
</a>
</g>
</g>
<!-- Node105&#45;&gt;Node104 -->
<g id="edge19" class="edge">
<title>Node105&#45;&gt;Node104</title>
<path fill="none" stroke="#9a32cd" stroke-dasharray="5,2" d="M155.78,-300.13C182.75,-300.13 211.44,-300.13 233.68,-300.13"/>
<polygon fill="#9a32cd" stroke="#9a32cd" points="155.87,-296.63 145.87,-300.13 155.87,-303.63 155.87,-296.63"/>
<text text-anchor="middle" x="176" y="-314.13" font-family="Roboto" font-size="10.00"> ABGR</text>
<text text-anchor="middle" x="176" y="-303.13" font-family="Roboto" font-size="10.00">ARGB</text>
</g>
<!-- Node106 -->
<g id="node13" class="node">
<title>Node106</title>
<g id="a_node13"><a xlink:href="class_urho3_d_1_1_shared_ptr.html" target="_top" xlink:title=" ">
<polygon fill="white" stroke="#666666" points="780.5,-221.13 676.5,-221.13 676.5,-191.13 780.5,-191.13 780.5,-221.13"/>
<text text-anchor="start" x="684.5" y="-209.13" font-family="Roboto" font-size="10.00">Urho3D::SharedPtr&lt;</text>
<text text-anchor="middle" x="728.5" y="-198.13" font-family="Roboto" font-size="10.00"> Urho3D::Texture &gt;</text>
</a>
</g>
</g>
<!-- Node106&#45;&gt;Node1 -->
<g id="edge35" class="edge">
<title>Node106&#45;&gt;Node1</title>
<path fill="none" stroke="#9a32cd" stroke-dasharray="5,2" d="M792.06,-212.58C829.47,-217.77 877.47,-226.82 918,-242.13 942.9,-251.54 968.93,-268.51 984.16,-279.28"/>
<polygon fill="#9a32cd" stroke="#9a32cd" points="792.68,-209.13 782.3,-211.29 791.76,-216.07 792.68,-209.13"/>
<text text-anchor="middle" x="868.5" y="-256.13" font-family="Roboto" font-size="10.00"> rampTexture_</text>
<text text-anchor="middle" x="868.5" y="-245.13" font-family="Roboto" font-size="10.00">shapeTexture_</text>
</g>
<!-- Node106&#45;&gt;Node103 -->
<g id="edge21" class="edge">
<title>Node106&#45;&gt;Node103</title>
<path fill="none" stroke="#9a32cd" stroke-dasharray="5,2" d="M792.15,-205.53C901.28,-205.5 1120.93,-210.2 1187,-247.13 1335.74,-330.28 1415.81,-544.19 1432.29,-592.39"/>
<polygon fill="#9a32cd" stroke="#9a32cd" points="792.18,-202.03 782.19,-205.55 792.19,-209.03 792.18,-202.03"/>
<text text-anchor="middle" x="1133" y="-250.13" font-family="Roboto" font-size="10.00"> zoneTexture_</text>
</g>
<!-- Node106&#45;&gt;Node107 -->
<g id="edge24" class="edge">
<title>Node106&#45;&gt;Node107</title>
<path fill="none" stroke="#9a32cd" stroke-dasharray="5,2" d="M664.77,-204.55C633,-203.31 593.87,-201.08 559,-197.13 550.54,-196.17 541.55,-194.84 532.95,-193.41"/>
<polygon fill="#9a32cd" stroke="#9a32cd" points="664.48,-208.05 674.61,-204.92 664.74,-201.05 664.48,-208.05"/>
<text text-anchor="middle" x="598.5" y="-207.13" font-family="Roboto" font-size="10.00"> backupTexture_</text>
</g>
<!-- Node107&#45;&gt;Node106 -->
<g id="edge22" class="edge">
<title>Node107&#45;&gt;Node106</title>
<path fill="none" stroke="#9a32cd" stroke-dasharray="5,2" d="M544.09,-182.74C572.19,-182.2 607.03,-182.61 638,-186.13 650.5,-187.55 663.8,-190 676.23,-192.71"/>
<polygon fill="#9a32cd" stroke="#9a32cd" points="544.31,-179.24 534.4,-182.98 544.49,-186.24 544.31,-179.24"/>
<text text-anchor="middle" x="598.5" y="-189.13" font-family="Roboto" font-size="10.00"> ptr_</text>
</g>
<!-- Node157 -->
<g id="node22" class="node">
<title>Node157</title>
<g id="a_node22"><a xlink:href="class_urho3_d_1_1_texture2_d.html" target="_top" xlink:title="2D texture resource.">
<polygon fill="#fff0f0" stroke="red" points="918,-125.63 819,-125.63 819,-106.63 918,-106.63 918,-125.63"/>
<text text-anchor="middle" x="868.5" y="-113.63" font-family="Roboto" font-size="10.00">Urho3D::Texture2D</text>
</a>
</g>
</g>
<!-- Node107&#45;&gt;Node157 -->
<g id="edge39" class="edge">
<title>Node107&#45;&gt;Node157</title>
<path fill="none" stroke="#63b8ff" d="M544.23,-175.22C617.77,-161.78 748.02,-137.97 818.65,-125.06"/>
<polygon fill="#63b8ff" stroke="#63b8ff" points="543.63,-171.77 534.43,-177.01 544.89,-178.66 543.63,-171.77"/>
</g>
<!-- Node151 -->
<g id="node15" class="node">
<title>Node151</title>
<g id="a_node15"><a xlink:href="class_urho3_d_1_1_p_o_d_vector.html" target="_top" xlink:title=" ">
<polygon fill="white" stroke="orangered" points="1053,-401.13 944,-401.13 944,-371.13 1053,-371.13 1053,-401.13"/>
<text text-anchor="start" x="952" y="-389.13" font-family="Roboto" font-size="10.00">Urho3D::PODVector&lt;</text>
<text text-anchor="middle" x="998.5" y="-378.13" font-family="Roboto" font-size="10.00"> Urho3D::Camera * &gt;</text>
</a>
</g>
</g>
<!-- Node151&#45;&gt;Node2 -->
<g id="edge25" class="edge">
<title>Node151&#45;&gt;Node2</title>
<path fill="none" stroke="#9a32cd" stroke-dasharray="5,2" d="M1064.28,-390.61C1100.83,-394.25 1147.05,-400.73 1187,-412.13 1209.34,-418.51 1233.51,-429.89 1249.58,-438.15"/>
<polygon fill="#9a32cd" stroke="#9a32cd" points="1065.05,-387.17 1054.77,-389.71 1064.39,-394.14 1065.05,-387.17"/>
<text text-anchor="middle" x="1133" y="-415.13" font-family="Roboto" font-size="10.00"> viewCameras_</text>
</g>
<!-- Node152 -->
<g id="node16" class="node">
<title>Node152</title>
<g id="a_node16"><a xlink:href="class_urho3_d_1_1_p_o_d_vector.html" target="_top" xlink:title=" ">
<polygon fill="white" stroke="orangered" points="1053,-351.13 944,-351.13 944,-321.13 1053,-321.13 1053,-351.13"/>
<text text-anchor="start" x="952" y="-339.13" font-family="Roboto" font-size="10.00">Urho3D::PODVector&lt;</text>
<text text-anchor="middle" x="998.5" y="-328.13" font-family="Roboto" font-size="10.00"> Urho3D::Light * &gt;</text>
</a>
</g>
</g>
<!-- Node152&#45;&gt;Node2 -->
<g id="edge27" class="edge">
<title>Node152&#45;&gt;Node2</title>
<path fill="none" stroke="#9a32cd" stroke-dasharray="5,2" d="M1064.76,-344.54C1114.44,-351.29 1176.09,-360.52 1187,-366.13 1220.99,-383.61 1249.35,-420.66 1261.56,-438.34"/>
<polygon fill="#9a32cd" stroke="#9a32cd" points="1065.28,-341.08 1054.9,-343.22 1064.35,-348.02 1065.28,-341.08"/>
<text text-anchor="middle" x="1133" y="-380.13" font-family="Roboto" font-size="10.00"> lights_</text>
<text text-anchor="middle" x="1133" y="-369.13" font-family="Roboto" font-size="10.00">vertexLights_</text>
</g>
<!-- Node152&#45;&gt;Node156 -->
<g id="edge43" class="edge">
<title>Node152&#45;&gt;Node156</title>
<path fill="none" stroke="#9a32cd" stroke-dasharray="5,2" d="M1043.2,-315.96C1049.21,-313.06 1055.28,-310.07 1061,-307.13 1069.14,-302.96 1070.73,-301.06 1079,-297.13 1125.68,-274.99 1146.57,-286.3 1187,-254.13 1225.67,-223.37 1253.35,-169.26 1263.62,-147.06"/>
<polygon fill="#9a32cd" stroke="#9a32cd" points="1042.1,-312.61 1034.58,-320.08 1045.11,-318.93 1042.1,-312.61"/>
<text text-anchor="middle" x="1133" y="-300.13" font-family="Roboto" font-size="10.00"> vertexLights_</text>
</g>
<!-- Node153 -->
<g id="node17" class="node">
<title>Node153</title>
<g id="a_node17"><a xlink:href="struct_urho3_d_1_1_bias_parameters.html" target="_top" xlink:title="Depth bias parameters. Used both by lights (for shadow mapping) and materials.">
<polygon fill="white" stroke="#666666" points="791,-347.63 666,-347.63 666,-328.63 791,-328.63 791,-347.63"/>
<text text-anchor="middle" x="728.5" y="-335.63" font-family="Roboto" font-size="10.00">Urho3D::BiasParameters</text>
</a>
</g>
</g>
<!-- Node153&#45;&gt;Node1 -->
<g id="edge29" class="edge">
<title>Node153&#45;&gt;Node1</title>
<path fill="none" stroke="#9a32cd" stroke-dasharray="5,2" d="M802.34,-333.24C837.57,-329.96 880.3,-324.63 918,-316.13 936.77,-311.9 957.32,-304.85 972.82,-299.02"/>
<polygon fill="#9a32cd" stroke="#9a32cd" points="802.33,-329.73 792.68,-334.1 802.95,-336.7 802.33,-329.73"/>
<text text-anchor="middle" x="868.5" y="-335.13" font-family="Roboto" font-size="10.00"> shadowBias_</text>
</g>
<!-- Node154 -->
<g id="node18" class="node">
<title>Node154</title>
<g id="a_node18"><a xlink:href="struct_urho3_d_1_1_cascade_parameters.html" target="_top" xlink:title=" ">
<polygon fill="white" stroke="#666666" points="801,-269.63 656,-269.63 656,-250.63 801,-250.63 801,-269.63"/>
<text text-anchor="middle" x="728.5" y="-257.63" font-family="Roboto" font-size="10.00">Urho3D::CascadeParameters</text>
</a>
</g>
</g>
<!-- Node154&#45;&gt;Node1 -->
<g id="edge30" class="edge">
<title>Node154&#45;&gt;Node1</title>
<path fill="none" stroke="#9a32cd" stroke-dasharray="5,2" d="M812.61,-266.55C845.48,-269.37 883.57,-272.98 918,-277.13 931.86,-278.8 947.02,-281 960.35,-283.05"/>
<polygon fill="#9a32cd" stroke="#9a32cd" points="812.98,-263.07 802.72,-265.71 812.39,-270.04 812.98,-263.07"/>
<text text-anchor="middle" x="868.5" y="-280.13" font-family="Roboto" font-size="10.00"> shadowCascade_</text>
</g>
<!-- Node143 -->
<g id="node19" class="node">
<title>Node143</title>
<g id="a_node19"><a xlink:href="class_urho3_d_1_1_vector4.html" target="_top" xlink:title="Four&#45;dimensional vector.">
<polygon fill="white" stroke="#666666" points="533.5,-231.63 444.5,-231.63 444.5,-212.63 533.5,-212.63 533.5,-231.63"/>
<text text-anchor="middle" x="489" y="-219.63" font-family="Roboto" font-size="10.00">Urho3D::Vector4</text>
</a>
</g>
</g>
<!-- Node143&#45;&gt;Node154 -->
<g id="edge31" class="edge">
<title>Node143&#45;&gt;Node154</title>
<path fill="none" stroke="#9a32cd" stroke-dasharray="5,2" d="M545.08,-230.94C580.96,-236.69 627.86,-244.19 665.12,-250.15"/>
<polygon fill="#9a32cd" stroke="#9a32cd" points="545.76,-227.51 535.33,-229.39 544.65,-234.42 545.76,-227.51"/>
<text text-anchor="middle" x="598.5" y="-249.13" font-family="Roboto" font-size="10.00"> splits_</text>
</g>
<!-- Node143&#45;&gt;Node143 -->
<g id="edge32" class="edge">
<title>Node143&#45;&gt;Node143</title>
<path fill="none" stroke="#9a32cd" stroke-dasharray="5,2" d="M471.16,-243.06C473.39,-246.92 479.34,-249.63 489,-249.63 506.67,-249.63 511.91,-240.57 504.73,-232"/>
<polygon fill="#9a32cd" stroke="#9a32cd" points="474.55,-243.97 472.98,-233.49 467.68,-242.66 474.55,-243.97"/>
<text text-anchor="middle" x="489" y="-263.63" font-family="Roboto" font-size="10.00"> ONE</text>
<text text-anchor="middle" x="489" y="-252.63" font-family="Roboto" font-size="10.00">ZERO</text>
</g>
<!-- Node155 -->
<g id="node20" class="node">
<title>Node155</title>
<g id="a_node20"><a xlink:href="struct_urho3_d_1_1_focus_parameters.html" target="_top" xlink:title=" ">
<polygon fill="white" stroke="#666666" points="795,-384.63 662,-384.63 662,-365.63 795,-365.63 795,-384.63"/>
<text text-anchor="middle" x="728.5" y="-372.63" font-family="Roboto" font-size="10.00">Urho3D::FocusParameters</text>
</a>
</g>
</g>
<!-- Node155&#45;&gt;Node1 -->
<g id="edge33" class="edge">
<title>Node155&#45;&gt;Node1</title>
<path fill="none" stroke="#9a32cd" stroke-dasharray="5,2" d="M806.44,-379.35C843.22,-377.69 886.07,-370.01 918,-347.13 932.22,-336.95 922.93,-323.76 936,-312.13 942.9,-306 951.59,-301.44 960.25,-298.08"/>
<polygon fill="#9a32cd" stroke="#9a32cd" points="806.64,-375.84 796.75,-379.63 806.85,-382.83 806.64,-375.84"/>
<text text-anchor="middle" x="868.5" y="-381.13" font-family="Roboto" font-size="10.00"> shadowFocus_</text>
</g>
<!-- Node156&#45;&gt;Node1 -->
<g id="edge36" class="edge">
<title>Node156&#45;&gt;Node1</title>
<path fill="none" stroke="#9a32cd" stroke-dasharray="5,2" d="M1193.35,-148.15C1144.83,-155.8 1088.82,-165.72 1079,-172.13 1037.47,-199.26 1011.98,-256.42 1003.08,-279.33"/>
<polygon fill="#9a32cd" stroke="#9a32cd" points="1193.68,-151.64 1203.03,-146.65 1192.61,-144.73 1193.68,-151.64"/>
<text text-anchor="middle" x="1133" y="-175.13" font-family="Roboto" font-size="10.00"> lightQueue_</text>
</g>
<!-- Node157&#45;&gt;Node156 -->
<g id="edge38" class="edge">
<title>Node157&#45;&gt;Node156</title>
<path fill="none" stroke="#9a32cd" stroke-dasharray="5,2" d="M929.4,-113.3C931.63,-113.24 933.83,-113.18 936,-113.13 991.54,-111.88 1005.54,-109.93 1061,-113.13 1109.4,-115.93 1163.84,-122.37 1204.75,-127.88"/>
<polygon fill="#9a32cd" stroke="#9a32cd" points="929.55,-109.8 919.67,-113.63 929.78,-116.79 929.55,-109.8"/>
<text text-anchor="middle" x="998.5" y="-116.13" font-family="Roboto" font-size="10.00"> shadowMap_</text>
</g>
<!-- Node159 -->
<g id="node23" class="node">
<title>Node159</title>
<g id="a_node23"><a xlink:href="struct_urho3_d_1_1_batch_queue.html" target="_top" xlink:title="Queue that contains both instanced and non&#45;instanced draw calls.">
<polygon fill="#fff0f0" stroke="red" points="1052,-20.63 945,-20.63 945,-1.63 1052,-1.63 1052,-20.63"/>
<text text-anchor="middle" x="998.5" y="-8.63" font-family="Roboto" font-size="10.00">Urho3D::BatchQueue</text>
</a>
</g>
</g>
<!-- Node159&#45;&gt;Node156 -->
<g id="edge40" class="edge">
<title>Node159&#45;&gt;Node156</title>
<path fill="none" stroke="#9a32cd" stroke-dasharray="5,2" d="M1063.2,-1.12C1101.4,1.75 1149.66,-0.38 1187,-21.13 1230.58,-45.35 1255.98,-104.1 1264.63,-127.39"/>
<polygon fill="#9a32cd" stroke="#9a32cd" points="1063.36,2.41 1053.71,-1.97 1063.98,-4.57 1063.36,2.41"/>
<text text-anchor="middle" x="1133" y="-35.13" font-family="Roboto" font-size="10.00"> litBaseBatches_</text>
<text text-anchor="middle" x="1133" y="-24.13" font-family="Roboto" font-size="10.00">litBatches_</text>
</g>
<!-- Node163 -->
<g id="node24" class="node">
<title>Node163</title>
<g id="a_node24"><a xlink:href="class_urho3_d_1_1_p_o_d_vector.html" target="_top" xlink:title=" ">
<polygon fill="white" stroke="orangered" points="783,-54.13 674,-54.13 674,-24.13 783,-24.13 783,-54.13"/>
<text text-anchor="start" x="682" y="-42.13" font-family="Roboto" font-size="10.00">Urho3D::PODVector&lt;</text>
<text text-anchor="middle" x="728.5" y="-31.13" font-family="Roboto" font-size="10.00"> Urho3D::Batch &gt;</text>
</a>
</g>
</g>
<!-- Node163&#45;&gt;Node156 -->
<g id="edge44" class="edge">
<title>Node163&#45;&gt;Node156</title>
<path fill="none" stroke="#9a32cd" stroke-dasharray="5,2" d="M794.49,-46.15C883.75,-56.52 1048.92,-78.31 1187,-111.13 1205.1,-115.44 1225.01,-121.8 1240.56,-127.16"/>
<polygon fill="#9a32cd" stroke="#9a32cd" points="795.04,-42.69 784.71,-45.03 794.24,-49.65 795.04,-42.69"/>
<text text-anchor="middle" x="998.5" y="-87.13" font-family="Roboto" font-size="10.00"> volumeBatches_</text>
</g>
<!-- Node163&#45;&gt;Node159 -->
<g id="edge41" class="edge">
<title>Node163&#45;&gt;Node159</title>
<path fill="none" stroke="#9a32cd" stroke-dasharray="5,2" d="M794.77,-32.31C840.78,-27.51 901.6,-21.15 944.59,-16.66"/>
<polygon fill="#9a32cd" stroke="#9a32cd" points="794.5,-28.82 784.92,-33.34 795.23,-35.78 794.5,-28.82"/>
<text text-anchor="middle" x="868.5" y="-33.13" font-family="Roboto" font-size="10.00"> batches_</text>
</g>
<!-- Node166 -->
<g id="node25" class="node">
<title>Node166</title>
<g id="a_node25"><a xlink:href="class_urho3_d_1_1_vector.html" target="_top" xlink:title=" ">
<polygon fill="white" stroke="orangered" points="1061,-163.13 936,-163.13 936,-133.13 1061,-133.13 1061,-163.13"/>
<text text-anchor="start" x="944" y="-151.13" font-family="Roboto" font-size="10.00">Urho3D::Vector&lt; Urho3D</text>
<text text-anchor="middle" x="998.5" y="-140.13" font-family="Roboto" font-size="10.00">::ShadowBatchQueue &gt;</text>
</a>
</g>
</g>
<!-- Node166&#45;&gt;Node156 -->
<g id="edge42" class="edge">
<title>Node166&#45;&gt;Node156</title>
<path fill="none" stroke="#9a32cd" stroke-dasharray="5,2" d="M1072.79,-138.58C1074.88,-138.42 1076.95,-138.27 1079,-138.13 1120.75,-135.41 1167.79,-135.15 1204.5,-135.57"/>
<polygon fill="#9a32cd" stroke="#9a32cd" points="1072.64,-135.08 1063,-139.47 1073.27,-142.05 1072.64,-135.08"/>
<text text-anchor="middle" x="1133" y="-141.13" font-family="Roboto" font-size="10.00"> shadowSplits_</text>
</g>
</g>
</svg>
