<?xml version="1.0" encoding="UTF-8" standalone="no"?>
<!DOCTYPE svg PUBLIC "-//W3C//DTD SVG 1.1//EN"
 "http://www.w3.org/Graphics/SVG/1.1/DTD/svg11.dtd">
<!-- Generated by graphviz version 7.0.3 (0)
 -->
<!-- Title: Urho3D::Skybox Pages: 1 -->
<svg width="116pt" height="412pt"
 viewBox="0.00 0.00 116.00 412.00" xmlns="http://www.w3.org/2000/svg" xmlns:xlink="http://www.w3.org/1999/xlink">
<g id="graph0" class="graph" transform="scale(1 1) rotate(0) translate(4 408)">
<title>Urho3D::Skybox</title>
<!-- Node1 -->
<g id="node1" class="node">
<title>Node1</title>
<g id="a_node1"><a xlink:title="Static model component with fixed position in relation to the camera.">
<polygon fill="#999999" stroke="#666666" points="97,-19 11,-19 11,0 97,0 97,-19"/>
<text text-anchor="middle" x="54" y="-7" font-family="Roboto" font-size="10.00">Urho3D::Skybox</text>
</a>
</g>
</g>
<!-- Node2 -->
<g id="node2" class="node">
<title>Node2</title>
<g id="a_node2"><a xlink:href="class_urho3_d_1_1_static_model.html" target="_top" xlink:title="Static model component.">
<polygon fill="white" stroke="#666666" points="108,-74 0,-74 0,-55 108,-55 108,-74"/>
<text text-anchor="middle" x="54" y="-62" font-family="Roboto" font-size="10.00">Urho3D::StaticModel</text>
</a>
</g>
</g>
<!-- Node2&#45;&gt;Node1 -->
<g id="edge1" class="edge">
<title>Node2&#45;&gt;Node1</title>
<path fill="none" stroke="#63b8ff" d="M54,-43.35C54,-35.1 54,-25.97 54,-19.44"/>
<polygon fill="#63b8ff" stroke="#63b8ff" points="50.5,-43.23 54,-53.23 57.5,-43.23 50.5,-43.23"/>
</g>
<!-- Node3 -->
<g id="node3" class="node">
<title>Node3</title>
<g id="a_node3"><a xlink:href="class_urho3_d_1_1_drawable.html" target="_top" xlink:title="Base class for visible components.">
<polygon fill="white" stroke="#666666" points="101.5,-129 6.5,-129 6.5,-110 101.5,-110 101.5,-129"/>
<text text-anchor="middle" x="54" y="-117" font-family="Roboto" font-size="10.00">Urho3D::Drawable</text>
</a>
</g>
</g>
<!-- Node3&#45;&gt;Node2 -->
<g id="edge2" class="edge">
<title>Node3&#45;&gt;Node2</title>
<path fill="none" stroke="#63b8ff" d="M54,-98.35C54,-90.1 54,-80.97 54,-74.44"/>
<polygon fill="#63b8ff" stroke="#63b8ff" points="50.5,-98.23 54,-108.23 57.5,-98.23 50.5,-98.23"/>
</g>
<!-- Node4 -->
<g id="node4" class="node">
<title>Node4</title>
<g id="a_node4"><a xlink:href="class_urho3_d_1_1_component.html" target="_top" xlink:title=" ">
<polygon fill="white" stroke="#666666" points="107.5,-184 0.5,-184 0.5,-165 107.5,-165 107.5,-184"/>
<text text-anchor="middle" x="54" y="-172" font-family="Roboto" font-size="10.00">Urho3D::Component</text>
</a>
</g>
</g>
<!-- Node4&#45;&gt;Node3 -->
<g id="edge3" class="edge">
<title>Node4&#45;&gt;Node3</title>
<path fill="none" stroke="#63b8ff" d="M54,-153.35C54,-145.1 54,-135.97 54,-129.44"/>
<polygon fill="#63b8ff" stroke="#63b8ff" points="50.5,-153.23 54,-163.23 57.5,-153.23 50.5,-153.23"/>
</g>
<!-- Node5 -->
<g id="node5" class="node">
<title>Node5</title>
<g id="a_node5"><a xlink:href="class_urho3_d_1_1_animatable.html" target="_top" xlink:title="Base class for animatable object, an animatable object can be set animation on it&#39;s attributes,...">
<polygon fill="white" stroke="#666666" points="106,-239 2,-239 2,-220 106,-220 106,-239"/>
<text text-anchor="middle" x="54" y="-227" font-family="Roboto" font-size="10.00">Urho3D::Animatable</text>
</a>
</g>
</g>
<!-- Node5&#45;&gt;Node4 -->
<g id="edge4" class="edge">
<title>Node5&#45;&gt;Node4</title>
<path fill="none" stroke="#63b8ff" d="M54,-208.35C54,-200.1 54,-190.97 54,-184.44"/>
<polygon fill="#63b8ff" stroke="#63b8ff" points="50.5,-208.23 54,-218.23 57.5,-208.23 50.5,-208.23"/>
</g>
<!-- Node6 -->
<g id="node6" class="node">
<title>Node6</title>
<g id="a_node6"><a xlink:href="class_urho3_d_1_1_serializable.html" target="_top" xlink:title="Base class for objects with automatic serialization through attributes.">
<polygon fill="white" stroke="#666666" points="106.5,-294 1.5,-294 1.5,-275 106.5,-275 106.5,-294"/>
<text text-anchor="middle" x="54" y="-282" font-family="Roboto" font-size="10.00">Urho3D::Serializable</text>
</a>
</g>
</g>
<!-- Node6&#45;&gt;Node5 -->
<g id="edge5" class="edge">
<title>Node6&#45;&gt;Node5</title>
<path fill="none" stroke="#63b8ff" d="M54,-263.35C54,-255.1 54,-245.97 54,-239.44"/>
<polygon fill="#63b8ff" stroke="#63b8ff" points="50.5,-263.23 54,-273.23 57.5,-263.23 50.5,-263.23"/>
</g>
<!-- Node7 -->
<g id="node7" class="node">
<title>Node7</title>
<g id="a_node7"><a xlink:href="class_urho3_d_1_1_object.html" target="_top" xlink:title=" ">
<polygon fill="white" stroke="#666666" points="95.5,-349 12.5,-349 12.5,-330 95.5,-330 95.5,-349"/>
<text text-anchor="middle" x="54" y="-337" font-family="Roboto" font-size="10.00">Urho3D::Object</text>
</a>
</g>
</g>
<!-- Node7&#45;&gt;Node6 -->
<g id="edge6" class="edge">
<title>Node7&#45;&gt;Node6</title>
<path fill="none" stroke="#63b8ff" d="M54,-318.35C54,-310.1 54,-300.97 54,-294.44"/>
<polygon fill="#63b8ff" stroke="#63b8ff" points="50.5,-318.23 54,-328.23 57.5,-318.23 50.5,-318.23"/>
</g>
<!-- Node8 -->
<g id="node8" class="node">
<title>Node8</title>
<g id="a_node8"><a xlink:href="class_urho3_d_1_1_ref_counted.html" target="_top" xlink:title="Base class for intrusively reference&#45;counted objects. These are noncopyable and non&#45;assignable.">
<polygon fill="white" stroke="#666666" points="107.5,-404 0.5,-404 0.5,-385 107.5,-385 107.5,-404"/>
<text text-anchor="middle" x="54" y="-392" font-family="Roboto" font-size="10.00">Urho3D::RefCounted</text>
</a>
</g>
</g>
<!-- Node8&#45;&gt;Node7 -->
<g id="edge7" class="edge">
<title>Node8&#45;&gt;Node7</title>
<path fill="none" stroke="#63b8ff" d="M54,-373.35C54,-365.1 54,-355.97 54,-349.44"/>
<polygon fill="#63b8ff" stroke="#63b8ff" points="50.5,-373.23 54,-383.23 57.5,-373.23 50.5,-373.23"/>
</g>
</g>
</svg>
