<?xml version="1.0" encoding="UTF-8" standalone="no"?>
<!DOCTYPE svg PUBLIC "-//W3C//DTD SVG 1.1//EN"
 "http://www.w3.org/Graphics/SVG/1.1/DTD/svg11.dtd">
<!-- Generated by graphviz version 7.0.3 (0)
 -->
<!-- Title: Urho3D::Input::SetMousePosition Pages: 1 -->
<svg width="1990pt" height="236pt"
 viewBox="0.00 0.00 1990.00 235.78" xmlns="http://www.w3.org/2000/svg" xmlns:xlink="http://www.w3.org/1999/xlink">
<g id="graph0" class="graph" transform="scale(1 1) rotate(0) translate(4 231.78)">
<title>Urho3D::Input::SetMousePosition</title>
<!-- Node1 -->
<g id="node1" class="node">
<title>Node1</title>
<g id="a_node1"><a xlink:title=" ">
<polygon fill="#999999" stroke="#666666" points="1982,-67.5 1820,-67.5 1820,-48.5 1982,-48.5 1982,-67.5"/>
<text text-anchor="middle" x="1901" y="-55.5" font-family="Roboto" font-size="10.00">Urho3D::Input::SetMousePosition</text>
</a>
</g>
</g>
<!-- Node2 -->
<g id="node2" class="node">
<title>Node2</title>
<g id="a_node2"><a xlink:href="class_urho3_d_1_1_input.html#a136ad9cea7501ca5d032b19c73d0dcb7" target="_top" xlink:title="Center the mouse position.">
<polygon fill="white" stroke="#666666" points="1384.5,-30 1243.5,-30 1243.5,0 1384.5,0 1384.5,-30"/>
<text text-anchor="start" x="1251.5" y="-18" font-family="Roboto" font-size="10.00">Urho3D::Input::CenterMouse</text>
<text text-anchor="middle" x="1314" y="-7" font-family="Roboto" font-size="10.00">Position</text>
</a>
</g>
</g>
<!-- Node1&#45;&gt;Node2 -->
<g id="edge1" class="edge">
<title>Node1&#45;&gt;Node2</title>
<path fill="none" stroke="#63b8ff" d="M1811.44,-46.77C1802.18,-45.76 1792.9,-44.81 1784,-44 1642.44,-31.09 1476.3,-22.32 1384.63,-18.03"/>
<polygon fill="#63b8ff" stroke="#63b8ff" points="1810.86,-50.23 1821.19,-47.86 1811.64,-43.27 1810.86,-50.23"/>
</g>
<!-- Node3 -->
<g id="node3" class="node">
<title>Node3</title>
<g id="a_node3"><a xlink:href="class_urho3_d_1_1_input.html#ab4cd4fe34682b2d90183f181718c6125" target="_top" xlink:title="Poll for window messages. Called by HandleBeginFrame().">
<polygon fill="white" stroke="#666666" points="798,-127.5 685,-127.5 685,-108.5 798,-108.5 798,-127.5"/>
<text text-anchor="middle" x="741.5" y="-115.5" font-family="Roboto" font-size="10.00">Urho3D::Input::Update</text>
</a>
</g>
</g>
<!-- Node1&#45;&gt;Node3 -->
<g id="edge24" class="edge">
<title>Node1&#45;&gt;Node3</title>
<path fill="none" stroke="#63b8ff" d="M1808.45,-58C1729.51,-58 1612.49,-58 1510.5,-58 1510.5,-58 1510.5,-58 1119.5,-58 998.95,-58 966.74,-52.1 849,-78 818.33,-84.75 784.67,-98.54 763.57,-108.03"/>
<polygon fill="#63b8ff" stroke="#63b8ff" points="1808.29,-61.5 1818.29,-58 1808.29,-54.5 1808.29,-61.5"/>
</g>
<!-- Node8 -->
<g id="node8" class="node">
<title>Node8</title>
<g id="a_node8"><a xlink:href="class_urho3_d_1_1_input.html#a42f016907a65f849a98e0ad9c24d97ee" target="_top" xlink:title="Set whether the operating system mouse cursor is visible. When not visible (default),...">
<polygon fill="white" stroke="#666666" points="1784,-124.5 1629,-124.5 1629,-105.5 1784,-105.5 1784,-124.5"/>
<text text-anchor="middle" x="1706.5" y="-112.5" font-family="Roboto" font-size="10.00">Urho3D::Input::SetMouseVisible</text>
</a>
</g>
</g>
<!-- Node1&#45;&gt;Node8 -->
<g id="edge8" class="edge">
<title>Node1&#45;&gt;Node8</title>
<path fill="none" stroke="#63b8ff" d="M1855.62,-71.14C1820.68,-81.49 1772.73,-95.68 1740.97,-105.09"/>
<polygon fill="#63b8ff" stroke="#63b8ff" points="1856.42,-74.55 1865.02,-68.36 1854.44,-67.84 1856.42,-74.55"/>
</g>
<!-- Node2&#45;&gt;Node3 -->
<g id="edge2" class="edge">
<title>Node2&#45;&gt;Node3</title>
<path fill="none" stroke="#63b8ff" d="M1231.89,-7.15C1137.19,-0.88 977.19,0.6 849,-44 809.02,-57.91 770.33,-91.3 752.59,-108.05"/>
<polygon fill="#63b8ff" stroke="#63b8ff" points="1231.37,-10.62 1241.59,-7.83 1231.86,-3.64 1231.37,-10.62"/>
</g>
<!-- Node4 -->
<g id="node4" class="node">
<title>Node4</title>
<g id="a_node4"><a xlink:href="class_urho3_d_1_1_input.html#a147c4675aa679dbf4d9702b3d3d6b921" target="_top" xlink:title="Handle frame start event.">
<polygon fill="white" stroke="#666666" points="634,-136 497,-136 497,-106 634,-106 634,-136"/>
<text text-anchor="start" x="505" y="-124" font-family="Roboto" font-size="10.00">Urho3D::Input::HandleBegin</text>
<text text-anchor="middle" x="565.5" y="-113" font-family="Roboto" font-size="10.00">Frame</text>
</a>
</g>
</g>
<!-- Node3&#45;&gt;Node4 -->
<g id="edge3" class="edge">
<title>Node3&#45;&gt;Node4</title>
<path fill="none" stroke="#63b8ff" d="M673.79,-119.15C660.85,-119.37 647.28,-119.61 634.3,-119.83"/>
<polygon fill="#63b8ff" stroke="#63b8ff" points="673.52,-122.66 683.45,-118.98 673.39,-115.66 673.52,-122.66"/>
</g>
<!-- Node5 -->
<g id="node5" class="node">
<title>Node5</title>
<g id="a_node5"><a xlink:href="class_urho3_d_1_1_input.html#a2b19913a84b72c17a1079b821ec18564" target="_top" xlink:title="Initialize when screen mode initially set.">
<polygon fill="white" stroke="#666666" points="461,-130.5 344,-130.5 344,-111.5 461,-111.5 461,-130.5"/>
<text text-anchor="middle" x="402.5" y="-118.5" font-family="Roboto" font-size="10.00">Urho3D::Input::Initialize</text>
</a>
</g>
</g>
<!-- Node4&#45;&gt;Node5 -->
<g id="edge4" class="edge">
<title>Node4&#45;&gt;Node5</title>
<path fill="none" stroke="#63b8ff" d="M485.29,-121C477.2,-121 469.09,-121 461.3,-121"/>
<polygon fill="#63b8ff" stroke="#63b8ff" points="485.17,-124.5 495.17,-121 485.17,-117.5 485.17,-124.5"/>
</g>
<!-- Node6 -->
<g id="node6" class="node">
<title>Node6</title>
<g id="a_node6"><a xlink:href="class_urho3_d_1_1_input.html#ac0a172bd8f0568c96db9ceb0b46ed0e5" target="_top" xlink:title="Handle screen mode event.">
<polygon fill="white" stroke="#666666" points="308,-111.5 139,-111.5 139,-92.5 308,-92.5 308,-111.5"/>
<text text-anchor="middle" x="223.5" y="-99.5" font-family="Roboto" font-size="10.00">Urho3D::Input::HandleScreenMode</text>
</a>
</g>
</g>
<!-- Node5&#45;&gt;Node6 -->
<g id="edge5" class="edge">
<title>Node5&#45;&gt;Node6</title>
<path fill="none" stroke="#63b8ff" d="M332.21,-113.56C324.36,-112.72 316.29,-111.85 308.27,-110.99"/>
<polygon fill="#63b8ff" stroke="#63b8ff" points="331.72,-117.03 342.04,-114.62 332.47,-110.07 331.72,-117.03"/>
</g>
<!-- Node7 -->
<g id="node7" class="node">
<title>Node7</title>
<g id="a_node7"><a xlink:href="class_urho3_d_1_1_input.html#a48199becd3824e420e4bce2ed6a03c12" target="_top" xlink:title="Construct.">
<polygon fill="white" stroke="#666666" points="103,-130.5 0,-130.5 0,-111.5 103,-111.5 103,-130.5"/>
<text text-anchor="middle" x="51.5" y="-118.5" font-family="Roboto" font-size="10.00">Urho3D::Input::Input</text>
</a>
</g>
</g>
<!-- Node5&#45;&gt;Node7 -->
<g id="edge7" class="edge">
<title>Node5&#45;&gt;Node7</title>
<path fill="none" stroke="#63b8ff" d="M332.51,-121C265.04,-121 163.87,-121 103.4,-121"/>
<polygon fill="#63b8ff" stroke="#63b8ff" points="332.36,-124.5 342.36,-121 332.36,-117.5 332.36,-124.5"/>
</g>
<!-- Node6&#45;&gt;Node7 -->
<g id="edge6" class="edge">
<title>Node6&#45;&gt;Node7</title>
<path fill="none" stroke="#63b8ff" d="M127.81,-112.58C119.33,-113.53 110.98,-114.46 103.11,-115.34"/>
<polygon fill="#63b8ff" stroke="#63b8ff" points="127.94,-116.09 137.49,-111.5 127.16,-109.13 127.94,-116.09"/>
</g>
<!-- Node9 -->
<g id="node9" class="node">
<title>Node9</title>
<g id="a_node9"><a xlink:href="class_urho3_d_1_1_input.html#ad12d5ff3951c02df21943b9c4284e30b" target="_top" xlink:title="Reset last mouse visibility that was not suppressed in SetMouseVisible.">
<polygon fill="white" stroke="#666666" points="1578,-192 1441,-192 1441,-162 1578,-162 1578,-192"/>
<text text-anchor="start" x="1449" y="-180" font-family="Roboto" font-size="10.00">Urho3D::Input::ResetMouse</text>
<text text-anchor="middle" x="1509.5" y="-169" font-family="Roboto" font-size="10.00">Visible</text>
</a>
</g>
</g>
<!-- Node8&#45;&gt;Node9 -->
<g id="edge9" class="edge">
<title>Node8&#45;&gt;Node9</title>
<path fill="none" stroke="#63b8ff" d="M1666.68,-128.57C1645.06,-136.01 1617.62,-145.26 1593,-153 1583.89,-155.86 1574.18,-158.79 1564.74,-161.58"/>
<polygon fill="#63b8ff" stroke="#63b8ff" points="1667.67,-131.93 1675.98,-125.35 1665.38,-125.31 1667.67,-131.93"/>
</g>
<!-- Node10 -->
<g id="node10" class="node">
<title>Node10</title>
<g id="a_node10"><a xlink:href="class_urho3_d_1_1_input.html#a9a8eecc920bc4bf4cf3f2b1048796beb" target="_top" xlink:title="Set the mouse mode.">
<polygon fill="white" stroke="#666666" points="1390,-143.5 1238,-143.5 1238,-124.5 1390,-124.5 1390,-143.5"/>
<text text-anchor="middle" x="1314" y="-131.5" font-family="Roboto" font-size="10.00">Urho3D::Input::SetMouseMode</text>
</a>
</g>
</g>
<!-- Node8&#45;&gt;Node10 -->
<g id="edge22" class="edge">
<title>Node8&#45;&gt;Node10</title>
<path fill="none" stroke="#63b8ff" d="M1617.07,-111.77C1562.01,-110.64 1489.77,-110.75 1426,-116 1406.25,-117.63 1384.71,-120.79 1365.91,-124.02"/>
<polygon fill="#63b8ff" stroke="#63b8ff" points="1616.96,-115.27 1627.03,-112 1617.11,-108.27 1616.96,-115.27"/>
</g>
<!-- Node17 -->
<g id="node17" class="node">
<title>Node17</title>
<g id="a_node17"><a xlink:href="class_urho3_d_1_1_input.html#af189e73afffcd2185b72f8546a444876" target="_top" xlink:title=" ">
<polygon fill="white" stroke="#666666" points="1593,-143.5 1426,-143.5 1426,-124.5 1593,-124.5 1593,-143.5"/>
<text text-anchor="middle" x="1509.5" y="-131.5" font-family="Roboto" font-size="10.00">Urho3D::Input::SetTouchEmulation</text>
</a>
</g>
</g>
<!-- Node8&#45;&gt;Node17 -->
<g id="edge23" class="edge">
<title>Node8&#45;&gt;Node17</title>
<path fill="none" stroke="#63b8ff" d="M1617.44,-123.58C1609.42,-124.36 1601.31,-125.15 1593.33,-125.93"/>
<polygon fill="#63b8ff" stroke="#63b8ff" points="1617.59,-127.08 1627.2,-122.63 1616.91,-120.12 1617.59,-127.08"/>
</g>
<!-- Node9&#45;&gt;Node10 -->
<g id="edge10" class="edge">
<title>Node9&#45;&gt;Node10</title>
<path fill="none" stroke="#63b8ff" d="M1429.41,-159.42C1405.66,-154.15 1380.46,-148.55 1359.76,-143.95"/>
<polygon fill="#63b8ff" stroke="#63b8ff" points="1428.55,-162.82 1439.07,-161.57 1430.07,-155.99 1428.55,-162.82"/>
</g>
<!-- Node11 -->
<g id="node11" class="node">
<title>Node11</title>
<g id="a_node11"><a xlink:href="class_urho3_d_1_1_input.html#a31ac853b836e1c4bb1106a984aefd1f6" target="_top" xlink:title="Prepare input state for application gaining input focus.">
<polygon fill="white" stroke="#666666" points="1184.5,-180.5 1056.5,-180.5 1056.5,-161.5 1184.5,-161.5 1184.5,-180.5"/>
<text text-anchor="middle" x="1120.5" y="-168.5" font-family="Roboto" font-size="10.00">Urho3D::Input::GainFocus</text>
</a>
</g>
</g>
<!-- Node10&#45;&gt;Node11 -->
<g id="edge11" class="edge">
<title>Node10&#45;&gt;Node11</title>
<path fill="none" stroke="#63b8ff" d="M1250.23,-146.13C1225.27,-150.95 1196.9,-156.43 1173.16,-161.02"/>
<polygon fill="#63b8ff" stroke="#63b8ff" points="1250.79,-149.58 1259.94,-144.25 1249.46,-142.71 1250.79,-149.58"/>
</g>
<!-- Node15 -->
<g id="node15" class="node">
<title>Node15</title>
<g id="a_node15"><a xlink:href="class_urho3_d_1_1_input.html#ac35fd7d54a42a16634d28a227d4e7581" target="_top" xlink:title="Prepare input state for application losing input focus.">
<polygon fill="white" stroke="#666666" points="991,-105.5 861,-105.5 861,-86.5 991,-86.5 991,-105.5"/>
<text text-anchor="middle" x="926" y="-93.5" font-family="Roboto" font-size="10.00">Urho3D::Input::LoseFocus</text>
</a>
</g>
</g>
<!-- Node10&#45;&gt;Node15 -->
<g id="edge18" class="edge">
<title>Node10&#45;&gt;Node15</title>
<path fill="none" stroke="#63b8ff" d="M1246.52,-122.24C1231.89,-119.93 1216.45,-117.69 1202,-116 1130.09,-107.57 1047.16,-102.12 991.33,-99.07"/>
<polygon fill="#63b8ff" stroke="#63b8ff" points="1245.59,-125.64 1256.03,-123.78 1246.71,-118.73 1245.59,-125.64"/>
</g>
<!-- Node16 -->
<g id="node16" class="node">
<title>Node16</title>
<g id="a_node16"><a xlink:href="class_urho3_d_1_1_input.html#a1a587bd955adb43ee0d1333d59f47516" target="_top" xlink:title="Reset the last mouse mode that wasn&#39;t suppressed in SetMouseMode.">
<polygon fill="white" stroke="#666666" points="1202,-143.5 1039,-143.5 1039,-124.5 1202,-124.5 1202,-143.5"/>
<text text-anchor="middle" x="1120.5" y="-131.5" font-family="Roboto" font-size="10.00">Urho3D::Input::ResetMouseMode</text>
</a>
</g>
</g>
<!-- Node10&#45;&gt;Node16 -->
<g id="edge21" class="edge">
<title>Node10&#45;&gt;Node16</title>
<path fill="none" stroke="#63b8ff" d="M1226.32,-134C1218.29,-134 1210.18,-134 1202.21,-134"/>
<polygon fill="#63b8ff" stroke="#63b8ff" points="1226.08,-137.5 1236.08,-134 1226.08,-130.5 1226.08,-137.5"/>
</g>
<!-- Node11&#45;&gt;Node3 -->
<g id="edge17" class="edge">
<title>Node11&#45;&gt;Node3</title>
<path fill="none" stroke="#63b8ff" d="M1044.98,-160.04C1031.03,-158.01 1016.57,-155.93 1003,-154 932.49,-143.98 851.18,-132.81 798.41,-125.6"/>
<polygon fill="#63b8ff" stroke="#63b8ff" points="1044.13,-163.45 1054.53,-161.43 1045.14,-156.53 1044.13,-163.45"/>
</g>
<!-- Node11&#45;&gt;Node5 -->
<g id="edge16" class="edge">
<title>Node11&#45;&gt;Node5</title>
<path fill="none" stroke="#63b8ff" d="M1072.5,-183.72C966.42,-210.08 701.71,-262.68 497,-193 460.54,-180.59 427.2,-147.58 412.07,-130.91"/>
<polygon fill="#63b8ff" stroke="#63b8ff" points="1073.15,-187.16 1081.99,-181.32 1071.44,-180.38 1073.15,-187.16"/>
</g>
<!-- Node12 -->
<g id="node12" class="node">
<title>Node12</title>
<g id="a_node12"><a xlink:href="class_urho3_d_1_1_input.html#a6dc8699608ba629964e3c702e629be92" target="_top" xlink:title="Handle SDL event.">
<polygon fill="white" stroke="#666666" points="1003,-181.5 849,-181.5 849,-162.5 1003,-162.5 1003,-181.5"/>
<text text-anchor="middle" x="926" y="-169.5" font-family="Roboto" font-size="10.00">Urho3D::Input::HandleSDLEvent</text>
</a>
</g>
</g>
<!-- Node11&#45;&gt;Node12 -->
<g id="edge12" class="edge">
<title>Node11&#45;&gt;Node12</title>
<path fill="none" stroke="#63b8ff" d="M1044.93,-171.39C1031.31,-171.46 1017.09,-171.53 1003.41,-171.6"/>
<polygon fill="#63b8ff" stroke="#63b8ff" points="1044.71,-174.89 1054.69,-171.34 1044.67,-167.89 1044.71,-174.89"/>
</g>
<!-- Node12&#45;&gt;Node3 -->
<g id="edge15" class="edge">
<title>Node12&#45;&gt;Node3</title>
<path fill="none" stroke="#63b8ff" d="M880.61,-158.87C848.39,-149.33 805.46,-136.63 776.07,-127.93"/>
<polygon fill="#63b8ff" stroke="#63b8ff" points="879.49,-162.18 890.08,-161.67 881.48,-155.47 879.49,-162.18"/>
</g>
<!-- Node13 -->
<g id="node13" class="node">
<title>Node13</title>
<g id="a_node13"><a xlink:href="class_urho3_d_1_1_input.html#a81b43d331225b80eb2f2e647b142ab5c" target="_top" xlink:title="Handle touch events from the controls of screen joystick(s).">
<polygon fill="white" stroke="#666666" points="813,-184 670,-184 670,-154 813,-154 813,-184"/>
<text text-anchor="start" x="678" y="-172" font-family="Roboto" font-size="10.00">Urho3D::Input::HandleScreen</text>
<text text-anchor="middle" x="741.5" y="-161" font-family="Roboto" font-size="10.00">JoystickTouch</text>
</a>
</g>
</g>
<!-- Node12&#45;&gt;Node13 -->
<g id="edge13" class="edge">
<title>Node12&#45;&gt;Node13</title>
<path fill="none" stroke="#63b8ff" d="M837.32,-170.56C829.26,-170.43 821.17,-170.29 813.29,-170.16"/>
<polygon fill="#63b8ff" stroke="#63b8ff" points="837.09,-174.06 847.15,-170.72 837.21,-167.06 837.09,-174.06"/>
</g>
<!-- Node14 -->
<g id="node14" class="node">
<title>Node14</title>
<g id="a_node14"><a xlink:href="class_urho3_d_1_1_input.html#ae6e2a0dd7db2be45379d5551187afb7b" target="_top" xlink:title="Add screen joystick.">
<polygon fill="white" stroke="#666666" points="630.5,-184 500.5,-184 500.5,-154 630.5,-154 630.5,-184"/>
<text text-anchor="start" x="508.5" y="-172" font-family="Roboto" font-size="10.00">Urho3D::Input::AddScreen</text>
<text text-anchor="middle" x="565.5" y="-161" font-family="Roboto" font-size="10.00">Joystick</text>
</a>
</g>
</g>
<!-- Node13&#45;&gt;Node14 -->
<g id="edge14" class="edge">
<title>Node13&#45;&gt;Node14</title>
<path fill="none" stroke="#63b8ff" d="M658.45,-169C649.16,-169 639.79,-169 630.77,-169"/>
<polygon fill="#63b8ff" stroke="#63b8ff" points="658.21,-172.5 668.21,-169 658.21,-165.5 658.21,-172.5"/>
</g>
<!-- Node15&#45;&gt;Node3 -->
<g id="edge20" class="edge">
<title>Node15&#45;&gt;Node3</title>
<path fill="none" stroke="#63b8ff" d="M849.54,-105.1C832.42,-107.16 814.53,-109.32 798.39,-111.26"/>
<polygon fill="#63b8ff" stroke="#63b8ff" points="849.65,-108.61 859.15,-103.94 848.81,-101.66 849.65,-108.61"/>
</g>
<!-- Node15&#45;&gt;Node5 -->
<g id="edge19" class="edge">
<title>Node15&#45;&gt;Node5</title>
<path fill="none" stroke="#63b8ff" d="M849.04,-90.51C763.19,-85.62 619.44,-81.39 497,-97 475.72,-99.71 452.35,-105.71 434.29,-111.03"/>
<polygon fill="#63b8ff" stroke="#63b8ff" points="848.81,-94 859,-91.1 849.22,-87.01 848.81,-94"/>
</g>
</g>
</svg>
