<?xml version="1.0" encoding="UTF-8" standalone="no"?>
<!DOCTYPE svg PUBLIC "-//W3C//DTD SVG 1.1//EN"
 "http://www.w3.org/Graphics/SVG/1.1/DTD/svg11.dtd">
<!-- Generated by graphviz version 7.0.3 (0)
 -->
<!-- Title: Urho3D::ConstraintGear2D Pages: 1 -->
<svg width="141pt" height="357pt"
 viewBox="0.00 0.00 141.00 357.00" xmlns="http://www.w3.org/2000/svg" xmlns:xlink="http://www.w3.org/1999/xlink">
<g id="graph0" class="graph" transform="scale(1 1) rotate(0) translate(4 353)">
<title>Urho3D::ConstraintGear2D</title>
<!-- Node1 -->
<g id="node1" class="node">
<title>Node1</title>
<g id="a_node1"><a xlink:title="2D gear constraint component.">
<polygon fill="#999999" stroke="#666666" points="133,-19 0,-19 0,0 133,0 133,-19"/>
<text text-anchor="middle" x="66.5" y="-7" font-family="Roboto" font-size="10.00">Urho3D::ConstraintGear2D</text>
</a>
</g>
</g>
<!-- Node2 -->
<g id="node2" class="node">
<title>Node2</title>
<g id="a_node2"><a xlink:href="class_urho3_d_1_1_constraint2_d.html" target="_top" xlink:title="2D physics constraint component.">
<polygon fill="white" stroke="#666666" points="122.5,-74 10.5,-74 10.5,-55 122.5,-55 122.5,-74"/>
<text text-anchor="middle" x="66.5" y="-62" font-family="Roboto" font-size="10.00">Urho3D::Constraint2D</text>
</a>
</g>
</g>
<!-- Node2&#45;&gt;Node1 -->
<g id="edge1" class="edge">
<title>Node2&#45;&gt;Node1</title>
<path fill="none" stroke="#63b8ff" d="M66.5,-43.35C66.5,-35.1 66.5,-25.97 66.5,-19.44"/>
<polygon fill="#63b8ff" stroke="#63b8ff" points="63,-43.23 66.5,-53.23 70,-43.23 63,-43.23"/>
</g>
<!-- Node3 -->
<g id="node3" class="node">
<title>Node3</title>
<g id="a_node3"><a xlink:href="class_urho3_d_1_1_component.html" target="_top" xlink:title=" ">
<polygon fill="white" stroke="#666666" points="120,-129 13,-129 13,-110 120,-110 120,-129"/>
<text text-anchor="middle" x="66.5" y="-117" font-family="Roboto" font-size="10.00">Urho3D::Component</text>
</a>
</g>
</g>
<!-- Node3&#45;&gt;Node2 -->
<g id="edge2" class="edge">
<title>Node3&#45;&gt;Node2</title>
<path fill="none" stroke="#63b8ff" d="M66.5,-98.35C66.5,-90.1 66.5,-80.97 66.5,-74.44"/>
<polygon fill="#63b8ff" stroke="#63b8ff" points="63,-98.23 66.5,-108.23 70,-98.23 63,-98.23"/>
</g>
<!-- Node4 -->
<g id="node4" class="node">
<title>Node4</title>
<g id="a_node4"><a xlink:href="class_urho3_d_1_1_animatable.html" target="_top" xlink:title="Base class for animatable object, an animatable object can be set animation on it&#39;s attributes,...">
<polygon fill="white" stroke="#666666" points="118.5,-184 14.5,-184 14.5,-165 118.5,-165 118.5,-184"/>
<text text-anchor="middle" x="66.5" y="-172" font-family="Roboto" font-size="10.00">Urho3D::Animatable</text>
</a>
</g>
</g>
<!-- Node4&#45;&gt;Node3 -->
<g id="edge3" class="edge">
<title>Node4&#45;&gt;Node3</title>
<path fill="none" stroke="#63b8ff" d="M66.5,-153.35C66.5,-145.1 66.5,-135.97 66.5,-129.44"/>
<polygon fill="#63b8ff" stroke="#63b8ff" points="63,-153.23 66.5,-163.23 70,-153.23 63,-153.23"/>
</g>
<!-- Node5 -->
<g id="node5" class="node">
<title>Node5</title>
<g id="a_node5"><a xlink:href="class_urho3_d_1_1_serializable.html" target="_top" xlink:title="Base class for objects with automatic serialization through attributes.">
<polygon fill="white" stroke="#666666" points="119,-239 14,-239 14,-220 119,-220 119,-239"/>
<text text-anchor="middle" x="66.5" y="-227" font-family="Roboto" font-size="10.00">Urho3D::Serializable</text>
</a>
</g>
</g>
<!-- Node5&#45;&gt;Node4 -->
<g id="edge4" class="edge">
<title>Node5&#45;&gt;Node4</title>
<path fill="none" stroke="#63b8ff" d="M66.5,-208.35C66.5,-200.1 66.5,-190.97 66.5,-184.44"/>
<polygon fill="#63b8ff" stroke="#63b8ff" points="63,-208.23 66.5,-218.23 70,-208.23 63,-208.23"/>
</g>
<!-- Node6 -->
<g id="node6" class="node">
<title>Node6</title>
<g id="a_node6"><a xlink:href="class_urho3_d_1_1_object.html" target="_top" xlink:title=" ">
<polygon fill="white" stroke="#666666" points="108,-294 25,-294 25,-275 108,-275 108,-294"/>
<text text-anchor="middle" x="66.5" y="-282" font-family="Roboto" font-size="10.00">Urho3D::Object</text>
</a>
</g>
</g>
<!-- Node6&#45;&gt;Node5 -->
<g id="edge5" class="edge">
<title>Node6&#45;&gt;Node5</title>
<path fill="none" stroke="#63b8ff" d="M66.5,-263.35C66.5,-255.1 66.5,-245.97 66.5,-239.44"/>
<polygon fill="#63b8ff" stroke="#63b8ff" points="63,-263.23 66.5,-273.23 70,-263.23 63,-263.23"/>
</g>
<!-- Node7 -->
<g id="node7" class="node">
<title>Node7</title>
<g id="a_node7"><a xlink:href="class_urho3_d_1_1_ref_counted.html" target="_top" xlink:title="Base class for intrusively reference&#45;counted objects. These are noncopyable and non&#45;assignable.">
<polygon fill="white" stroke="#666666" points="120,-349 13,-349 13,-330 120,-330 120,-349"/>
<text text-anchor="middle" x="66.5" y="-337" font-family="Roboto" font-size="10.00">Urho3D::RefCounted</text>
</a>
</g>
</g>
<!-- Node7&#45;&gt;Node6 -->
<g id="edge6" class="edge">
<title>Node7&#45;&gt;Node6</title>
<path fill="none" stroke="#63b8ff" d="M66.5,-318.35C66.5,-310.1 66.5,-300.97 66.5,-294.44"/>
<polygon fill="#63b8ff" stroke="#63b8ff" points="63,-318.23 66.5,-328.23 70,-318.23 63,-318.23"/>
</g>
</g>
</svg>
