<?xml version="1.0" encoding="UTF-8" standalone="no"?>
<!DOCTYPE svg PUBLIC "-//W3C//DTD SVG 1.1//EN"
 "http://www.w3.org/Graphics/SVG/1.1/DTD/svg11.dtd">
<!-- Generated by graphviz version 7.0.3 (0)
 -->
<!-- Title: Urho3D::Node::GetSignedWorldScale Pages: 1 -->
<svg width="552pt" height="166pt"
 viewBox="0.00 0.00 552.00 165.50" xmlns="http://www.w3.org/2000/svg" xmlns:xlink="http://www.w3.org/1999/xlink">
<g id="graph0" class="graph" transform="scale(1 1) rotate(0) translate(4 161.5)">
<title>Urho3D::Node::GetSignedWorldScale</title>
<!-- Node1 -->
<g id="node1" class="node">
<title>Node1</title>
<g id="a_node1"><a xlink:title=" ">
<polygon fill="#999999" stroke="#666666" points="156,-109.5 0,-109.5 0,-79.5 156,-79.5 156,-109.5"/>
<text text-anchor="start" x="8" y="-97.5" font-family="Roboto" font-size="10.00">Urho3D::Node::GetSignedWorld</text>
<text text-anchor="middle" x="78" y="-86.5" font-family="Roboto" font-size="10.00">Scale</text>
</a>
</g>
</g>
<!-- Node2 -->
<g id="node2" class="node">
<title>Node2</title>
<g id="a_node2"><a xlink:href="class_urho3_d_1_1_quaternion.html#a0a55e229141be1ba710b0c134c61c966" target="_top" xlink:title=" ">
<polygon fill="white" stroke="#666666" points="315,-157.5 212,-157.5 212,-127.5 315,-127.5 315,-157.5"/>
<text text-anchor="start" x="220" y="-145.5" font-family="Roboto" font-size="10.00">Urho3D::Quaternion</text>
<text text-anchor="middle" x="263.5" y="-134.5" font-family="Roboto" font-size="10.00">::RotationMatrix</text>
</a>
</g>
</g>
<!-- Node1&#45;&gt;Node2 -->
<g id="edge1" class="edge">
<title>Node1&#45;&gt;Node2</title>
<path fill="none" stroke="#63b8ff" d="M138.07,-109.95C158.05,-115.18 180.41,-121.03 200.6,-126.31"/>
<polygon fill="#63b8ff" stroke="#63b8ff" points="199.54,-129.65 210.1,-128.79 201.31,-122.88 199.54,-129.65"/>
</g>
<!-- Node3 -->
<g id="node3" class="node">
<title>Node3</title>
<g id="a_node3"><a xlink:href="class_urho3_d_1_1_matrix3x4.html#a56f1e338bd39e384a53e2e006f79b24e" target="_top" xlink:title="Return the scaling part with the sign. Reference rotation matrix is required to avoid ambiguity.">
<polygon fill="white" stroke="#666666" points="315.5,-109.5 211.5,-109.5 211.5,-79.5 315.5,-79.5 315.5,-109.5"/>
<text text-anchor="start" x="219.5" y="-97.5" font-family="Roboto" font-size="10.00">Urho3D::Matrix3x4::</text>
<text text-anchor="middle" x="263.5" y="-86.5" font-family="Roboto" font-size="10.00">SignedScale</text>
</a>
</g>
</g>
<!-- Node1&#45;&gt;Node3 -->
<g id="edge2" class="edge">
<title>Node1&#45;&gt;Node3</title>
<path fill="none" stroke="#63b8ff" d="M156.29,-94.5C170.75,-94.5 185.71,-94.5 199.67,-94.5"/>
<polygon fill="#63b8ff" stroke="#63b8ff" points="199.61,-98 209.61,-94.5 199.61,-91 199.61,-98"/>
</g>
<!-- Node4 -->
<g id="node4" class="node">
<title>Node4</title>
<g id="a_node4"><a xlink:href="class_urho3_d_1_1_node.html#af15430523a0d5a9d23c4b761018e37b8" target="_top" xlink:title="Recalculate the world transform.">
<polygon fill="white" stroke="#666666" points="335,-61.5 192,-61.5 192,-31.5 335,-31.5 335,-61.5"/>
<text text-anchor="start" x="200" y="-49.5" font-family="Roboto" font-size="10.00">Urho3D::Node::UpdateWorld</text>
<text text-anchor="middle" x="263.5" y="-38.5" font-family="Roboto" font-size="10.00">Transform</text>
</a>
</g>
</g>
<!-- Node1&#45;&gt;Node4 -->
<g id="edge3" class="edge">
<title>Node1&#45;&gt;Node4</title>
<path fill="none" stroke="#63b8ff" d="M138.07,-79.05C155.42,-74.51 174.57,-69.5 192.53,-64.8"/>
<polygon fill="#63b8ff" stroke="#63b8ff" points="193.29,-68.22 202.08,-62.31 191.52,-61.45 193.29,-68.22"/>
</g>
<!-- Node5 -->
<g id="node5" class="node">
<title>Node5</title>
<g id="a_node5"><a xlink:href="class_urho3_d_1_1_node.html#a7f36ffbac48689b8453d03c6a57a776f" target="_top" xlink:title=" ">
<polygon fill="white" stroke="#666666" points="530.5,-93 384.5,-93 384.5,-74 530.5,-74 530.5,-93"/>
<text text-anchor="middle" x="457.5" y="-81" font-family="Roboto" font-size="10.00">Urho3D::Node::GetTransform</text>
</a>
</g>
</g>
<!-- Node4&#45;&gt;Node5 -->
<g id="edge4" class="edge">
<title>Node4&#45;&gt;Node5</title>
<path fill="none" stroke="#63b8ff" d="M335.45,-60.17C354.47,-63.84 374.9,-67.77 393.46,-71.35"/>
<polygon fill="#63b8ff" stroke="#63b8ff" points="392.77,-74.78 403.26,-73.24 394.1,-67.91 392.77,-74.78"/>
</g>
<!-- Node6 -->
<g id="node6" class="node">
<title>Node6</title>
<g id="a_node6"><a xlink:href="class_urho3_d_1_1_node.html#ad74175e15dfaa86263299e355a2d49ed" target="_top" xlink:title=" ">
<polygon fill="white" stroke="#666666" points="539,-56 376,-56 376,-37 539,-37 539,-56"/>
<text text-anchor="middle" x="457.5" y="-44" font-family="Roboto" font-size="10.00">Urho3D::Node::GetWorldRotation</text>
</a>
</g>
</g>
<!-- Node4&#45;&gt;Node6 -->
<g id="edge5" class="edge">
<title>Node4&#45;&gt;Node6</title>
<path fill="none" stroke="#63b8ff" d="M335.45,-46.5C344.89,-46.5 354.68,-46.5 364.42,-46.5"/>
<polygon fill="#63b8ff" stroke="#63b8ff" points="364.29,-50 374.29,-46.5 364.29,-43 364.29,-50"/>
</g>
<!-- Node7 -->
<g id="node7" class="node">
<title>Node7</title>
<g id="a_node7"><a xlink:href="class_urho3_d_1_1_node.html#a2eb3e2cda5c98b2a92d95fcca8e43fbb" target="_top" xlink:title=" ">
<polygon fill="white" stroke="#666666" points="544,-19 371,-19 371,0 544,0 544,-19"/>
<text text-anchor="middle" x="457.5" y="-7" font-family="Roboto" font-size="10.00">Urho3D::Node::GetWorldTransform</text>
</a>
</g>
</g>
<!-- Node4&#45;&gt;Node7 -->
<g id="edge6" class="edge">
<title>Node4&#45;&gt;Node7</title>
<path fill="none" stroke="#63b8ff" d="M335.45,-32.83C354.47,-29.16 374.9,-25.23 393.46,-21.65"/>
<polygon fill="#63b8ff" stroke="#63b8ff" points="394.1,-25.09 403.26,-19.76 392.77,-18.22 394.1,-25.09"/>
</g>
</g>
</svg>
