<?xml version="1.0" encoding="UTF-8" standalone="no"?>
<!DOCTYPE svg PUBLIC "-//W3C//DTD SVG 1.1//EN"
 "http://www.w3.org/Graphics/SVG/1.1/DTD/svg11.dtd">
<!-- Generated by graphviz version 7.0.3 (0)
 -->
<!-- Title: Urho3D::SplinePath::RegisterObject Pages: 1 -->
<svg width="1177pt" height="532pt"
 viewBox="0.00 0.00 1177.00 532.29" xmlns="http://www.w3.org/2000/svg" xmlns:xlink="http://www.w3.org/1999/xlink">
<g id="graph0" class="graph" transform="scale(1 1) rotate(0) translate(4 528.29)">
<title>Urho3D::SplinePath::RegisterObject</title>
<!-- Node1 -->
<g id="node1" class="node">
<title>Node1</title>
<g id="a_node1"><a xlink:title=" ">
<polygon fill="#999999" stroke="#666666" points="101,-356.29 0,-356.29 0,-326.29 101,-326.29 101,-356.29"/>
<text text-anchor="start" x="8" y="-344.29" font-family="Roboto" font-size="10.00">Urho3D::SplinePath</text>
<text text-anchor="middle" x="50.5" y="-333.29" font-family="Roboto" font-size="10.00">::RegisterObject</text>
</a>
</g>
</g>
<!-- Node2 -->
<g id="node2" class="node">
<title>Node2</title>
<g id="a_node2"><a xlink:href="class_urho3_d_1_1_spline_path.html#aae0caf94c41d4ea78fd7906235fb05e6" target="_top" xlink:title="Get Controlled Node ID attribute.">
<polygon fill="white" stroke="#666666" points="273,-524.29 166,-524.29 166,-494.29 273,-494.29 273,-524.29"/>
<text text-anchor="start" x="174" y="-512.29" font-family="Roboto" font-size="10.00">Urho3D::SplinePath</text>
<text text-anchor="middle" x="219.5" y="-501.29" font-family="Roboto" font-size="10.00">::GetControlledIdAttr</text>
</a>
</g>
</g>
<!-- Node1&#45;&gt;Node2 -->
<g id="edge1" class="edge">
<title>Node1&#45;&gt;Node2</title>
<path fill="none" stroke="#63b8ff" d="M56.28,-356.45C66.33,-385.83 92.46,-450.68 137,-485.29 142.5,-489.57 148.75,-493.08 155.28,-495.97"/>
<polygon fill="#63b8ff" stroke="#63b8ff" points="153.71,-499.12 164.3,-499.47 156.24,-492.59 153.71,-499.12"/>
</g>
<!-- Node3 -->
<g id="node3" class="node">
<title>Node3</title>
<g id="a_node3"><a xlink:href="class_urho3_d_1_1_spline_path.html#a051c1e63ca5050fe0bbde8ef445c8390" target="_top" xlink:title="Return Control Point Node IDs attribute.">
<polygon fill="white" stroke="#666666" points="280.5,-476.29 158.5,-476.29 158.5,-446.29 280.5,-446.29 280.5,-476.29"/>
<text text-anchor="start" x="166.5" y="-464.29" font-family="Roboto" font-size="10.00">Urho3D::SplinePath</text>
<text text-anchor="middle" x="219.5" y="-453.29" font-family="Roboto" font-size="10.00">::GetControlPointIdsAttr</text>
</a>
</g>
</g>
<!-- Node1&#45;&gt;Node3 -->
<g id="edge2" class="edge">
<title>Node1&#45;&gt;Node3</title>
<path fill="none" stroke="#63b8ff" d="M61.13,-356.68C75.22,-377.92 103.44,-416.03 137,-437.29 140.34,-439.41 143.88,-441.34 147.53,-443.12"/>
<polygon fill="#63b8ff" stroke="#63b8ff" points="146.11,-446.32 156.68,-447.08 148.89,-439.89 146.11,-446.32"/>
</g>
<!-- Node4 -->
<g id="node4" class="node">
<title>Node4</title>
<g id="a_node4"><a xlink:href="class_urho3_d_1_1_spline_path.html#a031b20cae996d5a4749432bc9a1c6e4c" target="_top" xlink:title=" ">
<polygon fill="white" stroke="#666666" points="278.5,-428.29 160.5,-428.29 160.5,-398.29 278.5,-398.29 278.5,-428.29"/>
<text text-anchor="start" x="168.5" y="-416.29" font-family="Roboto" font-size="10.00">Urho3D::SplinePath</text>
<text text-anchor="middle" x="219.5" y="-405.29" font-family="Roboto" font-size="10.00">::GetInterpolationMode</text>
</a>
</g>
</g>
<!-- Node1&#45;&gt;Node4 -->
<g id="edge3" class="edge">
<title>Node1&#45;&gt;Node4</title>
<path fill="none" stroke="#63b8ff" d="M75.45,-356.67C92.2,-366.93 115.35,-380.17 137,-389.29 141.01,-390.98 145.19,-392.6 149.43,-394.15"/>
<polygon fill="#63b8ff" stroke="#63b8ff" points="148.03,-397.37 158.63,-397.33 150.32,-390.75 148.03,-397.37"/>
</g>
<!-- Node5 -->
<g id="node5" class="node">
<title>Node5</title>
<g id="a_node5"><a xlink:href="namespace_urho3_d_1_1_attribute_metadata.html#a0eec60ed91ef3d0a83f7c94563ac8f43" target="_top" xlink:title="Names of vector struct elements. StringVector.">
<polygon fill="white" stroke="#666666" points="302,-380.29 137,-380.29 137,-350.29 302,-350.29 302,-380.29"/>
<text text-anchor="start" x="145" y="-368.29" font-family="Roboto" font-size="10.00">Urho3D::AttributeMetadata</text>
<text text-anchor="middle" x="219.5" y="-357.29" font-family="Roboto" font-size="10.00">::P_VECTOR_STRUCT_ELEMENTS</text>
</a>
</g>
</g>
<!-- Node1&#45;&gt;Node5 -->
<g id="edge4" class="edge">
<title>Node1&#45;&gt;Node5</title>
<path fill="none" stroke="#63b8ff" d="M101.15,-348.43C108.82,-349.53 116.95,-350.7 125.2,-351.88"/>
<polygon fill="#63b8ff" stroke="#63b8ff" points="124.62,-355.33 135.01,-353.29 125.61,-348.41 124.62,-355.33"/>
</g>
<!-- Node6 -->
<g id="node6" class="node">
<title>Node6</title>
<g id="a_node6"><a xlink:href="class_urho3_d_1_1_context.html#aa9b2cffef8d52fa18bfe533a2615a598" target="_top" xlink:title="Register a factory for an object type.">
<polygon fill="white" stroke="#666666" points="284.5,-332.29 154.5,-332.29 154.5,-302.29 284.5,-302.29 284.5,-332.29"/>
<text text-anchor="start" x="162.5" y="-320.29" font-family="Roboto" font-size="10.00">Urho3D::Context::Register</text>
<text text-anchor="middle" x="219.5" y="-309.29" font-family="Roboto" font-size="10.00">Factory</text>
</a>
</g>
</g>
<!-- Node1&#45;&gt;Node6 -->
<g id="edge5" class="edge">
<title>Node1&#45;&gt;Node6</title>
<path fill="none" stroke="#63b8ff" d="M101.15,-334.16C114.28,-332.27 128.75,-330.19 142.91,-328.16"/>
<polygon fill="#63b8ff" stroke="#63b8ff" points="143.27,-331.64 152.67,-326.75 142.27,-324.71 143.27,-331.64"/>
</g>
<!-- Node8 -->
<g id="node8" class="node">
<title>Node8</title>
<g id="a_node8"><a xlink:href="class_urho3_d_1_1_spline_path.html#a74a393672e96bc8eeea211c6cba2a737" target="_top" xlink:title="Set Controlled Node ID attribute.">
<polygon fill="white" stroke="#666666" points="273,-284.29 166,-284.29 166,-254.29 273,-254.29 273,-284.29"/>
<text text-anchor="start" x="174" y="-272.29" font-family="Roboto" font-size="10.00">Urho3D::SplinePath</text>
<text text-anchor="middle" x="219.5" y="-261.29" font-family="Roboto" font-size="10.00">::SetControlledIdAttr</text>
</a>
</g>
</g>
<!-- Node1&#45;&gt;Node8 -->
<g id="edge7" class="edge">
<title>Node1&#45;&gt;Node8</title>
<path fill="none" stroke="#63b8ff" d="M75.45,-325.91C92.2,-315.65 115.35,-302.42 137,-293.29 142.83,-290.83 149,-288.52 155.23,-286.38"/>
<polygon fill="#63b8ff" stroke="#63b8ff" points="155.87,-289.86 164.28,-283.41 153.68,-283.21 155.87,-289.86"/>
</g>
<!-- Node9 -->
<g id="node9" class="node">
<title>Node9</title>
<g id="a_node9"><a xlink:href="class_urho3_d_1_1_spline_path.html#a4fdc4aa69407de45358cac7a5cbcdf6c" target="_top" xlink:title="Set Control Point Node IDs attribute.">
<polygon fill="white" stroke="#666666" points="489.5,-263.29 368.5,-263.29 368.5,-233.29 489.5,-233.29 489.5,-263.29"/>
<text text-anchor="start" x="376.5" y="-251.29" font-family="Roboto" font-size="10.00">Urho3D::SplinePath</text>
<text text-anchor="middle" x="429" y="-240.29" font-family="Roboto" font-size="10.00">::SetControlPointIdsAttr</text>
</a>
</g>
</g>
<!-- Node1&#45;&gt;Node9 -->
<g id="edge8" class="edge">
<title>Node1&#45;&gt;Node9</title>
<path fill="none" stroke="#63b8ff" d="M59.51,-326.03C72.36,-303.42 99.94,-261.91 137,-245.29 206.87,-213.96 296.01,-220.78 357.11,-231.56"/>
<polygon fill="#63b8ff" stroke="#63b8ff" points="356.23,-234.95 366.7,-233.33 357.5,-228.07 356.23,-234.95"/>
</g>
<!-- Node25 -->
<g id="node18" class="node">
<title>Node25</title>
<g id="a_node18"><a xlink:href="class_urho3_d_1_1_spline_path.html#ae9a6a13c7f1d9f24065cd015265a469f" target="_top" xlink:title=" ">
<polygon fill="white" stroke="#666666" points="278,-132.29 161,-132.29 161,-102.29 278,-102.29 278,-132.29"/>
<text text-anchor="start" x="169" y="-120.29" font-family="Roboto" font-size="10.00">Urho3D::SplinePath</text>
<text text-anchor="middle" x="219.5" y="-109.29" font-family="Roboto" font-size="10.00">::SetInterpolationMode</text>
</a>
</g>
</g>
<!-- Node1&#45;&gt;Node25 -->
<g id="edge19" class="edge">
<title>Node1&#45;&gt;Node25</title>
<path fill="none" stroke="#63b8ff" d="M60.67,-326.18C75.73,-301.66 107.03,-251.95 137,-212.29 156.03,-187.11 179.7,-159.93 196.62,-141.12"/>
<polygon fill="#63b8ff" stroke="#63b8ff" points="199.2,-143.48 203.32,-133.72 194.01,-138.78 199.2,-143.48"/>
</g>
<!-- Node7 -->
<g id="node7" class="node">
<title>Node7</title>
<g id="a_node7"><a xlink:href="class_urho3_d_1_1_object_factory.html#a191ee9fd0ce7c127dfd92b2b9ae47709" target="_top" xlink:title="Return type hash of objects created by this factory.">
<polygon fill="white" stroke="#666666" points="487,-332.29 371,-332.29 371,-302.29 487,-302.29 487,-332.29"/>
<text text-anchor="start" x="379" y="-320.29" font-family="Roboto" font-size="10.00">Urho3D::ObjectFactory</text>
<text text-anchor="middle" x="429" y="-309.29" font-family="Roboto" font-size="10.00">::GetType</text>
</a>
</g>
</g>
<!-- Node6&#45;&gt;Node7 -->
<g id="edge6" class="edge">
<title>Node6&#45;&gt;Node7</title>
<path fill="none" stroke="#63b8ff" d="M284.73,-317.29C308.47,-317.29 335.45,-317.29 359.54,-317.29"/>
<polygon fill="#63b8ff" stroke="#63b8ff" points="359.24,-320.79 369.24,-317.29 359.24,-313.79 359.24,-320.79"/>
</g>
<!-- Node10 -->
<g id="node10" class="node">
<title>Node10</title>
<g id="a_node10"><a xlink:href="class_urho3_d_1_1_vector.html#a816870b165f6d7662f3d806ad73c5c59" target="_top" xlink:title="Clear the vector.">
<polygon fill="white" stroke="#666666" points="682,-337.79 570,-337.79 570,-318.79 682,-318.79 682,-337.79"/>
<text text-anchor="middle" x="626" y="-325.79" font-family="Roboto" font-size="10.00">Urho3D::Vector::Clear</text>
</a>
</g>
</g>
<!-- Node9&#45;&gt;Node10 -->
<g id="edge9" class="edge">
<title>Node9&#45;&gt;Node10</title>
<path fill="none" stroke="#63b8ff" d="M467.19,-263.71C492.27,-274.09 526.1,-288.06 556,-300.29 567.04,-304.81 579.08,-309.71 589.97,-314.12"/>
<polygon fill="#63b8ff" stroke="#63b8ff" points="588.41,-317.27 598.99,-317.78 591.04,-310.78 588.41,-317.27"/>
</g>
<!-- Node21 -->
<g id="node14" class="node">
<title>Node21</title>
<g id="a_node14"><a xlink:href="class_urho3_d_1_1_vector.html#a083b39861b996df82f811a9a4ebff109" target="_top" xlink:title="Add an element at the end.">
<polygon fill="white" stroke="#666666" points="846,-295.79 736,-295.79 736,-276.79 846,-276.79 846,-295.79"/>
<text text-anchor="middle" x="791" y="-283.79" font-family="Roboto" font-size="10.00">Urho3D::Vector::Push</text>
</a>
</g>
</g>
<!-- Node9&#45;&gt;Node21 -->
<g id="edge13" class="edge">
<title>Node9&#45;&gt;Node21</title>
<path fill="none" stroke="#63b8ff" d="M489.81,-258.17C510.71,-261.39 534.35,-264.78 556,-267.29 612.67,-273.86 677.31,-278.92 724.28,-282.17"/>
<polygon fill="#63b8ff" stroke="#63b8ff" points="723.8,-285.64 734.01,-282.83 724.27,-278.66 723.8,-285.64"/>
</g>
<!-- Node24 -->
<g id="node17" class="node">
<title>Node24</title>
<g id="a_node17"><a xlink:href="class_urho3_d_1_1_vector.html#a5da7101c355895f41098fcf875e4c56a" target="_top" xlink:title="Return size of vector.">
<polygon fill="white" stroke="#666666" points="844.5,-219.79 737.5,-219.79 737.5,-200.79 844.5,-200.79 844.5,-219.79"/>
<text text-anchor="middle" x="791" y="-207.79" font-family="Roboto" font-size="10.00">Urho3D::Vector::Size</text>
</a>
</g>
</g>
<!-- Node9&#45;&gt;Node24 -->
<g id="edge18" class="edge">
<title>Node9&#45;&gt;Node24</title>
<path fill="none" stroke="#63b8ff" d="M489.84,-239.04C510.74,-235.99 534.37,-232.76 556,-230.29 613.45,-223.74 679.05,-218.31 726.15,-214.77"/>
<polygon fill="#63b8ff" stroke="#63b8ff" points="726.18,-218.28 735.9,-214.04 725.67,-211.29 726.18,-218.28"/>
</g>
<!-- Node11 -->
<g id="node11" class="node">
<title>Node11</title>
<g id="a_node11"><a xlink:href="class_urho3_d_1_1_vector.html#a5d21ed173348c7bca276c417ed7d38e2" target="_top" xlink:title="Resize the vector.">
<polygon fill="white" stroke="#666666" points="850,-339.79 732,-339.79 732,-320.79 850,-320.79 850,-339.79"/>
<text text-anchor="middle" x="791" y="-327.79" font-family="Roboto" font-size="10.00">Urho3D::Vector::Resize</text>
</a>
</g>
</g>
<!-- Node10&#45;&gt;Node11 -->
<g id="edge10" class="edge">
<title>Node10&#45;&gt;Node11</title>
<path fill="none" stroke="#63b8ff" d="M682.18,-328.97C694.35,-329.12 707.39,-329.28 720.04,-329.43"/>
<polygon fill="#63b8ff" stroke="#63b8ff" points="719.97,-332.93 730.01,-329.56 720.06,-325.93 719.97,-332.93"/>
</g>
<!-- Node12 -->
<g id="node12" class="node">
<title>Node12</title>
<g id="a_node12"><a xlink:href="class_urho3_d_1_1_vector.html#ae9748e916e5595ad4ea377f2a0d1a1b7" target="_top" xlink:title="Resize the vector and create/remove new elements as necessary.">
<polygon fill="#fff0f0" stroke="red" points="1017,-340.79 886,-340.79 886,-321.79 1017,-321.79 1017,-340.79"/>
<text text-anchor="middle" x="951.5" y="-328.79" font-family="Roboto" font-size="10.00">Urho3D::Vector::DoResize</text>
</a>
</g>
</g>
<!-- Node11&#45;&gt;Node12 -->
<g id="edge11" class="edge">
<title>Node11&#45;&gt;Node12</title>
<path fill="none" stroke="#63b8ff" d="M850.12,-330.66C857.99,-330.71 866.15,-330.76 874.28,-330.81"/>
<polygon fill="#63b8ff" stroke="#63b8ff" points="874.16,-334.31 884.18,-330.87 874.21,-327.31 874.16,-334.31"/>
</g>
<!-- Node13 -->
<g id="node13" class="node">
<title>Node13</title>
<g id="a_node13"><a xlink:href="class_urho3_d_1_1_vector.html#a2126455bfd4dd42c90838abba6fef37a" target="_top" xlink:title="Return the buffer with right type.">
<polygon fill="white" stroke="#666666" points="1169,-297.79 1053,-297.79 1053,-278.79 1169,-278.79 1169,-297.79"/>
<text text-anchor="middle" x="1111" y="-285.79" font-family="Roboto" font-size="10.00">Urho3D::Vector::Buffer</text>
</a>
</g>
</g>
<!-- Node12&#45;&gt;Node13 -->
<g id="edge12" class="edge">
<title>Node12&#45;&gt;Node13</title>
<path fill="none" stroke="#63b8ff" d="M989.03,-321.32C1010.92,-315.34 1038.98,-307.68 1062.57,-301.24"/>
<polygon fill="#63b8ff" stroke="#63b8ff" points="1063.21,-304.69 1071.94,-298.68 1061.37,-297.94 1063.21,-304.69"/>
</g>
<!-- Node22 -->
<g id="node15" class="node">
<title>Node22</title>
<g id="a_node15"><a xlink:href="class_urho3_d_1_1_vector.html#a2966c346317753692342733ce84a6829" target="_top" xlink:title="Return last element.">
<polygon fill="white" stroke="#666666" points="1006.5,-254.79 896.5,-254.79 896.5,-235.79 1006.5,-235.79 1006.5,-254.79"/>
<text text-anchor="middle" x="951.5" y="-242.79" font-family="Roboto" font-size="10.00">Urho3D::Vector::Back</text>
</a>
</g>
</g>
<!-- Node21&#45;&gt;Node22 -->
<g id="edge14" class="edge">
<title>Node21&#45;&gt;Node22</title>
<path fill="none" stroke="#63b8ff" d="M830.37,-276.37C851.63,-270.87 878.29,-263.97 901.09,-258.07"/>
<polygon fill="#63b8ff" stroke="#63b8ff" points="901.67,-261.54 910.47,-255.65 899.91,-254.76 901.67,-261.54"/>
</g>
<!-- Node23 -->
<g id="node16" class="node">
<title>Node23</title>
<g id="a_node16"><a xlink:href="class_urho3_d_1_1_vector.html#a17e4a13942a9512bc0eceb3e46d950dd" target="_top" xlink:title="Insert elements into the vector using copy or move constructor.">
<polygon fill="#fff0f0" stroke="red" points="1015,-303.29 888,-303.29 888,-273.29 1015,-273.29 1015,-303.29"/>
<text text-anchor="start" x="896" y="-291.29" font-family="Roboto" font-size="10.00">Urho3D::Vector::DoInsert</text>
<text text-anchor="middle" x="951.5" y="-280.29" font-family="Roboto" font-size="10.00">Elements</text>
</a>
</g>
</g>
<!-- Node21&#45;&gt;Node23 -->
<g id="edge16" class="edge">
<title>Node21&#45;&gt;Node23</title>
<path fill="none" stroke="#63b8ff" d="M846.1,-286.97C855.81,-287.1 866.08,-287.23 876.24,-287.35"/>
<polygon fill="#63b8ff" stroke="#63b8ff" points="876.07,-290.85 886.12,-287.48 876.16,-283.85 876.07,-290.85"/>
</g>
<!-- Node22&#45;&gt;Node13 -->
<g id="edge15" class="edge">
<title>Node22&#45;&gt;Node13</title>
<path fill="none" stroke="#63b8ff" d="M989.03,-255.26C1010.92,-261.24 1038.98,-268.9 1062.57,-275.34"/>
<polygon fill="#63b8ff" stroke="#63b8ff" points="1061.37,-278.64 1071.94,-277.9 1063.21,-271.89 1061.37,-278.64"/>
</g>
<!-- Node23&#45;&gt;Node13 -->
<g id="edge17" class="edge">
<title>Node23&#45;&gt;Node13</title>
<path fill="none" stroke="#63b8ff" d="M1015.2,-288.29C1023.79,-288.29 1032.65,-288.29 1041.33,-288.29"/>
<polygon fill="#63b8ff" stroke="#63b8ff" points="1041.11,-291.79 1051.11,-288.29 1041.11,-284.79 1041.11,-291.79"/>
</g>
<!-- Node26 -->
<g id="node19" class="node">
<title>Node26</title>
<g id="a_node19"><a xlink:href="class_urho3_d_1_1_spline_path.html#a36d325ce97cc0e763e2feb1f62c3f606" target="_top" xlink:title="Calculate the length of the SplinePath. Used for movement calculations.">
<polygon fill="white" stroke="#666666" points="479.5,-132.29 378.5,-132.29 378.5,-102.29 479.5,-102.29 479.5,-132.29"/>
<text text-anchor="start" x="386.5" y="-120.29" font-family="Roboto" font-size="10.00">Urho3D::SplinePath</text>
<text text-anchor="middle" x="429" y="-109.29" font-family="Roboto" font-size="10.00">::CalculateLength</text>
</a>
</g>
</g>
<!-- Node25&#45;&gt;Node26 -->
<g id="edge20" class="edge">
<title>Node25&#45;&gt;Node26</title>
<path fill="none" stroke="#63b8ff" d="M278.3,-117.29C305.91,-117.29 338.97,-117.29 366.99,-117.29"/>
<polygon fill="#63b8ff" stroke="#63b8ff" points="366.74,-120.79 376.74,-117.29 366.74,-113.79 366.74,-120.79"/>
</g>
<!-- Node37 -->
<g id="node25" class="node">
<title>Node37</title>
<g id="a_node25"><a xlink:href="class_urho3_d_1_1_spline.html#a54065e0455f38df16ca0e4d965bc978a" target="_top" xlink:title=" ">
<polygon fill="white" stroke="#666666" points="520,-83.79 338,-83.79 338,-64.79 520,-64.79 520,-83.79"/>
<text text-anchor="middle" x="429" y="-71.79" font-family="Roboto" font-size="10.00">Urho3D::Spline::SetInterpolationMode</text>
</a>
</g>
</g>
<!-- Node25&#45;&gt;Node37 -->
<g id="edge31" class="edge">
<title>Node25&#45;&gt;Node37</title>
<path fill="none" stroke="#63b8ff" d="M278.3,-105.31C306.57,-99.46 340.53,-92.42 368.96,-86.53"/>
<polygon fill="#63b8ff" stroke="#63b8ff" points="369.4,-90.01 378.48,-84.55 367.98,-83.15 369.4,-90.01"/>
</g>
<!-- Node26&#45;&gt;Node24 -->
<g id="edge30" class="edge">
<title>Node26&#45;&gt;Node24</title>
<path fill="none" stroke="#63b8ff" d="M479.64,-111.05C493.81,-107.37 508.5,-101.54 520,-92.29 546.65,-70.86 526.7,-41.93 556,-24.29 609.31,7.8 643,8.31 696,-24.29 755.79,-61.07 778.94,-148.92 786.65,-189.32"/>
<polygon fill="#63b8ff" stroke="#63b8ff" points="783.2,-189.91 788.38,-199.15 790.1,-188.7 783.2,-189.91"/>
</g>
<!-- Node27 -->
<g id="node20" class="node">
<title>Node27</title>
<g id="a_node20"><a xlink:href="_math_defs_8h.html#ac3865cf9a0484b8452ccc4e62c5661ca" target="_top" xlink:title=" ">
<polygon fill="white" stroke="#666666" points="662,-163.79 590,-163.79 590,-144.79 662,-144.79 662,-163.79"/>
<text text-anchor="middle" x="626" y="-151.79" font-family="Roboto" font-size="10.00">Urho3D::Abs</text>
</a>
</g>
</g>
<!-- Node26&#45;&gt;Node27 -->
<g id="edge21" class="edge">
<title>Node26&#45;&gt;Node27</title>
<path fill="none" stroke="#63b8ff" d="M479.96,-126.77C510.38,-132.54 548.97,-139.87 578.7,-145.51"/>
<polygon fill="#63b8ff" stroke="#63b8ff" points="577.66,-148.87 588.14,-147.3 578.96,-141.99 577.66,-148.87"/>
</g>
<!-- Node28 -->
<g id="node21" class="node">
<title>Node28</title>
<g id="a_node21"><a xlink:href="class_urho3_d_1_1_spline.html#aec9352d328c39b7fc0a6e3b007cbb5e8" target="_top" xlink:title=" ">
<polygon fill="white" stroke="#666666" points="686.5,-126.79 565.5,-126.79 565.5,-107.79 686.5,-107.79 686.5,-126.79"/>
<text text-anchor="middle" x="626" y="-114.79" font-family="Roboto" font-size="10.00">Urho3D::Spline::GetKnot</text>
</a>
</g>
</g>
<!-- Node26&#45;&gt;Node28 -->
<g id="edge23" class="edge">
<title>Node26&#45;&gt;Node28</title>
<path fill="none" stroke="#63b8ff" d="M479.96,-117.29C502.37,-117.29 529.21,-117.29 553.67,-117.29"/>
<polygon fill="#63b8ff" stroke="#63b8ff" points="553.58,-120.79 563.58,-117.29 553.58,-113.79 553.58,-120.79"/>
</g>
<!-- Node29 -->
<g id="node22" class="node">
<title>Node29</title>
<g id="a_node22"><a xlink:href="class_urho3_d_1_1_spline.html#a68cab3618c4adc0e1fff58573522d2d1" target="_top" xlink:title="Return the knots of the spline.">
<polygon fill="white" stroke="#666666" points="689,-89.79 563,-89.79 563,-70.79 689,-70.79 689,-89.79"/>
<text text-anchor="middle" x="626" y="-77.79" font-family="Roboto" font-size="10.00">Urho3D::Spline::GetKnots</text>
</a>
</g>
</g>
<!-- Node26&#45;&gt;Node29 -->
<g id="edge24" class="edge">
<title>Node26&#45;&gt;Node29</title>
<path fill="none" stroke="#63b8ff" d="M479.96,-107.81C504.75,-103.11 534.96,-97.38 561.37,-92.36"/>
<polygon fill="#63b8ff" stroke="#63b8ff" points="561.78,-95.85 570.95,-90.55 560.47,-88.97 561.78,-95.85"/>
</g>
<!-- Node30 -->
<g id="node23" class="node">
<title>Node30</title>
<g id="a_node23"><a xlink:href="class_urho3_d_1_1_spline.html#a7ece7665efcb2fb858921e5798cdb3ea" target="_top" xlink:title="Return the T of the point of the spline at f from 0.f &#45; 1.f.">
<polygon fill="#fff0f0" stroke="red" points="687.5,-257.79 564.5,-257.79 564.5,-238.79 687.5,-238.79 687.5,-257.79"/>
<text text-anchor="middle" x="626" y="-245.79" font-family="Roboto" font-size="10.00">Urho3D::Spline::GetPoint</text>
</a>
</g>
</g>
<!-- Node26&#45;&gt;Node30 -->
<g id="edge25" class="edge">
<title>Node26&#45;&gt;Node30</title>
<path fill="none" stroke="#63b8ff" d="M452.75,-132.58C489.83,-157.48 562.94,-206.6 600.88,-232.09"/>
<polygon fill="#63b8ff" stroke="#63b8ff" points="598.65,-234.8 608.9,-237.48 602.55,-228.99 598.65,-234.8"/>
</g>
<!-- Node36 -->
<g id="node24" class="node">
<title>Node36</title>
<g id="a_node24"><a xlink:href="class_urho3_d_1_1_variant.html#a68809bf51496951f26b810448e41a207" target="_top" xlink:title="Return Vector3 or zero on type mismatch.">
<polygon fill="white" stroke="#666666" points="696,-52.79 556,-52.79 556,-33.79 696,-33.79 696,-52.79"/>
<text text-anchor="middle" x="626" y="-40.79" font-family="Roboto" font-size="10.00">Urho3D::Variant::GetVector3</text>
</a>
</g>
</g>
<!-- Node26&#45;&gt;Node36 -->
<g id="edge29" class="edge">
<title>Node26&#45;&gt;Node36</title>
<path fill="none" stroke="#63b8ff" d="M479.61,-107.69C493.18,-103.96 507.56,-98.94 520,-92.29 538.62,-82.34 537.3,-71.1 556,-61.29 558.88,-59.78 561.89,-58.39 564.98,-57.12"/>
<polygon fill="#63b8ff" stroke="#63b8ff" points="566.1,-60.43 574.28,-53.71 563.69,-53.86 566.1,-60.43"/>
</g>
<!-- Node27&#45;&gt;Node27 -->
<g id="edge22" class="edge">
<title>Node27&#45;&gt;Node27</title>
<path fill="none" stroke="#63b8ff" d="M600.17,-164.16C588.39,-172.73 597,-181.79 626,-181.79 642.31,-181.79 652.18,-178.92 655.59,-174.89"/>
<polygon fill="#63b8ff" stroke="#63b8ff" points="658.94,-173.87 652.33,-165.59 652.33,-176.18 658.94,-173.87"/>
</g>
<!-- Node30&#45;&gt;Node21 -->
<g id="edge27" class="edge">
<title>Node30&#45;&gt;Node21</title>
<path fill="none" stroke="#63b8ff" d="M669.83,-258.28C690.15,-263.01 714.65,-268.72 736.21,-273.75"/>
<polygon fill="#63b8ff" stroke="#63b8ff" points="735.17,-277.1 745.7,-275.96 736.76,-270.29 735.17,-277.1"/>
</g>
<!-- Node30&#45;&gt;Node22 -->
<g id="edge26" class="edge">
<title>Node30&#45;&gt;Node22</title>
<path fill="none" stroke="#63b8ff" d="M687.85,-247.73C744.04,-247.21 827.29,-246.43 884.94,-245.9"/>
<polygon fill="#63b8ff" stroke="#63b8ff" points="884.63,-249.4 894.6,-245.81 884.57,-242.4 884.63,-249.4"/>
</g>
<!-- Node30&#45;&gt;Node24 -->
<g id="edge28" class="edge">
<title>Node30&#45;&gt;Node24</title>
<path fill="none" stroke="#63b8ff" d="M669.83,-238.31C690.15,-233.57 714.65,-227.86 736.21,-222.83"/>
<polygon fill="#63b8ff" stroke="#63b8ff" points="736.76,-226.3 745.7,-220.62 735.17,-219.48 736.76,-226.3"/>
</g>
</g>
</svg>
