<?xml version="1.0" encoding="UTF-8" standalone="no"?>
<!DOCTYPE svg PUBLIC "-//W3C//DTD SVG 1.1//EN"
 "http://www.w3.org/Graphics/SVG/1.1/DTD/svg11.dtd">
<!-- Generated by graphviz version 7.0.3 (0)
 -->
<!-- Title: Urho3D::Text::GetCharPosition Pages: 1 -->
<svg width="1060pt" height="361pt"
 viewBox="0.00 0.00 1060.00 361.00" xmlns="http://www.w3.org/2000/svg" xmlns:xlink="http://www.w3.org/1999/xlink">
<g id="graph0" class="graph" transform="scale(1 1) rotate(0) translate(4 357)">
<title>Urho3D::Text::GetCharPosition</title>
<!-- Node1 -->
<g id="node1" class="node">
<title>Node1</title>
<g id="a_node1"><a xlink:title=" ">
<polygon fill="#999999" stroke="#666666" points="150,-167 0,-167 0,-148 150,-148 150,-167"/>
<text text-anchor="middle" x="75" y="-155" font-family="Roboto" font-size="10.00">Urho3D::Text::GetCharPosition</text>
</a>
</g>
</g>
<!-- Node2 -->
<g id="node2" class="node">
<title>Node2</title>
<g id="a_node2"><a xlink:href="class_urho3_d_1_1_text.html#a879bb031eccf4b070d2e0f2cfa31dc38" target="_top" xlink:title="Update cached character locations after text update, or when text alignment or indent has changed.">
<polygon fill="white" stroke="#666666" points="317,-172.5 186,-172.5 186,-142.5 317,-142.5 317,-172.5"/>
<text text-anchor="start" x="194" y="-160.5" font-family="Roboto" font-size="10.00">Urho3D::Text::UpdateChar</text>
<text text-anchor="middle" x="251.5" y="-149.5" font-family="Roboto" font-size="10.00">Locations</text>
</a>
</g>
</g>
<!-- Node1&#45;&gt;Node2 -->
<g id="edge1" class="edge">
<title>Node1&#45;&gt;Node2</title>
<path fill="none" stroke="#63b8ff" d="M150.26,-157.5C158.17,-157.5 166.23,-157.5 174.17,-157.5"/>
<polygon fill="#63b8ff" stroke="#63b8ff" points="174.17,-161 184.17,-157.5 174.17,-154 174.17,-161"/>
</g>
<!-- Node3 -->
<g id="node3" class="node">
<title>Node3</title>
<g id="a_node3"><a xlink:href="class_urho3_d_1_1_font_face.html#a4b91e47bb935a890c515f4e840217c8b" target="_top" xlink:title="Return pointer to the glyph structure corresponding to a character. Return null if glyph not found.">
<polygon fill="white" stroke="#666666" points="498.5,-314 359.5,-314 359.5,-295 498.5,-295 498.5,-314"/>
<text text-anchor="middle" x="429" y="-302" font-family="Roboto" font-size="10.00">Urho3D::FontFace::GetGlyph</text>
</a>
</g>
</g>
<!-- Node2&#45;&gt;Node3 -->
<g id="edge2" class="edge">
<title>Node2&#45;&gt;Node3</title>
<path fill="none" stroke="#63b8ff" d="M260.05,-172.98C274.26,-200.38 307.65,-257.29 353,-286.5 354.98,-287.77 357.04,-288.96 359.16,-290.06"/>
<polygon fill="#63b8ff" stroke="#63b8ff" points="357.52,-293.16 368.08,-294.01 360.35,-286.76 357.52,-293.16"/>
</g>
<!-- Node4 -->
<g id="node4" class="node">
<title>Node4</title>
<g id="a_node4"><a xlink:href="class_urho3_d_1_1_font_face.html#a7a5a7c77278cea7c12ac7ce9932d64f2" target="_top" xlink:title="Return the kerning for a character and the next character.">
<polygon fill="white" stroke="#666666" points="503,-277 355,-277 355,-258 503,-258 503,-277"/>
<text text-anchor="middle" x="429" y="-265" font-family="Roboto" font-size="10.00">Urho3D::FontFace::GetKerning</text>
</a>
</g>
</g>
<!-- Node2&#45;&gt;Node4 -->
<g id="edge3" class="edge">
<title>Node2&#45;&gt;Node4</title>
<path fill="none" stroke="#63b8ff" d="M274.57,-172.84C294.75,-186.71 325.54,-207.5 353,-224.5 368.4,-234.04 385.96,-244.14 400.2,-252.15"/>
<polygon fill="#63b8ff" stroke="#63b8ff" points="398.16,-255.02 408.6,-256.84 401.58,-248.91 398.16,-255.02"/>
</g>
<!-- Node14 -->
<g id="node14" class="node">
<title>Node14</title>
<g id="a_node14"><a xlink:href="class_urho3_d_1_1_text.html#a7f825634de0daf66485d970f2776377c" target="_top" xlink:title="Return row start X position.">
<polygon fill="white" stroke="#666666" points="496,-215.5 362,-215.5 362,-185.5 496,-185.5 496,-215.5"/>
<text text-anchor="start" x="370" y="-203.5" font-family="Roboto" font-size="10.00">Urho3D::Text::GetRowStart</text>
<text text-anchor="middle" x="429" y="-192.5" font-family="Roboto" font-size="10.00">Position</text>
</a>
</g>
</g>
<!-- Node2&#45;&gt;Node14 -->
<g id="edge14" class="edge">
<title>Node2&#45;&gt;Node14</title>
<path fill="none" stroke="#63b8ff" d="M315.36,-172.9C327.84,-175.96 341.05,-179.2 353.86,-182.33"/>
<polygon fill="#63b8ff" stroke="#63b8ff" points="352.97,-185.72 363.52,-184.7 354.64,-178.92 352.97,-185.72"/>
</g>
<!-- Node17 -->
<g id="node17" class="node">
<title>Node17</title>
<g id="a_node17"><a xlink:href="class_urho3_d_1_1_p_o_d_vector.html#ab1ba347a0118ed7d9ef79f3026153c88" target="_top" xlink:title="Return number of elements.">
<polygon fill="white" stroke="#666666" points="670.5,-143 543.5,-143 543.5,-124 670.5,-124 670.5,-143"/>
<text text-anchor="middle" x="607" y="-131" font-family="Roboto" font-size="10.00">Urho3D::PODVector::Size</text>
</a>
</g>
</g>
<!-- Node2&#45;&gt;Node17 -->
<g id="edge23" class="edge">
<title>Node2&#45;&gt;Node17</title>
<path fill="none" stroke="#63b8ff" d="M317.34,-153.1C377.98,-148.98 468.47,-142.84 531.93,-138.53"/>
<polygon fill="#63b8ff" stroke="#63b8ff" points="531.81,-142.05 541.55,-137.88 531.33,-135.06 531.81,-142.05"/>
</g>
<!-- Node18 -->
<g id="node18" class="node">
<title>Node18</title>
<g id="a_node18"><a xlink:href="class_urho3_d_1_1_font_face.html#a05b62b1e36e5d37fc20d0aad6841f748" target="_top" xlink:title="Return textures.">
<polygon fill="white" stroke="#666666" points="505,-129 353,-129 353,-110 505,-110 505,-129"/>
<text text-anchor="middle" x="429" y="-117" font-family="Roboto" font-size="10.00">Urho3D::FontFace::GetTextures</text>
</a>
</g>
</g>
<!-- Node2&#45;&gt;Node18 -->
<g id="edge18" class="edge">
<title>Node2&#45;&gt;Node18</title>
<path fill="none" stroke="#63b8ff" d="M317.35,-143.46C334.97,-139.64 353.92,-135.54 371.07,-131.83"/>
<polygon fill="#63b8ff" stroke="#63b8ff" points="371.53,-135.31 380.56,-129.77 370.05,-128.47 371.53,-135.31"/>
</g>
<!-- Node19 -->
<g id="node19" class="node">
<title>Node19</title>
<g id="a_node19"><a xlink:href="_math_defs_8h.html#abd793d352fd1907d613db417160ba530" target="_top" xlink:title=" ">
<polygon fill="white" stroke="#666666" points="470.5,-74 387.5,-74 387.5,-55 470.5,-55 470.5,-74"/>
<text text-anchor="middle" x="429" y="-62" font-family="Roboto" font-size="10.00">Urho3D::Round</text>
</a>
</g>
</g>
<!-- Node2&#45;&gt;Node19 -->
<g id="edge19" class="edge">
<title>Node2&#45;&gt;Node19</title>
<path fill="none" stroke="#63b8ff" d="M278.68,-142C298.8,-130.24 327.4,-113.88 353,-100.5 367.04,-93.16 382.81,-85.5 396.26,-79.15"/>
<polygon fill="#63b8ff" stroke="#63b8ff" points="397.53,-82.42 405.1,-75 394.56,-76.08 397.53,-82.42"/>
</g>
<!-- Node20 -->
<g id="node20" class="node">
<title>Node20</title>
<g id="a_node20"><a xlink:href="_math_defs_8h.html#a1e0439c3642fe1b9779fe2199b9d89af" target="_top" xlink:title=" ">
<polygon fill="white" stroke="#666666" points="482,-19 376,-19 376,0 482,0 482,-19"/>
<text text-anchor="middle" x="429" y="-7" font-family="Roboto" font-size="10.00">Urho3D::RoundToInt</text>
</a>
</g>
</g>
<!-- Node2&#45;&gt;Node20 -->
<g id="edge21" class="edge">
<title>Node2&#45;&gt;Node20</title>
<path fill="none" stroke="#63b8ff" d="M263.03,-142.37C279.83,-119.09 314.75,-74.18 353,-45.5 364.37,-36.97 378.09,-29.68 390.67,-23.93"/>
<polygon fill="#63b8ff" stroke="#63b8ff" points="391.73,-27.29 399.5,-20.08 388.93,-20.87 391.73,-27.29"/>
</g>
<!-- Node5 -->
<g id="node5" class="node">
<title>Node5</title>
<g id="a_node5"><a xlink:href="class_urho3_d_1_1_hash_base.html#acca34b209bda6149251edbb5a548ccc6" target="_top" xlink:title="Return whether has no elements.">
<polygon fill="white" stroke="#666666" points="673,-353 541,-353 541,-334 673,-334 673,-353"/>
<text text-anchor="middle" x="607" y="-341" font-family="Roboto" font-size="10.00">Urho3D::HashBase::Empty</text>
</a>
</g>
</g>
<!-- Node4&#45;&gt;Node5 -->
<g id="edge4" class="edge">
<title>Node4&#45;&gt;Node5</title>
<path fill="none" stroke="#63b8ff" d="M482.89,-277.37C490.55,-279.8 498.14,-282.8 505,-286.5 524.1,-296.81 522.47,-308.2 541,-319.5 547.13,-323.24 553.94,-326.54 560.78,-329.41"/>
<polygon fill="#63b8ff" stroke="#63b8ff" points="559.45,-332.65 570.04,-333 561.98,-326.12 559.45,-332.65"/>
</g>
<!-- Node6 -->
<g id="node6" class="node">
<title>Node6</title>
<g id="a_node6"><a xlink:href="class_urho3_d_1_1_hash_map.html#a47eb201d8441d4e4be8626e615cb562d" target="_top" xlink:title="Return iterator to the end.">
<polygon fill="white" stroke="#666666" points="841.5,-315 722.5,-315 722.5,-296 841.5,-296 841.5,-315"/>
<text text-anchor="middle" x="782" y="-303" font-family="Roboto" font-size="10.00">Urho3D::HashMap::End</text>
</a>
</g>
</g>
<!-- Node4&#45;&gt;Node6 -->
<g id="edge5" class="edge">
<title>Node4&#45;&gt;Node6</title>
<path fill="none" stroke="#63b8ff" d="M482.37,-277.47C500.84,-280.72 521.79,-284.1 541,-286.5 598.02,-293.62 663.01,-298.57 710.97,-301.63"/>
<polygon fill="#63b8ff" stroke="#63b8ff" points="710.45,-305.11 720.65,-302.24 710.89,-298.12 710.45,-305.11"/>
</g>
<!-- Node8 -->
<g id="node8" class="node">
<title>Node8</title>
<g id="a_node8"><a xlink:href="class_urho3_d_1_1_hash_map.html#a9dc4e5c0ad1feb3eec2d2f1f1714698d" target="_top" xlink:title="Return iterator to the pair with key, or end iterator if not found.">
<polygon fill="white" stroke="#666666" points="667.5,-277 546.5,-277 546.5,-258 667.5,-258 667.5,-277"/>
<text text-anchor="middle" x="607" y="-265" font-family="Roboto" font-size="10.00">Urho3D::HashMap::Find</text>
</a>
</g>
</g>
<!-- Node4&#45;&gt;Node8 -->
<g id="edge7" class="edge">
<title>Node4&#45;&gt;Node8</title>
<path fill="none" stroke="#63b8ff" d="M503.37,-267.5C513.71,-267.5 524.34,-267.5 534.65,-267.5"/>
<polygon fill="#63b8ff" stroke="#63b8ff" points="534.61,-271 544.61,-267.5 534.61,-264 534.61,-271"/>
</g>
<!-- Node7 -->
<g id="node7" class="node">
<title>Node7</title>
<g id="a_node7"><a xlink:href="class_urho3_d_1_1_hash_map.html#ac7ee3646e27a2a7710ab5786cb0b7c73" target="_top" xlink:title="Return the tail node.">
<polygon fill="white" stroke="#666666" points="1030,-331 913,-331 913,-312 1030,-312 1030,-331"/>
<text text-anchor="middle" x="971.5" y="-319" font-family="Roboto" font-size="10.00">Urho3D::HashMap::Tail</text>
</a>
</g>
</g>
<!-- Node6&#45;&gt;Node7 -->
<g id="edge6" class="edge">
<title>Node6&#45;&gt;Node7</title>
<path fill="none" stroke="#63b8ff" d="M841.81,-310.52C860.67,-312.13 881.72,-313.92 901.25,-315.59"/>
<polygon fill="#63b8ff" stroke="#63b8ff" points="900.77,-319.06 911.03,-316.43 901.37,-312.09 900.77,-319.06"/>
</g>
<!-- Node8&#45;&gt;Node6 -->
<g id="edge8" class="edge">
<title>Node8&#45;&gt;Node6</title>
<path fill="none" stroke="#63b8ff" d="M653.45,-277.48C675.22,-282.27 701.5,-288.04 724.54,-293.1"/>
<polygon fill="#63b8ff" stroke="#63b8ff" points="723.55,-296.47 734.07,-295.19 725.06,-289.63 723.55,-296.47"/>
</g>
<!-- Node9 -->
<g id="node9" class="node">
<title>Node9</title>
<g id="a_node9"><a xlink:href="class_urho3_d_1_1_hash_map.html#a85f871cbe77f2d780e1a169f19936ad8" target="_top" xlink:title="Find a node from the buckets. Do not call if the buckets have not been allocated.">
<polygon fill="white" stroke="#666666" points="855,-277 709,-277 709,-258 855,-258 855,-277"/>
<text text-anchor="middle" x="782" y="-265" font-family="Roboto" font-size="10.00">Urho3D::HashMap::FindNode</text>
</a>
</g>
</g>
<!-- Node8&#45;&gt;Node9 -->
<g id="edge9" class="edge">
<title>Node8&#45;&gt;Node9</title>
<path fill="none" stroke="#63b8ff" d="M667.54,-267.5C677.12,-267.5 687.2,-267.5 697.23,-267.5"/>
<polygon fill="#63b8ff" stroke="#63b8ff" points="696.99,-271 706.99,-267.5 696.99,-264 696.99,-271"/>
</g>
<!-- Node12 -->
<g id="node12" class="node">
<title>Node12</title>
<g id="a_node12"><a xlink:href="class_urho3_d_1_1_hash_map.html#a6baa78766271c323b914fd2e6ca70c66" target="_top" xlink:title="Compute a hash based on the key and the bucket size.">
<polygon fill="white" stroke="#666666" points="844.5,-229 719.5,-229 719.5,-210 844.5,-210 844.5,-229"/>
<text text-anchor="middle" x="782" y="-217" font-family="Roboto" font-size="10.00">Urho3D::HashMap::Hash</text>
</a>
</g>
</g>
<!-- Node8&#45;&gt;Node12 -->
<g id="edge12" class="edge">
<title>Node8&#45;&gt;Node12</title>
<path fill="none" stroke="#63b8ff" d="M643.85,-257.55C670.06,-250.28 705.85,-240.35 734.3,-232.46"/>
<polygon fill="#63b8ff" stroke="#63b8ff" points="735.04,-235.88 743.74,-229.84 733.17,-229.14 735.04,-235.88"/>
</g>
<!-- Node10 -->
<g id="node10" class="node">
<title>Node10</title>
<g id="a_node10"><a xlink:href="struct_urho3_d_1_1_hash_map_1_1_node.html#a5b917a49ae9df7b89215e8808db681da" target="_top" xlink:title="Return next node in the bucket.">
<polygon fill="white" stroke="#666666" points="1035,-293.5 908,-293.5 908,-263.5 1035,-263.5 1035,-293.5"/>
<text text-anchor="start" x="916" y="-281.5" font-family="Roboto" font-size="10.00">Urho3D::HashMap::Node</text>
<text text-anchor="middle" x="971.5" y="-270.5" font-family="Roboto" font-size="10.00">::Down</text>
</a>
</g>
</g>
<!-- Node9&#45;&gt;Node10 -->
<g id="edge10" class="edge">
<title>Node9&#45;&gt;Node10</title>
<path fill="none" stroke="#63b8ff" d="M855.49,-271.75C868.94,-272.54 883,-273.37 896.49,-274.16"/>
<polygon fill="#63b8ff" stroke="#63b8ff" points="895.96,-277.63 906.15,-274.72 896.37,-270.64 895.96,-277.63"/>
</g>
<!-- Node11 -->
<g id="node11" class="node">
<title>Node11</title>
<g id="a_node11"><a xlink:href="class_urho3_d_1_1_hash_base.html#ab2e9d0c50ac79b0a7eccd15b096745e9" target="_top" xlink:title="Return bucket head pointers.">
<polygon fill="white" stroke="#666666" points="1033,-245 910,-245 910,-226 1033,-226 1033,-245"/>
<text text-anchor="middle" x="971.5" y="-233" font-family="Roboto" font-size="10.00">Urho3D::HashBase::Ptrs</text>
</a>
</g>
</g>
<!-- Node9&#45;&gt;Node11 -->
<g id="edge11" class="edge">
<title>Node9&#45;&gt;Node11</title>
<path fill="none" stroke="#63b8ff" d="M841.55,-257.51C860.33,-254.3 881.3,-250.72 900.79,-247.4"/>
<polygon fill="#63b8ff" stroke="#63b8ff" points="901.31,-250.86 910.57,-245.73 900.13,-243.96 901.31,-250.86"/>
</g>
<!-- Node13 -->
<g id="node13" class="node">
<title>Node13</title>
<g id="a_node13"><a xlink:href="class_urho3_d_1_1_hash_base.html#af0f242c3642f60dc7cf69f3b7d24fa11" target="_top" xlink:title="Return number of buckets.">
<polygon fill="white" stroke="#666666" points="1052,-208 891,-208 891,-189 1052,-189 1052,-208"/>
<text text-anchor="middle" x="971.5" y="-196" font-family="Roboto" font-size="10.00">Urho3D::HashBase::NumBuckets</text>
</a>
</g>
</g>
<!-- Node12&#45;&gt;Node13 -->
<g id="edge13" class="edge">
<title>Node12&#45;&gt;Node13</title>
<path fill="none" stroke="#63b8ff" d="M844.91,-212.57C855.99,-211.33 867.74,-210.01 879.43,-208.7"/>
<polygon fill="#63b8ff" stroke="#63b8ff" points="879.54,-212.21 889.09,-207.62 878.76,-205.25 879.54,-212.21"/>
</g>
<!-- Node15 -->
<g id="node15" class="node">
<title>Node15</title>
<g id="a_node15"><a xlink:href="class_urho3_d_1_1_u_i_element.html#af0d0d929939b0fb4b8d38c7699ecdfa0" target="_top" xlink:title=" ">
<polygon fill="white" stroke="#666666" points="659.5,-239.5 554.5,-239.5 554.5,-209.5 659.5,-209.5 659.5,-239.5"/>
<text text-anchor="start" x="562.5" y="-227.5" font-family="Roboto" font-size="10.00">Urho3D::UIElement::</text>
<text text-anchor="middle" x="607" y="-216.5" font-family="Roboto" font-size="10.00">GetIndentWidth</text>
</a>
</g>
</g>
<!-- Node14&#45;&gt;Node15 -->
<g id="edge15" class="edge">
<title>Node14&#45;&gt;Node15</title>
<path fill="none" stroke="#63b8ff" d="M496.29,-209.54C511.51,-211.61 527.65,-213.82 542.74,-215.87"/>
<polygon fill="#63b8ff" stroke="#63b8ff" points="542.16,-219.33 552.54,-217.21 543.1,-212.39 542.16,-219.33"/>
</g>
<!-- Node16 -->
<g id="node16" class="node">
<title>Node16</title>
<g id="a_node16"><a xlink:href="class_urho3_d_1_1_u_i_element.html#a5eb156615aef75c2c020de6c879cfd01" target="_top" xlink:title=" ">
<polygon fill="white" stroke="#666666" points="659.5,-191.5 554.5,-191.5 554.5,-161.5 659.5,-161.5 659.5,-191.5"/>
<text text-anchor="start" x="562.5" y="-179.5" font-family="Roboto" font-size="10.00">Urho3D::UIElement::</text>
<text text-anchor="middle" x="607" y="-168.5" font-family="Roboto" font-size="10.00">GetSize</text>
</a>
</g>
</g>
<!-- Node14&#45;&gt;Node16 -->
<g id="edge16" class="edge">
<title>Node14&#45;&gt;Node16</title>
<path fill="none" stroke="#63b8ff" d="M496.29,-191.46C511.51,-189.39 527.65,-187.18 542.74,-185.13"/>
<polygon fill="#63b8ff" stroke="#63b8ff" points="543.1,-188.61 552.54,-183.79 542.16,-181.67 543.1,-188.61"/>
</g>
<!-- Node14&#45;&gt;Node17 -->
<g id="edge17" class="edge">
<title>Node14&#45;&gt;Node17</title>
<path fill="none" stroke="#63b8ff" d="M472.41,-185.09C483.14,-180.92 494.58,-176.24 505,-171.5 521.47,-164 524.23,-159.29 541,-152.5 545.92,-150.51 551.12,-148.63 556.36,-146.88"/>
<polygon fill="#63b8ff" stroke="#63b8ff" points="557.14,-150.3 565.62,-143.95 555.03,-143.63 557.14,-150.3"/>
</g>
<!-- Node19&#45;&gt;Node19 -->
<g id="edge20" class="edge">
<title>Node19&#45;&gt;Node19</title>
<path fill="none" stroke="#63b8ff" d="M401.21,-74.37C388.54,-82.94 397.8,-92 429,-92 446.55,-92 457.16,-89.13 460.83,-85.1"/>
<polygon fill="#63b8ff" stroke="#63b8ff" points="464.12,-83.91 457.32,-75.78 457.57,-86.38 464.12,-83.91"/>
</g>
<!-- Node20&#45;&gt;Node20 -->
<g id="edge22" class="edge">
<title>Node20&#45;&gt;Node20</title>
<path fill="none" stroke="#63b8ff" d="M401.21,-19.37C388.54,-27.94 397.8,-37 429,-37 446.55,-37 457.16,-34.13 460.83,-30.1"/>
<polygon fill="#63b8ff" stroke="#63b8ff" points="464.12,-28.91 457.32,-20.78 457.57,-31.38 464.12,-28.91"/>
</g>
</g>
</svg>
