<?xml version="1.0" encoding="UTF-8" standalone="no"?>
<!DOCTYPE svg PUBLIC "-//W3C//DTD SVG 1.1//EN"
 "http://www.w3.org/Graphics/SVG/1.1/DTD/svg11.dtd">
<!-- Generated by graphviz version 7.0.3 (0)
 -->
<!-- Title: Urho3D::PointOctreeQuery::TestDrawables Pages: 1 -->
<svg width="511pt" height="172pt"
 viewBox="0.00 0.00 511.00 172.00" xmlns="http://www.w3.org/2000/svg" xmlns:xlink="http://www.w3.org/1999/xlink">
<g id="graph0" class="graph" transform="scale(1 1) rotate(0) translate(4 168)">
<title>Urho3D::PointOctreeQuery::TestDrawables</title>
<!-- Node1 -->
<g id="node1" class="node">
<title>Node1</title>
<g id="a_node1"><a xlink:title="Intersection test for drawables.">
<polygon fill="#999999" stroke="#666666" points="131,-99 0,-99 0,-69 131,-69 131,-99"/>
<text text-anchor="start" x="8" y="-87" font-family="Roboto" font-size="10.00">Urho3D::PointOctreeQuery</text>
<text text-anchor="middle" x="65.5" y="-76" font-family="Roboto" font-size="10.00">::TestDrawables</text>
</a>
</g>
</g>
<!-- Node2 -->
<g id="node2" class="node">
<title>Node2</title>
<g id="a_node2"><a xlink:href="class_urho3_d_1_1_drawable.html#a74be6fab1f5cfdd44da3572015edf6ba" target="_top" xlink:title="Return drawable flags.">
<polygon fill="white" stroke="#666666" points="325,-164 170,-164 170,-134 325,-134 325,-164"/>
<text text-anchor="start" x="178" y="-152" font-family="Roboto" font-size="10.00">Urho3D::Drawable::GetDrawable</text>
<text text-anchor="middle" x="247.5" y="-141" font-family="Roboto" font-size="10.00">Flags</text>
</a>
</g>
</g>
<!-- Node1&#45;&gt;Node2 -->
<g id="edge1" class="edge">
<title>Node1&#45;&gt;Node2</title>
<path fill="none" stroke="#63b8ff" d="M102,-99.44C121.1,-107.5 145.15,-117.26 167,-125 171.92,-126.74 177.04,-128.47 182.21,-130.16"/>
<polygon fill="#63b8ff" stroke="#63b8ff" points="180.79,-133.38 191.38,-133.09 182.92,-126.71 180.79,-133.38"/>
</g>
<!-- Node3 -->
<g id="node3" class="node">
<title>Node3</title>
<g id="a_node3"><a xlink:href="class_urho3_d_1_1_drawable.html#ae45bf9bcfe8d1c09c72258e77a76f992" target="_top" xlink:title=" ">
<polygon fill="white" stroke="#666666" points="328,-115.5 167,-115.5 167,-96.5 328,-96.5 328,-115.5"/>
<text text-anchor="middle" x="247.5" y="-103.5" font-family="Roboto" font-size="10.00">Urho3D::Drawable::GetViewMask</text>
</a>
</g>
</g>
<!-- Node1&#45;&gt;Node3 -->
<g id="edge2" class="edge">
<title>Node1&#45;&gt;Node3</title>
<path fill="none" stroke="#63b8ff" d="M131.48,-91.94C139.22,-92.89 147.22,-93.87 155.24,-94.85"/>
<polygon fill="#63b8ff" stroke="#63b8ff" points="154.7,-98.31 165.05,-96.04 155.55,-91.36 154.7,-98.31"/>
</g>
<!-- Node4 -->
<g id="node4" class="node">
<title>Node4</title>
<g id="a_node4"><a xlink:href="class_urho3_d_1_1_drawable.html#a3930dc9342c0aefcfd4c94eb8079e365" target="_top" xlink:title=" ">
<polygon fill="white" stroke="#666666" points="318.5,-78 176.5,-78 176.5,-48 318.5,-48 318.5,-78"/>
<text text-anchor="start" x="184.5" y="-66" font-family="Roboto" font-size="10.00">Urho3D::Drawable::GetWorld</text>
<text text-anchor="middle" x="247.5" y="-55" font-family="Roboto" font-size="10.00">BoundingBox</text>
</a>
</g>
</g>
<!-- Node1&#45;&gt;Node4 -->
<g id="edge3" class="edge">
<title>Node1&#45;&gt;Node4</title>
<path fill="none" stroke="#63b8ff" d="M131.48,-76.42C142.36,-75.15 153.76,-73.82 164.99,-72.51"/>
<polygon fill="#63b8ff" stroke="#63b8ff" points="165.1,-76.02 174.63,-71.38 164.29,-69.07 165.1,-76.02"/>
</g>
<!-- Node6 -->
<g id="node6" class="node">
<title>Node6</title>
<g id="a_node6"><a xlink:href="class_urho3_d_1_1_bounding_box.html#a03f691b8e5e7e0a83758321c89ac7e40" target="_top" xlink:title="Test if a point is inside.">
<polygon fill="white" stroke="#666666" points="304,-30 191,-30 191,0 304,0 304,-30"/>
<text text-anchor="start" x="199" y="-18" font-family="Roboto" font-size="10.00">Urho3D::BoundingBox</text>
<text text-anchor="middle" x="247.5" y="-7" font-family="Roboto" font-size="10.00">::IsInside</text>
</a>
</g>
</g>
<!-- Node1&#45;&gt;Node6 -->
<g id="edge5" class="edge">
<title>Node1&#45;&gt;Node6</title>
<path fill="none" stroke="#63b8ff" d="M98.2,-68.55C117.77,-59.33 143.54,-47.75 167,-39 171.61,-37.28 176.4,-35.59 181.24,-33.96"/>
<polygon fill="#63b8ff" stroke="#63b8ff" points="182.03,-37.39 190.44,-30.95 179.85,-30.73 182.03,-37.39"/>
</g>
<!-- Node5 -->
<g id="node5" class="node">
<title>Node5</title>
<g id="a_node5"><a xlink:href="class_urho3_d_1_1_drawable.html#af146747caaf6fd85ab71fda4e364bde4" target="_top" xlink:title="Recalculate the world&#45;space bounding box.">
<polygon fill="white" stroke="#666666" points="503,-78 364,-78 364,-48 503,-48 503,-78"/>
<text text-anchor="start" x="372" y="-66" font-family="Roboto" font-size="10.00">Urho3D::Drawable::OnWorld</text>
<text text-anchor="middle" x="433.5" y="-55" font-family="Roboto" font-size="10.00">BoundingBoxUpdate</text>
</a>
</g>
</g>
<!-- Node4&#45;&gt;Node5 -->
<g id="edge4" class="edge">
<title>Node4&#45;&gt;Node5</title>
<path fill="none" stroke="#63b8ff" d="M318.85,-63C329.77,-63 341.12,-63 352.23,-63"/>
<polygon fill="#63b8ff" stroke="#63b8ff" points="352.19,-66.5 362.19,-63 352.19,-59.5 352.19,-66.5"/>
</g>
</g>
</svg>
