<?xml version="1.0" encoding="UTF-8" standalone="no"?>
<!DOCTYPE svg PUBLIC "-//W3C//DTD SVG 1.1//EN"
 "http://www.w3.org/Graphics/SVG/1.1/DTD/svg11.dtd">
<!-- Generated by graphviz version 7.0.3 (0)
 -->
<!-- Title: Urho3D::ScriptFile::EndLoad Pages: 1 -->
<svg width="440pt" height="113pt"
 viewBox="0.00 0.00 440.00 112.50" xmlns="http://www.w3.org/2000/svg" xmlns:xlink="http://www.w3.org/1999/xlink">
<g id="graph0" class="graph" transform="scale(1 1) rotate(0) translate(4 108.5)">
<title>Urho3D::ScriptFile::EndLoad</title>
<!-- Node1 -->
<g id="node1" class="node">
<title>Node1</title>
<g id="a_node1"><a xlink:title="Finish resource loading. Always called from the main thread. Return true if successful.">
<polygon fill="#999999" stroke="#666666" points="95,-73 0,-73 0,-43 95,-43 95,-73"/>
<text text-anchor="start" x="8" y="-61" font-family="Roboto" font-size="10.00">Urho3D::ScriptFile</text>
<text text-anchor="middle" x="47.5" y="-50" font-family="Roboto" font-size="10.00">::EndLoad</text>
</a>
</g>
</g>
<!-- Node2 -->
<g id="node2" class="node">
<title>Node2</title>
<g id="a_node2"><a xlink:href="class_urho3_d_1_1_shared_array_ptr.html#af2203f689349e6e22e78d2b7574be4e8" target="_top" xlink:title="Return the raw pointer.">
<polygon fill="white" stroke="#666666" points="273.5,-104.5 131.5,-104.5 131.5,-85.5 273.5,-85.5 273.5,-104.5"/>
<text text-anchor="middle" x="202.5" y="-92.5" font-family="Roboto" font-size="10.00">Urho3D::SharedArrayPtr::Get</text>
</a>
</g>
</g>
<!-- Node1&#45;&gt;Node2 -->
<g id="edge1" class="edge">
<title>Node1&#45;&gt;Node2</title>
<path fill="none" stroke="#63b8ff" d="M95.24,-69.3C112.25,-73.42 131.59,-78.09 149.06,-82.32"/>
<polygon fill="#63b8ff" stroke="#63b8ff" points="148.22,-85.72 158.76,-84.67 149.87,-78.91 148.22,-85.72"/>
</g>
<!-- Node3 -->
<g id="node3" class="node">
<title>Node3</title>
<g id="a_node3"><a xlink:href="class_urho3_d_1_1_resource.html#aa6fcd2703fb5cb0e1cb6bb57b9590599" target="_top" xlink:title=" ">
<polygon fill="white" stroke="#666666" points="274,-67.5 131,-67.5 131,-48.5 274,-48.5 274,-67.5"/>
<text text-anchor="middle" x="202.5" y="-55.5" font-family="Roboto" font-size="10.00">Urho3D::Resource::GetName</text>
</a>
</g>
</g>
<!-- Node1&#45;&gt;Node3 -->
<g id="edge2" class="edge">
<title>Node1&#45;&gt;Node3</title>
<path fill="none" stroke="#63b8ff" d="M95.24,-58C102.91,-58 111.06,-58 119.29,-58"/>
<polygon fill="#63b8ff" stroke="#63b8ff" points="119.03,-61.5 129.03,-58 119.03,-54.5 119.03,-61.5"/>
</g>
<!-- Node4 -->
<g id="node4" class="node">
<title>Node4</title>
<g id="a_node4"><a xlink:href="class_urho3_d_1_1_shared_array_ptr.html#a5f621b62e29d89c1d29f1c2089932bd5" target="_top" xlink:title="Reset to null and release the array reference.">
<polygon fill="white" stroke="#666666" points="263.5,-30 141.5,-30 141.5,0 263.5,0 263.5,-30"/>
<text text-anchor="start" x="149.5" y="-18" font-family="Roboto" font-size="10.00">Urho3D::SharedArrayPtr</text>
<text text-anchor="middle" x="202.5" y="-7" font-family="Roboto" font-size="10.00">::Reset</text>
</a>
</g>
</g>
<!-- Node1&#45;&gt;Node4 -->
<g id="edge3" class="edge">
<title>Node1&#45;&gt;Node4</title>
<path fill="none" stroke="#63b8ff" d="M95.24,-44.86C108,-41.28 122.06,-37.33 135.67,-33.5"/>
<polygon fill="#63b8ff" stroke="#63b8ff" points="136.32,-36.96 145,-30.88 134.42,-30.22 136.32,-36.96"/>
</g>
<!-- Node5 -->
<g id="node5" class="node">
<title>Node5</title>
<g id="a_node5"><a xlink:href="class_urho3_d_1_1_shared_array_ptr.html#a4fe651dd5116bb958bd304858c5f3a35" target="_top" xlink:title="Release the array reference and delete it and the RefCount structure if necessary.">
<polygon fill="white" stroke="#666666" points="432,-30 310,-30 310,0 432,0 432,-30"/>
<text text-anchor="start" x="318" y="-18" font-family="Roboto" font-size="10.00">Urho3D::SharedArrayPtr</text>
<text text-anchor="middle" x="371" y="-7" font-family="Roboto" font-size="10.00">::ReleaseRef</text>
</a>
</g>
</g>
<!-- Node4&#45;&gt;Node5 -->
<g id="edge4" class="edge">
<title>Node4&#45;&gt;Node5</title>
<path fill="none" stroke="#63b8ff" d="M263.61,-15C274.86,-15 286.72,-15 298.28,-15"/>
<polygon fill="#63b8ff" stroke="#63b8ff" points="298.18,-18.5 308.18,-15 298.18,-11.5 298.18,-18.5"/>
</g>
</g>
</svg>
