<?xml version="1.0" encoding="UTF-8" standalone="no"?>
<!DOCTYPE svg PUBLIC "-//W3C//DTD SVG 1.1//EN"
 "http://www.w3.org/Graphics/SVG/1.1/DTD/svg11.dtd">
<!-- Generated by graphviz version 7.0.3 (0)
 -->
<!-- Title: Urho3D::Animation::CreateTrack Pages: 1 -->
<svg width="392pt" height="38pt"
 viewBox="0.00 0.00 392.00 38.00" xmlns="http://www.w3.org/2000/svg" xmlns:xlink="http://www.w3.org/1999/xlink">
<g id="graph0" class="graph" transform="scale(1 1) rotate(0) translate(4 34)">
<title>Urho3D::Animation::CreateTrack</title>
<!-- Node1 -->
<g id="node1" class="node">
<title>Node1</title>
<g id="a_node1"><a xlink:title="Create and return a track by name. If track by same name already exists, returns the existing.">
<polygon fill="#999999" stroke="#666666" points="104,-30 0,-30 0,0 104,0 104,-30"/>
<text text-anchor="start" x="8" y="-18" font-family="Roboto" font-size="10.00">Urho3D::Animation::</text>
<text text-anchor="middle" x="52" y="-7" font-family="Roboto" font-size="10.00">CreateTrack</text>
</a>
</g>
</g>
<!-- Node2 -->
<g id="node2" class="node">
<title>Node2</title>
<g id="a_node2"><a xlink:href="class_urho3_d_1_1_animation.html#a85ea89da6cbc133a83ce8a4ceec6871d" target="_top" xlink:title="Return animation track by index.">
<polygon fill="white" stroke="#666666" points="244,-30 140,-30 140,0 244,0 244,-30"/>
<text text-anchor="start" x="148" y="-18" font-family="Roboto" font-size="10.00">Urho3D::Animation::</text>
<text text-anchor="middle" x="192" y="-7" font-family="Roboto" font-size="10.00">GetTrack</text>
</a>
</g>
</g>
<!-- Node1&#45;&gt;Node2 -->
<g id="edge1" class="edge">
<title>Node1&#45;&gt;Node2</title>
<path fill="none" stroke="#63b8ff" d="M104.39,-15C112.11,-15 120.15,-15 128.08,-15"/>
<polygon fill="#63b8ff" stroke="#63b8ff" points="128.06,-18.5 138.06,-15 128.06,-11.5 128.06,-18.5"/>
</g>
<!-- Node3 -->
<g id="node3" class="node">
<title>Node3</title>
<g id="a_node3"><a xlink:href="class_urho3_d_1_1_animation.html#a6909ab9d482eaa6a5ba3cd7829928263" target="_top" xlink:title=" ">
<polygon fill="white" stroke="#666666" points="384,-30 280,-30 280,0 384,0 384,-30"/>
<text text-anchor="start" x="288" y="-18" font-family="Roboto" font-size="10.00">Urho3D::Animation::</text>
<text text-anchor="middle" x="332" y="-7" font-family="Roboto" font-size="10.00">GetNumTracks</text>
</a>
</g>
</g>
<!-- Node2&#45;&gt;Node3 -->
<g id="edge2" class="edge">
<title>Node2&#45;&gt;Node3</title>
<path fill="none" stroke="#63b8ff" d="M244.39,-15C252.11,-15 260.15,-15 268.08,-15"/>
<polygon fill="#63b8ff" stroke="#63b8ff" points="268.06,-18.5 278.06,-15 268.06,-11.5 268.06,-18.5"/>
</g>
</g>
</svg>
