<?xml version="1.0" encoding="UTF-8" standalone="no"?>
<!DOCTYPE svg PUBLIC "-//W3C//DTD SVG 1.1//EN"
 "http://www.w3.org/Graphics/SVG/1.1/DTD/svg11.dtd">
<!-- Generated by graphviz version 7.0.3 (0)
 -->
<!-- Title: Urho3D::Renderer::GetNumGeometries Pages: 1 -->
<svg width="526pt" height="64pt"
 viewBox="0.00 0.00 526.00 64.00" xmlns="http://www.w3.org/2000/svg" xmlns:xlink="http://www.w3.org/1999/xlink">
<g id="graph0" class="graph" transform="scale(1 1) rotate(0) translate(4 60)">
<title>Urho3D::Renderer::GetNumGeometries</title>
<!-- Node1 -->
<g id="node1" class="node">
<title>Node1</title>
<g id="a_node1"><a xlink:title=" ">
<polygon fill="#999999" stroke="#666666" points="136,-42.5 0,-42.5 0,-12.5 136,-12.5 136,-42.5"/>
<text text-anchor="start" x="8" y="-30.5" font-family="Roboto" font-size="10.00">Urho3D::Renderer::GetNum</text>
<text text-anchor="middle" x="68" y="-19.5" font-family="Roboto" font-size="10.00">Geometries</text>
</a>
</g>
</g>
<!-- Node2 -->
<g id="node2" class="node">
<title>Node2</title>
<g id="a_node2"><a xlink:href="class_urho3_d_1_1_renderer.html#ac5cf9622733d9268d4ce4584cd63fd22" target="_top" xlink:title="Return a view or its source view if it uses one. Used internally for render statistics.">
<polygon fill="white" stroke="#666666" points="335,-56 172,-56 172,-37 335,-37 335,-56"/>
<text text-anchor="middle" x="253.5" y="-44" font-family="Roboto" font-size="10.00">Urho3D::Renderer::GetActualView</text>
</a>
</g>
</g>
<!-- Node1&#45;&gt;Node2 -->
<g id="edge1" class="edge">
<title>Node1&#45;&gt;Node2</title>
<path fill="none" stroke="#63b8ff" d="M136.29,-34.47C144.07,-35.27 152.11,-36.11 160.16,-36.94"/>
<polygon fill="#63b8ff" stroke="#63b8ff" points="159.7,-40.41 170.01,-37.96 160.42,-33.45 159.7,-40.41"/>
</g>
<!-- Node4 -->
<g id="node4" class="node">
<title>Node4</title>
<g id="a_node4"><a xlink:href="class_urho3_d_1_1_view.html#a0693971e60420e7326db61e61db92e4a" target="_top" xlink:title="Return geometry objects.">
<polygon fill="white" stroke="#666666" points="327,-19 180,-19 180,0 327,0 327,-19"/>
<text text-anchor="middle" x="253.5" y="-7" font-family="Roboto" font-size="10.00">Urho3D::View::GetGeometries</text>
</a>
</g>
</g>
<!-- Node1&#45;&gt;Node4 -->
<g id="edge3" class="edge">
<title>Node1&#45;&gt;Node4</title>
<path fill="none" stroke="#63b8ff" d="M136.29,-20.9C146.76,-19.87 157.7,-18.8 168.49,-17.74"/>
<polygon fill="#63b8ff" stroke="#63b8ff" points="168.54,-21.25 178.15,-16.79 167.86,-14.29 168.54,-21.25"/>
</g>
<!-- Node3 -->
<g id="node3" class="node">
<title>Node3</title>
<g id="a_node3"><a xlink:href="class_urho3_d_1_1_view.html#a955d10793eea1987532076996f6e2f95" target="_top" xlink:title="Return the source view that was already prepared. Used when viewports specify the same culling camera...">
<polygon fill="white" stroke="#666666" points="518,-56 371,-56 371,-37 518,-37 518,-56"/>
<text text-anchor="middle" x="444.5" y="-44" font-family="Roboto" font-size="10.00">Urho3D::View::GetSourceView</text>
</a>
</g>
</g>
<!-- Node2&#45;&gt;Node3 -->
<g id="edge2" class="edge">
<title>Node2&#45;&gt;Node3</title>
<path fill="none" stroke="#63b8ff" d="M335.48,-46.5C343.35,-46.5 351.36,-46.5 359.26,-46.5"/>
<polygon fill="#63b8ff" stroke="#63b8ff" points="359.24,-50 369.24,-46.5 359.24,-43 359.24,-50"/>
</g>
</g>
</svg>
