<?xml version="1.0" encoding="UTF-8" standalone="no"?>
<!DOCTYPE svg PUBLIC "-//W3C//DTD SVG 1.1//EN"
 "http://www.w3.org/Graphics/SVG/1.1/DTD/svg11.dtd">
<!-- Generated by graphviz version 7.0.3 (0)
 -->
<!-- Title: Urho3D::ParticleEmitter::SetAutoRemoveMode Pages: 1 -->
<svg width="645pt" height="152pt"
 viewBox="0.00 0.00 645.00 152.00" xmlns="http://www.w3.org/2000/svg" xmlns:xlink="http://www.w3.org/1999/xlink">
<g id="graph0" class="graph" transform="scale(1 1) rotate(0) translate(4 148)">
<title>Urho3D::ParticleEmitter::SetAutoRemoveMode</title>
<!-- Node1 -->
<g id="node1" class="node">
<title>Node1</title>
<g id="a_node1"><a xlink:title=" ">
<polygon fill="#999999" stroke="#666666" points="120,-96 0,-96 0,-66 120,-66 120,-96"/>
<text text-anchor="start" x="8" y="-84" font-family="Roboto" font-size="10.00">Urho3D::ParticleEmitter</text>
<text text-anchor="middle" x="60" y="-73" font-family="Roboto" font-size="10.00">::SetAutoRemoveMode</text>
</a>
</g>
</g>
<!-- Node2 -->
<g id="node2" class="node">
<title>Node2</title>
<g id="a_node2"><a xlink:href="class_urho3_d_1_1_component.html#aaf87acb64001774c62f0784254f9b291" target="_top" xlink:title="Mark for attribute check on the next network update.">
<polygon fill="white" stroke="#666666" points="267,-96 156,-96 156,-66 267,-66 267,-96"/>
<text text-anchor="start" x="164" y="-84" font-family="Roboto" font-size="10.00">Urho3D::Component::</text>
<text text-anchor="middle" x="211.5" y="-73" font-family="Roboto" font-size="10.00">MarkNetworkUpdate</text>
</a>
</g>
</g>
<!-- Node1&#45;&gt;Node2 -->
<g id="edge1" class="edge">
<title>Node1&#45;&gt;Node2</title>
<path fill="none" stroke="#63b8ff" d="M120.09,-81C128.07,-81 136.31,-81 144.41,-81"/>
<polygon fill="#63b8ff" stroke="#63b8ff" points="144.22,-84.5 154.22,-81 144.22,-77.5 144.22,-84.5"/>
</g>
<!-- Node3 -->
<g id="node3" class="node">
<title>Node3</title>
<g id="a_node3"><a xlink:href="class_urho3_d_1_1_component.html#a2c22f727341671a0420934f249ffe059" target="_top" xlink:title="Return the scene the node belongs to.">
<polygon fill="white" stroke="#666666" points="432.5,-144 321.5,-144 321.5,-114 432.5,-114 432.5,-144"/>
<text text-anchor="start" x="329.5" y="-132" font-family="Roboto" font-size="10.00">Urho3D::Component::</text>
<text text-anchor="middle" x="377" y="-121" font-family="Roboto" font-size="10.00">GetScene</text>
</a>
</g>
</g>
<!-- Node2&#45;&gt;Node3 -->
<g id="edge2" class="edge">
<title>Node2&#45;&gt;Node3</title>
<path fill="none" stroke="#63b8ff" d="M265.13,-96.45C280.3,-100.91 297.01,-105.81 312.75,-110.43"/>
<polygon fill="#63b8ff" stroke="#63b8ff" points="311.43,-113.69 322.01,-113.15 313.4,-106.98 311.43,-113.69"/>
</g>
<!-- Node5 -->
<g id="node5" class="node">
<title>Node5</title>
<g id="a_node5"><a xlink:href="class_urho3_d_1_1_component.html#a8f1388c232ca01b7c7328c761aae6e76" target="_top" xlink:title=" ">
<polygon fill="white" stroke="#666666" points="432.5,-96 321.5,-96 321.5,-66 432.5,-66 432.5,-96"/>
<text text-anchor="start" x="329.5" y="-84" font-family="Roboto" font-size="10.00">Urho3D::Component::</text>
<text text-anchor="middle" x="377" y="-73" font-family="Roboto" font-size="10.00">IsReplicated</text>
</a>
</g>
</g>
<!-- Node2&#45;&gt;Node5 -->
<g id="edge4" class="edge">
<title>Node2&#45;&gt;Node5</title>
<path fill="none" stroke="#63b8ff" d="M267.4,-81C281.09,-81 295.91,-81 310.07,-81"/>
<polygon fill="#63b8ff" stroke="#63b8ff" points="309.73,-84.5 319.73,-81 309.73,-77.5 309.73,-84.5"/>
</g>
<!-- Node7 -->
<g id="node7" class="node">
<title>Node7</title>
<g id="a_node7"><a xlink:href="class_urho3_d_1_1_scene.html#a00b724dfff718639b9de12d71139499c" target="_top" xlink:title="Mark for attribute check on the next network update.">
<polygon fill="white" stroke="#666666" points="451,-30 303,-30 303,0 451,0 451,-30"/>
<text text-anchor="start" x="311" y="-18" font-family="Roboto" font-size="10.00">Urho3D::Scene::MarkNetwork</text>
<text text-anchor="middle" x="377" y="-7" font-family="Roboto" font-size="10.00">Update</text>
</a>
</g>
</g>
<!-- Node2&#45;&gt;Node7 -->
<g id="edge6" class="edge">
<title>Node2&#45;&gt;Node7</title>
<path fill="none" stroke="#63b8ff" d="M250.83,-65.53C273.61,-56.33 302.72,-44.58 327.13,-34.73"/>
<polygon fill="#63b8ff" stroke="#63b8ff" points="328.26,-38.05 336.22,-31.06 325.64,-31.56 328.26,-38.05"/>
</g>
<!-- Node4 -->
<g id="node4" class="node">
<title>Node4</title>
<g id="a_node4"><a xlink:href="class_urho3_d_1_1_node.html#ad3742cda838a2b291daa44d3ab00de56" target="_top" xlink:title=" ">
<polygon fill="white" stroke="#666666" points="625,-138.5 499,-138.5 499,-119.5 625,-119.5 625,-138.5"/>
<text text-anchor="middle" x="562" y="-126.5" font-family="Roboto" font-size="10.00">Urho3D::Node::GetScene</text>
</a>
</g>
</g>
<!-- Node3&#45;&gt;Node4 -->
<g id="edge3" class="edge">
<title>Node3&#45;&gt;Node4</title>
<path fill="none" stroke="#63b8ff" d="M432.91,-129C450,-129 469.14,-129 487.3,-129"/>
<polygon fill="#63b8ff" stroke="#63b8ff" points="487.24,-132.5 497.24,-129 487.24,-125.5 487.24,-132.5"/>
</g>
<!-- Node6 -->
<g id="node6" class="node">
<title>Node6</title>
<g id="a_node6"><a xlink:href="class_urho3_d_1_1_scene.html#a97fb1222bd2f38e6c1c433c0b7e54d40" target="_top" xlink:title="Return whether the specified id is a replicated id.">
<polygon fill="white" stroke="#666666" points="637,-90.5 487,-90.5 487,-71.5 637,-71.5 637,-90.5"/>
<text text-anchor="middle" x="562" y="-78.5" font-family="Roboto" font-size="10.00">Urho3D::Scene::IsReplicatedID</text>
</a>
</g>
</g>
<!-- Node5&#45;&gt;Node6 -->
<g id="edge5" class="edge">
<title>Node5&#45;&gt;Node6</title>
<path fill="none" stroke="#63b8ff" d="M432.91,-81C446.2,-81 460.72,-81 475.07,-81"/>
<polygon fill="#63b8ff" stroke="#63b8ff" points="474.99,-84.5 484.99,-81 474.99,-77.5 474.99,-84.5"/>
</g>
<!-- Node7&#45;&gt;Node7 -->
<g id="edge7" class="edge">
<title>Node7&#45;&gt;Node7</title>
<path fill="none" stroke="#63b8ff" d="M347.91,-30.28C341.44,-39.41 351.14,-48 377,-48 391.14,-48 400.45,-45.43 404.92,-41.61"/>
<polygon fill="#63b8ff" stroke="#63b8ff" points="408.39,-42.09 405.94,-31.78 401.43,-41.37 408.39,-42.09"/>
</g>
</g>
</svg>
