<?xml version="1.0" encoding="UTF-8" standalone="no"?>
<!DOCTYPE svg PUBLIC "-//W3C//DTD SVG 1.1//EN"
 "http://www.w3.org/Graphics/SVG/1.1/DTD/svg11.dtd">
<!-- Generated by graphviz version 7.0.3 (0)
 -->
<!-- Title: Urho3D::IndexBuffer Pages: 1 -->
<svg width="1526pt" height="851pt"
 viewBox="0.00 0.00 1526.00 851.00" xmlns="http://www.w3.org/2000/svg" xmlns:xlink="http://www.w3.org/1999/xlink">
<g id="graph0" class="graph" transform="scale(1 1) rotate(0) translate(4 847)">
<title>Urho3D::IndexBuffer</title>
<!-- Node1 -->
<g id="node1" class="node">
<title>Node1</title>
<g id="a_node1"><a xlink:title="Hardware index buffer.">
<polygon fill="#999999" stroke="#666666" points="819,-788.5 712,-788.5 712,-769.5 819,-769.5 819,-788.5"/>
<text text-anchor="middle" x="765.5" y="-776.5" font-family="Roboto" font-size="10.00">Urho3D::IndexBuffer</text>
</a>
</g>
</g>
<!-- Node26 -->
<g id="node23" class="node">
<title>Node26</title>
<g id="a_node23"><a xlink:href="class_urho3_d_1_1_graphics.html" target="_top" xlink:title="Graphics subsystem. Manages the application window, rendering state and GPU resources.">
<polygon fill="#fff0f0" stroke="red" points="1129.5,-760.5 1036.5,-760.5 1036.5,-741.5 1129.5,-741.5 1129.5,-760.5"/>
<text text-anchor="middle" x="1083" y="-748.5" font-family="Roboto" font-size="10.00">Urho3D::Graphics</text>
</a>
</g>
</g>
<!-- Node1&#45;&gt;Node26 -->
<g id="edge36" class="edge">
<title>Node1&#45;&gt;Node26</title>
<path fill="none" stroke="#9a32cd" stroke-dasharray="5,2" d="M830.73,-773.3C891.8,-767.88 982.12,-759.86 1036.21,-755.06"/>
<polygon fill="#9a32cd" stroke="#9a32cd" points="830.47,-769.81 820.82,-774.18 831.09,-776.78 830.47,-769.81"/>
<text text-anchor="middle" x="947.5" y="-770" font-family="Roboto" font-size="10.00"> indexBuffer_</text>
</g>
<!-- Node2 -->
<g id="node2" class="node">
<title>Node2</title>
<g id="a_node2"><a xlink:href="class_urho3_d_1_1_object.html" target="_top" xlink:title=" ">
<polygon fill="white" stroke="#666666" points="547,-710.5 464,-710.5 464,-691.5 547,-691.5 547,-710.5"/>
<text text-anchor="middle" x="505.5" y="-698.5" font-family="Roboto" font-size="10.00">Urho3D::Object</text>
</a>
</g>
</g>
<!-- Node2&#45;&gt;Node1 -->
<g id="edge1" class="edge">
<title>Node2&#45;&gt;Node1</title>
<path fill="none" stroke="#63b8ff" d="M529.67,-716.85C545.02,-726.65 565.95,-738.71 586,-746 626.87,-760.87 675.55,-769.3 711.74,-773.91"/>
<polygon fill="#63b8ff" stroke="#63b8ff" points="532,-714.2 521.72,-711.64 528.16,-720.05 532,-714.2"/>
</g>
<!-- Node18 -->
<g id="node15" class="node">
<title>Node18</title>
<g id="a_node15"><a xlink:href="class_urho3_d_1_1_event_handler.html" target="_top" xlink:title="Internal helper class for invoking event handler functions.">
<polygon fill="white" stroke="#666666" points="822,-604.5 709,-604.5 709,-585.5 822,-585.5 822,-604.5"/>
<text text-anchor="middle" x="765.5" y="-592.5" font-family="Roboto" font-size="10.00">Urho3D::EventHandler</text>
</a>
</g>
</g>
<!-- Node2&#45;&gt;Node18 -->
<g id="edge23" class="edge">
<title>Node2&#45;&gt;Node18</title>
<path fill="none" stroke="#9a32cd" stroke-dasharray="5,2" d="M557.78,-690.39C561.5,-688.34 564.97,-685.9 568,-683 585.96,-665.79 567.27,-646.38 586,-630 604.01,-614.25 663.22,-604.89 708.55,-599.86"/>
<polygon fill="#9a32cd" stroke="#9a32cd" points="556.6,-687.08 548.88,-694.33 559.44,-693.48 556.6,-687.08"/>
<text text-anchor="middle" x="611.5" y="-644" font-family="Roboto" font-size="10.00"> receiver_</text>
<text text-anchor="middle" x="611.5" y="-633" font-family="Roboto" font-size="10.00">sender_</text>
</g>
<!-- Node2&#45;&gt;Node26 -->
<g id="edge35" class="edge">
<title>Node2&#45;&gt;Node26</title>
<path fill="none" stroke="#63b8ff" d="M558.7,-705.54C670.29,-715.23 930.48,-737.84 1036.15,-747.02"/>
<polygon fill="#63b8ff" stroke="#63b8ff" points="559.2,-702.07 548.94,-704.69 558.59,-709.04 559.2,-702.07"/>
</g>
<!-- Node3 -->
<g id="node3" class="node">
<title>Node3</title>
<g id="a_node3"><a xlink:href="class_urho3_d_1_1_ref_counted.html" target="_top" xlink:title="Base class for intrusively reference&#45;counted objects. These are noncopyable and non&#45;assignable.">
<polygon fill="white" stroke="#666666" points="285,-710.5 178,-710.5 178,-691.5 285,-691.5 285,-710.5"/>
<text text-anchor="middle" x="231.5" y="-698.5" font-family="Roboto" font-size="10.00">Urho3D::RefCounted</text>
</a>
</g>
</g>
<!-- Node3&#45;&gt;Node2 -->
<g id="edge2" class="edge">
<title>Node3&#45;&gt;Node2</title>
<path fill="none" stroke="#63b8ff" d="M296.66,-701C348.41,-701 419.64,-701 463.84,-701"/>
<polygon fill="#63b8ff" stroke="#63b8ff" points="296.78,-697.5 286.78,-701 296.78,-704.5 296.78,-697.5"/>
</g>
<!-- Node5 -->
<g id="node5" class="node">
<title>Node5</title>
<g id="a_node5"><a xlink:href="class_urho3_d_1_1_context.html" target="_top" xlink:title="Urho3D execution context. Provides access to subsystems, object factories and attributes,...">
<polygon fill="white" stroke="#666666" points="1127.5,-360.5 1038.5,-360.5 1038.5,-341.5 1127.5,-341.5 1127.5,-360.5"/>
<text text-anchor="middle" x="1083" y="-348.5" font-family="Roboto" font-size="10.00">Urho3D::Context</text>
</a>
</g>
</g>
<!-- Node3&#45;&gt;Node5 -->
<g id="edge5" class="edge">
<title>Node3&#45;&gt;Node5</title>
<path fill="none" stroke="#63b8ff" d="M249.8,-683.43C283.48,-650.51 361.7,-580.13 443,-550 677.22,-463.2 798.32,-628.98 1001,-483 1045.73,-450.79 1070.76,-385.52 1078.96,-360.79"/>
<polygon fill="#63b8ff" stroke="#63b8ff" points="247.57,-680.71 242.94,-690.24 252.51,-685.68 247.57,-680.71"/>
</g>
<!-- Node4 -->
<g id="node4" class="node">
<title>Node4</title>
<g id="a_node4"><a xlink:href="struct_urho3_d_1_1_ref_count.html" target="_top" xlink:title="Reference count structure.">
<polygon fill="white" stroke="#666666" points="96,-794.5 0,-794.5 0,-775.5 96,-775.5 96,-794.5"/>
<text text-anchor="middle" x="48" y="-782.5" font-family="Roboto" font-size="10.00">Urho3D::RefCount</text>
</a>
</g>
</g>
<!-- Node4&#45;&gt;Node3 -->
<g id="edge3" class="edge">
<title>Node4&#45;&gt;Node3</title>
<path fill="none" stroke="#9a32cd" stroke-dasharray="5,2" d="M78,-769.83C89.18,-764.1 102.12,-757.61 114,-752 145.74,-737.01 183,-720.97 206.67,-710.96"/>
<polygon fill="#9a32cd" stroke="#9a32cd" points="76.54,-766.65 69.26,-774.34 79.75,-772.87 76.54,-766.65"/>
<text text-anchor="middle" x="137" y="-755" font-family="Roboto" font-size="10.00"> refCount_</text>
</g>
<!-- Node25 -->
<g id="node22" class="node">
<title>Node25</title>
<g id="a_node22"><a xlink:href="class_urho3_d_1_1_weak_ptr.html" target="_top" xlink:title=" ">
<polygon fill="white" stroke="#666666" points="1336,-766 1202,-766 1202,-736 1336,-736 1336,-766"/>
<text text-anchor="start" x="1210" y="-754" font-family="Roboto" font-size="10.00">Urho3D::WeakPtr&lt; Urho3D</text>
<text text-anchor="middle" x="1269" y="-743" font-family="Roboto" font-size="10.00">::Graphics &gt;</text>
</a>
</g>
</g>
<!-- Node4&#45;&gt;Node25 -->
<g id="edge37" class="edge">
<title>Node4&#45;&gt;Node25</title>
<path fill="none" stroke="#9a32cd" stroke-dasharray="5,2" d="M82.37,-799.07C118.28,-812.92 177.4,-832 230.5,-832 230.5,-832 230.5,-832 1084,-832 1148.4,-832 1215.54,-789.93 1248.03,-766.43"/>
<polygon fill="#9a32cd" stroke="#9a32cd" points="83.99,-795.95 73.41,-795.52 81.42,-802.46 83.99,-795.95"/>
<text text-anchor="middle" x="611.5" y="-835" font-family="Roboto" font-size="10.00"> refCount_</text>
</g>
<!-- Node33 -->
<g id="node25" class="node">
<title>Node33</title>
<g id="a_node25"><a xlink:href="class_urho3_d_1_1_shared_array_ptr.html" target="_top" xlink:title=" ">
<polygon fill="white" stroke="#666666" points="425,-800 303,-800 303,-770 425,-770 425,-800"/>
<text text-anchor="start" x="311" y="-788" font-family="Roboto" font-size="10.00">Urho3D::SharedArrayPtr</text>
<text text-anchor="middle" x="364" y="-777" font-family="Roboto" font-size="10.00">&lt; unsigned char &gt;</text>
</a>
</g>
</g>
<!-- Node4&#45;&gt;Node33 -->
<g id="edge40" class="edge">
<title>Node4&#45;&gt;Node33</title>
<path fill="none" stroke="#9a32cd" stroke-dasharray="5,2" d="M107.78,-785C163.39,-785 246.47,-785 302.6,-785"/>
<polygon fill="#9a32cd" stroke="#9a32cd" points="107.86,-781.5 97.86,-785 107.86,-788.5 107.86,-781.5"/>
<text text-anchor="middle" x="137" y="-788" font-family="Roboto" font-size="10.00"> refCount_</text>
</g>
<!-- Node5&#45;&gt;Node2 -->
<g id="edge4" class="edge">
<title>Node5&#45;&gt;Node2</title>
<path fill="none" stroke="#9a32cd" stroke-dasharray="5,2" d="M1079.09,-372.25C1070.42,-432.3 1042.7,-601.1 1001,-635 971.09,-659.31 692.98,-653.45 655,-660 643.73,-661.94 581.26,-679.58 541.02,-691.08"/>
<polygon fill="#9a32cd" stroke="#9a32cd" points="1082.55,-372.77 1080.48,-362.38 1075.62,-371.8 1082.55,-372.77"/>
<text text-anchor="middle" x="765.5" y="-663" font-family="Roboto" font-size="10.00"> context_</text>
</g>
<!-- Node6 -->
<g id="node6" class="node">
<title>Node6</title>
<g id="a_node6"><a xlink:href="class_urho3_d_1_1_hash_map.html" target="_top" xlink:title=" ">
<polygon fill="white" stroke="#666666" points="856.5,-229.5 674.5,-229.5 674.5,-188.5 856.5,-188.5 856.5,-229.5"/>
<text text-anchor="start" x="682.5" y="-217.5" font-family="Roboto" font-size="10.00">Urho3D::HashMap&lt; Urho3D</text>
<text text-anchor="start" x="682.5" y="-206.5" font-family="Roboto" font-size="10.00">::StringHash, Urho3D::</text>
<text text-anchor="middle" x="765.5" y="-195.5" font-family="Roboto" font-size="10.00">SharedPtr&lt; Urho3D::ObjectFactory &gt; &gt;</text>
</a>
</g>
</g>
<!-- Node6&#45;&gt;Node5 -->
<g id="edge6" class="edge">
<title>Node6&#45;&gt;Node5</title>
<path fill="none" stroke="#9a32cd" stroke-dasharray="5,2" d="M867.88,-227.22C910.83,-237.71 960.25,-253.6 1001,-277 1031.56,-294.55 1060.25,-325.38 1073.82,-341.13"/>
<polygon fill="#9a32cd" stroke="#9a32cd" points="868.83,-223.85 858.29,-224.95 867.21,-230.66 868.83,-223.85"/>
<text text-anchor="middle" x="947.5" y="-280" font-family="Roboto" font-size="10.00"> factories_</text>
</g>
<!-- Node7 -->
<g id="node7" class="node">
<title>Node7</title>
<g id="a_node7"><a xlink:href="class_urho3_d_1_1_hash_base.html" target="_top" xlink:title="Hash set/map base class.">
<polygon fill="#fff0f0" stroke="red" points="555.5,-218.5 455.5,-218.5 455.5,-199.5 555.5,-199.5 555.5,-218.5"/>
<text text-anchor="middle" x="505.5" y="-206.5" font-family="Roboto" font-size="10.00">Urho3D::HashBase</text>
</a>
</g>
</g>
<!-- Node7&#45;&gt;Node6 -->
<g id="edge7" class="edge">
<title>Node7&#45;&gt;Node6</title>
<path fill="none" stroke="#63b8ff" d="M567.31,-209C599.18,-209 638.85,-209 674.23,-209"/>
<polygon fill="#63b8ff" stroke="#63b8ff" points="567.45,-205.5 557.45,-209 567.45,-212.5 567.45,-205.5"/>
</g>
<!-- Node11 -->
<g id="node8" class="node">
<title>Node11</title>
<g id="a_node8"><a xlink:href="class_urho3_d_1_1_hash_map.html" target="_top" xlink:title=" ">
<polygon fill="white" stroke="#666666" points="840,-170.5 691,-170.5 691,-129.5 840,-129.5 840,-170.5"/>
<text text-anchor="start" x="699" y="-158.5" font-family="Roboto" font-size="10.00">Urho3D::HashMap&lt; Urho3D</text>
<text text-anchor="start" x="699" y="-147.5" font-family="Roboto" font-size="10.00">::StringHash, Urho3D::</text>
<text text-anchor="middle" x="765.5" y="-136.5" font-family="Roboto" font-size="10.00">SharedPtr&lt; Urho3D::Object &gt; &gt;</text>
</a>
</g>
</g>
<!-- Node7&#45;&gt;Node11 -->
<g id="edge9" class="edge">
<title>Node7&#45;&gt;Node11</title>
<path fill="none" stroke="#63b8ff" d="M560.75,-196.59C598.51,-187.96 649.31,-176.34 690.74,-166.87"/>
<polygon fill="#63b8ff" stroke="#63b8ff" points="560.42,-193.08 551.45,-198.72 561.98,-199.9 560.42,-193.08"/>
</g>
<!-- Node12 -->
<g id="node9" class="node">
<title>Node12</title>
<g id="a_node9"><a xlink:href="class_urho3_d_1_1_hash_map.html" target="_top" xlink:title=" ">
<polygon fill="white" stroke="#666666" points="846.5,-111.5 684.5,-111.5 684.5,-70.5 846.5,-70.5 846.5,-111.5"/>
<text text-anchor="start" x="692.5" y="-99.5" font-family="Roboto" font-size="10.00">Urho3D::HashMap&lt; Urho3D</text>
<text text-anchor="start" x="692.5" y="-88.5" font-family="Roboto" font-size="10.00">::StringHash, Urho3D::</text>
<text text-anchor="middle" x="765.5" y="-77.5" font-family="Roboto" font-size="10.00">Vector&lt; Urho3D::AttributeInfo &gt; &gt;</text>
</a>
</g>
</g>
<!-- Node7&#45;&gt;Node12 -->
<g id="edge11" class="edge">
<title>Node7&#45;&gt;Node12</title>
<path fill="none" stroke="#63b8ff" d="M529.52,-192.38C557.82,-172.64 607.89,-139.88 655,-120 664.24,-116.1 674.14,-112.6 684.08,-109.5"/>
<polygon fill="#63b8ff" stroke="#63b8ff" points="527.51,-189.52 521.37,-198.15 531.55,-195.23 527.51,-189.52"/>
</g>
<!-- Node13 -->
<g id="node10" class="node">
<title>Node13</title>
<g id="a_node10"><a xlink:href="class_urho3_d_1_1_hash_map.html" target="_top" xlink:title=" ">
<polygon fill="white" stroke="#666666" points="849,-52 682,-52 682,0 849,0 849,-52"/>
<text text-anchor="start" x="690" y="-40" font-family="Roboto" font-size="10.00">Urho3D::HashMap&lt; Urho3D</text>
<text text-anchor="start" x="690" y="-29" font-family="Roboto" font-size="10.00">::StringHash, Urho3D::</text>
<text text-anchor="start" x="690" y="-18" font-family="Roboto" font-size="10.00">SharedPtr&lt; Urho3D::EventReceiver</text>
<text text-anchor="middle" x="765.5" y="-7" font-family="Roboto" font-size="10.00">Group &gt; &gt;</text>
</a>
</g>
</g>
<!-- Node7&#45;&gt;Node13 -->
<g id="edge13" class="edge">
<title>Node7&#45;&gt;Node13</title>
<path fill="none" stroke="#63b8ff" d="M520.35,-189.96C544.27,-158.45 596.42,-95.51 655,-61 663.34,-56.09 672.45,-51.78 681.74,-48.02"/>
<polygon fill="#63b8ff" stroke="#63b8ff" points="517.68,-187.69 514.51,-197.8 523.29,-191.87 517.68,-187.69"/>
</g>
<!-- Node14 -->
<g id="node11" class="node">
<title>Node14</title>
<g id="a_node11"><a xlink:href="class_urho3_d_1_1_hash_map.html" target="_top" xlink:title=" ">
<polygon fill="white" stroke="#666666" points="876,-407 655,-407 655,-355 876,-355 876,-407"/>
<text text-anchor="start" x="663" y="-395" font-family="Roboto" font-size="10.00">Urho3D::HashMap&lt; Urho3D</text>
<text text-anchor="start" x="663" y="-384" font-family="Roboto" font-size="10.00">::Object *, Urho3D::HashMap</text>
<text text-anchor="start" x="663" y="-373" font-family="Roboto" font-size="10.00">&lt; Urho3D::StringHash, Urho3D</text>
<text text-anchor="middle" x="765.5" y="-362" font-family="Roboto" font-size="10.00">::SharedPtr&lt; Urho3D::EventReceiverGroup &gt; &gt; &gt;</text>
</a>
</g>
</g>
<!-- Node7&#45;&gt;Node14 -->
<g id="edge15" class="edge">
<title>Node7&#45;&gt;Node14</title>
<path fill="none" stroke="#63b8ff" d="M521.23,-227.61C545.74,-257.29 597.89,-315.13 655,-346 660.71,-349.08 666.73,-351.95 672.89,-354.6"/>
<polygon fill="#63b8ff" stroke="#63b8ff" points="523.98,-225.44 514.96,-219.88 518.54,-229.85 523.98,-225.44"/>
</g>
<!-- Node21 -->
<g id="node18" class="node">
<title>Node21</title>
<g id="a_node18"><a xlink:href="class_urho3_d_1_1_hash_map.html" target="_top" xlink:title=" ">
<polygon fill="white" stroke="#666666" points="835,-288.5 696,-288.5 696,-247.5 835,-247.5 835,-288.5"/>
<text text-anchor="start" x="704" y="-276.5" font-family="Roboto" font-size="10.00">Urho3D::HashMap&lt; Urho3D</text>
<text text-anchor="start" x="704" y="-265.5" font-family="Roboto" font-size="10.00">::String, Urho3D::Vector</text>
<text text-anchor="middle" x="765.5" y="-254.5" font-family="Roboto" font-size="10.00">&lt; Urho3D::StringHash &gt; &gt;</text>
</a>
</g>
</g>
<!-- Node7&#45;&gt;Node21 -->
<g id="edge27" class="edge">
<title>Node7&#45;&gt;Node21</title>
<path fill="none" stroke="#63b8ff" d="M561.15,-221.5C600.34,-230.46 653.44,-242.6 695.55,-252.23"/>
<polygon fill="#63b8ff" stroke="#63b8ff" points="561.98,-218.1 551.45,-219.28 560.42,-224.92 561.98,-218.1"/>
</g>
<!-- Node22 -->
<g id="node19" class="node">
<title>Node22</title>
<g id="a_node19"><a xlink:href="class_urho3_d_1_1_hash_map.html" target="_top" xlink:title=" ">
<polygon fill="white" stroke="#666666" points="843.5,-337 687.5,-337 687.5,-307 843.5,-307 843.5,-337"/>
<text text-anchor="start" x="695.5" y="-325" font-family="Roboto" font-size="10.00">Urho3D::HashMap&lt; StringHash,</text>
<text text-anchor="middle" x="765.5" y="-314" font-family="Roboto" font-size="10.00"> Variant &gt;</text>
</a>
</g>
</g>
<!-- Node7&#45;&gt;Node22 -->
<g id="edge29" class="edge">
<title>Node7&#45;&gt;Node22</title>
<path fill="none" stroke="#63b8ff" d="M529,-225.38C557.14,-245.12 607.4,-278.01 655,-297 665.23,-301.08 676.28,-304.58 687.29,-307.56"/>
<polygon fill="#63b8ff" stroke="#63b8ff" points="531.09,-222.57 520.92,-219.63 527.04,-228.28 531.09,-222.57"/>
</g>
<!-- Node11&#45;&gt;Node5 -->
<g id="edge8" class="edge">
<title>Node11&#45;&gt;Node5</title>
<path fill="none" stroke="#9a32cd" stroke-dasharray="5,2" d="M851.72,-159.77C899.66,-168.86 958.27,-186.36 1001,-220 1043.86,-253.74 1069.85,-316.9 1078.64,-341.16"/>
<polygon fill="#9a32cd" stroke="#9a32cd" points="852.36,-156.33 841.89,-158.01 851.12,-163.22 852.36,-156.33"/>
<text text-anchor="middle" x="947.5" y="-223" font-family="Roboto" font-size="10.00"> subsystems_</text>
</g>
<!-- Node12&#45;&gt;Node5 -->
<g id="edge10" class="edge">
<title>Node12&#45;&gt;Node5</title>
<path fill="none" stroke="#9a32cd" stroke-dasharray="5,2" d="M858.15,-92.78C905.68,-98.18 961.82,-112.15 1001,-146 1063.26,-199.78 1078.08,-307.82 1081.22,-341.05"/>
<polygon fill="#9a32cd" stroke="#9a32cd" points="858.71,-89.32 848.4,-91.79 858,-96.28 858.71,-89.32"/>
<text text-anchor="middle" x="947.5" y="-160" font-family="Roboto" font-size="10.00"> attributes_</text>
<text text-anchor="middle" x="947.5" y="-149" font-family="Roboto" font-size="10.00">networkAttributes_</text>
</g>
<!-- Node13&#45;&gt;Node5 -->
<g id="edge12" class="edge">
<title>Node13&#45;&gt;Node5</title>
<path fill="none" stroke="#9a32cd" stroke-dasharray="5,2" d="M860.71,-27.99C908.29,-33.79 963.69,-48.58 1001,-84 1078.47,-157.53 1082.58,-302.48 1082.23,-341.26"/>
<polygon fill="#9a32cd" stroke="#9a32cd" points="861.26,-24.53 850.94,-26.92 860.5,-31.49 861.26,-24.53"/>
<text text-anchor="middle" x="947.5" y="-87" font-family="Roboto" font-size="10.00"> eventReceivers_</text>
</g>
<!-- Node14&#45;&gt;Node5 -->
<g id="edge14" class="edge">
<title>Node14&#45;&gt;Node5</title>
<path fill="none" stroke="#9a32cd" stroke-dasharray="5,2" d="M887.6,-369.48C940.53,-364.45 999.28,-358.87 1038.19,-355.17"/>
<polygon fill="#9a32cd" stroke="#9a32cd" points="887.53,-365.98 877.91,-370.41 888.2,-372.94 887.53,-365.98"/>
<text text-anchor="middle" x="947.5" y="-372" font-family="Roboto" font-size="10.00"> specificEventReceivers_</text>
</g>
<!-- Node15 -->
<g id="node12" class="node">
<title>Node15</title>
<g id="a_node12"><a xlink:href="class_urho3_d_1_1_p_o_d_vector.html" target="_top" xlink:title=" ">
<polygon fill="white" stroke="#666666" points="820,-455 711,-455 711,-425 820,-425 820,-455"/>
<text text-anchor="start" x="719" y="-443" font-family="Roboto" font-size="10.00">Urho3D::PODVector&lt;</text>
<text text-anchor="middle" x="765.5" y="-432" font-family="Roboto" font-size="10.00"> Urho3D::Object * &gt;</text>
</a>
</g>
</g>
<!-- Node15&#45;&gt;Node5 -->
<g id="edge16" class="edge">
<title>Node15&#45;&gt;Node5</title>
<path fill="none" stroke="#9a32cd" stroke-dasharray="5,2" d="M831.37,-427.58C878.91,-417.74 944.7,-402.58 1001,-384 1021.33,-377.29 1043.84,-367.96 1059.96,-360.93"/>
<polygon fill="#9a32cd" stroke="#9a32cd" points="830.88,-424.11 821.78,-429.54 832.28,-430.97 830.88,-424.11"/>
<text text-anchor="middle" x="947.5" y="-416" font-family="Roboto" font-size="10.00"> eventSenders_</text>
</g>
<!-- Node16 -->
<g id="node13" class="node">
<title>Node16</title>
<g id="a_node13"><a xlink:href="class_urho3_d_1_1_vector_base.html" target="_top" xlink:title="Vector base class.">
<polygon fill="white" stroke="#666666" points="558.5,-474.5 452.5,-474.5 452.5,-455.5 558.5,-455.5 558.5,-474.5"/>
<text text-anchor="middle" x="505.5" y="-462.5" font-family="Roboto" font-size="10.00">Urho3D::VectorBase</text>
</a>
</g>
</g>
<!-- Node16&#45;&gt;Node15 -->
<g id="edge17" class="edge">
<title>Node16&#45;&gt;Node15</title>
<path fill="none" stroke="#63b8ff" d="M569.94,-458.85C613.1,-454.67 669.61,-449.2 710.59,-445.22"/>
<polygon fill="#63b8ff" stroke="#63b8ff" points="569.83,-455.35 560.22,-459.79 570.51,-462.31 569.83,-455.35"/>
</g>
<!-- Node17 -->
<g id="node14" class="node">
<title>Node17</title>
<g id="a_node14"><a xlink:href="class_urho3_d_1_1_p_o_d_vector.html" target="_top" xlink:title=" ">
<polygon fill="white" stroke="#666666" points="822.5,-503 708.5,-503 708.5,-473 822.5,-473 822.5,-503"/>
<text text-anchor="start" x="716.5" y="-491" font-family="Roboto" font-size="10.00">Urho3D::PODVector&lt;</text>
<text text-anchor="middle" x="765.5" y="-480" font-family="Roboto" font-size="10.00"> Urho3D::HashMap * &gt;</text>
</a>
</g>
</g>
<!-- Node16&#45;&gt;Node17 -->
<g id="edge19" class="edge">
<title>Node16&#45;&gt;Node17</title>
<path fill="none" stroke="#63b8ff" d="M570.02,-470.66C612.39,-474.44 667.58,-479.36 708.34,-482.99"/>
<polygon fill="#63b8ff" stroke="#63b8ff" points="570.49,-467.19 560.22,-469.79 569.87,-474.16 570.49,-467.19"/>
</g>
<!-- Node17&#45;&gt;Node5 -->
<g id="edge18" class="edge">
<title>Node17&#45;&gt;Node5</title>
<path fill="none" stroke="#9a32cd" stroke-dasharray="5,2" d="M833.85,-480.54C882.79,-472.87 949.24,-457.65 1001,-428 1032.48,-409.96 1061.19,-377.19 1074.38,-360.84"/>
<polygon fill="#9a32cd" stroke="#9a32cd" points="833.61,-477.04 824.24,-481.98 834.65,-483.96 833.61,-477.04"/>
<text text-anchor="middle" x="947.5" y="-471" font-family="Roboto" font-size="10.00"> eventDataMaps_</text>
</g>
<!-- Node18&#45;&gt;Node5 -->
<g id="edge20" class="edge">
<title>Node18&#45;&gt;Node5</title>
<path fill="none" stroke="#9a32cd" stroke-dasharray="5,2" d="M833.32,-596.73C884.57,-594.61 954.24,-583.8 1001,-545 1061.11,-495.12 1077.32,-393.07 1081.03,-360.92"/>
<polygon fill="#9a32cd" stroke="#9a32cd" points="833.42,-593.23 823.53,-597.03 833.64,-600.23 833.42,-593.23"/>
<text text-anchor="middle" x="947.5" y="-593" font-family="Roboto" font-size="10.00"> eventHandler_</text>
</g>
<!-- Node23 -->
<g id="node20" class="node">
<title>Node23</title>
<g id="a_node20"><a xlink:href="class_urho3_d_1_1_linked_list.html" target="_top" xlink:title=" ">
<polygon fill="white" stroke="#666666" points="1147,-675 1019,-675 1019,-645 1147,-645 1147,-675"/>
<text text-anchor="start" x="1027" y="-663" font-family="Roboto" font-size="10.00">Urho3D::LinkedList</text>
<text text-anchor="middle" x="1083" y="-652" font-family="Roboto" font-size="10.00">&lt; Urho3D::EventHandler &gt;</text>
</a>
</g>
</g>
<!-- Node18&#45;&gt;Node23 -->
<g id="edge31" class="edge">
<title>Node18&#45;&gt;Node23</title>
<path fill="none" stroke="#9a32cd" stroke-dasharray="5,2" d="M825.74,-607.2C880.77,-618.54 962.48,-635.38 1018.76,-646.97"/>
<polygon fill="#9a32cd" stroke="#9a32cd" points="826.74,-603.84 816.24,-605.25 825.33,-610.69 826.74,-603.84"/>
<text text-anchor="middle" x="947.5" y="-645" font-family="Roboto" font-size="10.00"> head_</text>
</g>
<!-- Node19 -->
<g id="node16" class="node">
<title>Node19</title>
<g id="a_node16"><a xlink:href="struct_urho3_d_1_1_linked_list_node.html" target="_top" xlink:title="Singly&#45;linked list node base class.">
<polygon fill="white" stroke="#666666" points="568,-578.5 443,-578.5 443,-559.5 568,-559.5 568,-578.5"/>
<text text-anchor="middle" x="505.5" y="-566.5" font-family="Roboto" font-size="10.00">Urho3D::LinkedListNode</text>
</a>
</g>
</g>
<!-- Node19&#45;&gt;Node18 -->
<g id="edge21" class="edge">
<title>Node19&#45;&gt;Node18</title>
<path fill="none" stroke="#63b8ff" d="M579.77,-571.71C598.46,-572.74 618.49,-574.13 637,-576 660.6,-578.39 686.52,-582.05 708.79,-585.53"/>
<polygon fill="#63b8ff" stroke="#63b8ff" points="580.01,-568.22 569.84,-571.2 579.65,-575.21 580.01,-568.22"/>
</g>
<!-- Node19&#45;&gt;Node19 -->
<g id="edge22" class="edge">
<title>Node19&#45;&gt;Node19</title>
<path fill="none" stroke="#9a32cd" stroke-dasharray="5,2" d="M486.69,-589.93C489.04,-593.79 495.31,-596.5 505.5,-596.5 524.13,-596.5 529.66,-587.44 522.09,-578.87"/>
<polygon fill="#9a32cd" stroke="#9a32cd" points="490.07,-590.85 488.61,-580.35 483.21,-589.47 490.07,-590.85"/>
<text text-anchor="middle" x="505.5" y="-599.5" font-family="Roboto" font-size="10.00"> next_</text>
</g>
<!-- Node20 -->
<g id="node17" class="node">
<title>Node20</title>
<g id="a_node17"><a xlink:href="class_urho3_d_1_1_string_hash.html" target="_top" xlink:title="32&#45;bit hash value for a string.">
<polygon fill="white" stroke="#666666" points="557.5,-644.5 453.5,-644.5 453.5,-625.5 557.5,-625.5 557.5,-644.5"/>
<text text-anchor="middle" x="505.5" y="-632.5" font-family="Roboto" font-size="10.00">Urho3D::StringHash</text>
</a>
</g>
</g>
<!-- Node20&#45;&gt;Node18 -->
<g id="edge24" class="edge">
<title>Node20&#45;&gt;Node18</title>
<path fill="none" stroke="#9a32cd" stroke-dasharray="5,2" d="M562.2,-620.37C564.2,-619.32 566.14,-618.2 568,-617 578.33,-610.33 574.85,-601.17 586,-596 627.47,-576.78 680.41,-579.38 717.84,-585.03"/>
<polygon fill="#9a32cd" stroke="#9a32cd" points="560.91,-617.12 553.22,-624.41 563.78,-623.5 560.91,-617.12"/>
<text text-anchor="middle" x="611.5" y="-599" font-family="Roboto" font-size="10.00"> eventType_</text>
</g>
<!-- Node20&#45;&gt;Node20 -->
<g id="edge25" class="edge">
<title>Node20&#45;&gt;Node20</title>
<path fill="none" stroke="#9a32cd" stroke-dasharray="5,2" d="M486.69,-655.93C489.04,-659.79 495.31,-662.5 505.5,-662.5 524.13,-662.5 529.66,-653.44 522.09,-644.87"/>
<polygon fill="#9a32cd" stroke="#9a32cd" points="490.07,-656.85 488.61,-646.35 483.21,-655.47 490.07,-656.85"/>
<text text-anchor="middle" x="505.5" y="-665.5" font-family="Roboto" font-size="10.00"> ZERO</text>
</g>
<!-- Node21&#45;&gt;Node5 -->
<g id="edge26" class="edge">
<title>Node21&#45;&gt;Node5</title>
<path fill="none" stroke="#9a32cd" stroke-dasharray="5,2" d="M846.43,-280.78C892.22,-289.07 950.46,-301.27 1001,-317 1022.12,-323.57 1045.3,-333.61 1061.43,-341.07"/>
<polygon fill="#9a32cd" stroke="#9a32cd" points="847.31,-277.38 836.85,-279.07 846.08,-284.27 847.31,-277.38"/>
<text text-anchor="middle" x="947.5" y="-320" font-family="Roboto" font-size="10.00"> objectCategories_</text>
</g>
<!-- Node22&#45;&gt;Node5 -->
<g id="edge28" class="edge">
<title>Node22&#45;&gt;Node5</title>
<path fill="none" stroke="#9a32cd" stroke-dasharray="5,2" d="M855.17,-328.3C899.08,-331.65 952.87,-336.08 1001,-341 1013.12,-342.24 1026.24,-343.77 1038.32,-345.27"/>
<polygon fill="#9a32cd" stroke="#9a32cd" points="855.69,-324.83 845.45,-327.57 855.16,-331.81 855.69,-324.83"/>
<text text-anchor="middle" x="947.5" y="-344" font-family="Roboto" font-size="10.00"> globalVars_</text>
</g>
<!-- Node23&#45;&gt;Node2 -->
<g id="edge30" class="edge">
<title>Node23&#45;&gt;Node2</title>
<path fill="none" stroke="#9a32cd" stroke-dasharray="5,2" d="M1007.67,-665.3C884.84,-674.05 643.55,-691.24 547.43,-698.08"/>
<polygon fill="#9a32cd" stroke="#9a32cd" points="1007.58,-668.81 1017.31,-664.61 1007.09,-661.83 1007.58,-668.81"/>
<text text-anchor="middle" x="765.5" y="-693" font-family="Roboto" font-size="10.00"> eventHandlers_</text>
</g>
<!-- Node24 -->
<g id="node21" class="node">
<title>Node24</title>
<g id="a_node21"><a xlink:href="class_urho3_d_1_1_g_p_u_object.html" target="_top" xlink:title="Base class for GPU resources.">
<polygon fill="white" stroke="#666666" points="1518,-760.5 1416,-760.5 1416,-741.5 1518,-741.5 1518,-760.5"/>
<text text-anchor="middle" x="1467" y="-748.5" font-family="Roboto" font-size="10.00">Urho3D::GPUObject</text>
</a>
</g>
</g>
<!-- Node24&#45;&gt;Node1 -->
<g id="edge32" class="edge">
<title>Node24&#45;&gt;Node1</title>
<path fill="none" stroke="#63b8ff" d="M1413.02,-763.34C1389.57,-768.13 1361.56,-772.96 1336,-775 1146.27,-790.12 919.86,-784.76 819.22,-781.18"/>
<polygon fill="#63b8ff" stroke="#63b8ff" points="1413.59,-766.79 1422.66,-761.31 1412.15,-759.94 1413.59,-766.79"/>
</g>
<!-- Node25&#45;&gt;Node24 -->
<g id="edge33" class="edge">
<title>Node25&#45;&gt;Node24</title>
<path fill="none" stroke="#9a32cd" stroke-dasharray="5,2" d="M1347.76,-751C1370.56,-751 1394.89,-751 1415.52,-751"/>
<polygon fill="#9a32cd" stroke="#9a32cd" points="1347.87,-747.5 1337.87,-751 1347.87,-754.5 1347.87,-747.5"/>
<text text-anchor="middle" x="1376" y="-754" font-family="Roboto" font-size="10.00"> graphics_</text>
</g>
<!-- Node26&#45;&gt;Node25 -->
<g id="edge34" class="edge">
<title>Node26&#45;&gt;Node25</title>
<path fill="none" stroke="#9a32cd" stroke-dasharray="5,2" d="M1141.25,-751C1160.44,-751 1182,-751 1201.81,-751"/>
<polygon fill="#9a32cd" stroke="#9a32cd" points="1141.47,-747.5 1131.47,-751 1141.47,-754.5 1141.47,-747.5"/>
<text text-anchor="middle" x="1174.5" y="-754" font-family="Roboto" font-size="10.00"> ptr_</text>
</g>
<!-- Node78 -->
<g id="node24" class="node">
<title>Node78</title>
<g id="a_node24"><a xlink:href="union_urho3_d_1_1_g_p_u_object_handle.html" target="_top" xlink:title="API&#45;specific GPU object representation.">
<polygon fill="white" stroke="#666666" points="1336,-717.5 1202,-717.5 1202,-698.5 1336,-698.5 1336,-717.5"/>
<text text-anchor="middle" x="1269" y="-705.5" font-family="Roboto" font-size="10.00">Urho3D::GPUObjectHandle</text>
</a>
</g>
</g>
<!-- Node78&#45;&gt;Node24 -->
<g id="edge38" class="edge">
<title>Node78&#45;&gt;Node24</title>
<path fill="none" stroke="#9a32cd" stroke-dasharray="5,2" d="M1326.57,-720.35C1348.84,-725.22 1374.62,-730.86 1398,-736 1405.44,-737.63 1413.33,-739.37 1421.01,-741.06"/>
<polygon fill="#9a32cd" stroke="#9a32cd" points="1327.61,-717 1317.1,-718.28 1326.12,-723.84 1327.61,-717"/>
<text text-anchor="middle" x="1376" y="-739" font-family="Roboto" font-size="10.00"> object_</text>
</g>
<!-- Node33&#45;&gt;Node1 -->
<g id="edge39" class="edge">
<title>Node33&#45;&gt;Node1</title>
<path fill="none" stroke="#9a32cd" stroke-dasharray="5,2" d="M436.56,-783.93C515.65,-782.74 641.15,-780.85 711.76,-779.79"/>
<polygon fill="#9a32cd" stroke="#9a32cd" points="436.7,-780.42 426.76,-784.07 436.81,-787.42 436.7,-780.42"/>
<text text-anchor="middle" x="505.5" y="-786" font-family="Roboto" font-size="10.00"> shadowData_</text>
</g>
</g>
</svg>
