<?xml version="1.0" encoding="UTF-8" standalone="no"?>
<!DOCTYPE svg PUBLIC "-//W3C//DTD SVG 1.1//EN"
 "http://www.w3.org/Graphics/SVG/1.1/DTD/svg11.dtd">
<!-- Generated by graphviz version 7.0.3 (0)
 -->
<!-- Title: Urho3D::Sprite::ElementToScreen Pages: 1 -->
<svg width="590pt" height="296pt"
 viewBox="0.00 0.00 590.00 296.00" xmlns="http://www.w3.org/2000/svg" xmlns:xlink="http://www.w3.org/1999/xlink">
<g id="graph0" class="graph" transform="scale(1 1) rotate(0) translate(4 292)">
<title>Urho3D::Sprite::ElementToScreen</title>
<!-- Node1 -->
<g id="node1" class="node">
<title>Node1</title>
<g id="a_node1"><a xlink:title="Convert element coordinates to screen coordinates.">
<polygon fill="#999999" stroke="#666666" points="132,-150 0,-150 0,-120 132,-120 132,-150"/>
<text text-anchor="start" x="8" y="-138" font-family="Roboto" font-size="10.00">Urho3D::Sprite::ElementTo</text>
<text text-anchor="middle" x="66" y="-127" font-family="Roboto" font-size="10.00">Screen</text>
</a>
</g>
</g>
<!-- Node2 -->
<g id="node2" class="node">
<title>Node2</title>
<g id="a_node2"><a xlink:href="class_urho3_d_1_1_sprite.html#af2e7d710eaa1236116799c499a95d86c" target="_top" xlink:title="Update and return rendering transform, also used to transform child sprites.">
<polygon fill="white" stroke="#666666" points="314,-144.5 168,-144.5 168,-125.5 314,-125.5 314,-144.5"/>
<text text-anchor="middle" x="241" y="-132.5" font-family="Roboto" font-size="10.00">Urho3D::Sprite::GetTransform</text>
</a>
</g>
</g>
<!-- Node1&#45;&gt;Node2 -->
<g id="edge1" class="edge">
<title>Node1&#45;&gt;Node2</title>
<path fill="none" stroke="#63b8ff" d="M132.4,-135C140.21,-135 148.26,-135 156.27,-135"/>
<polygon fill="#63b8ff" stroke="#63b8ff" points="156.04,-138.5 166.04,-135 156.04,-131.5 156.04,-138.5"/>
</g>
<!-- Node3 -->
<g id="node3" class="node">
<title>Node3</title>
<g id="a_node3"><a xlink:href="class_urho3_d_1_1_u_i_element.html#a75032690b0214d2551eac5744a306644" target="_top" xlink:title=" ">
<polygon fill="white" stroke="#666666" points="463.5,-288 358.5,-288 358.5,-258 463.5,-258 463.5,-288"/>
<text text-anchor="start" x="366.5" y="-276" font-family="Roboto" font-size="10.00">Urho3D::UIElement::</text>
<text text-anchor="middle" x="411" y="-265" font-family="Roboto" font-size="10.00">GetChildOffset</text>
</a>
</g>
</g>
<!-- Node2&#45;&gt;Node3 -->
<g id="edge2" class="edge">
<title>Node2&#45;&gt;Node3</title>
<path fill="none" stroke="#63b8ff" d="M249,-144.91C264.75,-166.54 305.11,-218.52 350,-249 351.6,-250.08 353.25,-251.13 354.94,-252.14"/>
<polygon fill="#63b8ff" stroke="#63b8ff" points="353.18,-255.17 363.65,-256.8 356.48,-248.99 353.18,-255.17"/>
</g>
<!-- Node4 -->
<g id="node4" class="node">
<title>Node4</title>
<g id="a_node4"><a xlink:href="class_urho3_d_1_1_u_i_element.html#abd9eb79eba9f209d93cb101eb21c4574" target="_top" xlink:title=" ">
<polygon fill="white" stroke="#666666" points="472,-240 350,-240 350,-210 472,-210 472,-240"/>
<text text-anchor="start" x="358" y="-228" font-family="Roboto" font-size="10.00">Urho3D::UIElement::</text>
<text text-anchor="middle" x="411" y="-217" font-family="Roboto" font-size="10.00">GetHorizontalAlignment</text>
</a>
</g>
</g>
<!-- Node2&#45;&gt;Node4 -->
<g id="edge3" class="edge">
<title>Node2&#45;&gt;Node4</title>
<path fill="none" stroke="#63b8ff" d="M256.57,-145C276.91,-158.69 315.23,-183.58 350,-201 352.68,-202.34 355.46,-203.67 358.28,-204.96"/>
<polygon fill="#63b8ff" stroke="#63b8ff" points="356.66,-208.07 367.22,-208.9 359.47,-201.67 356.66,-208.07"/>
</g>
<!-- Node5 -->
<g id="node5" class="node">
<title>Node5</title>
<g id="a_node5"><a xlink:href="class_urho3_d_1_1_u_i_element.html#a031e2acb1765a940b9427003cb8653d7" target="_top" xlink:title=" ">
<polygon fill="white" stroke="#666666" points="463.5,-174 358.5,-174 358.5,-144 463.5,-144 463.5,-174"/>
<text text-anchor="start" x="366.5" y="-162" font-family="Roboto" font-size="10.00">Urho3D::UIElement::</text>
<text text-anchor="middle" x="411" y="-151" font-family="Roboto" font-size="10.00">GetScreenPosition</text>
</a>
</g>
</g>
<!-- Node2&#45;&gt;Node5 -->
<g id="edge4" class="edge">
<title>Node2&#45;&gt;Node5</title>
<path fill="none" stroke="#63b8ff" d="M311.79,-144.97C323.42,-146.63 335.42,-148.35 346.87,-149.98"/>
<polygon fill="#63b8ff" stroke="#63b8ff" points="346.21,-153.42 356.61,-151.37 347.2,-146.49 346.21,-153.42"/>
</g>
<!-- Node7 -->
<g id="node7" class="node">
<title>Node7</title>
<g id="a_node7"><a xlink:href="class_urho3_d_1_1_u_i_element.html#a5eb156615aef75c2c020de6c879cfd01" target="_top" xlink:title=" ">
<polygon fill="white" stroke="#666666" points="463.5,-126 358.5,-126 358.5,-96 463.5,-96 463.5,-126"/>
<text text-anchor="start" x="366.5" y="-114" font-family="Roboto" font-size="10.00">Urho3D::UIElement::</text>
<text text-anchor="middle" x="411" y="-103" font-family="Roboto" font-size="10.00">GetSize</text>
</a>
</g>
</g>
<!-- Node2&#45;&gt;Node7 -->
<g id="edge8" class="edge">
<title>Node2&#45;&gt;Node7</title>
<path fill="none" stroke="#63b8ff" d="M311.79,-125.03C323.42,-123.37 335.42,-121.65 346.87,-120.02"/>
<polygon fill="#63b8ff" stroke="#63b8ff" points="347.2,-123.51 356.61,-118.63 346.21,-116.58 347.2,-123.51"/>
</g>
<!-- Node8 -->
<g id="node8" class="node">
<title>Node8</title>
<g id="a_node8"><a xlink:href="class_urho3_d_1_1_u_i_element.html#a81a39a64719e35a717960bd631275827" target="_top" xlink:title=" ">
<polygon fill="white" stroke="#666666" points="465.5,-78 356.5,-78 356.5,-48 465.5,-48 465.5,-78"/>
<text text-anchor="start" x="364.5" y="-66" font-family="Roboto" font-size="10.00">Urho3D::UIElement::</text>
<text text-anchor="middle" x="411" y="-55" font-family="Roboto" font-size="10.00">GetVerticalAlignment</text>
</a>
</g>
</g>
<!-- Node2&#45;&gt;Node8 -->
<g id="edge9" class="edge">
<title>Node2&#45;&gt;Node8</title>
<path fill="none" stroke="#63b8ff" d="M263.82,-125.01C285.56,-115.13 319.94,-99.69 350,-87 353.36,-85.58 356.83,-84.14 360.34,-82.7"/>
<polygon fill="#63b8ff" stroke="#63b8ff" points="361.52,-85.99 369.46,-78.98 358.88,-79.51 361.52,-85.99"/>
</g>
<!-- Node9 -->
<g id="node9" class="node">
<title>Node9</title>
<g id="a_node9"><a xlink:href="class_urho3_d_1_1_matrix3x4.html#a8a997c13dea4269829fee68ecb039fbe" target="_top" xlink:title="Set translation elements.">
<polygon fill="white" stroke="#666666" points="463,-30 359,-30 359,0 463,0 463,-30"/>
<text text-anchor="start" x="367" y="-18" font-family="Roboto" font-size="10.00">Urho3D::Matrix3x4::</text>
<text text-anchor="middle" x="411" y="-7" font-family="Roboto" font-size="10.00">SetTranslation</text>
</a>
</g>
</g>
<!-- Node2&#45;&gt;Node9 -->
<g id="edge10" class="edge">
<title>Node2&#45;&gt;Node9</title>
<path fill="none" stroke="#63b8ff" d="M250.92,-125.04C268.34,-106.09 308.81,-64.45 350,-39 351.98,-37.78 354.02,-36.6 356.12,-35.46"/>
<polygon fill="#63b8ff" stroke="#63b8ff" points="357.45,-38.71 364.84,-31.12 354.33,-32.44 357.45,-38.71"/>
</g>
<!-- Node5&#45;&gt;Node5 -->
<g id="edge5" class="edge">
<title>Node5&#45;&gt;Node5</title>
<path fill="none" stroke="#63b8ff" d="M387.45,-174.28C382.21,-183.41 390.06,-192 411,-192 422.45,-192 429.99,-189.43 433.61,-185.61"/>
<polygon fill="#63b8ff" stroke="#63b8ff" points="437.09,-186.04 434.43,-175.78 430.11,-185.46 437.09,-186.04"/>
</g>
<!-- Node6 -->
<g id="node6" class="node">
<title>Node6</title>
<g id="a_node6"><a xlink:href="_math_defs_8h.html#a881de829a2aa2700593840d5a6978046" target="_top" xlink:title=" ">
<polygon fill="white" stroke="#666666" points="582,-168.5 508,-168.5 508,-149.5 582,-149.5 582,-168.5"/>
<text text-anchor="middle" x="545" y="-156.5" font-family="Roboto" font-size="10.00">Urho3D::Lerp</text>
</a>
</g>
</g>
<!-- Node5&#45;&gt;Node6 -->
<g id="edge6" class="edge">
<title>Node5&#45;&gt;Node6</title>
<path fill="none" stroke="#63b8ff" d="M463.79,-159C474.61,-159 485.97,-159 496.62,-159"/>
<polygon fill="#63b8ff" stroke="#63b8ff" points="496.33,-162.5 506.33,-159 496.33,-155.5 496.33,-162.5"/>
</g>
<!-- Node6&#45;&gt;Node6 -->
<g id="edge7" class="edge">
<title>Node6&#45;&gt;Node6</title>
<path fill="none" stroke="#63b8ff" d="M524.02,-168.87C514.45,-177.44 521.45,-186.5 545,-186.5 557.88,-186.5 565.81,-183.79 568.78,-179.93"/>
<polygon fill="#63b8ff" stroke="#63b8ff" points="572.2,-179.17 566.35,-170.34 565.42,-180.89 572.2,-179.17"/>
</g>
</g>
</svg>
