<?xml version="1.0" encoding="UTF-8" standalone="no"?>
<!DOCTYPE svg PUBLIC "-//W3C//DTD SVG 1.1//EN"
 "http://www.w3.org/Graphics/SVG/1.1/DTD/svg11.dtd">
<!-- Generated by graphviz version 7.0.3 (0)
 -->
<!-- Title: Urho3D::ConstraintWheel2D::SetMotorSpeed Pages: 1 -->
<svg width="308pt" height="56pt"
 viewBox="0.00 0.00 308.00 56.00" xmlns="http://www.w3.org/2000/svg" xmlns:xlink="http://www.w3.org/1999/xlink">
<g id="graph0" class="graph" transform="scale(1 1) rotate(0) translate(4 52)">
<title>Urho3D::ConstraintWheel2D::SetMotorSpeed</title>
<!-- Node1 -->
<g id="node1" class="node">
<title>Node1</title>
<g id="a_node1"><a xlink:title=" ">
<polygon fill="#999999" stroke="#666666" points="300,-30 168,-30 168,0 300,0 300,-30"/>
<text text-anchor="start" x="176" y="-18" font-family="Roboto" font-size="10.00">Urho3D::ConstraintWheel2</text>
<text text-anchor="middle" x="234" y="-7" font-family="Roboto" font-size="10.00">D::SetMotorSpeed</text>
</a>
</g>
</g>
<!-- Node1&#45;&gt;Node1 -->
<g id="edge2" class="edge">
<title>Node1&#45;&gt;Node1</title>
<path fill="none" stroke="#63b8ff" d="M262.35,-41.61C257.8,-45.43 248.36,-48 234,-48 207.75,-48 197.91,-39.41 204.47,-30.28"/>
<polygon fill="#63b8ff" stroke="#63b8ff" points="265.81,-42.09 263.37,-31.78 258.85,-41.36 265.81,-42.09"/>
</g>
<!-- Node2 -->
<g id="node2" class="node">
<title>Node2</title>
<g id="a_node2"><a xlink:href="class_urho3_d_1_1_constraint_wheel2_d.html#a0d919701da2894ac995ea285f4b472fd" target="_top" xlink:title=" ">
<polygon fill="white" stroke="#666666" points="132,-30 0,-30 0,0 132,0 132,-30"/>
<text text-anchor="start" x="8" y="-18" font-family="Roboto" font-size="10.00">Urho3D::ConstraintWheel2</text>
<text text-anchor="middle" x="66" y="-7" font-family="Roboto" font-size="10.00">D::RegisterObject</text>
</a>
</g>
</g>
<!-- Node1&#45;&gt;Node2 -->
<g id="edge1" class="edge">
<title>Node1&#45;&gt;Node2</title>
<path fill="none" stroke="#63b8ff" d="M156.58,-15C148.53,-15 140.4,-15 132.49,-15"/>
<polygon fill="#63b8ff" stroke="#63b8ff" points="156.36,-18.5 166.36,-15 156.36,-11.5 156.36,-18.5"/>
</g>
</g>
</svg>
