<?xml version="1.0" encoding="UTF-8" standalone="no"?>
<!DOCTYPE svg PUBLIC "-//W3C//DTD SVG 1.1//EN"
 "http://www.w3.org/Graphics/SVG/1.1/DTD/svg11.dtd">
<!-- Generated by graphviz version 7.0.3 (0)
 -->
<!-- Title: Urho3D::Obstacle::OnSceneSet Pages: 1 -->
<svg width="1233pt" height="446pt"
 viewBox="0.00 0.00 1233.00 445.50" xmlns="http://www.w3.org/2000/svg" xmlns:xlink="http://www.w3.org/1999/xlink">
<g id="graph0" class="graph" transform="scale(1 1) rotate(0) translate(4 441.5)">
<title>Urho3D::Obstacle::OnSceneSet</title>
<!-- Node1 -->
<g id="node1" class="node">
<title>Node1</title>
<g id="a_node1"><a xlink:title="Handle scene being assigned, identify our DynamicNavigationMesh.">
<polygon fill="#999999" stroke="#666666" points="151,-310 0,-310 0,-291 151,-291 151,-310"/>
<text text-anchor="middle" x="75.5" y="-298" font-family="Roboto" font-size="10.00">Urho3D::Obstacle::OnSceneSet</text>
</a>
</g>
</g>
<!-- Node2 -->
<g id="node2" class="node">
<title>Node2</title>
<g id="a_node2"><a xlink:href="class_urho3_d_1_1_node.html#ad966d101e149139d4bf309f6a8fad98a" target="_top" xlink:title="Return component in parent node. If there are several, returns the first. May optional traverse up to...">
<polygon fill="white" stroke="#666666" points="366,-395 187,-395 187,-376 366,-376 366,-395"/>
<text text-anchor="middle" x="276.5" y="-383" font-family="Roboto" font-size="10.00">Urho3D::Node::GetParentComponent</text>
</a>
</g>
</g>
<!-- Node1&#45;&gt;Node2 -->
<g id="edge1" class="edge">
<title>Node1&#45;&gt;Node2</title>
<path fill="none" stroke="#63b8ff" d="M91.26,-310.41C111.88,-323.89 150.88,-347.96 187,-362.5 196.52,-366.33 206.87,-369.69 217.03,-372.58"/>
<polygon fill="#63b8ff" stroke="#63b8ff" points="215.9,-375.9 226.46,-375.13 217.72,-369.14 215.9,-375.9"/>
</g>
<!-- Node6 -->
<g id="node6" class="node">
<title>Node6</title>
<g id="a_node6"><a xlink:href="class_urho3_d_1_1_object.html#aa70436408fab29ff5d6ea54fa1e09b9b" target="_top" xlink:title=" ">
<polygon fill="white" stroke="#666666" points="351,-353 202,-353 202,-334 351,-334 351,-353"/>
<text text-anchor="middle" x="276.5" y="-341" font-family="Roboto" font-size="10.00">Urho3D::Object::GetTypeName</text>
</a>
</g>
</g>
<!-- Node1&#45;&gt;Node6 -->
<g id="edge6" class="edge">
<title>Node1&#45;&gt;Node6</title>
<path fill="none" stroke="#63b8ff" d="M122.19,-310.45C142.1,-314.78 165.7,-319.9 187,-324.5 197.04,-326.67 207.72,-328.97 218.06,-331.19"/>
<polygon fill="#63b8ff" stroke="#63b8ff" points="217.11,-334.57 227.63,-333.24 218.58,-327.72 217.11,-334.57"/>
</g>
<!-- Node7 -->
<g id="node7" class="node">
<title>Node7</title>
<g id="a_node7"><a xlink:href="class_urho3_d_1_1_obstacle.html#a48186992e849b654c89170fd9a7c34fc" target="_top" xlink:title="Handle navigation mesh tile added.">
<polygon fill="white" stroke="#666666" points="341,-315.5 212,-315.5 212,-285.5 341,-285.5 341,-315.5"/>
<text text-anchor="start" x="220" y="-303.5" font-family="Roboto" font-size="10.00">Urho3D::Obstacle::Handle</text>
<text text-anchor="middle" x="276.5" y="-292.5" font-family="Roboto" font-size="10.00">NavigationTileAdded</text>
</a>
</g>
</g>
<!-- Node1&#45;&gt;Node7 -->
<g id="edge7" class="edge">
<title>Node1&#45;&gt;Node7</title>
<path fill="none" stroke="#63b8ff" d="M151.45,-300.5C167.41,-300.5 184.27,-300.5 200.24,-300.5"/>
<polygon fill="#63b8ff" stroke="#63b8ff" points="200.17,-304 210.17,-300.5 200.17,-297 200.17,-304"/>
</g>
<!-- Node10 -->
<g id="node10" class="node">
<title>Node10</title>
<g id="a_node10"><a xlink:href="class_urho3_d_1_1_object.html#a7d9d061f4cf32f5fd5531e11a72834b6" target="_top" xlink:title="Subscribe to an event that can be sent by any sender.">
<polygon fill="white" stroke="#666666" points="342,-264.5 211,-264.5 211,-234.5 342,-234.5 342,-264.5"/>
<text text-anchor="start" x="219" y="-252.5" font-family="Roboto" font-size="10.00">Urho3D::Object::Subscribe</text>
<text text-anchor="middle" x="276.5" y="-241.5" font-family="Roboto" font-size="10.00">ToEvent</text>
</a>
</g>
</g>
<!-- Node1&#45;&gt;Node10 -->
<g id="edge10" class="edge">
<title>Node1&#45;&gt;Node10</title>
<path fill="none" stroke="#63b8ff" d="M115.34,-290.55C140.63,-284.07 174.36,-275.42 204.35,-267.73"/>
<polygon fill="#63b8ff" stroke="#63b8ff" points="204.92,-271.2 213.74,-265.33 203.19,-264.42 204.92,-271.2"/>
</g>
<!-- Node15 -->
<g id="node15" class="node">
<title>Node15</title>
<g id="a_node15"><a xlink:href="class_urho3_d_1_1_object.html#a153b96c4397e045b2ca2b2d5471d097c" target="_top" xlink:title="Unsubscribe from an event.">
<polygon fill="white" stroke="#666666" points="347.5,-149.5 205.5,-149.5 205.5,-119.5 347.5,-119.5 347.5,-149.5"/>
<text text-anchor="start" x="213.5" y="-137.5" font-family="Roboto" font-size="10.00">Urho3D::Object::Unsubscribe</text>
<text text-anchor="middle" x="276.5" y="-126.5" font-family="Roboto" font-size="10.00">FromEvent</text>
</a>
</g>
</g>
<!-- Node1&#45;&gt;Node15 -->
<g id="edge15" class="edge">
<title>Node1&#45;&gt;Node15</title>
<path fill="none" stroke="#63b8ff" d="M88.35,-290.61C119.52,-264.61 204.4,-193.81 248.33,-157.16"/>
<polygon fill="#63b8ff" stroke="#63b8ff" points="250.46,-159.95 255.89,-150.86 245.97,-154.57 250.46,-159.95"/>
</g>
<!-- Node3 -->
<g id="node3" class="node">
<title>Node3</title>
<g id="a_node3"><a xlink:href="class_urho3_d_1_1_node.html#a34f6d23128c61664a11ceb275604e013" target="_top" xlink:title="Return component by type. If there are several, returns the first.">
<polygon fill="white" stroke="#666666" points="554,-432 403,-432 403,-413 554,-413 554,-432"/>
<text text-anchor="middle" x="478.5" y="-420" font-family="Roboto" font-size="10.00">Urho3D::Node::GetComponent</text>
</a>
</g>
</g>
<!-- Node2&#45;&gt;Node3 -->
<g id="edge2" class="edge">
<title>Node2&#45;&gt;Node3</title>
<path fill="none" stroke="#63b8ff" d="M331.36,-395.46C356.36,-400.09 386.3,-405.63 412.55,-410.48"/>
<polygon fill="#63b8ff" stroke="#63b8ff" points="411.59,-413.87 422.06,-412.24 412.86,-406.98 411.59,-413.87"/>
</g>
<!-- Node5 -->
<g id="node5" class="node">
<title>Node5</title>
<g id="a_node5"><a xlink:href="class_urho3_d_1_1_node.html#a1bc658c7b719ce21531882df362ea958" target="_top" xlink:title=" ">
<polygon fill="white" stroke="#666666" points="542,-395 415,-395 415,-376 542,-376 542,-395"/>
<text text-anchor="middle" x="478.5" y="-383" font-family="Roboto" font-size="10.00">Urho3D::Node::GetParent</text>
</a>
</g>
</g>
<!-- Node2&#45;&gt;Node5 -->
<g id="edge5" class="edge">
<title>Node2&#45;&gt;Node5</title>
<path fill="none" stroke="#63b8ff" d="M366.39,-385.5C378.72,-385.5 391.28,-385.5 403.31,-385.5"/>
<polygon fill="#63b8ff" stroke="#63b8ff" points="403.14,-389 413.14,-385.5 403.14,-382 403.14,-389"/>
</g>
<!-- Node4 -->
<g id="node4" class="node">
<title>Node4</title>
<g id="a_node4"><a xlink:href="class_urho3_d_1_1_component.html#a6070c8208ad98595d8c3fe43778d6069" target="_top" xlink:title="Return component in the same scene node by type. If there are several, returns the first.">
<polygon fill="white" stroke="#666666" points="717.5,-437.5 606.5,-437.5 606.5,-407.5 717.5,-407.5 717.5,-437.5"/>
<text text-anchor="start" x="614.5" y="-425.5" font-family="Roboto" font-size="10.00">Urho3D::Component::</text>
<text text-anchor="middle" x="662" y="-414.5" font-family="Roboto" font-size="10.00">GetComponent</text>
</a>
</g>
</g>
<!-- Node3&#45;&gt;Node4 -->
<g id="edge3" class="edge">
<title>Node3&#45;&gt;Node4</title>
<path fill="none" stroke="#63b8ff" d="M554.37,-415.84C567.81,-415.68 581.74,-415.73 594.91,-415.98"/>
<polygon fill="#63b8ff" stroke="#63b8ff" points="594.67,-419.47 604.75,-416.21 594.84,-412.47 594.67,-419.47"/>
</g>
<!-- Node4&#45;&gt;Node3 -->
<g id="edge4" class="edge">
<title>Node4&#45;&gt;Node3</title>
<path fill="none" stroke="#63b8ff" d="M606.26,-428.75C593.51,-429.12 579.62,-429.29 565.86,-429.24"/>
<polygon fill="#63b8ff" stroke="#63b8ff" points="565.91,-425.74 555.88,-429.17 565.86,-432.74 565.91,-425.74"/>
</g>
<!-- Node8 -->
<g id="node8" class="node">
<title>Node8</title>
<g id="a_node8"><a xlink:href="class_urho3_d_1_1_component.html#aafa7952d0f225edde3387da0c91a9356" target="_top" xlink:title=" ">
<polygon fill="white" stroke="#666666" points="534,-357.5 423,-357.5 423,-327.5 534,-327.5 534,-357.5"/>
<text text-anchor="start" x="431" y="-345.5" font-family="Roboto" font-size="10.00">Urho3D::Component::</text>
<text text-anchor="middle" x="478.5" y="-334.5" font-family="Roboto" font-size="10.00">IsEnabledEffective</text>
</a>
</g>
</g>
<!-- Node7&#45;&gt;Node8 -->
<g id="edge8" class="edge">
<title>Node7&#45;&gt;Node8</title>
<path fill="none" stroke="#63b8ff" d="M341.33,-313.9C363.73,-318.61 388.92,-323.9 411.49,-328.64"/>
<polygon fill="#63b8ff" stroke="#63b8ff" points="410.69,-332.05 421.2,-330.68 412.13,-325.2 410.69,-332.05"/>
</g>
<!-- Node9 -->
<g id="node9" class="node">
<title>Node9</title>
<g id="a_node9"><a xlink:href="class_urho3_d_1_1_node.html#a36ffa108037ab29617bf178fcb4ec1da" target="_top" xlink:title=" ">
<polygon fill="white" stroke="#666666" points="726,-352 598,-352 598,-333 726,-333 726,-352"/>
<text text-anchor="middle" x="662" y="-340" font-family="Roboto" font-size="10.00">Urho3D::Node::IsEnabled</text>
</a>
</g>
</g>
<!-- Node8&#45;&gt;Node9 -->
<g id="edge9" class="edge">
<title>Node8&#45;&gt;Node9</title>
<path fill="none" stroke="#63b8ff" d="M534.45,-342.5C550.8,-342.5 568.99,-342.5 586.37,-342.5"/>
<polygon fill="#63b8ff" stroke="#63b8ff" points="586.13,-346 596.13,-342.5 586.13,-339 586.13,-346"/>
</g>
<!-- Node11 -->
<g id="node11" class="node">
<title>Node11</title>
<g id="a_node11"><a xlink:href="class_urho3_d_1_1_context.html#ae3e0c5db85e2395f3d34941003c816ad" target="_top" xlink:title="Add event receiver.">
<polygon fill="white" stroke="#666666" points="546.5,-309.5 410.5,-309.5 410.5,-279.5 546.5,-279.5 546.5,-309.5"/>
<text text-anchor="start" x="418.5" y="-297.5" font-family="Roboto" font-size="10.00">Urho3D::Context::AddEvent</text>
<text text-anchor="middle" x="478.5" y="-286.5" font-family="Roboto" font-size="10.00">Receiver</text>
</a>
</g>
</g>
<!-- Node10&#45;&gt;Node11 -->
<g id="edge11" class="edge">
<title>Node10&#45;&gt;Node11</title>
<path fill="none" stroke="#63b8ff" d="M342.43,-264.11C360.47,-268.17 380.24,-272.62 398.96,-276.83"/>
<polygon fill="#63b8ff" stroke="#63b8ff" points="398.14,-280.23 408.67,-279.01 399.68,-273.4 398.14,-280.23"/>
</g>
<!-- Node12 -->
<g id="node12" class="node">
<title>Node12</title>
<g id="a_node12"><a xlink:href="class_urho3_d_1_1_object.html#ad9d3702ab78a9d8a8ddad6aae7144abb" target="_top" xlink:title="Find the first event handler with specific sender.">
<polygon fill="white" stroke="#666666" points="548.5,-261.5 408.5,-261.5 408.5,-231.5 548.5,-231.5 548.5,-261.5"/>
<text text-anchor="start" x="416.5" y="-249.5" font-family="Roboto" font-size="10.00">Urho3D::Object::FindSpecific</text>
<text text-anchor="middle" x="478.5" y="-238.5" font-family="Roboto" font-size="10.00">EventHandler</text>
</a>
</g>
</g>
<!-- Node10&#45;&gt;Node12 -->
<g id="edge12" class="edge">
<title>Node10&#45;&gt;Node12</title>
<path fill="none" stroke="#63b8ff" d="M342.43,-248.53C359.73,-248.27 378.63,-247.98 396.67,-247.71"/>
<polygon fill="#63b8ff" stroke="#63b8ff" points="396.61,-251.21 406.55,-247.56 396.5,-244.21 396.61,-251.21"/>
</g>
<!-- Node14 -->
<g id="node14" class="node">
<title>Node14</title>
<g id="a_node14"><a xlink:href="class_urho3_d_1_1_event_handler.html#abe76f0245895dadac146b7a4b7d78713" target="_top" xlink:title="Set sender and event type.">
<polygon fill="white" stroke="#666666" points="542.5,-213.5 414.5,-213.5 414.5,-183.5 542.5,-183.5 542.5,-213.5"/>
<text text-anchor="start" x="422.5" y="-201.5" font-family="Roboto" font-size="10.00">Urho3D::EventHandler</text>
<text text-anchor="middle" x="478.5" y="-190.5" font-family="Roboto" font-size="10.00">::SetSenderAndEventType</text>
</a>
</g>
</g>
<!-- Node10&#45;&gt;Node14 -->
<g id="edge14" class="edge">
<title>Node10&#45;&gt;Node14</title>
<path fill="none" stroke="#63b8ff" d="M338.05,-234.06C359.39,-228.62 383.59,-222.45 405.77,-216.79"/>
<polygon fill="#63b8ff" stroke="#63b8ff" points="406.52,-220.21 415.34,-214.35 404.79,-213.43 406.52,-220.21"/>
</g>
<!-- Node13 -->
<g id="node13" class="node">
<title>Node13</title>
<g id="a_node13"><a xlink:href="class_urho3_d_1_1_event_handler.html#a18d3379ef44dac87304f2b118e36c83e" target="_top" xlink:title="Return event sender. Null if the handler is non&#45;specific.">
<polygon fill="white" stroke="#666666" points="718.5,-218.5 605.5,-218.5 605.5,-188.5 718.5,-188.5 718.5,-218.5"/>
<text text-anchor="start" x="613.5" y="-206.5" font-family="Roboto" font-size="10.00">Urho3D::EventHandler</text>
<text text-anchor="middle" x="662" y="-195.5" font-family="Roboto" font-size="10.00">::GetSender</text>
</a>
</g>
</g>
<!-- Node12&#45;&gt;Node13 -->
<g id="edge13" class="edge">
<title>Node12&#45;&gt;Node13</title>
<path fill="none" stroke="#63b8ff" d="M544.77,-231.04C560.79,-227.24 577.96,-223.17 594.06,-219.36"/>
<polygon fill="#63b8ff" stroke="#63b8ff" points="594.61,-222.83 603.53,-217.12 592.99,-216.02 594.61,-222.83"/>
</g>
<!-- Node15&#45;&gt;Node13 -->
<g id="edge18" class="edge">
<title>Node15&#45;&gt;Node13</title>
<path fill="none" stroke="#63b8ff" d="M347.77,-142.19C404.12,-148.94 485.07,-159.95 555,-174.5 569.29,-177.47 584.5,-181.26 598.82,-185.11"/>
<polygon fill="#63b8ff" stroke="#63b8ff" points="597.52,-188.38 608.09,-187.65 599.37,-181.63 597.52,-188.38"/>
</g>
<!-- Node16 -->
<g id="node16" class="node">
<title>Node16</title>
<g id="a_node16"><a xlink:href="class_urho3_d_1_1_object.html#a00bec56f305dd6636d186e5b351d0264" target="_top" xlink:title="Find the first event handler with no specific sender.">
<polygon fill="white" stroke="#666666" points="543,-127.5 414,-127.5 414,-97.5 543,-97.5 543,-127.5"/>
<text text-anchor="start" x="422" y="-115.5" font-family="Roboto" font-size="10.00">Urho3D::Object::FindEvent</text>
<text text-anchor="middle" x="478.5" y="-104.5" font-family="Roboto" font-size="10.00">Handler</text>
</a>
</g>
</g>
<!-- Node15&#45;&gt;Node16 -->
<g id="edge16" class="edge">
<title>Node15&#45;&gt;Node16</title>
<path fill="none" stroke="#63b8ff" d="M347.73,-126.77C365.45,-124.83 384.54,-122.73 402.49,-120.75"/>
<polygon fill="#63b8ff" stroke="#63b8ff" points="402.72,-124.25 412.28,-119.67 401.96,-117.29 402.72,-124.25"/>
</g>
<!-- Node18 -->
<g id="node18" class="node">
<title>Node18</title>
<g id="a_node18"><a xlink:href="class_urho3_d_1_1_context.html#a7b5bd076e695054df7930255c3eee18b" target="_top" xlink:title="Remove event receiver from specific events.">
<polygon fill="white" stroke="#666666" points="555,-79.5 402,-79.5 402,-49.5 555,-49.5 555,-79.5"/>
<text text-anchor="start" x="410" y="-67.5" font-family="Roboto" font-size="10.00">Urho3D::Context::RemoveEvent</text>
<text text-anchor="middle" x="478.5" y="-56.5" font-family="Roboto" font-size="10.00">Receiver</text>
</a>
</g>
</g>
<!-- Node15&#45;&gt;Node18 -->
<g id="edge19" class="edge">
<title>Node15&#45;&gt;Node18</title>
<path fill="none" stroke="#63b8ff" d="M317.98,-119.01C342.25,-109.85 373.78,-98.19 402,-88.5 406.94,-86.8 412.08,-85.08 417.25,-83.38"/>
<polygon fill="#63b8ff" stroke="#63b8ff" points="417.98,-86.82 426.41,-80.39 415.81,-80.16 417.98,-86.82"/>
</g>
<!-- Node17 -->
<g id="node17" class="node">
<title>Node17</title>
<g id="a_node17"><a xlink:href="class_urho3_d_1_1_event_handler.html#ae09d06f06d3590e6f4e06006efa90176" target="_top" xlink:title="Return event type.">
<polygon fill="white" stroke="#666666" points="718.5,-127.5 605.5,-127.5 605.5,-97.5 718.5,-97.5 718.5,-127.5"/>
<text text-anchor="start" x="613.5" y="-115.5" font-family="Roboto" font-size="10.00">Urho3D::EventHandler</text>
<text text-anchor="middle" x="662" y="-104.5" font-family="Roboto" font-size="10.00">::GetEventType</text>
</a>
</g>
</g>
<!-- Node16&#45;&gt;Node17 -->
<g id="edge17" class="edge">
<title>Node16&#45;&gt;Node17</title>
<path fill="none" stroke="#63b8ff" d="M543.49,-112.5C559.83,-112.5 577.43,-112.5 593.92,-112.5"/>
<polygon fill="#63b8ff" stroke="#63b8ff" points="593.61,-116 603.61,-112.5 593.61,-109 593.61,-116"/>
</g>
<!-- Node19 -->
<g id="node19" class="node">
<title>Node19</title>
<g id="a_node19"><a xlink:href="class_urho3_d_1_1_context.html#a1b685db14efe388bbf40ec5c27bab7eb" target="_top" xlink:title="Return event receivers for a sender and event type, or null if they do not exist.">
<polygon fill="white" stroke="#666666" points="728,-79.5 596,-79.5 596,-49.5 728,-49.5 728,-79.5"/>
<text text-anchor="start" x="604" y="-67.5" font-family="Roboto" font-size="10.00">Urho3D::Context::GetEvent</text>
<text text-anchor="middle" x="662" y="-56.5" font-family="Roboto" font-size="10.00">Receivers</text>
</a>
</g>
</g>
<!-- Node18&#45;&gt;Node19 -->
<g id="edge20" class="edge">
<title>Node18&#45;&gt;Node19</title>
<path fill="none" stroke="#63b8ff" d="M555.42,-64.5C564.95,-64.5 574.71,-64.5 584.25,-64.5"/>
<polygon fill="#63b8ff" stroke="#63b8ff" points="584.24,-68 594.24,-64.5 584.24,-61 584.24,-68"/>
</g>
<!-- Node28 -->
<g id="node25" class="node">
<title>Node28</title>
<g id="a_node25"><a xlink:href="class_urho3_d_1_1_event_receiver_group.html#a3074ee82cc374a0a9145fe8847086022" target="_top" xlink:title="Remove receiver. Leave holes during send, which requires later cleanup.">
<polygon fill="white" stroke="#666666" points="733,-31.5 591,-31.5 591,-1.5 733,-1.5 733,-31.5"/>
<text text-anchor="start" x="599" y="-19.5" font-family="Roboto" font-size="10.00">Urho3D::EventReceiverGroup</text>
<text text-anchor="middle" x="662" y="-8.5" font-family="Roboto" font-size="10.00">::Remove</text>
</a>
</g>
</g>
<!-- Node18&#45;&gt;Node28 -->
<g id="edge27" class="edge">
<title>Node18&#45;&gt;Node28</title>
<path fill="none" stroke="#63b8ff" d="M537.93,-49.05C555.09,-44.51 574.03,-39.5 591.8,-34.8"/>
<polygon fill="#63b8ff" stroke="#63b8ff" points="592.45,-38.25 601.22,-32.31 590.66,-31.48 592.45,-38.25"/>
</g>
<!-- Node20 -->
<g id="node20" class="node">
<title>Node20</title>
<g id="a_node20"><a xlink:href="class_urho3_d_1_1_hash_map.html#a47eb201d8441d4e4be8626e615cb562d" target="_top" xlink:title="Return iterator to the end.">
<polygon fill="white" stroke="#666666" points="1058.5,-93 939.5,-93 939.5,-74 1058.5,-74 1058.5,-93"/>
<text text-anchor="middle" x="999" y="-81" font-family="Roboto" font-size="10.00">Urho3D::HashMap::End</text>
</a>
</g>
</g>
<!-- Node19&#45;&gt;Node20 -->
<g id="edge21" class="edge">
<title>Node19&#45;&gt;Node20</title>
<path fill="none" stroke="#63b8ff" d="M728.39,-68.21C785.78,-71.46 869.03,-76.19 927.81,-79.52"/>
<polygon fill="#63b8ff" stroke="#63b8ff" points="927.53,-83.01 937.71,-80.08 927.93,-76.02 927.53,-83.01"/>
</g>
<!-- Node22 -->
<g id="node22" class="node">
<title>Node22</title>
<g id="a_node22"><a xlink:href="class_urho3_d_1_1_hash_map.html#a9dc4e5c0ad1feb3eec2d2f1f1714698d" target="_top" xlink:title="Return iterator to the pair with key, or end iterator if not found.">
<polygon fill="white" stroke="#666666" points="890,-55 769,-55 769,-36 890,-36 890,-55"/>
<text text-anchor="middle" x="829.5" y="-43" font-family="Roboto" font-size="10.00">Urho3D::HashMap::Find</text>
</a>
</g>
</g>
<!-- Node19&#45;&gt;Node22 -->
<g id="edge23" class="edge">
<title>Node19&#45;&gt;Node22</title>
<path fill="none" stroke="#63b8ff" d="M728.41,-56.99C737.96,-55.89 747.82,-54.76 757.48,-53.65"/>
<polygon fill="#63b8ff" stroke="#63b8ff" points="757.63,-57.16 767.17,-52.54 756.84,-50.2 757.63,-57.16"/>
</g>
<!-- Node21 -->
<g id="node21" class="node">
<title>Node21</title>
<g id="a_node21"><a xlink:href="class_urho3_d_1_1_hash_map.html#ac7ee3646e27a2a7710ab5786cb0b7c73" target="_top" xlink:title="Return the tail node.">
<polygon fill="white" stroke="#666666" points="1225,-93 1108,-93 1108,-74 1225,-74 1225,-93"/>
<text text-anchor="middle" x="1166.5" y="-81" font-family="Roboto" font-size="10.00">Urho3D::HashMap::Tail</text>
</a>
</g>
</g>
<!-- Node20&#45;&gt;Node21 -->
<g id="edge22" class="edge">
<title>Node20&#45;&gt;Node21</title>
<path fill="none" stroke="#63b8ff" d="M1058.82,-83.5C1070.98,-83.5 1083.9,-83.5 1096.39,-83.5"/>
<polygon fill="#63b8ff" stroke="#63b8ff" points="1096.2,-87 1106.2,-83.5 1096.2,-80 1096.2,-87"/>
</g>
<!-- Node22&#45;&gt;Node20 -->
<g id="edge24" class="edge">
<title>Node22&#45;&gt;Node20</title>
<path fill="none" stroke="#63b8ff" d="M874.51,-55.48C895.49,-60.24 920.8,-65.99 943.03,-71.03"/>
<polygon fill="#63b8ff" stroke="#63b8ff" points="941.99,-74.38 952.52,-73.18 943.54,-67.56 941.99,-74.38"/>
</g>
<!-- Node23 -->
<g id="node23" class="node">
<title>Node23</title>
<g id="a_node23"><a xlink:href="class_urho3_d_1_1_hash_map.html#a85f871cbe77f2d780e1a169f19936ad8" target="_top" xlink:title="Find a node from the buckets. Do not call if the buckets have not been allocated.">
<polygon fill="#fff0f0" stroke="red" points="1072,-56 926,-56 926,-37 1072,-37 1072,-56"/>
<text text-anchor="middle" x="999" y="-44" font-family="Roboto" font-size="10.00">Urho3D::HashMap::FindNode</text>
</a>
</g>
</g>
<!-- Node22&#45;&gt;Node23 -->
<g id="edge25" class="edge">
<title>Node22&#45;&gt;Node23</title>
<path fill="none" stroke="#63b8ff" d="M890.5,-45.86C898.22,-45.9 906.23,-45.95 914.25,-46"/>
<polygon fill="#63b8ff" stroke="#63b8ff" points="914.01,-49.5 924.03,-46.06 914.05,-42.5 914.01,-49.5"/>
</g>
<!-- Node26 -->
<g id="node24" class="node">
<title>Node26</title>
<g id="a_node24"><a xlink:href="class_urho3_d_1_1_hash_map.html#a6baa78766271c323b914fd2e6ca70c66" target="_top" xlink:title="Compute a hash based on the key and the bucket size.">
<polygon fill="#fff0f0" stroke="red" points="1061.5,-19 936.5,-19 936.5,0 1061.5,0 1061.5,-19"/>
<text text-anchor="middle" x="999" y="-7" font-family="Roboto" font-size="10.00">Urho3D::HashMap::Hash</text>
</a>
</g>
</g>
<!-- Node22&#45;&gt;Node26 -->
<g id="edge26" class="edge">
<title>Node22&#45;&gt;Node26</title>
<path fill="none" stroke="#63b8ff" d="M876.71,-35.57C896.5,-31.32 919.8,-26.31 940.67,-21.82"/>
<polygon fill="#63b8ff" stroke="#63b8ff" points="941.13,-25.3 950.17,-19.78 939.65,-18.46 941.13,-25.3"/>
</g>
</g>
</svg>
