<?xml version="1.0" encoding="UTF-8" standalone="no"?>
<!DOCTYPE svg PUBLIC "-//W3C//DTD SVG 1.1//EN"
 "http://www.w3.org/Graphics/SVG/1.1/DTD/svg11.dtd">
<!-- Generated by graphviz version 7.0.3 (0)
 -->
<!-- Title: Urho3D::View3D::RegisterObject Pages: 1 -->
<svg width="484pt" height="113pt"
 viewBox="0.00 0.00 484.00 113.00" xmlns="http://www.w3.org/2000/svg" xmlns:xlink="http://www.w3.org/1999/xlink">
<g id="graph0" class="graph" transform="scale(1 1) rotate(0) translate(4 109)">
<title>Urho3D::View3D::RegisterObject</title>
<!-- Node1 -->
<g id="node1" class="node">
<title>Node1</title>
<g id="a_node1"><a xlink:title=" ">
<polygon fill="#999999" stroke="#666666" points="128,-67.5 0,-67.5 0,-37.5 128,-37.5 128,-67.5"/>
<text text-anchor="start" x="8" y="-55.5" font-family="Roboto" font-size="10.00">Urho3D::View3D::Register</text>
<text text-anchor="middle" x="64" y="-44.5" font-family="Roboto" font-size="10.00">Object</text>
</a>
</g>
</g>
<!-- Node2 -->
<g id="node2" class="node">
<title>Node2</title>
<g id="a_node2"><a xlink:href="class_urho3_d_1_1_view3_d.html#a05443947130236acae5af8b68052792b" target="_top" xlink:title=" ">
<polygon fill="white" stroke="#666666" points="324,-105 164,-105 164,-86 324,-86 324,-105"/>
<text text-anchor="middle" x="244" y="-93" font-family="Roboto" font-size="10.00">Urho3D::View3D::GetAutoUpdate</text>
</a>
</g>
</g>
<!-- Node1&#45;&gt;Node2 -->
<g id="edge1" class="edge">
<title>Node1&#45;&gt;Node2</title>
<path fill="none" stroke="#63b8ff" d="M128.37,-67.88C140.21,-70.75 152.48,-73.72 164,-76.5 172.58,-78.57 181.69,-80.77 190.55,-82.9"/>
<polygon fill="#63b8ff" stroke="#63b8ff" points="189.57,-86.26 200.11,-85.2 191.21,-79.46 189.57,-86.26"/>
</g>
<!-- Node3 -->
<g id="node3" class="node">
<title>Node3</title>
<g id="a_node3"><a xlink:href="class_urho3_d_1_1_context.html#aa9b2cffef8d52fa18bfe533a2615a598" target="_top" xlink:title="Register a factory for an object type.">
<polygon fill="white" stroke="#666666" points="309,-67.5 179,-67.5 179,-37.5 309,-37.5 309,-67.5"/>
<text text-anchor="start" x="187" y="-55.5" font-family="Roboto" font-size="10.00">Urho3D::Context::Register</text>
<text text-anchor="middle" x="244" y="-44.5" font-family="Roboto" font-size="10.00">Factory</text>
</a>
</g>
</g>
<!-- Node1&#45;&gt;Node3 -->
<g id="edge2" class="edge">
<title>Node1&#45;&gt;Node3</title>
<path fill="none" stroke="#63b8ff" d="M128.26,-52.5C140.93,-52.5 154.37,-52.5 167.41,-52.5"/>
<polygon fill="#63b8ff" stroke="#63b8ff" points="167.23,-56 177.23,-52.5 167.23,-49 167.23,-56"/>
</g>
<!-- Node5 -->
<g id="node5" class="node">
<title>Node5</title>
<g id="a_node5"><a xlink:href="class_urho3_d_1_1_view3_d.html#aa9264b2d957319c70c8f933c5bb53942" target="_top" xlink:title=" ">
<polygon fill="white" stroke="#666666" points="323.5,-19 164.5,-19 164.5,0 323.5,0 323.5,-19"/>
<text text-anchor="middle" x="244" y="-7" font-family="Roboto" font-size="10.00">Urho3D::View3D::SetAutoUpdate</text>
</a>
</g>
</g>
<!-- Node1&#45;&gt;Node5 -->
<g id="edge4" class="edge">
<title>Node1&#45;&gt;Node5</title>
<path fill="none" stroke="#63b8ff" d="M128.37,-37.12C140.21,-34.25 152.48,-31.28 164,-28.5 172.58,-26.43 181.69,-24.23 190.55,-22.1"/>
<polygon fill="#63b8ff" stroke="#63b8ff" points="191.21,-25.54 200.11,-19.8 189.57,-18.74 191.21,-25.54"/>
</g>
<!-- Node4 -->
<g id="node4" class="node">
<title>Node4</title>
<g id="a_node4"><a xlink:href="class_urho3_d_1_1_object_factory.html#a191ee9fd0ce7c127dfd92b2b9ae47709" target="_top" xlink:title="Return type hash of objects created by this factory.">
<polygon fill="white" stroke="#666666" points="476,-67.5 360,-67.5 360,-37.5 476,-37.5 476,-67.5"/>
<text text-anchor="start" x="368" y="-55.5" font-family="Roboto" font-size="10.00">Urho3D::ObjectFactory</text>
<text text-anchor="middle" x="418" y="-44.5" font-family="Roboto" font-size="10.00">::GetType</text>
</a>
</g>
</g>
<!-- Node3&#45;&gt;Node4 -->
<g id="edge3" class="edge">
<title>Node3&#45;&gt;Node4</title>
<path fill="none" stroke="#63b8ff" d="M309.05,-52.5C321.9,-52.5 335.46,-52.5 348.45,-52.5"/>
<polygon fill="#63b8ff" stroke="#63b8ff" points="348.19,-56 358.19,-52.5 348.19,-49 348.19,-56"/>
</g>
</g>
</svg>
