<?xml version="1.0" encoding="UTF-8" standalone="no"?>
<!DOCTYPE svg PUBLIC "-//W3C//DTD SVG 1.1//EN"
 "http://www.w3.org/Graphics/SVG/1.1/DTD/svg11.dtd">
<!-- Generated by graphviz version 7.0.3 (0)
 -->
<!-- Title: Urho3D::Light::SetUsePhysicalValues Pages: 1 -->
<svg width="673pt" height="152pt"
 viewBox="0.00 0.00 673.00 152.00" xmlns="http://www.w3.org/2000/svg" xmlns:xlink="http://www.w3.org/1999/xlink">
<g id="graph0" class="graph" transform="scale(1 1) rotate(0) translate(4 148)">
<title>Urho3D::Light::SetUsePhysicalValues</title>
<!-- Node1 -->
<g id="node1" class="node">
<title>Node1</title>
<g id="a_node1"><a xlink:title=" ">
<polygon fill="#999999" stroke="#666666" points="148,-96 0,-96 0,-66 148,-66 148,-96"/>
<text text-anchor="start" x="8" y="-84" font-family="Roboto" font-size="10.00">Urho3D::Light::SetUsePhysical</text>
<text text-anchor="middle" x="74" y="-73" font-family="Roboto" font-size="10.00">Values</text>
</a>
</g>
</g>
<!-- Node2 -->
<g id="node2" class="node">
<title>Node2</title>
<g id="a_node2"><a xlink:href="class_urho3_d_1_1_component.html#aaf87acb64001774c62f0784254f9b291" target="_top" xlink:title="Mark for attribute check on the next network update.">
<polygon fill="white" stroke="#666666" points="295,-96 184,-96 184,-66 295,-66 295,-96"/>
<text text-anchor="start" x="192" y="-84" font-family="Roboto" font-size="10.00">Urho3D::Component::</text>
<text text-anchor="middle" x="239.5" y="-73" font-family="Roboto" font-size="10.00">MarkNetworkUpdate</text>
</a>
</g>
</g>
<!-- Node1&#45;&gt;Node2 -->
<g id="edge1" class="edge">
<title>Node1&#45;&gt;Node2</title>
<path fill="none" stroke="#63b8ff" d="M148.14,-81C156.14,-81 164.25,-81 172.16,-81"/>
<polygon fill="#63b8ff" stroke="#63b8ff" points="172.05,-84.5 182.05,-81 172.05,-77.5 172.05,-84.5"/>
</g>
<!-- Node3 -->
<g id="node3" class="node">
<title>Node3</title>
<g id="a_node3"><a xlink:href="class_urho3_d_1_1_component.html#a2c22f727341671a0420934f249ffe059" target="_top" xlink:title="Return the scene the node belongs to.">
<polygon fill="white" stroke="#666666" points="460.5,-144 349.5,-144 349.5,-114 460.5,-114 460.5,-144"/>
<text text-anchor="start" x="357.5" y="-132" font-family="Roboto" font-size="10.00">Urho3D::Component::</text>
<text text-anchor="middle" x="405" y="-121" font-family="Roboto" font-size="10.00">GetScene</text>
</a>
</g>
</g>
<!-- Node2&#45;&gt;Node3 -->
<g id="edge2" class="edge">
<title>Node2&#45;&gt;Node3</title>
<path fill="none" stroke="#63b8ff" d="M293.13,-96.45C308.3,-100.91 325.01,-105.81 340.75,-110.43"/>
<polygon fill="#63b8ff" stroke="#63b8ff" points="339.43,-113.69 350.01,-113.15 341.4,-106.98 339.43,-113.69"/>
</g>
<!-- Node5 -->
<g id="node5" class="node">
<title>Node5</title>
<g id="a_node5"><a xlink:href="class_urho3_d_1_1_component.html#a8f1388c232ca01b7c7328c761aae6e76" target="_top" xlink:title=" ">
<polygon fill="white" stroke="#666666" points="460.5,-96 349.5,-96 349.5,-66 460.5,-66 460.5,-96"/>
<text text-anchor="start" x="357.5" y="-84" font-family="Roboto" font-size="10.00">Urho3D::Component::</text>
<text text-anchor="middle" x="405" y="-73" font-family="Roboto" font-size="10.00">IsReplicated</text>
</a>
</g>
</g>
<!-- Node2&#45;&gt;Node5 -->
<g id="edge4" class="edge">
<title>Node2&#45;&gt;Node5</title>
<path fill="none" stroke="#63b8ff" d="M295.4,-81C309.09,-81 323.91,-81 338.07,-81"/>
<polygon fill="#63b8ff" stroke="#63b8ff" points="337.73,-84.5 347.73,-81 337.73,-77.5 337.73,-84.5"/>
</g>
<!-- Node7 -->
<g id="node7" class="node">
<title>Node7</title>
<g id="a_node7"><a xlink:href="class_urho3_d_1_1_scene.html#a00b724dfff718639b9de12d71139499c" target="_top" xlink:title="Mark for attribute check on the next network update.">
<polygon fill="white" stroke="#666666" points="479,-30 331,-30 331,0 479,0 479,-30"/>
<text text-anchor="start" x="339" y="-18" font-family="Roboto" font-size="10.00">Urho3D::Scene::MarkNetwork</text>
<text text-anchor="middle" x="405" y="-7" font-family="Roboto" font-size="10.00">Update</text>
</a>
</g>
</g>
<!-- Node2&#45;&gt;Node7 -->
<g id="edge6" class="edge">
<title>Node2&#45;&gt;Node7</title>
<path fill="none" stroke="#63b8ff" d="M278.83,-65.53C301.61,-56.33 330.72,-44.58 355.13,-34.73"/>
<polygon fill="#63b8ff" stroke="#63b8ff" points="356.26,-38.05 364.22,-31.06 353.64,-31.56 356.26,-38.05"/>
</g>
<!-- Node4 -->
<g id="node4" class="node">
<title>Node4</title>
<g id="a_node4"><a xlink:href="class_urho3_d_1_1_node.html#ad3742cda838a2b291daa44d3ab00de56" target="_top" xlink:title=" ">
<polygon fill="white" stroke="#666666" points="653,-138.5 527,-138.5 527,-119.5 653,-119.5 653,-138.5"/>
<text text-anchor="middle" x="590" y="-126.5" font-family="Roboto" font-size="10.00">Urho3D::Node::GetScene</text>
</a>
</g>
</g>
<!-- Node3&#45;&gt;Node4 -->
<g id="edge3" class="edge">
<title>Node3&#45;&gt;Node4</title>
<path fill="none" stroke="#63b8ff" d="M460.91,-129C478,-129 497.14,-129 515.3,-129"/>
<polygon fill="#63b8ff" stroke="#63b8ff" points="515.24,-132.5 525.24,-129 515.24,-125.5 515.24,-132.5"/>
</g>
<!-- Node6 -->
<g id="node6" class="node">
<title>Node6</title>
<g id="a_node6"><a xlink:href="class_urho3_d_1_1_scene.html#a97fb1222bd2f38e6c1c433c0b7e54d40" target="_top" xlink:title="Return whether the specified id is a replicated id.">
<polygon fill="white" stroke="#666666" points="665,-90.5 515,-90.5 515,-71.5 665,-71.5 665,-90.5"/>
<text text-anchor="middle" x="590" y="-78.5" font-family="Roboto" font-size="10.00">Urho3D::Scene::IsReplicatedID</text>
</a>
</g>
</g>
<!-- Node5&#45;&gt;Node6 -->
<g id="edge5" class="edge">
<title>Node5&#45;&gt;Node6</title>
<path fill="none" stroke="#63b8ff" d="M460.91,-81C474.2,-81 488.72,-81 503.07,-81"/>
<polygon fill="#63b8ff" stroke="#63b8ff" points="502.99,-84.5 512.99,-81 502.99,-77.5 502.99,-84.5"/>
</g>
<!-- Node7&#45;&gt;Node7 -->
<g id="edge7" class="edge">
<title>Node7&#45;&gt;Node7</title>
<path fill="none" stroke="#63b8ff" d="M375.91,-30.28C369.44,-39.41 379.14,-48 405,-48 419.14,-48 428.45,-45.43 432.92,-41.61"/>
<polygon fill="#63b8ff" stroke="#63b8ff" points="436.39,-42.09 433.94,-31.78 429.43,-41.37 436.39,-42.09"/>
</g>
</g>
</svg>
