<?xml version="1.0" encoding="UTF-8" standalone="no"?>
<!DOCTYPE svg PUBLIC "-//W3C//DTD SVG 1.1//EN"
 "http://www.w3.org/Graphics/SVG/1.1/DTD/svg11.dtd">
<!-- Generated by graphviz version 7.0.3 (0)
 -->
<!-- Title: Urho3D::ShaderPrecache Pages: 1 -->
<svg width="1270pt" height="1024pt"
 viewBox="0.00 0.00 1270.00 1024.33" xmlns="http://www.w3.org/2000/svg" xmlns:xlink="http://www.w3.org/1999/xlink">
<g id="graph0" class="graph" transform="scale(1 1) rotate(0) translate(4 1020.33)">
<title>Urho3D::ShaderPrecache</title>
<!-- Node1 -->
<g id="node1" class="node">
<title>Node1</title>
<g id="a_node1"><a xlink:title="Utility class for collecting used shader combinations during runtime for precaching.">
<polygon fill="#999999" stroke="#666666" points="1262,-850.33 1135,-850.33 1135,-831.33 1262,-831.33 1262,-850.33"/>
<text text-anchor="middle" x="1198.5" y="-838.33" font-family="Roboto" font-size="10.00">Urho3D::ShaderPrecache</text>
</a>
</g>
</g>
<!-- Node2 -->
<g id="node2" class="node">
<title>Node2</title>
<g id="a_node2"><a xlink:href="class_urho3_d_1_1_object.html" target="_top" xlink:title=" ">
<polygon fill="white" stroke="#666666" points="415.5,-747.33 332.5,-747.33 332.5,-728.33 415.5,-728.33 415.5,-747.33"/>
<text text-anchor="middle" x="374" y="-735.33" font-family="Roboto" font-size="10.00">Urho3D::Object</text>
</a>
</g>
</g>
<!-- Node2&#45;&gt;Node1 -->
<g id="edge1" class="edge">
<title>Node2&#45;&gt;Node1</title>
<path fill="none" stroke="#63b8ff" d="M387.6,-756.66C399.94,-773.54 420.31,-797.64 444,-810.83 472.94,-826.95 484.09,-822.12 517,-825.83 743.34,-851.37 1014.62,-846.95 1134.86,-843.21"/>
<polygon fill="#63b8ff" stroke="#63b8ff" points="390.78,-755.09 382.17,-748.92 385.05,-759.11 390.78,-755.09"/>
</g>
<!-- Node18 -->
<g id="node14" class="node">
<title>Node18</title>
<g id="a_node14"><a xlink:href="class_urho3_d_1_1_event_handler.html" target="_top" xlink:title="Internal helper class for invoking event handler functions.">
<polygon fill="#fff0f0" stroke="red" points="684,-758.33 571,-758.33 571,-739.33 684,-739.33 684,-758.33"/>
<text text-anchor="middle" x="627.5" y="-746.33" font-family="Roboto" font-size="10.00">Urho3D::EventHandler</text>
</a>
</g>
</g>
<!-- Node2&#45;&gt;Node18 -->
<g id="edge19" class="edge">
<title>Node2&#45;&gt;Node18</title>
<path fill="none" stroke="#9a32cd" stroke-dasharray="5,2" d="M427.31,-735.32C432.94,-735.12 438.59,-734.95 444,-734.83 468.44,-734.3 474.59,-733.5 499,-734.83 522.57,-736.12 548.48,-738.74 570.75,-741.37"/>
<polygon fill="#9a32cd" stroke="#9a32cd" points="427.22,-731.82 417.37,-735.7 427.49,-738.81 427.22,-731.82"/>
<text text-anchor="middle" x="471.5" y="-748.83" font-family="Roboto" font-size="10.00"> receiver_</text>
<text text-anchor="middle" x="471.5" y="-737.83" font-family="Roboto" font-size="10.00">sender_</text>
</g>
<!-- Node26 -->
<g id="node21" class="node">
<title>Node26</title>
<g id="a_node21"><a xlink:href="class_urho3_d_1_1_resource.html" target="_top" xlink:title=" ">
<polygon fill="white" stroke="#666666" points="675.5,-936.33 579.5,-936.33 579.5,-917.33 675.5,-917.33 675.5,-936.33"/>
<text text-anchor="middle" x="627.5" y="-924.33" font-family="Roboto" font-size="10.00">Urho3D::Resource</text>
</a>
</g>
</g>
<!-- Node2&#45;&gt;Node26 -->
<g id="edge32" class="edge">
<title>Node2&#45;&gt;Node26</title>
<path fill="none" stroke="#63b8ff" d="M392.36,-756C403.13,-768 416.65,-784.48 426,-800.83 437.31,-820.61 428.82,-831.84 444,-848.83 462.28,-869.28 479.08,-857.98 499,-876.83 510.57,-887.78 503.93,-898.73 517,-907.83 534.97,-920.35 558.53,-925.5 579.19,-927.36"/>
<polygon fill="#63b8ff" stroke="#63b8ff" points="395.15,-753.87 385.8,-748.89 390,-758.61 395.15,-753.87"/>
</g>
<!-- Node3 -->
<g id="node3" class="node">
<title>Node3</title>
<g id="a_node3"><a xlink:href="class_urho3_d_1_1_ref_counted.html" target="_top" xlink:title="Base class for intrusively reference&#45;counted objects. These are noncopyable and non&#45;assignable.">
<polygon fill="white" stroke="#666666" points="285,-79.33 178,-79.33 178,-60.33 285,-60.33 285,-79.33"/>
<text text-anchor="middle" x="231.5" y="-67.33" font-family="Roboto" font-size="10.00">Urho3D::RefCounted</text>
</a>
</g>
</g>
<!-- Node3&#45;&gt;Node2 -->
<g id="edge2" class="edge">
<title>Node3&#45;&gt;Node2</title>
<path fill="none" stroke="#63b8ff" d="M236.95,-90.98C258.96,-195.65 355.81,-656.11 370.99,-728.3"/>
<polygon fill="#63b8ff" stroke="#63b8ff" points="240.39,-90.34 234.91,-81.27 233.54,-91.78 240.39,-90.34"/>
</g>
<!-- Node5 -->
<g id="node5" class="node">
<title>Node5</title>
<g id="a_node5"><a xlink:href="class_urho3_d_1_1_context.html" target="_top" xlink:title="Urho3D execution context. Provides access to subsystems, object factories and attributes,...">
<polygon fill="white" stroke="#666666" points="1040.5,-397.33 951.5,-397.33 951.5,-378.33 1040.5,-378.33 1040.5,-397.33"/>
<text text-anchor="middle" x="996" y="-385.33" font-family="Roboto" font-size="10.00">Urho3D::Context</text>
</a>
</g>
</g>
<!-- Node3&#45;&gt;Node5 -->
<g id="edge5" class="edge">
<title>Node3&#45;&gt;Node5</title>
<path fill="none" stroke="#63b8ff" d="M271.76,-56.51C386.23,-20.39 723.48,66.35 914,-93.83 959.69,-132.25 987.74,-331.1 993.77,-377.94"/>
<polygon fill="#63b8ff" stroke="#63b8ff" points="270.98,-53.09 262.53,-59.48 273.12,-59.75 270.98,-53.09"/>
</g>
<!-- Node4 -->
<g id="node4" class="node">
<title>Node4</title>
<g id="a_node4"><a xlink:href="struct_urho3_d_1_1_ref_count.html" target="_top" xlink:title="Reference count structure.">
<polygon fill="white" stroke="#666666" points="96,-79.33 0,-79.33 0,-60.33 96,-60.33 96,-79.33"/>
<text text-anchor="middle" x="48" y="-67.33" font-family="Roboto" font-size="10.00">Urho3D::RefCount</text>
</a>
</g>
</g>
<!-- Node4&#45;&gt;Node3 -->
<g id="edge3" class="edge">
<title>Node4&#45;&gt;Node3</title>
<path fill="none" stroke="#9a32cd" stroke-dasharray="5,2" d="M107.69,-69.83C130.24,-69.83 155.81,-69.83 177.76,-69.83"/>
<polygon fill="#9a32cd" stroke="#9a32cd" points="107.73,-66.33 97.73,-69.83 107.73,-73.33 107.73,-66.33"/>
<text text-anchor="middle" x="137" y="-72.83" font-family="Roboto" font-size="10.00"> refCount_</text>
</g>
<!-- Node5&#45;&gt;Node2 -->
<g id="edge4" class="edge">
<title>Node5&#45;&gt;Node2</title>
<path fill="none" stroke="#9a32cd" stroke-dasharray="5,2" d="M993.18,-408.9C988.34,-451.4 971.32,-547.71 914,-598.83 911.59,-600.98 537.44,-696.45 414,-727.9"/>
<polygon fill="#9a32cd" stroke="#9a32cd" points="996.65,-409.35 994.17,-399.05 989.68,-408.65 996.65,-409.35"/>
<text text-anchor="middle" x="627.5" y="-703.83" font-family="Roboto" font-size="10.00"> context_</text>
</g>
<!-- Node6 -->
<g id="node6" class="node">
<title>Node6</title>
<g id="a_node6"><a xlink:href="class_urho3_d_1_1_hash_map.html" target="_top" xlink:title=" ">
<polygon fill="white" stroke="#666666" points="718.5,-186.33 536.5,-186.33 536.5,-145.33 718.5,-145.33 718.5,-186.33"/>
<text text-anchor="start" x="544.5" y="-174.33" font-family="Roboto" font-size="10.00">Urho3D::HashMap&lt; Urho3D</text>
<text text-anchor="start" x="544.5" y="-163.33" font-family="Roboto" font-size="10.00">::StringHash, Urho3D::</text>
<text text-anchor="middle" x="627.5" y="-152.33" font-family="Roboto" font-size="10.00">SharedPtr&lt; Urho3D::ObjectFactory &gt; &gt;</text>
</a>
</g>
</g>
<!-- Node6&#45;&gt;Node5 -->
<g id="edge6" class="edge">
<title>Node6&#45;&gt;Node5</title>
<path fill="none" stroke="#9a32cd" stroke-dasharray="5,2" d="M729.97,-160.94C789.07,-163.15 861.96,-175.16 914,-214.83 969.91,-257.46 988.77,-348.13 993.6,-378.03"/>
<polygon fill="#9a32cd" stroke="#9a32cd" points="730.32,-157.45 720.23,-160.67 730.13,-164.45 730.32,-157.45"/>
<text text-anchor="middle" x="835" y="-217.83" font-family="Roboto" font-size="10.00"> factories_</text>
</g>
<!-- Node7 -->
<g id="node7" class="node">
<title>Node7</title>
<g id="a_node7"><a xlink:href="class_urho3_d_1_1_hash_base.html" target="_top" xlink:title="Hash set/map base class.">
<polygon fill="#fff0f0" stroke="red" points="424,-348.33 324,-348.33 324,-329.33 424,-329.33 424,-348.33"/>
<text text-anchor="middle" x="374" y="-336.33" font-family="Roboto" font-size="10.00">Urho3D::HashBase</text>
</a>
</g>
</g>
<!-- Node7&#45;&gt;Node6 -->
<g id="edge7" class="edge">
<title>Node7&#45;&gt;Node6</title>
<path fill="none" stroke="#63b8ff" d="M387.52,-319.71C400.41,-300.8 421.71,-271.63 444,-249.83 472.86,-221.62 480.7,-213.46 517,-195.83 523.83,-192.52 531.08,-189.52 538.47,-186.82"/>
<polygon fill="#63b8ff" stroke="#63b8ff" points="384.77,-317.53 382.12,-327.78 390.59,-321.42 384.77,-317.53"/>
</g>
<!-- Node11 -->
<g id="node8" class="node">
<title>Node11</title>
<g id="a_node8"><a xlink:href="class_urho3_d_1_1_hash_map.html" target="_top" xlink:title=" ">
<polygon fill="white" stroke="#666666" points="702,-127.33 553,-127.33 553,-86.33 702,-86.33 702,-127.33"/>
<text text-anchor="start" x="561" y="-115.33" font-family="Roboto" font-size="10.00">Urho3D::HashMap&lt; Urho3D</text>
<text text-anchor="start" x="561" y="-104.33" font-family="Roboto" font-size="10.00">::StringHash, Urho3D::</text>
<text text-anchor="middle" x="627.5" y="-93.33" font-family="Roboto" font-size="10.00">SharedPtr&lt; Urho3D::Object &gt; &gt;</text>
</a>
</g>
</g>
<!-- Node7&#45;&gt;Node11 -->
<g id="edge9" class="edge">
<title>Node7&#45;&gt;Node11</title>
<path fill="none" stroke="#63b8ff" d="M382.38,-318.75C393.23,-290.83 415.33,-239.46 444,-201.83 470.51,-167.04 478.55,-156.69 517,-135.83 528.06,-129.83 540.44,-125.02 552.78,-121.17"/>
<polygon fill="#63b8ff" stroke="#63b8ff" points="379.24,-317.17 378.97,-327.76 385.78,-319.65 379.24,-317.17"/>
</g>
<!-- Node12 -->
<g id="node9" class="node">
<title>Node12</title>
<g id="a_node9"><a xlink:href="class_urho3_d_1_1_hash_map.html" target="_top" xlink:title=" ">
<polygon fill="white" stroke="#666666" points="708.5,-494.33 546.5,-494.33 546.5,-453.33 708.5,-453.33 708.5,-494.33"/>
<text text-anchor="start" x="554.5" y="-482.33" font-family="Roboto" font-size="10.00">Urho3D::HashMap&lt; Urho3D</text>
<text text-anchor="start" x="554.5" y="-471.33" font-family="Roboto" font-size="10.00">::StringHash, Urho3D::</text>
<text text-anchor="middle" x="627.5" y="-460.33" font-family="Roboto" font-size="10.00">Vector&lt; Urho3D::AttributeInfo &gt; &gt;</text>
</a>
</g>
</g>
<!-- Node7&#45;&gt;Node12 -->
<g id="edge11" class="edge">
<title>Node7&#45;&gt;Node12</title>
<path fill="none" stroke="#63b8ff" d="M393.95,-356.5C419.85,-379.72 468.61,-420.33 517,-443.83 526.22,-448.31 536.21,-452.21 546.28,-455.57"/>
<polygon fill="#63b8ff" stroke="#63b8ff" points="396.36,-353.95 386.61,-349.81 391.65,-359.13 396.36,-353.95"/>
</g>
<!-- Node13 -->
<g id="node10" class="node">
<title>Node13</title>
<g id="a_node10"><a xlink:href="class_urho3_d_1_1_hash_map.html" target="_top" xlink:title=" ">
<polygon fill="white" stroke="#666666" points="711,-434.83 544,-434.83 544,-382.83 711,-382.83 711,-434.83"/>
<text text-anchor="start" x="552" y="-422.83" font-family="Roboto" font-size="10.00">Urho3D::HashMap&lt; Urho3D</text>
<text text-anchor="start" x="552" y="-411.83" font-family="Roboto" font-size="10.00">::StringHash, Urho3D::</text>
<text text-anchor="start" x="552" y="-400.83" font-family="Roboto" font-size="10.00">SharedPtr&lt; Urho3D::EventReceiver</text>
<text text-anchor="middle" x="627.5" y="-389.83" font-family="Roboto" font-size="10.00">Group &gt; &gt;</text>
</a>
</g>
</g>
<!-- Node7&#45;&gt;Node13 -->
<g id="edge13" class="edge">
<title>Node7&#45;&gt;Node13</title>
<path fill="none" stroke="#63b8ff" d="M421.82,-351.86C455.97,-361.37 503.15,-374.5 543.61,-385.76"/>
<polygon fill="#63b8ff" stroke="#63b8ff" points="422.8,-348.5 412.22,-349.19 420.92,-355.25 422.8,-348.5"/>
</g>
<!-- Node14 -->
<g id="node11" class="node">
<title>Node14</title>
<g id="a_node11"><a xlink:href="class_urho3_d_1_1_hash_map.html" target="_top" xlink:title=" ">
<polygon fill="white" stroke="#666666" points="738,-364.83 517,-364.83 517,-312.83 738,-312.83 738,-364.83"/>
<text text-anchor="start" x="525" y="-352.83" font-family="Roboto" font-size="10.00">Urho3D::HashMap&lt; Urho3D</text>
<text text-anchor="start" x="525" y="-341.83" font-family="Roboto" font-size="10.00">::Object *, Urho3D::HashMap</text>
<text text-anchor="start" x="525" y="-330.83" font-family="Roboto" font-size="10.00">&lt; Urho3D::StringHash, Urho3D</text>
<text text-anchor="middle" x="627.5" y="-319.83" font-family="Roboto" font-size="10.00">::SharedPtr&lt; Urho3D::EventReceiverGroup &gt; &gt; &gt;</text>
</a>
</g>
</g>
<!-- Node7&#45;&gt;Node14 -->
<g id="edge15" class="edge">
<title>Node7&#45;&gt;Node14</title>
<path fill="none" stroke="#63b8ff" d="M435.6,-338.83C459.95,-338.83 488.8,-338.83 516.6,-338.83"/>
<polygon fill="#63b8ff" stroke="#63b8ff" points="435.9,-335.33 425.9,-338.83 435.9,-342.33 435.9,-335.33"/>
</g>
<!-- Node21 -->
<g id="node16" class="node">
<title>Node21</title>
<g id="a_node16"><a xlink:href="class_urho3_d_1_1_hash_map.html" target="_top" xlink:title=" ">
<polygon fill="white" stroke="#666666" points="697,-294.33 558,-294.33 558,-253.33 697,-253.33 697,-294.33"/>
<text text-anchor="start" x="566" y="-282.33" font-family="Roboto" font-size="10.00">Urho3D::HashMap&lt; Urho3D</text>
<text text-anchor="start" x="566" y="-271.33" font-family="Roboto" font-size="10.00">::String, Urho3D::Vector</text>
<text text-anchor="middle" x="627.5" y="-260.33" font-family="Roboto" font-size="10.00">&lt; Urho3D::StringHash &gt; &gt;</text>
</a>
</g>
</g>
<!-- Node7&#45;&gt;Node21 -->
<g id="edge23" class="edge">
<title>Node7&#45;&gt;Node21</title>
<path fill="none" stroke="#63b8ff" d="M424.27,-326.1C462.31,-316.27 515.41,-302.54 557.65,-291.63"/>
<polygon fill="#63b8ff" stroke="#63b8ff" points="423.74,-322.62 414.94,-328.51 425.49,-329.4 423.74,-322.62"/>
</g>
<!-- Node22 -->
<g id="node17" class="node">
<title>Node22</title>
<g id="a_node17"><a xlink:href="class_urho3_d_1_1_hash_map.html" target="_top" xlink:title=" ">
<polygon fill="white" stroke="#666666" points="705.5,-234.83 549.5,-234.83 549.5,-204.83 705.5,-204.83 705.5,-234.83"/>
<text text-anchor="start" x="557.5" y="-222.83" font-family="Roboto" font-size="10.00">Urho3D::HashMap&lt; StringHash,</text>
<text text-anchor="middle" x="627.5" y="-211.83" font-family="Roboto" font-size="10.00"> Variant &gt;</text>
</a>
</g>
</g>
<!-- Node7&#45;&gt;Node22 -->
<g id="edge25" class="edge">
<title>Node7&#45;&gt;Node22</title>
<path fill="none" stroke="#63b8ff" d="M394.91,-321.94C421.16,-300.54 469.61,-264.02 517,-243.83 527.12,-239.52 538.1,-235.95 549.08,-232.99"/>
<polygon fill="#63b8ff" stroke="#63b8ff" points="392.92,-319.04 387.45,-328.12 397.38,-324.44 392.92,-319.04"/>
</g>
<!-- Node29 -->
<g id="node24" class="node">
<title>Node29</title>
<g id="a_node24"><a xlink:href="class_urho3_d_1_1_hash_set.html" target="_top" xlink:title=" ">
<polygon fill="white" stroke="#666666" points="914,-752.33 756,-752.33 756,-711.33 914,-711.33 914,-752.33"/>
<text text-anchor="start" x="764" y="-740.33" font-family="Roboto" font-size="10.00">Urho3D::HashSet&lt; Urho3D</text>
<text text-anchor="start" x="764" y="-729.33" font-family="Roboto" font-size="10.00">::Pair&lt; Urho3D::ShaderVariation</text>
<text text-anchor="middle" x="835" y="-718.33" font-family="Roboto" font-size="10.00"> *, Urho3D::ShaderVariation * &gt; &gt;</text>
</a>
</g>
</g>
<!-- Node7&#45;&gt;Node29 -->
<g id="edge38" class="edge">
<title>Node7&#45;&gt;Node29</title>
<path fill="none" stroke="#63b8ff" d="M375.46,-360.09C378.18,-424.46 396.46,-616.58 517,-677.83 557.69,-698.51 675.71,-714.8 755.68,-723.87"/>
<polygon fill="#63b8ff" stroke="#63b8ff" points="378.96,-360.09 375.14,-350.2 371.96,-360.31 378.96,-360.09"/>
</g>
<!-- Node30 -->
<g id="node25" class="node">
<title>Node30</title>
<g id="a_node25"><a xlink:href="class_urho3_d_1_1_hash_set.html" target="_top" xlink:title=" ">
<polygon fill="white" stroke="#666666" points="902,-705.83 768,-705.83 768,-675.83 902,-675.83 902,-705.83"/>
<text text-anchor="start" x="776" y="-693.83" font-family="Roboto" font-size="10.00">Urho3D::HashSet&lt; Urho3D</text>
<text text-anchor="middle" x="835" y="-682.83" font-family="Roboto" font-size="10.00">::String &gt;</text>
</a>
</g>
</g>
<!-- Node7&#45;&gt;Node30 -->
<g id="edge40" class="edge">
<title>Node7&#45;&gt;Node30</title>
<path fill="none" stroke="#63b8ff" d="M378.05,-360.05C387.35,-416.29 420.81,-569.77 517,-641.83 555.55,-670.71 686.77,-682.94 767.8,-687.83"/>
<polygon fill="#63b8ff" stroke="#63b8ff" points="381.53,-359.61 376.53,-350.26 374.61,-360.68 381.53,-359.61"/>
</g>
<!-- Node11&#45;&gt;Node5 -->
<g id="edge8" class="edge">
<title>Node11&#45;&gt;Node5</title>
<path fill="none" stroke="#9a32cd" stroke-dasharray="5,2" d="M713.68,-97.35C775.96,-95.19 858.85,-102.85 914,-148.83 987.52,-210.14 994.55,-340.9 995.03,-377.9"/>
<polygon fill="#9a32cd" stroke="#9a32cd" points="713.65,-93.85 703.82,-97.8 713.96,-100.84 713.65,-93.85"/>
<text text-anchor="middle" x="835" y="-151.83" font-family="Roboto" font-size="10.00"> subsystems_</text>
</g>
<!-- Node12&#45;&gt;Node5 -->
<g id="edge10" class="edge">
<title>Node12&#45;&gt;Node5</title>
<path fill="none" stroke="#9a32cd" stroke-dasharray="5,2" d="M719.97,-459.1C776.39,-449.14 849.96,-434.59 914,-416.83 933.14,-411.52 954.26,-403.9 970.13,-397.81"/>
<polygon fill="#9a32cd" stroke="#9a32cd" points="719.66,-455.6 710.41,-460.77 720.87,-462.49 719.66,-455.6"/>
<text text-anchor="middle" x="835" y="-465.83" font-family="Roboto" font-size="10.00"> attributes_</text>
<text text-anchor="middle" x="835" y="-454.83" font-family="Roboto" font-size="10.00">networkAttributes_</text>
</g>
<!-- Node13&#45;&gt;Node5 -->
<g id="edge12" class="edge">
<title>Node13&#45;&gt;Node5</title>
<path fill="none" stroke="#9a32cd" stroke-dasharray="5,2" d="M722.33,-403.46C795.91,-399.24 894.98,-393.56 951.2,-390.34"/>
<polygon fill="#9a32cd" stroke="#9a32cd" points="722.5,-399.94 712.72,-404.01 722.9,-406.93 722.5,-399.94"/>
<text text-anchor="middle" x="835" y="-404.83" font-family="Roboto" font-size="10.00"> eventReceivers_</text>
</g>
<!-- Node14&#45;&gt;Node5 -->
<g id="edge14" class="edge">
<title>Node14&#45;&gt;Node5</title>
<path fill="none" stroke="#9a32cd" stroke-dasharray="5,2" d="M749.48,-355.01C818.91,-364.29 901.88,-375.38 951.41,-382"/>
<polygon fill="#9a32cd" stroke="#9a32cd" points="750.34,-351.59 739.96,-353.73 749.41,-358.53 750.34,-351.59"/>
<text text-anchor="middle" x="835" y="-379.83" font-family="Roboto" font-size="10.00"> specificEventReceivers_</text>
</g>
<!-- Node15 -->
<g id="node12" class="node">
<title>Node15</title>
<g id="a_node12"><a xlink:href="class_urho3_d_1_1_p_o_d_vector.html" target="_top" xlink:title=" ">
<polygon fill="white" stroke="orangered" points="682,-590.83 573,-590.83 573,-560.83 682,-560.83 682,-590.83"/>
<text text-anchor="start" x="581" y="-578.83" font-family="Roboto" font-size="10.00">Urho3D::PODVector&lt;</text>
<text text-anchor="middle" x="627.5" y="-567.83" font-family="Roboto" font-size="10.00"> Urho3D::Object * &gt;</text>
</a>
</g>
</g>
<!-- Node15&#45;&gt;Node5 -->
<g id="edge16" class="edge">
<title>Node15&#45;&gt;Node5</title>
<path fill="none" stroke="#9a32cd" stroke-dasharray="5,2" d="M693.49,-583.43C755.57,-587.24 849.02,-583.64 914,-538.83 965.19,-503.54 986.78,-425.23 992.99,-397.66"/>
<polygon fill="#9a32cd" stroke="#9a32cd" points="694.02,-579.96 683.79,-582.75 693.52,-586.94 694.02,-579.96"/>
<text text-anchor="middle" x="835" y="-586.83" font-family="Roboto" font-size="10.00"> eventSenders_</text>
</g>
<!-- Node17 -->
<g id="node13" class="node">
<title>Node17</title>
<g id="a_node13"><a xlink:href="class_urho3_d_1_1_p_o_d_vector.html" target="_top" xlink:title=" ">
<polygon fill="white" stroke="orangered" points="684.5,-542.83 570.5,-542.83 570.5,-512.83 684.5,-512.83 684.5,-542.83"/>
<text text-anchor="start" x="578.5" y="-530.83" font-family="Roboto" font-size="10.00">Urho3D::PODVector&lt;</text>
<text text-anchor="middle" x="627.5" y="-519.83" font-family="Roboto" font-size="10.00"> Urho3D::HashMap * &gt;</text>
</a>
</g>
</g>
<!-- Node17&#45;&gt;Node5 -->
<g id="edge17" class="edge">
<title>Node17&#45;&gt;Node5</title>
<path fill="none" stroke="#9a32cd" stroke-dasharray="5,2" d="M696.26,-528.21C756.85,-525.82 846.28,-515.33 914,-477.83 949.68,-458.08 977.8,-416.58 989.33,-397.64"/>
<polygon fill="#9a32cd" stroke="#9a32cd" points="696.31,-524.71 686.43,-528.53 696.54,-531.71 696.31,-524.71"/>
<text text-anchor="middle" x="835" y="-526.83" font-family="Roboto" font-size="10.00"> eventDataMaps_</text>
</g>
<!-- Node18&#45;&gt;Node5 -->
<g id="edge18" class="edge">
<title>Node18&#45;&gt;Node5</title>
<path fill="none" stroke="#9a32cd" stroke-dasharray="5,2" d="M646.96,-731.34C670.33,-710.32 712.79,-675.76 756,-658.83 821.96,-632.99 859.58,-683.19 914,-637.83 990.93,-573.72 995.49,-435.76 995.22,-397.72"/>
<polygon fill="#9a32cd" stroke="#9a32cd" points="644.81,-728.56 639.82,-737.9 649.55,-733.72 644.81,-728.56"/>
<text text-anchor="middle" x="835" y="-661.83" font-family="Roboto" font-size="10.00"> eventHandler_</text>
</g>
<!-- Node23 -->
<g id="node18" class="node">
<title>Node23</title>
<g id="a_node18"><a xlink:href="class_urho3_d_1_1_linked_list.html" target="_top" xlink:title=" ">
<polygon fill="white" stroke="#666666" points="1060,-810.83 932,-810.83 932,-780.83 1060,-780.83 1060,-810.83"/>
<text text-anchor="start" x="940" y="-798.83" font-family="Roboto" font-size="10.00">Urho3D::LinkedList</text>
<text text-anchor="middle" x="996" y="-787.83" font-family="Roboto" font-size="10.00">&lt; Urho3D::EventHandler &gt;</text>
</a>
</g>
</g>
<!-- Node18&#45;&gt;Node23 -->
<g id="edge27" class="edge">
<title>Node18&#45;&gt;Node23</title>
<path fill="none" stroke="#9a32cd" stroke-dasharray="5,2" d="M695.55,-752.89C753.61,-757 839.72,-764.53 914,-776.83 920.13,-777.85 926.48,-779.06 932.81,-780.37"/>
<polygon fill="#9a32cd" stroke="#9a32cd" points="696.05,-749.41 685.83,-752.21 695.56,-756.4 696.05,-749.41"/>
<text text-anchor="middle" x="835" y="-779.83" font-family="Roboto" font-size="10.00"> head_</text>
</g>
<!-- Node20 -->
<g id="node15" class="node">
<title>Node20</title>
<g id="a_node15"><a xlink:href="class_urho3_d_1_1_string_hash.html" target="_top" xlink:title="32&#45;bit hash value for a string.">
<polygon fill="white" stroke="#666666" points="426,-829.33 322,-829.33 322,-810.33 426,-810.33 426,-829.33"/>
<text text-anchor="middle" x="374" y="-817.33" font-family="Roboto" font-size="10.00">Urho3D::StringHash</text>
</a>
</g>
</g>
<!-- Node20&#45;&gt;Node18 -->
<g id="edge20" class="edge">
<title>Node20&#45;&gt;Node18</title>
<path fill="none" stroke="#9a32cd" stroke-dasharray="5,2" d="M421.16,-806.8C470.19,-792.96 546.62,-771.38 591.1,-758.83"/>
<polygon fill="#9a32cd" stroke="#9a32cd" points="420.36,-803.39 411.69,-809.47 422.27,-810.13 420.36,-803.39"/>
<text text-anchor="middle" x="471.5" y="-802.83" font-family="Roboto" font-size="10.00"> eventType_</text>
</g>
<!-- Node20&#45;&gt;Node20 -->
<g id="edge21" class="edge">
<title>Node20&#45;&gt;Node20</title>
<path fill="none" stroke="#9a32cd" stroke-dasharray="5,2" d="M361.63,-841.09C363.29,-844.77 367.42,-847.33 374,-847.33 386.39,-847.33 390.07,-838.27 385.04,-829.7"/>
<polygon fill="#9a32cd" stroke="#9a32cd" points="365.1,-841.54 362.79,-831.2 358.15,-840.73 365.1,-841.54"/>
<text text-anchor="middle" x="374" y="-850.33" font-family="Roboto" font-size="10.00"> ZERO</text>
</g>
<!-- Node20&#45;&gt;Node26 -->
<g id="edge34" class="edge">
<title>Node20&#45;&gt;Node26</title>
<path fill="none" stroke="#9a32cd" stroke-dasharray="5,2" d="M394.02,-836.65C407.42,-848 426.09,-862.85 444,-873.83 474.51,-892.54 482.85,-897.12 517,-907.83 536.98,-914.1 559.69,-918.46 579.23,-921.42"/>
<polygon fill="#9a32cd" stroke="#9a32cd" points="396.67,-834.31 386.81,-830.43 392.1,-839.61 396.67,-834.31"/>
<text text-anchor="middle" x="471.5" y="-904.83" font-family="Roboto" font-size="10.00"> nameHash_</text>
</g>
<!-- Node21&#45;&gt;Node5 -->
<g id="edge22" class="edge">
<title>Node21&#45;&gt;Node5</title>
<path fill="none" stroke="#9a32cd" stroke-dasharray="5,2" d="M708.34,-286.59C766.63,-297.39 846.86,-315.39 914,-341.83 938.53,-351.49 964.66,-367.5 980.41,-377.85"/>
<polygon fill="#9a32cd" stroke="#9a32cd" points="709.31,-283.21 698.84,-284.86 708.05,-290.1 709.31,-283.21"/>
<text text-anchor="middle" x="835" y="-344.83" font-family="Roboto" font-size="10.00"> objectCategories_</text>
</g>
<!-- Node22&#45;&gt;Node5 -->
<g id="edge24" class="edge">
<title>Node22&#45;&gt;Node5</title>
<path fill="none" stroke="#9a32cd" stroke-dasharray="5,2" d="M717.04,-223.73C776.68,-229.93 854.93,-245.31 914,-282.83 952.48,-307.27 979.89,-356.72 990.34,-377.87"/>
<polygon fill="#9a32cd" stroke="#9a32cd" points="717.55,-220.26 707.26,-222.78 716.88,-227.23 717.55,-220.26"/>
<text text-anchor="middle" x="835" y="-285.83" font-family="Roboto" font-size="10.00"> globalVars_</text>
</g>
<!-- Node23&#45;&gt;Node2 -->
<g id="edge26" class="edge">
<title>Node23&#45;&gt;Node2</title>
<path fill="none" stroke="#9a32cd" stroke-dasharray="5,2" d="M920.18,-800.97C790.52,-808.92 529.7,-820.38 444,-790.83 418.87,-782.17 395.68,-760.37 383.64,-747.59"/>
<polygon fill="#9a32cd" stroke="#9a32cd" points="920.28,-804.47 930.05,-800.36 919.85,-797.49 920.28,-804.47"/>
<text text-anchor="middle" x="627.5" y="-813.83" font-family="Roboto" font-size="10.00"> eventHandlers_</text>
</g>
<!-- Node24 -->
<g id="node19" class="node">
<title>Node24</title>
<g id="a_node19"><a xlink:href="class_urho3_d_1_1_string.html" target="_top" xlink:title="String class.">
<polygon fill="white" stroke="#666666" points="414,-987.33 334,-987.33 334,-968.33 414,-968.33 414,-987.33"/>
<text text-anchor="middle" x="374" y="-975.33" font-family="Roboto" font-size="10.00">Urho3D::String</text>
</a>
</g>
</g>
<!-- Node24&#45;&gt;Node1 -->
<g id="edge28" class="edge">
<title>Node24&#45;&gt;Node1</title>
<path fill="none" stroke="#9a32cd" stroke-dasharray="5,2" d="M425.75,-978.3C448.22,-978.18 474.95,-977.58 499,-975.83 749.83,-957.6 815.52,-960.83 1060,-901.83 1105.95,-890.74 1155.66,-864.84 1180.84,-850.62"/>
<polygon fill="#9a32cd" stroke="#9a32cd" points="425.93,-974.8 415.93,-978.33 425.94,-981.8 425.93,-974.8"/>
<text text-anchor="middle" x="835" y="-959.83" font-family="Roboto" font-size="10.00"> fileName_</text>
</g>
<!-- Node24&#45;&gt;Node24 -->
<g id="edge29" class="edge">
<title>Node24&#45;&gt;Node24</title>
<path fill="none" stroke="#9a32cd" stroke-dasharray="5,2" d="M361.63,-999.09C363.29,-1002.77 367.42,-1005.33 374,-1005.33 386.39,-1005.33 390.07,-996.27 385.04,-987.7"/>
<polygon fill="#9a32cd" stroke="#9a32cd" points="365.1,-999.54 362.79,-989.2 358.15,-998.73 365.1,-999.54"/>
<text text-anchor="middle" x="374" y="-1008.33" font-family="Roboto" font-size="10.00"> EMPTY</text>
</g>
<!-- Node24&#45;&gt;Node26 -->
<g id="edge33" class="edge">
<title>Node24&#45;&gt;Node26</title>
<path fill="none" stroke="#9a32cd" stroke-dasharray="5,2" d="M425.53,-967.59C470.41,-958.48 535.51,-945.28 579.34,-936.39"/>
<polygon fill="#9a32cd" stroke="#9a32cd" points="424.89,-964.14 415.78,-969.56 426.28,-971.01 424.89,-964.14"/>
<text text-anchor="middle" x="471.5" y="-965.83" font-family="Roboto" font-size="10.00"> name_</text>
</g>
<!-- Node25 -->
<g id="node20" class="node">
<title>Node25</title>
<g id="a_node20"><a xlink:href="class_urho3_d_1_1_x_m_l_file.html" target="_top" xlink:title="XML document resource.">
<polygon fill="white" stroke="#666666" points="1041,-893.33 951,-893.33 951,-874.33 1041,-874.33 1041,-893.33"/>
<text text-anchor="middle" x="996" y="-881.33" font-family="Roboto" font-size="10.00">Urho3D::XMLFile</text>
</a>
</g>
</g>
<!-- Node25&#45;&gt;Node1 -->
<g id="edge30" class="edge">
<title>Node25&#45;&gt;Node1</title>
<path fill="none" stroke="#9a32cd" stroke-dasharray="5,2" d="M1052.56,-871.92C1083.53,-865.27 1121.66,-857.1 1151.04,-850.8"/>
<polygon fill="#9a32cd" stroke="#9a32cd" points="1052.02,-868.45 1042.98,-873.97 1053.49,-875.3 1052.02,-868.45"/>
<text text-anchor="middle" x="1097.5" y="-869.83" font-family="Roboto" font-size="10.00"> xmlFile_</text>
</g>
<!-- Node26&#45;&gt;Node25 -->
<g id="edge31" class="edge">
<title>Node26&#45;&gt;Node25</title>
<path fill="none" stroke="#63b8ff" d="M687.35,-922.54C745.2,-917.97 835.92,-909.87 914,-898.83 925.9,-897.15 938.7,-894.96 950.55,-892.77"/>
<polygon fill="#63b8ff" stroke="#63b8ff" points="687.09,-919.05 677.39,-923.31 687.63,-926.02 687.09,-919.05"/>
</g>
<!-- Node27 -->
<g id="node22" class="node">
<title>Node27</title>
<g id="a_node22"><a xlink:href="class_urho3_d_1_1_timer.html" target="_top" xlink:title="Low&#45;resolution operating system timer.">
<polygon fill="white" stroke="#666666" points="414.5,-939.33 333.5,-939.33 333.5,-920.33 414.5,-920.33 414.5,-939.33"/>
<text text-anchor="middle" x="374" y="-927.33" font-family="Roboto" font-size="10.00">Urho3D::Timer</text>
</a>
</g>
</g>
<!-- Node27&#45;&gt;Node26 -->
<g id="edge35" class="edge">
<title>Node27&#45;&gt;Node26</title>
<path fill="none" stroke="#9a32cd" stroke-dasharray="5,2" d="M426.36,-929.22C471.13,-928.69 535.56,-927.92 579.12,-927.4"/>
<polygon fill="#9a32cd" stroke="#9a32cd" points="426.32,-925.72 416.36,-929.34 426.41,-932.72 426.32,-925.72"/>
<text text-anchor="middle" x="471.5" y="-932.83" font-family="Roboto" font-size="10.00"> useTimer_</text>
</g>
<!-- Node28 -->
<g id="node23" class="node">
<title>Node28</title>
<g id="a_node23"><a xlink:href="class_urho3_d_1_1_unique_ptr.html" target="_top" xlink:title=" ">
<polygon fill="white" stroke="#666666" points="685,-898.83 570,-898.83 570,-868.83 685,-868.83 685,-898.83"/>
<text text-anchor="start" x="578" y="-886.83" font-family="Roboto" font-size="10.00">Urho3D::UniquePtr&lt;</text>
<text text-anchor="middle" x="627.5" y="-875.83" font-family="Roboto" font-size="10.00"> pugi::xml_document &gt;</text>
</a>
</g>
</g>
<!-- Node28&#45;&gt;Node25 -->
<g id="edge36" class="edge">
<title>Node28&#45;&gt;Node25</title>
<path fill="none" stroke="#9a32cd" stroke-dasharray="5,2" d="M696.45,-883.83C770.68,-883.83 887.42,-883.83 950.69,-883.83"/>
<polygon fill="#9a32cd" stroke="#9a32cd" points="696.88,-880.33 686.88,-883.83 696.88,-887.33 696.88,-880.33"/>
<text text-anchor="middle" x="835" y="-886.83" font-family="Roboto" font-size="10.00"> document_</text>
</g>
<!-- Node29&#45;&gt;Node1 -->
<g id="edge37" class="edge">
<title>Node29&#45;&gt;Node1</title>
<path fill="none" stroke="#9a32cd" stroke-dasharray="5,2" d="M925.7,-735.28C967.41,-738.93 1017.15,-746.26 1060,-760.83 1109.68,-777.73 1161.36,-813.61 1184.7,-830.99"/>
<polygon fill="#9a32cd" stroke="#9a32cd" points="926.2,-731.81 915.95,-734.49 925.63,-738.78 926.2,-731.81"/>
<text text-anchor="middle" x="996" y="-763.83" font-family="Roboto" font-size="10.00"> usedPtrCombinations_</text>
</g>
<!-- Node30&#45;&gt;Node1 -->
<g id="edge39" class="edge">
<title>Node30&#45;&gt;Node1</title>
<path fill="none" stroke="#9a32cd" stroke-dasharray="5,2" d="M913.78,-691.98C958.07,-694.96 1013.77,-702.73 1060,-721.83 1119.52,-746.43 1171.49,-807.39 1190.15,-831.14"/>
<polygon fill="#9a32cd" stroke="#9a32cd" points="914.19,-688.5 904,-691.39 913.77,-695.48 914.19,-688.5"/>
<text text-anchor="middle" x="996" y="-724.83" font-family="Roboto" font-size="10.00"> usedCombinations_</text>
</g>
</g>
</svg>
