<?xml version="1.0" encoding="UTF-8" standalone="no"?>
<!DOCTYPE svg PUBLIC "-//W3C//DTD SVG 1.1//EN"
 "http://www.w3.org/Graphics/SVG/1.1/DTD/svg11.dtd">
<!-- Generated by graphviz version 7.0.3 (0)
 -->
<!-- Title: Urho3D::Graphics::SetScreenMode Pages: 1 -->
<svg width="918pt" height="124pt"
 viewBox="0.00 0.00 918.00 123.50" xmlns="http://www.w3.org/2000/svg" xmlns:xlink="http://www.w3.org/1999/xlink">
<g id="graph0" class="graph" transform="scale(1 1) rotate(0) translate(4 119.5)">
<title>Urho3D::Graphics::SetScreenMode</title>
<!-- Node1 -->
<g id="node1" class="node">
<title>Node1</title>
<g id="a_node1"><a xlink:title=" ">
<polygon fill="#999999" stroke="#666666" points="910,-72.5 742,-72.5 742,-53.5 910,-53.5 910,-72.5"/>
<text text-anchor="middle" x="826" y="-60.5" font-family="Roboto" font-size="10.00">Urho3D::Graphics::SetScreenMode</text>
</a>
</g>
</g>
<!-- Node2 -->
<g id="node2" class="node">
<title>Node2</title>
<g id="a_node2"><a xlink:href="class_urho3_d_1_1_graphics.html#a573706d930b58c9d903611affebae991" target="_top" xlink:title=" ">
<polygon fill="white" stroke="#666666" points="706,-115.5 538,-115.5 538,-96.5 706,-96.5 706,-115.5"/>
<text text-anchor="middle" x="622" y="-103.5" font-family="Roboto" font-size="10.00">Urho3D::Graphics::SetScreenMode</text>
</a>
</g>
</g>
<!-- Node1&#45;&gt;Node2 -->
<g id="edge1" class="edge">
<title>Node1&#45;&gt;Node2</title>
<path fill="none" stroke="#63b8ff" d="M767.13,-75.32C736.32,-81.88 698.92,-89.84 669.95,-96.01"/>
<polygon fill="#63b8ff" stroke="#63b8ff" points="767.62,-78.79 776.67,-73.29 766.16,-71.95 767.62,-78.79"/>
</g>
<!-- Node3 -->
<g id="node3" class="node">
<title>Node3</title>
<g id="a_node3"><a xlink:href="class_urho3_d_1_1_graphics.html#a2adea5d8adacf78e0a5e9093b0aa3f1d" target="_top" xlink:title=" ">
<polygon fill="white" stroke="#666666" points="696,-78 548,-78 548,-48 696,-48 696,-78"/>
<text text-anchor="start" x="556" y="-66" font-family="Roboto" font-size="10.00">Urho3D::Graphics::SetWindow</text>
<text text-anchor="middle" x="622" y="-55" font-family="Roboto" font-size="10.00">Modes</text>
</a>
</g>
</g>
<!-- Node1&#45;&gt;Node3 -->
<g id="edge2" class="edge">
<title>Node1&#45;&gt;Node3</title>
<path fill="none" stroke="#63b8ff" d="M730.35,-63C718.96,-63 707.47,-63 696.45,-63"/>
<polygon fill="#63b8ff" stroke="#63b8ff" points="730.16,-66.5 740.16,-63 730.16,-59.5 730.16,-66.5"/>
</g>
<!-- Node7 -->
<g id="node7" class="node">
<title>Node7</title>
<g id="a_node7"><a xlink:href="class_urho3_d_1_1_graphics.html#a116de4d90d4b556f408b58878bfd5654" target="_top" xlink:title="Toggle between full screen and windowed mode. Return true if successful.">
<polygon fill="white" stroke="#666666" points="685.5,-30 558.5,-30 558.5,0 685.5,0 685.5,-30"/>
<text text-anchor="start" x="566.5" y="-18" font-family="Roboto" font-size="10.00">Urho3D::Graphics::Toggle</text>
<text text-anchor="middle" x="622" y="-7" font-family="Roboto" font-size="10.00">Fullscreen</text>
</a>
</g>
</g>
<!-- Node1&#45;&gt;Node7 -->
<g id="edge6" class="edge">
<title>Node1&#45;&gt;Node7</title>
<path fill="none" stroke="#63b8ff" d="M772.2,-50.45C745.78,-44.18 713.61,-36.53 685.91,-29.95"/>
<polygon fill="#63b8ff" stroke="#63b8ff" points="771.13,-53.8 781.67,-52.7 772.75,-46.99 771.13,-53.8"/>
</g>
<!-- Node4 -->
<g id="node4" class="node">
<title>Node4</title>
<g id="a_node4"><a xlink:href="class_urho3_d_1_1_graphics.html#a120f99124337d4775a2153c62ec329b1" target="_top" xlink:title="Set default window modes. Return true if successful.">
<polygon fill="white" stroke="#666666" points="502,-78 359,-78 359,-48 502,-48 502,-78"/>
<text text-anchor="start" x="367" y="-66" font-family="Roboto" font-size="10.00">Urho3D::Graphics::SetDefault</text>
<text text-anchor="middle" x="430.5" y="-55" font-family="Roboto" font-size="10.00">WindowModes</text>
</a>
</g>
</g>
<!-- Node3&#45;&gt;Node4 -->
<g id="edge3" class="edge">
<title>Node3&#45;&gt;Node4</title>
<path fill="none" stroke="#63b8ff" d="M536.45,-63C525.07,-63 513.5,-63 502.39,-63"/>
<polygon fill="#63b8ff" stroke="#63b8ff" points="536.22,-66.5 546.22,-63 536.22,-59.5 536.22,-66.5"/>
</g>
<!-- Node5 -->
<g id="node5" class="node">
<title>Node5</title>
<g id="a_node5"><a xlink:href="class_urho3_d_1_1_graphics.html#aac131622deee0f32dffe86943d704f95" target="_top" xlink:title="Set default window modes. Deprecated. Return true if successful.">
<polygon fill="white" stroke="#666666" points="323,-72.5 185,-72.5 185,-53.5 323,-53.5 323,-72.5"/>
<text text-anchor="middle" x="254" y="-60.5" font-family="Roboto" font-size="10.00">Urho3D::Graphics::SetMode</text>
</a>
</g>
</g>
<!-- Node4&#45;&gt;Node5 -->
<g id="edge4" class="edge">
<title>Node4&#45;&gt;Node5</title>
<path fill="none" stroke="#63b8ff" d="M347.28,-63C339.28,-63 331.22,-63 323.37,-63"/>
<polygon fill="#63b8ff" stroke="#63b8ff" points="347.01,-66.5 357.01,-63 347.01,-59.5 347.01,-66.5"/>
</g>
<!-- Node6 -->
<g id="node6" class="node">
<title>Node6</title>
<g id="a_node6"><a xlink:href="class_urho3_d_1_1_graphics.html#a87d6974090e42a8c0d8ec676ca4da504" target="_top" xlink:title="Begin frame rendering. Return true if device available and can render.">
<polygon fill="white" stroke="#666666" points="149,-72.5 0,-72.5 0,-53.5 149,-53.5 149,-72.5"/>
<text text-anchor="middle" x="74.5" y="-60.5" font-family="Roboto" font-size="10.00">Urho3D::Graphics::BeginFrame</text>
</a>
</g>
</g>
<!-- Node5&#45;&gt;Node6 -->
<g id="edge5" class="edge">
<title>Node5&#45;&gt;Node6</title>
<path fill="none" stroke="#63b8ff" d="M173.16,-63C165.26,-63 157.27,-63 149.44,-63"/>
<polygon fill="#63b8ff" stroke="#63b8ff" points="173.11,-66.5 183.11,-63 173.11,-59.5 173.11,-66.5"/>
</g>
</g>
</svg>
