<?xml version="1.0" encoding="UTF-8" standalone="no"?>
<!DOCTYPE svg PUBLIC "-//W3C//DTD SVG 1.1//EN"
 "http://www.w3.org/Graphics/SVG/1.1/DTD/svg11.dtd">
<!-- Generated by graphviz version 7.0.3 (0)
 -->
<!-- Title: Urho3D::CollisionCircle2D::SetCenter Pages: 1 -->
<svg width="808pt" height="248pt"
 viewBox="0.00 0.00 808.00 248.00" xmlns="http://www.w3.org/2000/svg" xmlns:xlink="http://www.w3.org/1999/xlink">
<g id="graph0" class="graph" transform="scale(1 1) rotate(0) translate(4 244)">
<title>Urho3D::CollisionCircle2D::SetCenter</title>
<!-- Node1 -->
<g id="node1" class="node">
<title>Node1</title>
<g id="a_node1"><a xlink:title=" ">
<polygon fill="#999999" stroke="#666666" points="123,-102 0,-102 0,-72 123,-72 123,-102"/>
<text text-anchor="start" x="8" y="-90" font-family="Roboto" font-size="10.00">Urho3D::CollisionCircle2</text>
<text text-anchor="middle" x="61.5" y="-79" font-family="Roboto" font-size="10.00">D::SetCenter</text>
</a>
</g>
</g>
<!-- Node2 -->
<g id="node2" class="node">
<title>Node2</title>
<g id="a_node2"><a xlink:href="class_urho3_d_1_1_component.html#aaf87acb64001774c62f0784254f9b291" target="_top" xlink:title="Mark for attribute check on the next network update.">
<polygon fill="white" stroke="#666666" points="276,-159 165,-159 165,-129 276,-129 276,-159"/>
<text text-anchor="start" x="173" y="-147" font-family="Roboto" font-size="10.00">Urho3D::Component::</text>
<text text-anchor="middle" x="220.5" y="-136" font-family="Roboto" font-size="10.00">MarkNetworkUpdate</text>
</a>
</g>
</g>
<!-- Node1&#45;&gt;Node2 -->
<g id="edge1" class="edge">
<title>Node1&#45;&gt;Node2</title>
<path fill="none" stroke="#63b8ff" d="M104.99,-102.43C123.84,-109.27 146.22,-117.4 166.18,-124.64"/>
<polygon fill="#63b8ff" stroke="#63b8ff" points="164.96,-127.92 175.56,-128.05 167.35,-121.34 164.96,-127.92"/>
</g>
<!-- Node8 -->
<g id="node8" class="node">
<title>Node8</title>
<g id="a_node8"><a xlink:href="class_urho3_d_1_1_collision_circle2_d.html#aa5d474f09ebbb0fe4f5e76f7c8fa64ba" target="_top" xlink:title="Recreate fixture.">
<polygon fill="white" stroke="#666666" points="282,-78 159,-78 159,-48 282,-48 282,-78"/>
<text text-anchor="start" x="167" y="-66" font-family="Roboto" font-size="10.00">Urho3D::CollisionCircle2</text>
<text text-anchor="middle" x="220.5" y="-55" font-family="Roboto" font-size="10.00">D::RecreateFixture</text>
</a>
</g>
</g>
<!-- Node1&#45;&gt;Node8 -->
<g id="edge8" class="edge">
<title>Node1&#45;&gt;Node8</title>
<path fill="none" stroke="#63b8ff" d="M123.2,-77.72C131.12,-76.51 139.29,-75.26 147.37,-74.03"/>
<polygon fill="#63b8ff" stroke="#63b8ff" points="147.85,-77.49 157.21,-72.52 146.79,-70.57 147.85,-77.49"/>
</g>
<!-- Node3 -->
<g id="node3" class="node">
<title>Node3</title>
<g id="a_node3"><a xlink:href="class_urho3_d_1_1_component.html#a2c22f727341671a0420934f249ffe059" target="_top" xlink:title="Return the scene the node belongs to.">
<polygon fill="white" stroke="#666666" points="447.5,-240 336.5,-240 336.5,-210 447.5,-210 447.5,-240"/>
<text text-anchor="start" x="344.5" y="-228" font-family="Roboto" font-size="10.00">Urho3D::Component::</text>
<text text-anchor="middle" x="392" y="-217" font-family="Roboto" font-size="10.00">GetScene</text>
</a>
</g>
</g>
<!-- Node2&#45;&gt;Node3 -->
<g id="edge2" class="edge">
<title>Node2&#45;&gt;Node3</title>
<path fill="none" stroke="#63b8ff" d="M244.14,-159.28C263.24,-171.68 291.59,-189.03 318,-201 321.51,-202.59 325.15,-204.13 328.86,-205.6"/>
<polygon fill="#63b8ff" stroke="#63b8ff" points="327.4,-208.79 337.99,-209.06 329.88,-202.25 327.4,-208.79"/>
</g>
<!-- Node5 -->
<g id="node5" class="node">
<title>Node5</title>
<g id="a_node5"><a xlink:href="class_urho3_d_1_1_component.html#a8f1388c232ca01b7c7328c761aae6e76" target="_top" xlink:title=" ">
<polygon fill="white" stroke="#666666" points="447.5,-192 336.5,-192 336.5,-162 447.5,-162 447.5,-192"/>
<text text-anchor="start" x="344.5" y="-180" font-family="Roboto" font-size="10.00">Urho3D::Component::</text>
<text text-anchor="middle" x="392" y="-169" font-family="Roboto" font-size="10.00">IsReplicated</text>
</a>
</g>
</g>
<!-- Node2&#45;&gt;Node5 -->
<g id="edge4" class="edge">
<title>Node2&#45;&gt;Node5</title>
<path fill="none" stroke="#63b8ff" d="M276.06,-154.62C291.71,-157.67 308.94,-161.02 325.19,-164.19"/>
<polygon fill="#63b8ff" stroke="#63b8ff" points="324.28,-167.58 334.76,-166.05 325.62,-160.7 324.28,-167.58"/>
</g>
<!-- Node7 -->
<g id="node7" class="node">
<title>Node7</title>
<g id="a_node7"><a xlink:href="class_urho3_d_1_1_scene.html#a00b724dfff718639b9de12d71139499c" target="_top" xlink:title="Mark for attribute check on the next network update.">
<polygon fill="white" stroke="#666666" points="466,-126 318,-126 318,-96 466,-96 466,-126"/>
<text text-anchor="start" x="326" y="-114" font-family="Roboto" font-size="10.00">Urho3D::Scene::MarkNetwork</text>
<text text-anchor="middle" x="392" y="-103" font-family="Roboto" font-size="10.00">Update</text>
</a>
</g>
</g>
<!-- Node2&#45;&gt;Node7 -->
<g id="edge6" class="edge">
<title>Node2&#45;&gt;Node7</title>
<path fill="none" stroke="#63b8ff" d="M276.06,-133.38C285.8,-131.48 296.15,-129.47 306.49,-127.45"/>
<polygon fill="#63b8ff" stroke="#63b8ff" points="307.05,-130.91 316.2,-125.56 305.71,-124.04 307.05,-130.91"/>
</g>
<!-- Node4 -->
<g id="node4" class="node">
<title>Node4</title>
<g id="a_node4"><a xlink:href="class_urho3_d_1_1_node.html#ad3742cda838a2b291daa44d3ab00de56" target="_top" xlink:title=" ">
<polygon fill="white" stroke="#666666" points="640.5,-234.5 514.5,-234.5 514.5,-215.5 640.5,-215.5 640.5,-234.5"/>
<text text-anchor="middle" x="577.5" y="-222.5" font-family="Roboto" font-size="10.00">Urho3D::Node::GetScene</text>
</a>
</g>
</g>
<!-- Node3&#45;&gt;Node4 -->
<g id="edge3" class="edge">
<title>Node3&#45;&gt;Node4</title>
<path fill="none" stroke="#63b8ff" d="M447.56,-225C464.88,-225 484.33,-225 502.77,-225"/>
<polygon fill="#63b8ff" stroke="#63b8ff" points="502.58,-228.5 512.58,-225 502.58,-221.5 502.58,-228.5"/>
</g>
<!-- Node6 -->
<g id="node6" class="node">
<title>Node6</title>
<g id="a_node6"><a xlink:href="class_urho3_d_1_1_scene.html#a97fb1222bd2f38e6c1c433c0b7e54d40" target="_top" xlink:title="Return whether the specified id is a replicated id.">
<polygon fill="white" stroke="#666666" points="652.5,-186.5 502.5,-186.5 502.5,-167.5 652.5,-167.5 652.5,-186.5"/>
<text text-anchor="middle" x="577.5" y="-174.5" font-family="Roboto" font-size="10.00">Urho3D::Scene::IsReplicatedID</text>
</a>
</g>
</g>
<!-- Node5&#45;&gt;Node6 -->
<g id="edge5" class="edge">
<title>Node5&#45;&gt;Node6</title>
<path fill="none" stroke="#63b8ff" d="M447.56,-177C461.2,-177 476.16,-177 490.9,-177"/>
<polygon fill="#63b8ff" stroke="#63b8ff" points="490.6,-180.5 500.6,-177 490.6,-173.5 490.6,-180.5"/>
</g>
<!-- Node7&#45;&gt;Node7 -->
<g id="edge7" class="edge">
<title>Node7&#45;&gt;Node7</title>
<path fill="none" stroke="#63b8ff" d="M361.85,-126.28C355.15,-135.41 365.2,-144 392,-144 406.65,-144 416.3,-141.43 420.94,-137.61"/>
<polygon fill="#63b8ff" stroke="#63b8ff" points="424.4,-138.1 421.99,-127.78 417.44,-137.35 424.4,-138.1"/>
</g>
<!-- Node9 -->
<g id="node9" class="node">
<title>Node9</title>
<g id="a_node9"><a xlink:href="class_urho3_d_1_1_collision_shape2_d.html#a5c6ed3597e4e875162cbb9e4e679bac1" target="_top" xlink:title="Create fixture.">
<polygon fill="white" stroke="#666666" points="458,-78 326,-78 326,-48 458,-48 458,-78"/>
<text text-anchor="start" x="334" y="-66" font-family="Roboto" font-size="10.00">Urho3D::CollisionShape2D</text>
<text text-anchor="middle" x="392" y="-55" font-family="Roboto" font-size="10.00">::CreateFixture</text>
</a>
</g>
</g>
<!-- Node8&#45;&gt;Node9 -->
<g id="edge9" class="edge">
<title>Node8&#45;&gt;Node9</title>
<path fill="none" stroke="#63b8ff" d="M282.21,-63C292.54,-63 303.38,-63 314.06,-63"/>
<polygon fill="#63b8ff" stroke="#63b8ff" points="314.03,-66.5 324.03,-63 314.03,-59.5 314.03,-66.5"/>
</g>
<!-- Node12 -->
<g id="node12" class="node">
<title>Node12</title>
<g id="a_node12"><a xlink:href="class_urho3_d_1_1_collision_shape2_d.html#a52963467210c78bca21f7463f361c147" target="_top" xlink:title="Release fixture.">
<polygon fill="white" stroke="#666666" points="458,-30 326,-30 326,0 458,0 458,-30"/>
<text text-anchor="start" x="334" y="-18" font-family="Roboto" font-size="10.00">Urho3D::CollisionShape2D</text>
<text text-anchor="middle" x="392" y="-7" font-family="Roboto" font-size="10.00">::ReleaseFixture</text>
</a>
</g>
</g>
<!-- Node8&#45;&gt;Node12 -->
<g id="edge13" class="edge">
<title>Node8&#45;&gt;Node12</title>
<path fill="none" stroke="#63b8ff" d="M276.06,-47.55C291.94,-43.05 309.45,-38.1 325.9,-33.43"/>
<polygon fill="#63b8ff" stroke="#63b8ff" points="326.41,-36.93 335.08,-30.84 324.51,-30.19 326.41,-36.93"/>
</g>
<!-- Node10 -->
<g id="node10" class="node">
<title>Node10</title>
<g id="a_node10"><a xlink:href="class_urho3_d_1_1_node.html#a34f6d23128c61664a11ceb275604e013" target="_top" xlink:title="Return component by type. If there are several, returns the first.">
<polygon fill="white" stroke="#666666" points="653,-72.5 502,-72.5 502,-53.5 653,-53.5 653,-72.5"/>
<text text-anchor="middle" x="577.5" y="-60.5" font-family="Roboto" font-size="10.00">Urho3D::Node::GetComponent</text>
</a>
</g>
</g>
<!-- Node9&#45;&gt;Node10 -->
<g id="edge10" class="edge">
<title>Node9&#45;&gt;Node10</title>
<path fill="none" stroke="#63b8ff" d="M458.47,-63C468.75,-63 479.51,-63 490.17,-63"/>
<polygon fill="#63b8ff" stroke="#63b8ff" points="490.16,-66.5 500.16,-63 490.16,-59.5 490.16,-66.5"/>
</g>
<!-- Node11 -->
<g id="node11" class="node">
<title>Node11</title>
<g id="a_node11"><a xlink:href="class_urho3_d_1_1_component.html#a6070c8208ad98595d8c3fe43778d6069" target="_top" xlink:title="Return component in the same scene node by type. If there are several, returns the first.">
<polygon fill="white" stroke="#666666" points="800,-78 689,-78 689,-48 800,-48 800,-78"/>
<text text-anchor="start" x="697" y="-66" font-family="Roboto" font-size="10.00">Urho3D::Component::</text>
<text text-anchor="middle" x="744.5" y="-55" font-family="Roboto" font-size="10.00">GetComponent</text>
</a>
</g>
</g>
<!-- Node10&#45;&gt;Node11 -->
<g id="edge11" class="edge">
<title>Node10&#45;&gt;Node11</title>
<path fill="none" stroke="#63b8ff" d="M653.28,-56.28C661.3,-56.22 669.41,-56.25 677.32,-56.37"/>
<polygon fill="#63b8ff" stroke="#63b8ff" points="677.15,-59.87 687.22,-56.57 677.29,-52.87 677.15,-59.87"/>
</g>
<!-- Node11&#45;&gt;Node10 -->
<g id="edge12" class="edge">
<title>Node11&#45;&gt;Node10</title>
<path fill="none" stroke="#63b8ff" d="M688.73,-69.4C681.01,-69.6 672.92,-69.72 664.78,-69.74"/>
<polygon fill="#63b8ff" stroke="#63b8ff" points="664.8,-66.24 654.79,-69.73 664.78,-73.24 664.8,-66.24"/>
</g>
</g>
</svg>
