<?xml version="1.0" encoding="UTF-8" standalone="no"?>
<!DOCTYPE svg PUBLIC "-//W3C//DTD SVG 1.1//EN"
 "http://www.w3.org/Graphics/SVG/1.1/DTD/svg11.dtd">
<!-- Generated by graphviz version 7.0.3 (0)
 -->
<!-- Title: Urho3D::TmxLayer2D Pages: 1 -->
<svg width="1915pt" height="600pt"
 viewBox="0.00 0.00 1915.00 600.00" xmlns="http://www.w3.org/2000/svg" xmlns:xlink="http://www.w3.org/1999/xlink">
<g id="graph0" class="graph" transform="scale(1 1) rotate(0) translate(4 596)">
<title>Urho3D::TmxLayer2D</title>
<!-- Node1 -->
<g id="node1" class="node">
<title>Node1</title>
<g id="a_node1"><a xlink:title="Tmx layer.">
<polygon fill="#999999" stroke="#666666" points="1907,-313.5 1797,-313.5 1797,-294.5 1907,-294.5 1907,-313.5"/>
<text text-anchor="middle" x="1852" y="-301.5" font-family="Roboto" font-size="10.00">Urho3D::TmxLayer2D</text>
</a>
</g>
</g>
<!-- Node2 -->
<g id="node2" class="node">
<title>Node2</title>
<g id="a_node2"><a xlink:href="class_urho3_d_1_1_ref_counted.html" target="_top" xlink:title="Base class for intrusively reference&#45;counted objects. These are noncopyable and non&#45;assignable.">
<polygon fill="white" stroke="#666666" points="285,-500.5 178,-500.5 178,-481.5 285,-481.5 285,-500.5"/>
<text text-anchor="middle" x="231.5" y="-488.5" font-family="Roboto" font-size="10.00">Urho3D::RefCounted</text>
</a>
</g>
</g>
<!-- Node2&#45;&gt;Node1 -->
<g id="edge1" class="edge">
<title>Node2&#45;&gt;Node1</title>
<path fill="none" stroke="#63b8ff" d="M247.23,-509.54C272.21,-538.7 325.94,-592 385,-592 385,-592 385,-592 1637,-592 1778.71,-592 1837.56,-364.56 1848.9,-313.91"/>
<polygon fill="#63b8ff" stroke="#63b8ff" points="249.94,-507.32 240.86,-501.85 244.55,-511.78 249.94,-507.32"/>
</g>
<!-- Node7 -->
<g id="node7" class="node">
<title>Node7</title>
<g id="a_node7"><a xlink:href="class_urho3_d_1_1_object.html" target="_top" xlink:title=" ">
<polygon fill="white" stroke="#666666" points="650.5,-439.5 567.5,-439.5 567.5,-420.5 650.5,-420.5 650.5,-439.5"/>
<text text-anchor="middle" x="609" y="-427.5" font-family="Roboto" font-size="10.00">Urho3D::Object</text>
</a>
</g>
</g>
<!-- Node2&#45;&gt;Node7 -->
<g id="edge7" class="edge">
<title>Node2&#45;&gt;Node7</title>
<path fill="none" stroke="#63b8ff" d="M296.59,-490.5C359.41,-488.58 457.36,-481.72 539,-459 556.15,-454.23 574.71,-446.26 588.25,-439.88"/>
<polygon fill="#63b8ff" stroke="#63b8ff" points="296.7,-487 286.79,-490.76 296.88,-493.99 296.7,-487"/>
</g>
<!-- Node8 -->
<g id="node8" class="node">
<title>Node8</title>
<g id="a_node8"><a xlink:href="class_urho3_d_1_1_context.html" target="_top" xlink:title="Urho3D execution context. Provides access to subsystems, object factories and attributes,...">
<polygon fill="#fff0f0" stroke="red" points="430.5,-462.5 341.5,-462.5 341.5,-443.5 430.5,-443.5 430.5,-462.5"/>
<text text-anchor="middle" x="386" y="-450.5" font-family="Roboto" font-size="10.00">Urho3D::Context</text>
</a>
</g>
</g>
<!-- Node2&#45;&gt;Node8 -->
<g id="edge9" class="edge">
<title>Node2&#45;&gt;Node8</title>
<path fill="none" stroke="#63b8ff" d="M283.67,-478.25C303.63,-473.27 326.18,-467.66 344.94,-462.98"/>
<polygon fill="#63b8ff" stroke="#63b8ff" points="282.89,-474.84 274.04,-480.65 284.59,-481.63 282.89,-474.84"/>
</g>
<!-- Node39 -->
<g id="node24" class="node">
<title>Node39</title>
<g id="a_node24"><a xlink:href="class_urho3_d_1_1_property_set2_d.html" target="_top" xlink:title="Property set.">
<polygon fill="white" stroke="#666666" points="1514,-472.5 1396,-472.5 1396,-453.5 1514,-453.5 1514,-472.5"/>
<text text-anchor="middle" x="1455" y="-460.5" font-family="Roboto" font-size="10.00">Urho3D::PropertySet2D</text>
</a>
</g>
</g>
<!-- Node2&#45;&gt;Node39 -->
<g id="edge34" class="edge">
<title>Node2&#45;&gt;Node39</title>
<path fill="none" stroke="#63b8ff" d="M255.57,-507.22C284.43,-525.89 336.02,-554 385,-554 385,-554 385,-554 1136.5,-554 1244.17,-554 1279.62,-578.75 1378,-535 1409.06,-521.19 1435.29,-489.14 1447.18,-472.86"/>
<polygon fill="#63b8ff" stroke="#63b8ff" points="257.53,-504.33 247.27,-501.68 253.65,-510.15 257.53,-504.33"/>
</g>
<!-- Node3 -->
<g id="node3" class="node">
<title>Node3</title>
<g id="a_node3"><a xlink:href="struct_urho3_d_1_1_ref_count.html" target="_top" xlink:title="Reference count structure.">
<polygon fill="white" stroke="#666666" points="96,-25.5 0,-25.5 0,-6.5 96,-6.5 96,-25.5"/>
<text text-anchor="middle" x="48" y="-13.5" font-family="Roboto" font-size="10.00">Urho3D::RefCount</text>
</a>
</g>
</g>
<!-- Node3&#45;&gt;Node2 -->
<g id="edge2" class="edge">
<title>Node3&#45;&gt;Node2</title>
<path fill="none" stroke="#9a32cd" stroke-dasharray="5,2" d="M56.87,-36.59C88.31,-118.87 204.3,-422.43 226.73,-481.13"/>
<polygon fill="#9a32cd" stroke="#9a32cd" points="60.17,-35.43 53.33,-27.33 53.63,-37.93 60.17,-35.43"/>
<text text-anchor="middle" x="137" y="-300" font-family="Roboto" font-size="10.00"> refCount_</text>
</g>
<!-- Node4 -->
<g id="node4" class="node">
<title>Node4</title>
<g id="a_node4"><a xlink:href="class_urho3_d_1_1_weak_ptr.html" target="_top" xlink:title=" ">
<polygon fill="white" stroke="#666666" points="1703,-241 1569,-241 1569,-211 1703,-211 1703,-241"/>
<text text-anchor="start" x="1577" y="-229" font-family="Roboto" font-size="10.00">Urho3D::WeakPtr&lt; Urho3D</text>
<text text-anchor="middle" x="1636" y="-218" font-family="Roboto" font-size="10.00">::TmxFile2D &gt;</text>
</a>
</g>
</g>
<!-- Node3&#45;&gt;Node4 -->
<g id="edge30" class="edge">
<title>Node3&#45;&gt;Node4</title>
<path fill="none" stroke="#9a32cd" stroke-dasharray="5,2" d="M107.42,-8.22C142.94,-4.15 189.25,0 230.5,0 230.5,0 230.5,0 1456,0 1563.86,0 1616.97,-160.15 1631.08,-210.82"/>
<polygon fill="#9a32cd" stroke="#9a32cd" points="107.31,-4.71 97.79,-9.36 108.13,-11.66 107.31,-4.71"/>
<text text-anchor="middle" x="800" y="-3" font-family="Roboto" font-size="10.00"> refCount_</text>
</g>
<!-- Node4&#45;&gt;Node1 -->
<g id="edge3" class="edge">
<title>Node4&#45;&gt;Node1</title>
<path fill="none" stroke="#9a32cd" stroke-dasharray="5,2" d="M1695.96,-244.92C1721.62,-253.41 1751.94,-263.8 1779,-274 1795.6,-280.26 1814.06,-287.96 1828.14,-294"/>
<polygon fill="#9a32cd" stroke="#9a32cd" points="1697.3,-241.68 1686.71,-241.88 1695.12,-248.33 1697.3,-241.68"/>
<text text-anchor="middle" x="1750" y="-277" font-family="Roboto" font-size="10.00"> tmxFile_</text>
</g>
<!-- Node5 -->
<g id="node5" class="node">
<title>Node5</title>
<g id="a_node5"><a xlink:href="class_urho3_d_1_1_tmx_file2_d.html" target="_top" xlink:title="Tile map file.">
<polygon fill="white" stroke="#666666" points="1505.5,-235.5 1404.5,-235.5 1404.5,-216.5 1505.5,-216.5 1505.5,-235.5"/>
<text text-anchor="middle" x="1455" y="-223.5" font-family="Roboto" font-size="10.00">Urho3D::TmxFile2D</text>
</a>
</g>
</g>
<!-- Node5&#45;&gt;Node4 -->
<g id="edge4" class="edge">
<title>Node5&#45;&gt;Node4</title>
<path fill="none" stroke="#9a32cd" stroke-dasharray="5,2" d="M1517.1,-226C1533.71,-226 1551.78,-226 1568.67,-226"/>
<polygon fill="#9a32cd" stroke="#9a32cd" points="1517.38,-222.5 1507.38,-226 1517.37,-229.5 1517.38,-222.5"/>
<text text-anchor="middle" x="1541.5" y="-229" font-family="Roboto" font-size="10.00"> ptr_</text>
</g>
<!-- Node6 -->
<g id="node6" class="node">
<title>Node6</title>
<g id="a_node6"><a xlink:href="class_urho3_d_1_1_resource.html" target="_top" xlink:title=" ">
<polygon fill="white" stroke="#666666" points="848,-329.5 752,-329.5 752,-310.5 848,-310.5 848,-329.5"/>
<text text-anchor="middle" x="800" y="-317.5" font-family="Roboto" font-size="10.00">Urho3D::Resource</text>
</a>
</g>
</g>
<!-- Node6&#45;&gt;Node5 -->
<g id="edge5" class="edge">
<title>Node6&#45;&gt;Node5</title>
<path fill="none" stroke="#63b8ff" d="M804.11,-299.13C810.98,-261.22 831.38,-181.74 885,-147 977.15,-87.29 1276.61,-137.86 1378,-180 1401.21,-189.65 1425.68,-205.66 1440.39,-216.02"/>
<polygon fill="#63b8ff" stroke="#63b8ff" points="800.69,-298.34 802.51,-308.78 807.59,-299.48 800.69,-298.34"/>
</g>
<!-- Node30 -->
<g id="node14" class="node">
<title>Node30</title>
<g id="a_node14"><a xlink:href="class_urho3_d_1_1_x_m_l_file.html" target="_top" xlink:title="XML document resource.">
<polygon fill="#fff0f0" stroke="red" points="983,-445.5 893,-445.5 893,-426.5 983,-426.5 983,-445.5"/>
<text text-anchor="middle" x="938" y="-433.5" font-family="Roboto" font-size="10.00">Urho3D::XMLFile</text>
</a>
</g>
</g>
<!-- Node6&#45;&gt;Node30 -->
<g id="edge18" class="edge">
<title>Node6&#45;&gt;Node30</title>
<path fill="none" stroke="#63b8ff" d="M821.08,-337.13C849.96,-361.76 902.27,-406.38 925.43,-426.13"/>
<polygon fill="#63b8ff" stroke="#63b8ff" points="823.63,-334.7 813.75,-330.87 819.08,-340.02 823.63,-334.7"/>
</g>
<!-- Node7&#45;&gt;Node6 -->
<g id="edge6" class="edge">
<title>Node7&#45;&gt;Node6</title>
<path fill="none" stroke="#63b8ff" d="M636.86,-414.37C676.41,-391.35 749.18,-349 782.07,-329.85"/>
<polygon fill="#63b8ff" stroke="#63b8ff" points="635.3,-411.23 628.41,-419.28 638.82,-417.28 635.3,-411.23"/>
</g>
<!-- Node8&#45;&gt;Node7 -->
<g id="edge8" class="edge">
<title>Node8&#45;&gt;Node7</title>
<path fill="none" stroke="#9a32cd" stroke-dasharray="5,2" d="M442.03,-447.27C480.83,-443.24 531.94,-437.92 567.14,-434.25"/>
<polygon fill="#9a32cd" stroke="#9a32cd" points="442.02,-443.76 432.43,-448.27 442.74,-450.72 442.02,-443.76"/>
<text text-anchor="middle" x="503.5" y="-447" font-family="Roboto" font-size="10.00"> context_</text>
</g>
<!-- Node26 -->
<g id="node9" class="node">
<title>Node26</title>
<g id="a_node9"><a xlink:href="class_urho3_d_1_1_linked_list.html" target="_top" xlink:title=" ">
<polygon fill="white" stroke="orangered" points="450,-425 322,-425 322,-395 450,-395 450,-425"/>
<text text-anchor="start" x="330" y="-413" font-family="Roboto" font-size="10.00">Urho3D::LinkedList</text>
<text text-anchor="middle" x="386" y="-402" font-family="Roboto" font-size="10.00">&lt; Urho3D::EventHandler &gt;</text>
</a>
</g>
</g>
<!-- Node26&#45;&gt;Node7 -->
<g id="edge10" class="edge">
<title>Node26&#45;&gt;Node7</title>
<path fill="none" stroke="#9a32cd" stroke-dasharray="5,2" d="M461.88,-410.57C486.51,-411.39 513.99,-412.99 539,-416 548.22,-417.11 558.05,-418.8 567.31,-420.62"/>
<polygon fill="#9a32cd" stroke="#9a32cd" points="462.02,-407.07 451.92,-410.28 461.82,-414.07 462.02,-407.07"/>
<text text-anchor="middle" x="503.5" y="-419" font-family="Roboto" font-size="10.00"> eventHandlers_</text>
</g>
<!-- Node27 -->
<g id="node10" class="node">
<title>Node27</title>
<g id="a_node10"><a xlink:href="class_urho3_d_1_1_string.html" target="_top" xlink:title="String class.">
<polygon fill="white" stroke="#666666" points="649,-184.5 569,-184.5 569,-165.5 649,-165.5 649,-184.5"/>
<text text-anchor="middle" x="609" y="-172.5" font-family="Roboto" font-size="10.00">Urho3D::String</text>
</a>
</g>
</g>
<!-- Node27&#45;&gt;Node1 -->
<g id="edge31" class="edge">
<title>Node27&#45;&gt;Node1</title>
<path fill="none" stroke="#9a32cd" stroke-dasharray="5,2" d="M624.02,-156.35C652.64,-120.61 721.65,-46 799,-46 799,-46 799,-46 1637,-46 1768.52,-46 1834.61,-247.07 1848.29,-294.2"/>
<polygon fill="#9a32cd" stroke="#9a32cd" points="621.36,-154.07 617.97,-164.11 626.88,-158.37 621.36,-154.07"/>
<text text-anchor="middle" x="1135.5" y="-49" font-family="Roboto" font-size="10.00"> name_</text>
</g>
<!-- Node27&#45;&gt;Node6 -->
<g id="edge11" class="edge">
<title>Node27&#45;&gt;Node6</title>
<path fill="none" stroke="#9a32cd" stroke-dasharray="5,2" d="M631.63,-191.6C671.25,-221.99 754.3,-285.7 786.17,-310.16"/>
<polygon fill="#9a32cd" stroke="#9a32cd" points="634.26,-189.2 624.19,-185.89 630,-194.75 634.26,-189.2"/>
<text text-anchor="middle" x="706.5" y="-272" font-family="Roboto" font-size="10.00"> name_</text>
</g>
<!-- Node27&#45;&gt;Node27 -->
<g id="edge12" class="edge">
<title>Node27&#45;&gt;Node27</title>
<path fill="none" stroke="#9a32cd" stroke-dasharray="5,2" d="M591.69,-195.93C593.86,-199.79 599.63,-202.5 609,-202.5 626.14,-202.5 631.23,-193.44 624.26,-184.87"/>
<polygon fill="#9a32cd" stroke="#9a32cd" points="595.09,-196.83 593.46,-186.36 588.2,-195.56 595.09,-196.83"/>
<text text-anchor="middle" x="609" y="-205.5" font-family="Roboto" font-size="10.00"> EMPTY</text>
</g>
<!-- Node23 -->
<g id="node11" class="node">
<title>Node23</title>
<g id="a_node11"><a xlink:href="class_urho3_d_1_1_string_hash.html" target="_top" xlink:title="32&#45;bit hash value for a string.">
<polygon fill="white" stroke="#666666" points="661,-288.5 557,-288.5 557,-269.5 661,-269.5 661,-288.5"/>
<text text-anchor="middle" x="609" y="-276.5" font-family="Roboto" font-size="10.00">Urho3D::StringHash</text>
</a>
</g>
</g>
<!-- Node23&#45;&gt;Node6 -->
<g id="edge13" class="edge">
<title>Node23&#45;&gt;Node6</title>
<path fill="none" stroke="#9a32cd" stroke-dasharray="5,2" d="M666.82,-291.33C694.38,-297.3 727.05,-304.39 753.01,-310.02"/>
<polygon fill="#9a32cd" stroke="#9a32cd" points="667.75,-287.95 657.23,-289.25 666.26,-294.79 667.75,-287.95"/>
<text text-anchor="middle" x="706.5" y="-309" font-family="Roboto" font-size="10.00"> nameHash_</text>
</g>
<!-- Node23&#45;&gt;Node23 -->
<g id="edge14" class="edge">
<title>Node23&#45;&gt;Node23</title>
<path fill="none" stroke="#9a32cd" stroke-dasharray="5,2" d="M591.69,-299.93C593.86,-303.79 599.63,-306.5 609,-306.5 626.14,-306.5 631.23,-297.44 624.26,-288.87"/>
<polygon fill="#9a32cd" stroke="#9a32cd" points="595.09,-300.83 593.46,-290.36 588.2,-299.56 595.09,-300.83"/>
<text text-anchor="middle" x="609" y="-309.5" font-family="Roboto" font-size="10.00"> ZERO</text>
</g>
<!-- Node28 -->
<g id="node12" class="node">
<title>Node28</title>
<g id="a_node12"><a xlink:href="class_urho3_d_1_1_timer.html" target="_top" xlink:title="Low&#45;resolution operating system timer.">
<polygon fill="white" stroke="#666666" points="649.5,-354.5 568.5,-354.5 568.5,-335.5 649.5,-335.5 649.5,-354.5"/>
<text text-anchor="middle" x="609" y="-342.5" font-family="Roboto" font-size="10.00">Urho3D::Timer</text>
</a>
</g>
</g>
<!-- Node28&#45;&gt;Node6 -->
<g id="edge15" class="edge">
<title>Node28&#45;&gt;Node6</title>
<path fill="none" stroke="#9a32cd" stroke-dasharray="5,2" d="M660.89,-338.27C689.15,-334.53 724.08,-329.91 751.74,-326.25"/>
<polygon fill="#9a32cd" stroke="#9a32cd" points="660.58,-334.78 651.12,-339.56 661.49,-341.72 660.58,-334.78"/>
<text text-anchor="middle" x="706.5" y="-339" font-family="Roboto" font-size="10.00"> useTimer_</text>
</g>
<!-- Node29 -->
<g id="node13" class="node">
<title>Node29</title>
<g id="a_node13"><a xlink:href="class_urho3_d_1_1_shared_ptr.html" target="_top" xlink:title=" ">
<polygon fill="white" stroke="#666666" points="1187.5,-526 1083.5,-526 1083.5,-496 1187.5,-496 1187.5,-526"/>
<text text-anchor="start" x="1091.5" y="-514" font-family="Roboto" font-size="10.00">Urho3D::SharedPtr&lt;</text>
<text text-anchor="middle" x="1135.5" y="-503" font-family="Roboto" font-size="10.00"> Urho3D::XMLFile &gt;</text>
</a>
</g>
</g>
<!-- Node29&#45;&gt;Node5 -->
<g id="edge16" class="edge">
<title>Node29&#45;&gt;Node5</title>
<path fill="none" stroke="#9a32cd" stroke-dasharray="5,2" d="M1199.13,-519.74C1252.8,-523.59 1328.99,-519.86 1378,-478 1397.5,-461.34 1441.25,-280.1 1451.72,-235.75"/>
<polygon fill="#9a32cd" stroke="#9a32cd" points="1199.46,-516.26 1189.21,-518.91 1198.88,-523.24 1199.46,-516.26"/>
<text text-anchor="middle" x="1310.5" y="-523" font-family="Roboto" font-size="10.00"> loadXMLFile_</text>
</g>
<!-- Node30&#45;&gt;Node29 -->
<g id="edge17" class="edge">
<title>Node30&#45;&gt;Node29</title>
<path fill="none" stroke="#9a32cd" stroke-dasharray="5,2" d="M967.07,-451.09C988.31,-462.09 1018.43,-476.79 1046,-487 1057.94,-491.42 1071.06,-495.43 1083.46,-498.84"/>
<polygon fill="#9a32cd" stroke="#9a32cd" points="968.94,-448.12 958.46,-446.58 965.69,-454.32 968.94,-448.12"/>
<text text-anchor="middle" x="1018.5" y="-482" font-family="Roboto" font-size="10.00"> ptr_</text>
</g>
<!-- Node32 -->
<g id="node15" class="node">
<title>Node32</title>
<g id="a_node15"><a xlink:href="class_urho3_d_1_1_hash_map.html" target="_top" xlink:title=" ">
<polygon fill="white" stroke="#666666" points="1205,-299.5 1066,-299.5 1066,-258.5 1205,-258.5 1205,-299.5"/>
<text text-anchor="start" x="1074" y="-287.5" font-family="Roboto" font-size="10.00">Urho3D::HashMap&lt; Urho3D</text>
<text text-anchor="start" x="1074" y="-276.5" font-family="Roboto" font-size="10.00">::String, Urho3D::SharedPtr</text>
<text text-anchor="middle" x="1135.5" y="-265.5" font-family="Roboto" font-size="10.00">&lt; Urho3D::XMLFile &gt; &gt;</text>
</a>
</g>
</g>
<!-- Node32&#45;&gt;Node5 -->
<g id="edge19" class="edge">
<title>Node32&#45;&gt;Node5</title>
<path fill="none" stroke="#9a32cd" stroke-dasharray="5,2" d="M1216.62,-266.52C1263.67,-259.07 1324.26,-249.29 1378,-240 1386.46,-238.54 1395.44,-236.93 1404.15,-235.34"/>
<polygon fill="#9a32cd" stroke="#9a32cd" points="1216.1,-263.05 1206.77,-268.07 1217.19,-269.97 1216.1,-263.05"/>
<text text-anchor="middle" x="1310.5" y="-265" font-family="Roboto" font-size="10.00"> tsxXMLFiles_</text>
</g>
<!-- Node10 -->
<g id="node16" class="node">
<title>Node10</title>
<g id="a_node16"><a xlink:href="class_urho3_d_1_1_hash_base.html" target="_top" xlink:title="Hash set/map base class.">
<polygon fill="#fff0f0" stroke="red" points="988,-353.5 888,-353.5 888,-334.5 988,-334.5 988,-353.5"/>
<text text-anchor="middle" x="938" y="-341.5" font-family="Roboto" font-size="10.00">Urho3D::HashBase</text>
</a>
</g>
</g>
<!-- Node10&#45;&gt;Node32 -->
<g id="edge20" class="edge">
<title>Node10&#45;&gt;Node32</title>
<path fill="none" stroke="#63b8ff" d="M979.52,-330.53C1006.13,-321.68 1041.48,-309.93 1071.7,-299.88"/>
<polygon fill="#63b8ff" stroke="#63b8ff" points="978.51,-327.17 970.13,-333.65 980.72,-333.82 978.51,-327.17"/>
</g>
<!-- Node34 -->
<g id="node18" class="node">
<title>Node34</title>
<g id="a_node18"><a xlink:href="class_urho3_d_1_1_hash_map.html" target="_top" xlink:title=" ">
<polygon fill="white" stroke="#666666" points="1209,-240.5 1062,-240.5 1062,-199.5 1209,-199.5 1209,-240.5"/>
<text text-anchor="start" x="1070" y="-228.5" font-family="Roboto" font-size="10.00">Urho3D::HashMap&lt; unsigned,</text>
<text text-anchor="start" x="1070" y="-217.5" font-family="Roboto" font-size="10.00"> Urho3D::SharedPtr&lt; Urho3D</text>
<text text-anchor="middle" x="1135.5" y="-206.5" font-family="Roboto" font-size="10.00">::Sprite2D &gt; &gt;</text>
</a>
</g>
</g>
<!-- Node10&#45;&gt;Node34 -->
<g id="edge23" class="edge">
<title>Node10&#45;&gt;Node34</title>
<path fill="none" stroke="#63b8ff" d="M955.06,-325.78C974.63,-304.61 1009.6,-269.91 1046,-249 1051.19,-246.02 1056.72,-243.3 1062.4,-240.82"/>
<polygon fill="#63b8ff" stroke="#63b8ff" points="952.57,-323.32 948.45,-333.08 957.76,-328.02 952.57,-323.32"/>
</g>
<!-- Node35 -->
<g id="node19" class="node">
<title>Node35</title>
<g id="a_node19"><a xlink:href="class_urho3_d_1_1_hash_map.html" target="_top" xlink:title=" ">
<polygon fill="white" stroke="#666666" points="1209,-429.5 1062,-429.5 1062,-388.5 1209,-388.5 1209,-429.5"/>
<text text-anchor="start" x="1070" y="-417.5" font-family="Roboto" font-size="10.00">Urho3D::HashMap&lt; unsigned,</text>
<text text-anchor="start" x="1070" y="-406.5" font-family="Roboto" font-size="10.00"> Urho3D::SharedPtr&lt; Urho3D</text>
<text text-anchor="middle" x="1135.5" y="-395.5" font-family="Roboto" font-size="10.00">::PropertySet2D &gt; &gt;</text>
</a>
</g>
</g>
<!-- Node10&#45;&gt;Node35 -->
<g id="edge25" class="edge">
<title>Node10&#45;&gt;Node35</title>
<path fill="none" stroke="#63b8ff" d="M979.52,-357.47C1006.13,-366.32 1041.48,-378.07 1071.7,-388.12"/>
<polygon fill="#63b8ff" stroke="#63b8ff" points="980.72,-354.18 970.13,-354.35 978.51,-360.83 980.72,-354.18"/>
</g>
<!-- Node36 -->
<g id="node20" class="node">
<title>Node36</title>
<g id="a_node20"><a xlink:href="class_urho3_d_1_1_hash_map.html" target="_top" xlink:title=" ">
<polygon fill="white" stroke="#666666" points="1225,-370 1046,-370 1046,-318 1225,-318 1225,-370"/>
<text text-anchor="start" x="1054" y="-358" font-family="Roboto" font-size="10.00">Urho3D::HashMap&lt; unsigned,</text>
<text text-anchor="start" x="1054" y="-347" font-family="Roboto" font-size="10.00"> Urho3D::Vector&lt; Urho3D</text>
<text text-anchor="start" x="1054" y="-336" font-family="Roboto" font-size="10.00">::SharedPtr&lt; Urho3D::TileMapObject2</text>
<text text-anchor="middle" x="1135.5" y="-325" font-family="Roboto" font-size="10.00">D &gt; &gt; &gt;</text>
</a>
</g>
</g>
<!-- Node10&#45;&gt;Node36 -->
<g id="edge27" class="edge">
<title>Node10&#45;&gt;Node36</title>
<path fill="none" stroke="#63b8ff" d="M999.69,-344C1014.24,-344 1030.07,-344 1045.6,-344"/>
<polygon fill="#63b8ff" stroke="#63b8ff" points="999.85,-340.5 989.85,-344 999.85,-347.5 999.85,-340.5"/>
</g>
<!-- Node40 -->
<g id="node25" class="node">
<title>Node40</title>
<g id="a_node25"><a xlink:href="class_urho3_d_1_1_hash_map.html" target="_top" xlink:title=" ">
<polygon fill="white" stroke="#666666" points="1205,-478 1066,-478 1066,-448 1205,-448 1205,-478"/>
<text text-anchor="start" x="1074" y="-466" font-family="Roboto" font-size="10.00">Urho3D::HashMap&lt; Urho3D</text>
<text text-anchor="middle" x="1135.5" y="-455" font-family="Roboto" font-size="10.00">::String, Urho3D::String &gt;</text>
</a>
</g>
</g>
<!-- Node10&#45;&gt;Node40 -->
<g id="edge36" class="edge">
<title>Node10&#45;&gt;Node40</title>
<path fill="none" stroke="#63b8ff" d="M954.88,-362.55C974.27,-384.04 1009.07,-419.04 1046,-439 1052.16,-442.33 1058.82,-445.22 1065.62,-447.73"/>
<polygon fill="#63b8ff" stroke="#63b8ff" points="957.57,-360.3 948.33,-355.12 952.32,-364.94 957.57,-360.3"/>
</g>
<!-- Node33 -->
<g id="node17" class="node">
<title>Node33</title>
<g id="a_node17"><a xlink:href="struct_urho3_d_1_1_tile_map_info2_d.html" target="_top" xlink:title=" ">
<polygon fill="white" stroke="#666666" points="1195.5,-94.5 1075.5,-94.5 1075.5,-75.5 1195.5,-75.5 1195.5,-94.5"/>
<text text-anchor="middle" x="1135.5" y="-82.5" font-family="Roboto" font-size="10.00">Urho3D::TileMapInfo2D</text>
</a>
</g>
</g>
<!-- Node33&#45;&gt;Node5 -->
<g id="edge21" class="edge">
<title>Node33&#45;&gt;Node5</title>
<path fill="none" stroke="#9a32cd" stroke-dasharray="5,2" d="M1196.18,-73.39C1248.04,-66.57 1323.24,-64.85 1378,-98 1423.32,-125.44 1444.79,-191.01 1451.55,-216.05"/>
<polygon fill="#9a32cd" stroke="#9a32cd" points="1195.73,-69.92 1186.33,-74.8 1196.72,-76.85 1195.73,-69.92"/>
<text text-anchor="middle" x="1310.5" y="-101" font-family="Roboto" font-size="10.00"> info_</text>
</g>
<!-- Node34&#45;&gt;Node5 -->
<g id="edge22" class="edge">
<title>Node34&#45;&gt;Node5</title>
<path fill="none" stroke="#9a32cd" stroke-dasharray="5,2" d="M1220.79,-221.59C1279.26,-222.7 1355.16,-224.13 1404.22,-225.06"/>
<polygon fill="#9a32cd" stroke="#9a32cd" points="1220.92,-218.09 1210.85,-221.41 1220.79,-225.09 1220.92,-218.09"/>
<text text-anchor="middle" x="1310.5" y="-228" font-family="Roboto" font-size="10.00"> gidToSpriteMapping_</text>
</g>
<!-- Node35&#45;&gt;Node5 -->
<g id="edge24" class="edge">
<title>Node35&#45;&gt;Node5</title>
<path fill="none" stroke="#9a32cd" stroke-dasharray="5,2" d="M1220.36,-398.8C1269.96,-389.44 1331.88,-371.64 1378,-338 1415.97,-310.3 1441,-257.52 1450.13,-235.76"/>
<polygon fill="#9a32cd" stroke="#9a32cd" points="1220.04,-395.3 1210.82,-400.51 1221.28,-402.19 1220.04,-395.3"/>
<text text-anchor="middle" x="1310.5" y="-397" font-family="Roboto" font-size="10.00"> gidToPropertySetMapping_</text>
</g>
<!-- Node36&#45;&gt;Node5 -->
<g id="edge26" class="edge">
<title>Node36&#45;&gt;Node5</title>
<path fill="none" stroke="#9a32cd" stroke-dasharray="5,2" d="M1236.37,-323.91C1280.89,-313.04 1333.26,-297.56 1378,-277 1402.26,-265.85 1427.41,-247.37 1441.83,-235.98"/>
<polygon fill="#9a32cd" stroke="#9a32cd" points="1235.61,-320.49 1226.7,-326.22 1237.24,-327.3 1235.61,-320.49"/>
<text text-anchor="middle" x="1310.5" y="-326" font-family="Roboto" font-size="10.00"> gidToCollisionShapeMapping_</text>
</g>
<!-- Node37 -->
<g id="node21" class="node">
<title>Node37</title>
<g id="a_node21"><a xlink:href="class_urho3_d_1_1_vector.html" target="_top" xlink:title=" ">
<polygon fill="white" stroke="#666666" points="1198,-181 1073,-181 1073,-151 1198,-151 1198,-181"/>
<text text-anchor="start" x="1081" y="-169" font-family="Roboto" font-size="10.00">Urho3D::Vector&lt; Urho3D</text>
<text text-anchor="middle" x="1135.5" y="-158" font-family="Roboto" font-size="10.00">::TmxLayer2D * &gt;</text>
</a>
</g>
</g>
<!-- Node37&#45;&gt;Node5 -->
<g id="edge28" class="edge">
<title>Node37&#45;&gt;Node5</title>
<path fill="none" stroke="#9a32cd" stroke-dasharray="5,2" d="M1209.71,-177.55C1257.7,-185.42 1321.75,-196.46 1378,-208 1389.69,-210.4 1402.32,-213.27 1413.87,-216.02"/>
<polygon fill="#9a32cd" stroke="#9a32cd" points="1210.41,-174.12 1199.98,-175.97 1209.29,-181.03 1210.41,-174.12"/>
<text text-anchor="middle" x="1310.5" y="-211" font-family="Roboto" font-size="10.00"> layers_</text>
</g>
<!-- Node19 -->
<g id="node22" class="node">
<title>Node19</title>
<g id="a_node22"><a xlink:href="class_urho3_d_1_1_vector_base.html" target="_top" xlink:title="Vector base class.">
<polygon fill="white" stroke="#666666" points="991,-175.5 885,-175.5 885,-156.5 991,-156.5 991,-175.5"/>
<text text-anchor="middle" x="938" y="-163.5" font-family="Roboto" font-size="10.00">Urho3D::VectorBase</text>
</a>
</g>
</g>
<!-- Node19&#45;&gt;Node37 -->
<g id="edge29" class="edge">
<title>Node19&#45;&gt;Node37</title>
<path fill="none" stroke="#63b8ff" d="M1002.83,-166C1025.23,-166 1050.34,-166 1072.59,-166"/>
<polygon fill="#63b8ff" stroke="#63b8ff" points="1002.9,-162.5 992.9,-166 1002.9,-169.5 1002.9,-162.5"/>
</g>
<!-- Node38 -->
<g id="node23" class="node">
<title>Node38</title>
<g id="a_node23"><a xlink:href="class_urho3_d_1_1_shared_ptr.html" target="_top" xlink:title=" ">
<polygon fill="white" stroke="#666666" points="1700,-426 1572,-426 1572,-396 1700,-396 1700,-426"/>
<text text-anchor="start" x="1580" y="-414" font-family="Roboto" font-size="10.00">Urho3D::SharedPtr&lt;</text>
<text text-anchor="middle" x="1636" y="-403" font-family="Roboto" font-size="10.00"> Urho3D::PropertySet2D &gt;</text>
</a>
</g>
</g>
<!-- Node38&#45;&gt;Node1 -->
<g id="edge32" class="edge">
<title>Node38&#45;&gt;Node1</title>
<path fill="none" stroke="#9a32cd" stroke-dasharray="5,2" d="M1677.88,-390.56C1723.83,-367.59 1796.53,-331.24 1831.26,-313.87"/>
<polygon fill="#9a32cd" stroke="#9a32cd" points="1676.39,-387.39 1669.01,-394.99 1679.52,-393.65 1676.39,-387.39"/>
<text text-anchor="middle" x="1750" y="-371" font-family="Roboto" font-size="10.00"> propertySet_</text>
</g>
<!-- Node39&#45;&gt;Node38 -->
<g id="edge33" class="edge">
<title>Node39&#45;&gt;Node38</title>
<path fill="none" stroke="#9a32cd" stroke-dasharray="5,2" d="M1500.9,-449.96C1525.42,-442.83 1555.94,-433.97 1581.67,-426.49"/>
<polygon fill="#9a32cd" stroke="#9a32cd" points="1500.17,-446.52 1491.54,-452.67 1502.12,-453.25 1500.17,-446.52"/>
<text text-anchor="middle" x="1541.5" y="-443" font-family="Roboto" font-size="10.00"> ptr_</text>
</g>
<!-- Node40&#45;&gt;Node39 -->
<g id="edge35" class="edge">
<title>Node40&#45;&gt;Node39</title>
<path fill="none" stroke="#9a32cd" stroke-dasharray="5,2" d="M1216.65,-463C1272.37,-463 1345.37,-463 1395.62,-463"/>
<polygon fill="#9a32cd" stroke="#9a32cd" points="1216.91,-459.5 1206.91,-463 1216.91,-466.5 1216.91,-459.5"/>
<text text-anchor="middle" x="1310.5" y="-466" font-family="Roboto" font-size="10.00"> nameToValueMapping_</text>
</g>
</g>
</svg>
