<?xml version="1.0" encoding="UTF-8" standalone="no"?>
<!DOCTYPE svg PUBLIC "-//W3C//DTD SVG 1.1//EN"
 "http://www.w3.org/Graphics/SVG/1.1/DTD/svg11.dtd">
<!-- Generated by graphviz version 7.0.3 (0)
 -->
<!-- Title: Urho3D::DynamicNavigationMesh::ReleaseNavigationMesh Pages: 1 -->
<svg width="485pt" height="86pt"
 viewBox="0.00 0.00 485.00 86.00" xmlns="http://www.w3.org/2000/svg" xmlns:xlink="http://www.w3.org/1999/xlink">
<g id="graph0" class="graph" transform="scale(1 1) rotate(0) translate(4 82)">
<title>Urho3D::DynamicNavigationMesh::ReleaseNavigationMesh</title>
<!-- Node1 -->
<g id="node1" class="node">
<title>Node1</title>
<g id="a_node1"><a xlink:title="Release the navigation mesh, query, and tile cache.">
<polygon fill="#999999" stroke="#666666" points="152,-54 0,-54 0,-24 152,-24 152,-54"/>
<text text-anchor="start" x="8" y="-42" font-family="Roboto" font-size="10.00">Urho3D::DynamicNavigation</text>
<text text-anchor="middle" x="76" y="-31" font-family="Roboto" font-size="10.00">Mesh::ReleaseNavigationMesh</text>
</a>
</g>
</g>
<!-- Node2 -->
<g id="node2" class="node">
<title>Node2</title>
<g id="a_node2"><a xlink:href="class_urho3_d_1_1_navigation_mesh.html#a8697f7700e19448df268ebe330e13d12" target="_top" xlink:title="Release the navigation mesh and the query.">
<polygon fill="white" stroke="#666666" points="321.5,-78 194.5,-78 194.5,-48 321.5,-48 321.5,-78"/>
<text text-anchor="start" x="202.5" y="-66" font-family="Roboto" font-size="10.00">Urho3D::NavigationMesh</text>
<text text-anchor="middle" x="258" y="-55" font-family="Roboto" font-size="10.00">::ReleaseNavigationMesh</text>
</a>
</g>
</g>
<!-- Node1&#45;&gt;Node2 -->
<g id="edge1" class="edge">
<title>Node1&#45;&gt;Node2</title>
<path fill="none" stroke="#63b8ff" d="M152.29,-49.04C162.44,-50.39 172.85,-51.78 182.98,-53.13"/>
<polygon fill="#63b8ff" stroke="#63b8ff" points="182.39,-56.58 192.76,-54.43 183.31,-49.64 182.39,-56.58"/>
</g>
<!-- Node4 -->
<g id="node4" class="node">
<title>Node4</title>
<g id="a_node4"><a xlink:href="class_urho3_d_1_1_dynamic_navigation_mesh.html#a62c2f11e461a02a32d62b6a3e46a4a33" target="_top" xlink:title="Free the tile cache.">
<polygon fill="white" stroke="#666666" points="328,-30 188,-30 188,0 328,0 328,-30"/>
<text text-anchor="start" x="196" y="-18" font-family="Roboto" font-size="10.00">Urho3D::DynamicNavigation</text>
<text text-anchor="middle" x="258" y="-7" font-family="Roboto" font-size="10.00">Mesh::ReleaseTileCache</text>
</a>
</g>
</g>
<!-- Node1&#45;&gt;Node4 -->
<g id="edge3" class="edge">
<title>Node1&#45;&gt;Node4</title>
<path fill="none" stroke="#63b8ff" d="M152.29,-28.96C160.28,-27.9 168.43,-26.81 176.47,-25.74"/>
<polygon fill="#63b8ff" stroke="#63b8ff" points="176.8,-29.22 186.25,-24.43 175.88,-22.29 176.8,-29.22"/>
</g>
<!-- Node3 -->
<g id="node3" class="node">
<title>Node3</title>
<g id="a_node3"><a xlink:href="class_urho3_d_1_1_bounding_box.html#afef3c1bfa3910387adb4f5992371a8dd" target="_top" xlink:title="Clear to undefined state.">
<polygon fill="white" stroke="#666666" points="477,-78 364,-78 364,-48 477,-48 477,-78"/>
<text text-anchor="start" x="372" y="-66" font-family="Roboto" font-size="10.00">Urho3D::BoundingBox</text>
<text text-anchor="middle" x="420.5" y="-55" font-family="Roboto" font-size="10.00">::Clear</text>
</a>
</g>
</g>
<!-- Node2&#45;&gt;Node3 -->
<g id="edge2" class="edge">
<title>Node2&#45;&gt;Node3</title>
<path fill="none" stroke="#63b8ff" d="M321.97,-63C331.99,-63 342.39,-63 352.49,-63"/>
<polygon fill="#63b8ff" stroke="#63b8ff" points="352.23,-66.5 362.23,-63 352.23,-59.5 352.23,-66.5"/>
</g>
</g>
</svg>
