<?xml version="1.0" encoding="UTF-8" standalone="no"?>
<!DOCTYPE svg PUBLIC "-//W3C//DTD SVG 1.1//EN"
 "http://www.w3.org/Graphics/SVG/1.1/DTD/svg11.dtd">
<!-- Generated by graphviz version 7.0.3 (0)
 -->
<!-- Title: Urho3D::ConstraintRope2D::RegisterObject Pages: 1 -->
<svg width="827pt" height="488pt"
 viewBox="0.00 0.00 827.00 488.00" xmlns="http://www.w3.org/2000/svg" xmlns:xlink="http://www.w3.org/1999/xlink">
<g id="graph0" class="graph" transform="scale(1 1) rotate(0) translate(4 484)">
<title>Urho3D::ConstraintRope2D::RegisterObject</title>
<!-- Node1 -->
<g id="node1" class="node">
<title>Node1</title>
<g id="a_node1"><a xlink:title=" ">
<polygon fill="#999999" stroke="#666666" points="134,-288 0,-288 0,-258 134,-258 134,-288"/>
<text text-anchor="start" x="8" y="-276" font-family="Roboto" font-size="10.00">Urho3D::ConstraintRope2D</text>
<text text-anchor="middle" x="67" y="-265" font-family="Roboto" font-size="10.00">::RegisterObject</text>
</a>
</g>
</g>
<!-- Node2 -->
<g id="node2" class="node">
<title>Node2</title>
<g id="a_node2"><a xlink:href="class_urho3_d_1_1_constraint_rope2_d.html#aa67095f27fd61cc0a51439501ccd8260" target="_top" xlink:title=" ">
<polygon fill="white" stroke="#666666" points="304,-480 170,-480 170,-450 304,-450 304,-480"/>
<text text-anchor="start" x="178" y="-468" font-family="Roboto" font-size="10.00">Urho3D::ConstraintRope2D</text>
<text text-anchor="middle" x="237" y="-457" font-family="Roboto" font-size="10.00">::GetMaxLength</text>
</a>
</g>
</g>
<!-- Node1&#45;&gt;Node2 -->
<g id="edge1" class="edge">
<title>Node1&#45;&gt;Node2</title>
<path fill="none" stroke="#63b8ff" d="M73.29,-288.37C85.31,-321.09 117.76,-398.15 170,-441 171.11,-441.91 172.26,-442.79 173.45,-443.64"/>
<polygon fill="#63b8ff" stroke="#63b8ff" points="171.4,-446.49 181.76,-448.74 175.07,-440.53 171.4,-446.49"/>
</g>
<!-- Node3 -->
<g id="node3" class="node">
<title>Node3</title>
<g id="a_node3"><a xlink:href="class_urho3_d_1_1_constraint_rope2_d.html#aa1d021b4594b6bfb2312e0a7cc822e76" target="_top" xlink:title=" ">
<polygon fill="white" stroke="#666666" points="304,-432 170,-432 170,-402 304,-402 304,-432"/>
<text text-anchor="start" x="178" y="-420" font-family="Roboto" font-size="10.00">Urho3D::ConstraintRope2D</text>
<text text-anchor="middle" x="237" y="-409" font-family="Roboto" font-size="10.00">::GetOtherBodyAnchor</text>
</a>
</g>
</g>
<!-- Node1&#45;&gt;Node3 -->
<g id="edge2" class="edge">
<title>Node1&#45;&gt;Node3</title>
<path fill="none" stroke="#63b8ff" d="M77.34,-288.5C93.32,-313.78 128.24,-363.97 170,-393 171.58,-394.1 173.22,-395.16 174.9,-396.17"/>
<polygon fill="#63b8ff" stroke="#63b8ff" points="173.12,-399.18 183.59,-400.8 176.41,-393.01 173.12,-399.18"/>
</g>
<!-- Node4 -->
<g id="node4" class="node">
<title>Node4</title>
<g id="a_node4"><a xlink:href="class_urho3_d_1_1_constraint_rope2_d.html#adf34067bcd758a18bb20e1d8d40c6ec0" target="_top" xlink:title=" ">
<polygon fill="white" stroke="#666666" points="304,-384 170,-384 170,-354 304,-354 304,-384"/>
<text text-anchor="start" x="178" y="-372" font-family="Roboto" font-size="10.00">Urho3D::ConstraintRope2D</text>
<text text-anchor="middle" x="237" y="-361" font-family="Roboto" font-size="10.00">::GetOwnerBodyAnchor</text>
</a>
</g>
</g>
<!-- Node1&#45;&gt;Node4 -->
<g id="edge3" class="edge">
<title>Node1&#45;&gt;Node4</title>
<path fill="none" stroke="#63b8ff" d="M86.57,-288.41C106.3,-304.22 138.88,-328.73 170,-345 172.69,-346.41 175.49,-347.77 178.34,-349.08"/>
<polygon fill="#63b8ff" stroke="#63b8ff" points="176.86,-352.25 187.43,-352.99 179.63,-345.83 176.86,-352.25"/>
</g>
<!-- Node5 -->
<g id="node5" class="node">
<title>Node5</title>
<g id="a_node5"><a xlink:href="class_urho3_d_1_1_component.html#a1cb9a868ec7bb3e46c37fbc91040cf95" target="_top" xlink:title=" ">
<polygon fill="white" stroke="#666666" points="292.5,-336 181.5,-336 181.5,-306 292.5,-306 292.5,-336"/>
<text text-anchor="start" x="189.5" y="-324" font-family="Roboto" font-size="10.00">Urho3D::Component::</text>
<text text-anchor="middle" x="237" y="-313" font-family="Roboto" font-size="10.00">IsEnabled</text>
</a>
</g>
</g>
<!-- Node1&#45;&gt;Node5 -->
<g id="edge4" class="edge">
<title>Node1&#45;&gt;Node5</title>
<path fill="none" stroke="#63b8ff" d="M122.08,-288.45C137.67,-292.91 154.84,-297.81 171.01,-302.43"/>
<polygon fill="#63b8ff" stroke="#63b8ff" points="169.99,-305.78 180.57,-305.16 171.91,-299.05 169.99,-305.78"/>
</g>
<!-- Node6 -->
<g id="node6" class="node">
<title>Node6</title>
<g id="a_node6"><a xlink:href="class_urho3_d_1_1_context.html#aa9b2cffef8d52fa18bfe533a2615a598" target="_top" xlink:title="Register a factory for an object type.">
<polygon fill="white" stroke="#666666" points="302,-288 172,-288 172,-258 302,-258 302,-288"/>
<text text-anchor="start" x="180" y="-276" font-family="Roboto" font-size="10.00">Urho3D::Context::Register</text>
<text text-anchor="middle" x="237" y="-265" font-family="Roboto" font-size="10.00">Factory</text>
</a>
</g>
</g>
<!-- Node1&#45;&gt;Node6 -->
<g id="edge5" class="edge">
<title>Node1&#45;&gt;Node6</title>
<path fill="none" stroke="#63b8ff" d="M134.4,-273C142.94,-273 151.74,-273 160.42,-273"/>
<polygon fill="#63b8ff" stroke="#63b8ff" points="160.22,-276.5 170.22,-273 160.22,-269.5 160.22,-276.5"/>
</g>
<!-- Node8 -->
<g id="node8" class="node">
<title>Node8</title>
<g id="a_node8"><a xlink:href="class_urho3_d_1_1_component.html#a84cc0be4504cc2234be4056ef7ffe976" target="_top" xlink:title=" ">
<polygon fill="white" stroke="#666666" points="292.5,-240 181.5,-240 181.5,-210 292.5,-210 292.5,-240"/>
<text text-anchor="start" x="189.5" y="-228" font-family="Roboto" font-size="10.00">Urho3D::Component::</text>
<text text-anchor="middle" x="237" y="-217" font-family="Roboto" font-size="10.00">SetEnabled</text>
</a>
</g>
</g>
<!-- Node1&#45;&gt;Node8 -->
<g id="edge7" class="edge">
<title>Node1&#45;&gt;Node8</title>
<path fill="none" stroke="#63b8ff" d="M122.08,-257.55C137.67,-253.09 154.84,-248.19 171.01,-243.57"/>
<polygon fill="#63b8ff" stroke="#63b8ff" points="171.91,-246.95 180.57,-240.84 169.99,-240.22 171.91,-246.95"/>
</g>
<!-- Node30 -->
<g id="node19" class="node">
<title>Node30</title>
<g id="a_node19"><a xlink:href="class_urho3_d_1_1_constraint_rope2_d.html#a017fb23b2df2aae16e664fe4c1a28863" target="_top" xlink:title=" ">
<polygon fill="white" stroke="#666666" points="304,-174 170,-174 170,-144 304,-144 304,-174"/>
<text text-anchor="start" x="178" y="-162" font-family="Roboto" font-size="10.00">Urho3D::ConstraintRope2D</text>
<text text-anchor="middle" x="237" y="-151" font-family="Roboto" font-size="10.00">::SetMaxLength</text>
</a>
</g>
</g>
<!-- Node1&#45;&gt;Node30 -->
<g id="edge21" class="edge">
<title>Node1&#45;&gt;Node30</title>
<path fill="none" stroke="#63b8ff" d="M89.28,-257.53C109.78,-242.74 141.74,-219.95 170,-201 180.17,-194.18 191.37,-186.95 201.6,-180.45"/>
<polygon fill="#63b8ff" stroke="#63b8ff" points="203.19,-183.59 209.78,-175.29 199.46,-177.67 203.19,-183.59"/>
</g>
<!-- Node36 -->
<g id="node24" class="node">
<title>Node36</title>
<g id="a_node24"><a xlink:href="class_urho3_d_1_1_constraint_rope2_d.html#ac8df1c10d77b05de6d746488a908c14b" target="_top" xlink:title=" ">
<polygon fill="white" stroke="#666666" points="304,-78 170,-78 170,-48 304,-48 304,-78"/>
<text text-anchor="start" x="178" y="-66" font-family="Roboto" font-size="10.00">Urho3D::ConstraintRope2D</text>
<text text-anchor="middle" x="237" y="-55" font-family="Roboto" font-size="10.00">::SetOtherBodyAnchor</text>
</a>
</g>
</g>
<!-- Node1&#45;&gt;Node36 -->
<g id="edge29" class="edge">
<title>Node1&#45;&gt;Node36</title>
<path fill="none" stroke="#63b8ff" d="M72.32,-257.61C82.98,-222.37 113.81,-135.19 170,-87 170.95,-86.19 171.93,-85.4 172.93,-84.64"/>
<polygon fill="#63b8ff" stroke="#63b8ff" points="174.76,-87.62 181.29,-79.28 170.98,-81.73 174.76,-87.62"/>
</g>
<!-- Node37 -->
<g id="node25" class="node">
<title>Node37</title>
<g id="a_node25"><a xlink:href="class_urho3_d_1_1_constraint_rope2_d.html#a85807eecbb013cbb832ceb1779162b0f" target="_top" xlink:title=" ">
<polygon fill="white" stroke="#666666" points="304,-126 170,-126 170,-96 304,-96 304,-126"/>
<text text-anchor="start" x="178" y="-114" font-family="Roboto" font-size="10.00">Urho3D::ConstraintRope2D</text>
<text text-anchor="middle" x="237" y="-103" font-family="Roboto" font-size="10.00">::SetOwnerBodyAnchor</text>
</a>
</g>
</g>
<!-- Node1&#45;&gt;Node37 -->
<g id="edge32" class="edge">
<title>Node1&#45;&gt;Node37</title>
<path fill="none" stroke="#63b8ff" d="M75.34,-257.86C89.71,-229.74 124.17,-169.23 170,-135 171.51,-133.87 173.08,-132.79 174.7,-131.76"/>
<polygon fill="#63b8ff" stroke="#63b8ff" points="176.03,-135.03 183.04,-127.08 172.6,-128.92 176.03,-135.03"/>
</g>
<!-- Node7 -->
<g id="node7" class="node">
<title>Node7</title>
<g id="a_node7"><a xlink:href="class_urho3_d_1_1_object_factory.html#a191ee9fd0ce7c127dfd92b2b9ae47709" target="_top" xlink:title="Return type hash of objects created by this factory.">
<polygon fill="white" stroke="#666666" points="464.5,-419 348.5,-419 348.5,-389 464.5,-389 464.5,-419"/>
<text text-anchor="start" x="356.5" y="-407" font-family="Roboto" font-size="10.00">Urho3D::ObjectFactory</text>
<text text-anchor="middle" x="406.5" y="-396" font-family="Roboto" font-size="10.00">::GetType</text>
</a>
</g>
</g>
<!-- Node6&#45;&gt;Node7 -->
<g id="edge6" class="edge">
<title>Node6&#45;&gt;Node7</title>
<path fill="none" stroke="#63b8ff" d="M292.41,-288.47C296.6,-290.92 300.54,-293.74 304,-297 333.28,-324.56 310.75,-352.4 340,-380 340.77,-380.73 341.57,-381.43 342.38,-382.12"/>
<polygon fill="#63b8ff" stroke="#63b8ff" points="340.37,-384.98 350.58,-387.81 344.36,-379.23 340.37,-384.98"/>
</g>
<!-- Node9 -->
<g id="node9" class="node">
<title>Node9</title>
<g id="a_node9"><a xlink:href="class_urho3_d_1_1_object.html#a69af51cfa67f9626273b35a6d501e03e" target="_top" xlink:title="Return a preallocated map for event data. Used for optimization to avoid constant re&#45;allocation of ev...">
<polygon fill="white" stroke="#666666" points="469,-371 344,-371 344,-341 469,-341 469,-371"/>
<text text-anchor="start" x="352" y="-359" font-family="Roboto" font-size="10.00">Urho3D::Object::GetEvent</text>
<text text-anchor="middle" x="406.5" y="-348" font-family="Roboto" font-size="10.00">DataMap</text>
</a>
</g>
</g>
<!-- Node8&#45;&gt;Node9 -->
<g id="edge8" class="edge">
<title>Node8&#45;&gt;Node9</title>
<path fill="none" stroke="#63b8ff" d="M292,-240.37C296.33,-242.84 300.41,-245.7 304,-249 332.1,-274.85 312.79,-300.21 340,-327 342.83,-329.79 345.98,-332.33 349.32,-334.65"/>
<polygon fill="#63b8ff" stroke="#63b8ff" points="347.47,-337.62 357.84,-339.81 351.1,-331.64 347.47,-337.62"/>
</g>
<!-- Node22 -->
<g id="node12" class="node">
<title>Node22</title>
<g id="a_node12"><a xlink:href="class_urho3_d_1_1_component.html#a2c22f727341671a0420934f249ffe059" target="_top" xlink:title="Return the scene the node belongs to.">
<polygon fill="white" stroke="#666666" points="638.5,-282 527.5,-282 527.5,-252 638.5,-252 638.5,-282"/>
<text text-anchor="start" x="535.5" y="-270" font-family="Roboto" font-size="10.00">Urho3D::Component::</text>
<text text-anchor="middle" x="583" y="-259" font-family="Roboto" font-size="10.00">GetScene</text>
</a>
</g>
</g>
<!-- Node8&#45;&gt;Node22 -->
<g id="edge11" class="edge">
<title>Node8&#45;&gt;Node22</title>
<path fill="none" stroke="#63b8ff" d="M289.17,-240.35C294.39,-242.86 299.44,-245.73 304,-249 324.81,-263.93 316.92,-282.9 340,-294 402.83,-324.2 485.13,-304.29 535.74,-286.3"/>
<polygon fill="#63b8ff" stroke="#63b8ff" points="536.76,-289.65 544.93,-282.91 534.34,-283.08 536.76,-289.65"/>
</g>
<!-- Node24 -->
<g id="node14" class="node">
<title>Node24</title>
<g id="a_node14"><a xlink:href="class_urho3_d_1_1_component.html#aaf87acb64001774c62f0784254f9b291" target="_top" xlink:title="Mark for attribute check on the next network update.">
<polygon fill="white" stroke="#666666" points="462,-126 351,-126 351,-96 462,-96 462,-126"/>
<text text-anchor="start" x="359" y="-114" font-family="Roboto" font-size="10.00">Urho3D::Component::</text>
<text text-anchor="middle" x="406.5" y="-103" font-family="Roboto" font-size="10.00">MarkNetworkUpdate</text>
</a>
</g>
</g>
<!-- Node8&#45;&gt;Node24 -->
<g id="edge13" class="edge">
<title>Node8&#45;&gt;Node24</title>
<path fill="none" stroke="#63b8ff" d="M291.42,-209.52C295.92,-207.07 300.2,-204.25 304,-201 329.11,-179.55 315.06,-157.65 340,-136 341.45,-134.74 342.98,-133.54 344.56,-132.39"/>
<polygon fill="#63b8ff" stroke="#63b8ff" points="346.18,-135.5 352.83,-127.26 342.49,-129.56 346.18,-135.5"/>
</g>
<!-- Node28 -->
<g id="node17" class="node">
<title>Node28</title>
<g id="a_node17"><a xlink:href="class_urho3_d_1_1_component.html#a97c506dfb55216668b1fdf4d4425f7d7" target="_top" xlink:title="Handle enabled/disabled state change.">
<polygon fill="white" stroke="#666666" points="462,-285 351,-285 351,-255 462,-255 462,-285"/>
<text text-anchor="start" x="359" y="-273" font-family="Roboto" font-size="10.00">Urho3D::Component::</text>
<text text-anchor="middle" x="406.5" y="-262" font-family="Roboto" font-size="10.00">OnSetEnabled</text>
</a>
</g>
</g>
<!-- Node8&#45;&gt;Node28 -->
<g id="edge18" class="edge">
<title>Node8&#45;&gt;Node28</title>
<path fill="none" stroke="#63b8ff" d="M292.85,-239.73C307.74,-243.74 324.02,-248.11 339.47,-252.26"/>
<polygon fill="#63b8ff" stroke="#63b8ff" points="338.5,-255.63 349.07,-254.84 340.32,-248.86 338.5,-255.63"/>
</g>
<!-- Node29 -->
<g id="node18" class="node">
<title>Node29</title>
<g id="a_node18"><a xlink:href="class_urho3_d_1_1_object.html#a32020dbf77c196b9777eca479e8abb36" target="_top" xlink:title="Send event to all subscribers.">
<polygon fill="white" stroke="#666666" points="473,-218.5 340,-218.5 340,-199.5 473,-199.5 473,-218.5"/>
<text text-anchor="middle" x="406.5" y="-206.5" font-family="Roboto" font-size="10.00">Urho3D::Object::SendEvent</text>
</a>
</g>
</g>
<!-- Node8&#45;&gt;Node29 -->
<g id="edge19" class="edge">
<title>Node8&#45;&gt;Node29</title>
<path fill="none" stroke="#63b8ff" d="M292.85,-219.76C304.2,-218.68 316.36,-217.52 328.33,-216.37"/>
<polygon fill="#63b8ff" stroke="#63b8ff" points="328.6,-219.86 338.22,-215.43 327.94,-212.89 328.6,-219.86"/>
</g>
<!-- Node10 -->
<g id="node10" class="node">
<title>Node10</title>
<g id="a_node10"><a xlink:href="class_urho3_d_1_1_context.html#acb628095602a49ade116c4761ab44004" target="_top" xlink:title="Return a preallocated map for event data. Used for optimization to avoid constant re&#45;allocation of ev...">
<polygon fill="white" stroke="#666666" points="649,-371 517,-371 517,-341 649,-341 649,-371"/>
<text text-anchor="start" x="525" y="-359" font-family="Roboto" font-size="10.00">Urho3D::Context::GetEvent</text>
<text text-anchor="middle" x="583" y="-348" font-family="Roboto" font-size="10.00">DataMap</text>
</a>
</g>
</g>
<!-- Node9&#45;&gt;Node10 -->
<g id="edge9" class="edge">
<title>Node9&#45;&gt;Node10</title>
<path fill="none" stroke="#63b8ff" d="M469.02,-356C480.7,-356 493.05,-356 505.13,-356"/>
<polygon fill="#63b8ff" stroke="#63b8ff" points="505.08,-359.5 515.08,-356 505.08,-352.5 505.08,-359.5"/>
</g>
<!-- Node11 -->
<g id="node11" class="node">
<title>Node11</title>
<g id="a_node11"><a xlink:href="class_urho3_d_1_1_hash_map.html#ac02bdba9ea0d1055a3a75f6bae2ffc69" target="_top" xlink:title="Clear the map.">
<polygon fill="#fff0f0" stroke="red" points="818.5,-365.5 693.5,-365.5 693.5,-346.5 818.5,-346.5 818.5,-365.5"/>
<text text-anchor="middle" x="756" y="-353.5" font-family="Roboto" font-size="10.00">Urho3D::HashMap::Clear</text>
</a>
</g>
</g>
<!-- Node10&#45;&gt;Node11 -->
<g id="edge10" class="edge">
<title>Node10&#45;&gt;Node11</title>
<path fill="none" stroke="#63b8ff" d="M649.14,-356C659.85,-356 671.02,-356 681.92,-356"/>
<polygon fill="#63b8ff" stroke="#63b8ff" points="681.63,-359.5 691.63,-356 681.63,-352.5 681.63,-359.5"/>
</g>
<!-- Node23 -->
<g id="node13" class="node">
<title>Node23</title>
<g id="a_node13"><a xlink:href="class_urho3_d_1_1_node.html#ad3742cda838a2b291daa44d3ab00de56" target="_top" xlink:title=" ">
<polygon fill="white" stroke="#666666" points="819,-276.5 693,-276.5 693,-257.5 819,-257.5 819,-276.5"/>
<text text-anchor="middle" x="756" y="-264.5" font-family="Roboto" font-size="10.00">Urho3D::Node::GetScene</text>
</a>
</g>
</g>
<!-- Node22&#45;&gt;Node23 -->
<g id="edge12" class="edge">
<title>Node22&#45;&gt;Node23</title>
<path fill="none" stroke="#63b8ff" d="M638.58,-267C652.15,-267 666.93,-267 681.25,-267"/>
<polygon fill="#63b8ff" stroke="#63b8ff" points="681.1,-270.5 691.1,-267 681.1,-263.5 681.1,-270.5"/>
</g>
<!-- Node24&#45;&gt;Node22 -->
<g id="edge14" class="edge">
<title>Node24&#45;&gt;Node22</title>
<path fill="none" stroke="#63b8ff" d="M458.88,-126.46C463.95,-129.17 468.77,-132.33 473,-136 497.94,-157.65 488.47,-175.13 509,-201 521.84,-217.18 538.83,-232.8 553.2,-244.78"/>
<polygon fill="#63b8ff" stroke="#63b8ff" points="550.6,-247.18 560.56,-250.78 555.02,-241.75 550.6,-247.18"/>
</g>
<!-- Node25 -->
<g id="node15" class="node">
<title>Node25</title>
<g id="a_node15"><a xlink:href="class_urho3_d_1_1_component.html#a8f1388c232ca01b7c7328c761aae6e76" target="_top" xlink:title=" ">
<polygon fill="#fff0f0" stroke="red" points="638.5,-192 527.5,-192 527.5,-162 638.5,-162 638.5,-192"/>
<text text-anchor="start" x="535.5" y="-180" font-family="Roboto" font-size="10.00">Urho3D::Component::</text>
<text text-anchor="middle" x="583" y="-169" font-family="Roboto" font-size="10.00">IsReplicated</text>
</a>
</g>
</g>
<!-- Node24&#45;&gt;Node25 -->
<g id="edge15" class="edge">
<title>Node24&#45;&gt;Node25</title>
<path fill="none" stroke="#63b8ff" d="M449.27,-126.39C457.2,-129.47 465.39,-132.75 473,-136 489.28,-142.94 492.56,-146.45 509,-153 513.07,-154.62 517.29,-156.22 521.56,-157.78"/>
<polygon fill="#63b8ff" stroke="#63b8ff" points="520.2,-161.01 530.8,-161.05 522.54,-154.41 520.2,-161.01"/>
</g>
<!-- Node27 -->
<g id="node16" class="node">
<title>Node27</title>
<g id="a_node16"><a xlink:href="class_urho3_d_1_1_scene.html#a00b724dfff718639b9de12d71139499c" target="_top" xlink:title="Mark for attribute check on the next network update.">
<polygon fill="white" stroke="#666666" points="657,-126 509,-126 509,-96 657,-96 657,-126"/>
<text text-anchor="start" x="517" y="-114" font-family="Roboto" font-size="10.00">Urho3D::Scene::MarkNetwork</text>
<text text-anchor="middle" x="583" y="-103" font-family="Roboto" font-size="10.00">Update</text>
</a>
</g>
</g>
<!-- Node24&#45;&gt;Node27 -->
<g id="edge16" class="edge">
<title>Node24&#45;&gt;Node27</title>
<path fill="none" stroke="#63b8ff" d="M462.23,-111C473.37,-111 485.33,-111 497.22,-111"/>
<polygon fill="#63b8ff" stroke="#63b8ff" points="497.07,-114.5 507.07,-111 497.07,-107.5 497.07,-114.5"/>
</g>
<!-- Node27&#45;&gt;Node27 -->
<g id="edge17" class="edge">
<title>Node27&#45;&gt;Node27</title>
<path fill="none" stroke="#63b8ff" d="M552.59,-126.28C545.83,-135.41 555.97,-144 583,-144 597.78,-144 607.51,-141.43 612.19,-137.61"/>
<polygon fill="#63b8ff" stroke="#63b8ff" points="615.66,-138.1 613.25,-127.78 608.7,-137.35 615.66,-138.1"/>
</g>
<!-- Node29&#45;&gt;Node29 -->
<g id="edge20" class="edge">
<title>Node29&#45;&gt;Node29</title>
<path fill="none" stroke="#63b8ff" d="M379.96,-218.87C367.86,-227.44 376.71,-236.5 406.5,-236.5 423.26,-236.5 433.39,-233.63 436.89,-229.6"/>
<polygon fill="#63b8ff" stroke="#63b8ff" points="440.22,-228.52 433.55,-220.29 433.64,-230.89 440.22,-228.52"/>
</g>
<!-- Node30&#45;&gt;Node24 -->
<g id="edge22" class="edge">
<title>Node30&#45;&gt;Node24</title>
<path fill="none" stroke="#63b8ff" d="M291.92,-143.55C307.46,-139.09 324.58,-134.19 340.71,-129.57"/>
<polygon fill="#63b8ff" stroke="#63b8ff" points="341.58,-132.96 350.23,-126.84 339.65,-126.23 341.58,-132.96"/>
</g>
<!-- Node30&#45;&gt;Node30 -->
<g id="edge28" class="edge">
<title>Node30&#45;&gt;Node30</title>
<path fill="none" stroke="#63b8ff" d="M207.21,-174.28C200.58,-183.41 210.52,-192 237,-192 251.48,-192 261.02,-189.43 265.6,-185.61"/>
<polygon fill="#63b8ff" stroke="#63b8ff" points="269.07,-186.09 266.64,-175.78 262.11,-185.36 269.07,-186.09"/>
</g>
<!-- Node31 -->
<g id="node20" class="node">
<title>Node31</title>
<g id="a_node20"><a xlink:href="_math_defs_8h.html#a8096c22c3716e172f685af2a5f5e26bb" target="_top" xlink:title=" ">
<polygon fill="white" stroke="#666666" points="443.5,-163.5 369.5,-163.5 369.5,-144.5 443.5,-144.5 443.5,-163.5"/>
<text text-anchor="middle" x="406.5" y="-151.5" font-family="Roboto" font-size="10.00">Urho3D::Max</text>
</a>
</g>
</g>
<!-- Node30&#45;&gt;Node31 -->
<g id="edge23" class="edge">
<title>Node30&#45;&gt;Node31</title>
<path fill="none" stroke="#63b8ff" d="M304.2,-157.02C322.18,-156.49 341.29,-155.92 358.01,-155.42"/>
<polygon fill="#63b8ff" stroke="#63b8ff" points="357.76,-158.93 367.65,-155.13 357.55,-151.93 357.76,-158.93"/>
</g>
<!-- Node32 -->
<g id="node21" class="node">
<title>Node32</title>
<g id="a_node21"><a xlink:href="class_urho3_d_1_1_constraint2_d.html#a6b020a0b52d60cf6f05f584f85801c58" target="_top" xlink:title="Recreate joint.">
<polygon fill="white" stroke="#666666" points="462.5,-78 350.5,-78 350.5,-48 462.5,-48 462.5,-78"/>
<text text-anchor="start" x="358.5" y="-66" font-family="Roboto" font-size="10.00">Urho3D::Constraint2D</text>
<text text-anchor="middle" x="406.5" y="-55" font-family="Roboto" font-size="10.00">::RecreateJoint</text>
</a>
</g>
</g>
<!-- Node30&#45;&gt;Node32 -->
<g id="edge25" class="edge">
<title>Node30&#45;&gt;Node32</title>
<path fill="none" stroke="#63b8ff" d="M289.62,-143.62C294.7,-141.13 299.59,-138.27 304,-135 325.42,-119.12 318.6,-102.91 340,-87 341.5,-85.88 343.06,-84.81 344.67,-83.79"/>
<polygon fill="#63b8ff" stroke="#63b8ff" points="345.94,-87.09 352.95,-79.15 342.52,-80.98 345.94,-87.09"/>
</g>
<!-- Node31&#45;&gt;Node31 -->
<g id="edge24" class="edge">
<title>Node31&#45;&gt;Node31</title>
<path fill="none" stroke="#63b8ff" d="M379.96,-163.87C367.86,-172.44 376.71,-181.5 406.5,-181.5 423.26,-181.5 433.39,-178.63 436.89,-174.6"/>
<polygon fill="#63b8ff" stroke="#63b8ff" points="440.22,-173.52 433.55,-165.29 433.64,-175.89 440.22,-173.52"/>
</g>
<!-- Node33 -->
<g id="node22" class="node">
<title>Node33</title>
<g id="a_node22"><a xlink:href="class_urho3_d_1_1_constraint2_d.html#a5bd16c56eb8593d219bb77c676c2d531" target="_top" xlink:title="Create joint.">
<polygon fill="#fff0f0" stroke="red" points="639,-78 527,-78 527,-48 639,-48 639,-78"/>
<text text-anchor="start" x="535" y="-66" font-family="Roboto" font-size="10.00">Urho3D::Constraint2D</text>
<text text-anchor="middle" x="583" y="-55" font-family="Roboto" font-size="10.00">::CreateJoint</text>
</a>
</g>
</g>
<!-- Node32&#45;&gt;Node33 -->
<g id="edge26" class="edge">
<title>Node32&#45;&gt;Node33</title>
<path fill="none" stroke="#63b8ff" d="M462.71,-63C479.42,-63 497.95,-63 515.33,-63"/>
<polygon fill="#63b8ff" stroke="#63b8ff" points="515.03,-66.5 525.03,-63 515.03,-59.5 515.03,-66.5"/>
</g>
<!-- Node35 -->
<g id="node23" class="node">
<title>Node35</title>
<g id="a_node23"><a xlink:href="class_urho3_d_1_1_constraint2_d.html#a96753482a7b07d8a9cd15c55c22d1079" target="_top" xlink:title="Release joint.">
<polygon fill="white" stroke="#666666" points="639,-30 527,-30 527,0 639,0 639,-30"/>
<text text-anchor="start" x="535" y="-18" font-family="Roboto" font-size="10.00">Urho3D::Constraint2D</text>
<text text-anchor="middle" x="583" y="-7" font-family="Roboto" font-size="10.00">::ReleaseJoint</text>
</a>
</g>
</g>
<!-- Node32&#45;&gt;Node35 -->
<g id="edge27" class="edge">
<title>Node32&#45;&gt;Node35</title>
<path fill="none" stroke="#63b8ff" d="M462.71,-47.81C479.58,-43.17 498.3,-38.02 515.82,-33.2"/>
<polygon fill="#63b8ff" stroke="#63b8ff" points="516.37,-36.68 525.09,-30.65 514.52,-29.93 516.37,-36.68"/>
</g>
<!-- Node36&#45;&gt;Node24 -->
<g id="edge30" class="edge">
<title>Node36&#45;&gt;Node24</title>
<path fill="none" stroke="#63b8ff" d="M291.92,-78.45C307.46,-82.91 324.58,-87.81 340.71,-92.43"/>
<polygon fill="#63b8ff" stroke="#63b8ff" points="339.65,-95.77 350.23,-95.16 341.58,-89.04 339.65,-95.77"/>
</g>
<!-- Node36&#45;&gt;Node32 -->
<g id="edge31" class="edge">
<title>Node36&#45;&gt;Node32</title>
<path fill="none" stroke="#63b8ff" d="M304.2,-63C315.59,-63 327.42,-63 338.82,-63"/>
<polygon fill="#63b8ff" stroke="#63b8ff" points="338.52,-66.5 348.52,-63 338.52,-59.5 338.52,-66.5"/>
</g>
<!-- Node37&#45;&gt;Node24 -->
<g id="edge33" class="edge">
<title>Node37&#45;&gt;Node24</title>
<path fill="none" stroke="#63b8ff" d="M304.2,-111C315.72,-111 327.71,-111 339.23,-111"/>
<polygon fill="#63b8ff" stroke="#63b8ff" points="339.05,-114.5 349.05,-111 339.05,-107.5 339.05,-114.5"/>
</g>
<!-- Node37&#45;&gt;Node32 -->
<g id="edge34" class="edge">
<title>Node37&#45;&gt;Node32</title>
<path fill="none" stroke="#63b8ff" d="M291.92,-95.55C307.46,-91.09 324.58,-86.19 340.71,-81.57"/>
<polygon fill="#63b8ff" stroke="#63b8ff" points="341.58,-84.96 350.23,-78.84 339.65,-78.23 341.58,-84.96"/>
</g>
</g>
</svg>
