<?xml version="1.0" encoding="UTF-8" standalone="no"?>
<!DOCTYPE svg PUBLIC "-//W3C//DTD SVG 1.1//EN"
 "http://www.w3.org/Graphics/SVG/1.1/DTD/svg11.dtd">
<!-- Generated by graphviz version 7.0.3 (0)
 -->
<!-- Title: Urho3D::Resource Pages: 1 -->
<svg width="1125pt" height="839pt"
 viewBox="0.00 0.00 1125.00 839.00" xmlns="http://www.w3.org/2000/svg" xmlns:xlink="http://www.w3.org/1999/xlink">
<g id="graph0" class="graph" transform="scale(1 1) rotate(0) translate(4 835)">
<title>Urho3D::Resource</title>
<!-- Node1 -->
<g id="node1" class="node">
<title>Node1</title>
<g id="a_node1"><a xlink:title=" ">
<polygon fill="#999999" stroke="#666666" points="783.5,-634.5 687.5,-634.5 687.5,-615.5 783.5,-615.5 783.5,-634.5"/>
<text text-anchor="middle" x="735.5" y="-622.5" font-family="Roboto" font-size="10.00">Urho3D::Resource</text>
</a>
</g>
</g>
<!-- Node2 -->
<g id="node2" class="node">
<title>Node2</title>
<g id="a_node2"><a xlink:href="class_urho3_d_1_1_object.html" target="_top" xlink:title=" ">
<polygon fill="white" stroke="#666666" points="513,-815.5 430,-815.5 430,-796.5 513,-796.5 513,-815.5"/>
<text text-anchor="middle" x="471.5" y="-803.5" font-family="Roboto" font-size="10.00">Urho3D::Object</text>
</a>
</g>
</g>
<!-- Node2&#45;&gt;Node1 -->
<g id="edge1" class="edge">
<title>Node2&#45;&gt;Node1</title>
<path fill="none" stroke="#63b8ff" d="M523.66,-795.26C527.4,-793.24 530.92,-790.84 534,-788 550.44,-772.84 538.78,-759.04 552,-741 576.5,-707.58 590.32,-705.68 625,-683 654.35,-663.81 690.71,-645.54 713.26,-634.8"/>
<polygon fill="#63b8ff" stroke="#63b8ff" points="522.48,-791.96 514.72,-799.17 525.29,-798.37 522.48,-791.96"/>
</g>
<!-- Node18 -->
<g id="node18" class="node">
<title>Node18</title>
<g id="a_node18"><a xlink:href="class_urho3_d_1_1_event_handler.html" target="_top" xlink:title="Internal helper class for invoking event handler functions.">
<polygon fill="white" stroke="#666666" points="792,-711.5 679,-711.5 679,-692.5 792,-692.5 792,-711.5"/>
<text text-anchor="middle" x="735.5" y="-699.5" font-family="Roboto" font-size="10.00">Urho3D::EventHandler</text>
</a>
</g>
</g>
<!-- Node2&#45;&gt;Node18 -->
<g id="edge29" class="edge">
<title>Node2&#45;&gt;Node18</title>
<path fill="none" stroke="#9a32cd" stroke-dasharray="5,2" d="M523.83,-794.08C527.42,-792.32 530.86,-790.31 534,-788 545.62,-779.46 540.5,-769.7 552,-761 564.02,-751.91 650.27,-726.18 699.78,-711.88"/>
<polygon fill="#9a32cd" stroke="#9a32cd" points="522.73,-790.75 514.82,-797.81 525.4,-797.22 522.73,-790.75"/>
<text text-anchor="middle" x="579.5" y="-775" font-family="Roboto" font-size="10.00"> receiver_</text>
<text text-anchor="middle" x="579.5" y="-764" font-family="Roboto" font-size="10.00">sender_</text>
</g>
<!-- Node3 -->
<g id="node3" class="node">
<title>Node3</title>
<g id="a_node3"><a xlink:href="class_urho3_d_1_1_ref_counted.html" target="_top" xlink:title="Base class for intrusively reference&#45;counted objects. These are noncopyable and non&#45;assignable.">
<polygon fill="white" stroke="#666666" points="318,-554.5 211,-554.5 211,-535.5 318,-535.5 318,-554.5"/>
<text text-anchor="middle" x="264.5" y="-542.5" font-family="Roboto" font-size="10.00">Urho3D::RefCounted</text>
</a>
</g>
</g>
<!-- Node3&#45;&gt;Node2 -->
<g id="edge2" class="edge">
<title>Node3&#45;&gt;Node2</title>
<path fill="none" stroke="#63b8ff" d="M271.86,-565.75C287.32,-612.7 331.43,-727.67 409,-788 415.06,-792.71 422.32,-796.19 429.69,-798.76"/>
<polygon fill="#63b8ff" stroke="#63b8ff" points="275.23,-564.79 268.86,-556.33 268.56,-566.92 275.23,-564.79"/>
</g>
<!-- Node5 -->
<g id="node5" class="node">
<title>Node5</title>
<g id="a_node5"><a xlink:href="class_urho3_d_1_1_context.html" target="_top" xlink:title="Urho3D execution context. Provides access to subsystems, object factories and attributes,...">
<polygon fill="white" stroke="#666666" points="1097.5,-335.5 1008.5,-335.5 1008.5,-316.5 1097.5,-316.5 1097.5,-335.5"/>
<text text-anchor="middle" x="1053" y="-323.5" font-family="Roboto" font-size="10.00">Urho3D::Context</text>
</a>
</g>
</g>
<!-- Node3&#45;&gt;Node5 -->
<g id="edge5" class="edge">
<title>Node3&#45;&gt;Node5</title>
<path fill="none" stroke="#63b8ff" d="M329.45,-547.42C484.26,-551.96 873.64,-555.01 971,-476 1018.8,-437.21 1042.4,-362.43 1049.57,-335.75"/>
<polygon fill="#63b8ff" stroke="#63b8ff" points="329.89,-543.93 319.79,-547.13 329.67,-550.93 329.89,-543.93"/>
</g>
<!-- Node4 -->
<g id="node4" class="node">
<title>Node4</title>
<g id="a_node4"><a xlink:href="struct_urho3_d_1_1_ref_count.html" target="_top" xlink:title="Reference count structure.">
<polygon fill="white" stroke="#666666" points="108,-554.5 12,-554.5 12,-535.5 108,-535.5 108,-554.5"/>
<text text-anchor="middle" x="60" y="-542.5" font-family="Roboto" font-size="10.00">Urho3D::RefCount</text>
</a>
</g>
</g>
<!-- Node4&#45;&gt;Node3 -->
<g id="edge3" class="edge">
<title>Node4&#45;&gt;Node3</title>
<path fill="none" stroke="#9a32cd" stroke-dasharray="5,2" d="M119.98,-545C148.64,-545 182.81,-545 210.62,-545"/>
<polygon fill="#9a32cd" stroke="#9a32cd" points="119.99,-541.5 109.99,-545 119.99,-548.5 119.99,-541.5"/>
<text text-anchor="middle" x="161" y="-548" font-family="Roboto" font-size="10.00"> refCount_</text>
</g>
<!-- Node5&#45;&gt;Node2 -->
<g id="edge4" class="edge">
<title>Node5&#45;&gt;Node2</title>
<path fill="none" stroke="#9a32cd" stroke-dasharray="5,2" d="M1051.58,-347.02C1049.47,-428.62 1037.33,-722.78 971,-781 956.54,-793.69 644.22,-795.99 625,-797 587.13,-798.99 543.98,-801.57 513.27,-803.45"/>
<polygon fill="#9a32cd" stroke="#9a32cd" points="1055.08,-347.22 1051.81,-337.14 1048.08,-347.06 1055.08,-347.22"/>
<text text-anchor="middle" x="735.5" y="-800" font-family="Roboto" font-size="10.00"> context_</text>
</g>
<!-- Node6 -->
<g id="node6" class="node">
<title>Node6</title>
<g id="a_node6"><a xlink:href="class_urho3_d_1_1_hash_map.html" target="_top" xlink:title=" ">
<polygon fill="white" stroke="#666666" points="826.5,-196.5 644.5,-196.5 644.5,-155.5 826.5,-155.5 826.5,-196.5"/>
<text text-anchor="start" x="652.5" y="-184.5" font-family="Roboto" font-size="10.00">Urho3D::HashMap&lt; Urho3D</text>
<text text-anchor="start" x="652.5" y="-173.5" font-family="Roboto" font-size="10.00">::StringHash, Urho3D::</text>
<text text-anchor="middle" x="735.5" y="-162.5" font-family="Roboto" font-size="10.00">SharedPtr&lt; Urho3D::ObjectFactory &gt; &gt;</text>
</a>
</g>
</g>
<!-- Node6&#45;&gt;Node5 -->
<g id="edge6" class="edge">
<title>Node6&#45;&gt;Node5</title>
<path fill="none" stroke="#9a32cd" stroke-dasharray="5,2" d="M837.9,-192.14C881.08,-202.07 930.67,-217.72 971,-242 1003.98,-261.86 1032.62,-298.51 1045.2,-316.09"/>
<polygon fill="#9a32cd" stroke="#9a32cd" points="838.78,-188.75 828.26,-190.01 837.27,-195.59 838.78,-188.75"/>
<text text-anchor="middle" x="917.5" y="-245" font-family="Roboto" font-size="10.00"> factories_</text>
</g>
<!-- Node7 -->
<g id="node7" class="node">
<title>Node7</title>
<g id="a_node7"><a xlink:href="class_urho3_d_1_1_hash_base.html" target="_top" xlink:title="Hash set/map base class.">
<polygon fill="white" stroke="#666666" points="521.5,-293.5 421.5,-293.5 421.5,-274.5 521.5,-274.5 521.5,-293.5"/>
<text text-anchor="middle" x="471.5" y="-281.5" font-family="Roboto" font-size="10.00">Urho3D::HashBase</text>
</a>
</g>
</g>
<!-- Node7&#45;&gt;Node6 -->
<g id="edge7" class="edge">
<title>Node7&#45;&gt;Node6</title>
<path fill="none" stroke="#63b8ff" d="M498.52,-268.6C528.29,-251.48 578.87,-223.9 625,-206 633.36,-202.76 642.21,-199.72 651.11,-196.91"/>
<polygon fill="#63b8ff" stroke="#63b8ff" points="497.1,-265.37 490.21,-273.42 500.62,-271.43 497.1,-265.37"/>
</g>
<!-- Node11 -->
<g id="node11" class="node">
<title>Node11</title>
<g id="a_node11"><a xlink:href="class_urho3_d_1_1_hash_map.html" target="_top" xlink:title=" ">
<polygon fill="white" stroke="#666666" points="810,-137.5 661,-137.5 661,-96.5 810,-96.5 810,-137.5"/>
<text text-anchor="start" x="669" y="-125.5" font-family="Roboto" font-size="10.00">Urho3D::HashMap&lt; Urho3D</text>
<text text-anchor="start" x="669" y="-114.5" font-family="Roboto" font-size="10.00">::StringHash, Urho3D::</text>
<text text-anchor="middle" x="735.5" y="-103.5" font-family="Roboto" font-size="10.00">SharedPtr&lt; Urho3D::Object &gt; &gt;</text>
</a>
</g>
</g>
<!-- Node7&#45;&gt;Node11 -->
<g id="edge15" class="edge">
<title>Node7&#45;&gt;Node11</title>
<path fill="none" stroke="#63b8ff" d="M487.4,-265.69C512.57,-235.97 566.54,-177.42 625,-146 636,-140.09 648.28,-135.32 660.53,-131.5"/>
<polygon fill="#63b8ff" stroke="#63b8ff" points="484.94,-263.16 481.23,-273.09 490.32,-267.64 484.94,-263.16"/>
</g>
<!-- Node12 -->
<g id="node12" class="node">
<title>Node12</title>
<g id="a_node12"><a xlink:href="class_urho3_d_1_1_hash_map.html" target="_top" xlink:title=" ">
<polygon fill="white" stroke="#666666" points="816.5,-504.5 654.5,-504.5 654.5,-463.5 816.5,-463.5 816.5,-504.5"/>
<text text-anchor="start" x="662.5" y="-492.5" font-family="Roboto" font-size="10.00">Urho3D::HashMap&lt; Urho3D</text>
<text text-anchor="start" x="662.5" y="-481.5" font-family="Roboto" font-size="10.00">::StringHash, Urho3D::</text>
<text text-anchor="middle" x="735.5" y="-470.5" font-family="Roboto" font-size="10.00">Vector&lt; Urho3D::AttributeInfo &gt; &gt;</text>
</a>
</g>
</g>
<!-- Node7&#45;&gt;Node12 -->
<g id="edge17" class="edge">
<title>Node7&#45;&gt;Node12</title>
<path fill="none" stroke="#63b8ff" d="M484.46,-303.51C507.25,-339.02 560.46,-414.22 625,-454 633.98,-459.53 643.98,-464.06 654.2,-467.77"/>
<polygon fill="#63b8ff" stroke="#63b8ff" points="487.47,-301.73 479.18,-295.12 481.54,-305.45 487.47,-301.73"/>
</g>
<!-- Node13 -->
<g id="node13" class="node">
<title>Node13</title>
<g id="a_node13"><a xlink:href="class_urho3_d_1_1_hash_map.html" target="_top" xlink:title=" ">
<polygon fill="white" stroke="#666666" points="819,-445 652,-445 652,-393 819,-393 819,-445"/>
<text text-anchor="start" x="660" y="-433" font-family="Roboto" font-size="10.00">Urho3D::HashMap&lt; Urho3D</text>
<text text-anchor="start" x="660" y="-422" font-family="Roboto" font-size="10.00">::StringHash, Urho3D::</text>
<text text-anchor="start" x="660" y="-411" font-family="Roboto" font-size="10.00">SharedPtr&lt; Urho3D::EventReceiver</text>
<text text-anchor="middle" x="735.5" y="-400" font-family="Roboto" font-size="10.00">Group &gt; &gt;</text>
</a>
</g>
</g>
<!-- Node7&#45;&gt;Node13 -->
<g id="edge19" class="edge">
<title>Node7&#45;&gt;Node13</title>
<path fill="none" stroke="#63b8ff" d="M493.9,-300.75C522.43,-322.43 575.15,-360.23 625,-384 633.47,-388.04 642.52,-391.77 651.65,-395.18"/>
<polygon fill="#63b8ff" stroke="#63b8ff" points="496.12,-298.04 486.06,-294.72 491.85,-303.59 496.12,-298.04"/>
</g>
<!-- Node14 -->
<g id="node14" class="node">
<title>Node14</title>
<g id="a_node14"><a xlink:href="class_urho3_d_1_1_hash_map.html" target="_top" xlink:title=" ">
<polygon fill="white" stroke="#666666" points="846,-375 625,-375 625,-323 846,-323 846,-375"/>
<text text-anchor="start" x="633" y="-363" font-family="Roboto" font-size="10.00">Urho3D::HashMap&lt; Urho3D</text>
<text text-anchor="start" x="633" y="-352" font-family="Roboto" font-size="10.00">::Object *, Urho3D::HashMap</text>
<text text-anchor="start" x="633" y="-341" font-family="Roboto" font-size="10.00">&lt; Urho3D::StringHash, Urho3D</text>
<text text-anchor="middle" x="735.5" y="-330" font-family="Roboto" font-size="10.00">::SharedPtr&lt; Urho3D::EventReceiverGroup &gt; &gt; &gt;</text>
</a>
</g>
</g>
<!-- Node7&#45;&gt;Node14 -->
<g id="edge21" class="edge">
<title>Node7&#45;&gt;Node14</title>
<path fill="none" stroke="#63b8ff" d="M523.51,-296.66C553.24,-304.03 591.87,-313.61 627.94,-322.56"/>
<polygon fill="#63b8ff" stroke="#63b8ff" points="524.59,-293.32 514.05,-294.31 522.91,-300.11 524.59,-293.32"/>
</g>
<!-- Node21 -->
<g id="node21" class="node">
<title>Node21</title>
<g id="a_node21"><a xlink:href="class_urho3_d_1_1_hash_map.html" target="_top" xlink:title=" ">
<polygon fill="white" stroke="#666666" points="805,-304.5 666,-304.5 666,-263.5 805,-263.5 805,-304.5"/>
<text text-anchor="start" x="674" y="-292.5" font-family="Roboto" font-size="10.00">Urho3D::HashMap&lt; Urho3D</text>
<text text-anchor="start" x="674" y="-281.5" font-family="Roboto" font-size="10.00">::String, Urho3D::Vector</text>
<text text-anchor="middle" x="735.5" y="-270.5" font-family="Roboto" font-size="10.00">&lt; Urho3D::StringHash &gt; &gt;</text>
</a>
</g>
</g>
<!-- Node7&#45;&gt;Node21 -->
<g id="edge33" class="edge">
<title>Node7&#45;&gt;Node21</title>
<path fill="none" stroke="#63b8ff" d="M533.13,-284C572.73,-284 624.52,-284 665.67,-284"/>
<polygon fill="#63b8ff" stroke="#63b8ff" points="533.29,-280.5 523.29,-284 533.29,-287.5 533.29,-280.5"/>
</g>
<!-- Node22 -->
<g id="node22" class="node">
<title>Node22</title>
<g id="a_node22"><a xlink:href="class_urho3_d_1_1_hash_map.html" target="_top" xlink:title=" ">
<polygon fill="white" stroke="#666666" points="813.5,-245 657.5,-245 657.5,-215 813.5,-215 813.5,-245"/>
<text text-anchor="start" x="665.5" y="-233" font-family="Roboto" font-size="10.00">Urho3D::HashMap&lt; StringHash,</text>
<text text-anchor="middle" x="735.5" y="-222" font-family="Roboto" font-size="10.00"> Variant &gt;</text>
</a>
</g>
</g>
<!-- Node7&#45;&gt;Node22 -->
<g id="edge35" class="edge">
<title>Node7&#45;&gt;Node22</title>
<path fill="none" stroke="#63b8ff" d="M531.7,-271.8C569.5,-264.01 618.85,-253.84 659.4,-245.48"/>
<polygon fill="#63b8ff" stroke="#63b8ff" points="531.43,-268.28 522.34,-273.73 532.84,-275.14 531.43,-268.28"/>
</g>
<!-- Node8 -->
<g id="node8" class="node">
<title>Node8</title>
<g id="a_node8"><a xlink:href="struct_urho3_d_1_1_hash_node_base.html" target="_top" xlink:title="Hash set/map node base class.">
<polygon fill="white" stroke="#666666" points="327,-322.5 202,-322.5 202,-303.5 327,-303.5 327,-322.5"/>
<text text-anchor="middle" x="264.5" y="-310.5" font-family="Roboto" font-size="10.00">Urho3D::HashNodeBase</text>
</a>
</g>
</g>
<!-- Node8&#45;&gt;Node7 -->
<g id="edge8" class="edge">
<title>Node8&#45;&gt;Node7</title>
<path fill="none" stroke="#9a32cd" stroke-dasharray="5,2" d="M338.43,-302.68C365.87,-298.8 396.4,-294.48 421.2,-290.97"/>
<polygon fill="#9a32cd" stroke="#9a32cd" points="338.19,-299.18 328.78,-304.05 339.18,-306.11 338.19,-299.18"/>
<text text-anchor="middle" x="368" y="-327" font-family="Roboto" font-size="10.00"> head_</text>
<text text-anchor="middle" x="368" y="-316" font-family="Roboto" font-size="10.00">ptrs_</text>
<text text-anchor="middle" x="368" y="-305" font-family="Roboto" font-size="10.00">tail_</text>
</g>
<!-- Node8&#45;&gt;Node8 -->
<g id="edge9" class="edge">
<title>Node8&#45;&gt;Node8</title>
<path fill="none" stroke="#9a32cd" stroke-dasharray="5,2" d="M246.13,-333.93C248.43,-337.79 254.55,-340.5 264.5,-340.5 282.69,-340.5 288.09,-331.44 280.7,-322.87"/>
<polygon fill="#9a32cd" stroke="#9a32cd" points="249.52,-334.84 248.01,-324.35 242.65,-333.49 249.52,-334.84"/>
<text text-anchor="middle" x="264.5" y="-365.5" font-family="Roboto" font-size="10.00"> down_</text>
<text text-anchor="middle" x="264.5" y="-354.5" font-family="Roboto" font-size="10.00">next_</text>
<text text-anchor="middle" x="264.5" y="-343.5" font-family="Roboto" font-size="10.00">prev_</text>
</g>
<!-- Node9 -->
<g id="node9" class="node">
<title>Node9</title>
<g id="a_node9"><a xlink:href="struct_urho3_d_1_1_allocator_block.html" target="_top" xlink:title="Allocator memory block.">
<polygon fill="white" stroke="#666666" points="324.5,-256.5 204.5,-256.5 204.5,-237.5 324.5,-237.5 324.5,-256.5"/>
<text text-anchor="middle" x="264.5" y="-244.5" font-family="Roboto" font-size="10.00">Urho3D::AllocatorBlock</text>
</a>
</g>
</g>
<!-- Node9&#45;&gt;Node7 -->
<g id="edge10" class="edge">
<title>Node9&#45;&gt;Node7</title>
<path fill="none" stroke="#9a32cd" stroke-dasharray="5,2" d="M332,-259C361,-264.24 394.41,-270.27 421.15,-275.09"/>
<polygon fill="#9a32cd" stroke="#9a32cd" points="332.66,-255.56 322.2,-257.23 331.41,-262.45 332.66,-255.56"/>
<text text-anchor="middle" x="368" y="-272" font-family="Roboto" font-size="10.00"> allocator_</text>
</g>
<!-- Node9&#45;&gt;Node9 -->
<g id="edge13" class="edge">
<title>Node9&#45;&gt;Node9</title>
<path fill="none" stroke="#9a32cd" stroke-dasharray="5,2" d="M246.13,-267.93C248.43,-271.79 254.55,-274.5 264.5,-274.5 282.69,-274.5 288.09,-265.44 280.7,-256.87"/>
<polygon fill="#9a32cd" stroke="#9a32cd" points="249.52,-268.84 248.01,-258.35 242.65,-267.49 249.52,-268.84"/>
<text text-anchor="middle" x="264.5" y="-277.5" font-family="Roboto" font-size="10.00"> next_</text>
</g>
<!-- Node10 -->
<g id="node10" class="node">
<title>Node10</title>
<g id="a_node10"><a xlink:href="struct_urho3_d_1_1_allocator_node.html" target="_top" xlink:title="Allocator node.">
<polygon fill="white" stroke="#666666" points="120,-256.5 0,-256.5 0,-237.5 120,-237.5 120,-256.5"/>
<text text-anchor="middle" x="60" y="-244.5" font-family="Roboto" font-size="10.00">Urho3D::AllocatorNode</text>
</a>
</g>
</g>
<!-- Node10&#45;&gt;Node9 -->
<g id="edge11" class="edge">
<title>Node10&#45;&gt;Node9</title>
<path fill="none" stroke="#9a32cd" stroke-dasharray="5,2" d="M131.76,-247C155.38,-247 181.45,-247 204.11,-247"/>
<polygon fill="#9a32cd" stroke="#9a32cd" points="131.9,-243.5 121.9,-247 131.9,-250.5 131.9,-243.5"/>
<text text-anchor="middle" x="161" y="-250" font-family="Roboto" font-size="10.00"> free_</text>
</g>
<!-- Node10&#45;&gt;Node10 -->
<g id="edge12" class="edge">
<title>Node10&#45;&gt;Node10</title>
<path fill="none" stroke="#9a32cd" stroke-dasharray="5,2" d="M42.07,-267.93C44.32,-271.79 50.29,-274.5 60,-274.5 77.75,-274.5 83.02,-265.44 75.81,-256.87"/>
<polygon fill="#9a32cd" stroke="#9a32cd" points="45.46,-268.83 43.9,-258.35 38.59,-267.52 45.46,-268.83"/>
<text text-anchor="middle" x="60" y="-277.5" font-family="Roboto" font-size="10.00"> next_</text>
</g>
<!-- Node11&#45;&gt;Node5 -->
<g id="edge14" class="edge">
<title>Node11&#45;&gt;Node5</title>
<path fill="none" stroke="#9a32cd" stroke-dasharray="5,2" d="M821.75,-125.5C869.84,-134 928.6,-151 971,-185 1016.37,-221.38 1041.17,-290.51 1049.13,-316.13"/>
<polygon fill="#9a32cd" stroke="#9a32cd" points="822.34,-122.05 811.9,-123.86 821.19,-128.95 822.34,-122.05"/>
<text text-anchor="middle" x="917.5" y="-188" font-family="Roboto" font-size="10.00"> subsystems_</text>
</g>
<!-- Node12&#45;&gt;Node5 -->
<g id="edge16" class="edge">
<title>Node12&#45;&gt;Node5</title>
<path fill="none" stroke="#9a32cd" stroke-dasharray="5,2" d="M827.98,-461.88C873.29,-448.35 927.47,-428.15 971,-400 1000.43,-380.97 1029.4,-351.07 1043.37,-335.75"/>
<polygon fill="#9a32cd" stroke="#9a32cd" points="827.04,-458.51 818.42,-464.67 829,-465.23 827.04,-458.51"/>
<text text-anchor="middle" x="917.5" y="-464" font-family="Roboto" font-size="10.00"> attributes_</text>
<text text-anchor="middle" x="917.5" y="-453" font-family="Roboto" font-size="10.00">networkAttributes_</text>
</g>
<!-- Node13&#45;&gt;Node5 -->
<g id="edge18" class="edge">
<title>Node13&#45;&gt;Node5</title>
<path fill="none" stroke="#9a32cd" stroke-dasharray="5,2" d="M830.47,-395.13C873.53,-383.74 925.08,-369.46 971,-355 989.52,-349.17 1010.12,-341.78 1025.91,-335.92"/>
<polygon fill="#9a32cd" stroke="#9a32cd" points="829.68,-391.72 820.9,-397.65 831.46,-398.49 829.68,-391.72"/>
<text text-anchor="middle" x="917.5" y="-388" font-family="Roboto" font-size="10.00"> eventReceivers_</text>
</g>
<!-- Node14&#45;&gt;Node5 -->
<g id="edge20" class="edge">
<title>Node14&#45;&gt;Node5</title>
<path fill="none" stroke="#9a32cd" stroke-dasharray="5,2" d="M857.6,-340.17C910.53,-336.31 969.28,-332.03 1008.19,-329.19"/>
<polygon fill="#9a32cd" stroke="#9a32cd" points="857.63,-336.66 847.91,-340.88 858.14,-343.64 857.63,-336.66"/>
<text text-anchor="middle" x="917.5" y="-343" font-family="Roboto" font-size="10.00"> specificEventReceivers_</text>
</g>
<!-- Node15 -->
<g id="node15" class="node">
<title>Node15</title>
<g id="a_node15"><a xlink:href="class_urho3_d_1_1_p_o_d_vector.html" target="_top" xlink:title=" ">
<polygon fill="white" stroke="#666666" points="790,-30 681,-30 681,0 790,0 790,-30"/>
<text text-anchor="start" x="689" y="-18" font-family="Roboto" font-size="10.00">Urho3D::PODVector&lt;</text>
<text text-anchor="middle" x="735.5" y="-7" font-family="Roboto" font-size="10.00"> Urho3D::Object * &gt;</text>
</a>
</g>
</g>
<!-- Node15&#45;&gt;Node5 -->
<g id="edge22" class="edge">
<title>Node15&#45;&gt;Node5</title>
<path fill="none" stroke="#9a32cd" stroke-dasharray="5,2" d="M801.7,-15.97C854.2,-20.27 926.36,-34.68 971,-79 1040.98,-148.47 1050.51,-279.29 1051.8,-316.12"/>
<polygon fill="#9a32cd" stroke="#9a32cd" points="802.21,-12.5 791.99,-15.29 801.72,-19.48 802.21,-12.5"/>
<text text-anchor="middle" x="917.5" y="-82" font-family="Roboto" font-size="10.00"> eventSenders_</text>
</g>
<!-- Node16 -->
<g id="node16" class="node">
<title>Node16</title>
<g id="a_node16"><a xlink:href="class_urho3_d_1_1_vector_base.html" target="_top" xlink:title="Vector base class.">
<polygon fill="white" stroke="#666666" points="524.5,-46.5 418.5,-46.5 418.5,-27.5 524.5,-27.5 524.5,-46.5"/>
<text text-anchor="middle" x="471.5" y="-34.5" font-family="Roboto" font-size="10.00">Urho3D::VectorBase</text>
</a>
</g>
</g>
<!-- Node16&#45;&gt;Node15 -->
<g id="edge23" class="edge">
<title>Node16&#45;&gt;Node15</title>
<path fill="none" stroke="#63b8ff" d="M536.12,-31.66C580.44,-27.94 638.89,-23.03 680.85,-19.5"/>
<polygon fill="#63b8ff" stroke="#63b8ff" points="536.07,-28.15 526.4,-32.47 536.66,-35.13 536.07,-28.15"/>
</g>
<!-- Node17 -->
<g id="node17" class="node">
<title>Node17</title>
<g id="a_node17"><a xlink:href="class_urho3_d_1_1_p_o_d_vector.html" target="_top" xlink:title=" ">
<polygon fill="white" stroke="#666666" points="792.5,-78 678.5,-78 678.5,-48 792.5,-48 792.5,-78"/>
<text text-anchor="start" x="686.5" y="-66" font-family="Roboto" font-size="10.00">Urho3D::PODVector&lt;</text>
<text text-anchor="middle" x="735.5" y="-55" font-family="Roboto" font-size="10.00"> Urho3D::HashMap * &gt;</text>
</a>
</g>
</g>
<!-- Node16&#45;&gt;Node17 -->
<g id="edge25" class="edge">
<title>Node16&#45;&gt;Node17</title>
<path fill="none" stroke="#63b8ff" d="M536.17,-43.32C579.53,-47.62 636.4,-53.26 678.12,-57.41"/>
<polygon fill="#63b8ff" stroke="#63b8ff" points="536.69,-39.85 526.4,-42.35 536,-46.82 536.69,-39.85"/>
</g>
<!-- Node17&#45;&gt;Node5 -->
<g id="edge24" class="edge">
<title>Node17&#45;&gt;Node5</title>
<path fill="none" stroke="#9a32cd" stroke-dasharray="5,2" d="M803.98,-76.07C817.98,-79.26 832.55,-82.94 846,-87 854.22,-89.48 855.81,-91.43 864,-94 910.69,-108.68 934.12,-87.83 971,-120 1033.27,-174.31 1048.08,-282.7 1051.22,-316.02"/>
<polygon fill="#9a32cd" stroke="#9a32cd" points="804.92,-72.69 794.4,-73.94 803.4,-79.52 804.92,-72.69"/>
<text text-anchor="middle" x="917.5" y="-123" font-family="Roboto" font-size="10.00"> eventDataMaps_</text>
</g>
<!-- Node18&#45;&gt;Node5 -->
<g id="edge26" class="edge">
<title>Node18&#45;&gt;Node5</title>
<path fill="none" stroke="#9a32cd" stroke-dasharray="5,2" d="M772.72,-687.74C824.49,-665.51 919.08,-617.68 971,-547 1023.02,-476.2 1044.79,-368.44 1050.44,-335.74"/>
<polygon fill="#9a32cd" stroke="#9a32cd" points="771.62,-684.41 763.76,-691.51 774.33,-690.86 771.62,-684.41"/>
<text text-anchor="middle" x="917.5" y="-641" font-family="Roboto" font-size="10.00"> eventHandler_</text>
</g>
<!-- Node23 -->
<g id="node23" class="node">
<title>Node23</title>
<g id="a_node23"><a xlink:href="class_urho3_d_1_1_linked_list.html" target="_top" xlink:title=" ">
<polygon fill="white" stroke="#666666" points="1117,-805 989,-805 989,-775 1117,-775 1117,-805"/>
<text text-anchor="start" x="997" y="-793" font-family="Roboto" font-size="10.00">Urho3D::LinkedList</text>
<text text-anchor="middle" x="1053" y="-782" font-family="Roboto" font-size="10.00">&lt; Urho3D::EventHandler &gt;</text>
</a>
</g>
</g>
<!-- Node18&#45;&gt;Node23 -->
<g id="edge37" class="edge">
<title>Node18&#45;&gt;Node23</title>
<path fill="none" stroke="#9a32cd" stroke-dasharray="5,2" d="M782.89,-714.94C839.68,-730.78 935.76,-757.58 996.43,-774.5"/>
<polygon fill="#9a32cd" stroke="#9a32cd" points="784.11,-711.65 773.54,-712.33 782.23,-718.39 784.11,-711.65"/>
<text text-anchor="middle" x="917.5" y="-769" font-family="Roboto" font-size="10.00"> head_</text>
</g>
<!-- Node19 -->
<g id="node19" class="node">
<title>Node19</title>
<g id="a_node19"><a xlink:href="struct_urho3_d_1_1_linked_list_node.html" target="_top" xlink:title="Singly&#45;linked list node base class.">
<polygon fill="white" stroke="#666666" points="534,-749.5 409,-749.5 409,-730.5 534,-730.5 534,-749.5"/>
<text text-anchor="middle" x="471.5" y="-737.5" font-family="Roboto" font-size="10.00">Urho3D::LinkedListNode</text>
</a>
</g>
</g>
<!-- Node19&#45;&gt;Node18 -->
<g id="edge27" class="edge">
<title>Node19&#45;&gt;Node18</title>
<path fill="none" stroke="#63b8ff" d="M545.56,-729.4C587.64,-723.3 639.7,-715.75 678.51,-710.12"/>
<polygon fill="#63b8ff" stroke="#63b8ff" points="545.15,-725.93 535.76,-730.83 546.16,-732.85 545.15,-725.93"/>
</g>
<!-- Node19&#45;&gt;Node19 -->
<g id="edge28" class="edge">
<title>Node19&#45;&gt;Node19</title>
<path fill="none" stroke="#9a32cd" stroke-dasharray="5,2" d="M453.13,-760.93C455.43,-764.79 461.55,-767.5 471.5,-767.5 489.69,-767.5 495.09,-758.44 487.7,-749.87"/>
<polygon fill="#9a32cd" stroke="#9a32cd" points="456.52,-761.84 455.01,-751.35 449.65,-760.49 456.52,-761.84"/>
<text text-anchor="middle" x="471.5" y="-770.5" font-family="Roboto" font-size="10.00"> next_</text>
</g>
<!-- Node20 -->
<g id="node20" class="node">
<title>Node20</title>
<g id="a_node20"><a xlink:href="class_urho3_d_1_1_string_hash.html" target="_top" xlink:title="32&#45;bit hash value for a string.">
<polygon fill="white" stroke="#666666" points="523.5,-683.5 419.5,-683.5 419.5,-664.5 523.5,-664.5 523.5,-683.5"/>
<text text-anchor="middle" x="471.5" y="-671.5" font-family="Roboto" font-size="10.00">Urho3D::StringHash</text>
</a>
</g>
</g>
<!-- Node20&#45;&gt;Node1 -->
<g id="edge40" class="edge">
<title>Node20&#45;&gt;Node1</title>
<path fill="none" stroke="#9a32cd" stroke-dasharray="5,2" d="M534.9,-662.21C540.68,-661.13 546.45,-660.04 552,-659 597.93,-650.39 650.38,-640.62 687.23,-633.78"/>
<polygon fill="#9a32cd" stroke="#9a32cd" points="534.48,-658.73 525.3,-664.02 535.78,-665.61 534.48,-658.73"/>
<text text-anchor="middle" x="579.5" y="-662" font-family="Roboto" font-size="10.00"> nameHash_</text>
</g>
<!-- Node20&#45;&gt;Node18 -->
<g id="edge30" class="edge">
<title>Node20&#45;&gt;Node18</title>
<path fill="none" stroke="#9a32cd" stroke-dasharray="5,2" d="M534.96,-673.17C557.69,-673.46 583.56,-674.46 607,-677 636.04,-680.15 668.33,-686.51 693.14,-692.03"/>
<polygon fill="#9a32cd" stroke="#9a32cd" points="535.27,-669.67 525.24,-673.1 535.21,-676.67 535.27,-669.67"/>
<text text-anchor="middle" x="579.5" y="-680" font-family="Roboto" font-size="10.00"> eventType_</text>
</g>
<!-- Node20&#45;&gt;Node20 -->
<g id="edge31" class="edge">
<title>Node20&#45;&gt;Node20</title>
<path fill="none" stroke="#9a32cd" stroke-dasharray="5,2" d="M453.13,-694.93C455.43,-698.79 461.55,-701.5 471.5,-701.5 489.69,-701.5 495.09,-692.44 487.7,-683.87"/>
<polygon fill="#9a32cd" stroke="#9a32cd" points="456.52,-695.84 455.01,-685.35 449.65,-694.49 456.52,-695.84"/>
<text text-anchor="middle" x="471.5" y="-704.5" font-family="Roboto" font-size="10.00"> ZERO</text>
</g>
<!-- Node21&#45;&gt;Node5 -->
<g id="edge32" class="edge">
<title>Node21&#45;&gt;Node5</title>
<path fill="none" stroke="#9a32cd" stroke-dasharray="5,2" d="M816.45,-294.64C877.25,-302.74 958.61,-313.57 1008.07,-320.15"/>
<polygon fill="#9a32cd" stroke="#9a32cd" points="817.22,-291.22 806.85,-293.36 816.3,-298.15 817.22,-291.22"/>
<text text-anchor="middle" x="917.5" y="-318" font-family="Roboto" font-size="10.00"> objectCategories_</text>
</g>
<!-- Node22&#45;&gt;Node5 -->
<g id="edge34" class="edge">
<title>Node22&#45;&gt;Node5</title>
<path fill="none" stroke="#9a32cd" stroke-dasharray="5,2" d="M824.96,-246.47C869.5,-256.02 923.89,-269.62 971,-287 993.4,-295.26 1017.96,-307.58 1034.09,-316.15"/>
<polygon fill="#9a32cd" stroke="#9a32cd" points="825.85,-243.08 815.35,-244.44 824.41,-249.93 825.85,-243.08"/>
<text text-anchor="middle" x="917.5" y="-290" font-family="Roboto" font-size="10.00"> globalVars_</text>
</g>
<!-- Node23&#45;&gt;Node2 -->
<g id="edge36" class="edge">
<title>Node23&#45;&gt;Node2</title>
<path fill="none" stroke="#9a32cd" stroke-dasharray="5,2" d="M989.17,-807.89C983.07,-809.14 976.94,-810.22 971,-811 818.54,-831.06 778.77,-813.05 625,-812 592.55,-811.78 584.42,-812.24 552,-811 539.42,-810.52 525.74,-809.75 513.33,-808.95"/>
<polygon fill="#9a32cd" stroke="#9a32cd" points="989.6,-811.38 998.61,-805.79 988.09,-804.55 989.6,-811.38"/>
<text text-anchor="middle" x="735.5" y="-823" font-family="Roboto" font-size="10.00"> eventHandlers_</text>
</g>
<!-- Node24 -->
<g id="node24" class="node">
<title>Node24</title>
<g id="a_node24"><a xlink:href="class_urho3_d_1_1_string.html" target="_top" xlink:title="String class.">
<polygon fill="white" stroke="#666666" points="511.5,-617.5 431.5,-617.5 431.5,-598.5 511.5,-598.5 511.5,-617.5"/>
<text text-anchor="middle" x="471.5" y="-605.5" font-family="Roboto" font-size="10.00">Urho3D::String</text>
</a>
</g>
</g>
<!-- Node24&#45;&gt;Node1 -->
<g id="edge38" class="edge">
<title>Node24&#45;&gt;Node1</title>
<path fill="none" stroke="#9a32cd" stroke-dasharray="5,2" d="M523.47,-606.97C548.64,-606.82 579.44,-607.17 607,-609 633.6,-610.76 663.15,-614.37 687.1,-617.71"/>
<polygon fill="#9a32cd" stroke="#9a32cd" points="523.46,-603.47 513.49,-607.06 523.52,-610.47 523.46,-603.47"/>
<text text-anchor="middle" x="579.5" y="-612" font-family="Roboto" font-size="10.00"> name_</text>
</g>
<!-- Node24&#45;&gt;Node24 -->
<g id="edge39" class="edge">
<title>Node24&#45;&gt;Node24</title>
<path fill="none" stroke="#9a32cd" stroke-dasharray="5,2" d="M453.13,-628.93C455.43,-632.79 461.55,-635.5 471.5,-635.5 489.69,-635.5 495.09,-626.44 487.7,-617.87"/>
<polygon fill="#9a32cd" stroke="#9a32cd" points="456.52,-629.84 455.01,-619.35 449.65,-628.49 456.52,-629.84"/>
<text text-anchor="middle" x="471.5" y="-638.5" font-family="Roboto" font-size="10.00"> EMPTY</text>
</g>
<!-- Node25 -->
<g id="node25" class="node">
<title>Node25</title>
<g id="a_node25"><a xlink:href="class_urho3_d_1_1_timer.html" target="_top" xlink:title="Low&#45;resolution operating system timer.">
<polygon fill="white" stroke="#666666" points="512,-580.5 431,-580.5 431,-561.5 512,-561.5 512,-580.5"/>
<text text-anchor="middle" x="471.5" y="-568.5" font-family="Roboto" font-size="10.00">Urho3D::Timer</text>
</a>
</g>
</g>
<!-- Node25&#45;&gt;Node1 -->
<g id="edge41" class="edge">
<title>Node25&#45;&gt;Node1</title>
<path fill="none" stroke="#9a32cd" stroke-dasharray="5,2" d="M523.54,-578.32C548.75,-582.19 579.57,-587.33 607,-593 637.95,-599.4 672.73,-608.25 698.14,-615.01"/>
<polygon fill="#9a32cd" stroke="#9a32cd" points="524.29,-574.89 513.88,-576.86 523.25,-581.81 524.29,-574.89"/>
<text text-anchor="middle" x="579.5" y="-596" font-family="Roboto" font-size="10.00"> useTimer_</text>
</g>
</g>
</svg>
