<?xml version="1.0" encoding="UTF-8" standalone="no"?>
<!DOCTYPE svg PUBLIC "-//W3C//DTD SVG 1.1//EN"
 "http://www.w3.org/Graphics/SVG/1.1/DTD/svg11.dtd">
<!-- Generated by graphviz version 7.0.3 (0)
 -->
<!-- Title: Urho3D::Obstacle::RegisterObject Pages: 1 -->
<svg width="843pt" height="243pt"
 viewBox="0.00 0.00 843.00 242.50" xmlns="http://www.w3.org/2000/svg" xmlns:xlink="http://www.w3.org/1999/xlink">
<g id="graph0" class="graph" transform="scale(1 1) rotate(0) translate(4 238.5)">
<title>Urho3D::Obstacle::RegisterObject</title>
<!-- Node1 -->
<g id="node1" class="node">
<title>Node1</title>
<g id="a_node1"><a xlink:title=" ">
<polygon fill="#999999" stroke="#666666" points="134,-160 0,-160 0,-130 134,-130 134,-160"/>
<text text-anchor="start" x="8" y="-148" font-family="Roboto" font-size="10.00">Urho3D::Obstacle::Register</text>
<text text-anchor="middle" x="67" y="-137" font-family="Roboto" font-size="10.00">Object</text>
</a>
</g>
</g>
<!-- Node2 -->
<g id="node2" class="node">
<title>Node2</title>
<g id="a_node2"><a xlink:href="class_urho3_d_1_1_obstacle.html#af408619259d941fb592ba22f88561c6e" target="_top" xlink:title=" ">
<polygon fill="white" stroke="#666666" points="312,-234.5 171,-234.5 171,-215.5 312,-215.5 312,-234.5"/>
<text text-anchor="middle" x="241.5" y="-222.5" font-family="Roboto" font-size="10.00">Urho3D::Obstacle::GetHeight</text>
</a>
</g>
</g>
<!-- Node1&#45;&gt;Node2 -->
<g id="edge1" class="edge">
<title>Node1&#45;&gt;Node2</title>
<path fill="none" stroke="#63b8ff" d="M88.89,-160.25C108.84,-174.19 140.2,-194.47 170,-207 174.08,-208.71 178.35,-210.3 182.71,-211.75"/>
<polygon fill="#63b8ff" stroke="#63b8ff" points="181.56,-215.06 192.15,-214.66 183.62,-208.37 181.56,-215.06"/>
</g>
<!-- Node3 -->
<g id="node3" class="node">
<title>Node3</title>
<g id="a_node3"><a xlink:href="class_urho3_d_1_1_obstacle.html#abf62a95c2eb2dc6973d668befbaa7dfe" target="_top" xlink:title=" ">
<polygon fill="white" stroke="#666666" points="313,-197.5 170,-197.5 170,-178.5 313,-178.5 313,-197.5"/>
<text text-anchor="middle" x="241.5" y="-185.5" font-family="Roboto" font-size="10.00">Urho3D::Obstacle::GetRadius</text>
</a>
</g>
</g>
<!-- Node1&#45;&gt;Node3 -->
<g id="edge2" class="edge">
<title>Node1&#45;&gt;Node3</title>
<path fill="none" stroke="#63b8ff" d="M129.79,-160.4C149.34,-165.27 170.71,-170.6 189.42,-175.27"/>
<polygon fill="#63b8ff" stroke="#63b8ff" points="188.37,-178.61 198.92,-177.63 190.06,-171.82 188.37,-178.61"/>
</g>
<!-- Node4 -->
<g id="node4" class="node">
<title>Node4</title>
<g id="a_node4"><a xlink:href="class_urho3_d_1_1_context.html#aa9b2cffef8d52fa18bfe533a2615a598" target="_top" xlink:title="Register a factory for an object type.">
<polygon fill="white" stroke="#666666" points="306.5,-160 176.5,-160 176.5,-130 306.5,-130 306.5,-160"/>
<text text-anchor="start" x="184.5" y="-148" font-family="Roboto" font-size="10.00">Urho3D::Context::Register</text>
<text text-anchor="middle" x="241.5" y="-137" font-family="Roboto" font-size="10.00">Factory</text>
</a>
</g>
</g>
<!-- Node1&#45;&gt;Node4 -->
<g id="edge3" class="edge">
<title>Node1&#45;&gt;Node4</title>
<path fill="none" stroke="#63b8ff" d="M134.2,-145C144.21,-145 154.6,-145 164.79,-145"/>
<polygon fill="#63b8ff" stroke="#63b8ff" points="164.67,-148.5 174.67,-145 164.67,-141.5 164.67,-148.5"/>
</g>
<!-- Node6 -->
<g id="node6" class="node">
<title>Node6</title>
<g id="a_node6"><a xlink:href="class_urho3_d_1_1_obstacle.html#ad9a64bbab67f032de0735396681d62c3" target="_top" xlink:title=" ">
<polygon fill="white" stroke="#666666" points="311.5,-111.5 171.5,-111.5 171.5,-92.5 311.5,-92.5 311.5,-111.5"/>
<text text-anchor="middle" x="241.5" y="-99.5" font-family="Roboto" font-size="10.00">Urho3D::Obstacle::SetHeight</text>
</a>
</g>
</g>
<!-- Node1&#45;&gt;Node6 -->
<g id="edge5" class="edge">
<title>Node1&#45;&gt;Node6</title>
<path fill="none" stroke="#63b8ff" d="M129.79,-129.6C149.34,-124.73 170.71,-119.4 189.42,-114.73"/>
<polygon fill="#63b8ff" stroke="#63b8ff" points="190.06,-118.18 198.92,-112.37 188.37,-111.39 190.06,-118.18"/>
</g>
<!-- Node13 -->
<g id="node13" class="node">
<title>Node13</title>
<g id="a_node13"><a xlink:href="class_urho3_d_1_1_obstacle.html#a971e6fffa3e9f5f11ae99bca290108b5" target="_top" xlink:title=" ">
<polygon fill="white" stroke="#666666" points="312.5,-74.5 170.5,-74.5 170.5,-55.5 312.5,-55.5 312.5,-74.5"/>
<text text-anchor="middle" x="241.5" y="-62.5" font-family="Roboto" font-size="10.00">Urho3D::Obstacle::SetRadius</text>
</a>
</g>
</g>
<!-- Node1&#45;&gt;Node13 -->
<g id="edge13" class="edge">
<title>Node1&#45;&gt;Node13</title>
<path fill="none" stroke="#63b8ff" d="M88.89,-129.75C108.84,-115.81 140.2,-95.53 170,-83 174.08,-81.29 178.35,-79.7 182.71,-78.25"/>
<polygon fill="#63b8ff" stroke="#63b8ff" points="183.62,-81.63 192.15,-75.34 181.56,-74.94 183.62,-81.63"/>
</g>
<!-- Node5 -->
<g id="node5" class="node">
<title>Node5</title>
<g id="a_node5"><a xlink:href="class_urho3_d_1_1_object_factory.html#a191ee9fd0ce7c127dfd92b2b9ae47709" target="_top" xlink:title="Return type hash of objects created by this factory.">
<polygon fill="white" stroke="#666666" points="465,-160 349,-160 349,-130 465,-130 465,-160"/>
<text text-anchor="start" x="357" y="-148" font-family="Roboto" font-size="10.00">Urho3D::ObjectFactory</text>
<text text-anchor="middle" x="407" y="-137" font-family="Roboto" font-size="10.00">::GetType</text>
</a>
</g>
</g>
<!-- Node4&#45;&gt;Node5 -->
<g id="edge4" class="edge">
<title>Node4&#45;&gt;Node5</title>
<path fill="none" stroke="#63b8ff" d="M306.65,-145C316.73,-145 327.17,-145 337.35,-145"/>
<polygon fill="#63b8ff" stroke="#63b8ff" points="337.16,-148.5 347.16,-145 337.16,-141.5 337.16,-148.5"/>
</g>
<!-- Node7 -->
<g id="node7" class="node">
<title>Node7</title>
<g id="a_node7"><a xlink:href="class_urho3_d_1_1_component.html#aaf87acb64001774c62f0784254f9b291" target="_top" xlink:title="Mark for attribute check on the next network update.">
<polygon fill="white" stroke="#666666" points="462.5,-96 351.5,-96 351.5,-66 462.5,-66 462.5,-96"/>
<text text-anchor="start" x="359.5" y="-84" font-family="Roboto" font-size="10.00">Urho3D::Component::</text>
<text text-anchor="middle" x="407" y="-73" font-family="Roboto" font-size="10.00">MarkNetworkUpdate</text>
</a>
</g>
</g>
<!-- Node6&#45;&gt;Node7 -->
<g id="edge6" class="edge">
<title>Node6&#45;&gt;Node7</title>
<path fill="none" stroke="#63b8ff" d="M311.84,-93.09C321.18,-91.89 330.75,-90.67 340.03,-89.47"/>
<polygon fill="#63b8ff" stroke="#63b8ff" points="340.2,-92.98 349.68,-88.23 339.31,-86.04 340.2,-92.98"/>
</g>
<!-- Node8 -->
<g id="node8" class="node">
<title>Node8</title>
<g id="a_node8"><a xlink:href="class_urho3_d_1_1_component.html#a2c22f727341671a0420934f249ffe059" target="_top" xlink:title="Return the scene the node belongs to.">
<polygon fill="white" stroke="#666666" points="630.5,-144 519.5,-144 519.5,-114 630.5,-114 630.5,-144"/>
<text text-anchor="start" x="527.5" y="-132" font-family="Roboto" font-size="10.00">Urho3D::Component::</text>
<text text-anchor="middle" x="575" y="-121" font-family="Roboto" font-size="10.00">GetScene</text>
</a>
</g>
</g>
<!-- Node7&#45;&gt;Node8 -->
<g id="edge7" class="edge">
<title>Node7&#45;&gt;Node8</title>
<path fill="none" stroke="#63b8ff" d="M461.44,-96.45C476.84,-100.91 493.8,-105.81 509.79,-110.43"/>
<polygon fill="#63b8ff" stroke="#63b8ff" points="508.63,-113.74 519.21,-113.16 510.57,-107.02 508.63,-113.74"/>
</g>
<!-- Node10 -->
<g id="node10" class="node">
<title>Node10</title>
<g id="a_node10"><a xlink:href="class_urho3_d_1_1_component.html#a8f1388c232ca01b7c7328c761aae6e76" target="_top" xlink:title=" ">
<polygon fill="white" stroke="#666666" points="630.5,-96 519.5,-96 519.5,-66 630.5,-66 630.5,-96"/>
<text text-anchor="start" x="527.5" y="-84" font-family="Roboto" font-size="10.00">Urho3D::Component::</text>
<text text-anchor="middle" x="575" y="-73" font-family="Roboto" font-size="10.00">IsReplicated</text>
</a>
</g>
</g>
<!-- Node7&#45;&gt;Node10 -->
<g id="edge9" class="edge">
<title>Node7&#45;&gt;Node10</title>
<path fill="none" stroke="#63b8ff" d="M462.81,-81C477.26,-81 493.01,-81 507.98,-81"/>
<polygon fill="#63b8ff" stroke="#63b8ff" points="507.73,-84.5 517.73,-81 507.73,-77.5 507.73,-84.5"/>
</g>
<!-- Node12 -->
<g id="node12" class="node">
<title>Node12</title>
<g id="a_node12"><a xlink:href="class_urho3_d_1_1_scene.html#a00b724dfff718639b9de12d71139499c" target="_top" xlink:title="Mark for attribute check on the next network update.">
<polygon fill="white" stroke="#666666" points="649,-30 501,-30 501,0 649,0 649,-30"/>
<text text-anchor="start" x="509" y="-18" font-family="Roboto" font-size="10.00">Urho3D::Scene::MarkNetwork</text>
<text text-anchor="middle" x="575" y="-7" font-family="Roboto" font-size="10.00">Update</text>
</a>
</g>
</g>
<!-- Node7&#45;&gt;Node12 -->
<g id="edge11" class="edge">
<title>Node7&#45;&gt;Node12</title>
<path fill="none" stroke="#63b8ff" d="M446.92,-65.53C470.04,-56.33 499.6,-44.58 524.38,-34.73"/>
<polygon fill="#63b8ff" stroke="#63b8ff" points="525.63,-38 533.63,-31.05 523.04,-31.49 525.63,-38"/>
</g>
<!-- Node9 -->
<g id="node9" class="node">
<title>Node9</title>
<g id="a_node9"><a xlink:href="class_urho3_d_1_1_node.html#ad3742cda838a2b291daa44d3ab00de56" target="_top" xlink:title=" ">
<polygon fill="white" stroke="#666666" points="823,-138.5 697,-138.5 697,-119.5 823,-119.5 823,-138.5"/>
<text text-anchor="middle" x="760" y="-126.5" font-family="Roboto" font-size="10.00">Urho3D::Node::GetScene</text>
</a>
</g>
</g>
<!-- Node8&#45;&gt;Node9 -->
<g id="edge8" class="edge">
<title>Node8&#45;&gt;Node9</title>
<path fill="none" stroke="#63b8ff" d="M630.91,-129C648,-129 667.14,-129 685.3,-129"/>
<polygon fill="#63b8ff" stroke="#63b8ff" points="685.24,-132.5 695.24,-129 685.24,-125.5 685.24,-132.5"/>
</g>
<!-- Node11 -->
<g id="node11" class="node">
<title>Node11</title>
<g id="a_node11"><a xlink:href="class_urho3_d_1_1_scene.html#a97fb1222bd2f38e6c1c433c0b7e54d40" target="_top" xlink:title="Return whether the specified id is a replicated id.">
<polygon fill="white" stroke="#666666" points="835,-90.5 685,-90.5 685,-71.5 835,-71.5 835,-90.5"/>
<text text-anchor="middle" x="760" y="-78.5" font-family="Roboto" font-size="10.00">Urho3D::Scene::IsReplicatedID</text>
</a>
</g>
</g>
<!-- Node10&#45;&gt;Node11 -->
<g id="edge10" class="edge">
<title>Node10&#45;&gt;Node11</title>
<path fill="none" stroke="#63b8ff" d="M630.91,-81C644.2,-81 658.72,-81 673.07,-81"/>
<polygon fill="#63b8ff" stroke="#63b8ff" points="672.99,-84.5 682.99,-81 672.99,-77.5 672.99,-84.5"/>
</g>
<!-- Node12&#45;&gt;Node12 -->
<g id="edge12" class="edge">
<title>Node12&#45;&gt;Node12</title>
<path fill="none" stroke="#63b8ff" d="M545.47,-30.28C538.91,-39.41 548.75,-48 575,-48 589.36,-48 598.8,-45.43 603.35,-41.61"/>
<polygon fill="#63b8ff" stroke="#63b8ff" points="606.81,-42.09 604.37,-31.78 599.85,-41.36 606.81,-42.09"/>
</g>
<!-- Node13&#45;&gt;Node7 -->
<g id="edge14" class="edge">
<title>Node13&#45;&gt;Node7</title>
<path fill="none" stroke="#63b8ff" d="M312.79,-71.88C321.69,-72.75 330.79,-73.64 339.63,-74.5"/>
<polygon fill="#63b8ff" stroke="#63b8ff" points="339.27,-77.99 349.57,-75.48 339.96,-71.02 339.27,-77.99"/>
</g>
</g>
</svg>
