<?xml version="1.0" encoding="UTF-8" standalone="no"?>
<!DOCTYPE svg PUBLIC "-//W3C//DTD SVG 1.1//EN"
 "http://www.w3.org/Graphics/SVG/1.1/DTD/svg11.dtd">
<!-- Generated by graphviz version 7.0.3 (0)
 -->
<!-- Title: Urho3D::Viewport::WorldToScreenPoint Pages: 1 -->
<svg width="300pt" height="64pt"
 viewBox="0.00 0.00 300.00 64.00" xmlns="http://www.w3.org/2000/svg" xmlns:xlink="http://www.w3.org/1999/xlink">
<g id="graph0" class="graph" transform="scale(1 1) rotate(0) translate(4 60)">
<title>Urho3D::Viewport::WorldToScreenPoint</title>
<!-- Node1 -->
<g id="node1" class="node">
<title>Node1</title>
<g id="a_node1"><a xlink:title="Convert a world space point to normalized screen coordinates.">
<polygon fill="#999999" stroke="#666666" points="137,-42.5 0,-42.5 0,-12.5 137,-12.5 137,-42.5"/>
<text text-anchor="start" x="8" y="-30.5" font-family="Roboto" font-size="10.00">Urho3D::Viewport::WorldTo</text>
<text text-anchor="middle" x="68.5" y="-19.5" font-family="Roboto" font-size="10.00">ScreenPoint</text>
</a>
</g>
</g>
<!-- Node2 -->
<g id="node2" class="node">
<title>Node2</title>
<g id="a_node2"><a xlink:href="class_urho3_d_1_1_int_rect.html#a19bd7564d19878420163e25024e6d84b" target="_top" xlink:title=" ">
<polygon fill="white" stroke="#666666" points="292,-56 173,-56 173,-37 292,-37 292,-56"/>
<text text-anchor="middle" x="232.5" y="-44" font-family="Roboto" font-size="10.00">Urho3D::IntRect::Height</text>
</a>
</g>
</g>
<!-- Node1&#45;&gt;Node2 -->
<g id="edge1" class="edge">
<title>Node1&#45;&gt;Node2</title>
<path fill="none" stroke="#63b8ff" d="M137.26,-35.45C145.22,-36.38 153.35,-37.33 161.34,-38.27"/>
<polygon fill="#63b8ff" stroke="#63b8ff" points="160.66,-41.72 171,-39.4 161.47,-34.76 160.66,-41.72"/>
</g>
<!-- Node3 -->
<g id="node3" class="node">
<title>Node3</title>
<g id="a_node3"><a xlink:href="class_urho3_d_1_1_int_rect.html#ac994f1ac126b1cf039ac6a0e6040f3b4" target="_top" xlink:title=" ">
<polygon fill="white" stroke="#666666" points="290.5,-19 174.5,-19 174.5,0 290.5,0 290.5,-19"/>
<text text-anchor="middle" x="232.5" y="-7" font-family="Roboto" font-size="10.00">Urho3D::IntRect::Width</text>
</a>
</g>
</g>
<!-- Node1&#45;&gt;Node3 -->
<g id="edge2" class="edge">
<title>Node1&#45;&gt;Node3</title>
<path fill="none" stroke="#63b8ff" d="M137.26,-19.97C145.67,-19.04 154.27,-18.08 162.69,-17.15"/>
<polygon fill="#63b8ff" stroke="#63b8ff" points="162.97,-20.64 172.52,-16.05 162.2,-13.68 162.97,-20.64"/>
</g>
</g>
</svg>
