<?xml version="1.0" encoding="UTF-8" standalone="no"?>
<!DOCTYPE svg PUBLIC "-//W3C//DTD SVG 1.1//EN"
 "http://www.w3.org/Graphics/SVG/1.1/DTD/svg11.dtd">
<!-- Generated by graphviz version 7.0.3 (0)
 -->
<!-- Title: Urho3D::Graphics::Restore Pages: 1 -->
<svg width="927pt" height="421pt"
 viewBox="0.00 0.00 927.00 420.50" xmlns="http://www.w3.org/2000/svg" xmlns:xlink="http://www.w3.org/1999/xlink">
<g id="graph0" class="graph" transform="scale(1 1) rotate(0) translate(4 416.5)">
<title>Urho3D::Graphics::Restore</title>
<!-- Node1 -->
<g id="node1" class="node">
<title>Node1</title>
<g id="a_node1"><a xlink:title=" ">
<polygon fill="#999999" stroke="#666666" points="131,-164.5 0,-164.5 0,-145.5 131,-145.5 131,-164.5"/>
<text text-anchor="middle" x="65.5" y="-152.5" font-family="Roboto" font-size="10.00">Urho3D::Graphics::Restore</text>
</a>
</g>
</g>
<!-- Node2 -->
<g id="node2" class="node">
<title>Node2</title>
<g id="a_node2"><a xlink:href="class_urho3_d_1_1_string.html#ac6f0b2fb0bce5afbeb088c7cb15abbe1" target="_top" xlink:title="Clear the string.">
<polygon fill="white" stroke="#666666" points="299,-291.5 191,-291.5 191,-272.5 299,-272.5 299,-291.5"/>
<text text-anchor="middle" x="245" y="-279.5" font-family="Roboto" font-size="10.00">Urho3D::String::Clear</text>
</a>
</g>
</g>
<!-- Node1&#45;&gt;Node2 -->
<g id="edge1" class="edge">
<title>Node1&#45;&gt;Node2</title>
<path fill="none" stroke="#63b8ff" d="M80.43,-164.97C110.89,-186.76 183.67,-238.84 221.03,-265.56"/>
<polygon fill="#63b8ff" stroke="#63b8ff" points="218.74,-268.23 228.91,-271.2 222.81,-262.53 218.74,-268.23"/>
</g>
<!-- Node5 -->
<g id="node5" class="node">
<title>Node5</title>
<g id="a_node5"><a xlink:href="class_urho3_d_1_1_graphics.html#aee06c66457f19fdad1d9e169b9c9941a" target="_top" xlink:title="Release/clear GPU objects and optionally close the window. Used only on OpenGL.">
<polygon fill="white" stroke="#666666" points="311,-191.5 179,-191.5 179,-172.5 311,-172.5 311,-191.5"/>
<text text-anchor="middle" x="245" y="-179.5" font-family="Roboto" font-size="10.00">Urho3D::Graphics::Release</text>
</a>
</g>
</g>
<!-- Node1&#45;&gt;Node5 -->
<g id="edge4" class="edge">
<title>Node1&#45;&gt;Node5</title>
<path fill="none" stroke="#63b8ff" d="M131.34,-164.86C143.16,-166.66 155.6,-168.55 167.73,-170.4"/>
<polygon fill="#63b8ff" stroke="#63b8ff" points="166.84,-173.8 177.25,-171.85 167.89,-166.88 166.84,-173.8"/>
</g>
<!-- Node21 -->
<g id="node21" class="node">
<title>Node21</title>
<g id="a_node21"><a xlink:href="class_urho3_d_1_1_object.html#a32020dbf77c196b9777eca479e8abb36" target="_top" xlink:title="Send event to all subscribers.">
<polygon fill="white" stroke="#666666" points="503.5,-141.5 370.5,-141.5 370.5,-122.5 503.5,-122.5 503.5,-141.5"/>
<text text-anchor="middle" x="437" y="-129.5" font-family="Roboto" font-size="10.00">Urho3D::Object::SendEvent</text>
</a>
</g>
</g>
<!-- Node1&#45;&gt;Node21 -->
<g id="edge26" class="edge">
<title>Node1&#45;&gt;Node21</title>
<path fill="none" stroke="#63b8ff" d="M131.28,-150.97C194.68,-147.02 291.27,-141.01 358.65,-136.81"/>
<polygon fill="#63b8ff" stroke="#63b8ff" points="358.77,-140.31 368.53,-136.2 358.34,-133.33 358.77,-140.31"/>
</g>
<!-- Node22 -->
<g id="node22" class="node">
<title>Node22</title>
<g id="a_node22"><a xlink:href="class_urho3_d_1_1_graphics.html#a28692e56283ce29f241889657472efc3" target="_top" xlink:title="Reset cached rendering state.">
<polygon fill="white" stroke="#666666" points="323,-93 167,-93 167,-63 323,-63 323,-93"/>
<text text-anchor="start" x="175" y="-81" font-family="Roboto" font-size="10.00">Urho3D::Graphics::ResetCached</text>
<text text-anchor="middle" x="245" y="-70" font-family="Roboto" font-size="10.00">State</text>
</a>
</g>
</g>
<!-- Node1&#45;&gt;Node22 -->
<g id="edge22" class="edge">
<title>Node1&#45;&gt;Node22</title>
<path fill="none" stroke="#63b8ff" d="M89.34,-145.09C116.66,-133.24 163.08,-113.1 197.95,-97.98"/>
<polygon fill="#63b8ff" stroke="#63b8ff" points="199.2,-101.25 206.98,-94.06 196.41,-94.83 199.2,-101.25"/>
</g>
<!-- Node3 -->
<g id="node3" class="node">
<title>Node3</title>
<g id="a_node3"><a xlink:href="class_urho3_d_1_1_string.html#aed2d8d23da6f2403c7aaa20082036f88" target="_top" xlink:title="Resize the string.">
<polygon fill="white" stroke="#666666" points="494,-392.5 380,-392.5 380,-373.5 494,-373.5 494,-392.5"/>
<text text-anchor="middle" x="437" y="-380.5" font-family="Roboto" font-size="10.00">Urho3D::String::Resize</text>
</a>
</g>
</g>
<!-- Node2&#45;&gt;Node3 -->
<g id="edge2" class="edge">
<title>Node2&#45;&gt;Node3</title>
<path fill="none" stroke="#63b8ff" d="M264.56,-291.87C297.84,-309.56 367.83,-346.76 407.32,-367.75"/>
<polygon fill="#63b8ff" stroke="#63b8ff" points="405.55,-370.78 416.02,-372.38 408.84,-364.6 405.55,-370.78"/>
</g>
<!-- Node4 -->
<g id="node4" class="node">
<title>Node4</title>
<g id="a_node4"><a xlink:href="class_urho3_d_1_1_string.html#a953822d6a39e507861ee02a24bb7996e" target="_top" xlink:title="Copy chars from one buffer to another.">
<polygon fill="white" stroke="#666666" points="703.5,-412.5 569.5,-412.5 569.5,-393.5 703.5,-393.5 703.5,-412.5"/>
<text text-anchor="middle" x="636.5" y="-400.5" font-family="Roboto" font-size="10.00">Urho3D::String::CopyChars</text>
</a>
</g>
</g>
<!-- Node3&#45;&gt;Node4 -->
<g id="edge3" class="edge">
<title>Node3&#45;&gt;Node4</title>
<path fill="none" stroke="#63b8ff" d="M494.33,-388.7C514.14,-390.71 536.77,-393 558.01,-395.15"/>
<polygon fill="#63b8ff" stroke="#63b8ff" points="557.5,-398.62 567.81,-396.14 558.21,-391.66 557.5,-398.62"/>
</g>
<!-- Node6 -->
<g id="node6" class="node">
<title>Node6</title>
<g id="a_node6"><a xlink:href="class_urho3_d_1_1_graphics.html#a8f67132e189c7f7366a8b9d269495be8" target="_top" xlink:title="Clean up all framebuffers. Called when destroying the context. Used only on OpenGL.">
<polygon fill="white" stroke="#666666" points="503.5,-315 370.5,-315 370.5,-285 503.5,-285 503.5,-315"/>
<text text-anchor="start" x="378.5" y="-303" font-family="Roboto" font-size="10.00">Urho3D::Graphics::Cleanup</text>
<text text-anchor="middle" x="437" y="-292" font-family="Roboto" font-size="10.00">Framebuffers</text>
</a>
</g>
</g>
<!-- Node5&#45;&gt;Node6 -->
<g id="edge5" class="edge">
<title>Node5&#45;&gt;Node6</title>
<path fill="none" stroke="#63b8ff" d="M261.87,-191.86C292.44,-210.84 360.11,-252.87 401.51,-278.58"/>
<polygon fill="#63b8ff" stroke="#63b8ff" points="399.56,-281.49 409.9,-283.79 403.25,-275.54 399.56,-281.49"/>
</g>
<!-- Node10 -->
<g id="node10" class="node">
<title>Node10</title>
<g id="a_node10"><a xlink:href="class_urho3_d_1_1_hash_map.html#ac02bdba9ea0d1055a3a75f6bae2ffc69" target="_top" xlink:title="Clear the map.">
<polygon fill="white" stroke="#666666" points="499.5,-196.5 374.5,-196.5 374.5,-177.5 499.5,-177.5 499.5,-196.5"/>
<text text-anchor="middle" x="437" y="-184.5" font-family="Roboto" font-size="10.00">Urho3D::HashMap::Clear</text>
</a>
</g>
</g>
<!-- Node5&#45;&gt;Node10 -->
<g id="edge9" class="edge">
<title>Node5&#45;&gt;Node10</title>
<path fill="none" stroke="#63b8ff" d="M311.39,-183.72C327.87,-184.15 345.68,-184.62 362.53,-185.07"/>
<polygon fill="#63b8ff" stroke="#63b8ff" points="362.41,-188.56 372.5,-185.33 362.6,-181.57 362.41,-188.56"/>
</g>
<!-- Node5&#45;&gt;Node21 -->
<g id="edge20" class="edge">
<title>Node5&#45;&gt;Node21</title>
<path fill="none" stroke="#63b8ff" d="M283.99,-172C313.64,-164.2 355.03,-153.31 387.14,-144.86"/>
<polygon fill="#63b8ff" stroke="#63b8ff" points="387.83,-148.3 396.61,-142.37 386.05,-141.53 387.83,-148.3"/>
</g>
<!-- Node7 -->
<g id="node7" class="node">
<title>Node7</title>
<g id="a_node7"><a xlink:href="class_urho3_d_1_1_graphics.html#aecd0066098f01560de4784346ace7a2f" target="_top" xlink:title="Bind a framebuffer using either extension or core functionality. Used only on OpenGL.">
<polygon fill="white" stroke="#666666" points="722,-375.5 551,-375.5 551,-356.5 722,-356.5 722,-375.5"/>
<text text-anchor="middle" x="636.5" y="-363.5" font-family="Roboto" font-size="10.00">Urho3D::Graphics::BindFramebuffer</text>
</a>
</g>
</g>
<!-- Node6&#45;&gt;Node7 -->
<g id="edge6" class="edge">
<title>Node6&#45;&gt;Node7</title>
<path fill="none" stroke="#63b8ff" d="M470.57,-315.31C492.85,-325.34 523.26,-338.18 551,-347 558.22,-349.29 565.87,-351.42 573.51,-353.36"/>
<polygon fill="#63b8ff" stroke="#63b8ff" points="572.61,-356.74 583.16,-355.7 574.26,-349.94 572.61,-356.74"/>
</g>
<!-- Node8 -->
<g id="node8" class="node">
<title>Node8</title>
<g id="a_node8"><a xlink:href="class_urho3_d_1_1_graphics.html#afacc39509612f8ea1c934de68ffba439" target="_top" xlink:title="Delete a framebuffer using either extension or core functionality. Used only on OpenGL.">
<polygon fill="white" stroke="#666666" points="699,-338 574,-338 574,-308 699,-308 699,-338"/>
<text text-anchor="start" x="582" y="-326" font-family="Roboto" font-size="10.00">Urho3D::Graphics::Delete</text>
<text text-anchor="middle" x="636.5" y="-315" font-family="Roboto" font-size="10.00">Framebuffer</text>
</a>
</g>
</g>
<!-- Node6&#45;&gt;Node8 -->
<g id="edge7" class="edge">
<title>Node6&#45;&gt;Node8</title>
<path fill="none" stroke="#63b8ff" d="M503.76,-307.66C522.53,-309.84 543.09,-312.24 562.27,-314.47"/>
<polygon fill="#63b8ff" stroke="#63b8ff" points="561.86,-317.95 572.19,-315.63 562.67,-310.99 561.86,-317.95"/>
</g>
<!-- Node9 -->
<g id="node9" class="node">
<title>Node9</title>
<g id="a_node9"><a xlink:href="class_urho3_d_1_1_graphics.html#a66b6675da108ca1de2eae6f5dd03286f" target="_top" xlink:title=" ">
<polygon fill="white" stroke="#666666" points="714,-289.5 559,-289.5 559,-270.5 714,-270.5 714,-289.5"/>
<text text-anchor="middle" x="636.5" y="-277.5" font-family="Roboto" font-size="10.00">Urho3D::Graphics::IsDeviceLost</text>
</a>
</g>
</g>
<!-- Node6&#45;&gt;Node9 -->
<g id="edge8" class="edge">
<title>Node6&#45;&gt;Node9</title>
<path fill="none" stroke="#63b8ff" d="M503.76,-293.34C517.8,-291.92 532.85,-290.4 547.57,-288.9"/>
<polygon fill="#63b8ff" stroke="#63b8ff" points="547.63,-292.42 557.23,-287.93 546.93,-285.45 547.63,-292.42"/>
</g>
<!-- Node11 -->
<g id="node11" class="node">
<title>Node11</title>
<g id="a_node11"><a xlink:href="class_urho3_d_1_1_hash_map.html#a620be7ef6fc8e2958ef4f09523fd5c72" target="_top" xlink:title="Return iterator to the beginning.">
<polygon fill="white" stroke="#666666" points="699.5,-252.5 573.5,-252.5 573.5,-233.5 699.5,-233.5 699.5,-252.5"/>
<text text-anchor="middle" x="636.5" y="-240.5" font-family="Roboto" font-size="10.00">Urho3D::HashMap::Begin</text>
</a>
</g>
</g>
<!-- Node10&#45;&gt;Node11 -->
<g id="edge10" class="edge">
<title>Node10&#45;&gt;Node11</title>
<path fill="none" stroke="#63b8ff" d="M464.67,-196.93C487.41,-205.17 521.05,-216.8 551,-225 558.19,-226.97 565.78,-228.85 573.33,-230.61"/>
<polygon fill="#63b8ff" stroke="#63b8ff" points="572.33,-233.97 582.86,-232.75 573.87,-227.14 572.33,-233.97"/>
</g>
<!-- Node13 -->
<g id="node13" class="node">
<title>Node13</title>
<g id="a_node13"><a xlink:href="class_urho3_d_1_1_hash_map.html#a47eb201d8441d4e4be8626e615cb562d" target="_top" xlink:title="Return iterator to the end.">
<polygon fill="white" stroke="#666666" points="696,-215.5 577,-215.5 577,-196.5 696,-196.5 696,-215.5"/>
<text text-anchor="middle" x="636.5" y="-203.5" font-family="Roboto" font-size="10.00">Urho3D::HashMap::End</text>
</a>
</g>
</g>
<!-- Node10&#45;&gt;Node13 -->
<g id="edge12" class="edge">
<title>Node10&#45;&gt;Node13</title>
<path fill="none" stroke="#63b8ff" d="M499.95,-192.96C520.76,-194.96 544.11,-197.21 565.49,-199.27"/>
<polygon fill="#63b8ff" stroke="#63b8ff" points="565.01,-202.73 575.3,-200.21 565.68,-195.77 565.01,-202.73"/>
</g>
<!-- Node15 -->
<g id="node15" class="node">
<title>Node15</title>
<g id="a_node15"><a xlink:href="class_urho3_d_1_1_hash_map.html#a3313b8ec65ab0b23c74570898b09175c" target="_top" xlink:title="Free a node.">
<polygon fill="white" stroke="#666666" points="709.5,-178.5 563.5,-178.5 563.5,-159.5 709.5,-159.5 709.5,-178.5"/>
<text text-anchor="middle" x="636.5" y="-166.5" font-family="Roboto" font-size="10.00">Urho3D::HashMap::FreeNode</text>
</a>
</g>
</g>
<!-- Node10&#45;&gt;Node15 -->
<g id="edge14" class="edge">
<title>Node10&#45;&gt;Node15</title>
<path fill="none" stroke="#63b8ff" d="M499.95,-181.35C516.37,-179.86 534.38,-178.22 551.76,-176.63"/>
<polygon fill="#63b8ff" stroke="#63b8ff" points="551.92,-180.13 561.56,-175.74 551.28,-173.16 551.92,-180.13"/>
</g>
<!-- Node16 -->
<g id="node16" class="node">
<title>Node16</title>
<g id="a_node16"><a xlink:href="class_urho3_d_1_1_hash_base.html#a2774d115a617b0d6c315132352d43c01" target="_top" xlink:title="Reset bucket head pointers.">
<polygon fill="white" stroke="#666666" points="710.5,-141.5 562.5,-141.5 562.5,-122.5 710.5,-122.5 710.5,-141.5"/>
<text text-anchor="middle" x="636.5" y="-129.5" font-family="Roboto" font-size="10.00">Urho3D::HashBase::ResetPtrs</text>
</a>
</g>
</g>
<!-- Node10&#45;&gt;Node16 -->
<g id="edge15" class="edge">
<title>Node10&#45;&gt;Node16</title>
<path fill="none" stroke="#63b8ff" d="M488.2,-177.06C497.23,-174.77 506.48,-172.08 515,-169 531.82,-162.92 534.15,-157.01 551,-151 557.51,-148.68 564.4,-146.58 571.33,-144.7"/>
<polygon fill="#63b8ff" stroke="#63b8ff" points="571.91,-148.16 580.73,-142.29 570.18,-141.38 571.91,-148.16"/>
</g>
<!-- Node19 -->
<g id="node19" class="node">
<title>Node19</title>
<g id="a_node19"><a xlink:href="class_urho3_d_1_1_hash_base.html#a7790b0fb5131f0e0a098e322c9198f39" target="_top" xlink:title="Set new size.">
<polygon fill="white" stroke="#666666" points="705,-104.5 568,-104.5 568,-85.5 705,-85.5 705,-104.5"/>
<text text-anchor="middle" x="636.5" y="-92.5" font-family="Roboto" font-size="10.00">Urho3D::HashBase::SetSize</text>
</a>
</g>
</g>
<!-- Node10&#45;&gt;Node19 -->
<g id="edge18" class="edge">
<title>Node10&#45;&gt;Node19</title>
<path fill="none" stroke="#63b8ff" d="M499.95,-177.06C505.28,-174.88 510.39,-172.23 515,-169 538.94,-152.25 526.99,-130.65 551,-114 553.24,-112.45 555.59,-111.02 558.02,-109.7"/>
<polygon fill="#63b8ff" stroke="#63b8ff" points="559.4,-112.92 567.01,-105.56 556.47,-106.56 559.4,-112.92"/>
</g>
<!-- Node20 -->
<g id="node20" class="node">
<title>Node20</title>
<g id="a_node20"><a xlink:href="class_urho3_d_1_1_hash_base.html#a42b5c2ba692fe96bff763b501b8922a9" target="_top" xlink:title="Return number of elements.">
<polygon fill="white" stroke="#666666" points="698,-67.5 575,-67.5 575,-48.5 698,-48.5 698,-67.5"/>
<text text-anchor="middle" x="636.5" y="-55.5" font-family="Roboto" font-size="10.00">Urho3D::HashBase::Size</text>
</a>
</g>
</g>
<!-- Node10&#45;&gt;Node20 -->
<g id="edge19" class="edge">
<title>Node10&#45;&gt;Node20</title>
<path fill="none" stroke="#63b8ff" d="M499.94,-178.38C505.4,-175.94 510.54,-172.86 515,-169 548.19,-140.26 517.69,-105.6 551,-77 555.06,-73.51 559.63,-70.62 564.49,-68.24"/>
<polygon fill="#63b8ff" stroke="#63b8ff" points="565.46,-71.63 573.39,-64.6 562.81,-65.15 565.46,-71.63"/>
</g>
<!-- Node12 -->
<g id="node12" class="node">
<title>Node12</title>
<g id="a_node12"><a xlink:href="class_urho3_d_1_1_hash_map.html#a992327678684d4e38150f32fc676faaf" target="_top" xlink:title="Return the head node.">
<polygon fill="white" stroke="#666666" points="901.5,-252.5 775.5,-252.5 775.5,-233.5 901.5,-233.5 901.5,-252.5"/>
<text text-anchor="middle" x="838.5" y="-240.5" font-family="Roboto" font-size="10.00">Urho3D::HashMap::Head</text>
</a>
</g>
</g>
<!-- Node11&#45;&gt;Node12 -->
<g id="edge11" class="edge">
<title>Node11&#45;&gt;Node12</title>
<path fill="none" stroke="#63b8ff" d="M699.96,-243C720.17,-243 742.77,-243 763.73,-243"/>
<polygon fill="#63b8ff" stroke="#63b8ff" points="763.66,-246.5 773.66,-243 763.66,-239.5 763.66,-246.5"/>
</g>
<!-- Node14 -->
<g id="node14" class="node">
<title>Node14</title>
<g id="a_node14"><a xlink:href="class_urho3_d_1_1_hash_map.html#ac7ee3646e27a2a7710ab5786cb0b7c73" target="_top" xlink:title="Return the tail node.">
<polygon fill="white" stroke="#666666" points="897,-215.5 780,-215.5 780,-196.5 897,-196.5 897,-215.5"/>
<text text-anchor="middle" x="838.5" y="-203.5" font-family="Roboto" font-size="10.00">Urho3D::HashMap::Tail</text>
</a>
</g>
</g>
<!-- Node13&#45;&gt;Node14 -->
<g id="edge13" class="edge">
<title>Node13&#45;&gt;Node14</title>
<path fill="none" stroke="#63b8ff" d="M696.42,-206C719,-206 744.96,-206 768.4,-206"/>
<polygon fill="#63b8ff" stroke="#63b8ff" points="768.17,-209.5 778.17,-206 768.17,-202.5 768.17,-209.5"/>
</g>
<!-- Node17 -->
<g id="node17" class="node">
<title>Node17</title>
<g id="a_node17"><a xlink:href="class_urho3_d_1_1_hash_base.html#af0f242c3642f60dc7cf69f3b7d24fa11" target="_top" xlink:title="Return number of buckets.">
<polygon fill="white" stroke="#666666" points="919,-159.5 758,-159.5 758,-140.5 919,-140.5 919,-159.5"/>
<text text-anchor="middle" x="838.5" y="-147.5" font-family="Roboto" font-size="10.00">Urho3D::HashBase::NumBuckets</text>
</a>
</g>
</g>
<!-- Node16&#45;&gt;Node17 -->
<g id="edge16" class="edge">
<title>Node16&#45;&gt;Node17</title>
<path fill="none" stroke="#63b8ff" d="M710.84,-138.6C722.41,-139.64 734.5,-140.73 746.42,-141.8"/>
<polygon fill="#63b8ff" stroke="#63b8ff" points="745.99,-145.28 756.26,-142.69 746.62,-138.31 745.99,-145.28"/>
</g>
<!-- Node18 -->
<g id="node18" class="node">
<title>Node18</title>
<g id="a_node18"><a xlink:href="class_urho3_d_1_1_hash_base.html#ab2e9d0c50ac79b0a7eccd15b096745e9" target="_top" xlink:title="Return bucket head pointers.">
<polygon fill="white" stroke="#666666" points="900,-122.5 777,-122.5 777,-103.5 900,-103.5 900,-122.5"/>
<text text-anchor="middle" x="838.5" y="-110.5" font-family="Roboto" font-size="10.00">Urho3D::HashBase::Ptrs</text>
</a>
</g>
</g>
<!-- Node16&#45;&gt;Node18 -->
<g id="edge17" class="edge">
<title>Node16&#45;&gt;Node18</title>
<path fill="none" stroke="#63b8ff" d="M710.84,-125.03C728.58,-123.35 747.53,-121.55 765.22,-119.87"/>
<polygon fill="#63b8ff" stroke="#63b8ff" points="765.51,-123.35 775.13,-118.92 764.85,-116.39 765.51,-123.35"/>
</g>
<!-- Node21&#45;&gt;Node21 -->
<g id="edge21" class="edge">
<title>Node21&#45;&gt;Node21</title>
<path fill="none" stroke="#63b8ff" d="M406.94,-141.87C393.23,-150.44 403.25,-159.5 437,-159.5 456.51,-159.5 468.09,-156.47 471.74,-152.26"/>
<polygon fill="#63b8ff" stroke="#63b8ff" points="474.98,-150.93 467.68,-143.25 468.6,-153.8 474.98,-150.93"/>
</g>
<!-- Node23 -->
<g id="node23" class="node">
<title>Node23</title>
<g id="a_node23"><a xlink:href="class_urho3_d_1_1_graphics.html#af002db3f0656638b5419e501597bf9db" target="_top" xlink:title="Set hardware culling mode.">
<polygon fill="white" stroke="#666666" points="514.5,-104.5 359.5,-104.5 359.5,-85.5 514.5,-85.5 514.5,-104.5"/>
<text text-anchor="middle" x="437" y="-92.5" font-family="Roboto" font-size="10.00">Urho3D::Graphics::SetCullMode</text>
</a>
</g>
</g>
<!-- Node22&#45;&gt;Node23 -->
<g id="edge23" class="edge">
<title>Node22&#45;&gt;Node23</title>
<path fill="none" stroke="#63b8ff" d="M323.28,-84.91C331.31,-85.63 339.52,-86.37 347.66,-87.1"/>
<polygon fill="#63b8ff" stroke="#63b8ff" points="347.32,-90.58 357.59,-87.98 347.94,-83.61 347.32,-90.58"/>
</g>
<!-- Node24 -->
<g id="node24" class="node">
<title>Node24</title>
<g id="a_node24"><a xlink:href="class_urho3_d_1_1_graphics.html#a8caad07fa70c69870bd1ebd33014b931" target="_top" xlink:title="Set depth compare.">
<polygon fill="white" stroke="#666666" points="515,-67.5 359,-67.5 359,-48.5 515,-48.5 515,-67.5"/>
<text text-anchor="middle" x="437" y="-55.5" font-family="Roboto" font-size="10.00">Urho3D::Graphics::SetDepthTest</text>
</a>
</g>
</g>
<!-- Node22&#45;&gt;Node24 -->
<g id="edge24" class="edge">
<title>Node22&#45;&gt;Node24</title>
<path fill="none" stroke="#63b8ff" d="M323.28,-69.87C331.24,-69.03 339.37,-68.17 347.44,-67.32"/>
<polygon fill="#63b8ff" stroke="#63b8ff" points="347.7,-70.81 357.28,-66.29 346.97,-63.85 347.7,-70.81"/>
</g>
<!-- Node25 -->
<g id="node25" class="node">
<title>Node25</title>
<g id="a_node25"><a xlink:href="class_urho3_d_1_1_graphics.html#abce9b1421f7b2d1179659ca887171f2a" target="_top" xlink:title="Set depth write on/off.">
<polygon fill="white" stroke="#666666" points="505.5,-30 368.5,-30 368.5,0 505.5,0 505.5,-30"/>
<text text-anchor="start" x="376.5" y="-18" font-family="Roboto" font-size="10.00">Urho3D::Graphics::SetDepth</text>
<text text-anchor="middle" x="437" y="-7" font-family="Roboto" font-size="10.00">Write</text>
</a>
</g>
</g>
<!-- Node22&#45;&gt;Node25 -->
<g id="edge25" class="edge">
<title>Node22&#45;&gt;Node25</title>
<path fill="none" stroke="#63b8ff" d="M289.9,-62.5C310.78,-55.22 336.13,-46.51 359,-39 364.27,-37.27 369.75,-35.5 375.25,-33.75"/>
<polygon fill="#63b8ff" stroke="#63b8ff" points="375.89,-37.22 384.37,-30.86 373.78,-30.54 375.89,-37.22"/>
</g>
</g>
</svg>
