<?xml version="1.0" encoding="UTF-8" standalone="no"?>
<!DOCTYPE svg PUBLIC "-//W3C//DTD SVG 1.1//EN"
 "http://www.w3.org/Graphics/SVG/1.1/DTD/svg11.dtd">
<!-- Generated by graphviz version 7.0.3 (0)
 -->
<!-- Title: Urho3D::Button::SetRepeatRate Pages: 1 -->
<svg width="328pt" height="76pt"
 viewBox="0.00 0.00 328.00 75.50" xmlns="http://www.w3.org/2000/svg" xmlns:xlink="http://www.w3.org/1999/xlink">
<g id="graph0" class="graph" transform="scale(1 1) rotate(0) translate(4 71.5)">
<title>Urho3D::Button::SetRepeatRate</title>
<!-- Node1 -->
<g id="node1" class="node">
<title>Node1</title>
<g id="a_node1"><a xlink:title=" ">
<polygon fill="#999999" stroke="#666666" points="320,-40 168,-40 168,-21 320,-21 320,-40"/>
<text text-anchor="middle" x="244" y="-28" font-family="Roboto" font-size="10.00">Urho3D::Button::SetRepeatRate</text>
</a>
</g>
</g>
<!-- Node2 -->
<g id="node2" class="node">
<title>Node2</title>
<g id="a_node2"><a xlink:href="class_urho3_d_1_1_button.html#a8813d915d009e33516013bc5bfe3e408" target="_top" xlink:title=" ">
<polygon fill="white" stroke="#666666" points="128,-67.5 4,-67.5 4,-37.5 128,-37.5 128,-67.5"/>
<text text-anchor="start" x="12" y="-55.5" font-family="Roboto" font-size="10.00">Urho3D::Button::Register</text>
<text text-anchor="middle" x="66" y="-44.5" font-family="Roboto" font-size="10.00">Object</text>
</a>
</g>
</g>
<!-- Node1&#45;&gt;Node2 -->
<g id="edge1" class="edge">
<title>Node1&#45;&gt;Node2</title>
<path fill="none" stroke="#63b8ff" d="M156.2,-41.35C146.83,-42.52 137.44,-43.69 128.46,-44.82"/>
<polygon fill="#63b8ff" stroke="#63b8ff" points="156.6,-44.83 166.09,-40.11 155.74,-37.88 156.6,-44.83"/>
</g>
<!-- Node3 -->
<g id="node3" class="node">
<title>Node3</title>
<g id="a_node3"><a xlink:href="class_urho3_d_1_1_button.html#a7b9c387304dc7a025a2ee88ec34d2209" target="_top" xlink:title="Set repeat properties. Rate 0 (default) disables repeat.">
<polygon fill="white" stroke="#666666" points="132,-19 0,-19 0,0 132,0 132,-19"/>
<text text-anchor="middle" x="66" y="-7" font-family="Roboto" font-size="10.00">Urho3D::Button::SetRepeat</text>
</a>
</g>
</g>
<!-- Node1&#45;&gt;Node3 -->
<g id="edge2" class="edge">
<title>Node1&#45;&gt;Node3</title>
<path fill="none" stroke="#63b8ff" d="M156.23,-20.15C148.17,-19.18 140.09,-18.22 132.27,-17.29"/>
<polygon fill="#63b8ff" stroke="#63b8ff" points="155.75,-23.61 166.09,-21.32 156.58,-16.66 155.75,-23.61"/>
</g>
</g>
</svg>
