<?xml version="1.0" encoding="UTF-8" standalone="no"?>
<!DOCTYPE svg PUBLIC "-//W3C//DTD SVG 1.1//EN"
 "http://www.w3.org/Graphics/SVG/1.1/DTD/svg11.dtd">
<!-- Generated by graphviz version 7.0.3 (0)
 -->
<!-- Title: Urho3D::NavigationMesh::GetNavigationDataAttr Pages: 1 -->
<svg width="578pt" height="261pt"
 viewBox="0.00 0.00 578.00 261.00" xmlns="http://www.w3.org/2000/svg" xmlns:xlink="http://www.w3.org/1999/xlink">
<g id="graph0" class="graph" transform="scale(1 1) rotate(0) translate(4 257)">
<title>Urho3D::NavigationMesh::GetNavigationDataAttr</title>
<!-- Node1 -->
<g id="node1" class="node">
<title>Node1</title>
<g id="a_node1"><a xlink:title="Return navigation data attribute.">
<polygon fill="#999999" stroke="#666666" points="126,-162 0,-162 0,-132 126,-132 126,-162"/>
<text text-anchor="start" x="8" y="-150" font-family="Roboto" font-size="10.00">Urho3D::NavigationMesh</text>
<text text-anchor="middle" x="63" y="-139" font-family="Roboto" font-size="10.00">::GetNavigationDataAttr</text>
</a>
</g>
</g>
<!-- Node2 -->
<g id="node2" class="node">
<title>Node2</title>
<g id="a_node2"><a xlink:href="class_urho3_d_1_1_vector_buffer.html#a2f9263d81223cc1315806fd5325069dc" target="_top" xlink:title="Return the buffer.">
<polygon fill="white" stroke="#666666" points="280.5,-253 169.5,-253 169.5,-223 280.5,-223 280.5,-253"/>
<text text-anchor="start" x="177.5" y="-241" font-family="Roboto" font-size="10.00">Urho3D::VectorBuffer</text>
<text text-anchor="middle" x="225" y="-230" font-family="Roboto" font-size="10.00">::GetBuffer</text>
</a>
</g>
</g>
<!-- Node1&#45;&gt;Node2 -->
<g id="edge1" class="edge">
<title>Node1&#45;&gt;Node2</title>
<path fill="none" stroke="#63b8ff" d="M83.42,-162.27C102.61,-176.87 133.18,-198.83 162,-214 164.64,-215.39 167.37,-216.74 170.16,-218.05"/>
<polygon fill="#63b8ff" stroke="#63b8ff" points="168.46,-221.13 179.02,-221.98 171.3,-214.73 168.46,-221.13"/>
</g>
<!-- Node3 -->
<g id="node3" class="node">
<title>Node3</title>
<g id="a_node3"><a xlink:href="class_urho3_d_1_1_serializer.html#a5b72d159d2d843c9ffaf3e17be25fef7" target="_top" xlink:title="Write a bounding box.">
<polygon fill="white" stroke="#666666" points="276,-205 174,-205 174,-175 276,-175 276,-205"/>
<text text-anchor="start" x="182" y="-193" font-family="Roboto" font-size="10.00">Urho3D::Serializer</text>
<text text-anchor="middle" x="225" y="-182" font-family="Roboto" font-size="10.00">::WriteBoundingBox</text>
</a>
</g>
</g>
<!-- Node1&#45;&gt;Node3 -->
<g id="edge2" class="edge">
<title>Node1&#45;&gt;Node3</title>
<path fill="none" stroke="#63b8ff" d="M121.31,-162.4C134.83,-166.03 149.28,-169.92 162.95,-173.59"/>
<polygon fill="#63b8ff" stroke="#63b8ff" points="161.69,-176.88 172.26,-176.09 163.51,-170.12 161.69,-176.88"/>
</g>
<!-- Node7 -->
<g id="node7" class="node">
<title>Node7</title>
<g id="a_node7"><a xlink:href="class_urho3_d_1_1_serializer.html#af2b0a9945e01a6e05ff0392970d86df2" target="_top" xlink:title="Write a float.">
<polygon fill="white" stroke="#666666" points="420,-164 324,-164 324,-134 420,-134 420,-164"/>
<text text-anchor="start" x="332" y="-152" font-family="Roboto" font-size="10.00">Urho3D::Serializer</text>
<text text-anchor="middle" x="372" y="-141" font-family="Roboto" font-size="10.00">::WriteFloat</text>
</a>
</g>
</g>
<!-- Node1&#45;&gt;Node7 -->
<g id="edge6" class="edge">
<title>Node1&#45;&gt;Node7</title>
<path fill="none" stroke="#63b8ff" d="M126.5,-147.41C180.89,-147.76 259.13,-148.27 312.36,-148.62"/>
<polygon fill="#63b8ff" stroke="#63b8ff" points="312.11,-152.12 322.13,-148.68 312.16,-145.12 312.11,-152.12"/>
</g>
<!-- Node8 -->
<g id="node8" class="node">
<title>Node8</title>
<g id="a_node8"><a xlink:href="class_urho3_d_1_1_serializer.html#a8fafd0034fc92b582689802c41112376" target="_top" xlink:title="Write a 32&#45;bit integer.">
<polygon fill="white" stroke="#666666" points="420,-116 324,-116 324,-86 420,-86 420,-116"/>
<text text-anchor="start" x="332" y="-104" font-family="Roboto" font-size="10.00">Urho3D::Serializer</text>
<text text-anchor="middle" x="372" y="-93" font-family="Roboto" font-size="10.00">::WriteInt</text>
</a>
</g>
</g>
<!-- Node1&#45;&gt;Node8 -->
<g id="edge8" class="edge">
<title>Node1&#45;&gt;Node8</title>
<path fill="none" stroke="#63b8ff" d="M126.5,-137.64C180.89,-129.49 259.13,-117.76 312.36,-109.79"/>
<polygon fill="#63b8ff" stroke="#63b8ff" points="312.78,-113.26 322.15,-108.32 311.74,-106.34 312.78,-113.26"/>
</g>
<!-- Node9 -->
<g id="node9" class="node">
<title>Node9</title>
<g id="a_node9"><a xlink:href="class_urho3_d_1_1_navigation_mesh.html#a68e01e51414f123a47643fc5ebcd0aa9" target="_top" xlink:title="Write tile data.">
<polygon fill="white" stroke="#666666" points="288,-78 162,-78 162,-48 288,-48 288,-78"/>
<text text-anchor="start" x="170" y="-66" font-family="Roboto" font-size="10.00">Urho3D::NavigationMesh</text>
<text text-anchor="middle" x="225" y="-55" font-family="Roboto" font-size="10.00">::WriteTile</text>
</a>
</g>
</g>
<!-- Node1&#45;&gt;Node9 -->
<g id="edge10" class="edge">
<title>Node1&#45;&gt;Node9</title>
<path fill="none" stroke="#63b8ff" d="M91.75,-131.68C111.31,-120.97 138.15,-106.41 162,-94 168.67,-90.53 175.78,-86.91 182.71,-83.41"/>
<polygon fill="#63b8ff" stroke="#63b8ff" points="183.95,-86.71 191.32,-79.1 180.82,-80.45 183.95,-86.71"/>
</g>
<!-- Node4 -->
<g id="node4" class="node">
<title>Node4</title>
<g id="a_node4"><a xlink:href="class_urho3_d_1_1_serializer.html#a007d70f03e5cdc1d6403c0a56cf264bb" target="_top" xlink:title="Write a Vector3.">
<polygon fill="white" stroke="#666666" points="420,-212 324,-212 324,-182 420,-182 420,-212"/>
<text text-anchor="start" x="332" y="-200" font-family="Roboto" font-size="10.00">Urho3D::Serializer</text>
<text text-anchor="middle" x="372" y="-189" font-family="Roboto" font-size="10.00">::WriteVector3</text>
</a>
</g>
</g>
<!-- Node3&#45;&gt;Node4 -->
<g id="edge3" class="edge">
<title>Node3&#45;&gt;Node4</title>
<path fill="none" stroke="#63b8ff" d="M276.31,-192.43C287.96,-192.99 300.46,-193.59 312.43,-194.17"/>
<polygon fill="#63b8ff" stroke="#63b8ff" points="312.04,-197.66 322.19,-194.64 312.38,-190.67 312.04,-197.66"/>
</g>
<!-- Node5 -->
<g id="node5" class="node">
<title>Node5</title>
<g id="a_node5"><a xlink:href="class_urho3_d_1_1_vector3.html#aa325885e8a48a4a70c990d65aa8e55b0" target="_top" xlink:title="Return float data.">
<polygon fill="white" stroke="#666666" points="570,-206.5 456,-206.5 456,-187.5 570,-187.5 570,-206.5"/>
<text text-anchor="middle" x="513" y="-194.5" font-family="Roboto" font-size="10.00">Urho3D::Vector3::Data</text>
</a>
</g>
</g>
<!-- Node4&#45;&gt;Node5 -->
<g id="edge4" class="edge">
<title>Node4&#45;&gt;Node5</title>
<path fill="none" stroke="#63b8ff" d="M420.45,-197C428.14,-197 436.24,-197 444.31,-197"/>
<polygon fill="#63b8ff" stroke="#63b8ff" points="444.14,-200.5 454.14,-197 444.14,-193.5 444.14,-200.5"/>
</g>
<!-- Node6 -->
<g id="node6" class="node">
<title>Node6</title>
<g id="a_node6"><a xlink:href="class_urho3_d_1_1_serializer.html#af1212487507dad99d9f389f9c8b48a60" target="_top" xlink:title="Write bytes to the stream. Return number of bytes actually written.">
<polygon fill="white" stroke="#666666" points="561,-116 465,-116 465,-86 561,-86 561,-116"/>
<text text-anchor="start" x="473" y="-104" font-family="Roboto" font-size="10.00">Urho3D::Serializer</text>
<text text-anchor="middle" x="513" y="-93" font-family="Roboto" font-size="10.00">::Write</text>
</a>
</g>
</g>
<!-- Node4&#45;&gt;Node6 -->
<g id="edge5" class="edge">
<title>Node4&#45;&gt;Node6</title>
<path fill="none" stroke="#63b8ff" d="M405.32,-181.54C410.32,-178.85 415.37,-175.96 420,-173 443.29,-158.13 467.85,-138.7 485.73,-123.76"/>
<polygon fill="#63b8ff" stroke="#63b8ff" points="487.89,-126.52 493.27,-117.39 483.38,-121.17 487.89,-126.52"/>
</g>
<!-- Node7&#45;&gt;Node6 -->
<g id="edge7" class="edge">
<title>Node7&#45;&gt;Node6</title>
<path fill="none" stroke="#63b8ff" d="M417.75,-133.55C430.15,-129.27 443.76,-124.57 456.68,-120.1"/>
<polygon fill="#63b8ff" stroke="#63b8ff" points="457.6,-123.49 465.91,-116.92 455.31,-116.87 457.6,-123.49"/>
</g>
<!-- Node8&#45;&gt;Node6 -->
<g id="edge9" class="edge">
<title>Node8&#45;&gt;Node6</title>
<path fill="none" stroke="#63b8ff" d="M420.45,-101C431.07,-101 442.46,-101 453.47,-101"/>
<polygon fill="#63b8ff" stroke="#63b8ff" points="453.25,-104.5 463.25,-101 453.25,-97.5 453.25,-104.5"/>
</g>
<!-- Node9&#45;&gt;Node6 -->
<g id="edge11" class="edge">
<title>Node9&#45;&gt;Node6</title>
<path fill="none" stroke="#63b8ff" d="M288.37,-64.6C326.58,-66.3 376.35,-69.79 420,-77 430.99,-78.81 442.59,-81.34 453.7,-84.08"/>
<polygon fill="#63b8ff" stroke="#63b8ff" points="452.59,-87.41 463.14,-86.49 454.32,-80.62 452.59,-87.41"/>
</g>
<!-- Node9&#45;&gt;Node8 -->
<g id="edge12" class="edge">
<title>Node9&#45;&gt;Node8</title>
<path fill="none" stroke="#63b8ff" d="M284.98,-78.46C294.12,-80.85 303.56,-83.33 312.68,-85.72"/>
<polygon fill="#63b8ff" stroke="#63b8ff" points="311.6,-89.05 322.16,-88.2 313.37,-82.28 311.6,-89.05"/>
</g>
<!-- Node10 -->
<g id="node10" class="node">
<title>Node10</title>
<g id="a_node10"><a xlink:href="class_urho3_d_1_1_serializer.html#aca5302ccd24e73a82da4aecee5343e4b" target="_top" xlink:title="Write a 32&#45;bit unsigned integer.">
<polygon fill="white" stroke="#666666" points="420,-30 324,-30 324,0 420,0 420,-30"/>
<text text-anchor="start" x="332" y="-18" font-family="Roboto" font-size="10.00">Urho3D::Serializer</text>
<text text-anchor="middle" x="372" y="-7" font-family="Roboto" font-size="10.00">::WriteUInt</text>
</a>
</g>
</g>
<!-- Node9&#45;&gt;Node10 -->
<g id="edge13" class="edge">
<title>Node9&#45;&gt;Node10</title>
<path fill="none" stroke="#63b8ff" d="M272.68,-47.55C285.74,-43.22 300.09,-38.47 313.7,-33.97"/>
<polygon fill="#63b8ff" stroke="#63b8ff" points="314.58,-37.36 322.97,-30.9 312.38,-30.72 314.58,-37.36"/>
</g>
<!-- Node10&#45;&gt;Node6 -->
<g id="edge14" class="edge">
<title>Node10&#45;&gt;Node6</title>
<path fill="none" stroke="#63b8ff" d="M397.89,-30.34C405.03,-34.75 412.82,-39.56 420,-44 438.97,-55.73 460.13,-68.84 477.37,-79.52"/>
<polygon fill="#63b8ff" stroke="#63b8ff" points="475.39,-82.41 485.73,-84.71 479.08,-76.46 475.39,-82.41"/>
</g>
</g>
</svg>
