<?xml version="1.0" encoding="UTF-8" standalone="no"?>
<!DOCTYPE svg PUBLIC "-//W3C//DTD SVG 1.1//EN"
 "http://www.w3.org/Graphics/SVG/1.1/DTD/svg11.dtd">
<!-- Generated by graphviz version 7.0.3 (0)
 -->
<!-- Title: Urho3D::IndexBuffer::OnDeviceReset Pages: 1 -->
<svg width="1008pt" height="104pt"
 viewBox="0.00 0.00 1008.00 103.90" xmlns="http://www.w3.org/2000/svg" xmlns:xlink="http://www.w3.org/1999/xlink">
<g id="graph0" class="graph" transform="scale(1 1) rotate(0) translate(4 99.9)">
<title>Urho3D::IndexBuffer::OnDeviceReset</title>
<!-- Node1 -->
<g id="node1" class="node">
<title>Node1</title>
<g id="a_node1"><a xlink:title="Recreate the buffer and restore data if applicable. May be a no&#45;op depending on the API.">
<polygon fill="#999999" stroke="#666666" points="107,-59.4 0,-59.4 0,-29.4 107,-29.4 107,-59.4"/>
<text text-anchor="start" x="8" y="-47.4" font-family="Roboto" font-size="10.00">Urho3D::IndexBuffer</text>
<text text-anchor="middle" x="53.5" y="-36.4" font-family="Roboto" font-size="10.00">::OnDeviceReset</text>
</a>
</g>
</g>
<!-- Node2 -->
<g id="node2" class="node">
<title>Node2</title>
<g id="a_node2"><a xlink:href="class_urho3_d_1_1_index_buffer.html#ae31e230aad30bec9beb7483f80f5d9a8" target="_top" xlink:title="Create buffer.">
<polygon fill="white" stroke="#666666" points="250,-79.4 143,-79.4 143,-49.4 250,-49.4 250,-79.4"/>
<text text-anchor="start" x="151" y="-67.4" font-family="Roboto" font-size="10.00">Urho3D::IndexBuffer</text>
<text text-anchor="middle" x="196.5" y="-56.4" font-family="Roboto" font-size="10.00">::Create</text>
</a>
</g>
</g>
<!-- Node1&#45;&gt;Node2 -->
<g id="edge1" class="edge">
<title>Node1&#45;&gt;Node2</title>
<path fill="none" stroke="#63b8ff" d="M107.4,-51.9C115.27,-53.02 123.44,-54.18 131.5,-55.32"/>
<polygon fill="#63b8ff" stroke="#63b8ff" points="130.88,-58.77 141.27,-56.7 131.86,-51.83 130.88,-58.77"/>
</g>
<!-- Node8 -->
<g id="node8" class="node">
<title>Node8</title>
<g id="a_node8"><a xlink:href="class_urho3_d_1_1_index_buffer.html#ac9c048ad7c84bcda500b7265591ffc4b" target="_top" xlink:title="Update the shadow data to the GPU buffer.">
<polygon fill="white" stroke="#666666" points="679,-34.4 572,-34.4 572,-4.4 679,-4.4 679,-34.4"/>
<text text-anchor="start" x="580" y="-22.4" font-family="Roboto" font-size="10.00">Urho3D::IndexBuffer</text>
<text text-anchor="middle" x="625.5" y="-11.4" font-family="Roboto" font-size="10.00">::UpdateToGPU</text>
</a>
</g>
</g>
<!-- Node1&#45;&gt;Node8 -->
<g id="edge9" class="edge">
<title>Node1&#45;&gt;Node8</title>
<path fill="none" stroke="#63b8ff" d="M107.38,-41.99C119.11,-41.46 131.48,-40.91 143,-40.4 292.5,-33.76 468.13,-26.15 560.4,-22.16"/>
<polygon fill="#63b8ff" stroke="#63b8ff" points="560.42,-25.66 570.26,-21.73 560.12,-18.67 560.42,-25.66"/>
</g>
<!-- Node3 -->
<g id="node3" class="node">
<title>Node3</title>
<g id="a_node3"><a xlink:href="class_urho3_d_1_1_index_buffer.html#a702908f2461350f6bd7a945919c6170e" target="_top" xlink:title="Release buffer.">
<polygon fill="white" stroke="#666666" points="393,-81.4 286,-81.4 286,-51.4 393,-51.4 393,-81.4"/>
<text text-anchor="start" x="294" y="-69.4" font-family="Roboto" font-size="10.00">Urho3D::IndexBuffer</text>
<text text-anchor="middle" x="339.5" y="-58.4" font-family="Roboto" font-size="10.00">::Release</text>
</a>
</g>
</g>
<!-- Node2&#45;&gt;Node3 -->
<g id="edge2" class="edge">
<title>Node2&#45;&gt;Node3</title>
<path fill="none" stroke="#63b8ff" d="M250.4,-65.15C258.27,-65.26 266.44,-65.37 274.5,-65.49"/>
<polygon fill="#63b8ff" stroke="#63b8ff" points="274.21,-68.98 284.25,-65.63 274.31,-61.99 274.21,-68.98"/>
</g>
<!-- Node4 -->
<g id="node4" class="node">
<title>Node4</title>
<g id="a_node4"><a xlink:href="class_urho3_d_1_1_index_buffer.html#abd80b2ed1d3e4f9243712f3370a59469" target="_top" xlink:title="Unlock the buffer and apply changes to the GPU buffer.">
<polygon fill="white" stroke="#666666" points="536,-82.4 429,-82.4 429,-52.4 536,-52.4 536,-82.4"/>
<text text-anchor="start" x="437" y="-70.4" font-family="Roboto" font-size="10.00">Urho3D::IndexBuffer</text>
<text text-anchor="middle" x="482.5" y="-59.4" font-family="Roboto" font-size="10.00">::Unlock</text>
</a>
</g>
</g>
<!-- Node3&#45;&gt;Node4 -->
<g id="edge3" class="edge">
<title>Node3&#45;&gt;Node4</title>
<path fill="none" stroke="#63b8ff" d="M393.4,-66.77C401.27,-66.83 409.44,-66.89 417.5,-66.94"/>
<polygon fill="#63b8ff" stroke="#63b8ff" points="417.23,-70.44 427.25,-67.01 417.28,-63.44 417.23,-70.44"/>
</g>
<!-- Node5 -->
<g id="node5" class="node">
<title>Node5</title>
<g id="a_node5"><a xlink:href="class_urho3_d_1_1_shared_array_ptr.html#af2203f689349e6e22e78d2b7574be4e8" target="_top" xlink:title="Return the raw pointer.">
<polygon fill="white" stroke="#666666" points="1000,-59.9 858,-59.9 858,-40.9 1000,-40.9 1000,-59.9"/>
<text text-anchor="middle" x="929" y="-47.9" font-family="Roboto" font-size="10.00">Urho3D::SharedArrayPtr::Get</text>
</a>
</g>
</g>
<!-- Node4&#45;&gt;Node5 -->
<g id="edge4" class="edge">
<title>Node4&#45;&gt;Node5</title>
<path fill="none" stroke="#63b8ff" d="M531.25,-82.82C544.32,-86.36 558.59,-89.61 572,-91.4 682.85,-106.16 813.54,-79.98 881.56,-63.07"/>
<polygon fill="#63b8ff" stroke="#63b8ff" points="882.02,-66.57 890.86,-60.72 880.3,-59.78 882.02,-66.57"/>
</g>
<!-- Node6 -->
<g id="node6" class="node">
<title>Node6</title>
<g id="a_node6"><a xlink:href="class_urho3_d_1_1_index_buffer.html#a6b4939821435c61218cfd58a06211484" target="_top" xlink:title="Set a data range in the buffer. Optionally discard data outside the range.">
<polygon fill="white" stroke="#666666" points="679,-82.4 572,-82.4 572,-52.4 679,-52.4 679,-82.4"/>
<text text-anchor="start" x="580" y="-70.4" font-family="Roboto" font-size="10.00">Urho3D::IndexBuffer</text>
<text text-anchor="middle" x="625.5" y="-59.4" font-family="Roboto" font-size="10.00">::SetDataRange</text>
</a>
</g>
</g>
<!-- Node4&#45;&gt;Node6 -->
<g id="edge5" class="edge">
<title>Node4&#45;&gt;Node6</title>
<path fill="none" stroke="#63b8ff" d="M536.4,-67.4C544.27,-67.4 552.44,-67.4 560.5,-67.4"/>
<polygon fill="#63b8ff" stroke="#63b8ff" points="560.25,-70.9 570.25,-67.4 560.25,-63.9 560.25,-70.9"/>
</g>
<!-- Node6&#45;&gt;Node5 -->
<g id="edge6" class="edge">
<title>Node6&#45;&gt;Node5</title>
<path fill="none" stroke="#63b8ff" d="M679.36,-64.42C725.46,-61.82 793.08,-58 846.17,-55.01"/>
<polygon fill="#63b8ff" stroke="#63b8ff" points="846.31,-58.51 856.09,-54.45 845.91,-51.52 846.31,-58.51"/>
</g>
<!-- Node7 -->
<g id="node7" class="node">
<title>Node7</title>
<g id="a_node7"><a xlink:href="class_urho3_d_1_1_index_buffer.html#a21f9b30d2a72457f6cd33e769e5b59cd" target="_top" xlink:title="Set all data in the buffer.">
<polygon fill="white" stroke="#666666" points="822,-44.4 715,-44.4 715,-14.4 822,-14.4 822,-44.4"/>
<text text-anchor="start" x="723" y="-32.4" font-family="Roboto" font-size="10.00">Urho3D::IndexBuffer</text>
<text text-anchor="middle" x="768.5" y="-21.4" font-family="Roboto" font-size="10.00">::SetData</text>
</a>
</g>
</g>
<!-- Node6&#45;&gt;Node7 -->
<g id="edge7" class="edge">
<title>Node6&#45;&gt;Node7</title>
<path fill="none" stroke="#63b8ff" d="M679.4,-53.14C687.36,-51 695.63,-48.77 703.77,-46.57"/>
<polygon fill="#63b8ff" stroke="#63b8ff" points="704.56,-49.98 713.31,-44 702.74,-43.22 704.56,-49.98"/>
</g>
<!-- Node7&#45;&gt;Node5 -->
<g id="edge8" class="edge">
<title>Node7&#45;&gt;Node5</title>
<path fill="none" stroke="#63b8ff" d="M822.28,-36.39C830.08,-37.42 838.27,-38.51 846.49,-39.6"/>
<polygon fill="#63b8ff" stroke="#63b8ff" points="845.81,-43.04 856.18,-40.88 846.73,-36.1 845.81,-43.04"/>
</g>
<!-- Node8&#45;&gt;Node5 -->
<g id="edge10" class="edge">
<title>Node8&#45;&gt;Node5</title>
<path fill="none" stroke="#63b8ff" d="M679.27,-7.95C718.9,-1.2 774.32,4.31 822,-5.4 850.03,-11.1 879.83,-24.48 900.68,-35.18"/>
<polygon fill="#63b8ff" stroke="#63b8ff" points="898.89,-38.19 909.36,-39.77 902.16,-32 898.89,-38.19"/>
</g>
<!-- Node8&#45;&gt;Node7 -->
<g id="edge11" class="edge">
<title>Node8&#45;&gt;Node7</title>
<path fill="none" stroke="#63b8ff" d="M679.4,-23.15C687.27,-23.71 695.44,-24.29 703.5,-24.86"/>
<polygon fill="#63b8ff" stroke="#63b8ff" points="703.04,-28.33 713.26,-25.55 703.53,-21.35 703.04,-28.33"/>
</g>
</g>
</svg>
