<?xml version="1.0" encoding="UTF-8" standalone="no"?>
<!DOCTYPE svg PUBLIC "-//W3C//DTD SVG 1.1//EN"
 "http://www.w3.org/Graphics/SVG/1.1/DTD/svg11.dtd">
<!-- Generated by graphviz version 7.0.3 (0)
 -->
<!-- Title: Urho3D::CollisionShape::SetPosition Pages: 1 -->
<svg width="656pt" height="324pt"
 viewBox="0.00 0.00 656.00 324.00" xmlns="http://www.w3.org/2000/svg" xmlns:xlink="http://www.w3.org/1999/xlink">
<g id="graph0" class="graph" transform="scale(1 1) rotate(0) translate(4 320)">
<title>Urho3D::CollisionShape::SetPosition</title>
<!-- Node1 -->
<g id="node1" class="node">
<title>Node1</title>
<g id="a_node1"><a xlink:title=" ">
<polygon fill="#999999" stroke="#666666" points="120,-159 0,-159 0,-129 120,-129 120,-159"/>
<text text-anchor="start" x="8" y="-147" font-family="Roboto" font-size="10.00">Urho3D::CollisionShape</text>
<text text-anchor="middle" x="60" y="-136" font-family="Roboto" font-size="10.00">::SetPosition</text>
</a>
</g>
</g>
<!-- Node2 -->
<g id="node2" class="node">
<title>Node2</title>
<g id="a_node2"><a xlink:href="class_urho3_d_1_1_component.html#aaf87acb64001774c62f0784254f9b291" target="_top" xlink:title="Mark for attribute check on the next network update.">
<polygon fill="white" stroke="#666666" points="271.5,-235 160.5,-235 160.5,-205 271.5,-205 271.5,-235"/>
<text text-anchor="start" x="168.5" y="-223" font-family="Roboto" font-size="10.00">Urho3D::Component::</text>
<text text-anchor="middle" x="216" y="-212" font-family="Roboto" font-size="10.00">MarkNetworkUpdate</text>
</a>
</g>
</g>
<!-- Node1&#45;&gt;Node2 -->
<g id="edge1" class="edge">
<title>Node1&#45;&gt;Node2</title>
<path fill="none" stroke="#63b8ff" d="M92.16,-159.38C115.57,-170.93 147.86,-186.87 173.46,-199.5"/>
<polygon fill="#63b8ff" stroke="#63b8ff" points="171.74,-202.56 182.26,-203.84 174.84,-196.28 171.74,-202.56"/>
</g>
<!-- Node8 -->
<g id="node8" class="node">
<title>Node8</title>
<g id="a_node8"><a xlink:href="class_urho3_d_1_1_collision_shape.html#a8cfe09cb27ec041dedcd92a69293bcbc" target="_top" xlink:title="Update the new collision shape to the RigidBody.">
<polygon fill="white" stroke="#666666" points="276,-116 156,-116 156,-86 276,-86 276,-116"/>
<text text-anchor="start" x="164" y="-104" font-family="Roboto" font-size="10.00">Urho3D::CollisionShape</text>
<text text-anchor="middle" x="216" y="-93" font-family="Roboto" font-size="10.00">::NotifyRigidBody</text>
</a>
</g>
</g>
<!-- Node1&#45;&gt;Node8 -->
<g id="edge8" class="edge">
<title>Node1&#45;&gt;Node8</title>
<path fill="none" stroke="#63b8ff" d="M116.16,-128.6C126.78,-125.63 138,-122.5 148.92,-119.45"/>
<polygon fill="#63b8ff" stroke="#63b8ff" points="149.56,-122.91 158.25,-116.85 147.67,-116.16 149.56,-122.91"/>
</g>
<!-- Node3 -->
<g id="node3" class="node">
<title>Node3</title>
<g id="a_node3"><a xlink:href="class_urho3_d_1_1_component.html#a2c22f727341671a0420934f249ffe059" target="_top" xlink:title="Return the scene the node belongs to.">
<polygon fill="white" stroke="#666666" points="442.5,-316 331.5,-316 331.5,-286 442.5,-286 442.5,-316"/>
<text text-anchor="start" x="339.5" y="-304" font-family="Roboto" font-size="10.00">Urho3D::Component::</text>
<text text-anchor="middle" x="387" y="-293" font-family="Roboto" font-size="10.00">GetScene</text>
</a>
</g>
</g>
<!-- Node2&#45;&gt;Node3 -->
<g id="edge2" class="edge">
<title>Node2&#45;&gt;Node3</title>
<path fill="none" stroke="#63b8ff" d="M239.24,-235.33C258.01,-247.77 285.91,-265.13 312,-277 315.49,-278.59 319.11,-280.12 322.79,-281.58"/>
<polygon fill="#63b8ff" stroke="#63b8ff" points="321.28,-284.75 331.87,-285 323.75,-278.2 321.28,-284.75"/>
</g>
<!-- Node5 -->
<g id="node5" class="node">
<title>Node5</title>
<g id="a_node5"><a xlink:href="class_urho3_d_1_1_component.html#a8f1388c232ca01b7c7328c761aae6e76" target="_top" xlink:title=" ">
<polygon fill="white" stroke="#666666" points="442.5,-268 331.5,-268 331.5,-238 442.5,-238 442.5,-268"/>
<text text-anchor="start" x="339.5" y="-256" font-family="Roboto" font-size="10.00">Urho3D::Component::</text>
<text text-anchor="middle" x="387" y="-245" font-family="Roboto" font-size="10.00">IsReplicated</text>
</a>
</g>
</g>
<!-- Node2&#45;&gt;Node5 -->
<g id="edge4" class="edge">
<title>Node2&#45;&gt;Node5</title>
<path fill="none" stroke="#63b8ff" d="M271.87,-230.71C287.3,-233.73 304.23,-237.03 320.23,-240.16"/>
<polygon fill="#63b8ff" stroke="#63b8ff" points="319.15,-243.51 329.63,-241.99 320.49,-236.64 319.15,-243.51"/>
</g>
<!-- Node7 -->
<g id="node7" class="node">
<title>Node7</title>
<g id="a_node7"><a xlink:href="class_urho3_d_1_1_scene.html#a00b724dfff718639b9de12d71139499c" target="_top" xlink:title="Mark for attribute check on the next network update.">
<polygon fill="white" stroke="#666666" points="461,-202 313,-202 313,-172 461,-172 461,-202"/>
<text text-anchor="start" x="321" y="-190" font-family="Roboto" font-size="10.00">Urho3D::Scene::MarkNetwork</text>
<text text-anchor="middle" x="387" y="-179" font-family="Roboto" font-size="10.00">Update</text>
</a>
</g>
</g>
<!-- Node2&#45;&gt;Node7 -->
<g id="edge6" class="edge">
<title>Node2&#45;&gt;Node7</title>
<path fill="none" stroke="#63b8ff" d="M271.87,-209.29C281.32,-207.44 291.34,-205.48 301.37,-203.53"/>
<polygon fill="#63b8ff" stroke="#63b8ff" points="302.02,-206.96 311.17,-201.61 300.68,-200.09 302.02,-206.96"/>
</g>
<!-- Node4 -->
<g id="node4" class="node">
<title>Node4</title>
<g id="a_node4"><a xlink:href="class_urho3_d_1_1_node.html#ad3742cda838a2b291daa44d3ab00de56" target="_top" xlink:title=" ">
<polygon fill="white" stroke="#666666" points="636,-310.5 510,-310.5 510,-291.5 636,-291.5 636,-310.5"/>
<text text-anchor="middle" x="573" y="-298.5" font-family="Roboto" font-size="10.00">Urho3D::Node::GetScene</text>
</a>
</g>
</g>
<!-- Node3&#45;&gt;Node4 -->
<g id="edge3" class="edge">
<title>Node3&#45;&gt;Node4</title>
<path fill="none" stroke="#63b8ff" d="M442.71,-301C460.17,-301 479.78,-301 498.35,-301"/>
<polygon fill="#63b8ff" stroke="#63b8ff" points="498.24,-304.5 508.24,-301 498.24,-297.5 498.24,-304.5"/>
</g>
<!-- Node6 -->
<g id="node6" class="node">
<title>Node6</title>
<g id="a_node6"><a xlink:href="class_urho3_d_1_1_scene.html#a97fb1222bd2f38e6c1c433c0b7e54d40" target="_top" xlink:title="Return whether the specified id is a replicated id.">
<polygon fill="white" stroke="#666666" points="648,-262.5 498,-262.5 498,-243.5 648,-243.5 648,-262.5"/>
<text text-anchor="middle" x="573" y="-250.5" font-family="Roboto" font-size="10.00">Urho3D::Scene::IsReplicatedID</text>
</a>
</g>
</g>
<!-- Node5&#45;&gt;Node6 -->
<g id="edge5" class="edge">
<title>Node5&#45;&gt;Node6</title>
<path fill="none" stroke="#63b8ff" d="M442.71,-253C456.47,-253 471.57,-253 486.44,-253"/>
<polygon fill="#63b8ff" stroke="#63b8ff" points="486.23,-256.5 496.23,-253 486.23,-249.5 486.23,-256.5"/>
</g>
<!-- Node7&#45;&gt;Node7 -->
<g id="edge7" class="edge">
<title>Node7&#45;&gt;Node7</title>
<path fill="none" stroke="#63b8ff" d="M356.94,-202.28C350.26,-211.41 360.28,-220 387,-220 401.61,-220 411.23,-217.43 415.85,-213.61"/>
<polygon fill="#63b8ff" stroke="#63b8ff" points="419.32,-214.09 416.9,-203.78 412.36,-213.35 419.32,-214.09"/>
</g>
<!-- Node9 -->
<g id="node9" class="node">
<title>Node9</title>
<g id="a_node9"><a xlink:href="class_urho3_d_1_1_unique_ptr.html#a0a3ac051f536377b767fb97eabc203f5" target="_top" xlink:title="Return the raw pointer.">
<polygon fill="white" stroke="#666666" points="446.5,-153.5 327.5,-153.5 327.5,-134.5 446.5,-134.5 446.5,-153.5"/>
<text text-anchor="middle" x="387" y="-141.5" font-family="Roboto" font-size="10.00">Urho3D::UniquePtr::Get</text>
</a>
</g>
</g>
<!-- Node8&#45;&gt;Node9 -->
<g id="edge9" class="edge">
<title>Node8&#45;&gt;Node9</title>
<path fill="none" stroke="#63b8ff" d="M276.11,-116.04C295.59,-121 317.06,-126.46 335.81,-131.23"/>
<polygon fill="#63b8ff" stroke="#63b8ff" points="334.78,-134.58 345.33,-133.65 336.5,-127.79 334.78,-134.58"/>
</g>
<!-- Node10 -->
<g id="node10" class="node">
<title>Node10</title>
<g id="a_node10"><a xlink:href="class_urho3_d_1_1_collision_shape.html#ab1f08f05ff8c76e97b03d6d9a94baf7e" target="_top" xlink:title="Find the parent rigid body component and return its compound collision shape.">
<polygon fill="white" stroke="#666666" points="457,-116 317,-116 317,-86 457,-86 457,-116"/>
<text text-anchor="start" x="325" y="-104" font-family="Roboto" font-size="10.00">Urho3D::CollisionShape</text>
<text text-anchor="middle" x="387" y="-93" font-family="Roboto" font-size="10.00">::GetParentCompoundShape</text>
</a>
</g>
</g>
<!-- Node8&#45;&gt;Node10 -->
<g id="edge10" class="edge">
<title>Node8&#45;&gt;Node10</title>
<path fill="none" stroke="#63b8ff" d="M276.11,-101C285.55,-101 295.46,-101 305.3,-101"/>
<polygon fill="#63b8ff" stroke="#63b8ff" points="305.27,-104.5 315.27,-101 305.27,-97.5 305.27,-104.5"/>
</g>
<!-- Node11 -->
<g id="node11" class="node">
<title>Node11</title>
<g id="a_node11"><a xlink:href="class_urho3_d_1_1_node.html#a8ae450b752efd7da057b842882d28a23" target="_top" xlink:title=" ">
<polygon fill="white" stroke="#666666" points="462,-67.5 312,-67.5 312,-48.5 462,-48.5 462,-67.5"/>
<text text-anchor="middle" x="387" y="-55.5" font-family="Roboto" font-size="10.00">Urho3D::Node::GetWorldScale</text>
</a>
</g>
</g>
<!-- Node8&#45;&gt;Node11 -->
<g id="edge11" class="edge">
<title>Node8&#45;&gt;Node11</title>
<path fill="none" stroke="#63b8ff" d="M276.11,-85.96C295.59,-81 317.06,-75.54 335.81,-70.77"/>
<polygon fill="#63b8ff" stroke="#63b8ff" points="336.5,-74.21 345.33,-68.35 334.78,-67.42 336.5,-74.21"/>
</g>
<!-- Node12 -->
<g id="node12" class="node">
<title>Node12</title>
<g id="a_node12"><a xlink:href="class_urho3_d_1_1_component.html#aafa7952d0f225edde3387da0c91a9356" target="_top" xlink:title=" ">
<polygon fill="white" stroke="#666666" points="442.5,-30 331.5,-30 331.5,0 442.5,0 442.5,-30"/>
<text text-anchor="start" x="339.5" y="-18" font-family="Roboto" font-size="10.00">Urho3D::Component::</text>
<text text-anchor="middle" x="387" y="-7" font-family="Roboto" font-size="10.00">IsEnabledEffective</text>
</a>
</g>
</g>
<!-- Node8&#45;&gt;Node12 -->
<g id="edge12" class="edge">
<title>Node8&#45;&gt;Node12</title>
<path fill="none" stroke="#63b8ff" d="M237.19,-85.55C255.82,-71.86 284.64,-52.08 312,-39 315.29,-37.43 318.71,-35.92 322.19,-34.48"/>
<polygon fill="#63b8ff" stroke="#63b8ff" points="323.31,-37.8 331.37,-30.92 320.78,-31.27 323.31,-37.8"/>
</g>
<!-- Node13 -->
<g id="node13" class="node">
<title>Node13</title>
<g id="a_node13"><a xlink:href="class_urho3_d_1_1_node.html#a36ffa108037ab29617bf178fcb4ec1da" target="_top" xlink:title=" ">
<polygon fill="white" stroke="#666666" points="637,-24.5 509,-24.5 509,-5.5 637,-5.5 637,-24.5"/>
<text text-anchor="middle" x="573" y="-12.5" font-family="Roboto" font-size="10.00">Urho3D::Node::IsEnabled</text>
</a>
</g>
</g>
<!-- Node12&#45;&gt;Node13 -->
<g id="edge13" class="edge">
<title>Node12&#45;&gt;Node13</title>
<path fill="none" stroke="#63b8ff" d="M442.71,-15C459.9,-15 479.19,-15 497.51,-15"/>
<polygon fill="#63b8ff" stroke="#63b8ff" points="497.26,-18.5 507.26,-15 497.26,-11.5 497.26,-18.5"/>
</g>
</g>
</svg>
