<?xml version="1.0" encoding="UTF-8" standalone="no"?>
<!DOCTYPE svg PUBLIC "-//W3C//DTD SVG 1.1//EN"
 "http://www.w3.org/Graphics/SVG/1.1/DTD/svg11.dtd">
<!-- Generated by graphviz version 7.0.3 (0)
 -->
<!-- Title: Urho3D::Drawable::SetOccludee Pages: 1 -->
<svg width="716pt" height="200pt"
 viewBox="0.00 0.00 716.00 200.00" xmlns="http://www.w3.org/2000/svg" xmlns:xlink="http://www.w3.org/1999/xlink">
<g id="graph0" class="graph" transform="scale(1 1) rotate(0) translate(4 196)">
<title>Urho3D::Drawable::SetOccludee</title>
<!-- Node1 -->
<g id="node1" class="node">
<title>Node1</title>
<g id="a_node1"><a xlink:title=" ">
<polygon fill="#999999" stroke="#666666" points="155,-117.5 0,-117.5 0,-98.5 155,-98.5 155,-117.5"/>
<text text-anchor="middle" x="77.5" y="-105.5" font-family="Roboto" font-size="10.00">Urho3D::Drawable::SetOccludee</text>
</a>
</g>
</g>
<!-- Node2 -->
<g id="node2" class="node">
<title>Node2</title>
<g id="a_node2"><a xlink:href="class_urho3_d_1_1_octant.html#a7c998cf647fa3ba6fc98d05a9a04dc9d" target="_top" xlink:title="Return octree root.">
<polygon fill="white" stroke="#666666" points="326.5,-160.5 202.5,-160.5 202.5,-141.5 326.5,-141.5 326.5,-160.5"/>
<text text-anchor="middle" x="264.5" y="-148.5" font-family="Roboto" font-size="10.00">Urho3D::Octant::GetRoot</text>
</a>
</g>
</g>
<!-- Node1&#45;&gt;Node2 -->
<g id="edge1" class="edge">
<title>Node1&#45;&gt;Node2</title>
<path fill="none" stroke="#63b8ff" d="M121.41,-117.97C147.7,-124.08 181.58,-131.96 209.66,-138.49"/>
<polygon fill="#63b8ff" stroke="#63b8ff" points="208.5,-141.81 219.03,-140.66 210.08,-134.99 208.5,-141.81"/>
</g>
<!-- Node3 -->
<g id="node3" class="node">
<title>Node3</title>
<g id="a_node3"><a xlink:href="class_urho3_d_1_1_component.html#aaf87acb64001774c62f0784254f9b291" target="_top" xlink:title="Mark for attribute check on the next network update.">
<polygon fill="white" stroke="#666666" points="320,-123 209,-123 209,-93 320,-93 320,-123"/>
<text text-anchor="start" x="217" y="-111" font-family="Roboto" font-size="10.00">Urho3D::Component::</text>
<text text-anchor="middle" x="264.5" y="-100" font-family="Roboto" font-size="10.00">MarkNetworkUpdate</text>
</a>
</g>
</g>
<!-- Node1&#45;&gt;Node3 -->
<g id="edge2" class="edge">
<title>Node1&#45;&gt;Node3</title>
<path fill="none" stroke="#63b8ff" d="M155.35,-108C169.31,-108 183.76,-108 197.38,-108"/>
<polygon fill="#63b8ff" stroke="#63b8ff" points="197.08,-111.5 207.08,-108 197.08,-104.5 197.08,-111.5"/>
</g>
<!-- Node9 -->
<g id="node9" class="node">
<title>Node9</title>
<g id="a_node9"><a xlink:href="class_urho3_d_1_1_octree.html#a578eb27fbff722b23eecfd03ef0e5571" target="_top" xlink:title="Mark drawable object as requiring an update and a reinsertion.">
<polygon fill="white" stroke="#666666" points="338,-72.5 191,-72.5 191,-53.5 338,-53.5 338,-72.5"/>
<text text-anchor="middle" x="264.5" y="-60.5" font-family="Roboto" font-size="10.00">Urho3D::Octree::QueueUpdate</text>
</a>
</g>
</g>
<!-- Node1&#45;&gt;Node9 -->
<g id="edge9" class="edge">
<title>Node1&#45;&gt;Node9</title>
<path fill="none" stroke="#63b8ff" d="M119.56,-98.01C146.74,-91.4 182.62,-82.67 211.75,-75.59"/>
<polygon fill="#63b8ff" stroke="#63b8ff" points="212.2,-79.08 221.09,-73.32 210.54,-72.28 212.2,-79.08"/>
</g>
<!-- Node4 -->
<g id="node4" class="node">
<title>Node4</title>
<g id="a_node4"><a xlink:href="class_urho3_d_1_1_component.html#a2c22f727341671a0420934f249ffe059" target="_top" xlink:title="Return the scene the node belongs to.">
<polygon fill="white" stroke="#666666" points="503.5,-78 392.5,-78 392.5,-48 503.5,-48 503.5,-78"/>
<text text-anchor="start" x="400.5" y="-66" font-family="Roboto" font-size="10.00">Urho3D::Component::</text>
<text text-anchor="middle" x="448" y="-55" font-family="Roboto" font-size="10.00">GetScene</text>
</a>
</g>
</g>
<!-- Node3&#45;&gt;Node4 -->
<g id="edge3" class="edge">
<title>Node3&#45;&gt;Node4</title>
<path fill="none" stroke="#63b8ff" d="M320.45,-94.38C339.55,-89.64 361.17,-84.28 381.07,-79.35"/>
<polygon fill="#63b8ff" stroke="#63b8ff" points="381.91,-82.75 390.77,-76.94 380.22,-75.95 381.91,-82.75"/>
</g>
<!-- Node6 -->
<g id="node6" class="node">
<title>Node6</title>
<g id="a_node6"><a xlink:href="class_urho3_d_1_1_component.html#a8f1388c232ca01b7c7328c761aae6e76" target="_top" xlink:title=" ">
<polygon fill="white" stroke="#666666" points="503.5,-192 392.5,-192 392.5,-162 503.5,-162 503.5,-192"/>
<text text-anchor="start" x="400.5" y="-180" font-family="Roboto" font-size="10.00">Urho3D::Component::</text>
<text text-anchor="middle" x="448" y="-169" font-family="Roboto" font-size="10.00">IsReplicated</text>
</a>
</g>
</g>
<!-- Node3&#45;&gt;Node6 -->
<g id="edge5" class="edge">
<title>Node3&#45;&gt;Node6</title>
<path fill="none" stroke="#63b8ff" d="M313.93,-123.38C322.06,-126.33 330.34,-129.58 338,-133 354.72,-140.46 357.23,-145.66 374,-153 377.59,-154.57 381.32,-156.1 385.11,-157.57"/>
<polygon fill="#63b8ff" stroke="#63b8ff" points="383.86,-160.84 394.46,-161.04 386.3,-154.28 383.86,-160.84"/>
</g>
<!-- Node8 -->
<g id="node8" class="node">
<title>Node8</title>
<g id="a_node8"><a xlink:href="class_urho3_d_1_1_scene.html#a00b724dfff718639b9de12d71139499c" target="_top" xlink:title="Mark for attribute check on the next network update.">
<polygon fill="white" stroke="#666666" points="522,-126 374,-126 374,-96 522,-96 522,-126"/>
<text text-anchor="start" x="382" y="-114" font-family="Roboto" font-size="10.00">Urho3D::Scene::MarkNetwork</text>
<text text-anchor="middle" x="448" y="-103" font-family="Roboto" font-size="10.00">Update</text>
</a>
</g>
</g>
<!-- Node3&#45;&gt;Node8 -->
<g id="edge7" class="edge">
<title>Node3&#45;&gt;Node8</title>
<path fill="none" stroke="#63b8ff" d="M320.45,-108.91C333.7,-109.13 348.17,-109.37 362.44,-109.6"/>
<polygon fill="#63b8ff" stroke="#63b8ff" points="362.23,-113.1 372.29,-109.77 362.35,-106.1 362.23,-113.1"/>
</g>
<!-- Node5 -->
<g id="node5" class="node">
<title>Node5</title>
<g id="a_node5"><a xlink:href="class_urho3_d_1_1_node.html#ad3742cda838a2b291daa44d3ab00de56" target="_top" xlink:title=" ">
<polygon fill="white" stroke="#666666" points="696,-72.5 570,-72.5 570,-53.5 696,-53.5 696,-72.5"/>
<text text-anchor="middle" x="633" y="-60.5" font-family="Roboto" font-size="10.00">Urho3D::Node::GetScene</text>
</a>
</g>
</g>
<!-- Node4&#45;&gt;Node5 -->
<g id="edge4" class="edge">
<title>Node4&#45;&gt;Node5</title>
<path fill="none" stroke="#63b8ff" d="M503.91,-63C521,-63 540.14,-63 558.3,-63"/>
<polygon fill="#63b8ff" stroke="#63b8ff" points="558.24,-66.5 568.24,-63 558.24,-59.5 558.24,-66.5"/>
</g>
<!-- Node7 -->
<g id="node7" class="node">
<title>Node7</title>
<g id="a_node7"><a xlink:href="class_urho3_d_1_1_scene.html#a97fb1222bd2f38e6c1c433c0b7e54d40" target="_top" xlink:title="Return whether the specified id is a replicated id.">
<polygon fill="white" stroke="#666666" points="708,-186.5 558,-186.5 558,-167.5 708,-167.5 708,-186.5"/>
<text text-anchor="middle" x="633" y="-174.5" font-family="Roboto" font-size="10.00">Urho3D::Scene::IsReplicatedID</text>
</a>
</g>
</g>
<!-- Node6&#45;&gt;Node7 -->
<g id="edge6" class="edge">
<title>Node6&#45;&gt;Node7</title>
<path fill="none" stroke="#63b8ff" d="M503.91,-177C517.2,-177 531.72,-177 546.07,-177"/>
<polygon fill="#63b8ff" stroke="#63b8ff" points="545.99,-180.5 555.99,-177 545.99,-173.5 545.99,-180.5"/>
</g>
<!-- Node8&#45;&gt;Node8 -->
<g id="edge8" class="edge">
<title>Node8&#45;&gt;Node8</title>
<path fill="none" stroke="#63b8ff" d="M415.74,-126.28C408.58,-135.41 419.33,-144 448,-144 463.68,-144 474,-141.43 478.96,-137.61"/>
<polygon fill="#63b8ff" stroke="#63b8ff" points="482.43,-138.11 480.08,-127.78 475.47,-137.32 482.43,-138.11"/>
</g>
<!-- Node9&#45;&gt;Node4 -->
<g id="edge10" class="edge">
<title>Node9&#45;&gt;Node4</title>
<path fill="none" stroke="#63b8ff" d="M338.28,-63C352.3,-63 366.92,-63 380.72,-63"/>
<polygon fill="#63b8ff" stroke="#63b8ff" points="380.58,-66.5 390.58,-63 380.58,-59.5 380.58,-66.5"/>
</g>
<!-- Node10 -->
<g id="node10" class="node">
<title>Node10</title>
<g id="a_node10"><a xlink:href="class_urho3_d_1_1_scene.html#a5a3132086218d7b7e6d8f3ccd50f7249" target="_top" xlink:title="Return threaded update flag.">
<polygon fill="white" stroke="#666666" points="516.5,-30 379.5,-30 379.5,0 516.5,0 516.5,-30"/>
<text text-anchor="start" x="387.5" y="-18" font-family="Roboto" font-size="10.00">Urho3D::Scene::IsThreaded</text>
<text text-anchor="middle" x="448" y="-7" font-family="Roboto" font-size="10.00">Update</text>
</a>
</g>
</g>
<!-- Node9&#45;&gt;Node10 -->
<g id="edge11" class="edge">
<title>Node9&#45;&gt;Node10</title>
<path fill="none" stroke="#63b8ff" d="M303.11,-53.05C324.63,-47.36 352.32,-40.04 377.65,-33.34"/>
<polygon fill="#63b8ff" stroke="#63b8ff" points="378.47,-36.74 387.25,-30.8 376.68,-29.98 378.47,-36.74"/>
</g>
</g>
</svg>
