<?xml version="1.0" encoding="UTF-8" standalone="no"?>
<!DOCTYPE svg PUBLIC "-//W3C//DTD SVG 1.1//EN"
 "http://www.w3.org/Graphics/SVG/1.1/DTD/svg11.dtd">
<!-- Generated by graphviz version 7.0.3 (0)
 -->
<!-- Title: Urho3D::ConstantBuffer::Release Pages: 1 -->
<svg width="446pt" height="38pt"
 viewBox="0.00 0.00 446.00 38.00" xmlns="http://www.w3.org/2000/svg" xmlns:xlink="http://www.w3.org/1999/xlink">
<g id="graph0" class="graph" transform="scale(1 1) rotate(0) translate(4 34)">
<title>Urho3D::ConstantBuffer::Release</title>
<!-- Node1 -->
<g id="node1" class="node">
<title>Node1</title>
<g id="a_node1"><a xlink:title="Release the buffer.">
<polygon fill="#999999" stroke="#666666" points="122,-30 0,-30 0,0 122,0 122,-30"/>
<text text-anchor="start" x="8" y="-18" font-family="Roboto" font-size="10.00">Urho3D::ConstantBuffer</text>
<text text-anchor="middle" x="61" y="-7" font-family="Roboto" font-size="10.00">::Release</text>
</a>
</g>
</g>
<!-- Node2 -->
<g id="node2" class="node">
<title>Node2</title>
<g id="a_node2"><a xlink:href="class_urho3_d_1_1_shared_array_ptr.html#a5f621b62e29d89c1d29f1c2089932bd5" target="_top" xlink:title="Reset to null and release the array reference.">
<polygon fill="white" stroke="#666666" points="280,-30 158,-30 158,0 280,0 280,-30"/>
<text text-anchor="start" x="166" y="-18" font-family="Roboto" font-size="10.00">Urho3D::SharedArrayPtr</text>
<text text-anchor="middle" x="219" y="-7" font-family="Roboto" font-size="10.00">::Reset</text>
</a>
</g>
</g>
<!-- Node1&#45;&gt;Node2 -->
<g id="edge1" class="edge">
<title>Node1&#45;&gt;Node2</title>
<path fill="none" stroke="#63b8ff" d="M122.31,-15C130.18,-15 138.3,-15 146.33,-15"/>
<polygon fill="#63b8ff" stroke="#63b8ff" points="146.08,-18.5 156.08,-15 146.08,-11.5 146.08,-18.5"/>
</g>
<!-- Node3 -->
<g id="node3" class="node">
<title>Node3</title>
<g id="a_node3"><a xlink:href="class_urho3_d_1_1_shared_array_ptr.html#a4fe651dd5116bb958bd304858c5f3a35" target="_top" xlink:title="Release the array reference and delete it and the RefCount structure if necessary.">
<polygon fill="white" stroke="#666666" points="438,-30 316,-30 316,0 438,0 438,-30"/>
<text text-anchor="start" x="324" y="-18" font-family="Roboto" font-size="10.00">Urho3D::SharedArrayPtr</text>
<text text-anchor="middle" x="377" y="-7" font-family="Roboto" font-size="10.00">::ReleaseRef</text>
</a>
</g>
</g>
<!-- Node2&#45;&gt;Node3 -->
<g id="edge2" class="edge">
<title>Node2&#45;&gt;Node3</title>
<path fill="none" stroke="#63b8ff" d="M280.31,-15C288.18,-15 296.3,-15 304.33,-15"/>
<polygon fill="#63b8ff" stroke="#63b8ff" points="304.08,-18.5 314.08,-15 304.08,-11.5 304.08,-18.5"/>
</g>
</g>
</svg>
