<?xml version="1.0" encoding="UTF-8" standalone="no"?>
<!DOCTYPE svg PUBLIC "-//W3C//DTD SVG 1.1//EN"
 "http://www.w3.org/Graphics/SVG/1.1/DTD/svg11.dtd">
<!-- Generated by graphviz version 7.0.3 (0)
 -->
<!-- Title: Urho3D::StaticModelGroup::ApplyAttributes Pages: 1 -->
<svg width="854pt" height="280pt"
 viewBox="0.00 0.00 854.00 279.50" xmlns="http://www.w3.org/2000/svg" xmlns:xlink="http://www.w3.org/1999/xlink">
<g id="graph0" class="graph" transform="scale(1 1) rotate(0) translate(4 275.5)">
<title>Urho3D::StaticModelGroup::ApplyAttributes</title>
<!-- Node1 -->
<g id="node1" class="node">
<title>Node1</title>
<g id="a_node1"><a xlink:title="Apply attribute changes that can not be applied immediately. Called after scene load or a network upd...">
<polygon fill="#999999" stroke="#666666" points="134,-147.5 0,-147.5 0,-117.5 134,-117.5 134,-147.5"/>
<text text-anchor="start" x="8" y="-135.5" font-family="Roboto" font-size="10.00">Urho3D::StaticModelGroup</text>
<text text-anchor="middle" x="67" y="-124.5" font-family="Roboto" font-size="10.00">::ApplyAttributes</text>
</a>
</g>
</g>
<!-- Node2 -->
<g id="node2" class="node">
<title>Node2</title>
<g id="a_node2"><a xlink:href="class_urho3_d_1_1_node.html#a1df1e1bfa613bbd82fe6624c211db754" target="_top" xlink:title="Add listener component that is notified of node being dirtied. Can either be in the same node or anot...">
<polygon fill="white" stroke="#666666" points="316.5,-266 178.5,-266 178.5,-247 316.5,-247 316.5,-266"/>
<text text-anchor="middle" x="247.5" y="-254" font-family="Roboto" font-size="10.00">Urho3D::Node::AddListener</text>
</a>
</g>
</g>
<!-- Node1&#45;&gt;Node2 -->
<g id="edge1" class="edge">
<title>Node1&#45;&gt;Node2</title>
<path fill="none" stroke="#63b8ff" d="M78.59,-147.97C95.26,-171.1 129.9,-214.45 170,-237.5 173.2,-239.34 176.58,-241.01 180.06,-242.51"/>
<polygon fill="#63b8ff" stroke="#63b8ff" points="178.74,-245.75 189.33,-246.02 181.22,-239.2 178.74,-245.75"/>
</g>
<!-- Node4 -->
<g id="node4" class="node">
<title>Node4</title>
<g id="a_node4"><a xlink:href="class_urho3_d_1_1_component.html#ada751ff77fe3e5bc417db31cfebc0df8" target="_top" xlink:title=" ">
<polygon fill="white" stroke="#666666" points="303,-228.5 192,-228.5 192,-198.5 303,-198.5 303,-228.5"/>
<text text-anchor="start" x="200" y="-216.5" font-family="Roboto" font-size="10.00">Urho3D::Component::</text>
<text text-anchor="middle" x="247.5" y="-205.5" font-family="Roboto" font-size="10.00">GetNode</text>
</a>
</g>
</g>
<!-- Node1&#45;&gt;Node4 -->
<g id="edge3" class="edge">
<title>Node1&#45;&gt;Node4</title>
<path fill="none" stroke="#63b8ff" d="M92.01,-147.78C112.24,-160.19 142.24,-177.54 170,-189.5 173.8,-191.14 177.76,-192.72 181.77,-194.24"/>
<polygon fill="#63b8ff" stroke="#63b8ff" points="180.47,-197.49 191.06,-197.58 182.84,-190.9 180.47,-197.49"/>
</g>
<!-- Node5 -->
<g id="node5" class="node">
<title>Node5</title>
<g id="a_node5"><a xlink:href="class_urho3_d_1_1_scene.html#af130e2e88e5d29e1da2b9d4e52d73db2" target="_top" xlink:title="Return node from the whole scene by ID, or null if not found.">
<polygon fill="white" stroke="#666666" points="310.5,-180 184.5,-180 184.5,-161 310.5,-161 310.5,-180"/>
<text text-anchor="middle" x="247.5" y="-168" font-family="Roboto" font-size="10.00">Urho3D::Scene::GetNode</text>
</a>
</g>
</g>
<!-- Node1&#45;&gt;Node5 -->
<g id="edge4" class="edge">
<title>Node1&#45;&gt;Node5</title>
<path fill="none" stroke="#63b8ff" d="M134.47,-146.65C152.27,-150.44 171.38,-154.51 188.68,-158.19"/>
<polygon fill="#63b8ff" stroke="#63b8ff" points="187.76,-161.57 198.27,-160.23 189.22,-154.73 187.76,-161.57"/>
</g>
<!-- Node7 -->
<g id="node7" class="node">
<title>Node7</title>
<g id="a_node7"><a xlink:href="class_urho3_d_1_1_component.html#a2c22f727341671a0420934f249ffe059" target="_top" xlink:title="Return the scene the node belongs to.">
<polygon fill="white" stroke="#666666" points="671,-133.5 560,-133.5 560,-103.5 671,-103.5 671,-133.5"/>
<text text-anchor="start" x="568" y="-121.5" font-family="Roboto" font-size="10.00">Urho3D::Component::</text>
<text text-anchor="middle" x="615.5" y="-110.5" font-family="Roboto" font-size="10.00">GetScene</text>
</a>
</g>
</g>
<!-- Node1&#45;&gt;Node7 -->
<g id="edge6" class="edge">
<title>Node1&#45;&gt;Node7</title>
<path fill="none" stroke="#63b8ff" d="M134.47,-130.8C239.61,-128.1 443.14,-122.89 548.19,-120.2"/>
<polygon fill="#63b8ff" stroke="#63b8ff" points="548.16,-123.7 558.07,-119.95 547.98,-116.7 548.16,-123.7"/>
</g>
<!-- Node9 -->
<g id="node9" class="node">
<title>Node9</title>
<g id="a_node9"><a xlink:href="class_urho3_d_1_1_drawable.html#a04a978441415a93f044721f6473df0e3" target="_top" xlink:title="Handle node transform being dirtied.">
<polygon fill="white" stroke="#666666" points="320.5,-104.5 174.5,-104.5 174.5,-74.5 320.5,-74.5 320.5,-104.5"/>
<text text-anchor="start" x="182.5" y="-92.5" font-family="Roboto" font-size="10.00">Urho3D::Drawable::OnMarked</text>
<text text-anchor="middle" x="247.5" y="-81.5" font-family="Roboto" font-size="10.00">Dirty</text>
</a>
</g>
</g>
<!-- Node1&#45;&gt;Node9 -->
<g id="edge8" class="edge">
<title>Node1&#45;&gt;Node9</title>
<path fill="none" stroke="#63b8ff" d="M132.19,-117.04C144.92,-113.97 158.39,-110.73 171.44,-107.58"/>
<polygon fill="#63b8ff" stroke="#63b8ff" points="171.91,-111.07 180.81,-105.32 170.27,-104.26 171.91,-111.07"/>
</g>
<!-- Node13 -->
<g id="node13" class="node">
<title>Node13</title>
<g id="a_node13"><a xlink:href="class_urho3_d_1_1_node.html#a98f711e232ccff9b596e7846bdffab96" target="_top" xlink:title="Remove listener component.">
<polygon fill="white" stroke="#666666" points="325,-56 170,-56 170,-37 325,-37 325,-56"/>
<text text-anchor="middle" x="247.5" y="-44" font-family="Roboto" font-size="10.00">Urho3D::Node::RemoveListener</text>
</a>
</g>
</g>
<!-- Node1&#45;&gt;Node13 -->
<g id="edge13" class="edge">
<title>Node1&#45;&gt;Node13</title>
<path fill="none" stroke="#63b8ff" d="M87.17,-117.03C106.86,-101.86 138.94,-79.08 170,-65.5 174.84,-63.38 179.96,-61.47 185.16,-59.76"/>
<polygon fill="#63b8ff" stroke="#63b8ff" points="185.9,-63.19 194.45,-56.93 183.87,-56.49 185.9,-63.19"/>
</g>
<!-- Node14 -->
<g id="node14" class="node">
<title>Node14</title>
<g id="a_node14"><a xlink:href="class_urho3_d_1_1_vector.html#a5da7101c355895f41098fcf875e4c56a" target="_top" xlink:title="Return size of vector.">
<polygon fill="white" stroke="#666666" points="301,-19 194,-19 194,0 301,0 301,-19"/>
<text text-anchor="middle" x="247.5" y="-7" font-family="Roboto" font-size="10.00">Urho3D::Vector::Size</text>
</a>
</g>
</g>
<!-- Node1&#45;&gt;Node14 -->
<g id="edge14" class="edge">
<title>Node1&#45;&gt;Node14</title>
<path fill="none" stroke="#63b8ff" d="M78.28,-117.35C94.8,-94.23 129.54,-50.43 170,-27.5 174.07,-25.19 178.43,-23.18 182.92,-21.42"/>
<polygon fill="#63b8ff" stroke="#63b8ff" points="183.81,-24.82 192.13,-18.27 181.54,-18.2 183.81,-24.82"/>
</g>
<!-- Node3 -->
<g id="node3" class="node">
<title>Node3</title>
<g id="a_node3"><a xlink:href="class_urho3_d_1_1_component.html#ab49b4b66b2eb1601cf166972fe42e5ce" target="_top" xlink:title="Handle scene node transform dirtied.">
<polygon fill="white" stroke="#666666" points="491.5,-271.5 380.5,-271.5 380.5,-241.5 491.5,-241.5 491.5,-271.5"/>
<text text-anchor="start" x="388.5" y="-259.5" font-family="Roboto" font-size="10.00">Urho3D::Component::</text>
<text text-anchor="middle" x="436" y="-248.5" font-family="Roboto" font-size="10.00">OnMarkedDirty</text>
</a>
</g>
</g>
<!-- Node2&#45;&gt;Node3 -->
<g id="edge2" class="edge">
<title>Node2&#45;&gt;Node3</title>
<path fill="none" stroke="#63b8ff" d="M316.89,-256.5C333.78,-256.5 351.85,-256.5 368.64,-256.5"/>
<polygon fill="#63b8ff" stroke="#63b8ff" points="368.52,-260 378.52,-256.5 368.52,-253 368.52,-260"/>
</g>
<!-- Node6 -->
<g id="node6" class="node">
<title>Node6</title>
<g id="a_node6"><a xlink:href="class_urho3_d_1_1_scene.html#a97fb1222bd2f38e6c1c433c0b7e54d40" target="_top" xlink:title="Return whether the specified id is a replicated id.">
<polygon fill="white" stroke="#666666" points="511,-180 361,-180 361,-161 511,-161 511,-180"/>
<text text-anchor="middle" x="436" y="-168" font-family="Roboto" font-size="10.00">Urho3D::Scene::IsReplicatedID</text>
</a>
</g>
</g>
<!-- Node5&#45;&gt;Node6 -->
<g id="edge5" class="edge">
<title>Node5&#45;&gt;Node6</title>
<path fill="none" stroke="#63b8ff" d="M310.86,-170.5C323.23,-170.5 336.41,-170.5 349.4,-170.5"/>
<polygon fill="#63b8ff" stroke="#63b8ff" points="349.22,-174 359.22,-170.5 349.22,-167 349.22,-174"/>
</g>
<!-- Node8 -->
<g id="node8" class="node">
<title>Node8</title>
<g id="a_node8"><a xlink:href="class_urho3_d_1_1_node.html#ad3742cda838a2b291daa44d3ab00de56" target="_top" xlink:title=" ">
<polygon fill="white" stroke="#666666" points="846,-128 720,-128 720,-109 846,-109 846,-128"/>
<text text-anchor="middle" x="783" y="-116" font-family="Roboto" font-size="10.00">Urho3D::Node::GetScene</text>
</a>
</g>
</g>
<!-- Node7&#45;&gt;Node8 -->
<g id="edge7" class="edge">
<title>Node7&#45;&gt;Node8</title>
<path fill="none" stroke="#63b8ff" d="M671.15,-118.5C683.04,-118.5 695.82,-118.5 708.31,-118.5"/>
<polygon fill="#63b8ff" stroke="#63b8ff" points="708.16,-122 718.16,-118.5 708.16,-115 708.16,-122"/>
</g>
<!-- Node10 -->
<g id="node10" class="node">
<title>Node10</title>
<g id="a_node10"><a xlink:href="class_urho3_d_1_1_octant.html#a7c998cf647fa3ba6fc98d05a9a04dc9d" target="_top" xlink:title="Return octree root.">
<polygon fill="white" stroke="#666666" points="498,-104 374,-104 374,-85 498,-85 498,-104"/>
<text text-anchor="middle" x="436" y="-92" font-family="Roboto" font-size="10.00">Urho3D::Octant::GetRoot</text>
</a>
</g>
</g>
<!-- Node9&#45;&gt;Node10 -->
<g id="edge9" class="edge">
<title>Node9&#45;&gt;Node10</title>
<path fill="none" stroke="#63b8ff" d="M320.87,-91.44C334.47,-91.8 348.69,-92.19 362.3,-92.55"/>
<polygon fill="#63b8ff" stroke="#63b8ff" points="361.96,-96.04 372.05,-92.81 362.15,-89.05 361.96,-96.04"/>
</g>
<!-- Node11 -->
<g id="node11" class="node">
<title>Node11</title>
<g id="a_node11"><a xlink:href="class_urho3_d_1_1_octree.html#a578eb27fbff722b23eecfd03ef0e5571" target="_top" xlink:title="Mark drawable object as requiring an update and a reinsertion.">
<polygon fill="white" stroke="#666666" points="509.5,-67 362.5,-67 362.5,-48 509.5,-48 509.5,-67"/>
<text text-anchor="middle" x="436" y="-55" font-family="Roboto" font-size="10.00">Urho3D::Octree::QueueUpdate</text>
</a>
</g>
</g>
<!-- Node9&#45;&gt;Node11 -->
<g id="edge10" class="edge">
<title>Node9&#45;&gt;Node11</title>
<path fill="none" stroke="#63b8ff" d="M320.87,-77.08C335.64,-74.55 351.15,-71.89 365.8,-69.37"/>
<polygon fill="#63b8ff" stroke="#63b8ff" points="366.06,-72.88 375.32,-67.74 364.87,-65.98 366.06,-72.88"/>
</g>
<!-- Node11&#45;&gt;Node7 -->
<g id="edge11" class="edge">
<title>Node11&#45;&gt;Node7</title>
<path fill="none" stroke="#63b8ff" d="M482.71,-67.44C492.14,-69.82 501.95,-72.54 511,-75.5 530.94,-82.02 552.45,-90.68 570.66,-98.52"/>
<polygon fill="#63b8ff" stroke="#63b8ff" points="569.02,-101.62 579.58,-102.41 571.82,-95.2 569.02,-101.62"/>
</g>
<!-- Node12 -->
<g id="node12" class="node">
<title>Node12</title>
<g id="a_node12"><a xlink:href="class_urho3_d_1_1_scene.html#a5a3132086218d7b7e6d8f3ccd50f7249" target="_top" xlink:title="Return threaded update flag.">
<polygon fill="white" stroke="#666666" points="684,-72.5 547,-72.5 547,-42.5 684,-42.5 684,-72.5"/>
<text text-anchor="start" x="555" y="-60.5" font-family="Roboto" font-size="10.00">Urho3D::Scene::IsThreaded</text>
<text text-anchor="middle" x="615.5" y="-49.5" font-family="Roboto" font-size="10.00">Update</text>
</a>
</g>
</g>
<!-- Node11&#45;&gt;Node12 -->
<g id="edge12" class="edge">
<title>Node11&#45;&gt;Node12</title>
<path fill="none" stroke="#63b8ff" d="M509.96,-57.5C518.31,-57.5 526.85,-57.5 535.28,-57.5"/>
<polygon fill="#63b8ff" stroke="#63b8ff" points="535.15,-61 545.15,-57.5 535.15,-54 535.15,-61"/>
</g>
</g>
</svg>
