<?xml version="1.0" encoding="UTF-8" standalone="no"?>
<!DOCTYPE svg PUBLIC "-//W3C//DTD SVG 1.1//EN"
 "http://www.w3.org/Graphics/SVG/1.1/DTD/svg11.dtd">
<!-- Generated by graphviz version 7.0.3 (0)
 -->
<!-- Title: Urho3D::LineEdit::OnKey Pages: 1 -->
<svg width="1051pt" height="462pt"
 viewBox="0.00 0.00 1051.00 461.50" xmlns="http://www.w3.org/2000/svg" xmlns:xlink="http://www.w3.org/1999/xlink">
<g id="graph0" class="graph" transform="scale(1 1) rotate(0) translate(4 457.5)">
<title>Urho3D::LineEdit::OnKey</title>
<!-- Node1 -->
<g id="node1" class="node">
<title>Node1</title>
<g id="a_node1"><a xlink:title="React to a key press.">
<polygon fill="#999999" stroke="#666666" points="122,-273.5 0,-273.5 0,-254.5 122,-254.5 122,-273.5"/>
<text text-anchor="middle" x="61" y="-261.5" font-family="Roboto" font-size="10.00">Urho3D::LineEdit::OnKey</text>
</a>
</g>
</g>
<!-- Node2 -->
<g id="node2" class="node">
<title>Node2</title>
<g id="a_node2"><a xlink:href="class_urho3_d_1_1_string.html#a8413f000551027cd127996e3c5b00185" target="_top" xlink:title=" ">
<polygon fill="white" stroke="#666666" points="286.5,-453.5 173.5,-453.5 173.5,-434.5 286.5,-434.5 286.5,-453.5"/>
<text text-anchor="middle" x="230" y="-441.5" font-family="Roboto" font-size="10.00">Urho3D::String::Empty</text>
</a>
</g>
</g>
<!-- Node1&#45;&gt;Node2 -->
<g id="edge1" class="edge">
<title>Node1&#45;&gt;Node2</title>
<path fill="none" stroke="#63b8ff" d="M65.26,-273.66C74.92,-300.82 106.01,-378.59 158,-420 162.77,-423.8 168.18,-427.01 173.82,-429.73"/>
<polygon fill="#63b8ff" stroke="#63b8ff" points="172.19,-432.84 182.76,-433.5 174.91,-426.39 172.19,-432.84"/>
</g>
<!-- Node3 -->
<g id="node3" class="node">
<title>Node3</title>
<g id="a_node3"><a xlink:href="class_urho3_d_1_1_object.html#a69af51cfa67f9626273b35a6d501e03e" target="_top" xlink:title="Return a preallocated map for event data. Used for optimization to avoid constant re&#45;allocation of ev...">
<polygon fill="white" stroke="#666666" points="475,-426 350,-426 350,-396 475,-396 475,-426"/>
<text text-anchor="start" x="358" y="-414" font-family="Roboto" font-size="10.00">Urho3D::Object::GetEvent</text>
<text text-anchor="middle" x="412.5" y="-403" font-family="Roboto" font-size="10.00">DataMap</text>
</a>
</g>
</g>
<!-- Node1&#45;&gt;Node3 -->
<g id="edge2" class="edge">
<title>Node1&#45;&gt;Node3</title>
<path fill="none" stroke="#63b8ff" d="M66.59,-273.77C78.16,-297.14 110.97,-356.26 158,-382 213.2,-412.22 285.21,-417.83 338.37,-416.84"/>
<polygon fill="#63b8ff" stroke="#63b8ff" points="338.34,-420.34 348.24,-416.56 338.15,-413.34 338.34,-420.34"/>
</g>
<!-- Node16 -->
<g id="node6" class="node">
<title>Node16</title>
<g id="a_node6"><a xlink:href="class_urho3_d_1_1_u_i_element.html#a1bc81ebf873ab97c4251c0bad93b568e" target="_top" xlink:title=" ">
<polygon fill="white" stroke="#666666" points="282.5,-160 177.5,-160 177.5,-130 282.5,-130 282.5,-160"/>
<text text-anchor="start" x="185.5" y="-148" font-family="Roboto" font-size="10.00">Urho3D::UIElement::</text>
<text text-anchor="middle" x="230" y="-137" font-family="Roboto" font-size="10.00">HasFocus</text>
</a>
</g>
</g>
<!-- Node1&#45;&gt;Node16 -->
<g id="edge5" class="edge">
<title>Node1&#45;&gt;Node16</title>
<path fill="none" stroke="#63b8ff" d="M70.32,-254.1C85.91,-236.06 121.27,-197.56 158,-174 163.04,-170.76 168.51,-167.77 174.09,-165.03"/>
<polygon fill="#63b8ff" stroke="#63b8ff" points="175.2,-168.38 182.82,-161.02 172.27,-162.02 175.2,-168.38"/>
</g>
<!-- Node17 -->
<g id="node7" class="node">
<title>Node17</title>
<g id="a_node7"><a xlink:href="class_urho3_d_1_1_string.html#ad062c733a6396f806c3e7418a71378b3" target="_top" xlink:title=" ">
<polygon fill="white" stroke="#666666" points="669,-376.5 532,-376.5 532,-357.5 669,-357.5 669,-376.5"/>
<text text-anchor="middle" x="600.5" y="-364.5" font-family="Roboto" font-size="10.00">Urho3D::String::LengthUTF8</text>
</a>
</g>
</g>
<!-- Node1&#45;&gt;Node17 -->
<g id="edge6" class="edge">
<title>Node1&#45;&gt;Node17</title>
<path fill="none" stroke="#63b8ff" d="M84.96,-273.89C104.22,-281.92 132.56,-293.17 158,-301 236.51,-325.16 256.91,-329.88 338,-343 398.9,-352.85 468.48,-358.99 520.56,-362.6"/>
<polygon fill="#63b8ff" stroke="#63b8ff" points="520,-366.07 530.21,-363.25 520.47,-359.08 520,-366.07"/>
</g>
<!-- Node19 -->
<g id="node9" class="node">
<title>Node19</title>
<g id="a_node9"><a xlink:href="class_urho3_d_1_1_object.html#a32020dbf77c196b9777eca479e8abb36" target="_top" xlink:title="Send event to all subscribers.">
<polygon fill="white" stroke="#666666" points="479,-207.5 346,-207.5 346,-188.5 479,-188.5 479,-207.5"/>
<text text-anchor="middle" x="412.5" y="-195.5" font-family="Roboto" font-size="10.00">Urho3D::Object::SendEvent</text>
</a>
</g>
</g>
<!-- Node1&#45;&gt;Node19 -->
<g id="edge8" class="edge">
<title>Node1&#45;&gt;Node19</title>
<path fill="none" stroke="#63b8ff" d="M114.7,-254.05C176.98,-242.29 280.58,-222.72 347.44,-210.1"/>
<polygon fill="#63b8ff" stroke="#63b8ff" points="347.99,-213.56 357.17,-208.26 346.69,-206.68 347.99,-213.56"/>
</g>
<!-- Node20 -->
<g id="node10" class="node">
<title>Node20</title>
<g id="a_node10"><a xlink:href="class_urho3_d_1_1_u_i_element.html#a915c7ab3e9cafc17b6e36eb7bc1b58c8" target="_top" xlink:title=" ">
<polygon fill="white" stroke="#666666" points="282.5,-112 177.5,-112 177.5,-82 282.5,-82 282.5,-112"/>
<text text-anchor="start" x="185.5" y="-100" font-family="Roboto" font-size="10.00">Urho3D::UIElement::</text>
<text text-anchor="middle" x="230" y="-89" font-family="Roboto" font-size="10.00">SetFocus</text>
</a>
</g>
</g>
<!-- Node1&#45;&gt;Node20 -->
<g id="edge10" class="edge">
<title>Node1&#45;&gt;Node20</title>
<path fill="none" stroke="#63b8ff" d="M65.96,-254.05C76.72,-228.21 109.07,-158.41 158,-121 160.89,-118.79 164,-116.77 167.25,-114.94"/>
<polygon fill="#63b8ff" stroke="#63b8ff" points="168.54,-118.2 175.95,-110.63 165.43,-111.93 168.54,-118.2"/>
</g>
<!-- Node22 -->
<g id="node12" class="node">
<title>Node22</title>
<g id="a_node12"><a xlink:href="class_urho3_d_1_1_string.html#a194e2ff9a391edfc4d67c432595c5ea6" target="_top" xlink:title="Return a UTF8 substring from position to end.">
<polygon fill="white" stroke="#666666" points="487,-301.5 338,-301.5 338,-282.5 487,-282.5 487,-301.5"/>
<text text-anchor="middle" x="412.5" y="-289.5" font-family="Roboto" font-size="10.00">Urho3D::String::SubstringUTF8</text>
</a>
</g>
</g>
<!-- Node1&#45;&gt;Node22 -->
<g id="edge12" class="edge">
<title>Node1&#45;&gt;Node22</title>
<path fill="none" stroke="#63b8ff" d="M104.78,-273.99C121.31,-277.45 140.45,-280.96 158,-283 213.9,-289.48 277.17,-291.74 326.51,-292.37"/>
<polygon fill="#63b8ff" stroke="#63b8ff" points="326.23,-295.86 336.26,-292.47 326.3,-288.86 326.23,-295.86"/>
</g>
<!-- Node28 -->
<g id="node18" class="node">
<title>Node28</title>
<g id="a_node18"><a xlink:href="class_urho3_d_1_1_line_edit.html#af9825009b8da28fc2704bf1dfcce7a5f" target="_top" xlink:title="Update cursor position and restart cursor blinking.">
<polygon fill="white" stroke="#666666" points="475,-170 350,-170 350,-140 475,-140 475,-170"/>
<text text-anchor="start" x="358" y="-158" font-family="Roboto" font-size="10.00">Urho3D::LineEdit::Update</text>
<text text-anchor="middle" x="412.5" y="-147" font-family="Roboto" font-size="10.00">Cursor</text>
</a>
</g>
</g>
<!-- Node1&#45;&gt;Node28 -->
<g id="edge21" class="edge">
<title>Node1&#45;&gt;Node28</title>
<path fill="none" stroke="#63b8ff" d="M78.44,-254.06C97.13,-243.14 128.84,-225.71 158,-215 217.22,-193.24 287.19,-177.37 338.59,-167.44"/>
<polygon fill="#63b8ff" stroke="#63b8ff" points="338.94,-170.94 348.11,-165.64 337.63,-164.06 338.94,-170.94"/>
</g>
<!-- Node36 -->
<g id="node25" class="node">
<title>Node36</title>
<g id="a_node25"><a xlink:href="class_urho3_d_1_1_line_edit.html#a6419ff9761457b8c509b293a15bf81e3" target="_top" xlink:title="Update displayed text.">
<polygon fill="white" stroke="#666666" points="302,-273.5 158,-273.5 158,-254.5 302,-254.5 302,-273.5"/>
<text text-anchor="middle" x="230" y="-261.5" font-family="Roboto" font-size="10.00">Urho3D::LineEdit::UpdateText</text>
</a>
</g>
</g>
<!-- Node1&#45;&gt;Node36 -->
<g id="edge29" class="edge">
<title>Node1&#45;&gt;Node36</title>
<path fill="none" stroke="#63b8ff" d="M122.29,-264C130.1,-264 138.21,-264 146.3,-264"/>
<polygon fill="#63b8ff" stroke="#63b8ff" points="146.19,-267.5 156.19,-264 146.19,-260.5 146.19,-267.5"/>
</g>
<!-- Node4 -->
<g id="node4" class="node">
<title>Node4</title>
<g id="a_node4"><a xlink:href="class_urho3_d_1_1_context.html#acb628095602a49ade116c4761ab44004" target="_top" xlink:title="Return a preallocated map for event data. Used for optimization to avoid constant re&#45;allocation of ev...">
<polygon fill="white" stroke="#666666" points="666.5,-426 534.5,-426 534.5,-396 666.5,-396 666.5,-426"/>
<text text-anchor="start" x="542.5" y="-414" font-family="Roboto" font-size="10.00">Urho3D::Context::GetEvent</text>
<text text-anchor="middle" x="600.5" y="-403" font-family="Roboto" font-size="10.00">DataMap</text>
</a>
</g>
</g>
<!-- Node3&#45;&gt;Node4 -->
<g id="edge3" class="edge">
<title>Node3&#45;&gt;Node4</title>
<path fill="none" stroke="#63b8ff" d="M475.44,-411C490.57,-411 506.95,-411 522.69,-411"/>
<polygon fill="#63b8ff" stroke="#63b8ff" points="522.5,-414.5 532.5,-411 522.5,-407.5 522.5,-414.5"/>
</g>
<!-- Node5 -->
<g id="node5" class="node">
<title>Node5</title>
<g id="a_node5"><a xlink:href="class_urho3_d_1_1_hash_map.html#ac02bdba9ea0d1055a3a75f6bae2ffc69" target="_top" xlink:title="Clear the map.">
<polygon fill="#fff0f0" stroke="red" points="851.5,-420.5 726.5,-420.5 726.5,-401.5 851.5,-401.5 851.5,-420.5"/>
<text text-anchor="middle" x="789" y="-408.5" font-family="Roboto" font-size="10.00">Urho3D::HashMap::Clear</text>
</a>
</g>
</g>
<!-- Node4&#45;&gt;Node5 -->
<g id="edge4" class="edge">
<title>Node4&#45;&gt;Node5</title>
<path fill="none" stroke="#63b8ff" d="M666.99,-411C682.45,-411 699.02,-411 714.79,-411"/>
<polygon fill="#63b8ff" stroke="#63b8ff" points="714.6,-414.5 724.6,-411 714.6,-407.5 714.6,-414.5"/>
</g>
<!-- Node18 -->
<g id="node8" class="node">
<title>Node18</title>
<g id="a_node8"><a xlink:href="class_urho3_d_1_1_string.html#ac98156ce9bb85bd015c3ec255d307025" target="_top" xlink:title="Decode Unicode character from UTF8. Pointer will be incremented.">
<polygon fill="white" stroke="#666666" points="1043,-357.5 900,-357.5 900,-338.5 1043,-338.5 1043,-357.5"/>
<text text-anchor="middle" x="971.5" y="-345.5" font-family="Roboto" font-size="10.00">Urho3D::String::DecodeUTF8</text>
</a>
</g>
</g>
<!-- Node17&#45;&gt;Node18 -->
<g id="edge7" class="edge">
<title>Node17&#45;&gt;Node18</title>
<path fill="none" stroke="#63b8ff" d="M669.18,-363.52C731.04,-360.33 822.65,-355.61 888.61,-352.22"/>
<polygon fill="#63b8ff" stroke="#63b8ff" points="888.47,-355.73 898.28,-351.72 888.11,-348.74 888.47,-355.73"/>
</g>
<!-- Node19&#45;&gt;Node19 -->
<g id="edge9" class="edge">
<title>Node19&#45;&gt;Node19</title>
<path fill="none" stroke="#63b8ff" d="M383.93,-207.87C370.9,-216.44 380.42,-225.5 412.5,-225.5 430.55,-225.5 441.45,-222.63 445.22,-218.6"/>
<polygon fill="#63b8ff" stroke="#63b8ff" points="448.49,-217.34 441.62,-209.28 441.96,-219.87 448.49,-217.34"/>
</g>
<!-- Node21 -->
<g id="node11" class="node">
<title>Node21</title>
<g id="a_node11"><a xlink:href="class_urho3_d_1_1_u_i_element.html#af9a9765c18b3bca48e83c761f1367e11" target="_top" xlink:title=" ">
<polygon fill="white" stroke="#666666" points="465,-112 360,-112 360,-82 465,-82 465,-112"/>
<text text-anchor="start" x="368" y="-100" font-family="Roboto" font-size="10.00">Urho3D::UIElement::</text>
<text text-anchor="middle" x="412.5" y="-89" font-family="Roboto" font-size="10.00">IsVisibleEffective</text>
</a>
</g>
</g>
<!-- Node20&#45;&gt;Node21 -->
<g id="edge11" class="edge">
<title>Node20&#45;&gt;Node21</title>
<path fill="none" stroke="#63b8ff" d="M282.72,-97C303.21,-97 326.96,-97 348.44,-97"/>
<polygon fill="#63b8ff" stroke="#63b8ff" points="348.25,-100.5 358.25,-97 348.25,-93.5 348.25,-100.5"/>
</g>
<!-- Node22&#45;&gt;Node17 -->
<g id="edge19" class="edge">
<title>Node22&#45;&gt;Node17</title>
<path fill="none" stroke="#63b8ff" d="M454.5,-301.99C465.47,-305.56 477.03,-310.18 487,-316 505.74,-326.95 503.81,-338.85 523,-349 525.88,-350.53 528.9,-351.92 531.99,-353.2"/>
<polygon fill="#63b8ff" stroke="#63b8ff" points="530.72,-356.46 541.31,-356.6 533.11,-349.89 530.72,-356.46"/>
</g>
<!-- Node23 -->
<g id="node13" class="node">
<title>Node23</title>
<g id="a_node13"><a xlink:href="class_urho3_d_1_1_string.html#a20e68dd4e5bf8f9fc9a12eb74260d5bc" target="_top" xlink:title="Append Unicode character at the end as UTF8.">
<polygon fill="white" stroke="#666666" points="671.5,-263.5 529.5,-263.5 529.5,-244.5 671.5,-244.5 671.5,-263.5"/>
<text text-anchor="middle" x="600.5" y="-251.5" font-family="Roboto" font-size="10.00">Urho3D::String::AppendUTF8</text>
</a>
</g>
</g>
<!-- Node22&#45;&gt;Node23 -->
<g id="edge13" class="edge">
<title>Node22&#45;&gt;Node23</title>
<path fill="none" stroke="#63b8ff" d="M462.37,-282.02C485.98,-277.19 514.54,-271.36 539.47,-266.26"/>
<polygon fill="#63b8ff" stroke="#63b8ff" points="540.05,-269.72 549.15,-264.29 538.65,-262.86 540.05,-269.72"/>
</g>
<!-- Node26 -->
<g id="node16" class="node">
<title>Node26</title>
<g id="a_node16"><a xlink:href="class_urho3_d_1_1_string.html#a293e23eda3ebaa3fa44db7e858d46d94" target="_top" xlink:title="Return byte offset to char in UTF8 content.">
<polygon fill="white" stroke="#666666" points="678,-339.5 523,-339.5 523,-320.5 678,-320.5 678,-339.5"/>
<text text-anchor="middle" x="600.5" y="-327.5" font-family="Roboto" font-size="10.00">Urho3D::String::ByteOffsetUTF8</text>
</a>
</g>
</g>
<!-- Node22&#45;&gt;Node26 -->
<g id="edge16" class="edge">
<title>Node22&#45;&gt;Node26</title>
<path fill="none" stroke="#63b8ff" d="M462.37,-301.98C485.98,-306.81 514.54,-312.64 539.47,-317.74"/>
<polygon fill="#63b8ff" stroke="#63b8ff" points="538.65,-321.14 549.15,-319.71 540.05,-314.28 538.65,-321.14"/>
</g>
<!-- Node27 -->
<g id="node17" class="node">
<title>Node27</title>
<g id="a_node17"><a xlink:href="class_urho3_d_1_1_string.html#a16643a545e2cfcf7a59979bd3c290614" target="_top" xlink:title="Return next Unicode character from UTF8 content and increase byte offset.">
<polygon fill="white" stroke="#666666" points="864,-338.5 714,-338.5 714,-319.5 864,-319.5 864,-338.5"/>
<text text-anchor="middle" x="789" y="-326.5" font-family="Roboto" font-size="10.00">Urho3D::String::NextUTF8Char</text>
</a>
</g>
</g>
<!-- Node22&#45;&gt;Node27 -->
<g id="edge20" class="edge">
<title>Node22&#45;&gt;Node27</title>
<path fill="none" stroke="#63b8ff" d="M487.47,-296.05C540.59,-299.33 613.84,-304.63 678,-312 690.97,-313.49 704.76,-315.38 718.03,-317.35"/>
<polygon fill="#63b8ff" stroke="#63b8ff" points="717.12,-320.75 727.53,-318.79 718.17,-313.83 717.12,-320.75"/>
</g>
<!-- Node24 -->
<g id="node14" class="node">
<title>Node24</title>
<g id="a_node14"><a xlink:href="class_urho3_d_1_1_string.html#af929252b4bd8cbd8dca97a116365c359" target="_top" xlink:title="Append a string.">
<polygon fill="white" stroke="#666666" points="848.5,-300.5 729.5,-300.5 729.5,-281.5 848.5,-281.5 848.5,-300.5"/>
<text text-anchor="middle" x="789" y="-288.5" font-family="Roboto" font-size="10.00">Urho3D::String::Append</text>
</a>
</g>
</g>
<!-- Node23&#45;&gt;Node24 -->
<g id="edge14" class="edge">
<title>Node23&#45;&gt;Node24</title>
<path fill="none" stroke="#63b8ff" d="M651.48,-263.92C674.68,-268.52 702.48,-274.03 726.92,-278.88"/>
<polygon fill="#63b8ff" stroke="#63b8ff" points="725.91,-282.25 736.4,-280.76 727.27,-275.38 725.91,-282.25"/>
</g>
<!-- Node25 -->
<g id="node15" class="node">
<title>Node25</title>
<g id="a_node15"><a xlink:href="class_urho3_d_1_1_string.html#a3b04a91d06f0b5b3651bbfa867d9539d" target="_top" xlink:title="Encode Unicode character to UTF8. Pointer will be incremented.">
<polygon fill="white" stroke="#666666" points="860,-263.5 718,-263.5 718,-244.5 860,-244.5 860,-263.5"/>
<text text-anchor="middle" x="789" y="-251.5" font-family="Roboto" font-size="10.00">Urho3D::String::EncodeUTF8</text>
</a>
</g>
</g>
<!-- Node23&#45;&gt;Node25 -->
<g id="edge15" class="edge">
<title>Node23&#45;&gt;Node25</title>
<path fill="none" stroke="#63b8ff" d="M671.74,-254C682.97,-254 694.67,-254 706.15,-254"/>
<polygon fill="#63b8ff" stroke="#63b8ff" points="706,-257.5 716,-254 706,-250.5 706,-257.5"/>
</g>
<!-- Node26&#45;&gt;Node27 -->
<g id="edge17" class="edge">
<title>Node26&#45;&gt;Node27</title>
<path fill="none" stroke="#63b8ff" d="M678.43,-329.59C686.25,-329.55 694.23,-329.5 702.14,-329.46"/>
<polygon fill="#63b8ff" stroke="#63b8ff" points="702.15,-332.96 712.13,-329.41 702.11,-325.96 702.15,-332.96"/>
</g>
<!-- Node27&#45;&gt;Node18 -->
<g id="edge18" class="edge">
<title>Node27&#45;&gt;Node18</title>
<path fill="none" stroke="#63b8ff" d="M864.46,-336.84C872.38,-337.67 880.47,-338.52 888.47,-339.37"/>
<polygon fill="#63b8ff" stroke="#63b8ff" points="887.88,-342.82 898.19,-340.39 888.61,-335.86 887.88,-342.82"/>
</g>
<!-- Node29 -->
<g id="node19" class="node">
<title>Node29</title>
<g id="a_node19"><a xlink:href="class_urho3_d_1_1_u_i_element.html#a0ce25dda5f6557938bd76b776efa8bf0" target="_top" xlink:title="Convert element coordinates to screen coordinates.">
<polygon fill="white" stroke="#666666" points="653,-222 548,-222 548,-192 653,-192 653,-222"/>
<text text-anchor="start" x="556" y="-210" font-family="Roboto" font-size="10.00">Urho3D::UIElement::</text>
<text text-anchor="middle" x="600.5" y="-199" font-family="Roboto" font-size="10.00">ElementToScreen</text>
</a>
</g>
</g>
<!-- Node28&#45;&gt;Node29 -->
<g id="edge22" class="edge">
<title>Node28&#45;&gt;Node29</title>
<path fill="none" stroke="#63b8ff" d="M468.8,-170.46C490.15,-176.43 514.68,-183.29 536.69,-189.44"/>
<polygon fill="#63b8ff" stroke="#63b8ff" points="535.56,-192.76 546.14,-192.08 537.45,-186.02 535.56,-192.76"/>
</g>
<!-- Node32 -->
<g id="node21" class="node">
<title>Node32</title>
<g id="a_node21"><a xlink:href="class_urho3_d_1_1_u_i_element.html#a75032690b0214d2551eac5744a306644" target="_top" xlink:title=" ">
<polygon fill="white" stroke="#666666" points="653,-174 548,-174 548,-144 653,-144 653,-174"/>
<text text-anchor="start" x="556" y="-162" font-family="Roboto" font-size="10.00">Urho3D::UIElement::</text>
<text text-anchor="middle" x="600.5" y="-151" font-family="Roboto" font-size="10.00">GetChildOffset</text>
</a>
</g>
</g>
<!-- Node28&#45;&gt;Node32 -->
<g id="edge25" class="edge">
<title>Node28&#45;&gt;Node32</title>
<path fill="none" stroke="#63b8ff" d="M475.44,-156.33C495.05,-156.75 516.74,-157.22 536.43,-157.64"/>
<polygon fill="#63b8ff" stroke="#63b8ff" points="536.18,-161.14 546.25,-157.85 536.33,-154.14 536.18,-161.14"/>
</g>
<!-- Node33 -->
<g id="node22" class="node">
<title>Node33</title>
<g id="a_node22"><a xlink:href="class_urho3_d_1_1_u_i_element.html#af0d0d929939b0fb4b8d38c7699ecdfa0" target="_top" xlink:title=" ">
<polygon fill="white" stroke="#666666" points="653,-126 548,-126 548,-96 653,-96 653,-126"/>
<text text-anchor="start" x="556" y="-114" font-family="Roboto" font-size="10.00">Urho3D::UIElement::</text>
<text text-anchor="middle" x="600.5" y="-103" font-family="Roboto" font-size="10.00">GetIndentWidth</text>
</a>
</g>
</g>
<!-- Node28&#45;&gt;Node33 -->
<g id="edge26" class="edge">
<title>Node28&#45;&gt;Node33</title>
<path fill="none" stroke="#63b8ff" d="M475.44,-140.35C495.14,-135.69 516.94,-130.53 536.71,-125.85"/>
<polygon fill="#63b8ff" stroke="#63b8ff" points="537.36,-129.3 546.29,-123.59 535.75,-122.48 537.36,-129.3"/>
</g>
<!-- Node34 -->
<g id="node23" class="node">
<title>Node34</title>
<g id="a_node23"><a xlink:href="class_urho3_d_1_1_u_i_element.html#a8c3df9a7b24aa874345db797a95e130e" target="_top" xlink:title=" ">
<polygon fill="white" stroke="#666666" points="653,-78 548,-78 548,-48 653,-48 653,-78"/>
<text text-anchor="start" x="556" y="-66" font-family="Roboto" font-size="10.00">Urho3D::UIElement::</text>
<text text-anchor="middle" x="600.5" y="-55" font-family="Roboto" font-size="10.00">GetWidth</text>
</a>
</g>
</g>
<!-- Node28&#45;&gt;Node34 -->
<g id="edge27" class="edge">
<title>Node28&#45;&gt;Node34</title>
<path fill="none" stroke="#63b8ff" d="M452.92,-139.6C464.33,-134.4 476.52,-128.09 487,-121 505.23,-108.66 504.02,-98.13 523,-87 527.37,-84.44 532.05,-82.11 536.86,-80.02"/>
<polygon fill="#63b8ff" stroke="#63b8ff" points="538.11,-83.29 546.11,-76.35 535.52,-76.78 538.11,-83.29"/>
</g>
<!-- Node35 -->
<g id="node24" class="node">
<title>Node35</title>
<g id="a_node24"><a xlink:href="class_urho3_d_1_1_u_i_element.html#a1514f8d82ab6e8a2cf10f20b807f738d" target="_top" xlink:title="Set child offset.">
<polygon fill="white" stroke="#666666" points="653,-30 548,-30 548,0 653,0 653,-30"/>
<text text-anchor="start" x="556" y="-18" font-family="Roboto" font-size="10.00">Urho3D::UIElement::</text>
<text text-anchor="middle" x="600.5" y="-7" font-family="Roboto" font-size="10.00">SetChildOffset</text>
</a>
</g>
</g>
<!-- Node28&#45;&gt;Node35 -->
<g id="edge28" class="edge">
<title>Node28&#45;&gt;Node35</title>
<path fill="none" stroke="#63b8ff" d="M460.32,-139.53C470,-134.73 479.52,-128.63 487,-121 514.87,-92.58 493.36,-65.56 523,-39 527.3,-35.15 532.21,-31.92 537.42,-29.21"/>
<polygon fill="#63b8ff" stroke="#63b8ff" points="538.65,-32.49 546.35,-25.22 535.79,-26.1 538.65,-32.49"/>
</g>
<!-- Node30 -->
<g id="node20" class="node">
<title>Node30</title>
<g id="a_node20"><a xlink:href="class_urho3_d_1_1_u_i_element.html#a031e2acb1765a940b9427003cb8653d7" target="_top" xlink:title=" ">
<polygon fill="#fff0f0" stroke="red" points="841.5,-208 736.5,-208 736.5,-178 841.5,-178 841.5,-208"/>
<text text-anchor="start" x="744.5" y="-196" font-family="Roboto" font-size="10.00">Urho3D::UIElement::</text>
<text text-anchor="middle" x="789" y="-185" font-family="Roboto" font-size="10.00">GetScreenPosition</text>
</a>
</g>
</g>
<!-- Node29&#45;&gt;Node30 -->
<g id="edge23" class="edge">
<title>Node29&#45;&gt;Node30</title>
<path fill="none" stroke="#63b8ff" d="M653.45,-203.1C675.49,-201.45 701.38,-199.5 724.53,-197.76"/>
<polygon fill="#63b8ff" stroke="#63b8ff" points="724.79,-201.26 734.5,-197.02 724.26,-194.27 724.79,-201.26"/>
</g>
<!-- Node30&#45;&gt;Node30 -->
<g id="edge24" class="edge">
<title>Node30&#45;&gt;Node30</title>
<path fill="none" stroke="#63b8ff" d="M756.92,-208.28C749.79,-217.41 760.48,-226 789,-226 804.59,-226 814.86,-223.43 819.79,-219.61"/>
<polygon fill="#63b8ff" stroke="#63b8ff" points="823.26,-220.11 820.91,-209.78 816.3,-219.32 823.26,-220.11"/>
</g>
<!-- Node36&#45;&gt;Node3 -->
<g id="edge31" class="edge">
<title>Node36&#45;&gt;Node3</title>
<path fill="none" stroke="#63b8ff" d="M243.12,-273.87C271.72,-297.16 343.99,-356.02 383.92,-388.54"/>
<polygon fill="#63b8ff" stroke="#63b8ff" points="381.49,-391.07 391.45,-394.67 385.91,-385.64 381.49,-391.07"/>
</g>
<!-- Node36&#45;&gt;Node17 -->
<g id="edge32" class="edge">
<title>Node36&#45;&gt;Node17</title>
<path fill="none" stroke="#63b8ff" d="M250.26,-273.88C271.33,-284.36 306.34,-300.77 338,-311 399.43,-330.84 471.28,-345.65 524.1,-355.04"/>
<polygon fill="#63b8ff" stroke="#63b8ff" points="523.46,-358.48 533.92,-356.76 524.67,-351.59 523.46,-358.48"/>
</g>
<!-- Node36&#45;&gt;Node19 -->
<g id="edge33" class="edge">
<title>Node36&#45;&gt;Node19</title>
<path fill="none" stroke="#63b8ff" d="M261.15,-254.11C273.81,-249.88 288.66,-244.81 302,-240 326.79,-231.06 354.51,-220.42 375.85,-212.09"/>
<polygon fill="#63b8ff" stroke="#63b8ff" points="376.94,-215.42 384.97,-208.52 374.39,-208.91 376.94,-215.42"/>
</g>
<!-- Node36&#45;&gt;Node22 -->
<g id="edge34" class="edge">
<title>Node36&#45;&gt;Node22</title>
<path fill="none" stroke="#63b8ff" d="M295.4,-273.99C308.53,-276.03 322.46,-278.19 335.94,-280.28"/>
<polygon fill="#63b8ff" stroke="#63b8ff" points="335.21,-283.71 345.63,-281.78 336.28,-276.79 335.21,-283.71"/>
</g>
<!-- Node36&#45;&gt;Node23 -->
<g id="edge30" class="edge">
<title>Node36&#45;&gt;Node23</title>
<path fill="none" stroke="#63b8ff" d="M302.49,-262.06C364.19,-260.39 453.3,-257.97 517.81,-256.22"/>
<polygon fill="#63b8ff" stroke="#63b8ff" points="517.74,-259.72 527.64,-255.95 517.55,-252.72 517.74,-259.72"/>
</g>
<!-- Node36&#45;&gt;Node28 -->
<g id="edge35" class="edge">
<title>Node36&#45;&gt;Node28</title>
<path fill="none" stroke="#63b8ff" d="M241.09,-254.12C259.14,-236.92 298.76,-201.27 338,-180 341.42,-178.15 345.01,-176.39 348.67,-174.74"/>
<polygon fill="#63b8ff" stroke="#63b8ff" points="349.89,-178.02 357.77,-170.93 347.19,-171.56 349.89,-178.02"/>
</g>
</g>
</svg>
