<?xml version="1.0" encoding="UTF-8" standalone="no"?>
<!DOCTYPE svg PUBLIC "-//W3C//DTD SVG 1.1//EN"
 "http://www.w3.org/Graphics/SVG/1.1/DTD/svg11.dtd">
<!-- Generated by graphviz version 7.0.3 (0)
 -->
<!-- Title: Urho3D::LineEdit::GetText Pages: 1 -->
<svg width="797pt" height="311pt"
 viewBox="0.00 0.00 797.00 311.00" xmlns="http://www.w3.org/2000/svg" xmlns:xlink="http://www.w3.org/1999/xlink">
<g id="graph0" class="graph" transform="scale(1 1) rotate(0) translate(4 307)">
<title>Urho3D::LineEdit::GetText</title>
<!-- Node1 -->
<g id="node1" class="node">
<title>Node1</title>
<g id="a_node1"><a xlink:title=" ">
<polygon fill="#999999" stroke="#666666" points="789,-201.5 661,-201.5 661,-182.5 789,-182.5 789,-201.5"/>
<text text-anchor="middle" x="725" y="-189.5" font-family="Roboto" font-size="10.00">Urho3D::LineEdit::GetText</text>
</a>
</g>
</g>
<!-- Node2 -->
<g id="node2" class="node">
<title>Node2</title>
<g id="a_node2"><a xlink:href="class_urho3_d_1_1_file_selector.html#ae9644a803b0be19cccf04883d7546d49" target="_top" xlink:title=" ">
<polygon fill="white" stroke="#666666" points="605.5,-303 498.5,-303 498.5,-273 605.5,-273 605.5,-303"/>
<text text-anchor="start" x="506.5" y="-291" font-family="Roboto" font-size="10.00">Urho3D::FileSelector</text>
<text text-anchor="middle" x="552" y="-280" font-family="Roboto" font-size="10.00">::GetFileName</text>
</a>
</g>
</g>
<!-- Node1&#45;&gt;Node2 -->
<g id="edge1" class="edge">
<title>Node1&#45;&gt;Node2</title>
<path fill="none" stroke="#63b8ff" d="M704.18,-209.26C685.01,-225.25 654.58,-248.78 625,-264 618.91,-267.14 612.32,-269.99 605.69,-272.54"/>
<polygon fill="#63b8ff" stroke="#63b8ff" points="706.36,-212 711.72,-202.86 701.83,-206.66 706.36,-212"/>
</g>
<!-- Node5 -->
<g id="node5" class="node">
<title>Node5</title>
<g id="a_node5"><a xlink:href="class_urho3_d_1_1_console.html#aaa466812eb6162f77ac458ab53e29ae0" target="_top" xlink:title="Handle unhandled key on the line edit for scrolling the history.">
<polygon fill="white" stroke="#666666" points="625,-255 479,-255 479,-225 625,-225 625,-255"/>
<text text-anchor="start" x="487" y="-243" font-family="Roboto" font-size="10.00">Urho3D::Console::HandleLine</text>
<text text-anchor="middle" x="552" y="-232" font-family="Roboto" font-size="10.00">EditKey</text>
</a>
</g>
</g>
<!-- Node1&#45;&gt;Node5 -->
<g id="edge4" class="edge">
<title>Node1&#45;&gt;Node5</title>
<path fill="none" stroke="#63b8ff" d="M677.73,-204.99C656.2,-211.03 630.43,-218.26 607.92,-224.58"/>
<polygon fill="#63b8ff" stroke="#63b8ff" points="678.43,-208.43 687.11,-202.35 676.54,-201.69 678.43,-208.43"/>
</g>
<!-- Node7 -->
<g id="node7" class="node">
<title>Node7</title>
<g id="a_node7"><a xlink:href="class_urho3_d_1_1_file_selector.html#ac07a78273e7db4a6d4ab33d807c072f7" target="_top" xlink:title="Handle path edited.">
<polygon fill="white" stroke="#666666" points="432,-164 321,-164 321,-134 432,-134 432,-164"/>
<text text-anchor="start" x="329" y="-152" font-family="Roboto" font-size="10.00">Urho3D::FileSelector</text>
<text text-anchor="middle" x="376.5" y="-141" font-family="Roboto" font-size="10.00">::HandlePathChanged</text>
</a>
</g>
</g>
<!-- Node1&#45;&gt;Node7 -->
<g id="edge6" class="edge">
<title>Node1&#45;&gt;Node7</title>
<path fill="none" stroke="#63b8ff" d="M677.94,-179.2C661.37,-175.03 642.46,-170.77 625,-168 559.24,-157.57 482.71,-152.81 432.36,-150.68"/>
<polygon fill="#63b8ff" stroke="#63b8ff" points="676.98,-182.57 687.53,-181.68 678.72,-175.79 676.98,-182.57"/>
</g>
<!-- Node8 -->
<g id="node8" class="node">
<title>Node8</title>
<g id="a_node8"><a xlink:href="class_urho3_d_1_1_console.html#a08a6a59af924fde47f10ba2f702a1c9d" target="_top" xlink:title="Handle enter pressed on the line edit.">
<polygon fill="white" stroke="#666666" points="625,-207 479,-207 479,-177 625,-177 625,-207"/>
<text text-anchor="start" x="487" y="-195" font-family="Roboto" font-size="10.00">Urho3D::Console::HandleText</text>
<text text-anchor="middle" x="552" y="-184" font-family="Roboto" font-size="10.00">Finished</text>
</a>
</g>
</g>
<!-- Node1&#45;&gt;Node8 -->
<g id="edge8" class="edge">
<title>Node1&#45;&gt;Node8</title>
<path fill="none" stroke="#63b8ff" d="M649.32,-192C641.4,-192 633.35,-192 625.45,-192"/>
<polygon fill="#63b8ff" stroke="#63b8ff" points="649.3,-195.5 659.3,-192 649.3,-188.5 649.3,-195.5"/>
</g>
<!-- Node9 -->
<g id="node9" class="node">
<title>Node9</title>
<g id="a_node9"><a xlink:href="class_urho3_d_1_1_file_selector.html#a70224d0b3a485fd4aab57cc6b9af1c6f" target="_top" xlink:title=" ">
<polygon fill="white" stroke="#666666" points="605.5,-121 498.5,-121 498.5,-91 605.5,-91 605.5,-121"/>
<text text-anchor="start" x="506.5" y="-109" font-family="Roboto" font-size="10.00">Urho3D::FileSelector</text>
<text text-anchor="middle" x="552" y="-98" font-family="Roboto" font-size="10.00">::SetPath</text>
</a>
</g>
</g>
<!-- Node1&#45;&gt;Node9 -->
<g id="edge10" class="edge">
<title>Node1&#45;&gt;Node9</title>
<path fill="none" stroke="#63b8ff" d="M698.52,-176.01C678.84,-163.99 650.7,-147.5 625,-135 615.18,-130.23 604.37,-125.57 594.18,-121.43"/>
<polygon fill="#63b8ff" stroke="#63b8ff" points="696.62,-178.95 706.97,-181.22 700.29,-172.99 696.62,-178.95"/>
</g>
<!-- Node3 -->
<g id="node3" class="node">
<title>Node3</title>
<g id="a_node3"><a xlink:href="class_urho3_d_1_1_file_selector.html#a7c152fd3654baa5f7a75ccbb1366b931" target="_top" xlink:title="Handle OK button pressed.">
<polygon fill="white" stroke="#666666" points="262,-247 155,-247 155,-217 262,-217 262,-247"/>
<text text-anchor="start" x="163" y="-235" font-family="Roboto" font-size="10.00">Urho3D::FileSelector</text>
<text text-anchor="middle" x="208.5" y="-224" font-family="Roboto" font-size="10.00">::HandleOKPressed</text>
</a>
</g>
</g>
<!-- Node2&#45;&gt;Node3 -->
<g id="edge2" class="edge">
<title>Node2&#45;&gt;Node3</title>
<path fill="none" stroke="#63b8ff" d="M486.71,-277.46C421.82,-266.82 322.79,-250.58 262.33,-240.66"/>
<polygon fill="#63b8ff" stroke="#63b8ff" points="486.09,-280.9 496.52,-279.07 487.22,-273.99 486.09,-280.9"/>
</g>
<!-- Node4 -->
<g id="node4" class="node">
<title>Node4</title>
<g id="a_node4"><a xlink:href="class_urho3_d_1_1_file_selector.html#ae0e66de218b839be46c7f802abf04c80" target="_top" xlink:title="Construct.">
<polygon fill="white" stroke="#666666" points="107,-121 0,-121 0,-91 107,-91 107,-121"/>
<text text-anchor="start" x="8" y="-109" font-family="Roboto" font-size="10.00">Urho3D::FileSelector</text>
<text text-anchor="middle" x="53.5" y="-98" font-family="Roboto" font-size="10.00">::FileSelector</text>
</a>
</g>
</g>
<!-- Node3&#45;&gt;Node4 -->
<g id="edge3" class="edge">
<title>Node3&#45;&gt;Node4</title>
<path fill="none" stroke="#63b8ff" d="M180.16,-209.48C149.2,-183.99 99.62,-143.16 72.94,-121.18"/>
<polygon fill="#63b8ff" stroke="#63b8ff" points="177.63,-211.93 187.57,-215.59 182.08,-206.53 177.63,-211.93"/>
</g>
<!-- Node6 -->
<g id="node6" class="node">
<title>Node6</title>
<g id="a_node6"><a xlink:href="class_urho3_d_1_1_console.html#afa65f6eacc596b544de5b0c3bc1a3d55" target="_top" xlink:title="Construct.">
<polygon fill="white" stroke="#666666" points="443,-225.5 310,-225.5 310,-206.5 443,-206.5 443,-225.5"/>
<text text-anchor="middle" x="376.5" y="-213.5" font-family="Roboto" font-size="10.00">Urho3D::Console::Console</text>
</a>
</g>
</g>
<!-- Node5&#45;&gt;Node6 -->
<g id="edge5" class="edge">
<title>Node5&#45;&gt;Node6</title>
<path fill="none" stroke="#63b8ff" d="M467.34,-228.43C459.28,-227.31 451.18,-226.19 443.33,-225.11"/>
<polygon fill="#63b8ff" stroke="#63b8ff" points="466.79,-231.88 477.18,-229.79 467.75,-224.95 466.79,-231.88"/>
</g>
<!-- Node7&#45;&gt;Node4 -->
<g id="edge7" class="edge">
<title>Node7&#45;&gt;Node4</title>
<path fill="none" stroke="#63b8ff" d="M309.78,-141.39C263.17,-135.84 199.19,-127.95 143,-120 131.45,-118.37 119.07,-116.49 107.34,-114.65"/>
<polygon fill="#63b8ff" stroke="#63b8ff" points="309.09,-144.83 319.44,-142.53 309.92,-137.88 309.09,-144.83"/>
</g>
<!-- Node8&#45;&gt;Node6 -->
<g id="edge9" class="edge">
<title>Node8&#45;&gt;Node6</title>
<path fill="none" stroke="#63b8ff" d="M467.34,-203.57C459.28,-204.69 451.18,-205.81 443.33,-206.89"/>
<polygon fill="#63b8ff" stroke="#63b8ff" points="467.75,-207.05 477.18,-202.21 466.79,-200.12 467.75,-207.05"/>
</g>
<!-- Node9&#45;&gt;Node4 -->
<g id="edge16" class="edge">
<title>Node9&#45;&gt;Node4</title>
<path fill="none" stroke="#63b8ff" d="M487,-106C387.91,-106 199.22,-106 107.37,-106"/>
<polygon fill="#63b8ff" stroke="#63b8ff" points="486.82,-109.5 496.82,-106 486.82,-102.5 486.82,-109.5"/>
</g>
<!-- Node9&#45;&gt;Node7 -->
<g id="edge17" class="edge">
<title>Node9&#45;&gt;Node7</title>
<path fill="none" stroke="#63b8ff" d="M487.02,-121.86C469.04,-126.31 449.66,-131.12 432.27,-135.42"/>
<polygon fill="#63b8ff" stroke="#63b8ff" points="487.67,-125.3 496.53,-119.5 485.98,-118.51 487.67,-125.3"/>
</g>
<!-- Node10 -->
<g id="node10" class="node">
<title>Node10</title>
<g id="a_node10"><a xlink:href="class_urho3_d_1_1_file_selector.html#ac7c4c01759f09d23dd856c71a2cc1655" target="_top" xlink:title="Enter a directory or confirm a file. Return true if a directory entered.">
<polygon fill="white" stroke="#666666" points="430,-78 323,-78 323,-48 430,-48 430,-78"/>
<text text-anchor="start" x="331" y="-66" font-family="Roboto" font-size="10.00">Urho3D::FileSelector</text>
<text text-anchor="middle" x="376.5" y="-55" font-family="Roboto" font-size="10.00">::EnterFile</text>
</a>
</g>
</g>
<!-- Node9&#45;&gt;Node10 -->
<g id="edge11" class="edge">
<title>Node9&#45;&gt;Node10</title>
<path fill="none" stroke="#63b8ff" d="M486.96,-90.13C468.38,-85.52 448.3,-80.55 430.47,-76.13"/>
<polygon fill="#63b8ff" stroke="#63b8ff" points="485.98,-93.49 496.53,-92.5 487.67,-86.7 485.98,-93.49"/>
</g>
<!-- Node11 -->
<g id="node11" class="node">
<title>Node11</title>
<g id="a_node11"><a xlink:href="class_urho3_d_1_1_file_selector.html#a004ed41fadc3029706a35857268bfdaf" target="_top" xlink:title="Handle file doubleclicked from the list (enter directory / OK the file selection).">
<polygon fill="white" stroke="#666666" points="274,-78 143,-78 143,-48 274,-48 274,-78"/>
<text text-anchor="start" x="151" y="-66" font-family="Roboto" font-size="10.00">Urho3D::FileSelector</text>
<text text-anchor="middle" x="208.5" y="-55" font-family="Roboto" font-size="10.00">::HandleFileDoubleClicked</text>
</a>
</g>
</g>
<!-- Node10&#45;&gt;Node11 -->
<g id="edge12" class="edge">
<title>Node10&#45;&gt;Node11</title>
<path fill="none" stroke="#63b8ff" d="M311.18,-63C299.14,-63 286.54,-63 274.48,-63"/>
<polygon fill="#63b8ff" stroke="#63b8ff" points="311.01,-66.5 321.01,-63 311.01,-59.5 311.01,-66.5"/>
</g>
<!-- Node12 -->
<g id="node12" class="node">
<title>Node12</title>
<g id="a_node12"><a xlink:href="class_urho3_d_1_1_file_selector.html#a5315d211e3108ad4012c648d1cbd3b6a" target="_top" xlink:title="Handle file list key pressed.">
<polygon fill="white" stroke="#666666" points="262,-30 155,-30 155,0 262,0 262,-30"/>
<text text-anchor="start" x="163" y="-18" font-family="Roboto" font-size="10.00">Urho3D::FileSelector</text>
<text text-anchor="middle" x="208.5" y="-7" font-family="Roboto" font-size="10.00">::HandleFileListKey</text>
</a>
</g>
</g>
<!-- Node10&#45;&gt;Node12 -->
<g id="edge14" class="edge">
<title>Node10&#45;&gt;Node12</title>
<path fill="none" stroke="#63b8ff" d="M311.92,-44.62C295.52,-39.87 278.05,-34.82 262.26,-30.26"/>
<polygon fill="#63b8ff" stroke="#63b8ff" points="310.49,-47.84 321.07,-47.26 312.43,-41.12 310.49,-47.84"/>
</g>
<!-- Node11&#45;&gt;Node4 -->
<g id="edge13" class="edge">
<title>Node11&#45;&gt;Node4</title>
<path fill="none" stroke="#63b8ff" d="M141.81,-81.46C130.31,-84.69 118.48,-88.02 107.38,-91.14"/>
<polygon fill="#63b8ff" stroke="#63b8ff" points="142.56,-84.89 151.24,-78.81 140.66,-78.15 142.56,-84.89"/>
</g>
<!-- Node12&#45;&gt;Node4 -->
<g id="edge15" class="edge">
<title>Node12&#45;&gt;Node4</title>
<path fill="none" stroke="#63b8ff" d="M150.66,-35.07C148.04,-36.33 145.47,-37.64 143,-39 116.31,-53.65 88.85,-75.74 71.74,-90.5"/>
<polygon fill="#63b8ff" stroke="#63b8ff" points="151.89,-38.35 159.58,-31.07 149.03,-31.97 151.89,-38.35"/>
</g>
</g>
</svg>
