<?xml version="1.0" encoding="UTF-8" standalone="no"?>
<!DOCTYPE svg PUBLIC "-//W3C//DTD SVG 1.1//EN"
 "http://www.w3.org/Graphics/SVG/1.1/DTD/svg11.dtd">
<!-- Generated by graphviz version 7.0.3 (0)
 -->
<!-- Title: Urho3D::Vector2::Length Pages: 1 -->
<svg width="803pt" height="148pt"
 viewBox="0.00 0.00 803.00 147.50" xmlns="http://www.w3.org/2000/svg" xmlns:xlink="http://www.w3.org/1999/xlink">
<g id="graph0" class="graph" transform="scale(1 1) rotate(0) translate(4 143.5)">
<title>Urho3D::Vector2::Length</title>
<!-- Node1 -->
<g id="node1" class="node">
<title>Node1</title>
<g id="a_node1"><a xlink:title=" ">
<polygon fill="#999999" stroke="#666666" points="795,-96.5 672,-96.5 672,-77.5 795,-77.5 795,-96.5"/>
<text text-anchor="middle" x="733.5" y="-84.5" font-family="Roboto" font-size="10.00">Urho3D::Vector2::Length</text>
</a>
</g>
</g>
<!-- Node2 -->
<g id="node2" class="node">
<title>Node2</title>
<g id="a_node2"><a xlink:href="class_urho3_d_1_1_vector2.html#a65083366da1e8c8b1fa39f2bdd93177d" target="_top" xlink:title="Returns the angle between this vector and another vector in degrees.">
<polygon fill="white" stroke="#666666" points="633,-139.5 514,-139.5 514,-120.5 633,-120.5 633,-139.5"/>
<text text-anchor="middle" x="573.5" y="-127.5" font-family="Roboto" font-size="10.00">Urho3D::Vector2::Angle</text>
</a>
</g>
</g>
<!-- Node1&#45;&gt;Node2 -->
<g id="edge1" class="edge">
<title>Node1&#45;&gt;Node2</title>
<path fill="none" stroke="#63b8ff" d="M685,-99.93C661.35,-106.36 633.19,-114.03 611.22,-120.01"/>
<polygon fill="#63b8ff" stroke="#63b8ff" points="685.66,-103.37 694.39,-97.37 683.83,-96.62 685.66,-103.37"/>
</g>
<!-- Node3 -->
<g id="node3" class="node">
<title>Node3</title>
<g id="a_node3"><a xlink:href="class_urho3_d_1_1_bounding_box.html#a1eaac173d1df592326f91ea174a74a43" target="_top" xlink:title="Return distance to point.">
<polygon fill="white" stroke="#666666" points="630,-102 517,-102 517,-72 630,-72 630,-102"/>
<text text-anchor="start" x="525" y="-90" font-family="Roboto" font-size="10.00">Urho3D::BoundingBox</text>
<text text-anchor="middle" x="573.5" y="-79" font-family="Roboto" font-size="10.00">::DistanceToPoint</text>
</a>
</g>
</g>
<!-- Node1&#45;&gt;Node3 -->
<g id="edge2" class="edge">
<title>Node1&#45;&gt;Node3</title>
<path fill="none" stroke="#63b8ff" d="M660.52,-87C650.38,-87 640.08,-87 630.31,-87"/>
<polygon fill="#63b8ff" stroke="#63b8ff" points="660.35,-90.5 670.35,-87 660.35,-83.5 660.35,-90.5"/>
</g>
<!-- Node5 -->
<g id="node5" class="node">
<title>Node5</title>
<g id="a_node5"><a xlink:href="class_urho3_d_1_1_particle_emitter2_d.html#a10bb8346cda27c85c9da98084e8dcd77" target="_top" xlink:title="Update particle.">
<polygon fill="white" stroke="#666666" points="636,-54 511,-54 511,-24 636,-24 636,-54"/>
<text text-anchor="start" x="519" y="-42" font-family="Roboto" font-size="10.00">Urho3D::ParticleEmitter2</text>
<text text-anchor="middle" x="573.5" y="-31" font-family="Roboto" font-size="10.00">D::UpdateParticle</text>
</a>
</g>
</g>
<!-- Node1&#45;&gt;Node5 -->
<g id="edge4" class="edge">
<title>Node1&#45;&gt;Node5</title>
<path fill="none" stroke="#63b8ff" d="M688.93,-73.76C669.2,-67.77 645.76,-60.65 625.24,-54.42"/>
<polygon fill="#63b8ff" stroke="#63b8ff" points="687.73,-77.06 698.31,-76.61 689.76,-70.36 687.73,-77.06"/>
</g>
<!-- Node4 -->
<g id="node4" class="node">
<title>Node4</title>
<g id="a_node4"><a xlink:href="class_urho3_d_1_1_dynamic_navigation_mesh.html#a2a4d9936b66f8f056928dd48b07ef9a2" target="_top" xlink:title="Return whether the Obstacle is touching the given tile.">
<polygon fill="white" stroke="#666666" points="475,-102 335,-102 335,-72 475,-72 475,-102"/>
<text text-anchor="start" x="343" y="-90" font-family="Roboto" font-size="10.00">Urho3D::DynamicNavigation</text>
<text text-anchor="middle" x="405" y="-79" font-family="Roboto" font-size="10.00">Mesh::IsObstacleInTile</text>
</a>
</g>
</g>
<!-- Node3&#45;&gt;Node4 -->
<g id="edge3" class="edge">
<title>Node3&#45;&gt;Node4</title>
<path fill="none" stroke="#63b8ff" d="M505.22,-87C495.39,-87 485.24,-87 475.36,-87"/>
<polygon fill="#63b8ff" stroke="#63b8ff" points="505.08,-90.5 515.08,-87 505.08,-83.5 505.08,-90.5"/>
</g>
<!-- Node6 -->
<g id="node6" class="node">
<title>Node6</title>
<g id="a_node6"><a xlink:href="class_urho3_d_1_1_particle_emitter2_d.html#a59d6b326bcbe8273a103208935845cef" target="_top" xlink:title="Update.">
<polygon fill="white" stroke="#666666" points="467.5,-54 342.5,-54 342.5,-24 467.5,-24 467.5,-54"/>
<text text-anchor="start" x="350.5" y="-42" font-family="Roboto" font-size="10.00">Urho3D::ParticleEmitter2</text>
<text text-anchor="middle" x="405" y="-31" font-family="Roboto" font-size="10.00">D::Update</text>
</a>
</g>
</g>
<!-- Node5&#45;&gt;Node6 -->
<g id="edge5" class="edge">
<title>Node5&#45;&gt;Node6</title>
<path fill="none" stroke="#63b8ff" d="M499.23,-39C488.73,-39 478.02,-39 467.77,-39"/>
<polygon fill="#63b8ff" stroke="#63b8ff" points="498.99,-42.5 508.99,-39 498.99,-35.5 498.99,-42.5"/>
</g>
<!-- Node7 -->
<g id="node7" class="node">
<title>Node7</title>
<g id="a_node7"><a xlink:href="class_urho3_d_1_1_particle_emitter2_d.html#abaa5fbe514eb5d5904039f69cd75257d" target="_top" xlink:title="Handle scene post update.">
<polygon fill="white" stroke="#666666" points="299,-54 161,-54 161,-24 299,-24 299,-54"/>
<text text-anchor="start" x="169" y="-42" font-family="Roboto" font-size="10.00">Urho3D::ParticleEmitter2</text>
<text text-anchor="middle" x="230" y="-31" font-family="Roboto" font-size="10.00">D::HandleScenePostUpdate</text>
</a>
</g>
</g>
<!-- Node6&#45;&gt;Node7 -->
<g id="edge6" class="edge">
<title>Node6&#45;&gt;Node7</title>
<path fill="none" stroke="#63b8ff" d="M330.82,-39C320.36,-39 309.64,-39 299.28,-39"/>
<polygon fill="#63b8ff" stroke="#63b8ff" points="330.52,-42.5 340.52,-39 330.52,-35.5 330.52,-42.5"/>
</g>
<!-- Node8 -->
<g id="node8" class="node">
<title>Node8</title>
<g id="a_node8"><a xlink:href="class_urho3_d_1_1_particle_emitter2_d.html#a09b2df5a425839d0feff440a78ce1f5f" target="_top" xlink:title="Handle scene being assigned.">
<polygon fill="white" stroke="#666666" points="125,-78 0,-78 0,-48 125,-48 125,-78"/>
<text text-anchor="start" x="8" y="-66" font-family="Roboto" font-size="10.00">Urho3D::ParticleEmitter2</text>
<text text-anchor="middle" x="62.5" y="-55" font-family="Roboto" font-size="10.00">D::OnSceneSet</text>
</a>
</g>
</g>
<!-- Node7&#45;&gt;Node8 -->
<g id="edge7" class="edge">
<title>Node7&#45;&gt;Node8</title>
<path fill="none" stroke="#63b8ff" d="M149.34,-50.55C141.25,-51.73 133.11,-52.9 125.25,-54.05"/>
<polygon fill="#63b8ff" stroke="#63b8ff" points="149.84,-54.02 159.23,-49.12 148.83,-47.09 149.84,-54.02"/>
</g>
<!-- Node9 -->
<g id="node9" class="node">
<title>Node9</title>
<g id="a_node9"><a xlink:href="class_urho3_d_1_1_particle_emitter2_d.html#aaa7a512b4fb84e3343be39bf899fb58d" target="_top" xlink:title="Handle enabled/disabled state change.">
<polygon fill="white" stroke="#666666" points="125,-30 0,-30 0,0 125,0 125,-30"/>
<text text-anchor="start" x="8" y="-18" font-family="Roboto" font-size="10.00">Urho3D::ParticleEmitter2</text>
<text text-anchor="middle" x="62.5" y="-7" font-family="Roboto" font-size="10.00">D::OnSetEnabled</text>
</a>
</g>
</g>
<!-- Node7&#45;&gt;Node9 -->
<g id="edge8" class="edge">
<title>Node7&#45;&gt;Node9</title>
<path fill="none" stroke="#63b8ff" d="M149.34,-27.45C141.25,-26.27 133.11,-25.1 125.25,-23.95"/>
<polygon fill="#63b8ff" stroke="#63b8ff" points="148.83,-30.91 159.23,-28.88 149.84,-23.98 148.83,-30.91"/>
</g>
</g>
</svg>
