<?xml version="1.0" encoding="UTF-8" standalone="no"?>
<!DOCTYPE svg PUBLIC "-//W3C//DTD SVG 1.1//EN"
 "http://www.w3.org/Graphics/SVG/1.1/DTD/svg11.dtd">
<!-- Generated by graphviz version 7.0.3 (0)
 -->
<!-- Title: Urho3D::LineEdit::FilterImplicitAttributes Pages: 1 -->
<svg width="716pt" height="261pt"
 viewBox="0.00 0.00 716.00 261.00" xmlns="http://www.w3.org/2000/svg" xmlns:xlink="http://www.w3.org/1999/xlink">
<g id="graph0" class="graph" transform="scale(1 1) rotate(0) translate(4 257)">
<title>Urho3D::LineEdit::FilterImplicitAttributes</title>
<!-- Node1 -->
<g id="node1" class="node">
<title>Node1</title>
<g id="a_node1"><a xlink:title="Filter implicit attributes in serialization process.">
<polygon fill="#999999" stroke="#666666" points="116,-126 0,-126 0,-96 116,-96 116,-126"/>
<text text-anchor="start" x="8" y="-114" font-family="Roboto" font-size="10.00">Urho3D::LineEdit::Filter</text>
<text text-anchor="middle" x="58" y="-103" font-family="Roboto" font-size="10.00">ImplicitAttributes</text>
</a>
</g>
</g>
<!-- Node2 -->
<g id="node2" class="node">
<title>Node2</title>
<g id="a_node2"><a xlink:href="class_urho3_d_1_1_u_i_element.html#a19d489013e96a7ca8a4c9ce7c1d4ed40" target="_top" xlink:title="Filter implicit attributes in serialization process.">
<polygon fill="white" stroke="#666666" points="265,-203 152,-203 152,-173 265,-173 265,-203"/>
<text text-anchor="start" x="160" y="-191" font-family="Roboto" font-size="10.00">Urho3D::UIElement::</text>
<text text-anchor="middle" x="208.5" y="-180" font-family="Roboto" font-size="10.00">FilterImplicitAttributes</text>
</a>
</g>
</g>
<!-- Node1&#45;&gt;Node2 -->
<g id="edge1" class="edge">
<title>Node1&#45;&gt;Node2</title>
<path fill="none" stroke="#63b8ff" d="M88.69,-126.4C111.36,-138.15 142.81,-154.46 167.66,-167.34"/>
<polygon fill="#63b8ff" stroke="#63b8ff" points="166.02,-170.44 176.51,-171.93 169.25,-164.22 166.02,-170.44"/>
</g>
<!-- Node5 -->
<g id="node5" class="node">
<title>Node5</title>
<g id="a_node5"><a xlink:href="class_urho3_d_1_1_u_i_element.html#ad23ccc306cf25e891e8ab6c156492b79" target="_top" xlink:title="Remove child XML element by matching attribute name.">
<polygon fill="white" stroke="#666666" points="406,-157 301,-157 301,-127 406,-127 406,-157"/>
<text text-anchor="start" x="309" y="-145" font-family="Roboto" font-size="10.00">Urho3D::UIElement::</text>
<text text-anchor="middle" x="353.5" y="-134" font-family="Roboto" font-size="10.00">RemoveChildXML</text>
</a>
</g>
</g>
<!-- Node1&#45;&gt;Node5 -->
<g id="edge17" class="edge">
<title>Node1&#45;&gt;Node5</title>
<path fill="none" stroke="#63b8ff" d="M116.02,-118.67C127.9,-120.18 140.35,-121.7 152,-123 197.86,-128.13 249.72,-133.02 289.21,-136.55"/>
<polygon fill="#63b8ff" stroke="#63b8ff" points="288.74,-140.03 299.01,-137.43 289.36,-133.05 288.74,-140.03"/>
</g>
<!-- Node12 -->
<g id="node12" class="node">
<title>Node12</title>
<g id="a_node12"><a xlink:href="class_urho3_d_1_1_x_m_l_element.html#abb0379163b8d534a37e24740a4e0cd0f" target="_top" xlink:title="Return child element, or null if missing.">
<polygon fill="white" stroke="#666666" points="264,-96 153,-96 153,-66 264,-66 264,-96"/>
<text text-anchor="start" x="161" y="-84" font-family="Roboto" font-size="10.00">Urho3D::XMLElement</text>
<text text-anchor="middle" x="208.5" y="-73" font-family="Roboto" font-size="10.00">::GetChild</text>
</a>
</g>
</g>
<!-- Node1&#45;&gt;Node12 -->
<g id="edge11" class="edge">
<title>Node1&#45;&gt;Node12</title>
<path fill="none" stroke="#63b8ff" d="M116.41,-99.4C124.61,-97.75 133.09,-96.03 141.43,-94.35"/>
<polygon fill="#63b8ff" stroke="#63b8ff" points="142.08,-97.79 151.19,-92.38 140.7,-90.92 142.08,-97.79"/>
</g>
<!-- Node13 -->
<g id="node13" class="node">
<title>Node13</title>
<g id="a_node13"><a xlink:href="class_urho3_d_1_1_x_m_l_element.html#a9aafd5a9e7302bcda8cf64b0664b588b" target="_top" xlink:title="Return next sibling element.">
<polygon fill="white" stroke="#666666" points="264,-30 153,-30 153,0 264,0 264,-30"/>
<text text-anchor="start" x="161" y="-18" font-family="Roboto" font-size="10.00">Urho3D::XMLElement</text>
<text text-anchor="middle" x="208.5" y="-7" font-family="Roboto" font-size="10.00">::GetNext</text>
</a>
</g>
</g>
<!-- Node1&#45;&gt;Node13 -->
<g id="edge14" class="edge">
<title>Node1&#45;&gt;Node13</title>
<path fill="none" stroke="#63b8ff" d="M82.86,-95.58C107.65,-79.55 146.63,-54.35 174.39,-36.41"/>
<polygon fill="#63b8ff" stroke="#63b8ff" points="175.93,-39.58 182.43,-31.21 172.13,-33.7 175.93,-39.58"/>
</g>
<!-- Node3 -->
<g id="node3" class="node">
<title>Node3</title>
<g id="a_node3"><a xlink:href="class_urho3_d_1_1_u_i_element.html#af20fa0798d41c04285757b8ba6c4a7f6" target="_top" xlink:title=" ">
<polygon fill="white" stroke="#666666" points="406,-253 301,-253 301,-223 406,-223 406,-253"/>
<text text-anchor="start" x="309" y="-241" font-family="Roboto" font-size="10.00">Urho3D::UIElement::</text>
<text text-anchor="middle" x="353.5" y="-230" font-family="Roboto" font-size="10.00">IsFixedHeight</text>
</a>
</g>
</g>
<!-- Node2&#45;&gt;Node3 -->
<g id="edge2" class="edge">
<title>Node2&#45;&gt;Node3</title>
<path fill="none" stroke="#63b8ff" d="M253.57,-203.41C267.57,-208.3 283.22,-213.78 297.88,-218.9"/>
<polygon fill="#63b8ff" stroke="#63b8ff" points="296.3,-222.06 306.9,-222.06 298.61,-215.45 296.3,-222.06"/>
</g>
<!-- Node4 -->
<g id="node4" class="node">
<title>Node4</title>
<g id="a_node4"><a xlink:href="class_urho3_d_1_1_u_i_element.html#af7389fe1ec87c47bd6c9e6bdb151cda1" target="_top" xlink:title=" ">
<polygon fill="white" stroke="#666666" points="406,-205 301,-205 301,-175 406,-175 406,-205"/>
<text text-anchor="start" x="309" y="-193" font-family="Roboto" font-size="10.00">Urho3D::UIElement::</text>
<text text-anchor="middle" x="353.5" y="-182" font-family="Roboto" font-size="10.00">IsFixedWidth</text>
</a>
</g>
</g>
<!-- Node2&#45;&gt;Node4 -->
<g id="edge3" class="edge">
<title>Node2&#45;&gt;Node4</title>
<path fill="none" stroke="#63b8ff" d="M265.2,-188.78C273.19,-188.89 281.47,-189.01 289.59,-189.12"/>
<polygon fill="#63b8ff" stroke="#63b8ff" points="289.37,-192.62 299.41,-189.26 289.46,-185.62 289.37,-192.62"/>
</g>
<!-- Node2&#45;&gt;Node5 -->
<g id="edge4" class="edge">
<title>Node2&#45;&gt;Node5</title>
<path fill="none" stroke="#63b8ff" d="M257.51,-172.55C269.07,-168.84 281.54,-164.82 293.53,-160.97"/>
<polygon fill="#63b8ff" stroke="#63b8ff" points="294.48,-164.34 302.93,-157.95 292.34,-157.68 294.48,-164.34"/>
</g>
<!-- Node6 -->
<g id="node6" class="node">
<title>Node6</title>
<g id="a_node6"><a xlink:href="class_urho3_d_1_1_x_m_l_element.html#a562a34e40cd98016c3a770466a439a50" target="_top" xlink:title="Remove a child element. Return true if successful.">
<polygon fill="white" stroke="#666666" points="554,-207 443,-207 443,-177 554,-177 554,-207"/>
<text text-anchor="start" x="451" y="-195" font-family="Roboto" font-size="10.00">Urho3D::XMLElement</text>
<text text-anchor="middle" x="498.5" y="-184" font-family="Roboto" font-size="10.00">::RemoveChild</text>
</a>
</g>
</g>
<!-- Node5&#45;&gt;Node6 -->
<g id="edge5" class="edge">
<title>Node5&#45;&gt;Node6</title>
<path fill="none" stroke="#63b8ff" d="M398.57,-157.41C412.57,-162.3 428.22,-167.78 442.88,-172.9"/>
<polygon fill="#63b8ff" stroke="#63b8ff" points="441.3,-176.06 451.9,-176.06 443.61,-169.45 441.3,-176.06"/>
</g>
<!-- Node7 -->
<g id="node7" class="node">
<title>Node7</title>
<g id="a_node7"><a xlink:href="class_urho3_d_1_1_x_m_l_element.html#a49f0b7c1cec40b16581bc24d86ee5e25" target="_top" xlink:title="Select an element/attribute using XPath query.">
<polygon fill="white" stroke="#666666" points="555,-159 442,-159 442,-129 555,-129 555,-159"/>
<text text-anchor="start" x="450" y="-147" font-family="Roboto" font-size="10.00">Urho3D::XMLElement</text>
<text text-anchor="middle" x="498.5" y="-136" font-family="Roboto" font-size="10.00">::SelectSinglePrepared</text>
</a>
</g>
</g>
<!-- Node5&#45;&gt;Node7 -->
<g id="edge6" class="edge">
<title>Node5&#45;&gt;Node7</title>
<path fill="none" stroke="#63b8ff" d="M406.13,-142.72C413.96,-142.83 422.13,-142.95 430.23,-143.06"/>
<polygon fill="#63b8ff" stroke="#63b8ff" points="430.04,-146.56 440.08,-143.2 430.13,-139.56 430.04,-146.56"/>
</g>
<!-- Node10 -->
<g id="node10" class="node">
<title>Node10</title>
<g id="a_node10"><a xlink:href="class_urho3_d_1_1_x_path_query.html#ae49880eeaa6a9bd48f2f6aaa2058d0e2" target="_top" xlink:title="Add/Set a bool variable. Return true if successful.">
<polygon fill="white" stroke="#666666" points="551.5,-111 445.5,-111 445.5,-81 551.5,-81 551.5,-111"/>
<text text-anchor="start" x="453.5" y="-99" font-family="Roboto" font-size="10.00">Urho3D::XPathQuery</text>
<text text-anchor="middle" x="498.5" y="-88" font-family="Roboto" font-size="10.00">::SetVariable</text>
</a>
</g>
</g>
<!-- Node5&#45;&gt;Node10 -->
<g id="edge9" class="edge">
<title>Node5&#45;&gt;Node10</title>
<path fill="none" stroke="#63b8ff" d="M402.51,-126.55C414.07,-122.84 426.54,-118.82 438.53,-114.97"/>
<polygon fill="#63b8ff" stroke="#63b8ff" points="439.48,-118.34 447.93,-111.95 437.34,-111.68 439.48,-118.34"/>
</g>
<!-- Node8 -->
<g id="node8" class="node">
<title>Node8</title>
<g id="a_node8"><a xlink:href="class_urho3_d_1_1_x_path_query.html#a3ca967cf52def09237cda5c41c8e789b" target="_top" xlink:title="Return pugixml xpath_query.">
<polygon fill="white" stroke="#666666" points="702.5,-183 596.5,-183 596.5,-153 702.5,-153 702.5,-183"/>
<text text-anchor="start" x="604.5" y="-171" font-family="Roboto" font-size="10.00">Urho3D::XPathQuery</text>
<text text-anchor="middle" x="649.5" y="-160" font-family="Roboto" font-size="10.00">::GetXPathQuery</text>
</a>
</g>
</g>
<!-- Node7&#45;&gt;Node8 -->
<g id="edge7" class="edge">
<title>Node7&#45;&gt;Node8</title>
<path fill="none" stroke="#63b8ff" d="M555.41,-153C565.02,-154.55 575.08,-156.17 584.88,-157.75"/>
<polygon fill="#63b8ff" stroke="#63b8ff" points="584.3,-161.2 594.73,-159.34 585.41,-154.29 584.3,-161.2"/>
</g>
<!-- Node9 -->
<g id="node9" class="node">
<title>Node9</title>
<g id="a_node9"><a xlink:href="class_urho3_d_1_1_x_m_l_element.html#a8dd6d311d1d9d33a802a7b08d99666ba" target="_top" xlink:title="Construct null element.">
<polygon fill="white" stroke="#666666" points="705,-135 594,-135 594,-105 705,-105 705,-135"/>
<text text-anchor="start" x="602" y="-123" font-family="Roboto" font-size="10.00">Urho3D::XMLElement</text>
<text text-anchor="middle" x="649.5" y="-112" font-family="Roboto" font-size="10.00">::XMLElement</text>
</a>
</g>
</g>
<!-- Node7&#45;&gt;Node9 -->
<g id="edge8" class="edge">
<title>Node7&#45;&gt;Node9</title>
<path fill="none" stroke="#63b8ff" d="M555.41,-135C564.23,-133.57 573.43,-132.09 582.46,-130.64"/>
<polygon fill="#63b8ff" stroke="#63b8ff" points="582.95,-134.1 592.27,-129.06 581.84,-127.19 582.95,-134.1"/>
</g>
<!-- Node11 -->
<g id="node11" class="node">
<title>Node11</title>
<g id="a_node11"><a xlink:href="class_urho3_d_1_1_string.html#a3e075eaafa63ccbe5b6f28a2ad7a50ad" target="_top" xlink:title="Return the C string.">
<polygon fill="white" stroke="#666666" points="708,-62.5 591,-62.5 591,-43.5 708,-43.5 708,-62.5"/>
<text text-anchor="middle" x="649.5" y="-50.5" font-family="Roboto" font-size="10.00">Urho3D::String::CString</text>
</a>
</g>
</g>
<!-- Node10&#45;&gt;Node11 -->
<g id="edge10" class="edge">
<title>Node10&#45;&gt;Node11</title>
<path fill="none" stroke="#63b8ff" d="M551.61,-80.96C568.39,-76.12 586.83,-70.8 603.08,-66.11"/>
<polygon fill="#63b8ff" stroke="#63b8ff" points="603.84,-69.53 612.48,-63.39 601.9,-62.8 603.84,-69.53"/>
</g>
<!-- Node12&#45;&gt;Node11 -->
<g id="edge12" class="edge">
<title>Node12&#45;&gt;Node11</title>
<path fill="none" stroke="#63b8ff" d="M264.21,-77.51C343.95,-72.42 492.07,-62.98 579.28,-57.41"/>
<polygon fill="#63b8ff" stroke="#63b8ff" points="579.39,-60.92 589.14,-56.79 578.94,-53.93 579.39,-60.92"/>
</g>
<!-- Node12&#45;&gt;Node12 -->
<g id="edge13" class="edge">
<title>Node12&#45;&gt;Node12</title>
<path fill="none" stroke="#63b8ff" d="M183.01,-96.28C177.35,-105.41 185.84,-114 208.5,-114 220.89,-114 229.05,-111.43 232.97,-107.61"/>
<polygon fill="#63b8ff" stroke="#63b8ff" points="236.44,-108.06 233.85,-97.78 229.47,-107.43 236.44,-108.06"/>
</g>
<!-- Node13&#45;&gt;Node11 -->
<g id="edge15" class="edge">
<title>Node13&#45;&gt;Node11</title>
<path fill="none" stroke="#63b8ff" d="M264.21,-19.74C343.95,-26.64 492.07,-39.46 579.28,-47.01"/>
<polygon fill="#63b8ff" stroke="#63b8ff" points="578.88,-50.49 589.14,-47.86 579.48,-43.51 578.88,-50.49"/>
</g>
<!-- Node13&#45;&gt;Node13 -->
<g id="edge16" class="edge">
<title>Node13&#45;&gt;Node13</title>
<path fill="none" stroke="#63b8ff" d="M183.01,-30.28C177.35,-39.41 185.84,-48 208.5,-48 220.89,-48 229.05,-45.43 232.97,-41.61"/>
<polygon fill="#63b8ff" stroke="#63b8ff" points="236.44,-42.06 233.85,-31.78 229.47,-41.43 236.44,-42.06"/>
</g>
</g>
</svg>
