<?xml version="1.0" encoding="UTF-8" standalone="no"?>
<!DOCTYPE svg PUBLIC "-//W3C//DTD SVG 1.1//EN"
 "http://www.w3.org/Graphics/SVG/1.1/DTD/svg11.dtd">
<!-- Generated by graphviz version 7.0.3 (0)
 -->
<!-- Title: Urho3D::Menu::FilterPopupImplicitAttributes Pages: 1 -->
<svg width="585pt" height="134pt"
 viewBox="0.00 0.00 585.00 134.00" xmlns="http://www.w3.org/2000/svg" xmlns:xlink="http://www.w3.org/1999/xlink">
<g id="graph0" class="graph" transform="scale(1 1) rotate(0) translate(4 130)">
<title>Urho3D::Menu::FilterPopupImplicitAttributes</title>
<!-- Node1 -->
<g id="node1" class="node">
<title>Node1</title>
<g id="a_node1"><a xlink:title="Filter implicit attributes in serialization process.">
<polygon fill="#999999" stroke="#666666" points="134,-78 0,-78 0,-48 134,-48 134,-78"/>
<text text-anchor="start" x="8" y="-66" font-family="Roboto" font-size="10.00">Urho3D::Menu::FilterPopup</text>
<text text-anchor="middle" x="67" y="-55" font-family="Roboto" font-size="10.00">ImplicitAttributes</text>
</a>
</g>
</g>
<!-- Node2 -->
<g id="node2" class="node">
<title>Node2</title>
<g id="a_node2"><a xlink:href="class_urho3_d_1_1_u_i_element.html#ad23ccc306cf25e891e8ab6c156492b79" target="_top" xlink:title="Remove child XML element by matching attribute name.">
<polygon fill="white" stroke="#666666" points="275,-78 170,-78 170,-48 275,-48 275,-78"/>
<text text-anchor="start" x="178" y="-66" font-family="Roboto" font-size="10.00">Urho3D::UIElement::</text>
<text text-anchor="middle" x="222.5" y="-55" font-family="Roboto" font-size="10.00">RemoveChildXML</text>
</a>
</g>
</g>
<!-- Node1&#45;&gt;Node2 -->
<g id="edge1" class="edge">
<title>Node1&#45;&gt;Node2</title>
<path fill="none" stroke="#63b8ff" d="M134.43,-63C142.38,-63 150.48,-63 158.38,-63"/>
<polygon fill="#63b8ff" stroke="#63b8ff" points="158.26,-66.5 168.26,-63 158.26,-59.5 158.26,-66.5"/>
</g>
<!-- Node3 -->
<g id="node3" class="node">
<title>Node3</title>
<g id="a_node3"><a xlink:href="class_urho3_d_1_1_x_m_l_element.html#a562a34e40cd98016c3a770466a439a50" target="_top" xlink:title="Remove a child element. Return true if successful.">
<polygon fill="white" stroke="#666666" points="423,-126 312,-126 312,-96 423,-96 423,-126"/>
<text text-anchor="start" x="320" y="-114" font-family="Roboto" font-size="10.00">Urho3D::XMLElement</text>
<text text-anchor="middle" x="367.5" y="-103" font-family="Roboto" font-size="10.00">::RemoveChild</text>
</a>
</g>
</g>
<!-- Node2&#45;&gt;Node3 -->
<g id="edge2" class="edge">
<title>Node2&#45;&gt;Node3</title>
<path fill="none" stroke="#63b8ff" d="M269.53,-78.45C282.42,-82.78 296.57,-87.53 309.99,-92.03"/>
<polygon fill="#63b8ff" stroke="#63b8ff" points="308.52,-95.23 319.12,-95.1 310.75,-88.6 308.52,-95.23"/>
</g>
<!-- Node4 -->
<g id="node4" class="node">
<title>Node4</title>
<g id="a_node4"><a xlink:href="class_urho3_d_1_1_x_m_l_element.html#a49f0b7c1cec40b16581bc24d86ee5e25" target="_top" xlink:title="Select an element/attribute using XPath query.">
<polygon fill="white" stroke="#666666" points="424,-78 311,-78 311,-48 424,-48 424,-78"/>
<text text-anchor="start" x="319" y="-66" font-family="Roboto" font-size="10.00">Urho3D::XMLElement</text>
<text text-anchor="middle" x="367.5" y="-55" font-family="Roboto" font-size="10.00">::SelectSinglePrepared</text>
</a>
</g>
</g>
<!-- Node2&#45;&gt;Node4 -->
<g id="edge3" class="edge">
<title>Node2&#45;&gt;Node4</title>
<path fill="none" stroke="#63b8ff" d="M275.13,-63C282.96,-63 291.13,-63 299.23,-63"/>
<polygon fill="#63b8ff" stroke="#63b8ff" points="299.08,-66.5 309.08,-63 299.08,-59.5 299.08,-66.5"/>
</g>
<!-- Node7 -->
<g id="node7" class="node">
<title>Node7</title>
<g id="a_node7"><a xlink:href="class_urho3_d_1_1_x_path_query.html#ae49880eeaa6a9bd48f2f6aaa2058d0e2" target="_top" xlink:title="Add/Set a bool variable. Return true if successful.">
<polygon fill="white" stroke="#666666" points="420.5,-30 314.5,-30 314.5,0 420.5,0 420.5,-30"/>
<text text-anchor="start" x="322.5" y="-18" font-family="Roboto" font-size="10.00">Urho3D::XPathQuery</text>
<text text-anchor="middle" x="367.5" y="-7" font-family="Roboto" font-size="10.00">::SetVariable</text>
</a>
</g>
</g>
<!-- Node2&#45;&gt;Node7 -->
<g id="edge6" class="edge">
<title>Node2&#45;&gt;Node7</title>
<path fill="none" stroke="#63b8ff" d="M269.53,-47.55C282.42,-43.22 296.57,-38.47 309.99,-33.97"/>
<polygon fill="#63b8ff" stroke="#63b8ff" points="310.75,-37.4 319.12,-30.9 308.52,-30.77 310.75,-37.4"/>
</g>
<!-- Node5 -->
<g id="node5" class="node">
<title>Node5</title>
<g id="a_node5"><a xlink:href="class_urho3_d_1_1_x_path_query.html#a3ca967cf52def09237cda5c41c8e789b" target="_top" xlink:title="Return pugixml xpath_query.">
<polygon fill="white" stroke="#666666" points="571.5,-123 465.5,-123 465.5,-93 571.5,-93 571.5,-123"/>
<text text-anchor="start" x="473.5" y="-111" font-family="Roboto" font-size="10.00">Urho3D::XPathQuery</text>
<text text-anchor="middle" x="518.5" y="-100" font-family="Roboto" font-size="10.00">::GetXPathQuery</text>
</a>
</g>
</g>
<!-- Node4&#45;&gt;Node5 -->
<g id="edge4" class="edge">
<title>Node4&#45;&gt;Node5</title>
<path fill="none" stroke="#63b8ff" d="M419.78,-78.49C431.31,-81.97 443.68,-85.7 455.6,-89.3"/>
<polygon fill="#63b8ff" stroke="#63b8ff" points="454.35,-92.58 464.93,-92.12 456.37,-85.88 454.35,-92.58"/>
</g>
<!-- Node6 -->
<g id="node6" class="node">
<title>Node6</title>
<g id="a_node6"><a xlink:href="class_urho3_d_1_1_x_m_l_element.html#a8dd6d311d1d9d33a802a7b08d99666ba" target="_top" xlink:title="Construct null element.">
<polygon fill="white" stroke="#666666" points="574,-75 463,-75 463,-45 574,-45 574,-75"/>
<text text-anchor="start" x="471" y="-63" font-family="Roboto" font-size="10.00">Urho3D::XMLElement</text>
<text text-anchor="middle" x="518.5" y="-52" font-family="Roboto" font-size="10.00">::XMLElement</text>
</a>
</g>
</g>
<!-- Node4&#45;&gt;Node6 -->
<g id="edge5" class="edge">
<title>Node4&#45;&gt;Node6</title>
<path fill="none" stroke="#63b8ff" d="M424.41,-61.87C433.23,-61.7 442.43,-61.51 451.46,-61.33"/>
<polygon fill="#63b8ff" stroke="#63b8ff" points="451.32,-64.83 461.25,-61.13 451.18,-57.83 451.32,-64.83"/>
</g>
<!-- Node8 -->
<g id="node8" class="node">
<title>Node8</title>
<g id="a_node8"><a xlink:href="class_urho3_d_1_1_string.html#a3e075eaafa63ccbe5b6f28a2ad7a50ad" target="_top" xlink:title="Return the C string.">
<polygon fill="white" stroke="#666666" points="577,-24.5 460,-24.5 460,-5.5 577,-5.5 577,-24.5"/>
<text text-anchor="middle" x="518.5" y="-12.5" font-family="Roboto" font-size="10.00">Urho3D::String::CString</text>
</a>
</g>
</g>
<!-- Node7&#45;&gt;Node8 -->
<g id="edge7" class="edge">
<title>Node7&#45;&gt;Node8</title>
<path fill="none" stroke="#63b8ff" d="M420.61,-15C429.56,-15 438.99,-15 448.3,-15"/>
<polygon fill="#63b8ff" stroke="#63b8ff" points="448.05,-18.5 458.05,-15 448.05,-11.5 448.05,-18.5"/>
</g>
</g>
</svg>
