<?xml version="1.0" encoding="UTF-8" standalone="no"?>
<!DOCTYPE svg PUBLIC "-//W3C//DTD SVG 1.1//EN"
 "http://www.w3.org/Graphics/SVG/1.1/DTD/svg11.dtd">
<!-- Generated by graphviz version 7.0.3 (0)
 -->
<!-- Title: Urho3D::Image::Resize Pages: 1 -->
<svg width="633pt" height="211pt"
 viewBox="0.00 0.00 633.00 211.00" xmlns="http://www.w3.org/2000/svg" xmlns:xlink="http://www.w3.org/1999/xlink">
<g id="graph0" class="graph" transform="scale(1 1) rotate(0) translate(4 207)">
<title>Urho3D::Image::Resize</title>
<!-- Node1 -->
<g id="node1" class="node">
<title>Node1</title>
<g id="a_node1"><a xlink:title="Resize image by bilinear resampling. Return true if successful.">
<polygon fill="#999999" stroke="#666666" points="116,-74 0,-74 0,-55 116,-55 116,-74"/>
<text text-anchor="middle" x="58" y="-62" font-family="Roboto" font-size="10.00">Urho3D::Image::Resize</text>
</a>
</g>
</g>
<!-- Node2 -->
<g id="node2" class="node">
<title>Node2</title>
<g id="a_node2"><a xlink:href="class_urho3_d_1_1_image.html#ac9d130ef2a03c14d26f13cb8788edb31" target="_top" xlink:title="Return a bilinearly sampled 2D pixel color. X and Y have the range 0&#45;1.">
<polygon fill="white" stroke="#666666" points="314.5,-130 159.5,-130 159.5,-111 314.5,-111 314.5,-130"/>
<text text-anchor="middle" x="237" y="-118" font-family="Roboto" font-size="10.00">Urho3D::Image::GetPixelBilinear</text>
</a>
</g>
</g>
<!-- Node1&#45;&gt;Node2 -->
<g id="edge1" class="edge">
<title>Node1&#45;&gt;Node2</title>
<path fill="none" stroke="#63b8ff" d="M80.03,-74.35C98.63,-82.75 126.67,-94.68 152,-102.5 158.3,-104.45 164.93,-106.26 171.58,-107.92"/>
<polygon fill="#63b8ff" stroke="#63b8ff" points="170.75,-111.32 181.29,-110.23 172.37,-104.51 170.75,-111.32"/>
</g>
<!-- Node8 -->
<g id="node8" class="node">
<title>Node8</title>
<g id="a_node8"><a xlink:href="class_urho3_d_1_1_image.html#a7f857b190bc10a60737469481fb407af" target="_top" xlink:title=" ">
<polygon fill="white" stroke="#666666" points="313,-93 161,-93 161,-74 313,-74 313,-93"/>
<text text-anchor="middle" x="237" y="-81" font-family="Roboto" font-size="10.00">Urho3D::Image::IsCompressed</text>
</a>
</g>
</g>
<!-- Node1&#45;&gt;Node8 -->
<g id="edge10" class="edge">
<title>Node1&#45;&gt;Node8</title>
<path fill="none" stroke="#63b8ff" d="M116.47,-70.67C127.07,-71.81 138.34,-73.02 149.58,-74.22"/>
<polygon fill="#63b8ff" stroke="#63b8ff" points="148.95,-77.68 159.27,-75.26 149.7,-70.72 148.95,-77.68"/>
</g>
<!-- Node9 -->
<g id="node9" class="node">
<title>Node9</title>
<g id="a_node9"><a xlink:href="class_urho3_d_1_1_resource.html#a965ad58111e131f7725edec44358c75e" target="_top" xlink:title="Set memory use in bytes, possibly approximate.">
<polygon fill="white" stroke="#666666" points="322,-56 152,-56 152,-37 322,-37 322,-56"/>
<text text-anchor="middle" x="237" y="-44" font-family="Roboto" font-size="10.00">Urho3D::Resource::SetMemoryUse</text>
</a>
</g>
</g>
<!-- Node1&#45;&gt;Node9 -->
<g id="edge11" class="edge">
<title>Node1&#45;&gt;Node9</title>
<path fill="none" stroke="#63b8ff" d="M116.47,-58.66C124.08,-57.88 132.05,-57.07 140.1,-56.25"/>
<polygon fill="#63b8ff" stroke="#63b8ff" points="140.4,-59.74 150,-55.25 139.7,-52.78 140.4,-59.74"/>
</g>
<!-- Node10 -->
<g id="node10" class="node">
<title>Node10</title>
<g id="a_node10"><a xlink:href="class_urho3_d_1_1_color.html#a06623b98b5524439f8a243d103b214dd" target="_top" xlink:title="Return color packed to a 32&#45;bit integer, with R component in the lowest 8 bits. Components are clampe...">
<polygon fill="white" stroke="#666666" points="293.5,-19 180.5,-19 180.5,0 293.5,0 293.5,-19"/>
<text text-anchor="middle" x="237" y="-7" font-family="Roboto" font-size="10.00">Urho3D::Color::ToUInt</text>
</a>
</g>
</g>
<!-- Node1&#45;&gt;Node10 -->
<g id="edge12" class="edge">
<title>Node1&#45;&gt;Node10</title>
<path fill="none" stroke="#63b8ff" d="M80.8,-54.62C99.42,-46.48 127.06,-35.07 152,-27.5 158.31,-25.58 164.94,-23.79 171.6,-22.14"/>
<polygon fill="#63b8ff" stroke="#63b8ff" points="172.38,-25.55 181.31,-19.84 170.77,-18.74 172.38,-25.55"/>
</g>
<!-- Node3 -->
<g id="node3" class="node">
<title>Node3</title>
<g id="a_node3"><a xlink:href="_math_defs_8h.html#a937fef228b452d2488ce13d78f0bd810" target="_top" xlink:title=" ">
<polygon fill="white" stroke="#666666" points="460.5,-29 377.5,-29 377.5,-10 460.5,-10 460.5,-29"/>
<text text-anchor="middle" x="419" y="-17" font-family="Roboto" font-size="10.00">Urho3D::Clamp</text>
</a>
</g>
</g>
<!-- Node2&#45;&gt;Node3 -->
<g id="edge2" class="edge">
<title>Node2&#45;&gt;Node3</title>
<path fill="none" stroke="#63b8ff" d="M303.16,-110.59C309.72,-108.41 316.13,-105.75 322,-102.5 342.08,-91.4 340.85,-80.74 358,-65.5 369.8,-55.01 383.76,-44.22 395.25,-35.73"/>
<polygon fill="#63b8ff" stroke="#63b8ff" points="396.97,-38.8 402.99,-30.08 392.85,-33.15 396.97,-38.8"/>
</g>
<!-- Node4 -->
<g id="node4" class="node">
<title>Node4</title>
<g id="a_node4"><a xlink:href="_math_defs_8h.html#a1addf32ffcf84cac95ca33a7d0bd8bc8" target="_top" xlink:title=" ">
<polygon fill="white" stroke="#666666" points="457.5,-185 380.5,-185 380.5,-166 457.5,-166 457.5,-185"/>
<text text-anchor="middle" x="419" y="-173" font-family="Roboto" font-size="10.00">Urho3D::Fract</text>
</a>
</g>
</g>
<!-- Node2&#45;&gt;Node4 -->
<g id="edge4" class="edge">
<title>Node2&#45;&gt;Node4</title>
<path fill="none" stroke="#63b8ff" d="M270.07,-130.46C294.23,-137.95 328.17,-148.43 358,-157.5 363.13,-159.06 368.5,-160.69 373.84,-162.3"/>
<polygon fill="#63b8ff" stroke="#63b8ff" points="372.63,-165.58 383.21,-165.11 374.64,-158.88 372.63,-165.58"/>
</g>
<!-- Node5 -->
<g id="node5" class="node">
<title>Node5</title>
<g id="a_node5"><a xlink:href="class_urho3_d_1_1_image.html#a6e1aa46e83a8a6b673daa57fb78fba1e" target="_top" xlink:title="Return a 2D pixel color.">
<polygon fill="white" stroke="#666666" points="480,-130 358,-130 358,-111 480,-111 480,-130"/>
<text text-anchor="middle" x="419" y="-118" font-family="Roboto" font-size="10.00">Urho3D::Image::GetPixel</text>
</a>
</g>
</g>
<!-- Node2&#45;&gt;Node5 -->
<g id="edge6" class="edge">
<title>Node2&#45;&gt;Node5</title>
<path fill="none" stroke="#63b8ff" d="M314.86,-120.5C325.27,-120.5 335.93,-120.5 346.25,-120.5"/>
<polygon fill="#63b8ff" stroke="#63b8ff" points="346.21,-124 356.21,-120.5 346.21,-117 346.21,-124"/>
</g>
<!-- Node6 -->
<g id="node6" class="node">
<title>Node6</title>
<g id="a_node6"><a xlink:href="class_urho3_d_1_1_color.html#a1995ca7720e249153efbb386dac4c4be" target="_top" xlink:title="Return linear interpolation of this color with another color.">
<polygon fill="white" stroke="#666666" points="471,-93 367,-93 367,-74 471,-74 471,-93"/>
<text text-anchor="middle" x="419" y="-81" font-family="Roboto" font-size="10.00">Urho3D::Color::Lerp</text>
</a>
</g>
</g>
<!-- Node2&#45;&gt;Node6 -->
<g id="edge8" class="edge">
<title>Node2&#45;&gt;Node6</title>
<path fill="none" stroke="#63b8ff" d="M286.24,-110.58C308.43,-106.02 334.98,-100.57 358.41,-95.75"/>
<polygon fill="#63b8ff" stroke="#63b8ff" points="359.06,-99.19 368.15,-93.75 357.65,-92.33 359.06,-99.19"/>
</g>
<!-- Node3&#45;&gt;Node3 -->
<g id="edge3" class="edge">
<title>Node3&#45;&gt;Node3</title>
<path fill="none" stroke="#63b8ff" d="M395.28,-29.37C384.46,-37.94 392.37,-47 419,-47 433.56,-47 442.53,-44.29 445.89,-40.43"/>
<polygon fill="#63b8ff" stroke="#63b8ff" points="449.26,-39.47 443.14,-30.82 442.53,-41.4 449.26,-39.47"/>
</g>
<!-- Node4&#45;&gt;Node4 -->
<g id="edge5" class="edge">
<title>Node4&#45;&gt;Node4</title>
<path fill="none" stroke="#63b8ff" d="M395.28,-185.37C384.46,-193.94 392.37,-203 419,-203 433.56,-203 442.53,-200.29 445.89,-196.43"/>
<polygon fill="#63b8ff" stroke="#63b8ff" points="449.26,-195.47 443.14,-186.82 442.53,-197.4 449.26,-195.47"/>
</g>
<!-- Node5&#45;&gt;Node5 -->
<g id="edge7" class="edge">
<title>Node5&#45;&gt;Node5</title>
<path fill="none" stroke="#63b8ff" d="M395.28,-130.37C384.46,-138.94 392.37,-148 419,-148 433.56,-148 442.53,-145.29 445.89,-141.43"/>
<polygon fill="#63b8ff" stroke="#63b8ff" points="449.26,-140.47 443.14,-131.82 442.53,-142.4 449.26,-140.47"/>
</g>
<!-- Node7 -->
<g id="node7" class="node">
<title>Node7</title>
<g id="a_node7"><a xlink:href="class_urho3_d_1_1_color.html#ace09055245d79e6a4c7ad8c32ab702c4" target="_top" xlink:title="Construct with default values (opaque white).">
<polygon fill="white" stroke="#666666" points="625,-93 516,-93 516,-74 625,-74 625,-93"/>
<text text-anchor="middle" x="570.5" y="-81" font-family="Roboto" font-size="10.00">Urho3D::Color::Color</text>
</a>
</g>
</g>
<!-- Node6&#45;&gt;Node7 -->
<g id="edge9" class="edge">
<title>Node6&#45;&gt;Node7</title>
<path fill="none" stroke="#63b8ff" d="M471.45,-83.5C482.04,-83.5 493.33,-83.5 504.34,-83.5"/>
<polygon fill="#63b8ff" stroke="#63b8ff" points="504.15,-87 514.15,-83.5 504.15,-80 504.15,-87"/>
</g>
<!-- Node10&#45;&gt;Node3 -->
<g id="edge13" class="edge">
<title>Node10&#45;&gt;Node3</title>
<path fill="none" stroke="#63b8ff" d="M293.97,-12.61C316.9,-13.88 343.3,-15.35 365.83,-16.6"/>
<polygon fill="#63b8ff" stroke="#63b8ff" points="365.53,-20.09 375.71,-17.15 365.92,-13.1 365.53,-20.09"/>
</g>
</g>
</svg>
