<?xml version="1.0" encoding="UTF-8" standalone="no"?>
<!DOCTYPE svg PUBLIC "-//W3C//DTD SVG 1.1//EN"
 "http://www.w3.org/Graphics/SVG/1.1/DTD/svg11.dtd">
<!-- Generated by graphviz version 7.0.3 (0)
 -->
<!-- Title: Urho3D::VectorBuffer Pages: 1 -->
<svg width="506pt" height="170pt"
 viewBox="0.00 0.00 505.50 170.00" xmlns="http://www.w3.org/2000/svg" xmlns:xlink="http://www.w3.org/1999/xlink">
<g id="graph0" class="graph" transform="scale(1 1) rotate(0) translate(4 166)">
<title>Urho3D::VectorBuffer</title>
<!-- Node1 -->
<g id="node1" class="node">
<title>Node1</title>
<g id="a_node1"><a xlink:title="Dynamically sized buffer that can be read and written to as a stream.">
<polygon fill="#999999" stroke="#666666" points="338,-19 227,-19 227,0 338,0 338,-19"/>
<text text-anchor="middle" x="282.5" y="-7" font-family="Roboto" font-size="10.00">Urho3D::VectorBuffer</text>
</a>
</g>
</g>
<!-- Node2 -->
<g id="node2" class="node">
<title>Node2</title>
<g id="a_node2"><a xlink:href="class_urho3_d_1_1_abstract_file.html" target="_top" xlink:title="A common root class for objects that implement both Serializer and Deserializer.">
<polygon fill="white" stroke="#666666" points="254,-90.5 147,-90.5 147,-71.5 254,-71.5 254,-90.5"/>
<text text-anchor="middle" x="200.5" y="-78.5" font-family="Roboto" font-size="10.00">Urho3D::AbstractFile</text>
</a>
</g>
</g>
<!-- Node2&#45;&gt;Node1 -->
<g id="edge1" class="edge">
<title>Node2&#45;&gt;Node1</title>
<path fill="none" stroke="#63b8ff" d="M219.61,-63.81C235.91,-49.99 258.74,-30.64 271.94,-19.45"/>
<polygon fill="#63b8ff" stroke="#63b8ff" points="217.41,-61.08 212.04,-70.22 221.93,-66.42 217.41,-61.08"/>
</g>
<!-- Node3 -->
<g id="node3" class="node">
<title>Node3</title>
<g id="a_node3"><a xlink:href="class_urho3_d_1_1_deserializer.html" target="_top" xlink:title=" ">
<polygon fill="white" stroke="#666666" points="107,-162 0,-162 0,-143 107,-143 107,-162"/>
<text text-anchor="middle" x="53.5" y="-150" font-family="Roboto" font-size="10.00">Urho3D::Deserializer</text>
</a>
</g>
</g>
<!-- Node3&#45;&gt;Node2 -->
<g id="edge2" class="edge">
<title>Node3&#45;&gt;Node2</title>
<path fill="none" stroke="#63b8ff" d="M82.5,-137.79C111.9,-123.89 156.55,-102.78 181.66,-90.91"/>
<polygon fill="#63b8ff" stroke="#63b8ff" points="81.33,-134.47 73.79,-141.91 84.32,-140.8 81.33,-134.47"/>
</g>
<!-- Node4 -->
<g id="node4" class="node">
<title>Node4</title>
<g id="a_node4"><a xlink:href="class_urho3_d_1_1_serializer.html" target="_top" xlink:title=" ">
<polygon fill="white" stroke="#666666" points="221.5,-162 125.5,-162 125.5,-143 221.5,-143 221.5,-162"/>
<text text-anchor="middle" x="173.5" y="-150" font-family="Roboto" font-size="10.00">Urho3D::Serializer</text>
</a>
</g>
</g>
<!-- Node4&#45;&gt;Node2 -->
<g id="edge3" class="edge">
<title>Node4&#45;&gt;Node2</title>
<path fill="none" stroke="#63b8ff" d="M181.03,-132.12C186.26,-118.64 193,-101.3 197.02,-90.95"/>
<polygon fill="#63b8ff" stroke="#63b8ff" points="177.83,-130.7 177.47,-141.29 184.35,-133.23 177.83,-130.7"/>
</g>
<!-- Node5 -->
<g id="node5" class="node">
<title>Node5</title>
<g id="a_node5"><a xlink:href="class_urho3_d_1_1_string.html" target="_top" xlink:title="String class.">
<polygon fill="white" stroke="#666666" points="319.5,-162 239.5,-162 239.5,-143 319.5,-143 319.5,-162"/>
<text text-anchor="middle" x="279.5" y="-150" font-family="Roboto" font-size="10.00">Urho3D::String</text>
</a>
</g>
</g>
<!-- Node5&#45;&gt;Node2 -->
<g id="edge4" class="edge">
<title>Node5&#45;&gt;Node2</title>
<path fill="none" stroke="#9a32cd" stroke-dasharray="5,2" d="M261.09,-135.31C245.39,-121.49 223.39,-102.14 210.67,-90.95"/>
<polygon fill="#9a32cd" stroke="#9a32cd" points="258.54,-137.72 268.36,-141.7 263.16,-132.46 258.54,-137.72"/>
<text text-anchor="middle" x="263.5" y="-117" font-family="Roboto" font-size="10.00"> name_</text>
</g>
<!-- Node5&#45;&gt;Node5 -->
<g id="edge5" class="edge">
<title>Node5&#45;&gt;Node5</title>
<path fill="none" stroke="#9a32cd" stroke-dasharray="5,2" d="M331.24,-157.12C335.12,-156.09 337.5,-154.55 337.5,-152.5 337.5,-148.86 329.97,-146.82 319.89,-146.4"/>
<polygon fill="#9a32cd" stroke="#9a32cd" points="330.85,-153.64 321.39,-158.41 331.76,-160.58 330.85,-153.64"/>
<text text-anchor="middle" x="355.5" y="-150" font-family="Roboto" font-size="10.00"> EMPTY</text>
</g>
<!-- Node6 -->
<g id="node6" class="node">
<title>Node6</title>
<g id="a_node6"><a xlink:href="class_urho3_d_1_1_p_o_d_vector.html" target="_top" xlink:title=" ">
<polygon fill="white" stroke="#666666" points="463,-96 354,-96 354,-66 463,-66 463,-96"/>
<text text-anchor="start" x="362" y="-84" font-family="Roboto" font-size="10.00">Urho3D::PODVector&lt;</text>
<text text-anchor="middle" x="408.5" y="-73" font-family="Roboto" font-size="10.00"> unsigned char &gt;</text>
</a>
</g>
</g>
<!-- Node6&#45;&gt;Node1 -->
<g id="edge6" class="edge">
<title>Node6&#45;&gt;Node1</title>
<path fill="none" stroke="#9a32cd" stroke-dasharray="5,2" d="M372.42,-60.1C348.06,-46.66 317.1,-29.59 298.6,-19.38"/>
<polygon fill="#9a32cd" stroke="#9a32cd" points="370.62,-63.1 381.07,-64.87 374,-56.97 370.62,-63.1"/>
<text text-anchor="middle" x="366.5" y="-40" font-family="Roboto" font-size="10.00"> buffer_</text>
</g>
<!-- Node7 -->
<g id="node7" class="node">
<title>Node7</title>
<g id="a_node7"><a xlink:href="class_urho3_d_1_1_vector_base.html" target="_top" xlink:title="Vector base class.">
<polygon fill="white" stroke="#666666" points="497.5,-162 391.5,-162 391.5,-143 497.5,-143 497.5,-162"/>
<text text-anchor="middle" x="444.5" y="-150" font-family="Roboto" font-size="10.00">Urho3D::VectorBase</text>
</a>
</g>
</g>
<!-- Node7&#45;&gt;Node6 -->
<g id="edge7" class="edge">
<title>Node7&#45;&gt;Node6</title>
<path fill="none" stroke="#63b8ff" d="M434.64,-132.47C428.72,-121.04 421.31,-106.73 415.89,-96.27"/>
<polygon fill="#63b8ff" stroke="#63b8ff" points="431.54,-134.08 439.24,-141.35 437.75,-130.86 431.54,-134.08"/>
</g>
</g>
</svg>
