<?xml version="1.0" encoding="UTF-8" standalone="no"?>
<!DOCTYPE svg PUBLIC "-//W3C//DTD SVG 1.1//EN"
 "http://www.w3.org/Graphics/SVG/1.1/DTD/svg11.dtd">
<!-- Generated by graphviz version 7.0.3 (0)
 -->
<!-- Title: Urho3D::Menu::SaveXML Pages: 1 -->
<svg width="953pt" height="783pt"
 viewBox="0.00 0.00 953.00 783.12" xmlns="http://www.w3.org/2000/svg" xmlns:xlink="http://www.w3.org/1999/xlink">
<g id="graph0" class="graph" transform="scale(1 1) rotate(0) translate(4 779.12)">
<title>Urho3D::Menu::SaveXML</title>
<!-- Node1 -->
<g id="node1" class="node">
<title>Node1</title>
<g id="a_node1"><a xlink:title="Save as XML data. Return true if successful.">
<polygon fill="#999999" stroke="#666666" points="125,-186.62 0,-186.62 0,-167.62 125,-167.62 125,-186.62"/>
<text text-anchor="middle" x="62.5" y="-174.62" font-family="Roboto" font-size="10.00">Urho3D::Menu::SaveXML</text>
</a>
</g>
</g>
<!-- Node2 -->
<g id="node2" class="node">
<title>Node2</title>
<g id="a_node2"><a xlink:href="class_urho3_d_1_1_x_m_l_element.html#af8968bd1a431788069818955496490d7" target="_top" xlink:title="Create a child element.">
<polygon fill="white" stroke="#666666" points="604.5,-294.12 493.5,-294.12 493.5,-264.12 604.5,-264.12 604.5,-294.12"/>
<text text-anchor="start" x="501.5" y="-282.12" font-family="Roboto" font-size="10.00">Urho3D::XMLElement</text>
<text text-anchor="middle" x="549" y="-271.12" font-family="Roboto" font-size="10.00">::CreateChild</text>
</a>
</g>
</g>
<!-- Node1&#45;&gt;Node2 -->
<g id="edge1" class="edge">
<title>Node1&#45;&gt;Node2</title>
<path fill="none" stroke="#63b8ff" d="M73.55,-186.91C90.42,-202.94 126.06,-235 161,-255.12 231.23,-295.57 251.34,-306.2 331,-321.12 385.17,-331.27 401.12,-332.72 455,-321.12 474.65,-316.89 495.15,-308.16 511.88,-299.75"/>
<polygon fill="#63b8ff" stroke="#63b8ff" points="513.18,-303.02 520.43,-295.29 509.95,-296.81 513.18,-303.02"/>
</g>
<!-- Node4 -->
<g id="node4" class="node">
<title>Node4</title>
<g id="a_node4"><a xlink:href="class_urho3_d_1_1_menu.html#a7923f072821c1f896da0517ec0a8fbd3" target="_top" xlink:title="Filter implicit attributes in serialization process.">
<polygon fill="white" stroke="#666666" points="295,-168.12 161,-168.12 161,-138.12 295,-138.12 295,-168.12"/>
<text text-anchor="start" x="169" y="-156.12" font-family="Roboto" font-size="10.00">Urho3D::Menu::FilterPopup</text>
<text text-anchor="middle" x="228" y="-145.12" font-family="Roboto" font-size="10.00">ImplicitAttributes</text>
</a>
</g>
</g>
<!-- Node1&#45;&gt;Node4 -->
<g id="edge4" class="edge">
<title>Node1&#45;&gt;Node4</title>
<path fill="none" stroke="#63b8ff" d="M125.31,-168.05C133.18,-166.89 141.31,-165.7 149.39,-164.51"/>
<polygon fill="#63b8ff" stroke="#63b8ff" points="149.85,-167.98 159.24,-163.07 148.83,-161.06 149.85,-167.98"/>
</g>
<!-- Node11 -->
<g id="node9" class="node">
<title>Node11</title>
<g id="a_node9"><a xlink:href="class_urho3_d_1_1_animatable.html#a6deb3ef91d5828dd64e67fbe88bac8bd" target="_top" xlink:title="Save as XML data. Return true if successful.">
<polygon fill="white" stroke="#666666" points="280,-246.12 176,-246.12 176,-216.12 280,-216.12 280,-246.12"/>
<text text-anchor="start" x="184" y="-234.12" font-family="Roboto" font-size="10.00">Urho3D::Animatable</text>
<text text-anchor="middle" x="228" y="-223.12" font-family="Roboto" font-size="10.00">::SaveXML</text>
</a>
</g>
</g>
<!-- Node1&#45;&gt;Node11 -->
<g id="edge10" class="edge">
<title>Node1&#45;&gt;Node11</title>
<path fill="none" stroke="#63b8ff" d="M93.49,-187.02C114.7,-194.03 143.82,-203.65 169.45,-212.11"/>
<polygon fill="#63b8ff" stroke="#63b8ff" points="168.15,-215.37 178.75,-215.18 170.35,-208.72 168.15,-215.37"/>
</g>
<!-- Node80 -->
<g id="node25" class="node">
<title>Node80</title>
<g id="a_node25"><a xlink:href="class_urho3_d_1_1_x_m_l_element.html#a38913cde7c196c658a9a858007d8efe4" target="_top" xlink:title="Set a bool attribute.">
<polygon fill="white" stroke="#666666" points="283.5,-61.12 172.5,-61.12 172.5,-31.12 283.5,-31.12 283.5,-61.12"/>
<text text-anchor="start" x="180.5" y="-49.12" font-family="Roboto" font-size="10.00">Urho3D::XMLElement</text>
<text text-anchor="middle" x="228" y="-38.12" font-family="Roboto" font-size="10.00">::SetBool</text>
</a>
</g>
</g>
<!-- Node1&#45;&gt;Node80 -->
<g id="edge41" class="edge">
<title>Node1&#45;&gt;Node80</title>
<path fill="none" stroke="#63b8ff" d="M75.79,-167.27C101.81,-146.43 163.01,-97.39 199.07,-68.5"/>
<polygon fill="#63b8ff" stroke="#63b8ff" points="200.86,-71.55 206.48,-62.56 196.48,-66.08 200.86,-71.55"/>
</g>
<!-- Node2&#45;&gt;Node2 -->
<g id="edge2" class="edge">
<title>Node2&#45;&gt;Node2</title>
<path fill="none" stroke="#63b8ff" d="M521.58,-294.39C515.48,-303.53 524.62,-312.12 549,-312.12 562.33,-312.12 571.1,-309.55 575.32,-305.73"/>
<polygon fill="#63b8ff" stroke="#63b8ff" points="578.79,-306.19 576.28,-295.9 571.83,-305.52 578.79,-306.19"/>
</g>
<!-- Node3 -->
<g id="node3" class="node">
<title>Node3</title>
<g id="a_node3"><a xlink:href="class_urho3_d_1_1_string.html#a3e075eaafa63ccbe5b6f28a2ad7a50ad" target="_top" xlink:title="Return the C string.">
<polygon fill="white" stroke="#666666" points="945,-257.62 828,-257.62 828,-238.62 945,-238.62 945,-257.62"/>
<text text-anchor="middle" x="886.5" y="-245.62" font-family="Roboto" font-size="10.00">Urho3D::String::CString</text>
</a>
</g>
</g>
<!-- Node2&#45;&gt;Node3 -->
<g id="edge3" class="edge">
<title>Node2&#45;&gt;Node3</title>
<path fill="none" stroke="#63b8ff" d="M604.85,-275.59C653.95,-272.24 727.86,-266.75 792,-260.12 799.95,-259.3 808.26,-258.35 816.52,-257.36"/>
<polygon fill="#63b8ff" stroke="#63b8ff" points="816.69,-260.87 826.19,-256.17 815.84,-253.92 816.69,-260.87"/>
</g>
<!-- Node5 -->
<g id="node5" class="node">
<title>Node5</title>
<g id="a_node5"><a xlink:href="class_urho3_d_1_1_u_i_element.html#ad23ccc306cf25e891e8ab6c156492b79" target="_top" xlink:title="Remove child XML element by matching attribute name.">
<polygon fill="white" stroke="#666666" points="445.5,-98.12 340.5,-98.12 340.5,-68.12 445.5,-68.12 445.5,-98.12"/>
<text text-anchor="start" x="348.5" y="-86.12" font-family="Roboto" font-size="10.00">Urho3D::UIElement::</text>
<text text-anchor="middle" x="393" y="-75.12" font-family="Roboto" font-size="10.00">RemoveChildXML</text>
</a>
</g>
</g>
<!-- Node4&#45;&gt;Node5 -->
<g id="edge5" class="edge">
<title>Node4&#45;&gt;Node5</title>
<path fill="none" stroke="#63b8ff" d="M264.77,-137.76C288.57,-127.53 320.07,-114.01 345.77,-102.97"/>
<polygon fill="#63b8ff" stroke="#63b8ff" points="346.83,-106.33 354.64,-99.16 344.07,-99.89 346.83,-106.33"/>
</g>
<!-- Node6 -->
<g id="node6" class="node">
<title>Node6</title>
<g id="a_node6"><a xlink:href="class_urho3_d_1_1_x_m_l_element.html#a562a34e40cd98016c3a770466a439a50" target="_top" xlink:title="Remove a child element. Return true if successful.">
<polygon fill="white" stroke="#666666" points="604.5,-122.12 493.5,-122.12 493.5,-92.12 604.5,-92.12 604.5,-122.12"/>
<text text-anchor="start" x="501.5" y="-110.12" font-family="Roboto" font-size="10.00">Urho3D::XMLElement</text>
<text text-anchor="middle" x="549" y="-99.12" font-family="Roboto" font-size="10.00">::RemoveChild</text>
</a>
</g>
</g>
<!-- Node5&#45;&gt;Node6 -->
<g id="edge6" class="edge">
<title>Node5&#45;&gt;Node6</title>
<path fill="none" stroke="#63b8ff" d="M445.71,-91.18C457.42,-93 470,-94.96 482.2,-96.86"/>
<polygon fill="#63b8ff" stroke="#63b8ff" points="481.35,-100.27 491.77,-98.36 482.43,-93.36 481.35,-100.27"/>
</g>
<!-- Node7 -->
<g id="node7" class="node">
<title>Node7</title>
<g id="a_node7"><a xlink:href="class_urho3_d_1_1_x_m_l_element.html#a49f0b7c1cec40b16581bc24d86ee5e25" target="_top" xlink:title="Select an element/attribute using XPath query.">
<polygon fill="#fff0f0" stroke="red" points="605.5,-74.12 492.5,-74.12 492.5,-44.12 605.5,-44.12 605.5,-74.12"/>
<text text-anchor="start" x="500.5" y="-62.12" font-family="Roboto" font-size="10.00">Urho3D::XMLElement</text>
<text text-anchor="middle" x="549" y="-51.12" font-family="Roboto" font-size="10.00">::SelectSinglePrepared</text>
</a>
</g>
</g>
<!-- Node5&#45;&gt;Node7 -->
<g id="edge7" class="edge">
<title>Node5&#45;&gt;Node7</title>
<path fill="none" stroke="#63b8ff" d="M445.71,-75.06C457.03,-73.3 469.18,-71.4 481,-69.56"/>
<polygon fill="#63b8ff" stroke="#63b8ff" points="481.36,-73.05 490.71,-68.05 480.29,-66.13 481.36,-73.05"/>
</g>
<!-- Node10 -->
<g id="node8" class="node">
<title>Node10</title>
<g id="a_node8"><a xlink:href="class_urho3_d_1_1_x_path_query.html#ae49880eeaa6a9bd48f2f6aaa2058d0e2" target="_top" xlink:title="Add/Set a bool variable. Return true if successful.">
<polygon fill="white" stroke="#666666" points="770.5,-89.12 664.5,-89.12 664.5,-59.12 770.5,-59.12 770.5,-89.12"/>
<text text-anchor="start" x="672.5" y="-77.12" font-family="Roboto" font-size="10.00">Urho3D::XPathQuery</text>
<text text-anchor="middle" x="717.5" y="-66.12" font-family="Roboto" font-size="10.00">::SetVariable</text>
</a>
</g>
</g>
<!-- Node5&#45;&gt;Node10 -->
<g id="edge8" class="edge">
<title>Node5&#45;&gt;Node10</title>
<path fill="none" stroke="#63b8ff" d="M417.15,-67.84C436.11,-56.3 464.11,-41.41 491,-35.12 541.2,-23.38 556.2,-26.34 607,-35.12 629.15,-38.95 652.75,-46.82 672.35,-54.5"/>
<polygon fill="#63b8ff" stroke="#63b8ff" points="670.8,-57.66 681.39,-58.16 673.43,-51.17 670.8,-57.66"/>
</g>
<!-- Node10&#45;&gt;Node3 -->
<g id="edge9" class="edge">
<title>Node10&#45;&gt;Node3</title>
<path fill="none" stroke="#63b8ff" d="M733.32,-89.56C764.24,-121.78 835.49,-196.01 868.34,-230.24"/>
<polygon fill="#63b8ff" stroke="#63b8ff" points="865.67,-232.51 875.12,-237.31 870.72,-227.67 865.67,-232.51"/>
</g>
<!-- Node11&#45;&gt;Node2 -->
<g id="edge11" class="edge">
<title>Node11&#45;&gt;Node2</title>
<path fill="none" stroke="#63b8ff" d="M244.24,-246.57C262.82,-264.21 296.08,-292.04 331,-303.12 384.12,-319.98 447.81,-309.55 492.4,-297.62"/>
<polygon fill="#63b8ff" stroke="#63b8ff" points="493.16,-301.05 501.85,-294.98 491.28,-294.3 493.16,-301.05"/>
</g>
<!-- Node12 -->
<g id="node10" class="node">
<title>Node12</title>
<g id="a_node10"><a xlink:href="class_urho3_d_1_1_value_animation.html#afd9ee2195ab1501547c5699a9f224d30" target="_top" xlink:title="Return owner.">
<polygon fill="white" stroke="#666666" points="455,-294.12 331,-294.12 331,-264.12 455,-264.12 455,-294.12"/>
<text text-anchor="start" x="339" y="-282.12" font-family="Roboto" font-size="10.00">Urho3D::ValueAnimation</text>
<text text-anchor="middle" x="393" y="-271.12" font-family="Roboto" font-size="10.00">::GetOwner</text>
</a>
</g>
</g>
<!-- Node11&#45;&gt;Node12 -->
<g id="edge12" class="edge">
<title>Node11&#45;&gt;Node12</title>
<path fill="none" stroke="#63b8ff" d="M280.13,-246.17C295.45,-250.69 312.45,-255.69 328.47,-260.41"/>
<polygon fill="#63b8ff" stroke="#63b8ff" points="327.34,-263.73 337.92,-263.19 329.31,-257.01 327.34,-263.73"/>
</g>
<!-- Node13 -->
<g id="node11" class="node">
<title>Node13</title>
<g id="a_node11"><a xlink:href="class_urho3_d_1_1_serializable.html#a3fbac3aa471adea86dea09bfa4b3960f" target="_top" xlink:title="Save as XML data. Return true if successful.">
<polygon fill="white" stroke="#666666" points="445.5,-532.12 340.5,-532.12 340.5,-502.12 445.5,-502.12 445.5,-532.12"/>
<text text-anchor="start" x="348.5" y="-520.12" font-family="Roboto" font-size="10.00">Urho3D::Serializable</text>
<text text-anchor="middle" x="393" y="-509.12" font-family="Roboto" font-size="10.00">::SaveXML</text>
</a>
</g>
</g>
<!-- Node11&#45;&gt;Node13 -->
<g id="edge13" class="edge">
<title>Node11&#45;&gt;Node13</title>
<path fill="none" stroke="#63b8ff" d="M237.76,-246.5C264.41,-293.24 344.63,-434.01 377.61,-491.87"/>
<polygon fill="#63b8ff" stroke="#63b8ff" points="374.45,-493.4 382.44,-500.35 380.53,-489.93 374.45,-493.4"/>
</g>
<!-- Node37 -->
<g id="node21" class="node">
<title>Node37</title>
<g id="a_node21"><a xlink:href="class_urho3_d_1_1_x_m_l_element.html#ae8956473bc7d5907f82a4b4b2533a051" target="_top" xlink:title="Set an attribute.">
<polygon fill="white" stroke="#666666" points="773,-233.12 662,-233.12 662,-203.12 773,-203.12 773,-233.12"/>
<text text-anchor="start" x="670" y="-221.12" font-family="Roboto" font-size="10.00">Urho3D::XMLElement</text>
<text text-anchor="middle" x="717.5" y="-210.12" font-family="Roboto" font-size="10.00">::SetAttribute</text>
</a>
</g>
</g>
<!-- Node11&#45;&gt;Node37 -->
<g id="edge39" class="edge">
<title>Node11&#45;&gt;Node37</title>
<path fill="none" stroke="#63b8ff" d="M262.33,-215.73C281.94,-207.26 307.44,-197.26 331,-191.12 450.07,-160.06 486.66,-143.42 607,-169.12 632.79,-174.63 659.85,-186.67 680.62,-197.44"/>
<polygon fill="#63b8ff" stroke="#63b8ff" points="678.77,-200.42 689.24,-202.04 682.06,-194.24 678.77,-200.42"/>
</g>
<!-- Node77 -->
<g id="node23" class="node">
<title>Node77</title>
<g id="a_node23"><a xlink:href="class_urho3_d_1_1_value_animation.html#af54548bd2522a3b8eee6d47e56c42b64" target="_top" xlink:title="Save as XML data. Return true if successful.">
<polygon fill="#fff0f0" stroke="red" points="455,-246.12 331,-246.12 331,-216.12 455,-216.12 455,-246.12"/>
<text text-anchor="start" x="339" y="-234.12" font-family="Roboto" font-size="10.00">Urho3D::ValueAnimation</text>
<text text-anchor="middle" x="393" y="-223.12" font-family="Roboto" font-size="10.00">::SaveXML</text>
</a>
</g>
</g>
<!-- Node11&#45;&gt;Node77 -->
<g id="edge34" class="edge">
<title>Node11&#45;&gt;Node77</title>
<path fill="none" stroke="#63b8ff" d="M280.13,-231.12C292.55,-231.12 306.07,-231.12 319.27,-231.12"/>
<polygon fill="#63b8ff" stroke="#63b8ff" points="319.25,-234.62 329.25,-231.12 319.25,-227.62 319.25,-234.62"/>
</g>
<!-- Node78 -->
<g id="node24" class="node">
<title>Node78</title>
<g id="a_node24"><a xlink:href="class_urho3_d_1_1_x_m_l_element.html#ad22d73e151580d42f4486feec1c58a06" target="_top" xlink:title="Set a float attribute.">
<polygon fill="white" stroke="#666666" points="604.5,-208.12 493.5,-208.12 493.5,-178.12 604.5,-178.12 604.5,-208.12"/>
<text text-anchor="start" x="501.5" y="-196.12" font-family="Roboto" font-size="10.00">Urho3D::XMLElement</text>
<text text-anchor="middle" x="549" y="-185.12" font-family="Roboto" font-size="10.00">::SetFloat</text>
</a>
</g>
</g>
<!-- Node11&#45;&gt;Node78 -->
<g id="edge40" class="edge">
<title>Node11&#45;&gt;Node78</title>
<path fill="none" stroke="#63b8ff" d="M280.31,-217.29C296.42,-213.42 314.36,-209.6 331,-207.12 381.28,-199.64 438.7,-196.15 481.84,-194.53"/>
<polygon fill="#63b8ff" stroke="#63b8ff" points="481.95,-198.03 491.82,-194.18 481.71,-191.03 481.95,-198.03"/>
</g>
<!-- Node13&#45;&gt;Node2 -->
<g id="edge15" class="edge">
<title>Node13&#45;&gt;Node2</title>
<path fill="none" stroke="#63b8ff" d="M399.31,-501.78C411.61,-467.67 444.6,-384.02 491,-326.12 498.2,-317.13 507.37,-308.66 516.23,-301.46"/>
<polygon fill="#63b8ff" stroke="#63b8ff" points="518.32,-304.27 524.07,-295.37 514.02,-298.74 518.32,-304.27"/>
</g>
<!-- Node14 -->
<g id="node12" class="node">
<title>Node14</title>
<g id="a_node12"><a xlink:href="class_urho3_d_1_1_vector.html#a253629ba660641c388bb0bf050b0cd3e" target="_top" xlink:title="Return element at index.">
<polygon fill="#fff0f0" stroke="red" points="766.5,-526.62 668.5,-526.62 668.5,-507.62 766.5,-507.62 766.5,-526.62"/>
<text text-anchor="middle" x="717.5" y="-514.62" font-family="Roboto" font-size="10.00">Urho3D::Vector::At</text>
</a>
</g>
</g>
<!-- Node13&#45;&gt;Node14 -->
<g id="edge14" class="edge">
<title>Node13&#45;&gt;Node14</title>
<path fill="none" stroke="#63b8ff" d="M408.33,-501.68C425.85,-484.06 457.35,-456.24 491,-445.12 539.95,-428.94 557.61,-430.34 607,-445.12 642.53,-455.76 677.22,-482.04 697.72,-499.74"/>
<polygon fill="#63b8ff" stroke="#63b8ff" points="695.17,-502.15 704.97,-506.17 699.81,-496.91 695.17,-502.15"/>
</g>
<!-- Node16 -->
<g id="node13" class="node">
<title>Node16</title>
<g id="a_node13"><a xlink:href="class_urho3_d_1_1_serializable.html#a48b7ab5369b91ff7b7e47c83347963d8" target="_top" xlink:title=" ">
<polygon fill="#fff0f0" stroke="red" points="601.5,-704.12 496.5,-704.12 496.5,-674.12 601.5,-674.12 601.5,-704.12"/>
<text text-anchor="start" x="504.5" y="-692.12" font-family="Roboto" font-size="10.00">Urho3D::Serializable</text>
<text text-anchor="middle" x="549" y="-681.12" font-family="Roboto" font-size="10.00">::GetAttributeDefault</text>
</a>
</g>
</g>
<!-- Node13&#45;&gt;Node16 -->
<g id="edge16" class="edge">
<title>Node13&#45;&gt;Node16</title>
<path fill="none" stroke="#63b8ff" d="M401.06,-532.32C414.84,-560.63 447.8,-622.02 491,-660.12 494.14,-662.89 497.59,-665.47 501.2,-667.86"/>
<polygon fill="#63b8ff" stroke="#63b8ff" points="499.31,-670.81 509.69,-672.96 502.92,-664.81 499.31,-670.81"/>
</g>
<!-- Node17 -->
<g id="node14" class="node">
<title>Node17</title>
<g id="a_node14"><a xlink:href="class_urho3_d_1_1_serializable.html#a7e18871871feb97ee7cfb637e9b3e090" target="_top" xlink:title="Return attribute descriptions, or null if none defined.">
<polygon fill="#fff0f0" stroke="red" points="770,-775.12 665,-775.12 665,-745.12 770,-745.12 770,-775.12"/>
<text text-anchor="start" x="673" y="-763.12" font-family="Roboto" font-size="10.00">Urho3D::Serializable</text>
<text text-anchor="middle" x="717.5" y="-752.12" font-family="Roboto" font-size="10.00">::GetAttributes</text>
</a>
</g>
</g>
<!-- Node13&#45;&gt;Node17 -->
<g id="edge21" class="edge">
<title>Node13&#45;&gt;Node17</title>
<path fill="none" stroke="#63b8ff" d="M395.58,-532.33C400.73,-573.28 420.94,-686.19 491,-737.12 537.56,-770.97 604.53,-773.64 653.39,-769.72"/>
<polygon fill="#63b8ff" stroke="#63b8ff" points="653.63,-773.21 663.27,-768.8 652.99,-766.24 653.63,-773.21"/>
</g>
<!-- Node29 -->
<g id="node15" class="node">
<title>Node29</title>
<g id="a_node15"><a xlink:href="class_urho3_d_1_1_object.html#aa70436408fab29ff5d6ea54fa1e09b9b" target="_top" xlink:title=" ">
<polygon fill="white" stroke="#666666" points="792,-707.62 643,-707.62 643,-688.62 792,-688.62 792,-707.62"/>
<text text-anchor="middle" x="717.5" y="-695.62" font-family="Roboto" font-size="10.00">Urho3D::Object::GetTypeName</text>
</a>
</g>
</g>
<!-- Node13&#45;&gt;Node29 -->
<g id="edge23" class="edge">
<title>Node13&#45;&gt;Node29</title>
<path fill="none" stroke="#63b8ff" d="M396.14,-532.47C402.45,-571.08 424.88,-672.06 491,-713.12 550.1,-749.81 635.49,-728.49 682.41,-711.91"/>
<polygon fill="#63b8ff" stroke="#63b8ff" points="683.33,-715.3 691.5,-708.57 680.91,-708.73 683.33,-715.3"/>
</g>
<!-- Node31 -->
<g id="node16" class="node">
<title>Node31</title>
<g id="a_node16"><a xlink:href="class_urho3_d_1_1_vector.html#a5da7101c355895f41098fcf875e4c56a" target="_top" xlink:title="Return size of vector.">
<polygon fill="white" stroke="#666666" points="771,-662.62 664,-662.62 664,-643.62 771,-643.62 771,-662.62"/>
<text text-anchor="middle" x="717.5" y="-650.62" font-family="Roboto" font-size="10.00">Urho3D::Vector::Size</text>
</a>
</g>
</g>
<!-- Node13&#45;&gt;Node31 -->
<g id="edge33" class="edge">
<title>Node13&#45;&gt;Node31</title>
<path fill="none" stroke="#63b8ff" d="M402.38,-532.38C416.84,-557.06 449.02,-605.19 491,-627.12 540.85,-653.17 605.21,-658.25 652.41,-657.65"/>
<polygon fill="#63b8ff" stroke="#63b8ff" points="652.28,-661.15 662.2,-657.43 652.12,-654.16 652.28,-661.15"/>
</g>
<!-- Node32 -->
<g id="node17" class="node">
<title>Node32</title>
<g id="a_node17"><a xlink:href="class_urho3_d_1_1_variant.html#a61ad89a11dde2836cc8d21565b694361" target="_top" xlink:title="Return int or zero on type mismatch. Floats and doubles are converted.">
<polygon fill="white" stroke="#666666" points="607,-617.62 491,-617.62 491,-598.62 607,-598.62 607,-617.62"/>
<text text-anchor="middle" x="549" y="-605.62" font-family="Roboto" font-size="10.00">Urho3D::Variant::GetInt</text>
</a>
</g>
</g>
<!-- Node13&#45;&gt;Node32 -->
<g id="edge22" class="edge">
<title>Node13&#45;&gt;Node32</title>
<path fill="none" stroke="#63b8ff" d="M411.1,-532.47C429.65,-548.46 460.68,-573.33 491,-589.12 494.43,-590.91 498.07,-592.58 501.78,-594.12"/>
<polygon fill="#63b8ff" stroke="#63b8ff" points="500.31,-597.31 510.9,-597.62 502.81,-590.77 500.31,-597.31"/>
</g>
<!-- Node33 -->
<g id="node18" class="node">
<title>Node33</title>
<g id="a_node18"><a xlink:href="class_urho3_d_1_1_x_m_l_element.html#ad7c2e67e5dfefddc309e1c809aa1ba74" target="_top" xlink:title=" ">
<polygon fill="#fff0f0" stroke="red" points="604.5,-580.12 493.5,-580.12 493.5,-550.12 604.5,-550.12 604.5,-580.12"/>
<text text-anchor="start" x="501.5" y="-568.12" font-family="Roboto" font-size="10.00">Urho3D::XMLElement</text>
<text text-anchor="middle" x="549" y="-557.12" font-family="Roboto" font-size="10.00">::IsNull</text>
</a>
</g>
</g>
<!-- Node13&#45;&gt;Node33 -->
<g id="edge24" class="edge">
<title>Node13&#45;&gt;Node33</title>
<path fill="none" stroke="#63b8ff" d="M443.57,-532.57C457.59,-536.94 473,-541.74 487.57,-546.28"/>
<polygon fill="#63b8ff" stroke="#63b8ff" points="486.49,-549.61 497.07,-549.25 488.57,-542.93 486.49,-549.61"/>
</g>
<!-- Node35 -->
<g id="node19" class="node">
<title>Node35</title>
<g id="a_node19"><a xlink:href="class_urho3_d_1_1_serializable.html#a18c5041e406e9df1ff04ac9b31733661" target="_top" xlink:title="Handle attribute read access. Default implementation reads the variable at offset,...">
<polygon fill="white" stroke="#666666" points="601.5,-532.12 496.5,-532.12 496.5,-502.12 601.5,-502.12 601.5,-532.12"/>
<text text-anchor="start" x="504.5" y="-520.12" font-family="Roboto" font-size="10.00">Urho3D::Serializable</text>
<text text-anchor="middle" x="549" y="-509.12" font-family="Roboto" font-size="10.00">::OnGetAttribute</text>
</a>
</g>
</g>
<!-- Node13&#45;&gt;Node35 -->
<g id="edge25" class="edge">
<title>Node13&#45;&gt;Node35</title>
<path fill="none" stroke="#63b8ff" d="M445.71,-517.12C458.28,-517.12 471.86,-517.12 484.89,-517.12"/>
<polygon fill="#63b8ff" stroke="#63b8ff" points="484.65,-520.62 494.65,-517.12 484.65,-513.62 484.65,-520.62"/>
</g>
<!-- Node36 -->
<g id="node20" class="node">
<title>Node36</title>
<g id="a_node20"><a xlink:href="class_urho3_d_1_1_serializable.html#a6b41d88d2fd2b8c6e67968820828faea" target="_top" xlink:title="Return whether should save default&#45;valued attributes into XML. Default false.">
<polygon fill="white" stroke="#666666" points="607,-484.12 491,-484.12 491,-454.12 607,-454.12 607,-484.12"/>
<text text-anchor="start" x="499" y="-472.12" font-family="Roboto" font-size="10.00">Urho3D::Serializable</text>
<text text-anchor="middle" x="549" y="-461.12" font-family="Roboto" font-size="10.00">::SaveDefaultAttributes</text>
</a>
</g>
</g>
<!-- Node13&#45;&gt;Node36 -->
<g id="edge26" class="edge">
<title>Node13&#45;&gt;Node36</title>
<path fill="none" stroke="#63b8ff" d="M443.57,-501.67C457.59,-497.3 473,-492.5 487.57,-487.95"/>
<polygon fill="#63b8ff" stroke="#63b8ff" points="488.57,-491.31 497.07,-484.99 486.49,-484.63 488.57,-491.31"/>
</g>
<!-- Node13&#45;&gt;Node37 -->
<g id="edge27" class="edge">
<title>Node13&#45;&gt;Node37</title>
<path fill="none" stroke="#63b8ff" d="M399.15,-502.07C410.62,-470.8 441.23,-398.41 491,-359.12 533.58,-325.5 561.17,-350.14 607,-321.12 626.66,-308.67 626.27,-299.29 643,-283.12 658.12,-268.51 675.73,-252.89 689.93,-240.62"/>
<polygon fill="#63b8ff" stroke="#63b8ff" points="691.82,-243.61 697.13,-234.44 687.26,-238.3 691.82,-243.61"/>
</g>
<!-- Node38 -->
<g id="node22" class="node">
<title>Node38</title>
<g id="a_node22"><a xlink:href="class_urho3_d_1_1_x_m_l_element.html#abcddcb142e2672f6ef1131cacdd907b1" target="_top" xlink:title="Set a variant attribute excluding the type.">
<polygon fill="#fff0f0" stroke="red" points="604.5,-398.12 493.5,-398.12 493.5,-368.12 604.5,-368.12 604.5,-398.12"/>
<text text-anchor="start" x="501.5" y="-386.12" font-family="Roboto" font-size="10.00">Urho3D::XMLElement</text>
<text text-anchor="middle" x="549" y="-375.12" font-family="Roboto" font-size="10.00">::SetVariantValue</text>
</a>
</g>
</g>
<!-- Node13&#45;&gt;Node38 -->
<g id="edge30" class="edge">
<title>Node13&#45;&gt;Node38</title>
<path fill="none" stroke="#63b8ff" d="M405.15,-501.98C421.89,-480.03 455.38,-439.08 491,-412.12 494.74,-409.29 498.79,-406.61 502.95,-404.1"/>
<polygon fill="#63b8ff" stroke="#63b8ff" points="504.45,-407.27 511.45,-399.32 501.02,-401.17 504.45,-407.27"/>
</g>
<!-- Node16&#45;&gt;Node14 -->
<g id="edge17" class="edge">
<title>Node16&#45;&gt;Node14</title>
<path fill="none" stroke="#63b8ff" d="M564.78,-673.86C595.61,-642.01 666.64,-568.63 699.39,-534.79"/>
<polygon fill="#63b8ff" stroke="#63b8ff" points="701.7,-537.44 706.14,-527.82 696.67,-532.57 701.7,-537.44"/>
</g>
<!-- Node16&#45;&gt;Node17 -->
<g id="edge18" class="edge">
<title>Node16&#45;&gt;Node17</title>
<path fill="none" stroke="#63b8ff" d="M586.13,-704.52C610.59,-714.96 643.14,-728.84 669.6,-740.12"/>
<polygon fill="#63b8ff" stroke="#63b8ff" points="668.19,-743.32 678.76,-744.03 670.94,-736.88 668.19,-743.32"/>
</g>
<!-- Node16&#45;&gt;Node29 -->
<g id="edge19" class="edge">
<title>Node16&#45;&gt;Node29</title>
<path fill="none" stroke="#63b8ff" d="M601.77,-691.92C611.2,-692.43 621.27,-692.97 631.37,-693.52"/>
<polygon fill="#63b8ff" stroke="#63b8ff" points="631.07,-697.01 641.25,-694.05 631.45,-690.02 631.07,-697.01"/>
</g>
<!-- Node16&#45;&gt;Node31 -->
<g id="edge20" class="edge">
<title>Node16&#45;&gt;Node31</title>
<path fill="none" stroke="#63b8ff" d="M601.77,-677.93C620.04,-673.98 640.68,-669.51 659.36,-665.47"/>
<polygon fill="#63b8ff" stroke="#63b8ff" points="659.89,-668.94 668.93,-663.4 658.41,-662.1 659.89,-668.94"/>
</g>
<!-- Node37&#45;&gt;Node3 -->
<g id="edge28" class="edge">
<title>Node37&#45;&gt;Node3</title>
<path fill="none" stroke="#63b8ff" d="M773.18,-227.94C787.66,-230.54 803.46,-233.38 818.51,-236.08"/>
<polygon fill="#63b8ff" stroke="#63b8ff" points="817.89,-239.53 828.35,-237.85 819.12,-232.64 817.89,-239.53"/>
</g>
<!-- Node37&#45;&gt;Node37 -->
<g id="edge29" class="edge">
<title>Node37&#45;&gt;Node37</title>
<path fill="none" stroke="#63b8ff" d="M687.88,-233.39C681.3,-242.53 691.17,-251.12 717.5,-251.12 731.9,-251.12 741.38,-248.55 745.93,-244.73"/>
<polygon fill="#63b8ff" stroke="#63b8ff" points="749.4,-245.21 746.96,-234.9 742.44,-244.48 749.4,-245.21"/>
</g>
<!-- Node38&#45;&gt;Node3 -->
<g id="edge31" class="edge">
<title>Node38&#45;&gt;Node3</title>
<path fill="none" stroke="#63b8ff" d="M588.49,-367.63C654.08,-341.24 786.59,-287.92 850.06,-262.38"/>
<polygon fill="#63b8ff" stroke="#63b8ff" points="851.34,-265.64 859.31,-258.66 848.72,-259.14 851.34,-265.64"/>
</g>
<!-- Node38&#45;&gt;Node37 -->
<g id="edge32" class="edge">
<title>Node38&#45;&gt;Node37</title>
<path fill="none" stroke="#63b8ff" d="M586.09,-367.68C593.37,-363.78 600.71,-359.23 607,-354.12 647,-321.65 682.15,-272.35 701.26,-242.88"/>
<polygon fill="#63b8ff" stroke="#63b8ff" points="704.1,-244.93 706.52,-234.62 698.2,-241.17 704.1,-244.93"/>
</g>
<!-- Node77&#45;&gt;Node2 -->
<g id="edge35" class="edge">
<title>Node77&#45;&gt;Node2</title>
<path fill="none" stroke="#63b8ff" d="M443.57,-246.57C457.59,-250.94 473,-255.74 487.57,-260.28"/>
<polygon fill="#63b8ff" stroke="#63b8ff" points="486.49,-263.61 497.07,-263.25 488.57,-256.93 486.49,-263.61"/>
</g>
<!-- Node77&#45;&gt;Node37 -->
<g id="edge36" class="edge">
<title>Node77&#45;&gt;Node37</title>
<path fill="none" stroke="#63b8ff" d="M455.42,-228.64C511.16,-226.4 593.13,-223.09 650.31,-220.79"/>
<polygon fill="#63b8ff" stroke="#63b8ff" points="650.39,-224.29 660.24,-220.39 650.11,-217.29 650.39,-224.29"/>
</g>
<!-- Node77&#45;&gt;Node78 -->
<g id="edge37" class="edge">
<title>Node77&#45;&gt;Node78</title>
<path fill="none" stroke="#63b8ff" d="M455.31,-215.99C464.15,-213.81 473.29,-211.55 482.22,-209.35"/>
<polygon fill="#63b8ff" stroke="#63b8ff" points="483.04,-212.75 491.91,-206.96 481.37,-205.96 483.04,-212.75"/>
</g>
<!-- Node78&#45;&gt;Node37 -->
<g id="edge38" class="edge">
<title>Node78&#45;&gt;Node37</title>
<path fill="none" stroke="#63b8ff" d="M604.98,-201.37C619.47,-203.55 635.26,-205.92 650.28,-208.18"/>
<polygon fill="#63b8ff" stroke="#63b8ff" points="649.67,-211.62 660.08,-209.65 650.71,-204.7 649.67,-211.62"/>
</g>
<!-- Node80&#45;&gt;Node37 -->
<g id="edge42" class="edge">
<title>Node80&#45;&gt;Node37</title>
<path fill="none" stroke="#63b8ff" d="M273.74,-30.63C348.47,-7.68 500.96,26.42 607,-35.12 634.89,-51.31 626.58,-70.37 643,-98.12 662.6,-131.23 685.9,-169.02 700.93,-193.2"/>
<polygon fill="#63b8ff" stroke="#63b8ff" points="697.78,-194.75 706.03,-201.39 703.72,-191.05 697.78,-194.75"/>
</g>
</g>
</svg>
