<?xml version="1.0" encoding="UTF-8" standalone="no"?>
<!DOCTYPE svg PUBLIC "-//W3C//DTD SVG 1.1//EN"
 "http://www.w3.org/Graphics/SVG/1.1/DTD/svg11.dtd">
<!-- Generated by graphviz version 7.0.3 (0)
 -->
<!-- Title: Urho3D::Drawable::OnSetEnabled Pages: 1 -->
<svg width="365pt" height="172pt"
 viewBox="0.00 0.00 365.00 171.50" xmlns="http://www.w3.org/2000/svg" xmlns:xlink="http://www.w3.org/1999/xlink">
<g id="graph0" class="graph" transform="scale(1 1) rotate(0) translate(4 167.5)">
<title>Urho3D::Drawable::OnSetEnabled</title>
<!-- Node1 -->
<g id="node1" class="node">
<title>Node1</title>
<g id="a_node1"><a xlink:title="Handle enabled/disabled state change.">
<polygon fill="#999999" stroke="#666666" points="357,-96.5 196,-96.5 196,-77.5 357,-77.5 357,-96.5"/>
<text text-anchor="middle" x="276.5" y="-84.5" font-family="Roboto" font-size="10.00">Urho3D::Drawable::OnSetEnabled</text>
</a>
</g>
</g>
<!-- Node2 -->
<g id="node2" class="node">
<title>Node2</title>
<g id="a_node2"><a xlink:href="class_urho3_d_1_1_decal_set.html#a1371572adf3c0894e4795331ac921c03" target="_top" xlink:title="Handle enabled/disabled state change.">
<polygon fill="white" stroke="#666666" points="160,-163.5 0,-163.5 0,-144.5 160,-144.5 160,-163.5"/>
<text text-anchor="middle" x="80" y="-151.5" font-family="Roboto" font-size="10.00">Urho3D::DecalSet::OnSetEnabled</text>
</a>
</g>
</g>
<!-- Node1&#45;&gt;Node2 -->
<g id="edge1" class="edge">
<title>Node1&#45;&gt;Node2</title>
<path fill="none" stroke="#63b8ff" d="M244.11,-101.63C221.16,-111.93 189.1,-125.52 160,-135 149.67,-138.36 138.41,-141.42 127.71,-144.06"/>
<polygon fill="#63b8ff" stroke="#63b8ff" points="245.56,-104.82 253.21,-97.49 242.66,-98.44 245.56,-104.82"/>
</g>
<!-- Node3 -->
<g id="node3" class="node">
<title>Node3</title>
<g id="a_node3"><a xlink:href="class_urho3_d_1_1_particle_emitter.html#a02e92fa2d7a1ae2250dfc62e7690dab0" target="_top" xlink:title="Handle enabled/disabled state change.">
<polygon fill="white" stroke="#666666" points="140,-126 20,-126 20,-96 140,-96 140,-126"/>
<text text-anchor="start" x="28" y="-114" font-family="Roboto" font-size="10.00">Urho3D::ParticleEmitter</text>
<text text-anchor="middle" x="80" y="-103" font-family="Roboto" font-size="10.00">::OnSetEnabled</text>
</a>
</g>
</g>
<!-- Node1&#45;&gt;Node3 -->
<g id="edge2" class="edge">
<title>Node1&#45;&gt;Node3</title>
<path fill="none" stroke="#63b8ff" d="M184.23,-98.26C169.35,-100.1 154.28,-101.96 140.42,-103.67"/>
<polygon fill="#63b8ff" stroke="#63b8ff" points="184.55,-101.75 194.05,-97.05 183.69,-94.8 184.55,-101.75"/>
</g>
<!-- Node4 -->
<g id="node4" class="node">
<title>Node4</title>
<g id="a_node4"><a xlink:href="class_urho3_d_1_1_ribbon_trail.html#ad528c577d774550e285139ff929eb59f" target="_top" xlink:title="Handle enabled/disabled state change.">
<polygon fill="white" stroke="#666666" points="131.5,-78 28.5,-78 28.5,-48 131.5,-48 131.5,-78"/>
<text text-anchor="start" x="36.5" y="-66" font-family="Roboto" font-size="10.00">Urho3D::RibbonTrail</text>
<text text-anchor="middle" x="80" y="-55" font-family="Roboto" font-size="10.00">::OnSetEnabled</text>
</a>
</g>
</g>
<!-- Node1&#45;&gt;Node4 -->
<g id="edge3" class="edge">
<title>Node1&#45;&gt;Node4</title>
<path fill="none" stroke="#63b8ff" d="M184.14,-75.73C166.21,-73.51 148.01,-71.27 131.99,-69.29"/>
<polygon fill="#63b8ff" stroke="#63b8ff" points="183.69,-79.2 194.05,-76.95 184.55,-72.25 183.69,-79.2"/>
</g>
<!-- Node5 -->
<g id="node5" class="node">
<title>Node5</title>
<g id="a_node5"><a xlink:href="class_urho3_d_1_1_animated_sprite2_d.html#a64ed9baed42a39436bd1904fa0716847" target="_top" xlink:title="Handle enabled/disabled state change.">
<polygon fill="white" stroke="#666666" points="147.5,-30 12.5,-30 12.5,0 147.5,0 147.5,-30"/>
<text text-anchor="start" x="20.5" y="-18" font-family="Roboto" font-size="10.00">Urho3D::AnimatedSprite2D</text>
<text text-anchor="middle" x="80" y="-7" font-family="Roboto" font-size="10.00">::OnSetEnabled</text>
</a>
</g>
</g>
<!-- Node1&#45;&gt;Node5 -->
<g id="edge4" class="edge">
<title>Node1&#45;&gt;Node5</title>
<path fill="none" stroke="#63b8ff" d="M243.09,-72.52C220.12,-62.51 188.46,-49.21 160,-39 151.77,-36.05 142.98,-33.14 134.35,-30.42"/>
<polygon fill="#63b8ff" stroke="#63b8ff" points="241.66,-75.72 252.23,-76.53 244.48,-69.31 241.66,-75.72"/>
</g>
</g>
</svg>
