<?xml version="1.0" encoding="UTF-8" standalone="no"?>
<!DOCTYPE svg PUBLIC "-//W3C//DTD SVG 1.1//EN"
 "http://www.w3.org/Graphics/SVG/1.1/DTD/svg11.dtd">
<!-- Generated by graphviz version 7.0.3 (0)
 -->
<!-- Title: Urho3D::XMLElement Pages: 1 -->
<svg width="1604pt" height="935pt"
 viewBox="0.00 0.00 1604.00 934.97" xmlns="http://www.w3.org/2000/svg" xmlns:xlink="http://www.w3.org/1999/xlink">
<g id="graph0" class="graph" transform="scale(1 1) rotate(0) translate(4 930.97)">
<title>Urho3D::XMLElement</title>
<!-- Node1 -->
<g id="node1" class="node">
<title>Node1</title>
<g id="a_node1"><a xlink:title="Element in an XML file.">
<polygon fill="#999999" stroke="#666666" points="1596,-839.97 1485,-839.97 1485,-820.97 1596,-820.97 1596,-839.97"/>
<text text-anchor="middle" x="1540.5" y="-827.97" font-family="Roboto" font-size="10.00">Urho3D::XMLElement</text>
</a>
</g>
</g>
<!-- Node1&#45;&gt;Node1 -->
<g id="edge1" class="edge">
<title>Node1&#45;&gt;Node1</title>
<path fill="none" stroke="#9a32cd" stroke-dasharray="5,2" d="M1520.98,-851.4C1523.42,-855.26 1529.93,-857.97 1540.5,-857.97 1559.84,-857.97 1565.58,-848.9 1557.72,-840.34"/>
<polygon fill="#9a32cd" stroke="#9a32cd" points="1524.36,-852.32 1522.97,-841.82 1517.51,-850.9 1524.36,-852.32"/>
<text text-anchor="middle" x="1540.5" y="-860.97" font-family="Roboto" font-size="10.00"> EMPTY</text>
</g>
<!-- Node2 -->
<g id="node2" class="node">
<title>Node2</title>
<g id="a_node2"><a xlink:href="class_urho3_d_1_1_weak_ptr.html" target="_top" xlink:title=" ">
<polygon fill="white" stroke="#666666" points="1198,-845.47 1064,-845.47 1064,-815.47 1198,-815.47 1198,-845.47"/>
<text text-anchor="start" x="1072" y="-833.47" font-family="Roboto" font-size="10.00">Urho3D::WeakPtr&lt; Urho3D</text>
<text text-anchor="middle" x="1131" y="-822.47" font-family="Roboto" font-size="10.00">::XMLFile &gt;</text>
</a>
</g>
</g>
<!-- Node2&#45;&gt;Node1 -->
<g id="edge2" class="edge">
<title>Node2&#45;&gt;Node1</title>
<path fill="none" stroke="#9a32cd" stroke-dasharray="5,2" d="M1209.79,-834.27C1211.88,-834.34 1213.95,-834.41 1216,-834.47 1327.51,-837.75 1355.54,-841.07 1467,-836.47 1472.68,-836.23 1478.6,-835.9 1484.51,-835.5"/>
<polygon fill="#9a32cd" stroke="#9a32cd" points="1210.11,-830.78 1199.99,-833.91 1209.85,-837.78 1210.11,-830.78"/>
<text text-anchor="middle" x="1315" y="-841.47" font-family="Roboto" font-size="10.00"> file_</text>
</g>
<!-- Node30 -->
<g id="node25" class="node">
<title>Node30</title>
<g id="a_node25"><a xlink:href="class_urho3_d_1_1_x_path_result_set.html" target="_top" xlink:title="XPath query result set.">
<polygon fill="white" stroke="#666666" points="1376,-816.97 1254,-816.97 1254,-797.97 1376,-797.97 1376,-816.97"/>
<text text-anchor="middle" x="1315" y="-804.97" font-family="Roboto" font-size="10.00">Urho3D::XPathResultSet</text>
</a>
</g>
</g>
<!-- Node2&#45;&gt;Node30 -->
<g id="edge39" class="edge">
<title>Node2&#45;&gt;Node30</title>
<path fill="none" stroke="#9a32cd" stroke-dasharray="5,2" d="M1209.64,-820.66C1224.39,-818.79 1239.62,-816.87 1253.73,-815.08"/>
<polygon fill="#9a32cd" stroke="#9a32cd" points="1209.46,-817.15 1199.98,-821.88 1210.34,-824.1 1209.46,-817.15"/>
<text text-anchor="middle" x="1226" y="-822.47" font-family="Roboto" font-size="10.00"> file_</text>
</g>
<!-- Node3 -->
<g id="node3" class="node">
<title>Node3</title>
<g id="a_node3"><a xlink:href="class_urho3_d_1_1_x_m_l_file.html" target="_top" xlink:title="XML document resource.">
<polygon fill="white" stroke="#666666" points="990,-860.97 900,-860.97 900,-841.97 990,-841.97 990,-860.97"/>
<text text-anchor="middle" x="945" y="-848.97" font-family="Roboto" font-size="10.00">Urho3D::XMLFile</text>
</a>
</g>
</g>
<!-- Node3&#45;&gt;Node2 -->
<g id="edge3" class="edge">
<title>Node3&#45;&gt;Node2</title>
<path fill="none" stroke="#9a32cd" stroke-dasharray="5,2" d="M1001.28,-845.16C1020.9,-842.92 1043.18,-840.38 1063.62,-838.04"/>
<polygon fill="#9a32cd" stroke="#9a32cd" points="1001.11,-841.66 991.58,-846.27 1001.91,-848.61 1001.11,-841.66"/>
<text text-anchor="middle" x="1036.5" y="-844.47" font-family="Roboto" font-size="10.00"> ptr_</text>
</g>
<!-- Node4 -->
<g id="node4" class="node">
<title>Node4</title>
<g id="a_node4"><a xlink:href="class_urho3_d_1_1_resource.html" target="_top" xlink:title=" ">
<polygon fill="white" stroke="#666666" points="675.5,-860.97 579.5,-860.97 579.5,-841.97 675.5,-841.97 675.5,-860.97"/>
<text text-anchor="middle" x="627.5" y="-848.97" font-family="Roboto" font-size="10.00">Urho3D::Resource</text>
</a>
</g>
</g>
<!-- Node4&#45;&gt;Node3 -->
<g id="edge4" class="edge">
<title>Node4&#45;&gt;Node3</title>
<path fill="none" stroke="#63b8ff" d="M687.18,-851.47C748.69,-851.47 843.93,-851.47 899.51,-851.47"/>
<polygon fill="#63b8ff" stroke="#63b8ff" points="687.25,-847.97 677.25,-851.47 687.25,-854.97 687.25,-847.97"/>
</g>
<!-- Node5 -->
<g id="node5" class="node">
<title>Node5</title>
<g id="a_node5"><a xlink:href="class_urho3_d_1_1_object.html" target="_top" xlink:title=" ">
<polygon fill="white" stroke="#666666" points="415.5,-667.97 332.5,-667.97 332.5,-648.97 415.5,-648.97 415.5,-667.97"/>
<text text-anchor="middle" x="374" y="-655.97" font-family="Roboto" font-size="10.00">Urho3D::Object</text>
</a>
</g>
</g>
<!-- Node5&#45;&gt;Node4 -->
<g id="edge5" class="edge">
<title>Node5&#45;&gt;Node4</title>
<path fill="none" stroke="#63b8ff" d="M391.4,-676.72C409.87,-697.15 438.07,-728 444,-732.47 465.91,-748.97 475.55,-746.24 499,-760.47 542.94,-787.13 591.5,-824.03 613.9,-841.51"/>
<polygon fill="#63b8ff" stroke="#63b8ff" points="394.03,-674.4 384.73,-669.32 388.83,-679.09 394.03,-674.4"/>
</g>
<!-- Node21 -->
<g id="node17" class="node">
<title>Node21</title>
<g id="a_node17"><a xlink:href="class_urho3_d_1_1_event_handler.html" target="_top" xlink:title="Internal helper class for invoking event handler functions.">
<polygon fill="#fff0f0" stroke="red" points="684,-704.97 571,-704.97 571,-685.97 684,-685.97 684,-704.97"/>
<text text-anchor="middle" x="627.5" y="-692.97" font-family="Roboto" font-size="10.00">Urho3D::EventHandler</text>
</a>
</g>
</g>
<!-- Node5&#45;&gt;Node21 -->
<g id="edge23" class="edge">
<title>Node5&#45;&gt;Node21</title>
<path fill="none" stroke="#9a32cd" stroke-dasharray="5,2" d="M426.98,-665.97C449.17,-669.18 475.36,-672.99 499,-676.47 522.47,-679.92 548.36,-683.77 570.65,-687.1"/>
<polygon fill="#9a32cd" stroke="#9a32cd" points="427.67,-662.53 417.27,-664.56 426.67,-669.46 427.67,-662.53"/>
<text text-anchor="middle" x="471.5" y="-690.47" font-family="Roboto" font-size="10.00"> receiver_</text>
<text text-anchor="middle" x="471.5" y="-679.47" font-family="Roboto" font-size="10.00">sender_</text>
</g>
<!-- Node6 -->
<g id="node6" class="node">
<title>Node6</title>
<g id="a_node6"><a xlink:href="class_urho3_d_1_1_ref_counted.html" target="_top" xlink:title="Base class for intrusively reference&#45;counted objects. These are noncopyable and non&#45;assignable.">
<polygon fill="white" stroke="#666666" points="285,-667.97 178,-667.97 178,-648.97 285,-648.97 285,-667.97"/>
<text text-anchor="middle" x="231.5" y="-655.97" font-family="Roboto" font-size="10.00">Urho3D::RefCounted</text>
</a>
</g>
</g>
<!-- Node6&#45;&gt;Node5 -->
<g id="edge6" class="edge">
<title>Node6&#45;&gt;Node5</title>
<path fill="none" stroke="#63b8ff" d="M296.7,-658.47C308.8,-658.47 321.15,-658.47 332.28,-658.47"/>
<polygon fill="#63b8ff" stroke="#63b8ff" points="296.73,-654.97 286.73,-658.47 296.73,-661.97 296.73,-654.97"/>
</g>
<!-- Node8 -->
<g id="node8" class="node">
<title>Node8</title>
<g id="a_node8"><a xlink:href="class_urho3_d_1_1_context.html" target="_top" xlink:title="Urho3D execution context. Provides access to subsystems, object factories and attributes,...">
<polygon fill="white" stroke="#666666" points="989.5,-326.97 900.5,-326.97 900.5,-307.97 989.5,-307.97 989.5,-326.97"/>
<text text-anchor="middle" x="945" y="-314.97" font-family="Roboto" font-size="10.00">Urho3D::Context</text>
</a>
</g>
</g>
<!-- Node6&#45;&gt;Node8 -->
<g id="edge9" class="edge">
<title>Node6&#45;&gt;Node8</title>
<path fill="none" stroke="#63b8ff" d="M233.2,-637.47C237.75,-541.03 271.36,-141.11 517,-45.47 660.84,10.53 749.19,28.8 863,-75.47 934.38,-140.86 942.92,-270.92 943.89,-307.62"/>
<polygon fill="#63b8ff" stroke="#63b8ff" points="229.71,-637.14 232.8,-647.28 236.71,-637.43 229.71,-637.14"/>
</g>
<!-- Node7 -->
<g id="node7" class="node">
<title>Node7</title>
<g id="a_node7"><a xlink:href="struct_urho3_d_1_1_ref_count.html" target="_top" xlink:title="Reference count structure.">
<polygon fill="white" stroke="#666666" points="96,-788.97 0,-788.97 0,-769.97 96,-769.97 96,-788.97"/>
<text text-anchor="middle" x="48" y="-776.97" font-family="Roboto" font-size="10.00">Urho3D::RefCount</text>
</a>
</g>
</g>
<!-- Node7&#45;&gt;Node2 -->
<g id="edge37" class="edge">
<title>Node7&#45;&gt;Node2</title>
<path fill="none" stroke="#9a32cd" stroke-dasharray="5,2" d="M92.53,-792.31C129.03,-801.94 182.71,-813.47 230.5,-813.47 230.5,-813.47 230.5,-813.47 946,-813.47 985.14,-813.47 1028.76,-817.33 1063.71,-821.37"/>
<polygon fill="#9a32cd" stroke="#9a32cd" points="93.8,-789.03 83.23,-789.79 91.97,-795.78 93.8,-789.03"/>
<text text-anchor="middle" x="471.5" y="-816.47" font-family="Roboto" font-size="10.00"> refCount_</text>
</g>
<!-- Node7&#45;&gt;Node6 -->
<g id="edge7" class="edge">
<title>Node7&#45;&gt;Node6</title>
<path fill="none" stroke="#9a32cd" stroke-dasharray="5,2" d="M73.19,-763.34C111.36,-737.89 184.42,-689.19 215.7,-668.34"/>
<polygon fill="#9a32cd" stroke="#9a32cd" points="71.49,-760.27 65.11,-768.73 75.37,-766.09 71.49,-760.27"/>
<text text-anchor="middle" x="137" y="-735.47" font-family="Roboto" font-size="10.00"> refCount_</text>
</g>
<!-- Node8&#45;&gt;Node5 -->
<g id="edge8" class="edge">
<title>Node8&#45;&gt;Node5</title>
<path fill="none" stroke="#9a32cd" stroke-dasharray="5,2" d="M941.11,-338.75C934.54,-379.28 914.79,-468.08 863,-519.47 820.64,-561.5 794.86,-550.36 738,-568.47 622.93,-605.12 483.44,-636.02 415.77,-650.18"/>
<polygon fill="#9a32cd" stroke="#9a32cd" points="944.57,-339.3 942.59,-328.89 937.65,-338.27 944.57,-339.3"/>
<text text-anchor="middle" x="627.5" y="-629.47" font-family="Roboto" font-size="10.00"> context_</text>
</g>
<!-- Node9 -->
<g id="node9" class="node">
<title>Node9</title>
<g id="a_node9"><a xlink:href="class_urho3_d_1_1_hash_map.html" target="_top" xlink:title=" ">
<polygon fill="white" stroke="#666666" points="718.5,-310.97 536.5,-310.97 536.5,-269.97 718.5,-269.97 718.5,-310.97"/>
<text text-anchor="start" x="544.5" y="-298.97" font-family="Roboto" font-size="10.00">Urho3D::HashMap&lt; Urho3D</text>
<text text-anchor="start" x="544.5" y="-287.97" font-family="Roboto" font-size="10.00">::StringHash, Urho3D::</text>
<text text-anchor="middle" x="627.5" y="-276.97" font-family="Roboto" font-size="10.00">SharedPtr&lt; Urho3D::ObjectFactory &gt; &gt;</text>
</a>
</g>
</g>
<!-- Node9&#45;&gt;Node8 -->
<g id="edge10" class="edge">
<title>Node9&#45;&gt;Node8</title>
<path fill="none" stroke="#9a32cd" stroke-dasharray="5,2" d="M730.26,-295.93C771.52,-298.52 819.58,-302.04 863,-306.47 875.14,-307.71 888.27,-309.35 900.34,-311"/>
<polygon fill="#9a32cd" stroke="#9a32cd" points="730.53,-292.43 720.33,-295.31 730.09,-299.42 730.53,-292.43"/>
<text text-anchor="middle" x="809.5" y="-309.47" font-family="Roboto" font-size="10.00"> factories_</text>
</g>
<!-- Node10 -->
<g id="node10" class="node">
<title>Node10</title>
<g id="a_node10"><a xlink:href="class_urho3_d_1_1_hash_base.html" target="_top" xlink:title="Hash set/map base class.">
<polygon fill="#fff0f0" stroke="red" points="424,-353.97 324,-353.97 324,-334.97 424,-334.97 424,-353.97"/>
<text text-anchor="middle" x="374" y="-341.97" font-family="Roboto" font-size="10.00">Urho3D::HashBase</text>
</a>
</g>
</g>
<!-- Node10&#45;&gt;Node9 -->
<g id="edge11" class="edge">
<title>Node10&#45;&gt;Node9</title>
<path fill="none" stroke="#63b8ff" d="M432.34,-332.16C463,-325.57 501.46,-317.32 536.05,-309.89"/>
<polygon fill="#63b8ff" stroke="#63b8ff" points="431.94,-328.66 422.9,-334.18 433.41,-335.51 431.94,-328.66"/>
</g>
<!-- Node14 -->
<g id="node11" class="node">
<title>Node14</title>
<g id="a_node11"><a xlink:href="class_urho3_d_1_1_hash_map.html" target="_top" xlink:title=" ">
<polygon fill="white" stroke="#666666" points="702,-154.97 553,-154.97 553,-113.97 702,-113.97 702,-154.97"/>
<text text-anchor="start" x="561" y="-142.97" font-family="Roboto" font-size="10.00">Urho3D::HashMap&lt; Urho3D</text>
<text text-anchor="start" x="561" y="-131.97" font-family="Roboto" font-size="10.00">::StringHash, Urho3D::</text>
<text text-anchor="middle" x="627.5" y="-120.97" font-family="Roboto" font-size="10.00">SharedPtr&lt; Urho3D::Object &gt; &gt;</text>
</a>
</g>
</g>
<!-- Node10&#45;&gt;Node14 -->
<g id="edge13" class="edge">
<title>Node10&#45;&gt;Node14</title>
<path fill="none" stroke="#63b8ff" d="M385.2,-324.33C405.21,-286.93 453.25,-206.71 517,-164.47 527.76,-157.34 540.19,-151.89 552.72,-147.74"/>
<polygon fill="#63b8ff" stroke="#63b8ff" points="382.13,-322.65 380.61,-333.13 388.34,-325.89 382.13,-322.65"/>
</g>
<!-- Node15 -->
<g id="node12" class="node">
<title>Node15</title>
<g id="a_node12"><a xlink:href="class_urho3_d_1_1_hash_map.html" target="_top" xlink:title=" ">
<polygon fill="white" stroke="#666666" points="708.5,-95.97 546.5,-95.97 546.5,-54.97 708.5,-54.97 708.5,-95.97"/>
<text text-anchor="start" x="554.5" y="-83.97" font-family="Roboto" font-size="10.00">Urho3D::HashMap&lt; Urho3D</text>
<text text-anchor="start" x="554.5" y="-72.97" font-family="Roboto" font-size="10.00">::StringHash, Urho3D::</text>
<text text-anchor="middle" x="627.5" y="-61.97" font-family="Roboto" font-size="10.00">Vector&lt; Urho3D::AttributeInfo &gt; &gt;</text>
</a>
</g>
</g>
<!-- Node10&#45;&gt;Node15 -->
<g id="edge15" class="edge">
<title>Node10&#45;&gt;Node15</title>
<path fill="none" stroke="#63b8ff" d="M380.5,-323.59C389.91,-290.28 411.31,-223.93 444,-175.47 469.31,-137.95 477.62,-126.77 517,-104.47 526.07,-99.33 536.08,-95.08 546.25,-91.57"/>
<polygon fill="#63b8ff" stroke="#63b8ff" points="377.14,-322.61 377.88,-333.18 383.89,-324.45 377.14,-322.61"/>
</g>
<!-- Node16 -->
<g id="node13" class="node">
<title>Node16</title>
<g id="a_node13"><a xlink:href="class_urho3_d_1_1_hash_map.html" target="_top" xlink:title=" ">
<polygon fill="white" stroke="#666666" points="711,-559.47 544,-559.47 544,-507.47 711,-507.47 711,-559.47"/>
<text text-anchor="start" x="552" y="-547.47" font-family="Roboto" font-size="10.00">Urho3D::HashMap&lt; Urho3D</text>
<text text-anchor="start" x="552" y="-536.47" font-family="Roboto" font-size="10.00">::StringHash, Urho3D::</text>
<text text-anchor="start" x="552" y="-525.47" font-family="Roboto" font-size="10.00">SharedPtr&lt; Urho3D::EventReceiver</text>
<text text-anchor="middle" x="627.5" y="-514.47" font-family="Roboto" font-size="10.00">Group &gt; &gt;</text>
</a>
</g>
</g>
<!-- Node10&#45;&gt;Node16 -->
<g id="edge17" class="edge">
<title>Node10&#45;&gt;Node16</title>
<path fill="none" stroke="#63b8ff" d="M387.64,-363.67C409.96,-396.11 459.45,-461.77 517,-498.47 525.25,-503.73 534.35,-508.25 543.67,-512.14"/>
<polygon fill="#63b8ff" stroke="#63b8ff" points="390.72,-361.98 382.22,-355.65 384.92,-365.89 390.72,-361.98"/>
</g>
<!-- Node17 -->
<g id="node14" class="node">
<title>Node17</title>
<g id="a_node14"><a xlink:href="class_urho3_d_1_1_hash_map.html" target="_top" xlink:title=" ">
<polygon fill="white" stroke="#666666" points="738,-489.47 517,-489.47 517,-437.47 738,-437.47 738,-489.47"/>
<text text-anchor="start" x="525" y="-477.47" font-family="Roboto" font-size="10.00">Urho3D::HashMap&lt; Urho3D</text>
<text text-anchor="start" x="525" y="-466.47" font-family="Roboto" font-size="10.00">::Object *, Urho3D::HashMap</text>
<text text-anchor="start" x="525" y="-455.47" font-family="Roboto" font-size="10.00">&lt; Urho3D::StringHash, Urho3D</text>
<text text-anchor="middle" x="627.5" y="-444.47" font-family="Roboto" font-size="10.00">::SharedPtr&lt; Urho3D::EventReceiverGroup &gt; &gt; &gt;</text>
</a>
</g>
</g>
<!-- Node10&#45;&gt;Node17 -->
<g id="edge19" class="edge">
<title>Node10&#45;&gt;Node17</title>
<path fill="none" stroke="#63b8ff" d="M398.94,-360.58C426.51,-378.63 473.6,-407.92 517,-427.47 524.48,-430.84 532.37,-434.05 540.36,-437.07"/>
<polygon fill="#63b8ff" stroke="#63b8ff" points="400.91,-357.69 390.64,-355.09 397.05,-363.53 400.91,-357.69"/>
</g>
<!-- Node24 -->
<g id="node19" class="node">
<title>Node24</title>
<g id="a_node19"><a xlink:href="class_urho3_d_1_1_hash_map.html" target="_top" xlink:title=" ">
<polygon fill="white" stroke="#666666" points="697,-418.97 558,-418.97 558,-377.97 697,-377.97 697,-418.97"/>
<text text-anchor="start" x="566" y="-406.97" font-family="Roboto" font-size="10.00">Urho3D::HashMap&lt; Urho3D</text>
<text text-anchor="start" x="566" y="-395.97" font-family="Roboto" font-size="10.00">::String, Urho3D::Vector</text>
<text text-anchor="middle" x="627.5" y="-384.97" font-family="Roboto" font-size="10.00">&lt; Urho3D::StringHash &gt; &gt;</text>
</a>
</g>
</g>
<!-- Node10&#45;&gt;Node24 -->
<g id="edge27" class="edge">
<title>Node10&#45;&gt;Node24</title>
<path fill="none" stroke="#63b8ff" d="M432.57,-356.83C469.75,-364.81 518.33,-375.24 557.57,-383.67"/>
<polygon fill="#63b8ff" stroke="#63b8ff" points="433.41,-353.43 422.9,-354.75 431.94,-360.28 433.41,-353.43"/>
</g>
<!-- Node25 -->
<g id="node20" class="node">
<title>Node25</title>
<g id="a_node20"><a xlink:href="class_urho3_d_1_1_hash_map.html" target="_top" xlink:title=" ">
<polygon fill="white" stroke="#666666" points="705.5,-359.47 549.5,-359.47 549.5,-329.47 705.5,-329.47 705.5,-359.47"/>
<text text-anchor="start" x="557.5" y="-347.47" font-family="Roboto" font-size="10.00">Urho3D::HashMap&lt; StringHash,</text>
<text text-anchor="middle" x="627.5" y="-336.47" font-family="Roboto" font-size="10.00"> Variant &gt;</text>
</a>
</g>
</g>
<!-- Node10&#45;&gt;Node25 -->
<g id="edge29" class="edge">
<title>Node10&#45;&gt;Node25</title>
<path fill="none" stroke="#63b8ff" d="M435.58,-344.47C469.64,-344.47 512.52,-344.47 549.01,-344.47"/>
<polygon fill="#63b8ff" stroke="#63b8ff" points="435.9,-340.97 425.9,-344.47 435.9,-347.97 435.9,-340.97"/>
</g>
<!-- Node14&#45;&gt;Node8 -->
<g id="edge12" class="edge">
<title>Node14&#45;&gt;Node8</title>
<path fill="none" stroke="#9a32cd" stroke-dasharray="5,2" d="M713.52,-139.71C761.13,-146.21 819.48,-160.47 863,-191.47 906.21,-222.25 931.99,-283.98 940.68,-307.79"/>
<polygon fill="#9a32cd" stroke="#9a32cd" points="714.15,-136.26 703.79,-138.48 713.27,-143.2 714.15,-136.26"/>
<text text-anchor="middle" x="809.5" y="-194.47" font-family="Roboto" font-size="10.00"> subsystems_</text>
</g>
<!-- Node15&#45;&gt;Node8 -->
<g id="edge14" class="edge">
<title>Node15&#45;&gt;Node8</title>
<path fill="none" stroke="#9a32cd" stroke-dasharray="5,2" d="M719.98,-74.52C767.32,-78.52 823.34,-90.83 863,-123.47 923.31,-173.1 939.39,-275.32 943.04,-307.52"/>
<polygon fill="#9a32cd" stroke="#9a32cd" points="720.51,-71.04 710.28,-73.82 720,-78.03 720.51,-71.04"/>
<text text-anchor="middle" x="809.5" y="-137.47" font-family="Roboto" font-size="10.00"> attributes_</text>
<text text-anchor="middle" x="809.5" y="-126.47" font-family="Roboto" font-size="10.00">networkAttributes_</text>
</g>
<!-- Node16&#45;&gt;Node8 -->
<g id="edge16" class="edge">
<title>Node16&#45;&gt;Node8</title>
<path fill="none" stroke="#9a32cd" stroke-dasharray="5,2" d="M722.37,-515.48C768.68,-502.86 823.02,-482.06 863,-448.47 904.76,-413.38 931.4,-351.03 940.5,-327.14"/>
<polygon fill="#9a32cd" stroke="#9a32cd" points="721.65,-512.05 712.86,-517.97 723.42,-518.82 721.65,-512.05"/>
<text text-anchor="middle" x="809.5" y="-507.47" font-family="Roboto" font-size="10.00"> eventReceivers_</text>
</g>
<!-- Node17&#45;&gt;Node8 -->
<g id="edge18" class="edge">
<title>Node17&#45;&gt;Node8</title>
<path fill="none" stroke="#9a32cd" stroke-dasharray="5,2" d="M748.98,-436C786.88,-424.63 827.96,-409.35 863,-389.47 893.11,-372.38 921.78,-342.66 935.53,-327.3"/>
<polygon fill="#9a32cd" stroke="#9a32cd" points="748.45,-432.51 739.84,-438.68 750.42,-439.23 748.45,-432.51"/>
<text text-anchor="middle" x="809.5" y="-436.47" font-family="Roboto" font-size="10.00"> specificEventReceivers_</text>
</g>
<!-- Node18 -->
<g id="node15" class="node">
<title>Node18</title>
<g id="a_node15"><a xlink:href="class_urho3_d_1_1_p_o_d_vector.html" target="_top" xlink:title=" ">
<polygon fill="white" stroke="orangered" points="682,-203.47 573,-203.47 573,-173.47 682,-173.47 682,-203.47"/>
<text text-anchor="start" x="581" y="-191.47" font-family="Roboto" font-size="10.00">Urho3D::PODVector&lt;</text>
<text text-anchor="middle" x="627.5" y="-180.47" font-family="Roboto" font-size="10.00"> Urho3D::Object * &gt;</text>
</a>
</g>
</g>
<!-- Node18&#45;&gt;Node8 -->
<g id="edge20" class="edge">
<title>Node18&#45;&gt;Node8</title>
<path fill="none" stroke="#9a32cd" stroke-dasharray="5,2" d="M693.44,-194.52C742.39,-201.2 809.93,-215.05 863,-243.47 894.23,-260.19 922.84,-291.68 936.15,-307.65"/>
<polygon fill="#9a32cd" stroke="#9a32cd" points="693.91,-191.05 683.54,-193.24 693.01,-197.99 693.91,-191.05"/>
<text text-anchor="middle" x="809.5" y="-246.47" font-family="Roboto" font-size="10.00"> eventSenders_</text>
</g>
<!-- Node20 -->
<g id="node16" class="node">
<title>Node20</title>
<g id="a_node16"><a xlink:href="class_urho3_d_1_1_p_o_d_vector.html" target="_top" xlink:title=" ">
<polygon fill="white" stroke="orangered" points="684.5,-251.47 570.5,-251.47 570.5,-221.47 684.5,-221.47 684.5,-251.47"/>
<text text-anchor="start" x="578.5" y="-239.47" font-family="Roboto" font-size="10.00">Urho3D::PODVector&lt;</text>
<text text-anchor="middle" x="627.5" y="-228.47" font-family="Roboto" font-size="10.00"> Urho3D::HashMap * &gt;</text>
</a>
</g>
</g>
<!-- Node20&#45;&gt;Node8 -->
<g id="edge21" class="edge">
<title>Node20&#45;&gt;Node8</title>
<path fill="none" stroke="#9a32cd" stroke-dasharray="5,2" d="M696.06,-246.34C743.4,-254.14 807.81,-266.54 863,-283.47 884.14,-289.95 907.32,-300 923.45,-307.49"/>
<polygon fill="#9a32cd" stroke="#9a32cd" points="696.64,-242.88 686.21,-244.74 695.52,-249.79 696.64,-242.88"/>
<text text-anchor="middle" x="809.5" y="-286.47" font-family="Roboto" font-size="10.00"> eventDataMaps_</text>
</g>
<!-- Node21&#45;&gt;Node8 -->
<g id="edge22" class="edge">
<title>Node21&#45;&gt;Node8</title>
<path fill="none" stroke="#9a32cd" stroke-dasharray="5,2" d="M695.56,-687.81C748.31,-678.27 819.88,-656.94 863,-609.47 941.35,-523.21 944.76,-367.62 944.25,-327.25"/>
<polygon fill="#9a32cd" stroke="#9a32cd" points="695.04,-684.35 685.77,-689.47 696.21,-691.25 695.04,-684.35"/>
<text text-anchor="middle" x="809.5" y="-673.47" font-family="Roboto" font-size="10.00"> eventHandler_</text>
</g>
<!-- Node26 -->
<g id="node21" class="node">
<title>Node26</title>
<g id="a_node21"><a xlink:href="class_urho3_d_1_1_linked_list.html" target="_top" xlink:title=" ">
<polygon fill="white" stroke="#666666" points="1009,-690.47 881,-690.47 881,-660.47 1009,-660.47 1009,-690.47"/>
<text text-anchor="start" x="889" y="-678.47" font-family="Roboto" font-size="10.00">Urho3D::LinkedList</text>
<text text-anchor="middle" x="945" y="-667.47" font-family="Roboto" font-size="10.00">&lt; Urho3D::EventHandler &gt;</text>
</a>
</g>
</g>
<!-- Node21&#45;&gt;Node26 -->
<g id="edge31" class="edge">
<title>Node21&#45;&gt;Node26</title>
<path fill="none" stroke="#9a32cd" stroke-dasharray="5,2" d="M695.3,-695.19C742.29,-694.51 806.6,-692.59 863,-687.47 868.8,-686.94 874.83,-686.28 880.85,-685.53"/>
<polygon fill="#9a32cd" stroke="#9a32cd" points="695.51,-691.69 685.56,-695.32 695.6,-698.69 695.51,-691.69"/>
<text text-anchor="middle" x="809.5" y="-696.47" font-family="Roboto" font-size="10.00"> head_</text>
</g>
<!-- Node23 -->
<g id="node18" class="node">
<title>Node23</title>
<g id="a_node18"><a xlink:href="class_urho3_d_1_1_string_hash.html" target="_top" xlink:title="32&#45;bit hash value for a string.">
<polygon fill="white" stroke="#666666" points="426,-742.97 322,-742.97 322,-723.97 426,-723.97 426,-742.97"/>
<text text-anchor="middle" x="374" y="-730.97" font-family="Roboto" font-size="10.00">Urho3D::StringHash</text>
</a>
</g>
</g>
<!-- Node23&#45;&gt;Node4 -->
<g id="edge34" class="edge">
<title>Node23&#45;&gt;Node4</title>
<path fill="none" stroke="#9a32cd" stroke-dasharray="5,2" d="M415.53,-747.15C440.06,-755.83 471.75,-767.8 499,-780.47 540.35,-799.7 586.59,-826.99 610.39,-841.49"/>
<polygon fill="#9a32cd" stroke="#9a32cd" points="416.84,-743.89 406.24,-743.89 414.52,-750.5 416.84,-743.89"/>
<text text-anchor="middle" x="471.5" y="-783.47" font-family="Roboto" font-size="10.00"> nameHash_</text>
</g>
<!-- Node23&#45;&gt;Node21 -->
<g id="edge24" class="edge">
<title>Node23&#45;&gt;Node21</title>
<path fill="none" stroke="#9a32cd" stroke-dasharray="5,2" d="M437.37,-724.04C478.2,-717.88 531.1,-709.88 570.56,-703.92"/>
<polygon fill="#9a32cd" stroke="#9a32cd" points="437.06,-720.55 427.69,-725.51 438.11,-727.47 437.06,-720.55"/>
<text text-anchor="middle" x="471.5" y="-724.47" font-family="Roboto" font-size="10.00"> eventType_</text>
</g>
<!-- Node23&#45;&gt;Node23 -->
<g id="edge25" class="edge">
<title>Node23&#45;&gt;Node23</title>
<path fill="none" stroke="#9a32cd" stroke-dasharray="5,2" d="M361.63,-754.73C363.29,-758.41 367.42,-760.97 374,-760.97 386.39,-760.97 390.07,-751.9 385.04,-743.34"/>
<polygon fill="#9a32cd" stroke="#9a32cd" points="365.1,-755.18 362.79,-744.84 358.15,-754.36 365.1,-755.18"/>
<text text-anchor="middle" x="374" y="-763.97" font-family="Roboto" font-size="10.00"> ZERO</text>
</g>
<!-- Node24&#45;&gt;Node8 -->
<g id="edge26" class="edge">
<title>Node24&#45;&gt;Node8</title>
<path fill="none" stroke="#9a32cd" stroke-dasharray="5,2" d="M708.48,-384.61C754.18,-375.9 812.3,-363.48 863,-348.47 882.92,-342.57 904.91,-334.02 920.94,-327.4"/>
<polygon fill="#9a32cd" stroke="#9a32cd" points="708.11,-381.12 698.93,-386.41 709.4,-388 708.11,-381.12"/>
<text text-anchor="middle" x="809.5" y="-377.47" font-family="Roboto" font-size="10.00"> objectCategories_</text>
</g>
<!-- Node25&#45;&gt;Node8 -->
<g id="edge28" class="edge">
<title>Node25&#45;&gt;Node8</title>
<path fill="none" stroke="#9a32cd" stroke-dasharray="5,2" d="M717.01,-336.89C776.74,-331.78 853,-325.26 900.16,-321.22"/>
<polygon fill="#9a32cd" stroke="#9a32cd" points="716.85,-333.39 707.19,-337.73 717.45,-340.37 716.85,-333.39"/>
<text text-anchor="middle" x="809.5" y="-336.47" font-family="Roboto" font-size="10.00"> globalVars_</text>
</g>
<!-- Node26&#45;&gt;Node5 -->
<g id="edge30" class="edge">
<title>Node26&#45;&gt;Node5</title>
<path fill="none" stroke="#9a32cd" stroke-dasharray="5,2" d="M873.93,-657.99C870.25,-657.4 866.59,-656.88 863,-656.47 698.25,-637.41 500.13,-648.66 415.99,-655.02"/>
<polygon fill="#9a32cd" stroke="#9a32cd" points="873.05,-661.39 883.51,-659.71 874.28,-654.5 873.05,-661.39"/>
<text text-anchor="middle" x="627.5" y="-651.47" font-family="Roboto" font-size="10.00"> eventHandlers_</text>
</g>
<!-- Node27 -->
<g id="node22" class="node">
<title>Node27</title>
<g id="a_node22"><a xlink:href="class_urho3_d_1_1_string.html" target="_top" xlink:title="String class.">
<polygon fill="white" stroke="#666666" points="414,-897.97 334,-897.97 334,-878.97 414,-878.97 414,-897.97"/>
<text text-anchor="middle" x="374" y="-885.97" font-family="Roboto" font-size="10.00">Urho3D::String</text>
</a>
</g>
</g>
<!-- Node27&#45;&gt;Node4 -->
<g id="edge32" class="edge">
<title>Node27&#45;&gt;Node4</title>
<path fill="none" stroke="#9a32cd" stroke-dasharray="5,2" d="M425.53,-881.03C470.41,-874.43 535.51,-864.85 579.34,-858.41"/>
<polygon fill="#9a32cd" stroke="#9a32cd" points="425.18,-877.55 415.79,-882.47 426.2,-884.47 425.18,-877.55"/>
<text text-anchor="middle" x="471.5" y="-880.47" font-family="Roboto" font-size="10.00"> name_</text>
</g>
<!-- Node27&#45;&gt;Node27 -->
<g id="edge33" class="edge">
<title>Node27&#45;&gt;Node27</title>
<path fill="none" stroke="#9a32cd" stroke-dasharray="5,2" d="M361.63,-909.73C363.29,-913.41 367.42,-915.97 374,-915.97 386.39,-915.97 390.07,-906.9 385.04,-898.34"/>
<polygon fill="#9a32cd" stroke="#9a32cd" points="365.1,-910.18 362.79,-899.84 358.15,-909.36 365.1,-910.18"/>
<text text-anchor="middle" x="374" y="-918.97" font-family="Roboto" font-size="10.00"> EMPTY</text>
</g>
<!-- Node28 -->
<g id="node23" class="node">
<title>Node28</title>
<g id="a_node23"><a xlink:href="class_urho3_d_1_1_timer.html" target="_top" xlink:title="Low&#45;resolution operating system timer.">
<polygon fill="white" stroke="#666666" points="414.5,-860.97 333.5,-860.97 333.5,-841.97 414.5,-841.97 414.5,-860.97"/>
<text text-anchor="middle" x="374" y="-848.97" font-family="Roboto" font-size="10.00">Urho3D::Timer</text>
</a>
</g>
</g>
<!-- Node28&#45;&gt;Node4 -->
<g id="edge35" class="edge">
<title>Node28&#45;&gt;Node4</title>
<path fill="none" stroke="#9a32cd" stroke-dasharray="5,2" d="M426.36,-851.47C471.13,-851.47 535.56,-851.47 579.12,-851.47"/>
<polygon fill="#9a32cd" stroke="#9a32cd" points="426.36,-847.97 416.36,-851.47 426.36,-854.97 426.36,-847.97"/>
<text text-anchor="middle" x="471.5" y="-854.47" font-family="Roboto" font-size="10.00"> useTimer_</text>
</g>
<!-- Node29 -->
<g id="node24" class="node">
<title>Node29</title>
<g id="a_node24"><a xlink:href="class_urho3_d_1_1_unique_ptr.html" target="_top" xlink:title=" ">
<polygon fill="white" stroke="#666666" points="685,-909.47 570,-909.47 570,-879.47 685,-879.47 685,-909.47"/>
<text text-anchor="start" x="578" y="-897.47" font-family="Roboto" font-size="10.00">Urho3D::UniquePtr&lt;</text>
<text text-anchor="middle" x="627.5" y="-886.47" font-family="Roboto" font-size="10.00"> pugi::xml_document &gt;</text>
</a>
</g>
</g>
<!-- Node29&#45;&gt;Node3 -->
<g id="edge36" class="edge">
<title>Node29&#45;&gt;Node3</title>
<path fill="none" stroke="#9a32cd" stroke-dasharray="5,2" d="M696.7,-886.91C743.56,-881.51 807.14,-873.74 863,-865.47 875,-863.69 887.96,-861.55 899.92,-859.48"/>
<polygon fill="#9a32cd" stroke="#9a32cd" points="696.51,-883.41 686.97,-888.03 697.3,-890.37 696.51,-883.41"/>
<text text-anchor="middle" x="809.5" y="-881.47" font-family="Roboto" font-size="10.00"> document_</text>
</g>
<!-- Node30&#45;&gt;Node1 -->
<g id="edge38" class="edge">
<title>Node30&#45;&gt;Node1</title>
<path fill="none" stroke="#9a32cd" stroke-dasharray="5,2" d="M1387.82,-814.86C1419.24,-818.09 1455.51,-821.83 1484.71,-824.83"/>
<polygon fill="#9a32cd" stroke="#9a32cd" points="1388.29,-811.39 1377.99,-813.85 1387.58,-818.35 1388.29,-811.39"/>
<text text-anchor="middle" x="1430.5" y="-824.47" font-family="Roboto" font-size="10.00"> xpathResultSet_</text>
</g>
</g>
</svg>
