<?xml version="1.0" encoding="UTF-8" standalone="no"?>
<!DOCTYPE svg PUBLIC "-//W3C//DTD SVG 1.1//EN"
 "http://www.w3.org/Graphics/SVG/1.1/DTD/svg11.dtd">
<!-- Generated by graphviz version 7.0.3 (0)
 -->
<!-- Title: Urho3D::FontFace Pages: 1 -->
<svg width="286pt" height="137pt"
 viewBox="0.00 0.00 286.00 137.00" xmlns="http://www.w3.org/2000/svg" xmlns:xlink="http://www.w3.org/1999/xlink">
<g id="graph0" class="graph" transform="scale(1 1) rotate(0) translate(4 133)">
<title>Urho3D::FontFace</title>
<!-- Node1 -->
<g id="node1" class="node">
<title>Node1</title>
<g id="a_node1"><a xlink:title="Font face description.">
<polygon fill="#999999" stroke="#666666" points="184.5,-74 89.5,-74 89.5,-55 184.5,-55 184.5,-74"/>
<text text-anchor="middle" x="137" y="-62" font-family="Roboto" font-size="10.00">Urho3D::FontFace</text>
</a>
</g>
</g>
<!-- Node3 -->
<g id="node3" class="node">
<title>Node3</title>
<g id="a_node3"><a xlink:href="class_urho3_d_1_1_font_face_bitmap.html" target="_top" xlink:title="Bitmap font face description.">
<polygon fill="white" stroke="#666666" points="126,-19 0,-19 0,0 126,0 126,-19"/>
<text text-anchor="middle" x="63" y="-7" font-family="Roboto" font-size="10.00">Urho3D::FontFaceBitmap</text>
</a>
</g>
</g>
<!-- Node1&#45;&gt;Node3 -->
<g id="edge2" class="edge">
<title>Node1&#45;&gt;Node3</title>
<path fill="none" stroke="#63b8ff" d="M115.24,-47.92C102.25,-38.61 86.22,-27.13 75.37,-19.36"/>
<polygon fill="#63b8ff" stroke="#63b8ff" points="113.05,-50.65 123.22,-53.63 117.12,-44.96 113.05,-50.65"/>
</g>
<!-- Node4 -->
<g id="node4" class="node">
<title>Node4</title>
<g id="a_node4"><a xlink:href="class_urho3_d_1_1_font_face_free_type.html" target="_top" xlink:title="Free type font face description.">
<polygon fill="white" stroke="#666666" points="278,-19 144,-19 144,0 278,0 278,-19"/>
<text text-anchor="middle" x="211" y="-7" font-family="Roboto" font-size="10.00">Urho3D::FontFaceFreeType</text>
</a>
</g>
</g>
<!-- Node1&#45;&gt;Node4 -->
<g id="edge3" class="edge">
<title>Node1&#45;&gt;Node4</title>
<path fill="none" stroke="#63b8ff" d="M158.76,-47.92C171.75,-38.61 187.78,-27.13 198.63,-19.36"/>
<polygon fill="#63b8ff" stroke="#63b8ff" points="156.88,-44.96 150.78,-53.63 160.95,-50.65 156.88,-44.96"/>
</g>
<!-- Node2 -->
<g id="node2" class="node">
<title>Node2</title>
<g id="a_node2"><a xlink:href="class_urho3_d_1_1_ref_counted.html" target="_top" xlink:title="Base class for intrusively reference&#45;counted objects. These are noncopyable and non&#45;assignable.">
<polygon fill="white" stroke="#666666" points="190.5,-129 83.5,-129 83.5,-110 190.5,-110 190.5,-129"/>
<text text-anchor="middle" x="137" y="-117" font-family="Roboto" font-size="10.00">Urho3D::RefCounted</text>
</a>
</g>
</g>
<!-- Node2&#45;&gt;Node1 -->
<g id="edge1" class="edge">
<title>Node2&#45;&gt;Node1</title>
<path fill="none" stroke="#63b8ff" d="M137,-98.35C137,-90.1 137,-80.97 137,-74.44"/>
<polygon fill="#63b8ff" stroke="#63b8ff" points="133.5,-98.23 137,-108.23 140.5,-98.23 133.5,-98.23"/>
</g>
</g>
</svg>
