<?xml version="1.0" encoding="UTF-8" standalone="no"?>
<!DOCTYPE svg PUBLIC "-//W3C//DTD SVG 1.1//EN"
 "http://www.w3.org/Graphics/SVG/1.1/DTD/svg11.dtd">
<!-- Generated by graphviz version 7.0.3 (0)
 -->
<!-- Title: Urho3D::DebugHud::GetMode Pages: 1 -->
<svg width="508pt" height="27pt"
 viewBox="0.00 0.00 508.00 27.00" xmlns="http://www.w3.org/2000/svg" xmlns:xlink="http://www.w3.org/1999/xlink">
<g id="graph0" class="graph" transform="scale(1 1) rotate(0) translate(4 23)">
<title>Urho3D::DebugHud::GetMode</title>
<!-- Node1 -->
<g id="node1" class="node">
<title>Node1</title>
<g id="a_node1"><a xlink:title=" ">
<polygon fill="#999999" stroke="#666666" points="500,-19 353,-19 353,0 500,0 500,-19"/>
<text text-anchor="middle" x="426.5" y="-7" font-family="Roboto" font-size="10.00">Urho3D::DebugHud::GetMode</text>
</a>
</g>
</g>
<!-- Node2 -->
<g id="node2" class="node">
<title>Node2</title>
<g id="a_node2"><a xlink:href="class_urho3_d_1_1_debug_hud.html#a6ff2689a460a7c1bb451450f562f17c2" target="_top" xlink:title="Toggle elements.">
<polygon fill="white" stroke="#666666" points="317,-19 182,-19 182,0 317,0 317,-19"/>
<text text-anchor="middle" x="249.5" y="-7" font-family="Roboto" font-size="10.00">Urho3D::DebugHud::Toggle</text>
</a>
</g>
</g>
<!-- Node1&#45;&gt;Node2 -->
<g id="edge1" class="edge">
<title>Node1&#45;&gt;Node2</title>
<path fill="none" stroke="#63b8ff" d="M341.3,-9.5C333.3,-9.5 325.26,-9.5 317.46,-9.5"/>
<polygon fill="#63b8ff" stroke="#63b8ff" points="341.04,-13 351.04,-9.5 341.04,-6 341.04,-13"/>
</g>
<!-- Node3 -->
<g id="node3" class="node">
<title>Node3</title>
<g id="a_node3"><a xlink:href="class_urho3_d_1_1_debug_hud.html#a5c76d27f25d76008fd582129ddca49be" target="_top" xlink:title="Toggle all elements.">
<polygon fill="white" stroke="#666666" points="146,-19 0,-19 0,0 146,0 146,-19"/>
<text text-anchor="middle" x="73" y="-7" font-family="Roboto" font-size="10.00">Urho3D::DebugHud::ToggleAll</text>
</a>
</g>
</g>
<!-- Node2&#45;&gt;Node3 -->
<g id="edge2" class="edge">
<title>Node2&#45;&gt;Node3</title>
<path fill="none" stroke="#63b8ff" d="M170.05,-9.5C162.14,-9.5 154.14,-9.5 146.3,-9.5"/>
<polygon fill="#63b8ff" stroke="#63b8ff" points="170.02,-13 180.02,-9.5 170.02,-6 170.02,-13"/>
</g>
</g>
</svg>
