<?xml version="1.0" encoding="UTF-8" standalone="no"?>
<!DOCTYPE svg PUBLIC "-//W3C//DTD SVG 1.1//EN"
 "http://www.w3.org/Graphics/SVG/1.1/DTD/svg11.dtd">
<!-- Generated by graphviz version 7.0.3 (0)
 -->
<!-- Title: Urho3D::Pass::GetPixelShader Pages: 1 -->
<svg width="509pt" height="142pt"
 viewBox="0.00 0.00 509.00 141.50" xmlns="http://www.w3.org/2000/svg" xmlns:xlink="http://www.w3.org/1999/xlink">
<g id="graph0" class="graph" transform="scale(1 1) rotate(0) translate(4 137.5)">
<title>Urho3D::Pass::GetPixelShader</title>
<!-- Node1 -->
<g id="node1" class="node">
<title>Node1</title>
<g id="a_node1"><a xlink:title=" ">
<polygon fill="#999999" stroke="#666666" points="501,-62 353,-62 353,-43 501,-43 501,-62"/>
<text text-anchor="middle" x="427" y="-50" font-family="Roboto" font-size="10.00">Urho3D::Pass::GetPixelShader</text>
</a>
</g>
</g>
<!-- Node2 -->
<g id="node2" class="node">
<title>Node2</title>
<g id="a_node2"><a xlink:href="class_urho3_d_1_1_technique.html#a990878e219ce61207b380ab0bdf13aca" target="_top" xlink:title="Clone the technique. Passes will be deep copied to allow independent modification.">
<polygon fill="white" stroke="#666666" points="297.5,-133.5 193.5,-133.5 193.5,-103.5 297.5,-103.5 297.5,-133.5"/>
<text text-anchor="start" x="201.5" y="-121.5" font-family="Roboto" font-size="10.00">Urho3D::Technique::</text>
<text text-anchor="middle" x="245.5" y="-110.5" font-family="Roboto" font-size="10.00">Clone</text>
</a>
</g>
</g>
<!-- Node1&#45;&gt;Node2 -->
<g id="edge1" class="edge">
<title>Node1&#45;&gt;Node2</title>
<path fill="none" stroke="#63b8ff" d="M390.51,-66.58C369.26,-74.91 341.68,-85.55 317,-94.5 309.22,-97.32 300.93,-100.23 292.86,-103.01"/>
<polygon fill="#63b8ff" stroke="#63b8ff" points="391.56,-69.93 399.59,-63.01 389,-63.42 391.56,-69.93"/>
</g>
<!-- Node4 -->
<g id="node4" class="node">
<title>Node4</title>
<g id="a_node4"><a xlink:href="class_urho3_d_1_1_renderer.html#aa9c1c4b719643700a5d7e4bee5fafd32" target="_top" xlink:title="Reload shaders for a material pass. The related batch queue is provided in case it has extra shader c...">
<polygon fill="white" stroke="#666666" points="317,-67.5 174,-67.5 174,-37.5 317,-37.5 317,-67.5"/>
<text text-anchor="start" x="182" y="-55.5" font-family="Roboto" font-size="10.00">Urho3D::Renderer::LoadPass</text>
<text text-anchor="middle" x="245.5" y="-44.5" font-family="Roboto" font-size="10.00">Shaders</text>
</a>
</g>
</g>
<!-- Node1&#45;&gt;Node4 -->
<g id="edge3" class="edge">
<title>Node1&#45;&gt;Node4</title>
<path fill="none" stroke="#63b8ff" d="M341.37,-52.5C333.28,-52.5 325.15,-52.5 317.21,-52.5"/>
<polygon fill="#63b8ff" stroke="#63b8ff" points="341.22,-56 351.22,-52.5 341.22,-49 341.22,-56"/>
</g>
<!-- Node6 -->
<g id="node6" class="node">
<title>Node6</title>
<g id="a_node6"><a xlink:href="class_urho3_d_1_1_u_i.html#a5f23155e2af111b3f82736beb7929e44" target="_top" xlink:title="Render UI batches to the current rendertarget. Geometry must have been uploaded first.">
<polygon fill="white" stroke="#666666" points="296,-19 195,-19 195,0 296,0 296,-19"/>
<text text-anchor="middle" x="245.5" y="-7" font-family="Roboto" font-size="10.00">Urho3D::UI::Render</text>
</a>
</g>
</g>
<!-- Node1&#45;&gt;Node6 -->
<g id="edge6" class="edge">
<title>Node1&#45;&gt;Node6</title>
<path fill="none" stroke="#63b8ff" d="M373.49,-39.92C346.33,-33.41 313.63,-25.58 288.22,-19.49"/>
<polygon fill="#63b8ff" stroke="#63b8ff" points="372.36,-43.25 382.9,-42.17 373.99,-36.44 372.36,-43.25"/>
</g>
<!-- Node3 -->
<g id="node3" class="node">
<title>Node3</title>
<g id="a_node3"><a xlink:href="class_urho3_d_1_1_technique.html#a06c3bc21df26728f23a7ccd81eba8765" target="_top" xlink:title="Return a clone with added shader compilation defines. Called internally by Material.">
<polygon fill="white" stroke="#666666" points="121,-133.5 17,-133.5 17,-103.5 121,-103.5 121,-133.5"/>
<text text-anchor="start" x="25" y="-121.5" font-family="Roboto" font-size="10.00">Urho3D::Technique::</text>
<text text-anchor="middle" x="69" y="-110.5" font-family="Roboto" font-size="10.00">CloneWithDefines</text>
</a>
</g>
</g>
<!-- Node2&#45;&gt;Node3 -->
<g id="edge2" class="edge">
<title>Node2&#45;&gt;Node3</title>
<path fill="none" stroke="#63b8ff" d="M181.68,-118.5C161.87,-118.5 140.25,-118.5 121.35,-118.5"/>
<polygon fill="#63b8ff" stroke="#63b8ff" points="181.57,-122 191.57,-118.5 181.57,-115 181.57,-122"/>
</g>
<!-- Node4&#45;&gt;Node4 -->
<g id="edge4" class="edge">
<title>Node4&#45;&gt;Node4</title>
<path fill="none" stroke="#63b8ff" d="M275.28,-79.11C270.51,-82.93 260.58,-85.5 245.5,-85.5 217.92,-85.5 207.58,-76.91 214.47,-67.78"/>
<polygon fill="#63b8ff" stroke="#63b8ff" points="278.75,-79.6 276.36,-69.28 271.79,-78.84 278.75,-79.6"/>
</g>
<!-- Node5 -->
<g id="node5" class="node">
<title>Node5</title>
<g id="a_node5"><a xlink:href="class_urho3_d_1_1_renderer.html#a4f48ac64f450dc7cb8ef339d84de223f" target="_top" xlink:title="Choose shaders for a forward rendering batch. The related batch queue is provided in case it has extr...">
<polygon fill="white" stroke="#666666" points="138,-67.5 0,-67.5 0,-37.5 138,-37.5 138,-67.5"/>
<text text-anchor="start" x="8" y="-55.5" font-family="Roboto" font-size="10.00">Urho3D::Renderer::SetBatch</text>
<text text-anchor="middle" x="69" y="-44.5" font-family="Roboto" font-size="10.00">Shaders</text>
</a>
</g>
</g>
<!-- Node4&#45;&gt;Node5 -->
<g id="edge5" class="edge">
<title>Node4&#45;&gt;Node5</title>
<path fill="none" stroke="#63b8ff" d="M162.28,-52.5C154.28,-52.5 146.22,-52.5 138.37,-52.5"/>
<polygon fill="#63b8ff" stroke="#63b8ff" points="162.01,-56 172.01,-52.5 162.01,-49 162.01,-56"/>
</g>
</g>
</svg>
