<?xml version="1.0" encoding="UTF-8" standalone="no"?>
<!DOCTYPE svg PUBLIC "-//W3C//DTD SVG 1.1//EN"
 "http://www.w3.org/Graphics/SVG/1.1/DTD/svg11.dtd">
<!-- Generated by graphviz version 7.0.3 (0)
 -->
<!-- Title: Urho3D::UIElement::IsWheelHandler Pages: 1 -->
<svg width="422pt" height="38pt"
 viewBox="0.00 0.00 422.00 38.00" xmlns="http://www.w3.org/2000/svg" xmlns:xlink="http://www.w3.org/1999/xlink">
<g id="graph0" class="graph" transform="scale(1 1) rotate(0) translate(4 34)">
<title>Urho3D::UIElement::IsWheelHandler</title>
<!-- Node1 -->
<g id="node1" class="node">
<title>Node1</title>
<g id="a_node1"><a xlink:title="Return whether the element could handle wheel input.">
<polygon fill="#999999" stroke="#666666" points="414,-30 309,-30 309,0 414,0 414,-30"/>
<text text-anchor="start" x="317" y="-18" font-family="Roboto" font-size="10.00">Urho3D::UIElement::</text>
<text text-anchor="middle" x="361.5" y="-7" font-family="Roboto" font-size="10.00">IsWheelHandler</text>
</a>
</g>
</g>
<!-- Node2 -->
<g id="node2" class="node">
<title>Node2</title>
<g id="a_node2"><a xlink:href="class_urho3_d_1_1_u_i.html#aa0f1800447d1a747be7e2c7c71e5e069" target="_top" xlink:title="Handle mouse wheel event.">
<polygon fill="white" stroke="#666666" points="273,-24.5 115,-24.5 115,-5.5 273,-5.5 273,-24.5"/>
<text text-anchor="middle" x="194" y="-12.5" font-family="Roboto" font-size="10.00">Urho3D::UI::HandleMouseWheel</text>
</a>
</g>
</g>
<!-- Node1&#45;&gt;Node2 -->
<g id="edge1" class="edge">
<title>Node1&#45;&gt;Node2</title>
<path fill="none" stroke="#63b8ff" d="M297.33,-15C289.5,-15 281.42,-15 273.4,-15"/>
<polygon fill="#63b8ff" stroke="#63b8ff" points="297.08,-18.5 307.08,-15 297.08,-11.5 297.08,-18.5"/>
</g>
<!-- Node3 -->
<g id="node3" class="node">
<title>Node3</title>
<g id="a_node3"><a xlink:href="class_urho3_d_1_1_u_i.html#a2c011c43ca66ff4270e98601e4f9c4cf" target="_top" xlink:title="Construct.">
<polygon fill="white" stroke="#666666" points="79,-24.5 0,-24.5 0,-5.5 79,-5.5 79,-24.5"/>
<text text-anchor="middle" x="39.5" y="-12.5" font-family="Roboto" font-size="10.00">Urho3D::UI::UI</text>
</a>
</g>
</g>
<!-- Node2&#45;&gt;Node3 -->
<g id="edge2" class="edge">
<title>Node2&#45;&gt;Node3</title>
<path fill="none" stroke="#63b8ff" d="M103.08,-15C94.77,-15 86.69,-15 79.23,-15"/>
<polygon fill="#63b8ff" stroke="#63b8ff" points="103,-18.5 113,-15 103,-11.5 103,-18.5"/>
</g>
</g>
</svg>
