<?xml version="1.0" encoding="UTF-8" standalone="no"?>
<!DOCTYPE svg PUBLIC "-//W3C//DTD SVG 1.1//EN"
 "http://www.w3.org/Graphics/SVG/1.1/DTD/svg11.dtd">
<!-- Generated by graphviz version 7.0.3 (0)
 -->
<!-- Title: Urho3D::TileMapObject2D Pages: 1 -->
<svg width="2104pt" height="671pt"
 viewBox="0.00 0.00 2104.00 671.00" xmlns="http://www.w3.org/2000/svg" xmlns:xlink="http://www.w3.org/1999/xlink">
<g id="graph0" class="graph" transform="scale(1 1) rotate(0) translate(4 667)">
<title>Urho3D::TileMapObject2D</title>
<!-- Node1 -->
<g id="node1" class="node">
<title>Node1</title>
<g id="a_node1"><a xlink:title="Tile map object.">
<polygon fill="#999999" stroke="#666666" points="2096,-168.5 1966,-168.5 1966,-149.5 2096,-149.5 2096,-168.5"/>
<text text-anchor="middle" x="2031" y="-156.5" font-family="Roboto" font-size="10.00">Urho3D::TileMapObject2D</text>
</a>
</g>
</g>
<!-- Node2 -->
<g id="node2" class="node">
<title>Node2</title>
<g id="a_node2"><a xlink:href="class_urho3_d_1_1_ref_counted.html" target="_top" xlink:title="Base class for intrusively reference&#45;counted objects. These are noncopyable and non&#45;assignable.">
<polygon fill="white" stroke="#666666" points="305,-403.5 198,-403.5 198,-384.5 305,-384.5 305,-403.5"/>
<text text-anchor="middle" x="251.5" y="-391.5" font-family="Roboto" font-size="10.00">Urho3D::RefCounted</text>
</a>
</g>
</g>
<!-- Node2&#45;&gt;Node1 -->
<g id="edge1" class="edge">
<title>Node2&#45;&gt;Node1</title>
<path fill="none" stroke="#63b8ff" d="M257.48,-373.33C277.04,-297.79 355.96,-41 525,-41 525,-41 525,-41 1834.5,-41 1918.15,-41 1996.72,-121.16 2021.76,-149.34"/>
<polygon fill="#63b8ff" stroke="#63b8ff" points="254.16,-372.17 255.13,-382.72 260.95,-373.87 254.16,-372.17"/>
</g>
<!-- Node11 -->
<g id="node11" class="node">
<title>Node11</title>
<g id="a_node11"><a xlink:href="class_urho3_d_1_1_object.html" target="_top" xlink:title=" ">
<polygon fill="white" stroke="#666666" points="790.5,-463.5 707.5,-463.5 707.5,-444.5 790.5,-444.5 790.5,-463.5"/>
<text text-anchor="middle" x="749" y="-451.5" font-family="Roboto" font-size="10.00">Urho3D::Object</text>
</a>
</g>
</g>
<!-- Node2&#45;&gt;Node11 -->
<g id="edge13" class="edge">
<title>Node2&#45;&gt;Node11</title>
<path fill="none" stroke="#63b8ff" d="M316.2,-404.67C323.87,-405.85 331.61,-406.99 339,-408 473.51,-426.44 633.65,-442.85 707.28,-450.08"/>
<polygon fill="#63b8ff" stroke="#63b8ff" points="316.96,-401.25 306.54,-403.16 315.88,-408.16 316.96,-401.25"/>
</g>
<!-- Node12 -->
<g id="node12" class="node">
<title>Node12</title>
<g id="a_node12"><a xlink:href="class_urho3_d_1_1_context.html" target="_top" xlink:title="Urho3D execution context. Provides access to subsystems, object factories and attributes,...">
<polygon fill="#fff0f0" stroke="red" points="570.5,-403.5 481.5,-403.5 481.5,-384.5 570.5,-384.5 570.5,-403.5"/>
<text text-anchor="middle" x="526" y="-391.5" font-family="Roboto" font-size="10.00">Urho3D::Context</text>
</a>
</g>
</g>
<!-- Node2&#45;&gt;Node12 -->
<g id="edge15" class="edge">
<title>Node2&#45;&gt;Node12</title>
<path fill="none" stroke="#63b8ff" d="M316.85,-394C367.54,-394 436.84,-394 481.27,-394"/>
<polygon fill="#63b8ff" stroke="#63b8ff" points="316.88,-390.5 306.88,-394 316.88,-397.5 316.88,-390.5"/>
</g>
<!-- Node99 -->
<g id="node23" class="node">
<title>Node99</title>
<g id="a_node23"><a xlink:href="class_urho3_d_1_1_property_set2_d.html" target="_top" xlink:title="Property set.">
<polygon fill="white" stroke="#666666" points="585,-96.5 467,-96.5 467,-77.5 585,-77.5 585,-96.5"/>
<text text-anchor="middle" x="526" y="-84.5" font-family="Roboto" font-size="10.00">Urho3D::PropertySet2D</text>
</a>
</g>
</g>
<!-- Node2&#45;&gt;Node99 -->
<g id="edge36" class="edge">
<title>Node2&#45;&gt;Node99</title>
<path fill="none" stroke="#63b8ff" d="M268.8,-375.63C320.1,-317.84 477.09,-140.97 516.14,-96.98"/>
<polygon fill="#63b8ff" stroke="#63b8ff" points="266.28,-373.2 262.26,-383 271.52,-377.85 266.28,-373.2"/>
</g>
<!-- Node3 -->
<g id="node3" class="node">
<title>Node3</title>
<g id="a_node3"><a xlink:href="struct_urho3_d_1_1_ref_count.html" target="_top" xlink:title="Reference count structure.">
<polygon fill="white" stroke="#666666" points="98,-612.5 2,-612.5 2,-593.5 98,-593.5 98,-612.5"/>
<text text-anchor="middle" x="50" y="-600.5" font-family="Roboto" font-size="10.00">Urho3D::RefCount</text>
</a>
</g>
</g>
<!-- Node3&#45;&gt;Node2 -->
<g id="edge2" class="edge">
<title>Node3&#45;&gt;Node2</title>
<path fill="none" stroke="#9a32cd" stroke-dasharray="5,2" d="M68.07,-585.12C108.76,-542.49 210.42,-435.99 241.4,-403.54"/>
<polygon fill="#9a32cd" stroke="#9a32cd" points="65.77,-582.45 61.4,-592.1 70.84,-587.29 65.77,-582.45"/>
<text text-anchor="middle" x="141" y="-532" font-family="Roboto" font-size="10.00"> refCount_</text>
</g>
<!-- Node87 -->
<g id="node20" class="node">
<title>Node87</title>
<g id="a_node20"><a xlink:href="class_urho3_d_1_1_weak_ptr.html" target="_top" xlink:title=" ">
<polygon fill="white" stroke="#666666" points="1493,-398 1359,-398 1359,-368 1493,-368 1493,-398"/>
<text text-anchor="start" x="1367" y="-386" font-family="Roboto" font-size="10.00">Urho3D::WeakPtr&lt; Urho3D</text>
<text text-anchor="middle" x="1426" y="-375" font-family="Roboto" font-size="10.00">::SpriteSheet2D &gt;</text>
</a>
</g>
</g>
<!-- Node3&#45;&gt;Node87 -->
<g id="edge33" class="edge">
<title>Node3&#45;&gt;Node87</title>
<path fill="none" stroke="#9a32cd" stroke-dasharray="5,2" d="M85.68,-616.91C124.99,-631.4 191.29,-652 250.5,-652 250.5,-652 250.5,-652 1206.5,-652 1334.38,-652 1260.14,-489.12 1359,-408 1363.45,-404.35 1368.49,-401.19 1373.76,-398.48"/>
<polygon fill="#9a32cd" stroke="#9a32cd" points="87.11,-613.71 76.52,-613.45 84.64,-620.26 87.11,-613.71"/>
<text text-anchor="middle" x="749" y="-655" font-family="Roboto" font-size="10.00"> refCount_</text>
</g>
<!-- Node4 -->
<g id="node4" class="node">
<title>Node4</title>
<g id="a_node4"><a xlink:href="class_urho3_d_1_1_string.html" target="_top" xlink:title="String class.">
<polygon fill="white" stroke="#666666" points="789,-397.5 709,-397.5 709,-378.5 789,-378.5 789,-397.5"/>
<text text-anchor="middle" x="749" y="-385.5" font-family="Roboto" font-size="10.00">Urho3D::String</text>
</a>
</g>
</g>
<!-- Node4&#45;&gt;Node1 -->
<g id="edge3" class="edge">
<title>Node4&#45;&gt;Node1</title>
<path fill="none" stroke="#9a32cd" stroke-dasharray="5,2" d="M761.05,-368.55C793.2,-314.77 892.49,-168 1018.5,-168 1018.5,-168 1018.5,-168 1312.5,-168 1553.55,-168 1840.13,-162.86 1965.69,-160.35"/>
<polygon fill="#9a32cd" stroke="#9a32cd" points="758.16,-366.56 756.13,-376.96 764.2,-370.09 758.16,-366.56"/>
<text text-anchor="middle" x="1426" y="-181" font-family="Roboto" font-size="10.00"> name_</text>
<text text-anchor="middle" x="1426" y="-170" font-family="Roboto" font-size="10.00">type_</text>
</g>
<!-- Node4&#45;&gt;Node4 -->
<g id="edge4" class="edge">
<title>Node4&#45;&gt;Node4</title>
<path fill="none" stroke="#9a32cd" stroke-dasharray="5,2" d="M730.27,-408.93C732.62,-412.79 738.86,-415.5 749,-415.5 767.54,-415.5 773.05,-406.44 765.52,-397.87"/>
<polygon fill="#9a32cd" stroke="#9a32cd" points="733.66,-409.84 732.19,-399.35 726.8,-408.47 733.66,-409.84"/>
<text text-anchor="middle" x="749" y="-418.5" font-family="Roboto" font-size="10.00"> EMPTY</text>
</g>
<!-- Node10 -->
<g id="node10" class="node">
<title>Node10</title>
<g id="a_node10"><a xlink:href="class_urho3_d_1_1_resource.html" target="_top" xlink:title=" ">
<polygon fill="white" stroke="#666666" points="1067.5,-484.5 971.5,-484.5 971.5,-465.5 1067.5,-465.5 1067.5,-484.5"/>
<text text-anchor="middle" x="1019.5" y="-472.5" font-family="Roboto" font-size="10.00">Urho3D::Resource</text>
</a>
</g>
</g>
<!-- Node4&#45;&gt;Node10 -->
<g id="edge17" class="edge">
<title>Node4&#45;&gt;Node10</title>
<path fill="none" stroke="#9a32cd" stroke-dasharray="5,2" d="M791,-401.44C800.19,-404.35 809.9,-407.34 819,-410 875.5,-426.5 891.4,-424.68 947,-444 964.51,-450.08 983.76,-458.53 997.86,-465.08"/>
<polygon fill="#9a32cd" stroke="#9a32cd" points="792.16,-398.13 781.57,-398.42 790.03,-404.8 792.16,-398.13"/>
<text text-anchor="middle" x="883" y="-447" font-family="Roboto" font-size="10.00"> name_</text>
</g>
<!-- Node88 -->
<g id="node21" class="node">
<title>Node88</title>
<g id="a_node21"><a xlink:href="class_urho3_d_1_1_sprite_sheet2_d.html" target="_top" xlink:title="Sprite sheet.">
<polygon fill="#fff0f0" stroke="red" points="1264,-405.5 1147,-405.5 1147,-386.5 1264,-386.5 1264,-405.5"/>
<text text-anchor="middle" x="1205.5" y="-393.5" font-family="Roboto" font-size="10.00">Urho3D::SpriteSheet2D</text>
</a>
</g>
</g>
<!-- Node4&#45;&gt;Node88 -->
<g id="edge32" class="edge">
<title>Node4&#45;&gt;Node88</title>
<path fill="none" stroke="#9a32cd" stroke-dasharray="5,2" d="M800.56,-388.89C885.64,-390.39 1056.92,-393.4 1146.66,-394.98"/>
<polygon fill="#9a32cd" stroke="#9a32cd" points="800.72,-385.39 790.66,-388.72 800.59,-392.39 800.72,-385.39"/>
<text text-anchor="middle" x="1019.5" y="-396" font-family="Roboto" font-size="10.00"> loadTextureName_</text>
</g>
<!-- Node5 -->
<g id="node5" class="node">
<title>Node5</title>
<g id="a_node5"><a xlink:href="class_urho3_d_1_1_vector2.html" target="_top" xlink:title="Two&#45;dimensional vector.">
<polygon fill="white" stroke="#666666" points="1470.5,-227.5 1381.5,-227.5 1381.5,-208.5 1470.5,-208.5 1470.5,-227.5"/>
<text text-anchor="middle" x="1426" y="-215.5" font-family="Roboto" font-size="10.00">Urho3D::Vector2</text>
</a>
</g>
</g>
<!-- Node5&#45;&gt;Node1 -->
<g id="edge5" class="edge">
<title>Node5&#45;&gt;Node1</title>
<path fill="none" stroke="#9a32cd" stroke-dasharray="5,2" d="M1482.14,-219.56C1577.9,-221.19 1780.72,-219.91 1948,-187 1968.22,-183.02 1990.28,-175.28 2006.43,-168.95"/>
<polygon fill="#9a32cd" stroke="#9a32cd" points="1482.3,-216.06 1472.24,-219.37 1482.17,-223.06 1482.3,-216.06"/>
<text text-anchor="middle" x="1731.5" y="-228" font-family="Roboto" font-size="10.00"> position_</text>
<text text-anchor="middle" x="1731.5" y="-217" font-family="Roboto" font-size="10.00">size_</text>
</g>
<!-- Node5&#45;&gt;Node5 -->
<g id="edge6" class="edge">
<title>Node5&#45;&gt;Node5</title>
<path fill="none" stroke="#9a32cd" stroke-dasharray="5,2" d="M1405.85,-238.93C1408.37,-242.79 1415.09,-245.5 1426,-245.5 1445.95,-245.5 1451.87,-236.44 1443.77,-227.87"/>
<polygon fill="#9a32cd" stroke="#9a32cd" points="1409.23,-239.86 1407.91,-229.35 1402.39,-238.39 1409.23,-239.86"/>
<text text-anchor="middle" x="1426" y="-303.5" font-family="Roboto" font-size="10.00"> DOWN</text>
<text text-anchor="middle" x="1426" y="-292.5" font-family="Roboto" font-size="10.00">LEFT</text>
<text text-anchor="middle" x="1426" y="-281.5" font-family="Roboto" font-size="10.00">ONE</text>
<text text-anchor="middle" x="1426" y="-270.5" font-family="Roboto" font-size="10.00">RIGHT</text>
<text text-anchor="middle" x="1426" y="-259.5" font-family="Roboto" font-size="10.00">UP</text>
<text text-anchor="middle" x="1426" y="-248.5" font-family="Roboto" font-size="10.00">ZERO</text>
</g>
<!-- Node9 -->
<g id="node9" class="node">
<title>Node9</title>
<g id="a_node9"><a xlink:href="class_urho3_d_1_1_sprite2_d.html" target="_top" xlink:title="Sprite.">
<polygon fill="white" stroke="#666666" points="1685,-392.5 1593,-392.5 1593,-373.5 1685,-373.5 1685,-392.5"/>
<text text-anchor="middle" x="1639" y="-380.5" font-family="Roboto" font-size="10.00">Urho3D::Sprite2D</text>
</a>
</g>
</g>
<!-- Node5&#45;&gt;Node9 -->
<g id="edge25" class="edge">
<title>Node5&#45;&gt;Node9</title>
<path fill="none" stroke="#9a32cd" stroke-dasharray="5,2" d="M1452.68,-233.82C1481.67,-252.08 1529.77,-283.66 1568,-315 1591.32,-334.12 1616.05,-359.53 1628.96,-373.23"/>
<polygon fill="#9a32cd" stroke="#9a32cd" points="1454.89,-231.07 1444.56,-228.73 1451.18,-237 1454.89,-231.07"/>
<text text-anchor="middle" x="1539.5" y="-318" font-family="Roboto" font-size="10.00"> hotSpot_</text>
</g>
<!-- Node6 -->
<g id="node6" class="node">
<title>Node6</title>
<g id="a_node6"><a xlink:href="class_urho3_d_1_1_vector.html" target="_top" xlink:title=" ">
<polygon fill="white" stroke="#666666" points="1896,-145 1771,-145 1771,-115 1896,-115 1896,-145"/>
<text text-anchor="start" x="1779" y="-133" font-family="Roboto" font-size="10.00">Urho3D::Vector&lt; Urho3D</text>
<text text-anchor="middle" x="1833.5" y="-122" font-family="Roboto" font-size="10.00">::Vector2 &gt;</text>
</a>
</g>
</g>
<!-- Node6&#45;&gt;Node1 -->
<g id="edge7" class="edge">
<title>Node6&#45;&gt;Node1</title>
<path fill="none" stroke="#9a32cd" stroke-dasharray="5,2" d="M1907.68,-140.85C1926.67,-143.67 1947,-146.69 1965.51,-149.43"/>
<polygon fill="#9a32cd" stroke="#9a32cd" points="1908.26,-137.4 1897.85,-139.4 1907.23,-144.33 1908.26,-137.4"/>
<text text-anchor="middle" x="1931" y="-149" font-family="Roboto" font-size="10.00"> points_</text>
</g>
<!-- Node7 -->
<g id="node7" class="node">
<title>Node7</title>
<g id="a_node7"><a xlink:href="class_urho3_d_1_1_vector_base.html" target="_top" xlink:title="Vector base class.">
<polygon fill="white" stroke="#666666" points="1692,-139.5 1586,-139.5 1586,-120.5 1692,-120.5 1692,-139.5"/>
<text text-anchor="middle" x="1639" y="-127.5" font-family="Roboto" font-size="10.00">Urho3D::VectorBase</text>
</a>
</g>
</g>
<!-- Node7&#45;&gt;Node6 -->
<g id="edge8" class="edge">
<title>Node7&#45;&gt;Node6</title>
<path fill="none" stroke="#63b8ff" d="M1703.69,-130C1725.21,-130 1749.21,-130 1770.59,-130"/>
<polygon fill="#63b8ff" stroke="#63b8ff" points="1703.86,-126.5 1693.86,-130 1703.86,-133.5 1703.86,-126.5"/>
</g>
<!-- Node8 -->
<g id="node8" class="node">
<title>Node8</title>
<g id="a_node8"><a xlink:href="class_urho3_d_1_1_shared_ptr.html" target="_top" xlink:title=" ">
<polygon fill="white" stroke="#666666" points="1885.5,-316 1781.5,-316 1781.5,-286 1885.5,-286 1885.5,-316"/>
<text text-anchor="start" x="1789.5" y="-304" font-family="Roboto" font-size="10.00">Urho3D::SharedPtr&lt;</text>
<text text-anchor="middle" x="1833.5" y="-293" font-family="Roboto" font-size="10.00"> Urho3D::Sprite2D &gt;</text>
</a>
</g>
</g>
<!-- Node8&#45;&gt;Node1 -->
<g id="edge9" class="edge">
<title>Node8&#45;&gt;Node1</title>
<path fill="none" stroke="#9a32cd" stroke-dasharray="5,2" d="M1868.94,-279.53C1891.76,-264.99 1922.15,-245.03 1948,-226 1974.06,-206.82 2003.04,-182.34 2018.62,-168.92"/>
<polygon fill="#9a32cd" stroke="#9a32cd" points="1867.2,-276.49 1860.62,-284.8 1870.94,-282.4 1867.2,-276.49"/>
<text text-anchor="middle" x="1931" y="-252" font-family="Roboto" font-size="10.00"> sprite_</text>
</g>
<!-- Node9&#45;&gt;Node8 -->
<g id="edge10" class="edge">
<title>Node9&#45;&gt;Node8</title>
<path fill="none" stroke="#9a32cd" stroke-dasharray="5,2" d="M1673.67,-368.66C1708.03,-354.02 1761.18,-331.38 1796.4,-316.38"/>
<polygon fill="#9a32cd" stroke="#9a32cd" points="1672.44,-365.38 1664.61,-372.52 1675.18,-371.82 1672.44,-365.38"/>
<text text-anchor="middle" x="1731.5" y="-354" font-family="Roboto" font-size="10.00"> ptr_</text>
</g>
<!-- Node10&#45;&gt;Node9 -->
<g id="edge11" class="edge">
<title>Node10&#45;&gt;Node9</title>
<path fill="none" stroke="#63b8ff" d="M1043.99,-490.78C1113.83,-535.61 1325.73,-656.67 1493,-595 1584.63,-561.22 1625.6,-430.09 1635.53,-392.89"/>
<polygon fill="#63b8ff" stroke="#63b8ff" points="1046.3,-488.1 1036.01,-485.57 1042.47,-493.96 1046.3,-488.1"/>
</g>
<!-- Node10&#45;&gt;Node88 -->
<g id="edge30" class="edge">
<title>Node10&#45;&gt;Node88</title>
<path fill="none" stroke="#63b8ff" d="M1053.66,-460.76C1090.5,-444.94 1149.03,-419.82 1181.28,-405.97"/>
<polygon fill="#63b8ff" stroke="#63b8ff" points="1052.63,-457.4 1044.82,-464.56 1055.39,-463.83 1052.63,-457.4"/>
</g>
<!-- Node11&#45;&gt;Node10 -->
<g id="edge12" class="edge">
<title>Node11&#45;&gt;Node10</title>
<path fill="none" stroke="#63b8ff" d="M802.1,-458.07C851.19,-461.91 924.08,-467.62 971.45,-471.32"/>
<polygon fill="#63b8ff" stroke="#63b8ff" points="802.53,-454.6 792.29,-457.31 801.98,-461.58 802.53,-454.6"/>
</g>
<!-- Node12&#45;&gt;Node11 -->
<g id="edge14" class="edge">
<title>Node12&#45;&gt;Node11</title>
<path fill="none" stroke="#9a32cd" stroke-dasharray="5,2" d="M582.19,-387.17C612.82,-386.08 650.37,-389.44 679,-407 691.93,-414.93 685.18,-426.49 697,-436 701.02,-439.24 705.67,-441.91 710.49,-444.12"/>
<polygon fill="#9a32cd" stroke="#9a32cd" points="582.14,-383.67 572.34,-387.7 582.52,-390.66 582.14,-383.67"/>
<text text-anchor="middle" x="643.5" y="-410" font-family="Roboto" font-size="10.00"> context_</text>
</g>
<!-- Node29 -->
<g id="node13" class="node">
<title>Node29</title>
<g id="a_node13"><a xlink:href="class_urho3_d_1_1_linked_list.html" target="_top" xlink:title=" ">
<polygon fill="white" stroke="orangered" points="590,-490 462,-490 462,-460 590,-460 590,-490"/>
<text text-anchor="start" x="470" y="-478" font-family="Roboto" font-size="10.00">Urho3D::LinkedList</text>
<text text-anchor="middle" x="526" y="-467" font-family="Roboto" font-size="10.00">&lt; Urho3D::EventHandler &gt;</text>
</a>
</g>
</g>
<!-- Node29&#45;&gt;Node11 -->
<g id="edge16" class="edge">
<title>Node29&#45;&gt;Node11</title>
<path fill="none" stroke="#9a32cd" stroke-dasharray="5,2" d="M601.59,-467.91C636.93,-464.55 677.77,-460.67 707.32,-457.87"/>
<polygon fill="#9a32cd" stroke="#9a32cd" points="601.46,-464.41 591.84,-468.84 602.12,-471.38 601.46,-464.41"/>
<text text-anchor="middle" x="643.5" y="-469" font-family="Roboto" font-size="10.00"> eventHandlers_</text>
</g>
<!-- Node26 -->
<g id="node14" class="node">
<title>Node26</title>
<g id="a_node14"><a xlink:href="class_urho3_d_1_1_string_hash.html" target="_top" xlink:title="32&#45;bit hash value for a string.">
<polygon fill="white" stroke="#666666" points="801,-537.5 697,-537.5 697,-518.5 801,-518.5 801,-537.5"/>
<text text-anchor="middle" x="749" y="-525.5" font-family="Roboto" font-size="10.00">Urho3D::StringHash</text>
</a>
</g>
</g>
<!-- Node26&#45;&gt;Node10 -->
<g id="edge18" class="edge">
<title>Node26&#45;&gt;Node10</title>
<path fill="none" stroke="#9a32cd" stroke-dasharray="5,2" d="M812.62,-522.85C851.66,-518.79 902.72,-511.95 947,-501 963.41,-496.94 981.29,-490.44 995.06,-484.96"/>
<polygon fill="#9a32cd" stroke="#9a32cd" points="812.28,-519.36 802.68,-523.84 812.98,-526.33 812.28,-519.36"/>
<text text-anchor="middle" x="883" y="-524" font-family="Roboto" font-size="10.00"> nameHash_</text>
</g>
<!-- Node26&#45;&gt;Node26 -->
<g id="edge19" class="edge">
<title>Node26&#45;&gt;Node26</title>
<path fill="none" stroke="#9a32cd" stroke-dasharray="5,2" d="M730.27,-548.93C732.62,-552.79 738.86,-555.5 749,-555.5 767.54,-555.5 773.05,-546.44 765.52,-537.87"/>
<polygon fill="#9a32cd" stroke="#9a32cd" points="733.66,-549.84 732.19,-539.35 726.8,-548.47 733.66,-549.84"/>
<text text-anchor="middle" x="749" y="-558.5" font-family="Roboto" font-size="10.00"> ZERO</text>
</g>
<!-- Node30 -->
<g id="node15" class="node">
<title>Node30</title>
<g id="a_node15"><a xlink:href="class_urho3_d_1_1_timer.html" target="_top" xlink:title="Low&#45;resolution operating system timer.">
<polygon fill="white" stroke="#666666" points="789.5,-500.5 708.5,-500.5 708.5,-481.5 789.5,-481.5 789.5,-500.5"/>
<text text-anchor="middle" x="749" y="-488.5" font-family="Roboto" font-size="10.00">Urho3D::Timer</text>
</a>
</g>
</g>
<!-- Node30&#45;&gt;Node10 -->
<g id="edge20" class="edge">
<title>Node30&#45;&gt;Node10</title>
<path fill="none" stroke="#9a32cd" stroke-dasharray="5,2" d="M801.19,-487.95C850.18,-485.03 923.46,-480.66 971.12,-477.82"/>
<polygon fill="#9a32cd" stroke="#9a32cd" points="801.19,-484.44 791.42,-488.53 801.61,-491.43 801.19,-484.44"/>
<text text-anchor="middle" x="883" y="-489" font-family="Roboto" font-size="10.00"> useTimer_</text>
</g>
<!-- Node31 -->
<g id="node16" class="node">
<title>Node31</title>
<g id="a_node16"><a xlink:href="class_urho3_d_1_1_shared_ptr.html" target="_top" xlink:title=" ">
<polygon fill="white" stroke="#666666" points="1074,-355 965,-355 965,-325 1074,-325 1074,-355"/>
<text text-anchor="start" x="973" y="-343" font-family="Roboto" font-size="10.00">Urho3D::SharedPtr&lt;</text>
<text text-anchor="middle" x="1019.5" y="-332" font-family="Roboto" font-size="10.00"> Urho3D::Texture2D &gt;</text>
</a>
</g>
</g>
<!-- Node31&#45;&gt;Node9 -->
<g id="edge21" class="edge">
<title>Node31&#45;&gt;Node9</title>
<path fill="none" stroke="#9a32cd" stroke-dasharray="5,2" d="M1085.41,-340.07C1176.65,-340.75 1347.91,-344.13 1493,-359 1526.63,-362.45 1564.29,-368.75 1592.8,-374.04"/>
<polygon fill="#9a32cd" stroke="#9a32cd" points="1085.69,-336.57 1075.67,-340.01 1085.64,-343.57 1085.69,-336.57"/>
<text text-anchor="middle" x="1311.5" y="-361" font-family="Roboto" font-size="10.00"> loadTexture_</text>
<text text-anchor="middle" x="1311.5" y="-350" font-family="Roboto" font-size="10.00">texture_</text>
</g>
<!-- Node31&#45;&gt;Node88 -->
<g id="edge31" class="edge">
<title>Node31&#45;&gt;Node88</title>
<path fill="none" stroke="#9a32cd" stroke-dasharray="5,2" d="M1082.08,-358.74C1112.12,-367.88 1147.02,-378.51 1171.86,-386.07"/>
<polygon fill="#9a32cd" stroke="#9a32cd" points="1083.3,-355.45 1072.71,-355.89 1081.26,-362.15 1083.3,-355.45"/>
<text text-anchor="middle" x="1110.5" y="-376" font-family="Roboto" font-size="10.00"> texture_</text>
</g>
<!-- Node32 -->
<g id="node17" class="node">
<title>Node32</title>
<g id="a_node17"><a xlink:href="class_urho3_d_1_1_texture2_d.html" target="_top" xlink:title="2D texture resource.">
<polygon fill="#fff0f0" stroke="red" points="798.5,-151.5 699.5,-151.5 699.5,-132.5 798.5,-132.5 798.5,-151.5"/>
<text text-anchor="middle" x="749" y="-139.5" font-family="Roboto" font-size="10.00">Urho3D::Texture2D</text>
</a>
</g>
</g>
<!-- Node32&#45;&gt;Node31 -->
<g id="edge22" class="edge">
<title>Node32&#45;&gt;Node31</title>
<path fill="none" stroke="#9a32cd" stroke-dasharray="5,2" d="M772.53,-158.62C823.74,-196.37 948.21,-288.17 997.7,-324.66"/>
<polygon fill="#9a32cd" stroke="#9a32cd" points="774.66,-155.84 764.53,-152.72 770.5,-161.47 774.66,-155.84"/>
<text text-anchor="middle" x="883" y="-289" font-family="Roboto" font-size="10.00"> ptr_</text>
</g>
<!-- Node73 -->
<g id="node18" class="node">
<title>Node73</title>
<g id="a_node18"><a xlink:href="class_urho3_d_1_1_int_rect.html" target="_top" xlink:title="Two&#45;dimensional bounding rectangle with integer values.">
<polygon fill="white" stroke="#666666" points="1469,-556.5 1383,-556.5 1383,-537.5 1469,-537.5 1469,-556.5"/>
<text text-anchor="middle" x="1426" y="-544.5" font-family="Roboto" font-size="10.00">Urho3D::IntRect</text>
</a>
</g>
</g>
<!-- Node73&#45;&gt;Node9 -->
<g id="edge23" class="edge">
<title>Node73&#45;&gt;Node9</title>
<path fill="none" stroke="#9a32cd" stroke-dasharray="5,2" d="M1479.92,-535.28C1484.48,-533.47 1488.9,-531.39 1493,-529 1556.89,-491.77 1612.26,-419.29 1631.12,-392.91"/>
<polygon fill="#9a32cd" stroke="#9a32cd" points="1478.89,-531.94 1470.6,-538.54 1481.19,-538.54 1478.89,-531.94"/>
<text text-anchor="middle" x="1539.5" y="-519" font-family="Roboto" font-size="10.00"> rectangle_</text>
</g>
<!-- Node73&#45;&gt;Node73 -->
<g id="edge24" class="edge">
<title>Node73&#45;&gt;Node73</title>
<path fill="none" stroke="#9a32cd" stroke-dasharray="5,2" d="M1405.85,-567.93C1408.37,-571.79 1415.09,-574.5 1426,-574.5 1445.95,-574.5 1451.87,-565.44 1443.77,-556.87"/>
<polygon fill="#9a32cd" stroke="#9a32cd" points="1409.23,-568.86 1407.91,-558.35 1402.39,-567.39 1409.23,-568.86"/>
<text text-anchor="middle" x="1426" y="-577.5" font-family="Roboto" font-size="10.00"> ZERO</text>
</g>
<!-- Node63 -->
<g id="node19" class="node">
<title>Node63</title>
<g id="a_node19"><a xlink:href="class_urho3_d_1_1_int_vector2.html" target="_top" xlink:title="Two&#45;dimensional vector with integer values.">
<polygon fill="white" stroke="#666666" points="1476.5,-435.5 1375.5,-435.5 1375.5,-416.5 1476.5,-416.5 1476.5,-435.5"/>
<text text-anchor="middle" x="1426" y="-423.5" font-family="Roboto" font-size="10.00">Urho3D::IntVector2</text>
</a>
</g>
</g>
<!-- Node63&#45;&gt;Node9 -->
<g id="edge26" class="edge">
<title>Node63&#45;&gt;Node9</title>
<path fill="none" stroke="#9a32cd" stroke-dasharray="5,2" d="M1488.05,-414.09C1512.87,-409.19 1541.82,-403.4 1568,-398 1576.03,-396.34 1584.58,-394.54 1592.83,-392.78"/>
<polygon fill="#9a32cd" stroke="#9a32cd" points="1487.58,-410.61 1478.44,-415.98 1488.93,-417.48 1487.58,-410.61"/>
<text text-anchor="middle" x="1539.5" y="-411" font-family="Roboto" font-size="10.00"> offset_</text>
</g>
<!-- Node63&#45;&gt;Node63 -->
<g id="edge27" class="edge">
<title>Node63&#45;&gt;Node63</title>
<path fill="none" stroke="#9a32cd" stroke-dasharray="5,2" d="M1405.85,-446.93C1408.37,-450.79 1415.09,-453.5 1426,-453.5 1445.95,-453.5 1451.87,-444.44 1443.77,-435.87"/>
<polygon fill="#9a32cd" stroke="#9a32cd" points="1409.23,-447.86 1407.91,-437.35 1402.39,-446.39 1409.23,-447.86"/>
<text text-anchor="middle" x="1426" y="-511.5" font-family="Roboto" font-size="10.00"> DOWN</text>
<text text-anchor="middle" x="1426" y="-500.5" font-family="Roboto" font-size="10.00">LEFT</text>
<text text-anchor="middle" x="1426" y="-489.5" font-family="Roboto" font-size="10.00">ONE</text>
<text text-anchor="middle" x="1426" y="-478.5" font-family="Roboto" font-size="10.00">RIGHT</text>
<text text-anchor="middle" x="1426" y="-467.5" font-family="Roboto" font-size="10.00">UP</text>
<text text-anchor="middle" x="1426" y="-456.5" font-family="Roboto" font-size="10.00">ZERO</text>
</g>
<!-- Node87&#45;&gt;Node9 -->
<g id="edge28" class="edge">
<title>Node87&#45;&gt;Node9</title>
<path fill="none" stroke="#9a32cd" stroke-dasharray="5,2" d="M1504.63,-383C1534.2,-383 1566.92,-383 1592.55,-383"/>
<polygon fill="#9a32cd" stroke="#9a32cd" points="1504.99,-379.5 1494.99,-383 1504.99,-386.5 1504.99,-379.5"/>
<text text-anchor="middle" x="1539.5" y="-386" font-family="Roboto" font-size="10.00"> spriteSheet_</text>
</g>
<!-- Node88&#45;&gt;Node87 -->
<g id="edge29" class="edge">
<title>Node88&#45;&gt;Node87</title>
<path fill="none" stroke="#9a32cd" stroke-dasharray="5,2" d="M1275.96,-391.87C1302.41,-390.29 1332.47,-388.51 1358.63,-386.95"/>
<polygon fill="#9a32cd" stroke="#9a32cd" points="1275.77,-388.37 1265.99,-392.46 1276.18,-395.36 1275.77,-388.37"/>
<text text-anchor="middle" x="1311.5" y="-394" font-family="Roboto" font-size="10.00"> ptr_</text>
</g>
<!-- Node98 -->
<g id="node22" class="node">
<title>Node98</title>
<g id="a_node22"><a xlink:href="class_urho3_d_1_1_shared_ptr.html" target="_top" xlink:title=" ">
<polygon fill="white" stroke="#666666" points="947,-102 819,-102 819,-72 947,-72 947,-102"/>
<text text-anchor="start" x="827" y="-90" font-family="Roboto" font-size="10.00">Urho3D::SharedPtr&lt;</text>
<text text-anchor="middle" x="883" y="-79" font-family="Roboto" font-size="10.00"> Urho3D::PropertySet2D &gt;</text>
</a>
</g>
</g>
<!-- Node98&#45;&gt;Node1 -->
<g id="edge34" class="edge">
<title>Node98&#45;&gt;Node1</title>
<path fill="none" stroke="#9a32cd" stroke-dasharray="5,2" d="M958.64,-87C1002.56,-87 1059.19,-87 1109.5,-87 1109.5,-87 1109.5,-87 1834.5,-87 1905.75,-87 1983.11,-129.64 2014.99,-149.29"/>
<polygon fill="#9a32cd" stroke="#9a32cd" points="958.69,-83.5 948.69,-87 958.69,-90.5 958.69,-83.5"/>
<text text-anchor="middle" x="1426" y="-90" font-family="Roboto" font-size="10.00"> propertySet_</text>
</g>
<!-- Node99&#45;&gt;Node98 -->
<g id="edge35" class="edge">
<title>Node99&#45;&gt;Node98</title>
<path fill="none" stroke="#9a32cd" stroke-dasharray="5,2" d="M596.5,-87C661,-87 756.2,-87 818.65,-87"/>
<polygon fill="#9a32cd" stroke="#9a32cd" points="596.74,-83.5 586.74,-87 596.74,-90.5 596.74,-83.5"/>
<text text-anchor="middle" x="643.5" y="-90" font-family="Roboto" font-size="10.00"> ptr_</text>
</g>
<!-- Node100 -->
<g id="node24" class="node">
<title>Node100</title>
<g id="a_node24"><a xlink:href="class_urho3_d_1_1_hash_map.html" target="_top" xlink:title=" ">
<polygon fill="white" stroke="#666666" points="321,-30 182,-30 182,0 321,0 321,-30"/>
<text text-anchor="start" x="190" y="-18" font-family="Roboto" font-size="10.00">Urho3D::HashMap&lt; Urho3D</text>
<text text-anchor="middle" x="251.5" y="-7" font-family="Roboto" font-size="10.00">::String, Urho3D::String &gt;</text>
</a>
</g>
</g>
<!-- Node100&#45;&gt;Node99 -->
<g id="edge37" class="edge">
<title>Node100&#45;&gt;Node99</title>
<path fill="none" stroke="#9a32cd" stroke-dasharray="5,2" d="M321.88,-33.33C374.4,-47.21 444.55,-65.74 487.17,-77"/>
<polygon fill="#9a32cd" stroke="#9a32cd" points="322.98,-30 312.42,-30.83 321.2,-36.77 322.98,-30"/>
<text text-anchor="middle" x="391.5" y="-67" font-family="Roboto" font-size="10.00"> nameToValueMapping_</text>
</g>
<!-- Node14 -->
<g id="node25" class="node">
<title>Node14</title>
<g id="a_node25"><a xlink:href="class_urho3_d_1_1_hash_base.html" target="_top" xlink:title="Hash set/map base class.">
<polygon fill="#fff0f0" stroke="red" points="100,-24.5 0,-24.5 0,-5.5 100,-5.5 100,-24.5"/>
<text text-anchor="middle" x="50" y="-12.5" font-family="Roboto" font-size="10.00">Urho3D::HashBase</text>
</a>
</g>
</g>
<!-- Node14&#45;&gt;Node100 -->
<g id="edge38" class="edge">
<title>Node14&#45;&gt;Node100</title>
<path fill="none" stroke="#63b8ff" d="M111.6,-15C133.76,-15 158.99,-15 181.81,-15"/>
<polygon fill="#63b8ff" stroke="#63b8ff" points="111.83,-11.5 101.83,-15 111.83,-18.5 111.83,-11.5"/>
</g>
</g>
</svg>
