<?xml version="1.0" encoding="UTF-8" standalone="no"?>
<!DOCTYPE svg PUBLIC "-//W3C//DTD SVG 1.1//EN"
 "http://www.w3.org/Graphics/SVG/1.1/DTD/svg11.dtd">
<!-- Generated by graphviz version 7.0.3 (0)
 -->
<!-- Title: Urho3D::Camera::GetViewMask Pages: 1 -->
<svg width="1502pt" height="119pt"
 viewBox="0.00 0.00 1502.00 119.00" xmlns="http://www.w3.org/2000/svg" xmlns:xlink="http://www.w3.org/1999/xlink">
<g id="graph0" class="graph" transform="scale(1 1) rotate(0) translate(4 115)">
<title>Urho3D::Camera::GetViewMask</title>
<!-- Node1 -->
<g id="node1" class="node">
<title>Node1</title>
<g id="a_node1"><a xlink:title=" ">
<polygon fill="#999999" stroke="#666666" points="1494,-56 1339,-56 1339,-37 1494,-37 1494,-56"/>
<text text-anchor="middle" x="1416.5" y="-44" font-family="Roboto" font-size="10.00">Urho3D::Camera::GetViewMask</text>
</a>
</g>
</g>
<!-- Node2 -->
<g id="node2" class="node">
<title>Node2</title>
<g id="a_node2"><a xlink:href="class_urho3_d_1_1_view.html#ae6b753dabd0921ef05ce5d73b75c6209" target="_top" xlink:title="Find and set a new zone for a drawable when it has moved.">
<polygon fill="white" stroke="#666666" points="1293.5,-111 1171.5,-111 1171.5,-92 1293.5,-92 1293.5,-111"/>
<text text-anchor="middle" x="1232.5" y="-99" font-family="Roboto" font-size="10.00">Urho3D::View::FindZone</text>
</a>
</g>
</g>
<!-- Node1&#45;&gt;Node2 -->
<g id="edge1" class="edge">
<title>Node1&#45;&gt;Node2</title>
<path fill="none" stroke="#63b8ff" d="M1376.3,-60.08C1354.77,-67.37 1327.53,-76.3 1303,-83.5 1293.55,-86.27 1283.32,-89.05 1273.68,-91.56"/>
<polygon fill="#63b8ff" stroke="#63b8ff" points="1377.22,-63.46 1385.56,-56.93 1374.96,-56.84 1377.22,-63.46"/>
</g>
<!-- Node3 -->
<g id="node3" class="node">
<title>Node3</title>
<g id="a_node3"><a xlink:href="class_urho3_d_1_1_view.html#a0cddca92d8a715b17404427840d201fb" target="_top" xlink:title="Query the octree for drawable objects.">
<polygon fill="white" stroke="#666666" points="1303,-56 1162,-56 1162,-37 1303,-37 1303,-56"/>
<text text-anchor="middle" x="1232.5" y="-44" font-family="Roboto" font-size="10.00">Urho3D::View::GetDrawables</text>
</a>
</g>
</g>
<!-- Node1&#45;&gt;Node3 -->
<g id="edge2" class="edge">
<title>Node1&#45;&gt;Node3</title>
<path fill="none" stroke="#63b8ff" d="M1327.32,-46.5C1319.33,-46.5 1311.3,-46.5 1303.5,-46.5"/>
<polygon fill="#63b8ff" stroke="#63b8ff" points="1327.07,-50 1337.07,-46.5 1327.07,-43 1327.07,-50"/>
</g>
<!-- Node11 -->
<g id="node11" class="node">
<title>Node11</title>
<g id="a_node11"><a xlink:href="class_urho3_d_1_1_view.html#a8386e461553bac5a6b4512b8a9712e79" target="_top" xlink:title="Query for lit geometries and shadow casters for a light.">
<polygon fill="white" stroke="#666666" points="1301,-19 1164,-19 1164,0 1301,0 1301,-19"/>
<text text-anchor="middle" x="1232.5" y="-7" font-family="Roboto" font-size="10.00">Urho3D::View::ProcessLight</text>
</a>
</g>
</g>
<!-- Node1&#45;&gt;Node11 -->
<g id="edge12" class="edge">
<title>Node1&#45;&gt;Node11</title>
<path fill="none" stroke="#63b8ff" d="M1355.71,-34.35C1331.96,-29.52 1304.97,-24.03 1282.41,-19.44"/>
<polygon fill="#63b8ff" stroke="#63b8ff" points="1354.75,-37.72 1365.24,-36.28 1356.14,-30.86 1354.75,-37.72"/>
</g>
<!-- Node3&#45;&gt;Node3 -->
<g id="edge3" class="edge">
<title>Node3&#45;&gt;Node3</title>
<path fill="none" stroke="#63b8ff" d="M1261.64,-67.1C1258.28,-71.13 1248.57,-74 1232.5,-74 1203.94,-74 1195.46,-64.94 1207.06,-56.37"/>
<polygon fill="#63b8ff" stroke="#63b8ff" points="1265,-66.11 1258.43,-57.8 1258.38,-68.39 1265,-66.11"/>
</g>
<!-- Node4 -->
<g id="node4" class="node">
<title>Node4</title>
<g id="a_node4"><a xlink:href="class_urho3_d_1_1_view.html#a50c3fe5d5c2b3040e13925aa277a8d93" target="_top" xlink:title="Update and cull objects and construct rendering batches.">
<polygon fill="white" stroke="#666666" points="1126,-56 1014,-56 1014,-37 1126,-37 1126,-56"/>
<text text-anchor="middle" x="1070" y="-44" font-family="Roboto" font-size="10.00">Urho3D::View::Update</text>
</a>
</g>
</g>
<!-- Node3&#45;&gt;Node4 -->
<g id="edge4" class="edge">
<title>Node3&#45;&gt;Node4</title>
<path fill="none" stroke="#63b8ff" d="M1150.15,-46.5C1142.05,-46.5 1133.97,-46.5 1126.23,-46.5"/>
<polygon fill="#63b8ff" stroke="#63b8ff" points="1150.06,-50 1160.06,-46.5 1150.06,-43 1150.06,-50"/>
</g>
<!-- Node5 -->
<g id="node5" class="node">
<title>Node5</title>
<g id="a_node5"><a xlink:href="class_urho3_d_1_1_renderer.html#a0fa71f5839321a9d68def7a2978f452a" target="_top" xlink:title="Update a queued viewport for rendering.">
<polygon fill="white" stroke="#666666" points="978,-61.5 847,-61.5 847,-31.5 978,-31.5 978,-61.5"/>
<text text-anchor="start" x="855" y="-49.5" font-family="Roboto" font-size="10.00">Urho3D::Renderer::Update</text>
<text text-anchor="middle" x="912.5" y="-38.5" font-family="Roboto" font-size="10.00">QueuedViewport</text>
</a>
</g>
</g>
<!-- Node4&#45;&gt;Node5 -->
<g id="edge5" class="edge">
<title>Node4&#45;&gt;Node5</title>
<path fill="none" stroke="#63b8ff" d="M1002.29,-46.5C994.38,-46.5 986.3,-46.5 978.41,-46.5"/>
<polygon fill="#63b8ff" stroke="#63b8ff" points="1002.23,-50 1012.23,-46.5 1002.23,-43 1002.23,-50"/>
</g>
<!-- Node6 -->
<g id="node6" class="node">
<title>Node6</title>
<g id="a_node6"><a xlink:href="class_urho3_d_1_1_renderer.html#a993f63f35d27a9ea6df861962018f354" target="_top" xlink:title="Update for rendering. Called by HandleRenderUpdate().">
<polygon fill="white" stroke="#666666" points="811,-56 680,-56 680,-37 811,-37 811,-56"/>
<text text-anchor="middle" x="745.5" y="-44" font-family="Roboto" font-size="10.00">Urho3D::Renderer::Update</text>
</a>
</g>
</g>
<!-- Node5&#45;&gt;Node6 -->
<g id="edge6" class="edge">
<title>Node5&#45;&gt;Node6</title>
<path fill="none" stroke="#63b8ff" d="M835.45,-46.5C827.39,-46.5 819.24,-46.5 811.32,-46.5"/>
<polygon fill="#63b8ff" stroke="#63b8ff" points="835.25,-50 845.25,-46.5 835.25,-43 835.25,-50"/>
</g>
<!-- Node7 -->
<g id="node7" class="node">
<title>Node7</title>
<g id="a_node7"><a xlink:href="class_urho3_d_1_1_renderer.html#adf594e7a524f6e003e8370cf23dbee13" target="_top" xlink:title="Handle render update event.">
<polygon fill="white" stroke="#666666" points="644,-61.5 513,-61.5 513,-31.5 644,-31.5 644,-61.5"/>
<text text-anchor="start" x="521" y="-49.5" font-family="Roboto" font-size="10.00">Urho3D::Renderer::Handle</text>
<text text-anchor="middle" x="578.5" y="-38.5" font-family="Roboto" font-size="10.00">RenderUpdate</text>
</a>
</g>
</g>
<!-- Node6&#45;&gt;Node7 -->
<g id="edge7" class="edge">
<title>Node6&#45;&gt;Node7</title>
<path fill="none" stroke="#63b8ff" d="M668.45,-46.5C660.39,-46.5 652.24,-46.5 644.32,-46.5"/>
<polygon fill="#63b8ff" stroke="#63b8ff" points="668.25,-50 678.25,-46.5 668.25,-43 668.25,-50"/>
</g>
<!-- Node8 -->
<g id="node8" class="node">
<title>Node8</title>
<g id="a_node8"><a xlink:href="class_urho3_d_1_1_renderer.html#ae0d765a240f7cf5f829ddc95cb2729c9" target="_top" xlink:title="Initialize when screen mode initially set.">
<polygon fill="white" stroke="#666666" points="477,-56 342,-56 342,-37 477,-37 477,-56"/>
<text text-anchor="middle" x="409.5" y="-44" font-family="Roboto" font-size="10.00">Urho3D::Renderer::Initialize</text>
</a>
</g>
</g>
<!-- Node7&#45;&gt;Node8 -->
<g id="edge8" class="edge">
<title>Node7&#45;&gt;Node8</title>
<path fill="none" stroke="#63b8ff" d="M501.6,-46.5C493.52,-46.5 485.35,-46.5 477.38,-46.5"/>
<polygon fill="#63b8ff" stroke="#63b8ff" points="501.42,-50 511.42,-46.5 501.42,-43 501.42,-50"/>
</g>
<!-- Node9 -->
<g id="node9" class="node">
<title>Node9</title>
<g id="a_node9"><a xlink:href="class_urho3_d_1_1_renderer.html#ade42fa3aa8f7f48620bffc61ab32c635" target="_top" xlink:title="Handle screen mode event.">
<polygon fill="white" stroke="#666666" points="306,-83.5 175,-83.5 175,-53.5 306,-53.5 306,-83.5"/>
<text text-anchor="start" x="183" y="-71.5" font-family="Roboto" font-size="10.00">Urho3D::Renderer::Handle</text>
<text text-anchor="middle" x="240.5" y="-60.5" font-family="Roboto" font-size="10.00">ScreenMode</text>
</a>
</g>
</g>
<!-- Node8&#45;&gt;Node9 -->
<g id="edge9" class="edge">
<title>Node8&#45;&gt;Node9</title>
<path fill="none" stroke="#63b8ff" d="M330.27,-56.81C322.25,-57.86 314.16,-58.93 306.31,-59.96"/>
<polygon fill="#63b8ff" stroke="#63b8ff" points="330.58,-60.3 340.04,-55.52 329.66,-53.36 330.58,-60.3"/>
</g>
<!-- Node10 -->
<g id="node10" class="node">
<title>Node10</title>
<g id="a_node10"><a xlink:href="class_urho3_d_1_1_renderer.html#a8e41f9dda2e33e9e208c5ccfd0d1c6ac" target="_top" xlink:title="Construct.">
<polygon fill="white" stroke="#666666" points="139,-56 0,-56 0,-37 139,-37 139,-56"/>
<text text-anchor="middle" x="69.5" y="-44" font-family="Roboto" font-size="10.00">Urho3D::Renderer::Renderer</text>
</a>
</g>
</g>
<!-- Node8&#45;&gt;Node10 -->
<g id="edge11" class="edge">
<title>Node8&#45;&gt;Node10</title>
<path fill="none" stroke="#63b8ff" d="M330.07,-44.81C321.94,-44.68 313.8,-44.58 306,-44.5 247.78,-43.93 233.22,-43.94 175,-44.5 163.48,-44.61 151.24,-44.79 139.36,-45"/>
<polygon fill="#63b8ff" stroke="#63b8ff" points="329.94,-48.31 340,-44.98 330.06,-41.31 329.94,-48.31"/>
</g>
<!-- Node9&#45;&gt;Node10 -->
<g id="edge10" class="edge">
<title>Node9&#45;&gt;Node10</title>
<path fill="none" stroke="#63b8ff" d="M163.42,-58.6C155.42,-57.55 147.31,-56.5 139.39,-55.47"/>
<polygon fill="#63b8ff" stroke="#63b8ff" points="162.77,-62.04 173.14,-59.86 163.68,-55.1 162.77,-62.04"/>
</g>
</g>
</svg>
