<?xml version="1.0" encoding="UTF-8" standalone="no"?>
<!DOCTYPE svg PUBLIC "-//W3C//DTD SVG 1.1//EN"
 "http://www.w3.org/Graphics/SVG/1.1/DTD/svg11.dtd">
<!-- Generated by graphviz version 7.0.3 (0)
 -->
<!-- Title: Urho3D::Slider::OnDragBegin Pages: 1 -->
<svg width="438pt" height="51pt"
 viewBox="0.00 0.00 438.00 50.50" xmlns="http://www.w3.org/2000/svg" xmlns:xlink="http://www.w3.org/1999/xlink">
<g id="graph0" class="graph" transform="scale(1 1) rotate(0) translate(4 46.5)">
<title>Urho3D::Slider::OnDragBegin</title>
<!-- Node1 -->
<g id="node1" class="node">
<title>Node1</title>
<g id="a_node1"><a xlink:title="React to mouse drag begin.">
<polygon fill="#999999" stroke="#666666" points="141,-24.5 0,-24.5 0,-5.5 141,-5.5 141,-24.5"/>
<text text-anchor="middle" x="70.5" y="-12.5" font-family="Roboto" font-size="10.00">Urho3D::Slider::OnDragBegin</text>
</a>
</g>
</g>
<!-- Node2 -->
<g id="node2" class="node">
<title>Node2</title>
<g id="a_node2"><a xlink:href="class_urho3_d_1_1_u_i_element.html#a0c63c42b67cf6cee49ac02130c664d3f" target="_top" xlink:title="React to mouse drag begin.">
<polygon fill="white" stroke="#666666" points="282,-30 177,-30 177,0 282,0 282,-30"/>
<text text-anchor="start" x="185" y="-18" font-family="Roboto" font-size="10.00">Urho3D::UIElement::</text>
<text text-anchor="middle" x="229.5" y="-7" font-family="Roboto" font-size="10.00">OnDragBegin</text>
</a>
</g>
</g>
<!-- Node1&#45;&gt;Node2 -->
<g id="edge1" class="edge">
<title>Node1&#45;&gt;Node2</title>
<path fill="none" stroke="#63b8ff" d="M141.28,-15C149.31,-15 157.47,-15 165.41,-15"/>
<polygon fill="#63b8ff" stroke="#63b8ff" points="165.33,-18.5 175.33,-15 165.33,-11.5 165.33,-18.5"/>
</g>
<!-- Node3 -->
<g id="node3" class="node">
<title>Node3</title>
<g id="a_node3"><a xlink:href="_math_defs_8h.html#a66f1c3f10121770fd4beebe9b463a96f" target="_top" xlink:title="Count the number of set bits in a mask.">
<polygon fill="white" stroke="#666666" points="430,-24.5 318,-24.5 318,-5.5 430,-5.5 430,-24.5"/>
<text text-anchor="middle" x="374" y="-12.5" font-family="Roboto" font-size="10.00">Urho3D::CountSetBits</text>
</a>
</g>
</g>
<!-- Node2&#45;&gt;Node3 -->
<g id="edge2" class="edge">
<title>Node2&#45;&gt;Node3</title>
<path fill="none" stroke="#63b8ff" d="M282.35,-15C290.14,-15 298.26,-15 306.31,-15"/>
<polygon fill="#63b8ff" stroke="#63b8ff" points="306.07,-18.5 316.07,-15 306.07,-11.5 306.07,-18.5"/>
</g>
<!-- Node3&#45;&gt;Node3 -->
<g id="edge3" class="edge">
<title>Node3&#45;&gt;Node3</title>
<path fill="none" stroke="#63b8ff" d="M351.38,-24.87C341.06,-33.44 348.6,-42.5 374,-42.5 387.89,-42.5 396.44,-39.79 399.65,-35.93"/>
<polygon fill="#63b8ff" stroke="#63b8ff" points="403.04,-35.05 397.02,-26.33 396.28,-36.9 403.04,-35.05"/>
</g>
</g>
</svg>
