<?xml version="1.0" encoding="UTF-8" standalone="no"?>
<!DOCTYPE svg PUBLIC "-//W3C//DTD SVG 1.1//EN"
 "http://www.w3.org/Graphics/SVG/1.1/DTD/svg11.dtd">
<!-- Generated by graphviz version 7.0.3 (0)
 -->
<!-- Title: Urho3D::UI::SetFontHintLevel Pages: 1 -->
<svg width="499pt" height="27pt"
 viewBox="0.00 0.00 499.00 27.00" xmlns="http://www.w3.org/2000/svg" xmlns:xlink="http://www.w3.org/1999/xlink">
<g id="graph0" class="graph" transform="scale(1 1) rotate(0) translate(4 23)">
<title>Urho3D::UI::SetFontHintLevel</title>
<!-- Node1 -->
<g id="node1" class="node">
<title>Node1</title>
<g id="a_node1"><a xlink:title=" ">
<polygon fill="#999999" stroke="#666666" points="143,-19 0,-19 0,0 143,0 143,-19"/>
<text text-anchor="middle" x="71.5" y="-7" font-family="Roboto" font-size="10.00">Urho3D::UI::SetFontHintLevel</text>
</a>
</g>
</g>
<!-- Node2 -->
<g id="node2" class="node">
<title>Node2</title>
<g id="a_node2"><a xlink:href="class_urho3_d_1_1_u_i.html#aba4acefa333c93be113dcdacd366585e" target="_top" xlink:title="Force release of font faces when global font properties change.">
<polygon fill="white" stroke="#666666" points="328,-19 179,-19 179,0 328,0 328,-19"/>
<text text-anchor="middle" x="253.5" y="-7" font-family="Roboto" font-size="10.00">Urho3D::UI::ReleaseFontFaces</text>
</a>
</g>
</g>
<!-- Node1&#45;&gt;Node2 -->
<g id="edge1" class="edge">
<title>Node1&#45;&gt;Node2</title>
<path fill="none" stroke="#63b8ff" d="M143.38,-9.5C151.27,-9.5 159.37,-9.5 167.41,-9.5"/>
<polygon fill="#63b8ff" stroke="#63b8ff" points="167.21,-13 177.21,-9.5 167.21,-6 167.21,-13"/>
</g>
<!-- Node3 -->
<g id="node3" class="node">
<title>Node3</title>
<g id="a_node3"><a xlink:href="class_urho3_d_1_1_p_o_d_vector.html#ab1ba347a0118ed7d9ef79f3026153c88" target="_top" xlink:title="Return number of elements.">
<polygon fill="white" stroke="#666666" points="491,-19 364,-19 364,0 491,0 491,-19"/>
<text text-anchor="middle" x="427.5" y="-7" font-family="Roboto" font-size="10.00">Urho3D::PODVector::Size</text>
</a>
</g>
</g>
<!-- Node2&#45;&gt;Node3 -->
<g id="edge2" class="edge">
<title>Node2&#45;&gt;Node3</title>
<path fill="none" stroke="#63b8ff" d="M328.44,-9.5C336.33,-9.5 344.36,-9.5 352.26,-9.5"/>
<polygon fill="#63b8ff" stroke="#63b8ff" points="352.18,-13 362.18,-9.5 352.18,-6 352.18,-13"/>
</g>
</g>
</svg>
