<?xml version="1.0" encoding="UTF-8" standalone="no"?>
<!DOCTYPE svg PUBLIC "-//W3C//DTD SVG 1.1//EN"
 "http://www.w3.org/Graphics/SVG/1.1/DTD/svg11.dtd">
<!-- Generated by graphviz version 7.0.3 (0)
 -->
<!-- Title: Urho3D::XMLElement::GetValue Pages: 1 -->
<svg width="545pt" height="108pt"
 viewBox="0.00 0.00 545.00 108.00" xmlns="http://www.w3.org/2000/svg" xmlns:xlink="http://www.w3.org/1999/xlink">
<g id="graph0" class="graph" transform="scale(1 1) rotate(0) translate(4 104)">
<title>Urho3D::XMLElement::GetValue</title>
<!-- Node1 -->
<g id="node1" class="node">
<title>Node1</title>
<g id="a_node1"><a xlink:title=" ">
<polygon fill="#999999" stroke="#666666" points="537,-52 426,-52 426,-22 537,-22 537,-52"/>
<text text-anchor="start" x="434" y="-40" font-family="Roboto" font-size="10.00">Urho3D::XMLElement</text>
<text text-anchor="middle" x="481.5" y="-29" font-family="Roboto" font-size="10.00">::GetValue</text>
</a>
</g>
</g>
<!-- Node2 -->
<g id="node2" class="node">
<title>Node2</title>
<g id="a_node2"><a xlink:href="class_urho3_d_1_1_tmx_tile_layer2_d.html#aa63c454737f036166e5c70edd3421ae7" target="_top" xlink:title="Load from XML element.">
<polygon fill="white" stroke="#666666" points="390,-100 264,-100 264,-70 390,-70 390,-100"/>
<text text-anchor="start" x="272" y="-88" font-family="Roboto" font-size="10.00">Urho3D::TmxTileLayer2D</text>
<text text-anchor="middle" x="327" y="-77" font-family="Roboto" font-size="10.00">::Load</text>
</a>
</g>
</g>
<!-- Node1&#45;&gt;Node2 -->
<g id="edge1" class="edge">
<title>Node1&#45;&gt;Node2</title>
<path fill="none" stroke="#63b8ff" d="M420.56,-55.87C406.13,-60.41 390.87,-65.21 377,-69.58"/>
<polygon fill="#63b8ff" stroke="#63b8ff" points="421.48,-59.25 429.96,-52.91 419.38,-52.57 421.48,-59.25"/>
</g>
<!-- Node3 -->
<g id="node3" class="node">
<title>Node3</title>
<g id="a_node3"><a xlink:href="class_urho3_d_1_1_p_list_file.html#a7f13827147b1646b6ff1992f06789d78" target="_top" xlink:title="Load dictionary.">
<polygon fill="white" stroke="#666666" points="375,-52 279,-52 279,-22 375,-22 375,-52"/>
<text text-anchor="start" x="287" y="-40" font-family="Roboto" font-size="10.00">Urho3D::PListFile::</text>
<text text-anchor="middle" x="327" y="-29" font-family="Roboto" font-size="10.00">LoadDict</text>
</a>
</g>
</g>
<!-- Node1&#45;&gt;Node3 -->
<g id="edge2" class="edge">
<title>Node1&#45;&gt;Node3</title>
<path fill="none" stroke="#63b8ff" d="M414.42,-37C401.21,-37 387.59,-37 375.18,-37"/>
<polygon fill="#63b8ff" stroke="#63b8ff" points="414.36,-40.5 424.36,-37 414.36,-33.5 414.36,-40.5"/>
</g>
<!-- Node5 -->
<g id="node5" class="node">
<title>Node5</title>
<g id="a_node5"><a xlink:href="class_urho3_d_1_1_p_list_file.html#abf30c38da2f16d7a6a35b06431b8d3db" target="_top" xlink:title="Load value.">
<polygon fill="white" stroke="#666666" points="228,-30 132,-30 132,0 228,0 228,-30"/>
<text text-anchor="start" x="140" y="-18" font-family="Roboto" font-size="10.00">Urho3D::PListFile::</text>
<text text-anchor="middle" x="180" y="-7" font-family="Roboto" font-size="10.00">LoadValue</text>
</a>
</g>
</g>
<!-- Node1&#45;&gt;Node5 -->
<g id="edge8" class="edge">
<title>Node1&#45;&gt;Node5</title>
<path fill="none" stroke="#63b8ff" d="M420.78,-18.83C410.6,-16.41 400.06,-14.31 390,-13 334.77,-5.8 270.63,-7.95 228.12,-10.83"/>
<polygon fill="#63b8ff" stroke="#63b8ff" points="419.63,-22.15 430.18,-21.2 421.33,-15.37 419.63,-22.15"/>
</g>
<!-- Node4 -->
<g id="node4" class="node">
<title>Node4</title>
<g id="a_node4"><a xlink:href="class_urho3_d_1_1_p_list_file.html#a48721813989c5193e48116ae69e83ab6" target="_top" xlink:title="Load resource from stream. May be called from a worker thread. Return true if successful.">
<polygon fill="white" stroke="#666666" points="228,-78 132,-78 132,-48 228,-48 228,-78"/>
<text text-anchor="start" x="140" y="-66" font-family="Roboto" font-size="10.00">Urho3D::PListFile::</text>
<text text-anchor="middle" x="180" y="-55" font-family="Roboto" font-size="10.00">BeginLoad</text>
</a>
</g>
</g>
<!-- Node3&#45;&gt;Node4 -->
<g id="edge3" class="edge">
<title>Node3&#45;&gt;Node4</title>
<path fill="none" stroke="#63b8ff" d="M267.27,-47.53C254.24,-49.87 240.59,-52.32 228.09,-54.56"/>
<polygon fill="#63b8ff" stroke="#63b8ff" points="267.81,-50.99 277.03,-45.78 266.57,-44.1 267.81,-50.99"/>
</g>
<!-- Node3&#45;&gt;Node5 -->
<g id="edge4" class="edge">
<title>Node3&#45;&gt;Node5</title>
<path fill="none" stroke="#63b8ff" d="M267.27,-21.45C254.24,-19.26 240.59,-17.28 228.09,-15.78"/>
<polygon fill="#63b8ff" stroke="#63b8ff" points="266.58,-24.88 277.03,-23.16 267.78,-17.99 266.58,-24.88"/>
</g>
<!-- Node5&#45;&gt;Node3 -->
<g id="edge7" class="edge">
<title>Node5&#45;&gt;Node3</title>
<path fill="none" stroke="#63b8ff" d="M239.32,-30.48C252.35,-32.67 266,-34.66 278.52,-36.18"/>
<polygon fill="#63b8ff" stroke="#63b8ff" points="240.04,-27.05 229.58,-28.77 238.83,-33.95 240.04,-27.05"/>
</g>
<!-- Node6 -->
<g id="node6" class="node">
<title>Node6</title>
<g id="a_node6"><a xlink:href="class_urho3_d_1_1_p_list_file.html#a13348e1fd93ea0956987f822aef545b9" target="_top" xlink:title="Load array.">
<polygon fill="white" stroke="#666666" points="96,-30 0,-30 0,0 96,0 96,-30"/>
<text text-anchor="start" x="8" y="-18" font-family="Roboto" font-size="10.00">Urho3D::PListFile::</text>
<text text-anchor="middle" x="48" y="-7" font-family="Roboto" font-size="10.00">LoadArray</text>
</a>
</g>
</g>
<!-- Node5&#45;&gt;Node6 -->
<g id="edge5" class="edge">
<title>Node5&#45;&gt;Node6</title>
<path fill="none" stroke="#63b8ff" d="M120.21,-8.28C112.26,-8.21 104.2,-8.27 96.48,-8.47"/>
<polygon fill="#63b8ff" stroke="#63b8ff" points="120.13,-11.78 130.19,-8.45 120.25,-4.78 120.13,-11.78"/>
</g>
<!-- Node6&#45;&gt;Node5 -->
<g id="edge6" class="edge">
<title>Node6&#45;&gt;Node5</title>
<path fill="none" stroke="#63b8ff" d="M107.98,-21.72C115.93,-21.79 123.99,-21.73 131.7,-21.52"/>
<polygon fill="#63b8ff" stroke="#63b8ff" points="108.06,-18.23 98,-21.55 107.94,-25.22 108.06,-18.23"/>
</g>
</g>
</svg>
