<?xml version="1.0" encoding="UTF-8" standalone="no"?>
<!DOCTYPE svg PUBLIC "-//W3C//DTD SVG 1.1//EN"
 "http://www.w3.org/Graphics/SVG/1.1/DTD/svg11.dtd">
<!-- Generated by graphviz version 7.0.3 (0)
 -->
<!-- Title: Urho3D::Material::GetCullMode Pages: 1 -->
<svg width="1150pt" height="248pt"
 viewBox="0.00 0.00 1150.00 247.50" xmlns="http://www.w3.org/2000/svg" xmlns:xlink="http://www.w3.org/1999/xlink">
<g id="graph0" class="graph" transform="scale(1 1) rotate(0) translate(4 243.5)">
<title>Urho3D::Material::GetCullMode</title>
<!-- Node1 -->
<g id="node1" class="node">
<title>Node1</title>
<g id="a_node1"><a xlink:title=" ">
<polygon fill="#999999" stroke="#666666" points="1142,-138 989,-138 989,-119 1142,-119 1142,-138"/>
<text text-anchor="middle" x="1065.5" y="-126" font-family="Roboto" font-size="10.00">Urho3D::Material::GetCullMode</text>
</a>
</g>
</g>
<!-- Node2 -->
<g id="node2" class="node">
<title>Node2</title>
<g id="a_node2"><a xlink:href="class_urho3_d_1_1_custom_geometry.html#a31a154baaef524bd807cfeaae3e8f262" target="_top" xlink:title="Draw to occlusion buffer. Return true if did not run out of triangles.">
<polygon fill="white" stroke="#666666" points="953,-239.5 819,-239.5 819,-209.5 953,-209.5 953,-239.5"/>
<text text-anchor="start" x="827" y="-227.5" font-family="Roboto" font-size="10.00">Urho3D::CustomGeometry</text>
<text text-anchor="middle" x="886" y="-216.5" font-family="Roboto" font-size="10.00">::DrawOcclusion</text>
</a>
</g>
</g>
<!-- Node1&#45;&gt;Node2 -->
<g id="edge1" class="edge">
<title>Node1&#45;&gt;Node2</title>
<path fill="none" stroke="#63b8ff" d="M1042.25,-145.01C1020.36,-160.72 985.57,-184.32 953,-200.5 946.89,-203.54 940.29,-206.39 933.71,-209.01"/>
<polygon fill="#63b8ff" stroke="#63b8ff" points="1044.1,-147.99 1050.13,-139.28 1039.98,-142.33 1044.1,-147.99"/>
</g>
<!-- Node3 -->
<g id="node3" class="node">
<title>Node3</title>
<g id="a_node3"><a xlink:href="class_urho3_d_1_1_static_model.html#a934ce91d3123ebed38229a8994d8d8b6" target="_top" xlink:title="Draw to occlusion buffer. Return true if did not run out of triangles.">
<polygon fill="white" stroke="#666666" points="940,-191.5 832,-191.5 832,-161.5 940,-161.5 940,-191.5"/>
<text text-anchor="start" x="840" y="-179.5" font-family="Roboto" font-size="10.00">Urho3D::StaticModel</text>
<text text-anchor="middle" x="886" y="-168.5" font-family="Roboto" font-size="10.00">::DrawOcclusion</text>
</a>
</g>
</g>
<!-- Node1&#45;&gt;Node3 -->
<g id="edge2" class="edge">
<title>Node1&#45;&gt;Node3</title>
<path fill="none" stroke="#63b8ff" d="M1016.9,-141.37C993.25,-147.77 964.6,-155.51 940.23,-162.11"/>
<polygon fill="#63b8ff" stroke="#63b8ff" points="1017.52,-144.83 1026.26,-138.84 1015.69,-138.07 1017.52,-144.83"/>
</g>
<!-- Node4 -->
<g id="node4" class="node">
<title>Node4</title>
<g id="a_node4"><a xlink:href="class_urho3_d_1_1_static_model_group.html#a13fe7ab600249a608a696249ec27b1f2" target="_top" xlink:title="Draw to occlusion buffer. Return true if did not run out of triangles.">
<polygon fill="white" stroke="#666666" points="953,-143.5 819,-143.5 819,-113.5 953,-113.5 953,-143.5"/>
<text text-anchor="start" x="827" y="-131.5" font-family="Roboto" font-size="10.00">Urho3D::StaticModelGroup</text>
<text text-anchor="middle" x="886" y="-120.5" font-family="Roboto" font-size="10.00">::DrawOcclusion</text>
</a>
</g>
</g>
<!-- Node1&#45;&gt;Node4 -->
<g id="edge3" class="edge">
<title>Node1&#45;&gt;Node4</title>
<path fill="none" stroke="#63b8ff" d="M977.32,-128.5C969.24,-128.5 961.14,-128.5 953.29,-128.5"/>
<polygon fill="#63b8ff" stroke="#63b8ff" points="977.2,-132 987.2,-128.5 977.2,-125 977.2,-132"/>
</g>
<!-- Node5 -->
<g id="node5" class="node">
<title>Node5</title>
<g id="a_node5"><a xlink:href="class_urho3_d_1_1_terrain_patch.html#a88a34eac04ed50670992e3371f5821d8" target="_top" xlink:title="Draw to occlusion buffer. Return true if did not run out of triangles.">
<polygon fill="white" stroke="#666666" points="941,-95.5 831,-95.5 831,-65.5 941,-65.5 941,-95.5"/>
<text text-anchor="start" x="839" y="-83.5" font-family="Roboto" font-size="10.00">Urho3D::TerrainPatch</text>
<text text-anchor="middle" x="886" y="-72.5" font-family="Roboto" font-size="10.00">::DrawOcclusion</text>
</a>
</g>
</g>
<!-- Node1&#45;&gt;Node5 -->
<g id="edge4" class="edge">
<title>Node1&#45;&gt;Node5</title>
<path fill="none" stroke="#63b8ff" d="M1016.72,-115.58C993.44,-109.28 965.34,-101.68 941.25,-95.17"/>
<polygon fill="#63b8ff" stroke="#63b8ff" points="1015.69,-118.93 1026.26,-118.16 1017.52,-112.17 1015.69,-118.93"/>
</g>
<!-- Node6 -->
<g id="node6" class="node">
<title>Node6</title>
<g id="a_node6"><a xlink:href="struct_urho3_d_1_1_batch.html#ad8794a08ef43585f0c54aebf11f39e11" target="_top" xlink:title="Prepare for rendering.">
<polygon fill="white" stroke="#666666" points="944.5,-47 827.5,-47 827.5,-28 944.5,-28 944.5,-47"/>
<text text-anchor="middle" x="886" y="-35" font-family="Roboto" font-size="10.00">Urho3D::Batch::Prepare</text>
</a>
</g>
</g>
<!-- Node1&#45;&gt;Node6 -->
<g id="edge5" class="edge">
<title>Node1&#45;&gt;Node6</title>
<path fill="none" stroke="#63b8ff" d="M1042.85,-111.76C1021.15,-95.68 986.29,-71.64 953,-56.5 945.29,-53 936.79,-49.97 928.51,-47.44"/>
<polygon fill="#63b8ff" stroke="#63b8ff" points="1040.53,-114.4 1050.63,-117.62 1044.74,-108.81 1040.53,-114.4"/>
</g>
<!-- Node7 -->
<g id="node7" class="node">
<title>Node7</title>
<g id="a_node7"><a xlink:href="struct_urho3_d_1_1_batch.html#add3a46f1fc8c0dd490d0cc965bec2e5b" target="_top" xlink:title="Prepare and draw.">
<polygon fill="white" stroke="#666666" points="783,-69 676,-69 676,-50 783,-50 783,-69"/>
<text text-anchor="middle" x="729.5" y="-57" font-family="Roboto" font-size="10.00">Urho3D::Batch::Draw</text>
</a>
</g>
</g>
<!-- Node6&#45;&gt;Node7 -->
<g id="edge6" class="edge">
<title>Node6&#45;&gt;Node7</title>
<path fill="none" stroke="#63b8ff" d="M815.82,-47.35C804.95,-48.9 793.87,-50.48 783.44,-51.96"/>
<polygon fill="#63b8ff" stroke="#63b8ff" points="816.13,-50.84 825.53,-45.97 815.14,-43.91 816.13,-50.84"/>
</g>
<!-- Node12 -->
<g id="node12" class="node">
<title>Node12</title>
<g id="a_node12"><a xlink:href="struct_urho3_d_1_1_batch_group.html#ae44c18517fde1462221ddc7c7a1b2cd4" target="_top" xlink:title="Prepare and draw.">
<polygon fill="white" stroke="#666666" points="782.5,-31.5 676.5,-31.5 676.5,-1.5 782.5,-1.5 782.5,-31.5"/>
<text text-anchor="start" x="684.5" y="-19.5" font-family="Roboto" font-size="10.00">Urho3D::BatchGroup</text>
<text text-anchor="middle" x="729.5" y="-8.5" font-family="Roboto" font-size="10.00">::Draw</text>
</a>
</g>
</g>
<!-- Node6&#45;&gt;Node12 -->
<g id="edge13" class="edge">
<title>Node6&#45;&gt;Node12</title>
<path fill="none" stroke="#63b8ff" d="M815.68,-28.08C804.68,-26.58 793.47,-25.06 782.94,-23.63"/>
<polygon fill="#63b8ff" stroke="#63b8ff" points="815.15,-31.54 825.53,-29.42 816.09,-24.6 815.15,-31.54"/>
</g>
<!-- Node8 -->
<g id="node8" class="node">
<title>Node8</title>
<g id="a_node8"><a xlink:href="struct_urho3_d_1_1_batch_queue.html#a9a3a0ba457231d2a75e65fe2a1d1d94c" target="_top" xlink:title="Draw.">
<polygon fill="white" stroke="#666666" points="640,-52.5 533,-52.5 533,-22.5 640,-22.5 640,-52.5"/>
<text text-anchor="start" x="541" y="-40.5" font-family="Roboto" font-size="10.00">Urho3D::BatchQueue</text>
<text text-anchor="middle" x="586.5" y="-29.5" font-family="Roboto" font-size="10.00">::Draw</text>
</a>
</g>
</g>
<!-- Node7&#45;&gt;Node8 -->
<g id="edge7" class="edge">
<title>Node7&#45;&gt;Node8</title>
<path fill="none" stroke="#63b8ff" d="M664.32,-49.49C656.26,-48.23 648.09,-46.95 640.23,-45.73"/>
<polygon fill="#63b8ff" stroke="#63b8ff" points="663.68,-52.93 674.1,-51.01 664.76,-46.01 663.68,-52.93"/>
</g>
<!-- Node9 -->
<g id="node9" class="node">
<title>Node9</title>
<g id="a_node9"><a xlink:href="class_urho3_d_1_1_view.html#a2dd8e9237f495ba4ec4a69b195988cfa" target="_top" xlink:title="Execute render commands.">
<polygon fill="white" stroke="#666666" points="294,-52.5 148,-52.5 148,-22.5 294,-22.5 294,-52.5"/>
<text text-anchor="start" x="156" y="-40.5" font-family="Roboto" font-size="10.00">Urho3D::View::ExecuteRender</text>
<text text-anchor="middle" x="221" y="-29.5" font-family="Roboto" font-size="10.00">PathCommands</text>
</a>
</g>
</g>
<!-- Node8&#45;&gt;Node9 -->
<g id="edge8" class="edge">
<title>Node8&#45;&gt;Node9</title>
<path fill="none" stroke="#63b8ff" d="M521.26,-44.8C513.1,-45.5 504.86,-46.1 497,-46.5 422.87,-50.26 404.16,-49.58 330,-46.5 318.44,-46.02 306.2,-45.25 294.27,-44.36"/>
<polygon fill="#63b8ff" stroke="#63b8ff" points="521.54,-48.29 531.18,-43.89 520.9,-41.32 521.54,-48.29"/>
</g>
<!-- Node11 -->
<g id="node11" class="node">
<title>Node11</title>
<g id="a_node11"><a xlink:href="class_urho3_d_1_1_view.html#ae7e6e47346e5ff4346eb8cb251e013ef" target="_top" xlink:title="Render a shadow map.">
<polygon fill="white" stroke="#666666" points="497,-19 330,-19 330,0 497,0 497,-19"/>
<text text-anchor="middle" x="413.5" y="-7" font-family="Roboto" font-size="10.00">Urho3D::View::RenderShadowMap</text>
</a>
</g>
</g>
<!-- Node8&#45;&gt;Node11 -->
<g id="edge10" class="edge">
<title>Node8&#45;&gt;Node11</title>
<path fill="none" stroke="#63b8ff" d="M521.48,-27.02C506.4,-24.55 490.36,-21.92 475.41,-19.47"/>
<polygon fill="#63b8ff" stroke="#63b8ff" points="520.87,-30.46 531.31,-28.63 522,-23.56 520.87,-30.46"/>
</g>
<!-- Node10 -->
<g id="node10" class="node">
<title>Node10</title>
<g id="a_node10"><a xlink:href="class_urho3_d_1_1_view.html#a124582e02f0e82ba799467b20b162436" target="_top" xlink:title="Render batches.">
<polygon fill="white" stroke="#666666" points="112,-47 0,-47 0,-28 112,-28 112,-47"/>
<text text-anchor="middle" x="56" y="-35" font-family="Roboto" font-size="10.00">Urho3D::View::Render</text>
</a>
</g>
</g>
<!-- Node9&#45;&gt;Node10 -->
<g id="edge9" class="edge">
<title>Node9&#45;&gt;Node10</title>
<path fill="none" stroke="#63b8ff" d="M136.07,-37.5C127.94,-37.5 119.84,-37.5 112.1,-37.5"/>
<polygon fill="#63b8ff" stroke="#63b8ff" points="136.04,-41 146.04,-37.5 136.04,-34 136.04,-41"/>
</g>
<!-- Node11&#45;&gt;Node9 -->
<g id="edge11" class="edge">
<title>Node11&#45;&gt;Node9</title>
<path fill="none" stroke="#63b8ff" d="M333.34,-21.14C320.46,-23.03 307.17,-24.98 294.46,-26.85"/>
<polygon fill="#63b8ff" stroke="#63b8ff" points="333.65,-24.63 343.03,-19.71 332.63,-17.7 333.65,-24.63"/>
</g>
<!-- Node11&#45;&gt;Node11 -->
<g id="edge12" class="edge">
<title>Node11&#45;&gt;Node11</title>
<path fill="none" stroke="#63b8ff" d="M444.52,-30.1C440.95,-34.13 430.61,-37 413.5,-37 383.09,-37 374.06,-27.94 386.42,-19.37"/>
<polygon fill="#63b8ff" stroke="#63b8ff" points="447.84,-28.97 441.11,-20.79 441.26,-31.38 447.84,-28.97"/>
</g>
<!-- Node12&#45;&gt;Node8 -->
<g id="edge14" class="edge">
<title>Node12&#45;&gt;Node8</title>
<path fill="none" stroke="#63b8ff" d="M665.19,-25.93C656.88,-27.17 648.44,-28.42 640.33,-29.63"/>
<polygon fill="#63b8ff" stroke="#63b8ff" points="665.53,-29.42 674.9,-24.48 664.49,-22.49 665.53,-29.42"/>
</g>
</g>
</svg>
