<?xml version="1.0" encoding="UTF-8" standalone="no"?>
<!DOCTYPE svg PUBLIC "-//W3C//DTD SVG 1.1//EN"
 "http://www.w3.org/Graphics/SVG/1.1/DTD/svg11.dtd">
<!-- Generated by graphviz version 7.0.3 (0)
 -->
<!-- Title: Urho3D::ConstraintWheel2D::SetMotorSpeed Pages: 1 -->
<svg width="658pt" height="248pt"
 viewBox="0.00 0.00 658.00 248.00" xmlns="http://www.w3.org/2000/svg" xmlns:xlink="http://www.w3.org/1999/xlink">
<g id="graph0" class="graph" transform="scale(1 1) rotate(0) translate(4 244)">
<title>Urho3D::ConstraintWheel2D::SetMotorSpeed</title>
<!-- Node1 -->
<g id="node1" class="node">
<title>Node1</title>
<g id="a_node1"><a xlink:title=" ">
<polygon fill="#999999" stroke="#666666" points="132,-102 0,-102 0,-72 132,-72 132,-102"/>
<text text-anchor="start" x="8" y="-90" font-family="Roboto" font-size="10.00">Urho3D::ConstraintWheel2</text>
<text text-anchor="middle" x="66" y="-79" font-family="Roboto" font-size="10.00">D::SetMotorSpeed</text>
</a>
</g>
</g>
<!-- Node1&#45;&gt;Node1 -->
<g id="edge12" class="edge">
<title>Node1&#45;&gt;Node1</title>
<path fill="none" stroke="#63b8ff" d="M38.23,-102.28C32.05,-111.41 41.31,-120 66,-120 79.5,-120 88.39,-117.43 92.66,-113.61"/>
<polygon fill="#63b8ff" stroke="#63b8ff" points="96.13,-114.08 93.63,-103.78 89.16,-113.39 96.13,-114.08"/>
</g>
<!-- Node2 -->
<g id="node2" class="node">
<title>Node2</title>
<g id="a_node2"><a xlink:href="class_urho3_d_1_1_component.html#aaf87acb64001774c62f0784254f9b291" target="_top" xlink:title="Mark for attribute check on the next network update.">
<polygon fill="white" stroke="#666666" points="279.5,-159 168.5,-159 168.5,-129 279.5,-129 279.5,-159"/>
<text text-anchor="start" x="176.5" y="-147" font-family="Roboto" font-size="10.00">Urho3D::Component::</text>
<text text-anchor="middle" x="224" y="-136" font-family="Roboto" font-size="10.00">MarkNetworkUpdate</text>
</a>
</g>
</g>
<!-- Node1&#45;&gt;Node2 -->
<g id="edge1" class="edge">
<title>Node1&#45;&gt;Node2</title>
<path fill="none" stroke="#63b8ff" d="M109.22,-102.43C127.95,-109.27 150.19,-117.4 170.02,-124.64"/>
<polygon fill="#63b8ff" stroke="#63b8ff" points="168.73,-127.9 179.33,-128.04 171.14,-121.32 168.73,-127.9"/>
</g>
<!-- Node8 -->
<g id="node8" class="node">
<title>Node8</title>
<g id="a_node8"><a xlink:href="class_urho3_d_1_1_constraint2_d.html#a6b020a0b52d60cf6f05f584f85801c58" target="_top" xlink:title="Recreate joint.">
<polygon fill="white" stroke="#666666" points="280,-78 168,-78 168,-48 280,-48 280,-78"/>
<text text-anchor="start" x="176" y="-66" font-family="Roboto" font-size="10.00">Urho3D::Constraint2D</text>
<text text-anchor="middle" x="224" y="-55" font-family="Roboto" font-size="10.00">::RecreateJoint</text>
</a>
</g>
</g>
<!-- Node1&#45;&gt;Node8 -->
<g id="edge8" class="edge">
<title>Node1&#45;&gt;Node8</title>
<path fill="none" stroke="#63b8ff" d="M132.25,-76.96C140.31,-75.72 148.56,-74.45 156.63,-73.21"/>
<polygon fill="#63b8ff" stroke="#63b8ff" points="157.05,-76.69 166.4,-71.71 155.99,-69.77 157.05,-76.69"/>
</g>
<!-- Node3 -->
<g id="node3" class="node">
<title>Node3</title>
<g id="a_node3"><a xlink:href="class_urho3_d_1_1_component.html#a2c22f727341671a0420934f249ffe059" target="_top" xlink:title="Return the scene the node belongs to.">
<polygon fill="white" stroke="#666666" points="445.5,-240 334.5,-240 334.5,-210 445.5,-210 445.5,-240"/>
<text text-anchor="start" x="342.5" y="-228" font-family="Roboto" font-size="10.00">Urho3D::Component::</text>
<text text-anchor="middle" x="390" y="-217" font-family="Roboto" font-size="10.00">GetScene</text>
</a>
</g>
</g>
<!-- Node2&#45;&gt;Node3 -->
<g id="edge2" class="edge">
<title>Node2&#45;&gt;Node3</title>
<path fill="none" stroke="#63b8ff" d="M246.22,-159.37C264.15,-171.83 290.85,-189.2 316,-201 319.32,-202.56 322.77,-204.06 326.28,-205.5"/>
<polygon fill="#63b8ff" stroke="#63b8ff" points="324.94,-208.73 335.53,-209.07 327.47,-202.2 324.94,-208.73"/>
</g>
<!-- Node5 -->
<g id="node5" class="node">
<title>Node5</title>
<g id="a_node5"><a xlink:href="class_urho3_d_1_1_component.html#a8f1388c232ca01b7c7328c761aae6e76" target="_top" xlink:title=" ">
<polygon fill="white" stroke="#666666" points="445.5,-192 334.5,-192 334.5,-162 445.5,-162 445.5,-192"/>
<text text-anchor="start" x="342.5" y="-180" font-family="Roboto" font-size="10.00">Urho3D::Component::</text>
<text text-anchor="middle" x="390" y="-169" font-family="Roboto" font-size="10.00">IsReplicated</text>
</a>
</g>
</g>
<!-- Node2&#45;&gt;Node5 -->
<g id="edge4" class="edge">
<title>Node2&#45;&gt;Node5</title>
<path fill="none" stroke="#63b8ff" d="M279.61,-154.99C293.57,-157.8 308.72,-160.85 323.18,-163.76"/>
<polygon fill="#63b8ff" stroke="#63b8ff" points="322.09,-167.11 332.59,-165.65 323.47,-160.24 322.09,-167.11"/>
</g>
<!-- Node7 -->
<g id="node7" class="node">
<title>Node7</title>
<g id="a_node7"><a xlink:href="class_urho3_d_1_1_scene.html#a00b724dfff718639b9de12d71139499c" target="_top" xlink:title="Mark for attribute check on the next network update.">
<polygon fill="white" stroke="#666666" points="464,-126 316,-126 316,-96 464,-96 464,-126"/>
<text text-anchor="start" x="324" y="-114" font-family="Roboto" font-size="10.00">Urho3D::Scene::MarkNetwork</text>
<text text-anchor="middle" x="390" y="-103" font-family="Roboto" font-size="10.00">Update</text>
</a>
</g>
</g>
<!-- Node2&#45;&gt;Node7 -->
<g id="edge6" class="edge">
<title>Node2&#45;&gt;Node7</title>
<path fill="none" stroke="#63b8ff" d="M279.61,-133.01C287.64,-131.39 296.07,-129.7 304.54,-128"/>
<polygon fill="#63b8ff" stroke="#63b8ff" points="305.06,-131.46 314.17,-126.06 303.68,-124.6 305.06,-131.46"/>
</g>
<!-- Node4 -->
<g id="node4" class="node">
<title>Node4</title>
<g id="a_node4"><a xlink:href="class_urho3_d_1_1_node.html#ad3742cda838a2b291daa44d3ab00de56" target="_top" xlink:title=" ">
<polygon fill="white" stroke="#666666" points="638,-234.5 512,-234.5 512,-215.5 638,-215.5 638,-234.5"/>
<text text-anchor="middle" x="575" y="-222.5" font-family="Roboto" font-size="10.00">Urho3D::Node::GetScene</text>
</a>
</g>
</g>
<!-- Node3&#45;&gt;Node4 -->
<g id="edge3" class="edge">
<title>Node3&#45;&gt;Node4</title>
<path fill="none" stroke="#63b8ff" d="M445.91,-225C463,-225 482.14,-225 500.3,-225"/>
<polygon fill="#63b8ff" stroke="#63b8ff" points="500.24,-228.5 510.24,-225 500.24,-221.5 500.24,-228.5"/>
</g>
<!-- Node6 -->
<g id="node6" class="node">
<title>Node6</title>
<g id="a_node6"><a xlink:href="class_urho3_d_1_1_scene.html#a97fb1222bd2f38e6c1c433c0b7e54d40" target="_top" xlink:title="Return whether the specified id is a replicated id.">
<polygon fill="white" stroke="#666666" points="650,-186.5 500,-186.5 500,-167.5 650,-167.5 650,-186.5"/>
<text text-anchor="middle" x="575" y="-174.5" font-family="Roboto" font-size="10.00">Urho3D::Scene::IsReplicatedID</text>
</a>
</g>
</g>
<!-- Node5&#45;&gt;Node6 -->
<g id="edge5" class="edge">
<title>Node5&#45;&gt;Node6</title>
<path fill="none" stroke="#63b8ff" d="M445.91,-177C459.2,-177 473.72,-177 488.07,-177"/>
<polygon fill="#63b8ff" stroke="#63b8ff" points="487.99,-180.5 497.99,-177 487.99,-173.5 487.99,-180.5"/>
</g>
<!-- Node7&#45;&gt;Node7 -->
<g id="edge7" class="edge">
<title>Node7&#45;&gt;Node7</title>
<path fill="none" stroke="#63b8ff" d="M360.82,-126.28C354.34,-135.41 364.06,-144 390,-144 404.18,-144 413.52,-141.43 418.01,-137.61"/>
<polygon fill="#63b8ff" stroke="#63b8ff" points="421.48,-138.09 419.02,-127.78 414.51,-137.37 421.48,-138.09"/>
</g>
<!-- Node9 -->
<g id="node9" class="node">
<title>Node9</title>
<g id="a_node9"><a xlink:href="class_urho3_d_1_1_constraint2_d.html#a5bd16c56eb8593d219bb77c676c2d531" target="_top" xlink:title="Create joint.">
<polygon fill="white" stroke="#666666" points="446,-78 334,-78 334,-48 446,-48 446,-78"/>
<text text-anchor="start" x="342" y="-66" font-family="Roboto" font-size="10.00">Urho3D::Constraint2D</text>
<text text-anchor="middle" x="390" y="-55" font-family="Roboto" font-size="10.00">::CreateJoint</text>
</a>
</g>
</g>
<!-- Node8&#45;&gt;Node9 -->
<g id="edge9" class="edge">
<title>Node8&#45;&gt;Node9</title>
<path fill="none" stroke="#63b8ff" d="M280.07,-63C293.65,-63 308.34,-63 322.41,-63"/>
<polygon fill="#63b8ff" stroke="#63b8ff" points="322.01,-66.5 332.01,-63 322.01,-59.5 322.01,-66.5"/>
</g>
<!-- Node11 -->
<g id="node11" class="node">
<title>Node11</title>
<g id="a_node11"><a xlink:href="class_urho3_d_1_1_constraint2_d.html#a96753482a7b07d8a9cd15c55c22d1079" target="_top" xlink:title="Release joint.">
<polygon fill="white" stroke="#666666" points="446,-30 334,-30 334,0 446,0 446,-30"/>
<text text-anchor="start" x="342" y="-18" font-family="Roboto" font-size="10.00">Urho3D::Constraint2D</text>
<text text-anchor="middle" x="390" y="-7" font-family="Roboto" font-size="10.00">::ReleaseJoint</text>
</a>
</g>
</g>
<!-- Node8&#45;&gt;Node11 -->
<g id="edge11" class="edge">
<title>Node8&#45;&gt;Node11</title>
<path fill="none" stroke="#63b8ff" d="M277.79,-47.55C293.01,-43.09 309.77,-38.19 325.56,-33.57"/>
<polygon fill="#63b8ff" stroke="#63b8ff" points="326.24,-37.02 334.85,-30.85 324.27,-30.3 326.24,-37.02"/>
</g>
<!-- Node10 -->
<g id="node10" class="node">
<title>Node10</title>
<g id="a_node10"><a xlink:href="class_urho3_d_1_1_constraint2_d.html#acb84b297b4881b1c7c549e8468f26105" target="_top" xlink:title="Return joint def.">
<polygon fill="white" stroke="#666666" points="631,-78 519,-78 519,-48 631,-48 631,-78"/>
<text text-anchor="start" x="527" y="-66" font-family="Roboto" font-size="10.00">Urho3D::Constraint2D</text>
<text text-anchor="middle" x="575" y="-55" font-family="Roboto" font-size="10.00">::GetJointDef</text>
</a>
</g>
</g>
<!-- Node9&#45;&gt;Node10 -->
<g id="edge10" class="edge">
<title>Node9&#45;&gt;Node10</title>
<path fill="none" stroke="#63b8ff" d="M446.4,-63C465.66,-63 487.46,-63 507.53,-63"/>
<polygon fill="#63b8ff" stroke="#63b8ff" points="507.27,-66.5 517.27,-63 507.27,-59.5 507.27,-66.5"/>
</g>
</g>
</svg>
