<?xml version="1.0" encoding="UTF-8" standalone="no"?>
<!DOCTYPE svg PUBLIC "-//W3C//DTD SVG 1.1//EN"
 "http://www.w3.org/Graphics/SVG/1.1/DTD/svg11.dtd">
<!-- Generated by graphviz version 7.0.3 (0)
 -->
<!-- Title: Urho3D::Graphics::GetMultiSample Pages: 1 -->
<svg width="1601pt" height="343pt"
 viewBox="0.00 0.00 1601.00 342.60" xmlns="http://www.w3.org/2000/svg" xmlns:xlink="http://www.w3.org/1999/xlink">
<g id="graph0" class="graph" transform="scale(1 1) rotate(0) translate(4 338.6)">
<title>Urho3D::Graphics::GetMultiSample</title>
<!-- Node1 -->
<g id="node1" class="node">
<title>Node1</title>
<g id="a_node1"><a xlink:title=" ">
<polygon fill="#999999" stroke="#666666" points="1593,-177 1459,-177 1459,-147 1593,-147 1593,-177"/>
<text text-anchor="start" x="1467" y="-165" font-family="Roboto" font-size="10.00">Urho3D::Graphics::GetMulti</text>
<text text-anchor="middle" x="1526" y="-154" font-family="Roboto" font-size="10.00">Sample</text>
</a>
</g>
</g>
<!-- Node2 -->
<g id="node2" class="node">
<title>Node2</title>
<g id="a_node2"><a xlink:href="class_urho3_d_1_1_graphics.html#a33e1c860b8638bb3694939fa0b9d93f7" target="_top" xlink:title="Set depth&#45;stencil surface.">
<polygon fill="white" stroke="#666666" points="1423,-177 1286,-177 1286,-147 1423,-147 1423,-177"/>
<text text-anchor="start" x="1294" y="-165" font-family="Roboto" font-size="10.00">Urho3D::Graphics::SetDepth</text>
<text text-anchor="middle" x="1354.5" y="-154" font-family="Roboto" font-size="10.00">Stencil</text>
</a>
</g>
</g>
<!-- Node1&#45;&gt;Node2 -->
<g id="edge1" class="edge">
<title>Node1&#45;&gt;Node2</title>
<path fill="none" stroke="#63b8ff" d="M1447.6,-162C1439.49,-162 1431.29,-162 1423.29,-162"/>
<polygon fill="#63b8ff" stroke="#63b8ff" points="1447.47,-165.5 1457.47,-162 1447.47,-158.5 1447.47,-165.5"/>
</g>
<!-- Node3 -->
<g id="node3" class="node">
<title>Node3</title>
<g id="a_node3"><a xlink:href="class_urho3_d_1_1_graphics.html#a158d17c4bdef10c48db965e0677022f0" target="_top" xlink:title="Reset depth&#45;stencil surface.">
<polygon fill="white" stroke="#666666" points="462,-298 314,-298 314,-268 462,-268 462,-298"/>
<text text-anchor="start" x="322" y="-286" font-family="Roboto" font-size="10.00">Urho3D::Graphics::ResetDepth</text>
<text text-anchor="middle" x="388" y="-275" font-family="Roboto" font-size="10.00">Stencil</text>
</a>
</g>
</g>
<!-- Node2&#45;&gt;Node3 -->
<g id="edge2" class="edge">
<title>Node2&#45;&gt;Node3</title>
<path fill="none" stroke="#63b8ff" d="M1326.5,-184.21C1267.15,-230.71 1119.22,-334 976.5,-334 976.5,-334 976.5,-334 770,-334 648.82,-334 617.28,-336.41 498,-315 476.45,-311.13 453.1,-304.6 433.56,-298.45"/>
<polygon fill="#63b8ff" stroke="#63b8ff" points="1328.41,-187.17 1334.06,-178.21 1324.06,-181.68 1328.41,-187.17"/>
</g>
<!-- Node8 -->
<g id="node8" class="node">
<title>Node8</title>
<g id="a_node8"><a xlink:href="class_urho3_d_1_1_graphics.html#ae1d5bec42a30f9b3d6ad41db33084388" target="_top" xlink:title="Reset all rendertargets, depth&#45;stencil surface and viewport.">
<polygon fill="white" stroke="#666666" points="1250,-177 1096,-177 1096,-147 1250,-147 1250,-177"/>
<text text-anchor="start" x="1104" y="-165" font-family="Roboto" font-size="10.00">Urho3D::Graphics::ResetRender</text>
<text text-anchor="middle" x="1173" y="-154" font-family="Roboto" font-size="10.00">Targets</text>
</a>
</g>
</g>
<!-- Node2&#45;&gt;Node8 -->
<g id="edge7" class="edge">
<title>Node2&#45;&gt;Node8</title>
<path fill="none" stroke="#63b8ff" d="M1274.17,-162C1266.26,-162 1258.25,-162 1250.38,-162"/>
<polygon fill="#63b8ff" stroke="#63b8ff" points="1274.13,-165.5 1284.13,-162 1274.13,-158.5 1274.13,-165.5"/>
</g>
<!-- Node46 -->
<g id="node25" class="node">
<title>Node46</title>
<g id="a_node25"><a xlink:href="class_urho3_d_1_1_graphics.html#a331dfe88f72d685e394780d3f5506e05" target="_top" xlink:title="Set depth&#45;stencil surface.">
<polygon fill="white" stroke="#666666" points="1241.5,-129 1104.5,-129 1104.5,-99 1241.5,-99 1241.5,-129"/>
<text text-anchor="start" x="1112.5" y="-117" font-family="Roboto" font-size="10.00">Urho3D::Graphics::SetDepth</text>
<text text-anchor="middle" x="1173" y="-106" font-family="Roboto" font-size="10.00">Stencil</text>
</a>
</g>
</g>
<!-- Node2&#45;&gt;Node46 -->
<g id="edge31" class="edge">
<title>Node2&#45;&gt;Node46</title>
<path fill="none" stroke="#63b8ff" d="M1284.95,-143.67C1267.37,-138.97 1248.64,-133.96 1231.67,-129.42"/>
<polygon fill="#63b8ff" stroke="#63b8ff" points="1283.69,-146.96 1294.25,-146.16 1285.5,-140.19 1283.69,-146.96"/>
</g>
<!-- Node4 -->
<g id="node4" class="node">
<title>Node4</title>
<g id="a_node4"><a xlink:href="class_urho3_d_1_1_render_surface.html#a13b0dbb3887f7c0f62143d4c9f71b7e3" target="_top" xlink:title="Mark the GPU resource destroyed on graphics context destruction. Only used on OpenGL.">
<polygon fill="white" stroke="#666666" points="278,-298 157,-298 157,-268 278,-268 278,-298"/>
<text text-anchor="start" x="165" y="-286" font-family="Roboto" font-size="10.00">Urho3D::RenderSurface</text>
<text text-anchor="middle" x="217.5" y="-275" font-family="Roboto" font-size="10.00">::OnDeviceLost</text>
</a>
</g>
</g>
<!-- Node3&#45;&gt;Node4 -->
<g id="edge3" class="edge">
<title>Node3&#45;&gt;Node4</title>
<path fill="none" stroke="#63b8ff" d="M302.19,-283C294.11,-283 286.05,-283 278.28,-283"/>
<polygon fill="#63b8ff" stroke="#63b8ff" points="302.07,-286.5 312.07,-283 302.07,-279.5 302.07,-286.5"/>
</g>
<!-- Node5 -->
<g id="node5" class="node">
<title>Node5</title>
<g id="a_node5"><a xlink:href="class_urho3_d_1_1_render_surface.html#aecc06693e0e34733062927ac0468b263" target="_top" xlink:title="Release surface.">
<polygon fill="white" stroke="#666666" points="278,-250 157,-250 157,-220 278,-220 278,-250"/>
<text text-anchor="start" x="165" y="-238" font-family="Roboto" font-size="10.00">Urho3D::RenderSurface</text>
<text text-anchor="middle" x="217.5" y="-227" font-family="Roboto" font-size="10.00">::Release</text>
</a>
</g>
</g>
<!-- Node3&#45;&gt;Node5 -->
<g id="edge4" class="edge">
<title>Node3&#45;&gt;Node5</title>
<path fill="none" stroke="#63b8ff" d="M321.71,-264.4C305.49,-259.78 288.27,-254.87 272.64,-250.42"/>
<polygon fill="#63b8ff" stroke="#63b8ff" points="320.73,-267.76 331.3,-267.13 322.64,-261.03 320.73,-267.76"/>
</g>
<!-- Node6 -->
<g id="node6" class="node">
<title>Node6</title>
<g id="a_node6"><a xlink:href="class_urho3_d_1_1_render_surface.html#a746b94ecfe7be66990598000d5ce0918" target="_top" xlink:title="Create renderbuffer that cannot be sampled as a texture. Only used on OpenGL.">
<polygon fill="white" stroke="#666666" points="121,-274 0,-274 0,-244 121,-244 121,-274"/>
<text text-anchor="start" x="8" y="-262" font-family="Roboto" font-size="10.00">Urho3D::RenderSurface</text>
<text text-anchor="middle" x="60.5" y="-251" font-family="Roboto" font-size="10.00">::CreateRenderBuffer</text>
</a>
</g>
</g>
<!-- Node5&#45;&gt;Node6 -->
<g id="edge5" class="edge">
<title>Node5&#45;&gt;Node6</title>
<path fill="none" stroke="#63b8ff" d="M145.31,-246.02C137.27,-247.27 129.14,-248.53 121.27,-249.75"/>
<polygon fill="#63b8ff" stroke="#63b8ff" points="145.73,-249.5 155.08,-244.51 144.66,-242.58 145.73,-249.5"/>
</g>
<!-- Node7 -->
<g id="node7" class="node">
<title>Node7</title>
<g id="a_node7"><a xlink:href="class_urho3_d_1_1_render_surface.html#adce2bc240161cab87735c02d85a48046" target="_top" xlink:title="Destruct.">
<polygon fill="white" stroke="#666666" points="121,-226 0,-226 0,-196 121,-196 121,-226"/>
<text text-anchor="start" x="8" y="-214" font-family="Roboto" font-size="10.00">Urho3D::RenderSurface</text>
<text text-anchor="middle" x="60.5" y="-203" font-family="Roboto" font-size="10.00">::~RenderSurface</text>
</a>
</g>
</g>
<!-- Node5&#45;&gt;Node7 -->
<g id="edge6" class="edge">
<title>Node5&#45;&gt;Node7</title>
<path fill="none" stroke="#63b8ff" d="M145.31,-223.98C137.27,-222.73 129.14,-221.47 121.27,-220.25"/>
<polygon fill="#63b8ff" stroke="#63b8ff" points="144.66,-227.42 155.08,-225.49 145.73,-220.5 144.66,-227.42"/>
</g>
<!-- Node9 -->
<g id="node9" class="node">
<title>Node9</title>
<g id="a_node9"><a xlink:href="class_urho3_d_1_1_graphics.html#a87d6974090e42a8c0d8ec676ca4da504" target="_top" xlink:title="Begin frame rendering. Return true if device available and can render.">
<polygon fill="white" stroke="#666666" points="649,-67.5 500,-67.5 500,-48.5 649,-48.5 649,-67.5"/>
<text text-anchor="middle" x="574.5" y="-55.5" font-family="Roboto" font-size="10.00">Urho3D::Graphics::BeginFrame</text>
</a>
</g>
</g>
<!-- Node8&#45;&gt;Node9 -->
<g id="edge8" class="edge">
<title>Node8&#45;&gt;Node9</title>
<path fill="none" stroke="#63b8ff" d="M1099.98,-140.94C1098.62,-140 1097.29,-139.02 1096,-138 1071.36,-118.41 1087.03,-93.14 1060,-77 992.79,-36.86 767.48,-45.02 649.29,-52.48"/>
<polygon fill="#63b8ff" stroke="#63b8ff" points="1097.79,-143.71 1108.18,-145.78 1101.35,-137.68 1097.79,-143.71"/>
</g>
<!-- Node10 -->
<g id="node10" class="node">
<title>Node10</title>
<g id="a_node10"><a xlink:href="class_urho3_d_1_1_graphics.html#a06fb6279e23991da88b909e71901ed86" target="_top" xlink:title="Window was resized through user interaction. Called by Input subsystem.">
<polygon fill="white" stroke="#666666" points="1048.5,-30 902.5,-30 902.5,0 1048.5,0 1048.5,-30"/>
<text text-anchor="start" x="910.5" y="-18" font-family="Roboto" font-size="10.00">Urho3D::Graphics::OnWindow</text>
<text text-anchor="middle" x="975.5" y="-7" font-family="Roboto" font-size="10.00">Resized</text>
</a>
</g>
</g>
<!-- Node8&#45;&gt;Node10 -->
<g id="edge9" class="edge">
<title>Node8&#45;&gt;Node10</title>
<path fill="none" stroke="#63b8ff" d="M1098.38,-140.11C1097.56,-139.43 1096.77,-138.73 1096,-138 1063.43,-107.33 1092.13,-75.13 1060,-44 1054.27,-38.45 1047.42,-33.95 1040.15,-30.32"/>
<polygon fill="#63b8ff" stroke="#63b8ff" points="1096.31,-142.94 1106.51,-145.78 1100.31,-137.19 1096.31,-142.94"/>
</g>
<!-- Node11 -->
<g id="node11" class="node">
<title>Node11</title>
<g id="a_node11"><a xlink:href="class_urho3_d_1_1_graphics.html#abd08617bb78ea63930fed43edff8d3db" target="_top" xlink:title="Resolve multisampled backbuffer to a texture rendertarget. The texture&#39;s size should match the viewpo...">
<polygon fill="white" stroke="#666666" points="1041.5,-116 909.5,-116 909.5,-86 1041.5,-86 1041.5,-116"/>
<text text-anchor="start" x="917.5" y="-104" font-family="Roboto" font-size="10.00">Urho3D::Graphics::Resolve</text>
<text text-anchor="middle" x="975.5" y="-93" font-family="Roboto" font-size="10.00">ToTexture</text>
</a>
</g>
</g>
<!-- Node8&#45;&gt;Node11 -->
<g id="edge10" class="edge">
<title>Node8&#45;&gt;Node11</title>
<path fill="none" stroke="#63b8ff" d="M1111.74,-143.2C1084.25,-134.62 1052.09,-124.59 1026.03,-116.46"/>
<polygon fill="#63b8ff" stroke="#63b8ff" points="1110.38,-146.44 1120.97,-146.08 1112.47,-139.76 1110.38,-146.44"/>
</g>
<!-- Node23 -->
<g id="node19" class="node">
<title>Node23</title>
<g id="a_node19"><a xlink:href="class_urho3_d_1_1_graphics.html#afdcde1ab06c42a77cc58fb29e4594f0c" target="_top" xlink:title=" ">
<polygon fill="white" stroke="#666666" points="1059.5,-264.5 891.5,-264.5 891.5,-245.5 1059.5,-245.5 1059.5,-264.5"/>
<text text-anchor="middle" x="975.5" y="-252.5" font-family="Roboto" font-size="10.00">Urho3D::Graphics::SetScreenMode</text>
</a>
</g>
</g>
<!-- Node8&#45;&gt;Node23 -->
<g id="edge24" class="edge">
<title>Node8&#45;&gt;Node23</title>
<path fill="none" stroke="#63b8ff" d="M1144.92,-184.43C1123.23,-201.3 1091.34,-223.71 1060,-237 1052.49,-240.19 1044.35,-242.83 1036.21,-245.03"/>
<polygon fill="#63b8ff" stroke="#63b8ff" points="1147,-187.25 1152.66,-178.3 1142.65,-181.77 1147,-187.25"/>
</g>
<!-- Node45 -->
<g id="node24" class="node">
<title>Node45</title>
<g id="a_node24"><a xlink:href="class_urho3_d_1_1_graphics.html#aba8bc69f7cae9251dbf3dc99d771ed30" target="_top" xlink:title="Take a screenshot. Return true if successful.">
<polygon fill="white" stroke="#666666" points="1060,-209.5 891,-209.5 891,-190.5 1060,-190.5 1060,-209.5"/>
<text text-anchor="middle" x="975.5" y="-197.5" font-family="Roboto" font-size="10.00">Urho3D::Graphics::TakeScreenShot</text>
</a>
</g>
</g>
<!-- Node8&#45;&gt;Node45 -->
<g id="edge29" class="edge">
<title>Node8&#45;&gt;Node45</title>
<path fill="none" stroke="#63b8ff" d="M1084.29,-179.05C1064.99,-182.8 1045.16,-186.65 1027.85,-190.02"/>
<polygon fill="#63b8ff" stroke="#63b8ff" points="1084.94,-182.49 1094.09,-177.14 1083.6,-175.62 1084.94,-182.49"/>
</g>
<!-- Node11&#45;&gt;Node11 -->
<g id="edge11" class="edge">
<title>Node11&#45;&gt;Node11</title>
<path fill="none" stroke="#63b8ff" d="M1008.82,-127.61C1003.48,-131.43 992.38,-134 975.5,-134 944.64,-134 933.07,-125.41 940.78,-116.28"/>
<polygon fill="#63b8ff" stroke="#63b8ff" points="1012.29,-128.13 1010.03,-117.78 1005.34,-127.28 1012.29,-128.13"/>
</g>
<!-- Node12 -->
<g id="node12" class="node">
<title>Node12</title>
<g id="a_node12"><a xlink:href="class_urho3_d_1_1_graphics.html#ab7a2098ed479f28acbd7b3549c5dc205" target="_top" xlink:title="Set texture.">
<polygon fill="white" stroke="#666666" points="843,-110.5 699,-110.5 699,-91.5 843,-91.5 843,-110.5"/>
<text text-anchor="middle" x="771" y="-98.5" font-family="Roboto" font-size="10.00">Urho3D::Graphics::SetTexture</text>
</a>
</g>
</g>
<!-- Node11&#45;&gt;Node12 -->
<g id="edge12" class="edge">
<title>Node11&#45;&gt;Node12</title>
<path fill="none" stroke="#63b8ff" d="M897.75,-94.43C879.84,-94.16 860.84,-94.19 843.19,-94.52"/>
<polygon fill="#63b8ff" stroke="#63b8ff" points="897.46,-97.92 907.52,-94.61 897.59,-90.93 897.46,-97.92"/>
</g>
<!-- Node12&#45;&gt;Node9 -->
<g id="edge13" class="edge">
<title>Node12&#45;&gt;Node9</title>
<path fill="none" stroke="#63b8ff" d="M713.88,-88.59C684.3,-82.05 648.48,-74.14 620.7,-67.99"/>
<polygon fill="#63b8ff" stroke="#63b8ff" points="712.89,-91.96 723.41,-90.7 714.4,-85.12 712.89,-91.96"/>
</g>
<!-- Node12&#45;&gt;Node11 -->
<g id="edge21" class="edge">
<title>Node12&#45;&gt;Node11</title>
<path fill="none" stroke="#63b8ff" d="M854.64,-107.65C872.76,-107.85 891.7,-107.75 909.03,-107.36"/>
<polygon fill="#63b8ff" stroke="#63b8ff" points="854.75,-104.15 844.7,-107.5 854.65,-111.15 854.75,-104.15"/>
</g>
<!-- Node13 -->
<g id="node13" class="node">
<title>Node13</title>
<g id="a_node13"><a xlink:href="struct_urho3_d_1_1_batch.html#ad8794a08ef43585f0c54aebf11f39e11" target="_top" xlink:title="Prepare for rendering.">
<polygon fill="white" stroke="#666666" points="633,-104.5 516,-104.5 516,-85.5 633,-85.5 633,-104.5"/>
<text text-anchor="middle" x="574.5" y="-92.5" font-family="Roboto" font-size="10.00">Urho3D::Batch::Prepare</text>
</a>
</g>
</g>
<!-- Node12&#45;&gt;Node13 -->
<g id="edge14" class="edge">
<title>Node12&#45;&gt;Node13</title>
<path fill="none" stroke="#63b8ff" d="M687.22,-98.45C669.11,-97.89 650.33,-97.31 633.44,-96.79"/>
<polygon fill="#63b8ff" stroke="#63b8ff" points="687.06,-101.94 697.17,-98.75 687.28,-94.95 687.06,-101.94"/>
</g>
<!-- Node20 -->
<g id="node16" class="node">
<title>Node20</title>
<g id="a_node16"><a xlink:href="class_urho3_d_1_1_graphics.html#a3dd369dc58e2db876d8d001ba24762a5" target="_top" xlink:title="Process dirtied state before draw.">
<polygon fill="#fff0f0" stroke="red" points="651,-141.5 498,-141.5 498,-122.5 651,-122.5 651,-141.5"/>
<text text-anchor="middle" x="574.5" y="-129.5" font-family="Roboto" font-size="10.00">Urho3D::Graphics::PrepareDraw</text>
</a>
</g>
</g>
<!-- Node12&#45;&gt;Node20 -->
<g id="edge17" class="edge">
<title>Node12&#45;&gt;Node20</title>
<path fill="none" stroke="#63b8ff" d="M696.26,-112.75C677.06,-115.81 656.55,-119.08 637.99,-122.04"/>
<polygon fill="#63b8ff" stroke="#63b8ff" points="696.57,-116.25 705.89,-111.22 695.47,-109.34 696.57,-116.25"/>
</g>
<!-- Node42 -->
<g id="node18" class="node">
<title>Node42</title>
<g id="a_node18"><a xlink:href="class_urho3_d_1_1_graphics.html#a4c192379ba1d77698b440e542e49200e" target="_top" xlink:title="Set rendertarget.">
<polygon fill="#fff0f0" stroke="red" points="646,-190 503,-190 503,-160 646,-160 646,-190"/>
<text text-anchor="start" x="511" y="-178" font-family="Roboto" font-size="10.00">Urho3D::Graphics::SetRender</text>
<text text-anchor="middle" x="574.5" y="-167" font-family="Roboto" font-size="10.00">Target</text>
</a>
</g>
</g>
<!-- Node12&#45;&gt;Node42 -->
<g id="edge22" class="edge">
<title>Node12&#45;&gt;Node42</title>
<path fill="none" stroke="#63b8ff" d="M737.78,-115.47C714.01,-125.91 680.77,-140.04 651,-151 643,-153.95 634.44,-156.87 626.07,-159.62"/>
<polygon fill="#63b8ff" stroke="#63b8ff" points="739.19,-118.67 746.92,-111.42 736.36,-112.27 739.19,-118.67"/>
</g>
<!-- Node14 -->
<g id="node14" class="node">
<title>Node14</title>
<g id="a_node14"><a xlink:href="struct_urho3_d_1_1_batch.html#add3a46f1fc8c0dd490d0cc965bec2e5b" target="_top" xlink:title="Prepare and draw.">
<polygon fill="#fff0f0" stroke="red" points="441.5,-82.5 334.5,-82.5 334.5,-63.5 441.5,-63.5 441.5,-82.5"/>
<text text-anchor="middle" x="388" y="-70.5" font-family="Roboto" font-size="10.00">Urho3D::Batch::Draw</text>
</a>
</g>
</g>
<!-- Node13&#45;&gt;Node14 -->
<g id="edge15" class="edge">
<title>Node13&#45;&gt;Node14</title>
<path fill="none" stroke="#63b8ff" d="M504.36,-86.76C483.7,-84.29 461.4,-81.63 441.96,-79.32"/>
<polygon fill="#63b8ff" stroke="#63b8ff" points="503.78,-90.21 514.13,-87.92 504.61,-83.26 503.78,-90.21"/>
</g>
<!-- Node19 -->
<g id="node15" class="node">
<title>Node19</title>
<g id="a_node15"><a xlink:href="struct_urho3_d_1_1_batch_group.html#ae44c18517fde1462221ddc7c7a1b2cd4" target="_top" xlink:title="Prepare and draw.">
<polygon fill="#fff0f0" stroke="red" points="441,-131 335,-131 335,-101 441,-101 441,-131"/>
<text text-anchor="start" x="343" y="-119" font-family="Roboto" font-size="10.00">Urho3D::BatchGroup</text>
<text text-anchor="middle" x="388" y="-108" font-family="Roboto" font-size="10.00">::Draw</text>
</a>
</g>
</g>
<!-- Node13&#45;&gt;Node19 -->
<g id="edge16" class="edge">
<title>Node13&#45;&gt;Node19</title>
<path fill="none" stroke="#63b8ff" d="M504.25,-102.88C483.41,-105.25 460.9,-107.82 441.35,-110.04"/>
<polygon fill="#63b8ff" stroke="#63b8ff" points="504.59,-106.37 514.13,-101.76 503.79,-99.41 504.59,-106.37"/>
</g>
<!-- Node21 -->
<g id="node17" class="node">
<title>Node21</title>
<g id="a_node17"><a xlink:href="class_urho3_d_1_1_graphics.html#a33758d927c34d25bc22005430f7648cd" target="_top" xlink:title=" ">
<polygon fill="white" stroke="#666666" points="454.5,-250 321.5,-250 321.5,-220 454.5,-220 454.5,-250"/>
<text text-anchor="start" x="329.5" y="-238" font-family="Roboto" font-size="10.00">Urho3D::Graphics::Cleanup</text>
<text text-anchor="middle" x="388" y="-227" font-family="Roboto" font-size="10.00">RenderSurface</text>
</a>
</g>
</g>
<!-- Node20&#45;&gt;Node21 -->
<g id="edge18" class="edge">
<title>Node20&#45;&gt;Node21</title>
<path fill="none" stroke="#63b8ff" d="M511.32,-145.43C506.73,-147.09 502.24,-148.94 498,-151 461.03,-168.93 424.53,-200.69 404.56,-219.6"/>
<polygon fill="#63b8ff" stroke="#63b8ff" points="512.28,-148.8 520.69,-142.37 510.1,-142.15 512.28,-148.8"/>
</g>
<!-- Node21&#45;&gt;Node4 -->
<g id="edge19" class="edge">
<title>Node21&#45;&gt;Node4</title>
<path fill="none" stroke="#63b8ff" d="M321.71,-253.6C305.49,-258.22 288.27,-263.13 272.64,-267.58"/>
<polygon fill="#63b8ff" stroke="#63b8ff" points="322.64,-256.97 331.3,-250.87 320.73,-250.24 322.64,-256.97"/>
</g>
<!-- Node21&#45;&gt;Node5 -->
<g id="edge20" class="edge">
<title>Node21&#45;&gt;Node5</title>
<path fill="none" stroke="#63b8ff" d="M309.98,-235C299.4,-235 288.66,-235 278.45,-235"/>
<polygon fill="#63b8ff" stroke="#63b8ff" points="309.86,-238.5 319.86,-235 309.86,-231.5 309.86,-238.5"/>
</g>
<!-- Node42&#45;&gt;Node8 -->
<g id="edge23" class="edge">
<title>Node42&#45;&gt;Node8</title>
<path fill="none" stroke="#63b8ff" d="M657.72,-173.21C773.5,-170.68 982.97,-166.12 1095.54,-163.67"/>
<polygon fill="#63b8ff" stroke="#63b8ff" points="657.91,-169.7 647.99,-173.42 658.06,-176.7 657.91,-169.7"/>
</g>
<!-- Node24 -->
<g id="node20" class="node">
<title>Node24</title>
<g id="a_node20"><a xlink:href="class_urho3_d_1_1_graphics.html#a573706d930b58c9d903611affebae991" target="_top" xlink:title=" ">
<polygon fill="white" stroke="#666666" points="855,-209.5 687,-209.5 687,-190.5 855,-190.5 855,-209.5"/>
<text text-anchor="middle" x="771" y="-197.5" font-family="Roboto" font-size="10.00">Urho3D::Graphics::SetScreenMode</text>
</a>
</g>
</g>
<!-- Node23&#45;&gt;Node24 -->
<g id="edge25" class="edge">
<title>Node23&#45;&gt;Node24</title>
<path fill="none" stroke="#63b8ff" d="M907.71,-242.19C902.01,-240.61 896.37,-238.89 891,-237 874.12,-231.07 871.84,-225.04 855,-219 845.26,-215.51 834.64,-212.5 824.35,-209.98"/>
<polygon fill="#63b8ff" stroke="#63b8ff" points="906.69,-245.54 917.25,-244.64 908.43,-238.76 906.69,-245.54"/>
</g>
<!-- Node25 -->
<g id="node21" class="node">
<title>Node25</title>
<g id="a_node21"><a xlink:href="class_urho3_d_1_1_graphics.html#a2adea5d8adacf78e0a5e9093b0aa3f1d" target="_top" xlink:title=" ">
<polygon fill="white" stroke="#666666" points="845,-306 697,-306 697,-276 845,-276 845,-306"/>
<text text-anchor="start" x="705" y="-294" font-family="Roboto" font-size="10.00">Urho3D::Graphics::SetWindow</text>
<text text-anchor="middle" x="771" y="-283" font-family="Roboto" font-size="10.00">Modes</text>
</a>
</g>
</g>
<!-- Node23&#45;&gt;Node25 -->
<g id="edge26" class="edge">
<title>Node23&#45;&gt;Node25</title>
<path fill="none" stroke="#63b8ff" d="M907.24,-266.96C887.39,-270.49 865.56,-274.37 845.34,-277.96"/>
<polygon fill="#63b8ff" stroke="#63b8ff" points="907.64,-270.44 916.87,-265.25 906.41,-263.55 907.64,-270.44"/>
</g>
<!-- Node28 -->
<g id="node23" class="node">
<title>Node28</title>
<g id="a_node23"><a xlink:href="class_urho3_d_1_1_graphics.html#a116de4d90d4b556f408b58878bfd5654" target="_top" xlink:title="Toggle between full screen and windowed mode. Return true if successful.">
<polygon fill="white" stroke="#666666" points="834.5,-258 707.5,-258 707.5,-228 834.5,-228 834.5,-258"/>
<text text-anchor="start" x="715.5" y="-246" font-family="Roboto" font-size="10.00">Urho3D::Graphics::Toggle</text>
<text text-anchor="middle" x="771" y="-235" font-family="Roboto" font-size="10.00">Fullscreen</text>
</a>
</g>
</g>
<!-- Node23&#45;&gt;Node28 -->
<g id="edge28" class="edge">
<title>Node23&#45;&gt;Node28</title>
<path fill="none" stroke="#63b8ff" d="M880.12,-249.41C864.75,-248.5 849.16,-247.57 834.79,-246.72"/>
<polygon fill="#63b8ff" stroke="#63b8ff" points="879.56,-252.88 889.75,-249.98 879.97,-245.89 879.56,-252.88"/>
</g>
<!-- Node26 -->
<g id="node22" class="node">
<title>Node26</title>
<g id="a_node22"><a xlink:href="class_urho3_d_1_1_graphics.html#a120f99124337d4775a2153c62ec329b1" target="_top" xlink:title="Set default window modes. Return true if successful.">
<polygon fill="#fff0f0" stroke="red" points="646,-306 503,-306 503,-276 646,-276 646,-306"/>
<text text-anchor="start" x="511" y="-294" font-family="Roboto" font-size="10.00">Urho3D::Graphics::SetDefault</text>
<text text-anchor="middle" x="574.5" y="-283" font-family="Roboto" font-size="10.00">WindowModes</text>
</a>
</g>
</g>
<!-- Node25&#45;&gt;Node26 -->
<g id="edge27" class="edge">
<title>Node25&#45;&gt;Node26</title>
<path fill="none" stroke="#63b8ff" d="M685.42,-291C672.41,-291 659.1,-291 646.43,-291"/>
<polygon fill="#63b8ff" stroke="#63b8ff" points="685.23,-294.5 695.23,-291 685.23,-287.5 685.23,-294.5"/>
</g>
<!-- Node45&#45;&gt;Node45 -->
<g id="edge30" class="edge">
<title>Node45&#45;&gt;Node45</title>
<path fill="none" stroke="#63b8ff" d="M1011.24,-220.26C1007.48,-224.47 995.57,-227.5 975.5,-227.5 940.78,-227.5 930.48,-218.44 944.58,-209.87"/>
<polygon fill="#63b8ff" stroke="#63b8ff" points="1014.44,-218.84 1007.06,-211.24 1008.09,-221.79 1014.44,-218.84"/>
</g>
</g>
</svg>
