<?xml version="1.0" encoding="UTF-8" standalone="no"?>
<!DOCTYPE svg PUBLIC "-//W3C//DTD SVG 1.1//EN"
 "http://www.w3.org/Graphics/SVG/1.1/DTD/svg11.dtd">
<!-- Generated by graphviz version 7.0.3 (0)
 -->
<!-- Title: Urho3D::Text::GetText Pages: 1 -->
<svg width="1085pt" height="385pt"
 viewBox="0.00 0.00 1085.00 385.00" xmlns="http://www.w3.org/2000/svg" xmlns:xlink="http://www.w3.org/1999/xlink">
<g id="graph0" class="graph" transform="scale(1 1) rotate(0) translate(4 381)">
<title>Urho3D::Text::GetText</title>
<!-- Node1 -->
<g id="node1" class="node">
<title>Node1</title>
<g id="a_node1"><a xlink:title=" ">
<polygon fill="#999999" stroke="#666666" points="1077,-141.5 965,-141.5 965,-122.5 1077,-122.5 1077,-141.5"/>
<text text-anchor="middle" x="1021" y="-129.5" font-family="Roboto" font-size="10.00">Urho3D::Text::GetText</text>
</a>
</g>
</g>
<!-- Node2 -->
<g id="node2" class="node">
<title>Node2</title>
<g id="a_node2"><a xlink:href="class_urho3_d_1_1_file_selector.html#ad466c4ce221ba557aa0cc022f42da870" target="_top" xlink:title=" ">
<polygon fill="white" stroke="#666666" points="909.5,-260 802.5,-260 802.5,-230 909.5,-230 909.5,-260"/>
<text text-anchor="start" x="810.5" y="-248" font-family="Roboto" font-size="10.00">Urho3D::FileSelector</text>
<text text-anchor="middle" x="856" y="-237" font-family="Roboto" font-size="10.00">::GetFilter</text>
</a>
</g>
</g>
<!-- Node1&#45;&gt;Node2 -->
<g id="edge1" class="edge">
<title>Node1&#45;&gt;Node2</title>
<path fill="none" stroke="#63b8ff" d="M1005.48,-150.54C988.93,-170.52 960.12,-202 929,-221 923.04,-224.64 916.46,-227.8 909.78,-230.52"/>
<polygon fill="#63b8ff" stroke="#63b8ff" points="1008.06,-152.92 1011.62,-142.94 1002.61,-148.52 1008.06,-152.92"/>
</g>
<!-- Node14 -->
<g id="node14" class="node">
<title>Node14</title>
<g id="a_node14"><a xlink:href="class_urho3_d_1_1_message_box.html#a8d0325d1de61f007816085002df45dc9" target="_top" xlink:title=" ">
<polygon fill="white" stroke="#666666" points="912,-212 800,-212 800,-182 912,-182 912,-212"/>
<text text-anchor="start" x="808" y="-200" font-family="Roboto" font-size="10.00">Urho3D::MessageBox</text>
<text text-anchor="middle" x="856" y="-189" font-family="Roboto" font-size="10.00">::GetMessage</text>
</a>
</g>
</g>
<!-- Node1&#45;&gt;Node14 -->
<g id="edge23" class="edge">
<title>Node1&#45;&gt;Node14</title>
<path fill="none" stroke="#63b8ff" d="M988.69,-146.5C971.26,-154.39 949.09,-164.11 929,-172 920.75,-175.24 911.88,-178.5 903.29,-181.54"/>
<polygon fill="#63b8ff" stroke="#63b8ff" points="989.85,-149.82 997.5,-142.49 986.95,-143.45 989.85,-149.82"/>
</g>
<!-- Node15 -->
<g id="node15" class="node">
<title>Node15</title>
<g id="a_node15"><a xlink:href="class_urho3_d_1_1_text3_d.html#a5a52fbf0e269a5ed1931521c2bc85934" target="_top" xlink:title=" ">
<polygon fill="white" stroke="#666666" points="918,-163.5 794,-163.5 794,-144.5 918,-144.5 918,-163.5"/>
<text text-anchor="middle" x="856" y="-151.5" font-family="Roboto" font-size="10.00">Urho3D::Text3D::GetText</text>
</a>
</g>
</g>
<!-- Node1&#45;&gt;Node15 -->
<g id="edge24" class="edge">
<title>Node1&#45;&gt;Node15</title>
<path fill="none" stroke="#63b8ff" d="M953.74,-140.94C942.02,-142.52 929.87,-144.17 918.29,-145.73"/>
<polygon fill="#63b8ff" stroke="#63b8ff" points="953.87,-144.46 963.32,-139.65 952.94,-137.52 953.87,-144.46"/>
</g>
<!-- Node16 -->
<g id="node16" class="node">
<title>Node16</title>
<g id="a_node16"><a xlink:href="class_urho3_d_1_1_file_selector.html#a672d09255f3c501210a4f5a6b87ca772" target="_top" xlink:title=" ">
<polygon fill="white" stroke="#666666" points="909.5,-126 802.5,-126 802.5,-96 909.5,-96 909.5,-126"/>
<text text-anchor="start" x="810.5" y="-114" font-family="Roboto" font-size="10.00">Urho3D::FileSelector</text>
<text text-anchor="middle" x="856" y="-103" font-family="Roboto" font-size="10.00">::GetTitle</text>
</a>
</g>
</g>
<!-- Node1&#45;&gt;Node16 -->
<g id="edge25" class="edge">
<title>Node1&#45;&gt;Node16</title>
<path fill="none" stroke="#63b8ff" d="M953.81,-123.47C939.21,-121.59 923.92,-119.62 909.92,-117.82"/>
<polygon fill="#63b8ff" stroke="#63b8ff" points="952.95,-126.89 963.31,-124.7 953.84,-119.95 952.95,-126.89"/>
</g>
<!-- Node17 -->
<g id="node17" class="node">
<title>Node17</title>
<g id="a_node17"><a xlink:href="class_urho3_d_1_1_message_box.html#a97942da5c52059a96e6686d9adfc2b99" target="_top" xlink:title=" ">
<polygon fill="white" stroke="#666666" points="912,-78 800,-78 800,-48 912,-48 912,-78"/>
<text text-anchor="start" x="808" y="-66" font-family="Roboto" font-size="10.00">Urho3D::MessageBox</text>
<text text-anchor="middle" x="856" y="-55" font-family="Roboto" font-size="10.00">::GetTitle</text>
</a>
</g>
</g>
<!-- Node1&#45;&gt;Node17 -->
<g id="edge26" class="edge">
<title>Node1&#45;&gt;Node17</title>
<path fill="none" stroke="#63b8ff" d="M991.89,-116.85C974.14,-107.59 950.56,-95.88 929,-87 921.69,-83.99 913.85,-81.07 906.13,-78.37"/>
<polygon fill="#63b8ff" stroke="#63b8ff" points="990.05,-119.83 1000.53,-121.4 993.32,-113.64 990.05,-119.83"/>
</g>
<!-- Node18 -->
<g id="node18" class="node">
<title>Node18</title>
<g id="a_node18"><a xlink:href="class_urho3_d_1_1_console.html#a08a6a59af924fde47f10ba2f702a1c9d" target="_top" xlink:title="Handle enter pressed on the line edit.">
<polygon fill="white" stroke="#666666" points="929,-30 783,-30 783,0 929,0 929,-30"/>
<text text-anchor="start" x="791" y="-18" font-family="Roboto" font-size="10.00">Urho3D::Console::HandleText</text>
<text text-anchor="middle" x="856" y="-7" font-family="Roboto" font-size="10.00">Finished</text>
</a>
</g>
</g>
<!-- Node1&#45;&gt;Node18 -->
<g id="edge27" class="edge">
<title>Node1&#45;&gt;Node18</title>
<path fill="none" stroke="#63b8ff" d="M1006.13,-113.2C989.83,-92.33 960.91,-58.96 929,-39 923.86,-35.79 918.25,-32.95 912.49,-30.46"/>
<polygon fill="#63b8ff" stroke="#63b8ff" points="1003.13,-115.04 1011.98,-120.87 1008.7,-110.8 1003.13,-115.04"/>
</g>
<!-- Node3 -->
<g id="node3" class="node">
<title>Node3</title>
<g id="a_node3"><a xlink:href="class_urho3_d_1_1_file_selector.html#ac7c4c01759f09d23dd856c71a2cc1655" target="_top" xlink:title="Enter a directory or confirm a file. Return true if a directory entered.">
<polygon fill="white" stroke="#666666" points="423,-129 316,-129 316,-99 423,-99 423,-129"/>
<text text-anchor="start" x="324" y="-117" font-family="Roboto" font-size="10.00">Urho3D::FileSelector</text>
<text text-anchor="middle" x="369.5" y="-106" font-family="Roboto" font-size="10.00">::EnterFile</text>
</a>
</g>
</g>
<!-- Node2&#45;&gt;Node3 -->
<g id="edge2" class="edge">
<title>Node2&#45;&gt;Node3</title>
<path fill="none" stroke="#63b8ff" d="M791.84,-226.61C788.75,-224.89 785.79,-223.03 783,-221 761.16,-205.09 770.11,-186.01 747,-172 645.2,-110.28 500.42,-106.68 423.43,-109.98"/>
<polygon fill="#63b8ff" stroke="#63b8ff" points="790.12,-229.66 800.64,-230.91 793.2,-223.38 790.12,-229.66"/>
</g>
<!-- Node7 -->
<g id="node7" class="node">
<title>Node7</title>
<g id="a_node7"><a xlink:href="class_urho3_d_1_1_file_selector.html#a14da1edca50b30aff0b7b763e2f0ce33" target="_top" xlink:title="Handle cancel button pressed.">
<polygon fill="white" stroke="#666666" points="429,-377 310,-377 310,-347 429,-347 429,-377"/>
<text text-anchor="start" x="318" y="-365" font-family="Roboto" font-size="10.00">Urho3D::FileSelector</text>
<text text-anchor="middle" x="369.5" y="-354" font-family="Roboto" font-size="10.00">::HandleCancelPressed</text>
</a>
</g>
</g>
<!-- Node2&#45;&gt;Node7 -->
<g id="edge7" class="edge">
<title>Node2&#45;&gt;Node7</title>
<path fill="none" stroke="#63b8ff" d="M834.04,-268.84C814.01,-289.81 781.78,-319.1 747,-333 641.23,-375.28 505.6,-373.53 429.37,-368.04"/>
<polygon fill="#63b8ff" stroke="#63b8ff" points="836.58,-271.25 840.82,-261.54 831.45,-266.48 836.58,-271.25"/>
</g>
<!-- Node8 -->
<g id="node8" class="node">
<title>Node8</title>
<g id="a_node8"><a xlink:href="class_urho3_d_1_1_file_selector.html#a372b507fb35782c00d99ded29d4610f0" target="_top" xlink:title="Handle filter changed.">
<polygon fill="white" stroke="#666666" points="578,-285 465,-285 465,-255 578,-255 578,-285"/>
<text text-anchor="start" x="473" y="-273" font-family="Roboto" font-size="10.00">Urho3D::FileSelector</text>
<text text-anchor="middle" x="521.5" y="-262" font-family="Roboto" font-size="10.00">::HandleFilterChanged</text>
</a>
</g>
</g>
<!-- Node2&#45;&gt;Node8 -->
<g id="edge9" class="edge">
<title>Node2&#45;&gt;Node8</title>
<path fill="none" stroke="#63b8ff" d="M791.17,-249.8C729.51,-254.44 637.05,-261.39 578.27,-265.81"/>
<polygon fill="#63b8ff" stroke="#63b8ff" points="791.1,-253.31 800.81,-249.07 790.57,-246.33 791.1,-253.31"/>
</g>
<!-- Node9 -->
<g id="node9" class="node">
<title>Node9</title>
<g id="a_node9"><a xlink:href="class_urho3_d_1_1_file_selector.html#a7c152fd3654baa5f7a75ccbb1366b931" target="_top" xlink:title="Handle OK button pressed.">
<polygon fill="white" stroke="#666666" points="262,-334 155,-334 155,-304 262,-304 262,-334"/>
<text text-anchor="start" x="163" y="-322" font-family="Roboto" font-size="10.00">Urho3D::FileSelector</text>
<text text-anchor="middle" x="208.5" y="-311" font-family="Roboto" font-size="10.00">::HandleOKPressed</text>
</a>
</g>
</g>
<!-- Node2&#45;&gt;Node9 -->
<g id="edge11" class="edge">
<title>Node2&#45;&gt;Node9</title>
<path fill="none" stroke="#63b8ff" d="M791.37,-262.2C776.85,-265.77 761.45,-269.26 747,-272 571.44,-305.26 359.09,-315.05 262.24,-317.88"/>
<polygon fill="#63b8ff" stroke="#63b8ff" points="791.94,-265.67 800.79,-259.85 790.24,-258.88 791.94,-265.67"/>
</g>
<!-- Node10 -->
<g id="node10" class="node">
<title>Node10</title>
<g id="a_node10"><a xlink:href="class_urho3_d_1_1_file_selector.html#a8ec8d229ef0e2a4836634e01e96803a7" target="_top" xlink:title="Refresh the directory listing.">
<polygon fill="white" stroke="#666666" points="734,-238 627,-238 627,-208 734,-208 734,-238"/>
<text text-anchor="start" x="635" y="-226" font-family="Roboto" font-size="10.00">Urho3D::FileSelector</text>
<text text-anchor="middle" x="680.5" y="-215" font-family="Roboto" font-size="10.00">::RefreshFiles</text>
</a>
</g>
</g>
<!-- Node2&#45;&gt;Node10 -->
<g id="edge13" class="edge">
<title>Node2&#45;&gt;Node10</title>
<path fill="none" stroke="#63b8ff" d="M790.7,-236.85C772.19,-234.5 752.21,-231.97 734.47,-229.72"/>
<polygon fill="#63b8ff" stroke="#63b8ff" points="790.14,-240.3 800.5,-238.09 791.02,-233.36 790.14,-240.3"/>
</g>
<!-- Node11 -->
<g id="node11" class="node">
<title>Node11</title>
<g id="a_node11"><a xlink:href="class_urho3_d_1_1_file_selector.html#a8f0352bf675048a625d1b8e5ae2ce8ea" target="_top" xlink:title="Set filters.">
<polygon fill="white" stroke="#666666" points="575,-189 468,-189 468,-159 575,-159 575,-189"/>
<text text-anchor="start" x="476" y="-177" font-family="Roboto" font-size="10.00">Urho3D::FileSelector</text>
<text text-anchor="middle" x="521.5" y="-166" font-family="Roboto" font-size="10.00">::SetFilters</text>
</a>
</g>
</g>
<!-- Node2&#45;&gt;Node11 -->
<g id="edge22" class="edge">
<title>Node2&#45;&gt;Node11</title>
<path fill="none" stroke="#63b8ff" d="M793.36,-225.5C789.82,-224.06 786.35,-222.56 783,-221 766,-213.1 764.74,-205.07 747,-199 690.42,-179.64 621.58,-174.47 575.17,-173.46"/>
<polygon fill="#63b8ff" stroke="#63b8ff" points="792.08,-228.76 802.67,-229.09 794.6,-222.23 792.08,-228.76"/>
</g>
<!-- Node4 -->
<g id="node4" class="node">
<title>Node4</title>
<g id="a_node4"><a xlink:href="class_urho3_d_1_1_file_selector.html#a004ed41fadc3029706a35857268bfdaf" target="_top" xlink:title="Handle file doubleclicked from the list (enter directory / OK the file selection).">
<polygon fill="white" stroke="#666666" points="274,-129 143,-129 143,-99 274,-99 274,-129"/>
<text text-anchor="start" x="151" y="-117" font-family="Roboto" font-size="10.00">Urho3D::FileSelector</text>
<text text-anchor="middle" x="208.5" y="-106" font-family="Roboto" font-size="10.00">::HandleFileDoubleClicked</text>
</a>
</g>
</g>
<!-- Node3&#45;&gt;Node4 -->
<g id="edge3" class="edge">
<title>Node3&#45;&gt;Node4</title>
<path fill="none" stroke="#63b8ff" d="M304.2,-114C294.37,-114 284.22,-114 274.38,-114"/>
<polygon fill="#63b8ff" stroke="#63b8ff" points="304.04,-117.5 314.04,-114 304.04,-110.5 304.04,-117.5"/>
</g>
<!-- Node6 -->
<g id="node6" class="node">
<title>Node6</title>
<g id="a_node6"><a xlink:href="class_urho3_d_1_1_file_selector.html#a5315d211e3108ad4012c648d1cbd3b6a" target="_top" xlink:title="Handle file list key pressed.">
<polygon fill="white" stroke="#666666" points="262,-81 155,-81 155,-51 262,-51 262,-81"/>
<text text-anchor="start" x="163" y="-69" font-family="Roboto" font-size="10.00">Urho3D::FileSelector</text>
<text text-anchor="middle" x="208.5" y="-58" font-family="Roboto" font-size="10.00">::HandleFileListKey</text>
</a>
</g>
</g>
<!-- Node3&#45;&gt;Node6 -->
<g id="edge5" class="edge">
<title>Node3&#45;&gt;Node6</title>
<path fill="none" stroke="#63b8ff" d="M306.45,-95.27C291.27,-90.68 275.19,-85.83 260.59,-81.42"/>
<polygon fill="#63b8ff" stroke="#63b8ff" points="305.28,-98.57 315.87,-98.11 307.31,-91.87 305.28,-98.57"/>
</g>
<!-- Node5 -->
<g id="node5" class="node">
<title>Node5</title>
<g id="a_node5"><a xlink:href="class_urho3_d_1_1_file_selector.html#ae0e66de218b839be46c7f802abf04c80" target="_top" xlink:title="Construct.">
<polygon fill="white" stroke="#666666" points="107,-230 0,-230 0,-200 107,-200 107,-230"/>
<text text-anchor="start" x="8" y="-218" font-family="Roboto" font-size="10.00">Urho3D::FileSelector</text>
<text text-anchor="middle" x="53.5" y="-207" font-family="Roboto" font-size="10.00">::FileSelector</text>
</a>
</g>
</g>
<!-- Node4&#45;&gt;Node5 -->
<g id="edge4" class="edge">
<title>Node4&#45;&gt;Node5</title>
<path fill="none" stroke="#63b8ff" d="M158.52,-134.38C153.18,-137.09 147.9,-139.98 143,-143 115.86,-159.74 87.85,-183.9 70.8,-199.53"/>
<polygon fill="#63b8ff" stroke="#63b8ff" points="159.94,-137.58 167.43,-130.08 156.91,-131.27 159.94,-137.58"/>
</g>
<!-- Node6&#45;&gt;Node5 -->
<g id="edge6" class="edge">
<title>Node6&#45;&gt;Node5</title>
<path fill="none" stroke="#63b8ff" d="M147.13,-87.05C145.71,-87.99 144.33,-88.98 143,-90 103.37,-120.47 74.22,-173.6 61.53,-199.68"/>
<polygon fill="#63b8ff" stroke="#63b8ff" points="148.75,-90.15 155.65,-82.11 145.25,-84.09 148.75,-90.15"/>
</g>
<!-- Node7&#45;&gt;Node5 -->
<g id="edge8" class="edge">
<title>Node7&#45;&gt;Node5</title>
<path fill="none" stroke="#63b8ff" d="M298.48,-370.95C251.47,-373.55 189.8,-370.1 143,-343 98.11,-317 70.78,-258 59.91,-230.13"/>
<polygon fill="#63b8ff" stroke="#63b8ff" points="298.54,-374.45 308.29,-370.29 298.08,-367.47 298.54,-374.45"/>
</g>
<!-- Node8&#45;&gt;Node5 -->
<g id="edge10" class="edge">
<title>Node8&#45;&gt;Node5</title>
<path fill="none" stroke="#63b8ff" d="M453.27,-269.65C377.22,-268.11 250.03,-262.05 143,-240 130.33,-237.39 116.82,-233.93 104.27,-230.42"/>
<polygon fill="#63b8ff" stroke="#63b8ff" points="452.99,-273.15 463.05,-269.83 453.12,-266.15 452.99,-273.15"/>
</g>
<!-- Node9&#45;&gt;Node5 -->
<g id="edge12" class="edge">
<title>Node9&#45;&gt;Node5</title>
<path fill="none" stroke="#63b8ff" d="M158.25,-298.61C152.99,-295.92 147.81,-293.03 143,-290 115.06,-272.38 86.6,-246.55 69.75,-230.27"/>
<polygon fill="#63b8ff" stroke="#63b8ff" points="156.5,-301.65 167.02,-302.87 159.56,-295.35 156.5,-301.65"/>
</g>
<!-- Node10&#45;&gt;Node8 -->
<g id="edge14" class="edge">
<title>Node10&#45;&gt;Node8</title>
<path fill="none" stroke="#63b8ff" d="M617.3,-241.62C602.96,-245.91 587.86,-250.43 574.02,-254.58"/>
<polygon fill="#63b8ff" stroke="#63b8ff" points="618.07,-245.04 626.64,-238.82 616.06,-238.34 618.07,-245.04"/>
</g>
<!-- Node10&#45;&gt;Node11 -->
<g id="edge15" class="edge">
<title>Node10&#45;&gt;Node11</title>
<path fill="none" stroke="#63b8ff" d="M619.6,-204.31C603.92,-199.41 587.19,-194.19 572.11,-189.48"/>
<polygon fill="#63b8ff" stroke="#63b8ff" points="618.22,-207.54 628.81,-207.18 620.31,-200.86 618.22,-207.54"/>
</g>
<!-- Node12 -->
<g id="node12" class="node">
<title>Node12</title>
<g id="a_node12"><a xlink:href="class_urho3_d_1_1_file_selector.html#a70224d0b3a485fd4aab57cc6b9af1c6f" target="_top" xlink:title=" ">
<polygon fill="white" stroke="#666666" points="575,-237 468,-237 468,-207 575,-207 575,-237"/>
<text text-anchor="start" x="476" y="-225" font-family="Roboto" font-size="10.00">Urho3D::FileSelector</text>
<text text-anchor="middle" x="521.5" y="-214" font-family="Roboto" font-size="10.00">::SetPath</text>
</a>
</g>
</g>
<!-- Node10&#45;&gt;Node12 -->
<g id="edge17" class="edge">
<title>Node10&#45;&gt;Node12</title>
<path fill="none" stroke="#63b8ff" d="M615.3,-222.59C602.01,-222.51 588.17,-222.42 575.34,-222.34"/>
<polygon fill="#63b8ff" stroke="#63b8ff" points="615.25,-226.09 625.27,-222.65 615.29,-219.09 615.25,-226.09"/>
</g>
<!-- Node11&#45;&gt;Node5 -->
<g id="edge16" class="edge">
<title>Node11&#45;&gt;Node5</title>
<path fill="none" stroke="#63b8ff" d="M456.76,-179.61C363.95,-187.77 193.35,-202.78 107.22,-210.36"/>
<polygon fill="#63b8ff" stroke="#63b8ff" points="456.79,-183.12 466.44,-178.76 456.17,-176.15 456.79,-183.12"/>
</g>
<!-- Node12&#45;&gt;Node3 -->
<g id="edge18" class="edge">
<title>Node12&#45;&gt;Node3</title>
<path fill="none" stroke="#63b8ff" d="M470.65,-201.39C468.72,-200.3 466.83,-199.16 465,-198 433.53,-177.94 402.18,-147.48 384.67,-129.28"/>
<polygon fill="#63b8ff" stroke="#63b8ff" points="468.76,-204.36 479.25,-205.89 472.01,-198.15 468.76,-204.36"/>
</g>
<!-- Node12&#45;&gt;Node5 -->
<g id="edge19" class="edge">
<title>Node12&#45;&gt;Node5</title>
<path fill="none" stroke="#63b8ff" d="M456.64,-215.7C447.37,-214.99 437.95,-214.39 429,-214 314.35,-209 179.78,-211.37 107.25,-213.32"/>
<polygon fill="#63b8ff" stroke="#63b8ff" points="456.05,-219.16 466.3,-216.48 456.62,-212.19 456.05,-219.16"/>
</g>
<!-- Node13 -->
<g id="node13" class="node">
<title>Node13</title>
<g id="a_node13"><a xlink:href="class_urho3_d_1_1_file_selector.html#ac07a78273e7db4a6d4ab33d807c072f7" target="_top" xlink:title="Handle path edited.">
<polygon fill="white" stroke="#666666" points="425,-253 314,-253 314,-223 425,-223 425,-253"/>
<text text-anchor="start" x="322" y="-241" font-family="Roboto" font-size="10.00">Urho3D::FileSelector</text>
<text text-anchor="middle" x="369.5" y="-230" font-family="Roboto" font-size="10.00">::HandlePathChanged</text>
</a>
</g>
</g>
<!-- Node12&#45;&gt;Node13 -->
<g id="edge20" class="edge">
<title>Node12&#45;&gt;Node13</title>
<path fill="none" stroke="#63b8ff" d="M456.21,-228.86C445.96,-229.95 435.45,-231.07 425.44,-232.14"/>
<polygon fill="#63b8ff" stroke="#63b8ff" points="456.54,-232.34 466.11,-227.8 455.8,-225.38 456.54,-232.34"/>
</g>
<!-- Node13&#45;&gt;Node5 -->
<g id="edge21" class="edge">
<title>Node13&#45;&gt;Node5</title>
<path fill="none" stroke="#63b8ff" d="M302.55,-233.17C244.47,-228.92 161,-222.8 107.26,-218.86"/>
<polygon fill="#63b8ff" stroke="#63b8ff" points="302.07,-236.64 312.3,-233.88 302.58,-229.66 302.07,-236.64"/>
</g>
<!-- Node19 -->
<g id="node19" class="node">
<title>Node19</title>
<g id="a_node19"><a xlink:href="class_urho3_d_1_1_console.html#afa65f6eacc596b544de5b0c3bc1a3d55" target="_top" xlink:title="Construct.">
<polygon fill="white" stroke="#666666" points="747,-24.5 614,-24.5 614,-5.5 747,-5.5 747,-24.5"/>
<text text-anchor="middle" x="680.5" y="-12.5" font-family="Roboto" font-size="10.00">Urho3D::Console::Console</text>
</a>
</g>
</g>
<!-- Node18&#45;&gt;Node19 -->
<g id="edge28" class="edge">
<title>Node18&#45;&gt;Node19</title>
<path fill="none" stroke="#63b8ff" d="M771.34,-15C763.28,-15 755.18,-15 747.33,-15"/>
<polygon fill="#63b8ff" stroke="#63b8ff" points="771.16,-18.5 781.16,-15 771.16,-11.5 771.16,-18.5"/>
</g>
</g>
</svg>
