<?xml version="1.0" encoding="UTF-8" standalone="no"?>
<!DOCTYPE svg PUBLIC "-//W3C//DTD SVG 1.1//EN"
 "http://www.w3.org/Graphics/SVG/1.1/DTD/svg11.dtd">
<!-- Generated by graphviz version 7.0.3 (0)
 -->
<!-- Title: Urho3D::BillboardSet::SetMaterial Pages: 1 -->
<svg width="921pt" height="126pt"
 viewBox="0.00 0.00 921.00 126.00" xmlns="http://www.w3.org/2000/svg" xmlns:xlink="http://www.w3.org/1999/xlink">
<g id="graph0" class="graph" transform="scale(1 1) rotate(0) translate(4 122)">
<title>Urho3D::BillboardSet::SetMaterial</title>
<!-- Node1 -->
<g id="node1" class="node">
<title>Node1</title>
<g id="a_node1"><a xlink:title=" ">
<polygon fill="#999999" stroke="#666666" points="913,-54 806,-54 806,-24 913,-24 913,-54"/>
<text text-anchor="start" x="814" y="-42" font-family="Roboto" font-size="10.00">Urho3D::BillboardSet</text>
<text text-anchor="middle" x="859.5" y="-31" font-family="Roboto" font-size="10.00">::SetMaterial</text>
</a>
</g>
</g>
<!-- Node2 -->
<g id="node2" class="node">
<title>Node2</title>
<g id="a_node2"><a xlink:href="class_urho3_d_1_1_particle_emitter.html#a182059fa9f28d25885dc2f036377f92b" target="_top" xlink:title="Apply not continuously updated values such as the material, the number of particles and sorting mode ...">
<polygon fill="white" stroke="#666666" points="770,-78 650,-78 650,-48 770,-48 770,-78"/>
<text text-anchor="start" x="658" y="-66" font-family="Roboto" font-size="10.00">Urho3D::ParticleEmitter</text>
<text text-anchor="middle" x="710" y="-55" font-family="Roboto" font-size="10.00">::ApplyEffect</text>
</a>
</g>
</g>
<!-- Node1&#45;&gt;Node2 -->
<g id="edge1" class="edge">
<title>Node1&#45;&gt;Node2</title>
<path fill="none" stroke="#63b8ff" d="M794.52,-49.41C786.53,-50.71 778.39,-52.03 770.48,-53.32"/>
<polygon fill="#63b8ff" stroke="#63b8ff" points="794.86,-52.9 804.17,-47.84 793.74,-45.99 794.86,-52.9"/>
</g>
<!-- Node7 -->
<g id="node7" class="node">
<title>Node7</title>
<g id="a_node7"><a xlink:href="class_urho3_d_1_1_billboard_set.html#afd2c335de74fcd42cd3e6679e5968e4a" target="_top" xlink:title="Set material attribute.">
<polygon fill="white" stroke="#666666" points="763.5,-30 656.5,-30 656.5,0 763.5,0 763.5,-30"/>
<text text-anchor="start" x="664.5" y="-18" font-family="Roboto" font-size="10.00">Urho3D::BillboardSet</text>
<text text-anchor="middle" x="710" y="-7" font-family="Roboto" font-size="10.00">::SetMaterialAttr</text>
</a>
</g>
</g>
<!-- Node1&#45;&gt;Node7 -->
<g id="edge7" class="edge">
<title>Node1&#45;&gt;Node7</title>
<path fill="none" stroke="#63b8ff" d="M794.36,-28.56C784.21,-26.91 773.82,-25.22 763.96,-23.62"/>
<polygon fill="#63b8ff" stroke="#63b8ff" points="793.74,-32.01 804.17,-30.16 794.86,-25.1 793.74,-32.01"/>
</g>
<!-- Node3 -->
<g id="node3" class="node">
<title>Node3</title>
<g id="a_node3"><a xlink:href="class_urho3_d_1_1_particle_emitter.html#a4386ac257cdc5a82ae8714cd402cc9a3" target="_top" xlink:title="Handle live reload of the particle effect.">
<polygon fill="white" stroke="#666666" points="614,-118 468,-118 468,-88 614,-88 614,-118"/>
<text text-anchor="start" x="476" y="-106" font-family="Roboto" font-size="10.00">Urho3D::ParticleEmitter</text>
<text text-anchor="middle" x="541" y="-95" font-family="Roboto" font-size="10.00">::HandleEffectReloadFinished</text>
</a>
</g>
</g>
<!-- Node2&#45;&gt;Node3 -->
<g id="edge2" class="edge">
<title>Node2&#45;&gt;Node3</title>
<path fill="none" stroke="#63b8ff" d="M638.68,-79.84C628.02,-82.4 617.07,-85.02 606.54,-87.54"/>
<polygon fill="#63b8ff" stroke="#63b8ff" points="639.27,-83.3 648.18,-77.57 637.64,-76.49 639.27,-83.3"/>
</g>
<!-- Node4 -->
<g id="node4" class="node">
<title>Node4</title>
<g id="a_node4"><a xlink:href="class_urho3_d_1_1_particle_emitter.html#a133f3acb8b6f60c8879e3762cc9095c0" target="_top" xlink:title=" ">
<polygon fill="white" stroke="#666666" points="432,-96 312,-96 312,-66 432,-66 432,-96"/>
<text text-anchor="start" x="320" y="-84" font-family="Roboto" font-size="10.00">Urho3D::ParticleEmitter</text>
<text text-anchor="middle" x="372" y="-73" font-family="Roboto" font-size="10.00">::SetEffect</text>
</a>
</g>
</g>
<!-- Node2&#45;&gt;Node4 -->
<g id="edge6" class="edge">
<title>Node2&#45;&gt;Node4</title>
<path fill="none" stroke="#63b8ff" d="M638.23,-66.79C577.1,-70.07 489.78,-74.74 432.27,-77.82"/>
<polygon fill="#63b8ff" stroke="#63b8ff" points="638.39,-70.29 648.19,-66.26 638.02,-63.3 638.39,-70.29"/>
</g>
<!-- Node3&#45;&gt;Node4 -->
<g id="edge3" class="edge">
<title>Node3&#45;&gt;Node4</title>
<path fill="none" stroke="#63b8ff" d="M456.31,-91.97C448.22,-90.91 440.12,-89.84 432.34,-88.82"/>
<polygon fill="#63b8ff" stroke="#63b8ff" points="455.85,-95.44 466.22,-93.28 456.76,-88.5 455.85,-95.44"/>
</g>
<!-- Node5 -->
<g id="node5" class="node">
<title>Node5</title>
<g id="a_node5"><a xlink:href="class_urho3_d_1_1_particle_emitter.html#a3449faf25039d775bd73a25e1ef1614f" target="_top" xlink:title="Set particles effect attribute.">
<polygon fill="white" stroke="#666666" points="276,-96 156,-96 156,-66 276,-66 276,-96"/>
<text text-anchor="start" x="164" y="-84" font-family="Roboto" font-size="10.00">Urho3D::ParticleEmitter</text>
<text text-anchor="middle" x="216" y="-73" font-family="Roboto" font-size="10.00">::SetEffectAttr</text>
</a>
</g>
</g>
<!-- Node4&#45;&gt;Node5 -->
<g id="edge4" class="edge">
<title>Node4&#45;&gt;Node5</title>
<path fill="none" stroke="#63b8ff" d="M300.59,-81C292.52,-81 284.36,-81 276.45,-81"/>
<polygon fill="#63b8ff" stroke="#63b8ff" points="300.39,-84.5 310.39,-81 300.39,-77.5 300.39,-84.5"/>
</g>
<!-- Node6 -->
<g id="node6" class="node">
<title>Node6</title>
<g id="a_node6"><a xlink:href="class_urho3_d_1_1_particle_emitter.html#a866c84f59b51494573ee28e000523ede" target="_top" xlink:title=" ">
<polygon fill="white" stroke="#666666" points="120,-96 0,-96 0,-66 120,-66 120,-96"/>
<text text-anchor="start" x="8" y="-84" font-family="Roboto" font-size="10.00">Urho3D::ParticleEmitter</text>
<text text-anchor="middle" x="60" y="-73" font-family="Roboto" font-size="10.00">::RegisterObject</text>
</a>
</g>
</g>
<!-- Node5&#45;&gt;Node6 -->
<g id="edge5" class="edge">
<title>Node5&#45;&gt;Node6</title>
<path fill="none" stroke="#63b8ff" d="M144.59,-81C136.52,-81 128.36,-81 120.45,-81"/>
<polygon fill="#63b8ff" stroke="#63b8ff" points="144.39,-84.5 154.39,-81 144.39,-77.5 144.39,-84.5"/>
</g>
<!-- Node8 -->
<g id="node8" class="node">
<title>Node8</title>
<g id="a_node8"><a xlink:href="class_urho3_d_1_1_billboard_set.html#abd9c58891183fd07f23f9fdfcec57527" target="_top" xlink:title=" ">
<polygon fill="white" stroke="#666666" points="594.5,-30 487.5,-30 487.5,0 594.5,0 594.5,-30"/>
<text text-anchor="start" x="495.5" y="-18" font-family="Roboto" font-size="10.00">Urho3D::BillboardSet</text>
<text text-anchor="middle" x="541" y="-7" font-family="Roboto" font-size="10.00">::RegisterObject</text>
</a>
</g>
</g>
<!-- Node7&#45;&gt;Node8 -->
<g id="edge8" class="edge">
<title>Node7&#45;&gt;Node8</title>
<path fill="none" stroke="#63b8ff" d="M644.9,-15C628.34,-15 610.69,-15 594.78,-15"/>
<polygon fill="#63b8ff" stroke="#63b8ff" points="644.65,-18.5 654.65,-15 644.65,-11.5 644.65,-18.5"/>
</g>
</g>
</svg>
