<?xml version="1.0" encoding="UTF-8" standalone="no"?>
<!DOCTYPE svg PUBLIC "-//W3C//DTD SVG 1.1//EN"
 "http://www.w3.org/Graphics/SVG/1.1/DTD/svg11.dtd">
<!-- Generated by graphviz version 7.0.3 (0)
 -->
<!-- Title: Urho3D::Zone::SetAmbientColor Pages: 1 -->
<svg width="658pt" height="152pt"
 viewBox="0.00 0.00 658.00 152.00" xmlns="http://www.w3.org/2000/svg" xmlns:xlink="http://www.w3.org/1999/xlink">
<g id="graph0" class="graph" transform="scale(1 1) rotate(0) translate(4 148)">
<title>Urho3D::Zone::SetAmbientColor</title>
<!-- Node1 -->
<g id="node1" class="node">
<title>Node1</title>
<g id="a_node1"><a xlink:title=" ">
<polygon fill="#999999" stroke="#666666" points="133,-96 0,-96 0,-66 133,-66 133,-96"/>
<text text-anchor="start" x="8" y="-84" font-family="Roboto" font-size="10.00">Urho3D::Zone::SetAmbient</text>
<text text-anchor="middle" x="66.5" y="-73" font-family="Roboto" font-size="10.00">Color</text>
</a>
</g>
</g>
<!-- Node2 -->
<g id="node2" class="node">
<title>Node2</title>
<g id="a_node2"><a xlink:href="class_urho3_d_1_1_component.html#aaf87acb64001774c62f0784254f9b291" target="_top" xlink:title="Mark for attribute check on the next network update.">
<polygon fill="white" stroke="#666666" points="280,-96 169,-96 169,-66 280,-66 280,-96"/>
<text text-anchor="start" x="177" y="-84" font-family="Roboto" font-size="10.00">Urho3D::Component::</text>
<text text-anchor="middle" x="224.5" y="-73" font-family="Roboto" font-size="10.00">MarkNetworkUpdate</text>
</a>
</g>
</g>
<!-- Node1&#45;&gt;Node2 -->
<g id="edge1" class="edge">
<title>Node1&#45;&gt;Node2</title>
<path fill="none" stroke="#63b8ff" d="M133.21,-81C141.15,-81 149.27,-81 157.22,-81"/>
<polygon fill="#63b8ff" stroke="#63b8ff" points="157.2,-84.5 167.2,-81 157.2,-77.5 157.2,-84.5"/>
</g>
<!-- Node3 -->
<g id="node3" class="node">
<title>Node3</title>
<g id="a_node3"><a xlink:href="class_urho3_d_1_1_component.html#a2c22f727341671a0420934f249ffe059" target="_top" xlink:title="Return the scene the node belongs to.">
<polygon fill="white" stroke="#666666" points="445.5,-144 334.5,-144 334.5,-114 445.5,-114 445.5,-144"/>
<text text-anchor="start" x="342.5" y="-132" font-family="Roboto" font-size="10.00">Urho3D::Component::</text>
<text text-anchor="middle" x="390" y="-121" font-family="Roboto" font-size="10.00">GetScene</text>
</a>
</g>
</g>
<!-- Node2&#45;&gt;Node3 -->
<g id="edge2" class="edge">
<title>Node2&#45;&gt;Node3</title>
<path fill="none" stroke="#63b8ff" d="M278.13,-96.45C293.3,-100.91 310.01,-105.81 325.75,-110.43"/>
<polygon fill="#63b8ff" stroke="#63b8ff" points="324.43,-113.69 335.01,-113.15 326.4,-106.98 324.43,-113.69"/>
</g>
<!-- Node5 -->
<g id="node5" class="node">
<title>Node5</title>
<g id="a_node5"><a xlink:href="class_urho3_d_1_1_component.html#a8f1388c232ca01b7c7328c761aae6e76" target="_top" xlink:title=" ">
<polygon fill="white" stroke="#666666" points="445.5,-96 334.5,-96 334.5,-66 445.5,-66 445.5,-96"/>
<text text-anchor="start" x="342.5" y="-84" font-family="Roboto" font-size="10.00">Urho3D::Component::</text>
<text text-anchor="middle" x="390" y="-73" font-family="Roboto" font-size="10.00">IsReplicated</text>
</a>
</g>
</g>
<!-- Node2&#45;&gt;Node5 -->
<g id="edge4" class="edge">
<title>Node2&#45;&gt;Node5</title>
<path fill="none" stroke="#63b8ff" d="M280.4,-81C294.09,-81 308.91,-81 323.07,-81"/>
<polygon fill="#63b8ff" stroke="#63b8ff" points="322.73,-84.5 332.73,-81 322.73,-77.5 322.73,-84.5"/>
</g>
<!-- Node7 -->
<g id="node7" class="node">
<title>Node7</title>
<g id="a_node7"><a xlink:href="class_urho3_d_1_1_scene.html#a00b724dfff718639b9de12d71139499c" target="_top" xlink:title="Mark for attribute check on the next network update.">
<polygon fill="white" stroke="#666666" points="464,-30 316,-30 316,0 464,0 464,-30"/>
<text text-anchor="start" x="324" y="-18" font-family="Roboto" font-size="10.00">Urho3D::Scene::MarkNetwork</text>
<text text-anchor="middle" x="390" y="-7" font-family="Roboto" font-size="10.00">Update</text>
</a>
</g>
</g>
<!-- Node2&#45;&gt;Node7 -->
<g id="edge6" class="edge">
<title>Node2&#45;&gt;Node7</title>
<path fill="none" stroke="#63b8ff" d="M263.83,-65.53C286.61,-56.33 315.72,-44.58 340.13,-34.73"/>
<polygon fill="#63b8ff" stroke="#63b8ff" points="341.26,-38.05 349.22,-31.06 338.64,-31.56 341.26,-38.05"/>
</g>
<!-- Node4 -->
<g id="node4" class="node">
<title>Node4</title>
<g id="a_node4"><a xlink:href="class_urho3_d_1_1_node.html#ad3742cda838a2b291daa44d3ab00de56" target="_top" xlink:title=" ">
<polygon fill="white" stroke="#666666" points="638,-138.5 512,-138.5 512,-119.5 638,-119.5 638,-138.5"/>
<text text-anchor="middle" x="575" y="-126.5" font-family="Roboto" font-size="10.00">Urho3D::Node::GetScene</text>
</a>
</g>
</g>
<!-- Node3&#45;&gt;Node4 -->
<g id="edge3" class="edge">
<title>Node3&#45;&gt;Node4</title>
<path fill="none" stroke="#63b8ff" d="M445.91,-129C463,-129 482.14,-129 500.3,-129"/>
<polygon fill="#63b8ff" stroke="#63b8ff" points="500.24,-132.5 510.24,-129 500.24,-125.5 500.24,-132.5"/>
</g>
<!-- Node6 -->
<g id="node6" class="node">
<title>Node6</title>
<g id="a_node6"><a xlink:href="class_urho3_d_1_1_scene.html#a97fb1222bd2f38e6c1c433c0b7e54d40" target="_top" xlink:title="Return whether the specified id is a replicated id.">
<polygon fill="white" stroke="#666666" points="650,-90.5 500,-90.5 500,-71.5 650,-71.5 650,-90.5"/>
<text text-anchor="middle" x="575" y="-78.5" font-family="Roboto" font-size="10.00">Urho3D::Scene::IsReplicatedID</text>
</a>
</g>
</g>
<!-- Node5&#45;&gt;Node6 -->
<g id="edge5" class="edge">
<title>Node5&#45;&gt;Node6</title>
<path fill="none" stroke="#63b8ff" d="M445.91,-81C459.2,-81 473.72,-81 488.07,-81"/>
<polygon fill="#63b8ff" stroke="#63b8ff" points="487.99,-84.5 497.99,-81 487.99,-77.5 487.99,-84.5"/>
</g>
<!-- Node7&#45;&gt;Node7 -->
<g id="edge7" class="edge">
<title>Node7&#45;&gt;Node7</title>
<path fill="none" stroke="#63b8ff" d="M360.91,-30.28C354.44,-39.41 364.14,-48 390,-48 404.14,-48 413.45,-45.43 417.92,-41.61"/>
<polygon fill="#63b8ff" stroke="#63b8ff" points="421.39,-42.09 418.94,-31.78 414.43,-41.37 421.39,-42.09"/>
</g>
</g>
</svg>
