<?xml version="1.0" encoding="UTF-8" standalone="no"?>
<!DOCTYPE svg PUBLIC "-//W3C//DTD SVG 1.1//EN"
 "http://www.w3.org/Graphics/SVG/1.1/DTD/svg11.dtd">
<!-- Generated by graphviz version 7.0.3 (0)
 -->
<!-- Title: Urho3D::CollisionShape::GetPosition Pages: 1 -->
<svg width="290pt" height="152pt"
 viewBox="0.00 0.00 290.00 152.00" xmlns="http://www.w3.org/2000/svg" xmlns:xlink="http://www.w3.org/1999/xlink">
<g id="graph0" class="graph" transform="scale(1 1) rotate(0) translate(4 148)">
<title>Urho3D::CollisionShape::GetPosition</title>
<!-- Node1 -->
<g id="node1" class="node">
<title>Node1</title>
<g id="a_node1"><a xlink:title=" ">
<polygon fill="#999999" stroke="#666666" points="282,-78 162,-78 162,-48 282,-48 282,-78"/>
<text text-anchor="start" x="170" y="-66" font-family="Roboto" font-size="10.00">Urho3D::CollisionShape</text>
<text text-anchor="middle" x="222" y="-55" font-family="Roboto" font-size="10.00">::GetPosition</text>
</a>
</g>
</g>
<!-- Node2 -->
<g id="node2" class="node">
<title>Node2</title>
<g id="a_node2"><a xlink:href="class_urho3_d_1_1_navigation_mesh.html#a9975760e63efcb66d129fbaada30a5a9" target="_top" xlink:title="Visit nodes and collect navigable geometry.">
<polygon fill="white" stroke="#666666" points="126,-144 0,-144 0,-114 126,-114 126,-144"/>
<text text-anchor="start" x="8" y="-132" font-family="Roboto" font-size="10.00">Urho3D::NavigationMesh</text>
<text text-anchor="middle" x="63" y="-121" font-family="Roboto" font-size="10.00">::CollectGeometries</text>
</a>
</g>
</g>
<!-- Node1&#45;&gt;Node2 -->
<g id="edge1" class="edge">
<title>Node1&#45;&gt;Node2</title>
<path fill="none" stroke="#63b8ff" d="M177.15,-82.9C161.13,-90.04 142.81,-98.04 126,-105 119.18,-107.83 111.89,-110.74 104.8,-113.52"/>
<polygon fill="#63b8ff" stroke="#63b8ff" points="178.23,-86.25 185.93,-78.97 175.37,-79.86 178.23,-86.25"/>
</g>
<!-- Node3 -->
<g id="node3" class="node">
<title>Node3</title>
<g id="a_node3"><a xlink:href="class_urho3_d_1_1_physics_world.html#a7ab7f0188c08871f864e9b2df37e1692" target="_top" xlink:title="Perform a physics world swept convex test using a user&#45;supplied collision shape and return the first ...">
<polygon fill="white" stroke="#666666" points="121,-78 5,-78 5,-48 121,-48 121,-78"/>
<text text-anchor="start" x="13" y="-66" font-family="Roboto" font-size="10.00">Urho3D::PhysicsWorld</text>
<text text-anchor="middle" x="63" y="-55" font-family="Roboto" font-size="10.00">::ConvexCast</text>
</a>
</g>
</g>
<!-- Node1&#45;&gt;Node3 -->
<g id="edge2" class="edge">
<title>Node1&#45;&gt;Node3</title>
<path fill="none" stroke="#63b8ff" d="M150.36,-63C140.66,-63 130.79,-63 121.36,-63"/>
<polygon fill="#63b8ff" stroke="#63b8ff" points="150.13,-66.5 160.13,-63 150.13,-59.5 150.13,-66.5"/>
</g>
<!-- Node4 -->
<g id="node4" class="node">
<title>Node4</title>
<g id="a_node4"><a xlink:href="class_urho3_d_1_1_collision_shape.html#a6a675622871c1c2d7b7add9c3e440de4" target="_top" xlink:title=" ">
<polygon fill="white" stroke="#666666" points="123,-30 3,-30 3,0 123,0 123,-30"/>
<text text-anchor="start" x="11" y="-18" font-family="Roboto" font-size="10.00">Urho3D::CollisionShape</text>
<text text-anchor="middle" x="63" y="-7" font-family="Roboto" font-size="10.00">::RegisterObject</text>
</a>
</g>
</g>
<!-- Node1&#45;&gt;Node4 -->
<g id="edge4" class="edge">
<title>Node1&#45;&gt;Node4</title>
<path fill="none" stroke="#63b8ff" d="M159.73,-44.27C144.74,-39.68 128.87,-34.83 114.45,-30.42"/>
<polygon fill="#63b8ff" stroke="#63b8ff" points="158.43,-47.53 169.01,-47.11 160.47,-40.83 158.43,-47.53"/>
</g>
<!-- Node3&#45;&gt;Node3 -->
<g id="edge3" class="edge">
<title>Node3&#45;&gt;Node3</title>
<path fill="none" stroke="#63b8ff" d="M89.83,-89.61C85.53,-93.43 76.59,-96 63,-96 38.16,-96 28.84,-87.41 35.05,-78.28"/>
<polygon fill="#63b8ff" stroke="#63b8ff" points="93.3,-90.08 90.8,-79.78 86.33,-89.39 93.3,-90.08"/>
</g>
</g>
</svg>
