<?xml version="1.0" encoding="UTF-8" standalone="no"?>
<!DOCTYPE svg PUBLIC "-//W3C//DTD SVG 1.1//EN"
 "http://www.w3.org/Graphics/SVG/1.1/DTD/svg11.dtd">
<!-- Generated by graphviz version 7.0.3 (0)
 -->
<!-- Title: Urho3D::TmxFile2D Pages: 1 -->
<svg width="2298pt" height="438pt"
 viewBox="0.00 0.00 2298.00 437.50" xmlns="http://www.w3.org/2000/svg" xmlns:xlink="http://www.w3.org/1999/xlink">
<g id="graph0" class="graph" transform="scale(1 1) rotate(0) translate(4 433.5)">
<title>Urho3D::TmxFile2D</title>
<!-- Node1 -->
<g id="node1" class="node">
<title>Node1</title>
<g id="a_node1"><a xlink:title="Tile map file.">
<polygon fill="#999999" stroke="#666666" points="2290,-170.5 2189,-170.5 2189,-151.5 2290,-151.5 2290,-170.5"/>
<text text-anchor="middle" x="2239.5" y="-158.5" font-family="Roboto" font-size="10.00">Urho3D::TmxFile2D</text>
</a>
</g>
</g>
<!-- Node2 -->
<g id="node2" class="node">
<title>Node2</title>
<g id="a_node2"><a xlink:href="class_urho3_d_1_1_resource.html" target="_top" xlink:title=" ">
<polygon fill="white" stroke="#666666" points="1449.5,-313.5 1353.5,-313.5 1353.5,-294.5 1449.5,-294.5 1449.5,-313.5"/>
<text text-anchor="middle" x="1401.5" y="-301.5" font-family="Roboto" font-size="10.00">Urho3D::Resource</text>
</a>
</g>
</g>
<!-- Node2&#45;&gt;Node1 -->
<g id="edge1" class="edge">
<title>Node2&#45;&gt;Node1</title>
<path fill="none" stroke="#63b8ff" d="M1461.28,-306.19C1580.55,-309.81 1859.33,-313.98 2091,-285 2127.16,-280.48 2141.18,-287.95 2171,-267 2206.52,-242.04 2227.61,-191.83 2235.23,-170.71"/>
<polygon fill="#63b8ff" stroke="#63b8ff" points="1461.52,-302.7 1451.42,-305.88 1461.3,-309.7 1461.52,-302.7"/>
</g>
<!-- Node28 -->
<g id="node17" class="node">
<title>Node28</title>
<g id="a_node17"><a xlink:href="class_urho3_d_1_1_x_m_l_file.html" target="_top" xlink:title="XML document resource.">
<polygon fill="white" stroke="#666666" points="1779.5,-270.5 1689.5,-270.5 1689.5,-251.5 1779.5,-251.5 1779.5,-270.5"/>
<text text-anchor="middle" x="1734.5" y="-258.5" font-family="Roboto" font-size="10.00">Urho3D::XMLFile</text>
</a>
</g>
</g>
<!-- Node2&#45;&gt;Node28 -->
<g id="edge23" class="edge">
<title>Node2&#45;&gt;Node28</title>
<path fill="none" stroke="#63b8ff" d="M1461.24,-296.37C1526.46,-287.9 1630.28,-274.41 1689.08,-266.77"/>
<polygon fill="#63b8ff" stroke="#63b8ff" points="1460.89,-292.88 1451.43,-297.64 1461.79,-299.83 1460.89,-292.88"/>
</g>
<!-- Node3 -->
<g id="node3" class="node">
<title>Node3</title>
<g id="a_node3"><a xlink:href="class_urho3_d_1_1_object.html" target="_top" xlink:title=" ">
<polygon fill="white" stroke="#666666" points="1150.5,-429.5 1067.5,-429.5 1067.5,-410.5 1150.5,-410.5 1150.5,-429.5"/>
<text text-anchor="middle" x="1109" y="-417.5" font-family="Roboto" font-size="10.00">Urho3D::Object</text>
</a>
</g>
</g>
<!-- Node3&#45;&gt;Node2 -->
<g id="edge2" class="edge">
<title>Node3&#45;&gt;Node2</title>
<path fill="none" stroke="#63b8ff" d="M1162.06,-409.53C1206.92,-399.36 1272.67,-381.68 1326,-356 1350.16,-344.37 1375.09,-325.25 1389.11,-313.72"/>
<polygon fill="#63b8ff" stroke="#63b8ff" points="1161.32,-406.11 1152.32,-411.69 1162.84,-412.94 1161.32,-406.11"/>
</g>
<!-- Node4 -->
<g id="node4" class="node">
<title>Node4</title>
<g id="a_node4"><a xlink:href="class_urho3_d_1_1_ref_counted.html" target="_top" xlink:title="Base class for intrusively reference&#45;counted objects. These are noncopyable and non&#45;assignable.">
<polygon fill="white" stroke="#666666" points="533.5,-408.5 426.5,-408.5 426.5,-389.5 533.5,-389.5 533.5,-408.5"/>
<text text-anchor="middle" x="480" y="-396.5" font-family="Roboto" font-size="10.00">Urho3D::RefCounted</text>
</a>
</g>
</g>
<!-- Node4&#45;&gt;Node3 -->
<g id="edge3" class="edge">
<title>Node4&#45;&gt;Node3</title>
<path fill="none" stroke="#63b8ff" d="M545.1,-401.42C559.54,-401.95 574.8,-402.5 589,-403 767.17,-409.22 979.77,-415.97 1067.29,-418.73"/>
<polygon fill="#63b8ff" stroke="#63b8ff" points="545.37,-397.93 535.25,-401.05 545.11,-404.92 545.37,-397.93"/>
</g>
<!-- Node6 -->
<g id="node6" class="node">
<title>Node6</title>
<g id="a_node6"><a xlink:href="class_urho3_d_1_1_context.html" target="_top" xlink:title="Urho3D execution context. Provides access to subsystems, object factories and attributes,...">
<polygon fill="#fff0f0" stroke="red" points="854.5,-391.5 765.5,-391.5 765.5,-372.5 854.5,-372.5 854.5,-391.5"/>
<text text-anchor="middle" x="810" y="-379.5" font-family="Roboto" font-size="10.00">Urho3D::Context</text>
</a>
</g>
</g>
<!-- Node4&#45;&gt;Node6 -->
<g id="edge6" class="edge">
<title>Node4&#45;&gt;Node6</title>
<path fill="none" stroke="#63b8ff" d="M545.01,-395.68C609.9,-392.32 708.57,-387.21 765.1,-384.28"/>
<polygon fill="#63b8ff" stroke="#63b8ff" points="545.02,-392.18 535.21,-396.19 545.38,-399.17 545.02,-392.18"/>
</g>
<!-- Node5 -->
<g id="node5" class="node">
<title>Node5</title>
<g id="a_node5"><a xlink:href="struct_urho3_d_1_1_ref_count.html" target="_top" xlink:title="Reference count structure.">
<polygon fill="white" stroke="#666666" points="305,-408.5 209,-408.5 209,-389.5 305,-389.5 305,-408.5"/>
<text text-anchor="middle" x="257" y="-396.5" font-family="Roboto" font-size="10.00">Urho3D::RefCount</text>
</a>
</g>
</g>
<!-- Node5&#45;&gt;Node4 -->
<g id="edge4" class="edge">
<title>Node5&#45;&gt;Node4</title>
<path fill="none" stroke="#9a32cd" stroke-dasharray="5,2" d="M316.61,-399C350.67,-399 393.24,-399 426.25,-399"/>
<polygon fill="#9a32cd" stroke="#9a32cd" points="316.92,-395.5 306.92,-399 316.92,-402.5 316.92,-395.5"/>
<text text-anchor="middle" x="348" y="-402" font-family="Roboto" font-size="10.00"> refCount_</text>
</g>
<!-- Node6&#45;&gt;Node3 -->
<g id="edge5" class="edge">
<title>Node6&#45;&gt;Node3</title>
<path fill="none" stroke="#9a32cd" stroke-dasharray="5,2" d="M866.19,-380.35C912.77,-380.09 980.96,-382.39 1039,-395 1047.39,-396.82 1048.95,-399.02 1057,-402 1064.22,-404.68 1072.05,-407.49 1079.35,-410.07"/>
<polygon fill="#9a32cd" stroke="#9a32cd" points="866.31,-376.84 856.34,-380.45 866.38,-383.84 866.31,-376.84"/>
<text text-anchor="middle" x="965.5" y="-398" font-family="Roboto" font-size="10.00"> context_</text>
</g>
<!-- Node7 -->
<g id="node7" class="node">
<title>Node7</title>
<g id="a_node7"><a xlink:href="class_urho3_d_1_1_hash_map.html" target="_top" xlink:title=" ">
<polygon fill="white" stroke="#666666" points="571,-362.5 389,-362.5 389,-321.5 571,-321.5 571,-362.5"/>
<text text-anchor="start" x="397" y="-350.5" font-family="Roboto" font-size="10.00">Urho3D::HashMap&lt; Urho3D</text>
<text text-anchor="start" x="397" y="-339.5" font-family="Roboto" font-size="10.00">::StringHash, Urho3D::</text>
<text text-anchor="middle" x="480" y="-328.5" font-family="Roboto" font-size="10.00">SharedPtr&lt; Urho3D::ObjectFactory &gt; &gt;</text>
</a>
</g>
</g>
<!-- Node7&#45;&gt;Node6 -->
<g id="edge7" class="edge">
<title>Node7&#45;&gt;Node6</title>
<path fill="none" stroke="#9a32cd" stroke-dasharray="5,2" d="M582.54,-353.5C627.18,-358.67 680.22,-364.95 728,-371 740.11,-372.53 753.22,-374.28 765.3,-375.92"/>
<polygon fill="#9a32cd" stroke="#9a32cd" points="583.22,-350.06 572.88,-352.39 582.42,-357.01 583.22,-350.06"/>
<text text-anchor="middle" x="658.5" y="-374" font-family="Roboto" font-size="10.00"> factories_</text>
</g>
<!-- Node8 -->
<g id="node8" class="node">
<title>Node8</title>
<g id="a_node8"><a xlink:href="class_urho3_d_1_1_hash_base.html" target="_top" xlink:title="Hash set/map base class.">
<polygon fill="white" stroke="#666666" points="307,-205.5 207,-205.5 207,-186.5 307,-186.5 307,-205.5"/>
<text text-anchor="middle" x="257" y="-193.5" font-family="Roboto" font-size="10.00">Urho3D::HashBase</text>
</a>
</g>
</g>
<!-- Node8&#45;&gt;Node7 -->
<g id="edge8" class="edge">
<title>Node8&#45;&gt;Node7</title>
<path fill="none" stroke="#63b8ff" d="M278.51,-212.89C303.72,-233.28 348.19,-268.06 389,-294 404.1,-303.59 421.29,-313.09 436.57,-321.07"/>
<polygon fill="#63b8ff" stroke="#63b8ff" points="280.98,-210.38 271.01,-206.78 276.56,-215.81 280.98,-210.38"/>
</g>
<!-- Node12 -->
<g id="node11" class="node">
<title>Node12</title>
<g id="a_node11"><a xlink:href="class_urho3_d_1_1_hash_map.html" target="_top" xlink:title=" ">
<polygon fill="white" stroke="#666666" points="554.5,-284.5 405.5,-284.5 405.5,-243.5 554.5,-243.5 554.5,-284.5"/>
<text text-anchor="start" x="413.5" y="-272.5" font-family="Roboto" font-size="10.00">Urho3D::HashMap&lt; Urho3D</text>
<text text-anchor="start" x="413.5" y="-261.5" font-family="Roboto" font-size="10.00">::StringHash, Urho3D::</text>
<text text-anchor="middle" x="480" y="-250.5" font-family="Roboto" font-size="10.00">SharedPtr&lt; Urho3D::Object &gt; &gt;</text>
</a>
</g>
</g>
<!-- Node8&#45;&gt;Node12 -->
<g id="edge14" class="edge">
<title>Node8&#45;&gt;Node12</title>
<path fill="none" stroke="#63b8ff" d="M301.06,-209.25C332.23,-218.84 374.99,-232 410.78,-243.01"/>
<polygon fill="#63b8ff" stroke="#63b8ff" points="302.17,-205.93 291.58,-206.33 300.11,-212.62 302.17,-205.93"/>
</g>
<!-- Node30 -->
<g id="node19" class="node">
<title>Node30</title>
<g id="a_node19"><a xlink:href="class_urho3_d_1_1_hash_map.html" target="_top" xlink:title=" ">
<polygon fill="white" stroke="#666666" points="728,-225.5 589,-225.5 589,-184.5 728,-184.5 728,-225.5"/>
<text text-anchor="start" x="597" y="-213.5" font-family="Roboto" font-size="10.00">Urho3D::HashMap&lt; Urho3D</text>
<text text-anchor="start" x="597" y="-202.5" font-family="Roboto" font-size="10.00">::String, Urho3D::SharedPtr</text>
<text text-anchor="middle" x="658.5" y="-191.5" font-family="Roboto" font-size="10.00">&lt; Urho3D::XMLFile &gt; &gt;</text>
</a>
</g>
</g>
<!-- Node8&#45;&gt;Node30 -->
<g id="edge26" class="edge">
<title>Node8&#45;&gt;Node30</title>
<path fill="none" stroke="#63b8ff" d="M318.62,-197.37C391.29,-199 512.77,-201.74 588.84,-203.45"/>
<polygon fill="#63b8ff" stroke="#63b8ff" points="318.98,-193.87 308.9,-197.15 318.82,-200.87 318.98,-193.87"/>
</g>
<!-- Node32 -->
<g id="node21" class="node">
<title>Node32</title>
<g id="a_node21"><a xlink:href="class_urho3_d_1_1_hash_map.html" target="_top" xlink:title=" ">
<polygon fill="white" stroke="#666666" points="1039,-165.5 892,-165.5 892,-124.5 1039,-124.5 1039,-165.5"/>
<text text-anchor="start" x="900" y="-153.5" font-family="Roboto" font-size="10.00">Urho3D::HashMap&lt; unsigned,</text>
<text text-anchor="start" x="900" y="-142.5" font-family="Roboto" font-size="10.00"> Urho3D::SharedPtr&lt; Urho3D</text>
<text text-anchor="middle" x="965.5" y="-131.5" font-family="Roboto" font-size="10.00">::Sprite2D &gt; &gt;</text>
</a>
</g>
</g>
<!-- Node8&#45;&gt;Node32 -->
<g id="edge29" class="edge">
<title>Node8&#45;&gt;Node32</title>
<path fill="none" stroke="#63b8ff" d="M318.65,-191.62C448.3,-182.26 751.96,-160.34 891.73,-150.25"/>
<polygon fill="#63b8ff" stroke="#63b8ff" points="318.63,-188.11 308.91,-192.33 319.13,-195.1 318.63,-188.11"/>
</g>
<!-- Node33 -->
<g id="node22" class="node">
<title>Node33</title>
<g id="a_node22"><a xlink:href="class_urho3_d_1_1_hash_map.html" target="_top" xlink:title=" ">
<polygon fill="white" stroke="#666666" points="1326,-124.5 1179,-124.5 1179,-83.5 1326,-83.5 1326,-124.5"/>
<text text-anchor="start" x="1187" y="-112.5" font-family="Roboto" font-size="10.00">Urho3D::HashMap&lt; unsigned,</text>
<text text-anchor="start" x="1187" y="-101.5" font-family="Roboto" font-size="10.00"> Urho3D::SharedPtr&lt; Urho3D</text>
<text text-anchor="middle" x="1252.5" y="-90.5" font-family="Roboto" font-size="10.00">::PropertySet2D &gt; &gt;</text>
</a>
</g>
</g>
<!-- Node8&#45;&gt;Node33 -->
<g id="edge31" class="edge">
<title>Node8&#45;&gt;Node33</title>
<path fill="none" stroke="#63b8ff" d="M280.41,-179.66C318.95,-153.23 401.17,-104 479,-104 479,-104 479,-104 966.5,-104 1038.62,-104 1121,-104 1178.58,-104"/>
<polygon fill="#63b8ff" stroke="#63b8ff" points="278.57,-176.68 272.4,-185.29 282.59,-182.41 278.57,-176.68"/>
</g>
<!-- Node34 -->
<g id="node23" class="node">
<title>Node34</title>
<g id="a_node23"><a xlink:href="class_urho3_d_1_1_hash_map.html" target="_top" xlink:title=" ">
<polygon fill="white" stroke="#666666" points="1656,-86 1477,-86 1477,-34 1656,-34 1656,-86"/>
<text text-anchor="start" x="1485" y="-74" font-family="Roboto" font-size="10.00">Urho3D::HashMap&lt; unsigned,</text>
<text text-anchor="start" x="1485" y="-63" font-family="Roboto" font-size="10.00"> Urho3D::Vector&lt; Urho3D</text>
<text text-anchor="start" x="1485" y="-52" font-family="Roboto" font-size="10.00">::SharedPtr&lt; Urho3D::TileMapObject2</text>
<text text-anchor="middle" x="1566.5" y="-41" font-family="Roboto" font-size="10.00">D &gt; &gt; &gt;</text>
</a>
</g>
</g>
<!-- Node8&#45;&gt;Node34 -->
<g id="edge33" class="edge">
<title>Node8&#45;&gt;Node34</title>
<path fill="none" stroke="#63b8ff" d="M272.13,-177.8C284.69,-162.6 304.22,-141.2 325,-127 338.48,-117.78 471.07,-63 479,-63 479,-63 479,-63 1253.5,-63 1328.8,-63 1414.31,-62.12 1476.74,-61.31"/>
<polygon fill="#63b8ff" stroke="#63b8ff" points="269.75,-175.17 266.22,-185.16 275.21,-179.55 269.75,-175.17"/>
</g>
<!-- Node9 -->
<g id="node9" class="node">
<title>Node9</title>
<g id="a_node9"><a xlink:href="struct_urho3_d_1_1_hash_node_base.html" target="_top" xlink:title="Hash set/map node base class.">
<polygon fill="white" stroke="#666666" points="125,-238.5 0,-238.5 0,-219.5 125,-219.5 125,-238.5"/>
<text text-anchor="middle" x="62.5" y="-226.5" font-family="Roboto" font-size="10.00">Urho3D::HashNodeBase</text>
</a>
</g>
</g>
<!-- Node9&#45;&gt;Node8 -->
<g id="edge9" class="edge">
<title>Node9&#45;&gt;Node8</title>
<path fill="none" stroke="#9a32cd" stroke-dasharray="5,2" d="M132.81,-217.12C157.26,-212.93 184.23,-208.3 206.69,-204.45"/>
<polygon fill="#9a32cd" stroke="#9a32cd" points="132.54,-213.61 123.27,-218.75 133.72,-220.51 132.54,-213.61"/>
<text text-anchor="middle" x="166" y="-239" font-family="Roboto" font-size="10.00"> head_</text>
<text text-anchor="middle" x="166" y="-228" font-family="Roboto" font-size="10.00">ptrs_</text>
<text text-anchor="middle" x="166" y="-217" font-family="Roboto" font-size="10.00">tail_</text>
</g>
<!-- Node9&#45;&gt;Node9 -->
<g id="edge10" class="edge">
<title>Node9&#45;&gt;Node9</title>
<path fill="none" stroke="#9a32cd" stroke-dasharray="5,2" d="M44.13,-249.93C46.43,-253.79 52.55,-256.5 62.5,-256.5 80.69,-256.5 86.09,-247.44 78.7,-238.87"/>
<polygon fill="#9a32cd" stroke="#9a32cd" points="47.52,-250.84 46.01,-240.35 40.65,-249.49 47.52,-250.84"/>
<text text-anchor="middle" x="62.5" y="-281.5" font-family="Roboto" font-size="10.00"> down_</text>
<text text-anchor="middle" x="62.5" y="-270.5" font-family="Roboto" font-size="10.00">next_</text>
<text text-anchor="middle" x="62.5" y="-259.5" font-family="Roboto" font-size="10.00">prev_</text>
</g>
<!-- Node10 -->
<g id="node10" class="node">
<title>Node10</title>
<g id="a_node10"><a xlink:href="struct_urho3_d_1_1_allocator_block.html" target="_top" xlink:title="Allocator memory block.">
<polygon fill="#fff0f0" stroke="red" points="122.5,-172.5 2.5,-172.5 2.5,-153.5 122.5,-153.5 122.5,-172.5"/>
<text text-anchor="middle" x="62.5" y="-160.5" font-family="Roboto" font-size="10.00">Urho3D::AllocatorBlock</text>
</a>
</g>
</g>
<!-- Node10&#45;&gt;Node8 -->
<g id="edge11" class="edge">
<title>Node10&#45;&gt;Node8</title>
<path fill="none" stroke="#9a32cd" stroke-dasharray="5,2" d="M132.81,-174.88C157.26,-179.07 184.23,-183.7 206.69,-187.55"/>
<polygon fill="#9a32cd" stroke="#9a32cd" points="133.72,-171.49 123.27,-173.25 132.54,-178.39 133.72,-171.49"/>
<text text-anchor="middle" x="166" y="-187" font-family="Roboto" font-size="10.00"> allocator_</text>
</g>
<!-- Node10&#45;&gt;Node10 -->
<g id="edge12" class="edge">
<title>Node10&#45;&gt;Node10</title>
<path fill="none" stroke="#9a32cd" stroke-dasharray="5,2" d="M44.13,-183.93C46.43,-187.79 52.55,-190.5 62.5,-190.5 80.69,-190.5 86.09,-181.44 78.7,-172.87"/>
<polygon fill="#9a32cd" stroke="#9a32cd" points="47.52,-184.84 46.01,-174.35 40.65,-183.49 47.52,-184.84"/>
<text text-anchor="middle" x="62.5" y="-193.5" font-family="Roboto" font-size="10.00"> next_</text>
</g>
<!-- Node12&#45;&gt;Node6 -->
<g id="edge13" class="edge">
<title>Node12&#45;&gt;Node6</title>
<path fill="none" stroke="#9a32cd" stroke-dasharray="5,2" d="M566.21,-276.18C616.73,-286.58 680.05,-305.42 728,-339 738.92,-346.65 735.07,-355.36 746,-363 751.81,-367.06 758.49,-370.27 765.3,-372.8"/>
<polygon fill="#9a32cd" stroke="#9a32cd" points="566.95,-272.76 556.46,-274.26 565.59,-279.63 566.95,-272.76"/>
<text text-anchor="middle" x="658.5" y="-342" font-family="Roboto" font-size="10.00"> subsystems_</text>
</g>
<!-- Node24 -->
<g id="node12" class="node">
<title>Node24</title>
<g id="a_node12"><a xlink:href="class_urho3_d_1_1_linked_list.html" target="_top" xlink:title=" ">
<polygon fill="white" stroke="orangered" points="874,-354 746,-354 746,-324 874,-324 874,-354"/>
<text text-anchor="start" x="754" y="-342" font-family="Roboto" font-size="10.00">Urho3D::LinkedList</text>
<text text-anchor="middle" x="810" y="-331" font-family="Roboto" font-size="10.00">&lt; Urho3D::EventHandler &gt;</text>
</a>
</g>
</g>
<!-- Node24&#45;&gt;Node3 -->
<g id="edge15" class="edge">
<title>Node24&#45;&gt;Node3</title>
<path fill="none" stroke="#9a32cd" stroke-dasharray="5,2" d="M885.57,-330.14C933.52,-328.35 994.89,-333.79 1039,-365 1053.93,-375.56 1043.36,-389.82 1057,-402 1060.64,-405.25 1064.91,-407.92 1069.4,-410.12"/>
<polygon fill="#9a32cd" stroke="#9a32cd" points="885.63,-326.63 875.82,-330.62 885.98,-333.62 885.63,-326.63"/>
<text text-anchor="middle" x="965.5" y="-368" font-family="Roboto" font-size="10.00"> eventHandlers_</text>
</g>
<!-- Node25 -->
<g id="node13" class="node">
<title>Node25</title>
<g id="a_node13"><a xlink:href="class_urho3_d_1_1_string.html" target="_top" xlink:title="String class.">
<polygon fill="white" stroke="#666666" points="1149,-363.5 1069,-363.5 1069,-344.5 1149,-344.5 1149,-363.5"/>
<text text-anchor="middle" x="1109" y="-351.5" font-family="Roboto" font-size="10.00">Urho3D::String</text>
</a>
</g>
</g>
<!-- Node25&#45;&gt;Node2 -->
<g id="edge16" class="edge">
<title>Node25&#45;&gt;Node2</title>
<path fill="none" stroke="#9a32cd" stroke-dasharray="5,2" d="M1160.57,-345.3C1214.88,-335.95 1300.48,-321.22 1353.4,-312.11"/>
<polygon fill="#9a32cd" stroke="#9a32cd" points="1160.23,-341.8 1150.97,-346.95 1161.42,-348.7 1160.23,-341.8"/>
<text text-anchor="middle" x="1252.5" y="-344" font-family="Roboto" font-size="10.00"> name_</text>
</g>
<!-- Node25&#45;&gt;Node25 -->
<g id="edge17" class="edge">
<title>Node25&#45;&gt;Node25</title>
<path fill="none" stroke="#9a32cd" stroke-dasharray="5,2" d="M1083.53,-374.93C1086.71,-378.79 1095.21,-381.5 1109,-381.5 1134.22,-381.5 1141.71,-372.44 1131.47,-363.87"/>
<polygon fill="#9a32cd" stroke="#9a32cd" points="1086.89,-375.9 1086.14,-365.33 1080.14,-374.06 1086.89,-375.9"/>
<text text-anchor="middle" x="1109" y="-384.5" font-family="Roboto" font-size="10.00"> EMPTY</text>
</g>
<!-- Node21 -->
<g id="node14" class="node">
<title>Node21</title>
<g id="a_node14"><a xlink:href="class_urho3_d_1_1_string_hash.html" target="_top" xlink:title="32&#45;bit hash value for a string.">
<polygon fill="white" stroke="#666666" points="1161,-297.5 1057,-297.5 1057,-278.5 1161,-278.5 1161,-297.5"/>
<text text-anchor="middle" x="1109" y="-285.5" font-family="Roboto" font-size="10.00">Urho3D::StringHash</text>
</a>
</g>
</g>
<!-- Node21&#45;&gt;Node2 -->
<g id="edge18" class="edge">
<title>Node21&#45;&gt;Node2</title>
<path fill="none" stroke="#9a32cd" stroke-dasharray="5,2" d="M1172.46,-291.44C1226.64,-294.42 1303.89,-298.68 1353.11,-301.39"/>
<polygon fill="#9a32cd" stroke="#9a32cd" points="1172.96,-287.96 1162.78,-290.91 1172.57,-294.95 1172.96,-287.96"/>
<text text-anchor="middle" x="1252.5" y="-302" font-family="Roboto" font-size="10.00"> nameHash_</text>
</g>
<!-- Node21&#45;&gt;Node21 -->
<g id="edge19" class="edge">
<title>Node21&#45;&gt;Node21</title>
<path fill="none" stroke="#9a32cd" stroke-dasharray="5,2" d="M1083.53,-308.93C1086.71,-312.79 1095.21,-315.5 1109,-315.5 1134.22,-315.5 1141.71,-306.44 1131.47,-297.87"/>
<polygon fill="#9a32cd" stroke="#9a32cd" points="1086.89,-309.9 1086.14,-299.33 1080.14,-308.06 1086.89,-309.9"/>
<text text-anchor="middle" x="1109" y="-318.5" font-family="Roboto" font-size="10.00"> ZERO</text>
</g>
<!-- Node26 -->
<g id="node15" class="node">
<title>Node26</title>
<g id="a_node15"><a xlink:href="class_urho3_d_1_1_timer.html" target="_top" xlink:title="Low&#45;resolution operating system timer.">
<polygon fill="white" stroke="#666666" points="1149.5,-260.5 1068.5,-260.5 1068.5,-241.5 1149.5,-241.5 1149.5,-260.5"/>
<text text-anchor="middle" x="1109" y="-248.5" font-family="Roboto" font-size="10.00">Urho3D::Timer</text>
</a>
</g>
</g>
<!-- Node26&#45;&gt;Node2 -->
<g id="edge20" class="edge">
<title>Node26&#45;&gt;Node2</title>
<path fill="none" stroke="#9a32cd" stroke-dasharray="5,2" d="M1161.24,-253.4C1205.4,-256.31 1270.59,-262.6 1326,-276 1344.13,-280.39 1363.86,-287.93 1378.45,-294.09"/>
<polygon fill="#9a32cd" stroke="#9a32cd" points="1161.63,-249.92 1151.44,-252.8 1161.2,-256.91 1161.63,-249.92"/>
<text text-anchor="middle" x="1252.5" y="-279" font-family="Roboto" font-size="10.00"> useTimer_</text>
</g>
<!-- Node27 -->
<g id="node16" class="node">
<title>Node27</title>
<g id="a_node16"><a xlink:href="class_urho3_d_1_1_shared_ptr.html" target="_top" xlink:title=" ">
<polygon fill="white" stroke="#666666" points="2080.5,-276 1976.5,-276 1976.5,-246 2080.5,-246 2080.5,-276"/>
<text text-anchor="start" x="1984.5" y="-264" font-family="Roboto" font-size="10.00">Urho3D::SharedPtr&lt;</text>
<text text-anchor="middle" x="2028.5" y="-253" font-family="Roboto" font-size="10.00"> Urho3D::XMLFile &gt;</text>
</a>
</g>
</g>
<!-- Node27&#45;&gt;Node1 -->
<g id="edge21" class="edge">
<title>Node27&#45;&gt;Node1</title>
<path fill="none" stroke="#9a32cd" stroke-dasharray="5,2" d="M2092.02,-256.44C2117.72,-252.53 2147.03,-245.3 2171,-232 2198.66,-216.66 2221.76,-186.13 2232.32,-170.58"/>
<polygon fill="#9a32cd" stroke="#9a32cd" points="2091.8,-252.94 2082.37,-257.77 2092.75,-259.88 2091.8,-252.94"/>
<text text-anchor="middle" x="2140" y="-255" font-family="Roboto" font-size="10.00"> loadXMLFile_</text>
</g>
<!-- Node28&#45;&gt;Node27 -->
<g id="edge22" class="edge">
<title>Node28&#45;&gt;Node27</title>
<path fill="none" stroke="#9a32cd" stroke-dasharray="5,2" d="M1791.13,-261C1844.44,-261 1924.23,-261 1976.08,-261"/>
<polygon fill="#9a32cd" stroke="#9a32cd" points="1791.36,-257.5 1781.36,-261 1791.36,-264.5 1791.36,-257.5"/>
<text text-anchor="middle" x="1880.5" y="-264" font-family="Roboto" font-size="10.00"> ptr_</text>
</g>
<!-- Node29 -->
<g id="node18" class="node">
<title>Node29</title>
<g id="a_node18"><a xlink:href="class_urho3_d_1_1_unique_ptr.html" target="_top" xlink:title=" ">
<polygon fill="white" stroke="#666666" points="1459,-272 1344,-272 1344,-242 1459,-242 1459,-272"/>
<text text-anchor="start" x="1352" y="-260" font-family="Roboto" font-size="10.00">Urho3D::UniquePtr&lt;</text>
<text text-anchor="middle" x="1401.5" y="-249" font-family="Roboto" font-size="10.00"> pugi::xml_document &gt;</text>
</a>
</g>
</g>
<!-- Node29&#45;&gt;Node28 -->
<g id="edge24" class="edge">
<title>Node29&#45;&gt;Node28</title>
<path fill="none" stroke="#9a32cd" stroke-dasharray="5,2" d="M1470.61,-256.63C1521.65,-256.5 1593.21,-256.66 1656,-258 1666.77,-258.23 1678.38,-258.61 1689.25,-259.02"/>
<polygon fill="#9a32cd" stroke="#9a32cd" points="1470.89,-253.13 1460.91,-256.66 1470.92,-260.13 1470.89,-253.13"/>
<text text-anchor="middle" x="1566.5" y="-261" font-family="Roboto" font-size="10.00"> document_</text>
</g>
<!-- Node30&#45;&gt;Node1 -->
<g id="edge25" class="edge">
<title>Node30&#45;&gt;Node1</title>
<path fill="none" stroke="#9a32cd" stroke-dasharray="5,2" d="M739.44,-206.19C1000.32,-209.83 1825.31,-219.38 2091,-199 2126.85,-196.25 2136.24,-196.18 2171,-187 2186.54,-182.89 2203.42,-176.39 2216.41,-170.92"/>
<polygon fill="#9a32cd" stroke="#9a32cd" points="739.74,-202.69 729.69,-206.05 739.64,-209.69 739.74,-202.69"/>
<text text-anchor="middle" x="1401.5" y="-214" font-family="Roboto" font-size="10.00"> tsxXMLFiles_</text>
</g>
<!-- Node31 -->
<g id="node20" class="node">
<title>Node31</title>
<g id="a_node20"><a xlink:href="struct_urho3_d_1_1_tile_map_info2_d.html" target="_top" xlink:title=" ">
<polygon fill="white" stroke="#666666" points="2088.5,-189.5 1968.5,-189.5 1968.5,-170.5 2088.5,-170.5 2088.5,-189.5"/>
<text text-anchor="middle" x="2028.5" y="-177.5" font-family="Roboto" font-size="10.00">Urho3D::TileMapInfo2D</text>
</a>
</g>
</g>
<!-- Node31&#45;&gt;Node1 -->
<g id="edge27" class="edge">
<title>Node31&#45;&gt;Node1</title>
<path fill="none" stroke="#9a32cd" stroke-dasharray="5,2" d="M2100.16,-173.58C2129.19,-170.94 2162.12,-167.94 2188.57,-165.54"/>
<polygon fill="#9a32cd" stroke="#9a32cd" points="2099.98,-170.08 2090.34,-174.47 2100.62,-177.05 2099.98,-170.08"/>
<text text-anchor="middle" x="2140" y="-175" font-family="Roboto" font-size="10.00"> info_</text>
</g>
<!-- Node32&#45;&gt;Node1 -->
<g id="edge28" class="edge">
<title>Node32&#45;&gt;Node1</title>
<path fill="none" stroke="#9a32cd" stroke-dasharray="5,2" d="M1050.85,-144.1C1107.58,-143.57 1184.03,-143 1251.5,-143 1251.5,-143 1251.5,-143 1735.5,-143 1901.53,-143 2098.18,-152.92 2188.55,-158.03"/>
<polygon fill="#9a32cd" stroke="#9a32cd" points="1050.9,-140.6 1040.94,-144.19 1050.97,-147.6 1050.9,-140.6"/>
<text text-anchor="middle" x="1566.5" y="-146" font-family="Roboto" font-size="10.00"> gidToSpriteMapping_</text>
</g>
<!-- Node33&#45;&gt;Node1 -->
<g id="edge30" class="edge">
<title>Node33&#45;&gt;Node1</title>
<path fill="none" stroke="#9a32cd" stroke-dasharray="5,2" d="M1337.74,-104C1400.52,-104 1488.37,-104 1565.5,-104 1565.5,-104 1565.5,-104 2029.5,-104 2093.29,-104 2110.28,-108.46 2171,-128 2189,-133.79 2208.27,-143.61 2221.59,-151.04"/>
<polygon fill="#9a32cd" stroke="#9a32cd" points="1337.83,-100.5 1327.83,-104 1337.83,-107.5 1337.83,-100.5"/>
<text text-anchor="middle" x="1734.5" y="-107" font-family="Roboto" font-size="10.00"> gidToPropertySetMapping_</text>
</g>
<!-- Node34&#45;&gt;Node1 -->
<g id="edge32" class="edge">
<title>Node34&#45;&gt;Node1</title>
<path fill="none" stroke="#9a32cd" stroke-dasharray="5,2" d="M1667.56,-56.1C1815.43,-51.82 2084.17,-50.16 2171,-90 2199.91,-103.26 2222.6,-135.03 2232.73,-151.2"/>
<polygon fill="#9a32cd" stroke="#9a32cd" points="1667.66,-52.6 1657.77,-56.39 1667.87,-59.59 1667.66,-52.6"/>
<text text-anchor="middle" x="1880.5" y="-60" font-family="Roboto" font-size="10.00"> gidToCollisionShapeMapping_</text>
</g>
<!-- Node35 -->
<g id="node24" class="node">
<title>Node35</title>
<g id="a_node24"><a xlink:href="class_urho3_d_1_1_vector.html" target="_top" xlink:title=" ">
<polygon fill="white" stroke="#666666" points="2091,-30 1966,-30 1966,0 2091,0 2091,-30"/>
<text text-anchor="start" x="1974" y="-18" font-family="Roboto" font-size="10.00">Urho3D::Vector&lt; Urho3D</text>
<text text-anchor="middle" x="2028.5" y="-7" font-family="Roboto" font-size="10.00">::TmxLayer2D * &gt;</text>
</a>
</g>
</g>
<!-- Node35&#45;&gt;Node1 -->
<g id="edge34" class="edge">
<title>Node35&#45;&gt;Node1</title>
<path fill="none" stroke="#9a32cd" stroke-dasharray="5,2" d="M2102.83,-11.39C2126.33,-13.46 2151.32,-19.36 2171,-33 2213.33,-62.34 2231.15,-126.77 2236.57,-151.28"/>
<polygon fill="#9a32cd" stroke="#9a32cd" points="2103.17,-7.91 2092.96,-10.76 2102.72,-14.89 2103.17,-7.91"/>
<text text-anchor="middle" x="2140" y="-36" font-family="Roboto" font-size="10.00"> layers_</text>
</g>
<!-- Node17 -->
<g id="node25" class="node">
<title>Node17</title>
<g id="a_node25"><a xlink:href="class_urho3_d_1_1_vector_base.html" target="_top" xlink:title="Vector base class.">
<polygon fill="white" stroke="#666666" points="1787.5,-24.5 1681.5,-24.5 1681.5,-5.5 1787.5,-5.5 1787.5,-24.5"/>
<text text-anchor="middle" x="1734.5" y="-12.5" font-family="Roboto" font-size="10.00">Urho3D::VectorBase</text>
</a>
</g>
</g>
<!-- Node17&#45;&gt;Node35 -->
<g id="edge35" class="edge">
<title>Node17&#45;&gt;Node35</title>
<path fill="none" stroke="#63b8ff" d="M1799.21,-15C1848.61,-15 1916.68,-15 1965.62,-15"/>
<polygon fill="#63b8ff" stroke="#63b8ff" points="1799.22,-11.5 1789.22,-15 1799.22,-18.5 1799.22,-11.5"/>
</g>
</g>
</svg>
