<?xml version="1.0" encoding="UTF-8" standalone="no"?>
<!DOCTYPE svg PUBLIC "-//W3C//DTD SVG 1.1//EN"
 "http://www.w3.org/Graphics/SVG/1.1/DTD/svg11.dtd">
<!-- Generated by graphviz version 7.0.3 (0)
 -->
<!-- Title: Urho3D::UIElement::GetIndent Pages: 1 -->
<svg width="1352pt" height="271pt"
 viewBox="0.00 0.00 1352.00 270.50" xmlns="http://www.w3.org/2000/svg" xmlns:xlink="http://www.w3.org/1999/xlink">
<g id="graph0" class="graph" transform="scale(1 1) rotate(0) translate(4 266.5)">
<title>Urho3D::UIElement::GetIndent</title>
<!-- Node1 -->
<g id="node1" class="node">
<title>Node1</title>
<g id="a_node1"><a xlink:title=" ">
<polygon fill="#999999" stroke="#666666" points="1344,-180 1239,-180 1239,-150 1344,-150 1344,-180"/>
<text text-anchor="start" x="1247" y="-168" font-family="Roboto" font-size="10.00">Urho3D::UIElement::</text>
<text text-anchor="middle" x="1291.5" y="-157" font-family="Roboto" font-size="10.00">GetIndent</text>
</a>
</g>
</g>
<!-- Node2 -->
<g id="node2" class="node">
<title>Node2</title>
<g id="a_node2"><a xlink:href="class_urho3_d_1_1_list_view.html#a84269ea23d32d38cb9ecf7dbf2712674" target="_top" xlink:title="Expand item at index. Only has effect in hierarchy mode.">
<polygon fill="white" stroke="#666666" points="1191.5,-236.5 1062.5,-236.5 1062.5,-217.5 1191.5,-217.5 1191.5,-236.5"/>
<text text-anchor="middle" x="1127" y="-224.5" font-family="Roboto" font-size="10.00">Urho3D::ListView::Expand</text>
</a>
</g>
</g>
<!-- Node1&#45;&gt;Node2 -->
<g id="edge1" class="edge">
<title>Node1&#45;&gt;Node2</title>
<path fill="none" stroke="#63b8ff" d="M1239.34,-184.52C1210.93,-195.36 1176.8,-208.38 1153.88,-217.12"/>
<polygon fill="#63b8ff" stroke="#63b8ff" points="1240.4,-187.86 1248.5,-181.02 1237.91,-181.32 1240.4,-187.86"/>
</g>
<!-- Node5 -->
<g id="node5" class="node">
<title>Node5</title>
<g id="a_node5"><a xlink:href="class_urho3_d_1_1_list_view.html#aeb784361fd2f048e99d554b6c4375e07" target="_top" xlink:title="Insert item at a specific index. In hierarchy mode, the optional parameter will be used to determine ...">
<polygon fill="white" stroke="#666666" points="1198,-174.5 1056,-174.5 1056,-155.5 1198,-155.5 1198,-174.5"/>
<text text-anchor="middle" x="1127" y="-162.5" font-family="Roboto" font-size="10.00">Urho3D::ListView::InsertItem</text>
</a>
</g>
</g>
<!-- Node1&#45;&gt;Node5 -->
<g id="edge5" class="edge">
<title>Node1&#45;&gt;Node5</title>
<path fill="none" stroke="#63b8ff" d="M1227.28,-165C1217.79,-165 1207.96,-165 1198.34,-165"/>
<polygon fill="#63b8ff" stroke="#63b8ff" points="1227.12,-168.5 1237.12,-165 1227.12,-161.5 1227.12,-168.5"/>
</g>
<!-- Node20 -->
<g id="node20" class="node">
<title>Node20</title>
<g id="a_node20"><a xlink:href="class_urho3_d_1_1_list_view.html#a2c7adecbfcfc748d393a79f945d84faf" target="_top" xlink:title="Remove specific item, starting search at the specified index if provided. In hierarchy mode will also...">
<polygon fill="white" stroke="#666666" points="1203,-137.5 1051,-137.5 1051,-118.5 1203,-118.5 1203,-137.5"/>
<text text-anchor="middle" x="1127" y="-125.5" font-family="Roboto" font-size="10.00">Urho3D::ListView::RemoveItem</text>
</a>
</g>
</g>
<!-- Node1&#45;&gt;Node20 -->
<g id="edge26" class="edge">
<title>Node1&#45;&gt;Node20</title>
<path fill="none" stroke="#63b8ff" d="M1227.54,-150.67C1208.89,-146.42 1188.89,-141.86 1171.74,-137.96"/>
<polygon fill="#63b8ff" stroke="#63b8ff" points="1226.63,-154.05 1237.16,-152.86 1228.19,-147.22 1226.63,-154.05"/>
</g>
<!-- Node3 -->
<g id="node3" class="node">
<title>Node3</title>
<g id="a_node3"><a xlink:href="class_urho3_d_1_1_list_view.html#a8a67087dd8eb4dc4f977f27769593e13" target="_top" xlink:title="React to a key press.">
<polygon fill="white" stroke="#666666" points="768.5,-262.5 644.5,-262.5 644.5,-243.5 768.5,-243.5 768.5,-262.5"/>
<text text-anchor="middle" x="706.5" y="-250.5" font-family="Roboto" font-size="10.00">Urho3D::ListView::OnKey</text>
</a>
</g>
</g>
<!-- Node2&#45;&gt;Node3 -->
<g id="edge2" class="edge">
<title>Node2&#45;&gt;Node3</title>
<path fill="none" stroke="#63b8ff" d="M1078.05,-239.63C1058.62,-244.15 1035.89,-248.7 1015,-251 930.1,-260.35 831.2,-258.8 768.98,-256.31"/>
<polygon fill="#63b8ff" stroke="#63b8ff" points="1078.68,-243.08 1087.59,-237.34 1077.05,-236.27 1078.68,-243.08"/>
</g>
<!-- Node4 -->
<g id="node4" class="node">
<title>Node4</title>
<g id="a_node4"><a xlink:href="class_urho3_d_1_1_list_view.html#ae7a9230a51d7b6272e339781d8e7be48" target="_top" xlink:title="Toggle item&#39;s expanded flag at index. Only has effect in hierarchy mode.">
<polygon fill="white" stroke="#666666" points="980.5,-242 855.5,-242 855.5,-212 980.5,-212 980.5,-242"/>
<text text-anchor="start" x="863.5" y="-230" font-family="Roboto" font-size="10.00">Urho3D::ListView::Toggle</text>
<text text-anchor="middle" x="918" y="-219" font-family="Roboto" font-size="10.00">Expand</text>
</a>
</g>
</g>
<!-- Node2&#45;&gt;Node4 -->
<g id="edge3" class="edge">
<title>Node2&#45;&gt;Node4</title>
<path fill="none" stroke="#63b8ff" d="M1050.75,-227C1027.78,-227 1002.79,-227 980.81,-227"/>
<polygon fill="#63b8ff" stroke="#63b8ff" points="1050.69,-230.5 1060.69,-227 1050.69,-223.5 1050.69,-230.5"/>
</g>
<!-- Node4&#45;&gt;Node3 -->
<g id="edge4" class="edge">
<title>Node4&#45;&gt;Node3</title>
<path fill="none" stroke="#63b8ff" d="M844.18,-236.04C819.59,-239.09 792.39,-242.46 768.78,-245.39"/>
<polygon fill="#63b8ff" stroke="#63b8ff" points="844.28,-239.55 853.77,-234.85 843.42,-232.6 844.28,-239.55"/>
</g>
<!-- Node6 -->
<g id="node6" class="node">
<title>Node6</title>
<g id="a_node6"><a xlink:href="class_urho3_d_1_1_list_view.html#aa7328480b37cc673aa9ccea8653e2c67" target="_top" xlink:title="Add item to the end of the list.">
<polygon fill="white" stroke="#666666" points="985.5,-193.5 850.5,-193.5 850.5,-174.5 985.5,-174.5 985.5,-193.5"/>
<text text-anchor="middle" x="918" y="-181.5" font-family="Roboto" font-size="10.00">Urho3D::ListView::AddItem</text>
</a>
</g>
</g>
<!-- Node5&#45;&gt;Node6 -->
<g id="edge6" class="edge">
<title>Node5&#45;&gt;Node6</title>
<path fill="none" stroke="#63b8ff" d="M1044.33,-172.5C1024.88,-174.28 1004.36,-176.16 985.68,-177.88"/>
<polygon fill="#63b8ff" stroke="#63b8ff" points="1044.48,-176 1054.12,-171.6 1043.85,-169.03 1044.48,-176"/>
</g>
<!-- Node18 -->
<g id="node18" class="node">
<title>Node18</title>
<g id="a_node18"><a xlink:href="class_urho3_d_1_1_console.html#a18546b712ec118a256122c627696662e" target="_top" xlink:title=" ">
<polygon fill="white" stroke="#666666" points="1015,-156.5 821,-156.5 821,-137.5 1015,-137.5 1015,-156.5"/>
<text text-anchor="middle" x="918" y="-144.5" font-family="Roboto" font-size="10.00">Urho3D::Console::SetNumBufferedRows</text>
</a>
</g>
</g>
<!-- Node5&#45;&gt;Node18 -->
<g id="edge23" class="edge">
<title>Node5&#45;&gt;Node18</title>
<path fill="none" stroke="#63b8ff" d="M1044.18,-157.88C1034.66,-157.06 1024.89,-156.21 1015.21,-155.37"/>
<polygon fill="#63b8ff" stroke="#63b8ff" points="1043.86,-161.37 1054.12,-158.75 1044.46,-154.4 1043.86,-161.37"/>
</g>
<!-- Node7 -->
<g id="node7" class="node">
<title>Node7</title>
<g id="a_node7"><a xlink:href="class_urho3_d_1_1_console.html#a21804113c047d876e9358aaa9daabf67" target="_top" xlink:title="Handle the application post&#45;update.">
<polygon fill="white" stroke="#666666" points="780.5,-121 632.5,-121 632.5,-91 780.5,-91 780.5,-121"/>
<text text-anchor="start" x="640.5" y="-109" font-family="Roboto" font-size="10.00">Urho3D::Console::HandlePost</text>
<text text-anchor="middle" x="706.5" y="-98" font-family="Roboto" font-size="10.00">Update</text>
</a>
</g>
</g>
<!-- Node6&#45;&gt;Node7 -->
<g id="edge7" class="edge">
<title>Node6&#45;&gt;Node7</title>
<path fill="none" stroke="#63b8ff" d="M839.37,-172.73C832.99,-170.59 826.78,-168.04 821,-165 801.24,-154.63 804.19,-141.39 785,-130 779.55,-126.76 773.62,-123.92 767.55,-121.44"/>
<polygon fill="#63b8ff" stroke="#63b8ff" points="838.19,-176.03 848.77,-175.54 840.19,-169.32 838.19,-176.03"/>
</g>
<!-- Node9 -->
<g id="node9" class="node">
<title>Node9</title>
<g id="a_node9"><a xlink:href="class_urho3_d_1_1_file_selector.html#a8ec8d229ef0e2a4836634e01e96803a7" target="_top" xlink:title="Refresh the directory listing.">
<polygon fill="white" stroke="#666666" points="760,-207 653,-207 653,-177 760,-177 760,-207"/>
<text text-anchor="start" x="661" y="-195" font-family="Roboto" font-size="10.00">Urho3D::FileSelector</text>
<text text-anchor="middle" x="706.5" y="-184" font-family="Roboto" font-size="10.00">::RefreshFiles</text>
</a>
</g>
</g>
<!-- Node6&#45;&gt;Node9 -->
<g id="edge9" class="edge">
<title>Node6&#45;&gt;Node9</title>
<path fill="none" stroke="#63b8ff" d="M838.73,-186.99C812.64,-187.99 784.2,-189.07 760.49,-189.98"/>
<polygon fill="#63b8ff" stroke="#63b8ff" points="838.77,-190.49 848.62,-186.61 838.5,-183.5 838.77,-190.49"/>
</g>
<!-- Node8 -->
<g id="node8" class="node">
<title>Node8</title>
<g id="a_node8"><a xlink:href="class_urho3_d_1_1_console.html#afa65f6eacc596b544de5b0c3bc1a3d55" target="_top" xlink:title="Construct.">
<polygon fill="white" stroke="#666666" points="592,-115.5 459,-115.5 459,-96.5 592,-96.5 592,-115.5"/>
<text text-anchor="middle" x="525.5" y="-103.5" font-family="Roboto" font-size="10.00">Urho3D::Console::Console</text>
</a>
</g>
</g>
<!-- Node7&#45;&gt;Node8 -->
<g id="edge8" class="edge">
<title>Node7&#45;&gt;Node8</title>
<path fill="none" stroke="#63b8ff" d="M620.93,-106C611.29,-106 601.58,-106 592.24,-106"/>
<polygon fill="#63b8ff" stroke="#63b8ff" points="620.66,-109.5 630.66,-106 620.66,-102.5 620.66,-109.5"/>
</g>
<!-- Node10 -->
<g id="node10" class="node">
<title>Node10</title>
<g id="a_node10"><a xlink:href="class_urho3_d_1_1_file_selector.html#a372b507fb35782c00d99ded29d4610f0" target="_top" xlink:title="Handle filter changed.">
<polygon fill="white" stroke="#666666" points="423,-250 310,-250 310,-220 423,-220 423,-250"/>
<text text-anchor="start" x="318" y="-238" font-family="Roboto" font-size="10.00">Urho3D::FileSelector</text>
<text text-anchor="middle" x="366.5" y="-227" font-family="Roboto" font-size="10.00">::HandleFilterChanged</text>
</a>
</g>
</g>
<!-- Node9&#45;&gt;Node10 -->
<g id="edge10" class="edge">
<title>Node9&#45;&gt;Node10</title>
<path fill="none" stroke="#63b8ff" d="M641.32,-200.17C578.33,-208.18 483.25,-220.27 423.31,-227.9"/>
<polygon fill="#63b8ff" stroke="#63b8ff" points="641.71,-203.64 651.19,-198.91 640.82,-196.7 641.71,-203.64"/>
</g>
<!-- Node12 -->
<g id="node12" class="node">
<title>Node12</title>
<g id="a_node12"><a xlink:href="class_urho3_d_1_1_file_selector.html#a8f0352bf675048a625d1b8e5ae2ce8ea" target="_top" xlink:title="Set filters.">
<polygon fill="white" stroke="#666666" points="262,-206 155,-206 155,-176 262,-176 262,-206"/>
<text text-anchor="start" x="163" y="-194" font-family="Roboto" font-size="10.00">Urho3D::FileSelector</text>
<text text-anchor="middle" x="208.5" y="-183" font-family="Roboto" font-size="10.00">::SetFilters</text>
</a>
</g>
</g>
<!-- Node9&#45;&gt;Node12 -->
<g id="edge12" class="edge">
<title>Node9&#45;&gt;Node12</title>
<path fill="none" stroke="#63b8ff" d="M641.56,-191.87C542.57,-191.67 354.08,-191.29 262.32,-191.11"/>
<polygon fill="#63b8ff" stroke="#63b8ff" points="641.37,-195.37 651.38,-191.89 641.38,-188.37 641.37,-195.37"/>
</g>
<!-- Node13 -->
<g id="node13" class="node">
<title>Node13</title>
<g id="a_node13"><a xlink:href="class_urho3_d_1_1_file_selector.html#a70224d0b3a485fd4aab57cc6b9af1c6f" target="_top" xlink:title=" ">
<polygon fill="white" stroke="#666666" points="579,-164 472,-164 472,-134 579,-134 579,-164"/>
<text text-anchor="start" x="480" y="-152" font-family="Roboto" font-size="10.00">Urho3D::FileSelector</text>
<text text-anchor="middle" x="525.5" y="-141" font-family="Roboto" font-size="10.00">::SetPath</text>
</a>
</g>
</g>
<!-- Node9&#45;&gt;Node13 -->
<g id="edge14" class="edge">
<title>Node9&#45;&gt;Node13</title>
<path fill="none" stroke="#63b8ff" d="M641.67,-176.67C621.3,-171.77 598.99,-166.41 579.48,-161.73"/>
<polygon fill="#63b8ff" stroke="#63b8ff" points="640.75,-180.04 651.29,-178.98 642.38,-173.24 640.75,-180.04"/>
</g>
<!-- Node11 -->
<g id="node11" class="node">
<title>Node11</title>
<g id="a_node11"><a xlink:href="class_urho3_d_1_1_file_selector.html#ae0e66de218b839be46c7f802abf04c80" target="_top" xlink:title="Construct.">
<polygon fill="white" stroke="#666666" points="107,-142 0,-142 0,-112 107,-112 107,-142"/>
<text text-anchor="start" x="8" y="-130" font-family="Roboto" font-size="10.00">Urho3D::FileSelector</text>
<text text-anchor="middle" x="53.5" y="-119" font-family="Roboto" font-size="10.00">::FileSelector</text>
</a>
</g>
</g>
<!-- Node10&#45;&gt;Node11 -->
<g id="edge11" class="edge">
<title>Node10&#45;&gt;Node11</title>
<path fill="none" stroke="#63b8ff" d="M298.46,-240.57C252.63,-241.67 191.61,-237.65 143,-215 108.24,-198.8 79.24,-162.93 64.65,-142.34"/>
<polygon fill="#63b8ff" stroke="#63b8ff" points="298.38,-244.08 308.26,-240.24 298.15,-237.08 298.38,-244.08"/>
</g>
<!-- Node12&#45;&gt;Node11 -->
<g id="edge13" class="edge">
<title>Node12&#45;&gt;Node11</title>
<path fill="none" stroke="#63b8ff" d="M159.97,-171.12C137.89,-161.88 112.04,-151.07 91.46,-142.46"/>
<polygon fill="#63b8ff" stroke="#63b8ff" points="158.49,-174.29 169.07,-174.92 161.19,-167.84 158.49,-174.29"/>
</g>
<!-- Node13&#45;&gt;Node11 -->
<g id="edge20" class="edge">
<title>Node13&#45;&gt;Node11</title>
<path fill="none" stroke="#63b8ff" d="M460.54,-131.5C448.18,-128.8 435.26,-126.43 423,-125 311.16,-111.96 178.93,-117.79 107.2,-122.72"/>
<polygon fill="#63b8ff" stroke="#63b8ff" points="459.7,-134.9 470.23,-133.73 461.27,-128.08 459.7,-134.9"/>
</g>
<!-- Node14 -->
<g id="node14" class="node">
<title>Node14</title>
<g id="a_node14"><a xlink:href="class_urho3_d_1_1_file_selector.html#ac7c4c01759f09d23dd856c71a2cc1655" target="_top" xlink:title="Enter a directory or confirm a file. Return true if a directory entered.">
<polygon fill="white" stroke="#666666" points="420,-78 313,-78 313,-48 420,-48 420,-78"/>
<text text-anchor="start" x="321" y="-66" font-family="Roboto" font-size="10.00">Urho3D::FileSelector</text>
<text text-anchor="middle" x="366.5" y="-55" font-family="Roboto" font-size="10.00">::EnterFile</text>
</a>
</g>
</g>
<!-- Node13&#45;&gt;Node14 -->
<g id="edge15" class="edge">
<title>Node13&#45;&gt;Node14</title>
<path fill="none" stroke="#63b8ff" d="M467.52,-128.74C464.59,-127.24 461.73,-125.66 459,-124 440.7,-112.89 440.62,-104.16 423,-92 415.93,-87.12 407.94,-82.49 400.27,-78.42"/>
<polygon fill="#63b8ff" stroke="#63b8ff" points="465.79,-131.79 476.33,-132.9 468.78,-125.46 465.79,-131.79"/>
</g>
<!-- Node17 -->
<g id="node17" class="node">
<title>Node17</title>
<g id="a_node17"><a xlink:href="class_urho3_d_1_1_file_selector.html#ac07a78273e7db4a6d4ab33d807c072f7" target="_top" xlink:title="Handle path edited.">
<polygon fill="white" stroke="#666666" points="422,-164 311,-164 311,-134 422,-134 422,-164"/>
<text text-anchor="start" x="319" y="-152" font-family="Roboto" font-size="10.00">Urho3D::FileSelector</text>
<text text-anchor="middle" x="366.5" y="-141" font-family="Roboto" font-size="10.00">::HandlePathChanged</text>
</a>
</g>
</g>
<!-- Node13&#45;&gt;Node17 -->
<g id="edge21" class="edge">
<title>Node13&#45;&gt;Node17</title>
<path fill="none" stroke="#63b8ff" d="M460.41,-149C447.83,-149 434.74,-149 422.49,-149"/>
<polygon fill="#63b8ff" stroke="#63b8ff" points="460.27,-152.5 470.27,-149 460.27,-145.5 460.27,-152.5"/>
</g>
<!-- Node15 -->
<g id="node15" class="node">
<title>Node15</title>
<g id="a_node15"><a xlink:href="class_urho3_d_1_1_file_selector.html#a004ed41fadc3029706a35857268bfdaf" target="_top" xlink:title="Handle file doubleclicked from the list (enter directory / OK the file selection).">
<polygon fill="white" stroke="#666666" points="274,-78 143,-78 143,-48 274,-48 274,-78"/>
<text text-anchor="start" x="151" y="-66" font-family="Roboto" font-size="10.00">Urho3D::FileSelector</text>
<text text-anchor="middle" x="208.5" y="-55" font-family="Roboto" font-size="10.00">::HandleFileDoubleClicked</text>
</a>
</g>
</g>
<!-- Node14&#45;&gt;Node15 -->
<g id="edge16" class="edge">
<title>Node14&#45;&gt;Node15</title>
<path fill="none" stroke="#63b8ff" d="M301.23,-63C292.39,-63 283.3,-63 274.44,-63"/>
<polygon fill="#63b8ff" stroke="#63b8ff" points="301.17,-66.5 311.17,-63 301.17,-59.5 301.17,-66.5"/>
</g>
<!-- Node16 -->
<g id="node16" class="node">
<title>Node16</title>
<g id="a_node16"><a xlink:href="class_urho3_d_1_1_file_selector.html#a5315d211e3108ad4012c648d1cbd3b6a" target="_top" xlink:title="Handle file list key pressed.">
<polygon fill="white" stroke="#666666" points="262,-30 155,-30 155,0 262,0 262,-30"/>
<text text-anchor="start" x="163" y="-18" font-family="Roboto" font-size="10.00">Urho3D::FileSelector</text>
<text text-anchor="middle" x="208.5" y="-7" font-family="Roboto" font-size="10.00">::HandleFileListKey</text>
</a>
</g>
</g>
<!-- Node14&#45;&gt;Node16 -->
<g id="edge18" class="edge">
<title>Node14&#45;&gt;Node16</title>
<path fill="none" stroke="#63b8ff" d="M304.62,-44.27C289.73,-39.68 273.95,-34.83 259.62,-30.42"/>
<polygon fill="#63b8ff" stroke="#63b8ff" points="303.25,-47.51 313.84,-47.1 305.31,-40.82 303.25,-47.51"/>
</g>
<!-- Node15&#45;&gt;Node11 -->
<g id="edge17" class="edge">
<title>Node15&#45;&gt;Node11</title>
<path fill="none" stroke="#63b8ff" d="M159.97,-82.88C137.89,-92.12 112.04,-102.93 91.46,-111.54"/>
<polygon fill="#63b8ff" stroke="#63b8ff" points="161.19,-86.16 169.07,-79.08 158.49,-79.71 161.19,-86.16"/>
</g>
<!-- Node16&#45;&gt;Node11 -->
<g id="edge19" class="edge">
<title>Node16&#45;&gt;Node11</title>
<path fill="none" stroke="#63b8ff" d="M149.1,-35.38C147.01,-36.54 144.97,-37.74 143,-39 111.43,-59.21 82.11,-92.29 66.42,-111.62"/>
<polygon fill="#63b8ff" stroke="#63b8ff" points="150.45,-38.62 157.84,-31.03 147.33,-32.35 150.45,-38.62"/>
</g>
<!-- Node17&#45;&gt;Node11 -->
<g id="edge22" class="edge">
<title>Node17&#45;&gt;Node11</title>
<path fill="none" stroke="#63b8ff" d="M299.14,-144.31C241.86,-140.25 160.21,-134.48 107.28,-130.73"/>
<polygon fill="#63b8ff" stroke="#63b8ff" points="298.88,-147.8 309.11,-145.01 299.38,-140.81 298.88,-147.8"/>
</g>
<!-- Node19 -->
<g id="node19" class="node">
<title>Node19</title>
<g id="a_node19"><a xlink:href="class_urho3_d_1_1_console.html#a6b523b3fbdff6cc3da360dc128be09fd" target="_top" xlink:title=" ">
<polygon fill="white" stroke="#666666" points="785,-158.5 628,-158.5 628,-139.5 785,-139.5 785,-158.5"/>
<text text-anchor="middle" x="706.5" y="-146.5" font-family="Roboto" font-size="10.00">Urho3D::Console::SetNumRows</text>
</a>
</g>
</g>
<!-- Node18&#45;&gt;Node19 -->
<g id="edge24" class="edge">
<title>Node18&#45;&gt;Node19</title>
<path fill="none" stroke="#63b8ff" d="M809.15,-148.03C801.1,-148.11 793.08,-148.18 785.27,-148.26"/>
<polygon fill="#63b8ff" stroke="#63b8ff" points="809.05,-151.53 819.01,-147.94 808.98,-144.53 809.05,-151.53"/>
</g>
<!-- Node19&#45;&gt;Node8 -->
<g id="edge25" class="edge">
<title>Node19&#45;&gt;Node8</title>
<path fill="none" stroke="#63b8ff" d="M653.14,-136.42C626.05,-129.91 593.44,-122.08 568.1,-115.99"/>
<polygon fill="#63b8ff" stroke="#63b8ff" points="651.97,-139.74 662.51,-138.67 653.61,-132.93 651.97,-139.74"/>
</g>
<!-- Node20&#45;&gt;Node7 -->
<g id="edge27" class="edge">
<title>Node20&#45;&gt;Node7</title>
<path fill="none" stroke="#63b8ff" d="M1039.21,-123.44C962.82,-119.42 852.85,-113.64 780.79,-109.85"/>
<polygon fill="#63b8ff" stroke="#63b8ff" points="1039.02,-126.93 1049.19,-123.96 1039.38,-119.94 1039.02,-126.93"/>
</g>
<!-- Node20&#45;&gt;Node18 -->
<g id="edge29" class="edge">
<title>Node20&#45;&gt;Node18</title>
<path fill="none" stroke="#63b8ff" d="M1039.28,-135.96C1031.41,-136.68 1023.42,-137.42 1015.48,-138.14"/>
<polygon fill="#63b8ff" stroke="#63b8ff" points="1039.54,-139.45 1049.18,-135.05 1038.9,-132.48 1039.54,-139.45"/>
</g>
<!-- Node21 -->
<g id="node21" class="node">
<title>Node21</title>
<g id="a_node21"><a xlink:href="class_urho3_d_1_1_list_view.html#afebca1ac4b38eaaa1d97bb3f64c2cddd" target="_top" xlink:title="Remove item at index. In hierarchy mode will also remove any children.">
<polygon fill="white" stroke="#666666" points="994,-80.5 842,-80.5 842,-61.5 994,-61.5 994,-80.5"/>
<text text-anchor="middle" x="918" y="-68.5" font-family="Roboto" font-size="10.00">Urho3D::ListView::RemoveItem</text>
</a>
</g>
</g>
<!-- Node20&#45;&gt;Node21 -->
<g id="edge28" class="edge">
<title>Node20&#45;&gt;Node21</title>
<path fill="none" stroke="#63b8ff" d="M1083.13,-114.78C1062.58,-108.56 1037.58,-101.18 1015,-95 997.27,-90.15 977.59,-85.16 960.69,-81"/>
<polygon fill="#63b8ff" stroke="#63b8ff" points="1082.01,-118.09 1092.6,-117.65 1084.05,-111.4 1082.01,-118.09"/>
</g>
</g>
</svg>
