<?xml version="1.0" encoding="UTF-8" standalone="no"?>
<!DOCTYPE svg PUBLIC "-//W3C//DTD SVG 1.1//EN"
 "http://www.w3.org/Graphics/SVG/1.1/DTD/svg11.dtd">
<!-- Generated by graphviz version 7.0.3 (0)
 -->
<!-- Title: Urho3D::Constraint2D::GetJointDef Pages: 1 -->
<svg width="599pt" height="1088pt"
 viewBox="0.00 0.00 599.00 1088.00" xmlns="http://www.w3.org/2000/svg" xmlns:xlink="http://www.w3.org/1999/xlink">
<g id="graph0" class="graph" transform="scale(1 1) rotate(0) translate(4 1084)">
<title>Urho3D::Constraint2D::GetJointDef</title>
<!-- Node1 -->
<g id="node1" class="node">
<title>Node1</title>
<g id="a_node1"><a xlink:title="Return joint def.">
<polygon fill="#999999" stroke="#666666" points="591,-570 479,-570 479,-540 591,-540 591,-570"/>
<text text-anchor="start" x="487" y="-558" font-family="Roboto" font-size="10.00">Urho3D::Constraint2D</text>
<text text-anchor="middle" x="535" y="-547" font-family="Roboto" font-size="10.00">::GetJointDef</text>
</a>
</g>
</g>
<!-- Node2 -->
<g id="node2" class="node">
<title>Node2</title>
<g id="a_node2"><a xlink:href="class_urho3_d_1_1_constraint2_d.html#a5bd16c56eb8593d219bb77c676c2d531" target="_top" xlink:title="Create joint.">
<polygon fill="white" stroke="#666666" points="443,-570 331,-570 331,-540 443,-540 443,-570"/>
<text text-anchor="start" x="339" y="-558" font-family="Roboto" font-size="10.00">Urho3D::Constraint2D</text>
<text text-anchor="middle" x="387" y="-547" font-family="Roboto" font-size="10.00">::CreateJoint</text>
</a>
</g>
</g>
<!-- Node1&#45;&gt;Node2 -->
<g id="edge1" class="edge">
<title>Node1&#45;&gt;Node2</title>
<path fill="none" stroke="#63b8ff" d="M467.47,-555C459.38,-555 451.18,-555 443.27,-555"/>
<polygon fill="#63b8ff" stroke="#63b8ff" points="467.29,-558.5 477.29,-555 467.29,-551.5 467.29,-558.5"/>
</g>
<!-- Node3 -->
<g id="node3" class="node">
<title>Node3</title>
<g id="a_node3"><a xlink:href="class_urho3_d_1_1_constraint2_d.html#a5cb2ae4ac7a701fe9f2167bec8756dad" target="_top" xlink:title="Handle enabled/disabled state change.">
<polygon fill="white" stroke="#666666" points="295,-594 183,-594 183,-564 295,-564 295,-594"/>
<text text-anchor="start" x="191" y="-582" font-family="Roboto" font-size="10.00">Urho3D::Constraint2D</text>
<text text-anchor="middle" x="239" y="-571" font-family="Roboto" font-size="10.00">::OnSetEnabled</text>
</a>
</g>
</g>
<!-- Node2&#45;&gt;Node3 -->
<g id="edge2" class="edge">
<title>Node2&#45;&gt;Node3</title>
<path fill="none" stroke="#63b8ff" d="M319.47,-565.94C311.38,-567.27 303.18,-568.61 295.27,-569.91"/>
<polygon fill="#63b8ff" stroke="#63b8ff" points="320.01,-569.39 329.31,-564.32 318.87,-562.49 320.01,-569.39"/>
</g>
<!-- Node4 -->
<g id="node4" class="node">
<title>Node4</title>
<g id="a_node4"><a xlink:href="class_urho3_d_1_1_constraint2_d.html#a6b020a0b52d60cf6f05f584f85801c58" target="_top" xlink:title="Recreate joint.">
<polygon fill="#fff0f0" stroke="red" points="295,-546 183,-546 183,-516 295,-516 295,-546"/>
<text text-anchor="start" x="191" y="-534" font-family="Roboto" font-size="10.00">Urho3D::Constraint2D</text>
<text text-anchor="middle" x="239" y="-523" font-family="Roboto" font-size="10.00">::RecreateJoint</text>
</a>
</g>
</g>
<!-- Node2&#45;&gt;Node4 -->
<g id="edge3" class="edge">
<title>Node2&#45;&gt;Node4</title>
<path fill="none" stroke="#63b8ff" d="M319.47,-544.06C311.38,-542.73 303.18,-541.39 295.27,-540.09"/>
<polygon fill="#63b8ff" stroke="#63b8ff" points="318.87,-547.51 329.31,-545.68 320.01,-540.61 318.87,-547.51"/>
</g>
<!-- Node5 -->
<g id="node5" class="node">
<title>Node5</title>
<g id="a_node5"><a xlink:href="class_urho3_d_1_1_constraint_friction2_d.html#acacbc0a4e303b2c48f96286420c7742b" target="_top" xlink:title=" ">
<polygon fill="#fff0f0" stroke="red" points="142.5,-1080 4.5,-1080 4.5,-1050 142.5,-1050 142.5,-1080"/>
<text text-anchor="start" x="12.5" y="-1068" font-family="Roboto" font-size="10.00">Urho3D::ConstraintFriction2</text>
<text text-anchor="middle" x="73.5" y="-1057" font-family="Roboto" font-size="10.00">D::SetAnchor</text>
</a>
</g>
</g>
<!-- Node4&#45;&gt;Node5 -->
<g id="edge4" class="edge">
<title>Node4&#45;&gt;Node5</title>
<path fill="none" stroke="#63b8ff" d="M183.69,-554.06C183.46,-554.37 183.23,-554.68 183,-555 120.37,-643.35 213.61,-955.62 147,-1041 144.39,-1044.35 141.3,-1047.23 137.89,-1049.71"/>
<polygon fill="#63b8ff" stroke="#63b8ff" points="185.98,-556.72 190.67,-547.22 181.08,-551.72 185.98,-556.72"/>
</g>
<!-- Node7 -->
<g id="node6" class="node">
<title>Node7</title>
<g id="a_node6"><a xlink:href="class_urho3_d_1_1_constraint_prismatic2_d.html#a020871aaa24e463ebc924bc14f68e3d4" target="_top" xlink:title=" ">
<polygon fill="#fff0f0" stroke="red" points="147,-1032 0,-1032 0,-1002 147,-1002 147,-1032"/>
<text text-anchor="start" x="8" y="-1020" font-family="Roboto" font-size="10.00">Urho3D::ConstraintPrismatic2</text>
<text text-anchor="middle" x="73.5" y="-1009" font-family="Roboto" font-size="10.00">D::SetAnchor</text>
</a>
</g>
</g>
<!-- Node4&#45;&gt;Node7 -->
<g id="edge5" class="edge">
<title>Node4&#45;&gt;Node7</title>
<path fill="none" stroke="#63b8ff" d="M183.7,-554.06C183.46,-554.37 183.23,-554.68 183,-555 126.2,-634.45 207.38,-916.24 147,-993 144.38,-996.33 141.28,-999.21 137.86,-1001.69"/>
<polygon fill="#63b8ff" stroke="#63b8ff" points="185.98,-556.72 190.7,-547.24 181.09,-551.71 185.98,-556.72"/>
</g>
<!-- Node9 -->
<g id="node7" class="node">
<title>Node9</title>
<g id="a_node7"><a xlink:href="class_urho3_d_1_1_constraint_revolute2_d.html#a73fdb79734e6e0b6939112ba7bca8e46" target="_top" xlink:title=" ">
<polygon fill="#fff0f0" stroke="red" points="145,-984 2,-984 2,-954 145,-954 145,-984"/>
<text text-anchor="start" x="10" y="-972" font-family="Roboto" font-size="10.00">Urho3D::ConstraintRevolute2</text>
<text text-anchor="middle" x="73.5" y="-961" font-family="Roboto" font-size="10.00">D::SetAnchor</text>
</a>
</g>
</g>
<!-- Node4&#45;&gt;Node9 -->
<g id="edge6" class="edge">
<title>Node4&#45;&gt;Node9</title>
<path fill="none" stroke="#63b8ff" d="M183.7,-554.06C183.46,-554.37 183.23,-554.68 183,-555 132.03,-625.55 201.16,-876.87 147,-945 144.36,-948.32 141.25,-951.19 137.82,-953.66"/>
<polygon fill="#63b8ff" stroke="#63b8ff" points="185.98,-556.73 190.73,-547.26 181.11,-551.7 185.98,-556.73"/>
</g>
<!-- Node11 -->
<g id="node8" class="node">
<title>Node11</title>
<g id="a_node8"><a xlink:href="class_urho3_d_1_1_constraint_weld2_d.html#ab5be05f7f8444122fa566485fd5f090f" target="_top" xlink:title=" ">
<polygon fill="#fff0f0" stroke="red" points="140.5,-936 6.5,-936 6.5,-906 140.5,-906 140.5,-936"/>
<text text-anchor="start" x="14.5" y="-924" font-family="Roboto" font-size="10.00">Urho3D::ConstraintWeld2D</text>
<text text-anchor="middle" x="73.5" y="-913" font-family="Roboto" font-size="10.00">::SetAnchor</text>
</a>
</g>
</g>
<!-- Node4&#45;&gt;Node11 -->
<g id="edge7" class="edge">
<title>Node4&#45;&gt;Node11</title>
<path fill="none" stroke="#63b8ff" d="M183.71,-554.07C183.47,-554.37 183.23,-554.68 183,-555 92.7,-678.31 242.87,-777.96 147,-897 144.34,-900.3 141.21,-903.16 137.77,-905.62"/>
<polygon fill="#63b8ff" stroke="#63b8ff" points="185.98,-556.74 190.77,-547.29 181.13,-551.69 185.98,-556.74"/>
</g>
<!-- Node13 -->
<g id="node9" class="node">
<title>Node13</title>
<g id="a_node9"><a xlink:href="class_urho3_d_1_1_constraint_wheel2_d.html#adfd08ba4c09a5813c0fc4bb82eed4afb" target="_top" xlink:title=" ">
<polygon fill="#fff0f0" stroke="red" points="139.5,-888 7.5,-888 7.5,-858 139.5,-858 139.5,-888"/>
<text text-anchor="start" x="15.5" y="-876" font-family="Roboto" font-size="10.00">Urho3D::ConstraintWheel2</text>
<text text-anchor="middle" x="73.5" y="-865" font-family="Roboto" font-size="10.00">D::SetAnchor</text>
</a>
</g>
</g>
<!-- Node4&#45;&gt;Node13 -->
<g id="edge8" class="edge">
<title>Node4&#45;&gt;Node13</title>
<path fill="none" stroke="#63b8ff" d="M183.72,-554.07C183.47,-554.38 183.23,-554.69 183,-555 104.32,-660.54 230.44,-747.18 147,-849 144.31,-852.28 141.16,-855.12 137.71,-857.57"/>
<polygon fill="#63b8ff" stroke="#63b8ff" points="185.98,-556.75 190.83,-547.33 181.16,-551.67 185.98,-556.75"/>
</g>
<!-- Node15 -->
<g id="node10" class="node">
<title>Node15</title>
<g id="a_node10"><a xlink:href="class_urho3_d_1_1_constraint_motor2_d.html#ad003e407c97e8715f5cfec7bd06113bc" target="_top" xlink:title=" ">
<polygon fill="#fff0f0" stroke="red" points="140,-822 7,-822 7,-792 140,-792 140,-822"/>
<text text-anchor="start" x="15" y="-810" font-family="Roboto" font-size="10.00">Urho3D::ConstraintMotor2</text>
<text text-anchor="middle" x="73.5" y="-799" font-family="Roboto" font-size="10.00">D::SetAngularOffset</text>
</a>
</g>
</g>
<!-- Node4&#45;&gt;Node15 -->
<g id="edge9" class="edge">
<title>Node4&#45;&gt;Node15</title>
<path fill="none" stroke="#63b8ff" d="M183.73,-554.08C183.48,-554.39 183.24,-554.69 183,-555 120.27,-636.17 213.39,-704.79 147,-783 144.17,-786.34 140.86,-789.21 137.25,-791.69"/>
<polygon fill="#63b8ff" stroke="#63b8ff" points="185.98,-556.77 190.94,-547.41 181.22,-551.64 185.98,-556.77"/>
</g>
<!-- Node17 -->
<g id="node11" class="node">
<title>Node17</title>
<g id="a_node11"><a xlink:href="class_urho3_d_1_1_constraint_prismatic2_d.html#a36ff5b84ba66381d84c92b49cec8861c" target="_top" xlink:title=" ">
<polygon fill="#fff0f0" stroke="red" points="147,-774 0,-774 0,-744 147,-744 147,-774"/>
<text text-anchor="start" x="8" y="-762" font-family="Roboto" font-size="10.00">Urho3D::ConstraintPrismatic2</text>
<text text-anchor="middle" x="73.5" y="-751" font-family="Roboto" font-size="10.00">D::SetAxis</text>
</a>
</g>
</g>
<!-- Node4&#45;&gt;Node17 -->
<g id="edge11" class="edge">
<title>Node4&#45;&gt;Node17</title>
<path fill="none" stroke="#63b8ff" d="M183.75,-554.1C183.49,-554.4 183.25,-554.7 183,-555 131.8,-618.52 201.06,-673.89 147,-735 144.1,-738.28 140.74,-741.11 137.1,-743.55"/>
<polygon fill="#63b8ff" stroke="#63b8ff" points="185.98,-556.8 191.07,-547.51 181.3,-551.6 185.98,-556.8"/>
</g>
<!-- Node18 -->
<g id="node12" class="node">
<title>Node18</title>
<g id="a_node12"><a xlink:href="class_urho3_d_1_1_constraint_wheel2_d.html#acc587910079e08051c807ff70baaca0e" target="_top" xlink:title=" ">
<polygon fill="#fff0f0" stroke="red" points="139.5,-726 7.5,-726 7.5,-696 139.5,-696 139.5,-726"/>
<text text-anchor="start" x="15.5" y="-714" font-family="Roboto" font-size="10.00">Urho3D::ConstraintWheel2</text>
<text text-anchor="middle" x="73.5" y="-703" font-family="Roboto" font-size="10.00">D::SetAxis</text>
</a>
</g>
</g>
<!-- Node4&#45;&gt;Node18 -->
<g id="edge12" class="edge">
<title>Node4&#45;&gt;Node18</title>
<path fill="none" stroke="#63b8ff" d="M184.38,-553.48C183.91,-553.98 183.45,-554.48 183,-555 143.23,-601 188.83,-642.87 147,-687 143.9,-690.27 140.34,-693.1 136.51,-695.54"/>
<polygon fill="#63b8ff" stroke="#63b8ff" points="186.35,-556.39 191.79,-547.3 181.87,-551.02 186.35,-556.39"/>
</g>
<!-- Node19 -->
<g id="node13" class="node">
<title>Node19</title>
<g id="a_node13"><a xlink:href="class_urho3_d_1_1_constraint2_d.html#a752cd142edd50376608fb588df23aed6" target="_top" xlink:title=" ">
<polygon fill="#fff0f0" stroke="red" points="130.5,-678 16.5,-678 16.5,-648 130.5,-648 130.5,-678"/>
<text text-anchor="start" x="24.5" y="-666" font-family="Roboto" font-size="10.00">Urho3D::Constraint2D</text>
<text text-anchor="middle" x="73.5" y="-655" font-family="Roboto" font-size="10.00">::SetCollideConnected</text>
</a>
</g>
</g>
<!-- Node4&#45;&gt;Node19 -->
<g id="edge13" class="edge">
<title>Node4&#45;&gt;Node19</title>
<path fill="none" stroke="#63b8ff" d="M184.87,-553.21C184.23,-553.79 183.61,-554.39 183,-555 154.37,-583.81 176.92,-611.53 147,-639 142.21,-643.39 136.61,-646.99 130.66,-649.92"/>
<polygon fill="#63b8ff" stroke="#63b8ff" points="186.83,-556.12 192.75,-547.33 182.64,-550.51 186.83,-556.12"/>
</g>
<!-- Node21 -->
<g id="node14" class="node">
<title>Node21</title>
<g id="a_node14"><a xlink:href="class_urho3_d_1_1_constraint_motor2_d.html#a84e171f908e2f793a028e96e42d53e2a" target="_top" xlink:title=" ">
<polygon fill="#fff0f0" stroke="red" points="140,-612 7,-612 7,-582 140,-582 140,-612"/>
<text text-anchor="start" x="15" y="-600" font-family="Roboto" font-size="10.00">Urho3D::ConstraintMotor2</text>
<text text-anchor="middle" x="73.5" y="-589" font-family="Roboto" font-size="10.00">D::SetCorrectionFactor</text>
</a>
</g>
</g>
<!-- Node4&#45;&gt;Node21 -->
<g id="edge14" class="edge">
<title>Node4&#45;&gt;Node21</title>
<path fill="none" stroke="#63b8ff" d="M191.41,-551.13C188.56,-552.42 185.74,-553.72 183,-555 166.8,-562.58 163.53,-566.17 147,-573 139.77,-575.99 132.02,-578.87 124.38,-581.54"/>
<polygon fill="#63b8ff" stroke="#63b8ff" points="192.71,-554.38 200.4,-547.1 189.85,-547.99 192.71,-554.38"/>
</g>
<!-- Node22 -->
<g id="node15" class="node">
<title>Node22</title>
<g id="a_node15"><a xlink:href="class_urho3_d_1_1_constraint_distance2_d.html#a55708fc08b059e5b1332742c6b566b32" target="_top" xlink:title=" ">
<polygon fill="#fff0f0" stroke="red" points="145,-546 2,-546 2,-516 145,-516 145,-546"/>
<text text-anchor="start" x="10" y="-534" font-family="Roboto" font-size="10.00">Urho3D::ConstraintDistance2</text>
<text text-anchor="middle" x="73.5" y="-523" font-family="Roboto" font-size="10.00">D::SetDampingRatio</text>
</a>
</g>
</g>
<!-- Node4&#45;&gt;Node22 -->
<g id="edge16" class="edge">
<title>Node4&#45;&gt;Node22</title>
<path fill="none" stroke="#63b8ff" d="M171.23,-531C162.73,-531 154.01,-531 145.45,-531"/>
<polygon fill="#63b8ff" stroke="#63b8ff" points="171.13,-534.5 181.13,-531 171.13,-527.5 171.13,-534.5"/>
</g>
<!-- Node24 -->
<g id="node16" class="node">
<title>Node24</title>
<g id="a_node16"><a xlink:href="class_urho3_d_1_1_constraint_mouse2_d.html#a9921e2675ff166d52e3c047f1d54b0a7" target="_top" xlink:title=" ">
<polygon fill="#fff0f0" stroke="red" points="141.5,-480 5.5,-480 5.5,-450 141.5,-450 141.5,-480"/>
<text text-anchor="start" x="13.5" y="-468" font-family="Roboto" font-size="10.00">Urho3D::ConstraintMouse2</text>
<text text-anchor="middle" x="73.5" y="-457" font-family="Roboto" font-size="10.00">D::SetDampingRatio</text>
</a>
</g>
</g>
<!-- Node4&#45;&gt;Node24 -->
<g id="edge18" class="edge">
<title>Node4&#45;&gt;Node24</title>
<path fill="none" stroke="#63b8ff" d="M189.18,-511.29C164.77,-501.44 135.66,-489.69 112.88,-480.49"/>
<polygon fill="#63b8ff" stroke="#63b8ff" points="187.68,-514.46 198.26,-514.96 190.3,-507.97 187.68,-514.46"/>
</g>
<!-- Node26 -->
<g id="node17" class="node">
<title>Node26</title>
<g id="a_node17"><a xlink:href="class_urho3_d_1_1_constraint_weld2_d.html#af0f578a6a092df3a16a7c073e3ad3c28" target="_top" xlink:title=" ">
<polygon fill="#fff0f0" stroke="red" points="140.5,-414 6.5,-414 6.5,-384 140.5,-384 140.5,-414"/>
<text text-anchor="start" x="14.5" y="-402" font-family="Roboto" font-size="10.00">Urho3D::ConstraintWeld2D</text>
<text text-anchor="middle" x="73.5" y="-391" font-family="Roboto" font-size="10.00">::SetDampingRatio</text>
</a>
</g>
</g>
<!-- Node4&#45;&gt;Node26 -->
<g id="edge20" class="edge">
<title>Node4&#45;&gt;Node26</title>
<path fill="none" stroke="#63b8ff" d="M217.2,-507.31C199.63,-488.1 173.22,-461.03 147,-441 133.94,-431.02 118.28,-421.67 104.87,-414.33"/>
<polygon fill="#63b8ff" stroke="#63b8ff" points="214.53,-509.58 223.83,-514.66 219.73,-504.89 214.53,-509.58"/>
</g>
<!-- Node27 -->
<g id="node18" class="node">
<title>Node27</title>
<g id="a_node18"><a xlink:href="class_urho3_d_1_1_constraint_wheel2_d.html#a02eee3b6c7f867ca24c12a6da9e0a66c" target="_top" xlink:title=" ">
<polygon fill="#fff0f0" stroke="red" points="139.5,-366 7.5,-366 7.5,-336 139.5,-336 139.5,-366"/>
<text text-anchor="start" x="15.5" y="-354" font-family="Roboto" font-size="10.00">Urho3D::ConstraintWheel2</text>
<text text-anchor="middle" x="73.5" y="-343" font-family="Roboto" font-size="10.00">D::SetDampingRatio</text>
</a>
</g>
</g>
<!-- Node4&#45;&gt;Node27 -->
<g id="edge22" class="edge">
<title>Node4&#45;&gt;Node27</title>
<path fill="none" stroke="#63b8ff" d="M229.47,-505.05C216.83,-470.52 189.89,-409.77 147,-375 142.98,-371.74 138.51,-368.92 133.81,-366.48"/>
<polygon fill="#63b8ff" stroke="#63b8ff" points="226.09,-505.99 232.71,-514.26 232.69,-503.66 226.09,-505.99"/>
</g>
<!-- Node28 -->
<g id="node19" class="node">
<title>Node28</title>
<g id="a_node19"><a xlink:href="class_urho3_d_1_1_constraint_prismatic2_d.html#a6fd1938284a817617a6ca5a4cc4c8ac4" target="_top" xlink:title=" ">
<polygon fill="#fff0f0" stroke="red" points="147,-318 0,-318 0,-288 147,-288 147,-318"/>
<text text-anchor="start" x="8" y="-306" font-family="Roboto" font-size="10.00">Urho3D::ConstraintPrismatic2</text>
<text text-anchor="middle" x="73.5" y="-295" font-family="Roboto" font-size="10.00">D::SetEnableLimit</text>
</a>
</g>
</g>
<!-- Node4&#45;&gt;Node28 -->
<g id="edge23" class="edge">
<title>Node4&#45;&gt;Node28</title>
<path fill="none" stroke="#63b8ff" d="M233.32,-504.49C224.31,-461.22 200.51,-375.41 147,-327 143.36,-323.71 139.26,-320.87 134.91,-318.41"/>
<polygon fill="#63b8ff" stroke="#63b8ff" points="229.87,-505.11 235.23,-514.25 236.74,-503.77 229.87,-505.11"/>
</g>
<!-- Node29 -->
<g id="node20" class="node">
<title>Node29</title>
<g id="a_node20"><a xlink:href="class_urho3_d_1_1_constraint_revolute2_d.html#aedba7ecc964731f4f6c12c9acdb43c68" target="_top" xlink:title=" ">
<polygon fill="#fff0f0" stroke="red" points="145,-270 2,-270 2,-240 145,-240 145,-270"/>
<text text-anchor="start" x="10" y="-258" font-family="Roboto" font-size="10.00">Urho3D::ConstraintRevolute2</text>
<text text-anchor="middle" x="73.5" y="-247" font-family="Roboto" font-size="10.00">D::SetEnableLimit</text>
</a>
</g>
</g>
<!-- Node4&#45;&gt;Node29 -->
<g id="edge24" class="edge">
<title>Node4&#45;&gt;Node29</title>
<path fill="none" stroke="#63b8ff" d="M235.91,-504.53C230.49,-453.68 211.51,-341.8 147,-279 143.58,-275.67 139.69,-272.8 135.52,-270.33"/>
<polygon fill="#63b8ff" stroke="#63b8ff" points="232.41,-504.68 236.85,-514.3 239.38,-504.01 232.41,-504.68"/>
</g>
<!-- Node30 -->
<g id="node21" class="node">
<title>Node30</title>
<g id="a_node21"><a xlink:href="class_urho3_d_1_1_constraint_prismatic2_d.html#a26c674b02c2214460f1c22c438dc5ab1" target="_top" xlink:title=" ">
<polygon fill="#fff0f0" stroke="red" points="147,-222 0,-222 0,-192 147,-192 147,-222"/>
<text text-anchor="start" x="8" y="-210" font-family="Roboto" font-size="10.00">Urho3D::ConstraintPrismatic2</text>
<text text-anchor="middle" x="73.5" y="-199" font-family="Roboto" font-size="10.00">D::SetEnableMotor</text>
</a>
</g>
</g>
<!-- Node4&#45;&gt;Node30 -->
<g id="edge25" class="edge">
<title>Node4&#45;&gt;Node30</title>
<path fill="none" stroke="#63b8ff" d="M237.72,-504.46C235.65,-446.68 222.58,-308.51 147,-231 143.76,-227.68 140.05,-224.82 136.06,-222.35"/>
<polygon fill="#63b8ff" stroke="#63b8ff" points="234.22,-504.4 237.98,-514.31 241.21,-504.22 234.22,-504.4"/>
</g>
<!-- Node31 -->
<g id="node22" class="node">
<title>Node31</title>
<g id="a_node22"><a xlink:href="class_urho3_d_1_1_constraint_revolute2_d.html#ac654ab9c68745713a7fae0f6be4b54ba" target="_top" xlink:title=" ">
<polygon fill="#fff0f0" stroke="red" points="145,-174 2,-174 2,-144 145,-144 145,-174"/>
<text text-anchor="start" x="10" y="-162" font-family="Roboto" font-size="10.00">Urho3D::ConstraintRevolute2</text>
<text text-anchor="middle" x="73.5" y="-151" font-family="Roboto" font-size="10.00">D::SetEnableMotor</text>
</a>
</g>
</g>
<!-- Node4&#45;&gt;Node31 -->
<g id="edge26" class="edge">
<title>Node4&#45;&gt;Node31</title>
<path fill="none" stroke="#63b8ff" d="M234.36,-504.35C223.87,-431.35 191.53,-230.47 147,-183 143.92,-179.71 140.37,-176.87 136.55,-174.43"/>
<polygon fill="#63b8ff" stroke="#63b8ff" points="230.88,-504.76 235.74,-514.18 237.81,-503.79 230.88,-504.76"/>
</g>
<!-- Node32 -->
<g id="node23" class="node">
<title>Node32</title>
<g id="a_node23"><a xlink:href="class_urho3_d_1_1_constraint_wheel2_d.html#a49bfe123bb70cc4b8356c40eff0134cc" target="_top" xlink:title=" ">
<polygon fill="#fff0f0" stroke="red" points="139.5,-126 7.5,-126 7.5,-96 139.5,-96 139.5,-126"/>
<text text-anchor="start" x="15.5" y="-114" font-family="Roboto" font-size="10.00">Urho3D::ConstraintWheel2</text>
<text text-anchor="middle" x="73.5" y="-103" font-family="Roboto" font-size="10.00">D::SetEnableMotor</text>
</a>
</g>
</g>
<!-- Node4&#45;&gt;Node32 -->
<g id="edge27" class="edge">
<title>Node4&#45;&gt;Node32</title>
<path fill="none" stroke="#63b8ff" d="M235.28,-504.46C226.62,-424.86 197.26,-190.21 147,-135 143.97,-131.67 140.46,-128.8 136.66,-126.32"/>
<polygon fill="#63b8ff" stroke="#63b8ff" points="231.79,-504.78 236.33,-514.35 238.76,-504.04 231.79,-504.78"/>
</g>
<!-- Node33 -->
<g id="node24" class="node">
<title>Node33</title>
<g id="a_node24"><a xlink:href="class_urho3_d_1_1_constraint_distance2_d.html#a1b2b60a6c0ec9cff35c5f06ba9e9879b" target="_top" xlink:title=" ">
<polygon fill="#fff0f0" stroke="red" points="145,-78 2,-78 2,-48 145,-48 145,-78"/>
<text text-anchor="start" x="10" y="-66" font-family="Roboto" font-size="10.00">Urho3D::ConstraintDistance2</text>
<text text-anchor="middle" x="73.5" y="-55" font-family="Roboto" font-size="10.00">D::SetFrequencyHz</text>
</a>
</g>
</g>
<!-- Node4&#45;&gt;Node33 -->
<g id="edge28" class="edge">
<title>Node4&#45;&gt;Node33</title>
<path fill="none" stroke="#63b8ff" d="M236.02,-504.7C229.05,-419.05 203.05,-150.06 147,-87 144.09,-83.73 140.73,-80.9 137.08,-78.46"/>
<polygon fill="#63b8ff" stroke="#63b8ff" points="232.51,-504.75 236.79,-514.45 239.49,-504.2 232.51,-504.75"/>
</g>
<!-- Node34 -->
<g id="node25" class="node">
<title>Node34</title>
<g id="a_node25"><a xlink:href="class_urho3_d_1_1_constraint_mouse2_d.html#ac0d92ff05266f59c0adef7bbcfdc1256" target="_top" xlink:title=" ">
<polygon fill="#fff0f0" stroke="red" points="141.5,-30 5.5,-30 5.5,0 141.5,0 141.5,-30"/>
<text text-anchor="start" x="13.5" y="-18" font-family="Roboto" font-size="10.00">Urho3D::ConstraintMouse2</text>
<text text-anchor="middle" x="73.5" y="-7" font-family="Roboto" font-size="10.00">D::SetFrequencyHz</text>
</a>
</g>
</g>
<!-- Node4&#45;&gt;Node34 -->
<g id="edge29" class="edge">
<title>Node4&#45;&gt;Node34</title>
<path fill="none" stroke="#63b8ff" d="M236.59,-504.6C231.16,-412.89 208.8,-109.89 147,-39 144.12,-35.7 140.79,-32.86 137.15,-30.4"/>
<polygon fill="#63b8ff" stroke="#63b8ff" points="233.08,-504.56 237.14,-514.35 240.07,-504.17 233.08,-504.56"/>
</g>
<!-- Node15&#45;&gt;Node15 -->
<g id="edge10" class="edge">
<title>Node15&#45;&gt;Node15</title>
<path fill="none" stroke="#63b8ff" d="M101.42,-833.61C96.95,-837.43 87.64,-840 73.5,-840 47.64,-840 37.94,-831.41 44.41,-822.28"/>
<polygon fill="#63b8ff" stroke="#63b8ff" points="104.89,-834.09 102.44,-823.78 97.93,-833.37 104.89,-834.09"/>
</g>
<!-- Node21&#45;&gt;Node21 -->
<g id="edge15" class="edge">
<title>Node21&#45;&gt;Node21</title>
<path fill="none" stroke="#63b8ff" d="M101.42,-623.61C96.95,-627.43 87.64,-630 73.5,-630 47.64,-630 37.94,-621.41 44.41,-612.28"/>
<polygon fill="#63b8ff" stroke="#63b8ff" points="104.89,-624.09 102.44,-613.78 97.93,-623.37 104.89,-624.09"/>
</g>
<!-- Node22&#45;&gt;Node22 -->
<g id="edge17" class="edge">
<title>Node22&#45;&gt;Node22</title>
<path fill="none" stroke="#63b8ff" d="M101.42,-557.61C96.95,-561.43 87.64,-564 73.5,-564 47.64,-564 37.94,-555.41 44.41,-546.28"/>
<polygon fill="#63b8ff" stroke="#63b8ff" points="104.89,-558.09 102.44,-547.78 97.93,-557.37 104.89,-558.09"/>
</g>
<!-- Node24&#45;&gt;Node24 -->
<g id="edge19" class="edge">
<title>Node24&#45;&gt;Node24</title>
<path fill="none" stroke="#63b8ff" d="M101.42,-491.61C96.95,-495.43 87.64,-498 73.5,-498 47.64,-498 37.94,-489.41 44.41,-480.28"/>
<polygon fill="#63b8ff" stroke="#63b8ff" points="104.89,-492.09 102.44,-481.78 97.93,-491.37 104.89,-492.09"/>
</g>
<!-- Node26&#45;&gt;Node26 -->
<g id="edge21" class="edge">
<title>Node26&#45;&gt;Node26</title>
<path fill="none" stroke="#63b8ff" d="M101.42,-425.61C96.95,-429.43 87.64,-432 73.5,-432 47.64,-432 37.94,-423.41 44.41,-414.28"/>
<polygon fill="#63b8ff" stroke="#63b8ff" points="104.89,-426.09 102.44,-415.78 97.93,-425.37 104.89,-426.09"/>
</g>
</g>
</svg>
