<?xml version="1.0" encoding="UTF-8" standalone="no"?>
<!DOCTYPE svg PUBLIC "-//W3C//DTD SVG 1.1//EN"
 "http://www.w3.org/Graphics/SVG/1.1/DTD/svg11.dtd">
<!-- Generated by graphviz version 7.0.3 (0)
 -->
<!-- Title: Urho3D::Component::SaveXML Pages: 1 -->
<svg width="280pt" height="51pt"
 viewBox="0.00 0.00 280.00 50.50" xmlns="http://www.w3.org/2000/svg" xmlns:xlink="http://www.w3.org/1999/xlink">
<g id="graph0" class="graph" transform="scale(1 1) rotate(0) translate(4 46.5)">
<title>Urho3D::Component::SaveXML</title>
<!-- Node1 -->
<g id="node1" class="node">
<title>Node1</title>
<g id="a_node1"><a xlink:title="Save as XML data. Return true if successful.">
<polygon fill="#999999" stroke="#666666" points="272,-30 161,-30 161,0 272,0 272,-30"/>
<text text-anchor="start" x="169" y="-18" font-family="Roboto" font-size="10.00">Urho3D::Component::</text>
<text text-anchor="middle" x="216.5" y="-7" font-family="Roboto" font-size="10.00">SaveXML</text>
</a>
</g>
</g>
<!-- Node2 -->
<g id="node2" class="node">
<title>Node2</title>
<g id="a_node2"><a xlink:href="class_urho3_d_1_1_node.html#aee9138da9786316c8355e6bcec11a8cf" target="_top" xlink:title="Save as XML data. Return true if successful.">
<polygon fill="white" stroke="#666666" points="125,-24.5 0,-24.5 0,-5.5 125,-5.5 125,-24.5"/>
<text text-anchor="middle" x="62.5" y="-12.5" font-family="Roboto" font-size="10.00">Urho3D::Node::SaveXML</text>
</a>
</g>
</g>
<!-- Node1&#45;&gt;Node2 -->
<g id="edge1" class="edge">
<title>Node1&#45;&gt;Node2</title>
<path fill="none" stroke="#63b8ff" d="M149.14,-15C141.2,-15 133.12,-15 125.26,-15"/>
<polygon fill="#63b8ff" stroke="#63b8ff" points="149.11,-18.5 159.11,-15 149.11,-11.5 149.11,-18.5"/>
</g>
<!-- Node2&#45;&gt;Node2 -->
<g id="edge2" class="edge">
<title>Node2&#45;&gt;Node2</title>
<path fill="none" stroke="#63b8ff" d="M90.11,-35.6C86.93,-39.63 77.73,-42.5 62.5,-42.5 35.43,-42.5 27.39,-33.44 38.39,-24.87"/>
<polygon fill="#63b8ff" stroke="#63b8ff" points="93.51,-34.73 87.08,-26.31 86.86,-36.9 93.51,-34.73"/>
</g>
</g>
</svg>
