<?xml version="1.0" encoding="UTF-8" standalone="no"?>
<!DOCTYPE svg PUBLIC "-//W3C//DTD SVG 1.1//EN"
 "http://www.w3.org/Graphics/SVG/1.1/DTD/svg11.dtd">
<!-- Generated by graphviz version 7.0.3 (0)
 -->
<!-- Title: Urho3D::ConstraintPrismatic2D Pages: 1 -->
<svg width="162pt" height="357pt"
 viewBox="0.00 0.00 162.00 357.00" xmlns="http://www.w3.org/2000/svg" xmlns:xlink="http://www.w3.org/1999/xlink">
<g id="graph0" class="graph" transform="scale(1 1) rotate(0) translate(4 353)">
<title>Urho3D::ConstraintPrismatic2D</title>
<!-- Node1 -->
<g id="node1" class="node">
<title>Node1</title>
<g id="a_node1"><a xlink:title="2D prismatic constraint component.">
<polygon fill="#999999" stroke="#666666" points="154,-19 0,-19 0,0 154,0 154,-19"/>
<text text-anchor="middle" x="77" y="-7" font-family="Roboto" font-size="10.00">Urho3D::ConstraintPrismatic2D</text>
</a>
</g>
</g>
<!-- Node2 -->
<g id="node2" class="node">
<title>Node2</title>
<g id="a_node2"><a xlink:href="class_urho3_d_1_1_constraint2_d.html" target="_top" xlink:title="2D physics constraint component.">
<polygon fill="white" stroke="#666666" points="133,-74 21,-74 21,-55 133,-55 133,-74"/>
<text text-anchor="middle" x="77" y="-62" font-family="Roboto" font-size="10.00">Urho3D::Constraint2D</text>
</a>
</g>
</g>
<!-- Node2&#45;&gt;Node1 -->
<g id="edge1" class="edge">
<title>Node2&#45;&gt;Node1</title>
<path fill="none" stroke="#63b8ff" d="M77,-43.35C77,-35.1 77,-25.97 77,-19.44"/>
<polygon fill="#63b8ff" stroke="#63b8ff" points="73.5,-43.23 77,-53.23 80.5,-43.23 73.5,-43.23"/>
</g>
<!-- Node3 -->
<g id="node3" class="node">
<title>Node3</title>
<g id="a_node3"><a xlink:href="class_urho3_d_1_1_component.html" target="_top" xlink:title=" ">
<polygon fill="white" stroke="#666666" points="130.5,-129 23.5,-129 23.5,-110 130.5,-110 130.5,-129"/>
<text text-anchor="middle" x="77" y="-117" font-family="Roboto" font-size="10.00">Urho3D::Component</text>
</a>
</g>
</g>
<!-- Node3&#45;&gt;Node2 -->
<g id="edge2" class="edge">
<title>Node3&#45;&gt;Node2</title>
<path fill="none" stroke="#63b8ff" d="M77,-98.35C77,-90.1 77,-80.97 77,-74.44"/>
<polygon fill="#63b8ff" stroke="#63b8ff" points="73.5,-98.23 77,-108.23 80.5,-98.23 73.5,-98.23"/>
</g>
<!-- Node4 -->
<g id="node4" class="node">
<title>Node4</title>
<g id="a_node4"><a xlink:href="class_urho3_d_1_1_animatable.html" target="_top" xlink:title="Base class for animatable object, an animatable object can be set animation on it&#39;s attributes,...">
<polygon fill="white" stroke="#666666" points="129,-184 25,-184 25,-165 129,-165 129,-184"/>
<text text-anchor="middle" x="77" y="-172" font-family="Roboto" font-size="10.00">Urho3D::Animatable</text>
</a>
</g>
</g>
<!-- Node4&#45;&gt;Node3 -->
<g id="edge3" class="edge">
<title>Node4&#45;&gt;Node3</title>
<path fill="none" stroke="#63b8ff" d="M77,-153.35C77,-145.1 77,-135.97 77,-129.44"/>
<polygon fill="#63b8ff" stroke="#63b8ff" points="73.5,-153.23 77,-163.23 80.5,-153.23 73.5,-153.23"/>
</g>
<!-- Node5 -->
<g id="node5" class="node">
<title>Node5</title>
<g id="a_node5"><a xlink:href="class_urho3_d_1_1_serializable.html" target="_top" xlink:title="Base class for objects with automatic serialization through attributes.">
<polygon fill="white" stroke="#666666" points="129.5,-239 24.5,-239 24.5,-220 129.5,-220 129.5,-239"/>
<text text-anchor="middle" x="77" y="-227" font-family="Roboto" font-size="10.00">Urho3D::Serializable</text>
</a>
</g>
</g>
<!-- Node5&#45;&gt;Node4 -->
<g id="edge4" class="edge">
<title>Node5&#45;&gt;Node4</title>
<path fill="none" stroke="#63b8ff" d="M77,-208.35C77,-200.1 77,-190.97 77,-184.44"/>
<polygon fill="#63b8ff" stroke="#63b8ff" points="73.5,-208.23 77,-218.23 80.5,-208.23 73.5,-208.23"/>
</g>
<!-- Node6 -->
<g id="node6" class="node">
<title>Node6</title>
<g id="a_node6"><a xlink:href="class_urho3_d_1_1_object.html" target="_top" xlink:title=" ">
<polygon fill="white" stroke="#666666" points="118.5,-294 35.5,-294 35.5,-275 118.5,-275 118.5,-294"/>
<text text-anchor="middle" x="77" y="-282" font-family="Roboto" font-size="10.00">Urho3D::Object</text>
</a>
</g>
</g>
<!-- Node6&#45;&gt;Node5 -->
<g id="edge5" class="edge">
<title>Node6&#45;&gt;Node5</title>
<path fill="none" stroke="#63b8ff" d="M77,-263.35C77,-255.1 77,-245.97 77,-239.44"/>
<polygon fill="#63b8ff" stroke="#63b8ff" points="73.5,-263.23 77,-273.23 80.5,-263.23 73.5,-263.23"/>
</g>
<!-- Node7 -->
<g id="node7" class="node">
<title>Node7</title>
<g id="a_node7"><a xlink:href="class_urho3_d_1_1_ref_counted.html" target="_top" xlink:title="Base class for intrusively reference&#45;counted objects. These are noncopyable and non&#45;assignable.">
<polygon fill="white" stroke="#666666" points="130.5,-349 23.5,-349 23.5,-330 130.5,-330 130.5,-349"/>
<text text-anchor="middle" x="77" y="-337" font-family="Roboto" font-size="10.00">Urho3D::RefCounted</text>
</a>
</g>
</g>
<!-- Node7&#45;&gt;Node6 -->
<g id="edge6" class="edge">
<title>Node7&#45;&gt;Node6</title>
<path fill="none" stroke="#63b8ff" d="M77,-318.35C77,-310.1 77,-300.97 77,-294.44"/>
<polygon fill="#63b8ff" stroke="#63b8ff" points="73.5,-318.23 77,-328.23 80.5,-318.23 73.5,-318.23"/>
</g>
</g>
</svg>
