<?xml version="1.0" encoding="UTF-8" standalone="no"?>
<!DOCTYPE svg PUBLIC "-//W3C//DTD SVG 1.1//EN"
 "http://www.w3.org/Graphics/SVG/1.1/DTD/svg11.dtd">
<!-- Generated by graphviz version 7.0.3 (0)
 -->
<!-- Title: Urho3D::ScriptFile::AddEventHandler Pages: 1 -->
<svg width="1294pt" height="554pt"
 viewBox="0.00 0.00 1294.00 553.50" xmlns="http://www.w3.org/2000/svg" xmlns:xlink="http://www.w3.org/1999/xlink">
<g id="graph0" class="graph" transform="scale(1 1) rotate(0) translate(4 549.5)">
<title>Urho3D::ScriptFile::AddEventHandler</title>
<!-- Node1 -->
<g id="node1" class="node">
<title>Node1</title>
<g id="a_node1"><a xlink:title="Add a scripted event handler.">
<polygon fill="#999999" stroke="#666666" points="98,-388 0,-388 0,-358 98,-358 98,-388"/>
<text text-anchor="start" x="8" y="-376" font-family="Roboto" font-size="10.00">Urho3D::ScriptFile</text>
<text text-anchor="middle" x="49" y="-365" font-family="Roboto" font-size="10.00">::AddEventHandler</text>
</a>
</g>
</g>
<!-- Node2 -->
<g id="node2" class="node">
<title>Node2</title>
<g id="a_node2"><a xlink:href="class_urho3_d_1_1_script_file.html#a17d98023315637bbbf83696e7617a02f" target="_top" xlink:title="Add an event handler and create the necessary proxy object.">
<polygon fill="white" stroke="#666666" points="265,-388 134,-388 134,-358 265,-358 265,-388"/>
<text text-anchor="start" x="142" y="-376" font-family="Roboto" font-size="10.00">Urho3D::ScriptFile</text>
<text text-anchor="middle" x="199.5" y="-365" font-family="Roboto" font-size="10.00">::AddEventHandlerInternal</text>
</a>
</g>
</g>
<!-- Node1&#45;&gt;Node2 -->
<g id="edge1" class="edge">
<title>Node1&#45;&gt;Node2</title>
<path fill="none" stroke="#63b8ff" d="M98.21,-373C105.87,-373 113.95,-373 122.06,-373"/>
<polygon fill="#63b8ff" stroke="#63b8ff" points="122,-376.5 132,-373 122,-369.5 122,-376.5"/>
</g>
<!-- Node3 -->
<g id="node3" class="node">
<title>Node3</title>
<g id="a_node3"><a xlink:href="class_urho3_d_1_1_script_file.html#a519de38b227a400380cd363b78083290" target="_top" xlink:title="Return a function by declaration. Will be stored to a search cache so that further searches should be...">
<polygon fill="white" stroke="#666666" points="766,-397 671,-397 671,-367 766,-367 766,-397"/>
<text text-anchor="start" x="679" y="-385" font-family="Roboto" font-size="10.00">Urho3D::ScriptFile</text>
<text text-anchor="middle" x="718.5" y="-374" font-family="Roboto" font-size="10.00">::GetFunction</text>
</a>
</g>
</g>
<!-- Node2&#45;&gt;Node3 -->
<g id="edge2" class="edge">
<title>Node2&#45;&gt;Node3</title>
<path fill="none" stroke="#63b8ff" d="M265.45,-374.13C367.09,-375.9 562.13,-379.3 659.39,-380.99"/>
<polygon fill="#63b8ff" stroke="#63b8ff" points="659.18,-384.49 669.24,-381.16 659.3,-377.49 659.18,-384.49"/>
</g>
<!-- Node11 -->
<g id="node8" class="node">
<title>Node11</title>
<g id="a_node8"><a xlink:href="class_urho3_d_1_1_script_file.html#a76c72a859d30266e96dc13697134eca3" target="_top" xlink:title="Return an object method by declaration.">
<polygon fill="white" stroke="#666666" points="766,-445 671,-445 671,-415 766,-415 766,-445"/>
<text text-anchor="start" x="679" y="-433" font-family="Roboto" font-size="10.00">Urho3D::ScriptFile</text>
<text text-anchor="middle" x="718.5" y="-422" font-family="Roboto" font-size="10.00">::GetMethod</text>
</a>
</g>
</g>
<!-- Node2&#45;&gt;Node11 -->
<g id="edge7" class="edge">
<title>Node2&#45;&gt;Node11</title>
<path fill="none" stroke="#63b8ff" d="M265.29,-383.9C277.15,-385.73 289.43,-387.51 301,-389 428.41,-405.4 578.5,-418.7 659.16,-425.36"/>
<polygon fill="#63b8ff" stroke="#63b8ff" points="658.79,-428.85 669.04,-426.18 659.36,-421.87 658.79,-428.85"/>
</g>
<!-- Node20 -->
<g id="node14" class="node">
<title>Node20</title>
<g id="a_node14"><a xlink:href="class_urho3_d_1_1_resource.html#aa6fcd2703fb5cb0e1cb6bb57b9590599" target="_top" xlink:title=" ">
<polygon fill="white" stroke="#666666" points="790,-325.5 647,-325.5 647,-306.5 790,-306.5 790,-325.5"/>
<text text-anchor="middle" x="718.5" y="-313.5" font-family="Roboto" font-size="10.00">Urho3D::Resource::GetName</text>
</a>
</g>
</g>
<!-- Node2&#45;&gt;Node20 -->
<g id="edge17" class="edge">
<title>Node2&#45;&gt;Node20</title>
<path fill="none" stroke="#63b8ff" d="M265.39,-368.69C346.47,-362.91 489.36,-351.45 611,-335 625.53,-333.03 641.11,-330.5 655.74,-327.93"/>
<polygon fill="#63b8ff" stroke="#63b8ff" points="656,-331.44 665.23,-326.23 654.77,-324.55 656,-331.44"/>
</g>
<!-- Node21 -->
<g id="node15" class="node">
<title>Node21</title>
<g id="a_node15"><a xlink:href="class_urho3_d_1_1_script_event_invoker.html#a94b58f81c5e94f53a23ff0b81db822aa" target="_top" xlink:title="Handle an event in script.">
<polygon fill="white" stroke="#666666" points="438,-191 301,-191 301,-161 438,-161 438,-191"/>
<text text-anchor="start" x="309" y="-179" font-family="Roboto" font-size="10.00">Urho3D::ScriptEventInvoker</text>
<text text-anchor="middle" x="369.5" y="-168" font-family="Roboto" font-size="10.00">::HandleScriptEvent</text>
</a>
</g>
</g>
<!-- Node2&#45;&gt;Node21 -->
<g id="edge18" class="edge">
<title>Node2&#45;&gt;Node21</title>
<path fill="none" stroke="#63b8ff" d="M213.68,-357.54C242.88,-323.3 313.17,-240.88 348.09,-199.93"/>
<polygon fill="#63b8ff" stroke="#63b8ff" points="350.57,-202.42 354.4,-192.54 345.24,-197.88 350.57,-202.42"/>
</g>
<!-- Node4 -->
<g id="node4" class="node">
<title>Node4</title>
<g id="a_node4"><a xlink:href="class_urho3_d_1_1_string.html#a3e075eaafa63ccbe5b6f28a2ad7a50ad" target="_top" xlink:title="Return the C string.">
<polygon fill="white" stroke="#666666" points="947,-396.5 830,-396.5 830,-377.5 947,-377.5 947,-396.5"/>
<text text-anchor="middle" x="888.5" y="-384.5" font-family="Roboto" font-size="10.00">Urho3D::String::CString</text>
</a>
</g>
</g>
<!-- Node3&#45;&gt;Node4 -->
<g id="edge3" class="edge">
<title>Node3&#45;&gt;Node4</title>
<path fill="none" stroke="#63b8ff" d="M766.3,-383.39C782.39,-383.87 800.76,-384.42 818.24,-384.94"/>
<polygon fill="#63b8ff" stroke="#63b8ff" points="817.96,-388.43 828.06,-385.23 818.17,-381.44 817.96,-388.43"/>
</g>
<!-- Node5 -->
<g id="node5" class="node">
<title>Node5</title>
<g id="a_node5"><a xlink:href="class_urho3_d_1_1_string.html#aa9fe9030164a42e2d73dd57f2db7c991" target="_top" xlink:title="Return index to the first occurrence of a string, or NPOS if not found.">
<polygon fill="white" stroke="#666666" points="940.5,-359.5 836.5,-359.5 836.5,-340.5 940.5,-340.5 940.5,-359.5"/>
<text text-anchor="middle" x="888.5" y="-347.5" font-family="Roboto" font-size="10.00">Urho3D::String::Find</text>
</a>
</g>
</g>
<!-- Node3&#45;&gt;Node5 -->
<g id="edge4" class="edge">
<title>Node3&#45;&gt;Node5</title>
<path fill="none" stroke="#63b8ff" d="M766.3,-373.09C784.48,-369.62 805.57,-365.61 825.02,-361.9"/>
<polygon fill="#63b8ff" stroke="#63b8ff" points="825.58,-365.36 834.75,-360.05 824.27,-358.48 825.58,-365.36"/>
</g>
<!-- Node6 -->
<g id="node6" class="node">
<title>Node6</title>
<g id="a_node6"><a xlink:href="class_urho3_d_1_1_string.html#ad100f77dbca5f666613aa300447092a0" target="_top" xlink:title="Return string with whitespace trimmed from the beginning and the end.">
<polygon fill="white" stroke="#666666" points="951,-433.5 826,-433.5 826,-414.5 951,-414.5 951,-433.5"/>
<text text-anchor="middle" x="888.5" y="-421.5" font-family="Roboto" font-size="10.00">Urho3D::String::Trimmed</text>
</a>
</g>
</g>
<!-- Node3&#45;&gt;Node6 -->
<g id="edge5" class="edge">
<title>Node3&#45;&gt;Node6</title>
<path fill="none" stroke="#63b8ff" d="M766.3,-393.7C788.14,-399.16 814.19,-405.67 836.53,-411.26"/>
<polygon fill="#63b8ff" stroke="#63b8ff" points="835.48,-414.6 846.03,-413.63 837.18,-407.81 835.48,-414.6"/>
</g>
<!-- Node7 -->
<g id="node7" class="node">
<title>Node7</title>
<g id="a_node7"><a xlink:href="class_urho3_d_1_1_string.html#a812ed0a9a7397006169814ac64295b78" target="_top" xlink:title="Return a substring from position to end.">
<polygon fill="#fff0f0" stroke="red" points="1123,-433.5 997,-433.5 997,-414.5 1123,-414.5 1123,-433.5"/>
<text text-anchor="middle" x="1060" y="-421.5" font-family="Roboto" font-size="10.00">Urho3D::String::Substring</text>
</a>
</g>
</g>
<!-- Node6&#45;&gt;Node7 -->
<g id="edge6" class="edge">
<title>Node6&#45;&gt;Node7</title>
<path fill="none" stroke="#63b8ff" d="M951.17,-424C962.25,-424 973.89,-424 985.27,-424"/>
<polygon fill="#63b8ff" stroke="#63b8ff" points="985.01,-427.5 995.01,-424 985.01,-420.5 985.01,-427.5"/>
</g>
<!-- Node11&#45;&gt;Node4 -->
<g id="edge8" class="edge">
<title>Node11&#45;&gt;Node4</title>
<path fill="none" stroke="#63b8ff" d="M766.3,-418.02C788.47,-412.35 814.99,-405.56 837.55,-399.78"/>
<polygon fill="#63b8ff" stroke="#63b8ff" points="838.32,-403.2 847.14,-397.33 836.59,-396.42 838.32,-403.2"/>
</g>
<!-- Node11&#45;&gt;Node5 -->
<g id="edge11" class="edge">
<title>Node11&#45;&gt;Node5</title>
<path fill="none" stroke="#63b8ff" d="M766.44,-417.5C774.61,-414.36 782.79,-410.56 790,-406 809.4,-393.74 806.43,-380.98 826,-369 828.77,-367.3 831.7,-365.75 834.73,-364.32"/>
<polygon fill="#63b8ff" stroke="#63b8ff" points="835.96,-367.6 843.86,-360.54 833.28,-361.14 835.96,-367.6"/>
</g>
<!-- Node11&#45;&gt;Node6 -->
<g id="edge16" class="edge">
<title>Node11&#45;&gt;Node6</title>
<path fill="none" stroke="#63b8ff" d="M766.3,-428.33C781.21,-427.8 798.08,-427.19 814.39,-426.61"/>
<polygon fill="#63b8ff" stroke="#63b8ff" points="814.18,-430.12 824.05,-426.27 813.93,-423.13 814.18,-430.12"/>
</g>
<!-- Node12 -->
<g id="node9" class="node">
<title>Node12</title>
<g id="a_node9"><a xlink:href="class_urho3_d_1_1_hash_map.html#a47eb201d8441d4e4be8626e615cb562d" target="_top" xlink:title="Return iterator to the end.">
<polygon fill="white" stroke="#666666" points="1119.5,-471.5 1000.5,-471.5 1000.5,-452.5 1119.5,-452.5 1119.5,-471.5"/>
<text text-anchor="middle" x="1060" y="-459.5" font-family="Roboto" font-size="10.00">Urho3D::HashMap::End</text>
</a>
</g>
</g>
<!-- Node11&#45;&gt;Node12 -->
<g id="edge9" class="edge">
<title>Node11&#45;&gt;Node12</title>
<path fill="none" stroke="#63b8ff" d="M766.38,-436.13C784.93,-438.45 806.45,-441.01 826,-443 880.53,-448.55 942.37,-453.53 988.64,-457"/>
<polygon fill="#63b8ff" stroke="#63b8ff" points="988.31,-460.49 998.54,-457.74 988.83,-453.5 988.31,-460.49"/>
</g>
<!-- Node14 -->
<g id="node11" class="node">
<title>Node14</title>
<g id="a_node11"><a xlink:href="class_urho3_d_1_1_hash_map.html#a9dc4e5c0ad1feb3eec2d2f1f1714698d" target="_top" xlink:title="Return iterator to the pair with key, or end iterator if not found.">
<polygon fill="white" stroke="#666666" points="949,-509.5 828,-509.5 828,-490.5 949,-490.5 949,-509.5"/>
<text text-anchor="middle" x="888.5" y="-497.5" font-family="Roboto" font-size="10.00">Urho3D::HashMap::Find</text>
</a>
</g>
</g>
<!-- Node11&#45;&gt;Node14 -->
<g id="edge12" class="edge">
<title>Node11&#45;&gt;Node14</title>
<path fill="none" stroke="#63b8ff" d="M754.38,-445.44C775.11,-454.52 801.97,-466.12 826,-476 834.03,-479.3 842.7,-482.75 850.92,-485.97"/>
<polygon fill="#63b8ff" stroke="#63b8ff" points="849.38,-489.13 859.97,-489.5 851.92,-482.61 849.38,-489.13"/>
</g>
<!-- Node13 -->
<g id="node10" class="node">
<title>Node13</title>
<g id="a_node10"><a xlink:href="class_urho3_d_1_1_hash_map.html#ac7ee3646e27a2a7710ab5786cb0b7c73" target="_top" xlink:title="Return the tail node.">
<polygon fill="white" stroke="#666666" points="1286,-471.5 1169,-471.5 1169,-452.5 1286,-452.5 1286,-471.5"/>
<text text-anchor="middle" x="1227.5" y="-459.5" font-family="Roboto" font-size="10.00">Urho3D::HashMap::Tail</text>
</a>
</g>
</g>
<!-- Node12&#45;&gt;Node13 -->
<g id="edge10" class="edge">
<title>Node12&#45;&gt;Node13</title>
<path fill="none" stroke="#63b8ff" d="M1119.82,-462C1131.98,-462 1144.9,-462 1157.39,-462"/>
<polygon fill="#63b8ff" stroke="#63b8ff" points="1157.2,-465.5 1167.2,-462 1157.2,-458.5 1157.2,-465.5"/>
</g>
<!-- Node14&#45;&gt;Node12 -->
<g id="edge13" class="edge">
<title>Node14&#45;&gt;Node12</title>
<path fill="none" stroke="#63b8ff" d="M934.03,-490.02C955.26,-485.26 980.87,-479.51 1003.37,-474.47"/>
<polygon fill="#63b8ff" stroke="#63b8ff" points="1004,-477.92 1012.99,-472.31 1002.47,-471.09 1004,-477.92"/>
</g>
<!-- Node15 -->
<g id="node12" class="node">
<title>Node15</title>
<g id="a_node12"><a xlink:href="class_urho3_d_1_1_hash_map.html#a85f871cbe77f2d780e1a169f19936ad8" target="_top" xlink:title="Find a node from the buckets. Do not call if the buckets have not been allocated.">
<polygon fill="#fff0f0" stroke="red" points="1133,-508.5 987,-508.5 987,-489.5 1133,-489.5 1133,-508.5"/>
<text text-anchor="middle" x="1060" y="-496.5" font-family="Roboto" font-size="10.00">Urho3D::HashMap::FindNode</text>
</a>
</g>
</g>
<!-- Node14&#45;&gt;Node15 -->
<g id="edge14" class="edge">
<title>Node14&#45;&gt;Node15</title>
<path fill="none" stroke="#63b8ff" d="M949.26,-499.65C957.68,-499.6 966.45,-499.55 975.22,-499.49"/>
<polygon fill="#63b8ff" stroke="#63b8ff" points="975.21,-502.99 985.19,-499.44 975.17,-495.99 975.21,-502.99"/>
</g>
<!-- Node18 -->
<g id="node13" class="node">
<title>Node18</title>
<g id="a_node13"><a xlink:href="class_urho3_d_1_1_hash_map.html#a6baa78766271c323b914fd2e6ca70c66" target="_top" xlink:title="Compute a hash based on the key and the bucket size.">
<polygon fill="#fff0f0" stroke="red" points="1122.5,-545.5 997.5,-545.5 997.5,-526.5 1122.5,-526.5 1122.5,-545.5"/>
<text text-anchor="middle" x="1060" y="-533.5" font-family="Roboto" font-size="10.00">Urho3D::HashMap::Hash</text>
</a>
</g>
</g>
<!-- Node14&#45;&gt;Node18 -->
<g id="edge15" class="edge">
<title>Node14&#45;&gt;Node18</title>
<path fill="none" stroke="#63b8ff" d="M936.27,-509.93C956.28,-514.18 979.87,-519.19 1000.98,-523.68"/>
<polygon fill="#63b8ff" stroke="#63b8ff" points="1000.1,-527.07 1010.61,-525.72 1001.56,-520.22 1000.1,-527.07"/>
</g>
<!-- Node22 -->
<g id="node16" class="node">
<title>Node22</title>
<g id="a_node16"><a xlink:href="class_urho3_d_1_1_script_file.html#a2f79f30668794f1e04c2f5a1bb9e4896" target="_top" xlink:title="Clean up an event invoker object when its associated script object no longer exists.">
<polygon fill="white" stroke="#666666" points="599,-126 486,-126 486,-96 599,-96 599,-126"/>
<text text-anchor="start" x="494" y="-114" font-family="Roboto" font-size="10.00">Urho3D::ScriptFile</text>
<text text-anchor="middle" x="542.5" y="-103" font-family="Roboto" font-size="10.00">::CleanupEventInvoker</text>
</a>
</g>
</g>
<!-- Node21&#45;&gt;Node22 -->
<g id="edge19" class="edge">
<title>Node21&#45;&gt;Node22</title>
<path fill="none" stroke="#63b8ff" d="M409.77,-160.67C429.09,-153.17 452.74,-144.04 474,-136 478.93,-134.14 484.06,-132.21 489.2,-130.29"/>
<polygon fill="#63b8ff" stroke="#63b8ff" points="490.13,-133.68 498.28,-126.91 487.69,-127.12 490.13,-133.68"/>
</g>
<!-- Node23 -->
<g id="node17" class="node">
<title>Node23</title>
<g id="a_node17"><a xlink:href="class_urho3_d_1_1_script_file.html#af534ee5786894b6b8bedc2c93a9f3818" target="_top" xlink:title="Query for a function by declaration and execute if found.">
<polygon fill="white" stroke="#666666" points="590,-308 495,-308 495,-278 590,-278 590,-308"/>
<text text-anchor="start" x="503" y="-296" font-family="Roboto" font-size="10.00">Urho3D::ScriptFile</text>
<text text-anchor="middle" x="542.5" y="-285" font-family="Roboto" font-size="10.00">::Execute</text>
</a>
</g>
</g>
<!-- Node21&#45;&gt;Node23 -->
<g id="edge20" class="edge">
<title>Node21&#45;&gt;Node23</title>
<path fill="none" stroke="#63b8ff" d="M383.8,-191.2C402.24,-211.45 437.46,-247.26 474,-269 477.31,-270.97 480.8,-272.81 484.39,-274.53"/>
<polygon fill="#63b8ff" stroke="#63b8ff" points="482.71,-277.62 493.28,-278.44 485.53,-271.21 482.71,-277.62"/>
</g>
<!-- Node24 -->
<g id="node18" class="node">
<title>Node24</title>
<g id="a_node18"><a xlink:href="class_urho3_d_1_1_object.html#a94327944766d5984af37cf128bd870ca" target="_top" xlink:title="Return active event handler. Null outside event handling.">
<polygon fill="white" stroke="#666666" points="605,-30 480,-30 480,0 605,0 605,-30"/>
<text text-anchor="start" x="488" y="-18" font-family="Roboto" font-size="10.00">Urho3D::Object::GetEvent</text>
<text text-anchor="middle" x="542.5" y="-7" font-family="Roboto" font-size="10.00">Handler</text>
</a>
</g>
</g>
<!-- Node21&#45;&gt;Node24 -->
<g id="edge24" class="edge">
<title>Node21&#45;&gt;Node24</title>
<path fill="none" stroke="#63b8ff" d="M378.25,-160.5C393.07,-132.36 428.09,-72.67 474,-39 475.52,-37.89 477.09,-36.82 478.71,-35.8"/>
<polygon fill="#63b8ff" stroke="#63b8ff" points="479.99,-39.09 487.05,-31.19 476.61,-32.97 479.99,-39.09"/>
</g>
<!-- Node26 -->
<g id="node20" class="node">
<title>Node26</title>
<g id="a_node20"><a xlink:href="class_urho3_d_1_1_event_handler.html#a123d775998ca76a3e683498a65d153f1" target="_top" xlink:title="Return userdata.">
<polygon fill="white" stroke="#666666" points="599,-78 486,-78 486,-48 599,-48 599,-78"/>
<text text-anchor="start" x="494" y="-66" font-family="Roboto" font-size="10.00">Urho3D::EventHandler</text>
<text text-anchor="middle" x="542.5" y="-55" font-family="Roboto" font-size="10.00">::GetUserData</text>
</a>
</g>
</g>
<!-- Node21&#45;&gt;Node26 -->
<g id="edge26" class="edge">
<title>Node21&#45;&gt;Node26</title>
<path fill="none" stroke="#63b8ff" d="M384.58,-160.83C403.34,-141.38 438.34,-107.7 474,-87 476.31,-85.66 478.72,-84.37 481.18,-83.14"/>
<polygon fill="#63b8ff" stroke="#63b8ff" points="482.51,-86.38 490.15,-79.03 479.6,-80.01 482.51,-86.38"/>
</g>
<!-- Node27 -->
<g id="node21" class="node">
<title>Node27</title>
<g id="a_node21"><a xlink:href="class_urho3_d_1_1_script_file.html#a4e023cf21c2701f9e88b4a628da5be0a" target="_top" xlink:title="Return whether script compiled successfully.">
<polygon fill="white" stroke="#666666" points="590,-260 495,-260 495,-230 590,-230 590,-260"/>
<text text-anchor="start" x="503" y="-248" font-family="Roboto" font-size="10.00">Urho3D::ScriptFile</text>
<text text-anchor="middle" x="542.5" y="-237" font-family="Roboto" font-size="10.00">::IsCompiled</text>
</a>
</g>
</g>
<!-- Node21&#45;&gt;Node27 -->
<g id="edge27" class="edge">
<title>Node21&#45;&gt;Node27</title>
<path fill="none" stroke="#63b8ff" d="M404.28,-191.39C424.39,-200.37 450.49,-211.72 474,-221 477.87,-222.53 481.89,-224.07 485.94,-225.59"/>
<polygon fill="#63b8ff" stroke="#63b8ff" points="484.67,-228.85 495.26,-229.03 487.09,-222.28 484.67,-228.85"/>
</g>
<!-- Node28 -->
<g id="node22" class="node">
<title>Node28</title>
<g id="a_node22"><a xlink:href="class_urho3_d_1_1_script_event_invoker.html#a5673528d6144650d931ef3e504e3c5b2" target="_top" xlink:title="Returns whether the ScriptObject is still alive. Will return true if there is no reference and object...">
<polygon fill="white" stroke="#666666" points="611,-212 474,-212 474,-182 611,-182 611,-212"/>
<text text-anchor="start" x="482" y="-200" font-family="Roboto" font-size="10.00">Urho3D::ScriptEventInvoker</text>
<text text-anchor="middle" x="542.5" y="-189" font-family="Roboto" font-size="10.00">::IsObjectAlive</text>
</a>
</g>
</g>
<!-- Node21&#45;&gt;Node28 -->
<g id="edge28" class="edge">
<title>Node21&#45;&gt;Node28</title>
<path fill="none" stroke="#63b8ff" d="M438.08,-184.3C446.02,-185.27 454.16,-186.27 462.23,-187.27"/>
<polygon fill="#63b8ff" stroke="#63b8ff" points="461.71,-190.73 472.06,-188.47 462.57,-183.78 461.71,-190.73"/>
</g>
<!-- Node29 -->
<g id="node23" class="node">
<title>Node29</title>
<g id="a_node23"><a xlink:href="class_urho3_d_1_1_vector.html#a083b39861b996df82f811a9a4ebff109" target="_top" xlink:title="Add an element at the end.">
<polygon fill="white" stroke="#666666" points="597.5,-163.5 487.5,-163.5 487.5,-144.5 597.5,-144.5 597.5,-163.5"/>
<text text-anchor="middle" x="542.5" y="-151.5" font-family="Roboto" font-size="10.00">Urho3D::Vector::Push</text>
</a>
</g>
</g>
<!-- Node21&#45;&gt;Node29 -->
<g id="edge29" class="edge">
<title>Node21&#45;&gt;Node29</title>
<path fill="none" stroke="#63b8ff" d="M438.08,-167.31C450.52,-165.7 463.49,-164.04 475.86,-162.44"/>
<polygon fill="#63b8ff" stroke="#63b8ff" points="476.06,-165.95 485.53,-161.2 475.17,-159.01 476.06,-165.95"/>
</g>
<!-- Node23&#45;&gt;Node3 -->
<g id="edge22" class="edge">
<title>Node23&#45;&gt;Node3</title>
<path fill="none" stroke="#63b8ff" d="M573.41,-308.3C602.17,-323.01 645.83,-345.34 677.55,-361.57"/>
<polygon fill="#63b8ff" stroke="#63b8ff" points="675.55,-364.48 686.05,-365.91 678.74,-358.24 675.55,-364.48"/>
</g>
<!-- Node23&#45;&gt;Node20 -->
<g id="edge23" class="edge">
<title>Node23&#45;&gt;Node20</title>
<path fill="none" stroke="#63b8ff" d="M590.13,-299.16C604.06,-301.01 619.77,-303.08 635.27,-305.13"/>
<polygon fill="#63b8ff" stroke="#63b8ff" points="634.63,-308.58 645,-306.42 635.54,-301.64 634.63,-308.58"/>
</g>
<!-- Node23&#45;&gt;Node23 -->
<g id="edge21" class="edge">
<title>Node23&#45;&gt;Node23</title>
<path fill="none" stroke="#63b8ff" d="M512.09,-308.28C505.33,-317.41 515.47,-326 542.5,-326 557.28,-326 567.01,-323.43 571.69,-319.61"/>
<polygon fill="#63b8ff" stroke="#63b8ff" points="575.16,-320.1 572.75,-309.78 568.2,-319.35 575.16,-320.1"/>
</g>
<!-- Node25 -->
<g id="node19" class="node">
<title>Node25</title>
<g id="a_node19"><a xlink:href="class_urho3_d_1_1_context.html#ab453809b2c77fe1c412137525a1f6b0b" target="_top" xlink:title="Return active event handler. Set by Object. Null outside event handling.">
<polygon fill="white" stroke="#666666" points="784.5,-30 652.5,-30 652.5,0 784.5,0 784.5,-30"/>
<text text-anchor="start" x="660.5" y="-18" font-family="Roboto" font-size="10.00">Urho3D::Context::GetEvent</text>
<text text-anchor="middle" x="718.5" y="-7" font-family="Roboto" font-size="10.00">Handler</text>
</a>
</g>
</g>
<!-- Node24&#45;&gt;Node25 -->
<g id="edge25" class="edge">
<title>Node24&#45;&gt;Node25</title>
<path fill="none" stroke="#63b8ff" d="M605.34,-15C616.81,-15 628.92,-15 640.78,-15"/>
<polygon fill="#63b8ff" stroke="#63b8ff" points="640.52,-18.5 650.52,-15 640.52,-11.5 640.52,-18.5"/>
</g>
<!-- Node30 -->
<g id="node24" class="node">
<title>Node30</title>
<g id="a_node24"><a xlink:href="class_urho3_d_1_1_vector.html#a2966c346317753692342733ce84a6829" target="_top" xlink:title="Return last element.">
<polygon fill="#fff0f0" stroke="red" points="773.5,-141.5 663.5,-141.5 663.5,-122.5 773.5,-122.5 773.5,-141.5"/>
<text text-anchor="middle" x="718.5" y="-129.5" font-family="Roboto" font-size="10.00">Urho3D::Vector::Back</text>
</a>
</g>
</g>
<!-- Node29&#45;&gt;Node30 -->
<g id="edge30" class="edge">
<title>Node29&#45;&gt;Node30</title>
<path fill="none" stroke="#63b8ff" d="M597.6,-147.16C614.79,-144.99 633.98,-142.56 651.88,-140.3"/>
<polygon fill="#63b8ff" stroke="#63b8ff" points="652.15,-143.79 661.63,-139.06 651.27,-136.85 652.15,-143.79"/>
</g>
<!-- Node32 -->
<g id="node25" class="node">
<title>Node32</title>
<g id="a_node25"><a xlink:href="class_urho3_d_1_1_vector.html#a17e4a13942a9512bc0eceb3e46d950dd" target="_top" xlink:title="Insert elements into the vector using copy or move constructor.">
<polygon fill="#fff0f0" stroke="red" points="782,-190 655,-190 655,-160 782,-160 782,-190"/>
<text text-anchor="start" x="663" y="-178" font-family="Roboto" font-size="10.00">Urho3D::Vector::DoInsert</text>
<text text-anchor="middle" x="718.5" y="-167" font-family="Roboto" font-size="10.00">Elements</text>
</a>
</g>
</g>
<!-- Node29&#45;&gt;Node32 -->
<g id="edge31" class="edge">
<title>Node29&#45;&gt;Node32</title>
<path fill="none" stroke="#63b8ff" d="M597.6,-160.53C612.13,-162.28 628.1,-164.21 643.51,-166.07"/>
<polygon fill="#63b8ff" stroke="#63b8ff" points="642.75,-169.5 653.1,-167.23 643.59,-162.55 642.75,-169.5"/>
</g>
</g>
</svg>
