<?xml version="1.0" encoding="UTF-8" standalone="no"?>
<!DOCTYPE svg PUBLIC "-//W3C//DTD SVG 1.1//EN"
 "http://www.w3.org/Graphics/SVG/1.1/DTD/svg11.dtd">
<!-- Generated by graphviz version 7.0.3 (0)
 -->
<!-- Title: Urho3D::IKSolver Pages: 1 -->
<svg width="1428pt" height="795pt"
 viewBox="0.00 0.00 1428.00 794.80" xmlns="http://www.w3.org/2000/svg" xmlns:xlink="http://www.w3.org/1999/xlink">
<g id="graph0" class="graph" transform="scale(1 1) rotate(0) translate(4 790.8)">
<title>Urho3D::IKSolver</title>
<!-- Node1 -->
<g id="node1" class="node">
<title>Node1</title>
<g id="a_node1"><a xlink:title="Marks the root or &quot;beginning&quot; of an IK chain or multiple IK chains. The solving algorithm can be set ...">
<polygon fill="#999999" stroke="#666666" points="1420,-727 1328,-727 1328,-708 1420,-708 1420,-727"/>
<text text-anchor="middle" x="1374" y="-715" font-family="Roboto" font-size="10.00">Urho3D::IKSolver</text>
</a>
</g>
</g>
<!-- Node2 -->
<g id="node2" class="node">
<title>Node2</title>
<g id="a_node2"><a xlink:href="class_urho3_d_1_1_component.html" target="_top" xlink:title=" ">
<polygon fill="white" stroke="#666666" points="1291,-291 1184,-291 1184,-272 1291,-272 1291,-291"/>
<text text-anchor="middle" x="1237.5" y="-279" font-family="Roboto" font-size="10.00">Urho3D::Component</text>
</a>
</g>
</g>
<!-- Node2&#45;&gt;Node1 -->
<g id="edge1" class="edge">
<title>Node2&#45;&gt;Node1</title>
<path fill="none" stroke="#63b8ff" d="M1288.82,-298.19C1289.58,-298.92 1290.31,-299.7 1291,-300.5 1346.35,-365.05 1368.51,-651.42 1372.37,-707.83"/>
<polygon fill="#63b8ff" stroke="#63b8ff" points="1291,-295.44 1280.87,-292.36 1286.86,-301.09 1291,-295.44"/>
</g>
<!-- Node3 -->
<g id="node3" class="node">
<title>Node3</title>
<g id="a_node3"><a xlink:href="class_urho3_d_1_1_animatable.html" target="_top" xlink:title="Base class for animatable object, an animatable object can be set animation on it&#39;s attributes,...">
<polygon fill="white" stroke="#666666" points="754,-159 650,-159 650,-140 754,-140 754,-159"/>
<text text-anchor="middle" x="702" y="-147" font-family="Roboto" font-size="10.00">Urho3D::Animatable</text>
</a>
</g>
</g>
<!-- Node3&#45;&gt;Node2 -->
<g id="edge2" class="edge">
<title>Node3&#45;&gt;Node2</title>
<path fill="none" stroke="#63b8ff" d="M765.61,-146.27C858.37,-144.13 1035.38,-150.36 1166,-217.5 1192.46,-231.1 1216.57,-257.22 1228.55,-271.52"/>
<polygon fill="#63b8ff" stroke="#63b8ff" points="765.6,-142.77 755.7,-146.55 765.79,-149.77 765.6,-142.77"/>
</g>
<!-- Node42 -->
<g id="node13" class="node">
<title>Node42</title>
<g id="a_node13"><a xlink:href="class_urho3_d_1_1_node.html" target="_top" xlink:title="Scene node that may contain components and child nodes.">
<polygon fill="white" stroke="#666666" points="1023,-340 943,-340 943,-321 1023,-321 1023,-340"/>
<text text-anchor="middle" x="983" y="-328" font-family="Roboto" font-size="10.00">Urho3D::Node</text>
</a>
</g>
</g>
<!-- Node3&#45;&gt;Node42 -->
<g id="edge14" class="edge">
<title>Node3&#45;&gt;Node42</title>
<path fill="none" stroke="#63b8ff" d="M765.39,-159.63C822.27,-169.95 900.96,-187.27 925,-207.5 961.55,-238.27 975.98,-297.58 980.38,-320.82"/>
<polygon fill="#63b8ff" stroke="#63b8ff" points="766.28,-156.24 755.82,-157.93 765.05,-163.13 766.28,-156.24"/>
</g>
<!-- Node4 -->
<g id="node4" class="node">
<title>Node4</title>
<g id="a_node4"><a xlink:href="class_urho3_d_1_1_serializable.html" target="_top" xlink:title="Base class for objects with automatic serialization through attributes.">
<polygon fill="white" stroke="#666666" points="410.5,-62 305.5,-62 305.5,-43 410.5,-43 410.5,-62"/>
<text text-anchor="middle" x="358" y="-50" font-family="Roboto" font-size="10.00">Urho3D::Serializable</text>
</a>
</g>
</g>
<!-- Node4&#45;&gt;Node3 -->
<g id="edge3" class="edge">
<title>Node4&#45;&gt;Node3</title>
<path fill="none" stroke="#63b8ff" d="M417.54,-64.81C427.39,-66.97 437.5,-69.25 447,-71.5 513.09,-87.11 530.25,-89.04 595,-109.5 623.51,-118.51 655.53,-130.92 676.85,-139.52"/>
<polygon fill="#63b8ff" stroke="#63b8ff" points="418.57,-61.45 408.05,-62.74 417.08,-68.29 418.57,-61.45"/>
</g>
<!-- Node5 -->
<g id="node5" class="node">
<title>Node5</title>
<g id="a_node5"><a xlink:href="class_urho3_d_1_1_object.html" target="_top" xlink:title=" ">
<polygon fill="#fff0f0" stroke="red" points="105.5,-19 22.5,-19 22.5,0 105.5,0 105.5,-19"/>
<text text-anchor="middle" x="64" y="-7" font-family="Roboto" font-size="10.00">Urho3D::Object</text>
</a>
</g>
</g>
<!-- Node5&#45;&gt;Node4 -->
<g id="edge4" class="edge">
<title>Node5&#45;&gt;Node4</title>
<path fill="none" stroke="#63b8ff" d="M117.11,-17.17C170.18,-24.99 252.02,-37.04 305.04,-44.85"/>
<polygon fill="#63b8ff" stroke="#63b8ff" points="117.81,-13.74 107.41,-15.74 116.79,-20.66 117.81,-13.74"/>
</g>
<!-- Node27 -->
<g id="node6" class="node">
<title>Node27</title>
<g id="a_node6"><a xlink:href="class_urho3_d_1_1_unique_ptr.html" target="_top" xlink:title=" ">
<polygon fill="white" stroke="orangered" points="126.5,-115.5 1.5,-115.5 1.5,-85.5 126.5,-85.5 126.5,-115.5"/>
<text text-anchor="start" x="9.5" y="-103.5" font-family="Roboto" font-size="10.00">Urho3D::UniquePtr&lt;</text>
<text text-anchor="middle" x="64" y="-92.5" font-family="Roboto" font-size="10.00"> Urho3D::NetworkState &gt;</text>
</a>
</g>
</g>
<!-- Node27&#45;&gt;Node4 -->
<g id="edge5" class="edge">
<title>Node27&#45;&gt;Node4</title>
<path fill="none" stroke="#9a32cd" stroke-dasharray="5,2" d="M138.11,-88.48C190.2,-79.92 258.95,-68.62 305.4,-60.98"/>
<polygon fill="#9a32cd" stroke="#9a32cd" points="137.72,-85 128.42,-90.07 138.85,-91.91 137.72,-85"/>
<text text-anchor="middle" x="198.5" y="-89.5" font-family="Roboto" font-size="10.00"> networkState_</text>
</g>
<!-- Node32 -->
<g id="node7" class="node">
<title>Node32</title>
<g id="a_node7"><a xlink:href="class_urho3_d_1_1_unique_ptr.html" target="_top" xlink:title=" ">
<polygon fill="white" stroke="orangered" points="117.5,-67.5 10.5,-67.5 10.5,-37.5 117.5,-37.5 117.5,-67.5"/>
<text text-anchor="start" x="18.5" y="-55.5" font-family="Roboto" font-size="10.00">Urho3D::UniquePtr&lt;</text>
<text text-anchor="middle" x="64" y="-44.5" font-family="Roboto" font-size="10.00"> Urho3D::HashMap &gt;</text>
</a>
</g>
</g>
<!-- Node32&#45;&gt;Node4 -->
<g id="edge6" class="edge">
<title>Node32&#45;&gt;Node4</title>
<path fill="none" stroke="#9a32cd" stroke-dasharray="5,2" d="M129.14,-52.5C181.94,-52.5 255.84,-52.5 305.01,-52.5"/>
<polygon fill="#9a32cd" stroke="#9a32cd" points="129.39,-49 119.39,-52.5 129.39,-56 129.39,-49"/>
<text text-anchor="middle" x="198.5" y="-55.5" font-family="Roboto" font-size="10.00"> instanceDefaultValues_</text>
</g>
<!-- Node34 -->
<g id="node8" class="node">
<title>Node34</title>
<g id="a_node8"><a xlink:href="class_urho3_d_1_1_shared_ptr.html" target="_top" xlink:title=" ">
<polygon fill="white" stroke="#666666" points="426.5,-256.5 289.5,-256.5 289.5,-226.5 426.5,-226.5 426.5,-256.5"/>
<text text-anchor="start" x="297.5" y="-244.5" font-family="Roboto" font-size="10.00">Urho3D::SharedPtr&lt;</text>
<text text-anchor="middle" x="358" y="-233.5" font-family="Roboto" font-size="10.00"> Urho3D::ObjectAnimation &gt;</text>
</a>
</g>
</g>
<!-- Node34&#45;&gt;Node3 -->
<g id="edge7" class="edge">
<title>Node34&#45;&gt;Node3</title>
<path fill="none" stroke="#9a32cd" stroke-dasharray="5,2" d="M424.31,-223.04C475.55,-208.67 548.7,-188.39 613,-171.5 628.38,-167.46 645.33,-163.18 660.2,-159.48"/>
<polygon fill="#9a32cd" stroke="#9a32cd" points="423.54,-219.62 414.86,-225.69 425.43,-226.36 423.54,-219.62"/>
<text text-anchor="middle" x="530" y="-214.5" font-family="Roboto" font-size="10.00"> objectAnimation_</text>
</g>
<!-- Node35 -->
<g id="node9" class="node">
<title>Node35</title>
<g id="a_node9"><a xlink:href="class_urho3_d_1_1_object_animation.html" target="_top" xlink:title="Object animation class, an object animation include one or more attribute animations and theirs wrap ...">
<polygon fill="#fff0f0" stroke="red" points="128,-251 0,-251 0,-232 128,-232 128,-251"/>
<text text-anchor="middle" x="64" y="-239" font-family="Roboto" font-size="10.00">Urho3D::ObjectAnimation</text>
</a>
</g>
</g>
<!-- Node35&#45;&gt;Node34 -->
<g id="edge8" class="edge">
<title>Node35&#45;&gt;Node34</title>
<path fill="none" stroke="#9a32cd" stroke-dasharray="5,2" d="M139.79,-241.5C185.86,-241.5 244.46,-241.5 289.19,-241.5"/>
<polygon fill="#9a32cd" stroke="#9a32cd" points="139.87,-238 129.87,-241.5 139.87,-245 139.87,-238"/>
<text text-anchor="middle" x="198.5" y="-244.5" font-family="Roboto" font-size="10.00"> ptr_</text>
</g>
<!-- Node40 -->
<g id="node10" class="node">
<title>Node40</title>
<g id="a_node10"><a xlink:href="class_urho3_d_1_1_hash_set.html" target="_top" xlink:title=" ">
<polygon fill="white" stroke="#666666" points="421.5,-110.5 294.5,-110.5 294.5,-80.5 421.5,-80.5 421.5,-110.5"/>
<text text-anchor="start" x="302.5" y="-98.5" font-family="Roboto" font-size="10.00">Urho3D::HashSet&lt; const</text>
<text text-anchor="middle" x="358" y="-87.5" font-family="Roboto" font-size="10.00"> Urho3D::AttributeInfo * &gt;</text>
</a>
</g>
</g>
<!-- Node40&#45;&gt;Node3 -->
<g id="edge9" class="edge">
<title>Node40&#45;&gt;Node3</title>
<path fill="none" stroke="#9a32cd" stroke-dasharray="5,2" d="M432.78,-107.15C498.17,-117.47 591.97,-132.28 649.55,-141.38"/>
<polygon fill="#9a32cd" stroke="#9a32cd" points="433.65,-103.74 423.22,-105.64 432.55,-110.66 433.65,-103.74"/>
<text text-anchor="middle" x="530" y="-135.5" font-family="Roboto" font-size="10.00"> animatedNetworkAttributes_</text>
</g>
<!-- Node10 -->
<g id="node11" class="node">
<title>Node10</title>
<g id="a_node11"><a xlink:href="class_urho3_d_1_1_hash_base.html" target="_top" xlink:title="Hash set/map base class.">
<polygon fill="#fff0f0" stroke="red" points="114,-160 14,-160 14,-141 114,-141 114,-160"/>
<text text-anchor="middle" x="64" y="-148" font-family="Roboto" font-size="10.00">Urho3D::HashBase</text>
</a>
</g>
</g>
<!-- Node10&#45;&gt;Node40 -->
<g id="edge10" class="edge">
<title>Node10&#45;&gt;Node40</title>
<path fill="none" stroke="#63b8ff" d="M125.34,-139.14C174.63,-129.85 244.09,-116.77 294.07,-107.35"/>
<polygon fill="#63b8ff" stroke="#63b8ff" points="124.87,-135.66 115.69,-140.95 126.17,-142.54 124.87,-135.66"/>
</g>
<!-- Node41 -->
<g id="node12" class="node">
<title>Node41</title>
<g id="a_node12"><a xlink:href="class_urho3_d_1_1_hash_map.html" target="_top" xlink:title=" ">
<polygon fill="white" stroke="#666666" points="447,-170 269,-170 269,-129 447,-129 447,-170"/>
<text text-anchor="start" x="277" y="-158" font-family="Roboto" font-size="10.00">Urho3D::HashMap&lt; Urho3D</text>
<text text-anchor="start" x="277" y="-147" font-family="Roboto" font-size="10.00">::String, Urho3D::SharedPtr</text>
<text text-anchor="middle" x="358" y="-136" font-family="Roboto" font-size="10.00">&lt; Urho3D::AttributeAnimationInfo &gt; &gt;</text>
</a>
</g>
</g>
<!-- Node10&#45;&gt;Node41 -->
<g id="edge12" class="edge">
<title>Node10&#45;&gt;Node41</title>
<path fill="none" stroke="#63b8ff" d="M125.47,-150.29C166.81,-150.15 222.29,-149.96 268.57,-149.8"/>
<polygon fill="#63b8ff" stroke="#63b8ff" points="125.71,-146.79 115.72,-150.33 125.73,-153.79 125.71,-146.79"/>
</g>
<!-- Node25 -->
<g id="node16" class="node">
<title>Node25</title>
<g id="a_node16"><a xlink:href="class_urho3_d_1_1_hash_map.html" target="_top" xlink:title=" ">
<polygon fill="white" stroke="#666666" points="780,-210.5 624,-210.5 624,-180.5 780,-180.5 780,-210.5"/>
<text text-anchor="start" x="632" y="-198.5" font-family="Roboto" font-size="10.00">Urho3D::HashMap&lt; StringHash,</text>
<text text-anchor="middle" x="702" y="-187.5" font-family="Roboto" font-size="10.00"> Variant &gt;</text>
</a>
</g>
</g>
<!-- Node10&#45;&gt;Node25 -->
<g id="edge21" class="edge">
<title>Node10&#45;&gt;Node25</title>
<path fill="none" stroke="#63b8ff" d="M125.39,-161.33C132.33,-162.46 139.31,-163.54 146,-164.5 315.33,-188.75 516.24,-194.28 623.82,-195.39"/>
<polygon fill="#63b8ff" stroke="#63b8ff" points="126.12,-157.91 115.68,-159.72 124.97,-164.81 126.12,-157.91"/>
</g>
<!-- Node41&#45;&gt;Node3 -->
<g id="edge11" class="edge">
<title>Node41&#45;&gt;Node3</title>
<path fill="none" stroke="#9a32cd" stroke-dasharray="5,2" d="M458.58,-149.5C521.25,-149.5 599.51,-149.5 649.87,-149.5"/>
<polygon fill="#9a32cd" stroke="#9a32cd" points="458.59,-146 448.59,-149.5 458.59,-153 458.59,-146"/>
<text text-anchor="middle" x="530" y="-152.5" font-family="Roboto" font-size="10.00"> attributeAnimationInfos_</text>
</g>
<!-- Node42&#45;&gt;Node2 -->
<g id="edge13" class="edge">
<title>Node42&#45;&gt;Node2</title>
<path fill="none" stroke="#9a32cd" stroke-dasharray="5,2" d="M1008.08,-314.58C1017.89,-308.85 1029.6,-302.96 1041,-299.5 1087.8,-285.28 1143.56,-281.35 1183.53,-280.64"/>
<polygon fill="#9a32cd" stroke="#9a32cd" points="1006.25,-311.59 999.56,-319.81 1009.91,-317.56 1006.25,-311.59"/>
<text text-anchor="middle" x="1103.5" y="-302.5" font-family="Roboto" font-size="10.00"> node_</text>
</g>
<!-- Node42&#45;&gt;Node42 -->
<g id="edge17" class="edge">
<title>Node42&#45;&gt;Node42</title>
<path fill="none" stroke="#9a32cd" stroke-dasharray="5,2" d="M962.41,-351.43C964.99,-355.29 971.85,-358 983,-358 1003.39,-358 1009.44,-348.94 1001.16,-340.37"/>
<polygon fill="#9a32cd" stroke="#9a32cd" points="965.79,-352.36 964.51,-341.85 958.95,-350.86 965.79,-352.36"/>
<text text-anchor="middle" x="983" y="-361" font-family="Roboto" font-size="10.00"> parent_</text>
</g>
<!-- Node44 -->
<g id="node15" class="node">
<title>Node44</title>
<g id="a_node15"><a xlink:href="class_urho3_d_1_1_scene.html" target="_top" xlink:title="Root scene node, represents the whole scene.">
<polygon fill="#fff0f0" stroke="red" points="1278.5,-328 1196.5,-328 1196.5,-309 1278.5,-309 1278.5,-328"/>
<text text-anchor="middle" x="1237.5" y="-316" font-family="Roboto" font-size="10.00">Urho3D::Scene</text>
</a>
</g>
</g>
<!-- Node42&#45;&gt;Node44 -->
<g id="edge19" class="edge">
<title>Node42&#45;&gt;Node44</title>
<path fill="none" stroke="#63b8ff" d="M1034.83,-332.25C1071.38,-333.01 1121.81,-333.05 1166,-329.5 1175.88,-328.71 1186.47,-327.33 1196.36,-325.82"/>
<polygon fill="#63b8ff" stroke="#63b8ff" points="1035.07,-328.75 1024.99,-332.01 1034.91,-335.75 1035.07,-328.75"/>
</g>
<!-- Node43 -->
<g id="node14" class="node">
<title>Node43</title>
<g id="a_node14"><a xlink:href="class_urho3_d_1_1_matrix3x4.html" target="_top" xlink:title="3x4 matrix for scene node transform calculations.">
<polygon fill="white" stroke="#666666" points="751.5,-650 652.5,-650 652.5,-631 751.5,-631 751.5,-650"/>
<text text-anchor="middle" x="702" y="-638" font-family="Roboto" font-size="10.00">Urho3D::Matrix3x4</text>
</a>
</g>
</g>
<!-- Node43&#45;&gt;Node42 -->
<g id="edge15" class="edge">
<title>Node43&#45;&gt;Node42</title>
<path fill="none" stroke="#9a32cd" stroke-dasharray="5,2" d="M762.84,-631.8C772.47,-629.4 782.17,-626.36 791,-622.5 858.14,-593.18 882.67,-586.29 925,-526.5 968.41,-465.18 979.01,-371.01 981.37,-340.45"/>
<polygon fill="#9a32cd" stroke="#9a32cd" points="762.08,-628.38 753.1,-634 763.62,-635.21 762.08,-628.38"/>
<text text-anchor="middle" x="867" y="-616.5" font-family="Roboto" font-size="10.00"> worldTransform_</text>
</g>
<!-- Node43&#45;&gt;Node43 -->
<g id="edge16" class="edge">
<title>Node43&#45;&gt;Node43</title>
<path fill="none" stroke="#9a32cd" stroke-dasharray="5,2" d="M672.41,-661.1C675.82,-665.13 685.69,-668 702,-668 731,-668 739.61,-658.94 727.83,-650.37"/>
<polygon fill="#9a32cd" stroke="#9a32cd" points="675.67,-662.39 675.67,-651.8 669.06,-660.08 675.67,-662.39"/>
<text text-anchor="middle" x="702" y="-682" font-family="Roboto" font-size="10.00"> IDENTITY</text>
<text text-anchor="middle" x="702" y="-671" font-family="Roboto" font-size="10.00">ZERO</text>
</g>
<!-- Node44&#45;&gt;Node42 -->
<g id="edge18" class="edge">
<title>Node44&#45;&gt;Node42</title>
<path fill="none" stroke="#9a32cd" stroke-dasharray="5,2" d="M1184.86,-315.59C1145.35,-314.07 1089.6,-313.44 1041,-318.5 1035.27,-319.1 1029.26,-320.02 1023.39,-321.1"/>
<polygon fill="#9a32cd" stroke="#9a32cd" points="1184.66,-319.09 1194.8,-316.01 1184.96,-312.09 1184.66,-319.09"/>
<text text-anchor="middle" x="1103.5" y="-321.5" font-family="Roboto" font-size="10.00"> scene_</text>
</g>
<!-- Node25&#45;&gt;Node42 -->
<g id="edge33" class="edge">
<title>Node25&#45;&gt;Node42</title>
<path fill="none" stroke="#9a32cd" stroke-dasharray="5,2" d="M791.77,-208.11C851.08,-216.83 919.28,-227.55 925,-231.5 957.14,-253.71 973.57,-300.36 979.43,-320.69"/>
<polygon fill="#9a32cd" stroke="#9a32cd" points="792.33,-204.66 781.93,-206.67 791.32,-211.58 792.33,-204.66"/>
<text text-anchor="middle" x="867" y="-234.5" font-family="Roboto" font-size="10.00"> vars_</text>
</g>
<!-- Node25&#45;&gt;Node44 -->
<g id="edge20" class="edge">
<title>Node25&#45;&gt;Node44</title>
<path fill="none" stroke="#9a32cd" stroke-dasharray="5,2" d="M791.7,-190.5C891.13,-189.25 1053.16,-200.7 1166,-276.5 1177.07,-283.93 1173.22,-292.66 1184,-300.5 1188.36,-303.67 1193.33,-306.32 1198.43,-308.52"/>
<polygon fill="#9a32cd" stroke="#9a32cd" points="791.94,-187 782.01,-190.67 792.07,-193.99 791.94,-187"/>
<text text-anchor="middle" x="983" y="-217.5" font-family="Roboto" font-size="10.00"> smoothingData_</text>
</g>
<!-- Node74 -->
<g id="node17" class="node">
<title>Node74</title>
<g id="a_node17"><a xlink:href="class_urho3_d_1_1_vector3.html" target="_top" xlink:title="Three&#45;dimensional vector.">
<polygon fill="white" stroke="#666666" points="746.5,-507 657.5,-507 657.5,-488 746.5,-488 746.5,-507"/>
<text text-anchor="middle" x="702" y="-495" font-family="Roboto" font-size="10.00">Urho3D::Vector3</text>
</a>
</g>
</g>
<!-- Node74&#45;&gt;Node42 -->
<g id="edge22" class="edge">
<title>Node74&#45;&gt;Node42</title>
<path fill="none" stroke="#9a32cd" stroke-dasharray="5,2" d="M757.9,-502.48C806.7,-503.94 877.48,-498.43 925,-461.5 965.15,-430.3 977.55,-365.07 980.9,-340.31"/>
<polygon fill="#9a32cd" stroke="#9a32cd" points="758.26,-498.99 748.12,-502.07 757.96,-505.98 758.26,-498.99"/>
<text text-anchor="middle" x="867" y="-514.5" font-family="Roboto" font-size="10.00"> position_</text>
<text text-anchor="middle" x="867" y="-503.5" font-family="Roboto" font-size="10.00">scale_</text>
</g>
<!-- Node74&#45;&gt;Node74 -->
<g id="edge23" class="edge">
<title>Node74&#45;&gt;Node74</title>
<path fill="none" stroke="#9a32cd" stroke-dasharray="5,2" d="M672.41,-518.1C675.82,-522.13 685.69,-525 702,-525 731,-525 739.61,-515.94 727.83,-507.37"/>
<polygon fill="#9a32cd" stroke="#9a32cd" points="675.67,-519.39 675.67,-508.8 669.06,-517.08 675.67,-519.39"/>
<text text-anchor="middle" x="702" y="-605" font-family="Roboto" font-size="10.00"> BACK</text>
<text text-anchor="middle" x="702" y="-594" font-family="Roboto" font-size="10.00">DOWN</text>
<text text-anchor="middle" x="702" y="-583" font-family="Roboto" font-size="10.00">FORWARD</text>
<text text-anchor="middle" x="702" y="-572" font-family="Roboto" font-size="10.00">LEFT</text>
<text text-anchor="middle" x="702" y="-561" font-family="Roboto" font-size="10.00">ONE</text>
<text text-anchor="middle" x="702" y="-550" font-family="Roboto" font-size="10.00">RIGHT</text>
<text text-anchor="middle" x="702" y="-539" font-family="Roboto" font-size="10.00">UP</text>
<text text-anchor="middle" x="702" y="-528" font-family="Roboto" font-size="10.00">ZERO</text>
</g>
<!-- Node75 -->
<g id="node18" class="node">
<title>Node75</title>
<g id="a_node18"><a xlink:href="class_urho3_d_1_1_quaternion.html" target="_top" xlink:title="Rotation represented as a four&#45;dimensional normalized vector.">
<polygon fill="white" stroke="#666666" points="753.5,-296 650.5,-296 650.5,-277 753.5,-277 753.5,-296"/>
<text text-anchor="middle" x="702" y="-284" font-family="Roboto" font-size="10.00">Urho3D::Quaternion</text>
</a>
</g>
</g>
<!-- Node75&#45;&gt;Node42 -->
<g id="edge24" class="edge">
<title>Node75&#45;&gt;Node42</title>
<path fill="none" stroke="#9a32cd" stroke-dasharray="5,2" d="M765.11,-289.39C809.98,-292.4 871.78,-298.46 925,-310.5 935.94,-312.98 947.7,-316.88 957.67,-320.58"/>
<polygon fill="#9a32cd" stroke="#9a32cd" points="765.51,-285.91 755.31,-288.77 765.07,-292.89 765.51,-285.91"/>
<text text-anchor="middle" x="867" y="-324.5" font-family="Roboto" font-size="10.00"> rotation_</text>
<text text-anchor="middle" x="867" y="-313.5" font-family="Roboto" font-size="10.00">worldRotation_</text>
</g>
<!-- Node75&#45;&gt;Node75 -->
<g id="edge25" class="edge">
<title>Node75&#45;&gt;Node75</title>
<path fill="none" stroke="#9a32cd" stroke-dasharray="5,2" d="M672.41,-307.1C675.82,-311.13 685.69,-314 702,-314 731,-314 739.61,-304.94 727.83,-296.37"/>
<polygon fill="#9a32cd" stroke="#9a32cd" points="675.67,-308.39 675.67,-297.8 669.06,-306.08 675.67,-308.39"/>
<text text-anchor="middle" x="702" y="-317" font-family="Roboto" font-size="10.00"> IDENTITY</text>
</g>
<!-- Node76 -->
<g id="node19" class="node">
<title>Node76</title>
<g id="a_node19"><a xlink:href="class_urho3_d_1_1_vector.html" target="_top" xlink:title=" ">
<polygon fill="white" stroke="#666666" points="791,-373.5 613,-373.5 613,-343.5 791,-343.5 791,-373.5"/>
<text text-anchor="start" x="621" y="-361.5" font-family="Roboto" font-size="10.00">Urho3D::Vector&lt; Urho3D</text>
<text text-anchor="middle" x="702" y="-350.5" font-family="Roboto" font-size="10.00">::SharedPtr&lt; Urho3D::Component &gt; &gt;</text>
</a>
</g>
</g>
<!-- Node76&#45;&gt;Node42 -->
<g id="edge26" class="edge">
<title>Node76&#45;&gt;Node42</title>
<path fill="none" stroke="#9a32cd" stroke-dasharray="5,2" d="M802.47,-348.52C850.98,-343.65 906.54,-338.07 942.84,-334.43"/>
<polygon fill="#9a32cd" stroke="#9a32cd" points="802.38,-345.01 792.78,-349.49 803.08,-351.97 802.38,-345.01"/>
<text text-anchor="middle" x="867" y="-350.5" font-family="Roboto" font-size="10.00"> components_</text>
</g>
<!-- Node19 -->
<g id="node20" class="node">
<title>Node19</title>
<g id="a_node20"><a xlink:href="class_urho3_d_1_1_vector_base.html" target="_top" xlink:title="Vector base class.">
<polygon fill="white" stroke="#666666" points="411,-464 305,-464 305,-445 411,-445 411,-464"/>
<text text-anchor="middle" x="358" y="-452" font-family="Roboto" font-size="10.00">Urho3D::VectorBase</text>
</a>
</g>
</g>
<!-- Node19&#45;&gt;Node76 -->
<g id="edge27" class="edge">
<title>Node19&#45;&gt;Node76</title>
<path fill="none" stroke="#63b8ff" d="M396,-440.66C416.24,-433.32 441.84,-424.42 465,-417.5 520.74,-400.84 584.83,-385.03 632.14,-373.97"/>
<polygon fill="#63b8ff" stroke="#63b8ff" points="394.97,-437.31 386.78,-444.03 397.37,-443.88 394.97,-437.31"/>
</g>
<!-- Node77 -->
<g id="node21" class="node">
<title>Node77</title>
<g id="a_node21"><a xlink:href="class_urho3_d_1_1_vector.html" target="_top" xlink:title=" ">
<polygon fill="white" stroke="#666666" points="777.5,-469.5 626.5,-469.5 626.5,-439.5 777.5,-439.5 777.5,-469.5"/>
<text text-anchor="start" x="634.5" y="-457.5" font-family="Roboto" font-size="10.00">Urho3D::Vector&lt; Urho3D</text>
<text text-anchor="middle" x="702" y="-446.5" font-family="Roboto" font-size="10.00">::SharedPtr&lt; Urho3D::Node &gt; &gt;</text>
</a>
</g>
</g>
<!-- Node19&#45;&gt;Node77 -->
<g id="edge29" class="edge">
<title>Node19&#45;&gt;Node77</title>
<path fill="none" stroke="#63b8ff" d="M422.83,-454.5C480.48,-454.5 565.36,-454.5 626.18,-454.5"/>
<polygon fill="#63b8ff" stroke="#63b8ff" points="422.83,-451 412.83,-454.5 422.83,-458 422.83,-451"/>
</g>
<!-- Node78 -->
<g id="node22" class="node">
<title>Node78</title>
<g id="a_node22"><a xlink:href="class_urho3_d_1_1_vector.html" target="_top" xlink:title=" ">
<polygon fill="white" stroke="#666666" points="788,-421.5 616,-421.5 616,-391.5 788,-391.5 788,-421.5"/>
<text text-anchor="start" x="624" y="-409.5" font-family="Roboto" font-size="10.00">Urho3D::Vector&lt; Urho3D</text>
<text text-anchor="middle" x="702" y="-398.5" font-family="Roboto" font-size="10.00">::WeakPtr&lt; Urho3D::Component &gt; &gt;</text>
</a>
</g>
</g>
<!-- Node19&#45;&gt;Node78 -->
<g id="edge31" class="edge">
<title>Node19&#45;&gt;Node78</title>
<path fill="none" stroke="#63b8ff" d="M422.55,-445.58C476.99,-437.94 555.87,-426.87 615.78,-418.46"/>
<polygon fill="#63b8ff" stroke="#63b8ff" points="422.23,-442.09 412.81,-446.95 423.2,-449.02 422.23,-442.09"/>
</g>
<!-- Node97 -->
<g id="node24" class="node">
<title>Node97</title>
<g id="a_node24"><a xlink:href="class_urho3_d_1_1_p_o_d_vector.html" target="_top" xlink:title=" ">
<polygon fill="white" stroke="#666666" points="925,-771.5 809,-771.5 809,-741.5 925,-741.5 925,-771.5"/>
<text text-anchor="start" x="817" y="-759.5" font-family="Roboto" font-size="10.00">Urho3D::PODVector&lt;</text>
<text text-anchor="middle" x="867" y="-748.5" font-family="Roboto" font-size="10.00"> Urho3D::IKEffector * &gt;</text>
</a>
</g>
</g>
<!-- Node19&#45;&gt;Node97 -->
<g id="edge35" class="edge">
<title>Node19&#45;&gt;Node97</title>
<path fill="none" stroke="#63b8ff" d="M359.78,-475.67C363,-529.15 379.6,-669.82 465,-732.5 566.63,-807.09 724.65,-788.31 808.77,-770.83"/>
<polygon fill="#63b8ff" stroke="#63b8ff" points="363.28,-475.65 359.29,-465.83 356.29,-475.99 363.28,-475.65"/>
</g>
<!-- Node98 -->
<g id="node25" class="node">
<title>Node98</title>
<g id="a_node25"><a xlink:href="class_urho3_d_1_1_p_o_d_vector.html" target="_top" xlink:title=" ">
<polygon fill="white" stroke="#666666" points="1166,-733.5 1041,-733.5 1041,-703.5 1166,-703.5 1166,-733.5"/>
<text text-anchor="start" x="1049" y="-721.5" font-family="Roboto" font-size="10.00">Urho3D::PODVector&lt;</text>
<text text-anchor="middle" x="1103.5" y="-710.5" font-family="Roboto" font-size="10.00"> Urho3D::IKConstraint * &gt;</text>
</a>
</g>
</g>
<!-- Node19&#45;&gt;Node98 -->
<g id="edge37" class="edge">
<title>Node19&#45;&gt;Node98</title>
<path fill="none" stroke="#63b8ff" d="M371.27,-473.63C403.7,-522.23 497.23,-650.13 613,-699.5 688.2,-731.57 926.51,-726.19 1040.54,-721.52"/>
<polygon fill="#63b8ff" stroke="#63b8ff" points="374.37,-471.98 365.96,-465.54 368.52,-475.82 374.37,-471.98"/>
</g>
<!-- Node77&#45;&gt;Node42 -->
<g id="edge28" class="edge">
<title>Node77&#45;&gt;Node42</title>
<path fill="none" stroke="#9a32cd" stroke-dasharray="5,2" d="M789.12,-450.08C832.67,-444.47 884.69,-432.34 925,-406.5 950.96,-389.85 969.41,-356.97 977.47,-340.46"/>
<polygon fill="#9a32cd" stroke="#9a32cd" points="788.98,-446.57 779.46,-451.22 789.8,-453.52 788.98,-446.57"/>
<text text-anchor="middle" x="867" y="-449.5" font-family="Roboto" font-size="10.00"> children_</text>
</g>
<!-- Node78&#45;&gt;Node42 -->
<g id="edge30" class="edge">
<title>Node78&#45;&gt;Node42</title>
<path fill="none" stroke="#9a32cd" stroke-dasharray="5,2" d="M799.54,-394.18C839.19,-387.38 885.08,-377.24 925,-362.5 940.33,-356.84 956.45,-347.42 967.62,-340.27"/>
<polygon fill="#9a32cd" stroke="#9a32cd" points="799.05,-390.71 789.76,-395.8 800.2,-397.62 799.05,-390.71"/>
<text text-anchor="middle" x="867" y="-394.5" font-family="Roboto" font-size="10.00"> listeners_</text>
</g>
<!-- Node79 -->
<g id="node23" class="node">
<title>Node79</title>
<g id="a_node23"><a xlink:href="class_urho3_d_1_1_unique_ptr.html" target="_top" xlink:title=" ">
<polygon fill="white" stroke="orangered" points="756.5,-258.5 647.5,-258.5 647.5,-228.5 756.5,-228.5 756.5,-258.5"/>
<text text-anchor="start" x="655.5" y="-246.5" font-family="Roboto" font-size="10.00">Urho3D::UniquePtr&lt;</text>
<text text-anchor="middle" x="702" y="-235.5" font-family="Roboto" font-size="10.00"> Urho3D::NodeImpl &gt;</text>
</a>
</g>
</g>
<!-- Node79&#45;&gt;Node42 -->
<g id="edge32" class="edge">
<title>Node79&#45;&gt;Node42</title>
<path fill="none" stroke="#9a32cd" stroke-dasharray="5,2" d="M768.04,-243.47C813.96,-245.78 875.82,-253.71 925,-277.5 946.17,-287.74 964.89,-308.54 974.72,-320.82"/>
<polygon fill="#9a32cd" stroke="#9a32cd" points="768.38,-239.98 758.24,-243.06 768.09,-246.97 768.38,-239.98"/>
<text text-anchor="middle" x="867" y="-280.5" font-family="Roboto" font-size="10.00"> impl_</text>
</g>
<!-- Node97&#45;&gt;Node1 -->
<g id="edge34" class="edge">
<title>Node97&#45;&gt;Node1</title>
<path fill="none" stroke="#9a32cd" stroke-dasharray="5,2" d="M936.47,-756.06C1023.63,-754.71 1178.67,-749.68 1310,-731.5 1317.44,-730.47 1325.29,-729.02 1332.85,-727.44"/>
<polygon fill="#9a32cd" stroke="#9a32cd" points="936.61,-752.56 926.66,-756.2 936.71,-759.56 936.61,-752.56"/>
<text text-anchor="middle" x="1103.5" y="-755.5" font-family="Roboto" font-size="10.00"> effectorList_</text>
</g>
<!-- Node98&#45;&gt;Node1 -->
<g id="edge36" class="edge">
<title>Node98&#45;&gt;Node1</title>
<path fill="none" stroke="#9a32cd" stroke-dasharray="5,2" d="M1177.69,-718.23C1225.61,-718.05 1286.73,-717.82 1327.72,-717.67"/>
<polygon fill="#9a32cd" stroke="#9a32cd" points="1177.94,-714.73 1167.95,-718.26 1177.96,-721.73 1177.94,-714.73"/>
<text text-anchor="middle" x="1237.5" y="-720.5" font-family="Roboto" font-size="10.00"> constraintList_</text>
</g>
</g>
</svg>
