<?xml version="1.0" encoding="UTF-8" standalone="no"?>
<!DOCTYPE svg PUBLIC "-//W3C//DTD SVG 1.1//EN"
 "http://www.w3.org/Graphics/SVG/1.1/DTD/svg11.dtd">
<!-- Generated by graphviz version 7.0.3 (0)
 -->
<!-- Title: Urho3D::SmoothedTransform Pages: 1 -->
<svg width="1512pt" height="681pt"
 viewBox="0.00 0.00 1512.00 680.86" xmlns="http://www.w3.org/2000/svg" xmlns:xlink="http://www.w3.org/1999/xlink">
<g id="graph0" class="graph" transform="scale(1 1) rotate(0) translate(4 676.86)">
<title>Urho3D::SmoothedTransform</title>
<!-- Node1 -->
<g id="node1" class="node">
<title>Node1</title>
<g id="a_node1"><a xlink:title="Transform smoothing component for network updates.">
<polygon fill="#999999" stroke="#666666" points="1504,-531.86 1356,-531.86 1356,-512.86 1504,-512.86 1504,-531.86"/>
<text text-anchor="middle" x="1430" y="-519.86" font-family="Roboto" font-size="10.00">Urho3D::SmoothedTransform</text>
</a>
</g>
</g>
<!-- Node2 -->
<g id="node2" class="node">
<title>Node2</title>
<g id="a_node2"><a xlink:href="class_urho3_d_1_1_component.html" target="_top" xlink:title=" ">
<polygon fill="white" stroke="#666666" points="1319,-493.86 1212,-493.86 1212,-474.86 1319,-474.86 1319,-493.86"/>
<text text-anchor="middle" x="1265.5" y="-481.86" font-family="Roboto" font-size="10.00">Urho3D::Component</text>
</a>
</g>
</g>
<!-- Node2&#45;&gt;Node1 -->
<g id="edge1" class="edge">
<title>Node2&#45;&gt;Node1</title>
<path fill="none" stroke="#63b8ff" d="M1320.13,-496.9C1341.63,-501.93 1366.05,-507.64 1386.31,-512.38"/>
<polygon fill="#63b8ff" stroke="#63b8ff" points="1321.2,-493.56 1310.67,-494.69 1319.61,-500.37 1321.2,-493.56"/>
</g>
<!-- Node3 -->
<g id="node3" class="node">
<title>Node3</title>
<g id="a_node3"><a xlink:href="class_urho3_d_1_1_animatable.html" target="_top" xlink:title="Base class for animatable object, an animatable object can be set animation on it&#39;s attributes,...">
<polygon fill="white" stroke="#666666" points="782,-463.86 678,-463.86 678,-444.86 782,-444.86 782,-463.86"/>
<text text-anchor="middle" x="730" y="-451.86" font-family="Roboto" font-size="10.00">Urho3D::Animatable</text>
</a>
</g>
</g>
<!-- Node3&#45;&gt;Node2 -->
<g id="edge2" class="edge">
<title>Node3&#45;&gt;Node2</title>
<path fill="none" stroke="#63b8ff" d="M793.55,-465.04C807.79,-467.13 822.89,-469.07 837,-470.36 971.59,-482.68 1130.88,-484.56 1211.73,-484.61"/>
<polygon fill="#63b8ff" stroke="#63b8ff" points="794.25,-461.61 783.84,-463.57 793.2,-468.53 794.25,-461.61"/>
</g>
<!-- Node42 -->
<g id="node13" class="node">
<title>Node42</title>
<g id="a_node13"><a xlink:href="class_urho3_d_1_1_node.html" target="_top" xlink:title="Scene node that may contain components and child nodes.">
<polygon fill="white" stroke="#666666" points="1094.5,-341.86 1014.5,-341.86 1014.5,-322.86 1094.5,-322.86 1094.5,-341.86"/>
<text text-anchor="middle" x="1054.5" y="-329.86" font-family="Roboto" font-size="10.00">Urho3D::Node</text>
</a>
</g>
</g>
<!-- Node3&#45;&gt;Node42 -->
<g id="edge14" class="edge">
<title>Node3&#45;&gt;Node42</title>
<path fill="none" stroke="#63b8ff" d="M793.07,-442.25C801.84,-440.16 810.69,-437.86 819,-435.36 827.22,-432.89 828.75,-430.73 837,-428.36 900.93,-410.01 925.05,-431.15 984,-400.36 1011.38,-386.06 1035.13,-357.45 1046.45,-342.3"/>
<polygon fill="#63b8ff" stroke="#63b8ff" points="792.52,-438.79 783.55,-444.43 794.08,-445.61 792.52,-438.79"/>
</g>
<!-- Node4 -->
<g id="node4" class="node">
<title>Node4</title>
<g id="a_node4"><a xlink:href="class_urho3_d_1_1_serializable.html" target="_top" xlink:title="Base class for objects with automatic serialization through attributes.">
<polygon fill="white" stroke="#666666" points="410.5,-437.86 305.5,-437.86 305.5,-418.86 410.5,-418.86 410.5,-437.86"/>
<text text-anchor="middle" x="358" y="-425.86" font-family="Roboto" font-size="10.00">Urho3D::Serializable</text>
</a>
</g>
</g>
<!-- Node4&#45;&gt;Node3 -->
<g id="edge3" class="edge">
<title>Node4&#45;&gt;Node3</title>
<path fill="none" stroke="#63b8ff" d="M422,-432.79C494.06,-437.85 610.67,-446.04 677.51,-450.74"/>
<polygon fill="#63b8ff" stroke="#63b8ff" points="422.57,-429.32 412.35,-432.11 422.08,-436.3 422.57,-429.32"/>
</g>
<!-- Node5 -->
<g id="node5" class="node">
<title>Node5</title>
<g id="a_node5"><a xlink:href="class_urho3_d_1_1_object.html" target="_top" xlink:title=" ">
<polygon fill="#fff0f0" stroke="red" points="105.5,-464.86 22.5,-464.86 22.5,-445.86 105.5,-445.86 105.5,-464.86"/>
<text text-anchor="middle" x="64" y="-452.86" font-family="Roboto" font-size="10.00">Urho3D::Object</text>
</a>
</g>
</g>
<!-- Node5&#45;&gt;Node4 -->
<g id="edge4" class="edge">
<title>Node5&#45;&gt;Node4</title>
<path fill="none" stroke="#63b8ff" d="M117.11,-450.54C170.18,-445.63 252.02,-438.07 305.04,-433.16"/>
<polygon fill="#63b8ff" stroke="#63b8ff" points="117.05,-447.03 107.42,-451.44 117.7,-454 117.05,-447.03"/>
</g>
<!-- Node27 -->
<g id="node6" class="node">
<title>Node27</title>
<g id="a_node6"><a xlink:href="class_urho3_d_1_1_unique_ptr.html" target="_top" xlink:title=" ">
<polygon fill="white" stroke="orangered" points="126.5,-427.36 1.5,-427.36 1.5,-397.36 126.5,-397.36 126.5,-427.36"/>
<text text-anchor="start" x="9.5" y="-415.36" font-family="Roboto" font-size="10.00">Urho3D::UniquePtr&lt;</text>
<text text-anchor="middle" x="64" y="-404.36" font-family="Roboto" font-size="10.00"> Urho3D::NetworkState &gt;</text>
</a>
</g>
</g>
<!-- Node27&#45;&gt;Node4 -->
<g id="edge5" class="edge">
<title>Node27&#45;&gt;Node4</title>
<path fill="none" stroke="#9a32cd" stroke-dasharray="5,2" d="M138.11,-416.37C190.2,-419.22 258.95,-422.99 305.4,-425.53"/>
<polygon fill="#9a32cd" stroke="#9a32cd" points="138.61,-412.89 128.44,-415.84 138.23,-419.88 138.61,-412.89"/>
<text text-anchor="middle" x="198.5" y="-425.36" font-family="Roboto" font-size="10.00"> networkState_</text>
</g>
<!-- Node32 -->
<g id="node7" class="node">
<title>Node32</title>
<g id="a_node7"><a xlink:href="class_urho3_d_1_1_unique_ptr.html" target="_top" xlink:title=" ">
<polygon fill="white" stroke="orangered" points="117.5,-379.36 10.5,-379.36 10.5,-349.36 117.5,-349.36 117.5,-379.36"/>
<text text-anchor="start" x="18.5" y="-367.36" font-family="Roboto" font-size="10.00">Urho3D::UniquePtr&lt;</text>
<text text-anchor="middle" x="64" y="-356.36" font-family="Roboto" font-size="10.00"> Urho3D::HashMap &gt;</text>
</a>
</g>
</g>
<!-- Node32&#45;&gt;Node4 -->
<g id="edge6" class="edge">
<title>Node32&#45;&gt;Node4</title>
<path fill="none" stroke="#9a32cd" stroke-dasharray="5,2" d="M128.47,-376.69C164.49,-383.84 210.35,-393.22 251,-402.36 273.18,-407.34 297.86,-413.37 317.82,-418.36"/>
<polygon fill="#9a32cd" stroke="#9a32cd" points="129.6,-373.35 119.11,-374.84 128.24,-380.21 129.6,-373.35"/>
<text text-anchor="middle" x="198.5" y="-405.36" font-family="Roboto" font-size="10.00"> instanceDefaultValues_</text>
</g>
<!-- Node34 -->
<g id="node8" class="node">
<title>Node34</title>
<g id="a_node8"><a xlink:href="class_urho3_d_1_1_shared_ptr.html" target="_top" xlink:title=" ">
<polygon fill="white" stroke="#666666" points="426.5,-500.36 289.5,-500.36 289.5,-470.36 426.5,-470.36 426.5,-500.36"/>
<text text-anchor="start" x="297.5" y="-488.36" font-family="Roboto" font-size="10.00">Urho3D::SharedPtr&lt;</text>
<text text-anchor="middle" x="358" y="-477.36" font-family="Roboto" font-size="10.00"> Urho3D::ObjectAnimation &gt;</text>
</a>
</g>
</g>
<!-- Node34&#45;&gt;Node3 -->
<g id="edge7" class="edge">
<title>Node34&#45;&gt;Node3</title>
<path fill="none" stroke="#9a32cd" stroke-dasharray="5,2" d="M438.2,-478.72C510.61,-472.66 615.62,-463.86 677.64,-458.66"/>
<polygon fill="#9a32cd" stroke="#9a32cd" points="438.04,-475.22 428.37,-479.55 438.63,-482.2 438.04,-475.22"/>
<text text-anchor="middle" x="544" y="-479.36" font-family="Roboto" font-size="10.00"> objectAnimation_</text>
</g>
<!-- Node35 -->
<g id="node9" class="node">
<title>Node35</title>
<g id="a_node9"><a xlink:href="class_urho3_d_1_1_object_animation.html" target="_top" xlink:title="Object animation class, an object animation include one or more attribute animations and theirs wrap ...">
<polygon fill="#fff0f0" stroke="red" points="128,-501.86 0,-501.86 0,-482.86 128,-482.86 128,-501.86"/>
<text text-anchor="middle" x="64" y="-489.86" font-family="Roboto" font-size="10.00">Urho3D::ObjectAnimation</text>
</a>
</g>
</g>
<!-- Node35&#45;&gt;Node34 -->
<g id="edge8" class="edge">
<title>Node35&#45;&gt;Node34</title>
<path fill="none" stroke="#9a32cd" stroke-dasharray="5,2" d="M139.79,-490.57C185.86,-489.46 244.46,-488.06 289.19,-486.98"/>
<polygon fill="#9a32cd" stroke="#9a32cd" points="139.79,-487.07 129.87,-490.8 139.95,-494.06 139.79,-487.07"/>
<text text-anchor="middle" x="198.5" y="-493.36" font-family="Roboto" font-size="10.00"> ptr_</text>
</g>
<!-- Node40 -->
<g id="node10" class="node">
<title>Node40</title>
<g id="a_node10"><a xlink:href="class_urho3_d_1_1_hash_set.html" target="_top" xlink:title=" ">
<polygon fill="white" stroke="#666666" points="421.5,-257.36 294.5,-257.36 294.5,-227.36 421.5,-227.36 421.5,-257.36"/>
<text text-anchor="start" x="302.5" y="-245.36" font-family="Roboto" font-size="10.00">Urho3D::HashSet&lt; const</text>
<text text-anchor="middle" x="358" y="-234.36" font-family="Roboto" font-size="10.00"> Urho3D::AttributeInfo * &gt;</text>
</a>
</g>
</g>
<!-- Node40&#45;&gt;Node3 -->
<g id="edge9" class="edge">
<title>Node40&#45;&gt;Node3</title>
<path fill="none" stroke="#9a32cd" stroke-dasharray="5,2" d="M432.78,-255.21C492.81,-269.57 575.15,-298.81 623,-356.36 646.02,-384.05 615.39,-410.04 641,-435.36 650.78,-445.03 664.24,-450.3 677.68,-453.04"/>
<polygon fill="#9a32cd" stroke="#9a32cd" points="433.85,-251.87 423.32,-253.04 432.28,-258.69 433.85,-251.87"/>
<text text-anchor="middle" x="544" y="-359.36" font-family="Roboto" font-size="10.00"> animatedNetworkAttributes_</text>
</g>
<!-- Node10 -->
<g id="node11" class="node">
<title>Node10</title>
<g id="a_node11"><a xlink:href="class_urho3_d_1_1_hash_base.html" target="_top" xlink:title="Hash set/map base class.">
<polygon fill="#fff0f0" stroke="red" points="114,-131.86 14,-131.86 14,-112.86 114,-112.86 114,-131.86"/>
<text text-anchor="middle" x="64" y="-119.86" font-family="Roboto" font-size="10.00">Urho3D::HashBase</text>
</a>
</g>
</g>
<!-- Node10&#45;&gt;Node40 -->
<g id="edge10" class="edge">
<title>Node10&#45;&gt;Node40</title>
<path fill="none" stroke="#63b8ff" d="M97.77,-136.74C112.48,-143.14 130.07,-150.71 146,-157.36 205.77,-182.31 275.55,-210.17 317.99,-226.98"/>
<polygon fill="#63b8ff" stroke="#63b8ff" points="99.58,-133.71 89.02,-132.92 96.78,-140.13 99.58,-133.71"/>
</g>
<!-- Node41 -->
<g id="node12" class="node">
<title>Node41</title>
<g id="a_node12"><a xlink:href="class_urho3_d_1_1_hash_map.html" target="_top" xlink:title=" ">
<polygon fill="white" stroke="#666666" points="447,-372.86 269,-372.86 269,-331.86 447,-331.86 447,-372.86"/>
<text text-anchor="start" x="277" y="-360.86" font-family="Roboto" font-size="10.00">Urho3D::HashMap&lt; Urho3D</text>
<text text-anchor="start" x="277" y="-349.86" font-family="Roboto" font-size="10.00">::String, Urho3D::SharedPtr</text>
<text text-anchor="middle" x="358" y="-338.86" font-family="Roboto" font-size="10.00">&lt; Urho3D::AttributeAnimationInfo &gt; &gt;</text>
</a>
</g>
</g>
<!-- Node10&#45;&gt;Node41 -->
<g id="edge12" class="edge">
<title>Node10&#45;&gt;Node41</title>
<path fill="none" stroke="#63b8ff" d="M83.91,-139.64C100.11,-154.27 124.21,-175.64 146,-193.36 209.34,-244.87 286.61,-301.62 327.81,-331.42"/>
<polygon fill="#63b8ff" stroke="#63b8ff" points="86.66,-137.41 76.9,-133.28 81.96,-142.6 86.66,-137.41"/>
</g>
<!-- Node45 -->
<g id="node16" class="node">
<title>Node45</title>
<g id="a_node16"><a xlink:href="class_urho3_d_1_1_hash_map.html" target="_top" xlink:title=" ">
<polygon fill="white" stroke="#666666" points="617.5,-159.36 470.5,-159.36 470.5,-129.36 617.5,-129.36 617.5,-159.36"/>
<text text-anchor="start" x="478.5" y="-147.36" font-family="Roboto" font-size="10.00">Urho3D::HashMap&lt; unsigned,</text>
<text text-anchor="middle" x="544" y="-136.36" font-family="Roboto" font-size="10.00"> Urho3D::Node * &gt;</text>
</a>
</g>
</g>
<!-- Node10&#45;&gt;Node45 -->
<g id="edge21" class="edge">
<title>Node10&#45;&gt;Node45</title>
<path fill="none" stroke="#63b8ff" d="M125.73,-125.15C213.64,-129.2 376.1,-136.68 470.27,-141.01"/>
<polygon fill="#63b8ff" stroke="#63b8ff" points="126.02,-121.66 115.87,-124.7 125.69,-128.66 126.02,-121.66"/>
</g>
<!-- Node46 -->
<g id="node17" class="node">
<title>Node46</title>
<g id="a_node17"><a xlink:href="class_urho3_d_1_1_hash_map.html" target="_top" xlink:title=" ">
<polygon fill="white" stroke="#666666" points="984,-31.36 837,-31.36 837,-1.36 984,-1.36 984,-31.36"/>
<text text-anchor="start" x="845" y="-19.36" font-family="Roboto" font-size="10.00">Urho3D::HashMap&lt; unsigned,</text>
<text text-anchor="middle" x="910.5" y="-8.36" font-family="Roboto" font-size="10.00"> Urho3D::Component * &gt;</text>
</a>
</g>
</g>
<!-- Node10&#45;&gt;Node46 -->
<g id="edge23" class="edge">
<title>Node10&#45;&gt;Node46</title>
<path fill="none" stroke="#63b8ff" d="M84.82,-105.48C100.39,-93.24 123.18,-77.46 146,-69.36 387.18,16.29 697.68,3.06 836.64,-8.75"/>
<polygon fill="#63b8ff" stroke="#63b8ff" points="82.85,-102.56 77.3,-111.59 87.27,-108 82.85,-102.56"/>
</g>
<!-- Node47 -->
<g id="node18" class="node">
<title>Node47</title>
<g id="a_node18"><a xlink:href="class_urho3_d_1_1_hash_map.html" target="_top" xlink:title=" ">
<polygon fill="white" stroke="#666666" points="623,-81.86 465,-81.86 465,-40.86 623,-40.86 623,-81.86"/>
<text text-anchor="start" x="473" y="-69.86" font-family="Roboto" font-size="10.00">Urho3D::HashMap&lt; Urho3D</text>
<text text-anchor="start" x="473" y="-58.86" font-family="Roboto" font-size="10.00">::StringHash, Urho3D::</text>
<text text-anchor="middle" x="544" y="-47.86" font-family="Roboto" font-size="10.00">PODVector&lt; Urho3D::Node * &gt; &gt;</text>
</a>
</g>
</g>
<!-- Node10&#45;&gt;Node47 -->
<g id="edge25" class="edge">
<title>Node10&#45;&gt;Node47</title>
<path fill="none" stroke="#63b8ff" d="M95.27,-107.87C110.2,-101.38 128.68,-94.32 146,-90.36 254.64,-65.54 383.93,-60.48 464.75,-60.14"/>
<polygon fill="#63b8ff" stroke="#63b8ff" points="94.16,-104.53 86.47,-111.82 97.03,-110.91 94.16,-104.53"/>
</g>
<!-- Node25 -->
<g id="node19" class="node">
<title>Node25</title>
<g id="a_node19"><a xlink:href="class_urho3_d_1_1_hash_map.html" target="_top" xlink:title=" ">
<polygon fill="white" stroke="#666666" points="808,-118.36 652,-118.36 652,-88.36 808,-88.36 808,-118.36"/>
<text text-anchor="start" x="660" y="-106.36" font-family="Roboto" font-size="10.00">Urho3D::HashMap&lt; StringHash,</text>
<text text-anchor="middle" x="730" y="-95.36" font-family="Roboto" font-size="10.00"> Variant &gt;</text>
</a>
</g>
</g>
<!-- Node10&#45;&gt;Node25 -->
<g id="edge27" class="edge">
<title>Node10&#45;&gt;Node25</title>
<path fill="none" stroke="#63b8ff" d="M125.6,-120.63C246.6,-117.16 518,-109.4 651.64,-105.57"/>
<polygon fill="#63b8ff" stroke="#63b8ff" points="125.77,-117.12 115.88,-120.9 125.97,-124.12 125.77,-117.12"/>
</g>
<!-- Node41&#45;&gt;Node3 -->
<g id="edge11" class="edge">
<title>Node41&#45;&gt;Node3</title>
<path fill="none" stroke="#9a32cd" stroke-dasharray="5,2" d="M458.5,-368.44C509.45,-379.1 571.45,-395.92 623,-421.36 632.09,-425.84 631.82,-431.07 641,-435.36 652.47,-440.72 665.49,-444.58 677.94,-447.37"/>
<polygon fill="#9a32cd" stroke="#9a32cd" points="459.45,-365.06 448.95,-366.49 458.05,-371.92 459.45,-365.06"/>
<text text-anchor="middle" x="544" y="-424.36" font-family="Roboto" font-size="10.00"> attributeAnimationInfos_</text>
</g>
<!-- Node42&#45;&gt;Node2 -->
<g id="edge13" class="edge">
<title>Node42&#45;&gt;Node2</title>
<path fill="none" stroke="#9a32cd" stroke-dasharray="5,2" d="M1078.46,-349.06C1122.16,-380.84 1216.04,-449.11 1251.01,-474.55"/>
<polygon fill="#9a32cd" stroke="#9a32cd" points="1080.58,-346.27 1070.44,-343.22 1076.47,-351.93 1080.58,-346.27"/>
<text text-anchor="middle" x="1159.5" y="-434.36" font-family="Roboto" font-size="10.00"> node_</text>
</g>
<!-- Node42&#45;&gt;Node42 -->
<g id="edge17" class="edge">
<title>Node42&#45;&gt;Node42</title>
<path fill="none" stroke="#9a32cd" stroke-dasharray="5,2" d="M1035.86,-353.29C1038.19,-357.15 1044.41,-359.86 1054.5,-359.86 1072.96,-359.86 1078.44,-350.8 1070.94,-342.23"/>
<polygon fill="#9a32cd" stroke="#9a32cd" points="1039.25,-354.2 1037.77,-343.71 1032.38,-352.84 1039.25,-354.2"/>
<text text-anchor="middle" x="1054.5" y="-362.86" font-family="Roboto" font-size="10.00"> parent_</text>
</g>
<!-- Node44 -->
<g id="node15" class="node">
<title>Node44</title>
<g id="a_node15"><a xlink:href="class_urho3_d_1_1_scene.html" target="_top" xlink:title="Root scene node, represents the whole scene.">
<polygon fill="#fff0f0" stroke="red" points="1306.5,-136.86 1224.5,-136.86 1224.5,-117.86 1306.5,-117.86 1306.5,-136.86"/>
<text text-anchor="middle" x="1265.5" y="-124.86" font-family="Roboto" font-size="10.00">Urho3D::Scene</text>
</a>
</g>
</g>
<!-- Node42&#45;&gt;Node44 -->
<g id="edge19" class="edge">
<title>Node42&#45;&gt;Node44</title>
<path fill="none" stroke="#63b8ff" d="M1106.03,-321.2C1134.73,-312.7 1169.67,-298.41 1194,-275.36 1236.77,-234.84 1256.47,-163.08 1262.44,-137.1"/>
<polygon fill="#63b8ff" stroke="#63b8ff" points="1105.12,-317.82 1096.43,-323.88 1107,-324.57 1105.12,-317.82"/>
</g>
<!-- Node43 -->
<g id="node14" class="node">
<title>Node43</title>
<g id="a_node14"><a xlink:href="class_urho3_d_1_1_matrix3x4.html" target="_top" xlink:title="3x4 matrix for scene node transform calculations.">
<polygon fill="white" stroke="#666666" points="779.5,-289.86 680.5,-289.86 680.5,-270.86 779.5,-270.86 779.5,-289.86"/>
<text text-anchor="middle" x="730" y="-277.86" font-family="Roboto" font-size="10.00">Urho3D::Matrix3x4</text>
</a>
</g>
</g>
<!-- Node43&#45;&gt;Node42 -->
<g id="edge15" class="edge">
<title>Node43&#45;&gt;Node42</title>
<path fill="none" stroke="#9a32cd" stroke-dasharray="5,2" d="M791.31,-290.08C856.55,-300.6 958.64,-317.06 1014.23,-326.03"/>
<polygon fill="#9a32cd" stroke="#9a32cd" points="791.9,-286.63 781.48,-288.5 790.79,-293.55 791.9,-286.63"/>
<text text-anchor="middle" x="910.5" y="-324.36" font-family="Roboto" font-size="10.00"> worldTransform_</text>
</g>
<!-- Node43&#45;&gt;Node43 -->
<g id="edge16" class="edge">
<title>Node43&#45;&gt;Node43</title>
<path fill="none" stroke="#9a32cd" stroke-dasharray="5,2" d="M697.63,-300.96C701.36,-304.99 712.15,-307.86 730,-307.86 761.73,-307.86 771.15,-298.8 758.26,-290.23"/>
<polygon fill="#9a32cd" stroke="#9a32cd" points="700.89,-302.23 701.2,-291.64 694.36,-299.73 700.89,-302.23"/>
<text text-anchor="middle" x="730" y="-321.86" font-family="Roboto" font-size="10.00"> IDENTITY</text>
<text text-anchor="middle" x="730" y="-310.86" font-family="Roboto" font-size="10.00">ZERO</text>
</g>
<!-- Node44&#45;&gt;Node42 -->
<g id="edge18" class="edge">
<title>Node44&#45;&gt;Node42</title>
<path fill="none" stroke="#9a32cd" stroke-dasharray="5,2" d="M1246.45,-145.06C1203.94,-186.76 1098.62,-290.07 1065.58,-322.47"/>
<polygon fill="#9a32cd" stroke="#9a32cd" points="1248.75,-147.71 1253.44,-138.21 1243.85,-142.71 1248.75,-147.71"/>
<text text-anchor="middle" x="1159.5" y="-263.36" font-family="Roboto" font-size="10.00"> scene_</text>
</g>
<!-- Node45&#45;&gt;Node44 -->
<g id="edge20" class="edge">
<title>Node45&#45;&gt;Node44</title>
<path fill="none" stroke="#9a32cd" stroke-dasharray="5,2" d="M628.79,-144.21C752.49,-143.67 991.21,-141.42 1194,-132.36 1203.81,-131.92 1214.37,-131.27 1224.26,-130.58"/>
<polygon fill="#9a32cd" stroke="#9a32cd" points="629.05,-140.71 619.06,-144.25 629.08,-147.71 629.05,-140.71"/>
<text text-anchor="middle" x="910.5" y="-156.36" font-family="Roboto" font-size="10.00"> localNodes_</text>
<text text-anchor="middle" x="910.5" y="-145.36" font-family="Roboto" font-size="10.00">replicatedNodes_</text>
</g>
<!-- Node46&#45;&gt;Node44 -->
<g id="edge22" class="edge">
<title>Node46&#45;&gt;Node44</title>
<path fill="none" stroke="#9a32cd" stroke-dasharray="5,2" d="M995.54,-7.03C1055.17,-4.55 1134.79,-9.96 1194,-46.36 1224.02,-64.81 1248.14,-100.17 1258.71,-117.41"/>
<polygon fill="#9a32cd" stroke="#9a32cd" points="995.6,-3.52 985.79,-7.53 995.95,-10.51 995.6,-3.52"/>
<text text-anchor="middle" x="1054.5" y="-27.36" font-family="Roboto" font-size="10.00"> localComponents_</text>
<text text-anchor="middle" x="1054.5" y="-16.36" font-family="Roboto" font-size="10.00">replicatedComponents_</text>
</g>
<!-- Node47&#45;&gt;Node44 -->
<g id="edge24" class="edge">
<title>Node47&#45;&gt;Node44</title>
<path fill="none" stroke="#9a32cd" stroke-dasharray="5,2" d="M634.45,-66.8C688.01,-70.17 757.42,-74.72 819,-79.36 986.05,-91.93 1027.84,-96.08 1194,-117.36 1203.81,-118.62 1214.37,-120.06 1224.26,-121.46"/>
<polygon fill="#9a32cd" stroke="#9a32cd" points="634.98,-63.33 624.78,-66.2 634.55,-70.32 634.98,-63.33"/>
<text text-anchor="middle" x="910.5" y="-96.36" font-family="Roboto" font-size="10.00"> taggedNodes_</text>
</g>
<!-- Node25&#45;&gt;Node42 -->
<g id="edge36" class="edge">
<title>Node25&#45;&gt;Node42</title>
<path fill="none" stroke="#9a32cd" stroke-dasharray="5,2" d="M759.07,-125.38C779.52,-140.24 808.51,-158.98 837,-169.36 899.01,-191.95 930.62,-151.54 984,-190.36 1029.95,-223.78 1047.03,-295.99 1051.89,-322.42"/>
<polygon fill="#9a32cd" stroke="#9a32cd" points="761.36,-122.72 751.25,-119.56 757.18,-128.34 761.36,-122.72"/>
<text text-anchor="middle" x="910.5" y="-193.36" font-family="Roboto" font-size="10.00"> vars_</text>
</g>
<!-- Node25&#45;&gt;Node44 -->
<g id="edge26" class="edge">
<title>Node25&#45;&gt;Node44</title>
<path fill="none" stroke="#9a32cd" stroke-dasharray="5,2" d="M819.71,-107.35C936.92,-112.62 1138.53,-121.69 1224.15,-125.54"/>
<polygon fill="#9a32cd" stroke="#9a32cd" points="819.95,-103.86 809.8,-106.9 819.63,-110.85 819.95,-103.86"/>
<text text-anchor="middle" x="1054.5" y="-123.36" font-family="Roboto" font-size="10.00"> smoothingData_</text>
</g>
<!-- Node74 -->
<g id="node20" class="node">
<title>Node74</title>
<g id="a_node20"><a xlink:href="class_urho3_d_1_1_vector3.html" target="_top" xlink:title="Three&#45;dimensional vector.">
<polygon fill="white" stroke="#666666" points="774.5,-500.86 685.5,-500.86 685.5,-481.86 774.5,-481.86 774.5,-500.86"/>
<text text-anchor="middle" x="730" y="-488.86" font-family="Roboto" font-size="10.00">Urho3D::Vector3</text>
</a>
</g>
</g>
<!-- Node74&#45;&gt;Node1 -->
<g id="edge37" class="edge">
<title>Node74&#45;&gt;Node1</title>
<path fill="none" stroke="#9a32cd" stroke-dasharray="5,2" d="M786.08,-493.81C910.88,-499.35 1215.22,-512.86 1355.71,-519.1"/>
<polygon fill="#9a32cd" stroke="#9a32cd" points="786.58,-490.32 776.44,-493.38 786.27,-497.32 786.58,-490.32"/>
<text text-anchor="middle" x="1159.5" y="-515.36" font-family="Roboto" font-size="10.00"> targetPosition_</text>
</g>
<!-- Node74&#45;&gt;Node42 -->
<g id="edge28" class="edge">
<title>Node74&#45;&gt;Node42</title>
<path fill="none" stroke="#9a32cd" stroke-dasharray="5,2" d="M785.7,-487.87C840.2,-482.07 924.15,-466.59 984,-425.36 1016.2,-403.17 1039.51,-361.21 1048.91,-342.18"/>
<polygon fill="#9a32cd" stroke="#9a32cd" points="785.66,-484.36 776.05,-488.82 786.34,-491.33 785.66,-484.36"/>
<text text-anchor="middle" x="910.5" y="-494.36" font-family="Roboto" font-size="10.00"> position_</text>
<text text-anchor="middle" x="910.5" y="-483.36" font-family="Roboto" font-size="10.00">scale_</text>
</g>
<!-- Node74&#45;&gt;Node74 -->
<g id="edge29" class="edge">
<title>Node74&#45;&gt;Node74</title>
<path fill="none" stroke="#9a32cd" stroke-dasharray="5,2" d="M697.63,-511.96C701.36,-515.99 712.15,-518.86 730,-518.86 761.73,-518.86 771.15,-509.8 758.26,-501.23"/>
<polygon fill="#9a32cd" stroke="#9a32cd" points="700.89,-513.23 701.2,-502.64 694.36,-510.73 700.89,-513.23"/>
<text text-anchor="middle" x="730" y="-598.86" font-family="Roboto" font-size="10.00"> BACK</text>
<text text-anchor="middle" x="730" y="-587.86" font-family="Roboto" font-size="10.00">DOWN</text>
<text text-anchor="middle" x="730" y="-576.86" font-family="Roboto" font-size="10.00">FORWARD</text>
<text text-anchor="middle" x="730" y="-565.86" font-family="Roboto" font-size="10.00">LEFT</text>
<text text-anchor="middle" x="730" y="-554.86" font-family="Roboto" font-size="10.00">ONE</text>
<text text-anchor="middle" x="730" y="-543.86" font-family="Roboto" font-size="10.00">RIGHT</text>
<text text-anchor="middle" x="730" y="-532.86" font-family="Roboto" font-size="10.00">UP</text>
<text text-anchor="middle" x="730" y="-521.86" font-family="Roboto" font-size="10.00">ZERO</text>
</g>
<!-- Node75 -->
<g id="node21" class="node">
<title>Node75</title>
<g id="a_node21"><a xlink:href="class_urho3_d_1_1_quaternion.html" target="_top" xlink:title="Rotation represented as a four&#45;dimensional normalized vector.">
<polygon fill="white" stroke="#666666" points="781.5,-643.86 678.5,-643.86 678.5,-624.86 781.5,-624.86 781.5,-643.86"/>
<text text-anchor="middle" x="730" y="-631.86" font-family="Roboto" font-size="10.00">Urho3D::Quaternion</text>
</a>
</g>
</g>
<!-- Node75&#45;&gt;Node1 -->
<g id="edge38" class="edge">
<title>Node75&#45;&gt;Node1</title>
<path fill="none" stroke="#9a32cd" stroke-dasharray="5,2" d="M792.81,-629.89C844.15,-625.79 919.04,-618.9 984,-609.36 1132.18,-587.6 1305.88,-550.13 1385.34,-532.32"/>
<polygon fill="#9a32cd" stroke="#9a32cd" points="792.78,-626.39 783.08,-630.66 793.33,-633.36 792.78,-626.39"/>
<text text-anchor="middle" x="1159.5" y="-588.36" font-family="Roboto" font-size="10.00"> targetRotation_</text>
</g>
<!-- Node75&#45;&gt;Node42 -->
<g id="edge30" class="edge">
<title>Node75&#45;&gt;Node42</title>
<path fill="none" stroke="#9a32cd" stroke-dasharray="5,2" d="M792.76,-628.42C802.09,-625.68 811.18,-621.81 819,-616.36 831.45,-607.69 826,-597.8 837,-587.36 891.1,-536 934.61,-562.26 984,-506.36 1029.23,-455.16 1047.02,-370.87 1051.96,-342.24"/>
<polygon fill="#9a32cd" stroke="#9a32cd" points="792.11,-624.97 783.25,-630.77 793.8,-631.77 792.11,-624.97"/>
<text text-anchor="middle" x="910.5" y="-601.36" font-family="Roboto" font-size="10.00"> rotation_</text>
<text text-anchor="middle" x="910.5" y="-590.36" font-family="Roboto" font-size="10.00">worldRotation_</text>
</g>
<!-- Node75&#45;&gt;Node75 -->
<g id="edge31" class="edge">
<title>Node75&#45;&gt;Node75</title>
<path fill="none" stroke="#9a32cd" stroke-dasharray="5,2" d="M697.63,-654.96C701.36,-658.99 712.15,-661.86 730,-661.86 761.73,-661.86 771.15,-652.8 758.26,-644.23"/>
<polygon fill="#9a32cd" stroke="#9a32cd" points="700.89,-656.23 701.2,-645.64 694.36,-653.73 700.89,-656.23"/>
<text text-anchor="middle" x="730" y="-664.86" font-family="Roboto" font-size="10.00"> IDENTITY</text>
</g>
<!-- Node76 -->
<g id="node22" class="node">
<title>Node76</title>
<g id="a_node22"><a xlink:href="class_urho3_d_1_1_vector.html" target="_top" xlink:title=" ">
<polygon fill="white" stroke="orangered" points="819,-426.36 641,-426.36 641,-396.36 819,-396.36 819,-426.36"/>
<text text-anchor="start" x="649" y="-414.36" font-family="Roboto" font-size="10.00">Urho3D::Vector&lt; Urho3D</text>
<text text-anchor="middle" x="730" y="-403.36" font-family="Roboto" font-size="10.00">::SharedPtr&lt; Urho3D::Component &gt; &gt;</text>
</a>
</g>
</g>
<!-- Node76&#45;&gt;Node42 -->
<g id="edge32" class="edge">
<title>Node76&#45;&gt;Node42</title>
<path fill="none" stroke="#9a32cd" stroke-dasharray="5,2" d="M814.26,-393.67C821.94,-392.16 829.61,-390.7 837,-389.36 902.06,-377.53 920.93,-386.22 984,-366.36 1002.96,-360.39 1023.23,-349.96 1036.95,-342.22"/>
<polygon fill="#9a32cd" stroke="#9a32cd" points="813.64,-390.23 804.52,-395.61 815.01,-397.09 813.64,-390.23"/>
<text text-anchor="middle" x="910.5" y="-392.36" font-family="Roboto" font-size="10.00"> components_</text>
</g>
<!-- Node77 -->
<g id="node23" class="node">
<title>Node77</title>
<g id="a_node23"><a xlink:href="class_urho3_d_1_1_vector.html" target="_top" xlink:title=" ">
<polygon fill="white" stroke="orangered" points="805.5,-378.36 654.5,-378.36 654.5,-348.36 805.5,-348.36 805.5,-378.36"/>
<text text-anchor="start" x="662.5" y="-366.36" font-family="Roboto" font-size="10.00">Urho3D::Vector&lt; Urho3D</text>
<text text-anchor="middle" x="730" y="-355.36" font-family="Roboto" font-size="10.00">::SharedPtr&lt; Urho3D::Node &gt; &gt;</text>
</a>
</g>
</g>
<!-- Node77&#45;&gt;Node42 -->
<g id="edge33" class="edge">
<title>Node77&#45;&gt;Node42</title>
<path fill="none" stroke="#9a32cd" stroke-dasharray="5,2" d="M817.11,-355.08C881.2,-348.92 965.68,-340.8 1014.36,-336.12"/>
<polygon fill="#9a32cd" stroke="#9a32cd" points="816.92,-351.58 807.31,-356.02 817.59,-358.55 816.92,-351.58"/>
<text text-anchor="middle" x="910.5" y="-356.36" font-family="Roboto" font-size="10.00"> children_</text>
</g>
<!-- Node78 -->
<g id="node24" class="node">
<title>Node78</title>
<g id="a_node24"><a xlink:href="class_urho3_d_1_1_vector.html" target="_top" xlink:title=" ">
<polygon fill="white" stroke="orangered" points="816,-252.36 644,-252.36 644,-222.36 816,-222.36 816,-252.36"/>
<text text-anchor="start" x="652" y="-240.36" font-family="Roboto" font-size="10.00">Urho3D::Vector&lt; Urho3D</text>
<text text-anchor="middle" x="730" y="-229.36" font-family="Roboto" font-size="10.00">::WeakPtr&lt; Urho3D::Component &gt; &gt;</text>
</a>
</g>
</g>
<!-- Node78&#45;&gt;Node42 -->
<g id="edge34" class="edge">
<title>Node78&#45;&gt;Node42</title>
<path fill="none" stroke="#9a32cd" stroke-dasharray="5,2" d="M827.85,-245.69C876.15,-252.23 934.64,-263.84 984,-284.36 1006.75,-293.82 1029.57,-311.53 1042.57,-322.6"/>
<polygon fill="#9a32cd" stroke="#9a32cd" points="828.3,-242.22 817.94,-244.41 827.41,-249.16 828.3,-242.22"/>
<text text-anchor="middle" x="910.5" y="-287.36" font-family="Roboto" font-size="10.00"> listeners_</text>
</g>
<!-- Node79 -->
<g id="node25" class="node">
<title>Node79</title>
<g id="a_node25"><a xlink:href="class_urho3_d_1_1_unique_ptr.html" target="_top" xlink:title=" ">
<polygon fill="white" stroke="orangered" points="784.5,-204.36 675.5,-204.36 675.5,-174.36 784.5,-174.36 784.5,-204.36"/>
<text text-anchor="start" x="683.5" y="-192.36" font-family="Roboto" font-size="10.00">Urho3D::UniquePtr&lt;</text>
<text text-anchor="middle" x="730" y="-181.36" font-family="Roboto" font-size="10.00"> Urho3D::NodeImpl &gt;</text>
</a>
</g>
</g>
<!-- Node79&#45;&gt;Node42 -->
<g id="edge35" class="edge">
<title>Node79&#45;&gt;Node42</title>
<path fill="none" stroke="#9a32cd" stroke-dasharray="5,2" d="M796.13,-198.05C865.75,-207.75 968.31,-223.4 984,-233.36 1018.93,-255.53 1041.26,-302.2 1049.69,-322.54"/>
<polygon fill="#9a32cd" stroke="#9a32cd" points="796.71,-194.6 786.33,-196.69 795.75,-201.53 796.71,-194.6"/>
<text text-anchor="middle" x="910.5" y="-236.36" font-family="Roboto" font-size="10.00"> impl_</text>
</g>
</g>
</svg>
