<?xml version="1.0" encoding="UTF-8" standalone="no"?>
<!DOCTYPE svg PUBLIC "-//W3C//DTD SVG 1.1//EN"
 "http://www.w3.org/Graphics/SVG/1.1/DTD/svg11.dtd">
<!-- Generated by graphviz version 7.0.3 (0)
 -->
<!-- Title: Urho3D::UIElement::SetIndent Pages: 1 -->
<svg width="1342pt" height="296pt"
 viewBox="0.00 0.00 1342.00 295.50" xmlns="http://www.w3.org/2000/svg" xmlns:xlink="http://www.w3.org/1999/xlink">
<g id="graph0" class="graph" transform="scale(1 1) rotate(0) translate(4 291.5)">
<title>Urho3D::UIElement::SetIndent</title>
<!-- Node1 -->
<g id="node1" class="node">
<title>Node1</title>
<g id="a_node1"><a xlink:title=" ">
<polygon fill="#999999" stroke="#666666" points="1334,-45.5 1229,-45.5 1229,-15.5 1334,-15.5 1334,-45.5"/>
<text text-anchor="start" x="1237" y="-33.5" font-family="Roboto" font-size="10.00">Urho3D::UIElement::</text>
<text text-anchor="middle" x="1281.5" y="-22.5" font-family="Roboto" font-size="10.00">SetIndent</text>
</a>
</g>
</g>
<!-- Node2 -->
<g id="node2" class="node">
<title>Node2</title>
<g id="a_node2"><a xlink:href="class_urho3_d_1_1_list_view.html#aeb784361fd2f048e99d554b6c4375e07" target="_top" xlink:title="Insert item at a specific index. In hierarchy mode, the optional parameter will be used to determine ...">
<polygon fill="white" stroke="#666666" points="1193,-40 1051,-40 1051,-21 1193,-21 1193,-40"/>
<text text-anchor="middle" x="1122" y="-28" font-family="Roboto" font-size="10.00">Urho3D::ListView::InsertItem</text>
</a>
</g>
</g>
<!-- Node1&#45;&gt;Node2 -->
<g id="edge1" class="edge">
<title>Node1&#45;&gt;Node2</title>
<path fill="none" stroke="#63b8ff" d="M1217.47,-30.5C1209.52,-30.5 1201.34,-30.5 1193.28,-30.5"/>
<polygon fill="#63b8ff" stroke="#63b8ff" points="1217.42,-34 1227.42,-30.5 1217.42,-27 1217.42,-34"/>
</g>
<!-- Node3 -->
<g id="node3" class="node">
<title>Node3</title>
<g id="a_node3"><a xlink:href="class_urho3_d_1_1_list_view.html#aa7328480b37cc673aa9ccea8653e2c67" target="_top" xlink:title="Add item to the end of the list.">
<polygon fill="white" stroke="#666666" points="985.5,-62 850.5,-62 850.5,-43 985.5,-43 985.5,-62"/>
<text text-anchor="middle" x="918" y="-50" font-family="Roboto" font-size="10.00">Urho3D::ListView::AddItem</text>
</a>
</g>
</g>
<!-- Node2&#45;&gt;Node3 -->
<g id="edge2" class="edge">
<title>Node2&#45;&gt;Node3</title>
<path fill="none" stroke="#63b8ff" d="M1039.37,-39.39C1021.54,-41.33 1002.88,-43.36 985.72,-45.23"/>
<polygon fill="#63b8ff" stroke="#63b8ff" points="1039.57,-42.89 1049.13,-38.33 1038.81,-35.93 1039.57,-42.89"/>
</g>
<!-- Node15 -->
<g id="node15" class="node">
<title>Node15</title>
<g id="a_node15"><a xlink:href="class_urho3_d_1_1_console.html#a18546b712ec118a256122c627696662e" target="_top" xlink:title=" ">
<polygon fill="white" stroke="#666666" points="1015,-22 821,-22 821,-3 1015,-3 1015,-22"/>
<text text-anchor="middle" x="918" y="-10" font-family="Roboto" font-size="10.00">Urho3D::Console::SetNumBufferedRows</text>
</a>
</g>
</g>
<!-- Node2&#45;&gt;Node15 -->
<g id="edge19" class="edge">
<title>Node2&#45;&gt;Node15</title>
<path fill="none" stroke="#63b8ff" d="M1039.26,-23.22C1031.41,-22.52 1023.39,-21.8 1015.41,-21.09"/>
<polygon fill="#63b8ff" stroke="#63b8ff" points="1038.85,-26.69 1049.13,-24.1 1039.48,-19.72 1038.85,-26.69"/>
</g>
<!-- Node4 -->
<g id="node4" class="node">
<title>Node4</title>
<g id="a_node4"><a xlink:href="class_urho3_d_1_1_console.html#a21804113c047d876e9358aaa9daabf67" target="_top" xlink:title="Handle the application post&#45;update.">
<polygon fill="white" stroke="#666666" points="780.5,-67.5 632.5,-67.5 632.5,-37.5 780.5,-37.5 780.5,-67.5"/>
<text text-anchor="start" x="640.5" y="-55.5" font-family="Roboto" font-size="10.00">Urho3D::Console::HandlePost</text>
<text text-anchor="middle" x="706.5" y="-44.5" font-family="Roboto" font-size="10.00">Update</text>
</a>
</g>
</g>
<!-- Node3&#45;&gt;Node4 -->
<g id="edge3" class="edge">
<title>Node3&#45;&gt;Node4</title>
<path fill="none" stroke="#63b8ff" d="M838.84,-52.5C819.89,-52.5 799.71,-52.5 780.98,-52.5"/>
<polygon fill="#63b8ff" stroke="#63b8ff" points="838.62,-56 848.62,-52.5 838.62,-49 838.62,-56"/>
</g>
<!-- Node6 -->
<g id="node6" class="node">
<title>Node6</title>
<g id="a_node6"><a xlink:href="class_urho3_d_1_1_file_selector.html#a8ec8d229ef0e2a4836634e01e96803a7" target="_top" xlink:title="Refresh the directory listing.">
<polygon fill="white" stroke="#666666" points="760,-115.5 653,-115.5 653,-85.5 760,-85.5 760,-115.5"/>
<text text-anchor="start" x="661" y="-103.5" font-family="Roboto" font-size="10.00">Urho3D::FileSelector</text>
<text text-anchor="middle" x="706.5" y="-92.5" font-family="Roboto" font-size="10.00">::RefreshFiles</text>
</a>
</g>
</g>
<!-- Node3&#45;&gt;Node6 -->
<g id="edge5" class="edge">
<title>Node3&#45;&gt;Node6</title>
<path fill="none" stroke="#63b8ff" d="M862.77,-64.92C831.16,-72.17 791.47,-81.26 760.13,-88.44"/>
<polygon fill="#63b8ff" stroke="#63b8ff" points="863.15,-68.43 872.12,-62.78 861.59,-61.61 863.15,-68.43"/>
</g>
<!-- Node5 -->
<g id="node5" class="node">
<title>Node5</title>
<g id="a_node5"><a xlink:href="class_urho3_d_1_1_console.html#afa65f6eacc596b544de5b0c3bc1a3d55" target="_top" xlink:title="Construct.">
<polygon fill="white" stroke="#666666" points="592,-24 459,-24 459,-5 592,-5 592,-24"/>
<text text-anchor="middle" x="525.5" y="-12" font-family="Roboto" font-size="10.00">Urho3D::Console::Console</text>
</a>
</g>
</g>
<!-- Node4&#45;&gt;Node5 -->
<g id="edge4" class="edge">
<title>Node4&#45;&gt;Node5</title>
<path fill="none" stroke="#63b8ff" d="M621.86,-34.74C605.27,-31.22 588.42,-27.65 573.59,-24.5"/>
<polygon fill="#63b8ff" stroke="#63b8ff" points="620.7,-38.08 631.21,-36.73 622.16,-31.23 620.7,-38.08"/>
</g>
<!-- Node7 -->
<g id="node7" class="node">
<title>Node7</title>
<g id="a_node7"><a xlink:href="class_urho3_d_1_1_file_selector.html#a372b507fb35782c00d99ded29d4610f0" target="_top" xlink:title="Handle filter changed.">
<polygon fill="white" stroke="#666666" points="423,-115.5 310,-115.5 310,-85.5 423,-85.5 423,-115.5"/>
<text text-anchor="start" x="318" y="-103.5" font-family="Roboto" font-size="10.00">Urho3D::FileSelector</text>
<text text-anchor="middle" x="366.5" y="-92.5" font-family="Roboto" font-size="10.00">::HandleFilterChanged</text>
</a>
</g>
</g>
<!-- Node6&#45;&gt;Node7 -->
<g id="edge6" class="edge">
<title>Node6&#45;&gt;Node7</title>
<path fill="none" stroke="#63b8ff" d="M641.32,-100.5C578.33,-100.5 483.25,-100.5 423.31,-100.5"/>
<polygon fill="#63b8ff" stroke="#63b8ff" points="641.17,-104 651.17,-100.5 641.17,-97 641.17,-104"/>
</g>
<!-- Node9 -->
<g id="node9" class="node">
<title>Node9</title>
<g id="a_node9"><a xlink:href="class_urho3_d_1_1_file_selector.html#a8f0352bf675048a625d1b8e5ae2ce8ea" target="_top" xlink:title="Set filters.">
<polygon fill="white" stroke="#666666" points="262,-74.5 155,-74.5 155,-44.5 262,-44.5 262,-74.5"/>
<text text-anchor="start" x="163" y="-62.5" font-family="Roboto" font-size="10.00">Urho3D::FileSelector</text>
<text text-anchor="middle" x="208.5" y="-51.5" font-family="Roboto" font-size="10.00">::SetFilters</text>
</a>
</g>
</g>
<!-- Node6&#45;&gt;Node9 -->
<g id="edge8" class="edge">
<title>Node6&#45;&gt;Node9</title>
<path fill="none" stroke="#63b8ff" d="M641.25,-94.94C584,-90.02 497.92,-82.67 423,-76.5 368.15,-71.99 305.37,-67.01 262.15,-63.61"/>
<polygon fill="#63b8ff" stroke="#63b8ff" points="640.89,-98.43 651.15,-95.8 641.49,-91.45 640.89,-98.43"/>
</g>
<!-- Node10 -->
<g id="node10" class="node">
<title>Node10</title>
<g id="a_node10"><a xlink:href="class_urho3_d_1_1_file_selector.html#a70224d0b3a485fd4aab57cc6b9af1c6f" target="_top" xlink:title=" ">
<polygon fill="white" stroke="#666666" points="579,-179.5 472,-179.5 472,-149.5 579,-149.5 579,-179.5"/>
<text text-anchor="start" x="480" y="-167.5" font-family="Roboto" font-size="10.00">Urho3D::FileSelector</text>
<text text-anchor="middle" x="525.5" y="-156.5" font-family="Roboto" font-size="10.00">::SetPath</text>
</a>
</g>
</g>
<!-- Node6&#45;&gt;Node10 -->
<g id="edge10" class="edge">
<title>Node6&#45;&gt;Node10</title>
<path fill="none" stroke="#63b8ff" d="M651.65,-119.76C625.44,-129.12 594.37,-140.23 569.74,-149.04"/>
<polygon fill="#63b8ff" stroke="#63b8ff" points="652.51,-123.16 660.74,-116.5 650.15,-116.57 652.51,-123.16"/>
</g>
<!-- Node8 -->
<g id="node8" class="node">
<title>Node8</title>
<g id="a_node8"><a xlink:href="class_urho3_d_1_1_file_selector.html#ae0e66de218b839be46c7f802abf04c80" target="_top" xlink:title="Construct.">
<polygon fill="white" stroke="#666666" points="107,-177.5 0,-177.5 0,-147.5 107,-147.5 107,-177.5"/>
<text text-anchor="start" x="8" y="-165.5" font-family="Roboto" font-size="10.00">Urho3D::FileSelector</text>
<text text-anchor="middle" x="53.5" y="-154.5" font-family="Roboto" font-size="10.00">::FileSelector</text>
</a>
</g>
</g>
<!-- Node7&#45;&gt;Node8 -->
<g id="edge7" class="edge">
<title>Node7&#45;&gt;Node8</title>
<path fill="none" stroke="#63b8ff" d="M298.25,-105.26C253.73,-109.39 194.3,-116.77 143,-129.5 125.17,-133.92 106.01,-140.79 90.08,-147.12"/>
<polygon fill="#63b8ff" stroke="#63b8ff" points="298.37,-108.76 308.02,-104.39 297.75,-101.79 298.37,-108.76"/>
</g>
<!-- Node9&#45;&gt;Node8 -->
<g id="edge9" class="edge">
<title>Node9&#45;&gt;Node8</title>
<path fill="none" stroke="#63b8ff" d="M161.59,-79.91C155.22,-83.22 148.85,-86.79 143,-90.5 116.07,-107.59 88.01,-131.66 70.89,-147.17"/>
<polygon fill="#63b8ff" stroke="#63b8ff" points="162.81,-83.22 170.19,-75.62 159.68,-76.95 162.81,-83.22"/>
</g>
<!-- Node10&#45;&gt;Node8 -->
<g id="edge16" class="edge">
<title>Node10&#45;&gt;Node8</title>
<path fill="none" stroke="#63b8ff" d="M460.35,-163.04C447.96,-162.82 435.08,-162.62 423,-162.5 310.57,-161.39 178.83,-161.81 107.29,-162.17"/>
<polygon fill="#63b8ff" stroke="#63b8ff" points="459.98,-166.54 470.05,-163.23 460.12,-159.54 459.98,-166.54"/>
</g>
<!-- Node11 -->
<g id="node11" class="node">
<title>Node11</title>
<g id="a_node11"><a xlink:href="class_urho3_d_1_1_file_selector.html#ac7c4c01759f09d23dd856c71a2cc1655" target="_top" xlink:title="Enter a directory or confirm a file. Return true if a directory entered.">
<polygon fill="white" stroke="#666666" points="420,-249.5 313,-249.5 313,-219.5 420,-219.5 420,-249.5"/>
<text text-anchor="start" x="321" y="-237.5" font-family="Roboto" font-size="10.00">Urho3D::FileSelector</text>
<text text-anchor="middle" x="366.5" y="-226.5" font-family="Roboto" font-size="10.00">::EnterFile</text>
</a>
</g>
</g>
<!-- Node10&#45;&gt;Node11 -->
<g id="edge11" class="edge">
<title>Node10&#45;&gt;Node11</title>
<path fill="none" stroke="#63b8ff" d="M480.36,-184.71C462.57,-192.8 441.84,-202.16 423,-210.5 416.66,-213.31 409.91,-216.26 403.37,-219.1"/>
<polygon fill="#63b8ff" stroke="#63b8ff" points="481.71,-187.94 489.36,-180.61 478.8,-181.57 481.71,-187.94"/>
</g>
<!-- Node14 -->
<g id="node14" class="node">
<title>Node14</title>
<g id="a_node14"><a xlink:href="class_urho3_d_1_1_file_selector.html#ac07a78273e7db4a6d4ab33d807c072f7" target="_top" xlink:title="Handle path edited.">
<polygon fill="white" stroke="#666666" points="422,-201.5 311,-201.5 311,-171.5 422,-171.5 422,-201.5"/>
<text text-anchor="start" x="319" y="-189.5" font-family="Roboto" font-size="10.00">Urho3D::FileSelector</text>
<text text-anchor="middle" x="366.5" y="-178.5" font-family="Roboto" font-size="10.00">::HandlePathChanged</text>
</a>
</g>
</g>
<!-- Node10&#45;&gt;Node14 -->
<g id="edge17" class="edge">
<title>Node10&#45;&gt;Node14</title>
<path fill="none" stroke="#63b8ff" d="M460.41,-173.48C447.83,-175.24 434.74,-177.08 422.49,-178.79"/>
<polygon fill="#63b8ff" stroke="#63b8ff" points="460.87,-176.95 470.29,-172.1 459.9,-170.02 460.87,-176.95"/>
</g>
<!-- Node12 -->
<g id="node12" class="node">
<title>Node12</title>
<g id="a_node12"><a xlink:href="class_urho3_d_1_1_file_selector.html#a004ed41fadc3029706a35857268bfdaf" target="_top" xlink:title="Handle file doubleclicked from the list (enter directory / OK the file selection).">
<polygon fill="white" stroke="#666666" points="274,-287.5 143,-287.5 143,-257.5 274,-257.5 274,-287.5"/>
<text text-anchor="start" x="151" y="-275.5" font-family="Roboto" font-size="10.00">Urho3D::FileSelector</text>
<text text-anchor="middle" x="208.5" y="-264.5" font-family="Roboto" font-size="10.00">::HandleFileDoubleClicked</text>
</a>
</g>
</g>
<!-- Node11&#45;&gt;Node12 -->
<g id="edge12" class="edge">
<title>Node11&#45;&gt;Node12</title>
<path fill="none" stroke="#63b8ff" d="M301.74,-250.03C292.28,-252.34 282.52,-254.71 273.06,-257.02"/>
<polygon fill="#63b8ff" stroke="#63b8ff" points="302.33,-253.49 311.21,-247.72 300.67,-246.69 302.33,-253.49"/>
</g>
<!-- Node13 -->
<g id="node13" class="node">
<title>Node13</title>
<g id="a_node13"><a xlink:href="class_urho3_d_1_1_file_selector.html#a5315d211e3108ad4012c648d1cbd3b6a" target="_top" xlink:title="Handle file list key pressed.">
<polygon fill="white" stroke="#666666" points="262,-239.5 155,-239.5 155,-209.5 262,-209.5 262,-239.5"/>
<text text-anchor="start" x="163" y="-227.5" font-family="Roboto" font-size="10.00">Urho3D::FileSelector</text>
<text text-anchor="middle" x="208.5" y="-216.5" font-family="Roboto" font-size="10.00">::HandleFileListKey</text>
</a>
</g>
</g>
<!-- Node11&#45;&gt;Node13 -->
<g id="edge14" class="edge">
<title>Node11&#45;&gt;Node13</title>
<path fill="none" stroke="#63b8ff" d="M301.42,-230.39C288.39,-229.56 274.84,-228.69 262.26,-227.88"/>
<polygon fill="#63b8ff" stroke="#63b8ff" points="300.97,-233.87 311.18,-231.02 301.42,-226.88 300.97,-233.87"/>
</g>
<!-- Node12&#45;&gt;Node8 -->
<g id="edge13" class="edge">
<title>Node12&#45;&gt;Node8</title>
<path fill="none" stroke="#63b8ff" d="M149.12,-252.09C147.02,-250.94 144.97,-249.75 143,-248.5 111.85,-228.81 82.61,-196.76 66.77,-177.84"/>
<polygon fill="#63b8ff" stroke="#63b8ff" points="147.36,-255.12 157.87,-256.42 150.46,-248.85 147.36,-255.12"/>
</g>
<!-- Node13&#45;&gt;Node8 -->
<g id="edge15" class="edge">
<title>Node13&#45;&gt;Node8</title>
<path fill="none" stroke="#63b8ff" d="M158.75,-204.75C137.32,-196.06 112.52,-186.01 92.49,-177.9"/>
<polygon fill="#63b8ff" stroke="#63b8ff" points="157.3,-207.93 167.88,-208.45 159.93,-201.45 157.3,-207.93"/>
</g>
<!-- Node14&#45;&gt;Node8 -->
<g id="edge18" class="edge">
<title>Node14&#45;&gt;Node8</title>
<path fill="none" stroke="#63b8ff" d="M299.14,-181.38C241.86,-176.96 160.21,-170.66 107.28,-166.57"/>
<polygon fill="#63b8ff" stroke="#63b8ff" points="298.87,-184.87 309.11,-182.15 299.41,-177.89 298.87,-184.87"/>
</g>
<!-- Node16 -->
<g id="node16" class="node">
<title>Node16</title>
<g id="a_node16"><a xlink:href="class_urho3_d_1_1_console.html#a6b523b3fbdff6cc3da360dc128be09fd" target="_top" xlink:title=" ">
<polygon fill="white" stroke="#666666" points="785,-19 628,-19 628,0 785,0 785,-19"/>
<text text-anchor="middle" x="706.5" y="-7" font-family="Roboto" font-size="10.00">Urho3D::Console::SetNumRows</text>
</a>
</g>
</g>
<!-- Node15&#45;&gt;Node16 -->
<g id="edge20" class="edge">
<title>Node15&#45;&gt;Node16</title>
<path fill="none" stroke="#63b8ff" d="M809.15,-10.96C801.1,-10.84 793.08,-10.73 785.27,-10.61"/>
<polygon fill="#63b8ff" stroke="#63b8ff" points="808.97,-14.45 819.01,-11.1 809.07,-7.45 808.97,-14.45"/>
</g>
<!-- Node16&#45;&gt;Node5 -->
<g id="edge21" class="edge">
<title>Node16&#45;&gt;Node5</title>
<path fill="none" stroke="#63b8ff" d="M616.23,-11.99C608.23,-12.22 600.23,-12.44 592.48,-12.66"/>
<polygon fill="#63b8ff" stroke="#63b8ff" points="616.1,-15.5 626,-11.72 615.9,-8.5 616.1,-15.5"/>
</g>
</g>
</svg>
