<?xml version="1.0" encoding="UTF-8" standalone="no"?>
<!DOCTYPE svg PUBLIC "-//W3C//DTD SVG 1.1//EN"
 "http://www.w3.org/Graphics/SVG/1.1/DTD/svg11.dtd">
<!-- Generated by graphviz version 7.0.3 (0)
 -->
<!-- Title: Urho3D::StaticModel::SetModel Pages: 1 -->
<svg width="445pt" height="86pt"
 viewBox="0.00 0.00 445.00 86.00" xmlns="http://www.w3.org/2000/svg" xmlns:xlink="http://www.w3.org/1999/xlink">
<g id="graph0" class="graph" transform="scale(1 1) rotate(0) translate(4 82)">
<title>Urho3D::StaticModel::SetModel</title>
<!-- Node1 -->
<g id="node1" class="node">
<title>Node1</title>
<g id="a_node1"><a xlink:title=" ">
<polygon fill="#999999" stroke="#666666" points="437,-78 329,-78 329,-48 437,-48 437,-78"/>
<text text-anchor="start" x="337" y="-66" font-family="Roboto" font-size="10.00">Urho3D::StaticModel</text>
<text text-anchor="middle" x="383" y="-55" font-family="Roboto" font-size="10.00">::SetModel</text>
</a>
</g>
</g>
<!-- Node2 -->
<g id="node2" class="node">
<title>Node2</title>
<g id="a_node2"><a xlink:href="class_urho3_d_1_1_static_model.html#a4f3c5397ad06d8632620d12314867e8d" target="_top" xlink:title="Handle model reload finished.">
<polygon fill="white" stroke="#666666" points="293,-78 144,-78 144,-48 293,-48 293,-78"/>
<text text-anchor="start" x="152" y="-66" font-family="Roboto" font-size="10.00">Urho3D::StaticModel</text>
<text text-anchor="middle" x="218.5" y="-55" font-family="Roboto" font-size="10.00">::HandleModelReloadFinished</text>
</a>
</g>
</g>
<!-- Node1&#45;&gt;Node2 -->
<g id="edge1" class="edge">
<title>Node1&#45;&gt;Node2</title>
<path fill="none" stroke="#63b8ff" d="M317.45,-56.38C309.57,-56.26 301.48,-56.22 293.48,-56.27"/>
<polygon fill="#63b8ff" stroke="#63b8ff" points="317.21,-59.87 327.28,-56.59 317.36,-52.88 317.21,-59.87"/>
</g>
<!-- Node3 -->
<g id="node3" class="node">
<title>Node3</title>
<g id="a_node3"><a xlink:href="class_urho3_d_1_1_static_model.html#ad0b8df3ed239e295894411942ef4af2c" target="_top" xlink:title="Set model attribute.">
<polygon fill="white" stroke="#666666" points="272.5,-30 164.5,-30 164.5,0 272.5,0 272.5,-30"/>
<text text-anchor="start" x="172.5" y="-18" font-family="Roboto" font-size="10.00">Urho3D::StaticModel</text>
<text text-anchor="middle" x="218.5" y="-7" font-family="Roboto" font-size="10.00">::SetModelAttr</text>
</a>
</g>
</g>
<!-- Node1&#45;&gt;Node3 -->
<g id="edge3" class="edge">
<title>Node1&#45;&gt;Node3</title>
<path fill="none" stroke="#63b8ff" d="M319.04,-44.4C303.39,-39.78 286.78,-34.87 271.71,-30.42"/>
<polygon fill="#63b8ff" stroke="#63b8ff" points="317.66,-47.64 328.24,-47.12 319.64,-40.93 317.66,-47.64"/>
</g>
<!-- Node2&#45;&gt;Node1 -->
<g id="edge2" class="edge">
<title>Node2&#45;&gt;Node1</title>
<path fill="none" stroke="#63b8ff" d="M304.95,-69.74C313.06,-69.71 321.12,-69.59 328.79,-69.38"/>
<polygon fill="#63b8ff" stroke="#63b8ff" points="304.99,-66.24 294.99,-69.73 304.98,-73.24 304.99,-66.24"/>
</g>
<!-- Node4 -->
<g id="node4" class="node">
<title>Node4</title>
<g id="a_node4"><a xlink:href="class_urho3_d_1_1_static_model.html#aac7bd4f30d276bad34d0afd36dec5f6f" target="_top" xlink:title=" ">
<polygon fill="white" stroke="#666666" points="108,-30 0,-30 0,0 108,0 108,-30"/>
<text text-anchor="start" x="8" y="-18" font-family="Roboto" font-size="10.00">Urho3D::StaticModel</text>
<text text-anchor="middle" x="54" y="-7" font-family="Roboto" font-size="10.00">::RegisterObject</text>
</a>
</g>
</g>
<!-- Node3&#45;&gt;Node4 -->
<g id="edge4" class="edge">
<title>Node3&#45;&gt;Node4</title>
<path fill="none" stroke="#63b8ff" d="M153.13,-15C138.28,-15 122.65,-15 108.33,-15"/>
<polygon fill="#63b8ff" stroke="#63b8ff" points="152.78,-18.5 162.78,-15 152.78,-11.5 152.78,-18.5"/>
</g>
</g>
</svg>
