<?xml version="1.0" encoding="UTF-8" standalone="no"?>
<!DOCTYPE svg PUBLIC "-//W3C//DTD SVG 1.1//EN"
 "http://www.w3.org/Graphics/SVG/1.1/DTD/svg11.dtd">
<!-- Generated by graphviz version 7.0.3 (0)
 -->
<!-- Title: Urho3D::Drawable::SetZoneMask Pages: 1 -->
<svg width="883pt" height="217pt"
 viewBox="0.00 0.00 883.00 216.50" xmlns="http://www.w3.org/2000/svg" xmlns:xlink="http://www.w3.org/1999/xlink">
<g id="graph0" class="graph" transform="scale(1 1) rotate(0) translate(4 212.5)">
<title>Urho3D::Drawable::SetZoneMask</title>
<!-- Node1 -->
<g id="node1" class="node">
<title>Node1</title>
<g id="a_node1"><a xlink:title=" ">
<polygon fill="#999999" stroke="#666666" points="161,-80 0,-80 0,-61 161,-61 161,-80"/>
<text text-anchor="middle" x="80.5" y="-68" font-family="Roboto" font-size="10.00">Urho3D::Drawable::SetZoneMask</text>
</a>
</g>
</g>
<!-- Node2 -->
<g id="node2" class="node">
<title>Node2</title>
<g id="a_node2"><a xlink:href="class_urho3_d_1_1_component.html#aaf87acb64001774c62f0784254f9b291" target="_top" xlink:title="Mark for attribute check on the next network update.">
<polygon fill="white" stroke="#666666" points="325.5,-125.5 214.5,-125.5 214.5,-95.5 325.5,-95.5 325.5,-125.5"/>
<text text-anchor="start" x="222.5" y="-113.5" font-family="Roboto" font-size="10.00">Urho3D::Component::</text>
<text text-anchor="middle" x="270" y="-102.5" font-family="Roboto" font-size="10.00">MarkNetworkUpdate</text>
</a>
</g>
</g>
<!-- Node1&#45;&gt;Node2 -->
<g id="edge1" class="edge">
<title>Node1&#45;&gt;Node2</title>
<path fill="none" stroke="#63b8ff" d="M128.33,-80.49C150.91,-85.31 178.37,-91.17 203.02,-96.42"/>
<polygon fill="#63b8ff" stroke="#63b8ff" points="202.13,-99.81 212.64,-98.48 203.59,-92.97 202.13,-99.81"/>
</g>
<!-- Node8 -->
<g id="node8" class="node">
<title>Node8</title>
<g id="a_node8"><a xlink:href="class_urho3_d_1_1_drawable.html#a04a978441415a93f044721f6473df0e3" target="_top" xlink:title="Handle node transform being dirtied.">
<polygon fill="white" stroke="#666666" points="343,-61.5 197,-61.5 197,-31.5 343,-31.5 343,-61.5"/>
<text text-anchor="start" x="205" y="-49.5" font-family="Roboto" font-size="10.00">Urho3D::Drawable::OnMarked</text>
<text text-anchor="middle" x="270" y="-38.5" font-family="Roboto" font-size="10.00">Dirty</text>
</a>
</g>
</g>
<!-- Node1&#45;&gt;Node8 -->
<g id="edge8" class="edge">
<title>Node1&#45;&gt;Node8</title>
<path fill="none" stroke="#63b8ff" d="M159.39,-60.53C167.99,-59.43 176.78,-58.3 185.45,-57.19"/>
<polygon fill="#63b8ff" stroke="#63b8ff" points="185.78,-60.68 195.26,-55.94 184.89,-53.74 185.78,-60.68"/>
</g>
<!-- Node3 -->
<g id="node3" class="node">
<title>Node3</title>
<g id="a_node3"><a xlink:href="class_urho3_d_1_1_component.html#a2c22f727341671a0420934f249ffe059" target="_top" xlink:title="Return the scene the node belongs to.">
<polygon fill="white" stroke="#666666" points="693.5,-99.5 582.5,-99.5 582.5,-69.5 693.5,-69.5 693.5,-99.5"/>
<text text-anchor="start" x="590.5" y="-87.5" font-family="Roboto" font-size="10.00">Urho3D::Component::</text>
<text text-anchor="middle" x="638" y="-76.5" font-family="Roboto" font-size="10.00">GetScene</text>
</a>
</g>
</g>
<!-- Node2&#45;&gt;Node3 -->
<g id="edge2" class="edge">
<title>Node2&#45;&gt;Node3</title>
<path fill="none" stroke="#63b8ff" d="M325.79,-106.61C391.25,-101.96 500.68,-94.18 570.8,-89.2"/>
<polygon fill="#63b8ff" stroke="#63b8ff" points="570.89,-92.7 580.62,-88.51 570.4,-85.72 570.89,-92.7"/>
</g>
<!-- Node5 -->
<g id="node5" class="node">
<title>Node5</title>
<g id="a_node5"><a xlink:href="class_urho3_d_1_1_component.html#a8f1388c232ca01b7c7328c761aae6e76" target="_top" xlink:title=" ">
<polygon fill="white" stroke="#666666" points="508.5,-208.5 397.5,-208.5 397.5,-178.5 508.5,-178.5 508.5,-208.5"/>
<text text-anchor="start" x="405.5" y="-196.5" font-family="Roboto" font-size="10.00">Urho3D::Component::</text>
<text text-anchor="middle" x="453" y="-185.5" font-family="Roboto" font-size="10.00">IsReplicated</text>
</a>
</g>
</g>
<!-- Node2&#45;&gt;Node5 -->
<g id="edge4" class="edge">
<title>Node2&#45;&gt;Node5</title>
<path fill="none" stroke="#63b8ff" d="M296.09,-125.92C317.57,-138.69 349.59,-156.76 379,-169.5 382.6,-171.06 386.33,-172.58 390.12,-174.04"/>
<polygon fill="#63b8ff" stroke="#63b8ff" points="388.88,-177.31 399.47,-177.5 391.31,-170.75 388.88,-177.31"/>
</g>
<!-- Node7 -->
<g id="node7" class="node">
<title>Node7</title>
<g id="a_node7"><a xlink:href="class_urho3_d_1_1_scene.html#a00b724dfff718639b9de12d71139499c" target="_top" xlink:title="Mark for attribute check on the next network update.">
<polygon fill="white" stroke="#666666" points="527,-142.5 379,-142.5 379,-112.5 527,-112.5 527,-142.5"/>
<text text-anchor="start" x="387" y="-130.5" font-family="Roboto" font-size="10.00">Urho3D::Scene::MarkNetwork</text>
<text text-anchor="middle" x="453" y="-119.5" font-family="Roboto" font-size="10.00">Update</text>
</a>
</g>
</g>
<!-- Node2&#45;&gt;Node7 -->
<g id="edge6" class="edge">
<title>Node2&#45;&gt;Node7</title>
<path fill="none" stroke="#63b8ff" d="M325.8,-115.65C338.93,-116.88 353.26,-118.23 367.4,-119.55"/>
<polygon fill="#63b8ff" stroke="#63b8ff" points="366.88,-123.02 377.17,-120.47 367.54,-116.05 366.88,-123.02"/>
</g>
<!-- Node4 -->
<g id="node4" class="node">
<title>Node4</title>
<g id="a_node4"><a xlink:href="class_urho3_d_1_1_node.html#ad3742cda838a2b291daa44d3ab00de56" target="_top" xlink:title=" ">
<polygon fill="white" stroke="#666666" points="875,-94 749,-94 749,-75 875,-75 875,-94"/>
<text text-anchor="middle" x="812" y="-82" font-family="Roboto" font-size="10.00">Urho3D::Node::GetScene</text>
</a>
</g>
</g>
<!-- Node3&#45;&gt;Node4 -->
<g id="edge3" class="edge">
<title>Node3&#45;&gt;Node4</title>
<path fill="none" stroke="#63b8ff" d="M693.89,-84.5C707.63,-84.5 722.58,-84.5 737.07,-84.5"/>
<polygon fill="#63b8ff" stroke="#63b8ff" points="737.04,-88 747.04,-84.5 737.04,-81 737.04,-88"/>
</g>
<!-- Node6 -->
<g id="node6" class="node">
<title>Node6</title>
<g id="a_node6"><a xlink:href="class_urho3_d_1_1_scene.html#a97fb1222bd2f38e6c1c433c0b7e54d40" target="_top" xlink:title="Return whether the specified id is a replicated id.">
<polygon fill="white" stroke="#666666" points="713,-203 563,-203 563,-184 713,-184 713,-203"/>
<text text-anchor="middle" x="638" y="-191" font-family="Roboto" font-size="10.00">Urho3D::Scene::IsReplicatedID</text>
</a>
</g>
</g>
<!-- Node5&#45;&gt;Node6 -->
<g id="edge5" class="edge">
<title>Node5&#45;&gt;Node6</title>
<path fill="none" stroke="#63b8ff" d="M508.91,-193.5C522.2,-193.5 536.72,-193.5 551.07,-193.5"/>
<polygon fill="#63b8ff" stroke="#63b8ff" points="550.99,-197 560.99,-193.5 550.99,-190 550.99,-197"/>
</g>
<!-- Node7&#45;&gt;Node7 -->
<g id="edge7" class="edge">
<title>Node7&#45;&gt;Node7</title>
<path fill="none" stroke="#63b8ff" d="M420.83,-142.78C413.68,-151.91 424.41,-160.5 453,-160.5 468.64,-160.5 478.93,-157.93 483.88,-154.11"/>
<polygon fill="#63b8ff" stroke="#63b8ff" points="487.34,-154.61 485,-144.28 480.39,-153.82 487.34,-154.61"/>
</g>
<!-- Node9 -->
<g id="node9" class="node">
<title>Node9</title>
<g id="a_node9"><a xlink:href="class_urho3_d_1_1_octant.html#a7c998cf647fa3ba6fc98d05a9a04dc9d" target="_top" xlink:title="Return octree root.">
<polygon fill="white" stroke="#666666" points="515,-19 391,-19 391,0 515,0 515,-19"/>
<text text-anchor="middle" x="453" y="-7" font-family="Roboto" font-size="10.00">Urho3D::Octant::GetRoot</text>
</a>
</g>
</g>
<!-- Node8&#45;&gt;Node9 -->
<g id="edge9" class="edge">
<title>Node8&#45;&gt;Node9</title>
<path fill="none" stroke="#63b8ff" d="M343.32,-31.72C359.48,-28.41 376.45,-24.94 392.05,-21.75"/>
<polygon fill="#63b8ff" stroke="#63b8ff" points="392.56,-25.22 401.65,-19.79 391.15,-18.37 392.56,-25.22"/>
</g>
<!-- Node10 -->
<g id="node10" class="node">
<title>Node10</title>
<g id="a_node10"><a xlink:href="class_urho3_d_1_1_octree.html#a578eb27fbff722b23eecfd03ef0e5571" target="_top" xlink:title="Mark drawable object as requiring an update and a reinsertion.">
<polygon fill="white" stroke="#666666" points="526.5,-56 379.5,-56 379.5,-37 526.5,-37 526.5,-56"/>
<text text-anchor="middle" x="453" y="-44" font-family="Roboto" font-size="10.00">Urho3D::Octree::QueueUpdate</text>
</a>
</g>
</g>
<!-- Node8&#45;&gt;Node10 -->
<g id="edge10" class="edge">
<title>Node8&#45;&gt;Node10</title>
<path fill="none" stroke="#63b8ff" d="M343.32,-46.5C351.35,-46.5 359.58,-46.5 367.74,-46.5"/>
<polygon fill="#63b8ff" stroke="#63b8ff" points="367.69,-50 377.69,-46.5 367.69,-43 367.69,-50"/>
</g>
<!-- Node10&#45;&gt;Node3 -->
<g id="edge11" class="edge">
<title>Node10&#45;&gt;Node3</title>
<path fill="none" stroke="#63b8ff" d="M502.08,-56.48C523.19,-60.87 548.32,-66.09 571.14,-70.82"/>
<polygon fill="#63b8ff" stroke="#63b8ff" points="570.14,-74.19 580.64,-72.8 571.56,-67.34 570.14,-74.19"/>
</g>
<!-- Node11 -->
<g id="node11" class="node">
<title>Node11</title>
<g id="a_node11"><a xlink:href="class_urho3_d_1_1_scene.html#a5a3132086218d7b7e6d8f3ccd50f7249" target="_top" xlink:title="Return threaded update flag.">
<polygon fill="white" stroke="#666666" points="706.5,-51.5 569.5,-51.5 569.5,-21.5 706.5,-21.5 706.5,-51.5"/>
<text text-anchor="start" x="577.5" y="-39.5" font-family="Roboto" font-size="10.00">Urho3D::Scene::IsThreaded</text>
<text text-anchor="middle" x="638" y="-28.5" font-family="Roboto" font-size="10.00">Update</text>
</a>
</g>
</g>
<!-- Node10&#45;&gt;Node11 -->
<g id="edge12" class="edge">
<title>Node10&#45;&gt;Node11</title>
<path fill="none" stroke="#63b8ff" d="M526.85,-42.52C536.99,-41.96 547.45,-41.39 557.7,-40.83"/>
<polygon fill="#63b8ff" stroke="#63b8ff" points="557.85,-44.33 567.64,-40.29 557.47,-37.34 557.85,-44.33"/>
</g>
</g>
</svg>
