<?xml version="1.0" encoding="UTF-8" standalone="no"?>
<!DOCTYPE svg PUBLIC "-//W3C//DTD SVG 1.1//EN"
 "http://www.w3.org/Graphics/SVG/1.1/DTD/svg11.dtd">
<!-- Generated by graphviz version 7.0.3 (0)
 -->
<!-- Title: Urho3D::Image::Save Pages: 1 -->
<svg width="439pt" height="27pt"
 viewBox="0.00 0.00 439.00 27.00" xmlns="http://www.w3.org/2000/svg" xmlns:xlink="http://www.w3.org/1999/xlink">
<g id="graph0" class="graph" transform="scale(1 1) rotate(0) translate(4 23)">
<title>Urho3D::Image::Save</title>
<!-- Node1 -->
<g id="node1" class="node">
<title>Node1</title>
<g id="a_node1"><a xlink:title="Save the image to a stream. Regardless of original format, the image is saved as png....">
<polygon fill="#999999" stroke="#666666" points="431,-19 323,-19 323,0 431,0 431,-19"/>
<text text-anchor="middle" x="377" y="-7" font-family="Roboto" font-size="10.00">Urho3D::Image::Save</text>
</a>
</g>
</g>
<!-- Node2 -->
<g id="node2" class="node">
<title>Node2</title>
<g id="a_node2"><a xlink:href="class_urho3_d_1_1_image.html#a78a5e3043e9b5f7fa9375325f9ab0263" target="_top" xlink:title="Save in PNG format. Return true if successful.">
<polygon fill="white" stroke="#666666" points="287,-19 159,-19 159,0 287,0 287,-19"/>
<text text-anchor="middle" x="223" y="-7" font-family="Roboto" font-size="10.00">Urho3D::Image::SavePNG</text>
</a>
</g>
</g>
<!-- Node1&#45;&gt;Node2 -->
<g id="edge1" class="edge">
<title>Node1&#45;&gt;Node2</title>
<path fill="none" stroke="#63b8ff" d="M311.34,-9.5C303.38,-9.5 295.25,-9.5 287.31,-9.5"/>
<polygon fill="#63b8ff" stroke="#63b8ff" points="311.32,-13 321.32,-9.5 311.32,-6 311.32,-13"/>
</g>
<!-- Node3 -->
<g id="node3" class="node">
<title>Node3</title>
<g id="a_node3"><a xlink:href="class_urho3_d_1_1_image.html#adcea1e1f246e18b77acfdc12937f95b3" target="_top" xlink:title="Save the image to a file. Format of the image is determined by file extension. JPG is saved with maxi...">
<polygon fill="white" stroke="#666666" points="123,-19 0,-19 0,0 123,0 123,-19"/>
<text text-anchor="middle" x="61.5" y="-7" font-family="Roboto" font-size="10.00">Urho3D::Image::SaveFile</text>
</a>
</g>
</g>
<!-- Node2&#45;&gt;Node3 -->
<g id="edge2" class="edge">
<title>Node2&#45;&gt;Node3</title>
<path fill="none" stroke="#63b8ff" d="M147.01,-9.5C139.11,-9.5 131.15,-9.5 123.44,-9.5"/>
<polygon fill="#63b8ff" stroke="#63b8ff" points="146.99,-13 156.99,-9.5 146.99,-6 146.99,-13"/>
</g>
</g>
</svg>
