<?xml version="1.0" encoding="UTF-8" standalone="no"?>
<!DOCTYPE svg PUBLIC "-//W3C//DTD SVG 1.1//EN"
 "http://www.w3.org/Graphics/SVG/1.1/DTD/svg11.dtd">
<!-- Generated by graphviz version 7.0.3 (0)
 -->
<!-- Title: Urho3D::AllContentOctreeQuery::TestDrawables Pages: 1 -->
<svg width="334pt" height="76pt"
 viewBox="0.00 0.00 334.00 75.50" xmlns="http://www.w3.org/2000/svg" xmlns:xlink="http://www.w3.org/1999/xlink">
<g id="graph0" class="graph" transform="scale(1 1) rotate(0) translate(4 71.5)">
<title>Urho3D::AllContentOctreeQuery::TestDrawables</title>
<!-- Node1 -->
<g id="node1" class="node">
<title>Node1</title>
<g id="a_node1"><a xlink:title="Intersection test for drawables.">
<polygon fill="#999999" stroke="#666666" points="129,-45.5 0,-45.5 0,-15.5 129,-15.5 129,-45.5"/>
<text text-anchor="start" x="8" y="-33.5" font-family="Roboto" font-size="10.00">Urho3D::AllContentOctree</text>
<text text-anchor="middle" x="64.5" y="-22.5" font-family="Roboto" font-size="10.00">Query::TestDrawables</text>
</a>
</g>
</g>
<!-- Node2 -->
<g id="node2" class="node">
<title>Node2</title>
<g id="a_node2"><a xlink:href="class_urho3_d_1_1_drawable.html#a74be6fab1f5cfdd44da3572015edf6ba" target="_top" xlink:title="Return drawable flags.">
<polygon fill="white" stroke="#666666" points="323,-67.5 168,-67.5 168,-37.5 323,-37.5 323,-67.5"/>
<text text-anchor="start" x="176" y="-55.5" font-family="Roboto" font-size="10.00">Urho3D::Drawable::GetDrawable</text>
<text text-anchor="middle" x="245.5" y="-44.5" font-family="Roboto" font-size="10.00">Flags</text>
</a>
</g>
</g>
<!-- Node1&#45;&gt;Node2 -->
<g id="edge1" class="edge">
<title>Node1&#45;&gt;Node2</title>
<path fill="none" stroke="#63b8ff" d="M129.37,-38.35C138.22,-39.44 147.43,-40.57 156.63,-41.7"/>
<polygon fill="#63b8ff" stroke="#63b8ff" points="155.95,-45.14 166.3,-42.89 156.8,-38.2 155.95,-45.14"/>
</g>
<!-- Node3 -->
<g id="node3" class="node">
<title>Node3</title>
<g id="a_node3"><a xlink:href="class_urho3_d_1_1_drawable.html#ae45bf9bcfe8d1c09c72258e77a76f992" target="_top" xlink:title=" ">
<polygon fill="white" stroke="#666666" points="326,-19 165,-19 165,0 326,0 326,-19"/>
<text text-anchor="middle" x="245.5" y="-7" font-family="Roboto" font-size="10.00">Urho3D::Drawable::GetViewMask</text>
</a>
</g>
</g>
<!-- Node1&#45;&gt;Node3 -->
<g id="edge2" class="edge">
<title>Node1&#45;&gt;Node3</title>
<path fill="none" stroke="#63b8ff" d="M129.37,-23.01C137.14,-22.09 145.21,-21.15 153.29,-20.2"/>
<polygon fill="#63b8ff" stroke="#63b8ff" points="153.67,-23.68 163.19,-19.04 152.85,-16.73 153.67,-23.68"/>
</g>
</g>
</svg>
