<?xml version="1.0" encoding="UTF-8" standalone="no"?>
<!DOCTYPE svg PUBLIC "-//W3C//DTD SVG 1.1//EN"
 "http://www.w3.org/Graphics/SVG/1.1/DTD/svg11.dtd">
<!-- Generated by graphviz version 7.0.3 (0)
 -->
<!-- Title: Urho3D::Engine::SetMinFps Pages: 1 -->
<svg width="253pt" height="45pt"
 viewBox="0.00 0.00 253.00 45.00" xmlns="http://www.w3.org/2000/svg" xmlns:xlink="http://www.w3.org/1999/xlink">
<g id="graph0" class="graph" transform="scale(1 1) rotate(0) translate(4 41)">
<title>Urho3D::Engine::SetMinFps</title>
<!-- Node1 -->
<g id="node1" class="node">
<title>Node1</title>
<g id="a_node1"><a xlink:title=" ">
<polygon fill="#999999" stroke="#666666" points="135,-19 0,-19 0,0 135,0 135,-19"/>
<text text-anchor="middle" x="67.5" y="-7" font-family="Roboto" font-size="10.00">Urho3D::Engine::SetMinFps</text>
</a>
</g>
</g>
<!-- Node2 -->
<g id="node2" class="node">
<title>Node2</title>
<g id="a_node2"><a xlink:href="_math_defs_8h.html#a8096c22c3716e172f685af2a5f5e26bb" target="_top" xlink:title=" ">
<polygon fill="white" stroke="#666666" points="245,-19 171,-19 171,0 245,0 245,-19"/>
<text text-anchor="middle" x="208" y="-7" font-family="Roboto" font-size="10.00">Urho3D::Max</text>
</a>
</g>
</g>
<!-- Node1&#45;&gt;Node2 -->
<g id="edge1" class="edge">
<title>Node1&#45;&gt;Node2</title>
<path fill="none" stroke="#63b8ff" d="M135.32,-9.5C143.4,-9.5 151.53,-9.5 159.26,-9.5"/>
<polygon fill="#63b8ff" stroke="#63b8ff" points="159.12,-13 169.12,-9.5 159.12,-6 159.12,-13"/>
</g>
<!-- Node2&#45;&gt;Node2 -->
<g id="edge2" class="edge">
<title>Node2&#45;&gt;Node2</title>
<path fill="none" stroke="#63b8ff" d="M186,-19.37C175.97,-27.94 183.3,-37 208,-37 221.51,-37 229.82,-34.29 232.94,-30.43"/>
<polygon fill="#63b8ff" stroke="#63b8ff" points="236.34,-29.6 230.39,-20.83 229.57,-31.39 236.34,-29.6"/>
</g>
</g>
</svg>
