<?xml version="1.0" encoding="UTF-8" standalone="no"?>
<!DOCTYPE svg PUBLIC "-//W3C//DTD SVG 1.1//EN"
 "http://www.w3.org/Graphics/SVG/1.1/DTD/svg11.dtd">
<!-- Generated by graphviz version 7.0.3 (0)
 -->
<!-- Title: Urho3D::Light::GetEffectiveSpecularIntensity Pages: 1 -->
<svg width="249pt" height="51pt"
 viewBox="0.00 0.00 249.00 50.50" xmlns="http://www.w3.org/2000/svg" xmlns:xlink="http://www.w3.org/1999/xlink">
<g id="graph0" class="graph" transform="scale(1 1) rotate(0) translate(4 46.5)">
<title>Urho3D::Light::GetEffectiveSpecularIntensity</title>
<!-- Node1 -->
<g id="node1" class="node">
<title>Node1</title>
<g id="a_node1"><a xlink:title=" ">
<polygon fill="#999999" stroke="#666666" points="133,-30 0,-30 0,0 133,0 133,-30"/>
<text text-anchor="start" x="8" y="-18" font-family="Roboto" font-size="10.00">Urho3D::Light::GetEffective</text>
<text text-anchor="middle" x="66.5" y="-7" font-family="Roboto" font-size="10.00">SpecularIntensity</text>
</a>
</g>
</g>
<!-- Node2 -->
<g id="node2" class="node">
<title>Node2</title>
<g id="a_node2"><a xlink:href="_math_defs_8h.html#ac3865cf9a0484b8452ccc4e62c5661ca" target="_top" xlink:title=" ">
<polygon fill="white" stroke="#666666" points="241,-24.5 169,-24.5 169,-5.5 241,-5.5 241,-24.5"/>
<text text-anchor="middle" x="205" y="-12.5" font-family="Roboto" font-size="10.00">Urho3D::Abs</text>
</a>
</g>
</g>
<!-- Node1&#45;&gt;Node2 -->
<g id="edge1" class="edge">
<title>Node1&#45;&gt;Node2</title>
<path fill="none" stroke="#63b8ff" d="M133.35,-15C141.41,-15 149.51,-15 157.21,-15"/>
<polygon fill="#63b8ff" stroke="#63b8ff" points="157.01,-18.5 167.01,-15 157.01,-11.5 157.01,-18.5"/>
</g>
<!-- Node2&#45;&gt;Node2 -->
<g id="edge2" class="edge">
<title>Node2&#45;&gt;Node2</title>
<path fill="none" stroke="#63b8ff" d="M183.32,-24.87C173.43,-33.44 180.65,-42.5 205,-42.5 218.31,-42.5 226.51,-39.79 229.58,-35.93"/>
<polygon fill="#63b8ff" stroke="#63b8ff" points="232.99,-35.12 227.07,-26.33 226.22,-36.89 232.99,-35.12"/>
</g>
</g>
</svg>
