<?xml version="1.0" encoding="UTF-8" standalone="no"?>
<!DOCTYPE svg PUBLIC "-//W3C//DTD SVG 1.1//EN"
 "http://www.w3.org/Graphics/SVG/1.1/DTD/svg11.dtd">
<!-- Generated by graphviz version 7.0.3 (0)
 -->
<!-- Title: Urho3D::CrowdManager::DrawDebugGeometry Pages: 1 -->
<svg width="783pt" height="217pt"
 viewBox="0.00 0.00 783.00 217.00" xmlns="http://www.w3.org/2000/svg" xmlns:xlink="http://www.w3.org/1999/xlink">
<g id="graph0" class="graph" transform="scale(1 1) rotate(0) translate(4 213)">
<title>Urho3D::CrowdManager::DrawDebugGeometry</title>
<!-- Node1 -->
<g id="node1" class="node">
<title>Node1</title>
<g id="a_node1"><a xlink:title="Draw the agents&#39; pathing debug data.">
<polygon fill="#999999" stroke="#666666" points="123,-148 0,-148 0,-118 123,-118 123,-148"/>
<text text-anchor="start" x="8" y="-136" font-family="Roboto" font-size="10.00">Urho3D::CrowdManager</text>
<text text-anchor="middle" x="61.5" y="-125" font-family="Roboto" font-size="10.00">::DrawDebugGeometry</text>
</a>
</g>
</g>
<!-- Node2 -->
<g id="node2" class="node">
<title>Node2</title>
<g id="a_node2"><a xlink:href="class_urho3_d_1_1_debug_renderer.html#aa250f6d8ac576c708e9af181c398e46f" target="_top" xlink:title="Add a line.">
<polygon fill="white" stroke="#666666" points="454.5,-191 332.5,-191 332.5,-161 454.5,-161 454.5,-191"/>
<text text-anchor="start" x="340.5" y="-179" font-family="Roboto" font-size="10.00">Urho3D::DebugRenderer</text>
<text text-anchor="middle" x="393.5" y="-168" font-family="Roboto" font-size="10.00">::AddLine</text>
</a>
</g>
</g>
<!-- Node1&#45;&gt;Node2 -->
<g id="edge1" class="edge">
<title>Node1&#45;&gt;Node2</title>
<path fill="none" stroke="#63b8ff" d="M118.06,-148.45C131.38,-151.7 145.63,-154.81 159,-157 212.84,-165.82 274.36,-170.62 320.73,-173.18"/>
<polygon fill="#63b8ff" stroke="#63b8ff" points="320.5,-176.67 330.67,-173.71 320.87,-169.68 320.5,-176.67"/>
</g>
<!-- Node5 -->
<g id="node5" class="node">
<title>Node5</title>
<g id="a_node5"><a xlink:href="class_urho3_d_1_1_debug_renderer.html#a3d37048a98900ea96aa762d7ff173e7c" target="_top" xlink:title="Add a sphere.">
<polygon fill="white" stroke="#666666" points="281,-148 159,-148 159,-118 281,-118 281,-148"/>
<text text-anchor="start" x="167" y="-136" font-family="Roboto" font-size="10.00">Urho3D::DebugRenderer</text>
<text text-anchor="middle" x="220" y="-125" font-family="Roboto" font-size="10.00">::AddSphere</text>
</a>
</g>
</g>
<!-- Node1&#45;&gt;Node5 -->
<g id="edge6" class="edge">
<title>Node1&#45;&gt;Node5</title>
<path fill="none" stroke="#63b8ff" d="M123.46,-133C131.33,-133 139.45,-133 147.48,-133"/>
<polygon fill="#63b8ff" stroke="#63b8ff" points="147.21,-136.5 157.21,-133 147.21,-129.5 147.21,-136.5"/>
</g>
<!-- Node7 -->
<g id="node7" class="node">
<title>Node7</title>
<g id="a_node7"><a xlink:href="class_urho3_d_1_1_crowd_agent.html#a29b649a27aa3a906b2abcd67152b157f" target="_top" xlink:title="Draw debug geometry.">
<polygon fill="white" stroke="#666666" points="277.5,-73 162.5,-73 162.5,-43 277.5,-43 277.5,-73"/>
<text text-anchor="start" x="170.5" y="-61" font-family="Roboto" font-size="10.00">Urho3D::CrowdAgent</text>
<text text-anchor="middle" x="220" y="-50" font-family="Roboto" font-size="10.00">::DrawDebugGeometry</text>
</a>
</g>
</g>
<!-- Node1&#45;&gt;Node7 -->
<g id="edge10" class="edge">
<title>Node1&#45;&gt;Node7</title>
<path fill="none" stroke="#63b8ff" d="M94.55,-117.64C118.21,-106.3 150.64,-90.76 176.47,-78.38"/>
<polygon fill="#63b8ff" stroke="#63b8ff" points="177.86,-81.6 185.36,-74.12 174.83,-75.29 177.86,-81.6"/>
</g>
<!-- Node2&#45;&gt;Node2 -->
<g id="edge2" class="edge">
<title>Node2&#45;&gt;Node2</title>
<path fill="none" stroke="#63b8ff" d="M363,-191.28C356.22,-200.41 366.39,-209 393.5,-209 408.33,-209 418.08,-206.43 422.77,-202.61"/>
<polygon fill="#63b8ff" stroke="#63b8ff" points="426.24,-203.1 423.84,-192.78 419.28,-202.35 426.24,-203.1"/>
</g>
<!-- Node3 -->
<g id="node3" class="node">
<title>Node3</title>
<g id="a_node3"><a xlink:href="class_urho3_d_1_1_color.html#a06623b98b5524439f8a243d103b214dd" target="_top" xlink:title="Return color packed to a 32&#45;bit integer, with R component in the lowest 8 bits. Components are clampe...">
<polygon fill="white" stroke="#666666" points="637.5,-163.5 524.5,-163.5 524.5,-144.5 637.5,-144.5 637.5,-163.5"/>
<text text-anchor="middle" x="581" y="-151.5" font-family="Roboto" font-size="10.00">Urho3D::Color::ToUInt</text>
</a>
</g>
</g>
<!-- Node2&#45;&gt;Node3 -->
<g id="edge3" class="edge">
<title>Node2&#45;&gt;Node3</title>
<path fill="none" stroke="#63b8ff" d="M454.98,-168.83C473.54,-166.63 494.08,-164.19 513.04,-161.94"/>
<polygon fill="#63b8ff" stroke="#63b8ff" points="513.29,-165.44 522.81,-160.78 512.46,-158.49 513.29,-165.44"/>
</g>
<!-- Node4 -->
<g id="node4" class="node">
<title>Node4</title>
<g id="a_node4"><a xlink:href="_math_defs_8h.html#a937fef228b452d2488ce13d78f0bd810" target="_top" xlink:title=" ">
<polygon fill="white" stroke="#666666" points="775,-163.5 692,-163.5 692,-144.5 775,-144.5 775,-163.5"/>
<text text-anchor="middle" x="733.5" y="-151.5" font-family="Roboto" font-size="10.00">Urho3D::Clamp</text>
</a>
</g>
</g>
<!-- Node3&#45;&gt;Node4 -->
<g id="edge4" class="edge">
<title>Node3&#45;&gt;Node4</title>
<path fill="none" stroke="#63b8ff" d="M637.61,-154C651.61,-154 666.59,-154 680.41,-154"/>
<polygon fill="#63b8ff" stroke="#63b8ff" points="680.18,-157.5 690.18,-154 680.18,-150.5 680.18,-157.5"/>
</g>
<!-- Node4&#45;&gt;Node4 -->
<g id="edge5" class="edge">
<title>Node4&#45;&gt;Node4</title>
<path fill="none" stroke="#63b8ff" d="M709.63,-163.87C698.74,-172.44 706.69,-181.5 733.5,-181.5 748.58,-181.5 757.69,-178.63 760.84,-174.6"/>
<polygon fill="#63b8ff" stroke="#63b8ff" points="764.25,-173.75 757.84,-165.31 757.59,-175.9 764.25,-173.75"/>
</g>
<!-- Node5&#45;&gt;Node2 -->
<g id="edge7" class="edge">
<title>Node5&#45;&gt;Node2</title>
<path fill="none" stroke="#63b8ff" d="M281.46,-148.16C294.27,-151.37 307.91,-154.79 321.08,-158.09"/>
<polygon fill="#63b8ff" stroke="#63b8ff" points="319.98,-161.43 330.54,-160.46 321.69,-154.64 319.98,-161.43"/>
</g>
<!-- Node5&#45;&gt;Node3 -->
<g id="edge9" class="edge">
<title>Node5&#45;&gt;Node3</title>
<path fill="none" stroke="#63b8ff" d="M281.49,-136.54C345.63,-140.29 446.64,-146.2 513.11,-150.09"/>
<polygon fill="#63b8ff" stroke="#63b8ff" points="512.58,-153.56 522.77,-150.65 512.99,-146.57 512.58,-153.56"/>
</g>
<!-- Node6 -->
<g id="node6" class="node">
<title>Node6</title>
<g id="a_node6"><a xlink:href="class_urho3_d_1_1_sphere.html#a87d3287a4cae266144da2ae624933ef1" target="_top" xlink:title="Return point on the sphere.">
<polygon fill="white" stroke="#666666" points="457,-104.5 330,-104.5 330,-85.5 457,-85.5 457,-104.5"/>
<text text-anchor="middle" x="393.5" y="-92.5" font-family="Roboto" font-size="10.00">Urho3D::Sphere::GetPoint</text>
</a>
</g>
</g>
<!-- Node5&#45;&gt;Node6 -->
<g id="edge8" class="edge">
<title>Node5&#45;&gt;Node6</title>
<path fill="none" stroke="#63b8ff" d="M281.46,-119.6C299.26,-115.66 318.66,-111.36 336.19,-107.48"/>
<polygon fill="#63b8ff" stroke="#63b8ff" points="336.92,-110.9 345.92,-105.32 335.4,-104.07 336.92,-110.9"/>
</g>
<!-- Node7&#45;&gt;Node7 -->
<g id="edge11" class="edge">
<title>Node7&#45;&gt;Node7</title>
<path fill="none" stroke="#63b8ff" d="M192.14,-73.28C185.95,-82.41 195.23,-91 220,-91 233.54,-91 242.46,-88.43 246.74,-84.61"/>
<polygon fill="#63b8ff" stroke="#63b8ff" points="250.21,-85.08 247.71,-74.78 243.25,-84.39 250.21,-85.08"/>
</g>
<!-- Node8 -->
<g id="node8" class="node">
<title>Node8</title>
<g id="a_node8"><a xlink:href="class_urho3_d_1_1_scene.html#a0c7ddadabfbb191e42b39877ca84cd67" target="_top" xlink:title="Return component from the whole scene by ID, or null if not found.">
<polygon fill="white" stroke="#666666" points="470,-67.5 317,-67.5 317,-48.5 470,-48.5 470,-67.5"/>
<text text-anchor="middle" x="393.5" y="-55.5" font-family="Roboto" font-size="10.00">Urho3D::Scene::GetComponent</text>
</a>
</g>
</g>
<!-- Node7&#45;&gt;Node8 -->
<g id="edge12" class="edge">
<title>Node7&#45;&gt;Node8</title>
<path fill="none" stroke="#63b8ff" d="M277.63,-58C286.51,-58 295.86,-58 305.24,-58"/>
<polygon fill="#63b8ff" stroke="#63b8ff" points="305.14,-61.5 315.14,-58 305.14,-54.5 305.14,-61.5"/>
</g>
<!-- Node10 -->
<g id="node10" class="node">
<title>Node10</title>
<g id="a_node10"><a xlink:href="class_urho3_d_1_1_component.html#a2c22f727341671a0420934f249ffe059" target="_top" xlink:title="Return the scene the node belongs to.">
<polygon fill="white" stroke="#666666" points="449,-30 338,-30 338,0 449,0 449,-30"/>
<text text-anchor="start" x="346" y="-18" font-family="Roboto" font-size="10.00">Urho3D::Component::</text>
<text text-anchor="middle" x="393.5" y="-7" font-family="Roboto" font-size="10.00">GetScene</text>
</a>
</g>
</g>
<!-- Node7&#45;&gt;Node10 -->
<g id="edge14" class="edge">
<title>Node7&#45;&gt;Node10</title>
<path fill="none" stroke="#63b8ff" d="M277.63,-43.8C293.33,-39.87 310.5,-35.56 326.67,-31.5"/>
<polygon fill="#63b8ff" stroke="#63b8ff" points="327.36,-34.94 336.21,-29.11 325.66,-28.15 327.36,-34.94"/>
</g>
<!-- Node9 -->
<g id="node9" class="node">
<title>Node9</title>
<g id="a_node9"><a xlink:href="class_urho3_d_1_1_scene.html#a97fb1222bd2f38e6c1c433c0b7e54d40" target="_top" xlink:title="Return whether the specified id is a replicated id.">
<polygon fill="white" stroke="#666666" points="656,-67.5 506,-67.5 506,-48.5 656,-48.5 656,-67.5"/>
<text text-anchor="middle" x="581" y="-55.5" font-family="Roboto" font-size="10.00">Urho3D::Scene::IsReplicatedID</text>
</a>
</g>
</g>
<!-- Node8&#45;&gt;Node9 -->
<g id="edge13" class="edge">
<title>Node8&#45;&gt;Node9</title>
<path fill="none" stroke="#63b8ff" d="M470.49,-58C478.28,-58 486.24,-58 494.14,-58"/>
<polygon fill="#63b8ff" stroke="#63b8ff" points="494.12,-61.5 504.12,-58 494.12,-54.5 494.12,-61.5"/>
</g>
<!-- Node11 -->
<g id="node11" class="node">
<title>Node11</title>
<g id="a_node11"><a xlink:href="class_urho3_d_1_1_node.html#ad3742cda838a2b291daa44d3ab00de56" target="_top" xlink:title=" ">
<polygon fill="white" stroke="#666666" points="644,-24.5 518,-24.5 518,-5.5 644,-5.5 644,-24.5"/>
<text text-anchor="middle" x="581" y="-12.5" font-family="Roboto" font-size="10.00">Urho3D::Node::GetScene</text>
</a>
</g>
</g>
<!-- Node10&#45;&gt;Node11 -->
<g id="edge15" class="edge">
<title>Node10&#45;&gt;Node11</title>
<path fill="none" stroke="#63b8ff" d="M449.4,-15C467.27,-15 487.4,-15 506.41,-15"/>
<polygon fill="#63b8ff" stroke="#63b8ff" points="506.24,-18.5 516.24,-15 506.24,-11.5 506.24,-18.5"/>
</g>
</g>
</svg>
