<?xml version="1.0" encoding="UTF-8" standalone="no"?>
<!DOCTYPE svg PUBLIC "-//W3C//DTD SVG 1.1//EN"
 "http://www.w3.org/Graphics/SVG/1.1/DTD/svg11.dtd">
<!-- Generated by graphviz version 7.0.3 (0)
 -->
<!-- Title: Urho3D::Serializable::SaveJSON Pages: 1 -->
<svg width="657pt" height="641pt"
 viewBox="0.00 0.00 657.00 640.50" xmlns="http://www.w3.org/2000/svg" xmlns:xlink="http://www.w3.org/1999/xlink">
<g id="graph0" class="graph" transform="scale(1 1) rotate(0) translate(4 636.5)">
<title>Urho3D::Serializable::SaveJSON</title>
<!-- Node1 -->
<g id="node1" class="node">
<title>Node1</title>
<g id="a_node1"><a xlink:title="Save as JSON data. Return true if successful.">
<polygon fill="#999999" stroke="#666666" points="105,-392 0,-392 0,-362 105,-362 105,-392"/>
<text text-anchor="start" x="8" y="-380" font-family="Roboto" font-size="10.00">Urho3D::Serializable</text>
<text text-anchor="middle" x="52.5" y="-369" font-family="Roboto" font-size="10.00">::SaveJSON</text>
</a>
</g>
</g>
<!-- Node2 -->
<g id="node2" class="node">
<title>Node2</title>
<g id="a_node2"><a xlink:href="class_urho3_d_1_1_vector.html#a253629ba660641c388bb0bf050b0cd3e" target="_top" xlink:title="Return element at index.">
<polygon fill="white" stroke="#666666" points="429.5,-632.5 331.5,-632.5 331.5,-613.5 429.5,-613.5 429.5,-632.5"/>
<text text-anchor="middle" x="380.5" y="-620.5" font-family="Roboto" font-size="10.00">Urho3D::Vector::At</text>
</a>
</g>
</g>
<!-- Node1&#45;&gt;Node2 -->
<g id="edge1" class="edge">
<title>Node1&#45;&gt;Node2</title>
<path fill="none" stroke="#63b8ff" d="M56.91,-392.34C65.21,-426.19 89.68,-507.74 141,-552 191.45,-595.5 267.64,-612.36 320.27,-618.88"/>
<polygon fill="#63b8ff" stroke="#63b8ff" points="319.62,-622.33 329.95,-619.99 320.41,-615.38 319.62,-622.33"/>
</g>
<!-- Node4 -->
<g id="node4" class="node">
<title>Node4</title>
<g id="a_node4"><a xlink:href="class_urho3_d_1_1_serializable.html#a48b7ab5369b91ff7b7e47c83347963d8" target="_top" xlink:title=" ">
<polygon fill="white" stroke="#666666" points="255,-504 150,-504 150,-474 255,-474 255,-504"/>
<text text-anchor="start" x="158" y="-492" font-family="Roboto" font-size="10.00">Urho3D::Serializable</text>
<text text-anchor="middle" x="202.5" y="-481" font-family="Roboto" font-size="10.00">::GetAttributeDefault</text>
</a>
</g>
</g>
<!-- Node1&#45;&gt;Node4 -->
<g id="edge3" class="edge">
<title>Node1&#45;&gt;Node4</title>
<path fill="none" stroke="#63b8ff" d="M73.77,-392.34C99.34,-411.69 143.49,-445.1 172.6,-467.13"/>
<polygon fill="#63b8ff" stroke="#63b8ff" points="170.18,-469.69 180.27,-472.93 174.41,-464.11 170.18,-469.69"/>
</g>
<!-- Node5 -->
<g id="node5" class="node">
<title>Node5</title>
<g id="a_node5"><a xlink:href="class_urho3_d_1_1_serializable.html#a7e18871871feb97ee7cfb637e9b3e090" target="_top" xlink:title="Return attribute descriptions, or null if none defined.">
<polygon fill="white" stroke="#666666" points="433,-595 328,-595 328,-565 433,-565 433,-595"/>
<text text-anchor="start" x="336" y="-583" font-family="Roboto" font-size="10.00">Urho3D::Serializable</text>
<text text-anchor="middle" x="380.5" y="-572" font-family="Roboto" font-size="10.00">::GetAttributes</text>
</a>
</g>
</g>
<!-- Node1&#45;&gt;Node5 -->
<g id="edge12" class="edge">
<title>Node1&#45;&gt;Node5</title>
<path fill="none" stroke="#63b8ff" d="M59.04,-392.24C70.11,-420.48 97.65,-480.96 141,-513 192.61,-551.14 265.08,-567.58 316.57,-574.66"/>
<polygon fill="#63b8ff" stroke="#63b8ff" points="316,-578.12 326.37,-575.92 316.89,-571.18 316,-578.12"/>
</g>
<!-- Node19 -->
<g id="node11" class="node">
<title>Node19</title>
<g id="a_node11"><a xlink:href="class_urho3_d_1_1_vector.html#a5da7101c355895f41098fcf875e4c56a" target="_top" xlink:title="Return size of vector.">
<polygon fill="white" stroke="#666666" points="434,-424.5 327,-424.5 327,-405.5 434,-405.5 434,-424.5"/>
<text text-anchor="middle" x="380.5" y="-412.5" font-family="Roboto" font-size="10.00">Urho3D::Vector::Size</text>
</a>
</g>
</g>
<!-- Node1&#45;&gt;Node19 -->
<g id="edge29" class="edge">
<title>Node1&#45;&gt;Node19</title>
<path fill="none" stroke="#63b8ff" d="M105.25,-385.79C116.98,-387.64 129.41,-389.49 141,-391 200.03,-398.69 267.55,-405.27 315.64,-409.59"/>
<polygon fill="#63b8ff" stroke="#63b8ff" points="315.04,-413.05 325.31,-410.45 315.66,-406.08 315.04,-413.05"/>
</g>
<!-- Node20 -->
<g id="node12" class="node">
<title>Node20</title>
<g id="a_node12"><a xlink:href="class_urho3_d_1_1_variant.html#a61ad89a11dde2836cc8d21565b694361" target="_top" xlink:title="Return int or zero on type mismatch. Floats and doubles are converted.">
<polygon fill="white" stroke="#666666" points="438.5,-387.5 322.5,-387.5 322.5,-368.5 438.5,-368.5 438.5,-387.5"/>
<text text-anchor="middle" x="380.5" y="-375.5" font-family="Roboto" font-size="10.00">Urho3D::Variant::GetInt</text>
</a>
</g>
</g>
<!-- Node1&#45;&gt;Node20 -->
<g id="edge13" class="edge">
<title>Node1&#45;&gt;Node20</title>
<path fill="none" stroke="#63b8ff" d="M105.16,-377.16C160.76,-377.33 249.49,-377.6 310.91,-377.79"/>
<polygon fill="#63b8ff" stroke="#63b8ff" points="310.52,-381.29 320.54,-377.82 310.55,-374.29 310.52,-381.29"/>
</g>
<!-- Node21 -->
<g id="node13" class="node">
<title>Node21</title>
<g id="a_node13"><a xlink:href="class_urho3_d_1_1_serializable.html#a18c5041e406e9df1ff04ac9b31733661" target="_top" xlink:title="Handle attribute read access. Default implementation reads the variable at offset,...">
<polygon fill="white" stroke="#666666" points="255,-271 150,-271 150,-241 255,-241 255,-271"/>
<text text-anchor="start" x="158" y="-259" font-family="Roboto" font-size="10.00">Urho3D::Serializable</text>
<text text-anchor="middle" x="202.5" y="-248" font-family="Roboto" font-size="10.00">::OnGetAttribute</text>
</a>
</g>
</g>
<!-- Node1&#45;&gt;Node21 -->
<g id="edge14" class="edge">
<title>Node1&#45;&gt;Node21</title>
<path fill="none" stroke="#63b8ff" d="M63.94,-361.53C78.83,-340.51 108.03,-302.91 141,-280 142.59,-278.89 144.25,-277.82 145.95,-276.8"/>
<polygon fill="#63b8ff" stroke="#63b8ff" points="147.57,-279.9 154.7,-272.07 144.24,-273.74 147.57,-279.9"/>
</g>
<!-- Node22 -->
<g id="node14" class="node">
<title>Node22</title>
<g id="a_node14"><a xlink:href="class_urho3_d_1_1_serializable.html#a6b41d88d2fd2b8c6e67968820828faea" target="_top" xlink:title="Return whether should save default&#45;valued attributes into XML. Default false.">
<polygon fill="white" stroke="#666666" points="260.5,-223 144.5,-223 144.5,-193 260.5,-193 260.5,-223"/>
<text text-anchor="start" x="152.5" y="-211" font-family="Roboto" font-size="10.00">Urho3D::Serializable</text>
<text text-anchor="middle" x="202.5" y="-200" font-family="Roboto" font-size="10.00">::SaveDefaultAttributes</text>
</a>
</g>
</g>
<!-- Node1&#45;&gt;Node22 -->
<g id="edge15" class="edge">
<title>Node1&#45;&gt;Node22</title>
<path fill="none" stroke="#63b8ff" d="M58.92,-361.64C69.96,-332.47 97.7,-268.68 141,-232 142.09,-231.08 143.22,-230.18 144.39,-229.32"/>
<polygon fill="#63b8ff" stroke="#63b8ff" points="146,-232.45 152.58,-224.15 142.26,-226.53 146,-232.45"/>
</g>
<!-- Node23 -->
<g id="node15" class="node">
<title>Node23</title>
<g id="a_node15"><a xlink:href="class_urho3_d_1_1_j_s_o_n_value.html#abaa12eb8d43333b563bdb559774c8365" target="_top" xlink:title="Set JSON value with key.">
<polygon fill="white" stroke="#666666" points="264,-99.5 141,-99.5 141,-80.5 264,-80.5 264,-99.5"/>
<text text-anchor="middle" x="202.5" y="-87.5" font-family="Roboto" font-size="10.00">Urho3D::JSONValue::Set</text>
</a>
</g>
</g>
<!-- Node1&#45;&gt;Node23 -->
<g id="edge16" class="edge">
<title>Node1&#45;&gt;Node23</title>
<path fill="none" stroke="#63b8ff" d="M59.57,-361.62C72.87,-328.44 106.16,-247.97 141,-184 155.58,-157.23 175.04,-127.93 187.91,-109.28"/>
<polygon fill="#63b8ff" stroke="#63b8ff" points="190.76,-111.31 193.6,-101.1 185.01,-107.31 190.76,-111.31"/>
</g>
<!-- Node26 -->
<g id="node17" class="node">
<title>Node26</title>
<g id="a_node17"><a xlink:href="class_urho3_d_1_1_j_s_o_n_value.html#a884b1e10484fc8c46fbe04d64943473c" target="_top" xlink:title="Set variant value, context must provide for resource ref.">
<polygon fill="#fff0f0" stroke="red" points="257,-319 148,-319 148,-289 257,-289 257,-319"/>
<text text-anchor="start" x="156" y="-307" font-family="Roboto" font-size="10.00">Urho3D::JSONValue::</text>
<text text-anchor="middle" x="202.5" y="-296" font-family="Roboto" font-size="10.00">SetVariantValue</text>
</a>
</g>
</g>
<!-- Node1&#45;&gt;Node26 -->
<g id="edge18" class="edge">
<title>Node1&#45;&gt;Node26</title>
<path fill="none" stroke="#63b8ff" d="M84.89,-361.52C106.77,-350.73 136.18,-336.22 160,-324.47"/>
<polygon fill="#63b8ff" stroke="#63b8ff" points="161.38,-327.69 168.8,-320.13 158.28,-321.41 161.38,-327.69"/>
</g>
<!-- Node3 -->
<g id="node3" class="node">
<title>Node3</title>
<g id="a_node3"><a xlink:href="class_urho3_d_1_1_vector.html#a2126455bfd4dd42c90838abba6fef37a" target="_top" xlink:title="Return the buffer with right type.">
<polygon fill="white" stroke="#666666" points="631,-632.5 515,-632.5 515,-613.5 631,-613.5 631,-632.5"/>
<text text-anchor="middle" x="573" y="-620.5" font-family="Roboto" font-size="10.00">Urho3D::Vector::Buffer</text>
</a>
</g>
</g>
<!-- Node2&#45;&gt;Node3 -->
<g id="edge2" class="edge">
<title>Node2&#45;&gt;Node3</title>
<path fill="none" stroke="#63b8ff" d="M429.57,-623C451.93,-623 478.93,-623 503.39,-623"/>
<polygon fill="#63b8ff" stroke="#63b8ff" points="503.27,-626.5 513.27,-623 503.27,-619.5 503.27,-626.5"/>
</g>
<!-- Node4&#45;&gt;Node2 -->
<g id="edge4" class="edge">
<title>Node4&#45;&gt;Node2</title>
<path fill="none" stroke="#63b8ff" d="M211.95,-504.38C226.51,-529.35 258.76,-578.51 300,-604 306.25,-607.86 313.23,-610.94 320.38,-613.4"/>
<polygon fill="#63b8ff" stroke="#63b8ff" points="319.27,-616.72 329.85,-616.22 321.27,-610.01 319.27,-616.72"/>
</g>
<!-- Node4&#45;&gt;Node5 -->
<g id="edge5" class="edge">
<title>Node4&#45;&gt;Node5</title>
<path fill="none" stroke="#63b8ff" d="M221.99,-504.49C240.65,-519.46 270.8,-541.89 300,-556 305.44,-558.63 311.22,-561.04 317.09,-563.23"/>
<polygon fill="#63b8ff" stroke="#63b8ff" points="315.69,-566.44 326.28,-566.44 318,-559.84 315.69,-566.44"/>
</g>
<!-- Node16 -->
<g id="node8" class="node">
<title>Node16</title>
<g id="a_node8"><a xlink:href="class_urho3_d_1_1_serializable.html#a946b490fe2b64108853e8ad08964bb3f" target="_top" xlink:title="Get instance&#45;level default value.">
<polygon fill="white" stroke="#666666" points="433,-547 328,-547 328,-517 433,-517 433,-547"/>
<text text-anchor="start" x="336" y="-535" font-family="Roboto" font-size="10.00">Urho3D::Serializable</text>
<text text-anchor="middle" x="380.5" y="-524" font-family="Roboto" font-size="10.00">::GetInstanceDefault</text>
</a>
</g>
</g>
<!-- Node4&#45;&gt;Node16 -->
<g id="edge8" class="edge">
<title>Node4&#45;&gt;Node16</title>
<path fill="none" stroke="#63b8ff" d="M255.35,-501.67C274.6,-506.37 296.65,-511.76 316.76,-516.67"/>
<polygon fill="#63b8ff" stroke="#63b8ff" points="315.7,-520.01 326.24,-518.99 317.36,-513.21 315.7,-520.01"/>
</g>
<!-- Node17 -->
<g id="node9" class="node">
<title>Node17</title>
<g id="a_node9"><a xlink:href="class_urho3_d_1_1_object.html#aa70436408fab29ff5d6ea54fa1e09b9b" target="_top" xlink:title=" ">
<polygon fill="white" stroke="#666666" points="455,-498.5 306,-498.5 306,-479.5 455,-479.5 455,-498.5"/>
<text text-anchor="middle" x="380.5" y="-486.5" font-family="Roboto" font-size="10.00">Urho3D::Object::GetTypeName</text>
</a>
</g>
</g>
<!-- Node4&#45;&gt;Node17 -->
<g id="edge9" class="edge">
<title>Node4&#45;&gt;Node17</title>
<path fill="none" stroke="#63b8ff" d="M255.35,-489C267.63,-489 281.05,-489 294.37,-489"/>
<polygon fill="#63b8ff" stroke="#63b8ff" points="294.01,-492.5 304.01,-489 294.01,-485.5 294.01,-492.5"/>
</g>
<!-- Node18 -->
<g id="node10" class="node">
<title>Node18</title>
<g id="a_node10"><a xlink:href="class_urho3_d_1_1_variant.html#a5cdfda6b6a036a4d462f45669734dcd4" target="_top" xlink:title=" ">
<polygon fill="white" stroke="#666666" points="443.5,-461.5 317.5,-461.5 317.5,-442.5 443.5,-442.5 443.5,-461.5"/>
<text text-anchor="middle" x="380.5" y="-449.5" font-family="Roboto" font-size="10.00">Urho3D::Variant::IsEmpty</text>
</a>
</g>
</g>
<!-- Node4&#45;&gt;Node18 -->
<g id="edge10" class="edge">
<title>Node4&#45;&gt;Node18</title>
<path fill="none" stroke="#63b8ff" d="M255.35,-478.1C275.98,-473.76 299.82,-468.75 321.05,-464.29"/>
<polygon fill="#63b8ff" stroke="#63b8ff" points="321.67,-467.73 330.74,-462.25 320.23,-460.88 321.67,-467.73"/>
</g>
<!-- Node4&#45;&gt;Node19 -->
<g id="edge11" class="edge">
<title>Node4&#45;&gt;Node19</title>
<path fill="none" stroke="#63b8ff" d="M225.98,-473.74C244.97,-461.46 273.28,-444.56 300,-434 305.61,-431.78 311.55,-429.78 317.55,-427.98"/>
<polygon fill="#63b8ff" stroke="#63b8ff" points="318.22,-431.42 326.91,-425.36 316.34,-424.68 318.22,-431.42"/>
</g>
<!-- Node6 -->
<g id="node6" class="node">
<title>Node6</title>
<g id="a_node6"><a xlink:href="class_urho3_d_1_1_context.html#a154a078ece29446d7796ddabd3fbec71" target="_top" xlink:title="Return attribute descriptions for an object type, or null if none defined.">
<polygon fill="#fff0f0" stroke="red" points="649,-555.5 497,-555.5 497,-536.5 649,-536.5 649,-555.5"/>
<text text-anchor="middle" x="573" y="-543.5" font-family="Roboto" font-size="10.00">Urho3D::Context::GetAttributes</text>
</a>
</g>
</g>
<!-- Node5&#45;&gt;Node6 -->
<g id="edge6" class="edge">
<title>Node5&#45;&gt;Node6</title>
<path fill="none" stroke="#63b8ff" d="M433.3,-570.75C455.36,-566.82 481.38,-562.17 504.89,-557.98"/>
<polygon fill="#63b8ff" stroke="#63b8ff" points="505.48,-561.43 514.71,-556.23 504.25,-554.54 505.48,-561.43"/>
</g>
<!-- Node15 -->
<g id="node7" class="node">
<title>Node15</title>
<g id="a_node7"><a xlink:href="class_urho3_d_1_1_object.html#a4c7af660afc8467a99d1f17c8d099b3b" target="_top" xlink:title=" ">
<polygon fill="white" stroke="#666666" points="634,-592.5 512,-592.5 512,-573.5 634,-573.5 634,-592.5"/>
<text text-anchor="middle" x="573" y="-580.5" font-family="Roboto" font-size="10.00">Urho3D::Object::GetType</text>
</a>
</g>
</g>
<!-- Node5&#45;&gt;Node15 -->
<g id="edge7" class="edge">
<title>Node5&#45;&gt;Node15</title>
<path fill="none" stroke="#63b8ff" d="M433.3,-580.82C453.94,-581.14 478.05,-581.52 500.32,-581.87"/>
<polygon fill="#63b8ff" stroke="#63b8ff" points="500.2,-585.37 510.26,-582.03 500.31,-578.37 500.2,-585.37"/>
</g>
<!-- Node24 -->
<g id="node16" class="node">
<title>Node24</title>
<g id="a_node16"><a xlink:href="class_urho3_d_1_1_j_s_o_n_value.html#aaa39b31173d0e0dd2021de34b08cc4a0" target="_top" xlink:title="Set value type and number type, internal function.">
<polygon fill="#fff0f0" stroke="red" points="435,-30 326,-30 326,0 435,0 435,-30"/>
<text text-anchor="start" x="334" y="-18" font-family="Roboto" font-size="10.00">Urho3D::JSONValue::</text>
<text text-anchor="middle" x="380.5" y="-7" font-family="Roboto" font-size="10.00">SetType</text>
</a>
</g>
</g>
<!-- Node23&#45;&gt;Node24 -->
<g id="edge17" class="edge">
<title>Node23&#45;&gt;Node24</title>
<path fill="none" stroke="#63b8ff" d="M219.77,-80.15C238.58,-69.06 270.73,-51.02 300,-39 304.83,-37.02 309.89,-35.11 315,-33.31"/>
<polygon fill="#63b8ff" stroke="#63b8ff" points="315.76,-36.75 324.12,-30.23 313.52,-30.11 315.76,-36.75"/>
</g>
<!-- Node26&#45;&gt;Node19 -->
<g id="edge28" class="edge">
<title>Node26&#45;&gt;Node19</title>
<path fill="none" stroke="#63b8ff" d="M214.77,-319.16C231.14,-340.05 263.55,-377.33 300,-397 305.01,-399.7 310.41,-402 315.95,-403.95"/>
<polygon fill="#63b8ff" stroke="#63b8ff" points="314.68,-407.22 325.27,-406.85 316.76,-400.54 314.68,-407.22"/>
</g>
<!-- Node26&#45;&gt;Node20 -->
<g id="edge22" class="edge">
<title>Node26&#45;&gt;Node20</title>
<path fill="none" stroke="#63b8ff" d="M225.52,-319.39C244.47,-331.98 272.96,-349.38 300,-360 304.65,-361.82 309.52,-363.49 314.47,-365"/>
<polygon fill="#63b8ff" stroke="#63b8ff" points="313.35,-368.32 323.92,-367.66 315.24,-361.58 313.35,-368.32"/>
</g>
<!-- Node27 -->
<g id="node18" class="node">
<title>Node27</title>
<g id="a_node18"><a xlink:href="class_urho3_d_1_1_variant.html#a6cd65631c81e9f1fcfeca4870c690420" target="_top" xlink:title="Return bool or false on type mismatch.">
<polygon fill="white" stroke="#666666" points="443,-350.5 318,-350.5 318,-331.5 443,-331.5 443,-350.5"/>
<text text-anchor="middle" x="380.5" y="-338.5" font-family="Roboto" font-size="10.00">Urho3D::Variant::GetBool</text>
</a>
</g>
</g>
<!-- Node26&#45;&gt;Node27 -->
<g id="edge19" class="edge">
<title>Node26&#45;&gt;Node27</title>
<path fill="none" stroke="#63b8ff" d="M257.26,-315.3C277.39,-319.53 300.35,-324.36 320.9,-328.68"/>
<polygon fill="#63b8ff" stroke="#63b8ff" points="320.04,-332.08 330.55,-330.71 321.48,-325.23 320.04,-332.08"/>
</g>
<!-- Node28 -->
<g id="node19" class="node">
<title>Node28</title>
<g id="a_node19"><a xlink:href="class_urho3_d_1_1_variant.html#af1685b3c414986d0f26d68d8cd115be9" target="_top" xlink:title="Return double or zero on type mismatch. Ints and floats are converted.">
<polygon fill="white" stroke="#666666" points="448.5,-313.5 312.5,-313.5 312.5,-294.5 448.5,-294.5 448.5,-313.5"/>
<text text-anchor="middle" x="380.5" y="-301.5" font-family="Roboto" font-size="10.00">Urho3D::Variant::GetDouble</text>
</a>
</g>
</g>
<!-- Node26&#45;&gt;Node28 -->
<g id="edge20" class="edge">
<title>Node26&#45;&gt;Node28</title>
<path fill="none" stroke="#63b8ff" d="M257.26,-304C271.04,-304 286.14,-304 300.88,-304"/>
<polygon fill="#63b8ff" stroke="#63b8ff" points="300.55,-307.5 310.55,-304 300.55,-300.5 300.55,-307.5"/>
</g>
<!-- Node29 -->
<g id="node20" class="node">
<title>Node29</title>
<g id="a_node20"><a xlink:href="class_urho3_d_1_1_variant.html#ae7c3f7d2a22b443a233548abe65355f3" target="_top" xlink:title="Return float or zero on type mismatch. Ints and doubles are converted.">
<polygon fill="white" stroke="#666666" points="444,-276.5 317,-276.5 317,-257.5 444,-257.5 444,-276.5"/>
<text text-anchor="middle" x="380.5" y="-264.5" font-family="Roboto" font-size="10.00">Urho3D::Variant::GetFloat</text>
</a>
</g>
</g>
<!-- Node26&#45;&gt;Node29 -->
<g id="edge21" class="edge">
<title>Node26&#45;&gt;Node29</title>
<path fill="none" stroke="#63b8ff" d="M257.26,-292.7C277.39,-288.47 300.35,-283.64 320.9,-279.32"/>
<polygon fill="#63b8ff" stroke="#63b8ff" points="321.48,-282.77 330.55,-277.29 320.04,-275.92 321.48,-282.77"/>
</g>
<!-- Node30 -->
<g id="node21" class="node">
<title>Node30</title>
<g id="a_node21"><a xlink:href="class_urho3_d_1_1_variant.html#a9fef7ef6f527f3647dc01cdc73b4db4c" target="_top" xlink:title="Return a resource reference or empty on type mismatch.">
<polygon fill="white" stroke="#666666" points="461,-239.5 300,-239.5 300,-220.5 461,-220.5 461,-239.5"/>
<text text-anchor="middle" x="380.5" y="-227.5" font-family="Roboto" font-size="10.00">Urho3D::Variant::GetResourceRef</text>
</a>
</g>
</g>
<!-- Node26&#45;&gt;Node30 -->
<g id="edge23" class="edge">
<title>Node26&#45;&gt;Node30</title>
<path fill="none" stroke="#63b8ff" d="M247.63,-288.51C253.28,-285.95 258.88,-283.1 264,-280 282.06,-269.07 281.2,-258.61 300,-249 303.94,-246.99 308.1,-245.18 312.36,-243.56"/>
<polygon fill="#63b8ff" stroke="#63b8ff" points="313.34,-246.93 321.69,-240.4 311.1,-240.3 313.34,-246.93"/>
</g>
<!-- Node31 -->
<g id="node22" class="node">
<title>Node31</title>
<g id="a_node22"><a xlink:href="class_urho3_d_1_1_variant.html#ace9fd18265875dffeab276f01dd2e0f7" target="_top" xlink:title="Return a resource reference list or empty on type mismatch.">
<polygon fill="white" stroke="#666666" points="453.5,-202 307.5,-202 307.5,-172 453.5,-172 453.5,-202"/>
<text text-anchor="start" x="315.5" y="-190" font-family="Roboto" font-size="10.00">Urho3D::Variant::GetResource</text>
<text text-anchor="middle" x="380.5" y="-179" font-family="Roboto" font-size="10.00">RefList</text>
</a>
</g>
</g>
<!-- Node26&#45;&gt;Node31 -->
<g id="edge24" class="edge">
<title>Node26&#45;&gt;Node31</title>
<path fill="none" stroke="#63b8ff" d="M251.94,-288.54C256.27,-286.07 260.38,-283.24 264,-280 289.46,-257.18 273.72,-233.88 300,-212 301.67,-210.61 303.41,-209.3 305.22,-208.06"/>
<polygon fill="#63b8ff" stroke="#63b8ff" points="306.58,-211.32 313.41,-203.22 303.02,-205.29 306.58,-211.32"/>
</g>
<!-- Node32 -->
<g id="node23" class="node">
<title>Node32</title>
<g id="a_node23"><a xlink:href="class_urho3_d_1_1_variant.html#afbe0cfc700df69ffc981a524379589c5" target="_top" xlink:title="Return string or empty on type mismatch.">
<polygon fill="white" stroke="#666666" points="446,-153.5 315,-153.5 315,-134.5 446,-134.5 446,-153.5"/>
<text text-anchor="middle" x="380.5" y="-141.5" font-family="Roboto" font-size="10.00">Urho3D::Variant::GetString</text>
</a>
</g>
</g>
<!-- Node26&#45;&gt;Node32 -->
<g id="edge25" class="edge">
<title>Node26&#45;&gt;Node32</title>
<path fill="none" stroke="#63b8ff" d="M253.48,-288.67C257.35,-286.19 260.93,-283.32 264,-280 300.92,-240.04 260.32,-200.22 300,-163 301.63,-161.47 303.36,-160.06 305.17,-158.75"/>
<polygon fill="#63b8ff" stroke="#63b8ff" points="306.67,-161.93 313.52,-153.85 303.13,-155.89 306.67,-161.93"/>
</g>
<!-- Node33 -->
<g id="node24" class="node">
<title>Node33</title>
<g id="a_node24"><a xlink:href="class_urho3_d_1_1_variant.html#a7e1d4e2925ea5430868fc2aeaf9b1d93" target="_top" xlink:title="Return a string vector or empty on type mismatch.">
<polygon fill="white" stroke="#666666" points="446,-116 315,-116 315,-86 446,-86 446,-116"/>
<text text-anchor="start" x="323" y="-104" font-family="Roboto" font-size="10.00">Urho3D::Variant::GetString</text>
<text text-anchor="middle" x="380.5" y="-93" font-family="Roboto" font-size="10.00">Vector</text>
</a>
</g>
</g>
<!-- Node26&#45;&gt;Node33 -->
<g id="edge26" class="edge">
<title>Node26&#45;&gt;Node33</title>
<path fill="none" stroke="#63b8ff" d="M254.3,-288.51C257.9,-286.07 261.2,-283.25 264,-280 310.14,-226.4 251.64,-176.61 300,-125 301.72,-123.16 303.58,-121.46 305.55,-119.89"/>
<polygon fill="#63b8ff" stroke="#63b8ff" points="307.1,-123.06 313.52,-114.63 303.24,-117.22 307.1,-123.06"/>
</g>
<!-- Node34 -->
<g id="node25" class="node">
<title>Node34</title>
<g id="a_node25"><a xlink:href="class_urho3_d_1_1_variant.html#a7bb661356c0ba549b5a3d1f4133dc627" target="_top" xlink:title=" ">
<polygon fill="white" stroke="#666666" points="443,-67.5 318,-67.5 318,-48.5 443,-48.5 443,-67.5"/>
<text text-anchor="middle" x="380.5" y="-55.5" font-family="Roboto" font-size="10.00">Urho3D::Variant::GetType</text>
</a>
</g>
</g>
<!-- Node26&#45;&gt;Node34 -->
<g id="edge27" class="edge">
<title>Node26&#45;&gt;Node34</title>
<path fill="none" stroke="#63b8ff" d="M254.49,-288.67C258.04,-286.2 261.29,-283.33 264,-280 321.92,-209 237.15,-143.68 300,-77 302.33,-74.53 304.91,-72.36 307.69,-70.45"/>
<polygon fill="#63b8ff" stroke="#63b8ff" points="309.36,-73.52 316.43,-65.64 305.98,-67.39 309.36,-73.52"/>
</g>
</g>
</svg>
