<?xml version="1.0" encoding="UTF-8" standalone="no"?>
<!DOCTYPE svg PUBLIC "-//W3C//DTD SVG 1.1//EN"
 "http://www.w3.org/Graphics/SVG/1.1/DTD/svg11.dtd">
<!-- Generated by graphviz version 7.0.3 (0)
 -->
<!-- Title: Urho3D::RaycastVehicle::GetNumWheels Pages: 1 -->
<svg width="443pt" height="326pt"
 viewBox="0.00 0.00 443.00 326.00" xmlns="http://www.w3.org/2000/svg" xmlns:xlink="http://www.w3.org/1999/xlink">
<g id="graph0" class="graph" transform="scale(1 1) rotate(0) translate(4 322)">
<title>Urho3D::RaycastVehicle::GetNumWheels</title>
<!-- Node1 -->
<g id="node1" class="node">
<title>Node1</title>
<g id="a_node1"><a xlink:title=" ">
<polygon fill="#999999" stroke="#666666" points="435,-174 314,-174 314,-144 435,-144 435,-174"/>
<text text-anchor="start" x="322" y="-162" font-family="Roboto" font-size="10.00">Urho3D::RaycastVehicle</text>
<text text-anchor="middle" x="374.5" y="-151" font-family="Roboto" font-size="10.00">::GetNumWheels</text>
</a>
</g>
</g>
<!-- Node2 -->
<g id="node2" class="node">
<title>Node2</title>
<g id="a_node2"><a xlink:href="class_urho3_d_1_1_raycast_vehicle.html#af981f15be395db66a1ae5cbdee4bbcc4" target="_top" xlink:title="Add a wheel. All parameters are relative to RigidBody / node.">
<polygon fill="white" stroke="#666666" points="278,-318 157,-318 157,-288 278,-288 278,-318"/>
<text text-anchor="start" x="165" y="-306" font-family="Roboto" font-size="10.00">Urho3D::RaycastVehicle</text>
<text text-anchor="middle" x="217.5" y="-295" font-family="Roboto" font-size="10.00">::AddWheel</text>
</a>
</g>
</g>
<!-- Node1&#45;&gt;Node2 -->
<g id="edge1" class="edge">
<title>Node1&#45;&gt;Node2</title>
<path fill="none" stroke="#63b8ff" d="M358.98,-184.14C342.42,-210.88 313.04,-252.86 278,-279 273.71,-282.2 268.94,-285.04 264.02,-287.55"/>
<polygon fill="#63b8ff" stroke="#63b8ff" points="361.93,-186.03 364.1,-175.66 355.94,-182.41 361.93,-186.03"/>
</g>
<!-- Node3 -->
<g id="node3" class="node">
<title>Node3</title>
<g id="a_node3"><a xlink:href="class_urho3_d_1_1_raycast_vehicle.html#adc47ce3c6093158230b3c09e36c35afc" target="_top" xlink:title="Perform post&#45;load after deserialization. Acquire the components from the scene nodes.">
<polygon fill="white" stroke="#666666" points="278,-270 157,-270 157,-240 278,-240 278,-270"/>
<text text-anchor="start" x="165" y="-258" font-family="Roboto" font-size="10.00">Urho3D::RaycastVehicle</text>
<text text-anchor="middle" x="217.5" y="-247" font-family="Roboto" font-size="10.00">::ApplyAttributes</text>
</a>
</g>
</g>
<!-- Node1&#45;&gt;Node3 -->
<g id="edge2" class="edge">
<title>Node1&#45;&gt;Node3</title>
<path fill="none" stroke="#63b8ff" d="M347.47,-181.6C328.96,-196.91 303.05,-216.83 278,-231 272.57,-234.07 266.67,-236.95 260.76,-239.57"/>
<polygon fill="#63b8ff" stroke="#63b8ff" points="349.6,-184.38 355.01,-175.27 345.1,-179.02 349.6,-184.38"/>
</g>
<!-- Node4 -->
<g id="node4" class="node">
<title>Node4</title>
<g id="a_node4"><a xlink:href="class_urho3_d_1_1_raycast_vehicle.html#a114ce68c6184ef9278f7782c799307eb" target="_top" xlink:title="Perform fixed step post&#45;update.">
<polygon fill="white" stroke="#666666" points="278,-222 157,-222 157,-192 278,-192 278,-222"/>
<text text-anchor="start" x="165" y="-210" font-family="Roboto" font-size="10.00">Urho3D::RaycastVehicle</text>
<text text-anchor="middle" x="217.5" y="-199" font-family="Roboto" font-size="10.00">::FixedPostUpdate</text>
</a>
</g>
</g>
<!-- Node1&#45;&gt;Node4 -->
<g id="edge3" class="edge">
<title>Node1&#45;&gt;Node4</title>
<path fill="none" stroke="#63b8ff" d="M313.01,-177.73C298.21,-182.32 282.54,-187.17 268.3,-191.58"/>
<polygon fill="#63b8ff" stroke="#63b8ff" points="313.64,-181.2 322.16,-174.9 311.57,-174.51 313.64,-181.2"/>
</g>
<!-- Node5 -->
<g id="node5" class="node">
<title>Node5</title>
<g id="a_node5"><a xlink:href="class_urho3_d_1_1_raycast_vehicle.html#aa7321f21d4f94331935870f23c0580d2" target="_top" xlink:title="Perform fixed step pre&#45;update.">
<polygon fill="white" stroke="#666666" points="278,-174 157,-174 157,-144 278,-144 278,-174"/>
<text text-anchor="start" x="165" y="-162" font-family="Roboto" font-size="10.00">Urho3D::RaycastVehicle</text>
<text text-anchor="middle" x="217.5" y="-151" font-family="Roboto" font-size="10.00">::FixedUpdate</text>
</a>
</g>
</g>
<!-- Node1&#45;&gt;Node5 -->
<g id="edge4" class="edge">
<title>Node1&#45;&gt;Node5</title>
<path fill="none" stroke="#63b8ff" d="M302.31,-159C294.27,-159 286.14,-159 278.27,-159"/>
<polygon fill="#63b8ff" stroke="#63b8ff" points="302.06,-162.5 312.06,-159 302.06,-155.5 302.06,-162.5"/>
</g>
<!-- Node6 -->
<g id="node6" class="node">
<title>Node6</title>
<g id="a_node6"><a xlink:href="class_urho3_d_1_1_raycast_vehicle.html#afb2e747a991eaef885084e2ee68918d2" target="_top" xlink:title="Get wheel data attribute for serialization.">
<polygon fill="white" stroke="#666666" points="278,-126 157,-126 157,-96 278,-96 278,-126"/>
<text text-anchor="start" x="165" y="-114" font-family="Roboto" font-size="10.00">Urho3D::RaycastVehicle</text>
<text text-anchor="middle" x="217.5" y="-103" font-family="Roboto" font-size="10.00">::GetWheelDataAttr</text>
</a>
</g>
</g>
<!-- Node1&#45;&gt;Node6 -->
<g id="edge5" class="edge">
<title>Node1&#45;&gt;Node6</title>
<path fill="none" stroke="#63b8ff" d="M313.01,-140.27C298.21,-135.68 282.54,-130.83 268.3,-126.42"/>
<polygon fill="#63b8ff" stroke="#63b8ff" points="311.57,-143.49 322.16,-143.1 313.64,-136.8 311.57,-143.49"/>
</g>
<!-- Node8 -->
<g id="node8" class="node">
<title>Node8</title>
<g id="a_node8"><a xlink:href="class_urho3_d_1_1_raycast_vehicle.html#af8fbffa173151c09fa798fac6eaf1b8d" target="_top" xlink:title="Perform variable step post&#45;update.">
<polygon fill="white" stroke="#666666" points="278,-78 157,-78 157,-48 278,-48 278,-78"/>
<text text-anchor="start" x="165" y="-66" font-family="Roboto" font-size="10.00">Urho3D::RaycastVehicle</text>
<text text-anchor="middle" x="217.5" y="-55" font-family="Roboto" font-size="10.00">::PostUpdate</text>
</a>
</g>
</g>
<!-- Node1&#45;&gt;Node8 -->
<g id="edge7" class="edge">
<title>Node1&#45;&gt;Node8</title>
<path fill="none" stroke="#63b8ff" d="M347.47,-136.4C328.96,-121.09 303.05,-101.17 278,-87 272.57,-83.93 266.67,-81.05 260.76,-78.43"/>
<polygon fill="#63b8ff" stroke="#63b8ff" points="345.1,-138.98 355.01,-142.73 349.6,-133.62 345.1,-138.98"/>
</g>
<!-- Node9 -->
<g id="node9" class="node">
<title>Node9</title>
<g id="a_node9"><a xlink:href="class_urho3_d_1_1_raycast_vehicle.html#a9e0099927ccacd0750812984c203a96c" target="_top" xlink:title="Sets node initial positions.">
<polygon fill="white" stroke="#666666" points="278,-30 157,-30 157,0 278,0 278,-30"/>
<text text-anchor="start" x="165" y="-18" font-family="Roboto" font-size="10.00">Urho3D::RaycastVehicle</text>
<text text-anchor="middle" x="217.5" y="-7" font-family="Roboto" font-size="10.00">::ResetWheels</text>
</a>
</g>
</g>
<!-- Node1&#45;&gt;Node9 -->
<g id="edge8" class="edge">
<title>Node1&#45;&gt;Node9</title>
<path fill="none" stroke="#63b8ff" d="M358.98,-133.86C342.42,-107.12 313.04,-65.14 278,-39 273.71,-35.8 268.94,-32.96 264.02,-30.45"/>
<polygon fill="#63b8ff" stroke="#63b8ff" points="355.94,-135.59 364.1,-142.34 361.93,-131.97 355.94,-135.59"/>
</g>
<!-- Node7 -->
<g id="node7" class="node">
<title>Node7</title>
<g id="a_node7"><a xlink:href="class_urho3_d_1_1_raycast_vehicle.html#a4a878a41bde11e6deaab32480346c30d" target="_top" xlink:title=" ">
<polygon fill="white" stroke="#666666" points="121,-126 0,-126 0,-96 121,-96 121,-126"/>
<text text-anchor="start" x="8" y="-114" font-family="Roboto" font-size="10.00">Urho3D::RaycastVehicle</text>
<text text-anchor="middle" x="60.5" y="-103" font-family="Roboto" font-size="10.00">::RegisterObject</text>
</a>
</g>
</g>
<!-- Node6&#45;&gt;Node7 -->
<g id="edge6" class="edge">
<title>Node6&#45;&gt;Node7</title>
<path fill="none" stroke="#63b8ff" d="M145.31,-111C137.27,-111 129.14,-111 121.27,-111"/>
<polygon fill="#63b8ff" stroke="#63b8ff" points="145.06,-114.5 155.06,-111 145.06,-107.5 145.06,-114.5"/>
</g>
</g>
</svg>
