<?xml version="1.0" encoding="UTF-8" standalone="no"?>
<!DOCTYPE svg PUBLIC "-//W3C//DTD SVG 1.1//EN"
 "http://www.w3.org/Graphics/SVG/1.1/DTD/svg11.dtd">
<!-- Generated by graphviz version 7.0.3 (0)
 -->
<!-- Title: Urho3D::UIElement::GetColor Pages: 1 -->
<svg width="1377pt" height="393pt"
 viewBox="0.00 0.00 1377.00 393.00" xmlns="http://www.w3.org/2000/svg" xmlns:xlink="http://www.w3.org/1999/xlink">
<g id="graph0" class="graph" transform="scale(1 1) rotate(0) translate(4 389)">
<title>Urho3D::UIElement::GetColor</title>
<!-- Node1 -->
<g id="node1" class="node">
<title>Node1</title>
<g id="a_node1"><a xlink:title=" ">
<polygon fill="#999999" stroke="#666666" points="1369,-125 1264,-125 1264,-95 1369,-95 1369,-125"/>
<text text-anchor="start" x="1272" y="-113" font-family="Roboto" font-size="10.00">Urho3D::UIElement::</text>
<text text-anchor="middle" x="1316.5" y="-102" font-family="Roboto" font-size="10.00">GetColor</text>
</a>
</g>
</g>
<!-- Node2 -->
<g id="node2" class="node">
<title>Node2</title>
<g id="a_node2"><a xlink:href="class_urho3_d_1_1_text3_d.html#ad2f3f81eb037002d4668e42feb98265f" target="_top" xlink:title=" ">
<polygon fill="white" stroke="#666666" points="1212,-162.5 1082,-162.5 1082,-143.5 1212,-143.5 1212,-162.5"/>
<text text-anchor="middle" x="1147" y="-150.5" font-family="Roboto" font-size="10.00">Urho3D::Text3D::GetColor</text>
</a>
</g>
</g>
<!-- Node1&#45;&gt;Node2 -->
<g id="edge1" class="edge">
<title>Node1&#45;&gt;Node2</title>
<path fill="none" stroke="#63b8ff" d="M1252.88,-127.46C1244.53,-129.7 1236.06,-131.94 1228,-134 1216.11,-137.04 1203.18,-140.19 1191.25,-143.02"/>
<polygon fill="#63b8ff" stroke="#63b8ff" points="1253.56,-130.9 1262.3,-124.91 1251.73,-124.14 1253.56,-130.9"/>
</g>
<!-- Node3 -->
<g id="node3" class="node">
<title>Node3</title>
<g id="a_node3"><a xlink:href="class_urho3_d_1_1_u_i_batch.html#a0419872b79f435029f6358e5e691075c" target="_top" xlink:title="Return an interpolated color for the UI element.">
<polygon fill="white" stroke="#666666" points="1228,-125 1066,-125 1066,-95 1228,-95 1228,-125"/>
<text text-anchor="start" x="1074" y="-113" font-family="Roboto" font-size="10.00">Urho3D::UIBatch::GetInterpolated</text>
<text text-anchor="middle" x="1147" y="-102" font-family="Roboto" font-size="10.00">Color</text>
</a>
</g>
</g>
<!-- Node1&#45;&gt;Node3 -->
<g id="edge2" class="edge">
<title>Node1&#45;&gt;Node3</title>
<path fill="none" stroke="#63b8ff" d="M1252.55,-110C1244.66,-110 1236.51,-110 1228.41,-110"/>
<polygon fill="#63b8ff" stroke="#63b8ff" points="1252.36,-113.5 1262.36,-110 1252.36,-106.5 1252.36,-113.5"/>
</g>
<!-- Node11 -->
<g id="node11" class="node">
<title>Node11</title>
<g id="a_node11"><a xlink:href="class_urho3_d_1_1_text3_d.html#a0e5e82af6713193ee73b60191a2048e0" target="_top" xlink:title=" ">
<polygon fill="white" stroke="#666666" points="311.5,-23.5 182.5,-23.5 182.5,-4.5 311.5,-4.5 311.5,-23.5"/>
<text text-anchor="middle" x="247" y="-11.5" font-family="Roboto" font-size="10.00">Urho3D::Text3D::SetColor</text>
</a>
</g>
</g>
<!-- Node1&#45;&gt;Node11 -->
<g id="edge28" class="edge">
<title>Node1&#45;&gt;Node11</title>
<path fill="none" stroke="#63b8ff" d="M1277.25,-89.65C1213.82,-57.86 1082.03,0 963,0 963,0 963,0 609,0 504.88,0 384,-5.89 311.88,-10.03"/>
<polygon fill="#63b8ff" stroke="#63b8ff" points="1275.34,-92.61 1285.84,-94.02 1278.51,-86.37 1275.34,-92.61"/>
</g>
<!-- Node4 -->
<g id="node4" class="node">
<title>Node4</title>
<g id="a_node4"><a xlink:href="class_urho3_d_1_1_u_i_batch.html#aadd10d72e59d9f8e1001b1b87d0ca40f" target="_top" xlink:title="Add a quad.">
<polygon fill="white" stroke="#666666" points="1030,-207.5 894,-207.5 894,-188.5 1030,-188.5 1030,-207.5"/>
<text text-anchor="middle" x="962" y="-195.5" font-family="Roboto" font-size="10.00">Urho3D::UIBatch::AddQuad</text>
</a>
</g>
</g>
<!-- Node3&#45;&gt;Node4 -->
<g id="edge3" class="edge">
<title>Node3&#45;&gt;Node4</title>
<path fill="none" stroke="#63b8ff" d="M1077.53,-129.2C1073.59,-130.72 1069.72,-132.32 1066,-134 1031.84,-149.41 995.39,-174.33 976.35,-188.09"/>
<polygon fill="#63b8ff" stroke="#63b8ff" points="1078.45,-132.59 1086.66,-125.9 1076.07,-126.01 1078.45,-132.59"/>
</g>
<!-- Node5 -->
<g id="node5" class="node">
<title>Node5</title>
<g id="a_node5"><a xlink:href="class_urho3_d_1_1_u_i_batch.html#a0c8fcf983576330117d1f3574a831821" target="_top" xlink:title="Add a quad with tiled texture.">
<polygon fill="white" stroke="#666666" points="853,-342.5 717,-342.5 717,-323.5 853,-323.5 853,-342.5"/>
<text text-anchor="middle" x="785" y="-330.5" font-family="Roboto" font-size="10.00">Urho3D::UIBatch::AddQuad</text>
</a>
</g>
</g>
<!-- Node4&#45;&gt;Node5 -->
<g id="edge4" class="edge">
<title>Node4&#45;&gt;Node5</title>
<path fill="none" stroke="#63b8ff" d="M949.22,-217.58C932.36,-243.87 898.83,-290.14 858,-315 852.72,-318.22 846.88,-320.86 840.89,-323.03"/>
<polygon fill="#63b8ff" stroke="#63b8ff" points="952.09,-219.59 954.41,-209.25 946.15,-215.88 952.09,-219.59"/>
</g>
<!-- Node6 -->
<g id="node6" class="node">
<title>Node6</title>
<g id="a_node6"><a xlink:href="class_urho3_d_1_1_text.html#a18a702a227da75230588bee036a754f5" target="_top" xlink:title="Construct batch.">
<polygon fill="white" stroke="#666666" points="858,-305.5 712,-305.5 712,-286.5 858,-286.5 858,-305.5"/>
<text text-anchor="middle" x="785" y="-293.5" font-family="Roboto" font-size="10.00">Urho3D::Text::ConstructBatch</text>
</a>
</g>
</g>
<!-- Node4&#45;&gt;Node6 -->
<g id="edge5" class="edge">
<title>Node4&#45;&gt;Node6</title>
<path fill="none" stroke="#63b8ff" d="M940.94,-215.23C921,-231.65 889,-256.16 858,-272 846.97,-277.64 834.33,-282.37 822.76,-286.1"/>
<polygon fill="#63b8ff" stroke="#63b8ff" points="943.12,-217.97 948.54,-208.87 938.63,-212.6 943.12,-217.97"/>
</g>
<!-- Node7 -->
<g id="node7" class="node">
<title>Node7</title>
<g id="a_node7"><a xlink:href="class_urho3_d_1_1_text.html#ad553fd06643ea9dbbf0c18cbee39d9f0" target="_top" xlink:title="Return UI rendering batches.">
<polygon fill="white" stroke="#666666" points="674,-226.5 546,-226.5 546,-207.5 674,-207.5 674,-226.5"/>
<text text-anchor="middle" x="610" y="-214.5" font-family="Roboto" font-size="10.00">Urho3D::Text::GetBatches</text>
</a>
</g>
</g>
<!-- Node4&#45;&gt;Node7 -->
<g id="edge19" class="edge">
<title>Node4&#45;&gt;Node7</title>
<path fill="none" stroke="#63b8ff" d="M931.53,-212.82C911.39,-222.1 883.77,-233.17 858,-238 794.22,-249.95 776.55,-244.64 712,-238 691.16,-235.86 668.27,-231.29 649.56,-226.95"/>
<polygon fill="#63b8ff" stroke="#63b8ff" points="932.99,-216 940.52,-208.55 929.99,-209.68 932.99,-216"/>
</g>
<!-- Node18 -->
<g id="node18" class="node">
<title>Node18</title>
<g id="a_node18"><a xlink:href="class_urho3_d_1_1_sprite.html#a76d599f607f45d7abbf5389983dec9b5" target="_top" xlink:title="Return UI rendering batches.">
<polygon fill="white" stroke="#666666" points="852.5,-229.5 717.5,-229.5 717.5,-210.5 852.5,-210.5 852.5,-229.5"/>
<text text-anchor="middle" x="785" y="-217.5" font-family="Roboto" font-size="10.00">Urho3D::Sprite::GetBatches</text>
</a>
</g>
</g>
<!-- Node4&#45;&gt;Node18 -->
<g id="edge18" class="edge">
<title>Node4&#45;&gt;Node18</title>
<path fill="none" stroke="#63b8ff" d="M882.17,-207.91C872.36,-209.14 862.4,-210.4 852.8,-211.6"/>
<polygon fill="#63b8ff" stroke="#63b8ff" points="882.6,-211.38 892.09,-206.66 881.73,-204.44 882.6,-211.38"/>
</g>
<!-- Node19 -->
<g id="node19" class="node">
<title>Node19</title>
<g id="a_node19"><a xlink:href="class_urho3_d_1_1_u_i_selectable.html#aaa115c0723cfc723c1f714f61e732d74" target="_top" xlink:title="Return UI rendering batches.">
<polygon fill="white" stroke="#666666" points="840,-192 730,-192 730,-162 840,-162 840,-192"/>
<text text-anchor="start" x="738" y="-180" font-family="Roboto" font-size="10.00">Urho3D::UISelectable</text>
<text text-anchor="middle" x="785" y="-169" font-family="Roboto" font-size="10.00">::GetBatches</text>
</a>
</g>
</g>
<!-- Node4&#45;&gt;Node19 -->
<g id="edge20" class="edge">
<title>Node4&#45;&gt;Node19</title>
<path fill="none" stroke="#63b8ff" d="M882.32,-188.56C868.14,-186.86 853.65,-185.12 840.36,-183.52"/>
<polygon fill="#63b8ff" stroke="#63b8ff" points="881.74,-192.01 892.09,-189.73 882.58,-185.06 881.74,-192.01"/>
</g>
<!-- Node20 -->
<g id="node20" class="node">
<title>Node20</title>
<g id="a_node20"><a xlink:href="class_urho3_d_1_1_window.html#a455bbccbf47246497a114dde4d518098" target="_top" xlink:title="Return UI rendering batches.">
<polygon fill="white" stroke="#666666" points="858,-143.5 712,-143.5 712,-124.5 858,-124.5 858,-143.5"/>
<text text-anchor="middle" x="785" y="-131.5" font-family="Roboto" font-size="10.00">Urho3D::Window::GetBatches</text>
</a>
</g>
</g>
<!-- Node4&#45;&gt;Node20 -->
<g id="edge22" class="edge">
<title>Node4&#45;&gt;Node20</title>
<path fill="none" stroke="#63b8ff" d="M930.68,-183.28C910.42,-173.81 883,-161.7 858,-153 848.48,-149.69 838.07,-146.63 828.21,-143.98"/>
<polygon fill="#63b8ff" stroke="#63b8ff" points="928.95,-186.33 939.48,-187.44 931.94,-180 928.95,-186.33"/>
</g>
<!-- Node21 -->
<g id="node21" class="node">
<title>Node21</title>
<g id="a_node21"><a xlink:href="class_urho3_d_1_1_border_image.html#ab2b83d25430d5985c6945455808348b7" target="_top" xlink:title="Return UI rendering batches with offset to image rectangle.">
<polygon fill="white" stroke="#666666" points="841.5,-106 728.5,-106 728.5,-76 841.5,-76 841.5,-106"/>
<text text-anchor="start" x="736.5" y="-94" font-family="Roboto" font-size="10.00">Urho3D::BorderImage</text>
<text text-anchor="middle" x="785" y="-83" font-family="Roboto" font-size="10.00">::GetBatches</text>
</a>
</g>
</g>
<!-- Node4&#45;&gt;Node21 -->
<g id="edge23" class="edge">
<title>Node4&#45;&gt;Node21</title>
<path fill="none" stroke="#63b8ff" d="M943.16,-180.26C923.69,-161.75 890.88,-132.96 858,-115 852.22,-111.84 845.95,-109 839.6,-106.48"/>
<polygon fill="#63b8ff" stroke="#63b8ff" points="940.65,-182.7 950.27,-187.14 945.52,-177.67 940.65,-182.7"/>
</g>
<!-- Node22 -->
<g id="node22" class="node">
<title>Node22</title>
<g id="a_node22"><a xlink:href="class_urho3_d_1_1_u_i_element.html#a25f627ac3b7e4f6319174670b7bb3c59" target="_top" xlink:title="Return UI rendering batches for debug draw.">
<polygon fill="white" stroke="#666666" points="843.5,-58 726.5,-58 726.5,-28 843.5,-28 843.5,-58"/>
<text text-anchor="start" x="734.5" y="-46" font-family="Roboto" font-size="10.00">Urho3D::UIElement::</text>
<text text-anchor="middle" x="785" y="-35" font-family="Roboto" font-size="10.00">GetDebugDrawBatches</text>
</a>
</g>
</g>
<!-- Node4&#45;&gt;Node22 -->
<g id="edge24" class="edge">
<title>Node4&#45;&gt;Node22</title>
<path fill="none" stroke="#63b8ff" d="M950.44,-178.19C934.24,-149.61 900.61,-96.98 858,-67 853.37,-63.74 848.26,-60.9 842.96,-58.43"/>
<polygon fill="#63b8ff" stroke="#63b8ff" points="947.33,-179.79 955.22,-186.86 953.46,-176.41 947.33,-179.79"/>
</g>
<!-- Node24 -->
<g id="node24" class="node">
<title>Node24</title>
<g id="a_node24"><a xlink:href="class_urho3_d_1_1_u_i.html#aa007010436204316b3fe4859db32458e" target="_top" xlink:title="Update the UI for rendering. Called by HandleRenderUpdate().">
<polygon fill="white" stroke="#666666" points="851,-379.5 719,-379.5 719,-360.5 851,-360.5 851,-379.5"/>
<text text-anchor="middle" x="785" y="-367.5" font-family="Roboto" font-size="10.00">Urho3D::UI::RenderUpdate</text>
</a>
</g>
</g>
<!-- Node4&#45;&gt;Node24 -->
<g id="edge26" class="edge">
<title>Node4&#45;&gt;Node24</title>
<path fill="none" stroke="#63b8ff" d="M953.3,-218.01C939.46,-251.2 907.18,-317.4 858,-352 853.36,-355.26 848.19,-357.93 842.81,-360.12"/>
<polygon fill="#63b8ff" stroke="#63b8ff" points="956.37,-219.74 956.85,-209.16 949.88,-217.13 956.37,-219.74"/>
</g>
<!-- Node6&#45;&gt;Node7 -->
<g id="edge6" class="edge">
<title>Node6&#45;&gt;Node7</title>
<path fill="none" stroke="#63b8ff" d="M739.29,-282.47C730.15,-279.32 720.68,-275.77 712,-272 680.87,-258.46 646.55,-238.65 627,-226.87"/>
<polygon fill="#63b8ff" stroke="#63b8ff" points="738.17,-285.78 748.76,-285.62 740.38,-279.14 738.17,-285.78"/>
</g>
<!-- Node8 -->
<g id="node8" class="node">
<title>Node8</title>
<g id="a_node8"><a xlink:href="class_urho3_d_1_1_text3_d.html#a1f643feab9477ca50a084501df1a8e3b" target="_top" xlink:title="Update text UI batches.">
<polygon fill="white" stroke="#666666" points="508,-177 368,-177 368,-147 508,-147 508,-177"/>
<text text-anchor="start" x="376" y="-165" font-family="Roboto" font-size="10.00">Urho3D::Text3D::UpdateText</text>
<text text-anchor="middle" x="438" y="-154" font-family="Roboto" font-size="10.00">Batches</text>
</a>
</g>
</g>
<!-- Node7&#45;&gt;Node8 -->
<g id="edge7" class="edge">
<title>Node7&#45;&gt;Node8</title>
<path fill="none" stroke="#63b8ff" d="M567.53,-203.58C543.17,-195.7 512.29,-185.71 486.9,-177.5"/>
<polygon fill="#63b8ff" stroke="#63b8ff" points="566.18,-206.83 576.77,-206.57 568.34,-200.17 566.18,-206.83"/>
</g>
<!-- Node9 -->
<g id="node9" class="node">
<title>Node9</title>
<g id="a_node9"><a xlink:href="class_urho3_d_1_1_text3_d.html#afb163e8eb837396d7578c13ea9224072" target="_top" xlink:title="Apply attribute changes that can not be applied immediately.">
<polygon fill="white" stroke="#666666" points="325.5,-257.5 168.5,-257.5 168.5,-238.5 325.5,-238.5 325.5,-257.5"/>
<text text-anchor="middle" x="247" y="-245.5" font-family="Roboto" font-size="10.00">Urho3D::Text3D::ApplyAttributes</text>
</a>
</g>
</g>
<!-- Node8&#45;&gt;Node9 -->
<g id="edge8" class="edge">
<title>Node8&#45;&gt;Node9</title>
<path fill="none" stroke="#63b8ff" d="M408.63,-183.94C388.31,-198.67 359.74,-217.43 332,-229 323.31,-232.63 313.8,-235.62 304.42,-238.07"/>
<polygon fill="#63b8ff" stroke="#63b8ff" points="410.45,-186.95 416.41,-178.19 406.29,-181.32 410.45,-186.95"/>
</g>
<!-- Node10 -->
<g id="node10" class="node">
<title>Node10</title>
<g id="a_node10"><a xlink:href="class_urho3_d_1_1_text3_d.html#a08bfb84e885535f73aeefb4181491e3d" target="_top" xlink:title="Recalculate the world&#45;space bounding box.">
<polygon fill="white" stroke="#666666" points="332,-220 162,-220 162,-190 332,-190 332,-220"/>
<text text-anchor="start" x="170" y="-208" font-family="Roboto" font-size="10.00">Urho3D::Text3D::OnWorldBounding</text>
<text text-anchor="middle" x="247" y="-197" font-family="Roboto" font-size="10.00">BoxUpdate</text>
</a>
</g>
</g>
<!-- Node8&#45;&gt;Node10 -->
<g id="edge9" class="edge">
<title>Node8&#45;&gt;Node10</title>
<path fill="none" stroke="#63b8ff" d="M357.97,-179.98C344.02,-183.15 329.61,-186.43 316,-189.53"/>
<polygon fill="#63b8ff" stroke="#63b8ff" points="358.58,-183.43 367.56,-177.8 357.03,-176.6 358.58,-183.43"/>
</g>
<!-- Node8&#45;&gt;Node11 -->
<g id="edge10" class="edge">
<title>Node8&#45;&gt;Node11</title>
<path fill="none" stroke="#63b8ff" d="M423.89,-137.04C406.86,-107.17 374.23,-57.96 332,-32 325.77,-28.17 318.85,-25.15 311.73,-22.77"/>
<polygon fill="#63b8ff" stroke="#63b8ff" points="420.62,-138.35 428.53,-145.4 426.74,-134.96 420.62,-138.35"/>
</g>
<!-- Node13 -->
<g id="node13" class="node">
<title>Node13</title>
<g id="a_node13"><a xlink:href="class_urho3_d_1_1_text3_d.html#a6c34a3c420fa1e6c35f4f4662c8248df" target="_top" xlink:title="Set font by looking from resource cache by name and font size. Return true if successful.">
<polygon fill="white" stroke="#666666" points="309,-171.5 185,-171.5 185,-152.5 309,-152.5 309,-171.5"/>
<text text-anchor="middle" x="247" y="-159.5" font-family="Roboto" font-size="10.00">Urho3D::Text3D::SetFont</text>
</a>
</g>
</g>
<!-- Node8&#45;&gt;Node13 -->
<g id="edge12" class="edge">
<title>Node8&#45;&gt;Node13</title>
<path fill="none" stroke="#63b8ff" d="M356.38,-162C340.68,-162 324.45,-162 309.49,-162"/>
<polygon fill="#63b8ff" stroke="#63b8ff" points="356.18,-165.5 366.18,-162 356.18,-158.5 356.18,-165.5"/>
</g>
<!-- Node14 -->
<g id="node14" class="node">
<title>Node14</title>
<g id="a_node14"><a xlink:href="class_urho3_d_1_1_text3_d.html#ae57645a33f1cefafd9b57908fba27569" target="_top" xlink:title=" ">
<polygon fill="white" stroke="#666666" points="318.5,-134.5 175.5,-134.5 175.5,-115.5 318.5,-115.5 318.5,-134.5"/>
<text text-anchor="middle" x="247" y="-122.5" font-family="Roboto" font-size="10.00">Urho3D::Text3D::SetFontSize</text>
</a>
</g>
</g>
<!-- Node8&#45;&gt;Node14 -->
<g id="edge13" class="edge">
<title>Node8&#45;&gt;Node14</title>
<path fill="none" stroke="#63b8ff" d="M356.63,-146.27C337.07,-142.44 316.7,-138.45 298.94,-134.97"/>
<polygon fill="#63b8ff" stroke="#63b8ff" points="355.73,-149.66 366.21,-148.14 357.07,-142.79 355.73,-149.66"/>
</g>
<!-- Node15 -->
<g id="node15" class="node">
<title>Node15</title>
<g id="a_node15"><a xlink:href="class_urho3_d_1_1_text3_d.html#a38405cba1bb3686bea808f0d997116e5" target="_top" xlink:title=" ">
<polygon fill="white" stroke="#666666" points="315.5,-97.5 178.5,-97.5 178.5,-78.5 315.5,-78.5 315.5,-97.5"/>
<text text-anchor="middle" x="247" y="-85.5" font-family="Roboto" font-size="10.00">Urho3D::Text3D::SetOpacity</text>
</a>
</g>
</g>
<!-- Node8&#45;&gt;Node15 -->
<g id="edge14" class="edge">
<title>Node8&#45;&gt;Node15</title>
<path fill="none" stroke="#63b8ff" d="M403,-140.74C382.98,-129.02 356.78,-115.06 332,-106 323.46,-102.88 314.21,-100.22 305.09,-97.98"/>
<polygon fill="#63b8ff" stroke="#63b8ff" points="401.19,-143.73 411.57,-145.85 404.77,-137.72 401.19,-143.73"/>
</g>
<!-- Node16 -->
<g id="node16" class="node">
<title>Node16</title>
<g id="a_node16"><a xlink:href="class_urho3_d_1_1_text3_d.html#a539320e56a328d3923e6a50ab86c52c5" target="_top" xlink:title=" ">
<polygon fill="white" stroke="#666666" points="308.5,-60.5 185.5,-60.5 185.5,-41.5 308.5,-41.5 308.5,-60.5"/>
<text text-anchor="middle" x="247" y="-48.5" font-family="Roboto" font-size="10.00">Urho3D::Text3D::SetText</text>
</a>
</g>
</g>
<!-- Node8&#45;&gt;Node16 -->
<g id="edge16" class="edge">
<title>Node8&#45;&gt;Node16</title>
<path fill="none" stroke="#63b8ff" d="M416.88,-138.26C397.38,-116.82 365.85,-86.11 332,-69 324.81,-65.37 316.92,-62.47 308.94,-60.15"/>
<polygon fill="#63b8ff" stroke="#63b8ff" points="414.21,-140.52 423.47,-145.67 419.44,-135.87 414.21,-140.52"/>
</g>
<!-- Node17 -->
<g id="node17" class="node">
<title>Node17</title>
<g id="a_node17"><a xlink:href="class_urho3_d_1_1_text3_d.html#ae76455bed7ea206ebb893e49c5a14ae7" target="_top" xlink:title="Prepare geometry for rendering. Called from a worker thread if possible (no GPU update).">
<polygon fill="white" stroke="#666666" points="329.5,-294.5 164.5,-294.5 164.5,-275.5 329.5,-275.5 329.5,-294.5"/>
<text text-anchor="middle" x="247" y="-282.5" font-family="Roboto" font-size="10.00">Urho3D::Text3D::UpdateGeometry</text>
</a>
</g>
</g>
<!-- Node8&#45;&gt;Node17 -->
<g id="edge17" class="edge">
<title>Node8&#45;&gt;Node17</title>
<path fill="none" stroke="#63b8ff" d="M419.2,-186.28C400.28,-210.27 368.15,-246.18 332,-266 325.31,-269.67 317.96,-272.63 310.46,-275.01"/>
<polygon fill="#63b8ff" stroke="#63b8ff" points="421.77,-188.68 425.09,-178.62 416.22,-184.41 421.77,-188.68"/>
</g>
<!-- Node12 -->
<g id="node12" class="node">
<title>Node12</title>
<g id="a_node12"><a xlink:href="class_urho3_d_1_1_text3_d.html#a8d7300ae719ca749d031f65acdc0a23b" target="_top" xlink:title=" ">
<polygon fill="white" stroke="#666666" points="126,-66 0,-66 0,-36 126,-36 126,-66"/>
<text text-anchor="start" x="8" y="-54" font-family="Roboto" font-size="10.00">Urho3D::Text3D::Register</text>
<text text-anchor="middle" x="63" y="-43" font-family="Roboto" font-size="10.00">Object</text>
</a>
</g>
</g>
<!-- Node11&#45;&gt;Node12 -->
<g id="edge11" class="edge">
<title>Node11&#45;&gt;Node12</title>
<path fill="none" stroke="#63b8ff" d="M186.19,-26.16C166.99,-30.06 145.68,-34.39 126.3,-38.33"/>
<polygon fill="#63b8ff" stroke="#63b8ff" points="186.64,-29.64 195.74,-24.22 185.25,-22.78 186.64,-29.64"/>
</g>
<!-- Node15&#45;&gt;Node12 -->
<g id="edge15" class="edge">
<title>Node15&#45;&gt;Node12</title>
<path fill="none" stroke="#63b8ff" d="M186.19,-75.84C166.99,-71.94 145.68,-67.61 126.3,-63.67"/>
<polygon fill="#63b8ff" stroke="#63b8ff" points="185.25,-79.22 195.74,-77.78 186.64,-72.36 185.25,-79.22"/>
</g>
<!-- Node19&#45;&gt;Node7 -->
<g id="edge21" class="edge">
<title>Node19&#45;&gt;Node7</title>
<path fill="none" stroke="#63b8ff" d="M718.65,-192.11C697.06,-197.1 673.6,-202.53 654.11,-207.03"/>
<polygon fill="#63b8ff" stroke="#63b8ff" points="719.31,-195.55 728.26,-189.89 717.73,-188.73 719.31,-195.55"/>
</g>
<!-- Node23 -->
<g id="node23" class="node">
<title>Node23</title>
<g id="a_node23"><a xlink:href="class_urho3_d_1_1_u_i.html#ae9abe9e6d8b996feaa7466a47d9e7c0c" target="_top" xlink:title="Debug draw a UI element.">
<polygon fill="white" stroke="#666666" points="669.5,-52.5 550.5,-52.5 550.5,-33.5 669.5,-33.5 669.5,-52.5"/>
<text text-anchor="middle" x="610" y="-40.5" font-family="Roboto" font-size="10.00">Urho3D::UI::DebugDraw</text>
</a>
</g>
</g>
<!-- Node22&#45;&gt;Node23 -->
<g id="edge25" class="edge">
<title>Node22&#45;&gt;Node23</title>
<path fill="none" stroke="#63b8ff" d="M715.11,-43C700.12,-43 684.39,-43 669.83,-43"/>
<polygon fill="#63b8ff" stroke="#63b8ff" points="714.88,-46.5 724.88,-43 714.88,-39.5 714.88,-46.5"/>
</g>
<!-- Node25 -->
<g id="node25" class="node">
<title>Node25</title>
<g id="a_node25"><a xlink:href="class_urho3_d_1_1_u_i.html#a05bd51bad1a135929174fcd7fe5fcf96" target="_top" xlink:title="Handle render update event.">
<polygon fill="#fff0f0" stroke="red" points="676,-385 544,-385 544,-355 676,-355 676,-385"/>
<text text-anchor="start" x="552" y="-373" font-family="Roboto" font-size="10.00">Urho3D::UI::HandleRender</text>
<text text-anchor="middle" x="610" y="-362" font-family="Roboto" font-size="10.00">Update</text>
</a>
</g>
</g>
<!-- Node24&#45;&gt;Node25 -->
<g id="edge27" class="edge">
<title>Node24&#45;&gt;Node25</title>
<path fill="none" stroke="#63b8ff" d="M707.15,-370C696.92,-370 686.51,-370 676.5,-370"/>
<polygon fill="#63b8ff" stroke="#63b8ff" points="707.08,-373.5 717.08,-370 707.08,-366.5 707.08,-373.5"/>
</g>
</g>
</svg>
