<?xml version="1.0" encoding="UTF-8" standalone="no"?>
<!DOCTYPE svg PUBLIC "-//W3C//DTD SVG 1.1//EN"
 "http://www.w3.org/Graphics/SVG/1.1/DTD/svg11.dtd">
<!-- Generated by graphviz version 7.0.3 (0)
 -->
<!-- Title: Urho3D::Drawable::DrawDebugGeometry Pages: 1 -->
<svg width="937pt" height="235pt"
 viewBox="0.00 0.00 937.00 235.00" xmlns="http://www.w3.org/2000/svg" xmlns:xlink="http://www.w3.org/1999/xlink">
<g id="graph0" class="graph" transform="scale(1 1) rotate(0) translate(4 231)">
<title>Urho3D::Drawable::DrawDebugGeometry</title>
<!-- Node1 -->
<g id="node1" class="node">
<title>Node1</title>
<g id="a_node1"><a xlink:title="Visualize the component as debug geometry.">
<polygon fill="#999999" stroke="#666666" points="150,-78 0,-78 0,-48 150,-48 150,-78"/>
<text text-anchor="start" x="8" y="-66" font-family="Roboto" font-size="10.00">Urho3D::Drawable::DrawDebug</text>
<text text-anchor="middle" x="75" y="-55" font-family="Roboto" font-size="10.00">Geometry</text>
</a>
</g>
</g>
<!-- Node2 -->
<g id="node2" class="node">
<title>Node2</title>
<g id="a_node2"><a xlink:href="class_urho3_d_1_1_debug_renderer.html#a6755ab0e0b3feef19e558a5dcb8c0e4f" target="_top" xlink:title="Add a bounding box.">
<polygon fill="white" stroke="#666666" points="318,-145 196,-145 196,-115 318,-115 318,-145"/>
<text text-anchor="start" x="204" y="-133" font-family="Roboto" font-size="10.00">Urho3D::DebugRenderer</text>
<text text-anchor="middle" x="257" y="-122" font-family="Roboto" font-size="10.00">::AddBoundingBox</text>
</a>
</g>
</g>
<!-- Node1&#45;&gt;Node2 -->
<g id="edge1" class="edge">
<title>Node1&#45;&gt;Node2</title>
<path fill="none" stroke="#63b8ff" d="M117.3,-78.37C143.04,-87.96 176.4,-100.37 203.95,-110.63"/>
<polygon fill="#63b8ff" stroke="#63b8ff" points="202.57,-113.85 213.17,-114.06 205.02,-107.29 202.57,-113.85"/>
</g>
<!-- Node8 -->
<g id="node8" class="node">
<title>Node8</title>
<g id="a_node8"><a xlink:href="class_urho3_d_1_1_drawable.html#a3930dc9342c0aefcfd4c94eb8079e365" target="_top" xlink:title=" ">
<polygon fill="white" stroke="#666666" points="328,-78 186,-78 186,-48 328,-48 328,-78"/>
<text text-anchor="start" x="194" y="-66" font-family="Roboto" font-size="10.00">Urho3D::Drawable::GetWorld</text>
<text text-anchor="middle" x="257" y="-55" font-family="Roboto" font-size="10.00">BoundingBox</text>
</a>
</g>
</g>
<!-- Node1&#45;&gt;Node8 -->
<g id="edge12" class="edge">
<title>Node1&#45;&gt;Node8</title>
<path fill="none" stroke="#63b8ff" d="M150.25,-63C158.22,-63 166.35,-63 174.39,-63"/>
<polygon fill="#63b8ff" stroke="#63b8ff" points="174.17,-66.5 184.17,-63 174.17,-59.5 174.17,-66.5"/>
</g>
<!-- Node10 -->
<g id="node10" class="node">
<title>Node10</title>
<g id="a_node10"><a xlink:href="class_urho3_d_1_1_component.html#aafa7952d0f225edde3387da0c91a9356" target="_top" xlink:title=" ">
<polygon fill="white" stroke="#666666" points="312.5,-30 201.5,-30 201.5,0 312.5,0 312.5,-30"/>
<text text-anchor="start" x="209.5" y="-18" font-family="Roboto" font-size="10.00">Urho3D::Component::</text>
<text text-anchor="middle" x="257" y="-7" font-family="Roboto" font-size="10.00">IsEnabledEffective</text>
</a>
</g>
</g>
<!-- Node1&#45;&gt;Node10 -->
<g id="edge14" class="edge">
<title>Node1&#45;&gt;Node10</title>
<path fill="none" stroke="#63b8ff" d="M133.94,-47.55C151.9,-42.76 171.82,-37.45 190.26,-32.53"/>
<polygon fill="#63b8ff" stroke="#63b8ff" points="191,-35.95 199.76,-30 189.2,-29.19 191,-35.95"/>
</g>
<!-- Node3 -->
<g id="node3" class="node">
<title>Node3</title>
<g id="a_node3"><a xlink:href="class_urho3_d_1_1_debug_renderer.html#aa250f6d8ac576c708e9af181c398e46f" target="_top" xlink:title="Add a line.">
<polygon fill="white" stroke="#666666" points="661,-209 539,-209 539,-179 661,-179 661,-209"/>
<text text-anchor="start" x="547" y="-197" font-family="Roboto" font-size="10.00">Urho3D::DebugRenderer</text>
<text text-anchor="middle" x="600" y="-186" font-family="Roboto" font-size="10.00">::AddLine</text>
</a>
</g>
</g>
<!-- Node2&#45;&gt;Node3 -->
<g id="edge2" class="edge">
<title>Node2&#45;&gt;Node3</title>
<path fill="none" stroke="#63b8ff" d="M298.5,-145.45C318.04,-152.36 341.97,-160.05 364,-165 418.1,-177.15 480.43,-184.54 527.29,-188.82"/>
<polygon fill="#63b8ff" stroke="#63b8ff" points="526.78,-192.29 537.05,-189.69 527.4,-185.32 526.78,-192.29"/>
</g>
<!-- Node4 -->
<g id="node4" class="node">
<title>Node4</title>
<g id="a_node4"><a xlink:href="class_urho3_d_1_1_color.html#a06623b98b5524439f8a243d103b214dd" target="_top" xlink:title="Return color packed to a 32&#45;bit integer, with R component in the lowest 8 bits. Components are clampe...">
<polygon fill="white" stroke="#666666" points="810,-160.5 697,-160.5 697,-141.5 810,-141.5 810,-160.5"/>
<text text-anchor="middle" x="753.5" y="-148.5" font-family="Roboto" font-size="10.00">Urho3D::Color::ToUInt</text>
</a>
</g>
</g>
<!-- Node2&#45;&gt;Node4 -->
<g id="edge11" class="edge">
<title>Node2&#45;&gt;Node4</title>
<path fill="none" stroke="#63b8ff" d="M318.14,-132.55C410.89,-136.49 588.25,-144.02 685.17,-148.14"/>
<polygon fill="#63b8ff" stroke="#63b8ff" points="684.93,-151.63 695.07,-148.56 685.22,-144.64 684.93,-151.63"/>
</g>
<!-- Node6 -->
<g id="node6" class="node">
<title>Node6</title>
<g id="a_node6"><a xlink:href="class_urho3_d_1_1_debug_renderer.html#ab868b2db01ad55a58a1b24d957abc7eb" target="_top" xlink:title="Add a solid quadrangular polygon.">
<polygon fill="white" stroke="#666666" points="494.5,-123 372.5,-123 372.5,-93 494.5,-93 494.5,-123"/>
<text text-anchor="start" x="380.5" y="-111" font-family="Roboto" font-size="10.00">Urho3D::DebugRenderer</text>
<text text-anchor="middle" x="433.5" y="-100" font-family="Roboto" font-size="10.00">::AddPolygon</text>
</a>
</g>
</g>
<!-- Node2&#45;&gt;Node6 -->
<g id="edge7" class="edge">
<title>Node2&#45;&gt;Node6</title>
<path fill="none" stroke="#63b8ff" d="M318.05,-122.43C331.82,-120.69 346.6,-118.83 360.8,-117.04"/>
<polygon fill="#63b8ff" stroke="#63b8ff" points="361.05,-120.54 370.54,-115.81 360.18,-113.59 361.05,-120.54"/>
</g>
<!-- Node3&#45;&gt;Node3 -->
<g id="edge3" class="edge">
<title>Node3&#45;&gt;Node3</title>
<path fill="none" stroke="#63b8ff" d="M573.02,-209.28C567.02,-218.41 576.02,-227 600,-227 613.12,-227 621.75,-224.43 625.9,-220.61"/>
<polygon fill="#63b8ff" stroke="#63b8ff" points="629.37,-221.07 626.84,-210.78 622.4,-220.4 629.37,-221.07"/>
</g>
<!-- Node3&#45;&gt;Node4 -->
<g id="edge4" class="edge">
<title>Node3&#45;&gt;Node4</title>
<path fill="none" stroke="#63b8ff" d="M655.27,-178.6C672.1,-173.82 690.47,-168.6 706.67,-164.01"/>
<polygon fill="#63b8ff" stroke="#63b8ff" points="707.38,-167.45 716.04,-161.35 705.46,-160.71 707.38,-167.45"/>
</g>
<!-- Node5 -->
<g id="node5" class="node">
<title>Node5</title>
<g id="a_node5"><a xlink:href="_math_defs_8h.html#a937fef228b452d2488ce13d78f0bd810" target="_top" xlink:title=" ">
<polygon fill="white" stroke="#666666" points="929,-160.5 846,-160.5 846,-141.5 929,-141.5 929,-160.5"/>
<text text-anchor="middle" x="887.5" y="-148.5" font-family="Roboto" font-size="10.00">Urho3D::Clamp</text>
</a>
</g>
</g>
<!-- Node4&#45;&gt;Node5 -->
<g id="edge5" class="edge">
<title>Node4&#45;&gt;Node5</title>
<path fill="none" stroke="#63b8ff" d="M810.48,-151C818.41,-151 826.54,-151 834.39,-151"/>
<polygon fill="#63b8ff" stroke="#63b8ff" points="834.14,-154.5 844.14,-151 834.14,-147.5 834.14,-154.5"/>
</g>
<!-- Node5&#45;&gt;Node5 -->
<g id="edge6" class="edge">
<title>Node5&#45;&gt;Node5</title>
<path fill="none" stroke="#63b8ff" d="M866.52,-160.87C856.95,-169.44 863.95,-178.5 887.5,-178.5 900.38,-178.5 908.31,-175.79 911.28,-171.93"/>
<polygon fill="#63b8ff" stroke="#63b8ff" points="914.7,-171.17 908.85,-162.34 907.92,-172.89 914.7,-171.17"/>
</g>
<!-- Node7 -->
<g id="node7" class="node">
<title>Node7</title>
<g id="a_node7"><a xlink:href="class_urho3_d_1_1_debug_renderer.html#a098d3d22f1af148c3a9b7657eed89454" target="_top" xlink:title="Add a solid triangle.">
<polygon fill="white" stroke="#666666" points="661,-105 539,-105 539,-75 661,-75 661,-105"/>
<text text-anchor="start" x="547" y="-93" font-family="Roboto" font-size="10.00">Urho3D::DebugRenderer</text>
<text text-anchor="middle" x="600" y="-82" font-family="Roboto" font-size="10.00">::AddTriangle</text>
</a>
</g>
</g>
<!-- Node6&#45;&gt;Node7 -->
<g id="edge8" class="edge">
<title>Node6&#45;&gt;Node7</title>
<path fill="none" stroke="#63b8ff" d="M494.82,-101.4C505.44,-100.24 516.58,-99.02 527.47,-97.83"/>
<polygon fill="#63b8ff" stroke="#63b8ff" points="527.62,-101.33 537.18,-96.76 526.86,-94.37 527.62,-101.33"/>
</g>
<!-- Node7&#45;&gt;Node4 -->
<g id="edge10" class="edge">
<title>Node7&#45;&gt;Node4</title>
<path fill="none" stroke="#63b8ff" d="M639.23,-105.39C663.29,-115.08 694.12,-127.49 717.53,-136.92"/>
<polygon fill="#63b8ff" stroke="#63b8ff" points="716.06,-140.1 726.64,-140.59 718.67,-133.61 716.06,-140.1"/>
</g>
<!-- Node7&#45;&gt;Node7 -->
<g id="edge9" class="edge">
<title>Node7&#45;&gt;Node7</title>
<path fill="none" stroke="#63b8ff" d="M573.02,-105.28C567.02,-114.41 576.02,-123 600,-123 613.12,-123 621.75,-120.43 625.9,-116.61"/>
<polygon fill="#63b8ff" stroke="#63b8ff" points="629.37,-117.07 626.84,-106.78 622.4,-116.4 629.37,-117.07"/>
</g>
<!-- Node9 -->
<g id="node9" class="node">
<title>Node9</title>
<g id="a_node9"><a xlink:href="class_urho3_d_1_1_drawable.html#af146747caaf6fd85ab71fda4e364bde4" target="_top" xlink:title="Recalculate the world&#45;space bounding box.">
<polygon fill="white" stroke="#666666" points="503,-75 364,-75 364,-45 503,-45 503,-75"/>
<text text-anchor="start" x="372" y="-63" font-family="Roboto" font-size="10.00">Urho3D::Drawable::OnWorld</text>
<text text-anchor="middle" x="433.5" y="-52" font-family="Roboto" font-size="10.00">BoundingBoxUpdate</text>
</a>
</g>
</g>
<!-- Node8&#45;&gt;Node9 -->
<g id="edge13" class="edge">
<title>Node8&#45;&gt;Node9</title>
<path fill="none" stroke="#63b8ff" d="M328.47,-61.79C336.38,-61.65 344.48,-61.51 352.5,-61.38"/>
<polygon fill="#63b8ff" stroke="#63b8ff" points="352.3,-64.88 362.23,-61.21 352.18,-57.88 352.3,-64.88"/>
</g>
<!-- Node11 -->
<g id="node11" class="node">
<title>Node11</title>
<g id="a_node11"><a xlink:href="class_urho3_d_1_1_node.html#a36ffa108037ab29617bf178fcb4ec1da" target="_top" xlink:title=" ">
<polygon fill="white" stroke="#666666" points="497.5,-24.5 369.5,-24.5 369.5,-5.5 497.5,-5.5 497.5,-24.5"/>
<text text-anchor="middle" x="433.5" y="-12.5" font-family="Roboto" font-size="10.00">Urho3D::Node::IsEnabled</text>
</a>
</g>
</g>
<!-- Node10&#45;&gt;Node11 -->
<g id="edge15" class="edge">
<title>Node10&#45;&gt;Node11</title>
<path fill="none" stroke="#63b8ff" d="M312.73,-15C326.99,-15 342.6,-15 357.7,-15"/>
<polygon fill="#63b8ff" stroke="#63b8ff" points="357.61,-18.5 367.61,-15 357.61,-11.5 357.61,-18.5"/>
</g>
</g>
</svg>
