<?xml version="1.0" encoding="UTF-8" standalone="no"?>
<!DOCTYPE svg PUBLIC "-//W3C//DTD SVG 1.1//EN"
 "http://www.w3.org/Graphics/SVG/1.1/DTD/svg11.dtd">
<!-- Generated by graphviz version 7.0.3 (0)
 -->
<!-- Title: Urho3D::SoundSource::GetSoundType Pages: 1 -->
<svg width="847pt" height="174pt"
 viewBox="0.00 0.00 847.00 173.50" xmlns="http://www.w3.org/2000/svg" xmlns:xlink="http://www.w3.org/1999/xlink">
<g id="graph0" class="graph" transform="scale(1 1) rotate(0) translate(4 169.5)">
<title>Urho3D::SoundSource::GetSoundType</title>
<!-- Node1 -->
<g id="node1" class="node">
<title>Node1</title>
<g id="a_node1"><a xlink:title=" ">
<polygon fill="#999999" stroke="#666666" points="839,-128 725,-128 725,-98 839,-98 839,-128"/>
<text text-anchor="start" x="733" y="-116" font-family="Roboto" font-size="10.00">Urho3D::SoundSource</text>
<text text-anchor="middle" x="782" y="-105" font-family="Roboto" font-size="10.00">::GetSoundType</text>
</a>
</g>
</g>
<!-- Node2 -->
<g id="node2" class="node">
<title>Node2</title>
<g id="a_node2"><a xlink:href="class_urho3_d_1_1_audio.html#afd99707417a45cad089e18681e231b4d" target="_top" xlink:title="Mix sound sources into the buffer.">
<polygon fill="white" stroke="#666666" points="679.5,-165.5 548.5,-165.5 548.5,-146.5 679.5,-146.5 679.5,-165.5"/>
<text text-anchor="middle" x="614" y="-153.5" font-family="Roboto" font-size="10.00">Urho3D::Audio::MixOutput</text>
</a>
</g>
</g>
<!-- Node1&#45;&gt;Node2 -->
<g id="edge1" class="edge">
<title>Node1&#45;&gt;Node2</title>
<path fill="none" stroke="#63b8ff" d="M713.43,-130.66C705.2,-132.8 696.91,-134.95 689,-137 677.57,-139.96 665.15,-143.16 653.8,-146.07"/>
<polygon fill="#63b8ff" stroke="#63b8ff" points="714.31,-134.05 723.11,-128.14 712.55,-127.27 714.31,-134.05"/>
</g>
<!-- Node3 -->
<g id="node3" class="node">
<title>Node3</title>
<g id="a_node3"><a xlink:href="class_urho3_d_1_1_sound_source.html#aae9a850fca6b040a1162784c48305014" target="_top" xlink:title=" ">
<polygon fill="white" stroke="#666666" points="671,-128 557,-128 557,-98 671,-98 671,-128"/>
<text text-anchor="start" x="565" y="-116" font-family="Roboto" font-size="10.00">Urho3D::SoundSource</text>
<text text-anchor="middle" x="614" y="-105" font-family="Roboto" font-size="10.00">::RegisterObject</text>
</a>
</g>
</g>
<!-- Node1&#45;&gt;Node3 -->
<g id="edge2" class="edge">
<title>Node1&#45;&gt;Node3</title>
<path fill="none" stroke="#63b8ff" d="M713.29,-113C699.38,-113 684.88,-113 671.42,-113"/>
<polygon fill="#63b8ff" stroke="#63b8ff" points="713.29,-116.5 723.29,-113 713.29,-109.5 713.29,-116.5"/>
</g>
<!-- Node4 -->
<g id="node4" class="node">
<title>Node4</title>
<g id="a_node4"><a xlink:href="class_urho3_d_1_1_audio.html#afe2741a7a803a4e5fec31b7bd0ecb677" target="_top" xlink:title="Actually update sound sources with the specific timestep. Called internally.">
<polygon fill="white" stroke="#666666" points="689,-79.5 539,-79.5 539,-60.5 689,-60.5 689,-79.5"/>
<text text-anchor="middle" x="614" y="-67.5" font-family="Roboto" font-size="10.00">Urho3D::Audio::UpdateInternal</text>
</a>
</g>
</g>
<!-- Node1&#45;&gt;Node4 -->
<g id="edge3" class="edge">
<title>Node1&#45;&gt;Node4</title>
<path fill="none" stroke="#63b8ff" d="M713.43,-95.34C705.2,-93.2 696.91,-91.05 689,-89 677.57,-86.04 665.15,-82.84 653.8,-79.93"/>
<polygon fill="#63b8ff" stroke="#63b8ff" points="712.55,-98.73 723.11,-97.86 714.31,-91.95 712.55,-98.73"/>
</g>
<!-- Node5 -->
<g id="node5" class="node">
<title>Node5</title>
<g id="a_node5"><a xlink:href="class_urho3_d_1_1_audio.html#a185245f1c7242dd78b14042e3e8267f3" target="_top" xlink:title="Restart sound output.">
<polygon fill="white" stroke="#666666" points="470,-135.5 366,-135.5 366,-116.5 470,-116.5 470,-135.5"/>
<text text-anchor="middle" x="418" y="-123.5" font-family="Roboto" font-size="10.00">Urho3D::Audio::Play</text>
</a>
</g>
</g>
<!-- Node4&#45;&gt;Node5 -->
<g id="edge4" class="edge">
<title>Node4&#45;&gt;Node5</title>
<path fill="none" stroke="#63b8ff" d="M556.65,-82.99C550.63,-84.81 544.65,-86.82 539,-89 522.12,-95.52 520,-101.82 503,-108 492.63,-111.77 481.23,-114.86 470.27,-117.36"/>
<polygon fill="#63b8ff" stroke="#63b8ff" points="557.36,-86.43 566.01,-80.32 555.44,-79.7 557.36,-86.43"/>
</g>
<!-- Node7 -->
<g id="node7" class="node">
<title>Node7</title>
<g id="a_node7"><a xlink:href="class_urho3_d_1_1_audio.html#a433ee54bdc8ac9f891166888dbc0647b" target="_top" xlink:title="Resume playback of all sound types.">
<polygon fill="white" stroke="#666666" points="484.5,-98.5 351.5,-98.5 351.5,-79.5 484.5,-79.5 484.5,-98.5"/>
<text text-anchor="middle" x="418" y="-86.5" font-family="Roboto" font-size="10.00">Urho3D::Audio::ResumeAll</text>
</a>
</g>
</g>
<!-- Node4&#45;&gt;Node7 -->
<g id="edge6" class="edge">
<title>Node4&#45;&gt;Node7</title>
<path fill="none" stroke="#63b8ff" d="M527.21,-78.4C512.95,-79.8 498.36,-81.23 484.7,-82.57"/>
<polygon fill="#63b8ff" stroke="#63b8ff" points="527.43,-81.9 537.04,-77.44 526.75,-74.93 527.43,-81.9"/>
</g>
<!-- Node8 -->
<g id="node8" class="node">
<title>Node8</title>
<g id="a_node8"><a xlink:href="class_urho3_d_1_1_audio.html#a79935c51456e54b1d97a22d73a84be7c" target="_top" xlink:title="Resume playback of specific sound type.">
<polygon fill="white" stroke="#666666" points="503,-61.5 333,-61.5 333,-42.5 503,-42.5 503,-61.5"/>
<text text-anchor="middle" x="418" y="-49.5" font-family="Roboto" font-size="10.00">Urho3D::Audio::ResumeSoundType</text>
</a>
</g>
</g>
<!-- Node4&#45;&gt;Node8 -->
<g id="edge7" class="edge">
<title>Node4&#45;&gt;Node8</title>
<path fill="none" stroke="#63b8ff" d="M527.34,-62.05C519.35,-61.31 511.26,-60.56 503.28,-59.82"/>
<polygon fill="#63b8ff" stroke="#63b8ff" points="526.76,-65.51 537.04,-62.95 527.41,-58.54 526.76,-65.51"/>
</g>
<!-- Node9 -->
<g id="node9" class="node">
<title>Node9</title>
<g id="a_node9"><a xlink:href="class_urho3_d_1_1_audio.html#a06e397e757fdd20e747c16b78ede8a37" target="_top" xlink:title="Run update on sound sources. Not required for continued playback, but frees unused sound sources &amp; so...">
<polygon fill="white" stroke="#666666" points="476.5,-24.5 359.5,-24.5 359.5,-5.5 476.5,-5.5 476.5,-24.5"/>
<text text-anchor="middle" x="418" y="-12.5" font-family="Roboto" font-size="10.00">Urho3D::Audio::Update</text>
</a>
</g>
</g>
<!-- Node4&#45;&gt;Node9 -->
<g id="edge8" class="edge">
<title>Node4&#45;&gt;Node9</title>
<path fill="none" stroke="#63b8ff" d="M575.38,-56.17C554.28,-48.71 527.38,-39.69 503,-33 492.36,-30.08 480.85,-27.34 469.86,-24.93"/>
<polygon fill="#63b8ff" stroke="#63b8ff" points="574.12,-59.43 584.71,-59.5 576.48,-52.84 574.12,-59.43"/>
</g>
<!-- Node6 -->
<g id="node6" class="node">
<title>Node6</title>
<g id="a_node6"><a xlink:href="class_urho3_d_1_1_audio.html#a47d9e2bbbd31dc8ded6f4e83486cdcb4" target="_top" xlink:title="Initialize sound output with specified buffer length and output mode.">
<polygon fill="white" stroke="#666666" points="285.5,-135.5 159.5,-135.5 159.5,-116.5 285.5,-116.5 285.5,-135.5"/>
<text text-anchor="middle" x="222.5" y="-123.5" font-family="Roboto" font-size="10.00">Urho3D::Audio::SetMode</text>
</a>
</g>
</g>
<!-- Node5&#45;&gt;Node6 -->
<g id="edge5" class="edge">
<title>Node5&#45;&gt;Node6</title>
<path fill="none" stroke="#63b8ff" d="M354.43,-126C332.44,-126 307.75,-126 285.79,-126"/>
<polygon fill="#63b8ff" stroke="#63b8ff" points="354.14,-129.5 364.14,-126 354.14,-122.5 354.14,-129.5"/>
</g>
<!-- Node10 -->
<g id="node10" class="node">
<title>Node10</title>
<g id="a_node10"><a xlink:href="class_urho3_d_1_1_audio.html#a087de3d1eb52ea426b9fa6db017aa851" target="_top" xlink:title="Handle render update event.">
<polygon fill="white" stroke="#666666" points="297,-30 148,-30 148,0 297,0 297,-30"/>
<text text-anchor="start" x="156" y="-18" font-family="Roboto" font-size="10.00">Urho3D::Audio::HandleRender</text>
<text text-anchor="middle" x="222.5" y="-7" font-family="Roboto" font-size="10.00">Update</text>
</a>
</g>
</g>
<!-- Node9&#45;&gt;Node10 -->
<g id="edge9" class="edge">
<title>Node9&#45;&gt;Node10</title>
<path fill="none" stroke="#63b8ff" d="M348,-15C331.51,-15 313.84,-15 297.15,-15"/>
<polygon fill="#63b8ff" stroke="#63b8ff" points="347.69,-18.5 357.69,-15 347.69,-11.5 347.69,-18.5"/>
</g>
<!-- Node11 -->
<g id="node11" class="node">
<title>Node11</title>
<g id="a_node11"><a xlink:href="class_urho3_d_1_1_audio.html#a794332db2cbd49b835dded0df11a9f9f" target="_top" xlink:title="Construct.">
<polygon fill="white" stroke="#666666" points="112,-24.5 0,-24.5 0,-5.5 112,-5.5 112,-24.5"/>
<text text-anchor="middle" x="56" y="-12.5" font-family="Roboto" font-size="10.00">Urho3D::Audio::Audio</text>
</a>
</g>
</g>
<!-- Node10&#45;&gt;Node11 -->
<g id="edge10" class="edge">
<title>Node10&#45;&gt;Node11</title>
<path fill="none" stroke="#63b8ff" d="M136.64,-15C128.37,-15 120.14,-15 112.27,-15"/>
<polygon fill="#63b8ff" stroke="#63b8ff" points="136.4,-18.5 146.4,-15 136.4,-11.5 136.4,-18.5"/>
</g>
</g>
</svg>
