<?xml version="1.0" encoding="UTF-8" standalone="no"?>
<!DOCTYPE svg PUBLIC "-//W3C//DTD SVG 1.1//EN"
 "http://www.w3.org/Graphics/SVG/1.1/DTD/svg11.dtd">
<!-- Generated by graphviz version 7.0.3 (0)
 -->
<!-- Title: Urho3D::UIElement::HasFocus Pages: 1 -->
<svg width="665pt" height="510pt"
 viewBox="0.00 0.00 665.00 509.70" xmlns="http://www.w3.org/2000/svg" xmlns:xlink="http://www.w3.org/1999/xlink">
<g id="graph0" class="graph" transform="scale(1 1) rotate(0) translate(4 505.7)">
<title>Urho3D::UIElement::HasFocus</title>
<!-- Node1 -->
<g id="node1" class="node">
<title>Node1</title>
<g id="a_node1"><a xlink:title=" ">
<polygon fill="#999999" stroke="#666666" points="657,-307.5 552,-307.5 552,-277.5 657,-277.5 657,-307.5"/>
<text text-anchor="start" x="560" y="-295.5" font-family="Roboto" font-size="10.00">Urho3D::UIElement::</text>
<text text-anchor="middle" x="604.5" y="-284.5" font-family="Roboto" font-size="10.00">HasFocus</text>
</a>
</g>
</g>
<!-- Node2 -->
<g id="node2" class="node">
<title>Node2</title>
<g id="a_node2"><a xlink:href="class_urho3_d_1_1_border_image.html#aafc7425774297149ed7235f2c48902a7" target="_top" xlink:title="Return UI rendering batches.">
<polygon fill="white" stroke="#666666" points="505.5,-406.5 392.5,-406.5 392.5,-376.5 505.5,-376.5 505.5,-406.5"/>
<text text-anchor="start" x="400.5" y="-394.5" font-family="Roboto" font-size="10.00">Urho3D::BorderImage</text>
<text text-anchor="middle" x="449" y="-383.5" font-family="Roboto" font-size="10.00">::GetBatches</text>
</a>
</g>
</g>
<!-- Node1&#45;&gt;Node2 -->
<g id="edge1" class="edge">
<title>Node1&#45;&gt;Node2</title>
<path fill="none" stroke="#63b8ff" d="M580.96,-315.86C564.26,-332.11 540.27,-353.32 516,-367.5 510.63,-370.64 504.78,-373.48 498.86,-376.01"/>
<polygon fill="#63b8ff" stroke="#63b8ff" points="583.3,-318.48 587.92,-308.95 578.36,-313.51 583.3,-318.48"/>
</g>
<!-- Node3 -->
<g id="node3" class="node">
<title>Node3</title>
<g id="a_node3"><a xlink:href="class_urho3_d_1_1_button.html#a5d7cf3a33302bdf458b0e34a025581e0" target="_top" xlink:title="Return UI rendering batches.">
<polygon fill="white" stroke="#666666" points="327.5,-500 189.5,-500 189.5,-481 327.5,-481 327.5,-500"/>
<text text-anchor="middle" x="258.5" y="-488" font-family="Roboto" font-size="10.00">Urho3D::Button::GetBatches</text>
</a>
</g>
</g>
<!-- Node1&#45;&gt;Node3 -->
<g id="edge8" class="edge">
<title>Node1&#45;&gt;Node3</title>
<path fill="none" stroke="#63b8ff" d="M598.23,-318.94C588.98,-357.76 565.86,-429.29 516,-463.5 461.08,-501.18 383.38,-504.19 327.92,-500.1"/>
<polygon fill="#63b8ff" stroke="#63b8ff" points="601.63,-319.79 600.39,-309.27 594.8,-318.27 601.63,-319.79"/>
</g>
<!-- Node4 -->
<g id="node4" class="node">
<title>Node4</title>
<g id="a_node4"><a xlink:href="class_urho3_d_1_1_check_box.html#a3a0fde89f1336b86c5322240b955a99f" target="_top" xlink:title="Return UI rendering batches.">
<polygon fill="white" stroke="#666666" points="335.5,-463 181.5,-463 181.5,-444 335.5,-444 335.5,-463"/>
<text text-anchor="middle" x="258.5" y="-451" font-family="Roboto" font-size="10.00">Urho3D::CheckBox::GetBatches</text>
</a>
</g>
</g>
<!-- Node1&#45;&gt;Node4 -->
<g id="edge9" class="edge">
<title>Node1&#45;&gt;Node4</title>
<path fill="none" stroke="#63b8ff" d="M595.59,-318.37C583.98,-351.39 558.93,-407.38 516,-433.5 457.05,-469.37 375.83,-469.23 320.69,-463.48"/>
<polygon fill="#63b8ff" stroke="#63b8ff" points="598.81,-319.76 598.66,-309.16 592.17,-317.54 598.81,-319.76"/>
</g>
<!-- Node8 -->
<g id="node8" class="node">
<title>Node8</title>
<g id="a_node8"><a xlink:href="class_urho3_d_1_1_button.html#a6c6bffb4a9177202735ee0e465a23225" target="_top" xlink:title="React to a key press.">
<polygon fill="white" stroke="#666666" points="507,-358 391,-358 391,-339 507,-339 507,-358"/>
<text text-anchor="middle" x="449" y="-346" font-family="Roboto" font-size="10.00">Urho3D::Button::OnKey</text>
</a>
</g>
</g>
<!-- Node1&#45;&gt;Node8 -->
<g id="edge10" class="edge">
<title>Node1&#45;&gt;Node8</title>
<path fill="none" stroke="#63b8ff" d="M560.74,-312.53C546.66,-318.73 530.82,-325.29 516,-330.5 507.71,-333.41 498.7,-336.15 490.07,-338.56"/>
<polygon fill="#63b8ff" stroke="#63b8ff" points="562.04,-315.78 569.74,-308.5 559.18,-309.39 562.04,-315.78"/>
</g>
<!-- Node9 -->
<g id="node9" class="node">
<title>Node9</title>
<g id="a_node9"><a xlink:href="class_urho3_d_1_1_check_box.html#a6f1141ab808799ba3d78bded185fc295" target="_top" xlink:title="React to a key press.">
<polygon fill="white" stroke="#666666" points="514.5,-321 383.5,-321 383.5,-302 514.5,-302 514.5,-321"/>
<text text-anchor="middle" x="449" y="-309" font-family="Roboto" font-size="10.00">Urho3D::CheckBox::OnKey</text>
</a>
</g>
</g>
<!-- Node1&#45;&gt;Node9 -->
<g id="edge11" class="edge">
<title>Node1&#45;&gt;Node9</title>
<path fill="none" stroke="#63b8ff" d="M540.31,-300.32C531.95,-301.36 523.37,-302.42 514.98,-303.46"/>
<polygon fill="#63b8ff" stroke="#63b8ff" points="540.54,-303.82 550.03,-299.12 539.68,-296.87 540.54,-303.82"/>
</g>
<!-- Node10 -->
<g id="node10" class="node">
<title>Node10</title>
<g id="a_node10"><a xlink:href="class_urho3_d_1_1_line_edit.html#a6c5818c3cd32e40cee82388e3529f4dd" target="_top" xlink:title="React to a key press.">
<polygon fill="white" stroke="#666666" points="510,-284 388,-284 388,-265 510,-265 510,-284"/>
<text text-anchor="middle" x="449" y="-272" font-family="Roboto" font-size="10.00">Urho3D::LineEdit::OnKey</text>
</a>
</g>
</g>
<!-- Node1&#45;&gt;Node10 -->
<g id="edge12" class="edge">
<title>Node1&#45;&gt;Node10</title>
<path fill="none" stroke="#63b8ff" d="M540.16,-285.07C530.31,-283.92 520.17,-282.73 510.39,-281.58"/>
<polygon fill="#63b8ff" stroke="#63b8ff" points="539.69,-288.54 550.03,-286.23 540.5,-281.59 539.69,-288.54"/>
</g>
<!-- Node11 -->
<g id="node11" class="node">
<title>Node11</title>
<g id="a_node11"><a xlink:href="class_urho3_d_1_1_list_view.html#a3f4a1b85c9ebf97f5bfaf200c8e63262" target="_top" xlink:title=" ">
<polygon fill="white" stroke="#666666" points="516,-246.5 382,-246.5 382,-216.5 516,-216.5 516,-246.5"/>
<text text-anchor="start" x="390" y="-234.5" font-family="Roboto" font-size="10.00">Urho3D::ListView::SetClear</text>
<text text-anchor="middle" x="449" y="-223.5" font-family="Roboto" font-size="10.00">SelectionOnDefocus</text>
</a>
</g>
</g>
<!-- Node1&#45;&gt;Node11 -->
<g id="edge13" class="edge">
<title>Node1&#45;&gt;Node11</title>
<path fill="none" stroke="#63b8ff" d="M555.99,-272.67C543.05,-267.34 529.01,-261.64 516,-256.5 508.02,-253.35 499.47,-250.05 491.26,-246.92"/>
<polygon fill="#63b8ff" stroke="#63b8ff" points="554.57,-275.87 565.15,-276.45 557.25,-269.4 554.57,-275.87"/>
</g>
<!-- Node13 -->
<g id="node13" class="node">
<title>Node13</title>
<g id="a_node13"><a xlink:href="class_urho3_d_1_1_line_edit.html#ae7cfe838bb8463b22bdec345cd6e44ba" target="_top" xlink:title="Perform UI element update.">
<polygon fill="white" stroke="#666666" points="511.5,-140 386.5,-140 386.5,-121 511.5,-121 511.5,-140"/>
<text text-anchor="middle" x="449" y="-128" font-family="Roboto" font-size="10.00">Urho3D::LineEdit::Update</text>
</a>
</g>
</g>
<!-- Node1&#45;&gt;Node13 -->
<g id="edge15" class="edge">
<title>Node1&#45;&gt;Node13</title>
<path fill="none" stroke="#63b8ff" d="M594.45,-266.65C581.87,-234.45 556,-179.97 516,-149.5 511.16,-145.82 505.63,-142.84 499.88,-140.45"/>
<polygon fill="#63b8ff" stroke="#63b8ff" points="591.17,-267.87 597.96,-276 597.73,-265.41 591.17,-267.87"/>
</g>
<!-- Node14 -->
<g id="node14" class="node">
<title>Node14</title>
<g id="a_node14"><a xlink:href="class_urho3_d_1_1_scroll_view.html#ada1100bb04166f0d5c8201ba6662df7b" target="_top" xlink:title="Perform UI element update.">
<polygon fill="white" stroke="#666666" points="499.5,-102.5 398.5,-102.5 398.5,-72.5 499.5,-72.5 499.5,-102.5"/>
<text text-anchor="start" x="406.5" y="-90.5" font-family="Roboto" font-size="10.00">Urho3D::ScrollView</text>
<text text-anchor="middle" x="449" y="-79.5" font-family="Roboto" font-size="10.00">::Update</text>
</a>
</g>
</g>
<!-- Node1&#45;&gt;Node14 -->
<g id="edge16" class="edge">
<title>Node1&#45;&gt;Node14</title>
<path fill="none" stroke="#63b8ff" d="M597.3,-266.04C586.91,-227.22 562.4,-154.88 516,-112.5 511.3,-108.2 505.78,-104.62 499.98,-101.64"/>
<polygon fill="#63b8ff" stroke="#63b8ff" points="593.9,-266.86 599.76,-275.69 600.68,-265.14 593.9,-266.86"/>
</g>
<!-- Node15 -->
<g id="node15" class="node">
<title>Node15</title>
<g id="a_node15"><a xlink:href="class_urho3_d_1_1_list_view.html#a98c7355308df9e43a68c5604ed2d5ce0" target="_top" xlink:title="Update selection effect when selection or focus changes.">
<polygon fill="white" stroke="#666666" points="513,-188.5 385,-188.5 385,-158.5 513,-158.5 513,-188.5"/>
<text text-anchor="start" x="393" y="-176.5" font-family="Roboto" font-size="10.00">Urho3D::ListView::Update</text>
<text text-anchor="middle" x="449" y="-165.5" font-family="Roboto" font-size="10.00">SelectionEffect</text>
</a>
</g>
</g>
<!-- Node1&#45;&gt;Node15 -->
<g id="edge17" class="edge">
<title>Node1&#45;&gt;Node15</title>
<path fill="none" stroke="#63b8ff" d="M582.86,-268.94C566.07,-250.69 541.12,-225.56 516,-207.5 506.37,-200.58 495.14,-194.24 484.7,-188.96"/>
<polygon fill="#63b8ff" stroke="#63b8ff" points="580.09,-271.09 589.39,-276.16 585.28,-266.4 580.09,-271.09"/>
</g>
<!-- Node2&#45;&gt;Node2 -->
<g id="edge2" class="edge">
<title>Node2&#45;&gt;Node2</title>
<path fill="none" stroke="#63b8ff" d="M475.24,-418.11C471.03,-421.93 462.29,-424.5 449,-424.5 424.7,-424.5 415.59,-415.91 421.67,-406.78"/>
<polygon fill="#63b8ff" stroke="#63b8ff" points="478.71,-418.57 476.19,-408.28 471.74,-417.9 478.71,-418.57"/>
</g>
<!-- Node2&#45;&gt;Node3 -->
<g id="edge3" class="edge">
<title>Node2&#45;&gt;Node3</title>
<path fill="none" stroke="#63b8ff" d="M425.15,-414.9C405.78,-433.35 376.36,-458.27 346,-472.5 339.05,-475.75 331.52,-478.42 323.9,-480.61"/>
<polygon fill="#63b8ff" stroke="#63b8ff" points="427.52,-417.48 432.23,-407.99 422.63,-412.47 427.52,-417.48"/>
</g>
<!-- Node2&#45;&gt;Node4 -->
<g id="edge4" class="edge">
<title>Node2&#45;&gt;Node4</title>
<path fill="none" stroke="#63b8ff" d="M405.06,-411.66C387.09,-419.55 365.81,-428.21 346,-434.5 335.16,-437.94 323.35,-440.99 312.05,-443.57"/>
<polygon fill="#63b8ff" stroke="#63b8ff" points="406.41,-414.89 414.12,-407.62 403.56,-408.5 406.41,-414.89"/>
</g>
<!-- Node5 -->
<g id="node5" class="node">
<title>Node5</title>
<g id="a_node5"><a xlink:href="class_urho3_d_1_1_cursor.html#a55277d925fe2f04440c7a45aece48045" target="_top" xlink:title="Return UI rendering batches.">
<polygon fill="white" stroke="#666666" points="328.5,-340 188.5,-340 188.5,-321 328.5,-321 328.5,-340"/>
<text text-anchor="middle" x="258.5" y="-328" font-family="Roboto" font-size="10.00">Urho3D::Cursor::GetBatches</text>
</a>
</g>
</g>
<!-- Node2&#45;&gt;Node5 -->
<g id="edge5" class="edge">
<title>Node2&#45;&gt;Node5</title>
<path fill="none" stroke="#63b8ff" d="M392.88,-372C389.18,-370.52 385.52,-369.02 382,-367.5 365.57,-360.43 362.86,-355.46 346,-349.5 336,-345.96 325.1,-342.95 314.52,-340.44"/>
<polygon fill="#63b8ff" stroke="#63b8ff" points="391.35,-375.16 401.94,-375.51 393.88,-368.63 391.35,-375.16"/>
</g>
<!-- Node6 -->
<g id="node6" class="node">
<title>Node6</title>
<g id="a_node6"><a xlink:href="class_urho3_d_1_1_drop_down_list.html#a1ccb0767341512c2911fc5839e8b0265" target="_top" xlink:title="Return UI rendering batches.">
<polygon fill="white" stroke="#666666" points="317,-425.5 200,-425.5 200,-395.5 317,-395.5 317,-425.5"/>
<text text-anchor="start" x="208" y="-413.5" font-family="Roboto" font-size="10.00">Urho3D::DropDownList</text>
<text text-anchor="middle" x="258.5" y="-402.5" font-family="Roboto" font-size="10.00">::GetBatches</text>
</a>
</g>
</g>
<!-- Node2&#45;&gt;Node6 -->
<g id="edge6" class="edge">
<title>Node2&#45;&gt;Node6</title>
<path fill="none" stroke="#63b8ff" d="M380.91,-398.26C360.17,-400.35 337.51,-402.64 317.44,-404.66"/>
<polygon fill="#63b8ff" stroke="#63b8ff" points="381.1,-401.76 390.7,-397.28 380.4,-394.8 381.1,-401.76"/>
</g>
<!-- Node7 -->
<g id="node7" class="node">
<title>Node7</title>
<g id="a_node7"><a xlink:href="class_urho3_d_1_1_window.html#a455bbccbf47246497a114dde4d518098" target="_top" xlink:title="Return UI rendering batches.">
<polygon fill="white" stroke="#666666" points="331.5,-377 185.5,-377 185.5,-358 331.5,-358 331.5,-377"/>
<text text-anchor="middle" x="258.5" y="-365" font-family="Roboto" font-size="10.00">Urho3D::Window::GetBatches</text>
</a>
</g>
</g>
<!-- Node2&#45;&gt;Node7 -->
<g id="edge7" class="edge">
<title>Node2&#45;&gt;Node7</title>
<path fill="none" stroke="#63b8ff" d="M380.88,-382.95C365.02,-380.94 348.04,-378.77 331.95,-376.72"/>
<polygon fill="#63b8ff" stroke="#63b8ff" points="380.35,-386.41 390.71,-384.21 381.23,-379.47 380.35,-386.41"/>
</g>
<!-- Node12 -->
<g id="node12" class="node">
<title>Node12</title>
<g id="a_node12"><a xlink:href="class_urho3_d_1_1_list_view.html#afd22f7194211cc7487b59a454ce143a9" target="_top" xlink:title=" ">
<polygon fill="white" stroke="#666666" points="133.5,-288.5 1.5,-288.5 1.5,-258.5 133.5,-258.5 133.5,-288.5"/>
<text text-anchor="start" x="9.5" y="-276.5" font-family="Roboto" font-size="10.00">Urho3D::ListView::Register</text>
<text text-anchor="middle" x="67.5" y="-265.5" font-family="Roboto" font-size="10.00">Object</text>
</a>
</g>
</g>
<!-- Node11&#45;&gt;Node12 -->
<g id="edge14" class="edge">
<title>Node11&#45;&gt;Node12</title>
<path fill="none" stroke="#63b8ff" d="M395.34,-251.02C390.81,-252.83 386.31,-254.67 382,-256.5 365.71,-263.42 363.27,-269.63 346,-273.5 274.78,-289.47 190.67,-286.54 133.87,-281.48"/>
<polygon fill="#63b8ff" stroke="#63b8ff" points="396.46,-254.34 404.49,-247.43 393.91,-247.82 396.46,-254.34"/>
</g>
<!-- Node16 -->
<g id="node16" class="node">
<title>Node16</title>
<g id="a_node16"><a xlink:href="class_urho3_d_1_1_list_view.html#a4b292959b6c96229a342ec73999cf264" target="_top" xlink:title="Add item to the selection, multiselect mode only.">
<polygon fill="white" stroke="#666666" points="336,-56 181,-56 181,-37 336,-37 336,-56"/>
<text text-anchor="middle" x="258.5" y="-44" font-family="Roboto" font-size="10.00">Urho3D::ListView::AddSelection</text>
</a>
</g>
</g>
<!-- Node15&#45;&gt;Node16 -->
<g id="edge18" class="edge">
<title>Node15&#45;&gt;Node16</title>
<path fill="none" stroke="#63b8ff" d="M384.33,-151.59C383.53,-150.91 382.75,-150.22 382,-149.5 352.25,-121.25 377.7,-90.54 346,-64.5 342.09,-61.29 337.75,-58.6 333.15,-56.37"/>
<polygon fill="#63b8ff" stroke="#63b8ff" points="382.13,-154.31 392.32,-157.19 386.14,-148.58 382.13,-154.31"/>
</g>
<!-- Node22 -->
<g id="node18" class="node">
<title>Node22</title>
<g id="a_node18"><a xlink:href="class_urho3_d_1_1_list_view.html#a0dc41b175612db37dd3085aa9d3482a3" target="_top" xlink:title="Handle focus changed.">
<polygon fill="white" stroke="#666666" points="322.5,-226.5 194.5,-226.5 194.5,-196.5 322.5,-196.5 322.5,-226.5"/>
<text text-anchor="start" x="202.5" y="-214.5" font-family="Roboto" font-size="10.00">Urho3D::ListView::Handle</text>
<text text-anchor="middle" x="258.5" y="-203.5" font-family="Roboto" font-size="10.00">FocusChanged</text>
</a>
</g>
</g>
<!-- Node15&#45;&gt;Node22 -->
<g id="edge20" class="edge">
<title>Node15&#45;&gt;Node22</title>
<path fill="none" stroke="#63b8ff" d="M373.81,-188.46C356.99,-191.85 339.27,-195.42 322.95,-198.71"/>
<polygon fill="#63b8ff" stroke="#63b8ff" points="374.11,-191.97 383.22,-186.56 372.73,-185.1 374.11,-191.97"/>
</g>
<!-- Node23 -->
<g id="node20" class="node">
<title>Node23</title>
<g id="a_node20"><a xlink:href="class_urho3_d_1_1_list_view.html#aeb784361fd2f048e99d554b6c4375e07" target="_top" xlink:title="Insert item at a specific index. In hierarchy mode, the optional parameter will be used to determine ...">
<polygon fill="#fff0f0" stroke="red" points="329.5,-19 187.5,-19 187.5,0 329.5,0 329.5,-19"/>
<text text-anchor="middle" x="258.5" y="-7" font-family="Roboto" font-size="10.00">Urho3D::ListView::InsertItem</text>
</a>
</g>
</g>
<!-- Node15&#45;&gt;Node23 -->
<g id="edge22" class="edge">
<title>Node15&#45;&gt;Node23</title>
<path fill="none" stroke="#63b8ff" d="M383.48,-151.01C382.98,-150.52 382.48,-150.01 382,-149.5 343.28,-108.31 387.58,-65.81 346,-27.5 341.26,-23.13 335.75,-19.72 329.85,-17.05"/>
<polygon fill="#63b8ff" stroke="#63b8ff" points="381.3,-153.74 391.33,-157.14 385.61,-148.23 381.3,-153.74"/>
</g>
<!-- Node38 -->
<g id="node22" class="node">
<title>Node38</title>
<g id="a_node22"><a xlink:href="class_urho3_d_1_1_list_view.html#a2c7adecbfcfc748d393a79f945d84faf" target="_top" xlink:title="Remove specific item, starting search at the specified index if provided. In hierarchy mode will also...">
<polygon fill="#fff0f0" stroke="red" points="334.5,-130 182.5,-130 182.5,-111 334.5,-111 334.5,-130"/>
<text text-anchor="middle" x="258.5" y="-118" font-family="Roboto" font-size="10.00">Urho3D::ListView::RemoveItem</text>
</a>
</g>
</g>
<!-- Node15&#45;&gt;Node38 -->
<g id="edge24" class="edge">
<title>Node15&#45;&gt;Node38</title>
<path fill="none" stroke="#63b8ff" d="M394.63,-154.53C379.05,-149.32 361.94,-143.89 346,-139.5 334.14,-136.23 321.25,-133.15 309.12,-130.46"/>
<polygon fill="#63b8ff" stroke="#63b8ff" points="393.1,-157.71 403.7,-157.61 395.35,-151.08 393.1,-157.71"/>
</g>
<!-- Node40 -->
<g id="node23" class="node">
<title>Node40</title>
<g id="a_node23"><a xlink:href="class_urho3_d_1_1_list_view.html#ae8cd3c06143b5a5bc9cf13ad610013d5" target="_top" xlink:title="Remove item from the selection.">
<polygon fill="white" stroke="#666666" points="324.5,-178.5 192.5,-178.5 192.5,-148.5 324.5,-148.5 324.5,-178.5"/>
<text text-anchor="start" x="200.5" y="-166.5" font-family="Roboto" font-size="10.00">Urho3D::ListView::Remove</text>
<text text-anchor="middle" x="258.5" y="-155.5" font-family="Roboto" font-size="10.00">Selection</text>
</a>
</g>
</g>
<!-- Node15&#45;&gt;Node40 -->
<g id="edge25" class="edge">
<title>Node15&#45;&gt;Node40</title>
<path fill="none" stroke="#63b8ff" d="M373.23,-169.53C357.25,-168.69 340.48,-167.8 324.88,-166.97"/>
<polygon fill="#63b8ff" stroke="#63b8ff" points="373.03,-173.03 383.2,-170.06 373.4,-166.04 373.03,-173.03"/>
</g>
<!-- Node41 -->
<g id="node24" class="node">
<title>Node41</title>
<g id="a_node24"><a xlink:href="class_urho3_d_1_1_list_view.html#a045e668208d951ecb6f363cd0dda4932" target="_top" xlink:title=" ">
<polygon fill="#fff0f0" stroke="red" points="346,-264 171,-264 171,-245 346,-245 346,-264"/>
<text text-anchor="middle" x="258.5" y="-252" font-family="Roboto" font-size="10.00">Urho3D::ListView::SetHighlightMode</text>
</a>
</g>
</g>
<!-- Node15&#45;&gt;Node41 -->
<g id="edge27" class="edge">
<title>Node15&#45;&gt;Node41</title>
<path fill="none" stroke="#63b8ff" d="M405.01,-194.18C397.21,-198.34 389.25,-202.87 382,-207.5 364.92,-218.41 364.35,-226.89 346,-235.5 338.2,-239.16 329.68,-242.12 321.12,-244.53"/>
<polygon fill="#63b8ff" stroke="#63b8ff" points="406.5,-197.35 413.76,-189.63 403.27,-191.14 406.5,-197.35"/>
</g>
<!-- Node42 -->
<g id="node25" class="node">
<title>Node42</title>
<g id="a_node25"><a xlink:href="class_urho3_d_1_1_list_view.html#a71aeb11dc012c14ed9fb268a354848d7" target="_top" xlink:title="Set multiple selected items. If multiselect disabled, sets only the first.">
<polygon fill="#fff0f0" stroke="red" points="336.5,-93 180.5,-93 180.5,-74 336.5,-74 336.5,-93"/>
<text text-anchor="middle" x="258.5" y="-81" font-family="Roboto" font-size="10.00">Urho3D::ListView::SetSelections</text>
</a>
</g>
</g>
<!-- Node15&#45;&gt;Node42 -->
<g id="edge29" class="edge">
<title>Node15&#45;&gt;Node42</title>
<path fill="none" stroke="#63b8ff" d="M386.72,-152.71C385.1,-151.68 383.52,-150.62 382,-149.5 360.78,-133.94 368.2,-116.63 346,-102.5 340.16,-98.79 333.7,-95.79 327.02,-93.38"/>
<polygon fill="#63b8ff" stroke="#63b8ff" points="384.65,-155.56 395.09,-157.34 388.04,-149.44 384.65,-155.56"/>
</g>
<!-- Node17 -->
<g id="node17" class="node">
<title>Node17</title>
<g id="a_node17"><a xlink:href="class_urho3_d_1_1_list_view.html#ac943102f0ed053e17432cb33f1a3b223" target="_top" xlink:title="Toggle selection of an item.">
<polygon fill="#fff0f0" stroke="red" points="130,-123.5 5,-123.5 5,-93.5 130,-93.5 130,-123.5"/>
<text text-anchor="start" x="13" y="-111.5" font-family="Roboto" font-size="10.00">Urho3D::ListView::Toggle</text>
<text text-anchor="middle" x="67.5" y="-100.5" font-family="Roboto" font-size="10.00">Selection</text>
</a>
</g>
</g>
<!-- Node16&#45;&gt;Node17 -->
<g id="edge19" class="edge">
<title>Node16&#45;&gt;Node17</title>
<path fill="none" stroke="#63b8ff" d="M190.23,-59.11C183.69,-60.75 177.19,-62.55 171,-64.5 146.44,-72.24 119.73,-83.82 99.74,-93.15"/>
<polygon fill="#63b8ff" stroke="#63b8ff" points="190.85,-62.56 199.77,-56.85 189.23,-55.75 190.85,-62.56"/>
</g>
<!-- Node20 -->
<g id="node19" class="node">
<title>Node20</title>
<g id="a_node19"><a xlink:href="class_urho3_d_1_1_list_view.html#a180fbbadcc42a12d0b78dd839ee0b839" target="_top" xlink:title="Construct.">
<polygon fill="white" stroke="#666666" points="134,-221 1,-221 1,-202 134,-202 134,-221"/>
<text text-anchor="middle" x="67.5" y="-209" font-family="Roboto" font-size="10.00">Urho3D::ListView::ListView</text>
</a>
</g>
</g>
<!-- Node22&#45;&gt;Node20 -->
<g id="edge21" class="edge">
<title>Node22&#45;&gt;Node20</title>
<path fill="none" stroke="#63b8ff" d="M182.6,-211.5C166.66,-211.5 149.95,-211.5 134.38,-211.5"/>
<polygon fill="#63b8ff" stroke="#63b8ff" points="182.53,-215 192.53,-211.5 182.53,-208 182.53,-215"/>
</g>
<!-- Node24 -->
<g id="node21" class="node">
<title>Node24</title>
<g id="a_node21"><a xlink:href="class_urho3_d_1_1_list_view.html#aa7328480b37cc673aa9ccea8653e2c67" target="_top" xlink:title="Add item to the end of the list.">
<polygon fill="#fff0f0" stroke="red" points="135,-19 0,-19 0,0 135,0 135,-19"/>
<text text-anchor="middle" x="67.5" y="-7" font-family="Roboto" font-size="10.00">Urho3D::ListView::AddItem</text>
</a>
</g>
</g>
<!-- Node23&#45;&gt;Node24 -->
<g id="edge23" class="edge">
<title>Node23&#45;&gt;Node24</title>
<path fill="none" stroke="#63b8ff" d="M175.9,-9.5C162.41,-9.5 148.56,-9.5 135.49,-9.5"/>
<polygon fill="#63b8ff" stroke="#63b8ff" points="175.61,-13 185.61,-9.5 175.61,-6 175.61,-13"/>
</g>
<!-- Node40&#45;&gt;Node17 -->
<g id="edge26" class="edge">
<title>Node40&#45;&gt;Node17</title>
<path fill="none" stroke="#63b8ff" d="M190.23,-145C183.73,-143.16 177.23,-141.31 171,-139.5 153.95,-134.56 135.35,-128.99 118.74,-123.95"/>
<polygon fill="#63b8ff" stroke="#63b8ff" points="189.11,-148.32 199.69,-147.66 191.01,-141.58 189.11,-148.32"/>
</g>
<!-- Node41&#45;&gt;Node12 -->
<g id="edge28" class="edge">
<title>Node41&#45;&gt;Node12</title>
<path fill="none" stroke="#63b8ff" d="M159.36,-264.37C150.71,-265.24 142.09,-266.1 133.81,-266.93"/>
<polygon fill="#63b8ff" stroke="#63b8ff" points="159.64,-267.86 169.24,-263.37 158.94,-260.89 159.64,-267.86"/>
</g>
</g>
</svg>
