<?xml version="1.0" encoding="UTF-8" standalone="no"?>
<!DOCTYPE svg PUBLIC "-//W3C//DTD SVG 1.1//EN"
 "http://www.w3.org/Graphics/SVG/1.1/DTD/svg11.dtd">
<!-- Generated by graphviz version 7.0.3 (0)
 -->
<!-- Title: Urho3D::Camera::GetFarClip Pages: 1 -->
<svg width="954pt" height="676pt"
 viewBox="0.00 0.00 954.00 675.50" xmlns="http://www.w3.org/2000/svg" xmlns:xlink="http://www.w3.org/1999/xlink">
<g id="graph0" class="graph" transform="scale(1 1) rotate(0) translate(4 671.5)">
<title>Urho3D::Camera::GetFarClip</title>
<!-- Node1 -->
<g id="node1" class="node">
<title>Node1</title>
<g id="a_node1"><a xlink:title=" ">
<polygon fill="#999999" stroke="#666666" points="946,-321.5 806,-321.5 806,-302.5 946,-302.5 946,-321.5"/>
<text text-anchor="middle" x="876" y="-309.5" font-family="Roboto" font-size="10.00">Urho3D::Camera::GetFarClip</text>
</a>
</g>
</g>
<!-- Node2 -->
<g id="node2" class="node">
<title>Node2</title>
<g id="a_node2"><a xlink:href="class_urho3_d_1_1_view.html#a0cddca92d8a715b17404427840d201fb" target="_top" xlink:title="Query the octree for drawable objects.">
<polygon fill="white" stroke="#666666" points="555.5,-649.5 414.5,-649.5 414.5,-630.5 555.5,-630.5 555.5,-649.5"/>
<text text-anchor="middle" x="485" y="-637.5" font-family="Roboto" font-size="10.00">Urho3D::View::GetDrawables</text>
</a>
</g>
</g>
<!-- Node1&#45;&gt;Node2 -->
<g id="edge1" class="edge">
<title>Node1&#45;&gt;Node2</title>
<path fill="none" stroke="#63b8ff" d="M874.1,-333.13C870.59,-386.59 853.48,-527.78 770,-596 710.12,-644.94 618.64,-650.75 555.77,-647.71"/>
<polygon fill="#63b8ff" stroke="#63b8ff" points="877.58,-333.48 874.63,-323.3 870.59,-333.1 877.58,-333.48"/>
</g>
<!-- Node10 -->
<g id="node4" class="node">
<title>Node10</title>
<g id="a_node4"><a xlink:href="class_urho3_d_1_1_camera.html#a1edcc9f8a61ae07bd15bba96ee079d32" target="_top" xlink:title=" ">
<polygon fill="white" stroke="#666666" points="759.5,-525.5 613.5,-525.5 613.5,-506.5 759.5,-506.5 759.5,-525.5"/>
<text text-anchor="middle" x="686.5" y="-513.5" font-family="Roboto" font-size="10.00">Urho3D::Camera::GetFrustum</text>
</a>
</g>
</g>
<!-- Node1&#45;&gt;Node10 -->
<g id="edge4" class="edge">
<title>Node1&#45;&gt;Node10</title>
<path fill="none" stroke="#63b8ff" d="M867.97,-332.66C854.59,-369.01 822.05,-444.55 770,-487 759.41,-495.64 746.07,-501.78 733.22,-506.13"/>
<polygon fill="#63b8ff" stroke="#63b8ff" points="871.22,-333.96 871.27,-323.37 864.63,-331.62 871.22,-333.96"/>
</g>
<!-- Node16 -->
<g id="node10" class="node">
<title>Node16</title>
<g id="a_node10"><a xlink:href="class_urho3_d_1_1_light.html#a2ac64042dfe3354b9be2663ea63ec4da" target="_top" xlink:title="Return a transform for deferred fullscreen quad (directional light) rendering.">
<polygon fill="white" stroke="#666666" points="356.5,-332 216.5,-332 216.5,-302 356.5,-302 356.5,-332"/>
<text text-anchor="start" x="224.5" y="-320" font-family="Roboto" font-size="10.00">Urho3D::Light::GetFullscreen</text>
<text text-anchor="middle" x="286.5" y="-309" font-family="Roboto" font-size="10.00">QuadTransform</text>
</a>
</g>
</g>
<!-- Node1&#45;&gt;Node16 -->
<g id="edge12" class="edge">
<title>Node1&#45;&gt;Node16</title>
<path fill="none" stroke="#63b8ff" d="M794.07,-314.51C785.94,-314.7 777.81,-314.87 770,-315 622.8,-317.41 450.3,-317.45 356.62,-317.24"/>
<polygon fill="#63b8ff" stroke="#63b8ff" points="794.11,-318.01 804.02,-314.26 793.94,-311.01 794.11,-318.01"/>
</g>
<!-- Node29 -->
<g id="node13" class="node">
<title>Node29</title>
<g id="a_node13"><a xlink:href="class_urho3_d_1_1_camera.html#ab7e166e8cd5a482b25d4caf9792821eb" target="_top" xlink:title=" ">
<polygon fill="white" stroke="#666666" points="765,-306 608,-306 608,-276 765,-276 765,-306"/>
<text text-anchor="start" x="616" y="-294" font-family="Roboto" font-size="10.00">Urho3D::Camera::GetViewSpace</text>
<text text-anchor="middle" x="686.5" y="-283" font-family="Roboto" font-size="10.00">Frustum</text>
</a>
</g>
</g>
<!-- Node1&#45;&gt;Node29 -->
<g id="edge15" class="edge">
<title>Node1&#45;&gt;Node29</title>
<path fill="none" stroke="#63b8ff" d="M794.49,-302.98C784.82,-301.9 774.97,-300.8 765.35,-299.72"/>
<polygon fill="#63b8ff" stroke="#63b8ff" points="793.88,-306.44 804.21,-304.07 794.66,-299.48 793.88,-306.44"/>
</g>
<!-- Node31 -->
<g id="node15" class="node">
<title>Node31</title>
<g id="a_node15"><a xlink:href="class_urho3_d_1_1_view.html#afe8c414e896c0d06ee17ed18e5ce85dd" target="_top" xlink:title="Set camera&#45;specific shader parameters. Called by Batch and internally by View.">
<polygon fill="#fff0f0" stroke="red" points="367,-268 206,-268 206,-238 367,-238 367,-268"/>
<text text-anchor="start" x="214" y="-256" font-family="Roboto" font-size="10.00">Urho3D::View::SetCameraShader</text>
<text text-anchor="middle" x="286.5" y="-245" font-family="Roboto" font-size="10.00">Parameters</text>
</a>
</g>
</g>
<!-- Node1&#45;&gt;Node31 -->
<g id="edge28" class="edge">
<title>Node1&#45;&gt;Node31</title>
<path fill="none" stroke="#63b8ff" d="M847.53,-296.83C826.89,-286.28 797.54,-273.07 770,-267 630.88,-236.33 463.75,-240.22 367.17,-246.3"/>
<polygon fill="#63b8ff" stroke="#63b8ff" points="845.66,-299.8 856.14,-301.35 848.91,-293.6 845.66,-299.8"/>
</g>
<!-- Node32 -->
<g id="node16" class="node">
<title>Node32</title>
<g id="a_node16"><a xlink:href="struct_urho3_d_1_1_batch.html#ad8794a08ef43585f0c54aebf11f39e11" target="_top" xlink:title="Prepare for rendering.">
<polygon fill="#fff0f0" stroke="red" points="143.5,-251.5 26.5,-251.5 26.5,-232.5 143.5,-232.5 143.5,-251.5"/>
<text text-anchor="middle" x="85" y="-239.5" font-family="Roboto" font-size="10.00">Urho3D::Batch::Prepare</text>
</a>
</g>
</g>
<!-- Node1&#45;&gt;Node32 -->
<g id="edge24" class="edge">
<title>Node1&#45;&gt;Node32</title>
<path fill="none" stroke="#63b8ff" d="M856.12,-294.59C836.34,-277.58 803.53,-252.74 770,-242 542.13,-168.98 249.21,-210.91 134.82,-232.07"/>
<polygon fill="#63b8ff" stroke="#63b8ff" points="853.79,-297.2 863.6,-301.21 858.43,-291.96 853.79,-297.2"/>
</g>
<!-- Node37 -->
<g id="node17" class="node">
<title>Node37</title>
<g id="a_node17"><a xlink:href="class_urho3_d_1_1_camera.html#ab80937e50cbb6c26ee2b653d9bbd1a1e" target="_top" xlink:title="Return if projection parameters are valid for rendering and raycasting.">
<polygon fill="#fff0f0" stroke="red" points="759.5,-182 613.5,-182 613.5,-152 759.5,-152 759.5,-182"/>
<text text-anchor="start" x="621.5" y="-170" font-family="Roboto" font-size="10.00">Urho3D::Camera::IsProjection</text>
<text text-anchor="middle" x="686.5" y="-159" font-family="Roboto" font-size="10.00">Valid</text>
</a>
</g>
</g>
<!-- Node1&#45;&gt;Node37 -->
<g id="edge20" class="edge">
<title>Node1&#45;&gt;Node37</title>
<path fill="none" stroke="#63b8ff" d="M862.25,-292.75C844.43,-267.26 809.77,-222.43 770,-196 761.91,-190.62 752.71,-186.12 743.45,-182.39"/>
<polygon fill="#63b8ff" stroke="#63b8ff" points="859.24,-294.56 867.77,-300.84 865.02,-290.61 859.24,-294.56"/>
</g>
<!-- Node41 -->
<g id="node19" class="node">
<title>Node41</title>
<g id="a_node19"><a xlink:href="class_urho3_d_1_1_view.html#a49001e64316a935b378b045fde2043a2" target="_top" xlink:title="Check visibility of one shadow caster.">
<polygon fill="white" stroke="#666666" points="763.5,-478 609.5,-478 609.5,-448 763.5,-448 763.5,-478"/>
<text text-anchor="start" x="617.5" y="-466" font-family="Roboto" font-size="10.00">Urho3D::View::IsShadowCaster</text>
<text text-anchor="middle" x="686.5" y="-455" font-family="Roboto" font-size="10.00">Visible</text>
</a>
</g>
</g>
<!-- Node1&#45;&gt;Node41 -->
<g id="edge22" class="edge">
<title>Node1&#45;&gt;Node41</title>
<path fill="none" stroke="#63b8ff" d="M863.23,-331.12C845.92,-357.75 811.16,-405.9 770,-434 762.1,-439.39 753.09,-443.89 744,-447.6"/>
<polygon fill="#63b8ff" stroke="#63b8ff" points="865.97,-333.34 868.37,-323.02 860.05,-329.59 865.97,-333.34"/>
</g>
<!-- Node42 -->
<g id="node20" class="node">
<title>Node42</title>
<g id="a_node20"><a xlink:href="class_urho3_d_1_1_camera.html#a7135721d90b089309a667a16bd27a603" target="_top" xlink:title=" ">
<polygon fill="white" stroke="#666666" points="751.5,-134 621.5,-134 621.5,-104 751.5,-104 751.5,-134"/>
<text text-anchor="start" x="629.5" y="-122" font-family="Roboto" font-size="10.00">Urho3D::Camera::Register</text>
<text text-anchor="middle" x="686.5" y="-111" font-family="Roboto" font-size="10.00">Object</text>
</a>
</g>
</g>
<!-- Node1&#45;&gt;Node42 -->
<g id="edge25" class="edge">
<title>Node1&#45;&gt;Node42</title>
<path fill="none" stroke="#63b8ff" d="M868,-291.76C854.65,-256.21 822.17,-182.58 770,-143 764.53,-138.85 758.37,-135.42 751.93,-132.58"/>
<polygon fill="#63b8ff" stroke="#63b8ff" points="864.58,-292.62 871.28,-300.83 871.17,-290.24 864.58,-292.62"/>
</g>
<!-- Node35 -->
<g id="node21" class="node">
<title>Node35</title>
<g id="a_node21"><a xlink:href="class_urho3_d_1_1_view.html#ae7e6e47346e5ff4346eb8cb251e013ef" target="_top" xlink:title="Render a shadow map.">
<polygon fill="#fff0f0" stroke="red" points="770,-67.5 603,-67.5 603,-48.5 770,-48.5 770,-67.5"/>
<text text-anchor="middle" x="686.5" y="-55.5" font-family="Roboto" font-size="10.00">Urho3D::View::RenderShadowMap</text>
</a>
</g>
</g>
<!-- Node1&#45;&gt;Node35 -->
<g id="edge26" class="edge">
<title>Node1&#45;&gt;Node35</title>
<path fill="none" stroke="#63b8ff" d="M870.13,-291.36C859.18,-249.16 828.89,-152.21 770,-95 757.05,-82.42 739.09,-73.68 723.23,-67.86"/>
<polygon fill="#63b8ff" stroke="#63b8ff" points="866.69,-292.04 872.5,-300.91 873.48,-290.36 866.69,-292.04"/>
</g>
<!-- Node43 -->
<g id="node22" class="node">
<title>Node43</title>
<g id="a_node22"><a xlink:href="class_urho3_d_1_1_view.html#ad5d5472594f2048969af6ea296e843e5" target="_top" xlink:title="Set up a directional light shadow camera.">
<polygon fill="white" stroke="#666666" points="756,-392 617,-392 617,-362 756,-362 756,-392"/>
<text text-anchor="start" x="625" y="-380" font-family="Roboto" font-size="10.00">Urho3D::View::SetupDirLight</text>
<text text-anchor="middle" x="686.5" y="-369" font-family="Roboto" font-size="10.00">ShadowCamera</text>
</a>
</g>
</g>
<!-- Node1&#45;&gt;Node43 -->
<g id="edge29" class="edge">
<title>Node1&#45;&gt;Node43</title>
<path fill="none" stroke="#63b8ff" d="M835.93,-325.55C805.61,-336.05 763.58,-350.63 731.98,-361.58"/>
<polygon fill="#63b8ff" stroke="#63b8ff" points="836.79,-328.95 845.09,-322.37 834.5,-322.34 836.79,-328.95"/>
</g>
<!-- Node44 -->
<g id="node23" class="node">
<title>Node44</title>
<g id="a_node23"><a xlink:href="class_urho3_d_1_1_view.html#a4d3766cb580e7a61b7ce50bc4e9aa926" target="_top" xlink:title="Set up initial shadow camera view(s).">
<polygon fill="white" stroke="#666666" points="555.5,-392 414.5,-392 414.5,-362 555.5,-362 555.5,-392"/>
<text text-anchor="start" x="422.5" y="-380" font-family="Roboto" font-size="10.00">Urho3D::View::SetupShadow</text>
<text text-anchor="middle" x="485" y="-369" font-family="Roboto" font-size="10.00">Cameras</text>
</a>
</g>
</g>
<!-- Node1&#45;&gt;Node44 -->
<g id="edge32" class="edge">
<title>Node1&#45;&gt;Node44</title>
<path fill="none" stroke="#63b8ff" d="M860.56,-330.37C842.22,-352.05 808.3,-386.95 770,-401 700.32,-426.56 676.84,-408.5 603,-401 585.57,-399.23 566.9,-396.01 549.7,-392.5"/>
<polygon fill="#63b8ff" stroke="#63b8ff" points="863.06,-332.84 866.69,-322.89 857.64,-328.41 863.06,-332.84"/>
</g>
<!-- Node45 -->
<g id="node24" class="node">
<title>Node45</title>
<g id="a_node24"><a xlink:href="class_urho3_d_1_1_occlusion_buffer.html#a2540b689f2451b6358fd99717151fff6" target="_top" xlink:title="Set camera view to render from.">
<polygon fill="#fff0f0" stroke="red" points="749,-30 624,-30 624,0 749,0 749,-30"/>
<text text-anchor="start" x="632" y="-18" font-family="Roboto" font-size="10.00">Urho3D::OcclusionBuffer</text>
<text text-anchor="middle" x="686.5" y="-7" font-family="Roboto" font-size="10.00">::SetView</text>
</a>
</g>
</g>
<!-- Node1&#45;&gt;Node45 -->
<g id="edge33" class="edge">
<title>Node1&#45;&gt;Node45</title>
<path fill="none" stroke="#63b8ff" d="M873.14,-290.92C867.51,-239.9 845.99,-108.86 770,-39 764.07,-33.55 756.97,-29.33 749.46,-26.06"/>
<polygon fill="#63b8ff" stroke="#63b8ff" points="869.63,-290.97 874.11,-300.57 876.6,-290.27 869.63,-290.97"/>
</g>
<!-- Node47 -->
<g id="node25" class="node">
<title>Node47</title>
<g id="a_node25"><a xlink:href="class_urho3_d_1_1_view.html#a97f9dbaf8b51572832e0890af3e53e4b" target="_top" xlink:title="Query for occluders as seen from a camera.">
<polygon fill="white" stroke="#666666" points="765,-586.5 608,-586.5 608,-567.5 765,-567.5 765,-586.5"/>
<text text-anchor="middle" x="686.5" y="-574.5" font-family="Roboto" font-size="10.00">Urho3D::View::UpdateOccluders</text>
</a>
</g>
</g>
<!-- Node1&#45;&gt;Node47 -->
<g id="edge34" class="edge">
<title>Node1&#45;&gt;Node47</title>
<path fill="none" stroke="#63b8ff" d="M870.12,-332.7C859.1,-375.46 828.56,-474.6 770,-535 755.68,-549.77 735.05,-560.27 718.01,-567.08"/>
<polygon fill="#63b8ff" stroke="#63b8ff" points="873.46,-333.79 872.46,-323.24 866.66,-332.11 873.46,-333.79"/>
</g>
<!-- Node2&#45;&gt;Node2 -->
<g id="edge2" class="edge">
<title>Node2&#45;&gt;Node2</title>
<path fill="none" stroke="#63b8ff" d="M520.92,-660.26C517.14,-664.47 505.17,-667.5 485,-667.5 450.11,-667.5 439.75,-658.44 453.92,-649.87"/>
<polygon fill="#63b8ff" stroke="#63b8ff" points="524.11,-658.83 516.72,-651.24 517.77,-661.78 524.11,-658.83"/>
</g>
<!-- Node3 -->
<g id="node3" class="node">
<title>Node3</title>
<g id="a_node3"><a xlink:href="class_urho3_d_1_1_view.html#a50c3fe5d5c2b3040e13925aa277a8d93" target="_top" xlink:title="Update and cull objects and construct rendering batches.">
<polygon fill="#fff0f0" stroke="red" points="342.5,-649.5 230.5,-649.5 230.5,-630.5 342.5,-630.5 342.5,-649.5"/>
<text text-anchor="middle" x="286.5" y="-637.5" font-family="Roboto" font-size="10.00">Urho3D::View::Update</text>
</a>
</g>
</g>
<!-- Node2&#45;&gt;Node3 -->
<g id="edge3" class="edge">
<title>Node2&#45;&gt;Node3</title>
<path fill="none" stroke="#63b8ff" d="M402.78,-640C382.63,-640 361.5,-640 342.91,-640"/>
<polygon fill="#63b8ff" stroke="#63b8ff" points="402.65,-643.5 412.65,-640 402.65,-636.5 402.65,-643.5"/>
</g>
<!-- Node10&#45;&gt;Node2 -->
<g id="edge7" class="edge">
<title>Node10&#45;&gt;Node2</title>
<path fill="none" stroke="#63b8ff" d="M646.9,-530.61C631.97,-537.59 615.5,-547.06 603,-559 579.96,-581.01 592.6,-602.03 567,-621 562.01,-624.7 556.41,-627.69 550.55,-630.11"/>
<polygon fill="#63b8ff" stroke="#63b8ff" points="648.3,-533.81 656.04,-526.57 645.48,-527.41 648.3,-533.81"/>
</g>
<!-- Node11 -->
<g id="node5" class="node">
<title>Node11</title>
<g id="a_node5"><a xlink:href="class_urho3_d_1_1_camera.html#a35b2f97c4a3370a26b10ff133f86d2fa" target="_top" xlink:title="Visualize the component as debug geometry.">
<polygon fill="white" stroke="#666666" points="557,-612 413,-612 413,-582 557,-582 557,-612"/>
<text text-anchor="start" x="421" y="-600" font-family="Roboto" font-size="10.00">Urho3D::Camera::DrawDebug</text>
<text text-anchor="middle" x="485" y="-589" font-family="Roboto" font-size="10.00">Geometry</text>
</a>
</g>
</g>
<!-- Node10&#45;&gt;Node11 -->
<g id="edge5" class="edge">
<title>Node10&#45;&gt;Node11</title>
<path fill="none" stroke="#63b8ff" d="M657.41,-531.09C633.75,-543.42 598.77,-560.74 567,-573 559.06,-576.06 550.57,-578.97 542.17,-581.63"/>
<polygon fill="#63b8ff" stroke="#63b8ff" points="658.87,-534.28 666.09,-526.52 655.61,-528.08 658.87,-534.28"/>
</g>
<!-- Node12 -->
<g id="node6" class="node">
<title>Node12</title>
<g id="a_node6"><a xlink:href="class_urho3_d_1_1_view.html#ae6b753dabd0921ef05ce5d73b75c6209" target="_top" xlink:title="Find and set a new zone for a drawable when it has moved.">
<polygon fill="white" stroke="#666666" points="546,-563.5 424,-563.5 424,-544.5 546,-544.5 546,-563.5"/>
<text text-anchor="middle" x="485" y="-551.5" font-family="Roboto" font-size="10.00">Urho3D::View::FindZone</text>
</a>
</g>
</g>
<!-- Node10&#45;&gt;Node12 -->
<g id="edge6" class="edge">
<title>Node10&#45;&gt;Node12</title>
<path fill="none" stroke="#63b8ff" d="M621.83,-528.13C594.92,-533.25 563.97,-539.15 538.41,-544.02"/>
<polygon fill="#63b8ff" stroke="#63b8ff" points="622.43,-531.58 631.6,-526.27 621.12,-524.7 622.43,-531.58"/>
</g>
<!-- Node13 -->
<g id="node7" class="node">
<title>Node13</title>
<g id="a_node7"><a xlink:href="class_urho3_d_1_1_view.html#a8386e461553bac5a6b4512b8a9712e79" target="_top" xlink:title="Query for lit geometries and shadow casters for a light.">
<polygon fill="white" stroke="#666666" points="355,-434.5 218,-434.5 218,-415.5 355,-415.5 355,-434.5"/>
<text text-anchor="middle" x="286.5" y="-422.5" font-family="Roboto" font-size="10.00">Urho3D::View::ProcessLight</text>
</a>
</g>
</g>
<!-- Node10&#45;&gt;Node13 -->
<g id="edge8" class="edge">
<title>Node10&#45;&gt;Node13</title>
<path fill="none" stroke="#63b8ff" d="M601.97,-520.89C544.65,-521.74 467.58,-517.85 403,-497 360.95,-483.42 318.7,-451.26 298.98,-434.91"/>
<polygon fill="#63b8ff" stroke="#63b8ff" points="601.72,-524.4 611.65,-520.7 601.58,-517.4 601.72,-524.4"/>
</g>
<!-- Node14 -->
<g id="node8" class="node">
<title>Node14</title>
<g id="a_node8"><a xlink:href="class_urho3_d_1_1_view.html#a7d398cea4906919b033f5fc86f67d764" target="_top" xlink:title="Process shadow casters&#39; visibilities and build their combined view&#45; or projection&#45;space bounding box.">
<polygon fill="white" stroke="#666666" points="561,-440 409,-440 409,-410 561,-410 561,-440"/>
<text text-anchor="start" x="417" y="-428" font-family="Roboto" font-size="10.00">Urho3D::View::ProcessShadow</text>
<text text-anchor="middle" x="485" y="-417" font-family="Roboto" font-size="10.00">Casters</text>
</a>
</g>
</g>
<!-- Node10&#45;&gt;Node14 -->
<g id="edge9" class="edge">
<title>Node10&#45;&gt;Node14</title>
<path fill="none" stroke="#63b8ff" d="M634.42,-502.3C623.59,-498.25 612.55,-493.19 603,-487 583.48,-474.34 586.83,-461.16 567,-449 561.62,-445.7 555.77,-442.84 549.75,-440.35"/>
<polygon fill="#63b8ff" stroke="#63b8ff" points="633.1,-505.54 643.69,-505.52 635.4,-498.93 633.1,-505.54"/>
</g>
<!-- Node15 -->
<g id="node9" class="node">
<title>Node15</title>
<g id="a_node9"><a xlink:href="class_urho3_d_1_1_debug_renderer.html#a65ddc45de33de57b41a9889fdce2363c" target="_top" xlink:title="Set the camera viewpoint. Call before rendering, or before adding geometry if you want to use culling...">
<polygon fill="#fff0f0" stroke="red" points="546,-488 424,-488 424,-458 546,-458 546,-488"/>
<text text-anchor="start" x="432" y="-476" font-family="Roboto" font-size="10.00">Urho3D::DebugRenderer</text>
<text text-anchor="middle" x="485" y="-465" font-family="Roboto" font-size="10.00">::SetView</text>
</a>
</g>
</g>
<!-- Node10&#45;&gt;Node15 -->
<g id="edge11" class="edge">
<title>Node10&#45;&gt;Node15</title>
<path fill="none" stroke="#63b8ff" d="M628.19,-503.65C602.57,-498.13 572.37,-491.62 546.4,-486.02"/>
<polygon fill="#63b8ff" stroke="#63b8ff" points="627.24,-507.02 637.75,-505.71 628.71,-500.18 627.24,-507.02"/>
</g>
<!-- Node14&#45;&gt;Node13 -->
<g id="edge10" class="edge">
<title>Node14&#45;&gt;Node13</title>
<path fill="none" stroke="#63b8ff" d="M397.38,-425C383.29,-425 368.87,-425 355.31,-425"/>
<polygon fill="#63b8ff" stroke="#63b8ff" points="397.08,-428.5 407.08,-425 397.08,-421.5 397.08,-428.5"/>
</g>
<!-- Node17 -->
<g id="node11" class="node">
<title>Node17</title>
<g id="a_node11"><a xlink:href="class_urho3_d_1_1_view.html#a9f5a7068310ea03c58673eb5add7db21" target="_top" xlink:title="Draw a fullscreen quad. Shaders and renderstates must have been set beforehand. Quad will be drawn to...">
<polygon fill="#fff0f0" stroke="red" points="170,-293.5 0,-293.5 0,-274.5 170,-274.5 170,-293.5"/>
<text text-anchor="middle" x="85" y="-281.5" font-family="Roboto" font-size="10.00">Urho3D::View::DrawFullscreenQuad</text>
</a>
</g>
</g>
<!-- Node16&#45;&gt;Node17 -->
<g id="edge13" class="edge">
<title>Node16&#45;&gt;Node17</title>
<path fill="none" stroke="#63b8ff" d="M204.66,-303.63C185.16,-300.4 164.66,-297.01 146.28,-293.97"/>
<polygon fill="#63b8ff" stroke="#63b8ff" points="204.07,-307.08 214.51,-305.26 205.22,-300.17 204.07,-307.08"/>
</g>
<!-- Node24 -->
<g id="node12" class="node">
<title>Node24</title>
<g id="a_node12"><a xlink:href="class_urho3_d_1_1_light.html#a3b3648ecb50a410286b5be3b9fa4ddfc" target="_top" xlink:title="Return light volume model transform.">
<polygon fill="#fff0f0" stroke="red" points="149.5,-342 20.5,-342 20.5,-312 149.5,-312 149.5,-342"/>
<text text-anchor="start" x="28.5" y="-330" font-family="Roboto" font-size="10.00">Urho3D::Light::GetVolume</text>
<text text-anchor="middle" x="85" y="-319" font-family="Roboto" font-size="10.00">Transform</text>
</a>
</g>
</g>
<!-- Node16&#45;&gt;Node24 -->
<g id="edge14" class="edge">
<title>Node16&#45;&gt;Node24</title>
<path fill="none" stroke="#63b8ff" d="M204.51,-321.06C186.32,-321.97 167.28,-322.93 149.9,-323.8"/>
<polygon fill="#63b8ff" stroke="#63b8ff" points="204.68,-324.56 214.49,-320.56 204.33,-317.56 204.68,-324.56"/>
</g>
<!-- Node30 -->
<g id="node14" class="node">
<title>Node30</title>
<g id="a_node14"><a xlink:href="class_urho3_d_1_1_camera.html#a2f9539871c9224f9482a3ac26e059351" target="_top" xlink:title="Return frustum near and far sizes.">
<polygon fill="white" stroke="#666666" points="567,-300.5 403,-300.5 403,-281.5 567,-281.5 567,-300.5"/>
<text text-anchor="middle" x="485" y="-288.5" font-family="Roboto" font-size="10.00">Urho3D::Camera::GetFrustumSize</text>
</a>
</g>
</g>
<!-- Node29&#45;&gt;Node30 -->
<g id="edge16" class="edge">
<title>Node29&#45;&gt;Node30</title>
<path fill="none" stroke="#63b8ff" d="M596.25,-291C586.58,-291 576.79,-291 567.22,-291"/>
<polygon fill="#63b8ff" stroke="#63b8ff" points="596,-294.5 606,-291 596,-287.5 596,-294.5"/>
</g>
<!-- Node30&#45;&gt;Node16 -->
<g id="edge17" class="edge">
<title>Node30&#45;&gt;Node16</title>
<path fill="none" stroke="#63b8ff" d="M397.32,-302.47C383.8,-304.26 369.98,-306.09 356.91,-307.82"/>
<polygon fill="#63b8ff" stroke="#63b8ff" points="397.64,-305.96 407.09,-301.18 396.72,-299.02 397.64,-305.96"/>
</g>
<!-- Node30&#45;&gt;Node31 -->
<g id="edge18" class="edge">
<title>Node30&#45;&gt;Node31</title>
<path fill="none" stroke="#63b8ff" d="M421.35,-278.88C404.17,-275.56 385.31,-271.91 367.3,-268.43"/>
<polygon fill="#63b8ff" stroke="#63b8ff" points="420.4,-282.27 430.89,-280.73 421.73,-275.39 420.4,-282.27"/>
</g>
<!-- Node31&#45;&gt;Node32 -->
<g id="edge19" class="edge">
<title>Node31&#45;&gt;Node32</title>
<path fill="none" stroke="#63b8ff" d="M194.31,-247.97C177.17,-247.03 159.69,-246.06 143.91,-245.19"/>
<polygon fill="#63b8ff" stroke="#63b8ff" points="193.82,-251.45 203.99,-248.51 194.2,-244.46 193.82,-251.45"/>
</g>
<!-- Node38 -->
<g id="node18" class="node">
<title>Node38</title>
<g id="a_node18"><a xlink:href="class_urho3_d_1_1_view.html#a38bd2f1292778c57fae949c4e271c20d" target="_top" xlink:title="Define with rendertarget and viewport. Return true if successful.">
<polygon fill="#fff0f0" stroke="red" points="539,-176.5 431,-176.5 431,-157.5 539,-157.5 539,-176.5"/>
<text text-anchor="middle" x="485" y="-164.5" font-family="Roboto" font-size="10.00">Urho3D::View::Define</text>
</a>
</g>
</g>
<!-- Node37&#45;&gt;Node38 -->
<g id="edge21" class="edge">
<title>Node37&#45;&gt;Node38</title>
<path fill="none" stroke="#63b8ff" d="M601.89,-167C580.7,-167 558.52,-167 539.3,-167"/>
<polygon fill="#63b8ff" stroke="#63b8ff" points="601.68,-170.5 611.68,-167 601.68,-163.5 601.68,-170.5"/>
</g>
<!-- Node41&#45;&gt;Node14 -->
<g id="edge23" class="edge">
<title>Node41&#45;&gt;Node14</title>
<path fill="none" stroke="#63b8ff" d="M598.05,-446.34C585.78,-444.01 573.26,-441.62 561.25,-439.33"/>
<polygon fill="#63b8ff" stroke="#63b8ff" points="597.26,-449.75 607.74,-448.19 598.57,-442.88 597.26,-449.75"/>
</g>
<!-- Node35&#45;&gt;Node35 -->
<g id="edge27" class="edge">
<title>Node35&#45;&gt;Node35</title>
<path fill="none" stroke="#63b8ff" d="M720.79,-78.26C717.19,-82.47 705.76,-85.5 686.5,-85.5 653.19,-85.5 643.3,-76.44 656.83,-67.87"/>
<polygon fill="#63b8ff" stroke="#63b8ff" points="724.04,-76.97 716.78,-69.25 717.65,-79.81 724.04,-76.97"/>
</g>
<!-- Node43&#45;&gt;Node44 -->
<g id="edge30" class="edge">
<title>Node43&#45;&gt;Node44</title>
<path fill="none" stroke="#63b8ff" d="M605.38,-377C589.02,-377 571.92,-377 555.95,-377"/>
<polygon fill="#63b8ff" stroke="#63b8ff" points="605.05,-380.5 615.05,-377 605.05,-373.5 605.05,-380.5"/>
</g>
<!-- Node44&#45;&gt;Node13 -->
<g id="edge31" class="edge">
<title>Node44&#45;&gt;Node13</title>
<path fill="none" stroke="#63b8ff" d="M409.91,-395.1C382.28,-401.85 351.93,-409.26 328.36,-415.02"/>
<polygon fill="#63b8ff" stroke="#63b8ff" points="410.39,-398.58 419.27,-392.81 408.73,-391.78 410.39,-398.58"/>
</g>
<!-- Node47&#45;&gt;Node2 -->
<g id="edge35" class="edge">
<title>Node47&#45;&gt;Node2</title>
<path fill="none" stroke="#63b8ff" d="M651.28,-591C627.82,-600.28 595.84,-612.3 567,-621 556.08,-624.3 544.18,-627.37 532.95,-630.04"/>
<polygon fill="#63b8ff" stroke="#63b8ff" points="652.35,-594.35 660.34,-587.39 649.75,-587.84 652.35,-594.35"/>
</g>
</g>
</svg>
