<?xml version="1.0" encoding="UTF-8" standalone="no"?>
<!DOCTYPE svg PUBLIC "-//W3C//DTD SVG 1.1//EN"
 "http://www.w3.org/Graphics/SVG/1.1/DTD/svg11.dtd">
<!-- Generated by graphviz version 7.0.3 (0)
 -->
<!-- Title: Urho3D::LogicComponent::OnSceneSet Pages: 1 -->
<svg width="1184pt" height="460pt"
 viewBox="0.00 0.00 1184.00 460.00" xmlns="http://www.w3.org/2000/svg" xmlns:xlink="http://www.w3.org/1999/xlink">
<g id="graph0" class="graph" transform="scale(1 1) rotate(0) translate(4 456)">
<title>Urho3D::LogicComponent::OnSceneSet</title>
<!-- Node1 -->
<g id="node1" class="node">
<title>Node1</title>
<g id="a_node1"><a xlink:title="Handle scene being assigned.">
<polygon fill="#999999" stroke="#666666" points="131,-307 0,-307 0,-277 131,-277 131,-307"/>
<text text-anchor="start" x="8" y="-295" font-family="Roboto" font-size="10.00">Urho3D::LogicComponent</text>
<text text-anchor="middle" x="65.5" y="-284" font-family="Roboto" font-size="10.00">::OnSceneSet</text>
</a>
</g>
</g>
<!-- Node2 -->
<g id="node2" class="node">
<title>Node2</title>
<g id="a_node2"><a xlink:href="class_urho3_d_1_1_object.html#a153b96c4397e045b2ca2b2d5471d097c" target="_top" xlink:title="Unsubscribe from an event.">
<polygon fill="white" stroke="#666666" points="648.5,-404 506.5,-404 506.5,-374 648.5,-374 648.5,-404"/>
<text text-anchor="start" x="514.5" y="-392" font-family="Roboto" font-size="10.00">Urho3D::Object::Unsubscribe</text>
<text text-anchor="middle" x="577.5" y="-381" font-family="Roboto" font-size="10.00">FromEvent</text>
</a>
</g>
</g>
<!-- Node1&#45;&gt;Node2 -->
<g id="edge1" class="edge">
<title>Node1&#45;&gt;Node2</title>
<path fill="none" stroke="#63b8ff" d="M110.85,-307.42C163.41,-325.03 253.99,-353.31 334,-368 387.08,-377.75 447.56,-383 494.84,-385.81"/>
<polygon fill="#63b8ff" stroke="#63b8ff" points="494.56,-389.3 504.74,-386.37 494.96,-382.31 494.56,-389.3"/>
</g>
<!-- Node17 -->
<g id="node10" class="node">
<title>Node17</title>
<g id="a_node10"><a xlink:href="class_urho3_d_1_1_logic_component.html#a7290eb9fff45aef56ae052ccc8e8b729" target="_top" xlink:title="Subscribe/unsubscribe to update events based on current enabled state and update event mask.">
<polygon fill="white" stroke="#666666" points="298,-243 167,-243 167,-213 298,-213 298,-243"/>
<text text-anchor="start" x="175" y="-231" font-family="Roboto" font-size="10.00">Urho3D::LogicComponent</text>
<text text-anchor="middle" x="232.5" y="-220" font-family="Roboto" font-size="10.00">::UpdateEventSubscription</text>
</a>
</g>
</g>
<!-- Node1&#45;&gt;Node17 -->
<g id="edge9" class="edge">
<title>Node1&#45;&gt;Node17</title>
<path fill="none" stroke="#63b8ff" d="M106.44,-276.51C128.86,-267.81 157.04,-256.88 180.98,-247.6"/>
<polygon fill="#63b8ff" stroke="#63b8ff" points="182.17,-250.89 190.23,-244.01 179.64,-244.36 182.17,-250.89"/>
</g>
<!-- Node3 -->
<g id="node3" class="node">
<title>Node3</title>
<g id="a_node3"><a xlink:href="class_urho3_d_1_1_object.html#a00bec56f305dd6636d186e5b351d0264" target="_top" xlink:title="Find the first event handler with no specific sender.">
<polygon fill="white" stroke="#666666" points="831,-452 702,-452 702,-422 831,-422 831,-452"/>
<text text-anchor="start" x="710" y="-440" font-family="Roboto" font-size="10.00">Urho3D::Object::FindEvent</text>
<text text-anchor="middle" x="766.5" y="-429" font-family="Roboto" font-size="10.00">Handler</text>
</a>
</g>
</g>
<!-- Node2&#45;&gt;Node3 -->
<g id="edge2" class="edge">
<title>Node2&#45;&gt;Node3</title>
<path fill="none" stroke="#63b8ff" d="M638.7,-404.45C656.46,-409.01 676.08,-414.05 694.46,-418.76"/>
<polygon fill="#63b8ff" stroke="#63b8ff" points="693.39,-422.1 703.95,-421.2 695.13,-415.32 693.39,-422.1"/>
</g>
<!-- Node5 -->
<g id="node5" class="node">
<title>Node5</title>
<g id="a_node5"><a xlink:href="class_urho3_d_1_1_event_handler.html#a18d3379ef44dac87304f2b118e36c83e" target="_top" xlink:title="Return event sender. Null if the handler is non&#45;specific.">
<polygon fill="white" stroke="#666666" points="823,-356 710,-356 710,-326 823,-326 823,-356"/>
<text text-anchor="start" x="718" y="-344" font-family="Roboto" font-size="10.00">Urho3D::EventHandler</text>
<text text-anchor="middle" x="766.5" y="-333" font-family="Roboto" font-size="10.00">::GetSender</text>
</a>
</g>
</g>
<!-- Node2&#45;&gt;Node5 -->
<g id="edge4" class="edge">
<title>Node2&#45;&gt;Node5</title>
<path fill="none" stroke="#63b8ff" d="M638.7,-373.55C657.8,-368.65 679.03,-363.2 698.57,-358.18"/>
<polygon fill="#63b8ff" stroke="#63b8ff" points="699.26,-361.62 708.08,-355.74 697.52,-354.84 699.26,-361.62"/>
</g>
<!-- Node6 -->
<g id="node6" class="node">
<title>Node6</title>
<g id="a_node6"><a xlink:href="class_urho3_d_1_1_context.html#a7b5bd076e695054df7930255c3eee18b" target="_top" xlink:title="Remove event receiver from specific events.">
<polygon fill="white" stroke="#666666" points="843,-404 690,-404 690,-374 843,-374 843,-404"/>
<text text-anchor="start" x="698" y="-392" font-family="Roboto" font-size="10.00">Urho3D::Context::RemoveEvent</text>
<text text-anchor="middle" x="766.5" y="-381" font-family="Roboto" font-size="10.00">Receiver</text>
</a>
</g>
</g>
<!-- Node2&#45;&gt;Node6 -->
<g id="edge5" class="edge">
<title>Node2&#45;&gt;Node6</title>
<path fill="none" stroke="#63b8ff" d="M648.93,-389C658.46,-389 668.32,-389 678.1,-389"/>
<polygon fill="#63b8ff" stroke="#63b8ff" points="677.99,-392.5 687.99,-389 677.99,-385.5 677.99,-392.5"/>
</g>
<!-- Node4 -->
<g id="node4" class="node">
<title>Node4</title>
<g id="a_node4"><a xlink:href="class_urho3_d_1_1_event_handler.html#ae09d06f06d3590e6f4e06006efa90176" target="_top" xlink:title="Return event type.">
<polygon fill="white" stroke="#666666" points="1006.5,-452 893.5,-452 893.5,-422 1006.5,-422 1006.5,-452"/>
<text text-anchor="start" x="901.5" y="-440" font-family="Roboto" font-size="10.00">Urho3D::EventHandler</text>
<text text-anchor="middle" x="950" y="-429" font-family="Roboto" font-size="10.00">::GetEventType</text>
</a>
</g>
</g>
<!-- Node3&#45;&gt;Node4 -->
<g id="edge3" class="edge">
<title>Node3&#45;&gt;Node4</title>
<path fill="none" stroke="#63b8ff" d="M831.49,-437C847.83,-437 865.43,-437 881.92,-437"/>
<polygon fill="#63b8ff" stroke="#63b8ff" points="881.61,-440.5 891.61,-437 881.61,-433.5 881.61,-440.5"/>
</g>
<!-- Node7 -->
<g id="node7" class="node">
<title>Node7</title>
<g id="a_node7"><a xlink:href="class_urho3_d_1_1_context.html#a1b685db14efe388bbf40ec5c27bab7eb" target="_top" xlink:title="Return event receivers for a sender and event type, or null if they do not exist.">
<polygon fill="#fff0f0" stroke="red" points="1016,-356 884,-356 884,-326 1016,-326 1016,-356"/>
<text text-anchor="start" x="892" y="-344" font-family="Roboto" font-size="10.00">Urho3D::Context::GetEvent</text>
<text text-anchor="middle" x="950" y="-333" font-family="Roboto" font-size="10.00">Receivers</text>
</a>
</g>
</g>
<!-- Node6&#45;&gt;Node7 -->
<g id="edge6" class="edge">
<title>Node6&#45;&gt;Node7</title>
<path fill="none" stroke="#63b8ff" d="M825.93,-373.55C843.09,-369.01 862.03,-364 879.8,-359.3"/>
<polygon fill="#63b8ff" stroke="#63b8ff" points="880.45,-362.75 889.22,-356.81 878.66,-355.98 880.45,-362.75"/>
</g>
<!-- Node16 -->
<g id="node9" class="node">
<title>Node16</title>
<g id="a_node9"><a xlink:href="class_urho3_d_1_1_event_receiver_group.html#a3074ee82cc374a0a9145fe8847086022" target="_top" xlink:title="Remove receiver. Leave holes during send, which requires later cleanup.">
<polygon fill="white" stroke="#666666" points="1021,-404 879,-404 879,-374 1021,-374 1021,-404"/>
<text text-anchor="start" x="887" y="-392" font-family="Roboto" font-size="10.00">Urho3D::EventReceiverGroup</text>
<text text-anchor="middle" x="950" y="-381" font-family="Roboto" font-size="10.00">::Remove</text>
</a>
</g>
</g>
<!-- Node6&#45;&gt;Node16 -->
<g id="edge8" class="edge">
<title>Node6&#45;&gt;Node16</title>
<path fill="none" stroke="#63b8ff" d="M843.42,-389C851.25,-389 859.24,-389 867.13,-389"/>
<polygon fill="#63b8ff" stroke="#63b8ff" points="867.09,-392.5 877.09,-389 867.09,-385.5 867.09,-392.5"/>
</g>
<!-- Node8 -->
<g id="node8" class="node">
<title>Node8</title>
<g id="a_node8"><a xlink:href="class_urho3_d_1_1_hash_map.html#a47eb201d8441d4e4be8626e615cb562d" target="_top" xlink:title="Return iterator to the end.">
<polygon fill="#fff0f0" stroke="red" points="1176,-350.5 1057,-350.5 1057,-331.5 1176,-331.5 1176,-350.5"/>
<text text-anchor="middle" x="1116.5" y="-338.5" font-family="Roboto" font-size="10.00">Urho3D::HashMap::End</text>
</a>
</g>
</g>
<!-- Node7&#45;&gt;Node8 -->
<g id="edge7" class="edge">
<title>Node7&#45;&gt;Node8</title>
<path fill="none" stroke="#63b8ff" d="M1016.49,-341C1025.91,-341 1035.65,-341 1045.17,-341"/>
<polygon fill="#63b8ff" stroke="#63b8ff" points="1045.12,-344.5 1055.12,-341 1045.12,-337.5 1045.12,-344.5"/>
</g>
<!-- Node17&#45;&gt;Node2 -->
<g id="edge29" class="edge">
<title>Node17&#45;&gt;Node2</title>
<path fill="none" stroke="#63b8ff" d="M263.42,-243.47C283.18,-253.39 309.81,-266.2 334,-276 390.93,-299.06 414.66,-284.81 465,-320 485.99,-334.67 479.89,-350.5 501,-365 502.79,-366.23 504.64,-367.39 506.54,-368.5"/>
<polygon fill="#63b8ff" stroke="#63b8ff" points="504.57,-371.43 515.07,-372.89 507.78,-365.2 504.57,-371.43"/>
</g>
<!-- Node18 -->
<g id="node11" class="node">
<title>Node18</title>
<g id="a_node11"><a xlink:href="class_urho3_d_1_1_component.html#a75922f91ae1ee7376aaf1b2e0c0cc84c" target="_top" xlink:title="Return a component from the scene root that sends out fixed update events (either PhysicsWorld or Phy...">
<polygon fill="white" stroke="#666666" points="458,-116 341,-116 341,-86 458,-86 458,-116"/>
<text text-anchor="start" x="349" y="-104" font-family="Roboto" font-size="10.00">Urho3D::Component::</text>
<text text-anchor="middle" x="399.5" y="-93" font-family="Roboto" font-size="10.00">GetFixedUpdateSource</text>
</a>
</g>
</g>
<!-- Node17&#45;&gt;Node18 -->
<g id="edge10" class="edge">
<title>Node17&#45;&gt;Node18</title>
<path fill="none" stroke="#63b8ff" d="M247.76,-212.5C266.34,-192.88 300.43,-158.76 334,-135 340.68,-130.27 348.09,-125.77 355.45,-121.67"/>
<polygon fill="#63b8ff" stroke="#63b8ff" points="356.87,-124.88 364.04,-117.07 353.57,-118.71 356.87,-124.88"/>
</g>
<!-- Node21 -->
<g id="node13" class="node">
<title>Node21</title>
<g id="a_node13"><a xlink:href="class_urho3_d_1_1_component.html#a2c22f727341671a0420934f249ffe059" target="_top" xlink:title="Return the scene the node belongs to.">
<polygon fill="white" stroke="#666666" points="633,-116 522,-116 522,-86 633,-86 633,-116"/>
<text text-anchor="start" x="530" y="-104" font-family="Roboto" font-size="10.00">Urho3D::Component::</text>
<text text-anchor="middle" x="577.5" y="-93" font-family="Roboto" font-size="10.00">GetScene</text>
</a>
</g>
</g>
<!-- Node17&#45;&gt;Node21 -->
<g id="edge14" class="edge">
<title>Node17&#45;&gt;Node21</title>
<path fill="none" stroke="#63b8ff" d="M257.96,-212.69C277.88,-200.71 307.01,-184.24 334,-173 392.23,-148.74 461.46,-129.04 511.01,-116.42"/>
<polygon fill="#63b8ff" stroke="#63b8ff" points="511.59,-119.88 520.44,-114.05 509.89,-113.09 511.59,-119.88"/>
</g>
<!-- Node23 -->
<g id="node15" class="node">
<title>Node23</title>
<g id="a_node15"><a xlink:href="class_urho3_d_1_1_logic_component.html#a917286aa2813c0787a347622ebdf06d1" target="_top" xlink:title="Handle scene post&#45;update event.">
<polygon fill="white" stroke="#666666" points="465,-49 334,-49 334,-19 465,-19 465,-49"/>
<text text-anchor="start" x="342" y="-37" font-family="Roboto" font-size="10.00">Urho3D::LogicComponent</text>
<text text-anchor="middle" x="399.5" y="-26" font-family="Roboto" font-size="10.00">::HandleScenePostUpdate</text>
</a>
</g>
</g>
<!-- Node17&#45;&gt;Node23 -->
<g id="edge15" class="edge">
<title>Node17&#45;&gt;Node23</title>
<path fill="none" stroke="#63b8ff" d="M240.96,-212.88C255.73,-183.98 291.04,-119.99 334,-77 341.91,-69.09 351.48,-61.78 360.8,-55.52"/>
<polygon fill="#63b8ff" stroke="#63b8ff" points="362.55,-58.55 369.07,-50.21 358.77,-52.66 362.55,-58.55"/>
</g>
<!-- Node25 -->
<g id="node17" class="node">
<title>Node25</title>
<g id="a_node17"><a xlink:href="class_urho3_d_1_1_logic_component.html#a9a318417ce77addd2c7a161f196e4b00" target="_top" xlink:title="Handle scene update event.">
<polygon fill="white" stroke="#666666" points="465,-212 334,-212 334,-182 465,-182 465,-212"/>
<text text-anchor="start" x="342" y="-200" font-family="Roboto" font-size="10.00">Urho3D::LogicComponent</text>
<text text-anchor="middle" x="399.5" y="-189" font-family="Roboto" font-size="10.00">::HandleSceneUpdate</text>
</a>
</g>
</g>
<!-- Node17&#45;&gt;Node25 -->
<g id="edge17" class="edge">
<title>Node17&#45;&gt;Node25</title>
<path fill="none" stroke="#63b8ff" d="M298.24,-215.84C306.15,-214.35 314.3,-212.82 322.36,-211.3"/>
<polygon fill="#63b8ff" stroke="#63b8ff" points="323.01,-214.74 332.19,-209.46 321.72,-207.87 323.01,-214.74"/>
</g>
<!-- Node28 -->
<g id="node20" class="node">
<title>Node28</title>
<g id="a_node20"><a xlink:href="class_urho3_d_1_1_component.html#aafa7952d0f225edde3387da0c91a9356" target="_top" xlink:title=" ">
<polygon fill="white" stroke="#666666" points="455,-359 344,-359 344,-329 455,-329 455,-359"/>
<text text-anchor="start" x="352" y="-347" font-family="Roboto" font-size="10.00">Urho3D::Component::</text>
<text text-anchor="middle" x="399.5" y="-336" font-family="Roboto" font-size="10.00">IsEnabledEffective</text>
</a>
</g>
</g>
<!-- Node17&#45;&gt;Node28 -->
<g id="edge22" class="edge">
<title>Node17&#45;&gt;Node28</title>
<path fill="none" stroke="#63b8ff" d="M248.87,-243.18C267.78,-261.32 301.4,-291.87 334,-313 339.61,-316.64 345.71,-320.11 351.85,-323.34"/>
<polygon fill="#63b8ff" stroke="#63b8ff" points="350.28,-326.46 360.78,-327.83 353.42,-320.21 350.28,-326.46"/>
</g>
<!-- Node30 -->
<g id="node22" class="node">
<title>Node30</title>
<g id="a_node22"><a xlink:href="class_urho3_d_1_1_object.html#a7d9d061f4cf32f5fd5531e11a72834b6" target="_top" xlink:title="Subscribe to an event that can be sent by any sender.">
<polygon fill="white" stroke="#666666" points="465,-267 334,-267 334,-237 465,-237 465,-267"/>
<text text-anchor="start" x="342" y="-255" font-family="Roboto" font-size="10.00">Urho3D::Object::Subscribe</text>
<text text-anchor="middle" x="399.5" y="-244" font-family="Roboto" font-size="10.00">ToEvent</text>
</a>
</g>
</g>
<!-- Node17&#45;&gt;Node30 -->
<g id="edge24" class="edge">
<title>Node17&#45;&gt;Node30</title>
<path fill="none" stroke="#63b8ff" d="M298.24,-237.42C306.15,-238.57 314.3,-239.75 322.36,-240.93"/>
<polygon fill="#63b8ff" stroke="#63b8ff" points="321.78,-244.38 332.18,-242.35 322.79,-237.45 321.78,-244.38"/>
</g>
<!-- Node19 -->
<g id="node12" class="node">
<title>Node19</title>
<g id="a_node12"><a xlink:href="class_urho3_d_1_1_scene.html#a0c7ddadabfbb191e42b39877ca84cd67" target="_top" xlink:title="Return component from the whole scene by ID, or null if not found.">
<polygon fill="#fff0f0" stroke="red" points="654,-67.5 501,-67.5 501,-48.5 654,-48.5 654,-67.5"/>
<text text-anchor="middle" x="577.5" y="-55.5" font-family="Roboto" font-size="10.00">Urho3D::Scene::GetComponent</text>
</a>
</g>
</g>
<!-- Node18&#45;&gt;Node19 -->
<g id="edge11" class="edge">
<title>Node18&#45;&gt;Node19</title>
<path fill="none" stroke="#63b8ff" d="M458.13,-86.92C479.63,-81.67 503.89,-75.74 524.82,-70.63"/>
<polygon fill="#63b8ff" stroke="#63b8ff" points="525.39,-74.09 534.28,-68.32 523.73,-67.29 525.39,-74.09"/>
</g>
<!-- Node18&#45;&gt;Node21 -->
<g id="edge12" class="edge">
<title>Node18&#45;&gt;Node21</title>
<path fill="none" stroke="#63b8ff" d="M458.13,-101C474.91,-101 493.36,-101 510.6,-101"/>
<polygon fill="#63b8ff" stroke="#63b8ff" points="510.22,-104.5 520.22,-101 510.22,-97.5 510.22,-104.5"/>
</g>
<!-- Node22 -->
<g id="node14" class="node">
<title>Node22</title>
<g id="a_node14"><a xlink:href="class_urho3_d_1_1_node.html#ad3742cda838a2b291daa44d3ab00de56" target="_top" xlink:title=" ">
<polygon fill="white" stroke="#666666" points="829.5,-110.5 703.5,-110.5 703.5,-91.5 829.5,-91.5 829.5,-110.5"/>
<text text-anchor="middle" x="766.5" y="-98.5" font-family="Roboto" font-size="10.00">Urho3D::Node::GetScene</text>
</a>
</g>
</g>
<!-- Node21&#45;&gt;Node22 -->
<g id="edge13" class="edge">
<title>Node21&#45;&gt;Node22</title>
<path fill="none" stroke="#63b8ff" d="M633.34,-101C651.63,-101 672.31,-101 691.79,-101"/>
<polygon fill="#63b8ff" stroke="#63b8ff" points="691.59,-104.5 701.59,-101 691.59,-97.5 691.59,-104.5"/>
</g>
<!-- Node24 -->
<g id="node16" class="node">
<title>Node24</title>
<g id="a_node16"><a xlink:href="class_urho3_d_1_1_logic_component.html#ac5d84eea37c43d10f358500c97fae876" target="_top" xlink:title="Called on scene post&#45;update, variable timestep.">
<polygon fill="white" stroke="#666666" points="643,-30 512,-30 512,0 643,0 643,-30"/>
<text text-anchor="start" x="520" y="-18" font-family="Roboto" font-size="10.00">Urho3D::LogicComponent</text>
<text text-anchor="middle" x="577.5" y="-7" font-family="Roboto" font-size="10.00">::PostUpdate</text>
</a>
</g>
</g>
<!-- Node23&#45;&gt;Node24 -->
<g id="edge16" class="edge">
<title>Node23&#45;&gt;Node24</title>
<path fill="none" stroke="#63b8ff" d="M465.04,-27.03C476.56,-25.79 488.66,-24.48 500.47,-23.21"/>
<polygon fill="#63b8ff" stroke="#63b8ff" points="500.61,-26.71 510.17,-22.16 499.85,-19.75 500.61,-26.71"/>
</g>
<!-- Node25&#45;&gt;Node2 -->
<g id="edge20" class="edge">
<title>Node25&#45;&gt;Node2</title>
<path fill="none" stroke="#63b8ff" d="M445.73,-212.43C452.97,-216.55 459.78,-221.68 465,-228 505.07,-276.56 457.63,-319.37 501,-365 501.49,-365.51 501.99,-366.02 502.5,-366.51"/>
<polygon fill="#63b8ff" stroke="#63b8ff" points="500.33,-369.26 510.37,-372.65 504.64,-363.74 500.33,-369.26"/>
</g>
<!-- Node25&#45;&gt;Node21 -->
<g id="edge19" class="edge">
<title>Node25&#45;&gt;Node21</title>
<path fill="none" stroke="#63b8ff" d="M434.9,-181.51C445.02,-176.27 455.82,-169.96 465,-163 483.54,-148.94 481.29,-137.36 501,-125 504.3,-122.93 507.8,-121.02 511.41,-119.27"/>
<polygon fill="#63b8ff" stroke="#63b8ff" points="512.66,-122.54 520.42,-115.33 509.86,-116.13 512.66,-122.54"/>
</g>
<!-- Node26 -->
<g id="node18" class="node">
<title>Node26</title>
<g id="a_node18"><a xlink:href="class_urho3_d_1_1_logic_component.html#ab87accfdac685351fde43278dca1fa1f" target="_top" xlink:title="Called before the first update. At this point all other components of the node should exist....">
<polygon fill="white" stroke="#666666" points="643,-164 512,-164 512,-134 643,-134 643,-164"/>
<text text-anchor="start" x="520" y="-152" font-family="Roboto" font-size="10.00">Urho3D::LogicComponent</text>
<text text-anchor="middle" x="577.5" y="-141" font-family="Roboto" font-size="10.00">::DelayedStart</text>
</a>
</g>
</g>
<!-- Node25&#45;&gt;Node26 -->
<g id="edge18" class="edge">
<title>Node25&#45;&gt;Node26</title>
<path fill="none" stroke="#63b8ff" d="M457.16,-181.55C473.64,-177.05 491.82,-172.1 508.91,-167.43"/>
<polygon fill="#63b8ff" stroke="#63b8ff" points="509.76,-170.83 518.49,-164.82 507.92,-164.08 509.76,-170.83"/>
</g>
<!-- Node27 -->
<g id="node19" class="node">
<title>Node27</title>
<g id="a_node19"><a xlink:href="class_urho3_d_1_1_logic_component.html#a5dafa887363d3d648ab45a14c80beb9b" target="_top" xlink:title="Called on scene update, variable timestep.">
<polygon fill="white" stroke="#666666" points="643,-212 512,-212 512,-182 643,-182 643,-212"/>
<text text-anchor="start" x="520" y="-200" font-family="Roboto" font-size="10.00">Urho3D::LogicComponent</text>
<text text-anchor="middle" x="577.5" y="-189" font-family="Roboto" font-size="10.00">::Update</text>
</a>
</g>
</g>
<!-- Node25&#45;&gt;Node27 -->
<g id="edge21" class="edge">
<title>Node25&#45;&gt;Node27</title>
<path fill="none" stroke="#63b8ff" d="M465.04,-197C476.56,-197 488.66,-197 500.47,-197"/>
<polygon fill="#63b8ff" stroke="#63b8ff" points="500.16,-200.5 510.16,-197 500.16,-193.5 500.16,-200.5"/>
</g>
<!-- Node29 -->
<g id="node21" class="node">
<title>Node29</title>
<g id="a_node21"><a xlink:href="class_urho3_d_1_1_node.html#a36ffa108037ab29617bf178fcb4ec1da" target="_top" xlink:title=" ">
<polygon fill="white" stroke="#666666" points="641.5,-441.5 513.5,-441.5 513.5,-422.5 641.5,-422.5 641.5,-441.5"/>
<text text-anchor="middle" x="577.5" y="-429.5" font-family="Roboto" font-size="10.00">Urho3D::Node::IsEnabled</text>
</a>
</g>
</g>
<!-- Node28&#45;&gt;Node29 -->
<g id="edge23" class="edge">
<title>Node28&#45;&gt;Node29</title>
<path fill="none" stroke="#63b8ff" d="M418.56,-359.37C437.81,-375.01 469.75,-398.89 501,-413 505.63,-415.09 510.53,-416.98 515.51,-418.67"/>
<polygon fill="#63b8ff" stroke="#63b8ff" points="514.47,-422.01 525.06,-421.64 516.55,-415.33 514.47,-422.01"/>
</g>
<!-- Node31 -->
<g id="node23" class="node">
<title>Node31</title>
<g id="a_node23"><a xlink:href="class_urho3_d_1_1_context.html#ae3e0c5db85e2395f3d34941003c816ad" target="_top" xlink:title="Add event receiver.">
<polygon fill="white" stroke="#666666" points="645.5,-308 509.5,-308 509.5,-278 645.5,-278 645.5,-308"/>
<text text-anchor="start" x="517.5" y="-296" font-family="Roboto" font-size="10.00">Urho3D::Context::AddEvent</text>
<text text-anchor="middle" x="577.5" y="-285" font-family="Roboto" font-size="10.00">Receiver</text>
</a>
</g>
</g>
<!-- Node30&#45;&gt;Node31 -->
<g id="edge25" class="edge">
<title>Node30&#45;&gt;Node31</title>
<path fill="none" stroke="#63b8ff" d="M465.04,-267.03C476.19,-269.63 487.88,-272.36 499.33,-275.02"/>
<polygon fill="#63b8ff" stroke="#63b8ff" points="498.19,-278.35 508.73,-277.21 499.78,-271.53 498.19,-278.35"/>
</g>
<!-- Node32 -->
<g id="node24" class="node">
<title>Node32</title>
<g id="a_node24"><a xlink:href="class_urho3_d_1_1_object.html#ad9d3702ab78a9d8a8ddad6aae7144abb" target="_top" xlink:title="Find the first event handler with specific sender.">
<polygon fill="white" stroke="#666666" points="647.5,-356 507.5,-356 507.5,-326 647.5,-326 647.5,-356"/>
<text text-anchor="start" x="515.5" y="-344" font-family="Roboto" font-size="10.00">Urho3D::Object::FindSpecific</text>
<text text-anchor="middle" x="577.5" y="-333" font-family="Roboto" font-size="10.00">EventHandler</text>
</a>
</g>
</g>
<!-- Node30&#45;&gt;Node32 -->
<g id="edge26" class="edge">
<title>Node30&#45;&gt;Node32</title>
<path fill="none" stroke="#63b8ff" d="M434.57,-267.4C444.67,-272.5 455.55,-278.54 465,-285 482.67,-297.08 482.39,-306.42 501,-317 503.46,-318.4 506.01,-319.73 508.62,-320.99"/>
<polygon fill="#63b8ff" stroke="#63b8ff" points="506.99,-324.09 517.55,-324.91 509.8,-317.68 506.99,-324.09"/>
</g>
<!-- Node33 -->
<g id="node25" class="node">
<title>Node33</title>
<g id="a_node25"><a xlink:href="class_urho3_d_1_1_event_handler.html#abe76f0245895dadac146b7a4b7d78713" target="_top" xlink:title="Set sender and event type.">
<polygon fill="white" stroke="#666666" points="641.5,-260 513.5,-260 513.5,-230 641.5,-230 641.5,-260"/>
<text text-anchor="start" x="521.5" y="-248" font-family="Roboto" font-size="10.00">Urho3D::EventHandler</text>
<text text-anchor="middle" x="577.5" y="-237" font-family="Roboto" font-size="10.00">::SetSenderAndEventType</text>
</a>
</g>
</g>
<!-- Node30&#45;&gt;Node33 -->
<g id="edge28" class="edge">
<title>Node30&#45;&gt;Node33</title>
<path fill="none" stroke="#63b8ff" d="M465.04,-249.43C477.05,-248.96 489.7,-248.45 501.99,-247.96"/>
<polygon fill="#63b8ff" stroke="#63b8ff" points="501.78,-251.47 511.63,-247.58 501.5,-244.48 501.78,-251.47"/>
</g>
<!-- Node32&#45;&gt;Node5 -->
<g id="edge27" class="edge">
<title>Node32&#45;&gt;Node5</title>
<path fill="none" stroke="#63b8ff" d="M647.87,-341C664.42,-341 682.05,-341 698.5,-341"/>
<polygon fill="#63b8ff" stroke="#63b8ff" points="698.15,-344.5 708.15,-341 698.15,-337.5 698.15,-344.5"/>
</g>
</g>
</svg>
