<?xml version="1.0" encoding="UTF-8" standalone="no"?>
<!DOCTYPE svg PUBLIC "-//W3C//DTD SVG 1.1//EN"
 "http://www.w3.org/Graphics/SVG/1.1/DTD/svg11.dtd">
<!-- Generated by graphviz version 7.0.3 (0)
 -->
<!-- Title: Urho3D::UIElement::SaveXML Pages: 1 -->
<svg width="268pt" height="56pt"
 viewBox="0.00 0.00 268.00 56.00" xmlns="http://www.w3.org/2000/svg" xmlns:xlink="http://www.w3.org/1999/xlink">
<g id="graph0" class="graph" transform="scale(1 1) rotate(0) translate(4 52)">
<title>Urho3D::UIElement::SaveXML</title>
<!-- Node1 -->
<g id="node1" class="node">
<title>Node1</title>
<g id="a_node1"><a xlink:title="Save as XML data. Return true if successful.">
<polygon fill="#999999" stroke="#666666" points="260,-30 155,-30 155,0 260,0 260,-30"/>
<text text-anchor="start" x="163" y="-18" font-family="Roboto" font-size="10.00">Urho3D::UIElement::</text>
<text text-anchor="middle" x="207.5" y="-7" font-family="Roboto" font-size="10.00">SaveXML</text>
</a>
</g>
</g>
<!-- Node1&#45;&gt;Node1 -->
<g id="edge2" class="edge">
<title>Node1&#45;&gt;Node1</title>
<path fill="none" stroke="#63b8ff" d="M232.47,-41.61C228.47,-45.43 220.15,-48 207.5,-48 184.38,-48 175.7,-39.41 181.48,-30.28"/>
<polygon fill="#63b8ff" stroke="#63b8ff" points="235.94,-42.06 233.38,-31.78 228.97,-41.42 235.94,-42.06"/>
</g>
<!-- Node2 -->
<g id="node2" class="node">
<title>Node2</title>
<g id="a_node2"><a xlink:href="class_urho3_d_1_1_u_i.html#a5cd07643076e6439a75cb6de7e038df9" target="_top" xlink:title="Save a UI layout to an XML file. Return true if successful.">
<polygon fill="white" stroke="#666666" points="119,-24.5 0,-24.5 0,-5.5 119,-5.5 119,-24.5"/>
<text text-anchor="middle" x="59.5" y="-12.5" font-family="Roboto" font-size="10.00">Urho3D::UI::SaveLayout</text>
</a>
</g>
</g>
<!-- Node1&#45;&gt;Node2 -->
<g id="edge1" class="edge">
<title>Node1&#45;&gt;Node2</title>
<path fill="none" stroke="#63b8ff" d="M143.2,-15C135.31,-15 127.26,-15 119.43,-15"/>
<polygon fill="#63b8ff" stroke="#63b8ff" points="143.1,-18.5 153.1,-15 143.1,-11.5 143.1,-18.5"/>
</g>
</g>
</svg>
