<?xml version="1.0" encoding="UTF-8" standalone="no"?>
<!DOCTYPE svg PUBLIC "-//W3C//DTD SVG 1.1//EN"
 "http://www.w3.org/Graphics/SVG/1.1/DTD/svg11.dtd">
<!-- Generated by graphviz version 7.0.3 (0)
 -->
<!-- Title: Urho3D::UI::SetUseMutableGlyphs Pages: 1 -->
<svg width="492pt" height="38pt"
 viewBox="0.00 0.00 492.00 38.00" xmlns="http://www.w3.org/2000/svg" xmlns:xlink="http://www.w3.org/1999/xlink">
<g id="graph0" class="graph" transform="scale(1 1) rotate(0) translate(4 34)">
<title>Urho3D::UI::SetUseMutableGlyphs</title>
<!-- Node1 -->
<g id="node1" class="node">
<title>Node1</title>
<g id="a_node1"><a xlink:title=" ">
<polygon fill="#999999" stroke="#666666" points="136,-30 0,-30 0,0 136,0 136,-30"/>
<text text-anchor="start" x="8" y="-18" font-family="Roboto" font-size="10.00">Urho3D::UI::SetUseMutable</text>
<text text-anchor="middle" x="68" y="-7" font-family="Roboto" font-size="10.00">Glyphs</text>
</a>
</g>
</g>
<!-- Node2 -->
<g id="node2" class="node">
<title>Node2</title>
<g id="a_node2"><a xlink:href="class_urho3_d_1_1_u_i.html#aba4acefa333c93be113dcdacd366585e" target="_top" xlink:title="Force release of font faces when global font properties change.">
<polygon fill="white" stroke="#666666" points="321,-24.5 172,-24.5 172,-5.5 321,-5.5 321,-24.5"/>
<text text-anchor="middle" x="246.5" y="-12.5" font-family="Roboto" font-size="10.00">Urho3D::UI::ReleaseFontFaces</text>
</a>
</g>
</g>
<!-- Node1&#45;&gt;Node2 -->
<g id="edge1" class="edge">
<title>Node1&#45;&gt;Node2</title>
<path fill="none" stroke="#63b8ff" d="M136.48,-15C144.29,-15 152.32,-15 160.32,-15"/>
<polygon fill="#63b8ff" stroke="#63b8ff" points="160.07,-18.5 170.07,-15 160.07,-11.5 160.07,-18.5"/>
</g>
<!-- Node3 -->
<g id="node3" class="node">
<title>Node3</title>
<g id="a_node3"><a xlink:href="class_urho3_d_1_1_p_o_d_vector.html#ab1ba347a0118ed7d9ef79f3026153c88" target="_top" xlink:title="Return number of elements.">
<polygon fill="white" stroke="#666666" points="484,-24.5 357,-24.5 357,-5.5 484,-5.5 484,-24.5"/>
<text text-anchor="middle" x="420.5" y="-12.5" font-family="Roboto" font-size="10.00">Urho3D::PODVector::Size</text>
</a>
</g>
</g>
<!-- Node2&#45;&gt;Node3 -->
<g id="edge2" class="edge">
<title>Node2&#45;&gt;Node3</title>
<path fill="none" stroke="#63b8ff" d="M321.44,-15C329.33,-15 337.36,-15 345.26,-15"/>
<polygon fill="#63b8ff" stroke="#63b8ff" points="345.18,-18.5 355.18,-15 345.18,-11.5 345.18,-18.5"/>
</g>
</g>
</svg>
