<?xml version="1.0" encoding="UTF-8" standalone="no"?>
<!DOCTYPE svg PUBLIC "-//W3C//DTD SVG 1.1//EN"
 "http://www.w3.org/Graphics/SVG/1.1/DTD/svg11.dtd">
<!-- Generated by graphviz version 7.0.3 (0)
 -->
<!-- Title: Urho3D::Button::GetBatches Pages: 1 -->
<svg width="436pt" height="78pt"
 viewBox="0.00 0.00 436.00 78.00" xmlns="http://www.w3.org/2000/svg" xmlns:xlink="http://www.w3.org/1999/xlink">
<g id="graph0" class="graph" transform="scale(1 1) rotate(0) translate(4 74)">
<title>Urho3D::Button::GetBatches</title>
<!-- Node1 -->
<g id="node1" class="node">
<title>Node1</title>
<g id="a_node1"><a xlink:title="Return UI rendering batches.">
<polygon fill="#999999" stroke="#666666" points="138,-24.5 0,-24.5 0,-5.5 138,-5.5 138,-24.5"/>
<text text-anchor="middle" x="69" y="-12.5" font-family="Roboto" font-size="10.00">Urho3D::Button::GetBatches</text>
</a>
</g>
</g>
<!-- Node2 -->
<g id="node2" class="node">
<title>Node2</title>
<g id="a_node2"><a xlink:href="class_urho3_d_1_1_border_image.html#aafc7425774297149ed7235f2c48902a7" target="_top" xlink:title="Return UI rendering batches.">
<polygon fill="white" stroke="#666666" points="287,-52 174,-52 174,-22 287,-22 287,-52"/>
<text text-anchor="start" x="182" y="-40" font-family="Roboto" font-size="10.00">Urho3D::BorderImage</text>
<text text-anchor="middle" x="230.5" y="-29" font-family="Roboto" font-size="10.00">::GetBatches</text>
</a>
</g>
</g>
<!-- Node1&#45;&gt;Node2 -->
<g id="edge1" class="edge">
<title>Node1&#45;&gt;Node2</title>
<path fill="none" stroke="#63b8ff" d="M138.11,-24.39C146.16,-25.51 154.38,-26.64 162.42,-27.75"/>
<polygon fill="#63b8ff" stroke="#63b8ff" points="161.76,-31.19 172.14,-29.09 162.71,-24.25 161.76,-31.19"/>
</g>
<!-- Node3 -->
<g id="node3" class="node">
<title>Node3</title>
<g id="a_node3"><a xlink:href="class_urho3_d_1_1_u_i_element.html#a1bc81ebf873ab97c4251c0bad93b568e" target="_top" xlink:title=" ">
<polygon fill="white" stroke="#666666" points="428,-30 323,-30 323,0 428,0 428,-30"/>
<text text-anchor="start" x="331" y="-18" font-family="Roboto" font-size="10.00">Urho3D::UIElement::</text>
<text text-anchor="middle" x="375.5" y="-7" font-family="Roboto" font-size="10.00">HasFocus</text>
</a>
</g>
</g>
<!-- Node1&#45;&gt;Node3 -->
<g id="edge4" class="edge">
<title>Node1&#45;&gt;Node3</title>
<path fill="none" stroke="#63b8ff" d="M138.25,-13.5C150.16,-13.29 162.44,-13.11 174,-13 224.22,-12.52 236.78,-12.43 287,-13 294.85,-13.09 303.09,-13.22 311.25,-13.38"/>
<polygon fill="#63b8ff" stroke="#63b8ff" points="311.1,-16.88 321.17,-13.59 311.24,-9.88 311.1,-16.88"/>
</g>
<!-- Node2&#45;&gt;Node2 -->
<g id="edge2" class="edge">
<title>Node2&#45;&gt;Node2</title>
<path fill="none" stroke="#63b8ff" d="M205.01,-52.28C199.35,-61.41 207.84,-70 230.5,-70 242.89,-70 251.05,-67.43 254.97,-63.61"/>
<polygon fill="#63b8ff" stroke="#63b8ff" points="258.44,-64.06 255.85,-53.78 251.47,-63.43 258.44,-64.06"/>
</g>
<!-- Node2&#45;&gt;Node3 -->
<g id="edge3" class="edge">
<title>Node2&#45;&gt;Node3</title>
<path fill="none" stroke="#63b8ff" d="M287.2,-28.43C295.19,-27.2 303.47,-25.93 311.59,-24.68"/>
<polygon fill="#63b8ff" stroke="#63b8ff" points="312.08,-28.14 321.43,-23.16 311.02,-21.23 312.08,-28.14"/>
</g>
</g>
</svg>
