<?xml version="1.0" encoding="UTF-8" standalone="no"?>
<!DOCTYPE svg PUBLIC "-//W3C//DTD SVG 1.1//EN"
 "http://www.w3.org/Graphics/SVG/1.1/DTD/svg11.dtd">
<!-- Generated by graphviz version 7.0.3 (0)
 -->
<!-- Title: Urho3D::UIElement::GetChild Pages: 1 -->
<svg width="460pt" height="182pt"
 viewBox="0.00 0.00 460.00 182.00" xmlns="http://www.w3.org/2000/svg" xmlns:xlink="http://www.w3.org/1999/xlink">
<g id="graph0" class="graph" transform="scale(1 1) rotate(0) translate(4 178)">
<title>Urho3D::UIElement::GetChild</title>
<!-- Node1 -->
<g id="node1" class="node">
<title>Node1</title>
<g id="a_node1"><a xlink:title=" ">
<polygon fill="#999999" stroke="#666666" points="452,-102 347,-102 347,-72 452,-72 452,-102"/>
<text text-anchor="start" x="355" y="-90" font-family="Roboto" font-size="10.00">Urho3D::UIElement::</text>
<text text-anchor="middle" x="399.5" y="-79" font-family="Roboto" font-size="10.00">GetChild</text>
</a>
</g>
</g>
<!-- Node2 -->
<g id="node2" class="node">
<title>Node2</title>
<g id="a_node2"><a xlink:href="class_urho3_d_1_1_u_i_element.html#a02c142d125b2a65d2f599b353e01e5f8" target="_top" xlink:title="Find target of an attribute animation from object hierarchy by name.">
<polygon fill="white" stroke="#666666" points="311,-174 166,-174 166,-144 311,-144 311,-174"/>
<text text-anchor="start" x="174" y="-162" font-family="Roboto" font-size="10.00">Urho3D::UIElement::</text>
<text text-anchor="middle" x="238.5" y="-151" font-family="Roboto" font-size="10.00">FindAttributeAnimationTarget</text>
</a>
</g>
</g>
<!-- Node1&#45;&gt;Node2 -->
<g id="edge1" class="edge">
<title>Node1&#45;&gt;Node2</title>
<path fill="none" stroke="#63b8ff" d="M363.62,-107.99C347.88,-116.98 328.84,-127.19 311,-135 304.04,-138.05 296.57,-140.94 289.17,-143.61"/>
<polygon fill="#63b8ff" stroke="#63b8ff" points="365.24,-111.1 372.14,-103.06 361.73,-105.04 365.24,-111.1"/>
</g>
<!-- Node3 -->
<g id="node3" class="node">
<title>Node3</title>
<g id="a_node3"><a xlink:href="class_urho3_d_1_1_u_i_element.html#aba87c964ae8ac9b99fe9820d9537b970" target="_top" xlink:title="Return child element by name.">
<polygon fill="white" stroke="#666666" points="291,-126 186,-126 186,-96 291,-96 291,-126"/>
<text text-anchor="start" x="194" y="-114" font-family="Roboto" font-size="10.00">Urho3D::UIElement::</text>
<text text-anchor="middle" x="238.5" y="-103" font-family="Roboto" font-size="10.00">GetChild</text>
</a>
</g>
</g>
<!-- Node1&#45;&gt;Node3 -->
<g id="edge2" class="edge">
<title>Node1&#45;&gt;Node3</title>
<path fill="none" stroke="#63b8ff" d="M335.82,-96.46C321.11,-98.68 305.59,-101.02 291.41,-103.16"/>
<polygon fill="#63b8ff" stroke="#63b8ff" points="336.02,-99.97 345.38,-95.02 334.97,-93.05 336.02,-99.97"/>
</g>
<!-- Node4 -->
<g id="node4" class="node">
<title>Node4</title>
<g id="a_node4"><a xlink:href="class_urho3_d_1_1_u_i_element.html#a83bc1b2d8a2587e7ffe1d7d381a4c6d3" target="_top" xlink:title="Template version of returning child element by index using dynamic cast. May return 0 when casting fa...">
<polygon fill="white" stroke="#666666" points="295,-78 182,-78 182,-48 295,-48 295,-78"/>
<text text-anchor="start" x="190" y="-66" font-family="Roboto" font-size="10.00">Urho3D::UIElement::</text>
<text text-anchor="middle" x="238.5" y="-55" font-family="Roboto" font-size="10.00">GetChildDynamicCast</text>
</a>
</g>
</g>
<!-- Node1&#45;&gt;Node4 -->
<g id="edge3" class="edge">
<title>Node1&#45;&gt;Node4</title>
<path fill="none" stroke="#63b8ff" d="M335.82,-77.54C322.43,-75.52 308.36,-73.39 295.25,-71.42"/>
<polygon fill="#63b8ff" stroke="#63b8ff" points="334.97,-80.95 345.38,-78.98 336.02,-74.03 334.97,-80.95"/>
</g>
<!-- Node7 -->
<g id="node7" class="node">
<title>Node7</title>
<g id="a_node7"><a xlink:href="class_urho3_d_1_1_u_i_element.html#a3d1bc36c4e359fec052df1a6b3debc46" target="_top" xlink:title="Template version of returning child element by index using static cast.">
<polygon fill="white" stroke="#666666" points="291,-30 186,-30 186,0 291,0 291,-30"/>
<text text-anchor="start" x="194" y="-18" font-family="Roboto" font-size="10.00">Urho3D::UIElement::</text>
<text text-anchor="middle" x="238.5" y="-7" font-family="Roboto" font-size="10.00">GetChildStaticCast</text>
</a>
</g>
</g>
<!-- Node1&#45;&gt;Node7 -->
<g id="edge6" class="edge">
<title>Node1&#45;&gt;Node7</title>
<path fill="none" stroke="#63b8ff" d="M363.62,-66.01C347.88,-57.02 328.84,-46.81 311,-39 304.04,-35.95 296.57,-33.06 289.17,-30.39"/>
<polygon fill="#63b8ff" stroke="#63b8ff" points="361.73,-68.96 372.14,-70.94 365.24,-62.9 361.73,-68.96"/>
</g>
<!-- Node5 -->
<g id="node5" class="node">
<title>Node5</title>
<g id="a_node5"><a xlink:href="class_urho3_d_1_1_input.html#ae6e2a0dd7db2be45379d5551187afb7b" target="_top" xlink:title="Add screen joystick.">
<polygon fill="white" stroke="#666666" points="130,-123 0,-123 0,-93 130,-93 130,-123"/>
<text text-anchor="start" x="8" y="-111" font-family="Roboto" font-size="10.00">Urho3D::Input::AddScreen</text>
<text text-anchor="middle" x="65" y="-100" font-family="Roboto" font-size="10.00">Joystick</text>
</a>
</g>
</g>
<!-- Node4&#45;&gt;Node5 -->
<g id="edge4" class="edge">
<title>Node4&#45;&gt;Node5</title>
<path fill="none" stroke="#63b8ff" d="M170.95,-80.46C155.78,-84.44 139.77,-88.64 124.94,-92.53"/>
<polygon fill="#63b8ff" stroke="#63b8ff" points="171.57,-83.92 180.35,-77.99 169.79,-77.15 171.57,-83.92"/>
</g>
<!-- Node6 -->
<g id="node6" class="node">
<title>Node6</title>
<g id="a_node6"><a xlink:href="class_urho3_d_1_1_message_box.html#a92065fc96e684dfb5128c791e53550bd" target="_top" xlink:title="Construct. If layout file is not given, use the default message box layout. If style file is not give...">
<polygon fill="white" stroke="#666666" points="121,-75 9,-75 9,-45 121,-45 121,-75"/>
<text text-anchor="start" x="17" y="-63" font-family="Roboto" font-size="10.00">Urho3D::MessageBox</text>
<text text-anchor="middle" x="65" y="-52" font-family="Roboto" font-size="10.00">::MessageBox</text>
</a>
</g>
</g>
<!-- Node4&#45;&gt;Node6 -->
<g id="edge5" class="edge">
<title>Node4&#45;&gt;Node6</title>
<path fill="none" stroke="#63b8ff" d="M170.71,-61.83C154.4,-61.55 137.12,-61.24 121.4,-60.97"/>
<polygon fill="#63b8ff" stroke="#63b8ff" points="170.25,-65.32 180.31,-62 170.37,-58.33 170.25,-65.32"/>
</g>
<!-- Node8 -->
<g id="node8" class="node">
<title>Node8</title>
<g id="a_node8"><a xlink:href="class_urho3_d_1_1_menu.html#abdd3fd6b007fc4eefea8436df61584b3" target="_top" xlink:title="React to mouse hover.">
<polygon fill="white" stroke="#666666" points="126.5,-24.5 3.5,-24.5 3.5,-5.5 126.5,-5.5 126.5,-24.5"/>
<text text-anchor="middle" x="65" y="-12.5" font-family="Roboto" font-size="10.00">Urho3D::Menu::OnHover</text>
</a>
</g>
</g>
<!-- Node7&#45;&gt;Node8 -->
<g id="edge7" class="edge">
<title>Node7&#45;&gt;Node8</title>
<path fill="none" stroke="#63b8ff" d="M174.46,-15C158.89,-15 142.25,-15 126.79,-15"/>
<polygon fill="#63b8ff" stroke="#63b8ff" points="174.07,-18.5 184.07,-15 174.07,-11.5 174.07,-18.5"/>
</g>
</g>
</svg>
