<?xml version="1.0" encoding="UTF-8" standalone="no"?>
<!DOCTYPE svg PUBLIC "-//W3C//DTD SVG 1.1//EN"
 "http://www.w3.org/Graphics/SVG/1.1/DTD/svg11.dtd">
<!-- Generated by graphviz version 7.0.3 (0)
 -->
<!-- Title: Urho3D::NamedPipe Pages: 1 -->
<svg width="1083pt" height="811pt"
 viewBox="0.00 0.00 1083.00 811.00" xmlns="http://www.w3.org/2000/svg" xmlns:xlink="http://www.w3.org/1999/xlink">
<g id="graph0" class="graph" transform="scale(1 1) rotate(0) translate(4 807)">
<title>Urho3D::NamedPipe</title>
<!-- Node1 -->
<g id="node1" class="node">
<title>Node1</title>
<g id="a_node1"><a xlink:title="Named pipe for interprocess communication.">
<polygon fill="#999999" stroke="#666666" points="747,-761 640,-761 640,-742 747,-742 747,-761"/>
<text text-anchor="middle" x="693.5" y="-749" font-family="Roboto" font-size="10.00">Urho3D::NamedPipe</text>
</a>
</g>
</g>
<!-- Node2 -->
<g id="node2" class="node">
<title>Node2</title>
<g id="a_node2"><a xlink:href="class_urho3_d_1_1_object.html" target="_top" xlink:title=" ">
<polygon fill="white" stroke="#666666" points="475,-711 392,-711 392,-692 475,-692 475,-711"/>
<text text-anchor="middle" x="433.5" y="-699" font-family="Roboto" font-size="10.00">Urho3D::Object</text>
</a>
</g>
</g>
<!-- Node2&#45;&gt;Node1 -->
<g id="edge1" class="edge">
<title>Node2&#45;&gt;Node1</title>
<path fill="none" stroke="#63b8ff" d="M486.36,-712.02C495.56,-713.86 505.06,-715.75 514,-717.5 556.26,-725.78 604.2,-734.89 639.75,-741.6"/>
<polygon fill="#63b8ff" stroke="#63b8ff" points="487.31,-708.64 476.82,-710.1 485.93,-715.5 487.31,-708.64"/>
</g>
<!-- Node18 -->
<g id="node16" class="node">
<title>Node18</title>
<g id="a_node16"><a xlink:href="class_urho3_d_1_1_event_handler.html" target="_top" xlink:title="Internal helper class for invoking event handler functions.">
<polygon fill="white" stroke="#666666" points="750,-603 637,-603 637,-584 750,-584 750,-603"/>
<text text-anchor="middle" x="693.5" y="-591" font-family="Roboto" font-size="10.00">Urho3D::EventHandler</text>
</a>
</g>
</g>
<!-- Node2&#45;&gt;Node18 -->
<g id="edge25" class="edge">
<title>Node2&#45;&gt;Node18</title>
<path fill="none" stroke="#9a32cd" stroke-dasharray="5,2" d="M485.68,-690.15C489.44,-688.02 492.95,-685.5 496,-682.5 514.34,-664.47 494.69,-644.49 514,-627.5 531.94,-611.72 591.16,-602.71 636.52,-597.98"/>
<polygon fill="#9a32cd" stroke="#9a32cd" points="484.27,-686.94 476.63,-694.28 487.18,-693.31 484.27,-686.94"/>
<text text-anchor="middle" x="539.5" y="-641.5" font-family="Roboto" font-size="10.00"> receiver_</text>
<text text-anchor="middle" x="539.5" y="-630.5" font-family="Roboto" font-size="10.00">sender_</text>
</g>
<!-- Node3 -->
<g id="node3" class="node">
<title>Node3</title>
<g id="a_node3"><a xlink:href="class_urho3_d_1_1_ref_counted.html" target="_top" xlink:title="Base class for intrusively reference&#45;counted objects. These are noncopyable and non&#45;assignable.">
<polygon fill="white" stroke="#666666" points="294,-577 187,-577 187,-558 294,-558 294,-577"/>
<text text-anchor="middle" x="240.5" y="-565" font-family="Roboto" font-size="10.00">Urho3D::RefCounted</text>
</a>
</g>
</g>
<!-- Node3&#45;&gt;Node2 -->
<g id="edge2" class="edge">
<title>Node3&#45;&gt;Node2</title>
<path fill="none" stroke="#63b8ff" d="M257.2,-585.65C279.91,-610.83 324.33,-656.22 371,-682.5 377.43,-686.12 384.63,-689.14 391.78,-691.62"/>
<polygon fill="#63b8ff" stroke="#63b8ff" points="260.11,-583.66 250.86,-578.5 254.87,-588.3 260.11,-583.66"/>
</g>
<!-- Node5 -->
<g id="node5" class="node">
<title>Node5</title>
<g id="a_node5"><a xlink:href="class_urho3_d_1_1_context.html" target="_top" xlink:title="Urho3D execution context. Provides access to subsystems, object factories and attributes,...">
<polygon fill="white" stroke="#666666" points="1055.5,-356 966.5,-356 966.5,-337 1055.5,-337 1055.5,-356"/>
<text text-anchor="middle" x="1011" y="-344" font-family="Roboto" font-size="10.00">Urho3D::Context</text>
</a>
</g>
</g>
<!-- Node3&#45;&gt;Node5 -->
<g id="edge5" class="edge">
<title>Node3&#45;&gt;Node5</title>
<path fill="none" stroke="#63b8ff" d="M305.66,-558.52C326.48,-555.76 349.7,-552.83 371,-550.5 494.93,-536.93 826.92,-564.07 929,-492.5 978.37,-457.89 1000.99,-383.14 1007.73,-356.32"/>
<polygon fill="#63b8ff" stroke="#63b8ff" points="305.31,-555.04 295.86,-559.84 306.24,-561.98 305.31,-555.04"/>
</g>
<!-- Node4 -->
<g id="node4" class="node">
<title>Node4</title>
<g id="a_node4"><a xlink:href="struct_urho3_d_1_1_ref_count.html" target="_top" xlink:title="Reference count structure.">
<polygon fill="white" stroke="#666666" points="96,-577 0,-577 0,-558 96,-558 96,-577"/>
<text text-anchor="middle" x="48" y="-565" font-family="Roboto" font-size="10.00">Urho3D::RefCount</text>
</a>
</g>
</g>
<!-- Node4&#45;&gt;Node3 -->
<g id="edge3" class="edge">
<title>Node4&#45;&gt;Node3</title>
<path fill="none" stroke="#9a32cd" stroke-dasharray="5,2" d="M107.37,-567.5C132.62,-567.5 161.96,-567.5 186.57,-567.5"/>
<polygon fill="#9a32cd" stroke="#9a32cd" points="107.6,-564 97.6,-567.5 107.6,-571 107.6,-564"/>
<text text-anchor="middle" x="137" y="-570.5" font-family="Roboto" font-size="10.00"> refCount_</text>
</g>
<!-- Node5&#45;&gt;Node2 -->
<g id="edge4" class="edge">
<title>Node5&#45;&gt;Node2</title>
<path fill="none" stroke="#9a32cd" stroke-dasharray="5,2" d="M1007.44,-367.64C999.46,-429.75 972.89,-609.55 929,-645.5 899.19,-669.92 621.14,-663.03 583,-668.5 544.7,-674 501.6,-684.01 471.74,-691.57"/>
<polygon fill="#9a32cd" stroke="#9a32cd" points="1010.91,-368.13 1008.67,-357.77 1003.96,-367.26 1010.91,-368.13"/>
<text text-anchor="middle" x="693.5" y="-671.5" font-family="Roboto" font-size="10.00"> context_</text>
</g>
<!-- Node6 -->
<g id="node6" class="node">
<title>Node6</title>
<g id="a_node6"><a xlink:href="class_urho3_d_1_1_hash_map.html" target="_top" xlink:title=" ">
<polygon fill="white" stroke="#666666" points="784.5,-100 602.5,-100 602.5,-59 784.5,-59 784.5,-100"/>
<text text-anchor="start" x="610.5" y="-88" font-family="Roboto" font-size="10.00">Urho3D::HashMap&lt; Urho3D</text>
<text text-anchor="start" x="610.5" y="-77" font-family="Roboto" font-size="10.00">::StringHash, Urho3D::</text>
<text text-anchor="middle" x="693.5" y="-66" font-family="Roboto" font-size="10.00">SharedPtr&lt; Urho3D::ObjectFactory &gt; &gt;</text>
</a>
</g>
</g>
<!-- Node6&#45;&gt;Node5 -->
<g id="edge6" class="edge">
<title>Node6&#45;&gt;Node5</title>
<path fill="none" stroke="#9a32cd" stroke-dasharray="5,2" d="M795.86,-86.69C841.29,-94.65 892.68,-110.86 929,-143.5 989.68,-198.03 1005.57,-304.15 1009.1,-336.74"/>
<polygon fill="#9a32cd" stroke="#9a32cd" points="796.69,-83.28 786.26,-85.13 795.56,-90.19 796.69,-83.28"/>
<text text-anchor="middle" x="875.5" y="-146.5" font-family="Roboto" font-size="10.00"> factories_</text>
</g>
<!-- Node7 -->
<g id="node7" class="node">
<title>Node7</title>
<g id="a_node7"><a xlink:href="class_urho3_d_1_1_hash_base.html" target="_top" xlink:title="Hash set/map base class.">
<polygon fill="#fff0f0" stroke="red" points="483.5,-202 383.5,-202 383.5,-183 483.5,-183 483.5,-202"/>
<text text-anchor="middle" x="433.5" y="-190" font-family="Roboto" font-size="10.00">Urho3D::HashBase</text>
</a>
</g>
</g>
<!-- Node7&#45;&gt;Node6 -->
<g id="edge7" class="edge">
<title>Node7&#45;&gt;Node6</title>
<path fill="none" stroke="#63b8ff" d="M458.57,-176.31C487.17,-157.7 536.83,-127.31 583,-108.5 590.1,-105.61 597.58,-102.92 605.16,-100.45"/>
<polygon fill="#63b8ff" stroke="#63b8ff" points="456.73,-173.34 450.3,-181.76 460.58,-179.18 456.73,-173.34"/>
</g>
<!-- Node11 -->
<g id="node9" class="node">
<title>Node11</title>
<g id="a_node9"><a xlink:href="class_urho3_d_1_1_hash_map.html" target="_top" xlink:title=" ">
<polygon fill="white" stroke="#666666" points="768,-41 619,-41 619,0 768,0 768,-41"/>
<text text-anchor="start" x="627" y="-29" font-family="Roboto" font-size="10.00">Urho3D::HashMap&lt; Urho3D</text>
<text text-anchor="start" x="627" y="-18" font-family="Roboto" font-size="10.00">::StringHash, Urho3D::</text>
<text text-anchor="middle" x="693.5" y="-7" font-family="Roboto" font-size="10.00">SharedPtr&lt; Urho3D::Object &gt; &gt;</text>
</a>
</g>
</g>
<!-- Node7&#45;&gt;Node11 -->
<g id="edge11" class="edge">
<title>Node7&#45;&gt;Node11</title>
<path fill="none" stroke="#63b8ff" d="M448.38,-173.91C472.35,-143.19 524.56,-81.97 583,-49.5 594,-43.39 606.35,-38.52 618.67,-34.65"/>
<polygon fill="#63b8ff" stroke="#63b8ff" points="445.84,-171.47 442.54,-181.54 451.4,-175.73 445.84,-171.47"/>
</g>
<!-- Node12 -->
<g id="node10" class="node">
<title>Node12</title>
<g id="a_node10"><a xlink:href="class_urho3_d_1_1_hash_map.html" target="_top" xlink:title=" ">
<polygon fill="white" stroke="#666666" points="774.5,-407 612.5,-407 612.5,-366 774.5,-366 774.5,-407"/>
<text text-anchor="start" x="620.5" y="-395" font-family="Roboto" font-size="10.00">Urho3D::HashMap&lt; Urho3D</text>
<text text-anchor="start" x="620.5" y="-384" font-family="Roboto" font-size="10.00">::StringHash, Urho3D::</text>
<text text-anchor="middle" x="693.5" y="-373" font-family="Roboto" font-size="10.00">Vector&lt; Urho3D::AttributeInfo &gt; &gt;</text>
</a>
</g>
</g>
<!-- Node7&#45;&gt;Node12 -->
<g id="edge13" class="edge">
<title>Node7&#45;&gt;Node12</title>
<path fill="none" stroke="#63b8ff" d="M446.51,-211.79C468.97,-246.22 520.73,-318.22 583,-356.5 591.98,-362.02 601.99,-366.55 612.21,-370.25"/>
<polygon fill="#63b8ff" stroke="#63b8ff" points="449.66,-210.21 441.32,-203.67 443.76,-213.98 449.66,-210.21"/>
</g>
<!-- Node13 -->
<g id="node11" class="node">
<title>Node13</title>
<g id="a_node11"><a xlink:href="class_urho3_d_1_1_hash_map.html" target="_top" xlink:title=" ">
<polygon fill="white" stroke="#666666" points="777,-347.5 610,-347.5 610,-295.5 777,-295.5 777,-347.5"/>
<text text-anchor="start" x="618" y="-335.5" font-family="Roboto" font-size="10.00">Urho3D::HashMap&lt; Urho3D</text>
<text text-anchor="start" x="618" y="-324.5" font-family="Roboto" font-size="10.00">::StringHash, Urho3D::</text>
<text text-anchor="start" x="618" y="-313.5" font-family="Roboto" font-size="10.00">SharedPtr&lt; Urho3D::EventReceiver</text>
<text text-anchor="middle" x="693.5" y="-302.5" font-family="Roboto" font-size="10.00">Group &gt; &gt;</text>
</a>
</g>
</g>
<!-- Node7&#45;&gt;Node13 -->
<g id="edge15" class="edge">
<title>Node7&#45;&gt;Node13</title>
<path fill="none" stroke="#63b8ff" d="M456.3,-208.82C484.38,-229.23 535.27,-264.21 583,-286.5 591.5,-290.47 600.57,-294.16 609.71,-297.54"/>
<polygon fill="#63b8ff" stroke="#63b8ff" points="458.71,-206.25 448.58,-203.15 454.56,-211.89 458.71,-206.25"/>
</g>
<!-- Node14 -->
<g id="node12" class="node">
<title>Node14</title>
<g id="a_node12"><a xlink:href="class_urho3_d_1_1_hash_map.html" target="_top" xlink:title=" ">
<polygon fill="white" stroke="#666666" points="804,-277.5 583,-277.5 583,-225.5 804,-225.5 804,-277.5"/>
<text text-anchor="start" x="591" y="-265.5" font-family="Roboto" font-size="10.00">Urho3D::HashMap&lt; Urho3D</text>
<text text-anchor="start" x="591" y="-254.5" font-family="Roboto" font-size="10.00">::Object *, Urho3D::HashMap</text>
<text text-anchor="start" x="591" y="-243.5" font-family="Roboto" font-size="10.00">&lt; Urho3D::StringHash, Urho3D</text>
<text text-anchor="middle" x="693.5" y="-232.5" font-family="Roboto" font-size="10.00">::SharedPtr&lt; Urho3D::EventReceiverGroup &gt; &gt; &gt;</text>
</a>
</g>
</g>
<!-- Node7&#45;&gt;Node14 -->
<g id="edge17" class="edge">
<title>Node7&#45;&gt;Node14</title>
<path fill="none" stroke="#63b8ff" d="M488.84,-204.93C516.11,-211.16 550.18,-218.95 582.6,-226.37"/>
<polygon fill="#63b8ff" stroke="#63b8ff" points="489.98,-201.6 479.45,-202.78 488.42,-208.42 489.98,-201.6"/>
</g>
<!-- Node21 -->
<g id="node19" class="node">
<title>Node21</title>
<g id="a_node19"><a xlink:href="class_urho3_d_1_1_hash_map.html" target="_top" xlink:title=" ">
<polygon fill="white" stroke="#666666" points="763,-159 624,-159 624,-118 763,-118 763,-159"/>
<text text-anchor="start" x="632" y="-147" font-family="Roboto" font-size="10.00">Urho3D::HashMap&lt; Urho3D</text>
<text text-anchor="start" x="632" y="-136" font-family="Roboto" font-size="10.00">::String, Urho3D::Vector</text>
<text text-anchor="middle" x="693.5" y="-125" font-family="Roboto" font-size="10.00">&lt; Urho3D::StringHash &gt; &gt;</text>
</a>
</g>
</g>
<!-- Node7&#45;&gt;Node21 -->
<g id="edge29" class="edge">
<title>Node7&#45;&gt;Node21</title>
<path fill="none" stroke="#63b8ff" d="M493.24,-180.21C532.04,-172.08 583.06,-161.41 623.76,-152.89"/>
<polygon fill="#63b8ff" stroke="#63b8ff" points="492.67,-176.75 483.6,-182.22 494.11,-183.6 492.67,-176.75"/>
</g>
<!-- Node22 -->
<g id="node20" class="node">
<title>Node22</title>
<g id="a_node20"><a xlink:href="class_urho3_d_1_1_hash_map.html" target="_top" xlink:title=" ">
<polygon fill="white" stroke="#666666" points="771.5,-207.5 615.5,-207.5 615.5,-177.5 771.5,-177.5 771.5,-207.5"/>
<text text-anchor="start" x="623.5" y="-195.5" font-family="Roboto" font-size="10.00">Urho3D::HashMap&lt; StringHash,</text>
<text text-anchor="middle" x="693.5" y="-184.5" font-family="Roboto" font-size="10.00"> Variant &gt;</text>
</a>
</g>
</g>
<!-- Node7&#45;&gt;Node22 -->
<g id="edge31" class="edge">
<title>Node7&#45;&gt;Node22</title>
<path fill="none" stroke="#63b8ff" d="M495.2,-192.5C531,-192.5 576.67,-192.5 615.06,-192.5"/>
<polygon fill="#63b8ff" stroke="#63b8ff" points="495.45,-189 485.45,-192.5 495.45,-196 495.45,-189"/>
</g>
<!-- Node8 -->
<g id="node8" class="node">
<title>Node8</title>
<g id="a_node8"><a xlink:href="struct_urho3_d_1_1_hash_node_base.html" target="_top" xlink:title="Hash set/map node base class.">
<polygon fill="white" stroke="#666666" points="303,-202 178,-202 178,-183 303,-183 303,-202"/>
<text text-anchor="middle" x="240.5" y="-190" font-family="Roboto" font-size="10.00">Urho3D::HashNodeBase</text>
</a>
</g>
</g>
<!-- Node8&#45;&gt;Node7 -->
<g id="edge8" class="edge">
<title>Node8&#45;&gt;Node7</title>
<path fill="none" stroke="#9a32cd" stroke-dasharray="5,2" d="M314.66,-192.5C337.53,-192.5 362.21,-192.5 383.05,-192.5"/>
<polygon fill="#9a32cd" stroke="#9a32cd" points="314.76,-189 304.76,-192.5 314.76,-196 314.76,-189"/>
<text text-anchor="middle" x="337" y="-217.5" font-family="Roboto" font-size="10.00"> head_</text>
<text text-anchor="middle" x="337" y="-206.5" font-family="Roboto" font-size="10.00">ptrs_</text>
<text text-anchor="middle" x="337" y="-195.5" font-family="Roboto" font-size="10.00">tail_</text>
</g>
<!-- Node8&#45;&gt;Node8 -->
<g id="edge9" class="edge">
<title>Node8&#45;&gt;Node8</title>
<path fill="none" stroke="#9a32cd" stroke-dasharray="5,2" d="M223.37,-213.43C225.51,-217.29 231.22,-220 240.5,-220 257.46,-220 262.5,-210.94 255.61,-202.37"/>
<polygon fill="#9a32cd" stroke="#9a32cd" points="226.77,-214.32 225.12,-203.86 219.88,-213.07 226.77,-214.32"/>
<text text-anchor="middle" x="240.5" y="-245" font-family="Roboto" font-size="10.00"> down_</text>
<text text-anchor="middle" x="240.5" y="-234" font-family="Roboto" font-size="10.00">next_</text>
<text text-anchor="middle" x="240.5" y="-223" font-family="Roboto" font-size="10.00">prev_</text>
</g>
<!-- Node11&#45;&gt;Node5 -->
<g id="edge10" class="edge">
<title>Node11&#45;&gt;Node5</title>
<path fill="none" stroke="#9a32cd" stroke-dasharray="5,2" d="M779.62,-21.46C829.09,-26.45 889.3,-40.78 929,-78.5 1006.69,-152.33 1010.64,-297.8 1010.24,-336.73"/>
<polygon fill="#9a32cd" stroke="#9a32cd" points="780.05,-17.98 769.78,-20.59 779.43,-24.96 780.05,-17.98"/>
<text text-anchor="middle" x="875.5" y="-81.5" font-family="Roboto" font-size="10.00"> subsystems_</text>
</g>
<!-- Node12&#45;&gt;Node5 -->
<g id="edge12" class="edge">
<title>Node12&#45;&gt;Node5</title>
<path fill="none" stroke="#9a32cd" stroke-dasharray="5,2" d="M786.19,-374.88C845.44,-367.36 919.86,-357.93 966.19,-352.05"/>
<polygon fill="#9a32cd" stroke="#9a32cd" points="785.91,-371.38 776.43,-376.11 786.79,-378.33 785.91,-371.38"/>
<text text-anchor="middle" x="875.5" y="-384.5" font-family="Roboto" font-size="10.00"> attributes_</text>
<text text-anchor="middle" x="875.5" y="-373.5" font-family="Roboto" font-size="10.00">networkAttributes_</text>
</g>
<!-- Node13&#45;&gt;Node5 -->
<g id="edge14" class="edge">
<title>Node13&#45;&gt;Node5</title>
<path fill="none" stroke="#9a32cd" stroke-dasharray="5,2" d="M788.57,-327.76C831.43,-330.75 882.8,-334.54 929,-338.5 941.11,-339.54 954.22,-340.78 966.3,-341.97"/>
<polygon fill="#9a32cd" stroke="#9a32cd" points="789.02,-324.28 778.8,-327.08 788.54,-331.26 789.02,-324.28"/>
<text text-anchor="middle" x="875.5" y="-341.5" font-family="Roboto" font-size="10.00"> eventReceivers_</text>
</g>
<!-- Node14&#45;&gt;Node5 -->
<g id="edge16" class="edge">
<title>Node14&#45;&gt;Node5</title>
<path fill="none" stroke="#9a32cd" stroke-dasharray="5,2" d="M811.28,-280.93C849.08,-291.1 891.03,-303.09 929,-315.5 948.32,-321.82 969.79,-330.09 985.77,-336.5"/>
<polygon fill="#9a32cd" stroke="#9a32cd" points="812.25,-277.56 801.68,-278.36 810.44,-284.33 812.25,-277.56"/>
<text text-anchor="middle" x="875.5" y="-318.5" font-family="Roboto" font-size="10.00"> specificEventReceivers_</text>
</g>
<!-- Node15 -->
<g id="node13" class="node">
<title>Node15</title>
<g id="a_node13"><a xlink:href="class_urho3_d_1_1_p_o_d_vector.html" target="_top" xlink:title=" ">
<polygon fill="white" stroke="#666666" points="748,-455.5 639,-455.5 639,-425.5 748,-425.5 748,-455.5"/>
<text text-anchor="start" x="647" y="-443.5" font-family="Roboto" font-size="10.00">Urho3D::PODVector&lt;</text>
<text text-anchor="middle" x="693.5" y="-432.5" font-family="Roboto" font-size="10.00"> Urho3D::Object * &gt;</text>
</a>
</g>
</g>
<!-- Node15&#45;&gt;Node5 -->
<g id="edge18" class="edge">
<title>Node15&#45;&gt;Node5</title>
<path fill="none" stroke="#9a32cd" stroke-dasharray="5,2" d="M759.38,-434.79C807.46,-429.03 873.92,-417.81 929,-396.5 955.05,-386.42 982,-367.86 997.32,-356.41"/>
<polygon fill="#9a32cd" stroke="#9a32cd" points="759.22,-431.29 749.69,-435.9 760.02,-438.24 759.22,-431.29"/>
<text text-anchor="middle" x="875.5" y="-428.5" font-family="Roboto" font-size="10.00"> eventSenders_</text>
</g>
<!-- Node16 -->
<g id="node14" class="node">
<title>Node16</title>
<g id="a_node14"><a xlink:href="class_urho3_d_1_1_vector_base.html" target="_top" xlink:title="Vector base class.">
<polygon fill="white" stroke="#666666" points="486.5,-480 380.5,-480 380.5,-461 486.5,-461 486.5,-480"/>
<text text-anchor="middle" x="433.5" y="-468" font-family="Roboto" font-size="10.00">Urho3D::VectorBase</text>
</a>
</g>
</g>
<!-- Node16&#45;&gt;Node15 -->
<g id="edge19" class="edge">
<title>Node16&#45;&gt;Node15</title>
<path fill="none" stroke="#63b8ff" d="M497.94,-463.12C541.1,-458.1 597.61,-451.53 638.59,-446.77"/>
<polygon fill="#63b8ff" stroke="#63b8ff" points="497.74,-459.62 488.21,-464.25 498.55,-466.58 497.74,-459.62"/>
</g>
<!-- Node17 -->
<g id="node15" class="node">
<title>Node17</title>
<g id="a_node15"><a xlink:href="class_urho3_d_1_1_p_o_d_vector.html" target="_top" xlink:title=" ">
<polygon fill="white" stroke="#666666" points="750.5,-503.5 636.5,-503.5 636.5,-473.5 750.5,-473.5 750.5,-503.5"/>
<text text-anchor="start" x="644.5" y="-491.5" font-family="Roboto" font-size="10.00">Urho3D::PODVector&lt;</text>
<text text-anchor="middle" x="693.5" y="-480.5" font-family="Roboto" font-size="10.00"> Urho3D::HashMap * &gt;</text>
</a>
</g>
</g>
<!-- Node16&#45;&gt;Node17 -->
<g id="edge21" class="edge">
<title>Node16&#45;&gt;Node17</title>
<path fill="none" stroke="#63b8ff" d="M498.02,-474.93C540.39,-477.89 595.58,-481.74 636.34,-484.58"/>
<polygon fill="#63b8ff" stroke="#63b8ff" points="498.44,-471.45 488.22,-474.25 497.95,-478.44 498.44,-471.45"/>
</g>
<!-- Node17&#45;&gt;Node5 -->
<g id="edge20" class="edge">
<title>Node17&#45;&gt;Node5</title>
<path fill="none" stroke="#9a32cd" stroke-dasharray="5,2" d="M761.89,-486.23C811.14,-481.94 877.96,-470.45 929,-440.5 965.23,-419.24 993.26,-375.83 1004.57,-356.35"/>
<polygon fill="#9a32cd" stroke="#9a32cd" points="761.92,-482.71 752.23,-486.99 762.47,-489.69 761.92,-482.71"/>
<text text-anchor="middle" x="875.5" y="-480.5" font-family="Roboto" font-size="10.00"> eventDataMaps_</text>
</g>
<!-- Node18&#45;&gt;Node5 -->
<g id="edge22" class="edge">
<title>Node18&#45;&gt;Node5</title>
<path fill="none" stroke="#9a32cd" stroke-dasharray="5,2" d="M761.37,-596C812.65,-594.42 882.34,-584.25 929,-545.5 990.69,-494.26 1005.89,-388.73 1009.18,-356.24"/>
<polygon fill="#9a32cd" stroke="#9a32cd" points="761.51,-592.5 751.58,-596.19 761.65,-599.49 761.51,-592.5"/>
<text text-anchor="middle" x="875.5" y="-593.5" font-family="Roboto" font-size="10.00"> eventHandler_</text>
</g>
<!-- Node23 -->
<g id="node21" class="node">
<title>Node23</title>
<g id="a_node21"><a xlink:href="class_urho3_d_1_1_linked_list.html" target="_top" xlink:title=" ">
<polygon fill="white" stroke="#666666" points="1075,-678.5 947,-678.5 947,-648.5 1075,-648.5 1075,-678.5"/>
<text text-anchor="start" x="955" y="-666.5" font-family="Roboto" font-size="10.00">Urho3D::LinkedList</text>
<text text-anchor="middle" x="1011" y="-655.5" font-family="Roboto" font-size="10.00">&lt; Urho3D::EventHandler &gt;</text>
</a>
</g>
</g>
<!-- Node18&#45;&gt;Node23 -->
<g id="edge33" class="edge">
<title>Node18&#45;&gt;Node23</title>
<path fill="none" stroke="#9a32cd" stroke-dasharray="5,2" d="M750.31,-605.88C805.33,-618.09 889.3,-636.72 946.76,-649.47"/>
<polygon fill="#9a32cd" stroke="#9a32cd" points="751.37,-602.53 740.85,-603.78 749.85,-609.37 751.37,-602.53"/>
<text text-anchor="middle" x="875.5" y="-648.5" font-family="Roboto" font-size="10.00"> head_</text>
</g>
<!-- Node19 -->
<g id="node17" class="node">
<title>Node19</title>
<g id="a_node17"><a xlink:href="struct_urho3_d_1_1_linked_list_node.html" target="_top" xlink:title="Singly&#45;linked list node base class.">
<polygon fill="white" stroke="#666666" points="496,-645 371,-645 371,-626 496,-626 496,-645"/>
<text text-anchor="middle" x="433.5" y="-633" font-family="Roboto" font-size="10.00">Urho3D::LinkedListNode</text>
</a>
</g>
</g>
<!-- Node19&#45;&gt;Node18 -->
<g id="edge23" class="edge">
<title>Node19&#45;&gt;Node18</title>
<path fill="none" stroke="#63b8ff" d="M481.23,-621.95C486.26,-620.23 491.26,-618.4 496,-616.5 504.3,-613.17 505.38,-609.89 514,-607.5 554.13,-596.35 601.16,-593.04 636.87,-592.41"/>
<polygon fill="#63b8ff" stroke="#63b8ff" points="480.15,-618.62 471.73,-625.06 482.33,-625.27 480.15,-618.62"/>
</g>
<!-- Node19&#45;&gt;Node19 -->
<g id="edge24" class="edge">
<title>Node19&#45;&gt;Node19</title>
<path fill="none" stroke="#9a32cd" stroke-dasharray="5,2" d="M416.37,-656.43C418.51,-660.29 424.22,-663 433.5,-663 450.46,-663 455.5,-653.94 448.61,-645.37"/>
<polygon fill="#9a32cd" stroke="#9a32cd" points="419.77,-657.32 418.12,-646.86 412.88,-656.07 419.77,-657.32"/>
<text text-anchor="middle" x="433.5" y="-666" font-family="Roboto" font-size="10.00"> next_</text>
</g>
<!-- Node20 -->
<g id="node18" class="node">
<title>Node20</title>
<g id="a_node18"><a xlink:href="class_urho3_d_1_1_string_hash.html" target="_top" xlink:title="32&#45;bit hash value for a string.">
<polygon fill="white" stroke="#666666" points="485.5,-579 381.5,-579 381.5,-560 485.5,-560 485.5,-579"/>
<text text-anchor="middle" x="433.5" y="-567" font-family="Roboto" font-size="10.00">Urho3D::StringHash</text>
</a>
</g>
</g>
<!-- Node20&#45;&gt;Node18 -->
<g id="edge26" class="edge">
<title>Node20&#45;&gt;Node18</title>
<path fill="none" stroke="#9a32cd" stroke-dasharray="5,2" d="M496.9,-568.64C502.68,-568.58 508.45,-568.53 514,-568.5 536.67,-568.36 542.44,-566.31 565,-568.5 594.52,-571.37 627.36,-577.89 652.31,-583.55"/>
<polygon fill="#9a32cd" stroke="#9a32cd" points="497.29,-565.14 487.33,-568.74 497.37,-572.14 497.29,-565.14"/>
<text text-anchor="middle" x="539.5" y="-571.5" font-family="Roboto" font-size="10.00"> eventType_</text>
</g>
<!-- Node20&#45;&gt;Node20 -->
<g id="edge27" class="edge">
<title>Node20&#45;&gt;Node20</title>
<path fill="none" stroke="#9a32cd" stroke-dasharray="5,2" d="M416.37,-590.43C418.51,-594.29 424.22,-597 433.5,-597 450.46,-597 455.5,-587.94 448.61,-579.37"/>
<polygon fill="#9a32cd" stroke="#9a32cd" points="419.77,-591.32 418.12,-580.86 412.88,-590.07 419.77,-591.32"/>
<text text-anchor="middle" x="433.5" y="-600" font-family="Roboto" font-size="10.00"> ZERO</text>
</g>
<!-- Node21&#45;&gt;Node5 -->
<g id="edge28" class="edge">
<title>Node21&#45;&gt;Node5</title>
<path fill="none" stroke="#9a32cd" stroke-dasharray="5,2" d="M774.44,-147.02C823.4,-155.71 884.91,-173.22 929,-208.5 973.68,-244.26 998.9,-311.82 1007.05,-336.86"/>
<polygon fill="#9a32cd" stroke="#9a32cd" points="775.17,-143.59 764.73,-145.4 774.02,-150.5 775.17,-143.59"/>
<text text-anchor="middle" x="875.5" y="-211.5" font-family="Roboto" font-size="10.00"> objectCategories_</text>
</g>
<!-- Node22&#45;&gt;Node5 -->
<g id="edge30" class="edge">
<title>Node22&#45;&gt;Node5</title>
<path fill="none" stroke="#9a32cd" stroke-dasharray="5,2" d="M782.74,-210.3C828.9,-222.37 884.83,-241.52 929,-270.5 958.99,-290.18 988.16,-321.38 1001.87,-336.97"/>
<polygon fill="#9a32cd" stroke="#9a32cd" points="783.86,-206.98 773.31,-207.91 782.14,-213.76 783.86,-206.98"/>
<text text-anchor="middle" x="875.5" y="-273.5" font-family="Roboto" font-size="10.00"> globalVars_</text>
</g>
<!-- Node23&#45;&gt;Node2 -->
<g id="edge32" class="edge">
<title>Node23&#45;&gt;Node2</title>
<path fill="none" stroke="#9a32cd" stroke-dasharray="5,2" d="M935.59,-672.88C933.37,-673.1 931.17,-673.3 929,-673.5 760.93,-688.62 559.94,-697.01 475.27,-700.11"/>
<polygon fill="#9a32cd" stroke="#9a32cd" points="935.72,-676.38 945.31,-671.87 935,-669.42 935.72,-676.38"/>
<text text-anchor="middle" x="693.5" y="-697.5" font-family="Roboto" font-size="10.00"> eventHandlers_</text>
</g>
<!-- Node24 -->
<g id="node22" class="node">
<title>Node24</title>
<g id="a_node22"><a xlink:href="class_urho3_d_1_1_abstract_file.html" target="_top" xlink:title="A common root class for objects that implement both Serializer and Deserializer.">
<polygon fill="white" stroke="#666666" points="487,-766 380,-766 380,-747 487,-747 487,-766"/>
<text text-anchor="middle" x="433.5" y="-754" font-family="Roboto" font-size="10.00">Urho3D::AbstractFile</text>
</a>
</g>
</g>
<!-- Node24&#45;&gt;Node1 -->
<g id="edge34" class="edge">
<title>Node24&#45;&gt;Node1</title>
<path fill="none" stroke="#63b8ff" d="M498.65,-755.26C542.13,-754.41 598.89,-753.31 639.74,-752.52"/>
<polygon fill="#63b8ff" stroke="#63b8ff" points="498.78,-751.75 488.85,-755.45 498.91,-758.75 498.78,-751.75"/>
</g>
<!-- Node25 -->
<g id="node23" class="node">
<title>Node25</title>
<g id="a_node23"><a xlink:href="class_urho3_d_1_1_deserializer.html" target="_top" xlink:title=" ">
<polygon fill="white" stroke="#666666" points="294,-803 187,-803 187,-784 294,-784 294,-803"/>
<text text-anchor="middle" x="240.5" y="-791" font-family="Roboto" font-size="10.00">Urho3D::Deserializer</text>
</a>
</g>
</g>
<!-- Node25&#45;&gt;Node24 -->
<g id="edge35" class="edge">
<title>Node25&#45;&gt;Node24</title>
<path fill="none" stroke="#63b8ff" d="M304.11,-781.37C329,-776.55 357.29,-771.07 380.97,-766.48"/>
<polygon fill="#63b8ff" stroke="#63b8ff" points="303.57,-777.91 294.42,-783.25 304.9,-784.78 303.57,-777.91"/>
</g>
<!-- Node26 -->
<g id="node24" class="node">
<title>Node26</title>
<g id="a_node24"><a xlink:href="class_urho3_d_1_1_serializer.html" target="_top" xlink:title=" ">
<polygon fill="white" stroke="#666666" points="288.5,-766 192.5,-766 192.5,-747 288.5,-747 288.5,-766"/>
<text text-anchor="middle" x="240.5" y="-754" font-family="Roboto" font-size="10.00">Urho3D::Serializer</text>
</a>
</g>
</g>
<!-- Node26&#45;&gt;Node24 -->
<g id="edge36" class="edge">
<title>Node26&#45;&gt;Node24</title>
<path fill="none" stroke="#63b8ff" d="M300.07,-756.5C325.5,-756.5 355.05,-756.5 379.78,-756.5"/>
<polygon fill="#63b8ff" stroke="#63b8ff" points="300.23,-753 290.23,-756.5 300.23,-760 300.23,-753"/>
</g>
<!-- Node27 -->
<g id="node25" class="node">
<title>Node27</title>
<g id="a_node25"><a xlink:href="class_urho3_d_1_1_string.html" target="_top" xlink:title="String class.">
<polygon fill="white" stroke="#666666" points="280.5,-700 200.5,-700 200.5,-681 280.5,-681 280.5,-700"/>
<text text-anchor="middle" x="240.5" y="-688" font-family="Roboto" font-size="10.00">Urho3D::String</text>
</a>
</g>
</g>
<!-- Node27&#45;&gt;Node24 -->
<g id="edge37" class="edge">
<title>Node27&#45;&gt;Node24</title>
<path fill="none" stroke="#9a32cd" stroke-dasharray="5,2" d="M280.85,-704.1C317.41,-716.73 370.99,-735.25 403.71,-746.55"/>
<polygon fill="#9a32cd" stroke="#9a32cd" points="282.12,-700.83 271.53,-700.88 279.83,-707.45 282.12,-700.83"/>
<text text-anchor="middle" x="337" y="-729.5" font-family="Roboto" font-size="10.00"> name_</text>
</g>
<!-- Node27&#45;&gt;Node27 -->
<g id="edge38" class="edge">
<title>Node27&#45;&gt;Node27</title>
<path fill="none" stroke="#9a32cd" stroke-dasharray="5,2" d="M223.37,-711.43C225.51,-715.29 231.22,-718 240.5,-718 257.46,-718 262.5,-708.94 255.61,-700.37"/>
<polygon fill="#9a32cd" stroke="#9a32cd" points="226.77,-712.32 225.12,-701.86 219.88,-711.07 226.77,-712.32"/>
<text text-anchor="middle" x="240.5" y="-721" font-family="Roboto" font-size="10.00"> EMPTY</text>
</g>
</g>
</svg>
