<?xml version="1.0" encoding="UTF-8" standalone="no"?>
<!DOCTYPE svg PUBLIC "-//W3C//DTD SVG 1.1//EN"
 "http://www.w3.org/Graphics/SVG/1.1/DTD/svg11.dtd">
<!-- Generated by graphviz version 7.0.3 (0)
 -->
<!-- Title: Urho3D::Renderer::SetVSMMultiSample Pages: 1 -->
<svg width="385pt" height="82pt"
 viewBox="0.00 0.00 385.00 82.00" xmlns="http://www.w3.org/2000/svg" xmlns:xlink="http://www.w3.org/1999/xlink">
<g id="graph0" class="graph" transform="scale(1 1) rotate(0) translate(4 78)">
<title>Urho3D::Renderer::SetVSMMultiSample</title>
<!-- Node1 -->
<g id="node1" class="node">
<title>Node1</title>
<g id="a_node1"><a xlink:title=" ">
<polygon fill="#999999" stroke="#666666" points="156,-42.5 0,-42.5 0,-12.5 156,-12.5 156,-42.5"/>
<text text-anchor="start" x="8" y="-30.5" font-family="Roboto" font-size="10.00">Urho3D::Renderer::SetVSMMulti</text>
<text text-anchor="middle" x="78" y="-19.5" font-family="Roboto" font-size="10.00">Sample</text>
</a>
</g>
</g>
<!-- Node2 -->
<g id="node2" class="node">
<title>Node2</title>
<g id="a_node2"><a xlink:href="_math_defs_8h.html#a937fef228b452d2488ce13d78f0bd810" target="_top" xlink:title=" ">
<polygon fill="white" stroke="#666666" points="326,-56 243,-56 243,-37 326,-37 326,-56"/>
<text text-anchor="middle" x="284.5" y="-44" font-family="Roboto" font-size="10.00">Urho3D::Clamp</text>
</a>
</g>
</g>
<!-- Node1&#45;&gt;Node2 -->
<g id="edge1" class="edge">
<title>Node1&#45;&gt;Node2</title>
<path fill="none" stroke="#63b8ff" d="M156.31,-34.68C181.47,-37.02 208.77,-39.56 231.61,-41.68"/>
<polygon fill="#63b8ff" stroke="#63b8ff" points="230.98,-45.14 241.26,-42.58 231.63,-38.17 230.98,-45.14"/>
</g>
<!-- Node3 -->
<g id="node3" class="node">
<title>Node3</title>
<g id="a_node3"><a xlink:href="class_urho3_d_1_1_renderer.html#a03b35442eee1c6071cf8e06c0514bb9e" target="_top" xlink:title="Remove all shadow maps. Called when global shadow map resolution or format is changed.">
<polygon fill="white" stroke="#666666" points="377,-19 192,-19 192,0 377,0 377,-19"/>
<text text-anchor="middle" x="284.5" y="-7" font-family="Roboto" font-size="10.00">Urho3D::Renderer::ResetShadowMaps</text>
</a>
</g>
</g>
<!-- Node1&#45;&gt;Node3 -->
<g id="edge3" class="edge">
<title>Node1&#45;&gt;Node3</title>
<path fill="none" stroke="#63b8ff" d="M156.31,-20.69C164.15,-20 172.2,-19.3 180.26,-18.59"/>
<polygon fill="#63b8ff" stroke="#63b8ff" points="180.48,-22.08 190.13,-17.72 179.86,-15.11 180.48,-22.08"/>
</g>
<!-- Node2&#45;&gt;Node2 -->
<g id="edge2" class="edge">
<title>Node2&#45;&gt;Node2</title>
<path fill="none" stroke="#63b8ff" d="M252.17,-56.37C237.42,-64.94 248.2,-74 284.5,-74 306.05,-74 318.61,-70.8 322.16,-66.42"/>
<polygon fill="#63b8ff" stroke="#63b8ff" points="325.32,-64.9 317.54,-57.7 319.14,-68.18 325.32,-64.9"/>
</g>
</g>
</svg>
