<?xml version="1.0" encoding="UTF-8" standalone="no"?>
<!DOCTYPE svg PUBLIC "-//W3C//DTD SVG 1.1//EN"
 "http://www.w3.org/Graphics/SVG/1.1/DTD/svg11.dtd">
<!-- Generated by graphviz version 7.0.3 (0)
 -->
<!-- Title: Urho3D::Text::FilterImplicitAttributes Pages: 1 -->
<svg width="732pt" height="182pt"
 viewBox="0.00 0.00 732.00 182.00" xmlns="http://www.w3.org/2000/svg" xmlns:xlink="http://www.w3.org/1999/xlink">
<g id="graph0" class="graph" transform="scale(1 1) rotate(0) translate(4 178)">
<title>Urho3D::Text::FilterImplicitAttributes</title>
<!-- Node1 -->
<g id="node1" class="node">
<title>Node1</title>
<g id="a_node1"><a xlink:title="Filter implicit attributes in serialization process.">
<polygon fill="#999999" stroke="#666666" points="132,-126 0,-126 0,-96 132,-96 132,-126"/>
<text text-anchor="start" x="8" y="-114" font-family="Roboto" font-size="10.00">Urho3D::Text::FilterImplicit</text>
<text text-anchor="middle" x="66" y="-103" font-family="Roboto" font-size="10.00">Attributes</text>
</a>
</g>
</g>
<!-- Node2 -->
<g id="node2" class="node">
<title>Node2</title>
<g id="a_node2"><a xlink:href="class_urho3_d_1_1_u_i_element.html#a19d489013e96a7ca8a4c9ce7c1d4ed40" target="_top" xlink:title="Filter implicit attributes in serialization process.">
<polygon fill="white" stroke="#666666" points="281,-126 168,-126 168,-96 281,-96 281,-126"/>
<text text-anchor="start" x="176" y="-114" font-family="Roboto" font-size="10.00">Urho3D::UIElement::</text>
<text text-anchor="middle" x="224.5" y="-103" font-family="Roboto" font-size="10.00">FilterImplicitAttributes</text>
</a>
</g>
</g>
<!-- Node1&#45;&gt;Node2 -->
<g id="edge1" class="edge">
<title>Node1&#45;&gt;Node2</title>
<path fill="none" stroke="#63b8ff" d="M132.46,-111C140.34,-111 148.4,-111 156.3,-111"/>
<polygon fill="#63b8ff" stroke="#63b8ff" points="156.22,-114.5 166.22,-111 156.22,-107.5 156.22,-114.5"/>
</g>
<!-- Node4 -->
<g id="node4" class="node">
<title>Node4</title>
<g id="a_node4"><a xlink:href="class_urho3_d_1_1_u_i_element.html#af7389fe1ec87c47bd6c9e6bdb151cda1" target="_top" xlink:title=" ">
<polygon fill="white" stroke="#666666" points="422,-174 317,-174 317,-144 422,-144 422,-174"/>
<text text-anchor="start" x="325" y="-162" font-family="Roboto" font-size="10.00">Urho3D::UIElement::</text>
<text text-anchor="middle" x="369.5" y="-151" font-family="Roboto" font-size="10.00">IsFixedWidth</text>
</a>
</g>
</g>
<!-- Node1&#45;&gt;Node4 -->
<g id="edge11" class="edge">
<title>Node1&#45;&gt;Node4</title>
<path fill="none" stroke="#63b8ff" d="M127.12,-126.47C140.51,-129.59 154.69,-132.63 168,-135 213.71,-143.14 265.78,-149.28 305.4,-153.31"/>
<polygon fill="#63b8ff" stroke="#63b8ff" points="304.95,-156.78 315.24,-154.29 305.64,-149.82 304.95,-156.78"/>
</g>
<!-- Node5 -->
<g id="node5" class="node">
<title>Node5</title>
<g id="a_node5"><a xlink:href="class_urho3_d_1_1_u_i_element.html#ad23ccc306cf25e891e8ab6c156492b79" target="_top" xlink:title="Remove child XML element by matching attribute name.">
<polygon fill="white" stroke="#666666" points="422,-78 317,-78 317,-48 422,-48 422,-78"/>
<text text-anchor="start" x="325" y="-66" font-family="Roboto" font-size="10.00">Urho3D::UIElement::</text>
<text text-anchor="middle" x="369.5" y="-55" font-family="Roboto" font-size="10.00">RemoveChildXML</text>
</a>
</g>
</g>
<!-- Node1&#45;&gt;Node5 -->
<g id="edge12" class="edge">
<title>Node1&#45;&gt;Node5</title>
<path fill="none" stroke="#63b8ff" d="M127.12,-95.53C140.51,-92.41 154.69,-89.37 168,-87 213.71,-78.86 265.78,-72.72 305.4,-68.69"/>
<polygon fill="#63b8ff" stroke="#63b8ff" points="305.64,-72.18 315.24,-67.71 304.95,-65.22 305.64,-72.18"/>
</g>
<!-- Node3 -->
<g id="node3" class="node">
<title>Node3</title>
<g id="a_node3"><a xlink:href="class_urho3_d_1_1_u_i_element.html#af20fa0798d41c04285757b8ba6c4a7f6" target="_top" xlink:title=" ">
<polygon fill="white" stroke="#666666" points="422,-126 317,-126 317,-96 422,-96 422,-126"/>
<text text-anchor="start" x="325" y="-114" font-family="Roboto" font-size="10.00">Urho3D::UIElement::</text>
<text text-anchor="middle" x="369.5" y="-103" font-family="Roboto" font-size="10.00">IsFixedHeight</text>
</a>
</g>
</g>
<!-- Node2&#45;&gt;Node3 -->
<g id="edge2" class="edge">
<title>Node2&#45;&gt;Node3</title>
<path fill="none" stroke="#63b8ff" d="M281.2,-111C289.19,-111 297.47,-111 305.59,-111"/>
<polygon fill="#63b8ff" stroke="#63b8ff" points="305.41,-114.5 315.41,-111 305.41,-107.5 305.41,-114.5"/>
</g>
<!-- Node2&#45;&gt;Node4 -->
<g id="edge3" class="edge">
<title>Node2&#45;&gt;Node4</title>
<path fill="none" stroke="#63b8ff" d="M271.53,-126.45C284.42,-130.78 298.57,-135.53 311.99,-140.03"/>
<polygon fill="#63b8ff" stroke="#63b8ff" points="310.52,-143.23 321.12,-143.1 312.75,-136.6 310.52,-143.23"/>
</g>
<!-- Node2&#45;&gt;Node5 -->
<g id="edge4" class="edge">
<title>Node2&#45;&gt;Node5</title>
<path fill="none" stroke="#63b8ff" d="M271.53,-95.55C284.42,-91.22 298.57,-86.47 311.99,-81.97"/>
<polygon fill="#63b8ff" stroke="#63b8ff" points="312.75,-85.4 321.12,-78.9 310.52,-78.77 312.75,-85.4"/>
</g>
<!-- Node6 -->
<g id="node6" class="node">
<title>Node6</title>
<g id="a_node6"><a xlink:href="class_urho3_d_1_1_x_m_l_element.html#a562a34e40cd98016c3a770466a439a50" target="_top" xlink:title="Remove a child element. Return true if successful.">
<polygon fill="white" stroke="#666666" points="570,-126 459,-126 459,-96 570,-96 570,-126"/>
<text text-anchor="start" x="467" y="-114" font-family="Roboto" font-size="10.00">Urho3D::XMLElement</text>
<text text-anchor="middle" x="514.5" y="-103" font-family="Roboto" font-size="10.00">::RemoveChild</text>
</a>
</g>
</g>
<!-- Node5&#45;&gt;Node6 -->
<g id="edge5" class="edge">
<title>Node5&#45;&gt;Node6</title>
<path fill="none" stroke="#63b8ff" d="M416.53,-78.45C429.42,-82.78 443.57,-87.53 456.99,-92.03"/>
<polygon fill="#63b8ff" stroke="#63b8ff" points="455.52,-95.23 466.12,-95.1 457.75,-88.6 455.52,-95.23"/>
</g>
<!-- Node7 -->
<g id="node7" class="node">
<title>Node7</title>
<g id="a_node7"><a xlink:href="class_urho3_d_1_1_x_m_l_element.html#a49f0b7c1cec40b16581bc24d86ee5e25" target="_top" xlink:title="Select an element/attribute using XPath query.">
<polygon fill="white" stroke="#666666" points="571,-78 458,-78 458,-48 571,-48 571,-78"/>
<text text-anchor="start" x="466" y="-66" font-family="Roboto" font-size="10.00">Urho3D::XMLElement</text>
<text text-anchor="middle" x="514.5" y="-55" font-family="Roboto" font-size="10.00">::SelectSinglePrepared</text>
</a>
</g>
</g>
<!-- Node5&#45;&gt;Node7 -->
<g id="edge6" class="edge">
<title>Node5&#45;&gt;Node7</title>
<path fill="none" stroke="#63b8ff" d="M422.13,-63C429.96,-63 438.13,-63 446.23,-63"/>
<polygon fill="#63b8ff" stroke="#63b8ff" points="446.08,-66.5 456.08,-63 446.08,-59.5 446.08,-66.5"/>
</g>
<!-- Node10 -->
<g id="node10" class="node">
<title>Node10</title>
<g id="a_node10"><a xlink:href="class_urho3_d_1_1_x_path_query.html#ae49880eeaa6a9bd48f2f6aaa2058d0e2" target="_top" xlink:title="Add/Set a bool variable. Return true if successful.">
<polygon fill="white" stroke="#666666" points="567.5,-30 461.5,-30 461.5,0 567.5,0 567.5,-30"/>
<text text-anchor="start" x="469.5" y="-18" font-family="Roboto" font-size="10.00">Urho3D::XPathQuery</text>
<text text-anchor="middle" x="514.5" y="-7" font-family="Roboto" font-size="10.00">::SetVariable</text>
</a>
</g>
</g>
<!-- Node5&#45;&gt;Node10 -->
<g id="edge9" class="edge">
<title>Node5&#45;&gt;Node10</title>
<path fill="none" stroke="#63b8ff" d="M416.53,-47.55C429.42,-43.22 443.57,-38.47 456.99,-33.97"/>
<polygon fill="#63b8ff" stroke="#63b8ff" points="457.75,-37.4 466.12,-30.9 455.52,-30.77 457.75,-37.4"/>
</g>
<!-- Node8 -->
<g id="node8" class="node">
<title>Node8</title>
<g id="a_node8"><a xlink:href="class_urho3_d_1_1_x_path_query.html#a3ca967cf52def09237cda5c41c8e789b" target="_top" xlink:title="Return pugixml xpath_query.">
<polygon fill="white" stroke="#666666" points="718.5,-75 612.5,-75 612.5,-45 718.5,-45 718.5,-75"/>
<text text-anchor="start" x="620.5" y="-63" font-family="Roboto" font-size="10.00">Urho3D::XPathQuery</text>
<text text-anchor="middle" x="665.5" y="-52" font-family="Roboto" font-size="10.00">::GetXPathQuery</text>
</a>
</g>
</g>
<!-- Node7&#45;&gt;Node8 -->
<g id="edge7" class="edge">
<title>Node7&#45;&gt;Node8</title>
<path fill="none" stroke="#63b8ff" d="M571.41,-61.87C581.02,-61.68 591.08,-61.48 600.88,-61.28"/>
<polygon fill="#63b8ff" stroke="#63b8ff" points="600.78,-64.78 610.71,-61.08 600.64,-57.79 600.78,-64.78"/>
</g>
<!-- Node9 -->
<g id="node9" class="node">
<title>Node9</title>
<g id="a_node9"><a xlink:href="class_urho3_d_1_1_x_m_l_element.html#a8dd6d311d1d9d33a802a7b08d99666ba" target="_top" xlink:title="Construct null element.">
<polygon fill="white" stroke="#666666" points="721,-123 610,-123 610,-93 721,-93 721,-123"/>
<text text-anchor="start" x="618" y="-111" font-family="Roboto" font-size="10.00">Urho3D::XMLElement</text>
<text text-anchor="middle" x="665.5" y="-100" font-family="Roboto" font-size="10.00">::XMLElement</text>
</a>
</g>
</g>
<!-- Node7&#45;&gt;Node9 -->
<g id="edge8" class="edge">
<title>Node7&#45;&gt;Node9</title>
<path fill="none" stroke="#63b8ff" d="M566.78,-78.49C578.31,-81.97 590.68,-85.7 602.6,-89.3"/>
<polygon fill="#63b8ff" stroke="#63b8ff" points="601.35,-92.58 611.93,-92.12 603.37,-85.88 601.35,-92.58"/>
</g>
<!-- Node11 -->
<g id="node11" class="node">
<title>Node11</title>
<g id="a_node11"><a xlink:href="class_urho3_d_1_1_string.html#a3e075eaafa63ccbe5b6f28a2ad7a50ad" target="_top" xlink:title="Return the C string.">
<polygon fill="white" stroke="#666666" points="724,-24.5 607,-24.5 607,-5.5 724,-5.5 724,-24.5"/>
<text text-anchor="middle" x="665.5" y="-12.5" font-family="Roboto" font-size="10.00">Urho3D::String::CString</text>
</a>
</g>
</g>
<!-- Node10&#45;&gt;Node11 -->
<g id="edge10" class="edge">
<title>Node10&#45;&gt;Node11</title>
<path fill="none" stroke="#63b8ff" d="M567.61,-15C576.56,-15 585.99,-15 595.3,-15"/>
<polygon fill="#63b8ff" stroke="#63b8ff" points="595.05,-18.5 605.05,-15 595.05,-11.5 595.05,-18.5"/>
</g>
</g>
</svg>
