<?xml version="1.0" encoding="UTF-8" standalone="no"?>
<!DOCTYPE svg PUBLIC "-//W3C//DTD SVG 1.1//EN"
 "http://www.w3.org/Graphics/SVG/1.1/DTD/svg11.dtd">
<!-- Generated by graphviz version 7.0.3 (0)
 -->
<!-- Title: Urho3D::UIElement::GetName Pages: 1 -->
<svg width="458pt" height="155pt"
 viewBox="0.00 0.00 458.00 155.00" xmlns="http://www.w3.org/2000/svg" xmlns:xlink="http://www.w3.org/1999/xlink">
<g id="graph0" class="graph" transform="scale(1 1) rotate(0) translate(4 151)">
<title>Urho3D::UIElement::GetName</title>
<!-- Node1 -->
<g id="node1" class="node">
<title>Node1</title>
<g id="a_node1"><a xlink:title=" ">
<polygon fill="#999999" stroke="#666666" points="450,-102 345,-102 345,-72 450,-72 450,-102"/>
<text text-anchor="start" x="353" y="-90" font-family="Roboto" font-size="10.00">Urho3D::UIElement::</text>
<text text-anchor="middle" x="397.5" y="-79" font-family="Roboto" font-size="10.00">GetName</text>
</a>
</g>
</g>
<!-- Node2 -->
<g id="node2" class="node">
<title>Node2</title>
<g id="a_node2"><a xlink:href="class_urho3_d_1_1_input.html#ae6e2a0dd7db2be45379d5551187afb7b" target="_top" xlink:title="Add screen joystick.">
<polygon fill="white" stroke="#666666" points="130,-147 0,-147 0,-117 130,-117 130,-147"/>
<text text-anchor="start" x="8" y="-135" font-family="Roboto" font-size="10.00">Urho3D::Input::AddScreen</text>
<text text-anchor="middle" x="65" y="-124" font-family="Roboto" font-size="10.00">Joystick</text>
</a>
</g>
</g>
<!-- Node1&#45;&gt;Node2 -->
<g id="edge1" class="edge">
<title>Node1&#45;&gt;Node2</title>
<path fill="none" stroke="#63b8ff" d="M366.07,-108.65C349.94,-118.8 329.29,-129.8 309,-135 249.84,-150.16 179.89,-147.22 130.27,-141.8"/>
<polygon fill="#63b8ff" stroke="#63b8ff" points="367.77,-111.72 374.22,-103.32 363.94,-105.86 367.77,-111.72"/>
</g>
<!-- Node3 -->
<g id="node3" class="node">
<title>Node3</title>
<g id="a_node3"><a xlink:href="class_urho3_d_1_1_input.html#a81b43d331225b80eb2f2e647b142ab5c" target="_top" xlink:title="Handle touch events from the controls of screen joystick(s).">
<polygon fill="white" stroke="#666666" points="309,-126 166,-126 166,-96 309,-96 309,-126"/>
<text text-anchor="start" x="174" y="-114" font-family="Roboto" font-size="10.00">Urho3D::Input::HandleScreen</text>
<text text-anchor="middle" x="237.5" y="-103" font-family="Roboto" font-size="10.00">JoystickTouch</text>
</a>
</g>
</g>
<!-- Node1&#45;&gt;Node3 -->
<g id="edge2" class="edge">
<title>Node1&#45;&gt;Node3</title>
<path fill="none" stroke="#63b8ff" d="M333.64,-96.55C325.64,-97.76 317.41,-99.01 309.29,-100.25"/>
<polygon fill="#63b8ff" stroke="#63b8ff" points="333.91,-100.05 343.27,-95.09 332.86,-93.13 333.91,-100.05"/>
</g>
<!-- Node4 -->
<g id="node4" class="node">
<title>Node4</title>
<g id="a_node4"><a xlink:href="class_urho3_d_1_1_sprite.html#aedada728de8e83b44472e1dd798a1b0d" target="_top" xlink:title=" ">
<polygon fill="white" stroke="#666666" points="298,-78 177,-78 177,-48 298,-48 298,-78"/>
<text text-anchor="start" x="185" y="-66" font-family="Roboto" font-size="10.00">Urho3D::Sprite::Register</text>
<text text-anchor="middle" x="237.5" y="-55" font-family="Roboto" font-size="10.00">Object</text>
</a>
</g>
</g>
<!-- Node1&#45;&gt;Node4 -->
<g id="edge4" class="edge">
<title>Node1&#45;&gt;Node4</title>
<path fill="none" stroke="#63b8ff" d="M333.39,-77.41C321.82,-75.66 309.78,-73.83 298.31,-72.08"/>
<polygon fill="#63b8ff" stroke="#63b8ff" points="332.86,-80.87 343.27,-78.91 333.91,-73.95 332.86,-80.87"/>
</g>
<!-- Node5 -->
<g id="node5" class="node">
<title>Node5</title>
<g id="a_node5"><a xlink:href="class_urho3_d_1_1_u_i_element.html#aa6fad1d07806bb3035f0759984b2afc1" target="_top" xlink:title=" ">
<polygon fill="white" stroke="#666666" points="290,-30 185,-30 185,0 290,0 290,-30"/>
<text text-anchor="start" x="193" y="-18" font-family="Roboto" font-size="10.00">Urho3D::UIElement::</text>
<text text-anchor="middle" x="237.5" y="-7" font-family="Roboto" font-size="10.00">RegisterObject</text>
</a>
</g>
</g>
<!-- Node1&#45;&gt;Node5 -->
<g id="edge5" class="edge">
<title>Node1&#45;&gt;Node5</title>
<path fill="none" stroke="#63b8ff" d="M361.26,-65.84C345.58,-56.91 326.69,-46.79 309,-39 302.14,-35.98 294.77,-33.09 287.47,-30.44"/>
<polygon fill="#63b8ff" stroke="#63b8ff" points="359.34,-68.78 369.75,-70.75 362.85,-62.72 359.34,-68.78"/>
</g>
<!-- Node3&#45;&gt;Node2 -->
<g id="edge3" class="edge">
<title>Node3&#45;&gt;Node2</title>
<path fill="none" stroke="#63b8ff" d="M154.34,-121.12C146.28,-122.11 138.18,-123.11 130.34,-124.08"/>
<polygon fill="#63b8ff" stroke="#63b8ff" points="154.67,-124.6 164.17,-119.91 153.82,-117.66 154.67,-124.6"/>
</g>
</g>
</svg>
