<?xml version="1.0" encoding="UTF-8" standalone="no"?>
<!DOCTYPE svg PUBLIC "-//W3C//DTD SVG 1.1//EN"
 "http://www.w3.org/Graphics/SVG/1.1/DTD/svg11.dtd">
<!-- Generated by graphviz version 7.0.3 (0)
 -->
<!-- Title: Urho3D::Constraint::SetHighLimit Pages: 1 -->
<svg width="625pt" height="190pt"
 viewBox="0.00 0.00 625.00 189.50" xmlns="http://www.w3.org/2000/svg" xmlns:xlink="http://www.w3.org/1999/xlink">
<g id="graph0" class="graph" transform="scale(1 1) rotate(0) translate(4 185.5)">
<title>Urho3D::Constraint::SetHighLimit</title>
<!-- Node1 -->
<g id="node1" class="node">
<title>Node1</title>
<g id="a_node1"><a xlink:title=" ">
<polygon fill="#999999" stroke="#666666" points="100,-141 0,-141 0,-111 100,-111 100,-141"/>
<text text-anchor="start" x="8" y="-129" font-family="Roboto" font-size="10.00">Urho3D::Constraint</text>
<text text-anchor="middle" x="50" y="-118" font-family="Roboto" font-size="10.00">::SetHighLimit</text>
</a>
</g>
</g>
<!-- Node2 -->
<g id="node2" class="node">
<title>Node2</title>
<g id="a_node2"><a xlink:href="class_urho3_d_1_1_constraint.html#a99f0746af3049d429da0c6c98dfcd8de" target="_top" xlink:title="Apply high and low constraint limits.">
<polygon fill="white" stroke="#666666" points="241.5,-176 141.5,-176 141.5,-146 241.5,-146 241.5,-176"/>
<text text-anchor="start" x="149.5" y="-164" font-family="Roboto" font-size="10.00">Urho3D::Constraint</text>
<text text-anchor="middle" x="191.5" y="-153" font-family="Roboto" font-size="10.00">::ApplyLimits</text>
</a>
</g>
</g>
<!-- Node1&#45;&gt;Node2 -->
<g id="edge1" class="edge">
<title>Node1&#45;&gt;Node2</title>
<path fill="none" stroke="#63b8ff" d="M100.18,-138.34C109.87,-140.77 120.14,-143.35 130.15,-145.86"/>
<polygon fill="#63b8ff" stroke="#63b8ff" points="129.27,-149.25 139.82,-148.29 130.98,-142.46 129.27,-149.25"/>
</g>
<!-- Node4 -->
<g id="node4" class="node">
<title>Node4</title>
<g id="a_node4"><a xlink:href="class_urho3_d_1_1_component.html#aaf87acb64001774c62f0784254f9b291" target="_top" xlink:title="Mark for attribute check on the next network update.">
<polygon fill="white" stroke="#666666" points="247,-117 136,-117 136,-87 247,-87 247,-117"/>
<text text-anchor="start" x="144" y="-105" font-family="Roboto" font-size="10.00">Urho3D::Component::</text>
<text text-anchor="middle" x="191.5" y="-94" font-family="Roboto" font-size="10.00">MarkNetworkUpdate</text>
</a>
</g>
</g>
<!-- Node1&#45;&gt;Node4 -->
<g id="edge3" class="edge">
<title>Node1&#45;&gt;Node4</title>
<path fill="none" stroke="#63b8ff" d="M100.18,-117.54C108.06,-116.18 116.31,-114.76 124.5,-113.35"/>
<polygon fill="#63b8ff" stroke="#63b8ff" points="124.83,-116.85 134.09,-111.7 123.64,-109.95 124.83,-116.85"/>
</g>
<!-- Node3 -->
<g id="node3" class="node">
<title>Node3</title>
<g id="a_node3"><a xlink:href="class_urho3_d_1_1_unique_ptr.html#a0a3ac051f536377b767fb97eabc203f5" target="_top" xlink:title="Return the raw pointer.">
<polygon fill="white" stroke="#666666" points="416.5,-181.5 297.5,-181.5 297.5,-162.5 416.5,-162.5 416.5,-181.5"/>
<text text-anchor="middle" x="357" y="-169.5" font-family="Roboto" font-size="10.00">Urho3D::UniquePtr::Get</text>
</a>
</g>
</g>
<!-- Node2&#45;&gt;Node3 -->
<g id="edge2" class="edge">
<title>Node2&#45;&gt;Node3</title>
<path fill="none" stroke="#63b8ff" d="M242,-164.33C255.86,-165.26 271.18,-166.29 285.99,-167.29"/>
<polygon fill="#63b8ff" stroke="#63b8ff" points="285.45,-170.76 295.66,-167.94 285.92,-163.78 285.45,-170.76"/>
</g>
<!-- Node5 -->
<g id="node5" class="node">
<title>Node5</title>
<g id="a_node5"><a xlink:href="class_urho3_d_1_1_component.html#a2c22f727341671a0420934f249ffe059" target="_top" xlink:title="Return the scene the node belongs to.">
<polygon fill="white" stroke="#666666" points="412.5,-144 301.5,-144 301.5,-114 412.5,-114 412.5,-144"/>
<text text-anchor="start" x="309.5" y="-132" font-family="Roboto" font-size="10.00">Urho3D::Component::</text>
<text text-anchor="middle" x="357" y="-121" font-family="Roboto" font-size="10.00">GetScene</text>
</a>
</g>
</g>
<!-- Node4&#45;&gt;Node5 -->
<g id="edge4" class="edge">
<title>Node4&#45;&gt;Node5</title>
<path fill="none" stroke="#63b8ff" d="M247.4,-111.07C261.09,-113.33 275.91,-115.77 290.07,-118.11"/>
<polygon fill="#63b8ff" stroke="#63b8ff" points="289.32,-121.54 299.75,-119.71 290.46,-114.63 289.32,-121.54"/>
</g>
<!-- Node7 -->
<g id="node7" class="node">
<title>Node7</title>
<g id="a_node7"><a xlink:href="class_urho3_d_1_1_component.html#a8f1388c232ca01b7c7328c761aae6e76" target="_top" xlink:title=" ">
<polygon fill="white" stroke="#666666" points="412.5,-96 301.5,-96 301.5,-66 412.5,-66 412.5,-96"/>
<text text-anchor="start" x="309.5" y="-84" font-family="Roboto" font-size="10.00">Urho3D::Component::</text>
<text text-anchor="middle" x="357" y="-73" font-family="Roboto" font-size="10.00">IsReplicated</text>
</a>
</g>
</g>
<!-- Node4&#45;&gt;Node7 -->
<g id="edge6" class="edge">
<title>Node4&#45;&gt;Node7</title>
<path fill="none" stroke="#63b8ff" d="M247.4,-94.95C261.09,-93.19 275.91,-91.29 290.07,-89.47"/>
<polygon fill="#63b8ff" stroke="#63b8ff" points="290.27,-92.97 299.75,-88.23 289.38,-86.03 290.27,-92.97"/>
</g>
<!-- Node9 -->
<g id="node9" class="node">
<title>Node9</title>
<g id="a_node9"><a xlink:href="class_urho3_d_1_1_scene.html#a00b724dfff718639b9de12d71139499c" target="_top" xlink:title="Mark for attribute check on the next network update.">
<polygon fill="white" stroke="#666666" points="431,-30 283,-30 283,0 431,0 431,-30"/>
<text text-anchor="start" x="291" y="-18" font-family="Roboto" font-size="10.00">Urho3D::Scene::MarkNetwork</text>
<text text-anchor="middle" x="357" y="-7" font-family="Roboto" font-size="10.00">Update</text>
</a>
</g>
</g>
<!-- Node4&#45;&gt;Node9 -->
<g id="edge8" class="edge">
<title>Node4&#45;&gt;Node9</title>
<path fill="none" stroke="#63b8ff" d="M221.35,-86.65C247.92,-72.51 287.56,-51.42 316.95,-35.78"/>
<polygon fill="#63b8ff" stroke="#63b8ff" points="318.36,-38.99 325.55,-31.2 315.08,-32.81 318.36,-38.99"/>
</g>
<!-- Node6 -->
<g id="node6" class="node">
<title>Node6</title>
<g id="a_node6"><a xlink:href="class_urho3_d_1_1_node.html#ad3742cda838a2b291daa44d3ab00de56" target="_top" xlink:title=" ">
<polygon fill="white" stroke="#666666" points="605,-138.5 479,-138.5 479,-119.5 605,-119.5 605,-138.5"/>
<text text-anchor="middle" x="542" y="-126.5" font-family="Roboto" font-size="10.00">Urho3D::Node::GetScene</text>
</a>
</g>
</g>
<!-- Node5&#45;&gt;Node6 -->
<g id="edge5" class="edge">
<title>Node5&#45;&gt;Node6</title>
<path fill="none" stroke="#63b8ff" d="M412.91,-129C430,-129 449.14,-129 467.3,-129"/>
<polygon fill="#63b8ff" stroke="#63b8ff" points="467.24,-132.5 477.24,-129 467.24,-125.5 467.24,-132.5"/>
</g>
<!-- Node8 -->
<g id="node8" class="node">
<title>Node8</title>
<g id="a_node8"><a xlink:href="class_urho3_d_1_1_scene.html#a97fb1222bd2f38e6c1c433c0b7e54d40" target="_top" xlink:title="Return whether the specified id is a replicated id.">
<polygon fill="white" stroke="#666666" points="617,-90.5 467,-90.5 467,-71.5 617,-71.5 617,-90.5"/>
<text text-anchor="middle" x="542" y="-78.5" font-family="Roboto" font-size="10.00">Urho3D::Scene::IsReplicatedID</text>
</a>
</g>
</g>
<!-- Node7&#45;&gt;Node8 -->
<g id="edge7" class="edge">
<title>Node7&#45;&gt;Node8</title>
<path fill="none" stroke="#63b8ff" d="M412.91,-81C426.2,-81 440.72,-81 455.07,-81"/>
<polygon fill="#63b8ff" stroke="#63b8ff" points="454.99,-84.5 464.99,-81 454.99,-77.5 454.99,-84.5"/>
</g>
<!-- Node9&#45;&gt;Node9 -->
<g id="edge9" class="edge">
<title>Node9&#45;&gt;Node9</title>
<path fill="none" stroke="#63b8ff" d="M327.91,-30.28C321.44,-39.41 331.14,-48 357,-48 371.14,-48 380.45,-45.43 384.92,-41.61"/>
<polygon fill="#63b8ff" stroke="#63b8ff" points="388.39,-42.09 385.94,-31.78 381.43,-41.37 388.39,-42.09"/>
</g>
</g>
</svg>
