<?xml version="1.0" encoding="UTF-8" standalone="no"?>
<!DOCTYPE svg PUBLIC "-//W3C//DTD SVG 1.1//EN"
 "http://www.w3.org/Graphics/SVG/1.1/DTD/svg11.dtd">
<!-- Generated by graphviz version 7.0.3 (0)
 -->
<!-- Title: Urho3D::Deserializer::GetPosition Pages: 1 -->
<svg width="1407pt" height="381pt"
 viewBox="0.00 0.00 1407.00 381.00" xmlns="http://www.w3.org/2000/svg" xmlns:xlink="http://www.w3.org/1999/xlink">
<g id="graph0" class="graph" transform="scale(1 1) rotate(0) translate(4 377)">
<title>Urho3D::Deserializer::GetPosition</title>
<!-- Node1 -->
<g id="node1" class="node">
<title>Node1</title>
<g id="a_node1"><a xlink:title=" ">
<polygon fill="#999999" stroke="#666666" points="1399,-196 1292,-196 1292,-166 1399,-166 1399,-196"/>
<text text-anchor="start" x="1300" y="-184" font-family="Roboto" font-size="10.00">Urho3D::Deserializer</text>
<text text-anchor="middle" x="1345.5" y="-173" font-family="Roboto" font-size="10.00">::GetPosition</text>
</a>
</g>
</g>
<!-- Node2 -->
<g id="node2" class="node">
<title>Node2</title>
<g id="a_node2"><a xlink:href="class_urho3_d_1_1_script_file.html#a5e39a588cf9beb06879a387233469734" target="_top" xlink:title="Load resource from stream. May be called from a worker thread. Return true if successful.">
<polygon fill="white" stroke="#666666" points="1229.5,-373 1134.5,-373 1134.5,-343 1229.5,-343 1229.5,-373"/>
<text text-anchor="start" x="1142.5" y="-361" font-family="Roboto" font-size="10.00">Urho3D::ScriptFile</text>
<text text-anchor="middle" x="1182" y="-350" font-family="Roboto" font-size="10.00">::BeginLoad</text>
</a>
</g>
</g>
<!-- Node1&#45;&gt;Node2 -->
<g id="edge1" class="edge">
<title>Node1&#45;&gt;Node2</title>
<path fill="none" stroke="#63b8ff" d="M1336.09,-206.98C1323.8,-240.95 1297.73,-300.11 1256,-334 1248.44,-340.14 1239.26,-344.73 1229.99,-348.15"/>
<polygon fill="#63b8ff" stroke="#63b8ff" points="1339.26,-208.52 1339.24,-197.93 1332.65,-206.22 1339.26,-208.52"/>
</g>
<!-- Node3 -->
<g id="node3" class="node">
<title>Node3</title>
<g id="a_node3"><a xlink:href="class_urho3_d_1_1_image.html#a6a1eaaf219828f29ca0dad7c3665a900" target="_top" xlink:title="Load resource from stream. May be called from a worker thread. Return true if successful.">
<polygon fill="white" stroke="#666666" points="1249,-324.5 1115,-324.5 1115,-305.5 1249,-305.5 1249,-324.5"/>
<text text-anchor="middle" x="1182" y="-312.5" font-family="Roboto" font-size="10.00">Urho3D::Image::BeginLoad</text>
</a>
</g>
</g>
<!-- Node1&#45;&gt;Node3 -->
<g id="edge2" class="edge">
<title>Node1&#45;&gt;Node3</title>
<path fill="none" stroke="#63b8ff" d="M1331.63,-206.3C1316.91,-232.67 1290.34,-273.27 1256,-296 1250.43,-299.69 1244.18,-302.66 1237.75,-305.05"/>
<polygon fill="#63b8ff" stroke="#63b8ff" points="1334.65,-208.09 1336.31,-197.62 1328.48,-204.76 1334.65,-208.09"/>
</g>
<!-- Node4 -->
<g id="node4" class="node">
<title>Node4</title>
<g id="a_node4"><a xlink:href="class_urho3_d_1_1_font_face_free_type.html#ad76941dd7b07298359fb6880dd260d77" target="_top" xlink:title="Load font face.">
<polygon fill="white" stroke="#666666" points="1249,-287 1115,-287 1115,-257 1249,-257 1249,-287"/>
<text text-anchor="start" x="1123" y="-275" font-family="Roboto" font-size="10.00">Urho3D::FontFaceFreeType</text>
<text text-anchor="middle" x="1182" y="-264" font-family="Roboto" font-size="10.00">::Load</text>
</a>
</g>
</g>
<!-- Node1&#45;&gt;Node4 -->
<g id="edge3" class="edge">
<title>Node1&#45;&gt;Node4</title>
<path fill="none" stroke="#63b8ff" d="M1319,-203.93C1302.1,-218.17 1278.9,-236 1256,-248 1249.97,-251.16 1243.45,-254.01 1236.87,-256.55"/>
<polygon fill="#63b8ff" stroke="#63b8ff" points="1321.26,-206.6 1326.55,-197.43 1316.69,-201.3 1321.26,-206.6"/>
</g>
<!-- Node5 -->
<g id="node5" class="node">
<title>Node5</title>
<g id="a_node5"><a xlink:href="class_urho3_d_1_1_unknown_component.html#a58f4aad3d342a0b815e132c8d61dabd8" target="_top" xlink:title="Load from binary data. Return true if successful.">
<polygon fill="white" stroke="#666666" points="1256,-239 1108,-239 1108,-209 1256,-209 1256,-239"/>
<text text-anchor="start" x="1116" y="-227" font-family="Roboto" font-size="10.00">Urho3D::UnknownComponent</text>
<text text-anchor="middle" x="1182" y="-216" font-family="Roboto" font-size="10.00">::Load</text>
</a>
</g>
</g>
<!-- Node1&#45;&gt;Node5 -->
<g id="edge4" class="edge">
<title>Node1&#45;&gt;Node5</title>
<path fill="none" stroke="#63b8ff" d="M1280.78,-197.97C1267.67,-201.46 1253.92,-205.12 1241.02,-208.55"/>
<polygon fill="#63b8ff" stroke="#63b8ff" points="1281.39,-201.42 1290.16,-195.47 1279.59,-194.66 1281.39,-201.42"/>
</g>
<!-- Node6 -->
<g id="node6" class="node">
<title>Node6</title>
<g id="a_node6"><a xlink:href="class_urho3_d_1_1_scene.html#a37aeb39ae74b420d003a597adccac577" target="_top" xlink:title="Load from a binary file asynchronously. Return true if started successfully. The LOAD_RESOURCES_ONLY ...">
<polygon fill="white" stroke="#666666" points="1250,-190.5 1114,-190.5 1114,-171.5 1250,-171.5 1250,-190.5"/>
<text text-anchor="middle" x="1182" y="-178.5" font-family="Roboto" font-size="10.00">Urho3D::Scene::LoadAsync</text>
</a>
</g>
</g>
<!-- Node1&#45;&gt;Node6 -->
<g id="edge5" class="edge">
<title>Node1&#45;&gt;Node6</title>
<path fill="none" stroke="#63b8ff" d="M1280.29,-181C1270.47,-181 1260.32,-181 1250.43,-181"/>
<polygon fill="#63b8ff" stroke="#63b8ff" points="1280.11,-184.5 1290.11,-181 1280.11,-177.5 1280.11,-184.5"/>
</g>
<!-- Node7 -->
<g id="node7" class="node">
<title>Node7</title>
<g id="a_node7"><a xlink:href="class_urho3_d_1_1_sound.html#ab0ab973af6cca214b8ee7f62a38db277" target="_top" xlink:title="Load WAV format sound data.">
<polygon fill="white" stroke="#666666" points="1246.5,-153.5 1117.5,-153.5 1117.5,-134.5 1246.5,-134.5 1246.5,-153.5"/>
<text text-anchor="middle" x="1182" y="-141.5" font-family="Roboto" font-size="10.00">Urho3D::Sound::LoadWav</text>
</a>
</g>
</g>
<!-- Node1&#45;&gt;Node7 -->
<g id="edge6" class="edge">
<title>Node1&#45;&gt;Node7</title>
<path fill="none" stroke="#63b8ff" d="M1280.54,-166.35C1262.44,-162.2 1243.16,-157.78 1226.56,-153.98"/>
<polygon fill="#63b8ff" stroke="#63b8ff" points="1279.61,-169.73 1290.14,-168.55 1281.18,-162.9 1279.61,-169.73"/>
</g>
<!-- Node9 -->
<g id="node9" class="node">
<title>Node9</title>
<g id="a_node9"><a xlink:href="class_urho3_d_1_1_connection.html#a577c99b55dfd76a7e6b7f8b1de90c5bd" target="_top" xlink:title="Process a message from the server or client. Called by Network.">
<polygon fill="white" stroke="#666666" points="1057.5,-97 952.5,-97 952.5,-67 1057.5,-67 1057.5,-97"/>
<text text-anchor="start" x="960.5" y="-85" font-family="Roboto" font-size="10.00">Urho3D::Connection</text>
<text text-anchor="middle" x="1005" y="-74" font-family="Roboto" font-size="10.00">::ProcessMessage</text>
</a>
</g>
</g>
<!-- Node1&#45;&gt;Node9 -->
<g id="edge8" class="edge">
<title>Node1&#45;&gt;Node9</title>
<path fill="none" stroke="#63b8ff" d="M1315.44,-158.98C1298.85,-147.46 1277.19,-134.1 1256,-126 1190.34,-100.9 1109.45,-90 1057.8,-85.34"/>
<polygon fill="#63b8ff" stroke="#63b8ff" points="1313.18,-161.67 1323.35,-164.62 1317.24,-155.97 1313.18,-161.67"/>
</g>
<!-- Node15 -->
<g id="node15" class="node">
<title>Node15</title>
<g id="a_node15"><a xlink:href="class_urho3_d_1_1_connection.html#a1c702780a42ef4fd2365fb2698db6509" target="_top" xlink:title="Process package download related messages. Called by Network.">
<polygon fill="white" stroke="#666666" points="1252,-78 1112,-78 1112,-48 1252,-48 1252,-78"/>
<text text-anchor="start" x="1120" y="-66" font-family="Roboto" font-size="10.00">Urho3D::Connection</text>
<text text-anchor="middle" x="1182" y="-55" font-family="Roboto" font-size="10.00">::ProcessPackageDownload</text>
</a>
</g>
</g>
<!-- Node1&#45;&gt;Node15 -->
<g id="edge14" class="edge">
<title>Node1&#45;&gt;Node15</title>
<path fill="none" stroke="#63b8ff" d="M1325.36,-156.86C1308.75,-137.22 1283.16,-109.92 1256,-92 1248.03,-86.74 1238.96,-82.19 1229.99,-78.36"/>
<polygon fill="#63b8ff" stroke="#63b8ff" points="1322.51,-158.91 1331.58,-164.38 1327.9,-154.44 1322.51,-158.91"/>
</g>
<!-- Node16 -->
<g id="node16" class="node">
<title>Node16</title>
<g id="a_node16"><a xlink:href="class_urho3_d_1_1_deserializer.html#acff4d7732f540451137b8b0de0dba0ed" target="_top" xlink:title="Set position relative to current position. Return actual new position.">
<polygon fill="white" stroke="#666666" points="1235.5,-30 1128.5,-30 1128.5,0 1235.5,0 1235.5,-30"/>
<text text-anchor="start" x="1136.5" y="-18" font-family="Roboto" font-size="10.00">Urho3D::Deserializer</text>
<text text-anchor="middle" x="1182" y="-7" font-family="Roboto" font-size="10.00">::SeekRelative</text>
</a>
</g>
</g>
<!-- Node1&#45;&gt;Node16 -->
<g id="edge16" class="edge">
<title>Node1&#45;&gt;Node16</title>
<path fill="none" stroke="#63b8ff" d="M1334.84,-155.07C1321.71,-123.28 1295.28,-69.83 1256,-39 1250.02,-34.3 1243.08,-30.51 1235.91,-27.45"/>
<polygon fill="#63b8ff" stroke="#63b8ff" points="1331.57,-156.32 1338.51,-164.32 1338.07,-153.73 1331.57,-156.32"/>
</g>
<!-- Node8 -->
<g id="node8" class="node">
<title>Node8</title>
<g id="a_node8"><a xlink:href="class_urho3_d_1_1_sound.html#a3715d573723b77db787cd551392e8753" target="_top" xlink:title="Load resource from stream. May be called from a worker thread. Return true if successful.">
<polygon fill="white" stroke="#666666" points="1072,-153.5 938,-153.5 938,-134.5 1072,-134.5 1072,-153.5"/>
<text text-anchor="middle" x="1005" y="-141.5" font-family="Roboto" font-size="10.00">Urho3D::Sound::BeginLoad</text>
</a>
</g>
</g>
<!-- Node7&#45;&gt;Node8 -->
<g id="edge7" class="edge">
<title>Node7&#45;&gt;Node8</title>
<path fill="none" stroke="#63b8ff" d="M1105.83,-144C1094.67,-144 1083.23,-144 1072.27,-144"/>
<polygon fill="#63b8ff" stroke="#63b8ff" points="1105.81,-147.5 1115.81,-144 1105.81,-140.5 1105.81,-147.5"/>
</g>
<!-- Node10 -->
<g id="node10" class="node">
<title>Node10</title>
<g id="a_node10"><a xlink:href="class_urho3_d_1_1_network.html#a27e675ccc446bc8f6567b4b9f2248f32" target="_top" xlink:title="Handle an inbound message.">
<polygon fill="white" stroke="#666666" points="902,-91.5 732,-91.5 732,-72.5 902,-72.5 902,-91.5"/>
<text text-anchor="middle" x="817" y="-79.5" font-family="Roboto" font-size="10.00">Urho3D::Network::HandleMessage</text>
</a>
</g>
</g>
<!-- Node9&#45;&gt;Node10 -->
<g id="edge9" class="edge">
<title>Node9&#45;&gt;Node10</title>
<path fill="none" stroke="#63b8ff" d="M941.02,-82C928.58,-82 915.34,-82 902.33,-82"/>
<polygon fill="#63b8ff" stroke="#63b8ff" points="940.68,-85.5 950.68,-82 940.68,-78.5 940.68,-85.5"/>
</g>
<!-- Node11 -->
<g id="node11" class="node">
<title>Node11</title>
<g id="a_node11"><a xlink:href="class_urho3_d_1_1_network.html#a3d878e00c02066e4b7d5a77e3e129e12" target="_top" xlink:title="All incoming packages are handled here.">
<polygon fill="white" stroke="#666666" points="696,-97 526,-97 526,-67 696,-67 696,-97"/>
<text text-anchor="start" x="534" y="-85" font-family="Roboto" font-size="10.00">Urho3D::Network::HandleIncoming</text>
<text text-anchor="middle" x="611" y="-74" font-family="Roboto" font-size="10.00">Packet</text>
</a>
</g>
</g>
<!-- Node10&#45;&gt;Node11 -->
<g id="edge10" class="edge">
<title>Node10&#45;&gt;Node11</title>
<path fill="none" stroke="#63b8ff" d="M720.31,-82C712.32,-82 704.28,-82 696.38,-82"/>
<polygon fill="#63b8ff" stroke="#63b8ff" points="720.04,-85.5 730.04,-82 720.04,-78.5 720.04,-85.5"/>
</g>
<!-- Node12 -->
<g id="node12" class="node">
<title>Node12</title>
<g id="a_node12"><a xlink:href="class_urho3_d_1_1_network.html#a71021827cd049524ec014dd55cc24ea5" target="_top" xlink:title="Process incoming messages from connections. Called by HandleBeginFrame.">
<polygon fill="white" stroke="#666666" points="490,-91.5 361,-91.5 361,-72.5 490,-72.5 490,-91.5"/>
<text text-anchor="middle" x="425.5" y="-79.5" font-family="Roboto" font-size="10.00">Urho3D::Network::Update</text>
</a>
</g>
</g>
<!-- Node11&#45;&gt;Node12 -->
<g id="edge11" class="edge">
<title>Node11&#45;&gt;Node12</title>
<path fill="none" stroke="#63b8ff" d="M514.09,-82C506.02,-82 497.99,-82 490.26,-82"/>
<polygon fill="#63b8ff" stroke="#63b8ff" points="513.99,-85.5 523.99,-82 513.99,-78.5 513.99,-85.5"/>
</g>
<!-- Node13 -->
<g id="node13" class="node">
<title>Node13</title>
<g id="a_node13"><a xlink:href="class_urho3_d_1_1_network.html#aa03da1be461abb4b6567e8470966c594" target="_top" xlink:title="Handle begin frame event.">
<polygon fill="white" stroke="#666666" points="325,-97 172,-97 172,-67 325,-67 325,-97"/>
<text text-anchor="start" x="180" y="-85" font-family="Roboto" font-size="10.00">Urho3D::Network::HandleBegin</text>
<text text-anchor="middle" x="248.5" y="-74" font-family="Roboto" font-size="10.00">Frame</text>
</a>
</g>
</g>
<!-- Node12&#45;&gt;Node13 -->
<g id="edge12" class="edge">
<title>Node12&#45;&gt;Node13</title>
<path fill="none" stroke="#63b8ff" d="M349.31,-82C341.37,-82 333.28,-82 325.33,-82"/>
<polygon fill="#63b8ff" stroke="#63b8ff" points="349.31,-85.5 359.31,-82 349.31,-78.5 349.31,-85.5"/>
</g>
<!-- Node14 -->
<g id="node14" class="node">
<title>Node14</title>
<g id="a_node14"><a xlink:href="class_urho3_d_1_1_network.html#a566fbbabc194a73f96b4dee6a62a3854" target="_top" xlink:title="Construct.">
<polygon fill="white" stroke="#666666" points="136,-91.5 0,-91.5 0,-72.5 136,-72.5 136,-91.5"/>
<text text-anchor="middle" x="68" y="-79.5" font-family="Roboto" font-size="10.00">Urho3D::Network::Network</text>
</a>
</g>
</g>
<!-- Node13&#45;&gt;Node14 -->
<g id="edge13" class="edge">
<title>Node13&#45;&gt;Node14</title>
<path fill="none" stroke="#63b8ff" d="M160.26,-82C152.25,-82 144.21,-82 136.42,-82"/>
<polygon fill="#63b8ff" stroke="#63b8ff" points="160.03,-85.5 170.03,-82 160.03,-78.5 160.03,-85.5"/>
</g>
<!-- Node15&#45;&gt;Node9 -->
<g id="edge15" class="edge">
<title>Node15&#45;&gt;Node9</title>
<path fill="none" stroke="#63b8ff" d="M1100.55,-71.73C1086.01,-73.31 1071.22,-74.92 1057.78,-76.38"/>
<polygon fill="#63b8ff" stroke="#63b8ff" points="1100.52,-75.26 1110.08,-70.7 1099.76,-68.3 1100.52,-75.26"/>
</g>
</g>
</svg>
