<?xml version="1.0" encoding="UTF-8" standalone="no"?>
<!DOCTYPE svg PUBLIC "-//W3C//DTD SVG 1.1//EN"
 "http://www.w3.org/Graphics/SVG/1.1/DTD/svg11.dtd">
<!-- Generated by graphviz version 7.0.3 (0)
 -->
<!-- Title: Urho3D::LineEdit::OnDragBegin Pages: 1 -->
<svg width="699pt" height="112pt"
 viewBox="0.00 0.00 699.00 111.50" xmlns="http://www.w3.org/2000/svg" xmlns:xlink="http://www.w3.org/1999/xlink">
<g id="graph0" class="graph" transform="scale(1 1) rotate(0) translate(4 107.5)">
<title>Urho3D::LineEdit::OnDragBegin</title>
<!-- Node1 -->
<g id="node1" class="node">
<title>Node1</title>
<g id="a_node1"><a xlink:title="React to mouse drag begin.">
<polygon fill="#999999" stroke="#666666" points="126,-54.5 0,-54.5 0,-24.5 126,-24.5 126,-54.5"/>
<text text-anchor="start" x="8" y="-42.5" font-family="Roboto" font-size="10.00">Urho3D::LineEdit::OnDrag</text>
<text text-anchor="middle" x="63" y="-31.5" font-family="Roboto" font-size="10.00">Begin</text>
</a>
</g>
</g>
<!-- Node2 -->
<g id="node2" class="node">
<title>Node2</title>
<g id="a_node2"><a xlink:href="class_urho3_d_1_1_line_edit.html#add16b13ffa1b32a49d7294ea059317d0" target="_top" xlink:title="Return char index corresponding to position within element, or M_MAX_UNSIGNED if not found.">
<polygon fill="white" stroke="#666666" points="292,-81.5 162,-81.5 162,-51.5 292,-51.5 292,-81.5"/>
<text text-anchor="start" x="170" y="-69.5" font-family="Roboto" font-size="10.00">Urho3D::LineEdit::GetChar</text>
<text text-anchor="middle" x="227" y="-58.5" font-family="Roboto" font-size="10.00">Index</text>
</a>
</g>
</g>
<!-- Node1&#45;&gt;Node2 -->
<g id="edge1" class="edge">
<title>Node1&#45;&gt;Node2</title>
<path fill="none" stroke="#63b8ff" d="M126.17,-49.86C134.05,-51.18 142.19,-52.53 150.26,-53.88"/>
<polygon fill="#63b8ff" stroke="#63b8ff" points="149.65,-57.32 160.09,-55.51 150.8,-50.42 149.65,-57.32"/>
</g>
<!-- Node6 -->
<g id="node6" class="node">
<title>Node6</title>
<g id="a_node6"><a xlink:href="class_urho3_d_1_1_u_i_element.html#a0c63c42b67cf6cee49ac02130c664d3f" target="_top" xlink:title="React to mouse drag begin.">
<polygon fill="white" stroke="#666666" points="279.5,-30.5 174.5,-30.5 174.5,-0.5 279.5,-0.5 279.5,-30.5"/>
<text text-anchor="start" x="182.5" y="-18.5" font-family="Roboto" font-size="10.00">Urho3D::UIElement::</text>
<text text-anchor="middle" x="227" y="-7.5" font-family="Roboto" font-size="10.00">OnDragBegin</text>
</a>
</g>
</g>
<!-- Node1&#45;&gt;Node6 -->
<g id="edge7" class="edge">
<title>Node1&#45;&gt;Node6</title>
<path fill="none" stroke="#63b8ff" d="M126.17,-30.29C138.21,-28.51 150.83,-26.64 162.9,-24.85"/>
<polygon fill="#63b8ff" stroke="#63b8ff" points="163.38,-28.32 172.76,-23.39 162.35,-21.39 163.38,-28.32"/>
</g>
<!-- Node3 -->
<g id="node3" class="node">
<title>Node3</title>
<g id="a_node3"><a xlink:href="class_urho3_d_1_1_u_i_element.html#a0ce25dda5f6557938bd76b776efa8bf0" target="_top" xlink:title="Convert element coordinates to screen coordinates.">
<polygon fill="white" stroke="#666666" points="436.5,-85.5 331.5,-85.5 331.5,-55.5 436.5,-55.5 436.5,-85.5"/>
<text text-anchor="start" x="339.5" y="-73.5" font-family="Roboto" font-size="10.00">Urho3D::UIElement::</text>
<text text-anchor="middle" x="384" y="-62.5" font-family="Roboto" font-size="10.00">ElementToScreen</text>
</a>
</g>
</g>
<!-- Node2&#45;&gt;Node3 -->
<g id="edge2" class="edge">
<title>Node2&#45;&gt;Node3</title>
<path fill="none" stroke="#63b8ff" d="M292.39,-68.16C301.51,-68.4 310.88,-68.64 319.98,-68.87"/>
<polygon fill="#63b8ff" stroke="#63b8ff" points="319.72,-72.37 329.8,-69.13 319.9,-65.37 319.72,-72.37"/>
</g>
<!-- Node4 -->
<g id="node4" class="node">
<title>Node4</title>
<g id="a_node4"><a xlink:href="class_urho3_d_1_1_u_i_element.html#a031e2acb1765a940b9427003cb8653d7" target="_top" xlink:title=" ">
<polygon fill="white" stroke="#666666" points="581,-85.5 476,-85.5 476,-55.5 581,-55.5 581,-85.5"/>
<text text-anchor="start" x="484" y="-73.5" font-family="Roboto" font-size="10.00">Urho3D::UIElement::</text>
<text text-anchor="middle" x="528.5" y="-62.5" font-family="Roboto" font-size="10.00">GetScreenPosition</text>
</a>
</g>
</g>
<!-- Node3&#45;&gt;Node4 -->
<g id="edge3" class="edge">
<title>Node3&#45;&gt;Node4</title>
<path fill="none" stroke="#63b8ff" d="M436.85,-70.5C445.9,-70.5 455.41,-70.5 464.71,-70.5"/>
<polygon fill="#63b8ff" stroke="#63b8ff" points="464.41,-74 474.41,-70.5 464.41,-67 464.41,-74"/>
</g>
<!-- Node4&#45;&gt;Node4 -->
<g id="edge4" class="edge">
<title>Node4&#45;&gt;Node4</title>
<path fill="none" stroke="#63b8ff" d="M506.44,-85.78C501.54,-94.91 508.89,-103.5 528.5,-103.5 539.22,-103.5 546.28,-100.93 549.68,-97.11"/>
<polygon fill="#63b8ff" stroke="#63b8ff" points="553.15,-97.53 550.44,-87.28 546.17,-96.98 553.15,-97.53"/>
</g>
<!-- Node5 -->
<g id="node5" class="node">
<title>Node5</title>
<g id="a_node5"><a xlink:href="_math_defs_8h.html#a881de829a2aa2700593840d5a6978046" target="_top" xlink:title=" ">
<polygon fill="white" stroke="#666666" points="691,-80 617,-80 617,-61 691,-61 691,-80"/>
<text text-anchor="middle" x="654" y="-68" font-family="Roboto" font-size="10.00">Urho3D::Lerp</text>
</a>
</g>
</g>
<!-- Node4&#45;&gt;Node5 -->
<g id="edge5" class="edge">
<title>Node4&#45;&gt;Node5</title>
<path fill="none" stroke="#63b8ff" d="M581.16,-70.5C589.15,-70.5 597.38,-70.5 605.28,-70.5"/>
<polygon fill="#63b8ff" stroke="#63b8ff" points="605.05,-74 615.05,-70.5 605.05,-67 605.05,-74"/>
</g>
<!-- Node5&#45;&gt;Node5 -->
<g id="edge6" class="edge">
<title>Node5&#45;&gt;Node5</title>
<path fill="none" stroke="#63b8ff" d="M634.35,-80.37C625.39,-88.94 631.94,-98 654,-98 666.06,-98 673.49,-95.29 676.28,-91.43"/>
<polygon fill="#63b8ff" stroke="#63b8ff" points="679.71,-90.76 674,-81.84 672.9,-92.38 679.71,-90.76"/>
</g>
<!-- Node7 -->
<g id="node7" class="node">
<title>Node7</title>
<g id="a_node7"><a xlink:href="_math_defs_8h.html#a66f1c3f10121770fd4beebe9b463a96f" target="_top" xlink:title="Count the number of set bits in a mask.">
<polygon fill="white" stroke="#666666" points="440,-19 328,-19 328,0 440,0 440,-19"/>
<text text-anchor="middle" x="384" y="-7" font-family="Roboto" font-size="10.00">Urho3D::CountSetBits</text>
</a>
</g>
</g>
<!-- Node6&#45;&gt;Node7 -->
<g id="edge8" class="edge">
<title>Node6&#45;&gt;Node7</title>
<path fill="none" stroke="#63b8ff" d="M279.61,-13.5C291.41,-13.05 304.12,-12.55 316.44,-12.08"/>
<polygon fill="#63b8ff" stroke="#63b8ff" points="316.25,-15.59 326.11,-11.7 315.98,-8.59 316.25,-15.59"/>
</g>
<!-- Node7&#45;&gt;Node7 -->
<g id="edge9" class="edge">
<title>Node7&#45;&gt;Node7</title>
<path fill="none" stroke="#63b8ff" d="M361.38,-19.37C351.06,-27.94 358.6,-37 384,-37 397.89,-37 406.44,-34.29 409.65,-30.43"/>
<polygon fill="#63b8ff" stroke="#63b8ff" points="413.04,-29.55 407.02,-20.83 406.28,-31.4 413.04,-29.55"/>
</g>
</g>
</svg>
