<?xml version="1.0" encoding="UTF-8" standalone="no"?>
<!DOCTYPE svg PUBLIC "-//W3C//DTD SVG 1.1//EN"
 "http://www.w3.org/Graphics/SVG/1.1/DTD/svg11.dtd">
<!-- Generated by graphviz version 7.0.3 (0)
 -->
<!-- Title: Urho3D::XPathQuery::Evaluate Pages: 1 -->
<svg width="261pt" height="134pt"
 viewBox="0.00 0.00 261.00 134.00" xmlns="http://www.w3.org/2000/svg" xmlns:xlink="http://www.w3.org/1999/xlink">
<g id="graph0" class="graph" transform="scale(1 1) rotate(0) translate(4 130)">
<title>Urho3D::XPathQuery::Evaluate</title>
<!-- Node1 -->
<g id="node1" class="node">
<title>Node1</title>
<g id="a_node1"><a xlink:title=" ">
<polygon fill="#999999" stroke="#666666" points="106,-78 0,-78 0,-48 106,-48 106,-78"/>
<text text-anchor="start" x="8" y="-66" font-family="Roboto" font-size="10.00">Urho3D::XPathQuery</text>
<text text-anchor="middle" x="53" y="-55" font-family="Roboto" font-size="10.00">::Evaluate</text>
</a>
</g>
</g>
<!-- Node2 -->
<g id="node2" class="node">
<title>Node2</title>
<g id="a_node2"><a xlink:href="class_urho3_d_1_1_x_m_l_element.html#ac1d05fad1aca64d16270194f7c0dccbb" target="_top" xlink:title=" ">
<polygon fill="white" stroke="#666666" points="253,-126 142,-126 142,-96 253,-96 253,-126"/>
<text text-anchor="start" x="150" y="-114" font-family="Roboto" font-size="10.00">Urho3D::XMLElement</text>
<text text-anchor="middle" x="197.5" y="-103" font-family="Roboto" font-size="10.00">::GetFile</text>
</a>
</g>
</g>
<!-- Node1&#45;&gt;Node2 -->
<g id="edge1" class="edge">
<title>Node1&#45;&gt;Node2</title>
<path fill="none" stroke="#63b8ff" d="M99.87,-78.45C112.71,-82.78 126.82,-87.53 140.19,-92.03"/>
<polygon fill="#63b8ff" stroke="#63b8ff" points="138.69,-95.22 149.28,-95.09 140.92,-88.58 138.69,-95.22"/>
</g>
<!-- Node3 -->
<g id="node3" class="node">
<title>Node3</title>
<g id="a_node3"><a xlink:href="class_urho3_d_1_1_x_m_l_element.html#ab4e492158e638c4736c4cea5140bbe2e" target="_top" xlink:title="Return pugixml xml_node_struct.">
<polygon fill="white" stroke="#666666" points="253,-78 142,-78 142,-48 253,-48 253,-78"/>
<text text-anchor="start" x="150" y="-66" font-family="Roboto" font-size="10.00">Urho3D::XMLElement</text>
<text text-anchor="middle" x="197.5" y="-55" font-family="Roboto" font-size="10.00">::GetNode</text>
</a>
</g>
</g>
<!-- Node1&#45;&gt;Node3 -->
<g id="edge2" class="edge">
<title>Node1&#45;&gt;Node3</title>
<path fill="none" stroke="#63b8ff" d="M106.25,-63C114.14,-63 122.35,-63 130.48,-63"/>
<polygon fill="#63b8ff" stroke="#63b8ff" points="130.35,-66.5 140.35,-63 130.35,-59.5 130.35,-66.5"/>
</g>
<!-- Node4 -->
<g id="node4" class="node">
<title>Node4</title>
<g id="a_node4"><a xlink:href="class_urho3_d_1_1_x_m_l_element.html#af4b207249187cfcb33f5ff47124652ae" target="_top" xlink:title="Return pugixml xpath_node.">
<polygon fill="white" stroke="#666666" points="253,-30 142,-30 142,0 253,0 253,-30"/>
<text text-anchor="start" x="150" y="-18" font-family="Roboto" font-size="10.00">Urho3D::XMLElement</text>
<text text-anchor="middle" x="197.5" y="-7" font-family="Roboto" font-size="10.00">::GetXPathNode</text>
</a>
</g>
</g>
<!-- Node1&#45;&gt;Node4 -->
<g id="edge3" class="edge">
<title>Node1&#45;&gt;Node4</title>
<path fill="none" stroke="#63b8ff" d="M99.87,-47.55C112.71,-43.22 126.82,-38.47 140.19,-33.97"/>
<polygon fill="#63b8ff" stroke="#63b8ff" points="140.92,-37.42 149.28,-30.91 138.69,-30.78 140.92,-37.42"/>
</g>
</g>
</svg>
