<?xml version="1.0" encoding="UTF-8" standalone="no"?>
<!DOCTYPE svg PUBLIC "-//W3C//DTD SVG 1.1//EN"
 "http://www.w3.org/Graphics/SVG/1.1/DTD/svg11.dtd">
<!-- Generated by graphviz version 7.0.3 (0)
 -->
<!-- Title: Urho3D::Drawable::OnSceneSet Pages: 1 -->
<svg width="936pt" height="540pt"
 viewBox="0.00 0.00 936.00 540.00" xmlns="http://www.w3.org/2000/svg" xmlns:xlink="http://www.w3.org/1999/xlink">
<g id="graph0" class="graph" transform="scale(1 1) rotate(0) translate(4 536)">
<title>Urho3D::Drawable::OnSceneSet</title>
<!-- Node1 -->
<g id="node1" class="node">
<title>Node1</title>
<g id="a_node1"><a xlink:title="Handle scene being assigned.">
<polygon fill="#999999" stroke="#666666" points="153,-163 0,-163 0,-144 153,-144 153,-163"/>
<text text-anchor="middle" x="76.5" y="-151" font-family="Roboto" font-size="10.00">Urho3D::Drawable::OnSceneSet</text>
</a>
</g>
</g>
<!-- Node2 -->
<g id="node2" class="node">
<title>Node2</title>
<g id="a_node2"><a xlink:href="class_urho3_d_1_1_drawable.html#adaacb5c93a02cfd9d662b167b0bae813" target="_top" xlink:title="Add to octree.">
<polygon fill="white" stroke="#666666" points="347,-319 189,-319 189,-300 347,-300 347,-319"/>
<text text-anchor="middle" x="268" y="-307" font-family="Roboto" font-size="10.00">Urho3D::Drawable::AddToOctree</text>
</a>
</g>
</g>
<!-- Node1&#45;&gt;Node2 -->
<g id="edge1" class="edge">
<title>Node1&#45;&gt;Node2</title>
<path fill="none" stroke="#63b8ff" d="M89.64,-163.5C121.41,-189.64 207.21,-260.28 246.66,-292.76"/>
<polygon fill="#63b8ff" stroke="#63b8ff" points="244.09,-295.17 254.03,-298.83 248.54,-289.77 244.09,-295.17"/>
</g>
<!-- Node22 -->
<g id="node22" class="node">
<title>Node22</title>
<g id="a_node22"><a xlink:href="class_urho3_d_1_1_drawable.html#a48c3be2aa6cb930b2ce959784d76fdbe" target="_top" xlink:title="Remove from octree.">
<polygon fill="white" stroke="#666666" points="336,-104.5 200,-104.5 200,-74.5 336,-74.5 336,-104.5"/>
<text text-anchor="start" x="208" y="-92.5" font-family="Roboto" font-size="10.00">Urho3D::Drawable::Remove</text>
<text text-anchor="middle" x="268" y="-81.5" font-family="Roboto" font-size="10.00">FromOctree</text>
</a>
</g>
</g>
<!-- Node1&#45;&gt;Node22 -->
<g id="edge24" class="edge">
<title>Node1&#45;&gt;Node22</title>
<path fill="none" stroke="#63b8ff" d="M107.11,-143.5C134.72,-134.17 176.65,-120.01 210.64,-108.53"/>
<polygon fill="#63b8ff" stroke="#63b8ff" points="211.58,-111.91 219.93,-105.4 209.34,-105.28 211.58,-111.91"/>
</g>
<!-- Node3 -->
<g id="node3" class="node">
<title>Node3</title>
<g id="a_node3"><a xlink:href="class_urho3_d_1_1_scene.html#a0c7ddadabfbb191e42b39877ca84cd67" target="_top" xlink:title="Return component from the whole scene by ID, or null if not found.">
<polygon fill="white" stroke="#666666" points="536.5,-493 383.5,-493 383.5,-474 536.5,-474 536.5,-493"/>
<text text-anchor="middle" x="460" y="-481" font-family="Roboto" font-size="10.00">Urho3D::Scene::GetComponent</text>
</a>
</g>
</g>
<!-- Node2&#45;&gt;Node3 -->
<g id="edge2" class="edge">
<title>Node2&#45;&gt;Node3</title>
<path fill="none" stroke="#63b8ff" d="M275.74,-319.5C291.98,-343.06 335.5,-402.96 383,-441.5 396.06,-452.1 412.17,-461.43 426.19,-468.6"/>
<polygon fill="#63b8ff" stroke="#63b8ff" points="424.55,-471.69 435.07,-472.97 427.64,-465.41 424.55,-471.69"/>
</g>
<!-- Node5 -->
<g id="node5" class="node">
<title>Node5</title>
<g id="a_node5"><a xlink:href="class_urho3_d_1_1_component.html#a2c22f727341671a0420934f249ffe059" target="_top" xlink:title="Return the scene the node belongs to.">
<polygon fill="white" stroke="#666666" points="515.5,-432.5 404.5,-432.5 404.5,-402.5 515.5,-402.5 515.5,-432.5"/>
<text text-anchor="start" x="412.5" y="-420.5" font-family="Roboto" font-size="10.00">Urho3D::Component::</text>
<text text-anchor="middle" x="460" y="-409.5" font-family="Roboto" font-size="10.00">GetScene</text>
</a>
</g>
</g>
<!-- Node2&#45;&gt;Node5 -->
<g id="edge4" class="edge">
<title>Node2&#45;&gt;Node5</title>
<path fill="none" stroke="#63b8ff" d="M286.53,-319.47C317.19,-336.89 381.15,-373.25 421.98,-396.46"/>
<polygon fill="#63b8ff" stroke="#63b8ff" points="420.09,-399.41 430.51,-401.31 423.55,-393.32 420.09,-399.41"/>
</g>
<!-- Node7 -->
<g id="node7" class="node">
<title>Node7</title>
<g id="a_node7"><a xlink:href="class_urho3_d_1_1_octant.html#a2065c1ede777a63ec52954ca57a6de45" target="_top" xlink:title="Insert a drawable object by checking for fit recursively.">
<polygon fill="white" stroke="#666666" points="537,-319 383,-319 383,-300 537,-300 537,-319"/>
<text text-anchor="middle" x="460" y="-307" font-family="Roboto" font-size="10.00">Urho3D::Octant::InsertDrawable</text>
</a>
</g>
</g>
<!-- Node2&#45;&gt;Node7 -->
<g id="edge6" class="edge">
<title>Node2&#45;&gt;Node7</title>
<path fill="none" stroke="#63b8ff" d="M347.38,-309.5C355.3,-309.5 363.38,-309.5 371.39,-309.5"/>
<polygon fill="#63b8ff" stroke="#63b8ff" points="371.13,-313 381.13,-309.5 371.13,-306 371.13,-313"/>
</g>
<!-- Node20 -->
<g id="node20" class="node">
<title>Node20</title>
<g id="a_node20"><a xlink:href="class_urho3_d_1_1_component.html#aafa7952d0f225edde3387da0c91a9356" target="_top" xlink:title=" ">
<polygon fill="white" stroke="#666666" points="515.5,-251.5 404.5,-251.5 404.5,-221.5 515.5,-221.5 515.5,-251.5"/>
<text text-anchor="start" x="412.5" y="-239.5" font-family="Roboto" font-size="10.00">Urho3D::Component::</text>
<text text-anchor="middle" x="460" y="-228.5" font-family="Roboto" font-size="10.00">IsEnabledEffective</text>
</a>
</g>
</g>
<!-- Node2&#45;&gt;Node20 -->
<g id="edge22" class="edge">
<title>Node2&#45;&gt;Node20</title>
<path fill="none" stroke="#63b8ff" d="M295.02,-299.5C324.07,-288.34 371.78,-270.01 408.27,-255.99"/>
<polygon fill="#63b8ff" stroke="#63b8ff" points="409.22,-259.37 417.3,-252.52 406.71,-252.84 409.22,-259.37"/>
</g>
<!-- Node4 -->
<g id="node4" class="node">
<title>Node4</title>
<g id="a_node4"><a xlink:href="class_urho3_d_1_1_scene.html#a97fb1222bd2f38e6c1c433c0b7e54d40" target="_top" xlink:title="Return whether the specified id is a replicated id.">
<polygon fill="white" stroke="#666666" points="731.5,-532 581.5,-532 581.5,-513 731.5,-513 731.5,-532"/>
<text text-anchor="middle" x="656.5" y="-520" font-family="Roboto" font-size="10.00">Urho3D::Scene::IsReplicatedID</text>
</a>
</g>
</g>
<!-- Node3&#45;&gt;Node4 -->
<g id="edge3" class="edge">
<title>Node3&#45;&gt;Node4</title>
<path fill="none" stroke="#63b8ff" d="M510.84,-493.49C536.34,-498.61 567.61,-504.88 594.55,-510.28"/>
<polygon fill="#63b8ff" stroke="#63b8ff" points="593.82,-513.7 604.31,-512.24 595.19,-506.84 593.82,-513.7"/>
</g>
<!-- Node6 -->
<g id="node6" class="node">
<title>Node6</title>
<g id="a_node6"><a xlink:href="class_urho3_d_1_1_node.html#ad3742cda838a2b291daa44d3ab00de56" target="_top" xlink:title=" ">
<polygon fill="white" stroke="#666666" points="719.5,-495 593.5,-495 593.5,-476 719.5,-476 719.5,-495"/>
<text text-anchor="middle" x="656.5" y="-483" font-family="Roboto" font-size="10.00">Urho3D::Node::GetScene</text>
</a>
</g>
</g>
<!-- Node5&#45;&gt;Node6 -->
<g id="edge5" class="edge">
<title>Node5&#45;&gt;Node6</title>
<path fill="none" stroke="#63b8ff" d="M490.76,-432.8C512.95,-443.71 544.27,-458.06 573,-467.5 578.83,-469.42 584.96,-471.19 591.14,-472.81"/>
<polygon fill="#63b8ff" stroke="#63b8ff" points="590.24,-476.19 600.78,-475.2 591.92,-469.4 590.24,-476.19"/>
</g>
<!-- Node7&#45;&gt;Node7 -->
<g id="edge17" class="edge">
<title>Node7&#45;&gt;Node7</title>
<path fill="none" stroke="#63b8ff" d="M429.94,-319.37C416.23,-327.94 426.25,-337 460,-337 479.51,-337 491.09,-333.97 494.74,-329.76"/>
<polygon fill="#63b8ff" stroke="#63b8ff" points="497.98,-328.43 490.68,-320.75 491.6,-331.3 497.98,-328.43"/>
</g>
<!-- Node8 -->
<g id="node8" class="node">
<title>Node8</title>
<g id="a_node8"><a xlink:href="class_urho3_d_1_1_octant.html#aa7b2de9f47533029665353d6cc2285fc" target="_top" xlink:title="Add a drawable object to this octant.">
<polygon fill="white" stroke="#666666" points="730,-200 583,-200 583,-181 730,-181 730,-200"/>
<text text-anchor="middle" x="656.5" y="-188" font-family="Roboto" font-size="10.00">Urho3D::Octant::AddDrawable</text>
</a>
</g>
</g>
<!-- Node7&#45;&gt;Node8 -->
<g id="edge7" class="edge">
<title>Node7&#45;&gt;Node8</title>
<path fill="none" stroke="#63b8ff" d="M480.56,-299.64C496.83,-290.82 520,-276.8 537,-260.5 557.03,-241.3 549.96,-224.96 573,-209.5 575.4,-207.89 577.92,-206.41 580.53,-205.06"/>
<polygon fill="#63b8ff" stroke="#63b8ff" points="581.84,-208.3 589.56,-201.05 579,-201.91 581.84,-208.3"/>
</g>
<!-- Node10 -->
<g id="node10" class="node">
<title>Node10</title>
<g id="a_node10"><a xlink:href="class_urho3_d_1_1_bounding_box.html#aeae6990922162d49a54d9360b4c1bd04" target="_top" xlink:title=" ">
<polygon fill="white" stroke="#666666" points="908.5,-425.5 795.5,-425.5 795.5,-395.5 908.5,-395.5 908.5,-425.5"/>
<text text-anchor="start" x="803.5" y="-413.5" font-family="Roboto" font-size="10.00">Urho3D::BoundingBox</text>
<text text-anchor="middle" x="852" y="-402.5" font-family="Roboto" font-size="10.00">::Center</text>
</a>
</g>
</g>
<!-- Node7&#45;&gt;Node10 -->
<g id="edge9" class="edge">
<title>Node7&#45;&gt;Node10</title>
<path fill="none" stroke="#63b8ff" d="M470.35,-319.34C488.27,-337.44 529.54,-375.63 573,-391.5 641.7,-416.58 726.2,-418.67 783.89,-416.17"/>
<polygon fill="#63b8ff" stroke="#63b8ff" points="783.73,-419.68 793.54,-415.69 783.38,-412.69 783.73,-419.68"/>
</g>
<!-- Node11 -->
<g id="node11" class="node">
<title>Node11</title>
<g id="a_node11"><a xlink:href="class_urho3_d_1_1_octant.html#a666ad6843dbf9c4a7d151be1c74911fb" target="_top" xlink:title="Check if a drawable object fits.">
<polygon fill="white" stroke="#666666" points="740,-334 573,-334 573,-315 740,-315 740,-334"/>
<text text-anchor="middle" x="656.5" y="-322" font-family="Roboto" font-size="10.00">Urho3D::Octant::CheckDrawableFit</text>
</a>
</g>
</g>
<!-- Node7&#45;&gt;Node11 -->
<g id="edge10" class="edge">
<title>Node7&#45;&gt;Node11</title>
<path fill="none" stroke="#63b8ff" d="M537.31,-315.39C545.2,-315.99 553.28,-316.62 561.32,-317.24"/>
<polygon fill="#63b8ff" stroke="#63b8ff" points="560.91,-320.72 571.15,-318 561.45,-313.74 560.91,-320.72"/>
</g>
<!-- Node14 -->
<g id="node14" class="node">
<title>Node14</title>
<g id="a_node14"><a xlink:href="class_urho3_d_1_1_octant.html#af6b16c407e941cff6bf54e509abf25a8" target="_top" xlink:title="Return or create a child octant.">
<polygon fill="white" stroke="#666666" points="727.5,-382.5 585.5,-382.5 585.5,-352.5 727.5,-352.5 727.5,-382.5"/>
<text text-anchor="start" x="593.5" y="-370.5" font-family="Roboto" font-size="10.00">Urho3D::Octant::GetOrCreate</text>
<text text-anchor="middle" x="656.5" y="-359.5" font-family="Roboto" font-size="10.00">Child</text>
</a>
</g>
</g>
<!-- Node7&#45;&gt;Node14 -->
<g id="edge13" class="edge">
<title>Node7&#45;&gt;Node14</title>
<path fill="none" stroke="#63b8ff" d="M493.32,-319.42C515.67,-326.25 546.12,-335.51 573,-343.5 578.9,-345.25 585.04,-347.06 591.19,-348.87"/>
<polygon fill="#63b8ff" stroke="#63b8ff" points="590.18,-352.22 600.77,-351.67 592.15,-345.5 590.18,-352.22"/>
</g>
<!-- Node15 -->
<g id="node15" class="node">
<title>Node15</title>
<g id="a_node15"><a xlink:href="class_urho3_d_1_1_drawable.html#a3930dc9342c0aefcfd4c94eb8079e365" target="_top" xlink:title=" ">
<polygon fill="white" stroke="#666666" points="727.5,-296.5 585.5,-296.5 585.5,-266.5 727.5,-266.5 727.5,-296.5"/>
<text text-anchor="start" x="593.5" y="-284.5" font-family="Roboto" font-size="10.00">Urho3D::Drawable::GetWorld</text>
<text text-anchor="middle" x="656.5" y="-273.5" font-family="Roboto" font-size="10.00">BoundingBox</text>
</a>
</g>
</g>
<!-- Node7&#45;&gt;Node15 -->
<g id="edge15" class="edge">
<title>Node7&#45;&gt;Node15</title>
<path fill="none" stroke="#63b8ff" d="M530.4,-299.51C544.57,-297.47 559.6,-295.31 574.14,-293.21"/>
<polygon fill="#63b8ff" stroke="#63b8ff" points="574.25,-296.73 583.65,-291.84 573.25,-289.8 574.25,-296.73"/>
</g>
<!-- Node17 -->
<g id="node17" class="node">
<title>Node17</title>
<g id="a_node17"><a xlink:href="class_urho3_d_1_1_bounding_box.html#a03f691b8e5e7e0a83758321c89ac7e40" target="_top" xlink:title="Test if a point is inside.">
<polygon fill="white" stroke="#666666" points="713,-248.5 600,-248.5 600,-218.5 713,-218.5 713,-248.5"/>
<text text-anchor="start" x="608" y="-236.5" font-family="Roboto" font-size="10.00">Urho3D::BoundingBox</text>
<text text-anchor="middle" x="656.5" y="-225.5" font-family="Roboto" font-size="10.00">::IsInside</text>
</a>
</g>
</g>
<!-- Node7&#45;&gt;Node17 -->
<g id="edge18" class="edge">
<title>Node7&#45;&gt;Node17</title>
<path fill="none" stroke="#63b8ff" d="M480.04,-299.57C502.03,-288.37 539.48,-270.07 573,-257.5 578.19,-255.55 583.61,-253.66 589.09,-251.86"/>
<polygon fill="#63b8ff" stroke="#63b8ff" points="589.74,-255.33 598.21,-248.96 587.62,-248.66 589.74,-255.33"/>
</g>
<!-- Node18 -->
<g id="node18" class="node">
<title>Node18</title>
<g id="a_node18"><a xlink:href="class_urho3_d_1_1_drawable.html#aabd4960e08a707a45f9720fcb30dfa39" target="_top" xlink:title=" ">
<polygon fill="white" stroke="#666666" points="731,-458 582,-458 582,-439 731,-439 731,-458"/>
<text text-anchor="middle" x="656.5" y="-446" font-family="Roboto" font-size="10.00">Urho3D::Drawable::IsOccludee</text>
</a>
</g>
</g>
<!-- Node7&#45;&gt;Node18 -->
<g id="edge19" class="edge">
<title>Node7&#45;&gt;Node18</title>
<path fill="none" stroke="#63b8ff" d="M469.33,-319.26C490.86,-344.26 548.39,-409.72 573,-424.5 579.78,-428.57 587.29,-431.99 594.94,-434.84"/>
<polygon fill="#63b8ff" stroke="#63b8ff" points="593.75,-438.13 604.34,-438.03 596,-431.5 593.75,-438.13"/>
</g>
<!-- Node19 -->
<g id="node19" class="node">
<title>Node19</title>
<g id="a_node19"><a xlink:href="class_urho3_d_1_1_octant.html#a74b7ecc1123df089ec72bcee7067db80" target="_top" xlink:title="Remove a drawable object from this octant.">
<polygon fill="white" stroke="#666666" points="738.5,-126 574.5,-126 574.5,-107 738.5,-107 738.5,-126"/>
<text text-anchor="middle" x="656.5" y="-114" font-family="Roboto" font-size="10.00">Urho3D::Octant::RemoveDrawable</text>
</a>
</g>
</g>
<!-- Node7&#45;&gt;Node19 -->
<g id="edge20" class="edge">
<title>Node7&#45;&gt;Node19</title>
<path fill="none" stroke="#63b8ff" d="M484.89,-299.66C501.79,-291.52 523.72,-278.4 537,-260.5 571.7,-213.72 530.53,-174.35 573,-134.5 573.64,-133.9 574.3,-133.31 574.97,-132.75"/>
<polygon fill="#63b8ff" stroke="#63b8ff" points="576.84,-135.71 583.15,-127.2 572.91,-129.92 576.84,-135.71"/>
</g>
<!-- Node9 -->
<g id="node9" class="node">
<title>Node9</title>
<g id="a_node9"><a xlink:href="class_urho3_d_1_1_drawable.html#a3c746486b469ad2c987eaa2faca73afd" target="_top" xlink:title="Move into another octree octant.">
<polygon fill="white" stroke="#666666" points="923.5,-163 780.5,-163 780.5,-144 923.5,-144 923.5,-163"/>
<text text-anchor="middle" x="852" y="-151" font-family="Roboto" font-size="10.00">Urho3D::Drawable::SetOctant</text>
</a>
</g>
</g>
<!-- Node8&#45;&gt;Node9 -->
<g id="edge8" class="edge">
<title>Node8&#45;&gt;Node9</title>
<path fill="none" stroke="#63b8ff" d="M709.61,-180.54C733.69,-175.93 762.5,-170.42 787.82,-165.58"/>
<polygon fill="#63b8ff" stroke="#63b8ff" points="788.15,-169.08 797.31,-163.77 786.83,-162.21 788.15,-169.08"/>
</g>
<!-- Node12 -->
<g id="node12" class="node">
<title>Node12</title>
<g id="a_node12"><a xlink:href="class_urho3_d_1_1_octree.html#a6415464f2b93a8c9a89081cb0281b893" target="_top" xlink:title=" ">
<polygon fill="white" stroke="#666666" points="928,-329 776,-329 776,-310 928,-310 928,-329"/>
<text text-anchor="middle" x="852" y="-317" font-family="Roboto" font-size="10.00">Urho3D::Octree::GetNumLevels</text>
</a>
</g>
</g>
<!-- Node11&#45;&gt;Node12 -->
<g id="edge11" class="edge">
<title>Node11&#45;&gt;Node12</title>
<path fill="none" stroke="#63b8ff" d="M740.4,-322.36C748.26,-322.15 756.24,-321.95 764.13,-321.74"/>
<polygon fill="#63b8ff" stroke="#63b8ff" points="764.19,-325.24 774.1,-321.49 764.01,-318.25 764.19,-325.24"/>
</g>
<!-- Node13 -->
<g id="node13" class="node">
<title>Node13</title>
<g id="a_node13"><a xlink:href="class_urho3_d_1_1_bounding_box.html#acb679ba521af393be790d1b8ae64fdf5" target="_top" xlink:title=" ">
<polygon fill="white" stroke="#666666" points="908.5,-377.5 795.5,-377.5 795.5,-347.5 908.5,-347.5 908.5,-377.5"/>
<text text-anchor="start" x="803.5" y="-365.5" font-family="Roboto" font-size="10.00">Urho3D::BoundingBox</text>
<text text-anchor="middle" x="852" y="-354.5" font-family="Roboto" font-size="10.00">::Size</text>
</a>
</g>
</g>
<!-- Node11&#45;&gt;Node13 -->
<g id="edge12" class="edge">
<title>Node11&#45;&gt;Node13</title>
<path fill="none" stroke="#63b8ff" d="M708.34,-334.48C731.45,-339.02 759.11,-344.45 783.9,-349.32"/>
<polygon fill="#63b8ff" stroke="#63b8ff" points="783.08,-352.73 793.57,-351.22 784.43,-345.86 783.08,-352.73"/>
</g>
<!-- Node14&#45;&gt;Node10 -->
<g id="edge14" class="edge">
<title>Node14&#45;&gt;Node10</title>
<path fill="none" stroke="#63b8ff" d="M727.08,-382.96C745.57,-387.07 765.49,-391.5 783.84,-395.58"/>
<polygon fill="#63b8ff" stroke="#63b8ff" points="783.04,-398.98 793.56,-397.74 784.56,-392.15 783.04,-398.98"/>
</g>
<!-- Node16 -->
<g id="node16" class="node">
<title>Node16</title>
<g id="a_node16"><a xlink:href="class_urho3_d_1_1_drawable.html#af146747caaf6fd85ab71fda4e364bde4" target="_top" xlink:title="Recalculate the world&#45;space bounding box.">
<polygon fill="white" stroke="#666666" points="921.5,-291.5 782.5,-291.5 782.5,-261.5 921.5,-261.5 921.5,-291.5"/>
<text text-anchor="start" x="790.5" y="-279.5" font-family="Roboto" font-size="10.00">Urho3D::Drawable::OnWorld</text>
<text text-anchor="middle" x="852" y="-268.5" font-family="Roboto" font-size="10.00">BoundingBoxUpdate</text>
</a>
</g>
</g>
<!-- Node15&#45;&gt;Node16 -->
<g id="edge16" class="edge">
<title>Node15&#45;&gt;Node16</title>
<path fill="none" stroke="#63b8ff" d="M727.91,-279.68C741.89,-279.32 756.67,-278.94 770.95,-278.57"/>
<polygon fill="#63b8ff" stroke="#63b8ff" points="770.84,-282.07 780.75,-278.32 770.66,-275.07 770.84,-282.07"/>
</g>
<!-- Node19&#45;&gt;Node9 -->
<g id="edge21" class="edge">
<title>Node19&#45;&gt;Node9</title>
<path fill="none" stroke="#63b8ff" d="M709.61,-126.46C733.69,-131.07 762.5,-136.58 787.82,-141.42"/>
<polygon fill="#63b8ff" stroke="#63b8ff" points="786.83,-144.79 797.31,-143.23 788.15,-137.92 786.83,-144.79"/>
</g>
<!-- Node21 -->
<g id="node21" class="node">
<title>Node21</title>
<g id="a_node21"><a xlink:href="class_urho3_d_1_1_node.html#a36ffa108037ab29617bf178fcb4ec1da" target="_top" xlink:title=" ">
<polygon fill="white" stroke="#666666" points="720.5,-163 592.5,-163 592.5,-144 720.5,-144 720.5,-163"/>
<text text-anchor="middle" x="656.5" y="-151" font-family="Roboto" font-size="10.00">Urho3D::Node::IsEnabled</text>
</a>
</g>
</g>
<!-- Node20&#45;&gt;Node21 -->
<g id="edge23" class="edge">
<title>Node20&#45;&gt;Node21</title>
<path fill="none" stroke="#63b8ff" d="M483.19,-221.21C505.11,-206.74 540.05,-185.39 573,-172.5 578.73,-170.26 584.8,-168.24 590.93,-166.44"/>
<polygon fill="#63b8ff" stroke="#63b8ff" points="591.81,-169.83 600.53,-163.81 589.96,-163.07 591.81,-169.83"/>
</g>
<!-- Node22&#45;&gt;Node19 -->
<g id="edge28" class="edge">
<title>Node22&#45;&gt;Node19</title>
<path fill="none" stroke="#63b8ff" d="M331.66,-105C348.25,-108.47 366.21,-111.66 383,-113.5 442.59,-120.04 509.94,-120.84 562.78,-119.98"/>
<polygon fill="#63b8ff" stroke="#63b8ff" points="562.72,-123.48 572.66,-119.79 562.59,-116.48 562.72,-123.48"/>
</g>
<!-- Node23 -->
<g id="node23" class="node">
<title>Node23</title>
<g id="a_node23"><a xlink:href="class_urho3_d_1_1_octree.html#a0081cb34eb914aa9e87fb5f5630c048e" target="_top" xlink:title="Cancel drawable object&#39;s update.">
<polygon fill="white" stroke="#666666" points="534.5,-56 385.5,-56 385.5,-37 534.5,-37 534.5,-56"/>
<text text-anchor="middle" x="460" y="-44" font-family="Roboto" font-size="10.00">Urho3D::Octree::CancelUpdate</text>
</a>
</g>
</g>
<!-- Node22&#45;&gt;Node23 -->
<g id="edge25" class="edge">
<title>Node22&#45;&gt;Node23</title>
<path fill="none" stroke="#63b8ff" d="M336.25,-74.28C358.42,-69.26 382.8,-63.74 403.95,-58.96"/>
<polygon fill="#63b8ff" stroke="#63b8ff" points="404.55,-62.41 413.54,-56.79 403.01,-55.58 404.55,-62.41"/>
</g>
<!-- Node24 -->
<g id="node24" class="node">
<title>Node24</title>
<g id="a_node24"><a xlink:href="class_urho3_d_1_1_octant.html#a7c998cf647fa3ba6fc98d05a9a04dc9d" target="_top" xlink:title="Return octree root.">
<polygon fill="white" stroke="#666666" points="522,-19 398,-19 398,0 522,0 522,-19"/>
<text text-anchor="middle" x="460" y="-7" font-family="Roboto" font-size="10.00">Urho3D::Octant::GetRoot</text>
</a>
</g>
</g>
<!-- Node22&#45;&gt;Node24 -->
<g id="edge26" class="edge">
<title>Node22&#45;&gt;Node24</title>
<path fill="none" stroke="#63b8ff" d="M292.57,-74.26C315.02,-60.33 350.17,-40.06 383,-27.5 387.69,-25.71 392.6,-24.06 397.59,-22.55"/>
<polygon fill="#63b8ff" stroke="#63b8ff" points="398.42,-25.95 407.1,-19.87 396.52,-19.21 398.42,-25.95"/>
</g>
<!-- Node25 -->
<g id="node25" class="node">
<title>Node25</title>
<g id="a_node25"><a xlink:href="class_urho3_d_1_1_drawable.html#a2ab23fcc436cde69fe74bfefa4ead968" target="_top" xlink:title="Handle removal from octree.">
<polygon fill="white" stroke="#666666" points="534,-104.5 386,-104.5 386,-74.5 534,-74.5 534,-104.5"/>
<text text-anchor="start" x="394" y="-92.5" font-family="Roboto" font-size="10.00">Urho3D::Drawable::OnRemove</text>
<text text-anchor="middle" x="460" y="-81.5" font-family="Roboto" font-size="10.00">FromOctree</text>
</a>
</g>
</g>
<!-- Node22&#45;&gt;Node25 -->
<g id="edge27" class="edge">
<title>Node22&#45;&gt;Node25</title>
<path fill="none" stroke="#63b8ff" d="M336.25,-89.5C348.64,-89.5 361.71,-89.5 374.53,-89.5"/>
<polygon fill="#63b8ff" stroke="#63b8ff" points="374.19,-93 384.19,-89.5 374.19,-86 374.19,-93"/>
</g>
</g>
</svg>
