<?xml version="1.0" encoding="UTF-8" standalone="no"?>
<!DOCTYPE svg PUBLIC "-//W3C//DTD SVG 1.1//EN"
 "http://www.w3.org/Graphics/SVG/1.1/DTD/svg11.dtd">
<!-- Generated by graphviz version 7.0.3 (0)
 -->
<!-- Title: Urho3D::DebugRenderer::RegisterObject Pages: 1 -->
<svg width="818pt" height="200pt"
 viewBox="0.00 0.00 818.00 200.00" xmlns="http://www.w3.org/2000/svg" xmlns:xlink="http://www.w3.org/1999/xlink">
<g id="graph0" class="graph" transform="scale(1 1) rotate(0) translate(4 196)">
<title>Urho3D::DebugRenderer::RegisterObject</title>
<!-- Node1 -->
<g id="node1" class="node">
<title>Node1</title>
<g id="a_node1"><a xlink:title=" ">
<polygon fill="#999999" stroke="#666666" points="122,-144 0,-144 0,-114 122,-114 122,-144"/>
<text text-anchor="start" x="8" y="-132" font-family="Roboto" font-size="10.00">Urho3D::DebugRenderer</text>
<text text-anchor="middle" x="61" y="-121" font-family="Roboto" font-size="10.00">::RegisterObject</text>
</a>
</g>
</g>
<!-- Node2 -->
<g id="node2" class="node">
<title>Node2</title>
<g id="a_node2"><a xlink:href="class_urho3_d_1_1_debug_renderer.html#a0dd763571b7960d3be0fe6cc4633ecae" target="_top" xlink:title=" ">
<polygon fill="white" stroke="#666666" points="284,-192 162,-192 162,-162 284,-162 284,-192"/>
<text text-anchor="start" x="170" y="-180" font-family="Roboto" font-size="10.00">Urho3D::DebugRenderer</text>
<text text-anchor="middle" x="223" y="-169" font-family="Roboto" font-size="10.00">::GetLineAntiAlias</text>
</a>
</g>
</g>
<!-- Node1&#45;&gt;Node2 -->
<g id="edge1" class="edge">
<title>Node1&#45;&gt;Node2</title>
<path fill="none" stroke="#63b8ff" d="M113.51,-144.45C128.21,-148.86 144.39,-153.72 159.66,-158.3"/>
<polygon fill="#63b8ff" stroke="#63b8ff" points="158.56,-161.62 169.14,-161.14 160.57,-154.92 158.56,-161.62"/>
</g>
<!-- Node3 -->
<g id="node3" class="node">
<title>Node3</title>
<g id="a_node3"><a xlink:href="class_urho3_d_1_1_context.html#aa9b2cffef8d52fa18bfe533a2615a598" target="_top" xlink:title="Register a factory for an object type.">
<polygon fill="white" stroke="#666666" points="288,-144 158,-144 158,-114 288,-114 288,-144"/>
<text text-anchor="start" x="166" y="-132" font-family="Roboto" font-size="10.00">Urho3D::Context::Register</text>
<text text-anchor="middle" x="223" y="-121" font-family="Roboto" font-size="10.00">Factory</text>
</a>
</g>
</g>
<!-- Node1&#45;&gt;Node3 -->
<g id="edge2" class="edge">
<title>Node1&#45;&gt;Node3</title>
<path fill="none" stroke="#63b8ff" d="M122.49,-129C130.31,-129 138.39,-129 146.42,-129"/>
<polygon fill="#63b8ff" stroke="#63b8ff" points="146.18,-132.5 156.18,-129 146.18,-125.5 146.18,-132.5"/>
</g>
<!-- Node5 -->
<g id="node5" class="node">
<title>Node5</title>
<g id="a_node5"><a xlink:href="class_urho3_d_1_1_debug_renderer.html#a4c06af764a0e442062e6c4466037f6b2" target="_top" xlink:title=" ">
<polygon fill="white" stroke="#666666" points="284,-96 162,-96 162,-66 284,-66 284,-96"/>
<text text-anchor="start" x="170" y="-84" font-family="Roboto" font-size="10.00">Urho3D::DebugRenderer</text>
<text text-anchor="middle" x="223" y="-73" font-family="Roboto" font-size="10.00">::SetLineAntiAlias</text>
</a>
</g>
</g>
<!-- Node1&#45;&gt;Node5 -->
<g id="edge4" class="edge">
<title>Node1&#45;&gt;Node5</title>
<path fill="none" stroke="#63b8ff" d="M113.51,-113.55C128.21,-109.14 144.39,-104.28 159.66,-99.7"/>
<polygon fill="#63b8ff" stroke="#63b8ff" points="160.57,-103.08 169.14,-96.86 158.56,-96.38 160.57,-103.08"/>
</g>
<!-- Node4 -->
<g id="node4" class="node">
<title>Node4</title>
<g id="a_node4"><a xlink:href="class_urho3_d_1_1_object_factory.html#a191ee9fd0ce7c127dfd92b2b9ae47709" target="_top" xlink:title="Return type hash of objects created by this factory.">
<polygon fill="white" stroke="#666666" points="440,-144 324,-144 324,-114 440,-114 440,-144"/>
<text text-anchor="start" x="332" y="-132" font-family="Roboto" font-size="10.00">Urho3D::ObjectFactory</text>
<text text-anchor="middle" x="382" y="-121" font-family="Roboto" font-size="10.00">::GetType</text>
</a>
</g>
</g>
<!-- Node3&#45;&gt;Node4 -->
<g id="edge3" class="edge">
<title>Node3&#45;&gt;Node4</title>
<path fill="none" stroke="#63b8ff" d="M288.31,-129C296.16,-129 304.21,-129 312.13,-129"/>
<polygon fill="#63b8ff" stroke="#63b8ff" points="312.08,-132.5 322.08,-129 312.08,-125.5 312.08,-132.5"/>
</g>
<!-- Node6 -->
<g id="node6" class="node">
<title>Node6</title>
<g id="a_node6"><a xlink:href="class_urho3_d_1_1_component.html#aaf87acb64001774c62f0784254f9b291" target="_top" xlink:title="Mark for attribute check on the next network update.">
<polygon fill="white" stroke="#666666" points="437.5,-96 326.5,-96 326.5,-66 437.5,-66 437.5,-96"/>
<text text-anchor="start" x="334.5" y="-84" font-family="Roboto" font-size="10.00">Urho3D::Component::</text>
<text text-anchor="middle" x="382" y="-73" font-family="Roboto" font-size="10.00">MarkNetworkUpdate</text>
</a>
</g>
</g>
<!-- Node5&#45;&gt;Node6 -->
<g id="edge5" class="edge">
<title>Node5&#45;&gt;Node6</title>
<path fill="none" stroke="#63b8ff" d="M284.25,-81C294.24,-81 304.65,-81 314.78,-81"/>
<polygon fill="#63b8ff" stroke="#63b8ff" points="314.54,-84.5 324.54,-81 314.54,-77.5 314.54,-84.5"/>
</g>
<!-- Node7 -->
<g id="node7" class="node">
<title>Node7</title>
<g id="a_node7"><a xlink:href="class_urho3_d_1_1_component.html#a2c22f727341671a0420934f249ffe059" target="_top" xlink:title="Return the scene the node belongs to.">
<polygon fill="white" stroke="#666666" points="605.5,-144 494.5,-144 494.5,-114 605.5,-114 605.5,-144"/>
<text text-anchor="start" x="502.5" y="-132" font-family="Roboto" font-size="10.00">Urho3D::Component::</text>
<text text-anchor="middle" x="550" y="-121" font-family="Roboto" font-size="10.00">GetScene</text>
</a>
</g>
</g>
<!-- Node6&#45;&gt;Node7 -->
<g id="edge6" class="edge">
<title>Node6&#45;&gt;Node7</title>
<path fill="none" stroke="#63b8ff" d="M436.44,-96.45C451.84,-100.91 468.8,-105.81 484.79,-110.43"/>
<polygon fill="#63b8ff" stroke="#63b8ff" points="483.63,-113.74 494.21,-113.16 485.57,-107.02 483.63,-113.74"/>
</g>
<!-- Node9 -->
<g id="node9" class="node">
<title>Node9</title>
<g id="a_node9"><a xlink:href="class_urho3_d_1_1_component.html#a8f1388c232ca01b7c7328c761aae6e76" target="_top" xlink:title=" ">
<polygon fill="white" stroke="#666666" points="605.5,-96 494.5,-96 494.5,-66 605.5,-66 605.5,-96"/>
<text text-anchor="start" x="502.5" y="-84" font-family="Roboto" font-size="10.00">Urho3D::Component::</text>
<text text-anchor="middle" x="550" y="-73" font-family="Roboto" font-size="10.00">IsReplicated</text>
</a>
</g>
</g>
<!-- Node6&#45;&gt;Node9 -->
<g id="edge8" class="edge">
<title>Node6&#45;&gt;Node9</title>
<path fill="none" stroke="#63b8ff" d="M437.81,-81C452.26,-81 468.01,-81 482.98,-81"/>
<polygon fill="#63b8ff" stroke="#63b8ff" points="482.73,-84.5 492.73,-81 482.73,-77.5 482.73,-84.5"/>
</g>
<!-- Node11 -->
<g id="node11" class="node">
<title>Node11</title>
<g id="a_node11"><a xlink:href="class_urho3_d_1_1_scene.html#a00b724dfff718639b9de12d71139499c" target="_top" xlink:title="Mark for attribute check on the next network update.">
<polygon fill="white" stroke="#666666" points="624,-30 476,-30 476,0 624,0 624,-30"/>
<text text-anchor="start" x="484" y="-18" font-family="Roboto" font-size="10.00">Urho3D::Scene::MarkNetwork</text>
<text text-anchor="middle" x="550" y="-7" font-family="Roboto" font-size="10.00">Update</text>
</a>
</g>
</g>
<!-- Node6&#45;&gt;Node11 -->
<g id="edge10" class="edge">
<title>Node6&#45;&gt;Node11</title>
<path fill="none" stroke="#63b8ff" d="M421.92,-65.53C445.04,-56.33 474.6,-44.58 499.38,-34.73"/>
<polygon fill="#63b8ff" stroke="#63b8ff" points="500.63,-38 508.63,-31.05 498.04,-31.49 500.63,-38"/>
</g>
<!-- Node8 -->
<g id="node8" class="node">
<title>Node8</title>
<g id="a_node8"><a xlink:href="class_urho3_d_1_1_node.html#ad3742cda838a2b291daa44d3ab00de56" target="_top" xlink:title=" ">
<polygon fill="white" stroke="#666666" points="798,-138.5 672,-138.5 672,-119.5 798,-119.5 798,-138.5"/>
<text text-anchor="middle" x="735" y="-126.5" font-family="Roboto" font-size="10.00">Urho3D::Node::GetScene</text>
</a>
</g>
</g>
<!-- Node7&#45;&gt;Node8 -->
<g id="edge7" class="edge">
<title>Node7&#45;&gt;Node8</title>
<path fill="none" stroke="#63b8ff" d="M605.91,-129C623,-129 642.14,-129 660.3,-129"/>
<polygon fill="#63b8ff" stroke="#63b8ff" points="660.24,-132.5 670.24,-129 660.24,-125.5 660.24,-132.5"/>
</g>
<!-- Node10 -->
<g id="node10" class="node">
<title>Node10</title>
<g id="a_node10"><a xlink:href="class_urho3_d_1_1_scene.html#a97fb1222bd2f38e6c1c433c0b7e54d40" target="_top" xlink:title="Return whether the specified id is a replicated id.">
<polygon fill="white" stroke="#666666" points="810,-90.5 660,-90.5 660,-71.5 810,-71.5 810,-90.5"/>
<text text-anchor="middle" x="735" y="-78.5" font-family="Roboto" font-size="10.00">Urho3D::Scene::IsReplicatedID</text>
</a>
</g>
</g>
<!-- Node9&#45;&gt;Node10 -->
<g id="edge9" class="edge">
<title>Node9&#45;&gt;Node10</title>
<path fill="none" stroke="#63b8ff" d="M605.91,-81C619.2,-81 633.72,-81 648.07,-81"/>
<polygon fill="#63b8ff" stroke="#63b8ff" points="647.99,-84.5 657.99,-81 647.99,-77.5 647.99,-84.5"/>
</g>
<!-- Node11&#45;&gt;Node11 -->
<g id="edge11" class="edge">
<title>Node11&#45;&gt;Node11</title>
<path fill="none" stroke="#63b8ff" d="M520.47,-30.28C513.91,-39.41 523.75,-48 550,-48 564.36,-48 573.8,-45.43 578.35,-41.61"/>
<polygon fill="#63b8ff" stroke="#63b8ff" points="581.81,-42.09 579.37,-31.78 574.85,-41.36 581.81,-42.09"/>
</g>
</g>
</svg>
