<?xml version="1.0" encoding="UTF-8" standalone="no"?>
<!DOCTYPE svg PUBLIC "-//W3C//DTD SVG 1.1//EN"
 "http://www.w3.org/Graphics/SVG/1.1/DTD/svg11.dtd">
<!-- Generated by graphviz version 7.0.3 (0)
 -->
<!-- Title: Urho3D::Variant::IsZero Pages: 1 -->
<svg width="460pt" height="321pt"
 viewBox="0.00 0.00 460.00 320.50" xmlns="http://www.w3.org/2000/svg" xmlns:xlink="http://www.w3.org/1999/xlink">
<g id="graph0" class="graph" transform="scale(1 1) rotate(0) translate(4 316.5)">
<title>Urho3D::Variant::IsZero</title>
<!-- Node1 -->
<g id="node1" class="node">
<title>Node1</title>
<g id="a_node1"><a xlink:title=" ">
<polygon fill="#999999" stroke="#666666" points="119,-179.5 0,-179.5 0,-160.5 119,-160.5 119,-179.5"/>
<text text-anchor="middle" x="59.5" y="-167.5" font-family="Roboto" font-size="10.00">Urho3D::Variant::IsZero</text>
</a>
</g>
</g>
<!-- Node2 -->
<g id="node2" class="node">
<title>Node2</title>
<g id="a_node2"><a xlink:href="class_urho3_d_1_1_vector.html#aa20f23bae4cf1d7cda06f6c3b47c7504" target="_top" xlink:title="Return iterator to the beginning.">
<polygon fill="white" stroke="#666666" points="284,-312.5 171,-312.5 171,-293.5 284,-293.5 284,-312.5"/>
<text text-anchor="middle" x="227.5" y="-300.5" font-family="Roboto" font-size="10.00">Urho3D::Vector::Begin</text>
</a>
</g>
</g>
<!-- Node1&#45;&gt;Node2 -->
<g id="edge1" class="edge">
<title>Node1&#45;&gt;Node2</title>
<path fill="none" stroke="#63b8ff" d="M65.64,-179.79C77.89,-202.16 111.12,-257.2 155,-285 156.99,-286.26 159.05,-287.43 161.18,-288.52"/>
<polygon fill="#63b8ff" stroke="#63b8ff" points="159.56,-291.62 170.12,-292.43 162.36,-285.21 159.56,-291.62"/>
</g>
<!-- Node4 -->
<g id="node4" class="node">
<title>Node4</title>
<g id="a_node4"><a xlink:href="class_urho3_d_1_1_hash_base.html#acca34b209bda6149251edbb5a548ccc6" target="_top" xlink:title="Return whether has no elements.">
<polygon fill="white" stroke="#666666" points="293.5,-275.5 161.5,-275.5 161.5,-256.5 293.5,-256.5 293.5,-275.5"/>
<text text-anchor="middle" x="227.5" y="-263.5" font-family="Roboto" font-size="10.00">Urho3D::HashBase::Empty</text>
</a>
</g>
</g>
<!-- Node1&#45;&gt;Node4 -->
<g id="edge3" class="edge">
<title>Node1&#45;&gt;Node4</title>
<path fill="none" stroke="#63b8ff" d="M69.41,-179.77C85.08,-196.34 119.31,-229.95 155,-248 158.04,-249.54 161.23,-250.95 164.49,-252.25"/>
<polygon fill="#63b8ff" stroke="#63b8ff" points="163.08,-255.46 173.67,-255.51 165.42,-248.87 163.08,-255.46"/>
</g>
<!-- Node5 -->
<g id="node5" class="node">
<title>Node5</title>
<g id="a_node5"><a xlink:href="class_urho3_d_1_1_string.html#a8413f000551027cd127996e3c5b00185" target="_top" xlink:title=" ">
<polygon fill="white" stroke="#666666" points="284,-238.5 171,-238.5 171,-219.5 284,-219.5 284,-238.5"/>
<text text-anchor="middle" x="227.5" y="-226.5" font-family="Roboto" font-size="10.00">Urho3D::String::Empty</text>
</a>
</g>
</g>
<!-- Node1&#45;&gt;Node5 -->
<g id="edge4" class="edge">
<title>Node1&#45;&gt;Node5</title>
<path fill="none" stroke="#63b8ff" d="M80.77,-179.94C99.65,-188.92 128.76,-202.07 155,-211 160.32,-212.81 165.91,-214.53 171.53,-216.13"/>
<polygon fill="#63b8ff" stroke="#63b8ff" points="170.28,-219.42 180.85,-218.67 172.12,-212.66 170.28,-219.42"/>
</g>
<!-- Node6 -->
<g id="node6" class="node">
<title>Node6</title>
<g id="a_node6"><a xlink:href="class_urho3_d_1_1_vector.html#a83b3a48f0d5d0aae79aa6b6304cde595" target="_top" xlink:title="Return whether vector is empty.">
<polygon fill="white" stroke="#666666" points="285.5,-201.5 169.5,-201.5 169.5,-182.5 285.5,-182.5 285.5,-201.5"/>
<text text-anchor="middle" x="227.5" y="-189.5" font-family="Roboto" font-size="10.00">Urho3D::Vector::Empty</text>
</a>
</g>
</g>
<!-- Node1&#45;&gt;Node6 -->
<g id="edge5" class="edge">
<title>Node1&#45;&gt;Node6</title>
<path fill="none" stroke="#63b8ff" d="M119.49,-177.82C131.96,-179.47 145.22,-181.23 158.01,-182.92"/>
<polygon fill="#63b8ff" stroke="#63b8ff" points="157.22,-186.35 167.59,-184.19 158.14,-179.41 157.22,-186.35"/>
</g>
<!-- Node7 -->
<g id="node7" class="node">
<title>Node7</title>
<g id="a_node7"><a xlink:href="class_urho3_d_1_1_p_o_d_vector.html#a5be72d35fc52d2623985f20b95855d10" target="_top" xlink:title="Return whether vector is empty.">
<polygon fill="white" stroke="#666666" points="281.5,-164 173.5,-164 173.5,-134 281.5,-134 281.5,-164"/>
<text text-anchor="start" x="181.5" y="-152" font-family="Roboto" font-size="10.00">Urho3D::PODVector::</text>
<text text-anchor="middle" x="227.5" y="-141" font-family="Roboto" font-size="10.00">Empty</text>
</a>
</g>
</g>
<!-- Node1&#45;&gt;Node7 -->
<g id="edge6" class="edge">
<title>Node1&#45;&gt;Node7</title>
<path fill="none" stroke="#63b8ff" d="M119.49,-162.54C133.32,-160.79 148.11,-158.92 162.16,-157.14"/>
<polygon fill="#63b8ff" stroke="#63b8ff" points="162.24,-160.66 171.73,-155.93 161.37,-153.71 162.24,-160.66"/>
</g>
<!-- Node8 -->
<g id="node8" class="node">
<title>Node8</title>
<g id="a_node8"><a xlink:href="class_urho3_d_1_1_vector.html#af79ffb0683568b08fe130ee028bfd1ef" target="_top" xlink:title="Return iterator to the end.">
<polygon fill="white" stroke="#666666" points="280.5,-115.5 174.5,-115.5 174.5,-96.5 280.5,-96.5 280.5,-115.5"/>
<text text-anchor="middle" x="227.5" y="-103.5" font-family="Roboto" font-size="10.00">Urho3D::Vector::End</text>
</a>
</g>
</g>
<!-- Node1&#45;&gt;Node8 -->
<g id="edge7" class="edge">
<title>Node1&#45;&gt;Node8</title>
<path fill="none" stroke="#63b8ff" d="M78.54,-160.18C97.24,-150.29 127.54,-135.09 155,-125 160.73,-122.9 166.79,-120.92 172.87,-119.09"/>
<polygon fill="#63b8ff" stroke="#63b8ff" points="173.65,-122.51 182.3,-116.39 171.72,-115.78 173.65,-122.51"/>
</g>
<!-- Node9 -->
<g id="node9" class="node">
<title>Node9</title>
<g id="a_node9"><a xlink:href="class_urho3_d_1_1_variant.html#ac8b603e02f51307565802cf9442498e0" target="_top" xlink:title="Return pointer to custom variant value.">
<polygon fill="white" stroke="#666666" points="297.5,-78 157.5,-78 157.5,-48 297.5,-48 297.5,-78"/>
<text text-anchor="start" x="165.5" y="-66" font-family="Roboto" font-size="10.00">Urho3D::Variant::GetCustom</text>
<text text-anchor="middle" x="227.5" y="-55" font-family="Roboto" font-size="10.00">VariantValuePtr</text>
</a>
</g>
</g>
<!-- Node1&#45;&gt;Node9 -->
<g id="edge9" class="edge">
<title>Node1&#45;&gt;Node9</title>
<path fill="none" stroke="#63b8ff" d="M69.48,-160.05C85.27,-143.11 119.67,-108.49 155,-88 157.98,-86.27 161.09,-84.64 164.28,-83.1"/>
<polygon fill="#63b8ff" stroke="#63b8ff" points="165.58,-86.35 173.29,-79.09 162.73,-79.96 165.58,-86.35"/>
</g>
<!-- Node10 -->
<g id="node10" class="node">
<title>Node10</title>
<g id="a_node10"><a xlink:href="class_urho3_d_1_1_custom_variant_value.html#a876bb2339141d8193607a00ebac32993" target="_top" xlink:title="Compare to zero.">
<polygon fill="white" stroke="#666666" points="300,-30 155,-30 155,0 300,0 300,-30"/>
<text text-anchor="start" x="163" y="-18" font-family="Roboto" font-size="10.00">Urho3D::CustomVariantValue</text>
<text text-anchor="middle" x="227.5" y="-7" font-family="Roboto" font-size="10.00">::IsZero</text>
</a>
</g>
</g>
<!-- Node1&#45;&gt;Node10 -->
<g id="edge10" class="edge">
<title>Node1&#45;&gt;Node10</title>
<path fill="none" stroke="#63b8ff" d="M64.91,-160.18C76.28,-135.97 108.94,-72.93 155,-39 156.52,-37.88 158.1,-36.81 159.72,-35.78"/>
<polygon fill="#63b8ff" stroke="#63b8ff" points="161.03,-39.06 168.1,-31.17 157.65,-32.93 161.03,-39.06"/>
</g>
<!-- Node3 -->
<g id="node3" class="node">
<title>Node3</title>
<g id="a_node3"><a xlink:href="class_urho3_d_1_1_vector.html#a2126455bfd4dd42c90838abba6fef37a" target="_top" xlink:title="Return the buffer with right type.">
<polygon fill="white" stroke="#666666" points="452,-213.5 336,-213.5 336,-194.5 452,-194.5 452,-213.5"/>
<text text-anchor="middle" x="394" y="-201.5" font-family="Roboto" font-size="10.00">Urho3D::Vector::Buffer</text>
</a>
</g>
</g>
<!-- Node2&#45;&gt;Node3 -->
<g id="edge2" class="edge">
<title>Node2&#45;&gt;Node3</title>
<path fill="none" stroke="#63b8ff" d="M280.36,-293.05C287.15,-290.85 293.87,-288.2 300,-285 330.68,-268.97 359.7,-240.87 376.92,-222.35"/>
<polygon fill="#63b8ff" stroke="#63b8ff" points="379.46,-224.77 383.58,-215.01 374.27,-220.07 379.46,-224.77"/>
</g>
<!-- Node8&#45;&gt;Node3 -->
<g id="edge8" class="edge">
<title>Node8&#45;&gt;Node3</title>
<path fill="none" stroke="#63b8ff" d="M277.67,-115.96C285.36,-118.39 293.06,-121.37 300,-125 330.33,-140.86 359.42,-168.17 376.75,-186.16"/>
<polygon fill="#63b8ff" stroke="#63b8ff" points="373.83,-188.16 383.23,-193.04 378.93,-183.36 373.83,-188.16"/>
</g>
</g>
</svg>
