<?xml version="1.0" encoding="UTF-8" standalone="no"?>
<!DOCTYPE svg PUBLIC "-//W3C//DTD SVG 1.1//EN"
 "http://www.w3.org/Graphics/SVG/1.1/DTD/svg11.dtd">
<!-- Generated by graphviz version 7.0.3 (0)
 -->
<!-- Title: Urho3D::Camera::GetUseClipping Pages: 1 -->
<svg width="499pt" height="86pt"
 viewBox="0.00 0.00 499.00 86.00" xmlns="http://www.w3.org/2000/svg" xmlns:xlink="http://www.w3.org/1999/xlink">
<g id="graph0" class="graph" transform="scale(1 1) rotate(0) translate(4 82)">
<title>Urho3D::Camera::GetUseClipping</title>
<!-- Node1 -->
<g id="node1" class="node">
<title>Node1</title>
<g id="a_node1"><a xlink:title=" ">
<polygon fill="#999999" stroke="#666666" points="491,-48.5 330,-48.5 330,-29.5 491,-29.5 491,-48.5"/>
<text text-anchor="middle" x="410.5" y="-36.5" font-family="Roboto" font-size="10.00">Urho3D::Camera::GetUseClipping</text>
</a>
</g>
</g>
<!-- Node2 -->
<g id="node2" class="node">
<title>Node2</title>
<g id="a_node2"><a xlink:href="class_urho3_d_1_1_view.html#a2dd8e9237f495ba4ec4a69b195988cfa" target="_top" xlink:title="Execute render commands.">
<polygon fill="white" stroke="#666666" points="294,-78 148,-78 148,-48 294,-48 294,-78"/>
<text text-anchor="start" x="156" y="-66" font-family="Roboto" font-size="10.00">Urho3D::View::ExecuteRender</text>
<text text-anchor="middle" x="221" y="-55" font-family="Roboto" font-size="10.00">PathCommands</text>
</a>
</g>
</g>
<!-- Node1&#45;&gt;Node2 -->
<g id="edge1" class="edge">
<title>Node1&#45;&gt;Node2</title>
<path fill="none" stroke="#63b8ff" d="M320.22,-50.43C311.51,-51.54 302.75,-52.66 294.24,-53.75"/>
<polygon fill="#63b8ff" stroke="#63b8ff" points="320.64,-53.9 330.11,-49.16 319.75,-46.96 320.64,-53.9"/>
</g>
<!-- Node4 -->
<g id="node4" class="node">
<title>Node4</title>
<g id="a_node4"><a xlink:href="class_urho3_d_1_1_camera.html#a7135721d90b089309a667a16bd27a603" target="_top" xlink:title=" ">
<polygon fill="white" stroke="#666666" points="286,-30 156,-30 156,0 286,0 286,-30"/>
<text text-anchor="start" x="164" y="-18" font-family="Roboto" font-size="10.00">Urho3D::Camera::Register</text>
<text text-anchor="middle" x="221" y="-7" font-family="Roboto" font-size="10.00">Object</text>
</a>
</g>
</g>
<!-- Node1&#45;&gt;Node4 -->
<g id="edge3" class="edge">
<title>Node1&#45;&gt;Node4</title>
<path fill="none" stroke="#63b8ff" d="M320.21,-27.57C308.76,-26.1 297.21,-24.63 286.27,-23.23"/>
<polygon fill="#63b8ff" stroke="#63b8ff" points="319.75,-31.04 330.11,-28.84 320.64,-24.1 319.75,-31.04"/>
</g>
<!-- Node3 -->
<g id="node3" class="node">
<title>Node3</title>
<g id="a_node3"><a xlink:href="class_urho3_d_1_1_view.html#a124582e02f0e82ba799467b20b162436" target="_top" xlink:title="Render batches.">
<polygon fill="white" stroke="#666666" points="112,-72.5 0,-72.5 0,-53.5 112,-53.5 112,-72.5"/>
<text text-anchor="middle" x="56" y="-60.5" font-family="Roboto" font-size="10.00">Urho3D::View::Render</text>
</a>
</g>
</g>
<!-- Node2&#45;&gt;Node3 -->
<g id="edge2" class="edge">
<title>Node2&#45;&gt;Node3</title>
<path fill="none" stroke="#63b8ff" d="M136.07,-63C127.94,-63 119.84,-63 112.1,-63"/>
<polygon fill="#63b8ff" stroke="#63b8ff" points="136.04,-66.5 146.04,-63 136.04,-59.5 136.04,-66.5"/>
</g>
</g>
</svg>
