<?xml version="1.0" encoding="UTF-8" standalone="no"?>
<!DOCTYPE svg PUBLIC "-//W3C//DTD SVG 1.1//EN"
 "http://www.w3.org/Graphics/SVG/1.1/DTD/svg11.dtd">
<!-- Generated by graphviz version 7.0.3 (0)
 -->
<!-- Title: Urho3D::Node::RegisterObject Pages: 1 -->
<svg width="545pt" height="763pt"
 viewBox="0.00 0.00 545.00 763.00" xmlns="http://www.w3.org/2000/svg" xmlns:xlink="http://www.w3.org/1999/xlink">
<g id="graph0" class="graph" transform="scale(1 1) rotate(0) translate(4 759)">
<title>Urho3D::Node::RegisterObject</title>
<!-- Node1 -->
<g id="node1" class="node">
<title>Node1</title>
<g id="a_node1"><a xlink:title=" ">
<polygon fill="#999999" stroke="#666666" points="148,-398 0,-398 0,-379 148,-379 148,-398"/>
<text text-anchor="middle" x="74" y="-386" font-family="Roboto" font-size="10.00">Urho3D::Node::RegisterObject</text>
</a>
</g>
</g>
<!-- Node2 -->
<g id="node2" class="node">
<title>Node2</title>
<g id="a_node2"><a xlink:href="class_urho3_d_1_1_node.html#a7b1640a3996061023dab8751238dc79b" target="_top" xlink:title=" ">
<polygon fill="white" stroke="#666666" points="331,-737 205,-737 205,-718 331,-718 331,-737"/>
<text text-anchor="middle" x="268" y="-725" font-family="Roboto" font-size="10.00">Urho3D::Node::GetName</text>
</a>
</g>
</g>
<!-- Node1&#45;&gt;Node2 -->
<g id="edge1" class="edge">
<title>Node1&#45;&gt;Node2</title>
<path fill="none" stroke="#63b8ff" d="M75.08,-398.47C76,-442.59 85.85,-621.93 184,-709.5 187.16,-712.32 190.65,-714.73 194.36,-716.79"/>
<polygon fill="#63b8ff" stroke="#63b8ff" points="192.69,-719.87 203.24,-720.84 195.59,-713.5 192.69,-719.87"/>
</g>
<!-- Node3 -->
<g id="node3" class="node">
<title>Node3</title>
<g id="a_node3"><a xlink:href="class_urho3_d_1_1_node.html#a355a2e2bd5dd0300092810ebda808776" target="_top" xlink:title="Return network parent attribute.">
<polygon fill="#fff0f0" stroke="red" points="347.5,-700 188.5,-700 188.5,-681 347.5,-681 347.5,-700"/>
<text text-anchor="middle" x="268" y="-688" font-family="Roboto" font-size="10.00">Urho3D::Node::GetNetParentAttr</text>
</a>
</g>
</g>
<!-- Node1&#45;&gt;Node3 -->
<g id="edge2" class="edge">
<title>Node1&#45;&gt;Node3</title>
<path fill="none" stroke="#63b8ff" d="M75.57,-398.43C78.47,-439.36 95.21,-596.34 184,-672.5 184.81,-673.19 185.64,-673.86 186.48,-674.51"/>
<polygon fill="#63b8ff" stroke="#63b8ff" points="184.56,-677.43 194.9,-679.73 188.25,-671.48 184.56,-677.43"/>
</g>
<!-- Node10 -->
<g id="node9" class="node">
<title>Node10</title>
<g id="a_node9"><a xlink:href="class_urho3_d_1_1_node.html#a31415827adc7967fdd6fe26b0f0d9084" target="_top" xlink:title="Return network position attribute.">
<polygon fill="white" stroke="#666666" points="351.5,-663 184.5,-663 184.5,-644 351.5,-644 351.5,-663"/>
<text text-anchor="middle" x="268" y="-651" font-family="Roboto" font-size="10.00">Urho3D::Node::GetNetPositionAttr</text>
</a>
</g>
</g>
<!-- Node1&#45;&gt;Node10 -->
<g id="edge8" class="edge">
<title>Node1&#45;&gt;Node10</title>
<path fill="none" stroke="#63b8ff" d="M76.19,-398.42C81.24,-435.98 104.47,-570.61 184,-635.5 184.97,-636.29 185.97,-637.05 186.99,-637.78"/>
<polygon fill="#63b8ff" stroke="#63b8ff" points="185.07,-640.71 195.46,-642.75 188.61,-634.67 185.07,-640.71"/>
</g>
<!-- Node11 -->
<g id="node10" class="node">
<title>Node11</title>
<g id="a_node10"><a xlink:href="class_urho3_d_1_1_node.html#aa6970dbbbcb09728f9e0887e87c58240" target="_top" xlink:title="Return network rotation attribute.">
<polygon fill="white" stroke="#666666" points="352,-626 184,-626 184,-607 352,-607 352,-626"/>
<text text-anchor="middle" x="268" y="-614" font-family="Roboto" font-size="10.00">Urho3D::Node::GetNetRotationAttr</text>
</a>
</g>
</g>
<!-- Node1&#45;&gt;Node11 -->
<g id="edge9" class="edge">
<title>Node1&#45;&gt;Node11</title>
<path fill="none" stroke="#63b8ff" d="M76.99,-398.33C84.38,-432.16 113.52,-544.61 184,-598.5 185.32,-599.51 186.68,-600.46 188.08,-601.36"/>
<polygon fill="#63b8ff" stroke="#63b8ff" points="186.01,-604.22 196.47,-605.89 189.33,-598.06 186.01,-604.22"/>
</g>
<!-- Node12 -->
<g id="node11" class="node">
<title>Node12</title>
<g id="a_node11"><a xlink:href="class_urho3_d_1_1_node.html#a9c4d222bfa87cfe55268ed1ccbcdc65c" target="_top" xlink:title=" ">
<polygon fill="white" stroke="#666666" points="335.5,-589 200.5,-589 200.5,-570 335.5,-570 335.5,-589"/>
<text text-anchor="middle" x="268" y="-577" font-family="Roboto" font-size="10.00">Urho3D::Node::GetPosition</text>
</a>
</g>
</g>
<!-- Node1&#45;&gt;Node12 -->
<g id="edge10" class="edge">
<title>Node1&#45;&gt;Node12</title>
<path fill="none" stroke="#63b8ff" d="M78.09,-398.25C88.06,-428.02 122.36,-518.32 184,-561.5 185.86,-562.8 187.79,-564.01 189.78,-565.13"/>
<polygon fill="#63b8ff" stroke="#63b8ff" points="188.28,-568.3 198.82,-569.43 191.29,-561.97 188.28,-568.3"/>
</g>
<!-- Node13 -->
<g id="node12" class="node">
<title>Node13</title>
<g id="a_node12"><a xlink:href="class_urho3_d_1_1_node.html#a4eee69efff9e18b82364ac5a22df5c32" target="_top" xlink:title=" ">
<polygon fill="white" stroke="#666666" points="336,-552 200,-552 200,-533 336,-533 336,-552"/>
<text text-anchor="middle" x="268" y="-540" font-family="Roboto" font-size="10.00">Urho3D::Node::GetRotation</text>
</a>
</g>
</g>
<!-- Node1&#45;&gt;Node13 -->
<g id="edge11" class="edge">
<title>Node1&#45;&gt;Node13</title>
<path fill="none" stroke="#63b8ff" d="M79.78,-398.28C92.72,-423.62 131,-491.69 184,-524.5 186.14,-525.82 188.36,-527.05 190.65,-528.19"/>
<polygon fill="#63b8ff" stroke="#63b8ff" points="189.05,-531.31 199.62,-532.03 191.8,-524.88 189.05,-531.31"/>
</g>
<!-- Node14 -->
<g id="node13" class="node">
<title>Node14</title>
<g id="a_node13"><a xlink:href="class_urho3_d_1_1_node.html#a5a0319e7efa9231cb49be4d900b8a6da" target="_top" xlink:title=" ">
<polygon fill="white" stroke="#666666" points="329.5,-515 206.5,-515 206.5,-496 329.5,-496 329.5,-515"/>
<text text-anchor="middle" x="268" y="-503" font-family="Roboto" font-size="10.00">Urho3D::Node::GetScale</text>
</a>
</g>
</g>
<!-- Node1&#45;&gt;Node14 -->
<g id="edge12" class="edge">
<title>Node1&#45;&gt;Node14</title>
<path fill="none" stroke="#63b8ff" d="M82.81,-398.49C99.22,-418.72 139.45,-464.56 184,-487.5 187.69,-489.4 191.57,-491.1 195.56,-492.62"/>
<polygon fill="#63b8ff" stroke="#63b8ff" points="194.28,-495.88 204.87,-495.76 196.51,-489.25 194.28,-495.88"/>
</g>
<!-- Node15 -->
<g id="node14" class="node">
<title>Node15</title>
<g id="a_node14"><a xlink:href="class_urho3_d_1_1_node.html#a49a0f7165252bfcf62cb897067d80044" target="_top" xlink:title=" ">
<polygon fill="white" stroke="#666666" points="328,-478 208,-478 208,-459 328,-459 328,-478"/>
<text text-anchor="middle" x="268" y="-466" font-family="Roboto" font-size="10.00">Urho3D::Node::GetTags</text>
</a>
</g>
</g>
<!-- Node1&#45;&gt;Node15 -->
<g id="edge13" class="edge">
<title>Node1&#45;&gt;Node15</title>
<path fill="none" stroke="#63b8ff" d="M89.11,-398.4C109.25,-412.09 147.81,-436.65 184,-450.5 188.91,-452.38 194.05,-454.08 199.28,-455.62"/>
<polygon fill="#63b8ff" stroke="#63b8ff" points="198.04,-458.91 208.61,-458.16 199.88,-452.16 198.04,-458.91"/>
</g>
<!-- Node16 -->
<g id="node15" class="node">
<title>Node16</title>
<g id="a_node15"><a xlink:href="class_urho3_d_1_1_node.html#a36ffa108037ab29617bf178fcb4ec1da" target="_top" xlink:title=" ">
<polygon fill="white" stroke="#666666" points="332,-441 204,-441 204,-422 332,-422 332,-441"/>
<text text-anchor="middle" x="268" y="-429" font-family="Roboto" font-size="10.00">Urho3D::Node::IsEnabled</text>
</a>
</g>
</g>
<!-- Node1&#45;&gt;Node16 -->
<g id="edge14" class="edge">
<title>Node1&#45;&gt;Node16</title>
<path fill="none" stroke="#63b8ff" d="M119.53,-398.47C146.94,-404.61 182.29,-412.53 211.51,-419.07"/>
<polygon fill="#63b8ff" stroke="#63b8ff" points="210.38,-422.41 220.9,-421.18 211.91,-415.57 210.38,-422.41"/>
</g>
<!-- Node17 -->
<g id="node16" class="node">
<title>Node17</title>
<g id="a_node16"><a xlink:href="class_urho3_d_1_1_context.html#aa9b2cffef8d52fa18bfe533a2615a598" target="_top" xlink:title="Register a factory for an object type.">
<polygon fill="#fff0f0" stroke="red" points="333,-403.5 203,-403.5 203,-373.5 333,-373.5 333,-403.5"/>
<text text-anchor="start" x="211" y="-391.5" font-family="Roboto" font-size="10.00">Urho3D::Context::Register</text>
<text text-anchor="middle" x="268" y="-380.5" font-family="Roboto" font-size="10.00">Factory</text>
</a>
</g>
</g>
<!-- Node1&#45;&gt;Node17 -->
<g id="edge15" class="edge">
<title>Node1&#45;&gt;Node17</title>
<path fill="none" stroke="#63b8ff" d="M148.41,-388.5C162.53,-388.5 177.33,-388.5 191.52,-388.5"/>
<polygon fill="#63b8ff" stroke="#63b8ff" points="191.22,-392 201.22,-388.5 191.22,-385 191.22,-392"/>
</g>
<!-- Node19 -->
<g id="node17" class="node">
<title>Node19</title>
<g id="a_node17"><a xlink:href="class_urho3_d_1_1_node.html#aebf77521a93e12e059ce1bb953af5c4f" target="_top" xlink:title=" ">
<polygon fill="white" stroke="#666666" points="335,-337 201,-337 201,-318 335,-318 335,-337"/>
<text text-anchor="middle" x="268" y="-325" font-family="Roboto" font-size="10.00">Urho3D::Node::SetEnabled</text>
</a>
</g>
</g>
<!-- Node1&#45;&gt;Node19 -->
<g id="edge16" class="edge">
<title>Node1&#45;&gt;Node19</title>
<path fill="none" stroke="#63b8ff" d="M106.28,-378.56C138.63,-368.28 189.35,-352.17 225.15,-340.8"/>
<polygon fill="#63b8ff" stroke="#63b8ff" points="225.82,-344.25 234.3,-337.89 223.71,-337.58 225.82,-344.25"/>
</g>
<!-- Node20 -->
<g id="node18" class="node">
<title>Node20</title>
<g id="a_node18"><a xlink:href="class_urho3_d_1_1_node.html#a4fe38a2be941c8ca1fa59b9639775c09" target="_top" xlink:title=" ">
<polygon fill="#fff0f0" stroke="red" points="330.5,-300 205.5,-300 205.5,-281 330.5,-281 330.5,-300"/>
<text text-anchor="middle" x="268" y="-288" font-family="Roboto" font-size="10.00">Urho3D::Node::SetName</text>
</a>
</g>
</g>
<!-- Node1&#45;&gt;Node20 -->
<g id="edge18" class="edge">
<title>Node1&#45;&gt;Node20</title>
<path fill="none" stroke="#63b8ff" d="M85.52,-378.58C103.96,-361.75 143.99,-327.66 184,-309.5 188.8,-307.32 193.86,-305.38 199.04,-303.66"/>
<polygon fill="#63b8ff" stroke="#63b8ff" points="199.74,-307.1 208.3,-300.85 197.71,-300.4 199.74,-307.1"/>
</g>
<!-- Node37 -->
<g id="node19" class="node">
<title>Node37</title>
<g id="a_node19"><a xlink:href="class_urho3_d_1_1_node.html#a3739b426a217d968f04b9d0128922f1e" target="_top" xlink:title="Set network parent attribute.">
<polygon fill="#fff0f0" stroke="red" points="347,-263 189,-263 189,-244 347,-244 347,-263"/>
<text text-anchor="middle" x="268" y="-251" font-family="Roboto" font-size="10.00">Urho3D::Node::SetNetParentAttr</text>
</a>
</g>
</g>
<!-- Node1&#45;&gt;Node37 -->
<g id="edge19" class="edge">
<title>Node1&#45;&gt;Node37</title>
<path fill="none" stroke="#63b8ff" d="M81.26,-378.56C96.1,-355.89 135.82,-300.14 184,-272.5 187.21,-270.66 190.58,-269 194.05,-267.5"/>
<polygon fill="#63b8ff" stroke="#63b8ff" points="195.19,-270.81 203.3,-264 192.71,-264.27 195.19,-270.81"/>
</g>
<!-- Node73 -->
<g id="node20" class="node">
<title>Node73</title>
<g id="a_node20"><a xlink:href="class_urho3_d_1_1_node.html#ae88fc463f3b9045af0eaaaf33d38711c" target="_top" xlink:title="Set network position attribute.">
<polygon fill="white" stroke="#666666" points="351.5,-226 184.5,-226 184.5,-207 351.5,-207 351.5,-226"/>
<text text-anchor="middle" x="268" y="-214" font-family="Roboto" font-size="10.00">Urho3D::Node::SetNetPositionAttr</text>
</a>
</g>
</g>
<!-- Node1&#45;&gt;Node73 -->
<g id="edge21" class="edge">
<title>Node1&#45;&gt;Node73</title>
<path fill="none" stroke="#63b8ff" d="M78.94,-378.75C90.53,-351.37 127.3,-273.33 184,-235.5 186.42,-233.88 188.96,-232.41 191.59,-231.05"/>
<polygon fill="#63b8ff" stroke="#63b8ff" points="192.95,-234.27 200.68,-227.03 190.12,-227.87 192.95,-234.27"/>
</g>
<!-- Node74 -->
<g id="node21" class="node">
<title>Node74</title>
<g id="a_node21"><a xlink:href="class_urho3_d_1_1_node.html#aa2fd960b4c5641cd38771280a6b84fb8" target="_top" xlink:title=" ">
<polygon fill="#fff0f0" stroke="red" points="529.5,-207 395.5,-207 395.5,-188 529.5,-188 529.5,-207"/>
<text text-anchor="middle" x="462.5" y="-195" font-family="Roboto" font-size="10.00">Urho3D::Node::SetPosition</text>
</a>
</g>
</g>
<!-- Node1&#45;&gt;Node74 -->
<g id="edge25" class="edge">
<title>Node1&#45;&gt;Node74</title>
<path fill="none" stroke="#63b8ff" d="M77.05,-378.6C84.48,-345.68 113.32,-239.61 184,-198.5 256.62,-156.26 359.06,-171.1 417,-184.86"/>
<polygon fill="#63b8ff" stroke="#63b8ff" points="415.96,-188.21 426.51,-187.21 417.64,-181.41 415.96,-188.21"/>
</g>
<!-- Node75 -->
<g id="node22" class="node">
<title>Node75</title>
<g id="a_node22"><a xlink:href="class_urho3_d_1_1_node.html#ade5376cdb305ed25f152ef344660b284" target="_top" xlink:title="Set network rotation attribute.">
<polygon fill="#fff0f0" stroke="red" points="351.5,-150 184.5,-150 184.5,-131 351.5,-131 351.5,-150"/>
<text text-anchor="middle" x="268" y="-138" font-family="Roboto" font-size="10.00">Urho3D::Node::SetNetRotationAttr</text>
</a>
</g>
</g>
<!-- Node1&#45;&gt;Node75 -->
<g id="edge23" class="edge">
<title>Node1&#45;&gt;Node75</title>
<path fill="none" stroke="#63b8ff" d="M76.82,-378.7C83.81,-343.86 112.2,-224.94 184,-164.5 188.41,-160.79 193.36,-157.66 198.59,-155"/>
<polygon fill="#63b8ff" stroke="#63b8ff" points="199.79,-158.3 207.55,-151.08 196.98,-151.89 199.79,-158.3"/>
</g>
<!-- Node79 -->
<g id="node23" class="node">
<title>Node79</title>
<g id="a_node23"><a xlink:href="class_urho3_d_1_1_node.html#a11bd9b2bfda2503123a32889b144aea1" target="_top" xlink:title=" ">
<polygon fill="#fff0f0" stroke="red" points="530,-131 395,-131 395,-112 530,-112 530,-131"/>
<text text-anchor="middle" x="462.5" y="-119" font-family="Roboto" font-size="10.00">Urho3D::Node::SetRotation</text>
</a>
</g>
</g>
<!-- Node1&#45;&gt;Node79 -->
<g id="edge26" class="edge">
<title>Node1&#45;&gt;Node79</title>
<path fill="none" stroke="#63b8ff" d="M75.39,-378.63C77.59,-338.05 91.95,-183.35 184,-121.5 255.61,-73.39 362.81,-92.58 420.77,-108.46"/>
<polygon fill="#63b8ff" stroke="#63b8ff" points="419.66,-111.78 430.23,-111.16 421.57,-105.05 419.66,-111.78"/>
</g>
<!-- Node80 -->
<g id="node24" class="node">
<title>Node80</title>
<g id="a_node24"><a xlink:href="class_urho3_d_1_1_node.html#ace951aa924dd417a731746cbf92ead06" target="_top" xlink:title="Set uniform scale in parent space.">
<polygon fill="white" stroke="#666666" points="329,-56 207,-56 207,-37 329,-37 329,-56"/>
<text text-anchor="middle" x="268" y="-44" font-family="Roboto" font-size="10.00">Urho3D::Node::SetScale</text>
</a>
</g>
</g>
<!-- Node1&#45;&gt;Node80 -->
<g id="edge27" class="edge">
<title>Node1&#45;&gt;Node80</title>
<path fill="none" stroke="#63b8ff" d="M75.97,-378.63C80.45,-337.84 102.57,-180.34 184,-88.5 194.78,-76.35 209.9,-67.26 224.29,-60.7"/>
<polygon fill="#63b8ff" stroke="#63b8ff" points="225.31,-64.07 233.17,-56.96 222.59,-57.62 225.31,-64.07"/>
</g>
<!-- Node81 -->
<g id="node25" class="node">
<title>Node81</title>
<g id="a_node25"><a xlink:href="class_urho3_d_1_1_node.html#a439a78f3d890caaa6dd33680bb5e493a" target="_top" xlink:title="Set tags. Old tags are overwritten.">
<polygon fill="#fff0f0" stroke="red" points="327.5,-19 208.5,-19 208.5,0 327.5,0 327.5,-19"/>
<text text-anchor="middle" x="268" y="-7" font-family="Roboto" font-size="10.00">Urho3D::Node::SetTags</text>
</a>
</g>
</g>
<!-- Node1&#45;&gt;Node81 -->
<g id="edge29" class="edge">
<title>Node1&#45;&gt;Node81</title>
<path fill="none" stroke="#63b8ff" d="M74.65,-378.61C73.58,-331.47 75.53,-127.65 184,-27.5 188.05,-23.76 192.69,-20.73 197.66,-18.28"/>
<polygon fill="#63b8ff" stroke="#63b8ff" points="198.87,-21.56 206.84,-14.59 196.25,-15.07 198.87,-21.56"/>
</g>
<!-- Node4 -->
<g id="node4" class="node">
<title>Node4</title>
<g id="a_node4"><a xlink:href="class_urho3_d_1_1_node.html#a1ce16fa386bfc7b728711030eb941723" target="_top" xlink:title=" ">
<polygon fill="white" stroke="#666666" points="517,-755 408,-755 408,-736 517,-736 517,-755"/>
<text text-anchor="middle" x="462.5" y="-743" font-family="Roboto" font-size="10.00">Urho3D::Node::GetID</text>
</a>
</g>
</g>
<!-- Node3&#45;&gt;Node4 -->
<g id="edge3" class="edge">
<title>Node3&#45;&gt;Node4</title>
<path fill="none" stroke="#63b8ff" d="M321.35,-700.48C331.64,-703 342.26,-706.01 352,-709.5 368.84,-715.54 371.21,-721.33 388,-727.5 392.91,-729.3 398.06,-730.98 403.27,-732.52"/>
<polygon fill="#63b8ff" stroke="#63b8ff" points="401.95,-735.79 412.52,-735.11 403.83,-729.05 401.95,-735.79"/>
</g>
<!-- Node5 -->
<g id="node5" class="node">
<title>Node5</title>
<g id="a_node5"><a xlink:href="class_urho3_d_1_1_node.html#af4ea811eb622efbd7b063b2d08ed6459" target="_top" xlink:title="Return name hash.">
<polygon fill="white" stroke="#666666" points="537,-718 388,-718 388,-699 537,-699 537,-718"/>
<text text-anchor="middle" x="462.5" y="-706" font-family="Roboto" font-size="10.00">Urho3D::Node::GetNameHash</text>
</a>
</g>
</g>
<!-- Node3&#45;&gt;Node5 -->
<g id="edge4" class="edge">
<title>Node3&#45;&gt;Node5</title>
<path fill="none" stroke="#63b8ff" d="M347.85,-697.87C357.23,-698.75 366.83,-699.65 376.29,-700.53"/>
<polygon fill="#63b8ff" stroke="#63b8ff" points="375.94,-704.01 386.22,-701.46 376.59,-697.05 375.94,-704.01"/>
</g>
<!-- Node6 -->
<g id="node6" class="node">
<title>Node6</title>
<g id="a_node6"><a xlink:href="class_urho3_d_1_1_node.html#a1bc658c7b719ce21531882df362ea958" target="_top" xlink:title=" ">
<polygon fill="white" stroke="#666666" points="526,-681 399,-681 399,-662 526,-662 526,-681"/>
<text text-anchor="middle" x="462.5" y="-669" font-family="Roboto" font-size="10.00">Urho3D::Node::GetParent</text>
</a>
</g>
</g>
<!-- Node3&#45;&gt;Node6 -->
<g id="edge5" class="edge">
<title>Node3&#45;&gt;Node6</title>
<path fill="none" stroke="#63b8ff" d="M347.85,-682.72C360.94,-681.43 374.48,-680.09 387.44,-678.81"/>
<polygon fill="#63b8ff" stroke="#63b8ff" points="387.55,-682.32 397.16,-677.85 386.86,-675.35 387.55,-682.32"/>
</g>
<!-- Node7 -->
<g id="node7" class="node">
<title>Node7</title>
<g id="a_node7"><a xlink:href="class_urho3_d_1_1_node.html#ad3742cda838a2b291daa44d3ab00de56" target="_top" xlink:title=" ">
<polygon fill="white" stroke="#666666" points="525.5,-435 399.5,-435 399.5,-416 525.5,-416 525.5,-435"/>
<text text-anchor="middle" x="462.5" y="-423" font-family="Roboto" font-size="10.00">Urho3D::Node::GetScene</text>
</a>
</g>
</g>
<!-- Node3&#45;&gt;Node7 -->
<g id="edge6" class="edge">
<title>Node3&#45;&gt;Node7</title>
<path fill="none" stroke="#63b8ff" d="M339.23,-680.51C343.79,-678.31 348.11,-675.67 352,-672.5 371.01,-657.01 432.03,-502 453.74,-445.75"/>
<polygon fill="#63b8ff" stroke="#63b8ff" points="456.88,-447.34 457.21,-436.75 450.35,-444.83 456.88,-447.34"/>
</g>
<!-- Node8 -->
<g id="node8" class="node">
<title>Node8</title>
<g id="a_node8"><a xlink:href="class_urho3_d_1_1_node.html#a9db232116d4278bd3e10c365d2ef57d5" target="_top" xlink:title=" ">
<polygon fill="#fff0f0" stroke="red" points="531.5,-644 393.5,-644 393.5,-625 531.5,-625 531.5,-644"/>
<text text-anchor="middle" x="462.5" y="-632" font-family="Roboto" font-size="10.00">Urho3D::Node::IsReplicated</text>
</a>
</g>
</g>
<!-- Node3&#45;&gt;Node8 -->
<g id="edge7" class="edge">
<title>Node3&#45;&gt;Node8</title>
<path fill="none" stroke="#63b8ff" d="M324.96,-680.55C334.11,-678.3 343.41,-675.63 352,-672.5 369,-666.3 371.13,-660.03 388,-653.5 393.61,-651.33 399.55,-649.33 405.53,-647.51"/>
<polygon fill="#63b8ff" stroke="#63b8ff" points="406.18,-650.96 414.82,-644.84 404.24,-644.24 406.18,-650.96"/>
</g>
<!-- Node19&#45;&gt;Node19 -->
<g id="edge17" class="edge">
<title>Node19&#45;&gt;Node19</title>
<path fill="none" stroke="#63b8ff" d="M237.63,-337.37C223.77,-345.94 233.9,-355 268,-355 287.71,-355 299.42,-351.97 303.1,-347.76"/>
<polygon fill="#63b8ff" stroke="#63b8ff" points="306.33,-346.4 299,-338.75 299.96,-349.3 306.33,-346.4"/>
</g>
<!-- Node37&#45;&gt;Node7 -->
<g id="edge20" class="edge">
<title>Node37&#45;&gt;Node7</title>
<path fill="none" stroke="#63b8ff" d="M333.92,-263.43C340.31,-265.84 346.46,-268.81 352,-272.5 402.83,-306.34 437.82,-372.35 452.99,-405.5"/>
<polygon fill="#63b8ff" stroke="#63b8ff" points="449.67,-406.64 456.92,-414.36 456.07,-403.8 449.67,-406.64"/>
</g>
<!-- Node73&#45;&gt;Node74 -->
<g id="edge22" class="edge">
<title>Node73&#45;&gt;Node74</title>
<path fill="none" stroke="#63b8ff" d="M351.75,-208.33C362.38,-207.28 373.23,-206.21 383.77,-205.17"/>
<polygon fill="#63b8ff" stroke="#63b8ff" points="383.95,-208.67 393.56,-204.21 383.27,-201.7 383.95,-208.67"/>
</g>
<!-- Node75&#45;&gt;Node79 -->
<g id="edge24" class="edge">
<title>Node75&#45;&gt;Node79</title>
<path fill="none" stroke="#63b8ff" d="M351.75,-132.33C362.31,-131.29 373.08,-130.23 383.55,-129.19"/>
<polygon fill="#63b8ff" stroke="#63b8ff" points="383.66,-132.7 393.27,-128.23 382.97,-125.73 383.66,-132.7"/>
</g>
<!-- Node80&#45;&gt;Node80 -->
<g id="edge28" class="edge">
<title>Node80&#45;&gt;Node80</title>
<path fill="none" stroke="#63b8ff" d="M237.63,-56.37C223.77,-64.94 233.9,-74 268,-74 287.71,-74 299.42,-70.97 303.1,-66.76"/>
<polygon fill="#63b8ff" stroke="#63b8ff" points="306.33,-65.4 299,-57.75 299.96,-68.3 306.33,-65.4"/>
</g>
</g>
</svg>
