<?xml version="1.0" encoding="UTF-8" standalone="no"?>
<!DOCTYPE svg PUBLIC "-//W3C//DTD SVG 1.1//EN"
 "http://www.w3.org/Graphics/SVG/1.1/DTD/svg11.dtd">
<!-- Generated by graphviz version 7.0.3 (0)
 -->
<!-- Title: Urho3D::Constraint::RegisterObject Pages: 1 -->
<svg width="600pt" height="728pt"
 viewBox="0.00 0.00 600.00 728.48" xmlns="http://www.w3.org/2000/svg" xmlns:xlink="http://www.w3.org/1999/xlink">
<g id="graph0" class="graph" transform="scale(1 1) rotate(0) translate(4 724.48)">
<title>Urho3D::Constraint::RegisterObject</title>
<!-- Node1 -->
<g id="node1" class="node">
<title>Node1</title>
<g id="a_node1"><a xlink:title=" ">
<polygon fill="#999999" stroke="#666666" points="100,-420.31 0,-420.31 0,-390.31 100,-390.31 100,-420.31"/>
<text text-anchor="start" x="8" y="-408.31" font-family="Roboto" font-size="10.00">Urho3D::Constraint</text>
<text text-anchor="middle" x="50" y="-397.31" font-family="Roboto" font-size="10.00">::RegisterObject</text>
</a>
</g>
</g>
<!-- Node2 -->
<g id="node2" class="node">
<title>Node2</title>
<g id="a_node2"><a xlink:href="class_urho3_d_1_1_constraint.html#aad3ac3cd83a6c73099c92c88c1ac367b" target="_top" xlink:title="Adjust other body position.">
<polygon fill="white" stroke="#666666" points="268,-684.31 136,-684.31 136,-654.31 268,-654.31 268,-684.31"/>
<text text-anchor="start" x="144" y="-672.31" font-family="Roboto" font-size="10.00">Urho3D::Constraint</text>
<text text-anchor="middle" x="202" y="-661.31" font-family="Roboto" font-size="10.00">::AdjustOtherBodyPosition</text>
</a>
</g>
</g>
<!-- Node1&#45;&gt;Node2 -->
<g id="edge1" class="edge">
<title>Node1&#45;&gt;Node2</title>
<path fill="none" stroke="#63b8ff" d="M52.03,-420.56C55.67,-462.33 71.42,-579.87 136,-645.31 136.6,-645.92 137.22,-646.52 137.86,-647.1"/>
<polygon fill="#63b8ff" stroke="#63b8ff" points="135.54,-649.73 145.64,-652.92 139.73,-644.13 135.54,-649.73"/>
</g>
<!-- Node3 -->
<g id="node3" class="node">
<title>Node3</title>
<g id="a_node3"><a xlink:href="class_urho3_d_1_1_constraint.html#a89444c85e0f17376dc4e2ff52cd4497d" target="_top" xlink:title="Mark frames dirty.">
<polygon fill="white" stroke="#666666" points="420.5,-705.31 320.5,-705.31 320.5,-675.31 420.5,-675.31 420.5,-705.31"/>
<text text-anchor="start" x="328.5" y="-693.31" font-family="Roboto" font-size="10.00">Urho3D::Constraint</text>
<text text-anchor="middle" x="370.5" y="-682.31" font-family="Roboto" font-size="10.00">::MarkFramesDirty</text>
</a>
</g>
</g>
<!-- Node1&#45;&gt;Node3 -->
<g id="edge9" class="edge">
<title>Node1&#45;&gt;Node3</title>
<path fill="none" stroke="#63b8ff" d="M53.11,-420.59C60.99,-475.21 90.59,-659.37 136,-693.31 186.67,-731.19 262.33,-721.78 313.69,-708.65"/>
<polygon fill="#63b8ff" stroke="#63b8ff" points="314.37,-712.09 323.12,-706.11 312.55,-705.33 314.37,-712.09"/>
</g>
<!-- Node4 -->
<g id="node4" class="node">
<title>Node4</title>
<g id="a_node4"><a xlink:href="class_urho3_d_1_1_constraint.html#a9c5c60c21f408639f8bff232d32ed766" target="_top" xlink:title=" ">
<polygon fill="white" stroke="#666666" points="252,-636.31 152,-636.31 152,-606.31 252,-606.31 252,-636.31"/>
<text text-anchor="start" x="160" y="-624.31" font-family="Roboto" font-size="10.00">Urho3D::Constraint</text>
<text text-anchor="middle" x="202" y="-613.31" font-family="Roboto" font-size="10.00">::GetCFM</text>
</a>
</g>
</g>
<!-- Node1&#45;&gt;Node4 -->
<g id="edge3" class="edge">
<title>Node1&#45;&gt;Node4</title>
<path fill="none" stroke="#63b8ff" d="M53.58,-420.61C60.43,-456.51 82.32,-546.91 136,-597.31 137.85,-599.05 139.84,-600.67 141.93,-602.17"/>
<polygon fill="#63b8ff" stroke="#63b8ff" points="139.98,-605.08 150.35,-607.25 143.6,-599.09 139.98,-605.08"/>
</g>
<!-- Node5 -->
<g id="node5" class="node">
<title>Node5</title>
<g id="a_node5"><a xlink:href="class_urho3_d_1_1_constraint.html#a5d43666d4412907054f3440e3d215477" target="_top" xlink:title=" ">
<polygon fill="white" stroke="#666666" points="252,-588.31 152,-588.31 152,-558.31 252,-558.31 252,-588.31"/>
<text text-anchor="start" x="160" y="-576.31" font-family="Roboto" font-size="10.00">Urho3D::Constraint</text>
<text text-anchor="middle" x="202" y="-565.31" font-family="Roboto" font-size="10.00">::GetERP</text>
</a>
</g>
</g>
<!-- Node1&#45;&gt;Node5 -->
<g id="edge4" class="edge">
<title>Node1&#45;&gt;Node5</title>
<path fill="none" stroke="#63b8ff" d="M56.1,-420.66C66.52,-449.79 92.99,-513.41 136,-549.31 137.91,-550.91 139.94,-552.41 142.06,-553.81"/>
<polygon fill="#63b8ff" stroke="#63b8ff" points="140.04,-556.68 150.46,-558.6 143.51,-550.61 140.04,-556.68"/>
</g>
<!-- Node6 -->
<g id="node6" class="node">
<title>Node6</title>
<g id="a_node6"><a xlink:href="class_urho3_d_1_1_constraint.html#abd89c6532171817776b44fd58ba0d16b" target="_top" xlink:title=" ">
<polygon fill="white" stroke="#666666" points="252,-540.31 152,-540.31 152,-510.31 252,-510.31 252,-540.31"/>
<text text-anchor="start" x="160" y="-528.31" font-family="Roboto" font-size="10.00">Urho3D::Constraint</text>
<text text-anchor="middle" x="202" y="-517.31" font-family="Roboto" font-size="10.00">::GetHighLimit</text>
</a>
</g>
</g>
<!-- Node1&#45;&gt;Node6 -->
<g id="edge5" class="edge">
<title>Node1&#45;&gt;Node6</title>
<path fill="none" stroke="#63b8ff" d="M61,-420.74C75.29,-441.69 103.48,-479.07 136,-501.31 137.82,-502.56 139.72,-503.75 141.67,-504.89"/>
<polygon fill="#63b8ff" stroke="#63b8ff" points="139.94,-507.94 150.43,-509.44 143.17,-501.73 139.94,-507.94"/>
</g>
<!-- Node7 -->
<g id="node7" class="node">
<title>Node7</title>
<g id="a_node7"><a xlink:href="class_urho3_d_1_1_constraint.html#ae7745a28ca40c358dc69044ad7fda88f" target="_top" xlink:title=" ">
<polygon fill="white" stroke="#666666" points="252,-492.31 152,-492.31 152,-462.31 252,-462.31 252,-492.31"/>
<text text-anchor="start" x="160" y="-480.31" font-family="Roboto" font-size="10.00">Urho3D::Constraint</text>
<text text-anchor="middle" x="202" y="-469.31" font-family="Roboto" font-size="10.00">::GetLowLimit</text>
</a>
</g>
</g>
<!-- Node1&#45;&gt;Node7 -->
<g id="edge6" class="edge">
<title>Node1&#45;&gt;Node7</title>
<path fill="none" stroke="#63b8ff" d="M75.74,-420.68C92.41,-430.68 115.09,-443.62 136,-453.31 139.12,-454.76 142.35,-456.18 145.63,-457.57"/>
<polygon fill="#63b8ff" stroke="#63b8ff" points="144.22,-460.77 154.8,-461.28 146.85,-454.28 144.22,-460.77"/>
</g>
<!-- Node8 -->
<g id="node8" class="node">
<title>Node8</title>
<g id="a_node8"><a xlink:href="class_urho3_d_1_1_component.html#a1cb9a868ec7bb3e46c37fbc91040cf95" target="_top" xlink:title=" ">
<polygon fill="white" stroke="#666666" points="257.5,-444.31 146.5,-444.31 146.5,-414.31 257.5,-414.31 257.5,-444.31"/>
<text text-anchor="start" x="154.5" y="-432.31" font-family="Roboto" font-size="10.00">Urho3D::Component::</text>
<text text-anchor="middle" x="202" y="-421.31" font-family="Roboto" font-size="10.00">IsEnabled</text>
</a>
</g>
</g>
<!-- Node1&#45;&gt;Node8 -->
<g id="edge7" class="edge">
<title>Node1&#45;&gt;Node8</title>
<path fill="none" stroke="#63b8ff" d="M100.12,-413.17C111.25,-414.95 123.26,-416.87 134.97,-418.75"/>
<polygon fill="#63b8ff" stroke="#63b8ff" points="134.14,-422.16 144.57,-420.28 135.25,-415.25 134.14,-422.16"/>
</g>
<!-- Node9 -->
<g id="node9" class="node">
<title>Node9</title>
<g id="a_node9"><a xlink:href="class_urho3_d_1_1_constraint.html#a76d006377d14ff057dab85a74d4b1b1b" target="_top" xlink:title="Mark constraint dirty.">
<polygon fill="white" stroke="#666666" points="257,-396.31 147,-396.31 147,-366.31 257,-366.31 257,-396.31"/>
<text text-anchor="start" x="155" y="-384.31" font-family="Roboto" font-size="10.00">Urho3D::Constraint</text>
<text text-anchor="middle" x="202" y="-373.31" font-family="Roboto" font-size="10.00">::MarkConstraintDirty</text>
</a>
</g>
</g>
<!-- Node1&#45;&gt;Node9 -->
<g id="edge8" class="edge">
<title>Node1&#45;&gt;Node9</title>
<path fill="none" stroke="#63b8ff" d="M100.12,-397.45C111.38,-395.65 123.54,-393.71 135.37,-391.81"/>
<polygon fill="#63b8ff" stroke="#63b8ff" points="135.77,-395.29 145.09,-390.26 134.67,-388.38 135.77,-395.29"/>
</g>
<!-- Node10 -->
<g id="node10" class="node">
<title>Node10</title>
<g id="a_node10"><a xlink:href="class_urho3_d_1_1_context.html#aa9b2cffef8d52fa18bfe533a2615a598" target="_top" xlink:title="Register a factory for an object type.">
<polygon fill="white" stroke="#666666" points="267,-348.31 137,-348.31 137,-318.31 267,-318.31 267,-348.31"/>
<text text-anchor="start" x="145" y="-336.31" font-family="Roboto" font-size="10.00">Urho3D::Context::Register</text>
<text text-anchor="middle" x="202" y="-325.31" font-family="Roboto" font-size="10.00">Factory</text>
</a>
</g>
</g>
<!-- Node1&#45;&gt;Node10 -->
<g id="edge10" class="edge">
<title>Node1&#45;&gt;Node10</title>
<path fill="none" stroke="#63b8ff" d="M75.74,-389.95C92.41,-379.94 115.09,-367 136,-357.31 139.12,-355.87 142.35,-354.45 145.63,-353.06"/>
<polygon fill="#63b8ff" stroke="#63b8ff" points="146.85,-356.34 154.8,-349.34 144.22,-349.86 146.85,-356.34"/>
</g>
<!-- Node12 -->
<g id="node12" class="node">
<title>Node12</title>
<g id="a_node12"><a xlink:href="class_urho3_d_1_1_constraint.html#aac5827eff3e2f40dd89f5c3489e499b5" target="_top" xlink:title=" ">
<polygon fill="white" stroke="#666666" points="252,-300.31 152,-300.31 152,-270.31 252,-270.31 252,-300.31"/>
<text text-anchor="start" x="160" y="-288.31" font-family="Roboto" font-size="10.00">Urho3D::Constraint</text>
<text text-anchor="middle" x="202" y="-277.31" font-family="Roboto" font-size="10.00">::SetCFM</text>
</a>
</g>
</g>
<!-- Node1&#45;&gt;Node12 -->
<g id="edge12" class="edge">
<title>Node1&#45;&gt;Node12</title>
<path fill="none" stroke="#63b8ff" d="M61,-389.88C75.29,-368.93 103.48,-331.56 136,-309.31 137.82,-308.07 139.72,-306.87 141.67,-305.73"/>
<polygon fill="#63b8ff" stroke="#63b8ff" points="143.17,-308.9 150.43,-301.18 139.94,-302.69 143.17,-308.9"/>
</g>
<!-- Node22 -->
<g id="node19" class="node">
<title>Node22</title>
<g id="a_node19"><a xlink:href="class_urho3_d_1_1_component.html#a84cc0be4504cc2234be4056ef7ffe976" target="_top" xlink:title=" ">
<polygon fill="white" stroke="#666666" points="257.5,-108.31 146.5,-108.31 146.5,-78.31 257.5,-78.31 257.5,-108.31"/>
<text text-anchor="start" x="154.5" y="-96.31" font-family="Roboto" font-size="10.00">Urho3D::Component::</text>
<text text-anchor="middle" x="202" y="-85.31" font-family="Roboto" font-size="10.00">SetEnabled</text>
</a>
</g>
</g>
<!-- Node1&#45;&gt;Node22 -->
<g id="edge20" class="edge">
<title>Node1&#45;&gt;Node22</title>
<path fill="none" stroke="#63b8ff" d="M50.98,-389.87C51.75,-342.57 60.5,-198.03 136,-117.31 136.59,-116.69 137.19,-116.08 137.81,-115.48"/>
<polygon fill="#63b8ff" stroke="#63b8ff" points="139.71,-118.44 145.47,-109.55 135.42,-112.91 139.71,-118.44"/>
</g>
<!-- Node38 -->
<g id="node23" class="node">
<title>Node38</title>
<g id="a_node23"><a xlink:href="class_urho3_d_1_1_constraint.html#a74c42eec329799509a68c8c45c9398e6" target="_top" xlink:title=" ">
<polygon fill="white" stroke="#666666" points="252,-252.31 152,-252.31 152,-222.31 252,-222.31 252,-252.31"/>
<text text-anchor="start" x="160" y="-240.31" font-family="Roboto" font-size="10.00">Urho3D::Constraint</text>
<text text-anchor="middle" x="202" y="-229.31" font-family="Roboto" font-size="10.00">::SetERP</text>
</a>
</g>
</g>
<!-- Node1&#45;&gt;Node38 -->
<g id="edge27" class="edge">
<title>Node1&#45;&gt;Node38</title>
<path fill="none" stroke="#63b8ff" d="M56.1,-389.97C66.52,-360.83 92.99,-297.22 136,-261.31 137.91,-259.72 139.94,-258.22 142.06,-256.82"/>
<polygon fill="#63b8ff" stroke="#63b8ff" points="143.51,-260.02 150.46,-252.02 140.04,-253.94 143.51,-260.02"/>
</g>
<!-- Node39 -->
<g id="node24" class="node">
<title>Node39</title>
<g id="a_node24"><a xlink:href="class_urho3_d_1_1_constraint.html#a54812a3d50bd0b2e9db9faaeb70d630b" target="_top" xlink:title=" ">
<polygon fill="white" stroke="#666666" points="252,-204.31 152,-204.31 152,-174.31 252,-174.31 252,-204.31"/>
<text text-anchor="start" x="160" y="-192.31" font-family="Roboto" font-size="10.00">Urho3D::Constraint</text>
<text text-anchor="middle" x="202" y="-181.31" font-family="Roboto" font-size="10.00">::SetHighLimit</text>
</a>
</g>
</g>
<!-- Node1&#45;&gt;Node39 -->
<g id="edge31" class="edge">
<title>Node1&#45;&gt;Node39</title>
<path fill="none" stroke="#63b8ff" d="M53.58,-390.02C60.43,-354.12 82.32,-263.71 136,-213.31 137.85,-211.57 139.84,-209.96 141.93,-208.46"/>
<polygon fill="#63b8ff" stroke="#63b8ff" points="143.6,-211.54 150.35,-203.37 139.98,-205.55 143.6,-211.54"/>
</g>
<!-- Node40 -->
<g id="node25" class="node">
<title>Node40</title>
<g id="a_node25"><a xlink:href="class_urho3_d_1_1_constraint.html#ab91b810a4b077c4ec342fa6ff28cc678" target="_top" xlink:title=" ">
<polygon fill="white" stroke="#666666" points="252,-156.31 152,-156.31 152,-126.31 252,-126.31 252,-156.31"/>
<text text-anchor="start" x="160" y="-144.31" font-family="Roboto" font-size="10.00">Urho3D::Constraint</text>
<text text-anchor="middle" x="202" y="-133.31" font-family="Roboto" font-size="10.00">::SetLowLimit</text>
</a>
</g>
</g>
<!-- Node1&#45;&gt;Node40 -->
<g id="edge34" class="edge">
<title>Node1&#45;&gt;Node40</title>
<path fill="none" stroke="#63b8ff" d="M52.03,-390.07C55.67,-348.29 71.42,-230.76 136,-165.31 137.96,-163.33 140.1,-161.5 142.36,-159.83"/>
<polygon fill="#63b8ff" stroke="#63b8ff" points="143.7,-163.12 150.36,-154.89 140.02,-157.17 143.7,-163.12"/>
</g>
<!-- Node2&#45;&gt;Node3 -->
<g id="edge2" class="edge">
<title>Node2&#45;&gt;Node3</title>
<path fill="none" stroke="#63b8ff" d="M268.33,-677.55C281.65,-679.23 295.61,-680.99 308.76,-682.65"/>
<polygon fill="#63b8ff" stroke="#63b8ff" points="308.21,-686.11 318.56,-683.89 309.08,-679.16 308.21,-686.11"/>
</g>
<!-- Node11 -->
<g id="node11" class="node">
<title>Node11</title>
<g id="a_node11"><a xlink:href="class_urho3_d_1_1_object_factory.html#a191ee9fd0ce7c127dfd92b2b9ae47709" target="_top" xlink:title="Return type hash of objects created by this factory.">
<polygon fill="white" stroke="#666666" points="428.5,-356.31 312.5,-356.31 312.5,-326.31 428.5,-326.31 428.5,-356.31"/>
<text text-anchor="start" x="320.5" y="-344.31" font-family="Roboto" font-size="10.00">Urho3D::ObjectFactory</text>
<text text-anchor="middle" x="370.5" y="-333.31" font-family="Roboto" font-size="10.00">::GetType</text>
</a>
</g>
</g>
<!-- Node10&#45;&gt;Node11 -->
<g id="edge11" class="edge">
<title>Node10&#45;&gt;Node11</title>
<path fill="none" stroke="#63b8ff" d="M267.37,-336.41C278.31,-336.93 289.7,-337.48 300.74,-338.01"/>
<polygon fill="#63b8ff" stroke="#63b8ff" points="300.42,-341.5 310.58,-338.48 300.76,-334.51 300.42,-341.5"/>
</g>
<!-- Node13 -->
<g id="node13" class="node">
<title>Node13</title>
<g id="a_node13"><a xlink:href="class_urho3_d_1_1_constraint.html#a99f0746af3049d429da0c6c98dfcd8de" target="_top" xlink:title="Apply high and low constraint limits.">
<polygon fill="white" stroke="#666666" points="420.5,-252.31 320.5,-252.31 320.5,-222.31 420.5,-222.31 420.5,-252.31"/>
<text text-anchor="start" x="328.5" y="-240.31" font-family="Roboto" font-size="10.00">Urho3D::Constraint</text>
<text text-anchor="middle" x="370.5" y="-229.31" font-family="Roboto" font-size="10.00">::ApplyLimits</text>
</a>
</g>
</g>
<!-- Node12&#45;&gt;Node13 -->
<g id="edge13" class="edge">
<title>Node12&#45;&gt;Node13</title>
<path fill="none" stroke="#63b8ff" d="M252.05,-271.17C270.02,-265.99 290.55,-260.07 309.37,-254.65"/>
<polygon fill="#63b8ff" stroke="#63b8ff" points="310.13,-258.07 318.77,-251.94 308.19,-251.35 310.13,-258.07"/>
</g>
<!-- Node15 -->
<g id="node15" class="node">
<title>Node15</title>
<g id="a_node15"><a xlink:href="class_urho3_d_1_1_component.html#aaf87acb64001774c62f0784254f9b291" target="_top" xlink:title="Mark for attribute check on the next network update.">
<polygon fill="#fff0f0" stroke="red" points="426,-204.31 315,-204.31 315,-174.31 426,-174.31 426,-204.31"/>
<text text-anchor="start" x="323" y="-192.31" font-family="Roboto" font-size="10.00">Urho3D::Component::</text>
<text text-anchor="middle" x="370.5" y="-181.31" font-family="Roboto" font-size="10.00">MarkNetworkUpdate</text>
</a>
</g>
</g>
<!-- Node12&#45;&gt;Node15 -->
<g id="edge15" class="edge">
<title>Node12&#45;&gt;Node15</title>
<path fill="none" stroke="#63b8ff" d="M252.5,-270.52C257.98,-267.89 263.27,-264.84 268,-261.31 289.38,-245.38 282.6,-229.22 304,-213.31 305.5,-212.2 307.06,-211.13 308.67,-210.1"/>
<polygon fill="#63b8ff" stroke="#63b8ff" points="309.94,-213.4 316.95,-205.46 306.52,-207.29 309.94,-213.4"/>
</g>
<!-- Node21 -->
<g id="node18" class="node">
<title>Node21</title>
<g id="a_node18"><a xlink:href="_math_defs_8h.html#a8096c22c3716e172f685af2a5f5e26bb" target="_top" xlink:title=" ">
<polygon fill="white" stroke="#666666" points="407.5,-289.81 333.5,-289.81 333.5,-270.81 407.5,-270.81 407.5,-289.81"/>
<text text-anchor="middle" x="370.5" y="-277.81" font-family="Roboto" font-size="10.00">Urho3D::Max</text>
</a>
</g>
</g>
<!-- Node12&#45;&gt;Node21 -->
<g id="edge18" class="edge">
<title>Node12&#45;&gt;Node21</title>
<path fill="none" stroke="#63b8ff" d="M252.05,-283.84C274.09,-283.18 299.99,-282.4 321.86,-281.74"/>
<polygon fill="#63b8ff" stroke="#63b8ff" points="321.81,-285.25 331.7,-281.45 321.6,-278.25 321.81,-285.25"/>
</g>
<!-- Node14 -->
<g id="node14" class="node">
<title>Node14</title>
<g id="a_node14"><a xlink:href="class_urho3_d_1_1_unique_ptr.html#a0a3ac051f536377b767fb97eabc203f5" target="_top" xlink:title="Return the raw pointer.">
<polygon fill="white" stroke="#666666" points="592,-246.81 473,-246.81 473,-227.81 592,-227.81 592,-246.81"/>
<text text-anchor="middle" x="532.5" y="-234.81" font-family="Roboto" font-size="10.00">Urho3D::UniquePtr::Get</text>
</a>
</g>
</g>
<!-- Node13&#45;&gt;Node14 -->
<g id="edge14" class="edge">
<title>Node13&#45;&gt;Node14</title>
<path fill="none" stroke="#63b8ff" d="M420.81,-237.31C433.58,-237.31 447.58,-237.31 461.2,-237.31"/>
<polygon fill="#63b8ff" stroke="#63b8ff" points="461,-240.81 471,-237.31 461,-233.81 461,-240.81"/>
</g>
<!-- Node16 -->
<g id="node16" class="node">
<title>Node16</title>
<g id="a_node16"><a xlink:href="class_urho3_d_1_1_component.html#a2c22f727341671a0420934f249ffe059" target="_top" xlink:title="Return the scene the node belongs to.">
<polygon fill="#fff0f0" stroke="red" points="588,-83.31 477,-83.31 477,-53.31 588,-53.31 588,-83.31"/>
<text text-anchor="start" x="485" y="-71.31" font-family="Roboto" font-size="10.00">Urho3D::Component::</text>
<text text-anchor="middle" x="532.5" y="-60.31" font-family="Roboto" font-size="10.00">GetScene</text>
</a>
</g>
</g>
<!-- Node15&#45;&gt;Node16 -->
<g id="edge16" class="edge">
<title>Node15&#45;&gt;Node16</title>
<path fill="none" stroke="#63b8ff" d="M420.95,-173.94C426.55,-171.41 432.02,-168.54 437,-165.31 467.6,-145.49 495.8,-114.1 513.28,-92.42"/>
<polygon fill="#63b8ff" stroke="#63b8ff" points="515.93,-94.71 519.37,-84.69 510.43,-90.38 515.93,-94.71"/>
</g>
<!-- Node18 -->
<g id="node17" class="node">
<title>Node18</title>
<g id="a_node17"><a xlink:href="class_urho3_d_1_1_component.html#a8f1388c232ca01b7c7328c761aae6e76" target="_top" xlink:title=" ">
<polygon fill="#fff0f0" stroke="red" points="588,-204.31 477,-204.31 477,-174.31 588,-174.31 588,-204.31"/>
<text text-anchor="start" x="485" y="-192.31" font-family="Roboto" font-size="10.00">Urho3D::Component::</text>
<text text-anchor="middle" x="532.5" y="-181.31" font-family="Roboto" font-size="10.00">IsReplicated</text>
</a>
</g>
</g>
<!-- Node15&#45;&gt;Node18 -->
<g id="edge17" class="edge">
<title>Node15&#45;&gt;Node18</title>
<path fill="none" stroke="#63b8ff" d="M426.12,-189.31C438.72,-189.31 452.26,-189.31 465.3,-189.31"/>
<polygon fill="#63b8ff" stroke="#63b8ff" points="465.07,-192.81 475.07,-189.31 465.07,-185.81 465.07,-192.81"/>
</g>
<!-- Node21&#45;&gt;Node21 -->
<g id="edge19" class="edge">
<title>Node21&#45;&gt;Node21</title>
<path fill="none" stroke="#63b8ff" d="M345.14,-290.18C333.57,-298.75 342.02,-307.81 370.5,-307.81 386.52,-307.81 396.2,-304.95 399.55,-300.91"/>
<polygon fill="#63b8ff" stroke="#63b8ff" points="402.91,-299.93 396.35,-291.61 396.29,-302.21 402.91,-299.93"/>
</g>
<!-- Node22&#45;&gt;Node15 -->
<g id="edge23" class="edge">
<title>Node22&#45;&gt;Node15</title>
<path fill="none" stroke="#63b8ff" d="M253.84,-108.76C258.84,-111.24 263.66,-114.08 268,-117.31 289.38,-133.25 282.6,-149.4 304,-165.31 305.5,-166.43 307.06,-167.5 308.67,-168.53"/>
<polygon fill="#63b8ff" stroke="#63b8ff" points="306.52,-171.33 316.95,-173.16 309.94,-165.22 306.52,-171.33"/>
</g>
<!-- Node22&#45;&gt;Node16 -->
<g id="edge22" class="edge">
<title>Node22&#45;&gt;Node16</title>
<path fill="none" stroke="#63b8ff" d="M216.13,-77.89C233.79,-58.47 267.24,-26.11 304,-13.31 359.83,6.12 379.93,2.09 437,-13.31 460.97,-19.78 485.11,-33.99 502.99,-46.35"/>
<polygon fill="#63b8ff" stroke="#63b8ff" points="500.84,-49.12 511.01,-52.08 504.91,-43.42 500.84,-49.12"/>
</g>
<!-- Node23 -->
<g id="node20" class="node">
<title>Node23</title>
<g id="a_node20"><a xlink:href="class_urho3_d_1_1_object.html#a69af51cfa67f9626273b35a6d501e03e" target="_top" xlink:title="Return a preallocated map for event data. Used for optimization to avoid constant re&#45;allocation of ev...">
<polygon fill="#fff0f0" stroke="red" points="433,-156.31 308,-156.31 308,-126.31 433,-126.31 433,-156.31"/>
<text text-anchor="start" x="316" y="-144.31" font-family="Roboto" font-size="10.00">Urho3D::Object::GetEvent</text>
<text text-anchor="middle" x="370.5" y="-133.31" font-family="Roboto" font-size="10.00">DataMap</text>
</a>
</g>
</g>
<!-- Node22&#45;&gt;Node23 -->
<g id="edge21" class="edge">
<title>Node22&#45;&gt;Node23</title>
<path fill="none" stroke="#63b8ff" d="M256.6,-108.76C272.05,-113.22 289.06,-118.12 305.09,-122.75"/>
<polygon fill="#63b8ff" stroke="#63b8ff" points="303.97,-126.06 314.55,-125.47 305.91,-119.34 303.97,-126.06"/>
</g>
<!-- Node36 -->
<g id="node21" class="node">
<title>Node36</title>
<g id="a_node21"><a xlink:href="class_urho3_d_1_1_component.html#a97c506dfb55216668b1fdf4d4425f7d7" target="_top" xlink:title="Handle enabled/disabled state change.">
<polygon fill="white" stroke="#666666" points="426,-108.31 315,-108.31 315,-78.31 426,-78.31 426,-108.31"/>
<text text-anchor="start" x="323" y="-96.31" font-family="Roboto" font-size="10.00">Urho3D::Component::</text>
<text text-anchor="middle" x="370.5" y="-85.31" font-family="Roboto" font-size="10.00">OnSetEnabled</text>
</a>
</g>
</g>
<!-- Node22&#45;&gt;Node36 -->
<g id="edge24" class="edge">
<title>Node22&#45;&gt;Node36</title>
<path fill="none" stroke="#63b8ff" d="M257.98,-93.31C272.47,-93.31 288.26,-93.31 303.28,-93.31"/>
<polygon fill="#63b8ff" stroke="#63b8ff" points="303.06,-96.81 313.06,-93.31 303.06,-89.81 303.06,-96.81"/>
</g>
<!-- Node37 -->
<g id="node22" class="node">
<title>Node37</title>
<g id="a_node22"><a xlink:href="class_urho3_d_1_1_object.html#a32020dbf77c196b9777eca479e8abb36" target="_top" xlink:title="Send event to all subscribers.">
<polygon fill="white" stroke="#666666" points="437,-41.81 304,-41.81 304,-22.81 437,-22.81 437,-41.81"/>
<text text-anchor="middle" x="370.5" y="-29.81" font-family="Roboto" font-size="10.00">Urho3D::Object::SendEvent</text>
</a>
</g>
</g>
<!-- Node22&#45;&gt;Node37 -->
<g id="edge25" class="edge">
<title>Node22&#45;&gt;Node37</title>
<path fill="none" stroke="#63b8ff" d="M245.01,-77.92C271.82,-68.1 306.26,-55.48 332.11,-46.01"/>
<polygon fill="#63b8ff" stroke="#63b8ff" points="333.01,-49.41 341.2,-42.68 330.61,-42.83 333.01,-49.41"/>
</g>
<!-- Node37&#45;&gt;Node37 -->
<g id="edge26" class="edge">
<title>Node37&#45;&gt;Node37</title>
<path fill="none" stroke="#63b8ff" d="M345.14,-42.18C333.57,-50.75 342.02,-59.81 370.5,-59.81 386.52,-59.81 396.2,-56.95 399.55,-52.91"/>
<polygon fill="#63b8ff" stroke="#63b8ff" points="402.91,-51.93 396.35,-43.61 396.29,-54.21 402.91,-51.93"/>
</g>
<!-- Node38&#45;&gt;Node13 -->
<g id="edge28" class="edge">
<title>Node38&#45;&gt;Node13</title>
<path fill="none" stroke="#63b8ff" d="M252.05,-237.31C269.85,-237.31 290.17,-237.31 308.84,-237.31"/>
<polygon fill="#63b8ff" stroke="#63b8ff" points="308.71,-240.81 318.71,-237.31 308.71,-233.81 308.71,-240.81"/>
</g>
<!-- Node38&#45;&gt;Node15 -->
<g id="edge29" class="edge">
<title>Node38&#45;&gt;Node15</title>
<path fill="none" stroke="#63b8ff" d="M252.05,-223.17C268.66,-218.38 287.46,-212.97 305.07,-207.89"/>
<polygon fill="#63b8ff" stroke="#63b8ff" points="305.76,-211.33 314.4,-205.2 303.82,-204.61 305.76,-211.33"/>
</g>
<!-- Node38&#45;&gt;Node21 -->
<g id="edge30" class="edge">
<title>Node38&#45;&gt;Node21</title>
<path fill="none" stroke="#63b8ff" d="M252.05,-249.98C274.19,-255.7 300.23,-262.42 322.16,-268.09"/>
<polygon fill="#63b8ff" stroke="#63b8ff" points="321.19,-271.45 331.75,-270.56 322.94,-264.67 321.19,-271.45"/>
</g>
<!-- Node39&#45;&gt;Node13 -->
<g id="edge32" class="edge">
<title>Node39&#45;&gt;Node13</title>
<path fill="none" stroke="#63b8ff" d="M252.05,-203.46C270.02,-208.63 290.55,-214.55 309.37,-219.98"/>
<polygon fill="#63b8ff" stroke="#63b8ff" points="308.19,-223.28 318.77,-222.69 310.13,-216.55 308.19,-223.28"/>
</g>
<!-- Node39&#45;&gt;Node15 -->
<g id="edge33" class="edge">
<title>Node39&#45;&gt;Node15</title>
<path fill="none" stroke="#63b8ff" d="M252.05,-189.31C268.19,-189.31 286.39,-189.31 303.57,-189.31"/>
<polygon fill="#63b8ff" stroke="#63b8ff" points="303.16,-192.81 313.16,-189.31 303.16,-185.81 303.16,-192.81"/>
</g>
<!-- Node40&#45;&gt;Node13 -->
<g id="edge35" class="edge">
<title>Node40&#45;&gt;Node13</title>
<path fill="none" stroke="#63b8ff" d="M252.5,-156.1C257.98,-158.74 263.27,-161.79 268,-165.31 289.38,-181.25 282.6,-197.4 304,-213.31 306.01,-214.81 308.13,-216.22 310.32,-217.55"/>
<polygon fill="#63b8ff" stroke="#63b8ff" points="308.49,-220.54 318.96,-222.17 311.79,-214.37 308.49,-220.54"/>
</g>
<!-- Node40&#45;&gt;Node15 -->
<g id="edge36" class="edge">
<title>Node40&#45;&gt;Node15</title>
<path fill="none" stroke="#63b8ff" d="M252.05,-155.46C268.66,-160.24 287.46,-165.66 305.07,-170.74"/>
<polygon fill="#63b8ff" stroke="#63b8ff" points="303.82,-174.02 314.4,-173.43 305.76,-167.29 303.82,-174.02"/>
</g>
</g>
</svg>
