<?xml version="1.0" encoding="UTF-8" standalone="no"?>
<!DOCTYPE svg PUBLIC "-//W3C//DTD SVG 1.1//EN"
 "http://www.w3.org/Graphics/SVG/1.1/DTD/svg11.dtd">
<!-- Generated by graphviz version 7.0.3 (0)
 -->
<!-- Title: Urho3D::ParticleEmitter2D::OnSetEnabled Pages: 1 -->
<svg width="699pt" height="543pt"
 viewBox="0.00 0.00 699.00 542.50" xmlns="http://www.w3.org/2000/svg" xmlns:xlink="http://www.w3.org/1999/xlink">
<g id="graph0" class="graph" transform="scale(1 1) rotate(0) translate(4 538.5)">
<title>Urho3D::ParticleEmitter2D::OnSetEnabled</title>
<!-- Node1 -->
<g id="node1" class="node">
<title>Node1</title>
<g id="a_node1"><a xlink:title="Handle enabled/disabled state change.">
<polygon fill="#999999" stroke="#666666" points="125,-307 0,-307 0,-277 125,-277 125,-307"/>
<text text-anchor="start" x="8" y="-295" font-family="Roboto" font-size="10.00">Urho3D::ParticleEmitter2</text>
<text text-anchor="middle" x="62.5" y="-284" font-family="Roboto" font-size="10.00">D::OnSetEnabled</text>
</a>
</g>
</g>
<!-- Node2 -->
<g id="node2" class="node">
<title>Node2</title>
<g id="a_node2"><a xlink:href="class_urho3_d_1_1_component.html#a2c22f727341671a0420934f249ffe059" target="_top" xlink:title="Return the scene the node belongs to.">
<polygon fill="white" stroke="#666666" points="287.5,-493 176.5,-493 176.5,-463 287.5,-463 287.5,-493"/>
<text text-anchor="start" x="184.5" y="-481" font-family="Roboto" font-size="10.00">Urho3D::Component::</text>
<text text-anchor="middle" x="232" y="-470" font-family="Roboto" font-size="10.00">GetScene</text>
</a>
</g>
</g>
<!-- Node1&#45;&gt;Node2 -->
<g id="edge1" class="edge">
<title>Node1&#45;&gt;Node2</title>
<path fill="none" stroke="#63b8ff" d="M75.71,-307.37C93.79,-329.93 128.99,-373.1 161,-408 175.72,-424.05 193.01,-441.36 206.73,-454.75"/>
<polygon fill="#63b8ff" stroke="#63b8ff" points="204.05,-457.03 213.67,-461.48 208.93,-452.01 204.05,-457.03"/>
</g>
<!-- Node4 -->
<g id="node4" class="node">
<title>Node4</title>
<g id="a_node4"><a xlink:href="class_urho3_d_1_1_particle_emitter2_d.html#abaa5fbe514eb5d5904039f69cd75257d" target="_top" xlink:title="Handle scene post update.">
<polygon fill="white" stroke="#666666" points="301,-399 163,-399 163,-369 301,-369 301,-399"/>
<text text-anchor="start" x="171" y="-387" font-family="Roboto" font-size="10.00">Urho3D::ParticleEmitter2</text>
<text text-anchor="middle" x="232" y="-376" font-family="Roboto" font-size="10.00">D::HandleScenePostUpdate</text>
</a>
</g>
</g>
<!-- Node1&#45;&gt;Node4 -->
<g id="edge3" class="edge">
<title>Node1&#45;&gt;Node4</title>
<path fill="none" stroke="#63b8ff" d="M91.54,-307.4C119.32,-322.66 162.06,-346.14 192.91,-363.08"/>
<polygon fill="#63b8ff" stroke="#63b8ff" points="191.1,-366.08 201.55,-367.82 194.47,-359.94 191.1,-366.08"/>
</g>
<!-- Node40 -->
<g id="node15" class="node">
<title>Node40</title>
<g id="a_node15"><a xlink:href="class_urho3_d_1_1_component.html#aafa7952d0f225edde3387da0c91a9356" target="_top" xlink:title=" ">
<polygon fill="white" stroke="#666666" points="471,-308 360,-308 360,-278 471,-278 471,-308"/>
<text text-anchor="start" x="368" y="-296" font-family="Roboto" font-size="10.00">Urho3D::Component::</text>
<text text-anchor="middle" x="415.5" y="-285" font-family="Roboto" font-size="10.00">IsEnabledEffective</text>
</a>
</g>
</g>
<!-- Node1&#45;&gt;Node40 -->
<g id="edge15" class="edge">
<title>Node1&#45;&gt;Node40</title>
<path fill="none" stroke="#63b8ff" d="M125.39,-294.19C137.21,-294.53 149.49,-294.82 161,-295 224.1,-295.97 239.89,-295.57 303,-295 317.73,-294.87 333.56,-294.64 348.53,-294.38"/>
<polygon fill="#63b8ff" stroke="#63b8ff" points="348.33,-297.88 358.26,-294.2 348.2,-290.88 348.33,-297.88"/>
</g>
<!-- Node42 -->
<g id="node17" class="node">
<title>Node42</title>
<g id="a_node17"><a xlink:href="class_urho3_d_1_1_drawable2_d.html#a3b57577a9a06e84567d215bc0c31bc86" target="_top" xlink:title="Handle enabled/disabled state change.">
<polygon fill="white" stroke="#666666" points="285.5,-286 178.5,-286 178.5,-256 285.5,-256 285.5,-286"/>
<text text-anchor="start" x="186.5" y="-274" font-family="Roboto" font-size="10.00">Urho3D::Drawable2D</text>
<text text-anchor="middle" x="232" y="-263" font-family="Roboto" font-size="10.00">::OnSetEnabled</text>
</a>
</g>
</g>
<!-- Node1&#45;&gt;Node42 -->
<g id="edge17" class="edge">
<title>Node1&#45;&gt;Node42</title>
<path fill="none" stroke="#63b8ff" d="M125.39,-284.24C138.94,-282.54 153.3,-280.74 166.92,-279.03"/>
<polygon fill="#63b8ff" stroke="#63b8ff" points="167.17,-282.53 176.66,-277.81 166.3,-275.58 167.17,-282.53"/>
</g>
<!-- Node43 -->
<g id="node18" class="node">
<title>Node43</title>
<g id="a_node18"><a xlink:href="class_urho3_d_1_1_object.html#a7d9d061f4cf32f5fd5531e11a72834b6" target="_top" xlink:title="Subscribe to an event that can be sent by any sender.">
<polygon fill="white" stroke="#666666" points="297.5,-225 166.5,-225 166.5,-195 297.5,-195 297.5,-225"/>
<text text-anchor="start" x="174.5" y="-213" font-family="Roboto" font-size="10.00">Urho3D::Object::Subscribe</text>
<text text-anchor="middle" x="232" y="-202" font-family="Roboto" font-size="10.00">ToEvent</text>
</a>
</g>
</g>
<!-- Node1&#45;&gt;Node43 -->
<g id="edge19" class="edge">
<title>Node1&#45;&gt;Node43</title>
<path fill="none" stroke="#63b8ff" d="M95.01,-276.58C121.59,-263.56 159.87,-244.82 189.05,-230.54"/>
<polygon fill="#63b8ff" stroke="#63b8ff" points="190.55,-233.7 197.99,-226.16 187.47,-227.41 190.55,-233.7"/>
</g>
<!-- Node48 -->
<g id="node23" class="node">
<title>Node48</title>
<g id="a_node23"><a xlink:href="class_urho3_d_1_1_object.html#a153b96c4397e045b2ca2b2d5471d097c" target="_top" xlink:title="Unsubscribe from an event.">
<polygon fill="white" stroke="#666666" points="303,-100 161,-100 161,-70 303,-70 303,-100"/>
<text text-anchor="start" x="169" y="-88" font-family="Roboto" font-size="10.00">Urho3D::Object::Unsubscribe</text>
<text text-anchor="middle" x="232" y="-77" font-family="Roboto" font-size="10.00">FromEvent</text>
</a>
</g>
</g>
<!-- Node1&#45;&gt;Node48 -->
<g id="edge24" class="edge">
<title>Node1&#45;&gt;Node48</title>
<path fill="none" stroke="#63b8ff" d="M75.82,-276.78C104.68,-241.12 176.85,-151.92 211.64,-108.92"/>
<polygon fill="#63b8ff" stroke="#63b8ff" points="214.14,-111.4 217.71,-101.42 208.7,-106.99 214.14,-111.4"/>
</g>
<!-- Node3 -->
<g id="node3" class="node">
<title>Node3</title>
<g id="a_node3"><a xlink:href="class_urho3_d_1_1_node.html#ad3742cda838a2b291daa44d3ab00de56" target="_top" xlink:title=" ">
<polygon fill="white" stroke="#666666" points="478.5,-534.5 352.5,-534.5 352.5,-515.5 478.5,-515.5 478.5,-534.5"/>
<text text-anchor="middle" x="415.5" y="-522.5" font-family="Roboto" font-size="10.00">Urho3D::Node::GetScene</text>
</a>
</g>
</g>
<!-- Node2&#45;&gt;Node3 -->
<g id="edge2" class="edge">
<title>Node2&#45;&gt;Node3</title>
<path fill="none" stroke="#63b8ff" d="M287.92,-493.4C304.33,-497.89 322.36,-502.74 339,-507 346.02,-508.8 353.43,-510.63 360.74,-512.41"/>
<polygon fill="#63b8ff" stroke="#63b8ff" points="359.7,-515.76 370.24,-514.7 361.34,-508.96 359.7,-515.76"/>
</g>
<!-- Node5 -->
<g id="node5" class="node">
<title>Node5</title>
<g id="a_node5"><a xlink:href="class_urho3_d_1_1_weak_ptr.html#a80470479c6c1e102058e458fe5d20190" target="_top" xlink:title="Return whether the object has expired. If null pointer, always return true.">
<polygon fill="white" stroke="#666666" points="481,-497.5 350,-497.5 350,-478.5 481,-478.5 481,-497.5"/>
<text text-anchor="middle" x="415.5" y="-485.5" font-family="Roboto" font-size="10.00">Urho3D::WeakPtr::Expired</text>
</a>
</g>
</g>
<!-- Node4&#45;&gt;Node5 -->
<g id="edge4" class="edge">
<title>Node4&#45;&gt;Node5</title>
<path fill="none" stroke="#63b8ff" d="M247.68,-399.28C266.89,-418.41 302.46,-450.84 339,-469 343.15,-471.06 347.55,-472.92 352.05,-474.58"/>
<polygon fill="#63b8ff" stroke="#63b8ff" points="350.64,-477.8 361.23,-477.63 352.85,-471.15 350.64,-477.8"/>
</g>
<!-- Node6 -->
<g id="node6" class="node">
<title>Node6</title>
<g id="a_node6"><a xlink:href="class_urho3_d_1_1_object.html#a69af51cfa67f9626273b35a6d501e03e" target="_top" xlink:title="Return a preallocated map for event data. Used for optimization to avoid constant re&#45;allocation of ev...">
<polygon fill="white" stroke="#666666" points="478,-460 353,-460 353,-430 478,-430 478,-460"/>
<text text-anchor="start" x="361" y="-448" font-family="Roboto" font-size="10.00">Urho3D::Object::GetEvent</text>
<text text-anchor="middle" x="415.5" y="-437" font-family="Roboto" font-size="10.00">DataMap</text>
</a>
</g>
</g>
<!-- Node4&#45;&gt;Node6 -->
<g id="edge5" class="edge">
<title>Node4&#45;&gt;Node6</title>
<path fill="none" stroke="#63b8ff" d="M276.48,-399.49C295.62,-406.22 318.38,-414.13 339,-421 344.04,-422.68 349.27,-424.4 354.53,-426.1"/>
<polygon fill="#63b8ff" stroke="#63b8ff" points="353.26,-429.37 363.85,-429.11 355.41,-422.71 353.26,-429.37"/>
</g>
<!-- Node19 -->
<g id="node8" class="node">
<title>Node19</title>
<g id="a_node8"><a xlink:href="class_urho3_d_1_1_object.html#a32020dbf77c196b9777eca479e8abb36" target="_top" xlink:title="Send event to all subscribers.">
<polygon fill="white" stroke="#666666" points="482,-393.5 349,-393.5 349,-374.5 482,-374.5 482,-393.5"/>
<text text-anchor="middle" x="415.5" y="-381.5" font-family="Roboto" font-size="10.00">Urho3D::Object::SendEvent</text>
</a>
</g>
</g>
<!-- Node4&#45;&gt;Node19 -->
<g id="edge7" class="edge">
<title>Node4&#45;&gt;Node19</title>
<path fill="none" stroke="#63b8ff" d="M301.36,-384C313.09,-384 325.35,-384 337.28,-384"/>
<polygon fill="#63b8ff" stroke="#63b8ff" points="337.09,-387.5 347.09,-384 337.09,-380.5 337.09,-387.5"/>
</g>
<!-- Node20 -->
<g id="node9" class="node">
<title>Node20</title>
<g id="a_node9"><a xlink:href="class_urho3_d_1_1_particle_emitter2_d.html#a59d6b326bcbe8273a103208935845cef" target="_top" xlink:title="Update.">
<polygon fill="#fff0f0" stroke="red" points="478,-356 353,-356 353,-326 478,-326 478,-356"/>
<text text-anchor="start" x="361" y="-344" font-family="Roboto" font-size="10.00">Urho3D::ParticleEmitter2</text>
<text text-anchor="middle" x="415.5" y="-333" font-family="Roboto" font-size="10.00">D::Update</text>
</a>
</g>
</g>
<!-- Node4&#45;&gt;Node20 -->
<g id="edge9" class="edge">
<title>Node4&#45;&gt;Node20</title>
<path fill="none" stroke="#63b8ff" d="M298.27,-368.54C312.36,-365.2 327.34,-361.65 341.7,-358.25"/>
<polygon fill="#63b8ff" stroke="#63b8ff" points="342.14,-361.74 351.06,-356.03 340.53,-354.93 342.14,-361.74"/>
</g>
<!-- Node7 -->
<g id="node7" class="node">
<title>Node7</title>
<g id="a_node7"><a xlink:href="class_urho3_d_1_1_context.html#acb628095602a49ade116c4761ab44004" target="_top" xlink:title="Return a preallocated map for event data. Used for optimization to avoid constant re&#45;allocation of ev...">
<polygon fill="#fff0f0" stroke="red" points="675.5,-495 543.5,-495 543.5,-465 675.5,-465 675.5,-495"/>
<text text-anchor="start" x="551.5" y="-483" font-family="Roboto" font-size="10.00">Urho3D::Context::GetEvent</text>
<text text-anchor="middle" x="609.5" y="-472" font-family="Roboto" font-size="10.00">DataMap</text>
</a>
</g>
</g>
<!-- Node6&#45;&gt;Node7 -->
<g id="edge6" class="edge">
<title>Node6&#45;&gt;Node7</title>
<path fill="none" stroke="#63b8ff" d="M478.31,-456.27C495.38,-459.38 514.12,-462.8 531.93,-466.04"/>
<polygon fill="#63b8ff" stroke="#63b8ff" points="531.21,-469.47 541.68,-467.82 532.47,-462.58 531.21,-469.47"/>
</g>
<!-- Node19&#45;&gt;Node19 -->
<g id="edge8" class="edge">
<title>Node19&#45;&gt;Node19</title>
<path fill="none" stroke="#63b8ff" d="M386.77,-393.87C373.67,-402.44 383.24,-411.5 415.5,-411.5 434.15,-411.5 445.22,-408.47 448.7,-404.26"/>
<polygon fill="#63b8ff" stroke="#63b8ff" points="452,-403.06 444.83,-395.26 445.57,-405.83 452,-403.06"/>
</g>
<!-- Node21 -->
<g id="node10" class="node">
<title>Node21</title>
<g id="a_node10"><a xlink:href="class_urho3_d_1_1_particle_emitter2_d.html#a88c18c19af463afd96e5e5cdc52d6d1a" target="_top" xlink:title="Emit particle.">
<polygon fill="#fff0f0" stroke="red" points="672,-447 547,-447 547,-417 672,-417 672,-447"/>
<text text-anchor="start" x="555" y="-435" font-family="Roboto" font-size="10.00">Urho3D::ParticleEmitter2</text>
<text text-anchor="middle" x="609.5" y="-424" font-family="Roboto" font-size="10.00">D::EmitParticle</text>
</a>
</g>
</g>
<!-- Node20&#45;&gt;Node21 -->
<g id="edge10" class="edge">
<title>Node20&#45;&gt;Node21</title>
<path fill="none" stroke="#63b8ff" d="M474.13,-356.38C480.4,-359.12 486.5,-362.31 492,-366 512.42,-379.7 507.38,-394.61 528,-408 530.69,-409.75 533.52,-411.38 536.44,-412.89"/>
<polygon fill="#63b8ff" stroke="#63b8ff" points="534.72,-415.95 545.26,-416.96 537.65,-409.59 534.72,-415.95"/>
</g>
<!-- Node26 -->
<g id="node11" class="node">
<title>Node26</title>
<g id="a_node11"><a xlink:href="class_urho3_d_1_1_component.html#ada751ff77fe3e5bc417db31cfebc0df8" target="_top" xlink:title=" ">
<polygon fill="white" stroke="#666666" points="665,-399 554,-399 554,-369 665,-369 665,-399"/>
<text text-anchor="start" x="562" y="-387" font-family="Roboto" font-size="10.00">Urho3D::Component::</text>
<text text-anchor="middle" x="609.5" y="-376" font-family="Roboto" font-size="10.00">GetNode</text>
</a>
</g>
</g>
<!-- Node20&#45;&gt;Node26 -->
<g id="edge11" class="edge">
<title>Node20&#45;&gt;Node26</title>
<path fill="none" stroke="#63b8ff" d="M478.31,-354.84C498.84,-359.44 521.78,-364.58 542.61,-369.24"/>
<polygon fill="#63b8ff" stroke="#63b8ff" points="541.61,-372.61 552.14,-371.38 543.14,-365.78 541.61,-372.61"/>
</g>
<!-- Node27 -->
<g id="node12" class="node">
<title>Node27</title>
<g id="a_node12"><a xlink:href="class_urho3_d_1_1_node.html#a8f3fe7808b7af4975ddb21be8a269ece" target="_top" xlink:title=" ">
<polygon fill="white" stroke="#666666" points="690.5,-350.5 528.5,-350.5 528.5,-331.5 690.5,-331.5 690.5,-350.5"/>
<text text-anchor="middle" x="609.5" y="-338.5" font-family="Roboto" font-size="10.00">Urho3D::Node::GetWorldPosition</text>
</a>
</g>
</g>
<!-- Node20&#45;&gt;Node27 -->
<g id="edge12" class="edge">
<title>Node20&#45;&gt;Node27</title>
<path fill="none" stroke="#63b8ff" d="M478.31,-341C490.6,-341 503.76,-341 516.8,-341"/>
<polygon fill="#63b8ff" stroke="#63b8ff" points="516.71,-344.5 526.71,-341 516.71,-337.5 516.71,-344.5"/>
</g>
<!-- Node28 -->
<g id="node13" class="node">
<title>Node28</title>
<g id="a_node13"><a xlink:href="class_urho3_d_1_1_node.html#ad74175e15dfaa86263299e355a2d49ed" target="_top" xlink:title=" ">
<polygon fill="white" stroke="#666666" points="691,-313.5 528,-313.5 528,-294.5 691,-294.5 691,-313.5"/>
<text text-anchor="middle" x="609.5" y="-301.5" font-family="Roboto" font-size="10.00">Urho3D::Node::GetWorldRotation</text>
</a>
</g>
</g>
<!-- Node20&#45;&gt;Node28 -->
<g id="edge13" class="edge">
<title>Node20&#45;&gt;Node28</title>
<path fill="none" stroke="#63b8ff" d="M478.31,-329.09C499.87,-324.93 524.08,-320.27 545.73,-316.1"/>
<polygon fill="#63b8ff" stroke="#63b8ff" points="546.14,-319.58 555.29,-314.25 544.81,-312.71 546.14,-319.58"/>
</g>
<!-- Node29 -->
<g id="node14" class="node">
<title>Node29</title>
<g id="a_node14"><a xlink:href="class_urho3_d_1_1_node.html#a8ae450b752efd7da057b842882d28a23" target="_top" xlink:title=" ">
<polygon fill="white" stroke="#666666" points="684.5,-276.5 534.5,-276.5 534.5,-257.5 684.5,-257.5 684.5,-276.5"/>
<text text-anchor="middle" x="609.5" y="-264.5" font-family="Roboto" font-size="10.00">Urho3D::Node::GetWorldScale</text>
</a>
</g>
</g>
<!-- Node20&#45;&gt;Node29 -->
<g id="edge14" class="edge">
<title>Node20&#45;&gt;Node29</title>
<path fill="none" stroke="#63b8ff" d="M473.62,-325.59C479.98,-323.07 486.24,-320.22 492,-317 510.43,-306.7 509.19,-295.59 528,-286 531.92,-284 536.05,-282.21 540.29,-280.61"/>
<polygon fill="#63b8ff" stroke="#63b8ff" points="541.21,-283.99 549.56,-277.47 538.96,-277.36 541.21,-283.99"/>
</g>
<!-- Node41 -->
<g id="node16" class="node">
<title>Node41</title>
<g id="a_node16"><a xlink:href="class_urho3_d_1_1_node.html#a36ffa108037ab29617bf178fcb4ec1da" target="_top" xlink:title=" ">
<polygon fill="white" stroke="#666666" points="673.5,-239.5 545.5,-239.5 545.5,-220.5 673.5,-220.5 673.5,-239.5"/>
<text text-anchor="middle" x="609.5" y="-227.5" font-family="Roboto" font-size="10.00">Urho3D::Node::IsEnabled</text>
</a>
</g>
</g>
<!-- Node40&#45;&gt;Node41 -->
<g id="edge16" class="edge">
<title>Node40&#45;&gt;Node41</title>
<path fill="none" stroke="#63b8ff" d="M469.79,-277.53C477.34,-274.92 484.93,-272.05 492,-269 508.81,-261.75 510.93,-255.61 528,-249 533.69,-246.8 539.71,-244.8 545.79,-243"/>
<polygon fill="#63b8ff" stroke="#63b8ff" points="546.58,-246.42 555.3,-240.39 544.72,-239.67 546.58,-246.42"/>
</g>
<!-- Node42&#45;&gt;Node40 -->
<g id="edge18" class="edge">
<title>Node42&#45;&gt;Node40</title>
<path fill="none" stroke="#63b8ff" d="M285.99,-277.42C305.5,-279.79 327.84,-282.5 348.37,-284.98"/>
<polygon fill="#63b8ff" stroke="#63b8ff" points="347.71,-288.43 358.05,-286.16 348.55,-281.48 347.71,-288.43"/>
</g>
<!-- Node44 -->
<g id="node19" class="node">
<title>Node44</title>
<g id="a_node19"><a xlink:href="class_urho3_d_1_1_context.html#ae3e0c5db85e2395f3d34941003c816ad" target="_top" xlink:title="Add event receiver.">
<polygon fill="white" stroke="#666666" points="483.5,-260 347.5,-260 347.5,-230 483.5,-230 483.5,-260"/>
<text text-anchor="start" x="355.5" y="-248" font-family="Roboto" font-size="10.00">Urho3D::Context::AddEvent</text>
<text text-anchor="middle" x="415.5" y="-237" font-family="Roboto" font-size="10.00">Receiver</text>
</a>
</g>
</g>
<!-- Node43&#45;&gt;Node44 -->
<g id="edge20" class="edge">
<title>Node43&#45;&gt;Node44</title>
<path fill="none" stroke="#63b8ff" d="M297.76,-222.49C310.12,-224.87 323.18,-227.39 335.92,-229.85"/>
<polygon fill="#63b8ff" stroke="#63b8ff" points="335.04,-233.24 345.52,-231.7 336.37,-226.37 335.04,-233.24"/>
</g>
<!-- Node45 -->
<g id="node20" class="node">
<title>Node45</title>
<g id="a_node20"><a xlink:href="class_urho3_d_1_1_object.html#ad9d3702ab78a9d8a8ddad6aae7144abb" target="_top" xlink:title="Find the first event handler with specific sender.">
<polygon fill="white" stroke="#666666" points="485.5,-212 345.5,-212 345.5,-182 485.5,-182 485.5,-212"/>
<text text-anchor="start" x="353.5" y="-200" font-family="Roboto" font-size="10.00">Urho3D::Object::FindSpecific</text>
<text text-anchor="middle" x="415.5" y="-189" font-family="Roboto" font-size="10.00">EventHandler</text>
</a>
</g>
</g>
<!-- Node43&#45;&gt;Node45 -->
<g id="edge21" class="edge">
<title>Node43&#45;&gt;Node45</title>
<path fill="none" stroke="#63b8ff" d="M297.76,-205.36C309.41,-204.53 321.68,-203.65 333.72,-202.79"/>
<polygon fill="#63b8ff" stroke="#63b8ff" points="333.92,-206.28 343.65,-202.07 333.42,-199.3 333.92,-206.28"/>
</g>
<!-- Node47 -->
<g id="node22" class="node">
<title>Node47</title>
<g id="a_node22"><a xlink:href="class_urho3_d_1_1_event_handler.html#abe76f0245895dadac146b7a4b7d78713" target="_top" xlink:title="Set sender and event type.">
<polygon fill="white" stroke="#666666" points="479.5,-164 351.5,-164 351.5,-134 479.5,-134 479.5,-164"/>
<text text-anchor="start" x="359.5" y="-152" font-family="Roboto" font-size="10.00">Urho3D::EventHandler</text>
<text text-anchor="middle" x="415.5" y="-141" font-family="Roboto" font-size="10.00">::SetSenderAndEventType</text>
</a>
</g>
</g>
<!-- Node43&#45;&gt;Node47 -->
<g id="edge23" class="edge">
<title>Node43&#45;&gt;Node47</title>
<path fill="none" stroke="#63b8ff" d="M276.48,-194.51C295.62,-187.78 318.38,-179.87 339,-173 344.04,-171.32 349.27,-169.6 354.53,-167.9"/>
<polygon fill="#63b8ff" stroke="#63b8ff" points="355.41,-171.29 363.85,-164.89 353.26,-164.63 355.41,-171.29"/>
</g>
<!-- Node46 -->
<g id="node21" class="node">
<title>Node46</title>
<g id="a_node21"><a xlink:href="class_urho3_d_1_1_event_handler.html#a18d3379ef44dac87304f2b118e36c83e" target="_top" xlink:title="Return event sender. Null if the handler is non&#45;specific.">
<polygon fill="white" stroke="#666666" points="666,-162 553,-162 553,-132 666,-132 666,-162"/>
<text text-anchor="start" x="561" y="-150" font-family="Roboto" font-size="10.00">Urho3D::EventHandler</text>
<text text-anchor="middle" x="609.5" y="-139" font-family="Roboto" font-size="10.00">::GetSender</text>
</a>
</g>
</g>
<!-- Node45&#45;&gt;Node46 -->
<g id="edge22" class="edge">
<title>Node45&#45;&gt;Node46</title>
<path fill="none" stroke="#63b8ff" d="M475.94,-181.52C496.76,-176.1 520.27,-169.98 541.66,-164.41"/>
<polygon fill="#63b8ff" stroke="#63b8ff" points="542.36,-167.84 551.16,-161.93 540.6,-161.07 542.36,-167.84"/>
</g>
<!-- Node48&#45;&gt;Node46 -->
<g id="edge26" class="edge">
<title>Node48&#45;&gt;Node46</title>
<path fill="none" stroke="#63b8ff" d="M303.46,-95.23C355.6,-102.96 428.32,-114.07 492,-125 508.07,-127.76 525.35,-130.92 541.55,-133.96"/>
<polygon fill="#63b8ff" stroke="#63b8ff" points="540.61,-137.34 551.08,-135.76 541.91,-130.47 540.61,-137.34"/>
</g>
<!-- Node49 -->
<g id="node24" class="node">
<title>Node49</title>
<g id="a_node24"><a xlink:href="class_urho3_d_1_1_object.html#a00bec56f305dd6636d186e5b351d0264" target="_top" xlink:title="Find the first event handler with no specific sender.">
<polygon fill="#fff0f0" stroke="red" points="480,-78 351,-78 351,-48 480,-48 480,-78"/>
<text text-anchor="start" x="359" y="-66" font-family="Roboto" font-size="10.00">Urho3D::Object::FindEvent</text>
<text text-anchor="middle" x="415.5" y="-55" font-family="Roboto" font-size="10.00">Handler</text>
</a>
</g>
</g>
<!-- Node48&#45;&gt;Node49 -->
<g id="edge25" class="edge">
<title>Node48&#45;&gt;Node49</title>
<path fill="none" stroke="#63b8ff" d="M303.43,-76.46C315.21,-75.03 327.47,-73.55 339.37,-72.11"/>
<polygon fill="#63b8ff" stroke="#63b8ff" points="339.62,-75.6 349.13,-70.92 338.78,-68.65 339.62,-75.6"/>
</g>
<!-- Node51 -->
<g id="node25" class="node">
<title>Node51</title>
<g id="a_node25"><a xlink:href="class_urho3_d_1_1_context.html#a7b5bd076e695054df7930255c3eee18b" target="_top" xlink:title="Remove event receiver from specific events.">
<polygon fill="#fff0f0" stroke="red" points="492,-30 339,-30 339,0 492,0 492,-30"/>
<text text-anchor="start" x="347" y="-18" font-family="Roboto" font-size="10.00">Urho3D::Context::RemoveEvent</text>
<text text-anchor="middle" x="415.5" y="-7" font-family="Roboto" font-size="10.00">Receiver</text>
</a>
</g>
</g>
<!-- Node48&#45;&gt;Node51 -->
<g id="edge27" class="edge">
<title>Node48&#45;&gt;Node51</title>
<path fill="none" stroke="#63b8ff" d="M266.06,-69.62C286.8,-60.23 314.2,-48.29 339,-39 343.42,-37.34 348.01,-35.7 352.65,-34.1"/>
<polygon fill="#63b8ff" stroke="#63b8ff" points="353.7,-37.43 362.06,-30.92 351.46,-30.8 353.7,-37.43"/>
</g>
</g>
</svg>
