<?xml version="1.0" encoding="UTF-8" standalone="no"?>
<!DOCTYPE svg PUBLIC "-//W3C//DTD SVG 1.1//EN"
 "http://www.w3.org/Graphics/SVG/1.1/DTD/svg11.dtd">
<!-- Generated by graphviz version 7.0.3 (0)
 -->
<!-- Title: Urho3D::Drawable::ProcessRayQuery Pages: 1 -->
<svg width="646pt" height="232pt"
 viewBox="0.00 0.00 646.00 232.00" xmlns="http://www.w3.org/2000/svg" xmlns:xlink="http://www.w3.org/1999/xlink">
<g id="graph0" class="graph" transform="scale(1 1) rotate(0) translate(4 228)">
<title>Urho3D::Drawable::ProcessRayQuery</title>
<!-- Node1 -->
<g id="node1" class="node">
<title>Node1</title>
<g id="a_node1"><a xlink:title="Process octree raycast. May be called from a worker thread.">
<polygon fill="#999999" stroke="#666666" points="136,-154 0,-154 0,-124 136,-124 136,-154"/>
<text text-anchor="start" x="8" y="-142" font-family="Roboto" font-size="10.00">Urho3D::Drawable::Process</text>
<text text-anchor="middle" x="68" y="-131" font-family="Roboto" font-size="10.00">RayQuery</text>
</a>
</g>
</g>
<!-- Node2 -->
<g id="node2" class="node">
<title>Node2</title>
<g id="a_node2"><a xlink:href="class_urho3_d_1_1_component.html#ada751ff77fe3e5bc417db31cfebc0df8" target="_top" xlink:title=" ">
<polygon fill="white" stroke="#666666" points="298.5,-224 187.5,-224 187.5,-194 298.5,-194 298.5,-224"/>
<text text-anchor="start" x="195.5" y="-212" font-family="Roboto" font-size="10.00">Urho3D::Component::</text>
<text text-anchor="middle" x="243" y="-201" font-family="Roboto" font-size="10.00">GetNode</text>
</a>
</g>
</g>
<!-- Node1&#45;&gt;Node2 -->
<g id="edge1" class="edge">
<title>Node1&#45;&gt;Node2</title>
<path fill="none" stroke="#63b8ff" d="M101.62,-154.47C121.72,-163.77 148.13,-175.6 172,-185 176.05,-186.6 180.26,-188.19 184.51,-189.76"/>
<polygon fill="#63b8ff" stroke="#63b8ff" points="183.08,-192.96 193.67,-193.06 185.45,-186.37 183.08,-192.96"/>
</g>
<!-- Node3 -->
<g id="node3" class="node">
<title>Node3</title>
<g id="a_node3"><a xlink:href="class_urho3_d_1_1_drawable.html#a3930dc9342c0aefcfd4c94eb8079e365" target="_top" xlink:title=" ">
<polygon fill="white" stroke="#666666" points="314,-176 172,-176 172,-146 314,-146 314,-176"/>
<text text-anchor="start" x="180" y="-164" font-family="Roboto" font-size="10.00">Urho3D::Drawable::GetWorld</text>
<text text-anchor="middle" x="243" y="-153" font-family="Roboto" font-size="10.00">BoundingBox</text>
</a>
</g>
</g>
<!-- Node1&#45;&gt;Node3 -->
<g id="edge2" class="edge">
<title>Node1&#45;&gt;Node3</title>
<path fill="none" stroke="#63b8ff" d="M136.38,-147.57C144.25,-148.57 152.34,-149.6 160.37,-150.62"/>
<polygon fill="#63b8ff" stroke="#63b8ff" points="159.8,-154.07 170.16,-151.86 160.68,-147.13 159.8,-154.07"/>
</g>
<!-- Node5 -->
<g id="node5" class="node">
<title>Node5</title>
<g id="a_node5"><a xlink:href="class_urho3_d_1_1_ray.html#a5cf1fab1805b18c51c9d65745a9ed4a2" target="_top" xlink:title="Return hit distance to a plane, or infinity if no hit.">
<polygon fill="white" stroke="#666666" points="306,-127.5 180,-127.5 180,-108.5 306,-108.5 306,-127.5"/>
<text text-anchor="middle" x="243" y="-115.5" font-family="Roboto" font-size="10.00">Urho3D::Ray::HitDistance</text>
</a>
</g>
</g>
<!-- Node1&#45;&gt;Node5 -->
<g id="edge4" class="edge">
<title>Node1&#45;&gt;Node5</title>
<path fill="none" stroke="#63b8ff" d="M136.38,-130.82C146.83,-129.55 157.68,-128.24 168.26,-126.95"/>
<polygon fill="#63b8ff" stroke="#63b8ff" points="168.6,-130.44 178.11,-125.76 167.76,-123.49 168.6,-130.44"/>
</g>
<!-- Node8 -->
<g id="node8" class="node">
<title>Node8</title>
<g id="a_node8"><a xlink:href="class_urho3_d_1_1_p_o_d_vector.html#a3eb78093c096ab9e9d68595facc56470" target="_top" xlink:title="Add an element at the end.">
<polygon fill="white" stroke="#666666" points="308,-72.5 178,-72.5 178,-53.5 308,-53.5 308,-72.5"/>
<text text-anchor="middle" x="243" y="-60.5" font-family="Roboto" font-size="10.00">Urho3D::PODVector::Push</text>
</a>
</g>
</g>
<!-- Node1&#45;&gt;Node8 -->
<g id="edge8" class="edge">
<title>Node1&#45;&gt;Node8</title>
<path fill="none" stroke="#63b8ff" d="M104.01,-123.62C134.7,-110.14 178.98,-90.68 209.04,-77.48"/>
<polygon fill="#63b8ff" stroke="#63b8ff" points="210.29,-80.75 218.04,-73.53 207.48,-74.34 210.29,-80.75"/>
</g>
<!-- Node4 -->
<g id="node4" class="node">
<title>Node4</title>
<g id="a_node4"><a xlink:href="class_urho3_d_1_1_drawable.html#af146747caaf6fd85ab71fda4e364bde4" target="_top" xlink:title="Recalculate the world&#45;space bounding box.">
<polygon fill="white" stroke="#666666" points="491.5,-213 352.5,-213 352.5,-183 491.5,-183 491.5,-213"/>
<text text-anchor="start" x="360.5" y="-201" font-family="Roboto" font-size="10.00">Urho3D::Drawable::OnWorld</text>
<text text-anchor="middle" x="422" y="-190" font-family="Roboto" font-size="10.00">BoundingBoxUpdate</text>
</a>
</g>
</g>
<!-- Node3&#45;&gt;Node4 -->
<g id="edge3" class="edge">
<title>Node3&#45;&gt;Node4</title>
<path fill="none" stroke="#63b8ff" d="M314.46,-175.73C323.21,-177.56 332.2,-179.44 341.07,-181.29"/>
<polygon fill="#63b8ff" stroke="#63b8ff" points="340.24,-184.69 350.74,-183.31 341.67,-177.84 340.24,-184.69"/>
</g>
<!-- Node6 -->
<g id="node6" class="node">
<title>Node6</title>
<g id="a_node6"><a xlink:href="_math_defs_8h.html#ac3865cf9a0484b8452ccc4e62c5661ca" target="_top" xlink:title=" ">
<polygon fill="white" stroke="#666666" points="458,-146.5 386,-146.5 386,-127.5 458,-127.5 458,-146.5"/>
<text text-anchor="middle" x="422" y="-134.5" font-family="Roboto" font-size="10.00">Urho3D::Abs</text>
</a>
</g>
</g>
<!-- Node5&#45;&gt;Node6 -->
<g id="edge5" class="edge">
<title>Node5&#45;&gt;Node6</title>
<path fill="none" stroke="#63b8ff" d="M306.4,-124.7C328.72,-127.09 353.47,-129.75 374.24,-131.98"/>
<polygon fill="#63b8ff" stroke="#63b8ff" points="373.83,-135.46 384.14,-133.04 374.57,-128.5 373.83,-135.46"/>
</g>
<!-- Node7 -->
<g id="node7" class="node">
<title>Node7</title>
<g id="a_node7"><a xlink:href="class_urho3_d_1_1_vector3.html#a3589f6f93422b543e3f8a4bdcc1d5f88" target="_top" xlink:title="Calculate dot product.">
<polygon fill="white" stroke="#666666" points="494,-109.5 350,-109.5 350,-90.5 494,-90.5 494,-109.5"/>
<text text-anchor="middle" x="422" y="-97.5" font-family="Roboto" font-size="10.00">Urho3D::Vector3::DotProduct</text>
</a>
</g>
</g>
<!-- Node5&#45;&gt;Node7 -->
<g id="edge7" class="edge">
<title>Node5&#45;&gt;Node7</title>
<path fill="none" stroke="#63b8ff" d="M306.4,-111.65C316.82,-110.59 327.76,-109.48 338.59,-108.38"/>
<polygon fill="#63b8ff" stroke="#63b8ff" points="338.69,-111.89 348.29,-107.39 337.99,-104.92 338.69,-111.89"/>
</g>
<!-- Node6&#45;&gt;Node6 -->
<g id="edge6" class="edge">
<title>Node6&#45;&gt;Node6</title>
<path fill="none" stroke="#63b8ff" d="M396.64,-146.87C385.07,-155.44 393.52,-164.5 422,-164.5 438.02,-164.5 447.7,-161.63 451.05,-157.6"/>
<polygon fill="#63b8ff" stroke="#63b8ff" points="454.41,-156.62 447.85,-148.3 447.79,-158.89 454.41,-156.62"/>
</g>
<!-- Node9 -->
<g id="node9" class="node">
<title>Node9</title>
<g id="a_node9"><a xlink:href="class_urho3_d_1_1_p_o_d_vector.html#a02b72389727e56688c9f6ed66c2f8733" target="_top" xlink:title="Return last element.">
<polygon fill="white" stroke="#666666" points="487,-72.5 357,-72.5 357,-53.5 487,-53.5 487,-72.5"/>
<text text-anchor="middle" x="422" y="-60.5" font-family="Roboto" font-size="10.00">Urho3D::PODVector::Back</text>
</a>
</g>
</g>
<!-- Node8&#45;&gt;Node9 -->
<g id="edge9" class="edge">
<title>Node8&#45;&gt;Node9</title>
<path fill="none" stroke="#63b8ff" d="M308.4,-63C320.43,-63 333.11,-63 345.44,-63"/>
<polygon fill="#63b8ff" stroke="#63b8ff" points="345.13,-66.5 355.13,-63 345.13,-59.5 345.13,-66.5"/>
</g>
<!-- Node11 -->
<g id="node11" class="node">
<title>Node11</title>
<g id="a_node11"><a xlink:href="class_urho3_d_1_1_p_o_d_vector.html#a90931bab46c47be9f1989f4ec86bd487" target="_top" xlink:title="Resize the vector.">
<polygon fill="white" stroke="#666666" points="476,-35 368,-35 368,-5 476,-5 476,-35"/>
<text text-anchor="start" x="376" y="-23" font-family="Roboto" font-size="10.00">Urho3D::PODVector::</text>
<text text-anchor="middle" x="422" y="-12" font-family="Roboto" font-size="10.00">Resize</text>
</a>
</g>
</g>
<!-- Node8&#45;&gt;Node11 -->
<g id="edge11" class="edge">
<title>Node8&#45;&gt;Node11</title>
<path fill="none" stroke="#63b8ff" d="M285.05,-53.03C306.3,-47.87 332.73,-41.44 356.62,-35.64"/>
<polygon fill="#63b8ff" stroke="#63b8ff" points="357.38,-39.06 366.27,-33.3 355.73,-32.25 357.38,-39.06"/>
</g>
<!-- Node10 -->
<g id="node10" class="node">
<title>Node10</title>
<g id="a_node10"><a xlink:href="class_urho3_d_1_1_p_o_d_vector.html#a75ae397d58ffa509b1c4df45913107d6" target="_top" xlink:title="Return the buffer with right type.">
<polygon fill="white" stroke="#666666" points="638,-78 530,-78 530,-48 638,-48 638,-78"/>
<text text-anchor="start" x="538" y="-66" font-family="Roboto" font-size="10.00">Urho3D::PODVector::</text>
<text text-anchor="middle" x="584" y="-55" font-family="Roboto" font-size="10.00">Buffer</text>
</a>
</g>
</g>
<!-- Node9&#45;&gt;Node10 -->
<g id="edge10" class="edge">
<title>Node9&#45;&gt;Node10</title>
<path fill="none" stroke="#63b8ff" d="M487.16,-63C497.39,-63 507.98,-63 518.23,-63"/>
<polygon fill="#63b8ff" stroke="#63b8ff" points="518.1,-66.5 528.1,-63 518.1,-59.5 518.1,-66.5"/>
</g>
<!-- Node11&#45;&gt;Node10 -->
<g id="edge12" class="edge">
<title>Node11&#45;&gt;Node10</title>
<path fill="none" stroke="#63b8ff" d="M476.28,-34.32C489.83,-37.96 504.55,-41.92 518.6,-45.69"/>
<polygon fill="#63b8ff" stroke="#63b8ff" points="517.65,-49.06 528.22,-48.28 519.47,-42.3 517.65,-49.06"/>
</g>
<!-- Node12 -->
<g id="node12" class="node">
<title>Node12</title>
<g id="a_node12"><a xlink:href="class_urho3_d_1_1_p_o_d_vector.html#ad95f32802a5ab7121a76ffbb900af590" target="_top" xlink:title="Copy elements from one buffer to another.">
<polygon fill="white" stroke="#666666" points="638,-30 530,-30 530,0 638,0 638,-30"/>
<text text-anchor="start" x="538" y="-18" font-family="Roboto" font-size="10.00">Urho3D::PODVector::</text>
<text text-anchor="middle" x="584" y="-7" font-family="Roboto" font-size="10.00">CopyElements</text>
</a>
</g>
</g>
<!-- Node11&#45;&gt;Node12 -->
<g id="edge13" class="edge">
<title>Node11&#45;&gt;Node12</title>
<path fill="none" stroke="#63b8ff" d="M476.28,-18.34C489.7,-17.92 504.26,-17.46 518.18,-17.03"/>
<polygon fill="#63b8ff" stroke="#63b8ff" points="518.28,-20.52 528.17,-16.71 518.07,-13.53 518.28,-20.52"/>
</g>
</g>
</svg>
