<?xml version="1.0" encoding="UTF-8" standalone="no"?>
<!DOCTYPE svg PUBLIC "-//W3C//DTD SVG 1.1//EN"
 "http://www.w3.org/Graphics/SVG/1.1/DTD/svg11.dtd">
<!-- Generated by graphviz version 7.0.3 (0)
 -->
<!-- Title: Urho3D::ListView::GetSelection Pages: 1 -->
<svg width="497pt" height="124pt"
 viewBox="0.00 0.00 497.00 123.50" xmlns="http://www.w3.org/2000/svg" xmlns:xlink="http://www.w3.org/1999/xlink">
<g id="graph0" class="graph" transform="scale(1 1) rotate(0) translate(4 119.5)">
<title>Urho3D::ListView::GetSelection</title>
<!-- Node1 -->
<g id="node1" class="node">
<title>Node1</title>
<g id="a_node1"><a xlink:title=" ">
<polygon fill="#999999" stroke="#666666" points="152,-62 0,-62 0,-43 152,-43 152,-62"/>
<text text-anchor="middle" x="76" y="-50" font-family="Roboto" font-size="10.00">Urho3D::ListView::GetSelection</text>
</a>
</g>
</g>
<!-- Node2 -->
<g id="node2" class="node">
<title>Node2</title>
<g id="a_node2"><a xlink:href="class_urho3_d_1_1_p_o_d_vector.html#a5be72d35fc52d2623985f20b95855d10" target="_top" xlink:title="Return whether vector is empty.">
<polygon fill="white" stroke="#666666" points="320.5,-115.5 212.5,-115.5 212.5,-85.5 320.5,-85.5 320.5,-115.5"/>
<text text-anchor="start" x="220.5" y="-103.5" font-family="Roboto" font-size="10.00">Urho3D::PODVector::</text>
<text text-anchor="middle" x="266.5" y="-92.5" font-family="Roboto" font-size="10.00">Empty</text>
</a>
</g>
</g>
<!-- Node1&#45;&gt;Node2 -->
<g id="edge1" class="edge">
<title>Node1&#45;&gt;Node2</title>
<path fill="none" stroke="#63b8ff" d="M116.06,-62.45C140.62,-68.7 172.9,-76.92 201.18,-84.12"/>
<polygon fill="#63b8ff" stroke="#63b8ff" points="200.17,-87.48 210.73,-86.55 201.9,-80.69 200.17,-87.48"/>
</g>
<!-- Node3 -->
<g id="node3" class="node">
<title>Node3</title>
<g id="a_node3"><a xlink:href="class_urho3_d_1_1_p_o_d_vector.html#a65b6612d9f6d21fab83c62c92ae3089c" target="_top" xlink:title="Return first element.">
<polygon fill="white" stroke="#666666" points="320.5,-67.5 212.5,-67.5 212.5,-37.5 320.5,-37.5 320.5,-67.5"/>
<text text-anchor="start" x="220.5" y="-55.5" font-family="Roboto" font-size="10.00">Urho3D::PODVector::</text>
<text text-anchor="middle" x="266.5" y="-44.5" font-family="Roboto" font-size="10.00">Front</text>
</a>
</g>
</g>
<!-- Node1&#45;&gt;Node3 -->
<g id="edge2" class="edge">
<title>Node1&#45;&gt;Node3</title>
<path fill="none" stroke="#63b8ff" d="M152.31,-52.5C168.4,-52.5 185.26,-52.5 200.91,-52.5"/>
<polygon fill="#63b8ff" stroke="#63b8ff" points="200.54,-56 210.54,-52.5 200.54,-49 200.54,-56"/>
</g>
<!-- Node5 -->
<g id="node5" class="node">
<title>Node5</title>
<g id="a_node5"><a xlink:href="class_urho3_d_1_1_list_view.html#a8bf45f58be4e7ef354e09dd9c8b66f2c" target="_top" xlink:title=" ">
<polygon fill="white" stroke="#666666" points="345,-19 188,-19 188,0 345,0 345,-19"/>
<text text-anchor="middle" x="266.5" y="-7" font-family="Roboto" font-size="10.00">Urho3D::ListView::GetSelections</text>
</a>
</g>
</g>
<!-- Node1&#45;&gt;Node5 -->
<g id="edge4" class="edge">
<title>Node1&#45;&gt;Node5</title>
<path fill="none" stroke="#63b8ff" d="M120.72,-42.53C147.51,-36.42 182.03,-28.54 210.64,-22.01"/>
<polygon fill="#63b8ff" stroke="#63b8ff" points="211.24,-25.47 220.22,-19.83 209.69,-18.64 211.24,-25.47"/>
</g>
<!-- Node4 -->
<g id="node4" class="node">
<title>Node4</title>
<g id="a_node4"><a xlink:href="class_urho3_d_1_1_p_o_d_vector.html#a75ae397d58ffa509b1c4df45913107d6" target="_top" xlink:title="Return the buffer with right type.">
<polygon fill="white" stroke="#666666" points="489,-67.5 381,-67.5 381,-37.5 489,-37.5 489,-67.5"/>
<text text-anchor="start" x="389" y="-55.5" font-family="Roboto" font-size="10.00">Urho3D::PODVector::</text>
<text text-anchor="middle" x="435" y="-44.5" font-family="Roboto" font-size="10.00">Buffer</text>
</a>
</g>
</g>
<!-- Node3&#45;&gt;Node4 -->
<g id="edge3" class="edge">
<title>Node3&#45;&gt;Node4</title>
<path fill="none" stroke="#63b8ff" d="M320.64,-52.5C336.03,-52.5 353.01,-52.5 369.04,-52.5"/>
<polygon fill="#63b8ff" stroke="#63b8ff" points="369,-56 379,-52.5 368.99,-49 369,-56"/>
</g>
</g>
</svg>
