<?xml version="1.0" encoding="UTF-8" standalone="no"?>
<!DOCTYPE svg PUBLIC "-//W3C//DTD SVG 1.1//EN"
 "http://www.w3.org/Graphics/SVG/1.1/DTD/svg11.dtd">
<!-- Generated by graphviz version 7.0.3 (0)
 -->
<!-- Title: Urho3D::UIElement::ApplyAttributes Pages: 1 -->
<svg width="276pt" height="76pt"
 viewBox="0.00 0.00 276.00 75.50" xmlns="http://www.w3.org/2000/svg" xmlns:xlink="http://www.w3.org/1999/xlink">
<g id="graph0" class="graph" transform="scale(1 1) rotate(0) translate(4 71.5)">
<title>Urho3D::UIElement::ApplyAttributes</title>
<!-- Node1 -->
<g id="node1" class="node">
<title>Node1</title>
<g id="a_node1"><a xlink:title="Apply attribute changes that can not be applied immediately.">
<polygon fill="#999999" stroke="#666666" points="268,-45.5 163,-45.5 163,-15.5 268,-15.5 268,-45.5"/>
<text text-anchor="start" x="171" y="-33.5" font-family="Roboto" font-size="10.00">Urho3D::UIElement::</text>
<text text-anchor="middle" x="215.5" y="-22.5" font-family="Roboto" font-size="10.00">ApplyAttributes</text>
</a>
</g>
</g>
<!-- Node2 -->
<g id="node2" class="node">
<title>Node2</title>
<g id="a_node2"><a xlink:href="class_urho3_d_1_1_scroll_view.html#af3d4f9cec7657b36a06ff4511a88cefd" target="_top" xlink:title="Apply attribute changes that can not be applied immediately.">
<polygon fill="white" stroke="#666666" points="114,-67.5 13,-67.5 13,-37.5 114,-37.5 114,-67.5"/>
<text text-anchor="start" x="21" y="-55.5" font-family="Roboto" font-size="10.00">Urho3D::ScrollView</text>
<text text-anchor="middle" x="63.5" y="-44.5" font-family="Roboto" font-size="10.00">::ApplyAttributes</text>
</a>
</g>
</g>
<!-- Node1&#45;&gt;Node2 -->
<g id="edge1" class="edge">
<title>Node1&#45;&gt;Node2</title>
<path fill="none" stroke="#63b8ff" d="M151.65,-39.72C139.23,-41.54 126.36,-43.43 114.44,-45.18"/>
<polygon fill="#63b8ff" stroke="#63b8ff" points="151.99,-43.2 161.38,-38.29 150.98,-36.28 151.99,-43.2"/>
</g>
<!-- Node3 -->
<g id="node3" class="node">
<title>Node3</title>
<g id="a_node3"><a xlink:href="class_urho3_d_1_1_menu.html#a00efa90d9d6a5023541fffd71a38a984" target="_top" xlink:title="Load from XML data with style. Return true if successful.">
<polygon fill="white" stroke="#666666" points="127,-19 0,-19 0,0 127,0 127,-19"/>
<text text-anchor="middle" x="63.5" y="-7" font-family="Roboto" font-size="10.00">Urho3D::Menu::LoadXML</text>
</a>
</g>
</g>
<!-- Node1&#45;&gt;Node3 -->
<g id="edge2" class="edge">
<title>Node1&#45;&gt;Node3</title>
<path fill="none" stroke="#63b8ff" d="M151.68,-21.7C143.63,-20.58 135.4,-19.43 127.36,-18.3"/>
<polygon fill="#63b8ff" stroke="#63b8ff" points="150.99,-25.14 161.38,-23.06 151.96,-18.21 150.99,-25.14"/>
</g>
</g>
</svg>
