<?xml version="1.0" encoding="UTF-8" standalone="no"?>
<!DOCTYPE svg PUBLIC "-//W3C//DTD SVG 1.1//EN"
 "http://www.w3.org/Graphics/SVG/1.1/DTD/svg11.dtd">
<!-- Generated by graphviz version 7.0.3 (0)
 -->
<!-- Title: Urho3D::Engine Pages: 1 -->
<svg width="1121pt" height="929pt"
 viewBox="0.00 0.00 1121.00 929.00" xmlns="http://www.w3.org/2000/svg" xmlns:xlink="http://www.w3.org/1999/xlink">
<g id="graph0" class="graph" transform="scale(1 1) rotate(0) translate(4 925)">
<title>Urho3D::Engine</title>
<!-- Node1 -->
<g id="node1" class="node">
<title>Node1</title>
<g id="a_node1"><a xlink:title="Urho3D engine. Creates the other subsystems.">
<polygon fill="#999999" stroke="#666666" points="1091,-669 1007,-669 1007,-650 1091,-650 1091,-669"/>
<text text-anchor="middle" x="1049" y="-657" font-family="Roboto" font-size="10.00">Urho3D::Engine</text>
</a>
</g>
</g>
<!-- Node2 -->
<g id="node2" class="node">
<title>Node2</title>
<g id="a_node2"><a xlink:href="class_urho3_d_1_1_object.html" target="_top" xlink:title=" ">
<polygon fill="white" stroke="#666666" points="513,-712 430,-712 430,-693 513,-693 513,-712"/>
<text text-anchor="middle" x="471.5" y="-700" font-family="Roboto" font-size="10.00">Urho3D::Object</text>
</a>
</g>
</g>
<!-- Node2&#45;&gt;Node1 -->
<g id="edge1" class="edge">
<title>Node2&#45;&gt;Node1</title>
<path fill="none" stroke="#63b8ff" d="M524.68,-701.97C615.11,-700.52 806.65,-695.06 967,-674.5 979.91,-672.85 993.88,-670.47 1006.52,-668.1"/>
<polygon fill="#63b8ff" stroke="#63b8ff" points="524.84,-698.47 514.9,-702.12 524.95,-705.47 524.84,-698.47"/>
</g>
<!-- Node18 -->
<g id="node18" class="node">
<title>Node18</title>
<g id="a_node18"><a xlink:href="class_urho3_d_1_1_event_handler.html" target="_top" xlink:title="Internal helper class for invoking event handler functions.">
<polygon fill="white" stroke="#666666" points="788,-825 675,-825 675,-806 788,-806 788,-825"/>
<text text-anchor="middle" x="731.5" y="-813" font-family="Roboto" font-size="10.00">Urho3D::EventHandler</text>
</a>
</g>
</g>
<!-- Node2&#45;&gt;Node18 -->
<g id="edge29" class="edge">
<title>Node2&#45;&gt;Node18</title>
<path fill="none" stroke="#9a32cd" stroke-dasharray="5,2" d="M492.51,-719.6C507.93,-732.08 530.23,-748.63 552,-759.5 595.15,-781.04 648.31,-796.44 685.34,-805.57"/>
<polygon fill="#9a32cd" stroke="#9a32cd" points="494.96,-717.09 485.03,-713.42 490.5,-722.49 494.96,-717.09"/>
<text text-anchor="middle" x="577.5" y="-793.5" font-family="Roboto" font-size="10.00"> receiver_</text>
<text text-anchor="middle" x="577.5" y="-782.5" font-family="Roboto" font-size="10.00">sender_</text>
</g>
<!-- Node3 -->
<g id="node3" class="node">
<title>Node3</title>
<g id="a_node3"><a xlink:href="class_urho3_d_1_1_ref_counted.html" target="_top" xlink:title="Base class for intrusively reference&#45;counted objects. These are noncopyable and non&#45;assignable.">
<polygon fill="white" stroke="#666666" points="318,-518 211,-518 211,-499 318,-499 318,-518"/>
<text text-anchor="middle" x="264.5" y="-506" font-family="Roboto" font-size="10.00">Urho3D::RefCounted</text>
</a>
</g>
</g>
<!-- Node3&#45;&gt;Node2 -->
<g id="edge2" class="edge">
<title>Node3&#45;&gt;Node2</title>
<path fill="none" stroke="#63b8ff" d="M284.23,-526.23C326.45,-566.18 427.85,-662.14 460.32,-692.86"/>
<polygon fill="#63b8ff" stroke="#63b8ff" points="286.72,-523.76 277.05,-519.43 281.9,-528.84 286.72,-523.76"/>
</g>
<!-- Node5 -->
<g id="node5" class="node">
<title>Node5</title>
<g id="a_node5"><a xlink:href="class_urho3_d_1_1_context.html" target="_top" xlink:title="Urho3D execution context. Provides access to subsystems, object factories and attributes,...">
<polygon fill="white" stroke="#666666" points="1093.5,-372 1004.5,-372 1004.5,-353 1093.5,-353 1093.5,-372"/>
<text text-anchor="middle" x="1049" y="-360" font-family="Roboto" font-size="10.00">Urho3D::Context</text>
</a>
</g>
</g>
<!-- Node3&#45;&gt;Node5 -->
<g id="edge5" class="edge">
<title>Node3&#45;&gt;Node5</title>
<path fill="none" stroke="#63b8ff" d="M329.42,-498.81C458.1,-479.23 744.41,-435.2 842,-416.5 897.92,-405.79 912.06,-403.44 967,-388.5 984.53,-383.73 1003.91,-377.55 1019.32,-372.4"/>
<polygon fill="#63b8ff" stroke="#63b8ff" points="329.07,-495.33 319.71,-500.29 330.12,-502.25 329.07,-495.33"/>
</g>
<!-- Node4 -->
<g id="node4" class="node">
<title>Node4</title>
<g id="a_node4"><a xlink:href="struct_urho3_d_1_1_ref_count.html" target="_top" xlink:title="Reference count structure.">
<polygon fill="white" stroke="#666666" points="108,-518 12,-518 12,-499 108,-499 108,-518"/>
<text text-anchor="middle" x="60" y="-506" font-family="Roboto" font-size="10.00">Urho3D::RefCount</text>
</a>
</g>
</g>
<!-- Node4&#45;&gt;Node3 -->
<g id="edge3" class="edge">
<title>Node4&#45;&gt;Node3</title>
<path fill="none" stroke="#9a32cd" stroke-dasharray="5,2" d="M119.98,-508.5C148.64,-508.5 182.81,-508.5 210.62,-508.5"/>
<polygon fill="#9a32cd" stroke="#9a32cd" points="119.99,-505 109.99,-508.5 119.99,-512 119.99,-505"/>
<text text-anchor="middle" x="161" y="-511.5" font-family="Roboto" font-size="10.00"> refCount_</text>
</g>
<!-- Node5&#45;&gt;Node2 -->
<g id="edge4" class="edge">
<title>Node5&#45;&gt;Node2</title>
<path fill="none" stroke="#9a32cd" stroke-dasharray="5,2" d="M1045.14,-383.52C1038.72,-421.82 1019.4,-502.57 967,-541.5 842.48,-634.02 764.15,-527.72 621,-587.5 560.22,-612.88 502.9,-669.81 481.42,-692.7"/>
<polygon fill="#9a32cd" stroke="#9a32cd" points="1048.58,-384.2 1046.62,-373.78 1041.65,-383.14 1048.58,-384.2"/>
<text text-anchor="middle" x="731.5" y="-590.5" font-family="Roboto" font-size="10.00"> context_</text>
</g>
<!-- Node6 -->
<g id="node6" class="node">
<title>Node6</title>
<g id="a_node6"><a xlink:href="class_urho3_d_1_1_hash_map.html" target="_top" xlink:title=" ">
<polygon fill="white" stroke="#666666" points="822.5,-159 640.5,-159 640.5,-118 822.5,-118 822.5,-159"/>
<text text-anchor="start" x="648.5" y="-147" font-family="Roboto" font-size="10.00">Urho3D::HashMap&lt; Urho3D</text>
<text text-anchor="start" x="648.5" y="-136" font-family="Roboto" font-size="10.00">::StringHash, Urho3D::</text>
<text text-anchor="middle" x="731.5" y="-125" font-family="Roboto" font-size="10.00">SharedPtr&lt; Urho3D::ObjectFactory &gt; &gt;</text>
</a>
</g>
</g>
<!-- Node6&#45;&gt;Node5 -->
<g id="edge6" class="edge">
<title>Node6&#45;&gt;Node5</title>
<path fill="none" stroke="#9a32cd" stroke-dasharray="5,2" d="M834.07,-151.28C878.91,-161.25 929.77,-178.98 967,-210.5 1014.46,-250.69 1038.27,-325.92 1045.53,-352.71"/>
<polygon fill="#9a32cd" stroke="#9a32cd" points="834.8,-147.86 824.3,-149.22 833.36,-154.71 834.8,-147.86"/>
<text text-anchor="middle" x="913.5" y="-213.5" font-family="Roboto" font-size="10.00"> factories_</text>
</g>
<!-- Node7 -->
<g id="node7" class="node">
<title>Node7</title>
<g id="a_node7"><a xlink:href="class_urho3_d_1_1_hash_base.html" target="_top" xlink:title="Hash set/map base class.">
<polygon fill="white" stroke="#666666" points="521.5,-202 421.5,-202 421.5,-183 521.5,-183 521.5,-202"/>
<text text-anchor="middle" x="471.5" y="-190" font-family="Roboto" font-size="10.00">Urho3D::HashBase</text>
</a>
</g>
</g>
<!-- Node7&#45;&gt;Node6 -->
<g id="edge7" class="edge">
<title>Node7&#45;&gt;Node6</title>
<path fill="none" stroke="#63b8ff" d="M531.13,-180.23C563.32,-173.49 603.93,-164.99 640.08,-157.42"/>
<polygon fill="#63b8ff" stroke="#63b8ff" points="530.67,-176.75 521.6,-182.22 532.11,-183.6 530.67,-176.75"/>
</g>
<!-- Node11 -->
<g id="node11" class="node">
<title>Node11</title>
<g id="a_node11"><a xlink:href="class_urho3_d_1_1_hash_map.html" target="_top" xlink:title=" ">
<polygon fill="white" stroke="#666666" points="806,-100 657,-100 657,-59 806,-59 806,-100"/>
<text text-anchor="start" x="665" y="-88" font-family="Roboto" font-size="10.00">Urho3D::HashMap&lt; Urho3D</text>
<text text-anchor="start" x="665" y="-77" font-family="Roboto" font-size="10.00">::StringHash, Urho3D::</text>
<text text-anchor="middle" x="731.5" y="-66" font-family="Roboto" font-size="10.00">SharedPtr&lt; Urho3D::Object &gt; &gt;</text>
</a>
</g>
</g>
<!-- Node7&#45;&gt;Node11 -->
<g id="edge15" class="edge">
<title>Node7&#45;&gt;Node11</title>
<path fill="none" stroke="#63b8ff" d="M496.57,-176.31C525.17,-157.7 574.83,-127.31 621,-108.5 632.29,-103.9 644.54,-99.83 656.61,-96.3"/>
<polygon fill="#63b8ff" stroke="#63b8ff" points="494.73,-173.34 488.3,-181.76 498.58,-179.18 494.73,-173.34"/>
</g>
<!-- Node12 -->
<g id="node12" class="node">
<title>Node12</title>
<g id="a_node12"><a xlink:href="class_urho3_d_1_1_hash_map.html" target="_top" xlink:title=" ">
<polygon fill="white" stroke="#666666" points="812.5,-41 650.5,-41 650.5,0 812.5,0 812.5,-41"/>
<text text-anchor="start" x="658.5" y="-29" font-family="Roboto" font-size="10.00">Urho3D::HashMap&lt; Urho3D</text>
<text text-anchor="start" x="658.5" y="-18" font-family="Roboto" font-size="10.00">::StringHash, Urho3D::</text>
<text text-anchor="middle" x="731.5" y="-7" font-family="Roboto" font-size="10.00">Vector&lt; Urho3D::AttributeInfo &gt; &gt;</text>
</a>
</g>
</g>
<!-- Node7&#45;&gt;Node12 -->
<g id="edge17" class="edge">
<title>Node7&#45;&gt;Node12</title>
<path fill="none" stroke="#63b8ff" d="M486.38,-173.91C510.35,-143.19 562.56,-81.97 621,-49.5 630.02,-44.48 639.95,-40.31 650.03,-36.83"/>
<polygon fill="#63b8ff" stroke="#63b8ff" points="483.84,-171.47 480.54,-181.54 489.4,-175.73 483.84,-171.47"/>
</g>
<!-- Node13 -->
<g id="node13" class="node">
<title>Node13</title>
<g id="a_node13"><a xlink:href="class_urho3_d_1_1_hash_map.html" target="_top" xlink:title=" ">
<polygon fill="white" stroke="#666666" points="815,-407.5 648,-407.5 648,-355.5 815,-355.5 815,-407.5"/>
<text text-anchor="start" x="656" y="-395.5" font-family="Roboto" font-size="10.00">Urho3D::HashMap&lt; Urho3D</text>
<text text-anchor="start" x="656" y="-384.5" font-family="Roboto" font-size="10.00">::StringHash, Urho3D::</text>
<text text-anchor="start" x="656" y="-373.5" font-family="Roboto" font-size="10.00">SharedPtr&lt; Urho3D::EventReceiver</text>
<text text-anchor="middle" x="731.5" y="-362.5" font-family="Roboto" font-size="10.00">Group &gt; &gt;</text>
</a>
</g>
</g>
<!-- Node7&#45;&gt;Node13 -->
<g id="edge19" class="edge">
<title>Node7&#45;&gt;Node13</title>
<path fill="none" stroke="#63b8ff" d="M485.93,-211.68C509.59,-244.07 561.81,-309.68 621,-346.5 629.22,-351.61 638.25,-356.04 647.5,-359.87"/>
<polygon fill="#63b8ff" stroke="#63b8ff" points="488.84,-209.72 480.17,-203.64 483.15,-213.8 488.84,-209.72"/>
</g>
<!-- Node14 -->
<g id="node14" class="node">
<title>Node14</title>
<g id="a_node14"><a xlink:href="class_urho3_d_1_1_hash_map.html" target="_top" xlink:title=" ">
<polygon fill="white" stroke="#666666" points="842,-337.5 621,-337.5 621,-285.5 842,-285.5 842,-337.5"/>
<text text-anchor="start" x="629" y="-325.5" font-family="Roboto" font-size="10.00">Urho3D::HashMap&lt; Urho3D</text>
<text text-anchor="start" x="629" y="-314.5" font-family="Roboto" font-size="10.00">::Object *, Urho3D::HashMap</text>
<text text-anchor="start" x="629" y="-303.5" font-family="Roboto" font-size="10.00">&lt; Urho3D::StringHash, Urho3D</text>
<text text-anchor="middle" x="731.5" y="-292.5" font-family="Roboto" font-size="10.00">::SharedPtr&lt; Urho3D::EventReceiverGroup &gt; &gt; &gt;</text>
</a>
</g>
</g>
<!-- Node7&#45;&gt;Node14 -->
<g id="edge21" class="edge">
<title>Node7&#45;&gt;Node14</title>
<path fill="none" stroke="#63b8ff" d="M497.26,-208.29C526.14,-226.24 575.72,-255.62 621,-275.5 628.6,-278.84 636.62,-282.04 644.72,-285.06"/>
<polygon fill="#63b8ff" stroke="#63b8ff" points="499.22,-205.39 488.89,-203.04 495.5,-211.32 499.22,-205.39"/>
</g>
<!-- Node21 -->
<g id="node21" class="node">
<title>Node21</title>
<g id="a_node21"><a xlink:href="class_urho3_d_1_1_hash_map.html" target="_top" xlink:title=" ">
<polygon fill="white" stroke="#666666" points="801,-267 662,-267 662,-226 801,-226 801,-267"/>
<text text-anchor="start" x="670" y="-255" font-family="Roboto" font-size="10.00">Urho3D::HashMap&lt; Urho3D</text>
<text text-anchor="start" x="670" y="-244" font-family="Roboto" font-size="10.00">::String, Urho3D::Vector</text>
<text text-anchor="middle" x="731.5" y="-233" font-family="Roboto" font-size="10.00">&lt; Urho3D::StringHash &gt; &gt;</text>
</a>
</g>
</g>
<!-- Node7&#45;&gt;Node21 -->
<g id="edge33" class="edge">
<title>Node7&#45;&gt;Node21</title>
<path fill="none" stroke="#63b8ff" d="M531.24,-204.79C570.04,-212.92 621.06,-223.59 661.76,-232.11"/>
<polygon fill="#63b8ff" stroke="#63b8ff" points="532.11,-201.4 521.6,-202.78 530.67,-208.25 532.11,-201.4"/>
</g>
<!-- Node22 -->
<g id="node22" class="node">
<title>Node22</title>
<g id="a_node22"><a xlink:href="class_urho3_d_1_1_hash_map.html" target="_top" xlink:title=" ">
<polygon fill="white" stroke="#666666" points="809.5,-207.5 653.5,-207.5 653.5,-177.5 809.5,-177.5 809.5,-207.5"/>
<text text-anchor="start" x="661.5" y="-195.5" font-family="Roboto" font-size="10.00">Urho3D::HashMap&lt; StringHash,</text>
<text text-anchor="middle" x="731.5" y="-184.5" font-family="Roboto" font-size="10.00"> Variant &gt;</text>
</a>
</g>
</g>
<!-- Node7&#45;&gt;Node22 -->
<g id="edge35" class="edge">
<title>Node7&#45;&gt;Node22</title>
<path fill="none" stroke="#63b8ff" d="M533.2,-192.5C569,-192.5 614.67,-192.5 653.06,-192.5"/>
<polygon fill="#63b8ff" stroke="#63b8ff" points="533.45,-189 523.45,-192.5 533.45,-196 533.45,-189"/>
</g>
<!-- Node8 -->
<g id="node8" class="node">
<title>Node8</title>
<g id="a_node8"><a xlink:href="struct_urho3_d_1_1_hash_node_base.html" target="_top" xlink:title="Hash set/map node base class.">
<polygon fill="white" stroke="#666666" points="327,-219 202,-219 202,-200 327,-200 327,-219"/>
<text text-anchor="middle" x="264.5" y="-207" font-family="Roboto" font-size="10.00">Urho3D::HashNodeBase</text>
</a>
</g>
</g>
<!-- Node8&#45;&gt;Node7 -->
<g id="edge8" class="edge">
<title>Node8&#45;&gt;Node7</title>
<path fill="none" stroke="#9a32cd" stroke-dasharray="5,2" d="M338.43,-203.45C365.87,-201.18 396.4,-198.64 421.2,-196.59"/>
<polygon fill="#9a32cd" stroke="#9a32cd" points="338.47,-199.94 328.79,-204.25 339.05,-206.91 338.47,-199.94"/>
<text text-anchor="middle" x="368" y="-228.5" font-family="Roboto" font-size="10.00"> head_</text>
<text text-anchor="middle" x="368" y="-217.5" font-family="Roboto" font-size="10.00">ptrs_</text>
<text text-anchor="middle" x="368" y="-206.5" font-family="Roboto" font-size="10.00">tail_</text>
</g>
<!-- Node8&#45;&gt;Node8 -->
<g id="edge9" class="edge">
<title>Node8&#45;&gt;Node8</title>
<path fill="none" stroke="#9a32cd" stroke-dasharray="5,2" d="M246.13,-230.43C248.43,-234.29 254.55,-237 264.5,-237 282.69,-237 288.09,-227.94 280.7,-219.37"/>
<polygon fill="#9a32cd" stroke="#9a32cd" points="249.52,-231.34 248.01,-220.85 242.65,-229.99 249.52,-231.34"/>
<text text-anchor="middle" x="264.5" y="-262" font-family="Roboto" font-size="10.00"> down_</text>
<text text-anchor="middle" x="264.5" y="-251" font-family="Roboto" font-size="10.00">next_</text>
<text text-anchor="middle" x="264.5" y="-240" font-family="Roboto" font-size="10.00">prev_</text>
</g>
<!-- Node9 -->
<g id="node9" class="node">
<title>Node9</title>
<g id="a_node9"><a xlink:href="struct_urho3_d_1_1_allocator_block.html" target="_top" xlink:title="Allocator memory block.">
<polygon fill="white" stroke="#666666" points="324.5,-153 204.5,-153 204.5,-134 324.5,-134 324.5,-153"/>
<text text-anchor="middle" x="264.5" y="-141" font-family="Roboto" font-size="10.00">Urho3D::AllocatorBlock</text>
</a>
</g>
</g>
<!-- Node9&#45;&gt;Node7 -->
<g id="edge10" class="edge">
<title>Node9&#45;&gt;Node7</title>
<path fill="none" stroke="#9a32cd" stroke-dasharray="5,2" d="M317.78,-156C352.2,-164.22 396.66,-174.85 428.73,-182.51"/>
<polygon fill="#9a32cd" stroke="#9a32cd" points="319,-152.69 308.46,-153.77 317.37,-159.5 319,-152.69"/>
<text text-anchor="middle" x="368" y="-175.5" font-family="Roboto" font-size="10.00"> allocator_</text>
</g>
<!-- Node9&#45;&gt;Node9 -->
<g id="edge13" class="edge">
<title>Node9&#45;&gt;Node9</title>
<path fill="none" stroke="#9a32cd" stroke-dasharray="5,2" d="M246.13,-164.43C248.43,-168.29 254.55,-171 264.5,-171 282.69,-171 288.09,-161.94 280.7,-153.37"/>
<polygon fill="#9a32cd" stroke="#9a32cd" points="249.52,-165.34 248.01,-154.85 242.65,-163.99 249.52,-165.34"/>
<text text-anchor="middle" x="264.5" y="-174" font-family="Roboto" font-size="10.00"> next_</text>
</g>
<!-- Node10 -->
<g id="node10" class="node">
<title>Node10</title>
<g id="a_node10"><a xlink:href="struct_urho3_d_1_1_allocator_node.html" target="_top" xlink:title="Allocator node.">
<polygon fill="white" stroke="#666666" points="120,-153 0,-153 0,-134 120,-134 120,-153"/>
<text text-anchor="middle" x="60" y="-141" font-family="Roboto" font-size="10.00">Urho3D::AllocatorNode</text>
</a>
</g>
</g>
<!-- Node10&#45;&gt;Node9 -->
<g id="edge11" class="edge">
<title>Node10&#45;&gt;Node9</title>
<path fill="none" stroke="#9a32cd" stroke-dasharray="5,2" d="M131.76,-143.5C155.38,-143.5 181.45,-143.5 204.11,-143.5"/>
<polygon fill="#9a32cd" stroke="#9a32cd" points="131.9,-140 121.9,-143.5 131.9,-147 131.9,-140"/>
<text text-anchor="middle" x="161" y="-146.5" font-family="Roboto" font-size="10.00"> free_</text>
</g>
<!-- Node10&#45;&gt;Node10 -->
<g id="edge12" class="edge">
<title>Node10&#45;&gt;Node10</title>
<path fill="none" stroke="#9a32cd" stroke-dasharray="5,2" d="M42.07,-164.43C44.32,-168.29 50.29,-171 60,-171 77.75,-171 83.02,-161.94 75.81,-153.37"/>
<polygon fill="#9a32cd" stroke="#9a32cd" points="45.46,-165.33 43.9,-154.85 38.59,-164.02 45.46,-165.33"/>
<text text-anchor="middle" x="60" y="-174" font-family="Roboto" font-size="10.00"> next_</text>
</g>
<!-- Node11&#45;&gt;Node5 -->
<g id="edge14" class="edge">
<title>Node11&#45;&gt;Node5</title>
<path fill="none" stroke="#9a32cd" stroke-dasharray="5,2" d="M817.56,-83.71C866.72,-90.36 926.63,-106.28 967,-143.5 1031.68,-203.12 1044.91,-319.02 1047.44,-352.95"/>
<polygon fill="#9a32cd" stroke="#9a32cd" points="818.14,-80.25 807.78,-82.5 817.28,-87.2 818.14,-80.25"/>
<text text-anchor="middle" x="913.5" y="-146.5" font-family="Roboto" font-size="10.00"> subsystems_</text>
</g>
<!-- Node12&#45;&gt;Node5 -->
<g id="edge16" class="edge">
<title>Node12&#45;&gt;Node5</title>
<path fill="none" stroke="#9a32cd" stroke-dasharray="5,2" d="M824.32,-16.6C872.44,-19.45 929.09,-31.27 967,-66.5 1011.01,-107.39 1040.33,-305.91 1046.7,-352.64"/>
<polygon fill="#9a32cd" stroke="#9a32cd" points="824.58,-13.1 814.43,-16.14 824.26,-20.1 824.58,-13.1"/>
<text text-anchor="middle" x="913.5" y="-80.5" font-family="Roboto" font-size="10.00"> attributes_</text>
<text text-anchor="middle" x="913.5" y="-69.5" font-family="Roboto" font-size="10.00">networkAttributes_</text>
</g>
<!-- Node13&#45;&gt;Node5 -->
<g id="edge18" class="edge">
<title>Node13&#45;&gt;Node5</title>
<path fill="none" stroke="#9a32cd" stroke-dasharray="5,2" d="M826.57,-375.83C885.34,-372.3 958.28,-367.9 1004,-365.15"/>
<polygon fill="#9a32cd" stroke="#9a32cd" points="826.68,-372.32 816.9,-376.42 827.1,-379.31 826.68,-372.32"/>
<text text-anchor="middle" x="913.5" y="-376.5" font-family="Roboto" font-size="10.00"> eventReceivers_</text>
</g>
<!-- Node14&#45;&gt;Node5 -->
<g id="edge20" class="edge">
<title>Node14&#45;&gt;Node5</title>
<path fill="none" stroke="#9a32cd" stroke-dasharray="5,2" d="M853.6,-331.08C906.53,-339.63 965.28,-349.13 1004.19,-355.42"/>
<polygon fill="#9a32cd" stroke="#9a32cd" points="854.33,-327.65 843.9,-329.51 853.21,-334.56 854.33,-327.65"/>
<text text-anchor="middle" x="913.5" y="-351.5" font-family="Roboto" font-size="10.00"> specificEventReceivers_</text>
</g>
<!-- Node15 -->
<g id="node15" class="node">
<title>Node15</title>
<g id="a_node15"><a xlink:href="class_urho3_d_1_1_p_o_d_vector.html" target="_top" xlink:title=" ">
<polygon fill="white" stroke="#666666" points="786,-493.5 677,-493.5 677,-463.5 786,-463.5 786,-493.5"/>
<text text-anchor="start" x="685" y="-481.5" font-family="Roboto" font-size="10.00">Urho3D::PODVector&lt;</text>
<text text-anchor="middle" x="731.5" y="-470.5" font-family="Roboto" font-size="10.00"> Urho3D::Object * &gt;</text>
</a>
</g>
</g>
<!-- Node15&#45;&gt;Node5 -->
<g id="edge22" class="edge">
<title>Node15&#45;&gt;Node5</title>
<path fill="none" stroke="#9a32cd" stroke-dasharray="5,2" d="M797.71,-482.13C846.81,-482.18 914.4,-476.35 967,-449.5 1002.47,-431.39 1030.5,-391.14 1042.14,-372.42"/>
<polygon fill="#9a32cd" stroke="#9a32cd" points="797.83,-478.63 787.79,-482.03 797.76,-485.63 797.83,-478.63"/>
<text text-anchor="middle" x="913.5" y="-480.5" font-family="Roboto" font-size="10.00"> eventSenders_</text>
</g>
<!-- Node16 -->
<g id="node16" class="node">
<title>Node16</title>
<g id="a_node16"><a xlink:href="class_urho3_d_1_1_vector_base.html" target="_top" xlink:title="Vector base class.">
<polygon fill="white" stroke="#666666" points="524.5,-536 418.5,-536 418.5,-517 524.5,-517 524.5,-536"/>
<text text-anchor="middle" x="471.5" y="-524" font-family="Roboto" font-size="10.00">Urho3D::VectorBase</text>
</a>
</g>
</g>
<!-- Node16&#45;&gt;Node15 -->
<g id="edge23" class="edge">
<title>Node16&#45;&gt;Node15</title>
<path fill="none" stroke="#63b8ff" d="M535.94,-514.7C579.1,-506.67 635.61,-496.15 676.59,-488.53"/>
<polygon fill="#63b8ff" stroke="#63b8ff" points="535.39,-511.24 526.2,-516.51 536.67,-518.12 535.39,-511.24"/>
</g>
<!-- Node17 -->
<g id="node17" class="node">
<title>Node17</title>
<g id="a_node17"><a xlink:href="class_urho3_d_1_1_p_o_d_vector.html" target="_top" xlink:title=" ">
<polygon fill="white" stroke="#666666" points="788.5,-541.5 674.5,-541.5 674.5,-511.5 788.5,-511.5 788.5,-541.5"/>
<text text-anchor="start" x="682.5" y="-529.5" font-family="Roboto" font-size="10.00">Urho3D::PODVector&lt;</text>
<text text-anchor="middle" x="731.5" y="-518.5" font-family="Roboto" font-size="10.00"> Urho3D::HashMap * &gt;</text>
</a>
</g>
</g>
<!-- Node16&#45;&gt;Node17 -->
<g id="edge25" class="edge">
<title>Node16&#45;&gt;Node17</title>
<path fill="none" stroke="#63b8ff" d="M536.02,-526.5C578.39,-526.5 633.58,-526.5 674.34,-526.5"/>
<polygon fill="#63b8ff" stroke="#63b8ff" points="536.22,-523 526.22,-526.5 536.22,-530 536.22,-523"/>
</g>
<!-- Node25 -->
<g id="node25" class="node">
<title>Node25</title>
<g id="a_node25"><a xlink:href="class_urho3_d_1_1_p_o_d_vector.html" target="_top" xlink:title=" ">
<polygon fill="white" stroke="#666666" points="786,-674.5 677,-674.5 677,-644.5 786,-644.5 786,-674.5"/>
<text text-anchor="start" x="685" y="-662.5" font-family="Roboto" font-size="10.00">Urho3D::PODVector&lt;</text>
<text text-anchor="middle" x="731.5" y="-651.5" font-family="Roboto" font-size="10.00"> float &gt;</text>
</a>
</g>
</g>
<!-- Node16&#45;&gt;Node25 -->
<g id="edge40" class="edge">
<title>Node16&#45;&gt;Node25</title>
<path fill="none" stroke="#63b8ff" d="M491,-544.16C517.59,-568.51 569.12,-612.05 621,-635.5 638.38,-643.35 658.5,-648.71 676.72,-652.33"/>
<polygon fill="#63b8ff" stroke="#63b8ff" points="493.49,-541.69 483.79,-537.44 488.72,-546.81 493.49,-541.69"/>
</g>
<!-- Node17&#45;&gt;Node5 -->
<g id="edge24" class="edge">
<title>Node17&#45;&gt;Node5</title>
<path fill="none" stroke="#9a32cd" stroke-dasharray="5,2" d="M800.1,-531.28C850.04,-531.55 917.64,-524.75 967,-492.5 1012.63,-462.68 1037.12,-397.26 1045.07,-372.37"/>
<polygon fill="#9a32cd" stroke="#9a32cd" points="800.34,-527.79 790.28,-531.12 800.22,-534.78 800.34,-527.79"/>
<text text-anchor="middle" x="913.5" y="-529.5" font-family="Roboto" font-size="10.00"> eventDataMaps_</text>
</g>
<!-- Node18&#45;&gt;Node5 -->
<g id="edge26" class="edge">
<title>Node18&#45;&gt;Node5</title>
<path fill="none" stroke="#9a32cd" stroke-dasharray="5,2" d="M776.13,-801.86C830.1,-782.6 920.5,-742.03 967,-674.5 1002.86,-622.42 1038.53,-419.13 1046.4,-372.2"/>
<polygon fill="#9a32cd" stroke="#9a32cd" points="775.26,-798.46 766.96,-805.04 777.55,-805.07 775.26,-798.46"/>
<text text-anchor="middle" x="913.5" y="-766.5" font-family="Roboto" font-size="10.00"> eventHandler_</text>
</g>
<!-- Node23 -->
<g id="node23" class="node">
<title>Node23</title>
<g id="a_node23"><a xlink:href="class_urho3_d_1_1_linked_list.html" target="_top" xlink:title=" ">
<polygon fill="white" stroke="#666666" points="1113,-796.5 985,-796.5 985,-766.5 1113,-766.5 1113,-796.5"/>
<text text-anchor="start" x="993" y="-784.5" font-family="Roboto" font-size="10.00">Urho3D::LinkedList</text>
<text text-anchor="middle" x="1049" y="-773.5" font-family="Roboto" font-size="10.00">&lt; Urho3D::EventHandler &gt;</text>
</a>
</g>
</g>
<!-- Node18&#45;&gt;Node23 -->
<g id="edge37" class="edge">
<title>Node18&#45;&gt;Node23</title>
<path fill="none" stroke="#9a32cd" stroke-dasharray="5,2" d="M799.75,-810.15C846.68,-806.19 910.75,-800.3 967,-793.5 972.79,-792.8 978.8,-792.02 984.81,-791.19"/>
<polygon fill="#9a32cd" stroke="#9a32cd" points="799.68,-806.65 790.01,-810.97 800.26,-813.62 799.68,-806.65"/>
<text text-anchor="middle" x="913.5" y="-806.5" font-family="Roboto" font-size="10.00"> head_</text>
</g>
<!-- Node19 -->
<g id="node19" class="node">
<title>Node19</title>
<g id="a_node19"><a xlink:href="struct_urho3_d_1_1_linked_list_node.html" target="_top" xlink:title="Singly&#45;linked list node base class.">
<polygon fill="white" stroke="#666666" points="534,-892 409,-892 409,-873 534,-873 534,-892"/>
<text text-anchor="middle" x="471.5" y="-880" font-family="Roboto" font-size="10.00">Urho3D::LinkedListNode</text>
</a>
</g>
</g>
<!-- Node19&#45;&gt;Node18 -->
<g id="edge27" class="edge">
<title>Node19&#45;&gt;Node18</title>
<path fill="none" stroke="#63b8ff" d="M521.96,-869.66C571.64,-856.75 647.14,-837.15 692.36,-825.4"/>
<polygon fill="#63b8ff" stroke="#63b8ff" points="521.11,-866.26 512.31,-872.16 522.87,-873.04 521.11,-866.26"/>
</g>
<!-- Node19&#45;&gt;Node19 -->
<g id="edge28" class="edge">
<title>Node19&#45;&gt;Node19</title>
<path fill="none" stroke="#9a32cd" stroke-dasharray="5,2" d="M453.13,-903.43C455.43,-907.29 461.55,-910 471.5,-910 489.69,-910 495.09,-900.94 487.7,-892.37"/>
<polygon fill="#9a32cd" stroke="#9a32cd" points="456.52,-904.34 455.01,-893.85 449.65,-902.99 456.52,-904.34"/>
<text text-anchor="middle" x="471.5" y="-913" font-family="Roboto" font-size="10.00"> next_</text>
</g>
<!-- Node20 -->
<g id="node20" class="node">
<title>Node20</title>
<g id="a_node20"><a xlink:href="class_urho3_d_1_1_string_hash.html" target="_top" xlink:title="32&#45;bit hash value for a string.">
<polygon fill="white" stroke="#666666" points="523.5,-826 419.5,-826 419.5,-807 523.5,-807 523.5,-826"/>
<text text-anchor="middle" x="471.5" y="-814" font-family="Roboto" font-size="10.00">Urho3D::StringHash</text>
</a>
</g>
</g>
<!-- Node20&#45;&gt;Node18 -->
<g id="edge30" class="edge">
<title>Node20&#45;&gt;Node18</title>
<path fill="none" stroke="#9a32cd" stroke-dasharray="5,2" d="M535.16,-816.26C577.81,-816.09 633.76,-815.87 674.85,-815.72"/>
<polygon fill="#9a32cd" stroke="#9a32cd" points="535.28,-812.76 525.29,-816.3 535.31,-819.76 535.28,-812.76"/>
<text text-anchor="middle" x="577.5" y="-818.5" font-family="Roboto" font-size="10.00"> eventType_</text>
</g>
<!-- Node20&#45;&gt;Node20 -->
<g id="edge31" class="edge">
<title>Node20&#45;&gt;Node20</title>
<path fill="none" stroke="#9a32cd" stroke-dasharray="5,2" d="M453.13,-837.43C455.43,-841.29 461.55,-844 471.5,-844 489.69,-844 495.09,-834.94 487.7,-826.37"/>
<polygon fill="#9a32cd" stroke="#9a32cd" points="456.52,-838.34 455.01,-827.85 449.65,-836.99 456.52,-838.34"/>
<text text-anchor="middle" x="471.5" y="-847" font-family="Roboto" font-size="10.00"> ZERO</text>
</g>
<!-- Node21&#45;&gt;Node5 -->
<g id="edge32" class="edge">
<title>Node21&#45;&gt;Node5</title>
<path fill="none" stroke="#9a32cd" stroke-dasharray="5,2" d="M812.15,-265.06C858.36,-277.11 917.11,-294.63 967,-316.5 990.85,-326.95 1016.74,-342.45 1032.67,-352.52"/>
<polygon fill="#9a32cd" stroke="#9a32cd" points="813.32,-261.75 802.76,-262.65 811.57,-268.53 813.32,-261.75"/>
<text text-anchor="middle" x="913.5" y="-319.5" font-family="Roboto" font-size="10.00"> objectCategories_</text>
</g>
<!-- Node22&#45;&gt;Node5 -->
<g id="edge34" class="edge">
<title>Node22&#45;&gt;Node5</title>
<path fill="none" stroke="#9a32cd" stroke-dasharray="5,2" d="M820.78,-209.84C828.02,-211.87 835.18,-214.09 842,-216.5 850.43,-219.48 851.8,-221.93 860,-225.5 906.55,-245.77 925.57,-236.15 967,-265.5 1001.73,-290.11 1030.34,-333.12 1042.16,-352.52"/>
<polygon fill="#9a32cd" stroke="#9a32cd" points="821.78,-206.49 811.22,-207.3 819.98,-213.25 821.78,-206.49"/>
<text text-anchor="middle" x="913.5" y="-268.5" font-family="Roboto" font-size="10.00"> globalVars_</text>
</g>
<!-- Node23&#45;&gt;Node2 -->
<g id="edge36" class="edge">
<title>Node23&#45;&gt;Node2</title>
<path fill="none" stroke="#9a32cd" stroke-dasharray="5,2" d="M974.09,-763.79C971.7,-763.34 969.33,-762.91 967,-762.5 784.09,-730.58 736.05,-739.03 552,-714.5 539.41,-712.82 525.72,-710.82 513.31,-708.94"/>
<polygon fill="#9a32cd" stroke="#9a32cd" points="973.38,-767.22 983.87,-765.76 974.75,-760.36 973.38,-767.22"/>
<text text-anchor="middle" x="731.5" y="-746.5" font-family="Roboto" font-size="10.00"> eventHandlers_</text>
</g>
<!-- Node24 -->
<g id="node24" class="node">
<title>Node24</title>
<g id="a_node24"><a xlink:href="class_urho3_d_1_1_hires_timer.html" target="_top" xlink:title="High&#45;resolution operating system timer used in profiling.">
<polygon fill="white" stroke="#666666" points="783.5,-626 679.5,-626 679.5,-607 783.5,-607 783.5,-626"/>
<text text-anchor="middle" x="731.5" y="-614" font-family="Roboto" font-size="10.00">Urho3D::HiresTimer</text>
</a>
</g>
</g>
<!-- Node24&#45;&gt;Node1 -->
<g id="edge38" class="edge">
<title>Node24&#45;&gt;Node1</title>
<path fill="none" stroke="#9a32cd" stroke-dasharray="5,2" d="M795.16,-622.88C842.48,-627.96 908.96,-635.67 967,-644.5 980.01,-646.48 994.13,-648.97 1006.88,-651.36"/>
<polygon fill="#9a32cd" stroke="#9a32cd" points="795.68,-619.41 785.37,-621.83 794.94,-626.37 795.68,-619.41"/>
<text text-anchor="middle" x="913.5" y="-647.5" font-family="Roboto" font-size="10.00"> frameTimer_</text>
</g>
<!-- Node25&#45;&gt;Node1 -->
<g id="edge39" class="edge">
<title>Node25&#45;&gt;Node1</title>
<path fill="none" stroke="#9a32cd" stroke-dasharray="5,2" d="M797.75,-659.5C860.61,-659.5 953.78,-659.5 1006.91,-659.5"/>
<polygon fill="#9a32cd" stroke="#9a32cd" points="797.89,-656 787.89,-659.5 797.89,-663 797.89,-656"/>
<text text-anchor="middle" x="913.5" y="-662.5" font-family="Roboto" font-size="10.00"> lastTimeSteps_</text>
</g>
</g>
</svg>
