<?xml version="1.0" encoding="UTF-8" standalone="no"?>
<!DOCTYPE svg PUBLIC "-//W3C//DTD SVG 1.1//EN"
 "http://www.w3.org/Graphics/SVG/1.1/DTD/svg11.dtd">
<!-- Generated by graphviz version 7.0.3 (0)
 -->
<!-- Title: Urho3D::Node::GetScene Pages: 1 -->
<svg width="1090pt" height="663pt"
 viewBox="0.00 0.00 1090.00 662.85" xmlns="http://www.w3.org/2000/svg" xmlns:xlink="http://www.w3.org/1999/xlink">
<g id="graph0" class="graph" transform="scale(1 1) rotate(0) translate(4 658.85)">
<title>Urho3D::Node::GetScene</title>
<!-- Node1 -->
<g id="node1" class="node">
<title>Node1</title>
<g id="a_node1"><a xlink:title=" ">
<polygon fill="#999999" stroke="#666666" points="1082,-297.5 956,-297.5 956,-278.5 1082,-278.5 1082,-297.5"/>
<text text-anchor="middle" x="1019" y="-285.5" font-family="Roboto" font-size="10.00">Urho3D::Node::GetScene</text>
</a>
</g>
</g>
<!-- Node2 -->
<g id="node2" class="node">
<title>Node2</title>
<g id="a_node2"><a xlink:href="class_urho3_d_1_1_node.html#aefe578aa19c22b27311a4377239cca01" target="_top" xlink:title="Add a child scene node at a specific index. If index is not explicitly specified or is greater than c...">
<polygon fill="white" stroke="#666666" points="520,-549.5 395,-549.5 395,-530.5 520,-530.5 520,-549.5"/>
<text text-anchor="middle" x="457.5" y="-537.5" font-family="Roboto" font-size="10.00">Urho3D::Node::AddChild</text>
</a>
</g>
</g>
<!-- Node1&#45;&gt;Node2 -->
<g id="edge1" class="edge">
<title>Node1&#45;&gt;Node2</title>
<path fill="none" stroke="#63b8ff" d="M1005.86,-307.42C988.97,-333.34 956.32,-379.62 920,-411 846.46,-474.54 823.9,-492.43 731,-521 661.08,-542.5 576.49,-544.99 520.29,-543.57"/>
<polygon fill="#63b8ff" stroke="#63b8ff" points="1008.66,-309.54 1011.1,-299.23 1002.76,-305.77 1008.66,-309.54"/>
</g>
<!-- Node4 -->
<g id="node4" class="node">
<title>Node4</title>
<g id="a_node4"><a xlink:href="class_urho3_d_1_1_node.html#a3739b426a217d968f04b9d0128922f1e" target="_top" xlink:title="Set network parent attribute.">
<polygon fill="white" stroke="#666666" points="342,-587.5 184,-587.5 184,-568.5 342,-568.5 342,-587.5"/>
<text text-anchor="middle" x="263" y="-575.5" font-family="Roboto" font-size="10.00">Urho3D::Node::SetNetParentAttr</text>
</a>
</g>
</g>
<!-- Node1&#45;&gt;Node4 -->
<g id="edge28" class="edge">
<title>Node1&#45;&gt;Node4</title>
<path fill="none" stroke="#63b8ff" d="M1017.76,-309.11C1015.9,-361.76 1002.94,-498.99 920,-559 874.28,-592.08 506.41,-585.34 342.41,-580.6"/>
<polygon fill="#63b8ff" stroke="#63b8ff" points="1021.26,-309.49 1018,-299.41 1014.26,-309.33 1021.26,-309.49"/>
</g>
<!-- Node7 -->
<g id="node7" class="node">
<title>Node7</title>
<g id="a_node7"><a xlink:href="class_urho3_d_1_1_network.html#a737b8c83e6b42623dff10a5ed42c2cec" target="_top" xlink:title="Broadcast a remote event with the specified node as a sender. Is sent to all client connections in th...">
<polygon fill="white" stroke="#666666" points="915,-550 772,-550 772,-520 915,-520 915,-550"/>
<text text-anchor="start" x="780" y="-538" font-family="Roboto" font-size="10.00">Urho3D::Network::Broadcast</text>
<text text-anchor="middle" x="843.5" y="-527" font-family="Roboto" font-size="10.00">RemoteEvent</text>
</a>
</g>
</g>
<!-- Node1&#45;&gt;Node7 -->
<g id="edge6" class="edge">
<title>Node1&#45;&gt;Node7</title>
<path fill="none" stroke="#63b8ff" d="M1014.13,-308.99C1005.19,-351.84 979.14,-450.07 920,-506 914.19,-511.5 907.22,-515.99 899.9,-519.64"/>
<polygon fill="#63b8ff" stroke="#63b8ff" points="1017.55,-309.77 1016.05,-299.28 1010.68,-308.41 1017.55,-309.77"/>
</g>
<!-- Node8 -->
<g id="node8" class="node">
<title>Node8</title>
<g id="a_node8"><a xlink:href="class_urho3_d_1_1_node.html#a355a2e2bd5dd0300092810ebda808776" target="_top" xlink:title="Return network parent attribute.">
<polygon fill="white" stroke="#666666" points="537,-625.5 378,-625.5 378,-606.5 537,-606.5 537,-625.5"/>
<text text-anchor="middle" x="457.5" y="-613.5" font-family="Roboto" font-size="10.00">Urho3D::Node::GetNetParentAttr</text>
</a>
</g>
</g>
<!-- Node1&#45;&gt;Node8 -->
<g id="edge7" class="edge">
<title>Node1&#45;&gt;Node8</title>
<path fill="none" stroke="#63b8ff" d="M1018.6,-309.17C1018.94,-365.93 1011.15,-521.92 920,-592 790.57,-691.51 575.29,-647.98 492.44,-625.94"/>
<polygon fill="#63b8ff" stroke="#63b8ff" points="1022.11,-309.26 1018.44,-299.32 1015.11,-309.37 1022.11,-309.26"/>
</g>
<!-- Node9 -->
<g id="node9" class="node">
<title>Node9</title>
<g id="a_node9"><a xlink:href="class_urho3_d_1_1_component.html#a2c22f727341671a0420934f249ffe059" target="_top" xlink:title="Return the scene the node belongs to.">
<polygon fill="#fff0f0" stroke="red" points="899,-402 788,-402 788,-372 899,-372 899,-402"/>
<text text-anchor="start" x="796" y="-390" font-family="Roboto" font-size="10.00">Urho3D::Component::</text>
<text text-anchor="middle" x="843.5" y="-379" font-family="Roboto" font-size="10.00">GetScene</text>
</a>
</g>
</g>
<!-- Node1&#45;&gt;Node9 -->
<g id="edge9" class="edge">
<title>Node1&#45;&gt;Node9</title>
<path fill="none" stroke="#63b8ff" d="M999.2,-305.6C980.41,-322.37 950.07,-347.33 920,-363 913.54,-366.37 906.51,-369.37 899.44,-372.02"/>
<polygon fill="#63b8ff" stroke="#63b8ff" points="1001.52,-308.22 1006.56,-298.9 996.81,-303.04 1001.52,-308.22"/>
</g>
<!-- Node738 -->
<g id="node18" class="node">
<title>Node738</title>
<g id="a_node18"><a xlink:href="class_urho3_d_1_1_scene.html#af7c4ba456a0fdbd205c063761126b02e" target="_top" xlink:title="Node added. Assign scene pointer and add to ID map.">
<polygon fill="#fff0f0" stroke="red" points="722.5,-129.5 581.5,-129.5 581.5,-110.5 722.5,-110.5 722.5,-129.5"/>
<text text-anchor="middle" x="652" y="-117.5" font-family="Roboto" font-size="10.00">Urho3D::Scene::NodeAdded</text>
</a>
</g>
</g>
<!-- Node1&#45;&gt;Node738 -->
<g id="edge18" class="edge">
<title>Node1&#45;&gt;Node738</title>
<path fill="none" stroke="#63b8ff" d="M964.14,-299.87C908.68,-308.78 822.7,-312.92 767,-269 725.94,-236.63 765.45,-196.33 731,-157 719.94,-144.37 703.63,-135.71 688.77,-129.97"/>
<polygon fill="#63b8ff" stroke="#63b8ff" points="964.4,-303.38 973.66,-298.24 963.21,-296.48 964.4,-303.38"/>
</g>
<!-- Node740 -->
<g id="node19" class="node">
<title>Node740</title>
<g id="a_node19"><a xlink:href="class_urho3_d_1_1_scene.html#ae689b835fa42ad65090796e0a88d2410" target="_top" xlink:title="Node removed. Remove from ID map.">
<polygon fill="#fff0f0" stroke="red" points="920,-335.5 767,-335.5 767,-316.5 920,-316.5 920,-335.5"/>
<text text-anchor="middle" x="843.5" y="-323.5" font-family="Roboto" font-size="10.00">Urho3D::Scene::NodeRemoved</text>
</a>
</g>
</g>
<!-- Node1&#45;&gt;Node740 -->
<g id="edge21" class="edge">
<title>Node1&#45;&gt;Node740</title>
<path fill="none" stroke="#63b8ff" d="M961.37,-300.4C938.27,-305.46 911.91,-311.24 890.08,-316.02"/>
<polygon fill="#63b8ff" stroke="#63b8ff" points="961.92,-303.87 970.94,-298.31 960.42,-297.03 961.92,-303.87"/>
</g>
<!-- Node743 -->
<g id="node20" class="node">
<title>Node743</title>
<g id="a_node20"><a xlink:href="class_urho3_d_1_1_node.html#ae42a19a160bffd6c77e3a0a901ece94b" target="_top" xlink:title="Handle attribute animation added.">
<polygon fill="white" stroke="#666666" points="910.5,-260 776.5,-260 776.5,-230 910.5,-230 910.5,-260"/>
<text text-anchor="start" x="784.5" y="-248" font-family="Roboto" font-size="10.00">Urho3D::Node::OnAttribute</text>
<text text-anchor="middle" x="843.5" y="-237" font-family="Roboto" font-size="10.00">AnimationAdded</text>
</a>
</g>
</g>
<!-- Node1&#45;&gt;Node743 -->
<g id="edge24" class="edge">
<title>Node1&#45;&gt;Node743</title>
<path fill="none" stroke="#63b8ff" d="M966.77,-275.3C948.01,-270.65 926.58,-265.34 906.95,-260.48"/>
<polygon fill="#63b8ff" stroke="#63b8ff" points="965.74,-278.65 976.29,-277.66 967.43,-271.86 965.74,-278.65"/>
</g>
<!-- Node744 -->
<g id="node21" class="node">
<title>Node744</title>
<g id="a_node21"><a xlink:href="class_urho3_d_1_1_node.html#a40cae184b813fc5397e6ba64e9f8a2c0" target="_top" xlink:title="Handle attribute animation removed.">
<polygon fill="white" stroke="#666666" points="910.5,-212 776.5,-212 776.5,-182 910.5,-182 910.5,-212"/>
<text text-anchor="start" x="784.5" y="-200" font-family="Roboto" font-size="10.00">Urho3D::Node::OnAttribute</text>
<text text-anchor="middle" x="843.5" y="-189" font-family="Roboto" font-size="10.00">AnimationRemoved</text>
</a>
</g>
</g>
<!-- Node1&#45;&gt;Node744 -->
<g id="edge25" class="edge">
<title>Node1&#45;&gt;Node744</title>
<path fill="none" stroke="#63b8ff" d="M997.04,-270.98C977.92,-256.13 948.39,-234.85 920,-221 913.57,-217.87 906.64,-215.01 899.67,-212.46"/>
<polygon fill="#63b8ff" stroke="#63b8ff" points="994.83,-273.7 1004.85,-277.15 999.17,-268.2 994.83,-273.7"/>
</g>
<!-- Node745 -->
<g id="node22" class="node">
<title>Node745</title>
<g id="a_node22"><a xlink:href="class_urho3_d_1_1_network.html#a9cd2a8e5698132f649b56657977126ba" target="_top" xlink:title="Send outgoing messages after frame logic. Called by HandleRenderUpdate.">
<polygon fill="#fff0f0" stroke="red" points="918,-163.5 769,-163.5 769,-144.5 918,-144.5 918,-163.5"/>
<text text-anchor="middle" x="843.5" y="-151.5" font-family="Roboto" font-size="10.00">Urho3D::Network::PostUpdate</text>
</a>
</g>
</g>
<!-- Node1&#45;&gt;Node745 -->
<g id="edge26" class="edge">
<title>Node1&#45;&gt;Node745</title>
<path fill="none" stroke="#63b8ff" d="M1006.73,-268.41C990.79,-242.52 959.19,-197.34 920,-173 914.03,-169.29 907.37,-166.31 900.55,-163.9"/>
<polygon fill="#63b8ff" stroke="#63b8ff" points="1003.67,-270.12 1011.8,-276.91 1009.68,-266.53 1003.67,-270.12"/>
</g>
<!-- Node747 -->
<g id="node23" class="node">
<title>Node747</title>
<g id="a_node23"><a xlink:href="class_urho3_d_1_1_connection.html#ac7c176e65aa26be5add9841c9861566f" target="_top" xlink:title="Send a remote event with the specified node as sender.">
<polygon fill="white" stroke="#666666" points="896,-126 791,-126 791,-96 896,-96 896,-126"/>
<text text-anchor="start" x="799" y="-114" font-family="Roboto" font-size="10.00">Urho3D::Connection</text>
<text text-anchor="middle" x="843.5" y="-103" font-family="Roboto" font-size="10.00">::SendRemoteEvent</text>
</a>
</g>
</g>
<!-- Node1&#45;&gt;Node747 -->
<g id="edge27" class="edge">
<title>Node1&#45;&gt;Node747</title>
<path fill="none" stroke="#63b8ff" d="M1010.31,-267.55C996.94,-234.78 966.36,-170.57 920,-135 913.02,-129.64 904.81,-125.46 896.42,-122.21"/>
<polygon fill="#63b8ff" stroke="#63b8ff" points="1006.98,-268.66 1013.89,-276.68 1013.49,-266.1 1006.98,-268.66"/>
</g>
<!-- Node623 -->
<g id="node24" class="node">
<title>Node623</title>
<g id="a_node24"><a xlink:href="class_urho3_d_1_1_ribbon_trail.html#a9cedd249eabc33b3017a1ddbd7fb6b63" target="_top" xlink:title=" ">
<polygon fill="#fff0f0" stroke="red" points="895,-78 792,-78 792,-48 895,-48 895,-78"/>
<text text-anchor="start" x="800" y="-66" font-family="Roboto" font-size="10.00">Urho3D::RibbonTrail</text>
<text text-anchor="middle" x="843.5" y="-55" font-family="Roboto" font-size="10.00">::SetTrailType</text>
</a>
</g>
</g>
<!-- Node1&#45;&gt;Node623 -->
<g id="edge29" class="edge">
<title>Node1&#45;&gt;Node623</title>
<path fill="none" stroke="#63b8ff" d="M1013.63,-267.27C1004,-226.67 977.12,-136.34 920,-87 912.92,-80.89 904.28,-76.33 895.4,-72.93"/>
<polygon fill="#63b8ff" stroke="#63b8ff" points="1010.19,-267.91 1015.79,-276.91 1017.02,-266.38 1010.19,-267.91"/>
</g>
<!-- Node748 -->
<g id="node25" class="node">
<title>Node748</title>
<g id="a_node25"><a xlink:href="class_urho3_d_1_1_i_k_effector.html#ad5050a41248a4af9a649fd9d854b4786" target="_top" xlink:title="Intended to be used by IKSolver. Copies the positions/rotations of the target node into the effector.">
<polygon fill="white" stroke="#666666" points="913.5,-30 773.5,-30 773.5,0 913.5,0 913.5,-30"/>
<text text-anchor="start" x="781.5" y="-18" font-family="Roboto" font-size="10.00">Urho3D::IKEffector</text>
<text text-anchor="middle" x="843.5" y="-7" font-family="Roboto" font-size="10.00">::UpdateTargetNodePosition</text>
</a>
</g>
</g>
<!-- Node1&#45;&gt;Node748 -->
<g id="edge30" class="edge">
<title>Node1&#45;&gt;Node748</title>
<path fill="none" stroke="#63b8ff" d="M1015.78,-267.01C1009.64,-219.45 988.08,-102.65 920,-39 916.48,-35.71 912.52,-32.87 908.29,-30.43"/>
<polygon fill="#63b8ff" stroke="#63b8ff" points="1012.28,-267.23 1016.93,-276.75 1019.24,-266.41 1012.28,-267.23"/>
</g>
<!-- Node3 -->
<g id="node3" class="node">
<title>Node3</title>
<g id="a_node3"><a xlink:href="class_urho3_d_1_1_node.html#a418b30665ae7a725c94bfcacbf629238" target="_top" xlink:title="Create a child node with specific ID.">
<polygon fill="white" stroke="#666666" points="330.5,-550.5 195.5,-550.5 195.5,-531.5 330.5,-531.5 330.5,-550.5"/>
<text text-anchor="middle" x="263" y="-538.5" font-family="Roboto" font-size="10.00">Urho3D::Node::CreateChild</text>
</a>
</g>
</g>
<!-- Node2&#45;&gt;Node3 -->
<g id="edge2" class="edge">
<title>Node2&#45;&gt;Node3</title>
<path fill="none" stroke="#63b8ff" d="M383.37,-540.38C366.11,-540.47 347.8,-540.56 330.84,-540.65"/>
<polygon fill="#63b8ff" stroke="#63b8ff" points="383.04,-543.88 393.02,-540.33 383,-536.88 383.04,-543.88"/>
</g>
<!-- Node2&#45;&gt;Node4 -->
<g id="edge3" class="edge">
<title>Node2&#45;&gt;Node4</title>
<path fill="none" stroke="#63b8ff" d="M394.71,-552.2C368.83,-557.31 339.12,-563.17 314.57,-568.02"/>
<polygon fill="#63b8ff" stroke="#63b8ff" points="395.31,-555.65 404.44,-550.28 393.95,-548.78 395.31,-555.65"/>
</g>
<!-- Node6 -->
<g id="node6" class="node">
<title>Node6</title>
<g id="a_node6"><a xlink:href="class_urho3_d_1_1_node.html#a8a62d2fd3157b3d569753b57de8d065d" target="_top" xlink:title=" ">
<polygon fill="white" stroke="#666666" points="326,-513.5 200,-513.5 200,-494.5 326,-494.5 326,-513.5"/>
<text text-anchor="middle" x="263" y="-501.5" font-family="Roboto" font-size="10.00">Urho3D::Node::SetParent</text>
</a>
</g>
</g>
<!-- Node2&#45;&gt;Node6 -->
<g id="edge5" class="edge">
<title>Node2&#45;&gt;Node6</title>
<path fill="none" stroke="#63b8ff" d="M391.9,-527.92C367.72,-523.4 340.54,-518.31 317.47,-514"/>
<polygon fill="#63b8ff" stroke="#63b8ff" points="391.17,-531.34 401.65,-529.74 392.46,-524.46 391.17,-531.34"/>
</g>
<!-- Node5 -->
<g id="node5" class="node">
<title>Node5</title>
<g id="a_node5"><a xlink:href="class_urho3_d_1_1_node.html#a0bf5b40b97dc36a8b39370aee92ccd9d" target="_top" xlink:title=" ">
<polygon fill="white" stroke="#666666" points="148,-606.5 0,-606.5 0,-587.5 148,-587.5 148,-606.5"/>
<text text-anchor="middle" x="74" y="-594.5" font-family="Roboto" font-size="10.00">Urho3D::Node::RegisterObject</text>
</a>
</g>
</g>
<!-- Node4&#45;&gt;Node5 -->
<g id="edge4" class="edge">
<title>Node4&#45;&gt;Node5</title>
<path fill="none" stroke="#63b8ff" d="M172.2,-587.12C164.16,-587.94 156.09,-588.76 148.22,-589.56"/>
<polygon fill="#63b8ff" stroke="#63b8ff" points="172.41,-590.62 182,-586.13 171.7,-583.66 172.41,-590.62"/>
</g>
<!-- Node8&#45;&gt;Node5 -->
<g id="edge8" class="edge">
<title>Node8&#45;&gt;Node5</title>
<path fill="none" stroke="#63b8ff" d="M366.61,-611.52C300.07,-608.21 210.54,-603.75 148.31,-600.65"/>
<polygon fill="#63b8ff" stroke="#63b8ff" points="366.24,-615.01 376.4,-612.01 366.59,-608.02 366.24,-615.01"/>
</g>
<!-- Node10 -->
<g id="node10" class="node">
<title>Node10</title>
<g id="a_node10"><a xlink:href="class_urho3_d_1_1_drawable.html#adaacb5c93a02cfd9d662b167b0bae813" target="_top" xlink:title="Add to octree.">
<polygon fill="#fff0f0" stroke="red" points="731,-329.5 573,-329.5 573,-310.5 731,-310.5 731,-329.5"/>
<text text-anchor="middle" x="652" y="-317.5" font-family="Roboto" font-size="10.00">Urho3D::Drawable::AddToOctree</text>
</a>
</g>
</g>
<!-- Node9&#45;&gt;Node10 -->
<g id="edge10" class="edge">
<title>Node9&#45;&gt;Node10</title>
<path fill="none" stroke="#63b8ff" d="M777.18,-367.52C773.7,-366.09 770.29,-364.58 767,-363 749.67,-354.67 748.61,-346.73 731,-339 722.83,-335.42 713.87,-332.44 705.03,-329.98"/>
<polygon fill="#63b8ff" stroke="#63b8ff" points="775.76,-370.73 786.35,-371.07 778.29,-364.2 775.76,-370.73"/>
</g>
<!-- Node19 -->
<g id="node11" class="node">
<title>Node19</title>
<g id="a_node11"><a xlink:href="class_urho3_d_1_1_dynamic_navigation_mesh.html#a2b7ade339dad6d4a0360e5c5aff707dc" target="_top" xlink:title="Allocate the navigation mesh without building any tiles. Bounding box is not padded....">
<polygon fill="white" stroke="#666666" points="722,-292 582,-292 582,-262 722,-262 722,-292"/>
<text text-anchor="start" x="590" y="-280" font-family="Roboto" font-size="10.00">Urho3D::DynamicNavigation</text>
<text text-anchor="middle" x="652" y="-269" font-family="Roboto" font-size="10.00">Mesh::Allocate</text>
</a>
</g>
</g>
<!-- Node9&#45;&gt;Node19 -->
<g id="edge11" class="edge">
<title>Node9&#45;&gt;Node19</title>
<path fill="none" stroke="#63b8ff" d="M777.5,-370.01C773.78,-367.93 770.25,-365.61 767,-363 742.15,-343.06 755.94,-320.83 731,-301 726.9,-297.74 722.35,-294.92 717.57,-292.48"/>
<polygon fill="#63b8ff" stroke="#63b8ff" points="775.76,-373.06 786.28,-374.27 778.82,-366.76 775.76,-373.06"/>
</g>
<!-- Node20 -->
<g id="node12" class="node">
<title>Node20</title>
<g id="a_node12"><a xlink:href="class_urho3_d_1_1_script_instance.html#aec3e097d88feedbb38b040e6009f64e4" target="_top" xlink:title="Apply attribute changes that can not be applied immediately. Called after scene load or a network upd...">
<polygon fill="white" stroke="#666666" points="711,-244 593,-244 593,-214 711,-214 711,-244"/>
<text text-anchor="start" x="601" y="-232" font-family="Roboto" font-size="10.00">Urho3D::ScriptInstance</text>
<text text-anchor="middle" x="652" y="-221" font-family="Roboto" font-size="10.00">::ApplyAttributes</text>
</a>
</g>
</g>
<!-- Node9&#45;&gt;Node20 -->
<g id="edge12" class="edge">
<title>Node9&#45;&gt;Node20</title>
<path fill="none" stroke="#63b8ff" d="M777.71,-371.33C773.83,-368.93 770.2,-366.18 767,-363 730.47,-326.78 767.7,-289.05 731,-253 725.44,-247.54 718.67,-243.32 711.47,-240.05"/>
<polygon fill="#63b8ff" stroke="#63b8ff" points="775.97,-374.37 786.46,-375.86 779.19,-368.15 775.97,-374.37"/>
</g>
<!-- Node21 -->
<g id="node13" class="node">
<title>Node21</title>
<g id="a_node13"><a xlink:href="class_urho3_d_1_1_static_model_group.html#a873741eda737adb67c2ee85819105259" target="_top" xlink:title="Apply attribute changes that can not be applied immediately. Called after scene load or a network upd...">
<polygon fill="white" stroke="#666666" points="719,-196 585,-196 585,-166 719,-166 719,-196"/>
<text text-anchor="start" x="593" y="-184" font-family="Roboto" font-size="10.00">Urho3D::StaticModelGroup</text>
<text text-anchor="middle" x="652" y="-173" font-family="Roboto" font-size="10.00">::ApplyAttributes</text>
</a>
</g>
</g>
<!-- Node9&#45;&gt;Node21 -->
<g id="edge13" class="edge">
<title>Node9&#45;&gt;Node21</title>
<path fill="none" stroke="#63b8ff" d="M777.56,-371.78C773.68,-369.28 770.11,-366.38 767,-363 718.25,-309.99 780,-257.79 731,-205 727.63,-201.37 723.72,-198.28 719.48,-195.65"/>
<polygon fill="#63b8ff" stroke="#63b8ff" points="775.9,-374.86 786.37,-376.48 779.19,-368.68 775.9,-374.86"/>
</g>
<!-- Node22 -->
<g id="node14" class="node">
<title>Node22</title>
<g id="a_node14"><a xlink:href="class_urho3_d_1_1_terrain.html#ab75024299e9c5e44b3c7266ab3b0e361" target="_top" xlink:title="Apply attribute changes that can not be applied immediately. Called after scene load or a network upd...">
<polygon fill="white" stroke="#666666" points="730,-511.5 574,-511.5 574,-492.5 730,-492.5 730,-511.5"/>
<text text-anchor="middle" x="652" y="-499.5" font-family="Roboto" font-size="10.00">Urho3D::Terrain::ApplyAttributes</text>
</a>
</g>
</g>
<!-- Node9&#45;&gt;Node22 -->
<g id="edge14" class="edge">
<title>Node9&#45;&gt;Node22</title>
<path fill="none" stroke="#63b8ff" d="M821.78,-410.31C800.96,-432.29 766.9,-464.54 731,-483 723.81,-486.7 715.88,-489.69 707.9,-492.12"/>
<polygon fill="#63b8ff" stroke="#63b8ff" points="824.08,-412.98 828.31,-403.27 818.95,-408.22 824.08,-412.98"/>
</g>
<!-- Node23 -->
<g id="node15" class="node">
<title>Node23</title>
<g id="a_node15"><a xlink:href="class_urho3_d_1_1_crowd_manager.html#ad8d550786dd86d2b9377b7108565158c" target="_top" xlink:title="Apply attribute changes that can not be applied immediately. Called after scene load or a network upd...">
<polygon fill="white" stroke="#666666" points="713.5,-474 590.5,-474 590.5,-444 713.5,-444 713.5,-474"/>
<text text-anchor="start" x="598.5" y="-462" font-family="Roboto" font-size="10.00">Urho3D::CrowdManager</text>
<text text-anchor="middle" x="652" y="-451" font-family="Roboto" font-size="10.00">::ApplyAttributes</text>
</a>
</g>
</g>
<!-- Node9&#45;&gt;Node23 -->
<g id="edge15" class="edge">
<title>Node9&#45;&gt;Node23</title>
<path fill="none" stroke="#63b8ff" d="M798.97,-407.04C778.54,-416.1 753.74,-426.64 731,-435 722.89,-437.98 714.21,-440.91 705.71,-443.63"/>
<polygon fill="#63b8ff" stroke="#63b8ff" points="800.14,-410.35 807.83,-403.07 797.28,-403.96 800.14,-410.35"/>
</g>
<!-- Node24 -->
<g id="node16" class="node">
<title>Node24</title>
<g id="a_node16"><a xlink:href="class_urho3_d_1_1_off_mesh_connection.html#a4e86ebaa97f280cdcaa15c60eb18792d" target="_top" xlink:title="Apply attribute changes that can not be applied immediately. Called after scene load or a network upd...">
<polygon fill="white" stroke="#666666" points="724,-426 580,-426 580,-396 724,-396 724,-426"/>
<text text-anchor="start" x="588" y="-414" font-family="Roboto" font-size="10.00">Urho3D::OffMeshConnection</text>
<text text-anchor="middle" x="652" y="-403" font-family="Roboto" font-size="10.00">::ApplyAttributes</text>
</a>
</g>
</g>
<!-- Node9&#45;&gt;Node24 -->
<g id="edge16" class="edge">
<title>Node9&#45;&gt;Node24</title>
<path fill="none" stroke="#63b8ff" d="M776.29,-395.39C759.48,-397.51 741.34,-399.81 724.29,-401.97"/>
<polygon fill="#63b8ff" stroke="#63b8ff" points="776.71,-398.86 786.19,-394.13 775.83,-391.92 776.71,-398.86"/>
</g>
<!-- Node25 -->
<g id="node17" class="node">
<title>Node25</title>
<g id="a_node17"><a xlink:href="class_urho3_d_1_1_constraint.html#a8c9d37e56291499492b0dfdb90a6d841" target="_top" xlink:title="Apply attribute changes that can not be applied immediately. Called after scene load or a network upd...">
<polygon fill="white" stroke="#666666" points="702,-378 602,-378 602,-348 702,-348 702,-378"/>
<text text-anchor="start" x="610" y="-366" font-family="Roboto" font-size="10.00">Urho3D::Constraint</text>
<text text-anchor="middle" x="652" y="-355" font-family="Roboto" font-size="10.00">::ApplyAttributes</text>
</a>
</g>
</g>
<!-- Node9&#45;&gt;Node25 -->
<g id="edge17" class="edge">
<title>Node9&#45;&gt;Node25</title>
<path fill="none" stroke="#63b8ff" d="M776.35,-378.62C751.97,-375.53 724.81,-372.09 702.2,-369.23"/>
<polygon fill="#63b8ff" stroke="#63b8ff" points="775.83,-382.08 786.19,-379.87 776.71,-375.14 775.83,-382.08"/>
</g>
<!-- Node738&#45;&gt;Node2 -->
<g id="edge19" class="edge">
<title>Node738&#45;&gt;Node2</title>
<path fill="none" stroke="#63b8ff" d="M604.85,-134.22C593.12,-139.73 581.45,-147.15 573,-157 471.09,-275.77 459.87,-482.47 458.65,-530.04"/>
<polygon fill="#63b8ff" stroke="#63b8ff" points="605.88,-137.59 613.71,-130.45 603.14,-131.14 605.88,-137.59"/>
</g>
<!-- Node738&#45;&gt;Node738 -->
<g id="edge20" class="edge">
<title>Node738&#45;&gt;Node738</title>
<path fill="none" stroke="#63b8ff" d="M686.65,-140.26C683.01,-144.47 671.46,-147.5 652,-147.5 618.34,-147.5 608.34,-138.44 622.02,-129.87"/>
<polygon fill="#63b8ff" stroke="#63b8ff" points="689.89,-138.94 682.6,-131.25 683.51,-141.8 689.89,-138.94"/>
</g>
<!-- Node740&#45;&gt;Node738 -->
<g id="edge22" class="edge">
<title>Node740&#45;&gt;Node738</title>
<path fill="none" stroke="#63b8ff" d="M777.63,-310.71C773.74,-308.23 770.14,-305.35 767,-302 721.58,-253.56 773.04,-208.4 731,-157 720.56,-144.24 704.69,-135.61 689.99,-129.92"/>
<polygon fill="#63b8ff" stroke="#63b8ff" points="775.99,-313.8 786.47,-315.38 779.26,-307.62 775.99,-313.8"/>
</g>
<!-- Node740&#45;&gt;Node740 -->
<g id="edge23" class="edge">
<title>Node740&#45;&gt;Node740</title>
<path fill="none" stroke="#63b8ff" d="M874.97,-346.6C871.34,-350.63 860.85,-353.5 843.5,-353.5 812.65,-353.5 803.49,-344.44 816.02,-335.87"/>
<polygon fill="#63b8ff" stroke="#63b8ff" points="878.27,-345.44 871.5,-337.29 871.71,-347.88 878.27,-345.44"/>
</g>
</g>
</svg>
