<?xml version="1.0" encoding="UTF-8" standalone="no"?>
<!DOCTYPE svg PUBLIC "-//W3C//DTD SVG 1.1//EN"
 "http://www.w3.org/Graphics/SVG/1.1/DTD/svg11.dtd">
<!-- Generated by graphviz version 7.0.3 (0)
 -->
<!-- Title: Urho3D::Text::GetBatches Pages: 1 -->
<svg width="877pt" height="802pt"
 viewBox="0.00 0.00 877.00 801.72" xmlns="http://www.w3.org/2000/svg" xmlns:xlink="http://www.w3.org/1999/xlink">
<g id="graph0" class="graph" transform="scale(1 1) rotate(0) translate(4 797.72)">
<title>Urho3D::Text::GetBatches</title>
<!-- Node1 -->
<g id="node1" class="node">
<title>Node1</title>
<g id="a_node1"><a xlink:title="Return UI rendering batches.">
<polygon fill="#999999" stroke="#666666" points="128,-369 0,-369 0,-350 128,-350 128,-369"/>
<text text-anchor="middle" x="64" y="-357" font-family="Roboto" font-size="10.00">Urho3D::Text::GetBatches</text>
</a>
</g>
</g>
<!-- Node2 -->
<g id="node2" class="node">
<title>Node2</title>
<g id="a_node2"><a xlink:href="class_urho3_d_1_1_u_i_batch.html#a1c81f25e8e558f8acf2ddd886f51606a" target="_top" xlink:title="Add or merge a batch.">
<polygon fill="white" stroke="#666666" points="504.5,-728 353.5,-728 353.5,-709 504.5,-709 504.5,-728"/>
<text text-anchor="middle" x="429" y="-716" font-family="Roboto" font-size="10.00">Urho3D::UIBatch::AddOrMerge</text>
</a>
</g>
</g>
<!-- Node1&#45;&gt;Node2 -->
<g id="edge1" class="edge">
<title>Node1&#45;&gt;Node2</title>
<path fill="none" stroke="#63b8ff" d="M65.03,-369.28C65.74,-411.02 74.31,-575.84 164,-657.5 212.02,-701.22 285.02,-715.52 342.09,-719.43"/>
<polygon fill="#63b8ff" stroke="#63b8ff" points="341.59,-722.9 351.77,-719.99 341.99,-715.92 341.59,-722.9"/>
</g>
<!-- Node9 -->
<g id="node7" class="node">
<title>Node9</title>
<g id="a_node7"><a xlink:href="class_urho3_d_1_1_u_i_batch.html#aadd10d72e59d9f8e1001b1b87d0ca40f" target="_top" xlink:title="Add a quad.">
<polygon fill="white" stroke="#666666" points="497,-642 361,-642 361,-623 497,-623 497,-642"/>
<text text-anchor="middle" x="429" y="-630" font-family="Roboto" font-size="10.00">Urho3D::UIBatch::AddQuad</text>
</a>
</g>
</g>
<!-- Node1&#45;&gt;Node9 -->
<g id="edge7" class="edge">
<title>Node1&#45;&gt;Node9</title>
<path fill="none" stroke="#63b8ff" d="M66.61,-369.1C72.69,-402.13 97.36,-512.07 164,-566.5 179.84,-579.43 294.98,-605.06 367.88,-620.29"/>
<polygon fill="#63b8ff" stroke="#63b8ff" points="366.76,-623.63 377.27,-622.24 368.19,-616.78 366.76,-623.63"/>
</g>
<!-- Node21 -->
<g id="node11" class="node">
<title>Node21</title>
<g id="a_node11"><a xlink:href="class_urho3_d_1_1_p_o_d_vector.html#ab1ba347a0118ed7d9ef79f3026153c88" target="_top" xlink:title="Return number of elements.">
<polygon fill="white" stroke="#666666" points="685.5,-462 558.5,-462 558.5,-443 685.5,-443 685.5,-462"/>
<text text-anchor="middle" x="622" y="-450" font-family="Roboto" font-size="10.00">Urho3D::PODVector::Size</text>
</a>
</g>
</g>
<!-- Node1&#45;&gt;Node21 -->
<g id="edge38" class="edge">
<title>Node1&#45;&gt;Node21</title>
<path fill="none" stroke="#63b8ff" d="M82.63,-369.36C101.96,-379.69 134.21,-395.5 164,-403.5 295.73,-438.9 455.3,-448.87 546.8,-451.59"/>
<polygon fill="#63b8ff" stroke="#63b8ff" points="546.55,-455.08 556.64,-451.86 546.74,-448.09 546.55,-455.08"/>
</g>
<!-- Node22 -->
<g id="node12" class="node">
<title>Node22</title>
<g id="a_node12"><a xlink:href="class_urho3_d_1_1_text.html#a18a702a227da75230588bee036a754f5" target="_top" xlink:title="Construct batch.">
<polygon fill="white" stroke="#666666" points="313.5,-524 167.5,-524 167.5,-505 313.5,-505 313.5,-524"/>
<text text-anchor="middle" x="240.5" y="-512" font-family="Roboto" font-size="10.00">Urho3D::Text::ConstructBatch</text>
</a>
</g>
</g>
<!-- Node1&#45;&gt;Node22 -->
<g id="edge14" class="edge">
<title>Node1&#45;&gt;Node22</title>
<path fill="none" stroke="#63b8ff" d="M74.55,-369.25C91.89,-386.81 129.92,-424.72 164,-454.5 181.54,-469.83 202.31,-486.22 217.63,-497.98"/>
<polygon fill="#63b8ff" stroke="#63b8ff" points="215.1,-500.46 225.17,-503.75 219.35,-494.9 215.1,-500.46"/>
</g>
<!-- Node23 -->
<g id="node13" class="node">
<title>Node23</title>
<g id="a_node13"><a xlink:href="class_urho3_d_1_1_u_i_batch.html#abcc8c0f4f3221e3e814ffa0f8f11b73f" target="_top" xlink:title="Set new color for the batch. Overrides gradient.">
<polygon fill="#fff0f0" stroke="red" points="495.5,-605 362.5,-605 362.5,-586 495.5,-586 495.5,-605"/>
<text text-anchor="middle" x="429" y="-593" font-family="Roboto" font-size="10.00">Urho3D::UIBatch::SetColor</text>
</a>
</g>
</g>
<!-- Node1&#45;&gt;Node23 -->
<g id="edge34" class="edge">
<title>Node1&#45;&gt;Node23</title>
<path fill="none" stroke="#63b8ff" d="M67.56,-369.18C75.92,-398.74 105.27,-488.53 164,-532.5 180.17,-544.6 293.09,-568.75 365.92,-583.38"/>
<polygon fill="#63b8ff" stroke="#63b8ff" points="364.82,-586.73 375.32,-585.26 366.2,-579.87 364.82,-586.73"/>
</g>
<!-- Node27 -->
<g id="node15" class="node">
<title>Node27</title>
<g id="a_node15"><a xlink:href="_math_defs_8h.html#af7564744da23adb0019e989279ea7d88" target="_top" xlink:title=" ">
<polygon fill="white" stroke="#666666" points="277,-270 204,-270 204,-251 277,-251 277,-270"/>
<text text-anchor="middle" x="240.5" y="-258" font-family="Roboto" font-size="10.00">Urho3D::Cos</text>
</a>
</g>
</g>
<!-- Node1&#45;&gt;Node27 -->
<g id="edge20" class="edge">
<title>Node1&#45;&gt;Node27</title>
<path fill="none" stroke="#63b8ff" d="M82.13,-349.54C101.83,-338.1 135.18,-318.81 164,-302.5 179.76,-293.58 197.44,-283.74 211.73,-275.82"/>
<polygon fill="#63b8ff" stroke="#63b8ff" points="213.08,-279.08 220.13,-271.17 209.69,-272.95 213.08,-279.08"/>
</g>
<!-- Node28 -->
<g id="node16" class="node">
<title>Node28</title>
<g id="a_node16"><a xlink:href="class_urho3_d_1_1_u_i_selectable.html#aaa115c0723cfc723c1f714f61e732d74" target="_top" xlink:title="Return UI rendering batches.">
<polygon fill="#fff0f0" stroke="red" points="295.5,-648.5 185.5,-648.5 185.5,-618.5 295.5,-618.5 295.5,-648.5"/>
<text text-anchor="start" x="193.5" y="-636.5" font-family="Roboto" font-size="10.00">Urho3D::UISelectable</text>
<text text-anchor="middle" x="240.5" y="-625.5" font-family="Roboto" font-size="10.00">::GetBatches</text>
</a>
</g>
</g>
<!-- Node1&#45;&gt;Node28 -->
<g id="edge22" class="edge">
<title>Node1&#45;&gt;Node28</title>
<path fill="none" stroke="#63b8ff" d="M66.18,-369.46C71.03,-406.02 92.67,-534.4 164,-604.5 167.38,-607.82 171.18,-610.77 175.23,-613.39"/>
<polygon fill="#63b8ff" stroke="#63b8ff" points="173.31,-616.33 183.74,-618.18 176.74,-610.22 173.31,-616.33"/>
</g>
<!-- Node31 -->
<g id="node18" class="node">
<title>Node31</title>
<g id="a_node18"><a xlink:href="class_urho3_d_1_1_font_face.html#a4b91e47bb935a890c515f4e840217c8b" target="_top" xlink:title="Return pointer to the glyph structure corresponding to a character. Return null if glyph not found.">
<polygon fill="white" stroke="#666666" points="498.5,-405 359.5,-405 359.5,-386 498.5,-386 498.5,-405"/>
<text text-anchor="middle" x="429" y="-393" font-family="Roboto" font-size="10.00">Urho3D::FontFace::GetGlyph</text>
</a>
</g>
</g>
<!-- Node1&#45;&gt;Node31 -->
<g id="edge27" class="edge">
<title>Node1&#45;&gt;Node31</title>
<path fill="none" stroke="#63b8ff" d="M99.05,-369.47C118,-374.58 142.11,-380.38 164,-383.5 225.25,-392.23 295.23,-395.1 347.74,-395.85"/>
<polygon fill="#63b8ff" stroke="#63b8ff" points="347.46,-399.35 357.5,-395.96 347.54,-392.35 347.46,-399.35"/>
</g>
<!-- Node32 -->
<g id="node19" class="node">
<title>Node32</title>
<g id="a_node19"><a xlink:href="class_urho3_d_1_1_font_face.html#a05b62b1e36e5d37fc20d0aad6841f748" target="_top" xlink:title="Return textures.">
<polygon fill="white" stroke="#666666" points="505,-328 353,-328 353,-309 505,-309 505,-328"/>
<text text-anchor="middle" x="429" y="-316" font-family="Roboto" font-size="10.00">Urho3D::FontFace::GetTextures</text>
</a>
</g>
</g>
<!-- Node1&#45;&gt;Node32 -->
<g id="edge28" class="edge">
<title>Node1&#45;&gt;Node32</title>
<path fill="none" stroke="#63b8ff" d="M99.53,-349.57C118.42,-344.53 142.32,-338.8 164,-335.5 222.68,-326.57 289.38,-322.32 341.06,-320.31"/>
<polygon fill="#63b8ff" stroke="#63b8ff" points="341.14,-323.81 351.01,-319.94 340.89,-316.81 341.14,-323.81"/>
</g>
<!-- Node33 -->
<g id="node20" class="node">
<title>Node33</title>
<g id="a_node20"><a xlink:href="class_urho3_d_1_1_font_face.html#a95247bfe09ad75ad4fdd0255d089869f" target="_top" xlink:title="Return if font face uses mutable glyphs.">
<polygon fill="white" stroke="#666666" points="317,-232.5 164,-232.5 164,-202.5 317,-202.5 317,-232.5"/>
<text text-anchor="start" x="172" y="-220.5" font-family="Roboto" font-size="10.00">Urho3D::FontFace::HasMutable</text>
<text text-anchor="middle" x="240.5" y="-209.5" font-family="Roboto" font-size="10.00">Glyphs</text>
</a>
</g>
</g>
<!-- Node1&#45;&gt;Node33 -->
<g id="edge29" class="edge">
<title>Node1&#45;&gt;Node33</title>
<path fill="none" stroke="#63b8ff" d="M70.56,-349.64C83.78,-327.1 119.34,-271.42 164,-241.5 165.84,-240.27 167.75,-239.09 169.71,-237.98"/>
<polygon fill="#63b8ff" stroke="#63b8ff" points="171.17,-241.16 178.53,-233.54 168.02,-234.91 171.17,-241.16"/>
</g>
<!-- Node34 -->
<g id="node21" class="node">
<title>Node34</title>
<g id="a_node21"><a xlink:href="_math_defs_8h.html#a8096c22c3716e172f685af2a5f5e26bb" target="_top" xlink:title=" ">
<polygon fill="white" stroke="#666666" points="277.5,-166 203.5,-166 203.5,-147 277.5,-147 277.5,-166"/>
<text text-anchor="middle" x="240.5" y="-154" font-family="Roboto" font-size="10.00">Urho3D::Max</text>
</a>
</g>
</g>
<!-- Node1&#45;&gt;Node34 -->
<g id="edge30" class="edge">
<title>Node1&#45;&gt;Node34</title>
<path fill="none" stroke="#63b8ff" d="M68.57,-349.57C79.07,-321.59 112.42,-241.01 164,-193.5 174.13,-184.17 187.05,-176.69 199.33,-170.96"/>
<polygon fill="#63b8ff" stroke="#63b8ff" points="200.7,-174.18 208.48,-166.99 197.91,-167.76 200.7,-174.18"/>
</g>
<!-- Node35 -->
<g id="node22" class="node">
<title>Node35</title>
<g id="a_node22"><a xlink:href="_math_defs_8h.html#a639c291adc131849b469a216007c4af5" target="_top" xlink:title=" ">
<polygon fill="white" stroke="#666666" points="276,-111 205,-111 205,-92 276,-92 276,-111"/>
<text text-anchor="middle" x="240.5" y="-99" font-family="Roboto" font-size="10.00">Urho3D::Min</text>
</a>
</g>
</g>
<!-- Node1&#45;&gt;Node35 -->
<g id="edge32" class="edge">
<title>Node1&#45;&gt;Node35</title>
<path fill="none" stroke="#63b8ff" d="M66.84,-349.71C73.64,-315.94 100.37,-202.77 164,-137.5 172.85,-128.42 184.44,-121.35 195.87,-115.97"/>
<polygon fill="#63b8ff" stroke="#63b8ff" points="197.06,-119.27 204.86,-112.1 194.29,-112.84 197.06,-119.27"/>
</g>
<!-- Node36 -->
<g id="node23" class="node">
<title>Node36</title>
<g id="a_node23"><a xlink:href="_math_defs_8h.html#a1e064ec2f12ba951dafbe7d38b6f89ed" target="_top" xlink:title=" ">
<polygon fill="white" stroke="#666666" points="274.5,-56 206.5,-56 206.5,-37 274.5,-37 274.5,-56"/>
<text text-anchor="middle" x="240.5" y="-44" font-family="Roboto" font-size="10.00">Urho3D::Sin</text>
</a>
</g>
</g>
<!-- Node1&#45;&gt;Node36 -->
<g id="edge35" class="edge">
<title>Node1&#45;&gt;Node36</title>
<path fill="none" stroke="#63b8ff" d="M65.86,-349.55C69.71,-310.52 88.69,-165.88 164,-82.5 172.57,-73.01 184.18,-65.79 195.72,-60.4"/>
<polygon fill="#63b8ff" stroke="#63b8ff" points="196.97,-63.67 204.81,-56.54 194.24,-57.23 196.97,-63.67"/>
</g>
<!-- Node37 -->
<g id="node24" class="node">
<title>Node37</title>
<g id="a_node24"><a xlink:href="class_urho3_d_1_1_vector.html#a5da7101c355895f41098fcf875e4c56a" target="_top" xlink:title="Return size of vector.">
<polygon fill="white" stroke="#666666" points="294,-19 187,-19 187,0 294,0 294,-19"/>
<text text-anchor="middle" x="240.5" y="-7" font-family="Roboto" font-size="10.00">Urho3D::Vector::Size</text>
</a>
</g>
</g>
<!-- Node1&#45;&gt;Node37 -->
<g id="edge37" class="edge">
<title>Node1&#45;&gt;Node37</title>
<path fill="none" stroke="#63b8ff" d="M64.67,-349.57C63.73,-304.83 66.11,-120.08 164,-27.5 167.68,-24.02 171.9,-21.17 176.44,-18.85"/>
<polygon fill="#63b8ff" stroke="#63b8ff" points="177.47,-22.21 185.36,-15.14 174.78,-15.75 177.47,-22.21"/>
</g>
<!-- Node38 -->
<g id="node25" class="node">
<title>Node38</title>
<g id="a_node25"><a xlink:href="class_urho3_d_1_1_text.html#a879bb031eccf4b070d2e0f2cfa31dc38" target="_top" xlink:title="Update cached character locations after text update, or when text alignment or indent has changed.">
<polygon fill="#fff0f0" stroke="red" points="306,-374.5 175,-374.5 175,-344.5 306,-344.5 306,-374.5"/>
<text text-anchor="start" x="183" y="-362.5" font-family="Roboto" font-size="10.00">Urho3D::Text::UpdateChar</text>
<text text-anchor="middle" x="240.5" y="-351.5" font-family="Roboto" font-size="10.00">Locations</text>
</a>
</g>
</g>
<!-- Node1&#45;&gt;Node38 -->
<g id="edge39" class="edge">
<title>Node1&#45;&gt;Node38</title>
<path fill="none" stroke="#63b8ff" d="M128.49,-359.5C139.75,-359.5 151.57,-359.5 163.14,-359.5"/>
<polygon fill="#63b8ff" stroke="#63b8ff" points="163.08,-363 173.08,-359.5 163.08,-356 163.08,-363"/>
</g>
<!-- Node3 -->
<g id="node3" class="node">
<title>Node3</title>
<g id="a_node3"><a xlink:href="class_urho3_d_1_1_p_o_d_vector.html#a02b72389727e56688c9f6ed66c2f8733" target="_top" xlink:title="Return last element.">
<polygon fill="#fff0f0" stroke="red" points="869,-790 739,-790 739,-771 869,-771 869,-790"/>
<text text-anchor="middle" x="804" y="-778" font-family="Roboto" font-size="10.00">Urho3D::PODVector::Back</text>
</a>
</g>
</g>
<!-- Node2&#45;&gt;Node3 -->
<g id="edge2" class="edge">
<title>Node2&#45;&gt;Node3</title>
<path fill="none" stroke="#63b8ff" d="M442.39,-728.27C461.98,-743.01 501.91,-770.32 541,-780.5 602.21,-796.44 674.22,-795.06 727.24,-790.48"/>
<polygon fill="#63b8ff" stroke="#63b8ff" points="727.45,-793.97 737.09,-789.56 726.81,-787 727.45,-793.97"/>
</g>
<!-- Node5 -->
<g id="node4" class="node">
<title>Node5</title>
<g id="a_node4"><a xlink:href="class_urho3_d_1_1_p_o_d_vector.html#a5be72d35fc52d2623985f20b95855d10" target="_top" xlink:title="Return whether vector is empty.">
<polygon fill="white" stroke="#666666" points="676,-733.5 568,-733.5 568,-703.5 676,-703.5 676,-733.5"/>
<text text-anchor="start" x="576" y="-721.5" font-family="Roboto" font-size="10.00">Urho3D::PODVector::</text>
<text text-anchor="middle" x="622" y="-710.5" font-family="Roboto" font-size="10.00">Empty</text>
</a>
</g>
</g>
<!-- Node2&#45;&gt;Node5 -->
<g id="edge3" class="edge">
<title>Node2&#45;&gt;Node5</title>
<path fill="none" stroke="#63b8ff" d="M504.94,-718.5C521.92,-718.5 539.82,-718.5 556.33,-718.5"/>
<polygon fill="#63b8ff" stroke="#63b8ff" points="556,-722 566,-718.5 556,-715 556,-722"/>
</g>
<!-- Node6 -->
<g id="node5" class="node">
<title>Node6</title>
<g id="a_node5"><a xlink:href="class_urho3_d_1_1_p_o_d_vector.html#a3eb78093c096ab9e9d68595facc56470" target="_top" xlink:title="Add an element at the end.">
<polygon fill="white" stroke="#666666" points="687,-771 557,-771 557,-752 687,-752 687,-771"/>
<text text-anchor="middle" x="622" y="-759" font-family="Roboto" font-size="10.00">Urho3D::PODVector::Push</text>
</a>
</g>
</g>
<!-- Node2&#45;&gt;Node6 -->
<g id="edge4" class="edge">
<title>Node2&#45;&gt;Node6</title>
<path fill="none" stroke="#63b8ff" d="M474.3,-728.47C501.44,-734.58 536.42,-742.46 565.41,-748.99"/>
<polygon fill="#63b8ff" stroke="#63b8ff" points="564.61,-752.39 575.13,-751.17 566.15,-745.56 564.61,-752.39"/>
</g>
<!-- Node6&#45;&gt;Node3 -->
<g id="edge5" class="edge">
<title>Node6&#45;&gt;Node3</title>
<path fill="none" stroke="#63b8ff" d="M687.48,-768.31C700.48,-769.68 714.26,-771.13 727.6,-772.54"/>
<polygon fill="#63b8ff" stroke="#63b8ff" points="726.85,-775.98 737.17,-773.55 727.59,-769.02 726.85,-775.98"/>
</g>
<!-- Node7 -->
<g id="node6" class="node">
<title>Node7</title>
<g id="a_node6"><a xlink:href="class_urho3_d_1_1_p_o_d_vector.html#a90931bab46c47be9f1989f4ec86bd487" target="_top" xlink:title="Resize the vector.">
<polygon fill="#fff0f0" stroke="red" points="858,-731.5 750,-731.5 750,-701.5 858,-701.5 858,-731.5"/>
<text text-anchor="start" x="758" y="-719.5" font-family="Roboto" font-size="10.00">Urho3D::PODVector::</text>
<text text-anchor="middle" x="804" y="-708.5" font-family="Roboto" font-size="10.00">Resize</text>
</a>
</g>
</g>
<!-- Node6&#45;&gt;Node7 -->
<g id="edge6" class="edge">
<title>Node6&#45;&gt;Node7</title>
<path fill="none" stroke="#63b8ff" d="M665.8,-751.51C677.85,-748.65 690.95,-745.5 703,-742.5 714.48,-739.65 726.68,-736.54 738.46,-733.49"/>
<polygon fill="#63b8ff" stroke="#63b8ff" points="739.33,-736.88 748.13,-730.99 737.58,-730.11 739.33,-736.88"/>
</g>
<!-- Node9&#45;&gt;Node7 -->
<g id="edge12" class="edge">
<title>Node9&#45;&gt;Node7</title>
<path fill="none" stroke="#63b8ff" d="M474.25,-642.47C539.92,-657.25 663.5,-685.08 739.02,-702.09"/>
<polygon fill="#63b8ff" stroke="#63b8ff" points="737.8,-705.4 748.32,-704.19 739.33,-698.57 737.8,-705.4"/>
</g>
<!-- Node10 -->
<g id="node8" class="node">
<title>Node10</title>
<g id="a_node8"><a xlink:href="class_urho3_d_1_1_p_o_d_vector.html#a7eb1f171d37c47f2bd72e09b30c7e3bb" target="_top" xlink:title="Return element at index.">
<polygon fill="#fff0f0" stroke="red" points="681,-533 563,-533 563,-514 681,-514 681,-533"/>
<text text-anchor="middle" x="622" y="-521" font-family="Roboto" font-size="10.00">Urho3D::PODVector::At</text>
</a>
</g>
</g>
<!-- Node9&#45;&gt;Node10 -->
<g id="edge8" class="edge">
<title>Node9&#45;&gt;Node10</title>
<path fill="none" stroke="#63b8ff" d="M489.62,-622.59C495.14,-620.18 500.39,-617.19 505,-613.5 532.63,-591.4 513.21,-564.4 541,-542.5 544.5,-539.75 548.33,-537.38 552.36,-535.35"/>
<polygon fill="#63b8ff" stroke="#63b8ff" points="553.48,-538.68 561.32,-531.55 550.75,-532.23 553.48,-538.68"/>
</g>
<!-- Node11 -->
<g id="node9" class="node">
<title>Node11</title>
<g id="a_node9"><a xlink:href="class_urho3_d_1_1_u_i_batch.html#a0419872b79f435029f6358e5e691075c" target="_top" xlink:title="Return an interpolated color for the UI element.">
<polygon fill="#fff0f0" stroke="red" points="703,-647.5 541,-647.5 541,-617.5 703,-617.5 703,-647.5"/>
<text text-anchor="start" x="549" y="-635.5" font-family="Roboto" font-size="10.00">Urho3D::UIBatch::GetInterpolated</text>
<text text-anchor="middle" x="622" y="-624.5" font-family="Roboto" font-size="10.00">Color</text>
</a>
</g>
</g>
<!-- Node9&#45;&gt;Node11 -->
<g id="edge9" class="edge">
<title>Node9&#45;&gt;Node11</title>
<path fill="none" stroke="#63b8ff" d="M497.34,-632.5C507.7,-632.5 518.55,-632.5 529.33,-632.5"/>
<polygon fill="#63b8ff" stroke="#63b8ff" points="529.01,-636 539.01,-632.5 529.01,-629 529.01,-636"/>
</g>
<!-- Node19 -->
<g id="node10" class="node">
<title>Node19</title>
<g id="a_node10"><a xlink:href="class_urho3_d_1_1_u_i_element.html#a031e2acb1765a940b9427003cb8653d7" target="_top" xlink:title=" ">
<polygon fill="#fff0f0" stroke="red" points="674.5,-581.5 569.5,-581.5 569.5,-551.5 674.5,-551.5 674.5,-581.5"/>
<text text-anchor="start" x="577.5" y="-569.5" font-family="Roboto" font-size="10.00">Urho3D::UIElement::</text>
<text text-anchor="middle" x="622" y="-558.5" font-family="Roboto" font-size="10.00">GetScreenPosition</text>
</a>
</g>
</g>
<!-- Node9&#45;&gt;Node19 -->
<g id="edge10" class="edge">
<title>Node9&#45;&gt;Node19</title>
<path fill="none" stroke="#63b8ff" d="M473.52,-622.55C483.91,-619.88 494.92,-616.8 505,-613.5 528.85,-605.69 554.79,-595.36 576.08,-586.37"/>
<polygon fill="#63b8ff" stroke="#63b8ff" points="577.22,-589.69 585.04,-582.55 574.47,-583.25 577.22,-589.69"/>
</g>
<!-- Node9&#45;&gt;Node21 -->
<g id="edge13" class="edge">
<title>Node9&#45;&gt;Node21</title>
<path fill="none" stroke="#63b8ff" d="M491.68,-622.57C496.53,-620.14 501.07,-617.16 505,-613.5 542.33,-578.73 509.85,-544.91 541,-504.5 553.11,-488.79 571.4,-476.4 587.44,-467.66"/>
<polygon fill="#63b8ff" stroke="#63b8ff" points="588.93,-470.83 596.21,-463.14 585.72,-464.6 588.93,-470.83"/>
</g>
<!-- Node19&#45;&gt;Node19 -->
<g id="edge11" class="edge">
<title>Node19&#45;&gt;Node19</title>
<path fill="none" stroke="#63b8ff" d="M590.01,-581.78C582.9,-590.91 593.56,-599.5 622,-599.5 637.55,-599.5 647.79,-596.93 652.71,-593.11"/>
<polygon fill="#63b8ff" stroke="#63b8ff" points="656.17,-593.61 653.82,-583.28 649.22,-592.82 656.17,-593.61"/>
</g>
<!-- Node22&#45;&gt;Node9 -->
<g id="edge15" class="edge">
<title>Node22&#45;&gt;Node9</title>
<path fill="none" stroke="#63b8ff" d="M254.42,-524.39C269.75,-536.3 295.9,-557.1 317,-576.5 333.89,-592.03 333.13,-602.03 353,-613.5 356.2,-615.35 359.58,-617.02 363.06,-618.52"/>
<polygon fill="#63b8ff" stroke="#63b8ff" points="361.72,-621.76 372.32,-622.05 364.21,-615.22 361.72,-621.76"/>
</g>
<!-- Node22&#45;&gt;Node10 -->
<g id="edge16" class="edge">
<title>Node22&#45;&gt;Node10</title>
<path fill="none" stroke="#63b8ff" d="M278.35,-524.49C299.92,-529.82 327.8,-535.82 353,-538.5 420.18,-545.65 437.58,-542.84 505,-538.5 520.17,-537.52 536.38,-535.84 551.73,-533.94"/>
<polygon fill="#63b8ff" stroke="#63b8ff" points="551.75,-537.46 561.22,-532.72 550.86,-530.52 551.75,-537.46"/>
</g>
<!-- Node22&#45;&gt;Node21 -->
<g id="edge19" class="edge">
<title>Node22&#45;&gt;Node21</title>
<path fill="none" stroke="#63b8ff" d="M284.25,-504.55C304.94,-499.93 330.19,-494.57 353,-490.5 418.33,-478.85 493.13,-468.49 547.07,-461.54"/>
<polygon fill="#63b8ff" stroke="#63b8ff" points="547.28,-465.05 556.75,-460.31 546.39,-458.1 547.28,-465.05"/>
</g>
<!-- Node22&#45;&gt;Node23 -->
<g id="edge17" class="edge">
<title>Node22&#45;&gt;Node23</title>
<path fill="none" stroke="#63b8ff" d="M284.01,-524.48C295.16,-528.03 306.88,-532.64 317,-538.5 335.78,-549.38 334.23,-560.61 353,-571.5 359.91,-575.51 367.58,-578.94 375.29,-581.85"/>
<polygon fill="#63b8ff" stroke="#63b8ff" points="374.13,-585.15 384.73,-585.12 376.43,-578.54 374.13,-585.15"/>
</g>
<!-- Node24 -->
<g id="node14" class="node">
<title>Node24</title>
<g id="a_node14"><a xlink:href="class_urho3_d_1_1_u_i_batch.html#a2f2038027b731686692757da512dfc0f" target="_top" xlink:title="Restore UI element&#39;s default color.">
<polygon fill="#fff0f0" stroke="red" points="499,-529.5 359,-529.5 359,-499.5 499,-499.5 499,-529.5"/>
<text text-anchor="start" x="367" y="-517.5" font-family="Roboto" font-size="10.00">Urho3D::UIBatch::SetDefault</text>
<text text-anchor="middle" x="429" y="-506.5" font-family="Roboto" font-size="10.00">Color</text>
</a>
</g>
</g>
<!-- Node22&#45;&gt;Node24 -->
<g id="edge18" class="edge">
<title>Node22&#45;&gt;Node24</title>
<path fill="none" stroke="#63b8ff" d="M313.87,-514.5C324.82,-514.5 336.16,-514.5 347.27,-514.5"/>
<polygon fill="#63b8ff" stroke="#63b8ff" points="347.21,-518 357.21,-514.5 347.21,-511 347.21,-518"/>
</g>
<!-- Node27&#45;&gt;Node27 -->
<g id="edge21" class="edge">
<title>Node27&#45;&gt;Node27</title>
<path fill="none" stroke="#63b8ff" d="M212.87,-270.37C200.26,-278.94 209.47,-288 240.5,-288 257.95,-288 268.5,-285.13 272.15,-281.1"/>
<polygon fill="#63b8ff" stroke="#63b8ff" points="275.45,-279.92 268.66,-271.79 268.89,-282.38 275.45,-279.92"/>
</g>
<!-- Node28&#45;&gt;Node2 -->
<g id="edge23" class="edge">
<title>Node28&#45;&gt;Node2</title>
<path fill="none" stroke="#63b8ff" d="M263.15,-648.87C284.93,-663.7 319.94,-685.86 353,-699.5 358.22,-701.65 363.75,-703.61 369.35,-705.38"/>
<polygon fill="#63b8ff" stroke="#63b8ff" points="368.09,-708.66 378.67,-708.13 370.07,-701.95 368.09,-708.66"/>
</g>
<!-- Node28&#45;&gt;Node9 -->
<g id="edge24" class="edge">
<title>Node28&#45;&gt;Node9</title>
<path fill="none" stroke="#63b8ff" d="M295.94,-633.21C312.6,-633.12 331.28,-633.02 349.22,-632.92"/>
<polygon fill="#63b8ff" stroke="#63b8ff" points="349.07,-636.42 359.05,-632.87 349.03,-629.42 349.07,-636.42"/>
</g>
<!-- Node28&#45;&gt;Node23 -->
<g id="edge26" class="edge">
<title>Node28&#45;&gt;Node23</title>
<path fill="none" stroke="#63b8ff" d="M295.94,-622.41C318.58,-617.79 344.93,-612.43 368.11,-607.7"/>
<polygon fill="#63b8ff" stroke="#63b8ff" points="368.63,-611.17 377.73,-605.74 367.23,-604.31 368.63,-611.17"/>
</g>
<!-- Node29 -->
<g id="node17" class="node">
<title>Node29</title>
<g id="a_node17"><a xlink:href="class_urho3_d_1_1_u_i_element.html#a74426efba577c8b92f7b49c307d7a446" target="_top" xlink:title=" ">
<polygon fill="white" stroke="#666666" points="481.5,-690.5 376.5,-690.5 376.5,-660.5 481.5,-660.5 481.5,-690.5"/>
<text text-anchor="start" x="384.5" y="-678.5" font-family="Roboto" font-size="10.00">Urho3D::UIElement::</text>
<text text-anchor="middle" x="429" y="-667.5" font-family="Roboto" font-size="10.00">GetHeight</text>
</a>
</g>
</g>
<!-- Node28&#45;&gt;Node29 -->
<g id="edge25" class="edge">
<title>Node28&#45;&gt;Node29</title>
<path fill="none" stroke="#63b8ff" d="M295.94,-645.76C317.56,-650.63 342.56,-656.26 364.95,-661.3"/>
<polygon fill="#63b8ff" stroke="#63b8ff" points="364.05,-664.69 374.58,-663.47 365.59,-657.86 364.05,-664.69"/>
</g>
<!-- Node34&#45;&gt;Node34 -->
<g id="edge31" class="edge">
<title>Node34&#45;&gt;Node34</title>
<path fill="none" stroke="#63b8ff" d="M212.87,-166.37C200.26,-174.94 209.47,-184 240.5,-184 257.95,-184 268.5,-181.13 272.15,-177.1"/>
<polygon fill="#63b8ff" stroke="#63b8ff" points="275.45,-175.92 268.66,-167.79 268.89,-178.38 275.45,-175.92"/>
</g>
<!-- Node35&#45;&gt;Node35 -->
<g id="edge33" class="edge">
<title>Node35&#45;&gt;Node35</title>
<path fill="none" stroke="#63b8ff" d="M212.87,-111.37C200.26,-119.94 209.47,-129 240.5,-129 257.95,-129 268.5,-126.13 272.15,-122.1"/>
<polygon fill="#63b8ff" stroke="#63b8ff" points="275.45,-120.92 268.66,-112.79 268.89,-123.38 275.45,-120.92"/>
</g>
<!-- Node36&#45;&gt;Node36 -->
<g id="edge36" class="edge">
<title>Node36&#45;&gt;Node36</title>
<path fill="none" stroke="#63b8ff" d="M212.87,-56.37C200.26,-64.94 209.47,-74 240.5,-74 257.95,-74 268.5,-71.13 272.15,-67.1"/>
<polygon fill="#63b8ff" stroke="#63b8ff" points="275.45,-65.92 268.66,-57.79 268.89,-68.38 275.45,-65.92"/>
</g>
<!-- Node38&#45;&gt;Node21 -->
<g id="edge42" class="edge">
<title>Node38&#45;&gt;Node21</title>
<path fill="none" stroke="#63b8ff" d="M306.34,-354.62C360.79,-352.64 439.89,-354.76 505,-376.5 542.6,-389.05 579.81,-416.89 601.59,-435.17"/>
<polygon fill="#63b8ff" stroke="#63b8ff" points="599.18,-437.71 609.04,-441.58 603.75,-432.41 599.18,-437.71"/>
</g>
<!-- Node38&#45;&gt;Node31 -->
<g id="edge40" class="edge">
<title>Node38&#45;&gt;Node31</title>
<path fill="none" stroke="#63b8ff" d="M306.47,-372.04C325.53,-375.72 346.35,-379.74 365.27,-383.39"/>
<polygon fill="#63b8ff" stroke="#63b8ff" points="364.5,-386.81 374.99,-385.27 365.83,-379.93 364.5,-386.81"/>
</g>
<!-- Node38&#45;&gt;Node32 -->
<g id="edge41" class="edge">
<title>Node38&#45;&gt;Node32</title>
<path fill="none" stroke="#63b8ff" d="M306.47,-345.22C327.67,-340.56 351.02,-335.42 371.54,-330.91"/>
<polygon fill="#63b8ff" stroke="#63b8ff" points="372.13,-334.37 381.14,-328.8 370.62,-327.53 372.13,-334.37"/>
</g>
</g>
</svg>
