<?xml version="1.0" encoding="UTF-8" standalone="no"?>
<!DOCTYPE svg PUBLIC "-//W3C//DTD SVG 1.1//EN"
 "http://www.w3.org/Graphics/SVG/1.1/DTD/svg11.dtd">
<!-- Generated by graphviz version 7.0.3 (0)
 -->
<!-- Title: Urho3D::ParticleEmitter2D::SetSprite Pages: 1 -->
<svg width="616pt" height="86pt"
 viewBox="0.00 0.00 616.00 86.00" xmlns="http://www.w3.org/2000/svg" xmlns:xlink="http://www.w3.org/1999/xlink">
<g id="graph0" class="graph" transform="scale(1 1) rotate(0) translate(4 82)">
<title>Urho3D::ParticleEmitter2D::SetSprite</title>
<!-- Node1 -->
<g id="node1" class="node">
<title>Node1</title>
<g id="a_node1"><a xlink:title=" ">
<polygon fill="#999999" stroke="#666666" points="608,-53 483,-53 483,-23 608,-23 608,-53"/>
<text text-anchor="start" x="491" y="-41" font-family="Roboto" font-size="10.00">Urho3D::ParticleEmitter2</text>
<text text-anchor="middle" x="545.5" y="-30" font-family="Roboto" font-size="10.00">D::SetSprite</text>
</a>
</g>
</g>
<!-- Node2 -->
<g id="node2" class="node">
<title>Node2</title>
<g id="a_node2"><a xlink:href="class_urho3_d_1_1_particle_emitter2_d.html#adb142de406c85feaa9072b3c871cb059" target="_top" xlink:title=" ">
<polygon fill="white" stroke="#666666" points="447,-76 322,-76 322,-46 447,-46 447,-76"/>
<text text-anchor="start" x="330" y="-64" font-family="Roboto" font-size="10.00">Urho3D::ParticleEmitter2</text>
<text text-anchor="middle" x="384.5" y="-53" font-family="Roboto" font-size="10.00">D::SetEffect</text>
</a>
</g>
</g>
<!-- Node1&#45;&gt;Node2 -->
<g id="edge1" class="edge">
<title>Node1&#45;&gt;Node2</title>
<path fill="none" stroke="#63b8ff" d="M471.3,-48.59C463.26,-49.75 455.14,-50.93 447.26,-52.07"/>
<polygon fill="#63b8ff" stroke="#63b8ff" points="471.68,-52.07 481.07,-47.17 470.68,-45.14 471.68,-52.07"/>
</g>
<!-- Node5 -->
<g id="node5" class="node">
<title>Node5</title>
<g id="a_node5"><a xlink:href="class_urho3_d_1_1_particle_emitter2_d.html#a816e722733624c20cdd757bad70b4da6" target="_top" xlink:title="Set sprite attribute.">
<polygon fill="white" stroke="#666666" points="286,-30 161,-30 161,0 286,0 286,-30"/>
<text text-anchor="start" x="169" y="-18" font-family="Roboto" font-size="10.00">Urho3D::ParticleEmitter2</text>
<text text-anchor="middle" x="223.5" y="-7" font-family="Roboto" font-size="10.00">D::SetSpriteAttr</text>
</a>
</g>
</g>
<!-- Node1&#45;&gt;Node5 -->
<g id="edge4" class="edge">
<title>Node1&#45;&gt;Node5</title>
<path fill="none" stroke="#63b8ff" d="M471.54,-32.76C415.59,-28.73 339.23,-23.25 286.28,-19.44"/>
<polygon fill="#63b8ff" stroke="#63b8ff" points="471.07,-36.23 481.29,-33.46 471.57,-29.25 471.07,-36.23"/>
</g>
<!-- Node3 -->
<g id="node3" class="node">
<title>Node3</title>
<g id="a_node3"><a xlink:href="class_urho3_d_1_1_particle_emitter2_d.html#a98bfbbf39e5ce791ab085c81d93bdb75" target="_top" xlink:title="Set particle model attr.">
<polygon fill="white" stroke="#666666" points="286,-78 161,-78 161,-48 286,-48 286,-78"/>
<text text-anchor="start" x="169" y="-66" font-family="Roboto" font-size="10.00">Urho3D::ParticleEmitter2</text>
<text text-anchor="middle" x="223.5" y="-55" font-family="Roboto" font-size="10.00">D::SetParticleEffectAttr</text>
</a>
</g>
</g>
<!-- Node2&#45;&gt;Node3 -->
<g id="edge2" class="edge">
<title>Node2&#45;&gt;Node3</title>
<path fill="none" stroke="#63b8ff" d="M310.3,-61.92C302.26,-62.02 294.14,-62.12 286.26,-62.22"/>
<polygon fill="#63b8ff" stroke="#63b8ff" points="310.1,-65.42 320.06,-61.8 310.01,-58.42 310.1,-65.42"/>
</g>
<!-- Node4 -->
<g id="node4" class="node">
<title>Node4</title>
<g id="a_node4"><a xlink:href="class_urho3_d_1_1_particle_emitter2_d.html#a19580e35a9410d2ae90ab7acc0c72d29" target="_top" xlink:title=" ">
<polygon fill="white" stroke="#666666" points="125,-54 0,-54 0,-24 125,-24 125,-54"/>
<text text-anchor="start" x="8" y="-42" font-family="Roboto" font-size="10.00">Urho3D::ParticleEmitter2</text>
<text text-anchor="middle" x="62.5" y="-31" font-family="Roboto" font-size="10.00">D::RegisterObject</text>
</a>
</g>
</g>
<!-- Node3&#45;&gt;Node4 -->
<g id="edge3" class="edge">
<title>Node3&#45;&gt;Node4</title>
<path fill="none" stroke="#63b8ff" d="M149.3,-51.95C141.26,-50.74 133.14,-49.51 125.26,-48.32"/>
<polygon fill="#63b8ff" stroke="#63b8ff" points="148.66,-55.39 159.07,-53.43 149.71,-48.47 148.66,-55.39"/>
</g>
<!-- Node5&#45;&gt;Node4 -->
<g id="edge5" class="edge">
<title>Node5&#45;&gt;Node4</title>
<path fill="none" stroke="#63b8ff" d="M149.3,-26.05C141.26,-27.26 133.14,-28.49 125.26,-29.68"/>
<polygon fill="#63b8ff" stroke="#63b8ff" points="149.71,-29.53 159.07,-24.57 148.66,-22.61 149.71,-29.53"/>
</g>
</g>
</svg>
