<?xml version="1.0" encoding="UTF-8" standalone="no"?>
<!DOCTYPE svg PUBLIC "-//W3C//DTD SVG 1.1//EN"
 "http://www.w3.org/Graphics/SVG/1.1/DTD/svg11.dtd">
<!-- Generated by graphviz version 7.0.3 (0)
 -->
<!-- Title: Urho3D::Skybox Pages: 1 -->
<svg width="1524pt" height="748pt"
 viewBox="0.00 0.00 1524.00 748.00" xmlns="http://www.w3.org/2000/svg" xmlns:xlink="http://www.w3.org/1999/xlink">
<g id="graph0" class="graph" transform="scale(1 1) rotate(0) translate(4 744)">
<title>Urho3D::Skybox</title>
<!-- Node1 -->
<g id="node1" class="node">
<title>Node1</title>
<g id="a_node1"><a xlink:title="Static model component with fixed position in relation to the camera.">
<polygon fill="#999999" stroke="#666666" points="1516,-525 1430,-525 1430,-506 1516,-506 1516,-525"/>
<text text-anchor="middle" x="1473" y="-513" font-family="Roboto" font-size="10.00">Urho3D::Skybox</text>
</a>
</g>
</g>
<!-- Node2 -->
<g id="node2" class="node">
<title>Node2</title>
<g id="a_node2"><a xlink:href="class_urho3_d_1_1_static_model.html" target="_top" xlink:title="Static model component.">
<polygon fill="white" stroke="#666666" points="1249.5,-559 1141.5,-559 1141.5,-540 1249.5,-540 1249.5,-559"/>
<text text-anchor="middle" x="1195.5" y="-547" font-family="Roboto" font-size="10.00">Urho3D::StaticModel</text>
</a>
</g>
</g>
<!-- Node2&#45;&gt;Node1 -->
<g id="edge1" class="edge">
<title>Node2&#45;&gt;Node1</title>
<path fill="none" stroke="#63b8ff" d="M1261.05,-541.53C1313.01,-535.12 1384.55,-526.29 1429.53,-520.74"/>
<polygon fill="#63b8ff" stroke="#63b8ff" points="1260.94,-538.02 1251.45,-542.72 1261.8,-544.97 1260.94,-538.02"/>
</g>
<!-- Node3 -->
<g id="node3" class="node">
<title>Node3</title>
<g id="a_node3"><a xlink:href="class_urho3_d_1_1_drawable.html" target="_top" xlink:title="Base class for visible components.">
<polygon fill="white" stroke="#666666" points="819,-312 724,-312 724,-293 819,-293 819,-312"/>
<text text-anchor="middle" x="771.5" y="-300" font-family="Roboto" font-size="10.00">Urho3D::Drawable</text>
</a>
</g>
</g>
<!-- Node3&#45;&gt;Node2 -->
<g id="edge2" class="edge">
<title>Node3&#45;&gt;Node2</title>
<path fill="none" stroke="#63b8ff" d="M795.44,-318.93C849.56,-357.22 990.19,-454.04 1117,-518.5 1132.89,-526.58 1151.4,-534.05 1166.35,-539.63"/>
<polygon fill="#63b8ff" stroke="#63b8ff" points="797.5,-316.1 787.32,-313.16 793.44,-321.8 797.5,-316.1"/>
</g>
<!-- Node104 -->
<g id="node11" class="node">
<title>Node104</title>
<g id="a_node11"><a xlink:href="class_urho3_d_1_1_zone.html" target="_top" xlink:title="Component that describes global rendering properties.">
<polygon fill="#fff0f0" stroke="red" points="1031.5,-253 954.5,-253 954.5,-234 1031.5,-234 1031.5,-253"/>
<text text-anchor="middle" x="993" y="-241" font-family="Roboto" font-size="10.00">Urho3D::Zone</text>
</a>
</g>
</g>
<!-- Node3&#45;&gt;Node104 -->
<g id="edge15" class="edge">
<title>Node3&#45;&gt;Node104</title>
<path fill="none" stroke="#63b8ff" d="M820.19,-289.68C860.72,-278.79 918.06,-263.37 955.14,-253.41"/>
<polygon fill="#63b8ff" stroke="#63b8ff" points="819.45,-286.26 810.7,-292.23 821.27,-293.02 819.45,-286.26"/>
</g>
<!-- Node153 -->
<g id="node13" class="node">
<title>Node153</title>
<g id="a_node13"><a xlink:href="class_urho3_d_1_1_light.html" target="_top" xlink:title="Light component.">
<polygon fill="#fff0f0" stroke="red" points="1031,-325 955,-325 955,-306 1031,-306 1031,-325"/>
<text text-anchor="middle" x="993" y="-313" font-family="Roboto" font-size="10.00">Urho3D::Light</text>
</a>
</g>
</g>
<!-- Node3&#45;&gt;Node153 -->
<g id="edge20" class="edge">
<title>Node3&#45;&gt;Node153</title>
<path fill="none" stroke="#63b8ff" d="M830.52,-312.14C838.06,-313.1 845.7,-313.93 853,-314.5 887.41,-317.17 926.75,-317.17 954.77,-316.65"/>
<polygon fill="#63b8ff" stroke="#63b8ff" points="831.08,-308.69 820.7,-310.8 830.13,-315.62 831.08,-308.69"/>
</g>
<!-- Node4 -->
<g id="node4" class="node">
<title>Node4</title>
<g id="a_node4"><a xlink:href="class_urho3_d_1_1_component.html" target="_top" xlink:title=" ">
<polygon fill="white" stroke="#666666" points="501.5,-395 394.5,-395 394.5,-376 501.5,-376 501.5,-395"/>
<text text-anchor="middle" x="448" y="-383" font-family="Roboto" font-size="10.00">Urho3D::Component</text>
</a>
</g>
</g>
<!-- Node4&#45;&gt;Node3 -->
<g id="edge3" class="edge">
<title>Node4&#45;&gt;Node3</title>
<path fill="none" stroke="#63b8ff" d="M506.76,-370.46C510.88,-367.92 514.7,-364.96 518,-361.5 537.5,-341.04 513.36,-317.42 536,-300.5 597.47,-254.55 695.56,-277.35 743.01,-292.57"/>
<polygon fill="#63b8ff" stroke="#63b8ff" points="505.34,-367.25 498.05,-374.94 508.55,-373.47 505.34,-367.25"/>
</g>
<!-- Node5 -->
<g id="node5" class="node">
<title>Node5</title>
<g id="a_node5"><a xlink:href="class_urho3_d_1_1_animatable.html" target="_top" xlink:title="Base class for animatable object, an animatable object can be set animation on it&#39;s attributes,...">
<polygon fill="#fff0f0" stroke="red" points="104,-404 0,-404 0,-385 104,-385 104,-404"/>
<text text-anchor="middle" x="52" y="-392" font-family="Roboto" font-size="10.00">Urho3D::Animatable</text>
</a>
</g>
</g>
<!-- Node5&#45;&gt;Node4 -->
<g id="edge4" class="edge">
<title>Node5&#45;&gt;Node4</title>
<path fill="none" stroke="#63b8ff" d="M113.92,-406.25C122.97,-407.6 132.2,-408.76 141,-409.5 229.81,-417.01 333.18,-404.47 394.19,-394.86"/>
<polygon fill="#63b8ff" stroke="#63b8ff" points="114.53,-402.81 104.1,-404.7 113.43,-409.72 114.53,-402.81"/>
</g>
<!-- Node44 -->
<g id="node6" class="node">
<title>Node44</title>
<g id="a_node6"><a xlink:href="class_urho3_d_1_1_node.html" target="_top" xlink:title="Scene node that may contain components and child nodes.">
<polygon fill="#fff0f0" stroke="red" points="237.5,-371 157.5,-371 157.5,-352 237.5,-352 237.5,-371"/>
<text text-anchor="middle" x="197.5" y="-359" font-family="Roboto" font-size="10.00">Urho3D::Node</text>
</a>
</g>
</g>
<!-- Node5&#45;&gt;Node44 -->
<g id="edge6" class="edge">
<title>Node5&#45;&gt;Node44</title>
<path fill="none" stroke="#63b8ff" d="M107.6,-381.94C124.07,-378.16 141.83,-374.07 157.11,-370.56"/>
<polygon fill="#63b8ff" stroke="#63b8ff" points="106.88,-378.52 97.92,-384.17 108.45,-385.34 106.88,-378.52"/>
</g>
<!-- Node44&#45;&gt;Node4 -->
<g id="edge5" class="edge">
<title>Node44&#45;&gt;Node4</title>
<path fill="none" stroke="#9a32cd" stroke-dasharray="5,2" d="M249.31,-366.41C291.6,-370.49 351.6,-376.29 394.39,-380.42"/>
<polygon fill="#9a32cd" stroke="#9a32cd" points="249.67,-362.93 239.38,-365.45 249,-369.89 249.67,-362.93"/>
<text text-anchor="middle" x="316" y="-379.5" font-family="Roboto" font-size="10.00"> node_</text>
</g>
<!-- Node44&#45;&gt;Node44 -->
<g id="edge7" class="edge">
<title>Node44&#45;&gt;Node44</title>
<path fill="none" stroke="#9a32cd" stroke-dasharray="5,2" d="M184.34,-382.76C186.11,-386.44 190.5,-389 197.5,-389 210.68,-389 214.6,-379.94 209.24,-371.37"/>
<polygon fill="#9a32cd" stroke="#9a32cd" points="187.81,-383.23 185.57,-372.87 180.86,-382.36 187.81,-383.23"/>
<text text-anchor="middle" x="197.5" y="-392" font-family="Roboto" font-size="10.00"> parent_</text>
</g>
<!-- Node99 -->
<g id="node7" class="node">
<title>Node99</title>
<g id="a_node7"><a xlink:href="class_urho3_d_1_1_bounding_box.html" target="_top" xlink:title=" ">
<polygon fill="#fff0f0" stroke="red" points="254,-245 141,-245 141,-226 254,-226 254,-245"/>
<text text-anchor="middle" x="197.5" y="-233" font-family="Roboto" font-size="10.00">Urho3D::BoundingBox</text>
</a>
</g>
</g>
<!-- Node99&#45;&gt;Node3 -->
<g id="edge8" class="edge">
<title>Node99&#45;&gt;Node3</title>
<path fill="none" stroke="#9a32cd" stroke-dasharray="5,2" d="M258.63,-223.6C354.02,-207.55 544.16,-187.21 690,-245.5 717.99,-256.69 745.54,-279.43 760.03,-292.56"/>
<polygon fill="#9a32cd" stroke="#9a32cd" points="258.22,-220.12 248.97,-225.27 259.42,-227.02 258.22,-220.12"/>
<text text-anchor="middle" x="448" y="-222.5" font-family="Roboto" font-size="10.00"> boundingBox_</text>
<text text-anchor="middle" x="448" y="-211.5" font-family="Roboto" font-size="10.00">worldBoundingBox_</text>
</g>
<!-- Node101 -->
<g id="node10" class="node">
<title>Node101</title>
<g id="a_node10"><a xlink:href="class_urho3_d_1_1_octant.html" target="_top" xlink:title=" ">
<polygon fill="#fff0f0" stroke="red" points="489.5,-270 406.5,-270 406.5,-251 489.5,-251 489.5,-270"/>
<text text-anchor="middle" x="448" y="-258" font-family="Roboto" font-size="10.00">Urho3D::Octant</text>
</a>
</g>
</g>
<!-- Node99&#45;&gt;Node101 -->
<g id="edge12" class="edge">
<title>Node99&#45;&gt;Node101</title>
<path fill="none" stroke="#9a32cd" stroke-dasharray="5,2" d="M265.67,-242.26C310.5,-246.77 368.01,-252.55 406.11,-256.39"/>
<polygon fill="#9a32cd" stroke="#9a32cd" points="266.07,-238.78 255.77,-241.26 265.37,-245.75 266.07,-238.78"/>
<text text-anchor="middle" x="316" y="-265.5" font-family="Roboto" font-size="10.00"> cullingBox_</text>
<text text-anchor="middle" x="316" y="-254.5" font-family="Roboto" font-size="10.00">worldBoundingBox_</text>
</g>
<!-- Node99&#45;&gt;Node104 -->
<g id="edge16" class="edge">
<title>Node99&#45;&gt;Node104</title>
<path fill="none" stroke="#9a32cd" stroke-dasharray="5,2" d="M228.49,-221.04C241.55,-215.44 257.22,-209.63 272,-206.5 453.81,-167.99 504.7,-181.27 690,-195.5 785.81,-202.86 897.11,-223.81 954.1,-235.45"/>
<polygon fill="#9a32cd" stroke="#9a32cd" points="227.3,-217.74 219.6,-225.01 230.16,-224.13 227.3,-217.74"/>
<text text-anchor="middle" x="613" y="-198.5" font-family="Roboto" font-size="10.00"> lastWorldBoundingBox_</text>
</g>
<!-- Node172 -->
<g id="node18" class="node">
<title>Node172</title>
<g id="a_node18"><a xlink:href="class_urho3_d_1_1_model.html" target="_top" xlink:title="3D model resource.">
<polygon fill="#fff0f0" stroke="red" points="813,-534 730,-534 730,-515 813,-515 813,-534"/>
<text text-anchor="middle" x="771.5" y="-522" font-family="Roboto" font-size="10.00">Urho3D::Model</text>
</a>
</g>
</g>
<!-- Node99&#45;&gt;Node172 -->
<g id="edge29" class="edge">
<title>Node99&#45;&gt;Node172</title>
<path fill="none" stroke="#9a32cd" stroke-dasharray="5,2" d="M224.04,-251.28C237.96,-259.58 255.64,-269.63 272,-277.5 317.67,-299.46 329.86,-303.66 378,-319.5 439.14,-339.61 471.07,-312.46 518,-356.5 536.45,-373.81 519.32,-391.48 536,-410.5 565.48,-444.11 689.04,-493.71 743.98,-514.63"/>
<polygon fill="#9a32cd" stroke="#9a32cd" points="225.87,-248.3 215.5,-246.13 222.25,-254.29 225.87,-248.3"/>
<text text-anchor="middle" x="448" y="-359.5" font-family="Roboto" font-size="10.00"> boundingBox_</text>
</g>
<!-- Node100 -->
<g id="node8" class="node">
<title>Node100</title>
<g id="a_node8"><a xlink:href="class_urho3_d_1_1_vector.html" target="_top" xlink:title=" ">
<polygon fill="white" stroke="#666666" points="510.5,-539.5 385.5,-539.5 385.5,-509.5 510.5,-509.5 510.5,-539.5"/>
<text text-anchor="start" x="393.5" y="-527.5" font-family="Roboto" font-size="10.00">Urho3D::Vector&lt; Urho3D</text>
<text text-anchor="middle" x="448" y="-516.5" font-family="Roboto" font-size="10.00">::SourceBatch &gt;</text>
</a>
</g>
</g>
<!-- Node100&#45;&gt;Node3 -->
<g id="edge9" class="edge">
<title>Node100&#45;&gt;Node3</title>
<path fill="none" stroke="#9a32cd" stroke-dasharray="5,2" d="M509.64,-504.56C512.5,-503.26 515.3,-501.91 518,-500.5 623.76,-445.48 729.15,-344.09 760.88,-312.3"/>
<polygon fill="#9a32cd" stroke="#9a32cd" points="508.34,-501.3 500.5,-508.42 511.07,-507.75 508.34,-501.3"/>
<text text-anchor="middle" x="613" y="-490.5" font-family="Roboto" font-size="10.00"> batches_</text>
</g>
<!-- Node21 -->
<g id="node9" class="node">
<title>Node21</title>
<g id="a_node9"><a xlink:href="class_urho3_d_1_1_vector_base.html" target="_top" xlink:title="Vector base class.">
<polygon fill="white" stroke="#666666" points="250.5,-562 144.5,-562 144.5,-543 250.5,-543 250.5,-562"/>
<text text-anchor="middle" x="197.5" y="-550" font-family="Roboto" font-size="10.00">Urho3D::VectorBase</text>
</a>
</g>
</g>
<!-- Node21&#45;&gt;Node100 -->
<g id="edge10" class="edge">
<title>Node21&#45;&gt;Node100</title>
<path fill="none" stroke="#63b8ff" d="M262.27,-545.31C300.01,-541.06 347.59,-535.7 385.02,-531.48"/>
<polygon fill="#63b8ff" stroke="#63b8ff" points="261.95,-541.83 252.4,-546.43 262.73,-548.78 261.95,-541.83"/>
</g>
<!-- Node152 -->
<g id="node12" class="node">
<title>Node152</title>
<g id="a_node12"><a xlink:href="class_urho3_d_1_1_p_o_d_vector.html" target="_top" xlink:title=" ">
<polygon fill="white" stroke="#666666" points="502.5,-491.5 393.5,-491.5 393.5,-461.5 502.5,-461.5 502.5,-491.5"/>
<text text-anchor="start" x="401.5" y="-479.5" font-family="Roboto" font-size="10.00">Urho3D::PODVector&lt;</text>
<text text-anchor="middle" x="448" y="-468.5" font-family="Roboto" font-size="10.00"> Urho3D::Camera * &gt;</text>
</a>
</g>
</g>
<!-- Node21&#45;&gt;Node152 -->
<g id="edge18" class="edge">
<title>Node21&#45;&gt;Node152</title>
<path fill="none" stroke="#63b8ff" d="M240.72,-539.21C250.95,-536.01 261.86,-532.62 272,-529.5 313.56,-516.7 360.76,-502.42 395.66,-491.91"/>
<polygon fill="#63b8ff" stroke="#63b8ff" points="239.9,-535.81 231.4,-542.13 241.99,-542.49 239.9,-535.81"/>
</g>
<!-- Node168 -->
<g id="node14" class="node">
<title>Node168</title>
<g id="a_node14"><a xlink:href="class_urho3_d_1_1_p_o_d_vector.html" target="_top" xlink:title=" ">
<polygon fill="white" stroke="#666666" points="502.5,-443.5 393.5,-443.5 393.5,-413.5 502.5,-413.5 502.5,-443.5"/>
<text text-anchor="start" x="401.5" y="-431.5" font-family="Roboto" font-size="10.00">Urho3D::PODVector&lt;</text>
<text text-anchor="middle" x="448" y="-420.5" font-family="Roboto" font-size="10.00"> Urho3D::Light * &gt;</text>
</a>
</g>
</g>
<!-- Node21&#45;&gt;Node168 -->
<g id="edge22" class="edge">
<title>Node21&#45;&gt;Node168</title>
<path fill="none" stroke="#63b8ff" d="M218.84,-535.63C233.14,-524.25 253.04,-509.4 272,-498.5 316.53,-472.91 330.16,-471.17 378,-452.5 385.44,-449.6 393.4,-446.67 401.17,-443.9"/>
<polygon fill="#63b8ff" stroke="#63b8ff" points="216.66,-532.89 211.09,-541.9 221.06,-538.33 216.66,-532.89"/>
</g>
<!-- Node169 -->
<g id="node15" class="node">
<title>Node169</title>
<g id="a_node15"><a xlink:href="class_urho3_d_1_1_p_o_d_vector.html" target="_top" xlink:title=" ">
<polygon fill="white" stroke="#666666" points="690,-588 536,-588 536,-547 690,-547 690,-588"/>
<text text-anchor="start" x="544" y="-576" font-family="Roboto" font-size="10.00">Urho3D::PODVector&lt;</text>
<text text-anchor="start" x="544" y="-565" font-family="Roboto" font-size="10.00"> Urho3D::StaticModelGeometry</text>
<text text-anchor="middle" x="613" y="-554" font-family="Roboto" font-size="10.00">Data &gt;</text>
</a>
</g>
</g>
<!-- Node21&#45;&gt;Node169 -->
<g id="edge24" class="edge">
<title>Node21&#45;&gt;Node169</title>
<path fill="none" stroke="#63b8ff" d="M262.28,-554.81C336.01,-557.49 457.26,-561.89 535.86,-564.74"/>
<polygon fill="#63b8ff" stroke="#63b8ff" points="262.5,-551.32 252.38,-554.45 262.25,-558.31 262.5,-551.32"/>
</g>
<!-- Node170 -->
<g id="node16" class="node">
<title>Node170</title>
<g id="a_node16"><a xlink:href="class_urho3_d_1_1_vector.html" target="_top" xlink:title=" ">
<polygon fill="white" stroke="#666666" points="518,-637 378,-637 378,-596 518,-596 518,-637"/>
<text text-anchor="start" x="386" y="-625" font-family="Roboto" font-size="10.00">Urho3D::Vector&lt; Urho3D</text>
<text text-anchor="start" x="386" y="-614" font-family="Roboto" font-size="10.00">::Vector&lt; Urho3D::SharedPtr</text>
<text text-anchor="middle" x="448" y="-603" font-family="Roboto" font-size="10.00">&lt; Urho3D::Geometry &gt; &gt; &gt;</text>
</a>
</g>
</g>
<!-- Node21&#45;&gt;Node170 -->
<g id="edge26" class="edge">
<title>Node21&#45;&gt;Node170</title>
<path fill="none" stroke="#63b8ff" d="M231.12,-566.82C243.72,-571.96 258.36,-577.48 272,-581.5 306.33,-591.62 345.3,-599.73 377.74,-605.59"/>
<polygon fill="#63b8ff" stroke="#63b8ff" points="232.63,-563.65 222.05,-563.02 229.93,-570.11 232.63,-563.65"/>
</g>
<!-- Node98 -->
<g id="node21" class="node">
<title>Node98</title>
<g id="a_node21"><a xlink:href="class_urho3_d_1_1_vector.html" target="_top" xlink:title=" ">
<polygon fill="white" stroke="#666666" points="510.5,-674 385.5,-674 385.5,-655 510.5,-655 510.5,-674"/>
<text text-anchor="middle" x="448" y="-662" font-family="Roboto" font-size="10.00">Urho3D::Vector&lt; String &gt;</text>
</a>
</g>
</g>
<!-- Node21&#45;&gt;Node98 -->
<g id="edge35" class="edge">
<title>Node21&#45;&gt;Node98</title>
<path fill="none" stroke="#63b8ff" d="M218.75,-569.27C233.01,-580.53 252.9,-595.14 272,-605.5 316.4,-629.58 329.93,-630.99 378,-646.5 386.84,-649.35 396.42,-652.08 405.55,-654.51"/>
<polygon fill="#63b8ff" stroke="#63b8ff" points="221.01,-566.6 211.03,-563.06 216.62,-572.06 221.01,-566.6"/>
</g>
<!-- Node101&#45;&gt;Node3 -->
<g id="edge11" class="edge">
<title>Node101&#45;&gt;Node3</title>
<path fill="none" stroke="#9a32cd" stroke-dasharray="5,2" d="M501.12,-253.85C550.5,-249.14 626.38,-246.09 690,-261.5 714.85,-267.52 740.69,-282.49 756.18,-292.58"/>
<polygon fill="#9a32cd" stroke="#9a32cd" points="500.87,-250.35 491.28,-254.85 501.58,-257.32 500.87,-250.35"/>
<text text-anchor="middle" x="613" y="-264.5" font-family="Roboto" font-size="10.00"> octant_</text>
</g>
<!-- Node101&#45;&gt;Node101 -->
<g id="edge13" class="edge">
<title>Node101&#45;&gt;Node101</title>
<path fill="none" stroke="#9a32cd" stroke-dasharray="5,2" d="M424.57,-281.43C427.5,-285.29 435.31,-288 448,-288 471.2,-288 478.09,-278.94 468.67,-270.37"/>
<polygon fill="#9a32cd" stroke="#9a32cd" points="427.94,-282.39 426.97,-271.84 421.15,-280.69 427.94,-282.39"/>
<text text-anchor="middle" x="448" y="-302" font-family="Roboto" font-size="10.00"> children_</text>
<text text-anchor="middle" x="448" y="-291" font-family="Roboto" font-size="10.00">parent_</text>
</g>
<!-- Node104&#45;&gt;Node3 -->
<g id="edge14" class="edge">
<title>Node104&#45;&gt;Node3</title>
<path fill="none" stroke="#9a32cd" stroke-dasharray="5,2" d="M942.95,-236.69C915.79,-234.67 881.8,-235.09 853,-244.5 823.53,-254.13 795.7,-278.89 781.78,-292.75"/>
<polygon fill="#9a32cd" stroke="#9a32cd" points="942.36,-240.15 952.63,-237.55 942.97,-233.17 942.36,-240.15"/>
<text text-anchor="middle" x="888" y="-247.5" font-family="Roboto" font-size="10.00"> zone_</text>
</g>
<!-- Node152&#45;&gt;Node3 -->
<g id="edge17" class="edge">
<title>Node152&#45;&gt;Node3</title>
<path fill="none" stroke="#9a32cd" stroke-dasharray="5,2" d="M511.85,-458.33C514.07,-456.57 516.13,-454.63 518,-452.5 544.04,-422.82 507.31,-392.63 536,-365.5 586.28,-317.95 623.98,-363.26 690,-342.5 713.52,-335.1 738.67,-321.6 754.48,-312.35"/>
<polygon fill="#9a32cd" stroke="#9a32cd" points="510.4,-455.11 503.94,-463.51 514.22,-460.97 510.4,-455.11"/>
<text text-anchor="middle" x="613" y="-368.5" font-family="Roboto" font-size="10.00"> viewCameras_</text>
</g>
<!-- Node153&#45;&gt;Node3 -->
<g id="edge19" class="edge">
<title>Node153&#45;&gt;Node3</title>
<path fill="none" stroke="#9a32cd" stroke-dasharray="5,2" d="M943.3,-306C936.51,-304.97 929.59,-304.09 923,-303.5 888.39,-300.4 849.12,-300.25 819.37,-300.82"/>
<polygon fill="#9a32cd" stroke="#9a32cd" points="942.62,-309.43 953.05,-307.58 943.75,-302.52 942.62,-309.43"/>
<text text-anchor="middle" x="888" y="-306.5" font-family="Roboto" font-size="10.00"> firstLight_</text>
</g>
<!-- Node168&#45;&gt;Node3 -->
<g id="edge21" class="edge">
<title>Node168&#45;&gt;Node3</title>
<path fill="none" stroke="#9a32cd" stroke-dasharray="5,2" d="M512.43,-409.84C514.42,-408.21 516.29,-406.43 518,-404.5 543.28,-375.89 507.25,-345.62 536,-320.5 562.98,-296.92 663.18,-297.21 723.52,-299.73"/>
<polygon fill="#9a32cd" stroke="#9a32cd" points="510.63,-406.83 504.24,-415.28 514.5,-412.66 510.63,-406.83"/>
<text text-anchor="middle" x="613" y="-334.5" font-family="Roboto" font-size="10.00"> lights_</text>
<text text-anchor="middle" x="613" y="-323.5" font-family="Roboto" font-size="10.00">vertexLights_</text>
</g>
<!-- Node169&#45;&gt;Node2 -->
<g id="edge23" class="edge">
<title>Node169&#45;&gt;Node2</title>
<path fill="none" stroke="#9a32cd" stroke-dasharray="5,2" d="M701.63,-564.78C823.62,-561 1040.92,-554.26 1141.15,-551.15"/>
<polygon fill="#9a32cd" stroke="#9a32cd" points="701.89,-561.27 692,-565.08 702.1,-568.27 701.89,-561.27"/>
<text text-anchor="middle" x="888" y="-562.5" font-family="Roboto" font-size="10.00"> geometryData_</text>
</g>
<!-- Node170&#45;&gt;Node2 -->
<g id="edge25" class="edge">
<title>Node170&#45;&gt;Node2</title>
<path fill="none" stroke="#9a32cd" stroke-dasharray="5,2" d="M529.67,-612.88C652.8,-606.76 894.85,-592.46 1099,-566.5 1113.7,-564.63 1129.58,-562.04 1144.09,-559.44"/>
<polygon fill="#9a32cd" stroke="#9a32cd" points="529.82,-609.37 520,-613.35 530.16,-616.36 529.82,-609.37"/>
<text text-anchor="middle" x="888" y="-593.5" font-family="Roboto" font-size="10.00"> geometries_</text>
</g>
<!-- Node170&#45;&gt;Node172 -->
<g id="edge30" class="edge">
<title>Node170&#45;&gt;Node172</title>
<path fill="none" stroke="#9a32cd" stroke-dasharray="5,2" d="M479.35,-587.66C491.59,-575.76 505.7,-561.69 518,-548.5 526.39,-539.51 524.86,-532.71 536,-527.5 598.51,-498.26 681.05,-506.43 729.69,-515.28"/>
<polygon fill="#9a32cd" stroke="#9a32cd" points="477.07,-585 472.31,-594.47 481.94,-590.04 477.07,-585"/>
<text text-anchor="middle" x="613" y="-530.5" font-family="Roboto" font-size="10.00"> geometries_</text>
</g>
<!-- Node171 -->
<g id="node17" class="node">
<title>Node171</title>
<g id="a_node17"><a xlink:href="class_urho3_d_1_1_shared_ptr.html" target="_top" xlink:title=" ">
<polygon fill="white" stroke="#666666" points="1045,-539.5 941,-539.5 941,-509.5 1045,-509.5 1045,-539.5"/>
<text text-anchor="start" x="949" y="-527.5" font-family="Roboto" font-size="10.00">Urho3D::SharedPtr&lt;</text>
<text text-anchor="middle" x="993" y="-516.5" font-family="Roboto" font-size="10.00"> Urho3D::Model &gt;</text>
</a>
</g>
</g>
<!-- Node171&#45;&gt;Node2 -->
<g id="edge27" class="edge">
<title>Node171&#45;&gt;Node2</title>
<path fill="none" stroke="#9a32cd" stroke-dasharray="5,2" d="M1056.7,-532.32C1083.81,-535.7 1115.19,-539.61 1141.16,-542.85"/>
<polygon fill="#9a32cd" stroke="#9a32cd" points="1057.23,-528.86 1046.88,-531.09 1056.37,-535.8 1057.23,-528.86"/>
<text text-anchor="middle" x="1081" y="-539.5" font-family="Roboto" font-size="10.00"> model_</text>
</g>
<!-- Node172&#45;&gt;Node171 -->
<g id="edge28" class="edge">
<title>Node172&#45;&gt;Node171</title>
<path fill="none" stroke="#9a32cd" stroke-dasharray="5,2" d="M824.71,-524.5C859.76,-524.5 905.73,-524.5 940.61,-524.5"/>
<polygon fill="#9a32cd" stroke="#9a32cd" points="824.79,-521 814.79,-524.5 824.79,-528 824.79,-521"/>
<text text-anchor="middle" x="888" y="-527.5" font-family="Roboto" font-size="10.00"> ptr_</text>
</g>
<!-- Node184 -->
<g id="node19" class="node">
<title>Node184</title>
<g id="a_node19"><a xlink:href="struct_urho3_d_1_1_resource_ref_list.html" target="_top" xlink:title="List of typed resource references.">
<polygon fill="white" stroke="#666666" points="835,-674 708,-674 708,-655 835,-655 835,-674"/>
<text text-anchor="middle" x="771.5" y="-662" font-family="Roboto" font-size="10.00">Urho3D::ResourceRefList</text>
</a>
</g>
</g>
<!-- Node184&#45;&gt;Node2 -->
<g id="edge31" class="edge">
<title>Node184&#45;&gt;Node2</title>
<path fill="none" stroke="#9a32cd" stroke-dasharray="5,2" d="M846.96,-666.59C915.08,-665.94 1017.37,-658.42 1099,-624.5 1135.6,-609.29 1169.95,-575.97 1185.61,-559.34"/>
<polygon fill="#9a32cd" stroke="#9a32cd" points="846.99,-663.09 837.01,-666.63 847.02,-670.09 846.99,-663.09"/>
<text text-anchor="middle" x="993" y="-663.5" font-family="Roboto" font-size="10.00"> materialsAttr_</text>
</g>
<!-- Node25 -->
<g id="node20" class="node">
<title>Node25</title>
<g id="a_node20"><a xlink:href="class_urho3_d_1_1_string_hash.html" target="_top" xlink:title="32&#45;bit hash value for a string.">
<polygon fill="white" stroke="#666666" points="500,-711 396,-711 396,-692 500,-692 500,-711"/>
<text text-anchor="middle" x="448" y="-699" font-family="Roboto" font-size="10.00">Urho3D::StringHash</text>
</a>
</g>
</g>
<!-- Node25&#45;&gt;Node184 -->
<g id="edge32" class="edge">
<title>Node25&#45;&gt;Node184</title>
<path fill="none" stroke="#9a32cd" stroke-dasharray="5,2" d="M511.65,-696.31C560.37,-692.03 629.59,-685.38 690,-677.5 696.88,-676.6 704.07,-675.57 711.21,-674.49"/>
<polygon fill="#9a32cd" stroke="#9a32cd" points="511.51,-692.81 501.86,-697.17 512.12,-699.79 511.51,-692.81"/>
<text text-anchor="middle" x="613" y="-696.5" font-family="Roboto" font-size="10.00"> type_</text>
</g>
<!-- Node25&#45;&gt;Node25 -->
<g id="edge33" class="edge">
<title>Node25&#45;&gt;Node25</title>
<path fill="none" stroke="#9a32cd" stroke-dasharray="5,2" d="M424.57,-722.43C427.5,-726.29 435.31,-729 448,-729 471.2,-729 478.09,-719.94 468.67,-711.37"/>
<polygon fill="#9a32cd" stroke="#9a32cd" points="427.94,-723.39 426.97,-712.84 421.15,-721.69 427.94,-723.39"/>
<text text-anchor="middle" x="448" y="-732" font-family="Roboto" font-size="10.00"> ZERO</text>
</g>
<!-- Node98&#45;&gt;Node184 -->
<g id="edge34" class="edge">
<title>Node98&#45;&gt;Node184</title>
<path fill="none" stroke="#9a32cd" stroke-dasharray="5,2" d="M522.24,-664.5C578.17,-664.5 654.42,-664.5 707.6,-664.5"/>
<polygon fill="#9a32cd" stroke="#9a32cd" points="522.5,-661 512.5,-664.5 522.5,-668 522.5,-661"/>
<text text-anchor="middle" x="613" y="-667.5" font-family="Roboto" font-size="10.00"> names_</text>
</g>
<!-- Node185 -->
<g id="node22" class="node">
<title>Node185</title>
<g id="a_node22"><a xlink:href="class_urho3_d_1_1_hash_map.html" target="_top" xlink:title=" ">
<polygon fill="white" stroke="#666666" points="1274,-509.5 1117,-509.5 1117,-479.5 1274,-479.5 1274,-509.5"/>
<text text-anchor="start" x="1125" y="-497.5" font-family="Roboto" font-size="10.00">Urho3D::HashMap&lt; Urho3D</text>
<text text-anchor="middle" x="1195.5" y="-486.5" font-family="Roboto" font-size="10.00">::Camera *, Urho3D::Matrix3x4 &gt;</text>
</a>
</g>
</g>
<!-- Node185&#45;&gt;Node1 -->
<g id="edge36" class="edge">
<title>Node185&#45;&gt;Node1</title>
<path fill="none" stroke="#9a32cd" stroke-dasharray="5,2" d="M1285.69,-498.43C1324.54,-500.52 1370.57,-503.49 1412,-507.5 1417.75,-508.06 1423.8,-508.74 1429.76,-509.48"/>
<polygon fill="#9a32cd" stroke="#9a32cd" points="1286.09,-494.95 1275.92,-497.92 1285.72,-501.94 1286.09,-494.95"/>
<text text-anchor="middle" x="1352" y="-510.5" font-family="Roboto" font-size="10.00"> customWorldTransforms_</text>
</g>
<!-- Node12 -->
<g id="node23" class="node">
<title>Node12</title>
<g id="a_node23"><a xlink:href="class_urho3_d_1_1_hash_base.html" target="_top" xlink:title="Hash set/map base class.">
<polygon fill="white" stroke="#666666" points="1043,-85 943,-85 943,-66 1043,-66 1043,-85"/>
<text text-anchor="middle" x="993" y="-73" font-family="Roboto" font-size="10.00">Urho3D::HashBase</text>
</a>
</g>
</g>
<!-- Node12&#45;&gt;Node185 -->
<g id="edge37" class="edge">
<title>Node12&#45;&gt;Node185</title>
<path fill="none" stroke="#63b8ff" d="M1003.57,-95.49C1038.16,-167.79 1156.33,-414.74 1187.12,-479.07"/>
<polygon fill="#63b8ff" stroke="#63b8ff" points="1006.89,-94.32 999.41,-86.81 1000.57,-97.34 1006.89,-94.32"/>
</g>
<!-- Node13 -->
<g id="node24" class="node">
<title>Node13</title>
<g id="a_node24"><a xlink:href="struct_urho3_d_1_1_hash_node_base.html" target="_top" xlink:title="Hash set/map node base class.">
<polygon fill="white" stroke="#666666" points="834,-85 709,-85 709,-66 834,-66 834,-85"/>
<text text-anchor="middle" x="771.5" y="-73" font-family="Roboto" font-size="10.00">Urho3D::HashNodeBase</text>
</a>
</g>
</g>
<!-- Node13&#45;&gt;Node12 -->
<g id="edge38" class="edge">
<title>Node13&#45;&gt;Node12</title>
<path fill="none" stroke="#9a32cd" stroke-dasharray="5,2" d="M845.72,-75.5C877.53,-75.5 913.97,-75.5 942.52,-75.5"/>
<polygon fill="#9a32cd" stroke="#9a32cd" points="845.74,-72 835.74,-75.5 845.74,-79 845.74,-72"/>
<text text-anchor="middle" x="888" y="-100.5" font-family="Roboto" font-size="10.00"> head_</text>
<text text-anchor="middle" x="888" y="-89.5" font-family="Roboto" font-size="10.00">ptrs_</text>
<text text-anchor="middle" x="888" y="-78.5" font-family="Roboto" font-size="10.00">tail_</text>
</g>
<!-- Node13&#45;&gt;Node13 -->
<g id="edge39" class="edge">
<title>Node13&#45;&gt;Node13</title>
<path fill="none" stroke="#9a32cd" stroke-dasharray="5,2" d="M750.82,-96.43C753.41,-100.29 760.3,-103 771.5,-103 791.98,-103 798.06,-93.94 789.74,-85.37"/>
<polygon fill="#9a32cd" stroke="#9a32cd" points="754.2,-97.37 752.94,-86.85 747.36,-95.86 754.2,-97.37"/>
<text text-anchor="middle" x="771.5" y="-128" font-family="Roboto" font-size="10.00"> down_</text>
<text text-anchor="middle" x="771.5" y="-117" font-family="Roboto" font-size="10.00">next_</text>
<text text-anchor="middle" x="771.5" y="-106" font-family="Roboto" font-size="10.00">prev_</text>
</g>
<!-- Node14 -->
<g id="node25" class="node">
<title>Node14</title>
<g id="a_node25"><a xlink:href="struct_urho3_d_1_1_allocator_block.html" target="_top" xlink:title="Allocator memory block.">
<polygon fill="#fff0f0" stroke="red" points="831.5,-19 711.5,-19 711.5,0 831.5,0 831.5,-19"/>
<text text-anchor="middle" x="771.5" y="-7" font-family="Roboto" font-size="10.00">Urho3D::AllocatorBlock</text>
</a>
</g>
</g>
<!-- Node14&#45;&gt;Node12 -->
<g id="edge40" class="edge">
<title>Node14&#45;&gt;Node12</title>
<path fill="none" stroke="#9a32cd" stroke-dasharray="5,2" d="M816.37,-22.69C858.41,-35.33 920.91,-54.13 958.91,-65.55"/>
<polygon fill="#9a32cd" stroke="#9a32cd" points="817.4,-19.34 806.81,-19.82 815.38,-26.05 817.4,-19.34"/>
<text text-anchor="middle" x="888" y="-56.5" font-family="Roboto" font-size="10.00"> allocator_</text>
</g>
<!-- Node14&#45;&gt;Node14 -->
<g id="edge41" class="edge">
<title>Node14&#45;&gt;Node14</title>
<path fill="none" stroke="#9a32cd" stroke-dasharray="5,2" d="M750.82,-30.43C753.41,-34.29 760.3,-37 771.5,-37 791.98,-37 798.06,-27.94 789.74,-19.37"/>
<polygon fill="#9a32cd" stroke="#9a32cd" points="754.2,-31.37 752.94,-20.85 747.36,-29.86 754.2,-31.37"/>
<text text-anchor="middle" x="771.5" y="-40" font-family="Roboto" font-size="10.00"> next_</text>
</g>
</g>
</svg>
