<?xml version="1.0" encoding="UTF-8" standalone="no"?>
<!DOCTYPE svg PUBLIC "-//W3C//DTD SVG 1.1//EN"
 "http://www.w3.org/Graphics/SVG/1.1/DTD/svg11.dtd">
<!-- Generated by graphviz version 7.0.3 (0)
 -->
<!-- Title: Urho3D::Terrain::ApplyAttributes Pages: 1 -->
<svg width="707pt" height="937pt"
 viewBox="0.00 0.00 707.00 936.50" xmlns="http://www.w3.org/2000/svg" xmlns:xlink="http://www.w3.org/1999/xlink">
<g id="graph0" class="graph" transform="scale(1 1) rotate(0) translate(4 932.5)">
<title>Urho3D::Terrain::ApplyAttributes</title>
<!-- Node1 -->
<g id="node1" class="node">
<title>Node1</title>
<g id="a_node1"><a xlink:title="Apply attribute changes that can not be applied immediately. Called after scene load or a network upd...">
<polygon fill="#999999" stroke="#666666" points="156,-166 0,-166 0,-147 156,-147 156,-166"/>
<text text-anchor="middle" x="78" y="-154" font-family="Roboto" font-size="10.00">Urho3D::Terrain::ApplyAttributes</text>
</a>
</g>
</g>
<!-- Node2 -->
<g id="node2" class="node">
<title>Node2</title>
<g id="a_node2"><a xlink:href="class_urho3_d_1_1_terrain.html#a4c3774f5e5fb85197eb87d8fd1fff046" target="_top" xlink:title="Regenerate terrain geometry.">
<polygon fill="#fff0f0" stroke="red" points="353,-427 192,-427 192,-408 353,-408 353,-427"/>
<text text-anchor="middle" x="272.5" y="-415" font-family="Roboto" font-size="10.00">Urho3D::Terrain::CreateGeometry</text>
</a>
</g>
</g>
<!-- Node1&#45;&gt;Node2 -->
<g id="edge1" class="edge">
<title>Node1&#45;&gt;Node2</title>
<path fill="none" stroke="#63b8ff" d="M86.31,-166.41C114.9,-205.17 219.4,-346.87 257.49,-398.51"/>
<polygon fill="#63b8ff" stroke="#63b8ff" points="254.53,-400.39 263.28,-406.36 260.16,-396.23 254.53,-400.39"/>
</g>
<!-- Node100 -->
<g id="node15" class="node">
<title>Node100</title>
<g id="a_node15"><a xlink:href="class_urho3_d_1_1_node.html#a34f6d23128c61664a11ceb275604e013" target="_top" xlink:title="Return component by type. If there are several, returns the first.">
<polygon fill="#fff0f0" stroke="red" points="546.5,-19 395.5,-19 395.5,0 546.5,0 546.5,-19"/>
<text text-anchor="middle" x="471" y="-7" font-family="Roboto" font-size="10.00">Urho3D::Node::GetComponent</text>
</a>
</g>
</g>
<!-- Node1&#45;&gt;Node100 -->
<g id="edge34" class="edge">
<title>Node1&#45;&gt;Node100</title>
<path fill="none" stroke="#63b8ff" d="M100.32,-166.5C150.44,-188.37 277.24,-233.94 353,-174.5 405.92,-132.98 340.93,-74.55 389,-27.5 389.62,-26.9 390.25,-26.31 390.9,-25.74"/>
<polygon fill="#63b8ff" stroke="#63b8ff" points="392.63,-28.8 398.81,-20.19 388.61,-23.07 392.63,-28.8"/>
</g>
<!-- Node114 -->
<g id="node23" class="node">
<title>Node114</title>
<g id="a_node23"><a xlink:href="class_urho3_d_1_1_scene.html#af130e2e88e5d29e1da2b9d4e52d73db2" target="_top" xlink:title="Return node from the whole scene by ID, or null if not found.">
<polygon fill="#fff0f0" stroke="red" points="335.5,-166 209.5,-166 209.5,-147 335.5,-147 335.5,-166"/>
<text text-anchor="middle" x="272.5" y="-154" font-family="Roboto" font-size="10.00">Urho3D::Scene::GetNode</text>
</a>
</g>
</g>
<!-- Node1&#45;&gt;Node114 -->
<g id="edge35" class="edge">
<title>Node1&#45;&gt;Node114</title>
<path fill="none" stroke="#63b8ff" d="M156.47,-156.5C170.18,-156.5 184.42,-156.5 198.02,-156.5"/>
<polygon fill="#63b8ff" stroke="#63b8ff" points="197.75,-160 207.75,-156.5 197.75,-153 197.75,-160"/>
</g>
<!-- Node45 -->
<g id="node24" class="node">
<title>Node45</title>
<g id="a_node24"><a xlink:href="class_urho3_d_1_1_component.html#a2c22f727341671a0420934f249ffe059" target="_top" xlink:title="Return the scene the node belongs to.">
<polygon fill="#fff0f0" stroke="red" points="328,-128.5 217,-128.5 217,-98.5 328,-98.5 328,-128.5"/>
<text text-anchor="start" x="225" y="-116.5" font-family="Roboto" font-size="10.00">Urho3D::Component::</text>
<text text-anchor="middle" x="272.5" y="-105.5" font-family="Roboto" font-size="10.00">GetScene</text>
</a>
</g>
</g>
<!-- Node1&#45;&gt;Node45 -->
<g id="edge36" class="edge">
<title>Node1&#45;&gt;Node45</title>
<path fill="none" stroke="#63b8ff" d="M123.65,-146.53C148.05,-141.08 178.74,-134.22 205.82,-128.17"/>
<polygon fill="#63b8ff" stroke="#63b8ff" points="206.31,-131.65 215.31,-126.05 204.79,-124.82 206.31,-131.65"/>
</g>
<!-- Node115 -->
<g id="node25" class="node">
<title>Node115</title>
<g id="a_node25"><a xlink:href="class_urho3_d_1_1_terrain.html#aa32023ec65be2e5e05957a97e3bdfd1d" target="_top" xlink:title="Set all neighbor terrains at once.">
<polygon fill="#fff0f0" stroke="red" points="347,-80 198,-80 198,-61 347,-61 347,-80"/>
<text text-anchor="middle" x="272.5" y="-68" font-family="Roboto" font-size="10.00">Urho3D::Terrain::SetNeighbors</text>
</a>
</g>
</g>
<!-- Node1&#45;&gt;Node115 -->
<g id="edge37" class="edge">
<title>Node1&#45;&gt;Node115</title>
<path fill="none" stroke="#63b8ff" d="M92.56,-146.61C113.09,-132.07 153.74,-105 192,-89.5 197.51,-87.27 203.34,-85.26 209.25,-83.46"/>
<polygon fill="#63b8ff" stroke="#63b8ff" points="209.77,-86.95 218.44,-80.85 207.86,-80.21 209.77,-86.95"/>
</g>
<!-- Node3 -->
<g id="node3" class="node">
<title>Node3</title>
<g id="a_node3"><a xlink:href="class_urho3_d_1_1_p_o_d_vector.html#ac564a928bd75354adfdeb2b7fd225149" target="_top" xlink:title="Return iterator to the beginning.">
<polygon fill="#fff0f0" stroke="red" points="525,-776.5 417,-776.5 417,-746.5 525,-746.5 525,-776.5"/>
<text text-anchor="start" x="425" y="-764.5" font-family="Roboto" font-size="10.00">Urho3D::PODVector::</text>
<text text-anchor="middle" x="471" y="-753.5" font-family="Roboto" font-size="10.00">Begin</text>
</a>
</g>
</g>
<!-- Node2&#45;&gt;Node3 -->
<g id="edge2" class="edge">
<title>Node2&#45;&gt;Node3</title>
<path fill="none" stroke="#63b8ff" d="M274.17,-427.29C277.59,-469.89 296.8,-641 389,-732.5 394.08,-737.54 400.09,-741.71 406.52,-745.16"/>
<polygon fill="#63b8ff" stroke="#63b8ff" points="404.96,-748.29 415.5,-749.36 407.92,-741.95 404.96,-748.29"/>
</g>
<!-- Node5 -->
<g id="node4" class="node">
<title>Node5</title>
<g id="a_node4"><a xlink:href="class_urho3_d_1_1_terrain.html#a3836071d62973e24f72cfaf65d46afee" target="_top" xlink:title="Calculate LOD errors for a patch.">
<polygon fill="#fff0f0" stroke="red" points="536,-672.5 406,-672.5 406,-642.5 536,-642.5 536,-672.5"/>
<text text-anchor="start" x="414" y="-660.5" font-family="Roboto" font-size="10.00">Urho3D::Terrain::Calculate</text>
<text text-anchor="middle" x="471" y="-649.5" font-family="Roboto" font-size="10.00">LodErrors</text>
</a>
</g>
</g>
<!-- Node2&#45;&gt;Node5 -->
<g id="edge3" class="edge">
<title>Node2&#45;&gt;Node5</title>
<path fill="none" stroke="#63b8ff" d="M275.86,-427.42C284.53,-461.59 317.8,-575.46 389,-633.5 391.11,-635.22 393.34,-636.82 395.66,-638.3"/>
<polygon fill="#63b8ff" stroke="#63b8ff" points="393.87,-641.31 404.32,-643.04 397.23,-635.17 393.87,-641.31"/>
</g>
<!-- Node10 -->
<g id="node5" class="node">
<title>Node10</title>
<g id="a_node5"><a xlink:href="class_urho3_d_1_1_terrain_patch.html#a8713045be618a976aa03e1ca0fff7712" target="_top" xlink:title="Return patch coordinates.">
<polygon fill="white" stroke="#666666" points="699,-672.5 589,-672.5 589,-642.5 699,-642.5 699,-672.5"/>
<text text-anchor="start" x="597" y="-660.5" font-family="Roboto" font-size="10.00">Urho3D::TerrainPatch</text>
<text text-anchor="middle" x="644" y="-649.5" font-family="Roboto" font-size="10.00">::GetCoordinates</text>
</a>
</g>
</g>
<!-- Node2&#45;&gt;Node10 -->
<g id="edge22" class="edge">
<title>Node2&#45;&gt;Node10</title>
<path fill="none" stroke="#63b8ff" d="M273.89,-427.35C276.17,-469.31 291.25,-633.91 389,-699.5 455.98,-744.45 554.75,-705.15 607.21,-678.05"/>
<polygon fill="#63b8ff" stroke="#63b8ff" points="608.53,-681.31 615.72,-673.53 605.25,-675.13 608.53,-681.31"/>
</g>
<!-- Node15 -->
<g id="node6" class="node">
<title>Node15</title>
<g id="a_node6"><a xlink:href="_math_defs_8h.html#a8096c22c3716e172f685af2a5f5e26bb" target="_top" xlink:title=" ">
<polygon fill="white" stroke="#666666" points="681,-601 607,-601 607,-582 681,-582 681,-601"/>
<text text-anchor="middle" x="644" y="-589" font-family="Roboto" font-size="10.00">Urho3D::Max</text>
</a>
</g>
</g>
<!-- Node2&#45;&gt;Node15 -->
<g id="edge26" class="edge">
<title>Node2&#45;&gt;Node15</title>
<path fill="none" stroke="#63b8ff" d="M281.68,-427.34C299.2,-447.8 342.56,-495.11 389,-520.5 398.22,-525.54 524.96,-559.9 595.84,-578.91"/>
<polygon fill="#63b8ff" stroke="#63b8ff" points="594.68,-582.22 605.25,-581.43 596.5,-575.46 594.68,-582.22"/>
</g>
<!-- Node19 -->
<g id="node7" class="node">
<title>Node19</title>
<g id="a_node7"><a xlink:href="class_urho3_d_1_1_node.html#ab23d77af7fe3350c1dcfec8281849ed3" target="_top" xlink:title="Create a component to this node (with specified ID if provided).">
<polygon fill="#fff0f0" stroke="red" points="553,-482 389,-482 389,-463 553,-463 553,-482"/>
<text text-anchor="middle" x="471" y="-470" font-family="Roboto" font-size="10.00">Urho3D::Node::CreateComponent</text>
</a>
</g>
</g>
<!-- Node2&#45;&gt;Node19 -->
<g id="edge8" class="edge">
<title>Node2&#45;&gt;Node19</title>
<path fill="none" stroke="#63b8ff" d="M303.24,-427.42C326.47,-435 359.62,-445.49 389,-453.5 396.95,-455.67 405.38,-457.81 413.69,-459.84"/>
<polygon fill="#63b8ff" stroke="#63b8ff" points="412.86,-463.24 423.4,-462.17 414.49,-456.43 412.86,-463.24"/>
</g>
<!-- Node58 -->
<g id="node8" class="node">
<title>Node58</title>
<g id="a_node8"><a xlink:href="class_urho3_d_1_1_terrain.html#ac5f9117661ac3c1b077540c4732cda94" target="_top" xlink:title="Create index data shared by all patches.">
<polygon fill="#fff0f0" stroke="red" points="552.5,-427 389.5,-427 389.5,-408 552.5,-408 552.5,-427"/>
<text text-anchor="middle" x="471" y="-415" font-family="Roboto" font-size="10.00">Urho3D::Terrain::CreateIndexData</text>
</a>
</g>
</g>
<!-- Node2&#45;&gt;Node58 -->
<g id="edge9" class="edge">
<title>Node2&#45;&gt;Node58</title>
<path fill="none" stroke="#63b8ff" d="M353.42,-417.5C361.44,-417.5 369.63,-417.5 377.76,-417.5"/>
<polygon fill="#63b8ff" stroke="#63b8ff" points="377.68,-421 387.68,-417.5 377.68,-414 377.68,-421"/>
</g>
<!-- Node60 -->
<g id="node9" class="node">
<title>Node60</title>
<g id="a_node9"><a xlink:href="class_urho3_d_1_1_terrain.html#a03006159674e5b8e1bb6d34e2afdcc81" target="_top" xlink:title="Regenerate patch geometry.">
<polygon fill="#fff0f0" stroke="red" points="542.5,-606.5 399.5,-606.5 399.5,-576.5 542.5,-576.5 542.5,-606.5"/>
<text text-anchor="start" x="407.5" y="-594.5" font-family="Roboto" font-size="10.00">Urho3D::Terrain::CreatePatch</text>
<text text-anchor="middle" x="471" y="-583.5" font-family="Roboto" font-size="10.00">Geometry</text>
</a>
</g>
</g>
<!-- Node2&#45;&gt;Node60 -->
<g id="edge11" class="edge">
<title>Node2&#45;&gt;Node60</title>
<path fill="none" stroke="#63b8ff" d="M278.62,-427.14C292.74,-452.86 334.82,-523.74 389,-562.5 393.59,-565.78 398.59,-568.73 403.78,-571.37"/>
<polygon fill="#63b8ff" stroke="#63b8ff" points="402.01,-574.4 412.55,-575.43 404.95,-568.05 402.01,-574.4"/>
</g>
<!-- Node72 -->
<g id="node10" class="node">
<title>Node72</title>
<g id="a_node10"><a xlink:href="_math_defs_8h.html#a639c291adc131849b469a216007c4af5" target="_top" xlink:title=" ">
<polygon fill="white" stroke="#666666" points="679.5,-533 608.5,-533 608.5,-514 679.5,-514 679.5,-533"/>
<text text-anchor="middle" x="644" y="-521" font-family="Roboto" font-size="10.00">Urho3D::Min</text>
</a>
</g>
</g>
<!-- Node2&#45;&gt;Node72 -->
<g id="edge27" class="edge">
<title>Node2&#45;&gt;Node72</title>
<path fill="none" stroke="#63b8ff" d="M285.02,-427.42C304.8,-443.84 347.13,-476.33 389,-491.5 458.54,-516.69 545,-522.65 597,-523.74"/>
<polygon fill="#63b8ff" stroke="#63b8ff" points="596.62,-527.24 606.67,-523.89 596.73,-520.24 596.62,-527.24"/>
</g>
<!-- Node92 -->
<g id="node11" class="node">
<title>Node92</title>
<g id="a_node11"><a xlink:href="class_urho3_d_1_1_node.html#aefe4240e24961864d51e9a0d9f742756" target="_top" xlink:title="Create a temporary child scene node (with specified ID if provided).">
<polygon fill="#fff0f0" stroke="red" points="551,-389.5 391,-389.5 391,-359.5 551,-359.5 551,-389.5"/>
<text text-anchor="start" x="399" y="-377.5" font-family="Roboto" font-size="10.00">Urho3D::Node::CreateTemporary</text>
<text text-anchor="middle" x="471" y="-366.5" font-family="Roboto" font-size="10.00">Child</text>
</a>
</g>
</g>
<!-- Node2&#45;&gt;Node92 -->
<g id="edge17" class="edge">
<title>Node2&#45;&gt;Node92</title>
<path fill="none" stroke="#63b8ff" d="M319.07,-407.53C339.63,-403.03 364.55,-397.58 388.17,-392.41"/>
<polygon fill="#63b8ff" stroke="#63b8ff" points="388.77,-395.86 397.79,-390.3 387.27,-389.02 388.77,-395.86"/>
</g>
<!-- Node95 -->
<g id="node12" class="node">
<title>Node95</title>
<g id="a_node12"><a xlink:href="class_urho3_d_1_1_p_o_d_vector.html#ad9cedde70f6aac8dde2b7bfba7ca4fbb" target="_top" xlink:title="Return iterator to the end.">
<polygon fill="#fff0f0" stroke="red" points="533.5,-341 408.5,-341 408.5,-322 533.5,-322 533.5,-341"/>
<text text-anchor="middle" x="471" y="-329" font-family="Roboto" font-size="10.00">Urho3D::PODVector::End</text>
</a>
</g>
</g>
<!-- Node2&#45;&gt;Node95 -->
<g id="edge18" class="edge">
<title>Node2&#45;&gt;Node95</title>
<path fill="none" stroke="#63b8ff" d="M287.39,-407.61C308.41,-393.07 350,-365.99 389,-350.5 394.62,-348.27 400.57,-346.26 406.59,-344.46"/>
<polygon fill="#63b8ff" stroke="#63b8ff" points="407.29,-347.89 415.99,-341.84 405.42,-341.15 407.29,-347.89"/>
</g>
<!-- Node96 -->
<g id="node13" class="node">
<title>Node96</title>
<g id="a_node13"><a xlink:href="class_urho3_d_1_1_node.html#aa413f1ee8b3fd0928b371a6d9875563c" target="_top" xlink:title="Return child scene node by index.">
<polygon fill="white" stroke="#666666" points="532,-304 410,-304 410,-285 532,-285 532,-304"/>
<text text-anchor="middle" x="471" y="-292" font-family="Roboto" font-size="10.00">Urho3D::Node::GetChild</text>
</a>
</g>
</g>
<!-- Node2&#45;&gt;Node96 -->
<g id="edge19" class="edge">
<title>Node2&#45;&gt;Node96</title>
<path fill="none" stroke="#63b8ff" d="M281.26,-407.58C298.32,-386.5 341.36,-337.19 389,-312.5 392.26,-310.81 395.68,-309.28 399.18,-307.89"/>
<polygon fill="#63b8ff" stroke="#63b8ff" points="400.2,-311.24 408.48,-304.64 397.89,-304.63 400.2,-311.24"/>
</g>
<!-- Node97 -->
<g id="node14" class="node">
<title>Node97</title>
<g id="a_node14"><a xlink:href="class_urho3_d_1_1_node.html#a8018ae5a2c8035dd296966c0508916c2" target="_top" xlink:title="Return child scene nodes with a specific component.">
<polygon fill="#fff0f0" stroke="red" points="538.5,-266.5 403.5,-266.5 403.5,-236.5 538.5,-236.5 538.5,-266.5"/>
<text text-anchor="start" x="411.5" y="-254.5" font-family="Roboto" font-size="10.00">Urho3D::Node::GetChildren</text>
<text text-anchor="middle" x="471" y="-243.5" font-family="Roboto" font-size="10.00">WithComponent</text>
</a>
</g>
</g>
<!-- Node2&#45;&gt;Node97 -->
<g id="edge20" class="edge">
<title>Node2&#45;&gt;Node97</title>
<path fill="none" stroke="#63b8ff" d="M278.76,-407.52C292.93,-381.63 334.53,-311.81 389,-275.5 390.83,-274.28 392.72,-273.12 394.67,-272.02"/>
<polygon fill="#63b8ff" stroke="#63b8ff" points="396.01,-275.26 403.39,-267.65 392.88,-269 396.01,-275.26"/>
</g>
<!-- Node2&#45;&gt;Node100 -->
<g id="edge21" class="edge">
<title>Node2&#45;&gt;Node100</title>
<path fill="none" stroke="#63b8ff" d="M277.91,-407.69C291.04,-378.16 330.37,-287.22 353,-208.5 375.66,-129.67 331.65,-86.14 389,-27.5 389.49,-27 389.99,-26.51 390.49,-26.04"/>
<polygon fill="#63b8ff" stroke="#63b8ff" points="392.33,-29.03 398.29,-20.27 388.17,-23.4 392.33,-29.03"/>
</g>
<!-- Node29 -->
<g id="node16" class="node">
<title>Node29</title>
<g id="a_node16"><a xlink:href="class_urho3_d_1_1_object.html#a69af51cfa67f9626273b35a6d501e03e" target="_top" xlink:title="Return a preallocated map for event data. Used for optimization to avoid constant re&#45;allocation of ev...">
<polygon fill="#fff0f0" stroke="red" points="533.5,-218.5 408.5,-218.5 408.5,-188.5 533.5,-188.5 533.5,-218.5"/>
<text text-anchor="start" x="416.5" y="-206.5" font-family="Roboto" font-size="10.00">Urho3D::Object::GetEvent</text>
<text text-anchor="middle" x="471" y="-195.5" font-family="Roboto" font-size="10.00">DataMap</text>
</a>
</g>
</g>
<!-- Node2&#45;&gt;Node29 -->
<g id="edge23" class="edge">
<title>Node2&#45;&gt;Node29</title>
<path fill="none" stroke="#63b8ff" d="M276.52,-407.91C286.81,-376.81 323.55,-277.91 389,-227.5 391.9,-225.26 395.01,-223.23 398.26,-221.39"/>
<polygon fill="#63b8ff" stroke="#63b8ff" points="399.57,-224.65 406.99,-217.09 396.47,-218.37 399.57,-224.65"/>
</g>
<!-- Node102 -->
<g id="node17" class="node">
<title>Node102</title>
<g id="a_node17"><a xlink:href="class_urho3_d_1_1_terrain.html#a3a73c37ce566bde78994304cdf979866" target="_top" xlink:title="Return a source terrain height value, clamping to edges. The source data is used for smoothing.">
<polygon fill="#fff0f0" stroke="red" points="538.5,-170.5 403.5,-170.5 403.5,-140.5 538.5,-140.5 538.5,-170.5"/>
<text text-anchor="start" x="411.5" y="-158.5" font-family="Roboto" font-size="10.00">Urho3D::Terrain::GetSource</text>
<text text-anchor="middle" x="471" y="-147.5" font-family="Roboto" font-size="10.00">Height</text>
</a>
</g>
</g>
<!-- Node2&#45;&gt;Node102 -->
<g id="edge24" class="edge">
<title>Node2&#45;&gt;Node102</title>
<path fill="none" stroke="#63b8ff" d="M275.33,-407.61C282.58,-371.32 312.65,-244.27 389,-179.5 390.46,-178.26 391.98,-177.09 393.56,-175.97"/>
<polygon fill="#63b8ff" stroke="#63b8ff" points="395.02,-179.17 401.77,-171.01 391.41,-173.18 395.02,-179.17"/>
</g>
<!-- Node103 -->
<g id="node18" class="node">
<title>Node103</title>
<g id="a_node18"><a xlink:href="class_urho3_d_1_1_component.html#aafa7952d0f225edde3387da0c91a9356" target="_top" xlink:title=" ">
<polygon fill="#fff0f0" stroke="red" points="526.5,-122.5 415.5,-122.5 415.5,-92.5 526.5,-92.5 526.5,-122.5"/>
<text text-anchor="start" x="423.5" y="-110.5" font-family="Roboto" font-size="10.00">Urho3D::Component::</text>
<text text-anchor="middle" x="471" y="-99.5" font-family="Roboto" font-size="10.00">IsEnabledEffective</text>
</a>
</g>
</g>
<!-- Node2&#45;&gt;Node103 -->
<g id="edge25" class="edge">
<title>Node2&#45;&gt;Node103</title>
<path fill="none" stroke="#63b8ff" d="M277.18,-407.71C295.64,-358.69 377.75,-141.72 389,-131.5 393.61,-127.31 398.93,-123.85 404.58,-120.99"/>
<polygon fill="#63b8ff" stroke="#63b8ff" points="405.87,-124.25 413.66,-117.07 403.09,-117.82 405.87,-124.25"/>
</g>
<!-- Node105 -->
<g id="node19" class="node">
<title>Node105</title>
<g id="a_node19"><a xlink:href="class_urho3_d_1_1_node.html#a3ffe2c6ea129ee77f6d2ed1d4a67f41f" target="_top" xlink:title="Remove a child scene node.">
<polygon fill="white" stroke="#666666" points="542.5,-56 399.5,-56 399.5,-37 542.5,-37 542.5,-56"/>
<text text-anchor="middle" x="471" y="-44" font-family="Roboto" font-size="10.00">Urho3D::Node::RemoveChild</text>
</a>
</g>
</g>
<!-- Node2&#45;&gt;Node105 -->
<g id="edge28" class="edge">
<title>Node2&#45;&gt;Node105</title>
<path fill="none" stroke="#63b8ff" d="M277.6,-407.6C289.88,-377.8 327.08,-286.2 353,-208.5 371.29,-153.66 351.26,-127.29 389,-83.5 397.51,-73.63 409.2,-66.24 421.05,-60.78"/>
<polygon fill="#63b8ff" stroke="#63b8ff" points="422.15,-64.12 430.03,-57.04 419.46,-57.65 422.15,-64.12"/>
</g>
<!-- Node89 -->
<g id="node20" class="node">
<title>Node89</title>
<g id="a_node20"><a xlink:href="class_urho3_d_1_1_shared_array_ptr.html#a5f621b62e29d89c1d29f1c2089932bd5" target="_top" xlink:title="Reset to null and release the array reference.">
<polygon fill="#fff0f0" stroke="red" points="532,-928.5 410,-928.5 410,-898.5 532,-898.5 532,-928.5"/>
<text text-anchor="start" x="418" y="-916.5" font-family="Roboto" font-size="10.00">Urho3D::SharedArrayPtr</text>
<text text-anchor="middle" x="471" y="-905.5" font-family="Roboto" font-size="10.00">::Reset</text>
</a>
</g>
</g>
<!-- Node2&#45;&gt;Node89 -->
<g id="edge30" class="edge">
<title>Node2&#45;&gt;Node89</title>
<path fill="none" stroke="#63b8ff" d="M274.57,-427.3C281.48,-488.57 321.49,-818.66 389,-889.5 392.15,-892.81 395.74,-895.67 399.61,-898.14"/>
<polygon fill="#63b8ff" stroke="#63b8ff" points="397.9,-901.2 408.38,-902.8 401.19,-895.02 397.9,-901.2"/>
</g>
<!-- Node53 -->
<g id="node21" class="node">
<title>Node53</title>
<g id="a_node21"><a xlink:href="class_urho3_d_1_1_object.html#a32020dbf77c196b9777eca479e8abb36" target="_top" xlink:title="Send event to all subscribers.">
<polygon fill="white" stroke="#666666" points="537.5,-862 404.5,-862 404.5,-843 537.5,-843 537.5,-862"/>
<text text-anchor="middle" x="471" y="-850" font-family="Roboto" font-size="10.00">Urho3D::Object::SendEvent</text>
</a>
</g>
</g>
<!-- Node2&#45;&gt;Node53 -->
<g id="edge31" class="edge">
<title>Node2&#45;&gt;Node53</title>
<path fill="none" stroke="#63b8ff" d="M274.86,-427.28C282.95,-484.33 326.69,-773.66 389,-833.5 390.82,-835.25 392.77,-836.85 394.82,-838.31"/>
<polygon fill="#63b8ff" stroke="#63b8ff" points="392.68,-841.11 403.08,-843.1 396.19,-835.05 392.68,-841.11"/>
</g>
<!-- Node106 -->
<g id="node22" class="node">
<title>Node106</title>
<g id="a_node22"><a xlink:href="class_urho3_d_1_1_terrain_patch.html#a44e179882d9f7e70206e4f1f027898fb" target="_top" xlink:title="Set owner terrain.">
<polygon fill="white" stroke="#666666" points="526,-824.5 416,-824.5 416,-794.5 526,-794.5 526,-824.5"/>
<text text-anchor="start" x="424" y="-812.5" font-family="Roboto" font-size="10.00">Urho3D::TerrainPatch</text>
<text text-anchor="middle" x="471" y="-801.5" font-family="Roboto" font-size="10.00">::SetOwner</text>
</a>
</g>
</g>
<!-- Node2&#45;&gt;Node106 -->
<g id="edge33" class="edge">
<title>Node2&#45;&gt;Node106</title>
<path fill="none" stroke="#63b8ff" d="M273.44,-427.42C273.74,-474.73 281.37,-679.59 389,-785.5 393.75,-790.18 399.38,-793.95 405.41,-797"/>
<polygon fill="#63b8ff" stroke="#63b8ff" points="403.9,-800.16 414.47,-800.86 406.65,-793.72 403.9,-800.16"/>
</g>
<!-- Node5&#45;&gt;Node5 -->
<g id="edge4" class="edge">
<title>Node5&#45;&gt;Node5</title>
<path fill="none" stroke="#63b8ff" d="M440.59,-672.78C433.83,-681.91 443.97,-690.5 471,-690.5 485.78,-690.5 495.51,-687.93 500.19,-684.11"/>
<polygon fill="#63b8ff" stroke="#63b8ff" points="503.66,-684.6 501.25,-674.28 496.7,-683.85 503.66,-684.6"/>
</g>
<!-- Node5&#45;&gt;Node10 -->
<g id="edge5" class="edge">
<title>Node5&#45;&gt;Node10</title>
<path fill="none" stroke="#63b8ff" d="M536.16,-657.5C549.64,-657.5 563.87,-657.5 577.39,-657.5"/>
<polygon fill="#63b8ff" stroke="#63b8ff" points="577.05,-661 587.05,-657.5 577.04,-654 577.05,-661"/>
</g>
<!-- Node5&#45;&gt;Node15 -->
<g id="edge6" class="edge">
<title>Node5&#45;&gt;Node15</title>
<path fill="none" stroke="#63b8ff" d="M528.14,-642.05C536.54,-639.4 545.05,-636.52 553,-633.5 573.83,-625.6 596.56,-614.98 613.96,-606.4"/>
<polygon fill="#63b8ff" stroke="#63b8ff" points="615.31,-609.63 622.69,-602.03 612.18,-603.37 615.31,-609.63"/>
</g>
<!-- Node15&#45;&gt;Node15 -->
<g id="edge7" class="edge">
<title>Node15&#45;&gt;Node15</title>
<path fill="none" stroke="#63b8ff" d="M616.92,-601.37C604.56,-609.94 613.59,-619 644,-619 661.11,-619 671.45,-616.13 675.02,-612.1"/>
<polygon fill="#63b8ff" stroke="#63b8ff" points="678.34,-610.97 671.61,-602.79 671.76,-613.38 678.34,-610.97"/>
</g>
<!-- Node58&#45;&gt;Node58 -->
<g id="edge10" class="edge">
<title>Node58&#45;&gt;Node58</title>
<path fill="none" stroke="#63b8ff" d="M443.92,-427.37C431.56,-435.94 440.59,-445 471,-445 488.11,-445 498.45,-442.13 502.02,-438.1"/>
<polygon fill="#63b8ff" stroke="#63b8ff" points="505.34,-436.97 498.61,-428.79 498.76,-439.38 505.34,-436.97"/>
</g>
<!-- Node60&#45;&gt;Node10 -->
<g id="edge13" class="edge">
<title>Node60&#45;&gt;Node10</title>
<path fill="none" stroke="#63b8ff" d="M512.09,-606.97C536.02,-616.21 566.63,-628.02 592.23,-637.9"/>
<polygon fill="#63b8ff" stroke="#63b8ff" points="590.86,-641.13 601.45,-641.46 593.38,-634.6 590.86,-641.13"/>
</g>
<!-- Node60&#45;&gt;Node15 -->
<g id="edge14" class="edge">
<title>Node60&#45;&gt;Node15</title>
<path fill="none" stroke="#63b8ff" d="M542.54,-591.5C560.31,-591.5 578.96,-591.5 595.31,-591.5"/>
<polygon fill="#63b8ff" stroke="#63b8ff" points="595.25,-595 605.25,-591.5 595.25,-588 595.25,-595"/>
</g>
<!-- Node60&#45;&gt;Node60 -->
<g id="edge12" class="edge">
<title>Node60&#45;&gt;Node60</title>
<path fill="none" stroke="#63b8ff" d="M440.59,-606.78C433.83,-615.91 443.97,-624.5 471,-624.5 485.78,-624.5 495.51,-621.93 500.19,-618.11"/>
<polygon fill="#63b8ff" stroke="#63b8ff" points="503.66,-618.6 501.25,-608.28 496.7,-617.85 503.66,-618.6"/>
</g>
<!-- Node60&#45;&gt;Node72 -->
<g id="edge15" class="edge">
<title>Node60&#45;&gt;Node72</title>
<path fill="none" stroke="#63b8ff" d="M510.8,-576.07C539.77,-564.55 579.06,-548.93 607.26,-537.71"/>
<polygon fill="#63b8ff" stroke="#63b8ff" points="608.45,-541.01 616.45,-534.06 605.86,-534.5 608.45,-541.01"/>
</g>
<!-- Node72&#45;&gt;Node72 -->
<g id="edge16" class="edge">
<title>Node72&#45;&gt;Node72</title>
<path fill="none" stroke="#63b8ff" d="M616.92,-533.37C604.56,-541.94 613.59,-551 644,-551 661.11,-551 671.45,-548.13 675.02,-544.1"/>
<polygon fill="#63b8ff" stroke="#63b8ff" points="678.34,-542.97 671.61,-534.79 671.76,-545.38 678.34,-542.97"/>
</g>
<!-- Node105&#45;&gt;Node105 -->
<g id="edge29" class="edge">
<title>Node105&#45;&gt;Node105</title>
<path fill="none" stroke="#63b8ff" d="M443.92,-56.37C431.56,-64.94 440.59,-74 471,-74 488.11,-74 498.45,-71.13 502.02,-67.1"/>
<polygon fill="#63b8ff" stroke="#63b8ff" points="505.34,-65.97 498.61,-57.79 498.76,-68.38 505.34,-65.97"/>
</g>
<!-- Node53&#45;&gt;Node53 -->
<g id="edge32" class="edge">
<title>Node53&#45;&gt;Node53</title>
<path fill="none" stroke="#63b8ff" d="M443.92,-862.37C431.56,-870.94 440.59,-880 471,-880 488.11,-880 498.45,-877.13 502.02,-873.1"/>
<polygon fill="#63b8ff" stroke="#63b8ff" points="505.34,-871.97 498.61,-863.79 498.76,-874.38 505.34,-871.97"/>
</g>
</g>
</svg>
