<?xml version="1.0" encoding="UTF-8" standalone="no"?>
<!DOCTYPE svg PUBLIC "-//W3C//DTD SVG 1.1//EN"
 "http://www.w3.org/Graphics/SVG/1.1/DTD/svg11.dtd">
<!-- Generated by graphviz version 7.0.3 (0)
 -->
<!-- Title: Urho3D::Texture2DArray::Create Pages: 1 -->
<svg width="446pt" height="86pt"
 viewBox="0.00 0.00 446.00 86.00" xmlns="http://www.w3.org/2000/svg" xmlns:xlink="http://www.w3.org/1999/xlink">
<g id="graph0" class="graph" transform="scale(1 1) rotate(0) translate(4 82)">
<title>Urho3D::Texture2DArray::Create</title>
<!-- Node1 -->
<g id="node1" class="node">
<title>Node1</title>
<g id="a_node1"><a xlink:title="Create the GPU texture.">
<polygon fill="#999999" stroke="#666666" points="438,-54 316,-54 316,-24 438,-24 438,-54"/>
<text text-anchor="start" x="324" y="-42" font-family="Roboto" font-size="10.00">Urho3D::Texture2DArray</text>
<text text-anchor="middle" x="377" y="-31" font-family="Roboto" font-size="10.00">::Create</text>
</a>
</g>
</g>
<!-- Node2 -->
<g id="node2" class="node">
<title>Node2</title>
<g id="a_node2"><a xlink:href="class_urho3_d_1_1_texture2_d_array.html#ada31ee9d6430947d7599da69b2b6b320" target="_top" xlink:title="Recreate the GPU resource and restore data if applicable.">
<polygon fill="white" stroke="#666666" points="280,-78 158,-78 158,-48 280,-48 280,-78"/>
<text text-anchor="start" x="166" y="-66" font-family="Roboto" font-size="10.00">Urho3D::Texture2DArray</text>
<text text-anchor="middle" x="219" y="-55" font-family="Roboto" font-size="10.00">::OnDeviceReset</text>
</a>
</g>
</g>
<!-- Node1&#45;&gt;Node2 -->
<g id="edge1" class="edge">
<title>Node1&#45;&gt;Node2</title>
<path fill="none" stroke="#63b8ff" d="M304.43,-50.01C296.4,-51.25 288.28,-52.5 280.41,-53.71"/>
<polygon fill="#63b8ff" stroke="#63b8ff" points="304.84,-53.49 314.19,-48.51 303.77,-46.57 304.84,-53.49"/>
</g>
<!-- Node3 -->
<g id="node3" class="node">
<title>Node3</title>
<g id="a_node3"><a xlink:href="class_urho3_d_1_1_texture2_d_array.html#acb0ff1c06a61392e0b2e30ae696c5d60" target="_top" xlink:title="Set layers, size, format and usage. Set layers to zero to leave them unchanged. Return true if succes...">
<polygon fill="white" stroke="#666666" points="280,-30 158,-30 158,0 280,0 280,-30"/>
<text text-anchor="start" x="166" y="-18" font-family="Roboto" font-size="10.00">Urho3D::Texture2DArray</text>
<text text-anchor="middle" x="219" y="-7" font-family="Roboto" font-size="10.00">::SetSize</text>
</a>
</g>
</g>
<!-- Node1&#45;&gt;Node3 -->
<g id="edge2" class="edge">
<title>Node1&#45;&gt;Node3</title>
<path fill="none" stroke="#63b8ff" d="M304.43,-27.99C296.4,-26.75 288.28,-25.5 280.41,-24.29"/>
<polygon fill="#63b8ff" stroke="#63b8ff" points="303.77,-31.43 314.19,-29.49 304.84,-24.51 303.77,-31.43"/>
</g>
<!-- Node4 -->
<g id="node4" class="node">
<title>Node4</title>
<g id="a_node4"><a xlink:href="class_urho3_d_1_1_texture2_d_array.html#a6bf5a1b684ec0d37ea5e81e0f2d7dd84" target="_top" xlink:title="Set data of one layer from an image. Return true if successful. Optionally make a single channel imag...">
<polygon fill="white" stroke="#666666" points="122,-30 0,-30 0,0 122,0 122,-30"/>
<text text-anchor="start" x="8" y="-18" font-family="Roboto" font-size="10.00">Urho3D::Texture2DArray</text>
<text text-anchor="middle" x="61" y="-7" font-family="Roboto" font-size="10.00">::SetData</text>
</a>
</g>
</g>
<!-- Node3&#45;&gt;Node4 -->
<g id="edge3" class="edge">
<title>Node3&#45;&gt;Node4</title>
<path fill="none" stroke="#63b8ff" d="M146.43,-15C138.4,-15 130.28,-15 122.41,-15"/>
<polygon fill="#63b8ff" stroke="#63b8ff" points="146.17,-18.5 156.17,-15 146.17,-11.5 146.17,-18.5"/>
</g>
</g>
</svg>
