<?xml version="1.0" encoding="UTF-8" standalone="no"?>
<!DOCTYPE svg PUBLIC "-//W3C//DTD SVG 1.1//EN"
 "http://www.w3.org/Graphics/SVG/1.1/DTD/svg11.dtd">
<!-- Generated by graphviz version 7.0.3 (0)
 -->
<!-- Title: Urho3D::Sprite Pages: 1 -->
<svg width="1145pt" height="853pt"
 viewBox="0.00 0.00 1145.00 853.00" xmlns="http://www.w3.org/2000/svg" xmlns:xlink="http://www.w3.org/1999/xlink">
<g id="graph0" class="graph" transform="scale(1 1) rotate(0) translate(4 849)">
<title>Urho3D::Sprite</title>
<!-- Node1 -->
<g id="node1" class="node">
<title>Node1</title>
<g id="a_node1"><a xlink:title="UI element which allows sub&#45;pixel positioning and size, as well as rotation. Only other Sprites shoul...">
<polygon fill="#999999" stroke="#666666" points="1137,-182 1057,-182 1057,-163 1137,-163 1137,-182"/>
<text text-anchor="middle" x="1097" y="-170" font-family="Roboto" font-size="10.00">Urho3D::Sprite</text>
</a>
</g>
</g>
<!-- Node2 -->
<g id="node2" class="node">
<title>Node2</title>
<g id="a_node2"><a xlink:href="class_urho3_d_1_1_u_i_element.html" target="_top" xlink:title="Base class for UI elements.">
<polygon fill="white" stroke="#666666" points="967.5,-548 866.5,-548 866.5,-529 967.5,-529 967.5,-548"/>
<text text-anchor="middle" x="917" y="-536" font-family="Roboto" font-size="10.00">Urho3D::UIElement</text>
</a>
</g>
</g>
<!-- Node2&#45;&gt;Node1 -->
<g id="edge1" class="edge">
<title>Node2&#45;&gt;Node1</title>
<path fill="none" stroke="#63b8ff" d="M927.7,-518.56C960.57,-450.97 1067.08,-231.96 1091.14,-182.49"/>
<polygon fill="#63b8ff" stroke="#63b8ff" points="924.65,-516.83 923.42,-527.35 930.94,-519.89 924.65,-516.83"/>
</g>
<!-- Node2&#45;&gt;Node2 -->
<g id="edge13" class="edge">
<title>Node2&#45;&gt;Node2</title>
<path fill="none" stroke="#9a32cd" stroke-dasharray="5,2" d="M899.96,-559.43C902.09,-563.29 907.77,-566 917,-566 933.88,-566 938.88,-556.94 932.03,-548.37"/>
<polygon fill="#9a32cd" stroke="#9a32cd" points="903.36,-560.32 901.7,-549.86 896.47,-559.07 903.36,-560.32"/>
<text text-anchor="middle" x="917" y="-569" font-family="Roboto" font-size="10.00"> parent_</text>
</g>
<!-- Node3 -->
<g id="node3" class="node">
<title>Node3</title>
<g id="a_node3"><a xlink:href="class_urho3_d_1_1_animatable.html" target="_top" xlink:title="Base class for animatable object, an animatable object can be set animation on it&#39;s attributes,...">
<polygon fill="white" stroke="#666666" points="716,-587 612,-587 612,-568 716,-568 716,-587"/>
<text text-anchor="middle" x="664" y="-575" font-family="Roboto" font-size="10.00">Urho3D::Animatable</text>
</a>
</g>
</g>
<!-- Node3&#45;&gt;Node2 -->
<g id="edge2" class="edge">
<title>Node3&#45;&gt;Node2</title>
<path fill="none" stroke="#63b8ff" d="M727.21,-569.95C762.44,-565.43 807.28,-559.25 847,-552.5 854.11,-551.29 861.61,-549.9 868.94,-548.47"/>
<polygon fill="#63b8ff" stroke="#63b8ff" points="727.11,-566.44 717.63,-571.17 727.99,-573.38 727.11,-566.44"/>
</g>
<!-- Node4 -->
<g id="node4" class="node">
<title>Node4</title>
<g id="a_node4"><a xlink:href="class_urho3_d_1_1_serializable.html" target="_top" xlink:title="Base class for objects with automatic serialization through attributes.">
<polygon fill="#fff0f0" stroke="red" points="349.5,-602 244.5,-602 244.5,-583 349.5,-583 349.5,-602"/>
<text text-anchor="middle" x="297" y="-590" font-family="Roboto" font-size="10.00">Urho3D::Serializable</text>
</a>
</g>
</g>
<!-- Node4&#45;&gt;Node3 -->
<g id="edge3" class="edge">
<title>Node4&#45;&gt;Node3</title>
<path fill="none" stroke="#63b8ff" d="M361.34,-589.9C432.28,-586.98 545.89,-582.31 611.57,-579.61"/>
<polygon fill="#63b8ff" stroke="#63b8ff" points="361.27,-586.4 351.42,-590.3 361.56,-593.39 361.27,-586.4"/>
</g>
<!-- Node34 -->
<g id="node5" class="node">
<title>Node34</title>
<g id="a_node5"><a xlink:href="class_urho3_d_1_1_shared_ptr.html" target="_top" xlink:title=" ">
<polygon fill="white" stroke="orangered" points="365.5,-516.5 228.5,-516.5 228.5,-486.5 365.5,-486.5 365.5,-516.5"/>
<text text-anchor="start" x="236.5" y="-504.5" font-family="Roboto" font-size="10.00">Urho3D::SharedPtr&lt;</text>
<text text-anchor="middle" x="297" y="-493.5" font-family="Roboto" font-size="10.00"> Urho3D::ObjectAnimation &gt;</text>
</a>
</g>
</g>
<!-- Node34&#45;&gt;Node3 -->
<g id="edge4" class="edge">
<title>Node34&#45;&gt;Node3</title>
<path fill="none" stroke="#9a32cd" stroke-dasharray="5,2" d="M377.44,-502.5C430.91,-505.66 501.99,-514.8 560,-539.5 569.32,-543.47 568.96,-548.93 578,-553.5 589.63,-559.38 602.91,-564 615.46,-567.55"/>
<polygon fill="#9a32cd" stroke="#9a32cd" points="377.64,-499 367.47,-501.97 377.27,-505.99 377.64,-499"/>
<text text-anchor="middle" x="482" y="-542.5" font-family="Roboto" font-size="10.00"> objectAnimation_</text>
</g>
<!-- Node40 -->
<g id="node6" class="node">
<title>Node40</title>
<g id="a_node6"><a xlink:href="class_urho3_d_1_1_hash_set.html" target="_top" xlink:title=" ">
<polygon fill="white" stroke="#666666" points="360.5,-564.5 233.5,-564.5 233.5,-534.5 360.5,-534.5 360.5,-564.5"/>
<text text-anchor="start" x="241.5" y="-552.5" font-family="Roboto" font-size="10.00">Urho3D::HashSet&lt; const</text>
<text text-anchor="middle" x="297" y="-541.5" font-family="Roboto" font-size="10.00"> Urho3D::AttributeInfo * &gt;</text>
</a>
</g>
</g>
<!-- Node40&#45;&gt;Node3 -->
<g id="edge5" class="edge">
<title>Node40&#45;&gt;Node3</title>
<path fill="none" stroke="#9a32cd" stroke-dasharray="5,2" d="M372.02,-553.48C424.53,-556.5 496.64,-561.06 560,-566.5 576.84,-567.95 595.2,-569.81 611.7,-571.6"/>
<polygon fill="#9a32cd" stroke="#9a32cd" points="372.48,-550 362.3,-552.92 372.08,-556.99 372.48,-550"/>
<text text-anchor="middle" x="482" y="-569.5" font-family="Roboto" font-size="10.00"> animatedNetworkAttributes_</text>
</g>
<!-- Node10 -->
<g id="node7" class="node">
<title>Node10</title>
<g id="a_node7"><a xlink:href="class_urho3_d_1_1_hash_base.html" target="_top" xlink:title="Hash set/map base class.">
<polygon fill="#fff0f0" stroke="red" points="122,-559 22,-559 22,-540 122,-540 122,-559"/>
<text text-anchor="middle" x="72" y="-547" font-family="Roboto" font-size="10.00">Urho3D::HashBase</text>
</a>
</g>
</g>
<!-- Node10&#45;&gt;Node40 -->
<g id="edge6" class="edge">
<title>Node10&#45;&gt;Node40</title>
<path fill="none" stroke="#63b8ff" d="M133.94,-549.5C164.71,-549.5 202.01,-549.5 233.06,-549.5"/>
<polygon fill="#63b8ff" stroke="#63b8ff" points="134,-546 124,-549.5 134,-553 134,-546"/>
</g>
<!-- Node41 -->
<g id="node8" class="node">
<title>Node41</title>
<g id="a_node8"><a xlink:href="class_urho3_d_1_1_hash_map.html" target="_top" xlink:title=" ">
<polygon fill="white" stroke="#666666" points="386,-661 208,-661 208,-620 386,-620 386,-661"/>
<text text-anchor="start" x="216" y="-649" font-family="Roboto" font-size="10.00">Urho3D::HashMap&lt; Urho3D</text>
<text text-anchor="start" x="216" y="-638" font-family="Roboto" font-size="10.00">::String, Urho3D::SharedPtr</text>
<text text-anchor="middle" x="297" y="-627" font-family="Roboto" font-size="10.00">&lt; Urho3D::AttributeAnimationInfo &gt; &gt;</text>
</a>
</g>
</g>
<!-- Node10&#45;&gt;Node41 -->
<g id="edge8" class="edge">
<title>Node10&#45;&gt;Node41</title>
<path fill="none" stroke="#63b8ff" d="M102.82,-564.37C129.9,-577.59 171.13,-597.01 208,-611.5 215.04,-614.27 222.46,-616.99 229.88,-619.6"/>
<polygon fill="#63b8ff" stroke="#63b8ff" points="104.7,-561.39 94.18,-560.12 101.61,-567.68 104.7,-561.39"/>
</g>
<!-- Node25 -->
<g id="node15" class="node">
<title>Node25</title>
<g id="a_node15"><a xlink:href="class_urho3_d_1_1_hash_map.html" target="_top" xlink:title=" ">
<polygon fill="white" stroke="#666666" points="560,-490.5 404,-490.5 404,-460.5 560,-460.5 560,-490.5"/>
<text text-anchor="start" x="412" y="-478.5" font-family="Roboto" font-size="10.00">Urho3D::HashMap&lt; StringHash,</text>
<text text-anchor="middle" x="482" y="-467.5" font-family="Roboto" font-size="10.00"> Variant &gt;</text>
</a>
</g>
</g>
<!-- Node10&#45;&gt;Node25 -->
<g id="edge20" class="edge">
<title>Node10&#45;&gt;Node25</title>
<path fill="none" stroke="#63b8ff" d="M95.49,-533.07C121.2,-515.39 165.27,-488.35 208,-477.5 272.43,-461.14 348.2,-462.11 403.55,-466.32"/>
<polygon fill="#63b8ff" stroke="#63b8ff" points="93.67,-530.07 87.51,-538.69 97.7,-535.8 93.67,-530.07"/>
</g>
<!-- Node41&#45;&gt;Node3 -->
<g id="edge7" class="edge">
<title>Node41&#45;&gt;Node3</title>
<path fill="none" stroke="#9a32cd" stroke-dasharray="5,2" d="M377.23,-616.69C386.21,-614.41 395.27,-612.28 404,-610.5 442.53,-602.64 547.8,-590.28 611.65,-583.12"/>
<polygon fill="#9a32cd" stroke="#9a32cd" points="376.59,-613.24 367.81,-619.16 378.37,-620.01 376.59,-613.24"/>
<text text-anchor="middle" x="482" y="-613.5" font-family="Roboto" font-size="10.00"> attributeAnimationInfos_</text>
</g>
<!-- Node37 -->
<g id="node9" class="node">
<title>Node37</title>
<g id="a_node9"><a xlink:href="class_urho3_d_1_1_string.html" target="_top" xlink:title="String class.">
<polygon fill="white" stroke="#666666" points="337,-698 257,-698 257,-679 337,-679 337,-698"/>
<text text-anchor="middle" x="297" y="-686" font-family="Roboto" font-size="10.00">Urho3D::String</text>
</a>
</g>
</g>
<!-- Node37&#45;&gt;Node2 -->
<g id="edge9" class="edge">
<title>Node37&#45;&gt;Node2</title>
<path fill="none" stroke="#9a32cd" stroke-dasharray="5,2" d="M348.82,-685.95C468.13,-679.22 762.44,-658.04 847,-609.5 874.43,-593.75 898.07,-563.96 909.21,-548.45"/>
<polygon fill="#9a32cd" stroke="#9a32cd" points="348.8,-682.45 339.01,-686.49 349.19,-689.44 348.8,-682.45"/>
<text text-anchor="middle" x="664" y="-680.5" font-family="Roboto" font-size="10.00"> appliedStyle_</text>
<text text-anchor="middle" x="664" y="-669.5" font-family="Roboto" font-size="10.00">name_</text>
</g>
<!-- Node37&#45;&gt;Node37 -->
<g id="edge10" class="edge">
<title>Node37&#45;&gt;Node37</title>
<path fill="none" stroke="#9a32cd" stroke-dasharray="5,2" d="M275.52,-709.43C278.21,-713.29 285.37,-716 297,-716 318.27,-716 324.58,-706.94 315.94,-698.37"/>
<polygon fill="#9a32cd" stroke="#9a32cd" points="278.9,-710.37 277.72,-699.84 272.07,-708.81 278.9,-710.37"/>
<text text-anchor="middle" x="297" y="-719" font-family="Roboto" font-size="10.00"> EMPTY</text>
</g>
<!-- Node52 -->
<g id="node21" class="node">
<title>Node52</title>
<g id="a_node21"><a xlink:href="class_urho3_d_1_1_x_path_query.html" target="_top" xlink:title="XPath query.">
<polygon fill="#fff0f0" stroke="red" points="717,-624 611,-624 611,-605 717,-605 717,-624"/>
<text text-anchor="middle" x="664" y="-612" font-family="Roboto" font-size="10.00">Urho3D::XPathQuery</text>
</a>
</g>
</g>
<!-- Node37&#45;&gt;Node52 -->
<g id="edge30" class="edge">
<title>Node37&#45;&gt;Node52</title>
<path fill="none" stroke="#9a32cd" stroke-dasharray="5,2" d="M348.5,-684.92C361.5,-682.25 374.93,-677.81 386,-670.5 397.73,-662.76 391.95,-651.73 404,-644.5 421.3,-634.12 540.08,-623.65 610.63,-618.25"/>
<polygon fill="#9a32cd" stroke="#9a32cd" points="348.01,-681.45 338.74,-686.58 349.19,-688.35 348.01,-681.45"/>
<text text-anchor="middle" x="482" y="-647.5" font-family="Roboto" font-size="10.00"> queryString_</text>
</g>
<!-- Node42 -->
<g id="node10" class="node">
<title>Node42</title>
<g id="a_node10"><a xlink:href="class_urho3_d_1_1_vector.html" target="_top" xlink:title=" ">
<polygon fill="white" stroke="#666666" points="750,-464.5 578,-464.5 578,-434.5 750,-434.5 750,-464.5"/>
<text text-anchor="start" x="586" y="-452.5" font-family="Roboto" font-size="10.00">Urho3D::Vector&lt; Urho3D</text>
<text text-anchor="middle" x="664" y="-441.5" font-family="Roboto" font-size="10.00">::SharedPtr&lt; Urho3D::UIElement &gt; &gt;</text>
</a>
</g>
</g>
<!-- Node42&#45;&gt;Node2 -->
<g id="edge11" class="edge">
<title>Node42&#45;&gt;Node2</title>
<path fill="none" stroke="#9a32cd" stroke-dasharray="5,2" d="M761.56,-460.11C789.93,-465.46 820.45,-473.48 847,-485.5 870.67,-496.22 893.68,-516.46 906.23,-528.59"/>
<polygon fill="#9a32cd" stroke="#9a32cd" points="762.34,-456.7 751.88,-458.39 761.11,-463.59 762.34,-456.7"/>
<text text-anchor="middle" x="807.5" y="-488.5" font-family="Roboto" font-size="10.00"> children_</text>
</g>
<!-- Node19 -->
<g id="node11" class="node">
<title>Node19</title>
<g id="a_node11"><a xlink:href="class_urho3_d_1_1_vector_base.html" target="_top" xlink:title="Vector base class.">
<polygon fill="white" stroke="#666666" points="350,-430 244,-430 244,-411 350,-411 350,-430"/>
<text text-anchor="middle" x="297" y="-418" font-family="Roboto" font-size="10.00">Urho3D::VectorBase</text>
</a>
</g>
</g>
<!-- Node19&#45;&gt;Node42 -->
<g id="edge12" class="edge">
<title>Node19&#45;&gt;Node42</title>
<path fill="none" stroke="#63b8ff" d="M361.59,-422.27C414.72,-424.15 492.43,-427.79 560,-434.5 565.75,-435.07 571.68,-435.73 577.64,-436.46"/>
<polygon fill="#63b8ff" stroke="#63b8ff" points="361.93,-418.78 351.81,-421.94 361.69,-425.78 361.93,-418.78"/>
</g>
<!-- Node55 -->
<g id="node22" class="node">
<title>Node55</title>
<g id="a_node22"><a xlink:href="class_urho3_d_1_1_vector.html" target="_top" xlink:title=" ">
<polygon fill="white" stroke="#666666" points="726.5,-502 601.5,-502 601.5,-483 726.5,-483 726.5,-502"/>
<text text-anchor="middle" x="664" y="-490" font-family="Roboto" font-size="10.00">Urho3D::Vector&lt; String &gt;</text>
</a>
</g>
</g>
<!-- Node19&#45;&gt;Node55 -->
<g id="edge32" class="edge">
<title>Node19&#45;&gt;Node55</title>
<path fill="none" stroke="#63b8ff" d="M361.47,-428.23C433.12,-437.23 542.09,-451.84 560,-459.5 569.32,-463.49 568.83,-469.18 578,-473.5 585.8,-477.17 594.33,-480.16 602.9,-482.57"/>
<polygon fill="#63b8ff" stroke="#63b8ff" points="362.17,-424.79 351.81,-427.03 361.3,-431.74 362.17,-424.79"/>
</g>
<!-- Node43 -->
<g id="node12" class="node">
<title>Node43</title>
<g id="a_node12"><a xlink:href="class_urho3_d_1_1_int_rect.html" target="_top" xlink:title="Two&#45;dimensional bounding rectangle with integer values.">
<polygon fill="white" stroke="#666666" points="707,-816 621,-816 621,-797 707,-797 707,-816"/>
<text text-anchor="middle" x="664" y="-804" font-family="Roboto" font-size="10.00">Urho3D::IntRect</text>
</a>
</g>
</g>
<!-- Node43&#45;&gt;Node1 -->
<g id="edge39" class="edge">
<title>Node43&#45;&gt;Node1</title>
<path fill="none" stroke="#9a32cd" stroke-dasharray="5,2" d="M718.42,-814.41C757,-817.35 808.82,-815.34 847,-791.5 1076.92,-647.96 1094.56,-249.65 1095.89,-182.25"/>
<polygon fill="#9a32cd" stroke="#9a32cd" points="719.19,-810.97 708.92,-813.55 718.56,-817.94 719.19,-810.97"/>
<text text-anchor="middle" x="917" y="-777.5" font-family="Roboto" font-size="10.00"> imageRect_</text>
</g>
<!-- Node43&#45;&gt;Node2 -->
<g id="edge14" class="edge">
<title>Node43&#45;&gt;Node2</title>
<path fill="none" stroke="#9a32cd" stroke-dasharray="5,2" d="M718.5,-799.38C729.34,-796.62 740.36,-792.8 750,-787.5 759.91,-782.05 758.26,-775.26 768,-769.5 799.47,-750.88 820.67,-771.88 847,-746.5 905.9,-689.74 914.53,-581.61 915.79,-548.43"/>
<polygon fill="#9a32cd" stroke="#9a32cd" points="717.8,-795.95 708.81,-801.55 719.33,-802.78 717.8,-795.95"/>
<text text-anchor="middle" x="807.5" y="-783.5" font-family="Roboto" font-size="10.00"> clipBorder_</text>
<text text-anchor="middle" x="807.5" y="-772.5" font-family="Roboto" font-size="10.00">layoutBorder_</text>
</g>
<!-- Node43&#45;&gt;Node43 -->
<g id="edge15" class="edge">
<title>Node43&#45;&gt;Node43</title>
<path fill="none" stroke="#9a32cd" stroke-dasharray="5,2" d="M638.53,-827.43C641.71,-831.29 650.21,-834 664,-834 689.22,-834 696.71,-824.94 686.47,-816.37"/>
<polygon fill="#9a32cd" stroke="#9a32cd" points="641.89,-828.4 641.14,-817.83 635.14,-826.56 641.89,-828.4"/>
<text text-anchor="middle" x="664" y="-837" font-family="Roboto" font-size="10.00"> ZERO</text>
</g>
<!-- Node44 -->
<g id="node13" class="node">
<title>Node44</title>
<g id="a_node13"><a xlink:href="class_urho3_d_1_1_color.html" target="_top" xlink:title="RGBA color.">
<polygon fill="white" stroke="#666666" points="337,-211 257,-211 257,-192 337,-192 337,-211"/>
<text text-anchor="middle" x="297" y="-199" font-family="Roboto" font-size="10.00">Urho3D::Color</text>
</a>
</g>
</g>
<!-- Node44&#45;&gt;Node2 -->
<g id="edge16" class="edge">
<title>Node44&#45;&gt;Node2</title>
<path fill="none" stroke="#9a32cd" stroke-dasharray="5,2" d="M320.17,-218.15C365.87,-251.66 474.95,-327.44 578,-367.5 650.79,-395.8 682.31,-364.55 750,-403.5 760.37,-409.46 758.28,-416.53 768,-423.5 799.06,-445.78 816.24,-434.8 847,-457.5 874.94,-478.12 899.06,-512.14 909.9,-528.76"/>
<polygon fill="#9a32cd" stroke="#9a32cd" points="322.5,-215.52 312.38,-212.39 318.33,-221.15 322.5,-215.52"/>
<text text-anchor="middle" x="664" y="-417.5" font-family="Roboto" font-size="10.00"> colors_</text>
<text text-anchor="middle" x="664" y="-406.5" font-family="Roboto" font-size="10.00">derivedColor_</text>
</g>
<!-- Node44&#45;&gt;Node44 -->
<g id="edge18" class="edge">
<title>Node44&#45;&gt;Node44</title>
<path fill="none" stroke="#9a32cd" stroke-dasharray="5,2" d="M275.52,-222.43C278.21,-226.29 285.37,-229 297,-229 318.27,-229 324.58,-219.94 315.94,-211.37"/>
<polygon fill="#9a32cd" stroke="#9a32cd" points="278.9,-223.37 277.72,-212.84 272.07,-221.81 278.9,-223.37"/>
<text text-anchor="middle" x="297" y="-353" font-family="Roboto" font-size="10.00"> BLACK</text>
<text text-anchor="middle" x="297" y="-342" font-family="Roboto" font-size="10.00">BLUE</text>
<text text-anchor="middle" x="297" y="-331" font-family="Roboto" font-size="10.00">CYAN</text>
<text text-anchor="middle" x="297" y="-320" font-family="Roboto" font-size="10.00">GRAY</text>
<text text-anchor="middle" x="297" y="-309" font-family="Roboto" font-size="10.00">GREEN</text>
<text text-anchor="middle" x="297" y="-298" font-family="Roboto" font-size="10.00">MAGENTA</text>
<text text-anchor="middle" x="297" y="-287" font-family="Roboto" font-size="10.00">RED</text>
<text text-anchor="start" x="262" y="-276" font-family="Roboto" font-size="10.00">TRANSPARENT</text>
<text text-anchor="middle" x="297" y="-265" font-family="Roboto" font-size="10.00">_BLACK</text>
<text text-anchor="middle" x="297" y="-254" font-family="Roboto" font-size="10.00">WHITE</text>
<text text-anchor="middle" x="297" y="-243" font-family="Roboto" font-size="10.00">YELLOW</text>
<text text-anchor="middle" x="297" y="-232" font-family="Roboto" font-size="10.00">...</text>
</g>
<!-- Node57 -->
<g id="node24" class="node">
<title>Node57</title>
<g id="a_node24"><a xlink:href="class_urho3_d_1_1_texture.html" target="_top" xlink:title="Base class for texture resources.">
<polygon fill="#fff0f0" stroke="red" points="707.5,-116 620.5,-116 620.5,-97 707.5,-97 707.5,-116"/>
<text text-anchor="middle" x="664" y="-104" font-family="Roboto" font-size="10.00">Urho3D::Texture</text>
</a>
</g>
</g>
<!-- Node44&#45;&gt;Node57 -->
<g id="edge37" class="edge">
<title>Node44&#45;&gt;Node57</title>
<path fill="none" stroke="#9a32cd" stroke-dasharray="5,2" d="M342.2,-188.46C397.21,-172.45 494.13,-144.89 578,-124.5 591.63,-121.19 606.58,-117.9 620.08,-115.07"/>
<polygon fill="#9a32cd" stroke="#9a32cd" points="341.52,-185.02 332.9,-191.18 343.48,-191.74 341.52,-185.02"/>
<text text-anchor="middle" x="482" y="-174.5" font-family="Roboto" font-size="10.00"> borderColor_</text>
</g>
<!-- Node45 -->
<g id="node14" class="node">
<title>Node45</title>
<g id="a_node14"><a xlink:href="struct_urho3_d_1_1_color_1_1_channel_mask.html" target="_top" xlink:title="Mask describing color channels.">
<polygon fill="white" stroke="#666666" points="144,-211 0,-211 0,-192 144,-192 144,-211"/>
<text text-anchor="middle" x="72" y="-199" font-family="Roboto" font-size="10.00">Urho3D::Color::ChannelMask</text>
</a>
</g>
</g>
<!-- Node45&#45;&gt;Node44 -->
<g id="edge17" class="edge">
<title>Node45&#45;&gt;Node44</title>
<path fill="none" stroke="#9a32cd" stroke-dasharray="5,2" d="M155.55,-201.5C190.16,-201.5 228.76,-201.5 256.72,-201.5"/>
<polygon fill="#9a32cd" stroke="#9a32cd" points="155.99,-198 145.99,-201.5 155.99,-205 155.99,-198"/>
<text text-anchor="middle" x="176" y="-215.5" font-family="Roboto" font-size="10.00"> ABGR</text>
<text text-anchor="middle" x="176" y="-204.5" font-family="Roboto" font-size="10.00">ARGB</text>
</g>
<!-- Node25&#45;&gt;Node2 -->
<g id="edge19" class="edge">
<title>Node25&#45;&gt;Node2</title>
<path fill="none" stroke="#9a32cd" stroke-dasharray="5,2" d="M546.82,-494.92C551.33,-496.69 555.76,-498.55 560,-500.5 568.52,-504.42 569.08,-508.6 578,-511.5 676.4,-543.47 798.99,-544.27 866.19,-541.63"/>
<polygon fill="#9a32cd" stroke="#9a32cd" points="548.24,-491.71 537.65,-491.5 545.8,-498.27 548.24,-491.71"/>
<text text-anchor="middle" x="664" y="-542.5" font-family="Roboto" font-size="10.00"> vars_</text>
</g>
<!-- Node46 -->
<g id="node16" class="node">
<title>Node46</title>
<g id="a_node16"><a xlink:href="class_urho3_d_1_1_vector2.html" target="_top" xlink:title="Two&#45;dimensional vector.">
<polygon fill="white" stroke="#666666" points="708.5,-153 619.5,-153 619.5,-134 708.5,-134 708.5,-153"/>
<text text-anchor="middle" x="664" y="-141" font-family="Roboto" font-size="10.00">Urho3D::Vector2</text>
</a>
</g>
</g>
<!-- Node46&#45;&gt;Node1 -->
<g id="edge33" class="edge">
<title>Node46&#45;&gt;Node1</title>
<path fill="none" stroke="#9a32cd" stroke-dasharray="5,2" d="M720.13,-144.85C781.1,-146.63 882.18,-150.38 969,-157.5 998.43,-159.91 1031.56,-163.87 1056.6,-167.11"/>
<polygon fill="#9a32cd" stroke="#9a32cd" points="720.47,-141.36 710.37,-144.58 720.27,-148.36 720.47,-141.36"/>
<text text-anchor="middle" x="917" y="-171.5" font-family="Roboto" font-size="10.00"> floatPosition_</text>
<text text-anchor="middle" x="917" y="-160.5" font-family="Roboto" font-size="10.00">scale_</text>
</g>
<!-- Node46&#45;&gt;Node2 -->
<g id="edge21" class="edge">
<title>Node46&#45;&gt;Node2</title>
<path fill="none" stroke="#9a32cd" stroke-dasharray="5,2" d="M719.59,-156.45C760.7,-169.04 815.23,-192.31 847,-232.5 885.08,-280.67 909.61,-481.41 914.92,-528.56"/>
<polygon fill="#9a32cd" stroke="#9a32cd" points="720.68,-153.12 710.1,-153.68 718.72,-159.84 720.68,-153.12"/>
<text text-anchor="middle" x="807.5" y="-279.5" font-family="Roboto" font-size="10.00"> anchorMax_</text>
<text text-anchor="middle" x="807.5" y="-268.5" font-family="Roboto" font-size="10.00">anchorMin_</text>
<text text-anchor="start" x="773" y="-257.5" font-family="Roboto" font-size="10.00">layoutFlexScale</text>
<text text-anchor="middle" x="807.5" y="-246.5" font-family="Roboto" font-size="10.00">_</text>
<text text-anchor="middle" x="807.5" y="-235.5" font-family="Roboto" font-size="10.00">pivot_</text>
</g>
<!-- Node46&#45;&gt;Node46 -->
<g id="edge22" class="edge">
<title>Node46&#45;&gt;Node46</title>
<path fill="none" stroke="#9a32cd" stroke-dasharray="5,2" d="M638.53,-164.43C641.71,-168.29 650.21,-171 664,-171 689.22,-171 696.71,-161.94 686.47,-153.37"/>
<polygon fill="#9a32cd" stroke="#9a32cd" points="641.89,-165.4 641.14,-154.83 635.14,-163.56 641.89,-165.4"/>
<text text-anchor="middle" x="664" y="-229" font-family="Roboto" font-size="10.00"> DOWN</text>
<text text-anchor="middle" x="664" y="-218" font-family="Roboto" font-size="10.00">LEFT</text>
<text text-anchor="middle" x="664" y="-207" font-family="Roboto" font-size="10.00">ONE</text>
<text text-anchor="middle" x="664" y="-196" font-family="Roboto" font-size="10.00">RIGHT</text>
<text text-anchor="middle" x="664" y="-185" font-family="Roboto" font-size="10.00">UP</text>
<text text-anchor="middle" x="664" y="-174" font-family="Roboto" font-size="10.00">ZERO</text>
</g>
<!-- Node47 -->
<g id="node17" class="node">
<title>Node47</title>
<g id="a_node17"><a xlink:href="class_urho3_d_1_1_int_vector2.html" target="_top" xlink:title="Two&#45;dimensional vector with integer values.">
<polygon fill="white" stroke="#666666" points="714.5,-274 613.5,-274 613.5,-255 714.5,-255 714.5,-274"/>
<text text-anchor="middle" x="664" y="-262" font-family="Roboto" font-size="10.00">Urho3D::IntVector2</text>
</a>
</g>
</g>
<!-- Node47&#45;&gt;Node1 -->
<g id="edge34" class="edge">
<title>Node47&#45;&gt;Node1</title>
<path fill="none" stroke="#9a32cd" stroke-dasharray="5,2" d="M725.7,-258.21C734.37,-255.5 742.78,-251.73 750,-246.5 762.9,-237.16 754.74,-224.33 768,-215.5 791.66,-199.74 974.93,-182.64 1056.76,-175.69"/>
<polygon fill="#9a32cd" stroke="#9a32cd" points="724.9,-254.8 716.12,-260.72 726.68,-261.57 724.9,-254.8"/>
<text text-anchor="middle" x="917" y="-198.5" font-family="Roboto" font-size="10.00"> hotSpot_</text>
</g>
<!-- Node47&#45;&gt;Node2 -->
<g id="edge23" class="edge">
<title>Node47&#45;&gt;Node2</title>
<path fill="none" stroke="#9a32cd" stroke-dasharray="5,2" d="M714.7,-277.26C767.74,-290.97 844.54,-311.13 847,-313.5 910.77,-375.1 916.01,-493.94 916.12,-528.71"/>
<polygon fill="#9a32cd" stroke="#9a32cd" points="715.8,-273.93 705.24,-274.82 714.05,-280.71 715.8,-273.93"/>
<text text-anchor="middle" x="807.5" y="-415.5" font-family="Roboto" font-size="10.00"> childOffset_</text>
<text text-anchor="middle" x="807.5" y="-404.5" font-family="Roboto" font-size="10.00">layoutMinSize_</text>
<text text-anchor="middle" x="807.5" y="-393.5" font-family="Roboto" font-size="10.00">maxOffset_</text>
<text text-anchor="middle" x="807.5" y="-382.5" font-family="Roboto" font-size="10.00">maxSize_</text>
<text text-anchor="middle" x="807.5" y="-371.5" font-family="Roboto" font-size="10.00">minOffset_</text>
<text text-anchor="middle" x="807.5" y="-360.5" font-family="Roboto" font-size="10.00">minSize_</text>
<text text-anchor="middle" x="807.5" y="-349.5" font-family="Roboto" font-size="10.00">position_</text>
<text text-anchor="start" x="774" y="-338.5" font-family="Roboto" font-size="10.00">screenPosition</text>
<text text-anchor="middle" x="807.5" y="-327.5" font-family="Roboto" font-size="10.00">_</text>
<text text-anchor="middle" x="807.5" y="-316.5" font-family="Roboto" font-size="10.00">size_</text>
</g>
<!-- Node47&#45;&gt;Node47 -->
<g id="edge24" class="edge">
<title>Node47&#45;&gt;Node47</title>
<path fill="none" stroke="#9a32cd" stroke-dasharray="5,2" d="M638.53,-285.43C641.71,-289.29 650.21,-292 664,-292 689.22,-292 696.71,-282.94 686.47,-274.37"/>
<polygon fill="#9a32cd" stroke="#9a32cd" points="641.89,-286.4 641.14,-275.83 635.14,-284.56 641.89,-286.4"/>
<text text-anchor="middle" x="664" y="-350" font-family="Roboto" font-size="10.00"> DOWN</text>
<text text-anchor="middle" x="664" y="-339" font-family="Roboto" font-size="10.00">LEFT</text>
<text text-anchor="middle" x="664" y="-328" font-family="Roboto" font-size="10.00">ONE</text>
<text text-anchor="middle" x="664" y="-317" font-family="Roboto" font-size="10.00">RIGHT</text>
<text text-anchor="middle" x="664" y="-306" font-family="Roboto" font-size="10.00">UP</text>
<text text-anchor="middle" x="664" y="-295" font-family="Roboto" font-size="10.00">ZERO</text>
</g>
<!-- Node48 -->
<g id="node18" class="node">
<title>Node48</title>
<g id="a_node18"><a xlink:href="class_urho3_d_1_1_shared_ptr.html" target="_top" xlink:title=" ">
<polygon fill="white" stroke="#666666" points="716,-730.5 612,-730.5 612,-700.5 716,-700.5 716,-730.5"/>
<text text-anchor="start" x="620" y="-718.5" font-family="Roboto" font-size="10.00">Urho3D::SharedPtr&lt;</text>
<text text-anchor="middle" x="664" y="-707.5" font-family="Roboto" font-size="10.00"> Urho3D::XMLFile &gt;</text>
</a>
</g>
</g>
<!-- Node48&#45;&gt;Node2 -->
<g id="edge25" class="edge">
<title>Node48&#45;&gt;Node2</title>
<path fill="none" stroke="#9a32cd" stroke-dasharray="5,2" d="M727.34,-707.22C772.39,-700.19 828.44,-688.94 847,-674.5 890.04,-641 908.49,-573.35 914.06,-548.2"/>
<polygon fill="#9a32cd" stroke="#9a32cd" points="727.02,-703.73 717.66,-708.69 728.07,-710.65 727.02,-703.73"/>
<text text-anchor="middle" x="807.5" y="-702.5" font-family="Roboto" font-size="10.00"> defaultStyle_</text>
</g>
<!-- Node49 -->
<g id="node19" class="node">
<title>Node49</title>
<g id="a_node19"><a xlink:href="class_urho3_d_1_1_x_m_l_file.html" target="_top" xlink:title="XML document resource.">
<polygon fill="#fff0f0" stroke="red" points="342,-768 252,-768 252,-749 342,-749 342,-768"/>
<text text-anchor="middle" x="297" y="-756" font-family="Roboto" font-size="10.00">Urho3D::XMLFile</text>
</a>
</g>
</g>
<!-- Node49&#45;&gt;Node48 -->
<g id="edge26" class="edge">
<title>Node49&#45;&gt;Node48</title>
<path fill="none" stroke="#9a32cd" stroke-dasharray="5,2" d="M353.33,-750.98C369.64,-748.82 387.53,-746.51 404,-744.5 476.09,-735.7 559.59,-726.54 611.86,-720.92"/>
<polygon fill="#9a32cd" stroke="#9a32cd" points="353.28,-747.46 343.83,-752.25 354.2,-754.4 353.28,-747.46"/>
<text text-anchor="middle" x="482" y="-747.5" font-family="Roboto" font-size="10.00"> ptr_</text>
</g>
<!-- Node51 -->
<g id="node20" class="node">
<title>Node51</title>
<g id="a_node20"><a xlink:href="class_urho3_d_1_1_weak_ptr.html" target="_top" xlink:title=" ">
<polygon fill="white" stroke="orangered" points="731,-778.5 597,-778.5 597,-748.5 731,-748.5 731,-778.5"/>
<text text-anchor="start" x="605" y="-766.5" font-family="Roboto" font-size="10.00">Urho3D::WeakPtr&lt; Urho3D</text>
<text text-anchor="middle" x="664" y="-755.5" font-family="Roboto" font-size="10.00">::XMLFile &gt;</text>
</a>
</g>
</g>
<!-- Node49&#45;&gt;Node51 -->
<g id="edge28" class="edge">
<title>Node49&#45;&gt;Node51</title>
<path fill="none" stroke="#9a32cd" stroke-dasharray="5,2" d="M353.67,-759.26C418.97,-760.16 527.13,-761.64 596.7,-762.59"/>
<polygon fill="#9a32cd" stroke="#9a32cd" points="353.95,-755.77 343.9,-759.13 353.86,-762.77 353.95,-755.77"/>
<text text-anchor="middle" x="482" y="-764.5" font-family="Roboto" font-size="10.00"> ptr_</text>
</g>
<!-- Node51&#45;&gt;Node2 -->
<g id="edge27" class="edge">
<title>Node51&#45;&gt;Node2</title>
<path fill="none" stroke="#9a32cd" stroke-dasharray="5,2" d="M732.08,-745.07C783.01,-730.96 844.72,-713.56 847,-711.5 897.56,-665.69 911.65,-577.87 915.04,-548.41"/>
<polygon fill="#9a32cd" stroke="#9a32cd" points="731.23,-741.67 722.53,-747.71 733.1,-748.42 731.23,-741.67"/>
<text text-anchor="middle" x="807.5" y="-736.5" font-family="Roboto" font-size="10.00"> appliedStyleFile_</text>
</g>
<!-- Node52&#45;&gt;Node2 -->
<g id="edge29" class="edge">
<title>Node52&#45;&gt;Node2</title>
<path fill="none" stroke="#9a32cd" stroke-dasharray="5,2" d="M728.5,-603.3C763.96,-596.11 808.6,-585.48 847,-571.5 864.72,-565.05 884.01,-555.6 897.68,-548.47"/>
<polygon fill="#9a32cd" stroke="#9a32cd" points="727.94,-599.84 718.81,-605.22 729.3,-606.71 727.94,-599.84"/>
<text text-anchor="middle" x="807.5" y="-597.5" font-family="Roboto" font-size="10.00"> styleXPathQuery_</text>
</g>
<!-- Node55&#45;&gt;Node2 -->
<g id="edge31" class="edge">
<title>Node55&#45;&gt;Node2</title>
<path fill="none" stroke="#9a32cd" stroke-dasharray="5,2" d="M737.81,-497C771.37,-500.07 811.53,-505.15 847,-513.5 862.63,-517.18 879.59,-523.29 892.78,-528.55"/>
<polygon fill="#9a32cd" stroke="#9a32cd" points="738.47,-493.55 728.2,-496.17 737.86,-500.52 738.47,-493.55"/>
<text text-anchor="middle" x="807.5" y="-516.5" font-family="Roboto" font-size="10.00"> tags_</text>
</g>
<!-- Node56 -->
<g id="node23" class="node">
<title>Node56</title>
<g id="a_node23"><a xlink:href="class_urho3_d_1_1_shared_ptr.html" target="_top" xlink:title=" ">
<polygon fill="white" stroke="#666666" points="969,-107.5 865,-107.5 865,-77.5 969,-77.5 969,-107.5"/>
<text text-anchor="start" x="873" y="-95.5" font-family="Roboto" font-size="10.00">Urho3D::SharedPtr&lt;</text>
<text text-anchor="middle" x="917" y="-84.5" font-family="Roboto" font-size="10.00"> Urho3D::Texture &gt;</text>
</a>
</g>
</g>
<!-- Node56&#45;&gt;Node1 -->
<g id="edge35" class="edge">
<title>Node56&#45;&gt;Node1</title>
<path fill="none" stroke="#9a32cd" stroke-dasharray="5,2" d="M980.55,-99.24C1000.05,-103.07 1021.12,-109.08 1039,-118.5 1059.98,-129.56 1078.77,-150.53 1088.66,-162.83"/>
<polygon fill="#9a32cd" stroke="#9a32cd" points="981.23,-95.81 970.77,-97.49 980,-102.7 981.23,-95.81"/>
<text text-anchor="middle" x="1013" y="-121.5" font-family="Roboto" font-size="10.00"> texture_</text>
</g>
<!-- Node56&#45;&gt;Node57 -->
<g id="edge38" class="edge">
<title>Node56&#45;&gt;Node57</title>
<path fill="none" stroke="#9a32cd" stroke-dasharray="5,2" d="M853.61,-83.05C851.38,-82.84 849.17,-82.66 847,-82.5 811.98,-79.98 802.88,-78.49 768,-82.5 744.65,-85.18 718.9,-91.18 698.99,-96.51"/>
<polygon fill="#9a32cd" stroke="#9a32cd" points="853.02,-86.5 863.34,-84.09 853.77,-79.54 853.02,-86.5"/>
<text text-anchor="middle" x="807.5" y="-85.5" font-family="Roboto" font-size="10.00"> backupTexture_</text>
</g>
<!-- Node57&#45;&gt;Node56 -->
<g id="edge36" class="edge">
<title>Node57&#45;&gt;Node56</title>
<path fill="none" stroke="#9a32cd" stroke-dasharray="5,2" d="M719.28,-103.47C762.4,-101.07 822.3,-97.73 864.64,-95.36"/>
<polygon fill="#9a32cd" stroke="#9a32cd" points="719.16,-99.97 709.37,-104.02 719.55,-106.96 719.16,-99.97"/>
<text text-anchor="middle" x="807.5" y="-104.5" font-family="Roboto" font-size="10.00"> ptr_</text>
</g>
<!-- Node101 -->
<g id="node25" class="node">
<title>Node101</title>
<g id="a_node25"><a xlink:href="class_urho3_d_1_1_matrix3x4.html" target="_top" xlink:title="3x4 matrix for scene node transform calculations.">
<polygon fill="white" stroke="#666666" points="966.5,-19 867.5,-19 867.5,0 966.5,0 966.5,-19"/>
<text text-anchor="middle" x="917" y="-7" font-family="Roboto" font-size="10.00">Urho3D::Matrix3x4</text>
</a>
</g>
</g>
<!-- Node101&#45;&gt;Node1 -->
<g id="edge40" class="edge">
<title>Node101&#45;&gt;Node1</title>
<path fill="none" stroke="#9a32cd" stroke-dasharray="5,2" d="M949.19,-24.63C975.24,-38.31 1012.29,-60.29 1039,-86.5 1063.03,-110.09 1082.51,-145.41 1091.16,-162.51"/>
<polygon fill="#9a32cd" stroke="#9a32cd" points="950.95,-21.6 940.46,-20.16 947.76,-27.83 950.95,-21.6"/>
<text text-anchor="middle" x="1013" y="-89.5" font-family="Roboto" font-size="10.00"> transform_</text>
</g>
<!-- Node101&#45;&gt;Node101 -->
<g id="edge41" class="edge">
<title>Node101&#45;&gt;Node101</title>
<path fill="none" stroke="#9a32cd" stroke-dasharray="5,2" d="M899.96,-30.43C902.09,-34.29 907.77,-37 917,-37 933.88,-37 938.88,-27.94 932.03,-19.37"/>
<polygon fill="#9a32cd" stroke="#9a32cd" points="903.36,-31.32 901.7,-20.86 896.47,-30.07 903.36,-31.32"/>
<text text-anchor="middle" x="917" y="-51" font-family="Roboto" font-size="10.00"> IDENTITY</text>
<text text-anchor="middle" x="917" y="-40" font-family="Roboto" font-size="10.00">ZERO</text>
</g>
</g>
</svg>
