<?xml version="1.0" encoding="UTF-8" standalone="no"?>
<!DOCTYPE svg PUBLIC "-//W3C//DTD SVG 1.1//EN"
 "http://www.w3.org/Graphics/SVG/1.1/DTD/svg11.dtd">
<!-- Generated by graphviz version 7.0.3 (0)
 -->
<!-- Title: Urho3D::Camera::GetNearClip Pages: 1 -->
<svg width="1122pt" height="645pt"
 viewBox="0.00 0.00 1122.00 644.81" xmlns="http://www.w3.org/2000/svg" xmlns:xlink="http://www.w3.org/1999/xlink">
<g id="graph0" class="graph" transform="scale(1 1) rotate(0) translate(4 640.81)">
<title>Urho3D::Camera::GetNearClip</title>
<!-- Node1 -->
<g id="node1" class="node">
<title>Node1</title>
<g id="a_node1"><a xlink:title=" ">
<polygon fill="#999999" stroke="#666666" points="1114,-220.5 967,-220.5 967,-201.5 1114,-201.5 1114,-220.5"/>
<text text-anchor="middle" x="1040.5" y="-208.5" font-family="Roboto" font-size="10.00">Urho3D::Camera::GetNearClip</text>
</a>
</g>
</g>
<!-- Node2 -->
<g id="node2" class="node">
<title>Node2</title>
<g id="a_node2"><a xlink:href="class_urho3_d_1_1_camera.html#a1edcc9f8a61ae07bd15bba96ee079d32" target="_top" xlink:title=" ">
<polygon fill="white" stroke="#666666" points="925.5,-506.5 779.5,-506.5 779.5,-487.5 925.5,-487.5 925.5,-506.5"/>
<text text-anchor="middle" x="852.5" y="-494.5" font-family="Roboto" font-size="10.00">Urho3D::Camera::GetFrustum</text>
</a>
</g>
</g>
<!-- Node1&#45;&gt;Node2 -->
<g id="edge1" class="edge">
<title>Node1&#45;&gt;Node2</title>
<path fill="none" stroke="#63b8ff" d="M1027.66,-230.24C1007.94,-262.18 966.98,-328.07 931,-383 905.56,-421.84 874.17,-467.28 860.46,-487.01"/>
<polygon fill="#63b8ff" stroke="#63b8ff" points="1030.44,-232.41 1032.7,-222.06 1024.48,-228.74 1030.44,-232.41"/>
</g>
<!-- Node16 -->
<g id="node9" class="node">
<title>Node16</title>
<g id="a_node9"><a xlink:href="class_urho3_d_1_1_light.html#a2ac64042dfe3354b9be2663ea63ec4da" target="_top" xlink:title="Return a transform for deferred fullscreen quad (directional light) rendering.">
<polygon fill="white" stroke="#666666" points="527.5,-315 387.5,-315 387.5,-285 527.5,-285 527.5,-315"/>
<text text-anchor="start" x="395.5" y="-303" font-family="Roboto" font-size="10.00">Urho3D::Light::GetFullscreen</text>
<text text-anchor="middle" x="457.5" y="-292" font-family="Roboto" font-size="10.00">QuadTransform</text>
</a>
</g>
</g>
<!-- Node1&#45;&gt;Node16 -->
<g id="edge10" class="edge">
<title>Node1&#45;&gt;Node16</title>
<path fill="none" stroke="#63b8ff" d="M1023.7,-229.38C1004.33,-250.36 969.32,-283.52 931,-297 794.61,-344.98 622.06,-328.32 527.79,-313.28"/>
<polygon fill="#63b8ff" stroke="#63b8ff" points="1026.16,-231.88 1030.22,-222.09 1020.94,-227.21 1026.16,-231.88"/>
</g>
<!-- Node29 -->
<g id="node13" class="node">
<title>Node29</title>
<g id="a_node13"><a xlink:href="class_urho3_d_1_1_camera.html#ab7e166e8cd5a482b25d4caf9792821eb" target="_top" xlink:title=" ">
<polygon fill="white" stroke="#666666" points="931,-288 774,-288 774,-258 931,-258 931,-288"/>
<text text-anchor="start" x="782" y="-276" font-family="Roboto" font-size="10.00">Urho3D::Camera::GetViewSpace</text>
<text text-anchor="middle" x="852.5" y="-265" font-family="Roboto" font-size="10.00">Frustum</text>
</a>
</g>
</g>
<!-- Node1&#45;&gt;Node29 -->
<g id="edge14" class="edge">
<title>Node1&#45;&gt;Node29</title>
<path fill="none" stroke="#63b8ff" d="M998.95,-224.52C969.68,-234.27 930.13,-247.46 899.66,-257.61"/>
<polygon fill="#63b8ff" stroke="#63b8ff" points="999.8,-227.92 1008.18,-221.44 997.59,-221.28 999.8,-227.92"/>
</g>
<!-- Node31 -->
<g id="node15" class="node">
<title>Node31</title>
<g id="a_node15"><a xlink:href="class_urho3_d_1_1_view.html#afe8c414e896c0d06ee17ed18e5ce85dd" target="_top" xlink:title="Set camera&#45;specific shader parameters. Called by Batch and internally by View.">
<polygon fill="white" stroke="#666666" points="538,-250 377,-250 377,-220 538,-220 538,-250"/>
<text text-anchor="start" x="385" y="-238" font-family="Roboto" font-size="10.00">Urho3D::View::SetCameraShader</text>
<text text-anchor="middle" x="457.5" y="-227" font-family="Roboto" font-size="10.00">Parameters</text>
</a>
</g>
</g>
<!-- Node1&#45;&gt;Node31 -->
<g id="edge29" class="edge">
<title>Node1&#45;&gt;Node31</title>
<path fill="none" stroke="#63b8ff" d="M955.29,-214.48C843.53,-219.1 647.6,-227.19 538.17,-231.71"/>
<polygon fill="#63b8ff" stroke="#63b8ff" points="955.14,-217.99 964.99,-214.08 954.86,-210.99 955.14,-217.99"/>
</g>
<!-- Node32 -->
<g id="node16" class="node">
<title>Node32</title>
<g id="a_node16"><a xlink:href="struct_urho3_d_1_1_batch.html#ad8794a08ef43585f0c54aebf11f39e11" target="_top" xlink:title="Prepare for rendering.">
<polygon fill="white" stroke="#666666" points="314.5,-204.5 197.5,-204.5 197.5,-185.5 314.5,-185.5 314.5,-204.5"/>
<text text-anchor="middle" x="256" y="-192.5" font-family="Roboto" font-size="10.00">Urho3D::Batch::Prepare</text>
</a>
</g>
</g>
<!-- Node1&#45;&gt;Node32 -->
<g id="edge26" class="edge">
<title>Node1&#45;&gt;Node32</title>
<path fill="none" stroke="#63b8ff" d="M955.4,-209.28C795.54,-206.01 451.58,-198.98 314.81,-196.18"/>
<polygon fill="#63b8ff" stroke="#63b8ff" points="955,-212.77 965.07,-209.48 955.15,-205.77 955,-212.77"/>
</g>
<!-- Node37 -->
<g id="node19" class="node">
<title>Node37</title>
<g id="a_node19"><a xlink:href="class_urho3_d_1_1_camera.html#ab80937e50cbb6c26ee2b653d9bbd1a1e" target="_top" xlink:title="Return if projection parameters are valid for rendering and raycasting.">
<polygon fill="white" stroke="#666666" points="925.5,-164 779.5,-164 779.5,-134 925.5,-134 925.5,-164"/>
<text text-anchor="start" x="787.5" y="-152" font-family="Roboto" font-size="10.00">Urho3D::Camera::IsProjection</text>
<text text-anchor="middle" x="852.5" y="-141" font-family="Roboto" font-size="10.00">Valid</text>
</a>
</g>
</g>
<!-- Node1&#45;&gt;Node37 -->
<g id="edge22" class="edge">
<title>Node1&#45;&gt;Node37</title>
<path fill="none" stroke="#63b8ff" d="M998.95,-197.48C969.68,-187.73 930.13,-174.54 899.66,-164.39"/>
<polygon fill="#63b8ff" stroke="#63b8ff" points="997.59,-200.72 1008.18,-200.56 999.8,-194.08 997.59,-200.72"/>
</g>
<!-- Node40 -->
<g id="node22" class="node">
<title>Node40</title>
<g id="a_node22"><a xlink:href="class_urho3_d_1_1_camera.html#a8d093c3479b71a707f3ec8887380396a" target="_top" xlink:title="Convert normalized screen coordinates (0 &#45; 1) and distance along view Z axis (in Z coordinate) to a w...">
<polygon fill="white" stroke="#666666" points="525,-92 390,-92 390,-62 525,-62 525,-92"/>
<text text-anchor="start" x="398" y="-80" font-family="Roboto" font-size="10.00">Urho3D::Camera::ScreenTo</text>
<text text-anchor="middle" x="457.5" y="-69" font-family="Roboto" font-size="10.00">WorldPoint</text>
</a>
</g>
</g>
<!-- Node1&#45;&gt;Node40 -->
<g id="edge28" class="edge">
<title>Node1&#45;&gt;Node40</title>
<path fill="none" stroke="#63b8ff" d="M1030.47,-190.97C1015.15,-159.79 980.81,-100.76 931,-77 861.22,-43.71 638.02,-59.45 525.17,-70.06"/>
<polygon fill="#63b8ff" stroke="#63b8ff" points="1027.16,-192.17 1034.6,-199.72 1033.49,-189.18 1027.16,-192.17"/>
</g>
<!-- Node41 -->
<g id="node23" class="node">
<title>Node41</title>
<g id="a_node23"><a xlink:href="class_urho3_d_1_1_camera.html#a7135721d90b089309a667a16bd27a603" target="_top" xlink:title=" ">
<polygon fill="white" stroke="#666666" points="917.5,-116 787.5,-116 787.5,-86 917.5,-86 917.5,-116"/>
<text text-anchor="start" x="795.5" y="-104" font-family="Roboto" font-size="10.00">Urho3D::Camera::Register</text>
<text text-anchor="middle" x="852.5" y="-93" font-family="Roboto" font-size="10.00">Object</text>
</a>
</g>
</g>
<!-- Node1&#45;&gt;Node41 -->
<g id="edge27" class="edge">
<title>Node1&#45;&gt;Node41</title>
<path fill="none" stroke="#63b8ff" d="M1021.6,-193.32C1001.23,-174.07 966.19,-143.56 931,-125 924.9,-121.78 918.29,-118.91 911.59,-116.38"/>
<polygon fill="#63b8ff" stroke="#63b8ff" points="1018.92,-195.59 1028.55,-200 1023.77,-190.54 1018.92,-195.59"/>
</g>
<!-- Node42 -->
<g id="node24" class="node">
<title>Node42</title>
<g id="a_node24"><a xlink:href="class_urho3_d_1_1_view.html#a4d3766cb580e7a61b7ce50bc4e9aa926" target="_top" xlink:title="Set up initial shadow camera view(s).">
<polygon fill="white" stroke="#666666" points="923,-374 782,-374 782,-344 923,-344 923,-374"/>
<text text-anchor="start" x="790" y="-362" font-family="Roboto" font-size="10.00">Urho3D::View::SetupShadow</text>
<text text-anchor="middle" x="852.5" y="-351" font-family="Roboto" font-size="10.00">Cameras</text>
</a>
</g>
</g>
<!-- Node1&#45;&gt;Node42 -->
<g id="edge30" class="edge">
<title>Node1&#45;&gt;Node42</title>
<path fill="none" stroke="#63b8ff" d="M1026.73,-229.89C1008.35,-255.77 972.09,-302.2 931,-330 923.15,-335.31 914.19,-339.81 905.22,-343.57"/>
<polygon fill="#63b8ff" stroke="#63b8ff" points="1029.38,-232.21 1032.21,-222 1023.63,-228.21 1029.38,-232.21"/>
</g>
<!-- Node43 -->
<g id="node25" class="node">
<title>Node43</title>
<g id="a_node25"><a xlink:href="class_urho3_d_1_1_occlusion_buffer.html#a2540b689f2451b6358fd99717151fff6" target="_top" xlink:title="Set camera view to render from.">
<polygon fill="#fff0f0" stroke="red" points="915,-30 790,-30 790,0 915,0 915,-30"/>
<text text-anchor="start" x="798" y="-18" font-family="Roboto" font-size="10.00">Urho3D::OcclusionBuffer</text>
<text text-anchor="middle" x="852.5" y="-7" font-family="Roboto" font-size="10.00">::SetView</text>
</a>
</g>
</g>
<!-- Node1&#45;&gt;Node43 -->
<g id="edge32" class="edge">
<title>Node1&#45;&gt;Node43</title>
<path fill="none" stroke="#63b8ff" d="M1031.49,-190.9C1016.69,-156.19 981.87,-84.83 931,-44 924.28,-38.6 916.45,-34.15 908.4,-30.48"/>
<polygon fill="#63b8ff" stroke="#63b8ff" points="1028.1,-191.86 1035.16,-199.77 1034.57,-189.19 1028.1,-191.86"/>
</g>
<!-- Node3 -->
<g id="node3" class="node">
<title>Node3</title>
<g id="a_node3"><a xlink:href="class_urho3_d_1_1_camera.html#a35b2f97c4a3370a26b10ff133f86d2fa" target="_top" xlink:title="Visualize the component as debug geometry.">
<polygon fill="white" stroke="#666666" points="728,-555 584,-555 584,-525 728,-525 728,-555"/>
<text text-anchor="start" x="592" y="-543" font-family="Roboto" font-size="10.00">Urho3D::Camera::DrawDebug</text>
<text text-anchor="middle" x="656" y="-532" font-family="Roboto" font-size="10.00">Geometry</text>
</a>
</g>
</g>
<!-- Node2&#45;&gt;Node3 -->
<g id="edge2" class="edge">
<title>Node2&#45;&gt;Node3</title>
<path fill="none" stroke="#63b8ff" d="M795.25,-509.44C773.94,-514.15 749.43,-519.57 727.01,-524.52"/>
<polygon fill="#63b8ff" stroke="#63b8ff" points="795.9,-512.88 804.91,-507.3 794.39,-506.04 795.9,-512.88"/>
</g>
<!-- Node4 -->
<g id="node4" class="node">
<title>Node4</title>
<g id="a_node4"><a xlink:href="class_urho3_d_1_1_view.html#ae6b753dabd0921ef05ce5d73b75c6209" target="_top" xlink:title="Find and set a new zone for a drawable when it has moved.">
<polygon fill="white" stroke="#666666" points="717,-506.5 595,-506.5 595,-487.5 717,-487.5 717,-506.5"/>
<text text-anchor="middle" x="656" y="-494.5" font-family="Roboto" font-size="10.00">Urho3D::View::FindZone</text>
</a>
</g>
</g>
<!-- Node2&#45;&gt;Node4 -->
<g id="edge3" class="edge">
<title>Node2&#45;&gt;Node4</title>
<path fill="none" stroke="#63b8ff" d="M768,-497C750.99,-497 733.41,-497 717.39,-497"/>
<polygon fill="#63b8ff" stroke="#63b8ff" points="767.56,-500.5 777.56,-497 767.56,-493.5 767.56,-500.5"/>
</g>
<!-- Node5 -->
<g id="node5" class="node">
<title>Node5</title>
<g id="a_node5"><a xlink:href="class_urho3_d_1_1_view.html#a0cddca92d8a715b17404427840d201fb" target="_top" xlink:title="Query the octree for drawable objects.">
<polygon fill="#fff0f0" stroke="red" points="726.5,-451.5 585.5,-451.5 585.5,-432.5 726.5,-432.5 726.5,-451.5"/>
<text text-anchor="middle" x="656" y="-439.5" font-family="Roboto" font-size="10.00">Urho3D::View::GetDrawables</text>
</a>
</g>
</g>
<!-- Node2&#45;&gt;Node5 -->
<g id="edge4" class="edge">
<title>Node2&#45;&gt;Node5</title>
<path fill="none" stroke="#63b8ff" d="M805.49,-483.99C770.83,-474.19 724.02,-460.95 692.29,-451.98"/>
<polygon fill="#63b8ff" stroke="#63b8ff" points="804.25,-487.27 814.82,-486.63 806.15,-480.54 804.25,-487.27"/>
</g>
<!-- Node13 -->
<g id="node6" class="node">
<title>Node13</title>
<g id="a_node6"><a xlink:href="class_urho3_d_1_1_view.html#a8386e461553bac5a6b4512b8a9712e79" target="_top" xlink:title="Query for lit geometries and shadow casters for a light.">
<polygon fill="white" stroke="#666666" points="526,-408.5 389,-408.5 389,-389.5 526,-389.5 526,-408.5"/>
<text text-anchor="middle" x="457.5" y="-396.5" font-family="Roboto" font-size="10.00">Urho3D::View::ProcessLight</text>
</a>
</g>
</g>
<!-- Node2&#45;&gt;Node13 -->
<g id="edge6" class="edge">
<title>Node2&#45;&gt;Node13</title>
<path fill="none" stroke="#63b8ff" d="M839.51,-516.6C821.45,-544.01 784.38,-592.61 738,-612 670.75,-640.11 636.63,-649.28 574,-612 495.2,-565.09 466.85,-443.62 460.17,-408.59"/>
<polygon fill="#63b8ff" stroke="#63b8ff" points="842.44,-518.51 844.86,-508.2 836.54,-514.75 842.44,-518.51"/>
</g>
<!-- Node14 -->
<g id="node7" class="node">
<title>Node14</title>
<g id="a_node7"><a xlink:href="class_urho3_d_1_1_view.html#a7d398cea4906919b033f5fc86f67d764" target="_top" xlink:title="Process shadow casters&#39; visibilities and build their combined view&#45; or projection&#45;space bounding box.">
<polygon fill="white" stroke="#666666" points="732,-414 580,-414 580,-384 732,-384 732,-414"/>
<text text-anchor="start" x="588" y="-402" font-family="Roboto" font-size="10.00">Urho3D::View::ProcessShadow</text>
<text text-anchor="middle" x="656" y="-391" font-family="Roboto" font-size="10.00">Casters</text>
</a>
</g>
</g>
<!-- Node2&#45;&gt;Node14 -->
<g id="edge7" class="edge">
<title>Node2&#45;&gt;Node14</title>
<path fill="none" stroke="#63b8ff" d="M829.74,-480.44C807.63,-464.24 771.89,-439.77 738,-424 730.39,-420.46 722.16,-417.26 713.95,-414.42"/>
<polygon fill="#63b8ff" stroke="#63b8ff" points="827.56,-483.18 837.68,-486.34 831.74,-477.56 827.56,-483.18"/>
</g>
<!-- Node15 -->
<g id="node8" class="node">
<title>Node15</title>
<g id="a_node8"><a xlink:href="class_urho3_d_1_1_debug_renderer.html#a65ddc45de33de57b41a9889fdce2363c" target="_top" xlink:title="Set the camera viewpoint. Call before rendering, or before adding geometry if you want to use culling...">
<polygon fill="#fff0f0" stroke="red" points="717,-603 595,-603 595,-573 717,-573 717,-603"/>
<text text-anchor="start" x="603" y="-591" font-family="Roboto" font-size="10.00">Urho3D::DebugRenderer</text>
<text text-anchor="middle" x="656" y="-580" font-family="Roboto" font-size="10.00">::SetView</text>
</a>
</g>
</g>
<!-- Node2&#45;&gt;Node15 -->
<g id="edge9" class="edge">
<title>Node2&#45;&gt;Node15</title>
<path fill="none" stroke="#63b8ff" d="M828.1,-513.13C805.76,-527.96 770.75,-549.74 738,-564 730.87,-567.1 723.23,-569.95 715.58,-572.51"/>
<polygon fill="#63b8ff" stroke="#63b8ff" points="829.82,-516.19 836.16,-507.71 825.91,-510.39 829.82,-516.19"/>
</g>
<!-- Node5&#45;&gt;Node5 -->
<g id="edge5" class="edge">
<title>Node5&#45;&gt;Node5</title>
<path fill="none" stroke="#63b8ff" d="M691.56,-462.26C687.82,-466.47 675.97,-469.5 656,-469.5 621.46,-469.5 611.2,-460.44 625.24,-451.87"/>
<polygon fill="#63b8ff" stroke="#63b8ff" points="694.76,-460.86 687.4,-453.24 688.41,-463.79 694.76,-460.86"/>
</g>
<!-- Node14&#45;&gt;Node13 -->
<g id="edge8" class="edge">
<title>Node14&#45;&gt;Node13</title>
<path fill="none" stroke="#63b8ff" d="M568.38,-399C554.29,-399 539.87,-399 526.31,-399"/>
<polygon fill="#63b8ff" stroke="#63b8ff" points="568.08,-402.5 578.08,-399 568.08,-395.5 568.08,-402.5"/>
</g>
<!-- Node17 -->
<g id="node10" class="node">
<title>Node17</title>
<g id="a_node10"><a xlink:href="class_urho3_d_1_1_view.html#a9f5a7068310ea03c58673eb5add7db21" target="_top" xlink:title="Draw a fullscreen quad. Shaders and renderstates must have been set beforehand. Quad will be drawn to...">
<polygon fill="#fff0f0" stroke="red" points="341,-330.5 171,-330.5 171,-311.5 341,-311.5 341,-330.5"/>
<text text-anchor="middle" x="256" y="-318.5" font-family="Roboto" font-size="10.00">Urho3D::View::DrawFullscreenQuad</text>
</a>
</g>
</g>
<!-- Node16&#45;&gt;Node17 -->
<g id="edge11" class="edge">
<title>Node16&#45;&gt;Node17</title>
<path fill="none" stroke="#63b8ff" d="M375.8,-308.5C364.45,-309.69 352.77,-310.92 341.36,-312.12"/>
<polygon fill="#63b8ff" stroke="#63b8ff" points="375.92,-312 385.5,-307.47 375.19,-305.04 375.92,-312"/>
</g>
<!-- Node24 -->
<g id="node12" class="node">
<title>Node24</title>
<g id="a_node12"><a xlink:href="class_urho3_d_1_1_light.html#a3b3648ecb50a410286b5be3b9fa4ddfc" target="_top" xlink:title="Return light volume model transform.">
<polygon fill="#fff0f0" stroke="red" points="320.5,-293 191.5,-293 191.5,-263 320.5,-263 320.5,-293"/>
<text text-anchor="start" x="199.5" y="-281" font-family="Roboto" font-size="10.00">Urho3D::Light::GetVolume</text>
<text text-anchor="middle" x="256" y="-270" font-family="Roboto" font-size="10.00">Transform</text>
</a>
</g>
</g>
<!-- Node16&#45;&gt;Node24 -->
<g id="edge13" class="edge">
<title>Node16&#45;&gt;Node24</title>
<path fill="none" stroke="#63b8ff" d="M375.77,-291.1C357.51,-289.08 338.36,-286.97 320.9,-285.05"/>
<polygon fill="#63b8ff" stroke="#63b8ff" points="375.18,-294.55 385.5,-292.17 375.94,-287.6 375.18,-294.55"/>
</g>
<!-- Node23 -->
<g id="node11" class="node">
<title>Node23</title>
<g id="a_node11"><a xlink:href="class_urho3_d_1_1_view.html#a798fe80282652472bd0fb2c0694bbfb8" target="_top" xlink:title="Perform a quad rendering command.">
<polygon fill="#fff0f0" stroke="red" points="135,-298.5 0,-298.5 0,-279.5 135,-279.5 135,-298.5"/>
<text text-anchor="middle" x="67.5" y="-286.5" font-family="Roboto" font-size="10.00">Urho3D::View::RenderQuad</text>
</a>
</g>
</g>
<!-- Node17&#45;&gt;Node23 -->
<g id="edge12" class="edge">
<title>Node17&#45;&gt;Node23</title>
<path fill="none" stroke="#63b8ff" d="M185.54,-309.08C166.15,-305.75 145.28,-302.17 126.62,-298.97"/>
<polygon fill="#63b8ff" stroke="#63b8ff" points="184.82,-312.51 195.27,-310.75 186,-305.61 184.82,-312.51"/>
</g>
<!-- Node30 -->
<g id="node14" class="node">
<title>Node30</title>
<g id="a_node14"><a xlink:href="class_urho3_d_1_1_camera.html#a2f9539871c9224f9482a3ac26e059351" target="_top" xlink:title="Return frustum near and far sizes.">
<polygon fill="white" stroke="#666666" points="738,-282.5 574,-282.5 574,-263.5 738,-263.5 738,-282.5"/>
<text text-anchor="middle" x="656" y="-270.5" font-family="Roboto" font-size="10.00">Urho3D::Camera::GetFrustumSize</text>
</a>
</g>
</g>
<!-- Node29&#45;&gt;Node30 -->
<g id="edge15" class="edge">
<title>Node29&#45;&gt;Node30</title>
<path fill="none" stroke="#63b8ff" d="M762.24,-273C754.22,-273 746.13,-273 738.19,-273"/>
<polygon fill="#63b8ff" stroke="#63b8ff" points="762,-276.5 772,-273 762,-269.5 762,-276.5"/>
</g>
<!-- Node30&#45;&gt;Node16 -->
<g id="edge16" class="edge">
<title>Node30&#45;&gt;Node16</title>
<path fill="none" stroke="#63b8ff" d="M571.4,-284.49C556.89,-286.48 541.95,-288.53 527.87,-290.47"/>
<polygon fill="#63b8ff" stroke="#63b8ff" points="571.46,-288.01 580.89,-283.18 570.51,-281.08 571.46,-288.01"/>
</g>
<!-- Node30&#45;&gt;Node31 -->
<g id="edge17" class="edge">
<title>Node30&#45;&gt;Node31</title>
<path fill="none" stroke="#63b8ff" d="M592.35,-260.88C575.17,-257.56 556.31,-253.91 538.3,-250.43"/>
<polygon fill="#63b8ff" stroke="#63b8ff" points="591.4,-264.27 601.89,-262.73 592.73,-257.39 591.4,-264.27"/>
</g>
<!-- Node31&#45;&gt;Node23 -->
<g id="edge21" class="edge">
<title>Node31&#45;&gt;Node23</title>
<path fill="none" stroke="#63b8ff" d="M365.28,-235C308.83,-236.49 235.14,-241.15 171,-254 142.97,-259.62 112.09,-270.9 91.63,-279.14"/>
<polygon fill="#63b8ff" stroke="#63b8ff" points="365.26,-238.5 375.18,-234.77 365.1,-231.5 365.26,-238.5"/>
</g>
<!-- Node31&#45;&gt;Node32 -->
<g id="edge18" class="edge">
<title>Node31&#45;&gt;Node32</title>
<path fill="none" stroke="#63b8ff" d="M368.13,-217.28C347.13,-213.07 325.45,-208.72 306.87,-205"/>
<polygon fill="#63b8ff" stroke="#63b8ff" points="367.39,-220.7 377.88,-219.24 368.77,-213.84 367.39,-220.7"/>
</g>
<!-- Node33 -->
<g id="node17" class="node">
<title>Node33</title>
<g id="a_node17"><a xlink:href="struct_urho3_d_1_1_batch.html#add3a46f1fc8c0dd490d0cc965bec2e5b" target="_top" xlink:title="Prepare and draw.">
<polygon fill="#fff0f0" stroke="red" points="121,-183.5 14,-183.5 14,-164.5 121,-164.5 121,-183.5"/>
<text text-anchor="middle" x="67.5" y="-171.5" font-family="Roboto" font-size="10.00">Urho3D::Batch::Draw</text>
</a>
</g>
</g>
<!-- Node32&#45;&gt;Node33 -->
<g id="edge19" class="edge">
<title>Node32&#45;&gt;Node33</title>
<path fill="none" stroke="#63b8ff" d="M185.74,-187.2C164.45,-184.8 141.38,-182.21 121.38,-179.95"/>
<polygon fill="#63b8ff" stroke="#63b8ff" points="185.18,-190.66 195.51,-188.3 185.96,-183.7 185.18,-190.66"/>
</g>
<!-- Node36 -->
<g id="node18" class="node">
<title>Node36</title>
<g id="a_node18"><a xlink:href="struct_urho3_d_1_1_batch_group.html#ae44c18517fde1462221ddc7c7a1b2cd4" target="_top" xlink:title="Prepare and draw.">
<polygon fill="#fff0f0" stroke="red" points="120.5,-232 14.5,-232 14.5,-202 120.5,-202 120.5,-232"/>
<text text-anchor="start" x="22.5" y="-220" font-family="Roboto" font-size="10.00">Urho3D::BatchGroup</text>
<text text-anchor="middle" x="67.5" y="-209" font-family="Roboto" font-size="10.00">::Draw</text>
</a>
</g>
</g>
<!-- Node32&#45;&gt;Node36 -->
<g id="edge20" class="edge">
<title>Node32&#45;&gt;Node36</title>
<path fill="none" stroke="#63b8ff" d="M185.64,-203.18C164.16,-205.72 140.87,-208.46 120.75,-210.84"/>
<polygon fill="#63b8ff" stroke="#63b8ff" points="185.99,-206.67 195.51,-202.02 185.17,-199.71 185.99,-206.67"/>
</g>
<!-- Node38 -->
<g id="node20" class="node">
<title>Node38</title>
<g id="a_node20"><a xlink:href="class_urho3_d_1_1_view.html#a38bd2f1292778c57fae949c4e271c20d" target="_top" xlink:title="Define with rendertarget and viewport. Return true if successful.">
<polygon fill="#fff0f0" stroke="red" points="710,-158.5 602,-158.5 602,-139.5 710,-139.5 710,-158.5"/>
<text text-anchor="middle" x="656" y="-146.5" font-family="Roboto" font-size="10.00">Urho3D::View::Define</text>
</a>
</g>
</g>
<!-- Node37&#45;&gt;Node38 -->
<g id="edge23" class="edge">
<title>Node37&#45;&gt;Node38</title>
<path fill="none" stroke="#63b8ff" d="M767.73,-149C748.26,-149 728.07,-149 710.34,-149"/>
<polygon fill="#63b8ff" stroke="#63b8ff" points="767.56,-152.5 777.56,-149 767.56,-145.5 767.56,-152.5"/>
</g>
<!-- Node39 -->
<g id="node21" class="node">
<title>Node39</title>
<g id="a_node21"><a xlink:href="class_urho3_d_1_1_camera.html#a653cf41d95901dc68abdc463b4b3d5fc" target="_top" xlink:title="Return ray corresponding to normalized screen coordinates (0 &#45; 1), with origin on the near clip plane...">
<polygon fill="white" stroke="#666666" points="733.5,-113.5 578.5,-113.5 578.5,-94.5 733.5,-94.5 733.5,-113.5"/>
<text text-anchor="middle" x="656" y="-101.5" font-family="Roboto" font-size="10.00">Urho3D::Camera::GetScreenRay</text>
</a>
</g>
</g>
<!-- Node37&#45;&gt;Node39 -->
<g id="edge24" class="edge">
<title>Node37&#45;&gt;Node39</title>
<path fill="none" stroke="#63b8ff" d="M773.56,-130.97C748.47,-125.16 721.59,-118.94 699.98,-113.94"/>
<polygon fill="#63b8ff" stroke="#63b8ff" points="772.56,-134.33 783.09,-133.17 774.14,-127.51 772.56,-134.33"/>
</g>
<!-- Node39&#45;&gt;Node40 -->
<g id="edge25" class="edge">
<title>Node39&#45;&gt;Node40</title>
<path fill="none" stroke="#63b8ff" d="M571.3,-92.5C555.93,-90.39 540.08,-88.21 525.28,-86.18"/>
<polygon fill="#63b8ff" stroke="#63b8ff" points="570.51,-95.92 580.89,-93.82 571.46,-88.99 570.51,-95.92"/>
</g>
<!-- Node42&#45;&gt;Node13 -->
<g id="edge31" class="edge">
<title>Node42&#45;&gt;Node13</title>
<path fill="none" stroke="#63b8ff" d="M770.48,-360.53C714.98,-362.34 639.8,-366.32 574,-375 548.92,-378.31 521.16,-384.01 499.14,-389.03"/>
<polygon fill="#63b8ff" stroke="#63b8ff" points="770.27,-364.04 780.15,-360.23 770.05,-357.04 770.27,-364.04"/>
</g>
</g>
</svg>
