<?xml version="1.0" encoding="UTF-8" standalone="no"?>
<!DOCTYPE svg PUBLIC "-//W3C//DTD SVG 1.1//EN"
 "http://www.w3.org/Graphics/SVG/1.1/DTD/svg11.dtd">
<!-- Generated by graphviz version 7.0.3 (0)
 -->
<!-- Title: Urho3D::Pass::SetIsDesktop Pages: 1 -->
<svg width="428pt" height="86pt"
 viewBox="0.00 0.00 428.00 86.00" xmlns="http://www.w3.org/2000/svg" xmlns:xlink="http://www.w3.org/1999/xlink">
<g id="graph0" class="graph" transform="scale(1 1) rotate(0) translate(4 82)">
<title>Urho3D::Pass::SetIsDesktop</title>
<!-- Node1 -->
<g id="node1" class="node">
<title>Node1</title>
<g id="a_node1"><a xlink:title=" ">
<polygon fill="#999999" stroke="#666666" points="420,-48.5 280,-48.5 280,-29.5 420,-29.5 420,-48.5"/>
<text text-anchor="middle" x="350" y="-36.5" font-family="Roboto" font-size="10.00">Urho3D::Pass::SetIsDesktop</text>
</a>
</g>
</g>
<!-- Node2 -->
<g id="node2" class="node">
<title>Node2</title>
<g id="a_node2"><a xlink:href="class_urho3_d_1_1_technique.html#a4760819cb750bd6c268ae6456df3493a" target="_top" xlink:title="Load resource from stream. May be called from a worker thread. Return true if successful.">
<polygon fill="white" stroke="#666666" points="244,-78 140,-78 140,-48 244,-48 244,-78"/>
<text text-anchor="start" x="148" y="-66" font-family="Roboto" font-size="10.00">Urho3D::Technique::</text>
<text text-anchor="middle" x="192" y="-55" font-family="Roboto" font-size="10.00">BeginLoad</text>
</a>
</g>
</g>
<!-- Node1&#45;&gt;Node2 -->
<g id="edge1" class="edge">
<title>Node1&#45;&gt;Node2</title>
<path fill="none" stroke="#63b8ff" d="M273.12,-50.67C263.27,-52.19 253.37,-53.71 244.05,-55.15"/>
<polygon fill="#63b8ff" stroke="#63b8ff" points="273.35,-54.18 282.7,-49.2 272.29,-47.26 273.35,-54.18"/>
</g>
<!-- Node3 -->
<g id="node3" class="node">
<title>Node3</title>
<g id="a_node3"><a xlink:href="class_urho3_d_1_1_technique.html#a990878e219ce61207b380ab0bdf13aca" target="_top" xlink:title="Clone the technique. Passes will be deep copied to allow independent modification.">
<polygon fill="white" stroke="#666666" points="244,-30 140,-30 140,0 244,0 244,-30"/>
<text text-anchor="start" x="148" y="-18" font-family="Roboto" font-size="10.00">Urho3D::Technique::</text>
<text text-anchor="middle" x="192" y="-7" font-family="Roboto" font-size="10.00">Clone</text>
</a>
</g>
</g>
<!-- Node1&#45;&gt;Node3 -->
<g id="edge2" class="edge">
<title>Node1&#45;&gt;Node3</title>
<path fill="none" stroke="#63b8ff" d="M273.12,-27.33C263.27,-25.81 253.37,-24.29 244.05,-22.85"/>
<polygon fill="#63b8ff" stroke="#63b8ff" points="272.29,-30.74 282.7,-28.8 273.35,-23.82 272.29,-30.74"/>
</g>
<!-- Node4 -->
<g id="node4" class="node">
<title>Node4</title>
<g id="a_node4"><a xlink:href="class_urho3_d_1_1_technique.html#a06c3bc21df26728f23a7ccd81eba8765" target="_top" xlink:title="Return a clone with added shader compilation defines. Called internally by Material.">
<polygon fill="white" stroke="#666666" points="104,-30 0,-30 0,0 104,0 104,-30"/>
<text text-anchor="start" x="8" y="-18" font-family="Roboto" font-size="10.00">Urho3D::Technique::</text>
<text text-anchor="middle" x="52" y="-7" font-family="Roboto" font-size="10.00">CloneWithDefines</text>
</a>
</g>
</g>
<!-- Node3&#45;&gt;Node4 -->
<g id="edge3" class="edge">
<title>Node3&#45;&gt;Node4</title>
<path fill="none" stroke="#63b8ff" d="M128.12,-15C120.19,-15 112.15,-15 104.43,-15"/>
<polygon fill="#63b8ff" stroke="#63b8ff" points="128.1,-18.5 138.1,-15 128.1,-11.5 128.1,-18.5"/>
</g>
</g>
</svg>
