<?xml version="1.0" encoding="UTF-8" standalone="no"?>
<!DOCTYPE svg PUBLIC "-//W3C//DTD SVG 1.1//EN"
 "http://www.w3.org/Graphics/SVG/1.1/DTD/svg11.dtd">
<!-- Generated by graphviz version 7.0.3 (0)
 -->
<!-- Title: Urho3D::Connection::SetScene Pages: 1 -->
<svg width="773pt" height="629pt"
 viewBox="0.00 0.00 773.00 629.00" xmlns="http://www.w3.org/2000/svg" xmlns:xlink="http://www.w3.org/1999/xlink">
<g id="graph0" class="graph" transform="scale(1 1) rotate(0) translate(4 625)">
<title>Urho3D::Connection::SetScene</title>
<!-- Node1 -->
<g id="node1" class="node">
<title>Node1</title>
<g id="a_node1"><a xlink:title=" ">
<polygon fill="#999999" stroke="#666666" points="105,-397 0,-397 0,-367 105,-367 105,-397"/>
<text text-anchor="start" x="8" y="-385" font-family="Roboto" font-size="10.00">Urho3D::Connection</text>
<text text-anchor="middle" x="52.5" y="-374" font-family="Roboto" font-size="10.00">::SetScene</text>
</a>
</g>
</g>
<!-- Node2 -->
<g id="node2" class="node">
<title>Node2</title>
<g id="a_node2"><a xlink:href="class_urho3_d_1_1_vector_buffer.html#a870baf1a9abdbde6ed2973ef5aad0c28" target="_top" xlink:title="Reset to zero size.">
<polygon fill="white" stroke="#666666" points="451,-621 340,-621 340,-591 451,-591 451,-621"/>
<text text-anchor="start" x="348" y="-609" font-family="Roboto" font-size="10.00">Urho3D::VectorBuffer</text>
<text text-anchor="middle" x="395.5" y="-598" font-family="Roboto" font-size="10.00">::Clear</text>
</a>
</g>
</g>
<!-- Node1&#45;&gt;Node2 -->
<g id="edge1" class="edge">
<title>Node1&#45;&gt;Node2</title>
<path fill="none" stroke="#63b8ff" d="M57.91,-397.08C67.65,-427.69 93.95,-497.29 141,-534 195.22,-576.3 273.16,-593.75 328.27,-600.95"/>
<polygon fill="#63b8ff" stroke="#63b8ff" points="327.82,-604.42 338.17,-602.15 328.67,-597.47 327.82,-604.42"/>
</g>
<!-- Node7 -->
<g id="node5" class="node">
<title>Node7</title>
<g id="a_node5"><a xlink:href="class_urho3_d_1_1_connection.html#ab695e0ee59fe70881379ea33100d3b07" target="_top" xlink:title="Handle scene loaded event.">
<polygon fill="white" stroke="#666666" points="281.5,-525 142.5,-525 142.5,-495 281.5,-495 281.5,-525"/>
<text text-anchor="start" x="150.5" y="-513" font-family="Roboto" font-size="10.00">Urho3D::Connection</text>
<text text-anchor="middle" x="212" y="-502" font-family="Roboto" font-size="10.00">::HandleAsyncLoadFinished</text>
</a>
</g>
</g>
<!-- Node1&#45;&gt;Node7 -->
<g id="edge4" class="edge">
<title>Node1&#45;&gt;Node7</title>
<path fill="none" stroke="#63b8ff" d="M64.07,-397.28C79.11,-418.1 108.49,-455.45 141,-479 146.31,-482.85 152.17,-486.36 158.18,-489.53"/>
<polygon fill="#63b8ff" stroke="#63b8ff" points="156.47,-492.59 166.99,-493.86 159.56,-486.31 156.47,-492.59"/>
</g>
<!-- Node8 -->
<g id="node6" class="node">
<title>Node8</title>
<g id="a_node6"><a xlink:href="class_urho3_d_1_1_connection.html#a8d0d9d3817c2eec4a0a1ca465c63b371" target="_top" xlink:title="Send a message.">
<polygon fill="white" stroke="#666666" points="448,-555 343,-555 343,-525 448,-525 448,-555"/>
<text text-anchor="start" x="351" y="-543" font-family="Roboto" font-size="10.00">Urho3D::Connection</text>
<text text-anchor="middle" x="395.5" y="-532" font-family="Roboto" font-size="10.00">::SendMessage</text>
</a>
</g>
</g>
<!-- Node1&#45;&gt;Node8 -->
<g id="edge12" class="edge">
<title>Node1&#45;&gt;Node8</title>
<path fill="none" stroke="#63b8ff" d="M79.47,-397.37C96.65,-407.26 119.82,-420.06 141,-430 202.42,-458.82 224.64,-451.4 283,-486 300.92,-496.62 300.73,-505.99 319,-516 323.14,-518.27 327.52,-520.36 332.02,-522.28"/>
<polygon fill="#63b8ff" stroke="#63b8ff" points="330.63,-525.5 341.22,-525.9 333.19,-518.98 330.63,-525.5"/>
</g>
<!-- Node13 -->
<g id="node11" class="node">
<title>Node13</title>
<g id="a_node11"><a xlink:href="class_urho3_d_1_1_vector.html#a5da7101c355895f41098fcf875e4c56a" target="_top" xlink:title="Return size of vector.">
<polygon fill="white" stroke="#666666" points="265.5,-324.5 158.5,-324.5 158.5,-305.5 265.5,-305.5 265.5,-324.5"/>
<text text-anchor="middle" x="212" y="-312.5" font-family="Roboto" font-size="10.00">Urho3D::Vector::Size</text>
</a>
</g>
</g>
<!-- Node1&#45;&gt;Node13 -->
<g id="edge13" class="edge">
<title>Node1&#45;&gt;Node13</title>
<path fill="none" stroke="#63b8ff" d="M78,-366.51C95.13,-356.19 118.83,-342.94 141,-334 146.2,-331.9 151.7,-329.96 157.25,-328.19"/>
<polygon fill="#63b8ff" stroke="#63b8ff" points="157.89,-331.65 166.45,-325.41 155.87,-324.95 157.89,-331.65"/>
</g>
<!-- Node14 -->
<g id="node12" class="node">
<title>Node14</title>
<g id="a_node12"><a xlink:href="class_urho3_d_1_1_object.html#a7d9d061f4cf32f5fd5531e11a72834b6" target="_top" xlink:title="Subscribe to an event that can be sent by any sender.">
<polygon fill="white" stroke="#666666" points="277.5,-236 146.5,-236 146.5,-206 277.5,-206 277.5,-236"/>
<text text-anchor="start" x="154.5" y="-224" font-family="Roboto" font-size="10.00">Urho3D::Object::Subscribe</text>
<text text-anchor="middle" x="212" y="-213" font-family="Roboto" font-size="10.00">ToEvent</text>
</a>
</g>
</g>
<!-- Node1&#45;&gt;Node14 -->
<g id="edge14" class="edge">
<title>Node1&#45;&gt;Node14</title>
<path fill="none" stroke="#63b8ff" d="M68.6,-366.56C96.43,-338.12 155.91,-277.31 188.5,-244"/>
<polygon fill="#63b8ff" stroke="#63b8ff" points="190.62,-246.83 195.12,-237.24 185.62,-241.94 190.62,-246.83"/>
</g>
<!-- Node19 -->
<g id="node17" class="node">
<title>Node19</title>
<g id="a_node17"><a xlink:href="class_urho3_d_1_1_object.html#a153b96c4397e045b2ca2b2d5471d097c" target="_top" xlink:title="Unsubscribe from an event.">
<polygon fill="white" stroke="#666666" points="283,-100 141,-100 141,-70 283,-70 283,-100"/>
<text text-anchor="start" x="149" y="-88" font-family="Roboto" font-size="10.00">Urho3D::Object::Unsubscribe</text>
<text text-anchor="middle" x="212" y="-77" font-family="Roboto" font-size="10.00">FromEvent</text>
</a>
</g>
</g>
<!-- Node1&#45;&gt;Node19 -->
<g id="edge19" class="edge">
<title>Node1&#45;&gt;Node19</title>
<path fill="none" stroke="#63b8ff" d="M59.95,-366.84C73.71,-334.86 107.43,-258.42 141,-197 157.88,-166.12 179.68,-132 194.44,-109.64"/>
<polygon fill="#63b8ff" stroke="#63b8ff" points="197.22,-111.77 199.84,-101.5 191.39,-107.9 197.22,-111.77"/>
</g>
<!-- Node33 -->
<g id="node21" class="node">
<title>Node33</title>
<g id="a_node21"><a xlink:href="class_urho3_d_1_1_serializer.html#a51c8222e9c2f0ce9deac7298ab0189c6" target="_top" xlink:title="Write a null&#45;terminated string.">
<polygon fill="white" stroke="#666666" points="260,-373 164,-373 164,-343 260,-343 260,-373"/>
<text text-anchor="start" x="172" y="-361" font-family="Roboto" font-size="10.00">Urho3D::Serializer</text>
<text text-anchor="middle" x="212" y="-350" font-family="Roboto" font-size="10.00">::WriteString</text>
</a>
</g>
</g>
<!-- Node1&#45;&gt;Node33 -->
<g id="edge24" class="edge">
<title>Node1&#45;&gt;Node33</title>
<path fill="none" stroke="#63b8ff" d="M105.07,-374.14C120.23,-371.83 136.92,-369.29 152.48,-366.92"/>
<polygon fill="#63b8ff" stroke="#63b8ff" points="152.72,-370.42 162.08,-365.45 151.67,-363.5 152.72,-370.42"/>
</g>
<!-- Node36 -->
<g id="node24" class="node">
<title>Node36</title>
<g id="a_node24"><a xlink:href="class_urho3_d_1_1_serializer.html#ae4429a6ec1f94508037c2d21430d2124" target="_top" xlink:title="Write a variable&#45;length encoded unsigned integer, which can use 29 bits maximum.">
<polygon fill="white" stroke="#666666" points="260,-421 164,-421 164,-391 260,-391 260,-421"/>
<text text-anchor="start" x="172" y="-409" font-family="Roboto" font-size="10.00">Urho3D::Serializer</text>
<text text-anchor="middle" x="212" y="-398" font-family="Roboto" font-size="10.00">::WriteVLE</text>
</a>
</g>
</g>
<!-- Node1&#45;&gt;Node36 -->
<g id="edge28" class="edge">
<title>Node1&#45;&gt;Node36</title>
<path fill="none" stroke="#63b8ff" d="M105.07,-389.86C120.23,-392.17 136.92,-394.71 152.48,-397.08"/>
<polygon fill="#63b8ff" stroke="#63b8ff" points="151.67,-400.5 162.08,-398.55 152.72,-393.58 151.67,-400.5"/>
</g>
<!-- Node3 -->
<g id="node3" class="node">
<title>Node3</title>
<g id="a_node3"><a xlink:href="class_urho3_d_1_1_p_o_d_vector.html#a56e61cb5b8216360fd62b20eb78b5faf" target="_top" xlink:title="Clear the vector.">
<polygon fill="white" stroke="#666666" points="618.5,-621 510.5,-621 510.5,-591 618.5,-591 618.5,-621"/>
<text text-anchor="start" x="518.5" y="-609" font-family="Roboto" font-size="10.00">Urho3D::PODVector::</text>
<text text-anchor="middle" x="564.5" y="-598" font-family="Roboto" font-size="10.00">Clear</text>
</a>
</g>
</g>
<!-- Node2&#45;&gt;Node3 -->
<g id="edge2" class="edge">
<title>Node2&#45;&gt;Node3</title>
<path fill="none" stroke="#63b8ff" d="M451.18,-606C466.41,-606 483.11,-606 498.85,-606"/>
<polygon fill="#63b8ff" stroke="#63b8ff" points="498.6,-609.5 508.6,-606 498.6,-602.5 498.6,-609.5"/>
</g>
<!-- Node4 -->
<g id="node4" class="node">
<title>Node4</title>
<g id="a_node4"><a xlink:href="class_urho3_d_1_1_p_o_d_vector.html#a90931bab46c47be9f1989f4ec86bd487" target="_top" xlink:title="Resize the vector.">
<polygon fill="#fff0f0" stroke="red" points="765,-621 657,-621 657,-591 765,-591 765,-621"/>
<text text-anchor="start" x="665" y="-609" font-family="Roboto" font-size="10.00">Urho3D::PODVector::</text>
<text text-anchor="middle" x="711" y="-598" font-family="Roboto" font-size="10.00">Resize</text>
</a>
</g>
</g>
<!-- Node3&#45;&gt;Node4 -->
<g id="edge3" class="edge">
<title>Node3&#45;&gt;Node4</title>
<path fill="none" stroke="#63b8ff" d="M618.9,-606C627.5,-606 636.5,-606 645.34,-606"/>
<polygon fill="#63b8ff" stroke="#63b8ff" points="645.31,-609.5 655.31,-606 645.31,-602.5 645.31,-609.5"/>
</g>
<!-- Node7&#45;&gt;Node2 -->
<g id="edge5" class="edge">
<title>Node7&#45;&gt;Node2</title>
<path fill="none" stroke="#63b8ff" d="M231.89,-525.33C252.33,-541.3 286.38,-566.15 319,-582 322.28,-583.59 325.69,-585.11 329.16,-586.56"/>
<polygon fill="#63b8ff" stroke="#63b8ff" points="327.74,-589.76 338.33,-590.12 330.27,-583.23 327.74,-589.76"/>
</g>
<!-- Node7&#45;&gt;Node8 -->
<g id="edge6" class="edge">
<title>Node7&#45;&gt;Node8</title>
<path fill="none" stroke="#63b8ff" d="M281.88,-521.38C298.25,-524.09 315.64,-526.97 331.73,-529.62"/>
<polygon fill="#63b8ff" stroke="#63b8ff" points="330.7,-533 341.14,-531.18 331.84,-526.1 330.7,-533"/>
</g>
<!-- Node11 -->
<g id="node9" class="node">
<title>Node11</title>
<g id="a_node9"><a xlink:href="class_urho3_d_1_1_serializer.html#aca5302ccd24e73a82da4aecee5343e4b" target="_top" xlink:title="Write a 32&#45;bit unsigned integer.">
<polygon fill="white" stroke="#666666" points="443.5,-507 347.5,-507 347.5,-477 443.5,-477 443.5,-507"/>
<text text-anchor="start" x="355.5" y="-495" font-family="Roboto" font-size="10.00">Urho3D::Serializer</text>
<text text-anchor="middle" x="395.5" y="-484" font-family="Roboto" font-size="10.00">::WriteUInt</text>
</a>
</g>
</g>
<!-- Node7&#45;&gt;Node11 -->
<g id="edge10" class="edge">
<title>Node7&#45;&gt;Node11</title>
<path fill="none" stroke="#63b8ff" d="M281.88,-503.17C299.73,-501.4 318.78,-499.51 336.04,-497.8"/>
<polygon fill="#63b8ff" stroke="#63b8ff" points="335.98,-501.32 345.59,-496.85 335.29,-494.36 335.98,-501.32"/>
</g>
<!-- Node8&#45;&gt;Node8 -->
<g id="edge9" class="edge">
<title>Node8&#45;&gt;Node8</title>
<path fill="none" stroke="#63b8ff" d="M365.79,-555.28C359.19,-564.41 369.09,-573 395.5,-573 409.94,-573 419.45,-570.43 424.02,-566.61"/>
<polygon fill="#63b8ff" stroke="#63b8ff" points="427.48,-567.09 425.05,-556.78 420.52,-566.36 427.48,-567.09"/>
</g>
<!-- Node9 -->
<g id="node7" class="node">
<title>Node9</title>
<g id="a_node7"><a xlink:href="class_urho3_d_1_1_vector_buffer.html#a4cc191d35ae83c7735df915e562965e4" target="_top" xlink:title="Return data.">
<polygon fill="white" stroke="#666666" points="620,-564 509,-564 509,-534 620,-534 620,-564"/>
<text text-anchor="start" x="517" y="-552" font-family="Roboto" font-size="10.00">Urho3D::VectorBuffer</text>
<text text-anchor="middle" x="564.5" y="-541" font-family="Roboto" font-size="10.00">::GetData</text>
</a>
</g>
</g>
<!-- Node8&#45;&gt;Node9 -->
<g id="edge7" class="edge">
<title>Node8&#45;&gt;Node9</title>
<path fill="none" stroke="#63b8ff" d="M448.42,-542.8C463.98,-543.64 481.26,-544.57 497.59,-545.45"/>
<polygon fill="#63b8ff" stroke="#63b8ff" points="497.03,-548.92 507.21,-545.97 497.41,-541.93 497.03,-548.92"/>
</g>
<!-- Node10 -->
<g id="node8" class="node">
<title>Node10</title>
<g id="a_node8"><a xlink:href="class_urho3_d_1_1_deserializer.html#a29f095da2db6cf9e4c7e76365341466e" target="_top" xlink:title=" ">
<polygon fill="white" stroke="#666666" points="618,-516 511,-516 511,-486 618,-486 618,-516"/>
<text text-anchor="start" x="519" y="-504" font-family="Roboto" font-size="10.00">Urho3D::Deserializer</text>
<text text-anchor="middle" x="564.5" y="-493" font-family="Roboto" font-size="10.00">::GetSize</text>
</a>
</g>
</g>
<!-- Node8&#45;&gt;Node10 -->
<g id="edge8" class="edge">
<title>Node8&#45;&gt;Node10</title>
<path fill="none" stroke="#63b8ff" d="M448.42,-527.87C464.68,-524.08 482.81,-519.84 499.79,-515.88"/>
<polygon fill="#63b8ff" stroke="#63b8ff" points="500.33,-519.35 509.27,-513.66 498.74,-512.53 500.33,-519.35"/>
</g>
<!-- Node12 -->
<g id="node10" class="node">
<title>Node12</title>
<g id="a_node10"><a xlink:href="class_urho3_d_1_1_serializer.html#af1212487507dad99d9f389f9c8b48a60" target="_top" xlink:title="Write bytes to the stream. Return number of bytes actually written.">
<polygon fill="white" stroke="#666666" points="612.5,-437 516.5,-437 516.5,-407 612.5,-407 612.5,-437"/>
<text text-anchor="start" x="524.5" y="-425" font-family="Roboto" font-size="10.00">Urho3D::Serializer</text>
<text text-anchor="middle" x="564.5" y="-414" font-family="Roboto" font-size="10.00">::Write</text>
</a>
</g>
</g>
<!-- Node11&#45;&gt;Node12 -->
<g id="edge11" class="edge">
<title>Node11&#45;&gt;Node12</title>
<path fill="none" stroke="#63b8ff" d="M443.63,-478.29C453.12,-475.17 462.96,-471.68 472,-468 489.96,-460.68 509.24,-451.25 525.44,-442.83"/>
<polygon fill="#63b8ff" stroke="#63b8ff" points="527.04,-445.94 534.26,-438.18 523.78,-439.75 527.04,-445.94"/>
</g>
<!-- Node15 -->
<g id="node13" class="node">
<title>Node15</title>
<g id="a_node13"><a xlink:href="class_urho3_d_1_1_context.html#ae3e0c5db85e2395f3d34941003c816ad" target="_top" xlink:title="Add event receiver.">
<polygon fill="white" stroke="#666666" points="463.5,-260 327.5,-260 327.5,-230 463.5,-230 463.5,-260"/>
<text text-anchor="start" x="335.5" y="-248" font-family="Roboto" font-size="10.00">Urho3D::Context::AddEvent</text>
<text text-anchor="middle" x="395.5" y="-237" font-family="Roboto" font-size="10.00">Receiver</text>
</a>
</g>
</g>
<!-- Node14&#45;&gt;Node15 -->
<g id="edge15" class="edge">
<title>Node14&#45;&gt;Node15</title>
<path fill="none" stroke="#63b8ff" d="M277.76,-229.56C290.12,-231.2 303.18,-232.93 315.92,-234.61"/>
<polygon fill="#63b8ff" stroke="#63b8ff" points="315.14,-238.04 325.51,-235.88 316.05,-231.1 315.14,-238.04"/>
</g>
<!-- Node16 -->
<g id="node14" class="node">
<title>Node16</title>
<g id="a_node14"><a xlink:href="class_urho3_d_1_1_object.html#ad9d3702ab78a9d8a8ddad6aae7144abb" target="_top" xlink:title="Find the first event handler with specific sender.">
<polygon fill="white" stroke="#666666" points="465.5,-212 325.5,-212 325.5,-182 465.5,-182 465.5,-212"/>
<text text-anchor="start" x="333.5" y="-200" font-family="Roboto" font-size="10.00">Urho3D::Object::FindSpecific</text>
<text text-anchor="middle" x="395.5" y="-189" font-family="Roboto" font-size="10.00">EventHandler</text>
</a>
</g>
</g>
<!-- Node14&#45;&gt;Node16 -->
<g id="edge16" class="edge">
<title>Node14&#45;&gt;Node16</title>
<path fill="none" stroke="#63b8ff" d="M277.76,-212.44C289.53,-210.88 301.93,-209.24 314.09,-207.63"/>
<polygon fill="#63b8ff" stroke="#63b8ff" points="314.2,-211.15 323.66,-206.37 313.28,-204.21 314.2,-211.15"/>
</g>
<!-- Node18 -->
<g id="node16" class="node">
<title>Node18</title>
<g id="a_node16"><a xlink:href="class_urho3_d_1_1_event_handler.html#abe76f0245895dadac146b7a4b7d78713" target="_top" xlink:title="Set sender and event type.">
<polygon fill="white" stroke="#666666" points="459.5,-164 331.5,-164 331.5,-134 459.5,-134 459.5,-164"/>
<text text-anchor="start" x="339.5" y="-152" font-family="Roboto" font-size="10.00">Urho3D::EventHandler</text>
<text text-anchor="middle" x="395.5" y="-141" font-family="Roboto" font-size="10.00">::SetSenderAndEventType</text>
</a>
</g>
</g>
<!-- Node14&#45;&gt;Node18 -->
<g id="edge18" class="edge">
<title>Node14&#45;&gt;Node18</title>
<path fill="none" stroke="#63b8ff" d="M244.59,-205.52C265.45,-195.59 293.54,-182.77 319,-173 323.33,-171.34 327.84,-169.69 332.39,-168.1"/>
<polygon fill="#63b8ff" stroke="#63b8ff" points="333.28,-171.49 341.61,-164.95 331.02,-164.87 333.28,-171.49"/>
</g>
<!-- Node17 -->
<g id="node15" class="node">
<title>Node17</title>
<g id="a_node15"><a xlink:href="class_urho3_d_1_1_event_handler.html#a18d3379ef44dac87304f2b118e36c83e" target="_top" xlink:title="Return event sender. Null if the handler is non&#45;specific.">
<polygon fill="white" stroke="#666666" points="621,-169 508,-169 508,-139 621,-139 621,-169"/>
<text text-anchor="start" x="516" y="-157" font-family="Roboto" font-size="10.00">Urho3D::EventHandler</text>
<text text-anchor="middle" x="564.5" y="-146" font-family="Roboto" font-size="10.00">::GetSender</text>
</a>
</g>
</g>
<!-- Node16&#45;&gt;Node17 -->
<g id="edge17" class="edge">
<title>Node16&#45;&gt;Node17</title>
<path fill="none" stroke="#63b8ff" d="M456.32,-181.6C469.41,-178.23 483.34,-174.64 496.68,-171.2"/>
<polygon fill="#63b8ff" stroke="#63b8ff" points="497.44,-174.62 506.25,-168.74 495.7,-167.84 497.44,-174.62"/>
</g>
<!-- Node19&#45;&gt;Node17 -->
<g id="edge22" class="edge">
<title>Node19&#45;&gt;Node17</title>
<path fill="none" stroke="#63b8ff" d="M283.36,-92.9C335.77,-99.5 408.87,-110.21 472,-125 484.05,-127.82 496.81,-131.45 508.85,-135.17"/>
<polygon fill="#63b8ff" stroke="#63b8ff" points="507.64,-138.46 518.23,-138.14 509.75,-131.79 507.64,-138.46"/>
</g>
<!-- Node20 -->
<g id="node18" class="node">
<title>Node20</title>
<g id="a_node18"><a xlink:href="class_urho3_d_1_1_object.html#a00bec56f305dd6636d186e5b351d0264" target="_top" xlink:title="Find the first event handler with no specific sender.">
<polygon fill="white" stroke="#666666" points="460,-78 331,-78 331,-48 460,-48 460,-78"/>
<text text-anchor="start" x="339" y="-66" font-family="Roboto" font-size="10.00">Urho3D::Object::FindEvent</text>
<text text-anchor="middle" x="395.5" y="-55" font-family="Roboto" font-size="10.00">Handler</text>
</a>
</g>
</g>
<!-- Node19&#45;&gt;Node20 -->
<g id="edge20" class="edge">
<title>Node19&#45;&gt;Node20</title>
<path fill="none" stroke="#63b8ff" d="M283.43,-76.46C295.21,-75.03 307.47,-73.55 319.37,-72.11"/>
<polygon fill="#63b8ff" stroke="#63b8ff" points="319.62,-75.6 329.13,-70.92 318.78,-68.65 319.62,-75.6"/>
</g>
<!-- Node22 -->
<g id="node20" class="node">
<title>Node22</title>
<g id="a_node20"><a xlink:href="class_urho3_d_1_1_context.html#a7b5bd076e695054df7930255c3eee18b" target="_top" xlink:title="Remove event receiver from specific events.">
<polygon fill="#fff0f0" stroke="red" points="472,-30 319,-30 319,0 472,0 472,-30"/>
<text text-anchor="start" x="327" y="-18" font-family="Roboto" font-size="10.00">Urho3D::Context::RemoveEvent</text>
<text text-anchor="middle" x="395.5" y="-7" font-family="Roboto" font-size="10.00">Receiver</text>
</a>
</g>
</g>
<!-- Node19&#45;&gt;Node22 -->
<g id="edge23" class="edge">
<title>Node19&#45;&gt;Node22</title>
<path fill="none" stroke="#63b8ff" d="M246.06,-69.62C266.8,-60.23 294.2,-48.29 319,-39 323.42,-37.34 328.01,-35.7 332.65,-34.1"/>
<polygon fill="#63b8ff" stroke="#63b8ff" points="333.7,-37.43 342.06,-30.92 331.46,-30.8 333.7,-37.43"/>
</g>
<!-- Node21 -->
<g id="node19" class="node">
<title>Node21</title>
<g id="a_node19"><a xlink:href="class_urho3_d_1_1_event_handler.html#ae09d06f06d3590e6f4e06006efa90176" target="_top" xlink:title="Return event type.">
<polygon fill="white" stroke="#666666" points="621,-78 508,-78 508,-48 621,-48 621,-78"/>
<text text-anchor="start" x="516" y="-66" font-family="Roboto" font-size="10.00">Urho3D::EventHandler</text>
<text text-anchor="middle" x="564.5" y="-55" font-family="Roboto" font-size="10.00">::GetEventType</text>
</a>
</g>
</g>
<!-- Node20&#45;&gt;Node21 -->
<g id="edge21" class="edge">
<title>Node20&#45;&gt;Node21</title>
<path fill="none" stroke="#63b8ff" d="M460.11,-63C471.99,-63 484.43,-63 496.41,-63"/>
<polygon fill="#63b8ff" stroke="#63b8ff" points="496.2,-66.5 506.2,-63 496.2,-59.5 496.2,-66.5"/>
</g>
<!-- Node33&#45;&gt;Node12 -->
<g id="edge27" class="edge">
<title>Node33&#45;&gt;Node12</title>
<path fill="none" stroke="#63b8ff" d="M260.27,-366.63C323.73,-378.22 436.4,-398.79 505.09,-411.34"/>
<polygon fill="#63b8ff" stroke="#63b8ff" points="504.19,-414.73 514.65,-413.08 505.44,-407.84 504.19,-414.73"/>
</g>
<!-- Node34 -->
<g id="node22" class="node">
<title>Node34</title>
<g id="a_node22"><a xlink:href="class_urho3_d_1_1_string.html#a3e075eaafa63ccbe5b6f28a2ad7a50ad" target="_top" xlink:title="Return the C string.">
<polygon fill="white" stroke="#666666" points="454,-334.5 337,-334.5 337,-315.5 454,-315.5 454,-334.5"/>
<text text-anchor="middle" x="395.5" y="-322.5" font-family="Roboto" font-size="10.00">Urho3D::String::CString</text>
</a>
</g>
</g>
<!-- Node33&#45;&gt;Node34 -->
<g id="edge25" class="edge">
<title>Node33&#45;&gt;Node34</title>
<path fill="none" stroke="#63b8ff" d="M260.21,-349.42C281.06,-345.63 305.92,-341.11 328.56,-336.99"/>
<polygon fill="#63b8ff" stroke="#63b8ff" points="329.1,-340.45 338.32,-335.22 327.85,-333.56 329.1,-340.45"/>
</g>
<!-- Node35 -->
<g id="node23" class="node">
<title>Node35</title>
<g id="a_node23"><a xlink:href="class_urho3_d_1_1_string.html#a78967781d11a0100dcca55391fa09092" target="_top" xlink:title="Return length of a C string.">
<polygon fill="white" stroke="#666666" points="468.5,-297.5 322.5,-297.5 322.5,-278.5 468.5,-278.5 468.5,-297.5"/>
<text text-anchor="middle" x="395.5" y="-285.5" font-family="Roboto" font-size="10.00">Urho3D::String::CStringLength</text>
</a>
</g>
</g>
<!-- Node33&#45;&gt;Node35 -->
<g id="edge26" class="edge">
<title>Node33&#45;&gt;Node35</title>
<path fill="none" stroke="#63b8ff" d="M260.17,-344.1C267.98,-341.16 275.85,-337.79 283,-334 300.68,-324.64 300.95,-315.61 319,-307 323.25,-304.97 327.75,-303.14 332.35,-301.5"/>
<polygon fill="#63b8ff" stroke="#63b8ff" points="333.3,-304.87 341.73,-298.45 331.14,-298.21 333.3,-304.87"/>
</g>
<!-- Node36&#45;&gt;Node12 -->
<g id="edge29" class="edge">
<title>Node36&#45;&gt;Node12</title>
<path fill="none" stroke="#63b8ff" d="M260.27,-408.16C323.6,-411.05 435.94,-416.18 504.67,-419.31"/>
<polygon fill="#63b8ff" stroke="#63b8ff" points="504.48,-422.81 514.63,-419.77 504.8,-415.82 504.48,-422.81"/>
</g>
<!-- Node37 -->
<g id="node25" class="node">
<title>Node37</title>
<g id="a_node25"><a xlink:href="class_urho3_d_1_1_serializer.html#a4f90c5159c785e81d4ba74ebcfb961a5" target="_top" xlink:title="Write an 8&#45;bit unsigned integer.">
<polygon fill="white" stroke="#666666" points="443.5,-459 347.5,-459 347.5,-429 443.5,-429 443.5,-459"/>
<text text-anchor="start" x="355.5" y="-447" font-family="Roboto" font-size="10.00">Urho3D::Serializer</text>
<text text-anchor="middle" x="395.5" y="-436" font-family="Roboto" font-size="10.00">::WriteUByte</text>
</a>
</g>
</g>
<!-- Node36&#45;&gt;Node37 -->
<g id="edge30" class="edge">
<title>Node36&#45;&gt;Node37</title>
<path fill="none" stroke="#63b8ff" d="M260.21,-415.88C283.44,-420.75 311.65,-426.65 336.21,-431.8"/>
<polygon fill="#63b8ff" stroke="#63b8ff" points="335.22,-435.16 345.73,-433.79 336.66,-428.31 335.22,-435.16"/>
</g>
<!-- Node37&#45;&gt;Node12 -->
<g id="edge31" class="edge">
<title>Node37&#45;&gt;Node12</title>
<path fill="none" stroke="#63b8ff" d="M443.91,-437.75C462.94,-435.25 485.07,-432.33 505.08,-429.7"/>
<polygon fill="#63b8ff" stroke="#63b8ff" points="505.3,-433.2 514.76,-428.42 504.39,-426.26 505.3,-433.2"/>
</g>
</g>
</svg>
