<?xml version="1.0" encoding="UTF-8" standalone="no"?>
<!DOCTYPE svg PUBLIC "-//W3C//DTD SVG 1.1//EN"
 "http://www.w3.org/Graphics/SVG/1.1/DTD/svg11.dtd">
<!-- Generated by graphviz version 7.0.3 (0)
 -->
<!-- Title: Urho3D::Node::SetWorldRotation Pages: 1 -->
<svg width="921pt" height="201pt"
 viewBox="0.00 0.00 921.00 200.50" xmlns="http://www.w3.org/2000/svg" xmlns:xlink="http://www.w3.org/1999/xlink">
<g id="graph0" class="graph" transform="scale(1 1) rotate(0) translate(4 196.5)">
<title>Urho3D::Node::SetWorldRotation</title>
<!-- Node1 -->
<g id="node1" class="node">
<title>Node1</title>
<g id="a_node1"><a xlink:title=" ">
<polygon fill="#999999" stroke="#666666" points="162,-149.5 0,-149.5 0,-130.5 162,-130.5 162,-149.5"/>
<text text-anchor="middle" x="81" y="-137.5" font-family="Roboto" font-size="10.00">Urho3D::Node::SetWorldRotation</text>
</a>
</g>
</g>
<!-- Node2 -->
<g id="node2" class="node">
<title>Node2</title>
<g id="a_node2"><a xlink:href="class_urho3_d_1_1_node.html#ad74175e15dfaa86263299e355a2d49ed" target="_top" xlink:title=" ">
<polygon fill="white" stroke="#666666" points="361,-192.5 198,-192.5 198,-173.5 361,-173.5 361,-192.5"/>
<text text-anchor="middle" x="279.5" y="-180.5" font-family="Roboto" font-size="10.00">Urho3D::Node::GetWorldRotation</text>
</a>
</g>
</g>
<!-- Node1&#45;&gt;Node2 -->
<g id="edge1" class="edge">
<title>Node1&#45;&gt;Node2</title>
<path fill="none" stroke="#63b8ff" d="M127.57,-149.97C155.62,-156.11 191.8,-164.03 221.71,-170.57"/>
<polygon fill="#63b8ff" stroke="#63b8ff" points="220.84,-173.96 231.35,-172.68 222.33,-167.13 220.84,-173.96"/>
</g>
<!-- Node3 -->
<g id="node3" class="node">
<title>Node3</title>
<g id="a_node3"><a xlink:href="class_urho3_d_1_1_quaternion.html#a4d4b3c4b38d40c1e216c51e058709545" target="_top" xlink:title="Return inverse.">
<polygon fill="white" stroke="#666666" points="331,-155 228,-155 228,-125 331,-125 331,-155"/>
<text text-anchor="start" x="236" y="-143" font-family="Roboto" font-size="10.00">Urho3D::Quaternion</text>
<text text-anchor="middle" x="279.5" y="-132" font-family="Roboto" font-size="10.00">::Inverse</text>
</a>
</g>
</g>
<!-- Node1&#45;&gt;Node3 -->
<g id="edge2" class="edge">
<title>Node1&#45;&gt;Node3</title>
<path fill="none" stroke="#63b8ff" d="M162.49,-140C180.4,-140 199.13,-140 216.18,-140"/>
<polygon fill="#63b8ff" stroke="#63b8ff" points="216.18,-143.5 226.18,-140 216.18,-136.5 216.18,-143.5"/>
</g>
<!-- Node4 -->
<g id="node4" class="node">
<title>Node4</title>
<g id="a_node4"><a xlink:href="class_urho3_d_1_1_node.html#a11bd9b2bfda2503123a32889b144aea1" target="_top" xlink:title=" ">
<polygon fill="white" stroke="#666666" points="347,-106.5 212,-106.5 212,-87.5 347,-87.5 347,-106.5"/>
<text text-anchor="middle" x="279.5" y="-94.5" font-family="Roboto" font-size="10.00">Urho3D::Node::SetRotation</text>
</a>
</g>
</g>
<!-- Node1&#45;&gt;Node4 -->
<g id="edge3" class="edge">
<title>Node1&#45;&gt;Node4</title>
<path fill="none" stroke="#63b8ff" d="M127.57,-130.03C155.62,-123.89 191.8,-115.97 221.71,-109.43"/>
<polygon fill="#63b8ff" stroke="#63b8ff" points="222.33,-112.87 231.35,-107.32 220.84,-106.04 222.33,-112.87"/>
</g>
<!-- Node5 -->
<g id="node5" class="node">
<title>Node5</title>
<g id="a_node5"><a xlink:href="class_urho3_d_1_1_node.html#a729772e9f5530a69584e7c3a6a8722ce" target="_top" xlink:title="Mark node and child nodes to need world transform recalculation. Notify listener components.">
<polygon fill="white" stroke="#666666" points="534,-128.5 406,-128.5 406,-109.5 534,-109.5 534,-128.5"/>
<text text-anchor="middle" x="470" y="-116.5" font-family="Roboto" font-size="10.00">Urho3D::Node::MarkDirty</text>
</a>
</g>
</g>
<!-- Node4&#45;&gt;Node5 -->
<g id="edge4" class="edge">
<title>Node4&#45;&gt;Node5</title>
<path fill="none" stroke="#63b8ff" d="M347.49,-104.82C362.73,-106.6 379.01,-108.5 394.55,-110.31"/>
<polygon fill="#63b8ff" stroke="#63b8ff" points="393.86,-113.75 404.19,-111.44 394.67,-106.8 393.86,-113.75"/>
</g>
<!-- Node7 -->
<g id="node7" class="node">
<title>Node7</title>
<g id="a_node7"><a xlink:href="class_urho3_d_1_1_node.html#a9c4864e96c873752bed6b1f178888fde" target="_top" xlink:title="Mark for attribute check on the next network update.">
<polygon fill="white" stroke="#666666" points="543,-91 397,-91 397,-61 543,-61 543,-91"/>
<text text-anchor="start" x="405" y="-79" font-family="Roboto" font-size="10.00">Urho3D::Node::MarkNetwork</text>
<text text-anchor="middle" x="470" y="-68" font-family="Roboto" font-size="10.00">Update</text>
</a>
</g>
</g>
<!-- Node4&#45;&gt;Node7 -->
<g id="edge6" class="edge">
<title>Node4&#45;&gt;Node7</title>
<path fill="none" stroke="#63b8ff" d="M347.49,-89.54C359.85,-88.16 372.89,-86.71 385.66,-85.28"/>
<polygon fill="#63b8ff" stroke="#63b8ff" points="385.74,-88.8 395.29,-84.21 384.96,-81.84 385.74,-88.8"/>
</g>
<!-- Node6 -->
<g id="node6" class="node">
<title>Node6</title>
<g id="a_node6"><a xlink:href="class_urho3_d_1_1_component.html#ab49b4b66b2eb1601cf166972fe42e5ce" target="_top" xlink:title="Handle scene node transform dirtied.">
<polygon fill="white" stroke="#666666" points="708.5,-134 597.5,-134 597.5,-104 708.5,-104 708.5,-134"/>
<text text-anchor="start" x="605.5" y="-122" font-family="Roboto" font-size="10.00">Urho3D::Component::</text>
<text text-anchor="middle" x="653" y="-111" font-family="Roboto" font-size="10.00">OnMarkedDirty</text>
</a>
</g>
</g>
<!-- Node5&#45;&gt;Node6 -->
<g id="edge5" class="edge">
<title>Node5&#45;&gt;Node6</title>
<path fill="none" stroke="#63b8ff" d="M534.31,-119C550.95,-119 568.96,-119 585.75,-119"/>
<polygon fill="#63b8ff" stroke="#63b8ff" points="585.65,-122.5 595.65,-119 585.65,-115.5 585.65,-122.5"/>
</g>
<!-- Node8 -->
<g id="node8" class="node">
<title>Node8</title>
<g id="a_node8"><a xlink:href="class_urho3_d_1_1_node.html#a9db232116d4278bd3e10c365d2ef57d5" target="_top" xlink:title=" ">
<polygon fill="white" stroke="#666666" points="722,-85.5 584,-85.5 584,-66.5 722,-66.5 722,-85.5"/>
<text text-anchor="middle" x="653" y="-73.5" font-family="Roboto" font-size="10.00">Urho3D::Node::IsReplicated</text>
</a>
</g>
</g>
<!-- Node7&#45;&gt;Node8 -->
<g id="edge7" class="edge">
<title>Node7&#45;&gt;Node8</title>
<path fill="none" stroke="#63b8ff" d="M543.32,-76C552.87,-76 562.71,-76 572.38,-76"/>
<polygon fill="#63b8ff" stroke="#63b8ff" points="572.11,-79.5 582.11,-76 572.11,-72.5 572.11,-79.5"/>
</g>
<!-- Node10 -->
<g id="node10" class="node">
<title>Node10</title>
<g id="a_node10"><a xlink:href="class_urho3_d_1_1_scene.html#a00b724dfff718639b9de12d71139499c" target="_top" xlink:title="Mark for attribute check on the next network update.">
<polygon fill="white" stroke="#666666" points="727,-30 579,-30 579,0 727,0 727,-30"/>
<text text-anchor="start" x="587" y="-18" font-family="Roboto" font-size="10.00">Urho3D::Scene::MarkNetwork</text>
<text text-anchor="middle" x="653" y="-7" font-family="Roboto" font-size="10.00">Update</text>
</a>
</g>
</g>
<!-- Node7&#45;&gt;Node10 -->
<g id="edge9" class="edge">
<title>Node7&#45;&gt;Node10</title>
<path fill="none" stroke="#63b8ff" d="M516.67,-60.61C540.59,-52.55 570.1,-42.6 595.44,-34.06"/>
<polygon fill="#63b8ff" stroke="#63b8ff" points="596.23,-37.49 604.59,-30.98 594,-30.85 596.23,-37.49"/>
</g>
<!-- Node9 -->
<g id="node9" class="node">
<title>Node9</title>
<g id="a_node9"><a xlink:href="class_urho3_d_1_1_scene.html#a97fb1222bd2f38e6c1c433c0b7e54d40" target="_top" xlink:title="Return whether the specified id is a replicated id.">
<polygon fill="white" stroke="#666666" points="913,-85.5 763,-85.5 763,-66.5 913,-66.5 913,-85.5"/>
<text text-anchor="middle" x="838" y="-73.5" font-family="Roboto" font-size="10.00">Urho3D::Scene::IsReplicatedID</text>
</a>
</g>
</g>
<!-- Node8&#45;&gt;Node9 -->
<g id="edge8" class="edge">
<title>Node8&#45;&gt;Node9</title>
<path fill="none" stroke="#63b8ff" d="M722.4,-76C731.82,-76 741.58,-76 751.25,-76"/>
<polygon fill="#63b8ff" stroke="#63b8ff" points="751.03,-79.5 761.03,-76 751.03,-72.5 751.03,-79.5"/>
</g>
<!-- Node10&#45;&gt;Node10 -->
<g id="edge10" class="edge">
<title>Node10&#45;&gt;Node10</title>
<path fill="none" stroke="#63b8ff" d="M620.83,-30.28C613.68,-39.41 624.41,-48 653,-48 668.64,-48 678.93,-45.43 683.88,-41.61"/>
<polygon fill="#63b8ff" stroke="#63b8ff" points="687.34,-42.11 685,-31.78 680.39,-41.32 687.34,-42.11"/>
</g>
</g>
</svg>
