<?xml version="1.0" encoding="UTF-8" standalone="no"?>
<!DOCTYPE svg PUBLIC "-//W3C//DTD SVG 1.1//EN"
 "http://www.w3.org/Graphics/SVG/1.1/DTD/svg11.dtd">
<!-- Generated by graphviz version 7.0.3 (0)
 -->
<!-- Title: Urho3D::ValueAnimation Pages: 1 -->
<svg width="1019pt" height="1009pt"
 viewBox="0.00 0.00 1019.00 1009.38" xmlns="http://www.w3.org/2000/svg" xmlns:xlink="http://www.w3.org/1999/xlink">
<g id="graph0" class="graph" transform="scale(1 1) rotate(0) translate(4 1005.38)">
<title>Urho3D::ValueAnimation</title>
<!-- Node1 -->
<g id="node1" class="node">
<title>Node1</title>
<g id="a_node1"><a xlink:title="Value animation class.">
<polygon fill="#999999" stroke="#666666" points="1009,-741.38 885,-741.38 885,-722.38 1009,-722.38 1009,-741.38"/>
<text text-anchor="middle" x="947" y="-729.38" font-family="Roboto" font-size="10.00">Urho3D::ValueAnimation</text>
</a>
</g>
</g>
<!-- Node2 -->
<g id="node2" class="node">
<title>Node2</title>
<g id="a_node2"><a xlink:href="class_urho3_d_1_1_resource.html" target="_top" xlink:title=" ">
<polygon fill="white" stroke="#666666" points="677.5,-901.38 581.5,-901.38 581.5,-882.38 677.5,-882.38 677.5,-901.38"/>
<text text-anchor="middle" x="629.5" y="-889.38" font-family="Roboto" font-size="10.00">Urho3D::Resource</text>
</a>
</g>
</g>
<!-- Node2&#45;&gt;Node1 -->
<g id="edge1" class="edge">
<title>Node2&#45;&gt;Node1</title>
<path fill="none" stroke="#63b8ff" d="M688.51,-879.52C707.02,-873.07 726.25,-863.37 740,-848.88 757.41,-830.53 740.13,-812.79 758,-794.88 758.36,-794.52 863.38,-759.45 916.28,-741.8"/>
<polygon fill="#63b8ff" stroke="#63b8ff" points="687.65,-876.12 679.18,-882.49 689.78,-882.79 687.65,-876.12"/>
</g>
<!-- Node3 -->
<g id="node3" class="node">
<title>Node3</title>
<g id="a_node3"><a xlink:href="class_urho3_d_1_1_object.html" target="_top" xlink:title=" ">
<polygon fill="white" stroke="#666666" points="416.5,-772.38 333.5,-772.38 333.5,-753.38 416.5,-753.38 416.5,-772.38"/>
<text text-anchor="middle" x="375" y="-760.38" font-family="Roboto" font-size="10.00">Urho3D::Object</text>
</a>
</g>
</g>
<!-- Node3&#45;&gt;Node2 -->
<g id="edge2" class="edge">
<title>Node3&#45;&gt;Node2</title>
<path fill="none" stroke="#63b8ff" d="M395.51,-780.21C405.8,-789.86 418.28,-802.43 428,-814.88 437.57,-827.14 433.54,-835.58 446,-844.88 485.46,-874.34 541.6,-885.4 581.17,-889.52"/>
<polygon fill="#63b8ff" stroke="#63b8ff" points="398,-777.74 388.27,-773.57 393.27,-782.9 398,-777.74"/>
</g>
<!-- Node19 -->
<g id="node16" class="node">
<title>Node19</title>
<g id="a_node16"><a xlink:href="class_urho3_d_1_1_event_handler.html" target="_top" xlink:title="Internal helper class for invoking event handler functions.">
<polygon fill="#fff0f0" stroke="red" points="686,-797.38 573,-797.38 573,-778.38 686,-778.38 686,-797.38"/>
<text text-anchor="middle" x="629.5" y="-785.38" font-family="Roboto" font-size="10.00">Urho3D::EventHandler</text>
</a>
</g>
</g>
<!-- Node3&#45;&gt;Node19 -->
<g id="edge22" class="edge">
<title>Node3&#45;&gt;Node19</title>
<path fill="none" stroke="#9a32cd" stroke-dasharray="5,2" d="M428.1,-760.26C450.62,-759.9 477.21,-760.54 501,-763.88 509.22,-765.04 510.9,-767.06 519,-768.88 536.32,-772.78 555.33,-776.33 572.58,-779.28"/>
<polygon fill="#9a32cd" stroke="#9a32cd" points="428.16,-756.75 418.24,-760.48 428.32,-763.75 428.16,-756.75"/>
<text text-anchor="middle" x="473.5" y="-777.88" font-family="Roboto" font-size="10.00"> receiver_</text>
<text text-anchor="middle" x="473.5" y="-766.88" font-family="Roboto" font-size="10.00">sender_</text>
</g>
<!-- Node4 -->
<g id="node4" class="node">
<title>Node4</title>
<g id="a_node4"><a xlink:href="class_urho3_d_1_1_ref_counted.html" target="_top" xlink:title="Base class for intrusively reference&#45;counted objects. These are noncopyable and non&#45;assignable.">
<polygon fill="white" stroke="#666666" points="285,-69.38 178,-69.38 178,-50.38 285,-50.38 285,-69.38"/>
<text text-anchor="middle" x="231.5" y="-57.38" font-family="Roboto" font-size="10.00">Urho3D::RefCounted</text>
</a>
</g>
</g>
<!-- Node4&#45;&gt;Node3 -->
<g id="edge3" class="edge">
<title>Node4&#45;&gt;Node3</title>
<path fill="none" stroke="#63b8ff" d="M234.13,-81.02C240.3,-156.71 264.91,-420.81 322,-630.88 334.86,-678.18 359.15,-731.71 369.33,-753.2"/>
<polygon fill="#63b8ff" stroke="#63b8ff" points="237.64,-81.03 233.36,-71.34 230.66,-81.58 237.64,-81.03"/>
</g>
<!-- Node6 -->
<g id="node6" class="node">
<title>Node6</title>
<g id="a_node6"><a xlink:href="class_urho3_d_1_1_context.html" target="_top" xlink:title="Urho3D execution context. Provides access to subsystems, object factories and attributes,...">
<polygon fill="white" stroke="#666666" points="991.5,-377.38 902.5,-377.38 902.5,-358.38 991.5,-358.38 991.5,-377.38"/>
<text text-anchor="middle" x="947" y="-365.38" font-family="Roboto" font-size="10.00">Urho3D::Context</text>
</a>
</g>
</g>
<!-- Node4&#45;&gt;Node6 -->
<g id="edge6" class="edge">
<title>Node4&#45;&gt;Node6</title>
<path fill="none" stroke="#63b8ff" d="M273.62,-46.68C385.75,-13.51 699.45,59.85 865,-97.88 943.13,-172.32 946.76,-318.84 946.27,-358.04"/>
<polygon fill="#63b8ff" stroke="#63b8ff" points="272.81,-43.27 264.25,-49.5 274.83,-49.97 272.81,-43.27"/>
</g>
<!-- Node5 -->
<g id="node5" class="node">
<title>Node5</title>
<g id="a_node5"><a xlink:href="struct_urho3_d_1_1_ref_count.html" target="_top" xlink:title="Reference count structure.">
<polygon fill="white" stroke="#666666" points="96,-69.38 0,-69.38 0,-50.38 96,-50.38 96,-69.38"/>
<text text-anchor="middle" x="48" y="-57.38" font-family="Roboto" font-size="10.00">Urho3D::RefCount</text>
</a>
</g>
</g>
<!-- Node5&#45;&gt;Node4 -->
<g id="edge4" class="edge">
<title>Node5&#45;&gt;Node4</title>
<path fill="none" stroke="#9a32cd" stroke-dasharray="5,2" d="M107.69,-59.88C130.24,-59.88 155.81,-59.88 177.76,-59.88"/>
<polygon fill="#9a32cd" stroke="#9a32cd" points="107.73,-56.38 97.73,-59.88 107.73,-63.38 107.73,-56.38"/>
<text text-anchor="middle" x="137" y="-62.88" font-family="Roboto" font-size="10.00"> refCount_</text>
</g>
<!-- Node6&#45;&gt;Node3 -->
<g id="edge5" class="edge">
<title>Node6&#45;&gt;Node3</title>
<path fill="none" stroke="#9a32cd" stroke-dasharray="5,2" d="M946.1,-389.09C945.13,-439.28 935.44,-566.18 865,-633.88 829.56,-667.95 799.08,-634.89 758,-661.88 747.15,-669.01 751.17,-678.27 740,-684.88 654.34,-735.54 616.04,-698.82 519,-720.88 479.39,-729.89 434.58,-743.65 405.84,-752.94"/>
<polygon fill="#9a32cd" stroke="#9a32cd" points="949.6,-389.36 946.18,-379.33 942.6,-389.3 949.6,-389.36"/>
<text text-anchor="middle" x="629.5" y="-723.88" font-family="Roboto" font-size="10.00"> context_</text>
</g>
<!-- Node7 -->
<g id="node7" class="node">
<title>Node7</title>
<g id="a_node7"><a xlink:href="class_urho3_d_1_1_hash_map.html" target="_top" xlink:title=" ">
<polygon fill="white" stroke="#666666" points="720.5,-235.38 538.5,-235.38 538.5,-194.38 720.5,-194.38 720.5,-235.38"/>
<text text-anchor="start" x="546.5" y="-223.38" font-family="Roboto" font-size="10.00">Urho3D::HashMap&lt; Urho3D</text>
<text text-anchor="start" x="546.5" y="-212.38" font-family="Roboto" font-size="10.00">::StringHash, Urho3D::</text>
<text text-anchor="middle" x="629.5" y="-201.38" font-family="Roboto" font-size="10.00">SharedPtr&lt; Urho3D::ObjectFactory &gt; &gt;</text>
</a>
</g>
</g>
<!-- Node7&#45;&gt;Node6 -->
<g id="edge7" class="edge">
<title>Node7&#45;&gt;Node6</title>
<path fill="none" stroke="#9a32cd" stroke-dasharray="5,2" d="M732.11,-230.69C775.32,-240.56 824.88,-256.25 865,-280.88 898.59,-301.51 927.15,-339.79 939.48,-357.89"/>
<polygon fill="#9a32cd" stroke="#9a32cd" points="732.97,-227.3 722.46,-228.57 731.47,-234.13 732.97,-227.3"/>
<text text-anchor="middle" x="811.5" y="-283.88" font-family="Roboto" font-size="10.00"> factories_</text>
</g>
<!-- Node8 -->
<g id="node8" class="node">
<title>Node8</title>
<g id="a_node8"><a xlink:href="class_urho3_d_1_1_hash_base.html" target="_top" xlink:title="Hash set/map base class.">
<polygon fill="#fff0f0" stroke="red" points="425,-278.38 325,-278.38 325,-259.38 425,-259.38 425,-278.38"/>
<text text-anchor="middle" x="375" y="-266.38" font-family="Roboto" font-size="10.00">Urho3D::HashBase</text>
</a>
</g>
</g>
<!-- Node8&#45;&gt;Node7 -->
<g id="edge8" class="edge">
<title>Node8&#45;&gt;Node7</title>
<path fill="none" stroke="#63b8ff" d="M433.62,-256.56C464.55,-249.95 503.37,-241.64 538.2,-234.19"/>
<polygon fill="#63b8ff" stroke="#63b8ff" points="433.13,-253.08 424.09,-258.6 434.6,-259.93 433.13,-253.08"/>
</g>
<!-- Node12 -->
<g id="node9" class="node">
<title>Node12</title>
<g id="a_node9"><a xlink:href="class_urho3_d_1_1_hash_map.html" target="_top" xlink:title=" ">
<polygon fill="white" stroke="#666666" points="704,-176.38 555,-176.38 555,-135.38 704,-135.38 704,-176.38"/>
<text text-anchor="start" x="563" y="-164.38" font-family="Roboto" font-size="10.00">Urho3D::HashMap&lt; Urho3D</text>
<text text-anchor="start" x="563" y="-153.38" font-family="Roboto" font-size="10.00">::StringHash, Urho3D::</text>
<text text-anchor="middle" x="629.5" y="-142.38" font-family="Roboto" font-size="10.00">SharedPtr&lt; Urho3D::Object &gt; &gt;</text>
</a>
</g>
</g>
<!-- Node8&#45;&gt;Node12 -->
<g id="edge10" class="edge">
<title>Node8&#45;&gt;Node12</title>
<path fill="none" stroke="#63b8ff" d="M399.09,-252.64C426.53,-233.97 474.27,-203.53 519,-184.88 530.25,-180.19 542.48,-176.07 554.55,-172.52"/>
<polygon fill="#63b8ff" stroke="#63b8ff" points="397.44,-249.52 391.18,-258.08 401.41,-255.29 397.44,-249.52"/>
</g>
<!-- Node13 -->
<g id="node10" class="node">
<title>Node13</title>
<g id="a_node10"><a xlink:href="class_urho3_d_1_1_hash_map.html" target="_top" xlink:title=" ">
<polygon fill="white" stroke="#666666" points="710.5,-117.38 548.5,-117.38 548.5,-76.38 710.5,-76.38 710.5,-117.38"/>
<text text-anchor="start" x="556.5" y="-105.38" font-family="Roboto" font-size="10.00">Urho3D::HashMap&lt; Urho3D</text>
<text text-anchor="start" x="556.5" y="-94.38" font-family="Roboto" font-size="10.00">::StringHash, Urho3D::</text>
<text text-anchor="middle" x="629.5" y="-83.38" font-family="Roboto" font-size="10.00">Vector&lt; Urho3D::AttributeInfo &gt; &gt;</text>
</a>
</g>
</g>
<!-- Node8&#45;&gt;Node13 -->
<g id="edge12" class="edge">
<title>Node8&#45;&gt;Node13</title>
<path fill="none" stroke="#63b8ff" d="M389.33,-249.58C412.07,-218.26 461.49,-156.8 519,-125.88 528.09,-120.99 538.06,-116.89 548.17,-113.46"/>
<polygon fill="#63b8ff" stroke="#63b8ff" points="386.49,-247.54 383.55,-257.72 392.2,-251.59 386.49,-247.54"/>
</g>
<!-- Node14 -->
<g id="node11" class="node">
<title>Node14</title>
<g id="a_node11"><a xlink:href="class_urho3_d_1_1_hash_map.html" target="_top" xlink:title=" ">
<polygon fill="white" stroke="#666666" points="713,-483.88 546,-483.88 546,-431.88 713,-431.88 713,-483.88"/>
<text text-anchor="start" x="554" y="-471.88" font-family="Roboto" font-size="10.00">Urho3D::HashMap&lt; Urho3D</text>
<text text-anchor="start" x="554" y="-460.88" font-family="Roboto" font-size="10.00">::StringHash, Urho3D::</text>
<text text-anchor="start" x="554" y="-449.88" font-family="Roboto" font-size="10.00">SharedPtr&lt; Urho3D::EventReceiver</text>
<text text-anchor="middle" x="629.5" y="-438.88" font-family="Roboto" font-size="10.00">Group &gt; &gt;</text>
</a>
</g>
</g>
<!-- Node8&#45;&gt;Node14 -->
<g id="edge14" class="edge">
<title>Node8&#45;&gt;Node14</title>
<path fill="none" stroke="#63b8ff" d="M388.77,-288.08C411.29,-320.51 461.2,-386.17 519,-422.88 527.25,-428.13 536.36,-432.64 545.69,-436.52"/>
<polygon fill="#63b8ff" stroke="#63b8ff" points="391.82,-286.35 383.29,-280.05 386.03,-290.29 391.82,-286.35"/>
</g>
<!-- Node15 -->
<g id="node12" class="node">
<title>Node15</title>
<g id="a_node12"><a xlink:href="class_urho3_d_1_1_hash_map.html" target="_top" xlink:title=" ">
<polygon fill="white" stroke="#666666" points="740,-413.88 519,-413.88 519,-361.88 740,-361.88 740,-413.88"/>
<text text-anchor="start" x="527" y="-401.88" font-family="Roboto" font-size="10.00">Urho3D::HashMap&lt; Urho3D</text>
<text text-anchor="start" x="527" y="-390.88" font-family="Roboto" font-size="10.00">::Object *, Urho3D::HashMap</text>
<text text-anchor="start" x="527" y="-379.88" font-family="Roboto" font-size="10.00">&lt; Urho3D::StringHash, Urho3D</text>
<text text-anchor="middle" x="629.5" y="-368.88" font-family="Roboto" font-size="10.00">::SharedPtr&lt; Urho3D::EventReceiverGroup &gt; &gt; &gt;</text>
</a>
</g>
</g>
<!-- Node8&#45;&gt;Node15 -->
<g id="edge16" class="edge">
<title>Node8&#45;&gt;Node15</title>
<path fill="none" stroke="#63b8ff" d="M399.76,-284.75C427.49,-302.76 475.15,-332.21 519,-351.88 526.49,-355.24 534.38,-358.45 542.37,-361.46"/>
<polygon fill="#63b8ff" stroke="#63b8ff" points="402.03,-282.05 391.75,-279.49 398.19,-287.91 402.03,-282.05"/>
</g>
<!-- Node22 -->
<g id="node18" class="node">
<title>Node22</title>
<g id="a_node18"><a xlink:href="class_urho3_d_1_1_hash_map.html" target="_top" xlink:title=" ">
<polygon fill="white" stroke="#666666" points="699,-343.38 560,-343.38 560,-302.38 699,-302.38 699,-343.38"/>
<text text-anchor="start" x="568" y="-331.38" font-family="Roboto" font-size="10.00">Urho3D::HashMap&lt; Urho3D</text>
<text text-anchor="start" x="568" y="-320.38" font-family="Roboto" font-size="10.00">::String, Urho3D::Vector</text>
<text text-anchor="middle" x="629.5" y="-309.38" font-family="Roboto" font-size="10.00">&lt; Urho3D::StringHash &gt; &gt;</text>
</a>
</g>
</g>
<!-- Node8&#45;&gt;Node22 -->
<g id="edge26" class="edge">
<title>Node8&#45;&gt;Node22</title>
<path fill="none" stroke="#63b8ff" d="M433.84,-281.25C471.32,-289.27 520.32,-299.75 559.78,-308.18"/>
<polygon fill="#63b8ff" stroke="#63b8ff" points="434.6,-277.84 424.09,-279.17 433.13,-284.68 434.6,-277.84"/>
</g>
<!-- Node23 -->
<g id="node19" class="node">
<title>Node23</title>
<g id="a_node19"><a xlink:href="class_urho3_d_1_1_hash_map.html" target="_top" xlink:title=" ">
<polygon fill="white" stroke="#666666" points="707.5,-283.88 551.5,-283.88 551.5,-253.88 707.5,-253.88 707.5,-283.88"/>
<text text-anchor="start" x="559.5" y="-271.88" font-family="Roboto" font-size="10.00">Urho3D::HashMap&lt; StringHash,</text>
<text text-anchor="middle" x="629.5" y="-260.88" font-family="Roboto" font-size="10.00"> Variant &gt;</text>
</a>
</g>
</g>
<!-- Node8&#45;&gt;Node23 -->
<g id="edge28" class="edge">
<title>Node8&#45;&gt;Node23</title>
<path fill="none" stroke="#63b8ff" d="M436.56,-268.88C470.9,-268.88 514.22,-268.88 551.01,-268.88"/>
<polygon fill="#63b8ff" stroke="#63b8ff" points="436.8,-265.38 426.8,-268.88 436.8,-272.38 436.8,-265.38"/>
</g>
<!-- Node12&#45;&gt;Node6 -->
<g id="edge9" class="edge">
<title>Node12&#45;&gt;Node6</title>
<path fill="none" stroke="#9a32cd" stroke-dasharray="5,2" d="M715.3,-164.14C763.54,-172.56 822.59,-189.55 865,-223.88 911.15,-261.24 935.63,-332.33 943.31,-358.18"/>
<polygon fill="#9a32cd" stroke="#9a32cd" points="716.17,-160.73 705.74,-162.57 715.04,-167.64 716.17,-160.73"/>
<text text-anchor="middle" x="811.5" y="-226.88" font-family="Roboto" font-size="10.00"> subsystems_</text>
</g>
<!-- Node13&#45;&gt;Node6 -->
<g id="edge11" class="edge">
<title>Node13&#45;&gt;Node6</title>
<path fill="none" stroke="#9a32cd" stroke-dasharray="5,2" d="M722.1,-96.52C769.74,-100.93 826.01,-113.95 865,-147.88 931.63,-205.86 943.5,-323.62 945.57,-358.16"/>
<polygon fill="#9a32cd" stroke="#9a32cd" points="722.57,-93.05 712.33,-95.74 722.01,-100.03 722.57,-93.05"/>
<text text-anchor="middle" x="811.5" y="-161.88" font-family="Roboto" font-size="10.00"> attributes_</text>
<text text-anchor="middle" x="811.5" y="-150.88" font-family="Roboto" font-size="10.00">networkAttributes_</text>
</g>
<!-- Node14&#45;&gt;Node6 -->
<g id="edge13" class="edge">
<title>Node14&#45;&gt;Node6</title>
<path fill="none" stroke="#9a32cd" stroke-dasharray="5,2" d="M724.35,-434.03C767.38,-422.75 818.95,-408.73 865,-394.88 882.6,-389.59 902.16,-383.09 917.64,-377.79"/>
<polygon fill="#9a32cd" stroke="#9a32cd" points="723.57,-430.62 714.78,-436.53 725.34,-437.39 723.57,-430.62"/>
<text text-anchor="middle" x="811.5" y="-427.88" font-family="Roboto" font-size="10.00"> eventReceivers_</text>
</g>
<!-- Node15&#45;&gt;Node6 -->
<g id="edge15" class="edge">
<title>Node15&#45;&gt;Node6</title>
<path fill="none" stroke="#9a32cd" stroke-dasharray="5,2" d="M751.6,-380.21C804.53,-376.85 863.28,-373.13 902.19,-370.66"/>
<polygon fill="#9a32cd" stroke="#9a32cd" points="751.67,-376.69 741.91,-380.82 752.12,-383.68 751.67,-376.69"/>
<text text-anchor="middle" x="811.5" y="-382.88" font-family="Roboto" font-size="10.00"> specificEventReceivers_</text>
</g>
<!-- Node16 -->
<g id="node13" class="node">
<title>Node16</title>
<g id="a_node13"><a xlink:href="class_urho3_d_1_1_p_o_d_vector.html" target="_top" xlink:title=" ">
<polygon fill="white" stroke="#666666" points="684,-579.88 575,-579.88 575,-549.88 684,-549.88 684,-579.88"/>
<text text-anchor="start" x="583" y="-567.88" font-family="Roboto" font-size="10.00">Urho3D::PODVector&lt;</text>
<text text-anchor="middle" x="629.5" y="-556.88" font-family="Roboto" font-size="10.00"> Urho3D::Object * &gt;</text>
</a>
</g>
</g>
<!-- Node16&#45;&gt;Node6 -->
<g id="edge17" class="edge">
<title>Node16&#45;&gt;Node6</title>
<path fill="none" stroke="#9a32cd" stroke-dasharray="5,2" d="M695.42,-561.12C746.25,-555.18 816.26,-540.08 865,-501.88 908.86,-467.51 934.42,-402.26 942.86,-377.62"/>
<polygon fill="#9a32cd" stroke="#9a32cd" points="695.31,-557.61 685.74,-562.16 696.06,-564.57 695.31,-557.61"/>
<text text-anchor="middle" x="811.5" y="-553.88" font-family="Roboto" font-size="10.00"> eventSenders_</text>
</g>
<!-- Node17 -->
<g id="node14" class="node">
<title>Node17</title>
<g id="a_node14"><a xlink:href="class_urho3_d_1_1_vector_base.html" target="_top" xlink:title="Vector base class.">
<polygon fill="white" stroke="#666666" points="428,-622.38 322,-622.38 322,-603.38 428,-603.38 428,-622.38"/>
<text text-anchor="middle" x="375" y="-610.38" font-family="Roboto" font-size="10.00">Urho3D::VectorBase</text>
</a>
</g>
</g>
<!-- Node17&#45;&gt;Node16 -->
<g id="edge18" class="edge">
<title>Node17&#45;&gt;Node16</title>
<path fill="none" stroke="#63b8ff" d="M439.44,-600.82C481.07,-592.91 534.93,-582.67 574.51,-575.15"/>
<polygon fill="#63b8ff" stroke="#63b8ff" points="438.98,-597.35 429.81,-602.65 440.28,-604.22 438.98,-597.35"/>
</g>
<!-- Node18 -->
<g id="node15" class="node">
<title>Node18</title>
<g id="a_node15"><a xlink:href="class_urho3_d_1_1_p_o_d_vector.html" target="_top" xlink:title=" ">
<polygon fill="white" stroke="#666666" points="686.5,-531.88 572.5,-531.88 572.5,-501.88 686.5,-501.88 686.5,-531.88"/>
<text text-anchor="start" x="580.5" y="-519.88" font-family="Roboto" font-size="10.00">Urho3D::PODVector&lt;</text>
<text text-anchor="middle" x="629.5" y="-508.88" font-family="Roboto" font-size="10.00"> Urho3D::HashMap * &gt;</text>
</a>
</g>
</g>
<!-- Node17&#45;&gt;Node18 -->
<g id="edge20" class="edge">
<title>Node17&#45;&gt;Node18</title>
<path fill="none" stroke="#63b8ff" d="M401.92,-597.33C429.92,-581.13 476.26,-556.05 519,-540.88 535.87,-534.89 554.76,-530.11 572.04,-526.44"/>
<polygon fill="#63b8ff" stroke="#63b8ff" points="400.3,-594.22 393.44,-602.29 403.84,-600.26 400.3,-594.22"/>
</g>
<!-- Node27 -->
<g id="node23" class="node">
<title>Node27</title>
<g id="a_node23"><a xlink:href="class_urho3_d_1_1_vector.html" target="_top" xlink:title=" ">
<polygon fill="white" stroke="#666666" points="692,-627.88 567,-627.88 567,-597.88 692,-597.88 692,-627.88"/>
<text text-anchor="start" x="575" y="-615.88" font-family="Roboto" font-size="10.00">Urho3D::Vector&lt; Urho3D</text>
<text text-anchor="middle" x="629.5" y="-604.88" font-family="Roboto" font-size="10.00">::VAnimKeyFrame &gt;</text>
</a>
</g>
</g>
<!-- Node17&#45;&gt;Node27 -->
<g id="edge36" class="edge">
<title>Node17&#45;&gt;Node27</title>
<path fill="none" stroke="#63b8ff" d="M439.79,-612.88C478.76,-612.88 528.34,-612.88 566.9,-612.88"/>
<polygon fill="#63b8ff" stroke="#63b8ff" points="439.83,-609.38 429.83,-612.88 439.83,-616.38 439.83,-609.38"/>
</g>
<!-- Node28 -->
<g id="node24" class="node">
<title>Node28</title>
<g id="a_node24"><a xlink:href="class_urho3_d_1_1_vector.html" target="_top" xlink:title=" ">
<polygon fill="white" stroke="#666666" points="694.5,-760.38 564.5,-760.38 564.5,-741.38 694.5,-741.38 694.5,-760.38"/>
<text text-anchor="middle" x="629.5" y="-748.38" font-family="Roboto" font-size="10.00">Urho3D::Vector&lt; Variant &gt;</text>
</a>
</g>
</g>
<!-- Node17&#45;&gt;Node28 -->
<g id="edge38" class="edge">
<title>Node17&#45;&gt;Node28</title>
<path fill="none" stroke="#63b8ff" d="M392.77,-630.65C417.78,-656.04 467.46,-702.34 519,-726.88 532.97,-733.53 548.82,-738.37 564.04,-741.87"/>
<polygon fill="#63b8ff" stroke="#63b8ff" points="395.51,-628.45 386.04,-623.7 390.48,-633.32 395.51,-628.45"/>
</g>
<!-- Node29 -->
<g id="node25" class="node">
<title>Node29</title>
<g id="a_node25"><a xlink:href="class_urho3_d_1_1_vector.html" target="_top" xlink:title=" ">
<polygon fill="white" stroke="#666666" points="692,-675.88 567,-675.88 567,-645.88 692,-645.88 692,-675.88"/>
<text text-anchor="start" x="575" y="-663.88" font-family="Roboto" font-size="10.00">Urho3D::Vector&lt; Urho3D</text>
<text text-anchor="middle" x="629.5" y="-652.88" font-family="Roboto" font-size="10.00">::VAnimEventFrame &gt;</text>
</a>
</g>
</g>
<!-- Node17&#45;&gt;Node29 -->
<g id="edge40" class="edge">
<title>Node17&#45;&gt;Node29</title>
<path fill="none" stroke="#63b8ff" d="M436.4,-625.01C439.65,-625.65 442.86,-626.28 446,-626.88 486.19,-634.64 531.42,-643.07 566.79,-649.6"/>
<polygon fill="#63b8ff" stroke="#63b8ff" points="437.29,-621.62 426.8,-623.12 435.94,-628.49 437.29,-621.62"/>
</g>
<!-- Node18&#45;&gt;Node6 -->
<g id="edge19" class="edge">
<title>Node18&#45;&gt;Node6</title>
<path fill="none" stroke="#9a32cd" stroke-dasharray="5,2" d="M698.05,-504.01C747.1,-492.52 813.59,-472.39 865,-439.88 893.94,-421.58 922.67,-392.91 936.86,-377.87"/>
<polygon fill="#9a32cd" stroke="#9a32cd" points="697.38,-500.57 688.4,-506.2 698.93,-507.4 697.38,-500.57"/>
<text text-anchor="middle" x="811.5" y="-489.88" font-family="Roboto" font-size="10.00"> eventDataMaps_</text>
</g>
<!-- Node19&#45;&gt;Node6 -->
<g id="edge21" class="edge">
<title>Node19&#45;&gt;Node6</title>
<path fill="none" stroke="#9a32cd" stroke-dasharray="5,2" d="M697.73,-788.78C713.32,-785.84 728.65,-779.92 740,-768.88 768.93,-740.74 729.38,-708.34 758,-679.88 792.37,-645.71 829.43,-691.79 865,-658.88 908.4,-618.73 938.19,-423.52 944.67,-377.58"/>
<polygon fill="#9a32cd" stroke="#9a32cd" points="697.28,-785.31 687.88,-790.21 698.28,-792.23 697.28,-785.31"/>
<text text-anchor="middle" x="811.5" y="-682.88" font-family="Roboto" font-size="10.00"> eventHandler_</text>
</g>
<!-- Node24 -->
<g id="node20" class="node">
<title>Node24</title>
<g id="a_node20"><a xlink:href="class_urho3_d_1_1_linked_list.html" target="_top" xlink:title=" ">
<polygon fill="white" stroke="#666666" points="1011,-835.88 883,-835.88 883,-805.88 1011,-805.88 1011,-835.88"/>
<text text-anchor="start" x="891" y="-823.88" font-family="Roboto" font-size="10.00">Urho3D::LinkedList</text>
<text text-anchor="middle" x="947" y="-812.88" font-family="Roboto" font-size="10.00">&lt; Urho3D::EventHandler &gt;</text>
</a>
</g>
</g>
<!-- Node19&#45;&gt;Node24 -->
<g id="edge30" class="edge">
<title>Node19&#45;&gt;Node24</title>
<path fill="none" stroke="#9a32cd" stroke-dasharray="5,2" d="M697.28,-792.83C744.26,-796.56 808.57,-802.18 865,-808.88 870.79,-809.57 876.8,-810.34 882.81,-811.16"/>
<polygon fill="#9a32cd" stroke="#9a32cd" points="697.78,-789.36 687.54,-792.06 697.23,-796.34 697.78,-789.36"/>
<text text-anchor="middle" x="811.5" y="-811.88" font-family="Roboto" font-size="10.00"> head_</text>
</g>
<!-- Node21 -->
<g id="node17" class="node">
<title>Node21</title>
<g id="a_node17"><a xlink:href="class_urho3_d_1_1_string_hash.html" target="_top" xlink:title="32&#45;bit hash value for a string.">
<polygon fill="white" stroke="#666666" points="427,-843.38 323,-843.38 323,-824.38 427,-824.38 427,-843.38"/>
<text text-anchor="middle" x="375" y="-831.38" font-family="Roboto" font-size="10.00">Urho3D::StringHash</text>
</a>
</g>
</g>
<!-- Node21&#45;&gt;Node2 -->
<g id="edge33" class="edge">
<title>Node21&#45;&gt;Node2</title>
<path fill="none" stroke="#9a32cd" stroke-dasharray="5,2" d="M401.02,-849.51C413.98,-856.87 430.33,-865.08 446,-869.88 490.55,-883.54 543.64,-888.77 581.05,-890.75"/>
<polygon fill="#9a32cd" stroke="#9a32cd" points="403.14,-846.69 392.74,-844.63 399.58,-852.72 403.14,-846.69"/>
<text text-anchor="middle" x="473.5" y="-885.88" font-family="Roboto" font-size="10.00"> nameHash_</text>
</g>
<!-- Node21&#45;&gt;Node19 -->
<g id="edge23" class="edge">
<title>Node21&#45;&gt;Node19</title>
<path fill="none" stroke="#9a32cd" stroke-dasharray="5,2" d="M438.47,-822.5C479.95,-814.95 533.87,-805.12 573.67,-797.87"/>
<polygon fill="#9a32cd" stroke="#9a32cd" points="438.1,-819.01 428.89,-824.25 439.36,-825.9 438.1,-819.01"/>
<text text-anchor="middle" x="473.5" y="-823.88" font-family="Roboto" font-size="10.00"> eventType_</text>
</g>
<!-- Node21&#45;&gt;Node21 -->
<g id="edge24" class="edge">
<title>Node21&#45;&gt;Node21</title>
<path fill="none" stroke="#9a32cd" stroke-dasharray="5,2" d="M362.45,-855.14C364.14,-858.82 368.32,-861.38 375,-861.38 387.57,-861.38 391.3,-852.32 386.19,-843.75"/>
<polygon fill="#9a32cd" stroke="#9a32cd" points="365.92,-855.6 363.63,-845.25 358.97,-854.77 365.92,-855.6"/>
<text text-anchor="middle" x="375" y="-864.38" font-family="Roboto" font-size="10.00"> ZERO</text>
</g>
<!-- Node22&#45;&gt;Node6 -->
<g id="edge25" class="edge">
<title>Node22&#45;&gt;Node6</title>
<path fill="none" stroke="#9a32cd" stroke-dasharray="5,2" d="M710.45,-334.29C771.25,-342.96 852.61,-354.56 902.07,-361.62"/>
<polygon fill="#9a32cd" stroke="#9a32cd" points="711.24,-330.86 700.85,-332.92 710.25,-337.79 711.24,-330.86"/>
<text text-anchor="middle" x="811.5" y="-358.88" font-family="Roboto" font-size="10.00"> objectCategories_</text>
</g>
<!-- Node23&#45;&gt;Node6 -->
<g id="edge27" class="edge">
<title>Node23&#45;&gt;Node6</title>
<path fill="none" stroke="#9a32cd" stroke-dasharray="5,2" d="M718.87,-285.29C763.5,-294.93 818,-308.81 865,-326.88 887.95,-335.71 913.01,-349 929.08,-358.04"/>
<polygon fill="#9a32cd" stroke="#9a32cd" points="719.74,-281.89 709.23,-283.24 718.29,-288.74 719.74,-281.89"/>
<text text-anchor="middle" x="811.5" y="-329.88" font-family="Roboto" font-size="10.00"> globalVars_</text>
</g>
<!-- Node24&#45;&gt;Node3 -->
<g id="edge29" class="edge">
<title>Node24&#45;&gt;Node3</title>
<path fill="none" stroke="#9a32cd" stroke-dasharray="5,2" d="M871.31,-835.84C771.2,-852.55 589.47,-871.07 446,-819.88 419.43,-810.4 395.62,-786.07 383.82,-772.46"/>
<polygon fill="#9a32cd" stroke="#9a32cd" points="871.76,-839.31 881.03,-834.17 870.58,-832.41 871.76,-839.31"/>
<text text-anchor="middle" x="629.5" y="-856.88" font-family="Roboto" font-size="10.00"> eventHandlers_</text>
</g>
<!-- Node25 -->
<g id="node21" class="node">
<title>Node25</title>
<g id="a_node21"><a xlink:href="class_urho3_d_1_1_string.html" target="_top" xlink:title="String class.">
<polygon fill="white" stroke="#666666" points="415,-972.38 335,-972.38 335,-953.38 415,-953.38 415,-972.38"/>
<text text-anchor="middle" x="375" y="-960.38" font-family="Roboto" font-size="10.00">Urho3D::String</text>
</a>
</g>
</g>
<!-- Node25&#45;&gt;Node2 -->
<g id="edge31" class="edge">
<title>Node25&#45;&gt;Node2</title>
<path fill="none" stroke="#9a32cd" stroke-dasharray="5,2" d="M426.41,-950.54C449.25,-944.81 476.55,-937.75 501,-930.88 534.09,-921.59 571.7,-909.96 597.44,-901.82"/>
<polygon fill="#9a32cd" stroke="#9a32cd" points="425.58,-947.14 416.72,-952.96 427.27,-953.93 425.58,-947.14"/>
<text text-anchor="middle" x="473.5" y="-948.88" font-family="Roboto" font-size="10.00"> name_</text>
</g>
<!-- Node25&#45;&gt;Node25 -->
<g id="edge32" class="edge">
<title>Node25&#45;&gt;Node25</title>
<path fill="none" stroke="#9a32cd" stroke-dasharray="5,2" d="M362.45,-984.14C364.14,-987.82 368.32,-990.38 375,-990.38 387.57,-990.38 391.3,-981.32 386.19,-972.75"/>
<polygon fill="#9a32cd" stroke="#9a32cd" points="365.92,-984.6 363.63,-974.25 358.97,-983.77 365.92,-984.6"/>
<text text-anchor="middle" x="375" y="-993.38" font-family="Roboto" font-size="10.00"> EMPTY</text>
</g>
<!-- Node26 -->
<g id="node22" class="node">
<title>Node26</title>
<g id="a_node22"><a xlink:href="class_urho3_d_1_1_timer.html" target="_top" xlink:title="Low&#45;resolution operating system timer.">
<polygon fill="white" stroke="#666666" points="415.5,-935.38 334.5,-935.38 334.5,-916.38 415.5,-916.38 415.5,-935.38"/>
<text text-anchor="middle" x="375" y="-923.38" font-family="Roboto" font-size="10.00">Urho3D::Timer</text>
</a>
</g>
</g>
<!-- Node26&#45;&gt;Node2 -->
<g id="edge34" class="edge">
<title>Node26&#45;&gt;Node2</title>
<path fill="none" stroke="#9a32cd" stroke-dasharray="5,2" d="M427.02,-919.01C472.11,-912.94 537.35,-904.16 581.26,-898.24"/>
<polygon fill="#9a32cd" stroke="#9a32cd" points="426.67,-915.53 417.23,-920.33 427.61,-922.46 426.67,-915.53"/>
<text text-anchor="middle" x="473.5" y="-918.88" font-family="Roboto" font-size="10.00"> useTimer_</text>
</g>
<!-- Node27&#45;&gt;Node1 -->
<g id="edge35" class="edge">
<title>Node27&#45;&gt;Node1</title>
<path fill="none" stroke="#9a32cd" stroke-dasharray="5,2" d="M703.63,-611.82C751.87,-613.92 815.12,-622.18 865,-647.88 899.58,-665.7 927.85,-704.04 939.83,-722.1"/>
<polygon fill="#9a32cd" stroke="#9a32cd" points="703.96,-608.33 693.84,-611.48 703.72,-615.33 703.96,-608.33"/>
<text text-anchor="middle" x="811.5" y="-650.88" font-family="Roboto" font-size="10.00"> keyFrames_</text>
</g>
<!-- Node28&#45;&gt;Node1 -->
<g id="edge37" class="edge">
<title>Node28&#45;&gt;Node1</title>
<path fill="none" stroke="#9a32cd" stroke-dasharray="5,2" d="M706.09,-746.33C760.69,-743.04 833.51,-738.66 884.55,-735.58"/>
<polygon fill="#9a32cd" stroke="#9a32cd" points="706.01,-742.83 696.24,-746.92 706.43,-749.82 706.01,-742.83"/>
<text text-anchor="middle" x="811.5" y="-746.88" font-family="Roboto" font-size="10.00"> splineTangents_</text>
</g>
<!-- Node29&#45;&gt;Node1 -->
<g id="edge39" class="edge">
<title>Node29&#45;&gt;Node1</title>
<path fill="none" stroke="#9a32cd" stroke-dasharray="5,2" d="M701.05,-679.14C719.55,-683.78 739.49,-688.64 758,-692.88 804.3,-703.49 857.31,-714.37 895.21,-721.94"/>
<polygon fill="#9a32cd" stroke="#9a32cd" points="702.07,-675.79 691.52,-676.74 700.36,-682.58 702.07,-675.79"/>
<text text-anchor="middle" x="811.5" y="-718.88" font-family="Roboto" font-size="10.00"> eventFrames_</text>
</g>
</g>
</svg>
