<?xml version="1.0" encoding="UTF-8" standalone="no"?>
<!DOCTYPE svg PUBLIC "-//W3C//DTD SVG 1.1//EN"
 "http://www.w3.org/Graphics/SVG/1.1/DTD/svg11.dtd">
<!-- Generated by graphviz version 7.0.3 (0)
 -->
<!-- Title: Urho3D::UIElement::GetCombinedScreenRect Pages: 1 -->
<svg width="386pt" height="56pt"
 viewBox="0.00 0.00 386.00 56.00" xmlns="http://www.w3.org/2000/svg" xmlns:xlink="http://www.w3.org/1999/xlink">
<g id="graph0" class="graph" transform="scale(1 1) rotate(0) translate(4 52)">
<title>Urho3D::UIElement::GetCombinedScreenRect</title>
<!-- Node1 -->
<g id="node1" class="node">
<title>Node1</title>
<g id="a_node1"><a xlink:title=" ">
<polygon fill="#999999" stroke="#666666" points="127,-30 0,-30 0,0 127,0 127,-30"/>
<text text-anchor="start" x="8" y="-18" font-family="Roboto" font-size="10.00">Urho3D::UIElement::</text>
<text text-anchor="middle" x="63.5" y="-7" font-family="Roboto" font-size="10.00">GetCombinedScreenRect</text>
</a>
</g>
</g>
<!-- Node2 -->
<g id="node2" class="node">
<title>Node2</title>
<g id="a_node2"><a xlink:href="class_urho3_d_1_1_u_i_element.html#a031e2acb1765a940b9427003cb8653d7" target="_top" xlink:title=" ">
<polygon fill="white" stroke="#666666" points="268,-30 163,-30 163,0 268,0 268,-30"/>
<text text-anchor="start" x="171" y="-18" font-family="Roboto" font-size="10.00">Urho3D::UIElement::</text>
<text text-anchor="middle" x="215.5" y="-7" font-family="Roboto" font-size="10.00">GetScreenPosition</text>
</a>
</g>
</g>
<!-- Node1&#45;&gt;Node2 -->
<g id="edge1" class="edge">
<title>Node1&#45;&gt;Node2</title>
<path fill="none" stroke="#63b8ff" d="M127.24,-15C135.32,-15 143.59,-15 151.67,-15"/>
<polygon fill="#63b8ff" stroke="#63b8ff" points="151.4,-18.5 161.4,-15 151.4,-11.5 151.4,-18.5"/>
</g>
<!-- Node2&#45;&gt;Node2 -->
<g id="edge2" class="edge">
<title>Node2&#45;&gt;Node2</title>
<path fill="none" stroke="#63b8ff" d="M193.44,-30.28C188.54,-39.41 195.89,-48 215.5,-48 226.22,-48 233.28,-45.43 236.68,-41.61"/>
<polygon fill="#63b8ff" stroke="#63b8ff" points="240.15,-42.03 237.44,-31.78 233.17,-41.48 240.15,-42.03"/>
</g>
<!-- Node3 -->
<g id="node3" class="node">
<title>Node3</title>
<g id="a_node3"><a xlink:href="_math_defs_8h.html#a881de829a2aa2700593840d5a6978046" target="_top" xlink:title=" ">
<polygon fill="white" stroke="#666666" points="378,-24.5 304,-24.5 304,-5.5 378,-5.5 378,-24.5"/>
<text text-anchor="middle" x="341" y="-12.5" font-family="Roboto" font-size="10.00">Urho3D::Lerp</text>
</a>
</g>
</g>
<!-- Node2&#45;&gt;Node3 -->
<g id="edge3" class="edge">
<title>Node2&#45;&gt;Node3</title>
<path fill="none" stroke="#63b8ff" d="M268.16,-15C276.15,-15 284.38,-15 292.28,-15"/>
<polygon fill="#63b8ff" stroke="#63b8ff" points="292.05,-18.5 302.05,-15 292.05,-11.5 292.05,-18.5"/>
</g>
<!-- Node3&#45;&gt;Node3 -->
<g id="edge4" class="edge">
<title>Node3&#45;&gt;Node3</title>
<path fill="none" stroke="#63b8ff" d="M321.35,-24.87C312.39,-33.44 318.94,-42.5 341,-42.5 353.06,-42.5 360.49,-39.79 363.28,-35.93"/>
<polygon fill="#63b8ff" stroke="#63b8ff" points="366.71,-35.26 361,-26.34 359.9,-36.88 366.71,-35.26"/>
</g>
</g>
</svg>
