<?xml version="1.0" encoding="UTF-8" standalone="no"?>
<!DOCTYPE svg PUBLIC "-//W3C//DTD SVG 1.1//EN"
 "http://www.w3.org/Graphics/SVG/1.1/DTD/svg11.dtd">
<!-- Generated by graphviz version 7.0.3 (0)
 -->
<!-- Title: Urho3D::AnimationController::OnSetEnabled Pages: 1 -->
<svg width="1018pt" height="650pt"
 viewBox="0.00 0.00 1018.00 650.48" xmlns="http://www.w3.org/2000/svg" xmlns:xlink="http://www.w3.org/1999/xlink">
<g id="graph0" class="graph" transform="scale(1 1) rotate(0) translate(4 646.48)">
<title>Urho3D::AnimationController::OnSetEnabled</title>
<!-- Node1 -->
<g id="node1" class="node">
<title>Node1</title>
<g id="a_node1"><a xlink:title="Handle enabled/disabled state change.">
<polygon fill="#999999" stroke="#666666" points="143,-312 0,-312 0,-282 143,-282 143,-312"/>
<text text-anchor="start" x="8" y="-300" font-family="Roboto" font-size="10.00">Urho3D::AnimationController</text>
<text text-anchor="middle" x="71.5" y="-289" font-family="Roboto" font-size="10.00">::OnSetEnabled</text>
</a>
</g>
</g>
<!-- Node2 -->
<g id="node2" class="node">
<title>Node2</title>
<g id="a_node2"><a xlink:href="class_urho3_d_1_1_component.html#a2c22f727341671a0420934f249ffe059" target="_top" xlink:title="Return the scene the node belongs to.">
<polygon fill="white" stroke="#666666" points="842.5,-634 731.5,-634 731.5,-604 842.5,-604 842.5,-634"/>
<text text-anchor="start" x="739.5" y="-622" font-family="Roboto" font-size="10.00">Urho3D::Component::</text>
<text text-anchor="middle" x="787" y="-611" font-family="Roboto" font-size="10.00">GetScene</text>
</a>
</g>
</g>
<!-- Node1&#45;&gt;Node2 -->
<g id="edge1" class="edge">
<title>Node1&#45;&gt;Node2</title>
<path fill="none" stroke="#63b8ff" d="M86.52,-312.24C139.69,-368.73 336.61,-566.29 547,-631 603.55,-648.39 671.14,-642.72 719.99,-634.26"/>
<polygon fill="#63b8ff" stroke="#63b8ff" points="720.35,-637.76 729.56,-632.52 719.1,-630.87 720.35,-637.76"/>
</g>
<!-- Node4 -->
<g id="node4" class="node">
<title>Node4</title>
<g id="a_node4"><a xlink:href="class_urho3_d_1_1_animation_controller.html#abe3fe1fb76d6500d50c5c58af6048a9c" target="_top" xlink:title="Handle scene post&#45;update event.">
<polygon fill="white" stroke="#666666" points="322,-372 179,-372 179,-342 322,-342 322,-372"/>
<text text-anchor="start" x="187" y="-360" font-family="Roboto" font-size="10.00">Urho3D::AnimationController</text>
<text text-anchor="middle" x="250.5" y="-349" font-family="Roboto" font-size="10.00">::HandleScenePostUpdate</text>
</a>
</g>
</g>
<!-- Node1&#45;&gt;Node4 -->
<g id="edge3" class="edge">
<title>Node1&#45;&gt;Node4</title>
<path fill="none" stroke="#63b8ff" d="M118.08,-312.45C141,-320.22 168.98,-329.71 193.23,-337.92"/>
<polygon fill="#63b8ff" stroke="#63b8ff" points="192.04,-341.22 202.64,-341.11 194.29,-334.59 192.04,-341.22"/>
</g>
<!-- Node26 -->
<g id="node16" class="node">
<title>Node26</title>
<g id="a_node16"><a xlink:href="class_urho3_d_1_1_component.html#aafa7952d0f225edde3387da0c91a9356" target="_top" xlink:title=" ">
<polygon fill="white" stroke="#666666" points="306,-312 195,-312 195,-282 306,-282 306,-312"/>
<text text-anchor="start" x="203" y="-300" font-family="Roboto" font-size="10.00">Urho3D::Component::</text>
<text text-anchor="middle" x="250.5" y="-289" font-family="Roboto" font-size="10.00">IsEnabledEffective</text>
</a>
</g>
</g>
<!-- Node1&#45;&gt;Node26 -->
<g id="edge20" class="edge">
<title>Node1&#45;&gt;Node26</title>
<path fill="none" stroke="#63b8ff" d="M143.47,-297C156.64,-297 170.35,-297 183.36,-297"/>
<polygon fill="#63b8ff" stroke="#63b8ff" points="183.08,-300.5 193.08,-297 183.08,-293.5 183.08,-300.5"/>
</g>
<!-- Node28 -->
<g id="node18" class="node">
<title>Node28</title>
<g id="a_node18"><a xlink:href="class_urho3_d_1_1_object.html#a7d9d061f4cf32f5fd5531e11a72834b6" target="_top" xlink:title="Subscribe to an event that can be sent by any sender.">
<polygon fill="white" stroke="#666666" points="316,-241 185,-241 185,-211 316,-211 316,-241"/>
<text text-anchor="start" x="193" y="-229" font-family="Roboto" font-size="10.00">Urho3D::Object::Subscribe</text>
<text text-anchor="middle" x="250.5" y="-218" font-family="Roboto" font-size="10.00">ToEvent</text>
</a>
</g>
</g>
<!-- Node1&#45;&gt;Node28 -->
<g id="edge22" class="edge">
<title>Node1&#45;&gt;Node28</title>
<path fill="none" stroke="#63b8ff" d="M110.91,-281.59C137.14,-271.07 172.13,-257.03 200.39,-245.7"/>
<polygon fill="#63b8ff" stroke="#63b8ff" points="201.48,-249.03 209.46,-242.06 198.87,-242.54 201.48,-249.03"/>
</g>
<!-- Node33 -->
<g id="node23" class="node">
<title>Node33</title>
<g id="a_node23"><a xlink:href="class_urho3_d_1_1_object.html#a153b96c4397e045b2ca2b2d5471d097c" target="_top" xlink:title="Unsubscribe from an event.">
<polygon fill="white" stroke="#666666" points="321.5,-100 179.5,-100 179.5,-70 321.5,-70 321.5,-100"/>
<text text-anchor="start" x="187.5" y="-88" font-family="Roboto" font-size="10.00">Urho3D::Object::Unsubscribe</text>
<text text-anchor="middle" x="250.5" y="-77" font-family="Roboto" font-size="10.00">FromEvent</text>
</a>
</g>
</g>
<!-- Node1&#45;&gt;Node33 -->
<g id="edge27" class="edge">
<title>Node1&#45;&gt;Node33</title>
<path fill="none" stroke="#63b8ff" d="M85.23,-281.75C115.64,-245.32 192.73,-152.99 229.46,-109.01"/>
<polygon fill="#63b8ff" stroke="#63b8ff" points="231.96,-111.47 235.68,-101.56 226.58,-106.99 231.96,-111.47"/>
</g>
<!-- Node3 -->
<g id="node3" class="node">
<title>Node3</title>
<g id="a_node3"><a xlink:href="class_urho3_d_1_1_node.html#ad3742cda838a2b291daa44d3ab00de56" target="_top" xlink:title=" ">
<polygon fill="white" stroke="#666666" points="1010,-628.5 884,-628.5 884,-609.5 1010,-609.5 1010,-628.5"/>
<text text-anchor="middle" x="947" y="-616.5" font-family="Roboto" font-size="10.00">Urho3D::Node::GetScene</text>
</a>
</g>
</g>
<!-- Node2&#45;&gt;Node3 -->
<g id="edge2" class="edge">
<title>Node2&#45;&gt;Node3</title>
<path fill="none" stroke="#63b8ff" d="M842.82,-619C852.4,-619 862.51,-619 872.5,-619"/>
<polygon fill="#63b8ff" stroke="#63b8ff" points="872.19,-622.5 882.19,-619 872.19,-615.5 872.19,-622.5"/>
</g>
<!-- Node5 -->
<g id="node5" class="node">
<title>Node5</title>
<g id="a_node5"><a xlink:href="class_urho3_d_1_1_animation_controller.html#a4883f39485a8da9bf5488101c3a99875" target="_top" xlink:title="Update the animations. Is called from HandleScenePostUpdate().">
<polygon fill="#fff0f0" stroke="red" points="506,-374 363,-374 363,-344 506,-344 506,-374"/>
<text text-anchor="start" x="371" y="-362" font-family="Roboto" font-size="10.00">Urho3D::AnimationController</text>
<text text-anchor="middle" x="434.5" y="-351" font-family="Roboto" font-size="10.00">::Update</text>
</a>
</g>
</g>
<!-- Node4&#45;&gt;Node5 -->
<g id="edge4" class="edge">
<title>Node4&#45;&gt;Node5</title>
<path fill="none" stroke="#63b8ff" d="M322.39,-357.78C331.86,-357.88 341.63,-357.99 351.27,-358.1"/>
<polygon fill="#63b8ff" stroke="#63b8ff" points="350.96,-361.59 360.99,-358.2 351.03,-354.59 350.96,-361.59"/>
</g>
<!-- Node6 -->
<g id="node6" class="node">
<title>Node6</title>
<g id="a_node6"><a xlink:href="class_urho3_d_1_1_animation_state.html#a7ae6a442fb5681d75cefe81ebbad19e8" target="_top" xlink:title="Modify time position. Animation triggers will be fired.">
<polygon fill="#fff0f0" stroke="red" points="679.5,-536 557.5,-536 557.5,-506 679.5,-506 679.5,-536"/>
<text text-anchor="start" x="565.5" y="-524" font-family="Roboto" font-size="10.00">Urho3D::AnimationState</text>
<text text-anchor="middle" x="618.5" y="-513" font-family="Roboto" font-size="10.00">::AddTime</text>
</a>
</g>
</g>
<!-- Node5&#45;&gt;Node6 -->
<g id="edge5" class="edge">
<title>Node5&#45;&gt;Node6</title>
<path fill="none" stroke="#63b8ff" d="M443.83,-374.21C460.04,-402.44 498.52,-463.14 547,-497 548.6,-498.12 550.26,-499.19 551.97,-500.22"/>
<polygon fill="#63b8ff" stroke="#63b8ff" points="550.31,-503.3 560.79,-504.88 553.58,-497.11 550.31,-503.3"/>
</g>
<!-- Node11 -->
<g id="node7" class="node">
<title>Node11</title>
<g id="a_node7"><a xlink:href="class_urho3_d_1_1_animation_state.html#a4f496b0b2a5ccbef5145c65ba4970685" target="_top" xlink:title=" ">
<polygon fill="white" stroke="#666666" points="848,-567 726,-567 726,-537 848,-537 848,-567"/>
<text text-anchor="start" x="734" y="-555" font-family="Roboto" font-size="10.00">Urho3D::AnimationState</text>
<text text-anchor="middle" x="787" y="-544" font-family="Roboto" font-size="10.00">::GetTime</text>
</a>
</g>
</g>
<!-- Node5&#45;&gt;Node11 -->
<g id="edge10" class="edge">
<title>Node5&#45;&gt;Node11</title>
<path fill="none" stroke="#63b8ff" d="M439.3,-374.37C449.43,-411.58 480.9,-506.27 547,-545 597.28,-574.46 664.28,-573.72 714.55,-567.03"/>
<polygon fill="#63b8ff" stroke="#63b8ff" points="714.76,-570.54 724.16,-565.64 713.76,-563.61 714.76,-570.54"/>
</g>
<!-- Node14 -->
<g id="node8" class="node">
<title>Node14</title>
<g id="a_node8"><a xlink:href="class_urho3_d_1_1_animation_controller.html#ab7c526940715e7410981aabbb483f890" target="_top" xlink:title="Find an animation state by animation name.">
<polygon fill="white" stroke="#666666" points="690,-470 547,-470 547,-440 690,-440 690,-470"/>
<text text-anchor="start" x="555" y="-458" font-family="Roboto" font-size="10.00">Urho3D::AnimationController</text>
<text text-anchor="middle" x="618.5" y="-447" font-family="Roboto" font-size="10.00">::GetAnimationState</text>
</a>
</g>
</g>
<!-- Node5&#45;&gt;Node14 -->
<g id="edge7" class="edge">
<title>Node5&#45;&gt;Node14</title>
<path fill="none" stroke="#63b8ff" d="M455.97,-374.42C477.67,-390.23 513.4,-414.74 547,-431 550.1,-432.5 553.32,-433.95 556.6,-435.34"/>
<polygon fill="#63b8ff" stroke="#63b8ff" points="555.21,-438.55 565.8,-439.01 557.81,-432.05 555.21,-438.55"/>
</g>
<!-- Node15 -->
<g id="node9" class="node">
<title>Node15</title>
<g id="a_node9"><a xlink:href="class_urho3_d_1_1_animation_state.html#ae5df1e6ad1d6bcb25f5fd69ff18ebc59" target="_top" xlink:title=" ">
<polygon fill="white" stroke="#666666" points="679.5,-422 557.5,-422 557.5,-392 679.5,-392 679.5,-422"/>
<text text-anchor="start" x="565.5" y="-410" font-family="Roboto" font-size="10.00">Urho3D::AnimationState</text>
<text text-anchor="middle" x="618.5" y="-399" font-family="Roboto" font-size="10.00">::GetLength</text>
</a>
</g>
</g>
<!-- Node5&#45;&gt;Node15 -->
<g id="edge9" class="edge">
<title>Node5&#45;&gt;Node15</title>
<path fill="none" stroke="#63b8ff" d="M494.09,-374.45C511.3,-378.99 530.29,-384 548.11,-388.7"/>
<polygon fill="#63b8ff" stroke="#63b8ff" points="547,-392.03 557.56,-391.19 548.78,-385.26 547,-392.03"/>
</g>
<!-- Node16 -->
<g id="node10" class="node">
<title>Node16</title>
<g id="a_node10"><a xlink:href="class_urho3_d_1_1_animation_state.html#aa3418074b845e542074341c2a5e8da9e" target="_top" xlink:title=" ">
<polygon fill="white" stroke="#666666" points="679.5,-374 557.5,-374 557.5,-344 679.5,-344 679.5,-374"/>
<text text-anchor="start" x="565.5" y="-362" font-family="Roboto" font-size="10.00">Urho3D::AnimationState</text>
<text text-anchor="middle" x="618.5" y="-351" font-family="Roboto" font-size="10.00">::GetWeight</text>
</a>
</g>
</g>
<!-- Node5&#45;&gt;Node16 -->
<g id="edge11" class="edge">
<title>Node5&#45;&gt;Node16</title>
<path fill="none" stroke="#63b8ff" d="M506.39,-359C519.36,-359 532.9,-359 545.89,-359"/>
<polygon fill="#63b8ff" stroke="#63b8ff" points="545.62,-362.5 555.62,-359 545.62,-355.5 545.62,-362.5"/>
</g>
<!-- Node17 -->
<g id="node11" class="node">
<title>Node17</title>
<g id="a_node11"><a xlink:href="class_urho3_d_1_1_animation_state.html#a17237854b026d01be8df8b0f2d2a3c7f" target="_top" xlink:title=" ">
<polygon fill="white" stroke="#666666" points="679.5,-326 557.5,-326 557.5,-296 679.5,-296 679.5,-326"/>
<text text-anchor="start" x="565.5" y="-314" font-family="Roboto" font-size="10.00">Urho3D::AnimationState</text>
<text text-anchor="middle" x="618.5" y="-303" font-family="Roboto" font-size="10.00">::IsLooped</text>
</a>
</g>
</g>
<!-- Node5&#45;&gt;Node17 -->
<g id="edge12" class="edge">
<title>Node5&#45;&gt;Node17</title>
<path fill="none" stroke="#63b8ff" d="M494.09,-343.55C511.3,-339.01 530.29,-334 548.11,-329.3"/>
<polygon fill="#63b8ff" stroke="#63b8ff" points="548.78,-332.74 557.56,-326.81 547,-325.97 548.78,-332.74"/>
</g>
<!-- Node18 -->
<g id="node12" class="node">
<title>Node18</title>
<g id="a_node12"><a xlink:href="class_urho3_d_1_1_component.html#aaf87acb64001774c62f0784254f9b291" target="_top" xlink:title="Mark for attribute check on the next network update.">
<polygon fill="#fff0f0" stroke="red" points="674,-622 563,-622 563,-592 674,-592 674,-622"/>
<text text-anchor="start" x="571" y="-610" font-family="Roboto" font-size="10.00">Urho3D::Component::</text>
<text text-anchor="middle" x="618.5" y="-599" font-family="Roboto" font-size="10.00">MarkNetworkUpdate</text>
</a>
</g>
</g>
<!-- Node5&#45;&gt;Node18 -->
<g id="edge13" class="edge">
<title>Node5&#45;&gt;Node18</title>
<path fill="none" stroke="#63b8ff" d="M439.28,-374.26C449.73,-413.43 482.55,-518.55 547,-578 550.1,-580.86 553.52,-583.46 557.14,-585.81"/>
<polygon fill="#63b8ff" stroke="#63b8ff" points="555.34,-588.82 565.75,-590.75 558.82,-582.74 555.34,-588.82"/>
</g>
<!-- Node22 -->
<g id="node13" class="node">
<title>Node22</title>
<g id="a_node13"><a xlink:href="_math_defs_8h.html#a8096c22c3716e172f685af2a5f5e26bb" target="_top" xlink:title=" ">
<polygon fill="white" stroke="#666666" points="655.5,-259.5 581.5,-259.5 581.5,-240.5 655.5,-240.5 655.5,-259.5"/>
<text text-anchor="middle" x="618.5" y="-247.5" font-family="Roboto" font-size="10.00">Urho3D::Max</text>
</a>
</g>
</g>
<!-- Node5&#45;&gt;Node22 -->
<g id="edge15" class="edge">
<title>Node5&#45;&gt;Node22</title>
<path fill="none" stroke="#63b8ff" d="M465.2,-343.52C479.39,-335.77 496.41,-325.93 511,-316 527.98,-304.43 529.82,-298.27 547,-287 559.28,-278.94 573.51,-271.2 585.96,-264.9"/>
<polygon fill="#63b8ff" stroke="#63b8ff" points="587.15,-268.22 594.55,-260.64 584.04,-261.94 587.15,-268.22"/>
</g>
<!-- Node23 -->
<g id="node14" class="node">
<title>Node23</title>
<g id="a_node14"><a xlink:href="_math_defs_8h.html#a639c291adc131849b469a216007c4af5" target="_top" xlink:title=" ">
<polygon fill="white" stroke="#666666" points="654,-204.5 583,-204.5 583,-185.5 654,-185.5 654,-204.5"/>
<text text-anchor="middle" x="618.5" y="-192.5" font-family="Roboto" font-size="10.00">Urho3D::Min</text>
</a>
</g>
</g>
<!-- Node5&#45;&gt;Node23 -->
<g id="edge17" class="edge">
<title>Node5&#45;&gt;Node23</title>
<path fill="none" stroke="#63b8ff" d="M473.08,-343.7C486.41,-336.81 500.65,-327.59 511,-316 538.06,-285.71 519.43,-261.82 547,-232 555.62,-222.67 567.13,-215.28 578.35,-209.63"/>
<polygon fill="#63b8ff" stroke="#63b8ff" points="579.52,-212.94 587.11,-205.56 576.57,-206.6 579.52,-212.94"/>
</g>
<!-- Node24 -->
<g id="node15" class="node">
<title>Node24</title>
<g id="a_node15"><a xlink:href="class_urho3_d_1_1_animation_controller.html#a823a550e7e445dd9e0804da3c3f04b1a" target="_top" xlink:title="Remove an animation state.">
<polygon fill="white" stroke="#666666" points="690,-167 547,-167 547,-137 690,-137 690,-167"/>
<text text-anchor="start" x="555" y="-155" font-family="Roboto" font-size="10.00">Urho3D::AnimationController</text>
<text text-anchor="middle" x="618.5" y="-144" font-family="Roboto" font-size="10.00">::RemoveAnimationState</text>
</a>
</g>
</g>
<!-- Node5&#45;&gt;Node24 -->
<g id="edge19" class="edge">
<title>Node5&#45;&gt;Node24</title>
<path fill="none" stroke="#63b8ff" d="M475.62,-343.7C488.58,-336.98 501.92,-327.86 511,-316 549.79,-265.32 503.89,-224.05 547,-177 547.86,-176.07 548.75,-175.17 549.67,-174.3"/>
<polygon fill="#63b8ff" stroke="#63b8ff" points="551.73,-177.14 557.58,-168.3 547.5,-171.56 551.73,-177.14"/>
</g>
<!-- Node6&#45;&gt;Node11 -->
<g id="edge6" class="edge">
<title>Node6&#45;&gt;Node11</title>
<path fill="none" stroke="#63b8ff" d="M679.61,-532.19C690.98,-534.31 702.96,-536.54 714.64,-538.71"/>
<polygon fill="#63b8ff" stroke="#63b8ff" points="713.74,-542.11 724.21,-540.5 715.02,-535.22 713.74,-542.11"/>
</g>
<!-- Node14&#45;&gt;Node14 -->
<g id="edge8" class="edge">
<title>Node14&#45;&gt;Node14</title>
<path fill="none" stroke="#63b8ff" d="M588.88,-470.28C582.3,-479.41 592.17,-488 618.5,-488 632.9,-488 642.38,-485.43 646.93,-481.61"/>
<polygon fill="#63b8ff" stroke="#63b8ff" points="650.4,-482.09 647.96,-471.78 643.44,-481.36 650.4,-482.09"/>
</g>
<!-- Node18&#45;&gt;Node2 -->
<g id="edge14" class="edge">
<title>Node18&#45;&gt;Node2</title>
<path fill="none" stroke="#63b8ff" d="M674.48,-610.96C688.97,-612.01 704.76,-613.14 719.78,-614.23"/>
<polygon fill="#63b8ff" stroke="#63b8ff" points="719.34,-617.7 729.57,-614.93 719.85,-610.72 719.34,-617.7"/>
</g>
<!-- Node22&#45;&gt;Node22 -->
<g id="edge16" class="edge">
<title>Node22&#45;&gt;Node22</title>
<path fill="none" stroke="#63b8ff" d="M592.12,-259.87C580.09,-268.44 588.88,-277.5 618.5,-277.5 635.16,-277.5 645.23,-274.63 648.71,-270.6"/>
<polygon fill="#63b8ff" stroke="#63b8ff" points="652.05,-269.53 645.39,-261.29 645.46,-271.89 652.05,-269.53"/>
</g>
<!-- Node23&#45;&gt;Node23 -->
<g id="edge18" class="edge">
<title>Node23&#45;&gt;Node23</title>
<path fill="none" stroke="#63b8ff" d="M592.12,-204.87C580.09,-213.44 588.88,-222.5 618.5,-222.5 635.16,-222.5 645.23,-219.63 648.71,-215.6"/>
<polygon fill="#63b8ff" stroke="#63b8ff" points="652.05,-214.53 645.39,-206.29 645.46,-216.89 652.05,-214.53"/>
</g>
<!-- Node27 -->
<g id="node17" class="node">
<title>Node27</title>
<g id="a_node17"><a xlink:href="class_urho3_d_1_1_node.html#a36ffa108037ab29617bf178fcb4ec1da" target="_top" xlink:title=" ">
<polygon fill="white" stroke="#666666" points="498.5,-306.5 370.5,-306.5 370.5,-287.5 498.5,-287.5 498.5,-306.5"/>
<text text-anchor="middle" x="434.5" y="-294.5" font-family="Roboto" font-size="10.00">Urho3D::Node::IsEnabled</text>
</a>
</g>
</g>
<!-- Node26&#45;&gt;Node27 -->
<g id="edge21" class="edge">
<title>Node26&#45;&gt;Node27</title>
<path fill="none" stroke="#63b8ff" d="M306.11,-297C322.68,-297 341.19,-297 358.85,-297"/>
<polygon fill="#63b8ff" stroke="#63b8ff" points="358.78,-300.5 368.78,-297 358.78,-293.5 358.78,-300.5"/>
</g>
<!-- Node29 -->
<g id="node19" class="node">
<title>Node29</title>
<g id="a_node19"><a xlink:href="class_urho3_d_1_1_context.html#ae3e0c5db85e2395f3d34941003c816ad" target="_top" xlink:title="Add event receiver.">
<polygon fill="white" stroke="#666666" points="502.5,-266 366.5,-266 366.5,-236 502.5,-236 502.5,-266"/>
<text text-anchor="start" x="374.5" y="-254" font-family="Roboto" font-size="10.00">Urho3D::Context::AddEvent</text>
<text text-anchor="middle" x="434.5" y="-243" font-family="Roboto" font-size="10.00">Receiver</text>
</a>
</g>
</g>
<!-- Node28&#45;&gt;Node29 -->
<g id="edge23" class="edge">
<title>Node28&#45;&gt;Node29</title>
<path fill="none" stroke="#63b8ff" d="M316.44,-234.92C328.91,-236.63 342.1,-238.44 354.95,-240.21"/>
<polygon fill="#63b8ff" stroke="#63b8ff" points="354.25,-243.65 364.63,-241.54 355.2,-236.71 354.25,-243.65"/>
</g>
<!-- Node30 -->
<g id="node20" class="node">
<title>Node30</title>
<g id="a_node20"><a xlink:href="class_urho3_d_1_1_object.html#ad9d3702ab78a9d8a8ddad6aae7144abb" target="_top" xlink:title="Find the first event handler with specific sender.">
<polygon fill="white" stroke="#666666" points="504.5,-218 364.5,-218 364.5,-188 504.5,-188 504.5,-218"/>
<text text-anchor="start" x="372.5" y="-206" font-family="Roboto" font-size="10.00">Urho3D::Object::FindSpecific</text>
<text text-anchor="middle" x="434.5" y="-195" font-family="Roboto" font-size="10.00">EventHandler</text>
</a>
</g>
</g>
<!-- Node28&#45;&gt;Node30 -->
<g id="edge24" class="edge">
<title>Node28&#45;&gt;Node30</title>
<path fill="none" stroke="#63b8ff" d="M316.44,-217.79C328.32,-216.29 340.84,-214.71 353.11,-213.16"/>
<polygon fill="#63b8ff" stroke="#63b8ff" points="353.29,-216.66 362.77,-211.94 352.41,-209.72 353.29,-216.66"/>
</g>
<!-- Node32 -->
<g id="node22" class="node">
<title>Node32</title>
<g id="a_node22"><a xlink:href="class_urho3_d_1_1_event_handler.html#abe76f0245895dadac146b7a4b7d78713" target="_top" xlink:title="Set sender and event type.">
<polygon fill="white" stroke="#666666" points="498.5,-170 370.5,-170 370.5,-140 498.5,-140 498.5,-170"/>
<text text-anchor="start" x="378.5" y="-158" font-family="Roboto" font-size="10.00">Urho3D::EventHandler</text>
<text text-anchor="middle" x="434.5" y="-147" font-family="Roboto" font-size="10.00">::SetSenderAndEventType</text>
</a>
</g>
</g>
<!-- Node28&#45;&gt;Node32 -->
<g id="edge26" class="edge">
<title>Node28&#45;&gt;Node32</title>
<path fill="none" stroke="#63b8ff" d="M283.75,-210.68C304.68,-201.01 332.67,-188.58 358,-179 362.41,-177.33 367,-175.68 371.64,-174.07"/>
<polygon fill="#63b8ff" stroke="#63b8ff" points="372.69,-177.4 381.04,-170.88 370.45,-170.77 372.69,-177.4"/>
</g>
<!-- Node31 -->
<g id="node21" class="node">
<title>Node31</title>
<g id="a_node21"><a xlink:href="class_urho3_d_1_1_event_handler.html#a18d3379ef44dac87304f2b118e36c83e" target="_top" xlink:title="Return event sender. Null if the handler is non&#45;specific.">
<polygon fill="white" stroke="#666666" points="675,-119 562,-119 562,-89 675,-89 675,-119"/>
<text text-anchor="start" x="570" y="-107" font-family="Roboto" font-size="10.00">Urho3D::EventHandler</text>
<text text-anchor="middle" x="618.5" y="-96" font-family="Roboto" font-size="10.00">::GetSender</text>
</a>
</g>
</g>
<!-- Node30&#45;&gt;Node31 -->
<g id="edge25" class="edge">
<title>Node30&#45;&gt;Node31</title>
<path fill="none" stroke="#63b8ff" d="M496.57,-187.52C501.67,-185.07 506.56,-182.25 511,-179 533.39,-162.61 524.78,-144.62 547,-128 548.53,-126.86 550.12,-125.76 551.75,-124.72"/>
<polygon fill="#63b8ff" stroke="#63b8ff" points="553.18,-127.93 560.22,-120.02 549.78,-121.81 553.18,-127.93"/>
</g>
<!-- Node33&#45;&gt;Node31 -->
<g id="edge29" class="edge">
<title>Node33&#45;&gt;Node31</title>
<path fill="none" stroke="#63b8ff" d="M321.64,-88.64C387.53,-92.06 485.44,-97.14 550.34,-100.51"/>
<polygon fill="#63b8ff" stroke="#63b8ff" points="549.98,-104 560.15,-101.02 550.35,-97.01 549.98,-104"/>
</g>
<!-- Node34 -->
<g id="node24" class="node">
<title>Node34</title>
<g id="a_node24"><a xlink:href="class_urho3_d_1_1_object.html#a00bec56f305dd6636d186e5b351d0264" target="_top" xlink:title="Find the first event handler with no specific sender.">
<polygon fill="#fff0f0" stroke="red" points="499,-78 370,-78 370,-48 499,-48 499,-78"/>
<text text-anchor="start" x="378" y="-66" font-family="Roboto" font-size="10.00">Urho3D::Object::FindEvent</text>
<text text-anchor="middle" x="434.5" y="-55" font-family="Roboto" font-size="10.00">Handler</text>
</a>
</g>
</g>
<!-- Node33&#45;&gt;Node34 -->
<g id="edge28" class="edge">
<title>Node33&#45;&gt;Node34</title>
<path fill="none" stroke="#63b8ff" d="M321.87,-76.49C333.77,-75.06 346.17,-73.56 358.19,-72.1"/>
<polygon fill="#63b8ff" stroke="#63b8ff" points="358.56,-75.58 368.07,-70.91 357.72,-68.64 358.56,-75.58"/>
</g>
<!-- Node36 -->
<g id="node25" class="node">
<title>Node36</title>
<g id="a_node25"><a xlink:href="class_urho3_d_1_1_context.html#a7b5bd076e695054df7930255c3eee18b" target="_top" xlink:title="Remove event receiver from specific events.">
<polygon fill="#fff0f0" stroke="red" points="511,-30 358,-30 358,0 511,0 511,-30"/>
<text text-anchor="start" x="366" y="-18" font-family="Roboto" font-size="10.00">Urho3D::Context::RemoveEvent</text>
<text text-anchor="middle" x="434.5" y="-7" font-family="Roboto" font-size="10.00">Receiver</text>
</a>
</g>
</g>
<!-- Node33&#45;&gt;Node36 -->
<g id="edge30" class="edge">
<title>Node33&#45;&gt;Node36</title>
<path fill="none" stroke="#63b8ff" d="M284.73,-69.63C305.56,-60.25 333.1,-48.31 358,-39 362.42,-37.35 367.01,-35.71 371.65,-34.1"/>
<polygon fill="#63b8ff" stroke="#63b8ff" points="372.7,-37.44 381.06,-30.93 370.47,-30.81 372.7,-37.44"/>
</g>
</g>
</svg>
