<?xml version="1.0" encoding="UTF-8" standalone="no"?>
<!DOCTYPE svg PUBLIC "-//W3C//DTD SVG 1.1//EN"
 "http://www.w3.org/Graphics/SVG/1.1/DTD/svg11.dtd">
<!-- Generated by graphviz version 7.0.3 (0)
 -->
<!-- Title: Urho3D::Sprite2D::EndLoad Pages: 1 -->
<svg width="335pt" height="64pt"
 viewBox="0.00 0.00 335.00 64.00" xmlns="http://www.w3.org/2000/svg" xmlns:xlink="http://www.w3.org/1999/xlink">
<g id="graph0" class="graph" transform="scale(1 1) rotate(0) translate(4 60)">
<title>Urho3D::Sprite2D::EndLoad</title>
<!-- Node1 -->
<g id="node1" class="node">
<title>Node1</title>
<g id="a_node1"><a xlink:title="Finish resource loading. Always called from the main thread. Return true if successful.">
<polygon fill="#999999" stroke="#666666" points="137,-37 0,-37 0,-18 137,-18 137,-37"/>
<text text-anchor="middle" x="68.5" y="-25" font-family="Roboto" font-size="10.00">Urho3D::Sprite2D::EndLoad</text>
</a>
</g>
</g>
<!-- Node2 -->
<g id="node2" class="node">
<title>Node2</title>
<g id="a_node2"><a xlink:href="class_urho3_d_1_1_sprite2_d.html#a9941b08d2a48916bdc1b9f6046506602" target="_top" xlink:title=" ">
<polygon fill="white" stroke="#666666" points="327,-56 173,-56 173,-37 327,-37 327,-56"/>
<text text-anchor="middle" x="250" y="-44" font-family="Roboto" font-size="10.00">Urho3D::Sprite2D::SetRectangle</text>
</a>
</g>
</g>
<!-- Node1&#45;&gt;Node2 -->
<g id="edge1" class="edge">
<title>Node1&#45;&gt;Node2</title>
<path fill="none" stroke="#63b8ff" d="M137.36,-34.68C145.19,-35.51 153.25,-36.37 161.3,-37.22"/>
<polygon fill="#63b8ff" stroke="#63b8ff" points="160.81,-40.68 171.12,-38.26 161.54,-33.72 160.81,-40.68"/>
</g>
<!-- Node3 -->
<g id="node3" class="node">
<title>Node3</title>
<g id="a_node3"><a xlink:href="class_urho3_d_1_1_sprite2_d.html#aecad4f3116b4c35dc1abb1ecc1efc4a3" target="_top" xlink:title=" ">
<polygon fill="white" stroke="#666666" points="321.5,-19 178.5,-19 178.5,0 321.5,0 321.5,-19"/>
<text text-anchor="middle" x="250" y="-7" font-family="Roboto" font-size="10.00">Urho3D::Sprite2D::SetTexture</text>
</a>
</g>
</g>
<!-- Node1&#45;&gt;Node3 -->
<g id="edge2" class="edge">
<title>Node1&#45;&gt;Node3</title>
<path fill="none" stroke="#63b8ff" d="M137.36,-20.69C146.92,-19.74 156.84,-18.74 166.63,-17.76"/>
<polygon fill="#63b8ff" stroke="#63b8ff" points="166.95,-21.25 176.55,-16.77 166.25,-14.28 166.95,-21.25"/>
</g>
</g>
</svg>
