<?xml version="1.0" encoding="UTF-8" standalone="no"?>
<!DOCTYPE svg PUBLIC "-//W3C//DTD SVG 1.1//EN"
 "http://www.w3.org/Graphics/SVG/1.1/DTD/svg11.dtd">
<!-- Generated by graphviz version 7.0.3 (0)
 -->
<!-- Title: Urho3D::IKSolver::RegisterObject Pages: 1 -->
<svg width="1069pt" height="527pt"
 viewBox="0.00 0.00 1069.00 526.50" xmlns="http://www.w3.org/2000/svg" xmlns:xlink="http://www.w3.org/1999/xlink">
<g id="graph0" class="graph" transform="scale(1 1) rotate(0) translate(4 522.5)">
<title>Urho3D::IKSolver::RegisterObject</title>
<!-- Node1 -->
<g id="node1" class="node">
<title>Node1</title>
<g id="a_node1"><a xlink:title=" ">
<polygon fill="#999999" stroke="#666666" points="132,-395 0,-395 0,-365 132,-365 132,-395"/>
<text text-anchor="start" x="8" y="-383" font-family="Roboto" font-size="10.00">Urho3D::IKSolver::Register</text>
<text text-anchor="middle" x="66" y="-372" font-family="Roboto" font-size="10.00">Object</text>
</a>
</g>
</g>
<!-- Node2 -->
<g id="node2" class="node">
<title>Node2</title>
<g id="a_node2"><a xlink:href="class_urho3_d_1_1_i_k_solver.html#a92334edf573fa3d3b4885de427281c92" target="_top" xlink:title=" ">
<polygon fill="white" stroke="#666666" points="323.5,-518.5 168.5,-518.5 168.5,-499.5 323.5,-499.5 323.5,-518.5"/>
<text text-anchor="middle" x="246" y="-506.5" font-family="Roboto" font-size="10.00">Urho3D::IKSolver::GetAlgorithm</text>
</a>
</g>
</g>
<!-- Node1&#45;&gt;Node2 -->
<g id="edge1" class="edge">
<title>Node1&#45;&gt;Node2</title>
<path fill="none" stroke="#63b8ff" d="M76.74,-395.44C92.74,-419.49 126.96,-465.68 168,-490 171.14,-491.86 174.45,-493.54 177.87,-495.05"/>
<polygon fill="#63b8ff" stroke="#63b8ff" points="176.38,-498.23 186.97,-498.58 178.91,-491.7 176.38,-498.23"/>
</g>
<!-- Node3 -->
<g id="node3" class="node">
<title>Node3</title>
<g id="a_node3"><a xlink:href="class_urho3_d_1_1_i_k_solver.html#ab4f197fe9ffcd61a5cdd9c42c3db4857" target="_top" xlink:title=" ">
<polygon fill="white" stroke="#666666" points="324,-481 168,-481 168,-451 324,-451 324,-481"/>
<text text-anchor="start" x="176" y="-469" font-family="Roboto" font-size="10.00">Urho3D::IKSolver::GetMaximum</text>
<text text-anchor="middle" x="246" y="-458" font-family="Roboto" font-size="10.00">Iterations</text>
</a>
</g>
</g>
<!-- Node1&#45;&gt;Node3 -->
<g id="edge2" class="edge">
<title>Node1&#45;&gt;Node3</title>
<path fill="none" stroke="#63b8ff" d="M88.59,-395.44C108.46,-409.12 139.15,-428.9 168,-442 171.55,-443.61 175.24,-445.16 178.99,-446.63"/>
<polygon fill="#63b8ff" stroke="#63b8ff" points="177.68,-449.88 188.27,-450.07 180.11,-443.31 177.68,-449.88"/>
</g>
<!-- Node4 -->
<g id="node4" class="node">
<title>Node4</title>
<g id="a_node4"><a xlink:href="class_urho3_d_1_1_i_k_solver.html#acb94aab774a7b65255834abb955041bf" target="_top" xlink:title=" ">
<polygon fill="white" stroke="#666666" points="323,-432.5 169,-432.5 169,-413.5 323,-413.5 323,-432.5"/>
<text text-anchor="middle" x="246" y="-420.5" font-family="Roboto" font-size="10.00">Urho3D::IKSolver::GetTolerance</text>
</a>
</g>
</g>
<!-- Node1&#45;&gt;Node4 -->
<g id="edge3" class="edge">
<title>Node1&#45;&gt;Node4</title>
<path fill="none" stroke="#63b8ff" d="M131.01,-395.46C151.26,-400.35 173.38,-405.7 192.7,-410.37"/>
<polygon fill="#63b8ff" stroke="#63b8ff" points="191.71,-413.73 202.25,-412.67 193.35,-406.92 191.71,-413.73"/>
</g>
<!-- Node5 -->
<g id="node5" class="node">
<title>Node5</title>
<g id="a_node5"><a xlink:href="class_urho3_d_1_1_context.html#aa9b2cffef8d52fa18bfe533a2615a598" target="_top" xlink:title="Register a factory for an object type.">
<polygon fill="white" stroke="#666666" points="311,-395 181,-395 181,-365 311,-365 311,-395"/>
<text text-anchor="start" x="189" y="-383" font-family="Roboto" font-size="10.00">Urho3D::Context::Register</text>
<text text-anchor="middle" x="246" y="-372" font-family="Roboto" font-size="10.00">Factory</text>
</a>
</g>
</g>
<!-- Node1&#45;&gt;Node5 -->
<g id="edge4" class="edge">
<title>Node1&#45;&gt;Node5</title>
<path fill="none" stroke="#63b8ff" d="M132.27,-380C144.35,-380 157.06,-380 169.41,-380"/>
<polygon fill="#63b8ff" stroke="#63b8ff" points="169.12,-383.5 179.12,-380 169.12,-376.5 169.12,-383.5"/>
</g>
<!-- Node7 -->
<g id="node7" class="node">
<title>Node7</title>
<g id="a_node7"><a xlink:href="class_urho3_d_1_1_i_k_solver.html#a78158a230b7e123b9ca73f82d51824d5" target="_top" xlink:title="Selects the solver algorithm. Default is FABRIK. Note that this may not be the most efficient algorit...">
<polygon fill="white" stroke="#666666" points="323,-346.5 169,-346.5 169,-327.5 323,-327.5 323,-346.5"/>
<text text-anchor="middle" x="246" y="-334.5" font-family="Roboto" font-size="10.00">Urho3D::IKSolver::SetAlgorithm</text>
</a>
</g>
</g>
<!-- Node1&#45;&gt;Node7 -->
<g id="edge6" class="edge">
<title>Node1&#45;&gt;Node7</title>
<path fill="none" stroke="#63b8ff" d="M131.01,-364.54C151.26,-359.65 173.38,-354.3 192.7,-349.63"/>
<polygon fill="#63b8ff" stroke="#63b8ff" points="193.35,-353.08 202.25,-347.33 191.71,-346.27 193.35,-353.08"/>
</g>
<!-- Node31 -->
<g id="node24" class="node">
<title>Node31</title>
<g id="a_node24"><a xlink:href="class_urho3_d_1_1_i_k_solver.html#ae81360d40814c704d9b0861c589e92f1" target="_top" xlink:title="Sets the maximum number of iterations the solver is allowed to perform before applying the result.">
<polygon fill="white" stroke="#666666" points="323.5,-309 168.5,-309 168.5,-279 323.5,-279 323.5,-309"/>
<text text-anchor="start" x="176.5" y="-297" font-family="Roboto" font-size="10.00">Urho3D::IKSolver::SetMaximum</text>
<text text-anchor="middle" x="246" y="-286" font-family="Roboto" font-size="10.00">Iterations</text>
</a>
</g>
</g>
<!-- Node1&#45;&gt;Node31 -->
<g id="edge29" class="edge">
<title>Node1&#45;&gt;Node31</title>
<path fill="none" stroke="#63b8ff" d="M89.05,-364.65C108.98,-351.27 139.49,-332.03 168,-319 172.31,-317.03 176.83,-315.14 181.42,-313.35"/>
<polygon fill="#63b8ff" stroke="#63b8ff" points="182.61,-316.64 190.78,-309.89 180.18,-310.08 182.61,-316.64"/>
</g>
<!-- Node32 -->
<g id="node25" class="node">
<title>Node32</title>
<g id="a_node25"><a xlink:href="class_urho3_d_1_1_i_k_solver.html#a8a2071caa4cfa7795e0a6570ede45d8e" target="_top" xlink:title="Sets the distance at which the effector is &quot;close enough&quot; to the target node, at which point the algo...">
<polygon fill="white" stroke="#666666" points="322.5,-260.5 169.5,-260.5 169.5,-241.5 322.5,-241.5 322.5,-260.5"/>
<text text-anchor="middle" x="246" y="-248.5" font-family="Roboto" font-size="10.00">Urho3D::IKSolver::SetTolerance</text>
</a>
</g>
</g>
<!-- Node1&#45;&gt;Node32 -->
<g id="edge30" class="edge">
<title>Node1&#45;&gt;Node32</title>
<path fill="none" stroke="#63b8ff" d="M76.74,-364.56C92.74,-340.51 126.96,-294.32 168,-270 171.14,-268.14 174.45,-266.46 177.87,-264.95"/>
<polygon fill="#63b8ff" stroke="#63b8ff" points="178.91,-268.3 186.97,-261.42 176.38,-261.77 178.91,-268.3"/>
</g>
<!-- Node6 -->
<g id="node6" class="node">
<title>Node6</title>
<g id="a_node6"><a xlink:href="class_urho3_d_1_1_object_factory.html#a191ee9fd0ce7c127dfd92b2b9ae47709" target="_top" xlink:title="Return type hash of objects created by this factory.">
<polygon fill="white" stroke="#666666" points="494.5,-422 378.5,-422 378.5,-392 494.5,-392 494.5,-422"/>
<text text-anchor="start" x="386.5" y="-410" font-family="Roboto" font-size="10.00">Urho3D::ObjectFactory</text>
<text text-anchor="middle" x="436.5" y="-399" font-family="Roboto" font-size="10.00">::GetType</text>
</a>
</g>
</g>
<!-- Node5&#45;&gt;Node6 -->
<g id="edge5" class="edge">
<title>Node5&#45;&gt;Node6</title>
<path fill="none" stroke="#63b8ff" d="M311.34,-389.22C329.19,-391.77 348.63,-394.56 366.72,-397.15"/>
<polygon fill="#63b8ff" stroke="#63b8ff" points="366.18,-400.61 376.58,-398.56 367.18,-393.68 366.18,-400.61"/>
</g>
<!-- Node8 -->
<g id="node8" class="node">
<title>Node8</title>
<g id="a_node8"><a xlink:href="class_urho3_d_1_1_i_k_solver.html#afe4c1364201933e830b92ac7b6712f6a" target="_top" xlink:title=" ">
<polygon fill="white" stroke="#666666" points="513,-374 360,-374 360,-344 513,-344 513,-374"/>
<text text-anchor="start" x="368" y="-362" font-family="Roboto" font-size="10.00">Urho3D::IKSolver::ApplyOriginal</text>
<text text-anchor="middle" x="436.5" y="-351" font-family="Roboto" font-size="10.00">PoseToScene</text>
</a>
</g>
</g>
<!-- Node7&#45;&gt;Node8 -->
<g id="edge7" class="edge">
<title>Node7&#45;&gt;Node8</title>
<path fill="none" stroke="#63b8ff" d="M323.4,-345.92C331.61,-346.87 340,-347.85 348.33,-348.83"/>
<polygon fill="#63b8ff" stroke="#63b8ff" points="347.76,-352.28 358.1,-349.97 348.57,-345.33 347.76,-352.28"/>
</g>
<!-- Node9 -->
<g id="node9" class="node">
<title>Node9</title>
<g id="a_node9"><a xlink:href="class_urho3_d_1_1_i_k_solver.html#aad4ab41a3accf0ff067ad591d0f7c67e" target="_top" xlink:title="Destroys the solver&#39;s tree.">
<polygon fill="white" stroke="#666666" points="701.5,-346.5 552.5,-346.5 552.5,-327.5 701.5,-327.5 701.5,-346.5"/>
<text text-anchor="middle" x="627" y="-334.5" font-family="Roboto" font-size="10.00">Urho3D::IKSolver::DestroyTree</text>
</a>
</g>
</g>
<!-- Node7&#45;&gt;Node9 -->
<g id="edge8" class="edge">
<title>Node7&#45;&gt;Node9</title>
<path fill="none" stroke="#63b8ff" d="M323.28,-335.47C335.56,-335.27 348.13,-335.11 360,-335 428,-334.4 445,-334.4 513,-335 522,-335.08 531.4,-335.19 540.77,-335.33"/>
<polygon fill="#63b8ff" stroke="#63b8ff" points="540.58,-338.83 550.64,-335.48 540.69,-331.83 540.58,-338.83"/>
</g>
<!-- Node10 -->
<g id="node10" class="node">
<title>Node10</title>
<g id="a_node10"><a xlink:href="class_urho3_d_1_1_i_k_solver.html#a215740ec5753a2347b9da9ec9d84cc07" target="_top" xlink:title="Builds the solver&#39;s tree to match the scene graph&#39;s tree. If a tree already exists,...">
<polygon fill="white" stroke="#666666" points="510,-266.5 363,-266.5 363,-247.5 510,-247.5 510,-266.5"/>
<text text-anchor="middle" x="436.5" y="-254.5" font-family="Roboto" font-size="10.00">Urho3D::IKSolver::RebuildTree</text>
</a>
</g>
</g>
<!-- Node7&#45;&gt;Node10 -->
<g id="edge9" class="edge">
<title>Node7&#45;&gt;Node10</title>
<path fill="none" stroke="#63b8ff" d="M295.65,-327.02C305.19,-324.5 315.02,-321.5 324,-318 355.42,-305.77 389.05,-286.41 411.07,-272.78"/>
<polygon fill="#63b8ff" stroke="#63b8ff" points="412.71,-275.88 419.32,-267.6 408.99,-269.96 412.71,-275.88"/>
</g>
<!-- Node10&#45;&gt;Node9 -->
<g id="edge26" class="edge">
<title>Node10&#45;&gt;Node9</title>
<path fill="none" stroke="#63b8ff" d="M454.06,-266.96C480.17,-282.53 529.89,-311.62 549,-319 553.66,-320.8 558.56,-322.45 563.53,-323.97"/>
<polygon fill="#63b8ff" stroke="#63b8ff" points="562.42,-327.29 573,-326.64 564.32,-320.55 562.42,-327.29"/>
</g>
<!-- Node11 -->
<g id="node11" class="node">
<title>Node11</title>
<g id="a_node11"><a xlink:href="class_urho3_d_1_1_i_k_solver.html#afaa45ef02d8aee5717b9eabece7ac883" target="_top" xlink:title="Builds a chain of nodes up to the node of the specified effector component.">
<polygon fill="white" stroke="#666666" points="695.5,-186 558.5,-186 558.5,-156 695.5,-156 695.5,-186"/>
<text text-anchor="start" x="566.5" y="-174" font-family="Roboto" font-size="10.00">Urho3D::IKSolver::BuildTree</text>
<text text-anchor="middle" x="627" y="-163" font-family="Roboto" font-size="10.00">ToEffector</text>
</a>
</g>
</g>
<!-- Node10&#45;&gt;Node11 -->
<g id="edge10" class="edge">
<title>Node10&#45;&gt;Node11</title>
<path fill="none" stroke="#63b8ff" d="M455.35,-247.08C477.12,-235.18 515.2,-214.95 549,-200 556.36,-196.74 564.22,-193.51 571.99,-190.46"/>
<polygon fill="#63b8ff" stroke="#63b8ff" points="573,-193.82 581.07,-186.96 570.48,-187.29 573,-193.82"/>
</g>
<!-- Node14 -->
<g id="node13" class="node">
<title>Node14</title>
<g id="a_node13"><a xlink:href="class_urho3_d_1_1_i_k_solver.html#a47e782eedb4819ac1f24020a3cce5eaa" target="_top" xlink:title="Creates the ik library node and sets the current rotation/position and user data correctly.">
<polygon fill="#fff0f0" stroke="red" points="880.5,-341 755.5,-341 755.5,-311 880.5,-311 880.5,-341"/>
<text text-anchor="start" x="763.5" y="-329" font-family="Roboto" font-size="10.00">Urho3D::IKSolver::Create</text>
<text text-anchor="middle" x="818" y="-318" font-family="Roboto" font-size="10.00">IKNodeFromUrhoNode</text>
</a>
</g>
</g>
<!-- Node10&#45;&gt;Node14 -->
<g id="edge25" class="edge">
<title>Node10&#45;&gt;Node14</title>
<path fill="none" stroke="#63b8ff" d="M459.1,-247.15C507.1,-226.85 624.7,-186.04 705,-233 733.17,-249.48 716.28,-275.69 741,-297 744.55,-300.06 748.46,-302.81 752.57,-305.29"/>
<polygon fill="#63b8ff" stroke="#63b8ff" points="750.66,-308.24 761.13,-309.86 753.96,-302.06 750.66,-308.24"/>
</g>
<!-- Node28 -->
<g id="node21" class="node">
<title>Node28</title>
<g id="a_node21"><a xlink:href="class_urho3_d_1_1_i_k_solver.html#ac31967b5c4363bddf59ff0c2e4cfd5e0" target="_top" xlink:title=" ">
<polygon fill="#fff0f0" stroke="red" points="701,-73 553,-73 553,-43 701,-43 701,-73"/>
<text text-anchor="start" x="561" y="-61" font-family="Roboto" font-size="10.00">Urho3D::IKSolver::Component</text>
<text text-anchor="middle" x="627" y="-50" font-family="Roboto" font-size="10.00">IsInOurSubtree</text>
</a>
</g>
</g>
<!-- Node10&#45;&gt;Node28 -->
<g id="edge22" class="edge">
<title>Node10&#45;&gt;Node28</title>
<path fill="none" stroke="#63b8ff" d="M446.85,-247.13C475.41,-216.98 562.11,-125.44 603.52,-81.73"/>
<polygon fill="#63b8ff" stroke="#63b8ff" points="606.02,-84.18 610.36,-74.51 600.94,-79.36 606.02,-84.18"/>
</g>
<!-- Node29 -->
<g id="node22" class="node">
<title>Node29</title>
<g id="a_node22"><a xlink:href="class_urho3_d_1_1_node.html#a33c8b46fb4ba500ad71dbf7f2652066f" target="_top" xlink:title="Return all components.">
<polygon fill="white" stroke="#666666" points="705,-309.5 549,-309.5 549,-290.5 705,-290.5 705,-309.5"/>
<text text-anchor="middle" x="627" y="-297.5" font-family="Roboto" font-size="10.00">Urho3D::Node::GetComponents</text>
</a>
</g>
</g>
<!-- Node10&#45;&gt;Node29 -->
<g id="edge27" class="edge">
<title>Node10&#45;&gt;Node29</title>
<path fill="none" stroke="#63b8ff" d="M481.22,-266.97C508.01,-273.08 542.53,-280.96 571.14,-287.49"/>
<polygon fill="#63b8ff" stroke="#63b8ff" points="570.19,-290.86 580.72,-289.67 571.74,-284.03 570.19,-290.86"/>
</g>
<!-- Node30 -->
<g id="node23" class="node">
<title>Node30</title>
<g id="a_node23"><a xlink:href="class_urho3_d_1_1_i_k_solver.html#a33218dc2749da6a94ea2d6e6df62f8c8" target="_top" xlink:title="Indicates that the internal structures of the IK library need to be updated. See the documentation of...">
<polygon fill="white" stroke="#666666" points="701.5,-272 552.5,-272 552.5,-242 701.5,-242 701.5,-272"/>
<text text-anchor="start" x="560.5" y="-260" font-family="Roboto" font-size="10.00">Urho3D::IKSolver::MarkChains</text>
<text text-anchor="middle" x="627" y="-249" font-family="Roboto" font-size="10.00">NeedUpdating</text>
</a>
</g>
</g>
<!-- Node10&#45;&gt;Node30 -->
<g id="edge28" class="edge">
<title>Node10&#45;&gt;Node30</title>
<path fill="none" stroke="#63b8ff" d="M510.38,-257C520.32,-257 530.59,-257 540.72,-257"/>
<polygon fill="#63b8ff" stroke="#63b8ff" points="540.56,-260.5 550.56,-257 540.56,-253.5 540.56,-260.5"/>
</g>
<!-- Node12 -->
<g id="node12" class="node">
<title>Node12</title>
<g id="a_node12"><a xlink:href="class_urho3_d_1_1_p_o_d_vector.html#a02b72389727e56688c9f6ed66c2f8733" target="_top" xlink:title="Return last element.">
<polygon fill="#fff0f0" stroke="red" points="1061,-143.5 931,-143.5 931,-124.5 1061,-124.5 1061,-143.5"/>
<text text-anchor="middle" x="996" y="-131.5" font-family="Roboto" font-size="10.00">Urho3D::PODVector::Back</text>
</a>
</g>
</g>
<!-- Node11&#45;&gt;Node12 -->
<g id="edge11" class="edge">
<title>Node11&#45;&gt;Node12</title>
<path fill="none" stroke="#63b8ff" d="M651.03,-155.61C673.06,-141.88 707.74,-122.79 741,-115 810.65,-98.69 893.7,-110.58 945.4,-121.54"/>
<polygon fill="#63b8ff" stroke="#63b8ff" points="944.58,-124.94 955.09,-123.67 946.08,-118.11 944.58,-124.94"/>
</g>
<!-- Node11&#45;&gt;Node14 -->
<g id="edge12" class="edge">
<title>Node11&#45;&gt;Node14</title>
<path fill="none" stroke="#63b8ff" d="M686,-186.46C692.99,-190.08 699.56,-194.53 705,-200 737.44,-232.59 708.63,-264.34 741,-297 743.82,-299.84 746.95,-302.42 750.28,-304.74"/>
<polygon fill="#63b8ff" stroke="#63b8ff" points="748.45,-307.72 758.83,-309.87 752.05,-301.72 748.45,-307.72"/>
</g>
<!-- Node17 -->
<g id="node14" class="node">
<title>Node17</title>
<g id="a_node14"><a xlink:href="class_urho3_d_1_1_node.html#a1ce16fa386bfc7b728711030eb941723" target="_top" xlink:title=" ">
<polygon fill="white" stroke="#666666" points="1050.5,-313.5 941.5,-313.5 941.5,-294.5 1050.5,-294.5 1050.5,-313.5"/>
<text text-anchor="middle" x="996" y="-301.5" font-family="Roboto" font-size="10.00">Urho3D::Node::GetID</text>
</a>
</g>
</g>
<!-- Node11&#45;&gt;Node17 -->
<g id="edge14" class="edge">
<title>Node11&#45;&gt;Node17</title>
<path fill="none" stroke="#63b8ff" d="M672.17,-186.44C683.67,-191.79 695.48,-198.61 705,-207 727.48,-226.81 715.97,-247.53 741,-264 771.26,-283.9 865.2,-294.65 929.94,-299.84"/>
<polygon fill="#63b8ff" stroke="#63b8ff" points="929.52,-303.32 939.76,-300.6 930.06,-296.34 929.52,-303.32"/>
</g>
<!-- Node20 -->
<g id="node15" class="node">
<title>Node20</title>
<g id="a_node15"><a xlink:href="class_urho3_d_1_1_component.html#ada751ff77fe3e5bc417db31cfebc0df8" target="_top" xlink:title=" ">
<polygon fill="white" stroke="#666666" points="873.5,-30 762.5,-30 762.5,0 873.5,0 873.5,-30"/>
<text text-anchor="start" x="770.5" y="-18" font-family="Roboto" font-size="10.00">Urho3D::Component::</text>
<text text-anchor="middle" x="818" y="-7" font-family="Roboto" font-size="10.00">GetNode</text>
</a>
</g>
</g>
<!-- Node11&#45;&gt;Node20 -->
<g id="edge15" class="edge">
<title>Node11&#45;&gt;Node20</title>
<path fill="none" stroke="#63b8ff" d="M641.43,-155.63C656.86,-137.94 682.89,-107.98 705,-82 721.15,-63.02 720.29,-52.86 741,-39 744.42,-36.71 748.07,-34.63 751.86,-32.74"/>
<polygon fill="#63b8ff" stroke="#63b8ff" points="753.02,-36.05 760.73,-28.78 750.17,-29.66 753.02,-36.05"/>
</g>
<!-- Node21 -->
<g id="node16" class="node">
<title>Node21</title>
<g id="a_node16"><a xlink:href="class_urho3_d_1_1_node.html#a1bc658c7b719ce21531882df362ea958" target="_top" xlink:title=" ">
<polygon fill="white" stroke="#666666" points="881.5,-67.5 754.5,-67.5 754.5,-48.5 881.5,-48.5 881.5,-67.5"/>
<text text-anchor="middle" x="818" y="-55.5" font-family="Roboto" font-size="10.00">Urho3D::Node::GetParent</text>
</a>
</g>
</g>
<!-- Node11&#45;&gt;Node21 -->
<g id="edge16" class="edge">
<title>Node11&#45;&gt;Node21</title>
<path fill="none" stroke="#63b8ff" d="M643.53,-155.71C664.19,-136.13 702.59,-102.32 741,-82 748.57,-78 756.92,-74.53 765.23,-71.57"/>
<polygon fill="#63b8ff" stroke="#63b8ff" points="766.25,-74.92 774.63,-68.44 764.04,-68.27 766.25,-74.92"/>
</g>
<!-- Node22 -->
<g id="node17" class="node">
<title>Node22</title>
<g id="a_node17"><a xlink:href="class_urho3_d_1_1_node.html#a01570d66b89fd1fa1ee8305cf00e9a3b" target="_top" xlink:title="Return whether has a specific component.">
<polygon fill="white" stroke="#666666" points="895,-254.5 741,-254.5 741,-235.5 895,-235.5 895,-254.5"/>
<text text-anchor="middle" x="818" y="-242.5" font-family="Roboto" font-size="10.00">Urho3D::Node::HasComponent</text>
</a>
</g>
</g>
<!-- Node11&#45;&gt;Node22 -->
<g id="edge17" class="edge">
<title>Node11&#45;&gt;Node22</title>
<path fill="none" stroke="#63b8ff" d="M675.37,-186.42C685.39,-190.35 695.73,-194.92 705,-200 722.53,-209.62 722.89,-218.52 741,-227 744.55,-228.66 748.26,-230.18 752.06,-231.56"/>
<polygon fill="#63b8ff" stroke="#63b8ff" points="750.88,-234.85 761.47,-234.63 753.05,-228.2 750.88,-234.85"/>
</g>
<!-- Node23 -->
<g id="node18" class="node">
<title>Node23</title>
<g id="a_node18"><a xlink:href="class_urho3_d_1_1_p_o_d_vector.html#a76e8bca181c0ab7e7ebbe5b325c35aa2" target="_top" xlink:title="Remove the last element.">
<polygon fill="#fff0f0" stroke="red" points="880.5,-217.5 755.5,-217.5 755.5,-198.5 880.5,-198.5 880.5,-217.5"/>
<text text-anchor="middle" x="818" y="-205.5" font-family="Roboto" font-size="10.00">Urho3D::PODVector::Pop</text>
</a>
</g>
</g>
<!-- Node11&#45;&gt;Node23 -->
<g id="edge18" class="edge">
<title>Node11&#45;&gt;Node23</title>
<path fill="none" stroke="#63b8ff" d="M695.97,-184.31C715.16,-188.06 735.95,-192.13 754.79,-195.82"/>
<polygon fill="#63b8ff" stroke="#63b8ff" points="753.96,-199.22 764.44,-197.71 755.3,-192.36 753.96,-199.22"/>
</g>
<!-- Node26 -->
<g id="node19" class="node">
<title>Node26</title>
<g id="a_node19"><a xlink:href="class_urho3_d_1_1_p_o_d_vector.html#a3eb78093c096ab9e9d68595facc56470" target="_top" xlink:title="Add an element at the end.">
<polygon fill="#fff0f0" stroke="red" points="883,-180.5 753,-180.5 753,-161.5 883,-161.5 883,-180.5"/>
<text text-anchor="middle" x="818" y="-168.5" font-family="Roboto" font-size="10.00">Urho3D::PODVector::Push</text>
</a>
</g>
</g>
<!-- Node11&#45;&gt;Node26 -->
<g id="edge19" class="edge">
<title>Node11&#45;&gt;Node26</title>
<path fill="none" stroke="#63b8ff" d="M695.97,-171C710.72,-171 726.42,-171 741.45,-171"/>
<polygon fill="#63b8ff" stroke="#63b8ff" points="741.28,-174.5 751.28,-171 741.28,-167.5 741.28,-174.5"/>
</g>
<!-- Node27 -->
<g id="node20" class="node">
<title>Node27</title>
<g id="a_node20"><a xlink:href="class_urho3_d_1_1_p_o_d_vector.html#ab1ba347a0118ed7d9ef79f3026153c88" target="_top" xlink:title="Return number of elements.">
<polygon fill="white" stroke="#666666" points="881.5,-143.5 754.5,-143.5 754.5,-124.5 881.5,-124.5 881.5,-143.5"/>
<text text-anchor="middle" x="818" y="-131.5" font-family="Roboto" font-size="10.00">Urho3D::PODVector::Size</text>
</a>
</g>
</g>
<!-- Node11&#45;&gt;Node27 -->
<g id="edge21" class="edge">
<title>Node11&#45;&gt;Node27</title>
<path fill="none" stroke="#63b8ff" d="M695.97,-157.69C715.16,-153.94 735.95,-149.87 754.79,-146.18"/>
<polygon fill="#63b8ff" stroke="#63b8ff" points="755.3,-149.64 764.44,-144.29 753.96,-142.78 755.3,-149.64"/>
</g>
<!-- Node14&#45;&gt;Node17 -->
<g id="edge13" class="edge">
<title>Node14&#45;&gt;Node17</title>
<path fill="none" stroke="#63b8ff" d="M880.56,-318.31C896.58,-316.3 913.9,-314.14 930.1,-312.11"/>
<polygon fill="#63b8ff" stroke="#63b8ff" points="930.11,-315.64 939.6,-310.93 929.24,-308.69 930.11,-315.64"/>
</g>
<!-- Node26&#45;&gt;Node12 -->
<g id="edge20" class="edge">
<title>Node26&#45;&gt;Node12</title>
<path fill="none" stroke="#63b8ff" d="M866.16,-161.08C887.87,-156.52 913.82,-151.07 936.73,-146.25"/>
<polygon fill="#63b8ff" stroke="#63b8ff" points="937.16,-149.74 946.22,-144.25 935.72,-142.89 937.16,-149.74"/>
</g>
<!-- Node28&#45;&gt;Node20 -->
<g id="edge23" class="edge">
<title>Node28&#45;&gt;Node20</title>
<path fill="none" stroke="#63b8ff" d="M695.97,-42.54C713.85,-38.47 733.11,-34.09 750.89,-30.04"/>
<polygon fill="#63b8ff" stroke="#63b8ff" points="751.59,-33.47 760.56,-27.84 750.04,-26.65 751.59,-33.47"/>
</g>
<!-- Node28&#45;&gt;Node21 -->
<g id="edge24" class="edge">
<title>Node28&#45;&gt;Node21</title>
<path fill="none" stroke="#63b8ff" d="M701.34,-58C714.96,-58 729.2,-58 742.84,-58"/>
<polygon fill="#63b8ff" stroke="#63b8ff" points="742.62,-61.5 752.62,-58 742.62,-54.5 742.62,-61.5"/>
</g>
</g>
</svg>
