<?xml version="1.0" encoding="UTF-8" standalone="no"?>
<!DOCTYPE svg PUBLIC "-//W3C//DTD SVG 1.1//EN"
 "http://www.w3.org/Graphics/SVG/1.1/DTD/svg11.dtd">
<!-- Generated by graphviz version 7.0.3 (0)
 -->
<!-- Title: Urho3D::CollisionShape::OnSetEnabled Pages: 1 -->
<svg width="634pt" height="162pt"
 viewBox="0.00 0.00 634.00 161.50" xmlns="http://www.w3.org/2000/svg" xmlns:xlink="http://www.w3.org/1999/xlink">
<g id="graph0" class="graph" transform="scale(1 1) rotate(0) translate(4 157.5)">
<title>Urho3D::CollisionShape::OnSetEnabled</title>
<!-- Node1 -->
<g id="node1" class="node">
<title>Node1</title>
<g id="a_node1"><a xlink:title="Handle enabled/disabled state change.">
<polygon fill="#999999" stroke="#666666" points="120,-94 0,-94 0,-64 120,-64 120,-94"/>
<text text-anchor="start" x="8" y="-82" font-family="Roboto" font-size="10.00">Urho3D::CollisionShape</text>
<text text-anchor="middle" x="60" y="-71" font-family="Roboto" font-size="10.00">::OnSetEnabled</text>
</a>
</g>
</g>
<!-- Node2 -->
<g id="node2" class="node">
<title>Node2</title>
<g id="a_node2"><a xlink:href="class_urho3_d_1_1_collision_shape.html#a8cfe09cb27ec041dedcd92a69293bcbc" target="_top" xlink:title="Update the new collision shape to the RigidBody.">
<polygon fill="white" stroke="#666666" points="276,-94 156,-94 156,-64 276,-64 276,-94"/>
<text text-anchor="start" x="164" y="-82" font-family="Roboto" font-size="10.00">Urho3D::CollisionShape</text>
<text text-anchor="middle" x="216" y="-71" font-family="Roboto" font-size="10.00">::NotifyRigidBody</text>
</a>
</g>
</g>
<!-- Node1&#45;&gt;Node2 -->
<g id="edge1" class="edge">
<title>Node1&#45;&gt;Node2</title>
<path fill="none" stroke="#63b8ff" d="M120.1,-79C128,-79 136.16,-79 144.24,-79"/>
<polygon fill="#63b8ff" stroke="#63b8ff" points="144.04,-82.5 154.04,-79 144.04,-75.5 144.04,-82.5"/>
</g>
<!-- Node3 -->
<g id="node3" class="node">
<title>Node3</title>
<g id="a_node3"><a xlink:href="class_urho3_d_1_1_unique_ptr.html#a0a3ac051f536377b767fb97eabc203f5" target="_top" xlink:title="Return the raw pointer.">
<polygon fill="white" stroke="#666666" points="446.5,-153.5 327.5,-153.5 327.5,-134.5 446.5,-134.5 446.5,-153.5"/>
<text text-anchor="middle" x="387" y="-141.5" font-family="Roboto" font-size="10.00">Urho3D::UniquePtr::Get</text>
</a>
</g>
</g>
<!-- Node2&#45;&gt;Node3 -->
<g id="edge2" class="edge">
<title>Node2&#45;&gt;Node3</title>
<path fill="none" stroke="#63b8ff" d="M245.04,-94.41C263.62,-104.16 288.77,-116.49 312,-125 317.98,-127.19 324.33,-129.23 330.69,-131.1"/>
<polygon fill="#63b8ff" stroke="#63b8ff" points="329.31,-134.35 339.88,-133.66 331.19,-127.6 329.31,-134.35"/>
</g>
<!-- Node4 -->
<g id="node4" class="node">
<title>Node4</title>
<g id="a_node4"><a xlink:href="class_urho3_d_1_1_collision_shape.html#ab1f08f05ff8c76e97b03d6d9a94baf7e" target="_top" xlink:title="Find the parent rigid body component and return its compound collision shape.">
<polygon fill="white" stroke="#666666" points="457,-116 317,-116 317,-86 457,-86 457,-116"/>
<text text-anchor="start" x="325" y="-104" font-family="Roboto" font-size="10.00">Urho3D::CollisionShape</text>
<text text-anchor="middle" x="387" y="-93" font-family="Roboto" font-size="10.00">::GetParentCompoundShape</text>
</a>
</g>
</g>
<!-- Node2&#45;&gt;Node4 -->
<g id="edge3" class="edge">
<title>Node2&#45;&gt;Node4</title>
<path fill="none" stroke="#63b8ff" d="M276.11,-86.69C285.65,-87.94 295.67,-89.24 305.62,-90.54"/>
<polygon fill="#63b8ff" stroke="#63b8ff" points="304.91,-93.97 315.28,-91.79 305.82,-87.03 304.91,-93.97"/>
</g>
<!-- Node5 -->
<g id="node5" class="node">
<title>Node5</title>
<g id="a_node5"><a xlink:href="class_urho3_d_1_1_node.html#a8ae450b752efd7da057b842882d28a23" target="_top" xlink:title=" ">
<polygon fill="white" stroke="#666666" points="462,-67.5 312,-67.5 312,-48.5 462,-48.5 462,-67.5"/>
<text text-anchor="middle" x="387" y="-55.5" font-family="Roboto" font-size="10.00">Urho3D::Node::GetWorldScale</text>
</a>
</g>
</g>
<!-- Node2&#45;&gt;Node5 -->
<g id="edge4" class="edge">
<title>Node2&#45;&gt;Node5</title>
<path fill="none" stroke="#63b8ff" d="M276.11,-71.66C284.03,-70.67 292.27,-69.65 300.53,-68.62"/>
<polygon fill="#63b8ff" stroke="#63b8ff" points="300.78,-72.12 310.27,-67.41 299.91,-65.17 300.78,-72.12"/>
</g>
<!-- Node6 -->
<g id="node6" class="node">
<title>Node6</title>
<g id="a_node6"><a xlink:href="class_urho3_d_1_1_component.html#aafa7952d0f225edde3387da0c91a9356" target="_top" xlink:title=" ">
<polygon fill="white" stroke="#666666" points="442.5,-30 331.5,-30 331.5,0 442.5,0 442.5,-30"/>
<text text-anchor="start" x="339.5" y="-18" font-family="Roboto" font-size="10.00">Urho3D::Component::</text>
<text text-anchor="middle" x="387" y="-7" font-family="Roboto" font-size="10.00">IsEnabledEffective</text>
</a>
</g>
</g>
<!-- Node2&#45;&gt;Node6 -->
<g id="edge5" class="edge">
<title>Node2&#45;&gt;Node6</title>
<path fill="none" stroke="#63b8ff" d="M252.88,-63.64C270.57,-56.23 292.29,-47.37 312,-40 317.26,-38.03 322.76,-36.05 328.28,-34.1"/>
<polygon fill="#63b8ff" stroke="#63b8ff" points="329.14,-37.51 337.44,-30.92 326.84,-30.9 329.14,-37.51"/>
</g>
<!-- Node7 -->
<g id="node7" class="node">
<title>Node7</title>
<g id="a_node7"><a xlink:href="class_urho3_d_1_1_node.html#a36ffa108037ab29617bf178fcb4ec1da" target="_top" xlink:title=" ">
<polygon fill="white" stroke="#666666" points="626,-24.5 498,-24.5 498,-5.5 626,-5.5 626,-24.5"/>
<text text-anchor="middle" x="562" y="-12.5" font-family="Roboto" font-size="10.00">Urho3D::Node::IsEnabled</text>
</a>
</g>
</g>
<!-- Node6&#45;&gt;Node7 -->
<g id="edge6" class="edge">
<title>Node6&#45;&gt;Node7</title>
<path fill="none" stroke="#63b8ff" d="M442.74,-15C456.62,-15 471.77,-15 486.46,-15"/>
<polygon fill="#63b8ff" stroke="#63b8ff" points="486.05,-18.5 496.05,-15 486.05,-11.5 486.05,-18.5"/>
</g>
</g>
</svg>
