<?xml version="1.0" encoding="UTF-8" standalone="no"?>
<!DOCTYPE svg PUBLIC "-//W3C//DTD SVG 1.1//EN"
 "http://www.w3.org/Graphics/SVG/1.1/DTD/svg11.dtd">
<!-- Generated by graphviz version 7.0.3 (0)
 -->
<!-- Title: Urho3D::Constraint2D::SetOtherBody Pages: 1 -->
<svg width="638pt" height="253pt"
 viewBox="0.00 0.00 638.00 252.50" xmlns="http://www.w3.org/2000/svg" xmlns:xlink="http://www.w3.org/1999/xlink">
<g id="graph0" class="graph" transform="scale(1 1) rotate(0) translate(4 248.5)">
<title>Urho3D::Constraint2D::SetOtherBody</title>
<!-- Node1 -->
<g id="node1" class="node">
<title>Node1</title>
<g id="a_node1"><a xlink:title=" ">
<polygon fill="#999999" stroke="#666666" points="112,-183 0,-183 0,-153 112,-153 112,-183"/>
<text text-anchor="start" x="8" y="-171" font-family="Roboto" font-size="10.00">Urho3D::Constraint2D</text>
<text text-anchor="middle" x="56" y="-160" font-family="Roboto" font-size="10.00">::SetOtherBody</text>
</a>
</g>
</g>
<!-- Node2 -->
<g id="node2" class="node">
<title>Node2</title>
<g id="a_node2"><a xlink:href="class_urho3_d_1_1_node.html#a1ce16fa386bfc7b728711030eb941723" target="_top" xlink:title=" ">
<polygon fill="white" stroke="#666666" points="258.5,-244.5 149.5,-244.5 149.5,-225.5 258.5,-225.5 258.5,-244.5"/>
<text text-anchor="middle" x="204" y="-232.5" font-family="Roboto" font-size="10.00">Urho3D::Node::GetID</text>
</a>
</g>
</g>
<!-- Node1&#45;&gt;Node2 -->
<g id="edge1" class="edge">
<title>Node1&#45;&gt;Node2</title>
<path fill="none" stroke="#63b8ff" d="M83.55,-183.38C101.42,-193.4 125.71,-206.34 148,-216 152.11,-217.78 156.44,-219.51 160.79,-221.16"/>
<polygon fill="#63b8ff" stroke="#63b8ff" points="159.54,-224.43 170.14,-224.55 161.93,-217.85 159.54,-224.43"/>
</g>
<!-- Node3 -->
<g id="node3" class="node">
<title>Node3</title>
<g id="a_node3"><a xlink:href="class_urho3_d_1_1_component.html#ada751ff77fe3e5bc417db31cfebc0df8" target="_top" xlink:title=" ">
<polygon fill="white" stroke="#666666" points="259.5,-207 148.5,-207 148.5,-177 259.5,-177 259.5,-207"/>
<text text-anchor="start" x="156.5" y="-195" font-family="Roboto" font-size="10.00">Urho3D::Component::</text>
<text text-anchor="middle" x="204" y="-184" font-family="Roboto" font-size="10.00">GetNode</text>
</a>
</g>
</g>
<!-- Node1&#45;&gt;Node3 -->
<g id="edge2" class="edge">
<title>Node1&#45;&gt;Node3</title>
<path fill="none" stroke="#63b8ff" d="M112.2,-177.07C120.3,-178.41 128.72,-179.79 137.01,-181.15"/>
<polygon fill="#63b8ff" stroke="#63b8ff" points="136.28,-184.58 146.72,-182.75 137.42,-177.67 136.28,-184.58"/>
</g>
<!-- Node4 -->
<g id="node4" class="node">
<title>Node4</title>
<g id="a_node4"><a xlink:href="class_urho3_d_1_1_component.html#aaf87acb64001774c62f0784254f9b291" target="_top" xlink:title="Mark for attribute check on the next network update.">
<polygon fill="white" stroke="#666666" points="259.5,-159 148.5,-159 148.5,-129 259.5,-129 259.5,-159"/>
<text text-anchor="start" x="156.5" y="-147" font-family="Roboto" font-size="10.00">Urho3D::Component::</text>
<text text-anchor="middle" x="204" y="-136" font-family="Roboto" font-size="10.00">MarkNetworkUpdate</text>
</a>
</g>
</g>
<!-- Node1&#45;&gt;Node4 -->
<g id="edge3" class="edge">
<title>Node1&#45;&gt;Node4</title>
<path fill="none" stroke="#63b8ff" d="M112.2,-158.93C120.3,-157.59 128.72,-156.21 137.01,-154.85"/>
<polygon fill="#63b8ff" stroke="#63b8ff" points="137.42,-158.33 146.72,-153.25 136.28,-151.42 137.42,-158.33"/>
</g>
<!-- Node10 -->
<g id="node10" class="node">
<title>Node10</title>
<g id="a_node10"><a xlink:href="class_urho3_d_1_1_constraint2_d.html#a6b020a0b52d60cf6f05f584f85801c58" target="_top" xlink:title="Recreate joint.">
<polygon fill="white" stroke="#666666" points="260,-78 148,-78 148,-48 260,-48 260,-78"/>
<text text-anchor="start" x="156" y="-66" font-family="Roboto" font-size="10.00">Urho3D::Constraint2D</text>
<text text-anchor="middle" x="204" y="-55" font-family="Roboto" font-size="10.00">::RecreateJoint</text>
</a>
</g>
</g>
<!-- Node1&#45;&gt;Node10 -->
<g id="edge10" class="edge">
<title>Node1&#45;&gt;Node10</title>
<path fill="none" stroke="#63b8ff" d="M78.54,-152.51C103.49,-134.57 144.74,-104.9 172.85,-84.68"/>
<polygon fill="#63b8ff" stroke="#63b8ff" points="174.54,-87.78 180.61,-79.1 170.45,-82.1 174.54,-87.78"/>
</g>
<!-- Node5 -->
<g id="node5" class="node">
<title>Node5</title>
<g id="a_node5"><a xlink:href="class_urho3_d_1_1_component.html#a2c22f727341671a0420934f249ffe059" target="_top" xlink:title="Return the scene the node belongs to.">
<polygon fill="white" stroke="#666666" points="425.5,-240 314.5,-240 314.5,-210 425.5,-210 425.5,-240"/>
<text text-anchor="start" x="322.5" y="-228" font-family="Roboto" font-size="10.00">Urho3D::Component::</text>
<text text-anchor="middle" x="370" y="-217" font-family="Roboto" font-size="10.00">GetScene</text>
</a>
</g>
</g>
<!-- Node4&#45;&gt;Node5 -->
<g id="edge4" class="edge">
<title>Node4&#45;&gt;Node5</title>
<path fill="none" stroke="#63b8ff" d="M244.59,-159.37C249.92,-161.99 255.2,-164.88 260,-168 278.19,-179.83 277.27,-190.03 296,-201 298.47,-202.45 301.03,-203.82 303.67,-205.12"/>
<polygon fill="#63b8ff" stroke="#63b8ff" points="302.13,-208.26 312.68,-209.16 304.99,-201.88 302.13,-208.26"/>
</g>
<!-- Node7 -->
<g id="node7" class="node">
<title>Node7</title>
<g id="a_node7"><a xlink:href="class_urho3_d_1_1_component.html#a8f1388c232ca01b7c7328c761aae6e76" target="_top" xlink:title=" ">
<polygon fill="white" stroke="#666666" points="425.5,-192 314.5,-192 314.5,-162 425.5,-162 425.5,-192"/>
<text text-anchor="start" x="322.5" y="-180" font-family="Roboto" font-size="10.00">Urho3D::Component::</text>
<text text-anchor="middle" x="370" y="-169" font-family="Roboto" font-size="10.00">IsReplicated</text>
</a>
</g>
</g>
<!-- Node4&#45;&gt;Node7 -->
<g id="edge6" class="edge">
<title>Node4&#45;&gt;Node7</title>
<path fill="none" stroke="#63b8ff" d="M259.61,-154.99C273.57,-157.8 288.72,-160.85 303.18,-163.76"/>
<polygon fill="#63b8ff" stroke="#63b8ff" points="302.09,-167.11 312.59,-165.65 303.47,-160.24 302.09,-167.11"/>
</g>
<!-- Node9 -->
<g id="node9" class="node">
<title>Node9</title>
<g id="a_node9"><a xlink:href="class_urho3_d_1_1_scene.html#a00b724dfff718639b9de12d71139499c" target="_top" xlink:title="Mark for attribute check on the next network update.">
<polygon fill="white" stroke="#666666" points="444,-126 296,-126 296,-96 444,-96 444,-126"/>
<text text-anchor="start" x="304" y="-114" font-family="Roboto" font-size="10.00">Urho3D::Scene::MarkNetwork</text>
<text text-anchor="middle" x="370" y="-103" font-family="Roboto" font-size="10.00">Update</text>
</a>
</g>
</g>
<!-- Node4&#45;&gt;Node9 -->
<g id="edge8" class="edge">
<title>Node4&#45;&gt;Node9</title>
<path fill="none" stroke="#63b8ff" d="M259.61,-133.01C267.64,-131.39 276.07,-129.7 284.54,-128"/>
<polygon fill="#63b8ff" stroke="#63b8ff" points="285.06,-131.46 294.17,-126.06 283.68,-124.6 285.06,-131.46"/>
</g>
<!-- Node6 -->
<g id="node6" class="node">
<title>Node6</title>
<g id="a_node6"><a xlink:href="class_urho3_d_1_1_node.html#ad3742cda838a2b291daa44d3ab00de56" target="_top" xlink:title=" ">
<polygon fill="white" stroke="#666666" points="618,-234.5 492,-234.5 492,-215.5 618,-215.5 618,-234.5"/>
<text text-anchor="middle" x="555" y="-222.5" font-family="Roboto" font-size="10.00">Urho3D::Node::GetScene</text>
</a>
</g>
</g>
<!-- Node5&#45;&gt;Node6 -->
<g id="edge5" class="edge">
<title>Node5&#45;&gt;Node6</title>
<path fill="none" stroke="#63b8ff" d="M425.91,-225C443,-225 462.14,-225 480.3,-225"/>
<polygon fill="#63b8ff" stroke="#63b8ff" points="480.24,-228.5 490.24,-225 480.24,-221.5 480.24,-228.5"/>
</g>
<!-- Node8 -->
<g id="node8" class="node">
<title>Node8</title>
<g id="a_node8"><a xlink:href="class_urho3_d_1_1_scene.html#a97fb1222bd2f38e6c1c433c0b7e54d40" target="_top" xlink:title="Return whether the specified id is a replicated id.">
<polygon fill="white" stroke="#666666" points="630,-186.5 480,-186.5 480,-167.5 630,-167.5 630,-186.5"/>
<text text-anchor="middle" x="555" y="-174.5" font-family="Roboto" font-size="10.00">Urho3D::Scene::IsReplicatedID</text>
</a>
</g>
</g>
<!-- Node7&#45;&gt;Node8 -->
<g id="edge7" class="edge">
<title>Node7&#45;&gt;Node8</title>
<path fill="none" stroke="#63b8ff" d="M425.91,-177C439.2,-177 453.72,-177 468.07,-177"/>
<polygon fill="#63b8ff" stroke="#63b8ff" points="467.99,-180.5 477.99,-177 467.99,-173.5 467.99,-180.5"/>
</g>
<!-- Node9&#45;&gt;Node9 -->
<g id="edge9" class="edge">
<title>Node9&#45;&gt;Node9</title>
<path fill="none" stroke="#63b8ff" d="M340.82,-126.28C334.34,-135.41 344.06,-144 370,-144 384.18,-144 393.52,-141.43 398.01,-137.61"/>
<polygon fill="#63b8ff" stroke="#63b8ff" points="401.48,-138.09 399.02,-127.78 394.51,-137.37 401.48,-138.09"/>
</g>
<!-- Node11 -->
<g id="node11" class="node">
<title>Node11</title>
<g id="a_node11"><a xlink:href="class_urho3_d_1_1_constraint2_d.html#a5bd16c56eb8593d219bb77c676c2d531" target="_top" xlink:title="Create joint.">
<polygon fill="white" stroke="#666666" points="426,-78 314,-78 314,-48 426,-48 426,-78"/>
<text text-anchor="start" x="322" y="-66" font-family="Roboto" font-size="10.00">Urho3D::Constraint2D</text>
<text text-anchor="middle" x="370" y="-55" font-family="Roboto" font-size="10.00">::CreateJoint</text>
</a>
</g>
</g>
<!-- Node10&#45;&gt;Node11 -->
<g id="edge11" class="edge">
<title>Node10&#45;&gt;Node11</title>
<path fill="none" stroke="#63b8ff" d="M260.07,-63C273.65,-63 288.34,-63 302.41,-63"/>
<polygon fill="#63b8ff" stroke="#63b8ff" points="302.01,-66.5 312.01,-63 302.01,-59.5 302.01,-66.5"/>
</g>
<!-- Node13 -->
<g id="node13" class="node">
<title>Node13</title>
<g id="a_node13"><a xlink:href="class_urho3_d_1_1_constraint2_d.html#a96753482a7b07d8a9cd15c55c22d1079" target="_top" xlink:title="Release joint.">
<polygon fill="white" stroke="#666666" points="426,-30 314,-30 314,0 426,0 426,-30"/>
<text text-anchor="start" x="322" y="-18" font-family="Roboto" font-size="10.00">Urho3D::Constraint2D</text>
<text text-anchor="middle" x="370" y="-7" font-family="Roboto" font-size="10.00">::ReleaseJoint</text>
</a>
</g>
</g>
<!-- Node10&#45;&gt;Node13 -->
<g id="edge13" class="edge">
<title>Node10&#45;&gt;Node13</title>
<path fill="none" stroke="#63b8ff" d="M257.79,-47.55C273.01,-43.09 289.77,-38.19 305.56,-33.57"/>
<polygon fill="#63b8ff" stroke="#63b8ff" points="306.24,-37.02 314.85,-30.85 304.27,-30.3 306.24,-37.02"/>
</g>
<!-- Node12 -->
<g id="node12" class="node">
<title>Node12</title>
<g id="a_node12"><a xlink:href="class_urho3_d_1_1_constraint2_d.html#acb84b297b4881b1c7c549e8468f26105" target="_top" xlink:title="Return joint def.">
<polygon fill="white" stroke="#666666" points="611,-78 499,-78 499,-48 611,-48 611,-78"/>
<text text-anchor="start" x="507" y="-66" font-family="Roboto" font-size="10.00">Urho3D::Constraint2D</text>
<text text-anchor="middle" x="555" y="-55" font-family="Roboto" font-size="10.00">::GetJointDef</text>
</a>
</g>
</g>
<!-- Node11&#45;&gt;Node12 -->
<g id="edge12" class="edge">
<title>Node11&#45;&gt;Node12</title>
<path fill="none" stroke="#63b8ff" d="M426.4,-63C445.66,-63 467.46,-63 487.53,-63"/>
<polygon fill="#63b8ff" stroke="#63b8ff" points="487.27,-66.5 497.27,-63 487.27,-59.5 487.27,-66.5"/>
</g>
</g>
</svg>
