<?xml version="1.0" encoding="UTF-8" standalone="no"?>
<!DOCTYPE svg PUBLIC "-//W3C//DTD SVG 1.1//EN"
 "http://www.w3.org/Graphics/SVG/1.1/DTD/svg11.dtd">
<!-- Generated by graphviz version 7.0.3 (0)
 -->
<!-- Title: Urho3D::Animatable::OnAttributeAnimationAdded Pages: 1 -->
<svg width="1199pt" height="417pt"
 viewBox="0.00 0.00 1199.00 416.88" xmlns="http://www.w3.org/2000/svg" xmlns:xlink="http://www.w3.org/1999/xlink">
<g id="graph0" class="graph" transform="scale(1 1) rotate(0) translate(4 412.88)">
<title>Urho3D::Animatable::OnAttributeAnimationAdded</title>
<!-- Node1 -->
<g id="node1" class="node">
<title>Node1</title>
<g id="a_node1"><a xlink:title="Handle attribute animation added.">
<polygon fill="#999999" stroke="#666666" points="1191,-169 1045,-169 1045,-139 1191,-139 1191,-169"/>
<text text-anchor="start" x="1053" y="-157" font-family="Roboto" font-size="10.00">Urho3D::Animatable</text>
<text text-anchor="middle" x="1118" y="-146" font-family="Roboto" font-size="10.00">::OnAttributeAnimationAdded</text>
</a>
</g>
</g>
<!-- Node2 -->
<g id="node2" class="node">
<title>Node2</title>
<g id="a_node2"><a xlink:href="class_urho3_d_1_1_animatable.html#a1aa4f5c600142e625eec608261cca98b" target="_top" xlink:title="Set attribute animation.">
<polygon fill="white" stroke="#666666" points="1009,-169 891,-169 891,-139 1009,-139 1009,-169"/>
<text text-anchor="start" x="899" y="-157" font-family="Roboto" font-size="10.00">Urho3D::Animatable</text>
<text text-anchor="middle" x="950" y="-146" font-family="Roboto" font-size="10.00">::SetAttributeAnimation</text>
</a>
</g>
</g>
<!-- Node1&#45;&gt;Node2 -->
<g id="edge1" class="edge">
<title>Node1&#45;&gt;Node2</title>
<path fill="none" stroke="#63b8ff" d="M1033.28,-154C1025.2,-154 1017.14,-154 1009.38,-154"/>
<polygon fill="#63b8ff" stroke="#63b8ff" points="1033.16,-157.5 1043.16,-154 1033.16,-150.5 1033.16,-157.5"/>
</g>
<!-- Node3 -->
<g id="node3" class="node">
<title>Node3</title>
<g id="a_node3"><a xlink:href="class_urho3_d_1_1_animatable.html#ad1b16987196e91435eb8af471b7a2714" target="_top" xlink:title="Load from JSON data. Return true if successful.">
<polygon fill="white" stroke="#666666" points="285,-385 181,-385 181,-355 285,-355 285,-385"/>
<text text-anchor="start" x="189" y="-373" font-family="Roboto" font-size="10.00">Urho3D::Animatable</text>
<text text-anchor="middle" x="233" y="-362" font-family="Roboto" font-size="10.00">::LoadJSON</text>
</a>
</g>
</g>
<!-- Node2&#45;&gt;Node3 -->
<g id="edge2" class="edge">
<title>Node2&#45;&gt;Node3</title>
<path fill="none" stroke="#63b8ff" d="M932.19,-178.77C914.72,-203.41 885.67,-241.42 855,-269 783.13,-333.62 765.62,-360.41 673,-388 537.76,-428.29 368.72,-400.95 285.36,-382.68"/>
<polygon fill="#63b8ff" stroke="#63b8ff" points="935,-180.85 937.86,-170.65 929.26,-176.84 935,-180.85"/>
</g>
<!-- Node6 -->
<g id="node6" class="node">
<title>Node6</title>
<g id="a_node6"><a xlink:href="class_urho3_d_1_1_animatable.html#afa12710c0500b10d8e68eb6f62847204" target="_top" xlink:title="Load from XML data. Return true if successful.">
<polygon fill="white" stroke="#666666" points="285,-193 181,-193 181,-163 285,-163 285,-193"/>
<text text-anchor="start" x="189" y="-181" font-family="Roboto" font-size="10.00">Urho3D::Animatable</text>
<text text-anchor="middle" x="233" y="-170" font-family="Roboto" font-size="10.00">::LoadXML</text>
</a>
</g>
</g>
<!-- Node2&#45;&gt;Node6 -->
<g id="edge5" class="edge">
<title>Node2&#45;&gt;Node6</title>
<path fill="none" stroke="#63b8ff" d="M879.56,-156.33C736.33,-161.14 410.99,-172.06 285.09,-176.29"/>
<polygon fill="#63b8ff" stroke="#63b8ff" points="879.4,-159.84 889.28,-156 879.17,-152.84 879.4,-159.84"/>
</g>
<!-- Node10 -->
<g id="node10" class="node">
<title>Node10</title>
<g id="a_node10"><a xlink:href="class_urho3_d_1_1_animatable.html#ae6ca516abed8b44c3ea4a0cc60fbb9ae" target="_top" xlink:title="Remove attribute animation. Same as calling SetAttributeAnimation with a null pointer.">
<polygon fill="white" stroke="#666666" points="852,-126 712,-126 712,-96 852,-96 852,-126"/>
<text text-anchor="start" x="720" y="-114" font-family="Roboto" font-size="10.00">Urho3D::Animatable</text>
<text text-anchor="middle" x="782" y="-103" font-family="Roboto" font-size="10.00">::RemoveAttributeAnimation</text>
</a>
</g>
</g>
<!-- Node2&#45;&gt;Node10 -->
<g id="edge9" class="edge">
<title>Node2&#45;&gt;Node10</title>
<path fill="none" stroke="#63b8ff" d="M880.16,-136.17C867.73,-132.95 854.86,-129.61 842.71,-126.47"/>
<polygon fill="#63b8ff" stroke="#63b8ff" points="878.92,-139.46 889.48,-138.58 880.67,-132.69 878.92,-139.46"/>
</g>
<!-- Node11 -->
<g id="node11" class="node">
<title>Node11</title>
<g id="a_node11"><a xlink:href="class_urho3_d_1_1_animatable.html#a33be41bda0392de337c590c46a283011" target="_top" xlink:title="Set object attribute animation internal.">
<polygon fill="white" stroke="#666666" points="855,-260 709,-260 709,-230 855,-230 855,-260"/>
<text text-anchor="start" x="717" y="-248" font-family="Roboto" font-size="10.00">Urho3D::Animatable</text>
<text text-anchor="middle" x="782" y="-237" font-family="Roboto" font-size="10.00">::SetObjectAttributeAnimation</text>
</a>
</g>
</g>
<!-- Node2&#45;&gt;Node11 -->
<g id="edge10" class="edge">
<title>Node2&#45;&gt;Node11</title>
<path fill="none" stroke="#63b8ff" d="M910.99,-174.84C880.53,-191.54 838.48,-214.59 811.02,-229.64"/>
<polygon fill="#63b8ff" stroke="#63b8ff" points="912.43,-178.04 919.51,-170.16 909.06,-171.9 912.43,-178.04"/>
</g>
<!-- Node20 -->
<g id="node19" class="node">
<title>Node20</title>
<g id="a_node19"><a xlink:href="class_urho3_d_1_1_animatable.html#a5df03d0160dbec915cb43193684ea971" target="_top" xlink:title="Update attribute animations.">
<polygon fill="white" stroke="#666666" points="852,-78 712,-78 712,-48 852,-48 852,-78"/>
<text text-anchor="start" x="720" y="-66" font-family="Roboto" font-size="10.00">Urho3D::Animatable</text>
<text text-anchor="middle" x="782" y="-55" font-family="Roboto" font-size="10.00">::UpdateAttributeAnimations</text>
</a>
</g>
</g>
<!-- Node2&#45;&gt;Node20 -->
<g id="edge23" class="edge">
<title>Node2&#45;&gt;Node20</title>
<path fill="none" stroke="#63b8ff" d="M922.17,-131.59C904.08,-117.33 879.19,-99.3 855,-87 848.78,-83.83 842.04,-80.95 835.28,-78.37"/>
<polygon fill="#63b8ff" stroke="#63b8ff" points="919.8,-134.18 929.79,-137.71 924.18,-128.72 919.8,-134.18"/>
</g>
<!-- Node4 -->
<g id="node4" class="node">
<title>Node4</title>
<g id="a_node4"><a xlink:href="class_urho3_d_1_1_animated_model.html#ab15e3ce26d49e3a40458e56372bade50" target="_top" xlink:title="Load from JSON data. Return true if successful.">
<polygon fill="white" stroke="#666666" points="129,-406 3,-406 3,-376 129,-376 129,-406"/>
<text text-anchor="start" x="11" y="-394" font-family="Roboto" font-size="10.00">Urho3D::AnimatedModel</text>
<text text-anchor="middle" x="66" y="-383" font-family="Roboto" font-size="10.00">::LoadJSON</text>
</a>
</g>
</g>
<!-- Node3&#45;&gt;Node4 -->
<g id="edge3" class="edge">
<title>Node3&#45;&gt;Node4</title>
<path fill="none" stroke="#63b8ff" d="M169.38,-377.97C156.25,-379.64 142.41,-381.4 129.3,-383.07"/>
<polygon fill="#63b8ff" stroke="#63b8ff" points="169.72,-381.46 179.2,-376.72 168.83,-374.51 169.72,-381.46"/>
</g>
<!-- Node5 -->
<g id="node5" class="node">
<title>Node5</title>
<g id="a_node5"><a xlink:href="class_urho3_d_1_1_node.html#a5e1c150d8d013c7550537c5251bf86f7" target="_top" xlink:title="Load components from XML data and optionally load child nodes.">
<polygon fill="white" stroke="#666666" points="132,-357.5 0,-357.5 0,-338.5 132,-338.5 132,-357.5"/>
<text text-anchor="middle" x="66" y="-345.5" font-family="Roboto" font-size="10.00">Urho3D::Node::LoadJSON</text>
</a>
</g>
</g>
<!-- Node3&#45;&gt;Node5 -->
<g id="edge4" class="edge">
<title>Node3&#45;&gt;Node5</title>
<path fill="none" stroke="#63b8ff" d="M169.3,-361.64C157.19,-360.02 144.46,-358.33 132.27,-356.7"/>
<polygon fill="#63b8ff" stroke="#63b8ff" points="168.82,-365.11 179.2,-362.96 169.75,-358.17 168.82,-365.11"/>
</g>
<!-- Node7 -->
<g id="node7" class="node">
<title>Node7</title>
<g id="a_node7"><a xlink:href="class_urho3_d_1_1_animated_model.html#a8132d5f7592e0beee39b8c68fc6d8603" target="_top" xlink:title="Load from XML data. Return true if successful.">
<polygon fill="white" stroke="#666666" points="129,-236 3,-236 3,-206 129,-206 129,-236"/>
<text text-anchor="start" x="11" y="-224" font-family="Roboto" font-size="10.00">Urho3D::AnimatedModel</text>
<text text-anchor="middle" x="66" y="-213" font-family="Roboto" font-size="10.00">::LoadXML</text>
</a>
</g>
</g>
<!-- Node6&#45;&gt;Node7 -->
<g id="edge6" class="edge">
<title>Node6&#45;&gt;Node7</title>
<path fill="none" stroke="#63b8ff" d="M169.97,-194.16C155.69,-197.89 140.52,-201.84 126.35,-205.53"/>
<polygon fill="#63b8ff" stroke="#63b8ff" points="170.44,-197.66 179.23,-191.75 168.67,-190.89 170.44,-197.66"/>
</g>
<!-- Node8 -->
<g id="node8" class="node">
<title>Node8</title>
<g id="a_node8"><a xlink:href="class_urho3_d_1_1_node.html#ab44e461de1af5859a176dfaa75ec95bd" target="_top" xlink:title="Load components from XML data and optionally load child nodes.">
<polygon fill="white" stroke="#666666" points="129.5,-187.5 2.5,-187.5 2.5,-168.5 129.5,-168.5 129.5,-187.5"/>
<text text-anchor="middle" x="66" y="-175.5" font-family="Roboto" font-size="10.00">Urho3D::Node::LoadXML</text>
</a>
</g>
</g>
<!-- Node6&#45;&gt;Node8 -->
<g id="edge7" class="edge">
<title>Node6&#45;&gt;Node8</title>
<path fill="none" stroke="#63b8ff" d="M169.52,-178C156.55,-178 142.87,-178 129.89,-178"/>
<polygon fill="#63b8ff" stroke="#63b8ff" points="169.18,-181.5 179.18,-178 169.18,-174.5 169.18,-181.5"/>
</g>
<!-- Node9 -->
<g id="node9" class="node">
<title>Node9</title>
<g id="a_node9"><a xlink:href="class_urho3_d_1_1_u_i_element.html#ae38f1a5383c92526b1d8ba66b2e50ea1" target="_top" xlink:title="Load from XML data with style. Return true if successful.">
<polygon fill="white" stroke="#666666" points="118.5,-150 13.5,-150 13.5,-120 118.5,-120 118.5,-150"/>
<text text-anchor="start" x="21.5" y="-138" font-family="Roboto" font-size="10.00">Urho3D::UIElement::</text>
<text text-anchor="middle" x="66" y="-127" font-family="Roboto" font-size="10.00">LoadXML</text>
</a>
</g>
</g>
<!-- Node6&#45;&gt;Node9 -->
<g id="edge8" class="edge">
<title>Node6&#45;&gt;Node9</title>
<path fill="none" stroke="#63b8ff" d="M169.85,-161.8C153.04,-157.42 135.02,-152.73 118.84,-148.51"/>
<polygon fill="#63b8ff" stroke="#63b8ff" points="168.67,-165.11 179.23,-164.25 170.44,-158.34 168.67,-165.11"/>
</g>
<!-- Node12 -->
<g id="node12" class="node">
<title>Node12</title>
<g id="a_node12"><a xlink:href="class_urho3_d_1_1_animatable.html#ad3511e697a94f51323f04e2e74ab6063" target="_top" xlink:title="Handle attribute animation added.">
<polygon fill="white" stroke="#666666" points="659.5,-378.5 524.5,-378.5 524.5,-337.5 659.5,-337.5 659.5,-378.5"/>
<text text-anchor="start" x="532.5" y="-366.5" font-family="Roboto" font-size="10.00">Urho3D::Animatable</text>
<text text-anchor="start" x="532.5" y="-355.5" font-family="Roboto" font-size="10.00">::HandleAttributeAnimation</text>
<text text-anchor="middle" x="592" y="-344.5" font-family="Roboto" font-size="10.00">Added</text>
</a>
</g>
</g>
<!-- Node11&#45;&gt;Node12 -->
<g id="edge11" class="edge">
<title>Node11&#45;&gt;Node12</title>
<path fill="none" stroke="#63b8ff" d="M756.02,-268.13C735.1,-286.56 703.8,-312 673,-329 667.83,-331.86 662.32,-334.53 656.7,-337"/>
<polygon fill="#63b8ff" stroke="#63b8ff" points="758.35,-270.75 763.47,-261.47 753.68,-265.53 758.35,-270.75"/>
</g>
<!-- Node17 -->
<g id="node16" class="node">
<title>Node17</title>
<g id="a_node16"><a xlink:href="class_urho3_d_1_1_animatable.html#afa4ade46a2db8254e613c5bd8e80c875" target="_top" xlink:title="Handle attribute animation removed.">
<polygon fill="white" stroke="#666666" points="659.5,-319.5 524.5,-319.5 524.5,-278.5 659.5,-278.5 659.5,-319.5"/>
<text text-anchor="start" x="532.5" y="-307.5" font-family="Roboto" font-size="10.00">Urho3D::Animatable</text>
<text text-anchor="start" x="532.5" y="-296.5" font-family="Roboto" font-size="10.00">::HandleAttributeAnimation</text>
<text text-anchor="middle" x="592" y="-285.5" font-family="Roboto" font-size="10.00">Removed</text>
</a>
</g>
</g>
<!-- Node11&#45;&gt;Node17 -->
<g id="edge17" class="edge">
<title>Node11&#45;&gt;Node17</title>
<path fill="none" stroke="#63b8ff" d="M716.07,-263.65C697.93,-268.86 678.19,-274.53 659.93,-279.77"/>
<polygon fill="#63b8ff" stroke="#63b8ff" points="717.03,-267.02 725.67,-260.89 715.09,-260.29 717.03,-267.02"/>
</g>
<!-- Node18 -->
<g id="node17" class="node">
<title>Node18</title>
<g id="a_node17"><a xlink:href="class_urho3_d_1_1_animatable.html#a9f44b0d39595e7fd312ee5f2bd3faaa7" target="_top" xlink:title="Handle object animation added.">
<polygon fill="white" stroke="#666666" points="660,-260 524,-260 524,-230 660,-230 660,-260"/>
<text text-anchor="start" x="532" y="-248" font-family="Roboto" font-size="10.00">Urho3D::Animatable</text>
<text text-anchor="middle" x="592" y="-237" font-family="Roboto" font-size="10.00">::OnObjectAnimationAdded</text>
</a>
</g>
</g>
<!-- Node11&#45;&gt;Node18 -->
<g id="edge19" class="edge">
<title>Node11&#45;&gt;Node18</title>
<path fill="none" stroke="#63b8ff" d="M697.34,-245C684.99,-245 672.41,-245 660.45,-245"/>
<polygon fill="#63b8ff" stroke="#63b8ff" points="697.07,-248.5 707.07,-245 697.07,-241.5 697.07,-248.5"/>
</g>
<!-- Node19 -->
<g id="node18" class="node">
<title>Node19</title>
<g id="a_node18"><a xlink:href="class_urho3_d_1_1_animatable.html#ab4a67ba315ef8f458d0a2b97a096fb00" target="_top" xlink:title="Handle object animation removed.">
<polygon fill="white" stroke="#666666" points="666,-212 518,-212 518,-182 666,-182 666,-212"/>
<text text-anchor="start" x="526" y="-200" font-family="Roboto" font-size="10.00">Urho3D::Animatable</text>
<text text-anchor="middle" x="592" y="-189" font-family="Roboto" font-size="10.00">::OnObjectAnimationRemoved</text>
</a>
</g>
</g>
<!-- Node11&#45;&gt;Node19 -->
<g id="edge21" class="edge">
<title>Node11&#45;&gt;Node19</title>
<path fill="none" stroke="#63b8ff" d="M709.46,-226.73C690.98,-222.02 671.26,-216.98 653.41,-212.42"/>
<polygon fill="#63b8ff" stroke="#63b8ff" points="708.46,-230.09 719.01,-229.17 710.19,-223.31 708.46,-230.09"/>
</g>
<!-- Node13 -->
<g id="node13" class="node">
<title>Node13</title>
<g id="a_node13"><a xlink:href="class_urho3_d_1_1_animatable.html#ad47a7d6d1ea14b6145dc812e2d9b8486" target="_top" xlink:title=" ">
<polygon fill="white" stroke="#666666" points="458.5,-281 350.5,-281 350.5,-251 458.5,-251 458.5,-281"/>
<text text-anchor="start" x="358.5" y="-269" font-family="Roboto" font-size="10.00">Urho3D::Animatable</text>
<text text-anchor="middle" x="404.5" y="-258" font-family="Roboto" font-size="10.00">::SetObjectAnimation</text>
</a>
</g>
</g>
<!-- Node12&#45;&gt;Node13 -->
<g id="edge12" class="edge">
<title>Node12&#45;&gt;Node13</title>
<path fill="none" stroke="#63b8ff" d="M518.88,-332.6C516.2,-331.42 513.57,-330.22 511,-329 481.32,-314.92 449.17,-294.98 428.26,-281.33"/>
<polygon fill="#63b8ff" stroke="#63b8ff" points="517.39,-335.77 527.96,-336.42 520.11,-329.31 517.39,-335.77"/>
</g>
<!-- Node13&#45;&gt;Node3 -->
<g id="edge13" class="edge">
<title>Node13&#45;&gt;Node3</title>
<path fill="none" stroke="#63b8ff" d="M368.9,-287.23C336.29,-307.24 288.2,-336.74 259.11,-354.59"/>
<polygon fill="#63b8ff" stroke="#63b8ff" points="370.51,-290.35 377.2,-282.14 366.85,-284.38 370.51,-290.35"/>
</g>
<!-- Node13&#45;&gt;Node6 -->
<g id="edge14" class="edge">
<title>Node13&#45;&gt;Node6</title>
<path fill="none" stroke="#63b8ff" d="M364.05,-245.52C333.42,-229.62 291.61,-207.91 263.76,-193.45"/>
<polygon fill="#63b8ff" stroke="#63b8ff" points="362.14,-248.47 372.63,-249.97 365.37,-242.26 362.14,-248.47"/>
</g>
<!-- Node14 -->
<g id="node14" class="node">
<title>Node14</title>
<g id="a_node14"><a xlink:href="class_urho3_d_1_1_animatable.html#afeba9bad5cf17049c904da9978f76ef4" target="_top" xlink:title="Remove object animation. Same as calling SetObjectAnimation with a null pointer.">
<polygon fill="white" stroke="#666666" points="298,-301 168,-301 168,-271 298,-271 298,-301"/>
<text text-anchor="start" x="176" y="-289" font-family="Roboto" font-size="10.00">Urho3D::Animatable</text>
<text text-anchor="middle" x="233" y="-278" font-family="Roboto" font-size="10.00">::RemoveObjectAnimation</text>
</a>
</g>
</g>
<!-- Node13&#45;&gt;Node14 -->
<g id="edge15" class="edge">
<title>Node13&#45;&gt;Node14</title>
<path fill="none" stroke="#63b8ff" d="M339.27,-273.58C325.85,-275.16 311.7,-276.83 298.28,-278.42"/>
<polygon fill="#63b8ff" stroke="#63b8ff" points="339.31,-277.1 348.83,-272.45 338.49,-270.15 339.31,-277.1"/>
</g>
<!-- Node15 -->
<g id="node15" class="node">
<title>Node15</title>
<g id="a_node15"><a xlink:href="class_urho3_d_1_1_animatable.html#afa9b7e0ab148a3d1a4eab44808a44c0f" target="_top" xlink:title="Set object animation attribute.">
<polygon fill="#fff0f0" stroke="red" points="295.5,-253 170.5,-253 170.5,-223 295.5,-223 295.5,-253"/>
<text text-anchor="start" x="178.5" y="-241" font-family="Roboto" font-size="10.00">Urho3D::Animatable</text>
<text text-anchor="middle" x="233" y="-230" font-family="Roboto" font-size="10.00">::SetObjectAnimationAttr</text>
</a>
</g>
</g>
<!-- Node13&#45;&gt;Node15 -->
<g id="edge16" class="edge">
<title>Node13&#45;&gt;Node15</title>
<path fill="none" stroke="#63b8ff" d="M339.16,-255.37C324.96,-253.03 309.96,-250.55 295.87,-248.22"/>
<polygon fill="#63b8ff" stroke="#63b8ff" points="338.4,-258.79 348.84,-256.97 339.55,-251.89 338.4,-258.79"/>
</g>
<!-- Node17&#45;&gt;Node13 -->
<g id="edge18" class="edge">
<title>Node17&#45;&gt;Node13</title>
<path fill="none" stroke="#63b8ff" d="M512.86,-285.1C494.71,-281.87 475.8,-278.51 459,-275.52"/>
<polygon fill="#63b8ff" stroke="#63b8ff" points="512.08,-288.52 522.54,-286.82 513.31,-281.62 512.08,-288.52"/>
</g>
<!-- Node18&#45;&gt;Node13 -->
<g id="edge20" class="edge">
<title>Node18&#45;&gt;Node13</title>
<path fill="none" stroke="#63b8ff" d="M512.16,-253.93C494.22,-255.96 475.58,-258.07 459,-259.94"/>
<polygon fill="#63b8ff" stroke="#63b8ff" points="512.46,-257.41 522,-252.81 511.67,-250.46 512.46,-257.41"/>
</g>
<!-- Node19&#45;&gt;Node13 -->
<g id="edge22" class="edge">
<title>Node19&#45;&gt;Node13</title>
<path fill="none" stroke="#63b8ff" d="M525.61,-215.96C520.65,-217.6 515.73,-219.29 511,-221 486.47,-229.88 459.42,-241.45 438.85,-250.64"/>
<polygon fill="#63b8ff" stroke="#63b8ff" points="526.62,-219.31 535.07,-212.92 524.48,-212.65 526.62,-219.31"/>
</g>
<!-- Node21 -->
<g id="node20" class="node">
<title>Node21</title>
<g id="a_node20"><a xlink:href="class_urho3_d_1_1_component.html#a7bc30b0443591af70652faa9d40a3893" target="_top" xlink:title="Handle scene attribute animation update event.">
<polygon fill="white" stroke="#666666" points="673,-126 511,-126 511,-96 673,-96 673,-126"/>
<text text-anchor="start" x="519" y="-114" font-family="Roboto" font-size="10.00">Urho3D::Component::</text>
<text text-anchor="middle" x="592" y="-103" font-family="Roboto" font-size="10.00">HandleAttributeAnimationUpdate</text>
</a>
</g>
</g>
<!-- Node20&#45;&gt;Node21 -->
<g id="edge24" class="edge">
<title>Node20&#45;&gt;Node21</title>
<path fill="none" stroke="#63b8ff" d="M709.46,-81.27C690.98,-85.98 671.26,-91.02 653.41,-95.58"/>
<polygon fill="#63b8ff" stroke="#63b8ff" points="710.19,-84.69 719.01,-78.83 708.46,-77.91 710.19,-84.69"/>
</g>
<!-- Node23 -->
<g id="node22" class="node">
<title>Node23</title>
<g id="a_node22"><a xlink:href="class_urho3_d_1_1_node.html#a8ed2616a227d94a7dddf6163b0f88a27" target="_top" xlink:title="Handle attribute animation update event.">
<polygon fill="white" stroke="#666666" points="668.5,-78 515.5,-78 515.5,-48 668.5,-48 668.5,-78"/>
<text text-anchor="start" x="523.5" y="-66" font-family="Roboto" font-size="10.00">Urho3D::Node::HandleAttribute</text>
<text text-anchor="middle" x="592" y="-55" font-family="Roboto" font-size="10.00">AnimationUpdate</text>
</a>
</g>
</g>
<!-- Node20&#45;&gt;Node23 -->
<g id="edge26" class="edge">
<title>Node20&#45;&gt;Node23</title>
<path fill="none" stroke="#63b8ff" d="M700.31,-63C689.86,-63 679.19,-63 668.82,-63"/>
<polygon fill="#63b8ff" stroke="#63b8ff" points="700.02,-66.5 710.02,-63 700.02,-59.5 700.02,-66.5"/>
</g>
<!-- Node25 -->
<g id="node24" class="node">
<title>Node25</title>
<g id="a_node24"><a xlink:href="class_urho3_d_1_1_u_i_element.html#abc7aff91ac6944d78d9df58e9d37077f" target="_top" xlink:title="Handle logic post&#45;update event.">
<polygon fill="white" stroke="#666666" points="644.5,-30 539.5,-30 539.5,0 644.5,0 644.5,-30"/>
<text text-anchor="start" x="547.5" y="-18" font-family="Roboto" font-size="10.00">Urho3D::UIElement::</text>
<text text-anchor="middle" x="592" y="-7" font-family="Roboto" font-size="10.00">HandlePostUpdate</text>
</a>
</g>
</g>
<!-- Node20&#45;&gt;Node25 -->
<g id="edge28" class="edge">
<title>Node20&#45;&gt;Node25</title>
<path fill="none" stroke="#63b8ff" d="M709.43,-44.73C687.95,-39.24 664.82,-33.34 644.88,-28.24"/>
<polygon fill="#63b8ff" stroke="#63b8ff" points="708.46,-48.09 719.01,-47.17 710.19,-41.31 708.46,-48.09"/>
</g>
<!-- Node22 -->
<g id="node21" class="node">
<title>Node22</title>
<g id="a_node21"><a xlink:href="class_urho3_d_1_1_component.html#ae124af54fe3f62a04f68c8e0c5e7ab52" target="_top" xlink:title="Handle attribute animation added.">
<polygon fill="white" stroke="#666666" points="475,-126 334,-126 334,-96 475,-96 475,-126"/>
<text text-anchor="start" x="342" y="-114" font-family="Roboto" font-size="10.00">Urho3D::Component::</text>
<text text-anchor="middle" x="404.5" y="-103" font-family="Roboto" font-size="10.00">OnAttributeAnimationAdded</text>
</a>
</g>
</g>
<!-- Node21&#45;&gt;Node22 -->
<g id="edge25" class="edge">
<title>Node21&#45;&gt;Node22</title>
<path fill="none" stroke="#63b8ff" d="M499.37,-111C491.32,-111 483.25,-111 475.42,-111"/>
<polygon fill="#63b8ff" stroke="#63b8ff" points="499.2,-114.5 509.2,-111 499.2,-107.5 499.2,-114.5"/>
</g>
<!-- Node24 -->
<g id="node23" class="node">
<title>Node24</title>
<g id="a_node23"><a xlink:href="class_urho3_d_1_1_node.html#ae42a19a160bffd6c77e3a0a901ece94b" target="_top" xlink:title="Handle attribute animation added.">
<polygon fill="white" stroke="#666666" points="471.5,-78 337.5,-78 337.5,-48 471.5,-48 471.5,-78"/>
<text text-anchor="start" x="345.5" y="-66" font-family="Roboto" font-size="10.00">Urho3D::Node::OnAttribute</text>
<text text-anchor="middle" x="404.5" y="-55" font-family="Roboto" font-size="10.00">AnimationAdded</text>
</a>
</g>
</g>
<!-- Node23&#45;&gt;Node24 -->
<g id="edge27" class="edge">
<title>Node23&#45;&gt;Node24</title>
<path fill="none" stroke="#63b8ff" d="M503.52,-63C492.87,-63 482.13,-63 471.86,-63"/>
<polygon fill="#63b8ff" stroke="#63b8ff" points="503.5,-66.5 513.5,-63 503.5,-59.5 503.5,-66.5"/>
</g>
<!-- Node26 -->
<g id="node25" class="node">
<title>Node26</title>
<g id="a_node25"><a xlink:href="class_urho3_d_1_1_u_i_element.html#a1997a9a0231d90938077d85086710eed" target="_top" xlink:title="Handle attribute animation added.">
<polygon fill="white" stroke="#666666" points="475,-30 334,-30 334,0 475,0 475,-30"/>
<text text-anchor="start" x="342" y="-18" font-family="Roboto" font-size="10.00">Urho3D::UIElement::</text>
<text text-anchor="middle" x="404.5" y="-7" font-family="Roboto" font-size="10.00">OnAttributeAnimationAdded</text>
</a>
</g>
</g>
<!-- Node25&#45;&gt;Node26 -->
<g id="edge29" class="edge">
<title>Node25&#45;&gt;Node26</title>
<path fill="none" stroke="#63b8ff" d="M527.87,-15C510.94,-15 492.54,-15 475.27,-15"/>
<polygon fill="#63b8ff" stroke="#63b8ff" points="527.81,-18.5 537.81,-15 527.81,-11.5 527.81,-18.5"/>
</g>
</g>
</svg>
