<?xml version="1.0" encoding="UTF-8" standalone="no"?>
<!DOCTYPE svg PUBLIC "-//W3C//DTD SVG 1.1//EN"
 "http://www.w3.org/Graphics/SVG/1.1/DTD/svg11.dtd">
<!-- Generated by graphviz version 7.0.3 (0)
 -->
<!-- Title: Urho3D::RigidBody::getWorldTransform Pages: 1 -->
<svg width="311pt" height="64pt"
 viewBox="0.00 0.00 311.00 64.00" xmlns="http://www.w3.org/2000/svg" xmlns:xlink="http://www.w3.org/1999/xlink">
<g id="graph0" class="graph" transform="scale(1 1) rotate(0) translate(4 60)">
<title>Urho3D::RigidBody::getWorldTransform</title>
<!-- Node1 -->
<g id="node1" class="node">
<title>Node1</title>
<g id="a_node1"><a xlink:title=" ">
<polygon fill="#999999" stroke="#666666" points="104,-42.5 0,-42.5 0,-12.5 104,-12.5 104,-42.5"/>
<text text-anchor="start" x="8" y="-30.5" font-family="Roboto" font-size="10.00">Urho3D::RigidBody::</text>
<text text-anchor="middle" x="52" y="-19.5" font-family="Roboto" font-size="10.00">getWorldTransform</text>
</a>
</g>
</g>
<!-- Node2 -->
<g id="node2" class="node">
<title>Node2</title>
<g id="a_node2"><a xlink:href="class_urho3_d_1_1_node.html#a8f3fe7808b7af4975ddb21be8a269ece" target="_top" xlink:title=" ">
<polygon fill="white" stroke="#666666" points="302.5,-56 140.5,-56 140.5,-37 302.5,-37 302.5,-56"/>
<text text-anchor="middle" x="221.5" y="-44" font-family="Roboto" font-size="10.00">Urho3D::Node::GetWorldPosition</text>
</a>
</g>
</g>
<!-- Node1&#45;&gt;Node2 -->
<g id="edge1" class="edge">
<title>Node1&#45;&gt;Node2</title>
<path fill="none" stroke="#63b8ff" d="M104.17,-33.3C111.97,-34.19 120.22,-35.13 128.58,-36.07"/>
<polygon fill="#63b8ff" stroke="#63b8ff" points="128.19,-39.55 138.52,-37.2 128.98,-32.6 128.19,-39.55"/>
</g>
<!-- Node3 -->
<g id="node3" class="node">
<title>Node3</title>
<g id="a_node3"><a xlink:href="class_urho3_d_1_1_node.html#ad74175e15dfaa86263299e355a2d49ed" target="_top" xlink:title=" ">
<polygon fill="white" stroke="#666666" points="303,-19 140,-19 140,0 303,0 303,-19"/>
<text text-anchor="middle" x="221.5" y="-7" font-family="Roboto" font-size="10.00">Urho3D::Node::GetWorldRotation</text>
</a>
</g>
</g>
<!-- Node1&#45;&gt;Node3 -->
<g id="edge2" class="edge">
<title>Node1&#45;&gt;Node3</title>
<path fill="none" stroke="#63b8ff" d="M104.17,-22C111.9,-21.17 120.08,-20.29 128.37,-19.4"/>
<polygon fill="#63b8ff" stroke="#63b8ff" points="128.64,-22.89 138.21,-18.34 127.89,-15.93 128.64,-22.89"/>
</g>
</g>
</svg>
