<?xml version="1.0" encoding="UTF-8" standalone="no"?>
<!DOCTYPE svg PUBLIC "-//W3C//DTD SVG 1.1//EN"
 "http://www.w3.org/Graphics/SVG/1.1/DTD/svg11.dtd">
<!-- Generated by graphviz version 7.0.3 (0)
 -->
<!-- Title: Urho3D::LineEdit::OnTextInput Pages: 1 -->
<svg width="1057pt" height="466pt"
 viewBox="0.00 0.00 1057.00 465.50" xmlns="http://www.w3.org/2000/svg" xmlns:xlink="http://www.w3.org/1999/xlink">
<g id="graph0" class="graph" transform="scale(1 1) rotate(0) translate(4 461.5)">
<title>Urho3D::LineEdit::OnTextInput</title>
<!-- Node1 -->
<g id="node1" class="node">
<title>Node1</title>
<g id="a_node1"><a xlink:title="React to text input event.">
<polygon fill="#999999" stroke="#666666" points="125,-326 0,-326 0,-296 125,-296 125,-326"/>
<text text-anchor="start" x="8" y="-314" font-family="Roboto" font-size="10.00">Urho3D::LineEdit::OnText</text>
<text text-anchor="middle" x="62.5" y="-303" font-family="Roboto" font-size="10.00">Input</text>
</a>
</g>
</g>
<!-- Node2 -->
<g id="node2" class="node">
<title>Node2</title>
<g id="a_node2"><a xlink:href="class_urho3_d_1_1_string.html#a8413f000551027cd127996e3c5b00185" target="_top" xlink:title=" ">
<polygon fill="white" stroke="#666666" points="289.5,-453.5 176.5,-453.5 176.5,-434.5 289.5,-434.5 289.5,-453.5"/>
<text text-anchor="middle" x="233" y="-441.5" font-family="Roboto" font-size="10.00">Urho3D::String::Empty</text>
</a>
</g>
</g>
<!-- Node1&#45;&gt;Node2 -->
<g id="edge1" class="edge">
<title>Node1&#45;&gt;Node2</title>
<path fill="none" stroke="#63b8ff" d="M73.3,-326.29C89.06,-349.7 122.22,-394.4 161,-420 166.91,-423.9 173.53,-427.23 180.27,-430.06"/>
<polygon fill="#63b8ff" stroke="#63b8ff" points="178.89,-433.28 189.48,-433.55 181.37,-426.73 178.89,-433.28"/>
</g>
<!-- Node3 -->
<g id="node3" class="node">
<title>Node3</title>
<g id="a_node3"><a xlink:href="class_urho3_d_1_1_object.html#a69af51cfa67f9626273b35a6d501e03e" target="_top" xlink:title="Return a preallocated map for event data. Used for optimization to avoid constant re&#45;allocation of ev...">
<polygon fill="white" stroke="#666666" points="478,-426 353,-426 353,-396 478,-396 478,-426"/>
<text text-anchor="start" x="361" y="-414" font-family="Roboto" font-size="10.00">Urho3D::Object::GetEvent</text>
<text text-anchor="middle" x="415.5" y="-403" font-family="Roboto" font-size="10.00">DataMap</text>
</a>
</g>
</g>
<!-- Node1&#45;&gt;Node3 -->
<g id="edge2" class="edge">
<title>Node1&#45;&gt;Node3</title>
<path fill="none" stroke="#63b8ff" d="M79.17,-326.48C97.23,-343.27 128.61,-369.38 161,-382 218.84,-404.55 289.33,-411.1 341.28,-412.41"/>
<polygon fill="#63b8ff" stroke="#63b8ff" points="341.16,-415.91 351.22,-412.59 341.29,-408.91 341.16,-415.91"/>
</g>
<!-- Node16 -->
<g id="node9" class="node">
<title>Node16</title>
<g id="a_node9"><a xlink:href="class_urho3_d_1_1_string.html#ad062c733a6396f806c3e7418a71378b3" target="_top" xlink:title=" ">
<polygon fill="white" stroke="#666666" points="672,-376.5 535,-376.5 535,-357.5 672,-357.5 672,-376.5"/>
<text text-anchor="middle" x="603.5" y="-364.5" font-family="Roboto" font-size="10.00">Urho3D::String::LengthUTF8</text>
</a>
</g>
</g>
<!-- Node1&#45;&gt;Node16 -->
<g id="edge8" class="edge">
<title>Node1&#45;&gt;Node16</title>
<path fill="none" stroke="#63b8ff" d="M125.46,-318.21C181.68,-324.68 266.86,-334.32 341,-342 402.15,-348.34 471.41,-354.93 523.28,-359.76"/>
<polygon fill="#63b8ff" stroke="#63b8ff" points="522.96,-363.24 533.24,-360.68 523.6,-356.27 522.96,-363.24"/>
</g>
<!-- Node18 -->
<g id="node11" class="node">
<title>Node18</title>
<g id="a_node11"><a xlink:href="class_urho3_d_1_1_object.html#a32020dbf77c196b9777eca479e8abb36" target="_top" xlink:title="Send event to all subscribers.">
<polygon fill="white" stroke="#666666" points="482,-207.5 349,-207.5 349,-188.5 482,-188.5 482,-207.5"/>
<text text-anchor="middle" x="415.5" y="-195.5" font-family="Roboto" font-size="10.00">Urho3D::Object::SendEvent</text>
</a>
</g>
</g>
<!-- Node1&#45;&gt;Node18 -->
<g id="edge10" class="edge">
<title>Node1&#45;&gt;Node18</title>
<path fill="none" stroke="#63b8ff" d="M85.34,-295.55C104.46,-282.69 133.43,-264.8 161,-254 218.06,-231.66 286.02,-217.25 337.2,-208.65"/>
<polygon fill="#63b8ff" stroke="#63b8ff" points="337.72,-212.11 347.02,-207.04 336.59,-205.21 337.72,-212.11"/>
</g>
<!-- Node19 -->
<g id="node12" class="node">
<title>Node19</title>
<g id="a_node12"><a xlink:href="class_urho3_d_1_1_string.html#a194e2ff9a391edfc4d67c432595c5ea6" target="_top" xlink:title="Return a UTF8 substring from position to end.">
<polygon fill="white" stroke="#666666" points="490,-301.5 341,-301.5 341,-282.5 490,-282.5 490,-301.5"/>
<text text-anchor="middle" x="415.5" y="-289.5" font-family="Roboto" font-size="10.00">Urho3D::String::SubstringUTF8</text>
</a>
</g>
</g>
<!-- Node1&#45;&gt;Node19 -->
<g id="edge12" class="edge">
<title>Node1&#45;&gt;Node19</title>
<path fill="none" stroke="#63b8ff" d="M125.44,-307.65C182.05,-304.58 266.26,-300.02 329.21,-296.62"/>
<polygon fill="#63b8ff" stroke="#63b8ff" points="329.4,-300.11 339.2,-296.08 329.02,-293.12 329.4,-300.11"/>
</g>
<!-- Node25 -->
<g id="node18" class="node">
<title>Node25</title>
<g id="a_node18"><a xlink:href="class_urho3_d_1_1_line_edit.html#af9825009b8da28fc2704bf1dfcce7a5f" target="_top" xlink:title="Update cursor position and restart cursor blinking.">
<polygon fill="white" stroke="#666666" points="478,-170 353,-170 353,-140 478,-140 478,-170"/>
<text text-anchor="start" x="361" y="-158" font-family="Roboto" font-size="10.00">Urho3D::LineEdit::Update</text>
<text text-anchor="middle" x="415.5" y="-147" font-family="Roboto" font-size="10.00">Cursor</text>
</a>
</g>
</g>
<!-- Node1&#45;&gt;Node25 -->
<g id="edge21" class="edge">
<title>Node1&#45;&gt;Node25</title>
<path fill="none" stroke="#63b8ff" d="M73.83,-295.77C89.79,-273.49 122.65,-232.34 161,-211 216.77,-179.97 288.41,-166.13 341.3,-159.96"/>
<polygon fill="#63b8ff" stroke="#63b8ff" points="341.56,-163.46 351.12,-158.89 340.8,-156.5 341.56,-163.46"/>
</g>
<!-- Node33 -->
<g id="node25" class="node">
<title>Node33</title>
<g id="a_node25"><a xlink:href="class_urho3_d_1_1_line_edit.html#a6419ff9761457b8c509b293a15bf81e3" target="_top" xlink:title="Update displayed text.">
<polygon fill="white" stroke="#666666" points="305,-282.5 161,-282.5 161,-263.5 305,-263.5 305,-282.5"/>
<text text-anchor="middle" x="233" y="-270.5" font-family="Roboto" font-size="10.00">Urho3D::LineEdit::UpdateText</text>
</a>
</g>
</g>
<!-- Node1&#45;&gt;Node33 -->
<g id="edge29" class="edge">
<title>Node1&#45;&gt;Node33</title>
<path fill="none" stroke="#63b8ff" d="M125.29,-297.07C142.15,-293.26 160.31,-289.17 176.79,-285.45"/>
<polygon fill="#63b8ff" stroke="#63b8ff" points="177.42,-288.9 186.41,-283.28 175.88,-282.07 177.42,-288.9"/>
</g>
<!-- Node4 -->
<g id="node4" class="node">
<title>Node4</title>
<g id="a_node4"><a xlink:href="class_urho3_d_1_1_context.html#acb628095602a49ade116c4761ab44004" target="_top" xlink:title="Return a preallocated map for event data. Used for optimization to avoid constant re&#45;allocation of ev...">
<polygon fill="white" stroke="#666666" points="669.5,-426 537.5,-426 537.5,-396 669.5,-396 669.5,-426"/>
<text text-anchor="start" x="545.5" y="-414" font-family="Roboto" font-size="10.00">Urho3D::Context::GetEvent</text>
<text text-anchor="middle" x="603.5" y="-403" font-family="Roboto" font-size="10.00">DataMap</text>
</a>
</g>
</g>
<!-- Node3&#45;&gt;Node4 -->
<g id="edge3" class="edge">
<title>Node3&#45;&gt;Node4</title>
<path fill="none" stroke="#63b8ff" d="M478.44,-411C493.57,-411 509.95,-411 525.69,-411"/>
<polygon fill="#63b8ff" stroke="#63b8ff" points="525.5,-414.5 535.5,-411 525.5,-407.5 525.5,-414.5"/>
</g>
<!-- Node5 -->
<g id="node5" class="node">
<title>Node5</title>
<g id="a_node5"><a xlink:href="class_urho3_d_1_1_hash_map.html#ac02bdba9ea0d1055a3a75f6bae2ffc69" target="_top" xlink:title="Clear the map.">
<polygon fill="#fff0f0" stroke="red" points="854.5,-420.5 729.5,-420.5 729.5,-401.5 854.5,-401.5 854.5,-420.5"/>
<text text-anchor="middle" x="792" y="-408.5" font-family="Roboto" font-size="10.00">Urho3D::HashMap::Clear</text>
</a>
</g>
</g>
<!-- Node4&#45;&gt;Node5 -->
<g id="edge4" class="edge">
<title>Node4&#45;&gt;Node5</title>
<path fill="none" stroke="#63b8ff" d="M669.99,-411C685.45,-411 702.02,-411 717.79,-411"/>
<polygon fill="#63b8ff" stroke="#63b8ff" points="717.6,-414.5 727.6,-411 717.6,-407.5 717.6,-414.5"/>
</g>
<!-- Node6 -->
<g id="node6" class="node">
<title>Node6</title>
<g id="a_node6"><a xlink:href="class_urho3_d_1_1_hash_map.html#a620be7ef6fc8e2958ef4f09523fd5c72" target="_top" xlink:title="Return iterator to the beginning.">
<polygon fill="#fff0f0" stroke="red" points="1039,-457.5 913,-457.5 913,-438.5 1039,-438.5 1039,-457.5"/>
<text text-anchor="middle" x="976" y="-445.5" font-family="Roboto" font-size="10.00">Urho3D::HashMap::Begin</text>
</a>
</g>
</g>
<!-- Node5&#45;&gt;Node6 -->
<g id="edge5" class="edge">
<title>Node5&#45;&gt;Node6</title>
<path fill="none" stroke="#63b8ff" d="M841.77,-420.92C864.32,-425.5 891.3,-430.98 915.07,-435.82"/>
<polygon fill="#63b8ff" stroke="#63b8ff" points="914.11,-439.19 924.61,-437.76 915.51,-432.33 914.11,-439.19"/>
</g>
<!-- Node8 -->
<g id="node7" class="node">
<title>Node8</title>
<g id="a_node7"><a xlink:href="class_urho3_d_1_1_hash_map.html#a47eb201d8441d4e4be8626e615cb562d" target="_top" xlink:title="Return iterator to the end.">
<polygon fill="#fff0f0" stroke="red" points="1035.5,-420.5 916.5,-420.5 916.5,-401.5 1035.5,-401.5 1035.5,-420.5"/>
<text text-anchor="middle" x="976" y="-408.5" font-family="Roboto" font-size="10.00">Urho3D::HashMap::End</text>
</a>
</g>
</g>
<!-- Node5&#45;&gt;Node8 -->
<g id="edge6" class="edge">
<title>Node5&#45;&gt;Node8</title>
<path fill="none" stroke="#63b8ff" d="M854.87,-411C870.95,-411 888.38,-411 904.85,-411"/>
<polygon fill="#63b8ff" stroke="#63b8ff" points="904.55,-414.5 914.55,-411 904.55,-407.5 904.55,-414.5"/>
</g>
<!-- Node10 -->
<g id="node8" class="node">
<title>Node10</title>
<g id="a_node8"><a xlink:href="class_urho3_d_1_1_hash_map.html#a3313b8ec65ab0b23c74570898b09175c" target="_top" xlink:title="Free a node.">
<polygon fill="white" stroke="#666666" points="1049,-383.5 903,-383.5 903,-364.5 1049,-364.5 1049,-383.5"/>
<text text-anchor="middle" x="976" y="-371.5" font-family="Roboto" font-size="10.00">Urho3D::HashMap::FreeNode</text>
</a>
</g>
</g>
<!-- Node5&#45;&gt;Node10 -->
<g id="edge7" class="edge">
<title>Node5&#45;&gt;Node10</title>
<path fill="none" stroke="#63b8ff" d="M841.77,-401.08C864.32,-396.5 891.3,-391.02 915.07,-386.18"/>
<polygon fill="#63b8ff" stroke="#63b8ff" points="915.51,-389.67 924.61,-384.24 914.11,-382.81 915.51,-389.67"/>
</g>
<!-- Node17 -->
<g id="node10" class="node">
<title>Node17</title>
<g id="a_node10"><a xlink:href="class_urho3_d_1_1_string.html#ac98156ce9bb85bd015c3ec255d307025" target="_top" xlink:title="Decode Unicode character from UTF8. Pointer will be incremented.">
<polygon fill="white" stroke="#666666" points="1047.5,-342.5 904.5,-342.5 904.5,-323.5 1047.5,-323.5 1047.5,-342.5"/>
<text text-anchor="middle" x="976" y="-330.5" font-family="Roboto" font-size="10.00">Urho3D::String::DecodeUTF8</text>
</a>
</g>
</g>
<!-- Node16&#45;&gt;Node17 -->
<g id="edge9" class="edge">
<title>Node16&#45;&gt;Node17</title>
<path fill="none" stroke="#63b8ff" d="M672.32,-363.32C725.39,-360.14 801,-354.96 867,-348 876.71,-346.98 886.89,-345.75 896.96,-344.46"/>
<polygon fill="#63b8ff" stroke="#63b8ff" points="897.3,-347.94 906.75,-343.17 896.38,-341 897.3,-347.94"/>
</g>
<!-- Node18&#45;&gt;Node18 -->
<g id="edge11" class="edge">
<title>Node18&#45;&gt;Node18</title>
<path fill="none" stroke="#63b8ff" d="M386.93,-207.87C373.9,-216.44 383.42,-225.5 415.5,-225.5 433.55,-225.5 444.45,-222.63 448.22,-218.6"/>
<polygon fill="#63b8ff" stroke="#63b8ff" points="451.49,-217.34 444.62,-209.28 444.96,-219.87 451.49,-217.34"/>
</g>
<!-- Node19&#45;&gt;Node16 -->
<g id="edge19" class="edge">
<title>Node19&#45;&gt;Node16</title>
<path fill="none" stroke="#63b8ff" d="M457.5,-301.99C468.47,-305.56 480.03,-310.18 490,-316 508.74,-326.95 506.81,-338.85 526,-349 528.88,-350.53 531.9,-351.92 534.99,-353.2"/>
<polygon fill="#63b8ff" stroke="#63b8ff" points="533.72,-356.46 544.31,-356.6 536.11,-349.89 533.72,-356.46"/>
</g>
<!-- Node20 -->
<g id="node13" class="node">
<title>Node20</title>
<g id="a_node13"><a xlink:href="class_urho3_d_1_1_string.html#a20e68dd4e5bf8f9fc9a12eb74260d5bc" target="_top" xlink:title="Append Unicode character at the end as UTF8.">
<polygon fill="white" stroke="#666666" points="674.5,-263.5 532.5,-263.5 532.5,-244.5 674.5,-244.5 674.5,-263.5"/>
<text text-anchor="middle" x="603.5" y="-251.5" font-family="Roboto" font-size="10.00">Urho3D::String::AppendUTF8</text>
</a>
</g>
</g>
<!-- Node19&#45;&gt;Node20 -->
<g id="edge13" class="edge">
<title>Node19&#45;&gt;Node20</title>
<path fill="none" stroke="#63b8ff" d="M465.37,-282.02C488.98,-277.19 517.54,-271.36 542.47,-266.26"/>
<polygon fill="#63b8ff" stroke="#63b8ff" points="543.05,-269.72 552.15,-264.29 541.65,-262.86 543.05,-269.72"/>
</g>
<!-- Node23 -->
<g id="node16" class="node">
<title>Node23</title>
<g id="a_node16"><a xlink:href="class_urho3_d_1_1_string.html#a293e23eda3ebaa3fa44db7e858d46d94" target="_top" xlink:title="Return byte offset to char in UTF8 content.">
<polygon fill="white" stroke="#666666" points="681,-339.5 526,-339.5 526,-320.5 681,-320.5 681,-339.5"/>
<text text-anchor="middle" x="603.5" y="-327.5" font-family="Roboto" font-size="10.00">Urho3D::String::ByteOffsetUTF8</text>
</a>
</g>
</g>
<!-- Node19&#45;&gt;Node23 -->
<g id="edge16" class="edge">
<title>Node19&#45;&gt;Node23</title>
<path fill="none" stroke="#63b8ff" d="M465.37,-301.98C488.98,-306.81 517.54,-312.64 542.47,-317.74"/>
<polygon fill="#63b8ff" stroke="#63b8ff" points="541.65,-321.14 552.15,-319.71 543.05,-314.28 541.65,-321.14"/>
</g>
<!-- Node24 -->
<g id="node17" class="node">
<title>Node24</title>
<g id="a_node17"><a xlink:href="class_urho3_d_1_1_string.html#a16643a545e2cfcf7a59979bd3c290614" target="_top" xlink:title="Return next Unicode character from UTF8 content and increase byte offset.">
<polygon fill="white" stroke="#666666" points="867,-338.5 717,-338.5 717,-319.5 867,-319.5 867,-338.5"/>
<text text-anchor="middle" x="792" y="-326.5" font-family="Roboto" font-size="10.00">Urho3D::String::NextUTF8Char</text>
</a>
</g>
</g>
<!-- Node19&#45;&gt;Node24 -->
<g id="edge20" class="edge">
<title>Node19&#45;&gt;Node24</title>
<path fill="none" stroke="#63b8ff" d="M490.47,-296.05C543.59,-299.33 616.84,-304.63 681,-312 693.97,-313.49 707.76,-315.38 721.03,-317.35"/>
<polygon fill="#63b8ff" stroke="#63b8ff" points="720.12,-320.75 730.53,-318.79 721.17,-313.83 720.12,-320.75"/>
</g>
<!-- Node21 -->
<g id="node14" class="node">
<title>Node21</title>
<g id="a_node14"><a xlink:href="class_urho3_d_1_1_string.html#af929252b4bd8cbd8dca97a116365c359" target="_top" xlink:title="Append a string.">
<polygon fill="white" stroke="#666666" points="851.5,-300.5 732.5,-300.5 732.5,-281.5 851.5,-281.5 851.5,-300.5"/>
<text text-anchor="middle" x="792" y="-288.5" font-family="Roboto" font-size="10.00">Urho3D::String::Append</text>
</a>
</g>
</g>
<!-- Node20&#45;&gt;Node21 -->
<g id="edge14" class="edge">
<title>Node20&#45;&gt;Node21</title>
<path fill="none" stroke="#63b8ff" d="M654.48,-263.92C677.68,-268.52 705.48,-274.03 729.92,-278.88"/>
<polygon fill="#63b8ff" stroke="#63b8ff" points="728.91,-282.25 739.4,-280.76 730.27,-275.38 728.91,-282.25"/>
</g>
<!-- Node22 -->
<g id="node15" class="node">
<title>Node22</title>
<g id="a_node15"><a xlink:href="class_urho3_d_1_1_string.html#a3b04a91d06f0b5b3651bbfa867d9539d" target="_top" xlink:title="Encode Unicode character to UTF8. Pointer will be incremented.">
<polygon fill="white" stroke="#666666" points="863,-263.5 721,-263.5 721,-244.5 863,-244.5 863,-263.5"/>
<text text-anchor="middle" x="792" y="-251.5" font-family="Roboto" font-size="10.00">Urho3D::String::EncodeUTF8</text>
</a>
</g>
</g>
<!-- Node20&#45;&gt;Node22 -->
<g id="edge15" class="edge">
<title>Node20&#45;&gt;Node22</title>
<path fill="none" stroke="#63b8ff" d="M674.74,-254C685.97,-254 697.67,-254 709.15,-254"/>
<polygon fill="#63b8ff" stroke="#63b8ff" points="709,-257.5 719,-254 709,-250.5 709,-257.5"/>
</g>
<!-- Node23&#45;&gt;Node24 -->
<g id="edge17" class="edge">
<title>Node23&#45;&gt;Node24</title>
<path fill="none" stroke="#63b8ff" d="M681.43,-329.59C689.25,-329.55 697.23,-329.5 705.14,-329.46"/>
<polygon fill="#63b8ff" stroke="#63b8ff" points="705.15,-332.96 715.13,-329.41 705.11,-325.96 705.15,-332.96"/>
</g>
<!-- Node24&#45;&gt;Node17 -->
<g id="edge18" class="edge">
<title>Node24&#45;&gt;Node17</title>
<path fill="none" stroke="#63b8ff" d="M867.29,-330.63C875.67,-330.82 884.24,-331.01 892.72,-331.19"/>
<polygon fill="#63b8ff" stroke="#63b8ff" points="892.59,-334.69 902.67,-331.41 892.75,-327.69 892.59,-334.69"/>
</g>
<!-- Node26 -->
<g id="node19" class="node">
<title>Node26</title>
<g id="a_node19"><a xlink:href="class_urho3_d_1_1_u_i_element.html#a0ce25dda5f6557938bd76b776efa8bf0" target="_top" xlink:title="Convert element coordinates to screen coordinates.">
<polygon fill="white" stroke="#666666" points="656,-222 551,-222 551,-192 656,-192 656,-222"/>
<text text-anchor="start" x="559" y="-210" font-family="Roboto" font-size="10.00">Urho3D::UIElement::</text>
<text text-anchor="middle" x="603.5" y="-199" font-family="Roboto" font-size="10.00">ElementToScreen</text>
</a>
</g>
</g>
<!-- Node25&#45;&gt;Node26 -->
<g id="edge22" class="edge">
<title>Node25&#45;&gt;Node26</title>
<path fill="none" stroke="#63b8ff" d="M471.8,-170.46C493.15,-176.43 517.68,-183.29 539.69,-189.44"/>
<polygon fill="#63b8ff" stroke="#63b8ff" points="538.56,-192.76 549.14,-192.08 540.45,-186.02 538.56,-192.76"/>
</g>
<!-- Node29 -->
<g id="node21" class="node">
<title>Node29</title>
<g id="a_node21"><a xlink:href="class_urho3_d_1_1_u_i_element.html#a75032690b0214d2551eac5744a306644" target="_top" xlink:title=" ">
<polygon fill="white" stroke="#666666" points="656,-174 551,-174 551,-144 656,-144 656,-174"/>
<text text-anchor="start" x="559" y="-162" font-family="Roboto" font-size="10.00">Urho3D::UIElement::</text>
<text text-anchor="middle" x="603.5" y="-151" font-family="Roboto" font-size="10.00">GetChildOffset</text>
</a>
</g>
</g>
<!-- Node25&#45;&gt;Node29 -->
<g id="edge25" class="edge">
<title>Node25&#45;&gt;Node29</title>
<path fill="none" stroke="#63b8ff" d="M478.44,-156.33C498.05,-156.75 519.74,-157.22 539.43,-157.64"/>
<polygon fill="#63b8ff" stroke="#63b8ff" points="539.18,-161.14 549.25,-157.85 539.33,-154.14 539.18,-161.14"/>
</g>
<!-- Node30 -->
<g id="node22" class="node">
<title>Node30</title>
<g id="a_node22"><a xlink:href="class_urho3_d_1_1_u_i_element.html#af0d0d929939b0fb4b8d38c7699ecdfa0" target="_top" xlink:title=" ">
<polygon fill="white" stroke="#666666" points="656,-126 551,-126 551,-96 656,-96 656,-126"/>
<text text-anchor="start" x="559" y="-114" font-family="Roboto" font-size="10.00">Urho3D::UIElement::</text>
<text text-anchor="middle" x="603.5" y="-103" font-family="Roboto" font-size="10.00">GetIndentWidth</text>
</a>
</g>
</g>
<!-- Node25&#45;&gt;Node30 -->
<g id="edge26" class="edge">
<title>Node25&#45;&gt;Node30</title>
<path fill="none" stroke="#63b8ff" d="M478.44,-140.35C498.14,-135.69 519.94,-130.53 539.71,-125.85"/>
<polygon fill="#63b8ff" stroke="#63b8ff" points="540.36,-129.3 549.29,-123.59 538.75,-122.48 540.36,-129.3"/>
</g>
<!-- Node31 -->
<g id="node23" class="node">
<title>Node31</title>
<g id="a_node23"><a xlink:href="class_urho3_d_1_1_u_i_element.html#a8c3df9a7b24aa874345db797a95e130e" target="_top" xlink:title=" ">
<polygon fill="white" stroke="#666666" points="656,-78 551,-78 551,-48 656,-48 656,-78"/>
<text text-anchor="start" x="559" y="-66" font-family="Roboto" font-size="10.00">Urho3D::UIElement::</text>
<text text-anchor="middle" x="603.5" y="-55" font-family="Roboto" font-size="10.00">GetWidth</text>
</a>
</g>
</g>
<!-- Node25&#45;&gt;Node31 -->
<g id="edge27" class="edge">
<title>Node25&#45;&gt;Node31</title>
<path fill="none" stroke="#63b8ff" d="M437.42,-139.78C458.82,-124.75 493.45,-101.92 526,-87 530.54,-84.92 535.3,-82.95 540.14,-81.11"/>
<polygon fill="#63b8ff" stroke="#63b8ff" points="541.16,-84.46 549.38,-77.78 538.79,-77.88 541.16,-84.46"/>
</g>
<!-- Node32 -->
<g id="node24" class="node">
<title>Node32</title>
<g id="a_node24"><a xlink:href="class_urho3_d_1_1_u_i_element.html#a1514f8d82ab6e8a2cf10f20b807f738d" target="_top" xlink:title="Set child offset.">
<polygon fill="white" stroke="#666666" points="656,-30 551,-30 551,0 656,0 656,-30"/>
<text text-anchor="start" x="559" y="-18" font-family="Roboto" font-size="10.00">Urho3D::UIElement::</text>
<text text-anchor="middle" x="603.5" y="-7" font-family="Roboto" font-size="10.00">SetChildOffset</text>
</a>
</g>
</g>
<!-- Node25&#45;&gt;Node32 -->
<g id="edge28" class="edge">
<title>Node25&#45;&gt;Node32</title>
<path fill="none" stroke="#63b8ff" d="M426.79,-139.85C444.31,-115.18 482.33,-66.32 526,-39 530.48,-36.19 535.32,-33.69 540.31,-31.47"/>
<polygon fill="#63b8ff" stroke="#63b8ff" points="541.33,-34.83 549.29,-27.84 538.71,-28.34 541.33,-34.83"/>
</g>
<!-- Node27 -->
<g id="node20" class="node">
<title>Node27</title>
<g id="a_node20"><a xlink:href="class_urho3_d_1_1_u_i_element.html#a031e2acb1765a940b9427003cb8653d7" target="_top" xlink:title=" ">
<polygon fill="#fff0f0" stroke="red" points="844.5,-208 739.5,-208 739.5,-178 844.5,-178 844.5,-208"/>
<text text-anchor="start" x="747.5" y="-196" font-family="Roboto" font-size="10.00">Urho3D::UIElement::</text>
<text text-anchor="middle" x="792" y="-185" font-family="Roboto" font-size="10.00">GetScreenPosition</text>
</a>
</g>
</g>
<!-- Node26&#45;&gt;Node27 -->
<g id="edge23" class="edge">
<title>Node26&#45;&gt;Node27</title>
<path fill="none" stroke="#63b8ff" d="M656.45,-203.1C678.49,-201.45 704.38,-199.5 727.53,-197.76"/>
<polygon fill="#63b8ff" stroke="#63b8ff" points="727.79,-201.26 737.5,-197.02 727.26,-194.27 727.79,-201.26"/>
</g>
<!-- Node27&#45;&gt;Node27 -->
<g id="edge24" class="edge">
<title>Node27&#45;&gt;Node27</title>
<path fill="none" stroke="#63b8ff" d="M759.66,-208.28C752.47,-217.41 763.25,-226 792,-226 807.72,-226 818.07,-223.43 823.05,-219.61"/>
<polygon fill="#63b8ff" stroke="#63b8ff" points="826.51,-220.11 824.17,-209.78 819.56,-219.32 826.51,-220.11"/>
</g>
<!-- Node33&#45;&gt;Node3 -->
<g id="edge31" class="edge">
<title>Node33&#45;&gt;Node3</title>
<path fill="none" stroke="#63b8ff" d="M246.98,-282.92C275.79,-304.95 345.67,-358.38 385.48,-388.81"/>
<polygon fill="#63b8ff" stroke="#63b8ff" points="383.16,-391.45 393.23,-394.74 387.42,-385.89 383.16,-391.45"/>
</g>
<!-- Node33&#45;&gt;Node16 -->
<g id="edge32" class="edge">
<title>Node33&#45;&gt;Node16</title>
<path fill="none" stroke="#63b8ff" d="M258.78,-282.84C280.28,-291.12 312.36,-302.89 341,-311 405.95,-329.4 481.49,-344.97 534.62,-354.98"/>
<polygon fill="#63b8ff" stroke="#63b8ff" points="533.65,-358.36 544.12,-356.75 534.94,-351.48 533.65,-358.36"/>
</g>
<!-- Node33&#45;&gt;Node18 -->
<g id="edge33" class="edge">
<title>Node33&#45;&gt;Node18</title>
<path fill="none" stroke="#63b8ff" d="M257.97,-263.04C289.34,-250 344.53,-227.07 380.29,-212.21"/>
<polygon fill="#63b8ff" stroke="#63b8ff" points="381.43,-215.53 389.32,-208.46 378.74,-209.07 381.43,-215.53"/>
</g>
<!-- Node33&#45;&gt;Node19 -->
<g id="edge34" class="edge">
<title>Node33&#45;&gt;Node19</title>
<path fill="none" stroke="#63b8ff" d="M305.34,-280.51C313.24,-281.34 321.35,-282.19 329.4,-283.04"/>
<polygon fill="#63b8ff" stroke="#63b8ff" points="328.9,-286.51 339.21,-284.07 329.63,-279.55 328.9,-286.51"/>
</g>
<!-- Node33&#45;&gt;Node20 -->
<g id="edge30" class="edge">
<title>Node33&#45;&gt;Node20</title>
<path fill="none" stroke="#63b8ff" d="M305.49,-269.31C367.19,-266.13 456.3,-261.54 520.81,-258.21"/>
<polygon fill="#63b8ff" stroke="#63b8ff" points="520.83,-261.72 530.64,-257.71 520.47,-254.72 520.83,-261.72"/>
</g>
<!-- Node33&#45;&gt;Node25 -->
<g id="edge35" class="edge">
<title>Node33&#45;&gt;Node25</title>
<path fill="none" stroke="#63b8ff" d="M242.72,-263.02C259.78,-244.06 299.54,-202.64 341,-179 343.45,-177.6 345.99,-176.27 348.59,-175.01"/>
<polygon fill="#63b8ff" stroke="#63b8ff" points="349.76,-178.32 357.48,-171.08 346.92,-171.92 349.76,-178.32"/>
</g>
</g>
</svg>
