<?xml version="1.0" encoding="UTF-8" standalone="no"?>
<!DOCTYPE svg PUBLIC "-//W3C//DTD SVG 1.1//EN"
 "http://www.w3.org/Graphics/SVG/1.1/DTD/svg11.dtd">
<!-- Generated by graphviz version 7.0.3 (0)
 -->
<!-- Title: Urho3D::Connection::GetRoundTripTime Pages: 1 -->
<svg width="256pt" height="56pt"
 viewBox="0.00 0.00 256.00 56.00" xmlns="http://www.w3.org/2000/svg" xmlns:xlink="http://www.w3.org/1999/xlink">
<g id="graph0" class="graph" transform="scale(1 1) rotate(0) translate(4 52)">
<title>Urho3D::Connection::GetRoundTripTime</title>
<!-- Node1 -->
<g id="node1" class="node">
<title>Node1</title>
<g id="a_node1"><a xlink:title=" ">
<polygon fill="#999999" stroke="#666666" points="248,-30 143,-30 143,0 248,0 248,-30"/>
<text text-anchor="start" x="151" y="-18" font-family="Roboto" font-size="10.00">Urho3D::Connection</text>
<text text-anchor="middle" x="195.5" y="-7" font-family="Roboto" font-size="10.00">::GetRoundTripTime</text>
</a>
</g>
</g>
<!-- Node2 -->
<g id="node2" class="node">
<title>Node2</title>
<g id="a_node2"><a xlink:href="class_urho3_d_1_1_connection.html#aa045a4f91f1a726d27c9c783d1f56530" target="_top" xlink:title="Send queued remote events. Called by Network.">
<polygon fill="white" stroke="#666666" points="107,-30 0,-30 0,0 107,0 107,-30"/>
<text text-anchor="start" x="8" y="-18" font-family="Roboto" font-size="10.00">Urho3D::Connection</text>
<text text-anchor="middle" x="53.5" y="-7" font-family="Roboto" font-size="10.00">::SendRemoteEvents</text>
</a>
</g>
</g>
<!-- Node1&#45;&gt;Node2 -->
<g id="edge1" class="edge">
<title>Node1&#45;&gt;Node2</title>
<path fill="none" stroke="#63b8ff" d="M131.52,-15C123.47,-15 115.29,-15 107.42,-15"/>
<polygon fill="#63b8ff" stroke="#63b8ff" points="131.25,-18.5 141.25,-15 131.25,-11.5 131.25,-18.5"/>
</g>
<!-- Node2&#45;&gt;Node2 -->
<g id="edge2" class="edge">
<title>Node2&#45;&gt;Node2</title>
<path fill="none" stroke="#63b8ff" d="M77.46,-41.61C73.62,-45.43 65.63,-48 53.5,-48 31.31,-48 22.99,-39.41 28.54,-30.28"/>
<polygon fill="#63b8ff" stroke="#63b8ff" points="80.93,-42.05 78.33,-31.78 73.96,-41.44 80.93,-42.05"/>
</g>
</g>
</svg>
