<?xml version="1.0" encoding="UTF-8" standalone="no"?>
<!DOCTYPE svg PUBLIC "-//W3C//DTD SVG 1.1//EN"
 "http://www.w3.org/Graphics/SVG/1.1/DTD/svg11.dtd">
<!-- Generated by graphviz version 7.0.3 (0)
 -->
<!-- Title: Urho3D::Deserializer::Seek Pages: 1 -->
<svg width="670pt" height="294pt"
 viewBox="0.00 0.00 670.00 294.00" xmlns="http://www.w3.org/2000/svg" xmlns:xlink="http://www.w3.org/1999/xlink">
<g id="graph0" class="graph" transform="scale(1 1) rotate(0) translate(4 290)">
<title>Urho3D::Deserializer::Seek</title>
<!-- Node1 -->
<g id="node1" class="node">
<title>Node1</title>
<g id="a_node1"><a xlink:title="Set position from the beginning of the stream. Return actual new position.">
<polygon fill="#999999" stroke="#666666" points="662,-169 555,-169 555,-139 662,-139 662,-169"/>
<text text-anchor="start" x="563" y="-157" font-family="Roboto" font-size="10.00">Urho3D::Deserializer</text>
<text text-anchor="middle" x="608.5" y="-146" font-family="Roboto" font-size="10.00">::Seek</text>
</a>
</g>
</g>
<!-- Node2 -->
<g id="node2" class="node">
<title>Node2</title>
<g id="a_node2"><a xlink:href="class_urho3_d_1_1_script_file.html#a5e39a588cf9beb06879a387233469734" target="_top" xlink:title="Load resource from stream. May be called from a worker thread. Return true if successful.">
<polygon fill="white" stroke="#666666" points="490.5,-286 395.5,-286 395.5,-256 490.5,-256 490.5,-286"/>
<text text-anchor="start" x="403.5" y="-274" font-family="Roboto" font-size="10.00">Urho3D::ScriptFile</text>
<text text-anchor="middle" x="443" y="-263" font-family="Roboto" font-size="10.00">::BeginLoad</text>
</a>
</g>
</g>
<!-- Node1&#45;&gt;Node2 -->
<g id="edge1" class="edge">
<title>Node1&#45;&gt;Node2</title>
<path fill="none" stroke="#63b8ff" d="M589.96,-178.41C573.73,-199.35 547.82,-228.93 519,-247 510.43,-252.37 500.55,-256.65 490.83,-260"/>
<polygon fill="#63b8ff" stroke="#63b8ff" points="592.57,-180.76 595.8,-170.67 586.98,-176.55 592.57,-180.76"/>
</g>
<!-- Node3 -->
<g id="node3" class="node">
<title>Node3</title>
<g id="a_node3"><a xlink:href="class_urho3_d_1_1_image.html#a6a1eaaf219828f29ca0dad7c3665a900" target="_top" xlink:title="Load resource from stream. May be called from a worker thread. Return true if successful.">
<polygon fill="white" stroke="#666666" points="510,-237.5 376,-237.5 376,-218.5 510,-218.5 510,-237.5"/>
<text text-anchor="middle" x="443" y="-225.5" font-family="Roboto" font-size="10.00">Urho3D::Image::BeginLoad</text>
</a>
</g>
</g>
<!-- Node1&#45;&gt;Node3 -->
<g id="edge2" class="edge">
<title>Node1&#45;&gt;Node3</title>
<path fill="none" stroke="#63b8ff" d="M578.3,-175.93C561.66,-187.51 540,-201.12 519,-210 511.6,-213.13 503.55,-215.78 495.56,-218"/>
<polygon fill="#63b8ff" stroke="#63b8ff" points="580.12,-178.92 586.23,-170.27 576.06,-173.22 580.12,-178.92"/>
</g>
<!-- Node4 -->
<g id="node4" class="node">
<title>Node4</title>
<g id="a_node4"><a xlink:href="class_urho3_d_1_1_image.html#a666b3cb0b35d066504d8a102923fd44d" target="_top" xlink:title="Load as color LUT. Return true if successful.">
<polygon fill="white" stroke="#666666" points="519,-200.5 367,-200.5 367,-181.5 519,-181.5 519,-200.5"/>
<text text-anchor="middle" x="443" y="-188.5" font-family="Roboto" font-size="10.00">Urho3D::Image::LoadColorLUT</text>
</a>
</g>
</g>
<!-- Node1&#45;&gt;Node4 -->
<g id="edge3" class="edge">
<title>Node1&#45;&gt;Node4</title>
<path fill="none" stroke="#63b8ff" d="M543.77,-168.42C525.13,-172.64 505.17,-177.16 488.04,-181.03"/>
<polygon fill="#63b8ff" stroke="#63b8ff" points="544.41,-171.87 553.39,-166.24 542.87,-165.04 544.41,-171.87"/>
</g>
<!-- Node5 -->
<g id="node5" class="node">
<title>Node5</title>
<g id="a_node5"><a xlink:href="class_urho3_d_1_1_sound.html#ab0ab973af6cca214b8ee7f62a38db277" target="_top" xlink:title="Load WAV format sound data.">
<polygon fill="white" stroke="#666666" points="507.5,-163.5 378.5,-163.5 378.5,-144.5 507.5,-144.5 507.5,-163.5"/>
<text text-anchor="middle" x="443" y="-151.5" font-family="Roboto" font-size="10.00">Urho3D::Sound::LoadWav</text>
</a>
</g>
</g>
<!-- Node1&#45;&gt;Node5 -->
<g id="edge4" class="edge">
<title>Node1&#45;&gt;Node5</title>
<path fill="none" stroke="#63b8ff" d="M543.42,-154C531.77,-154 519.62,-154 507.97,-154"/>
<polygon fill="#63b8ff" stroke="#63b8ff" points="543.35,-157.5 553.35,-154 543.35,-150.5 543.35,-157.5"/>
</g>
<!-- Node7 -->
<g id="node7" class="node">
<title>Node7</title>
<g id="a_node7"><a xlink:href="class_urho3_d_1_1_deserializer.html#a39678eb4265b015cd7140cd7f9d96df6" target="_top" xlink:title="Read a text line.">
<polygon fill="white" stroke="#666666" points="496.5,-126 389.5,-126 389.5,-96 496.5,-96 496.5,-126"/>
<text text-anchor="start" x="397.5" y="-114" font-family="Roboto" font-size="10.00">Urho3D::Deserializer</text>
<text text-anchor="middle" x="443" y="-103" font-family="Roboto" font-size="10.00">::ReadLine</text>
</a>
</g>
</g>
<!-- Node1&#45;&gt;Node7 -->
<g id="edge6" class="edge">
<title>Node1&#45;&gt;Node7</title>
<path fill="none" stroke="#63b8ff" d="M543.75,-137.23C528.22,-133.15 511.77,-128.82 496.81,-124.89"/>
<polygon fill="#63b8ff" stroke="#63b8ff" points="542.84,-140.61 553.4,-139.77 544.62,-133.84 542.84,-140.61"/>
</g>
<!-- Node10 -->
<g id="node10" class="node">
<title>Node10</title>
<g id="a_node10"><a xlink:href="class_urho3_d_1_1_r_w_ops_wrapper.html#a8af14d1251abfaa381fe9822437a8249" target="_top" xlink:title="Seek within the object&#39;s data.">
<polygon fill="white" stroke="#666666" points="505,-78 381,-78 381,-48 505,-48 505,-78"/>
<text text-anchor="start" x="389" y="-66" font-family="Roboto" font-size="10.00">Urho3D::RWOpsWrapper</text>
<text text-anchor="middle" x="443" y="-55" font-family="Roboto" font-size="10.00">::Seek</text>
</a>
</g>
</g>
<!-- Node1&#45;&gt;Node10 -->
<g id="edge10" class="edge">
<title>Node1&#45;&gt;Node10</title>
<path fill="none" stroke="#63b8ff" d="M582.03,-131.01C565.15,-116.74 541.95,-98.91 519,-87 512.93,-83.85 506.38,-81.02 499.75,-78.49"/>
<polygon fill="#63b8ff" stroke="#63b8ff" points="579.72,-133.64 589.58,-137.52 584.3,-128.34 579.72,-133.64"/>
</g>
<!-- Node12 -->
<g id="node12" class="node">
<title>Node12</title>
<g id="a_node12"><a xlink:href="class_urho3_d_1_1_deserializer.html#acff4d7732f540451137b8b0de0dba0ed" target="_top" xlink:title="Set position relative to current position. Return actual new position.">
<polygon fill="white" stroke="#666666" points="496.5,-30 389.5,-30 389.5,0 496.5,0 496.5,-30"/>
<text text-anchor="start" x="397.5" y="-18" font-family="Roboto" font-size="10.00">Urho3D::Deserializer</text>
<text text-anchor="middle" x="443" y="-7" font-family="Roboto" font-size="10.00">::SeekRelative</text>
</a>
</g>
</g>
<!-- Node1&#45;&gt;Node12 -->
<g id="edge12" class="edge">
<title>Node1&#45;&gt;Node12</title>
<path fill="none" stroke="#63b8ff" d="M594.14,-128.65C579.16,-102.57 552.52,-62.54 519,-39 512.29,-34.29 504.6,-30.46 496.77,-27.37"/>
<polygon fill="#63b8ff" stroke="#63b8ff" points="591,-130.19 598.92,-137.23 597.11,-126.79 591,-130.19"/>
</g>
<!-- Node6 -->
<g id="node6" class="node">
<title>Node6</title>
<g id="a_node6"><a xlink:href="class_urho3_d_1_1_sound.html#a3715d573723b77db787cd551392e8753" target="_top" xlink:title="Load resource from stream. May be called from a worker thread. Return true if successful.">
<polygon fill="white" stroke="#666666" points="319,-172.5 185,-172.5 185,-153.5 319,-153.5 319,-172.5"/>
<text text-anchor="middle" x="252" y="-160.5" font-family="Roboto" font-size="10.00">Urho3D::Sound::BeginLoad</text>
</a>
</g>
</g>
<!-- Node5&#45;&gt;Node6 -->
<g id="edge5" class="edge">
<title>Node5&#45;&gt;Node6</title>
<path fill="none" stroke="#63b8ff" d="M366.72,-157.58C351,-158.33 334.54,-159.12 319.18,-159.85"/>
<polygon fill="#63b8ff" stroke="#63b8ff" points="366.68,-161.09 376.5,-157.12 366.35,-154.1 366.68,-161.09"/>
</g>
<!-- Node8 -->
<g id="node8" class="node">
<title>Node8</title>
<g id="a_node8"><a xlink:href="class_urho3_d_1_1_shader.html#a6f4d70b2050c65c821dd721418cc2789" target="_top" xlink:title="Process source code and include files. Return true if successful.">
<polygon fill="white" stroke="#666666" points="331,-117.5 173,-117.5 173,-98.5 331,-98.5 331,-117.5"/>
<text text-anchor="middle" x="252" y="-105.5" font-family="Roboto" font-size="10.00">Urho3D::Shader::ProcessSource</text>
</a>
</g>
</g>
<!-- Node7&#45;&gt;Node8 -->
<g id="edge7" class="edge">
<title>Node7&#45;&gt;Node8</title>
<path fill="none" stroke="#63b8ff" d="M377.91,-109.98C362.94,-109.75 346.84,-109.49 331.33,-109.24"/>
<polygon fill="#63b8ff" stroke="#63b8ff" points="377.53,-113.48 387.59,-110.14 377.65,-106.48 377.53,-113.48"/>
</g>
<!-- Node8&#45;&gt;Node8 -->
<g id="edge9" class="edge">
<title>Node8&#45;&gt;Node8</title>
<path fill="none" stroke="#63b8ff" d="M285.2,-128.26C281.72,-132.47 270.65,-135.5 252,-135.5 219.74,-135.5 210.17,-126.44 223.27,-117.87"/>
<polygon fill="#63b8ff" stroke="#63b8ff" points="288.5,-127.06 281.33,-119.26 282.07,-129.83 288.5,-127.06"/>
</g>
<!-- Node9 -->
<g id="node9" class="node">
<title>Node9</title>
<g id="a_node9"><a xlink:href="class_urho3_d_1_1_shader.html#a480379ec83dd10293920821dcac51764" target="_top" xlink:title="Load resource from stream. May be called from a worker thread. Return true if successful.">
<polygon fill="white" stroke="#666666" points="137,-117.5 0,-117.5 0,-98.5 137,-98.5 137,-117.5"/>
<text text-anchor="middle" x="68.5" y="-105.5" font-family="Roboto" font-size="10.00">Urho3D::Shader::BeginLoad</text>
</a>
</g>
</g>
<!-- Node8&#45;&gt;Node9 -->
<g id="edge8" class="edge">
<title>Node8&#45;&gt;Node9</title>
<path fill="none" stroke="#63b8ff" d="M161.31,-108C153.22,-108 145.12,-108 137.27,-108"/>
<polygon fill="#63b8ff" stroke="#63b8ff" points="161.2,-111.5 171.2,-108 161.2,-104.5 161.2,-111.5"/>
</g>
<!-- Node11 -->
<g id="node11" class="node">
<title>Node11</title>
<g id="a_node11"><a xlink:href="class_urho3_d_1_1_r_w_ops_wrapper.html#a94f65e1b9b129d9fb9c6777b275e3b36" target="_top" xlink:title="Construct with object reference.">
<polygon fill="white" stroke="#666666" points="314,-78 190,-78 190,-48 314,-48 314,-78"/>
<text text-anchor="start" x="198" y="-66" font-family="Roboto" font-size="10.00">Urho3D::RWOpsWrapper</text>
<text text-anchor="middle" x="252" y="-55" font-family="Roboto" font-size="10.00">::RWOpsWrapper</text>
</a>
</g>
</g>
<!-- Node10&#45;&gt;Node11 -->
<g id="edge11" class="edge">
<title>Node10&#45;&gt;Node11</title>
<path fill="none" stroke="#63b8ff" d="M369.23,-63C351.12,-63 331.88,-63 314.38,-63"/>
<polygon fill="#63b8ff" stroke="#63b8ff" points="369.12,-66.5 379.12,-63 369.12,-59.5 369.12,-66.5"/>
</g>
</g>
</svg>
