<?xml version="1.0" encoding="UTF-8" standalone="no"?>
<!DOCTYPE svg PUBLIC "-//W3C//DTD SVG 1.1//EN"
 "http://www.w3.org/Graphics/SVG/1.1/DTD/svg11.dtd">
<!-- Generated by graphviz version 7.0.3 (0)
 -->
<!-- Title: Urho3D::Pass::SetPixelShaderDefineExcludes Pages: 1 -->
<svg width="435pt" height="86pt"
 viewBox="0.00 0.00 435.00 86.00" xmlns="http://www.w3.org/2000/svg" xmlns:xlink="http://www.w3.org/1999/xlink">
<g id="graph0" class="graph" transform="scale(1 1) rotate(0) translate(4 82)">
<title>Urho3D::Pass::SetPixelShaderDefineExcludes</title>
<!-- Node1 -->
<g id="node1" class="node">
<title>Node1</title>
<g id="a_node1"><a xlink:title=" ">
<polygon fill="#999999" stroke="#666666" points="427,-54 280,-54 280,-24 427,-24 427,-54"/>
<text text-anchor="start" x="288" y="-42" font-family="Roboto" font-size="10.00">Urho3D::Pass::SetPixelShader</text>
<text text-anchor="middle" x="353.5" y="-31" font-family="Roboto" font-size="10.00">DefineExcludes</text>
</a>
</g>
</g>
<!-- Node2 -->
<g id="node2" class="node">
<title>Node2</title>
<g id="a_node2"><a xlink:href="class_urho3_d_1_1_technique.html#a4760819cb750bd6c268ae6456df3493a" target="_top" xlink:title="Load resource from stream. May be called from a worker thread. Return true if successful.">
<polygon fill="white" stroke="#666666" points="244,-78 140,-78 140,-48 244,-48 244,-78"/>
<text text-anchor="start" x="148" y="-66" font-family="Roboto" font-size="10.00">Urho3D::Technique::</text>
<text text-anchor="middle" x="192" y="-55" font-family="Roboto" font-size="10.00">BeginLoad</text>
</a>
</g>
</g>
<!-- Node1&#45;&gt;Node2 -->
<g id="edge1" class="edge">
<title>Node1&#45;&gt;Node2</title>
<path fill="none" stroke="#63b8ff" d="M268.48,-51.64C260.21,-52.89 252.01,-54.12 244.22,-55.29"/>
<polygon fill="#63b8ff" stroke="#63b8ff" points="268.89,-55.12 278.25,-50.17 267.85,-48.2 268.89,-55.12"/>
</g>
<!-- Node3 -->
<g id="node3" class="node">
<title>Node3</title>
<g id="a_node3"><a xlink:href="class_urho3_d_1_1_technique.html#a990878e219ce61207b380ab0bdf13aca" target="_top" xlink:title="Clone the technique. Passes will be deep copied to allow independent modification.">
<polygon fill="white" stroke="#666666" points="244,-30 140,-30 140,0 244,0 244,-30"/>
<text text-anchor="start" x="148" y="-18" font-family="Roboto" font-size="10.00">Urho3D::Technique::</text>
<text text-anchor="middle" x="192" y="-7" font-family="Roboto" font-size="10.00">Clone</text>
</a>
</g>
</g>
<!-- Node1&#45;&gt;Node3 -->
<g id="edge2" class="edge">
<title>Node1&#45;&gt;Node3</title>
<path fill="none" stroke="#63b8ff" d="M268.48,-26.36C260.21,-25.11 252.01,-23.88 244.22,-22.71"/>
<polygon fill="#63b8ff" stroke="#63b8ff" points="267.85,-29.8 278.25,-27.83 268.89,-22.88 267.85,-29.8"/>
</g>
<!-- Node4 -->
<g id="node4" class="node">
<title>Node4</title>
<g id="a_node4"><a xlink:href="class_urho3_d_1_1_technique.html#a06c3bc21df26728f23a7ccd81eba8765" target="_top" xlink:title="Return a clone with added shader compilation defines. Called internally by Material.">
<polygon fill="white" stroke="#666666" points="104,-30 0,-30 0,0 104,0 104,-30"/>
<text text-anchor="start" x="8" y="-18" font-family="Roboto" font-size="10.00">Urho3D::Technique::</text>
<text text-anchor="middle" x="52" y="-7" font-family="Roboto" font-size="10.00">CloneWithDefines</text>
</a>
</g>
</g>
<!-- Node3&#45;&gt;Node4 -->
<g id="edge3" class="edge">
<title>Node3&#45;&gt;Node4</title>
<path fill="none" stroke="#63b8ff" d="M128.12,-15C120.19,-15 112.15,-15 104.43,-15"/>
<polygon fill="#63b8ff" stroke="#63b8ff" points="128.1,-18.5 138.1,-15 128.1,-11.5 128.1,-18.5"/>
</g>
</g>
</svg>
