<?xml version="1.0" encoding="UTF-8" standalone="no"?>
<!DOCTYPE svg PUBLIC "-//W3C//DTD SVG 1.1//EN"
 "http://www.w3.org/Graphics/SVG/1.1/DTD/svg11.dtd">
<!-- Generated by graphviz version 7.0.3 (0)
 -->
<!-- Title: Urho3D::DynamicNavigationMesh::RegisterObject Pages: 1 -->
<svg width="476pt" height="326pt"
 viewBox="0.00 0.00 476.00 326.00" xmlns="http://www.w3.org/2000/svg" xmlns:xlink="http://www.w3.org/1999/xlink">
<g id="graph0" class="graph" transform="scale(1 1) rotate(0) translate(4 322)">
<title>Urho3D::DynamicNavigationMesh::RegisterObject</title>
<!-- Node1 -->
<g id="node1" class="node">
<title>Node1</title>
<g id="a_node1"><a xlink:title=" ">
<polygon fill="#999999" stroke="#666666" points="140,-174 0,-174 0,-144 140,-144 140,-174"/>
<text text-anchor="start" x="8" y="-162" font-family="Roboto" font-size="10.00">Urho3D::DynamicNavigation</text>
<text text-anchor="middle" x="70" y="-151" font-family="Roboto" font-size="10.00">Mesh::RegisterObject</text>
</a>
</g>
</g>
<!-- Node2 -->
<g id="node2" class="node">
<title>Node2</title>
<g id="a_node2"><a xlink:href="class_urho3_d_1_1_dynamic_navigation_mesh.html#a458f06541dfe039016beaeda5d2d8aa8" target="_top" xlink:title=" ">
<polygon fill="white" stroke="#666666" points="316,-318 176,-318 176,-288 316,-288 316,-318"/>
<text text-anchor="start" x="184" y="-306" font-family="Roboto" font-size="10.00">Urho3D::DynamicNavigation</text>
<text text-anchor="middle" x="246" y="-295" font-family="Roboto" font-size="10.00">Mesh::GetDrawObstacles</text>
</a>
</g>
</g>
<!-- Node1&#45;&gt;Node2 -->
<g id="edge1" class="edge">
<title>Node1&#45;&gt;Node2</title>
<path fill="none" stroke="#63b8ff" d="M80.42,-174.15C96.84,-199.37 133.08,-250.06 176,-279 177.81,-280.22 179.7,-281.39 181.63,-282.5"/>
<polygon fill="#63b8ff" stroke="#63b8ff" points="179.8,-285.5 190.3,-286.94 182.99,-279.27 179.8,-285.5"/>
</g>
<!-- Node3 -->
<g id="node3" class="node">
<title>Node3</title>
<g id="a_node3"><a xlink:href="class_urho3_d_1_1_dynamic_navigation_mesh.html#a932fdd15579a26d9a6e71721247e18c2" target="_top" xlink:title=" ">
<polygon fill="white" stroke="#666666" points="316,-270 176,-270 176,-240 316,-240 316,-270"/>
<text text-anchor="start" x="184" y="-258" font-family="Roboto" font-size="10.00">Urho3D::DynamicNavigation</text>
<text text-anchor="middle" x="246" y="-247" font-family="Roboto" font-size="10.00">Mesh::GetMaxLayers</text>
</a>
</g>
</g>
<!-- Node1&#45;&gt;Node3 -->
<g id="edge2" class="edge">
<title>Node1&#45;&gt;Node3</title>
<path fill="none" stroke="#63b8ff" d="M90.15,-174.46C110.48,-190.31 144.04,-214.85 176,-231 178.87,-232.45 181.84,-233.84 184.87,-235.18"/>
<polygon fill="#63b8ff" stroke="#63b8ff" points="183.36,-238.35 193.93,-238.94 186.04,-231.88 183.36,-238.35"/>
</g>
<!-- Node4 -->
<g id="node4" class="node">
<title>Node4</title>
<g id="a_node4"><a xlink:href="class_urho3_d_1_1_dynamic_navigation_mesh.html#ac43f22dff92db99d42695d7c1b7ffb4f" target="_top" xlink:title=" ">
<polygon fill="white" stroke="#666666" points="316,-222 176,-222 176,-192 316,-192 316,-222"/>
<text text-anchor="start" x="184" y="-210" font-family="Roboto" font-size="10.00">Urho3D::DynamicNavigation</text>
<text text-anchor="middle" x="246" y="-199" font-family="Roboto" font-size="10.00">Mesh::GetMaxObstacles</text>
</a>
</g>
</g>
<!-- Node1&#45;&gt;Node4 -->
<g id="edge3" class="edge">
<title>Node1&#45;&gt;Node4</title>
<path fill="none" stroke="#63b8ff" d="M127.01,-174.45C143.31,-178.95 161.28,-183.9 178.17,-188.57"/>
<polygon fill="#63b8ff" stroke="#63b8ff" points="177.06,-191.89 187.63,-191.17 178.92,-185.14 177.06,-191.89"/>
</g>
<!-- Node5 -->
<g id="node5" class="node">
<title>Node5</title>
<g id="a_node5"><a xlink:href="class_urho3_d_1_1_context.html#aa9b2cffef8d52fa18bfe533a2615a598" target="_top" xlink:title="Register a factory for an object type.">
<polygon fill="white" stroke="#666666" points="311,-174 181,-174 181,-144 311,-144 311,-174"/>
<text text-anchor="start" x="189" y="-162" font-family="Roboto" font-size="10.00">Urho3D::Context::Register</text>
<text text-anchor="middle" x="246" y="-151" font-family="Roboto" font-size="10.00">Factory</text>
</a>
</g>
</g>
<!-- Node1&#45;&gt;Node5 -->
<g id="edge4" class="edge">
<title>Node1&#45;&gt;Node5</title>
<path fill="none" stroke="#63b8ff" d="M140.27,-159C149.87,-159 159.78,-159 169.49,-159"/>
<polygon fill="#63b8ff" stroke="#63b8ff" points="169.26,-162.5 179.26,-159 169.26,-155.5 169.26,-162.5"/>
</g>
<!-- Node7 -->
<g id="node7" class="node">
<title>Node7</title>
<g id="a_node7"><a xlink:href="class_urho3_d_1_1_dynamic_navigation_mesh.html#af709b394abeb21b6320dbaeb2d9361e0" target="_top" xlink:title=" ">
<polygon fill="white" stroke="#666666" points="316,-126 176,-126 176,-96 316,-96 316,-126"/>
<text text-anchor="start" x="184" y="-114" font-family="Roboto" font-size="10.00">Urho3D::DynamicNavigation</text>
<text text-anchor="middle" x="246" y="-103" font-family="Roboto" font-size="10.00">Mesh::SetDrawObstacles</text>
</a>
</g>
</g>
<!-- Node1&#45;&gt;Node7 -->
<g id="edge6" class="edge">
<title>Node1&#45;&gt;Node7</title>
<path fill="none" stroke="#63b8ff" d="M127.01,-143.55C143.31,-139.05 161.28,-134.1 178.17,-129.43"/>
<polygon fill="#63b8ff" stroke="#63b8ff" points="178.92,-132.86 187.63,-126.83 177.06,-126.11 178.92,-132.86"/>
</g>
<!-- Node8 -->
<g id="node8" class="node">
<title>Node8</title>
<g id="a_node8"><a xlink:href="class_urho3_d_1_1_dynamic_navigation_mesh.html#a04bbeb9c5dd5ee0c4a92440d64f5950c" target="_top" xlink:title=" ">
<polygon fill="white" stroke="#666666" points="316,-78 176,-78 176,-48 316,-48 316,-78"/>
<text text-anchor="start" x="184" y="-66" font-family="Roboto" font-size="10.00">Urho3D::DynamicNavigation</text>
<text text-anchor="middle" x="246" y="-55" font-family="Roboto" font-size="10.00">Mesh::SetMaxLayers</text>
</a>
</g>
</g>
<!-- Node1&#45;&gt;Node8 -->
<g id="edge7" class="edge">
<title>Node1&#45;&gt;Node8</title>
<path fill="none" stroke="#63b8ff" d="M90.15,-143.54C110.48,-127.69 144.04,-103.15 176,-87 178.87,-85.55 181.84,-84.16 184.87,-82.82"/>
<polygon fill="#63b8ff" stroke="#63b8ff" points="186.04,-86.12 193.93,-79.06 183.36,-79.65 186.04,-86.12"/>
</g>
<!-- Node11 -->
<g id="node11" class="node">
<title>Node11</title>
<g id="a_node11"><a xlink:href="class_urho3_d_1_1_dynamic_navigation_mesh.html#a01da5dcdcbc63145ddc80dc82f37158f" target="_top" xlink:title=" ">
<polygon fill="white" stroke="#666666" points="316,-30 176,-30 176,0 316,0 316,-30"/>
<text text-anchor="start" x="184" y="-18" font-family="Roboto" font-size="10.00">Urho3D::DynamicNavigation</text>
<text text-anchor="middle" x="246" y="-7" font-family="Roboto" font-size="10.00">Mesh::SetMaxObstacles</text>
</a>
</g>
</g>
<!-- Node1&#45;&gt;Node11 -->
<g id="edge12" class="edge">
<title>Node1&#45;&gt;Node11</title>
<path fill="none" stroke="#63b8ff" d="M80.42,-143.85C96.84,-118.63 133.08,-67.94 176,-39 177.81,-37.78 179.7,-36.61 181.63,-35.5"/>
<polygon fill="#63b8ff" stroke="#63b8ff" points="182.99,-38.73 190.3,-31.06 179.8,-32.5 182.99,-38.73"/>
</g>
<!-- Node6 -->
<g id="node6" class="node">
<title>Node6</title>
<g id="a_node6"><a xlink:href="class_urho3_d_1_1_object_factory.html#a191ee9fd0ce7c127dfd92b2b9ae47709" target="_top" xlink:title="Return type hash of objects created by this factory.">
<polygon fill="white" stroke="#666666" points="468,-174 352,-174 352,-144 468,-144 468,-174"/>
<text text-anchor="start" x="360" y="-162" font-family="Roboto" font-size="10.00">Urho3D::ObjectFactory</text>
<text text-anchor="middle" x="410" y="-151" font-family="Roboto" font-size="10.00">::GetType</text>
</a>
</g>
</g>
<!-- Node5&#45;&gt;Node6 -->
<g id="edge5" class="edge">
<title>Node5&#45;&gt;Node6</title>
<path fill="none" stroke="#63b8ff" d="M311.49,-159C320.9,-159 330.62,-159 340.11,-159"/>
<polygon fill="#63b8ff" stroke="#63b8ff" points="340.03,-162.5 350.03,-159 340.03,-155.5 340.03,-162.5"/>
</g>
<!-- Node9 -->
<g id="node9" class="node">
<title>Node9</title>
<g id="a_node9"><a xlink:href="_math_defs_8h.html#a8096c22c3716e172f685af2a5f5e26bb" target="_top" xlink:title=" ">
<polygon fill="white" stroke="#666666" points="447,-90.5 373,-90.5 373,-71.5 447,-71.5 447,-90.5"/>
<text text-anchor="middle" x="410" y="-78.5" font-family="Roboto" font-size="10.00">Urho3D::Max</text>
</a>
</g>
</g>
<!-- Node8&#45;&gt;Node9 -->
<g id="edge8" class="edge">
<title>Node8&#45;&gt;Node9</title>
<path fill="none" stroke="#63b8ff" d="M316.17,-70.69C331.36,-72.37 347.11,-74.12 361.23,-75.69"/>
<polygon fill="#63b8ff" stroke="#63b8ff" points="360.83,-79.17 371.15,-76.79 361.6,-72.21 360.83,-79.17"/>
</g>
<!-- Node10 -->
<g id="node10" class="node">
<title>Node10</title>
<g id="a_node10"><a xlink:href="_math_defs_8h.html#a639c291adc131849b469a216007c4af5" target="_top" xlink:title=" ">
<polygon fill="white" stroke="#666666" points="445.5,-35.5 374.5,-35.5 374.5,-16.5 445.5,-16.5 445.5,-35.5"/>
<text text-anchor="middle" x="410" y="-23.5" font-family="Roboto" font-size="10.00">Urho3D::Min</text>
</a>
</g>
</g>
<!-- Node8&#45;&gt;Node10 -->
<g id="edge10" class="edge">
<title>Node8&#45;&gt;Node10</title>
<path fill="none" stroke="#63b8ff" d="M314.76,-47.52C331.07,-43.8 348.11,-39.91 363.15,-36.47"/>
<polygon fill="#63b8ff" stroke="#63b8ff" points="363.76,-39.92 372.73,-34.28 362.21,-33.1 363.76,-39.92"/>
</g>
<!-- Node9&#45;&gt;Node9 -->
<g id="edge9" class="edge">
<title>Node9&#45;&gt;Node9</title>
<path fill="none" stroke="#63b8ff" d="M384.32,-90.87C372.61,-99.44 381.17,-108.5 410,-108.5 426.22,-108.5 436.02,-105.63 439.41,-101.6"/>
<polygon fill="#63b8ff" stroke="#63b8ff" points="442.76,-100.59 436.17,-92.3 436.15,-102.89 442.76,-100.59"/>
</g>
<!-- Node10&#45;&gt;Node10 -->
<g id="edge11" class="edge">
<title>Node10&#45;&gt;Node10</title>
<path fill="none" stroke="#63b8ff" d="M384.32,-35.87C372.61,-44.44 381.17,-53.5 410,-53.5 426.22,-53.5 436.02,-50.63 439.41,-46.6"/>
<polygon fill="#63b8ff" stroke="#63b8ff" points="442.76,-45.59 436.17,-37.3 436.15,-47.89 442.76,-45.59"/>
</g>
</g>
</svg>
