<?xml version="1.0" encoding="UTF-8" standalone="no"?>
<!DOCTYPE svg PUBLIC "-//W3C//DTD SVG 1.1//EN"
 "http://www.w3.org/Graphics/SVG/1.1/DTD/svg11.dtd">
<!-- Generated by graphviz version 7.0.3 (0)
 -->
<!-- Title: Urho3D::IKSolver::ApplySceneToOriginalPose Pages: 1 -->
<svg width="684pt" height="64pt"
 viewBox="0.00 0.00 684.00 64.00" xmlns="http://www.w3.org/2000/svg" xmlns:xlink="http://www.w3.org/1999/xlink">
<g id="graph0" class="graph" transform="scale(1 1) rotate(0) translate(4 60)">
<title>Urho3D::IKSolver::ApplySceneToOriginalPose</title>
<!-- Node1 -->
<g id="node1" class="node">
<title>Node1</title>
<g id="a_node1"><a xlink:title=" ">
<polygon fill="#999999" stroke="#666666" points="676,-42.5 529,-42.5 529,-12.5 676,-12.5 676,-42.5"/>
<text text-anchor="start" x="537" y="-30.5" font-family="Roboto" font-size="10.00">Urho3D::IKSolver::ApplyScene</text>
<text text-anchor="middle" x="602.5" y="-19.5" font-family="Roboto" font-size="10.00">ToOriginalPose</text>
</a>
</g>
</g>
<!-- Node2 -->
<g id="node2" class="node">
<title>Node2</title>
<g id="a_node2"><a xlink:href="class_urho3_d_1_1_i_k_solver.html#ad37fe0e1e1a31fff36b3f3f923853373" target="_top" xlink:title="Invokes the solver. The solution is applied back to the scene graph automatically.">
<polygon fill="white" stroke="#666666" points="493,-37 373,-37 373,-18 493,-18 493,-37"/>
<text text-anchor="middle" x="433" y="-25" font-family="Roboto" font-size="10.00">Urho3D::IKSolver::Solve</text>
</a>
</g>
</g>
<!-- Node1&#45;&gt;Node2 -->
<g id="edge1" class="edge">
<title>Node1&#45;&gt;Node2</title>
<path fill="none" stroke="#63b8ff" d="M517.19,-27.5C509.17,-27.5 501.14,-27.5 493.42,-27.5"/>
<polygon fill="#63b8ff" stroke="#63b8ff" points="517.01,-31 527.01,-27.5 517.01,-24 517.01,-31"/>
</g>
<!-- Node3 -->
<g id="node3" class="node">
<title>Node3</title>
<g id="a_node3"><a xlink:href="class_urho3_d_1_1_i_k_solver.html#a33f6db3304063adb8c43f713c5be3b7a" target="_top" xlink:title="Invokes the IK solver.">
<polygon fill="white" stroke="#666666" points="337,-42.5 185,-42.5 185,-12.5 337,-12.5 337,-42.5"/>
<text text-anchor="start" x="193" y="-30.5" font-family="Roboto" font-size="10.00">Urho3D::IKSolver::Handle</text>
<text text-anchor="middle" x="261" y="-19.5" font-family="Roboto" font-size="10.00">SceneDrawableUpdateFinished</text>
</a>
</g>
</g>
<!-- Node2&#45;&gt;Node3 -->
<g id="edge2" class="edge">
<title>Node2&#45;&gt;Node3</title>
<path fill="none" stroke="#63b8ff" d="M361.14,-27.5C353.26,-27.5 345.2,-27.5 337.26,-27.5"/>
<polygon fill="#63b8ff" stroke="#63b8ff" points="361.03,-31 371.03,-27.5 361.03,-24 361.03,-31"/>
</g>
<!-- Node4 -->
<g id="node4" class="node">
<title>Node4</title>
<g id="a_node4"><a xlink:href="class_urho3_d_1_1_i_k_solver.html#a6f5b2b735e88b17320841393e88990bd" target="_top" xlink:title="Subscribe to drawable update finished event here.">
<polygon fill="white" stroke="#666666" points="149,-56 0,-56 0,-37 149,-37 149,-56"/>
<text text-anchor="middle" x="74.5" y="-44" font-family="Roboto" font-size="10.00">Urho3D::IKSolver::OnSceneSet</text>
</a>
</g>
</g>
<!-- Node3&#45;&gt;Node4 -->
<g id="edge3" class="edge">
<title>Node3&#45;&gt;Node4</title>
<path fill="none" stroke="#63b8ff" d="M173.4,-36.42C165.37,-37.25 157.28,-38.08 149.37,-38.89"/>
<polygon fill="#63b8ff" stroke="#63b8ff" points="173.6,-39.92 183.19,-35.41 172.88,-32.95 173.6,-39.92"/>
</g>
<!-- Node5 -->
<g id="node5" class="node">
<title>Node5</title>
<g id="a_node5"><a xlink:href="class_urho3_d_1_1_i_k_solver.html#aeed941e6a5f53cb2d6890fc5e5a5ed2c" target="_top" xlink:title=" ">
<polygon fill="white" stroke="#666666" points="146,-19 3,-19 3,0 146,0 146,-19"/>
<text text-anchor="middle" x="74.5" y="-7" font-family="Roboto" font-size="10.00">Urho3D::IKSolver::SetFeature</text>
</a>
</g>
</g>
<!-- Node3&#45;&gt;Node5 -->
<g id="edge4" class="edge">
<title>Node3&#45;&gt;Node5</title>
<path fill="none" stroke="#63b8ff" d="M173.33,-19.04C164.31,-18.16 155.22,-17.28 146.4,-16.42"/>
<polygon fill="#63b8ff" stroke="#63b8ff" points="172.89,-22.52 183.18,-20.01 173.57,-15.55 172.89,-22.52"/>
</g>
</g>
</svg>
