<?xml version="1.0" encoding="UTF-8" standalone="no"?>
<!DOCTYPE svg PUBLIC "-//W3C//DTD SVG 1.1//EN"
 "http://www.w3.org/Graphics/SVG/1.1/DTD/svg11.dtd">
<!-- Generated by graphviz version 7.0.3 (0)
 -->
<!-- Title: Urho3D::Model::EndLoad Pages: 1 -->
<svg width="1250pt" height="468pt"
 viewBox="0.00 0.00 1250.00 467.68" xmlns="http://www.w3.org/2000/svg" xmlns:xlink="http://www.w3.org/1999/xlink">
<g id="graph0" class="graph" transform="scale(1 1) rotate(0) translate(4 463.68)">
<title>Urho3D::Model::EndLoad</title>
<!-- Node1 -->
<g id="node1" class="node">
<title>Node1</title>
<g id="a_node1"><a xlink:title="Finish resource loading. Always called from the main thread. Return true if successful.">
<polygon fill="#999999" stroke="#666666" points="128,-230.5 0,-230.5 0,-211.5 128,-211.5 128,-230.5"/>
<text text-anchor="middle" x="64" y="-218.5" font-family="Roboto" font-size="10.00">Urho3D::Model::EndLoad</text>
</a>
</g>
</g>
<!-- Node2 -->
<g id="node2" class="node">
<title>Node2</title>
<g id="a_node2"><a xlink:href="class_urho3_d_1_1_shared_array_ptr.html#af2203f689349e6e22e78d2b7574be4e8" target="_top" xlink:title="Return the raw pointer.">
<polygon fill="white" stroke="#666666" points="1242,-344.5 1100,-344.5 1100,-325.5 1242,-325.5 1242,-344.5"/>
<text text-anchor="middle" x="1171" y="-332.5" font-family="Roboto" font-size="10.00">Urho3D::SharedArrayPtr::Get</text>
</a>
</g>
</g>
<!-- Node1&#45;&gt;Node2 -->
<g id="edge1" class="edge">
<title>Node1&#45;&gt;Node2</title>
<path fill="none" stroke="#63b8ff" d="M67.28,-230.76C74.98,-261.43 103.01,-356.63 164,-403 251.89,-469.81 295.6,-459 406,-459 406,-459 406,-459 864,-459 956.19,-459 979.93,-441.82 1064,-404 1095.32,-389.91 1127.94,-367.28 1148.57,-351.81"/>
<polygon fill="#63b8ff" stroke="#63b8ff" points="1150.66,-354.62 1156.48,-345.77 1146.41,-349.06 1150.66,-354.62"/>
</g>
<!-- Node3 -->
<g id="node3" class="node">
<title>Node3</title>
<g id="a_node3"><a xlink:href="class_urho3_d_1_1_index_buffer.html#a21f9b30d2a72457f6cd33e769e5b59cd" target="_top" xlink:title="Set all data in the buffer.">
<polygon fill="white" stroke="#666666" points="1062.5,-350 955.5,-350 955.5,-320 1062.5,-320 1062.5,-350"/>
<text text-anchor="start" x="963.5" y="-338" font-family="Roboto" font-size="10.00">Urho3D::IndexBuffer</text>
<text text-anchor="middle" x="1009" y="-327" font-family="Roboto" font-size="10.00">::SetData</text>
</a>
</g>
</g>
<!-- Node1&#45;&gt;Node3 -->
<g id="edge2" class="edge">
<title>Node1&#45;&gt;Node3</title>
<path fill="none" stroke="#63b8ff" d="M71.45,-230.97C85.41,-251.54 120.7,-298.31 164,-317 327.39,-387.53 386.04,-335 564,-335 564,-335 564,-335 718,-335 795.64,-335 884.98,-335 943.75,-335"/>
<polygon fill="#63b8ff" stroke="#63b8ff" points="943.57,-338.5 953.57,-335 943.57,-331.5 943.57,-338.5"/>
</g>
<!-- Node4 -->
<g id="node4" class="node">
<title>Node4</title>
<g id="a_node4"><a xlink:href="class_urho3_d_1_1_vertex_buffer.html#accec66f6c7f4ccd71afd4c59ada200f0" target="_top" xlink:title="Set all data in the buffer.">
<polygon fill="white" stroke="#666666" points="1064,-206 954,-206 954,-176 1064,-176 1064,-206"/>
<text text-anchor="start" x="962" y="-194" font-family="Roboto" font-size="10.00">Urho3D::VertexBuffer</text>
<text text-anchor="middle" x="1009" y="-183" font-family="Roboto" font-size="10.00">::SetData</text>
</a>
</g>
</g>
<!-- Node1&#45;&gt;Node4 -->
<g id="edge4" class="edge">
<title>Node1&#45;&gt;Node4</title>
<path fill="none" stroke="#63b8ff" d="M68.37,-211.04C78.15,-183.89 109.35,-108.54 164,-77 257.44,-23.07 298.11,-58 406,-58 406,-58 406,-58 718,-58 822.89,-58 931.29,-130.78 980.61,-168.66"/>
<polygon fill="#63b8ff" stroke="#63b8ff" points="978.44,-171.41 988.48,-174.81 982.75,-165.9 978.44,-171.41"/>
</g>
<!-- Node5 -->
<g id="node5" class="node">
<title>Node5</title>
<g id="a_node5"><a xlink:href="class_urho3_d_1_1_geometry.html#aeb6ac4fb32bebb05e54fac9a1d44da69" target="_top" xlink:title="Set the draw range.">
<polygon fill="white" stroke="#666666" points="307,-308 167,-308 167,-278 307,-278 307,-308"/>
<text text-anchor="start" x="175" y="-296" font-family="Roboto" font-size="10.00">Urho3D::Geometry::SetDraw</text>
<text text-anchor="middle" x="237" y="-285" font-family="Roboto" font-size="10.00">Range</text>
</a>
</g>
</g>
<!-- Node1&#45;&gt;Node5 -->
<g id="edge6" class="edge">
<title>Node1&#45;&gt;Node5</title>
<path fill="none" stroke="#63b8ff" d="M83.65,-230.94C103.31,-241.21 135.34,-257.33 164,-269 168,-270.63 172.17,-272.24 176.38,-273.8"/>
<polygon fill="#63b8ff" stroke="#63b8ff" points="174.87,-276.98 185.46,-277.07 177.24,-270.39 174.87,-276.98"/>
</g>
<!-- Node6 -->
<g id="node6" class="node">
<title>Node6</title>
<g id="a_node6"><a xlink:href="class_urho3_d_1_1_geometry.html#a2c8b3a06312378f6dea4deab6600cf2e" target="_top" xlink:title=" ">
<polygon fill="white" stroke="#666666" points="308,-260 166,-260 166,-230 308,-230 308,-260"/>
<text text-anchor="start" x="174" y="-248" font-family="Roboto" font-size="10.00">Urho3D::Geometry::SetIndex</text>
<text text-anchor="middle" x="237" y="-237" font-family="Roboto" font-size="10.00">Buffer</text>
</a>
</g>
</g>
<!-- Node1&#45;&gt;Node6 -->
<g id="edge7" class="edge">
<title>Node1&#45;&gt;Node6</title>
<path fill="none" stroke="#63b8ff" d="M128.19,-229.87C136.75,-231.07 145.63,-232.32 154.46,-233.56"/>
<polygon fill="#63b8ff" stroke="#63b8ff" points="153.7,-236.98 164.09,-234.91 154.67,-230.05 153.7,-236.98"/>
</g>
<!-- Node7 -->
<g id="node7" class="node">
<title>Node7</title>
<g id="a_node7"><a xlink:href="class_urho3_d_1_1_index_buffer.html#a842d2d57d5ebe98fa42e53065708682a" target="_top" xlink:title=" ">
<polygon fill="white" stroke="#666666" points="290.5,-164 183.5,-164 183.5,-134 290.5,-134 290.5,-164"/>
<text text-anchor="start" x="191.5" y="-152" font-family="Roboto" font-size="10.00">Urho3D::IndexBuffer</text>
<text text-anchor="middle" x="237" y="-141" font-family="Roboto" font-size="10.00">::SetShadowed</text>
</a>
</g>
</g>
<!-- Node1&#45;&gt;Node7 -->
<g id="edge8" class="edge">
<title>Node1&#45;&gt;Node7</title>
<path fill="none" stroke="#63b8ff" d="M83.65,-211.06C103.31,-200.79 135.34,-184.67 164,-173 168,-171.37 172.17,-169.76 176.38,-168.2"/>
<polygon fill="#63b8ff" stroke="#63b8ff" points="177.24,-171.61 185.46,-164.93 174.87,-165.02 177.24,-171.61"/>
</g>
<!-- Node10 -->
<g id="node10" class="node">
<title>Node10</title>
<g id="a_node10"><a xlink:href="class_urho3_d_1_1_vertex_buffer.html#a54c2ded230cbfbbeac650caac088ad7c" target="_top" xlink:title=" ">
<polygon fill="white" stroke="#666666" points="292,-212 182,-212 182,-182 292,-182 292,-212"/>
<text text-anchor="start" x="190" y="-200" font-family="Roboto" font-size="10.00">Urho3D::VertexBuffer</text>
<text text-anchor="middle" x="237" y="-189" font-family="Roboto" font-size="10.00">::SetShadowed</text>
</a>
</g>
</g>
<!-- Node1&#45;&gt;Node10 -->
<g id="edge11" class="edge">
<title>Node1&#45;&gt;Node10</title>
<path fill="none" stroke="#63b8ff" d="M128.19,-212.13C141.86,-210.21 156.36,-208.18 170.14,-206.24"/>
<polygon fill="#63b8ff" stroke="#63b8ff" points="170.59,-209.71 180.01,-204.86 169.62,-202.78 170.59,-209.71"/>
</g>
<!-- Node11 -->
<g id="node11" class="node">
<title>Node11</title>
<g id="a_node11"><a xlink:href="class_urho3_d_1_1_index_buffer.html#acad3ececff56c39f52703e514b730364" target="_top" xlink:title="Set size and vertex elements and dynamic mode. Previous data will be lost.">
<polygon fill="white" stroke="#666666" points="290.5,-394 183.5,-394 183.5,-364 290.5,-364 290.5,-394"/>
<text text-anchor="start" x="191.5" y="-382" font-family="Roboto" font-size="10.00">Urho3D::IndexBuffer</text>
<text text-anchor="middle" x="237" y="-371" font-family="Roboto" font-size="10.00">::SetSize</text>
</a>
</g>
</g>
<!-- Node1&#45;&gt;Node11 -->
<g id="edge13" class="edge">
<title>Node1&#45;&gt;Node11</title>
<path fill="none" stroke="#63b8ff" d="M70.1,-230.84C82.85,-254.53 118.36,-315.34 164,-350 168.03,-353.06 172.43,-355.85 177.01,-358.38"/>
<polygon fill="#63b8ff" stroke="#63b8ff" points="175.36,-361.47 185.86,-362.83 178.5,-355.21 175.36,-361.47"/>
</g>
<!-- Node16 -->
<g id="node16" class="node">
<title>Node16</title>
<g id="a_node16"><a xlink:href="class_urho3_d_1_1_vertex_buffer.html#ae3a60a0235f13bc2bc719f296068e134" target="_top" xlink:title="Set size, vertex elements and dynamic mode. Previous data will be lost.">
<polygon fill="white" stroke="#666666" points="292,-116 182,-116 182,-86 292,-86 292,-116"/>
<text text-anchor="start" x="190" y="-104" font-family="Roboto" font-size="10.00">Urho3D::VertexBuffer</text>
<text text-anchor="middle" x="237" y="-93" font-family="Roboto" font-size="10.00">::SetSize</text>
</a>
</g>
</g>
<!-- Node1&#45;&gt;Node16 -->
<g id="edge23" class="edge">
<title>Node1&#45;&gt;Node16</title>
<path fill="none" stroke="#63b8ff" d="M72.62,-211.08C87.92,-191.81 124.3,-149.11 164,-125 166.41,-123.53 168.93,-122.14 171.51,-120.83"/>
<polygon fill="#63b8ff" stroke="#63b8ff" points="172.73,-124.12 180.35,-116.76 169.81,-117.76 172.73,-124.12"/>
</g>
<!-- Node22 -->
<g id="node22" class="node">
<title>Node22</title>
<g id="a_node22"><a xlink:href="class_urho3_d_1_1_geometry.html#a7fe506eb49e6036e35fec6edc08ef8f8" target="_top" xlink:title="Set a vertex buffer by index.">
<polygon fill="white" stroke="#666666" points="310,-30 164,-30 164,0 310,0 310,-30"/>
<text text-anchor="start" x="172" y="-18" font-family="Roboto" font-size="10.00">Urho3D::Geometry::SetVertex</text>
<text text-anchor="middle" x="237" y="-7" font-family="Roboto" font-size="10.00">Buffer</text>
</a>
</g>
</g>
<!-- Node1&#45;&gt;Node22 -->
<g id="edge34" class="edge">
<title>Node1&#45;&gt;Node22</title>
<path fill="none" stroke="#63b8ff" d="M67.93,-211.07C77.14,-181.5 108.24,-93.09 164,-44 167.37,-41.03 171.09,-38.34 175.01,-35.91"/>
<polygon fill="#63b8ff" stroke="#63b8ff" points="176.65,-39 183.73,-31.12 173.28,-32.87 176.65,-39"/>
</g>
<!-- Node3&#45;&gt;Node2 -->
<g id="edge3" class="edge">
<title>Node3&#45;&gt;Node2</title>
<path fill="none" stroke="#63b8ff" d="M1062.83,-335C1071,-335 1079.59,-335 1088.21,-335"/>
<polygon fill="#63b8ff" stroke="#63b8ff" points="1088.01,-338.5 1098.01,-335 1088.01,-331.5 1088.01,-338.5"/>
</g>
<!-- Node4&#45;&gt;Node2 -->
<g id="edge5" class="edge">
<title>Node4&#45;&gt;Node2</title>
<path fill="none" stroke="#63b8ff" d="M1031.5,-206.39C1041.59,-213.84 1053.65,-223.1 1064,-232 1096.86,-260.25 1132.49,-296.05 1152.94,-317.15"/>
<polygon fill="#63b8ff" stroke="#63b8ff" points="1150.21,-319.36 1159.67,-324.13 1155.25,-314.5 1150.21,-319.36"/>
</g>
<!-- Node8 -->
<g id="node8" class="node">
<title>Node8</title>
<g id="a_node8"><a xlink:href="class_urho3_d_1_1_shared_array_ptr.html#a5f621b62e29d89c1d29f1c2089932bd5" target="_top" xlink:title="Reset to null and release the array reference.">
<polygon fill="white" stroke="#666666" points="468,-250 346,-250 346,-220 468,-220 468,-250"/>
<text text-anchor="start" x="354" y="-238" font-family="Roboto" font-size="10.00">Urho3D::SharedArrayPtr</text>
<text text-anchor="middle" x="407" y="-227" font-family="Roboto" font-size="10.00">::Reset</text>
</a>
</g>
</g>
<!-- Node7&#45;&gt;Node8 -->
<g id="edge9" class="edge">
<title>Node7&#45;&gt;Node8</title>
<path fill="none" stroke="#63b8ff" d="M290.91,-163.26C297.57,-166.02 304.11,-169.25 310,-173 329.62,-185.5 326.75,-197.93 346,-211 347.6,-212.08 349.25,-213.13 350.94,-214.14"/>
<polygon fill="#63b8ff" stroke="#63b8ff" points="349.18,-217.17 359.65,-218.8 352.48,-210.99 349.18,-217.17"/>
</g>
<!-- Node9 -->
<g id="node9" class="node">
<title>Node9</title>
<g id="a_node9"><a xlink:href="class_urho3_d_1_1_shared_array_ptr.html#a4fe651dd5116bb958bd304858c5f3a35" target="_top" xlink:title="Release the array reference and delete it and the RefCount structure if necessary.">
<polygon fill="white" stroke="#666666" points="626,-250 504,-250 504,-220 626,-220 626,-250"/>
<text text-anchor="start" x="512" y="-238" font-family="Roboto" font-size="10.00">Urho3D::SharedArrayPtr</text>
<text text-anchor="middle" x="565" y="-227" font-family="Roboto" font-size="10.00">::ReleaseRef</text>
</a>
</g>
</g>
<!-- Node8&#45;&gt;Node9 -->
<g id="edge10" class="edge">
<title>Node8&#45;&gt;Node9</title>
<path fill="none" stroke="#63b8ff" d="M468.31,-235C476.18,-235 484.3,-235 492.33,-235"/>
<polygon fill="#63b8ff" stroke="#63b8ff" points="492.08,-238.5 502.08,-235 492.08,-231.5 492.08,-238.5"/>
</g>
<!-- Node10&#45;&gt;Node8 -->
<g id="edge12" class="edge">
<title>Node10&#45;&gt;Node8</title>
<path fill="none" stroke="#63b8ff" d="M292.08,-209.23C305.69,-212.31 320.5,-215.66 334.8,-218.9"/>
<polygon fill="#63b8ff" stroke="#63b8ff" points="333.61,-222.21 344.14,-221.01 335.15,-215.39 333.61,-222.21"/>
</g>
<!-- Node11&#45;&gt;Node8 -->
<g id="edge21" class="edge">
<title>Node11&#45;&gt;Node8</title>
<path fill="none" stroke="#63b8ff" d="M255.98,-363.59C285.66,-338.15 345.06,-287.24 379.54,-257.68"/>
<polygon fill="#63b8ff" stroke="#63b8ff" points="381.69,-260.45 387,-251.28 377.13,-255.14 381.69,-260.45"/>
</g>
<!-- Node12 -->
<g id="node12" class="node">
<title>Node12</title>
<g id="a_node12"><a xlink:href="class_urho3_d_1_1_index_buffer.html#ae31e230aad30bec9beb7483f80f5d9a8" target="_top" xlink:title="Create buffer.">
<polygon fill="white" stroke="#666666" points="460.5,-431 353.5,-431 353.5,-401 460.5,-401 460.5,-431"/>
<text text-anchor="start" x="361.5" y="-419" font-family="Roboto" font-size="10.00">Urho3D::IndexBuffer</text>
<text text-anchor="middle" x="407" y="-408" font-family="Roboto" font-size="10.00">::Create</text>
</a>
</g>
</g>
<!-- Node11&#45;&gt;Node12 -->
<g id="edge14" class="edge">
<title>Node11&#45;&gt;Node12</title>
<path fill="none" stroke="#63b8ff" d="M290.7,-390.61C307.04,-394.2 325.22,-398.21 342.23,-401.95"/>
<polygon fill="#63b8ff" stroke="#63b8ff" points="341.21,-405.31 351.72,-404.05 342.71,-398.48 341.21,-405.31"/>
</g>
<!-- Node14 -->
<g id="node14" class="node">
<title>Node14</title>
<g id="a_node14"><a xlink:href="class_urho3_d_1_1_index_buffer.html#abd80b2ed1d3e4f9243712f3370a59469" target="_top" xlink:title="Unlock the buffer and apply changes to the GPU buffer.">
<polygon fill="white" stroke="#666666" points="770.5,-412 663.5,-412 663.5,-382 770.5,-382 770.5,-412"/>
<text text-anchor="start" x="671.5" y="-400" font-family="Roboto" font-size="10.00">Urho3D::IndexBuffer</text>
<text text-anchor="middle" x="717" y="-389" font-family="Roboto" font-size="10.00">::Unlock</text>
</a>
</g>
</g>
<!-- Node11&#45;&gt;Node14 -->
<g id="edge22" class="edge">
<title>Node11&#45;&gt;Node14</title>
<path fill="none" stroke="#63b8ff" d="M290.73,-380.4C365.38,-382.46 506.15,-386.66 626,-392 634.37,-392.37 643.18,-392.81 651.87,-393.26"/>
<polygon fill="#63b8ff" stroke="#63b8ff" points="651.5,-396.75 661.67,-393.79 651.88,-389.76 651.5,-396.75"/>
</g>
<!-- Node13 -->
<g id="node13" class="node">
<title>Node13</title>
<g id="a_node13"><a xlink:href="class_urho3_d_1_1_index_buffer.html#a702908f2461350f6bd7a945919c6170e" target="_top" xlink:title="Release buffer.">
<polygon fill="white" stroke="#666666" points="618.5,-431 511.5,-431 511.5,-401 618.5,-401 618.5,-431"/>
<text text-anchor="start" x="519.5" y="-419" font-family="Roboto" font-size="10.00">Urho3D::IndexBuffer</text>
<text text-anchor="middle" x="565" y="-408" font-family="Roboto" font-size="10.00">::Release</text>
</a>
</g>
</g>
<!-- Node12&#45;&gt;Node13 -->
<g id="edge15" class="edge">
<title>Node12&#45;&gt;Node13</title>
<path fill="none" stroke="#63b8ff" d="M460.81,-416C473.39,-416 486.95,-416 499.97,-416"/>
<polygon fill="#63b8ff" stroke="#63b8ff" points="499.73,-419.5 509.73,-416 499.73,-412.5 499.73,-419.5"/>
</g>
<!-- Node13&#45;&gt;Node14 -->
<g id="edge16" class="edge">
<title>Node13&#45;&gt;Node14</title>
<path fill="none" stroke="#63b8ff" d="M618.88,-409.3C629.53,-407.95 640.82,-406.52 651.8,-405.13"/>
<polygon fill="#63b8ff" stroke="#63b8ff" points="652.11,-408.62 661.59,-403.89 651.23,-401.68 652.11,-408.62"/>
</g>
<!-- Node14&#45;&gt;Node2 -->
<g id="edge17" class="edge">
<title>Node14&#45;&gt;Node2</title>
<path fill="none" stroke="#63b8ff" d="M770.8,-400.42C783.01,-401.08 795.95,-401.67 808,-402 922.19,-405.17 954.05,-410 1064,-379 1090.46,-371.54 1119.18,-359.34 1140.05,-349.68"/>
<polygon fill="#63b8ff" stroke="#63b8ff" points="1141.27,-352.97 1148.82,-345.54 1138.28,-346.64 1141.27,-352.97"/>
</g>
<!-- Node15 -->
<g id="node15" class="node">
<title>Node15</title>
<g id="a_node15"><a xlink:href="class_urho3_d_1_1_index_buffer.html#a6b4939821435c61218cfd58a06211484" target="_top" xlink:title="Set a data range in the buffer. Optionally discard data outside the range.">
<polygon fill="white" stroke="#666666" points="916.5,-393 809.5,-393 809.5,-363 916.5,-363 916.5,-393"/>
<text text-anchor="start" x="817.5" y="-381" font-family="Roboto" font-size="10.00">Urho3D::IndexBuffer</text>
<text text-anchor="middle" x="863" y="-370" font-family="Roboto" font-size="10.00">::SetDataRange</text>
</a>
</g>
</g>
<!-- Node14&#45;&gt;Node15 -->
<g id="edge18" class="edge">
<title>Node14&#45;&gt;Node15</title>
<path fill="none" stroke="#63b8ff" d="M770.8,-390.03C779.61,-388.87 788.82,-387.66 797.87,-386.46"/>
<polygon fill="#63b8ff" stroke="#63b8ff" points="798.25,-389.94 807.7,-385.16 797.33,-383 798.25,-389.94"/>
</g>
<!-- Node15&#45;&gt;Node2 -->
<g id="edge19" class="edge">
<title>Node15&#45;&gt;Node2</title>
<path fill="none" stroke="#63b8ff" d="M916.87,-374.83C957.32,-371.96 1014.41,-366.94 1064,-359 1082.58,-356.03 1102.77,-351.73 1120.5,-347.59"/>
<polygon fill="#63b8ff" stroke="#63b8ff" points="1121.08,-351.05 1129.99,-345.32 1119.45,-344.24 1121.08,-351.05"/>
</g>
<!-- Node15&#45;&gt;Node3 -->
<g id="edge20" class="edge">
<title>Node15&#45;&gt;Node3</title>
<path fill="none" stroke="#63b8ff" d="M915.58,-362.6C925.3,-359.7 935.56,-356.63 945.57,-353.64"/>
<polygon fill="#63b8ff" stroke="#63b8ff" points="946.26,-357.09 954.85,-350.87 944.26,-350.38 946.26,-357.09"/>
</g>
<!-- Node16&#45;&gt;Node8 -->
<g id="edge31" class="edge">
<title>Node16&#45;&gt;Node8</title>
<path fill="none" stroke="#63b8ff" d="M292.36,-113.38C298.8,-116.44 304.88,-120.25 310,-125 340.37,-153.19 316.47,-181.93 346,-211 346.73,-211.72 347.49,-212.43 348.27,-213.11"/>
<polygon fill="#63b8ff" stroke="#63b8ff" points="345.97,-215.76 356.13,-218.77 350.06,-210.08 345.97,-215.76"/>
</g>
<!-- Node17 -->
<g id="node17" class="node">
<title>Node17</title>
<g id="a_node17"><a xlink:href="class_urho3_d_1_1_vertex_buffer.html#a0a5f88c7e55d2e40d1136b0614f386f9" target="_top" xlink:title="Create buffer.">
<polygon fill="white" stroke="#666666" points="462,-202 352,-202 352,-172 462,-172 462,-202"/>
<text text-anchor="start" x="360" y="-190" font-family="Roboto" font-size="10.00">Urho3D::VertexBuffer</text>
<text text-anchor="middle" x="407" y="-179" font-family="Roboto" font-size="10.00">::Create</text>
</a>
</g>
</g>
<!-- Node16&#45;&gt;Node17 -->
<g id="edge24" class="edge">
<title>Node16&#45;&gt;Node17</title>
<path fill="none" stroke="#63b8ff" d="M292.18,-116.28C298.36,-118.83 304.44,-121.73 310,-125 328.71,-136.01 328.04,-145.81 346,-158 350.38,-160.97 355.1,-163.8 359.92,-166.46"/>
<polygon fill="#63b8ff" stroke="#63b8ff" points="358.01,-169.41 368.49,-170.93 361.24,-163.2 358.01,-169.41"/>
</g>
<!-- Node19 -->
<g id="node19" class="node">
<title>Node19</title>
<g id="a_node19"><a xlink:href="class_urho3_d_1_1_vertex_buffer.html#a10d352ff496e04a7d1395559d72a0b17" target="_top" xlink:title="Unlock the buffer and apply changes to the GPU buffer.">
<polygon fill="white" stroke="#666666" points="772,-203 662,-203 662,-173 772,-173 772,-203"/>
<text text-anchor="start" x="670" y="-191" font-family="Roboto" font-size="10.00">Urho3D::VertexBuffer</text>
<text text-anchor="middle" x="717" y="-180" font-family="Roboto" font-size="10.00">::Unlock</text>
</a>
</g>
</g>
<!-- Node16&#45;&gt;Node19 -->
<g id="edge32" class="edge">
<title>Node16&#45;&gt;Node19</title>
<path fill="none" stroke="#63b8ff" d="M292.49,-114.04C309.56,-117.88 328.51,-121.88 346,-125 469.63,-147.09 502.99,-137.69 626,-163 635.13,-164.88 644.7,-167.18 654.06,-169.61"/>
<polygon fill="#63b8ff" stroke="#63b8ff" points="652.87,-172.91 663.43,-172.11 654.67,-166.15 652.87,-172.91"/>
</g>
<!-- Node21 -->
<g id="node21" class="node">
<title>Node21</title>
<g id="a_node21"><a xlink:href="class_urho3_d_1_1_vertex_buffer.html#a913472a1f3817d473639ed6f5fb35ae1" target="_top" xlink:title="Update offsets of vertex elements.">
<polygon fill="white" stroke="#666666" points="462,-116 352,-116 352,-86 462,-86 462,-116"/>
<text text-anchor="start" x="360" y="-104" font-family="Roboto" font-size="10.00">Urho3D::VertexBuffer</text>
<text text-anchor="middle" x="407" y="-93" font-family="Roboto" font-size="10.00">::UpdateOffsets</text>
</a>
</g>
</g>
<!-- Node16&#45;&gt;Node21 -->
<g id="edge33" class="edge">
<title>Node16&#45;&gt;Node21</title>
<path fill="none" stroke="#63b8ff" d="M292.08,-101C307.44,-101 324.34,-101 340.3,-101"/>
<polygon fill="#63b8ff" stroke="#63b8ff" points="340.22,-104.5 350.22,-101 340.22,-97.5 340.22,-104.5"/>
</g>
<!-- Node18 -->
<g id="node18" class="node">
<title>Node18</title>
<g id="a_node18"><a xlink:href="class_urho3_d_1_1_vertex_buffer.html#a44c1a387c164fe346fbd069fcbb7a51e" target="_top" xlink:title="Release buffer.">
<polygon fill="white" stroke="#666666" points="620,-202 510,-202 510,-172 620,-172 620,-202"/>
<text text-anchor="start" x="518" y="-190" font-family="Roboto" font-size="10.00">Urho3D::VertexBuffer</text>
<text text-anchor="middle" x="565" y="-179" font-family="Roboto" font-size="10.00">::Release</text>
</a>
</g>
</g>
<!-- Node17&#45;&gt;Node18 -->
<g id="edge25" class="edge">
<title>Node17&#45;&gt;Node18</title>
<path fill="none" stroke="#63b8ff" d="M462.12,-187C473.79,-187 486.25,-187 498.31,-187"/>
<polygon fill="#63b8ff" stroke="#63b8ff" points="498.19,-190.5 508.19,-187 498.19,-183.5 498.19,-190.5"/>
</g>
<!-- Node18&#45;&gt;Node19 -->
<g id="edge26" class="edge">
<title>Node18&#45;&gt;Node19</title>
<path fill="none" stroke="#63b8ff" d="M620.15,-187.36C629.97,-187.43 640.3,-187.5 650.41,-187.56"/>
<polygon fill="#63b8ff" stroke="#63b8ff" points="650.14,-191.06 660.16,-187.63 650.18,-184.06 650.14,-191.06"/>
</g>
<!-- Node19&#45;&gt;Node2 -->
<g id="edge27" class="edge">
<title>Node19&#45;&gt;Node2</title>
<path fill="none" stroke="#63b8ff" d="M764.08,-203.38C811.62,-219.21 887.93,-244.53 954,-266 1014.27,-285.59 1084.16,-307.83 1127.73,-321.64"/>
<polygon fill="#63b8ff" stroke="#63b8ff" points="1126.46,-324.9 1137.05,-324.59 1128.57,-318.23 1126.46,-324.9"/>
</g>
<!-- Node20 -->
<g id="node20" class="node">
<title>Node20</title>
<g id="a_node20"><a xlink:href="class_urho3_d_1_1_vertex_buffer.html#a20dd4ccb7666c5acc1abcf5034fcea00" target="_top" xlink:title="Set a data range in the buffer. Optionally discard data outside the range.">
<polygon fill="white" stroke="#666666" points="918,-206 808,-206 808,-176 918,-176 918,-206"/>
<text text-anchor="start" x="816" y="-194" font-family="Roboto" font-size="10.00">Urho3D::VertexBuffer</text>
<text text-anchor="middle" x="863" y="-183" font-family="Roboto" font-size="10.00">::SetDataRange</text>
</a>
</g>
</g>
<!-- Node19&#45;&gt;Node20 -->
<g id="edge28" class="edge">
<title>Node19&#45;&gt;Node20</title>
<path fill="none" stroke="#63b8ff" d="M772.44,-189.13C780.34,-189.3 788.55,-189.47 796.64,-189.64"/>
<polygon fill="#63b8ff" stroke="#63b8ff" points="796.38,-193.13 806.45,-189.84 796.52,-186.14 796.38,-193.13"/>
</g>
<!-- Node20&#45;&gt;Node2 -->
<g id="edge29" class="edge">
<title>Node20&#45;&gt;Node2</title>
<path fill="none" stroke="#63b8ff" d="M903.64,-206.4C944.4,-222.57 1009.43,-249.31 1064,-276 1091.68,-289.54 1122.33,-306.87 1143.53,-319.24"/>
<polygon fill="#63b8ff" stroke="#63b8ff" points="1141.7,-322.22 1152.1,-324.27 1145.25,-316.19 1141.7,-322.22"/>
</g>
<!-- Node20&#45;&gt;Node4 -->
<g id="edge30" class="edge">
<title>Node20&#45;&gt;Node4</title>
<path fill="none" stroke="#63b8ff" d="M918.44,-191C926.34,-191 934.55,-191 942.64,-191"/>
<polygon fill="#63b8ff" stroke="#63b8ff" points="942.45,-194.5 952.45,-191 942.45,-187.5 942.45,-194.5"/>
</g>
</g>
</svg>
