<?xml version="1.0" encoding="UTF-8" standalone="no"?>
<!DOCTYPE svg PUBLIC "-//W3C//DTD SVG 1.1//EN"
 "http://www.w3.org/Graphics/SVG/1.1/DTD/svg11.dtd">
<!-- Generated by graphviz version 7.0.3 (0)
 -->
<!-- Title: Urho3D::FontFace Pages: 1 -->
<svg width="2100pt" height="529pt"
 viewBox="0.00 0.00 2100.00 529.00" xmlns="http://www.w3.org/2000/svg" xmlns:xlink="http://www.w3.org/1999/xlink">
<g id="graph0" class="graph" transform="scale(1 1) rotate(0) translate(4 525)">
<title>Urho3D::FontFace</title>
<!-- Node1 -->
<g id="node1" class="node">
<title>Node1</title>
<g id="a_node1"><a xlink:title="Font face description.">
<polygon fill="#999999" stroke="#666666" points="2092,-113.5 1997,-113.5 1997,-94.5 2092,-94.5 2092,-113.5"/>
<text text-anchor="middle" x="2044.5" y="-101.5" font-family="Roboto" font-size="10.00">Urho3D::FontFace</text>
</a>
</g>
</g>
<!-- Node2 -->
<g id="node2" class="node">
<title>Node2</title>
<g id="a_node2"><a xlink:href="class_urho3_d_1_1_ref_counted.html" target="_top" xlink:title="Base class for intrusively reference&#45;counted objects. These are noncopyable and non&#45;assignable.">
<polygon fill="white" stroke="#666666" points="714.5,-443.5 607.5,-443.5 607.5,-424.5 714.5,-424.5 714.5,-443.5"/>
<text text-anchor="middle" x="661" y="-431.5" font-family="Roboto" font-size="10.00">Urho3D::RefCounted</text>
</a>
</g>
</g>
<!-- Node2&#45;&gt;Node1 -->
<g id="edge1" class="edge">
<title>Node2&#45;&gt;Node1</title>
<path fill="none" stroke="#63b8ff" d="M725.93,-443.22C792.67,-452.04 900.45,-464 994,-464 994,-464 994,-464 1834,-464 2001.04,-464 2037.21,-170.88 2042.68,-113.63"/>
<polygon fill="#63b8ff" stroke="#63b8ff" points="726.64,-439.79 716.27,-441.93 725.71,-446.72 726.64,-439.79"/>
</g>
<!-- Node6 -->
<g id="node6" class="node">
<title>Node6</title>
<g id="a_node6"><a xlink:href="class_urho3_d_1_1_object.html" target="_top" xlink:title=" ">
<polygon fill="white" stroke="#666666" points="1335.5,-384.5 1252.5,-384.5 1252.5,-365.5 1335.5,-365.5 1335.5,-384.5"/>
<text text-anchor="middle" x="1294" y="-372.5" font-family="Roboto" font-size="10.00">Urho3D::Object</text>
</a>
</g>
</g>
<!-- Node2&#45;&gt;Node6 -->
<g id="edge6" class="edge">
<title>Node2&#45;&gt;Node6</title>
<path fill="none" stroke="#63b8ff" d="M726.27,-431.81C831,-427.61 1044.81,-416.37 1224,-390 1233.22,-388.64 1243.04,-386.77 1252.3,-384.81"/>
<polygon fill="#63b8ff" stroke="#63b8ff" points="726.32,-428.31 716.47,-432.19 726.6,-435.3 726.32,-428.31"/>
</g>
<!-- Node7 -->
<g id="node7" class="node">
<title>Node7</title>
<g id="a_node7"><a xlink:href="class_urho3_d_1_1_context.html" target="_top" xlink:title="Urho3D execution context. Provides access to subsystems, object factories and attributes,...">
<polygon fill="#fff0f0" stroke="red" points="1039.5,-305.5 950.5,-305.5 950.5,-286.5 1039.5,-286.5 1039.5,-305.5"/>
<text text-anchor="middle" x="995" y="-293.5" font-family="Roboto" font-size="10.00">Urho3D::Context</text>
</a>
</g>
</g>
<!-- Node2&#45;&gt;Node7 -->
<g id="edge8" class="edge">
<title>Node2&#45;&gt;Node7</title>
<path fill="none" stroke="#63b8ff" d="M696.38,-419.71C763.96,-391.62 912.54,-329.86 970.34,-305.83"/>
<polygon fill="#63b8ff" stroke="#63b8ff" points="695.16,-416.42 687.27,-423.49 697.85,-422.89 695.16,-416.42"/>
</g>
<!-- Node3 -->
<g id="node3" class="node">
<title>Node3</title>
<g id="a_node3"><a xlink:href="struct_urho3_d_1_1_ref_count.html" target="_top" xlink:title="Reference count structure.">
<polygon fill="white" stroke="#666666" points="486,-484.5 390,-484.5 390,-465.5 486,-465.5 486,-484.5"/>
<text text-anchor="middle" x="438" y="-472.5" font-family="Roboto" font-size="10.00">Urho3D::RefCount</text>
</a>
</g>
</g>
<!-- Node3&#45;&gt;Node2 -->
<g id="edge2" class="edge">
<title>Node3&#45;&gt;Node2</title>
<path fill="none" stroke="#9a32cd" stroke-dasharray="5,2" d="M489.72,-462.47C495.2,-461.24 500.71,-460.06 506,-459 539.46,-452.3 577.29,-446.14 607.08,-441.61"/>
<polygon fill="#9a32cd" stroke="#9a32cd" points="489.01,-459.05 480.05,-464.7 490.58,-465.87 489.01,-459.05"/>
<text text-anchor="middle" x="529" y="-462" font-family="Roboto" font-size="10.00"> refCount_</text>
</g>
<!-- Node29 -->
<g id="node19" class="node">
<title>Node29</title>
<g id="a_node19"><a xlink:href="class_urho3_d_1_1_shared_array_ptr.html" target="_top" xlink:title=" ">
<polygon fill="white" stroke="#666666" points="902.5,-517 780.5,-517 780.5,-487 902.5,-487 902.5,-517"/>
<text text-anchor="start" x="788.5" y="-505" font-family="Roboto" font-size="10.00">Urho3D::SharedArrayPtr</text>
<text text-anchor="middle" x="841.5" y="-494" font-family="Roboto" font-size="10.00">&lt; unsigned char &gt;</text>
</a>
</g>
</g>
<!-- Node3&#45;&gt;Node29 -->
<g id="edge28" class="edge">
<title>Node3&#45;&gt;Node29</title>
<path fill="none" stroke="#9a32cd" stroke-dasharray="5,2" d="M497.41,-478.93C572.87,-484 703.61,-492.79 780.05,-497.94"/>
<polygon fill="#9a32cd" stroke="#9a32cd" points="497.96,-475.46 487.75,-478.28 497.49,-482.44 497.96,-475.46"/>
<text text-anchor="middle" x="529" y="-485" font-family="Roboto" font-size="10.00"> refCount_</text>
</g>
<!-- Node4 -->
<g id="node4" class="node">
<title>Node4</title>
<g id="a_node4"><a xlink:href="class_urho3_d_1_1_font.html" target="_top" xlink:title="Font resource.">
<polygon fill="white" stroke="#666666" points="1870,-238.5 1796,-238.5 1796,-219.5 1870,-219.5 1870,-238.5"/>
<text text-anchor="middle" x="1833" y="-226.5" font-family="Roboto" font-size="10.00">Urho3D::Font</text>
</a>
</g>
</g>
<!-- Node4&#45;&gt;Node1 -->
<g id="edge3" class="edge">
<title>Node4&#45;&gt;Node1</title>
<path fill="none" stroke="#9a32cd" stroke-dasharray="5,2" d="M1860.06,-213.45C1903.74,-187.39 1990.48,-135.63 2026.85,-113.94"/>
<polygon fill="#9a32cd" stroke="#9a32cd" points="1858.53,-210.29 1851.74,-218.42 1862.12,-216.3 1858.53,-210.29"/>
<text text-anchor="middle" x="1957.5" y="-170" font-family="Roboto" font-size="10.00"> font_</text>
</g>
<!-- Node5 -->
<g id="node5" class="node">
<title>Node5</title>
<g id="a_node5"><a xlink:href="class_urho3_d_1_1_resource.html" target="_top" xlink:title=" ">
<polygon fill="white" stroke="#666666" points="1630,-314.5 1534,-314.5 1534,-295.5 1630,-295.5 1630,-314.5"/>
<text text-anchor="middle" x="1582" y="-302.5" font-family="Roboto" font-size="10.00">Urho3D::Resource</text>
</a>
</g>
</g>
<!-- Node5&#45;&gt;Node4 -->
<g id="edge4" class="edge">
<title>Node5&#45;&gt;Node4</title>
<path fill="none" stroke="#63b8ff" d="M1626.51,-291.72C1675.84,-276.66 1755.16,-252.45 1799.44,-238.94"/>
<polygon fill="#63b8ff" stroke="#63b8ff" points="1625.54,-288.36 1617,-294.62 1627.59,-295.05 1625.54,-288.36"/>
</g>
<!-- Node6&#45;&gt;Node5 -->
<g id="edge5" class="edge">
<title>Node6&#45;&gt;Node5</title>
<path fill="none" stroke="#63b8ff" d="M1346.6,-362.81C1390.39,-352.42 1454.88,-336.97 1511,-323 1521.35,-320.42 1532.54,-317.57 1542.88,-314.92"/>
<polygon fill="#63b8ff" stroke="#63b8ff" points="1346.05,-359.35 1337.12,-365.06 1347.66,-366.16 1346.05,-359.35"/>
</g>
<!-- Node7&#45;&gt;Node6 -->
<g id="edge7" class="edge">
<title>Node7&#45;&gt;Node6</title>
<path fill="none" stroke="#9a32cd" stroke-dasharray="5,2" d="M1044.21,-308.82C1103.25,-324.53 1201.99,-350.79 1255.6,-365.05"/>
<polygon fill="#9a32cd" stroke="#9a32cd" points="1045.34,-305.5 1034.78,-306.31 1043.54,-312.27 1045.34,-305.5"/>
<text text-anchor="middle" x="1150.5" y="-358" font-family="Roboto" font-size="10.00"> context_</text>
</g>
<!-- Node8 -->
<g id="node8" class="node">
<title>Node8</title>
<g id="a_node8"><a xlink:href="class_urho3_d_1_1_hash_map.html" target="_top" xlink:title=" ">
<polygon fill="white" stroke="#666666" points="752,-225.5 570,-225.5 570,-184.5 752,-184.5 752,-225.5"/>
<text text-anchor="start" x="578" y="-213.5" font-family="Roboto" font-size="10.00">Urho3D::HashMap&lt; Urho3D</text>
<text text-anchor="start" x="578" y="-202.5" font-family="Roboto" font-size="10.00">::StringHash, Urho3D::</text>
<text text-anchor="middle" x="661" y="-191.5" font-family="Roboto" font-size="10.00">SharedPtr&lt; Urho3D::ObjectFactory &gt; &gt;</text>
</a>
</g>
</g>
<!-- Node8&#45;&gt;Node7 -->
<g id="edge9" class="edge">
<title>Node8&#45;&gt;Node7</title>
<path fill="none" stroke="#9a32cd" stroke-dasharray="5,2" d="M756.46,-228.83C803.62,-240.99 861.46,-256.28 913,-271 929.56,-275.73 947.9,-281.36 962.94,-286.08"/>
<polygon fill="#9a32cd" stroke="#9a32cd" points="757.36,-225.45 746.8,-226.35 755.62,-232.23 757.36,-225.45"/>
<text text-anchor="middle" x="841.5" y="-274" font-family="Roboto" font-size="10.00"> factories_</text>
</g>
<!-- Node9 -->
<g id="node9" class="node">
<title>Node9</title>
<g id="a_node9"><a xlink:href="class_urho3_d_1_1_hash_base.html" target="_top" xlink:title="Hash set/map base class.">
<polygon fill="white" stroke="#666666" points="488,-159.5 388,-159.5 388,-140.5 488,-140.5 488,-159.5"/>
<text text-anchor="middle" x="438" y="-147.5" font-family="Roboto" font-size="10.00">Urho3D::HashBase</text>
</a>
</g>
</g>
<!-- Node9&#45;&gt;Node8 -->
<g id="edge10" class="edge">
<title>Node9&#45;&gt;Node8</title>
<path fill="none" stroke="#63b8ff" d="M489.91,-162.67C515.4,-169.01 546.92,-176.86 575.87,-184.06"/>
<polygon fill="#63b8ff" stroke="#63b8ff" points="491.04,-159.34 480.49,-160.33 489.35,-166.14 491.04,-159.34"/>
</g>
<!-- Node13 -->
<g id="node13" class="node">
<title>Node13</title>
<g id="a_node13"><a xlink:href="class_urho3_d_1_1_hash_map.html" target="_top" xlink:title=" ">
<polygon fill="white" stroke="#666666" points="735.5,-302.5 586.5,-302.5 586.5,-261.5 735.5,-261.5 735.5,-302.5"/>
<text text-anchor="start" x="594.5" y="-290.5" font-family="Roboto" font-size="10.00">Urho3D::HashMap&lt; Urho3D</text>
<text text-anchor="start" x="594.5" y="-279.5" font-family="Roboto" font-size="10.00">::StringHash, Urho3D::</text>
<text text-anchor="middle" x="661" y="-268.5" font-family="Roboto" font-size="10.00">SharedPtr&lt; Urho3D::Object &gt; &gt;</text>
</a>
</g>
</g>
<!-- Node9&#45;&gt;Node13 -->
<g id="edge18" class="edge">
<title>Node9&#45;&gt;Node13</title>
<path fill="none" stroke="#63b8ff" d="M462.62,-166.29C488.53,-183.93 531.55,-212.56 570,-235 585.38,-243.98 602.63,-253.19 617.88,-261.05"/>
<polygon fill="#63b8ff" stroke="#63b8ff" points="464.74,-163.5 454.51,-160.74 460.79,-169.28 464.74,-163.5"/>
</g>
<!-- Node28 -->
<g id="node18" class="node">
<title>Node28</title>
<g id="a_node18"><a xlink:href="class_urho3_d_1_1_hash_map.html" target="_top" xlink:title=" ">
<polygon fill="white" stroke="#666666" points="913,-170.5 770,-170.5 770,-129.5 913,-129.5 913,-170.5"/>
<text text-anchor="start" x="778" y="-158.5" font-family="Roboto" font-size="10.00">Urho3D::HashMap&lt; int,</text>
<text text-anchor="start" x="778" y="-147.5" font-family="Roboto" font-size="10.00"> Urho3D::SharedPtr&lt; Urho3D</text>
<text text-anchor="middle" x="841.5" y="-136.5" font-family="Roboto" font-size="10.00">::FontFace &gt; &gt;</text>
</a>
</g>
</g>
<!-- Node9&#45;&gt;Node28 -->
<g id="edge26" class="edge">
<title>Node9&#45;&gt;Node28</title>
<path fill="none" stroke="#63b8ff" d="M499.41,-150C571.77,-150 692.8,-150 769.54,-150"/>
<polygon fill="#63b8ff" stroke="#63b8ff" points="499.75,-146.5 489.75,-150 499.75,-153.5 499.75,-146.5"/>
</g>
<!-- Node32 -->
<g id="node22" class="node">
<title>Node32</title>
<g id="a_node22"><a xlink:href="class_urho3_d_1_1_hash_map.html" target="_top" xlink:title=" ">
<polygon fill="white" stroke="#666666" points="1224,-121 1077,-121 1077,-91 1224,-91 1224,-121"/>
<text text-anchor="start" x="1085" y="-109" font-family="Roboto" font-size="10.00">Urho3D::HashMap&lt; unsigned,</text>
<text text-anchor="middle" x="1150.5" y="-98" font-family="Roboto" font-size="10.00"> Urho3D::FontGlyph &gt;</text>
</a>
</g>
</g>
<!-- Node9&#45;&gt;Node32 -->
<g id="edge34" class="edge">
<title>Node9&#45;&gt;Node32</title>
<path fill="none" stroke="#63b8ff" d="M499.36,-144.12C565.67,-137.85 675.33,-128 770,-122 876.62,-115.25 1000.27,-110.63 1076.7,-108.16"/>
<polygon fill="#63b8ff" stroke="#63b8ff" points="499.43,-140.6 489.81,-145.03 500.09,-147.57 499.43,-140.6"/>
</g>
<!-- Node33 -->
<g id="node23" class="node">
<title>Node33</title>
<g id="a_node23"><a xlink:href="class_urho3_d_1_1_hash_map.html" target="_top" xlink:title=" ">
<polygon fill="white" stroke="#666666" points="1511,-77 1364,-77 1364,-47 1511,-47 1511,-77"/>
<text text-anchor="start" x="1372" y="-65" font-family="Roboto" font-size="10.00">Urho3D::HashMap&lt; unsigned,</text>
<text text-anchor="middle" x="1437.5" y="-54" font-family="Roboto" font-size="10.00"> float &gt;</text>
</a>
</g>
</g>
<!-- Node9&#45;&gt;Node33 -->
<g id="edge36" class="edge">
<title>Node9&#45;&gt;Node33</title>
<path fill="none" stroke="#63b8ff" d="M463.36,-134.01C502.9,-109.64 584.27,-66 660,-66 660,-66 660,-66 1151.5,-66 1223.62,-66 1306,-64.7 1363.58,-63.59"/>
<polygon fill="#63b8ff" stroke="#63b8ff" points="461.67,-130.93 455.08,-139.23 465.4,-136.86 461.67,-130.93"/>
</g>
<!-- Node10 -->
<g id="node10" class="node">
<title>Node10</title>
<g id="a_node10"><a xlink:href="struct_urho3_d_1_1_hash_node_base.html" target="_top" xlink:title="Hash set/map node base class.">
<polygon fill="white" stroke="#666666" points="306,-192.5 181,-192.5 181,-173.5 306,-173.5 306,-192.5"/>
<text text-anchor="middle" x="243.5" y="-180.5" font-family="Roboto" font-size="10.00">Urho3D::HashNodeBase</text>
</a>
</g>
</g>
<!-- Node10&#45;&gt;Node9 -->
<g id="edge11" class="edge">
<title>Node10&#45;&gt;Node9</title>
<path fill="none" stroke="#9a32cd" stroke-dasharray="5,2" d="M313.81,-171.12C338.26,-166.93 365.23,-162.3 387.69,-158.45"/>
<polygon fill="#9a32cd" stroke="#9a32cd" points="313.54,-167.61 304.27,-172.75 314.72,-174.51 313.54,-167.61"/>
<text text-anchor="middle" x="347" y="-194" font-family="Roboto" font-size="10.00"> head_</text>
<text text-anchor="middle" x="347" y="-183" font-family="Roboto" font-size="10.00">ptrs_</text>
<text text-anchor="middle" x="347" y="-172" font-family="Roboto" font-size="10.00">tail_</text>
</g>
<!-- Node10&#45;&gt;Node10 -->
<g id="edge12" class="edge">
<title>Node10&#45;&gt;Node10</title>
<path fill="none" stroke="#9a32cd" stroke-dasharray="5,2" d="M226.99,-203.93C229.06,-207.79 234.56,-210.5 243.5,-210.5 259.85,-210.5 264.7,-201.44 258.06,-192.87"/>
<polygon fill="#9a32cd" stroke="#9a32cd" points="230.39,-204.81 228.68,-194.36 223.5,-203.6 230.39,-204.81"/>
<text text-anchor="middle" x="243.5" y="-235.5" font-family="Roboto" font-size="10.00"> down_</text>
<text text-anchor="middle" x="243.5" y="-224.5" font-family="Roboto" font-size="10.00">next_</text>
<text text-anchor="middle" x="243.5" y="-213.5" font-family="Roboto" font-size="10.00">prev_</text>
</g>
<!-- Node11 -->
<g id="node11" class="node">
<title>Node11</title>
<g id="a_node11"><a xlink:href="struct_urho3_d_1_1_allocator_block.html" target="_top" xlink:title="Allocator memory block.">
<polygon fill="white" stroke="#666666" points="303.5,-126.5 183.5,-126.5 183.5,-107.5 303.5,-107.5 303.5,-126.5"/>
<text text-anchor="middle" x="243.5" y="-114.5" font-family="Roboto" font-size="10.00">Urho3D::AllocatorBlock</text>
</a>
</g>
</g>
<!-- Node11&#45;&gt;Node9 -->
<g id="edge13" class="edge">
<title>Node11&#45;&gt;Node9</title>
<path fill="none" stroke="#9a32cd" stroke-dasharray="5,2" d="M313.81,-128.88C338.26,-133.07 365.23,-137.7 387.69,-141.55"/>
<polygon fill="#9a32cd" stroke="#9a32cd" points="314.72,-125.49 304.27,-127.25 313.54,-132.39 314.72,-125.49"/>
<text text-anchor="middle" x="347" y="-142" font-family="Roboto" font-size="10.00"> allocator_</text>
</g>
<!-- Node11&#45;&gt;Node11 -->
<g id="edge16" class="edge">
<title>Node11&#45;&gt;Node11</title>
<path fill="none" stroke="#9a32cd" stroke-dasharray="5,2" d="M226.99,-137.93C229.06,-141.79 234.56,-144.5 243.5,-144.5 259.85,-144.5 264.7,-135.44 258.06,-126.87"/>
<polygon fill="#9a32cd" stroke="#9a32cd" points="230.39,-138.81 228.68,-128.36 223.5,-137.6 230.39,-138.81"/>
<text text-anchor="middle" x="243.5" y="-147.5" font-family="Roboto" font-size="10.00"> next_</text>
</g>
<!-- Node12 -->
<g id="node12" class="node">
<title>Node12</title>
<g id="a_node12"><a xlink:href="struct_urho3_d_1_1_allocator_node.html" target="_top" xlink:title="Allocator node.">
<polygon fill="white" stroke="#666666" points="120,-126.5 0,-126.5 0,-107.5 120,-107.5 120,-126.5"/>
<text text-anchor="middle" x="60" y="-114.5" font-family="Roboto" font-size="10.00">Urho3D::AllocatorNode</text>
</a>
</g>
</g>
<!-- Node12&#45;&gt;Node11 -->
<g id="edge14" class="edge">
<title>Node12&#45;&gt;Node11</title>
<path fill="none" stroke="#9a32cd" stroke-dasharray="5,2" d="M131.5,-117C148.6,-117 166.72,-117 183.25,-117"/>
<polygon fill="#9a32cd" stroke="#9a32cd" points="131.94,-113.5 121.94,-117 131.94,-120.5 131.94,-113.5"/>
<text text-anchor="middle" x="150.5" y="-120" font-family="Roboto" font-size="10.00"> free_</text>
</g>
<!-- Node12&#45;&gt;Node12 -->
<g id="edge15" class="edge">
<title>Node12&#45;&gt;Node12</title>
<path fill="none" stroke="#9a32cd" stroke-dasharray="5,2" d="M43.94,-137.93C45.95,-141.79 51.3,-144.5 60,-144.5 75.91,-144.5 80.63,-135.44 74.17,-126.87"/>
<polygon fill="#9a32cd" stroke="#9a32cd" points="47.34,-138.81 45.58,-128.36 40.44,-137.63 47.34,-138.81"/>
<text text-anchor="middle" x="60" y="-147.5" font-family="Roboto" font-size="10.00"> next_</text>
</g>
<!-- Node13&#45;&gt;Node7 -->
<g id="edge17" class="edge">
<title>Node13&#45;&gt;Node7</title>
<path fill="none" stroke="#9a32cd" stroke-dasharray="5,2" d="M747.11,-285.59C811.92,-288.32 898.51,-291.97 950.04,-294.15"/>
<polygon fill="#9a32cd" stroke="#9a32cd" points="747.33,-282.1 737.19,-285.17 747.04,-289.09 747.33,-282.1"/>
<text text-anchor="middle" x="841.5" y="-295" font-family="Roboto" font-size="10.00"> subsystems_</text>
</g>
<!-- Node25 -->
<g id="node14" class="node">
<title>Node25</title>
<g id="a_node14"><a xlink:href="class_urho3_d_1_1_linked_list.html" target="_top" xlink:title=" ">
<polygon fill="white" stroke="orangered" points="1059,-390 931,-390 931,-360 1059,-360 1059,-390"/>
<text text-anchor="start" x="939" y="-378" font-family="Roboto" font-size="10.00">Urho3D::LinkedList</text>
<text text-anchor="middle" x="995" y="-367" font-family="Roboto" font-size="10.00">&lt; Urho3D::EventHandler &gt;</text>
</a>
</g>
</g>
<!-- Node25&#45;&gt;Node6 -->
<g id="edge19" class="edge">
<title>Node25&#45;&gt;Node6</title>
<path fill="none" stroke="#9a32cd" stroke-dasharray="5,2" d="M1070.57,-375C1128.06,-375 1205.4,-375 1252.1,-375"/>
<polygon fill="#9a32cd" stroke="#9a32cd" points="1070.86,-371.5 1060.86,-375 1070.86,-378.5 1070.86,-371.5"/>
<text text-anchor="middle" x="1150.5" y="-378" font-family="Roboto" font-size="10.00"> eventHandlers_</text>
</g>
<!-- Node26 -->
<g id="node15" class="node">
<title>Node26</title>
<g id="a_node15"><a xlink:href="class_urho3_d_1_1_string.html" target="_top" xlink:title="String class.">
<polygon fill="white" stroke="#666666" points="1334,-318.5 1254,-318.5 1254,-299.5 1334,-299.5 1334,-318.5"/>
<text text-anchor="middle" x="1294" y="-306.5" font-family="Roboto" font-size="10.00">Urho3D::String</text>
</a>
</g>
</g>
<!-- Node26&#45;&gt;Node5 -->
<g id="edge20" class="edge">
<title>Node26&#45;&gt;Node5</title>
<path fill="none" stroke="#9a32cd" stroke-dasharray="5,2" d="M1345.68,-308.29C1398.93,-307.55 1481.99,-306.38 1533.87,-305.66"/>
<polygon fill="#9a32cd" stroke="#9a32cd" points="1345.93,-304.79 1335.98,-308.43 1346.03,-311.79 1345.93,-304.79"/>
<text text-anchor="middle" x="1437.5" y="-311" font-family="Roboto" font-size="10.00"> name_</text>
</g>
<!-- Node26&#45;&gt;Node26 -->
<g id="edge21" class="edge">
<title>Node26&#45;&gt;Node26</title>
<path fill="none" stroke="#9a32cd" stroke-dasharray="5,2" d="M1268.53,-329.93C1271.71,-333.79 1280.21,-336.5 1294,-336.5 1319.22,-336.5 1326.71,-327.44 1316.47,-318.87"/>
<polygon fill="#9a32cd" stroke="#9a32cd" points="1271.89,-330.9 1271.14,-320.33 1265.14,-329.06 1271.89,-330.9"/>
<text text-anchor="middle" x="1294" y="-339.5" font-family="Roboto" font-size="10.00"> EMPTY</text>
</g>
<!-- Node22 -->
<g id="node16" class="node">
<title>Node22</title>
<g id="a_node16"><a xlink:href="class_urho3_d_1_1_string_hash.html" target="_top" xlink:title="32&#45;bit hash value for a string.">
<polygon fill="white" stroke="#666666" points="1346,-252.5 1242,-252.5 1242,-233.5 1346,-233.5 1346,-252.5"/>
<text text-anchor="middle" x="1294" y="-240.5" font-family="Roboto" font-size="10.00">Urho3D::StringHash</text>
</a>
</g>
</g>
<!-- Node22&#45;&gt;Node5 -->
<g id="edge22" class="edge">
<title>Node22&#45;&gt;Node5</title>
<path fill="none" stroke="#9a32cd" stroke-dasharray="5,2" d="M1352.02,-255.36C1405.79,-267.02 1485.38,-284.27 1535.16,-295.06"/>
<polygon fill="#9a32cd" stroke="#9a32cd" points="1352.94,-251.98 1342.43,-253.28 1351.46,-258.82 1352.94,-251.98"/>
<text text-anchor="middle" x="1437.5" y="-291" font-family="Roboto" font-size="10.00"> nameHash_</text>
</g>
<!-- Node22&#45;&gt;Node22 -->
<g id="edge23" class="edge">
<title>Node22&#45;&gt;Node22</title>
<path fill="none" stroke="#9a32cd" stroke-dasharray="5,2" d="M1268.53,-263.93C1271.71,-267.79 1280.21,-270.5 1294,-270.5 1319.22,-270.5 1326.71,-261.44 1316.47,-252.87"/>
<polygon fill="#9a32cd" stroke="#9a32cd" points="1271.89,-264.9 1271.14,-254.33 1265.14,-263.06 1271.89,-264.9"/>
<text text-anchor="middle" x="1294" y="-273.5" font-family="Roboto" font-size="10.00"> ZERO</text>
</g>
<!-- Node27 -->
<g id="node17" class="node">
<title>Node27</title>
<g id="a_node17"><a xlink:href="class_urho3_d_1_1_timer.html" target="_top" xlink:title="Low&#45;resolution operating system timer.">
<polygon fill="white" stroke="#666666" points="1334.5,-215.5 1253.5,-215.5 1253.5,-196.5 1334.5,-196.5 1334.5,-215.5"/>
<text text-anchor="middle" x="1294" y="-203.5" font-family="Roboto" font-size="10.00">Urho3D::Timer</text>
</a>
</g>
</g>
<!-- Node27&#45;&gt;Node5 -->
<g id="edge24" class="edge">
<title>Node27&#45;&gt;Node5</title>
<path fill="none" stroke="#9a32cd" stroke-dasharray="5,2" d="M1346.02,-201.2C1393.75,-199.51 1464.49,-204.56 1511,-242 1527.78,-255.51 1513.41,-272.13 1529,-287 1532.39,-290.23 1536.38,-292.88 1540.63,-295.06"/>
<polygon fill="#9a32cd" stroke="#9a32cd" points="1346.04,-197.69 1336.22,-201.67 1346.37,-204.69 1346.04,-197.69"/>
<text text-anchor="middle" x="1437.5" y="-245" font-family="Roboto" font-size="10.00"> useTimer_</text>
</g>
<!-- Node28&#45;&gt;Node4 -->
<g id="edge25" class="edge">
<title>Node28&#45;&gt;Node4</title>
<path fill="none" stroke="#9a32cd" stroke-dasharray="5,2" d="M924.66,-144.38C1069.26,-136.08 1378.27,-125.47 1635,-165 1700.4,-175.07 1773.56,-203.73 1809.54,-219.05"/>
<polygon fill="#9a32cd" stroke="#9a32cd" points="924.56,-140.88 914.79,-144.96 924.97,-147.87 924.56,-140.88"/>
<text text-anchor="middle" x="1294" y="-143" font-family="Roboto" font-size="10.00"> faces_</text>
</g>
<!-- Node29&#45;&gt;Node4 -->
<g id="edge27" class="edge">
<title>Node29&#45;&gt;Node4</title>
<path fill="none" stroke="#9a32cd" stroke-dasharray="5,2" d="M914.03,-504.92C976.24,-507.2 1068.82,-510 1149.5,-510 1149.5,-510 1149.5,-510 1583,-510 1731.29,-510 1812.66,-288.08 1828.94,-238.67"/>
<polygon fill="#9a32cd" stroke="#9a32cd" points="914.42,-501.43 904.29,-504.55 914.15,-508.43 914.42,-501.43"/>
<text text-anchor="middle" x="1294" y="-513" font-family="Roboto" font-size="10.00"> fontData_</text>
</g>
<!-- Node30 -->
<g id="node20" class="node">
<title>Node30</title>
<g id="a_node20"><a xlink:href="class_urho3_d_1_1_int_vector2.html" target="_top" xlink:title="Two&#45;dimensional vector with integer values.">
<polygon fill="white" stroke="#666666" points="1632.5,-351.5 1531.5,-351.5 1531.5,-332.5 1632.5,-332.5 1632.5,-351.5"/>
<text text-anchor="middle" x="1582" y="-339.5" font-family="Roboto" font-size="10.00">Urho3D::IntVector2</text>
</a>
</g>
</g>
<!-- Node30&#45;&gt;Node4 -->
<g id="edge29" class="edge">
<title>Node30&#45;&gt;Node4</title>
<path fill="none" stroke="#9a32cd" stroke-dasharray="5,2" d="M1623.6,-328.19C1627.47,-326.81 1631.31,-325.39 1635,-324 1677.69,-307.86 1688.82,-304.68 1730,-285 1760.8,-270.28 1795.39,-250.59 1815.34,-238.91"/>
<polygon fill="#9a32cd" stroke="#9a32cd" points="1622.49,-324.87 1614.23,-331.5 1624.82,-331.47 1622.49,-324.87"/>
<text text-anchor="middle" x="1691.5" y="-320" font-family="Roboto" font-size="10.00"> absoluteOffset_</text>
</g>
<!-- Node30&#45;&gt;Node30 -->
<g id="edge30" class="edge">
<title>Node30&#45;&gt;Node30</title>
<path fill="none" stroke="#9a32cd" stroke-dasharray="5,2" d="M1562.56,-362.93C1565,-366.79 1571.47,-369.5 1582,-369.5 1601.25,-369.5 1606.96,-360.44 1599.14,-351.87"/>
<polygon fill="#9a32cd" stroke="#9a32cd" points="1565.95,-363.85 1564.55,-353.35 1559.09,-362.43 1565.95,-363.85"/>
<text text-anchor="middle" x="1582" y="-427.5" font-family="Roboto" font-size="10.00"> DOWN</text>
<text text-anchor="middle" x="1582" y="-416.5" font-family="Roboto" font-size="10.00">LEFT</text>
<text text-anchor="middle" x="1582" y="-405.5" font-family="Roboto" font-size="10.00">ONE</text>
<text text-anchor="middle" x="1582" y="-394.5" font-family="Roboto" font-size="10.00">RIGHT</text>
<text text-anchor="middle" x="1582" y="-383.5" font-family="Roboto" font-size="10.00">UP</text>
<text text-anchor="middle" x="1582" y="-372.5" font-family="Roboto" font-size="10.00">ZERO</text>
</g>
<!-- Node31 -->
<g id="node21" class="node">
<title>Node31</title>
<g id="a_node21"><a xlink:href="class_urho3_d_1_1_vector2.html" target="_top" xlink:title="Two&#45;dimensional vector.">
<polygon fill="white" stroke="#666666" points="1626.5,-193.5 1537.5,-193.5 1537.5,-174.5 1626.5,-174.5 1626.5,-193.5"/>
<text text-anchor="middle" x="1582" y="-181.5" font-family="Roboto" font-size="10.00">Urho3D::Vector2</text>
</a>
</g>
</g>
<!-- Node31&#45;&gt;Node4 -->
<g id="edge31" class="edge">
<title>Node31&#45;&gt;Node4</title>
<path fill="none" stroke="#9a32cd" stroke-dasharray="5,2" d="M1638.08,-193.95C1686.09,-202.63 1754.35,-214.97 1795.77,-222.45"/>
<polygon fill="#9a32cd" stroke="#9a32cd" points="1638.9,-190.54 1628.43,-192.21 1637.65,-197.43 1638.9,-190.54"/>
<text text-anchor="middle" x="1691.5" y="-213" font-family="Roboto" font-size="10.00"> scaledOffset_</text>
</g>
<!-- Node31&#45;&gt;Node31 -->
<g id="edge32" class="edge">
<title>Node31&#45;&gt;Node31</title>
<path fill="none" stroke="#9a32cd" stroke-dasharray="5,2" d="M1562.56,-204.93C1565,-208.79 1571.47,-211.5 1582,-211.5 1601.25,-211.5 1606.96,-202.44 1599.14,-193.87"/>
<polygon fill="#9a32cd" stroke="#9a32cd" points="1565.95,-205.85 1564.55,-195.35 1559.09,-204.43 1565.95,-205.85"/>
<text text-anchor="middle" x="1582" y="-269.5" font-family="Roboto" font-size="10.00"> DOWN</text>
<text text-anchor="middle" x="1582" y="-258.5" font-family="Roboto" font-size="10.00">LEFT</text>
<text text-anchor="middle" x="1582" y="-247.5" font-family="Roboto" font-size="10.00">ONE</text>
<text text-anchor="middle" x="1582" y="-236.5" font-family="Roboto" font-size="10.00">RIGHT</text>
<text text-anchor="middle" x="1582" y="-225.5" font-family="Roboto" font-size="10.00">UP</text>
<text text-anchor="middle" x="1582" y="-214.5" font-family="Roboto" font-size="10.00">ZERO</text>
</g>
<!-- Node32&#45;&gt;Node1 -->
<g id="edge33" class="edge">
<title>Node32&#45;&gt;Node1</title>
<path fill="none" stroke="#9a32cd" stroke-dasharray="5,2" d="M1235.85,-105.1C1292.58,-104.57 1369.03,-104 1436.5,-104 1436.5,-104 1436.5,-104 1834,-104 1890.01,-104 1954.45,-104 1996.9,-104"/>
<polygon fill="#9a32cd" stroke="#9a32cd" points="1235.9,-101.6 1225.94,-105.19 1235.97,-108.6 1235.9,-101.6"/>
<text text-anchor="middle" x="1582" y="-107" font-family="Roboto" font-size="10.00"> glyphMapping_</text>
</g>
<!-- Node33&#45;&gt;Node1 -->
<g id="edge35" class="edge">
<title>Node33&#45;&gt;Node1</title>
<path fill="none" stroke="#9a32cd" stroke-dasharray="5,2" d="M1522.73,-62.15C1629.39,-63.31 1818.6,-68.58 1979,-90 1986.61,-91.02 1994.65,-92.46 2002.38,-94.04"/>
<polygon fill="#9a32cd" stroke="#9a32cd" points="1522.95,-58.65 1512.92,-62.06 1522.88,-65.65 1522.95,-58.65"/>
<text text-anchor="middle" x="1691.5" y="-72" font-family="Roboto" font-size="10.00"> kerningMapping_</text>
</g>
<!-- Node34 -->
<g id="node24" class="node">
<title>Node34</title>
<g id="a_node24"><a xlink:href="class_urho3_d_1_1_vector.html" target="_top" xlink:title=" ">
<polygon fill="white" stroke="#666666" points="1918,-30 1748,-30 1748,0 1918,0 1918,-30"/>
<text text-anchor="start" x="1756" y="-18" font-family="Roboto" font-size="10.00">Urho3D::Vector&lt; Urho3D</text>
<text text-anchor="middle" x="1833" y="-7" font-family="Roboto" font-size="10.00">::SharedPtr&lt; Urho3D::Texture2D &gt; &gt;</text>
</a>
</g>
</g>
<!-- Node34&#45;&gt;Node1 -->
<g id="edge37" class="edge">
<title>Node34&#45;&gt;Node1</title>
<path fill="none" stroke="#9a32cd" stroke-dasharray="5,2" d="M1929.53,-17.12C1946.65,-20.17 1963.85,-25.14 1979,-33 2006.5,-47.26 2028.09,-78.28 2037.84,-94.18"/>
<polygon fill="#9a32cd" stroke="#9a32cd" points="1930.22,-13.68 1919.8,-15.6 1929.15,-20.6 1930.22,-13.68"/>
<text text-anchor="middle" x="1957.5" y="-36" font-family="Roboto" font-size="10.00"> textures_</text>
</g>
<!-- Node18 -->
<g id="node25" class="node">
<title>Node18</title>
<g id="a_node25"><a xlink:href="class_urho3_d_1_1_vector_base.html" target="_top" xlink:title="Vector base class.">
<polygon fill="white" stroke="#666666" points="1635,-24.5 1529,-24.5 1529,-5.5 1635,-5.5 1635,-24.5"/>
<text text-anchor="middle" x="1582" y="-12.5" font-family="Roboto" font-size="10.00">Urho3D::VectorBase</text>
</a>
</g>
</g>
<!-- Node18&#45;&gt;Node34 -->
<g id="edge38" class="edge">
<title>Node18&#45;&gt;Node34</title>
<path fill="none" stroke="#63b8ff" d="M1646.61,-15C1677.29,-15 1714.51,-15 1747.53,-15"/>
<polygon fill="#63b8ff" stroke="#63b8ff" points="1646.71,-11.5 1636.71,-15 1646.71,-18.5 1646.71,-11.5"/>
</g>
</g>
</svg>
