<?xml version="1.0" encoding="UTF-8" standalone="no"?>
<!DOCTYPE svg PUBLIC "-//W3C//DTD SVG 1.1//EN"
 "http://www.w3.org/Graphics/SVG/1.1/DTD/svg11.dtd">
<!-- Generated by graphviz version 7.0.3 (0)
 -->
<!-- Title: Urho3D::LineEdit::SetCursorPosition Pages: 1 -->
<svg width="334pt" height="76pt"
 viewBox="0.00 0.00 334.00 75.50" xmlns="http://www.w3.org/2000/svg" xmlns:xlink="http://www.w3.org/1999/xlink">
<g id="graph0" class="graph" transform="scale(1 1) rotate(0) translate(4 71.5)">
<title>Urho3D::LineEdit::SetCursorPosition</title>
<!-- Node1 -->
<g id="node1" class="node">
<title>Node1</title>
<g id="a_node1"><a xlink:title=" ">
<polygon fill="#999999" stroke="#666666" points="326,-45.5 187,-45.5 187,-15.5 326,-15.5 326,-45.5"/>
<text text-anchor="start" x="195" y="-33.5" font-family="Roboto" font-size="10.00">Urho3D::LineEdit::SetCursor</text>
<text text-anchor="middle" x="256.5" y="-22.5" font-family="Roboto" font-size="10.00">Position</text>
</a>
</g>
</g>
<!-- Node2 -->
<g id="node2" class="node">
<title>Node2</title>
<g id="a_node2"><a xlink:href="class_urho3_d_1_1_line_edit.html#ad86bab2fe5985f3a9dc671ba985cf519" target="_top" xlink:title="React to mouse click begin.">
<polygon fill="white" stroke="#666666" points="139.5,-67.5 11.5,-67.5 11.5,-37.5 139.5,-37.5 139.5,-67.5"/>
<text text-anchor="start" x="19.5" y="-55.5" font-family="Roboto" font-size="10.00">Urho3D::LineEdit::OnClick</text>
<text text-anchor="middle" x="75.5" y="-44.5" font-family="Roboto" font-size="10.00">Begin</text>
</a>
</g>
</g>
<!-- Node1&#45;&gt;Node2 -->
<g id="edge1" class="edge">
<title>Node1&#45;&gt;Node2</title>
<path fill="none" stroke="#63b8ff" d="M175.26,-40.36C163.39,-41.82 151.31,-43.31 139.84,-44.71"/>
<polygon fill="#63b8ff" stroke="#63b8ff" points="175.55,-43.85 185.05,-39.16 174.7,-36.91 175.55,-43.85"/>
</g>
<!-- Node3 -->
<g id="node3" class="node">
<title>Node3</title>
<g id="a_node3"><a xlink:href="class_urho3_d_1_1_line_edit.html#aac9214f63279538a940f42dad72cea8e" target="_top" xlink:title="React to mouse drag motion.">
<polygon fill="white" stroke="#666666" points="151,-19 0,-19 0,0 151,0 151,-19"/>
<text text-anchor="middle" x="75.5" y="-7" font-family="Roboto" font-size="10.00">Urho3D::LineEdit::OnDragMove</text>
</a>
</g>
</g>
<!-- Node1&#45;&gt;Node3 -->
<g id="edge2" class="edge">
<title>Node1&#45;&gt;Node3</title>
<path fill="none" stroke="#63b8ff" d="M175.36,-21.1C167.37,-20.16 159.29,-19.21 151.36,-18.28"/>
<polygon fill="#63b8ff" stroke="#63b8ff" points="174.71,-24.55 185.05,-22.23 175.52,-17.59 174.71,-24.55"/>
</g>
</g>
</svg>
