<?xml version="1.0" encoding="UTF-8" standalone="no"?>
<!DOCTYPE svg PUBLIC "-//W3C//DTD SVG 1.1//EN"
 "http://www.w3.org/Graphics/SVG/1.1/DTD/svg11.dtd">
<!-- Generated by graphviz version 7.0.3 (0)
 -->
<!-- Title: Urho3D::Graphics::SetWindowModes Pages: 1 -->
<svg width="694pt" height="38pt"
 viewBox="0.00 0.00 694.00 38.00" xmlns="http://www.w3.org/2000/svg" xmlns:xlink="http://www.w3.org/1999/xlink">
<g id="graph0" class="graph" transform="scale(1 1) rotate(0) translate(4 34)">
<title>Urho3D::Graphics::SetWindowModes</title>
<!-- Node1 -->
<g id="node1" class="node">
<title>Node1</title>
<g id="a_node1"><a xlink:title=" ">
<polygon fill="#999999" stroke="#666666" points="686,-30 538,-30 538,0 686,0 686,-30"/>
<text text-anchor="start" x="546" y="-18" font-family="Roboto" font-size="10.00">Urho3D::Graphics::SetWindow</text>
<text text-anchor="middle" x="612" y="-7" font-family="Roboto" font-size="10.00">Modes</text>
</a>
</g>
</g>
<!-- Node2 -->
<g id="node2" class="node">
<title>Node2</title>
<g id="a_node2"><a xlink:href="class_urho3_d_1_1_graphics.html#a120f99124337d4775a2153c62ec329b1" target="_top" xlink:title="Set default window modes. Return true if successful.">
<polygon fill="white" stroke="#666666" points="502,-30 359,-30 359,0 502,0 502,-30"/>
<text text-anchor="start" x="367" y="-18" font-family="Roboto" font-size="10.00">Urho3D::Graphics::SetDefault</text>
<text text-anchor="middle" x="430.5" y="-7" font-family="Roboto" font-size="10.00">WindowModes</text>
</a>
</g>
</g>
<!-- Node1&#45;&gt;Node2 -->
<g id="edge1" class="edge">
<title>Node1&#45;&gt;Node2</title>
<path fill="none" stroke="#63b8ff" d="M526.37,-15C518.28,-15 510.15,-15 502.21,-15"/>
<polygon fill="#63b8ff" stroke="#63b8ff" points="526.22,-18.5 536.22,-15 526.22,-11.5 526.22,-18.5"/>
</g>
<!-- Node3 -->
<g id="node3" class="node">
<title>Node3</title>
<g id="a_node3"><a xlink:href="class_urho3_d_1_1_graphics.html#aac131622deee0f32dffe86943d704f95" target="_top" xlink:title="Set default window modes. Deprecated. Return true if successful.">
<polygon fill="white" stroke="#666666" points="323,-24.5 185,-24.5 185,-5.5 323,-5.5 323,-24.5"/>
<text text-anchor="middle" x="254" y="-12.5" font-family="Roboto" font-size="10.00">Urho3D::Graphics::SetMode</text>
</a>
</g>
</g>
<!-- Node2&#45;&gt;Node3 -->
<g id="edge2" class="edge">
<title>Node2&#45;&gt;Node3</title>
<path fill="none" stroke="#63b8ff" d="M347.28,-15C339.28,-15 331.22,-15 323.37,-15"/>
<polygon fill="#63b8ff" stroke="#63b8ff" points="347.01,-18.5 357.01,-15 347.01,-11.5 347.01,-18.5"/>
</g>
<!-- Node4 -->
<g id="node4" class="node">
<title>Node4</title>
<g id="a_node4"><a xlink:href="class_urho3_d_1_1_graphics.html#a87d6974090e42a8c0d8ec676ca4da504" target="_top" xlink:title="Begin frame rendering. Return true if device available and can render.">
<polygon fill="white" stroke="#666666" points="149,-24.5 0,-24.5 0,-5.5 149,-5.5 149,-24.5"/>
<text text-anchor="middle" x="74.5" y="-12.5" font-family="Roboto" font-size="10.00">Urho3D::Graphics::BeginFrame</text>
</a>
</g>
</g>
<!-- Node3&#45;&gt;Node4 -->
<g id="edge3" class="edge">
<title>Node3&#45;&gt;Node4</title>
<path fill="none" stroke="#63b8ff" d="M173.16,-15C165.26,-15 157.27,-15 149.44,-15"/>
<polygon fill="#63b8ff" stroke="#63b8ff" points="173.11,-18.5 183.11,-15 173.11,-11.5 173.11,-18.5"/>
</g>
</g>
</svg>
