<?xml version="1.0" encoding="UTF-8" standalone="no"?>
<!DOCTYPE svg PUBLIC "-//W3C//DTD SVG 1.1//EN"
 "http://www.w3.org/Graphics/SVG/1.1/DTD/svg11.dtd">
<!-- Generated by graphviz version 7.0.3 (0)
 -->
<!-- Title: Urho3D::CheckBox Pages: 1 -->
<svg width="121pt" height="357pt"
 viewBox="0.00 0.00 121.00 357.00" xmlns="http://www.w3.org/2000/svg" xmlns:xlink="http://www.w3.org/1999/xlink">
<g id="graph0" class="graph" transform="scale(1 1) rotate(0) translate(4 353)">
<title>Urho3D::CheckBox</title>
<!-- Node1 -->
<g id="node1" class="node">
<title>Node1</title>
<g id="a_node1"><a xlink:title="UI element that can be toggled between unchecked and checked state.">
<polygon fill="#999999" stroke="#666666" points="106,-19 7,-19 7,0 106,0 106,-19"/>
<text text-anchor="middle" x="56.5" y="-7" font-family="Roboto" font-size="10.00">Urho3D::CheckBox</text>
</a>
</g>
</g>
<!-- Node2 -->
<g id="node2" class="node">
<title>Node2</title>
<g id="a_node2"><a xlink:href="class_urho3_d_1_1_border_image.html" target="_top" xlink:title="Image UI element with optional border.">
<polygon fill="white" stroke="#666666" points="113,-74 0,-74 0,-55 113,-55 113,-74"/>
<text text-anchor="middle" x="56.5" y="-62" font-family="Roboto" font-size="10.00">Urho3D::BorderImage</text>
</a>
</g>
</g>
<!-- Node2&#45;&gt;Node1 -->
<g id="edge1" class="edge">
<title>Node2&#45;&gt;Node1</title>
<path fill="none" stroke="#63b8ff" d="M56.5,-43.35C56.5,-35.1 56.5,-25.97 56.5,-19.44"/>
<polygon fill="#63b8ff" stroke="#63b8ff" points="53,-43.23 56.5,-53.23 60,-43.23 53,-43.23"/>
</g>
<!-- Node3 -->
<g id="node3" class="node">
<title>Node3</title>
<g id="a_node3"><a xlink:href="class_urho3_d_1_1_u_i_element.html" target="_top" xlink:title="Base class for UI elements.">
<polygon fill="white" stroke="#666666" points="107,-129 6,-129 6,-110 107,-110 107,-129"/>
<text text-anchor="middle" x="56.5" y="-117" font-family="Roboto" font-size="10.00">Urho3D::UIElement</text>
</a>
</g>
</g>
<!-- Node3&#45;&gt;Node2 -->
<g id="edge2" class="edge">
<title>Node3&#45;&gt;Node2</title>
<path fill="none" stroke="#63b8ff" d="M56.5,-98.35C56.5,-90.1 56.5,-80.97 56.5,-74.44"/>
<polygon fill="#63b8ff" stroke="#63b8ff" points="53,-98.23 56.5,-108.23 60,-98.23 53,-98.23"/>
</g>
<!-- Node4 -->
<g id="node4" class="node">
<title>Node4</title>
<g id="a_node4"><a xlink:href="class_urho3_d_1_1_animatable.html" target="_top" xlink:title="Base class for animatable object, an animatable object can be set animation on it&#39;s attributes,...">
<polygon fill="white" stroke="#666666" points="108.5,-184 4.5,-184 4.5,-165 108.5,-165 108.5,-184"/>
<text text-anchor="middle" x="56.5" y="-172" font-family="Roboto" font-size="10.00">Urho3D::Animatable</text>
</a>
</g>
</g>
<!-- Node4&#45;&gt;Node3 -->
<g id="edge3" class="edge">
<title>Node4&#45;&gt;Node3</title>
<path fill="none" stroke="#63b8ff" d="M56.5,-153.35C56.5,-145.1 56.5,-135.97 56.5,-129.44"/>
<polygon fill="#63b8ff" stroke="#63b8ff" points="53,-153.23 56.5,-163.23 60,-153.23 53,-153.23"/>
</g>
<!-- Node5 -->
<g id="node5" class="node">
<title>Node5</title>
<g id="a_node5"><a xlink:href="class_urho3_d_1_1_serializable.html" target="_top" xlink:title="Base class for objects with automatic serialization through attributes.">
<polygon fill="white" stroke="#666666" points="109,-239 4,-239 4,-220 109,-220 109,-239"/>
<text text-anchor="middle" x="56.5" y="-227" font-family="Roboto" font-size="10.00">Urho3D::Serializable</text>
</a>
</g>
</g>
<!-- Node5&#45;&gt;Node4 -->
<g id="edge4" class="edge">
<title>Node5&#45;&gt;Node4</title>
<path fill="none" stroke="#63b8ff" d="M56.5,-208.35C56.5,-200.1 56.5,-190.97 56.5,-184.44"/>
<polygon fill="#63b8ff" stroke="#63b8ff" points="53,-208.23 56.5,-218.23 60,-208.23 53,-208.23"/>
</g>
<!-- Node6 -->
<g id="node6" class="node">
<title>Node6</title>
<g id="a_node6"><a xlink:href="class_urho3_d_1_1_object.html" target="_top" xlink:title=" ">
<polygon fill="white" stroke="#666666" points="98,-294 15,-294 15,-275 98,-275 98,-294"/>
<text text-anchor="middle" x="56.5" y="-282" font-family="Roboto" font-size="10.00">Urho3D::Object</text>
</a>
</g>
</g>
<!-- Node6&#45;&gt;Node5 -->
<g id="edge5" class="edge">
<title>Node6&#45;&gt;Node5</title>
<path fill="none" stroke="#63b8ff" d="M56.5,-263.35C56.5,-255.1 56.5,-245.97 56.5,-239.44"/>
<polygon fill="#63b8ff" stroke="#63b8ff" points="53,-263.23 56.5,-273.23 60,-263.23 53,-263.23"/>
</g>
<!-- Node7 -->
<g id="node7" class="node">
<title>Node7</title>
<g id="a_node7"><a xlink:href="class_urho3_d_1_1_ref_counted.html" target="_top" xlink:title="Base class for intrusively reference&#45;counted objects. These are noncopyable and non&#45;assignable.">
<polygon fill="white" stroke="#666666" points="110,-349 3,-349 3,-330 110,-330 110,-349"/>
<text text-anchor="middle" x="56.5" y="-337" font-family="Roboto" font-size="10.00">Urho3D::RefCounted</text>
</a>
</g>
</g>
<!-- Node7&#45;&gt;Node6 -->
<g id="edge6" class="edge">
<title>Node7&#45;&gt;Node6</title>
<path fill="none" stroke="#63b8ff" d="M56.5,-318.35C56.5,-310.1 56.5,-300.97 56.5,-294.44"/>
<polygon fill="#63b8ff" stroke="#63b8ff" points="53,-318.23 56.5,-328.23 60,-318.23 53,-318.23"/>
</g>
</g>
</svg>
