<?xml version="1.0" encoding="UTF-8" standalone="no"?>
<!DOCTYPE svg PUBLIC "-//W3C//DTD SVG 1.1//EN"
 "http://www.w3.org/Graphics/SVG/1.1/DTD/svg11.dtd">
<!-- Generated by graphviz version 7.0.3 (0)
 -->
<!-- Title: Urho3D::Light::GetShadowMaxExtrusion Pages: 1 -->
<svg width="669pt" height="76pt"
 viewBox="0.00 0.00 669.00 75.50" xmlns="http://www.w3.org/2000/svg" xmlns:xlink="http://www.w3.org/1999/xlink">
<g id="graph0" class="graph" transform="scale(1 1) rotate(0) translate(4 71.5)">
<title>Urho3D::Light::GetShadowMaxExtrusion</title>
<!-- Node1 -->
<g id="node1" class="node">
<title>Node1</title>
<g id="a_node1"><a xlink:title=" ">
<polygon fill="#999999" stroke="#666666" points="661,-51 530,-51 530,-21 661,-21 661,-51"/>
<text text-anchor="start" x="538" y="-39" font-family="Roboto" font-size="10.00">Urho3D::Light::GetShadow</text>
<text text-anchor="middle" x="595.5" y="-28" font-family="Roboto" font-size="10.00">MaxExtrusion</text>
</a>
</g>
</g>
<!-- Node2 -->
<g id="node2" class="node">
<title>Node2</title>
<g id="a_node2"><a xlink:href="class_urho3_d_1_1_light.html#addf06c14a914ff91a084194c409a7917" target="_top" xlink:title=" ">
<polygon fill="white" stroke="#666666" points="494,-67.5 350,-67.5 350,-48.5 494,-48.5 494,-67.5"/>
<text text-anchor="middle" x="422" y="-55.5" font-family="Roboto" font-size="10.00">Urho3D::Light::RegisterObject</text>
</a>
</g>
</g>
<!-- Node1&#45;&gt;Node2 -->
<g id="edge1" class="edge">
<title>Node1&#45;&gt;Node2</title>
<path fill="none" stroke="#63b8ff" d="M518.41,-45.76C510.37,-46.79 502.22,-47.84 494.24,-48.86"/>
<polygon fill="#63b8ff" stroke="#63b8ff" points="518.69,-49.25 528.16,-44.51 517.8,-42.31 518.69,-49.25"/>
</g>
<!-- Node3 -->
<g id="node3" class="node">
<title>Node3</title>
<g id="a_node3"><a xlink:href="class_urho3_d_1_1_view.html#ad5d5472594f2048969af6ea296e843e5" target="_top" xlink:title="Set up a directional light shadow camera.">
<polygon fill="white" stroke="#666666" points="491.5,-30 352.5,-30 352.5,0 491.5,0 491.5,-30"/>
<text text-anchor="start" x="360.5" y="-18" font-family="Roboto" font-size="10.00">Urho3D::View::SetupDirLight</text>
<text text-anchor="middle" x="422" y="-7" font-family="Roboto" font-size="10.00">ShadowCamera</text>
</a>
</g>
</g>
<!-- Node1&#45;&gt;Node3 -->
<g id="edge2" class="edge">
<title>Node1&#45;&gt;Node3</title>
<path fill="none" stroke="#63b8ff" d="M518.25,-26.66C509.49,-25.59 500.59,-24.5 491.93,-23.44"/>
<polygon fill="#63b8ff" stroke="#63b8ff" points="517.81,-30.14 528.16,-27.88 518.66,-23.19 517.81,-30.14"/>
</g>
<!-- Node4 -->
<g id="node4" class="node">
<title>Node4</title>
<g id="a_node4"><a xlink:href="class_urho3_d_1_1_view.html#a4d3766cb580e7a61b7ce50bc4e9aa926" target="_top" xlink:title="Set up initial shadow camera view(s).">
<polygon fill="white" stroke="#666666" points="314,-30 173,-30 173,0 314,0 314,-30"/>
<text text-anchor="start" x="181" y="-18" font-family="Roboto" font-size="10.00">Urho3D::View::SetupShadow</text>
<text text-anchor="middle" x="243.5" y="-7" font-family="Roboto" font-size="10.00">Cameras</text>
</a>
</g>
</g>
<!-- Node3&#45;&gt;Node4 -->
<g id="edge3" class="edge">
<title>Node3&#45;&gt;Node4</title>
<path fill="none" stroke="#63b8ff" d="M340.57,-15C331.81,-15 322.94,-15 314.32,-15"/>
<polygon fill="#63b8ff" stroke="#63b8ff" points="340.49,-18.5 350.49,-15 340.49,-11.5 340.49,-18.5"/>
</g>
<!-- Node5 -->
<g id="node5" class="node">
<title>Node5</title>
<g id="a_node5"><a xlink:href="class_urho3_d_1_1_view.html#a8386e461553bac5a6b4512b8a9712e79" target="_top" xlink:title="Query for lit geometries and shadow casters for a light.">
<polygon fill="white" stroke="#666666" points="137,-24.5 0,-24.5 0,-5.5 137,-5.5 137,-24.5"/>
<text text-anchor="middle" x="68.5" y="-12.5" font-family="Roboto" font-size="10.00">Urho3D::View::ProcessLight</text>
</a>
</g>
</g>
<!-- Node4&#45;&gt;Node5 -->
<g id="edge4" class="edge">
<title>Node4&#45;&gt;Node5</title>
<path fill="none" stroke="#63b8ff" d="M161.36,-15C153.34,-15 145.25,-15 137.38,-15"/>
<polygon fill="#63b8ff" stroke="#63b8ff" points="161.12,-18.5 171.12,-15 161.12,-11.5 161.12,-18.5"/>
</g>
</g>
</svg>
