<?xml version="1.0" encoding="UTF-8" standalone="no"?>
<!DOCTYPE svg PUBLIC "-//W3C//DTD SVG 1.1//EN"
 "http://www.w3.org/Graphics/SVG/1.1/DTD/svg11.dtd">
<!-- Generated by graphviz version 7.0.3 (0)
 -->
<!-- Title: Urho3D::Drawable2D::RegisterObject Pages: 1 -->
<svg width="783pt" height="200pt"
 viewBox="0.00 0.00 783.00 200.00" xmlns="http://www.w3.org/2000/svg" xmlns:xlink="http://www.w3.org/1999/xlink">
<g id="graph0" class="graph" transform="scale(1 1) rotate(0) translate(4 196)">
<title>Urho3D::Drawable2D::RegisterObject</title>
<!-- Node1 -->
<g id="node1" class="node">
<title>Node1</title>
<g id="a_node1"><a xlink:title=" ">
<polygon fill="#999999" stroke="#666666" points="107,-120 0,-120 0,-90 107,-90 107,-120"/>
<text text-anchor="start" x="8" y="-108" font-family="Roboto" font-size="10.00">Urho3D::Drawable2D</text>
<text text-anchor="middle" x="53.5" y="-97" font-family="Roboto" font-size="10.00">::RegisterObject</text>
</a>
</g>
</g>
<!-- Node2 -->
<g id="node2" class="node">
<title>Node2</title>
<g id="a_node2"><a xlink:href="class_urho3_d_1_1_drawable2_d.html#a3cd65e5b5437ca81d151f7e873aa2a92" target="_top" xlink:title=" ">
<polygon fill="white" stroke="#666666" points="250,-192 143,-192 143,-162 250,-162 250,-192"/>
<text text-anchor="start" x="151" y="-180" font-family="Roboto" font-size="10.00">Urho3D::Drawable2D</text>
<text text-anchor="middle" x="196.5" y="-169" font-family="Roboto" font-size="10.00">::GetLayer</text>
</a>
</g>
</g>
<!-- Node1&#45;&gt;Node2 -->
<g id="edge1" class="edge">
<title>Node1&#45;&gt;Node2</title>
<path fill="none" stroke="#63b8ff" d="M81.75,-120.41C99.12,-130.07 122.2,-142.62 143,-153 145.51,-154.25 148.1,-155.52 150.72,-156.78"/>
<polygon fill="#63b8ff" stroke="#63b8ff" points="148.98,-159.83 159.52,-160.94 151.97,-153.5 148.98,-159.83"/>
</g>
<!-- Node3 -->
<g id="node3" class="node">
<title>Node3</title>
<g id="a_node3"><a xlink:href="class_urho3_d_1_1_drawable2_d.html#aab7f03e7cf4d53ed4ff44ae69e124057" target="_top" xlink:title=" ">
<polygon fill="white" stroke="#666666" points="250,-144 143,-144 143,-114 250,-114 250,-144"/>
<text text-anchor="start" x="151" y="-132" font-family="Roboto" font-size="10.00">Urho3D::Drawable2D</text>
<text text-anchor="middle" x="196.5" y="-121" font-family="Roboto" font-size="10.00">::GetOrderInLayer</text>
</a>
</g>
</g>
<!-- Node1&#45;&gt;Node3 -->
<g id="edge2" class="edge">
<title>Node1&#45;&gt;Node3</title>
<path fill="none" stroke="#63b8ff" d="M107.4,-114C115.27,-115.34 123.44,-116.73 131.5,-118.11"/>
<polygon fill="#63b8ff" stroke="#63b8ff" points="130.83,-121.54 141.28,-119.77 132.01,-114.64 130.83,-121.54"/>
</g>
<!-- Node4 -->
<g id="node4" class="node">
<title>Node4</title>
<g id="a_node4"><a xlink:href="class_urho3_d_1_1_drawable2_d.html#ac9f626566fe697b52a9a480124a9d17b" target="_top" xlink:title=" ">
<polygon fill="white" stroke="#666666" points="250,-96 143,-96 143,-66 250,-66 250,-96"/>
<text text-anchor="start" x="151" y="-84" font-family="Roboto" font-size="10.00">Urho3D::Drawable2D</text>
<text text-anchor="middle" x="196.5" y="-73" font-family="Roboto" font-size="10.00">::SetLayer</text>
</a>
</g>
</g>
<!-- Node1&#45;&gt;Node4 -->
<g id="edge3" class="edge">
<title>Node1&#45;&gt;Node4</title>
<path fill="none" stroke="#63b8ff" d="M107.4,-96C115.27,-94.66 123.44,-93.27 131.5,-91.89"/>
<polygon fill="#63b8ff" stroke="#63b8ff" points="132.01,-95.36 141.28,-90.23 130.83,-88.46 132.01,-95.36"/>
</g>
<!-- Node12 -->
<g id="node12" class="node">
<title>Node12</title>
<g id="a_node12"><a xlink:href="class_urho3_d_1_1_drawable2_d.html#a69a05d67eda14a449c2b793f520d9d5b" target="_top" xlink:title=" ">
<polygon fill="white" stroke="#666666" points="250,-48 143,-48 143,-18 250,-18 250,-48"/>
<text text-anchor="start" x="151" y="-36" font-family="Roboto" font-size="10.00">Urho3D::Drawable2D</text>
<text text-anchor="middle" x="196.5" y="-25" font-family="Roboto" font-size="10.00">::SetOrderInLayer</text>
</a>
</g>
</g>
<!-- Node1&#45;&gt;Node12 -->
<g id="edge12" class="edge">
<title>Node1&#45;&gt;Node12</title>
<path fill="none" stroke="#63b8ff" d="M81.75,-89.59C99.12,-79.93 122.2,-67.38 143,-57 145.51,-55.75 148.1,-54.48 150.72,-53.22"/>
<polygon fill="#63b8ff" stroke="#63b8ff" points="151.97,-56.5 159.52,-49.06 148.98,-50.17 151.97,-56.5"/>
</g>
<!-- Node5 -->
<g id="node5" class="node">
<title>Node5</title>
<g id="a_node5"><a xlink:href="class_urho3_d_1_1_component.html#aaf87acb64001774c62f0784254f9b291" target="_top" xlink:title="Mark for attribute check on the next network update.">
<polygon fill="white" stroke="#666666" points="401,-96 290,-96 290,-66 401,-66 401,-96"/>
<text text-anchor="start" x="298" y="-84" font-family="Roboto" font-size="10.00">Urho3D::Component::</text>
<text text-anchor="middle" x="345.5" y="-73" font-family="Roboto" font-size="10.00">MarkNetworkUpdate</text>
</a>
</g>
</g>
<!-- Node4&#45;&gt;Node5 -->
<g id="edge4" class="edge">
<title>Node4&#45;&gt;Node5</title>
<path fill="none" stroke="#63b8ff" d="M250.16,-81C259.29,-81 268.9,-81 278.34,-81"/>
<polygon fill="#63b8ff" stroke="#63b8ff" points="278.22,-84.5 288.22,-81 278.22,-77.5 278.22,-84.5"/>
</g>
<!-- Node11 -->
<g id="node11" class="node">
<title>Node11</title>
<g id="a_node11"><a xlink:href="class_urho3_d_1_1_drawable2_d.html#a8decb5bbd0d13df6c899fca31ca9f2ad" target="_top" xlink:title="Handle draw order changed.">
<polygon fill="white" stroke="#666666" points="405,-48 286,-48 286,-18 405,-18 405,-48"/>
<text text-anchor="start" x="294" y="-36" font-family="Roboto" font-size="10.00">Urho3D::Drawable2D</text>
<text text-anchor="middle" x="345.5" y="-25" font-family="Roboto" font-size="10.00">::OnDrawOrderChanged</text>
</a>
</g>
</g>
<!-- Node4&#45;&gt;Node11 -->
<g id="edge11" class="edge">
<title>Node4&#45;&gt;Node11</title>
<path fill="none" stroke="#63b8ff" d="M244.82,-65.55C258.07,-61.22 272.62,-56.47 286.41,-51.97"/>
<polygon fill="#63b8ff" stroke="#63b8ff" points="287.41,-55.32 295.83,-48.89 285.24,-48.67 287.41,-55.32"/>
</g>
<!-- Node6 -->
<g id="node6" class="node">
<title>Node6</title>
<g id="a_node6"><a xlink:href="class_urho3_d_1_1_component.html#a2c22f727341671a0420934f249ffe059" target="_top" xlink:title="Return the scene the node belongs to.">
<polygon fill="white" stroke="#666666" points="570.5,-144 459.5,-144 459.5,-114 570.5,-114 570.5,-144"/>
<text text-anchor="start" x="467.5" y="-132" font-family="Roboto" font-size="10.00">Urho3D::Component::</text>
<text text-anchor="middle" x="515" y="-121" font-family="Roboto" font-size="10.00">GetScene</text>
</a>
</g>
</g>
<!-- Node5&#45;&gt;Node6 -->
<g id="edge5" class="edge">
<title>Node5&#45;&gt;Node6</title>
<path fill="none" stroke="#63b8ff" d="M400.42,-96.45C415.96,-100.91 433.08,-105.81 449.21,-110.43"/>
<polygon fill="#63b8ff" stroke="#63b8ff" points="448.15,-113.77 458.73,-113.16 450.08,-107.04 448.15,-113.77"/>
</g>
<!-- Node8 -->
<g id="node8" class="node">
<title>Node8</title>
<g id="a_node8"><a xlink:href="class_urho3_d_1_1_component.html#a8f1388c232ca01b7c7328c761aae6e76" target="_top" xlink:title=" ">
<polygon fill="white" stroke="#666666" points="570.5,-96 459.5,-96 459.5,-66 570.5,-66 570.5,-96"/>
<text text-anchor="start" x="467.5" y="-84" font-family="Roboto" font-size="10.00">Urho3D::Component::</text>
<text text-anchor="middle" x="515" y="-73" font-family="Roboto" font-size="10.00">IsReplicated</text>
</a>
</g>
</g>
<!-- Node5&#45;&gt;Node8 -->
<g id="edge7" class="edge">
<title>Node5&#45;&gt;Node8</title>
<path fill="none" stroke="#63b8ff" d="M401.35,-81C416.24,-81 432.52,-81 447.97,-81"/>
<polygon fill="#63b8ff" stroke="#63b8ff" points="447.52,-84.5 457.52,-81 447.52,-77.5 447.52,-84.5"/>
</g>
<!-- Node10 -->
<g id="node10" class="node">
<title>Node10</title>
<g id="a_node10"><a xlink:href="class_urho3_d_1_1_scene.html#a00b724dfff718639b9de12d71139499c" target="_top" xlink:title="Mark for attribute check on the next network update.">
<polygon fill="white" stroke="#666666" points="589,-30 441,-30 441,0 589,0 589,-30"/>
<text text-anchor="start" x="449" y="-18" font-family="Roboto" font-size="10.00">Urho3D::Scene::MarkNetwork</text>
<text text-anchor="middle" x="515" y="-7" font-family="Roboto" font-size="10.00">Update</text>
</a>
</g>
</g>
<!-- Node5&#45;&gt;Node10 -->
<g id="edge9" class="edge">
<title>Node5&#45;&gt;Node10</title>
<path fill="none" stroke="#63b8ff" d="M385.77,-65.53C409.21,-56.29 439.19,-44.48 464.27,-34.6"/>
<polygon fill="#63b8ff" stroke="#63b8ff" points="465.26,-37.97 473.28,-31.05 462.69,-31.46 465.26,-37.97"/>
</g>
<!-- Node7 -->
<g id="node7" class="node">
<title>Node7</title>
<g id="a_node7"><a xlink:href="class_urho3_d_1_1_node.html#ad3742cda838a2b291daa44d3ab00de56" target="_top" xlink:title=" ">
<polygon fill="white" stroke="#666666" points="763,-138.5 637,-138.5 637,-119.5 763,-119.5 763,-138.5"/>
<text text-anchor="middle" x="700" y="-126.5" font-family="Roboto" font-size="10.00">Urho3D::Node::GetScene</text>
</a>
</g>
</g>
<!-- Node6&#45;&gt;Node7 -->
<g id="edge6" class="edge">
<title>Node6&#45;&gt;Node7</title>
<path fill="none" stroke="#63b8ff" d="M570.91,-129C588,-129 607.14,-129 625.3,-129"/>
<polygon fill="#63b8ff" stroke="#63b8ff" points="625.24,-132.5 635.24,-129 625.24,-125.5 625.24,-132.5"/>
</g>
<!-- Node9 -->
<g id="node9" class="node">
<title>Node9</title>
<g id="a_node9"><a xlink:href="class_urho3_d_1_1_scene.html#a97fb1222bd2f38e6c1c433c0b7e54d40" target="_top" xlink:title="Return whether the specified id is a replicated id.">
<polygon fill="white" stroke="#666666" points="775,-90.5 625,-90.5 625,-71.5 775,-71.5 775,-90.5"/>
<text text-anchor="middle" x="700" y="-78.5" font-family="Roboto" font-size="10.00">Urho3D::Scene::IsReplicatedID</text>
</a>
</g>
</g>
<!-- Node8&#45;&gt;Node9 -->
<g id="edge8" class="edge">
<title>Node8&#45;&gt;Node9</title>
<path fill="none" stroke="#63b8ff" d="M570.91,-81C584.2,-81 598.72,-81 613.07,-81"/>
<polygon fill="#63b8ff" stroke="#63b8ff" points="612.99,-84.5 622.99,-81 612.99,-77.5 612.99,-84.5"/>
</g>
<!-- Node10&#45;&gt;Node10 -->
<g id="edge10" class="edge">
<title>Node10&#45;&gt;Node10</title>
<path fill="none" stroke="#63b8ff" d="M485.21,-30.28C478.58,-39.41 488.52,-48 515,-48 529.48,-48 539.02,-45.43 543.6,-41.61"/>
<polygon fill="#63b8ff" stroke="#63b8ff" points="547.07,-42.09 544.64,-31.78 540.11,-41.36 547.07,-42.09"/>
</g>
<!-- Node12&#45;&gt;Node5 -->
<g id="edge13" class="edge">
<title>Node12&#45;&gt;Node5</title>
<path fill="none" stroke="#63b8ff" d="M244.82,-48.45C258.07,-52.78 272.62,-57.53 286.41,-62.03"/>
<polygon fill="#63b8ff" stroke="#63b8ff" points="285.24,-65.33 295.83,-65.11 287.41,-58.68 285.24,-65.33"/>
</g>
<!-- Node12&#45;&gt;Node11 -->
<g id="edge14" class="edge">
<title>Node12&#45;&gt;Node11</title>
<path fill="none" stroke="#63b8ff" d="M250.16,-33C257.99,-33 266.18,-33 274.31,-33"/>
<polygon fill="#63b8ff" stroke="#63b8ff" points="274.21,-36.5 284.21,-33 274.21,-29.5 274.21,-36.5"/>
</g>
</g>
</svg>
