<?xml version="1.0" encoding="UTF-8" standalone="no"?>
<!DOCTYPE svg PUBLIC "-//W3C//DTD SVG 1.1//EN"
 "http://www.w3.org/Graphics/SVG/1.1/DTD/svg11.dtd">
<!-- Generated by graphviz version 7.0.3 (0)
 -->
<!-- Title: Urho3D::Text3D::SetOpacity Pages: 1 -->
<svg width="666pt" height="858pt"
 viewBox="0.00 0.00 666.00 857.50" xmlns="http://www.w3.org/2000/svg" xmlns:xlink="http://www.w3.org/1999/xlink">
<g id="graph0" class="graph" transform="scale(1 1) rotate(0) translate(4 853.5)">
<title>Urho3D::Text3D::SetOpacity</title>
<!-- Node1 -->
<g id="node1" class="node">
<title>Node1</title>
<g id="a_node1"><a xlink:title=" ">
<polygon fill="#999999" stroke="#666666" points="137,-706 0,-706 0,-687 137,-687 137,-706"/>
<text text-anchor="middle" x="68.5" y="-694" font-family="Roboto" font-size="10.00">Urho3D::Text3D::SetOpacity</text>
</a>
</g>
</g>
<!-- Node2 -->
<g id="node2" class="node">
<title>Node2</title>
<g id="a_node2"><a xlink:href="class_urho3_d_1_1_u_i_element.html#a0a3a4469ab66dd6ae94c7b973645e988" target="_top" xlink:title=" ">
<polygon fill="white" stroke="#666666" points="295.5,-835.5 190.5,-835.5 190.5,-805.5 295.5,-805.5 295.5,-835.5"/>
<text text-anchor="start" x="198.5" y="-823.5" font-family="Roboto" font-size="10.00">Urho3D::UIElement::</text>
<text text-anchor="middle" x="243" y="-812.5" font-family="Roboto" font-size="10.00">GetOpacity</text>
</a>
</g>
</g>
<!-- Node1&#45;&gt;Node2 -->
<g id="edge1" class="edge">
<title>Node1&#45;&gt;Node2</title>
<path fill="none" stroke="#63b8ff" d="M77.26,-706.48C93.17,-726.31 131.5,-770.97 173,-796.5 175.28,-797.9 177.65,-799.24 180.08,-800.5"/>
<polygon fill="#63b8ff" stroke="#63b8ff" points="178.45,-803.6 188.99,-804.7 181.44,-797.27 178.45,-803.6"/>
</g>
<!-- Node3 -->
<g id="node3" class="node">
<title>Node3</title>
<g id="a_node3"><a xlink:href="class_urho3_d_1_1_text3_d.html#ad44e2ab1dccca583ae229245729a5d19" target="_top" xlink:title="Mark text &amp; geometry dirty.">
<polygon fill="white" stroke="#666666" points="309,-787.5 177,-787.5 177,-757.5 309,-757.5 309,-787.5"/>
<text text-anchor="start" x="185" y="-775.5" font-family="Roboto" font-size="10.00">Urho3D::Text3D::MarkText</text>
<text text-anchor="middle" x="243" y="-764.5" font-family="Roboto" font-size="10.00">Dirty</text>
</a>
</g>
</g>
<!-- Node1&#45;&gt;Node3 -->
<g id="edge2" class="edge">
<title>Node1&#45;&gt;Node3</title>
<path fill="none" stroke="#63b8ff" d="M92.05,-706.44C118.42,-718.05 162.74,-737.58 196.38,-752.4"/>
<polygon fill="#63b8ff" stroke="#63b8ff" points="194.94,-755.59 205.5,-756.42 197.76,-749.18 194.94,-755.59"/>
</g>
<!-- Node14 -->
<g id="node6" class="node">
<title>Node14</title>
<g id="a_node6"><a xlink:href="class_urho3_d_1_1_u_i_element.html#acb12fd935aeb47151ff272434c594060" target="_top" xlink:title=" ">
<polygon fill="white" stroke="#666666" points="295.5,-711.5 190.5,-711.5 190.5,-681.5 295.5,-681.5 295.5,-711.5"/>
<text text-anchor="start" x="198.5" y="-699.5" font-family="Roboto" font-size="10.00">Urho3D::UIElement::</text>
<text text-anchor="middle" x="243" y="-688.5" font-family="Roboto" font-size="10.00">SetOpacity</text>
</a>
</g>
</g>
<!-- Node1&#45;&gt;Node14 -->
<g id="edge5" class="edge">
<title>Node1&#45;&gt;Node14</title>
<path fill="none" stroke="#63b8ff" d="M137.18,-696.5C150.97,-696.5 165.43,-696.5 179.04,-696.5"/>
<polygon fill="#63b8ff" stroke="#63b8ff" points="178.74,-700 188.74,-696.5 178.74,-693 178.74,-700"/>
</g>
<!-- Node17 -->
<g id="node9" class="node">
<title>Node17</title>
<g id="a_node9"><a xlink:href="class_urho3_d_1_1_text3_d.html#a1f643feab9477ca50a084501df1a8e3b" target="_top" xlink:title="Update text UI batches.">
<polygon fill="white" stroke="#666666" points="313,-472.5 173,-472.5 173,-442.5 313,-442.5 313,-472.5"/>
<text text-anchor="start" x="181" y="-460.5" font-family="Roboto" font-size="10.00">Urho3D::Text3D::UpdateText</text>
<text text-anchor="middle" x="243" y="-449.5" font-family="Roboto" font-size="10.00">Batches</text>
</a>
</g>
</g>
<!-- Node1&#45;&gt;Node17 -->
<g id="edge9" class="edge">
<title>Node1&#45;&gt;Node17</title>
<path fill="none" stroke="#63b8ff" d="M76.69,-686.53C101.97,-651.51 187.22,-533.4 224.4,-481.88"/>
<polygon fill="#63b8ff" stroke="#63b8ff" points="227.07,-484.17 230.08,-474.01 221.39,-480.07 227.07,-484.17"/>
</g>
<!-- Node75 -->
<g id="node20" class="node">
<title>Node75</title>
<g id="a_node20"><a xlink:href="class_urho3_d_1_1_text3_d.html#a63bf86fc02caa281fb5fc8a54356abfb" target="_top" xlink:title="Create materials for text rendering. May only be called from the main thread. Text UI batches must be...">
<polygon fill="#fff0f0" stroke="red" points="313,-120.5 173,-120.5 173,-90.5 313,-90.5 313,-120.5"/>
<text text-anchor="start" x="181" y="-108.5" font-family="Roboto" font-size="10.00">Urho3D::Text3D::UpdateText</text>
<text text-anchor="middle" x="243" y="-97.5" font-family="Roboto" font-size="10.00">Materials</text>
</a>
</g>
</g>
<!-- Node1&#45;&gt;Node75 -->
<g id="edge21" class="edge">
<title>Node1&#45;&gt;Node75</title>
<path fill="none" stroke="#63b8ff" d="M72.35,-686.74C91.69,-620.48 203.82,-236.32 234.33,-131.77"/>
<polygon fill="#63b8ff" stroke="#63b8ff" points="237.62,-132.99 237.06,-122.41 230.9,-131.03 237.62,-132.99"/>
</g>
<!-- Node4 -->
<g id="node4" class="node">
<title>Node4</title>
<g id="a_node4"><a xlink:href="class_urho3_d_1_1_component.html#aaf87acb64001774c62f0784254f9b291" target="_top" xlink:title="Mark for attribute check on the next network update.">
<polygon fill="#fff0f0" stroke="red" points="477.5,-849.5 366.5,-849.5 366.5,-819.5 477.5,-819.5 477.5,-849.5"/>
<text text-anchor="start" x="374.5" y="-837.5" font-family="Roboto" font-size="10.00">Urho3D::Component::</text>
<text text-anchor="middle" x="422" y="-826.5" font-family="Roboto" font-size="10.00">MarkNetworkUpdate</text>
</a>
</g>
</g>
<!-- Node3&#45;&gt;Node4 -->
<g id="edge3" class="edge">
<title>Node3&#45;&gt;Node4</title>
<path fill="none" stroke="#63b8ff" d="M288.99,-787.89C297.01,-790.7 305.26,-793.65 313,-796.5 329.11,-802.43 332.85,-804.67 349,-810.5 353.46,-812.11 358.09,-813.74 362.76,-815.36"/>
<polygon fill="#63b8ff" stroke="#63b8ff" points="361.61,-818.66 372.2,-818.59 363.88,-812.04 361.61,-818.66"/>
</g>
<!-- Node10 -->
<g id="node5" class="node">
<title>Node10</title>
<g id="a_node5"><a xlink:href="class_urho3_d_1_1_drawable.html#a04a978441415a93f044721f6473df0e3" target="_top" xlink:title="Handle node transform being dirtied.">
<polygon fill="#fff0f0" stroke="red" points="495,-801.5 349,-801.5 349,-771.5 495,-771.5 495,-801.5"/>
<text text-anchor="start" x="357" y="-789.5" font-family="Roboto" font-size="10.00">Urho3D::Drawable::OnMarked</text>
<text text-anchor="middle" x="422" y="-778.5" font-family="Roboto" font-size="10.00">Dirty</text>
</a>
</g>
</g>
<!-- Node3&#45;&gt;Node10 -->
<g id="edge4" class="edge">
<title>Node3&#45;&gt;Node10</title>
<path fill="none" stroke="#63b8ff" d="M309.41,-777.67C318.51,-778.39 327.96,-779.14 337.34,-779.88"/>
<polygon fill="#63b8ff" stroke="#63b8ff" points="336.96,-783.36 347.21,-780.66 337.51,-776.39 336.96,-783.36"/>
</g>
<!-- Node15 -->
<g id="node7" class="node">
<title>Node15</title>
<g id="a_node7"><a xlink:href="_math_defs_8h.html#a937fef228b452d2488ce13d78f0bd810" target="_top" xlink:title=" ">
<polygon fill="white" stroke="#666666" points="463.5,-735 380.5,-735 380.5,-716 463.5,-716 463.5,-735"/>
<text text-anchor="middle" x="422" y="-723" font-family="Roboto" font-size="10.00">Urho3D::Clamp</text>
</a>
</g>
</g>
<!-- Node14&#45;&gt;Node15 -->
<g id="edge6" class="edge">
<title>Node14&#45;&gt;Node15</title>
<path fill="none" stroke="#63b8ff" d="M295.67,-704.97C318.72,-708.74 345.82,-713.18 368.91,-716.97"/>
<polygon fill="#63b8ff" stroke="#63b8ff" points="368.3,-720.41 378.74,-718.58 369.44,-713.51 368.3,-720.41"/>
</g>
<!-- Node16 -->
<g id="node8" class="node">
<title>Node16</title>
<g id="a_node8"><a xlink:href="class_urho3_d_1_1_u_i_element.html#ad18ecc5e79b04d47079bdc979eed8240" target="_top" xlink:title="Mark screen position as needing an update.">
<polygon fill="white" stroke="#666666" points="474.5,-697.5 369.5,-697.5 369.5,-667.5 474.5,-667.5 474.5,-697.5"/>
<text text-anchor="start" x="377.5" y="-685.5" font-family="Roboto" font-size="10.00">Urho3D::UIElement::</text>
<text text-anchor="middle" x="422" y="-674.5" font-family="Roboto" font-size="10.00">MarkDirty</text>
</a>
</g>
</g>
<!-- Node14&#45;&gt;Node16 -->
<g id="edge8" class="edge">
<title>Node14&#45;&gt;Node16</title>
<path fill="none" stroke="#63b8ff" d="M295.67,-692.41C315.12,-690.87 337.47,-689.11 357.85,-687.49"/>
<polygon fill="#63b8ff" stroke="#63b8ff" points="358.06,-690.99 367.76,-686.71 357.51,-684.01 358.06,-690.99"/>
</g>
<!-- Node15&#45;&gt;Node15 -->
<g id="edge7" class="edge">
<title>Node15&#45;&gt;Node15</title>
<path fill="none" stroke="#63b8ff" d="M394.99,-735.37C382.68,-743.94 391.68,-753 422,-753 439.06,-753 449.37,-750.13 452.93,-746.1"/>
<polygon fill="#63b8ff" stroke="#63b8ff" points="456.25,-744.98 449.53,-736.79 449.67,-747.38 456.25,-744.98"/>
</g>
<!-- Node18 -->
<g id="node10" class="node">
<title>Node18</title>
<g id="a_node10"><a xlink:href="class_urho3_d_1_1_p_o_d_vector.html#a56e61cb5b8216360fd62b20eb78b5faf" target="_top" xlink:title="Clear the vector.">
<polygon fill="#fff0f0" stroke="red" points="476,-649.5 368,-649.5 368,-619.5 476,-619.5 476,-649.5"/>
<text text-anchor="start" x="376" y="-637.5" font-family="Roboto" font-size="10.00">Urho3D::PODVector::</text>
<text text-anchor="middle" x="422" y="-626.5" font-family="Roboto" font-size="10.00">Clear</text>
</a>
</g>
</g>
<!-- Node17&#45;&gt;Node18 -->
<g id="edge10" class="edge">
<title>Node17&#45;&gt;Node18</title>
<path fill="none" stroke="#63b8ff" d="M250.5,-472.98C264.16,-503.72 298.82,-572.7 349,-610.5 351.61,-612.47 354.4,-614.28 357.3,-615.95"/>
<polygon fill="#63b8ff" stroke="#63b8ff" points="355.64,-619.04 366.15,-620.41 358.79,-612.78 355.64,-619.04"/>
</g>
<!-- Node22 -->
<g id="node11" class="node">
<title>Node22</title>
<g id="a_node11"><a xlink:href="class_urho3_d_1_1_bounding_box.html#afef3c1bfa3910387adb4f5992371a8dd" target="_top" xlink:title="Clear to undefined state.">
<polygon fill="white" stroke="#666666" points="478.5,-601.5 365.5,-601.5 365.5,-571.5 478.5,-571.5 478.5,-601.5"/>
<text text-anchor="start" x="373.5" y="-589.5" font-family="Roboto" font-size="10.00">Urho3D::BoundingBox</text>
<text text-anchor="middle" x="422" y="-578.5" font-family="Roboto" font-size="10.00">::Clear</text>
</a>
</g>
</g>
<!-- Node17&#45;&gt;Node22 -->
<g id="edge11" class="edge">
<title>Node17&#45;&gt;Node22</title>
<path fill="none" stroke="#63b8ff" d="M255.54,-472.94C273.25,-495.64 309.31,-537.97 349,-562.5 351.14,-563.82 353.36,-565.08 355.64,-566.28"/>
<polygon fill="#63b8ff" stroke="#63b8ff" points="354.02,-569.38 364.55,-570.49 357.01,-563.05 354.02,-569.38"/>
</g>
<!-- Node23 -->
<g id="node12" class="node">
<title>Node23</title>
<g id="a_node12"><a xlink:href="class_urho3_d_1_1_bounding_box.html#afd34713236804d7207ce7fd709e99db9" target="_top" xlink:title="Define from another bounding box.">
<polygon fill="white" stroke="#666666" points="478.5,-553.5 365.5,-553.5 365.5,-523.5 478.5,-523.5 478.5,-553.5"/>
<text text-anchor="start" x="373.5" y="-541.5" font-family="Roboto" font-size="10.00">Urho3D::BoundingBox</text>
<text text-anchor="middle" x="422" y="-530.5" font-family="Roboto" font-size="10.00">::Define</text>
</a>
</g>
</g>
<!-- Node17&#45;&gt;Node23 -->
<g id="edge12" class="edge">
<title>Node17&#45;&gt;Node23</title>
<path fill="none" stroke="#63b8ff" d="M269.26,-472.85C290.15,-485.14 320.84,-502.28 349,-514.5 352.72,-516.12 356.59,-517.69 360.52,-519.21"/>
<polygon fill="#63b8ff" stroke="#63b8ff" points="358.98,-522.37 369.57,-522.57 361.42,-515.81 358.98,-522.37"/>
</g>
<!-- Node24 -->
<g id="node13" class="node">
<title>Node24</title>
<g id="a_node13"><a xlink:href="class_urho3_d_1_1_text.html#ad553fd06643ea9dbbf0c18cbee39d9f0" target="_top" xlink:title="Return UI rendering batches.">
<polygon fill="#fff0f0" stroke="red" points="486,-505 358,-505 358,-486 486,-486 486,-505"/>
<text text-anchor="middle" x="422" y="-493" font-family="Roboto" font-size="10.00">Urho3D::Text::GetBatches</text>
</a>
</g>
</g>
<!-- Node17&#45;&gt;Node24 -->
<g id="edge13" class="edge">
<title>Node17&#45;&gt;Node24</title>
<path fill="none" stroke="#63b8ff" d="M313.45,-472.41C330.13,-475.99 347.76,-479.78 363.81,-483.22"/>
<polygon fill="#63b8ff" stroke="#63b8ff" points="362.65,-486.55 373.16,-485.23 364.12,-479.71 362.65,-486.55"/>
</g>
<!-- Node40 -->
<g id="node14" class="node">
<title>Node40</title>
<g id="a_node14"><a xlink:href="class_urho3_d_1_1_p_o_d_vector.html#ab1ba347a0118ed7d9ef79f3026153c88" target="_top" xlink:title="Return number of elements.">
<polygon fill="white" stroke="#666666" points="658,-486 531,-486 531,-467 658,-467 658,-486"/>
<text text-anchor="middle" x="594.5" y="-474" font-family="Roboto" font-size="10.00">Urho3D::PODVector::Size</text>
</a>
</g>
</g>
<!-- Node17&#45;&gt;Node40 -->
<g id="edge20" class="edge">
<title>Node17&#45;&gt;Node40</title>
<path fill="none" stroke="#63b8ff" d="M313.47,-461.28C372.94,-464.51 458.35,-469.15 519.18,-472.46"/>
<polygon fill="#63b8ff" stroke="#63b8ff" points="518.93,-475.95 529.11,-473 519.31,-468.96 518.93,-475.95"/>
</g>
<!-- Node48 -->
<g id="node15" class="node">
<title>Node48</title>
<g id="a_node15"><a xlink:href="class_urho3_d_1_1_u_i_element.html#a74426efba577c8b92f7b49c307d7a446" target="_top" xlink:title=" ">
<polygon fill="white" stroke="#666666" points="474.5,-429.5 369.5,-429.5 369.5,-399.5 474.5,-399.5 474.5,-429.5"/>
<text text-anchor="start" x="377.5" y="-417.5" font-family="Roboto" font-size="10.00">Urho3D::UIElement::</text>
<text text-anchor="middle" x="422" y="-406.5" font-family="Roboto" font-size="10.00">GetHeight</text>
</a>
</g>
</g>
<!-- Node17&#45;&gt;Node48 -->
<g id="edge15" class="edge">
<title>Node17&#45;&gt;Node48</title>
<path fill="none" stroke="#63b8ff" d="M307.4,-442.1C323.84,-438.1 341.54,-433.8 357.97,-429.81"/>
<polygon fill="#63b8ff" stroke="#63b8ff" points="358.74,-433.23 367.63,-427.47 357.09,-426.43 358.74,-433.23"/>
</g>
<!-- Node72 -->
<g id="node16" class="node">
<title>Node72</title>
<g id="a_node16"><a xlink:href="class_urho3_d_1_1_u_i_element.html#abd9eb79eba9f209d93cb101eb21c4574" target="_top" xlink:title=" ">
<polygon fill="white" stroke="#666666" points="483,-381.5 361,-381.5 361,-351.5 483,-351.5 483,-381.5"/>
<text text-anchor="start" x="369" y="-369.5" font-family="Roboto" font-size="10.00">Urho3D::UIElement::</text>
<text text-anchor="middle" x="422" y="-358.5" font-family="Roboto" font-size="10.00">GetHorizontalAlignment</text>
</a>
</g>
</g>
<!-- Node17&#45;&gt;Node72 -->
<g id="edge16" class="edge">
<title>Node17&#45;&gt;Node72</title>
<path fill="none" stroke="#63b8ff" d="M264.82,-442.03C285.39,-427.28 318.16,-405.2 349,-390.5 352.27,-388.94 355.67,-387.44 359.13,-386"/>
<polygon fill="#63b8ff" stroke="#63b8ff" points="360.2,-389.34 368.23,-382.44 357.64,-382.83 360.2,-389.34"/>
</g>
<!-- Node73 -->
<g id="node17" class="node">
<title>Node73</title>
<g id="a_node17"><a xlink:href="class_urho3_d_1_1_u_i_element.html#a81a39a64719e35a717960bd631275827" target="_top" xlink:title=" ">
<polygon fill="white" stroke="#666666" points="476.5,-333.5 367.5,-333.5 367.5,-303.5 476.5,-303.5 476.5,-333.5"/>
<text text-anchor="start" x="375.5" y="-321.5" font-family="Roboto" font-size="10.00">Urho3D::UIElement::</text>
<text text-anchor="middle" x="422" y="-310.5" font-family="Roboto" font-size="10.00">GetVerticalAlignment</text>
</a>
</g>
</g>
<!-- Node17&#45;&gt;Node73 -->
<g id="edge17" class="edge">
<title>Node17&#45;&gt;Node73</title>
<path fill="none" stroke="#63b8ff" d="M254.07,-442.16C270.9,-417.67 307.06,-369.75 349,-342.5 351.55,-340.84 354.23,-339.29 356.99,-337.83"/>
<polygon fill="#63b8ff" stroke="#63b8ff" points="358.35,-341.06 365.9,-333.62 355.37,-334.73 358.35,-341.06"/>
</g>
<!-- Node49 -->
<g id="node18" class="node">
<title>Node49</title>
<g id="a_node18"><a xlink:href="class_urho3_d_1_1_u_i_element.html#a8c3df9a7b24aa874345db797a95e130e" target="_top" xlink:title=" ">
<polygon fill="white" stroke="#666666" points="474.5,-285.5 369.5,-285.5 369.5,-255.5 474.5,-255.5 474.5,-285.5"/>
<text text-anchor="start" x="377.5" y="-273.5" font-family="Roboto" font-size="10.00">Urho3D::UIElement::</text>
<text text-anchor="middle" x="422" y="-262.5" font-family="Roboto" font-size="10.00">GetWidth</text>
</a>
</g>
</g>
<!-- Node17&#45;&gt;Node49 -->
<g id="edge18" class="edge">
<title>Node17&#45;&gt;Node49</title>
<path fill="none" stroke="#63b8ff" d="M249.62,-442.48C262.33,-410.53 296.35,-335.37 349,-294.5 352.11,-292.08 355.48,-289.9 359,-287.94"/>
<polygon fill="#63b8ff" stroke="#63b8ff" points="360.43,-291.14 367.89,-283.61 357.36,-284.85 360.43,-291.14"/>
</g>
<!-- Node74 -->
<g id="node19" class="node">
<title>Node74</title>
<g id="a_node19"><a xlink:href="class_urho3_d_1_1_bounding_box.html#a4befcf3c67e94eb2f1924e1179b09bd2" target="_top" xlink:title="Merge a point.">
<polygon fill="white" stroke="#666666" points="478.5,-237.5 365.5,-237.5 365.5,-207.5 478.5,-207.5 478.5,-237.5"/>
<text text-anchor="start" x="373.5" y="-225.5" font-family="Roboto" font-size="10.00">Urho3D::BoundingBox</text>
<text text-anchor="middle" x="422" y="-214.5" font-family="Roboto" font-size="10.00">::Merge</text>
</a>
</g>
</g>
<!-- Node17&#45;&gt;Node74 -->
<g id="edge19" class="edge">
<title>Node17&#45;&gt;Node74</title>
<path fill="none" stroke="#63b8ff" d="M247.3,-442.26C256.44,-403.73 285.68,-301.52 349,-246.5 350.94,-244.81 353,-243.25 355.16,-241.79"/>
<polygon fill="#63b8ff" stroke="#63b8ff" points="356.86,-244.84 363.79,-236.82 353.37,-238.78 356.86,-244.84"/>
</g>
<!-- Node24&#45;&gt;Node40 -->
<g id="edge14" class="edge">
<title>Node24&#45;&gt;Node40</title>
<path fill="none" stroke="#63b8ff" d="M486.49,-488.43C497.17,-487.23 508.34,-485.99 519.26,-484.77"/>
<polygon fill="#63b8ff" stroke="#63b8ff" points="519.47,-488.27 529.02,-483.69 518.7,-481.31 519.47,-488.27"/>
</g>
<!-- Node76 -->
<g id="node21" class="node">
<title>Node76</title>
<g id="a_node21"><a xlink:href="class_urho3_d_1_1_graphics.html#a161673ebd757f36216d04199959e917f" target="_top" xlink:title="Return the API&#45;specific alpha texture format.">
<polygon fill="white" stroke="#666666" points="490.5,-189.5 353.5,-189.5 353.5,-159.5 490.5,-159.5 490.5,-189.5"/>
<text text-anchor="start" x="361.5" y="-177.5" font-family="Roboto" font-size="10.00">Urho3D::Graphics::GetAlpha</text>
<text text-anchor="middle" x="422" y="-166.5" font-family="Roboto" font-size="10.00">Format</text>
</a>
</g>
</g>
<!-- Node75&#45;&gt;Node76 -->
<g id="edge22" class="edge">
<title>Node75&#45;&gt;Node76</title>
<path fill="none" stroke="#63b8ff" d="M277.76,-120.81C298.2,-129.88 324.9,-141.34 349,-150.5 353.3,-152.13 357.76,-153.77 362.26,-155.37"/>
<polygon fill="#63b8ff" stroke="#63b8ff" points="360.76,-158.55 371.35,-158.54 363.06,-151.94 360.76,-158.55"/>
</g>
<!-- Node77 -->
<g id="node22" class="node">
<title>Node77</title>
<g id="a_node22"><a xlink:href="class_urho3_d_1_1_text3_d.html#ab66b231955992f3d761c1770483315c5" target="_top" xlink:title=" ">
<polygon fill="#fff0f0" stroke="red" points="487.5,-141.5 356.5,-141.5 356.5,-111.5 487.5,-111.5 487.5,-141.5"/>
<text text-anchor="start" x="364.5" y="-129.5" font-family="Roboto" font-size="10.00">Urho3D::Text3D::GetEffect</text>
<text text-anchor="middle" x="422" y="-118.5" font-family="Roboto" font-size="10.00">Color</text>
</a>
</g>
</g>
<!-- Node75&#45;&gt;Node77 -->
<g id="edge23" class="edge">
<title>Node75&#45;&gt;Node77</title>
<path fill="none" stroke="#63b8ff" d="M313.45,-113.74C323.76,-114.96 334.44,-116.23 344.88,-117.47"/>
<polygon fill="#63b8ff" stroke="#63b8ff" points="344.24,-120.92 354.58,-118.62 345.07,-113.97 344.24,-120.92"/>
</g>
<!-- Node79 -->
<g id="node23" class="node">
<title>Node79</title>
<g id="a_node23"><a xlink:href="class_urho3_d_1_1_text3_d.html#a732c2690b813bd90ff4ae9ed0f89c57f" target="_top" xlink:title=" ">
<polygon fill="#fff0f0" stroke="red" points="484.5,-93 359.5,-93 359.5,-74 484.5,-74 484.5,-93"/>
<text text-anchor="middle" x="422" y="-81" font-family="Roboto" font-size="10.00">Urho3D::Text3D::GetFont</text>
</a>
</g>
</g>
<!-- Node75&#45;&gt;Node79 -->
<g id="edge24" class="edge">
<title>Node75&#45;&gt;Node79</title>
<path fill="none" stroke="#63b8ff" d="M313.45,-96.87C324.78,-95.46 336.55,-94 347.96,-92.58"/>
<polygon fill="#63b8ff" stroke="#63b8ff" points="348.24,-96.07 357.73,-91.36 347.37,-89.12 348.24,-96.07"/>
</g>
<!-- Node81 -->
<g id="node24" class="node">
<title>Node81</title>
<g id="a_node24"><a xlink:href="class_urho3_d_1_1_texture.html#ab47f6f48fa537e42dea9e21bc3a350cc" target="_top" xlink:title=" ">
<polygon fill="white" stroke="#666666" points="491.5,-56 352.5,-56 352.5,-37 491.5,-37 491.5,-56"/>
<text text-anchor="middle" x="422" y="-44" font-family="Roboto" font-size="10.00">Urho3D::Texture::GetFormat</text>
</a>
</g>
</g>
<!-- Node75&#45;&gt;Node81 -->
<g id="edge25" class="edge">
<title>Node75&#45;&gt;Node81</title>
<path fill="none" stroke="#63b8ff" d="M280.04,-90.12C300.11,-81.88 325.69,-71.93 349,-64.5 354.68,-62.69 360.65,-60.95 366.64,-59.3"/>
<polygon fill="#63b8ff" stroke="#63b8ff" points="367.11,-62.8 375.88,-56.85 365.32,-56.03 367.11,-62.8"/>
</g>
<!-- Node82 -->
<g id="node25" class="node">
<title>Node82</title>
<g id="a_node25"><a xlink:href="class_urho3_d_1_1_texture.html#af496abc83a030e5dc9c8d46c7111fa1c" target="_top" xlink:title=" ">
<polygon fill="white" stroke="#666666" points="489.5,-19 354.5,-19 354.5,0 489.5,0 489.5,-19"/>
<text text-anchor="middle" x="422" y="-7" font-family="Roboto" font-size="10.00">Urho3D::Texture::GetHeight</text>
</a>
</g>
</g>
<!-- Node75&#45;&gt;Node82 -->
<g id="edge26" class="edge">
<title>Node75&#45;&gt;Node82</title>
<path fill="none" stroke="#63b8ff" d="M260.12,-90.28C279.66,-72.65 314.31,-43.91 349,-27.5 352.48,-25.85 356.14,-24.34 359.87,-22.96"/>
<polygon fill="#63b8ff" stroke="#63b8ff" points="360.72,-26.37 369.1,-19.89 358.51,-19.73 360.72,-26.37"/>
</g>
</g>
</svg>
