<?xml version="1.0" encoding="UTF-8" standalone="no"?>
<!DOCTYPE svg PUBLIC "-//W3C//DTD SVG 1.1//EN"
 "http://www.w3.org/Graphics/SVG/1.1/DTD/svg11.dtd">
<!-- Generated by graphviz version 7.0.3 (0)
 -->
<!-- Title: Urho3D::Terrain::SetSmoothing Pages: 1 -->
<svg width="703pt" height="1024pt"
 viewBox="0.00 0.00 703.00 1023.50" xmlns="http://www.w3.org/2000/svg" xmlns:xlink="http://www.w3.org/1999/xlink">
<g id="graph0" class="graph" transform="scale(1 1) rotate(0) translate(4 1019.5)">
<title>Urho3D::Terrain::SetSmoothing</title>
<!-- Node1 -->
<g id="node1" class="node">
<title>Node1</title>
<g id="a_node1"><a xlink:title=" ">
<polygon fill="#999999" stroke="#666666" points="152,-491 0,-491 0,-472 152,-472 152,-491"/>
<text text-anchor="middle" x="76" y="-479" font-family="Roboto" font-size="10.00">Urho3D::Terrain::SetSmoothing</text>
</a>
</g>
</g>
<!-- Node2 -->
<g id="node2" class="node">
<title>Node2</title>
<g id="a_node2"><a xlink:href="class_urho3_d_1_1_terrain.html#a4c3774f5e5fb85197eb87d8fd1fff046" target="_top" xlink:title="Regenerate terrain geometry.">
<polygon fill="#fff0f0" stroke="red" points="349,-513 188,-513 188,-494 349,-494 349,-513"/>
<text text-anchor="middle" x="268.5" y="-501" font-family="Roboto" font-size="10.00">Urho3D::Terrain::CreateGeometry</text>
</a>
</g>
</g>
<!-- Node1&#45;&gt;Node2 -->
<g id="edge1" class="edge">
<title>Node1&#45;&gt;Node2</title>
<path fill="none" stroke="#63b8ff" d="M152.29,-490.19C160.21,-491.11 168.32,-492.05 176.39,-492.98"/>
<polygon fill="#63b8ff" stroke="#63b8ff" points="175.91,-496.45 186.24,-494.12 176.71,-489.49 175.91,-496.45"/>
</g>
<!-- Node44 -->
<g id="node25" class="node">
<title>Node44</title>
<g id="a_node25"><a xlink:href="class_urho3_d_1_1_component.html#aaf87acb64001774c62f0784254f9b291" target="_top" xlink:title="Mark for attribute check on the next network update.">
<polygon fill="#fff0f0" stroke="red" points="324,-475.5 213,-475.5 213,-445.5 324,-445.5 324,-475.5"/>
<text text-anchor="start" x="221" y="-463.5" font-family="Roboto" font-size="10.00">Urho3D::Component::</text>
<text text-anchor="middle" x="268.5" y="-452.5" font-family="Roboto" font-size="10.00">MarkNetworkUpdate</text>
</a>
</g>
</g>
<!-- Node1&#45;&gt;Node44 -->
<g id="edge37" class="edge">
<title>Node1&#45;&gt;Node44</title>
<path fill="none" stroke="#63b8ff" d="M152.29,-473.2C168.53,-471.41 185.57,-469.53 201.42,-467.78"/>
<polygon fill="#63b8ff" stroke="#63b8ff" points="201.67,-471.28 211.22,-466.7 200.9,-464.32 201.67,-471.28"/>
</g>
<!-- Node3 -->
<g id="node3" class="node">
<title>Node3</title>
<g id="a_node3"><a xlink:href="class_urho3_d_1_1_p_o_d_vector.html#ac564a928bd75354adfdeb2b7fd225149" target="_top" xlink:title="Return iterator to the beginning.">
<polygon fill="#fff0f0" stroke="red" points="521,-1015.5 413,-1015.5 413,-985.5 521,-985.5 521,-1015.5"/>
<text text-anchor="start" x="421" y="-1003.5" font-family="Roboto" font-size="10.00">Urho3D::PODVector::</text>
<text text-anchor="middle" x="467" y="-992.5" font-family="Roboto" font-size="10.00">Begin</text>
</a>
</g>
</g>
<!-- Node2&#45;&gt;Node3 -->
<g id="edge2" class="edge">
<title>Node2&#45;&gt;Node3</title>
<path fill="none" stroke="#63b8ff" d="M270.64,-513.17C277.94,-573.63 319.94,-899.45 385,-971.5 389.98,-977.01 396.08,-981.48 402.67,-985.09"/>
<polygon fill="#63b8ff" stroke="#63b8ff" points="400.72,-988.04 411.26,-989.16 403.72,-981.71 400.72,-988.04"/>
</g>
<!-- Node5 -->
<g id="node4" class="node">
<title>Node5</title>
<g id="a_node4"><a xlink:href="class_urho3_d_1_1_terrain.html#a3836071d62973e24f72cfaf65d46afee" target="_top" xlink:title="Calculate LOD errors for a patch.">
<polygon fill="#fff0f0" stroke="red" points="532,-863.5 402,-863.5 402,-833.5 532,-833.5 532,-863.5"/>
<text text-anchor="start" x="410" y="-851.5" font-family="Roboto" font-size="10.00">Urho3D::Terrain::Calculate</text>
<text text-anchor="middle" x="467" y="-840.5" font-family="Roboto" font-size="10.00">LodErrors</text>
</a>
</g>
</g>
<!-- Node2&#45;&gt;Node5 -->
<g id="edge3" class="edge">
<title>Node2&#45;&gt;Node5</title>
<path fill="none" stroke="#63b8ff" d="M269.96,-513.31C272.53,-556.76 288.75,-733.62 385,-824.5 387.15,-826.53 389.46,-828.38 391.89,-830.08"/>
<polygon fill="#63b8ff" stroke="#63b8ff" points="390.11,-833.09 400.5,-835.13 393.65,-827.06 390.11,-833.09"/>
</g>
<!-- Node10 -->
<g id="node5" class="node">
<title>Node10</title>
<g id="a_node5"><a xlink:href="class_urho3_d_1_1_terrain_patch.html#a8713045be618a976aa03e1ca0fff7712" target="_top" xlink:title="Return patch coordinates.">
<polygon fill="white" stroke="#666666" points="695,-896.5 585,-896.5 585,-866.5 695,-866.5 695,-896.5"/>
<text text-anchor="start" x="593" y="-884.5" font-family="Roboto" font-size="10.00">Urho3D::TerrainPatch</text>
<text text-anchor="middle" x="640" y="-873.5" font-family="Roboto" font-size="10.00">::GetCoordinates</text>
</a>
</g>
</g>
<!-- Node2&#45;&gt;Node10 -->
<g id="edge22" class="edge">
<title>Node2&#45;&gt;Node10</title>
<path fill="none" stroke="#63b8ff" d="M270.5,-513.17C276.83,-572.22 313.31,-883.36 385,-938.5 442.78,-982.94 479,-958.8 549,-938.5 572.53,-931.68 595.81,-916.65 612.79,-903.74"/>
<polygon fill="#63b8ff" stroke="#63b8ff" points="614.66,-906.72 620.35,-897.79 610.33,-901.22 614.66,-906.72"/>
</g>
<!-- Node15 -->
<g id="node6" class="node">
<title>Node15</title>
<g id="a_node6"><a xlink:href="_math_defs_8h.html#a8096c22c3716e172f685af2a5f5e26bb" target="_top" xlink:title=" ">
<polygon fill="white" stroke="#666666" points="677,-792 603,-792 603,-773 677,-773 677,-792"/>
<text text-anchor="middle" x="640" y="-780" font-family="Roboto" font-size="10.00">Urho3D::Max</text>
</a>
</g>
</g>
<!-- Node2&#45;&gt;Node15 -->
<g id="edge26" class="edge">
<title>Node2&#45;&gt;Node15</title>
<path fill="none" stroke="#63b8ff" d="M271.86,-513.32C280.5,-547.13 313.71,-659.69 385,-715.5 444.33,-761.95 476.15,-739.24 549,-758.5 562.94,-762.19 578.09,-766.22 591.91,-769.9"/>
<polygon fill="#63b8ff" stroke="#63b8ff" points="590.64,-773.19 601.2,-772.38 592.44,-766.42 590.64,-773.19"/>
</g>
<!-- Node19 -->
<g id="node7" class="node">
<title>Node19</title>
<g id="a_node7"><a xlink:href="class_urho3_d_1_1_node.html#ab23d77af7fe3350c1dcfec8281849ed3" target="_top" xlink:title="Create a component to this node (with specified ID if provided).">
<polygon fill="#fff0f0" stroke="red" points="549,-673 385,-673 385,-654 549,-654 549,-673"/>
<text text-anchor="middle" x="467" y="-661" font-family="Roboto" font-size="10.00">Urho3D::Node::CreateComponent</text>
</a>
</g>
</g>
<!-- Node2&#45;&gt;Node19 -->
<g id="edge8" class="edge">
<title>Node2&#45;&gt;Node19</title>
<path fill="none" stroke="#63b8ff" d="M274.47,-513.21C288.2,-539.05 329.41,-609.85 385,-644.5 387.76,-646.22 390.66,-647.78 393.65,-649.21"/>
<polygon fill="#63b8ff" stroke="#63b8ff" points="392.15,-652.37 402.73,-652.94 394.81,-645.9 392.15,-652.37"/>
</g>
<!-- Node58 -->
<g id="node8" class="node">
<title>Node58</title>
<g id="a_node8"><a xlink:href="class_urho3_d_1_1_terrain.html#ac5f9117661ac3c1b077540c4732cda94" target="_top" xlink:title="Create index data shared by all patches.">
<polygon fill="#fff0f0" stroke="red" points="548.5,-618 385.5,-618 385.5,-599 548.5,-599 548.5,-618"/>
<text text-anchor="middle" x="467" y="-606" font-family="Roboto" font-size="10.00">Urho3D::Terrain::CreateIndexData</text>
</a>
</g>
</g>
<!-- Node2&#45;&gt;Node58 -->
<g id="edge9" class="edge">
<title>Node2&#45;&gt;Node58</title>
<path fill="none" stroke="#63b8ff" d="M279.68,-513.42C298.72,-531.4 341.7,-569.37 385,-589.5 389.54,-591.61 394.34,-593.5 399.24,-595.19"/>
<polygon fill="#63b8ff" stroke="#63b8ff" points="398.05,-598.48 408.64,-598.12 400.13,-591.8 398.05,-598.48"/>
</g>
<!-- Node60 -->
<g id="node9" class="node">
<title>Node60</title>
<g id="a_node9"><a xlink:href="class_urho3_d_1_1_terrain.html#a03006159674e5b8e1bb6d34e2afdcc81" target="_top" xlink:title="Regenerate patch geometry.">
<polygon fill="#fff0f0" stroke="red" points="538.5,-797.5 395.5,-797.5 395.5,-767.5 538.5,-767.5 538.5,-797.5"/>
<text text-anchor="start" x="403.5" y="-785.5" font-family="Roboto" font-size="10.00">Urho3D::Terrain::CreatePatch</text>
<text text-anchor="middle" x="467" y="-774.5" font-family="Roboto" font-size="10.00">Geometry</text>
</a>
</g>
</g>
<!-- Node2&#45;&gt;Node60 -->
<g id="edge11" class="edge">
<title>Node2&#45;&gt;Node60</title>
<path fill="none" stroke="#63b8ff" d="M271.25,-513.48C278.28,-550.72 307.92,-682.99 385,-753.5 388.31,-756.53 391.97,-759.25 395.84,-761.69"/>
<polygon fill="#63b8ff" stroke="#63b8ff" points="394.05,-764.7 404.49,-766.46 397.43,-758.57 394.05,-764.7"/>
</g>
<!-- Node72 -->
<g id="node10" class="node">
<title>Node72</title>
<g id="a_node10"><a xlink:href="_math_defs_8h.html#a639c291adc131849b469a216007c4af5" target="_top" xlink:title=" ">
<polygon fill="white" stroke="#666666" points="675.5,-724 604.5,-724 604.5,-705 675.5,-705 675.5,-724"/>
<text text-anchor="middle" x="640" y="-712" font-family="Roboto" font-size="10.00">Urho3D::Min</text>
</a>
</g>
</g>
<!-- Node2&#45;&gt;Node72 -->
<g id="edge27" class="edge">
<title>Node2&#45;&gt;Node72</title>
<path fill="none" stroke="#63b8ff" d="M272.56,-513.34C282.74,-544.22 318.61,-639.67 385,-681.5 448.62,-721.58 539.01,-723.11 593.05,-719.53"/>
<polygon fill="#63b8ff" stroke="#63b8ff" points="593.12,-723.04 602.83,-718.79 592.59,-716.06 593.12,-723.04"/>
</g>
<!-- Node92 -->
<g id="node11" class="node">
<title>Node92</title>
<g id="a_node11"><a xlink:href="class_urho3_d_1_1_node.html#aefe4240e24961864d51e9a0d9f742756" target="_top" xlink:title="Create a temporary child scene node (with specified ID if provided).">
<polygon fill="#fff0f0" stroke="red" points="547,-580.5 387,-580.5 387,-550.5 547,-550.5 547,-580.5"/>
<text text-anchor="start" x="395" y="-568.5" font-family="Roboto" font-size="10.00">Urho3D::Node::CreateTemporary</text>
<text text-anchor="middle" x="467" y="-557.5" font-family="Roboto" font-size="10.00">Child</text>
</a>
</g>
</g>
<!-- Node2&#45;&gt;Node92 -->
<g id="edge17" class="edge">
<title>Node2&#45;&gt;Node92</title>
<path fill="none" stroke="#63b8ff" d="M300.36,-513.48C323.6,-520.98 356.28,-531.47 385,-540.5 391.54,-542.56 398.38,-544.69 405.2,-546.81"/>
<polygon fill="#63b8ff" stroke="#63b8ff" points="403.82,-550.05 414.41,-549.67 405.89,-543.36 403.82,-550.05"/>
</g>
<!-- Node95 -->
<g id="node12" class="node">
<title>Node95</title>
<g id="a_node12"><a xlink:href="class_urho3_d_1_1_p_o_d_vector.html#ad9cedde70f6aac8dde2b7bfba7ca4fbb" target="_top" xlink:title="Return iterator to the end.">
<polygon fill="#fff0f0" stroke="red" points="529.5,-532 404.5,-532 404.5,-513 529.5,-513 529.5,-532"/>
<text text-anchor="middle" x="467" y="-520" font-family="Roboto" font-size="10.00">Urho3D::PODVector::End</text>
</a>
</g>
</g>
<!-- Node2&#45;&gt;Node95 -->
<g id="edge18" class="edge">
<title>Node2&#45;&gt;Node95</title>
<path fill="none" stroke="#63b8ff" d="M349.42,-511.23C363.84,-512.62 378.81,-514.07 393.02,-515.44"/>
<polygon fill="#63b8ff" stroke="#63b8ff" points="392.43,-518.9 402.72,-516.38 393.11,-511.94 392.43,-518.9"/>
</g>
<!-- Node96 -->
<g id="node13" class="node">
<title>Node96</title>
<g id="a_node13"><a xlink:href="class_urho3_d_1_1_node.html#aa413f1ee8b3fd0928b371a6d9875563c" target="_top" xlink:title="Return child scene node by index.">
<polygon fill="white" stroke="#666666" points="528,-495 406,-495 406,-476 528,-476 528,-495"/>
<text text-anchor="middle" x="467" y="-483" font-family="Roboto" font-size="10.00">Urho3D::Node::GetChild</text>
</a>
</g>
</g>
<!-- Node2&#45;&gt;Node96 -->
<g id="edge19" class="edge">
<title>Node2&#45;&gt;Node96</title>
<path fill="none" stroke="#63b8ff" d="M349.42,-496.18C364.41,-494.81 379.99,-493.38 394.69,-492.03"/>
<polygon fill="#63b8ff" stroke="#63b8ff" points="394.6,-495.56 404.23,-491.16 393.96,-488.58 394.6,-495.56"/>
</g>
<!-- Node97 -->
<g id="node14" class="node">
<title>Node97</title>
<g id="a_node14"><a xlink:href="class_urho3_d_1_1_node.html#a8018ae5a2c8035dd296966c0508916c2" target="_top" xlink:title="Return child scene nodes with a specific component.">
<polygon fill="#fff0f0" stroke="red" points="534.5,-457.5 399.5,-457.5 399.5,-427.5 534.5,-427.5 534.5,-457.5"/>
<text text-anchor="start" x="407.5" y="-445.5" font-family="Roboto" font-size="10.00">Urho3D::Node::GetChildren</text>
<text text-anchor="middle" x="467" y="-434.5" font-family="Roboto" font-size="10.00">WithComponent</text>
</a>
</g>
</g>
<!-- Node2&#45;&gt;Node97 -->
<g id="edge20" class="edge">
<title>Node2&#45;&gt;Node97</title>
<path fill="none" stroke="#63b8ff" d="M318.79,-493.58C328.91,-491.03 339.4,-488 349,-484.5 365.81,-478.38 368.36,-473.07 385,-466.5 389.37,-464.77 393.92,-463.1 398.54,-461.5"/>
<polygon fill="#63b8ff" stroke="#63b8ff" points="399.54,-464.86 407.92,-458.38 397.33,-458.22 399.54,-464.86"/>
</g>
<!-- Node100 -->
<g id="node15" class="node">
<title>Node100</title>
<g id="a_node15"><a xlink:href="class_urho3_d_1_1_node.html#a34f6d23128c61664a11ceb275604e013" target="_top" xlink:title="Return component by type. If there are several, returns the first.">
<polygon fill="#fff0f0" stroke="red" points="542.5,-409 391.5,-409 391.5,-390 542.5,-390 542.5,-409"/>
<text text-anchor="middle" x="467" y="-397" font-family="Roboto" font-size="10.00">Urho3D::Node::GetComponent</text>
</a>
</g>
</g>
<!-- Node2&#45;&gt;Node100 -->
<g id="edge21" class="edge">
<title>Node2&#45;&gt;Node100</title>
<path fill="none" stroke="#63b8ff" d="M332.96,-493.63C338.69,-491.21 344.15,-488.21 349,-484.5 375.54,-464.2 358.42,-438.75 385,-418.5 386.96,-417.01 389.02,-415.63 391.16,-414.36"/>
<polygon fill="#63b8ff" stroke="#63b8ff" points="392.23,-417.73 399.59,-410.11 389.08,-411.48 392.23,-417.73"/>
</g>
<!-- Node29 -->
<g id="node16" class="node">
<title>Node29</title>
<g id="a_node16"><a xlink:href="class_urho3_d_1_1_object.html#a69af51cfa67f9626273b35a6d501e03e" target="_top" xlink:title="Return a preallocated map for event data. Used for optimization to avoid constant re&#45;allocation of ev...">
<polygon fill="#fff0f0" stroke="red" points="529.5,-371.5 404.5,-371.5 404.5,-341.5 529.5,-341.5 529.5,-371.5"/>
<text text-anchor="start" x="412.5" y="-359.5" font-family="Roboto" font-size="10.00">Urho3D::Object::GetEvent</text>
<text text-anchor="middle" x="467" y="-348.5" font-family="Roboto" font-size="10.00">DataMap</text>
</a>
</g>
</g>
<!-- Node2&#45;&gt;Node29 -->
<g id="edge23" class="edge">
<title>Node2&#45;&gt;Node29</title>
<path fill="none" stroke="#63b8ff" d="M335.57,-493.51C340.44,-491.08 345,-488.12 349,-484.5 385.25,-451.66 349.64,-414.3 385,-380.5 387.84,-377.78 390.98,-375.37 394.32,-373.23"/>
<polygon fill="#63b8ff" stroke="#63b8ff" points="395.72,-376.45 402.84,-368.61 392.38,-370.3 395.72,-376.45"/>
</g>
<!-- Node102 -->
<g id="node17" class="node">
<title>Node102</title>
<g id="a_node17"><a xlink:href="class_urho3_d_1_1_terrain.html#a3a73c37ce566bde78994304cdf979866" target="_top" xlink:title="Return a source terrain height value, clamping to edges. The source data is used for smoothing.">
<polygon fill="#fff0f0" stroke="red" points="534.5,-323.5 399.5,-323.5 399.5,-293.5 534.5,-293.5 534.5,-323.5"/>
<text text-anchor="start" x="407.5" y="-311.5" font-family="Roboto" font-size="10.00">Urho3D::Terrain::GetSource</text>
<text text-anchor="middle" x="467" y="-300.5" font-family="Roboto" font-size="10.00">Height</text>
</a>
</g>
</g>
<!-- Node2&#45;&gt;Node102 -->
<g id="edge24" class="edge">
<title>Node2&#45;&gt;Node102</title>
<path fill="none" stroke="#63b8ff" d="M336.73,-493.53C341.23,-491.09 345.39,-488.12 349,-484.5 398.04,-435.36 337.29,-382.93 385,-332.5 386.55,-330.86 388.21,-329.33 389.95,-327.91"/>
<polygon fill="#63b8ff" stroke="#63b8ff" points="391.71,-330.94 398.06,-322.45 387.81,-325.13 391.71,-330.94"/>
</g>
<!-- Node103 -->
<g id="node18" class="node">
<title>Node103</title>
<g id="a_node18"><a xlink:href="class_urho3_d_1_1_component.html#aafa7952d0f225edde3387da0c91a9356" target="_top" xlink:title=" ">
<polygon fill="#fff0f0" stroke="red" points="522.5,-275.5 411.5,-275.5 411.5,-245.5 522.5,-245.5 522.5,-275.5"/>
<text text-anchor="start" x="419.5" y="-263.5" font-family="Roboto" font-size="10.00">Urho3D::Component::</text>
<text text-anchor="middle" x="467" y="-252.5" font-family="Roboto" font-size="10.00">IsEnabledEffective</text>
</a>
</g>
</g>
<!-- Node2&#45;&gt;Node103 -->
<g id="edge25" class="edge">
<title>Node2&#45;&gt;Node103</title>
<path fill="none" stroke="#63b8ff" d="M337.32,-493.54C341.62,-491.09 345.59,-488.11 349,-484.5 411.03,-418.86 324.74,-351.78 385,-284.5 389.45,-279.53 394.88,-275.57 400.79,-272.42"/>
<polygon fill="#63b8ff" stroke="#63b8ff" points="402.02,-275.7 409.74,-268.45 399.18,-269.3 402.02,-275.7"/>
</g>
<!-- Node105 -->
<g id="node19" class="node">
<title>Node105</title>
<g id="a_node19"><a xlink:href="class_urho3_d_1_1_node.html#a3ffe2c6ea129ee77f6d2ed1d4a67f41f" target="_top" xlink:title="Remove a child scene node.">
<polygon fill="white" stroke="#666666" points="538.5,-209 395.5,-209 395.5,-190 538.5,-190 538.5,-209"/>
<text text-anchor="middle" x="467" y="-197" font-family="Roboto" font-size="10.00">Urho3D::Node::RemoveChild</text>
</a>
</g>
</g>
<!-- Node2&#45;&gt;Node105 -->
<g id="edge28" class="edge">
<title>Node2&#45;&gt;Node105</title>
<path fill="none" stroke="#63b8ff" d="M337.46,-493.67C341.73,-491.19 345.65,-488.17 349,-484.5 424.12,-402.26 318.2,-325.62 385,-236.5 392.45,-226.56 403.21,-219.21 414.47,-213.81"/>
<polygon fill="#63b8ff" stroke="#63b8ff" points="415.65,-217.11 423.47,-209.97 412.9,-210.67 415.65,-217.11"/>
</g>
<!-- Node89 -->
<g id="node20" class="node">
<title>Node89</title>
<g id="a_node20"><a xlink:href="class_urho3_d_1_1_shared_array_ptr.html#a5f621b62e29d89c1d29f1c2089932bd5" target="_top" xlink:title="Reset to null and release the array reference.">
<polygon fill="#fff0f0" stroke="red" points="528,-171.5 406,-171.5 406,-141.5 528,-141.5 528,-171.5"/>
<text text-anchor="start" x="414" y="-159.5" font-family="Roboto" font-size="10.00">Urho3D::SharedArrayPtr</text>
<text text-anchor="middle" x="467" y="-148.5" font-family="Roboto" font-size="10.00">::Reset</text>
</a>
</g>
</g>
<!-- Node2&#45;&gt;Node89 -->
<g id="edge30" class="edge">
<title>Node2&#45;&gt;Node89</title>
<path fill="none" stroke="#63b8ff" d="M337.93,-493.55C342.04,-491.09 345.79,-488.1 349,-484.5 439.43,-382.85 297.32,-284.53 385,-180.5 388.14,-176.78 391.82,-173.62 395.86,-170.94"/>
<polygon fill="#63b8ff" stroke="#63b8ff" points="397.39,-174.09 404.5,-166.23 394.05,-167.94 397.39,-174.09"/>
</g>
<!-- Node53 -->
<g id="node21" class="node">
<title>Node53</title>
<g id="a_node21"><a xlink:href="class_urho3_d_1_1_object.html#a32020dbf77c196b9777eca479e8abb36" target="_top" xlink:title="Send event to all subscribers.">
<polygon fill="white" stroke="#666666" points="533.5,-105 400.5,-105 400.5,-86 533.5,-86 533.5,-105"/>
<text text-anchor="middle" x="467" y="-93" font-family="Roboto" font-size="10.00">Urho3D::Object::SendEvent</text>
</a>
</g>
</g>
<!-- Node2&#45;&gt;Node53 -->
<g id="edge31" class="edge">
<title>Node2&#45;&gt;Node53</title>
<path fill="none" stroke="#63b8ff" d="M338,-493.61C342.09,-491.13 345.82,-488.13 349,-484.5 400.79,-425.34 339.18,-196.4 385,-132.5 392.03,-122.69 402.31,-115.43 413.19,-110.06"/>
<polygon fill="#63b8ff" stroke="#63b8ff" points="414.57,-113.28 422.34,-106.09 411.78,-106.86 414.57,-113.28"/>
</g>
<!-- Node106 -->
<g id="node22" class="node">
<title>Node106</title>
<g id="a_node22"><a xlink:href="class_urho3_d_1_1_terrain_patch.html#a44e179882d9f7e70206e4f1f027898fb" target="_top" xlink:title="Set owner terrain.">
<polygon fill="white" stroke="#666666" points="522,-67.5 412,-67.5 412,-37.5 522,-37.5 522,-67.5"/>
<text text-anchor="start" x="420" y="-55.5" font-family="Roboto" font-size="10.00">Urho3D::TerrainPatch</text>
<text text-anchor="middle" x="467" y="-44.5" font-family="Roboto" font-size="10.00">::SetOwner</text>
</a>
</g>
</g>
<!-- Node2&#45;&gt;Node106 -->
<g id="edge33" class="edge">
<title>Node2&#45;&gt;Node106</title>
<path fill="none" stroke="#63b8ff" d="M338.05,-493.66C342.13,-491.17 345.85,-488.15 349,-484.5 408.47,-415.6 327.39,-146.97 385,-76.5 389.51,-70.99 395.22,-66.7 401.52,-63.38"/>
<polygon fill="#63b8ff" stroke="#63b8ff" points="402.64,-66.7 410.42,-59.51 399.85,-60.28 402.64,-66.7"/>
</g>
<!-- Node107 -->
<g id="node23" class="node">
<title>Node107</title>
<g id="a_node23"><a xlink:href="class_urho3_d_1_1_terrain.html#a9f004dc87806512d2e1d85596a6088c9" target="_top" xlink:title="Set neighbors for a patch.">
<polygon fill="#fff0f0" stroke="red" points="531,-929.5 403,-929.5 403,-899.5 531,-899.5 531,-929.5"/>
<text text-anchor="start" x="411" y="-917.5" font-family="Roboto" font-size="10.00">Urho3D::Terrain::SetPatch</text>
<text text-anchor="middle" x="467" y="-906.5" font-family="Roboto" font-size="10.00">Neighbors</text>
</a>
</g>
</g>
<!-- Node2&#45;&gt;Node107 -->
<g id="edge34" class="edge">
<title>Node2&#45;&gt;Node107</title>
<path fill="none" stroke="#63b8ff" d="M269.27,-513.26C268.68,-561.7 272.59,-778.31 385,-890.5 387.46,-892.96 390.17,-895.17 393.04,-897.15"/>
<polygon fill="#63b8ff" stroke="#63b8ff" points="391.02,-900.03 401.43,-902 394.53,-893.97 391.02,-900.03"/>
</g>
<!-- Node111 -->
<g id="node24" class="node">
<title>Node111</title>
<g id="a_node24"><a xlink:href="class_urho3_d_1_1_node.html#aa2fd960b4c5641cd38771280a6b84fb8" target="_top" xlink:title=" ">
<polygon fill="#fff0f0" stroke="red" points="534,-19 400,-19 400,0 534,0 534,-19"/>
<text text-anchor="middle" x="467" y="-7" font-family="Roboto" font-size="10.00">Urho3D::Node::SetPosition</text>
</a>
</g>
</g>
<!-- Node2&#45;&gt;Node111 -->
<g id="edge36" class="edge">
<title>Node2&#45;&gt;Node111</title>
<path fill="none" stroke="#63b8ff" d="M338.09,-493.69C342.16,-491.19 345.86,-488.17 349,-484.5 415.06,-407.25 318.77,-105.61 385,-28.5 386.68,-26.54 388.52,-24.76 390.5,-23.15"/>
<polygon fill="#63b8ff" stroke="#63b8ff" points="392.1,-26.28 398.6,-17.91 388.31,-20.4 392.1,-26.28"/>
</g>
<!-- Node5&#45;&gt;Node5 -->
<g id="edge4" class="edge">
<title>Node5&#45;&gt;Node5</title>
<path fill="none" stroke="#63b8ff" d="M436.59,-863.78C429.83,-872.91 439.97,-881.5 467,-881.5 481.78,-881.5 491.51,-878.93 496.19,-875.11"/>
<polygon fill="#63b8ff" stroke="#63b8ff" points="499.66,-875.6 497.25,-865.28 492.7,-874.85 499.66,-875.6"/>
</g>
<!-- Node5&#45;&gt;Node10 -->
<g id="edge5" class="edge">
<title>Node5&#45;&gt;Node10</title>
<path fill="none" stroke="#63b8ff" d="M532.16,-860.88C545.64,-863.48 559.87,-866.23 573.39,-868.84"/>
<polygon fill="#63b8ff" stroke="#63b8ff" points="572.59,-872.25 583.07,-870.71 573.92,-865.38 572.59,-872.25"/>
</g>
<!-- Node5&#45;&gt;Node15 -->
<g id="edge6" class="edge">
<title>Node5&#45;&gt;Node15</title>
<path fill="none" stroke="#63b8ff" d="M524.14,-833.05C532.54,-830.4 541.05,-827.52 549,-824.5 569.83,-816.6 592.56,-805.98 609.96,-797.4"/>
<polygon fill="#63b8ff" stroke="#63b8ff" points="611.31,-800.63 618.69,-793.03 608.18,-794.37 611.31,-800.63"/>
</g>
<!-- Node15&#45;&gt;Node15 -->
<g id="edge7" class="edge">
<title>Node15&#45;&gt;Node15</title>
<path fill="none" stroke="#63b8ff" d="M612.92,-792.37C600.56,-800.94 609.59,-810 640,-810 657.11,-810 667.45,-807.13 671.02,-803.1"/>
<polygon fill="#63b8ff" stroke="#63b8ff" points="674.34,-801.97 667.61,-793.79 667.76,-804.38 674.34,-801.97"/>
</g>
<!-- Node58&#45;&gt;Node58 -->
<g id="edge10" class="edge">
<title>Node58&#45;&gt;Node58</title>
<path fill="none" stroke="#63b8ff" d="M439.92,-618.37C427.56,-626.94 436.59,-636 467,-636 484.11,-636 494.45,-633.13 498.02,-629.1"/>
<polygon fill="#63b8ff" stroke="#63b8ff" points="501.34,-627.97 494.61,-619.79 494.76,-630.38 501.34,-627.97"/>
</g>
<!-- Node60&#45;&gt;Node10 -->
<g id="edge13" class="edge">
<title>Node60&#45;&gt;Node10</title>
<path fill="none" stroke="#63b8ff" d="M499.11,-797.84C514.32,-805.54 532.79,-815.19 549,-824.5 568.44,-835.67 589.65,-849.04 606.59,-860.02"/>
<polygon fill="#63b8ff" stroke="#63b8ff" points="604.47,-862.82 614.76,-865.35 608.3,-856.96 604.47,-862.82"/>
</g>
<!-- Node60&#45;&gt;Node15 -->
<g id="edge14" class="edge">
<title>Node60&#45;&gt;Node15</title>
<path fill="none" stroke="#63b8ff" d="M538.54,-782.5C556.31,-782.5 574.96,-782.5 591.31,-782.5"/>
<polygon fill="#63b8ff" stroke="#63b8ff" points="591.25,-786 601.25,-782.5 591.25,-779 591.25,-786"/>
</g>
<!-- Node60&#45;&gt;Node60 -->
<g id="edge12" class="edge">
<title>Node60&#45;&gt;Node60</title>
<path fill="none" stroke="#63b8ff" d="M436.59,-797.78C429.83,-806.91 439.97,-815.5 467,-815.5 481.78,-815.5 491.51,-812.93 496.19,-809.11"/>
<polygon fill="#63b8ff" stroke="#63b8ff" points="499.66,-809.6 497.25,-799.28 492.7,-808.85 499.66,-809.6"/>
</g>
<!-- Node60&#45;&gt;Node72 -->
<g id="edge15" class="edge">
<title>Node60&#45;&gt;Node72</title>
<path fill="none" stroke="#63b8ff" d="M506.8,-767.07C535.77,-755.55 575.06,-739.93 603.26,-728.71"/>
<polygon fill="#63b8ff" stroke="#63b8ff" points="604.45,-732.01 612.45,-725.06 601.86,-725.5 604.45,-732.01"/>
</g>
<!-- Node72&#45;&gt;Node72 -->
<g id="edge16" class="edge">
<title>Node72&#45;&gt;Node72</title>
<path fill="none" stroke="#63b8ff" d="M612.92,-724.37C600.56,-732.94 609.59,-742 640,-742 657.11,-742 667.45,-739.13 671.02,-735.1"/>
<polygon fill="#63b8ff" stroke="#63b8ff" points="674.34,-733.97 667.61,-725.79 667.76,-736.38 674.34,-733.97"/>
</g>
<!-- Node105&#45;&gt;Node105 -->
<g id="edge29" class="edge">
<title>Node105&#45;&gt;Node105</title>
<path fill="none" stroke="#63b8ff" d="M439.92,-209.37C427.56,-217.94 436.59,-227 467,-227 484.11,-227 494.45,-224.13 498.02,-220.1"/>
<polygon fill="#63b8ff" stroke="#63b8ff" points="501.34,-218.97 494.61,-210.79 494.76,-221.38 501.34,-218.97"/>
</g>
<!-- Node53&#45;&gt;Node53 -->
<g id="edge32" class="edge">
<title>Node53&#45;&gt;Node53</title>
<path fill="none" stroke="#63b8ff" d="M439.92,-105.37C427.56,-113.94 436.59,-123 467,-123 484.11,-123 494.45,-120.13 498.02,-116.1"/>
<polygon fill="#63b8ff" stroke="#63b8ff" points="501.34,-114.97 494.61,-106.79 494.76,-117.38 501.34,-114.97"/>
</g>
<!-- Node107&#45;&gt;Node10 -->
<g id="edge35" class="edge">
<title>Node107&#45;&gt;Node10</title>
<path fill="none" stroke="#63b8ff" d="M531.19,-902.31C545,-899.64 559.65,-896.81 573.55,-894.13"/>
<polygon fill="#63b8ff" stroke="#63b8ff" points="573.86,-897.63 583.02,-892.3 572.54,-890.76 573.86,-897.63"/>
</g>
</g>
</svg>
