<?xml version="1.0" encoding="UTF-8" standalone="no"?>
<!DOCTYPE svg PUBLIC "-//W3C//DTD SVG 1.1//EN"
 "http://www.w3.org/Graphics/SVG/1.1/DTD/svg11.dtd">
<!-- Generated by graphviz version 7.0.3 (0)
 -->
<!-- Title: Urho3D::Camera::SetOrthographic Pages: 1 -->
<svg width="708pt" height="134pt"
 viewBox="0.00 0.00 708.00 134.00" xmlns="http://www.w3.org/2000/svg" xmlns:xlink="http://www.w3.org/1999/xlink">
<g id="graph0" class="graph" transform="scale(1 1) rotate(0) translate(4 130)">
<title>Urho3D::Camera::SetOrthographic</title>
<!-- Node1 -->
<g id="node1" class="node">
<title>Node1</title>
<g id="a_node1"><a xlink:title=" ">
<polygon fill="#999999" stroke="#666666" points="700,-72.5 536,-72.5 536,-53.5 700,-53.5 700,-72.5"/>
<text text-anchor="middle" x="618" y="-60.5" font-family="Roboto" font-size="10.00">Urho3D::Camera::SetOrthographic</text>
</a>
</g>
</g>
<!-- Node2 -->
<g id="node2" class="node">
<title>Node2</title>
<g id="a_node2"><a xlink:href="class_urho3_d_1_1_renderer.html#a5c0831e08bf00013bbc106da1dd6a8c5" target="_top" xlink:title="Allocate a temporary shadow camera and a scene node for it. Is thread&#45;safe.">
<polygon fill="white" stroke="#666666" points="500,-126 350,-126 350,-96 500,-96 500,-126"/>
<text text-anchor="start" x="358" y="-114" font-family="Roboto" font-size="10.00">Urho3D::Renderer::GetShadow</text>
<text text-anchor="middle" x="425" y="-103" font-family="Roboto" font-size="10.00">Camera</text>
</a>
</g>
</g>
<!-- Node1&#45;&gt;Node2 -->
<g id="edge1" class="edge">
<title>Node1&#45;&gt;Node2</title>
<path fill="none" stroke="#63b8ff" d="M566.31,-75.74C542.07,-81.83 512.83,-89.18 487.34,-95.58"/>
<polygon fill="#63b8ff" stroke="#63b8ff" points="567.11,-79.15 575.96,-73.31 565.41,-72.36 567.11,-79.15"/>
</g>
<!-- Node3 -->
<g id="node3" class="node">
<title>Node3</title>
<g id="a_node3"><a xlink:href="class_urho3_d_1_1_camera.html#a7135721d90b089309a667a16bd27a603" target="_top" xlink:title=" ">
<polygon fill="white" stroke="#666666" points="490,-78 360,-78 360,-48 490,-48 490,-78"/>
<text text-anchor="start" x="368" y="-66" font-family="Roboto" font-size="10.00">Urho3D::Camera::Register</text>
<text text-anchor="middle" x="425" y="-55" font-family="Roboto" font-size="10.00">Object</text>
</a>
</g>
</g>
<!-- Node1&#45;&gt;Node3 -->
<g id="edge2" class="edge">
<title>Node1&#45;&gt;Node3</title>
<path fill="none" stroke="#63b8ff" d="M524.31,-63C512.85,-63 501.34,-63 490.44,-63"/>
<polygon fill="#63b8ff" stroke="#63b8ff" points="524.21,-66.5 534.21,-63 524.21,-59.5 524.21,-66.5"/>
</g>
<!-- Node4 -->
<g id="node4" class="node">
<title>Node4</title>
<g id="a_node4"><a xlink:href="class_urho3_d_1_1_view.html#ad5d5472594f2048969af6ea296e843e5" target="_top" xlink:title="Set up a directional light shadow camera.">
<polygon fill="white" stroke="#666666" points="494.5,-30 355.5,-30 355.5,0 494.5,0 494.5,-30"/>
<text text-anchor="start" x="363.5" y="-18" font-family="Roboto" font-size="10.00">Urho3D::View::SetupDirLight</text>
<text text-anchor="middle" x="425" y="-7" font-family="Roboto" font-size="10.00">ShadowCamera</text>
</a>
</g>
</g>
<!-- Node1&#45;&gt;Node4 -->
<g id="edge3" class="edge">
<title>Node1&#45;&gt;Node4</title>
<path fill="none" stroke="#63b8ff" d="M566.31,-50.26C542.07,-44.17 512.83,-36.82 487.34,-30.42"/>
<polygon fill="#63b8ff" stroke="#63b8ff" points="565.41,-53.64 575.96,-52.69 567.11,-46.85 565.41,-53.64"/>
</g>
<!-- Node5 -->
<g id="node5" class="node">
<title>Node5</title>
<g id="a_node5"><a xlink:href="class_urho3_d_1_1_view.html#a4d3766cb580e7a61b7ce50bc4e9aa926" target="_top" xlink:title="Set up initial shadow camera view(s).">
<polygon fill="white" stroke="#666666" points="314,-30 173,-30 173,0 314,0 314,-30"/>
<text text-anchor="start" x="181" y="-18" font-family="Roboto" font-size="10.00">Urho3D::View::SetupShadow</text>
<text text-anchor="middle" x="243.5" y="-7" font-family="Roboto" font-size="10.00">Cameras</text>
</a>
</g>
</g>
<!-- Node4&#45;&gt;Node5 -->
<g id="edge4" class="edge">
<title>Node4&#45;&gt;Node5</title>
<path fill="none" stroke="#63b8ff" d="M343.73,-15C333.94,-15 324.01,-15 314.39,-15"/>
<polygon fill="#63b8ff" stroke="#63b8ff" points="343.6,-18.5 353.6,-15 343.6,-11.5 343.6,-18.5"/>
</g>
<!-- Node6 -->
<g id="node6" class="node">
<title>Node6</title>
<g id="a_node6"><a xlink:href="class_urho3_d_1_1_view.html#a8386e461553bac5a6b4512b8a9712e79" target="_top" xlink:title="Query for lit geometries and shadow casters for a light.">
<polygon fill="white" stroke="#666666" points="137,-24.5 0,-24.5 0,-5.5 137,-5.5 137,-24.5"/>
<text text-anchor="middle" x="68.5" y="-12.5" font-family="Roboto" font-size="10.00">Urho3D::View::ProcessLight</text>
</a>
</g>
</g>
<!-- Node5&#45;&gt;Node6 -->
<g id="edge5" class="edge">
<title>Node5&#45;&gt;Node6</title>
<path fill="none" stroke="#63b8ff" d="M161.36,-15C153.34,-15 145.25,-15 137.38,-15"/>
<polygon fill="#63b8ff" stroke="#63b8ff" points="161.12,-18.5 171.12,-15 161.12,-11.5 161.12,-18.5"/>
</g>
</g>
</svg>
