<?xml version="1.0" encoding="UTF-8" standalone="no"?>
<!DOCTYPE svg PUBLIC "-//W3C//DTD SVG 1.1//EN"
 "http://www.w3.org/Graphics/SVG/1.1/DTD/svg11.dtd">
<!-- Generated by graphviz version 7.0.3 (0)
 -->
<!-- Title: Urho3D::Text3D::UpdateGeometry Pages: 1 -->
<svg width="751pt" height="890pt"
 viewBox="0.00 0.00 751.00 889.58" xmlns="http://www.w3.org/2000/svg" xmlns:xlink="http://www.w3.org/1999/xlink">
<g id="graph0" class="graph" transform="scale(1 1) rotate(0) translate(4 885.58)">
<title>Urho3D::Text3D::UpdateGeometry</title>
<!-- Node1 -->
<g id="node1" class="node">
<title>Node1</title>
<g id="a_node1"><a xlink:title="Prepare geometry for rendering. Called from a worker thread if possible (no GPU update).">
<polygon fill="#999999" stroke="#666666" points="165,-575.5 0,-575.5 0,-556.5 165,-556.5 165,-575.5"/>
<text text-anchor="middle" x="82.5" y="-563.5" font-family="Roboto" font-size="10.00">Urho3D::Text3D::UpdateGeometry</text>
</a>
</g>
</g>
<!-- Node2 -->
<g id="node2" class="node">
<title>Node2</title>
<g id="a_node2"><a xlink:href="class_urho3_d_1_1_text3_d.html#aa77a802e886bfb646350e8d0a0a70958" target="_top" xlink:title="Recalculate camera facing and fixed screen size.">
<polygon fill="white" stroke="#666666" points="336.5,-730 205.5,-730 205.5,-700 336.5,-700 336.5,-730"/>
<text text-anchor="start" x="213.5" y="-718" font-family="Roboto" font-size="10.00">Urho3D::Text3D::Calculate</text>
<text text-anchor="middle" x="271" y="-707" font-family="Roboto" font-size="10.00">FixedScreenSize</text>
</a>
</g>
</g>
<!-- Node1&#45;&gt;Node2 -->
<g id="edge1" class="edge">
<title>Node1&#45;&gt;Node2</title>
<path fill="none" stroke="#63b8ff" d="M95.74,-575.78C125.19,-599.31 200.66,-659.61 241.96,-692.6"/>
<polygon fill="#63b8ff" stroke="#63b8ff" points="239.53,-695.14 249.53,-698.64 243.9,-689.67 239.53,-695.14"/>
</g>
<!-- Node32 -->
<g id="node11" class="node">
<title>Node32</title>
<g id="a_node11"><a xlink:href="class_urho3_d_1_1_geometry.html#aeb6ac4fb32bebb05e54fac9a1d44da69" target="_top" xlink:title="Set the draw range.">
<polygon fill="white" stroke="#666666" points="341,-624 201,-624 201,-594 341,-594 341,-624"/>
<text text-anchor="start" x="209" y="-612" font-family="Roboto" font-size="10.00">Urho3D::Geometry::SetDraw</text>
<text text-anchor="middle" x="271" y="-601" font-family="Roboto" font-size="10.00">Range</text>
</a>
</g>
</g>
<!-- Node1&#45;&gt;Node32 -->
<g id="edge12" class="edge">
<title>Node1&#45;&gt;Node32</title>
<path fill="none" stroke="#63b8ff" d="M126.76,-575.97C146.09,-580.43 169.49,-585.83 191.72,-590.95"/>
<polygon fill="#63b8ff" stroke="#63b8ff" points="190.86,-594.35 201.39,-593.18 192.43,-587.52 190.86,-594.35"/>
</g>
<!-- Node33 -->
<g id="node12" class="node">
<title>Node33</title>
<g id="a_node12"><a xlink:href="class_urho3_d_1_1_p_o_d_vector.html#ab1ba347a0118ed7d9ef79f3026153c88" target="_top" xlink:title="Return number of elements.">
<polygon fill="white" stroke="#666666" points="725,-537.5 598,-537.5 598,-518.5 725,-518.5 725,-537.5"/>
<text text-anchor="middle" x="661.5" y="-525.5" font-family="Roboto" font-size="10.00">Urho3D::PODVector::Size</text>
</a>
</g>
</g>
<!-- Node1&#45;&gt;Node33 -->
<g id="edge13" class="edge">
<title>Node1&#45;&gt;Node33</title>
<path fill="none" stroke="#63b8ff" d="M165.1,-562.53C257.21,-558.36 411.5,-550.56 544,-540 557.75,-538.9 572.4,-537.55 586.5,-536.14"/>
<polygon fill="#63b8ff" stroke="#63b8ff" points="586.57,-539.65 596.16,-535.16 585.86,-532.69 586.57,-539.65"/>
</g>
<!-- Node34 -->
<g id="node13" class="node">
<title>Node34</title>
<g id="a_node13"><a xlink:href="class_urho3_d_1_1_text3_d.html#a1f643feab9477ca50a084501df1a8e3b" target="_top" xlink:title="Update text UI batches.">
<polygon fill="white" stroke="#666666" points="341,-361 201,-361 201,-331 341,-331 341,-361"/>
<text text-anchor="start" x="209" y="-349" font-family="Roboto" font-size="10.00">Urho3D::Text3D::UpdateText</text>
<text text-anchor="middle" x="271" y="-338" font-family="Roboto" font-size="10.00">Batches</text>
</a>
</g>
</g>
<!-- Node1&#45;&gt;Node34 -->
<g id="edge14" class="edge">
<title>Node1&#45;&gt;Node34</title>
<path fill="none" stroke="#63b8ff" d="M91.75,-556.26C119.37,-523.69 209.08,-417.86 249.69,-369.96"/>
<polygon fill="#63b8ff" stroke="#63b8ff" points="252.13,-372.49 255.92,-362.6 246.79,-367.97 252.13,-372.49"/>
</g>
<!-- Node91 -->
<g id="node23" class="node">
<title>Node91</title>
<g id="a_node23"><a xlink:href="class_urho3_d_1_1_text3_d.html#a63bf86fc02caa281fb5fc8a54356abfb" target="_top" xlink:title="Create materials for text rendering. May only be called from the main thread. Text UI batches must be...">
<polygon fill="#fff0f0" stroke="red" points="341,-78 201,-78 201,-48 341,-48 341,-78"/>
<text text-anchor="start" x="209" y="-66" font-family="Roboto" font-size="10.00">Urho3D::Text3D::UpdateText</text>
<text text-anchor="middle" x="271" y="-55" font-family="Roboto" font-size="10.00">Materials</text>
</a>
</g>
</g>
<!-- Node1&#45;&gt;Node91 -->
<g id="edge26" class="edge">
<title>Node1&#45;&gt;Node91</title>
<path fill="none" stroke="#63b8ff" d="M87.06,-556.4C108.96,-497.33 225.65,-182.62 260.29,-89.18"/>
<polygon fill="#63b8ff" stroke="#63b8ff" points="263.55,-90.45 263.75,-79.86 256.99,-88.02 263.55,-90.45"/>
</g>
<!-- Node3 -->
<g id="node3" class="node">
<title>Node3</title>
<g id="a_node3"><a xlink:href="class_urho3_d_1_1_camera.html#a550d2bdf61207a877e5ecf7bbb6e247e" target="_top" xlink:title="Return a world rotation for facing a camera on certain axes based on the existing world rotation.">
<polygon fill="#fff0f0" stroke="red" points="542.5,-848 378.5,-848 378.5,-818 542.5,-818 542.5,-848"/>
<text text-anchor="start" x="386.5" y="-836" font-family="Roboto" font-size="10.00">Urho3D::Camera::GetFaceCamera</text>
<text text-anchor="middle" x="460.5" y="-825" font-family="Roboto" font-size="10.00">Rotation</text>
</a>
</g>
</g>
<!-- Node2&#45;&gt;Node3 -->
<g id="edge2" class="edge">
<title>Node2&#45;&gt;Node3</title>
<path fill="none" stroke="#63b8ff" d="M286.31,-730.18C305.38,-749.64 340.93,-783.32 377,-804 382.96,-807.42 389.4,-810.54 395.95,-813.35"/>
<polygon fill="#63b8ff" stroke="#63b8ff" points="394.31,-816.46 404.89,-816.96 396.93,-809.97 394.31,-816.46"/>
</g>
<!-- Node22 -->
<g id="node4" class="node">
<title>Node22</title>
<g id="a_node4"><a xlink:href="class_urho3_d_1_1_node.html#a8f3fe7808b7af4975ddb21be8a269ece" target="_top" xlink:title=" ">
<polygon fill="white" stroke="#666666" points="742.5,-863.5 580.5,-863.5 580.5,-844.5 742.5,-844.5 742.5,-863.5"/>
<text text-anchor="middle" x="661.5" y="-851.5" font-family="Roboto" font-size="10.00">Urho3D::Node::GetWorldPosition</text>
</a>
</g>
</g>
<!-- Node2&#45;&gt;Node22 -->
<g id="edge8" class="edge">
<title>Node2&#45;&gt;Node22</title>
<path fill="none" stroke="#63b8ff" d="M277.76,-730.29C290.3,-761.08 323.34,-829.94 377,-857 453.43,-895.54 556.85,-880.33 615.32,-866.62"/>
<polygon fill="#63b8ff" stroke="#63b8ff" points="616.04,-870.04 624.92,-864.27 614.37,-863.25 616.04,-870.04"/>
</g>
<!-- Node23 -->
<g id="node5" class="node">
<title>Node23</title>
<g id="a_node5"><a xlink:href="class_urho3_d_1_1_node.html#ad74175e15dfaa86263299e355a2d49ed" target="_top" xlink:title=" ">
<polygon fill="white" stroke="#666666" points="743,-812.5 580,-812.5 580,-793.5 743,-793.5 743,-812.5"/>
<text text-anchor="middle" x="661.5" y="-800.5" font-family="Roboto" font-size="10.00">Urho3D::Node::GetWorldRotation</text>
</a>
</g>
</g>
<!-- Node2&#45;&gt;Node23 -->
<g id="edge9" class="edge">
<title>Node2&#45;&gt;Node23</title>
<path fill="none" stroke="#63b8ff" d="M294.65,-730.35C315.2,-743.45 346.81,-761.62 377,-771 439.06,-790.28 511.98,-798.2 568.32,-801.34"/>
<polygon fill="#63b8ff" stroke="#63b8ff" points="568.05,-804.84 578.21,-801.85 568.41,-797.84 568.05,-804.84"/>
</g>
<!-- Node24 -->
<g id="node6" class="node">
<title>Node24</title>
<g id="a_node6"><a xlink:href="class_urho3_d_1_1_camera.html#a0fd32e1ea1548d47099dfa40e72653dc" target="_top" xlink:title=" ">
<polygon fill="white" stroke="#666666" points="544,-761.5 377,-761.5 377,-742.5 544,-742.5 544,-761.5"/>
<text text-anchor="middle" x="460.5" y="-749.5" font-family="Roboto" font-size="10.00">Urho3D::Camera::GetHalfViewSize</text>
</a>
</g>
</g>
<!-- Node2&#45;&gt;Node24 -->
<g id="edge5" class="edge">
<title>Node2&#45;&gt;Node24</title>
<path fill="none" stroke="#63b8ff" d="M336.79,-727.79C356.52,-731.68 378.15,-735.95 397.68,-739.8"/>
<polygon fill="#63b8ff" stroke="#63b8ff" points="396.94,-743.22 407.42,-741.72 398.29,-736.35 396.94,-743.22"/>
</g>
<!-- Node25 -->
<g id="node7" class="node">
<title>Node25</title>
<g id="a_node7"><a xlink:href="class_urho3_d_1_1_camera.html#ad705a7447b5db893eb5642f0d05c02ca" target="_top" xlink:title=" ">
<polygon fill="#fff0f0" stroke="red" points="537,-724.5 384,-724.5 384,-705.5 537,-705.5 537,-724.5"/>
<text text-anchor="middle" x="460.5" y="-712.5" font-family="Roboto" font-size="10.00">Urho3D::Camera::GetProjection</text>
</a>
</g>
</g>
<!-- Node2&#45;&gt;Node25 -->
<g id="edge6" class="edge">
<title>Node2&#45;&gt;Node25</title>
<path fill="none" stroke="#63b8ff" d="M336.79,-715C348.26,-715 360.37,-715 372.34,-715"/>
<polygon fill="#63b8ff" stroke="#63b8ff" points="372.23,-718.5 382.23,-715 372.23,-711.5 372.23,-718.5"/>
</g>
<!-- Node27 -->
<g id="node8" class="node">
<title>Node27</title>
<g id="a_node8"><a xlink:href="class_urho3_d_1_1_camera.html#a86a2e6d78d0ac6c20e043ada2f573401" target="_top" xlink:title=" ">
<polygon fill="#fff0f0" stroke="red" points="525.5,-687.5 395.5,-687.5 395.5,-668.5 525.5,-668.5 525.5,-687.5"/>
<text text-anchor="middle" x="460.5" y="-675.5" font-family="Roboto" font-size="10.00">Urho3D::Camera::GetView</text>
</a>
</g>
</g>
<!-- Node2&#45;&gt;Node27 -->
<g id="edge7" class="edge">
<title>Node2&#45;&gt;Node27</title>
<path fill="none" stroke="#63b8ff" d="M336.79,-702.21C356.52,-698.32 378.15,-694.05 397.68,-690.2"/>
<polygon fill="#63b8ff" stroke="#63b8ff" points="398.29,-693.65 407.42,-688.28 396.94,-686.78 398.29,-693.65"/>
</g>
<!-- Node30 -->
<g id="node9" class="node">
<title>Node30</title>
<g id="a_node9"><a xlink:href="class_urho3_d_1_1_node.html#a8ae450b752efd7da057b842882d28a23" target="_top" xlink:title=" ">
<polygon fill="white" stroke="#666666" points="535.5,-650.5 385.5,-650.5 385.5,-631.5 535.5,-631.5 535.5,-650.5"/>
<text text-anchor="middle" x="460.5" y="-638.5" font-family="Roboto" font-size="10.00">Urho3D::Node::GetWorldScale</text>
</a>
</g>
</g>
<!-- Node2&#45;&gt;Node30 -->
<g id="edge10" class="edge">
<title>Node2&#45;&gt;Node30</title>
<path fill="none" stroke="#63b8ff" d="M297.04,-699.54C317.81,-687.3 348.44,-670.57 377,-660 383.09,-657.75 389.54,-655.7 396.04,-653.87"/>
<polygon fill="#63b8ff" stroke="#63b8ff" points="396.74,-657.3 405.51,-651.36 394.95,-650.53 396.74,-657.3"/>
</g>
<!-- Node31 -->
<g id="node10" class="node">
<title>Node31</title>
<g id="a_node10"><a xlink:href="class_urho3_d_1_1_camera.html#acab170a8af63b2c412a908c52f43139c" target="_top" xlink:title=" ">
<polygon fill="white" stroke="#666666" points="539.5,-613.5 381.5,-613.5 381.5,-594.5 539.5,-594.5 539.5,-613.5"/>
<text text-anchor="middle" x="460.5" y="-601.5" font-family="Roboto" font-size="10.00">Urho3D::Camera::IsOrthographic</text>
</a>
</g>
</g>
<!-- Node2&#45;&gt;Node31 -->
<g id="edge11" class="edge">
<title>Node2&#45;&gt;Node31</title>
<path fill="none" stroke="#63b8ff" d="M284.92,-699.71C303.24,-679.04 338.81,-642.54 377,-623 380.94,-620.99 385.09,-619.18 389.34,-617.57"/>
<polygon fill="#63b8ff" stroke="#63b8ff" points="390.31,-620.94 398.66,-614.42 388.07,-614.31 390.31,-620.94"/>
</g>
<!-- Node3&#45;&gt;Node22 -->
<g id="edge3" class="edge">
<title>Node3&#45;&gt;Node22</title>
<path fill="none" stroke="#63b8ff" d="M542.73,-841.57C551.32,-842.48 560.1,-843.41 568.81,-844.32"/>
<polygon fill="#63b8ff" stroke="#63b8ff" points="568.36,-847.8 578.67,-845.36 569.09,-840.83 568.36,-847.8"/>
</g>
<!-- Node3&#45;&gt;Node23 -->
<g id="edge4" class="edge">
<title>Node3&#45;&gt;Node23</title>
<path fill="none" stroke="#63b8ff" d="M542.73,-820.75C556.16,-818.73 570.06,-816.63 583.39,-814.63"/>
<polygon fill="#63b8ff" stroke="#63b8ff" points="583.56,-818.14 592.93,-813.19 582.52,-811.22 583.56,-818.14"/>
</g>
<!-- Node34&#45;&gt;Node33 -->
<g id="edge25" class="edge">
<title>Node34&#45;&gt;Node33</title>
<path fill="none" stroke="#63b8ff" d="M276.63,-361.33C287.7,-394.95 319.15,-474.89 377,-509 443.37,-548.13 534.28,-546.59 595.08,-539.43"/>
<polygon fill="#63b8ff" stroke="#63b8ff" points="595.47,-542.91 604.94,-538.18 594.58,-535.97 595.47,-542.91"/>
</g>
<!-- Node35 -->
<g id="node14" class="node">
<title>Node35</title>
<g id="a_node14"><a xlink:href="class_urho3_d_1_1_p_o_d_vector.html#a56e61cb5b8216360fd62b20eb78b5faf" target="_top" xlink:title="Clear the vector.">
<polygon fill="#fff0f0" stroke="red" points="514.5,-500 406.5,-500 406.5,-470 514.5,-470 514.5,-500"/>
<text text-anchor="start" x="414.5" y="-488" font-family="Roboto" font-size="10.00">Urho3D::PODVector::</text>
<text text-anchor="middle" x="460.5" y="-477" font-family="Roboto" font-size="10.00">Clear</text>
</a>
</g>
</g>
<!-- Node34&#45;&gt;Node35 -->
<g id="edge15" class="edge">
<title>Node34&#45;&gt;Node35</title>
<path fill="none" stroke="#63b8ff" d="M281.68,-361.13C298.23,-385.76 334.31,-434.42 377,-461 382.82,-464.62 389.2,-467.72 395.77,-470.36"/>
<polygon fill="#63b8ff" stroke="#63b8ff" points="394.15,-473.5 404.75,-473.63 396.55,-466.92 394.15,-473.5"/>
</g>
<!-- Node39 -->
<g id="node15" class="node">
<title>Node39</title>
<g id="a_node15"><a xlink:href="class_urho3_d_1_1_bounding_box.html#afef3c1bfa3910387adb4f5992371a8dd" target="_top" xlink:title="Clear to undefined state.">
<polygon fill="white" stroke="#666666" points="517,-452 404,-452 404,-422 517,-422 517,-452"/>
<text text-anchor="start" x="412" y="-440" font-family="Roboto" font-size="10.00">Urho3D::BoundingBox</text>
<text text-anchor="middle" x="460.5" y="-429" font-family="Roboto" font-size="10.00">::Clear</text>
</a>
</g>
</g>
<!-- Node34&#45;&gt;Node39 -->
<g id="edge16" class="edge">
<title>Node34&#45;&gt;Node39</title>
<path fill="none" stroke="#63b8ff" d="M292.31,-361.45C312.76,-376.4 345.68,-398.81 377,-413 382.13,-415.33 387.55,-417.49 393.05,-419.49"/>
<polygon fill="#63b8ff" stroke="#63b8ff" points="391.66,-422.71 402.25,-422.63 393.92,-416.08 391.66,-422.71"/>
</g>
<!-- Node40 -->
<g id="node16" class="node">
<title>Node40</title>
<g id="a_node16"><a xlink:href="class_urho3_d_1_1_bounding_box.html#afd34713236804d7207ce7fd709e99db9" target="_top" xlink:title="Define from another bounding box.">
<polygon fill="white" stroke="#666666" points="517,-404 404,-404 404,-374 517,-374 517,-404"/>
<text text-anchor="start" x="412" y="-392" font-family="Roboto" font-size="10.00">Urho3D::BoundingBox</text>
<text text-anchor="middle" x="460.5" y="-381" font-family="Roboto" font-size="10.00">::Define</text>
</a>
</g>
</g>
<!-- Node34&#45;&gt;Node40 -->
<g id="edge17" class="edge">
<title>Node34&#45;&gt;Node40</title>
<path fill="none" stroke="#63b8ff" d="M339.43,-361.46C356.74,-365.43 375.35,-369.7 392.63,-373.67"/>
<polygon fill="#63b8ff" stroke="#63b8ff" points="391.77,-377.06 402.3,-375.88 393.33,-370.23 391.77,-377.06"/>
</g>
<!-- Node41 -->
<g id="node17" class="node">
<title>Node41</title>
<g id="a_node17"><a xlink:href="class_urho3_d_1_1_text.html#ad553fd06643ea9dbbf0c18cbee39d9f0" target="_top" xlink:title="Return UI rendering batches.">
<polygon fill="#fff0f0" stroke="red" points="524.5,-355.5 396.5,-355.5 396.5,-336.5 524.5,-336.5 524.5,-355.5"/>
<text text-anchor="middle" x="460.5" y="-343.5" font-family="Roboto" font-size="10.00">Urho3D::Text::GetBatches</text>
</a>
</g>
</g>
<!-- Node34&#45;&gt;Node41 -->
<g id="edge18" class="edge">
<title>Node34&#45;&gt;Node41</title>
<path fill="none" stroke="#63b8ff" d="M341.29,-346C355.44,-346 370.4,-346 384.74,-346"/>
<polygon fill="#63b8ff" stroke="#63b8ff" points="384.57,-349.5 394.57,-346 384.57,-342.5 384.57,-349.5"/>
</g>
<!-- Node64 -->
<g id="node18" class="node">
<title>Node64</title>
<g id="a_node18"><a xlink:href="class_urho3_d_1_1_u_i_element.html#a74426efba577c8b92f7b49c307d7a446" target="_top" xlink:title=" ">
<polygon fill="white" stroke="#666666" points="513,-318 408,-318 408,-288 513,-288 513,-318"/>
<text text-anchor="start" x="416" y="-306" font-family="Roboto" font-size="10.00">Urho3D::UIElement::</text>
<text text-anchor="middle" x="460.5" y="-295" font-family="Roboto" font-size="10.00">GetHeight</text>
</a>
</g>
</g>
<!-- Node34&#45;&gt;Node64 -->
<g id="edge20" class="edge">
<title>Node34&#45;&gt;Node64</title>
<path fill="none" stroke="#63b8ff" d="M339.43,-330.54C358.03,-326.27 378.14,-321.66 396.49,-317.45"/>
<polygon fill="#63b8ff" stroke="#63b8ff" points="397.22,-320.87 406.18,-315.23 395.65,-314.05 397.22,-320.87"/>
</g>
<!-- Node88 -->
<g id="node19" class="node">
<title>Node88</title>
<g id="a_node19"><a xlink:href="class_urho3_d_1_1_u_i_element.html#abd9eb79eba9f209d93cb101eb21c4574" target="_top" xlink:title=" ">
<polygon fill="white" stroke="#666666" points="521.5,-270 399.5,-270 399.5,-240 521.5,-240 521.5,-270"/>
<text text-anchor="start" x="407.5" y="-258" font-family="Roboto" font-size="10.00">Urho3D::UIElement::</text>
<text text-anchor="middle" x="460.5" y="-247" font-family="Roboto" font-size="10.00">GetHorizontalAlignment</text>
</a>
</g>
</g>
<!-- Node34&#45;&gt;Node88 -->
<g id="edge21" class="edge">
<title>Node34&#45;&gt;Node88</title>
<path fill="none" stroke="#63b8ff" d="M292.31,-330.55C312.76,-315.6 345.68,-293.19 377,-279 380.75,-277.3 384.66,-275.69 388.64,-274.16"/>
<polygon fill="#63b8ff" stroke="#63b8ff" points="389.64,-277.52 397.86,-270.84 387.27,-270.93 389.64,-277.52"/>
</g>
<!-- Node89 -->
<g id="node20" class="node">
<title>Node89</title>
<g id="a_node20"><a xlink:href="class_urho3_d_1_1_u_i_element.html#a81a39a64719e35a717960bd631275827" target="_top" xlink:title=" ">
<polygon fill="white" stroke="#666666" points="515,-222 406,-222 406,-192 515,-192 515,-222"/>
<text text-anchor="start" x="414" y="-210" font-family="Roboto" font-size="10.00">Urho3D::UIElement::</text>
<text text-anchor="middle" x="460.5" y="-199" font-family="Roboto" font-size="10.00">GetVerticalAlignment</text>
</a>
</g>
</g>
<!-- Node34&#45;&gt;Node89 -->
<g id="edge22" class="edge">
<title>Node34&#45;&gt;Node89</title>
<path fill="none" stroke="#63b8ff" d="M281.68,-330.87C298.23,-306.24 334.31,-257.58 377,-231 382.6,-227.51 388.72,-224.52 395.02,-221.94"/>
<polygon fill="#63b8ff" stroke="#63b8ff" points="396.14,-225.26 404.31,-218.52 393.72,-218.69 396.14,-225.26"/>
</g>
<!-- Node65 -->
<g id="node21" class="node">
<title>Node65</title>
<g id="a_node21"><a xlink:href="class_urho3_d_1_1_u_i_element.html#a8c3df9a7b24aa874345db797a95e130e" target="_top" xlink:title=" ">
<polygon fill="white" stroke="#666666" points="513,-174 408,-174 408,-144 513,-144 513,-174"/>
<text text-anchor="start" x="416" y="-162" font-family="Roboto" font-size="10.00">Urho3D::UIElement::</text>
<text text-anchor="middle" x="460.5" y="-151" font-family="Roboto" font-size="10.00">GetWidth</text>
</a>
</g>
</g>
<!-- Node34&#45;&gt;Node65 -->
<g id="edge23" class="edge">
<title>Node34&#45;&gt;Node65</title>
<path fill="none" stroke="#63b8ff" d="M277.5,-330.83C289.98,-298.56 323.57,-222.85 377,-183 383.03,-178.51 389.88,-174.85 396.99,-171.88"/>
<polygon fill="#63b8ff" stroke="#63b8ff" points="397.95,-175.26 406.12,-168.52 395.53,-168.69 397.95,-175.26"/>
</g>
<!-- Node90 -->
<g id="node22" class="node">
<title>Node90</title>
<g id="a_node22"><a xlink:href="class_urho3_d_1_1_bounding_box.html#a4befcf3c67e94eb2f1924e1179b09bd2" target="_top" xlink:title="Merge a point.">
<polygon fill="white" stroke="#666666" points="517,-126 404,-126 404,-96 517,-96 517,-126"/>
<text text-anchor="start" x="412" y="-114" font-family="Roboto" font-size="10.00">Urho3D::BoundingBox</text>
<text text-anchor="middle" x="460.5" y="-103" font-family="Roboto" font-size="10.00">::Merge</text>
</a>
</g>
</g>
<!-- Node34&#45;&gt;Node90 -->
<g id="edge24" class="edge">
<title>Node34&#45;&gt;Node90</title>
<path fill="none" stroke="#63b8ff" d="M275.18,-330.62C284.02,-291.73 312.63,-188.78 377,-135 381.79,-130.99 387.23,-127.66 392.96,-124.88"/>
<polygon fill="#63b8ff" stroke="#63b8ff" points="394.27,-128.12 402.14,-121.03 391.56,-121.67 394.27,-128.12"/>
</g>
<!-- Node41&#45;&gt;Node33 -->
<g id="edge19" class="edge">
<title>Node41&#45;&gt;Node33</title>
<path fill="none" stroke="#63b8ff" d="M524.76,-355.49C531.56,-357.97 538.13,-361.08 544,-365 598.59,-401.42 636,-472.69 651.89,-507.66"/>
<polygon fill="#63b8ff" stroke="#63b8ff" points="648.61,-508.9 655.84,-516.64 655.02,-506.08 648.61,-508.9"/>
</g>
<!-- Node92 -->
<g id="node24" class="node">
<title>Node92</title>
<g id="a_node24"><a xlink:href="class_urho3_d_1_1_graphics.html#a161673ebd757f36216d04199959e917f" target="_top" xlink:title="Return the API&#45;specific alpha texture format.">
<polygon fill="white" stroke="#666666" points="529,-78 392,-78 392,-48 529,-48 529,-78"/>
<text text-anchor="start" x="400" y="-66" font-family="Roboto" font-size="10.00">Urho3D::Graphics::GetAlpha</text>
<text text-anchor="middle" x="460.5" y="-55" font-family="Roboto" font-size="10.00">Format</text>
</a>
</g>
</g>
<!-- Node91&#45;&gt;Node92 -->
<g id="edge27" class="edge">
<title>Node91&#45;&gt;Node92</title>
<path fill="none" stroke="#63b8ff" d="M341.29,-63C354.03,-63 367.43,-63 380.44,-63"/>
<polygon fill="#63b8ff" stroke="#63b8ff" points="380.23,-66.5 390.23,-63 380.23,-59.5 380.23,-66.5"/>
</g>
<!-- Node93 -->
<g id="node25" class="node">
<title>Node93</title>
<g id="a_node25"><a xlink:href="class_urho3_d_1_1_text3_d.html#ab66b231955992f3d761c1770483315c5" target="_top" xlink:title=" ">
<polygon fill="#fff0f0" stroke="red" points="526,-30 395,-30 395,0 526,0 526,-30"/>
<text text-anchor="start" x="403" y="-18" font-family="Roboto" font-size="10.00">Urho3D::Text3D::GetEffect</text>
<text text-anchor="middle" x="460.5" y="-7" font-family="Roboto" font-size="10.00">Color</text>
</a>
</g>
</g>
<!-- Node91&#45;&gt;Node93 -->
<g id="edge28" class="edge">
<title>Node91&#45;&gt;Node93</title>
<path fill="none" stroke="#63b8ff" d="M332.36,-47.55C350.17,-42.99 369.84,-37.95 388.27,-33.24"/>
<polygon fill="#63b8ff" stroke="#63b8ff" points="388.97,-36.67 397.79,-30.8 387.23,-29.89 388.97,-36.67"/>
</g>
</g>
</svg>
