<?xml version="1.0" encoding="UTF-8" standalone="no"?>
<!DOCTYPE svg PUBLIC "-//W3C//DTD SVG 1.1//EN"
 "http://www.w3.org/Graphics/SVG/1.1/DTD/svg11.dtd">
<!-- Generated by graphviz version 7.0.3 (0)
 -->
<!-- Title: Urho3D::Sound::GetFrequency Pages: 1 -->
<svg width="606pt" height="134pt"
 viewBox="0.00 0.00 606.00 134.00" xmlns="http://www.w3.org/2000/svg" xmlns:xlink="http://www.w3.org/1999/xlink">
<g id="graph0" class="graph" transform="scale(1 1) rotate(0) translate(4 130)">
<title>Urho3D::Sound::GetFrequency</title>
<!-- Node1 -->
<g id="node1" class="node">
<title>Node1</title>
<g id="a_node1"><a xlink:title=" ">
<polygon fill="#999999" stroke="#666666" points="598,-72.5 450,-72.5 450,-53.5 598,-53.5 598,-72.5"/>
<text text-anchor="middle" x="524" y="-60.5" font-family="Roboto" font-size="10.00">Urho3D::Sound::GetFrequency</text>
</a>
</g>
</g>
<!-- Node2 -->
<g id="node2" class="node">
<title>Node2</title>
<g id="a_node2"><a xlink:href="class_urho3_d_1_1_sound_source.html#a9c43c6bb72c0cc5f5f75e6d3c443fc5b" target="_top" xlink:title="Play a sound.">
<polygon fill="white" stroke="#666666" points="414,-78 300,-78 300,-48 414,-48 414,-78"/>
<text text-anchor="start" x="308" y="-66" font-family="Roboto" font-size="10.00">Urho3D::SoundSource</text>
<text text-anchor="middle" x="357" y="-55" font-family="Roboto" font-size="10.00">::Play</text>
</a>
</g>
</g>
<!-- Node1&#45;&gt;Node2 -->
<g id="edge1" class="edge">
<title>Node1&#45;&gt;Node2</title>
<path fill="none" stroke="#63b8ff" d="M438.21,-63C430.09,-63 422.01,-63 414.27,-63"/>
<polygon fill="#63b8ff" stroke="#63b8ff" points="438.15,-66.5 448.15,-63 438.15,-59.5 438.15,-66.5"/>
</g>
<!-- Node3 -->
<g id="node3" class="node">
<title>Node3</title>
<g id="a_node3"><a xlink:href="class_urho3_d_1_1_sound_source.html#a47017bb872474bed5073a5b1b411fe13" target="_top" xlink:title="Play a sound with specified frequency.">
<polygon fill="white" stroke="#666666" points="264,-126 150,-126 150,-96 264,-96 264,-126"/>
<text text-anchor="start" x="158" y="-114" font-family="Roboto" font-size="10.00">Urho3D::SoundSource</text>
<text text-anchor="middle" x="207" y="-103" font-family="Roboto" font-size="10.00">::Play</text>
</a>
</g>
</g>
<!-- Node2&#45;&gt;Node3 -->
<g id="edge2" class="edge">
<title>Node2&#45;&gt;Node3</title>
<path fill="none" stroke="#63b8ff" d="M297.42,-82C283.53,-86.5 268.88,-91.25 255.55,-95.58"/>
<polygon fill="#63b8ff" stroke="#63b8ff" points="298.49,-85.33 306.92,-78.92 296.33,-78.67 298.49,-85.33"/>
</g>
<!-- Node4 -->
<g id="node4" class="node">
<title>Node4</title>
<g id="a_node4"><a xlink:href="class_urho3_d_1_1_sound_source.html#ae5226226b14c06cc1e186a48d0eed0eb" target="_top" xlink:title="Set sound playing attribute.">
<polygon fill="white" stroke="#666666" points="264,-78 150,-78 150,-48 264,-48 264,-78"/>
<text text-anchor="start" x="158" y="-66" font-family="Roboto" font-size="10.00">Urho3D::SoundSource</text>
<text text-anchor="middle" x="207" y="-55" font-family="Roboto" font-size="10.00">::SetPlayingAttr</text>
</a>
</g>
</g>
<!-- Node2&#45;&gt;Node4 -->
<g id="edge3" class="edge">
<title>Node2&#45;&gt;Node4</title>
<path fill="none" stroke="#63b8ff" d="M288.33,-63C280.26,-63 272.1,-63 264.22,-63"/>
<polygon fill="#63b8ff" stroke="#63b8ff" points="288.11,-66.5 298.11,-63 288.11,-59.5 288.11,-66.5"/>
</g>
<!-- Node6 -->
<g id="node6" class="node">
<title>Node6</title>
<g id="a_node6"><a xlink:href="class_urho3_d_1_1_sound_source.html#a1118ae914cf066d769551dac6df4c0d6" target="_top" xlink:title="Set sound attribute.">
<polygon fill="white" stroke="#666666" points="264,-30 150,-30 150,0 264,0 264,-30"/>
<text text-anchor="start" x="158" y="-18" font-family="Roboto" font-size="10.00">Urho3D::SoundSource</text>
<text text-anchor="middle" x="207" y="-7" font-family="Roboto" font-size="10.00">::SetSoundAttr</text>
</a>
</g>
</g>
<!-- Node2&#45;&gt;Node6 -->
<g id="edge5" class="edge">
<title>Node2&#45;&gt;Node6</title>
<path fill="none" stroke="#63b8ff" d="M297.42,-44C283.53,-39.5 268.88,-34.75 255.55,-30.42"/>
<polygon fill="#63b8ff" stroke="#63b8ff" points="296.33,-47.33 306.92,-47.08 298.49,-40.67 296.33,-47.33"/>
</g>
<!-- Node5 -->
<g id="node5" class="node">
<title>Node5</title>
<g id="a_node5"><a xlink:href="class_urho3_d_1_1_sound_source.html#aae9a850fca6b040a1162784c48305014" target="_top" xlink:title=" ">
<polygon fill="white" stroke="#666666" points="114,-54 0,-54 0,-24 114,-24 114,-54"/>
<text text-anchor="start" x="8" y="-42" font-family="Roboto" font-size="10.00">Urho3D::SoundSource</text>
<text text-anchor="middle" x="57" y="-31" font-family="Roboto" font-size="10.00">::RegisterObject</text>
</a>
</g>
</g>
<!-- Node4&#45;&gt;Node5 -->
<g id="edge4" class="edge">
<title>Node4&#45;&gt;Node5</title>
<path fill="none" stroke="#63b8ff" d="M138.33,-52.03C130.26,-50.72 122.1,-49.39 114.22,-48.12"/>
<polygon fill="#63b8ff" stroke="#63b8ff" points="137.7,-55.47 148.13,-53.62 138.82,-48.56 137.7,-55.47"/>
</g>
<!-- Node6&#45;&gt;Node5 -->
<g id="edge6" class="edge">
<title>Node6&#45;&gt;Node5</title>
<path fill="none" stroke="#63b8ff" d="M138.33,-25.97C130.26,-27.28 122.1,-28.61 114.22,-29.88"/>
<polygon fill="#63b8ff" stroke="#63b8ff" points="138.82,-29.44 148.13,-24.38 137.7,-22.53 138.82,-29.44"/>
</g>
</g>
</svg>
