<?xml version="1.0" encoding="UTF-8" standalone="no"?>
<!DOCTYPE svg PUBLIC "-//W3C//DTD SVG 1.1//EN"
 "http://www.w3.org/Graphics/SVG/1.1/DTD/svg11.dtd">
<!-- Generated by graphviz version 7.0.3 (0)
 -->
<!-- Title: Urho3D::LuaScript Pages: 1 -->
<svg width="1479pt" height="931pt"
 viewBox="0.00 0.00 1479.00 930.50" xmlns="http://www.w3.org/2000/svg" xmlns:xlink="http://www.w3.org/1999/xlink">
<g id="graph0" class="graph" transform="scale(1 1) rotate(0) translate(4 926.5)">
<title>Urho3D::LuaScript</title>
<!-- Node1 -->
<g id="node1" class="node">
<title>Node1</title>
<g id="a_node1"><a xlink:title="Lua script subsystem.">
<polygon fill="#999999" stroke="#666666" points="1471,-814 1375,-814 1375,-795 1471,-795 1471,-814"/>
<text text-anchor="middle" x="1423" y="-802" font-family="Roboto" font-size="10.00">Urho3D::LuaScript</text>
</a>
</g>
</g>
<!-- Node2 -->
<g id="node2" class="node">
<title>Node2</title>
<g id="a_node2"><a xlink:href="class_urho3_d_1_1_object.html" target="_top" xlink:title=" ">
<polygon fill="white" stroke="#666666" points="564.5,-755 481.5,-755 481.5,-736 564.5,-736 564.5,-755"/>
<text text-anchor="middle" x="523" y="-743" font-family="Roboto" font-size="10.00">Urho3D::Object</text>
</a>
</g>
</g>
<!-- Node2&#45;&gt;Node1 -->
<g id="edge1" class="edge">
<title>Node2&#45;&gt;Node1</title>
<path fill="none" stroke="#63b8ff" d="M575.98,-755.44C581.05,-756.22 586.11,-756.93 591,-757.5 887.72,-792.33 1247.18,-801.56 1374.51,-803.82"/>
<polygon fill="#63b8ff" stroke="#63b8ff" points="576.91,-752.05 566.48,-753.89 575.78,-758.96 576.91,-752.05"/>
</g>
<!-- Node18 -->
<g id="node15" class="node">
<title>Node18</title>
<g id="a_node15"><a xlink:href="class_urho3_d_1_1_event_handler.html" target="_top" xlink:title="Internal helper class for invoking event handler functions.">
<polygon fill="#fff0f0" stroke="red" points="884,-708 771,-708 771,-689 884,-689 884,-708"/>
<text text-anchor="middle" x="827.5" y="-696" font-family="Roboto" font-size="10.00">Urho3D::EventHandler</text>
</a>
</g>
</g>
<!-- Node2&#45;&gt;Node18 -->
<g id="edge21" class="edge">
<title>Node2&#45;&gt;Node18</title>
<path fill="none" stroke="#9a32cd" stroke-dasharray="5,2" d="M547.06,-729.28C559.48,-721.47 575.41,-712.87 591,-708.5 650.69,-691.75 722.21,-691.33 770.65,-693.77"/>
<polygon fill="#9a32cd" stroke="#9a32cd" points="545.24,-726.28 538.81,-734.7 549.09,-732.13 545.24,-726.28"/>
<text text-anchor="middle" x="645" y="-722.5" font-family="Roboto" font-size="10.00"> receiver_</text>
<text text-anchor="middle" x="645" y="-711.5" font-family="Roboto" font-size="10.00">sender_</text>
</g>
<!-- Node26 -->
<g id="node21" class="node">
<title>Node26</title>
<g id="a_node21"><a xlink:href="class_urho3_d_1_1_lua_script_event_invoker.html" target="_top" xlink:title="Lua script event invoker.">
<polygon fill="white" stroke="#666666" points="903.5,-836 751.5,-836 751.5,-817 903.5,-817 903.5,-836"/>
<text text-anchor="middle" x="827.5" y="-824" font-family="Roboto" font-size="10.00">Urho3D::LuaScriptEventInvoker</text>
</a>
</g>
</g>
<!-- Node2&#45;&gt;Node26 -->
<g id="edge31" class="edge">
<title>Node2&#45;&gt;Node26</title>
<path fill="none" stroke="#63b8ff" d="M557.11,-760.61C562.68,-763.83 568.2,-767.48 573,-771.5 582.95,-779.84 579.74,-788.04 591,-794.5 617.62,-809.77 692.81,-818.1 751.15,-822.4"/>
<polygon fill="#63b8ff" stroke="#63b8ff" points="558.99,-757.65 548.52,-756.02 555.7,-763.82 558.99,-757.65"/>
</g>
<!-- Node3 -->
<g id="node3" class="node">
<title>Node3</title>
<g id="a_node3"><a xlink:href="class_urho3_d_1_1_ref_counted.html" target="_top" xlink:title="Base class for intrusively reference&#45;counted objects. These are noncopyable and non&#45;assignable.">
<polygon fill="white" stroke="#666666" points="294,-771 187,-771 187,-752 294,-752 294,-771"/>
<text text-anchor="middle" x="240.5" y="-759" font-family="Roboto" font-size="10.00">Urho3D::RefCounted</text>
</a>
</g>
</g>
<!-- Node3&#45;&gt;Node2 -->
<g id="edge2" class="edge">
<title>Node3&#45;&gt;Node2</title>
<path fill="none" stroke="#63b8ff" d="M305.44,-757.85C359.46,-754.77 435.2,-750.45 481.3,-747.82"/>
<polygon fill="#63b8ff" stroke="#63b8ff" points="305.56,-754.34 295.77,-758.4 305.95,-761.33 305.56,-754.34"/>
</g>
<!-- Node5 -->
<g id="node5" class="node">
<title>Node5</title>
<g id="a_node5"><a xlink:href="class_urho3_d_1_1_context.html" target="_top" xlink:title="Urho3D execution context. Provides access to subsystems, object factories and attributes,...">
<polygon fill="white" stroke="#666666" points="1238.5,-455 1149.5,-455 1149.5,-436 1238.5,-436 1238.5,-455"/>
<text text-anchor="middle" x="1194" y="-443" font-family="Roboto" font-size="10.00">Urho3D::Context</text>
</a>
</g>
</g>
<!-- Node3&#45;&gt;Node5 -->
<g id="edge5" class="edge">
<title>Node3&#45;&gt;Node5</title>
<path fill="none" stroke="#63b8ff" d="M273.12,-746.89C333.67,-719.4 470.68,-659.5 591,-623.5 810.21,-557.91 886.34,-612.39 1095,-518.5 1130.99,-502.31 1166.41,-471.11 1183.1,-455.26"/>
<polygon fill="#63b8ff" stroke="#63b8ff" points="271.75,-743.67 264.1,-751.01 274.65,-750.04 271.75,-743.67"/>
</g>
<!-- Node105 -->
<g id="node23" class="node">
<title>Node105</title>
<g id="a_node23"><a xlink:href="class_urho3_d_1_1_lua_function.html" target="_top" xlink:title="C++ representation of Lua function object.">
<polygon fill="white" stroke="#666666" points="699,-892 591,-892 591,-873 699,-873 699,-892"/>
<text text-anchor="middle" x="645" y="-880" font-family="Roboto" font-size="10.00">Urho3D::LuaFunction</text>
</a>
</g>
</g>
<!-- Node3&#45;&gt;Node105 -->
<g id="edge35" class="edge">
<title>Node3&#45;&gt;Node105</title>
<path fill="none" stroke="#63b8ff" d="M305.53,-768.49C388.17,-778.23 526.82,-797.22 573,-819.5 599.72,-832.39 623.96,-858.3 636.01,-872.55"/>
<polygon fill="#63b8ff" stroke="#63b8ff" points="306.1,-765.03 295.76,-767.35 305.29,-771.99 306.1,-765.03"/>
</g>
<!-- Node4 -->
<g id="node4" class="node">
<title>Node4</title>
<g id="a_node4"><a xlink:href="struct_urho3_d_1_1_ref_count.html" target="_top" xlink:title="Reference count structure.">
<polygon fill="white" stroke="#666666" points="96,-799 0,-799 0,-780 96,-780 96,-799"/>
<text text-anchor="middle" x="48" y="-787" font-family="Roboto" font-size="10.00">Urho3D::RefCount</text>
</a>
</g>
</g>
<!-- Node4&#45;&gt;Node3 -->
<g id="edge3" class="edge">
<title>Node4&#45;&gt;Node3</title>
<path fill="none" stroke="#9a32cd" stroke-dasharray="5,2" d="M107.37,-780.92C132.62,-777.21 161.96,-772.9 186.57,-769.28"/>
<polygon fill="#9a32cd" stroke="#9a32cd" points="106.97,-777.44 97.59,-782.36 107.99,-784.37 106.97,-777.44"/>
<text text-anchor="middle" x="137" y="-782.5" font-family="Roboto" font-size="10.00"> refCount_</text>
</g>
<!-- Node27 -->
<g id="node22" class="node">
<title>Node27</title>
<g id="a_node22"><a xlink:href="class_urho3_d_1_1_weak_ptr.html" target="_top" xlink:title=" ">
<polygon fill="white" stroke="orangered" points="455,-838.5 321,-838.5 321,-808.5 455,-808.5 455,-838.5"/>
<text text-anchor="start" x="329" y="-826.5" font-family="Roboto" font-size="10.00">Urho3D::WeakPtr&lt; Urho3D</text>
<text text-anchor="middle" x="388" y="-815.5" font-family="Roboto" font-size="10.00">::LuaScriptInstance &gt;</text>
</a>
</g>
</g>
<!-- Node4&#45;&gt;Node27 -->
<g id="edge33" class="edge">
<title>Node4&#45;&gt;Node27</title>
<path fill="none" stroke="#9a32cd" stroke-dasharray="5,2" d="M107.79,-795.41C167.21,-801.39 258.86,-810.61 320.8,-816.84"/>
<polygon fill="#9a32cd" stroke="#9a32cd" points="108.16,-791.93 97.86,-794.41 107.46,-798.9 108.16,-791.93"/>
<text text-anchor="middle" x="137" y="-802.5" font-family="Roboto" font-size="10.00"> refCount_</text>
</g>
<!-- Node5&#45;&gt;Node2 -->
<g id="edge4" class="edge">
<title>Node5&#45;&gt;Node2</title>
<path fill="none" stroke="#9a32cd" stroke-dasharray="5,2" d="M1184.7,-465.71C1171.02,-496.19 1140.59,-553.17 1095,-579.5 948.66,-664.01 878.21,-569.83 717,-620.5 638.93,-645.04 562.13,-710.43 534.63,-735.52"/>
<polygon fill="#9a32cd" stroke="#9a32cd" points="1187.79,-467.4 1188.53,-456.83 1181.36,-464.63 1187.79,-467.4"/>
<text text-anchor="middle" x="827.5" y="-623.5" font-family="Roboto" font-size="10.00"> context_</text>
</g>
<!-- Node6 -->
<g id="node6" class="node">
<title>Node6</title>
<g id="a_node6"><a xlink:href="class_urho3_d_1_1_hash_map.html" target="_top" xlink:title=" ">
<polygon fill="white" stroke="#666666" points="918.5,-430 736.5,-430 736.5,-389 918.5,-389 918.5,-430"/>
<text text-anchor="start" x="744.5" y="-418" font-family="Roboto" font-size="10.00">Urho3D::HashMap&lt; Urho3D</text>
<text text-anchor="start" x="744.5" y="-407" font-family="Roboto" font-size="10.00">::StringHash, Urho3D::</text>
<text text-anchor="middle" x="827.5" y="-396" font-family="Roboto" font-size="10.00">SharedPtr&lt; Urho3D::ObjectFactory &gt; &gt;</text>
</a>
</g>
</g>
<!-- Node6&#45;&gt;Node5 -->
<g id="edge6" class="edge">
<title>Node6&#45;&gt;Node5</title>
<path fill="none" stroke="#9a32cd" stroke-dasharray="5,2" d="M929.98,-419.52C1002.05,-426.64 1095.25,-435.85 1149.16,-441.17"/>
<polygon fill="#9a32cd" stroke="#9a32cd" points="930.4,-416.05 920.11,-418.55 929.71,-423.01 930.4,-416.05"/>
<text text-anchor="middle" x="1025.5" y="-438.5" font-family="Roboto" font-size="10.00"> factories_</text>
</g>
<!-- Node7 -->
<g id="node7" class="node">
<title>Node7</title>
<g id="a_node7"><a xlink:href="class_urho3_d_1_1_hash_base.html" target="_top" xlink:title="Hash set/map base class.">
<polygon fill="#fff0f0" stroke="red" points="573,-301 473,-301 473,-282 573,-282 573,-301"/>
<text text-anchor="middle" x="523" y="-289" font-family="Roboto" font-size="10.00">Urho3D::HashBase</text>
</a>
</g>
</g>
<!-- Node7&#45;&gt;Node6 -->
<g id="edge7" class="edge">
<title>Node7&#45;&gt;Node6</title>
<path fill="none" stroke="#63b8ff" d="M548.95,-307.28C561.35,-314.79 576.7,-323.61 591,-330.5 645.13,-356.58 659.95,-360.65 717,-379.5 726.45,-382.62 736.43,-385.68 746.37,-388.58"/>
<polygon fill="#63b8ff" stroke="#63b8ff" points="550.97,-304.41 540.62,-302.14 547.3,-310.37 550.97,-304.41"/>
</g>
<!-- Node11 -->
<g id="node9" class="node">
<title>Node11</title>
<g id="a_node9"><a xlink:href="class_urho3_d_1_1_hash_map.html" target="_top" xlink:title=" ">
<polygon fill="white" stroke="#666666" points="902,-371 753,-371 753,-330 902,-330 902,-371"/>
<text text-anchor="start" x="761" y="-359" font-family="Roboto" font-size="10.00">Urho3D::HashMap&lt; Urho3D</text>
<text text-anchor="start" x="761" y="-348" font-family="Roboto" font-size="10.00">::StringHash, Urho3D::</text>
<text text-anchor="middle" x="827.5" y="-337" font-family="Roboto" font-size="10.00">SharedPtr&lt; Urho3D::Object &gt; &gt;</text>
</a>
</g>
</g>
<!-- Node7&#45;&gt;Node11 -->
<g id="edge11" class="edge">
<title>Node7&#45;&gt;Node11</title>
<path fill="none" stroke="#63b8ff" d="M582.43,-303.77C585.33,-304.36 588.2,-304.94 591,-305.5 645.08,-316.32 706.27,-327.99 752.72,-336.74"/>
<polygon fill="#63b8ff" stroke="#63b8ff" points="583.18,-300.35 572.68,-301.77 581.77,-307.21 583.18,-300.35"/>
</g>
<!-- Node12 -->
<g id="node10" class="node">
<title>Node12</title>
<g id="a_node10"><a xlink:href="class_urho3_d_1_1_hash_map.html" target="_top" xlink:title=" ">
<polygon fill="white" stroke="#666666" points="908.5,-312 746.5,-312 746.5,-271 908.5,-271 908.5,-312"/>
<text text-anchor="start" x="754.5" y="-300" font-family="Roboto" font-size="10.00">Urho3D::HashMap&lt; Urho3D</text>
<text text-anchor="start" x="754.5" y="-289" font-family="Roboto" font-size="10.00">::StringHash, Urho3D::</text>
<text text-anchor="middle" x="827.5" y="-278" font-family="Roboto" font-size="10.00">Vector&lt; Urho3D::AttributeInfo &gt; &gt;</text>
</a>
</g>
</g>
<!-- Node7&#45;&gt;Node12 -->
<g id="edge13" class="edge">
<title>Node7&#45;&gt;Node12</title>
<path fill="none" stroke="#63b8ff" d="M584.67,-291.5C631.09,-291.5 695.53,-291.5 746.22,-291.5"/>
<polygon fill="#63b8ff" stroke="#63b8ff" points="584.79,-288 574.79,-291.5 584.79,-295 584.79,-288"/>
</g>
<!-- Node13 -->
<g id="node11" class="node">
<title>Node13</title>
<g id="a_node11"><a xlink:href="class_urho3_d_1_1_hash_map.html" target="_top" xlink:title=" ">
<polygon fill="white" stroke="#666666" points="911,-252.5 744,-252.5 744,-200.5 911,-200.5 911,-252.5"/>
<text text-anchor="start" x="752" y="-240.5" font-family="Roboto" font-size="10.00">Urho3D::HashMap&lt; Urho3D</text>
<text text-anchor="start" x="752" y="-229.5" font-family="Roboto" font-size="10.00">::StringHash, Urho3D::</text>
<text text-anchor="start" x="752" y="-218.5" font-family="Roboto" font-size="10.00">SharedPtr&lt; Urho3D::EventReceiver</text>
<text text-anchor="middle" x="827.5" y="-207.5" font-family="Roboto" font-size="10.00">Group &gt; &gt;</text>
</a>
</g>
</g>
<!-- Node7&#45;&gt;Node13 -->
<g id="edge15" class="edge">
<title>Node7&#45;&gt;Node13</title>
<path fill="none" stroke="#63b8ff" d="M581.5,-279.14C627.37,-269.29 692.23,-255.35 743.69,-244.29"/>
<polygon fill="#63b8ff" stroke="#63b8ff" points="580.79,-275.72 571.75,-281.24 582.26,-282.56 580.79,-275.72"/>
</g>
<!-- Node14 -->
<g id="node12" class="node">
<title>Node14</title>
<g id="a_node12"><a xlink:href="class_urho3_d_1_1_hash_map.html" target="_top" xlink:title=" ">
<polygon fill="white" stroke="#666666" points="938,-134.5 717,-134.5 717,-82.5 938,-82.5 938,-134.5"/>
<text text-anchor="start" x="725" y="-122.5" font-family="Roboto" font-size="10.00">Urho3D::HashMap&lt; Urho3D</text>
<text text-anchor="start" x="725" y="-111.5" font-family="Roboto" font-size="10.00">::Object *, Urho3D::HashMap</text>
<text text-anchor="start" x="725" y="-100.5" font-family="Roboto" font-size="10.00">&lt; Urho3D::StringHash, Urho3D</text>
<text text-anchor="middle" x="827.5" y="-89.5" font-family="Roboto" font-size="10.00">::SharedPtr&lt; Urho3D::EventReceiverGroup &gt; &gt; &gt;</text>
</a>
</g>
</g>
<!-- Node7&#45;&gt;Node14 -->
<g id="edge17" class="edge">
<title>Node7&#45;&gt;Node14</title>
<path fill="none" stroke="#63b8ff" d="M542.1,-274.09C574.63,-243.67 646.2,-180.52 717,-143.5 722.84,-140.45 728.99,-137.6 735.28,-134.96"/>
<polygon fill="#63b8ff" stroke="#63b8ff" points="539.95,-271.31 535.09,-280.72 544.76,-276.39 539.95,-271.31"/>
</g>
<!-- Node21 -->
<g id="node16" class="node">
<title>Node21</title>
<g id="a_node16"><a xlink:href="class_urho3_d_1_1_hash_map.html" target="_top" xlink:title=" ">
<polygon fill="white" stroke="#666666" points="897,-489 758,-489 758,-448 897,-448 897,-489"/>
<text text-anchor="start" x="766" y="-477" font-family="Roboto" font-size="10.00">Urho3D::HashMap&lt; Urho3D</text>
<text text-anchor="start" x="766" y="-466" font-family="Roboto" font-size="10.00">::String, Urho3D::Vector</text>
<text text-anchor="middle" x="827.5" y="-455" font-family="Roboto" font-size="10.00">&lt; Urho3D::StringHash &gt; &gt;</text>
</a>
</g>
</g>
<!-- Node7&#45;&gt;Node21 -->
<g id="edge23" class="edge">
<title>Node7&#45;&gt;Node21</title>
<path fill="none" stroke="#63b8ff" d="M538.09,-310.46C550.74,-326.63 570.43,-349.85 591,-366.5 641.14,-407.08 657.43,-413.78 717,-438.5 729.84,-443.83 743.91,-448.49 757.56,-452.46"/>
<polygon fill="#63b8ff" stroke="#63b8ff" points="540.95,-308.44 532.1,-302.62 535.39,-312.69 540.95,-308.44"/>
</g>
<!-- Node22 -->
<g id="node17" class="node">
<title>Node22</title>
<g id="a_node17"><a xlink:href="class_urho3_d_1_1_hash_map.html" target="_top" xlink:title=" ">
<polygon fill="white" stroke="#666666" points="905.5,-537.5 749.5,-537.5 749.5,-507.5 905.5,-507.5 905.5,-537.5"/>
<text text-anchor="start" x="757.5" y="-525.5" font-family="Roboto" font-size="10.00">Urho3D::HashMap&lt; StringHash,</text>
<text text-anchor="middle" x="827.5" y="-514.5" font-family="Roboto" font-size="10.00"> Variant &gt;</text>
</a>
</g>
</g>
<!-- Node7&#45;&gt;Node22 -->
<g id="edge25" class="edge">
<title>Node7&#45;&gt;Node22</title>
<path fill="none" stroke="#63b8ff" d="M531.78,-311.9C542.29,-337.55 563,-381.93 591,-412.5 636.62,-462.32 655.02,-470.64 717,-497.5 727.11,-501.88 738.09,-505.55 749.06,-508.6"/>
<polygon fill="#63b8ff" stroke="#63b8ff" points="535.05,-310.67 528.12,-302.66 528.54,-313.25 535.05,-310.67"/>
</g>
<!-- Node106 -->
<g id="node24" class="node">
<title>Node106</title>
<g id="a_node24"><a xlink:href="class_urho3_d_1_1_hash_map.html" target="_top" xlink:title=" ">
<polygon fill="white" stroke="#666666" points="1091,-100 960,-100 960,-59 1091,-59 1091,-100"/>
<text text-anchor="start" x="968" y="-88" font-family="Roboto" font-size="10.00">Urho3D::HashMap&lt; const</text>
<text text-anchor="start" x="968" y="-77" font-family="Roboto" font-size="10.00"> void *, Urho3D::SharedPtr</text>
<text text-anchor="middle" x="1025.5" y="-66" font-family="Roboto" font-size="10.00">&lt; Urho3D::LuaFunction &gt; &gt;</text>
</a>
</g>
</g>
<!-- Node7&#45;&gt;Node106 -->
<g id="edge37" class="edge">
<title>Node7&#45;&gt;Node106</title>
<path fill="none" stroke="#63b8ff" d="M529.94,-270.79C539.12,-241.65 559.11,-188.13 591,-152.5 635.08,-103.24 653.48,-91.77 717,-73.5 798.21,-50.15 896.52,-57.96 959.76,-67.33"/>
<polygon fill="#63b8ff" stroke="#63b8ff" points="526.63,-269.63 527.1,-280.22 533.33,-271.65 526.63,-269.63"/>
</g>
<!-- Node107 -->
<g id="node25" class="node">
<title>Node107</title>
<g id="a_node25"><a xlink:href="class_urho3_d_1_1_hash_map.html" target="_top" xlink:title=" ">
<polygon fill="white" stroke="#666666" points="1095,-41 956,-41 956,0 1095,0 1095,-41"/>
<text text-anchor="start" x="964" y="-29" font-family="Roboto" font-size="10.00">Urho3D::HashMap&lt; Urho3D</text>
<text text-anchor="start" x="964" y="-18" font-family="Roboto" font-size="10.00">::String, Urho3D::SharedPtr</text>
<text text-anchor="middle" x="1025.5" y="-7" font-family="Roboto" font-size="10.00">&lt; Urho3D::LuaFunction &gt; &gt;</text>
</a>
</g>
</g>
<!-- Node7&#45;&gt;Node107 -->
<g id="edge39" class="edge">
<title>Node7&#45;&gt;Node107</title>
<path fill="none" stroke="#63b8ff" d="M523.81,-270.66C524.65,-227.33 533.11,-127.35 591,-76.5 692.2,12.4 861.47,4.94 955.76,-7.99"/>
<polygon fill="#63b8ff" stroke="#63b8ff" points="520.32,-270.42 523.76,-280.44 527.32,-270.45 520.32,-270.42"/>
</g>
<!-- Node8 -->
<g id="node8" class="node">
<title>Node8</title>
<g id="a_node8"><a xlink:href="struct_urho3_d_1_1_hash_node_base.html" target="_top" xlink:title="Hash set/map node base class.">
<polygon fill="white" stroke="#666666" points="303,-301 178,-301 178,-282 303,-282 303,-301"/>
<text text-anchor="middle" x="240.5" y="-289" font-family="Roboto" font-size="10.00">Urho3D::HashNodeBase</text>
</a>
</g>
</g>
<!-- Node8&#45;&gt;Node7 -->
<g id="edge8" class="edge">
<title>Node8&#45;&gt;Node7</title>
<path fill="none" stroke="#9a32cd" stroke-dasharray="5,2" d="M314.76,-291.5C364.57,-291.5 429.11,-291.5 472.84,-291.5"/>
<polygon fill="#9a32cd" stroke="#9a32cd" points="314.92,-288 304.92,-291.5 314.92,-295 314.92,-288"/>
<text text-anchor="middle" x="388" y="-316.5" font-family="Roboto" font-size="10.00"> head_</text>
<text text-anchor="middle" x="388" y="-305.5" font-family="Roboto" font-size="10.00">ptrs_</text>
<text text-anchor="middle" x="388" y="-294.5" font-family="Roboto" font-size="10.00">tail_</text>
</g>
<!-- Node8&#45;&gt;Node8 -->
<g id="edge9" class="edge">
<title>Node8&#45;&gt;Node8</title>
<path fill="none" stroke="#9a32cd" stroke-dasharray="5,2" d="M222.13,-312.43C224.43,-316.29 230.55,-319 240.5,-319 258.69,-319 264.09,-309.94 256.7,-301.37"/>
<polygon fill="#9a32cd" stroke="#9a32cd" points="225.52,-313.34 224.01,-302.85 218.65,-311.99 225.52,-313.34"/>
<text text-anchor="middle" x="240.5" y="-344" font-family="Roboto" font-size="10.00"> down_</text>
<text text-anchor="middle" x="240.5" y="-333" font-family="Roboto" font-size="10.00">next_</text>
<text text-anchor="middle" x="240.5" y="-322" font-family="Roboto" font-size="10.00">prev_</text>
</g>
<!-- Node11&#45;&gt;Node5 -->
<g id="edge10" class="edge">
<title>Node11&#45;&gt;Node5</title>
<path fill="none" stroke="#9a32cd" stroke-dasharray="5,2" d="M913.26,-365.06C966.07,-375 1035.11,-389.61 1095,-407.5 1121.4,-415.39 1150.75,-427.19 1170.39,-435.55"/>
<polygon fill="#9a32cd" stroke="#9a32cd" points="914.21,-361.67 903.74,-363.28 912.93,-368.56 914.21,-361.67"/>
<text text-anchor="middle" x="1025.5" y="-410.5" font-family="Roboto" font-size="10.00"> subsystems_</text>
</g>
<!-- Node12&#45;&gt;Node5 -->
<g id="edge12" class="edge">
<title>Node12&#45;&gt;Node5</title>
<path fill="none" stroke="#9a32cd" stroke-dasharray="5,2" d="M920.17,-298.19C973.74,-305.17 1041.18,-319.41 1095,-348.5 1136.28,-370.81 1171.79,-415.82 1186.18,-435.69"/>
<polygon fill="#9a32cd" stroke="#9a32cd" points="920.81,-294.74 910.46,-296.99 919.96,-301.69 920.81,-294.74"/>
<text text-anchor="middle" x="1025.5" y="-362.5" font-family="Roboto" font-size="10.00"> attributes_</text>
<text text-anchor="middle" x="1025.5" y="-351.5" font-family="Roboto" font-size="10.00">networkAttributes_</text>
</g>
<!-- Node13&#45;&gt;Node5 -->
<g id="edge14" class="edge">
<title>Node13&#45;&gt;Node5</title>
<path fill="none" stroke="#9a32cd" stroke-dasharray="5,2" d="M922.59,-228.75C978.3,-234.64 1047.1,-250.45 1095,-290.5 1110.27,-303.27 1103.24,-314.16 1113,-331.5 1135.89,-372.16 1169.74,-416.31 1185.01,-435.57"/>
<polygon fill="#9a32cd" stroke="#9a32cd" points="923.07,-225.28 912.79,-227.81 922.41,-232.25 923.07,-225.28"/>
<text text-anchor="middle" x="1025.5" y="-293.5" font-family="Roboto" font-size="10.00"> eventReceivers_</text>
</g>
<!-- Node14&#45;&gt;Node5 -->
<g id="edge16" class="edge">
<title>Node14&#45;&gt;Node5</title>
<path fill="none" stroke="#9a32cd" stroke-dasharray="5,2" d="M949.63,-112.48C1010.15,-117.16 1074.75,-127.19 1095,-148.5 1123.15,-178.12 1098.8,-293.18 1113,-331.5 1129.05,-374.8 1165.68,-416.95 1183.25,-435.56"/>
<polygon fill="#9a32cd" stroke="#9a32cd" points="950.13,-109 939.9,-111.77 949.62,-115.98 950.13,-109"/>
<text text-anchor="middle" x="1025.5" y="-151.5" font-family="Roboto" font-size="10.00"> specificEventReceivers_</text>
</g>
<!-- Node15 -->
<g id="node13" class="node">
<title>Node15</title>
<g id="a_node13"><a xlink:href="class_urho3_d_1_1_p_o_d_vector.html" target="_top" xlink:title=" ">
<polygon fill="white" stroke="orangered" points="882,-182.5 773,-182.5 773,-152.5 882,-152.5 882,-182.5"/>
<text text-anchor="start" x="781" y="-170.5" font-family="Roboto" font-size="10.00">Urho3D::PODVector&lt;</text>
<text text-anchor="middle" x="827.5" y="-159.5" font-family="Roboto" font-size="10.00"> Urho3D::Object * &gt;</text>
</a>
</g>
</g>
<!-- Node15&#45;&gt;Node5 -->
<g id="edge18" class="edge">
<title>Node15&#45;&gt;Node5</title>
<path fill="none" stroke="#9a32cd" stroke-dasharray="5,2" d="M893.74,-160.96C954.57,-158.76 1043.43,-166.18 1095,-219.5 1130.05,-255.74 1094.04,-284.79 1113,-331.5 1130.46,-374.51 1166.73,-417.13 1183.77,-435.75"/>
<polygon fill="#9a32cd" stroke="#9a32cd" points="893.68,-157.46 883.86,-161.43 894.01,-164.45 893.68,-157.46"/>
<text text-anchor="middle" x="1025.5" y="-222.5" font-family="Roboto" font-size="10.00"> eventSenders_</text>
</g>
<!-- Node17 -->
<g id="node14" class="node">
<title>Node17</title>
<g id="a_node14"><a xlink:href="class_urho3_d_1_1_p_o_d_vector.html" target="_top" xlink:title=" ">
<polygon fill="white" stroke="orangered" points="884.5,-670.5 770.5,-670.5 770.5,-640.5 884.5,-640.5 884.5,-670.5"/>
<text text-anchor="start" x="778.5" y="-658.5" font-family="Roboto" font-size="10.00">Urho3D::PODVector&lt;</text>
<text text-anchor="middle" x="827.5" y="-647.5" font-family="Roboto" font-size="10.00"> Urho3D::HashMap * &gt;</text>
</a>
</g>
</g>
<!-- Node17&#45;&gt;Node5 -->
<g id="edge19" class="edge">
<title>Node17&#45;&gt;Node5</title>
<path fill="none" stroke="#9a32cd" stroke-dasharray="5,2" d="M896.18,-651.13C969.68,-645.87 1078.82,-636.38 1095,-625.5 1157.88,-583.2 1183.97,-486.68 1190.96,-455.45"/>
<polygon fill="#9a32cd" stroke="#9a32cd" points="895.95,-647.64 886.22,-651.83 896.44,-654.62 895.95,-647.64"/>
<text text-anchor="middle" x="1025.5" y="-649.5" font-family="Roboto" font-size="10.00"> eventDataMaps_</text>
</g>
<!-- Node18&#45;&gt;Node5 -->
<g id="edge20" class="edge">
<title>Node18&#45;&gt;Node5</title>
<path fill="none" stroke="#9a32cd" stroke-dasharray="5,2" d="M895.58,-696.46C964.01,-693.12 1064.38,-684.37 1095,-661.5 1166.6,-608.03 1187.23,-490.01 1191.85,-455.29"/>
<polygon fill="#9a32cd" stroke="#9a32cd" points="895.8,-692.94 885.97,-696.9 896.12,-699.94 895.8,-692.94"/>
<text text-anchor="middle" x="1025.5" y="-695.5" font-family="Roboto" font-size="10.00"> eventHandler_</text>
</g>
<!-- Node23 -->
<g id="node18" class="node">
<title>Node23</title>
<g id="a_node18"><a xlink:href="class_urho3_d_1_1_linked_list.html" target="_top" xlink:title=" ">
<polygon fill="white" stroke="#666666" points="1258,-744.5 1130,-744.5 1130,-714.5 1258,-714.5 1258,-744.5"/>
<text text-anchor="start" x="1138" y="-732.5" font-family="Roboto" font-size="10.00">Urho3D::LinkedList</text>
<text text-anchor="middle" x="1194" y="-721.5" font-family="Roboto" font-size="10.00">&lt; Urho3D::EventHandler &gt;</text>
</a>
</g>
</g>
<!-- Node18&#45;&gt;Node23 -->
<g id="edge27" class="edge">
<title>Node18&#45;&gt;Node23</title>
<path fill="none" stroke="#9a32cd" stroke-dasharray="5,2" d="M895.9,-703.38C949.8,-707.39 1027.28,-713.38 1095,-719.5 1106.24,-720.52 1118.2,-721.67 1129.76,-722.83"/>
<polygon fill="#9a32cd" stroke="#9a32cd" points="896.17,-699.89 885.93,-702.64 895.65,-706.87 896.17,-699.89"/>
<text text-anchor="middle" x="1025.5" y="-722.5" font-family="Roboto" font-size="10.00"> head_</text>
</g>
<!-- Node21&#45;&gt;Node5 -->
<g id="edge22" class="edge">
<title>Node21&#45;&gt;Node5</title>
<path fill="none" stroke="#9a32cd" stroke-dasharray="5,2" d="M908.61,-463.44C982.61,-458.78 1089.79,-452.01 1149.19,-448.26"/>
<polygon fill="#9a32cd" stroke="#9a32cd" points="908.76,-459.93 899,-464.05 909.2,-466.91 908.76,-459.93"/>
<text text-anchor="middle" x="1025.5" y="-463.5" font-family="Roboto" font-size="10.00"> objectCategories_</text>
</g>
<!-- Node22&#45;&gt;Node5 -->
<g id="edge24" class="edge">
<title>Node22&#45;&gt;Node5</title>
<path fill="none" stroke="#9a32cd" stroke-dasharray="5,2" d="M917.21,-509.65C969.31,-501.4 1036.27,-489.61 1095,-475.5 1118.53,-469.85 1144.72,-461.73 1164.1,-455.37"/>
<polygon fill="#9a32cd" stroke="#9a32cd" points="916.82,-506.16 907.48,-511.17 917.9,-513.08 916.82,-506.16"/>
<text text-anchor="middle" x="1025.5" y="-506.5" font-family="Roboto" font-size="10.00"> globalVars_</text>
</g>
<!-- Node23&#45;&gt;Node2 -->
<g id="edge26" class="edge">
<title>Node23&#45;&gt;Node2</title>
<path fill="none" stroke="#9a32cd" stroke-dasharray="5,2" d="M1118.61,-731.28C977.36,-734.66 674.64,-741.9 564.84,-744.52"/>
<polygon fill="#9a32cd" stroke="#9a32cd" points="1118.3,-734.79 1128.21,-731.05 1118.13,-727.79 1118.3,-734.79"/>
<text text-anchor="middle" x="827.5" y="-744.5" font-family="Roboto" font-size="10.00"> eventHandlers_</text>
</g>
<!-- Node24 -->
<g id="node19" class="node">
<title>Node24</title>
<g id="a_node19"><a xlink:href="class_urho3_d_1_1_lua_script_event_listener.html" target="_top" xlink:title="Lua script event listener.">
<polygon fill="white" stroke="#666666" points="1271.5,-879 1116.5,-879 1116.5,-860 1271.5,-860 1271.5,-879"/>
<text text-anchor="middle" x="1194" y="-867" font-family="Roboto" font-size="10.00">Urho3D::LuaScriptEventListener</text>
</a>
</g>
</g>
<!-- Node24&#45;&gt;Node1 -->
<g id="edge28" class="edge">
<title>Node24&#45;&gt;Node1</title>
<path fill="none" stroke="#63b8ff" d="M1258.27,-857.17C1288.48,-850.65 1324.94,-841.84 1357,-831.5 1371.89,-826.7 1388.14,-819.95 1400.66,-814.4"/>
<polygon fill="#63b8ff" stroke="#63b8ff" points="1257.56,-853.74 1248.51,-859.24 1259.02,-860.59 1257.56,-853.74"/>
</g>
<!-- Node25 -->
<g id="node20" class="node">
<title>Node25</title>
<g id="a_node20"><a xlink:href="class_urho3_d_1_1_shared_ptr.html" target="_top" xlink:title=" ">
<polygon fill="white" stroke="#666666" points="1275,-841.5 1113,-841.5 1113,-811.5 1275,-811.5 1275,-841.5"/>
<text text-anchor="start" x="1121" y="-829.5" font-family="Roboto" font-size="10.00">Urho3D::SharedPtr&lt;</text>
<text text-anchor="middle" x="1194" y="-818.5" font-family="Roboto" font-size="10.00"> Urho3D::LuaScriptEventInvoker &gt;</text>
</a>
</g>
</g>
<!-- Node25&#45;&gt;Node1 -->
<g id="edge29" class="edge">
<title>Node25&#45;&gt;Node1</title>
<path fill="none" stroke="#9a32cd" stroke-dasharray="5,2" d="M1286.81,-817.6C1317.01,-814.67 1349.35,-811.54 1374.82,-809.07"/>
<polygon fill="#9a32cd" stroke="#9a32cd" points="1286.47,-814.12 1276.86,-818.57 1287.15,-821.09 1286.47,-814.12"/>
<text text-anchor="middle" x="1325" y="-819.5" font-family="Roboto" font-size="10.00"> eventInvoker_</text>
</g>
<!-- Node26&#45;&gt;Node25 -->
<g id="edge30" class="edge">
<title>Node26&#45;&gt;Node25</title>
<path fill="none" stroke="#9a32cd" stroke-dasharray="5,2" d="M914.92,-826.5C974.84,-826.5 1054.08,-826.5 1112.64,-826.5"/>
<polygon fill="#9a32cd" stroke="#9a32cd" points="915.1,-823 905.1,-826.5 915.1,-830 915.1,-823"/>
<text text-anchor="middle" x="1025.5" y="-829.5" font-family="Roboto" font-size="10.00"> ptr_</text>
</g>
<!-- Node27&#45;&gt;Node26 -->
<g id="edge32" class="edge">
<title>Node27&#45;&gt;Node26</title>
<path fill="none" stroke="#9a32cd" stroke-dasharray="5,2" d="M466.49,-824.03C546.9,-824.58 671.8,-825.44 751.34,-825.98"/>
<polygon fill="#9a32cd" stroke="#9a32cd" points="466.98,-820.53 456.96,-823.97 466.94,-827.53 466.98,-820.53"/>
<text text-anchor="middle" x="523" y="-827.5" font-family="Roboto" font-size="10.00"> instance_</text>
</g>
<!-- Node105&#45;&gt;Node1 -->
<g id="edge34" class="edge">
<title>Node105&#45;&gt;Node1</title>
<path fill="none" stroke="#9a32cd" stroke-dasharray="5,2" d="M710.69,-891.96C825.66,-906.81 1072.52,-929.91 1275,-888.5 1313.82,-880.56 1322.71,-873.35 1357,-853.5 1377.06,-841.89 1398.09,-825.05 1410.62,-814.44"/>
<polygon fill="#9a32cd" stroke="#9a32cd" points="711.19,-888.49 700.82,-890.66 710.28,-895.43 711.19,-888.49"/>
<text text-anchor="middle" x="1025.5" y="-914.5" font-family="Roboto" font-size="10.00"> coroutineUpdate_</text>
</g>
<!-- Node106&#45;&gt;Node1 -->
<g id="edge36" class="edge">
<title>Node106&#45;&gt;Node1</title>
<path fill="none" stroke="#9a32cd" stroke-dasharray="5,2" d="M1091.71,-106.74C1092.84,-107.64 1093.93,-108.55 1095,-109.5 1328.36,-316.64 1408.32,-725.78 1420.34,-794.57"/>
<polygon fill="#9a32cd" stroke="#9a32cd" points="1094,-104.08 1083.8,-101.24 1090.01,-109.82 1094,-104.08"/>
<text text-anchor="middle" x="1194" y="-349.5" font-family="Roboto" font-size="10.00"> functionPointerToFunctionMap_</text>
</g>
<!-- Node107&#45;&gt;Node1 -->
<g id="edge38" class="edge">
<title>Node107&#45;&gt;Node1</title>
<path fill="none" stroke="#9a32cd" stroke-dasharray="5,2" d="M1106.47,-31.75C1161.07,-43.48 1231.19,-67.14 1275,-114.5 1373.36,-220.81 1415.44,-719.58 1421.28,-794.95"/>
<polygon fill="#9a32cd" stroke="#9a32cd" points="1107.41,-28.36 1096.91,-29.79 1106,-35.22 1107.41,-28.36"/>
<text text-anchor="middle" x="1194" y="-117.5" font-family="Roboto" font-size="10.00"> functionNameToFunctionMap_</text>
</g>
</g>
</svg>
