<?xml version="1.0" encoding="UTF-8" standalone="no"?>
<!DOCTYPE svg PUBLIC "-//W3C//DTD SVG 1.1//EN"
 "http://www.w3.org/Graphics/SVG/1.1/DTD/svg11.dtd">
<!-- Generated by graphviz version 7.0.3 (0)
 -->
<!-- Title: Urho3D::StretchableSprite2D::RegisterObject Pages: 1 -->
<svg width="464pt" height="134pt"
 viewBox="0.00 0.00 464.00 134.00" xmlns="http://www.w3.org/2000/svg" xmlns:xlink="http://www.w3.org/1999/xlink">
<g id="graph0" class="graph" transform="scale(1 1) rotate(0) translate(4 130)">
<title>Urho3D::StretchableSprite2D::RegisterObject</title>
<!-- Node1 -->
<g id="node1" class="node">
<title>Node1</title>
<g id="a_node1"><a xlink:title=" ">
<polygon fill="#999999" stroke="#666666" points="134,-78 0,-78 0,-48 134,-48 134,-78"/>
<text text-anchor="start" x="8" y="-66" font-family="Roboto" font-size="10.00">Urho3D::StretchableSprite2</text>
<text text-anchor="middle" x="67" y="-55" font-family="Roboto" font-size="10.00">D::RegisterObject</text>
</a>
</g>
</g>
<!-- Node2 -->
<g id="node2" class="node">
<title>Node2</title>
<g id="a_node2"><a xlink:href="class_urho3_d_1_1_stretchable_sprite2_d.html#a3140d910ce438ed2646b39e5208c0ef2" target="_top" xlink:title=" ">
<polygon fill="white" stroke="#666666" points="304,-126 170,-126 170,-96 304,-96 304,-126"/>
<text text-anchor="start" x="178" y="-114" font-family="Roboto" font-size="10.00">Urho3D::StretchableSprite2</text>
<text text-anchor="middle" x="237" y="-103" font-family="Roboto" font-size="10.00">D::GetBorder</text>
</a>
</g>
</g>
<!-- Node1&#45;&gt;Node2 -->
<g id="edge1" class="edge">
<title>Node1&#45;&gt;Node2</title>
<path fill="none" stroke="#63b8ff" d="M122.08,-78.45C137.67,-82.91 154.84,-87.81 171.01,-92.43"/>
<polygon fill="#63b8ff" stroke="#63b8ff" points="169.99,-95.78 180.57,-95.16 171.91,-89.05 169.99,-95.78"/>
</g>
<!-- Node3 -->
<g id="node3" class="node">
<title>Node3</title>
<g id="a_node3"><a xlink:href="class_urho3_d_1_1_context.html#aa9b2cffef8d52fa18bfe533a2615a598" target="_top" xlink:title="Register a factory for an object type.">
<polygon fill="white" stroke="#666666" points="302,-78 172,-78 172,-48 302,-48 302,-78"/>
<text text-anchor="start" x="180" y="-66" font-family="Roboto" font-size="10.00">Urho3D::Context::Register</text>
<text text-anchor="middle" x="237" y="-55" font-family="Roboto" font-size="10.00">Factory</text>
</a>
</g>
</g>
<!-- Node1&#45;&gt;Node3 -->
<g id="edge2" class="edge">
<title>Node1&#45;&gt;Node3</title>
<path fill="none" stroke="#63b8ff" d="M134.4,-63C142.94,-63 151.74,-63 160.42,-63"/>
<polygon fill="#63b8ff" stroke="#63b8ff" points="160.22,-66.5 170.22,-63 160.22,-59.5 160.22,-66.5"/>
</g>
<!-- Node5 -->
<g id="node5" class="node">
<title>Node5</title>
<g id="a_node5"><a xlink:href="class_urho3_d_1_1_stretchable_sprite2_d.html#aa1f511e41a44dc22f5828cfaf90f3e2e" target="_top" xlink:title=" ">
<polygon fill="white" stroke="#666666" points="304,-30 170,-30 170,0 304,0 304,-30"/>
<text text-anchor="start" x="178" y="-18" font-family="Roboto" font-size="10.00">Urho3D::StretchableSprite2</text>
<text text-anchor="middle" x="237" y="-7" font-family="Roboto" font-size="10.00">D::SetBorder</text>
</a>
</g>
</g>
<!-- Node1&#45;&gt;Node5 -->
<g id="edge4" class="edge">
<title>Node1&#45;&gt;Node5</title>
<path fill="none" stroke="#63b8ff" d="M122.08,-47.55C137.67,-43.09 154.84,-38.19 171.01,-33.57"/>
<polygon fill="#63b8ff" stroke="#63b8ff" points="171.91,-36.95 180.57,-30.84 169.99,-30.22 171.91,-36.95"/>
</g>
<!-- Node4 -->
<g id="node4" class="node">
<title>Node4</title>
<g id="a_node4"><a xlink:href="class_urho3_d_1_1_object_factory.html#a191ee9fd0ce7c127dfd92b2b9ae47709" target="_top" xlink:title="Return type hash of objects created by this factory.">
<polygon fill="white" stroke="#666666" points="456,-78 340,-78 340,-48 456,-48 456,-78"/>
<text text-anchor="start" x="348" y="-66" font-family="Roboto" font-size="10.00">Urho3D::ObjectFactory</text>
<text text-anchor="middle" x="398" y="-55" font-family="Roboto" font-size="10.00">::GetType</text>
</a>
</g>
</g>
<!-- Node3&#45;&gt;Node4 -->
<g id="edge3" class="edge">
<title>Node3&#45;&gt;Node4</title>
<path fill="none" stroke="#63b8ff" d="M302.21,-63C310.84,-63 319.72,-63 328.42,-63"/>
<polygon fill="#63b8ff" stroke="#63b8ff" points="328.21,-66.5 338.21,-63 328.21,-59.5 328.21,-66.5"/>
</g>
<!-- Node6 -->
<g id="node6" class="node">
<title>Node6</title>
<g id="a_node6"><a xlink:href="class_urho3_d_1_1_rect.html#a00fcda11338d9ae64f88dc65023177b6" target="_top" xlink:title=" ">
<polygon fill="white" stroke="#666666" points="447,-24.5 349,-24.5 349,-5.5 447,-5.5 447,-24.5"/>
<text text-anchor="middle" x="398" y="-12.5" font-family="Roboto" font-size="10.00">Urho3D::Rect::Size</text>
</a>
</g>
</g>
<!-- Node5&#45;&gt;Node6 -->
<g id="edge5" class="edge">
<title>Node5&#45;&gt;Node6</title>
<path fill="none" stroke="#63b8ff" d="M304.05,-15C315.19,-15 326.7,-15 337.66,-15"/>
<polygon fill="#63b8ff" stroke="#63b8ff" points="337.34,-18.5 347.34,-15 337.34,-11.5 337.34,-18.5"/>
</g>
</g>
</svg>
