<?xml version="1.0" encoding="UTF-8" standalone="no"?>
<!DOCTYPE svg PUBLIC "-//W3C//DTD SVG 1.1//EN"
 "http://www.w3.org/Graphics/SVG/1.1/DTD/svg11.dtd">
<!-- Generated by graphviz version 7.0.3 (0)
 -->
<!-- Title: Urho3D::Context::~Context Pages: 1 -->
<svg width="358pt" height="45pt"
 viewBox="0.00 0.00 358.00 45.00" xmlns="http://www.w3.org/2000/svg" xmlns:xlink="http://www.w3.org/1999/xlink">
<g id="graph0" class="graph" transform="scale(1 1) rotate(0) translate(4 41)">
<title>Urho3D::Context::~Context</title>
<!-- Node1 -->
<g id="node1" class="node">
<title>Node1</title>
<g id="a_node1"><a xlink:title="Destruct.">
<polygon fill="#999999" stroke="#666666" points="135,-19 0,-19 0,0 135,0 135,-19"/>
<text text-anchor="middle" x="67.5" y="-7" font-family="Roboto" font-size="10.00">Urho3D::Context::~Context</text>
</a>
</g>
</g>
<!-- Node2 -->
<g id="node2" class="node">
<title>Node2</title>
<g id="a_node2"><a xlink:href="class_urho3_d_1_1_context.html#ac7b7976a5fa7e6b1866adf95780379d7" target="_top" xlink:title="Template version of removing a subsystem.">
<polygon fill="white" stroke="#666666" points="350,-19 171,-19 171,0 350,0 350,-19"/>
<text text-anchor="middle" x="260.5" y="-7" font-family="Roboto" font-size="10.00">Urho3D::Context::RemoveSubsystem</text>
</a>
</g>
</g>
<!-- Node1&#45;&gt;Node2 -->
<g id="edge1" class="edge">
<title>Node1&#45;&gt;Node2</title>
<path fill="none" stroke="#63b8ff" d="M135.3,-9.5C143.05,-9.5 151.08,-9.5 159.16,-9.5"/>
<polygon fill="#63b8ff" stroke="#63b8ff" points="159.07,-13 169.07,-9.5 159.07,-6 159.07,-13"/>
</g>
<!-- Node2&#45;&gt;Node2 -->
<g id="edge2" class="edge">
<title>Node2&#45;&gt;Node2</title>
<path fill="none" stroke="#63b8ff" d="M230.28,-19.37C216.5,-27.94 226.57,-37 260.5,-37 280.11,-37 291.75,-33.97 295.42,-29.76"/>
<polygon fill="#63b8ff" stroke="#63b8ff" points="298.65,-28.41 291.34,-20.75 292.28,-31.3 298.65,-28.41"/>
</g>
</g>
</svg>
