<?xml version="1.0" encoding="UTF-8" standalone="no"?>
<!DOCTYPE svg PUBLIC "-//W3C//DTD SVG 1.1//EN"
 "http://www.w3.org/Graphics/SVG/1.1/DTD/svg11.dtd">
<!-- Generated by graphviz version 7.0.3 (0)
 -->
<!-- Title: Urho3D::ListView::RegisterObject Pages: 1 -->
<svg width="692pt" height="689pt"
 viewBox="0.00 0.00 692.00 689.00" xmlns="http://www.w3.org/2000/svg" xmlns:xlink="http://www.w3.org/1999/xlink">
<g id="graph0" class="graph" transform="scale(1 1) rotate(0) translate(4 685)">
<title>Urho3D::ListView::RegisterObject</title>
<!-- Node1 -->
<g id="node1" class="node">
<title>Node1</title>
<g id="a_node1"><a xlink:title=" ">
<polygon fill="#999999" stroke="#666666" points="132,-425 0,-425 0,-395 132,-395 132,-425"/>
<text text-anchor="start" x="8" y="-413" font-family="Roboto" font-size="10.00">Urho3D::ListView::Register</text>
<text text-anchor="middle" x="66" y="-402" font-family="Roboto" font-size="10.00">Object</text>
</a>
</g>
</g>
<!-- Node2 -->
<g id="node2" class="node">
<title>Node2</title>
<g id="a_node2"><a xlink:href="class_urho3_d_1_1_list_view.html#a40f55e470b359a7f5c971db3ec913d2f" target="_top" xlink:title=" ">
<polygon fill="white" stroke="#666666" points="324,-681 191,-681 191,-651 324,-651 324,-681"/>
<text text-anchor="start" x="199" y="-669" font-family="Roboto" font-size="10.00">Urho3D::ListView::GetBase</text>
<text text-anchor="middle" x="257.5" y="-658" font-family="Roboto" font-size="10.00">Indent</text>
</a>
</g>
</g>
<!-- Node1&#45;&gt;Node2 -->
<g id="edge1" class="edge">
<title>Node1&#45;&gt;Node2</title>
<path fill="none" stroke="#63b8ff" d="M69.07,-425.41C75.51,-467 99.02,-582.41 168,-642 171.83,-645.31 176.07,-648.17 180.57,-650.63"/>
<polygon fill="#63b8ff" stroke="#63b8ff" points="178.85,-653.69 189.38,-654.79 181.83,-647.36 178.85,-653.69"/>
</g>
<!-- Node3 -->
<g id="node3" class="node">
<title>Node3</title>
<g id="a_node3"><a xlink:href="class_urho3_d_1_1_list_view.html#ada6ce47a45c6f27acdd125ed88dbf060" target="_top" xlink:title=" ">
<polygon fill="white" stroke="#666666" points="324.5,-633 190.5,-633 190.5,-603 324.5,-603 324.5,-633"/>
<text text-anchor="start" x="198.5" y="-621" font-family="Roboto" font-size="10.00">Urho3D::ListView::GetClear</text>
<text text-anchor="middle" x="257.5" y="-610" font-family="Roboto" font-size="10.00">SelectionOnDefocus</text>
</a>
</g>
</g>
<!-- Node1&#45;&gt;Node3 -->
<g id="edge2" class="edge">
<title>Node1&#45;&gt;Node3</title>
<path fill="none" stroke="#63b8ff" d="M70.94,-425.29C80.86,-460.67 110.3,-548.59 168,-594 171.73,-596.94 175.79,-599.51 180.06,-601.77"/>
<polygon fill="#63b8ff" stroke="#63b8ff" points="178.39,-604.86 188.94,-605.87 181.32,-598.51 178.39,-604.86"/>
</g>
<!-- Node4 -->
<g id="node4" class="node">
<title>Node4</title>
<g id="a_node4"><a xlink:href="class_urho3_d_1_1_list_view.html#af23880666755e1b290ec4091ecefe3ee" target="_top" xlink:title=" ">
<polygon fill="white" stroke="#666666" points="347,-584.5 168,-584.5 168,-565.5 347,-565.5 347,-584.5"/>
<text text-anchor="middle" x="257.5" y="-572.5" font-family="Roboto" font-size="10.00">Urho3D::ListView::GetHierarchyMode</text>
</a>
</g>
</g>
<!-- Node1&#45;&gt;Node4 -->
<g id="edge3" class="edge">
<title>Node1&#45;&gt;Node4</title>
<path fill="none" stroke="#63b8ff" d="M72.89,-425.38C85.4,-455.83 117.65,-523.67 168,-557 169.81,-558.2 171.69,-559.32 173.62,-560.38"/>
<polygon fill="#63b8ff" stroke="#63b8ff" points="171.72,-563.35 182.26,-564.41 174.68,-557.01 171.72,-563.35"/>
</g>
<!-- Node5 -->
<g id="node5" class="node">
<title>Node5</title>
<g id="a_node5"><a xlink:href="class_urho3_d_1_1_list_view.html#a2f57ddb15b27636e6456ac79bdff185b" target="_top" xlink:title=" ">
<polygon fill="white" stroke="#666666" points="345.5,-547.5 169.5,-547.5 169.5,-528.5 345.5,-528.5 345.5,-547.5"/>
<text text-anchor="middle" x="257.5" y="-535.5" font-family="Roboto" font-size="10.00">Urho3D::ListView::GetHighlightMode</text>
</a>
</g>
</g>
<!-- Node1&#45;&gt;Node5 -->
<g id="edge4" class="edge">
<title>Node1&#45;&gt;Node5</title>
<path fill="none" stroke="#63b8ff" d="M76.36,-425.25C92.09,-449.47 126.24,-496.4 168,-520 170.51,-521.42 173.11,-522.72 175.79,-523.93"/>
<polygon fill="#63b8ff" stroke="#63b8ff" points="174.39,-527.14 184.97,-527.53 176.94,-520.62 174.39,-527.14"/>
</g>
<!-- Node6 -->
<g id="node6" class="node">
<title>Node6</title>
<g id="a_node6"><a xlink:href="class_urho3_d_1_1_list_view.html#aad7dae09f855ee67ac9dc35fa4194b28" target="_top" xlink:title=" ">
<polygon fill="white" stroke="#666666" points="337,-510.5 178,-510.5 178,-491.5 337,-491.5 337,-510.5"/>
<text text-anchor="middle" x="257.5" y="-498.5" font-family="Roboto" font-size="10.00">Urho3D::ListView::GetMultiselect</text>
</a>
</g>
</g>
<!-- Node1&#45;&gt;Node6 -->
<g id="edge5" class="edge">
<title>Node1&#45;&gt;Node6</title>
<path fill="none" stroke="#63b8ff" d="M83.89,-425.39C102.93,-441.9 135.49,-467.66 168,-482 172.95,-484.18 178.17,-486.12 183.5,-487.85"/>
<polygon fill="#63b8ff" stroke="#63b8ff" points="182.5,-491.2 193.08,-490.66 184.47,-484.48 182.5,-491.2"/>
</g>
<!-- Node7 -->
<g id="node7" class="node">
<title>Node7</title>
<g id="a_node7"><a xlink:href="class_urho3_d_1_1_list_view.html#a1bc6816ec026e539ad18eea52c9df24a" target="_top" xlink:title=" ">
<polygon fill="white" stroke="#666666" points="326.5,-473 188.5,-473 188.5,-443 326.5,-443 326.5,-473"/>
<text text-anchor="start" x="196.5" y="-461" font-family="Roboto" font-size="10.00">Urho3D::ListView::GetSelect</text>
<text text-anchor="middle" x="257.5" y="-450" font-family="Roboto" font-size="10.00">OnClickEnd</text>
</a>
</g>
</g>
<!-- Node1&#45;&gt;Node7 -->
<g id="edge6" class="edge">
<title>Node1&#45;&gt;Node7</title>
<path fill="none" stroke="#63b8ff" d="M128,-425.45C146.01,-430.01 165.88,-435.05 184.51,-439.76"/>
<polygon fill="#63b8ff" stroke="#63b8ff" points="183.59,-443.14 194.15,-442.21 185.31,-436.36 183.59,-443.14"/>
</g>
<!-- Node8 -->
<g id="node8" class="node">
<title>Node8</title>
<g id="a_node8"><a xlink:href="class_urho3_d_1_1_context.html#aa9b2cffef8d52fa18bfe533a2615a598" target="_top" xlink:title="Register a factory for an object type.">
<polygon fill="white" stroke="#666666" points="322.5,-425 192.5,-425 192.5,-395 322.5,-395 322.5,-425"/>
<text text-anchor="start" x="200.5" y="-413" font-family="Roboto" font-size="10.00">Urho3D::Context::Register</text>
<text text-anchor="middle" x="257.5" y="-402" font-family="Roboto" font-size="10.00">Factory</text>
</a>
</g>
</g>
<!-- Node1&#45;&gt;Node8 -->
<g id="edge7" class="edge">
<title>Node1&#45;&gt;Node8</title>
<path fill="none" stroke="#63b8ff" d="M132.48,-410C148.06,-410 164.81,-410 180.81,-410"/>
<polygon fill="#63b8ff" stroke="#63b8ff" points="180.78,-413.5 190.78,-410 180.78,-406.5 180.78,-413.5"/>
</g>
<!-- Node10 -->
<g id="node10" class="node">
<title>Node10</title>
<g id="a_node10"><a xlink:href="class_urho3_d_1_1_list_view.html#a2568134e5cc55f11963bd4625733cfb8" target="_top" xlink:title=" ">
<polygon fill="white" stroke="#666666" points="529,-452 397,-452 397,-422 529,-422 529,-452"/>
<text text-anchor="start" x="405" y="-440" font-family="Roboto" font-size="10.00">Urho3D::ListView::SetBase</text>
<text text-anchor="middle" x="463" y="-429" font-family="Roboto" font-size="10.00">Indent</text>
</a>
</g>
</g>
<!-- Node1&#45;&gt;Node10 -->
<g id="edge9" class="edge">
<title>Node1&#45;&gt;Node10</title>
<path fill="none" stroke="#63b8ff" d="M114.93,-394.53C171.81,-378.74 268.78,-359.93 347,-386 365.97,-392.32 365.16,-403.96 383,-413 386.03,-414.54 389.19,-416 392.4,-417.38"/>
<polygon fill="#63b8ff" stroke="#63b8ff" points="390.87,-420.54 401.46,-420.97 393.45,-414.03 390.87,-420.54"/>
</g>
<!-- Node55 -->
<g id="node12" class="node">
<title>Node55</title>
<g id="a_node12"><a xlink:href="class_urho3_d_1_1_list_view.html#a3f4a1b85c9ebf97f5bfaf200c8e63262" target="_top" xlink:title=" ">
<polygon fill="white" stroke="#666666" points="324.5,-339 190.5,-339 190.5,-309 324.5,-309 324.5,-339"/>
<text text-anchor="start" x="198.5" y="-327" font-family="Roboto" font-size="10.00">Urho3D::ListView::SetClear</text>
<text text-anchor="middle" x="257.5" y="-316" font-family="Roboto" font-size="10.00">SelectionOnDefocus</text>
</a>
</g>
</g>
<!-- Node1&#45;&gt;Node55 -->
<g id="edge11" class="edge">
<title>Node1&#45;&gt;Node55</title>
<path fill="none" stroke="#63b8ff" d="M91.2,-394.54C111.24,-382.19 140.73,-365.02 168,-353 175.91,-349.51 184.37,-346.22 192.81,-343.19"/>
<polygon fill="#63b8ff" stroke="#63b8ff" points="193.72,-346.58 202.02,-339.99 191.42,-339.97 193.72,-346.58"/>
</g>
<!-- Node70 -->
<g id="node15" class="node">
<title>Node70</title>
<g id="a_node15"><a xlink:href="class_urho3_d_1_1_list_view.html#a35c43109f5026eb16772ee518d460372" target="_top" xlink:title="Enable hierarchy mode. Allows items to have parent&#45;child relationship at different indent level and t...">
<polygon fill="white" stroke="#666666" points="346.5,-264.5 168.5,-264.5 168.5,-245.5 346.5,-245.5 346.5,-264.5"/>
<text text-anchor="middle" x="257.5" y="-252.5" font-family="Roboto" font-size="10.00">Urho3D::ListView::SetHierarchyMode</text>
</a>
</g>
</g>
<!-- Node1&#45;&gt;Node70 -->
<g id="edge14" class="edge">
<title>Node1&#45;&gt;Node70</title>
<path fill="none" stroke="#63b8ff" d="M78.3,-394.51C95.61,-371.61 130.62,-328.37 168,-300 184.26,-287.66 204.41,-277.11 221.38,-269.33"/>
<polygon fill="#63b8ff" stroke="#63b8ff" points="222.36,-272.72 230.09,-265.47 219.53,-266.32 222.36,-272.72"/>
</g>
<!-- Node119 -->
<g id="node23" class="node">
<title>Node119</title>
<g id="a_node23"><a xlink:href="class_urho3_d_1_1_list_view.html#a045e668208d951ecb6f363cd0dda4932" target="_top" xlink:title=" ">
<polygon fill="#fff0f0" stroke="red" points="345,-227.5 170,-227.5 170,-208.5 345,-208.5 345,-227.5"/>
<text text-anchor="middle" x="257.5" y="-215.5" font-family="Roboto" font-size="10.00">Urho3D::ListView::SetHighlightMode</text>
</a>
</g>
</g>
<!-- Node1&#45;&gt;Node119 -->
<g id="edge23" class="edge">
<title>Node1&#45;&gt;Node119</title>
<path fill="none" stroke="#63b8ff" d="M71.24,-394.51C81.53,-360.03 111.26,-276.75 168,-236 169.39,-235 170.83,-234.05 172.3,-233.15"/>
<polygon fill="#63b8ff" stroke="#63b8ff" points="173.83,-236.3 181.13,-228.62 170.64,-230.07 173.83,-236.3"/>
</g>
<!-- Node120 -->
<g id="node24" class="node">
<title>Node120</title>
<g id="a_node24"><a xlink:href="class_urho3_d_1_1_list_view.html#a94602d8ef518130fc9ccc53e9e580f6a" target="_top" xlink:title=" ">
<polygon fill="white" stroke="#666666" points="336.5,-190.5 178.5,-190.5 178.5,-171.5 336.5,-171.5 336.5,-190.5"/>
<text text-anchor="middle" x="257.5" y="-178.5" font-family="Roboto" font-size="10.00">Urho3D::ListView::SetMultiselect</text>
</a>
</g>
</g>
<!-- Node1&#45;&gt;Node120 -->
<g id="edge24" class="edge">
<title>Node1&#45;&gt;Node120</title>
<path fill="none" stroke="#63b8ff" d="M69.56,-394.6C76.96,-355.22 102.2,-250.33 168,-199 169.15,-198.1 170.33,-197.25 171.54,-196.44"/>
<polygon fill="#63b8ff" stroke="#63b8ff" points="173,-199.63 180,-191.68 169.57,-193.53 173,-199.63"/>
</g>
<!-- Node121 -->
<g id="node25" class="node">
<title>Node121</title>
<g id="a_node25"><a xlink:href="class_urho3_d_1_1_list_view.html#ab145d4f9af77af7b57c109a218df3fe8" target="_top" xlink:title=" ">
<polygon fill="#fff0f0" stroke="red" points="326,-153 189,-153 189,-123 326,-123 326,-153"/>
<text text-anchor="start" x="197" y="-141" font-family="Roboto" font-size="10.00">Urho3D::ListView::SetSelect</text>
<text text-anchor="middle" x="257.5" y="-130" font-family="Roboto" font-size="10.00">OnClickEnd</text>
</a>
</g>
</g>
<!-- Node1&#45;&gt;Node121 -->
<g id="edge25" class="edge">
<title>Node1&#45;&gt;Node121</title>
<path fill="none" stroke="#63b8ff" d="M68.61,-394.5C73.96,-350.94 95.24,-226.39 168,-162 171.33,-159.06 174.98,-156.47 178.84,-154.2"/>
<polygon fill="#63b8ff" stroke="#63b8ff" points="180.12,-157.47 187.48,-149.85 176.98,-151.22 180.12,-157.47"/>
</g>
<!-- Node9 -->
<g id="node9" class="node">
<title>Node9</title>
<g id="a_node9"><a xlink:href="class_urho3_d_1_1_object_factory.html#a191ee9fd0ce7c127dfd92b2b9ae47709" target="_top" xlink:title="Return type hash of objects created by this factory.">
<polygon fill="white" stroke="#666666" points="521,-500 405,-500 405,-470 521,-470 521,-500"/>
<text text-anchor="start" x="413" y="-488" font-family="Roboto" font-size="10.00">Urho3D::ObjectFactory</text>
<text text-anchor="middle" x="463" y="-477" font-family="Roboto" font-size="10.00">::GetType</text>
</a>
</g>
</g>
<!-- Node8&#45;&gt;Node9 -->
<g id="edge8" class="edge">
<title>Node8&#45;&gt;Node9</title>
<path fill="none" stroke="#63b8ff" d="M322.89,-424.36C331.18,-427.1 339.42,-430.3 347,-434 364.97,-442.77 365.16,-451.96 383,-461 386.49,-462.77 390.14,-464.44 393.87,-466"/>
<polygon fill="#63b8ff" stroke="#63b8ff" points="392.54,-469.24 403.13,-469.59 395.07,-462.71 392.54,-469.24"/>
</g>
<!-- Node11 -->
<g id="node11" class="node">
<title>Node11</title>
<g id="a_node11"><a xlink:href="class_urho3_d_1_1_u_i_element.html#a7cba78373c23a734a1ccd2d4a27d8cb0" target="_top" xlink:title="Manually update layout. Should not be necessary in most cases, but is provided for completeness.">
<polygon fill="#fff0f0" stroke="red" points="684,-361 579,-361 579,-331 684,-331 684,-361"/>
<text text-anchor="start" x="587" y="-349" font-family="Roboto" font-size="10.00">Urho3D::UIElement::</text>
<text text-anchor="middle" x="631.5" y="-338" font-family="Roboto" font-size="10.00">UpdateLayout</text>
</a>
</g>
</g>
<!-- Node10&#45;&gt;Node11 -->
<g id="edge10" class="edge">
<title>Node10&#45;&gt;Node11</title>
<path fill="none" stroke="#63b8ff" d="M523.17,-421.59C530,-419.07 536.75,-416.21 543,-413 565.98,-401.21 589.06,-383.22 605.74,-368.85"/>
<polygon fill="#63b8ff" stroke="#63b8ff" points="607.98,-371.54 613.17,-362.3 603.35,-366.29 607.98,-371.54"/>
</g>
<!-- Node56 -->
<g id="node13" class="node">
<title>Node56</title>
<g id="a_node13"><a xlink:href="class_urho3_d_1_1_list_view.html#a2f9e3fec256a10393489a0814dea0037" target="_top" xlink:title="Clear selection.">
<polygon fill="#fff0f0" stroke="red" points="543,-403.5 383,-403.5 383,-384.5 543,-384.5 543,-403.5"/>
<text text-anchor="middle" x="463" y="-391.5" font-family="Roboto" font-size="10.00">Urho3D::ListView::ClearSelection</text>
</a>
</g>
</g>
<!-- Node55&#45;&gt;Node56 -->
<g id="edge12" class="edge">
<title>Node55&#45;&gt;Node56</title>
<path fill="none" stroke="#63b8ff" d="M312.15,-339.37C323.84,-343.32 335.99,-347.92 347,-353 364.02,-360.86 365.67,-367.83 383,-375 388.24,-377.17 393.79,-379.13 399.41,-380.88"/>
<polygon fill="#63b8ff" stroke="#63b8ff" points="398.23,-384.18 408.81,-383.6 400.17,-377.46 398.23,-384.18"/>
</g>
<!-- Node68 -->
<g id="node14" class="node">
<title>Node68</title>
<g id="a_node14"><a xlink:href="class_urho3_d_1_1_u_i_element.html#a1bc81ebf873ab97c4251c0bad93b568e" target="_top" xlink:title=" ">
<polygon fill="white" stroke="#666666" points="515.5,-366 410.5,-366 410.5,-336 515.5,-336 515.5,-366"/>
<text text-anchor="start" x="418.5" y="-354" font-family="Roboto" font-size="10.00">Urho3D::UIElement::</text>
<text text-anchor="middle" x="463" y="-343" font-family="Roboto" font-size="10.00">HasFocus</text>
</a>
</g>
</g>
<!-- Node55&#45;&gt;Node68 -->
<g id="edge13" class="edge">
<title>Node55&#45;&gt;Node68</title>
<path fill="none" stroke="#63b8ff" d="M324.85,-332.8C348.67,-335.96 375.45,-339.52 398.99,-342.64"/>
<polygon fill="#63b8ff" stroke="#63b8ff" points="398.38,-346.09 408.75,-343.93 399.3,-339.15 398.38,-346.09"/>
</g>
<!-- Node71 -->
<g id="node16" class="node">
<title>Node71</title>
<g id="a_node16"><a xlink:href="class_urho3_d_1_1_u_i_element.html#a76a4d4fc652ea858d46846ac2739ee98" target="_top" xlink:title="Add a child element.">
<polygon fill="#fff0f0" stroke="red" points="515.5,-318 410.5,-318 410.5,-288 515.5,-288 515.5,-318"/>
<text text-anchor="start" x="418.5" y="-306" font-family="Roboto" font-size="10.00">Urho3D::UIElement::</text>
<text text-anchor="middle" x="463" y="-295" font-family="Roboto" font-size="10.00">AddChild</text>
</a>
</g>
</g>
<!-- Node70&#45;&gt;Node71 -->
<g id="edge15" class="edge">
<title>Node70&#45;&gt;Node71</title>
<path fill="none" stroke="#63b8ff" d="M300.67,-264.95C329.1,-271.65 367.11,-280.62 399.1,-288.16"/>
<polygon fill="#63b8ff" stroke="#63b8ff" points="398.12,-291.53 408.66,-290.42 399.73,-284.72 398.12,-291.53"/>
</g>
<!-- Node88 -->
<g id="node17" class="node">
<title>Node88</title>
<g id="a_node17"><a xlink:href="class_urho3_d_1_1_u_i_element.html#a9ccf68e4882157d8fc2489ea9b10a658" target="_top" xlink:title="Remove a child element. Starting search at specified index if provided.">
<polygon fill="#fff0f0" stroke="red" points="515.5,-270 410.5,-270 410.5,-240 515.5,-240 515.5,-270"/>
<text text-anchor="start" x="418.5" y="-258" font-family="Roboto" font-size="10.00">Urho3D::UIElement::</text>
<text text-anchor="middle" x="463" y="-247" font-family="Roboto" font-size="10.00">RemoveChild</text>
</a>
</g>
</g>
<!-- Node70&#45;&gt;Node88 -->
<g id="edge16" class="edge">
<title>Node70&#45;&gt;Node88</title>
<path fill="none" stroke="#63b8ff" d="M346.87,-255C364.39,-255 382.44,-255 398.91,-255"/>
<polygon fill="#63b8ff" stroke="#63b8ff" points="398.52,-258.5 408.52,-255 398.52,-251.5 398.52,-258.5"/>
</g>
<!-- Node92 -->
<g id="node18" class="node">
<title>Node92</title>
<g id="a_node18"><a xlink:href="class_urho3_d_1_1_scroll_view.html#a7a411eb9c08f6103b9a73ce5da878ef0" target="_top" xlink:title=" ">
<polygon fill="#fff0f0" stroke="red" points="516,-222 410,-222 410,-192 516,-192 516,-222"/>
<text text-anchor="start" x="418" y="-210" font-family="Roboto" font-size="10.00">Urho3D::ScrollView</text>
<text text-anchor="middle" x="463" y="-199" font-family="Roboto" font-size="10.00">::SetContentElement</text>
</a>
</g>
</g>
<!-- Node70&#45;&gt;Node92 -->
<g id="edge18" class="edge">
<title>Node70&#45;&gt;Node92</title>
<path fill="none" stroke="#63b8ff" d="M306.34,-245.06C319.53,-242.22 333.84,-239.07 347,-236 363.86,-232.07 382.05,-227.59 398.88,-223.35"/>
<polygon fill="#63b8ff" stroke="#63b8ff" points="399.41,-226.82 408.25,-220.97 397.69,-220.04 399.41,-226.82"/>
</g>
<!-- Node115 -->
<g id="node19" class="node">
<title>Node115</title>
<g id="a_node19"><a xlink:href="class_urho3_d_1_1_u_i_element.html#abd00b6e7a53e0c59fa435c701fbb6db1" target="_top" xlink:title=" ">
<polygon fill="white" stroke="#666666" points="515.5,-174 410.5,-174 410.5,-144 515.5,-144 515.5,-174"/>
<text text-anchor="start" x="418.5" y="-162" font-family="Roboto" font-size="10.00">Urho3D::UIElement::</text>
<text text-anchor="middle" x="463" y="-151" font-family="Roboto" font-size="10.00">SetEnabled</text>
</a>
</g>
</g>
<!-- Node70&#45;&gt;Node115 -->
<g id="edge19" class="edge">
<title>Node70&#45;&gt;Node115</title>
<path fill="none" stroke="#63b8ff" d="M329.16,-245.1C335.47,-242.68 341.53,-239.69 347,-236 370.62,-220.09 360.07,-199.88 383,-183 388.18,-179.19 393.96,-175.98 399.99,-173.27"/>
<polygon fill="#63b8ff" stroke="#63b8ff" points="400.88,-176.68 408.88,-169.74 398.3,-170.18 400.88,-176.68"/>
</g>
<!-- Node116 -->
<g id="node20" class="node">
<title>Node116</title>
<g id="a_node20"><a xlink:href="class_urho3_d_1_1_u_i_element.html#a90a410e8c6531337c5181039efbbfdb0" target="_top" xlink:title=" ">
<polygon fill="white" stroke="#666666" points="515.5,-126 410.5,-126 410.5,-96 515.5,-96 515.5,-126"/>
<text text-anchor="start" x="418.5" y="-114" font-family="Roboto" font-size="10.00">Urho3D::UIElement::</text>
<text text-anchor="middle" x="463" y="-103" font-family="Roboto" font-size="10.00">SetInternal</text>
</a>
</g>
</g>
<!-- Node70&#45;&gt;Node116 -->
<g id="edge20" class="edge">
<title>Node70&#45;&gt;Node116</title>
<path fill="none" stroke="#63b8ff" d="M333.24,-245.08C338.21,-242.62 342.86,-239.63 347,-236 382.83,-204.58 348.51,-167.89 383,-135 387.85,-130.37 393.57,-126.64 399.67,-123.62"/>
<polygon fill="#63b8ff" stroke="#63b8ff" points="400.96,-126.87 408.82,-119.77 398.25,-120.42 400.96,-126.87"/>
</g>
<!-- Node117 -->
<g id="node21" class="node">
<title>Node117</title>
<g id="a_node21"><a xlink:href="class_urho3_d_1_1_u_i_element.html#a05cd21c849c91fffaf94231452d535d7" target="_top" xlink:title=" ">
<polygon fill="#fff0f0" stroke="red" points="515.5,-78 410.5,-78 410.5,-48 515.5,-48 515.5,-78"/>
<text text-anchor="start" x="418.5" y="-66" font-family="Roboto" font-size="10.00">Urho3D::UIElement::</text>
<text text-anchor="middle" x="463" y="-55" font-family="Roboto" font-size="10.00">SetName</text>
</a>
</g>
</g>
<!-- Node70&#45;&gt;Node117 -->
<g id="edge21" class="edge">
<title>Node70&#45;&gt;Node117</title>
<path fill="none" stroke="#63b8ff" d="M334.51,-245.11C339.06,-242.62 343.29,-239.62 347,-236 395.79,-188.45 336.24,-136.55 383,-87 387.78,-81.94 393.59,-77.93 399.86,-74.76"/>
<polygon fill="#63b8ff" stroke="#63b8ff" points="400.8,-78.17 408.63,-71.04 398.06,-71.73 400.8,-78.17"/>
</g>
<!-- Node118 -->
<g id="node22" class="node">
<title>Node118</title>
<g id="a_node22"><a xlink:href="class_urho3_d_1_1_u_i_element.html#ae504de83d2c45bb4e22e76dd01aa4b8d" target="_top" xlink:title=" ">
<polygon fill="white" stroke="#666666" points="515.5,-30 410.5,-30 410.5,0 515.5,0 515.5,-30"/>
<text text-anchor="start" x="418.5" y="-18" font-family="Roboto" font-size="10.00">Urho3D::UIElement::</text>
<text text-anchor="middle" x="463" y="-7" font-family="Roboto" font-size="10.00">SetSortChildren</text>
</a>
</g>
</g>
<!-- Node70&#45;&gt;Node118 -->
<g id="edge22" class="edge">
<title>Node70&#45;&gt;Node118</title>
<path fill="none" stroke="#63b8ff" d="M335.16,-245.11C339.49,-242.61 343.5,-239.61 347,-236 408.96,-172.1 323.76,-105.43 383,-39 387.7,-33.73 393.51,-29.61 399.83,-26.37"/>
<polygon fill="#63b8ff" stroke="#63b8ff" points="400.88,-29.73 408.71,-22.59 398.14,-23.29 400.88,-29.73"/>
</g>
<!-- Node88&#45;&gt;Node11 -->
<g id="edge17" class="edge">
<title>Node88&#45;&gt;Node11</title>
<path fill="none" stroke="#63b8ff" d="M515.63,-267.76C524.97,-270.88 534.46,-274.61 543,-279 565.98,-290.79 589.06,-308.78 605.74,-323.15"/>
<polygon fill="#63b8ff" stroke="#63b8ff" points="603.35,-325.71 613.17,-329.7 607.98,-320.46 603.35,-325.71"/>
</g>
</g>
</svg>
