<?xml version="1.0" encoding="UTF-8" standalone="no"?>
<!DOCTYPE svg PUBLIC "-//W3C//DTD SVG 1.1//EN"
 "http://www.w3.org/Graphics/SVG/1.1/DTD/svg11.dtd">
<!-- Generated by graphviz version 7.0.3 (0)
 -->
<!-- Title: Urho3D::XPathResultSet Pages: 1 -->
<svg width="1386pt" height="948pt"
 viewBox="0.00 0.00 1386.00 947.50" xmlns="http://www.w3.org/2000/svg" xmlns:xlink="http://www.w3.org/1999/xlink">
<g id="graph0" class="graph" transform="scale(1 1) rotate(0) translate(4 943.5)">
<title>Urho3D::XPathResultSet</title>
<!-- Node1 -->
<g id="node1" class="node">
<title>Node1</title>
<g id="a_node1"><a xlink:title="XPath query result set.">
<polygon fill="#999999" stroke="#666666" points="1378,-824.5 1256,-824.5 1256,-805.5 1378,-805.5 1378,-824.5"/>
<text text-anchor="middle" x="1317" y="-812.5" font-family="Roboto" font-size="10.00">Urho3D::XPathResultSet</text>
</a>
</g>
</g>
<!-- Node2 -->
<g id="node2" class="node">
<title>Node2</title>
<g id="a_node2"><a xlink:href="class_urho3_d_1_1_weak_ptr.html" target="_top" xlink:title=" ">
<polygon fill="white" stroke="#666666" points="1200,-830 1066,-830 1066,-800 1200,-800 1200,-830"/>
<text text-anchor="start" x="1074" y="-818" font-family="Roboto" font-size="10.00">Urho3D::WeakPtr&lt; Urho3D</text>
<text text-anchor="middle" x="1133" y="-807" font-family="Roboto" font-size="10.00">::XMLFile &gt;</text>
</a>
</g>
</g>
<!-- Node2&#45;&gt;Node1 -->
<g id="edge1" class="edge">
<title>Node2&#45;&gt;Node1</title>
<path fill="none" stroke="#9a32cd" stroke-dasharray="5,2" d="M1211.64,-815C1226.39,-815 1241.62,-815 1255.73,-815"/>
<polygon fill="#9a32cd" stroke="#9a32cd" points="1211.99,-811.5 1201.99,-815 1211.99,-818.5 1211.99,-811.5"/>
<text text-anchor="middle" x="1228" y="-818" font-family="Roboto" font-size="10.00"> file_</text>
</g>
<!-- Node3 -->
<g id="node3" class="node">
<title>Node3</title>
<g id="a_node3"><a xlink:href="class_urho3_d_1_1_x_m_l_file.html" target="_top" xlink:title="XML document resource.">
<polygon fill="white" stroke="#666666" points="992,-848.5 902,-848.5 902,-829.5 992,-829.5 992,-848.5"/>
<text text-anchor="middle" x="947" y="-836.5" font-family="Roboto" font-size="10.00">Urho3D::XMLFile</text>
</a>
</g>
</g>
<!-- Node3&#45;&gt;Node2 -->
<g id="edge2" class="edge">
<title>Node3&#45;&gt;Node2</title>
<path fill="none" stroke="#9a32cd" stroke-dasharray="5,2" d="M1003.28,-831.79C1022.9,-829.23 1045.18,-826.32 1065.62,-823.66"/>
<polygon fill="#9a32cd" stroke="#9a32cd" points="1003.04,-828.29 993.57,-833.06 1003.94,-835.23 1003.04,-828.29"/>
<text text-anchor="middle" x="1038.5" y="-830" font-family="Roboto" font-size="10.00"> ptr_</text>
</g>
<!-- Node4 -->
<g id="node4" class="node">
<title>Node4</title>
<g id="a_node4"><a xlink:href="class_urho3_d_1_1_resource.html" target="_top" xlink:title=" ">
<polygon fill="white" stroke="#666666" points="677.5,-891.5 581.5,-891.5 581.5,-872.5 677.5,-872.5 677.5,-891.5"/>
<text text-anchor="middle" x="629.5" y="-879.5" font-family="Roboto" font-size="10.00">Urho3D::Resource</text>
</a>
</g>
</g>
<!-- Node4&#45;&gt;Node3 -->
<g id="edge3" class="edge">
<title>Node4&#45;&gt;Node3</title>
<path fill="none" stroke="#63b8ff" d="M689.09,-876.06C736.61,-870.99 805.27,-863.09 865,-854 876.88,-852.19 889.68,-849.96 901.52,-847.77"/>
<polygon fill="#63b8ff" stroke="#63b8ff" points="688.86,-872.56 679.29,-877.1 689.6,-879.53 688.86,-872.56"/>
</g>
<!-- Node5 -->
<g id="node5" class="node">
<title>Node5</title>
<g id="a_node5"><a xlink:href="class_urho3_d_1_1_object.html" target="_top" xlink:title=" ">
<polygon fill="white" stroke="#666666" points="416.5,-650.5 333.5,-650.5 333.5,-631.5 416.5,-631.5 416.5,-650.5"/>
<text text-anchor="middle" x="375" y="-638.5" font-family="Roboto" font-size="10.00">Urho3D::Object</text>
</a>
</g>
</g>
<!-- Node5&#45;&gt;Node4 -->
<g id="edge4" class="edge">
<title>Node5&#45;&gt;Node4</title>
<path fill="none" stroke="#63b8ff" d="M392.4,-658.97C411.13,-679.39 439.99,-710.5 446,-715 467.97,-731.43 484.96,-720.75 501,-743 532.53,-786.75 481.31,-824.43 519,-863 534.91,-879.28 559.42,-884.59 581.22,-885.58"/>
<polygon fill="#63b8ff" stroke="#63b8ff" points="395.21,-656.85 385.88,-651.84 390.04,-661.58 395.21,-656.85"/>
</g>
<!-- Node21 -->
<g id="node18" class="node">
<title>Node21</title>
<g id="a_node18"><a xlink:href="class_urho3_d_1_1_event_handler.html" target="_top" xlink:title="Internal helper class for invoking event handler functions.">
<polygon fill="#fff0f0" stroke="red" points="686,-687.5 573,-687.5 573,-668.5 686,-668.5 686,-687.5"/>
<text text-anchor="middle" x="629.5" y="-675.5" font-family="Roboto" font-size="10.00">Urho3D::EventHandler</text>
</a>
</g>
</g>
<!-- Node5&#45;&gt;Node21 -->
<g id="edge24" class="edge">
<title>Node5&#45;&gt;Node21</title>
<path fill="none" stroke="#9a32cd" stroke-dasharray="5,2" d="M428.14,-648.45C450.57,-651.67 477.08,-655.5 501,-659 524.47,-662.44 550.37,-666.29 572.65,-669.62"/>
<polygon fill="#9a32cd" stroke="#9a32cd" points="428.72,-645 418.32,-647.04 427.72,-651.93 428.72,-645"/>
<text text-anchor="middle" x="473.5" y="-673" font-family="Roboto" font-size="10.00"> receiver_</text>
<text text-anchor="middle" x="473.5" y="-662" font-family="Roboto" font-size="10.00">sender_</text>
</g>
<!-- Node6 -->
<g id="node6" class="node">
<title>Node6</title>
<g id="a_node6"><a xlink:href="class_urho3_d_1_1_ref_counted.html" target="_top" xlink:title="Base class for intrusively reference&#45;counted objects. These are noncopyable and non&#45;assignable.">
<polygon fill="white" stroke="#666666" points="285,-650.5 178,-650.5 178,-631.5 285,-631.5 285,-650.5"/>
<text text-anchor="middle" x="231.5" y="-638.5" font-family="Roboto" font-size="10.00">Urho3D::RefCounted</text>
</a>
</g>
</g>
<!-- Node6&#45;&gt;Node5 -->
<g id="edge5" class="edge">
<title>Node6&#45;&gt;Node5</title>
<path fill="none" stroke="#63b8ff" d="M296.52,-641C308.99,-641 321.74,-641 333.21,-641"/>
<polygon fill="#63b8ff" stroke="#63b8ff" points="296.7,-637.5 286.7,-641 296.7,-644.5 296.7,-637.5"/>
</g>
<!-- Node8 -->
<g id="node8" class="node">
<title>Node8</title>
<g id="a_node8"><a xlink:href="class_urho3_d_1_1_context.html" target="_top" xlink:title="Urho3D execution context. Provides access to subsystems, object factories and attributes,...">
<polygon fill="white" stroke="#666666" points="991.5,-364.5 902.5,-364.5 902.5,-345.5 991.5,-345.5 991.5,-364.5"/>
<text text-anchor="middle" x="947" y="-352.5" font-family="Roboto" font-size="10.00">Urho3D::Context</text>
</a>
</g>
</g>
<!-- Node6&#45;&gt;Node8 -->
<g id="edge8" class="edge">
<title>Node6&#45;&gt;Node8</title>
<path fill="none" stroke="#63b8ff" d="M293.21,-628.74C442.39,-598.25 818.19,-518.97 865,-485 908.91,-453.14 934.27,-389.51 942.77,-364.97"/>
<polygon fill="#63b8ff" stroke="#63b8ff" points="292.6,-625.3 283.51,-630.72 294,-632.15 292.6,-625.3"/>
</g>
<!-- Node7 -->
<g id="node7" class="node">
<title>Node7</title>
<g id="a_node7"><a xlink:href="struct_urho3_d_1_1_ref_count.html" target="_top" xlink:title="Reference count structure.">
<polygon fill="white" stroke="#666666" points="96,-720.5 0,-720.5 0,-701.5 96,-701.5 96,-720.5"/>
<text text-anchor="middle" x="48" y="-708.5" font-family="Roboto" font-size="10.00">Urho3D::RefCount</text>
</a>
</g>
</g>
<!-- Node7&#45;&gt;Node2 -->
<g id="edge38" class="edge">
<title>Node7&#45;&gt;Node2</title>
<path fill="none" stroke="#9a32cd" stroke-dasharray="5,2" d="M69.29,-727.77C101.39,-752.54 166.8,-796 230.5,-796 230.5,-796 230.5,-796 948,-796 987.18,-796 1030.8,-800.32 1065.74,-804.83"/>
<polygon fill="#9a32cd" stroke="#9a32cd" points="71.64,-725.16 61.62,-721.69 67.29,-730.64 71.64,-725.16"/>
<text text-anchor="middle" x="473.5" y="-799" font-family="Roboto" font-size="10.00"> refCount_</text>
</g>
<!-- Node7&#45;&gt;Node6 -->
<g id="edge6" class="edge">
<title>Node7&#45;&gt;Node6</title>
<path fill="none" stroke="#9a32cd" stroke-dasharray="5,2" d="M84.98,-697.12C120.32,-683.49 173.38,-663.03 204.72,-650.94"/>
<polygon fill="#9a32cd" stroke="#9a32cd" points="84.1,-693.71 76.03,-700.57 86.62,-700.24 84.1,-693.71"/>
<text text-anchor="middle" x="137" y="-687" font-family="Roboto" font-size="10.00"> refCount_</text>
</g>
<!-- Node8&#45;&gt;Node5 -->
<g id="edge7" class="edge">
<title>Node8&#45;&gt;Node5</title>
<path fill="none" stroke="#9a32cd" stroke-dasharray="5,2" d="M943.52,-376C937.65,-415.82 919.06,-502.24 865,-546 743.25,-644.55 672.75,-583.06 519,-613 484.61,-619.7 445.57,-627.34 416.99,-632.95"/>
<polygon fill="#9a32cd" stroke="#9a32cd" points="946.96,-376.69 944.81,-366.32 940.02,-375.77 946.96,-376.69"/>
<text text-anchor="middle" x="629.5" y="-616" font-family="Roboto" font-size="10.00"> context_</text>
</g>
<!-- Node9 -->
<g id="node9" class="node">
<title>Node9</title>
<g id="a_node9"><a xlink:href="class_urho3_d_1_1_hash_map.html" target="_top" xlink:title=" ">
<polygon fill="white" stroke="#666666" points="720.5,-299.5 538.5,-299.5 538.5,-258.5 720.5,-258.5 720.5,-299.5"/>
<text text-anchor="start" x="546.5" y="-287.5" font-family="Roboto" font-size="10.00">Urho3D::HashMap&lt; Urho3D</text>
<text text-anchor="start" x="546.5" y="-276.5" font-family="Roboto" font-size="10.00">::StringHash, Urho3D::</text>
<text text-anchor="middle" x="629.5" y="-265.5" font-family="Roboto" font-size="10.00">SharedPtr&lt; Urho3D::ObjectFactory &gt; &gt;</text>
</a>
</g>
</g>
<!-- Node9&#45;&gt;Node8 -->
<g id="edge9" class="edge">
<title>Node9&#45;&gt;Node8</title>
<path fill="none" stroke="#9a32cd" stroke-dasharray="5,2" d="M732.07,-293.71C773.69,-300.86 822.07,-310.62 865,-323 885.48,-328.91 907.98,-338.02 924.05,-345.01"/>
<polygon fill="#9a32cd" stroke="#9a32cd" points="732.74,-290.27 722.29,-292.06 731.57,-297.17 732.74,-290.27"/>
<text text-anchor="middle" x="811.5" y="-326" font-family="Roboto" font-size="10.00"> factories_</text>
</g>
<!-- Node10 -->
<g id="node10" class="node">
<title>Node10</title>
<g id="a_node10"><a xlink:href="class_urho3_d_1_1_hash_base.html" target="_top" xlink:title="Hash set/map base class.">
<polygon fill="#fff0f0" stroke="red" points="425,-229.5 325,-229.5 325,-210.5 425,-210.5 425,-229.5"/>
<text text-anchor="middle" x="375" y="-217.5" font-family="Roboto" font-size="10.00">Urho3D::HashBase</text>
</a>
</g>
</g>
<!-- Node10&#45;&gt;Node9 -->
<g id="edge10" class="edge">
<title>Node10&#45;&gt;Node9</title>
<path fill="none" stroke="#63b8ff" d="M429.37,-232.47C461.12,-239.89 502.23,-249.5 538.85,-258.05"/>
<polygon fill="#63b8ff" stroke="#63b8ff" points="430.56,-229.15 420.02,-230.29 428.96,-235.97 430.56,-229.15"/>
</g>
<!-- Node14 -->
<g id="node11" class="node">
<title>Node14</title>
<g id="a_node11"><a xlink:href="class_urho3_d_1_1_hash_map.html" target="_top" xlink:title=" ">
<polygon fill="white" stroke="#666666" points="704,-240.5 555,-240.5 555,-199.5 704,-199.5 704,-240.5"/>
<text text-anchor="start" x="563" y="-228.5" font-family="Roboto" font-size="10.00">Urho3D::HashMap&lt; Urho3D</text>
<text text-anchor="start" x="563" y="-217.5" font-family="Roboto" font-size="10.00">::StringHash, Urho3D::</text>
<text text-anchor="middle" x="629.5" y="-206.5" font-family="Roboto" font-size="10.00">SharedPtr&lt; Urho3D::Object &gt; &gt;</text>
</a>
</g>
</g>
<!-- Node10&#45;&gt;Node14 -->
<g id="edge12" class="edge">
<title>Node10&#45;&gt;Node14</title>
<path fill="none" stroke="#63b8ff" d="M436.47,-220C472.05,-220 517.3,-220 554.94,-220"/>
<polygon fill="#63b8ff" stroke="#63b8ff" points="436.8,-216.5 426.8,-220 436.8,-223.5 436.8,-216.5"/>
</g>
<!-- Node15 -->
<g id="node12" class="node">
<title>Node15</title>
<g id="a_node12"><a xlink:href="class_urho3_d_1_1_hash_map.html" target="_top" xlink:title=" ">
<polygon fill="white" stroke="#666666" points="710.5,-181.5 548.5,-181.5 548.5,-140.5 710.5,-140.5 710.5,-181.5"/>
<text text-anchor="start" x="556.5" y="-169.5" font-family="Roboto" font-size="10.00">Urho3D::HashMap&lt; Urho3D</text>
<text text-anchor="start" x="556.5" y="-158.5" font-family="Roboto" font-size="10.00">::StringHash, Urho3D::</text>
<text text-anchor="middle" x="629.5" y="-147.5" font-family="Roboto" font-size="10.00">Vector&lt; Urho3D::AttributeInfo &gt; &gt;</text>
</a>
</g>
</g>
<!-- Node10&#45;&gt;Node15 -->
<g id="edge14" class="edge">
<title>Node10&#45;&gt;Node15</title>
<path fill="none" stroke="#63b8ff" d="M429.34,-207.54C463.83,-199.48 509.38,-188.83 548.21,-179.76"/>
<polygon fill="#63b8ff" stroke="#63b8ff" points="428.96,-204.03 420.02,-209.71 430.56,-210.85 428.96,-204.03"/>
</g>
<!-- Node16 -->
<g id="node13" class="node">
<title>Node16</title>
<g id="a_node13"><a xlink:href="class_urho3_d_1_1_hash_map.html" target="_top" xlink:title=" ">
<polygon fill="white" stroke="#666666" points="713,-122 546,-122 546,-70 713,-70 713,-122"/>
<text text-anchor="start" x="554" y="-110" font-family="Roboto" font-size="10.00">Urho3D::HashMap&lt; Urho3D</text>
<text text-anchor="start" x="554" y="-99" font-family="Roboto" font-size="10.00">::StringHash, Urho3D::</text>
<text text-anchor="start" x="554" y="-88" font-family="Roboto" font-size="10.00">SharedPtr&lt; Urho3D::EventReceiver</text>
<text text-anchor="middle" x="629.5" y="-77" font-family="Roboto" font-size="10.00">Group &gt; &gt;</text>
</a>
</g>
</g>
<!-- Node10&#45;&gt;Node16 -->
<g id="edge16" class="edge">
<title>Node10&#45;&gt;Node16</title>
<path fill="none" stroke="#63b8ff" d="M398.24,-203.72C425.56,-184.3 473.85,-151.87 519,-131 527.51,-127.06 536.59,-123.39 545.74,-120.02"/>
<polygon fill="#63b8ff" stroke="#63b8ff" points="396.48,-200.67 390.4,-209.35 400.56,-206.36 396.48,-200.67"/>
</g>
<!-- Node17 -->
<g id="node14" class="node">
<title>Node17</title>
<g id="a_node14"><a xlink:href="class_urho3_d_1_1_hash_map.html" target="_top" xlink:title=" ">
<polygon fill="white" stroke="#666666" points="740,-52 519,-52 519,0 740,0 740,-52"/>
<text text-anchor="start" x="527" y="-40" font-family="Roboto" font-size="10.00">Urho3D::HashMap&lt; Urho3D</text>
<text text-anchor="start" x="527" y="-29" font-family="Roboto" font-size="10.00">::Object *, Urho3D::HashMap</text>
<text text-anchor="start" x="527" y="-18" font-family="Roboto" font-size="10.00">&lt; Urho3D::StringHash, Urho3D</text>
<text text-anchor="middle" x="629.5" y="-7" font-family="Roboto" font-size="10.00">::SharedPtr&lt; Urho3D::EventReceiverGroup &gt; &gt; &gt;</text>
</a>
</g>
</g>
<!-- Node10&#45;&gt;Node17 -->
<g id="edge18" class="edge">
<title>Node10&#45;&gt;Node17</title>
<path fill="none" stroke="#63b8ff" d="M388.19,-200.48C410.17,-166.9 459.71,-98.23 519,-61 523.9,-57.92 529.1,-55.09 534.46,-52.49"/>
<polygon fill="#63b8ff" stroke="#63b8ff" points="385.31,-198.48 382.86,-208.79 391.21,-202.26 385.31,-198.48"/>
</g>
<!-- Node24 -->
<g id="node20" class="node">
<title>Node24</title>
<g id="a_node20"><a xlink:href="class_urho3_d_1_1_hash_map.html" target="_top" xlink:title=" ">
<polygon fill="white" stroke="#666666" points="699,-407.5 560,-407.5 560,-366.5 699,-366.5 699,-407.5"/>
<text text-anchor="start" x="568" y="-395.5" font-family="Roboto" font-size="10.00">Urho3D::HashMap&lt; Urho3D</text>
<text text-anchor="start" x="568" y="-384.5" font-family="Roboto" font-size="10.00">::String, Urho3D::Vector</text>
<text text-anchor="middle" x="629.5" y="-373.5" font-family="Roboto" font-size="10.00">&lt; Urho3D::StringHash &gt; &gt;</text>
</a>
</g>
</g>
<!-- Node10&#45;&gt;Node24 -->
<g id="edge28" class="edge">
<title>Node10&#45;&gt;Node24</title>
<path fill="none" stroke="#63b8ff" d="M389.78,-239.09C412.81,-269.45 462.25,-328.22 519,-357 531.66,-363.42 545.86,-368.6 559.73,-372.73"/>
<polygon fill="#63b8ff" stroke="#63b8ff" points="392.68,-237.13 383.91,-231.19 387.06,-241.3 392.68,-237.13"/>
</g>
<!-- Node25 -->
<g id="node21" class="node">
<title>Node25</title>
<g id="a_node21"><a xlink:href="class_urho3_d_1_1_hash_map.html" target="_top" xlink:title=" ">
<polygon fill="white" stroke="#666666" points="707.5,-348 551.5,-348 551.5,-318 707.5,-318 707.5,-348"/>
<text text-anchor="start" x="559.5" y="-336" font-family="Roboto" font-size="10.00">Urho3D::HashMap&lt; StringHash,</text>
<text text-anchor="middle" x="629.5" y="-325" font-family="Roboto" font-size="10.00"> Variant &gt;</text>
</a>
</g>
</g>
<!-- Node10&#45;&gt;Node25 -->
<g id="edge30" class="edge">
<title>Node10&#45;&gt;Node25</title>
<path fill="none" stroke="#63b8ff" d="M397.57,-236.42C424.56,-256.21 472.86,-289.14 519,-308 529.2,-312.17 540.23,-315.72 551.23,-318.71"/>
<polygon fill="#63b8ff" stroke="#63b8ff" points="399.96,-233.84 389.84,-230.68 395.78,-239.46 399.96,-233.84"/>
</g>
<!-- Node14&#45;&gt;Node8 -->
<g id="edge11" class="edge">
<title>Node14&#45;&gt;Node8</title>
<path fill="none" stroke="#9a32cd" stroke-dasharray="5,2" d="M715.45,-233.89C761.62,-243.77 818.59,-259.85 865,-285 894.91,-301.2 923.45,-330.01 937.29,-345.12"/>
<polygon fill="#9a32cd" stroke="#9a32cd" points="716.25,-230.48 705.75,-231.88 714.83,-237.34 716.25,-230.48"/>
<text text-anchor="middle" x="811.5" y="-288" font-family="Roboto" font-size="10.00"> subsystems_</text>
</g>
<!-- Node15&#45;&gt;Node8 -->
<g id="edge13" class="edge">
<title>Node15&#45;&gt;Node8</title>
<path fill="none" stroke="#9a32cd" stroke-dasharray="5,2" d="M722.27,-167C768.77,-173.94 823.92,-188.54 865,-219 910.47,-252.72 935.21,-320.23 943.14,-345.32"/>
<polygon fill="#9a32cd" stroke="#9a32cd" points="722.84,-163.54 712.46,-165.64 721.88,-170.48 722.84,-163.54"/>
<text text-anchor="middle" x="811.5" y="-233" font-family="Roboto" font-size="10.00"> attributes_</text>
<text text-anchor="middle" x="811.5" y="-222" font-family="Roboto" font-size="10.00">networkAttributes_</text>
</g>
<!-- Node16&#45;&gt;Node8 -->
<g id="edge15" class="edge">
<title>Node16&#45;&gt;Node8</title>
<path fill="none" stroke="#9a32cd" stroke-dasharray="5,2" d="M724.52,-102.81C771.51,-110.61 826.43,-126.98 865,-161 923.57,-212.67 940.82,-313.52 944.9,-345.22"/>
<polygon fill="#9a32cd" stroke="#9a32cd" points="725.29,-99.39 714.88,-101.32 724.23,-106.3 725.29,-99.39"/>
<text text-anchor="middle" x="811.5" y="-164" font-family="Roboto" font-size="10.00"> eventReceivers_</text>
</g>
<!-- Node17&#45;&gt;Node8 -->
<g id="edge17" class="edge">
<title>Node17&#45;&gt;Node8</title>
<path fill="none" stroke="#9a32cd" stroke-dasharray="5,2" d="M751.56,-38.96C792.11,-48.84 834.67,-66.06 865,-96 938.6,-168.65 945.54,-307.13 946.02,-345.14"/>
<polygon fill="#9a32cd" stroke="#9a32cd" points="752.47,-35.58 741.94,-36.76 750.91,-42.4 752.47,-35.58"/>
<text text-anchor="middle" x="811.5" y="-99" font-family="Roboto" font-size="10.00"> specificEventReceivers_</text>
</g>
<!-- Node18 -->
<g id="node15" class="node">
<title>Node18</title>
<g id="a_node15"><a xlink:href="class_urho3_d_1_1_p_o_d_vector.html" target="_top" xlink:title=" ">
<polygon fill="white" stroke="#666666" points="684,-504 575,-504 575,-474 684,-474 684,-504"/>
<text text-anchor="start" x="583" y="-492" font-family="Roboto" font-size="10.00">Urho3D::PODVector&lt;</text>
<text text-anchor="middle" x="629.5" y="-481" font-family="Roboto" font-size="10.00"> Urho3D::Object * &gt;</text>
</a>
</g>
</g>
<!-- Node18&#45;&gt;Node8 -->
<g id="edge19" class="edge">
<title>Node18&#45;&gt;Node8</title>
<path fill="none" stroke="#9a32cd" stroke-dasharray="5,2" d="M695.34,-482.36C744.43,-475.18 812.18,-460.51 865,-431 896.48,-413.41 925.19,-380.97 938.38,-364.75"/>
<polygon fill="#9a32cd" stroke="#9a32cd" points="695.15,-478.86 685.72,-483.7 696.11,-485.79 695.15,-478.86"/>
<text text-anchor="middle" x="811.5" y="-473" font-family="Roboto" font-size="10.00"> eventSenders_</text>
</g>
<!-- Node19 -->
<g id="node16" class="node">
<title>Node19</title>
<g id="a_node16"><a xlink:href="class_urho3_d_1_1_vector_base.html" target="_top" xlink:title="Vector base class.">
<polygon fill="white" stroke="#666666" points="428,-474.5 322,-474.5 322,-455.5 428,-455.5 428,-474.5"/>
<text text-anchor="middle" x="375" y="-462.5" font-family="Roboto" font-size="10.00">Urho3D::VectorBase</text>
</a>
</g>
</g>
<!-- Node19&#45;&gt;Node18 -->
<g id="edge20" class="edge">
<title>Node19&#45;&gt;Node18</title>
<path fill="none" stroke="#63b8ff" d="M439.71,-471.06C481.3,-475.01 535.01,-480.11 574.51,-483.87"/>
<polygon fill="#63b8ff" stroke="#63b8ff" points="440.11,-467.58 429.82,-470.12 439.45,-474.55 440.11,-467.58"/>
</g>
<!-- Node20 -->
<g id="node17" class="node">
<title>Node20</title>
<g id="a_node17"><a xlink:href="class_urho3_d_1_1_p_o_d_vector.html" target="_top" xlink:title=" ">
<polygon fill="white" stroke="#666666" points="686.5,-456 572.5,-456 572.5,-426 686.5,-426 686.5,-456"/>
<text text-anchor="start" x="580.5" y="-444" font-family="Roboto" font-size="10.00">Urho3D::PODVector&lt;</text>
<text text-anchor="middle" x="629.5" y="-433" font-family="Roboto" font-size="10.00"> Urho3D::HashMap * &gt;</text>
</a>
</g>
</g>
<!-- Node19&#45;&gt;Node20 -->
<g id="edge22" class="edge">
<title>Node19&#45;&gt;Node20</title>
<path fill="none" stroke="#63b8ff" d="M439.77,-458.94C480.59,-455.06 533.05,-450.07 572.3,-446.34"/>
<polygon fill="#63b8ff" stroke="#63b8ff" points="439.45,-455.45 429.82,-459.88 440.11,-462.42 439.45,-455.45"/>
</g>
<!-- Node20&#45;&gt;Node8 -->
<g id="edge21" class="edge">
<title>Node20&#45;&gt;Node8</title>
<path fill="none" stroke="#9a32cd" stroke-dasharray="5,2" d="M697.72,-429.41C745.07,-420.45 809.63,-406.6 865,-389 886.07,-382.3 909.26,-372.28 925.41,-364.85"/>
<polygon fill="#9a32cd" stroke="#9a32cd" points="697.36,-425.92 688.17,-431.2 698.64,-432.8 697.36,-425.92"/>
<text text-anchor="middle" x="811.5" y="-419" font-family="Roboto" font-size="10.00"> eventDataMaps_</text>
</g>
<!-- Node21&#45;&gt;Node8 -->
<g id="edge23" class="edge">
<title>Node21&#45;&gt;Node8</title>
<path fill="none" stroke="#9a32cd" stroke-dasharray="5,2" d="M697.57,-669.51C749.83,-659.51 820.71,-637.97 865,-592 930.77,-523.73 943.26,-399.87 945.52,-364.6"/>
<polygon fill="#9a32cd" stroke="#9a32cd" points="697.09,-666.04 687.88,-671.26 698.34,-672.93 697.09,-666.04"/>
<text text-anchor="middle" x="811.5" y="-655" font-family="Roboto" font-size="10.00"> eventHandler_</text>
</g>
<!-- Node26 -->
<g id="node22" class="node">
<title>Node26</title>
<g id="a_node22"><a xlink:href="class_urho3_d_1_1_linked_list.html" target="_top" xlink:title=" ">
<polygon fill="white" stroke="#666666" points="1011,-673 883,-673 883,-643 1011,-643 1011,-673"/>
<text text-anchor="start" x="891" y="-661" font-family="Roboto" font-size="10.00">Urho3D::LinkedList</text>
<text text-anchor="middle" x="947" y="-650" font-family="Roboto" font-size="10.00">&lt; Urho3D::EventHandler &gt;</text>
</a>
</g>
</g>
<!-- Node21&#45;&gt;Node26 -->
<g id="edge32" class="edge">
<title>Node21&#45;&gt;Node26</title>
<path fill="none" stroke="#9a32cd" stroke-dasharray="5,2" d="M697.3,-677.72C744.29,-677.04 808.6,-675.12 865,-670 870.8,-669.47 876.83,-668.81 882.85,-668.06"/>
<polygon fill="#9a32cd" stroke="#9a32cd" points="697.51,-674.22 687.56,-677.85 697.6,-681.22 697.51,-674.22"/>
<text text-anchor="middle" x="811.5" y="-679" font-family="Roboto" font-size="10.00"> head_</text>
</g>
<!-- Node23 -->
<g id="node19" class="node">
<title>Node23</title>
<g id="a_node19"><a xlink:href="class_urho3_d_1_1_string_hash.html" target="_top" xlink:title="32&#45;bit hash value for a string.">
<polygon fill="white" stroke="#666666" points="427,-725.5 323,-725.5 323,-706.5 427,-706.5 427,-725.5"/>
<text text-anchor="middle" x="375" y="-713.5" font-family="Roboto" font-size="10.00">Urho3D::StringHash</text>
</a>
</g>
</g>
<!-- Node23&#45;&gt;Node4 -->
<g id="edge35" class="edge">
<title>Node23&#45;&gt;Node4</title>
<path fill="none" stroke="#9a32cd" stroke-dasharray="5,2" d="M415.24,-729.7C450.79,-742.27 498.06,-759.47 501,-763 529.91,-797.7 486.97,-831.17 519,-863 535.08,-878.98 559.47,-884.29 581.15,-885.37"/>
<polygon fill="#9a32cd" stroke="#9a32cd" points="416.67,-726.49 406.08,-726.47 414.34,-733.1 416.67,-726.49"/>
<text text-anchor="middle" x="473.5" y="-766" font-family="Roboto" font-size="10.00"> nameHash_</text>
</g>
<!-- Node23&#45;&gt;Node21 -->
<g id="edge25" class="edge">
<title>Node23&#45;&gt;Node21</title>
<path fill="none" stroke="#9a32cd" stroke-dasharray="5,2" d="M438.66,-706.57C479.8,-700.38 533.13,-692.35 572.79,-686.38"/>
<polygon fill="#9a32cd" stroke="#9a32cd" points="438.27,-703.09 428.9,-708.04 439.31,-710.01 438.27,-703.09"/>
<text text-anchor="middle" x="473.5" y="-707" font-family="Roboto" font-size="10.00"> eventType_</text>
</g>
<!-- Node23&#45;&gt;Node23 -->
<g id="edge26" class="edge">
<title>Node23&#45;&gt;Node23</title>
<path fill="none" stroke="#9a32cd" stroke-dasharray="5,2" d="M362.45,-737.26C364.14,-740.94 368.32,-743.5 375,-743.5 387.57,-743.5 391.3,-734.44 386.19,-725.87"/>
<polygon fill="#9a32cd" stroke="#9a32cd" points="365.92,-737.71 363.63,-727.37 358.97,-736.89 365.92,-737.71"/>
<text text-anchor="middle" x="375" y="-746.5" font-family="Roboto" font-size="10.00"> ZERO</text>
</g>
<!-- Node24&#45;&gt;Node8 -->
<g id="edge27" class="edge">
<title>Node24&#45;&gt;Node8</title>
<path fill="none" stroke="#9a32cd" stroke-dasharray="5,2" d="M710.45,-378.89C771.25,-372.72 852.61,-364.47 902.07,-359.46"/>
<polygon fill="#9a32cd" stroke="#9a32cd" points="710.45,-375.37 700.85,-379.86 711.16,-382.34 710.45,-375.37"/>
<text text-anchor="middle" x="811.5" y="-377" font-family="Roboto" font-size="10.00"> objectCategories_</text>
</g>
<!-- Node25&#45;&gt;Node8 -->
<g id="edge29" class="edge">
<title>Node25&#45;&gt;Node8</title>
<path fill="none" stroke="#9a32cd" stroke-dasharray="5,2" d="M719.22,-335.32C763.14,-336.93 816.93,-339.62 865,-344 877.15,-345.11 890.28,-346.71 902.36,-348.36"/>
<polygon fill="#9a32cd" stroke="#9a32cd" points="719.61,-331.83 709.5,-334.97 719.37,-338.83 719.61,-331.83"/>
<text text-anchor="middle" x="811.5" y="-347" font-family="Roboto" font-size="10.00"> globalVars_</text>
</g>
<!-- Node26&#45;&gt;Node5 -->
<g id="edge31" class="edge">
<title>Node26&#45;&gt;Node5</title>
<path fill="none" stroke="#9a32cd" stroke-dasharray="5,2" d="M875.93,-640.52C872.25,-639.93 868.59,-639.42 865,-639 699.71,-619.87 500.88,-631.21 416.75,-637.57"/>
<polygon fill="#9a32cd" stroke="#9a32cd" points="875.05,-643.92 885.51,-642.24 876.28,-637.03 875.05,-643.92"/>
<text text-anchor="middle" x="629.5" y="-634" font-family="Roboto" font-size="10.00"> eventHandlers_</text>
</g>
<!-- Node27 -->
<g id="node23" class="node">
<title>Node27</title>
<g id="a_node23"><a xlink:href="class_urho3_d_1_1_string.html" target="_top" xlink:title="String class.">
<polygon fill="white" stroke="#666666" points="415,-910.5 335,-910.5 335,-891.5 415,-891.5 415,-910.5"/>
<text text-anchor="middle" x="375" y="-898.5" font-family="Roboto" font-size="10.00">Urho3D::String</text>
</a>
</g>
</g>
<!-- Node27&#45;&gt;Node4 -->
<g id="edge33" class="edge">
<title>Node27&#45;&gt;Node4</title>
<path fill="none" stroke="#9a32cd" stroke-dasharray="5,2" d="M426.73,-897.18C471.79,-893.79 537.15,-888.87 581.15,-885.56"/>
<polygon fill="#9a32cd" stroke="#9a32cd" points="426.67,-893.68 416.96,-897.92 427.2,-900.66 426.67,-893.68"/>
<text text-anchor="middle" x="473.5" y="-898" font-family="Roboto" font-size="10.00"> name_</text>
</g>
<!-- Node27&#45;&gt;Node27 -->
<g id="edge34" class="edge">
<title>Node27&#45;&gt;Node27</title>
<path fill="none" stroke="#9a32cd" stroke-dasharray="5,2" d="M362.45,-922.26C364.14,-925.94 368.32,-928.5 375,-928.5 387.57,-928.5 391.3,-919.44 386.19,-910.87"/>
<polygon fill="#9a32cd" stroke="#9a32cd" points="365.92,-922.71 363.63,-912.37 358.97,-921.89 365.92,-922.71"/>
<text text-anchor="middle" x="375" y="-931.5" font-family="Roboto" font-size="10.00"> EMPTY</text>
</g>
<!-- Node28 -->
<g id="node24" class="node">
<title>Node28</title>
<g id="a_node24"><a xlink:href="class_urho3_d_1_1_timer.html" target="_top" xlink:title="Low&#45;resolution operating system timer.">
<polygon fill="white" stroke="#666666" points="415.5,-873.5 334.5,-873.5 334.5,-854.5 415.5,-854.5 415.5,-873.5"/>
<text text-anchor="middle" x="375" y="-861.5" font-family="Roboto" font-size="10.00">Urho3D::Timer</text>
</a>
</g>
</g>
<!-- Node28&#45;&gt;Node4 -->
<g id="edge36" class="edge">
<title>Node28&#45;&gt;Node4</title>
<path fill="none" stroke="#9a32cd" stroke-dasharray="5,2" d="M427.15,-864.15C449.8,-864.5 476.75,-865.29 501,-867 527.57,-868.88 557.11,-872.27 581.07,-875.36"/>
<polygon fill="#9a32cd" stroke="#9a32cd" points="427.29,-860.65 417.25,-864.03 427.2,-867.65 427.29,-860.65"/>
<text text-anchor="middle" x="473.5" y="-870" font-family="Roboto" font-size="10.00"> useTimer_</text>
</g>
<!-- Node29 -->
<g id="node25" class="node">
<title>Node29</title>
<g id="a_node25"><a xlink:href="class_urho3_d_1_1_unique_ptr.html" target="_top" xlink:title=" ">
<polygon fill="white" stroke="#666666" points="687,-854 572,-854 572,-824 687,-824 687,-854"/>
<text text-anchor="start" x="580" y="-842" font-family="Roboto" font-size="10.00">Urho3D::UniquePtr&lt;</text>
<text text-anchor="middle" x="629.5" y="-831" font-family="Roboto" font-size="10.00"> pugi::xml_document &gt;</text>
</a>
</g>
</g>
<!-- Node29&#45;&gt;Node3 -->
<g id="edge37" class="edge">
<title>Node29&#45;&gt;Node3</title>
<path fill="none" stroke="#9a32cd" stroke-dasharray="5,2" d="M698.44,-839C760.05,-839 849.08,-839 901.89,-839"/>
<polygon fill="#9a32cd" stroke="#9a32cd" points="698.78,-835.5 688.78,-839 698.78,-842.5 698.78,-835.5"/>
<text text-anchor="middle" x="811.5" y="-842" font-family="Roboto" font-size="10.00"> document_</text>
</g>
</g>
</svg>
