<?xml version="1.0" encoding="UTF-8" standalone="no"?>
<!DOCTYPE svg PUBLIC "-//W3C//DTD SVG 1.1//EN"
 "http://www.w3.org/Graphics/SVG/1.1/DTD/svg11.dtd">
<!-- Generated by graphviz version 7.0.3 (0)
 -->
<!-- Title: Urho3D::Console::SetNumHistoryRows Pages: 1 -->
<svg width="1003pt" height="274pt"
 viewBox="0.00 0.00 1003.00 274.09" xmlns="http://www.w3.org/2000/svg" xmlns:xlink="http://www.w3.org/1999/xlink">
<g id="graph0" class="graph" transform="scale(1 1) rotate(0) translate(4 270.09)">
<title>Urho3D::Console::SetNumHistoryRows</title>
<!-- Node1 -->
<g id="node1" class="node">
<title>Node1</title>
<g id="a_node1"><a xlink:title=" ">
<polygon fill="#999999" stroke="#666666" points="189,-115.5 0,-115.5 0,-96.5 189,-96.5 189,-115.5"/>
<text text-anchor="middle" x="94.5" y="-103.5" font-family="Roboto" font-size="10.00">Urho3D::Console::SetNumHistoryRows</text>
</a>
</g>
</g>
<!-- Node2 -->
<g id="node2" class="node">
<title>Node2</title>
<g id="a_node2"><a xlink:href="class_urho3_d_1_1_vector.html#a5d21ed173348c7bca276c417ed7d38e2" target="_top" xlink:title="Resize the vector.">
<polygon fill="white" stroke="#666666" points="343,-134.5 225,-134.5 225,-115.5 343,-115.5 343,-134.5"/>
<text text-anchor="middle" x="284" y="-122.5" font-family="Roboto" font-size="10.00">Urho3D::Vector::Resize</text>
</a>
</g>
</g>
<!-- Node1&#45;&gt;Node2 -->
<g id="edge1" class="edge">
<title>Node1&#45;&gt;Node2</title>
<path fill="none" stroke="#63b8ff" d="M189.25,-115.5C197.37,-116.32 205.49,-117.15 213.37,-117.94"/>
<polygon fill="#63b8ff" stroke="#63b8ff" points="212.89,-121.41 223.2,-118.94 213.6,-114.45 212.89,-121.41"/>
</g>
<!-- Node12 -->
<g id="node12" class="node">
<title>Node12</title>
<g id="a_node12"><a xlink:href="class_urho3_d_1_1_vector.html#a5da7101c355895f41098fcf875e4c56a" target="_top" xlink:title="Return size of vector.">
<polygon fill="white" stroke="#666666" points="337.5,-97.5 230.5,-97.5 230.5,-78.5 337.5,-78.5 337.5,-97.5"/>
<text text-anchor="middle" x="284" y="-85.5" font-family="Roboto" font-size="10.00">Urho3D::Vector::Size</text>
</a>
</g>
</g>
<!-- Node1&#45;&gt;Node12 -->
<g id="edge16" class="edge">
<title>Node1&#45;&gt;Node12</title>
<path fill="none" stroke="#63b8ff" d="M189.25,-97C199.27,-96.04 209.3,-95.08 218.86,-94.16"/>
<polygon fill="#63b8ff" stroke="#63b8ff" points="219.15,-97.65 228.77,-93.21 218.48,-90.68 219.15,-97.65"/>
</g>
<!-- Node3 -->
<g id="node3" class="node">
<title>Node3</title>
<g id="a_node3"><a xlink:href="class_urho3_d_1_1_vector.html#ae9748e916e5595ad4ea377f2a0d1a1b7" target="_top" xlink:title="Resize the vector and create/remove new elements as necessary.">
<polygon fill="white" stroke="#666666" points="510,-134.5 379,-134.5 379,-115.5 510,-115.5 510,-134.5"/>
<text text-anchor="middle" x="444.5" y="-122.5" font-family="Roboto" font-size="10.00">Urho3D::Vector::DoResize</text>
</a>
</g>
</g>
<!-- Node2&#45;&gt;Node3 -->
<g id="edge2" class="edge">
<title>Node2&#45;&gt;Node3</title>
<path fill="none" stroke="#63b8ff" d="M343.12,-125C350.99,-125 359.15,-125 367.28,-125"/>
<polygon fill="#63b8ff" stroke="#63b8ff" points="367.18,-128.5 377.18,-125 367.18,-121.5 367.18,-128.5"/>
</g>
<!-- Node4 -->
<g id="node4" class="node">
<title>Node4</title>
<g id="a_node4"><a xlink:href="class_urho3_d_1_1_vector.html#a2126455bfd4dd42c90838abba6fef37a" target="_top" xlink:title="Return the buffer with right type.">
<polygon fill="white" stroke="#666666" points="995,-250.5 879,-250.5 879,-231.5 995,-231.5 995,-250.5"/>
<text text-anchor="middle" x="937" y="-238.5" font-family="Roboto" font-size="10.00">Urho3D::Vector::Buffer</text>
</a>
</g>
</g>
<!-- Node3&#45;&gt;Node4 -->
<g id="edge3" class="edge">
<title>Node3&#45;&gt;Node4</title>
<path fill="none" stroke="#63b8ff" d="M455.83,-134.92C473.19,-151.13 509.88,-183.44 546,-203 614.22,-239.95 634.48,-247.16 711,-260 768.86,-269.71 784.63,-265.9 843,-260 856.83,-258.6 871.65,-256.06 885.3,-253.28"/>
<polygon fill="#63b8ff" stroke="#63b8ff" points="885.91,-256.73 894.96,-251.23 884.46,-249.88 885.91,-256.73"/>
</g>
<!-- Node5 -->
<g id="node5" class="node">
<title>Node5</title>
<g id="a_node5"><a xlink:href="class_urho3_d_1_1_vector.html#a05f68c0546419caf7d6050a3e7d8d1d5" target="_top" xlink:title="Calculate new vector capacity.">
<polygon fill="white" stroke="#666666" points="675,-78 546,-78 546,-48 675,-48 675,-78"/>
<text text-anchor="start" x="554" y="-66" font-family="Roboto" font-size="10.00">Urho3D::Vector::Calculate</text>
<text text-anchor="middle" x="610.5" y="-55" font-family="Roboto" font-size="10.00">Capacity</text>
</a>
</g>
</g>
<!-- Node3&#45;&gt;Node5 -->
<g id="edge4" class="edge">
<title>Node3&#45;&gt;Node5</title>
<path fill="none" stroke="#63b8ff" d="M471.85,-115.04C495.05,-106.27 529.51,-93.24 558.15,-82.41"/>
<polygon fill="#63b8ff" stroke="#63b8ff" points="559.27,-85.73 567.39,-78.92 556.79,-79.18 559.27,-85.73"/>
</g>
<!-- Node6 -->
<g id="node6" class="node">
<title>Node6</title>
<g id="a_node6"><a xlink:href="class_urho3_d_1_1_vector.html#a5c0b7ecbd0ae0c75a9a69bf9dedc517a" target="_top" xlink:title="Construct elements using default ctor.">
<polygon fill="white" stroke="#666666" points="843,-157 711,-157 711,-127 843,-127 843,-157"/>
<text text-anchor="start" x="719" y="-145" font-family="Roboto" font-size="10.00">Urho3D::Vector::Construct</text>
<text text-anchor="middle" x="777" y="-134" font-family="Roboto" font-size="10.00">Elements</text>
</a>
</g>
</g>
<!-- Node3&#45;&gt;Node6 -->
<g id="edge5" class="edge">
<title>Node3&#45;&gt;Node6</title>
<path fill="none" stroke="#63b8ff" d="M510.4,-128.34C564.68,-131.13 642.21,-135.12 699.51,-138.07"/>
<polygon fill="#63b8ff" stroke="#63b8ff" points="699,-141.54 709.17,-138.56 699.36,-134.55 699,-141.54"/>
</g>
<!-- Node7 -->
<g id="node7" class="node">
<title>Node7</title>
<g id="a_node7"><a xlink:href="class_urho3_d_1_1_vector.html#afb87585db12d120ab5148ec782d14632" target="_top" xlink:title="Call the elements&#39; destructors.">
<polygon fill="white" stroke="#666666" points="840,-109 714,-109 714,-79 840,-79 840,-109"/>
<text text-anchor="start" x="722" y="-97" font-family="Roboto" font-size="10.00">Urho3D::Vector::Destruct</text>
<text text-anchor="middle" x="777" y="-86" font-family="Roboto" font-size="10.00">Elements</text>
</a>
</g>
</g>
<!-- Node3&#45;&gt;Node7 -->
<g id="edge6" class="edge">
<title>Node3&#45;&gt;Node7</title>
<path fill="none" stroke="#63b8ff" d="M510.4,-118.91C565.65,-113.73 644.99,-106.29 702.56,-100.89"/>
<polygon fill="#63b8ff" stroke="#63b8ff" points="702.63,-104.4 712.26,-99.98 701.98,-97.43 702.63,-104.4"/>
</g>
<!-- Node8 -->
<g id="node8" class="node">
<title>Node8</title>
<g id="a_node8"><a xlink:href="class_urho3_d_1_1_vector.html#a30b2235d2061acfb649faa5afddebb69" target="_top" xlink:title="Set new capacity.">
<polygon fill="white" stroke="#666666" points="672.5,-193.5 548.5,-193.5 548.5,-174.5 672.5,-174.5 672.5,-193.5"/>
<text text-anchor="middle" x="610.5" y="-181.5" font-family="Roboto" font-size="10.00">Urho3D::Vector::Reserve</text>
</a>
</g>
</g>
<!-- Node3&#45;&gt;Node8 -->
<g id="edge7" class="edge">
<title>Node3&#45;&gt;Node8</title>
<path fill="none" stroke="#63b8ff" d="M472.95,-134.88C499.91,-144.58 541.27,-159.46 571.41,-170.3"/>
<polygon fill="#63b8ff" stroke="#63b8ff" points="569.94,-173.49 580.54,-173.58 572.31,-166.9 569.94,-173.49"/>
</g>
<!-- Node11 -->
<g id="node11" class="node">
<title>Node11</title>
<g id="a_node11"><a xlink:href="class_urho3_d_1_1_vector_base.html#aec648d72344954c3be22218eb180f6a4" target="_top" xlink:title="Swap with another vector.">
<polygon fill="white" stroke="#666666" points="663.5,-30 557.5,-30 557.5,0 663.5,0 663.5,-30"/>
<text text-anchor="start" x="565.5" y="-18" font-family="Roboto" font-size="10.00">Urho3D::VectorBase</text>
<text text-anchor="middle" x="610.5" y="-7" font-family="Roboto" font-size="10.00">::Swap</text>
</a>
</g>
</g>
<!-- Node3&#45;&gt;Node11 -->
<g id="edge15" class="edge">
<title>Node3&#45;&gt;Node11</title>
<path fill="none" stroke="#63b8ff" d="M454.61,-115.23C471.28,-97.83 508.46,-61.23 546,-39 548.14,-37.73 550.36,-36.51 552.64,-35.33"/>
<polygon fill="#63b8ff" stroke="#63b8ff" points="553.94,-38.59 561.47,-31.13 550.94,-32.26 553.94,-38.59"/>
</g>
<!-- Node8&#45;&gt;Node4 -->
<g id="edge10" class="edge">
<title>Node8&#45;&gt;Node4</title>
<path fill="none" stroke="#63b8ff" d="M623.74,-193.88C641.64,-207.62 676.56,-231.83 711,-241 762.05,-254.59 821.95,-253.82 867.1,-250.07"/>
<polygon fill="#63b8ff" stroke="#63b8ff" points="867.39,-253.56 877.04,-249.17 866.76,-246.59 867.39,-253.56"/>
</g>
<!-- Node8&#45;&gt;Node6 -->
<g id="edge11" class="edge">
<title>Node8&#45;&gt;Node6</title>
<path fill="none" stroke="#63b8ff" d="M650.48,-174.05C666.61,-169.93 685.84,-165.02 704.34,-160.3"/>
<polygon fill="#63b8ff" stroke="#63b8ff" points="705.14,-163.71 713.96,-157.84 703.4,-156.92 705.14,-163.71"/>
</g>
<!-- Node8&#45;&gt;Node7 -->
<g id="edge12" class="edge">
<title>Node8&#45;&gt;Node7</title>
<path fill="none" stroke="#63b8ff" d="M624.42,-174C642.85,-160.09 678.1,-134.7 711,-118 713.72,-116.62 716.54,-115.27 719.42,-113.98"/>
<polygon fill="#63b8ff" stroke="#63b8ff" points="720.75,-117.21 728.58,-110.07 718.01,-110.77 720.75,-117.21"/>
</g>
<!-- Node9 -->
<g id="node9" class="node">
<title>Node9</title>
<g id="a_node9"><a xlink:href="class_urho3_d_1_1_vector.html#aa20f23bae4cf1d7cda06f6c3b47c7504" target="_top" xlink:title="Return iterator to the beginning.">
<polygon fill="white" stroke="#666666" points="833.5,-231.5 720.5,-231.5 720.5,-212.5 833.5,-212.5 833.5,-231.5"/>
<text text-anchor="middle" x="777" y="-219.5" font-family="Roboto" font-size="10.00">Urho3D::Vector::Begin</text>
</a>
</g>
</g>
<!-- Node8&#45;&gt;Node9 -->
<g id="edge8" class="edge">
<title>Node8&#45;&gt;Node9</title>
<path fill="none" stroke="#63b8ff" d="M654.72,-193.98C675.23,-198.72 699.95,-204.43 721.71,-209.46"/>
<polygon fill="#63b8ff" stroke="#63b8ff" points="720.78,-212.84 731.31,-211.68 722.35,-206.02 720.78,-212.84"/>
</g>
<!-- Node10 -->
<g id="node10" class="node">
<title>Node10</title>
<g id="a_node10"><a xlink:href="class_urho3_d_1_1_vector.html#af79ffb0683568b08fe130ee028bfd1ef" target="_top" xlink:title="Return iterator to the end.">
<polygon fill="white" stroke="#666666" points="830,-194.5 724,-194.5 724,-175.5 830,-175.5 830,-194.5"/>
<text text-anchor="middle" x="777" y="-182.5" font-family="Roboto" font-size="10.00">Urho3D::Vector::End</text>
</a>
</g>
</g>
<!-- Node8&#45;&gt;Node10 -->
<g id="edge13" class="edge">
<title>Node8&#45;&gt;Node10</title>
<path fill="none" stroke="#63b8ff" d="M672.75,-184.37C685.68,-184.45 699.35,-184.53 712.37,-184.61"/>
<polygon fill="#63b8ff" stroke="#63b8ff" points="712.07,-188.11 722.09,-184.67 712.11,-181.11 712.07,-188.11"/>
</g>
<!-- Node9&#45;&gt;Node4 -->
<g id="edge9" class="edge">
<title>Node9&#45;&gt;Node4</title>
<path fill="none" stroke="#63b8ff" d="M833.7,-228.7C844.63,-230.01 856.21,-231.41 867.5,-232.76"/>
<polygon fill="#63b8ff" stroke="#63b8ff" points="866.81,-236.21 877.16,-233.92 867.65,-229.26 866.81,-236.21"/>
</g>
<!-- Node10&#45;&gt;Node4 -->
<g id="edge14" class="edge">
<title>Node10&#45;&gt;Node4</title>
<path fill="none" stroke="#63b8ff" d="M814.29,-194.95C823.7,-197.71 833.77,-200.82 843,-204 863,-210.88 885.01,-219.59 902.59,-226.82"/>
<polygon fill="#63b8ff" stroke="#63b8ff" points="900.94,-229.93 911.52,-230.53 903.62,-223.46 900.94,-229.93"/>
</g>
</g>
</svg>
