<?xml version="1.0" encoding="UTF-8" standalone="no"?>
<!DOCTYPE svg PUBLIC "-//W3C//DTD SVG 1.1//EN"
 "http://www.w3.org/Graphics/SVG/1.1/DTD/svg11.dtd">
<!-- Generated by graphviz version 7.0.3 (0)
 -->
<!-- Title: Urho3D::PointOctreeQuery Pages: 1 -->
<svg width="291pt" height="295pt"
 viewBox="0.00 0.00 290.50 295.00" xmlns="http://www.w3.org/2000/svg" xmlns:xlink="http://www.w3.org/1999/xlink">
<g id="graph0" class="graph" transform="scale(1 1) rotate(0) translate(4 291)">
<title>Urho3D::PointOctreeQuery</title>
<!-- Node1 -->
<g id="node1" class="node">
<title>Node1</title>
<g id="a_node1"><a xlink:title=" ">
<polygon fill="#999999" stroke="#666666" points="179.5,-19 48.5,-19 48.5,0 179.5,0 179.5,-19"/>
<text text-anchor="middle" x="114" y="-7" font-family="Roboto" font-size="10.00">Urho3D::PointOctreeQuery</text>
</a>
</g>
</g>
<!-- Node2 -->
<g id="node2" class="node">
<title>Node2</title>
<g id="a_node2"><a xlink:href="class_urho3_d_1_1_octree_query.html" target="_top" xlink:title="Base class for octree queries.">
<polygon fill="white" stroke="#666666" points="110.5,-119.5 1.5,-119.5 1.5,-100.5 110.5,-100.5 110.5,-119.5"/>
<text text-anchor="middle" x="56" y="-107.5" font-family="Roboto" font-size="10.00">Urho3D::OctreeQuery</text>
</a>
</g>
</g>
<!-- Node2&#45;&gt;Node1 -->
<g id="edge1" class="edge">
<title>Node2&#45;&gt;Node1</title>
<path fill="none" stroke="#63b8ff" d="M66.91,-90.48C79.41,-69.25 99.38,-35.33 108.78,-19.36"/>
<polygon fill="#63b8ff" stroke="#63b8ff" points="63.97,-88.56 61.92,-98.95 70.01,-92.11 63.97,-88.56"/>
</g>
<!-- Node3 -->
<g id="node3" class="node">
<title>Node3</title>
<g id="a_node3"><a xlink:href="class_urho3_d_1_1_p_o_d_vector.html" target="_top" xlink:title=" ">
<polygon fill="white" stroke="#666666" points="112,-231 0,-231 0,-201 112,-201 112,-231"/>
<text text-anchor="start" x="8" y="-219" font-family="Roboto" font-size="10.00">Urho3D::PODVector&lt;</text>
<text text-anchor="middle" x="56" y="-208" font-family="Roboto" font-size="10.00"> Urho3D::Drawable * &gt;</text>
</a>
</g>
</g>
<!-- Node3&#45;&gt;Node2 -->
<g id="edge2" class="edge">
<title>Node3&#45;&gt;Node2</title>
<path fill="none" stroke="#9a32cd" stroke-dasharray="5,2" d="M56,-189.05C56,-166.45 56,-134.99 56,-119.84"/>
<polygon fill="#9a32cd" stroke="#9a32cd" points="52.5,-189.03 56,-199.03 59.5,-189.03 52.5,-189.03"/>
<text text-anchor="middle" x="71.5" y="-175" font-family="Roboto" font-size="10.00"> result_</text>
</g>
<!-- Node4 -->
<g id="node4" class="node">
<title>Node4</title>
<g id="a_node4"><a xlink:href="class_urho3_d_1_1_vector_base.html" target="_top" xlink:title="Vector base class.">
<polygon fill="white" stroke="#666666" points="109,-287 3,-287 3,-268 109,-268 109,-287"/>
<text text-anchor="middle" x="56" y="-275" font-family="Roboto" font-size="10.00">Urho3D::VectorBase</text>
</a>
</g>
</g>
<!-- Node4&#45;&gt;Node3 -->
<g id="edge3" class="edge">
<title>Node4&#45;&gt;Node3</title>
<path fill="none" stroke="#63b8ff" d="M56,-256.46C56,-248.23 56,-238.89 56,-231.36"/>
<polygon fill="#63b8ff" stroke="#63b8ff" points="52.5,-256.21 56,-266.21 59.5,-256.21 52.5,-256.21"/>
</g>
<!-- Node5 -->
<g id="node5" class="node">
<title>Node5</title>
<g id="a_node5"><a xlink:href="class_urho3_d_1_1_vector3.html" target="_top" xlink:title="Three&#45;dimensional vector.">
<polygon fill="white" stroke="#666666" points="217.5,-119.5 128.5,-119.5 128.5,-100.5 217.5,-100.5 217.5,-119.5"/>
<text text-anchor="middle" x="173" y="-107.5" font-family="Roboto" font-size="10.00">Urho3D::Vector3</text>
</a>
</g>
</g>
<!-- Node5&#45;&gt;Node1 -->
<g id="edge4" class="edge">
<title>Node5&#45;&gt;Node1</title>
<path fill="none" stroke="#9a32cd" stroke-dasharray="5,2" d="M161.9,-90.48C149.19,-69.25 128.87,-35.33 119.31,-19.36"/>
<polygon fill="#9a32cd" stroke="#9a32cd" points="158.85,-92.18 166.99,-98.96 164.85,-88.58 158.85,-92.18"/>
<text text-anchor="middle" x="148.5" y="-40" font-family="Roboto" font-size="10.00"> point_</text>
</g>
<!-- Node5&#45;&gt;Node5 -->
<g id="edge5" class="edge">
<title>Node5&#45;&gt;Node5</title>
<path fill="none" stroke="#9a32cd" stroke-dasharray="5,2" d="M204.06,-122.16C220.54,-124.16 235.5,-120.11 235.5,-110 235.5,-97.67 213.27,-94.35 193.16,-100.03"/>
<polygon fill="#9a32cd" stroke="#9a32cd" points="205.14,-118.8 194.65,-120.27 203.76,-125.67 205.14,-118.8"/>
<text text-anchor="middle" x="259" y="-146" font-family="Roboto" font-size="10.00"> BACK</text>
<text text-anchor="middle" x="259" y="-135" font-family="Roboto" font-size="10.00">DOWN</text>
<text text-anchor="middle" x="259" y="-124" font-family="Roboto" font-size="10.00">FORWARD</text>
<text text-anchor="middle" x="259" y="-113" font-family="Roboto" font-size="10.00">LEFT</text>
<text text-anchor="middle" x="259" y="-102" font-family="Roboto" font-size="10.00">ONE</text>
<text text-anchor="middle" x="259" y="-91" font-family="Roboto" font-size="10.00">RIGHT</text>
<text text-anchor="middle" x="259" y="-80" font-family="Roboto" font-size="10.00">UP</text>
<text text-anchor="middle" x="259" y="-69" font-family="Roboto" font-size="10.00">ZERO</text>
</g>
</g>
</svg>
