<?xml version="1.0" encoding="UTF-8" standalone="no"?>
<!DOCTYPE svg PUBLIC "-//W3C//DTD SVG 1.1//EN"
 "http://www.w3.org/Graphics/SVG/1.1/DTD/svg11.dtd">
<!-- Generated by graphviz version 7.0.3 (0)
 -->
<!-- Title: Urho3D::TileMapObject2D::GetTileFlipX Pages: 1 -->
<svg width="891pt" height="38pt"
 viewBox="0.00 0.00 891.00 38.00" xmlns="http://www.w3.org/2000/svg" xmlns:xlink="http://www.w3.org/1999/xlink">
<g id="graph0" class="graph" transform="scale(1 1) rotate(0) translate(4 34)">
<title>Urho3D::TileMapObject2D::GetTileFlipX</title>
<!-- Node1 -->
<g id="node1" class="node">
<title>Node1</title>
<g id="a_node1"><a xlink:title=" ">
<polygon fill="#999999" stroke="#666666" points="883,-30 753,-30 753,0 883,0 883,-30"/>
<text text-anchor="start" x="761" y="-18" font-family="Roboto" font-size="10.00">Urho3D::TileMapObject2D</text>
<text text-anchor="middle" x="818" y="-7" font-family="Roboto" font-size="10.00">::GetTileFlipX</text>
</a>
</g>
</g>
<!-- Node2 -->
<g id="node2" class="node">
<title>Node2</title>
<g id="a_node2"><a xlink:href="class_urho3_d_1_1_tile_map_layer2_d.html#a221b4a18e40c7d127ba79a4a417cc6d0" target="_top" xlink:title="Set object group.">
<polygon fill="white" stroke="#666666" points="717,-30 591,-30 591,0 717,0 717,-30"/>
<text text-anchor="start" x="599" y="-18" font-family="Roboto" font-size="10.00">Urho3D::TileMapLayer2D</text>
<text text-anchor="middle" x="654" y="-7" font-family="Roboto" font-size="10.00">::SetObjectGroup</text>
</a>
</g>
</g>
<!-- Node1&#45;&gt;Node2 -->
<g id="edge1" class="edge">
<title>Node1&#45;&gt;Node2</title>
<path fill="none" stroke="#63b8ff" d="M741.01,-15C733.11,-15 725.15,-15 717.42,-15"/>
<polygon fill="#63b8ff" stroke="#63b8ff" points="740.99,-18.5 750.99,-15 740.99,-11.5 740.99,-18.5"/>
</g>
<!-- Node3 -->
<g id="node3" class="node">
<title>Node3</title>
<g id="a_node3"><a xlink:href="class_urho3_d_1_1_tile_map_layer2_d.html#a54b4cdcb017c10ea0d4a0e92a708f5b0" target="_top" xlink:title="Initialize with tile map and tmx layer.">
<polygon fill="white" stroke="#666666" points="555,-30 429,-30 429,0 555,0 555,-30"/>
<text text-anchor="start" x="437" y="-18" font-family="Roboto" font-size="10.00">Urho3D::TileMapLayer2D</text>
<text text-anchor="middle" x="492" y="-7" font-family="Roboto" font-size="10.00">::Initialize</text>
</a>
</g>
</g>
<!-- Node2&#45;&gt;Node3 -->
<g id="edge2" class="edge">
<title>Node2&#45;&gt;Node3</title>
<path fill="none" stroke="#63b8ff" d="M579.43,-15C571.4,-15 563.29,-15 555.41,-15"/>
<polygon fill="#63b8ff" stroke="#63b8ff" points="579.17,-18.5 589.17,-15 579.17,-11.5 579.17,-18.5"/>
</g>
<!-- Node4 -->
<g id="node4" class="node">
<title>Node4</title>
<g id="a_node4"><a xlink:href="class_urho3_d_1_1_tile_map2_d.html#a6214ad04240021eaed58d71e25081bed" target="_top" xlink:title=" ">
<polygon fill="white" stroke="#666666" points="393,-30 286,-30 286,0 393,0 393,-30"/>
<text text-anchor="start" x="294" y="-18" font-family="Roboto" font-size="10.00">Urho3D::TileMap2D::</text>
<text text-anchor="middle" x="339.5" y="-7" font-family="Roboto" font-size="10.00">SetTmxFile</text>
</a>
</g>
</g>
<!-- Node3&#45;&gt;Node4 -->
<g id="edge3" class="edge">
<title>Node3&#45;&gt;Node4</title>
<path fill="none" stroke="#63b8ff" d="M417.46,-15C409.31,-15 401.14,-15 393.33,-15"/>
<polygon fill="#63b8ff" stroke="#63b8ff" points="417.4,-18.5 427.4,-15 417.4,-11.5 417.4,-18.5"/>
</g>
<!-- Node5 -->
<g id="node5" class="node">
<title>Node5</title>
<g id="a_node5"><a xlink:href="class_urho3_d_1_1_tile_map2_d.html#a865be4dc3189f887cad580a108d42768" target="_top" xlink:title="Set tile map file attribute.">
<polygon fill="white" stroke="#666666" points="250,-30 143,-30 143,0 250,0 250,-30"/>
<text text-anchor="start" x="151" y="-18" font-family="Roboto" font-size="10.00">Urho3D::TileMap2D::</text>
<text text-anchor="middle" x="196.5" y="-7" font-family="Roboto" font-size="10.00">SetTmxFileAttr</text>
</a>
</g>
</g>
<!-- Node4&#45;&gt;Node5 -->
<g id="edge4" class="edge">
<title>Node4&#45;&gt;Node5</title>
<path fill="none" stroke="#63b8ff" d="M274.32,-15C266.26,-15 258.09,-15 250.23,-15"/>
<polygon fill="#63b8ff" stroke="#63b8ff" points="274.08,-18.5 284.08,-15 274.08,-11.5 274.08,-18.5"/>
</g>
<!-- Node6 -->
<g id="node6" class="node">
<title>Node6</title>
<g id="a_node6"><a xlink:href="class_urho3_d_1_1_tile_map2_d.html#a0d9c48fb509acdd122e14c12bedf1ff5" target="_top" xlink:title=" ">
<polygon fill="white" stroke="#666666" points="107,-30 0,-30 0,0 107,0 107,-30"/>
<text text-anchor="start" x="8" y="-18" font-family="Roboto" font-size="10.00">Urho3D::TileMap2D::</text>
<text text-anchor="middle" x="53.5" y="-7" font-family="Roboto" font-size="10.00">RegisterObject</text>
</a>
</g>
</g>
<!-- Node5&#45;&gt;Node6 -->
<g id="edge5" class="edge">
<title>Node5&#45;&gt;Node6</title>
<path fill="none" stroke="#63b8ff" d="M131.32,-15C123.26,-15 115.09,-15 107.23,-15"/>
<polygon fill="#63b8ff" stroke="#63b8ff" points="131.08,-18.5 141.08,-15 131.08,-11.5 131.08,-18.5"/>
</g>
</g>
</svg>
