<?xml version="1.0" encoding="UTF-8" standalone="no"?>
<!DOCTYPE svg PUBLIC "-//W3C//DTD SVG 1.1//EN"
 "http://www.w3.org/Graphics/SVG/1.1/DTD/svg11.dtd">
<!-- Generated by graphviz version 7.0.3 (0)
 -->
<!-- Title: Urho3D::Drawable2D Pages: 1 -->
<svg width="1994pt" height="679pt"
 viewBox="0.00 0.00 1994.00 679.00" xmlns="http://www.w3.org/2000/svg" xmlns:xlink="http://www.w3.org/1999/xlink">
<g id="graph0" class="graph" transform="scale(1 1) rotate(0) translate(4 675)">
<title>Urho3D::Drawable2D</title>
<!-- Node1 -->
<g id="node1" class="node">
<title>Node1</title>
<g id="a_node1"><a xlink:title="Base class for 2D visible components.">
<polygon fill="#999999" stroke="#666666" points="1986,-470.5 1879,-470.5 1879,-451.5 1986,-451.5 1986,-470.5"/>
<text text-anchor="middle" x="1932.5" y="-458.5" font-family="Roboto" font-size="10.00">Urho3D::Drawable2D</text>
</a>
</g>
</g>
<!-- Node2 -->
<g id="node2" class="node">
<title>Node2</title>
<g id="a_node2"><a xlink:href="class_urho3_d_1_1_drawable.html" target="_top" xlink:title="Base class for visible components.">
<polygon fill="white" stroke="#666666" points="1284.5,-405.5 1189.5,-405.5 1189.5,-386.5 1284.5,-386.5 1284.5,-405.5"/>
<text text-anchor="middle" x="1237" y="-393.5" font-family="Roboto" font-size="10.00">Urho3D::Drawable</text>
</a>
</g>
</g>
<!-- Node2&#45;&gt;Node1 -->
<g id="edge1" class="edge">
<title>Node2&#45;&gt;Node1</title>
<path fill="none" stroke="#63b8ff" d="M1274.31,-409.71C1288.69,-414.76 1305.47,-420.17 1321,-424 1364.7,-434.79 1376.21,-435.51 1421,-440 1587.59,-456.7 1786.04,-460.19 1878.81,-460.87"/>
<polygon fill="#63b8ff" stroke="#63b8ff" points="1275.86,-406.55 1265.26,-406.47 1273.49,-413.14 1275.86,-406.55"/>
</g>
<!-- Node103 -->
<g id="node14" class="node">
<title>Node103</title>
<g id="a_node14"><a xlink:href="class_urho3_d_1_1_zone.html" target="_top" xlink:title="Component that describes global rendering properties.">
<polygon fill="white" stroke="#666666" points="1513,-324.5 1436,-324.5 1436,-305.5 1513,-305.5 1513,-324.5"/>
<text text-anchor="middle" x="1474.5" y="-312.5" font-family="Roboto" font-size="10.00">Urho3D::Zone</text>
</a>
</g>
</g>
<!-- Node2&#45;&gt;Node103 -->
<g id="edge26" class="edge">
<title>Node2&#45;&gt;Node103</title>
<path fill="none" stroke="#63b8ff" d="M1295.76,-403.71C1329.49,-405.29 1371.47,-401.97 1403,-382 1416.46,-373.47 1410.16,-362.68 1421,-351 1430.77,-340.47 1444.16,-331.35 1454.97,-324.92"/>
<polygon fill="#63b8ff" stroke="#63b8ff" points="1296.38,-400.24 1286.18,-403.09 1295.93,-407.22 1296.38,-400.24"/>
</g>
<!-- Node152 -->
<g id="node20" class="node">
<title>Node152</title>
<g id="a_node20"><a xlink:href="class_urho3_d_1_1_light.html" target="_top" xlink:title="Light component.">
<polygon fill="#fff0f0" stroke="red" points="1512.5,-112.5 1436.5,-112.5 1436.5,-93.5 1512.5,-93.5 1512.5,-112.5"/>
<text text-anchor="middle" x="1474.5" y="-100.5" font-family="Roboto" font-size="10.00">Urho3D::Light</text>
</a>
</g>
</g>
<!-- Node2&#45;&gt;Node152 -->
<g id="edge38" class="edge">
<title>Node2&#45;&gt;Node152</title>
<path fill="none" stroke="#63b8ff" d="M1266.13,-380.64C1311.92,-355.55 1398.04,-307.92 1403,-302 1453.1,-242.12 1468.64,-144.12 1472.44,-112.89"/>
<polygon fill="#63b8ff" stroke="#63b8ff" points="1264.63,-377.47 1257.54,-385.34 1267.99,-383.61 1264.63,-377.47"/>
</g>
<!-- Node170 -->
<g id="node25" class="node">
<title>Node170</title>
<g id="a_node25"><a xlink:href="class_urho3_d_1_1_renderer2_d.html" target="_top" xlink:title="2D renderer component.">
<polygon fill="#fff0f0" stroke="red" points="1528,-430.5 1421,-430.5 1421,-411.5 1528,-411.5 1528,-430.5"/>
<text text-anchor="middle" x="1474.5" y="-418.5" font-family="Roboto" font-size="10.00">Urho3D::Renderer2D</text>
</a>
</g>
</g>
<!-- Node2&#45;&gt;Node170 -->
<g id="edge49" class="edge">
<title>Node2&#45;&gt;Node170</title>
<path fill="none" stroke="#63b8ff" d="M1296.15,-404.01C1304.48,-405.07 1312.96,-406.1 1321,-407 1354.03,-410.7 1391.16,-414.13 1420.51,-416.66"/>
<polygon fill="#63b8ff" stroke="#63b8ff" points="1296.79,-400.56 1286.43,-402.75 1295.9,-407.5 1296.79,-400.56"/>
</g>
<!-- Node3 -->
<g id="node3" class="node">
<title>Node3</title>
<g id="a_node3"><a xlink:href="class_urho3_d_1_1_component.html" target="_top" xlink:title=" ">
<polygon fill="white" stroke="#666666" points="500.5,-261.5 393.5,-261.5 393.5,-242.5 500.5,-242.5 500.5,-261.5"/>
<text text-anchor="middle" x="447" y="-249.5" font-family="Roboto" font-size="10.00">Urho3D::Component</text>
</a>
</g>
</g>
<!-- Node3&#45;&gt;Node2 -->
<g id="edge2" class="edge">
<title>Node3&#45;&gt;Node2</title>
<path fill="none" stroke="#63b8ff" d="M512.19,-246.11C600.89,-239.34 765.66,-231.68 904,-253 1018.62,-270.66 1050.35,-277.04 1153,-331 1182.16,-346.33 1211.35,-372.24 1226.11,-386.27"/>
<polygon fill="#63b8ff" stroke="#63b8ff" points="511.92,-242.62 502.22,-246.89 512.47,-249.6 511.92,-242.62"/>
</g>
<!-- Node102 -->
<g id="node13" class="node">
<title>Node102</title>
<g id="a_node13"><a xlink:href="class_urho3_d_1_1_octree.html" target="_top" xlink:title="Octree component. Should be added only to the root scene node.">
<polygon fill="#fff0f0" stroke="red" points="762,-281.5 679,-281.5 679,-262.5 762,-262.5 762,-281.5"/>
<text text-anchor="middle" x="720.5" y="-269.5" font-family="Roboto" font-size="10.00">Urho3D::Octree</text>
</a>
</g>
</g>
<!-- Node3&#45;&gt;Node102 -->
<g id="edge22" class="edge">
<title>Node3&#45;&gt;Node102</title>
<path fill="none" stroke="#63b8ff" d="M512.33,-256.74C563.84,-260.53 634.54,-265.74 678.6,-268.99"/>
<polygon fill="#63b8ff" stroke="#63b8ff" points="512.73,-253.26 502.5,-256.01 512.22,-260.24 512.73,-253.26"/>
</g>
<!-- Node4 -->
<g id="node4" class="node">
<title>Node4</title>
<g id="a_node4"><a xlink:href="class_urho3_d_1_1_animatable.html" target="_top" xlink:title="Base class for animatable object, an animatable object can be set animation on it&#39;s attributes,...">
<polygon fill="#fff0f0" stroke="red" points="104,-248.5 0,-248.5 0,-229.5 104,-229.5 104,-248.5"/>
<text text-anchor="middle" x="52" y="-236.5" font-family="Roboto" font-size="10.00">Urho3D::Animatable</text>
</a>
</g>
</g>
<!-- Node4&#45;&gt;Node3 -->
<g id="edge3" class="edge">
<title>Node4&#45;&gt;Node3</title>
<path fill="none" stroke="#63b8ff" d="M115.77,-241.08C192.52,-243.62 321.05,-247.87 393.04,-250.25"/>
<polygon fill="#63b8ff" stroke="#63b8ff" points="116,-237.58 105.89,-240.75 115.77,-244.58 116,-237.58"/>
</g>
<!-- Node43 -->
<g id="node5" class="node">
<title>Node43</title>
<g id="a_node5"><a xlink:href="class_urho3_d_1_1_node.html" target="_top" xlink:title="Scene node that may contain components and child nodes.">
<polygon fill="#fff0f0" stroke="red" points="312,-205.5 232,-205.5 232,-186.5 312,-186.5 312,-205.5"/>
<text text-anchor="middle" x="272" y="-193.5" font-family="Roboto" font-size="10.00">Urho3D::Node</text>
</a>
</g>
</g>
<!-- Node4&#45;&gt;Node43 -->
<g id="edge5" class="edge">
<title>Node4&#45;&gt;Node43</title>
<path fill="none" stroke="#63b8ff" d="M114.39,-226.89C151.97,-219.48 198.93,-210.21 231.58,-203.77"/>
<polygon fill="#63b8ff" stroke="#63b8ff" points="114.18,-223.36 105.05,-228.73 115.53,-230.23 114.18,-223.36"/>
</g>
<!-- Node43&#45;&gt;Node3 -->
<g id="edge4" class="edge">
<title>Node43&#45;&gt;Node3</title>
<path fill="none" stroke="#9a32cd" stroke-dasharray="5,2" d="M314.42,-209.41C345.41,-219.44 387.11,-232.94 415.19,-242.03"/>
<polygon fill="#9a32cd" stroke="#9a32cd" points="315.56,-206.1 304.97,-206.35 313.41,-212.76 315.56,-206.1"/>
<text text-anchor="middle" x="358" y="-231" font-family="Roboto" font-size="10.00"> node_</text>
</g>
<!-- Node43&#45;&gt;Node43 -->
<g id="edge8" class="edge">
<title>Node43&#45;&gt;Node43</title>
<path fill="none" stroke="#9a32cd" stroke-dasharray="5,2" d="M256.91,-217.26C258.94,-220.94 263.97,-223.5 272,-223.5 287.12,-223.5 291.61,-214.44 285.46,-205.87"/>
<polygon fill="#9a32cd" stroke="#9a32cd" points="260.37,-217.76 258.32,-207.37 253.44,-216.77 260.37,-217.76"/>
<text text-anchor="middle" x="272" y="-226.5" font-family="Roboto" font-size="10.00"> parent_</text>
</g>
<!-- Node44 -->
<g id="node6" class="node">
<title>Node44</title>
<g id="a_node6"><a xlink:href="class_urho3_d_1_1_matrix3x4.html" target="_top" xlink:title="3x4 matrix for scene node transform calculations.">
<polygon fill="white" stroke="#666666" points="101.5,-167.5 2.5,-167.5 2.5,-148.5 101.5,-148.5 101.5,-167.5"/>
<text text-anchor="middle" x="52" y="-155.5" font-family="Roboto" font-size="10.00">Urho3D::Matrix3x4</text>
</a>
</g>
</g>
<!-- Node44&#45;&gt;Node43 -->
<g id="edge6" class="edge">
<title>Node44&#45;&gt;Node43</title>
<path fill="none" stroke="#9a32cd" stroke-dasharray="5,2" d="M112.82,-168.43C150.69,-175.03 198.58,-183.38 231.69,-189.15"/>
<polygon fill="#9a32cd" stroke="#9a32cd" points="113.87,-165.06 103.41,-166.79 112.66,-171.95 113.87,-165.06"/>
<text text-anchor="middle" x="161.5" y="-187" font-family="Roboto" font-size="10.00"> worldTransform_</text>
</g>
<!-- Node44&#45;&gt;Node44 -->
<g id="edge7" class="edge">
<title>Node44&#45;&gt;Node44</title>
<path fill="none" stroke="#9a32cd" stroke-dasharray="5,2" d="M32.56,-178.93C35,-182.79 41.47,-185.5 52,-185.5 71.25,-185.5 76.96,-176.44 69.14,-167.87"/>
<polygon fill="#9a32cd" stroke="#9a32cd" points="35.95,-179.85 34.55,-169.35 29.09,-178.43 35.95,-179.85"/>
<text text-anchor="middle" x="52" y="-199.5" font-family="Roboto" font-size="10.00"> IDENTITY</text>
<text text-anchor="middle" x="52" y="-188.5" font-family="Roboto" font-size="10.00">ZERO</text>
</g>
<!-- Node44&#45;&gt;Node103 -->
<g id="edge27" class="edge">
<title>Node44&#45;&gt;Node103</title>
<path fill="none" stroke="#9a32cd" stroke-dasharray="5,2" d="M113,-161.57C168.15,-165 252.14,-170.59 325,-177 630.13,-203.85 706.48,-211.73 1010,-253 1073.59,-261.65 1095.95,-243.61 1153,-273 1163.34,-278.33 1160.5,-287 1171,-292 1258.51,-333.64 1376.5,-327.31 1435.94,-320.45"/>
<polygon fill="#9a32cd" stroke="#9a32cd" points="113.39,-158.09 103.2,-160.96 112.96,-165.07 113.39,-158.09"/>
<text text-anchor="middle" x="720.5" y="-226" font-family="Roboto" font-size="10.00"> inverseWorld_</text>
</g>
<!-- Node44&#45;&gt;Node152 -->
<g id="edge41" class="edge">
<title>Node44&#45;&gt;Node152</title>
<path fill="none" stroke="#9a32cd" stroke-dasharray="5,2" d="M66.09,-138.92C96.67,-96.89 177.3,0 271,0 271,0 271,0 1238,0 1313.67,0 1335.92,-6.97 1403,-42 1428.54,-55.34 1452.65,-79.62 1464.97,-93.18"/>
<polygon fill="#9a32cd" stroke="#9a32cd" points="63.38,-136.7 60.45,-146.88 69.09,-140.75 63.38,-136.7"/>
<text text-anchor="middle" x="720.5" y="-3" font-family="Roboto" font-size="10.00"> volumeTransform_</text>
</g>
<!-- Node75 -->
<g id="node7" class="node">
<title>Node75</title>
<g id="a_node7"><a xlink:href="class_urho3_d_1_1_vector3.html" target="_top" xlink:title="Three&#45;dimensional vector.">
<polygon fill="white" stroke="#666666" points="96.5,-321.5 7.5,-321.5 7.5,-302.5 96.5,-302.5 96.5,-321.5"/>
<text text-anchor="middle" x="52" y="-309.5" font-family="Roboto" font-size="10.00">Urho3D::Vector3</text>
</a>
</g>
</g>
<!-- Node75&#45;&gt;Node43 -->
<g id="edge9" class="edge">
<title>Node75&#45;&gt;Node43</title>
<path fill="none" stroke="#9a32cd" stroke-dasharray="5,2" d="M81.66,-296.75C127.08,-272.58 214.37,-226.13 252.46,-205.87"/>
<polygon fill="#9a32cd" stroke="#9a32cd" points="80.11,-293.61 72.92,-301.4 83.39,-299.79 80.11,-293.61"/>
<text text-anchor="middle" x="161.5" y="-289" font-family="Roboto" font-size="10.00"> position_</text>
<text text-anchor="middle" x="161.5" y="-278" font-family="Roboto" font-size="10.00">scale_</text>
</g>
<!-- Node75&#45;&gt;Node75 -->
<g id="edge10" class="edge">
<title>Node75&#45;&gt;Node75</title>
<path fill="none" stroke="#9a32cd" stroke-dasharray="5,2" d="M32.56,-332.93C35,-336.79 41.47,-339.5 52,-339.5 71.25,-339.5 76.96,-330.44 69.14,-321.87"/>
<polygon fill="#9a32cd" stroke="#9a32cd" points="35.95,-333.85 34.55,-323.35 29.09,-332.43 35.95,-333.85"/>
<text text-anchor="middle" x="52" y="-419.5" font-family="Roboto" font-size="10.00"> BACK</text>
<text text-anchor="middle" x="52" y="-408.5" font-family="Roboto" font-size="10.00">DOWN</text>
<text text-anchor="middle" x="52" y="-397.5" font-family="Roboto" font-size="10.00">FORWARD</text>
<text text-anchor="middle" x="52" y="-386.5" font-family="Roboto" font-size="10.00">LEFT</text>
<text text-anchor="middle" x="52" y="-375.5" font-family="Roboto" font-size="10.00">ONE</text>
<text text-anchor="middle" x="52" y="-364.5" font-family="Roboto" font-size="10.00">RIGHT</text>
<text text-anchor="middle" x="52" y="-353.5" font-family="Roboto" font-size="10.00">UP</text>
<text text-anchor="middle" x="52" y="-342.5" font-family="Roboto" font-size="10.00">ZERO</text>
</g>
<!-- Node98 -->
<g id="node8" class="node">
<title>Node98</title>
<g id="a_node8"><a xlink:href="class_urho3_d_1_1_bounding_box.html" target="_top" xlink:title=" ">
<polygon fill="white" stroke="#666666" points="777,-584.5 664,-584.5 664,-565.5 777,-565.5 777,-584.5"/>
<text text-anchor="middle" x="720.5" y="-572.5" font-family="Roboto" font-size="10.00">Urho3D::BoundingBox</text>
</a>
</g>
</g>
<!-- Node75&#45;&gt;Node98 -->
<g id="edge12" class="edge">
<title>Node75&#45;&gt;Node98</title>
<path fill="none" stroke="#9a32cd" stroke-dasharray="5,2" d="M62.82,-331.94C93.84,-392.33 196.4,-573.06 343,-639 471.49,-696.79 646.09,-614.54 701.71,-584.92"/>
<polygon fill="#9a32cd" stroke="#9a32cd" points="66.03,-330.54 58.4,-323.18 59.78,-333.69 66.03,-330.54"/>
<text text-anchor="middle" x="358" y="-663" font-family="Roboto" font-size="10.00"> max_</text>
<text text-anchor="middle" x="358" y="-652" font-family="Roboto" font-size="10.00">min_</text>
</g>
<!-- Node100 -->
<g id="node11" class="node">
<title>Node100</title>
<g id="a_node11"><a xlink:href="class_urho3_d_1_1_octant.html" target="_top" xlink:title=" ">
<polygon fill="white" stroke="#666666" points="1007.5,-327.5 924.5,-327.5 924.5,-308.5 1007.5,-308.5 1007.5,-327.5"/>
<text text-anchor="middle" x="966" y="-315.5" font-family="Roboto" font-size="10.00">Urho3D::Octant</text>
</a>
</g>
</g>
<!-- Node75&#45;&gt;Node100 -->
<g id="edge20" class="edge">
<title>Node75&#45;&gt;Node100</title>
<path fill="none" stroke="#9a32cd" stroke-dasharray="5,2" d="M108.12,-309.95C212.91,-306.35 448.06,-299.66 646,-304 746.04,-306.19 863.59,-312.25 924.23,-315.64"/>
<polygon fill="#9a32cd" stroke="#9a32cd" points="108.28,-306.45 98.41,-310.29 108.52,-313.44 108.28,-306.45"/>
<text text-anchor="middle" x="447" y="-318" font-family="Roboto" font-size="10.00"> center_</text>
<text text-anchor="middle" x="447" y="-307" font-family="Roboto" font-size="10.00">halfSize_</text>
</g>
<!-- Node98&#45;&gt;Node2 -->
<g id="edge11" class="edge">
<title>Node98&#45;&gt;Node2</title>
<path fill="none" stroke="#9a32cd" stroke-dasharray="5,2" d="M788.55,-566.11C823.12,-561.26 865.91,-554.86 904,-548 1015.35,-527.93 1056.04,-553.31 1153,-495 1190.87,-472.23 1219.6,-425.88 1230.84,-405.72"/>
<polygon fill="#9a32cd" stroke="#9a32cd" points="788.08,-562.64 778.65,-567.48 789.04,-569.57 788.08,-562.64"/>
<text text-anchor="middle" x="966" y="-558" font-family="Roboto" font-size="10.00"> boundingBox_</text>
<text text-anchor="middle" x="966" y="-547" font-family="Roboto" font-size="10.00">worldBoundingBox_</text>
</g>
<!-- Node98&#45;&gt;Node100 -->
<g id="edge16" class="edge">
<title>Node98&#45;&gt;Node100</title>
<path fill="none" stroke="#9a32cd" stroke-dasharray="5,2" d="M741.98,-558.24C756.09,-547.51 775.7,-534.11 795,-526 840.64,-506.81 868.89,-537.91 904,-503 930.77,-476.38 910.62,-455.99 922,-420 933.01,-385.19 951.36,-345.86 960.09,-327.9"/>
<polygon fill="#9a32cd" stroke="#9a32cd" points="740.07,-555.29 734.36,-564.22 744.39,-560.8 740.07,-555.29"/>
<text text-anchor="middle" x="849.5" y="-540" font-family="Roboto" font-size="10.00"> cullingBox_</text>
<text text-anchor="middle" x="849.5" y="-529" font-family="Roboto" font-size="10.00">worldBoundingBox_</text>
</g>
<!-- Node98&#45;&gt;Node103 -->
<g id="edge28" class="edge">
<title>Node98&#45;&gt;Node103</title>
<path fill="none" stroke="#9a32cd" stroke-dasharray="5,2" d="M788.79,-578.78C847.52,-580.9 934.87,-581.22 1010,-570 1197.19,-542.04 1278.92,-548.92 1403,-406 1419.86,-386.58 1405.58,-371.58 1421,-351 1429.28,-339.94 1441.99,-331.1 1452.83,-324.95"/>
<polygon fill="#9a32cd" stroke="#9a32cd" points="789.08,-575.29 778.95,-578.39 788.8,-582.28 789.08,-575.29"/>
<text text-anchor="middle" x="1090.5" y="-569" font-family="Roboto" font-size="10.00"> lastWorldBoundingBox_</text>
</g>
<!-- Node99 -->
<g id="node9" class="node">
<title>Node99</title>
<g id="a_node9"><a xlink:href="class_urho3_d_1_1_vector.html" target="_top" xlink:title=" ">
<polygon fill="white" stroke="#666666" points="646,-427 521,-427 521,-397 646,-397 646,-427"/>
<text text-anchor="start" x="529" y="-415" font-family="Roboto" font-size="10.00">Urho3D::Vector&lt; Urho3D</text>
<text text-anchor="middle" x="583.5" y="-404" font-family="Roboto" font-size="10.00">::SourceBatch &gt;</text>
</a>
</g>
</g>
<!-- Node99&#45;&gt;Node2 -->
<g id="edge13" class="edge">
<title>Node99&#45;&gt;Node2</title>
<path fill="none" stroke="#9a32cd" stroke-dasharray="5,2" d="M657.8,-410.2C792.86,-406.88 1077.43,-399.89 1189.36,-397.15"/>
<polygon fill="#9a32cd" stroke="#9a32cd" points="657.8,-406.7 647.89,-410.44 657.97,-413.7 657.8,-406.7"/>
<text text-anchor="middle" x="849.5" y="-409" font-family="Roboto" font-size="10.00"> batches_</text>
</g>
<!-- Node20 -->
<g id="node10" class="node">
<title>Node20</title>
<g id="a_node10"><a xlink:href="class_urho3_d_1_1_vector_base.html" target="_top" xlink:title="Vector base class.">
<polygon fill="white" stroke="#666666" points="325,-451.5 219,-451.5 219,-432.5 325,-432.5 325,-451.5"/>
<text text-anchor="middle" x="272" y="-439.5" font-family="Roboto" font-size="10.00">Urho3D::VectorBase</text>
</a>
</g>
</g>
<!-- Node20&#45;&gt;Node99 -->
<g id="edge14" class="edge">
<title>Node20&#45;&gt;Node99</title>
<path fill="none" stroke="#63b8ff" d="M329.61,-430.03C334.13,-429.27 338.63,-428.58 343,-428 403,-420.03 472.02,-415.95 520.5,-413.92"/>
<polygon fill="#63b8ff" stroke="#63b8ff" points="329.14,-426.55 319.91,-431.75 330.37,-433.45 329.14,-426.55"/>
</g>
<!-- Node101 -->
<g id="node12" class="node">
<title>Node101</title>
<g id="a_node12"><a xlink:href="class_urho3_d_1_1_p_o_d_vector.html" target="_top" xlink:title=" ">
<polygon fill="white" stroke="#666666" points="503,-376 391,-376 391,-346 503,-346 503,-376"/>
<text text-anchor="start" x="399" y="-364" font-family="Roboto" font-size="10.00">Urho3D::PODVector&lt;</text>
<text text-anchor="middle" x="447" y="-353" font-family="Roboto" font-size="10.00"> Urho3D::Drawable * &gt;</text>
</a>
</g>
</g>
<!-- Node20&#45;&gt;Node101 -->
<g id="edge18" class="edge">
<title>Node20&#45;&gt;Node101</title>
<path fill="none" stroke="#63b8ff" d="M291.92,-424.94C305.34,-413.63 324.23,-399.22 343,-390 357.84,-382.71 374.81,-376.98 390.64,-372.61"/>
<polygon fill="#63b8ff" stroke="#63b8ff" points="289.98,-421.99 284.71,-431.19 294.56,-427.28 289.98,-421.99"/>
</g>
<!-- Node151 -->
<g id="node19" class="node">
<title>Node151</title>
<g id="a_node19"><a xlink:href="class_urho3_d_1_1_p_o_d_vector.html" target="_top" xlink:title=" ">
<polygon fill="white" stroke="#666666" points="904,-457 795,-457 795,-427 904,-427 904,-457"/>
<text text-anchor="start" x="803" y="-445" font-family="Roboto" font-size="10.00">Urho3D::PODVector&lt;</text>
<text text-anchor="middle" x="849.5" y="-434" font-family="Roboto" font-size="10.00"> Urho3D::Camera * &gt;</text>
</a>
</g>
</g>
<!-- Node20&#45;&gt;Node151 -->
<g id="edge36" class="edge">
<title>Node20&#45;&gt;Node151</title>
<path fill="none" stroke="#63b8ff" d="M336.64,-442C450.68,-442 687.86,-442 794.5,-442"/>
<polygon fill="#63b8ff" stroke="#63b8ff" points="336.86,-438.5 326.86,-442 336.86,-445.5 336.86,-438.5"/>
</g>
<!-- Node167 -->
<g id="node22" class="node">
<title>Node167</title>
<g id="a_node22"><a xlink:href="class_urho3_d_1_1_p_o_d_vector.html" target="_top" xlink:title=" ">
<polygon fill="white" stroke="#666666" points="638,-495 529,-495 529,-465 638,-465 638,-495"/>
<text text-anchor="start" x="537" y="-483" font-family="Roboto" font-size="10.00">Urho3D::PODVector&lt;</text>
<text text-anchor="middle" x="583.5" y="-472" font-family="Roboto" font-size="10.00"> Urho3D::Light * &gt;</text>
</a>
</g>
</g>
<!-- Node20&#45;&gt;Node167 -->
<g id="edge44" class="edge">
<title>Node20&#45;&gt;Node167</title>
<path fill="none" stroke="#63b8ff" d="M330.63,-453.99C334.81,-454.71 338.96,-455.4 343,-456 406.44,-465.5 479.91,-472.24 528.57,-476.11"/>
<polygon fill="#63b8ff" stroke="#63b8ff" points="331.53,-450.6 321.07,-452.25 330.28,-457.48 331.53,-450.6"/>
</g>
<!-- Node168 -->
<g id="node23" class="node">
<title>Node168</title>
<g id="a_node23"><a xlink:href="class_urho3_d_1_1_vector.html" target="_top" xlink:title=" ">
<polygon fill="white" stroke="#666666" points="1153,-640 1028,-640 1028,-610 1153,-610 1153,-640"/>
<text text-anchor="start" x="1036" y="-628" font-family="Roboto" font-size="10.00">Urho3D::Vector&lt; Urho3D</text>
<text text-anchor="middle" x="1090.5" y="-617" font-family="Roboto" font-size="10.00">::SourceBatch2D &gt;</text>
</a>
</g>
</g>
<!-- Node20&#45;&gt;Node168 -->
<g id="edge46" class="edge">
<title>Node20&#45;&gt;Node168</title>
<path fill="none" stroke="#63b8ff" d="M280.82,-462.42C300.57,-510.14 357.33,-625 446,-625 446,-625 446,-625 850.5,-625 910.66,-625 979.35,-625 1027.6,-625"/>
<polygon fill="#63b8ff" stroke="#63b8ff" points="284.11,-461.23 277.16,-453.24 277.61,-463.83 284.11,-461.23"/>
</g>
<!-- Node100&#45;&gt;Node2 -->
<g id="edge15" class="edge">
<title>Node100&#45;&gt;Node2</title>
<path fill="none" stroke="#9a32cd" stroke-dasharray="5,2" d="M1012.99,-330.9C1050.67,-341.52 1105.34,-357.03 1153,-371 1169.61,-375.87 1188.04,-381.41 1203.31,-386.03"/>
<polygon fill="#9a32cd" stroke="#9a32cd" points="1014.39,-327.66 1003.81,-328.31 1012.49,-334.39 1014.39,-327.66"/>
<text text-anchor="middle" x="1090.5" y="-374" font-family="Roboto" font-size="10.00"> octant_</text>
</g>
<!-- Node100&#45;&gt;Node100 -->
<g id="edge19" class="edge">
<title>Node100&#45;&gt;Node100</title>
<path fill="none" stroke="#9a32cd" stroke-dasharray="5,2" d="M945.32,-338.93C947.91,-342.79 954.8,-345.5 966,-345.5 986.48,-345.5 992.56,-336.44 984.24,-327.87"/>
<polygon fill="#9a32cd" stroke="#9a32cd" points="948.7,-339.87 947.44,-329.35 941.86,-338.36 948.7,-339.87"/>
<text text-anchor="middle" x="966" y="-359.5" font-family="Roboto" font-size="10.00"> children_</text>
<text text-anchor="middle" x="966" y="-348.5" font-family="Roboto" font-size="10.00">parent_</text>
</g>
<!-- Node100&#45;&gt;Node102 -->
<g id="edge23" class="edge">
<title>Node100&#45;&gt;Node102</title>
<path fill="none" stroke="#63b8ff" d="M912.81,-308.14C867.77,-299.63 803.61,-287.51 762.26,-279.7"/>
<polygon fill="#63b8ff" stroke="#63b8ff" points="912.15,-311.58 922.62,-309.99 913.45,-304.7 912.15,-311.58"/>
</g>
<!-- Node101&#45;&gt;Node100 -->
<g id="edge17" class="edge">
<title>Node101&#45;&gt;Node100</title>
<path fill="none" stroke="#9a32cd" stroke-dasharray="5,2" d="M514.75,-367.66C516.86,-367.79 518.94,-367.9 521,-368 691.78,-376.17 735.86,-362.97 904,-332 910.52,-330.8 917.39,-329.38 924.09,-327.9"/>
<polygon fill="#9a32cd" stroke="#9a32cd" points="515.09,-364.18 504.87,-366.97 514.61,-371.16 515.09,-364.18"/>
<text text-anchor="middle" x="720.5" y="-371" font-family="Roboto" font-size="10.00"> drawables_</text>
</g>
<!-- Node101&#45;&gt;Node102 -->
<g id="edge24" class="edge">
<title>Node101&#45;&gt;Node102</title>
<path fill="none" stroke="#9a32cd" stroke-dasharray="5,2" d="M485.07,-340.29C496.38,-334.5 509,-328.55 521,-324 574.13,-303.84 638.11,-288.62 678.79,-280"/>
<polygon fill="#9a32cd" stroke="#9a32cd" points="483.67,-337.07 476.44,-344.82 486.92,-343.27 483.67,-337.07"/>
<text text-anchor="middle" x="583.5" y="-360" font-family="Roboto" font-size="10.00"> drawableUpdates_</text>
<text text-anchor="start" x="523" y="-349" font-family="Roboto" font-size="10.00">rayQueryDrawables</text>
<text text-anchor="middle" x="583.5" y="-338" font-family="Roboto" font-size="10.00">_</text>
<text text-anchor="middle" x="583.5" y="-327" font-family="Roboto" font-size="10.00">threadedDrawableUpdates_</text>
</g>
<!-- Node102&#45;&gt;Node100 -->
<g id="edge21" class="edge">
<title>Node102&#45;&gt;Node100</title>
<path fill="none" stroke="#9a32cd" stroke-dasharray="5,2" d="M773.49,-261.19C810.89,-255.7 861.95,-252.97 904,-268 926.44,-276.02 946.55,-296.24 957.14,-308.36"/>
<polygon fill="#9a32cd" stroke="#9a32cd" points="773.16,-257.7 763.84,-262.73 774.26,-264.61 773.16,-257.7"/>
<text text-anchor="middle" x="849.5" y="-271" font-family="Roboto" font-size="10.00"> root_</text>
</g>
<!-- Node103&#45;&gt;Node2 -->
<g id="edge25" class="edge">
<title>Node103&#45;&gt;Node2</title>
<path fill="none" stroke="#9a32cd" stroke-dasharray="5,2" d="M1444.14,-330.06C1431.65,-336.12 1416.82,-342.87 1403,-348 1367.52,-361.18 1357.35,-360.43 1321,-371 1304.38,-375.83 1285.94,-381.37 1270.68,-386"/>
<polygon fill="#9a32cd" stroke="#9a32cd" points="1445.65,-333.22 1453.06,-325.65 1442.54,-326.95 1445.65,-333.22"/>
<text text-anchor="middle" x="1362" y="-374" font-family="Roboto" font-size="10.00"> zone_</text>
</g>
<!-- Node150 -->
<g id="node17" class="node">
<title>Node150</title>
<g id="a_node17"><a xlink:href="class_urho3_d_1_1_weak_ptr.html" target="_top" xlink:title=" ">
<polygon fill="white" stroke="#666666" points="1799,-334 1665,-334 1665,-304 1799,-304 1799,-334"/>
<text text-anchor="start" x="1673" y="-322" font-family="Roboto" font-size="10.00">Urho3D::WeakPtr&lt; Urho3D</text>
<text text-anchor="middle" x="1732" y="-311" font-family="Roboto" font-size="10.00">::Zone &gt;</text>
</a>
</g>
</g>
<!-- Node103&#45;&gt;Node150 -->
<g id="edge33" class="edge">
<title>Node103&#45;&gt;Node150</title>
<path fill="none" stroke="#9a32cd" stroke-dasharray="5,2" d="M1524.99,-315.77C1564.71,-316.4 1620.86,-317.28 1664.51,-317.96"/>
<polygon fill="#9a32cd" stroke="#9a32cd" points="1525.04,-312.28 1514.99,-315.62 1524.93,-319.27 1525.04,-312.28"/>
<text text-anchor="middle" x="1596.5" y="-320" font-family="Roboto" font-size="10.00"> ptr_</text>
</g>
<!-- Node104 -->
<g id="node15" class="node">
<title>Node104</title>
<g id="a_node15"><a xlink:href="class_urho3_d_1_1_color.html" target="_top" xlink:title="RGBA color.">
<polygon fill="#fff0f0" stroke="red" points="1277,-133.5 1197,-133.5 1197,-114.5 1277,-114.5 1277,-133.5"/>
<text text-anchor="middle" x="1237" y="-121.5" font-family="Roboto" font-size="10.00">Urho3D::Color</text>
</a>
</g>
</g>
<!-- Node104&#45;&gt;Node103 -->
<g id="edge29" class="edge">
<title>Node104&#45;&gt;Node103</title>
<path fill="none" stroke="#9a32cd" stroke-dasharray="5,2" d="M1250.39,-143.18C1264.91,-164.18 1290.85,-197.48 1321,-217 1353.09,-237.78 1370.44,-222.97 1403,-243 1430.42,-259.87 1454.84,-289.68 1466.41,-305.12"/>
<polygon fill="#9a32cd" stroke="#9a32cd" points="1253.36,-141.32 1244.89,-134.96 1247.55,-145.22 1253.36,-141.32"/>
<text text-anchor="middle" x="1362" y="-290" font-family="Roboto" font-size="10.00"> ambientColor_</text>
<text text-anchor="middle" x="1362" y="-279" font-family="Roboto" font-size="10.00">ambientEndColor_</text>
<text text-anchor="start" x="1321" y="-268" font-family="Roboto" font-size="10.00">ambientStartColor</text>
<text text-anchor="middle" x="1362" y="-257" font-family="Roboto" font-size="10.00">_</text>
<text text-anchor="middle" x="1362" y="-246" font-family="Roboto" font-size="10.00">fogColor_</text>
</g>
<!-- Node104&#45;&gt;Node104 -->
<g id="edge30" class="edge">
<title>Node104&#45;&gt;Node104</title>
<path fill="none" stroke="#9a32cd" stroke-dasharray="5,2" d="M1214.81,-144.93C1217.59,-148.79 1224.98,-151.5 1237,-151.5 1258.97,-151.5 1265.5,-142.44 1256.57,-133.87"/>
<polygon fill="#9a32cd" stroke="#9a32cd" points="1218.19,-145.88 1217.08,-135.34 1211.37,-144.27 1218.19,-145.88"/>
<text text-anchor="middle" x="1237" y="-275.5" font-family="Roboto" font-size="10.00"> BLACK</text>
<text text-anchor="middle" x="1237" y="-264.5" font-family="Roboto" font-size="10.00">BLUE</text>
<text text-anchor="middle" x="1237" y="-253.5" font-family="Roboto" font-size="10.00">CYAN</text>
<text text-anchor="middle" x="1237" y="-242.5" font-family="Roboto" font-size="10.00">GRAY</text>
<text text-anchor="middle" x="1237" y="-231.5" font-family="Roboto" font-size="10.00">GREEN</text>
<text text-anchor="middle" x="1237" y="-220.5" font-family="Roboto" font-size="10.00">MAGENTA</text>
<text text-anchor="middle" x="1237" y="-209.5" font-family="Roboto" font-size="10.00">RED</text>
<text text-anchor="start" x="1202" y="-198.5" font-family="Roboto" font-size="10.00">TRANSPARENT</text>
<text text-anchor="middle" x="1237" y="-187.5" font-family="Roboto" font-size="10.00">_BLACK</text>
<text text-anchor="middle" x="1237" y="-176.5" font-family="Roboto" font-size="10.00">WHITE</text>
<text text-anchor="middle" x="1237" y="-165.5" font-family="Roboto" font-size="10.00">YELLOW</text>
<text text-anchor="middle" x="1237" y="-154.5" font-family="Roboto" font-size="10.00">...</text>
</g>
<!-- Node104&#45;&gt;Node152 -->
<g id="edge39" class="edge">
<title>Node104&#45;&gt;Node152</title>
<path fill="none" stroke="#9a32cd" stroke-dasharray="5,2" d="M1288.82,-119.47C1333.18,-115.51 1396.51,-109.87 1436.29,-106.32"/>
<polygon fill="#9a32cd" stroke="#9a32cd" points="1288.57,-115.98 1278.92,-120.35 1289.2,-122.95 1288.57,-115.98"/>
<text text-anchor="middle" x="1362" y="-119" font-family="Roboto" font-size="10.00"> color_</text>
</g>
<!-- Node106 -->
<g id="node16" class="node">
<title>Node106</title>
<g id="a_node16"><a xlink:href="class_urho3_d_1_1_shared_ptr.html" target="_top" xlink:title=" ">
<polygon fill="white" stroke="orangered" points="1289,-96 1185,-96 1185,-66 1289,-66 1289,-96"/>
<text text-anchor="start" x="1193" y="-84" font-family="Roboto" font-size="10.00">Urho3D::SharedPtr&lt;</text>
<text text-anchor="middle" x="1237" y="-73" font-family="Roboto" font-size="10.00"> Urho3D::Texture &gt;</text>
</a>
</g>
</g>
<!-- Node106&#45;&gt;Node103 -->
<g id="edge31" class="edge">
<title>Node106&#45;&gt;Node103</title>
<path fill="none" stroke="#9a32cd" stroke-dasharray="5,2" d="M1298.73,-100.85C1300.24,-102.14 1301.67,-103.53 1303,-105 1324.53,-128.84 1299.05,-151.54 1321,-175 1347.22,-203.02 1372.82,-178.31 1403,-202 1439.38,-230.56 1461.94,-283.46 1470.08,-305.24"/>
<polygon fill="#9a32cd" stroke="#9a32cd" points="1300.78,-98.01 1290.58,-95.16 1296.78,-103.75 1300.78,-98.01"/>
<text text-anchor="middle" x="1362" y="-205" font-family="Roboto" font-size="10.00"> zoneTexture_</text>
</g>
<!-- Node106&#45;&gt;Node152 -->
<g id="edge42" class="edge">
<title>Node106&#45;&gt;Node152</title>
<path fill="none" stroke="#9a32cd" stroke-dasharray="5,2" d="M1300.67,-78.54C1331.61,-78.24 1369.42,-79.24 1403,-84 1416.3,-85.88 1430.68,-89.47 1442.95,-93.02"/>
<polygon fill="#9a32cd" stroke="#9a32cd" points="1300.63,-75.04 1290.68,-78.7 1300.74,-82.04 1300.63,-75.04"/>
<text text-anchor="middle" x="1362" y="-98" font-family="Roboto" font-size="10.00"> rampTexture_</text>
<text text-anchor="middle" x="1362" y="-87" font-family="Roboto" font-size="10.00">shapeTexture_</text>
</g>
<!-- Node150&#45;&gt;Node103 -->
<g id="edge32" class="edge">
<title>Node150&#45;&gt;Node103</title>
<path fill="none" stroke="#9a32cd" stroke-dasharray="5,2" d="M1705.61,-296.73C1689.9,-284.47 1668.64,-270.46 1647,-264 1603.98,-251.17 1588.71,-250.17 1546,-264 1520.99,-272.1 1497.41,-292.75 1484.87,-305.15"/>
<polygon fill="#9a32cd" stroke="#9a32cd" points="1703.03,-299.15 1713.01,-302.73 1707.44,-293.71 1703.03,-299.15"/>
<text text-anchor="start" x="1546" y="-289" font-family="Roboto" font-size="10.00"> lastAmbientEndZone</text>
<text text-anchor="middle" x="1596.5" y="-278" font-family="Roboto" font-size="10.00">_</text>
<text text-anchor="middle" x="1596.5" y="-267" font-family="Roboto" font-size="10.00">lastAmbientStartZone_</text>
</g>
<!-- Node8 -->
<g id="node18" class="node">
<title>Node8</title>
<g id="a_node18"><a xlink:href="struct_urho3_d_1_1_ref_count.html" target="_top" xlink:title="Reference count structure.">
<polygon fill="white" stroke="#666666" points="1522.5,-378.5 1426.5,-378.5 1426.5,-359.5 1522.5,-359.5 1522.5,-378.5"/>
<text text-anchor="middle" x="1474.5" y="-366.5" font-family="Roboto" font-size="10.00">Urho3D::RefCount</text>
</a>
</g>
</g>
<!-- Node8&#45;&gt;Node150 -->
<g id="edge34" class="edge">
<title>Node8&#45;&gt;Node150</title>
<path fill="none" stroke="#9a32cd" stroke-dasharray="5,2" d="M1534.1,-357.53C1572.99,-349.92 1624.12,-339.92 1664.53,-332.01"/>
<polygon fill="#9a32cd" stroke="#9a32cd" points="1533.59,-354.07 1524.44,-359.42 1534.93,-360.94 1533.59,-354.07"/>
<text text-anchor="middle" x="1596.5" y="-357" font-family="Roboto" font-size="10.00"> refCount_</text>
</g>
<!-- Node169 -->
<g id="node24" class="node">
<title>Node169</title>
<g id="a_node24"><a xlink:href="class_urho3_d_1_1_weak_ptr.html" target="_top" xlink:title=" ">
<polygon fill="white" stroke="#666666" points="1799,-433 1665,-433 1665,-403 1799,-403 1799,-433"/>
<text text-anchor="start" x="1673" y="-421" font-family="Roboto" font-size="10.00">Urho3D::WeakPtr&lt; Urho3D</text>
<text text-anchor="middle" x="1732" y="-410" font-family="Roboto" font-size="10.00">::Renderer2D &gt;</text>
</a>
</g>
</g>
<!-- Node8&#45;&gt;Node169 -->
<g id="edge50" class="edge">
<title>Node8&#45;&gt;Node169</title>
<path fill="none" stroke="#9a32cd" stroke-dasharray="5,2" d="M1534.1,-380.24C1572.99,-387.7 1624.12,-397.5 1664.53,-405.25"/>
<polygon fill="#9a32cd" stroke="#9a32cd" points="1534.93,-376.83 1524.45,-378.39 1533.61,-383.71 1534.93,-376.83"/>
<text text-anchor="middle" x="1596.5" y="-403" font-family="Roboto" font-size="10.00"> refCount_</text>
</g>
<!-- Node151&#45;&gt;Node2 -->
<g id="edge35" class="edge">
<title>Node151&#45;&gt;Node2</title>
<path fill="none" stroke="#9a32cd" stroke-dasharray="5,2" d="M915.89,-436.26C977.25,-430.59 1071.53,-421.17 1153,-410 1164.73,-408.39 1177.34,-406.4 1189.11,-404.43"/>
<polygon fill="#9a32cd" stroke="#9a32cd" points="915.59,-432.77 905.95,-437.17 916.23,-439.74 915.59,-432.77"/>
<text text-anchor="middle" x="966" y="-438" font-family="Roboto" font-size="10.00"> viewCameras_</text>
</g>
<!-- Node152&#45;&gt;Node2 -->
<g id="edge37" class="edge">
<title>Node152&#45;&gt;Node2</title>
<path fill="none" stroke="#9a32cd" stroke-dasharray="5,2" d="M1438.72,-117.12C1427.37,-121.64 1414.68,-126.62 1403,-131 1366.81,-144.58 1345.4,-130.02 1321,-160 1283.62,-205.92 1323.14,-236.32 1303,-292 1289.31,-329.84 1260.41,-368.49 1246.21,-386.13"/>
<polygon fill="#9a32cd" stroke="#9a32cd" points="1439.73,-120.48 1447.71,-113.51 1437.13,-113.98 1439.73,-120.48"/>
<text text-anchor="middle" x="1362" y="-163" font-family="Roboto" font-size="10.00"> firstLight_</text>
</g>
<!-- Node153 -->
<g id="node21" class="node">
<title>Node153</title>
<g id="a_node21"><a xlink:href="struct_urho3_d_1_1_bias_parameters.html" target="_top" xlink:title="Depth bias parameters. Used both by lights (for shadow mapping) and materials.">
<polygon fill="white" stroke="#666666" points="1299.5,-47.5 1174.5,-47.5 1174.5,-28.5 1299.5,-28.5 1299.5,-47.5"/>
<text text-anchor="middle" x="1237" y="-35.5" font-family="Roboto" font-size="10.00">Urho3D::BiasParameters</text>
</a>
</g>
</g>
<!-- Node153&#45;&gt;Node152 -->
<g id="edge40" class="edge">
<title>Node153&#45;&gt;Node152</title>
<path fill="none" stroke="#9a32cd" stroke-dasharray="5,2" d="M1311.3,-43.99C1340.4,-47.8 1373.82,-53.98 1403,-64 1423.64,-71.09 1445.3,-84.02 1459.08,-93.04"/>
<polygon fill="#9a32cd" stroke="#9a32cd" points="1311.82,-40.53 1301.47,-42.79 1310.97,-47.48 1311.82,-40.53"/>
<text text-anchor="middle" x="1362" y="-67" font-family="Roboto" font-size="10.00"> shadowBias_</text>
</g>
<!-- Node167&#45;&gt;Node2 -->
<g id="edge43" class="edge">
<title>Node167&#45;&gt;Node2</title>
<path fill="none" stroke="#9a32cd" stroke-dasharray="5,2" d="M649.38,-477.33C777.71,-471.57 1059.63,-456.4 1153,-431 1175.64,-424.84 1200.24,-413.89 1216.74,-405.87"/>
<polygon fill="#9a32cd" stroke="#9a32cd" points="649.53,-473.82 639.7,-477.76 649.84,-480.81 649.53,-473.82"/>
<text text-anchor="middle" x="849.5" y="-483" font-family="Roboto" font-size="10.00"> lights_</text>
<text text-anchor="middle" x="849.5" y="-472" font-family="Roboto" font-size="10.00">vertexLights_</text>
</g>
<!-- Node168&#45;&gt;Node1 -->
<g id="edge45" class="edge">
<title>Node168&#45;&gt;Node1</title>
<path fill="none" stroke="#9a32cd" stroke-dasharray="5,2" d="M1164.55,-625C1218.76,-625 1294.5,-625 1361,-625 1361,-625 1361,-625 1733,-625 1830.45,-625 1905.87,-506.07 1926.12,-470.77"/>
<polygon fill="#9a32cd" stroke="#9a32cd" points="1164.83,-621.5 1154.83,-625 1164.83,-628.5 1164.83,-621.5"/>
<text text-anchor="middle" x="1474.5" y="-628" font-family="Roboto" font-size="10.00"> sourceBatches_</text>
</g>
<!-- Node169&#45;&gt;Node1 -->
<g id="edge47" class="edge">
<title>Node169&#45;&gt;Node1</title>
<path fill="none" stroke="#9a32cd" stroke-dasharray="5,2" d="M1810.2,-426.3C1827.06,-428.82 1844.73,-432.01 1861,-436 1876.77,-439.86 1893.94,-445.91 1907.4,-451.09"/>
<polygon fill="#9a32cd" stroke="#9a32cd" points="1811.15,-422.9 1800.76,-424.95 1810.16,-429.83 1811.15,-422.9"/>
<text text-anchor="middle" x="1839" y="-439" font-family="Roboto" font-size="10.00"> renderer_</text>
</g>
<!-- Node170&#45;&gt;Node169 -->
<g id="edge48" class="edge">
<title>Node170&#45;&gt;Node169</title>
<path fill="none" stroke="#9a32cd" stroke-dasharray="5,2" d="M1539.95,-420.24C1578.15,-419.79 1626.46,-419.23 1664.94,-418.78"/>
<polygon fill="#9a32cd" stroke="#9a32cd" points="1539.91,-416.74 1529.95,-420.36 1539.99,-423.74 1539.91,-416.74"/>
<text text-anchor="middle" x="1596.5" y="-423" font-family="Roboto" font-size="10.00"> ptr_</text>
</g>
</g>
</svg>
