<?xml version="1.0" encoding="UTF-8" standalone="no"?>
<!DOCTYPE svg PUBLIC "-//W3C//DTD SVG 1.1//EN"
 "http://www.w3.org/Graphics/SVG/1.1/DTD/svg11.dtd">
<!-- Generated by graphviz version 7.0.3 (0)
 -->
<!-- Title: Urho3D::Input::GetKeyDown Pages: 1 -->
<svg width="2095pt" height="322pt"
 viewBox="0.00 0.00 2095.00 322.35" xmlns="http://www.w3.org/2000/svg" xmlns:xlink="http://www.w3.org/1999/xlink">
<g id="graph0" class="graph" transform="scale(1 1) rotate(0) translate(4 318.35)">
<title>Urho3D::Input::GetKeyDown</title>
<!-- Node1 -->
<g id="node1" class="node">
<title>Node1</title>
<g id="a_node1"><a xlink:title=" ">
<polygon fill="#999999" stroke="#666666" points="2087,-57.85 1950,-57.85 1950,-38.85 2087,-38.85 2087,-57.85"/>
<text text-anchor="middle" x="2018.5" y="-45.85" font-family="Roboto" font-size="10.00">Urho3D::Input::GetKeyDown</text>
</a>
</g>
</g>
<!-- Node2 -->
<g id="node2" class="node">
<title>Node2</title>
<g id="a_node2"><a xlink:href="class_urho3_d_1_1_input.html#a0a1e765a94c71013f1e413c716ba56a7" target="_top" xlink:title=" ">
<polygon fill="white" stroke="#666666" points="1914,-76.85 1756,-76.85 1756,-57.85 1914,-57.85 1914,-76.85"/>
<text text-anchor="middle" x="1835" y="-64.85" font-family="Roboto" font-size="10.00">Urho3D::Input::GetQualifierDown</text>
</a>
</g>
</g>
<!-- Node1&#45;&gt;Node2 -->
<g id="edge1" class="edge">
<title>Node1&#45;&gt;Node2</title>
<path fill="none" stroke="#63b8ff" d="M1938.22,-56.65C1930.33,-57.48 1922.33,-58.31 1914.46,-59.14"/>
<polygon fill="#63b8ff" stroke="#63b8ff" points="1938.57,-60.13 1948.15,-55.61 1937.84,-53.17 1938.57,-60.13"/>
</g>
<!-- Node12 -->
<g id="node12" class="node">
<title>Node12</title>
<g id="a_node12"><a xlink:href="class_urho3_d_1_1_input.html#a6be14570e8c94b23e92c9e9995cf51d1" target="_top" xlink:title="Handle a key change.">
<polygon fill="white" stroke="#666666" points="1525,-19.85 1414,-19.85 1414,-0.85 1525,-0.85 1525,-19.85"/>
<text text-anchor="middle" x="1469.5" y="-7.85" font-family="Roboto" font-size="10.00">Urho3D::Input::SetKey</text>
</a>
</g>
</g>
<!-- Node1&#45;&gt;Node12 -->
<g id="edge28" class="edge">
<title>Node1&#45;&gt;Node12</title>
<path fill="none" stroke="#63b8ff" d="M1938.34,-42.85C1825.78,-35.03 1622.39,-20.9 1525.15,-14.15"/>
<polygon fill="#63b8ff" stroke="#63b8ff" points="1937.88,-46.33 1948.09,-43.53 1938.36,-39.34 1937.88,-46.33"/>
</g>
<!-- Node3 -->
<g id="node3" class="node">
<title>Node3</title>
<g id="a_node3"><a xlink:href="class_urho3_d_1_1_input.html#ae9b888480c34a74c8c1dfc926e054052" target="_top" xlink:title=" ">
<polygon fill="white" stroke="#666666" points="1720,-76.85 1583,-76.85 1583,-57.85 1720,-57.85 1720,-76.85"/>
<text text-anchor="middle" x="1651.5" y="-64.85" font-family="Roboto" font-size="10.00">Urho3D::Input::GetQualifiers</text>
</a>
</g>
</g>
<!-- Node2&#45;&gt;Node3 -->
<g id="edge2" class="edge">
<title>Node2&#45;&gt;Node3</title>
<path fill="none" stroke="#63b8ff" d="M1744.31,-67.35C1736.22,-67.35 1728.12,-67.35 1720.27,-67.35"/>
<polygon fill="#63b8ff" stroke="#63b8ff" points="1744.2,-70.85 1754.2,-67.35 1744.2,-63.85 1744.2,-70.85"/>
</g>
<!-- Node4 -->
<g id="node4" class="node">
<title>Node4</title>
<g id="a_node4"><a xlink:href="class_urho3_d_1_1_input.html#a6dc8699608ba629964e3c702e629be92" target="_top" xlink:title="Handle SDL event.">
<polygon fill="white" stroke="#666666" points="1003,-114.85 849,-114.85 849,-95.85 1003,-95.85 1003,-114.85"/>
<text text-anchor="middle" x="926" y="-102.85" font-family="Roboto" font-size="10.00">Urho3D::Input::HandleSDLEvent</text>
</a>
</g>
</g>
<!-- Node3&#45;&gt;Node4 -->
<g id="edge3" class="edge">
<title>Node3&#45;&gt;Node4</title>
<path fill="none" stroke="#63b8ff" d="M1571.14,-64.31C1481.61,-61.58 1331.69,-59.14 1203,-67.35 1129.66,-72.03 1111.78,-78.17 1039,-88.35 1023.42,-90.53 1006.64,-93.01 990.93,-95.38"/>
<polygon fill="#63b8ff" stroke="#63b8ff" points="1570.94,-67.8 1581.05,-64.62 1571.16,-60.8 1570.94,-67.8"/>
</g>
<!-- Node7 -->
<g id="node7" class="node">
<title>Node7</title>
<g id="a_node7"><a xlink:href="class_urho3_d_1_1_input.html#ab4cd4fe34682b2d90183f181718c6125" target="_top" xlink:title="Poll for window messages. Called by HandleBeginFrame().">
<polygon fill="white" stroke="#666666" points="798,-204.85 685,-204.85 685,-185.85 798,-185.85 798,-204.85"/>
<text text-anchor="middle" x="741.5" y="-192.85" font-family="Roboto" font-size="10.00">Urho3D::Input::Update</text>
</a>
</g>
</g>
<!-- Node3&#45;&gt;Node7 -->
<g id="edge27" class="edge">
<title>Node3&#45;&gt;Node7</title>
<path fill="none" stroke="#63b8ff" d="M1617.48,-81.81C1553.67,-108.4 1408.44,-162.35 1280.5,-162.35 1280.5,-162.35 1280.5,-162.35 1102,-162.35 994.2,-162.35 868.97,-177.25 798.4,-187.02"/>
<polygon fill="#63b8ff" stroke="#63b8ff" points="1618.83,-85.04 1626.67,-77.93 1616.1,-78.6 1618.83,-85.04"/>
</g>
<!-- Node3&#45;&gt;Node12 -->
<g id="edge12" class="edge">
<title>Node3&#45;&gt;Node12</title>
<path fill="none" stroke="#63b8ff" d="M1608.79,-54C1589.93,-47.98 1567.35,-40.79 1547,-34.35 1532.27,-29.69 1515.93,-24.56 1502.15,-20.24"/>
<polygon fill="#63b8ff" stroke="#63b8ff" points="1607.68,-57.32 1618.27,-57.03 1609.81,-50.66 1607.68,-57.32"/>
</g>
<!-- Node13 -->
<g id="node13" class="node">
<title>Node13</title>
<g id="a_node13"><a xlink:href="class_urho3_d_1_1_input.html#a5aaad4035fa80f3c86ea99524192a2d4" target="_top" xlink:title="Handle a mouse button change.">
<polygon fill="white" stroke="#666666" points="1547,-209.85 1392,-209.85 1392,-190.85 1547,-190.85 1547,-209.85"/>
<text text-anchor="middle" x="1469.5" y="-197.85" font-family="Roboto" font-size="10.00">Urho3D::Input::SetMouseButton</text>
</a>
</g>
</g>
<!-- Node3&#45;&gt;Node13 -->
<g id="edge14" class="edge">
<title>Node3&#45;&gt;Node13</title>
<path fill="none" stroke="#63b8ff" d="M1637.34,-86.29C1619.54,-110.54 1585.56,-152.3 1547,-176.35 1537.43,-182.32 1526.26,-186.91 1515.46,-190.4"/>
<polygon fill="#63b8ff" stroke="#63b8ff" points="1640.09,-88.47 1643.06,-78.3 1634.4,-84.39 1640.09,-88.47"/>
</g>
<!-- Node17 -->
<g id="node17" class="node">
<title>Node17</title>
<g id="a_node17"><a xlink:href="class_urho3_d_1_1_input.html#afa0aedea65a9dc6459b993a344b742ec" target="_top" xlink:title="Handle mouse wheel change.">
<polygon fill="white" stroke="#666666" points="1356,-95.85 1203,-95.85 1203,-76.85 1356,-76.85 1356,-95.85"/>
<text text-anchor="middle" x="1279.5" y="-83.85" font-family="Roboto" font-size="10.00">Urho3D::Input::SetMouseWheel</text>
</a>
</g>
</g>
<!-- Node3&#45;&gt;Node17 -->
<g id="edge25" class="edge">
<title>Node3&#45;&gt;Node17</title>
<path fill="none" stroke="#63b8ff" d="M1571.46,-71.41C1507.82,-74.68 1418.95,-79.24 1356.22,-82.46"/>
<polygon fill="#63b8ff" stroke="#63b8ff" points="1571.32,-74.92 1581.12,-70.91 1570.96,-67.93 1571.32,-74.92"/>
</g>
<!-- Node5 -->
<g id="node5" class="node">
<title>Node5</title>
<g id="a_node5"><a xlink:href="class_urho3_d_1_1_input.html#a81b43d331225b80eb2f2e647b142ab5c" target="_top" xlink:title="Handle touch events from the controls of screen joystick(s).">
<polygon fill="white" stroke="#666666" points="813,-120.35 670,-120.35 670,-90.35 813,-90.35 813,-120.35"/>
<text text-anchor="start" x="678" y="-108.35" font-family="Roboto" font-size="10.00">Urho3D::Input::HandleScreen</text>
<text text-anchor="middle" x="741.5" y="-97.35" font-family="Roboto" font-size="10.00">JoystickTouch</text>
</a>
</g>
</g>
<!-- Node4&#45;&gt;Node5 -->
<g id="edge4" class="edge">
<title>Node4&#45;&gt;Node5</title>
<path fill="none" stroke="#63b8ff" d="M837.32,-105.35C829.26,-105.35 821.17,-105.35 813.29,-105.35"/>
<polygon fill="#63b8ff" stroke="#63b8ff" points="837.15,-108.85 847.15,-105.35 837.15,-101.85 837.15,-108.85"/>
</g>
<!-- Node4&#45;&gt;Node7 -->
<g id="edge6" class="edge">
<title>Node4&#45;&gt;Node7</title>
<path fill="none" stroke="#63b8ff" d="M894.45,-120.41C856.96,-138.91 794.43,-169.74 762.54,-185.47"/>
<polygon fill="#63b8ff" stroke="#63b8ff" points="895.99,-123.56 903.41,-116 892.9,-117.28 895.99,-123.56"/>
</g>
<!-- Node6 -->
<g id="node6" class="node">
<title>Node6</title>
<g id="a_node6"><a xlink:href="class_urho3_d_1_1_input.html#ae6e2a0dd7db2be45379d5551187afb7b" target="_top" xlink:title="Add screen joystick.">
<polygon fill="white" stroke="#666666" points="630.5,-120.35 500.5,-120.35 500.5,-90.35 630.5,-90.35 630.5,-120.35"/>
<text text-anchor="start" x="508.5" y="-108.35" font-family="Roboto" font-size="10.00">Urho3D::Input::AddScreen</text>
<text text-anchor="middle" x="565.5" y="-97.35" font-family="Roboto" font-size="10.00">Joystick</text>
</a>
</g>
</g>
<!-- Node5&#45;&gt;Node6 -->
<g id="edge5" class="edge">
<title>Node5&#45;&gt;Node6</title>
<path fill="none" stroke="#63b8ff" d="M658.45,-105.35C649.16,-105.35 639.79,-105.35 630.77,-105.35"/>
<polygon fill="#63b8ff" stroke="#63b8ff" points="658.21,-108.85 668.21,-105.35 658.21,-101.85 658.21,-108.85"/>
</g>
<!-- Node8 -->
<g id="node8" class="node">
<title>Node8</title>
<g id="a_node8"><a xlink:href="class_urho3_d_1_1_input.html#a147c4675aa679dbf4d9702b3d3d6b921" target="_top" xlink:title="Handle frame start event.">
<polygon fill="white" stroke="#666666" points="634,-210.35 497,-210.35 497,-180.35 634,-180.35 634,-210.35"/>
<text text-anchor="start" x="505" y="-198.35" font-family="Roboto" font-size="10.00">Urho3D::Input::HandleBegin</text>
<text text-anchor="middle" x="565.5" y="-187.35" font-family="Roboto" font-size="10.00">Frame</text>
</a>
</g>
</g>
<!-- Node7&#45;&gt;Node8 -->
<g id="edge7" class="edge">
<title>Node7&#45;&gt;Node8</title>
<path fill="none" stroke="#63b8ff" d="M673.79,-195.35C660.85,-195.35 647.28,-195.35 634.3,-195.35"/>
<polygon fill="#63b8ff" stroke="#63b8ff" points="673.45,-198.85 683.45,-195.35 673.45,-191.85 673.45,-198.85"/>
</g>
<!-- Node9 -->
<g id="node9" class="node">
<title>Node9</title>
<g id="a_node9"><a xlink:href="class_urho3_d_1_1_input.html#a2b19913a84b72c17a1079b821ec18564" target="_top" xlink:title="Initialize when screen mode initially set.">
<polygon fill="white" stroke="#666666" points="461,-266.85 344,-266.85 344,-247.85 461,-247.85 461,-266.85"/>
<text text-anchor="middle" x="402.5" y="-254.85" font-family="Roboto" font-size="10.00">Urho3D::Input::Initialize</text>
</a>
</g>
</g>
<!-- Node8&#45;&gt;Node9 -->
<g id="edge8" class="edge">
<title>Node8&#45;&gt;Node9</title>
<path fill="none" stroke="#63b8ff" d="M513.81,-214.87C485.66,-225.71 451.85,-238.73 429.14,-247.47"/>
<polygon fill="#63b8ff" stroke="#63b8ff" points="514.8,-218.24 522.88,-211.38 512.29,-211.71 514.8,-218.24"/>
</g>
<!-- Node10 -->
<g id="node10" class="node">
<title>Node10</title>
<g id="a_node10"><a xlink:href="class_urho3_d_1_1_input.html#ac0a172bd8f0568c96db9ceb0b46ed0e5" target="_top" xlink:title="Handle screen mode event.">
<polygon fill="white" stroke="#666666" points="308,-285.85 139,-285.85 139,-266.85 308,-266.85 308,-285.85"/>
<text text-anchor="middle" x="223.5" y="-273.85" font-family="Roboto" font-size="10.00">Urho3D::Input::HandleScreenMode</text>
</a>
</g>
</g>
<!-- Node9&#45;&gt;Node10 -->
<g id="edge9" class="edge">
<title>Node9&#45;&gt;Node10</title>
<path fill="none" stroke="#63b8ff" d="M332.21,-264.79C324.36,-265.63 316.29,-266.5 308.27,-267.36"/>
<polygon fill="#63b8ff" stroke="#63b8ff" points="332.47,-268.28 342.04,-263.73 331.72,-261.32 332.47,-268.28"/>
</g>
<!-- Node11 -->
<g id="node11" class="node">
<title>Node11</title>
<g id="a_node11"><a xlink:href="class_urho3_d_1_1_input.html#a48199becd3824e420e4bce2ed6a03c12" target="_top" xlink:title="Construct.">
<polygon fill="white" stroke="#666666" points="103,-266.85 0,-266.85 0,-247.85 103,-247.85 103,-266.85"/>
<text text-anchor="middle" x="51.5" y="-254.85" font-family="Roboto" font-size="10.00">Urho3D::Input::Input</text>
</a>
</g>
</g>
<!-- Node9&#45;&gt;Node11 -->
<g id="edge11" class="edge">
<title>Node9&#45;&gt;Node11</title>
<path fill="none" stroke="#63b8ff" d="M332.51,-257.35C265.04,-257.35 163.87,-257.35 103.4,-257.35"/>
<polygon fill="#63b8ff" stroke="#63b8ff" points="332.36,-260.85 342.36,-257.35 332.36,-253.85 332.36,-260.85"/>
</g>
<!-- Node10&#45;&gt;Node11 -->
<g id="edge10" class="edge">
<title>Node10&#45;&gt;Node11</title>
<path fill="none" stroke="#63b8ff" d="M127.81,-265.77C119.33,-264.82 110.98,-263.89 103.11,-263.01"/>
<polygon fill="#63b8ff" stroke="#63b8ff" points="127.16,-269.22 137.49,-266.85 127.94,-262.26 127.16,-269.22"/>
</g>
<!-- Node12&#45;&gt;Node4 -->
<g id="edge13" class="edge">
<title>Node12&#45;&gt;Node4</title>
<path fill="none" stroke="#63b8ff" d="M1402.26,-3.92C1316.27,2.17 1162.57,5.29 1039,-34.35 998.01,-47.5 957.14,-79.32 938.09,-95.52"/>
<polygon fill="#63b8ff" stroke="#63b8ff" points="1401.94,-7.4 1412.18,-4.66 1402.46,-0.42 1401.94,-7.4"/>
</g>
<!-- Node13&#45;&gt;Node4 -->
<g id="edge15" class="edge">
<title>Node13&#45;&gt;Node4</title>
<path fill="none" stroke="#63b8ff" d="M1400.51,-188.42C1292.7,-169.51 1084.46,-132.97 983.98,-115.35"/>
<polygon fill="#63b8ff" stroke="#63b8ff" points="1399.63,-191.82 1410.08,-190.1 1400.84,-184.93 1399.63,-191.82"/>
</g>
<!-- Node14 -->
<g id="node14" class="node">
<title>Node14</title>
<g id="a_node14"><a xlink:href="class_urho3_d_1_1_input.html#a0131572cfae7e4fc8d150c6efae41f72" target="_top" xlink:title="Clear input state.">
<polygon fill="white" stroke="#666666" points="1343.5,-247.85 1215.5,-247.85 1215.5,-228.85 1343.5,-228.85 1343.5,-247.85"/>
<text text-anchor="middle" x="1279.5" y="-235.85" font-family="Roboto" font-size="10.00">Urho3D::Input::ResetState</text>
</a>
</g>
</g>
<!-- Node13&#45;&gt;Node14 -->
<g id="edge16" class="edge">
<title>Node13&#45;&gt;Node14</title>
<path fill="none" stroke="#63b8ff" d="M1408.16,-212.55C1382.88,-217.66 1353.87,-223.52 1329.89,-228.37"/>
<polygon fill="#63b8ff" stroke="#63b8ff" points="1408.51,-216.05 1417.62,-210.63 1407.13,-209.18 1408.51,-216.05"/>
</g>
<!-- Node14&#45;&gt;Node9 -->
<g id="edge21" class="edge">
<title>Node14&#45;&gt;Node9</title>
<path fill="none" stroke="#63b8ff" d="M1240.88,-252.01C1177.18,-273.89 1043.62,-314.35 927,-314.35 927,-314.35 927,-314.35 740.5,-314.35 628.94,-314.35 499.49,-283.61 438.59,-267.28"/>
<polygon fill="#63b8ff" stroke="#63b8ff" points="1241.86,-255.38 1250.15,-248.78 1239.56,-248.77 1241.86,-255.38"/>
</g>
<!-- Node15 -->
<g id="node15" class="node">
<title>Node15</title>
<g id="a_node15"><a xlink:href="class_urho3_d_1_1_input.html#a31ac853b836e1c4bb1106a984aefd1f6" target="_top" xlink:title="Prepare input state for application gaining input focus.">
<polygon fill="white" stroke="#666666" points="1167,-219.85 1039,-219.85 1039,-200.85 1167,-200.85 1167,-219.85"/>
<text text-anchor="middle" x="1103" y="-207.85" font-family="Roboto" font-size="10.00">Urho3D::Input::GainFocus</text>
</a>
</g>
</g>
<!-- Node14&#45;&gt;Node15 -->
<g id="edge17" class="edge">
<title>Node14&#45;&gt;Node15</title>
<path fill="none" stroke="#63b8ff" d="M1205.2,-226.59C1192.19,-224.5 1178.76,-222.35 1166.11,-220.32"/>
<polygon fill="#63b8ff" stroke="#63b8ff" points="1204.56,-230.03 1214.99,-228.16 1205.67,-223.12 1204.56,-230.03"/>
</g>
<!-- Node16 -->
<g id="node16" class="node">
<title>Node16</title>
<g id="a_node16"><a xlink:href="class_urho3_d_1_1_input.html#ac35fd7d54a42a16634d28a227d4e7581" target="_top" xlink:title="Prepare input state for application losing input focus.">
<polygon fill="white" stroke="#666666" points="991,-285.85 861,-285.85 861,-266.85 991,-266.85 991,-285.85"/>
<text text-anchor="middle" x="926" y="-273.85" font-family="Roboto" font-size="10.00">Urho3D::Input::LoseFocus</text>
</a>
</g>
</g>
<!-- Node14&#45;&gt;Node16 -->
<g id="edge22" class="edge">
<title>Node14&#45;&gt;Node16</title>
<path fill="none" stroke="#63b8ff" d="M1204.18,-246.39C1141.02,-253.21 1051.31,-262.91 991.22,-269.41"/>
<polygon fill="#63b8ff" stroke="#63b8ff" points="1204.18,-249.91 1213.75,-245.35 1203.43,-242.95 1204.18,-249.91"/>
</g>
<!-- Node15&#45;&gt;Node4 -->
<g id="edge18" class="edge">
<title>Node15&#45;&gt;Node4</title>
<path fill="none" stroke="#63b8ff" d="M1076.06,-194.79C1039.56,-172.89 974.1,-133.61 943.55,-115.28"/>
<polygon fill="#63b8ff" stroke="#63b8ff" points="1073.86,-197.55 1084.24,-199.69 1077.46,-191.55 1073.86,-197.55"/>
</g>
<!-- Node15&#45;&gt;Node7 -->
<g id="edge20" class="edge">
<title>Node15&#45;&gt;Node7</title>
<path fill="none" stroke="#63b8ff" d="M1027.46,-207.24C959.24,-204.39 859.8,-200.24 798.23,-197.68"/>
<polygon fill="#63b8ff" stroke="#63b8ff" points="1026.91,-210.72 1037.04,-207.64 1027.2,-203.73 1026.91,-210.72"/>
</g>
<!-- Node15&#45;&gt;Node9 -->
<g id="edge19" class="edge">
<title>Node15&#45;&gt;Node9</title>
<path fill="none" stroke="#63b8ff" d="M1027.34,-215.37C887.11,-224.81 587.16,-244.99 461.14,-253.47"/>
<polygon fill="#63b8ff" stroke="#63b8ff" points="1027.53,-218.87 1037.27,-214.71 1027.06,-211.89 1027.53,-218.87"/>
</g>
<!-- Node16&#45;&gt;Node7 -->
<g id="edge24" class="edge">
<title>Node16&#45;&gt;Node7</title>
<path fill="none" stroke="#63b8ff" d="M892.41,-261.89C855.6,-245.55 796.68,-219.4 764.78,-205.24"/>
<polygon fill="#63b8ff" stroke="#63b8ff" points="890.68,-264.95 901.24,-265.8 893.52,-258.55 890.68,-264.95"/>
</g>
<!-- Node16&#45;&gt;Node9 -->
<g id="edge23" class="edge">
<title>Node16&#45;&gt;Node9</title>
<path fill="none" stroke="#63b8ff" d="M849.06,-273.58C743.85,-269.75 556.07,-262.91 461.42,-259.46"/>
<polygon fill="#63b8ff" stroke="#63b8ff" points="848.9,-277.08 859.02,-273.95 849.15,-270.08 848.9,-277.08"/>
</g>
<!-- Node17&#45;&gt;Node4 -->
<g id="edge26" class="edge">
<title>Node17&#45;&gt;Node4</title>
<path fill="none" stroke="#63b8ff" d="M1191.36,-91.06C1133.65,-94.18 1058.67,-98.23 1003.31,-101.23"/>
<polygon fill="#63b8ff" stroke="#63b8ff" points="1191.35,-94.57 1201.15,-90.53 1190.98,-87.58 1191.35,-94.57"/>
</g>
</g>
</svg>
