<?xml version="1.0" encoding="UTF-8" standalone="no"?>
<!DOCTYPE svg PUBLIC "-//W3C//DTD SVG 1.1//EN"
 "http://www.w3.org/Graphics/SVG/1.1/DTD/svg11.dtd">
<!-- Generated by graphviz version 7.0.3 (0)
 -->
<!-- Title: Urho3D::Console::GetNumBufferedRows Pages: 1 -->
<svg width="565pt" height="27pt"
 viewBox="0.00 0.00 565.00 27.00" xmlns="http://www.w3.org/2000/svg" xmlns:xlink="http://www.w3.org/1999/xlink">
<g id="graph0" class="graph" transform="scale(1 1) rotate(0) translate(4 23)">
<title>Urho3D::Console::GetNumBufferedRows</title>
<!-- Node1 -->
<g id="node1" class="node">
<title>Node1</title>
<g id="a_node1"><a xlink:title=" ">
<polygon fill="#999999" stroke="#666666" points="557,-19 362,-19 362,0 557,0 557,-19"/>
<text text-anchor="middle" x="459.5" y="-7" font-family="Roboto" font-size="10.00">Urho3D::Console::GetNumBufferedRows</text>
</a>
</g>
</g>
<!-- Node2 -->
<g id="node2" class="node">
<title>Node2</title>
<g id="a_node2"><a xlink:href="class_urho3_d_1_1_console.html#a6b523b3fbdff6cc3da360dc128be09fd" target="_top" xlink:title=" ">
<polygon fill="white" stroke="#666666" points="326,-19 169,-19 169,0 326,0 326,-19"/>
<text text-anchor="middle" x="247.5" y="-7" font-family="Roboto" font-size="10.00">Urho3D::Console::SetNumRows</text>
</a>
</g>
</g>
<!-- Node1&#45;&gt;Node2 -->
<g id="edge1" class="edge">
<title>Node1&#45;&gt;Node2</title>
<path fill="none" stroke="#63b8ff" d="M350.4,-9.5C342.33,-9.5 334.29,-9.5 326.46,-9.5"/>
<polygon fill="#63b8ff" stroke="#63b8ff" points="350.28,-13 360.28,-9.5 350.28,-6 350.28,-13"/>
</g>
<!-- Node3 -->
<g id="node3" class="node">
<title>Node3</title>
<g id="a_node3"><a xlink:href="class_urho3_d_1_1_console.html#afa65f6eacc596b544de5b0c3bc1a3d55" target="_top" xlink:title="Construct.">
<polygon fill="white" stroke="#666666" points="133,-19 0,-19 0,0 133,0 133,-19"/>
<text text-anchor="middle" x="66.5" y="-7" font-family="Roboto" font-size="10.00">Urho3D::Console::Console</text>
</a>
</g>
</g>
<!-- Node2&#45;&gt;Node3 -->
<g id="edge2" class="edge">
<title>Node2&#45;&gt;Node3</title>
<path fill="none" stroke="#63b8ff" d="M157.23,-9.5C149.23,-9.5 141.23,-9.5 133.48,-9.5"/>
<polygon fill="#63b8ff" stroke="#63b8ff" points="157,-13 167,-9.5 157,-6 157,-13"/>
</g>
</g>
</svg>
