<?xml version="1.0" encoding="UTF-8" standalone="no"?>
<!DOCTYPE svg PUBLIC "-//W3C//DTD SVG 1.1//EN"
 "http://www.w3.org/Graphics/SVG/1.1/DTD/svg11.dtd">
<!-- Generated by graphviz version 7.0.3 (0)
 -->
<!-- Title: Urho3D::ParticleEmitter::SetNumParticles Pages: 1 -->
<svg width="1266pt" height="164pt"
 viewBox="0.00 0.00 1266.00 163.54" xmlns="http://www.w3.org/2000/svg" xmlns:xlink="http://www.w3.org/1999/xlink">
<g id="graph0" class="graph" transform="scale(1 1) rotate(0) translate(4 159.54)">
<title>Urho3D::ParticleEmitter::SetNumParticles</title>
<!-- Node1 -->
<g id="node1" class="node">
<title>Node1</title>
<g id="a_node1"><a xlink:title=" ">
<polygon fill="#999999" stroke="#666666" points="120,-87 0,-87 0,-57 120,-57 120,-87"/>
<text text-anchor="start" x="8" y="-75" font-family="Roboto" font-size="10.00">Urho3D::ParticleEmitter</text>
<text text-anchor="middle" x="60" y="-64" font-family="Roboto" font-size="10.00">::SetNumParticles</text>
</a>
</g>
</g>
<!-- Node2 -->
<g id="node2" class="node">
<title>Node2</title>
<g id="a_node2"><a xlink:href="class_urho3_d_1_1_billboard_set.html#a284dc0a73ef00e1713b61fd3a2305968" target="_top" xlink:title=" ">
<polygon fill="white" stroke="#666666" points="263,-87 156,-87 156,-57 263,-57 263,-87"/>
<text text-anchor="start" x="164" y="-75" font-family="Roboto" font-size="10.00">Urho3D::BillboardSet</text>
<text text-anchor="middle" x="209.5" y="-64" font-family="Roboto" font-size="10.00">::SetNumBillboards</text>
</a>
</g>
</g>
<!-- Node1&#45;&gt;Node2 -->
<g id="edge1" class="edge">
<title>Node1&#45;&gt;Node2</title>
<path fill="none" stroke="#63b8ff" d="M120.14,-72C128.01,-72 136.1,-72 144.05,-72"/>
<polygon fill="#63b8ff" stroke="#63b8ff" points="144.03,-75.5 154.03,-72 144.03,-68.5 144.03,-75.5"/>
</g>
<!-- Node3 -->
<g id="node3" class="node">
<title>Node3</title>
<g id="a_node3"><a xlink:href="class_urho3_d_1_1_billboard_set.html#a197bedeabeabd165c9b94b866db3698a" target="_top" xlink:title="Mark for bounding box and vertex buffer update. Call after modifying the billboards.">
<polygon fill="white" stroke="#666666" points="406,-87 299,-87 299,-57 406,-57 406,-87"/>
<text text-anchor="start" x="307" y="-75" font-family="Roboto" font-size="10.00">Urho3D::BillboardSet</text>
<text text-anchor="middle" x="352.5" y="-64" font-family="Roboto" font-size="10.00">::Commit</text>
</a>
</g>
</g>
<!-- Node2&#45;&gt;Node3 -->
<g id="edge2" class="edge">
<title>Node2&#45;&gt;Node3</title>
<path fill="none" stroke="#63b8ff" d="M263.4,-72C271.27,-72 279.44,-72 287.5,-72"/>
<polygon fill="#63b8ff" stroke="#63b8ff" points="287.25,-75.5 297.25,-72 287.25,-68.5 287.25,-75.5"/>
</g>
<!-- Node4 -->
<g id="node4" class="node">
<title>Node4</title>
<g id="a_node4"><a xlink:href="class_urho3_d_1_1_component.html#aaf87acb64001774c62f0784254f9b291" target="_top" xlink:title="Mark for attribute check on the next network update.">
<polygon fill="white" stroke="#666666" points="553,-111 442,-111 442,-81 553,-81 553,-111"/>
<text text-anchor="start" x="450" y="-99" font-family="Roboto" font-size="10.00">Urho3D::Component::</text>
<text text-anchor="middle" x="497.5" y="-88" font-family="Roboto" font-size="10.00">MarkNetworkUpdate</text>
</a>
</g>
</g>
<!-- Node3&#45;&gt;Node4 -->
<g id="edge3" class="edge">
<title>Node3&#45;&gt;Node4</title>
<path fill="none" stroke="#63b8ff" d="M406.34,-80.87C414.33,-82.21 422.65,-83.61 430.86,-84.98"/>
<polygon fill="#63b8ff" stroke="#63b8ff" points="430.03,-88.39 440.47,-86.6 431.19,-81.49 430.03,-88.39"/>
</g>
<!-- Node10 -->
<g id="node10" class="node">
<title>Node10</title>
<g id="a_node10"><a xlink:href="class_urho3_d_1_1_billboard_set.html#ab8531127f88c6a4ae7928e4f4d1cc229" target="_top" xlink:title="Mark billboard vertex buffer to need an update.">
<polygon fill="white" stroke="#666666" points="551,-63 444,-63 444,-33 551,-33 551,-63"/>
<text text-anchor="start" x="452" y="-51" font-family="Roboto" font-size="10.00">Urho3D::BillboardSet</text>
<text text-anchor="middle" x="497.5" y="-40" font-family="Roboto" font-size="10.00">::MarkPositionsDirty</text>
</a>
</g>
</g>
<!-- Node3&#45;&gt;Node10 -->
<g id="edge10" class="edge">
<title>Node3&#45;&gt;Node10</title>
<path fill="none" stroke="#63b8ff" d="M406.34,-63.13C414.96,-61.69 423.96,-60.17 432.8,-58.69"/>
<polygon fill="#63b8ff" stroke="#63b8ff" points="433.1,-62.19 442.38,-57.08 431.94,-55.29 433.1,-62.19"/>
</g>
<!-- Node5 -->
<g id="node5" class="node">
<title>Node5</title>
<g id="a_node5"><a xlink:href="class_urho3_d_1_1_component.html#a2c22f727341671a0420934f249ffe059" target="_top" xlink:title="Return the scene the node belongs to.">
<polygon fill="white" stroke="#666666" points="1083,-132 972,-132 972,-102 1083,-102 1083,-132"/>
<text text-anchor="start" x="980" y="-120" font-family="Roboto" font-size="10.00">Urho3D::Component::</text>
<text text-anchor="middle" x="1027.5" y="-109" font-family="Roboto" font-size="10.00">GetScene</text>
</a>
</g>
</g>
<!-- Node4&#45;&gt;Node5 -->
<g id="edge4" class="edge">
<title>Node4&#45;&gt;Node5</title>
<path fill="none" stroke="#63b8ff" d="M516.07,-111.35C533.3,-125.31 560.99,-144.91 589,-153 614.82,-160.45 917.16,-148.94 923,-148 939.63,-145.33 957.32,-140.73 973.29,-135.86"/>
<polygon fill="#63b8ff" stroke="#63b8ff" points="974.11,-139.28 982.59,-132.93 972,-132.6 974.11,-139.28"/>
</g>
<!-- Node7 -->
<g id="node7" class="node">
<title>Node7</title>
<g id="a_node7"><a xlink:href="class_urho3_d_1_1_component.html#a8f1388c232ca01b7c7328c761aae6e76" target="_top" xlink:title=" ">
<polygon fill="white" stroke="#666666" points="718.5,-144 607.5,-144 607.5,-114 718.5,-114 718.5,-144"/>
<text text-anchor="start" x="615.5" y="-132" font-family="Roboto" font-size="10.00">Urho3D::Component::</text>
<text text-anchor="middle" x="663" y="-121" font-family="Roboto" font-size="10.00">IsReplicated</text>
</a>
</g>
</g>
<!-- Node4&#45;&gt;Node7 -->
<g id="edge6" class="edge">
<title>Node4&#45;&gt;Node7</title>
<path fill="none" stroke="#63b8ff" d="M553.4,-107.08C567.09,-109.84 581.91,-112.83 596.07,-115.69"/>
<polygon fill="#63b8ff" stroke="#63b8ff" points="595.27,-119.1 605.76,-117.65 596.65,-112.24 595.27,-119.1"/>
</g>
<!-- Node9 -->
<g id="node9" class="node">
<title>Node9</title>
<g id="a_node9"><a xlink:href="class_urho3_d_1_1_scene.html#a00b724dfff718639b9de12d71139499c" target="_top" xlink:title="Mark for attribute check on the next network update.">
<polygon fill="white" stroke="#666666" points="737,-78 589,-78 589,-48 737,-48 737,-78"/>
<text text-anchor="start" x="597" y="-66" font-family="Roboto" font-size="10.00">Urho3D::Scene::MarkNetwork</text>
<text text-anchor="middle" x="663" y="-55" font-family="Roboto" font-size="10.00">Update</text>
</a>
</g>
</g>
<!-- Node4&#45;&gt;Node9 -->
<g id="edge8" class="edge">
<title>Node4&#45;&gt;Node9</title>
<path fill="none" stroke="#63b8ff" d="M553.4,-84.92C561.18,-83.35 569.33,-81.7 577.51,-80.05"/>
<polygon fill="#63b8ff" stroke="#63b8ff" points="578.07,-83.51 587.17,-78.1 576.68,-76.65 578.07,-83.51"/>
</g>
<!-- Node6 -->
<g id="node6" class="node">
<title>Node6</title>
<g id="a_node6"><a xlink:href="class_urho3_d_1_1_node.html#ad3742cda838a2b291daa44d3ab00de56" target="_top" xlink:title=" ">
<polygon fill="white" stroke="#666666" points="1258,-126.5 1132,-126.5 1132,-107.5 1258,-107.5 1258,-126.5"/>
<text text-anchor="middle" x="1195" y="-114.5" font-family="Roboto" font-size="10.00">Urho3D::Node::GetScene</text>
</a>
</g>
</g>
<!-- Node5&#45;&gt;Node6 -->
<g id="edge5" class="edge">
<title>Node5&#45;&gt;Node6</title>
<path fill="none" stroke="#63b8ff" d="M1083.15,-117C1095.04,-117 1107.82,-117 1120.31,-117"/>
<polygon fill="#63b8ff" stroke="#63b8ff" points="1120.16,-120.5 1130.16,-117 1120.16,-113.5 1120.16,-120.5"/>
</g>
<!-- Node8 -->
<g id="node8" class="node">
<title>Node8</title>
<g id="a_node8"><a xlink:href="class_urho3_d_1_1_scene.html#a97fb1222bd2f38e6c1c433c0b7e54d40" target="_top" xlink:title="Return whether the specified id is a replicated id.">
<polygon fill="white" stroke="#666666" points="923,-138.5 773,-138.5 773,-119.5 923,-119.5 923,-138.5"/>
<text text-anchor="middle" x="848" y="-126.5" font-family="Roboto" font-size="10.00">Urho3D::Scene::IsReplicatedID</text>
</a>
</g>
</g>
<!-- Node7&#45;&gt;Node8 -->
<g id="edge7" class="edge">
<title>Node7&#45;&gt;Node8</title>
<path fill="none" stroke="#63b8ff" d="M718.91,-129C732.2,-129 746.72,-129 761.07,-129"/>
<polygon fill="#63b8ff" stroke="#63b8ff" points="760.99,-132.5 770.99,-129 760.99,-125.5 760.99,-132.5"/>
</g>
<!-- Node9&#45;&gt;Node9 -->
<g id="edge9" class="edge">
<title>Node9&#45;&gt;Node9</title>
<path fill="none" stroke="#63b8ff" d="M633.91,-78.28C627.44,-87.41 637.14,-96 663,-96 677.14,-96 686.45,-93.43 690.92,-89.61"/>
<polygon fill="#63b8ff" stroke="#63b8ff" points="694.39,-90.09 691.94,-79.78 687.43,-89.37 694.39,-90.09"/>
</g>
<!-- Node11 -->
<g id="node11" class="node">
<title>Node11</title>
<g id="a_node11"><a xlink:href="class_urho3_d_1_1_drawable.html#a04a978441415a93f044721f6473df0e3" target="_top" xlink:title="Handle node transform being dirtied.">
<polygon fill="white" stroke="#666666" points="736,-30 590,-30 590,0 736,0 736,-30"/>
<text text-anchor="start" x="598" y="-18" font-family="Roboto" font-size="10.00">Urho3D::Drawable::OnMarked</text>
<text text-anchor="middle" x="663" y="-7" font-family="Roboto" font-size="10.00">Dirty</text>
</a>
</g>
</g>
<!-- Node10&#45;&gt;Node11 -->
<g id="edge11" class="edge">
<title>Node10&#45;&gt;Node11</title>
<path fill="none" stroke="#63b8ff" d="M551.13,-37.38C559.83,-35.62 569.03,-33.77 578.26,-31.9"/>
<polygon fill="#63b8ff" stroke="#63b8ff" points="578.91,-35.34 588.02,-29.93 577.53,-28.48 578.91,-35.34"/>
</g>
<!-- Node12 -->
<g id="node12" class="node">
<title>Node12</title>
<g id="a_node12"><a xlink:href="class_urho3_d_1_1_octant.html#a7c998cf647fa3ba6fc98d05a9a04dc9d" target="_top" xlink:title="Return octree root.">
<polygon fill="white" stroke="#666666" points="910,-61.5 786,-61.5 786,-42.5 910,-42.5 910,-61.5"/>
<text text-anchor="middle" x="848" y="-49.5" font-family="Roboto" font-size="10.00">Urho3D::Octant::GetRoot</text>
</a>
</g>
</g>
<!-- Node11&#45;&gt;Node12 -->
<g id="edge12" class="edge">
<title>Node11&#45;&gt;Node12</title>
<path fill="none" stroke="#63b8ff" d="M736.33,-29.62C753.05,-33 770.66,-36.57 786.8,-39.83"/>
<polygon fill="#63b8ff" stroke="#63b8ff" points="785.73,-43.18 796.23,-41.73 787.12,-36.32 785.73,-43.18"/>
</g>
<!-- Node13 -->
<g id="node13" class="node">
<title>Node13</title>
<g id="a_node13"><a xlink:href="class_urho3_d_1_1_octree.html#a578eb27fbff722b23eecfd03ef0e5571" target="_top" xlink:title="Mark drawable object as requiring an update and a reinsertion.">
<polygon fill="white" stroke="#666666" points="921.5,-24.5 774.5,-24.5 774.5,-5.5 921.5,-5.5 921.5,-24.5"/>
<text text-anchor="middle" x="848" y="-12.5" font-family="Roboto" font-size="10.00">Urho3D::Octree::QueueUpdate</text>
</a>
</g>
</g>
<!-- Node11&#45;&gt;Node13 -->
<g id="edge13" class="edge">
<title>Node11&#45;&gt;Node13</title>
<path fill="none" stroke="#63b8ff" d="M736.33,-15C745.11,-15 754.13,-15 763.07,-15"/>
<polygon fill="#63b8ff" stroke="#63b8ff" points="762.79,-18.5 772.79,-15 762.79,-11.5 762.79,-18.5"/>
</g>
<!-- Node13&#45;&gt;Node5 -->
<g id="edge14" class="edge">
<title>Node13&#45;&gt;Node5</title>
<path fill="none" stroke="#63b8ff" d="M902.17,-24.89C909.35,-27.1 916.48,-29.77 923,-33 954.07,-48.4 984.22,-74.55 1003.89,-93.59"/>
<polygon fill="#63b8ff" stroke="#63b8ff" points="1001.26,-95.9 1010.83,-100.45 1006.18,-90.93 1001.26,-95.9"/>
</g>
<!-- Node14 -->
<g id="node14" class="node">
<title>Node14</title>
<g id="a_node14"><a xlink:href="class_urho3_d_1_1_scene.html#a5a3132086218d7b7e6d8f3ccd50f7249" target="_top" xlink:title="Return threaded update flag.">
<polygon fill="white" stroke="#666666" points="1096,-30 959,-30 959,0 1096,0 1096,-30"/>
<text text-anchor="start" x="967" y="-18" font-family="Roboto" font-size="10.00">Urho3D::Scene::IsThreaded</text>
<text text-anchor="middle" x="1027.5" y="-7" font-family="Roboto" font-size="10.00">Update</text>
</a>
</g>
</g>
<!-- Node13&#45;&gt;Node14 -->
<g id="edge15" class="edge">
<title>Node13&#45;&gt;Node14</title>
<path fill="none" stroke="#63b8ff" d="M921.96,-15C930.31,-15 938.85,-15 947.28,-15"/>
<polygon fill="#63b8ff" stroke="#63b8ff" points="947.15,-18.5 957.15,-15 947.15,-11.5 947.15,-18.5"/>
</g>
</g>
</svg>
