<?xml version="1.0" encoding="UTF-8" standalone="no"?>
<!DOCTYPE svg PUBLIC "-//W3C//DTD SVG 1.1//EN"
 "http://www.w3.org/Graphics/SVG/1.1/DTD/svg11.dtd">
<!-- Generated by graphviz version 7.0.3 (0)
 -->
<!-- Title: Urho3D::ShaderProgram Pages: 1 -->
<svg width="2180pt" height="679pt"
 viewBox="0.00 0.00 2180.00 678.50" xmlns="http://www.w3.org/2000/svg" xmlns:xlink="http://www.w3.org/1999/xlink">
<g id="graph0" class="graph" transform="scale(1 1) rotate(0) translate(4 674.5)">
<title>Urho3D::ShaderProgram</title>
<!-- Node1 -->
<g id="node1" class="node">
<title>Node1</title>
<g id="a_node1"><a xlink:title="Linked shader program on the GPU.">
<polygon fill="#999999" stroke="#666666" points="811,-474.5 687,-474.5 687,-455.5 811,-455.5 811,-474.5"/>
<text text-anchor="middle" x="749" y="-462.5" font-family="Roboto" font-size="10.00">Urho3D::ShaderProgram</text>
</a>
</g>
</g>
<!-- Node28 -->
<g id="node9" class="node">
<title>Node28</title>
<g id="a_node9"><a xlink:href="class_urho3_d_1_1_graphics_impl.html" target="_top" xlink:title="Graphics subsystem implementation. Holds API&#45;specific objects.">
<polygon fill="#fff0f0" stroke="red" points="1113,-523.5 1000,-523.5 1000,-504.5 1113,-504.5 1113,-523.5"/>
<text text-anchor="middle" x="1056.5" y="-511.5" font-family="Roboto" font-size="10.00">Urho3D::GraphicsImpl</text>
</a>
</g>
</g>
<!-- Node1&#45;&gt;Node28 -->
<g id="edge21" class="edge">
<title>Node1&#45;&gt;Node28</title>
<path fill="none" stroke="#9a32cd" stroke-dasharray="5,2" d="M822.72,-476.66C876.92,-485.36 949.85,-497.06 999.54,-505.03"/>
<polygon fill="#9a32cd" stroke="#9a32cd" points="823.38,-473.22 812.95,-475.1 822.27,-480.14 823.38,-473.22"/>
<text text-anchor="middle" x="896" y="-501" font-family="Roboto" font-size="10.00"> shaderProgram_</text>
</g>
<!-- Node2 -->
<g id="node2" class="node">
<title>Node2</title>
<g id="a_node2"><a xlink:href="class_urho3_d_1_1_ref_counted.html" target="_top" xlink:title="Base class for intrusively reference&#45;counted objects. These are noncopyable and non&#45;assignable.">
<polygon fill="white" stroke="#666666" points="512.5,-387.5 405.5,-387.5 405.5,-368.5 512.5,-368.5 512.5,-387.5"/>
<text text-anchor="middle" x="459" y="-375.5" font-family="Roboto" font-size="10.00">Urho3D::RefCounted</text>
</a>
</g>
</g>
<!-- Node2&#45;&gt;Node1 -->
<g id="edge1" class="edge">
<title>Node2&#45;&gt;Node1</title>
<path fill="none" stroke="#63b8ff" d="M504.05,-391.31C562.1,-408.84 662.93,-439.3 714.91,-455"/>
<polygon fill="#63b8ff" stroke="#63b8ff" points="505.07,-387.96 494.49,-388.42 503.05,-394.66 505.07,-387.96"/>
</g>
<!-- Node7 -->
<g id="node7" class="node">
<title>Node7</title>
<g id="a_node7"><a xlink:href="class_urho3_d_1_1_object.html" target="_top" xlink:title=" ">
<polygon fill="#fff0f0" stroke="red" points="1098,-391.5 1015,-391.5 1015,-372.5 1098,-372.5 1098,-391.5"/>
<text text-anchor="middle" x="1056.5" y="-379.5" font-family="Roboto" font-size="10.00">Urho3D::Object</text>
</a>
</g>
</g>
<!-- Node2&#45;&gt;Node7 -->
<g id="edge7" class="edge">
<title>Node2&#45;&gt;Node7</title>
<path fill="none" stroke="#63b8ff" d="M524.29,-378.43C647.27,-379.26 912.64,-381.04 1014.52,-381.72"/>
<polygon fill="#63b8ff" stroke="#63b8ff" points="524.38,-374.93 514.36,-378.37 524.34,-381.93 524.38,-374.93"/>
</g>
<!-- Node51 -->
<g id="node19" class="node">
<title>Node51</title>
<g id="a_node19"><a xlink:href="class_urho3_d_1_1_shader_variation.html" target="_top" xlink:title="Vertex or pixel shader on the GPU.">
<polygon fill="white" stroke="#666666" points="1983,-199.5 1858,-199.5 1858,-180.5 1983,-180.5 1983,-199.5"/>
<text text-anchor="middle" x="1920.5" y="-187.5" font-family="Roboto" font-size="10.00">Urho3D::ShaderVariation</text>
</a>
</g>
</g>
<!-- Node2&#45;&gt;Node51 -->
<g id="edge28" class="edge">
<title>Node2&#45;&gt;Node51</title>
<path fill="none" stroke="#63b8ff" d="M524.17,-370.68C597.74,-362.41 721.98,-348.84 829,-339 1022.11,-321.25 1072.35,-334.6 1264,-305 1322.17,-296.01 1335.24,-286.35 1393,-275 1590.45,-236.19 1641.37,-235.24 1840,-203 1846.07,-202.01 1852.41,-200.98 1858.73,-199.95"/>
<polygon fill="#63b8ff" stroke="#63b8ff" points="523.86,-367.19 514.32,-371.79 524.64,-374.15 523.86,-367.19"/>
</g>
<!-- Node3 -->
<g id="node3" class="node">
<title>Node3</title>
<g id="a_node3"><a xlink:href="struct_urho3_d_1_1_ref_count.html" target="_top" xlink:title="Reference count structure.">
<polygon fill="white" stroke="#666666" points="305,-294.5 209,-294.5 209,-275.5 305,-275.5 305,-294.5"/>
<text text-anchor="middle" x="257" y="-282.5" font-family="Roboto" font-size="10.00">Urho3D::RefCount</text>
</a>
</g>
</g>
<!-- Node3&#45;&gt;Node2 -->
<g id="edge2" class="edge">
<title>Node3&#45;&gt;Node2</title>
<path fill="none" stroke="#9a32cd" stroke-dasharray="5,2" d="M279.1,-301.62C291.87,-311.11 308.77,-322.74 325,-331 356.43,-346.99 394.58,-359.86 421.95,-368.07"/>
<polygon fill="#9a32cd" stroke="#9a32cd" points="281.51,-299.05 271.43,-295.78 277.27,-304.62 281.51,-299.05"/>
<text text-anchor="middle" x="348" y="-352" font-family="Roboto" font-size="10.00"> refCount_</text>
</g>
<!-- Node5 -->
<g id="node5" class="node">
<title>Node5</title>
<g id="a_node5"><a xlink:href="class_urho3_d_1_1_weak_ptr.html" target="_top" xlink:title=" ">
<polygon fill="white" stroke="#666666" points="1564,-316 1430,-316 1430,-286 1564,-286 1564,-316"/>
<text text-anchor="start" x="1438" y="-304" font-family="Roboto" font-size="10.00">Urho3D::WeakPtr&lt; Urho3D</text>
<text text-anchor="middle" x="1497" y="-293" font-family="Roboto" font-size="10.00">::Graphics &gt;</text>
</a>
</g>
</g>
<!-- Node3&#45;&gt;Node5 -->
<g id="edge37" class="edge">
<title>Node3&#45;&gt;Node5</title>
<path fill="none" stroke="#9a32cd" stroke-dasharray="5,2" d="M316.78,-294.11C428.91,-310.66 681.27,-344 895,-344 895,-344 895,-344 1329.5,-344 1352.26,-344 1406.99,-328.74 1447.52,-316.4"/>
<polygon fill="#9a32cd" stroke="#9a32cd" points="317.31,-290.65 306.9,-292.64 316.28,-297.57 317.31,-290.65"/>
<text text-anchor="middle" x="896" y="-347" font-family="Roboto" font-size="10.00"> refCount_</text>
</g>
<!-- Node33 -->
<g id="node15" class="node">
<title>Node33</title>
<g id="a_node15"><a xlink:href="class_urho3_d_1_1_shared_array_ptr.html" target="_top" xlink:title=" ">
<polygon fill="white" stroke="#666666" points="669,-663 547,-663 547,-633 669,-633 669,-663"/>
<text text-anchor="start" x="555" y="-651" font-family="Roboto" font-size="10.00">Urho3D::SharedArrayPtr</text>
<text text-anchor="middle" x="608" y="-640" font-family="Roboto" font-size="10.00">&lt; unsigned char &gt;</text>
</a>
</g>
</g>
<!-- Node3&#45;&gt;Node33 -->
<g id="edge20" class="edge">
<title>Node3&#45;&gt;Node33</title>
<path fill="none" stroke="#9a32cd" stroke-dasharray="5,2" d="M261.01,-305.95C269.94,-360.28 301.37,-506.87 389,-584 432.82,-622.57 498.84,-637.93 546.74,-644.03"/>
<polygon fill="#9a32cd" stroke="#9a32cd" points="264.5,-305.58 259.51,-296.24 257.58,-306.65 264.5,-305.58"/>
<text text-anchor="middle" x="348" y="-564" font-family="Roboto" font-size="10.00"> refCount_</text>
</g>
<!-- Node38 -->
<g id="node17" class="node">
<title>Node38</title>
<g id="a_node17"><a xlink:href="class_urho3_d_1_1_weak_ptr.html" target="_top" xlink:title=" ">
<polygon fill="white" stroke="orangered" points="963,-260 829,-260 829,-230 963,-230 963,-260"/>
<text text-anchor="start" x="837" y="-248" font-family="Roboto" font-size="10.00">Urho3D::WeakPtr&lt; Urho3D</text>
<text text-anchor="middle" x="896" y="-237" font-family="Roboto" font-size="10.00">::Image &gt;</text>
</a>
</g>
</g>
<!-- Node3&#45;&gt;Node38 -->
<g id="edge25" class="edge">
<title>Node3&#45;&gt;Node38</title>
<path fill="none" stroke="#9a32cd" stroke-dasharray="5,2" d="M316.72,-281.31C435.54,-273.85 703.77,-257.01 828.68,-249.16"/>
<polygon fill="#9a32cd" stroke="#9a32cd" points="316.63,-277.81 306.87,-281.93 317.07,-284.8 316.63,-277.81"/>
<text text-anchor="middle" x="459" y="-279" font-family="Roboto" font-size="10.00"> refCount_</text>
</g>
<!-- Node52 -->
<g id="node20" class="node">
<title>Node52</title>
<g id="a_node20"><a xlink:href="class_urho3_d_1_1_weak_ptr.html" target="_top" xlink:title=" ">
<polygon fill="white" stroke="orangered" points="1123.5,-143 989.5,-143 989.5,-113 1123.5,-113 1123.5,-143"/>
<text text-anchor="start" x="997.5" y="-131" font-family="Roboto" font-size="10.00">Urho3D::WeakPtr&lt; Urho3D</text>
<text text-anchor="middle" x="1056.5" y="-120" font-family="Roboto" font-size="10.00">::Shader &gt;</text>
</a>
</g>
</g>
<!-- Node3&#45;&gt;Node52 -->
<g id="edge31" class="edge">
<title>Node3&#45;&gt;Node52</title>
<path fill="none" stroke="#9a32cd" stroke-dasharray="5,2" d="M293.68,-270.98C347.56,-250.56 453.36,-213.4 547,-198 638.27,-182.99 883.95,-232.03 963,-184 976.95,-175.53 968.36,-162.32 981,-152 985,-148.73 989.45,-145.91 994.14,-143.46"/>
<polygon fill="#9a32cd" stroke="#9a32cd" points="292.5,-267.68 284.41,-274.53 295,-274.22 292.5,-267.68"/>
<text text-anchor="middle" x="608" y="-201" font-family="Roboto" font-size="10.00"> refCount_</text>
</g>
<!-- Node77 -->
<g id="node24" class="node">
<title>Node77</title>
<g id="a_node24"><a xlink:href="class_urho3_d_1_1_weak_ptr.html" target="_top" xlink:title=" ">
<polygon fill="white" stroke="#666666" points="2172,-205 2038,-205 2038,-175 2172,-175 2172,-205"/>
<text text-anchor="start" x="2046" y="-193" font-family="Roboto" font-size="10.00">Urho3D::WeakPtr&lt; Urho3D</text>
<text text-anchor="middle" x="2105" y="-182" font-family="Roboto" font-size="10.00">::ShaderVariation &gt;</text>
</a>
</g>
</g>
<!-- Node3&#45;&gt;Node77 -->
<g id="edge41" class="edge">
<title>Node3&#45;&gt;Node77</title>
<path fill="none" stroke="#9a32cd" stroke-dasharray="5,2" d="M261.99,-264.25C275.93,-198.65 328.81,0 458,0 458,0 458,0 1921.5,0 2018.24,0 2079.7,-129.69 2098.14,-174.77"/>
<polygon fill="#9a32cd" stroke="#9a32cd" points="258.63,-263.21 260.07,-273.71 265.49,-264.6 258.63,-263.21"/>
<text text-anchor="middle" x="1328.5" y="-3" font-family="Roboto" font-size="10.00"> refCount_</text>
</g>
<!-- Node4 -->
<g id="node4" class="node">
<title>Node4</title>
<g id="a_node4"><a xlink:href="class_urho3_d_1_1_g_p_u_object.html" target="_top" xlink:title="Base class for GPU resources.">
<polygon fill="white" stroke="#666666" points="1769.5,-353.5 1667.5,-353.5 1667.5,-334.5 1769.5,-334.5 1769.5,-353.5"/>
<text text-anchor="middle" x="1718.5" y="-341.5" font-family="Roboto" font-size="10.00">Urho3D::GPUObject</text>
</a>
</g>
</g>
<!-- Node4&#45;&gt;Node1 -->
<g id="edge3" class="edge">
<title>Node4&#45;&gt;Node1</title>
<path fill="none" stroke="#63b8ff" d="M1682.96,-358.07C1625.83,-380.04 1507.61,-420 1403.5,-420 1055.5,-420 1055.5,-420 1055.5,-420 960.07,-420 849.65,-441.76 791.22,-455.01"/>
<polygon fill="#63b8ff" stroke="#63b8ff" points="1684.1,-361.39 1692.14,-354.49 1681.55,-354.87 1684.1,-361.39"/>
</g>
<!-- Node32 -->
<g id="node14" class="node">
<title>Node32</title>
<g id="a_node14"><a xlink:href="class_urho3_d_1_1_constant_buffer.html" target="_top" xlink:title="Hardware constant buffer.">
<polygon fill="white" stroke="#666666" points="1981.5,-533.5 1859.5,-533.5 1859.5,-514.5 1981.5,-514.5 1981.5,-533.5"/>
<text text-anchor="middle" x="1920.5" y="-521.5" font-family="Roboto" font-size="10.00">Urho3D::ConstantBuffer</text>
</a>
</g>
</g>
<!-- Node4&#45;&gt;Node32 -->
<g id="edge18" class="edge">
<title>Node4&#45;&gt;Node32</title>
<path fill="none" stroke="#63b8ff" d="M1738.97,-361.52C1780.48,-398.88 1876.52,-485.32 1908.74,-514.32"/>
<polygon fill="#63b8ff" stroke="#63b8ff" points="1741.44,-359.03 1731.66,-354.95 1736.75,-364.24 1741.44,-359.03"/>
</g>
<!-- Node4&#45;&gt;Node51 -->
<g id="edge29" class="edge">
<title>Node4&#45;&gt;Node51</title>
<path fill="none" stroke="#63b8ff" d="M1749.82,-328.76C1775.08,-315.41 1811.41,-294.64 1840,-272 1868.91,-249.11 1897.78,-216.19 1911.4,-199.9"/>
<polygon fill="#63b8ff" stroke="#63b8ff" points="1748.32,-325.59 1741.07,-333.32 1751.56,-331.8 1748.32,-325.59"/>
</g>
<!-- Node5&#45;&gt;Node4 -->
<g id="edge4" class="edge">
<title>Node5&#45;&gt;Node4</title>
<path fill="none" stroke="#9a32cd" stroke-dasharray="5,2" d="M1575.66,-315.39C1598.35,-319.68 1623.18,-324.45 1646,-329 1653.96,-330.59 1662.41,-332.32 1670.61,-334.02"/>
<polygon fill="#9a32cd" stroke="#9a32cd" points="1576.32,-311.96 1565.85,-313.54 1575.03,-318.84 1576.32,-311.96"/>
<text text-anchor="middle" x="1614" y="-332" font-family="Roboto" font-size="10.00"> graphics_</text>
</g>
<!-- Node6 -->
<g id="node6" class="node">
<title>Node6</title>
<g id="a_node6"><a xlink:href="class_urho3_d_1_1_graphics.html" target="_top" xlink:title="Graphics subsystem. Manages the application window, rendering state and GPU resources.">
<polygon fill="#fff0f0" stroke="red" points="1375,-199.5 1282,-199.5 1282,-180.5 1375,-180.5 1375,-199.5"/>
<text text-anchor="middle" x="1328.5" y="-187.5" font-family="Roboto" font-size="10.00">Urho3D::Graphics</text>
</a>
</g>
</g>
<!-- Node6&#45;&gt;Node5 -->
<g id="edge5" class="edge">
<title>Node6&#45;&gt;Node5</title>
<path fill="none" stroke="#9a32cd" stroke-dasharray="5,2" d="M1353.75,-206.16C1385.68,-227.46 1441.46,-264.64 1472.84,-285.56"/>
<polygon fill="#9a32cd" stroke="#9a32cd" points="1355.8,-203.32 1345.54,-200.69 1351.91,-209.15 1355.8,-203.32"/>
<text text-anchor="middle" x="1402.5" y="-245" font-family="Roboto" font-size="10.00"> ptr_</text>
</g>
<!-- Node7&#45;&gt;Node6 -->
<g id="edge6" class="edge">
<title>Node7&#45;&gt;Node6</title>
<path fill="none" stroke="#63b8ff" d="M1068.8,-362.51C1084.05,-338 1113.55,-296.43 1150,-274 1194.43,-246.65 1217.77,-270.17 1264,-246 1286.66,-234.15 1307.86,-212.54 1319.1,-199.91"/>
<polygon fill="#63b8ff" stroke="#63b8ff" points="1065.94,-360.48 1063.77,-370.86 1071.93,-364.1 1065.94,-360.48"/>
</g>
<!-- Node7&#45;&gt;Node32 -->
<g id="edge17" class="edge">
<title>Node7&#45;&gt;Node32</title>
<path fill="none" stroke="#63b8ff" d="M1109.49,-383.97C1172.54,-386.8 1281.95,-393.18 1375,-406 1568.56,-432.67 1795.67,-490.72 1882.88,-514.02"/>
<polygon fill="#63b8ff" stroke="#63b8ff" points="1109.92,-380.48 1099.78,-383.54 1109.62,-387.48 1109.92,-380.48"/>
</g>
<!-- Node27 -->
<g id="node8" class="node">
<title>Node27</title>
<g id="a_node8"><a xlink:href="class_urho3_d_1_1_mutex.html" target="_top" xlink:title="Operating system mutual exclusion primitive.">
<polygon fill="white" stroke="#666666" points="1098,-180.5 1015,-180.5 1015,-161.5 1098,-161.5 1098,-180.5"/>
<text text-anchor="middle" x="1056.5" y="-168.5" font-family="Roboto" font-size="10.00">Urho3D::Mutex</text>
</a>
</g>
</g>
<!-- Node27&#45;&gt;Node6 -->
<g id="edge8" class="edge">
<title>Node27&#45;&gt;Node6</title>
<path fill="none" stroke="#9a32cd" stroke-dasharray="5,2" d="M1109.62,-163.33C1151.67,-158.62 1212.14,-155.16 1264,-165 1279.25,-167.89 1295.52,-174.37 1307.77,-180.01"/>
<polygon fill="#9a32cd" stroke="#9a32cd" points="1109.29,-159.85 1099.77,-164.51 1110.12,-166.8 1109.29,-159.85"/>
<text text-anchor="middle" x="1207" y="-168" font-family="Roboto" font-size="10.00"> gpuObjectMutex_</text>
</g>
<!-- Node28&#45;&gt;Node6 -->
<g id="edge9" class="edge">
<title>Node28&#45;&gt;Node6</title>
<path fill="none" stroke="#9a32cd" stroke-dasharray="5,2" d="M1073.27,-495.94C1108.16,-455.88 1194.31,-356.36 1264,-271 1284.68,-245.67 1308.24,-215.16 1320,-199.82"/>
<polygon fill="#9a32cd" stroke="#9a32cd" points="1070.83,-493.41 1066.9,-503.25 1076.11,-498.01 1070.83,-493.41"/>
<text text-anchor="middle" x="1207" y="-406" font-family="Roboto" font-size="10.00"> impl_</text>
</g>
<!-- Node29 -->
<g id="node10" class="node">
<title>Node29</title>
<g id="a_node10"><a xlink:href="class_urho3_d_1_1_hash_map.html" target="_top" xlink:title=" ">
<polygon fill="white" stroke="#666666" points="529,-515.5 389,-515.5 389,-474.5 529,-474.5 529,-515.5"/>
<text text-anchor="start" x="397" y="-503.5" font-family="Roboto" font-size="10.00">Urho3D::HashMap&lt; Urho3D</text>
<text text-anchor="start" x="397" y="-492.5" font-family="Roboto" font-size="10.00">::Pair&lt; unsigned char,</text>
<text text-anchor="middle" x="459" y="-481.5" font-family="Roboto" font-size="10.00"> unsigned char &gt;, unsigned &gt;</text>
</a>
</g>
</g>
<!-- Node29&#45;&gt;Node1 -->
<g id="edge43" class="edge">
<title>Node29&#45;&gt;Node1</title>
<path fill="none" stroke="#9a32cd" stroke-dasharray="5,2" d="M525.08,-470.85C532.39,-468.88 539.8,-467.19 547,-466 593.48,-458.34 646.84,-458.48 686.89,-460.32"/>
<polygon fill="#9a32cd" stroke="#9a32cd" points="524.18,-467.47 515.55,-473.62 526.13,-474.19 524.18,-467.47"/>
<text text-anchor="middle" x="608" y="-469" font-family="Roboto" font-size="10.00"> vertexAttributes_</text>
</g>
<!-- Node29&#45;&gt;Node28 -->
<g id="edge10" class="edge">
<title>Node29&#45;&gt;Node28</title>
<path fill="none" stroke="#9a32cd" stroke-dasharray="5,2" d="M540.39,-510.31C542.62,-510.56 544.82,-510.79 547,-511 710.92,-526.44 905.88,-520.97 999.66,-516.87"/>
<polygon fill="#9a32cd" stroke="#9a32cd" points="541.05,-506.86 530.68,-509.05 540.15,-513.81 541.05,-506.86"/>
<text text-anchor="middle" x="749" y="-524" font-family="Roboto" font-size="10.00"> vertexAttributes_</text>
</g>
<!-- Node10 -->
<g id="node11" class="node">
<title>Node10</title>
<g id="a_node11"><a xlink:href="class_urho3_d_1_1_hash_base.html" target="_top" xlink:title="Hash set/map base class.">
<polygon fill="white" stroke="#666666" points="307,-590.5 207,-590.5 207,-571.5 307,-571.5 307,-590.5"/>
<text text-anchor="middle" x="257" y="-578.5" font-family="Roboto" font-size="10.00">Urho3D::HashBase</text>
</a>
</g>
</g>
<!-- Node10&#45;&gt;Node29 -->
<g id="edge11" class="edge">
<title>Node10&#45;&gt;Node29</title>
<path fill="none" stroke="#63b8ff" d="M291.19,-566.73C323.46,-552.85 372.85,-531.61 409.52,-515.85"/>
<polygon fill="#63b8ff" stroke="#63b8ff" points="290.14,-563.37 282.33,-570.54 292.9,-569.8 290.14,-563.37"/>
</g>
<!-- Node55 -->
<g id="node21" class="node">
<title>Node55</title>
<g id="a_node21"><a xlink:href="class_urho3_d_1_1_hash_map.html" target="_top" xlink:title=" ">
<polygon fill="white" stroke="#666666" points="528.5,-574.5 389.5,-574.5 389.5,-533.5 528.5,-533.5 528.5,-574.5"/>
<text text-anchor="start" x="397.5" y="-562.5" font-family="Roboto" font-size="10.00">Urho3D::HashMap&lt; Urho3D</text>
<text text-anchor="start" x="397.5" y="-551.5" font-family="Roboto" font-size="10.00">::StringHash, Urho3D::</text>
<text text-anchor="middle" x="459" y="-540.5" font-family="Roboto" font-size="10.00">ShaderParameter &gt;</text>
</a>
</g>
</g>
<!-- Node10&#45;&gt;Node55 -->
<g id="edge33" class="edge">
<title>Node10&#45;&gt;Node55</title>
<path fill="none" stroke="#63b8ff" d="M282.13,-596.73C294.43,-603.82 309.94,-611.4 325,-615 344.88,-619.76 351.5,-621.15 371,-615 395.98,-607.12 420.02,-589.21 436.47,-574.83"/>
<polygon fill="#63b8ff" stroke="#63b8ff" points="284.3,-593.95 273.94,-591.77 280.68,-599.94 284.3,-593.95"/>
</g>
<!-- Node11 -->
<g id="node12" class="node">
<title>Node11</title>
<g id="a_node12"><a xlink:href="struct_urho3_d_1_1_hash_node_base.html" target="_top" xlink:title="Hash set/map node base class.">
<polygon fill="white" stroke="#666666" points="125,-619.5 0,-619.5 0,-600.5 125,-600.5 125,-619.5"/>
<text text-anchor="middle" x="62.5" y="-607.5" font-family="Roboto" font-size="10.00">Urho3D::HashNodeBase</text>
</a>
</g>
</g>
<!-- Node11&#45;&gt;Node10 -->
<g id="edge12" class="edge">
<title>Node11&#45;&gt;Node10</title>
<path fill="none" stroke="#9a32cd" stroke-dasharray="5,2" d="M136.76,-598.96C160.12,-595.44 185.4,-591.64 206.65,-588.43"/>
<polygon fill="#9a32cd" stroke="#9a32cd" points="136.33,-595.49 126.96,-600.44 137.37,-602.41 136.33,-595.49"/>
<text text-anchor="middle" x="166" y="-622" font-family="Roboto" font-size="10.00"> head_</text>
<text text-anchor="middle" x="166" y="-611" font-family="Roboto" font-size="10.00">ptrs_</text>
<text text-anchor="middle" x="166" y="-600" font-family="Roboto" font-size="10.00">tail_</text>
</g>
<!-- Node11&#45;&gt;Node11 -->
<g id="edge13" class="edge">
<title>Node11&#45;&gt;Node11</title>
<path fill="none" stroke="#9a32cd" stroke-dasharray="5,2" d="M44.13,-630.93C46.43,-634.79 52.55,-637.5 62.5,-637.5 80.69,-637.5 86.09,-628.44 78.7,-619.87"/>
<polygon fill="#9a32cd" stroke="#9a32cd" points="47.52,-631.84 46.01,-621.35 40.65,-630.49 47.52,-631.84"/>
<text text-anchor="middle" x="62.5" y="-662.5" font-family="Roboto" font-size="10.00"> down_</text>
<text text-anchor="middle" x="62.5" y="-651.5" font-family="Roboto" font-size="10.00">next_</text>
<text text-anchor="middle" x="62.5" y="-640.5" font-family="Roboto" font-size="10.00">prev_</text>
</g>
<!-- Node12 -->
<g id="node13" class="node">
<title>Node12</title>
<g id="a_node13"><a xlink:href="struct_urho3_d_1_1_allocator_block.html" target="_top" xlink:title="Allocator memory block.">
<polygon fill="#fff0f0" stroke="red" points="122.5,-553.5 2.5,-553.5 2.5,-534.5 122.5,-534.5 122.5,-553.5"/>
<text text-anchor="middle" x="62.5" y="-541.5" font-family="Roboto" font-size="10.00">Urho3D::AllocatorBlock</text>
</a>
</g>
</g>
<!-- Node12&#45;&gt;Node10 -->
<g id="edge14" class="edge">
<title>Node12&#45;&gt;Node10</title>
<path fill="none" stroke="#9a32cd" stroke-dasharray="5,2" d="M126.62,-556.13C152.64,-561.13 182.35,-566.84 206.72,-571.53"/>
<polygon fill="#9a32cd" stroke="#9a32cd" points="127.31,-552.7 116.83,-554.25 125.99,-559.57 127.31,-552.7"/>
<text text-anchor="middle" x="166" y="-570" font-family="Roboto" font-size="10.00"> allocator_</text>
</g>
<!-- Node12&#45;&gt;Node12 -->
<g id="edge15" class="edge">
<title>Node12&#45;&gt;Node12</title>
<path fill="none" stroke="#9a32cd" stroke-dasharray="5,2" d="M44.13,-564.93C46.43,-568.79 52.55,-571.5 62.5,-571.5 80.69,-571.5 86.09,-562.44 78.7,-553.87"/>
<polygon fill="#9a32cd" stroke="#9a32cd" points="47.52,-565.84 46.01,-555.35 40.65,-564.49 47.52,-565.84"/>
<text text-anchor="middle" x="62.5" y="-574.5" font-family="Roboto" font-size="10.00"> next_</text>
</g>
<!-- Node32&#45;&gt;Node28 -->
<g id="edge16" class="edge">
<title>Node32&#45;&gt;Node28</title>
<path fill="none" stroke="#9a32cd" stroke-dasharray="5,2" d="M1847.61,-524C1809.54,-524 1761.98,-524 1719.5,-524 1327.5,-524 1327.5,-524 1327.5,-524 1253.39,-524 1167.91,-520.19 1113.33,-517.27"/>
<polygon fill="#9a32cd" stroke="#9a32cd" points="1847.6,-527.5 1857.6,-524 1847.6,-520.5 1847.6,-527.5"/>
<text text-anchor="middle" x="1497" y="-527" font-family="Roboto" font-size="10.00"> constantBuffers_</text>
</g>
<!-- Node78 -->
<g id="node25" class="node">
<title>Node78</title>
<g id="a_node25"><a xlink:href="class_urho3_d_1_1_shared_ptr.html" target="_top" xlink:title=" ">
<polygon fill="white" stroke="#666666" points="2170.5,-589 2039.5,-589 2039.5,-559 2170.5,-559 2170.5,-589"/>
<text text-anchor="start" x="2047.5" y="-577" font-family="Roboto" font-size="10.00">Urho3D::SharedPtr&lt;</text>
<text text-anchor="middle" x="2105" y="-566" font-family="Roboto" font-size="10.00"> Urho3D::ConstantBuffer &gt;</text>
</a>
</g>
</g>
<!-- Node32&#45;&gt;Node78 -->
<g id="edge45" class="edge">
<title>Node32&#45;&gt;Node78</title>
<path fill="none" stroke="#9a32cd" stroke-dasharray="5,2" d="M1968.96,-537C1992.97,-543.58 2022.27,-551.61 2047.44,-558.5"/>
<polygon fill="#9a32cd" stroke="#9a32cd" points="1970.02,-533.66 1959.45,-534.4 1968.17,-540.42 1970.02,-533.66"/>
<text text-anchor="middle" x="2010.5" y="-553" font-family="Roboto" font-size="10.00"> ptr_</text>
</g>
<!-- Node33&#45;&gt;Node32 -->
<g id="edge19" class="edge">
<title>Node33&#45;&gt;Node32</title>
<path fill="none" stroke="#9a32cd" stroke-dasharray="5,2" d="M680.3,-652.22C839.76,-660.36 1236.89,-673.33 1564,-624 1689.84,-605.02 1834.27,-555.35 1892.8,-534"/>
<polygon fill="#9a32cd" stroke="#9a32cd" points="680.91,-648.75 670.75,-651.73 680.55,-655.74 680.91,-648.75"/>
<text text-anchor="middle" x="1328.5" y="-654" font-family="Roboto" font-size="10.00"> shadowData_</text>
</g>
<!-- Node37 -->
<g id="node16" class="node">
<title>Node37</title>
<g id="a_node16"><a xlink:href="class_urho3_d_1_1_string.html" target="_top" xlink:title="String class.">
<polygon fill="white" stroke="#666666" points="499,-94.5 419,-94.5 419,-75.5 499,-75.5 499,-94.5"/>
<text text-anchor="middle" x="459" y="-82.5" font-family="Roboto" font-size="10.00">Urho3D::String</text>
</a>
</g>
</g>
<!-- Node37&#45;&gt;Node1 -->
<g id="edge46" class="edge">
<title>Node37&#45;&gt;Node1</title>
<path fill="none" stroke="#9a32cd" stroke-dasharray="5,2" d="M472.49,-104.35C489,-129.69 519.24,-175.34 547,-213 618.38,-309.86 711.64,-421.77 739.68,-455.13"/>
<polygon fill="#9a32cd" stroke="#9a32cd" points="475.5,-102.56 467.12,-96.08 469.63,-106.37 475.5,-102.56"/>
<text text-anchor="middle" x="608" y="-367" font-family="Roboto" font-size="10.00"> linkerOutput_</text>
</g>
<!-- Node37&#45;&gt;Node6 -->
<g id="edge22" class="edge">
<title>Node37&#45;&gt;Node6</title>
<path fill="none" stroke="#9a32cd" stroke-dasharray="5,2" d="M510.77,-84.38C623.02,-83.46 900.68,-83.66 1132,-104 1190.92,-109.18 1211.46,-93.82 1264,-121 1290.89,-134.92 1312.23,-165.03 1321.89,-180.47"/>
<polygon fill="#9a32cd" stroke="#9a32cd" points="510.96,-80.88 500.99,-84.47 511.03,-87.88 510.96,-80.88"/>
<text text-anchor="middle" x="896" y="-173" font-family="Roboto" font-size="10.00"> apiName_</text>
<text text-anchor="middle" x="896" y="-162" font-family="Roboto" font-size="10.00">lastShaderName_</text>
<text text-anchor="middle" x="896" y="-151" font-family="Roboto" font-size="10.00">orientations_</text>
<text text-anchor="middle" x="896" y="-140" font-family="Roboto" font-size="10.00">shaderCacheDir_</text>
<text text-anchor="start" x="856.5" y="-129" font-family="Roboto" font-size="10.00">shaderExtension</text>
<text text-anchor="middle" x="896" y="-118" font-family="Roboto" font-size="10.00">_</text>
<text text-anchor="middle" x="896" y="-107" font-family="Roboto" font-size="10.00">shaderPath_</text>
<text text-anchor="middle" x="896" y="-96" font-family="Roboto" font-size="10.00">windowTitle_</text>
</g>
<!-- Node37&#45;&gt;Node37 -->
<g id="edge23" class="edge">
<title>Node37&#45;&gt;Node37</title>
<path fill="none" stroke="#9a32cd" stroke-dasharray="5,2" d="M439.3,-105.93C441.76,-109.79 448.33,-112.5 459,-112.5 478.51,-112.5 484.3,-103.44 476.38,-94.87"/>
<polygon fill="#9a32cd" stroke="#9a32cd" points="442.68,-106.86 441.31,-96.35 435.83,-105.42 442.68,-106.86"/>
<text text-anchor="middle" x="459" y="-115.5" font-family="Roboto" font-size="10.00"> EMPTY</text>
</g>
<!-- Node37&#45;&gt;Node51 -->
<g id="edge35" class="edge">
<title>Node37&#45;&gt;Node51</title>
<path fill="none" stroke="#9a32cd" stroke-dasharray="5,2" d="M510.65,-74.22C567.97,-62.99 664.25,-47 748,-47 748,-47 748,-47 1719.5,-47 1811.27,-47 1889.96,-147.86 1912.82,-180.17"/>
<polygon fill="#9a32cd" stroke="#9a32cd" points="509.99,-70.79 500.87,-76.18 511.36,-77.65 509.99,-70.79"/>
<text text-anchor="middle" x="1328.5" y="-83" font-family="Roboto" font-size="10.00"> compilerOutput_</text>
<text text-anchor="middle" x="1328.5" y="-72" font-family="Roboto" font-size="10.00">definesClipPlane_</text>
<text text-anchor="middle" x="1328.5" y="-61" font-family="Roboto" font-size="10.00">defines_</text>
<text text-anchor="middle" x="1328.5" y="-50" font-family="Roboto" font-size="10.00">name_</text>
</g>
<!-- Node38&#45;&gt;Node6 -->
<g id="edge24" class="edge">
<title>Node38&#45;&gt;Node6</title>
<path fill="none" stroke="#9a32cd" stroke-dasharray="5,2" d="M974.48,-228.17C976.67,-227.77 978.85,-227.38 981,-227 1055.67,-213.94 1074.63,-212.09 1150,-204 1194.72,-199.2 1245.94,-195.33 1281.83,-192.89"/>
<polygon fill="#9a32cd" stroke="#9a32cd" points="974.05,-224.69 964.88,-230 975.36,-231.57 974.05,-224.69"/>
<text text-anchor="middle" x="1056.5" y="-230" font-family="Roboto" font-size="10.00"> windowIcon_</text>
</g>
<!-- Node43 -->
<g id="node18" class="node">
<title>Node43</title>
<g id="a_node18"><a xlink:href="struct_urho3_d_1_1_window_mode_params.html" target="_top" xlink:title="Window mode parameters.">
<polygon fill="#fff0f0" stroke="red" points="1132,-265.5 981,-265.5 981,-246.5 1132,-246.5 1132,-265.5"/>
<text text-anchor="middle" x="1056.5" y="-253.5" font-family="Roboto" font-size="10.00">Urho3D::WindowModeParams</text>
</a>
</g>
</g>
<!-- Node43&#45;&gt;Node6 -->
<g id="edge26" class="edge">
<title>Node43&#45;&gt;Node6</title>
<path fill="none" stroke="#9a32cd" stroke-dasharray="5,2" d="M1101.46,-242.7C1111.56,-239.4 1122.21,-235.74 1132,-232 1140.18,-228.88 1141.65,-226.62 1150,-224 1162.43,-220.11 1233.37,-206.97 1281.72,-198.21"/>
<polygon fill="#9a32cd" stroke="#9a32cd" points="1100.67,-239.27 1092.21,-245.65 1102.8,-245.94 1100.67,-239.27"/>
<text text-anchor="middle" x="1207" y="-238" font-family="Roboto" font-size="10.00"> primaryWindowMode_</text>
<text text-anchor="middle" x="1207" y="-227" font-family="Roboto" font-size="10.00">secondaryWindowMode_</text>
</g>
<!-- Node51&#45;&gt;Node6 -->
<g id="edge27" class="edge">
<title>Node51&#45;&gt;Node6</title>
<path fill="none" stroke="#9a32cd" stroke-dasharray="5,2" d="M1858.21,-178.29C1852.07,-177.39 1845.93,-176.6 1840,-176 1799.37,-171.86 1504.19,-159.98 1430,-168 1408.51,-170.32 1384.89,-175.37 1365.94,-180.04"/>
<polygon fill="#9a32cd" stroke="#9a32cd" points="1857.27,-181.69 1867.69,-179.77 1858.35,-174.77 1857.27,-181.69"/>
<text text-anchor="middle" x="1614" y="-182" font-family="Roboto" font-size="10.00"> pixelShader_</text>
<text text-anchor="middle" x="1614" y="-171" font-family="Roboto" font-size="10.00">vertexShader_</text>
</g>
<!-- Node51&#45;&gt;Node77 -->
<g id="edge40" class="edge">
<title>Node51&#45;&gt;Node77</title>
<path fill="none" stroke="#9a32cd" stroke-dasharray="5,2" d="M1994.53,-190C2008.76,-190 2023.59,-190 2037.59,-190"/>
<polygon fill="#9a32cd" stroke="#9a32cd" points="1994.8,-186.5 1984.8,-190 1994.8,-193.5 1994.8,-186.5"/>
<text text-anchor="middle" x="2010.5" y="-193" font-family="Roboto" font-size="10.00"> ptr_</text>
</g>
<!-- Node52&#45;&gt;Node6 -->
<g id="edge36" class="edge">
<title>Node52&#45;&gt;Node6</title>
<path fill="none" stroke="#9a32cd" stroke-dasharray="5,2" d="M1135.09,-124.14C1174.75,-124.6 1223.14,-128.99 1264,-144 1285.47,-151.89 1306.11,-169.23 1317.76,-180.23"/>
<polygon fill="#9a32cd" stroke="#9a32cd" points="1135.14,-120.64 1125.13,-124.11 1135.12,-127.64 1135.14,-120.64"/>
<text text-anchor="middle" x="1207" y="-147" font-family="Roboto" font-size="10.00"> lastShader_</text>
</g>
<!-- Node52&#45;&gt;Node51 -->
<g id="edge30" class="edge">
<title>Node52&#45;&gt;Node51</title>
<path fill="none" stroke="#9a32cd" stroke-dasharray="5,2" d="M1134.86,-121.01C1173.67,-118.61 1221.39,-117.34 1264,-121 1406.91,-133.27 1439.38,-160.77 1582,-176 1677.92,-186.24 1789.93,-189.1 1857.74,-189.84"/>
<polygon fill="#9a32cd" stroke="#9a32cd" points="1134.89,-117.5 1125.14,-121.65 1135.35,-124.48 1134.89,-117.5"/>
<text text-anchor="middle" x="1497" y="-177" font-family="Roboto" font-size="10.00"> owner_</text>
</g>
<!-- Node55&#45;&gt;Node1 -->
<g id="edge42" class="edge">
<title>Node55&#45;&gt;Node1</title>
<path fill="none" stroke="#9a32cd" stroke-dasharray="5,2" d="M538.56,-529.72C596.92,-511.69 673.49,-488.02 716.02,-474.88"/>
<polygon fill="#9a32cd" stroke="#9a32cd" points="537.85,-526.28 529.33,-532.57 539.92,-532.97 537.85,-526.28"/>
<text text-anchor="middle" x="608" y="-528" font-family="Roboto" font-size="10.00"> shaderParameters_</text>
</g>
<!-- Node55&#45;&gt;Node51 -->
<g id="edge32" class="edge">
<title>Node55&#45;&gt;Node51</title>
<path fill="none" stroke="#9a32cd" stroke-dasharray="5,2" d="M539.05,-577.85C596.47,-593.09 676.34,-610 748,-610 748,-610 748,-610 1403.5,-610 1475.84,-610 1499.86,-616.44 1564,-583 1719.23,-502.08 1727.65,-436.24 1840,-302 1869.84,-266.34 1900.35,-220.02 1913.19,-199.97"/>
<polygon fill="#9a32cd" stroke="#9a32cd" points="540.26,-574.55 529.69,-575.33 538.44,-581.31 540.26,-574.55"/>
<text text-anchor="middle" x="1328.5" y="-613" font-family="Roboto" font-size="10.00"> parameters_</text>
</g>
<!-- Node56 -->
<g id="node22" class="node">
<title>Node56</title>
<g id="a_node22"><a xlink:href="class_urho3_d_1_1_p_o_d_vector.html" target="_top" xlink:title=" ">
<polygon fill="white" stroke="orangered" points="1773,-116 1664,-116 1664,-86 1773,-86 1773,-116"/>
<text text-anchor="start" x="1672" y="-104" font-family="Roboto" font-size="10.00">Urho3D::PODVector&lt;</text>
<text text-anchor="middle" x="1718.5" y="-93" font-family="Roboto" font-size="10.00"> unsigned char &gt;</text>
</a>
</g>
</g>
<!-- Node56&#45;&gt;Node51 -->
<g id="edge34" class="edge">
<title>Node56&#45;&gt;Node51</title>
<path fill="none" stroke="#9a32cd" stroke-dasharray="5,2" d="M1784.66,-103.78C1803.19,-106.39 1822.95,-111 1840,-119 1870.99,-133.54 1898.71,-164.14 1911.7,-180"/>
<polygon fill="#9a32cd" stroke="#9a32cd" points="1785.17,-100.31 1774.82,-102.58 1784.33,-107.26 1785.17,-100.31"/>
<text text-anchor="middle" x="1815.5" y="-122" font-family="Roboto" font-size="10.00"> byteCode_</text>
</g>
<!-- Node76 -->
<g id="node23" class="node">
<title>Node76</title>
<g id="a_node23"><a xlink:href="union_urho3_d_1_1_g_p_u_object_handle.html" target="_top" xlink:title="API&#45;specific GPU object representation.">
<polygon fill="white" stroke="#666666" points="1564,-353.5 1430,-353.5 1430,-334.5 1564,-334.5 1564,-353.5"/>
<text text-anchor="middle" x="1497" y="-341.5" font-family="Roboto" font-size="10.00">Urho3D::GPUObjectHandle</text>
</a>
</g>
</g>
<!-- Node76&#45;&gt;Node4 -->
<g id="edge38" class="edge">
<title>Node76&#45;&gt;Node4</title>
<path fill="none" stroke="#9a32cd" stroke-dasharray="5,2" d="M1575.91,-344C1606.3,-344 1640.27,-344 1667.31,-344"/>
<polygon fill="#9a32cd" stroke="#9a32cd" points="1575.97,-340.5 1565.97,-344 1575.97,-347.5 1575.97,-340.5"/>
<text text-anchor="middle" x="1614" y="-347" font-family="Roboto" font-size="10.00"> object_</text>
</g>
<!-- Node77&#45;&gt;Node1 -->
<g id="edge39" class="edge">
<title>Node77&#45;&gt;Node1</title>
<path fill="none" stroke="#9a32cd" stroke-dasharray="5,2" d="M2077.43,-212.26C1996.29,-277.87 1742.34,-466 1498,-466 1055.5,-466 1055.5,-466 1055.5,-466 970.9,-466 873.13,-465.61 811.44,-465.32"/>
<polygon fill="#9a32cd" stroke="#9a32cd" points="2079.33,-215.23 2084.86,-206.19 2074.9,-209.8 2079.33,-215.23"/>
<text text-anchor="middle" x="1497" y="-480" font-family="Roboto" font-size="10.00"> pixelShader_</text>
<text text-anchor="middle" x="1497" y="-469" font-family="Roboto" font-size="10.00">vertexShader_</text>
</g>
<!-- Node78&#45;&gt;Node1 -->
<g id="edge44" class="edge">
<title>Node78&#45;&gt;Node1</title>
<path fill="none" stroke="#9a32cd" stroke-dasharray="5,2" d="M2027.76,-575.08C1964.37,-575.71 1871.8,-576.04 1791,-574 1430.65,-564.89 1339.98,-565.65 981,-533 913.14,-526.83 893.27,-535.62 829,-513 803.57,-504.05 777.49,-486.17 762.57,-474.94"/>
<polygon fill="#9a32cd" stroke="#9a32cd" points="2027.77,-578.58 2037.73,-574.97 2027.7,-571.58 2027.77,-578.58"/>
<text text-anchor="middle" x="1497" y="-571" font-family="Roboto" font-size="10.00"> constantBuffers_</text>
</g>
</g>
</svg>
