<?xml version="1.0" encoding="UTF-8" standalone="no"?>
<!DOCTYPE svg PUBLIC "-//W3C//DTD SVG 1.1//EN"
 "http://www.w3.org/Graphics/SVG/1.1/DTD/svg11.dtd">
<!-- Generated by graphviz version 7.0.3 (0)
 -->
<!-- Title: Urho3D::FileSelector Pages: 1 -->
<svg width="876pt" height="1067pt"
 viewBox="0.00 0.00 876.00 1067.06" xmlns="http://www.w3.org/2000/svg" xmlns:xlink="http://www.w3.org/1999/xlink">
<g id="graph0" class="graph" transform="scale(1 1) rotate(0) translate(4 1063.06)">
<title>Urho3D::FileSelector</title>
<!-- Node1 -->
<g id="node1" class="node">
<title>Node1</title>
<g id="a_node1"><a xlink:title="File selector dialog.">
<polygon fill="#999999" stroke="#666666" points="868,-283.5 761,-283.5 761,-264.5 868,-264.5 868,-283.5"/>
<text text-anchor="middle" x="814.5" y="-271.5" font-family="Roboto" font-size="10.00">Urho3D::FileSelector</text>
</a>
</g>
</g>
<!-- Node2 -->
<g id="node2" class="node">
<title>Node2</title>
<g id="a_node2"><a xlink:href="class_urho3_d_1_1_object.html" target="_top" xlink:title=" ">
<polygon fill="white" stroke="#666666" points="653,-892.5 570,-892.5 570,-873.5 653,-873.5 653,-892.5"/>
<text text-anchor="middle" x="611.5" y="-880.5" font-family="Roboto" font-size="10.00">Urho3D::Object</text>
</a>
</g>
</g>
<!-- Node2&#45;&gt;Node1 -->
<g id="edge1" class="edge">
<title>Node2&#45;&gt;Node1</title>
<path fill="none" stroke="#63b8ff" d="M622.35,-863.09C645.95,-814.76 706.47,-686.93 743,-575 779.55,-463 805.25,-321.78 811.84,-283.78"/>
<polygon fill="#63b8ff" stroke="#63b8ff" points="619.35,-861.26 618.08,-871.78 625.63,-864.34 619.35,-861.26"/>
</g>
<!-- Node3 -->
<g id="node3" class="node">
<title>Node3</title>
<g id="a_node3"><a xlink:href="class_urho3_d_1_1_ref_counted.html" target="_top" xlink:title="Base class for intrusively reference&#45;counted objects. These are noncopyable and non&#45;assignable.">
<polygon fill="#fff0f0" stroke="red" points="139.5,-1018.5 32.5,-1018.5 32.5,-999.5 139.5,-999.5 139.5,-1018.5"/>
<text text-anchor="middle" x="86" y="-1006.5" font-family="Roboto" font-size="10.00">Urho3D::RefCounted</text>
</a>
</g>
</g>
<!-- Node3&#45;&gt;Node2 -->
<g id="edge2" class="edge">
<title>Node3&#45;&gt;Node2</title>
<path fill="none" stroke="#63b8ff" d="M125.61,-1022.48C210.56,-1049.44 415.25,-1099.13 531,-998 565.01,-968.29 518.06,-930.89 549,-898 554.5,-892.16 561.86,-888.43 569.58,-886.08"/>
<polygon fill="#63b8ff" stroke="#63b8ff" points="126.71,-1019.16 116.12,-1019.4 124.55,-1025.82 126.71,-1019.16"/>
</g>
<!-- Node5 -->
<g id="node4" class="node">
<title>Node5</title>
<g id="a_node4"><a xlink:href="class_urho3_d_1_1_context.html" target="_top" xlink:title="Urho3D execution context. Provides access to subsystems, object factories and attributes,...">
<polygon fill="#fff0f0" stroke="red" points="404.5,-883.5 315.5,-883.5 315.5,-864.5 404.5,-864.5 404.5,-883.5"/>
<text text-anchor="middle" x="360" y="-871.5" font-family="Roboto" font-size="10.00">Urho3D::Context</text>
</a>
</g>
</g>
<!-- Node3&#45;&gt;Node5 -->
<g id="edge4" class="edge">
<title>Node3&#45;&gt;Node5</title>
<path fill="none" stroke="#63b8ff" d="M135.03,-996.12C188.13,-981.49 267.59,-958.33 278,-948 296.25,-929.88 277.6,-910.97 296,-893 301.39,-887.73 308.19,-883.92 315.32,-881.16"/>
<polygon fill="#63b8ff" stroke="#63b8ff" points="134.31,-992.68 125.59,-998.7 136.16,-999.44 134.31,-992.68"/>
</g>
<!-- Node5&#45;&gt;Node2 -->
<g id="edge3" class="edge">
<title>Node5&#45;&gt;Node2</title>
<path fill="none" stroke="#9a32cd" stroke-dasharray="5,2" d="M416.11,-875.99C462.53,-877.66 527.87,-880.02 569.7,-881.53"/>
<polygon fill="#9a32cd" stroke="#9a32cd" points="416.38,-872.5 406.26,-875.63 416.12,-879.49 416.38,-872.5"/>
<text text-anchor="middle" x="486.5" y="-883" font-family="Roboto" font-size="10.00"> context_</text>
</g>
<!-- Node22 -->
<g id="node5" class="node">
<title>Node22</title>
<g id="a_node5"><a xlink:href="class_urho3_d_1_1_hash_map.html" target="_top" xlink:title=" ">
<polygon fill="white" stroke="orangered" points="164,-826 8,-826 8,-796 164,-796 164,-826"/>
<text text-anchor="start" x="16" y="-814" font-family="Roboto" font-size="10.00">Urho3D::HashMap&lt; StringHash,</text>
<text text-anchor="middle" x="86" y="-803" font-family="Roboto" font-size="10.00"> Variant &gt;</text>
</a>
</g>
</g>
<!-- Node22&#45;&gt;Node5 -->
<g id="edge5" class="edge">
<title>Node22&#45;&gt;Node5</title>
<path fill="none" stroke="#9a32cd" stroke-dasharray="5,2" d="M143.28,-829.82C158.35,-834.49 174.71,-839.24 190,-843 232.14,-853.37 280.98,-861.97 315.28,-867.46"/>
<polygon fill="#9a32cd" stroke="#9a32cd" points="144.59,-826.56 134,-826.9 142.49,-833.24 144.59,-826.56"/>
<text text-anchor="middle" x="234" y="-864" font-family="Roboto" font-size="10.00"> globalVars_</text>
</g>
<!-- Node27 -->
<g id="node12" class="node">
<title>Node27</title>
<g id="a_node12"><a xlink:href="class_urho3_d_1_1_u_i_element.html" target="_top" xlink:title="Base class for UI elements.">
<polygon fill="#fff0f0" stroke="red" points="410.5,-357.5 309.5,-357.5 309.5,-338.5 410.5,-338.5 410.5,-357.5"/>
<text text-anchor="middle" x="360" y="-345.5" font-family="Roboto" font-size="10.00">Urho3D::UIElement</text>
</a>
</g>
</g>
<!-- Node22&#45;&gt;Node27 -->
<g id="edge23" class="edge">
<title>Node22&#45;&gt;Node27</title>
<path fill="none" stroke="#9a32cd" stroke-dasharray="5,2" d="M133.61,-790.21C148.37,-781.24 163.14,-769.25 172,-754 199.65,-706.42 154.8,-549.31 190,-507 215.85,-475.92 245.69,-508.29 278,-484 323.25,-449.98 348.13,-382.65 356.12,-357.64"/>
<polygon fill="#9a32cd" stroke="#9a32cd" points="132.26,-786.95 125.29,-794.93 135.71,-793.04 132.26,-786.95"/>
<text text-anchor="middle" x="234" y="-510" font-family="Roboto" font-size="10.00"> vars_</text>
</g>
<!-- Node23 -->
<g id="node6" class="node">
<title>Node23</title>
<g id="a_node6"><a xlink:href="class_urho3_d_1_1_linked_list.html" target="_top" xlink:title=" ">
<polygon fill="white" stroke="orangered" points="424,-932 296,-932 296,-902 424,-902 424,-932"/>
<text text-anchor="start" x="304" y="-920" font-family="Roboto" font-size="10.00">Urho3D::LinkedList</text>
<text text-anchor="middle" x="360" y="-909" font-family="Roboto" font-size="10.00">&lt; Urho3D::EventHandler &gt;</text>
</a>
</g>
</g>
<!-- Node23&#45;&gt;Node2 -->
<g id="edge6" class="edge">
<title>Node23&#45;&gt;Node2</title>
<path fill="none" stroke="#9a32cd" stroke-dasharray="5,2" d="M435.55,-907.7C465.27,-903.9 499.77,-899.38 531,-895 543.58,-893.24 557.26,-891.21 569.67,-889.33"/>
<polygon fill="#9a32cd" stroke="#9a32cd" points="435.39,-904.19 425.92,-908.92 436.28,-911.13 435.39,-904.19"/>
<text text-anchor="middle" x="486.5" y="-909" font-family="Roboto" font-size="10.00"> eventHandlers_</text>
</g>
<!-- Node24 -->
<g id="node7" class="node">
<title>Node24</title>
<g id="a_node7"><a xlink:href="class_urho3_d_1_1_shared_ptr.html" target="_top" xlink:title=" ">
<polygon fill="white" stroke="#666666" points="663.5,-641 559.5,-641 559.5,-611 663.5,-611 663.5,-641"/>
<text text-anchor="start" x="567.5" y="-629" font-family="Roboto" font-size="10.00">Urho3D::SharedPtr&lt;</text>
<text text-anchor="middle" x="611.5" y="-618" font-family="Roboto" font-size="10.00"> Urho3D::Window &gt;</text>
</a>
</g>
</g>
<!-- Node24&#45;&gt;Node1 -->
<g id="edge7" class="edge">
<title>Node24&#45;&gt;Node1</title>
<path fill="none" stroke="#9a32cd" stroke-dasharray="5,2" d="M642.77,-603.87C672.31,-580.79 716.55,-542.01 743,-499 789.1,-424.03 807.49,-316.29 812.2,-283.7"/>
<polygon fill="#9a32cd" stroke="#9a32cd" points="640.74,-601.01 634.94,-609.88 645,-606.57 640.74,-601.01"/>
<text text-anchor="middle" x="717.5" y="-563" font-family="Roboto" font-size="10.00"> window_</text>
</g>
<!-- Node25 -->
<g id="node8" class="node">
<title>Node25</title>
<g id="a_node8"><a xlink:href="class_urho3_d_1_1_window.html" target="_top" xlink:title="Window UI element that can optionally by moved or resized.">
<polygon fill="#fff0f0" stroke="red" points="405.5,-778.5 314.5,-778.5 314.5,-759.5 405.5,-759.5 405.5,-778.5"/>
<text text-anchor="middle" x="360" y="-766.5" font-family="Roboto" font-size="10.00">Urho3D::Window</text>
</a>
</g>
</g>
<!-- Node25&#45;&gt;Node24 -->
<g id="edge8" class="edge">
<title>Node25&#45;&gt;Node24</title>
<path fill="none" stroke="#9a32cd" stroke-dasharray="5,2" d="M388.13,-753.45C436.24,-725.88 535.89,-668.76 583.73,-641.34"/>
<polygon fill="#9a32cd" stroke="#9a32cd" points="386.4,-750.41 379.46,-758.42 389.88,-756.48 386.4,-750.41"/>
<text text-anchor="middle" x="486.5" y="-721" font-family="Roboto" font-size="10.00"> ptr_</text>
</g>
<!-- Node46 -->
<g id="node9" class="node">
<title>Node46</title>
<g id="a_node9"><a xlink:href="class_urho3_d_1_1_int_rect.html" target="_top" xlink:title="Two&#45;dimensional bounding rectangle with integer values.">
<polygon fill="white" stroke="#666666" points="129,-502.5 43,-502.5 43,-483.5 129,-483.5 129,-502.5"/>
<text text-anchor="middle" x="86" y="-490.5" font-family="Roboto" font-size="10.00">Urho3D::IntRect</text>
</a>
</g>
</g>
<!-- Node46&#45;&gt;Node25 -->
<g id="edge9" class="edge">
<title>Node46&#45;&gt;Node25</title>
<path fill="none" stroke="#9a32cd" stroke-dasharray="5,2" d="M114.45,-509.02C134,-522.01 159.02,-542.2 172,-567 188.9,-599.29 165.78,-702.77 190,-730 191.06,-731.19 264.8,-747.9 314.52,-759.06"/>
<polygon fill="#9a32cd" stroke="#9a32cd" points="116.42,-506.12 106.1,-503.71 112.66,-512.03 116.42,-506.12"/>
<text text-anchor="middle" x="234" y="-753" font-family="Roboto" font-size="10.00"> resizeBorder_</text>
</g>
<!-- Node46&#45;&gt;Node46 -->
<g id="edge10" class="edge">
<title>Node46&#45;&gt;Node46</title>
<path fill="none" stroke="#9a32cd" stroke-dasharray="5,2" d="M59.73,-513.93C63.02,-517.79 71.77,-520.5 86,-520.5 112.02,-520.5 119.74,-511.44 109.17,-502.87"/>
<polygon fill="#9a32cd" stroke="#9a32cd" points="63.09,-514.9 62.42,-504.33 56.35,-513.01 63.09,-514.9"/>
<text text-anchor="middle" x="86" y="-523.5" font-family="Roboto" font-size="10.00"> ZERO</text>
</g>
<!-- Node46&#45;&gt;Node27 -->
<g id="edge21" class="edge">
<title>Node46&#45;&gt;Node27</title>
<path fill="none" stroke="#9a32cd" stroke-dasharray="5,2" d="M123.68,-478.45C139.8,-470.79 158.17,-460.23 172,-447 183.24,-436.25 177.56,-426.32 190,-417 222.35,-392.76 240.55,-409.22 278,-394 302.42,-384.07 328.58,-368.14 344.37,-357.87"/>
<polygon fill="#9a32cd" stroke="#9a32cd" points="122.53,-475.13 114.85,-482.44 125.41,-481.51 122.53,-475.13"/>
<text text-anchor="middle" x="234" y="-431" font-family="Roboto" font-size="10.00"> clipBorder_</text>
<text text-anchor="middle" x="234" y="-420" font-family="Roboto" font-size="10.00">layoutBorder_</text>
</g>
<!-- Node50 -->
<g id="node10" class="node">
<title>Node50</title>
<g id="a_node10"><a xlink:href="class_urho3_d_1_1_int_vector2.html" target="_top" xlink:title="Two&#45;dimensional vector with integer values.">
<polygon fill="white" stroke="#666666" points="136.5,-868.5 35.5,-868.5 35.5,-849.5 136.5,-849.5 136.5,-868.5"/>
<text text-anchor="middle" x="86" y="-856.5" font-family="Roboto" font-size="10.00">Urho3D::IntVector2</text>
</a>
</g>
</g>
<!-- Node50&#45;&gt;Node25 -->
<g id="edge11" class="edge">
<title>Node50&#45;&gt;Node25</title>
<path fill="none" stroke="#9a32cd" stroke-dasharray="5,2" d="M122.21,-872.73C162.17,-885.99 228.24,-900.74 278,-876 283.4,-873.32 333.03,-805.01 351.83,-778.96"/>
<polygon fill="#9a32cd" stroke="#9a32cd" points="123.45,-869.46 112.86,-869.47 121.15,-876.07 123.45,-869.46"/>
<text text-anchor="middle" x="234" y="-936" font-family="Roboto" font-size="10.00"> dragBeginCursor_</text>
<text text-anchor="start" x="193" y="-925" font-family="Roboto" font-size="10.00">dragBeginPosition</text>
<text text-anchor="middle" x="234" y="-914" font-family="Roboto" font-size="10.00">_</text>
<text text-anchor="middle" x="234" y="-903" font-family="Roboto" font-size="10.00">dragBeginSize_</text>
<text text-anchor="middle" x="234" y="-892" font-family="Roboto" font-size="10.00">modalFrameSize_</text>
</g>
<!-- Node50&#45;&gt;Node50 -->
<g id="edge12" class="edge">
<title>Node50&#45;&gt;Node50</title>
<path fill="none" stroke="#9a32cd" stroke-dasharray="5,2" d="M59.73,-879.93C63.02,-883.79 71.77,-886.5 86,-886.5 112.02,-886.5 119.74,-877.44 109.17,-868.87"/>
<polygon fill="#9a32cd" stroke="#9a32cd" points="63.09,-880.9 62.42,-870.33 56.35,-879.01 63.09,-880.9"/>
<text text-anchor="middle" x="86" y="-944.5" font-family="Roboto" font-size="10.00"> DOWN</text>
<text text-anchor="middle" x="86" y="-933.5" font-family="Roboto" font-size="10.00">LEFT</text>
<text text-anchor="middle" x="86" y="-922.5" font-family="Roboto" font-size="10.00">ONE</text>
<text text-anchor="middle" x="86" y="-911.5" font-family="Roboto" font-size="10.00">RIGHT</text>
<text text-anchor="middle" x="86" y="-900.5" font-family="Roboto" font-size="10.00">UP</text>
<text text-anchor="middle" x="86" y="-889.5" font-family="Roboto" font-size="10.00">ZERO</text>
</g>
<!-- Node50&#45;&gt;Node27 -->
<g id="edge26" class="edge">
<title>Node50&#45;&gt;Node27</title>
<path fill="none" stroke="#9a32cd" stroke-dasharray="5,2" d="M147.6,-851.77C156.96,-848.09 165.63,-842.74 172,-835 203.04,-797.3 158.99,-653.72 190,-616 215.82,-584.59 248.61,-619.1 278,-591 282.51,-586.69 341.4,-403.06 355.83,-357.94"/>
<polygon fill="#9a32cd" stroke="#9a32cd" points="146.69,-848.39 138.25,-854.79 148.84,-855.05 146.69,-848.39"/>
<text text-anchor="middle" x="234" y="-718" font-family="Roboto" font-size="10.00"> childOffset_</text>
<text text-anchor="middle" x="234" y="-707" font-family="Roboto" font-size="10.00">layoutMinSize_</text>
<text text-anchor="middle" x="234" y="-696" font-family="Roboto" font-size="10.00">maxOffset_</text>
<text text-anchor="middle" x="234" y="-685" font-family="Roboto" font-size="10.00">maxSize_</text>
<text text-anchor="middle" x="234" y="-674" font-family="Roboto" font-size="10.00">minOffset_</text>
<text text-anchor="middle" x="234" y="-663" font-family="Roboto" font-size="10.00">minSize_</text>
<text text-anchor="middle" x="234" y="-652" font-family="Roboto" font-size="10.00">position_</text>
<text text-anchor="start" x="200.5" y="-641" font-family="Roboto" font-size="10.00">screenPosition</text>
<text text-anchor="middle" x="234" y="-630" font-family="Roboto" font-size="10.00">_</text>
<text text-anchor="middle" x="234" y="-619" font-family="Roboto" font-size="10.00">size_</text>
</g>
<!-- Node157 -->
<g id="node19" class="node">
<title>Node157</title>
<g id="a_node19"><a xlink:href="class_urho3_d_1_1_text.html" target="_top" xlink:title="Text UI element.">
<polygon fill="#fff0f0" stroke="red" points="397,-572.5 323,-572.5 323,-553.5 397,-553.5 397,-572.5"/>
<text text-anchor="middle" x="360" y="-560.5" font-family="Roboto" font-size="10.00">Urho3D::Text</text>
</a>
</g>
</g>
<!-- Node50&#45;&gt;Node157 -->
<g id="edge31" class="edge">
<title>Node50&#45;&gt;Node157</title>
<path fill="none" stroke="#9a32cd" stroke-dasharray="5,2" d="M132.92,-846C157.6,-839.03 184.15,-831.55 190,-830 228.96,-819.65 248.64,-835.63 278,-808 297.35,-789.8 287.78,-776.26 296,-751 318.26,-682.59 346.17,-600.57 355.66,-572.77"/>
<polygon fill="#9a32cd" stroke="#9a32cd" points="132.29,-842.54 123.62,-848.63 134.19,-849.28 132.29,-842.54"/>
<text text-anchor="middle" x="234" y="-833" font-family="Roboto" font-size="10.00"> shadowOffset_</text>
</g>
<!-- Node177 -->
<g id="node23" class="node">
<title>Node177</title>
<g id="a_node23"><a xlink:href="class_urho3_d_1_1_button.html" target="_top" xlink:title="Push button UI element.">
<polygon fill="#fff0f0" stroke="red" points="528,-988.5 445,-988.5 445,-969.5 528,-969.5 528,-988.5"/>
<text text-anchor="middle" x="486.5" y="-976.5" font-family="Roboto" font-size="10.00">Urho3D::Button</text>
</a>
</g>
</g>
<!-- Node50&#45;&gt;Node177 -->
<g id="edge38" class="edge">
<title>Node50&#45;&gt;Node177</title>
<path fill="none" stroke="#9a32cd" stroke-dasharray="5,2" d="M102.15,-877.64C120.5,-898.73 153.51,-932.2 190,-948 274.97,-984.79 386.06,-985.23 444.87,-982.2"/>
<polygon fill="#9a32cd" stroke="#9a32cd" points="104.9,-875.47 95.77,-870.08 99.55,-879.98 104.9,-875.47"/>
<text text-anchor="start" x="190" y="-997" font-family="Roboto" font-size="10.00"> pressedChildOffset</text>
<text text-anchor="middle" x="234" y="-986" font-family="Roboto" font-size="10.00">_</text>
<text text-anchor="middle" x="234" y="-975" font-family="Roboto" font-size="10.00">pressedOffset_</text>
</g>
<!-- Node47 -->
<g id="node11" class="node">
<title>Node47</title>
<g id="a_node11"><a xlink:href="class_urho3_d_1_1_color.html" target="_top" xlink:title="RGBA color.">
<polygon fill="#fff0f0" stroke="red" points="126,-594.5 46,-594.5 46,-575.5 126,-575.5 126,-594.5"/>
<text text-anchor="middle" x="86" y="-582.5" font-family="Roboto" font-size="10.00">Urho3D::Color</text>
</a>
</g>
</g>
<!-- Node47&#45;&gt;Node25 -->
<g id="edge13" class="edge">
<title>Node47&#45;&gt;Node25</title>
<path fill="none" stroke="#9a32cd" stroke-dasharray="5,2" d="M91.84,-605.67C102.2,-644.69 130.59,-728.46 190,-764 227.28,-786.3 277.94,-784.49 314.05,-778.99"/>
<polygon fill="#9a32cd" stroke="#9a32cd" points="95.28,-605.01 89.46,-596.16 88.49,-606.71 95.28,-605.01"/>
<text text-anchor="middle" x="234" y="-796" font-family="Roboto" font-size="10.00"> modalFrameColor_</text>
<text text-anchor="middle" x="234" y="-785" font-family="Roboto" font-size="10.00">modalShadeColor_</text>
</g>
<!-- Node47&#45;&gt;Node47 -->
<g id="edge14" class="edge">
<title>Node47&#45;&gt;Node47</title>
<path fill="none" stroke="#9a32cd" stroke-dasharray="5,2" d="M59.73,-605.93C63.02,-609.79 71.77,-612.5 86,-612.5 112.02,-612.5 119.74,-603.44 109.17,-594.87"/>
<polygon fill="#9a32cd" stroke="#9a32cd" points="63.09,-606.9 62.42,-596.33 56.35,-605.01 63.09,-606.9"/>
<text text-anchor="middle" x="86" y="-736.5" font-family="Roboto" font-size="10.00"> BLACK</text>
<text text-anchor="middle" x="86" y="-725.5" font-family="Roboto" font-size="10.00">BLUE</text>
<text text-anchor="middle" x="86" y="-714.5" font-family="Roboto" font-size="10.00">CYAN</text>
<text text-anchor="middle" x="86" y="-703.5" font-family="Roboto" font-size="10.00">GRAY</text>
<text text-anchor="middle" x="86" y="-692.5" font-family="Roboto" font-size="10.00">GREEN</text>
<text text-anchor="middle" x="86" y="-681.5" font-family="Roboto" font-size="10.00">MAGENTA</text>
<text text-anchor="middle" x="86" y="-670.5" font-family="Roboto" font-size="10.00">RED</text>
<text text-anchor="start" x="51" y="-659.5" font-family="Roboto" font-size="10.00">TRANSPARENT</text>
<text text-anchor="middle" x="86" y="-648.5" font-family="Roboto" font-size="10.00">_BLACK</text>
<text text-anchor="middle" x="86" y="-637.5" font-family="Roboto" font-size="10.00">WHITE</text>
<text text-anchor="middle" x="86" y="-626.5" font-family="Roboto" font-size="10.00">YELLOW</text>
<text text-anchor="middle" x="86" y="-615.5" font-family="Roboto" font-size="10.00">...</text>
</g>
<!-- Node47&#45;&gt;Node27 -->
<g id="edge22" class="edge">
<title>Node47&#45;&gt;Node27</title>
<path fill="none" stroke="#9a32cd" stroke-dasharray="5,2" d="M131.2,-570.85C146.16,-564.03 161.67,-554.35 172,-541 194.04,-512.52 164.94,-487.86 190,-462 218.13,-432.97 243.53,-460.11 278,-439 312.81,-417.68 341.17,-376.78 353.02,-357.95"/>
<polygon fill="#9a32cd" stroke="#9a32cd" points="130.27,-567.45 122.4,-574.55 132.98,-573.9 130.27,-567.45"/>
<text text-anchor="middle" x="234" y="-476" font-family="Roboto" font-size="10.00"> colors_</text>
<text text-anchor="middle" x="234" y="-465" font-family="Roboto" font-size="10.00">derivedColor_</text>
</g>
<!-- Node47&#45;&gt;Node157 -->
<g id="edge32" class="edge">
<title>Node47&#45;&gt;Node157</title>
<path fill="none" stroke="#9a32cd" stroke-dasharray="5,2" d="M137.6,-580.91C191.42,-576.55 275.22,-569.78 322.79,-565.93"/>
<polygon fill="#9a32cd" stroke="#9a32cd" points="137.45,-577.41 127.77,-581.7 138.02,-584.38 137.45,-577.41"/>
<text text-anchor="middle" x="234" y="-579" font-family="Roboto" font-size="10.00"> effectColor_</text>
</g>
<!-- Node27&#45;&gt;Node1 -->
<g id="edge15" class="edge">
<title>Node27&#45;&gt;Node1</title>
<path fill="none" stroke="#9a32cd" stroke-dasharray="5,2" d="M422.08,-339.65C497.65,-329.07 630.15,-309.7 743,-289 751.25,-287.49 760.01,-285.74 768.44,-283.98"/>
<polygon fill="#9a32cd" stroke="#9a32cd" points="421.82,-336.15 412.4,-341 422.79,-343.08 421.82,-336.15"/>
<text text-anchor="middle" x="611.5" y="-356" font-family="Roboto" font-size="10.00"> buttonLayout_</text>
<text text-anchor="middle" x="611.5" y="-345" font-family="Roboto" font-size="10.00">fileNameLayout_</text>
<text text-anchor="middle" x="611.5" y="-334" font-family="Roboto" font-size="10.00">separatorLayout_</text>
<text text-anchor="middle" x="611.5" y="-323" font-family="Roboto" font-size="10.00">titleLayout</text>
</g>
<!-- Node27&#45;&gt;Node27 -->
<g id="edge20" class="edge">
<title>Node27&#45;&gt;Node27</title>
<path fill="none" stroke="#9a32cd" stroke-dasharray="5,2" d="M337.64,-368.93C340.43,-372.79 347.89,-375.5 360,-375.5 382.15,-375.5 388.72,-366.44 379.73,-357.87"/>
<polygon fill="#9a32cd" stroke="#9a32cd" points="341.01,-369.88 339.92,-359.34 334.2,-368.26 341.01,-369.88"/>
<text text-anchor="middle" x="360" y="-378.5" font-family="Roboto" font-size="10.00"> parent_</text>
</g>
<!-- Node28 -->
<g id="node13" class="node">
<title>Node28</title>
<g id="a_node13"><a xlink:href="class_urho3_d_1_1_animatable.html" target="_top" xlink:title="Base class for animatable object, an animatable object can be set animation on it&#39;s attributes,...">
<polygon fill="#fff0f0" stroke="red" points="138,-341.5 34,-341.5 34,-322.5 138,-322.5 138,-341.5"/>
<text text-anchor="middle" x="86" y="-329.5" font-family="Roboto" font-size="10.00">Urho3D::Animatable</text>
</a>
</g>
</g>
<!-- Node28&#45;&gt;Node27 -->
<g id="edge16" class="edge">
<title>Node28&#45;&gt;Node27</title>
<path fill="none" stroke="#63b8ff" d="M149.49,-326.91C186.89,-324.89 235.31,-324.06 278,-329 293.5,-330.79 310.33,-334.45 324.62,-338.09"/>
<polygon fill="#63b8ff" stroke="#63b8ff" points="149.54,-323.41 139.76,-327.49 149.95,-330.39 149.54,-323.41"/>
</g>
<!-- Node40 -->
<g id="node14" class="node">
<title>Node40</title>
<g id="a_node14"><a xlink:href="class_urho3_d_1_1_string.html" target="_top" xlink:title="String class.">
<polygon fill="white" stroke="#666666" points="126,-105.5 46,-105.5 46,-86.5 126,-86.5 126,-105.5"/>
<text text-anchor="middle" x="86" y="-93.5" font-family="Roboto" font-size="10.00">Urho3D::String</text>
</a>
</g>
</g>
<!-- Node40&#45;&gt;Node1 -->
<g id="edge39" class="edge">
<title>Node40&#45;&gt;Node1</title>
<path fill="none" stroke="#9a32cd" stroke-dasharray="5,2" d="M137.24,-108.31C273.6,-141.72 648.73,-233.63 772.95,-264.07"/>
<polygon fill="#9a32cd" stroke="#9a32cd" points="138.33,-104.97 127.79,-105.99 136.67,-111.77 138.33,-104.97"/>
<text text-anchor="middle" x="486.5" y="-217" font-family="Roboto" font-size="10.00"> lastUsedFilter_</text>
<text text-anchor="middle" x="486.5" y="-206" font-family="Roboto" font-size="10.00">path_</text>
</g>
<!-- Node40&#45;&gt;Node27 -->
<g id="edge17" class="edge">
<title>Node40&#45;&gt;Node27</title>
<path fill="none" stroke="#9a32cd" stroke-dasharray="5,2" d="M116.2,-110.93C136.57,-121.02 164.56,-134.22 190,-144 228.19,-158.68 247.23,-144.03 278,-171 331.88,-218.22 352.07,-308.62 357.42,-338.3"/>
<polygon fill="#9a32cd" stroke="#9a32cd" points="117.88,-107.86 107.37,-106.51 114.75,-114.12 117.88,-107.86"/>
<text text-anchor="middle" x="234" y="-185" font-family="Roboto" font-size="10.00"> appliedStyle_</text>
<text text-anchor="middle" x="234" y="-174" font-family="Roboto" font-size="10.00">name_</text>
</g>
<!-- Node40&#45;&gt;Node40 -->
<g id="edge18" class="edge">
<title>Node40&#45;&gt;Node40</title>
<path fill="none" stroke="#9a32cd" stroke-dasharray="5,2" d="M59.73,-116.93C63.02,-120.79 71.77,-123.5 86,-123.5 112.02,-123.5 119.74,-114.44 109.17,-105.87"/>
<polygon fill="#9a32cd" stroke="#9a32cd" points="63.09,-117.9 62.42,-107.33 56.35,-116.01 63.09,-117.9"/>
<text text-anchor="middle" x="86" y="-126.5" font-family="Roboto" font-size="10.00"> EMPTY</text>
</g>
<!-- Node40&#45;&gt;Node157 -->
<g id="edge30" class="edge">
<title>Node40&#45;&gt;Node157</title>
<path fill="none" stroke="#9a32cd" stroke-dasharray="5,2" d="M130.72,-110.41C146.44,-117.89 162.59,-128.73 172,-144 193.83,-179.42 163.86,-485.63 190,-518 194.24,-523.26 274.29,-542.96 322.68,-554.48"/>
<polygon fill="#9a32cd" stroke="#9a32cd" points="132.49,-107.37 121.92,-106.58 129.69,-113.78 132.49,-107.37"/>
<text text-anchor="middle" x="234" y="-557" font-family="Roboto" font-size="10.00"> stringId_</text>
<text text-anchor="middle" x="234" y="-546" font-family="Roboto" font-size="10.00">text_</text>
</g>
<!-- Node181 -->
<g id="node21" class="node">
<title>Node181</title>
<g id="a_node21"><a xlink:href="class_urho3_d_1_1_line_edit.html" target="_top" xlink:title="Single&#45;line text editor UI element.">
<polygon fill="#fff0f0" stroke="red" points="531,-117.5 442,-117.5 442,-98.5 531,-98.5 531,-117.5"/>
<text text-anchor="middle" x="486.5" y="-105.5" font-family="Roboto" font-size="10.00">Urho3D::LineEdit</text>
</a>
</g>
</g>
<!-- Node40&#45;&gt;Node181 -->
<g id="edge35" class="edge">
<title>Node40&#45;&gt;Node181</title>
<path fill="none" stroke="#9a32cd" stroke-dasharray="5,2" d="M137.38,-97.52C216.15,-99.89 367.15,-104.44 441.68,-106.68"/>
<polygon fill="#9a32cd" stroke="#9a32cd" points="137.91,-94.03 127.81,-97.23 137.7,-101.03 137.91,-94.03"/>
<text text-anchor="middle" x="234" y="-104" font-family="Roboto" font-size="10.00"> line_</text>
</g>
<!-- Node45 -->
<g id="node15" class="node">
<title>Node45</title>
<g id="a_node15"><a xlink:href="class_urho3_d_1_1_vector.html" target="_top" xlink:title=" ">
<polygon fill="white" stroke="orangered" points="172,-304 0,-304 0,-274 172,-274 172,-304"/>
<text text-anchor="start" x="8" y="-292" font-family="Roboto" font-size="10.00">Urho3D::Vector&lt; Urho3D</text>
<text text-anchor="middle" x="86" y="-281" font-family="Roboto" font-size="10.00">::SharedPtr&lt; Urho3D::UIElement &gt; &gt;</text>
</a>
</g>
</g>
<!-- Node45&#45;&gt;Node27 -->
<g id="edge19" class="edge">
<title>Node45&#45;&gt;Node27</title>
<path fill="none" stroke="#9a32cd" stroke-dasharray="5,2" d="M183.43,-293.39C214.07,-296.43 247.83,-301.52 278,-310 301.33,-316.56 326.3,-329.23 342.26,-338.14"/>
<polygon fill="#9a32cd" stroke="#9a32cd" points="184.08,-289.94 173.8,-292.5 183.43,-296.91 184.08,-289.94"/>
<text text-anchor="middle" x="234" y="-313" font-family="Roboto" font-size="10.00"> children_</text>
</g>
<!-- Node49 -->
<g id="node16" class="node">
<title>Node49</title>
<g id="a_node16"><a xlink:href="class_urho3_d_1_1_vector2.html" target="_top" xlink:title="Two&#45;dimensional vector.">
<polygon fill="white" stroke="#666666" points="130.5,-171.5 41.5,-171.5 41.5,-152.5 130.5,-152.5 130.5,-171.5"/>
<text text-anchor="middle" x="86" y="-159.5" font-family="Roboto" font-size="10.00">Urho3D::Vector2</text>
</a>
</g>
</g>
<!-- Node49&#45;&gt;Node27 -->
<g id="edge24" class="edge">
<title>Node49&#45;&gt;Node27</title>
<path fill="none" stroke="#9a32cd" stroke-dasharray="5,2" d="M130.49,-175.39C179.17,-190.92 254.33,-216.75 278,-235 316.04,-264.34 343.88,-316.35 354.4,-338.05"/>
<polygon fill="#9a32cd" stroke="#9a32cd" points="131.66,-172.09 121.07,-172.41 129.55,-178.76 131.66,-172.09"/>
<text text-anchor="middle" x="234" y="-282" font-family="Roboto" font-size="10.00"> anchorMax_</text>
<text text-anchor="middle" x="234" y="-271" font-family="Roboto" font-size="10.00">anchorMin_</text>
<text text-anchor="start" x="199.5" y="-260" font-family="Roboto" font-size="10.00">layoutFlexScale</text>
<text text-anchor="middle" x="234" y="-249" font-family="Roboto" font-size="10.00">_</text>
<text text-anchor="middle" x="234" y="-238" font-family="Roboto" font-size="10.00">pivot_</text>
</g>
<!-- Node49&#45;&gt;Node49 -->
<g id="edge25" class="edge">
<title>Node49&#45;&gt;Node49</title>
<path fill="none" stroke="#9a32cd" stroke-dasharray="5,2" d="M59.73,-182.93C63.02,-186.79 71.77,-189.5 86,-189.5 112.02,-189.5 119.74,-180.44 109.17,-171.87"/>
<polygon fill="#9a32cd" stroke="#9a32cd" points="63.09,-183.9 62.42,-173.33 56.35,-182.01 63.09,-183.9"/>
<text text-anchor="middle" x="86" y="-247.5" font-family="Roboto" font-size="10.00"> DOWN</text>
<text text-anchor="middle" x="86" y="-236.5" font-family="Roboto" font-size="10.00">LEFT</text>
<text text-anchor="middle" x="86" y="-225.5" font-family="Roboto" font-size="10.00">ONE</text>
<text text-anchor="middle" x="86" y="-214.5" font-family="Roboto" font-size="10.00">RIGHT</text>
<text text-anchor="middle" x="86" y="-203.5" font-family="Roboto" font-size="10.00">UP</text>
<text text-anchor="middle" x="86" y="-192.5" font-family="Roboto" font-size="10.00">ZERO</text>
</g>
<!-- Node51 -->
<g id="node17" class="node">
<title>Node51</title>
<g id="a_node17"><a xlink:href="class_urho3_d_1_1_shared_ptr.html" target="_top" xlink:title=" ">
<polygon fill="white" stroke="orangered" points="138,-438 34,-438 34,-408 138,-408 138,-438"/>
<text text-anchor="start" x="42" y="-426" font-family="Roboto" font-size="10.00">Urho3D::SharedPtr&lt;</text>
<text text-anchor="middle" x="86" y="-415" font-family="Roboto" font-size="10.00"> Urho3D::XMLFile &gt;</text>
</a>
</g>
</g>
<!-- Node51&#45;&gt;Node27 -->
<g id="edge27" class="edge">
<title>Node51&#45;&gt;Node27</title>
<path fill="none" stroke="#9a32cd" stroke-dasharray="5,2" d="M149.16,-409.01C157.07,-406.21 164.88,-402.9 172,-399 181.39,-393.86 180.43,-387.8 190,-383 210.55,-372.68 267.22,-362.15 309.3,-355.38"/>
<polygon fill="#9a32cd" stroke="#9a32cd" points="148.23,-405.63 139.81,-412.06 150.4,-412.29 148.23,-405.63"/>
<text text-anchor="middle" x="234" y="-386" font-family="Roboto" font-size="10.00"> defaultStyle_</text>
</g>
<!-- Node54 -->
<g id="node18" class="node">
<title>Node54</title>
<g id="a_node18"><a xlink:href="class_urho3_d_1_1_weak_ptr.html" target="_top" xlink:title=" ">
<polygon fill="white" stroke="orangered" points="153,-390 19,-390 19,-360 153,-360 153,-390"/>
<text text-anchor="start" x="27" y="-378" font-family="Roboto" font-size="10.00">Urho3D::WeakPtr&lt; Urho3D</text>
<text text-anchor="middle" x="86" y="-367" font-family="Roboto" font-size="10.00">::XMLFile &gt;</text>
</a>
</g>
</g>
<!-- Node54&#45;&gt;Node27 -->
<g id="edge28" class="edge">
<title>Node54&#45;&gt;Node27</title>
<path fill="none" stroke="#9a32cd" stroke-dasharray="5,2" d="M149.15,-356.75C162.51,-353.55 176.64,-350.7 190,-349 229.88,-343.93 275.47,-344 309.25,-345.16"/>
<polygon fill="#9a32cd" stroke="#9a32cd" points="148.46,-353.31 139.61,-359.14 150.16,-360.1 148.46,-353.31"/>
<text text-anchor="middle" x="234" y="-352" font-family="Roboto" font-size="10.00"> appliedStyleFile_</text>
</g>
<!-- Node157&#45;&gt;Node1 -->
<g id="edge29" class="edge">
<title>Node157&#45;&gt;Node1</title>
<path fill="none" stroke="#9a32cd" stroke-dasharray="5,2" d="M387.22,-547.1C441.25,-514.25 568.73,-436.23 674,-368 720.32,-337.98 774.28,-301.05 799.35,-283.78"/>
<polygon fill="#9a32cd" stroke="#9a32cd" points="385.44,-544.08 378.72,-552.27 389.08,-550.07 385.44,-544.08"/>
<text text-anchor="middle" x="611.5" y="-471" font-family="Roboto" font-size="10.00"> cancelButtonText_</text>
<text text-anchor="middle" x="611.5" y="-460" font-family="Roboto" font-size="10.00">okButtonText_</text>
<text text-anchor="middle" x="611.5" y="-449" font-family="Roboto" font-size="10.00">titleText_</text>
</g>
<!-- Node171 -->
<g id="node20" class="node">
<title>Node171</title>
<g id="a_node20"><a xlink:href="class_urho3_d_1_1_list_view.html" target="_top" xlink:title="Scrollable list UI element.">
<polygon fill="#fff0f0" stroke="red" points="657.5,-283.5 565.5,-283.5 565.5,-264.5 657.5,-264.5 657.5,-283.5"/>
<text text-anchor="middle" x="611.5" y="-271.5" font-family="Roboto" font-size="10.00">Urho3D::ListView</text>
</a>
</g>
</g>
<!-- Node171&#45;&gt;Node1 -->
<g id="edge33" class="edge">
<title>Node171&#45;&gt;Node1</title>
<path fill="none" stroke="#9a32cd" stroke-dasharray="5,2" d="M669.36,-274C698.09,-274 732.73,-274 760.84,-274"/>
<polygon fill="#9a32cd" stroke="#9a32cd" points="669.37,-270.5 659.37,-274 669.37,-277.5 669.37,-270.5"/>
<text text-anchor="middle" x="717.5" y="-277" font-family="Roboto" font-size="10.00"> fileList_</text>
</g>
<!-- Node181&#45;&gt;Node1 -->
<g id="edge34" class="edge">
<title>Node181&#45;&gt;Node1</title>
<path fill="none" stroke="#9a32cd" stroke-dasharray="5,2" d="M542.81,-103.1C600.05,-101.19 688.57,-107.57 743,-157 778.11,-188.89 801.39,-242.36 809.9,-264.23"/>
<polygon fill="#9a32cd" stroke="#9a32cd" points="542.79,-99.6 532.95,-103.53 543.1,-106.59 542.79,-99.6"/>
<text text-anchor="middle" x="611.5" y="-131" font-family="Roboto" font-size="10.00"> fileNameEdit_</text>
<text text-anchor="middle" x="611.5" y="-120" font-family="Roboto" font-size="10.00">pathEdit_</text>
</g>
<!-- Node183 -->
<g id="node22" class="node">
<title>Node183</title>
<g id="a_node22"><a xlink:href="class_urho3_d_1_1_drop_down_list.html" target="_top" xlink:title="Menu UI element that displays a popup list view.">
<polygon fill="#fff0f0" stroke="red" points="670,-173.5 553,-173.5 553,-154.5 670,-154.5 670,-173.5"/>
<text text-anchor="middle" x="611.5" y="-161.5" font-family="Roboto" font-size="10.00">Urho3D::DropDownList</text>
</a>
</g>
</g>
<!-- Node183&#45;&gt;Node1 -->
<g id="edge36" class="edge">
<title>Node183&#45;&gt;Node1</title>
<path fill="none" stroke="#9a32cd" stroke-dasharray="5,2" d="M681.63,-160.3C702.48,-161.89 724.67,-166.49 743,-177 778.57,-197.41 801.15,-243.85 809.66,-264.17"/>
<polygon fill="#9a32cd" stroke="#9a32cd" points="681.9,-156.8 671.74,-159.78 681.54,-163.8 681.9,-156.8"/>
<text text-anchor="middle" x="717.5" y="-180" font-family="Roboto" font-size="10.00"> filterList_</text>
</g>
<!-- Node177&#45;&gt;Node1 -->
<g id="edge37" class="edge">
<title>Node177&#45;&gt;Node1</title>
<path fill="none" stroke="#9a32cd" stroke-dasharray="5,2" d="M539.61,-970.43C581.66,-960.83 639.32,-941.16 674,-902 761.19,-803.55 806.02,-354.78 812.64,-283.54"/>
<polygon fill="#9a32cd" stroke="#9a32cd" points="538.99,-966.98 529.95,-972.5 540.46,-973.83 538.99,-966.98"/>
<text text-anchor="middle" x="611.5" y="-992" font-family="Roboto" font-size="10.00"> cancelButton_</text>
<text text-anchor="middle" x="611.5" y="-981" font-family="Roboto" font-size="10.00">closeButton_</text>
<text text-anchor="middle" x="611.5" y="-970" font-family="Roboto" font-size="10.00">okButton_</text>
</g>
<!-- Node186 -->
<g id="node24" class="node">
<title>Node186</title>
<g id="a_node24"><a xlink:href="class_urho3_d_1_1_vector.html" target="_top" xlink:title=" ">
<polygon fill="white" stroke="orangered" points="674,-78 549,-78 549,-48 674,-48 674,-78"/>
<text text-anchor="start" x="557" y="-66" font-family="Roboto" font-size="10.00">Urho3D::Vector&lt; Urho3D</text>
<text text-anchor="middle" x="611.5" y="-55" font-family="Roboto" font-size="10.00">::String &gt;</text>
</a>
</g>
</g>
<!-- Node186&#45;&gt;Node1 -->
<g id="edge40" class="edge">
<title>Node186&#45;&gt;Node1</title>
<path fill="none" stroke="#9a32cd" stroke-dasharray="5,2" d="M685.73,-64.66C706.15,-68.34 727.07,-75.54 743,-89 798.92,-136.26 810.59,-232.95 812.93,-264.09"/>
<polygon fill="#9a32cd" stroke="#9a32cd" points="686.38,-61.21 675.97,-63.18 685.34,-68.14 686.38,-61.21"/>
<text text-anchor="middle" x="717.5" y="-92" font-family="Roboto" font-size="10.00"> filters_</text>
</g>
<!-- Node187 -->
<g id="node25" class="node">
<title>Node187</title>
<g id="a_node25"><a xlink:href="class_urho3_d_1_1_vector.html" target="_top" xlink:title=" ">
<polygon fill="white" stroke="orangered" points="674,-30 549,-30 549,0 674,0 674,-30"/>
<text text-anchor="start" x="557" y="-18" font-family="Roboto" font-size="10.00">Urho3D::Vector&lt; Urho3D</text>
<text text-anchor="middle" x="611.5" y="-7" font-family="Roboto" font-size="10.00">::FileSelectorEntry &gt;</text>
</a>
</g>
</g>
<!-- Node187&#45;&gt;Node1 -->
<g id="edge41" class="edge">
<title>Node187&#45;&gt;Node1</title>
<path fill="none" stroke="#9a32cd" stroke-dasharray="5,2" d="M685.4,-21.93C706.21,-27.13 727.44,-36 743,-51 806.45,-112.14 812.99,-229.86 813.51,-264.31"/>
<polygon fill="#9a32cd" stroke="#9a32cd" points="686.26,-18.53 675.74,-19.79 684.74,-25.37 686.26,-18.53"/>
<text text-anchor="middle" x="717.5" y="-54" font-family="Roboto" font-size="10.00"> fileEntries_</text>
</g>
</g>
</svg>
