<?xml version="1.0" encoding="UTF-8" standalone="no"?>
<!DOCTYPE svg PUBLIC "-//W3C//DTD SVG 1.1//EN"
 "http://www.w3.org/Graphics/SVG/1.1/DTD/svg11.dtd">
<!-- Generated by graphviz version 7.0.3 (0)
 -->
<!-- Title: Urho3D::ConstraintMouse2D::SetDampingRatio Pages: 1 -->
<svg width="316pt" height="56pt"
 viewBox="0.00 0.00 316.00 56.00" xmlns="http://www.w3.org/2000/svg" xmlns:xlink="http://www.w3.org/1999/xlink">
<g id="graph0" class="graph" transform="scale(1 1) rotate(0) translate(4 52)">
<title>Urho3D::ConstraintMouse2D::SetDampingRatio</title>
<!-- Node1 -->
<g id="node1" class="node">
<title>Node1</title>
<g id="a_node1"><a xlink:title=" ">
<polygon fill="#999999" stroke="#666666" points="308,-30 172,-30 172,0 308,0 308,-30"/>
<text text-anchor="start" x="180" y="-18" font-family="Roboto" font-size="10.00">Urho3D::ConstraintMouse2</text>
<text text-anchor="middle" x="240" y="-7" font-family="Roboto" font-size="10.00">D::SetDampingRatio</text>
</a>
</g>
</g>
<!-- Node1&#45;&gt;Node1 -->
<g id="edge2" class="edge">
<title>Node1&#45;&gt;Node1</title>
<path fill="none" stroke="#63b8ff" d="M269.02,-41.61C264.37,-45.43 254.7,-48 240,-48 213.12,-48 203.05,-39.41 209.77,-30.28"/>
<polygon fill="#63b8ff" stroke="#63b8ff" points="272.49,-42.1 270.07,-31.78 265.53,-41.35 272.49,-42.1"/>
</g>
<!-- Node2 -->
<g id="node2" class="node">
<title>Node2</title>
<g id="a_node2"><a xlink:href="class_urho3_d_1_1_constraint_mouse2_d.html#ad1b9b930e10073c84731d752a1bba314" target="_top" xlink:title=" ">
<polygon fill="white" stroke="#666666" points="136,-30 0,-30 0,0 136,0 136,-30"/>
<text text-anchor="start" x="8" y="-18" font-family="Roboto" font-size="10.00">Urho3D::ConstraintMouse2</text>
<text text-anchor="middle" x="68" y="-7" font-family="Roboto" font-size="10.00">D::RegisterObject</text>
</a>
</g>
</g>
<!-- Node1&#45;&gt;Node2 -->
<g id="edge1" class="edge">
<title>Node1&#45;&gt;Node2</title>
<path fill="none" stroke="#63b8ff" d="M160.46,-15C152.37,-15 144.21,-15 136.26,-15"/>
<polygon fill="#63b8ff" stroke="#63b8ff" points="160.3,-18.5 170.3,-15 160.3,-11.5 160.3,-18.5"/>
</g>
</g>
</svg>
