<?xml version="1.0" encoding="UTF-8" standalone="no"?>
<!DOCTYPE svg PUBLIC "-//W3C//DTD SVG 1.1//EN"
 "http://www.w3.org/Graphics/SVG/1.1/DTD/svg11.dtd">
<!-- Generated by graphviz version 7.0.3 (0)
 -->
<!-- Title: Urho3D::ParticleEmitter::SetEffect Pages: 1 -->
<svg width="973pt" height="620pt"
 viewBox="0.00 0.00 973.00 619.95" xmlns="http://www.w3.org/2000/svg" xmlns:xlink="http://www.w3.org/1999/xlink">
<g id="graph0" class="graph" transform="scale(1 1) rotate(0) translate(4 615.95)">
<title>Urho3D::ParticleEmitter::SetEffect</title>
<!-- Node1 -->
<g id="node1" class="node">
<title>Node1</title>
<g id="a_node1"><a xlink:title=" ">
<polygon fill="#999999" stroke="#666666" points="120,-243 0,-243 0,-213 120,-213 120,-243"/>
<text text-anchor="start" x="8" y="-231" font-family="Roboto" font-size="10.00">Urho3D::ParticleEmitter</text>
<text text-anchor="middle" x="60" y="-220" font-family="Roboto" font-size="10.00">::SetEffect</text>
</a>
</g>
</g>
<!-- Node2 -->
<g id="node2" class="node">
<title>Node2</title>
<g id="a_node2"><a xlink:href="class_urho3_d_1_1_particle_emitter.html#a182059fa9f28d25885dc2f036377f92b" target="_top" xlink:title="Apply not continuously updated values such as the material, the number of particles and sorting mode ...">
<polygon fill="white" stroke="#666666" points="468,-369 348,-369 348,-339 468,-339 468,-369"/>
<text text-anchor="start" x="356" y="-357" font-family="Roboto" font-size="10.00">Urho3D::ParticleEmitter</text>
<text text-anchor="middle" x="408" y="-346" font-family="Roboto" font-size="10.00">::ApplyEffect</text>
</a>
</g>
</g>
<!-- Node1&#45;&gt;Node2 -->
<g id="edge1" class="edge">
<title>Node1&#45;&gt;Node2</title>
<path fill="none" stroke="#63b8ff" d="M90.04,-243.4C108.61,-252.9 133.36,-264.97 156,-274 217.14,-298.4 288.88,-320.65 339.97,-335.46"/>
<polygon fill="#63b8ff" stroke="#63b8ff" points="338.83,-338.78 349.41,-338.18 340.77,-332.05 338.83,-338.78"/>
</g>
<!-- Node4 -->
<g id="node4" class="node">
<title>Node4</title>
<g id="a_node4"><a xlink:href="class_urho3_d_1_1_component.html#aaf87acb64001774c62f0784254f9b291" target="_top" xlink:title="Mark for attribute check on the next network update.">
<polygon fill="white" stroke="#666666" points="781,-417 670,-417 670,-387 781,-387 781,-417"/>
<text text-anchor="start" x="678" y="-405" font-family="Roboto" font-size="10.00">Urho3D::Component::</text>
<text text-anchor="middle" x="725.5" y="-394" font-family="Roboto" font-size="10.00">MarkNetworkUpdate</text>
</a>
</g>
</g>
<!-- Node1&#45;&gt;Node4 -->
<g id="edge23" class="edge">
<title>Node1&#45;&gt;Node4</title>
<path fill="none" stroke="#63b8ff" d="M72.89,-243.36C120.34,-303.21 303.83,-521.16 514,-594 564.39,-611.46 588.96,-622.56 634,-594 692.05,-557.19 713.55,-472.09 720.95,-428.61"/>
<polygon fill="#63b8ff" stroke="#63b8ff" points="724.4,-429.2 722.48,-418.78 717.48,-428.12 724.4,-429.2"/>
</g>
<!-- Node25 -->
<g id="node15" class="node">
<title>Node25</title>
<g id="a_node15"><a xlink:href="class_urho3_d_1_1_particle_emitter.html#a4386ac257cdc5a82ae8714cd402cc9a3" target="_top" xlink:title="Handle live reload of the particle effect.">
<polygon fill="white" stroke="#666666" points="302,-265 156,-265 156,-235 302,-235 302,-265"/>
<text text-anchor="start" x="164" y="-253" font-family="Roboto" font-size="10.00">Urho3D::ParticleEmitter</text>
<text text-anchor="middle" x="229" y="-242" font-family="Roboto" font-size="10.00">::HandleEffectReloadFinished</text>
</a>
</g>
</g>
<!-- Node1&#45;&gt;Node25 -->
<g id="edge17" class="edge">
<title>Node1&#45;&gt;Node25</title>
<path fill="none" stroke="#63b8ff" d="M120.35,-235.82C128.12,-236.84 136.2,-237.91 144.28,-238.97"/>
<polygon fill="#63b8ff" stroke="#63b8ff" points="143.81,-242.44 154.18,-240.28 144.72,-235.5 143.81,-242.44"/>
</g>
<!-- Node26 -->
<g id="node16" class="node">
<title>Node26</title>
<g id="a_node16"><a xlink:href="class_urho3_d_1_1_particle_emitter.html#a703852a36efccdd7420ffaf0eab56617" target="_top" xlink:title="Reset the particle emitter completely. Removes current particles, sets emitting state on,...">
<polygon fill="white" stroke="#666666" points="468,-222 348,-222 348,-192 468,-192 468,-222"/>
<text text-anchor="start" x="356" y="-210" font-family="Roboto" font-size="10.00">Urho3D::ParticleEmitter</text>
<text text-anchor="middle" x="408" y="-199" font-family="Roboto" font-size="10.00">::Reset</text>
</a>
</g>
</g>
<!-- Node1&#45;&gt;Node26 -->
<g id="edge24" class="edge">
<title>Node1&#45;&gt;Node26</title>
<path fill="none" stroke="#63b8ff" d="M120.48,-224.39C180.45,-220.75 273,-215.13 336.59,-211.27"/>
<polygon fill="#63b8ff" stroke="#63b8ff" points="336.44,-214.79 346.21,-210.69 336.01,-207.8 336.44,-214.79"/>
</g>
<!-- Node31 -->
<g id="node20" class="node">
<title>Node31</title>
<g id="a_node20"><a xlink:href="class_urho3_d_1_1_object.html#a7d9d061f4cf32f5fd5531e11a72834b6" target="_top" xlink:title="Subscribe to an event that can be sent by any sender.">
<polygon fill="white" stroke="#666666" points="294.5,-150 163.5,-150 163.5,-120 294.5,-120 294.5,-150"/>
<text text-anchor="start" x="171.5" y="-138" font-family="Roboto" font-size="10.00">Urho3D::Object::Subscribe</text>
<text text-anchor="middle" x="229" y="-127" font-family="Roboto" font-size="10.00">ToEvent</text>
</a>
</g>
</g>
<!-- Node1&#45;&gt;Node31 -->
<g id="edge25" class="edge">
<title>Node1&#45;&gt;Node31</title>
<path fill="none" stroke="#63b8ff" d="M88.58,-212.64C116.38,-197.16 159.48,-173.16 190.4,-155.94"/>
<polygon fill="#63b8ff" stroke="#63b8ff" points="192.03,-159.04 199.06,-151.12 188.62,-152.92 192.03,-159.04"/>
</g>
<!-- Node36 -->
<g id="node24" class="node">
<title>Node36</title>
<g id="a_node24"><a xlink:href="class_urho3_d_1_1_object.html#a153b96c4397e045b2ca2b2d5471d097c" target="_top" xlink:title="Unsubscribe from an event.">
<polygon fill="#fff0f0" stroke="red" points="300,-54 158,-54 158,-24 300,-24 300,-54"/>
<text text-anchor="start" x="166" y="-42" font-family="Roboto" font-size="10.00">Urho3D::Object::Unsubscribe</text>
<text text-anchor="middle" x="229" y="-31" font-family="Roboto" font-size="10.00">FromEvent</text>
</a>
</g>
</g>
<!-- Node1&#45;&gt;Node36 -->
<g id="edge29" class="edge">
<title>Node1&#45;&gt;Node36</title>
<path fill="none" stroke="#63b8ff" d="M72.52,-212.81C89.93,-190.1 124.29,-146.17 156,-111 171.34,-93.99 189.59,-75.75 203.89,-61.89"/>
<polygon fill="#63b8ff" stroke="#63b8ff" points="205.93,-64.78 210.7,-55.33 201.07,-59.74 205.93,-64.78"/>
</g>
<!-- Node3 -->
<g id="node3" class="node">
<title>Node3</title>
<g id="a_node3"><a xlink:href="class_urho3_d_1_1_billboard_set.html#a1f1557cbe2c62b021f002a716d46de14" target="_top" xlink:title=" ">
<polygon fill="#fff0f0" stroke="red" points="632,-441 516,-441 516,-411 632,-411 632,-441"/>
<text text-anchor="start" x="524" y="-429" font-family="Roboto" font-size="10.00">Urho3D::BillboardSet</text>
<text text-anchor="middle" x="574" y="-418" font-family="Roboto" font-size="10.00">::SetAnimationLodBias</text>
</a>
</g>
</g>
<!-- Node2&#45;&gt;Node3 -->
<g id="edge2" class="edge">
<title>Node2&#45;&gt;Node3</title>
<path fill="none" stroke="#63b8ff" d="M441.94,-369.49C462.55,-379.08 489.71,-391.51 514,-402 517.3,-403.42 520.71,-404.87 524.16,-406.32"/>
<polygon fill="#63b8ff" stroke="#63b8ff" points="522.52,-409.43 533.1,-410.03 525.21,-402.97 522.52,-409.43"/>
</g>
<!-- Node11 -->
<g id="node8" class="node">
<title>Node11</title>
<g id="a_node8"><a xlink:href="class_urho3_d_1_1_billboard_set.html#af91693e93fee36742068ce645f4525eb" target="_top" xlink:title=" ">
<polygon fill="#fff0f0" stroke="red" points="632.5,-393 515.5,-393 515.5,-363 632.5,-363 632.5,-393"/>
<text text-anchor="start" x="523.5" y="-381" font-family="Roboto" font-size="10.00">Urho3D::BillboardSet</text>
<text text-anchor="middle" x="574" y="-370" font-family="Roboto" font-size="10.00">::SetFaceCameraMode</text>
</a>
</g>
</g>
<!-- Node2&#45;&gt;Node11 -->
<g id="edge8" class="edge">
<title>Node2&#45;&gt;Node11</title>
<path fill="none" stroke="#63b8ff" d="M468.21,-362.66C479.82,-364.36 492.09,-366.16 503.99,-367.9"/>
<polygon fill="#63b8ff" stroke="#63b8ff" points="503.35,-371.34 513.75,-369.33 504.37,-364.42 503.35,-371.34"/>
</g>
<!-- Node18 -->
<g id="node9" class="node">
<title>Node18</title>
<g id="a_node9"><a xlink:href="class_urho3_d_1_1_billboard_set.html#ac36ee02b975064444f530988bc11479d" target="_top" xlink:title=" ">
<polygon fill="#fff0f0" stroke="red" points="627.5,-345 520.5,-345 520.5,-315 627.5,-315 627.5,-345"/>
<text text-anchor="start" x="528.5" y="-333" font-family="Roboto" font-size="10.00">Urho3D::BillboardSet</text>
<text text-anchor="middle" x="574" y="-322" font-family="Roboto" font-size="10.00">::SetFixedScreenSize</text>
</a>
</g>
</g>
<!-- Node2&#45;&gt;Node18 -->
<g id="edge10" class="edge">
<title>Node2&#45;&gt;Node18</title>
<path fill="none" stroke="#63b8ff" d="M468.21,-345.34C481.47,-343.39 495.59,-341.33 509.04,-339.36"/>
<polygon fill="#63b8ff" stroke="#63b8ff" points="509.25,-342.87 518.64,-337.96 508.24,-335.94 509.25,-342.87"/>
</g>
<!-- Node19 -->
<g id="node10" class="node">
<title>Node19</title>
<g id="a_node10"><a xlink:href="class_urho3_d_1_1_billboard_set.html#ab062b7ae1d21d56b8d4c95de88cabce8" target="_top" xlink:title=" ">
<polygon fill="white" stroke="#666666" points="627.5,-297 520.5,-297 520.5,-267 627.5,-267 627.5,-297"/>
<text text-anchor="start" x="528.5" y="-285" font-family="Roboto" font-size="10.00">Urho3D::BillboardSet</text>
<text text-anchor="middle" x="574" y="-274" font-family="Roboto" font-size="10.00">::SetMaterial</text>
</a>
</g>
</g>
<!-- Node2&#45;&gt;Node19 -->
<g id="edge11" class="edge">
<title>Node2&#45;&gt;Node19</title>
<path fill="none" stroke="#63b8ff" d="M441.94,-338.51C462.55,-328.92 489.71,-316.49 514,-306 517.3,-304.58 520.71,-303.13 524.16,-301.68"/>
<polygon fill="#63b8ff" stroke="#63b8ff" points="525.21,-305.03 533.1,-297.97 522.52,-298.57 525.21,-305.03"/>
</g>
<!-- Node20 -->
<g id="node11" class="node">
<title>Node20</title>
<g id="a_node11"><a xlink:href="class_urho3_d_1_1_particle_emitter.html#a7e1637d4c2cf88ab57a02f82049e3827" target="_top" xlink:title=" ">
<polygon fill="#fff0f0" stroke="red" points="634,-249 514,-249 514,-219 634,-219 634,-249"/>
<text text-anchor="start" x="522" y="-237" font-family="Roboto" font-size="10.00">Urho3D::ParticleEmitter</text>
<text text-anchor="middle" x="574" y="-226" font-family="Roboto" font-size="10.00">::SetNumParticles</text>
</a>
</g>
</g>
<!-- Node2&#45;&gt;Node20 -->
<g id="edge13" class="edge">
<title>Node2&#45;&gt;Node20</title>
<path fill="none" stroke="#63b8ff" d="M422.59,-338.54C441.4,-317.89 477.25,-281.22 514,-258 515.86,-256.83 517.78,-255.69 519.75,-254.59"/>
<polygon fill="#63b8ff" stroke="#63b8ff" points="521.21,-257.78 528.54,-250.12 518.04,-251.54 521.21,-257.78"/>
</g>
<!-- Node22 -->
<g id="node12" class="node">
<title>Node22</title>
<g id="a_node12"><a xlink:href="class_urho3_d_1_1_billboard_set.html#abdf237f420e5d0518c15485a7455ca86" target="_top" xlink:title=" ">
<polygon fill="#fff0f0" stroke="red" points="627.5,-585 520.5,-585 520.5,-555 627.5,-555 627.5,-585"/>
<text text-anchor="start" x="528.5" y="-573" font-family="Roboto" font-size="10.00">Urho3D::BillboardSet</text>
<text text-anchor="middle" x="574" y="-562" font-family="Roboto" font-size="10.00">::SetRelative</text>
</a>
</g>
</g>
<!-- Node2&#45;&gt;Node22 -->
<g id="edge14" class="edge">
<title>Node2&#45;&gt;Node22</title>
<path fill="none" stroke="#63b8ff" d="M413.48,-369.47C424.62,-405.35 456.87,-495.04 514,-546 514.91,-546.81 515.85,-547.59 516.81,-548.35"/>
<polygon fill="#63b8ff" stroke="#63b8ff" points="514.58,-551.07 524.84,-553.71 518.46,-545.25 514.58,-551.07"/>
</g>
<!-- Node23 -->
<g id="node13" class="node">
<title>Node23</title>
<g id="a_node13"><a xlink:href="class_urho3_d_1_1_billboard_set.html#aaf5b99a27784112f2f30f74a09fee33f" target="_top" xlink:title=" ">
<polygon fill="#fff0f0" stroke="red" points="627.5,-537 520.5,-537 520.5,-507 627.5,-507 627.5,-537"/>
<text text-anchor="start" x="528.5" y="-525" font-family="Roboto" font-size="10.00">Urho3D::BillboardSet</text>
<text text-anchor="middle" x="574" y="-514" font-family="Roboto" font-size="10.00">::SetScaled</text>
</a>
</g>
</g>
<!-- Node2&#45;&gt;Node23 -->
<g id="edge15" class="edge">
<title>Node2&#45;&gt;Node23</title>
<path fill="none" stroke="#63b8ff" d="M416.4,-369.19C431.17,-398.05 466.96,-461.22 514,-498 515.15,-498.9 516.34,-499.77 517.56,-500.61"/>
<polygon fill="#63b8ff" stroke="#63b8ff" points="515.75,-503.61 526.13,-505.75 519.35,-497.61 515.75,-503.61"/>
</g>
<!-- Node24 -->
<g id="node14" class="node">
<title>Node24</title>
<g id="a_node14"><a xlink:href="class_urho3_d_1_1_billboard_set.html#aebf71f5a4b71cb7796bdd9a1a186c2c6" target="_top" xlink:title=" ">
<polygon fill="#fff0f0" stroke="red" points="627.5,-489 520.5,-489 520.5,-459 627.5,-459 627.5,-489"/>
<text text-anchor="start" x="528.5" y="-477" font-family="Roboto" font-size="10.00">Urho3D::BillboardSet</text>
<text text-anchor="middle" x="574" y="-466" font-family="Roboto" font-size="10.00">::SetSorted</text>
</a>
</g>
</g>
<!-- Node2&#45;&gt;Node24 -->
<g id="edge16" class="edge">
<title>Node2&#45;&gt;Node24</title>
<path fill="none" stroke="#63b8ff" d="M422.59,-369.46C441.4,-390.11 477.25,-426.78 514,-450 515.86,-451.17 517.78,-452.31 519.75,-453.41"/>
<polygon fill="#63b8ff" stroke="#63b8ff" points="518.04,-456.46 528.54,-457.88 521.21,-450.22 518.04,-456.46"/>
</g>
<!-- Node3&#45;&gt;Node4 -->
<g id="edge3" class="edge">
<title>Node3&#45;&gt;Node4</title>
<path fill="none" stroke="#63b8ff" d="M632.37,-416.79C640.96,-415.41 649.87,-413.98 658.62,-412.58"/>
<polygon fill="#63b8ff" stroke="#63b8ff" points="659.17,-416.03 668.49,-410.99 658.06,-409.12 659.17,-416.03"/>
</g>
<!-- Node5 -->
<g id="node5" class="node">
<title>Node5</title>
<g id="a_node5"><a xlink:href="class_urho3_d_1_1_component.html#a2c22f727341671a0420934f249ffe059" target="_top" xlink:title="Return the scene the node belongs to.">
<polygon fill="#fff0f0" stroke="red" points="946.5,-465 835.5,-465 835.5,-435 946.5,-435 946.5,-465"/>
<text text-anchor="start" x="843.5" y="-453" font-family="Roboto" font-size="10.00">Urho3D::Component::</text>
<text text-anchor="middle" x="891" y="-442" font-family="Roboto" font-size="10.00">GetScene</text>
</a>
</g>
</g>
<!-- Node4&#45;&gt;Node5 -->
<g id="edge4" class="edge">
<title>Node4&#45;&gt;Node5</title>
<path fill="none" stroke="#63b8ff" d="M779.13,-417.45C794.3,-421.91 811.01,-426.81 826.75,-431.43"/>
<polygon fill="#63b8ff" stroke="#63b8ff" points="825.43,-434.69 836.01,-434.15 827.4,-427.98 825.43,-434.69"/>
</g>
<!-- Node7 -->
<g id="node6" class="node">
<title>Node7</title>
<g id="a_node6"><a xlink:href="class_urho3_d_1_1_component.html#a8f1388c232ca01b7c7328c761aae6e76" target="_top" xlink:title=" ">
<polygon fill="#fff0f0" stroke="red" points="946.5,-417 835.5,-417 835.5,-387 946.5,-387 946.5,-417"/>
<text text-anchor="start" x="843.5" y="-405" font-family="Roboto" font-size="10.00">Urho3D::Component::</text>
<text text-anchor="middle" x="891" y="-394" font-family="Roboto" font-size="10.00">IsReplicated</text>
</a>
</g>
</g>
<!-- Node4&#45;&gt;Node7 -->
<g id="edge5" class="edge">
<title>Node4&#45;&gt;Node7</title>
<path fill="none" stroke="#63b8ff" d="M781.4,-402C795.09,-402 809.91,-402 824.07,-402"/>
<polygon fill="#63b8ff" stroke="#63b8ff" points="823.73,-405.5 833.73,-402 823.73,-398.5 823.73,-405.5"/>
</g>
<!-- Node9 -->
<g id="node7" class="node">
<title>Node9</title>
<g id="a_node7"><a xlink:href="class_urho3_d_1_1_scene.html#a00b724dfff718639b9de12d71139499c" target="_top" xlink:title="Mark for attribute check on the next network update.">
<polygon fill="white" stroke="#666666" points="965,-351 817,-351 817,-321 965,-321 965,-351"/>
<text text-anchor="start" x="825" y="-339" font-family="Roboto" font-size="10.00">Urho3D::Scene::MarkNetwork</text>
<text text-anchor="middle" x="891" y="-328" font-family="Roboto" font-size="10.00">Update</text>
</a>
</g>
</g>
<!-- Node4&#45;&gt;Node9 -->
<g id="edge6" class="edge">
<title>Node4&#45;&gt;Node9</title>
<path fill="none" stroke="#63b8ff" d="M764.83,-386.53C787.61,-377.33 816.72,-365.58 841.13,-355.73"/>
<polygon fill="#63b8ff" stroke="#63b8ff" points="842.26,-359.05 850.22,-352.06 839.64,-352.56 842.26,-359.05"/>
</g>
<!-- Node9&#45;&gt;Node9 -->
<g id="edge7" class="edge">
<title>Node9&#45;&gt;Node9</title>
<path fill="none" stroke="#63b8ff" d="M861.91,-351.28C855.44,-360.41 865.14,-369 891,-369 905.14,-369 914.45,-366.43 918.92,-362.61"/>
<polygon fill="#63b8ff" stroke="#63b8ff" points="922.39,-363.09 919.94,-352.78 915.43,-362.37 922.39,-363.09"/>
</g>
<!-- Node11&#45;&gt;Node4 -->
<g id="edge9" class="edge">
<title>Node11&#45;&gt;Node4</title>
<path fill="none" stroke="#63b8ff" d="M632.8,-387.28C641.26,-388.64 650.02,-390.04 658.62,-391.42"/>
<polygon fill="#63b8ff" stroke="#63b8ff" points="657.87,-394.85 668.3,-392.98 658.98,-387.94 657.87,-394.85"/>
</g>
<!-- Node19&#45;&gt;Node4 -->
<g id="edge12" class="edge">
<title>Node19&#45;&gt;Node4</title>
<path fill="none" stroke="#63b8ff" d="M618.96,-297.39C624.21,-299.94 629.35,-302.81 634,-306 663,-325.87 689.76,-356.42 706.54,-377.71"/>
<polygon fill="#63b8ff" stroke="#63b8ff" points="703.72,-379.78 712.6,-385.56 709.26,-375.51 703.72,-379.78"/>
</g>
<!-- Node25&#45;&gt;Node2 -->
<g id="edge18" class="edge">
<title>Node25&#45;&gt;Node2</title>
<path fill="none" stroke="#63b8ff" d="M256.12,-265.35C286.58,-283.24 337.09,-312.92 371.19,-332.96"/>
<polygon fill="#63b8ff" stroke="#63b8ff" points="369.08,-335.78 379.47,-337.82 372.62,-329.74 369.08,-335.78"/>
</g>
<!-- Node25&#45;&gt;Node26 -->
<g id="edge19" class="edge">
<title>Node25&#45;&gt;Node26</title>
<path fill="none" stroke="#63b8ff" d="M293.4,-234.6C307.47,-231.18 322.46,-227.54 336.79,-224.06"/>
<polygon fill="#63b8ff" stroke="#63b8ff" points="337.22,-227.55 346.12,-221.79 335.57,-220.75 337.22,-227.55"/>
</g>
<!-- Node27 -->
<g id="node17" class="node">
<title>Node27</title>
<g id="a_node17"><a xlink:href="class_urho3_d_1_1_particle_emitter.html#a30b8c39ac162550d8a8145b56e71c141" target="_top" xlink:title="Remove all current particles.">
<polygon fill="#fff0f0" stroke="red" points="634,-201 514,-201 514,-171 634,-171 634,-201"/>
<text text-anchor="start" x="522" y="-189" font-family="Roboto" font-size="10.00">Urho3D::ParticleEmitter</text>
<text text-anchor="middle" x="574" y="-178" font-family="Roboto" font-size="10.00">::RemoveAllParticles</text>
</a>
</g>
</g>
<!-- Node26&#45;&gt;Node27 -->
<g id="edge20" class="edge">
<title>Node26&#45;&gt;Node27</title>
<path fill="none" stroke="#63b8ff" d="M468.21,-199.42C479.29,-198 490.97,-196.5 502.35,-195.05"/>
<polygon fill="#63b8ff" stroke="#63b8ff" points="502.63,-198.54 512.1,-193.8 501.74,-191.6 502.63,-198.54"/>
</g>
<!-- Node28 -->
<g id="node18" class="node">
<title>Node28</title>
<g id="a_node18"><a xlink:href="class_urho3_d_1_1_particle_emitter.html#ac61e2bdd8719946a586ae73f1082f2f2" target="_top" xlink:title="Reset the emission period timer.">
<polygon fill="white" stroke="#666666" points="634,-153 514,-153 514,-123 634,-123 634,-153"/>
<text text-anchor="start" x="522" y="-141" font-family="Roboto" font-size="10.00">Urho3D::ParticleEmitter</text>
<text text-anchor="middle" x="574" y="-130" font-family="Roboto" font-size="10.00">::ResetEmissionTimer</text>
</a>
</g>
</g>
<!-- Node26&#45;&gt;Node28 -->
<g id="edge21" class="edge">
<title>Node26&#45;&gt;Node28</title>
<path fill="none" stroke="#63b8ff" d="M457.36,-191.52C464.37,-188.89 471.43,-186.02 478,-183 494.83,-175.25 497.38,-170.18 514,-162 516.74,-160.65 519.58,-159.31 522.46,-158"/>
<polygon fill="#63b8ff" stroke="#63b8ff" points="523.85,-161.21 531.6,-153.99 521.04,-154.8 523.85,-161.21"/>
</g>
<!-- Node29 -->
<g id="node19" class="node">
<title>Node29</title>
<g id="a_node19"><a xlink:href="class_urho3_d_1_1_particle_emitter.html#aad036d748e8fcd0c5aced83a6b0c1c76" target="_top" xlink:title=" ">
<polygon fill="#fff0f0" stroke="red" points="634,-105 514,-105 514,-75 634,-75 634,-105"/>
<text text-anchor="start" x="522" y="-93" font-family="Roboto" font-size="10.00">Urho3D::ParticleEmitter</text>
<text text-anchor="middle" x="574" y="-82" font-family="Roboto" font-size="10.00">::SetEmitting</text>
</a>
</g>
</g>
<!-- Node26&#45;&gt;Node29 -->
<g id="edge22" class="edge">
<title>Node26&#45;&gt;Node29</title>
<path fill="none" stroke="#63b8ff" d="M465.27,-191.66C469.84,-189.18 474.16,-186.32 478,-183 504.18,-160.39 488.41,-137.28 514,-114 514.9,-113.18 515.83,-112.39 516.79,-111.62"/>
<polygon fill="#63b8ff" stroke="#63b8ff" points="518.45,-114.72 524.78,-106.23 514.53,-108.92 518.45,-114.72"/>
</g>
<!-- Node32 -->
<g id="node21" class="node">
<title>Node32</title>
<g id="a_node21"><a xlink:href="class_urho3_d_1_1_context.html#ae3e0c5db85e2395f3d34941003c816ad" target="_top" xlink:title="Add event receiver.">
<polygon fill="white" stroke="#666666" points="476,-126 340,-126 340,-96 476,-96 476,-126"/>
<text text-anchor="start" x="348" y="-114" font-family="Roboto" font-size="10.00">Urho3D::Context::AddEvent</text>
<text text-anchor="middle" x="408" y="-103" font-family="Roboto" font-size="10.00">Receiver</text>
</a>
</g>
</g>
<!-- Node31&#45;&gt;Node32 -->
<g id="edge26" class="edge">
<title>Node31&#45;&gt;Node32</title>
<path fill="none" stroke="#63b8ff" d="M294.9,-126.2C305.85,-124.71 317.33,-123.16 328.58,-121.63"/>
<polygon fill="#63b8ff" stroke="#63b8ff" points="328.79,-125.14 338.23,-120.32 327.85,-118.2 328.79,-125.14"/>
</g>
<!-- Node33 -->
<g id="node22" class="node">
<title>Node33</title>
<g id="a_node22"><a xlink:href="class_urho3_d_1_1_object.html#ad9d3702ab78a9d8a8ddad6aae7144abb" target="_top" xlink:title="Find the first event handler with specific sender.">
<polygon fill="#fff0f0" stroke="red" points="478,-78 338,-78 338,-48 478,-48 478,-78"/>
<text text-anchor="start" x="346" y="-66" font-family="Roboto" font-size="10.00">Urho3D::Object::FindSpecific</text>
<text text-anchor="middle" x="408" y="-55" font-family="Roboto" font-size="10.00">EventHandler</text>
</a>
</g>
</g>
<!-- Node31&#45;&gt;Node33 -->
<g id="edge27" class="edge">
<title>Node31&#45;&gt;Node33</title>
<path fill="none" stroke="#63b8ff" d="M262.78,-119.57C284.04,-109.79 312.43,-97.11 338,-87 341.88,-85.46 345.91,-83.93 349.98,-82.41"/>
<polygon fill="#63b8ff" stroke="#63b8ff" points="351.16,-85.71 359.36,-79 348.76,-79.13 351.16,-85.71"/>
</g>
<!-- Node35 -->
<g id="node23" class="node">
<title>Node35</title>
<g id="a_node23"><a xlink:href="class_urho3_d_1_1_event_handler.html#abe76f0245895dadac146b7a4b7d78713" target="_top" xlink:title="Set sender and event type.">
<polygon fill="white" stroke="#666666" points="472,-174 344,-174 344,-144 472,-144 472,-174"/>
<text text-anchor="start" x="352" y="-162" font-family="Roboto" font-size="10.00">Urho3D::EventHandler</text>
<text text-anchor="middle" x="408" y="-151" font-family="Roboto" font-size="10.00">::SetSenderAndEventType</text>
</a>
</g>
</g>
<!-- Node31&#45;&gt;Node35 -->
<g id="edge28" class="edge">
<title>Node31&#45;&gt;Node35</title>
<path fill="none" stroke="#63b8ff" d="M294.9,-143.8C307.07,-145.45 319.87,-147.19 332.3,-148.87"/>
<polygon fill="#63b8ff" stroke="#63b8ff" points="331.7,-152.32 342.08,-150.2 332.64,-145.39 331.7,-152.32"/>
</g>
<!-- Node37 -->
<g id="node25" class="node">
<title>Node37</title>
<g id="a_node25"><a xlink:href="class_urho3_d_1_1_object.html#a00bec56f305dd6636d186e5b351d0264" target="_top" xlink:title="Find the first event handler with no specific sender.">
<polygon fill="#fff0f0" stroke="red" points="472.5,-30 343.5,-30 343.5,0 472.5,0 472.5,-30"/>
<text text-anchor="start" x="351.5" y="-18" font-family="Roboto" font-size="10.00">Urho3D::Object::FindEvent</text>
<text text-anchor="middle" x="408" y="-7" font-family="Roboto" font-size="10.00">Handler</text>
</a>
</g>
</g>
<!-- Node36&#45;&gt;Node37 -->
<g id="edge30" class="edge">
<title>Node36&#45;&gt;Node37</title>
<path fill="none" stroke="#63b8ff" d="M300.46,-29.45C310.8,-28.04 321.48,-26.6 331.9,-25.18"/>
<polygon fill="#63b8ff" stroke="#63b8ff" points="332.15,-28.68 341.59,-23.87 331.21,-21.74 332.15,-28.68"/>
</g>
</g>
</svg>
