<?xml version="1.0" encoding="UTF-8" standalone="no"?>
<!DOCTYPE svg PUBLIC "-//W3C//DTD SVG 1.1//EN"
 "http://www.w3.org/Graphics/SVG/1.1/DTD/svg11.dtd">
<!-- Generated by graphviz version 7.0.3 (0)
 -->
<!-- Title: Urho3D::Node::GetRotation Pages: 1 -->
<svg width="1634pt" height="182pt"
 viewBox="0.00 0.00 1634.00 182.00" xmlns="http://www.w3.org/2000/svg" xmlns:xlink="http://www.w3.org/1999/xlink">
<g id="graph0" class="graph" transform="scale(1 1) rotate(0) translate(4 178)">
<title>Urho3D::Node::GetRotation</title>
<!-- Node1 -->
<g id="node1" class="node">
<title>Node1</title>
<g id="a_node1"><a xlink:title=" ">
<polygon fill="#999999" stroke="#666666" points="1626,-93.5 1490,-93.5 1490,-74.5 1626,-74.5 1626,-93.5"/>
<text text-anchor="middle" x="1558" y="-81.5" font-family="Roboto" font-size="10.00">Urho3D::Node::GetRotation</text>
</a>
</g>
</g>
<!-- Node2 -->
<g id="node2" class="node">
<title>Node2</title>
<g id="a_node2"><a xlink:href="class_urho3_d_1_1_animation_state.html#a2618e6f947c1a9be664b370cfaf27c09" target="_top" xlink:title="Apply track.">
<polygon fill="white" stroke="#666666" points="1441,-169 1319,-169 1319,-139 1441,-139 1441,-169"/>
<text text-anchor="start" x="1327" y="-157" font-family="Roboto" font-size="10.00">Urho3D::AnimationState</text>
<text text-anchor="middle" x="1380" y="-146" font-family="Roboto" font-size="10.00">::ApplyTrack</text>
</a>
</g>
</g>
<!-- Node1&#45;&gt;Node2 -->
<g id="edge1" class="edge">
<title>Node1&#45;&gt;Node2</title>
<path fill="none" stroke="#63b8ff" d="M1526.15,-98.77C1505.87,-108.24 1478.62,-120.48 1454,-130 1446.41,-132.93 1438.29,-135.83 1430.33,-138.55"/>
<polygon fill="#63b8ff" stroke="#63b8ff" points="1527.42,-102.04 1534.98,-94.62 1524.44,-95.71 1527.42,-102.04"/>
</g>
<!-- Node6 -->
<g id="node6" class="node">
<title>Node6</title>
<g id="a_node6"><a xlink:href="class_urho3_d_1_1_smoothed_transform.html#a585795208deb2e6c35c0083359662b41" target="_top" xlink:title="Handle scene node being assigned at creation.">
<polygon fill="white" stroke="#666666" points="1454,-121 1306,-121 1306,-91 1454,-91 1454,-121"/>
<text text-anchor="start" x="1314" y="-109" font-family="Roboto" font-size="10.00">Urho3D::SmoothedTransform</text>
<text text-anchor="middle" x="1380" y="-98" font-family="Roboto" font-size="10.00">::OnNodeSet</text>
</a>
</g>
</g>
<!-- Node1&#45;&gt;Node6 -->
<g id="edge6" class="edge">
<title>Node1&#45;&gt;Node6</title>
<path fill="none" stroke="#63b8ff" d="M1478.48,-93.81C1470.48,-94.82 1462.36,-95.83 1454.41,-96.82"/>
<polygon fill="#63b8ff" stroke="#63b8ff" points="1478.72,-97.31 1488.21,-92.6 1477.85,-90.37 1478.72,-97.31"/>
</g>
<!-- Node7 -->
<g id="node7" class="node">
<title>Node7</title>
<g id="a_node7"><a xlink:href="class_urho3_d_1_1_node.html#a0bf5b40b97dc36a8b39370aee92ccd9d" target="_top" xlink:title=" ">
<polygon fill="white" stroke="#666666" points="1454,-72.5 1306,-72.5 1306,-53.5 1454,-53.5 1454,-72.5"/>
<text text-anchor="middle" x="1380" y="-60.5" font-family="Roboto" font-size="10.00">Urho3D::Node::RegisterObject</text>
</a>
</g>
</g>
<!-- Node1&#45;&gt;Node7 -->
<g id="edge7" class="edge">
<title>Node1&#45;&gt;Node7</title>
<path fill="none" stroke="#63b8ff" d="M1478.48,-74.63C1470.48,-73.68 1462.36,-72.71 1454.41,-71.76"/>
<polygon fill="#63b8ff" stroke="#63b8ff" points="1477.86,-78.08 1488.21,-75.79 1478.69,-71.13 1477.86,-78.08"/>
</g>
<!-- Node8 -->
<g id="node8" class="node">
<title>Node8</title>
<g id="a_node8"><a xlink:href="class_urho3_d_1_1_smoothed_transform.html#a35445b17dfcabb0deba9f1f697653296" target="_top" xlink:title="Update smoothing.">
<polygon fill="white" stroke="#666666" points="1454,-35 1306,-35 1306,-5 1454,-5 1454,-35"/>
<text text-anchor="start" x="1314" y="-23" font-family="Roboto" font-size="10.00">Urho3D::SmoothedTransform</text>
<text text-anchor="middle" x="1380" y="-12" font-family="Roboto" font-size="10.00">::Update</text>
</a>
</g>
</g>
<!-- Node1&#45;&gt;Node8 -->
<g id="edge8" class="edge">
<title>Node1&#45;&gt;Node8</title>
<path fill="none" stroke="#63b8ff" d="M1521.89,-69.83C1502.05,-61.97 1476.75,-52.15 1454,-44 1445.96,-41.12 1437.38,-38.18 1429.03,-35.39"/>
<polygon fill="#63b8ff" stroke="#63b8ff" points="1520.59,-73.08 1531.17,-73.54 1523.18,-66.58 1520.59,-73.08"/>
</g>
<!-- Node3 -->
<g id="node3" class="node">
<title>Node3</title>
<g id="a_node3"><a xlink:href="class_urho3_d_1_1_animation_state.html#a09d3f8acf5b318a2a5ad9f1816a1073c" target="_top" xlink:title="Apply animation to a skeleton. Transform changes are applied silently, so the model needs to dirty it...">
<polygon fill="white" stroke="#666666" points="1257,-174 1135,-174 1135,-144 1257,-144 1257,-174"/>
<text text-anchor="start" x="1143" y="-162" font-family="Roboto" font-size="10.00">Urho3D::AnimationState</text>
<text text-anchor="middle" x="1196" y="-151" font-family="Roboto" font-size="10.00">::ApplyToModel</text>
</a>
</g>
</g>
<!-- Node2&#45;&gt;Node3 -->
<g id="edge2" class="edge">
<title>Node2&#45;&gt;Node3</title>
<path fill="none" stroke="#63b8ff" d="M1307.39,-155.97C1290.88,-156.42 1273.48,-156.9 1257.5,-157.34"/>
<polygon fill="#63b8ff" stroke="#63b8ff" points="1307.24,-159.47 1317.14,-155.7 1307.04,-152.48 1307.24,-159.47"/>
</g>
<!-- Node5 -->
<g id="node5" class="node">
<title>Node5</title>
<g id="a_node5"><a xlink:href="class_urho3_d_1_1_animation_state.html#a4ebbb3962edd5a28f17fc54151a341e4" target="_top" xlink:title="Apply animation to a scene node hierarchy.">
<polygon fill="white" stroke="#666666" points="1257,-126 1135,-126 1135,-96 1257,-96 1257,-126"/>
<text text-anchor="start" x="1143" y="-114" font-family="Roboto" font-size="10.00">Urho3D::AnimationState</text>
<text text-anchor="middle" x="1196" y="-103" font-family="Roboto" font-size="10.00">::ApplyToNodes</text>
</a>
</g>
</g>
<!-- Node2&#45;&gt;Node5 -->
<g id="edge4" class="edge">
<title>Node2&#45;&gt;Node5</title>
<path fill="none" stroke="#63b8ff" d="M1307.87,-137.19C1291.22,-133.26 1273.63,-129.11 1257.5,-125.29"/>
<polygon fill="#63b8ff" stroke="#63b8ff" points="1306.64,-140.5 1317.18,-139.39 1308.25,-133.69 1306.64,-140.5"/>
</g>
<!-- Node4 -->
<g id="node4" class="node">
<title>Node4</title>
<g id="a_node4"><a xlink:href="class_urho3_d_1_1_animation_state.html#ae662a588f71a9adfb4aea3162bb2a742" target="_top" xlink:title="Apply the animation at the current time position.">
<polygon fill="white" stroke="#666666" points="1073,-174 951,-174 951,-144 1073,-144 1073,-174"/>
<text text-anchor="start" x="959" y="-162" font-family="Roboto" font-size="10.00">Urho3D::AnimationState</text>
<text text-anchor="middle" x="1012" y="-151" font-family="Roboto" font-size="10.00">::Apply</text>
</a>
</g>
</g>
<!-- Node3&#45;&gt;Node4 -->
<g id="edge3" class="edge">
<title>Node3&#45;&gt;Node4</title>
<path fill="none" stroke="#63b8ff" d="M1123.39,-159C1106.88,-159 1089.48,-159 1073.5,-159"/>
<polygon fill="#63b8ff" stroke="#63b8ff" points="1123.14,-162.5 1133.14,-159 1123.14,-155.5 1123.14,-162.5"/>
</g>
<!-- Node5&#45;&gt;Node4 -->
<g id="edge5" class="edge">
<title>Node5&#45;&gt;Node4</title>
<path fill="none" stroke="#63b8ff" d="M1125.49,-129.33C1107.67,-134.03 1088.68,-139.04 1071.48,-143.58"/>
<polygon fill="#63b8ff" stroke="#63b8ff" points="1126.17,-132.77 1134.95,-126.84 1124.39,-126 1126.17,-132.77"/>
</g>
<!-- Node9 -->
<g id="node9" class="node">
<title>Node9</title>
<g id="a_node9"><a xlink:href="class_urho3_d_1_1_smoothed_transform.html#aab4734d09c12855615e3cccfa3353abb" target="_top" xlink:title="Handle smoothing update event.">
<polygon fill="white" stroke="#666666" points="1270,-78 1122,-78 1122,-48 1270,-48 1270,-78"/>
<text text-anchor="start" x="1130" y="-66" font-family="Roboto" font-size="10.00">Urho3D::SmoothedTransform</text>
<text text-anchor="middle" x="1196" y="-55" font-family="Roboto" font-size="10.00">::HandleUpdateSmoothing</text>
</a>
</g>
</g>
<!-- Node8&#45;&gt;Node9 -->
<g id="edge9" class="edge">
<title>Node8&#45;&gt;Node9</title>
<path fill="none" stroke="#63b8ff" d="M1302.5,-38.07C1289.19,-41.22 1275.46,-44.46 1262.48,-47.53"/>
<polygon fill="#63b8ff" stroke="#63b8ff" points="1303.15,-41.52 1312.08,-35.81 1301.54,-34.7 1303.15,-41.52"/>
</g>
<!-- Node14 -->
<g id="node14" class="node">
<title>Node14</title>
<g id="a_node14"><a xlink:href="class_urho3_d_1_1_connection.html#a0a9e39346bc1f85b9186d3258a178ac1" target="_top" xlink:title="Process a scene update message from the server. Called by Network.">
<polygon fill="white" stroke="#666666" points="1254,-30 1138,-30 1138,0 1254,0 1254,-30"/>
<text text-anchor="start" x="1146" y="-18" font-family="Roboto" font-size="10.00">Urho3D::Connection</text>
<text text-anchor="middle" x="1196" y="-7" font-family="Roboto" font-size="10.00">::ProcessSceneUpdate</text>
</a>
</g>
</g>
<!-- Node8&#45;&gt;Node14 -->
<g id="edge14" class="edge">
<title>Node8&#45;&gt;Node14</title>
<path fill="none" stroke="#63b8ff" d="M1294.45,-17.68C1280.9,-17.3 1267.15,-16.93 1254.43,-16.58"/>
<polygon fill="#63b8ff" stroke="#63b8ff" points="1294.15,-21.17 1304.25,-17.95 1294.35,-14.17 1294.15,-21.17"/>
</g>
<!-- Node10 -->
<g id="node10" class="node">
<title>Node10</title>
<g id="a_node10"><a xlink:href="class_urho3_d_1_1_smoothed_transform.html#a8b09dd0dbfeab2267cf3a24d557e2c1d" target="_top" xlink:title=" ">
<polygon fill="white" stroke="#666666" points="1086,-126 938,-126 938,-96 1086,-96 1086,-126"/>
<text text-anchor="start" x="946" y="-114" font-family="Roboto" font-size="10.00">Urho3D::SmoothedTransform</text>
<text text-anchor="middle" x="1012" y="-103" font-family="Roboto" font-size="10.00">::SetTargetPosition</text>
</a>
</g>
</g>
<!-- Node9&#45;&gt;Node10 -->
<g id="edge10" class="edge">
<title>Node9&#45;&gt;Node10</title>
<path fill="none" stroke="#63b8ff" d="M1125.49,-81.33C1107.67,-86.03 1088.68,-91.04 1071.48,-95.58"/>
<polygon fill="#63b8ff" stroke="#63b8ff" points="1126.17,-84.77 1134.95,-78.84 1124.39,-78 1126.17,-84.77"/>
</g>
<!-- Node12 -->
<g id="node12" class="node">
<title>Node12</title>
<g id="a_node12"><a xlink:href="class_urho3_d_1_1_smoothed_transform.html#a69036b0d190ce6079b9233bef9b3a341" target="_top" xlink:title=" ">
<polygon fill="white" stroke="#666666" points="1086,-78 938,-78 938,-48 1086,-48 1086,-78"/>
<text text-anchor="start" x="946" y="-66" font-family="Roboto" font-size="10.00">Urho3D::SmoothedTransform</text>
<text text-anchor="middle" x="1012" y="-55" font-family="Roboto" font-size="10.00">::SetTargetRotation</text>
</a>
</g>
</g>
<!-- Node9&#45;&gt;Node12 -->
<g id="edge12" class="edge">
<title>Node9&#45;&gt;Node12</title>
<path fill="none" stroke="#63b8ff" d="M1110.46,-63C1102.42,-63 1094.31,-63 1086.39,-63"/>
<polygon fill="#63b8ff" stroke="#63b8ff" points="1110.25,-66.5 1120.25,-63 1110.25,-59.5 1110.25,-66.5"/>
</g>
<!-- Node11 -->
<g id="node11" class="node">
<title>Node11</title>
<g id="a_node11"><a xlink:href="class_urho3_d_1_1_smoothed_transform.html#ae51de7786cf37af2e03027a1f285cca6" target="_top" xlink:title=" ">
<polygon fill="white" stroke="#666666" points="891,-126 743,-126 743,-96 891,-96 891,-126"/>
<text text-anchor="start" x="751" y="-114" font-family="Roboto" font-size="10.00">Urho3D::SmoothedTransform</text>
<text text-anchor="middle" x="817" y="-103" font-family="Roboto" font-size="10.00">::SetTargetWorldPosition</text>
</a>
</g>
</g>
<!-- Node10&#45;&gt;Node11 -->
<g id="edge11" class="edge">
<title>Node10&#45;&gt;Node11</title>
<path fill="none" stroke="#63b8ff" d="M926.56,-111C914.77,-111 902.74,-111 891.19,-111"/>
<polygon fill="#63b8ff" stroke="#63b8ff" points="926.25,-114.5 936.25,-111 926.25,-107.5 926.25,-114.5"/>
</g>
<!-- Node13 -->
<g id="node13" class="node">
<title>Node13</title>
<g id="a_node13"><a xlink:href="class_urho3_d_1_1_smoothed_transform.html#a03c46a0ce7a836fe6e725123fc94b312" target="_top" xlink:title=" ">
<polygon fill="white" stroke="#666666" points="891,-78 743,-78 743,-48 891,-48 891,-78"/>
<text text-anchor="start" x="751" y="-66" font-family="Roboto" font-size="10.00">Urho3D::SmoothedTransform</text>
<text text-anchor="middle" x="817" y="-55" font-family="Roboto" font-size="10.00">::SetTargetWorldRotation</text>
</a>
</g>
</g>
<!-- Node12&#45;&gt;Node13 -->
<g id="edge13" class="edge">
<title>Node12&#45;&gt;Node13</title>
<path fill="none" stroke="#63b8ff" d="M926.56,-63C914.77,-63 902.74,-63 891.19,-63"/>
<polygon fill="#63b8ff" stroke="#63b8ff" points="926.25,-66.5 936.25,-63 926.25,-59.5 926.25,-66.5"/>
</g>
<!-- Node15 -->
<g id="node15" class="node">
<title>Node15</title>
<g id="a_node15"><a xlink:href="class_urho3_d_1_1_connection.html#a577c99b55dfd76a7e6b7f8b1de90c5bd" target="_top" xlink:title="Process a message from the server or client. Called by Network.">
<polygon fill="white" stroke="#666666" points="1064.5,-30 959.5,-30 959.5,0 1064.5,0 1064.5,-30"/>
<text text-anchor="start" x="967.5" y="-18" font-family="Roboto" font-size="10.00">Urho3D::Connection</text>
<text text-anchor="middle" x="1012" y="-7" font-family="Roboto" font-size="10.00">::ProcessMessage</text>
</a>
</g>
</g>
<!-- Node14&#45;&gt;Node15 -->
<g id="edge15" class="edge">
<title>Node14&#45;&gt;Node15</title>
<path fill="none" stroke="#63b8ff" d="M1126.46,-15C1106.07,-15 1084.08,-15 1064.94,-15"/>
<polygon fill="#63b8ff" stroke="#63b8ff" points="1126.4,-18.5 1136.4,-15 1126.4,-11.5 1126.4,-18.5"/>
</g>
<!-- Node16 -->
<g id="node16" class="node">
<title>Node16</title>
<g id="a_node16"><a xlink:href="class_urho3_d_1_1_network.html#a27e675ccc446bc8f6567b4b9f2248f32" target="_top" xlink:title="Handle an inbound message.">
<polygon fill="white" stroke="#666666" points="902,-24.5 732,-24.5 732,-5.5 902,-5.5 902,-24.5"/>
<text text-anchor="middle" x="817" y="-12.5" font-family="Roboto" font-size="10.00">Urho3D::Network::HandleMessage</text>
</a>
</g>
</g>
<!-- Node15&#45;&gt;Node16 -->
<g id="edge16" class="edge">
<title>Node15&#45;&gt;Node16</title>
<path fill="none" stroke="#63b8ff" d="M947.7,-15C933.24,-15 917.65,-15 902.47,-15"/>
<polygon fill="#63b8ff" stroke="#63b8ff" points="947.51,-18.5 957.51,-15 947.51,-11.5 947.51,-18.5"/>
</g>
<!-- Node17 -->
<g id="node17" class="node">
<title>Node17</title>
<g id="a_node17"><a xlink:href="class_urho3_d_1_1_network.html#a3d878e00c02066e4b7d5a77e3e129e12" target="_top" xlink:title="All incoming packages are handled here.">
<polygon fill="white" stroke="#666666" points="696,-30 526,-30 526,0 696,0 696,-30"/>
<text text-anchor="start" x="534" y="-18" font-family="Roboto" font-size="10.00">Urho3D::Network::HandleIncoming</text>
<text text-anchor="middle" x="611" y="-7" font-family="Roboto" font-size="10.00">Packet</text>
</a>
</g>
</g>
<!-- Node16&#45;&gt;Node17 -->
<g id="edge17" class="edge">
<title>Node16&#45;&gt;Node17</title>
<path fill="none" stroke="#63b8ff" d="M720.31,-15C712.32,-15 704.28,-15 696.38,-15"/>
<polygon fill="#63b8ff" stroke="#63b8ff" points="720.04,-18.5 730.04,-15 720.04,-11.5 720.04,-18.5"/>
</g>
<!-- Node18 -->
<g id="node18" class="node">
<title>Node18</title>
<g id="a_node18"><a xlink:href="class_urho3_d_1_1_network.html#a71021827cd049524ec014dd55cc24ea5" target="_top" xlink:title="Process incoming messages from connections. Called by HandleBeginFrame.">
<polygon fill="white" stroke="#666666" points="490,-24.5 361,-24.5 361,-5.5 490,-5.5 490,-24.5"/>
<text text-anchor="middle" x="425.5" y="-12.5" font-family="Roboto" font-size="10.00">Urho3D::Network::Update</text>
</a>
</g>
</g>
<!-- Node17&#45;&gt;Node18 -->
<g id="edge18" class="edge">
<title>Node17&#45;&gt;Node18</title>
<path fill="none" stroke="#63b8ff" d="M514.09,-15C506.02,-15 497.99,-15 490.26,-15"/>
<polygon fill="#63b8ff" stroke="#63b8ff" points="513.99,-18.5 523.99,-15 513.99,-11.5 513.99,-18.5"/>
</g>
<!-- Node19 -->
<g id="node19" class="node">
<title>Node19</title>
<g id="a_node19"><a xlink:href="class_urho3_d_1_1_network.html#aa03da1be461abb4b6567e8470966c594" target="_top" xlink:title="Handle begin frame event.">
<polygon fill="white" stroke="#666666" points="325,-30 172,-30 172,0 325,0 325,-30"/>
<text text-anchor="start" x="180" y="-18" font-family="Roboto" font-size="10.00">Urho3D::Network::HandleBegin</text>
<text text-anchor="middle" x="248.5" y="-7" font-family="Roboto" font-size="10.00">Frame</text>
</a>
</g>
</g>
<!-- Node18&#45;&gt;Node19 -->
<g id="edge19" class="edge">
<title>Node18&#45;&gt;Node19</title>
<path fill="none" stroke="#63b8ff" d="M349.31,-15C341.37,-15 333.28,-15 325.33,-15"/>
<polygon fill="#63b8ff" stroke="#63b8ff" points="349.31,-18.5 359.31,-15 349.31,-11.5 349.31,-18.5"/>
</g>
<!-- Node20 -->
<g id="node20" class="node">
<title>Node20</title>
<g id="a_node20"><a xlink:href="class_urho3_d_1_1_network.html#a566fbbabc194a73f96b4dee6a62a3854" target="_top" xlink:title="Construct.">
<polygon fill="white" stroke="#666666" points="136,-24.5 0,-24.5 0,-5.5 136,-5.5 136,-24.5"/>
<text text-anchor="middle" x="68" y="-12.5" font-family="Roboto" font-size="10.00">Urho3D::Network::Network</text>
</a>
</g>
</g>
<!-- Node19&#45;&gt;Node20 -->
<g id="edge20" class="edge">
<title>Node19&#45;&gt;Node20</title>
<path fill="none" stroke="#63b8ff" d="M160.26,-15C152.25,-15 144.21,-15 136.42,-15"/>
<polygon fill="#63b8ff" stroke="#63b8ff" points="160.03,-18.5 170.03,-15 160.03,-11.5 160.03,-18.5"/>
</g>
</g>
</svg>
