<?xml version="1.0" encoding="UTF-8" standalone="no"?>
<!DOCTYPE svg PUBLIC "-//W3C//DTD SVG 1.1//EN"
 "http://www.w3.org/Graphics/SVG/1.1/DTD/svg11.dtd">
<!-- Generated by graphviz version 7.0.3 (0)
 -->
<!-- Title: Urho3D::StaticModelGroup::OnWorldBoundingBoxUpdate Pages: 1 -->
<svg width="366pt" height="179pt"
 viewBox="0.00 0.00 366.00 178.50" xmlns="http://www.w3.org/2000/svg" xmlns:xlink="http://www.w3.org/1999/xlink">
<g id="graph0" class="graph" transform="scale(1 1) rotate(0) translate(4 174.5)">
<title>Urho3D::StaticModelGroup::OnWorldBoundingBoxUpdate</title>
<!-- Node1 -->
<g id="node1" class="node">
<title>Node1</title>
<g id="a_node1"><a xlink:title="Recalculate the world&#45;space bounding box.">
<polygon fill="#999999" stroke="#666666" points="149,-117 0,-117 0,-87 149,-87 149,-117"/>
<text text-anchor="start" x="8" y="-105" font-family="Roboto" font-size="10.00">Urho3D::StaticModelGroup</text>
<text text-anchor="middle" x="74.5" y="-94" font-family="Roboto" font-size="10.00">::OnWorldBoundingBoxUpdate</text>
</a>
</g>
</g>
<!-- Node2 -->
<g id="node2" class="node">
<title>Node2</title>
<g id="a_node2"><a xlink:href="class_urho3_d_1_1_node.html#a2eb3e2cda5c98b2a92d95fcca8e43fbb" target="_top" xlink:title=" ">
<polygon fill="white" stroke="#666666" points="358,-170.5 185,-170.5 185,-151.5 358,-151.5 358,-170.5"/>
<text text-anchor="middle" x="271.5" y="-158.5" font-family="Roboto" font-size="10.00">Urho3D::Node::GetWorldTransform</text>
</a>
</g>
</g>
<!-- Node1&#45;&gt;Node2 -->
<g id="edge1" class="edge">
<title>Node1&#45;&gt;Node2</title>
<path fill="none" stroke="#63b8ff" d="M112.53,-117.46C133.53,-125.82 160.44,-135.86 185,-143 191.79,-144.97 198.94,-146.82 206.09,-148.53"/>
<polygon fill="#63b8ff" stroke="#63b8ff" points="205.28,-151.94 215.81,-150.76 206.84,-145.11 205.28,-151.94"/>
</g>
<!-- Node3 -->
<g id="node3" class="node">
<title>Node3</title>
<g id="a_node3"><a xlink:href="class_urho3_d_1_1_node.html#a36ffa108037ab29617bf178fcb4ec1da" target="_top" xlink:title=" ">
<polygon fill="white" stroke="#666666" points="335.5,-133.5 207.5,-133.5 207.5,-114.5 335.5,-114.5 335.5,-133.5"/>
<text text-anchor="middle" x="271.5" y="-121.5" font-family="Roboto" font-size="10.00">Urho3D::Node::IsEnabled</text>
</a>
</g>
</g>
<!-- Node1&#45;&gt;Node3 -->
<g id="edge2" class="edge">
<title>Node1&#45;&gt;Node3</title>
<path fill="none" stroke="#63b8ff" d="M149.5,-110.35C164.61,-112.05 180.52,-113.85 195.66,-115.56"/>
<polygon fill="#63b8ff" stroke="#63b8ff" points="195.23,-119.03 205.56,-116.67 196.01,-112.07 195.23,-119.03"/>
</g>
<!-- Node4 -->
<g id="node4" class="node">
<title>Node4</title>
<g id="a_node4"><a xlink:href="class_urho3_d_1_1_bounding_box.html#a4befcf3c67e94eb2f1924e1179b09bd2" target="_top" xlink:title="Merge a point.">
<polygon fill="white" stroke="#666666" points="328,-96 215,-96 215,-66 328,-66 328,-96"/>
<text text-anchor="start" x="223" y="-84" font-family="Roboto" font-size="10.00">Urho3D::BoundingBox</text>
<text text-anchor="middle" x="271.5" y="-73" font-family="Roboto" font-size="10.00">::Merge</text>
</a>
</g>
</g>
<!-- Node1&#45;&gt;Node4 -->
<g id="edge3" class="edge">
<title>Node1&#45;&gt;Node4</title>
<path fill="none" stroke="#63b8ff" d="M149.5,-94.03C167.26,-92.12 186.14,-90.09 203.56,-88.21"/>
<polygon fill="#63b8ff" stroke="#63b8ff" points="203.7,-91.71 213.27,-87.16 202.95,-84.75 203.7,-91.71"/>
</g>
<!-- Node5 -->
<g id="node5" class="node">
<title>Node5</title>
<g id="a_node5"><a xlink:href="class_urho3_d_1_1_bounding_box.html#a00fe243d05516209a4ef6f83ff7179df" target="_top" xlink:title="Return transformed by a 3x3 matrix.">
<polygon fill="white" stroke="#666666" points="328,-30 215,-30 215,0 328,0 328,-30"/>
<text text-anchor="start" x="223" y="-18" font-family="Roboto" font-size="10.00">Urho3D::BoundingBox</text>
<text text-anchor="middle" x="271.5" y="-7" font-family="Roboto" font-size="10.00">::Transformed</text>
</a>
</g>
</g>
<!-- Node1&#45;&gt;Node5 -->
<g id="edge4" class="edge">
<title>Node1&#45;&gt;Node5</title>
<path fill="none" stroke="#63b8ff" d="M109.91,-86.65C142.02,-72.32 190.11,-50.86 225.3,-35.17"/>
<polygon fill="#63b8ff" stroke="#63b8ff" points="226.69,-38.38 234.39,-31.11 223.83,-31.99 226.69,-38.38"/>
</g>
<!-- Node5&#45;&gt;Node5 -->
<g id="edge5" class="edge">
<title>Node5&#45;&gt;Node5</title>
<path fill="none" stroke="#63b8ff" d="M236.87,-30.28C229.18,-39.41 240.72,-48 271.5,-48 288.33,-48 299.41,-45.43 304.74,-41.61"/>
<polygon fill="#63b8ff" stroke="#63b8ff" points="308.2,-42.13 305.94,-31.78 301.25,-41.28 308.2,-42.13"/>
</g>
</g>
</svg>
