<?xml version="1.0" encoding="UTF-8" standalone="no"?>
<!DOCTYPE svg PUBLIC "-//W3C//DTD SVG 1.1//EN"
 "http://www.w3.org/Graphics/SVG/1.1/DTD/svg11.dtd">
<!-- Generated by graphviz version 7.0.3 (0)
 -->
<!-- Title: Urho3D::NavigationMesh::Allocate Pages: 1 -->
<svg width="885pt" height="535pt"
 viewBox="0.00 0.00 885.00 534.50" xmlns="http://www.w3.org/2000/svg" xmlns:xlink="http://www.w3.org/1999/xlink">
<g id="graph0" class="graph" transform="scale(1 1) rotate(0) translate(4 530.5)">
<title>Urho3D::NavigationMesh::Allocate</title>
<!-- Node1 -->
<g id="node1" class="node">
<title>Node1</title>
<g id="a_node1"><a xlink:title="Allocate the navigation mesh without building any tiles. Bounding box is not padded....">
<polygon fill="#999999" stroke="#666666" points="126,-311 0,-311 0,-281 126,-281 126,-311"/>
<text text-anchor="start" x="8" y="-299" font-family="Roboto" font-size="10.00">Urho3D::NavigationMesh</text>
<text text-anchor="middle" x="63" y="-288" font-family="Roboto" font-size="10.00">::Allocate</text>
</a>
</g>
</g>
<!-- Node2 -->
<g id="node2" class="node">
<title>Node2</title>
<g id="a_node2"><a xlink:href="class_urho3_d_1_1_vector3.html#a33cac219f3eab4ffe4d3d5effdde33e0" target="_top" xlink:title="Test for equality with another vector with epsilon.">
<polygon fill="white" stroke="#666666" points="310,-508.5 187,-508.5 187,-489.5 310,-489.5 310,-508.5"/>
<text text-anchor="middle" x="248.5" y="-496.5" font-family="Roboto" font-size="10.00">Urho3D::Vector3::Equals</text>
</a>
</g>
</g>
<!-- Node1&#45;&gt;Node2 -->
<g id="edge1" class="edge">
<title>Node1&#45;&gt;Node2</title>
<path fill="none" stroke="#63b8ff" d="M67.41,-311.33C76.24,-347.18 103.36,-436.83 162,-481 166.32,-484.25 171.09,-486.95 176.1,-489.18"/>
<polygon fill="#63b8ff" stroke="#63b8ff" points="174.66,-492.38 185.26,-492.6 177.12,-485.82 174.66,-492.38"/>
</g>
<!-- Node4 -->
<g id="node4" class="node">
<title>Node4</title>
<g id="a_node4"><a xlink:href="class_urho3_d_1_1_object.html#a8bd9b32c8a56c2f6d618d8afe8091eb7" target="_top" xlink:title="Return execution context.">
<polygon fill="white" stroke="#666666" points="317,-471.5 180,-471.5 180,-452.5 317,-452.5 317,-471.5"/>
<text text-anchor="middle" x="248.5" y="-459.5" font-family="Roboto" font-size="10.00">Urho3D::Object::GetContext</text>
</a>
</g>
</g>
<!-- Node1&#45;&gt;Node4 -->
<g id="edge4" class="edge">
<title>Node1&#45;&gt;Node4</title>
<path fill="none" stroke="#63b8ff" d="M69.64,-311.3C81.63,-341.6 112.66,-409.19 162,-443 164.36,-444.62 166.83,-446.1 169.39,-447.46"/>
<polygon fill="#63b8ff" stroke="#63b8ff" points="167.7,-450.53 178.25,-451.48 170.59,-444.16 167.7,-450.53"/>
</g>
<!-- Node5 -->
<g id="node5" class="node">
<title>Node5</title>
<g id="a_node5"><a xlink:href="class_urho3_d_1_1_context.html#acb628095602a49ade116c4761ab44004" target="_top" xlink:title="Return a preallocated map for event data. Used for optimization to avoid constant re&#45;allocation of ev...">
<polygon fill="white" stroke="#666666" points="314.5,-434 182.5,-434 182.5,-404 314.5,-404 314.5,-434"/>
<text text-anchor="start" x="190.5" y="-422" font-family="Roboto" font-size="10.00">Urho3D::Context::GetEvent</text>
<text text-anchor="middle" x="248.5" y="-411" font-family="Roboto" font-size="10.00">DataMap</text>
</a>
</g>
</g>
<!-- Node1&#45;&gt;Node5 -->
<g id="edge5" class="edge">
<title>Node1&#45;&gt;Node5</title>
<path fill="none" stroke="#63b8ff" d="M74.86,-311.16C91.28,-332.94 124.49,-372.92 162,-395 165.12,-396.84 168.39,-398.54 171.76,-400.12"/>
<polygon fill="#63b8ff" stroke="#63b8ff" points="170.11,-403.22 180.68,-403.89 172.83,-396.77 170.11,-403.22"/>
</g>
<!-- Node17 -->
<g id="node17" class="node">
<title>Node17</title>
<g id="a_node17"><a xlink:href="class_urho3_d_1_1_node.html#a8ae450b752efd7da057b842882d28a23" target="_top" xlink:title=" ">
<polygon fill="white" stroke="#666666" points="323.5,-385.5 173.5,-385.5 173.5,-366.5 323.5,-366.5 323.5,-385.5"/>
<text text-anchor="middle" x="248.5" y="-373.5" font-family="Roboto" font-size="10.00">Urho3D::Node::GetWorldScale</text>
</a>
</g>
</g>
<!-- Node1&#45;&gt;Node17 -->
<g id="edge17" class="edge">
<title>Node1&#45;&gt;Node17</title>
<path fill="none" stroke="#63b8ff" d="M83.49,-311.31C102.49,-325.48 132.71,-346.11 162,-358 166.55,-359.85 171.32,-361.52 176.17,-363.02"/>
<polygon fill="#63b8ff" stroke="#63b8ff" points="174.86,-366.29 185.44,-365.65 176.77,-359.55 174.86,-366.29"/>
</g>
<!-- Node18 -->
<g id="node18" class="node">
<title>Node18</title>
<g id="a_node18"><a xlink:href="class_urho3_d_1_1_node.html#a2eb3e2cda5c98b2a92d95fcca8e43fbb" target="_top" xlink:title=" ">
<polygon fill="white" stroke="#666666" points="335,-348.5 162,-348.5 162,-329.5 335,-329.5 335,-348.5"/>
<text text-anchor="middle" x="248.5" y="-336.5" font-family="Roboto" font-size="10.00">Urho3D::Node::GetWorldTransform</text>
</a>
</g>
</g>
<!-- Node1&#45;&gt;Node18 -->
<g id="edge18" class="edge">
<title>Node1&#45;&gt;Node18</title>
<path fill="none" stroke="#63b8ff" d="M126.16,-311.44C138.05,-314.33 150.4,-317.29 162,-320 171.26,-322.16 181.1,-324.4 190.68,-326.55"/>
<polygon fill="#63b8ff" stroke="#63b8ff" points="189.76,-329.93 200.28,-328.7 191.28,-323.1 189.76,-329.93"/>
</g>
<!-- Node19 -->
<g id="node19" class="node">
<title>Node19</title>
<g id="a_node19"><a xlink:href="class_urho3_d_1_1_matrix3x4.html#a8d184f29d81512103ed020bc0da8a69b" target="_top" xlink:title="Return inverse.">
<polygon fill="white" stroke="#666666" points="300.5,-311 196.5,-311 196.5,-281 300.5,-281 300.5,-311"/>
<text text-anchor="start" x="204.5" y="-299" font-family="Roboto" font-size="10.00">Urho3D::Matrix3x4::</text>
<text text-anchor="middle" x="248.5" y="-288" font-family="Roboto" font-size="10.00">Inverse</text>
</a>
</g>
</g>
<!-- Node1&#45;&gt;Node19 -->
<g id="edge19" class="edge">
<title>Node1&#45;&gt;Node19</title>
<path fill="none" stroke="#63b8ff" d="M126.38,-296C145.22,-296 165.91,-296 184.78,-296"/>
<polygon fill="#63b8ff" stroke="#63b8ff" points="184.74,-299.5 194.74,-296 184.74,-292.5 184.74,-299.5"/>
</g>
<!-- Node20 -->
<g id="node20" class="node">
<title>Node20</title>
<g id="a_node20"><a xlink:href="_math_defs_8h.html#aa40930b7b71e52ee4d2562ba58a63317" target="_top" xlink:title="Return log base two or the MSB position of the given value.">
<polygon fill="white" stroke="#666666" points="305,-244.5 192,-244.5 192,-225.5 305,-225.5 305,-244.5"/>
<text text-anchor="middle" x="248.5" y="-232.5" font-family="Roboto" font-size="10.00">Urho3D::LogBaseTwo</text>
</a>
</g>
</g>
<!-- Node1&#45;&gt;Node20 -->
<g id="edge20" class="edge">
<title>Node1&#45;&gt;Node20</title>
<path fill="none" stroke="#63b8ff" d="M110.3,-280.61C140.02,-270.73 178.24,-258.02 206.79,-248.53"/>
<polygon fill="#63b8ff" stroke="#63b8ff" points="207.78,-251.89 216.17,-245.42 205.57,-245.25 207.78,-251.89"/>
</g>
<!-- Node21 -->
<g id="node21" class="node">
<title>Node21</title>
<g id="a_node21"><a xlink:href="_math_defs_8h.html#a40d33200d2bcbe345b556045ca344b29" target="_top" xlink:title="Round up to next power of two.">
<polygon fill="white" stroke="#666666" points="315.5,-189.5 181.5,-189.5 181.5,-170.5 315.5,-170.5 315.5,-189.5"/>
<text text-anchor="middle" x="248.5" y="-177.5" font-family="Roboto" font-size="10.00">Urho3D::NextPowerOfTwo</text>
</a>
</g>
</g>
<!-- Node1&#45;&gt;Node21 -->
<g id="edge22" class="edge">
<title>Node1&#45;&gt;Node21</title>
<path fill="none" stroke="#63b8ff" d="M80.31,-280.53C98.96,-263.41 130.95,-235.76 162,-217 176.7,-208.12 193.93,-200.24 209.04,-194.05"/>
<polygon fill="#63b8ff" stroke="#63b8ff" points="210.2,-197.36 218.21,-190.42 207.62,-190.85 210.2,-197.36"/>
</g>
<!-- Node22 -->
<g id="node22" class="node">
<title>Node22</title>
<g id="a_node22"><a xlink:href="class_urho3_d_1_1_navigation_mesh.html#a8697f7700e19448df268ebe330e13d12" target="_top" xlink:title="Release the navigation mesh and the query.">
<polygon fill="white" stroke="#666666" points="312,-152 185,-152 185,-122 312,-122 312,-152"/>
<text text-anchor="start" x="193" y="-140" font-family="Roboto" font-size="10.00">Urho3D::NavigationMesh</text>
<text text-anchor="middle" x="248.5" y="-129" font-family="Roboto" font-size="10.00">::ReleaseNavigationMesh</text>
</a>
</g>
</g>
<!-- Node1&#45;&gt;Node22 -->
<g id="edge24" class="edge">
<title>Node1&#45;&gt;Node22</title>
<path fill="none" stroke="#63b8ff" d="M70.76,-280.86C84.06,-252.83 116.37,-192.78 162,-161 165.84,-158.32 169.98,-155.94 174.28,-153.83"/>
<polygon fill="#63b8ff" stroke="#63b8ff" points="175.4,-157.16 183.18,-149.96 172.61,-150.74 175.4,-157.16"/>
</g>
<!-- Node24 -->
<g id="node24" class="node">
<title>Node24</title>
<g id="a_node24"><a xlink:href="class_urho3_d_1_1_object.html#a32020dbf77c196b9777eca479e8abb36" target="_top" xlink:title="Send event to all subscribers.">
<polygon fill="white" stroke="#666666" points="315,-85.5 182,-85.5 182,-66.5 315,-66.5 315,-85.5"/>
<text text-anchor="middle" x="248.5" y="-73.5" font-family="Roboto" font-size="10.00">Urho3D::Object::SendEvent</text>
</a>
</g>
</g>
<!-- Node1&#45;&gt;Node24 -->
<g id="edge26" class="edge">
<title>Node1&#45;&gt;Node24</title>
<path fill="none" stroke="#63b8ff" d="M68.4,-280.57C78.98,-246.05 108.96,-161.8 162,-113 172.71,-103.15 186.45,-95.65 199.76,-90.07"/>
<polygon fill="#63b8ff" stroke="#63b8ff" points="200.81,-93.42 208.88,-86.55 198.29,-86.89 200.81,-93.42"/>
</g>
<!-- Node25 -->
<g id="node25" class="node">
<title>Node25</title>
<g id="a_node25"><a xlink:href="class_urho3_d_1_1_bounding_box.html#a00fe243d05516209a4ef6f83ff7179df" target="_top" xlink:title="Return transformed by a 3x3 matrix.">
<polygon fill="white" stroke="#666666" points="305,-30 192,-30 192,0 305,0 305,-30"/>
<text text-anchor="start" x="200" y="-18" font-family="Roboto" font-size="10.00">Urho3D::BoundingBox</text>
<text text-anchor="middle" x="248.5" y="-7" font-family="Roboto" font-size="10.00">::Transformed</text>
</a>
</g>
</g>
<!-- Node1&#45;&gt;Node25 -->
<g id="edge28" class="edge">
<title>Node1&#45;&gt;Node25</title>
<path fill="none" stroke="#63b8ff" d="M66.43,-280.54C73.66,-239.23 98.61,-124.82 162,-57 170.13,-48.3 180.45,-41.17 191.08,-35.42"/>
<polygon fill="#63b8ff" stroke="#63b8ff" points="192.57,-38.59 199.96,-31 189.45,-32.33 192.57,-38.59"/>
</g>
<!-- Node3 -->
<g id="node3" class="node">
<title>Node3</title>
<g id="a_node3"><a xlink:href="_math_defs_8h.html#ad6a5d6144733a3594df64e9f8cbb3610" target="_top" xlink:title=" ">
<polygon fill="white" stroke="#666666" points="475.5,-508.5 391.5,-508.5 391.5,-489.5 475.5,-489.5 475.5,-508.5"/>
<text text-anchor="middle" x="433.5" y="-496.5" font-family="Roboto" font-size="10.00">Urho3D::Equals</text>
</a>
</g>
</g>
<!-- Node2&#45;&gt;Node3 -->
<g id="edge2" class="edge">
<title>Node2&#45;&gt;Node3</title>
<path fill="none" stroke="#63b8ff" d="M310.44,-499C332.91,-499 358.16,-499 379.84,-499"/>
<polygon fill="#63b8ff" stroke="#63b8ff" points="379.64,-502.5 389.64,-499 379.64,-495.5 379.64,-502.5"/>
</g>
<!-- Node3&#45;&gt;Node3 -->
<g id="edge3" class="edge">
<title>Node3&#45;&gt;Node3</title>
<path fill="none" stroke="#63b8ff" d="M406.49,-508.87C394.18,-517.44 403.18,-526.5 433.5,-526.5 450.56,-526.5 460.87,-523.63 464.43,-519.6"/>
<polygon fill="#63b8ff" stroke="#63b8ff" points="467.75,-518.48 461.03,-510.29 461.17,-520.88 467.75,-518.48"/>
</g>
<!-- Node6 -->
<g id="node6" class="node">
<title>Node6</title>
<g id="a_node6"><a xlink:href="class_urho3_d_1_1_hash_map.html#ac02bdba9ea0d1055a3a75f6bae2ffc69" target="_top" xlink:title="Clear the map.">
<polygon fill="white" stroke="#666666" points="496,-428.5 371,-428.5 371,-409.5 496,-409.5 496,-428.5"/>
<text text-anchor="middle" x="433.5" y="-416.5" font-family="Roboto" font-size="10.00">Urho3D::HashMap::Clear</text>
</a>
</g>
</g>
<!-- Node5&#45;&gt;Node6 -->
<g id="edge6" class="edge">
<title>Node5&#45;&gt;Node6</title>
<path fill="none" stroke="#63b8ff" d="M314.79,-419C329.27,-419 344.7,-419 359.47,-419"/>
<polygon fill="#63b8ff" stroke="#63b8ff" points="359.09,-422.5 369.09,-419 359.09,-415.5 359.09,-422.5"/>
</g>
<!-- Node7 -->
<g id="node7" class="node">
<title>Node7</title>
<g id="a_node7"><a xlink:href="class_urho3_d_1_1_hash_map.html#a620be7ef6fc8e2958ef4f09523fd5c72" target="_top" xlink:title="Return iterator to the beginning.">
<polygon fill="white" stroke="#666666" points="669,-521.5 543,-521.5 543,-502.5 669,-502.5 669,-521.5"/>
<text text-anchor="middle" x="606" y="-509.5" font-family="Roboto" font-size="10.00">Urho3D::HashMap::Begin</text>
</a>
</g>
</g>
<!-- Node6&#45;&gt;Node7 -->
<g id="edge7" class="edge">
<title>Node6&#45;&gt;Node7</title>
<path fill="none" stroke="#63b8ff" d="M444.36,-428.89C460.96,-444.98 496.21,-476.77 532,-494 535.29,-495.59 538.74,-497.04 542.27,-498.37"/>
<polygon fill="#63b8ff" stroke="#63b8ff" points="540.98,-501.63 551.58,-501.53 543.23,-495 540.98,-501.63"/>
</g>
<!-- Node9 -->
<g id="node9" class="node">
<title>Node9</title>
<g id="a_node9"><a xlink:href="class_urho3_d_1_1_hash_map.html#a47eb201d8441d4e4be8626e615cb562d" target="_top" xlink:title="Return iterator to the end.">
<polygon fill="white" stroke="#666666" points="665.5,-484.5 546.5,-484.5 546.5,-465.5 665.5,-465.5 665.5,-484.5"/>
<text text-anchor="middle" x="606" y="-472.5" font-family="Roboto" font-size="10.00">Urho3D::HashMap::End</text>
</a>
</g>
</g>
<!-- Node6&#45;&gt;Node9 -->
<g id="edge9" class="edge">
<title>Node6&#45;&gt;Node9</title>
<path fill="none" stroke="#63b8ff" d="M457.44,-428.92C477.01,-437.14 506.02,-448.77 532,-457 537.76,-458.82 543.81,-460.57 549.88,-462.22"/>
<polygon fill="#63b8ff" stroke="#63b8ff" points="548.71,-465.53 559.27,-464.68 550.48,-458.76 548.71,-465.53"/>
</g>
<!-- Node11 -->
<g id="node11" class="node">
<title>Node11</title>
<g id="a_node11"><a xlink:href="class_urho3_d_1_1_hash_map.html#a3313b8ec65ab0b23c74570898b09175c" target="_top" xlink:title="Free a node.">
<polygon fill="white" stroke="#666666" points="679,-447.5 533,-447.5 533,-428.5 679,-428.5 679,-447.5"/>
<text text-anchor="middle" x="606" y="-435.5" font-family="Roboto" font-size="10.00">Urho3D::HashMap::FreeNode</text>
</a>
</g>
</g>
<!-- Node6&#45;&gt;Node11 -->
<g id="edge11" class="edge">
<title>Node6&#45;&gt;Node11</title>
<path fill="none" stroke="#63b8ff" d="M496.05,-425.86C504.28,-426.78 512.82,-427.73 521.34,-428.68"/>
<polygon fill="#63b8ff" stroke="#63b8ff" points="520.68,-432.12 531,-429.75 521.45,-425.17 520.68,-432.12"/>
</g>
<!-- Node12 -->
<g id="node12" class="node">
<title>Node12</title>
<g id="a_node12"><a xlink:href="class_urho3_d_1_1_hash_base.html#a2774d115a617b0d6c315132352d43c01" target="_top" xlink:title="Reset bucket head pointers.">
<polygon fill="white" stroke="#666666" points="680,-410.5 532,-410.5 532,-391.5 680,-391.5 680,-410.5"/>
<text text-anchor="middle" x="606" y="-398.5" font-family="Roboto" font-size="10.00">Urho3D::HashBase::ResetPtrs</text>
</a>
</g>
</g>
<!-- Node6&#45;&gt;Node12 -->
<g id="edge12" class="edge">
<title>Node6&#45;&gt;Node12</title>
<path fill="none" stroke="#63b8ff" d="M496.05,-412.5C503.99,-411.66 512.22,-410.79 520.45,-409.93"/>
<polygon fill="#63b8ff" stroke="#63b8ff" points="520.54,-413.44 530.12,-408.91 519.81,-406.47 520.54,-413.44"/>
</g>
<!-- Node15 -->
<g id="node15" class="node">
<title>Node15</title>
<g id="a_node15"><a xlink:href="class_urho3_d_1_1_hash_base.html#a7790b0fb5131f0e0a098e322c9198f39" target="_top" xlink:title="Set new size.">
<polygon fill="white" stroke="#666666" points="674.5,-373.5 537.5,-373.5 537.5,-354.5 674.5,-354.5 674.5,-373.5"/>
<text text-anchor="middle" x="606" y="-361.5" font-family="Roboto" font-size="10.00">Urho3D::HashBase::SetSize</text>
</a>
</g>
</g>
<!-- Node6&#45;&gt;Node15 -->
<g id="edge15" class="edge">
<title>Node6&#45;&gt;Node15</title>
<path fill="none" stroke="#63b8ff" d="M459.11,-409.14C478.69,-401.49 506.86,-390.89 532,-383 538.72,-380.89 545.85,-378.83 552.9,-376.88"/>
<polygon fill="#63b8ff" stroke="#63b8ff" points="553.66,-380.31 562.41,-374.34 551.84,-373.55 553.66,-380.31"/>
</g>
<!-- Node16 -->
<g id="node16" class="node">
<title>Node16</title>
<g id="a_node16"><a xlink:href="class_urho3_d_1_1_hash_base.html#a42b5c2ba692fe96bff763b501b8922a9" target="_top" xlink:title="Return number of elements.">
<polygon fill="white" stroke="#666666" points="667.5,-336.5 544.5,-336.5 544.5,-317.5 667.5,-317.5 667.5,-336.5"/>
<text text-anchor="middle" x="606" y="-324.5" font-family="Roboto" font-size="10.00">Urho3D::HashBase::Size</text>
</a>
</g>
</g>
<!-- Node6&#45;&gt;Node16 -->
<g id="edge16" class="edge">
<title>Node6&#45;&gt;Node16</title>
<path fill="none" stroke="#63b8ff" d="M444.71,-409.18C461.53,-393.54 496.75,-362.97 532,-346 536.25,-343.96 540.74,-342.11 545.34,-340.45"/>
<polygon fill="#63b8ff" stroke="#63b8ff" points="546.3,-343.81 554.71,-337.37 544.12,-337.16 546.3,-343.81"/>
</g>
<!-- Node8 -->
<g id="node8" class="node">
<title>Node8</title>
<g id="a_node8"><a xlink:href="class_urho3_d_1_1_hash_map.html#a992327678684d4e38150f32fc676faaf" target="_top" xlink:title="Return the head node.">
<polygon fill="white" stroke="#666666" points="859.5,-521.5 733.5,-521.5 733.5,-502.5 859.5,-502.5 859.5,-521.5"/>
<text text-anchor="middle" x="796.5" y="-509.5" font-family="Roboto" font-size="10.00">Urho3D::HashMap::Head</text>
</a>
</g>
</g>
<!-- Node7&#45;&gt;Node8 -->
<g id="edge8" class="edge">
<title>Node7&#45;&gt;Node8</title>
<path fill="none" stroke="#63b8ff" d="M669.24,-512C686.13,-512 704.58,-512 722.03,-512"/>
<polygon fill="#63b8ff" stroke="#63b8ff" points="721.81,-515.5 731.81,-512 721.81,-508.5 721.81,-515.5"/>
</g>
<!-- Node10 -->
<g id="node10" class="node">
<title>Node10</title>
<g id="a_node10"><a xlink:href="class_urho3_d_1_1_hash_map.html#ac7ee3646e27a2a7710ab5786cb0b7c73" target="_top" xlink:title="Return the tail node.">
<polygon fill="white" stroke="#666666" points="855,-484.5 738,-484.5 738,-465.5 855,-465.5 855,-484.5"/>
<text text-anchor="middle" x="796.5" y="-472.5" font-family="Roboto" font-size="10.00">Urho3D::HashMap::Tail</text>
</a>
</g>
</g>
<!-- Node9&#45;&gt;Node10 -->
<g id="edge10" class="edge">
<title>Node9&#45;&gt;Node10</title>
<path fill="none" stroke="#63b8ff" d="M665.87,-475C685.01,-475 706.43,-475 726.26,-475"/>
<polygon fill="#63b8ff" stroke="#63b8ff" points="726.21,-478.5 736.21,-475 726.21,-471.5 726.21,-478.5"/>
</g>
<!-- Node13 -->
<g id="node13" class="node">
<title>Node13</title>
<g id="a_node13"><a xlink:href="class_urho3_d_1_1_hash_base.html#af0f242c3642f60dc7cf69f3b7d24fa11" target="_top" xlink:title="Return number of buckets.">
<polygon fill="white" stroke="#666666" points="877,-428.5 716,-428.5 716,-409.5 877,-409.5 877,-428.5"/>
<text text-anchor="middle" x="796.5" y="-416.5" font-family="Roboto" font-size="10.00">Urho3D::HashBase::NumBuckets</text>
</a>
</g>
</g>
<!-- Node12&#45;&gt;Node13 -->
<g id="edge13" class="edge">
<title>Node12&#45;&gt;Node13</title>
<path fill="none" stroke="#63b8ff" d="M680.42,-408.01C688.29,-408.76 696.36,-409.53 704.4,-410.3"/>
<polygon fill="#63b8ff" stroke="#63b8ff" points="703.94,-413.77 714.22,-411.24 704.6,-406.8 703.94,-413.77"/>
</g>
<!-- Node14 -->
<g id="node14" class="node">
<title>Node14</title>
<g id="a_node14"><a xlink:href="class_urho3_d_1_1_hash_base.html#ab2e9d0c50ac79b0a7eccd15b096745e9" target="_top" xlink:title="Return bucket head pointers.">
<polygon fill="white" stroke="#666666" points="858,-391.5 735,-391.5 735,-372.5 858,-372.5 858,-391.5"/>
<text text-anchor="middle" x="796.5" y="-379.5" font-family="Roboto" font-size="10.00">Urho3D::HashBase::Ptrs</text>
</a>
</g>
</g>
<!-- Node12&#45;&gt;Node14 -->
<g id="edge14" class="edge">
<title>Node12&#45;&gt;Node14</title>
<path fill="none" stroke="#63b8ff" d="M680.42,-393.6C694.61,-392.17 709.47,-390.67 723.61,-389.25"/>
<polygon fill="#63b8ff" stroke="#63b8ff" points="723.67,-392.76 733.27,-388.27 722.97,-385.79 723.67,-392.76"/>
</g>
<!-- Node20&#45;&gt;Node20 -->
<g id="edge21" class="edge">
<title>Node20&#45;&gt;Node20</title>
<path fill="none" stroke="#63b8ff" d="M219.54,-244.87C206.33,-253.44 215.98,-262.5 248.5,-262.5 267.3,-262.5 278.46,-259.47 281.97,-255.26"/>
<polygon fill="#63b8ff" stroke="#63b8ff" points="285.26,-254.04 278.07,-246.26 278.84,-256.82 285.26,-254.04"/>
</g>
<!-- Node21&#45;&gt;Node21 -->
<g id="edge23" class="edge">
<title>Node21&#45;&gt;Node21</title>
<path fill="none" stroke="#63b8ff" d="M219.54,-189.87C206.33,-198.44 215.98,-207.5 248.5,-207.5 267.3,-207.5 278.46,-204.47 281.97,-200.26"/>
<polygon fill="#63b8ff" stroke="#63b8ff" points="285.26,-199.04 278.07,-191.26 278.84,-201.82 285.26,-199.04"/>
</g>
<!-- Node23 -->
<g id="node23" class="node">
<title>Node23</title>
<g id="a_node23"><a xlink:href="class_urho3_d_1_1_bounding_box.html#afef3c1bfa3910387adb4f5992371a8dd" target="_top" xlink:title="Clear to undefined state.">
<polygon fill="white" stroke="#666666" points="490,-152 377,-152 377,-122 490,-122 490,-152"/>
<text text-anchor="start" x="385" y="-140" font-family="Roboto" font-size="10.00">Urho3D::BoundingBox</text>
<text text-anchor="middle" x="433.5" y="-129" font-family="Roboto" font-size="10.00">::Clear</text>
</a>
</g>
</g>
<!-- Node22&#45;&gt;Node23 -->
<g id="edge25" class="edge">
<title>Node22&#45;&gt;Node23</title>
<path fill="none" stroke="#63b8ff" d="M312.48,-137C329.61,-137 348.22,-137 365.57,-137"/>
<polygon fill="#63b8ff" stroke="#63b8ff" points="365.24,-140.5 375.24,-137 365.24,-133.5 365.24,-140.5"/>
</g>
<!-- Node24&#45;&gt;Node24 -->
<g id="edge27" class="edge">
<title>Node24&#45;&gt;Node24</title>
<path fill="none" stroke="#63b8ff" d="M219.54,-85.87C206.33,-94.44 215.98,-103.5 248.5,-103.5 267.3,-103.5 278.46,-100.47 281.97,-96.26"/>
<polygon fill="#63b8ff" stroke="#63b8ff" points="285.26,-95.04 278.07,-87.26 278.84,-97.82 285.26,-95.04"/>
</g>
<!-- Node25&#45;&gt;Node25 -->
<g id="edge29" class="edge">
<title>Node25&#45;&gt;Node25</title>
<path fill="none" stroke="#63b8ff" d="M215.98,-30.28C208.75,-39.41 219.59,-48 248.5,-48 264.31,-48 274.71,-45.43 279.71,-41.61"/>
<polygon fill="#63b8ff" stroke="#63b8ff" points="283.18,-42.11 280.85,-31.78 276.23,-41.31 283.18,-42.11"/>
</g>
</g>
</svg>
