<?xml version="1.0" encoding="UTF-8" standalone="no"?>
<!DOCTYPE svg PUBLIC "-//W3C//DTD SVG 1.1//EN"
 "http://www.w3.org/Graphics/SVG/1.1/DTD/svg11.dtd">
<!-- Generated by graphviz version 7.0.3 (0)
 -->
<!-- Title: Urho3D::ParticleEffect::BeginLoad Pages: 1 -->
<svg width="965pt" height="798pt"
 viewBox="0.00 0.00 965.00 798.00" xmlns="http://www.w3.org/2000/svg" xmlns:xlink="http://www.w3.org/1999/xlink">
<g id="graph0" class="graph" transform="scale(1 1) rotate(0) translate(4 794)">
<title>Urho3D::ParticleEffect::BeginLoad</title>
<!-- Node1 -->
<g id="node1" class="node">
<title>Node1</title>
<g id="a_node1"><a xlink:title="Load resource from stream. May be called from a worker thread. Return true if successful.">
<polygon fill="#999999" stroke="#666666" points="113,-431.5 0,-431.5 0,-401.5 113,-401.5 113,-431.5"/>
<text text-anchor="start" x="8" y="-419.5" font-family="Roboto" font-size="10.00">Urho3D::ParticleEffect</text>
<text text-anchor="middle" x="56.5" y="-408.5" font-family="Roboto" font-size="10.00">::BeginLoad</text>
</a>
</g>
</g>
<!-- Node2 -->
<g id="node2" class="node">
<title>Node2</title>
<g id="a_node2"><a xlink:href="class_urho3_d_1_1_string.html#ac6f0b2fb0bce5afbeb088c7cb15abbe1" target="_top" xlink:title="Clear the string.">
<polygon fill="white" stroke="#666666" points="288,-740 180,-740 180,-721 288,-721 288,-740"/>
<text text-anchor="middle" x="234" y="-728" font-family="Roboto" font-size="10.00">Urho3D::String::Clear</text>
</a>
</g>
</g>
<!-- Node1&#45;&gt;Node2 -->
<g id="edge1" class="edge">
<title>Node1&#45;&gt;Node2</title>
<path fill="none" stroke="#63b8ff" d="M61.57,-431.99C72.01,-470.01 102.27,-570.14 149,-642.5 166.74,-669.97 193.75,-696.41 212.33,-713.01"/>
<polygon fill="#63b8ff" stroke="#63b8ff" points="209.97,-715.59 219.8,-719.54 214.57,-710.32 209.97,-715.59"/>
</g>
<!-- Node5 -->
<g id="node4" class="node">
<title>Node5</title>
<g id="a_node4"><a xlink:href="class_urho3_d_1_1_x_m_l_file.html#a657534de06bc465c977cc3c28139cec4" target="_top" xlink:title="Return the root element, with optionally specified name. Return null element if not found.">
<polygon fill="white" stroke="#666666" points="299.5,-633 168.5,-633 168.5,-614 299.5,-614 299.5,-633"/>
<text text-anchor="middle" x="234" y="-621" font-family="Roboto" font-size="10.00">Urho3D::XMLFile::GetRoot</text>
</a>
</g>
</g>
<!-- Node1&#45;&gt;Node5 -->
<g id="edge3" class="edge">
<title>Node1&#45;&gt;Node5</title>
<path fill="none" stroke="#63b8ff" d="M70.4,-431.72C102.06,-469.06 183.47,-565.08 217.59,-605.33"/>
<polygon fill="#63b8ff" stroke="#63b8ff" points="214.72,-607.35 223.86,-612.72 220.06,-602.83 214.72,-607.35"/>
</g>
<!-- Node7 -->
<g id="node6" class="node">
<title>Node7</title>
<g id="a_node6"><a xlink:href="class_urho3_d_1_1_deserializer.html#a29f095da2db6cf9e4c7e76365341466e" target="_top" xlink:title=" ">
<polygon fill="white" stroke="#666666" points="287.5,-455.5 180.5,-455.5 180.5,-425.5 287.5,-425.5 287.5,-455.5"/>
<text text-anchor="start" x="188.5" y="-443.5" font-family="Roboto" font-size="10.00">Urho3D::Deserializer</text>
<text text-anchor="middle" x="234" y="-432.5" font-family="Roboto" font-size="10.00">::GetSize</text>
</a>
</g>
</g>
<!-- Node1&#45;&gt;Node7 -->
<g id="edge5" class="edge">
<title>Node1&#45;&gt;Node7</title>
<path fill="none" stroke="#63b8ff" d="M113.03,-424.09C130.83,-426.53 150.68,-429.24 169.03,-431.75"/>
<polygon fill="#63b8ff" stroke="#63b8ff" points="168.34,-435.19 178.73,-433.08 169.29,-428.26 168.34,-435.19"/>
</g>
<!-- Node8 -->
<g id="node7" class="node">
<title>Node8</title>
<g id="a_node7"><a xlink:href="class_urho3_d_1_1_particle_effect.html#a6dc4d9435d5a4231bbe2e062a8868a8c" target="_top" xlink:title="Load resource from XMLElement synchronously. Return true if successful.">
<polygon fill="#fff0f0" stroke="red" points="290.5,-407.5 177.5,-407.5 177.5,-377.5 290.5,-377.5 290.5,-407.5"/>
<text text-anchor="start" x="185.5" y="-395.5" font-family="Roboto" font-size="10.00">Urho3D::ParticleEffect</text>
<text text-anchor="middle" x="234" y="-384.5" font-family="Roboto" font-size="10.00">::Load</text>
</a>
</g>
</g>
<!-- Node1&#45;&gt;Node8 -->
<g id="edge6" class="edge">
<title>Node1&#45;&gt;Node8</title>
<path fill="none" stroke="#63b8ff" d="M113.03,-408.91C129.83,-406.61 148.47,-404.06 165.94,-401.67"/>
<polygon fill="#63b8ff" stroke="#63b8ff" points="166.3,-405.15 175.73,-400.33 165.35,-398.22 166.3,-405.15"/>
</g>
<!-- Node47 -->
<g id="node24" class="node">
<title>Node47</title>
<g id="a_node24"><a xlink:href="class_urho3_d_1_1_resource.html#ab0f4146b46be0c02323e3211e8a6aadf" target="_top" xlink:title="Load resource synchronously. Call both BeginLoad() &amp; EndLoad() and return true if both succeeded.">
<polygon fill="#fff0f0" stroke="red" points="804,-115 681,-115 681,-96 804,-96 804,-115"/>
<text text-anchor="middle" x="742.5" y="-103" font-family="Roboto" font-size="10.00">Urho3D::Resource::Load</text>
</a>
</g>
</g>
<!-- Node1&#45;&gt;Node47 -->
<g id="edge43" class="edge">
<title>Node1&#45;&gt;Node47</title>
<path fill="none" stroke="#63b8ff" d="M65.12,-401.35C93.89,-345.97 202.15,-153.85 355,-78.5 470.7,-21.46 518.37,-41.88 645,-66.5 668.87,-71.14 694.32,-81.68 713.08,-90.64"/>
<polygon fill="#63b8ff" stroke="#63b8ff" points="711.42,-93.72 721.94,-95 714.51,-87.44 711.42,-93.72"/>
</g>
<!-- Node55 -->
<g id="node25" class="node">
<title>Node55</title>
<g id="a_node25"><a xlink:href="class_urho3_d_1_1_resource.html#a965ad58111e131f7725edec44358c75e" target="_top" xlink:title="Set memory use in bytes, possibly approximate.">
<polygon fill="white" stroke="#666666" points="319,-19 149,-19 149,0 319,0 319,-19"/>
<text text-anchor="middle" x="234" y="-7" font-family="Roboto" font-size="10.00">Urho3D::Resource::SetMemoryUse</text>
</a>
</g>
</g>
<!-- Node1&#45;&gt;Node55 -->
<g id="edge46" class="edge">
<title>Node1&#45;&gt;Node55</title>
<path fill="none" stroke="#63b8ff" d="M59.09,-401.36C66.12,-337.2 96.41,-88.44 149,-33.5 152.3,-30.05 156.07,-27.08 160.12,-24.54"/>
<polygon fill="#63b8ff" stroke="#63b8ff" points="161.49,-27.77 168.71,-20.03 158.23,-21.58 161.49,-27.77"/>
</g>
<!-- Node3 -->
<g id="node3" class="node">
<title>Node3</title>
<g id="a_node3"><a xlink:href="class_urho3_d_1_1_string.html#aed2d8d23da6f2403c7aaa20082036f88" target="_top" xlink:title="Resize the string.">
<polygon fill="#fff0f0" stroke="red" points="483.5,-790 369.5,-790 369.5,-771 483.5,-771 483.5,-790"/>
<text text-anchor="middle" x="426.5" y="-778" font-family="Roboto" font-size="10.00">Urho3D::String::Resize</text>
</a>
</g>
</g>
<!-- Node2&#45;&gt;Node3 -->
<g id="edge2" class="edge">
<title>Node2&#45;&gt;Node3</title>
<path fill="none" stroke="#63b8ff" d="M272,-740.48C295.71,-746.84 327.15,-755.23 355,-762.5 361.66,-764.24 368.67,-766.05 375.59,-767.83"/>
<polygon fill="#63b8ff" stroke="#63b8ff" points="374.3,-771.11 384.86,-770.2 376.04,-764.33 374.3,-771.11"/>
</g>
<!-- Node6 -->
<g id="node5" class="node">
<title>Node6</title>
<g id="a_node5"><a xlink:href="class_urho3_d_1_1_string.html#a8413f000551027cd127996e3c5b00185" target="_top" xlink:title=" ">
<polygon fill="white" stroke="#666666" points="483,-753 370,-753 370,-734 483,-734 483,-753"/>
<text text-anchor="middle" x="426.5" y="-741" font-family="Roboto" font-size="10.00">Urho3D::String::Empty</text>
</a>
</g>
</g>
<!-- Node5&#45;&gt;Node6 -->
<g id="edge4" class="edge">
<title>Node5&#45;&gt;Node6</title>
<path fill="none" stroke="#63b8ff" d="M244.72,-633.29C264.1,-652.32 309.61,-694.62 355,-719.5 362.17,-723.43 370.1,-726.88 377.98,-729.86"/>
<polygon fill="#63b8ff" stroke="#63b8ff" points="376.59,-733.08 387.19,-733.11 378.92,-726.48 376.59,-733.08"/>
</g>
<!-- Node9 -->
<g id="node8" class="node">
<title>Node9</title>
<g id="a_node8"><a xlink:href="class_urho3_d_1_1_string.html#a3e075eaafa63ccbe5b6f28a2ad7a50ad" target="_top" xlink:title="Return the C string.">
<polygon fill="white" stroke="#666666" points="957,-512 840,-512 840,-493 957,-493 957,-512"/>
<text text-anchor="middle" x="898.5" y="-500" font-family="Roboto" font-size="10.00">Urho3D::String::CString</text>
</a>
</g>
</g>
<!-- Node8&#45;&gt;Node9 -->
<g id="edge7" class="edge">
<title>Node8&#45;&gt;Node9</title>
<path fill="none" stroke="#63b8ff" d="M290.87,-406.17C300.42,-409.15 310.11,-412.6 319,-416.5 336.17,-424.03 337.28,-432.37 355,-438.5 398.86,-453.67 692.83,-483.06 828.78,-496.05"/>
<polygon fill="#63b8ff" stroke="#63b8ff" points="828.07,-499.5 838.35,-496.97 828.73,-492.53 828.07,-499.5"/>
</g>
<!-- Node10 -->
<g id="node9" class="node">
<title>Node10</title>
<g id="a_node9"><a xlink:href="class_urho3_d_1_1_resource.html#a35f0e2447dcc25e8f3b9e42e10b69737" target="_top" xlink:title="Return the asynchronous loading state.">
<polygon fill="white" stroke="#666666" points="498,-515.5 355,-515.5 355,-485.5 498,-485.5 498,-515.5"/>
<text text-anchor="start" x="363" y="-503.5" font-family="Roboto" font-size="10.00">Urho3D::Resource::GetAsync</text>
<text text-anchor="middle" x="426.5" y="-492.5" font-family="Roboto" font-size="10.00">LoadState</text>
</a>
</g>
</g>
<!-- Node8&#45;&gt;Node10 -->
<g id="edge8" class="edge">
<title>Node8&#45;&gt;Node10</title>
<path fill="none" stroke="#63b8ff" d="M290.93,-402.42C300.88,-405.82 310.7,-410.38 319,-416.5 342.52,-433.82 332.48,-452.89 355,-471.5 358.67,-474.54 362.71,-477.29 366.93,-479.78"/>
<polygon fill="#63b8ff" stroke="#63b8ff" points="365.22,-482.84 375.7,-484.43 368.5,-476.66 365.22,-482.84"/>
</g>
<!-- Node11 -->
<g id="node10" class="node">
<title>Node11</title>
<g id="a_node10"><a xlink:href="class_urho3_d_1_1_x_m_l_element.html#a6de3d4f87f59ced8e52fa31f3a83873c" target="_top" xlink:title="Return attribute, or empty if missing.">
<polygon fill="#fff0f0" stroke="red" points="798,-263.5 687,-263.5 687,-233.5 798,-233.5 798,-263.5"/>
<text text-anchor="start" x="695" y="-251.5" font-family="Roboto" font-size="10.00">Urho3D::XMLElement</text>
<text text-anchor="middle" x="742.5" y="-240.5" font-family="Roboto" font-size="10.00">::GetAttribute</text>
</a>
</g>
</g>
<!-- Node8&#45;&gt;Node11 -->
<g id="edge9" class="edge">
<title>Node8&#45;&gt;Node11</title>
<path fill="none" stroke="#63b8ff" d="M238.4,-377.2C248.32,-336.55 281.29,-225.58 355,-175.5 461.95,-102.85 525.48,-103.18 645,-152.5 679.79,-166.86 708.64,-200.5 725.47,-223.88"/>
<polygon fill="#63b8ff" stroke="#63b8ff" points="722.5,-225.73 731.07,-231.94 728.24,-221.73 722.5,-225.73"/>
</g>
<!-- Node13 -->
<g id="node11" class="node">
<title>Node13</title>
<g id="a_node11"><a xlink:href="class_urho3_d_1_1_x_m_l_element.html#a92036a0cb99ae57618057338d1145f38" target="_top" xlink:title="Return attribute in lowercase, or empty if missing.">
<polygon fill="#fff0f0" stroke="red" points="645,-105.5 534,-105.5 534,-75.5 645,-75.5 645,-105.5"/>
<text text-anchor="start" x="542" y="-93.5" font-family="Roboto" font-size="10.00">Urho3D::XMLElement</text>
<text text-anchor="middle" x="589.5" y="-82.5" font-family="Roboto" font-size="10.00">::GetAttributeLower</text>
</a>
</g>
</g>
<!-- Node8&#45;&gt;Node13 -->
<g id="edge11" class="edge">
<title>Node8&#45;&gt;Node13</title>
<path fill="none" stroke="#63b8ff" d="M236.57,-377.22C242.33,-329.94 266.76,-185.21 355,-119.5 402.72,-83.96 471.73,-79.48 522.35,-82.21"/>
<polygon fill="#63b8ff" stroke="#63b8ff" points="522.11,-85.7 532.32,-82.87 522.57,-78.72 522.11,-85.7"/>
</g>
<!-- Node15 -->
<g id="node12" class="node">
<title>Node15</title>
<g id="a_node12"><a xlink:href="class_urho3_d_1_1_x_m_l_element.html#a2451ba18a17d36d2c6e9b1ef94979198" target="_top" xlink:title="Return bool attribute, or false if missing.">
<polygon fill="white" stroke="#666666" points="645,-287.5 534,-287.5 534,-257.5 645,-257.5 645,-287.5"/>
<text text-anchor="start" x="542" y="-275.5" font-family="Roboto" font-size="10.00">Urho3D::XMLElement</text>
<text text-anchor="middle" x="589.5" y="-264.5" font-family="Roboto" font-size="10.00">::GetBool</text>
</a>
</g>
</g>
<!-- Node8&#45;&gt;Node15 -->
<g id="edge13" class="edge">
<title>Node8&#45;&gt;Node15</title>
<path fill="none" stroke="#63b8ff" d="M247.05,-377.21C266.74,-353.54 308.29,-308.75 355,-289.5 408.4,-267.49 474.47,-264.67 522.68,-266.53"/>
<polygon fill="#63b8ff" stroke="#63b8ff" points="522.25,-270.01 532.41,-266.99 522.58,-263.02 522.25,-270.01"/>
</g>
<!-- Node16 -->
<g id="node13" class="node">
<title>Node16</title>
<g id="a_node13"><a xlink:href="class_urho3_d_1_1_x_m_l_element.html#abb0379163b8d534a37e24740a4e0cd0f" target="_top" xlink:title="Return child element, or null if missing.">
<polygon fill="white" stroke="#666666" points="798,-718.5 687,-718.5 687,-688.5 798,-688.5 798,-718.5"/>
<text text-anchor="start" x="695" y="-706.5" font-family="Roboto" font-size="10.00">Urho3D::XMLElement</text>
<text text-anchor="middle" x="742.5" y="-695.5" font-family="Roboto" font-size="10.00">::GetChild</text>
</a>
</g>
</g>
<!-- Node8&#45;&gt;Node16 -->
<g id="edge15" class="edge">
<title>Node8&#45;&gt;Node16</title>
<path fill="none" stroke="#63b8ff" d="M290.82,-398.81C301.5,-402.46 311.63,-408.04 319,-416.5 393.63,-502.12 272.84,-591.08 355,-669.5 399.47,-711.94 577,-711.15 675.25,-707.19"/>
<polygon fill="#63b8ff" stroke="#63b8ff" points="675.18,-710.7 685.02,-706.78 674.88,-703.71 675.18,-710.7"/>
</g>
<!-- Node17 -->
<g id="node14" class="node">
<title>Node17</title>
<g id="a_node14"><a xlink:href="class_urho3_d_1_1_x_m_l_element.html#a5df7e4c9778435ad1f023a2e45fc4b0f" target="_top" xlink:title="Return a color attribute, or default if missing.">
<polygon fill="white" stroke="#666666" points="645,-239.5 534,-239.5 534,-209.5 645,-209.5 645,-239.5"/>
<text text-anchor="start" x="542" y="-227.5" font-family="Roboto" font-size="10.00">Urho3D::XMLElement</text>
<text text-anchor="middle" x="589.5" y="-216.5" font-family="Roboto" font-size="10.00">::GetColor</text>
</a>
</g>
</g>
<!-- Node8&#45;&gt;Node17 -->
<g id="edge18" class="edge">
<title>Node8&#45;&gt;Node17</title>
<path fill="none" stroke="#63b8ff" d="M244.01,-377.42C261.53,-349.59 303.06,-290.43 355,-262.5 406.74,-234.68 473.56,-226.08 522.45,-223.92"/>
<polygon fill="#63b8ff" stroke="#63b8ff" points="522.46,-227.42 532.33,-223.57 522.21,-220.42 522.46,-227.42"/>
</g>
<!-- Node18 -->
<g id="node15" class="node">
<title>Node18</title>
<g id="a_node15"><a xlink:href="class_urho3_d_1_1_x_m_l_element.html#af7c1e4d20b23c78b43b10a7d11d5aafd" target="_top" xlink:title="Return a float attribute, or zero if missing.">
<polygon fill="white" stroke="#666666" points="645,-386.5 534,-386.5 534,-356.5 645,-356.5 645,-386.5"/>
<text text-anchor="start" x="542" y="-374.5" font-family="Roboto" font-size="10.00">Urho3D::XMLElement</text>
<text text-anchor="middle" x="589.5" y="-363.5" font-family="Roboto" font-size="10.00">::GetFloat</text>
</a>
</g>
</g>
<!-- Node8&#45;&gt;Node18 -->
<g id="edge20" class="edge">
<title>Node8&#45;&gt;Node18</title>
<path fill="none" stroke="#63b8ff" d="M290.62,-389.2C353.48,-385.46 455.73,-379.39 522.55,-375.42"/>
<polygon fill="#63b8ff" stroke="#63b8ff" points="522.5,-378.93 532.27,-374.84 522.08,-371.94 522.5,-378.93"/>
</g>
<!-- Node19 -->
<g id="node16" class="node">
<title>Node19</title>
<g id="a_node16"><a xlink:href="class_urho3_d_1_1_particle_effect.html#ad4c5be7e7d289782cd30729c55123baa" target="_top" xlink:title="Read a float range from an XML element.">
<polygon fill="#fff0f0" stroke="red" points="483,-429.5 370,-429.5 370,-399.5 483,-399.5 483,-429.5"/>
<text text-anchor="start" x="378" y="-417.5" font-family="Roboto" font-size="10.00">Urho3D::ParticleEffect</text>
<text text-anchor="middle" x="426.5" y="-406.5" font-family="Roboto" font-size="10.00">::GetFloatMinMax</text>
</a>
</g>
</g>
<!-- Node8&#45;&gt;Node19 -->
<g id="edge22" class="edge">
<title>Node8&#45;&gt;Node19</title>
<path fill="none" stroke="#63b8ff" d="M290.87,-398.95C312,-401.39 336.26,-404.19 358.33,-406.74"/>
<polygon fill="#63b8ff" stroke="#63b8ff" points="357.79,-410.2 368.13,-407.87 358.6,-403.25 357.79,-410.2"/>
</g>
<!-- Node20 -->
<g id="node17" class="node">
<title>Node20</title>
<g id="a_node17"><a xlink:href="class_urho3_d_1_1_x_m_l_element.html#ac0e88c8f1412e65469cc4ebc9457f8ee" target="_top" xlink:title="Return whether has an attribute.">
<polygon fill="white" stroke="#666666" points="645,-517.5 534,-517.5 534,-487.5 645,-487.5 645,-517.5"/>
<text text-anchor="start" x="542" y="-505.5" font-family="Roboto" font-size="10.00">Urho3D::XMLElement</text>
<text text-anchor="middle" x="589.5" y="-494.5" font-family="Roboto" font-size="10.00">::HasAttribute</text>
</a>
</g>
</g>
<!-- Node8&#45;&gt;Node20 -->
<g id="edge39" class="edge">
<title>Node8&#45;&gt;Node20</title>
<path fill="none" stroke="#63b8ff" d="M290.72,-399.45C301.27,-403.07 311.38,-408.47 319,-416.5 368,-468.09 299.32,-528.2 355,-572.5 404.74,-612.07 437.86,-593.05 498,-572.5 524.89,-563.31 549.99,-542.53 566.9,-525.99"/>
<polygon fill="#63b8ff" stroke="#63b8ff" points="569.38,-528.46 573.9,-518.88 564.39,-523.55 569.38,-528.46"/>
</g>
<!-- Node23 -->
<g id="node18" class="node">
<title>Node23</title>
<g id="a_node18"><a xlink:href="class_urho3_d_1_1_x_m_l_element.html#aee06acb7085894da986940750c2735be" target="_top" xlink:title="Return an integer attribute, or zero if missing.">
<polygon fill="white" stroke="#666666" points="645,-191.5 534,-191.5 534,-161.5 645,-161.5 645,-191.5"/>
<text text-anchor="start" x="542" y="-179.5" font-family="Roboto" font-size="10.00">Urho3D::XMLElement</text>
<text text-anchor="middle" x="589.5" y="-168.5" font-family="Roboto" font-size="10.00">::GetInt</text>
</a>
</g>
</g>
<!-- Node8&#45;&gt;Node23 -->
<g id="edge27" class="edge">
<title>Node8&#45;&gt;Node23</title>
<path fill="none" stroke="#63b8ff" d="M241.12,-377.04C255.43,-343.05 294.53,-261.71 355,-222.5 405.01,-190.07 472.81,-179.58 522.46,-176.6"/>
<polygon fill="#63b8ff" stroke="#63b8ff" points="522.4,-180.11 532.21,-176.12 522.04,-173.12 522.4,-180.11"/>
</g>
<!-- Node24 -->
<g id="node19" class="node">
<title>Node24</title>
<g id="a_node19"><a xlink:href="class_urho3_d_1_1_x_m_l_element.html#a9aafd5a9e7302bcda8cf64b0664b588b" target="_top" xlink:title="Return next sibling element.">
<polygon fill="white" stroke="#666666" points="798,-648.5 687,-648.5 687,-618.5 798,-618.5 798,-648.5"/>
<text text-anchor="start" x="695" y="-636.5" font-family="Roboto" font-size="10.00">Urho3D::XMLElement</text>
<text text-anchor="middle" x="742.5" y="-625.5" font-family="Roboto" font-size="10.00">::GetNext</text>
</a>
</g>
</g>
<!-- Node8&#45;&gt;Node24 -->
<g id="edge29" class="edge">
<title>Node8&#45;&gt;Node24</title>
<path fill="none" stroke="#63b8ff" d="M290.66,-398.95C301.35,-402.59 311.52,-408.13 319,-416.5 383.55,-488.75 281.4,-568.49 355,-631.5 448.45,-711.5 606.26,-677.95 688.33,-652.45"/>
<polygon fill="#63b8ff" stroke="#63b8ff" points="689.25,-655.83 697.71,-649.46 687.12,-649.16 689.25,-655.83"/>
</g>
<!-- Node25 -->
<g id="node20" class="node">
<title>Node25</title>
<g id="a_node20"><a xlink:href="class_urho3_d_1_1_particle_effect.html#aa5d97729e6ada2433663415846e7c064" target="_top" xlink:title="Read a Vector2 range from an XML element.">
<polygon fill="#fff0f0" stroke="red" points="483,-563.5 370,-563.5 370,-533.5 483,-533.5 483,-563.5"/>
<text text-anchor="start" x="378" y="-551.5" font-family="Roboto" font-size="10.00">Urho3D::ParticleEffect</text>
<text text-anchor="middle" x="426.5" y="-540.5" font-family="Roboto" font-size="10.00">::GetVector2MinMax</text>
</a>
</g>
</g>
<!-- Node8&#45;&gt;Node25 -->
<g id="edge32" class="edge">
<title>Node8&#45;&gt;Node25</title>
<path fill="none" stroke="#63b8ff" d="M290.58,-400.17C301.02,-403.75 311.11,-408.95 319,-416.5 355.55,-451.49 319.34,-488.61 355,-524.5 356.61,-526.12 358.33,-527.62 360.13,-529.03"/>
<polygon fill="#63b8ff" stroke="#63b8ff" points="358.24,-531.97 368.55,-534.43 362.02,-526.08 358.24,-531.97"/>
</g>
<!-- Node27 -->
<g id="node21" class="node">
<title>Node27</title>
<g id="a_node21"><a xlink:href="class_urho3_d_1_1_x_m_l_element.html#a1d3f451aaf22d50185260c5c63ec1513" target="_top" xlink:title="Return a Vector3 attribute, or zero vector if missing.">
<polygon fill="white" stroke="#666666" points="645,-335.5 534,-335.5 534,-305.5 645,-305.5 645,-335.5"/>
<text text-anchor="start" x="542" y="-323.5" font-family="Roboto" font-size="10.00">Urho3D::XMLElement</text>
<text text-anchor="middle" x="589.5" y="-312.5" font-family="Roboto" font-size="10.00">::GetVector3</text>
</a>
</g>
</g>
<!-- Node8&#45;&gt;Node27 -->
<g id="edge34" class="edge">
<title>Node8&#45;&gt;Node27</title>
<path fill="none" stroke="#63b8ff" d="M249.11,-377.31C269.89,-356.18 311.05,-318.89 355,-304.5 409.52,-286.65 474.92,-293.36 522.62,-302.96"/>
<polygon fill="#63b8ff" stroke="#63b8ff" points="521.75,-306.35 532.26,-305 523.2,-299.51 521.75,-306.35"/>
</g>
<!-- Node28 -->
<g id="node22" class="node">
<title>Node28</title>
<g id="a_node22"><a xlink:href="class_urho3_d_1_1_particle_effect.html#a5b59cb70a3df1c8208c67d2fc8b06a6c" target="_top" xlink:title="Read a Vector3 from an XML element.">
<polygon fill="#fff0f0" stroke="red" points="483,-343.5 370,-343.5 370,-313.5 483,-313.5 483,-343.5"/>
<text text-anchor="start" x="378" y="-331.5" font-family="Roboto" font-size="10.00">Urho3D::ParticleEffect</text>
<text text-anchor="middle" x="426.5" y="-320.5" font-family="Roboto" font-size="10.00">::GetVector3MinMax</text>
</a>
</g>
</g>
<!-- Node8&#45;&gt;Node28 -->
<g id="edge36" class="edge">
<title>Node8&#45;&gt;Node28</title>
<path fill="none" stroke="#63b8ff" d="M281.11,-377.01C307.46,-368.16 340.71,-356.99 368.66,-347.6"/>
<polygon fill="#63b8ff" stroke="#63b8ff" points="369.68,-350.95 378.05,-344.44 367.45,-344.31 369.68,-350.95"/>
</g>
<!-- Node29 -->
<g id="node23" class="node">
<title>Node29</title>
<g id="a_node23"><a xlink:href="class_urho3_d_1_1_x_m_l_element.html#aa66e272b400e97935e02face59b81eae" target="_top" xlink:title="Return whether has a child element.">
<polygon fill="white" stroke="#666666" points="798,-575.5 687,-575.5 687,-545.5 798,-545.5 798,-575.5"/>
<text text-anchor="start" x="695" y="-563.5" font-family="Roboto" font-size="10.00">Urho3D::XMLElement</text>
<text text-anchor="middle" x="742.5" y="-552.5" font-family="Roboto" font-size="10.00">::HasChild</text>
</a>
</g>
</g>
<!-- Node8&#45;&gt;Node29 -->
<g id="edge40" class="edge">
<title>Node8&#45;&gt;Node29</title>
<path fill="none" stroke="#63b8ff" d="M290.9,-399.27C301.44,-402.91 311.5,-408.36 319,-416.5 374.57,-476.82 291.6,-545.47 355,-597.5 455.9,-680.31 625.3,-616.67 701.83,-580.76"/>
<polygon fill="#63b8ff" stroke="#63b8ff" points="703.13,-584.02 710.64,-576.54 700.11,-577.7 703.13,-584.02"/>
</g>
<!-- Node11&#45;&gt;Node9 -->
<g id="edge10" class="edge">
<title>Node11&#45;&gt;Node9</title>
<path fill="none" stroke="#63b8ff" d="M752.67,-263.63C779.22,-307.42 856.12,-434.25 885.71,-483.05"/>
<polygon fill="#63b8ff" stroke="#63b8ff" points="882.6,-484.68 890.78,-491.42 888.59,-481.05 882.6,-484.68"/>
</g>
<!-- Node13&#45;&gt;Node11 -->
<g id="edge12" class="edge">
<title>Node13&#45;&gt;Node11</title>
<path fill="none" stroke="#63b8ff" d="M625.13,-105.96C632.08,-109.86 639.06,-114.41 645,-119.5 680.4,-149.85 710.61,-195.37 727.39,-223.44"/>
<polygon fill="#63b8ff" stroke="#63b8ff" points="724.31,-225.1 732.38,-231.97 730.35,-221.57 724.31,-225.1"/>
</g>
<!-- Node15&#45;&gt;Node11 -->
<g id="edge14" class="edge">
<title>Node15&#45;&gt;Node11</title>
<path fill="none" stroke="#63b8ff" d="M645.44,-263.77C655.18,-262.22 665.42,-260.59 675.43,-259"/>
<polygon fill="#63b8ff" stroke="#63b8ff" points="675.78,-262.49 685.1,-257.46 674.68,-255.58 675.78,-262.49"/>
</g>
<!-- Node16&#45;&gt;Node9 -->
<g id="edge16" class="edge">
<title>Node16&#45;&gt;Node9</title>
<path fill="none" stroke="#63b8ff" d="M786.06,-688.1C792.53,-684.59 798.77,-680.41 804,-675.5 850.73,-631.58 879.23,-558.96 891.09,-523.41"/>
<polygon fill="#63b8ff" stroke="#63b8ff" points="894.4,-524.53 894.13,-513.94 887.74,-522.39 894.4,-524.53"/>
</g>
<!-- Node16&#45;&gt;Node16 -->
<g id="edge17" class="edge">
<title>Node16&#45;&gt;Node16</title>
<path fill="none" stroke="#63b8ff" d="M715.61,-718.78C709.63,-727.91 718.59,-736.5 742.5,-736.5 755.57,-736.5 764.18,-733.93 768.32,-730.11"/>
<polygon fill="#63b8ff" stroke="#63b8ff" points="771.79,-730.57 769.25,-720.28 764.82,-729.91 771.79,-730.57"/>
</g>
<!-- Node17&#45;&gt;Node11 -->
<g id="edge19" class="edge">
<title>Node17&#45;&gt;Node11</title>
<path fill="none" stroke="#63b8ff" d="M645.44,-233.23C655.18,-234.78 665.42,-236.41 675.43,-238"/>
<polygon fill="#63b8ff" stroke="#63b8ff" points="674.68,-241.42 685.1,-239.54 675.78,-234.51 674.68,-241.42"/>
</g>
<!-- Node18&#45;&gt;Node11 -->
<g id="edge21" class="edge">
<title>Node18&#45;&gt;Node11</title>
<path fill="none" stroke="#63b8ff" d="M625.77,-356.12C632.39,-352.66 639.08,-348.74 645,-344.5 674.46,-323.41 703.24,-293.15 721.6,-272.27"/>
<polygon fill="#63b8ff" stroke="#63b8ff" points="724.14,-274.67 728.04,-264.82 718.85,-270.09 724.14,-274.67"/>
</g>
<!-- Node19&#45;&gt;Node18 -->
<g id="edge23" class="edge">
<title>Node19&#45;&gt;Node18</title>
<path fill="none" stroke="#63b8ff" d="M483.36,-399.58C496.06,-396.19 509.67,-392.56 522.74,-389.06"/>
<polygon fill="#63b8ff" stroke="#63b8ff" points="523.34,-392.53 532.09,-386.56 521.53,-385.76 523.34,-392.53"/>
</g>
<!-- Node19&#45;&gt;Node20 -->
<g id="edge24" class="edge">
<title>Node19&#45;&gt;Node20</title>
<path fill="none" stroke="#63b8ff" d="M455.54,-429.83C481.82,-444.19 521.29,-465.77 550.41,-481.68"/>
<polygon fill="#63b8ff" stroke="#63b8ff" points="548.46,-484.6 558.91,-486.33 551.81,-478.46 548.46,-484.6"/>
</g>
<!-- Node20&#45;&gt;Node9 -->
<g id="edge25" class="edge">
<title>Node20&#45;&gt;Node9</title>
<path fill="none" stroke="#63b8ff" d="M645.39,-502.5C696.51,-502.5 772.94,-502.5 828.24,-502.5"/>
<polygon fill="#63b8ff" stroke="#63b8ff" points="828.19,-506 838.19,-502.5 828.19,-499 828.19,-506"/>
</g>
<!-- Node20&#45;&gt;Node20 -->
<g id="edge26" class="edge">
<title>Node20&#45;&gt;Node20</title>
<path fill="none" stroke="#63b8ff" d="M562.61,-517.78C556.63,-526.91 565.59,-535.5 589.5,-535.5 602.57,-535.5 611.18,-532.93 615.32,-529.11"/>
<polygon fill="#63b8ff" stroke="#63b8ff" points="618.79,-529.57 616.25,-519.28 611.82,-528.91 618.79,-529.57"/>
</g>
<!-- Node23&#45;&gt;Node11 -->
<g id="edge28" class="edge">
<title>Node23&#45;&gt;Node11</title>
<path fill="none" stroke="#63b8ff" d="M626.08,-191.88C632.41,-194.7 638.91,-197.65 645,-200.5 663.52,-209.18 683.82,-219.2 701,-227.83"/>
<polygon fill="#63b8ff" stroke="#63b8ff" points="699.4,-230.94 709.9,-232.32 702.55,-224.69 699.4,-230.94"/>
</g>
<!-- Node24&#45;&gt;Node9 -->
<g id="edge30" class="edge">
<title>Node24&#45;&gt;Node9</title>
<path fill="none" stroke="#63b8ff" d="M778.65,-618.08C787.29,-613.6 796.27,-608.33 804,-602.5 835.92,-578.42 866.27,-542.8 883.32,-521.21"/>
<polygon fill="#63b8ff" stroke="#63b8ff" points="885.89,-523.61 889.25,-513.57 880.36,-519.32 885.89,-523.61"/>
</g>
<!-- Node24&#45;&gt;Node24 -->
<g id="edge31" class="edge">
<title>Node24&#45;&gt;Node24</title>
<path fill="none" stroke="#63b8ff" d="M715.61,-648.78C709.63,-657.91 718.59,-666.5 742.5,-666.5 755.57,-666.5 764.18,-663.93 768.32,-660.11"/>
<polygon fill="#63b8ff" stroke="#63b8ff" points="771.79,-660.57 769.25,-650.28 764.82,-659.91 771.79,-660.57"/>
</g>
<!-- Node25&#45;&gt;Node20 -->
<g id="edge33" class="edge">
<title>Node25&#45;&gt;Node20</title>
<path fill="none" stroke="#63b8ff" d="M481.56,-533.05C494.97,-529.22 509.47,-525.08 523.35,-521.11"/>
<polygon fill="#63b8ff" stroke="#63b8ff" points="524.2,-524.51 532.85,-518.4 522.28,-517.78 524.2,-524.51"/>
</g>
<!-- Node27&#45;&gt;Node11 -->
<g id="edge35" class="edge">
<title>Node27&#45;&gt;Node11</title>
<path fill="none" stroke="#63b8ff" d="M626.08,-305.12C632.41,-302.3 638.91,-299.35 645,-296.5 663.52,-287.82 683.82,-277.8 701,-269.17"/>
<polygon fill="#63b8ff" stroke="#63b8ff" points="702.55,-272.31 709.9,-264.68 699.4,-266.06 702.55,-272.31"/>
</g>
<!-- Node28&#45;&gt;Node20 -->
<g id="edge38" class="edge">
<title>Node28&#45;&gt;Node20</title>
<path fill="none" stroke="#63b8ff" d="M446.85,-343.99C461.48,-356.06 481.75,-373.56 498,-390.5 525.25,-418.92 553.23,-454.76 570.72,-478.14"/>
<polygon fill="#63b8ff" stroke="#63b8ff" points="567.87,-480.17 576.64,-486.12 573.49,-476 567.87,-480.17"/>
</g>
<!-- Node28&#45;&gt;Node27 -->
<g id="edge37" class="edge">
<title>Node28&#45;&gt;Node27</title>
<path fill="none" stroke="#63b8ff" d="M483.36,-325.72C495.93,-325.1 509.39,-324.43 522.34,-323.79"/>
<polygon fill="#63b8ff" stroke="#63b8ff" points="522.23,-327.3 532.04,-323.31 521.88,-320.31 522.23,-327.3"/>
</g>
<!-- Node29&#45;&gt;Node9 -->
<g id="edge41" class="edge">
<title>Node29&#45;&gt;Node9</title>
<path fill="none" stroke="#63b8ff" d="M784.36,-545.11C807.95,-536.23 837.39,-525.14 860.32,-516.5"/>
<polygon fill="#63b8ff" stroke="#63b8ff" points="861.46,-519.81 869.59,-513.01 858.99,-513.26 861.46,-519.81"/>
</g>
<!-- Node29&#45;&gt;Node29 -->
<g id="edge42" class="edge">
<title>Node29&#45;&gt;Node29</title>
<path fill="none" stroke="#63b8ff" d="M715.61,-575.78C709.63,-584.91 718.59,-593.5 742.5,-593.5 755.57,-593.5 764.18,-590.93 768.32,-587.11"/>
<polygon fill="#63b8ff" stroke="#63b8ff" points="771.79,-587.57 769.25,-577.28 764.82,-586.91 771.79,-587.57"/>
</g>
<!-- Node47&#45;&gt;Node9 -->
<g id="edge44" class="edge">
<title>Node47&#45;&gt;Node9</title>
<path fill="none" stroke="#63b8ff" d="M749.19,-115.45C760.56,-135.59 786.51,-182.83 804,-224.5 843.35,-318.26 878.2,-434.9 891.63,-481.68"/>
<polygon fill="#63b8ff" stroke="#63b8ff" points="888.25,-482.59 894.36,-491.25 894.99,-480.68 888.25,-482.59"/>
</g>
<!-- Node47&#45;&gt;Node47 -->
<g id="edge45" class="edge">
<title>Node47&#45;&gt;Node47</title>
<path fill="none" stroke="#63b8ff" d="M718.55,-115.37C707.62,-123.94 715.61,-133 742.5,-133 757.63,-133 766.77,-130.13 769.93,-126.1"/>
<polygon fill="#63b8ff" stroke="#63b8ff" points="773.34,-125.24 766.92,-116.81 766.68,-127.4 773.34,-125.24"/>
</g>
</g>
</svg>
