<?xml version="1.0" encoding="UTF-8" standalone="no"?>
<!DOCTYPE svg PUBLIC "-//W3C//DTD SVG 1.1//EN"
 "http://www.w3.org/Graphics/SVG/1.1/DTD/svg11.dtd">
<!-- Generated by graphviz version 7.0.3 (0)
 -->
<!-- Title: Urho3D::Text3D Pages: 1 -->
<svg width="1008pt" height="1149pt"
 viewBox="0.00 0.00 1008.00 1148.92" xmlns="http://www.w3.org/2000/svg" xmlns:xlink="http://www.w3.org/1999/xlink">
<g id="graph0" class="graph" transform="scale(1 1) rotate(0) translate(4 1144.92)">
<title>Urho3D::Text3D</title>
<!-- Node1 -->
<g id="node1" class="node">
<title>Node1</title>
<g id="a_node1"><a xlink:title="3D text component.">
<polygon fill="#999999" stroke="#666666" points="1000,-609.42 914,-609.42 914,-590.42 1000,-590.42 1000,-609.42"/>
<text text-anchor="middle" x="957" y="-597.42" font-family="Roboto" font-size="10.00">Urho3D::Text3D</text>
</a>
</g>
</g>
<!-- Node2 -->
<g id="node2" class="node">
<title>Node2</title>
<g id="a_node2"><a xlink:href="class_urho3_d_1_1_drawable.html" target="_top" xlink:title="Base class for visible components.">
<polygon fill="white" stroke="#666666" points="725.5,-885.42 630.5,-885.42 630.5,-866.42 725.5,-866.42 725.5,-885.42"/>
<text text-anchor="middle" x="678" y="-873.42" font-family="Roboto" font-size="10.00">Urho3D::Drawable</text>
</a>
</g>
</g>
<!-- Node2&#45;&gt;Node1 -->
<g id="edge1" class="edge">
<title>Node2&#45;&gt;Node1</title>
<path fill="none" stroke="#63b8ff" d="M709.65,-861.09C729.63,-851.82 756.47,-840.14 781,-831.92 830.88,-815.22 857.94,-840.23 896,-803.92 953.43,-749.14 956.72,-642.49 956.3,-609.73"/>
<polygon fill="#63b8ff" stroke="#63b8ff" points="708.24,-857.88 700.68,-865.31 711.22,-864.22 708.24,-857.88"/>
</g>
<!-- Node103 -->
<g id="node7" class="node">
<title>Node103</title>
<g id="a_node7"><a xlink:href="class_urho3_d_1_1_zone.html" target="_top" xlink:title="Component that describes global rendering properties.">
<polygon fill="#fff0f0" stroke="red" points="995.5,-945.42 918.5,-945.42 918.5,-926.42 995.5,-926.42 995.5,-945.42"/>
<text text-anchor="middle" x="957" y="-933.42" font-family="Roboto" font-size="10.00">Urho3D::Zone</text>
</a>
</g>
</g>
<!-- Node2&#45;&gt;Node103 -->
<g id="edge9" class="edge">
<title>Node2&#45;&gt;Node103</title>
<path fill="none" stroke="#63b8ff" d="M705.96,-891.17C726,-901.73 754.37,-915.07 781,-921.92 827.2,-933.8 882.31,-936.39 918.18,-936.61"/>
<polygon fill="#63b8ff" stroke="#63b8ff" points="707.81,-888.2 697.35,-886.52 704.49,-894.36 707.81,-888.2"/>
</g>
<!-- Node152 -->
<g id="node11" class="node">
<title>Node152</title>
<g id="a_node11"><a xlink:href="class_urho3_d_1_1_light.html" target="_top" xlink:title="Light component.">
<polygon fill="#fff0f0" stroke="red" points="995,-827.42 919,-827.42 919,-808.42 995,-808.42 995,-827.42"/>
<text text-anchor="middle" x="957" y="-815.42" font-family="Roboto" font-size="10.00">Urho3D::Light</text>
</a>
</g>
</g>
<!-- Node2&#45;&gt;Node152 -->
<g id="edge17" class="edge">
<title>Node2&#45;&gt;Node152</title>
<path fill="none" stroke="#63b8ff" d="M737.24,-863.73C791.89,-852.29 871.98,-835.52 918.57,-825.76"/>
<polygon fill="#63b8ff" stroke="#63b8ff" points="736.54,-860.3 727.47,-865.77 737.98,-867.15 736.54,-860.3"/>
</g>
<!-- Node3 -->
<g id="node3" class="node">
<title>Node3</title>
<g id="a_node3"><a xlink:href="class_urho3_d_1_1_component.html" target="_top" xlink:title=" ">
<polygon fill="#fff0f0" stroke="red" points="406,-816.42 299,-816.42 299,-797.42 406,-797.42 406,-816.42"/>
<text text-anchor="middle" x="352.5" y="-804.42" font-family="Roboto" font-size="10.00">Urho3D::Component</text>
</a>
</g>
</g>
<!-- Node3&#45;&gt;Node2 -->
<g id="edge2" class="edge">
<title>Node3&#45;&gt;Node2</title>
<path fill="none" stroke="#63b8ff" d="M415.17,-819.05C426.43,-821.31 438.07,-823.66 449,-825.92 505.09,-837.51 519.06,-840.62 575,-852.92 594.15,-857.13 615.29,-861.88 633.34,-865.97"/>
<polygon fill="#63b8ff" stroke="#63b8ff" points="416.06,-815.66 405.57,-817.14 414.69,-822.53 416.06,-815.66"/>
</g>
<!-- Node98 -->
<g id="node4" class="node">
<title>Node98</title>
<g id="a_node4"><a xlink:href="class_urho3_d_1_1_bounding_box.html" target="_top" xlink:title=" ">
<polygon fill="#fff0f0" stroke="red" points="122.5,-1046.42 9.5,-1046.42 9.5,-1027.42 122.5,-1027.42 122.5,-1046.42"/>
<text text-anchor="middle" x="66" y="-1034.42" font-family="Roboto" font-size="10.00">Urho3D::BoundingBox</text>
</a>
</g>
</g>
<!-- Node98&#45;&gt;Node2 -->
<g id="edge3" class="edge">
<title>Node98&#45;&gt;Node2</title>
<path fill="none" stroke="#9a32cd" stroke-dasharray="5,2" d="M85.77,-1019.27C117.78,-990.42 186.26,-933.95 256,-909.92 390.39,-863.62 433.43,-899.66 575,-886.92 593.01,-885.3 612.77,-883.24 630.06,-881.34"/>
<polygon fill="#9a32cd" stroke="#9a32cd" points="83.51,-1016.59 78.51,-1025.93 88.24,-1021.75 83.51,-1016.59"/>
<text text-anchor="middle" x="352.5" y="-923.92" font-family="Roboto" font-size="10.00"> boundingBox_</text>
<text text-anchor="middle" x="352.5" y="-912.92" font-family="Roboto" font-size="10.00">worldBoundingBox_</text>
</g>
<!-- Node100 -->
<g id="node6" class="node">
<title>Node100</title>
<g id="a_node6"><a xlink:href="class_urho3_d_1_1_octant.html" target="_top" xlink:title=" ">
<polygon fill="#fff0f0" stroke="red" points="394,-1046.42 311,-1046.42 311,-1027.42 394,-1027.42 394,-1046.42"/>
<text text-anchor="middle" x="352.5" y="-1034.42" font-family="Roboto" font-size="10.00">Urho3D::Octant</text>
</a>
</g>
</g>
<!-- Node98&#45;&gt;Node100 -->
<g id="edge6" class="edge">
<title>Node98&#45;&gt;Node100</title>
<path fill="none" stroke="#9a32cd" stroke-dasharray="5,2" d="M134.25,-1036.92C189.14,-1036.92 264.91,-1036.92 310.93,-1036.92"/>
<polygon fill="#9a32cd" stroke="#9a32cd" points="134.38,-1033.42 124.38,-1036.92 134.38,-1040.42 134.38,-1033.42"/>
<text text-anchor="middle" x="194" y="-1050.92" font-family="Roboto" font-size="10.00"> cullingBox_</text>
<text text-anchor="middle" x="194" y="-1039.92" font-family="Roboto" font-size="10.00">worldBoundingBox_</text>
</g>
<!-- Node98&#45;&gt;Node103 -->
<g id="edge12" class="edge">
<title>Node98&#45;&gt;Node103</title>
<path fill="none" stroke="#9a32cd" stroke-dasharray="5,2" d="M100.9,-1050.95C138.16,-1065.54 200.17,-1087.43 256,-1095.92 539.57,-1139.04 654.4,-1167.51 896,-1012.92 922.84,-995.75 942.62,-962.27 951.23,-945.7"/>
<polygon fill="#9a32cd" stroke="#9a32cd" points="102.61,-1047.86 92.02,-1047.42 100.02,-1054.36 102.61,-1047.86"/>
<text text-anchor="middle" x="521" y="-1132.92" font-family="Roboto" font-size="10.00"> lastWorldBoundingBox_</text>
</g>
<!-- Node99 -->
<g id="node5" class="node">
<title>Node99</title>
<g id="a_node5"><a xlink:href="class_urho3_d_1_1_vector.html" target="_top" xlink:title=" ">
<polygon fill="white" stroke="orangered" points="415,-778.92 290,-778.92 290,-748.92 415,-748.92 415,-778.92"/>
<text text-anchor="start" x="298" y="-766.92" font-family="Roboto" font-size="10.00">Urho3D::Vector&lt; Urho3D</text>
<text text-anchor="middle" x="352.5" y="-755.92" font-family="Roboto" font-size="10.00">::SourceBatch &gt;</text>
</a>
</g>
</g>
<!-- Node99&#45;&gt;Node2 -->
<g id="edge4" class="edge">
<title>Node99&#45;&gt;Node2</title>
<path fill="none" stroke="#9a32cd" stroke-dasharray="5,2" d="M426.49,-774.27C470.56,-782 527.25,-794.63 575,-813.92 609.2,-827.74 645.15,-852.32 663.89,-866.01"/>
<polygon fill="#9a32cd" stroke="#9a32cd" points="427.21,-770.84 416.77,-772.61 426.04,-777.74 427.21,-770.84"/>
<text text-anchor="middle" x="521" y="-816.92" font-family="Roboto" font-size="10.00"> batches_</text>
</g>
<!-- Node100&#45;&gt;Node2 -->
<g id="edge5" class="edge">
<title>Node100&#45;&gt;Node2</title>
<path fill="none" stroke="#9a32cd" stroke-dasharray="5,2" d="M386.96,-1050.83C432.75,-1067.52 515.99,-1089.22 575,-1054.92 641.18,-1016.46 667.99,-917.22 675.01,-885.69"/>
<polygon fill="#9a32cd" stroke="#9a32cd" points="388.44,-1047.65 377.85,-1047.38 385.96,-1054.2 388.44,-1047.65"/>
<text text-anchor="middle" x="521" y="-1075.92" font-family="Roboto" font-size="10.00"> octant_</text>
</g>
<!-- Node100&#45;&gt;Node100 -->
<g id="edge7" class="edge">
<title>Node100&#45;&gt;Node100</title>
<path fill="none" stroke="#9a32cd" stroke-dasharray="5,2" d="M324.08,-1057.52C327.35,-1061.55 336.83,-1064.42 352.5,-1064.42 380.36,-1064.42 388.63,-1055.36 377.31,-1046.79"/>
<polygon fill="#9a32cd" stroke="#9a32cd" points="327.33,-1058.82 327.2,-1048.23 320.7,-1056.59 327.33,-1058.82"/>
<text text-anchor="middle" x="352.5" y="-1078.42" font-family="Roboto" font-size="10.00"> children_</text>
<text text-anchor="middle" x="352.5" y="-1067.42" font-family="Roboto" font-size="10.00">parent_</text>
</g>
<!-- Node103&#45;&gt;Node2 -->
<g id="edge8" class="edge">
<title>Node103&#45;&gt;Node2</title>
<path fill="none" stroke="#9a32cd" stroke-dasharray="5,2" d="M925.31,-921.51C916.05,-917.6 905.75,-913.7 896,-910.92 864.89,-902.07 779.85,-889.59 725.93,-882.18"/>
<polygon fill="#9a32cd" stroke="#9a32cd" points="923.65,-924.6 934.22,-925.41 926.46,-918.19 923.65,-924.6"/>
<text text-anchor="middle" x="838.5" y="-913.92" font-family="Roboto" font-size="10.00"> zone_</text>
</g>
<!-- Node44 -->
<g id="node8" class="node">
<title>Node44</title>
<g id="a_node8"><a xlink:href="class_urho3_d_1_1_matrix3x4.html" target="_top" xlink:title="3x4 matrix for scene node transform calculations.">
<polygon fill="white" stroke="#666666" points="727.5,-724.42 628.5,-724.42 628.5,-705.42 727.5,-705.42 727.5,-724.42"/>
<text text-anchor="middle" x="678" y="-712.42" font-family="Roboto" font-size="10.00">Urho3D::Matrix3x4</text>
</a>
</g>
</g>
<!-- Node44&#45;&gt;Node1 -->
<g id="edge39" class="edge">
<title>Node44&#45;&gt;Node1</title>
<path fill="none" stroke="#9a32cd" stroke-dasharray="5,2" d="M739.03,-704.84C798.48,-694.51 882.54,-678.89 896,-670.92 921.83,-655.63 941.8,-625.08 950.79,-609.51"/>
<polygon fill="#9a32cd" stroke="#9a32cd" points="738.62,-701.35 729.36,-706.5 739.81,-708.25 738.62,-701.35"/>
<text text-anchor="middle" x="838.5" y="-698.92" font-family="Roboto" font-size="10.00"> customWorldTransform_</text>
</g>
<!-- Node44&#45;&gt;Node103 -->
<g id="edge10" class="edge">
<title>Node44&#45;&gt;Node103</title>
<path fill="none" stroke="#9a32cd" stroke-dasharray="5,2" d="M715.52,-729.09C761.78,-748.43 841.97,-786.74 896,-838.92 923.49,-865.47 943.63,-907.12 951.88,-926.01"/>
<polygon fill="#9a32cd" stroke="#9a32cd" points="717.06,-725.94 706.48,-725.38 714.4,-732.41 717.06,-725.94"/>
<text text-anchor="middle" x="838.5" y="-841.92" font-family="Roboto" font-size="10.00"> inverseWorld_</text>
</g>
<!-- Node44&#45;&gt;Node44 -->
<g id="edge11" class="edge">
<title>Node44&#45;&gt;Node44</title>
<path fill="none" stroke="#9a32cd" stroke-dasharray="5,2" d="M649.85,-735.52C653.09,-739.55 662.48,-742.42 678,-742.42 705.6,-742.42 713.79,-733.36 702.58,-724.79"/>
<polygon fill="#9a32cd" stroke="#9a32cd" points="653.1,-736.82 652.94,-726.23 646.46,-734.61 653.1,-736.82"/>
<text text-anchor="middle" x="678" y="-756.42" font-family="Roboto" font-size="10.00"> IDENTITY</text>
<text text-anchor="middle" x="678" y="-745.42" font-family="Roboto" font-size="10.00">ZERO</text>
</g>
<!-- Node44&#45;&gt;Node152 -->
<g id="edge19" class="edge">
<title>Node44&#45;&gt;Node152</title>
<path fill="none" stroke="#9a32cd" stroke-dasharray="5,2" d="M738.88,-714.63C793.69,-715.35 870.09,-719.13 896,-733.92 925.88,-750.99 944.69,-789.71 952.23,-808"/>
<polygon fill="#9a32cd" stroke="#9a32cd" points="739.08,-711.13 729.05,-714.54 739.02,-718.13 739.08,-711.13"/>
<text text-anchor="middle" x="838.5" y="-736.92" font-family="Roboto" font-size="10.00"> volumeTransform_</text>
</g>
<!-- Node104 -->
<g id="node9" class="node">
<title>Node104</title>
<g id="a_node9"><a xlink:href="class_urho3_d_1_1_color.html" target="_top" xlink:title="RGBA color.">
<polygon fill="#fff0f0" stroke="red" points="106,-712.42 26,-712.42 26,-693.42 106,-693.42 106,-712.42"/>
<text text-anchor="middle" x="66" y="-700.42" font-family="Roboto" font-size="10.00">Urho3D::Color</text>
</a>
</g>
</g>
<!-- Node104&#45;&gt;Node103 -->
<g id="edge13" class="edge">
<title>Node104&#45;&gt;Node103</title>
<path fill="none" stroke="#9a32cd" stroke-dasharray="5,2" d="M73.45,-723.41C91.72,-777.47 149.52,-923.67 256,-979.92 314.68,-1010.92 781.03,-957.22 918.19,-940.59"/>
<polygon fill="#9a32cd" stroke="#9a32cd" points="76.89,-722.66 70.45,-714.24 70.23,-724.83 76.89,-722.66"/>
<text text-anchor="middle" x="521" y="-1030.92" font-family="Roboto" font-size="10.00"> ambientColor_</text>
<text text-anchor="middle" x="521" y="-1019.92" font-family="Roboto" font-size="10.00">ambientEndColor_</text>
<text text-anchor="start" x="480" y="-1008.92" font-family="Roboto" font-size="10.00">ambientStartColor</text>
<text text-anchor="middle" x="521" y="-997.92" font-family="Roboto" font-size="10.00">_</text>
<text text-anchor="middle" x="521" y="-986.92" font-family="Roboto" font-size="10.00">fogColor_</text>
</g>
<!-- Node104&#45;&gt;Node104 -->
<g id="edge14" class="edge">
<title>Node104&#45;&gt;Node104</title>
<path fill="none" stroke="#9a32cd" stroke-dasharray="5,2" d="M43.28,-723.85C46.12,-727.71 53.7,-730.42 66,-730.42 88.5,-730.42 95.18,-721.36 86.04,-712.79"/>
<polygon fill="#9a32cd" stroke="#9a32cd" points="46.65,-724.8 45.6,-714.26 39.85,-723.16 46.65,-724.8"/>
<text text-anchor="middle" x="66" y="-854.42" font-family="Roboto" font-size="10.00"> BLACK</text>
<text text-anchor="middle" x="66" y="-843.42" font-family="Roboto" font-size="10.00">BLUE</text>
<text text-anchor="middle" x="66" y="-832.42" font-family="Roboto" font-size="10.00">CYAN</text>
<text text-anchor="middle" x="66" y="-821.42" font-family="Roboto" font-size="10.00">GRAY</text>
<text text-anchor="middle" x="66" y="-810.42" font-family="Roboto" font-size="10.00">GREEN</text>
<text text-anchor="middle" x="66" y="-799.42" font-family="Roboto" font-size="10.00">MAGENTA</text>
<text text-anchor="middle" x="66" y="-788.42" font-family="Roboto" font-size="10.00">RED</text>
<text text-anchor="start" x="31" y="-777.42" font-family="Roboto" font-size="10.00">TRANSPARENT</text>
<text text-anchor="middle" x="66" y="-766.42" font-family="Roboto" font-size="10.00">_BLACK</text>
<text text-anchor="middle" x="66" y="-755.42" font-family="Roboto" font-size="10.00">WHITE</text>
<text text-anchor="middle" x="66" y="-744.42" font-family="Roboto" font-size="10.00">YELLOW</text>
<text text-anchor="middle" x="66" y="-733.42" font-family="Roboto" font-size="10.00">...</text>
</g>
<!-- Node104&#45;&gt;Node152 -->
<g id="edge18" class="edge">
<title>Node104&#45;&gt;Node152</title>
<path fill="none" stroke="#9a32cd" stroke-dasharray="5,2" d="M117.41,-705.96C190.71,-710.79 330.88,-721.61 449,-739.92 505.6,-748.7 520.14,-750.49 575,-766.92 583.22,-769.38 584.67,-771.83 593,-773.92 709.53,-803.15 852.15,-813.21 918.6,-816.47"/>
<polygon fill="#9a32cd" stroke="#9a32cd" points="117.95,-702.49 107.74,-705.33 117.49,-709.47 117.95,-702.49"/>
<text text-anchor="middle" x="521" y="-769.92" font-family="Roboto" font-size="10.00"> color_</text>
</g>
<!-- Node168 -->
<g id="node13" class="node">
<title>Node168</title>
<g id="a_node13"><a xlink:href="class_urho3_d_1_1_text.html" target="_top" xlink:title="Text UI element.">
<polygon fill="#fff0f0" stroke="red" points="715,-352.42 641,-352.42 641,-333.42 715,-333.42 715,-352.42"/>
<text text-anchor="middle" x="678" y="-340.42" font-family="Roboto" font-size="10.00">Urho3D::Text</text>
</a>
</g>
</g>
<!-- Node104&#45;&gt;Node168 -->
<g id="edge30" class="edge">
<title>Node104&#45;&gt;Node168</title>
<path fill="none" stroke="#9a32cd" stroke-dasharray="5,2" d="M69.74,-681.96C83.62,-579.45 149.64,-132.76 256,-52.92 370.03,32.67 468.52,7.91 575,-86.92 653.42,-156.76 672.35,-295.04 676.15,-333.05"/>
<polygon fill="#9a32cd" stroke="#9a32cd" points="66.3,-681.29 68.45,-691.66 73.24,-682.21 66.3,-681.29"/>
<text text-anchor="middle" x="352.5" y="-55.92" font-family="Roboto" font-size="10.00"> effectColor_</text>
</g>
<!-- Node169 -->
<g id="node14" class="node">
<title>Node169</title>
<g id="a_node14"><a xlink:href="class_urho3_d_1_1_u_i_selectable.html" target="_top" xlink:title=" ">
<polygon fill="white" stroke="orangered" points="407.5,-472.42 297.5,-472.42 297.5,-453.42 407.5,-453.42 407.5,-472.42"/>
<text text-anchor="middle" x="352.5" y="-460.42" font-family="Roboto" font-size="10.00">Urho3D::UISelectable</text>
</a>
</g>
</g>
<!-- Node104&#45;&gt;Node169 -->
<g id="edge23" class="edge">
<title>Node104&#45;&gt;Node169</title>
<path fill="none" stroke="#9a32cd" stroke-dasharray="5,2" d="M77.81,-682.9C102.78,-638.74 169.04,-532.86 256,-481.92 268.4,-474.66 283.09,-470.13 297.19,-467.31"/>
<polygon fill="#9a32cd" stroke="#9a32cd" points="74.76,-681.18 72.97,-691.63 80.88,-684.58 74.76,-681.18"/>
<text text-anchor="middle" x="194" y="-589.92" font-family="Roboto" font-size="10.00"> hoverColor_</text>
<text text-anchor="middle" x="194" y="-578.92" font-family="Roboto" font-size="10.00">selectionColor_</text>
</g>
<!-- Node151 -->
<g id="node10" class="node">
<title>Node151</title>
<g id="a_node10"><a xlink:href="class_urho3_d_1_1_p_o_d_vector.html" target="_top" xlink:title=" ">
<polygon fill="white" stroke="orangered" points="407,-970.92 298,-970.92 298,-940.92 407,-940.92 407,-970.92"/>
<text text-anchor="start" x="306" y="-958.92" font-family="Roboto" font-size="10.00">Urho3D::PODVector&lt;</text>
<text text-anchor="middle" x="352.5" y="-947.92" font-family="Roboto" font-size="10.00"> Urho3D::Camera * &gt;</text>
</a>
</g>
</g>
<!-- Node151&#45;&gt;Node2 -->
<g id="edge15" class="edge">
<title>Node151&#45;&gt;Node2</title>
<path fill="none" stroke="#9a32cd" stroke-dasharray="5,2" d="M418.64,-947.06C463.15,-940.23 523.22,-929.48 575,-914.92 603.11,-907.02 634.31,-894.51 654.71,-885.8"/>
<polygon fill="#9a32cd" stroke="#9a32cd" points="418.25,-943.58 408.88,-948.53 419.29,-950.5 418.25,-943.58"/>
<text text-anchor="middle" x="521" y="-940.92" font-family="Roboto" font-size="10.00"> viewCameras_</text>
</g>
<!-- Node152&#45;&gt;Node2 -->
<g id="edge16" class="edge">
<title>Node152&#45;&gt;Node2</title>
<path fill="none" stroke="#9a32cd" stroke-dasharray="5,2" d="M934.32,-834.11C923.39,-841.41 909.59,-849.41 896,-853.92 839.58,-872.66 770.75,-876.69 725.95,-877.01"/>
<polygon fill="#9a32cd" stroke="#9a32cd" points="936.04,-837.17 942.23,-828.57 932.03,-831.44 936.04,-837.17"/>
<text text-anchor="middle" x="838.5" y="-876.92" font-family="Roboto" font-size="10.00"> firstLight_</text>
</g>
<!-- Node167 -->
<g id="node12" class="node">
<title>Node167</title>
<g id="a_node12"><a xlink:href="class_urho3_d_1_1_p_o_d_vector.html" target="_top" xlink:title=" ">
<polygon fill="white" stroke="orangered" points="407,-864.92 298,-864.92 298,-834.92 407,-834.92 407,-864.92"/>
<text text-anchor="start" x="306" y="-852.92" font-family="Roboto" font-size="10.00">Urho3D::PODVector&lt;</text>
<text text-anchor="middle" x="352.5" y="-841.92" font-family="Roboto" font-size="10.00"> Urho3D::Light * &gt;</text>
</a>
</g>
</g>
<!-- Node167&#45;&gt;Node2 -->
<g id="edge20" class="edge">
<title>Node167&#45;&gt;Node2</title>
<path fill="none" stroke="#9a32cd" stroke-dasharray="5,2" d="M418.71,-853.65C462.86,-856.35 522.48,-860.31 575,-864.92 593.01,-866.5 612.77,-868.56 630.07,-870.47"/>
<polygon fill="#9a32cd" stroke="#9a32cd" points="418.96,-850.16 408.77,-853.05 418.54,-857.15 418.96,-850.16"/>
<text text-anchor="middle" x="521" y="-878.92" font-family="Roboto" font-size="10.00"> lights_</text>
<text text-anchor="middle" x="521" y="-867.92" font-family="Roboto" font-size="10.00">vertexLights_</text>
</g>
<!-- Node168&#45;&gt;Node1 -->
<g id="edge21" class="edge">
<title>Node168&#45;&gt;Node1</title>
<path fill="none" stroke="#9a32cd" stroke-dasharray="5,2" d="M723.2,-356.58C771.47,-373.52 848.24,-406.73 896,-458.92 932.82,-499.16 949.14,-565.37 954.19,-590.15"/>
<polygon fill="#9a32cd" stroke="#9a32cd" points="724.49,-353.32 713.9,-353.4 722.23,-359.95 724.49,-353.32"/>
<text text-anchor="middle" x="838.5" y="-461.92" font-family="Roboto" font-size="10.00"> text_</text>
</g>
<!-- Node169&#45;&gt;Node168 -->
<g id="edge22" class="edge">
<title>Node169&#45;&gt;Node168</title>
<path fill="none" stroke="#63b8ff" d="M418.26,-450.72C428.57,-448.58 439.1,-446.28 449,-443.92 457.08,-442 458.98,-441.08 467,-438.92 514.89,-426.06 529.74,-431.18 575,-410.92 610.35,-395.1 646.99,-367.4 665.22,-352.72"/>
<polygon fill="#63b8ff" stroke="#63b8ff" points="417.78,-447.24 408.68,-452.67 419.17,-454.1 417.78,-447.24"/>
</g>
<!-- Node175 -->
<g id="node15" class="node">
<title>Node175</title>
<g id="a_node15"><a xlink:href="class_urho3_d_1_1_shared_ptr.html" target="_top" xlink:title=" ">
<polygon fill="white" stroke="orangered" points="404.5,-434.92 300.5,-434.92 300.5,-404.92 404.5,-404.92 404.5,-434.92"/>
<text text-anchor="start" x="308.5" y="-422.92" font-family="Roboto" font-size="10.00">Urho3D::SharedPtr&lt;</text>
<text text-anchor="middle" x="352.5" y="-411.92" font-family="Roboto" font-size="10.00"> Urho3D::Font &gt;</text>
</a>
</g>
</g>
<!-- Node175&#45;&gt;Node168 -->
<g id="edge24" class="edge">
<title>Node175&#45;&gt;Node168</title>
<path fill="none" stroke="#9a32cd" stroke-dasharray="5,2" d="M416.04,-408.72C470.65,-398.76 545.64,-384.63 575,-376.92 601,-370.1 630.02,-360.19 650.44,-352.83"/>
<polygon fill="#9a32cd" stroke="#9a32cd" points="415.42,-405.27 406.21,-410.51 416.67,-412.16 415.42,-405.27"/>
<text text-anchor="middle" x="521" y="-401.92" font-family="Roboto" font-size="10.00"> font_</text>
</g>
<!-- Node178 -->
<g id="node16" class="node">
<title>Node178</title>
<g id="a_node16"><a xlink:href="class_urho3_d_1_1_weak_ptr.html" target="_top" xlink:title=" ">
<polygon fill="white" stroke="orangered" points="419.5,-386.92 285.5,-386.92 285.5,-356.92 419.5,-356.92 419.5,-386.92"/>
<text text-anchor="start" x="293.5" y="-374.92" font-family="Roboto" font-size="10.00">Urho3D::WeakPtr&lt; Urho3D</text>
<text text-anchor="middle" x="352.5" y="-363.92" font-family="Roboto" font-size="10.00">::FontFace &gt;</text>
</a>
</g>
</g>
<!-- Node178&#45;&gt;Node168 -->
<g id="edge25" class="edge">
<title>Node178&#45;&gt;Node168</title>
<path fill="none" stroke="#9a32cd" stroke-dasharray="5,2" d="M431.02,-364.97C497.56,-359.01 590.47,-350.68 640.93,-346.16"/>
<polygon fill="#9a32cd" stroke="#9a32cd" points="430.9,-361.47 421.25,-365.85 431.53,-368.44 430.9,-361.47"/>
<text text-anchor="middle" x="521" y="-364.92" font-family="Roboto" font-size="10.00"> fontFace_</text>
</g>
<!-- Node38 -->
<g id="node17" class="node">
<title>Node38</title>
<g id="a_node17"><a xlink:href="class_urho3_d_1_1_string.html" target="_top" xlink:title="String class.">
<polygon fill="white" stroke="#666666" points="392.5,-309.42 312.5,-309.42 312.5,-290.42 392.5,-290.42 392.5,-309.42"/>
<text text-anchor="middle" x="352.5" y="-297.42" font-family="Roboto" font-size="10.00">Urho3D::String</text>
</a>
</g>
</g>
<!-- Node38&#45;&gt;Node168 -->
<g id="edge26" class="edge">
<title>Node38&#45;&gt;Node168</title>
<path fill="none" stroke="#9a32cd" stroke-dasharray="5,2" d="M403.97,-305.57C448.9,-310.73 516.41,-318.76 575,-326.92 596.84,-329.96 621.24,-333.78 640.7,-336.92"/>
<polygon fill="#9a32cd" stroke="#9a32cd" points="404.6,-302.12 394.27,-304.47 403.81,-309.08 404.6,-302.12"/>
<text text-anchor="middle" x="521" y="-340.92" font-family="Roboto" font-size="10.00"> stringId_</text>
<text text-anchor="middle" x="521" y="-329.92" font-family="Roboto" font-size="10.00">text_</text>
</g>
<!-- Node38&#45;&gt;Node38 -->
<g id="edge27" class="edge">
<title>Node38&#45;&gt;Node38</title>
<path fill="none" stroke="#9a32cd" stroke-dasharray="5,2" d="M324.08,-320.52C327.35,-324.55 336.83,-327.42 352.5,-327.42 380.36,-327.42 388.63,-318.36 377.31,-309.79"/>
<polygon fill="#9a32cd" stroke="#9a32cd" points="327.33,-321.82 327.2,-311.23 320.7,-319.59 327.33,-321.82"/>
<text text-anchor="middle" x="352.5" y="-330.42" font-family="Roboto" font-size="10.00"> EMPTY</text>
</g>
<!-- Node95 -->
<g id="node18" class="node">
<title>Node95</title>
<g id="a_node18"><a xlink:href="class_urho3_d_1_1_int_vector2.html" target="_top" xlink:title="Two&#45;dimensional vector with integer values.">
<polygon fill="white" stroke="#666666" points="403,-188.42 302,-188.42 302,-169.42 403,-169.42 403,-188.42"/>
<text text-anchor="middle" x="352.5" y="-176.42" font-family="Roboto" font-size="10.00">Urho3D::IntVector2</text>
</a>
</g>
</g>
<!-- Node95&#45;&gt;Node168 -->
<g id="edge28" class="edge">
<title>Node95&#45;&gt;Node168</title>
<path fill="none" stroke="#9a32cd" stroke-dasharray="5,2" d="M382.75,-193.75C447.73,-226.69 602.67,-305.24 657.42,-333"/>
<polygon fill="#9a32cd" stroke="#9a32cd" points="384.62,-190.77 374.12,-189.37 381.45,-197.02 384.62,-190.77"/>
<text text-anchor="middle" x="521" y="-292.92" font-family="Roboto" font-size="10.00"> shadowOffset_</text>
</g>
<!-- Node95&#45;&gt;Node95 -->
<g id="edge29" class="edge">
<title>Node95&#45;&gt;Node95</title>
<path fill="none" stroke="#9a32cd" stroke-dasharray="5,2" d="M324.08,-199.52C327.35,-203.55 336.83,-206.42 352.5,-206.42 380.36,-206.42 388.63,-197.36 377.31,-188.79"/>
<polygon fill="#9a32cd" stroke="#9a32cd" points="327.33,-200.82 327.2,-190.23 320.7,-198.59 327.33,-200.82"/>
<text text-anchor="middle" x="352.5" y="-264.42" font-family="Roboto" font-size="10.00"> DOWN</text>
<text text-anchor="middle" x="352.5" y="-253.42" font-family="Roboto" font-size="10.00">LEFT</text>
<text text-anchor="middle" x="352.5" y="-242.42" font-family="Roboto" font-size="10.00">ONE</text>
<text text-anchor="middle" x="352.5" y="-231.42" font-family="Roboto" font-size="10.00">RIGHT</text>
<text text-anchor="middle" x="352.5" y="-220.42" font-family="Roboto" font-size="10.00">UP</text>
<text text-anchor="middle" x="352.5" y="-209.42" font-family="Roboto" font-size="10.00">ZERO</text>
</g>
<!-- Node183 -->
<g id="node19" class="node">
<title>Node183</title>
<g id="a_node19"><a xlink:href="class_urho3_d_1_1_p_o_d_vector.html" target="_top" xlink:title=" ">
<polygon fill="white" stroke="orangered" points="407,-102.92 298,-102.92 298,-72.92 407,-72.92 407,-102.92"/>
<text text-anchor="start" x="306" y="-90.92" font-family="Roboto" font-size="10.00">Urho3D::PODVector&lt;</text>
<text text-anchor="middle" x="352.5" y="-79.92" font-family="Roboto" font-size="10.00"> unsigned &gt;</text>
</a>
</g>
</g>
<!-- Node183&#45;&gt;Node168 -->
<g id="edge31" class="edge">
<title>Node183&#45;&gt;Node168</title>
<path fill="none" stroke="#9a32cd" stroke-dasharray="5,2" d="M418.75,-85.65C466.56,-87.27 530.59,-96.66 575,-130.92 644.85,-184.81 669.44,-298.69 675.42,-332.96"/>
<polygon fill="#9a32cd" stroke="#9a32cd" points="418.87,-82.16 408.79,-85.44 418.71,-89.15 418.87,-82.16"/>
<text text-anchor="middle" x="521" y="-155.92" font-family="Roboto" font-size="10.00"> printText_</text>
<text text-anchor="middle" x="521" y="-144.92" font-family="Roboto" font-size="10.00">printToText_</text>
<text text-anchor="middle" x="521" y="-133.92" font-family="Roboto" font-size="10.00">unicodeText_</text>
</g>
<!-- Node184 -->
<g id="node20" class="node">
<title>Node184</title>
<g id="a_node20"><a xlink:href="class_urho3_d_1_1_p_o_d_vector.html" target="_top" xlink:title=" ">
<polygon fill="white" stroke="orangered" points="407,-520.92 298,-520.92 298,-490.92 407,-490.92 407,-520.92"/>
<text text-anchor="start" x="306" y="-508.92" font-family="Roboto" font-size="10.00">Urho3D::PODVector&lt;</text>
<text text-anchor="middle" x="352.5" y="-497.92" font-family="Roboto" font-size="10.00"> float &gt;</text>
</a>
</g>
</g>
<!-- Node184&#45;&gt;Node1 -->
<g id="edge38" class="edge">
<title>Node184&#45;&gt;Node1</title>
<path fill="none" stroke="#9a32cd" stroke-dasharray="5,2" d="M418.22,-496.7C499.29,-486.79 642.25,-474.73 763,-492.92 824.17,-502.14 843.79,-500.75 896,-533.92 919.79,-549.04 940.08,-576.02 949.82,-590.35"/>
<polygon fill="#9a32cd" stroke="#9a32cd" points="418.19,-493.18 408.7,-497.89 419.06,-500.12 418.19,-493.18"/>
<text text-anchor="middle" x="678" y="-495.92" font-family="Roboto" font-size="10.00"> uiVertexData_</text>
</g>
<!-- Node184&#45;&gt;Node168 -->
<g id="edge32" class="edge">
<title>Node184&#45;&gt;Node168</title>
<path fill="none" stroke="#9a32cd" stroke-dasharray="5,2" d="M417.97,-495.93C428.86,-492.54 439.65,-488 449,-481.92 459.88,-474.85 455.99,-465.8 467,-458.92 508.62,-432.92 531.35,-458.35 575,-435.92 616.35,-414.68 653.61,-372.22 669.23,-352.91"/>
<polygon fill="#9a32cd" stroke="#9a32cd" points="417.26,-492.5 408.56,-498.55 419.14,-499.24 417.26,-492.5"/>
<text text-anchor="middle" x="521" y="-461.92" font-family="Roboto" font-size="10.00"> rowWidths_</text>
</g>
<!-- Node185 -->
<g id="node21" class="node">
<title>Node185</title>
<g id="a_node21"><a xlink:href="class_urho3_d_1_1_vector.html" target="_top" xlink:title=" ">
<polygon fill="white" stroke="orangered" points="449,-150.92 256,-150.92 256,-120.92 449,-120.92 449,-150.92"/>
<text text-anchor="start" x="264" y="-138.92" font-family="Roboto" font-size="10.00">Urho3D::Vector&lt; Urho3D</text>
<text text-anchor="middle" x="352.5" y="-127.92" font-family="Roboto" font-size="10.00">::PODVector&lt; Urho3D::GlyphLocation &gt; &gt;</text>
</a>
</g>
</g>
<!-- Node185&#45;&gt;Node168 -->
<g id="edge33" class="edge">
<title>Node185&#45;&gt;Node168</title>
<path fill="none" stroke="#9a32cd" stroke-dasharray="5,2" d="M433.11,-154.54C478.08,-167.91 533.43,-189.4 575,-221.92 618.28,-255.78 656.19,-310.59 670.71,-332.95"/>
<polygon fill="#9a32cd" stroke="#9a32cd" points="434.25,-151.22 423.67,-151.81 432.31,-157.95 434.25,-151.22"/>
<text text-anchor="middle" x="521" y="-224.92" font-family="Roboto" font-size="10.00"> pageGlyphLocations_</text>
</g>
<!-- Node187 -->
<g id="node22" class="node">
<title>Node187</title>
<g id="a_node22"><a xlink:href="class_urho3_d_1_1_vector.html" target="_top" xlink:title=" ">
<polygon fill="white" stroke="orangered" points="763,-686.92 593,-686.92 593,-656.92 763,-656.92 763,-686.92"/>
<text text-anchor="start" x="601" y="-674.92" font-family="Roboto" font-size="10.00">Urho3D::Vector&lt; Urho3D</text>
<text text-anchor="middle" x="678" y="-663.92" font-family="Roboto" font-size="10.00">::SharedPtr&lt; Urho3D::Geometry &gt; &gt;</text>
</a>
</g>
</g>
<!-- Node187&#45;&gt;Node1 -->
<g id="edge34" class="edge">
<title>Node187&#45;&gt;Node1</title>
<path fill="none" stroke="#9a32cd" stroke-dasharray="5,2" d="M774.42,-658.42C812.77,-651.6 857.05,-641.96 896,-628.92 910.81,-623.97 926.69,-616.17 938.39,-609.91"/>
<polygon fill="#9a32cd" stroke="#9a32cd" points="773.99,-654.94 764.73,-660.1 775.19,-661.84 773.99,-654.94"/>
<text text-anchor="middle" x="838.5" y="-658.92" font-family="Roboto" font-size="10.00"> geometries_</text>
</g>
<!-- Node188 -->
<g id="node23" class="node">
<title>Node188</title>
<g id="a_node23"><a xlink:href="class_urho3_d_1_1_shared_ptr.html" target="_top" xlink:title=" ">
<polygon fill="white" stroke="orangered" points="738,-638.92 618,-638.92 618,-608.92 738,-608.92 738,-638.92"/>
<text text-anchor="start" x="626" y="-626.92" font-family="Roboto" font-size="10.00">Urho3D::SharedPtr&lt;</text>
<text text-anchor="middle" x="678" y="-615.92" font-family="Roboto" font-size="10.00"> Urho3D::VertexBuffer &gt;</text>
</a>
</g>
</g>
<!-- Node188&#45;&gt;Node1 -->
<g id="edge35" class="edge">
<title>Node188&#45;&gt;Node1</title>
<path fill="none" stroke="#9a32cd" stroke-dasharray="5,2" d="M749.88,-617.78C801.72,-613.29 870.31,-607.35 913.8,-603.58"/>
<polygon fill="#9a32cd" stroke="#9a32cd" points="749.59,-614.29 739.93,-618.64 750.2,-621.27 749.59,-614.29"/>
<text text-anchor="middle" x="838.5" y="-616.92" font-family="Roboto" font-size="10.00"> vertexBuffer_</text>
</g>
<!-- Node189 -->
<g id="node24" class="node">
<title>Node189</title>
<g id="a_node24"><a xlink:href="class_urho3_d_1_1_shared_ptr.html" target="_top" xlink:title=" ">
<polygon fill="white" stroke="orangered" points="730,-590.92 626,-590.92 626,-560.92 730,-560.92 730,-590.92"/>
<text text-anchor="start" x="634" y="-578.92" font-family="Roboto" font-size="10.00">Urho3D::SharedPtr&lt;</text>
<text text-anchor="middle" x="678" y="-567.92" font-family="Roboto" font-size="10.00"> Urho3D::Material &gt;</text>
</a>
</g>
</g>
<!-- Node189&#45;&gt;Node1 -->
<g id="edge36" class="edge">
<title>Node189&#45;&gt;Node1</title>
<path fill="none" stroke="#9a32cd" stroke-dasharray="5,2" d="M741.68,-578.29C785.1,-580.35 844.19,-583.95 896,-589.92 901.77,-590.59 907.83,-591.43 913.79,-592.34"/>
<polygon fill="#9a32cd" stroke="#9a32cd" points="742.09,-574.81 731.94,-577.85 741.77,-581.8 742.09,-574.81"/>
<text text-anchor="middle" x="838.5" y="-592.92" font-family="Roboto" font-size="10.00"> material_</text>
</g>
<!-- Node195 -->
<g id="node25" class="node">
<title>Node195</title>
<g id="a_node25"><a xlink:href="class_urho3_d_1_1_p_o_d_vector.html" target="_top" xlink:title=" ">
<polygon fill="white" stroke="orangered" points="732.5,-542.92 623.5,-542.92 623.5,-512.92 732.5,-512.92 732.5,-542.92"/>
<text text-anchor="start" x="631.5" y="-530.92" font-family="Roboto" font-size="10.00">Urho3D::PODVector&lt;</text>
<text text-anchor="middle" x="678" y="-519.92" font-family="Roboto" font-size="10.00"> Urho3D::UIBatch &gt;</text>
</a>
</g>
</g>
<!-- Node195&#45;&gt;Node1 -->
<g id="edge37" class="edge">
<title>Node195&#45;&gt;Node1</title>
<path fill="none" stroke="#9a32cd" stroke-dasharray="5,2" d="M744.39,-532.91C788.29,-537.73 846.87,-547.07 896,-564.92 913,-571.1 930.68,-582.05 942.4,-590.07"/>
<polygon fill="#9a32cd" stroke="#9a32cd" points="744.8,-529.43 734.49,-531.88 744.08,-536.39 744.8,-529.43"/>
<text text-anchor="middle" x="838.5" y="-567.92" font-family="Roboto" font-size="10.00"> uiBatches_</text>
</g>
</g>
</svg>
