<?xml version="1.0" encoding="UTF-8" standalone="no"?>
<!DOCTYPE svg PUBLIC "-//W3C//DTD SVG 1.1//EN"
 "http://www.w3.org/Graphics/SVG/1.1/DTD/svg11.dtd">
<!-- Generated by graphviz version 7.0.3 (0)
 -->
<!-- Title: Urho3D::Renderer::SetTextureQuality Pages: 1 -->
<svg width="483pt" height="94pt"
 viewBox="0.00 0.00 483.00 93.50" xmlns="http://www.w3.org/2000/svg" xmlns:xlink="http://www.w3.org/1999/xlink">
<g id="graph0" class="graph" transform="scale(1 1) rotate(0) translate(4 89.5)">
<title>Urho3D::Renderer::SetTextureQuality</title>
<!-- Node1 -->
<g id="node1" class="node">
<title>Node1</title>
<g id="a_node1"><a xlink:title=" ">
<polygon fill="#999999" stroke="#666666" points="146,-51 0,-51 0,-21 146,-21 146,-51"/>
<text text-anchor="start" x="8" y="-39" font-family="Roboto" font-size="10.00">Urho3D::Renderer::SetTexture</text>
<text text-anchor="middle" x="73" y="-28" font-family="Roboto" font-size="10.00">Quality</text>
</a>
</g>
</g>
<!-- Node2 -->
<g id="node2" class="node">
<title>Node2</title>
<g id="a_node2"><a xlink:href="_math_defs_8h.html#a937fef228b452d2488ce13d78f0bd810" target="_top" xlink:title=" ">
<polygon fill="white" stroke="#666666" points="288.5,-67.5 205.5,-67.5 205.5,-48.5 288.5,-48.5 288.5,-67.5"/>
<text text-anchor="middle" x="247" y="-55.5" font-family="Roboto" font-size="10.00">Urho3D::Clamp</text>
</a>
</g>
</g>
<!-- Node1&#45;&gt;Node2 -->
<g id="edge1" class="edge">
<title>Node1&#45;&gt;Node2</title>
<path fill="none" stroke="#63b8ff" d="M146.44,-45.27C162.39,-47.31 178.98,-49.43 193.94,-51.34"/>
<polygon fill="#63b8ff" stroke="#63b8ff" points="193.15,-54.77 203.52,-52.57 194.04,-47.83 193.15,-54.77"/>
</g>
<!-- Node3 -->
<g id="node3" class="node">
<title>Node3</title>
<g id="a_node3"><a xlink:href="class_urho3_d_1_1_renderer.html#a967baa98fd74df00b6fd0827e5c20473" target="_top" xlink:title="Reload textures.">
<polygon fill="white" stroke="#666666" points="312,-30 182,-30 182,0 312,0 312,-30"/>
<text text-anchor="start" x="190" y="-18" font-family="Roboto" font-size="10.00">Urho3D::Renderer::Reload</text>
<text text-anchor="middle" x="247" y="-7" font-family="Roboto" font-size="10.00">Textures</text>
</a>
</g>
</g>
<!-- Node1&#45;&gt;Node3 -->
<g id="edge3" class="edge">
<title>Node1&#45;&gt;Node3</title>
<path fill="none" stroke="#63b8ff" d="M146.44,-27.15C154.28,-26.2 162.27,-25.22 170.14,-24.26"/>
<polygon fill="#63b8ff" stroke="#63b8ff" points="170.56,-27.74 180.06,-23.05 169.71,-20.79 170.56,-27.74"/>
</g>
<!-- Node2&#45;&gt;Node2 -->
<g id="edge2" class="edge">
<title>Node2&#45;&gt;Node2</title>
<path fill="none" stroke="#63b8ff" d="M221.25,-67.87C209.5,-76.44 218.08,-85.5 247,-85.5 263.27,-85.5 273.1,-82.63 276.5,-78.6"/>
<polygon fill="#63b8ff" stroke="#63b8ff" points="279.85,-77.59 273.25,-69.3 273.24,-79.89 279.85,-77.59"/>
</g>
<!-- Node4 -->
<g id="node4" class="node">
<title>Node4</title>
<g id="a_node4"><a xlink:href="class_urho3_d_1_1_p_o_d_vector.html#ab1ba347a0118ed7d9ef79f3026153c88" target="_top" xlink:title="Return number of elements.">
<polygon fill="white" stroke="#666666" points="475,-24.5 348,-24.5 348,-5.5 475,-5.5 475,-24.5"/>
<text text-anchor="middle" x="411.5" y="-12.5" font-family="Roboto" font-size="10.00">Urho3D::PODVector::Size</text>
</a>
</g>
</g>
<!-- Node3&#45;&gt;Node4 -->
<g id="edge4" class="edge">
<title>Node3&#45;&gt;Node4</title>
<path fill="none" stroke="#63b8ff" d="M312.22,-15C320.12,-15 328.25,-15 336.28,-15"/>
<polygon fill="#63b8ff" stroke="#63b8ff" points="336.03,-18.5 346.03,-15 336.03,-11.5 336.03,-18.5"/>
</g>
</g>
</svg>
