<?xml version="1.0" encoding="UTF-8" standalone="no"?>
<!DOCTYPE svg PUBLIC "-//W3C//DTD SVG 1.1//EN"
 "http://www.w3.org/Graphics/SVG/1.1/DTD/svg11.dtd">
<!-- Generated by graphviz version 7.0.3 (0)
 -->
<!-- Title: Urho3D::Script Pages: 1 -->
<svg width="1699pt" height="678pt"
 viewBox="0.00 0.00 1699.00 677.52" xmlns="http://www.w3.org/2000/svg" xmlns:xlink="http://www.w3.org/1999/xlink">
<g id="graph0" class="graph" transform="scale(1 1) rotate(0) translate(4 673.52)">
<title>Urho3D::Script</title>
<!-- Node1 -->
<g id="node1" class="node">
<title>Node1</title>
<g id="a_node1"><a xlink:title="Scripting subsystem. Allows execution of AngelScript.">
<polygon fill="#999999" stroke="#666666" points="1691,-240 1611,-240 1611,-221 1691,-221 1691,-240"/>
<text text-anchor="middle" x="1651" y="-228" font-family="Roboto" font-size="10.00">Urho3D::Script</text>
</a>
</g>
</g>
<!-- Node2 -->
<g id="node2" class="node">
<title>Node2</title>
<g id="a_node2"><a xlink:href="class_urho3_d_1_1_object.html" target="_top" xlink:title=" ">
<polygon fill="white" stroke="#666666" points="960,-305 877,-305 877,-286 960,-286 960,-305"/>
<text text-anchor="middle" x="918.5" y="-293" font-family="Roboto" font-size="10.00">Urho3D::Object</text>
</a>
</g>
</g>
<!-- Node2&#45;&gt;Node1 -->
<g id="edge1" class="edge">
<title>Node2&#45;&gt;Node1</title>
<path fill="none" stroke="#63b8ff" d="M971.46,-296.98C1074.59,-299.22 1312.25,-300.92 1510,-276.5 1547.46,-271.87 1557.35,-270.91 1593,-258.5 1606.74,-253.71 1621.47,-246.42 1632.51,-240.48"/>
<polygon fill="#63b8ff" stroke="#63b8ff" points="971.74,-293.48 961.66,-296.75 971.58,-300.48 971.74,-293.48"/>
</g>
<!-- Node110 -->
<g id="node25" class="node">
<title>Node110</title>
<g id="a_node25"><a xlink:href="class_urho3_d_1_1_resource_router.html" target="_top" xlink:title=" ">
<polygon fill="white" stroke="#666666" points="1252,-265 1127,-265 1127,-246 1252,-246 1252,-265"/>
<text text-anchor="middle" x="1189.5" y="-253" font-family="Roboto" font-size="10.00">Urho3D::ResourceRouter</text>
</a>
</g>
</g>
<!-- Node2&#45;&gt;Node110 -->
<g id="edge36" class="edge">
<title>Node2&#45;&gt;Node110</title>
<path fill="none" stroke="#63b8ff" d="M969.48,-283.15C972.36,-282.56 975.21,-282 978,-281.5 1027.64,-272.52 1084.44,-265.71 1126.51,-261.31"/>
<polygon fill="#63b8ff" stroke="#63b8ff" points="968.9,-279.69 959.87,-285.23 970.38,-286.53 968.9,-279.69"/>
</g>
<!-- Node3 -->
<g id="node3" class="node">
<title>Node3</title>
<g id="a_node3"><a xlink:href="class_urho3_d_1_1_ref_counted.html" target="_top" xlink:title="Base class for intrusively reference&#45;counted objects. These are noncopyable and non&#45;assignable.">
<polygon fill="white" stroke="#666666" points="352,-165 245,-165 245,-146 352,-146 352,-165"/>
<text text-anchor="middle" x="298.5" y="-153" font-family="Roboto" font-size="10.00">Urho3D::RefCounted</text>
</a>
</g>
</g>
<!-- Node3&#45;&gt;Node2 -->
<g id="edge2" class="edge">
<title>Node3&#45;&gt;Node2</title>
<path fill="none" stroke="#63b8ff" d="M363.79,-155.44C416.25,-156.48 492.05,-160.47 557,-173.5 688.83,-199.96 838.87,-261.44 894.87,-285.55"/>
<polygon fill="#63b8ff" stroke="#63b8ff" points="363.87,-151.94 353.82,-155.28 363.76,-158.94 363.87,-151.94"/>
</g>
<!-- Node5 -->
<g id="node5" class="node">
<title>Node5</title>
<g id="a_node5"><a xlink:href="class_urho3_d_1_1_context.html" target="_top" xlink:title="Urho3D execution context. Provides access to subsystems, object factories and attributes,...">
<polygon fill="#fff0f0" stroke="red" points="683.5,-308 594.5,-308 594.5,-289 683.5,-289 683.5,-308"/>
<text text-anchor="middle" x="639" y="-296" font-family="Roboto" font-size="10.00">Urho3D::Context</text>
</a>
</g>
</g>
<!-- Node3&#45;&gt;Node5 -->
<g id="edge5" class="edge">
<title>Node3&#45;&gt;Node5</title>
<path fill="none" stroke="#63b8ff" d="M363.38,-165.27C428.61,-176.06 524.74,-194.44 557,-213.5 590.52,-233.3 619.11,-270.87 631.47,-288.67"/>
<polygon fill="#63b8ff" stroke="#63b8ff" points="364.32,-161.88 353.88,-163.72 363.19,-168.79 364.32,-161.88"/>
</g>
<!-- Node4 -->
<g id="node4" class="node">
<title>Node4</title>
<g id="a_node4"><a xlink:href="struct_urho3_d_1_1_ref_count.html" target="_top" xlink:title="Reference count structure.">
<polygon fill="white" stroke="#666666" points="101,-79 5,-79 5,-60 101,-60 101,-79"/>
<text text-anchor="middle" x="53" y="-67" font-family="Roboto" font-size="10.00">Urho3D::RefCount</text>
</a>
</g>
</g>
<!-- Node4&#45;&gt;Node3 -->
<g id="edge3" class="edge">
<title>Node4&#45;&gt;Node3</title>
<path fill="none" stroke="#9a32cd" stroke-dasharray="5,2" d="M92.48,-83.09C141.75,-100.49 225.94,-130.23 269.52,-145.62"/>
<polygon fill="#9a32cd" stroke="#9a32cd" points="93.95,-79.9 83.36,-79.87 91.62,-86.5 93.95,-79.9"/>
<text text-anchor="middle" x="147" y="-113.5" font-family="Roboto" font-size="10.00"> refCount_</text>
</g>
<!-- Node24 -->
<g id="node16" class="node">
<title>Node24</title>
<g id="a_node16"><a xlink:href="class_urho3_d_1_1_weak_ptr.html" target="_top" xlink:title=" ">
<polygon fill="white" stroke="#666666" points="365.5,-41.5 231.5,-41.5 231.5,-11.5 365.5,-11.5 365.5,-41.5"/>
<text text-anchor="start" x="239.5" y="-29.5" font-family="Roboto" font-size="10.00">Urho3D::WeakPtr&lt; Urho3D</text>
<text text-anchor="middle" x="298.5" y="-18.5" font-family="Roboto" font-size="10.00">::ScriptFile &gt;</text>
</a>
</g>
</g>
<!-- Node4&#45;&gt;Node24 -->
<g id="edge23" class="edge">
<title>Node4&#45;&gt;Node24</title>
<path fill="none" stroke="#9a32cd" stroke-dasharray="5,2" d="M87.96,-55.53C99.26,-51.38 112.01,-47.22 124,-44.5 159,-36.56 198.77,-32.11 231.4,-29.63"/>
<polygon fill="#9a32cd" stroke="#9a32cd" points="86.75,-52.24 78.65,-59.08 89.24,-58.78 86.75,-52.24"/>
<text text-anchor="middle" x="147" y="-47.5" font-family="Roboto" font-size="10.00"> refCount_</text>
</g>
<!-- Node38 -->
<g id="node18" class="node">
<title>Node38</title>
<g id="a_node18"><a xlink:href="class_urho3_d_1_1_weak_ptr.html" target="_top" xlink:title=" ">
<polygon fill="white" stroke="#666666" points="1509.5,-181.5 1375.5,-181.5 1375.5,-151.5 1509.5,-151.5 1509.5,-181.5"/>
<text text-anchor="start" x="1383.5" y="-169.5" font-family="Roboto" font-size="10.00">Urho3D::WeakPtr&lt; Urho3D</text>
<text text-anchor="middle" x="1442.5" y="-158.5" font-family="Roboto" font-size="10.00">::Scene &gt;</text>
</a>
</g>
</g>
<!-- Node4&#45;&gt;Node38 -->
<g id="edge27" class="edge">
<title>Node4&#45;&gt;Node38</title>
<path fill="none" stroke="#9a32cd" stroke-dasharray="5,2" d="M112.54,-69.5C161.86,-69.5 234.29,-69.5 297.5,-69.5 297.5,-69.5 297.5,-69.5 1190.5,-69.5 1279.96,-69.5 1376.03,-123.78 1418.77,-151.13"/>
<polygon fill="#9a32cd" stroke="#9a32cd" points="112.65,-66 102.65,-69.5 112.65,-73 112.65,-66"/>
<text text-anchor="middle" x="790" y="-72.5" font-family="Roboto" font-size="10.00"> refCount_</text>
</g>
<!-- Node5&#45;&gt;Node2 -->
<g id="edge4" class="edge">
<title>Node5&#45;&gt;Node2</title>
<path fill="none" stroke="#9a32cd" stroke-dasharray="5,2" d="M695.32,-297.9C748.92,-297.32 828.94,-296.46 876.89,-295.94"/>
<polygon fill="#9a32cd" stroke="#9a32cd" points="695.45,-294.4 685.48,-298.01 695.52,-301.4 695.45,-294.4"/>
<text text-anchor="middle" x="790" y="-301.5" font-family="Roboto" font-size="10.00"> context_</text>
</g>
<!-- Node6 -->
<g id="node6" class="node">
<title>Node6</title>
<g id="a_node6"><a xlink:href="class_urho3_d_1_1_hash_map.html" target="_top" xlink:title=" ">
<polygon fill="white" stroke="#666666" points="389.5,-439 207.5,-439 207.5,-398 389.5,-398 389.5,-439"/>
<text text-anchor="start" x="215.5" y="-427" font-family="Roboto" font-size="10.00">Urho3D::HashMap&lt; Urho3D</text>
<text text-anchor="start" x="215.5" y="-416" font-family="Roboto" font-size="10.00">::StringHash, Urho3D::</text>
<text text-anchor="middle" x="298.5" y="-405" font-family="Roboto" font-size="10.00">SharedPtr&lt; Urho3D::ObjectFactory &gt; &gt;</text>
</a>
</g>
</g>
<!-- Node6&#45;&gt;Node5 -->
<g id="edge6" class="edge">
<title>Node6&#45;&gt;Node5</title>
<path fill="none" stroke="#9a32cd" stroke-dasharray="5,2" d="M401.12,-418.86C453.05,-414.01 514.15,-399.89 557,-363.5 573.73,-349.29 558.87,-332.39 575,-317.5 580.46,-312.46 587.2,-308.76 594.23,-306.04"/>
<polygon fill="#9a32cd" stroke="#9a32cd" points="401.04,-415.36 391.35,-419.66 401.61,-422.33 401.04,-415.36"/>
<text text-anchor="middle" x="492" y="-418.5" font-family="Roboto" font-size="10.00"> factories_</text>
</g>
<!-- Node7 -->
<g id="node7" class="node">
<title>Node7</title>
<g id="a_node7"><a xlink:href="class_urho3_d_1_1_hash_base.html" target="_top" xlink:title="Hash set/map base class.">
<polygon fill="#fff0f0" stroke="red" points="103,-493 3,-493 3,-474 103,-474 103,-493"/>
<text text-anchor="middle" x="53" y="-481" font-family="Roboto" font-size="10.00">Urho3D::HashBase</text>
</a>
</g>
</g>
<!-- Node7&#45;&gt;Node6 -->
<g id="edge7" class="edge">
<title>Node7&#45;&gt;Node6</title>
<path fill="none" stroke="#63b8ff" d="M102.06,-470.67C135.37,-461.78 180.46,-449.74 218.94,-439.47"/>
<polygon fill="#63b8ff" stroke="#63b8ff" points="101.47,-467.21 92.71,-473.17 103.27,-473.97 101.47,-467.21"/>
</g>
<!-- Node11 -->
<g id="node8" class="node">
<title>Node11</title>
<g id="a_node8"><a xlink:href="class_urho3_d_1_1_hash_map.html" target="_top" xlink:title=" ">
<polygon fill="white" stroke="#666666" points="373,-380 224,-380 224,-339 373,-339 373,-380"/>
<text text-anchor="start" x="232" y="-368" font-family="Roboto" font-size="10.00">Urho3D::HashMap&lt; Urho3D</text>
<text text-anchor="start" x="232" y="-357" font-family="Roboto" font-size="10.00">::StringHash, Urho3D::</text>
<text text-anchor="middle" x="298.5" y="-346" font-family="Roboto" font-size="10.00">SharedPtr&lt; Urho3D::Object &gt; &gt;</text>
</a>
</g>
</g>
<!-- Node7&#45;&gt;Node11 -->
<g id="edge9" class="edge">
<title>Node7&#45;&gt;Node11</title>
<path fill="none" stroke="#63b8ff" d="M73.52,-466.51C98.47,-445.59 143.76,-410.3 188,-389.5 199.15,-384.26 211.38,-379.79 223.5,-376.02"/>
<polygon fill="#63b8ff" stroke="#63b8ff" points="71.5,-463.63 66.15,-472.78 76.03,-468.96 71.5,-463.63"/>
</g>
<!-- Node12 -->
<g id="node9" class="node">
<title>Node12</title>
<g id="a_node9"><a xlink:href="class_urho3_d_1_1_hash_map.html" target="_top" xlink:title=" ">
<polygon fill="white" stroke="#666666" points="379.5,-321 217.5,-321 217.5,-280 379.5,-280 379.5,-321"/>
<text text-anchor="start" x="225.5" y="-309" font-family="Roboto" font-size="10.00">Urho3D::HashMap&lt; Urho3D</text>
<text text-anchor="start" x="225.5" y="-298" font-family="Roboto" font-size="10.00">::StringHash, Urho3D::</text>
<text text-anchor="middle" x="298.5" y="-287" font-family="Roboto" font-size="10.00">Vector&lt; Urho3D::AttributeInfo &gt; &gt;</text>
</a>
</g>
</g>
<!-- Node7&#45;&gt;Node12 -->
<g id="edge11" class="edge">
<title>Node7&#45;&gt;Node12</title>
<path fill="none" stroke="#63b8ff" d="M65.24,-463.68C85.3,-430.28 130.58,-363.13 188,-329.5 196.99,-324.23 206.96,-319.9 217.1,-316.35"/>
<polygon fill="#63b8ff" stroke="#63b8ff" points="62.22,-461.91 60.19,-472.31 68.26,-465.45 62.22,-461.91"/>
</g>
<!-- Node13 -->
<g id="node10" class="node">
<title>Node13</title>
<g id="a_node10"><a xlink:href="class_urho3_d_1_1_hash_map.html" target="_top" xlink:title=" ">
<polygon fill="white" stroke="#666666" points="382,-579.5 215,-579.5 215,-527.5 382,-527.5 382,-579.5"/>
<text text-anchor="start" x="223" y="-567.5" font-family="Roboto" font-size="10.00">Urho3D::HashMap&lt; Urho3D</text>
<text text-anchor="start" x="223" y="-556.5" font-family="Roboto" font-size="10.00">::StringHash, Urho3D::</text>
<text text-anchor="start" x="223" y="-545.5" font-family="Roboto" font-size="10.00">SharedPtr&lt; Urho3D::EventReceiver</text>
<text text-anchor="middle" x="298.5" y="-534.5" font-family="Roboto" font-size="10.00">Group &gt; &gt;</text>
</a>
</g>
</g>
<!-- Node7&#45;&gt;Node13 -->
<g id="edge13" class="edge">
<title>Node7&#45;&gt;Node13</title>
<path fill="none" stroke="#63b8ff" d="M99.53,-496.59C131.85,-505.88 176.16,-518.62 214.66,-529.69"/>
<polygon fill="#63b8ff" stroke="#63b8ff" points="100.66,-493.27 90.08,-493.87 98.73,-500 100.66,-493.27"/>
</g>
<!-- Node14 -->
<g id="node11" class="node">
<title>Node14</title>
<g id="a_node11"><a xlink:href="class_urho3_d_1_1_hash_map.html" target="_top" xlink:title=" ">
<polygon fill="white" stroke="#666666" points="409,-509.5 188,-509.5 188,-457.5 409,-457.5 409,-509.5"/>
<text text-anchor="start" x="196" y="-497.5" font-family="Roboto" font-size="10.00">Urho3D::HashMap&lt; Urho3D</text>
<text text-anchor="start" x="196" y="-486.5" font-family="Roboto" font-size="10.00">::Object *, Urho3D::HashMap</text>
<text text-anchor="start" x="196" y="-475.5" font-family="Roboto" font-size="10.00">&lt; Urho3D::StringHash, Urho3D</text>
<text text-anchor="middle" x="298.5" y="-464.5" font-family="Roboto" font-size="10.00">::SharedPtr&lt; Urho3D::EventReceiverGroup &gt; &gt; &gt;</text>
</a>
</g>
</g>
<!-- Node7&#45;&gt;Node14 -->
<g id="edge15" class="edge">
<title>Node7&#45;&gt;Node14</title>
<path fill="none" stroke="#63b8ff" d="M114.52,-483.5C136.7,-483.5 162.54,-483.5 187.7,-483.5"/>
<polygon fill="#63b8ff" stroke="#63b8ff" points="114.79,-480 104.79,-483.5 114.79,-487 114.79,-480"/>
</g>
<!-- Node107 -->
<g id="node22" class="node">
<title>Node107</title>
<g id="a_node22"><a xlink:href="class_urho3_d_1_1_hash_map.html" target="_top" xlink:title=" ">
<polygon fill="white" stroke="#666666" points="557,-660.5 427,-660.5 427,-630.5 557,-630.5 557,-660.5"/>
<text text-anchor="start" x="435" y="-648.5" font-family="Roboto" font-size="10.00">Urho3D::HashMap&lt; const</text>
<text text-anchor="middle" x="492" y="-637.5" font-family="Roboto" font-size="10.00"> char *, asITypeInfo * &gt;</text>
</a>
</g>
</g>
<!-- Node7&#45;&gt;Node107 -->
<g id="edge31" class="edge">
<title>Node7&#45;&gt;Node107</title>
<path fill="none" stroke="#63b8ff" d="M57.85,-504.29C64.88,-535.7 83.03,-594.46 124,-621.5 215.13,-681.64 348.26,-672.15 426.63,-659.21"/>
<polygon fill="#63b8ff" stroke="#63b8ff" points="61.35,-503.94 55.91,-494.85 54.49,-505.35 61.35,-503.94"/>
</g>
<!-- Node108 -->
<g id="node23" class="node">
<title>Node108</title>
<g id="a_node23"><a xlink:href="class_urho3_d_1_1_hash_map.html" target="_top" xlink:title=" ">
<polygon fill="white" stroke="#666666" points="859,-628 721,-628 721,-587 859,-587 859,-628"/>
<text text-anchor="start" x="729" y="-616" font-family="Roboto" font-size="10.00">Urho3D::HashMap&lt; int,</text>
<text text-anchor="start" x="729" y="-605" font-family="Roboto" font-size="10.00"> Urho3D::PODVector&lt; const</text>
<text text-anchor="middle" x="790" y="-594" font-family="Roboto" font-size="10.00"> char * &gt; &gt;</text>
</a>
</g>
</g>
<!-- Node7&#45;&gt;Node108 -->
<g id="edge33" class="edge">
<title>Node7&#45;&gt;Node108</title>
<path fill="none" stroke="#63b8ff" d="M69.92,-501.75C93.02,-526.74 138.51,-570.54 188,-588.5 284.05,-623.36 584.61,-616.02 720.76,-610.63"/>
<polygon fill="#63b8ff" stroke="#63b8ff" points="72.77,-499.68 63.47,-494.6 67.57,-504.37 72.77,-499.68"/>
</g>
<!-- Node11&#45;&gt;Node5 -->
<g id="edge8" class="edge">
<title>Node11&#45;&gt;Node5</title>
<path fill="none" stroke="#9a32cd" stroke-dasharray="5,2" d="M384.59,-354.42C435.37,-349.88 500.71,-341.37 557,-325.5 565.43,-323.12 566.79,-320.55 575,-317.5 583.67,-314.28 593.17,-311.19 602.09,-308.48"/>
<polygon fill="#9a32cd" stroke="#9a32cd" points="384.5,-350.92 374.84,-355.26 385.1,-357.89 384.5,-350.92"/>
<text text-anchor="middle" x="492" y="-351.5" font-family="Roboto" font-size="10.00"> subsystems_</text>
</g>
<!-- Node12&#45;&gt;Node5 -->
<g id="edge10" class="edge">
<title>Node12&#45;&gt;Node5</title>
<path fill="none" stroke="#9a32cd" stroke-dasharray="5,2" d="M390.94,-299.96C456.85,-299.57 542.87,-299.06 594.08,-298.76"/>
<polygon fill="#9a32cd" stroke="#9a32cd" points="391.21,-296.46 381.23,-300.02 391.25,-303.46 391.21,-296.46"/>
<text text-anchor="middle" x="492" y="-314.5" font-family="Roboto" font-size="10.00"> attributes_</text>
<text text-anchor="middle" x="492" y="-303.5" font-family="Roboto" font-size="10.00">networkAttributes_</text>
</g>
<!-- Node13&#45;&gt;Node5 -->
<g id="edge12" class="edge">
<title>Node13&#45;&gt;Node5</title>
<path fill="none" stroke="#9a32cd" stroke-dasharray="5,2" d="M393.66,-559.76C449.34,-558 516.65,-545.33 557,-500.5 584.34,-470.13 549.05,-349.07 575,-317.5 580.01,-311.41 586.89,-307.22 594.28,-304.36"/>
<polygon fill="#9a32cd" stroke="#9a32cd" points="393.78,-556.26 383.84,-559.95 393.91,-563.26 393.78,-556.26"/>
<text text-anchor="middle" x="492" y="-559.5" font-family="Roboto" font-size="10.00"> eventReceivers_</text>
</g>
<!-- Node14&#45;&gt;Node5 -->
<g id="edge14" class="edge">
<title>Node14&#45;&gt;Node5</title>
<path fill="none" stroke="#9a32cd" stroke-dasharray="5,2" d="M420.54,-486.95C469.28,-481.85 522.11,-467 557,-430.5 592.14,-393.74 541.55,-355.8 575,-317.5 580.11,-311.65 586.95,-307.57 594.24,-304.72"/>
<polygon fill="#9a32cd" stroke="#9a32cd" points="420.39,-483.45 410.74,-487.83 421.02,-490.42 420.39,-483.45"/>
<text text-anchor="middle" x="492" y="-488.5" font-family="Roboto" font-size="10.00"> specificEventReceivers_</text>
</g>
<!-- Node15 -->
<g id="node12" class="node">
<title>Node15</title>
<g id="a_node12"><a xlink:href="class_urho3_d_1_1_p_o_d_vector.html" target="_top" xlink:title=" ">
<polygon fill="white" stroke="#666666" points="353,-213.5 244,-213.5 244,-183.5 353,-183.5 353,-213.5"/>
<text text-anchor="start" x="252" y="-201.5" font-family="Roboto" font-size="10.00">Urho3D::PODVector&lt;</text>
<text text-anchor="middle" x="298.5" y="-190.5" font-family="Roboto" font-size="10.00"> Urho3D::Object * &gt;</text>
</a>
</g>
</g>
<!-- Node15&#45;&gt;Node5 -->
<g id="edge16" class="edge">
<title>Node15&#45;&gt;Node5</title>
<path fill="none" stroke="#9a32cd" stroke-dasharray="5,2" d="M364.79,-205.54C417.88,-212.7 494.04,-226.29 557,-250.5 582.48,-260.3 609.19,-277.74 624.68,-288.68"/>
<polygon fill="#9a32cd" stroke="#9a32cd" points="365.36,-202.08 354.99,-204.26 364.45,-209.02 365.36,-202.08"/>
<text text-anchor="middle" x="492" y="-253.5" font-family="Roboto" font-size="10.00"> eventSenders_</text>
</g>
<!-- Node16 -->
<g id="node13" class="node">
<title>Node16</title>
<g id="a_node13"><a xlink:href="class_urho3_d_1_1_vector_base.html" target="_top" xlink:title="Vector base class.">
<polygon fill="white" stroke="#666666" points="106,-208 0,-208 0,-189 106,-189 106,-208"/>
<text text-anchor="middle" x="53" y="-196" font-family="Roboto" font-size="10.00">Urho3D::VectorBase</text>
</a>
</g>
</g>
<!-- Node16&#45;&gt;Node15 -->
<g id="edge17" class="edge">
<title>Node16&#45;&gt;Node15</title>
<path fill="none" stroke="#63b8ff" d="M117.51,-198.5C156.7,-198.5 206.42,-198.5 243.66,-198.5"/>
<polygon fill="#63b8ff" stroke="#63b8ff" points="117.75,-195 107.75,-198.5 117.75,-202 117.75,-195"/>
</g>
<!-- Node17 -->
<g id="node14" class="node">
<title>Node17</title>
<g id="a_node14"><a xlink:href="class_urho3_d_1_1_p_o_d_vector.html" target="_top" xlink:title=" ">
<polygon fill="white" stroke="#666666" points="355.5,-261.5 241.5,-261.5 241.5,-231.5 355.5,-231.5 355.5,-261.5"/>
<text text-anchor="start" x="249.5" y="-249.5" font-family="Roboto" font-size="10.00">Urho3D::PODVector&lt;</text>
<text text-anchor="middle" x="298.5" y="-238.5" font-family="Roboto" font-size="10.00"> Urho3D::HashMap * &gt;</text>
</a>
</g>
</g>
<!-- Node16&#45;&gt;Node17 -->
<g id="edge19" class="edge">
<title>Node16&#45;&gt;Node17</title>
<path fill="none" stroke="#63b8ff" d="M114.9,-210.7C117.98,-211.31 121.03,-211.91 124,-212.5 163.14,-220.25 207.27,-228.9 241.23,-235.53"/>
<polygon fill="#63b8ff" stroke="#63b8ff" points="115.68,-207.28 105.19,-208.76 114.32,-214.15 115.68,-207.28"/>
</g>
<!-- Node106 -->
<g id="node21" class="node">
<title>Node106</title>
<g id="a_node21"><a xlink:href="class_urho3_d_1_1_vector.html" target="_top" xlink:title=" ">
<polygon fill="white" stroke="#666666" points="1109,-132.5 978,-132.5 978,-102.5 1109,-102.5 1109,-132.5"/>
<text text-anchor="start" x="986" y="-120.5" font-family="Roboto" font-size="10.00">Urho3D::Vector&lt; asIScript</text>
<text text-anchor="middle" x="1043.5" y="-109.5" font-family="Roboto" font-size="10.00">Context * &gt;</text>
</a>
</g>
</g>
<!-- Node16&#45;&gt;Node106 -->
<g id="edge29" class="edge">
<title>Node16&#45;&gt;Node106</title>
<path fill="none" stroke="#63b8ff" d="M79.56,-182.78C105.71,-167.65 148.06,-145.76 188,-136.5 476.02,-69.73 833.34,-95.39 977.6,-110.04"/>
<polygon fill="#63b8ff" stroke="#63b8ff" points="77.85,-179.72 71.03,-187.82 81.42,-185.75 77.85,-179.72"/>
</g>
<!-- Node17&#45;&gt;Node5 -->
<g id="edge18" class="edge">
<title>Node17&#45;&gt;Node5</title>
<path fill="none" stroke="#9a32cd" stroke-dasharray="5,2" d="M366.9,-255.98C418.89,-263.41 492.57,-274.18 557,-284.5 569.12,-286.44 582.24,-288.66 594.31,-290.75"/>
<polygon fill="#9a32cd" stroke="#9a32cd" points="367.71,-252.56 357.32,-254.62 366.73,-259.49 367.71,-252.56"/>
<text text-anchor="middle" x="492" y="-287.5" font-family="Roboto" font-size="10.00"> eventDataMaps_</text>
</g>
<!-- Node23 -->
<g id="node15" class="node">
<title>Node23</title>
<g id="a_node15"><a xlink:href="class_urho3_d_1_1_linked_list.html" target="_top" xlink:title=" ">
<polygon fill="white" stroke="orangered" points="703,-356.5 575,-356.5 575,-326.5 703,-326.5 703,-356.5"/>
<text text-anchor="start" x="583" y="-344.5" font-family="Roboto" font-size="10.00">Urho3D::LinkedList</text>
<text text-anchor="middle" x="639" y="-333.5" font-family="Roboto" font-size="10.00">&lt; Urho3D::EventHandler &gt;</text>
</a>
</g>
</g>
<!-- Node23&#45;&gt;Node2 -->
<g id="edge20" class="edge">
<title>Node23&#45;&gt;Node2</title>
<path fill="none" stroke="#9a32cd" stroke-dasharray="5,2" d="M714.67,-335.16C757.26,-330.74 811.47,-323.77 859,-313.5 868.76,-311.39 879.24,-308.4 888.6,-305.47"/>
<polygon fill="#9a32cd" stroke="#9a32cd" points="714.37,-331.67 704.77,-336.15 715.07,-338.63 714.37,-331.67"/>
<text text-anchor="middle" x="790" y="-337.5" font-family="Roboto" font-size="10.00"> eventHandlers_</text>
</g>
<!-- Node24&#45;&gt;Node1 -->
<g id="edge21" class="edge">
<title>Node24&#45;&gt;Node1</title>
<path fill="none" stroke="#9a32cd" stroke-dasharray="5,2" d="M377.11,-27.58C445.72,-28.44 548.51,-29.5 638,-29.5 638,-29.5 638,-29.5 1443.5,-29.5 1554.32,-29.5 1627.96,-179.97 1645.8,-220.53"/>
<polygon fill="#9a32cd" stroke="#9a32cd" points="377.53,-24.08 367.49,-27.46 377.44,-31.08 377.53,-24.08"/>
<text text-anchor="middle" x="1043.5" y="-32.5" font-family="Roboto" font-size="10.00"> defaultScriptFile_</text>
</g>
<!-- Node25 -->
<g id="node17" class="node">
<title>Node25</title>
<g id="a_node17"><a xlink:href="class_urho3_d_1_1_script_file.html" target="_top" xlink:title="Script file resource.">
<polygon fill="#fff0f0" stroke="red" points="100.5,-19 5.5,-19 5.5,0 100.5,0 100.5,-19"/>
<text text-anchor="middle" x="53" y="-7" font-family="Roboto" font-size="10.00">Urho3D::ScriptFile</text>
</a>
</g>
</g>
<!-- Node25&#45;&gt;Node24 -->
<g id="edge22" class="edge">
<title>Node25&#45;&gt;Node24</title>
<path fill="none" stroke="#9a32cd" stroke-dasharray="5,2" d="M112.39,-8.68C130.83,-8.78 151.28,-9.25 170,-10.5 189.92,-11.83 211.5,-14.19 231.14,-16.69"/>
<polygon fill="#9a32cd" stroke="#9a32cd" points="112.41,-5.18 102.41,-8.67 112.4,-12.18 112.41,-5.18"/>
<text text-anchor="middle" x="147" y="-13.5" font-family="Roboto" font-size="10.00"> ptr_</text>
</g>
<!-- Node38&#45;&gt;Node1 -->
<g id="edge24" class="edge">
<title>Node38&#45;&gt;Node1</title>
<path fill="none" stroke="#9a32cd" stroke-dasharray="5,2" d="M1521.38,-167.65C1545.09,-170.15 1570.75,-175.11 1593,-184.5 1612.68,-192.81 1631.08,-210.02 1641.4,-220.88"/>
<polygon fill="#9a32cd" stroke="#9a32cd" points="1521.7,-164.17 1511.43,-166.75 1521.07,-171.14 1521.7,-164.17"/>
<text text-anchor="middle" x="1560.5" y="-187.5" font-family="Roboto" font-size="10.00"> defaultScene_</text>
</g>
<!-- Node39 -->
<g id="node19" class="node">
<title>Node39</title>
<g id="a_node19"><a xlink:href="class_urho3_d_1_1_scene.html" target="_top" xlink:title="Root scene node, represents the whole scene.">
<polygon fill="#fff0f0" stroke="red" points="1230.5,-179 1148.5,-179 1148.5,-160 1230.5,-160 1230.5,-179"/>
<text text-anchor="middle" x="1189.5" y="-167" font-family="Roboto" font-size="10.00">Urho3D::Scene</text>
</a>
</g>
</g>
<!-- Node39&#45;&gt;Node38 -->
<g id="edge25" class="edge">
<title>Node39&#45;&gt;Node38</title>
<path fill="none" stroke="#9a32cd" stroke-dasharray="5,2" d="M1242.3,-168.88C1280.83,-168.42 1333.73,-167.79 1375.32,-167.29"/>
<polygon fill="#9a32cd" stroke="#9a32cd" points="1242.3,-165.38 1232.34,-169 1242.38,-172.38 1242.3,-165.38"/>
<text text-anchor="middle" x="1313.5" y="-172.5" font-family="Roboto" font-size="10.00"> ptr_</text>
</g>
<!-- Node105 -->
<g id="node20" class="node">
<title>Node105</title>
<g id="a_node20"><a xlink:href="class_urho3_d_1_1_mutex.html" target="_top" xlink:title="Operating system mutual exclusion primitive.">
<polygon fill="white" stroke="#666666" points="960,-206 877,-206 877,-187 960,-187 960,-206"/>
<text text-anchor="middle" x="918.5" y="-194" font-family="Roboto" font-size="10.00">Urho3D::Mutex</text>
</a>
</g>
</g>
<!-- Node105&#45;&gt;Node1 -->
<g id="edge37" class="edge">
<title>Node105&#45;&gt;Node1</title>
<path fill="none" stroke="#9a32cd" stroke-dasharray="5,2" d="M971.48,-198.92C1110.37,-205.38 1487.92,-222.96 1610.79,-228.67"/>
<polygon fill="#9a32cd" stroke="#9a32cd" points="972,-195.44 961.85,-198.47 971.68,-202.43 972,-195.44"/>
<text text-anchor="middle" x="1313.5" y="-220.5" font-family="Roboto" font-size="10.00"> moduleMutex_</text>
</g>
<!-- Node105&#45;&gt;Node39 -->
<g id="edge26" class="edge">
<title>Node105&#45;&gt;Node39</title>
<path fill="none" stroke="#9a32cd" stroke-dasharray="5,2" d="M971.43,-185.48C973.65,-185.13 975.84,-184.8 978,-184.5 1036.98,-176.38 1105.9,-172.53 1148.38,-170.79"/>
<polygon fill="#9a32cd" stroke="#9a32cd" points="971.04,-182 961.79,-187.16 972.24,-188.89 971.04,-182"/>
<text text-anchor="middle" x="1043.5" y="-187.5" font-family="Roboto" font-size="10.00"> sceneMutex_</text>
</g>
<!-- Node106&#45;&gt;Node1 -->
<g id="edge28" class="edge">
<title>Node106&#45;&gt;Node1</title>
<path fill="none" stroke="#9a32cd" stroke-dasharray="5,2" d="M1120.87,-116.56C1213.53,-116.57 1374.23,-120.31 1510,-142.5 1547.78,-148.67 1560.58,-145.15 1593,-165.5 1615.88,-179.86 1634.77,-206.16 1643.96,-220.51"/>
<polygon fill="#9a32cd" stroke="#9a32cd" points="1120.86,-113.06 1110.87,-116.57 1120.88,-120.06 1120.86,-113.06"/>
<text text-anchor="middle" x="1313.5" y="-128.5" font-family="Roboto" font-size="10.00"> scriptFileContexts_</text>
</g>
<!-- Node107&#45;&gt;Node1 -->
<g id="edge30" class="edge">
<title>Node107&#45;&gt;Node1</title>
<path fill="none" stroke="#9a32cd" stroke-dasharray="5,2" d="M568.61,-645.5C628.42,-645.5 714.05,-645.5 789,-645.5 789,-645.5 789,-645.5 1443.5,-645.5 1630.61,-645.5 1648.18,-303.19 1649.83,-240.35"/>
<polygon fill="#9a32cd" stroke="#9a32cd" points="568.9,-642 558.9,-645.5 568.89,-649 568.9,-642"/>
<text text-anchor="middle" x="1043.5" y="-648.5" font-family="Roboto" font-size="10.00"> objectTypes_</text>
</g>
<!-- Node108&#45;&gt;Node1 -->
<g id="edge32" class="edge">
<title>Node108&#45;&gt;Node1</title>
<path fill="none" stroke="#9a32cd" stroke-dasharray="5,2" d="M820.79,-579.08C865.29,-539.75 953.45,-473.5 1042.5,-473.5 1042.5,-473.5 1042.5,-473.5 1443.5,-473.5 1568.07,-473.5 1633.18,-285.79 1647.13,-240.33"/>
<polygon fill="#9a32cd" stroke="#9a32cd" points="818.7,-576.26 813.61,-585.55 823.38,-581.46 818.7,-576.26"/>
<text text-anchor="middle" x="1189.5" y="-476.5" font-family="Roboto" font-size="10.00"> enumValues_</text>
</g>
<!-- Node109 -->
<g id="node24" class="node">
<title>Node109</title>
<g id="a_node24"><a xlink:href="class_urho3_d_1_1_shared_ptr.html" target="_top" xlink:title=" ">
<polygon fill="white" stroke="#666666" points="1510,-267.5 1375,-267.5 1375,-237.5 1510,-237.5 1510,-267.5"/>
<text text-anchor="start" x="1383" y="-255.5" font-family="Roboto" font-size="10.00">Urho3D::SharedPtr&lt;</text>
<text text-anchor="middle" x="1442.5" y="-244.5" font-family="Roboto" font-size="10.00"> Urho3D::ResourceRouter &gt;</text>
</a>
</g>
</g>
<!-- Node109&#45;&gt;Node1 -->
<g id="edge34" class="edge">
<title>Node109&#45;&gt;Node1</title>
<path fill="none" stroke="#9a32cd" stroke-dasharray="5,2" d="M1521.31,-244.21C1551.75,-240.97 1585.33,-237.39 1610.55,-234.7"/>
<polygon fill="#9a32cd" stroke="#9a32cd" points="1521.34,-240.69 1511.76,-245.23 1522.08,-247.65 1521.34,-240.69"/>
<text text-anchor="middle" x="1560.5" y="-246.5" font-family="Roboto" font-size="10.00"> router_</text>
</g>
<!-- Node110&#45;&gt;Node109 -->
<g id="edge35" class="edge">
<title>Node110&#45;&gt;Node109</title>
<path fill="none" stroke="#9a32cd" stroke-dasharray="5,2" d="M1263.38,-254.63C1298.54,-254.21 1340.42,-253.71 1374.73,-253.3"/>
<polygon fill="#9a32cd" stroke="#9a32cd" points="1263.69,-251.12 1253.74,-254.74 1263.78,-258.12 1263.69,-251.12"/>
<text text-anchor="middle" x="1313.5" y="-258.5" font-family="Roboto" font-size="10.00"> ptr_</text>
</g>
</g>
</svg>
