<?xml version="1.0" encoding="UTF-8" standalone="no"?>
<!DOCTYPE svg PUBLIC "-//W3C//DTD SVG 1.1//EN"
 "http://www.w3.org/Graphics/SVG/1.1/DTD/svg11.dtd">
<!-- Generated by graphviz version 7.0.3 (0)
 -->
<!-- Title: Urho3D::ScriptInstance::OnSceneSet Pages: 1 -->
<svg width="851pt" height="507pt"
 viewBox="0.00 0.00 851.00 507.00" xmlns="http://www.w3.org/2000/svg" xmlns:xlink="http://www.w3.org/1999/xlink">
<g id="graph0" class="graph" transform="scale(1 1) rotate(0) translate(4 503)">
<title>Urho3D::ScriptInstance::OnSceneSet</title>
<!-- Node1 -->
<g id="node1" class="node">
<title>Node1</title>
<g id="a_node1"><a xlink:title="Handle scene being assigned.">
<polygon fill="#999999" stroke="#666666" points="118,-249 0,-249 0,-219 118,-219 118,-249"/>
<text text-anchor="start" x="8" y="-237" font-family="Roboto" font-size="10.00">Urho3D::ScriptInstance</text>
<text text-anchor="middle" x="59" y="-226" font-family="Roboto" font-size="10.00">::OnSceneSet</text>
</a>
</g>
</g>
<!-- Node2 -->
<g id="node2" class="node">
<title>Node2</title>
<g id="a_node2"><a xlink:href="class_urho3_d_1_1_object.html#a153b96c4397e045b2ca2b2d5471d097c" target="_top" xlink:title="Unsubscribe from an event.">
<polygon fill="white" stroke="#666666" points="469.5,-408 327.5,-408 327.5,-378 469.5,-378 469.5,-408"/>
<text text-anchor="start" x="335.5" y="-396" font-family="Roboto" font-size="10.00">Urho3D::Object::Unsubscribe</text>
<text text-anchor="middle" x="398.5" y="-385" font-family="Roboto" font-size="10.00">FromEvent</text>
</a>
</g>
</g>
<!-- Node1&#45;&gt;Node2 -->
<g id="edge1" class="edge">
<title>Node1&#45;&gt;Node2</title>
<path fill="none" stroke="#63b8ff" d="M86.82,-249.3C133.45,-275.52 232.92,-329.82 321,-367 326.49,-369.32 332.27,-371.58 338.09,-373.75"/>
<polygon fill="#63b8ff" stroke="#63b8ff" points="336.53,-376.91 347.12,-377.02 338.91,-370.32 336.53,-376.91"/>
</g>
<!-- Node17 -->
<g id="node9" class="node">
<title>Node17</title>
<g id="a_node9"><a xlink:href="class_urho3_d_1_1_script_instance.html#ad8ebeb9ea6ced1456471dc05ebbc96a8" target="_top" xlink:title="Subscribe/unsubscribe from scene updates as necessary.">
<polygon fill="white" stroke="#666666" points="285,-228 154,-228 154,-198 285,-198 285,-228"/>
<text text-anchor="start" x="162" y="-216" font-family="Roboto" font-size="10.00">Urho3D::ScriptInstance</text>
<text text-anchor="middle" x="219.5" y="-205" font-family="Roboto" font-size="10.00">::UpdateEventSubscription</text>
</a>
</g>
</g>
<!-- Node1&#45;&gt;Node17 -->
<g id="edge8" class="edge">
<title>Node1&#45;&gt;Node17</title>
<path fill="none" stroke="#63b8ff" d="M118.12,-226.3C126.08,-225.25 134.34,-224.15 142.56,-223.06"/>
<polygon fill="#63b8ff" stroke="#63b8ff" points="142.74,-226.57 152.2,-221.78 141.82,-219.63 142.74,-226.57"/>
</g>
<!-- Node3 -->
<g id="node3" class="node">
<title>Node3</title>
<g id="a_node3"><a xlink:href="class_urho3_d_1_1_object.html#a00bec56f305dd6636d186e5b351d0264" target="_top" xlink:title="Find the first event handler with no specific sender.">
<polygon fill="white" stroke="#666666" points="653,-499 524,-499 524,-469 653,-469 653,-499"/>
<text text-anchor="start" x="532" y="-487" font-family="Roboto" font-size="10.00">Urho3D::Object::FindEvent</text>
<text text-anchor="middle" x="588.5" y="-476" font-family="Roboto" font-size="10.00">Handler</text>
</a>
</g>
</g>
<!-- Node2&#45;&gt;Node3 -->
<g id="edge2" class="edge">
<title>Node2&#45;&gt;Node3</title>
<path fill="none" stroke="#63b8ff" d="M421.93,-408.46C444.06,-423.2 479.24,-445.27 512,-460 515.56,-461.6 519.25,-463.14 523.01,-464.61"/>
<polygon fill="#63b8ff" stroke="#63b8ff" points="521.71,-467.86 532.3,-468.06 524.14,-461.3 521.71,-467.86"/>
</g>
<!-- Node5 -->
<g id="node5" class="node">
<title>Node5</title>
<g id="a_node5"><a xlink:href="class_urho3_d_1_1_event_handler.html#a18d3379ef44dac87304f2b118e36c83e" target="_top" xlink:title="Return event sender. Null if the handler is non&#45;specific.">
<polygon fill="white" stroke="#666666" points="828.5,-317 715.5,-317 715.5,-287 828.5,-287 828.5,-317"/>
<text text-anchor="start" x="723.5" y="-305" font-family="Roboto" font-size="10.00">Urho3D::EventHandler</text>
<text text-anchor="middle" x="772" y="-294" font-family="Roboto" font-size="10.00">::GetSender</text>
</a>
</g>
</g>
<!-- Node2&#45;&gt;Node5 -->
<g id="edge4" class="edge">
<title>Node2&#45;&gt;Node5</title>
<path fill="none" stroke="#63b8ff" d="M469.95,-397.32C524.62,-398.41 601.54,-394.93 665,-373 695.32,-362.52 725.26,-341.18 745.54,-324.62"/>
<polygon fill="#63b8ff" stroke="#63b8ff" points="747.58,-327.48 752.99,-318.37 743.08,-322.11 747.58,-327.48"/>
</g>
<!-- Node6 -->
<g id="node6" class="node">
<title>Node6</title>
<g id="a_node6"><a xlink:href="class_urho3_d_1_1_context.html#a7b5bd076e695054df7930255c3eee18b" target="_top" xlink:title="Remove event receiver from specific events.">
<polygon fill="white" stroke="#666666" points="665,-451 512,-451 512,-421 665,-421 665,-451"/>
<text text-anchor="start" x="520" y="-439" font-family="Roboto" font-size="10.00">Urho3D::Context::RemoveEvent</text>
<text text-anchor="middle" x="588.5" y="-428" font-family="Roboto" font-size="10.00">Receiver</text>
</a>
</g>
</g>
<!-- Node2&#45;&gt;Node6 -->
<g id="edge5" class="edge">
<title>Node2&#45;&gt;Node6</title>
<path fill="none" stroke="#63b8ff" d="M467.11,-408.46C480.65,-411.56 494.98,-414.84 508.86,-418.01"/>
<polygon fill="#63b8ff" stroke="#63b8ff" points="507.86,-421.37 518.39,-420.19 509.42,-414.55 507.86,-421.37"/>
</g>
<!-- Node4 -->
<g id="node4" class="node">
<title>Node4</title>
<g id="a_node4"><a xlink:href="class_urho3_d_1_1_event_handler.html#ae09d06f06d3590e6f4e06006efa90176" target="_top" xlink:title="Return event type.">
<polygon fill="white" stroke="#666666" points="828.5,-499 715.5,-499 715.5,-469 828.5,-469 828.5,-499"/>
<text text-anchor="start" x="723.5" y="-487" font-family="Roboto" font-size="10.00">Urho3D::EventHandler</text>
<text text-anchor="middle" x="772" y="-476" font-family="Roboto" font-size="10.00">::GetEventType</text>
</a>
</g>
</g>
<!-- Node3&#45;&gt;Node4 -->
<g id="edge3" class="edge">
<title>Node3&#45;&gt;Node4</title>
<path fill="none" stroke="#63b8ff" d="M653.49,-484C669.83,-484 687.43,-484 703.92,-484"/>
<polygon fill="#63b8ff" stroke="#63b8ff" points="703.61,-487.5 713.61,-484 703.61,-480.5 703.61,-487.5"/>
</g>
<!-- Node7 -->
<g id="node7" class="node">
<title>Node7</title>
<g id="a_node7"><a xlink:href="class_urho3_d_1_1_context.html#a1b685db14efe388bbf40ec5c27bab7eb" target="_top" xlink:title="Return event receivers for a sender and event type, or null if they do not exist.">
<polygon fill="#fff0f0" stroke="red" points="838,-403 706,-403 706,-373 838,-373 838,-403"/>
<text text-anchor="start" x="714" y="-391" font-family="Roboto" font-size="10.00">Urho3D::Context::GetEvent</text>
<text text-anchor="middle" x="772" y="-380" font-family="Roboto" font-size="10.00">Receivers</text>
</a>
</g>
</g>
<!-- Node6&#45;&gt;Node7 -->
<g id="edge6" class="edge">
<title>Node6&#45;&gt;Node7</title>
<path fill="none" stroke="#63b8ff" d="M647.93,-420.55C665.09,-416.01 684.03,-411 701.8,-406.3"/>
<polygon fill="#63b8ff" stroke="#63b8ff" points="702.45,-409.75 711.22,-403.81 700.66,-402.98 702.45,-409.75"/>
</g>
<!-- Node16 -->
<g id="node8" class="node">
<title>Node16</title>
<g id="a_node8"><a xlink:href="class_urho3_d_1_1_event_receiver_group.html#a3074ee82cc374a0a9145fe8847086022" target="_top" xlink:title="Remove receiver. Leave holes during send, which requires later cleanup.">
<polygon fill="white" stroke="#666666" points="843,-451 701,-451 701,-421 843,-421 843,-451"/>
<text text-anchor="start" x="709" y="-439" font-family="Roboto" font-size="10.00">Urho3D::EventReceiverGroup</text>
<text text-anchor="middle" x="772" y="-428" font-family="Roboto" font-size="10.00">::Remove</text>
</a>
</g>
</g>
<!-- Node6&#45;&gt;Node16 -->
<g id="edge7" class="edge">
<title>Node6&#45;&gt;Node16</title>
<path fill="none" stroke="#63b8ff" d="M665.42,-436C673.25,-436 681.24,-436 689.13,-436"/>
<polygon fill="#63b8ff" stroke="#63b8ff" points="689.09,-439.5 699.09,-436 689.09,-432.5 689.09,-439.5"/>
</g>
<!-- Node17&#45;&gt;Node2 -->
<g id="edge27" class="edge">
<title>Node17&#45;&gt;Node2</title>
<path fill="none" stroke="#63b8ff" d="M232.8,-228.45C246.29,-245.69 268.24,-274.62 285,-301 302.92,-329.2 295.43,-345.49 321,-367 323.08,-368.75 325.29,-370.39 327.59,-371.92"/>
<polygon fill="#63b8ff" stroke="#63b8ff" points="325.76,-374.9 336.18,-376.85 329.25,-368.83 325.76,-374.9"/>
</g>
<!-- Node18 -->
<g id="node10" class="node">
<title>Node18</title>
<g id="a_node10"><a xlink:href="class_urho3_d_1_1_node.html#a1df1e1bfa613bbd82fe6624c211db754" target="_top" xlink:title="Add listener component that is notified of node being dirtied. Can either be in the same node or anot...">
<polygon fill="white" stroke="#666666" points="467.5,-201.5 329.5,-201.5 329.5,-182.5 467.5,-182.5 467.5,-201.5"/>
<text text-anchor="middle" x="398.5" y="-189.5" font-family="Roboto" font-size="10.00">Urho3D::Node::AddListener</text>
</a>
</g>
</g>
<!-- Node17&#45;&gt;Node18 -->
<g id="edge9" class="edge">
<title>Node17&#45;&gt;Node18</title>
<path fill="none" stroke="#63b8ff" d="M285.4,-205.3C295.95,-204.05 306.97,-202.74 317.82,-201.45"/>
<polygon fill="#63b8ff" stroke="#63b8ff" points="318.01,-204.96 327.53,-200.3 317.19,-198 318.01,-204.96"/>
</g>
<!-- Node20 -->
<g id="node12" class="node">
<title>Node20</title>
<g id="a_node12"><a xlink:href="class_urho3_d_1_1_component.html#a75922f91ae1ee7376aaf1b2e0c0cc84c" target="_top" xlink:title="Return a component from the scene root that sends out fixed update events (either PhysicsWorld or Phy...">
<polygon fill="white" stroke="#666666" points="457,-164 340,-164 340,-134 457,-134 457,-164"/>
<text text-anchor="start" x="348" y="-152" font-family="Roboto" font-size="10.00">Urho3D::Component::</text>
<text text-anchor="middle" x="398.5" y="-141" font-family="Roboto" font-size="10.00">GetFixedUpdateSource</text>
</a>
</g>
</g>
<!-- Node17&#45;&gt;Node20 -->
<g id="edge11" class="edge">
<title>Node17&#45;&gt;Node20</title>
<path fill="none" stroke="#63b8ff" d="M257.48,-197.52C276.36,-189.81 299.77,-180.54 321,-173 325.7,-171.33 330.59,-169.66 335.51,-168.01"/>
<polygon fill="#63b8ff" stroke="#63b8ff" points="336.45,-171.39 344.86,-164.95 334.27,-164.74 336.45,-171.39"/>
</g>
<!-- Node23 -->
<g id="node14" class="node">
<title>Node23</title>
<g id="a_node14"><a xlink:href="class_urho3_d_1_1_component.html#a2c22f727341671a0420934f249ffe059" target="_top" xlink:title="Return the scene the node belongs to.">
<polygon fill="white" stroke="#666666" points="644,-97 533,-97 533,-67 644,-67 644,-97"/>
<text text-anchor="start" x="541" y="-85" font-family="Roboto" font-size="10.00">Urho3D::Component::</text>
<text text-anchor="middle" x="588.5" y="-74" font-family="Roboto" font-size="10.00">GetScene</text>
</a>
</g>
</g>
<!-- Node17&#45;&gt;Node23 -->
<g id="edge15" class="edge">
<title>Node17&#45;&gt;Node23</title>
<path fill="none" stroke="#63b8ff" d="M232.99,-197.68C250.41,-177.45 284.06,-142.37 321,-125 355.58,-108.74 454.24,-95.75 521.31,-88.46"/>
<polygon fill="#63b8ff" stroke="#63b8ff" points="521.54,-91.95 531.11,-87.41 520.79,-84.99 521.54,-91.95"/>
</g>
<!-- Node25 -->
<g id="node16" class="node">
<title>Node25</title>
<g id="a_node16"><a xlink:href="class_urho3_d_1_1_script_instance.html#a818121f4882e8ea7fa5c5f2c9040bc7f" target="_top" xlink:title="Handle scene post&#45;update event.">
<polygon fill="white" stroke="#666666" points="464,-78 333,-78 333,-48 464,-48 464,-78"/>
<text text-anchor="start" x="341" y="-66" font-family="Roboto" font-size="10.00">Urho3D::ScriptInstance</text>
<text text-anchor="middle" x="398.5" y="-55" font-family="Roboto" font-size="10.00">::HandleScenePostUpdate</text>
</a>
</g>
</g>
<!-- Node17&#45;&gt;Node25 -->
<g id="edge16" class="edge">
<title>Node17&#45;&gt;Node25</title>
<path fill="none" stroke="#63b8ff" d="M229.41,-197.83C244.97,-172.56 279.44,-121.67 321,-92 325.58,-88.73 330.57,-85.78 335.74,-83.13"/>
<polygon fill="#63b8ff" stroke="#63b8ff" points="336.91,-86.45 344.47,-79.03 333.93,-80.11 336.91,-86.45"/>
</g>
<!-- Node26 -->
<g id="node17" class="node">
<title>Node26</title>
<g id="a_node17"><a xlink:href="class_urho3_d_1_1_script_instance.html#a2c41222a41bf200ccfbfbe97e4852760" target="_top" xlink:title="Handle scene update event.">
<polygon fill="white" stroke="#666666" points="457.5,-30 339.5,-30 339.5,0 457.5,0 457.5,-30"/>
<text text-anchor="start" x="347.5" y="-18" font-family="Roboto" font-size="10.00">Urho3D::ScriptInstance</text>
<text text-anchor="middle" x="398.5" y="-7" font-family="Roboto" font-size="10.00">::HandleSceneUpdate</text>
</a>
</g>
</g>
<!-- Node17&#45;&gt;Node26 -->
<g id="edge17" class="edge">
<title>Node17&#45;&gt;Node26</title>
<path fill="none" stroke="#63b8ff" d="M225.09,-197.67C235.99,-163.88 266.69,-82.52 321,-39 323.55,-36.96 326.27,-35.09 329.11,-33.38"/>
<polygon fill="#63b8ff" stroke="#63b8ff" points="330.56,-36.57 337.82,-28.86 327.34,-30.36 330.56,-36.57"/>
</g>
<!-- Node28 -->
<g id="node19" class="node">
<title>Node28</title>
<g id="a_node19"><a xlink:href="class_urho3_d_1_1_component.html#aafa7952d0f225edde3387da0c91a9356" target="_top" xlink:title=" ">
<polygon fill="white" stroke="#666666" points="454,-358 343,-358 343,-328 454,-328 454,-358"/>
<text text-anchor="start" x="351" y="-346" font-family="Roboto" font-size="10.00">Urho3D::Component::</text>
<text text-anchor="middle" x="398.5" y="-335" font-family="Roboto" font-size="10.00">IsEnabledEffective</text>
</a>
</g>
</g>
<!-- Node17&#45;&gt;Node28 -->
<g id="edge19" class="edge">
<title>Node17&#45;&gt;Node28</title>
<path fill="none" stroke="#63b8ff" d="M237.7,-228.46C257.26,-245.74 290.44,-274.15 321,-296 333.51,-304.94 347.73,-313.97 360.5,-321.69"/>
<polygon fill="#63b8ff" stroke="#63b8ff" points="358.68,-324.68 369.06,-326.8 362.26,-318.67 358.68,-324.68"/>
</g>
<!-- Node30 -->
<g id="node21" class="node">
<title>Node30</title>
<g id="a_node21"><a xlink:href="class_urho3_d_1_1_node.html#a98f711e232ccff9b596e7846bdffab96" target="_top" xlink:title="Remove listener component.">
<polygon fill="white" stroke="#666666" points="476,-287.5 321,-287.5 321,-268.5 476,-268.5 476,-287.5"/>
<text text-anchor="middle" x="398.5" y="-275.5" font-family="Roboto" font-size="10.00">Urho3D::Node::RemoveListener</text>
</a>
</g>
</g>
<!-- Node17&#45;&gt;Node30 -->
<g id="edge21" class="edge">
<title>Node17&#45;&gt;Node30</title>
<path fill="none" stroke="#63b8ff" d="M250.24,-228.39C269.94,-238.13 296.55,-250.45 321,-259 327.21,-261.17 333.78,-263.19 340.36,-265.05"/>
<polygon fill="#63b8ff" stroke="#63b8ff" points="339.35,-268.41 349.92,-267.62 341.17,-261.65 339.35,-268.41"/>
</g>
<!-- Node31 -->
<g id="node22" class="node">
<title>Node31</title>
<g id="a_node22"><a xlink:href="class_urho3_d_1_1_object.html#a7d9d061f4cf32f5fd5531e11a72834b6" target="_top" xlink:title="Subscribe to an event that can be sent by any sender.">
<polygon fill="white" stroke="#666666" points="464,-250 333,-250 333,-220 464,-220 464,-250"/>
<text text-anchor="start" x="341" y="-238" font-family="Roboto" font-size="10.00">Urho3D::Object::Subscribe</text>
<text text-anchor="middle" x="398.5" y="-227" font-family="Roboto" font-size="10.00">ToEvent</text>
</a>
</g>
</g>
<!-- Node17&#45;&gt;Node31 -->
<g id="edge22" class="edge">
<title>Node17&#45;&gt;Node31</title>
<path fill="none" stroke="#63b8ff" d="M285.4,-221.07C297.07,-222.52 309.32,-224.04 321.27,-225.53"/>
<polygon fill="#63b8ff" stroke="#63b8ff" points="320.75,-228.99 331.1,-226.75 321.61,-222.04 320.75,-228.99"/>
</g>
<!-- Node19 -->
<g id="node11" class="node">
<title>Node19</title>
<g id="a_node11"><a xlink:href="class_urho3_d_1_1_component.html#ab49b4b66b2eb1601cf166972fe42e5ce" target="_top" xlink:title="Handle scene node transform dirtied.">
<polygon fill="white" stroke="#666666" points="644,-183 533,-183 533,-153 644,-153 644,-183"/>
<text text-anchor="start" x="541" y="-171" font-family="Roboto" font-size="10.00">Urho3D::Component::</text>
<text text-anchor="middle" x="588.5" y="-160" font-family="Roboto" font-size="10.00">OnMarkedDirty</text>
</a>
</g>
</g>
<!-- Node18&#45;&gt;Node19 -->
<g id="edge10" class="edge">
<title>Node18&#45;&gt;Node19</title>
<path fill="none" stroke="#63b8ff" d="M467.9,-183.27C485.39,-181.04 504.15,-178.64 521.51,-176.42"/>
<polygon fill="#63b8ff" stroke="#63b8ff" points="521.71,-179.93 531.18,-175.19 520.82,-172.98 521.71,-179.93"/>
</g>
<!-- Node21 -->
<g id="node13" class="node">
<title>Node21</title>
<g id="a_node13"><a xlink:href="class_urho3_d_1_1_scene.html#a0c7ddadabfbb191e42b39877ca84cd67" target="_top" xlink:title="Return component from the whole scene by ID, or null if not found.">
<polygon fill="#fff0f0" stroke="red" points="665,-134.5 512,-134.5 512,-115.5 665,-115.5 665,-134.5"/>
<text text-anchor="middle" x="588.5" y="-122.5" font-family="Roboto" font-size="10.00">Urho3D::Scene::GetComponent</text>
</a>
</g>
</g>
<!-- Node20&#45;&gt;Node21 -->
<g id="edge12" class="edge">
<title>Node20&#45;&gt;Node21</title>
<path fill="none" stroke="#63b8ff" d="M457.44,-141.6C471.11,-139.86 485.98,-137.96 500.62,-136.09"/>
<polygon fill="#63b8ff" stroke="#63b8ff" points="500.76,-139.6 510.24,-134.86 499.88,-132.66 500.76,-139.6"/>
</g>
<!-- Node20&#45;&gt;Node23 -->
<g id="edge13" class="edge">
<title>Node20&#45;&gt;Node23</title>
<path fill="none" stroke="#63b8ff" d="M440.42,-133.56C451.93,-129.2 464.46,-124.43 476,-120 492.03,-113.85 495.81,-111.71 512,-106 516.72,-104.33 521.63,-102.65 526.58,-101"/>
<polygon fill="#63b8ff" stroke="#63b8ff" points="527.56,-104.36 535.96,-97.91 525.37,-97.71 527.56,-104.36"/>
</g>
<!-- Node24 -->
<g id="node15" class="node">
<title>Node24</title>
<g id="a_node15"><a xlink:href="class_urho3_d_1_1_node.html#ad3742cda838a2b291daa44d3ab00de56" target="_top" xlink:title=" ">
<polygon fill="white" stroke="#666666" points="835,-91.5 709,-91.5 709,-72.5 835,-72.5 835,-91.5"/>
<text text-anchor="middle" x="772" y="-79.5" font-family="Roboto" font-size="10.00">Urho3D::Node::GetScene</text>
</a>
</g>
</g>
<!-- Node23&#45;&gt;Node24 -->
<g id="edge14" class="edge">
<title>Node23&#45;&gt;Node24</title>
<path fill="none" stroke="#63b8ff" d="M644.45,-82C661.05,-82 679.56,-82 697.19,-82"/>
<polygon fill="#63b8ff" stroke="#63b8ff" points="697.1,-85.5 707.1,-82 697.1,-78.5 697.1,-85.5"/>
</g>
<!-- Node27 -->
<g id="node18" class="node">
<title>Node27</title>
<g id="a_node18"><a xlink:href="class_urho3_d_1_1_script_instance.html#ac1cf9c1744d5c8d821028b2ac3af7051" target="_top" xlink:title="Query for a method by declaration and execute. Log an error if not found.">
<polygon fill="white" stroke="#666666" points="647.5,-30 529.5,-30 529.5,0 647.5,0 647.5,-30"/>
<text text-anchor="start" x="537.5" y="-18" font-family="Roboto" font-size="10.00">Urho3D::ScriptInstance</text>
<text text-anchor="middle" x="588.5" y="-7" font-family="Roboto" font-size="10.00">::Execute</text>
</a>
</g>
</g>
<!-- Node26&#45;&gt;Node27 -->
<g id="edge18" class="edge">
<title>Node26&#45;&gt;Node27</title>
<path fill="none" stroke="#63b8ff" d="M457.95,-15C476.88,-15 498.05,-15 517.71,-15"/>
<polygon fill="#63b8ff" stroke="#63b8ff" points="517.57,-18.5 527.57,-15 517.57,-11.5 517.57,-18.5"/>
</g>
<!-- Node29 -->
<g id="node20" class="node">
<title>Node29</title>
<g id="a_node20"><a xlink:href="class_urho3_d_1_1_node.html#a36ffa108037ab29617bf178fcb4ec1da" target="_top" xlink:title=" ">
<polygon fill="white" stroke="#666666" points="652.5,-364.5 524.5,-364.5 524.5,-345.5 652.5,-345.5 652.5,-364.5"/>
<text text-anchor="middle" x="588.5" y="-352.5" font-family="Roboto" font-size="10.00">Urho3D::Node::IsEnabled</text>
</a>
</g>
</g>
<!-- Node28&#45;&gt;Node29 -->
<g id="edge20" class="edge">
<title>Node28&#45;&gt;Node29</title>
<path fill="none" stroke="#63b8ff" d="M454.38,-346.5C472.68,-347.67 493.39,-348.99 512.93,-350.24"/>
<polygon fill="#63b8ff" stroke="#63b8ff" points="512.56,-353.72 522.76,-350.87 513,-346.74 512.56,-353.72"/>
</g>
<!-- Node32 -->
<g id="node23" class="node">
<title>Node32</title>
<g id="a_node23"><a xlink:href="class_urho3_d_1_1_context.html#ae3e0c5db85e2395f3d34941003c816ad" target="_top" xlink:title="Add event receiver.">
<polygon fill="white" stroke="#666666" points="656.5,-327 520.5,-327 520.5,-297 656.5,-297 656.5,-327"/>
<text text-anchor="start" x="528.5" y="-315" font-family="Roboto" font-size="10.00">Urho3D::Context::AddEvent</text>
<text text-anchor="middle" x="588.5" y="-304" font-family="Roboto" font-size="10.00">Receiver</text>
</a>
</g>
</g>
<!-- Node31&#45;&gt;Node32 -->
<g id="edge23" class="edge">
<title>Node31&#45;&gt;Node32</title>
<path fill="none" stroke="#63b8ff" d="M456.87,-250.39C463.47,-252.92 469.99,-255.78 476,-259 494.12,-268.69 493.9,-278.28 512,-288 514.69,-289.45 517.48,-290.82 520.34,-292.13"/>
<polygon fill="#63b8ff" stroke="#63b8ff" points="518.91,-295.32 529.49,-295.97 521.62,-288.87 518.91,-295.32"/>
</g>
<!-- Node33 -->
<g id="node24" class="node">
<title>Node33</title>
<g id="a_node24"><a xlink:href="class_urho3_d_1_1_object.html#ad9d3702ab78a9d8a8ddad6aae7144abb" target="_top" xlink:title="Find the first event handler with specific sender.">
<polygon fill="white" stroke="#666666" points="658.5,-279 518.5,-279 518.5,-249 658.5,-249 658.5,-279"/>
<text text-anchor="start" x="526.5" y="-267" font-family="Roboto" font-size="10.00">Urho3D::Object::FindSpecific</text>
<text text-anchor="middle" x="588.5" y="-256" font-family="Roboto" font-size="10.00">EventHandler</text>
</a>
</g>
</g>
<!-- Node31&#45;&gt;Node33 -->
<g id="edge24" class="edge">
<title>Node31&#45;&gt;Node33</title>
<path fill="none" stroke="#63b8ff" d="M464.46,-245.02C478.11,-247.13 492.67,-249.37 506.82,-251.55"/>
<polygon fill="#63b8ff" stroke="#63b8ff" points="506.13,-254.99 516.55,-253.06 507.2,-248.07 506.13,-254.99"/>
</g>
<!-- Node34 -->
<g id="node25" class="node">
<title>Node34</title>
<g id="a_node25"><a xlink:href="class_urho3_d_1_1_event_handler.html#abe76f0245895dadac146b7a4b7d78713" target="_top" xlink:title="Set sender and event type.">
<polygon fill="white" stroke="#666666" points="652.5,-231 524.5,-231 524.5,-201 652.5,-201 652.5,-231"/>
<text text-anchor="start" x="532.5" y="-219" font-family="Roboto" font-size="10.00">Urho3D::EventHandler</text>
<text text-anchor="middle" x="588.5" y="-208" font-family="Roboto" font-size="10.00">::SetSenderAndEventType</text>
</a>
</g>
</g>
<!-- Node31&#45;&gt;Node34 -->
<g id="edge26" class="edge">
<title>Node31&#45;&gt;Node34</title>
<path fill="none" stroke="#63b8ff" d="M464.46,-228.43C480.01,-226.86 496.72,-225.17 512.67,-223.56"/>
<polygon fill="#63b8ff" stroke="#63b8ff" points="513.02,-227.05 522.62,-222.56 512.32,-220.08 513.02,-227.05"/>
</g>
<!-- Node33&#45;&gt;Node5 -->
<g id="edge25" class="edge">
<title>Node33&#45;&gt;Node5</title>
<path fill="none" stroke="#63b8ff" d="M658.89,-278.53C673.73,-281.63 689.37,-284.91 704.1,-287.99"/>
<polygon fill="#63b8ff" stroke="#63b8ff" points="703.18,-291.38 713.69,-290 704.62,-284.53 703.18,-291.38"/>
</g>
</g>
</svg>
