<?xml version="1.0" encoding="UTF-8" standalone="no"?>
<!DOCTYPE svg PUBLIC "-//W3C//DTD SVG 1.1//EN"
 "http://www.w3.org/Graphics/SVG/1.1/DTD/svg11.dtd">
<!-- Generated by graphviz version 7.0.3 (0)
 -->
<!-- Title: Urho3D::Node::MarkNetworkUpdate Pages: 1 -->
<svg width="725pt" height="705pt"
 viewBox="0.00 0.00 725.00 705.00" xmlns="http://www.w3.org/2000/svg" xmlns:xlink="http://www.w3.org/1999/xlink">
<g id="graph0" class="graph" transform="scale(1 1) rotate(0) translate(4 701)">
<title>Urho3D::Node::MarkNetworkUpdate</title>
<!-- Node1 -->
<g id="node1" class="node">
<title>Node1</title>
<g id="a_node1"><a xlink:title="Mark for attribute check on the next network update.">
<polygon fill="#999999" stroke="#666666" points="717,-350.5 571,-350.5 571,-320.5 717,-320.5 717,-350.5"/>
<text text-anchor="start" x="579" y="-338.5" font-family="Roboto" font-size="10.00">Urho3D::Node::MarkNetwork</text>
<text text-anchor="middle" x="644" y="-327.5" font-family="Roboto" font-size="10.00">Update</text>
</a>
</g>
</g>
<!-- Node2 -->
<g id="node2" class="node">
<title>Node2</title>
<g id="a_node2"><a xlink:href="class_urho3_d_1_1_node.html#aefe578aa19c22b27311a4377239cca01" target="_top" xlink:title="Add a child scene node at a specific index. If index is not explicitly specified or is greater than c...">
<polygon fill="white" stroke="#666666" points="514,-660 389,-660 389,-641 514,-641 514,-660"/>
<text text-anchor="middle" x="451.5" y="-648" font-family="Roboto" font-size="10.00">Urho3D::Node::AddChild</text>
</a>
</g>
</g>
<!-- Node1&#45;&gt;Node2 -->
<g id="edge1" class="edge">
<title>Node1&#45;&gt;Node2</title>
<path fill="none" stroke="#63b8ff" d="M641.57,-362.14C636.93,-420.58 617.33,-560.52 535,-632.5 529.04,-637.71 521.92,-641.52 514.4,-644.3"/>
<polygon fill="#63b8ff" stroke="#63b8ff" points="645.04,-362.69 642.24,-352.47 638.06,-362.21 645.04,-362.69"/>
</g>
<!-- Node7 -->
<g id="node6" class="node">
<title>Node7</title>
<g id="a_node6"><a xlink:href="class_urho3_d_1_1_node.html#a3792a0c2e23b120ac879c2931d6f9dc4" target="_top" xlink:title="Add a pre&#45;created component. Using this function from application code is discouraged,...">
<polygon fill="white" stroke="#666666" points="529,-586 374,-586 374,-567 529,-567 529,-586"/>
<text text-anchor="middle" x="451.5" y="-574" font-family="Roboto" font-size="10.00">Urho3D::Node::AddComponent</text>
</a>
</g>
</g>
<!-- Node1&#45;&gt;Node7 -->
<g id="edge5" class="edge">
<title>Node1&#45;&gt;Node7</title>
<path fill="none" stroke="#63b8ff" d="M638.04,-361.92C627.72,-409.14 599.34,-507.81 535,-558.5 530.97,-561.68 526.5,-564.32 521.78,-566.52"/>
<polygon fill="#63b8ff" stroke="#63b8ff" points="641.43,-362.81 640.03,-352.31 634.57,-361.39 641.43,-362.81"/>
</g>
<!-- Node53 -->
<g id="node9" class="node">
<title>Node53</title>
<g id="a_node9"><a xlink:href="class_urho3_d_1_1_node.html#af02551fed0c1b325fd48332936062742" target="_top" xlink:title="Add a tag.">
<polygon fill="white" stroke="#666666" points="511,-93 392,-93 392,-74 511,-74 511,-93"/>
<text text-anchor="middle" x="451.5" y="-81" font-family="Roboto" font-size="10.00">Urho3D::Node::AddTag</text>
</a>
</g>
</g>
<!-- Node1&#45;&gt;Node53 -->
<g id="edge9" class="edge">
<title>Node1&#45;&gt;Node53</title>
<path fill="none" stroke="#63b8ff" d="M638.65,-308.83C629.17,-259.75 601.89,-155.22 535,-101.5 528.14,-95.99 519.97,-92.08 511.47,-89.31"/>
<polygon fill="#63b8ff" stroke="#63b8ff" points="635.18,-309.35 640.42,-318.56 642.07,-308.1 635.18,-309.35"/>
</g>
<!-- Node55 -->
<g id="node11" class="node">
<title>Node55</title>
<g id="a_node11"><a xlink:href="class_urho3_d_1_1_node.html#a7d20c591eb136f06b302edbe42fd674b" target="_top" xlink:title="Remove all tags.">
<polygon fill="#fff0f0" stroke="red" points="527.5,-549 375.5,-549 375.5,-530 527.5,-530 527.5,-549"/>
<text text-anchor="middle" x="451.5" y="-537" font-family="Roboto" font-size="10.00">Urho3D::Node::RemoveAllTags</text>
</a>
</g>
</g>
<!-- Node1&#45;&gt;Node55 -->
<g id="edge11" class="edge">
<title>Node1&#45;&gt;Node55</title>
<path fill="none" stroke="#63b8ff" d="M635.32,-361.86C621.98,-402.78 590.48,-481.07 535,-521.5 530.62,-524.69 525.78,-527.34 520.7,-529.53"/>
<polygon fill="#63b8ff" stroke="#63b8ff" points="638.65,-362.94 638.3,-352.35 631.97,-360.85 638.65,-362.94"/>
</g>
<!-- Node57 -->
<g id="node12" class="node">
<title>Node57</title>
<g id="a_node12"><a xlink:href="class_urho3_d_1_1_node.html#ad325f3f7bc7b89b57bb8624b8c052e90" target="_top" xlink:title="Remove tag. Return true if existed.">
<polygon fill="white" stroke="#666666" points="519.5,-512 383.5,-512 383.5,-493 519.5,-493 519.5,-512"/>
<text text-anchor="middle" x="451.5" y="-500" font-family="Roboto" font-size="10.00">Urho3D::Node::RemoveTag</text>
</a>
</g>
</g>
<!-- Node1&#45;&gt;Node57 -->
<g id="edge12" class="edge">
<title>Node1&#45;&gt;Node57</title>
<path fill="none" stroke="#63b8ff" d="M631.76,-360.99C615.49,-394.78 582.08,-453.71 535,-484.5 530.09,-487.71 524.7,-490.36 519.11,-492.54"/>
<polygon fill="#63b8ff" stroke="#63b8ff" points="634.93,-362.48 635.98,-351.94 628.58,-359.53 634.93,-362.48"/>
</g>
<!-- Node58 -->
<g id="node13" class="node">
<title>Node58</title>
<g id="a_node13"><a xlink:href="class_urho3_d_1_1_node.html#a071a25236d4886d8a8a7c7ab8f583ace" target="_top" xlink:title="Rotate around a point in the chosen transform space.">
<polygon fill="white" stroke="#666666" points="524,-475 379,-475 379,-456 524,-456 524,-475"/>
<text text-anchor="middle" x="451.5" y="-463" font-family="Roboto" font-size="10.00">Urho3D::Node::RotateAround</text>
</a>
</g>
</g>
<!-- Node1&#45;&gt;Node58 -->
<g id="edge13" class="edge">
<title>Node1&#45;&gt;Node58</title>
<path fill="none" stroke="#63b8ff" d="M626.18,-360.11C607.14,-385.99 573.69,-425.9 535,-447.5 529.24,-450.72 522.96,-453.36 516.51,-455.53"/>
<polygon fill="#63b8ff" stroke="#63b8ff" points="628.89,-362.34 631.87,-352.17 623.2,-358.26 628.89,-362.34"/>
</g>
<!-- Node59 -->
<g id="node14" class="node">
<title>Node59</title>
<g id="a_node14"><a xlink:href="class_urho3_d_1_1_node.html#af976764d78d73c0e6559e40ec169da99" target="_top" xlink:title="Modify scale in parent space.">
<polygon fill="white" stroke="#666666" points="505.5,-438 397.5,-438 397.5,-419 505.5,-419 505.5,-438"/>
<text text-anchor="middle" x="451.5" y="-426" font-family="Roboto" font-size="10.00">Urho3D::Node::Scale</text>
</a>
</g>
</g>
<!-- Node1&#45;&gt;Node59 -->
<g id="edge14" class="edge">
<title>Node1&#45;&gt;Node59</title>
<path fill="none" stroke="#63b8ff" d="M616.73,-358.18C595.89,-375.03 565.31,-397.29 535,-410.5 525.86,-414.48 515.76,-417.62 505.84,-420.08"/>
<polygon fill="#63b8ff" stroke="#63b8ff" points="618.94,-360.9 624.42,-351.83 614.48,-355.5 618.94,-360.9"/>
</g>
<!-- Node60 -->
<g id="node15" class="node">
<title>Node60</title>
<g id="a_node15"><a xlink:href="class_urho3_d_1_1_node.html#a34e18d709fe99b03eaa56bc1ef202059" target="_top" xlink:title="Set enabled/disabled state with optional recursion. Optionally affect the remembered enable state.">
<polygon fill="white" stroke="#666666" points="518.5,-401 384.5,-401 384.5,-382 518.5,-382 518.5,-401"/>
<text text-anchor="middle" x="451.5" y="-389" font-family="Roboto" font-size="10.00">Urho3D::Node::SetEnabled</text>
</a>
</g>
</g>
<!-- Node1&#45;&gt;Node60 -->
<g id="edge15" class="edge">
<title>Node1&#45;&gt;Node60</title>
<path fill="none" stroke="#63b8ff" d="M592.08,-354.87C574.18,-361.29 553.84,-368.15 535,-373.5 524.7,-376.42 513.57,-379.14 502.92,-381.54"/>
<polygon fill="#63b8ff" stroke="#63b8ff" points="593.24,-358.17 601.44,-351.47 590.85,-351.59 593.24,-358.17"/>
</g>
<!-- Node61 -->
<g id="node16" class="node">
<title>Node61</title>
<g id="a_node16"><a xlink:href="class_urho3_d_1_1_node.html#a4fe38a2be941c8ca1fa59b9639775c09" target="_top" xlink:title=" ">
<polygon fill="#fff0f0" stroke="red" points="514,-364 389,-364 389,-345 514,-345 514,-364"/>
<text text-anchor="middle" x="451.5" y="-352" font-family="Roboto" font-size="10.00">Urho3D::Node::SetName</text>
</a>
</g>
</g>
<!-- Node1&#45;&gt;Node61 -->
<g id="edge16" class="edge">
<title>Node1&#45;&gt;Node61</title>
<path fill="none" stroke="#63b8ff" d="M559.29,-343.85C544.23,-345.35 528.78,-346.89 514.47,-348.32"/>
<polygon fill="#63b8ff" stroke="#63b8ff" points="559.6,-347.34 569.2,-342.86 558.9,-340.37 559.6,-347.34"/>
</g>
<!-- Node88 -->
<g id="node17" class="node">
<title>Node88</title>
<g id="a_node17"><a xlink:href="class_urho3_d_1_1_node.html#aa2fd960b4c5641cd38771280a6b84fb8" target="_top" xlink:title=" ">
<polygon fill="#fff0f0" stroke="red" points="518.5,-327 384.5,-327 384.5,-308 518.5,-308 518.5,-327"/>
<text text-anchor="middle" x="451.5" y="-315" font-family="Roboto" font-size="10.00">Urho3D::Node::SetPosition</text>
</a>
</g>
</g>
<!-- Node1&#45;&gt;Node88 -->
<g id="edge17" class="edge">
<title>Node1&#45;&gt;Node88</title>
<path fill="none" stroke="#63b8ff" d="M559.39,-327.6C545.8,-326.32 531.89,-325 518.79,-323.76"/>
<polygon fill="#63b8ff" stroke="#63b8ff" points="558.92,-331.07 569.2,-328.53 559.58,-324.1 558.92,-331.07"/>
</g>
<!-- Node114 -->
<g id="node18" class="node">
<title>Node114</title>
<g id="a_node18"><a xlink:href="class_urho3_d_1_1_node.html#a11bd9b2bfda2503123a32889b144aea1" target="_top" xlink:title=" ">
<polygon fill="#fff0f0" stroke="red" points="519,-290 384,-290 384,-271 519,-271 519,-290"/>
<text text-anchor="middle" x="451.5" y="-278" font-family="Roboto" font-size="10.00">Urho3D::Node::SetRotation</text>
</a>
</g>
</g>
<!-- Node1&#45;&gt;Node114 -->
<g id="edge18" class="edge">
<title>Node1&#45;&gt;Node114</title>
<path fill="none" stroke="#63b8ff" d="M589.24,-316.46C572.02,-310.66 552.8,-304.51 535,-299.5 523.54,-296.28 511.07,-293.19 499.38,-290.48"/>
<polygon fill="#63b8ff" stroke="#63b8ff" points="587.65,-319.61 598.24,-319.52 589.9,-312.99 587.65,-319.61"/>
</g>
<!-- Node120 -->
<g id="node19" class="node">
<title>Node120</title>
<g id="a_node19"><a xlink:href="class_urho3_d_1_1_node.html#a2c082c1db09bb3498117d0b3586ecba2" target="_top" xlink:title=" ">
<polygon fill="white" stroke="#666666" points="512.5,-253 390.5,-253 390.5,-234 512.5,-234 512.5,-253"/>
<text text-anchor="middle" x="451.5" y="-241" font-family="Roboto" font-size="10.00">Urho3D::Node::SetScale</text>
</a>
</g>
</g>
<!-- Node1&#45;&gt;Node120 -->
<g id="edge19" class="edge">
<title>Node1&#45;&gt;Node120</title>
<path fill="none" stroke="#63b8ff" d="M615.83,-312.96C594.93,-296.7 564.69,-275.42 535,-262.5 526.64,-258.86 517.5,-255.88 508.43,-253.43"/>
<polygon fill="#63b8ff" stroke="#63b8ff" points="613.55,-315.62 623.56,-319.09 617.9,-310.13 613.55,-315.62"/>
</g>
<!-- Node121 -->
<g id="node20" class="node">
<title>Node121</title>
<g id="a_node20"><a xlink:href="class_urho3_d_1_1_scene.html#a1a98707b3d010c1260553d2465dc1848" target="_top" xlink:title=" ">
<polygon fill="#fff0f0" stroke="red" points="526,-215.5 377,-215.5 377,-185.5 526,-185.5 526,-215.5"/>
<text text-anchor="start" x="385" y="-203.5" font-family="Roboto" font-size="10.00">Urho3D::Scene::SetSmoothing</text>
<text text-anchor="middle" x="451.5" y="-192.5" font-family="Roboto" font-size="10.00">Constant</text>
</a>
</g>
</g>
<!-- Node1&#45;&gt;Node121 -->
<g id="edge20" class="edge">
<title>Node1&#45;&gt;Node121</title>
<path fill="none" stroke="#63b8ff" d="M625.43,-311.51C605.96,-286.58 572.35,-248.11 535,-225.5 528.98,-221.86 522.39,-218.71 515.65,-216"/>
<polygon fill="#63b8ff" stroke="#63b8ff" points="622.4,-313.32 631.25,-319.14 627.96,-309.07 622.4,-313.32"/>
</g>
<!-- Node122 -->
<g id="node21" class="node">
<title>Node122</title>
<g id="a_node21"><a xlink:href="class_urho3_d_1_1_scene.html#a8290804ab553ae30abe3d6ad00869e6f" target="_top" xlink:title=" ">
<polygon fill="#fff0f0" stroke="red" points="535,-167 368,-167 368,-148 535,-148 535,-167"/>
<text text-anchor="middle" x="451.5" y="-155" font-family="Roboto" font-size="10.00">Urho3D::Scene::SetSnapThreshold</text>
</a>
</g>
</g>
<!-- Node1&#45;&gt;Node122 -->
<g id="edge21" class="edge">
<title>Node1&#45;&gt;Node122</title>
<path fill="none" stroke="#63b8ff" d="M632.86,-309.96C617.33,-274.29 584.2,-210.18 535,-176.5 529.66,-172.85 523.72,-169.89 517.55,-167.49"/>
<polygon fill="#63b8ff" stroke="#63b8ff" points="629.58,-311.21 636.69,-319.07 636.04,-308.49 629.58,-311.21"/>
</g>
<!-- Node123 -->
<g id="node22" class="node">
<title>Node123</title>
<g id="a_node22"><a xlink:href="class_urho3_d_1_1_scene.html#ac8b0f11b63f431f1e605dd7379f39ede" target="_top" xlink:title=" ">
<polygon fill="#fff0f0" stroke="red" points="525,-130 378,-130 378,-111 525,-111 525,-130"/>
<text text-anchor="middle" x="451.5" y="-118" font-family="Roboto" font-size="10.00">Urho3D::Scene::SetTimeScale</text>
</a>
</g>
</g>
<!-- Node1&#45;&gt;Node123 -->
<g id="edge22" class="edge">
<title>Node1&#45;&gt;Node123</title>
<path fill="none" stroke="#63b8ff" d="M636.13,-309.33C623.55,-266.79 592.67,-183.05 535,-139.5 530.07,-135.78 524.54,-132.77 518.74,-130.34"/>
<polygon fill="#63b8ff" stroke="#63b8ff" points="632.69,-310.04 638.78,-318.71 639.43,-308.13 632.69,-310.04"/>
</g>
<!-- Node124 -->
<g id="node23" class="node">
<title>Node124</title>
<g id="a_node23"><a xlink:href="class_urho3_d_1_1_node.html#af7fc2b6d072cd23a0b7b87e509d010fd" target="_top" xlink:title="Set both position and rotation in parent space as an atomic operation. This is faster than setting po...">
<polygon fill="#fff0f0" stroke="red" points="524,-623 379,-623 379,-604 524,-604 524,-623"/>
<text text-anchor="middle" x="451.5" y="-611" font-family="Roboto" font-size="10.00">Urho3D::Node::SetTransform</text>
</a>
</g>
</g>
<!-- Node1&#45;&gt;Node124 -->
<g id="edge23" class="edge">
<title>Node1&#45;&gt;Node124</title>
<path fill="none" stroke="#63b8ff" d="M640.02,-362.11C632.59,-415.17 608.25,-534.3 535,-595.5 531.17,-598.7 526.91,-601.36 522.39,-603.58"/>
<polygon fill="#63b8ff" stroke="#63b8ff" points="643.45,-362.84 641.27,-352.47 636.51,-361.94 643.45,-362.84"/>
</g>
<!-- Node127 -->
<g id="node24" class="node">
<title>Node127</title>
<g id="a_node24"><a xlink:href="class_urho3_d_1_1_node.html#a70dad27412862b789eaadab43cb1fd0b" target="_top" xlink:title="Set a user variable.">
<polygon fill="#fff0f0" stroke="red" points="508,-56 395,-56 395,-37 508,-37 508,-56"/>
<text text-anchor="middle" x="451.5" y="-44" font-family="Roboto" font-size="10.00">Urho3D::Node::SetVar</text>
</a>
</g>
</g>
<!-- Node1&#45;&gt;Node127 -->
<g id="edge25" class="edge">
<title>Node1&#45;&gt;Node127</title>
<path fill="none" stroke="#63b8ff" d="M640.52,-308.92C633.95,-254.25 610.96,-128.9 535,-64.5 527.4,-58.05 518.01,-53.76 508.33,-50.94"/>
<polygon fill="#63b8ff" stroke="#63b8ff" points="637.01,-309 641.59,-318.56 643.97,-308.23 637.01,-309"/>
</g>
<!-- Node128 -->
<g id="node25" class="node">
<title>Node128</title>
<g id="a_node25"><a xlink:href="class_urho3_d_1_1_node.html#a407412d8ff08e79afdd609d82afadff7" target="_top" xlink:title="Move the scene node in the chosen transform space.">
<polygon fill="#fff0f0" stroke="red" points="513.5,-19 389.5,-19 389.5,0 513.5,0 513.5,-19"/>
<text text-anchor="middle" x="451.5" y="-7" font-family="Roboto" font-size="10.00">Urho3D::Node::Translate</text>
</a>
</g>
</g>
<!-- Node1&#45;&gt;Node128 -->
<g id="edge26" class="edge">
<title>Node1&#45;&gt;Node128</title>
<path fill="none" stroke="#63b8ff" d="M641.96,-308.74C638.1,-248.71 620,-102.68 535,-27.5 528.85,-22.06 521.44,-18.14 513.62,-15.33"/>
<polygon fill="#63b8ff" stroke="#63b8ff" points="638.46,-308.89 642.5,-318.68 645.45,-308.5 638.46,-308.89"/>
</g>
<!-- Node3 -->
<g id="node3" class="node">
<title>Node3</title>
<g id="a_node3"><a xlink:href="class_urho3_d_1_1_node.html#a418b30665ae7a725c94bfcacbf629238" target="_top" xlink:title="Create a child node with specific ID.">
<polygon fill="white" stroke="#666666" points="317.5,-697 182.5,-697 182.5,-678 317.5,-678 317.5,-697"/>
<text text-anchor="middle" x="250" y="-685" font-family="Roboto" font-size="10.00">Urho3D::Node::CreateChild</text>
</a>
</g>
</g>
<!-- Node2&#45;&gt;Node3 -->
<g id="edge2" class="edge">
<title>Node2&#45;&gt;Node3</title>
<path fill="none" stroke="#63b8ff" d="M385.46,-662.56C359.37,-667.4 329.66,-672.91 304.82,-677.52"/>
<polygon fill="#63b8ff" stroke="#63b8ff" points="386.09,-666 395.29,-660.74 384.82,-659.12 386.09,-666"/>
</g>
<!-- Node4 -->
<g id="node4" class="node">
<title>Node4</title>
<g id="a_node4"><a xlink:href="class_urho3_d_1_1_node.html#a3739b426a217d968f04b9d0128922f1e" target="_top" xlink:title="Set network parent attribute.">
<polygon fill="#fff0f0" stroke="red" points="329,-660 171,-660 171,-641 329,-641 329,-660"/>
<text text-anchor="middle" x="250" y="-648" font-family="Roboto" font-size="10.00">Urho3D::Node::SetNetParentAttr</text>
</a>
</g>
</g>
<!-- Node2&#45;&gt;Node4 -->
<g id="edge3" class="edge">
<title>Node2&#45;&gt;Node4</title>
<path fill="none" stroke="#63b8ff" d="M377.53,-650.5C361.87,-650.5 345.25,-650.5 329.39,-650.5"/>
<polygon fill="#63b8ff" stroke="#63b8ff" points="377.23,-654 387.23,-650.5 377.23,-647 377.23,-654"/>
</g>
<!-- Node6 -->
<g id="node5" class="node">
<title>Node6</title>
<g id="a_node5"><a xlink:href="class_urho3_d_1_1_node.html#a8a62d2fd3157b3d569753b57de8d065d" target="_top" xlink:title=" ">
<polygon fill="white" stroke="#666666" points="313,-623 187,-623 187,-604 313,-604 313,-623"/>
<text text-anchor="middle" x="250" y="-611" font-family="Roboto" font-size="10.00">Urho3D::Node::SetParent</text>
</a>
</g>
</g>
<!-- Node2&#45;&gt;Node6 -->
<g id="edge4" class="edge">
<title>Node2&#45;&gt;Node6</title>
<path fill="none" stroke="#63b8ff" d="M385.46,-638.44C359.37,-633.6 329.66,-628.09 304.82,-623.48"/>
<polygon fill="#63b8ff" stroke="#63b8ff" points="384.82,-641.88 395.29,-640.26 386.09,-635 384.82,-641.88"/>
</g>
<!-- Node8 -->
<g id="node7" class="node">
<title>Node8</title>
<g id="a_node7"><a xlink:href="class_urho3_d_1_1_node.html#ab23d77af7fe3350c1dcfec8281849ed3" target="_top" xlink:title="Create a component to this node (with specified ID if provided).">
<polygon fill="#fff0f0" stroke="red" points="332,-586 168,-586 168,-567 332,-567 332,-586"/>
<text text-anchor="middle" x="250" y="-574" font-family="Roboto" font-size="10.00">Urho3D::Node::CreateComponent</text>
</a>
</g>
</g>
<!-- Node7&#45;&gt;Node8 -->
<g id="edge6" class="edge">
<title>Node7&#45;&gt;Node8</title>
<path fill="none" stroke="#63b8ff" d="M362.15,-576.5C352.26,-576.5 342.23,-576.5 332.44,-576.5"/>
<polygon fill="#63b8ff" stroke="#63b8ff" points="362.14,-580 372.14,-576.5 362.14,-573 362.14,-580"/>
</g>
<!-- Node45 -->
<g id="node8" class="node">
<title>Node45</title>
<g id="a_node8"><a xlink:href="class_urho3_d_1_1_node.html#a7d5ace493b64e225e28101f4f8c697ee" target="_top" xlink:title="Create component, allowing UnknownComponent if actual type is not supported. Leave typeName empty if ...">
<polygon fill="#fff0f0" stroke="red" points="132,-572.5 0,-572.5 0,-542.5 132,-542.5 132,-572.5"/>
<text text-anchor="start" x="8" y="-560.5" font-family="Roboto" font-size="10.00">Urho3D::Node::SafeCreate</text>
<text text-anchor="middle" x="66" y="-549.5" font-family="Roboto" font-size="10.00">Component</text>
</a>
</g>
</g>
<!-- Node7&#45;&gt;Node45 -->
<g id="edge8" class="edge">
<title>Node7&#45;&gt;Node45</title>
<path fill="none" stroke="#63b8ff" d="M385.05,-564.8C367.85,-562.21 349.27,-559.84 332,-558.5 264.11,-553.24 186.15,-553.73 132.45,-555.08"/>
<polygon fill="#63b8ff" stroke="#63b8ff" points="384.21,-568.21 394.63,-566.29 385.29,-561.3 384.21,-568.21"/>
</g>
<!-- Node8&#45;&gt;Node45 -->
<g id="edge7" class="edge">
<title>Node8&#45;&gt;Node45</title>
<path fill="none" stroke="#63b8ff" d="M156.17,-566.81C148.09,-565.97 140.03,-565.12 132.25,-564.31"/>
<polygon fill="#63b8ff" stroke="#63b8ff" points="155.77,-570.29 166.08,-567.84 156.49,-563.32 155.77,-570.29"/>
</g>
<!-- Node54 -->
<g id="node10" class="node">
<title>Node54</title>
<g id="a_node10"><a xlink:href="class_urho3_d_1_1_node.html#a9629ef32d32424c031e40adae5454115" target="_top" xlink:title="Add tags.">
<polygon fill="white" stroke="#666666" points="312,-93 188,-93 188,-74 312,-74 312,-93"/>
<text text-anchor="middle" x="250" y="-81" font-family="Roboto" font-size="10.00">Urho3D::Node::AddTags</text>
</a>
</g>
</g>
<!-- Node53&#45;&gt;Node54 -->
<g id="edge10" class="edge">
<title>Node53&#45;&gt;Node54</title>
<path fill="none" stroke="#63b8ff" d="M380.37,-83.5C358.23,-83.5 333.96,-83.5 312.48,-83.5"/>
<polygon fill="#63b8ff" stroke="#63b8ff" points="380.21,-87 390.21,-83.5 380.21,-80 380.21,-87"/>
</g>
<!-- Node124&#45;&gt;Node6 -->
<g id="edge24" class="edge">
<title>Node124&#45;&gt;Node6</title>
<path fill="none" stroke="#63b8ff" d="M367.3,-613.5C349.19,-613.5 330.33,-613.5 313.2,-613.5"/>
<polygon fill="#63b8ff" stroke="#63b8ff" points="367.24,-617 377.24,-613.5 367.24,-610 367.24,-617"/>
</g>
</g>
</svg>
