<?xml version="1.0" encoding="UTF-8" standalone="no"?>
<!DOCTYPE svg PUBLIC "-//W3C//DTD SVG 1.1//EN"
 "http://www.w3.org/Graphics/SVG/1.1/DTD/svg11.dtd">
<!-- Generated by graphviz version 7.0.3 (0)
 -->
<!-- Title: Urho3D::Geometry::GetLodDistance Pages: 1 -->
<svg width="292pt" height="64pt"
 viewBox="0.00 0.00 292.00 64.00" xmlns="http://www.w3.org/2000/svg" xmlns:xlink="http://www.w3.org/1999/xlink">
<g id="graph0" class="graph" transform="scale(1 1) rotate(0) translate(4 60)">
<title>Urho3D::Geometry::GetLodDistance</title>
<!-- Node1 -->
<g id="node1" class="node">
<title>Node1</title>
<g id="a_node1"><a xlink:title=" ">
<polygon fill="#999999" stroke="#666666" points="284,-42.5 149,-42.5 149,-12.5 284,-12.5 284,-42.5"/>
<text text-anchor="start" x="157" y="-30.5" font-family="Roboto" font-size="10.00">Urho3D::Geometry::GetLod</text>
<text text-anchor="middle" x="216.5" y="-19.5" font-family="Roboto" font-size="10.00">Distance</text>
</a>
</g>
</g>
<!-- Node2 -->
<g id="node2" class="node">
<title>Node2</title>
<g id="a_node2"><a xlink:href="class_urho3_d_1_1_model.html#a3623ddcafb95242955bf9335288855ae" target="_top" xlink:title="Clone the model. The geometry data is deep&#45;copied and can be modified in the clone without affecting ...">
<polygon fill="white" stroke="#666666" points="113,-56 0,-56 0,-37 113,-37 113,-56"/>
<text text-anchor="middle" x="56.5" y="-44" font-family="Roboto" font-size="10.00">Urho3D::Model::Clone</text>
</a>
</g>
</g>
<!-- Node1&#45;&gt;Node2 -->
<g id="edge1" class="edge">
<title>Node1&#45;&gt;Node2</title>
<path fill="none" stroke="#63b8ff" d="M137.52,-36.88C129.41,-37.85 121.28,-38.83 113.48,-39.77"/>
<polygon fill="#63b8ff" stroke="#63b8ff" points="137.94,-40.35 147.45,-35.68 137.1,-33.4 137.94,-40.35"/>
</g>
<!-- Node3 -->
<g id="node3" class="node">
<title>Node3</title>
<g id="a_node3"><a xlink:href="class_urho3_d_1_1_model.html#abff8eafc5209a8bdbc64676952fc445d" target="_top" xlink:title="Save resource. Return true if successful.">
<polygon fill="white" stroke="#666666" points="111,-19 2,-19 2,0 111,0 111,-19"/>
<text text-anchor="middle" x="56.5" y="-7" font-family="Roboto" font-size="10.00">Urho3D::Model::Save</text>
</a>
</g>
</g>
<!-- Node1&#45;&gt;Node3 -->
<g id="edge2" class="edge">
<title>Node1&#45;&gt;Node3</title>
<path fill="none" stroke="#63b8ff" d="M137.6,-18.63C128.61,-17.6 119.6,-16.57 111.03,-15.6"/>
<polygon fill="#63b8ff" stroke="#63b8ff" points="137.12,-22.09 147.45,-19.75 137.91,-15.14 137.12,-22.09"/>
</g>
</g>
</svg>
