<?xml version="1.0" encoding="UTF-8" standalone="no"?>
<!DOCTYPE svg PUBLIC "-//W3C//DTD SVG 1.1//EN"
 "http://www.w3.org/Graphics/SVG/1.1/DTD/svg11.dtd">
<!-- Generated by graphviz version 7.0.3 (0)
 -->
<!-- Title: Urho3D::Node::SetRotation Pages: 1 -->
<svg width="762pt" height="488pt"
 viewBox="0.00 0.00 762.00 488.00" xmlns="http://www.w3.org/2000/svg" xmlns:xlink="http://www.w3.org/1999/xlink">
<g id="graph0" class="graph" transform="scale(1 1) rotate(0) translate(4 484)">
<title>Urho3D::Node::SetRotation</title>
<!-- Node1 -->
<g id="node1" class="node">
<title>Node1</title>
<g id="a_node1"><a xlink:title=" ">
<polygon fill="#999999" stroke="#666666" points="754,-308.5 619,-308.5 619,-289.5 754,-289.5 754,-308.5"/>
<text text-anchor="middle" x="686.5" y="-296.5" font-family="Roboto" font-size="10.00">Urho3D::Node::SetRotation</text>
</a>
</g>
</g>
<!-- Node2 -->
<g id="node2" class="node">
<title>Node2</title>
<g id="a_node2"><a xlink:href="class_urho3_d_1_1_animation_state.html#a2618e6f947c1a9be664b370cfaf27c09" target="_top" xlink:title="Apply track.">
<polygon fill="white" stroke="#666666" points="560.5,-432 438.5,-432 438.5,-402 560.5,-402 560.5,-432"/>
<text text-anchor="start" x="446.5" y="-420" font-family="Roboto" font-size="10.00">Urho3D::AnimationState</text>
<text text-anchor="middle" x="499.5" y="-409" font-family="Roboto" font-size="10.00">::ApplyTrack</text>
</a>
</g>
</g>
<!-- Node1&#45;&gt;Node2 -->
<g id="edge1" class="edge">
<title>Node1&#45;&gt;Node2</title>
<path fill="none" stroke="#63b8ff" d="M668.82,-317.11C649.73,-336.89 616.75,-368.38 583,-388 573.94,-393.26 563.78,-397.8 553.75,-401.61"/>
<polygon fill="#63b8ff" stroke="#63b8ff" points="671.19,-319.69 675.52,-310.02 666.1,-314.88 671.19,-319.69"/>
</g>
<!-- Node6 -->
<g id="node6" class="node">
<title>Node6</title>
<g id="a_node6"><a xlink:href="class_urho3_d_1_1_node.html#a0bf5b40b97dc36a8b39370aee92ccd9d" target="_top" xlink:title=" ">
<polygon fill="white" stroke="#666666" points="368,-383.5 220,-383.5 220,-364.5 368,-364.5 368,-383.5"/>
<text text-anchor="middle" x="294" y="-371.5" font-family="Roboto" font-size="10.00">Urho3D::Node::RegisterObject</text>
</a>
</g>
</g>
<!-- Node1&#45;&gt;Node6 -->
<g id="edge6" class="edge">
<title>Node1&#45;&gt;Node6</title>
<path fill="none" stroke="#63b8ff" d="M662.64,-315.29C642.67,-328.57 612.35,-346.47 583,-355 512.15,-375.6 427.52,-378.79 368.4,-377.78"/>
<polygon fill="#63b8ff" stroke="#63b8ff" points="664.55,-318.23 670.84,-309.7 660.61,-312.45 664.55,-318.23"/>
</g>
<!-- Node7 -->
<g id="node7" class="node">
<title>Node7</title>
<g id="a_node7"><a xlink:href="class_urho3_d_1_1_node.html#af02633f8b886f9939f839b86378c82f9" target="_top" xlink:title=" ">
<polygon fill="white" stroke="#666666" points="568,-308.5 431,-308.5 431,-289.5 568,-289.5 568,-308.5"/>
<text text-anchor="middle" x="499.5" y="-296.5" font-family="Roboto" font-size="10.00">Urho3D::Node::SetDirection</text>
</a>
</g>
</g>
<!-- Node1&#45;&gt;Node7 -->
<g id="edge7" class="edge">
<title>Node1&#45;&gt;Node7</title>
<path fill="none" stroke="#63b8ff" d="M607.44,-299C594.48,-299 581.12,-299 568.44,-299"/>
<polygon fill="#63b8ff" stroke="#63b8ff" points="607.2,-302.5 617.2,-299 607.2,-295.5 607.2,-302.5"/>
</g>
<!-- Node10 -->
<g id="node10" class="node">
<title>Node10</title>
<g id="a_node10"><a xlink:href="class_urho3_d_1_1_node.html#ade5376cdb305ed25f152ef344660b284" target="_top" xlink:title="Set network rotation attribute.">
<polygon fill="white" stroke="#666666" points="583,-345.5 416,-345.5 416,-326.5 583,-326.5 583,-345.5"/>
<text text-anchor="middle" x="499.5" y="-333.5" font-family="Roboto" font-size="10.00">Urho3D::Node::SetNetRotationAttr</text>
</a>
</g>
</g>
<!-- Node1&#45;&gt;Node10 -->
<g id="edge10" class="edge">
<title>Node1&#45;&gt;Node10</title>
<path fill="none" stroke="#63b8ff" d="M624.73,-311.15C600.58,-315.98 573.15,-321.47 550.21,-326.06"/>
<polygon fill="#63b8ff" stroke="#63b8ff" points="625.32,-314.61 634.44,-309.21 623.95,-307.74 625.32,-314.61"/>
</g>
<!-- Node11 -->
<g id="node11" class="node">
<title>Node11</title>
<g id="a_node11"><a xlink:href="class_urho3_d_1_1_node.html#a0ca75040c310b9b4b7dd941a327ef4cf" target="_top" xlink:title=" ">
<polygon fill="white" stroke="#666666" points="581.5,-271.5 417.5,-271.5 417.5,-252.5 581.5,-252.5 581.5,-271.5"/>
<text text-anchor="middle" x="499.5" y="-259.5" font-family="Roboto" font-size="10.00">Urho3D::Node::SetWorldDirection</text>
</a>
</g>
</g>
<!-- Node1&#45;&gt;Node11 -->
<g id="edge12" class="edge">
<title>Node1&#45;&gt;Node11</title>
<path fill="none" stroke="#63b8ff" d="M624.73,-286.85C600.58,-282.02 573.15,-276.53 550.21,-271.94"/>
<polygon fill="#63b8ff" stroke="#63b8ff" points="623.95,-290.26 634.44,-288.79 625.32,-283.39 623.95,-290.26"/>
</g>
<!-- Node12 -->
<g id="node12" class="node">
<title>Node12</title>
<g id="a_node12"><a xlink:href="class_urho3_d_1_1_node.html#a0a51e567fd136b48e30056517c3c6100" target="_top" xlink:title=" ">
<polygon fill="white" stroke="#666666" points="580.5,-217.5 418.5,-217.5 418.5,-198.5 580.5,-198.5 580.5,-217.5"/>
<text text-anchor="middle" x="499.5" y="-205.5" font-family="Roboto" font-size="10.00">Urho3D::Node::SetWorldRotation</text>
</a>
</g>
</g>
<!-- Node1&#45;&gt;Node12 -->
<g id="edge13" class="edge">
<title>Node1&#45;&gt;Node12</title>
<path fill="none" stroke="#63b8ff" d="M658.06,-283.5C637.6,-272.12 608.84,-256.54 583,-244 563.6,-234.58 541.14,-224.86 524.56,-217.89"/>
<polygon fill="#63b8ff" stroke="#63b8ff" points="656.19,-286.46 666.63,-288.28 659.61,-280.35 656.19,-286.46"/>
</g>
<!-- Node23 -->
<g id="node21" class="node">
<title>Node23</title>
<g id="a_node21"><a xlink:href="class_urho3_d_1_1_smoothed_transform.html#a35445b17dfcabb0deba9f1f697653296" target="_top" xlink:title="Update smoothing.">
<polygon fill="white" stroke="#666666" points="573.5,-78 425.5,-78 425.5,-48 573.5,-48 573.5,-78"/>
<text text-anchor="start" x="433.5" y="-66" font-family="Roboto" font-size="10.00">Urho3D::SmoothedTransform</text>
<text text-anchor="middle" x="499.5" y="-55" font-family="Roboto" font-size="10.00">::Update</text>
</a>
</g>
</g>
<!-- Node1&#45;&gt;Node23 -->
<g id="edge22" class="edge">
<title>Node1&#45;&gt;Node23</title>
<path fill="none" stroke="#63b8ff" d="M670.69,-280.1C635.08,-234.68 545.22,-120.04 512.58,-78.41"/>
<polygon fill="#63b8ff" stroke="#63b8ff" points="667.93,-282.26 676.85,-287.97 673.44,-277.94 667.93,-282.26"/>
</g>
<!-- Node3 -->
<g id="node3" class="node">
<title>Node3</title>
<g id="a_node3"><a xlink:href="class_urho3_d_1_1_animation_state.html#a09d3f8acf5b318a2a5ad9f1816a1073c" target="_top" xlink:title="Apply animation to a skeleton. Transform changes are applied silently, so the model needs to dirty it...">
<polygon fill="white" stroke="#666666" points="355,-480 233,-480 233,-450 355,-450 355,-480"/>
<text text-anchor="start" x="241" y="-468" font-family="Roboto" font-size="10.00">Urho3D::AnimationState</text>
<text text-anchor="middle" x="294" y="-457" font-family="Roboto" font-size="10.00">::ApplyToModel</text>
</a>
</g>
</g>
<!-- Node2&#45;&gt;Node3 -->
<g id="edge2" class="edge">
<title>Node2&#45;&gt;Node3</title>
<path fill="none" stroke="#63b8ff" d="M427.32,-433.79C403.86,-439.32 378.01,-445.42 355.43,-450.75"/>
<polygon fill="#63b8ff" stroke="#63b8ff" points="427.87,-437.26 436.8,-431.55 426.26,-430.44 427.87,-437.26"/>
</g>
<!-- Node5 -->
<g id="node5" class="node">
<title>Node5</title>
<g id="a_node5"><a xlink:href="class_urho3_d_1_1_animation_state.html#a4ebbb3962edd5a28f17fc54151a341e4" target="_top" xlink:title="Apply animation to a scene node hierarchy.">
<polygon fill="white" stroke="#666666" points="355,-432 233,-432 233,-402 355,-402 355,-432"/>
<text text-anchor="start" x="241" y="-420" font-family="Roboto" font-size="10.00">Urho3D::AnimationState</text>
<text text-anchor="middle" x="294" y="-409" font-family="Roboto" font-size="10.00">::ApplyToNodes</text>
</a>
</g>
</g>
<!-- Node2&#45;&gt;Node5 -->
<g id="edge4" class="edge">
<title>Node2&#45;&gt;Node5</title>
<path fill="none" stroke="#63b8ff" d="M427.01,-417C403.63,-417 377.91,-417 355.43,-417"/>
<polygon fill="#63b8ff" stroke="#63b8ff" points="426.76,-420.5 436.76,-417 426.76,-413.5 426.76,-420.5"/>
</g>
<!-- Node4 -->
<g id="node4" class="node">
<title>Node4</title>
<g id="a_node4"><a xlink:href="class_urho3_d_1_1_animation_state.html#ae662a588f71a9adfb4aea3162bb2a742" target="_top" xlink:title="Apply the animation at the current time position.">
<polygon fill="white" stroke="#666666" points="147,-456 25,-456 25,-426 147,-426 147,-456"/>
<text text-anchor="start" x="33" y="-444" font-family="Roboto" font-size="10.00">Urho3D::AnimationState</text>
<text text-anchor="middle" x="86" y="-433" font-family="Roboto" font-size="10.00">::Apply</text>
</a>
</g>
</g>
<!-- Node3&#45;&gt;Node4 -->
<g id="edge3" class="edge">
<title>Node3&#45;&gt;Node4</title>
<path fill="none" stroke="#63b8ff" d="M221.34,-456.65C197.23,-453.84 170.58,-450.74 147.41,-448.04"/>
<polygon fill="#63b8ff" stroke="#63b8ff" points="220.74,-460.11 231.08,-457.79 221.55,-453.15 220.74,-460.11"/>
</g>
<!-- Node5&#45;&gt;Node4 -->
<g id="edge5" class="edge">
<title>Node5&#45;&gt;Node4</title>
<path fill="none" stroke="#63b8ff" d="M221.34,-425.35C197.23,-428.16 170.58,-431.26 147.41,-433.96"/>
<polygon fill="#63b8ff" stroke="#63b8ff" points="221.55,-428.85 231.08,-424.21 220.74,-421.89 221.55,-428.85"/>
</g>
<!-- Node8 -->
<g id="node8" class="node">
<title>Node8</title>
<g id="a_node8"><a xlink:href="class_urho3_d_1_1_view.html#a4d3766cb580e7a61b7ce50bc4e9aa926" target="_top" xlink:title="Set up initial shadow camera view(s).">
<polygon fill="white" stroke="#666666" points="364.5,-346 223.5,-346 223.5,-316 364.5,-316 364.5,-346"/>
<text text-anchor="start" x="231.5" y="-334" font-family="Roboto" font-size="10.00">Urho3D::View::SetupShadow</text>
<text text-anchor="middle" x="294" y="-323" font-family="Roboto" font-size="10.00">Cameras</text>
</a>
</g>
</g>
<!-- Node7&#45;&gt;Node8 -->
<g id="edge8" class="edge">
<title>Node7&#45;&gt;Node8</title>
<path fill="none" stroke="#63b8ff" d="M423.78,-310.75C404.49,-313.78 383.81,-317.03 364.79,-320.03"/>
<polygon fill="#63b8ff" stroke="#63b8ff" points="424.12,-314.24 433.45,-309.23 423.03,-307.32 424.12,-314.24"/>
</g>
<!-- Node9 -->
<g id="node9" class="node">
<title>Node9</title>
<g id="a_node9"><a xlink:href="class_urho3_d_1_1_view.html#a8386e461553bac5a6b4512b8a9712e79" target="_top" xlink:title="Query for lit geometries and shadow casters for a light.">
<polygon fill="white" stroke="#666666" points="154.5,-340.5 17.5,-340.5 17.5,-321.5 154.5,-321.5 154.5,-340.5"/>
<text text-anchor="middle" x="86" y="-328.5" font-family="Roboto" font-size="10.00">Urho3D::View::ProcessLight</text>
</a>
</g>
</g>
<!-- Node8&#45;&gt;Node9 -->
<g id="edge9" class="edge">
<title>Node8&#45;&gt;Node9</title>
<path fill="none" stroke="#63b8ff" d="M211.97,-331C193.09,-331 173.17,-331 154.92,-331"/>
<polygon fill="#63b8ff" stroke="#63b8ff" points="211.74,-334.5 221.74,-331 211.74,-327.5 211.74,-334.5"/>
</g>
<!-- Node10&#45;&gt;Node6 -->
<g id="edge11" class="edge">
<title>Node10&#45;&gt;Node6</title>
<path fill="none" stroke="#63b8ff" d="M433.92,-348.06C406.39,-353.2 374.65,-359.13 348.46,-364.02"/>
<polygon fill="#63b8ff" stroke="#63b8ff" points="434.36,-351.54 443.54,-346.26 433.07,-344.66 434.36,-351.54"/>
</g>
<!-- Node13 -->
<g id="node13" class="node">
<title>Node13</title>
<g id="a_node13"><a xlink:href="class_urho3_d_1_1_rigid_body.html#a1683e21222126986b0d7c8c7c58e4b8f" target="_top" xlink:title="Apply new world transform after a simulation step. Called internally.">
<polygon fill="white" stroke="#666666" points="351,-298 237,-298 237,-268 351,-268 351,-298"/>
<text text-anchor="start" x="245" y="-286" font-family="Roboto" font-size="10.00">Urho3D::RigidBody::</text>
<text text-anchor="middle" x="294" y="-275" font-family="Roboto" font-size="10.00">ApplyWorldTransform</text>
</a>
</g>
</g>
<!-- Node12&#45;&gt;Node13 -->
<g id="edge14" class="edge">
<title>Node12&#45;&gt;Node13</title>
<path fill="none" stroke="#63b8ff" d="M465.59,-222.43C433.58,-236.42 388.53,-255.97 380,-259 370.75,-262.28 360.81,-265.42 351.11,-268.29"/>
<polygon fill="#63b8ff" stroke="#63b8ff" points="466.74,-225.75 474.49,-218.53 463.93,-219.33 466.74,-225.75"/>
</g>
<!-- Node18 -->
<g id="node16" class="node">
<title>Node18</title>
<g id="a_node16"><a xlink:href="class_urho3_d_1_1_rigid_body2_d.html#a536af8f567b3c277e89a704b473cb34c" target="_top" xlink:title="Apply specified world position &amp; rotation. Called by PhysicsWorld2D.">
<polygon fill="white" stroke="#666666" points="353.5,-250 234.5,-250 234.5,-220 353.5,-220 353.5,-250"/>
<text text-anchor="start" x="242.5" y="-238" font-family="Roboto" font-size="10.00">Urho3D::RigidBody2D</text>
<text text-anchor="middle" x="294" y="-227" font-family="Roboto" font-size="10.00">::ApplyWorldTransform</text>
</a>
</g>
</g>
<!-- Node12&#45;&gt;Node18 -->
<g id="edge17" class="edge">
<title>Node12&#45;&gt;Node18</title>
<path fill="none" stroke="#63b8ff" d="M411.91,-219.49C392.38,-222.08 372.09,-224.77 354,-227.17"/>
<polygon fill="#63b8ff" stroke="#63b8ff" points="412.35,-222.96 421.8,-218.18 411.43,-216.02 412.35,-222.96"/>
</g>
<!-- Node19 -->
<g id="node17" class="node">
<title>Node19</title>
<g id="a_node17"><a xlink:href="class_urho3_d_1_1_node.html#afb32a557cfa6483f55c896046efb9b4a" target="_top" xlink:title="Look at a target position in the chosen transform space. Note that the up vector is always specified ...">
<polygon fill="white" stroke="#666666" points="352,-201.5 236,-201.5 236,-182.5 352,-182.5 352,-201.5"/>
<text text-anchor="middle" x="294" y="-189.5" font-family="Roboto" font-size="10.00">Urho3D::Node::LookAt</text>
</a>
</g>
</g>
<!-- Node12&#45;&gt;Node19 -->
<g id="edge18" class="edge">
<title>Node12&#45;&gt;Node19</title>
<path fill="none" stroke="#63b8ff" d="M406.63,-200.78C388.12,-199.32 369.18,-197.83 352.27,-196.5"/>
<polygon fill="#63b8ff" stroke="#63b8ff" points="406.32,-204.26 416.56,-201.56 406.87,-197.28 406.32,-204.26"/>
</g>
<!-- Node20 -->
<g id="node18" class="node">
<title>Node20</title>
<g id="a_node18"><a xlink:href="class_urho3_d_1_1_raycast_vehicle.html#af8fbffa173151c09fa798fac6eaf1b8d" target="_top" xlink:title="Perform variable step post&#45;update.">
<polygon fill="white" stroke="#666666" points="354.5,-164 233.5,-164 233.5,-134 354.5,-134 354.5,-164"/>
<text text-anchor="start" x="241.5" y="-152" font-family="Roboto" font-size="10.00">Urho3D::RaycastVehicle</text>
<text text-anchor="middle" x="294" y="-141" font-family="Roboto" font-size="10.00">::PostUpdate</text>
</a>
</g>
</g>
<!-- Node12&#45;&gt;Node20 -->
<g id="edge19" class="edge">
<title>Node12&#45;&gt;Node20</title>
<path fill="none" stroke="#63b8ff" d="M453.5,-194.95C422.45,-185.95 381.04,-173.94 348.33,-164.46"/>
<polygon fill="#63b8ff" stroke="#63b8ff" points="452.41,-198.28 462.98,-197.7 454.36,-191.56 452.41,-198.28"/>
</g>
<!-- Node21 -->
<g id="node19" class="node">
<title>Node21</title>
<g id="a_node19"><a xlink:href="class_urho3_d_1_1_node.html#a8aa097522ad1d8d502ec74610a05ada4" target="_top" xlink:title="Set both position and rotation in world space as an atomic operation.">
<polygon fill="white" stroke="#666666" points="380,-115.5 208,-115.5 208,-96.5 380,-96.5 380,-115.5"/>
<text text-anchor="middle" x="294" y="-103.5" font-family="Roboto" font-size="10.00">Urho3D::Node::SetWorldTransform</text>
</a>
</g>
</g>
<!-- Node12&#45;&gt;Node21 -->
<g id="edge20" class="edge">
<title>Node12&#45;&gt;Node21</title>
<path fill="none" stroke="#63b8ff" d="M479.11,-190.76C456.76,-171.82 418.21,-141.85 380,-125 371.7,-121.34 362.62,-118.35 353.58,-115.92"/>
<polygon fill="#63b8ff" stroke="#63b8ff" points="476.64,-193.26 486.49,-197.15 481.21,-187.96 476.64,-193.26"/>
</g>
<!-- Node14 -->
<g id="node14" class="node">
<title>Node14</title>
<g id="a_node14"><a xlink:href="class_urho3_d_1_1_rigid_body.html#ab4840875f0cc02f2ea6f27d5aaf8401c" target="_top" xlink:title=" ">
<polygon fill="white" stroke="#666666" points="138,-300 34,-300 34,-270 138,-270 138,-300"/>
<text text-anchor="start" x="42" y="-288" font-family="Roboto" font-size="10.00">Urho3D::RigidBody::</text>
<text text-anchor="middle" x="86" y="-277" font-family="Roboto" font-size="10.00">setWorldTransform</text>
</a>
</g>
</g>
<!-- Node13&#45;&gt;Node14 -->
<g id="edge15" class="edge">
<title>Node13&#45;&gt;Node14</title>
<path fill="none" stroke="#63b8ff" d="M225.26,-283.66C196.94,-283.93 164.58,-284.25 138.29,-284.5"/>
<polygon fill="#63b8ff" stroke="#63b8ff" points="225.23,-287.16 235.2,-283.56 225.16,-280.16 225.23,-287.16"/>
</g>
<!-- Node15 -->
<g id="node15" class="node">
<title>Node15</title>
<g id="a_node15"><a xlink:href="class_urho3_d_1_1_physics_world.html#a282dce733280a5175597b3ee7d4c9e14" target="_top" xlink:title="Step the simulation forward.">
<polygon fill="#fff0f0" stroke="red" points="144,-252 28,-252 28,-222 144,-222 144,-252"/>
<text text-anchor="start" x="36" y="-240" font-family="Roboto" font-size="10.00">Urho3D::PhysicsWorld</text>
<text text-anchor="middle" x="86" y="-229" font-family="Roboto" font-size="10.00">::Update</text>
</a>
</g>
</g>
<!-- Node13&#45;&gt;Node15 -->
<g id="edge16" class="edge">
<title>Node13&#45;&gt;Node15</title>
<path fill="none" stroke="#63b8ff" d="M225.68,-267.97C199.38,-262.09 169.54,-255.43 144.3,-249.79"/>
<polygon fill="#63b8ff" stroke="#63b8ff" points="224.71,-271.34 235.23,-270.1 226.24,-264.51 224.71,-271.34"/>
</g>
<!-- Node22 -->
<g id="node20" class="node">
<title>Node22</title>
<g id="a_node20"><a xlink:href="class_urho3_d_1_1_node.html#ae4eb180d8cfd3b80ba96ca14fd9f7797" target="_top" xlink:title="Set position, rotation, and scale in world space as an atomic operation from a transformation matrix.">
<polygon fill="white" stroke="#666666" points="172,-115.5 0,-115.5 0,-96.5 172,-96.5 172,-115.5"/>
<text text-anchor="middle" x="86" y="-103.5" font-family="Roboto" font-size="10.00">Urho3D::Node::SetWorldTransform</text>
</a>
</g>
</g>
<!-- Node21&#45;&gt;Node22 -->
<g id="edge21" class="edge">
<title>Node21&#45;&gt;Node22</title>
<path fill="none" stroke="#63b8ff" d="M196.37,-106C188.31,-106 180.19,-106 172.21,-106"/>
<polygon fill="#63b8ff" stroke="#63b8ff" points="196.21,-109.5 206.21,-106 196.21,-102.5 196.21,-109.5"/>
</g>
<!-- Node24 -->
<g id="node22" class="node">
<title>Node24</title>
<g id="a_node22"><a xlink:href="class_urho3_d_1_1_smoothed_transform.html#aab4734d09c12855615e3cccfa3353abb" target="_top" xlink:title="Handle smoothing update event.">
<polygon fill="white" stroke="#666666" points="368,-78 220,-78 220,-48 368,-48 368,-78"/>
<text text-anchor="start" x="228" y="-66" font-family="Roboto" font-size="10.00">Urho3D::SmoothedTransform</text>
<text text-anchor="middle" x="294" y="-55" font-family="Roboto" font-size="10.00">::HandleUpdateSmoothing</text>
</a>
</g>
</g>
<!-- Node23&#45;&gt;Node24 -->
<g id="edge23" class="edge">
<title>Node23&#45;&gt;Node24</title>
<path fill="none" stroke="#63b8ff" d="M413.65,-63C398.6,-63 383.05,-63 368.36,-63"/>
<polygon fill="#63b8ff" stroke="#63b8ff" points="413.52,-66.5 423.52,-63 413.52,-59.5 413.52,-66.5"/>
</g>
<!-- Node29 -->
<g id="node25" class="node">
<title>Node29</title>
<g id="a_node25"><a xlink:href="class_urho3_d_1_1_connection.html#a0a9e39346bc1f85b9186d3258a178ac1" target="_top" xlink:title="Process a scene update message from the server. Called by Network.">
<polygon fill="#fff0f0" stroke="red" points="352,-30 236,-30 236,0 352,0 352,-30"/>
<text text-anchor="start" x="244" y="-18" font-family="Roboto" font-size="10.00">Urho3D::Connection</text>
<text text-anchor="middle" x="294" y="-7" font-family="Roboto" font-size="10.00">::ProcessSceneUpdate</text>
</a>
</g>
</g>
<!-- Node23&#45;&gt;Node29 -->
<g id="edge26" class="edge">
<title>Node23&#45;&gt;Node29</title>
<path fill="none" stroke="#63b8ff" d="M421.87,-44.92C398.87,-39.5 374.04,-33.64 352.5,-28.56"/>
<polygon fill="#63b8ff" stroke="#63b8ff" points="420.98,-48.31 431.52,-47.2 422.59,-41.5 420.98,-48.31"/>
</g>
<!-- Node25 -->
<g id="node23" class="node">
<title>Node25</title>
<g id="a_node23"><a xlink:href="class_urho3_d_1_1_smoothed_transform.html#a8b09dd0dbfeab2267cf3a24d557e2c1d" target="_top" xlink:title=" ">
<polygon fill="#fff0f0" stroke="red" points="160,-78 12,-78 12,-48 160,-48 160,-78"/>
<text text-anchor="start" x="20" y="-66" font-family="Roboto" font-size="10.00">Urho3D::SmoothedTransform</text>
<text text-anchor="middle" x="86" y="-55" font-family="Roboto" font-size="10.00">::SetTargetPosition</text>
</a>
</g>
</g>
<!-- Node24&#45;&gt;Node25 -->
<g id="edge24" class="edge">
<title>Node24&#45;&gt;Node25</title>
<path fill="none" stroke="#63b8ff" d="M208.11,-63C192.3,-63 175.9,-63 160.47,-63"/>
<polygon fill="#63b8ff" stroke="#63b8ff" points="207.99,-66.5 217.99,-63 207.99,-59.5 207.99,-66.5"/>
</g>
<!-- Node27 -->
<g id="node24" class="node">
<title>Node27</title>
<g id="a_node24"><a xlink:href="class_urho3_d_1_1_smoothed_transform.html#a69036b0d190ce6079b9233bef9b3a341" target="_top" xlink:title=" ">
<polygon fill="#fff0f0" stroke="red" points="160,-30 12,-30 12,0 160,0 160,-30"/>
<text text-anchor="start" x="20" y="-18" font-family="Roboto" font-size="10.00">Urho3D::SmoothedTransform</text>
<text text-anchor="middle" x="86" y="-7" font-family="Roboto" font-size="10.00">::SetTargetRotation</text>
</a>
</g>
</g>
<!-- Node24&#45;&gt;Node27 -->
<g id="edge25" class="edge">
<title>Node24&#45;&gt;Node27</title>
<path fill="none" stroke="#63b8ff" d="M215.75,-45C195.17,-40.2 173.12,-35.07 153.19,-30.42"/>
<polygon fill="#63b8ff" stroke="#63b8ff" points="214.68,-48.34 225.21,-47.2 216.27,-41.53 214.68,-48.34"/>
</g>
</g>
</svg>
