<?xml version="1.0" encoding="UTF-8" standalone="no"?>
<!DOCTYPE svg PUBLIC "-//W3C//DTD SVG 1.1//EN"
 "http://www.w3.org/Graphics/SVG/1.1/DTD/svg11.dtd">
<!-- Generated by graphviz version 7.0.3 (0)
 -->
<!-- Title: Urho3D::AnimatedSprite2D::UpdateSourceBatches Pages: 1 -->
<svg width="1342pt" height="389pt"
 viewBox="0.00 0.00 1342.00 388.74" xmlns="http://www.w3.org/2000/svg" xmlns:xlink="http://www.w3.org/1999/xlink">
<g id="graph0" class="graph" transform="scale(1 1) rotate(0) translate(4 384.74)">
<title>Urho3D::AnimatedSprite2D::UpdateSourceBatches</title>
<!-- Node1 -->
<g id="node1" class="node">
<title>Node1</title>
<g id="a_node1"><a xlink:title="Handle update vertices.">
<polygon fill="#999999" stroke="#666666" points="135,-186.18 0,-186.18 0,-156.18 135,-156.18 135,-186.18"/>
<text text-anchor="start" x="8" y="-174.18" font-family="Roboto" font-size="10.00">Urho3D::AnimatedSprite2D</text>
<text text-anchor="middle" x="67.5" y="-163.18" font-family="Roboto" font-size="10.00">::UpdateSourceBatches</text>
</a>
</g>
</g>
<!-- Node2 -->
<g id="node2" class="node">
<title>Node2</title>
<g id="a_node2"><a xlink:href="class_urho3_d_1_1_animated_sprite2_d.html#a2bb6a3cde54039b56d0c13cb199f1622" target="_top" xlink:title="Update vertices for spriter animation.">
<polygon fill="white" stroke="#666666" points="319,-186.18 171,-186.18 171,-156.18 319,-156.18 319,-186.18"/>
<text text-anchor="start" x="179" y="-174.18" font-family="Roboto" font-size="10.00">Urho3D::AnimatedSprite2D</text>
<text text-anchor="middle" x="245" y="-163.18" font-family="Roboto" font-size="10.00">::UpdateSourceBatchesSpriter</text>
</a>
</g>
</g>
<!-- Node1&#45;&gt;Node2 -->
<g id="edge1" class="edge">
<title>Node1&#45;&gt;Node2</title>
<path fill="none" stroke="#63b8ff" d="M135.35,-171.18C143.18,-171.18 151.26,-171.18 159.29,-171.18"/>
<polygon fill="#63b8ff" stroke="#63b8ff" points="159.09,-174.68 169.09,-171.18 159.09,-167.68 159.09,-174.68"/>
</g>
<!-- Node3 -->
<g id="node3" class="node">
<title>Node3</title>
<g id="a_node3"><a xlink:href="class_urho3_d_1_1_vector.html#a816870b165f6d7662f3d806ad73c5c59" target="_top" xlink:title="Clear the vector.">
<polygon fill="white" stroke="#666666" points="497.5,-100.68 385.5,-100.68 385.5,-81.68 497.5,-81.68 497.5,-100.68"/>
<text text-anchor="middle" x="441.5" y="-88.68" font-family="Roboto" font-size="10.00">Urho3D::Vector::Clear</text>
</a>
</g>
</g>
<!-- Node2&#45;&gt;Node3 -->
<g id="edge2" class="edge">
<title>Node2&#45;&gt;Node3</title>
<path fill="none" stroke="#63b8ff" d="M268.85,-155.78C290.26,-141.99 323.6,-122.16 355,-110.18 361.1,-107.85 367.55,-105.77 374.08,-103.92"/>
<polygon fill="#63b8ff" stroke="#63b8ff" points="374.83,-107.34 383.61,-101.4 373.04,-100.57 374.83,-107.34"/>
</g>
<!-- Node14 -->
<g id="node14" class="node">
<title>Node14</title>
<g id="a_node14"><a xlink:href="class_urho3_d_1_1_color.html#acb5866e1447fd157ebd5a8292e6a5b6c" target="_top" xlink:title="Set RGBA values from packed 32&#45;bit integer, with R component in the lowest 8 bits (format 0xAABBGGRR)...">
<polygon fill="white" stroke="#666666" points="504,-337.68 379,-337.68 379,-318.68 504,-318.68 504,-337.68"/>
<text text-anchor="middle" x="441.5" y="-325.68" font-family="Roboto" font-size="10.00">Urho3D::Color::FromUInt</text>
</a>
</g>
</g>
<!-- Node2&#45;&gt;Node14 -->
<g id="edge18" class="edge">
<title>Node2&#45;&gt;Node14</title>
<path fill="none" stroke="#63b8ff" d="M253.49,-186.45C268.48,-215.33 305.09,-277.85 355,-309.18 359.06,-311.72 363.41,-313.93 367.93,-315.84"/>
<polygon fill="#63b8ff" stroke="#63b8ff" points="366.68,-319.11 377.27,-319.27 369.09,-312.54 366.68,-319.11"/>
</g>
<!-- Node15 -->
<g id="node15" class="node">
<title>Node15</title>
<g id="a_node15"><a xlink:href="class_urho3_d_1_1_sprite2_d.html#a3cef8c62b9a86aae31dd60318ce3a880" target="_top" xlink:title="Return draw rectangle.">
<polygon fill="white" stroke="#666666" points="508.5,-282.18 374.5,-282.18 374.5,-252.18 508.5,-252.18 508.5,-282.18"/>
<text text-anchor="start" x="382.5" y="-270.18" font-family="Roboto" font-size="10.00">Urho3D::Sprite2D::GetDraw</text>
<text text-anchor="middle" x="441.5" y="-259.18" font-family="Roboto" font-size="10.00">Rectangle</text>
</a>
</g>
</g>
<!-- Node2&#45;&gt;Node15 -->
<g id="edge19" class="edge">
<title>Node2&#45;&gt;Node15</title>
<path fill="none" stroke="#63b8ff" d="M265.01,-186.4C285.95,-202.52 321.17,-227.72 355,-243.18 358.72,-244.88 362.6,-246.49 366.55,-248"/>
<polygon fill="#63b8ff" stroke="#63b8ff" points="365.11,-251.21 375.71,-251.28 367.47,-244.62 365.11,-251.21"/>
</g>
<!-- Node16 -->
<g id="node16" class="node">
<title>Node16</title>
<g id="a_node16"><a xlink:href="class_urho3_d_1_1_component.html#ada751ff77fe3e5bc417db31cfebc0df8" target="_top" xlink:title=" ">
<polygon fill="white" stroke="#666666" points="497,-234.18 386,-234.18 386,-204.18 497,-204.18 497,-234.18"/>
<text text-anchor="start" x="394" y="-222.18" font-family="Roboto" font-size="10.00">Urho3D::Component::</text>
<text text-anchor="middle" x="441.5" y="-211.18" font-family="Roboto" font-size="10.00">GetNode</text>
</a>
</g>
</g>
<!-- Node2&#45;&gt;Node16 -->
<g id="edge21" class="edge">
<title>Node2&#45;&gt;Node16</title>
<path fill="none" stroke="#63b8ff" d="M308.61,-186.63C329.7,-191.83 353.29,-197.66 374.62,-202.92"/>
<polygon fill="#63b8ff" stroke="#63b8ff" points="373.53,-206.26 384.08,-205.25 375.21,-199.46 373.53,-206.26"/>
</g>
<!-- Node17 -->
<g id="node17" class="node">
<title>Node17</title>
<g id="a_node17"><a xlink:href="class_urho3_d_1_1_sprite2_d.html#a97bae41895b4e6e4a2ca5ed52b50e5ad" target="_top" xlink:title="Return texture rectangle.">
<polygon fill="white" stroke="#666666" points="513.5,-186.18 369.5,-186.18 369.5,-156.18 513.5,-156.18 513.5,-186.18"/>
<text text-anchor="start" x="377.5" y="-174.18" font-family="Roboto" font-size="10.00">Urho3D::Sprite2D::GetTexture</text>
<text text-anchor="middle" x="441.5" y="-163.18" font-family="Roboto" font-size="10.00">Rectangle</text>
</a>
</g>
</g>
<!-- Node2&#45;&gt;Node17 -->
<g id="edge22" class="edge">
<title>Node2&#45;&gt;Node17</title>
<path fill="none" stroke="#63b8ff" d="M319.25,-171.18C331.91,-171.18 345.15,-171.18 358.04,-171.18"/>
<polygon fill="#63b8ff" stroke="#63b8ff" points="357.73,-174.68 367.73,-171.18 357.73,-167.68 357.73,-174.68"/>
</g>
<!-- Node18 -->
<g id="node18" class="node">
<title>Node18</title>
<g id="a_node18"><a xlink:href="class_urho3_d_1_1_node.html#a2eb3e2cda5c98b2a92d95fcca8e43fbb" target="_top" xlink:title=" ">
<polygon fill="white" stroke="#666666" points="528,-137.68 355,-137.68 355,-118.68 528,-118.68 528,-137.68"/>
<text text-anchor="middle" x="441.5" y="-125.68" font-family="Roboto" font-size="10.00">Urho3D::Node::GetWorldTransform</text>
</a>
</g>
</g>
<!-- Node2&#45;&gt;Node18 -->
<g id="edge23" class="edge">
<title>Node2&#45;&gt;Node18</title>
<path fill="none" stroke="#63b8ff" d="M315.94,-155.71C338.38,-150.76 362.92,-145.33 384.24,-140.62"/>
<polygon fill="#63b8ff" stroke="#63b8ff" points="384.91,-144.05 393.92,-138.48 383.4,-137.22 384.91,-144.05"/>
</g>
<!-- Node19 -->
<g id="node19" class="node">
<title>Node19</title>
<g id="a_node19"><a xlink:href="class_urho3_d_1_1_vector.html#a083b39861b996df82f811a9a4ebff109" target="_top" xlink:title="Add an element at the end.">
<polygon fill="white" stroke="#666666" points="678,-375.68 568,-375.68 568,-356.68 678,-356.68 678,-375.68"/>
<text text-anchor="middle" x="623" y="-363.68" font-family="Roboto" font-size="10.00">Urho3D::Vector::Push</text>
</a>
</g>
</g>
<!-- Node2&#45;&gt;Node19 -->
<g id="edge24" class="edge">
<title>Node2&#45;&gt;Node19</title>
<path fill="none" stroke="#63b8ff" d="M250.29,-186.62C261.08,-222.19 293.02,-309.72 355,-347.18 415.78,-383.91 499.13,-383.56 556.45,-377.31"/>
<polygon fill="#63b8ff" stroke="#63b8ff" points="556.54,-380.83 566.05,-376.17 555.71,-373.87 556.54,-380.83"/>
</g>
<!-- Node22 -->
<g id="node22" class="node">
<title>Node22</title>
<g id="a_node22"><a xlink:href="class_urho3_d_1_1_p_o_d_vector.html#ab1ba347a0118ed7d9ef79f3026153c88" target="_top" xlink:title="Return number of elements.">
<polygon fill="white" stroke="#666666" points="505,-63.68 378,-63.68 378,-44.68 505,-44.68 505,-63.68"/>
<text text-anchor="middle" x="441.5" y="-51.68" font-family="Roboto" font-size="10.00">Urho3D::PODVector::Size</text>
</a>
</g>
</g>
<!-- Node2&#45;&gt;Node22 -->
<g id="edge34" class="edge">
<title>Node2&#45;&gt;Node22</title>
<path fill="none" stroke="#63b8ff" d="M258.35,-155.94C276.93,-134.08 314.28,-94.15 355,-73.18 358.92,-71.16 363.05,-69.36 367.28,-67.74"/>
<polygon fill="#63b8ff" stroke="#63b8ff" points="368.21,-71.12 376.56,-64.6 365.97,-64.49 368.21,-71.12"/>
</g>
<!-- Node23 -->
<g id="node23" class="node">
<title>Node23</title>
<g id="a_node23"><a xlink:href="class_urho3_d_1_1_color.html#a06623b98b5524439f8a243d103b214dd" target="_top" xlink:title="Return color packed to a 32&#45;bit integer, with R component in the lowest 8 bits. Components are clampe...">
<polygon fill="white" stroke="#666666" points="498,-26.68 385,-26.68 385,-7.68 498,-7.68 498,-26.68"/>
<text text-anchor="middle" x="441.5" y="-14.68" font-family="Roboto" font-size="10.00">Urho3D::Color::ToUInt</text>
</a>
</g>
</g>
<!-- Node2&#45;&gt;Node23 -->
<g id="edge35" class="edge">
<title>Node2&#45;&gt;Node23</title>
<path fill="none" stroke="#63b8ff" d="M253.82,-155.8C269.11,-127.36 305.85,-66.66 355,-36.18 360.85,-32.55 367.31,-29.61 373.97,-27.23"/>
<polygon fill="#63b8ff" stroke="#63b8ff" points="374.61,-30.7 383.11,-24.38 372.53,-24.01 374.61,-30.7"/>
</g>
<!-- Node4 -->
<g id="node4" class="node">
<title>Node4</title>
<g id="a_node4"><a xlink:href="class_urho3_d_1_1_vector.html#a5d21ed173348c7bca276c417ed7d38e2" target="_top" xlink:title="Resize the vector.">
<polygon fill="white" stroke="#666666" points="682,-100.68 564,-100.68 564,-81.68 682,-81.68 682,-100.68"/>
<text text-anchor="middle" x="623" y="-88.68" font-family="Roboto" font-size="10.00">Urho3D::Vector::Resize</text>
</a>
</g>
</g>
<!-- Node3&#45;&gt;Node4 -->
<g id="edge3" class="edge">
<title>Node3&#45;&gt;Node4</title>
<path fill="none" stroke="#63b8ff" d="M497.82,-91.18C515.06,-91.18 534.29,-91.18 552.37,-91.18"/>
<polygon fill="#63b8ff" stroke="#63b8ff" points="552.24,-94.68 562.24,-91.18 552.24,-87.68 552.24,-94.68"/>
</g>
<!-- Node5 -->
<g id="node5" class="node">
<title>Node5</title>
<g id="a_node5"><a xlink:href="class_urho3_d_1_1_vector.html#ae9748e916e5595ad4ea377f2a0d1a1b7" target="_top" xlink:title="Resize the vector and create/remove new elements as necessary.">
<polygon fill="white" stroke="#666666" points="849,-100.68 718,-100.68 718,-81.68 849,-81.68 849,-100.68"/>
<text text-anchor="middle" x="783.5" y="-88.68" font-family="Roboto" font-size="10.00">Urho3D::Vector::DoResize</text>
</a>
</g>
</g>
<!-- Node4&#45;&gt;Node5 -->
<g id="edge4" class="edge">
<title>Node4&#45;&gt;Node5</title>
<path fill="none" stroke="#63b8ff" d="M682.12,-91.18C689.99,-91.18 698.15,-91.18 706.28,-91.18"/>
<polygon fill="#63b8ff" stroke="#63b8ff" points="706.18,-94.68 716.18,-91.18 706.18,-87.68 706.18,-94.68"/>
</g>
<!-- Node6 -->
<g id="node6" class="node">
<title>Node6</title>
<g id="a_node6"><a xlink:href="class_urho3_d_1_1_vector.html#a2126455bfd4dd42c90838abba6fef37a" target="_top" xlink:title="Return the buffer with right type.">
<polygon fill="white" stroke="#666666" points="1334,-184.68 1218,-184.68 1218,-165.68 1334,-165.68 1334,-184.68"/>
<text text-anchor="middle" x="1276" y="-172.68" font-family="Roboto" font-size="10.00">Urho3D::Vector::Buffer</text>
</a>
</g>
</g>
<!-- Node5&#45;&gt;Node6 -->
<g id="edge5" class="edge">
<title>Node5&#45;&gt;Node6</title>
<path fill="none" stroke="#63b8ff" d="M801.7,-81.19C859.5,-49.03 1050.47,45.52 1182,-27.18 1231.68,-54.63 1258.41,-120.97 1269.2,-154.72"/>
<polygon fill="#63b8ff" stroke="#63b8ff" points="1265.79,-155.54 1272.04,-164.1 1272.5,-153.51 1265.79,-155.54"/>
</g>
<!-- Node7 -->
<g id="node7" class="node">
<title>Node7</title>
<g id="a_node7"><a xlink:href="class_urho3_d_1_1_vector.html#a05f68c0546419caf7d6050a3e7d8d1d5" target="_top" xlink:title="Calculate new vector capacity.">
<polygon fill="white" stroke="#666666" points="1014,-230.18 885,-230.18 885,-200.18 1014,-200.18 1014,-230.18"/>
<text text-anchor="start" x="893" y="-218.18" font-family="Roboto" font-size="10.00">Urho3D::Vector::Calculate</text>
<text text-anchor="middle" x="949.5" y="-207.18" font-family="Roboto" font-size="10.00">Capacity</text>
</a>
</g>
</g>
<!-- Node5&#45;&gt;Node7 -->
<g id="edge6" class="edge">
<title>Node5&#45;&gt;Node7</title>
<path fill="none" stroke="#63b8ff" d="M792.03,-101.08C807.46,-120.77 844.65,-165.19 885,-191.18 886.86,-192.37 888.78,-193.52 890.76,-194.63"/>
<polygon fill="#63b8ff" stroke="#63b8ff" points="889.09,-197.71 899.59,-199.08 892.24,-191.46 889.09,-197.71"/>
</g>
<!-- Node8 -->
<g id="node8" class="node">
<title>Node8</title>
<g id="a_node8"><a xlink:href="class_urho3_d_1_1_vector.html#a5c0b7ecbd0ae0c75a9a69bf9dedc517a" target="_top" xlink:title="Construct elements using default ctor.">
<polygon fill="white" stroke="#666666" points="1182,-190.18 1050,-190.18 1050,-160.18 1182,-160.18 1182,-190.18"/>
<text text-anchor="start" x="1058" y="-178.18" font-family="Roboto" font-size="10.00">Urho3D::Vector::Construct</text>
<text text-anchor="middle" x="1116" y="-167.18" font-family="Roboto" font-size="10.00">Elements</text>
</a>
</g>
</g>
<!-- Node5&#45;&gt;Node8 -->
<g id="edge7" class="edge">
<title>Node5&#45;&gt;Node8</title>
<path fill="none" stroke="#63b8ff" d="M834.04,-101.15C880.72,-110.84 952.49,-126.5 1014,-143.18 1028.43,-147.09 1043.88,-151.75 1058.24,-156.28"/>
<polygon fill="#63b8ff" stroke="#63b8ff" points="1056.95,-159.54 1067.54,-159.24 1059.08,-152.87 1056.95,-159.54"/>
</g>
<!-- Node9 -->
<g id="node9" class="node">
<title>Node9</title>
<g id="a_node9"><a xlink:href="class_urho3_d_1_1_vector.html#afb87585db12d120ab5148ec782d14632" target="_top" xlink:title="Call the elements&#39; destructors.">
<polygon fill="white" stroke="#666666" points="1179,-66.18 1053,-66.18 1053,-36.18 1179,-36.18 1179,-66.18"/>
<text text-anchor="start" x="1061" y="-54.18" font-family="Roboto" font-size="10.00">Urho3D::Vector::Destruct</text>
<text text-anchor="middle" x="1116" y="-43.18" font-family="Roboto" font-size="10.00">Elements</text>
</a>
</g>
</g>
<!-- Node5&#45;&gt;Node9 -->
<g id="edge8" class="edge">
<title>Node5&#45;&gt;Node9</title>
<path fill="none" stroke="#63b8ff" d="M821.94,-81.19C840.74,-76.54 863.94,-71.35 885,-68.18 936.9,-60.37 995.96,-56.1 1041.23,-53.79"/>
<polygon fill="#63b8ff" stroke="#63b8ff" points="1041.4,-57.29 1051.22,-53.31 1041.06,-50.3 1041.4,-57.29"/>
</g>
<!-- Node10 -->
<g id="node10" class="node">
<title>Node10</title>
<g id="a_node10"><a xlink:href="class_urho3_d_1_1_vector.html#a30b2235d2061acfb649faa5afddebb69" target="_top" xlink:title="Set new capacity.">
<polygon fill="white" stroke="#666666" points="1011.5,-95.68 887.5,-95.68 887.5,-76.68 1011.5,-76.68 1011.5,-95.68"/>
<text text-anchor="middle" x="949.5" y="-83.68" font-family="Roboto" font-size="10.00">Urho3D::Vector::Reserve</text>
</a>
</g>
</g>
<!-- Node5&#45;&gt;Node10 -->
<g id="edge9" class="edge">
<title>Node5&#45;&gt;Node10</title>
<path fill="none" stroke="#63b8ff" d="M849.32,-89.2C857.97,-88.94 866.89,-88.67 875.67,-88.4"/>
<polygon fill="#63b8ff" stroke="#63b8ff" points="875.69,-91.9 885.58,-88.1 875.48,-84.9 875.69,-91.9"/>
</g>
<!-- Node13 -->
<g id="node13" class="node">
<title>Node13</title>
<g id="a_node13"><a xlink:href="class_urho3_d_1_1_vector_base.html#aec648d72344954c3be22218eb180f6a4" target="_top" xlink:title="Swap with another vector.">
<polygon fill="white" stroke="#666666" points="1002.5,-182.18 896.5,-182.18 896.5,-152.18 1002.5,-152.18 1002.5,-182.18"/>
<text text-anchor="start" x="904.5" y="-170.18" font-family="Roboto" font-size="10.00">Urho3D::VectorBase</text>
<text text-anchor="middle" x="949.5" y="-159.18" font-family="Roboto" font-size="10.00">::Swap</text>
</a>
</g>
</g>
<!-- Node5&#45;&gt;Node13 -->
<g id="edge17" class="edge">
<title>Node5&#45;&gt;Node13</title>
<path fill="none" stroke="#63b8ff" d="M805.65,-101.14C825.97,-110.69 857.55,-125.49 885,-138.18 891.28,-141.08 897.92,-144.13 904.44,-147.12"/>
<polygon fill="#63b8ff" stroke="#63b8ff" points="902.6,-150.13 913.15,-151.1 905.52,-143.76 902.6,-150.13"/>
</g>
<!-- Node10&#45;&gt;Node6 -->
<g id="edge12" class="edge">
<title>Node10&#45;&gt;Node6</title>
<path fill="none" stroke="#63b8ff" d="M986.78,-96.13C1045.88,-112.34 1162.87,-144.42 1228.16,-162.33"/>
<polygon fill="#63b8ff" stroke="#63b8ff" points="1226.92,-165.62 1237.49,-164.89 1228.78,-158.87 1226.92,-165.62"/>
</g>
<!-- Node10&#45;&gt;Node8 -->
<g id="edge13" class="edge">
<title>Node10&#45;&gt;Node8</title>
<path fill="none" stroke="#63b8ff" d="M984.73,-96.11C994.6,-99.75 1005.09,-104.42 1014,-110.18 1033.01,-122.45 1031.36,-133.35 1050,-146.18 1054.41,-149.21 1059.19,-152.05 1064.09,-154.67"/>
<polygon fill="#63b8ff" stroke="#63b8ff" points="1062.37,-157.73 1072.88,-159.07 1065.5,-151.46 1062.37,-157.73"/>
</g>
<!-- Node10&#45;&gt;Node9 -->
<g id="edge14" class="edge">
<title>Node10&#45;&gt;Node9</title>
<path fill="none" stroke="#63b8ff" d="M997.2,-76.24C1011.03,-73.3 1026.53,-70 1041.62,-66.79"/>
<polygon fill="#63b8ff" stroke="#63b8ff" points="1041.98,-70.29 1051.03,-64.79 1040.52,-63.45 1041.98,-70.29"/>
</g>
<!-- Node11 -->
<g id="node11" class="node">
<title>Node11</title>
<g id="a_node11"><a xlink:href="class_urho3_d_1_1_vector.html#aa20f23bae4cf1d7cda06f6c3b47c7504" target="_top" xlink:title="Return iterator to the beginning.">
<polygon fill="white" stroke="#666666" points="1172.5,-227.68 1059.5,-227.68 1059.5,-208.68 1172.5,-208.68 1172.5,-227.68"/>
<text text-anchor="middle" x="1116" y="-215.68" font-family="Roboto" font-size="10.00">Urho3D::Vector::Begin</text>
</a>
</g>
</g>
<!-- Node10&#45;&gt;Node11 -->
<g id="edge10" class="edge">
<title>Node10&#45;&gt;Node11</title>
<path fill="none" stroke="#63b8ff" d="M963.11,-95.8C976.62,-106.49 998.25,-124.68 1014,-143.18 1033.18,-165.71 1026.3,-181.46 1050,-199.18 1051.91,-200.61 1053.93,-201.93 1056.03,-203.15"/>
<polygon fill="#63b8ff" stroke="#63b8ff" points="1054.41,-206.26 1064.93,-207.52 1057.49,-199.97 1054.41,-206.26"/>
</g>
<!-- Node12 -->
<g id="node12" class="node">
<title>Node12</title>
<g id="a_node12"><a xlink:href="class_urho3_d_1_1_vector.html#af79ffb0683568b08fe130ee028bfd1ef" target="_top" xlink:title="Return iterator to the end.">
<polygon fill="white" stroke="#666666" points="1169,-103.68 1063,-103.68 1063,-84.68 1169,-84.68 1169,-103.68"/>
<text text-anchor="middle" x="1116" y="-91.68" font-family="Roboto" font-size="10.00">Urho3D::Vector::End</text>
</a>
</g>
</g>
<!-- Node10&#45;&gt;Node12 -->
<g id="edge15" class="edge">
<title>Node10&#45;&gt;Node12</title>
<path fill="none" stroke="#63b8ff" d="M1011.75,-89.16C1024.68,-89.79 1038.35,-90.45 1051.37,-91.08"/>
<polygon fill="#63b8ff" stroke="#63b8ff" points="1050.93,-94.57 1061.09,-91.56 1051.27,-87.57 1050.93,-94.57"/>
</g>
<!-- Node11&#45;&gt;Node6 -->
<g id="edge11" class="edge">
<title>Node11&#45;&gt;Node6</title>
<path fill="none" stroke="#63b8ff" d="M1153.65,-208.2C1175.6,-202.23 1203.76,-194.57 1227.42,-188.13"/>
<polygon fill="#63b8ff" stroke="#63b8ff" points="1228.09,-191.57 1236.82,-185.57 1226.25,-184.82 1228.09,-191.57"/>
</g>
<!-- Node12&#45;&gt;Node6 -->
<g id="edge16" class="edge">
<title>Node12&#45;&gt;Node6</title>
<path fill="none" stroke="#63b8ff" d="M1147.61,-104.09C1158.65,-108.02 1171.07,-112.87 1182,-118.18 1206.73,-130.18 1233.3,-146.89 1251.69,-159.11"/>
<polygon fill="#63b8ff" stroke="#63b8ff" points="1249.49,-161.86 1259.74,-164.54 1253.41,-156.05 1249.49,-161.86"/>
</g>
<!-- Node15&#45;&gt;Node15 -->
<g id="edge20" class="edge">
<title>Node15&#45;&gt;Node15</title>
<path fill="none" stroke="#63b8ff" d="M409.6,-282.45C402.51,-291.58 413.14,-300.18 441.5,-300.18 457.01,-300.18 467.22,-297.61 472.12,-293.79"/>
<polygon fill="#63b8ff" stroke="#63b8ff" points="475.59,-294.29 473.23,-283.96 468.63,-293.5 475.59,-294.29"/>
</g>
<!-- Node20 -->
<g id="node20" class="node">
<title>Node20</title>
<g id="a_node20"><a xlink:href="class_urho3_d_1_1_vector.html#a2966c346317753692342733ce84a6829" target="_top" xlink:title="Return last element.">
<polygon fill="white" stroke="#666666" points="838.5,-378.68 728.5,-378.68 728.5,-359.68 838.5,-359.68 838.5,-378.68"/>
<text text-anchor="middle" x="783.5" y="-366.68" font-family="Roboto" font-size="10.00">Urho3D::Vector::Back</text>
</a>
</g>
</g>
<!-- Node19&#45;&gt;Node20 -->
<g id="edge25" class="edge">
<title>Node19&#45;&gt;Node20</title>
<path fill="none" stroke="#63b8ff" d="M678.1,-367.2C690.59,-367.44 704,-367.69 716.92,-367.94"/>
<polygon fill="#63b8ff" stroke="#63b8ff" points="716.52,-371.43 726.59,-368.12 716.66,-364.43 716.52,-371.43"/>
</g>
<!-- Node21 -->
<g id="node21" class="node">
<title>Node21</title>
<g id="a_node21"><a xlink:href="class_urho3_d_1_1_vector.html#a17e4a13942a9512bc0eceb3e46d950dd" target="_top" xlink:title="Insert elements into the vector using copy or move constructor.">
<polygon fill="white" stroke="#666666" points="847,-273.18 720,-273.18 720,-243.18 847,-243.18 847,-273.18"/>
<text text-anchor="start" x="728" y="-261.18" font-family="Roboto" font-size="10.00">Urho3D::Vector::DoInsert</text>
<text text-anchor="middle" x="783.5" y="-250.18" font-family="Roboto" font-size="10.00">Elements</text>
</a>
</g>
</g>
<!-- Node19&#45;&gt;Node21 -->
<g id="edge27" class="edge">
<title>Node19&#45;&gt;Node21</title>
<path fill="none" stroke="#63b8ff" d="M638.63,-356.21C663.99,-338.93 716.66,-303.04 750.75,-279.81"/>
<polygon fill="#63b8ff" stroke="#63b8ff" points="752.29,-283 758.58,-274.48 748.35,-277.21 752.29,-283"/>
</g>
<!-- Node20&#45;&gt;Node6 -->
<g id="edge26" class="edge">
<title>Node20&#45;&gt;Node6</title>
<path fill="none" stroke="#63b8ff" d="M838.92,-366.03C919.04,-359.31 1071.22,-338.44 1182,-274.18 1216.67,-254.07 1246.3,-217.02 1262.3,-194.39"/>
<polygon fill="#63b8ff" stroke="#63b8ff" points="1265.03,-196.6 1267.8,-186.37 1259.26,-192.64 1265.03,-196.6"/>
</g>
<!-- Node21&#45;&gt;Node6 -->
<g id="edge29" class="edge">
<title>Node21&#45;&gt;Node6</title>
<path fill="none" stroke="#63b8ff" d="M823.44,-273.66C841.8,-280.16 864.19,-286.95 885,-290.18 941.65,-298.98 957.33,-298.9 1014,-290.18 1091.38,-278.26 1111.39,-271.01 1182,-237.18 1208.14,-224.66 1235.43,-205.64 1253.63,-191.98"/>
<polygon fill="#63b8ff" stroke="#63b8ff" points="1255.73,-194.78 1261.54,-185.93 1251.47,-189.22 1255.73,-194.78"/>
</g>
<!-- Node21&#45;&gt;Node7 -->
<g id="edge30" class="edge">
<title>Node21&#45;&gt;Node7</title>
<path fill="none" stroke="#63b8ff" d="M843.24,-242.78C854.67,-239.78 866.75,-236.61 878.49,-233.53"/>
<polygon fill="#63b8ff" stroke="#63b8ff" points="879.37,-236.92 888.15,-231 877.59,-230.15 879.37,-236.92"/>
</g>
<!-- Node21&#45;&gt;Node8 -->
<g id="edge31" class="edge">
<title>Node21&#45;&gt;Node8</title>
<path fill="none" stroke="#63b8ff" d="M847.14,-264.9C895.19,-267.32 961.9,-264.6 1014,-239.18 1035.2,-228.83 1030.48,-213.42 1050,-200.18 1052.24,-198.66 1054.58,-197.22 1056.99,-195.85"/>
<polygon fill="#63b8ff" stroke="#63b8ff" points="1058.55,-198.98 1065.86,-191.31 1055.36,-192.75 1058.55,-198.98"/>
</g>
<!-- Node21&#45;&gt;Node10 -->
<g id="edge32" class="edge">
<title>Node21&#45;&gt;Node10</title>
<path fill="none" stroke="#63b8ff" d="M796.95,-242.77C815.41,-220.2 851.48,-177.15 885,-143.18 898.9,-129.09 915.58,-114.19 928.36,-103.15"/>
<polygon fill="#63b8ff" stroke="#63b8ff" points="930.4,-106.01 935.73,-96.85 925.85,-100.69 930.4,-106.01"/>
</g>
<!-- Node21&#45;&gt;Node11 -->
<g id="edge28" class="edge">
<title>Node21&#45;&gt;Node11</title>
<path fill="none" stroke="#63b8ff" d="M847.3,-272.15C893.96,-280.1 958.82,-286 1014,-272.18 1043.07,-264.89 1072.92,-247.47 1092.56,-234.37"/>
<polygon fill="#63b8ff" stroke="#63b8ff" points="1094.33,-237.4 1100.59,-228.85 1090.36,-231.63 1094.33,-237.4"/>
</g>
<!-- Node21&#45;&gt;Node13 -->
<g id="edge33" class="edge">
<title>Node21&#45;&gt;Node13</title>
<path fill="none" stroke="#63b8ff" d="M804.45,-242.9C824.16,-228.29 855.53,-206.32 885,-191.18 887.71,-189.79 890.51,-188.43 893.37,-187.12"/>
<polygon fill="#63b8ff" stroke="#63b8ff" points="894.7,-190.36 902.48,-183.17 891.92,-183.94 894.7,-190.36"/>
</g>
<!-- Node24 -->
<g id="node24" class="node">
<title>Node24</title>
<g id="a_node24"><a xlink:href="_math_defs_8h.html#a937fef228b452d2488ce13d78f0bd810" target="_top" xlink:title=" ">
<polygon fill="white" stroke="#666666" points="664.5,-26.68 581.5,-26.68 581.5,-7.68 664.5,-7.68 664.5,-26.68"/>
<text text-anchor="middle" x="623" y="-14.68" font-family="Roboto" font-size="10.00">Urho3D::Clamp</text>
</a>
</g>
</g>
<!-- Node23&#45;&gt;Node24 -->
<g id="edge36" class="edge">
<title>Node23&#45;&gt;Node24</title>
<path fill="none" stroke="#63b8ff" d="M498.31,-17.18C521.1,-17.18 547.31,-17.18 569.72,-17.18"/>
<polygon fill="#63b8ff" stroke="#63b8ff" points="569.54,-20.68 579.54,-17.18 569.54,-13.68 569.54,-20.68"/>
</g>
<!-- Node24&#45;&gt;Node24 -->
<g id="edge37" class="edge">
<title>Node24&#45;&gt;Node24</title>
<path fill="none" stroke="#63b8ff" d="M597.87,-27.05C586.41,-35.61 594.79,-44.68 623,-44.68 638.87,-44.68 648.46,-41.81 651.78,-37.78"/>
<polygon fill="#63b8ff" stroke="#63b8ff" points="655.15,-36.82 648.61,-28.48 648.52,-39.07 655.15,-36.82"/>
</g>
</g>
</svg>
