<?xml version="1.0" encoding="UTF-8" standalone="no"?>
<!DOCTYPE svg PUBLIC "-//W3C//DTD SVG 1.1//EN"
 "http://www.w3.org/Graphics/SVG/1.1/DTD/svg11.dtd">
<!-- Generated by graphviz version 7.0.3 (0)
 -->
<!-- Title: Urho3D::UIElement::SetPosition Pages: 1 -->
<svg width="867pt" height="478pt"
 viewBox="0.00 0.00 867.00 477.50" xmlns="http://www.w3.org/2000/svg" xmlns:xlink="http://www.w3.org/1999/xlink">
<g id="graph0" class="graph" transform="scale(1 1) rotate(0) translate(4 473.5)">
<title>Urho3D::UIElement::SetPosition</title>
<!-- Node1 -->
<g id="node1" class="node">
<title>Node1</title>
<g id="a_node1"><a xlink:title=" ">
<polygon fill="#999999" stroke="#666666" points="859,-194 754,-194 754,-164 859,-164 859,-194"/>
<text text-anchor="start" x="762" y="-182" font-family="Roboto" font-size="10.00">Urho3D::UIElement::</text>
<text text-anchor="middle" x="806.5" y="-171" font-family="Roboto" font-size="10.00">SetPosition</text>
</a>
</g>
</g>
<!-- Node2 -->
<g id="node2" class="node">
<title>Node2</title>
<g id="a_node2"><a xlink:href="class_urho3_d_1_1_window.html#aedff495d092ea1a241c08fe9f9c05397" target="_top" xlink:title="React to mouse drag cancel.">
<polygon fill="white" stroke="#666666" points="718,-363.5 560,-363.5 560,-344.5 718,-344.5 718,-363.5"/>
<text text-anchor="middle" x="639" y="-351.5" font-family="Roboto" font-size="10.00">Urho3D::Window::OnDragCancel</text>
</a>
</g>
</g>
<!-- Node1&#45;&gt;Node2 -->
<g id="edge1" class="edge">
<title>Node1&#45;&gt;Node2</title>
<path fill="none" stroke="#63b8ff" d="M797.11,-205.2C784.98,-238.93 759.36,-297.1 718,-330 710.35,-336.09 701.16,-340.64 691.81,-344.03"/>
<polygon fill="#63b8ff" stroke="#63b8ff" points="800.4,-206.39 800.35,-195.8 793.78,-204.11 800.4,-206.39"/>
</g>
<!-- Node3 -->
<g id="node3" class="node">
<title>Node3</title>
<g id="a_node3"><a xlink:href="class_urho3_d_1_1_window.html#a6b1bc0d6b435cc9fea0c0ed1fda015f3" target="_top" xlink:title="React to mouse drag motion.">
<polygon fill="white" stroke="#666666" points="524,-469.5 372,-469.5 372,-450.5 524,-450.5 524,-469.5"/>
<text text-anchor="middle" x="448" y="-457.5" font-family="Roboto" font-size="10.00">Urho3D::Window::OnDragMove</text>
</a>
</g>
</g>
<!-- Node1&#45;&gt;Node3 -->
<g id="edge2" class="edge">
<title>Node1&#45;&gt;Node3</title>
<path fill="none" stroke="#63b8ff" d="M793.49,-204.25C779.28,-231.36 753.05,-273.67 718,-297 657.79,-337.08 613.35,-287.16 560,-336 523.61,-369.31 560.29,-407.58 524,-441 520.05,-444.64 515.5,-447.61 510.64,-450.02"/>
<polygon fill="#63b8ff" stroke="#63b8ff" points="796.43,-206.19 797.83,-195.69 790.19,-203.03 796.43,-206.19"/>
</g>
<!-- Node4 -->
<g id="node4" class="node">
<title>Node4</title>
<g id="a_node4"><a xlink:href="class_urho3_d_1_1_u_i_element.html#aa6fad1d07806bb3035f0759984b2afc1" target="_top" xlink:title=" ">
<polygon fill="white" stroke="#666666" points="313,-240 208,-240 208,-210 313,-210 313,-240"/>
<text text-anchor="start" x="216" y="-228" font-family="Roboto" font-size="10.00">Urho3D::UIElement::</text>
<text text-anchor="middle" x="260.5" y="-217" font-family="Roboto" font-size="10.00">RegisterObject</text>
</a>
</g>
</g>
<!-- Node1&#45;&gt;Node4 -->
<g id="edge3" class="edge">
<title>Node1&#45;&gt;Node4</title>
<path fill="none" stroke="#63b8ff" d="M753.34,-159.91C668.37,-132.17 497.04,-90.48 372,-153 348.15,-164.93 357.71,-185.52 336,-201 329.14,-205.89 321.23,-209.82 313.19,-212.97"/>
<polygon fill="#63b8ff" stroke="#63b8ff" points="752.22,-163.22 762.81,-163.07 754.43,-156.58 752.22,-163.22"/>
</g>
<!-- Node5 -->
<g id="node5" class="node">
<title>Node5</title>
<g id="a_node5"><a xlink:href="class_urho3_d_1_1_tool_tip.html#a73a1d9518db0d686186655b07eab5cd2" target="_top" xlink:title="Hide tooltip if visible and reset parentage.">
<polygon fill="white" stroke="#666666" points="697.5,-67.5 580.5,-67.5 580.5,-48.5 697.5,-48.5 697.5,-67.5"/>
<text text-anchor="middle" x="639" y="-55.5" font-family="Roboto" font-size="10.00">Urho3D::ToolTip::Reset</text>
</a>
</g>
</g>
<!-- Node1&#45;&gt;Node5 -->
<g id="edge4" class="edge">
<title>Node1&#45;&gt;Node5</title>
<path fill="none" stroke="#63b8ff" d="M789.03,-154.17C773.25,-132.21 747.52,-100.82 718,-82 708.56,-75.98 697.52,-71.39 686.77,-67.92"/>
<polygon fill="#63b8ff" stroke="#63b8ff" points="786.1,-156.08 794.69,-162.28 791.84,-152.07 786.1,-156.08"/>
</g>
<!-- Node6 -->
<g id="node6" class="node">
<title>Node6</title>
<g id="a_node6"><a xlink:href="class_urho3_d_1_1_tool_tip.html#a1652f796b22acf7087e05e4929541104" target="_top" xlink:title="Perform UI element update.">
<polygon fill="white" stroke="#666666" points="510,-57.5 386,-57.5 386,-38.5 510,-38.5 510,-57.5"/>
<text text-anchor="middle" x="448" y="-45.5" font-family="Roboto" font-size="10.00">Urho3D::ToolTip::Update</text>
</a>
</g>
</g>
<!-- Node1&#45;&gt;Node6 -->
<g id="edge7" class="edge">
<title>Node1&#45;&gt;Node6</title>
<path fill="none" stroke="#63b8ff" d="M777.7,-156.8C761.16,-144.5 739.3,-129.77 718,-120 697.69,-110.69 545.61,-72.69 524,-67 512.57,-63.99 500.13,-60.81 488.74,-57.92"/>
<polygon fill="#63b8ff" stroke="#63b8ff" points="775.5,-159.52 785.57,-162.79 779.73,-153.95 775.5,-159.52"/>
</g>
<!-- Node7 -->
<g id="node7" class="node">
<title>Node7</title>
<g id="a_node7"><a xlink:href="class_urho3_d_1_1_u_i_element.html#a42ba569b85efe56042609c385a56a379" target="_top" xlink:title="Set position.">
<polygon fill="white" stroke="#666666" points="691.5,-30 586.5,-30 586.5,0 691.5,0 691.5,-30"/>
<text text-anchor="start" x="594.5" y="-18" font-family="Roboto" font-size="10.00">Urho3D::UIElement::</text>
<text text-anchor="middle" x="639" y="-7" font-family="Roboto" font-size="10.00">SetPosition</text>
</a>
</g>
</g>
<!-- Node1&#45;&gt;Node7 -->
<g id="edge6" class="edge">
<title>Node1&#45;&gt;Node7</title>
<path fill="none" stroke="#63b8ff" d="M796.02,-153.32C783.12,-121.85 757.06,-69.03 718,-39 710.25,-33.04 701.01,-28.55 691.65,-25.17"/>
<polygon fill="#63b8ff" stroke="#63b8ff" points="792.7,-154.44 799.62,-162.45 799.21,-151.87 792.7,-154.44"/>
</g>
<!-- Node8 -->
<g id="node8" class="node">
<title>Node8</title>
<g id="a_node8"><a xlink:href="class_urho3_d_1_1_u_i_element.html#a4a5e995e122f9caafc20a8fd5ccc92bc" target="_top" xlink:title="Update anchored size &amp; position. Only called when anchoring is enabled.">
<polygon fill="white" stroke="#666666" points="691.5,-240 586.5,-240 586.5,-210 691.5,-210 691.5,-240"/>
<text text-anchor="start" x="594.5" y="-228" font-family="Roboto" font-size="10.00">Urho3D::UIElement::</text>
<text text-anchor="middle" x="639" y="-217" font-family="Roboto" font-size="10.00">UpdateAnchoring</text>
</a>
</g>
</g>
<!-- Node1&#45;&gt;Node8 -->
<g id="edge8" class="edge">
<title>Node1&#45;&gt;Node8</title>
<path fill="none" stroke="#63b8ff" d="M742.73,-196.45C725.89,-201.13 707.89,-206.13 691.73,-210.62"/>
<polygon fill="#63b8ff" stroke="#63b8ff" points="743.43,-199.88 752.13,-193.83 741.56,-193.14 743.43,-199.88"/>
</g>
<!-- Node25 -->
<g id="node25" class="node">
<title>Node25</title>
<g id="a_node25"><a xlink:href="class_urho3_d_1_1_window.html#a24c9bcde5479c0a65342d7cc2c474d04" target="_top" xlink:title="Validate window position.">
<polygon fill="white" stroke="#666666" points="704.5,-288 573.5,-288 573.5,-258 704.5,-258 704.5,-288"/>
<text text-anchor="start" x="581.5" y="-276" font-family="Roboto" font-size="10.00">Urho3D::Window::Validate</text>
<text text-anchor="middle" x="639" y="-265" font-family="Roboto" font-size="10.00">Position</text>
</a>
</g>
</g>
<!-- Node1&#45;&gt;Node25 -->
<g id="edge33" class="edge">
<title>Node1&#45;&gt;Node25</title>
<path fill="none" stroke="#63b8ff" d="M781.97,-201.92C765.29,-217.1 741.72,-236.45 718,-249 711.99,-252.18 705.49,-255.01 698.9,-257.51"/>
<polygon fill="#63b8ff" stroke="#63b8ff" points="783.99,-204.82 788.93,-195.45 779.22,-199.7 783.99,-204.82"/>
</g>
<!-- Node5&#45;&gt;Node6 -->
<g id="edge5" class="edge">
<title>Node5&#45;&gt;Node6</title>
<path fill="none" stroke="#63b8ff" d="M568.67,-54.33C549.61,-53.32 529.07,-52.24 510.49,-51.25"/>
<polygon fill="#63b8ff" stroke="#63b8ff" points="568.33,-57.82 578.5,-54.85 568.7,-50.83 568.33,-57.82"/>
</g>
<!-- Node9 -->
<g id="node9" class="node">
<title>Node9</title>
<g id="a_node9"><a xlink:href="class_urho3_d_1_1_u_i_element.html#a26625db500e3a24d4be9a0a4a72edafb" target="_top" xlink:title=" ">
<polygon fill="white" stroke="#666666" points="500.5,-384 395.5,-384 395.5,-354 500.5,-354 500.5,-384"/>
<text text-anchor="start" x="403.5" y="-372" font-family="Roboto" font-size="10.00">Urho3D::UIElement::</text>
<text text-anchor="middle" x="448" y="-361" font-family="Roboto" font-size="10.00">SetEnableAnchor</text>
</a>
</g>
</g>
<!-- Node8&#45;&gt;Node9 -->
<g id="edge9" class="edge">
<title>Node8&#45;&gt;Node9</title>
<path fill="none" stroke="#63b8ff" d="M575.6,-238.25C569.91,-241.15 564.58,-244.69 560,-249 526.82,-280.24 557,-313.58 524,-345 517.47,-351.22 509.31,-355.83 500.82,-359.24"/>
<polygon fill="#63b8ff" stroke="#63b8ff" points="576.97,-241.47 584.76,-234.28 574.19,-235.05 576.97,-241.47"/>
</g>
<!-- Node10 -->
<g id="node10" class="node">
<title>Node10</title>
<g id="a_node10"><a xlink:href="class_urho3_d_1_1_u_i_element.html#a66ff4ce865cd7ed5b4aa64984a93d1e6" target="_top" xlink:title=" ">
<polygon fill="white" stroke="#666666" points="509,-288 387,-288 387,-258 509,-258 509,-288"/>
<text text-anchor="start" x="395" y="-276" font-family="Roboto" font-size="10.00">Urho3D::UIElement::</text>
<text text-anchor="middle" x="448" y="-265" font-family="Roboto" font-size="10.00">SetHorizontalAlignment</text>
</a>
</g>
</g>
<!-- Node8&#45;&gt;Node10 -->
<g id="edge10" class="edge">
<title>Node8&#45;&gt;Node10</title>
<path fill="none" stroke="#63b8ff" d="M574.98,-241C553.87,-246.37 530.39,-252.33 509.48,-257.64"/>
<polygon fill="#63b8ff" stroke="#63b8ff" points="575.81,-244.41 584.64,-238.55 574.08,-237.62 575.81,-244.41"/>
</g>
<!-- Node17 -->
<g id="node17" class="node">
<title>Node17</title>
<g id="a_node17"><a xlink:href="class_urho3_d_1_1_u_i_element.html#a383c549085ebcf7520f4d04d1b065e2e" target="_top" xlink:title=" ">
<polygon fill="white" stroke="#666666" points="500.5,-192 395.5,-192 395.5,-162 500.5,-162 500.5,-192"/>
<text text-anchor="start" x="403.5" y="-180" font-family="Roboto" font-size="10.00">Urho3D::UIElement::</text>
<text text-anchor="middle" x="448" y="-169" font-family="Roboto" font-size="10.00">SetMaxAnchor</text>
</a>
</g>
</g>
<!-- Node8&#45;&gt;Node17 -->
<g id="edge18" class="edge">
<title>Node8&#45;&gt;Node17</title>
<path fill="none" stroke="#63b8ff" d="M575.25,-209.06C551.09,-202.93 523.79,-196 500.78,-190.15"/>
<polygon fill="#63b8ff" stroke="#63b8ff" points="574.08,-212.38 584.64,-211.45 575.81,-205.59 574.08,-212.38"/>
</g>
<!-- Node19 -->
<g id="node19" class="node">
<title>Node19</title>
<g id="a_node19"><a xlink:href="class_urho3_d_1_1_u_i_element.html#ada383a3d2b0c821a2bee3ce3e0421ced" target="_top" xlink:title=" ">
<polygon fill="white" stroke="#666666" points="500.5,-336 395.5,-336 395.5,-306 500.5,-306 500.5,-336"/>
<text text-anchor="start" x="403.5" y="-324" font-family="Roboto" font-size="10.00">Urho3D::UIElement::</text>
<text text-anchor="middle" x="448" y="-313" font-family="Roboto" font-size="10.00">SetMaxOffset</text>
</a>
</g>
</g>
<!-- Node8&#45;&gt;Node19 -->
<g id="edge21" class="edge">
<title>Node8&#45;&gt;Node19</title>
<path fill="none" stroke="#63b8ff" d="M576.01,-240.01C570.37,-242.56 564.93,-245.54 560,-249 538.19,-264.34 545.73,-281.54 524,-297 516.98,-301.99 508.88,-305.98 500.64,-309.16"/>
<polygon fill="#63b8ff" stroke="#63b8ff" points="576.96,-243.4 584.93,-236.42 574.35,-236.9 576.96,-243.4"/>
</g>
<!-- Node20 -->
<g id="node20" class="node">
<title>Node20</title>
<g id="a_node20"><a xlink:href="class_urho3_d_1_1_u_i_element.html#ae4f3c836b22c9bf1acc2eeefe8246f42" target="_top" xlink:title=" ">
<polygon fill="white" stroke="#666666" points="500.5,-106 395.5,-106 395.5,-76 500.5,-76 500.5,-106"/>
<text text-anchor="start" x="403.5" y="-94" font-family="Roboto" font-size="10.00">Urho3D::UIElement::</text>
<text text-anchor="middle" x="448" y="-83" font-family="Roboto" font-size="10.00">SetMinAnchor</text>
</a>
</g>
</g>
<!-- Node8&#45;&gt;Node20 -->
<g id="edge22" class="edge">
<title>Node8&#45;&gt;Node20</title>
<path fill="none" stroke="#63b8ff" d="M607.16,-203.14C568.8,-175.94 504.26,-130.18 470.72,-106.4"/>
<polygon fill="#63b8ff" stroke="#63b8ff" points="604.9,-205.82 615.08,-208.75 608.95,-200.11 604.9,-205.82"/>
</g>
<!-- Node22 -->
<g id="node22" class="node">
<title>Node22</title>
<g id="a_node22"><a xlink:href="class_urho3_d_1_1_u_i_element.html#a41b2bb573ce2c73793fb04012d6d6b84" target="_top" xlink:title=" ">
<polygon fill="white" stroke="#666666" points="500.5,-240 395.5,-240 395.5,-210 500.5,-210 500.5,-240"/>
<text text-anchor="start" x="403.5" y="-228" font-family="Roboto" font-size="10.00">Urho3D::UIElement::</text>
<text text-anchor="middle" x="448" y="-217" font-family="Roboto" font-size="10.00">SetMinOffset</text>
</a>
</g>
</g>
<!-- Node8&#45;&gt;Node22 -->
<g id="edge25" class="edge">
<title>Node8&#45;&gt;Node22</title>
<path fill="none" stroke="#63b8ff" d="M574.6,-225C550.6,-225 523.59,-225 500.78,-225"/>
<polygon fill="#63b8ff" stroke="#63b8ff" points="574.59,-228.5 584.59,-225 574.59,-221.5 574.59,-228.5"/>
</g>
<!-- Node23 -->
<g id="node23" class="node">
<title>Node23</title>
<g id="a_node23"><a xlink:href="class_urho3_d_1_1_u_i_element.html#a9150b8c86bc499849dcc62105b2c4689" target="_top" xlink:title=" ">
<polygon fill="white" stroke="#666666" points="502,-432 394,-432 394,-402 502,-402 502,-432"/>
<text text-anchor="start" x="402" y="-420" font-family="Roboto" font-size="10.00">Urho3D::UIElement::</text>
<text text-anchor="middle" x="448" y="-409" font-family="Roboto" font-size="10.00">SetVerticalAlignment</text>
</a>
</g>
</g>
<!-- Node8&#45;&gt;Node23 -->
<g id="edge27" class="edge">
<title>Node8&#45;&gt;Node23</title>
<path fill="none" stroke="#63b8ff" d="M575.99,-237.25C570.05,-240.34 564.56,-244.19 560,-249 514.62,-296.88 569.11,-344.87 524,-393 518.02,-399.38 510.34,-404.08 502.18,-407.52"/>
<polygon fill="#63b8ff" stroke="#63b8ff" points="577.16,-240.56 584.93,-233.36 574.36,-234.14 577.16,-240.56"/>
</g>
<!-- Node10&#45;&gt;Node4 -->
<g id="edge12" class="edge">
<title>Node10&#45;&gt;Node4</title>
<path fill="none" stroke="#63b8ff" d="M376.19,-254.68C355.27,-249.26 332.78,-243.44 313.3,-238.4"/>
<polygon fill="#63b8ff" stroke="#63b8ff" points="375.26,-258.05 385.82,-257.17 377.02,-251.28 375.26,-258.05"/>
</g>
<!-- Node11 -->
<g id="node11" class="node">
<title>Node11</title>
<g id="a_node11"><a xlink:href="class_urho3_d_1_1_sprite.html#aedada728de8e83b44472e1dd798a1b0d" target="_top" xlink:title=" ">
<polygon fill="white" stroke="#666666" points="321,-384 200,-384 200,-354 321,-354 321,-384"/>
<text text-anchor="start" x="208" y="-372" font-family="Roboto" font-size="10.00">Urho3D::Sprite::Register</text>
<text text-anchor="middle" x="260.5" y="-361" font-family="Roboto" font-size="10.00">Object</text>
</a>
</g>
</g>
<!-- Node10&#45;&gt;Node11 -->
<g id="edge11" class="edge">
<title>Node10&#45;&gt;Node11</title>
<path fill="none" stroke="#63b8ff" d="M376.86,-293.8C375.19,-294.82 373.57,-295.88 372,-297 350.27,-312.46 357.71,-329.52 336,-345 331.35,-348.31 326.23,-351.19 320.9,-353.67"/>
<polygon fill="#63b8ff" stroke="#63b8ff" points="378.32,-296.99 385.48,-289.19 375.01,-290.82 378.32,-296.99"/>
</g>
<!-- Node12 -->
<g id="node12" class="node">
<title>Node12</title>
<g id="a_node12"><a xlink:href="class_urho3_d_1_1_u_i_element.html#ab0bcde76d8f81720b46b92af3ff5c6d6" target="_top" xlink:title="Set horizontal and vertical alignment.">
<polygon fill="white" stroke="#666666" points="313,-288 208,-288 208,-258 313,-258 313,-288"/>
<text text-anchor="start" x="216" y="-276" font-family="Roboto" font-size="10.00">Urho3D::UIElement::</text>
<text text-anchor="middle" x="260.5" y="-265" font-family="Roboto" font-size="10.00">SetAlignment</text>
</a>
</g>
</g>
<!-- Node10&#45;&gt;Node12 -->
<g id="edge13" class="edge">
<title>Node10&#45;&gt;Node12</title>
<path fill="none" stroke="#63b8ff" d="M375.26,-273C354.68,-273 332.64,-273 313.49,-273"/>
<polygon fill="#63b8ff" stroke="#63b8ff" points="375,-276.5 385,-273 375,-269.5 375,-276.5"/>
</g>
<!-- Node15 -->
<g id="node15" class="node">
<title>Node15</title>
<g id="a_node15"><a xlink:href="class_urho3_d_1_1_text3_d.html#a38ce6dc0d6ca9aa4c81548576857eab1" target="_top" xlink:title=" ">
<polygon fill="white" stroke="#666666" points="336,-336 185,-336 185,-306 336,-306 336,-336"/>
<text text-anchor="start" x="193" y="-324" font-family="Roboto" font-size="10.00">Urho3D::Text3D::SetHorizontal</text>
<text text-anchor="middle" x="260.5" y="-313" font-family="Roboto" font-size="10.00">Alignment</text>
</a>
</g>
</g>
<!-- Node10&#45;&gt;Node15 -->
<g id="edge16" class="edge">
<title>Node10&#45;&gt;Node15</title>
<path fill="none" stroke="#63b8ff" d="M376.16,-291.33C357.99,-296.03 338.64,-301.04 321.1,-305.58"/>
<polygon fill="#63b8ff" stroke="#63b8ff" points="377.02,-294.72 385.82,-288.83 375.26,-287.95 377.02,-294.72"/>
</g>
<!-- Node13 -->
<g id="node13" class="node">
<title>Node13</title>
<g id="a_node13"><a xlink:href="class_urho3_d_1_1_file_selector.html#ae0e66de218b839be46c7f802abf04c80" target="_top" xlink:title="Construct.">
<polygon fill="white" stroke="#666666" points="128,-247 21,-247 21,-217 128,-217 128,-247"/>
<text text-anchor="start" x="29" y="-235" font-family="Roboto" font-size="10.00">Urho3D::FileSelector</text>
<text text-anchor="middle" x="74.5" y="-224" font-family="Roboto" font-size="10.00">::FileSelector</text>
</a>
</g>
</g>
<!-- Node12&#45;&gt;Node13 -->
<g id="edge14" class="edge">
<title>Node12&#45;&gt;Node13</title>
<path fill="none" stroke="#63b8ff" d="M196.74,-259.02C174.53,-254.07 149.77,-248.55 128.45,-243.8"/>
<polygon fill="#63b8ff" stroke="#63b8ff" points="195.76,-262.38 206.28,-261.14 197.28,-255.55 195.76,-262.38"/>
</g>
<!-- Node14 -->
<g id="node14" class="node">
<title>Node14</title>
<g id="a_node14"><a xlink:href="class_urho3_d_1_1_text3_d.html#a8ca0d568f621336855e0754e43dfb49e" target="_top" xlink:title="Set horizontal and vertical alignment.">
<polygon fill="white" stroke="#666666" points="149,-284.5 0,-284.5 0,-265.5 149,-265.5 149,-284.5"/>
<text text-anchor="middle" x="74.5" y="-272.5" font-family="Roboto" font-size="10.00">Urho3D::Text3D::SetAlignment</text>
</a>
</g>
</g>
<!-- Node12&#45;&gt;Node14 -->
<g id="edge15" class="edge">
<title>Node12&#45;&gt;Node14</title>
<path fill="none" stroke="#63b8ff" d="M196.39,-273.69C181.18,-273.85 164.81,-274.03 149.16,-274.2"/>
<polygon fill="#63b8ff" stroke="#63b8ff" points="196.28,-277.19 206.24,-273.58 196.21,-270.19 196.28,-277.19"/>
</g>
<!-- Node16 -->
<g id="node16" class="node">
<title>Node16</title>
<g id="a_node16"><a xlink:href="class_urho3_d_1_1_text3_d.html#a8d7300ae719ca749d031f65acdc0a23b" target="_top" xlink:title=" ">
<polygon fill="white" stroke="#666666" points="137.5,-384 11.5,-384 11.5,-354 137.5,-354 137.5,-384"/>
<text text-anchor="start" x="19.5" y="-372" font-family="Roboto" font-size="10.00">Urho3D::Text3D::Register</text>
<text text-anchor="middle" x="74.5" y="-361" font-family="Roboto" font-size="10.00">Object</text>
</a>
</g>
</g>
<!-- Node15&#45;&gt;Node16 -->
<g id="edge17" class="edge">
<title>Node15&#45;&gt;Node16</title>
<path fill="none" stroke="#63b8ff" d="M189.23,-339.33C171.21,-344.03 152.01,-349.04 134.62,-353.58"/>
<polygon fill="#63b8ff" stroke="#63b8ff" points="190.01,-342.74 198.8,-336.83 188.24,-335.97 190.01,-342.74"/>
</g>
<!-- Node17&#45;&gt;Node4 -->
<g id="edge19" class="edge">
<title>Node17&#45;&gt;Node4</title>
<path fill="none" stroke="#63b8ff" d="M384.24,-193.24C361.13,-199.22 335.24,-205.92 313.22,-211.62"/>
<polygon fill="#63b8ff" stroke="#63b8ff" points="385.06,-196.64 393.86,-190.75 383.3,-189.87 385.06,-196.64"/>
</g>
<!-- Node18 -->
<g id="node18" class="node">
<title>Node18</title>
<g id="a_node18"><a xlink:href="class_urho3_d_1_1_u_i_element.html#afdb11d3c0b3285092a197c2d0104719b" target="_top" xlink:title="Set maximum anchor.">
<polygon fill="white" stroke="#666666" points="313,-192 208,-192 208,-162 313,-162 313,-192"/>
<text text-anchor="start" x="216" y="-180" font-family="Roboto" font-size="10.00">Urho3D::UIElement::</text>
<text text-anchor="middle" x="260.5" y="-169" font-family="Roboto" font-size="10.00">SetMaxAnchor</text>
</a>
</g>
</g>
<!-- Node17&#45;&gt;Node18 -->
<g id="edge20" class="edge">
<title>Node17&#45;&gt;Node18</title>
<path fill="none" stroke="#63b8ff" d="M383.92,-177C360.89,-177 335.14,-177 313.22,-177"/>
<polygon fill="#63b8ff" stroke="#63b8ff" points="383.81,-180.5 393.81,-177 383.81,-173.5 383.81,-180.5"/>
</g>
<!-- Node20&#45;&gt;Node4 -->
<g id="edge23" class="edge">
<title>Node20&#45;&gt;Node4</title>
<path fill="none" stroke="#63b8ff" d="M385.04,-110.18C380.33,-113.03 375.9,-116.29 372,-120 343.47,-147.16 365.3,-174.67 336,-201 329.53,-206.81 321.64,-211.22 313.44,-214.56"/>
<polygon fill="#63b8ff" stroke="#63b8ff" points="386.49,-113.38 393.69,-105.6 383.21,-107.19 386.49,-113.38"/>
</g>
<!-- Node21 -->
<g id="node21" class="node">
<title>Node21</title>
<g id="a_node21"><a xlink:href="class_urho3_d_1_1_u_i_element.html#a713e78978f1fd818a468c266609a3089" target="_top" xlink:title="Set minimum anchor.">
<polygon fill="white" stroke="#666666" points="313,-106 208,-106 208,-76 313,-76 313,-106"/>
<text text-anchor="start" x="216" y="-94" font-family="Roboto" font-size="10.00">Urho3D::UIElement::</text>
<text text-anchor="middle" x="260.5" y="-83" font-family="Roboto" font-size="10.00">SetMinAnchor</text>
</a>
</g>
</g>
<!-- Node20&#45;&gt;Node21 -->
<g id="edge24" class="edge">
<title>Node20&#45;&gt;Node21</title>
<path fill="none" stroke="#63b8ff" d="M383.92,-91C360.89,-91 335.14,-91 313.22,-91"/>
<polygon fill="#63b8ff" stroke="#63b8ff" points="383.81,-94.5 393.81,-91 383.81,-87.5 383.81,-94.5"/>
</g>
<!-- Node22&#45;&gt;Node4 -->
<g id="edge26" class="edge">
<title>Node22&#45;&gt;Node4</title>
<path fill="none" stroke="#63b8ff" d="M383.92,-225C360.89,-225 335.14,-225 313.22,-225"/>
<polygon fill="#63b8ff" stroke="#63b8ff" points="383.81,-228.5 393.81,-225 383.81,-221.5 383.81,-228.5"/>
</g>
<!-- Node23&#45;&gt;Node4 -->
<g id="edge29" class="edge">
<title>Node23&#45;&gt;Node4</title>
<path fill="none" stroke="#63b8ff" d="M383.84,-402.46C379.49,-399.82 375.46,-396.69 372,-393 326.89,-344.87 381.07,-297.18 336,-249 329.78,-242.35 321.71,-237.54 313.19,-234.06"/>
<polygon fill="#63b8ff" stroke="#63b8ff" points="381.96,-405.43 392.47,-406.84 385.13,-399.19 381.96,-405.43"/>
</g>
<!-- Node23&#45;&gt;Node11 -->
<g id="edge28" class="edge">
<title>Node23&#45;&gt;Node11</title>
<path fill="none" stroke="#63b8ff" d="M382.95,-400.43C362.92,-395.24 340.9,-389.55 321.19,-384.44"/>
<polygon fill="#63b8ff" stroke="#63b8ff" points="381.82,-403.75 392.38,-402.87 383.57,-396.97 381.82,-403.75"/>
</g>
<!-- Node23&#45;&gt;Node12 -->
<g id="edge30" class="edge">
<title>Node23&#45;&gt;Node12</title>
<path fill="none" stroke="#63b8ff" d="M383.53,-401.57C379.36,-399.12 375.45,-396.29 372,-393 339,-361.58 368.97,-328.45 336,-297 329.61,-290.9 321.66,-286.36 313.36,-282.96"/>
<polygon fill="#63b8ff" stroke="#63b8ff" points="381.78,-404.61 392.29,-405.94 384.9,-398.35 381.78,-404.61"/>
</g>
<!-- Node24 -->
<g id="node24" class="node">
<title>Node24</title>
<g id="a_node24"><a xlink:href="class_urho3_d_1_1_text3_d.html#aed00f4860d2c98731ba9978440cb0f36" target="_top" xlink:title=" ">
<polygon fill="white" stroke="#666666" points="329,-432 192,-432 192,-402 329,-402 329,-432"/>
<text text-anchor="start" x="200" y="-420" font-family="Roboto" font-size="10.00">Urho3D::Text3D::SetVertical</text>
<text text-anchor="middle" x="260.5" y="-409" font-family="Roboto" font-size="10.00">Alignment</text>
</a>
</g>
</g>
<!-- Node23&#45;&gt;Node24 -->
<g id="edge31" class="edge">
<title>Node23&#45;&gt;Node24</title>
<path fill="none" stroke="#63b8ff" d="M382.73,-417C365.44,-417 346.7,-417 329.24,-417"/>
<polygon fill="#63b8ff" stroke="#63b8ff" points="382.33,-420.5 392.33,-417 382.33,-413.5 382.33,-420.5"/>
</g>
<!-- Node24&#45;&gt;Node16 -->
<g id="edge32" class="edge">
<title>Node24&#45;&gt;Node16</title>
<path fill="none" stroke="#63b8ff" d="M189.23,-398.67C171.21,-393.97 152.01,-388.96 134.62,-384.42"/>
<polygon fill="#63b8ff" stroke="#63b8ff" points="188.24,-402.03 198.8,-401.17 190.01,-395.26 188.24,-402.03"/>
</g>
<!-- Node25&#45;&gt;Node3 -->
<g id="edge34" class="edge">
<title>Node25&#45;&gt;Node3</title>
<path fill="none" stroke="#63b8ff" d="M567.89,-294.75C565.05,-296.94 562.39,-299.35 560,-302 517.25,-349.38 569.24,-396 524,-441 520.29,-444.69 515.96,-447.7 511.3,-450.15"/>
<polygon fill="#63b8ff" stroke="#63b8ff" points="569.8,-297.69 576.28,-289.31 565.99,-291.82 569.8,-297.69"/>
</g>
</g>
</svg>
