<?xml version="1.0" encoding="UTF-8" standalone="no"?>
<!DOCTYPE svg PUBLIC "-//W3C//DTD SVG 1.1//EN"
 "http://www.w3.org/Graphics/SVG/1.1/DTD/svg11.dtd">
<!-- Generated by graphviz version 7.0.3 (0)
 -->
<!-- Title: Urho3D::FileSystem::SetExecuteConsoleCommands Pages: 1 -->
<svg width="1248pt" height="436pt"
 viewBox="0.00 0.00 1248.00 436.00" xmlns="http://www.w3.org/2000/svg" xmlns:xlink="http://www.w3.org/1999/xlink">
<g id="graph0" class="graph" transform="scale(1 1) rotate(0) translate(4 432)">
<title>Urho3D::FileSystem::SetExecuteConsoleCommands</title>
<!-- Node1 -->
<g id="node1" class="node">
<title>Node1</title>
<g id="a_node1"><a xlink:title=" ">
<polygon fill="#999999" stroke="#666666" points="159,-294.5 0,-294.5 0,-264.5 159,-264.5 159,-294.5"/>
<text text-anchor="start" x="8" y="-282.5" font-family="Roboto" font-size="10.00">Urho3D::FileSystem</text>
<text text-anchor="middle" x="79.5" y="-271.5" font-family="Roboto" font-size="10.00">::SetExecuteConsoleCommands</text>
</a>
</g>
</g>
<!-- Node2 -->
<g id="node2" class="node">
<title>Node2</title>
<g id="a_node2"><a xlink:href="class_urho3_d_1_1_file_system.html#a0160529012807d4a61dee3bfcc477784" target="_top" xlink:title="Handle a console command event.">
<polygon fill="white" stroke="#666666" points="334.5,-390.5 197.5,-390.5 197.5,-360.5 334.5,-360.5 334.5,-390.5"/>
<text text-anchor="start" x="205.5" y="-378.5" font-family="Roboto" font-size="10.00">Urho3D::FileSystem</text>
<text text-anchor="middle" x="266" y="-367.5" font-family="Roboto" font-size="10.00">::HandleConsoleCommand</text>
</a>
</g>
</g>
<!-- Node1&#45;&gt;Node2 -->
<g id="edge1" class="edge">
<title>Node1&#45;&gt;Node2</title>
<path fill="none" stroke="#63b8ff" d="M110.14,-294.92C141.48,-311.23 191.06,-337.03 225.66,-355.03"/>
<polygon fill="#63b8ff" stroke="#63b8ff" points="223.6,-357.9 234.09,-359.42 226.83,-351.69 223.6,-357.9"/>
</g>
<!-- Node5 -->
<g id="node5" class="node">
<title>Node5</title>
<g id="a_node5"><a xlink:href="class_urho3_d_1_1_object.html#a7d9d061f4cf32f5fd5531e11a72834b6" target="_top" xlink:title="Subscribe to an event that can be sent by any sender.">
<polygon fill="white" stroke="#666666" points="331.5,-294.5 200.5,-294.5 200.5,-264.5 331.5,-264.5 331.5,-294.5"/>
<text text-anchor="start" x="208.5" y="-282.5" font-family="Roboto" font-size="10.00">Urho3D::Object::Subscribe</text>
<text text-anchor="middle" x="266" y="-271.5" font-family="Roboto" font-size="10.00">ToEvent</text>
</a>
</g>
</g>
<!-- Node1&#45;&gt;Node5 -->
<g id="edge4" class="edge">
<title>Node1&#45;&gt;Node5</title>
<path fill="none" stroke="#63b8ff" d="M159.28,-279.5C169.06,-279.5 179.06,-279.5 188.8,-279.5"/>
<polygon fill="#63b8ff" stroke="#63b8ff" points="188.59,-283 198.59,-279.5 188.59,-276 188.59,-283"/>
</g>
<!-- Node10 -->
<g id="node10" class="node">
<title>Node10</title>
<g id="a_node10"><a xlink:href="class_urho3_d_1_1_object.html#a153b96c4397e045b2ca2b2d5471d097c" target="_top" xlink:title="Unsubscribe from an event.">
<polygon fill="white" stroke="#666666" points="337,-182.5 195,-182.5 195,-152.5 337,-152.5 337,-182.5"/>
<text text-anchor="start" x="203" y="-170.5" font-family="Roboto" font-size="10.00">Urho3D::Object::Unsubscribe</text>
<text text-anchor="middle" x="266" y="-159.5" font-family="Roboto" font-size="10.00">FromEvent</text>
</a>
</g>
</g>
<!-- Node1&#45;&gt;Node10 -->
<g id="edge9" class="edge">
<title>Node1&#45;&gt;Node10</title>
<path fill="none" stroke="#63b8ff" d="M105.77,-264.16C137.97,-244.61 193.81,-210.72 230.07,-188.7"/>
<polygon fill="#63b8ff" stroke="#63b8ff" points="231.72,-191.8 238.45,-183.62 228.08,-185.82 231.72,-191.8"/>
</g>
<!-- Node3 -->
<g id="node3" class="node">
<title>Node3</title>
<g id="a_node3"><a xlink:href="class_urho3_d_1_1_object.html#aa70436408fab29ff5d6ea54fa1e09b9b" target="_top" xlink:title=" ">
<polygon fill="white" stroke="#666666" points="524,-428 375,-428 375,-409 524,-409 524,-428"/>
<text text-anchor="middle" x="449.5" y="-416" font-family="Roboto" font-size="10.00">Urho3D::Object::GetTypeName</text>
</a>
</g>
</g>
<!-- Node2&#45;&gt;Node3 -->
<g id="edge2" class="edge">
<title>Node2&#45;&gt;Node3</title>
<path fill="none" stroke="#63b8ff" d="M332.27,-390.96C353.01,-395.88 375.68,-401.25 395.45,-405.93"/>
<polygon fill="#63b8ff" stroke="#63b8ff" points="394.4,-409.28 404.94,-408.18 396.02,-402.47 394.4,-409.28"/>
</g>
<!-- Node4 -->
<g id="node4" class="node">
<title>Node4</title>
<g id="a_node4"><a xlink:href="class_urho3_d_1_1_file_system.html#a0149d36ce7946f6d0feec557ec8245a9" target="_top" xlink:title="Run a program using the command interpreter, block until it exits and return the exit code....">
<polygon fill="white" stroke="#666666" points="501,-390.5 398,-390.5 398,-360.5 501,-360.5 501,-390.5"/>
<text text-anchor="start" x="406" y="-378.5" font-family="Roboto" font-size="10.00">Urho3D::FileSystem</text>
<text text-anchor="middle" x="449.5" y="-367.5" font-family="Roboto" font-size="10.00">::SystemCommand</text>
</a>
</g>
</g>
<!-- Node2&#45;&gt;Node4 -->
<g id="edge3" class="edge">
<title>Node2&#45;&gt;Node4</title>
<path fill="none" stroke="#63b8ff" d="M334.84,-375.5C351.78,-375.5 369.85,-375.5 386.49,-375.5"/>
<polygon fill="#63b8ff" stroke="#63b8ff" points="386.23,-379 396.23,-375.5 386.23,-372 386.23,-379"/>
</g>
<!-- Node6 -->
<g id="node6" class="node">
<title>Node6</title>
<g id="a_node6"><a xlink:href="class_urho3_d_1_1_context.html#ae3e0c5db85e2395f3d34941003c816ad" target="_top" xlink:title="Add event receiver.">
<polygon fill="white" stroke="#666666" points="517.5,-342.5 381.5,-342.5 381.5,-312.5 517.5,-312.5 517.5,-342.5"/>
<text text-anchor="start" x="389.5" y="-330.5" font-family="Roboto" font-size="10.00">Urho3D::Context::AddEvent</text>
<text text-anchor="middle" x="449.5" y="-319.5" font-family="Roboto" font-size="10.00">Receiver</text>
</a>
</g>
</g>
<!-- Node5&#45;&gt;Node6 -->
<g id="edge5" class="edge">
<title>Node5&#45;&gt;Node6</title>
<path fill="none" stroke="#63b8ff" d="M325.43,-294.95C342.59,-299.49 361.53,-304.5 379.3,-309.2"/>
<polygon fill="#63b8ff" stroke="#63b8ff" points="378.16,-312.52 388.72,-311.69 379.95,-305.75 378.16,-312.52"/>
</g>
<!-- Node7 -->
<g id="node7" class="node">
<title>Node7</title>
<g id="a_node7"><a xlink:href="class_urho3_d_1_1_object.html#ad9d3702ab78a9d8a8ddad6aae7144abb" target="_top" xlink:title="Find the first event handler with specific sender.">
<polygon fill="white" stroke="#666666" points="519.5,-294.5 379.5,-294.5 379.5,-264.5 519.5,-264.5 519.5,-294.5"/>
<text text-anchor="start" x="387.5" y="-282.5" font-family="Roboto" font-size="10.00">Urho3D::Object::FindSpecific</text>
<text text-anchor="middle" x="449.5" y="-271.5" font-family="Roboto" font-size="10.00">EventHandler</text>
</a>
</g>
</g>
<!-- Node5&#45;&gt;Node7 -->
<g id="edge6" class="edge">
<title>Node5&#45;&gt;Node7</title>
<path fill="none" stroke="#63b8ff" d="M331.76,-279.5C343.41,-279.5 355.68,-279.5 367.72,-279.5"/>
<polygon fill="#63b8ff" stroke="#63b8ff" points="367.64,-283 377.64,-279.5 367.64,-276 367.64,-283"/>
</g>
<!-- Node9 -->
<g id="node9" class="node">
<title>Node9</title>
<g id="a_node9"><a xlink:href="class_urho3_d_1_1_event_handler.html#abe76f0245895dadac146b7a4b7d78713" target="_top" xlink:title="Set sender and event type.">
<polygon fill="white" stroke="#666666" points="513.5,-246.5 385.5,-246.5 385.5,-216.5 513.5,-216.5 513.5,-246.5"/>
<text text-anchor="start" x="393.5" y="-234.5" font-family="Roboto" font-size="10.00">Urho3D::EventHandler</text>
<text text-anchor="middle" x="449.5" y="-223.5" font-family="Roboto" font-size="10.00">::SetSenderAndEventType</text>
</a>
</g>
</g>
<!-- Node5&#45;&gt;Node9 -->
<g id="edge8" class="edge">
<title>Node5&#45;&gt;Node9</title>
<path fill="none" stroke="#63b8ff" d="M325.43,-264.05C342.59,-259.51 361.53,-254.5 379.3,-249.8"/>
<polygon fill="#63b8ff" stroke="#63b8ff" points="379.95,-253.25 388.72,-247.31 378.16,-246.48 379.95,-253.25"/>
</g>
<!-- Node8 -->
<g id="node8" class="node">
<title>Node8</title>
<g id="a_node8"><a xlink:href="class_urho3_d_1_1_event_handler.html#a18d3379ef44dac87304f2b118e36c83e" target="_top" xlink:title="Return event sender. Null if the handler is non&#45;specific.">
<polygon fill="white" stroke="#666666" points="689.5,-251.5 576.5,-251.5 576.5,-221.5 689.5,-221.5 689.5,-251.5"/>
<text text-anchor="start" x="584.5" y="-239.5" font-family="Roboto" font-size="10.00">Urho3D::EventHandler</text>
<text text-anchor="middle" x="633" y="-228.5" font-family="Roboto" font-size="10.00">::GetSender</text>
</a>
</g>
</g>
<!-- Node7&#45;&gt;Node8 -->
<g id="edge7" class="edge">
<title>Node7&#45;&gt;Node8</title>
<path fill="none" stroke="#63b8ff" d="M515.77,-264.04C531.79,-260.24 548.96,-256.17 565.06,-252.36"/>
<polygon fill="#63b8ff" stroke="#63b8ff" points="565.61,-255.83 574.53,-250.12 563.99,-249.02 565.61,-255.83"/>
</g>
<!-- Node10&#45;&gt;Node8 -->
<g id="edge12" class="edge">
<title>Node10&#45;&gt;Node8</title>
<path fill="none" stroke="#63b8ff" d="M337.47,-176.18C389.78,-183.15 462.7,-194 526,-207.5 539.99,-210.48 554.87,-214.21 568.93,-217.98"/>
<polygon fill="#63b8ff" stroke="#63b8ff" points="567.96,-221.34 578.53,-220.6 569.81,-214.59 567.96,-221.34"/>
</g>
<!-- Node11 -->
<g id="node11" class="node">
<title>Node11</title>
<g id="a_node11"><a xlink:href="class_urho3_d_1_1_object.html#a00bec56f305dd6636d186e5b351d0264" target="_top" xlink:title="Find the first event handler with no specific sender.">
<polygon fill="white" stroke="#666666" points="514,-160.5 385,-160.5 385,-130.5 514,-130.5 514,-160.5"/>
<text text-anchor="start" x="393" y="-148.5" font-family="Roboto" font-size="10.00">Urho3D::Object::FindEvent</text>
<text text-anchor="middle" x="449.5" y="-137.5" font-family="Roboto" font-size="10.00">Handler</text>
</a>
</g>
</g>
<!-- Node10&#45;&gt;Node11 -->
<g id="edge10" class="edge">
<title>Node10&#45;&gt;Node11</title>
<path fill="none" stroke="#63b8ff" d="M337.43,-158.96C349.21,-157.53 361.47,-156.05 373.37,-154.61"/>
<polygon fill="#63b8ff" stroke="#63b8ff" points="373.62,-158.1 383.13,-153.42 372.78,-151.15 373.62,-158.1"/>
</g>
<!-- Node13 -->
<g id="node13" class="node">
<title>Node13</title>
<g id="a_node13"><a xlink:href="class_urho3_d_1_1_context.html#a7b5bd076e695054df7930255c3eee18b" target="_top" xlink:title="Remove event receiver from specific events.">
<polygon fill="white" stroke="#666666" points="526,-112.5 373,-112.5 373,-82.5 526,-82.5 526,-112.5"/>
<text text-anchor="start" x="381" y="-100.5" font-family="Roboto" font-size="10.00">Urho3D::Context::RemoveEvent</text>
<text text-anchor="middle" x="449.5" y="-89.5" font-family="Roboto" font-size="10.00">Receiver</text>
</a>
</g>
</g>
<!-- Node10&#45;&gt;Node13 -->
<g id="edge13" class="edge">
<title>Node10&#45;&gt;Node13</title>
<path fill="none" stroke="#63b8ff" d="M300.06,-152.12C320.8,-142.73 348.2,-130.79 373,-121.5 377.42,-119.84 382.01,-118.2 386.65,-116.6"/>
<polygon fill="#63b8ff" stroke="#63b8ff" points="387.7,-119.93 396.06,-113.42 385.46,-113.3 387.7,-119.93"/>
</g>
<!-- Node12 -->
<g id="node12" class="node">
<title>Node12</title>
<g id="a_node12"><a xlink:href="class_urho3_d_1_1_event_handler.html#ae09d06f06d3590e6f4e06006efa90176" target="_top" xlink:title="Return event type.">
<polygon fill="white" stroke="#666666" points="689.5,-160.5 576.5,-160.5 576.5,-130.5 689.5,-130.5 689.5,-160.5"/>
<text text-anchor="start" x="584.5" y="-148.5" font-family="Roboto" font-size="10.00">Urho3D::EventHandler</text>
<text text-anchor="middle" x="633" y="-137.5" font-family="Roboto" font-size="10.00">::GetEventType</text>
</a>
</g>
</g>
<!-- Node11&#45;&gt;Node12 -->
<g id="edge11" class="edge">
<title>Node11&#45;&gt;Node12</title>
<path fill="none" stroke="#63b8ff" d="M514.49,-145.5C530.83,-145.5 548.43,-145.5 564.92,-145.5"/>
<polygon fill="#63b8ff" stroke="#63b8ff" points="564.61,-149 574.61,-145.5 564.61,-142 564.61,-149"/>
</g>
<!-- Node14 -->
<g id="node14" class="node">
<title>Node14</title>
<g id="a_node14"><a xlink:href="class_urho3_d_1_1_context.html#a1b685db14efe388bbf40ec5c27bab7eb" target="_top" xlink:title="Return event receivers for a sender and event type, or null if they do not exist.">
<polygon fill="white" stroke="#666666" points="699,-112.5 567,-112.5 567,-82.5 699,-82.5 699,-112.5"/>
<text text-anchor="start" x="575" y="-100.5" font-family="Roboto" font-size="10.00">Urho3D::Context::GetEvent</text>
<text text-anchor="middle" x="633" y="-89.5" font-family="Roboto" font-size="10.00">Receivers</text>
</a>
</g>
</g>
<!-- Node13&#45;&gt;Node14 -->
<g id="edge14" class="edge">
<title>Node13&#45;&gt;Node14</title>
<path fill="none" stroke="#63b8ff" d="M526.42,-97.5C535.95,-97.5 545.71,-97.5 555.25,-97.5"/>
<polygon fill="#63b8ff" stroke="#63b8ff" points="555.24,-101 565.24,-97.5 555.24,-94 555.24,-101"/>
</g>
<!-- Node23 -->
<g id="node23" class="node">
<title>Node23</title>
<g id="a_node23"><a xlink:href="class_urho3_d_1_1_event_receiver_group.html#a3074ee82cc374a0a9145fe8847086022" target="_top" xlink:title="Remove receiver. Leave holes during send, which requires later cleanup.">
<polygon fill="white" stroke="#666666" points="704,-64.5 562,-64.5 562,-34.5 704,-34.5 704,-64.5"/>
<text text-anchor="start" x="570" y="-52.5" font-family="Roboto" font-size="10.00">Urho3D::EventReceiverGroup</text>
<text text-anchor="middle" x="633" y="-41.5" font-family="Roboto" font-size="10.00">::Remove</text>
</a>
</g>
</g>
<!-- Node13&#45;&gt;Node23 -->
<g id="edge24" class="edge">
<title>Node13&#45;&gt;Node23</title>
<path fill="none" stroke="#63b8ff" d="M508.93,-82.05C526.09,-77.51 545.03,-72.5 562.8,-67.8"/>
<polygon fill="#63b8ff" stroke="#63b8ff" points="563.45,-71.25 572.22,-65.31 561.66,-64.48 563.45,-71.25"/>
</g>
<!-- Node15 -->
<g id="node15" class="node">
<title>Node15</title>
<g id="a_node15"><a xlink:href="class_urho3_d_1_1_hash_map.html#a47eb201d8441d4e4be8626e615cb562d" target="_top" xlink:title="Return iterator to the end.">
<polygon fill="white" stroke="#666666" points="1029.5,-126 910.5,-126 910.5,-107 1029.5,-107 1029.5,-126"/>
<text text-anchor="middle" x="970" y="-114" font-family="Roboto" font-size="10.00">Urho3D::HashMap::End</text>
</a>
</g>
</g>
<!-- Node14&#45;&gt;Node15 -->
<g id="edge15" class="edge">
<title>Node14&#45;&gt;Node15</title>
<path fill="none" stroke="#63b8ff" d="M699.39,-101.21C756.78,-104.46 840.03,-109.19 898.81,-112.52"/>
<polygon fill="#63b8ff" stroke="#63b8ff" points="898.53,-116.01 908.71,-113.08 898.93,-109.02 898.53,-116.01"/>
</g>
<!-- Node17 -->
<g id="node17" class="node">
<title>Node17</title>
<g id="a_node17"><a xlink:href="class_urho3_d_1_1_hash_map.html#a9dc4e5c0ad1feb3eec2d2f1f1714698d" target="_top" xlink:title="Return iterator to the pair with key, or end iterator if not found.">
<polygon fill="white" stroke="#666666" points="861,-88 740,-88 740,-69 861,-69 861,-88"/>
<text text-anchor="middle" x="800.5" y="-76" font-family="Roboto" font-size="10.00">Urho3D::HashMap::Find</text>
</a>
</g>
</g>
<!-- Node14&#45;&gt;Node17 -->
<g id="edge17" class="edge">
<title>Node14&#45;&gt;Node17</title>
<path fill="none" stroke="#63b8ff" d="M699.41,-89.99C708.96,-88.89 718.82,-87.76 728.48,-86.65"/>
<polygon fill="#63b8ff" stroke="#63b8ff" points="728.63,-90.16 738.17,-85.54 727.84,-83.2 728.63,-90.16"/>
</g>
<!-- Node16 -->
<g id="node16" class="node">
<title>Node16</title>
<g id="a_node16"><a xlink:href="class_urho3_d_1_1_hash_map.html#ac7ee3646e27a2a7710ab5786cb0b7c73" target="_top" xlink:title="Return the tail node.">
<polygon fill="white" stroke="#666666" points="1218,-142 1101,-142 1101,-123 1218,-123 1218,-142"/>
<text text-anchor="middle" x="1159.5" y="-130" font-family="Roboto" font-size="10.00">Urho3D::HashMap::Tail</text>
</a>
</g>
</g>
<!-- Node15&#45;&gt;Node16 -->
<g id="edge16" class="edge">
<title>Node15&#45;&gt;Node16</title>
<path fill="none" stroke="#63b8ff" d="M1029.81,-121.52C1048.67,-123.13 1069.72,-124.92 1089.25,-126.59"/>
<polygon fill="#63b8ff" stroke="#63b8ff" points="1088.77,-130.06 1099.03,-127.43 1089.37,-123.09 1088.77,-130.06"/>
</g>
<!-- Node17&#45;&gt;Node15 -->
<g id="edge18" class="edge">
<title>Node17&#45;&gt;Node15</title>
<path fill="none" stroke="#63b8ff" d="M845.51,-88.48C866.49,-93.24 891.8,-98.99 914.03,-104.03"/>
<polygon fill="#63b8ff" stroke="#63b8ff" points="912.99,-107.38 923.52,-106.18 914.54,-100.56 912.99,-107.38"/>
</g>
<!-- Node18 -->
<g id="node18" class="node">
<title>Node18</title>
<g id="a_node18"><a xlink:href="class_urho3_d_1_1_hash_map.html#a85f871cbe77f2d780e1a169f19936ad8" target="_top" xlink:title="Find a node from the buckets. Do not call if the buckets have not been allocated.">
<polygon fill="white" stroke="#666666" points="1043,-88 897,-88 897,-69 1043,-69 1043,-88"/>
<text text-anchor="middle" x="970" y="-76" font-family="Roboto" font-size="10.00">Urho3D::HashMap::FindNode</text>
</a>
</g>
</g>
<!-- Node17&#45;&gt;Node18 -->
<g id="edge19" class="edge">
<title>Node17&#45;&gt;Node18</title>
<path fill="none" stroke="#63b8ff" d="M861.5,-78.5C869.22,-78.5 877.23,-78.5 885.25,-78.5"/>
<polygon fill="#63b8ff" stroke="#63b8ff" points="885.03,-82 895.03,-78.5 885.03,-75 885.03,-82"/>
</g>
<!-- Node21 -->
<g id="node21" class="node">
<title>Node21</title>
<g id="a_node21"><a xlink:href="class_urho3_d_1_1_hash_map.html#a6baa78766271c323b914fd2e6ca70c66" target="_top" xlink:title="Compute a hash based on the key and the bucket size.">
<polygon fill="white" stroke="#666666" points="1032.5,-40 907.5,-40 907.5,-21 1032.5,-21 1032.5,-40"/>
<text text-anchor="middle" x="970" y="-28" font-family="Roboto" font-size="10.00">Urho3D::HashMap::Hash</text>
</a>
</g>
</g>
<!-- Node17&#45;&gt;Node21 -->
<g id="edge22" class="edge">
<title>Node17&#45;&gt;Node21</title>
<path fill="none" stroke="#63b8ff" d="M836.21,-68.55C861.47,-61.31 895.93,-51.44 923.42,-43.56"/>
<polygon fill="#63b8ff" stroke="#63b8ff" points="924.23,-46.97 932.88,-40.85 922.31,-40.24 924.23,-46.97"/>
</g>
<!-- Node19 -->
<g id="node19" class="node">
<title>Node19</title>
<g id="a_node19"><a xlink:href="struct_urho3_d_1_1_hash_map_1_1_node.html#a5b917a49ae9df7b89215e8808db681da" target="_top" xlink:title="Return next node in the bucket.">
<polygon fill="white" stroke="#666666" points="1223,-104.5 1096,-104.5 1096,-74.5 1223,-74.5 1223,-104.5"/>
<text text-anchor="start" x="1104" y="-92.5" font-family="Roboto" font-size="10.00">Urho3D::HashMap::Node</text>
<text text-anchor="middle" x="1159.5" y="-81.5" font-family="Roboto" font-size="10.00">::Down</text>
</a>
</g>
</g>
<!-- Node18&#45;&gt;Node19 -->
<g id="edge20" class="edge">
<title>Node18&#45;&gt;Node19</title>
<path fill="none" stroke="#63b8ff" d="M1043.49,-82.75C1056.94,-83.54 1071,-84.37 1084.49,-85.16"/>
<polygon fill="#63b8ff" stroke="#63b8ff" points="1083.96,-88.63 1094.15,-85.72 1084.37,-81.64 1083.96,-88.63"/>
</g>
<!-- Node20 -->
<g id="node20" class="node">
<title>Node20</title>
<g id="a_node20"><a xlink:href="class_urho3_d_1_1_hash_base.html#ab2e9d0c50ac79b0a7eccd15b096745e9" target="_top" xlink:title="Return bucket head pointers.">
<polygon fill="white" stroke="#666666" points="1221,-56 1098,-56 1098,-37 1221,-37 1221,-56"/>
<text text-anchor="middle" x="1159.5" y="-44" font-family="Roboto" font-size="10.00">Urho3D::HashBase::Ptrs</text>
</a>
</g>
</g>
<!-- Node18&#45;&gt;Node20 -->
<g id="edge21" class="edge">
<title>Node18&#45;&gt;Node20</title>
<path fill="none" stroke="#63b8ff" d="M1029.55,-68.51C1048.33,-65.3 1069.3,-61.72 1088.79,-58.4"/>
<polygon fill="#63b8ff" stroke="#63b8ff" points="1089.31,-61.86 1098.57,-56.73 1088.13,-54.96 1089.31,-61.86"/>
</g>
<!-- Node22 -->
<g id="node22" class="node">
<title>Node22</title>
<g id="a_node22"><a xlink:href="class_urho3_d_1_1_hash_base.html#af0f242c3642f60dc7cf69f3b7d24fa11" target="_top" xlink:title="Return number of buckets.">
<polygon fill="white" stroke="#666666" points="1240,-19 1079,-19 1079,0 1240,0 1240,-19"/>
<text text-anchor="middle" x="1159.5" y="-7" font-family="Roboto" font-size="10.00">Urho3D::HashBase::NumBuckets</text>
</a>
</g>
</g>
<!-- Node21&#45;&gt;Node22 -->
<g id="edge23" class="edge">
<title>Node21&#45;&gt;Node22</title>
<path fill="none" stroke="#63b8ff" d="M1032.91,-23.57C1043.99,-22.33 1055.74,-21.01 1067.43,-19.7"/>
<polygon fill="#63b8ff" stroke="#63b8ff" points="1067.54,-23.21 1077.09,-18.62 1066.76,-16.25 1067.54,-23.21"/>
</g>
</g>
</svg>
