<?xml version="1.0" encoding="UTF-8" standalone="no"?>
<!DOCTYPE svg PUBLIC "-//W3C//DTD SVG 1.1//EN"
 "http://www.w3.org/Graphics/SVG/1.1/DTD/svg11.dtd">
<!-- Generated by graphviz version 7.0.3 (0)
 -->
<!-- Title: Urho3D::Texture2D::Release Pages: 1 -->
<svg width="532pt" height="110pt"
 viewBox="0.00 0.00 532.00 110.00" xmlns="http://www.w3.org/2000/svg" xmlns:xlink="http://www.w3.org/1999/xlink">
<g id="graph0" class="graph" transform="scale(1 1) rotate(0) translate(4 106)">
<title>Urho3D::Texture2D::Release</title>
<!-- Node1 -->
<g id="node1" class="node">
<title>Node1</title>
<g id="a_node1"><a xlink:title="Release the texture.">
<polygon fill="#999999" stroke="#666666" points="524,-54 420,-54 420,-24 524,-24 524,-54"/>
<text text-anchor="start" x="428" y="-42" font-family="Roboto" font-size="10.00">Urho3D::Texture2D::</text>
<text text-anchor="middle" x="472" y="-31" font-family="Roboto" font-size="10.00">Release</text>
</a>
</g>
</g>
<!-- Node2 -->
<g id="node2" class="node">
<title>Node2</title>
<g id="a_node2"><a xlink:href="class_urho3_d_1_1_texture2_d.html#af44c92053b2781a67a0330a4f72927c8" target="_top" xlink:title="Create the GPU texture.">
<polygon fill="white" stroke="#666666" points="384,-78 280,-78 280,-48 384,-48 384,-78"/>
<text text-anchor="start" x="288" y="-66" font-family="Roboto" font-size="10.00">Urho3D::Texture2D::</text>
<text text-anchor="middle" x="332" y="-55" font-family="Roboto" font-size="10.00">Create</text>
</a>
</g>
</g>
<!-- Node1&#45;&gt;Node2 -->
<g id="edge1" class="edge">
<title>Node1&#45;&gt;Node2</title>
<path fill="none" stroke="#63b8ff" d="M408.4,-49.89C400.38,-51.28 392.24,-52.7 384.43,-54.06"/>
<polygon fill="#63b8ff" stroke="#63b8ff" points="408.87,-53.36 418.12,-48.2 407.67,-46.46 408.87,-53.36"/>
</g>
<!-- Node6 -->
<g id="node6" class="node">
<title>Node6</title>
<g id="a_node6"><a xlink:href="class_urho3_d_1_1_texture2_d.html#a14ce4883955ed6ca4f47c1b4540e5cc5" target="_top" xlink:title="Destruct.">
<polygon fill="white" stroke="#666666" points="384,-30 280,-30 280,0 384,0 384,-30"/>
<text text-anchor="start" x="288" y="-18" font-family="Roboto" font-size="10.00">Urho3D::Texture2D::</text>
<text text-anchor="middle" x="332" y="-7" font-family="Roboto" font-size="10.00">~Texture2D</text>
</a>
</g>
</g>
<!-- Node1&#45;&gt;Node6 -->
<g id="edge5" class="edge">
<title>Node1&#45;&gt;Node6</title>
<path fill="none" stroke="#63b8ff" d="M408.4,-28.11C400.38,-26.72 392.24,-25.3 384.43,-23.94"/>
<polygon fill="#63b8ff" stroke="#63b8ff" points="407.67,-31.54 418.12,-29.8 408.87,-24.64 407.67,-31.54"/>
</g>
<!-- Node3 -->
<g id="node3" class="node">
<title>Node3</title>
<g id="a_node3"><a xlink:href="class_urho3_d_1_1_texture2_d.html#a33171ff6dd10f3f10131116e986295fe" target="_top" xlink:title="Recreate the GPU resource and restore data if applicable.">
<polygon fill="white" stroke="#666666" points="244,-102 140,-102 140,-72 244,-72 244,-102"/>
<text text-anchor="start" x="148" y="-90" font-family="Roboto" font-size="10.00">Urho3D::Texture2D::</text>
<text text-anchor="middle" x="192" y="-79" font-family="Roboto" font-size="10.00">OnDeviceReset</text>
</a>
</g>
</g>
<!-- Node2&#45;&gt;Node3 -->
<g id="edge2" class="edge">
<title>Node2&#45;&gt;Node3</title>
<path fill="none" stroke="#63b8ff" d="M268.4,-73.89C260.38,-75.28 252.24,-76.7 244.43,-78.06"/>
<polygon fill="#63b8ff" stroke="#63b8ff" points="268.87,-77.36 278.12,-72.2 267.67,-70.46 268.87,-77.36"/>
</g>
<!-- Node4 -->
<g id="node4" class="node">
<title>Node4</title>
<g id="a_node4"><a xlink:href="class_urho3_d_1_1_texture2_d.html#ac23d2cf909c7fd12140d57dff1decb57" target="_top" xlink:title="Set size, format, usage and multisampling parameters for rendertargets. Zero size will follow applica...">
<polygon fill="white" stroke="#666666" points="244,-54 140,-54 140,-24 244,-24 244,-54"/>
<text text-anchor="start" x="148" y="-42" font-family="Roboto" font-size="10.00">Urho3D::Texture2D::</text>
<text text-anchor="middle" x="192" y="-31" font-family="Roboto" font-size="10.00">SetSize</text>
</a>
</g>
</g>
<!-- Node2&#45;&gt;Node4 -->
<g id="edge3" class="edge">
<title>Node2&#45;&gt;Node4</title>
<path fill="none" stroke="#63b8ff" d="M268.4,-52.11C260.38,-50.72 252.24,-49.3 244.43,-47.94"/>
<polygon fill="#63b8ff" stroke="#63b8ff" points="267.67,-55.54 278.12,-53.8 268.87,-48.64 267.67,-55.54"/>
</g>
<!-- Node5 -->
<g id="node5" class="node">
<title>Node5</title>
<g id="a_node5"><a xlink:href="class_urho3_d_1_1_texture2_d.html#ab49167ad05742f9610fd938c2f9f29ce" target="_top" xlink:title="Set data from an image. Return true if successful. Optionally make a single channel image alpha&#45;only.">
<polygon fill="white" stroke="#666666" points="104,-54 0,-54 0,-24 104,-24 104,-54"/>
<text text-anchor="start" x="8" y="-42" font-family="Roboto" font-size="10.00">Urho3D::Texture2D::</text>
<text text-anchor="middle" x="52" y="-31" font-family="Roboto" font-size="10.00">SetData</text>
</a>
</g>
</g>
<!-- Node4&#45;&gt;Node5 -->
<g id="edge4" class="edge">
<title>Node4&#45;&gt;Node5</title>
<path fill="none" stroke="#63b8ff" d="M128.12,-39C120.19,-39 112.15,-39 104.43,-39"/>
<polygon fill="#63b8ff" stroke="#63b8ff" points="128.1,-42.5 138.1,-39 128.1,-35.5 128.1,-42.5"/>
</g>
</g>
</svg>
