<?xml version="1.0" encoding="UTF-8" standalone="no"?>
<!DOCTYPE svg PUBLIC "-//W3C//DTD SVG 1.1//EN"
 "http://www.w3.org/Graphics/SVG/1.1/DTD/svg11.dtd">
<!-- Generated by graphviz version 7.0.3 (0)
 -->
<!-- Title: Urho3D::Menu::GetPopup Pages: 1 -->
<svg width="838pt" height="124pt"
 viewBox="0.00 0.00 838.00 123.50" xmlns="http://www.w3.org/2000/svg" xmlns:xlink="http://www.w3.org/1999/xlink">
<g id="graph0" class="graph" transform="scale(1 1) rotate(0) translate(4 119.5)">
<title>Urho3D::Menu::GetPopup</title>
<!-- Node1 -->
<g id="node1" class="node">
<title>Node1</title>
<g id="a_node1"><a xlink:title=" ">
<polygon fill="#999999" stroke="#666666" points="830,-62 703,-62 703,-43 830,-43 830,-62"/>
<text text-anchor="middle" x="766.5" y="-50" font-family="Roboto" font-size="10.00">Urho3D::Menu::GetPopup</text>
</a>
</g>
</g>
<!-- Node2 -->
<g id="node2" class="node">
<title>Node2</title>
<g id="a_node2"><a xlink:href="class_urho3_d_1_1_console.html#aa78240b2be979065acb6b3dd39a71bba" target="_top" xlink:title="Populate the command line interpreters that could handle the console command.">
<polygon fill="white" stroke="#666666" points="667,-67.5 533,-67.5 533,-37.5 667,-37.5 667,-67.5"/>
<text text-anchor="start" x="541" y="-55.5" font-family="Roboto" font-size="10.00">Urho3D::Console::Populate</text>
<text text-anchor="middle" x="600" y="-44.5" font-family="Roboto" font-size="10.00">Interpreter</text>
</a>
</g>
</g>
<!-- Node1&#45;&gt;Node2 -->
<g id="edge1" class="edge">
<title>Node1&#45;&gt;Node2</title>
<path fill="none" stroke="#63b8ff" d="M691.53,-52.5C683.46,-52.5 675.29,-52.5 667.32,-52.5"/>
<polygon fill="#63b8ff" stroke="#63b8ff" points="691.33,-56 701.33,-52.5 691.33,-49 691.33,-56"/>
</g>
<!-- Node3 -->
<g id="node3" class="node">
<title>Node3</title>
<g id="a_node3"><a xlink:href="class_urho3_d_1_1_console.html#a1326b059443a666f16fbe89cb000c662" target="_top" xlink:title=" ">
<polygon fill="white" stroke="#666666" points="497,-62 358,-62 358,-43 497,-43 497,-62"/>
<text text-anchor="middle" x="427.5" y="-50" font-family="Roboto" font-size="10.00">Urho3D::Console::SetVisible</text>
</a>
</g>
</g>
<!-- Node2&#45;&gt;Node3 -->
<g id="edge2" class="edge">
<title>Node2&#45;&gt;Node3</title>
<path fill="none" stroke="#63b8ff" d="M521.33,-52.5C513.3,-52.5 505.18,-52.5 497.26,-52.5"/>
<polygon fill="#63b8ff" stroke="#63b8ff" points="521.08,-56 531.08,-52.5 521.08,-49 521.08,-56"/>
</g>
<!-- Node4 -->
<g id="node4" class="node">
<title>Node4</title>
<g id="a_node4"><a xlink:href="class_urho3_d_1_1_console.html#a2da5b84e5872cbe7df7a7d5491eb09bd" target="_top" xlink:title="Handle close button being pressed.">
<polygon fill="white" stroke="#666666" points="322,-115.5 169,-115.5 169,-85.5 322,-85.5 322,-115.5"/>
<text text-anchor="start" x="177" y="-103.5" font-family="Roboto" font-size="10.00">Urho3D::Console::HandleClose</text>
<text text-anchor="middle" x="245.5" y="-92.5" font-family="Roboto" font-size="10.00">ButtonPressed</text>
</a>
</g>
</g>
<!-- Node3&#45;&gt;Node4 -->
<g id="edge3" class="edge">
<title>Node3&#45;&gt;Node4</title>
<path fill="none" stroke="#63b8ff" d="M378.11,-65.4C355.38,-71.46 328.12,-78.74 304.31,-85.08"/>
<polygon fill="#63b8ff" stroke="#63b8ff" points="378.98,-68.79 387.74,-62.84 377.18,-62.03 378.98,-68.79"/>
</g>
<!-- Node6 -->
<g id="node6" class="node">
<title>Node6</title>
<g id="a_node6"><a xlink:href="class_urho3_d_1_1_console.html#a20b0b2076b279c2fcb8ac02257c63722" target="_top" xlink:title="Handle a log message.">
<polygon fill="white" stroke="#666666" points="317.5,-67.5 173.5,-67.5 173.5,-37.5 317.5,-37.5 317.5,-67.5"/>
<text text-anchor="start" x="181.5" y="-55.5" font-family="Roboto" font-size="10.00">Urho3D::Console::HandleLog</text>
<text text-anchor="middle" x="245.5" y="-44.5" font-family="Roboto" font-size="10.00">Message</text>
</a>
</g>
</g>
<!-- Node3&#45;&gt;Node6 -->
<g id="edge5" class="edge">
<title>Node3&#45;&gt;Node6</title>
<path fill="none" stroke="#63b8ff" d="M346.28,-52.5C336.85,-52.5 327.27,-52.5 317.97,-52.5"/>
<polygon fill="#63b8ff" stroke="#63b8ff" points="346.17,-56 356.17,-52.5 346.17,-49 346.17,-56"/>
</g>
<!-- Node7 -->
<g id="node7" class="node">
<title>Node7</title>
<g id="a_node7"><a xlink:href="class_urho3_d_1_1_console.html#a62a7add1a0c2dab1f2b0ed01691fed27" target="_top" xlink:title="Toggle visibility.">
<polygon fill="white" stroke="#666666" points="308,-19 183,-19 183,0 308,0 308,-19"/>
<text text-anchor="middle" x="245.5" y="-7" font-family="Roboto" font-size="10.00">Urho3D::Console::Toggle</text>
</a>
</g>
</g>
<!-- Node3&#45;&gt;Node7 -->
<g id="edge7" class="edge">
<title>Node3&#45;&gt;Node7</title>
<path fill="none" stroke="#63b8ff" d="M373.84,-39.92C346.6,-33.41 313.82,-25.58 288.33,-19.49"/>
<polygon fill="#63b8ff" stroke="#63b8ff" points="372.74,-43.26 383.28,-42.18 374.37,-36.45 372.74,-43.26"/>
</g>
<!-- Node5 -->
<g id="node5" class="node">
<title>Node5</title>
<g id="a_node5"><a xlink:href="class_urho3_d_1_1_console.html#afa65f6eacc596b544de5b0c3bc1a3d55" target="_top" xlink:title="Construct.">
<polygon fill="white" stroke="#666666" points="133,-86 0,-86 0,-67 133,-67 133,-86"/>
<text text-anchor="middle" x="66.5" y="-74" font-family="Roboto" font-size="10.00">Urho3D::Console::Console</text>
</a>
</g>
</g>
<!-- Node4&#45;&gt;Node5 -->
<g id="edge4" class="edge">
<title>Node4&#45;&gt;Node5</title>
<path fill="none" stroke="#63b8ff" d="M157.33,-88.68C149.29,-87.59 141.23,-86.5 133.42,-85.44"/>
<polygon fill="#63b8ff" stroke="#63b8ff" points="156.79,-92.14 167.17,-90.01 157.73,-85.2 156.79,-92.14"/>
</g>
<!-- Node6&#45;&gt;Node5 -->
<g id="edge6" class="edge">
<title>Node6&#45;&gt;Node5</title>
<path fill="none" stroke="#63b8ff" d="M161.83,-63.71C152.24,-65.01 142.56,-66.32 133.24,-67.59"/>
<polygon fill="#63b8ff" stroke="#63b8ff" points="162.08,-67.21 171.52,-62.4 161.14,-60.27 162.08,-67.21"/>
</g>
</g>
</svg>
