<?xml version="1.0" encoding="UTF-8" standalone="no"?>
<!DOCTYPE svg PUBLIC "-//W3C//DTD SVG 1.1//EN"
 "http://www.w3.org/Graphics/SVG/1.1/DTD/svg11.dtd">
<!-- Generated by graphviz version 7.0.3 (0)
 -->
<!-- Title: Urho3D::RenderSurface::GetLinkedRenderTarget Pages: 1 -->
<svg width="665pt" height="51pt"
 viewBox="0.00 0.00 665.00 50.50" xmlns="http://www.w3.org/2000/svg" xmlns:xlink="http://www.w3.org/1999/xlink">
<g id="graph0" class="graph" transform="scale(1 1) rotate(0) translate(4 46.5)">
<title>Urho3D::RenderSurface::GetLinkedRenderTarget</title>
<!-- Node1 -->
<g id="node1" class="node">
<title>Node1</title>
<g id="a_node1"><a xlink:title=" ">
<polygon fill="#999999" stroke="#666666" points="657,-30 533,-30 533,0 657,0 657,-30"/>
<text text-anchor="start" x="541" y="-18" font-family="Roboto" font-size="10.00">Urho3D::RenderSurface</text>
<text text-anchor="middle" x="595" y="-7" font-family="Roboto" font-size="10.00">::GetLinkedRenderTarget</text>
</a>
</g>
</g>
<!-- Node2 -->
<g id="node2" class="node">
<title>Node2</title>
<g id="a_node2"><a xlink:href="class_urho3_d_1_1_view.html#ae7e6e47346e5ff4346eb8cb251e013ef" target="_top" xlink:title="Render a shadow map.">
<polygon fill="white" stroke="#666666" points="497,-24.5 330,-24.5 330,-5.5 497,-5.5 497,-24.5"/>
<text text-anchor="middle" x="413.5" y="-12.5" font-family="Roboto" font-size="10.00">Urho3D::View::RenderShadowMap</text>
</a>
</g>
</g>
<!-- Node1&#45;&gt;Node2 -->
<g id="edge1" class="edge">
<title>Node1&#45;&gt;Node2</title>
<path fill="none" stroke="#63b8ff" d="M521.34,-15C513.46,-15 505.39,-15 497.4,-15"/>
<polygon fill="#63b8ff" stroke="#63b8ff" points="521.21,-18.5 531.21,-15 521.21,-11.5 521.21,-18.5"/>
</g>
<!-- Node2&#45;&gt;Node2 -->
<g id="edge4" class="edge">
<title>Node2&#45;&gt;Node2</title>
<path fill="none" stroke="#63b8ff" d="M446.04,-35.6C442.29,-39.63 431.45,-42.5 413.5,-42.5 381.6,-42.5 372.12,-33.44 385.09,-24.87"/>
<polygon fill="#63b8ff" stroke="#63b8ff" points="449.32,-34.36 442.46,-26.28 442.78,-36.87 449.32,-34.36"/>
</g>
<!-- Node3 -->
<g id="node3" class="node">
<title>Node3</title>
<g id="a_node3"><a xlink:href="class_urho3_d_1_1_view.html#a2dd8e9237f495ba4ec4a69b195988cfa" target="_top" xlink:title="Execute render commands.">
<polygon fill="white" stroke="#666666" points="294,-30 148,-30 148,0 294,0 294,-30"/>
<text text-anchor="start" x="156" y="-18" font-family="Roboto" font-size="10.00">Urho3D::View::ExecuteRender</text>
<text text-anchor="middle" x="221" y="-7" font-family="Roboto" font-size="10.00">PathCommands</text>
</a>
</g>
</g>
<!-- Node2&#45;&gt;Node3 -->
<g id="edge2" class="edge">
<title>Node2&#45;&gt;Node3</title>
<path fill="none" stroke="#63b8ff" d="M318.43,-15C310.38,-15 302.33,-15 294.49,-15"/>
<polygon fill="#63b8ff" stroke="#63b8ff" points="318.26,-18.5 328.26,-15 318.26,-11.5 318.26,-18.5"/>
</g>
<!-- Node4 -->
<g id="node4" class="node">
<title>Node4</title>
<g id="a_node4"><a xlink:href="class_urho3_d_1_1_view.html#a124582e02f0e82ba799467b20b162436" target="_top" xlink:title="Render batches.">
<polygon fill="white" stroke="#666666" points="112,-24.5 0,-24.5 0,-5.5 112,-5.5 112,-24.5"/>
<text text-anchor="middle" x="56" y="-12.5" font-family="Roboto" font-size="10.00">Urho3D::View::Render</text>
</a>
</g>
</g>
<!-- Node3&#45;&gt;Node4 -->
<g id="edge3" class="edge">
<title>Node3&#45;&gt;Node4</title>
<path fill="none" stroke="#63b8ff" d="M136.07,-15C127.94,-15 119.84,-15 112.1,-15"/>
<polygon fill="#63b8ff" stroke="#63b8ff" points="136.04,-18.5 146.04,-15 136.04,-11.5 136.04,-18.5"/>
</g>
</g>
</svg>
