<?xml version="1.0" encoding="UTF-8" standalone="no"?>
<!DOCTYPE svg PUBLIC "-//W3C//DTD SVG 1.1//EN"
 "http://www.w3.org/Graphics/SVG/1.1/DTD/svg11.dtd">
<!-- Generated by graphviz version 7.0.3 (0)
 -->
<!-- Title: Urho3D::Drawable::GetShadowDistance Pages: 1 -->
<svg width="1196pt" height="425pt"
 viewBox="0.00 0.00 1196.00 424.50" xmlns="http://www.w3.org/2000/svg" xmlns:xlink="http://www.w3.org/1999/xlink">
<g id="graph0" class="graph" transform="scale(1 1) rotate(0) translate(4 420.5)">
<title>Urho3D::Drawable::GetShadowDistance</title>
<!-- Node1 -->
<g id="node1" class="node">
<title>Node1</title>
<g id="a_node1"><a xlink:title=" ">
<polygon fill="#999999" stroke="#666666" points="1188,-212 1037,-212 1037,-182 1188,-182 1188,-212"/>
<text text-anchor="start" x="1045" y="-200" font-family="Roboto" font-size="10.00">Urho3D::Drawable::GetShadow</text>
<text text-anchor="middle" x="1112.5" y="-189" font-family="Roboto" font-size="10.00">Distance</text>
</a>
</g>
</g>
<!-- Node2 -->
<g id="node2" class="node">
<title>Node2</title>
<g id="a_node2"><a xlink:href="struct_urho3_d_1_1_batch.html#ad8794a08ef43585f0c54aebf11f39e11" target="_top" xlink:title="Prepare for rendering.">
<polygon fill="white" stroke="#666666" points="983.5,-383.5 866.5,-383.5 866.5,-364.5 983.5,-364.5 983.5,-383.5"/>
<text text-anchor="middle" x="925" y="-371.5" font-family="Roboto" font-size="10.00">Urho3D::Batch::Prepare</text>
</a>
</g>
</g>
<!-- Node1&#45;&gt;Node2 -->
<g id="edge1" class="edge">
<title>Node1&#45;&gt;Node2</title>
<path fill="none" stroke="#63b8ff" d="M1099.8,-222.07C1082.74,-255.94 1047.91,-315.98 1001,-350 992.7,-356.02 982.83,-360.57 973.01,-364"/>
<polygon fill="#63b8ff" stroke="#63b8ff" points="1102.78,-223.94 1104.04,-213.42 1096.49,-220.86 1102.78,-223.94"/>
</g>
<!-- Node9 -->
<g id="node9" class="node">
<title>Node9</title>
<g id="a_node9"><a xlink:href="class_urho3_d_1_1_view.html#a8386e461553bac5a6b4512b8a9712e79" target="_top" xlink:title="Query for lit geometries and shadow casters for a light.">
<polygon fill="white" stroke="#666666" points="813,-321.5 676,-321.5 676,-302.5 813,-302.5 813,-321.5"/>
<text text-anchor="middle" x="744.5" y="-309.5" font-family="Roboto" font-size="10.00">Urho3D::View::ProcessLight</text>
</a>
</g>
</g>
<!-- Node1&#45;&gt;Node9 -->
<g id="edge11" class="edge">
<title>Node1&#45;&gt;Node9</title>
<path fill="none" stroke="#63b8ff" d="M1097.43,-221.93C1079.4,-251.03 1045.12,-297.65 1001,-317 928.68,-348.72 833.4,-333.91 782.06,-321.94"/>
<polygon fill="#63b8ff" stroke="#63b8ff" points="1100.41,-223.75 1102.55,-213.38 1094.41,-220.16 1100.41,-223.75"/>
</g>
<!-- Node10 -->
<g id="node10" class="node">
<title>Node10</title>
<g id="a_node10"><a xlink:href="class_urho3_d_1_1_view.html#a7d398cea4906919b033f5fc86f67d764" target="_top" xlink:title="Process shadow casters&#39; visibilities and build their combined view&#45; or projection&#45;space bounding box.">
<polygon fill="white" stroke="#666666" points="1001,-308 849,-308 849,-278 1001,-278 1001,-308"/>
<text text-anchor="start" x="857" y="-296" font-family="Roboto" font-size="10.00">Urho3D::View::ProcessShadow</text>
<text text-anchor="middle" x="925" y="-285" font-family="Roboto" font-size="10.00">Casters</text>
</a>
</g>
</g>
<!-- Node1&#45;&gt;Node10 -->
<g id="edge12" class="edge">
<title>Node1&#45;&gt;Node10</title>
<path fill="none" stroke="#63b8ff" d="M1082.45,-219.03C1060.87,-234.61 1030.23,-255.11 1001,-269 994.46,-272.11 987.41,-274.96 980.34,-277.53"/>
<polygon fill="#63b8ff" stroke="#63b8ff" points="1084.47,-221.89 1090.47,-213.15 1080.34,-216.24 1084.47,-221.89"/>
</g>
<!-- Node11 -->
<g id="node11" class="node">
<title>Node11</title>
<g id="a_node11"><a xlink:href="class_urho3_d_1_1_animated_model.html#a76a01a86a9b1bcca181bfe91ae0e4a95" target="_top" xlink:title=" ">
<polygon fill="white" stroke="#666666" points="988,-260 862,-260 862,-230 988,-230 988,-260"/>
<text text-anchor="start" x="870" y="-248" font-family="Roboto" font-size="10.00">Urho3D::AnimatedModel</text>
<text text-anchor="middle" x="925" y="-237" font-family="Roboto" font-size="10.00">::RegisterObject</text>
</a>
</g>
</g>
<!-- Node1&#45;&gt;Node11 -->
<g id="edge14" class="edge">
<title>Node1&#45;&gt;Node11</title>
<path fill="none" stroke="#63b8ff" d="M1040.66,-215.33C1022.49,-220.03 1003.14,-225.04 985.6,-229.58"/>
<polygon fill="#63b8ff" stroke="#63b8ff" points="1041.52,-218.72 1050.32,-212.83 1039.76,-211.95 1041.52,-218.72"/>
</g>
<!-- Node12 -->
<g id="node12" class="node">
<title>Node12</title>
<g id="a_node12"><a xlink:href="class_urho3_d_1_1_billboard_set.html#abd9c58891183fd07f23f9fdfcec57527" target="_top" xlink:title=" ">
<polygon fill="white" stroke="#666666" points="978.5,-212 871.5,-212 871.5,-182 978.5,-182 978.5,-212"/>
<text text-anchor="start" x="879.5" y="-200" font-family="Roboto" font-size="10.00">Urho3D::BillboardSet</text>
<text text-anchor="middle" x="925" y="-189" font-family="Roboto" font-size="10.00">::RegisterObject</text>
</a>
</g>
</g>
<!-- Node1&#45;&gt;Node12 -->
<g id="edge15" class="edge">
<title>Node1&#45;&gt;Node12</title>
<path fill="none" stroke="#63b8ff" d="M1025.18,-197C1009.41,-197 993.4,-197 978.97,-197"/>
<polygon fill="#63b8ff" stroke="#63b8ff" points="1025.07,-200.5 1035.07,-197 1025.07,-193.5 1025.07,-200.5"/>
</g>
<!-- Node13 -->
<g id="node13" class="node">
<title>Node13</title>
<g id="a_node13"><a xlink:href="class_urho3_d_1_1_custom_geometry.html#adf40494db43b2ab2869faad887ddf8a4" target="_top" xlink:title=" ">
<polygon fill="white" stroke="#666666" points="992,-164 858,-164 858,-134 992,-134 992,-164"/>
<text text-anchor="start" x="866" y="-152" font-family="Roboto" font-size="10.00">Urho3D::CustomGeometry</text>
<text text-anchor="middle" x="925" y="-141" font-family="Roboto" font-size="10.00">::RegisterObject</text>
</a>
</g>
</g>
<!-- Node1&#45;&gt;Node13 -->
<g id="edge16" class="edge">
<title>Node1&#45;&gt;Node13</title>
<path fill="none" stroke="#63b8ff" d="M1040.66,-178.67C1022.49,-173.97 1003.14,-168.96 985.6,-164.42"/>
<polygon fill="#63b8ff" stroke="#63b8ff" points="1039.76,-182.05 1050.32,-181.17 1041.52,-175.28 1039.76,-182.05"/>
</g>
<!-- Node14 -->
<g id="node14" class="node">
<title>Node14</title>
<g id="a_node14"><a xlink:href="class_urho3_d_1_1_light.html#addf06c14a914ff91a084194c409a7917" target="_top" xlink:title=" ">
<polygon fill="white" stroke="#666666" points="997,-115.5 853,-115.5 853,-96.5 997,-96.5 997,-115.5"/>
<text text-anchor="middle" x="925" y="-103.5" font-family="Roboto" font-size="10.00">Urho3D::Light::RegisterObject</text>
</a>
</g>
</g>
<!-- Node1&#45;&gt;Node14 -->
<g id="edge17" class="edge">
<title>Node1&#45;&gt;Node14</title>
<path fill="none" stroke="#63b8ff" d="M1083.1,-174.72C1061.62,-158.83 1030.83,-138.06 1001,-125 992.88,-121.44 983.96,-118.46 975.2,-115.99"/>
<polygon fill="#63b8ff" stroke="#63b8ff" points="1080.97,-177.5 1091.06,-180.71 1085.18,-171.9 1080.97,-177.5"/>
</g>
<!-- Node15 -->
<g id="node15" class="node">
<title>Node15</title>
<g id="a_node15"><a xlink:href="class_urho3_d_1_1_particle_emitter.html#a866c84f59b51494573ee28e000523ede" target="_top" xlink:title=" ">
<polygon fill="white" stroke="#666666" points="985,-78 865,-78 865,-48 985,-48 985,-78"/>
<text text-anchor="start" x="873" y="-66" font-family="Roboto" font-size="10.00">Urho3D::ParticleEmitter</text>
<text text-anchor="middle" x="925" y="-55" font-family="Roboto" font-size="10.00">::RegisterObject</text>
</a>
</g>
</g>
<!-- Node1&#45;&gt;Node15 -->
<g id="edge18" class="edge">
<title>Node1&#45;&gt;Node15</title>
<path fill="none" stroke="#63b8ff" d="M1093,-172.74C1072.88,-147.91 1038.53,-109.82 1001,-87 995.63,-83.73 989.76,-80.86 983.76,-78.36"/>
<polygon fill="#63b8ff" stroke="#63b8ff" points="1090.09,-174.71 1099.05,-180.36 1095.58,-170.35 1090.09,-174.71"/>
</g>
<!-- Node16 -->
<g id="node16" class="node">
<title>Node16</title>
<g id="a_node16"><a xlink:href="class_urho3_d_1_1_static_model.html#aac7bd4f30d276bad34d0afd36dec5f6f" target="_top" xlink:title=" ">
<polygon fill="white" stroke="#666666" points="979,-30 871,-30 871,0 979,0 979,-30"/>
<text text-anchor="start" x="879" y="-18" font-family="Roboto" font-size="10.00">Urho3D::StaticModel</text>
<text text-anchor="middle" x="925" y="-7" font-family="Roboto" font-size="10.00">::RegisterObject</text>
</a>
</g>
</g>
<!-- Node1&#45;&gt;Node16 -->
<g id="edge19" class="edge">
<title>Node1&#45;&gt;Node16</title>
<path fill="none" stroke="#63b8ff" d="M1100.27,-171.64C1083.56,-136.76 1048.9,-74.3 1001,-39 994.51,-34.21 987.02,-30.36 979.35,-27.26"/>
<polygon fill="#63b8ff" stroke="#63b8ff" points="1097.02,-172.96 1104.42,-180.55 1103.37,-170.01 1097.02,-172.96"/>
</g>
<!-- Node3 -->
<g id="node3" class="node">
<title>Node3</title>
<g id="a_node3"><a xlink:href="struct_urho3_d_1_1_batch.html#add3a46f1fc8c0dd490d0cc965bec2e5b" target="_top" xlink:title="Prepare and draw.">
<polygon fill="white" stroke="#666666" points="798,-416.5 691,-416.5 691,-397.5 798,-397.5 798,-416.5"/>
<text text-anchor="middle" x="744.5" y="-404.5" font-family="Roboto" font-size="10.00">Urho3D::Batch::Draw</text>
</a>
</g>
</g>
<!-- Node2&#45;&gt;Node3 -->
<g id="edge2" class="edge">
<title>Node2&#45;&gt;Node3</title>
<path fill="none" stroke="#63b8ff" d="M858.82,-386.05C838.96,-389.72 817.38,-393.71 798.44,-397.21"/>
<polygon fill="#63b8ff" stroke="#63b8ff" points="859.27,-389.53 868.47,-384.27 858,-382.64 859.27,-389.53"/>
</g>
<!-- Node8 -->
<g id="node8" class="node">
<title>Node8</title>
<g id="a_node8"><a xlink:href="struct_urho3_d_1_1_batch_group.html#ae44c18517fde1462221ddc7c7a1b2cd4" target="_top" xlink:title="Prepare and draw.">
<polygon fill="white" stroke="#666666" points="797.5,-379 691.5,-379 691.5,-349 797.5,-349 797.5,-379"/>
<text text-anchor="start" x="699.5" y="-367" font-family="Roboto" font-size="10.00">Urho3D::BatchGroup</text>
<text text-anchor="middle" x="744.5" y="-356" font-family="Roboto" font-size="10.00">::Draw</text>
</a>
</g>
</g>
<!-- Node2&#45;&gt;Node8 -->
<g id="edge9" class="edge">
<title>Node2&#45;&gt;Node8</title>
<path fill="none" stroke="#63b8ff" d="M854.75,-370.12C835.79,-369.06 815.57,-367.93 797.74,-366.93"/>
<polygon fill="#63b8ff" stroke="#63b8ff" points="854.35,-373.6 864.53,-370.67 854.75,-366.61 854.35,-373.6"/>
</g>
<!-- Node4 -->
<g id="node4" class="node">
<title>Node4</title>
<g id="a_node4"><a xlink:href="struct_urho3_d_1_1_batch_queue.html#a9a3a0ba457231d2a75e65fe2a1d1d94c" target="_top" xlink:title="Draw.">
<polygon fill="white" stroke="#666666" points="640,-400 533,-400 533,-370 640,-370 640,-400"/>
<text text-anchor="start" x="541" y="-388" font-family="Roboto" font-size="10.00">Urho3D::BatchQueue</text>
<text text-anchor="middle" x="586.5" y="-377" font-family="Roboto" font-size="10.00">::Draw</text>
</a>
</g>
</g>
<!-- Node3&#45;&gt;Node4 -->
<g id="edge3" class="edge">
<title>Node3&#45;&gt;Node4</title>
<path fill="none" stroke="#63b8ff" d="M679.42,-397.96C666.39,-396.13 652.84,-394.21 640.26,-392.44"/>
<polygon fill="#63b8ff" stroke="#63b8ff" points="678.8,-401.41 689.19,-399.34 679.77,-394.48 678.8,-401.41"/>
</g>
<!-- Node5 -->
<g id="node5" class="node">
<title>Node5</title>
<g id="a_node5"><a xlink:href="class_urho3_d_1_1_view.html#a2dd8e9237f495ba4ec4a69b195988cfa" target="_top" xlink:title="Execute render commands.">
<polygon fill="white" stroke="#666666" points="294,-400 148,-400 148,-370 294,-370 294,-400"/>
<text text-anchor="start" x="156" y="-388" font-family="Roboto" font-size="10.00">Urho3D::View::ExecuteRender</text>
<text text-anchor="middle" x="221" y="-377" font-family="Roboto" font-size="10.00">PathCommands</text>
</a>
</g>
</g>
<!-- Node4&#45;&gt;Node5 -->
<g id="edge4" class="edge">
<title>Node4&#45;&gt;Node5</title>
<path fill="none" stroke="#63b8ff" d="M521.26,-392.3C513.1,-393 504.86,-393.6 497,-394 422.87,-397.76 404.16,-397.08 330,-394 318.44,-393.52 306.2,-392.75 294.27,-391.86"/>
<polygon fill="#63b8ff" stroke="#63b8ff" points="521.54,-395.79 531.18,-391.39 520.9,-388.82 521.54,-395.79"/>
</g>
<!-- Node7 -->
<g id="node7" class="node">
<title>Node7</title>
<g id="a_node7"><a xlink:href="class_urho3_d_1_1_view.html#ae7e6e47346e5ff4346eb8cb251e013ef" target="_top" xlink:title="Render a shadow map.">
<polygon fill="white" stroke="#666666" points="497,-366.5 330,-366.5 330,-347.5 497,-347.5 497,-366.5"/>
<text text-anchor="middle" x="413.5" y="-354.5" font-family="Roboto" font-size="10.00">Urho3D::View::RenderShadowMap</text>
</a>
</g>
</g>
<!-- Node4&#45;&gt;Node7 -->
<g id="edge6" class="edge">
<title>Node4&#45;&gt;Node7</title>
<path fill="none" stroke="#63b8ff" d="M521.48,-374.52C506.4,-372.05 490.36,-369.42 475.41,-366.97"/>
<polygon fill="#63b8ff" stroke="#63b8ff" points="520.87,-377.96 531.31,-376.13 522,-371.06 520.87,-377.96"/>
</g>
<!-- Node6 -->
<g id="node6" class="node">
<title>Node6</title>
<g id="a_node6"><a xlink:href="class_urho3_d_1_1_view.html#a124582e02f0e82ba799467b20b162436" target="_top" xlink:title="Render batches.">
<polygon fill="white" stroke="#666666" points="112,-394.5 0,-394.5 0,-375.5 112,-375.5 112,-394.5"/>
<text text-anchor="middle" x="56" y="-382.5" font-family="Roboto" font-size="10.00">Urho3D::View::Render</text>
</a>
</g>
</g>
<!-- Node5&#45;&gt;Node6 -->
<g id="edge5" class="edge">
<title>Node5&#45;&gt;Node6</title>
<path fill="none" stroke="#63b8ff" d="M136.07,-385C127.94,-385 119.84,-385 112.1,-385"/>
<polygon fill="#63b8ff" stroke="#63b8ff" points="136.04,-388.5 146.04,-385 136.04,-381.5 136.04,-388.5"/>
</g>
<!-- Node7&#45;&gt;Node5 -->
<g id="edge7" class="edge">
<title>Node7&#45;&gt;Node5</title>
<path fill="none" stroke="#63b8ff" d="M333.34,-368.64C320.46,-370.53 307.17,-372.48 294.46,-374.35"/>
<polygon fill="#63b8ff" stroke="#63b8ff" points="333.65,-372.13 343.03,-367.21 332.63,-365.2 333.65,-372.13"/>
</g>
<!-- Node7&#45;&gt;Node7 -->
<g id="edge8" class="edge">
<title>Node7&#45;&gt;Node7</title>
<path fill="none" stroke="#63b8ff" d="M444.52,-377.6C440.95,-381.63 430.61,-384.5 413.5,-384.5 383.09,-384.5 374.06,-375.44 386.42,-366.87"/>
<polygon fill="#63b8ff" stroke="#63b8ff" points="447.84,-376.47 441.11,-368.29 441.26,-378.88 447.84,-376.47"/>
</g>
<!-- Node8&#45;&gt;Node4 -->
<g id="edge10" class="edge">
<title>Node8&#45;&gt;Node4</title>
<path fill="none" stroke="#63b8ff" d="M679.77,-372.58C666.64,-374.35 652.96,-376.19 640.27,-377.9"/>
<polygon fill="#63b8ff" stroke="#63b8ff" points="680.18,-376.06 689.62,-371.25 679.24,-369.12 680.18,-376.06"/>
</g>
<!-- Node10&#45;&gt;Node9 -->
<g id="edge13" class="edge">
<title>Node10&#45;&gt;Node9</title>
<path fill="none" stroke="#63b8ff" d="M837.24,-302.23C829.2,-303.09 821.14,-303.95 813.31,-304.78"/>
<polygon fill="#63b8ff" stroke="#63b8ff" points="837.48,-305.73 847.05,-301.19 836.74,-298.77 837.48,-305.73"/>
</g>
</g>
</svg>
