<?xml version="1.0" encoding="UTF-8" standalone="no"?>
<!DOCTYPE svg PUBLIC "-//W3C//DTD SVG 1.1//EN"
 "http://www.w3.org/Graphics/SVG/1.1/DTD/svg11.dtd">
<!-- Generated by graphviz version 7.0.3 (0)
 -->
<!-- Title: Urho3D::ParticleEmitter2D::RegisterObject Pages: 1 -->
<svg width="973pt" height="632pt"
 viewBox="0.00 0.00 973.00 632.00" xmlns="http://www.w3.org/2000/svg" xmlns:xlink="http://www.w3.org/1999/xlink">
<g id="graph0" class="graph" transform="scale(1 1) rotate(0) translate(4 628)">
<title>Urho3D::ParticleEmitter2D::RegisterObject</title>
<!-- Node1 -->
<g id="node1" class="node">
<title>Node1</title>
<g id="a_node1"><a xlink:title=" ">
<polygon fill="#999999" stroke="#666666" points="125,-384 0,-384 0,-354 125,-354 125,-384"/>
<text text-anchor="start" x="8" y="-372" font-family="Roboto" font-size="10.00">Urho3D::ParticleEmitter2</text>
<text text-anchor="middle" x="62.5" y="-361" font-family="Roboto" font-size="10.00">D::RegisterObject</text>
</a>
</g>
</g>
<!-- Node2 -->
<g id="node2" class="node">
<title>Node2</title>
<g id="a_node2"><a xlink:href="class_urho3_d_1_1_particle_emitter2_d.html#a220d03b4b909b63d80d79d68d508d4be" target="_top" xlink:title=" ">
<polygon fill="white" stroke="#666666" points="288.5,-624 163.5,-624 163.5,-594 288.5,-594 288.5,-624"/>
<text text-anchor="start" x="171.5" y="-612" font-family="Roboto" font-size="10.00">Urho3D::ParticleEmitter2</text>
<text text-anchor="middle" x="226" y="-601" font-family="Roboto" font-size="10.00">D::GetBlendMode</text>
</a>
</g>
</g>
<!-- Node1&#45;&gt;Node2 -->
<g id="edge1" class="edge">
<title>Node1&#45;&gt;Node2</title>
<path fill="none" stroke="#63b8ff" d="M66.24,-384.44C73.95,-423.51 99.45,-527.34 161,-585 161.76,-585.71 162.54,-586.4 163.34,-587.07"/>
<polygon fill="#63b8ff" stroke="#63b8ff" points="161.15,-589.81 171.35,-592.64 165.14,-584.06 161.15,-589.81"/>
</g>
<!-- Node3 -->
<g id="node3" class="node">
<title>Node3</title>
<g id="a_node3"><a xlink:href="class_urho3_d_1_1_particle_emitter2_d.html#a88f14daf7f29e5e9a8d0cca6e039ea4b" target="_top" xlink:title="Return particle model attr.">
<polygon fill="white" stroke="#666666" points="288.5,-576 163.5,-576 163.5,-546 288.5,-546 288.5,-576"/>
<text text-anchor="start" x="171.5" y="-564" font-family="Roboto" font-size="10.00">Urho3D::ParticleEmitter2</text>
<text text-anchor="middle" x="226" y="-553" font-family="Roboto" font-size="10.00">D::GetParticleEffectAttr</text>
</a>
</g>
</g>
<!-- Node1&#45;&gt;Node3 -->
<g id="edge2" class="edge">
<title>Node1&#45;&gt;Node3</title>
<path fill="none" stroke="#63b8ff" d="M68.39,-384.32C79.57,-416.97 110.01,-493.89 161,-537 162.1,-537.93 163.23,-538.82 164.4,-539.68"/>
<polygon fill="#63b8ff" stroke="#63b8ff" points="162.29,-542.49 172.62,-544.84 166.01,-536.56 162.29,-542.49"/>
</g>
<!-- Node4 -->
<g id="node4" class="node">
<title>Node4</title>
<g id="a_node4"><a xlink:href="class_urho3_d_1_1_particle_emitter2_d.html#a1a8b7ee0018d8a863eedc478fac978e3" target="_top" xlink:title="Return sprite attribute.">
<polygon fill="white" stroke="#666666" points="288.5,-528 163.5,-528 163.5,-498 288.5,-498 288.5,-528"/>
<text text-anchor="start" x="171.5" y="-516" font-family="Roboto" font-size="10.00">Urho3D::ParticleEmitter2</text>
<text text-anchor="middle" x="226" y="-505" font-family="Roboto" font-size="10.00">D::GetSpriteAttr</text>
</a>
</g>
</g>
<!-- Node1&#45;&gt;Node4 -->
<g id="edge3" class="edge">
<title>Node1&#45;&gt;Node4</title>
<path fill="none" stroke="#63b8ff" d="M72.29,-384.47C87.37,-409.71 120.47,-459.84 161,-489 162.56,-490.12 164.17,-491.19 165.83,-492.22"/>
<polygon fill="#63b8ff" stroke="#63b8ff" points="163.95,-495.18 174.4,-496.92 167.31,-489.04 163.95,-495.18"/>
</g>
<!-- Node9 -->
<g id="node8" class="node">
<title>Node9</title>
<g id="a_node8"><a xlink:href="class_urho3_d_1_1_particle_emitter2_d.html#a96281d73dd7eb1444fafa21032a8f80b" target="_top" xlink:title=" ">
<polygon fill="white" stroke="#666666" points="288.5,-480 163.5,-480 163.5,-450 288.5,-450 288.5,-480"/>
<text text-anchor="start" x="171.5" y="-468" font-family="Roboto" font-size="10.00">Urho3D::ParticleEmitter2</text>
<text text-anchor="middle" x="226" y="-457" font-family="Roboto" font-size="10.00">D::IsEmitting</text>
</a>
</g>
</g>
<!-- Node1&#45;&gt;Node9 -->
<g id="edge7" class="edge">
<title>Node1&#45;&gt;Node9</title>
<path fill="none" stroke="#63b8ff" d="M81.17,-384.41C99.96,-400.22 131.04,-424.73 161,-441 163.51,-442.36 166.11,-443.68 168.77,-444.95"/>
<polygon fill="#63b8ff" stroke="#63b8ff" points="167.26,-448.11 177.82,-448.99 170.11,-441.72 167.26,-448.11"/>
</g>
<!-- Node10 -->
<g id="node9" class="node">
<title>Node10</title>
<g id="a_node9"><a xlink:href="class_urho3_d_1_1_component.html#a1cb9a868ec7bb3e46c37fbc91040cf95" target="_top" xlink:title=" ">
<polygon fill="white" stroke="#666666" points="281.5,-432 170.5,-432 170.5,-402 281.5,-402 281.5,-432"/>
<text text-anchor="start" x="178.5" y="-420" font-family="Roboto" font-size="10.00">Urho3D::Component::</text>
<text text-anchor="middle" x="226" y="-409" font-family="Roboto" font-size="10.00">IsEnabled</text>
</a>
</g>
</g>
<!-- Node1&#45;&gt;Node10 -->
<g id="edge8" class="edge">
<title>Node1&#45;&gt;Node10</title>
<path fill="none" stroke="#63b8ff" d="M115.49,-384.45C130.33,-388.86 146.66,-393.72 162.08,-398.3"/>
<polygon fill="#63b8ff" stroke="#63b8ff" points="161.08,-401.65 171.66,-401.15 163.07,-394.94 161.08,-401.65"/>
</g>
<!-- Node11 -->
<g id="node10" class="node">
<title>Node11</title>
<g id="a_node10"><a xlink:href="class_urho3_d_1_1_context.html#aa9b2cffef8d52fa18bfe533a2615a598" target="_top" xlink:title="Register a factory for an object type.">
<polygon fill="white" stroke="#666666" points="291,-384 161,-384 161,-354 291,-354 291,-384"/>
<text text-anchor="start" x="169" y="-372" font-family="Roboto" font-size="10.00">Urho3D::Context::Register</text>
<text text-anchor="middle" x="226" y="-361" font-family="Roboto" font-size="10.00">Factory</text>
</a>
</g>
</g>
<!-- Node1&#45;&gt;Node11 -->
<g id="edge9" class="edge">
<title>Node1&#45;&gt;Node11</title>
<path fill="none" stroke="#63b8ff" d="M125.48,-369C133.19,-369 141.14,-369 149.03,-369"/>
<polygon fill="#63b8ff" stroke="#63b8ff" points="149,-372.5 159,-369 149,-365.5 149,-372.5"/>
</g>
<!-- Node13 -->
<g id="node12" class="node">
<title>Node13</title>
<g id="a_node12"><a xlink:href="class_urho3_d_1_1_particle_emitter2_d.html#ac363b1e439f40a7e480dcde8051a6b17" target="_top" xlink:title=" ">
<polygon fill="white" stroke="#666666" points="640,-298 515,-298 515,-268 640,-268 640,-298"/>
<text text-anchor="start" x="523" y="-286" font-family="Roboto" font-size="10.00">Urho3D::ParticleEmitter2</text>
<text text-anchor="middle" x="577.5" y="-275" font-family="Roboto" font-size="10.00">D::SetBlendMode</text>
</a>
</g>
</g>
<!-- Node1&#45;&gt;Node13 -->
<g id="edge11" class="edge">
<title>Node1&#45;&gt;Node13</title>
<path fill="none" stroke="#63b8ff" d="M121.51,-353.52C134.45,-350.4 148.14,-347.36 161,-345 297.09,-319.97 333.67,-330.68 470,-307 480.92,-305.1 492.42,-302.82 503.65,-300.42"/>
<polygon fill="#63b8ff" stroke="#63b8ff" points="504.26,-303.87 513.28,-298.33 502.77,-297.03 504.26,-303.87"/>
</g>
<!-- Node21 -->
<g id="node16" class="node">
<title>Node21</title>
<g id="a_node16"><a xlink:href="class_urho3_d_1_1_particle_emitter2_d.html#a634b2d6919efdf65b7aebdae831d2aa1" target="_top" xlink:title=" ">
<polygon fill="white" stroke="#666666" points="461,-164 336,-164 336,-134 461,-134 461,-164"/>
<text text-anchor="start" x="344" y="-152" font-family="Roboto" font-size="10.00">Urho3D::ParticleEmitter2</text>
<text text-anchor="middle" x="398.5" y="-141" font-family="Roboto" font-size="10.00">D::SetEmitting</text>
</a>
</g>
</g>
<!-- Node1&#45;&gt;Node21 -->
<g id="edge15" class="edge">
<title>Node1&#45;&gt;Node21</title>
<path fill="none" stroke="#63b8ff" d="M67.14,-353.7C76.3,-318.81 103.76,-233.18 161,-192 208.14,-158.09 273.92,-148.34 324.14,-146.5"/>
<polygon fill="#63b8ff" stroke="#63b8ff" points="324.15,-150 334.06,-146.25 323.97,-143.01 324.15,-150"/>
</g>
<!-- Node22 -->
<g id="node17" class="node">
<title>Node22</title>
<g id="a_node17"><a xlink:href="class_urho3_d_1_1_component.html#a84cc0be4504cc2234be4056ef7ffe976" target="_top" xlink:title=" ">
<polygon fill="white" stroke="#666666" points="633,-121 522,-121 522,-91 633,-91 633,-121"/>
<text text-anchor="start" x="530" y="-109" font-family="Roboto" font-size="10.00">Urho3D::Component::</text>
<text text-anchor="middle" x="577.5" y="-98" font-family="Roboto" font-size="10.00">SetEnabled</text>
</a>
</g>
</g>
<!-- Node1&#45;&gt;Node22 -->
<g id="edge17" class="edge">
<title>Node1&#45;&gt;Node22</title>
<path fill="none" stroke="#63b8ff" d="M65.11,-353.68C70.34,-312.41 90.79,-198.52 161,-146 263.29,-69.48 421.71,-79.38 510.47,-92.96"/>
<polygon fill="#63b8ff" stroke="#63b8ff" points="509.8,-96.4 520.23,-94.52 510.91,-89.48 509.8,-96.4"/>
</g>
<!-- Node38 -->
<g id="node21" class="node">
<title>Node38</title>
<g id="a_node21"><a xlink:href="class_urho3_d_1_1_particle_emitter2_d.html#a98bfbbf39e5ce791ab085c81d93bdb75" target="_top" xlink:title="Set particle model attr.">
<polygon fill="white" stroke="#666666" points="288.5,-231 163.5,-231 163.5,-201 288.5,-201 288.5,-231"/>
<text text-anchor="start" x="171.5" y="-219" font-family="Roboto" font-size="10.00">Urho3D::ParticleEmitter2</text>
<text text-anchor="middle" x="226" y="-208" font-family="Roboto" font-size="10.00">D::SetParticleEffectAttr</text>
</a>
</g>
</g>
<!-- Node1&#45;&gt;Node38 -->
<g id="edge24" class="edge">
<title>Node1&#45;&gt;Node38</title>
<path fill="none" stroke="#63b8ff" d="M75.03,-353.67C92.27,-331.34 126.42,-289.24 161,-259 169.77,-251.33 179.97,-243.91 189.61,-237.45"/>
<polygon fill="#63b8ff" stroke="#63b8ff" points="191.26,-240.56 197.73,-232.17 187.44,-234.69 191.26,-240.56"/>
</g>
<!-- Node44 -->
<g id="node24" class="node">
<title>Node44</title>
<g id="a_node24"><a xlink:href="class_urho3_d_1_1_particle_emitter2_d.html#a816e722733624c20cdd757bad70b4da6" target="_top" xlink:title="Set sprite attribute.">
<polygon fill="white" stroke="#666666" points="288.5,-298 163.5,-298 163.5,-268 288.5,-268 288.5,-298"/>
<text text-anchor="start" x="171.5" y="-286" font-family="Roboto" font-size="10.00">Urho3D::ParticleEmitter2</text>
<text text-anchor="middle" x="226" y="-275" font-family="Roboto" font-size="10.00">D::SetSpriteAttr</text>
</a>
</g>
</g>
<!-- Node1&#45;&gt;Node44 -->
<g id="edge31" class="edge">
<title>Node1&#45;&gt;Node44</title>
<path fill="none" stroke="#63b8ff" d="M88.35,-353.51C107.82,-341.61 135.75,-325.06 161,-312 166.76,-309.02 172.89,-306.03 178.99,-303.16"/>
<polygon fill="#63b8ff" stroke="#63b8ff" points="180.16,-306.47 187.77,-299.1 177.22,-300.12 180.16,-306.47"/>
</g>
<!-- Node5 -->
<g id="node5" class="node">
<title>Node5</title>
<g id="a_node5"><a xlink:href="class_urho3_d_1_1_sprite2_d.html#aec497ca2c4741b0a49efff1f6ec26e10" target="_top" xlink:title="Save sprite to ResourceRef.">
<polygon fill="#fff0f0" stroke="red" points="463,-528 334,-528 334,-498 463,-498 463,-528"/>
<text text-anchor="start" x="342" y="-516" font-family="Roboto" font-size="10.00">Urho3D::Sprite2D::SaveTo</text>
<text text-anchor="middle" x="398.5" y="-505" font-family="Roboto" font-size="10.00">ResourceRef</text>
</a>
</g>
</g>
<!-- Node4&#45;&gt;Node5 -->
<g id="edge4" class="edge">
<title>Node4&#45;&gt;Node5</title>
<path fill="none" stroke="#63b8ff" d="M288.55,-513C299.57,-513 311.16,-513 322.51,-513"/>
<polygon fill="#63b8ff" stroke="#63b8ff" points="322.23,-516.5 332.23,-513 322.23,-509.5 322.23,-516.5"/>
</g>
<!-- Node6 -->
<g id="node6" class="node">
<title>Node6</title>
<g id="a_node6"><a xlink:href="class_urho3_d_1_1_resource.html#aa6fcd2703fb5cb0e1cb6bb57b9590599" target="_top" xlink:title=" ">
<polygon fill="white" stroke="#666666" points="649,-500.5 506,-500.5 506,-481.5 649,-481.5 649,-500.5"/>
<text text-anchor="middle" x="577.5" y="-488.5" font-family="Roboto" font-size="10.00">Urho3D::Resource::GetName</text>
</a>
</g>
</g>
<!-- Node5&#45;&gt;Node6 -->
<g id="edge5" class="edge">
<title>Node5&#45;&gt;Node6</title>
<path fill="none" stroke="#63b8ff" d="M463.4,-505.06C473.51,-503.8 484.08,-502.49 494.53,-501.19"/>
<polygon fill="#63b8ff" stroke="#63b8ff" points="494.8,-504.68 504.3,-499.97 493.94,-497.73 494.8,-504.68"/>
</g>
<!-- Node7 -->
<g id="node7" class="node">
<title>Node7</title>
<g id="a_node7"><a xlink:href="class_urho3_d_1_1_sprite2_d.html#ad56a44c057ed1d0501759dee813fbad7" target="_top" xlink:title="Return sprite sheet.">
<polygon fill="white" stroke="#666666" points="646,-549 509,-549 509,-519 646,-519 646,-549"/>
<text text-anchor="start" x="517" y="-537" font-family="Roboto" font-size="10.00">Urho3D::Sprite2D::GetSprite</text>
<text text-anchor="middle" x="577.5" y="-526" font-family="Roboto" font-size="10.00">Sheet</text>
</a>
</g>
</g>
<!-- Node5&#45;&gt;Node7 -->
<g id="edge6" class="edge">
<title>Node5&#45;&gt;Node7</title>
<path fill="none" stroke="#63b8ff" d="M463.4,-520.58C474.39,-521.89 485.93,-523.25 497.27,-524.6"/>
<polygon fill="#63b8ff" stroke="#63b8ff" points="496.66,-528.05 507.01,-525.76 497.49,-521.1 496.66,-528.05"/>
</g>
<!-- Node12 -->
<g id="node11" class="node">
<title>Node12</title>
<g id="a_node11"><a xlink:href="class_urho3_d_1_1_object_factory.html#a191ee9fd0ce7c127dfd92b2b9ae47709" target="_top" xlink:title="Return type hash of objects created by this factory.">
<polygon fill="white" stroke="#666666" points="456.5,-384 340.5,-384 340.5,-354 456.5,-354 456.5,-384"/>
<text text-anchor="start" x="348.5" y="-372" font-family="Roboto" font-size="10.00">Urho3D::ObjectFactory</text>
<text text-anchor="middle" x="398.5" y="-361" font-family="Roboto" font-size="10.00">::GetType</text>
</a>
</g>
</g>
<!-- Node11&#45;&gt;Node12 -->
<g id="edge10" class="edge">
<title>Node11&#45;&gt;Node12</title>
<path fill="none" stroke="#63b8ff" d="M291.46,-369C303.73,-369 316.62,-369 329.01,-369"/>
<polygon fill="#63b8ff" stroke="#63b8ff" points="328.71,-372.5 338.71,-369 328.71,-365.5 328.71,-372.5"/>
</g>
<!-- Node14 -->
<g id="node13" class="node">
<title>Node14</title>
<g id="a_node13"><a xlink:href="class_urho3_d_1_1_component.html#aaf87acb64001774c62f0784254f9b291" target="_top" xlink:title="Mark for attribute check on the next network update.">
<polygon fill="#fff0f0" stroke="red" points="807,-220 696,-220 696,-190 807,-190 807,-220"/>
<text text-anchor="start" x="704" y="-208" font-family="Roboto" font-size="10.00">Urho3D::Component::</text>
<text text-anchor="middle" x="751.5" y="-197" font-family="Roboto" font-size="10.00">MarkNetworkUpdate</text>
</a>
</g>
</g>
<!-- Node13&#45;&gt;Node14 -->
<g id="edge12" class="edge">
<title>Node13&#45;&gt;Node14</title>
<path fill="none" stroke="#63b8ff" d="M627.06,-267.62C634.48,-264.94 642,-262.03 649,-259 671.36,-249.32 695.47,-236.6 714.58,-225.93"/>
<polygon fill="#63b8ff" stroke="#63b8ff" points="716.06,-229.12 723.04,-221.15 712.62,-223.02 716.06,-229.12"/>
</g>
<!-- Node20 -->
<g id="node15" class="node">
<title>Node20</title>
<g id="a_node15"><a xlink:href="class_urho3_d_1_1_particle_emitter2_d.html#af5a3c4e68d6b4b66659626f4c1ef618e" target="_top" xlink:title="Update material.">
<polygon fill="white" stroke="#666666" points="814,-283 689,-283 689,-253 814,-253 814,-283"/>
<text text-anchor="start" x="697" y="-271" font-family="Roboto" font-size="10.00">Urho3D::ParticleEmitter2</text>
<text text-anchor="middle" x="751.5" y="-260" font-family="Roboto" font-size="10.00">D::UpdateMaterial</text>
</a>
</g>
</g>
<!-- Node13&#45;&gt;Node20 -->
<g id="edge14" class="edge">
<title>Node13&#45;&gt;Node20</title>
<path fill="none" stroke="#63b8ff" d="M640.11,-277.63C652.21,-276.57 665.02,-275.45 677.46,-274.37"/>
<polygon fill="#63b8ff" stroke="#63b8ff" points="677.58,-277.87 687.23,-273.52 676.97,-270.9 677.58,-277.87"/>
</g>
<!-- Node15 -->
<g id="node14" class="node">
<title>Node15</title>
<g id="a_node14"><a xlink:href="class_urho3_d_1_1_component.html#a2c22f727341671a0420934f249ffe059" target="_top" xlink:title="Return the scene the node belongs to.">
<polygon fill="#fff0f0" stroke="red" points="965,-170 854,-170 854,-140 965,-140 965,-170"/>
<text text-anchor="start" x="862" y="-158" font-family="Roboto" font-size="10.00">Urho3D::Component::</text>
<text text-anchor="middle" x="909.5" y="-147" font-family="Roboto" font-size="10.00">GetScene</text>
</a>
</g>
</g>
<!-- Node14&#45;&gt;Node15 -->
<g id="edge13" class="edge">
<title>Node14&#45;&gt;Node15</title>
<path fill="none" stroke="#63b8ff" d="M800.58,-189.59C816,-184.65 833.26,-179.12 849.37,-173.95"/>
<polygon fill="#63b8ff" stroke="#63b8ff" points="850.42,-177.29 858.87,-170.91 848.28,-170.63 850.42,-177.29"/>
</g>
<!-- Node21&#45;&gt;Node14 -->
<g id="edge16" class="edge">
<title>Node21&#45;&gt;Node14</title>
<path fill="none" stroke="#63b8ff" d="M461.44,-158.88C524.01,-168.87 620.32,-184.23 684.35,-194.45"/>
<polygon fill="#63b8ff" stroke="#63b8ff" points="683.6,-197.87 694.03,-195.99 684.7,-190.96 683.6,-197.87"/>
</g>
<!-- Node22&#45;&gt;Node14 -->
<g id="edge20" class="edge">
<title>Node22&#45;&gt;Node14</title>
<path fill="none" stroke="#63b8ff" d="M620.46,-121.42C630.29,-126 640.4,-131.54 649,-138 668.66,-152.76 664.9,-165.85 685,-180 687.18,-181.54 689.47,-182.99 691.84,-184.37"/>
<polygon fill="#63b8ff" stroke="#63b8ff" points="690.04,-187.39 700.53,-188.92 693.29,-181.18 690.04,-187.39"/>
</g>
<!-- Node22&#45;&gt;Node15 -->
<g id="edge19" class="edge">
<title>Node22&#45;&gt;Node15</title>
<path fill="none" stroke="#63b8ff" d="M633.24,-106.61C682.12,-108.03 755.45,-112.34 818,-125 831.31,-127.69 845.38,-131.74 858.36,-136"/>
<polygon fill="#63b8ff" stroke="#63b8ff" points="856.94,-139.21 867.53,-139.11 859.19,-132.58 856.94,-139.21"/>
</g>
<!-- Node23 -->
<g id="node18" class="node">
<title>Node23</title>
<g id="a_node18"><a xlink:href="class_urho3_d_1_1_object.html#a69af51cfa67f9626273b35a6d501e03e" target="_top" xlink:title="Return a preallocated map for event data. Used for optimization to avoid constant re&#45;allocation of ev...">
<polygon fill="#fff0f0" stroke="red" points="814,-78 689,-78 689,-48 814,-48 814,-78"/>
<text text-anchor="start" x="697" y="-66" font-family="Roboto" font-size="10.00">Urho3D::Object::GetEvent</text>
<text text-anchor="middle" x="751.5" y="-55" font-family="Roboto" font-size="10.00">DataMap</text>
</a>
</g>
</g>
<!-- Node22&#45;&gt;Node23 -->
<g id="edge18" class="edge">
<title>Node22&#45;&gt;Node23</title>
<path fill="none" stroke="#63b8ff" d="M633.39,-92.28C647.42,-88.77 662.72,-84.95 677.49,-81.25"/>
<polygon fill="#63b8ff" stroke="#63b8ff" points="678.34,-84.65 687.19,-78.83 676.64,-77.86 678.34,-84.65"/>
</g>
<!-- Node36 -->
<g id="node19" class="node">
<title>Node36</title>
<g id="a_node19"><a xlink:href="class_urho3_d_1_1_component.html#a97c506dfb55216668b1fdf4d4425f7d7" target="_top" xlink:title="Handle enabled/disabled state change.">
<polygon fill="white" stroke="#666666" points="807,-30 696,-30 696,0 807,0 807,-30"/>
<text text-anchor="start" x="704" y="-18" font-family="Roboto" font-size="10.00">Urho3D::Component::</text>
<text text-anchor="middle" x="751.5" y="-7" font-family="Roboto" font-size="10.00">OnSetEnabled</text>
</a>
</g>
</g>
<!-- Node22&#45;&gt;Node36 -->
<g id="edge21" class="edge">
<title>Node22&#45;&gt;Node36</title>
<path fill="none" stroke="#63b8ff" d="M599.75,-90.75C620.71,-76.17 654.02,-54.21 685,-39 687.9,-37.57 690.92,-36.18 693.98,-34.84"/>
<polygon fill="#63b8ff" stroke="#63b8ff" points="695.25,-38.1 703.13,-31.03 692.55,-31.64 695.25,-38.1"/>
</g>
<!-- Node37 -->
<g id="node20" class="node">
<title>Node37</title>
<g id="a_node20"><a xlink:href="class_urho3_d_1_1_object.html#a32020dbf77c196b9777eca479e8abb36" target="_top" xlink:title="Send event to all subscribers.">
<polygon fill="white" stroke="#666666" points="818,-153.5 685,-153.5 685,-134.5 818,-134.5 818,-153.5"/>
<text text-anchor="middle" x="751.5" y="-141.5" font-family="Roboto" font-size="10.00">Urho3D::Object::SendEvent</text>
</a>
</g>
</g>
<!-- Node22&#45;&gt;Node37 -->
<g id="edge22" class="edge">
<title>Node22&#45;&gt;Node37</title>
<path fill="none" stroke="#63b8ff" d="M633.39,-118.13C652.79,-122.41 674.63,-127.24 694.14,-131.55"/>
<polygon fill="#63b8ff" stroke="#63b8ff" points="693.33,-134.95 703.85,-133.69 694.84,-128.12 693.33,-134.95"/>
</g>
<!-- Node37&#45;&gt;Node37 -->
<g id="edge23" class="edge">
<title>Node37&#45;&gt;Node37</title>
<path fill="none" stroke="#63b8ff" d="M726.76,-153.87C715.48,-162.44 723.73,-171.5 751.5,-171.5 767.12,-171.5 776.57,-168.63 779.83,-164.6"/>
<polygon fill="#63b8ff" stroke="#63b8ff" points="783.21,-163.67 776.72,-155.3 776.58,-165.9 783.21,-163.67"/>
</g>
<!-- Node39 -->
<g id="node22" class="node">
<title>Node39</title>
<g id="a_node22"><a xlink:href="class_urho3_d_1_1_particle_emitter2_d.html#adb142de406c85feaa9072b3c871cb059" target="_top" xlink:title=" ">
<polygon fill="#fff0f0" stroke="red" points="461,-212 336,-212 336,-182 461,-182 461,-212"/>
<text text-anchor="start" x="344" y="-200" font-family="Roboto" font-size="10.00">Urho3D::ParticleEmitter2</text>
<text text-anchor="middle" x="398.5" y="-189" font-family="Roboto" font-size="10.00">D::SetEffect</text>
</a>
</g>
</g>
<!-- Node38&#45;&gt;Node39 -->
<g id="edge25" class="edge">
<title>Node38&#45;&gt;Node39</title>
<path fill="none" stroke="#63b8ff" d="M288.55,-209.14C300.19,-207.84 312.47,-206.48 324.42,-205.14"/>
<polygon fill="#63b8ff" stroke="#63b8ff" points="324.69,-208.63 334.25,-204.05 323.92,-201.68 324.69,-208.63"/>
</g>
<!-- Node39&#45;&gt;Node13 -->
<g id="edge27" class="edge">
<title>Node39&#45;&gt;Node13</title>
<path fill="none" stroke="#63b8ff" d="M422.88,-212.44C443.99,-225.93 476.21,-245.42 506,-259 509.35,-260.53 512.83,-262.01 516.37,-263.45"/>
<polygon fill="#63b8ff" stroke="#63b8ff" points="515.08,-266.7 525.67,-267.04 517.6,-260.17 515.08,-266.7"/>
</g>
<!-- Node39&#45;&gt;Node14 -->
<g id="edge26" class="edge">
<title>Node39&#45;&gt;Node14</title>
<path fill="none" stroke="#63b8ff" d="M461.44,-198.41C524.01,-199.84 620.32,-202.03 684.35,-203.49"/>
<polygon fill="#63b8ff" stroke="#63b8ff" points="683.93,-206.98 694.01,-203.71 684.09,-199.99 683.93,-206.98"/>
</g>
<!-- Node43 -->
<g id="node23" class="node">
<title>Node43</title>
<g id="a_node23"><a xlink:href="class_urho3_d_1_1_particle_emitter2_d.html#a45ead8ed53b8b24abad515115d75219e" target="_top" xlink:title=" ">
<polygon fill="white" stroke="#666666" points="640,-250 515,-250 515,-220 640,-220 640,-250"/>
<text text-anchor="start" x="523" y="-238" font-family="Roboto" font-size="10.00">Urho3D::ParticleEmitter2</text>
<text text-anchor="middle" x="577.5" y="-227" font-family="Roboto" font-size="10.00">D::SetSprite</text>
</a>
</g>
</g>
<!-- Node39&#45;&gt;Node43 -->
<g id="edge28" class="edge">
<title>Node39&#45;&gt;Node43</title>
<path fill="none" stroke="#63b8ff" d="M461.41,-210.29C475.01,-213.21 489.55,-216.33 503.55,-219.34"/>
<polygon fill="#63b8ff" stroke="#63b8ff" points="502.64,-222.72 513.15,-221.4 504.11,-215.88 502.64,-222.72"/>
</g>
<!-- Node43&#45;&gt;Node14 -->
<g id="edge29" class="edge">
<title>Node43&#45;&gt;Node14</title>
<path fill="none" stroke="#63b8ff" d="M640.11,-224.25C654.55,-221.74 669.99,-219.04 684.61,-216.49"/>
<polygon fill="#63b8ff" stroke="#63b8ff" points="684.86,-220 694.11,-214.84 683.66,-213.11 684.86,-220"/>
</g>
<!-- Node43&#45;&gt;Node20 -->
<g id="edge30" class="edge">
<title>Node43&#45;&gt;Node20</title>
<path fill="none" stroke="#63b8ff" d="M640.11,-246.82C652.21,-249.14 665.02,-251.6 677.46,-253.99"/>
<polygon fill="#63b8ff" stroke="#63b8ff" points="676.78,-257.42 687.26,-255.87 678.09,-250.54 676.78,-257.42"/>
</g>
<!-- Node44&#45;&gt;Node43 -->
<g id="edge33" class="edge">
<title>Node44&#45;&gt;Node43</title>
<path fill="none" stroke="#63b8ff" d="M285.41,-267.53C298.99,-264.34 313.44,-261.27 327,-259 385.93,-249.14 453.42,-242.96 503.33,-239.34"/>
<polygon fill="#63b8ff" stroke="#63b8ff" points="503.43,-242.84 513.16,-238.64 502.94,-235.86 503.43,-242.84"/>
</g>
<!-- Node45 -->
<g id="node25" class="node">
<title>Node45</title>
<g id="a_node25"><a xlink:href="class_urho3_d_1_1_sprite2_d.html#a9f6ab57bca5f5c7e9ee18dc546fe3c72" target="_top" xlink:title="Load sprite from ResourceRef.">
<polygon fill="#fff0f0" stroke="red" points="470,-298 327,-298 327,-268 470,-268 470,-298"/>
<text text-anchor="start" x="335" y="-286" font-family="Roboto" font-size="10.00">Urho3D::Sprite2D::LoadFrom</text>
<text text-anchor="middle" x="398.5" y="-275" font-family="Roboto" font-size="10.00">ResourceRef</text>
</a>
</g>
</g>
<!-- Node44&#45;&gt;Node45 -->
<g id="edge32" class="edge">
<title>Node44&#45;&gt;Node45</title>
<path fill="none" stroke="#63b8ff" d="M288.55,-283C297.27,-283 306.35,-283 315.38,-283"/>
<polygon fill="#63b8ff" stroke="#63b8ff" points="315.25,-286.5 325.25,-283 315.25,-279.5 315.25,-286.5"/>
</g>
</g>
</svg>
