<?xml version="1.0" encoding="UTF-8" standalone="no"?>
<!DOCTYPE svg PUBLIC "-//W3C//DTD SVG 1.1//EN"
 "http://www.w3.org/Graphics/SVG/1.1/DTD/svg11.dtd">
<!-- Generated by graphviz version 7.0.3 (0)
 -->
<!-- Title: Urho3D::UIElement::OnKey Pages: 1 -->
<svg width="406pt" height="38pt"
 viewBox="0.00 0.00 406.00 38.00" xmlns="http://www.w3.org/2000/svg" xmlns:xlink="http://www.w3.org/1999/xlink">
<g id="graph0" class="graph" transform="scale(1 1) rotate(0) translate(4 34)">
<title>Urho3D::UIElement::OnKey</title>
<!-- Node1 -->
<g id="node1" class="node">
<title>Node1</title>
<g id="a_node1"><a xlink:title="React to a key press.">
<polygon fill="#999999" stroke="#666666" points="398,-30 293,-30 293,0 398,0 398,-30"/>
<text text-anchor="start" x="301" y="-18" font-family="Roboto" font-size="10.00">Urho3D::UIElement::</text>
<text text-anchor="middle" x="345.5" y="-7" font-family="Roboto" font-size="10.00">OnKey</text>
</a>
</g>
</g>
<!-- Node2 -->
<g id="node2" class="node">
<title>Node2</title>
<g id="a_node2"><a xlink:href="class_urho3_d_1_1_u_i.html#aa7966075651b12fe5bc1dae57a5bb636" target="_top" xlink:title="Handle keypress event.">
<polygon fill="white" stroke="#666666" points="257,-24.5 115,-24.5 115,-5.5 257,-5.5 257,-24.5"/>
<text text-anchor="middle" x="186" y="-12.5" font-family="Roboto" font-size="10.00">Urho3D::UI::HandleKeyDown</text>
</a>
</g>
</g>
<!-- Node1&#45;&gt;Node2 -->
<g id="edge1" class="edge">
<title>Node1&#45;&gt;Node2</title>
<path fill="none" stroke="#63b8ff" d="M281.47,-15C273.52,-15 265.34,-15 257.28,-15"/>
<polygon fill="#63b8ff" stroke="#63b8ff" points="281.42,-18.5 291.42,-15 281.42,-11.5 281.42,-18.5"/>
</g>
<!-- Node3 -->
<g id="node3" class="node">
<title>Node3</title>
<g id="a_node3"><a xlink:href="class_urho3_d_1_1_u_i.html#a2c011c43ca66ff4270e98601e4f9c4cf" target="_top" xlink:title="Construct.">
<polygon fill="white" stroke="#666666" points="79,-24.5 0,-24.5 0,-5.5 79,-5.5 79,-24.5"/>
<text text-anchor="middle" x="39.5" y="-12.5" font-family="Roboto" font-size="10.00">Urho3D::UI::UI</text>
</a>
</g>
</g>
<!-- Node2&#45;&gt;Node3 -->
<g id="edge2" class="edge">
<title>Node2&#45;&gt;Node3</title>
<path fill="none" stroke="#63b8ff" d="M103.43,-15C95.08,-15 86.9,-15 79.35,-15"/>
<polygon fill="#63b8ff" stroke="#63b8ff" points="103.35,-18.5 113.35,-15 103.35,-11.5 103.35,-18.5"/>
</g>
</g>
</svg>
