<?xml version="1.0" encoding="UTF-8" standalone="no"?>
<!DOCTYPE svg PUBLIC "-//W3C//DTD SVG 1.1//EN"
 "http://www.w3.org/Graphics/SVG/1.1/DTD/svg11.dtd">
<!-- Generated by graphviz version 7.0.3 (0)
 -->
<!-- Title: Urho3D::DecalSet::ApplyAttributes Pages: 1 -->
<svg width="658pt" height="70pt"
 viewBox="0.00 0.00 658.00 69.50" xmlns="http://www.w3.org/2000/svg" xmlns:xlink="http://www.w3.org/1999/xlink">
<g id="graph0" class="graph" transform="scale(1 1) rotate(0) translate(4 65.5)">
<title>Urho3D::DecalSet::ApplyAttributes</title>
<!-- Node1 -->
<g id="node1" class="node">
<title>Node1</title>
<g id="a_node1"><a xlink:title="Apply attribute changes that can not be applied immediately. Called after scene load or a network upd...">
<polygon fill="#999999" stroke="#666666" points="165,-37 0,-37 0,-18 165,-18 165,-37"/>
<text text-anchor="middle" x="82.5" y="-25" font-family="Roboto" font-size="10.00">Urho3D::DecalSet::ApplyAttributes</text>
</a>
</g>
</g>
<!-- Node2 -->
<g id="node2" class="node">
<title>Node2</title>
<g id="a_node2"><a xlink:href="class_urho3_d_1_1_decal_set.html#a3b632a266d97f53b916eb90e5e7f8bb3" target="_top" xlink:title="Find bones after loading.">
<polygon fill="white" stroke="#666666" points="329,-42.5 201,-42.5 201,-12.5 329,-12.5 329,-42.5"/>
<text text-anchor="start" x="209" y="-30.5" font-family="Roboto" font-size="10.00">Urho3D::DecalSet::Assign</text>
<text text-anchor="middle" x="265" y="-19.5" font-family="Roboto" font-size="10.00">BoneNodes</text>
</a>
</g>
</g>
<!-- Node1&#45;&gt;Node2 -->
<g id="edge1" class="edge">
<title>Node1&#45;&gt;Node2</title>
<path fill="none" stroke="#63b8ff" d="M165.3,-27.5C173.26,-27.5 181.31,-27.5 189.19,-27.5"/>
<polygon fill="#63b8ff" stroke="#63b8ff" points="189.09,-31 199.09,-27.5 189.09,-24 189.09,-31"/>
</g>
<!-- Node3 -->
<g id="node3" class="node">
<title>Node3</title>
<g id="a_node3"><a xlink:href="class_urho3_d_1_1_node.html#a1df1e1bfa613bbd82fe6624c211db754" target="_top" xlink:title="Add listener component that is notified of node being dirtied. Can either be in the same node or anot...">
<polygon fill="white" stroke="#666666" points="503,-56 365,-56 365,-37 503,-37 503,-56"/>
<text text-anchor="middle" x="434" y="-44" font-family="Roboto" font-size="10.00">Urho3D::Node::AddListener</text>
</a>
</g>
</g>
<!-- Node2&#45;&gt;Node3 -->
<g id="edge2" class="edge">
<title>Node2&#45;&gt;Node3</title>
<path fill="none" stroke="#63b8ff" d="M329.14,-34.68C337.05,-35.58 345.22,-36.51 353.34,-37.44"/>
<polygon fill="#63b8ff" stroke="#63b8ff" points="352.92,-40.91 363.25,-38.56 353.71,-33.96 352.92,-40.91"/>
</g>
<!-- Node5 -->
<g id="node5" class="node">
<title>Node5</title>
<g id="a_node5"><a xlink:href="class_urho3_d_1_1_node.html#aa413f1ee8b3fd0928b371a6d9875563c" target="_top" xlink:title="Return child scene node by index.">
<polygon fill="white" stroke="#666666" points="495,-19 373,-19 373,0 495,0 495,-19"/>
<text text-anchor="middle" x="434" y="-7" font-family="Roboto" font-size="10.00">Urho3D::Node::GetChild</text>
</a>
</g>
</g>
<!-- Node2&#45;&gt;Node5 -->
<g id="edge4" class="edge">
<title>Node2&#45;&gt;Node5</title>
<path fill="none" stroke="#63b8ff" d="M329.14,-20.69C339.58,-19.57 350.48,-18.39 361.12,-17.25"/>
<polygon fill="#63b8ff" stroke="#63b8ff" points="361.46,-20.73 371.03,-16.18 360.71,-13.77 361.46,-20.73"/>
</g>
<!-- Node4 -->
<g id="node4" class="node">
<title>Node4</title>
<g id="a_node4"><a xlink:href="class_urho3_d_1_1_component.html#ab49b4b66b2eb1601cf166972fe42e5ce" target="_top" xlink:title="Handle scene node transform dirtied.">
<polygon fill="white" stroke="#666666" points="650,-61.5 539,-61.5 539,-31.5 650,-31.5 650,-61.5"/>
<text text-anchor="start" x="547" y="-49.5" font-family="Roboto" font-size="10.00">Urho3D::Component::</text>
<text text-anchor="middle" x="594.5" y="-38.5" font-family="Roboto" font-size="10.00">OnMarkedDirty</text>
</a>
</g>
</g>
<!-- Node3&#45;&gt;Node4 -->
<g id="edge3" class="edge">
<title>Node3&#45;&gt;Node4</title>
<path fill="none" stroke="#63b8ff" d="M503.14,-46.5C511.24,-46.5 519.49,-46.5 527.56,-46.5"/>
<polygon fill="#63b8ff" stroke="#63b8ff" points="527.29,-50 537.29,-46.5 527.29,-43 527.29,-50"/>
</g>
</g>
</svg>
