<?xml version="1.0" encoding="UTF-8" standalone="no"?>
<!DOCTYPE svg PUBLIC "-//W3C//DTD SVG 1.1//EN"
 "http://www.w3.org/Graphics/SVG/1.1/DTD/svg11.dtd">
<!-- Generated by graphviz version 7.0.3 (0)
 -->
<!-- Title: Urho3D::RigidBody::GetAngularVelocity Pages: 1 -->
<svg width="420pt" height="60pt"
 viewBox="0.00 0.00 420.00 60.00" xmlns="http://www.w3.org/2000/svg" xmlns:xlink="http://www.w3.org/1999/xlink">
<g id="graph0" class="graph" transform="scale(1 1) rotate(0) translate(4 56)">
<title>Urho3D::RigidBody::GetAngularVelocity</title>
<!-- Node1 -->
<g id="node1" class="node">
<title>Node1</title>
<g id="a_node1"><a xlink:title=" ">
<polygon fill="#999999" stroke="#666666" points="412,-30 308,-30 308,0 412,0 412,-30"/>
<text text-anchor="start" x="316" y="-18" font-family="Roboto" font-size="10.00">Urho3D::RigidBody::</text>
<text text-anchor="middle" x="360" y="-7" font-family="Roboto" font-size="10.00">GetAngularVelocity</text>
</a>
</g>
</g>
<!-- Node2 -->
<g id="node2" class="node">
<title>Node2</title>
<g id="a_node2"><a xlink:href="class_urho3_d_1_1_rigid_body.html#ad784c198ca9787b55555c8e93d7ef07a" target="_top" xlink:title="Return network angular velocity attribute.">
<polygon fill="white" stroke="#666666" points="272,-52 140,-52 140,-22 272,-22 272,-52"/>
<text text-anchor="start" x="148" y="-40" font-family="Roboto" font-size="10.00">Urho3D::RigidBody::</text>
<text text-anchor="middle" x="206" y="-29" font-family="Roboto" font-size="10.00">GetNetAngularVelocityAttr</text>
</a>
</g>
</g>
<!-- Node1&#45;&gt;Node2 -->
<g id="edge1" class="edge">
<title>Node1&#45;&gt;Node2</title>
<path fill="none" stroke="#63b8ff" d="M296.21,-24.09C288.36,-25.22 280.31,-26.39 272.42,-27.53"/>
<polygon fill="#63b8ff" stroke="#63b8ff" points="296.65,-27.56 306.04,-22.67 295.64,-20.63 296.65,-27.56"/>
</g>
<!-- Node3 -->
<g id="node3" class="node">
<title>Node3</title>
<g id="a_node3"><a xlink:href="class_urho3_d_1_1_rigid_body.html#a290f1f44cc003d8c7c5c419b3bfd4c3a" target="_top" xlink:title=" ">
<polygon fill="white" stroke="#666666" points="104,-30 0,-30 0,0 104,0 104,-30"/>
<text text-anchor="start" x="8" y="-18" font-family="Roboto" font-size="10.00">Urho3D::RigidBody::</text>
<text text-anchor="middle" x="52" y="-7" font-family="Roboto" font-size="10.00">RegisterObject</text>
</a>
</g>
</g>
<!-- Node1&#45;&gt;Node3 -->
<g id="edge3" class="edge">
<title>Node1&#45;&gt;Node3</title>
<path fill="none" stroke="#63b8ff" d="M296.43,-13.39C288.22,-13.23 279.91,-13.09 272,-13 213.34,-12.33 198.66,-12.33 140,-13 128.37,-13.13 115.86,-13.37 104.06,-13.63"/>
<polygon fill="#63b8ff" stroke="#63b8ff" points="296.36,-16.89 306.43,-13.6 296.5,-9.89 296.36,-16.89"/>
</g>
<!-- Node2&#45;&gt;Node3 -->
<g id="edge2" class="edge">
<title>Node2&#45;&gt;Node3</title>
<path fill="none" stroke="#63b8ff" d="M128.42,-25.92C120.16,-24.72 111.91,-23.53 104.06,-22.39"/>
<polygon fill="#63b8ff" stroke="#63b8ff" points="127.76,-29.36 138.16,-27.33 128.76,-22.43 127.76,-29.36"/>
</g>
</g>
</svg>
