<?xml version="1.0" encoding="UTF-8" standalone="no"?>
<!DOCTYPE svg PUBLIC "-//W3C//DTD SVG 1.1//EN"
 "http://www.w3.org/Graphics/SVG/1.1/DTD/svg11.dtd">
<!-- Generated by graphviz version 7.0.3 (0)
 -->
<!-- Title: Urho3D::AnimatedModel::Load Pages: 1 -->
<svg width="657pt" height="594pt"
 viewBox="0.00 0.00 657.00 593.50" xmlns="http://www.w3.org/2000/svg" xmlns:xlink="http://www.w3.org/1999/xlink">
<g id="graph0" class="graph" transform="scale(1 1) rotate(0) translate(4 589.5)">
<title>Urho3D::AnimatedModel::Load</title>
<!-- Node1 -->
<g id="node1" class="node">
<title>Node1</title>
<g id="a_node1"><a xlink:title="Load from binary data. Return true if successful.">
<polygon fill="#999999" stroke="#666666" points="126,-343 0,-343 0,-313 126,-313 126,-343"/>
<text text-anchor="start" x="8" y="-331" font-family="Roboto" font-size="10.00">Urho3D::AnimatedModel</text>
<text text-anchor="middle" x="63" y="-320" font-family="Roboto" font-size="10.00">::Load</text>
</a>
</g>
</g>
<!-- Node2 -->
<g id="node2" class="node">
<title>Node2</title>
<g id="a_node2"><a xlink:href="class_urho3_d_1_1_serializable.html#a04fe50c87274dbb2b8b970ea0c199767" target="_top" xlink:title="Load from binary data. Return true if successful.">
<polygon fill="white" stroke="#666666" points="267,-343 162,-343 162,-313 267,-313 267,-343"/>
<text text-anchor="start" x="170" y="-331" font-family="Roboto" font-size="10.00">Urho3D::Serializable</text>
<text text-anchor="middle" x="214.5" y="-320" font-family="Roboto" font-size="10.00">::Load</text>
</a>
</g>
</g>
<!-- Node1&#45;&gt;Node2 -->
<g id="edge1" class="edge">
<title>Node1&#45;&gt;Node2</title>
<path fill="none" stroke="#63b8ff" d="M126.1,-328C134.17,-328 142.45,-328 150.53,-328"/>
<polygon fill="#63b8ff" stroke="#63b8ff" points="150.28,-331.5 160.28,-328 150.28,-324.5 150.28,-331.5"/>
</g>
<!-- Node3 -->
<g id="node3" class="node">
<title>Node3</title>
<g id="a_node3"><a xlink:href="class_urho3_d_1_1_vector.html#a253629ba660641c388bb0bf050b0cd3e" target="_top" xlink:title="Return element at index.">
<polygon fill="white" stroke="#666666" points="426.5,-569.5 328.5,-569.5 328.5,-550.5 426.5,-550.5 426.5,-569.5"/>
<text text-anchor="middle" x="377.5" y="-557.5" font-family="Roboto" font-size="10.00">Urho3D::Vector::At</text>
</a>
</g>
</g>
<!-- Node2&#45;&gt;Node3 -->
<g id="edge2" class="edge">
<title>Node2&#45;&gt;Node3</title>
<path fill="none" stroke="#63b8ff" d="M218.43,-343.49C226.07,-379.88 249.78,-471.86 303,-526 311.06,-534.2 321.46,-540.63 331.9,-545.58"/>
<polygon fill="#63b8ff" stroke="#63b8ff" points="330.3,-548.7 340.86,-549.45 333.07,-542.27 330.3,-548.7"/>
</g>
<!-- Node5 -->
<g id="node5" class="node">
<title>Node5</title>
<g id="a_node5"><a xlink:href="class_urho3_d_1_1_serializable.html#a7e18871871feb97ee7cfb637e9b3e090" target="_top" xlink:title="Return attribute descriptions, or null if none defined.">
<polygon fill="white" stroke="#666666" points="430,-517 325,-517 325,-487 430,-487 430,-517"/>
<text text-anchor="start" x="333" y="-505" font-family="Roboto" font-size="10.00">Urho3D::Serializable</text>
<text text-anchor="middle" x="377.5" y="-494" font-family="Roboto" font-size="10.00">::GetAttributes</text>
</a>
</g>
</g>
<!-- Node2&#45;&gt;Node5 -->
<g id="edge4" class="edge">
<title>Node2&#45;&gt;Node5</title>
<path fill="none" stroke="#63b8ff" d="M229.79,-343.44C258.14,-374.09 321.67,-442.74 355.06,-478.83"/>
<polygon fill="#63b8ff" stroke="#63b8ff" points="352.09,-480.77 361.45,-485.73 357.22,-476.01 352.09,-480.77"/>
</g>
<!-- Node16 -->
<g id="node8" class="node">
<title>Node16</title>
<g id="a_node8"><a xlink:href="class_urho3_d_1_1_object.html#aa70436408fab29ff5d6ea54fa1e09b9b" target="_top" xlink:title=" ">
<polygon fill="white" stroke="#666666" points="452,-380.5 303,-380.5 303,-361.5 452,-361.5 452,-380.5"/>
<text text-anchor="middle" x="377.5" y="-368.5" font-family="Roboto" font-size="10.00">Urho3D::Object::GetTypeName</text>
</a>
</g>
</g>
<!-- Node2&#45;&gt;Node16 -->
<g id="edge7" class="edge">
<title>Node2&#45;&gt;Node16</title>
<path fill="none" stroke="#63b8ff" d="M267.29,-342.34C279.02,-345.55 291.43,-348.92 303,-352 310.62,-354.03 318.69,-356.15 326.58,-358.2"/>
<polygon fill="#63b8ff" stroke="#63b8ff" points="325.54,-361.55 336.1,-360.67 327.3,-354.77 325.54,-361.55"/>
</g>
<!-- Node17 -->
<g id="node9" class="node">
<title>Node17</title>
<g id="a_node9"><a xlink:href="class_urho3_d_1_1_deserializer.html#a62d8b0e28fa886adfdde1c42c6913477" target="_top" xlink:title=" ">
<polygon fill="white" stroke="#666666" points="431,-343 324,-343 324,-313 431,-313 431,-343"/>
<text text-anchor="start" x="332" y="-331" font-family="Roboto" font-size="10.00">Urho3D::Deserializer</text>
<text text-anchor="middle" x="377.5" y="-320" font-family="Roboto" font-size="10.00">::IsEof</text>
</a>
</g>
</g>
<!-- Node2&#45;&gt;Node17 -->
<g id="edge8" class="edge">
<title>Node2&#45;&gt;Node17</title>
<path fill="none" stroke="#63b8ff" d="M267.33,-328C281.69,-328 297.44,-328 312.41,-328"/>
<polygon fill="#63b8ff" stroke="#63b8ff" points="312.15,-331.5 322.15,-328 312.15,-324.5 312.15,-331.5"/>
</g>
<!-- Node18 -->
<g id="node10" class="node">
<title>Node18</title>
<g id="a_node10"><a xlink:href="class_urho3_d_1_1_serializable.html#a3785d97ef92557bab8239688af94ac5e" target="_top" xlink:title="Handle attribute write access. Default implementation writes to the variable at offset,...">
<polygon fill="#fff0f0" stroke="red" points="430,-295 325,-295 325,-265 430,-265 430,-295"/>
<text text-anchor="start" x="333" y="-283" font-family="Roboto" font-size="10.00">Urho3D::Serializable</text>
<text text-anchor="middle" x="377.5" y="-272" font-family="Roboto" font-size="10.00">::OnSetAttribute</text>
</a>
</g>
</g>
<!-- Node2&#45;&gt;Node18 -->
<g id="edge9" class="edge">
<title>Node2&#45;&gt;Node18</title>
<path fill="none" stroke="#63b8ff" d="M267.33,-312.55C282.12,-308.14 298.4,-303.28 313.77,-298.7"/>
<polygon fill="#63b8ff" stroke="#63b8ff" points="314.74,-302.07 323.32,-295.86 312.74,-295.36 314.74,-302.07"/>
</g>
<!-- Node41 -->
<g id="node24" class="node">
<title>Node41</title>
<g id="a_node24"><a xlink:href="class_urho3_d_1_1_deserializer.html#a4f7070a0dd21b4627e5603e1557efb0a" target="_top" xlink:title="Read a variant.">
<polygon fill="#fff0f0" stroke="red" points="431,-229 324,-229 324,-199 431,-199 431,-229"/>
<text text-anchor="start" x="332" y="-217" font-family="Roboto" font-size="10.00">Urho3D::Deserializer</text>
<text text-anchor="middle" x="377.5" y="-206" font-family="Roboto" font-size="10.00">::ReadVariant</text>
</a>
</g>
</g>
<!-- Node2&#45;&gt;Node41 -->
<g id="edge23" class="edge">
<title>Node2&#45;&gt;Node41</title>
<path fill="none" stroke="#63b8ff" d="M232.25,-312.76C249.39,-297.53 277.09,-273.87 303,-256 313.65,-248.65 325.67,-241.39 336.86,-235.03"/>
<polygon fill="#63b8ff" stroke="#63b8ff" points="338.49,-238.12 345.51,-230.19 335.07,-232.01 338.49,-238.12"/>
</g>
<!-- Node44 -->
<g id="node25" class="node">
<title>Node44</title>
<g id="a_node25"><a xlink:href="class_urho3_d_1_1_vector.html#a5da7101c355895f41098fcf875e4c56a" target="_top" xlink:title="Return size of vector.">
<polygon fill="white" stroke="#666666" points="431,-180.5 324,-180.5 324,-161.5 431,-161.5 431,-180.5"/>
<text text-anchor="middle" x="377.5" y="-168.5" font-family="Roboto" font-size="10.00">Urho3D::Vector::Size</text>
</a>
</g>
</g>
<!-- Node2&#45;&gt;Node44 -->
<g id="edge25" class="edge">
<title>Node2&#45;&gt;Node44</title>
<path fill="none" stroke="#63b8ff" d="M220.75,-312.9C231.48,-284.3 258.74,-222.23 303,-190 306.19,-187.68 309.63,-185.64 313.23,-183.85"/>
<polygon fill="#63b8ff" stroke="#63b8ff" points="314.45,-187.14 322.3,-180.03 311.73,-180.69 314.45,-187.14"/>
</g>
<!-- Node4 -->
<g id="node4" class="node">
<title>Node4</title>
<g id="a_node4"><a xlink:href="class_urho3_d_1_1_vector.html#a2126455bfd4dd42c90838abba6fef37a" target="_top" xlink:title="Return the buffer with right type.">
<polygon fill="white" stroke="#666666" points="626.5,-585.5 510.5,-585.5 510.5,-566.5 626.5,-566.5 626.5,-585.5"/>
<text text-anchor="middle" x="568.5" y="-573.5" font-family="Roboto" font-size="10.00">Urho3D::Vector::Buffer</text>
</a>
</g>
</g>
<!-- Node3&#45;&gt;Node4 -->
<g id="edge3" class="edge">
<title>Node3&#45;&gt;Node4</title>
<path fill="none" stroke="#63b8ff" d="M426.68,-564.08C448.68,-565.94 475.13,-568.18 499.13,-570.21"/>
<polygon fill="#63b8ff" stroke="#63b8ff" points="498.56,-573.68 508.82,-571.03 499.15,-566.7 498.56,-573.68"/>
</g>
<!-- Node6 -->
<g id="node6" class="node">
<title>Node6</title>
<g id="a_node6"><a xlink:href="class_urho3_d_1_1_context.html#a154a078ece29446d7796ddabd3fbec71" target="_top" xlink:title="Return attribute descriptions for an object type, or null if none defined.">
<polygon fill="#fff0f0" stroke="red" points="644.5,-548.5 492.5,-548.5 492.5,-529.5 644.5,-529.5 644.5,-548.5"/>
<text text-anchor="middle" x="568.5" y="-536.5" font-family="Roboto" font-size="10.00">Urho3D::Context::GetAttributes</text>
</a>
</g>
</g>
<!-- Node5&#45;&gt;Node6 -->
<g id="edge5" class="edge">
<title>Node5&#45;&gt;Node6</title>
<path fill="none" stroke="#63b8ff" d="M430.4,-512.16C453.6,-516.7 481.15,-522.09 505.44,-526.85"/>
<polygon fill="#63b8ff" stroke="#63b8ff" points="504.73,-530.28 515.22,-528.76 506.07,-523.41 504.73,-530.28"/>
</g>
<!-- Node15 -->
<g id="node7" class="node">
<title>Node15</title>
<g id="a_node7"><a xlink:href="class_urho3_d_1_1_object.html#a4c7af660afc8467a99d1f17c8d099b3b" target="_top" xlink:title=" ">
<polygon fill="white" stroke="#666666" points="629.5,-511.5 507.5,-511.5 507.5,-492.5 629.5,-492.5 629.5,-511.5"/>
<text text-anchor="middle" x="568.5" y="-499.5" font-family="Roboto" font-size="10.00">Urho3D::Object::GetType</text>
</a>
</g>
</g>
<!-- Node5&#45;&gt;Node15 -->
<g id="edge6" class="edge">
<title>Node5&#45;&gt;Node15</title>
<path fill="none" stroke="#63b8ff" d="M430.4,-502C450.5,-502 473.85,-502 495.53,-502"/>
<polygon fill="#63b8ff" stroke="#63b8ff" points="495.51,-505.5 505.51,-502 495.51,-498.5 495.51,-505.5"/>
</g>
<!-- Node19 -->
<g id="node11" class="node">
<title>Node19</title>
<g id="a_node11"><a xlink:href="class_urho3_d_1_1_variant.html#a6cd65631c81e9f1fcfeca4870c690420" target="_top" xlink:title="Return bool or false on type mismatch.">
<polygon fill="white" stroke="#666666" points="631,-474.5 506,-474.5 506,-455.5 631,-455.5 631,-474.5"/>
<text text-anchor="middle" x="568.5" y="-462.5" font-family="Roboto" font-size="10.00">Urho3D::Variant::GetBool</text>
</a>
</g>
</g>
<!-- Node18&#45;&gt;Node19 -->
<g id="edge10" class="edge">
<title>Node18&#45;&gt;Node19</title>
<path fill="none" stroke="#63b8ff" d="M430.25,-289.49C438.38,-292.93 446.05,-297.62 452,-304 496.72,-351.91 441.11,-401.22 488,-447 490.37,-449.32 492.98,-451.36 495.75,-453.16"/>
<polygon fill="#63b8ff" stroke="#63b8ff" points="493.92,-456.16 504.41,-457.69 497.17,-449.95 493.92,-456.16"/>
</g>
<!-- Node20 -->
<g id="node12" class="node">
<title>Node20</title>
<g id="a_node12"><a xlink:href="class_urho3_d_1_1_variant.html#a9db8e2a8abefa3141e70c3bf85e7b8c9" target="_top" xlink:title="Return buffer or empty on type mismatch.">
<polygon fill="white" stroke="#666666" points="634.5,-437.5 502.5,-437.5 502.5,-418.5 634.5,-418.5 634.5,-437.5"/>
<text text-anchor="middle" x="568.5" y="-425.5" font-family="Roboto" font-size="10.00">Urho3D::Variant::GetBuffer</text>
</a>
</g>
</g>
<!-- Node18&#45;&gt;Node20 -->
<g id="edge11" class="edge">
<title>Node18&#45;&gt;Node20</title>
<path fill="none" stroke="#63b8ff" d="M430.2,-290.06C438.24,-293.44 445.89,-297.96 452,-304 487.39,-338.97 451.03,-376.71 488,-410 489.45,-411.3 490.97,-412.52 492.55,-413.65"/>
<polygon fill="#63b8ff" stroke="#63b8ff" points="490.49,-416.5 500.89,-418.51 494.01,-410.45 490.49,-416.5"/>
</g>
<!-- Node21 -->
<g id="node13" class="node">
<title>Node21</title>
<g id="a_node13"><a xlink:href="class_urho3_d_1_1_variant.html#a6a99ff6eb60d077b8a73d32347fcb1a1" target="_top" xlink:title="Return color or default on type mismatch. Vector4 is aliased to Color if necessary.">
<polygon fill="white" stroke="#666666" points="633.5,-400.5 503.5,-400.5 503.5,-381.5 633.5,-381.5 633.5,-400.5"/>
<text text-anchor="middle" x="568.5" y="-388.5" font-family="Roboto" font-size="10.00">Urho3D::Variant::GetColor</text>
</a>
</g>
</g>
<!-- Node18&#45;&gt;Node21 -->
<g id="edge12" class="edge">
<title>Node18&#45;&gt;Node21</title>
<path fill="none" stroke="#63b8ff" d="M430.21,-291.19C438.06,-294.44 445.65,-298.62 452,-304 478.39,-326.36 460.6,-351.89 488,-373 489.72,-374.33 491.53,-375.56 493.39,-376.71"/>
<polygon fill="#63b8ff" stroke="#63b8ff" points="491.35,-379.59 501.84,-381.04 494.54,-373.36 491.35,-379.59"/>
</g>
<!-- Node22 -->
<g id="node14" class="node">
<title>Node22</title>
<g id="a_node14"><a xlink:href="class_urho3_d_1_1_variant.html#af1685b3c414986d0f26d68d8cd115be9" target="_top" xlink:title="Return double or zero on type mismatch. Ints and floats are converted.">
<polygon fill="white" stroke="#666666" points="636.5,-363.5 500.5,-363.5 500.5,-344.5 636.5,-344.5 636.5,-363.5"/>
<text text-anchor="middle" x="568.5" y="-351.5" font-family="Roboto" font-size="10.00">Urho3D::Variant::GetDouble</text>
</a>
</g>
</g>
<!-- Node18&#45;&gt;Node22 -->
<g id="edge13" class="edge">
<title>Node18&#45;&gt;Node22</title>
<path fill="none" stroke="#63b8ff" d="M430.27,-293.91C437.78,-296.77 445.25,-300.12 452,-304 470.57,-314.66 468.96,-326.22 488,-336 491.05,-337.57 494.23,-339 497.5,-340.3"/>
<polygon fill="#63b8ff" stroke="#63b8ff" points="496.12,-343.53 506.71,-343.57 498.45,-336.93 496.12,-343.53"/>
</g>
<!-- Node23 -->
<g id="node15" class="node">
<title>Node23</title>
<g id="a_node15"><a xlink:href="class_urho3_d_1_1_variant.html#ae7c3f7d2a22b443a233548abe65355f3" target="_top" xlink:title="Return float or zero on type mismatch. Ints and doubles are converted.">
<polygon fill="white" stroke="#666666" points="632,-326.5 505,-326.5 505,-307.5 632,-307.5 632,-326.5"/>
<text text-anchor="middle" x="568.5" y="-314.5" font-family="Roboto" font-size="10.00">Urho3D::Variant::GetFloat</text>
</a>
</g>
</g>
<!-- Node18&#45;&gt;Node23 -->
<g id="edge14" class="edge">
<title>Node18&#45;&gt;Node23</title>
<path fill="none" stroke="#63b8ff" d="M430.4,-290.16C453.6,-294.7 481.15,-300.09 505.44,-304.85"/>
<polygon fill="#63b8ff" stroke="#63b8ff" points="504.73,-308.28 515.22,-306.76 506.07,-301.41 504.73,-308.28"/>
</g>
<!-- Node24 -->
<g id="node16" class="node">
<title>Node24</title>
<g id="a_node16"><a xlink:href="class_urho3_d_1_1_variant.html#a61ad89a11dde2836cc8d21565b694361" target="_top" xlink:title="Return int or zero on type mismatch. Floats and doubles are converted.">
<polygon fill="white" stroke="#666666" points="626.5,-289.5 510.5,-289.5 510.5,-270.5 626.5,-270.5 626.5,-289.5"/>
<text text-anchor="middle" x="568.5" y="-277.5" font-family="Roboto" font-size="10.00">Urho3D::Variant::GetInt</text>
</a>
</g>
</g>
<!-- Node18&#45;&gt;Node24 -->
<g id="edge15" class="edge">
<title>Node18&#45;&gt;Node24</title>
<path fill="none" stroke="#63b8ff" d="M430.4,-280C451.52,-280 476.24,-280 498.83,-280"/>
<polygon fill="#63b8ff" stroke="#63b8ff" points="498.56,-283.5 508.56,-280 498.56,-276.5 498.56,-283.5"/>
</g>
<!-- Node25 -->
<g id="node17" class="node">
<title>Node25</title>
<g id="a_node17"><a xlink:href="class_urho3_d_1_1_variant.html#a1637cd789ecf022559d1937752b611e4" target="_top" xlink:title="Return 64 bit int or zero on type mismatch. Floats and doubles are converted.">
<polygon fill="white" stroke="#666666" points="632,-252.5 505,-252.5 505,-233.5 632,-233.5 632,-252.5"/>
<text text-anchor="middle" x="568.5" y="-240.5" font-family="Roboto" font-size="10.00">Urho3D::Variant::GetInt64</text>
</a>
</g>
</g>
<!-- Node18&#45;&gt;Node25 -->
<g id="edge16" class="edge">
<title>Node18&#45;&gt;Node25</title>
<path fill="none" stroke="#63b8ff" d="M430.4,-269.84C453.6,-265.3 481.15,-259.91 505.44,-255.15"/>
<polygon fill="#63b8ff" stroke="#63b8ff" points="506.07,-258.59 515.22,-253.24 504.73,-251.72 506.07,-258.59"/>
</g>
<!-- Node26 -->
<g id="node18" class="node">
<title>Node26</title>
<g id="a_node18"><a xlink:href="class_urho3_d_1_1_variant.html#ac06ee32be1d31c57a532b8a66ed2bdae" target="_top" xlink:title="Return an integer rect or empty on type mismatch.">
<polygon fill="white" stroke="#666666" points="636.5,-215.5 500.5,-215.5 500.5,-196.5 636.5,-196.5 636.5,-215.5"/>
<text text-anchor="middle" x="568.5" y="-203.5" font-family="Roboto" font-size="10.00">Urho3D::Variant::GetIntRect</text>
</a>
</g>
</g>
<!-- Node18&#45;&gt;Node26 -->
<g id="edge17" class="edge">
<title>Node18&#45;&gt;Node26</title>
<path fill="none" stroke="#63b8ff" d="M430.22,-266C437.74,-263.15 445.22,-259.82 452,-256 470.39,-245.63 469.2,-234.61 488,-225 491.94,-222.99 496.1,-221.18 500.36,-219.56"/>
<polygon fill="#63b8ff" stroke="#63b8ff" points="501.34,-222.93 509.69,-216.4 499.1,-216.3 501.34,-222.93"/>
</g>
<!-- Node27 -->
<g id="node19" class="node">
<title>Node27</title>
<g id="a_node19"><a xlink:href="class_urho3_d_1_1_variant.html#a2b32e2c1cf14b6a483059d5c9af75018" target="_top" xlink:title="Return an IntVector2 or empty on type mismatch.">
<polygon fill="white" stroke="#666666" points="644,-178.5 493,-178.5 493,-159.5 644,-159.5 644,-178.5"/>
<text text-anchor="middle" x="568.5" y="-166.5" font-family="Roboto" font-size="10.00">Urho3D::Variant::GetIntVector2</text>
</a>
</g>
</g>
<!-- Node18&#45;&gt;Node27 -->
<g id="edge18" class="edge">
<title>Node18&#45;&gt;Node27</title>
<path fill="none" stroke="#63b8ff" d="M430.19,-268.78C438.04,-265.53 445.63,-261.36 452,-256 478.16,-233.98 460.97,-208.95 488,-188 489.77,-186.63 491.62,-185.36 493.53,-184.18"/>
<polygon fill="#63b8ff" stroke="#63b8ff" points="494.97,-187.37 502.25,-179.67 491.76,-181.15 494.97,-187.37"/>
</g>
<!-- Node28 -->
<g id="node20" class="node">
<title>Node28</title>
<g id="a_node20"><a xlink:href="class_urho3_d_1_1_variant.html#aa31a06b4687d16edfa911b0d143bb0d7" target="_top" xlink:title="Return an IntVector3 or empty on type mismatch.">
<polygon fill="white" stroke="#666666" points="644,-141.5 493,-141.5 493,-122.5 644,-122.5 644,-141.5"/>
<text text-anchor="middle" x="568.5" y="-129.5" font-family="Roboto" font-size="10.00">Urho3D::Variant::GetIntVector3</text>
</a>
</g>
</g>
<!-- Node18&#45;&gt;Node28 -->
<g id="edge19" class="edge">
<title>Node18&#45;&gt;Node28</title>
<path fill="none" stroke="#63b8ff" d="M430.19,-269.93C438.23,-266.55 445.88,-262.03 452,-256 487.14,-221.37 451.49,-184.18 488,-151 489.25,-149.87 490.55,-148.8 491.9,-147.79"/>
<polygon fill="#63b8ff" stroke="#63b8ff" points="493.41,-150.97 500.13,-142.77 489.77,-144.99 493.41,-150.97"/>
</g>
<!-- Node29 -->
<g id="node21" class="node">
<title>Node29</title>
<g id="a_node21"><a xlink:href="class_urho3_d_1_1_variant.html#ac3bf4784f4276be08230405025bec1bd" target="_top" xlink:title="Return quaternion or identity on type mismatch.">
<polygon fill="white" stroke="#666666" points="645,-104.5 492,-104.5 492,-85.5 645,-85.5 645,-104.5"/>
<text text-anchor="middle" x="568.5" y="-92.5" font-family="Roboto" font-size="10.00">Urho3D::Variant::GetQuaternion</text>
</a>
</g>
</g>
<!-- Node18&#45;&gt;Node29 -->
<g id="edge20" class="edge">
<title>Node18&#45;&gt;Node29</title>
<path fill="none" stroke="#63b8ff" d="M430.24,-270.5C438.37,-267.06 446.04,-262.37 452,-256 496.46,-208.44 441.65,-159.72 488,-114 489.05,-112.96 490.15,-111.98 491.29,-111.05"/>
<polygon fill="#63b8ff" stroke="#63b8ff" points="493.03,-114.09 499.45,-105.66 489.17,-108.25 493.03,-114.09"/>
</g>
<!-- Node30 -->
<g id="node22" class="node">
<title>Node30</title>
<g id="a_node22"><a xlink:href="class_urho3_d_1_1_variant.html#a9fef7ef6f527f3647dc01cdc73b4db4c" target="_top" xlink:title="Return a resource reference or empty on type mismatch.">
<polygon fill="white" stroke="#666666" points="649,-67.5 488,-67.5 488,-48.5 649,-48.5 649,-67.5"/>
<text text-anchor="middle" x="568.5" y="-55.5" font-family="Roboto" font-size="10.00">Urho3D::Variant::GetResourceRef</text>
</a>
</g>
</g>
<!-- Node18&#45;&gt;Node30 -->
<g id="edge21" class="edge">
<title>Node18&#45;&gt;Node30</title>
<path fill="none" stroke="#63b8ff" d="M430.13,-270.9C438.38,-267.42 446.11,-262.62 452,-256 505.92,-195.36 431.67,-135.41 488,-77 488.89,-76.08 489.81,-75.2 490.76,-74.36"/>
<polygon fill="#63b8ff" stroke="#63b8ff" points="492.69,-77.29 498.89,-68.7 488.69,-71.55 492.69,-77.29"/>
</g>
<!-- Node31 -->
<g id="node23" class="node">
<title>Node31</title>
<g id="a_node23"><a xlink:href="class_urho3_d_1_1_variant.html#ace9fd18265875dffeab276f01dd2e0f7" target="_top" xlink:title="Return a resource reference list or empty on type mismatch.">
<polygon fill="white" stroke="#666666" points="641.5,-30 495.5,-30 495.5,0 641.5,0 641.5,-30"/>
<text text-anchor="start" x="503.5" y="-18" font-family="Roboto" font-size="10.00">Urho3D::Variant::GetResource</text>
<text text-anchor="middle" x="568.5" y="-7" font-family="Roboto" font-size="10.00">RefList</text>
</a>
</g>
</g>
<!-- Node18&#45;&gt;Node31 -->
<g id="edge22" class="edge">
<title>Node18&#45;&gt;Node31</title>
<path fill="none" stroke="#63b8ff" d="M430.32,-271.07C438.54,-267.57 446.23,-262.72 452,-256 515.71,-181.85 423.46,-112.43 488,-39 488.36,-38.59 488.72,-38.19 489.09,-37.8"/>
<polygon fill="#63b8ff" stroke="#63b8ff" points="491.19,-40.61 496.54,-31.47 486.65,-35.28 491.19,-40.61"/>
</g>
<!-- Node41&#45;&gt;Node41 -->
<g id="edge24" class="edge">
<title>Node41&#45;&gt;Node41</title>
<path fill="none" stroke="#63b8ff" d="M348.85,-229.28C342.48,-238.41 352.03,-247 377.5,-247 391.43,-247 400.6,-244.43 405,-240.61"/>
<polygon fill="#63b8ff" stroke="#63b8ff" points="408.47,-241.08 406,-230.78 401.51,-240.38 408.47,-241.08"/>
</g>
</g>
</svg>
