<?xml version="1.0" encoding="UTF-8" standalone="no"?>
<!DOCTYPE svg PUBLIC "-//W3C//DTD SVG 1.1//EN"
 "http://www.w3.org/Graphics/SVG/1.1/DTD/svg11.dtd">
<!-- Generated by graphviz version 7.0.3 (0)
 -->
<!-- Title: Urho3D::ScrollBar::OnResize Pages: 1 -->
<svg width="377pt" height="86pt"
 viewBox="0.00 0.00 377.00 86.00" xmlns="http://www.w3.org/2000/svg" xmlns:xlink="http://www.w3.org/1999/xlink">
<g id="graph0" class="graph" transform="scale(1 1) rotate(0) translate(4 82)">
<title>Urho3D::ScrollBar::OnResize</title>
<!-- Node1 -->
<g id="node1" class="node">
<title>Node1</title>
<g id="a_node1"><a xlink:title="React to resize.">
<polygon fill="#999999" stroke="#666666" points="369,-54 270,-54 270,-24 369,-24 369,-54"/>
<text text-anchor="start" x="278" y="-42" font-family="Roboto" font-size="10.00">Urho3D::ScrollBar::</text>
<text text-anchor="middle" x="319.5" y="-31" font-family="Roboto" font-size="10.00">OnResize</text>
</a>
</g>
</g>
<!-- Node2 -->
<g id="node2" class="node">
<title>Node2</title>
<g id="a_node2"><a xlink:href="class_urho3_d_1_1_scroll_bar.html#a08a7da485adf24fc57154fb931477610" target="_top" xlink:title=" ">
<polygon fill="white" stroke="#666666" points="234,-54 135,-54 135,-24 234,-24 234,-54"/>
<text text-anchor="start" x="143" y="-42" font-family="Roboto" font-size="10.00">Urho3D::ScrollBar::</text>
<text text-anchor="middle" x="184.5" y="-31" font-family="Roboto" font-size="10.00">SetOrientation</text>
</a>
</g>
</g>
<!-- Node1&#45;&gt;Node2 -->
<g id="edge1" class="edge">
<title>Node1&#45;&gt;Node2</title>
<path fill="none" stroke="#63b8ff" d="M258.43,-39C250.34,-39 242.12,-39 234.26,-39"/>
<polygon fill="#63b8ff" stroke="#63b8ff" points="258.22,-42.5 268.22,-39 258.22,-35.5 258.22,-42.5"/>
</g>
<!-- Node3 -->
<g id="node3" class="node">
<title>Node3</title>
<g id="a_node3"><a xlink:href="class_urho3_d_1_1_scroll_bar.html#a35a63661b56542699c9c8136681b8a8f" target="_top" xlink:title=" ">
<polygon fill="white" stroke="#666666" points="99,-78 0,-78 0,-48 99,-48 99,-78"/>
<text text-anchor="start" x="8" y="-66" font-family="Roboto" font-size="10.00">Urho3D::ScrollBar::</text>
<text text-anchor="middle" x="49.5" y="-55" font-family="Roboto" font-size="10.00">RegisterObject</text>
</a>
</g>
</g>
<!-- Node2&#45;&gt;Node3 -->
<g id="edge2" class="edge">
<title>Node2&#45;&gt;Node3</title>
<path fill="none" stroke="#63b8ff" d="M123.43,-49.84C115.34,-51.3 107.12,-52.78 99.26,-54.2"/>
<polygon fill="#63b8ff" stroke="#63b8ff" points="124.02,-53.29 133.24,-48.07 122.78,-46.4 124.02,-53.29"/>
</g>
<!-- Node4 -->
<g id="node4" class="node">
<title>Node4</title>
<g id="a_node4"><a xlink:href="class_urho3_d_1_1_scroll_bar.html#a99bb20f41060e8a1641430ccf8c71606" target="_top" xlink:title="Construct.">
<polygon fill="white" stroke="#666666" points="99,-30 0,-30 0,0 99,0 99,-30"/>
<text text-anchor="start" x="8" y="-18" font-family="Roboto" font-size="10.00">Urho3D::ScrollBar::</text>
<text text-anchor="middle" x="49.5" y="-7" font-family="Roboto" font-size="10.00">ScrollBar</text>
</a>
</g>
</g>
<!-- Node2&#45;&gt;Node4 -->
<g id="edge3" class="edge">
<title>Node2&#45;&gt;Node4</title>
<path fill="none" stroke="#63b8ff" d="M123.43,-28.16C115.34,-26.7 107.12,-25.22 99.26,-23.8"/>
<polygon fill="#63b8ff" stroke="#63b8ff" points="122.78,-31.6 133.24,-29.93 124.02,-24.71 122.78,-31.6"/>
</g>
</g>
</svg>
