<?xml version="1.0" encoding="UTF-8" standalone="no"?>
<!DOCTYPE svg PUBLIC "-//W3C//DTD SVG 1.1//EN"
 "http://www.w3.org/Graphics/SVG/1.1/DTD/svg11.dtd">
<!-- Generated by graphviz version 7.0.3 (0)
 -->
<!-- Title: Urho3D::Zone::SetOverride Pages: 1 -->
<svg width="659pt" height="152pt"
 viewBox="0.00 0.00 659.00 152.00" xmlns="http://www.w3.org/2000/svg" xmlns:xlink="http://www.w3.org/1999/xlink">
<g id="graph0" class="graph" transform="scale(1 1) rotate(0) translate(4 148)">
<title>Urho3D::Zone::SetOverride</title>
<!-- Node1 -->
<g id="node1" class="node">
<title>Node1</title>
<g id="a_node1"><a xlink:title=" ">
<polygon fill="#999999" stroke="#666666" points="134,-90.5 0,-90.5 0,-71.5 134,-71.5 134,-90.5"/>
<text text-anchor="middle" x="67" y="-78.5" font-family="Roboto" font-size="10.00">Urho3D::Zone::SetOverride</text>
</a>
</g>
</g>
<!-- Node2 -->
<g id="node2" class="node">
<title>Node2</title>
<g id="a_node2"><a xlink:href="class_urho3_d_1_1_component.html#aaf87acb64001774c62f0784254f9b291" target="_top" xlink:title="Mark for attribute check on the next network update.">
<polygon fill="white" stroke="#666666" points="281,-96 170,-96 170,-66 281,-66 281,-96"/>
<text text-anchor="start" x="178" y="-84" font-family="Roboto" font-size="10.00">Urho3D::Component::</text>
<text text-anchor="middle" x="225.5" y="-73" font-family="Roboto" font-size="10.00">MarkNetworkUpdate</text>
</a>
</g>
</g>
<!-- Node1&#45;&gt;Node2 -->
<g id="edge1" class="edge">
<title>Node1&#45;&gt;Node2</title>
<path fill="none" stroke="#63b8ff" d="M134.37,-81C142.32,-81 150.43,-81 158.38,-81"/>
<polygon fill="#63b8ff" stroke="#63b8ff" points="158.34,-84.5 168.34,-81 158.34,-77.5 158.34,-84.5"/>
</g>
<!-- Node3 -->
<g id="node3" class="node">
<title>Node3</title>
<g id="a_node3"><a xlink:href="class_urho3_d_1_1_component.html#a2c22f727341671a0420934f249ffe059" target="_top" xlink:title="Return the scene the node belongs to.">
<polygon fill="white" stroke="#666666" points="446.5,-144 335.5,-144 335.5,-114 446.5,-114 446.5,-144"/>
<text text-anchor="start" x="343.5" y="-132" font-family="Roboto" font-size="10.00">Urho3D::Component::</text>
<text text-anchor="middle" x="391" y="-121" font-family="Roboto" font-size="10.00">GetScene</text>
</a>
</g>
</g>
<!-- Node2&#45;&gt;Node3 -->
<g id="edge2" class="edge">
<title>Node2&#45;&gt;Node3</title>
<path fill="none" stroke="#63b8ff" d="M279.13,-96.45C294.3,-100.91 311.01,-105.81 326.75,-110.43"/>
<polygon fill="#63b8ff" stroke="#63b8ff" points="325.43,-113.69 336.01,-113.15 327.4,-106.98 325.43,-113.69"/>
</g>
<!-- Node5 -->
<g id="node5" class="node">
<title>Node5</title>
<g id="a_node5"><a xlink:href="class_urho3_d_1_1_component.html#a8f1388c232ca01b7c7328c761aae6e76" target="_top" xlink:title=" ">
<polygon fill="white" stroke="#666666" points="446.5,-96 335.5,-96 335.5,-66 446.5,-66 446.5,-96"/>
<text text-anchor="start" x="343.5" y="-84" font-family="Roboto" font-size="10.00">Urho3D::Component::</text>
<text text-anchor="middle" x="391" y="-73" font-family="Roboto" font-size="10.00">IsReplicated</text>
</a>
</g>
</g>
<!-- Node2&#45;&gt;Node5 -->
<g id="edge4" class="edge">
<title>Node2&#45;&gt;Node5</title>
<path fill="none" stroke="#63b8ff" d="M281.4,-81C295.09,-81 309.91,-81 324.07,-81"/>
<polygon fill="#63b8ff" stroke="#63b8ff" points="323.73,-84.5 333.73,-81 323.73,-77.5 323.73,-84.5"/>
</g>
<!-- Node7 -->
<g id="node7" class="node">
<title>Node7</title>
<g id="a_node7"><a xlink:href="class_urho3_d_1_1_scene.html#a00b724dfff718639b9de12d71139499c" target="_top" xlink:title="Mark for attribute check on the next network update.">
<polygon fill="white" stroke="#666666" points="465,-30 317,-30 317,0 465,0 465,-30"/>
<text text-anchor="start" x="325" y="-18" font-family="Roboto" font-size="10.00">Urho3D::Scene::MarkNetwork</text>
<text text-anchor="middle" x="391" y="-7" font-family="Roboto" font-size="10.00">Update</text>
</a>
</g>
</g>
<!-- Node2&#45;&gt;Node7 -->
<g id="edge6" class="edge">
<title>Node2&#45;&gt;Node7</title>
<path fill="none" stroke="#63b8ff" d="M264.83,-65.53C287.61,-56.33 316.72,-44.58 341.13,-34.73"/>
<polygon fill="#63b8ff" stroke="#63b8ff" points="342.26,-38.05 350.22,-31.06 339.64,-31.56 342.26,-38.05"/>
</g>
<!-- Node4 -->
<g id="node4" class="node">
<title>Node4</title>
<g id="a_node4"><a xlink:href="class_urho3_d_1_1_node.html#ad3742cda838a2b291daa44d3ab00de56" target="_top" xlink:title=" ">
<polygon fill="white" stroke="#666666" points="639,-138.5 513,-138.5 513,-119.5 639,-119.5 639,-138.5"/>
<text text-anchor="middle" x="576" y="-126.5" font-family="Roboto" font-size="10.00">Urho3D::Node::GetScene</text>
</a>
</g>
</g>
<!-- Node3&#45;&gt;Node4 -->
<g id="edge3" class="edge">
<title>Node3&#45;&gt;Node4</title>
<path fill="none" stroke="#63b8ff" d="M446.91,-129C464,-129 483.14,-129 501.3,-129"/>
<polygon fill="#63b8ff" stroke="#63b8ff" points="501.24,-132.5 511.24,-129 501.24,-125.5 501.24,-132.5"/>
</g>
<!-- Node6 -->
<g id="node6" class="node">
<title>Node6</title>
<g id="a_node6"><a xlink:href="class_urho3_d_1_1_scene.html#a97fb1222bd2f38e6c1c433c0b7e54d40" target="_top" xlink:title="Return whether the specified id is a replicated id.">
<polygon fill="white" stroke="#666666" points="651,-90.5 501,-90.5 501,-71.5 651,-71.5 651,-90.5"/>
<text text-anchor="middle" x="576" y="-78.5" font-family="Roboto" font-size="10.00">Urho3D::Scene::IsReplicatedID</text>
</a>
</g>
</g>
<!-- Node5&#45;&gt;Node6 -->
<g id="edge5" class="edge">
<title>Node5&#45;&gt;Node6</title>
<path fill="none" stroke="#63b8ff" d="M446.91,-81C460.2,-81 474.72,-81 489.07,-81"/>
<polygon fill="#63b8ff" stroke="#63b8ff" points="488.99,-84.5 498.99,-81 488.99,-77.5 488.99,-84.5"/>
</g>
<!-- Node7&#45;&gt;Node7 -->
<g id="edge7" class="edge">
<title>Node7&#45;&gt;Node7</title>
<path fill="none" stroke="#63b8ff" d="M361.91,-30.28C355.44,-39.41 365.14,-48 391,-48 405.14,-48 414.45,-45.43 418.92,-41.61"/>
<polygon fill="#63b8ff" stroke="#63b8ff" points="422.39,-42.09 419.94,-31.78 415.43,-41.37 422.39,-42.09"/>
</g>
</g>
</svg>
