<?xml version="1.0" encoding="UTF-8" standalone="no"?>
<!DOCTYPE svg PUBLIC "-//W3C//DTD SVG 1.1//EN"
 "http://www.w3.org/Graphics/SVG/1.1/DTD/svg11.dtd">
<!-- Generated by graphviz version 7.0.3 (0)
 -->
<!-- Title: Urho3D::UIElement::LoadXML Pages: 1 -->
<svg width="764pt" height="731pt"
 viewBox="0.00 0.00 764.00 731.12" xmlns="http://www.w3.org/2000/svg" xmlns:xlink="http://www.w3.org/1999/xlink">
<g id="graph0" class="graph" transform="scale(1 1) rotate(0) translate(4 727.12)">
<title>Urho3D::UIElement::LoadXML</title>
<!-- Node1 -->
<g id="node1" class="node">
<title>Node1</title>
<g id="a_node1"><a xlink:title="Load from XML data with style. Return true if successful.">
<polygon fill="#999999" stroke="#666666" points="105,-305.12 0,-305.12 0,-275.12 105,-275.12 105,-305.12"/>
<text text-anchor="start" x="8" y="-293.12" font-family="Roboto" font-size="10.00">Urho3D::UIElement::</text>
<text text-anchor="middle" x="52.5" y="-282.12" font-family="Roboto" font-size="10.00">LoadXML</text>
</a>
</g>
</g>
<!-- Node2 -->
<g id="node2" class="node">
<title>Node2</title>
<g id="a_node2"><a xlink:href="class_urho3_d_1_1_u_i_element.html#a7e286d16e39b54282ca0d64666d26b67" target="_top" xlink:title="Disable automatic layout update. Should only be used if there are performance problems.">
<polygon fill="white" stroke="#666666" points="251,-692.12 141,-692.12 141,-662.12 251,-662.12 251,-692.12"/>
<text text-anchor="start" x="149" y="-680.12" font-family="Roboto" font-size="10.00">Urho3D::UIElement::</text>
<text text-anchor="middle" x="196" y="-669.12" font-family="Roboto" font-size="10.00">DisableLayoutUpdate</text>
</a>
</g>
</g>
<!-- Node1&#45;&gt;Node2 -->
<g id="edge1" class="edge">
<title>Node1&#45;&gt;Node2</title>
<path fill="none" stroke="#63b8ff" d="M53.04,-305.6C52.27,-359.1 56.39,-538.84 141,-648.12 142.95,-650.64 145.19,-652.97 147.62,-655.12"/>
<polygon fill="#63b8ff" stroke="#63b8ff" points="145.16,-657.65 155.26,-660.83 149.35,-652.04 145.16,-657.65"/>
</g>
<!-- Node3 -->
<g id="node3" class="node">
<title>Node3</title>
<g id="a_node3"><a xlink:href="class_urho3_d_1_1_string.html#a8413f000551027cd127996e3c5b00185" target="_top" xlink:title=" ">
<polygon fill="white" stroke="#666666" points="585,-41.62 472,-41.62 472,-22.62 585,-22.62 585,-41.62"/>
<text text-anchor="middle" x="528.5" y="-29.62" font-family="Roboto" font-size="10.00">Urho3D::String::Empty</text>
</a>
</g>
</g>
<!-- Node1&#45;&gt;Node3 -->
<g id="edge2" class="edge">
<title>Node1&#45;&gt;Node3</title>
<path fill="none" stroke="#63b8ff" d="M59.78,-274.67C81.64,-223.43 160.07,-59.75 287,-13.12 354.11,11.53 438.66,-5.14 487.55,-18.99"/>
<polygon fill="#63b8ff" stroke="#63b8ff" points="486.26,-22.26 496.84,-21.72 488.24,-15.54 486.26,-22.26"/>
</g>
<!-- Node4 -->
<g id="node4" class="node">
<title>Node4</title>
<g id="a_node4"><a xlink:href="class_urho3_d_1_1_x_m_l_element.html#a6de3d4f87f59ced8e52fa31f3a83873c" target="_top" xlink:title="Return attribute, or empty if missing.">
<polygon fill="white" stroke="#666666" points="584,-723.12 473,-723.12 473,-693.12 584,-693.12 584,-723.12"/>
<text text-anchor="start" x="481" y="-711.12" font-family="Roboto" font-size="10.00">Urho3D::XMLElement</text>
<text text-anchor="middle" x="528.5" y="-700.12" font-family="Roboto" font-size="10.00">::GetAttribute</text>
</a>
</g>
</g>
<!-- Node1&#45;&gt;Node4 -->
<g id="edge3" class="edge">
<title>Node1&#45;&gt;Node4</title>
<path fill="none" stroke="#63b8ff" d="M59.3,-305.44C71.6,-336.88 102.37,-410.27 141,-464.12 194.86,-539.2 210.72,-559.98 287,-612.12 340.94,-648.99 411.15,-674.94 461.77,-690.48"/>
<polygon fill="#63b8ff" stroke="#63b8ff" points="460.55,-693.77 471.13,-693.3 462.56,-687.07 460.55,-693.77"/>
</g>
<!-- Node7 -->
<g id="node7" class="node">
<title>Node7</title>
<g id="a_node7"><a xlink:href="class_urho3_d_1_1_u_i_element.html#a3d28ede8516793a770ac92887bc25428" target="_top" xlink:title="Return default style.">
<polygon fill="white" stroke="#666666" points="405,-262.12 300,-262.12 300,-232.12 405,-232.12 405,-262.12"/>
<text text-anchor="start" x="308" y="-250.12" font-family="Roboto" font-size="10.00">Urho3D::UIElement::</text>
<text text-anchor="middle" x="352.5" y="-239.12" font-family="Roboto" font-size="10.00">GetDefaultStyle</text>
</a>
</g>
</g>
<!-- Node1&#45;&gt;Node7 -->
<g id="edge6" class="edge">
<title>Node1&#45;&gt;Node7</title>
<path fill="none" stroke="#63b8ff" d="M105.29,-281.64C117.03,-279.77 129.44,-277.84 141,-276.12 190.36,-268.77 246.34,-261.09 288.15,-255.48"/>
<polygon fill="#63b8ff" stroke="#63b8ff" points="288.6,-258.95 298.05,-254.16 287.68,-252.01 288.6,-258.95"/>
</g>
<!-- Node8 -->
<g id="node8" class="node">
<title>Node8</title>
<g id="a_node8"><a xlink:href="class_urho3_d_1_1_object.html#aa70436408fab29ff5d6ea54fa1e09b9b" target="_top" xlink:title=" ">
<polygon fill="white" stroke="#666666" points="603,-267.62 454,-267.62 454,-248.62 603,-248.62 603,-267.62"/>
<text text-anchor="middle" x="528.5" y="-255.62" font-family="Roboto" font-size="10.00">Urho3D::Object::GetTypeName</text>
</a>
</g>
</g>
<!-- Node1&#45;&gt;Node8 -->
<g id="edge7" class="edge">
<title>Node1&#45;&gt;Node8</title>
<path fill="none" stroke="#63b8ff" d="M105.48,-288.49C176.27,-286.03 306.88,-280.6 418,-271.12 425.93,-270.44 434.18,-269.64 442.43,-268.78"/>
<polygon fill="#63b8ff" stroke="#63b8ff" points="442.58,-272.28 452.14,-267.72 441.82,-265.32 442.58,-272.28"/>
</g>
<!-- Node9 -->
<g id="node9" class="node">
<title>Node9</title>
<g id="a_node9"><a xlink:href="class_urho3_d_1_1_animatable.html#afa12710c0500b10d8e68eb6f62847204" target="_top" xlink:title="Load from XML data. Return true if successful.">
<polygon fill="white" stroke="#666666" points="248,-455.12 144,-455.12 144,-425.12 248,-425.12 248,-455.12"/>
<text text-anchor="start" x="152" y="-443.12" font-family="Roboto" font-size="10.00">Urho3D::Animatable</text>
<text text-anchor="middle" x="196" y="-432.12" font-family="Roboto" font-size="10.00">::LoadXML</text>
</a>
</g>
</g>
<!-- Node1&#45;&gt;Node9 -->
<g id="edge8" class="edge">
<title>Node1&#45;&gt;Node9</title>
<path fill="none" stroke="#63b8ff" d="M68.11,-305.61C93.02,-332.02 143.86,-385.9 173.06,-416.86"/>
<polygon fill="#63b8ff" stroke="#63b8ff" points="170.23,-418.97 179.64,-423.84 175.33,-414.16 170.23,-418.97"/>
</g>
<!-- Node111 -->
<g id="node22" class="node">
<title>Node111</title>
<g id="a_node22"><a xlink:href="class_urho3_d_1_1_u_i_element.html#a5d10d20f7ac82fb058247e2aa8b5f2c1" target="_top" xlink:title="Set style from an XML file. Find the style element by name. If the style file is not explicitly provi...">
<polygon fill="white" stroke="#666666" points="248.5,-176.12 143.5,-176.12 143.5,-146.12 248.5,-146.12 248.5,-176.12"/>
<text text-anchor="start" x="151.5" y="-164.12" font-family="Roboto" font-size="10.00">Urho3D::UIElement::</text>
<text text-anchor="middle" x="196" y="-153.12" font-family="Roboto" font-size="10.00">SetStyle</text>
</a>
</g>
</g>
<!-- Node1&#45;&gt;Node111 -->
<g id="edge36" class="edge">
<title>Node1&#45;&gt;Node111</title>
<path fill="none" stroke="#63b8ff" d="M70.29,-274.81C94.97,-252.31 141.22,-210.15 169.93,-183.97"/>
<polygon fill="#63b8ff" stroke="#63b8ff" points="172.08,-186.75 177.12,-177.42 167.37,-181.57 172.08,-186.75"/>
</g>
<!-- Node5 -->
<g id="node5" class="node">
<title>Node5</title>
<g id="a_node5"><a xlink:href="class_urho3_d_1_1_string.html#a3e075eaafa63ccbe5b6f28a2ad7a50ad" target="_top" xlink:title="Return the C string.">
<polygon fill="white" stroke="#666666" points="756,-424.62 639,-424.62 639,-405.62 756,-405.62 756,-424.62"/>
<text text-anchor="middle" x="697.5" y="-412.62" font-family="Roboto" font-size="10.00">Urho3D::String::CString</text>
</a>
</g>
</g>
<!-- Node4&#45;&gt;Node5 -->
<g id="edge4" class="edge">
<title>Node4&#45;&gt;Node5</title>
<path fill="none" stroke="#63b8ff" d="M584.16,-696.7C591.1,-693.49 597.63,-689.38 603,-684.12 674.42,-614.04 691.35,-486.64 695.31,-436.35"/>
<polygon fill="#63b8ff" stroke="#63b8ff" points="698.79,-436.79 695.98,-426.57 691.81,-436.31 698.79,-436.79"/>
</g>
<!-- Node6 -->
<g id="node6" class="node">
<title>Node6</title>
<g id="a_node6"><a xlink:href="class_urho3_d_1_1_x_m_l_element.html#afd561acf36305fd70cf86f60f666798f" target="_top" xlink:title="Return attribute as C string, or null if missing.">
<polygon fill="white" stroke="#666666" points="753,-699.12 642,-699.12 642,-669.12 753,-669.12 753,-699.12"/>
<text text-anchor="start" x="650" y="-687.12" font-family="Roboto" font-size="10.00">Urho3D::XMLElement</text>
<text text-anchor="middle" x="697.5" y="-676.12" font-family="Roboto" font-size="10.00">::GetAttributeCString</text>
</a>
</g>
</g>
<!-- Node4&#45;&gt;Node6 -->
<g id="edge5" class="edge">
<title>Node4&#45;&gt;Node6</title>
<path fill="none" stroke="#63b8ff" d="M584.18,-700.26C599.03,-698.13 615.27,-695.79 630.66,-693.58"/>
<polygon fill="#63b8ff" stroke="#63b8ff" points="630.8,-697.1 640.2,-692.21 629.8,-690.17 630.8,-697.1"/>
</g>
<!-- Node9&#45;&gt;Node4 -->
<g id="edge9" class="edge">
<title>Node9&#45;&gt;Node4</title>
<path fill="none" stroke="#63b8ff" d="M202.93,-455.3C214.68,-483.45 243.61,-543.91 287,-577.12 335.66,-614.37 370.65,-581.22 418,-620.12 443.22,-640.84 428.77,-663.42 454,-684.12 456.66,-686.3 459.53,-688.29 462.54,-690.1"/>
<polygon fill="#63b8ff" stroke="#63b8ff" points="460.69,-693.09 471.18,-694.59 463.92,-686.88 460.69,-693.09"/>
</g>
<!-- Node10 -->
<g id="node10" class="node">
<title>Node10</title>
<g id="a_node10"><a xlink:href="class_urho3_d_1_1_x_m_l_element.html#abb0379163b8d534a37e24740a4e0cd0f" target="_top" xlink:title="Return child element, or null if missing.">
<polygon fill="white" stroke="#666666" points="584,-430.12 473,-430.12 473,-400.12 584,-400.12 584,-430.12"/>
<text text-anchor="start" x="481" y="-418.12" font-family="Roboto" font-size="10.00">Urho3D::XMLElement</text>
<text text-anchor="middle" x="528.5" y="-407.12" font-family="Roboto" font-size="10.00">::GetChild</text>
</a>
</g>
</g>
<!-- Node9&#45;&gt;Node10 -->
<g id="edge10" class="edge">
<title>Node9&#45;&gt;Node10</title>
<path fill="none" stroke="#63b8ff" d="M248.39,-442.13C261.02,-442.54 274.49,-442.91 287,-443.12 345.21,-444.09 360.23,-450.39 418,-443.12 434.13,-441.09 451.3,-437.44 467.13,-433.43"/>
<polygon fill="#63b8ff" stroke="#63b8ff" points="467.61,-436.92 476.39,-431 465.83,-430.15 467.61,-436.92"/>
</g>
<!-- Node11 -->
<g id="node11" class="node">
<title>Node11</title>
<g id="a_node11"><a xlink:href="class_urho3_d_1_1_x_m_l_element.html#af7c1e4d20b23c78b43b10a7d11d5aafd" target="_top" xlink:title="Return a float attribute, or zero if missing.">
<polygon fill="white" stroke="#666666" points="408,-568.12 297,-568.12 297,-538.12 408,-538.12 408,-568.12"/>
<text text-anchor="start" x="305" y="-556.12" font-family="Roboto" font-size="10.00">Urho3D::XMLElement</text>
<text text-anchor="middle" x="352.5" y="-545.12" font-family="Roboto" font-size="10.00">::GetFloat</text>
</a>
</g>
</g>
<!-- Node9&#45;&gt;Node11 -->
<g id="edge13" class="edge">
<title>Node9&#45;&gt;Node11</title>
<path fill="none" stroke="#63b8ff" d="M208.87,-455.33C224.77,-474.83 254.77,-508.55 287,-529.12 288.97,-530.37 291.01,-531.58 293.1,-532.73"/>
<polygon fill="#63b8ff" stroke="#63b8ff" points="291.34,-535.76 301.85,-537.08 294.45,-529.49 291.34,-535.76"/>
</g>
<!-- Node12 -->
<g id="node12" class="node">
<title>Node12</title>
<g id="a_node12"><a xlink:href="class_urho3_d_1_1_x_m_l_element.html#a9aafd5a9e7302bcda8cf64b0664b588b" target="_top" xlink:title="Return next sibling element.">
<polygon fill="white" stroke="#666666" points="584,-364.12 473,-364.12 473,-334.12 584,-334.12 584,-364.12"/>
<text text-anchor="start" x="481" y="-352.12" font-family="Roboto" font-size="10.00">Urho3D::XMLElement</text>
<text text-anchor="middle" x="528.5" y="-341.12" font-family="Roboto" font-size="10.00">::GetNext</text>
</a>
</g>
</g>
<!-- Node9&#45;&gt;Node12 -->
<g id="edge15" class="edge">
<title>Node9&#45;&gt;Node12</title>
<path fill="none" stroke="#63b8ff" d="M222.95,-424.75C240.5,-414.96 264.5,-402.73 287,-395.12 344.53,-375.65 412.75,-363.58 461.82,-356.72"/>
<polygon fill="#63b8ff" stroke="#63b8ff" points="461.98,-360.23 471.42,-355.42 461.04,-353.3 461.98,-360.23"/>
</g>
<!-- Node13 -->
<g id="node13" class="node">
<title>Node13</title>
<g id="a_node13"><a xlink:href="class_urho3_d_1_1_serializable.html#a725a0fc06d1b050525e2d02c5e7187ad" target="_top" xlink:title="Load from XML data. Return true if successful.">
<polygon fill="#fff0f0" stroke="red" points="405,-520.12 300,-520.12 300,-490.12 405,-490.12 405,-520.12"/>
<text text-anchor="start" x="308" y="-508.12" font-family="Roboto" font-size="10.00">Urho3D::Serializable</text>
<text text-anchor="middle" x="352.5" y="-497.12" font-family="Roboto" font-size="10.00">::LoadXML</text>
</a>
</g>
</g>
<!-- Node9&#45;&gt;Node13 -->
<g id="edge18" class="edge">
<title>Node9&#45;&gt;Node13</title>
<path fill="none" stroke="#63b8ff" d="M233.61,-455.52C254.8,-464.44 281.68,-475.75 304.43,-485.31"/>
<polygon fill="#63b8ff" stroke="#63b8ff" points="302.91,-488.47 313.49,-489.13 305.63,-482.02 302.91,-488.47"/>
</g>
<!-- Node79 -->
<g id="node20" class="node">
<title>Node79</title>
<g id="a_node20"><a xlink:href="class_urho3_d_1_1_animatable.html#a1aa4f5c600142e625eec608261cca98b" target="_top" xlink:title="Set attribute animation.">
<polygon fill="#fff0f0" stroke="red" points="411.5,-348.12 293.5,-348.12 293.5,-318.12 411.5,-318.12 411.5,-348.12"/>
<text text-anchor="start" x="301.5" y="-336.12" font-family="Roboto" font-size="10.00">Urho3D::Animatable</text>
<text text-anchor="middle" x="352.5" y="-325.12" font-family="Roboto" font-size="10.00">::SetAttributeAnimation</text>
</a>
</g>
</g>
<!-- Node9&#45;&gt;Node79 -->
<g id="edge32" class="edge">
<title>Node9&#45;&gt;Node79</title>
<path fill="none" stroke="#63b8ff" d="M211.82,-424.83C228.82,-407.9 258.07,-380.59 287,-362.12 291.79,-359.06 296.96,-356.16 302.21,-353.46"/>
<polygon fill="#63b8ff" stroke="#63b8ff" points="303.53,-356.71 310.98,-349.18 300.46,-350.42 303.53,-356.71"/>
</g>
<!-- Node88 -->
<g id="node21" class="node">
<title>Node88</title>
<g id="a_node21"><a xlink:href="class_urho3_d_1_1_animatable.html#ad47a7d6d1ea14b6145dc812e2d9b8486" target="_top" xlink:title=" ">
<polygon fill="#fff0f0" stroke="red" points="406.5,-434.12 298.5,-434.12 298.5,-404.12 406.5,-404.12 406.5,-434.12"/>
<text text-anchor="start" x="306.5" y="-422.12" font-family="Roboto" font-size="10.00">Urho3D::Animatable</text>
<text text-anchor="middle" x="352.5" y="-411.12" font-family="Roboto" font-size="10.00">::SetObjectAnimation</text>
</a>
</g>
</g>
<!-- Node9&#45;&gt;Node88 -->
<g id="edge35" class="edge">
<title>Node9&#45;&gt;Node88</title>
<path fill="none" stroke="#63b8ff" d="M248.45,-433.13C260.8,-431.45 274.15,-429.63 287.02,-427.88"/>
<polygon fill="#63b8ff" stroke="#63b8ff" points="287.23,-431.39 296.66,-426.57 286.28,-424.45 287.23,-431.39"/>
</g>
<!-- Node10&#45;&gt;Node5 -->
<g id="edge11" class="edge">
<title>Node10&#45;&gt;Node5</title>
<path fill="none" stroke="#63b8ff" d="M584.18,-415.12C597.92,-415.12 612.84,-415.12 627.19,-415.12"/>
<polygon fill="#63b8ff" stroke="#63b8ff" points="627.02,-418.62 637.02,-415.12 627.02,-411.62 627.02,-418.62"/>
</g>
<!-- Node10&#45;&gt;Node10 -->
<g id="edge12" class="edge">
<title>Node10&#45;&gt;Node10</title>
<path fill="none" stroke="#63b8ff" d="M498.79,-430.39C492.19,-439.53 502.09,-448.12 528.5,-448.12 542.94,-448.12 552.45,-445.55 557.02,-441.73"/>
<polygon fill="#63b8ff" stroke="#63b8ff" points="560.48,-442.21 558.05,-431.9 553.52,-441.48 560.48,-442.21"/>
</g>
<!-- Node11&#45;&gt;Node4 -->
<g id="edge14" class="edge">
<title>Node11&#45;&gt;Node4</title>
<path fill="none" stroke="#63b8ff" d="M400.26,-568.55C406.82,-572.22 413.01,-576.7 418,-582.12 450.55,-617.5 419.61,-650.53 454,-684.12 456.69,-686.74 459.67,-689.08 462.84,-691.17"/>
<polygon fill="#63b8ff" stroke="#63b8ff" points="461.09,-694.19 471.53,-695.95 464.46,-688.06 461.09,-694.19"/>
</g>
<!-- Node12&#45;&gt;Node5 -->
<g id="edge16" class="edge">
<title>Node12&#45;&gt;Node5</title>
<path fill="none" stroke="#63b8ff" d="M568.65,-364.59C596.62,-375.64 633.92,-390.39 661.02,-401.1"/>
<polygon fill="#63b8ff" stroke="#63b8ff" points="659.59,-404.29 670.17,-404.71 662.16,-397.78 659.59,-404.29"/>
</g>
<!-- Node12&#45;&gt;Node12 -->
<g id="edge17" class="edge">
<title>Node12&#45;&gt;Node12</title>
<path fill="none" stroke="#63b8ff" d="M498.79,-364.39C492.19,-373.53 502.09,-382.12 528.5,-382.12 542.94,-382.12 552.45,-379.55 557.02,-375.73"/>
<polygon fill="#63b8ff" stroke="#63b8ff" points="560.48,-376.21 558.05,-365.9 553.52,-375.48 560.48,-376.21"/>
</g>
<!-- Node13&#45;&gt;Node4 -->
<g id="edge23" class="edge">
<title>Node13&#45;&gt;Node4</title>
<path fill="none" stroke="#63b8ff" d="M405.48,-518.93C410.15,-521.72 414.45,-525.08 418,-529.12 464.71,-582.22 406.22,-631.97 454,-684.12 456.67,-687.03 459.69,-689.58 462.95,-691.83"/>
<polygon fill="#63b8ff" stroke="#63b8ff" points="460.94,-694.72 471.36,-696.64 464.41,-688.64 460.94,-694.72"/>
</g>
<!-- Node13&#45;&gt;Node8 -->
<g id="edge27" class="edge">
<title>Node13&#45;&gt;Node8</title>
<path fill="none" stroke="#63b8ff" d="M375.32,-489.67C389.62,-478.39 407.55,-461.83 418,-443.12 454.81,-377.21 401.68,-331.54 454,-277.12 455,-276.08 456.05,-275.09 457.15,-274.15"/>
<polygon fill="#63b8ff" stroke="#63b8ff" points="458.73,-277.31 465.03,-268.79 454.79,-271.52 458.73,-277.31"/>
</g>
<!-- Node13&#45;&gt;Node10 -->
<g id="edge25" class="edge">
<title>Node13&#45;&gt;Node10</title>
<path fill="none" stroke="#63b8ff" d="M389.24,-489.7C398.67,-485.46 408.78,-480.75 418,-476.12 442.9,-463.61 470.29,-448.36 491.44,-436.23"/>
<polygon fill="#63b8ff" stroke="#63b8ff" points="493.06,-439.34 499.98,-431.31 489.57,-433.27 493.06,-439.34"/>
</g>
<!-- Node13&#45;&gt;Node12 -->
<g id="edge26" class="edge">
<title>Node13&#45;&gt;Node12</title>
<path fill="none" stroke="#63b8ff" d="M371.41,-489.68C384.9,-477.64 403.5,-460.15 418,-443.12 436.22,-421.72 433.28,-410.12 454,-391.12 462.78,-383.06 473.38,-375.9 483.75,-369.87"/>
<polygon fill="#63b8ff" stroke="#63b8ff" points="485.18,-373.07 492.24,-365.17 481.8,-366.95 485.18,-373.07"/>
</g>
<!-- Node14 -->
<g id="node14" class="node">
<title>Node14</title>
<g id="a_node14"><a xlink:href="class_urho3_d_1_1_vector.html#a253629ba660641c388bb0bf050b0cd3e" target="_top" xlink:title="Return element at index.">
<polygon fill="#fff0f0" stroke="red" points="577.5,-540.62 479.5,-540.62 479.5,-521.62 577.5,-521.62 577.5,-540.62"/>
<text text-anchor="middle" x="528.5" y="-528.62" font-family="Roboto" font-size="10.00">Urho3D::Vector::At</text>
</a>
</g>
</g>
<!-- Node13&#45;&gt;Node14 -->
<g id="edge19" class="edge">
<title>Node13&#45;&gt;Node14</title>
<path fill="none" stroke="#63b8ff" d="M405.23,-512.85C424.92,-515.79 447.51,-519.17 467.87,-522.21"/>
<polygon fill="#63b8ff" stroke="#63b8ff" points="467.33,-525.67 477.74,-523.68 468.37,-518.74 467.33,-525.67"/>
</g>
<!-- Node16 -->
<g id="node15" class="node">
<title>Node16</title>
<g id="a_node15"><a xlink:href="class_urho3_d_1_1_string.html#a0d2da282b3aede6a8e5ba3ec45ff3945" target="_top" xlink:title="Return comparison result with a string.">
<polygon fill="white" stroke="#666666" points="591,-485.62 466,-485.62 466,-466.62 591,-466.62 591,-485.62"/>
<text text-anchor="middle" x="528.5" y="-473.62" font-family="Roboto" font-size="10.00">Urho3D::String::Compare</text>
</a>
</g>
</g>
<!-- Node13&#45;&gt;Node16 -->
<g id="edge20" class="edge">
<title>Node13&#45;&gt;Node16</title>
<path fill="none" stroke="#63b8ff" d="M405.23,-496.5C421.34,-493.81 439.39,-490.8 456.57,-487.94"/>
<polygon fill="#63b8ff" stroke="#63b8ff" points="456.93,-491.43 466.21,-486.33 455.77,-484.52 456.93,-491.43"/>
</g>
<!-- Node17 -->
<g id="node16" class="node">
<title>Node17</title>
<g id="a_node16"><a xlink:href="class_urho3_d_1_1_serializable.html#a7e18871871feb97ee7cfb637e9b3e090" target="_top" xlink:title="Return attribute descriptions, or null if none defined.">
<polygon fill="#fff0f0" stroke="red" points="581,-316.12 476,-316.12 476,-286.12 581,-286.12 581,-316.12"/>
<text text-anchor="start" x="484" y="-304.12" font-family="Roboto" font-size="10.00">Urho3D::Serializable</text>
<text text-anchor="middle" x="528.5" y="-293.12" font-family="Roboto" font-size="10.00">::GetAttributes</text>
</a>
</g>
</g>
<!-- Node13&#45;&gt;Node17 -->
<g id="edge24" class="edge">
<title>Node13&#45;&gt;Node17</title>
<path fill="none" stroke="#63b8ff" d="M374.52,-489.63C388.66,-478.21 406.7,-461.52 418,-443.12 446.69,-396.39 415.61,-364.27 454,-325.12 457.38,-321.67 461.27,-318.71 465.45,-316.18"/>
<polygon fill="#63b8ff" stroke="#63b8ff" points="466.95,-319.35 474.29,-311.7 463.78,-313.1 466.95,-319.35"/>
</g>
<!-- Node28 -->
<g id="node17" class="node">
<title>Node28</title>
<g id="a_node17"><a xlink:href="class_urho3_d_1_1_x_m_l_element.html#af5aeb48b8ff507f49752705f0a127114" target="_top" xlink:title="Return a variant attribute with static type.">
<polygon fill="#fff0f0" stroke="red" points="584,-675.12 473,-675.12 473,-645.12 584,-645.12 584,-675.12"/>
<text text-anchor="start" x="481" y="-663.12" font-family="Roboto" font-size="10.00">Urho3D::XMLElement</text>
<text text-anchor="middle" x="528.5" y="-652.12" font-family="Roboto" font-size="10.00">::GetVariantValue</text>
</a>
</g>
</g>
<!-- Node13&#45;&gt;Node28 -->
<g id="edge28" class="edge">
<title>Node13&#45;&gt;Node28</title>
<path fill="none" stroke="#63b8ff" d="M405.41,-519.47C410.04,-522.16 414.34,-525.34 418,-529.12 452.91,-565.16 418.36,-600.8 454,-636.12 456.67,-638.76 459.63,-641.12 462.8,-643.21"/>
<polygon fill="#63b8ff" stroke="#63b8ff" points="461.02,-646.23 471.46,-648.02 464.42,-640.11 461.02,-646.23"/>
</g>
<!-- Node53 -->
<g id="node18" class="node">
<title>Node53</title>
<g id="a_node18"><a xlink:href="class_urho3_d_1_1_variant.html#a5cdfda6b6a036a4d462f45669734dcd4" target="_top" xlink:title=" ">
<polygon fill="white" stroke="#666666" points="591.5,-626.62 465.5,-626.62 465.5,-607.62 591.5,-607.62 591.5,-626.62"/>
<text text-anchor="middle" x="528.5" y="-614.62" font-family="Roboto" font-size="10.00">Urho3D::Variant::IsEmpty</text>
</a>
</g>
</g>
<!-- Node13&#45;&gt;Node53 -->
<g id="edge30" class="edge">
<title>Node13&#45;&gt;Node53</title>
<path fill="none" stroke="#63b8ff" d="M405.47,-520.43C409.97,-522.92 414.24,-525.8 418,-529.12 443.93,-552.01 426.92,-576.6 454,-598.12 455.74,-599.5 457.57,-600.79 459.47,-601.98"/>
<polygon fill="#63b8ff" stroke="#63b8ff" points="457.65,-604.97 468.14,-606.49 460.89,-598.77 457.65,-604.97"/>
</g>
<!-- Node54 -->
<g id="node19" class="node">
<title>Node54</title>
<g id="a_node19"><a xlink:href="class_urho3_d_1_1_x_m_l_element.html#ad7c2e67e5dfefddc309e1c809aa1ba74" target="_top" xlink:title=" ">
<polygon fill="#fff0f0" stroke="red" points="584,-589.12 473,-589.12 473,-559.12 584,-559.12 584,-589.12"/>
<text text-anchor="start" x="481" y="-577.12" font-family="Roboto" font-size="10.00">Urho3D::XMLElement</text>
<text text-anchor="middle" x="528.5" y="-566.12" font-family="Roboto" font-size="10.00">::IsNull</text>
</a>
</g>
</g>
<!-- Node13&#45;&gt;Node54 -->
<g id="edge31" class="edge">
<title>Node13&#45;&gt;Node54</title>
<path fill="none" stroke="#63b8ff" d="M397.98,-520.52C404.77,-523.2 411.63,-526.1 418,-529.12 434.74,-537.04 437.1,-542.53 454,-550.12 457.54,-551.71 461.21,-553.24 464.94,-554.71"/>
<polygon fill="#63b8ff" stroke="#63b8ff" points="463.56,-557.93 474.15,-558.17 466.02,-551.38 463.56,-557.93"/>
</g>
<!-- Node16&#45;&gt;Node5 -->
<g id="edge22" class="edge">
<title>Node16&#45;&gt;Node5</title>
<path fill="none" stroke="#63b8ff" d="M573.01,-466.17C582.96,-463.54 593.42,-460.48 603,-457.12 624.93,-449.42 648.83,-438.64 666.97,-429.93"/>
<polygon fill="#63b8ff" stroke="#63b8ff" points="668.38,-433.14 675.83,-425.62 665.31,-426.85 668.38,-433.14"/>
</g>
<!-- Node16&#45;&gt;Node16 -->
<g id="edge21" class="edge">
<title>Node16&#45;&gt;Node16</title>
<path fill="none" stroke="#63b8ff" d="M502.04,-485.99C489.97,-494.56 498.79,-503.62 528.5,-503.62 545.21,-503.62 555.31,-500.75 558.8,-496.72"/>
<polygon fill="#63b8ff" stroke="#63b8ff" points="562.14,-495.64 555.47,-487.41 555.55,-498.01 562.14,-495.64"/>
</g>
<!-- Node28&#45;&gt;Node6 -->
<g id="edge29" class="edge">
<title>Node28&#45;&gt;Node6</title>
<path fill="none" stroke="#63b8ff" d="M584.18,-667.98C599.03,-670.11 615.27,-672.44 630.66,-674.66"/>
<polygon fill="#63b8ff" stroke="#63b8ff" points="629.8,-678.07 640.2,-676.03 630.8,-671.14 629.8,-678.07"/>
</g>
<!-- Node79&#45;&gt;Node8 -->
<g id="edge34" class="edge">
<title>Node79&#45;&gt;Node8</title>
<path fill="none" stroke="#63b8ff" d="M391.38,-317.77C400.31,-313.7 409.65,-309.05 418,-304.12 435.23,-293.96 435.98,-285.79 454,-277.12 458.21,-275.09 462.66,-273.27 467.21,-271.62"/>
<polygon fill="#63b8ff" stroke="#63b8ff" points="468.08,-275.02 476.48,-268.57 465.89,-268.37 468.08,-275.02"/>
</g>
<!-- Node79&#45;&gt;Node17 -->
<g id="edge33" class="edge">
<title>Node79&#45;&gt;Node17</title>
<path fill="none" stroke="#63b8ff" d="M411.92,-322.37C428.85,-319.26 447.4,-315.85 464.59,-312.69"/>
<polygon fill="#63b8ff" stroke="#63b8ff" points="464.97,-316.18 474.17,-310.93 463.7,-309.29 464.97,-316.18"/>
</g>
<!-- Node111&#45;&gt;Node3 -->
<g id="edge37" class="edge">
<title>Node111&#45;&gt;Node3</title>
<path fill="none" stroke="#63b8ff" d="M211.78,-145.78C228.51,-129.32 257.32,-103.59 287,-89.12 317.5,-74.25 402.11,-55.99 462.33,-44.22"/>
<polygon fill="#63b8ff" stroke="#63b8ff" points="462.63,-47.72 471.78,-42.38 461.3,-40.85 462.63,-47.72"/>
</g>
<!-- Node111&#45;&gt;Node7 -->
<g id="edge38" class="edge">
<title>Node111&#45;&gt;Node7</title>
<path fill="none" stroke="#63b8ff" d="M219.4,-176.56C237.29,-188.59 263.22,-205.33 287,-218.12 292.68,-221.17 298.74,-224.2 304.8,-227.07"/>
<polygon fill="#63b8ff" stroke="#63b8ff" points="302.98,-230.09 313.53,-231.11 305.92,-223.74 302.98,-230.09"/>
</g>
<!-- Node111&#45;&gt;Node8 -->
<g id="edge41" class="edge">
<title>Node111&#45;&gt;Node8</title>
<path fill="none" stroke="#63b8ff" d="M248.95,-175.13C293.83,-187.37 360.36,-205.83 418,-223.12 440.74,-229.94 466,-237.98 486.51,-244.63"/>
<polygon fill="#63b8ff" stroke="#63b8ff" points="485.35,-247.94 495.94,-247.7 487.51,-241.28 485.35,-247.94"/>
</g>
<!-- Node111&#45;&gt;Node111 -->
<g id="edge43" class="edge">
<title>Node111&#45;&gt;Node111</title>
<path fill="none" stroke="#63b8ff" d="M170.78,-176.39C165.17,-185.53 173.58,-194.12 196,-194.12 208.26,-194.12 216.33,-191.55 220.21,-187.73"/>
<polygon fill="#63b8ff" stroke="#63b8ff" points="223.69,-188.17 221.09,-177.9 216.71,-187.55 223.69,-188.17"/>
</g>
<!-- Node112 -->
<g id="node23" class="node">
<title>Node112</title>
<g id="a_node23"><a xlink:href="class_urho3_d_1_1_x_m_l_file.html#a657534de06bc465c977cc3c28139cec4" target="_top" xlink:title="Return the root element, with optionally specified name. Return null element if not found.">
<polygon fill="white" stroke="#666666" points="418,-41.62 287,-41.62 287,-22.62 418,-22.62 418,-41.62"/>
<text text-anchor="middle" x="352.5" y="-29.62" font-family="Roboto" font-size="10.00">Urho3D::XMLFile::GetRoot</text>
</a>
</g>
</g>
<!-- Node111&#45;&gt;Node112 -->
<g id="edge39" class="edge">
<title>Node111&#45;&gt;Node112</title>
<path fill="none" stroke="#63b8ff" d="M206.47,-145.77C221.13,-123.18 251.36,-80.99 287,-56.12 292.4,-52.35 298.46,-49.1 304.65,-46.3"/>
<polygon fill="#63b8ff" stroke="#63b8ff" points="305.76,-49.63 313.69,-42.61 303.11,-43.15 305.76,-49.63"/>
</g>
<!-- Node113 -->
<g id="node24" class="node">
<title>Node113</title>
<g id="a_node24"><a xlink:href="class_urho3_d_1_1_x_m_l_element.html#a49f0b7c1cec40b16581bc24d86ee5e25" target="_top" xlink:title="Select an element/attribute using XPath query.">
<polygon fill="#fff0f0" stroke="red" points="409,-176.12 296,-176.12 296,-146.12 409,-146.12 409,-176.12"/>
<text text-anchor="start" x="304" y="-164.12" font-family="Roboto" font-size="10.00">Urho3D::XMLElement</text>
<text text-anchor="middle" x="352.5" y="-153.12" font-family="Roboto" font-size="10.00">::SelectSinglePrepared</text>
</a>
</g>
</g>
<!-- Node111&#45;&gt;Node113 -->
<g id="edge42" class="edge">
<title>Node111&#45;&gt;Node113</title>
<path fill="none" stroke="#63b8ff" d="M248.88,-161.12C260.24,-161.12 272.42,-161.12 284.28,-161.12"/>
<polygon fill="#63b8ff" stroke="#63b8ff" points="284.01,-164.62 294.01,-161.12 284.01,-157.62 284.01,-164.62"/>
</g>
<!-- Node116 -->
<g id="node25" class="node">
<title>Node116</title>
<g id="a_node25"><a xlink:href="class_urho3_d_1_1_x_path_query.html#ae49880eeaa6a9bd48f2f6aaa2058d0e2" target="_top" xlink:title="Add/Set a bool variable. Return true if successful.">
<polygon fill="white" stroke="#666666" points="405.5,-128.12 299.5,-128.12 299.5,-98.12 405.5,-98.12 405.5,-128.12"/>
<text text-anchor="start" x="307.5" y="-116.12" font-family="Roboto" font-size="10.00">Urho3D::XPathQuery</text>
<text text-anchor="middle" x="352.5" y="-105.12" font-family="Roboto" font-size="10.00">::SetVariable</text>
</a>
</g>
</g>
<!-- Node111&#45;&gt;Node116 -->
<g id="edge44" class="edge">
<title>Node111&#45;&gt;Node116</title>
<path fill="none" stroke="#63b8ff" d="M246.74,-145.67C260.79,-141.3 276.25,-136.5 290.88,-131.95"/>
<polygon fill="#63b8ff" stroke="#63b8ff" points="291.9,-135.3 300.41,-128.99 289.82,-128.62 291.9,-135.3"/>
</g>
<!-- Node112&#45;&gt;Node3 -->
<g id="edge40" class="edge">
<title>Node112&#45;&gt;Node3</title>
<path fill="none" stroke="#63b8ff" d="M418.29,-32.12C431.95,-32.12 446.4,-32.12 460.15,-32.12"/>
<polygon fill="#63b8ff" stroke="#63b8ff" points="460,-35.62 470,-32.12 460,-28.62 460,-35.62"/>
</g>
<!-- Node116&#45;&gt;Node5 -->
<g id="edge45" class="edge">
<title>Node116&#45;&gt;Node5</title>
<path fill="none" stroke="#63b8ff" d="M405.88,-128.44C461,-146.87 547.34,-182.58 603,-239.12 648.8,-285.64 677.88,-359.18 690,-394.65"/>
<polygon fill="#63b8ff" stroke="#63b8ff" points="686.53,-395.29 692.99,-403.69 693.18,-393.1 686.53,-395.29"/>
</g>
</g>
</svg>
