<?xml version="1.0" encoding="UTF-8" standalone="no"?>
<!DOCTYPE svg PUBLIC "-//W3C//DTD SVG 1.1//EN"
 "http://www.w3.org/Graphics/SVG/1.1/DTD/svg11.dtd">
<!-- Generated by graphviz version 7.0.3 (0)
 -->
<!-- Title: Urho3D::Window::OnDragCancel Pages: 1 -->
<svg width="785pt" height="746pt"
 viewBox="0.00 0.00 785.00 746.00" xmlns="http://www.w3.org/2000/svg" xmlns:xlink="http://www.w3.org/1999/xlink">
<g id="graph0" class="graph" transform="scale(1 1) rotate(0) translate(4 742)">
<title>Urho3D::Window::OnDragCancel</title>
<!-- Node1 -->
<g id="node1" class="node">
<title>Node1</title>
<g id="a_node1"><a xlink:title="React to mouse drag cancel.">
<polygon fill="#999999" stroke="#666666" points="158,-618.5 0,-618.5 0,-599.5 158,-599.5 158,-618.5"/>
<text text-anchor="middle" x="79" y="-606.5" font-family="Roboto" font-size="10.00">Urho3D::Window::OnDragCancel</text>
</a>
</g>
</g>
<!-- Node2 -->
<g id="node2" class="node">
<title>Node2</title>
<g id="a_node2"><a xlink:href="class_urho3_d_1_1_u_i_element.html#a2f50d2d42d33aa24052974be41abc999" target="_top" xlink:title="React to a mouse drag cancel event (ie, when an extra button is pressed).">
<polygon fill="white" stroke="#666666" points="299,-672 194,-672 194,-642 299,-642 299,-672"/>
<text text-anchor="start" x="202" y="-660" font-family="Roboto" font-size="10.00">Urho3D::UIElement::</text>
<text text-anchor="middle" x="246.5" y="-649" font-family="Roboto" font-size="10.00">OnDragCancel</text>
</a>
</g>
</g>
<!-- Node1&#45;&gt;Node2 -->
<g id="edge1" class="edge">
<title>Node1&#45;&gt;Node2</title>
<path fill="none" stroke="#63b8ff" d="M114.29,-618.95C134.07,-624.68 159.55,-632.07 182.79,-638.81"/>
<polygon fill="#63b8ff" stroke="#63b8ff" points="181.6,-642.11 192.18,-641.54 183.55,-635.39 181.6,-642.11"/>
</g>
<!-- Node3 -->
<g id="node3" class="node">
<title>Node3</title>
<g id="a_node3"><a xlink:href="class_urho3_d_1_1_u_i_element.html#a9637bdc3ff09125524784682dffaf1b5" target="_top" xlink:title=" ">
<polygon fill="white" stroke="#666666" points="299,-624 194,-624 194,-594 299,-594 299,-624"/>
<text text-anchor="start" x="202" y="-612" font-family="Roboto" font-size="10.00">Urho3D::UIElement::</text>
<text text-anchor="middle" x="246.5" y="-601" font-family="Roboto" font-size="10.00">SetPosition</text>
</a>
</g>
</g>
<!-- Node1&#45;&gt;Node3 -->
<g id="edge2" class="edge">
<title>Node1&#45;&gt;Node3</title>
<path fill="none" stroke="#63b8ff" d="M158.39,-609C166.47,-609 174.61,-609 182.5,-609"/>
<polygon fill="#63b8ff" stroke="#63b8ff" points="182.32,-612.5 192.32,-609 182.32,-605.5 182.32,-612.5"/>
</g>
<!-- Node20 -->
<g id="node9" class="node">
<title>Node20</title>
<g id="a_node9"><a xlink:href="class_urho3_d_1_1_u_i_element.html#a388303ecaef3a6d4764cf84f3dfcceb8" target="_top" xlink:title=" ">
<polygon fill="white" stroke="#666666" points="299,-495 194,-495 194,-465 299,-465 299,-495"/>
<text text-anchor="start" x="202" y="-483" font-family="Roboto" font-size="10.00">Urho3D::UIElement::</text>
<text text-anchor="middle" x="246.5" y="-472" font-family="Roboto" font-size="10.00">SetSize</text>
</a>
</g>
</g>
<!-- Node1&#45;&gt;Node20 -->
<g id="edge9" class="edge">
<title>Node1&#45;&gt;Node20</title>
<path fill="none" stroke="#63b8ff" d="M92.71,-599.09C119.16,-578.48 180.66,-530.54 217.06,-502.17"/>
<polygon fill="#63b8ff" stroke="#63b8ff" points="218.8,-505.25 224.54,-496.34 214.5,-499.72 218.8,-505.25"/>
</g>
<!-- Node4 -->
<g id="node4" class="node">
<title>Node4</title>
<g id="a_node4"><a xlink:href="class_urho3_d_1_1_object.html#a69af51cfa67f9626273b35a6d501e03e" target="_top" xlink:title="Return a preallocated map for event data. Used for optimization to avoid constant re&#45;allocation of ev...">
<polygon fill="white" stroke="#666666" points="605,-738 480,-738 480,-708 605,-708 605,-738"/>
<text text-anchor="start" x="488" y="-726" font-family="Roboto" font-size="10.00">Urho3D::Object::GetEvent</text>
<text text-anchor="middle" x="542.5" y="-715" font-family="Roboto" font-size="10.00">DataMap</text>
</a>
</g>
</g>
<!-- Node3&#45;&gt;Node4 -->
<g id="edge3" class="edge">
<title>Node3&#45;&gt;Node4</title>
<path fill="none" stroke="#63b8ff" d="M287.77,-624.42C291.82,-626.93 295.67,-629.78 299,-633 324.43,-657.6 305.73,-684.12 335,-704 373.6,-730.22 426.05,-734.76 468.43,-732.85"/>
<polygon fill="#63b8ff" stroke="#63b8ff" points="468.53,-736.35 478.3,-732.26 468.11,-729.36 468.53,-736.35"/>
</g>
<!-- Node17 -->
<g id="node6" class="node">
<title>Node17</title>
<g id="a_node6"><a xlink:href="class_urho3_d_1_1_u_i_element.html#ad18ecc5e79b04d47079bdc979eed8240" target="_top" xlink:title="Mark screen position as needing an update.">
<polygon fill="white" stroke="#666666" points="440,-576 335,-576 335,-546 440,-546 440,-576"/>
<text text-anchor="start" x="343" y="-564" font-family="Roboto" font-size="10.00">Urho3D::UIElement::</text>
<text text-anchor="middle" x="387.5" y="-553" font-family="Roboto" font-size="10.00">MarkDirty</text>
</a>
</g>
</g>
<!-- Node3&#45;&gt;Node17 -->
<g id="edge5" class="edge">
<title>Node3&#45;&gt;Node17</title>
<path fill="none" stroke="#63b8ff" d="M292.25,-593.55C304.65,-589.27 318.26,-584.57 331.18,-580.1"/>
<polygon fill="#63b8ff" stroke="#63b8ff" points="332.1,-583.49 340.41,-576.92 329.81,-576.87 332.1,-583.49"/>
</g>
<!-- Node18 -->
<g id="node7" class="node">
<title>Node18</title>
<g id="a_node7"><a xlink:href="class_urho3_d_1_1_u_i_element.html#a1bb93347504295168ef246844957e0cd" target="_top" xlink:title="React to position change.">
<polygon fill="white" stroke="#666666" points="440,-624 335,-624 335,-594 440,-594 440,-624"/>
<text text-anchor="start" x="343" y="-612" font-family="Roboto" font-size="10.00">Urho3D::UIElement::</text>
<text text-anchor="middle" x="387.5" y="-601" font-family="Roboto" font-size="10.00">OnPositionSet</text>
</a>
</g>
</g>
<!-- Node3&#45;&gt;Node18 -->
<g id="edge6" class="edge">
<title>Node3&#45;&gt;Node18</title>
<path fill="none" stroke="#63b8ff" d="M299.26,-609C307.13,-609 315.32,-609 323.4,-609"/>
<polygon fill="#63b8ff" stroke="#63b8ff" points="323.18,-612.5 333.18,-609 323.18,-605.5 323.18,-612.5"/>
</g>
<!-- Node19 -->
<g id="node8" class="node">
<title>Node19</title>
<g id="a_node8"><a xlink:href="class_urho3_d_1_1_object.html#a32020dbf77c196b9777eca479e8abb36" target="_top" xlink:title="Send event to all subscribers.">
<polygon fill="white" stroke="#666666" points="609,-671.5 476,-671.5 476,-652.5 609,-652.5 609,-671.5"/>
<text text-anchor="middle" x="542.5" y="-659.5" font-family="Roboto" font-size="10.00">Urho3D::Object::SendEvent</text>
</a>
</g>
</g>
<!-- Node3&#45;&gt;Node19 -->
<g id="edge7" class="edge">
<title>Node3&#45;&gt;Node19</title>
<path fill="none" stroke="#63b8ff" d="M299.05,-624.32C310.8,-627.48 323.28,-630.58 335,-633 377.43,-641.76 425.33,-648.67 464.3,-653.54"/>
<polygon fill="#63b8ff" stroke="#63b8ff" points="463.71,-657 474.06,-654.74 464.56,-650.05 463.71,-657"/>
</g>
<!-- Node5 -->
<g id="node5" class="node">
<title>Node5</title>
<g id="a_node5"><a xlink:href="class_urho3_d_1_1_context.html#acb628095602a49ade116c4761ab44004" target="_top" xlink:title="Return a preallocated map for event data. Used for optimization to avoid constant re&#45;allocation of ev...">
<polygon fill="#fff0f0" stroke="red" points="777,-738 645,-738 645,-708 777,-708 777,-738"/>
<text text-anchor="start" x="653" y="-726" font-family="Roboto" font-size="10.00">Urho3D::Context::GetEvent</text>
<text text-anchor="middle" x="711" y="-715" font-family="Roboto" font-size="10.00">DataMap</text>
</a>
</g>
</g>
<!-- Node4&#45;&gt;Node5 -->
<g id="edge4" class="edge">
<title>Node4&#45;&gt;Node5</title>
<path fill="none" stroke="#63b8ff" d="M605.5,-723C614.57,-723 624,-723 633.32,-723"/>
<polygon fill="#63b8ff" stroke="#63b8ff" points="633.09,-726.5 643.09,-723 633.09,-719.5 633.09,-726.5"/>
</g>
<!-- Node19&#45;&gt;Node19 -->
<g id="edge8" class="edge">
<title>Node19&#45;&gt;Node19</title>
<path fill="none" stroke="#63b8ff" d="M518.23,-671.87C507.17,-680.44 515.25,-689.5 542.5,-689.5 557.83,-689.5 567.09,-686.63 570.29,-682.6"/>
<polygon fill="#63b8ff" stroke="#63b8ff" points="573.69,-681.71 567.24,-673.31 567.04,-683.9 573.69,-681.71"/>
</g>
<!-- Node20&#45;&gt;Node4 -->
<g id="edge16" class="edge">
<title>Node20&#45;&gt;Node4</title>
<path fill="none" stroke="#63b8ff" d="M254.75,-495.27C271.34,-529.73 312.38,-612.16 335,-633 372.7,-667.74 425.94,-690.5 468.91,-704.44"/>
<polygon fill="#63b8ff" stroke="#63b8ff" points="467.85,-707.78 478.44,-707.43 469.95,-701.1 467.85,-707.78"/>
</g>
<!-- Node20&#45;&gt;Node17 -->
<g id="edge17" class="edge">
<title>Node20&#45;&gt;Node17</title>
<path fill="none" stroke="#63b8ff" d="M273.06,-495.4C290.46,-505.84 314.05,-519.88 335,-532 339.59,-534.65 344.42,-537.42 349.21,-540.14"/>
<polygon fill="#63b8ff" stroke="#63b8ff" points="347.16,-543 357.59,-544.87 350.6,-536.9 347.16,-543"/>
</g>
<!-- Node20&#45;&gt;Node19 -->
<g id="edge19" class="edge">
<title>Node20&#45;&gt;Node19</title>
<path fill="none" stroke="#63b8ff" d="M299.22,-494.05C354.43,-509.24 434.75,-531.96 440,-537 475.87,-571.48 440.03,-608.62 476,-643 477.2,-644.15 478.47,-645.23 479.8,-646.25"/>
<polygon fill="#63b8ff" stroke="#63b8ff" points="477.57,-648.99 487.92,-651.26 481.25,-643.03 477.57,-648.99"/>
</g>
<!-- Node21 -->
<g id="node10" class="node">
<title>Node21</title>
<g id="a_node10"><a xlink:href="_math_defs_8h.html#a937fef228b452d2488ce13d78f0bd810" target="_top" xlink:title=" ">
<polygon fill="white" stroke="#666666" points="752.5,-299.5 669.5,-299.5 669.5,-280.5 752.5,-280.5 752.5,-299.5"/>
<text text-anchor="middle" x="711" y="-287.5" font-family="Roboto" font-size="10.00">Urho3D::Clamp</text>
</a>
</g>
</g>
<!-- Node20&#45;&gt;Node21 -->
<g id="edge10" class="edge">
<title>Node20&#45;&gt;Node21</title>
<path fill="none" stroke="#63b8ff" d="M250.44,-464.9C263.45,-402.87 322.07,-166.68 476,-77 527.08,-47.25 559.04,-45.4 609,-77 677.63,-120.41 700.55,-224.48 707.38,-269.1"/>
<polygon fill="#63b8ff" stroke="#63b8ff" points="703.91,-269.55 708.76,-278.97 710.85,-268.58 703.91,-269.55"/>
</g>
<!-- Node22 -->
<g id="node11" class="node">
<title>Node22</title>
<g id="a_node11"><a xlink:href="class_urho3_d_1_1_u_i_element.html#a6eca4b74842f82376a1d9a7f889aa174" target="_top" xlink:title="Return effective minimum size, also considering layout. Used internally.">
<polygon fill="white" stroke="#666666" points="595,-634 490,-634 490,-604 595,-604 595,-634"/>
<text text-anchor="start" x="498" y="-622" font-family="Roboto" font-size="10.00">Urho3D::UIElement::</text>
<text text-anchor="middle" x="542.5" y="-611" font-family="Roboto" font-size="10.00">GetEffectiveMinSize</text>
</a>
</g>
</g>
<!-- Node20&#45;&gt;Node22 -->
<g id="edge12" class="edge">
<title>Node20&#45;&gt;Node22</title>
<path fill="none" stroke="#63b8ff" d="M299.33,-473.17C341.37,-470.51 400.03,-473.66 440,-504 473.01,-529.05 447,-560.4 476,-590 478.74,-592.79 481.79,-595.34 485.04,-597.65"/>
<polygon fill="#63b8ff" stroke="#63b8ff" points="482.99,-600.5 493.34,-602.79 486.68,-594.55 482.99,-600.5"/>
</g>
<!-- Node25 -->
<g id="node14" class="node">
<title>Node25</title>
<g id="a_node14"><a xlink:href="class_urho3_d_1_1_u_i_element.html#aa99ec115621b2ef219b0f17edd1ff91c" target="_top" xlink:title="React to resize.">
<polygon fill="white" stroke="#666666" points="440,-30 335,-30 335,0 440,0 440,-30"/>
<text text-anchor="start" x="343" y="-18" font-family="Roboto" font-size="10.00">Urho3D::UIElement::</text>
<text text-anchor="middle" x="387.5" y="-7" font-family="Roboto" font-size="10.00">OnResize</text>
</a>
</g>
</g>
<!-- Node20&#45;&gt;Node25 -->
<g id="edge18" class="edge">
<title>Node20&#45;&gt;Node25</title>
<path fill="none" stroke="#63b8ff" d="M248.88,-464.55C255.31,-395.31 284.2,-113.97 335,-44 336.71,-41.64 338.68,-39.44 340.83,-37.41"/>
<polygon fill="#63b8ff" stroke="#63b8ff" points="342.94,-40.2 348.63,-31.26 338.61,-34.7 342.94,-40.2"/>
</g>
<!-- Node26 -->
<g id="node15" class="node">
<title>Node26</title>
<g id="a_node15"><a xlink:href="class_urho3_d_1_1_u_i_element.html#a7cba78373c23a734a1ccd2d4a27d8cb0" target="_top" xlink:title="Manually update layout. Should not be necessary in most cases, but is provided for completeness.">
<polygon fill="#fff0f0" stroke="red" points="440,-452 335,-452 335,-422 440,-422 440,-452"/>
<text text-anchor="start" x="343" y="-440" font-family="Roboto" font-size="10.00">Urho3D::UIElement::</text>
<text text-anchor="middle" x="387.5" y="-429" font-family="Roboto" font-size="10.00">UpdateLayout</text>
</a>
</g>
</g>
<!-- Node20&#45;&gt;Node26 -->
<g id="edge20" class="edge">
<title>Node20&#45;&gt;Node26</title>
<path fill="none" stroke="#63b8ff" d="M278.69,-464.61C292.09,-459.68 308.25,-454.35 323.93,-449.64"/>
<polygon fill="#63b8ff" stroke="#63b8ff" points="324.61,-453.08 333.22,-446.91 322.64,-446.37 324.61,-453.08"/>
</g>
<!-- Node21&#45;&gt;Node21 -->
<g id="edge11" class="edge">
<title>Node21&#45;&gt;Node21</title>
<path fill="none" stroke="#63b8ff" d="M684.62,-299.87C672.59,-308.44 681.38,-317.5 711,-317.5 727.66,-317.5 737.73,-314.63 741.21,-310.6"/>
<polygon fill="#63b8ff" stroke="#63b8ff" points="744.55,-309.53 737.89,-301.29 737.96,-311.89 744.55,-309.53"/>
</g>
<!-- Node23 -->
<g id="node12" class="node">
<title>Node23</title>
<g id="a_node12"><a xlink:href="class_urho3_d_1_1_u_i_element.html#a41f04deaaa70ebe9101a25fcf8bc1666" target="_top" xlink:title=" ">
<polygon fill="white" stroke="#666666" points="763.5,-652 658.5,-652 658.5,-622 763.5,-622 763.5,-652"/>
<text text-anchor="start" x="666.5" y="-640" font-family="Roboto" font-size="10.00">Urho3D::UIElement::</text>
<text text-anchor="middle" x="711" y="-629" font-family="Roboto" font-size="10.00">IsFixedSize</text>
</a>
</g>
</g>
<!-- Node22&#45;&gt;Node23 -->
<g id="edge13" class="edge">
<title>Node22&#45;&gt;Node23</title>
<path fill="none" stroke="#63b8ff" d="M595.27,-624.6C611.71,-626.37 630.08,-628.36 647.21,-630.21"/>
<polygon fill="#63b8ff" stroke="#63b8ff" points="646.44,-633.65 656.76,-631.24 647.19,-626.69 646.44,-633.65"/>
</g>
<!-- Node24 -->
<g id="node13" class="node">
<title>Node24</title>
<g id="a_node13"><a xlink:href="_math_defs_8h.html#a8096c22c3716e172f685af2a5f5e26bb" target="_top" xlink:title=" ">
<polygon fill="white" stroke="#666666" points="748,-585.5 674,-585.5 674,-566.5 748,-566.5 748,-585.5"/>
<text text-anchor="middle" x="711" y="-573.5" font-family="Roboto" font-size="10.00">Urho3D::Max</text>
</a>
</g>
</g>
<!-- Node22&#45;&gt;Node24 -->
<g id="edge14" class="edge">
<title>Node22&#45;&gt;Node24</title>
<path fill="none" stroke="#63b8ff" d="M595.27,-605.63C616.79,-600.07 641.61,-593.66 662.65,-588.23"/>
<polygon fill="#63b8ff" stroke="#63b8ff" points="663.31,-591.67 672.11,-585.78 661.56,-584.9 663.31,-591.67"/>
</g>
<!-- Node24&#45;&gt;Node24 -->
<g id="edge15" class="edge">
<title>Node24&#45;&gt;Node24</title>
<path fill="none" stroke="#63b8ff" d="M684.62,-585.87C672.59,-594.44 681.38,-603.5 711,-603.5 727.66,-603.5 737.73,-600.63 741.21,-596.6"/>
<polygon fill="#63b8ff" stroke="#63b8ff" points="744.55,-595.53 737.89,-587.29 737.96,-597.89 744.55,-595.53"/>
</g>
<!-- Node26&#45;&gt;Node4 -->
<g id="edge28" class="edge">
<title>Node26&#45;&gt;Node4</title>
<path fill="none" stroke="#63b8ff" d="M398.01,-452.37C409.48,-471.53 428.64,-505.6 440,-537 465.09,-606.36 427.41,-643.51 476,-699 476.36,-699.41 476.73,-699.81 477.1,-700.21"/>
<polygon fill="#63b8ff" stroke="#63b8ff" points="474.81,-702.86 484.72,-706.59 479.3,-697.49 474.81,-702.86"/>
</g>
<!-- Node26&#45;&gt;Node19 -->
<g id="edge35" class="edge">
<title>Node26&#45;&gt;Node19</title>
<path fill="none" stroke="#63b8ff" d="M403.18,-452.3C414.75,-465.15 430.47,-484.49 440,-504 468.01,-561.34 431.53,-597.23 476,-643 476.89,-643.91 477.81,-644.78 478.78,-645.61"/>
<polygon fill="#63b8ff" stroke="#63b8ff" points="476.78,-648.49 487.04,-651.17 480.69,-642.68 476.78,-648.49"/>
</g>
<!-- Node26&#45;&gt;Node20 -->
<g id="edge36" class="edge">
<title>Node26&#45;&gt;Node20</title>
<path fill="none" stroke="#63b8ff" d="M355.29,-452.39C341.88,-457.33 325.71,-462.66 310.01,-467.38"/>
<polygon fill="#63b8ff" stroke="#63b8ff" points="309.32,-463.94 300.71,-470.11 311.29,-470.65 309.32,-463.94"/>
</g>
<!-- Node26&#45;&gt;Node22 -->
<g id="edge26" class="edge">
<title>Node26&#45;&gt;Node22</title>
<path fill="none" stroke="#63b8ff" d="M424.54,-452.44C430.33,-456.19 435.79,-460.69 440,-466 475.65,-510.97 438.23,-546.79 476,-590 478.3,-592.63 480.88,-595.03 483.66,-597.23"/>
<polygon fill="#63b8ff" stroke="#63b8ff" points="481.57,-600.04 491.82,-602.7 485.46,-594.22 481.57,-600.04"/>
</g>
<!-- Node26&#45;&gt;Node24 -->
<g id="edge34" class="edge">
<title>Node26&#45;&gt;Node24</title>
<path fill="none" stroke="#63b8ff" d="M421.44,-452.48C428.22,-456.79 434.85,-461.97 440,-468 467.7,-500.45 441.62,-531.73 476,-557 530.05,-596.72 611.3,-593.22 662.45,-585.66"/>
<polygon fill="#63b8ff" stroke="#63b8ff" points="662.69,-589.17 672.02,-584.13 661.59,-582.25 662.69,-589.17"/>
</g>
<!-- Node27 -->
<g id="node16" class="node">
<title>Node27</title>
<g id="a_node16"><a xlink:href="class_urho3_d_1_1_u_i_element.html#a2c26825089539496dc3c05f2701e9bff" target="_top" xlink:title="Calculate child widths/positions in the layout.">
<polygon fill="#fff0f0" stroke="red" points="595,-548 490,-548 490,-518 595,-518 595,-548"/>
<text text-anchor="start" x="498" y="-536" font-family="Roboto" font-size="10.00">Urho3D::UIElement::</text>
<text text-anchor="middle" x="542.5" y="-525" font-family="Roboto" font-size="10.00">CalculateLayout</text>
</a>
</g>
</g>
<!-- Node26&#45;&gt;Node27 -->
<g id="edge21" class="edge">
<title>Node26&#45;&gt;Node27</title>
<path fill="none" stroke="#63b8ff" d="M420.18,-452.46C427.03,-456.44 434,-461.02 440,-466 459.17,-481.93 455.61,-494.67 476,-509 477.57,-510.1 479.19,-511.16 480.86,-512.17"/>
<polygon fill="#63b8ff" stroke="#63b8ff" points="478.99,-515.14 489.45,-516.79 482.3,-508.98 478.99,-515.14"/>
</g>
<!-- Node35 -->
<g id="node17" class="node">
<title>Node35</title>
<g id="a_node17"><a xlink:href="class_urho3_d_1_1_u_i_element.html#aa8ec3dcc9f57f4c5b7d13f60dcb76f38" target="_top" xlink:title="Calculate layout width for resizing the parent element.">
<polygon fill="#fff0f0" stroke="red" points="609,-500 476,-500 476,-470 609,-470 609,-500"/>
<text text-anchor="start" x="484" y="-488" font-family="Roboto" font-size="10.00">Urho3D::UIElement::</text>
<text text-anchor="middle" x="542.5" y="-477" font-family="Roboto" font-size="10.00">CalculateLayoutParentSize</text>
</a>
</g>
</g>
<!-- Node26&#45;&gt;Node35 -->
<g id="edge23" class="edge">
<title>Node26&#45;&gt;Node35</title>
<path fill="none" stroke="#63b8ff" d="M437.75,-452.45C451.67,-456.82 466.98,-461.62 481.46,-466.17"/>
<polygon fill="#63b8ff" stroke="#63b8ff" points="480.31,-469.47 490.9,-469.12 482.4,-462.79 480.31,-469.47"/>
</g>
<!-- Node36 -->
<g id="node18" class="node">
<title>Node36</title>
<g id="a_node18"><a xlink:href="class_urho3_d_1_1_u_i_element.html#a7e286d16e39b54282ca0d64666d26b67" target="_top" xlink:title="Disable automatic layout update. Should only be used if there are performance problems.">
<polygon fill="white" stroke="#666666" points="597.5,-452 487.5,-452 487.5,-422 597.5,-422 597.5,-452"/>
<text text-anchor="start" x="495.5" y="-440" font-family="Roboto" font-size="10.00">Urho3D::UIElement::</text>
<text text-anchor="middle" x="542.5" y="-429" font-family="Roboto" font-size="10.00">DisableLayoutUpdate</text>
</a>
</g>
</g>
<!-- Node26&#45;&gt;Node36 -->
<g id="edge24" class="edge">
<title>Node26&#45;&gt;Node36</title>
<path fill="none" stroke="#63b8ff" d="M440.3,-437C451.73,-437 463.99,-437 475.88,-437"/>
<polygon fill="#63b8ff" stroke="#63b8ff" points="475.63,-440.5 485.63,-437 475.63,-433.5 475.63,-440.5"/>
</g>
<!-- Node37 -->
<g id="node19" class="node">
<title>Node37</title>
<g id="a_node19"><a xlink:href="class_urho3_d_1_1_u_i_element.html#a952c4e37f3ee8fe5615791389d03f813" target="_top" xlink:title="Enable automatic layout update.">
<polygon fill="white" stroke="#666666" points="596,-404 489,-404 489,-374 596,-374 596,-404"/>
<text text-anchor="start" x="497" y="-392" font-family="Roboto" font-size="10.00">Urho3D::UIElement::</text>
<text text-anchor="middle" x="542.5" y="-381" font-family="Roboto" font-size="10.00">EnableLayoutUpdate</text>
</a>
</g>
</g>
<!-- Node26&#45;&gt;Node37 -->
<g id="edge25" class="edge">
<title>Node26&#45;&gt;Node37</title>
<path fill="none" stroke="#63b8ff" d="M437.75,-421.55C451.67,-417.18 466.98,-412.38 481.46,-407.83"/>
<polygon fill="#63b8ff" stroke="#63b8ff" points="482.4,-411.21 490.9,-404.88 480.31,-404.53 482.4,-411.21"/>
</g>
<!-- Node38 -->
<g id="node20" class="node">
<title>Node38</title>
<g id="a_node20"><a xlink:href="class_urho3_d_1_1_u_i_element.html#aa54260b906ecc9755c56d59530bedd85" target="_top" xlink:title=" ">
<polygon fill="white" stroke="#666666" points="595,-356 490,-356 490,-326 595,-326 595,-356"/>
<text text-anchor="start" x="498" y="-344" font-family="Roboto" font-size="10.00">Urho3D::UIElement::</text>
<text text-anchor="middle" x="542.5" y="-333" font-family="Roboto" font-size="10.00">GetEnableAnchor</text>
</a>
</g>
</g>
<!-- Node26&#45;&gt;Node38 -->
<g id="edge27" class="edge">
<title>Node26&#45;&gt;Node38</title>
<path fill="none" stroke="#63b8ff" d="M403.73,-421.7C420.31,-405.76 448.17,-380.93 476,-365 478.31,-363.68 480.7,-362.41 483.14,-361.19"/>
<polygon fill="#63b8ff" stroke="#63b8ff" points="484.42,-364.46 492.05,-357.1 481.5,-358.1 484.42,-364.46"/>
</g>
<!-- Node39 -->
<g id="node21" class="node">
<title>Node39</title>
<g id="a_node21"><a xlink:href="class_urho3_d_1_1_u_i_element.html#a74426efba577c8b92f7b49c307d7a446" target="_top" xlink:title=" ">
<polygon fill="white" stroke="#666666" points="595,-308 490,-308 490,-278 595,-278 595,-308"/>
<text text-anchor="start" x="498" y="-296" font-family="Roboto" font-size="10.00">Urho3D::UIElement::</text>
<text text-anchor="middle" x="542.5" y="-285" font-family="Roboto" font-size="10.00">GetHeight</text>
</a>
</g>
</g>
<!-- Node26&#45;&gt;Node39 -->
<g id="edge29" class="edge">
<title>Node26&#45;&gt;Node39</title>
<path fill="none" stroke="#63b8ff" d="M395.75,-421.87C408.56,-396.68 437.5,-346.03 476,-317 477.5,-315.87 479.05,-314.79 480.65,-313.76"/>
<polygon fill="#63b8ff" stroke="#63b8ff" points="481.93,-317.06 488.91,-309.09 478.48,-310.97 481.93,-317.06"/>
</g>
<!-- Node40 -->
<g id="node22" class="node">
<title>Node40</title>
<g id="a_node22"><a xlink:href="class_urho3_d_1_1_u_i_element.html#af0d0d929939b0fb4b8d38c7699ecdfa0" target="_top" xlink:title=" ">
<polygon fill="white" stroke="#666666" points="595,-260 490,-260 490,-230 595,-230 595,-260"/>
<text text-anchor="start" x="498" y="-248" font-family="Roboto" font-size="10.00">Urho3D::UIElement::</text>
<text text-anchor="middle" x="542.5" y="-237" font-family="Roboto" font-size="10.00">GetIndentWidth</text>
</a>
</g>
</g>
<!-- Node26&#45;&gt;Node40 -->
<g id="edge30" class="edge">
<title>Node26&#45;&gt;Node40</title>
<path fill="none" stroke="#63b8ff" d="M392.41,-421.66C401.49,-388.97 427.09,-311.98 476,-269 477.28,-267.88 478.62,-266.8 480,-265.78"/>
<polygon fill="#63b8ff" stroke="#63b8ff" points="481.8,-268.78 488.42,-260.51 478.09,-262.85 481.8,-268.78"/>
</g>
<!-- Node41 -->
<g id="node23" class="node">
<title>Node41</title>
<g id="a_node23"><a xlink:href="class_urho3_d_1_1_u_i_element.html#a94a1fe4987f7861a8010ae1746aabed5" target="_top" xlink:title="Get child element constant position in a layout.">
<polygon fill="#fff0f0" stroke="red" points="602,-212 483,-212 483,-182 602,-182 602,-212"/>
<text text-anchor="start" x="491" y="-200" font-family="Roboto" font-size="10.00">Urho3D::UIElement::</text>
<text text-anchor="middle" x="542.5" y="-189" font-family="Roboto" font-size="10.00">GetLayoutChildPosition</text>
</a>
</g>
</g>
<!-- Node26&#45;&gt;Node41 -->
<g id="edge31" class="edge">
<title>Node26&#45;&gt;Node41</title>
<path fill="none" stroke="#63b8ff" d="M390.43,-421.56C396.13,-382.48 416.37,-278.65 476,-221 476.74,-220.28 477.51,-219.58 478.3,-218.91"/>
<polygon fill="#63b8ff" stroke="#63b8ff" points="480.06,-221.95 486.18,-213.3 476.01,-216.24 480.06,-221.95"/>
</g>
<!-- Node44 -->
<g id="node24" class="node">
<title>Node44</title>
<g id="a_node24"><a xlink:href="class_urho3_d_1_1_u_i_element.html#a5a2a6a83eaf5713c846685142f90f24f" target="_top" xlink:title=" ">
<polygon fill="white" stroke="#666666" points="595,-164 490,-164 490,-134 595,-134 595,-164"/>
<text text-anchor="start" x="498" y="-152" font-family="Roboto" font-size="10.00">Urho3D::UIElement::</text>
<text text-anchor="middle" x="542.5" y="-141" font-family="Roboto" font-size="10.00">GetLayoutFlexScale</text>
</a>
</g>
</g>
<!-- Node26&#45;&gt;Node44 -->
<g id="edge32" class="edge">
<title>Node26&#45;&gt;Node44</title>
<path fill="none" stroke="#63b8ff" d="M389.12,-421.54C391.76,-376.81 405.43,-245.81 476,-173 477.36,-171.6 478.81,-170.27 480.34,-169.03"/>
<polygon fill="#63b8ff" stroke="#63b8ff" points="482.14,-172.03 488.48,-163.54 478.23,-166.22 482.14,-172.03"/>
</g>
<!-- Node45 -->
<g id="node25" class="node">
<title>Node45</title>
<g id="a_node25"><a xlink:href="class_urho3_d_1_1_u_i_element.html#a7fea1c06051cf2ed6e639f4cc2915b18" target="_top" xlink:title=" ">
<polygon fill="white" stroke="#666666" points="595,-116 490,-116 490,-86 595,-86 595,-116"/>
<text text-anchor="start" x="498" y="-104" font-family="Roboto" font-size="10.00">Urho3D::UIElement::</text>
<text text-anchor="middle" x="542.5" y="-93" font-family="Roboto" font-size="10.00">GetMaxHeight</text>
</a>
</g>
</g>
<!-- Node26&#45;&gt;Node45 -->
<g id="edge33" class="edge">
<title>Node26&#45;&gt;Node45</title>
<path fill="none" stroke="#63b8ff" d="M388.19,-421.7C388.03,-372.02 394.25,-213.37 476,-125 477.33,-123.56 478.75,-122.21 480.25,-120.94"/>
<polygon fill="#63b8ff" stroke="#63b8ff" points="482.06,-123.94 488.3,-115.38 478.08,-118.19 482.06,-123.94"/>
</g>
<!-- Node27&#45;&gt;Node21 -->
<g id="edge22" class="edge">
<title>Node27&#45;&gt;Node21</title>
<path fill="none" stroke="#63b8ff" d="M595.47,-518.49C600.37,-515.83 604.99,-512.69 609,-509 669.51,-453.2 696.65,-353.95 705.98,-310.89"/>
<polygon fill="#63b8ff" stroke="#63b8ff" points="709.36,-311.86 707.94,-301.36 702.5,-310.45 709.36,-311.86"/>
</g>
</g>
</svg>
