<?xml version="1.0" encoding="UTF-8" standalone="no"?>
<!DOCTYPE svg PUBLIC "-//W3C//DTD SVG 1.1//EN"
 "http://www.w3.org/Graphics/SVG/1.1/DTD/svg11.dtd">
<!-- Generated by graphviz version 7.0.3 (0)
 -->
<!-- Title: Urho3D::Tile2D Pages: 1 -->
<svg width="1999pt" height="607pt"
 viewBox="0.00 0.00 1999.00 607.00" xmlns="http://www.w3.org/2000/svg" xmlns:xlink="http://www.w3.org/1999/xlink">
<g id="graph0" class="graph" transform="scale(1 1) rotate(0) translate(4 603)">
<title>Urho3D::Tile2D</title>
<!-- Node1 -->
<g id="node1" class="node">
<title>Node1</title>
<g id="a_node1"><a xlink:title="Tile define.">
<polygon fill="#999999" stroke="#666666" points="1991,-340.5 1908,-340.5 1908,-321.5 1991,-321.5 1991,-340.5"/>
<text text-anchor="middle" x="1949.5" y="-328.5" font-family="Roboto" font-size="10.00">Urho3D::Tile2D</text>
</a>
</g>
</g>
<!-- Node2 -->
<g id="node2" class="node">
<title>Node2</title>
<g id="a_node2"><a xlink:href="class_urho3_d_1_1_ref_counted.html" target="_top" xlink:title="Base class for intrusively reference&#45;counted objects. These are noncopyable and non&#45;assignable.">
<polygon fill="white" stroke="#666666" points="305,-484.5 198,-484.5 198,-465.5 305,-465.5 305,-484.5"/>
<text text-anchor="middle" x="251.5" y="-472.5" font-family="Roboto" font-size="10.00">Urho3D::RefCounted</text>
</a>
</g>
</g>
<!-- Node2&#45;&gt;Node1 -->
<g id="edge1" class="edge">
<title>Node2&#45;&gt;Node1</title>
<path fill="none" stroke="#63b8ff" d="M273.31,-491.91C317.23,-525.85 423.83,-599 526.5,-599 526.5,-599 526.5,-599 1789,-599 1911.64,-599 1942.12,-389.21 1947.52,-340.86"/>
<polygon fill="#63b8ff" stroke="#63b8ff" points="275.66,-489.31 265.64,-485.87 271.33,-494.81 275.66,-489.31"/>
</g>
<!-- Node7 -->
<g id="node7" class="node">
<title>Node7</title>
<g id="a_node7"><a xlink:href="class_urho3_d_1_1_object.html" target="_top" xlink:title=" ">
<polygon fill="white" stroke="#666666" points="793.5,-568.5 710.5,-568.5 710.5,-549.5 793.5,-549.5 793.5,-568.5"/>
<text text-anchor="middle" x="752" y="-556.5" font-family="Roboto" font-size="10.00">Urho3D::Object</text>
</a>
</g>
</g>
<!-- Node2&#45;&gt;Node7 -->
<g id="edge7" class="edge">
<title>Node2&#45;&gt;Node7</title>
<path fill="none" stroke="#63b8ff" d="M316.31,-485.62C384.74,-497.02 496.57,-515.69 593,-532 632.79,-538.73 678.19,-546.5 710.09,-551.97"/>
<polygon fill="#63b8ff" stroke="#63b8ff" points="317.23,-482.22 306.79,-484.03 316.08,-489.13 317.23,-482.22"/>
</g>
<!-- Node8 -->
<g id="node8" class="node">
<title>Node8</title>
<g id="a_node8"><a xlink:href="class_urho3_d_1_1_context.html" target="_top" xlink:title="Urho3D execution context. Provides access to subsystems, object factories and attributes,...">
<polygon fill="#fff0f0" stroke="red" points="572,-484.5 483,-484.5 483,-465.5 572,-465.5 572,-484.5"/>
<text text-anchor="middle" x="527.5" y="-472.5" font-family="Roboto" font-size="10.00">Urho3D::Context</text>
</a>
</g>
</g>
<!-- Node2&#45;&gt;Node8 -->
<g id="edge9" class="edge">
<title>Node2&#45;&gt;Node8</title>
<path fill="none" stroke="#63b8ff" d="M316.59,-475C367.74,-475 438.02,-475 482.86,-475"/>
<polygon fill="#63b8ff" stroke="#63b8ff" points="316.84,-471.5 306.84,-475 316.84,-478.5 316.84,-471.5"/>
</g>
<!-- Node98 -->
<g id="node23" class="node">
<title>Node98</title>
<g id="a_node23"><a xlink:href="class_urho3_d_1_1_property_set2_d.html" target="_top" xlink:title="Property set.">
<polygon fill="white" stroke="#666666" points="586.5,-220.5 468.5,-220.5 468.5,-201.5 586.5,-201.5 586.5,-220.5"/>
<text text-anchor="middle" x="527.5" y="-208.5" font-family="Roboto" font-size="10.00">Urho3D::PropertySet2D</text>
</a>
</g>
</g>
<!-- Node2&#45;&gt;Node98 -->
<g id="edge34" class="edge">
<title>Node2&#45;&gt;Node98</title>
<path fill="none" stroke="#63b8ff" d="M270.7,-457.46C323.51,-406.59 475.55,-260.09 516.33,-220.8"/>
<polygon fill="#63b8ff" stroke="#63b8ff" points="268.44,-454.78 263.67,-464.24 273.3,-459.82 268.44,-454.78"/>
</g>
<!-- Node3 -->
<g id="node3" class="node">
<title>Node3</title>
<g id="a_node3"><a xlink:href="struct_urho3_d_1_1_ref_count.html" target="_top" xlink:title="Reference count structure.">
<polygon fill="white" stroke="#666666" points="98,-335.5 2,-335.5 2,-316.5 98,-316.5 98,-335.5"/>
<text text-anchor="middle" x="50" y="-323.5" font-family="Roboto" font-size="10.00">Urho3D::RefCount</text>
</a>
</g>
</g>
<!-- Node3&#45;&gt;Node2 -->
<g id="edge2" class="edge">
<title>Node3&#45;&gt;Node2</title>
<path fill="none" stroke="#9a32cd" stroke-dasharray="5,2" d="M73.16,-342.55C114.86,-373.7 203.84,-440.15 237.36,-465.19"/>
<polygon fill="#9a32cd" stroke="#9a32cd" points="75.41,-339.86 65.3,-336.68 71.22,-345.47 75.41,-339.86"/>
<text text-anchor="middle" x="141" y="-412" font-family="Roboto" font-size="10.00"> refCount_</text>
</g>
<!-- Node86 -->
<g id="node20" class="node">
<title>Node86</title>
<g id="a_node20"><a xlink:href="class_urho3_d_1_1_weak_ptr.html" target="_top" xlink:title=" ">
<polygon fill="white" stroke="#666666" points="1496,-406 1362,-406 1362,-376 1496,-376 1496,-406"/>
<text text-anchor="start" x="1370" y="-394" font-family="Roboto" font-size="10.00">Urho3D::WeakPtr&lt; Urho3D</text>
<text text-anchor="middle" x="1429" y="-383" font-family="Roboto" font-size="10.00">::SpriteSheet2D &gt;</text>
</a>
</g>
</g>
<!-- Node3&#45;&gt;Node86 -->
<g id="edge31" class="edge">
<title>Node3&#45;&gt;Node86</title>
<path fill="none" stroke="#9a32cd" stroke-dasharray="5,2" d="M109.8,-318.8C149.48,-314.55 203.06,-310 250.5,-310 250.5,-310 250.5,-310 1114.5,-310 1194.83,-310 1207.01,-350.74 1285,-370 1309.73,-376.11 1337.33,-380.67 1361.63,-383.96"/>
<polygon fill="#9a32cd" stroke="#9a32cd" points="109.54,-315.31 99.98,-319.88 110.31,-322.26 109.54,-315.31"/>
<text text-anchor="middle" x="752" y="-313" font-family="Roboto" font-size="10.00"> refCount_</text>
</g>
<!-- Node4 -->
<g id="node4" class="node">
<title>Node4</title>
<g id="a_node4"><a xlink:href="class_urho3_d_1_1_shared_ptr.html" target="_top" xlink:title=" ">
<polygon fill="white" stroke="#666666" points="1840,-346 1736,-346 1736,-316 1840,-316 1840,-346"/>
<text text-anchor="start" x="1744" y="-334" font-family="Roboto" font-size="10.00">Urho3D::SharedPtr&lt;</text>
<text text-anchor="middle" x="1788" y="-323" font-family="Roboto" font-size="10.00"> Urho3D::Sprite2D &gt;</text>
</a>
</g>
</g>
<!-- Node4&#45;&gt;Node1 -->
<g id="edge3" class="edge">
<title>Node4&#45;&gt;Node1</title>
<path fill="none" stroke="#9a32cd" stroke-dasharray="5,2" d="M1851.82,-331C1870.57,-331 1890.64,-331 1907.61,-331"/>
<polygon fill="#9a32cd" stroke="#9a32cd" points="1851.86,-327.5 1841.86,-331 1851.86,-334.5 1851.86,-327.5"/>
<text text-anchor="middle" x="1874" y="-334" font-family="Roboto" font-size="10.00"> sprite_</text>
</g>
<!-- Node5 -->
<g id="node5" class="node">
<title>Node5</title>
<g id="a_node5"><a xlink:href="class_urho3_d_1_1_sprite2_d.html" target="_top" xlink:title="Sprite.">
<polygon fill="white" stroke="#666666" points="1681,-340.5 1589,-340.5 1589,-321.5 1681,-321.5 1681,-340.5"/>
<text text-anchor="middle" x="1635" y="-328.5" font-family="Roboto" font-size="10.00">Urho3D::Sprite2D</text>
</a>
</g>
</g>
<!-- Node5&#45;&gt;Node4 -->
<g id="edge4" class="edge">
<title>Node5&#45;&gt;Node4</title>
<path fill="none" stroke="#9a32cd" stroke-dasharray="5,2" d="M1692.42,-331C1706.6,-331 1721.73,-331 1735.64,-331"/>
<polygon fill="#9a32cd" stroke="#9a32cd" points="1692.82,-327.5 1682.82,-331 1692.82,-334.5 1692.82,-327.5"/>
<text text-anchor="middle" x="1708.5" y="-334" font-family="Roboto" font-size="10.00"> ptr_</text>
</g>
<!-- Node6 -->
<g id="node6" class="node">
<title>Node6</title>
<g id="a_node6"><a xlink:href="class_urho3_d_1_1_resource.html" target="_top" xlink:title=" ">
<polygon fill="white" stroke="#666666" points="1070.5,-468.5 974.5,-468.5 974.5,-449.5 1070.5,-449.5 1070.5,-468.5"/>
<text text-anchor="middle" x="1022.5" y="-456.5" font-family="Roboto" font-size="10.00">Urho3D::Resource</text>
</a>
</g>
</g>
<!-- Node6&#45;&gt;Node5 -->
<g id="edge5" class="edge">
<title>Node6&#45;&gt;Node5</title>
<path fill="none" stroke="#63b8ff" d="M1082.21,-457.39C1172.1,-454.06 1348.89,-444.09 1496,-415 1530.2,-408.24 1540.98,-409.73 1571,-392 1594.33,-378.22 1615.68,-354.11 1626.52,-340.7"/>
<polygon fill="#63b8ff" stroke="#63b8ff" points="1082.29,-453.88 1072.42,-457.74 1082.53,-460.88 1082.29,-453.88"/>
</g>
<!-- Node87 -->
<g id="node21" class="node">
<title>Node87</title>
<g id="a_node21"><a xlink:href="class_urho3_d_1_1_sprite_sheet2_d.html" target="_top" xlink:title="Sprite sheet.">
<polygon fill="#fff0f0" stroke="red" points="1267,-421.5 1150,-421.5 1150,-402.5 1267,-402.5 1267,-421.5"/>
<text text-anchor="middle" x="1208.5" y="-409.5" font-family="Roboto" font-size="10.00">Urho3D::SpriteSheet2D</text>
</a>
</g>
</g>
<!-- Node6&#45;&gt;Node87 -->
<g id="edge28" class="edge">
<title>Node6&#45;&gt;Node87</title>
<path fill="none" stroke="#63b8ff" d="M1073.57,-446.21C1103.46,-438.58 1140.86,-429.02 1168.53,-421.95"/>
<polygon fill="#63b8ff" stroke="#63b8ff" points="1072.81,-442.79 1063.99,-448.66 1074.54,-449.57 1072.81,-442.79"/>
</g>
<!-- Node7&#45;&gt;Node6 -->
<g id="edge6" class="edge">
<title>Node7&#45;&gt;Node6</title>
<path fill="none" stroke="#63b8ff" d="M804.57,-547.49C845.04,-537.6 902.3,-521.66 950,-501 970.74,-492.02 992.93,-478.26 1007,-468.96"/>
<polygon fill="#63b8ff" stroke="#63b8ff" points="804.01,-544.03 795.1,-549.77 805.64,-550.84 804.01,-544.03"/>
</g>
<!-- Node8&#45;&gt;Node7 -->
<g id="edge8" class="edge">
<title>Node8&#45;&gt;Node7</title>
<path fill="none" stroke="#9a32cd" stroke-dasharray="5,2" d="M583.86,-465.76C615.71,-463.58 654.7,-466.64 682,-488 701.59,-503.33 682.51,-523.31 700,-541 703.17,-544.21 706.94,-546.84 710.98,-549.01"/>
<polygon fill="#9a32cd" stroke="#9a32cd" points="583.63,-462.26 573.99,-466.64 584.26,-469.23 583.63,-462.26"/>
<text text-anchor="middle" x="646.5" y="-491" font-family="Roboto" font-size="10.00"> context_</text>
</g>
<!-- Node26 -->
<g id="node9" class="node">
<title>Node26</title>
<g id="a_node9"><a xlink:href="class_urho3_d_1_1_linked_list.html" target="_top" xlink:title=" ">
<polygon fill="white" stroke="orangered" points="591.5,-571 463.5,-571 463.5,-541 591.5,-541 591.5,-571"/>
<text text-anchor="start" x="471.5" y="-559" font-family="Roboto" font-size="10.00">Urho3D::LinkedList</text>
<text text-anchor="middle" x="527.5" y="-548" font-family="Roboto" font-size="10.00">&lt; Urho3D::EventHandler &gt;</text>
</a>
</g>
</g>
<!-- Node26&#45;&gt;Node7 -->
<g id="edge10" class="edge">
<title>Node26&#45;&gt;Node7</title>
<path fill="none" stroke="#9a32cd" stroke-dasharray="5,2" d="M603.34,-557.01C639.07,-557.49 680.43,-558.05 710.27,-558.45"/>
<polygon fill="#9a32cd" stroke="#9a32cd" points="603.52,-553.51 593.48,-556.88 603.43,-560.51 603.52,-553.51"/>
<text text-anchor="middle" x="646.5" y="-561" font-family="Roboto" font-size="10.00"> eventHandlers_</text>
</g>
<!-- Node27 -->
<g id="node10" class="node">
<title>Node27</title>
<g id="a_node10"><a xlink:href="class_urho3_d_1_1_string.html" target="_top" xlink:title="String class.">
<polygon fill="white" stroke="#666666" points="792,-399.5 712,-399.5 712,-380.5 792,-380.5 792,-399.5"/>
<text text-anchor="middle" x="752" y="-387.5" font-family="Roboto" font-size="10.00">Urho3D::String</text>
</a>
</g>
</g>
<!-- Node27&#45;&gt;Node6 -->
<g id="edge11" class="edge">
<title>Node27&#45;&gt;Node6</title>
<path fill="none" stroke="#9a32cd" stroke-dasharray="5,2" d="M802.72,-402.78C854.73,-416.14 935.27,-436.84 982.76,-449.04"/>
<polygon fill="#9a32cd" stroke="#9a32cd" points="803.78,-399.44 793.22,-400.34 802.04,-406.22 803.78,-399.44"/>
<text text-anchor="middle" x="886" y="-443" font-family="Roboto" font-size="10.00"> name_</text>
</g>
<!-- Node27&#45;&gt;Node27 -->
<g id="edge12" class="edge">
<title>Node27&#45;&gt;Node27</title>
<path fill="none" stroke="#9a32cd" stroke-dasharray="5,2" d="M733.27,-410.93C735.62,-414.79 741.86,-417.5 752,-417.5 770.54,-417.5 776.05,-408.44 768.52,-399.87"/>
<polygon fill="#9a32cd" stroke="#9a32cd" points="736.66,-411.84 735.19,-401.35 729.8,-410.47 736.66,-411.84"/>
<text text-anchor="middle" x="752" y="-420.5" font-family="Roboto" font-size="10.00"> EMPTY</text>
</g>
<!-- Node27&#45;&gt;Node87 -->
<g id="edge30" class="edge">
<title>Node27&#45;&gt;Node87</title>
<path fill="none" stroke="#9a32cd" stroke-dasharray="5,2" d="M803.56,-392.45C888.64,-396.57 1059.92,-404.86 1149.66,-409.2"/>
<polygon fill="#9a32cd" stroke="#9a32cd" points="803.81,-388.96 793.66,-391.97 803.47,-395.95 803.81,-388.96"/>
<text text-anchor="middle" x="1022.5" y="-408" font-family="Roboto" font-size="10.00"> loadTextureName_</text>
</g>
<!-- Node23 -->
<g id="node11" class="node">
<title>Node23</title>
<g id="a_node11"><a xlink:href="class_urho3_d_1_1_string_hash.html" target="_top" xlink:title="32&#45;bit hash value for a string.">
<polygon fill="white" stroke="#666666" points="804,-502.5 700,-502.5 700,-483.5 804,-483.5 804,-502.5"/>
<text text-anchor="middle" x="752" y="-490.5" font-family="Roboto" font-size="10.00">Urho3D::StringHash</text>
</a>
</g>
</g>
<!-- Node23&#45;&gt;Node6 -->
<g id="edge13" class="edge">
<title>Node23&#45;&gt;Node6</title>
<path fill="none" stroke="#9a32cd" stroke-dasharray="5,2" d="M815.24,-486.94C854.06,-482.93 905.02,-477.28 950,-471 957.85,-469.9 966.17,-468.62 974.25,-467.31"/>
<polygon fill="#9a32cd" stroke="#9a32cd" points="815.22,-483.42 805.62,-487.92 815.93,-490.38 815.22,-483.42"/>
<text text-anchor="middle" x="886" y="-489" font-family="Roboto" font-size="10.00"> nameHash_</text>
</g>
<!-- Node23&#45;&gt;Node23 -->
<g id="edge14" class="edge">
<title>Node23&#45;&gt;Node23</title>
<path fill="none" stroke="#9a32cd" stroke-dasharray="5,2" d="M733.27,-513.93C735.62,-517.79 741.86,-520.5 752,-520.5 770.54,-520.5 776.05,-511.44 768.52,-502.87"/>
<polygon fill="#9a32cd" stroke="#9a32cd" points="736.66,-514.84 735.19,-504.35 729.8,-513.47 736.66,-514.84"/>
<text text-anchor="middle" x="752" y="-523.5" font-family="Roboto" font-size="10.00"> ZERO</text>
</g>
<!-- Node28 -->
<g id="node12" class="node">
<title>Node28</title>
<g id="a_node12"><a xlink:href="class_urho3_d_1_1_timer.html" target="_top" xlink:title="Low&#45;resolution operating system timer.">
<polygon fill="white" stroke="#666666" points="792.5,-465.5 711.5,-465.5 711.5,-446.5 792.5,-446.5 792.5,-465.5"/>
<text text-anchor="middle" x="752" y="-453.5" font-family="Roboto" font-size="10.00">Urho3D::Timer</text>
</a>
</g>
</g>
<!-- Node28&#45;&gt;Node6 -->
<g id="edge15" class="edge">
<title>Node28&#45;&gt;Node6</title>
<path fill="none" stroke="#9a32cd" stroke-dasharray="5,2" d="M804.19,-456.57C853.18,-457.12 926.46,-457.94 974.12,-458.47"/>
<polygon fill="#9a32cd" stroke="#9a32cd" points="804.46,-453.07 794.42,-456.46 804.38,-460.07 804.46,-453.07"/>
<text text-anchor="middle" x="886" y="-461" font-family="Roboto" font-size="10.00"> useTimer_</text>
</g>
<!-- Node29 -->
<g id="node13" class="node">
<title>Node29</title>
<g id="a_node13"><a xlink:href="class_urho3_d_1_1_shared_ptr.html" target="_top" xlink:title=" ">
<polygon fill="white" stroke="#666666" points="1077,-368 968,-368 968,-338 1077,-338 1077,-368"/>
<text text-anchor="start" x="976" y="-356" font-family="Roboto" font-size="10.00">Urho3D::SharedPtr&lt;</text>
<text text-anchor="middle" x="1022.5" y="-345" font-family="Roboto" font-size="10.00"> Urho3D::Texture2D &gt;</text>
</a>
</g>
</g>
<!-- Node29&#45;&gt;Node5 -->
<g id="edge16" class="edge">
<title>Node29&#45;&gt;Node5</title>
<path fill="none" stroke="#9a32cd" stroke-dasharray="5,2" d="M1088.63,-350.65C1213.09,-346.17 1481.79,-336.48 1588.75,-332.63"/>
<polygon fill="#9a32cd" stroke="#9a32cd" points="1088.79,-347.14 1078.92,-351 1089.04,-354.14 1088.79,-347.14"/>
<text text-anchor="middle" x="1314.5" y="-358" font-family="Roboto" font-size="10.00"> loadTexture_</text>
<text text-anchor="middle" x="1314.5" y="-347" font-family="Roboto" font-size="10.00">texture_</text>
</g>
<!-- Node29&#45;&gt;Node87 -->
<g id="edge29" class="edge">
<title>Node29&#45;&gt;Node87</title>
<path fill="none" stroke="#9a32cd" stroke-dasharray="5,2" d="M1088.3,-368.99C1102.77,-372.93 1117.99,-377.36 1132,-382 1149.94,-387.94 1169.79,-395.88 1184.63,-402.1"/>
<polygon fill="#9a32cd" stroke="#9a32cd" points="1089.43,-365.67 1078.86,-366.47 1087.62,-372.43 1089.43,-365.67"/>
<text text-anchor="middle" x="1113.5" y="-385" font-family="Roboto" font-size="10.00"> texture_</text>
</g>
<!-- Node30 -->
<g id="node14" class="node">
<title>Node30</title>
<g id="a_node14"><a xlink:href="class_urho3_d_1_1_texture2_d.html" target="_top" xlink:title="2D texture resource.">
<polygon fill="#fff0f0" stroke="red" points="801.5,-362.5 702.5,-362.5 702.5,-343.5 801.5,-343.5 801.5,-362.5"/>
<text text-anchor="middle" x="752" y="-350.5" font-family="Roboto" font-size="10.00">Urho3D::Texture2D</text>
</a>
</g>
</g>
<!-- Node30&#45;&gt;Node29 -->
<g id="edge17" class="edge">
<title>Node30&#45;&gt;Node29</title>
<path fill="none" stroke="#9a32cd" stroke-dasharray="5,2" d="M813.34,-353C859.72,-353 923.21,-353 967.83,-353"/>
<polygon fill="#9a32cd" stroke="#9a32cd" points="813.45,-349.5 803.45,-353 813.45,-356.5 813.45,-349.5"/>
<text text-anchor="middle" x="886" y="-356" font-family="Roboto" font-size="10.00"> ptr_</text>
</g>
<!-- Node31 -->
<g id="node15" class="node">
<title>Node31</title>
<g id="a_node15"><a xlink:href="class_urho3_d_1_1_texture.html" target="_top" xlink:title="Base class for texture resources.">
<polygon fill="#fff0f0" stroke="red" points="571,-405.5 484,-405.5 484,-386.5 571,-386.5 571,-405.5"/>
<text text-anchor="middle" x="527.5" y="-393.5" font-family="Roboto" font-size="10.00">Urho3D::Texture</text>
</a>
</g>
</g>
<!-- Node31&#45;&gt;Node30 -->
<g id="edge18" class="edge">
<title>Node31&#45;&gt;Node30</title>
<path fill="none" stroke="#63b8ff" d="M582.55,-386.6C612,-381.36 649.05,-374.58 682,-368 689.81,-366.44 698.11,-364.7 706.13,-362.98"/>
<polygon fill="#63b8ff" stroke="#63b8ff" points="581.98,-383.15 572.74,-388.34 583.2,-390.04 581.98,-383.15"/>
</g>
<!-- Node84 -->
<g id="node16" class="node">
<title>Node84</title>
<g id="a_node16"><a xlink:href="class_urho3_d_1_1_shared_ptr.html" target="_top" xlink:title=" ">
<polygon fill="white" stroke="orangered" points="593,-368 462,-368 462,-338 593,-338 593,-368"/>
<text text-anchor="start" x="470" y="-356" font-family="Roboto" font-size="10.00">Urho3D::SharedPtr&lt;</text>
<text text-anchor="middle" x="527.5" y="-345" font-family="Roboto" font-size="10.00"> Urho3D::RenderSurface &gt;</text>
</a>
</g>
</g>
<!-- Node84&#45;&gt;Node30 -->
<g id="edge19" class="edge">
<title>Node84&#45;&gt;Node30</title>
<path fill="none" stroke="#9a32cd" stroke-dasharray="5,2" d="M604.68,-353C636.98,-353 673.68,-353 702.25,-353"/>
<polygon fill="#9a32cd" stroke="#9a32cd" points="604.97,-349.5 594.97,-353 604.97,-356.5 604.97,-349.5"/>
<text text-anchor="middle" x="646.5" y="-356" font-family="Roboto" font-size="10.00"> renderSurface_</text>
</g>
<!-- Node71 -->
<g id="node17" class="node">
<title>Node71</title>
<g id="a_node17"><a xlink:href="class_urho3_d_1_1_int_rect.html" target="_top" xlink:title="Two&#45;dimensional bounding rectangle with integer values.">
<polygon fill="white" stroke="#666666" points="1472,-290.5 1386,-290.5 1386,-271.5 1472,-271.5 1472,-290.5"/>
<text text-anchor="middle" x="1429" y="-278.5" font-family="Roboto" font-size="10.00">Urho3D::IntRect</text>
</a>
</g>
</g>
<!-- Node71&#45;&gt;Node5 -->
<g id="edge20" class="edge">
<title>Node71&#45;&gt;Node5</title>
<path fill="none" stroke="#9a32cd" stroke-dasharray="5,2" d="M1481.64,-293.66C1516.25,-302.14 1561.19,-313.15 1593.28,-321.02"/>
<polygon fill="#9a32cd" stroke="#9a32cd" points="1482.81,-290.34 1472.26,-291.36 1481.14,-297.14 1482.81,-290.34"/>
<text text-anchor="middle" x="1542.5" y="-318" font-family="Roboto" font-size="10.00"> rectangle_</text>
</g>
<!-- Node71&#45;&gt;Node71 -->
<g id="edge21" class="edge">
<title>Node71&#45;&gt;Node71</title>
<path fill="none" stroke="#9a32cd" stroke-dasharray="5,2" d="M1408.85,-301.93C1411.37,-305.79 1418.09,-308.5 1429,-308.5 1448.95,-308.5 1454.87,-299.44 1446.77,-290.87"/>
<polygon fill="#9a32cd" stroke="#9a32cd" points="1412.23,-302.86 1410.91,-292.35 1405.39,-301.39 1412.23,-302.86"/>
<text text-anchor="middle" x="1429" y="-311.5" font-family="Roboto" font-size="10.00"> ZERO</text>
</g>
<!-- Node79 -->
<g id="node18" class="node">
<title>Node79</title>
<g id="a_node18"><a xlink:href="class_urho3_d_1_1_vector2.html" target="_top" xlink:title="Two&#45;dimensional vector.">
<polygon fill="white" stroke="#666666" points="1473.5,-169.5 1384.5,-169.5 1384.5,-150.5 1473.5,-150.5 1473.5,-169.5"/>
<text text-anchor="middle" x="1429" y="-157.5" font-family="Roboto" font-size="10.00">Urho3D::Vector2</text>
</a>
</g>
</g>
<!-- Node79&#45;&gt;Node5 -->
<g id="edge22" class="edge">
<title>Node79&#45;&gt;Node5</title>
<path fill="none" stroke="#9a32cd" stroke-dasharray="5,2" d="M1450.47,-177.16C1492.75,-212.6 1588.56,-292.91 1622.12,-321.04"/>
<polygon fill="#9a32cd" stroke="#9a32cd" points="1452.92,-174.65 1443.01,-170.91 1448.42,-180.01 1452.92,-174.65"/>
<text text-anchor="middle" x="1542.5" y="-279" font-family="Roboto" font-size="10.00"> hotSpot_</text>
</g>
<!-- Node79&#45;&gt;Node79 -->
<g id="edge23" class="edge">
<title>Node79&#45;&gt;Node79</title>
<path fill="none" stroke="#9a32cd" stroke-dasharray="5,2" d="M1408.85,-180.93C1411.37,-184.79 1418.09,-187.5 1429,-187.5 1448.95,-187.5 1454.87,-178.44 1446.77,-169.87"/>
<polygon fill="#9a32cd" stroke="#9a32cd" points="1412.23,-181.86 1410.91,-171.35 1405.39,-180.39 1412.23,-181.86"/>
<text text-anchor="middle" x="1429" y="-245.5" font-family="Roboto" font-size="10.00"> DOWN</text>
<text text-anchor="middle" x="1429" y="-234.5" font-family="Roboto" font-size="10.00">LEFT</text>
<text text-anchor="middle" x="1429" y="-223.5" font-family="Roboto" font-size="10.00">ONE</text>
<text text-anchor="middle" x="1429" y="-212.5" font-family="Roboto" font-size="10.00">RIGHT</text>
<text text-anchor="middle" x="1429" y="-201.5" font-family="Roboto" font-size="10.00">UP</text>
<text text-anchor="middle" x="1429" y="-190.5" font-family="Roboto" font-size="10.00">ZERO</text>
</g>
<!-- Node61 -->
<g id="node19" class="node">
<title>Node61</title>
<g id="a_node19"><a xlink:href="class_urho3_d_1_1_int_vector2.html" target="_top" xlink:title="Two&#45;dimensional vector with integer values.">
<polygon fill="white" stroke="#666666" points="1479.5,-48.5 1378.5,-48.5 1378.5,-29.5 1479.5,-29.5 1479.5,-48.5"/>
<text text-anchor="middle" x="1429" y="-36.5" font-family="Roboto" font-size="10.00">Urho3D::IntVector2</text>
</a>
</g>
</g>
<!-- Node61&#45;&gt;Node5 -->
<g id="edge24" class="edge">
<title>Node61&#45;&gt;Node5</title>
<path fill="none" stroke="#9a32cd" stroke-dasharray="5,2" d="M1445.54,-57.28C1472.52,-89.37 1529.13,-158.41 1571,-221 1594.74,-256.49 1618.68,-301.36 1628.88,-321.01"/>
<polygon fill="#9a32cd" stroke="#9a32cd" points="1448.57,-55.43 1439.44,-50.05 1443.22,-59.95 1448.57,-55.43"/>
<text text-anchor="middle" x="1542.5" y="-224" font-family="Roboto" font-size="10.00"> offset_</text>
</g>
<!-- Node61&#45;&gt;Node61 -->
<g id="edge25" class="edge">
<title>Node61&#45;&gt;Node61</title>
<path fill="none" stroke="#9a32cd" stroke-dasharray="5,2" d="M1408.85,-59.93C1411.37,-63.79 1418.09,-66.5 1429,-66.5 1448.95,-66.5 1454.87,-57.44 1446.77,-48.87"/>
<polygon fill="#9a32cd" stroke="#9a32cd" points="1412.23,-60.86 1410.91,-50.35 1405.39,-59.39 1412.23,-60.86"/>
<text text-anchor="middle" x="1429" y="-124.5" font-family="Roboto" font-size="10.00"> DOWN</text>
<text text-anchor="middle" x="1429" y="-113.5" font-family="Roboto" font-size="10.00">LEFT</text>
<text text-anchor="middle" x="1429" y="-102.5" font-family="Roboto" font-size="10.00">ONE</text>
<text text-anchor="middle" x="1429" y="-91.5" font-family="Roboto" font-size="10.00">RIGHT</text>
<text text-anchor="middle" x="1429" y="-80.5" font-family="Roboto" font-size="10.00">UP</text>
<text text-anchor="middle" x="1429" y="-69.5" font-family="Roboto" font-size="10.00">ZERO</text>
</g>
<!-- Node86&#45;&gt;Node5 -->
<g id="edge26" class="edge">
<title>Node86&#45;&gt;Node5</title>
<path fill="none" stroke="#9a32cd" stroke-dasharray="5,2" d="M1507.34,-378.78C1528.29,-374.47 1550.76,-368.93 1571,-362 1587.14,-356.47 1604.47,-347.72 1616.86,-340.92"/>
<polygon fill="#9a32cd" stroke="#9a32cd" points="1506.83,-375.31 1497.7,-380.68 1508.19,-382.18 1506.83,-375.31"/>
<text text-anchor="middle" x="1542.5" y="-380" font-family="Roboto" font-size="10.00"> spriteSheet_</text>
</g>
<!-- Node87&#45;&gt;Node86 -->
<g id="edge27" class="edge">
<title>Node87&#45;&gt;Node86</title>
<path fill="none" stroke="#9a32cd" stroke-dasharray="5,2" d="M1278.61,-405.36C1305.14,-402.81 1335.35,-399.9 1361.63,-397.38"/>
<polygon fill="#9a32cd" stroke="#9a32cd" points="1278.61,-401.84 1268.99,-406.28 1279.28,-408.81 1278.61,-401.84"/>
<text text-anchor="middle" x="1314.5" y="-407" font-family="Roboto" font-size="10.00"> ptr_</text>
</g>
<!-- Node97 -->
<g id="node22" class="node">
<title>Node97</title>
<g id="a_node22"><a xlink:href="class_urho3_d_1_1_shared_ptr.html" target="_top" xlink:title=" ">
<polygon fill="white" stroke="#666666" points="950,-80 822,-80 822,-50 950,-50 950,-80"/>
<text text-anchor="start" x="830" y="-68" font-family="Roboto" font-size="10.00">Urho3D::SharedPtr&lt;</text>
<text text-anchor="middle" x="886" y="-57" font-family="Roboto" font-size="10.00"> Urho3D::PropertySet2D &gt;</text>
</a>
</g>
</g>
<!-- Node97&#45;&gt;Node1 -->
<g id="edge32" class="edge">
<title>Node97&#45;&gt;Node1</title>
<path fill="none" stroke="#9a32cd" stroke-dasharray="5,2" d="M929.46,-45.03C974.02,-25.92 1046.63,0 1112.5,0 1112.5,0 1112.5,0 1789,0 1935.4,0 1947.5,-266.02 1948.43,-321.09"/>
<polygon fill="#9a32cd" stroke="#9a32cd" points="928.17,-41.77 920.41,-48.99 930.98,-48.18 928.17,-41.77"/>
<text text-anchor="middle" x="1429" y="-3" font-family="Roboto" font-size="10.00"> propertySet_</text>
</g>
<!-- Node98&#45;&gt;Node97 -->
<g id="edge33" class="edge">
<title>Node98&#45;&gt;Node97</title>
<path fill="none" stroke="#9a32cd" stroke-dasharray="5,2" d="M563.17,-196.8C630.33,-169.3 777.69,-108.95 847.24,-80.46"/>
<polygon fill="#9a32cd" stroke="#9a32cd" points="562.05,-193.48 554.12,-200.51 564.7,-199.95 562.05,-193.48"/>
<text text-anchor="middle" x="646.5" y="-180" font-family="Roboto" font-size="10.00"> ptr_</text>
</g>
<!-- Node99 -->
<g id="node24" class="node">
<title>Node99</title>
<g id="a_node24"><a xlink:href="class_urho3_d_1_1_hash_map.html" target="_top" xlink:title=" ">
<polygon fill="white" stroke="#666666" points="321,-226 182,-226 182,-196 321,-196 321,-226"/>
<text text-anchor="start" x="190" y="-214" font-family="Roboto" font-size="10.00">Urho3D::HashMap&lt; Urho3D</text>
<text text-anchor="middle" x="251.5" y="-203" font-family="Roboto" font-size="10.00">::String, Urho3D::String &gt;</text>
</a>
</g>
</g>
<!-- Node99&#45;&gt;Node98 -->
<g id="edge35" class="edge">
<title>Node99&#45;&gt;Node98</title>
<path fill="none" stroke="#9a32cd" stroke-dasharray="5,2" d="M332.7,-211C376.15,-211 428.87,-211 468.35,-211"/>
<polygon fill="#9a32cd" stroke="#9a32cd" points="332.8,-207.5 322.8,-211 332.8,-214.5 332.8,-207.5"/>
<text text-anchor="middle" x="391.5" y="-214" font-family="Roboto" font-size="10.00"> nameToValueMapping_</text>
</g>
<!-- Node10 -->
<g id="node25" class="node">
<title>Node10</title>
<g id="a_node25"><a xlink:href="class_urho3_d_1_1_hash_base.html" target="_top" xlink:title="Hash set/map base class.">
<polygon fill="#fff0f0" stroke="red" points="100,-220.5 0,-220.5 0,-201.5 100,-201.5 100,-220.5"/>
<text text-anchor="middle" x="50" y="-208.5" font-family="Roboto" font-size="10.00">Urho3D::HashBase</text>
</a>
</g>
</g>
<!-- Node10&#45;&gt;Node99 -->
<g id="edge36" class="edge">
<title>Node10&#45;&gt;Node99</title>
<path fill="none" stroke="#63b8ff" d="M111.6,-211C133.76,-211 158.99,-211 181.81,-211"/>
<polygon fill="#63b8ff" stroke="#63b8ff" points="111.83,-207.5 101.83,-211 111.83,-214.5 111.83,-207.5"/>
</g>
</g>
</svg>
