<?xml version="1.0" encoding="UTF-8" standalone="no"?>
<!DOCTYPE svg PUBLIC "-//W3C//DTD SVG 1.1//EN"
 "http://www.w3.org/Graphics/SVG/1.1/DTD/svg11.dtd">
<!-- Generated by graphviz version 7.0.3 (0)
 -->
<!-- Title: Urho3D::Component::OnNodeSet Pages: 1 -->
<svg width="1243pt" height="514pt"
 viewBox="0.00 0.00 1243.00 514.00" xmlns="http://www.w3.org/2000/svg" xmlns:xlink="http://www.w3.org/1999/xlink">
<g id="graph0" class="graph" transform="scale(1 1) rotate(0) translate(4 510)">
<title>Urho3D::Component::OnNodeSet</title>
<!-- Node1 -->
<g id="node1" class="node">
<title>Node1</title>
<g id="a_node1"><a xlink:title="Handle scene node being assigned at creation.">
<polygon fill="#999999" stroke="#666666" points="1235,-223.5 1124,-223.5 1124,-193.5 1235,-193.5 1235,-223.5"/>
<text text-anchor="start" x="1132" y="-211.5" font-family="Roboto" font-size="10.00">Urho3D::Component::</text>
<text text-anchor="middle" x="1179.5" y="-200.5" font-family="Roboto" font-size="10.00">OnNodeSet</text>
</a>
</g>
</g>
<!-- Node2 -->
<g id="node2" class="node">
<title>Node2</title>
<g id="a_node2"><a xlink:href="class_urho3_d_1_1_collision_shape2_d.html#a403db7c60e1ba9753698acf1a21ec137" target="_top" xlink:title="Handle node being assigned.">
<polygon fill="white" stroke="#666666" points="1088,-271.5 956,-271.5 956,-241.5 1088,-241.5 1088,-271.5"/>
<text text-anchor="start" x="964" y="-259.5" font-family="Roboto" font-size="10.00">Urho3D::CollisionShape2D</text>
<text text-anchor="middle" x="1022" y="-248.5" font-family="Roboto" font-size="10.00">::OnNodeSet</text>
</a>
</g>
</g>
<!-- Node1&#45;&gt;Node2 -->
<g id="edge1" class="edge">
<title>Node1&#45;&gt;Node2</title>
<path fill="none" stroke="#63b8ff" d="M1117.82,-227.23C1102.97,-231.82 1087.25,-236.67 1072.96,-241.08"/>
<polygon fill="#63b8ff" stroke="#63b8ff" points="1118.47,-230.69 1127,-224.4 1116.41,-224 1118.47,-230.69"/>
</g>
<!-- Node3 -->
<g id="node3" class="node">
<title>Node3</title>
<g id="a_node3"><a xlink:href="class_urho3_d_1_1_constraint2_d.html#a734a8984450f08cc41ddb64987ff58ff" target="_top" xlink:title="Handle node being assigned.">
<polygon fill="white" stroke="#666666" points="1078,-223.5 966,-223.5 966,-193.5 1078,-193.5 1078,-223.5"/>
<text text-anchor="start" x="974" y="-211.5" font-family="Roboto" font-size="10.00">Urho3D::Constraint2D</text>
<text text-anchor="middle" x="1022" y="-200.5" font-family="Roboto" font-size="10.00">::OnNodeSet</text>
</a>
</g>
</g>
<!-- Node1&#45;&gt;Node3 -->
<g id="edge2" class="edge">
<title>Node1&#45;&gt;Node3</title>
<path fill="none" stroke="#63b8ff" d="M1112.47,-208.5C1101.12,-208.5 1089.42,-208.5 1078.38,-208.5"/>
<polygon fill="#63b8ff" stroke="#63b8ff" points="1112.16,-212 1122.16,-208.5 1112.16,-205 1112.16,-212"/>
</g>
<!-- Node4 -->
<g id="node4" class="node">
<title>Node4</title>
<g id="a_node4"><a xlink:href="class_urho3_d_1_1_component.html#abbd5b600c3a004defcb4eb393f855de6" target="_top" xlink:title="Set scene node. Called by Node when creating the component.">
<polygon fill="white" stroke="#666666" points="1077.5,-175.5 966.5,-175.5 966.5,-145.5 1077.5,-145.5 1077.5,-175.5"/>
<text text-anchor="start" x="974.5" y="-163.5" font-family="Roboto" font-size="10.00">Urho3D::Component::</text>
<text text-anchor="middle" x="1022" y="-152.5" font-family="Roboto" font-size="10.00">SetNode</text>
</a>
</g>
</g>
<!-- Node1&#45;&gt;Node4 -->
<g id="edge3" class="edge">
<title>Node1&#45;&gt;Node4</title>
<path fill="none" stroke="#63b8ff" d="M1117.82,-189.77C1102.97,-185.18 1087.25,-180.33 1072.96,-175.92"/>
<polygon fill="#63b8ff" stroke="#63b8ff" points="1116.41,-193 1127,-192.6 1118.47,-186.31 1116.41,-193"/>
</g>
<!-- Node5 -->
<g id="node5" class="node">
<title>Node5</title>
<g id="a_node5"><a xlink:href="class_urho3_d_1_1_node.html#a3792a0c2e23b120ac879c2931d6f9dc4" target="_top" xlink:title="Add a pre&#45;created component. Using this function from application code is discouraged,...">
<polygon fill="white" stroke="#666666" points="920,-170 765,-170 765,-151 920,-151 920,-170"/>
<text text-anchor="middle" x="842.5" y="-158" font-family="Roboto" font-size="10.00">Urho3D::Node::AddComponent</text>
</a>
</g>
</g>
<!-- Node4&#45;&gt;Node5 -->
<g id="edge4" class="edge">
<title>Node4&#45;&gt;Node5</title>
<path fill="none" stroke="#63b8ff" d="M955.13,-160.5C943.76,-160.5 931.84,-160.5 920.21,-160.5"/>
<polygon fill="#63b8ff" stroke="#63b8ff" points="954.78,-164 964.78,-160.5 954.78,-157 954.78,-164"/>
</g>
<!-- Node6 -->
<g id="node6" class="node">
<title>Node6</title>
<g id="a_node6"><a xlink:href="class_urho3_d_1_1_node.html#ab23d77af7fe3350c1dcfec8281849ed3" target="_top" xlink:title="Create a component to this node (with specified ID if provided).">
<polygon fill="white" stroke="#666666" points="729,-242 565,-242 565,-223 729,-223 729,-242"/>
<text text-anchor="middle" x="647" y="-230" font-family="Roboto" font-size="10.00">Urho3D::Node::CreateComponent</text>
</a>
</g>
</g>
<!-- Node5&#45;&gt;Node6 -->
<g id="edge5" class="edge">
<title>Node5&#45;&gt;Node6</title>
<path fill="none" stroke="#63b8ff" d="M804.4,-174.31C766.47,-188.42 708.48,-209.99 674.8,-222.53"/>
<polygon fill="#63b8ff" stroke="#63b8ff" points="805.43,-177.66 813.58,-170.89 802.99,-171.1 805.43,-177.66"/>
</g>
<!-- Node43 -->
<g id="node20" class="node">
<title>Node43</title>
<g id="a_node20"><a xlink:href="class_urho3_d_1_1_node.html#a7d5ace493b64e225e28101f4f8c697ee" target="_top" xlink:title="Create component, allowing UnknownComponent if actual type is not supported. Leave typeName empty if ...">
<polygon fill="white" stroke="#666666" points="513,-79.5 381,-79.5 381,-49.5 513,-49.5 513,-79.5"/>
<text text-anchor="start" x="389" y="-67.5" font-family="Roboto" font-size="10.00">Urho3D::Node::SafeCreate</text>
<text text-anchor="middle" x="447" y="-56.5" font-family="Roboto" font-size="10.00">Component</text>
</a>
</g>
</g>
<!-- Node5&#45;&gt;Node43 -->
<g id="edge26" class="edge">
<title>Node5&#45;&gt;Node43</title>
<path fill="none" stroke="#63b8ff" d="M789.89,-147.91C718.24,-130.43 588.74,-98.84 511.33,-79.95"/>
<polygon fill="#63b8ff" stroke="#63b8ff" points="788.86,-151.26 799.4,-150.23 790.51,-144.46 788.86,-151.26"/>
</g>
<!-- Node7 -->
<g id="node7" class="node">
<title>Node7</title>
<g id="a_node7"><a xlink:href="class_urho3_d_1_1_node.html#a49c905a6e604593b39dcdb4bc7c1fae6" target="_top" xlink:title="Template version of creating a component.">
<polygon fill="white" stroke="#666666" points="529,-442 365,-442 365,-423 529,-423 529,-442"/>
<text text-anchor="middle" x="447" y="-430" font-family="Roboto" font-size="10.00">Urho3D::Node::CreateComponent</text>
</a>
</g>
</g>
<!-- Node6&#45;&gt;Node7 -->
<g id="edge6" class="edge">
<title>Node6&#45;&gt;Node7</title>
<path fill="none" stroke="#63b8ff" d="M638.85,-253.08C624.46,-291.33 588.21,-373.2 529,-414.5 524.39,-417.71 519.31,-420.37 514,-422.55"/>
<polygon fill="#63b8ff" stroke="#63b8ff" points="642.13,-254.32 642.24,-243.73 635.55,-251.94 642.13,-254.32"/>
</g>
<!-- Node8 -->
<g id="node8" class="node">
<title>Node8</title>
<g id="a_node8"><a xlink:href="class_urho3_d_1_1_terrain.html#a4c3774f5e5fb85197eb87d8fd1fff046" target="_top" xlink:title="Regenerate terrain geometry.">
<polygon fill="#fff0f0" stroke="red" points="527.5,-405 366.5,-405 366.5,-386 527.5,-386 527.5,-405"/>
<text text-anchor="middle" x="447" y="-393" font-family="Roboto" font-size="10.00">Urho3D::Terrain::CreateGeometry</text>
</a>
</g>
</g>
<!-- Node6&#45;&gt;Node8 -->
<g id="edge7" class="edge">
<title>Node6&#45;&gt;Node8</title>
<path fill="none" stroke="#63b8ff" d="M635.7,-252.2C618.19,-283.64 579.55,-344.85 529,-376.5 523.12,-380.18 516.6,-383.15 509.89,-385.54"/>
<polygon fill="#63b8ff" stroke="#63b8ff" points="638.59,-254.21 640.27,-243.75 632.43,-250.88 638.59,-254.21"/>
</g>
<!-- Node21 -->
<g id="node15" class="node">
<title>Node21</title>
<g id="a_node15"><a xlink:href="class_urho3_d_1_1_node.html#ad4e4b1798b1b55d0c60730bd061362af" target="_top" xlink:title="Create a component to this node if it does not exist already.">
<polygon fill="#fff0f0" stroke="red" points="516,-367.5 378,-367.5 378,-337.5 516,-337.5 516,-367.5"/>
<text text-anchor="start" x="386" y="-355.5" font-family="Roboto" font-size="10.00">Urho3D::Node::GetOrCreate</text>
<text text-anchor="middle" x="447" y="-344.5" font-family="Roboto" font-size="10.00">Component</text>
</a>
</g>
</g>
<!-- Node6&#45;&gt;Node21 -->
<g id="edge15" class="edge">
<title>Node6&#45;&gt;Node21</title>
<path fill="none" stroke="#63b8ff" d="M628.81,-250.45C607.34,-271.89 568.58,-307.51 529,-328.5 522.91,-331.73 516.33,-334.58 509.63,-337.09"/>
<polygon fill="#63b8ff" stroke="#63b8ff" points="631.08,-253.13 635.6,-243.54 626.09,-248.22 631.08,-253.13"/>
</g>
<!-- Node33 -->
<g id="node16" class="node">
<title>Node33</title>
<g id="a_node16"><a xlink:href="class_urho3_d_1_1_u_i_component.html#aada4fb6355ce0d6d6a21e8db02fa214f" target="_top" xlink:title="Handle component being added to Node or removed from it.">
<polygon fill="white" stroke="#666666" points="505,-319.5 389,-319.5 389,-289.5 505,-289.5 505,-319.5"/>
<text text-anchor="start" x="397" y="-307.5" font-family="Roboto" font-size="10.00">Urho3D::UIComponent</text>
<text text-anchor="middle" x="447" y="-296.5" font-family="Roboto" font-size="10.00">::OnNodeSet</text>
</a>
</g>
</g>
<!-- Node6&#45;&gt;Node33 -->
<g id="edge16" class="edge">
<title>Node6&#45;&gt;Node33</title>
<path fill="none" stroke="#63b8ff" d="M613.49,-246.88C590.2,-256.92 557.96,-270.3 529,-280.5 520.56,-283.47 511.55,-286.39 502.71,-289.11"/>
<polygon fill="#63b8ff" stroke="#63b8ff" points="614.66,-250.18 622.44,-242.99 611.87,-243.76 614.66,-250.18"/>
</g>
<!-- Node34 -->
<g id="node17" class="node">
<title>Node34</title>
<g id="a_node17"><a xlink:href="class_urho3_d_1_1_constraint2_d.html#a5b6fe5289152970794eec67787b7416d" target="_top" xlink:title="Handle scene being assigned.">
<polygon fill="white" stroke="#666666" points="503,-271.5 391,-271.5 391,-241.5 503,-241.5 503,-271.5"/>
<text text-anchor="start" x="399" y="-259.5" font-family="Roboto" font-size="10.00">Urho3D::Constraint2D</text>
<text text-anchor="middle" x="447" y="-248.5" font-family="Roboto" font-size="10.00">::OnSceneSet</text>
</a>
</g>
</g>
<!-- Node6&#45;&gt;Node34 -->
<g id="edge17" class="edge">
<title>Node6&#45;&gt;Node34</title>
<path fill="none" stroke="#63b8ff" d="M553.43,-243.72C536.33,-245.79 518.98,-247.9 503.42,-249.78"/>
<polygon fill="#63b8ff" stroke="#63b8ff" points="553.6,-247.23 563.11,-242.55 552.76,-240.28 553.6,-247.23"/>
</g>
<!-- Node35 -->
<g id="node18" class="node">
<title>Node35</title>
<g id="a_node18"><a xlink:href="class_urho3_d_1_1_rigid_body2_d.html#a633bf73a98b1099f261f061ab3c65ce2" target="_top" xlink:title="Handle scene being assigned.">
<polygon fill="white" stroke="#666666" points="502.5,-223.5 391.5,-223.5 391.5,-193.5 502.5,-193.5 502.5,-223.5"/>
<text text-anchor="start" x="399.5" y="-211.5" font-family="Roboto" font-size="10.00">Urho3D::RigidBody2D</text>
<text text-anchor="middle" x="447" y="-200.5" font-family="Roboto" font-size="10.00">::OnSceneSet</text>
</a>
</g>
</g>
<!-- Node6&#45;&gt;Node35 -->
<g id="edge18" class="edge">
<title>Node6&#45;&gt;Node35</title>
<path fill="none" stroke="#63b8ff" d="M553.32,-221.27C536.04,-219.17 518.51,-217.05 502.83,-215.15"/>
<polygon fill="#63b8ff" stroke="#63b8ff" points="552.76,-224.72 563.11,-222.45 553.6,-217.77 552.76,-224.72"/>
</g>
<!-- Node36 -->
<g id="node19" class="node">
<title>Node36</title>
<g id="a_node19"><a xlink:href="class_urho3_d_1_1_connection.html#a0a9e39346bc1f85b9186d3258a178ac1" target="_top" xlink:title="Process a scene update message from the server. Called by Network.">
<polygon fill="#fff0f0" stroke="red" points="505,-175.5 389,-175.5 389,-145.5 505,-145.5 505,-175.5"/>
<text text-anchor="start" x="397" y="-163.5" font-family="Roboto" font-size="10.00">Urho3D::Connection</text>
<text text-anchor="middle" x="447" y="-152.5" font-family="Roboto" font-size="10.00">::ProcessSceneUpdate</text>
</a>
</g>
</g>
<!-- Node6&#45;&gt;Node36 -->
<g id="edge19" class="edge">
<title>Node6&#45;&gt;Node36</title>
<path fill="none" stroke="#63b8ff" d="M613.49,-218.12C590.2,-208.08 557.96,-194.7 529,-184.5 520.56,-181.53 511.55,-178.61 502.71,-175.89"/>
<polygon fill="#63b8ff" stroke="#63b8ff" points="611.87,-221.24 622.44,-222.01 614.66,-214.82 611.87,-221.24"/>
</g>
<!-- Node6&#45;&gt;Node43 -->
<g id="edge20" class="edge">
<title>Node6&#45;&gt;Node43</title>
<path fill="none" stroke="#63b8ff" d="M624.39,-215.29C606.94,-200.65 582.48,-178.4 565,-155.5 544.49,-128.63 555.22,-109.83 529,-88.5 524.22,-84.61 518.83,-81.35 513.16,-78.62"/>
<polygon fill="#63b8ff" stroke="#63b8ff" points="622.17,-217.99 632.11,-221.63 626.61,-212.58 622.17,-217.99"/>
</g>
<!-- Node48 -->
<g id="node25" class="node">
<title>Node48</title>
<g id="a_node25"><a xlink:href="class_urho3_d_1_1_tile_map2_d.html#a6214ad04240021eaed58d71e25081bed" target="_top" xlink:title=" ">
<polygon fill="#fff0f0" stroke="red" points="500.5,-127.5 393.5,-127.5 393.5,-97.5 500.5,-97.5 500.5,-127.5"/>
<text text-anchor="start" x="401.5" y="-115.5" font-family="Roboto" font-size="10.00">Urho3D::TileMap2D::</text>
<text text-anchor="middle" x="447" y="-104.5" font-family="Roboto" font-size="10.00">SetTmxFile</text>
</a>
</g>
</g>
<!-- Node6&#45;&gt;Node48 -->
<g id="edge25" class="edge">
<title>Node6&#45;&gt;Node48</title>
<path fill="none" stroke="#63b8ff" d="M628.81,-214.55C607.34,-193.11 568.58,-157.49 529,-136.5 520.19,-131.83 510.34,-127.94 500.64,-124.76"/>
<polygon fill="#63b8ff" stroke="#63b8ff" points="626.09,-216.78 635.6,-221.46 631.08,-211.87 626.09,-216.78"/>
</g>
<!-- Node9 -->
<g id="node9" class="node">
<title>Node9</title>
<g id="a_node9"><a xlink:href="class_urho3_d_1_1_terrain.html#ab75024299e9c5e44b3c7266ab3b0e361" target="_top" xlink:title="Apply attribute changes that can not be applied immediately. Called after scene load or a network upd...">
<polygon fill="white" stroke="#666666" points="326.5,-506 170.5,-506 170.5,-487 326.5,-487 326.5,-506"/>
<text text-anchor="middle" x="248.5" y="-494" font-family="Roboto" font-size="10.00">Urho3D::Terrain::ApplyAttributes</text>
</a>
</g>
</g>
<!-- Node8&#45;&gt;Node9 -->
<g id="edge8" class="edge">
<title>Node8&#45;&gt;Node9</title>
<path fill="none" stroke="#63b8ff" d="M371.18,-410.39C369.04,-411.65 366.97,-413.02 365,-414.5 338.91,-434.1 355.17,-459 329,-478.5 324.69,-481.71 319.91,-484.37 314.89,-486.56"/>
<polygon fill="#63b8ff" stroke="#63b8ff" points="372.25,-413.77 379.64,-406.17 369.13,-407.5 372.25,-413.77"/>
</g>
<!-- Node10 -->
<g id="node10" class="node">
<title>Node10</title>
<g id="a_node10"><a xlink:href="class_urho3_d_1_1_terrain.html#a46e980c5dc1639b4581e10d61c1cb79f" target="_top" xlink:title="Apply changes from the heightmap image.">
<polygon fill="white" stroke="#666666" points="329,-469 168,-469 168,-450 329,-450 329,-469"/>
<text text-anchor="middle" x="248.5" y="-457" font-family="Roboto" font-size="10.00">Urho3D::Terrain::ApplyHeightMap</text>
</a>
</g>
</g>
<!-- Node8&#45;&gt;Node10 -->
<g id="edge9" class="edge">
<title>Node8&#45;&gt;Node10</title>
<path fill="none" stroke="#63b8ff" d="M379.93,-408.67C374.79,-410.39 369.76,-412.33 365,-414.5 347.04,-422.69 346.94,-432.27 329,-440.5 321.13,-444.11 312.5,-447.08 303.91,-449.5"/>
<polygon fill="#63b8ff" stroke="#63b8ff" points="380.57,-412.13 389.11,-405.86 378.53,-405.44 380.57,-412.13"/>
</g>
<!-- Node11 -->
<g id="node11" class="node">
<title>Node11</title>
<g id="a_node11"><a xlink:href="class_urho3_d_1_1_terrain.html#a43af67aece762c4ec605c85eb51815ba" target="_top" xlink:title="Handle heightmap image reload finished.">
<polygon fill="white" stroke="#666666" points="323,-431.5 174,-431.5 174,-401.5 323,-401.5 323,-431.5"/>
<text text-anchor="start" x="182" y="-419.5" font-family="Roboto" font-size="10.00">Urho3D::Terrain::HandleHeight</text>
<text text-anchor="middle" x="248.5" y="-408.5" font-family="Roboto" font-size="10.00">MapReloadFinished</text>
</a>
</g>
</g>
<!-- Node8&#45;&gt;Node11 -->
<g id="edge10" class="edge">
<title>Node8&#45;&gt;Node11</title>
<path fill="none" stroke="#63b8ff" d="M354.73,-405.25C344.21,-406.38 333.58,-407.51 323.33,-408.61"/>
<polygon fill="#63b8ff" stroke="#63b8ff" points="355,-408.75 364.57,-404.2 354.26,-401.78 355,-408.75"/>
</g>
<!-- Node12 -->
<g id="node12" class="node">
<title>Node12</title>
<g id="a_node12"><a xlink:href="class_urho3_d_1_1_terrain.html#a22a49ec302f5976a837f343248e5c28c" target="_top" xlink:title="Set heightmap image and optionally recreate the geometry immediately. Return true if successful.">
<polygon fill="#fff0f0" stroke="red" points="132,-409.5 0,-409.5 0,-379.5 132,-379.5 132,-409.5"/>
<text text-anchor="start" x="8" y="-397.5" font-family="Roboto" font-size="10.00">Urho3D::Terrain::SetHeight</text>
<text text-anchor="middle" x="66" y="-386.5" font-family="Roboto" font-size="10.00">MapInternal</text>
</a>
</g>
</g>
<!-- Node8&#45;&gt;Node12 -->
<g id="edge12" class="edge">
<title>Node8&#45;&gt;Node12</title>
<path fill="none" stroke="#63b8ff" d="M354.68,-392.93C346,-392.76 337.33,-392.61 329,-392.5 257.45,-391.58 239.55,-391.79 168,-392.5 156.51,-392.61 144.29,-392.8 132.47,-393.01"/>
<polygon fill="#63b8ff" stroke="#63b8ff" points="354.49,-396.43 364.56,-393.14 354.64,-389.43 354.49,-396.43"/>
</g>
<!-- Node16 -->
<g id="node13" class="node">
<title>Node16</title>
<g id="a_node13"><a xlink:href="class_urho3_d_1_1_terrain.html#a55a33ee2d3fa6f25d5ef71f2bcc9e81e" target="_top" xlink:title=" ">
<polygon fill="white" stroke="#666666" points="318.5,-345.5 178.5,-345.5 178.5,-315.5 318.5,-315.5 318.5,-345.5"/>
<text text-anchor="start" x="186.5" y="-333.5" font-family="Roboto" font-size="10.00">Urho3D::Terrain::SetMaxLod</text>
<text text-anchor="middle" x="248.5" y="-322.5" font-family="Roboto" font-size="10.00">Levels</text>
</a>
</g>
</g>
<!-- Node8&#45;&gt;Node16 -->
<g id="edge13" class="edge">
<title>Node8&#45;&gt;Node16</title>
<path fill="none" stroke="#63b8ff" d="M385.4,-382.77C378.46,-380.87 371.53,-378.78 365,-376.5 348.29,-370.67 345.33,-366.32 329,-359.5 317.75,-354.8 305.43,-350.1 293.93,-345.9"/>
<polygon fill="#63b8ff" stroke="#63b8ff" points="384.24,-386.08 394.8,-385.2 386,-379.31 384.24,-386.08"/>
</g>
<!-- Node17 -->
<g id="node14" class="node">
<title>Node17</title>
<g id="a_node14"><a xlink:href="class_urho3_d_1_1_terrain.html#a5f851bd03c1144100d68c1acc21c4342" target="_top" xlink:title=" ">
<polygon fill="white" stroke="#666666" points="322,-297.5 175,-297.5 175,-267.5 322,-267.5 322,-297.5"/>
<text text-anchor="start" x="183" y="-285.5" font-family="Roboto" font-size="10.00">Urho3D::Terrain::SetOcclusion</text>
<text text-anchor="middle" x="248.5" y="-274.5" font-family="Roboto" font-size="10.00">LodLevel</text>
</a>
</g>
</g>
<!-- Node8&#45;&gt;Node17 -->
<g id="edge14" class="edge">
<title>Node8&#45;&gt;Node17</title>
<path fill="none" stroke="#63b8ff" d="M370.48,-380.32C368.58,-379.14 366.75,-377.87 365,-376.5 337.43,-354.97 355.88,-328.89 329,-306.5 325.01,-303.18 320.57,-300.32 315.89,-297.85"/>
<polygon fill="#63b8ff" stroke="#63b8ff" points="368.62,-383.3 379.1,-384.82 371.86,-377.09 368.62,-383.3"/>
</g>
<!-- Node11&#45;&gt;Node12 -->
<g id="edge11" class="edge">
<title>Node11&#45;&gt;Node12</title>
<path fill="none" stroke="#63b8ff" d="M162.29,-406.11C152.26,-404.89 142.14,-403.66 132.43,-402.48"/>
<polygon fill="#63b8ff" stroke="#63b8ff" points="161.71,-409.57 172.06,-407.31 162.56,-402.62 161.71,-409.57"/>
</g>
<!-- Node44 -->
<g id="node21" class="node">
<title>Node44</title>
<g id="a_node21"><a xlink:href="class_urho3_d_1_1_node.html#a2c8ee5a128ea2f04b5220bd9f29c389b" target="_top" xlink:title="Clone a component from another node and specify the create mode. Return the clone if successful or nu...">
<polygon fill="white" stroke="#666666" points="329,-130 168,-130 168,-111 329,-111 329,-130"/>
<text text-anchor="middle" x="248.5" y="-118" font-family="Roboto" font-size="10.00">Urho3D::Node::CloneComponent</text>
</a>
</g>
</g>
<!-- Node43&#45;&gt;Node44 -->
<g id="edge21" class="edge">
<title>Node43&#45;&gt;Node44</title>
<path fill="none" stroke="#63b8ff" d="M381.51,-83.23C375.92,-84.97 370.35,-86.74 365,-88.5 348.84,-93.81 345.3,-96.63 329,-101.5 318.12,-104.75 306.28,-107.83 295.14,-110.52"/>
<polygon fill="#63b8ff" stroke="#63b8ff" points="382.29,-86.66 390.82,-80.38 380.24,-79.97 382.29,-86.66"/>
</g>
<!-- Node45 -->
<g id="node22" class="node">
<title>Node45</title>
<g id="a_node22"><a xlink:href="class_urho3_d_1_1_node.html#a81a34b9111afba558145d81e42ad640e" target="_top" xlink:title="Load components and optionally load child nodes.">
<polygon fill="white" stroke="#666666" points="302,-93 195,-93 195,-74 302,-74 302,-93"/>
<text text-anchor="middle" x="248.5" y="-81" font-family="Roboto" font-size="10.00">Urho3D::Node::Load</text>
</a>
</g>
</g>
<!-- Node43&#45;&gt;Node45 -->
<g id="edge22" class="edge">
<title>Node43&#45;&gt;Node45</title>
<path fill="none" stroke="#63b8ff" d="M369.35,-71.91C346.89,-74.08 322.86,-76.41 302.25,-78.4"/>
<polygon fill="#63b8ff" stroke="#63b8ff" points="369.45,-75.42 379.06,-70.97 368.77,-68.45 369.45,-75.42"/>
</g>
<!-- Node46 -->
<g id="node23" class="node">
<title>Node46</title>
<g id="a_node23"><a xlink:href="class_urho3_d_1_1_node.html#a5e1c150d8d013c7550537c5251bf86f7" target="_top" xlink:title="Load components from XML data and optionally load child nodes.">
<polygon fill="white" stroke="#666666" points="314.5,-56 182.5,-56 182.5,-37 314.5,-37 314.5,-56"/>
<text text-anchor="middle" x="248.5" y="-44" font-family="Roboto" font-size="10.00">Urho3D::Node::LoadJSON</text>
</a>
</g>
</g>
<!-- Node43&#45;&gt;Node46 -->
<g id="edge23" class="edge">
<title>Node43&#45;&gt;Node46</title>
<path fill="none" stroke="#63b8ff" d="M369.25,-57.47C351.32,-55.83 332.38,-54.09 314.98,-52.5"/>
<polygon fill="#63b8ff" stroke="#63b8ff" points="368.78,-60.94 379.06,-58.37 369.42,-53.97 368.78,-60.94"/>
</g>
<!-- Node47 -->
<g id="node24" class="node">
<title>Node47</title>
<g id="a_node24"><a xlink:href="class_urho3_d_1_1_node.html#ab44e461de1af5859a176dfaa75ec95bd" target="_top" xlink:title="Load components from XML data and optionally load child nodes.">
<polygon fill="white" stroke="#666666" points="312,-19 185,-19 185,0 312,0 312,-19"/>
<text text-anchor="middle" x="248.5" y="-7" font-family="Roboto" font-size="10.00">Urho3D::Node::LoadXML</text>
</a>
</g>
</g>
<!-- Node43&#45;&gt;Node47 -->
<g id="edge24" class="edge">
<title>Node43&#45;&gt;Node47</title>
<path fill="none" stroke="#63b8ff" d="M389.23,-45.5C370.19,-39.4 348.77,-32.85 329,-27.5 318.48,-24.65 307.1,-21.89 296.32,-19.42"/>
<polygon fill="#63b8ff" stroke="#63b8ff" points="388.11,-48.81 398.7,-48.55 390.26,-42.15 388.11,-48.81"/>
</g>
</g>
</svg>
