<?xml version="1.0" encoding="UTF-8" standalone="no"?>
<!DOCTYPE svg PUBLIC "-//W3C//DTD SVG 1.1//EN"
 "http://www.w3.org/Graphics/SVG/1.1/DTD/svg11.dtd">
<!-- Generated by graphviz version 7.0.3 (0)
 -->
<!-- Title: Urho3D::WorkQueue Pages: 1 -->
<svg width="1064pt" height="924pt"
 viewBox="0.00 0.00 1064.00 924.00" xmlns="http://www.w3.org/2000/svg" xmlns:xlink="http://www.w3.org/1999/xlink">
<g id="graph0" class="graph" transform="scale(1 1) rotate(0) translate(4 920)">
<title>Urho3D::WorkQueue</title>
<!-- Node1 -->
<g id="node1" class="node">
<title>Node1</title>
<g id="a_node1"><a xlink:title="Work queue subsystem for multithreading.">
<polygon fill="#999999" stroke="#666666" points="1045.5,-707.5 938.5,-707.5 938.5,-688.5 1045.5,-688.5 1045.5,-707.5"/>
<text text-anchor="middle" x="992" y="-695.5" font-family="Roboto" font-size="10.00">Urho3D::WorkQueue</text>
</a>
</g>
</g>
<!-- Node2 -->
<g id="node2" class="node">
<title>Node2</title>
<g id="a_node2"><a xlink:href="class_urho3_d_1_1_object.html" target="_top" xlink:title=" ">
<polygon fill="white" stroke="#666666" points="474.5,-818.5 391.5,-818.5 391.5,-799.5 474.5,-799.5 474.5,-818.5"/>
<text text-anchor="middle" x="433" y="-806.5" font-family="Roboto" font-size="10.00">Urho3D::Object</text>
</a>
</g>
</g>
<!-- Node2&#45;&gt;Node1 -->
<g id="edge1" class="edge">
<title>Node2&#45;&gt;Node1</title>
<path fill="none" stroke="#63b8ff" d="M467.6,-823.03C478.95,-827.09 491.83,-830.97 504,-833 559.76,-842.29 516.24,-873.84 785,-828 842.64,-818.17 860.92,-818.78 910,-787 943.67,-765.2 972.4,-726.04 984.66,-707.82"/>
<polygon fill="#63b8ff" stroke="#63b8ff" points="468.84,-819.76 458.25,-819.51 466.37,-826.31 468.84,-819.76"/>
</g>
<!-- Node18 -->
<g id="node16" class="node">
<title>Node18</title>
<g id="a_node16"><a xlink:href="class_urho3_d_1_1_event_handler.html" target="_top" xlink:title="Internal helper class for invoking event handler functions.">
<polygon fill="#fff0f0" stroke="red" points="731,-818.5 618,-818.5 618,-799.5 731,-799.5 731,-818.5"/>
<text text-anchor="middle" x="674.5" y="-806.5" font-family="Roboto" font-size="10.00">Urho3D::EventHandler</text>
</a>
</g>
</g>
<!-- Node2&#45;&gt;Node18 -->
<g id="edge23" class="edge">
<title>Node2&#45;&gt;Node18</title>
<path fill="none" stroke="#9a32cd" stroke-dasharray="5,2" d="M485.95,-809C524.77,-809 577.76,-809 617.51,-809"/>
<polygon fill="#9a32cd" stroke="#9a32cd" points="486.41,-805.5 476.41,-809 486.41,-812.5 486.41,-805.5"/>
<text text-anchor="middle" x="525" y="-823" font-family="Roboto" font-size="10.00"> receiver_</text>
<text text-anchor="middle" x="525" y="-812" font-family="Roboto" font-size="10.00">sender_</text>
</g>
<!-- Node3 -->
<g id="node3" class="node">
<title>Node3</title>
<g id="a_node3"><a xlink:href="class_urho3_d_1_1_ref_counted.html" target="_top" xlink:title="Base class for intrusively reference&#45;counted objects. These are noncopyable and non&#45;assignable.">
<polygon fill="white" stroke="#666666" points="291.5,-723.5 184.5,-723.5 184.5,-704.5 291.5,-704.5 291.5,-723.5"/>
<text text-anchor="middle" x="238" y="-711.5" font-family="Roboto" font-size="10.00">Urho3D::RefCounted</text>
</a>
</g>
</g>
<!-- Node3&#45;&gt;Node2 -->
<g id="edge2" class="edge">
<title>Node3&#45;&gt;Node2</title>
<path fill="none" stroke="#63b8ff" d="M269.45,-728.99C309.21,-748.56 377.73,-782.29 411.69,-799"/>
<polygon fill="#63b8ff" stroke="#63b8ff" points="271.17,-725.93 260.65,-724.66 268.07,-732.21 271.17,-725.93"/>
</g>
<!-- Node5 -->
<g id="node5" class="node">
<title>Node5</title>
<g id="a_node5"><a xlink:href="class_urho3_d_1_1_context.html" target="_top" xlink:title="Urho3D execution context. Provides access to subsystems, object factories and attributes,...">
<polygon fill="white" stroke="#666666" points="1036.5,-360.5 947.5,-360.5 947.5,-341.5 1036.5,-341.5 1036.5,-360.5"/>
<text text-anchor="middle" x="992" y="-348.5" font-family="Roboto" font-size="10.00">Urho3D::Context</text>
</a>
</g>
</g>
<!-- Node3&#45;&gt;Node5 -->
<g id="edge5" class="edge">
<title>Node3&#45;&gt;Node5</title>
<path fill="none" stroke="#63b8ff" d="M259.1,-697.08C285.18,-676.1 332.95,-640.91 380,-623 550.25,-558.19 614.45,-624 785,-560 846.53,-536.91 863.68,-527.62 910,-481 947.86,-442.9 976.4,-383.98 986.76,-360.83"/>
<polygon fill="#63b8ff" stroke="#63b8ff" points="257.2,-694.11 251.68,-703.15 261.64,-699.53 257.2,-694.11"/>
</g>
<!-- Node4 -->
<g id="node4" class="node">
<title>Node4</title>
<g id="a_node4"><a xlink:href="struct_urho3_d_1_1_ref_count.html" target="_top" xlink:title="Reference count structure.">
<polygon fill="white" stroke="#666666" points="96,-723.5 0,-723.5 0,-704.5 96,-704.5 96,-723.5"/>
<text text-anchor="middle" x="48" y="-711.5" font-family="Roboto" font-size="10.00">Urho3D::RefCount</text>
</a>
</g>
</g>
<!-- Node4&#45;&gt;Node3 -->
<g id="edge3" class="edge">
<title>Node4&#45;&gt;Node3</title>
<path fill="none" stroke="#9a32cd" stroke-dasharray="5,2" d="M107.76,-714C132.25,-714 160.46,-714 184.27,-714"/>
<polygon fill="#9a32cd" stroke="#9a32cd" points="107.95,-710.5 97.95,-714 107.95,-717.5 107.95,-710.5"/>
<text text-anchor="middle" x="137" y="-717" font-family="Roboto" font-size="10.00"> refCount_</text>
</g>
<!-- Node5&#45;&gt;Node2 -->
<g id="edge4" class="edge">
<title>Node5&#45;&gt;Node2</title>
<path fill="none" stroke="#9a32cd" stroke-dasharray="5,2" d="M991.7,-372.28C992.1,-423.06 985.23,-551.52 910,-611 849.54,-658.8 631.67,-598.1 564,-635 493.48,-673.45 450.31,-768.37 437.8,-799.18"/>
<polygon fill="#9a32cd" stroke="#9a32cd" points="995.21,-372.32 991.51,-362.4 988.21,-372.46 995.21,-372.32"/>
<text text-anchor="middle" x="674.5" y="-638" font-family="Roboto" font-size="10.00"> context_</text>
</g>
<!-- Node6 -->
<g id="node6" class="node">
<title>Node6</title>
<g id="a_node6"><a xlink:href="class_urho3_d_1_1_hash_map.html" target="_top" xlink:title=" ">
<polygon fill="white" stroke="#666666" points="765.5,-229.5 583.5,-229.5 583.5,-188.5 765.5,-188.5 765.5,-229.5"/>
<text text-anchor="start" x="591.5" y="-217.5" font-family="Roboto" font-size="10.00">Urho3D::HashMap&lt; Urho3D</text>
<text text-anchor="start" x="591.5" y="-206.5" font-family="Roboto" font-size="10.00">::StringHash, Urho3D::</text>
<text text-anchor="middle" x="674.5" y="-195.5" font-family="Roboto" font-size="10.00">SharedPtr&lt; Urho3D::ObjectFactory &gt; &gt;</text>
</a>
</g>
</g>
<!-- Node6&#45;&gt;Node5 -->
<g id="edge6" class="edge">
<title>Node6&#45;&gt;Node5</title>
<path fill="none" stroke="#9a32cd" stroke-dasharray="5,2" d="M776.91,-226.66C819.87,-236.94 869.29,-252.64 910,-276 940.92,-293.74 969.67,-325.3 983.08,-341.22"/>
<polygon fill="#9a32cd" stroke="#9a32cd" points="777.86,-223.29 767.33,-224.44 776.28,-230.11 777.86,-223.29"/>
<text text-anchor="middle" x="856.5" y="-279" font-family="Roboto" font-size="10.00"> factories_</text>
</g>
<!-- Node7 -->
<g id="node7" class="node">
<title>Node7</title>
<g id="a_node7"><a xlink:href="class_urho3_d_1_1_hash_base.html" target="_top" xlink:title="Hash set/map base class.">
<polygon fill="#fff0f0" stroke="red" points="483,-256.5 383,-256.5 383,-237.5 483,-237.5 483,-256.5"/>
<text text-anchor="middle" x="433" y="-244.5" font-family="Roboto" font-size="10.00">Urho3D::HashBase</text>
</a>
</g>
</g>
<!-- Node7&#45;&gt;Node6 -->
<g id="edge7" class="edge">
<title>Node7&#45;&gt;Node6</title>
<path fill="none" stroke="#63b8ff" d="M494.49,-237.4C521.33,-233.14 553.48,-228.04 583.08,-223.35"/>
<polygon fill="#63b8ff" stroke="#63b8ff" points="494.16,-233.91 484.83,-238.94 495.25,-240.82 494.16,-233.91"/>
</g>
<!-- Node11 -->
<g id="node9" class="node">
<title>Node11</title>
<g id="a_node9"><a xlink:href="class_urho3_d_1_1_hash_map.html" target="_top" xlink:title=" ">
<polygon fill="white" stroke="#666666" points="749,-170.5 600,-170.5 600,-129.5 749,-129.5 749,-170.5"/>
<text text-anchor="start" x="608" y="-158.5" font-family="Roboto" font-size="10.00">Urho3D::HashMap&lt; Urho3D</text>
<text text-anchor="start" x="608" y="-147.5" font-family="Roboto" font-size="10.00">::StringHash, Urho3D::</text>
<text text-anchor="middle" x="674.5" y="-136.5" font-family="Roboto" font-size="10.00">SharedPtr&lt; Urho3D::Object &gt; &gt;</text>
</a>
</g>
</g>
<!-- Node7&#45;&gt;Node11 -->
<g id="edge11" class="edge">
<title>Node7&#45;&gt;Node11</title>
<path fill="none" stroke="#63b8ff" d="M459.55,-231.45C485.2,-216.36 526.23,-193.67 564,-179 575.37,-174.59 587.65,-170.61 599.74,-167.12"/>
<polygon fill="#63b8ff" stroke="#63b8ff" points="457.97,-228.31 451.17,-236.43 461.55,-234.33 457.97,-228.31"/>
</g>
<!-- Node12 -->
<g id="node10" class="node">
<title>Node12</title>
<g id="a_node10"><a xlink:href="class_urho3_d_1_1_hash_map.html" target="_top" xlink:title=" ">
<polygon fill="white" stroke="#666666" points="755.5,-111.5 593.5,-111.5 593.5,-70.5 755.5,-70.5 755.5,-111.5"/>
<text text-anchor="start" x="601.5" y="-99.5" font-family="Roboto" font-size="10.00">Urho3D::HashMap&lt; Urho3D</text>
<text text-anchor="start" x="601.5" y="-88.5" font-family="Roboto" font-size="10.00">::StringHash, Urho3D::</text>
<text text-anchor="middle" x="674.5" y="-77.5" font-family="Roboto" font-size="10.00">Vector&lt; Urho3D::AttributeInfo &gt; &gt;</text>
</a>
</g>
</g>
<!-- Node7&#45;&gt;Node12 -->
<g id="edge13" class="edge">
<title>Node7&#45;&gt;Node12</title>
<path fill="none" stroke="#63b8ff" d="M447.9,-228.26C469.58,-200.4 514.15,-148.3 564,-120 573.06,-114.85 583.07,-110.6 593.24,-107.08"/>
<polygon fill="#63b8ff" stroke="#63b8ff" points="445.18,-226.06 441.9,-236.14 450.75,-230.3 445.18,-226.06"/>
</g>
<!-- Node13 -->
<g id="node11" class="node">
<title>Node13</title>
<g id="a_node11"><a xlink:href="class_urho3_d_1_1_hash_map.html" target="_top" xlink:title=" ">
<polygon fill="white" stroke="#666666" points="758,-52 591,-52 591,0 758,0 758,-52"/>
<text text-anchor="start" x="599" y="-40" font-family="Roboto" font-size="10.00">Urho3D::HashMap&lt; Urho3D</text>
<text text-anchor="start" x="599" y="-29" font-family="Roboto" font-size="10.00">::StringHash, Urho3D::</text>
<text text-anchor="start" x="599" y="-18" font-family="Roboto" font-size="10.00">SharedPtr&lt; Urho3D::EventReceiver</text>
<text text-anchor="middle" x="674.5" y="-7" font-family="Roboto" font-size="10.00">Group &gt; &gt;</text>
</a>
</g>
</g>
<!-- Node7&#45;&gt;Node13 -->
<g id="edge15" class="edge">
<title>Node7&#45;&gt;Node13</title>
<path fill="none" stroke="#63b8ff" d="M441.96,-226.91C458.45,-188.12 500.18,-103.01 564,-61 572.17,-55.62 581.22,-51.02 590.52,-47.1"/>
<polygon fill="#63b8ff" stroke="#63b8ff" points="438.81,-225.39 438.24,-235.97 445.28,-228.05 438.81,-225.39"/>
</g>
<!-- Node14 -->
<g id="node12" class="node">
<title>Node14</title>
<g id="a_node12"><a xlink:href="class_urho3_d_1_1_hash_map.html" target="_top" xlink:title=" ">
<polygon fill="white" stroke="#666666" points="785,-407 564,-407 564,-355 785,-355 785,-407"/>
<text text-anchor="start" x="572" y="-395" font-family="Roboto" font-size="10.00">Urho3D::HashMap&lt; Urho3D</text>
<text text-anchor="start" x="572" y="-384" font-family="Roboto" font-size="10.00">::Object *, Urho3D::HashMap</text>
<text text-anchor="start" x="572" y="-373" font-family="Roboto" font-size="10.00">&lt; Urho3D::StringHash, Urho3D</text>
<text text-anchor="middle" x="674.5" y="-362" font-family="Roboto" font-size="10.00">::SharedPtr&lt; Urho3D::EventReceiverGroup &gt; &gt; &gt;</text>
</a>
</g>
</g>
<!-- Node7&#45;&gt;Node14 -->
<g id="edge17" class="edge">
<title>Node7&#45;&gt;Node14</title>
<path fill="none" stroke="#63b8ff" d="M452.45,-264.36C476.45,-286.13 520.49,-323.34 564,-346 569.84,-349.04 576,-351.88 582.29,-354.52"/>
<polygon fill="#63b8ff" stroke="#63b8ff" points="455.11,-262.05 445.38,-257.86 450.37,-267.2 455.11,-262.05"/>
</g>
<!-- Node21 -->
<g id="node17" class="node">
<title>Node21</title>
<g id="a_node17"><a xlink:href="class_urho3_d_1_1_hash_map.html" target="_top" xlink:title=" ">
<polygon fill="white" stroke="#666666" points="744,-288.5 605,-288.5 605,-247.5 744,-247.5 744,-288.5"/>
<text text-anchor="start" x="613" y="-276.5" font-family="Roboto" font-size="10.00">Urho3D::HashMap&lt; Urho3D</text>
<text text-anchor="start" x="613" y="-265.5" font-family="Roboto" font-size="10.00">::String, Urho3D::Vector</text>
<text text-anchor="middle" x="674.5" y="-254.5" font-family="Roboto" font-size="10.00">&lt; Urho3D::StringHash &gt; &gt;</text>
</a>
</g>
</g>
<!-- Node7&#45;&gt;Node21 -->
<g id="edge25" class="edge">
<title>Node7&#45;&gt;Node21</title>
<path fill="none" stroke="#63b8ff" d="M494.38,-252.29C527.96,-255.24 569.87,-258.91 604.71,-261.97"/>
<polygon fill="#63b8ff" stroke="#63b8ff" points="495.11,-248.84 484.84,-251.46 494.5,-255.82 495.11,-248.84"/>
</g>
<!-- Node22 -->
<g id="node18" class="node">
<title>Node22</title>
<g id="a_node18"><a xlink:href="class_urho3_d_1_1_hash_map.html" target="_top" xlink:title=" ">
<polygon fill="white" stroke="#666666" points="752.5,-337 596.5,-337 596.5,-307 752.5,-307 752.5,-337"/>
<text text-anchor="start" x="604.5" y="-325" font-family="Roboto" font-size="10.00">Urho3D::HashMap&lt; StringHash,</text>
<text text-anchor="middle" x="674.5" y="-314" font-family="Roboto" font-size="10.00"> Variant &gt;</text>
</a>
</g>
</g>
<!-- Node7&#45;&gt;Node22 -->
<g id="edge27" class="edge">
<title>Node7&#45;&gt;Node22</title>
<path fill="none" stroke="#63b8ff" d="M467.08,-261.23C493.08,-272.04 530.4,-286.76 564,-297 575.28,-300.44 587.35,-303.65 599.2,-306.55"/>
<polygon fill="#63b8ff" stroke="#63b8ff" points="468.64,-258.09 458.06,-257.44 465.93,-264.54 468.64,-258.09"/>
</g>
<!-- Node9 -->
<g id="node8" class="node">
<title>Node9</title>
<g id="a_node8"><a xlink:href="struct_urho3_d_1_1_allocator_block.html" target="_top" xlink:title="Allocator memory block.">
<polygon fill="#fff0f0" stroke="red" points="298,-484.5 178,-484.5 178,-465.5 298,-465.5 298,-484.5"/>
<text text-anchor="middle" x="238" y="-472.5" font-family="Roboto" font-size="10.00">Urho3D::AllocatorBlock</text>
</a>
</g>
</g>
<!-- Node9&#45;&gt;Node7 -->
<g id="edge8" class="edge">
<title>Node9&#45;&gt;Node7</title>
<path fill="none" stroke="#9a32cd" stroke-dasharray="5,2" d="M254.63,-456.53C293.64,-410.46 394.22,-291.64 423.74,-256.76"/>
<polygon fill="#9a32cd" stroke="#9a32cd" points="252.06,-454.15 248.27,-464.05 257.4,-458.68 252.06,-454.15"/>
<text text-anchor="middle" x="339" y="-384" font-family="Roboto" font-size="10.00"> allocator_</text>
</g>
<!-- Node9&#45;&gt;Node9 -->
<g id="edge9" class="edge">
<title>Node9&#45;&gt;Node9</title>
<path fill="none" stroke="#9a32cd" stroke-dasharray="5,2" d="M220.07,-495.93C222.32,-499.79 228.29,-502.5 238,-502.5 255.75,-502.5 261.02,-493.44 253.81,-484.87"/>
<polygon fill="#9a32cd" stroke="#9a32cd" points="223.46,-496.83 221.9,-486.35 216.59,-495.52 223.46,-496.83"/>
<text text-anchor="middle" x="238" y="-505.5" font-family="Roboto" font-size="10.00"> next_</text>
</g>
<!-- Node26 -->
<g id="node22" class="node">
<title>Node26</title>
<g id="a_node22"><a xlink:href="class_urho3_d_1_1_list_base.html" target="_top" xlink:title="Doubly&#45;linked list base class.">
<polygon fill="white" stroke="#666666" points="479,-650.5 387,-650.5 387,-631.5 479,-631.5 479,-650.5"/>
<text text-anchor="middle" x="433" y="-638.5" font-family="Roboto" font-size="10.00">Urho3D::ListBase</text>
</a>
</g>
</g>
<!-- Node9&#45;&gt;Node26 -->
<g id="edge36" class="edge">
<title>Node9&#45;&gt;Node26</title>
<path fill="none" stroke="#9a32cd" stroke-dasharray="5,2" d="M263.32,-491.34C288.84,-508.9 329.65,-538.19 362,-567 386.03,-588.41 411.27,-616.78 423.86,-631.39"/>
<polygon fill="#9a32cd" stroke="#9a32cd" points="265.5,-488.59 255.27,-485.85 261.56,-494.37 265.5,-488.59"/>
<text text-anchor="middle" x="339" y="-570" font-family="Roboto" font-size="10.00"> allocator_</text>
</g>
<!-- Node11&#45;&gt;Node5 -->
<g id="edge10" class="edge">
<title>Node11&#45;&gt;Node5</title>
<path fill="none" stroke="#9a32cd" stroke-dasharray="5,2" d="M760.72,-159.77C808.66,-168.86 867.27,-186.36 910,-220 952.86,-253.74 978.85,-316.9 987.64,-341.16"/>
<polygon fill="#9a32cd" stroke="#9a32cd" points="761.36,-156.33 750.89,-158.01 760.12,-163.22 761.36,-156.33"/>
<text text-anchor="middle" x="856.5" y="-223" font-family="Roboto" font-size="10.00"> subsystems_</text>
</g>
<!-- Node12&#45;&gt;Node5 -->
<g id="edge12" class="edge">
<title>Node12&#45;&gt;Node5</title>
<path fill="none" stroke="#9a32cd" stroke-dasharray="5,2" d="M767.15,-92.78C814.68,-98.18 870.82,-112.15 910,-146 972.26,-199.78 987.08,-307.82 990.22,-341.05"/>
<polygon fill="#9a32cd" stroke="#9a32cd" points="767.71,-89.32 757.4,-91.79 767,-96.28 767.71,-89.32"/>
<text text-anchor="middle" x="856.5" y="-160" font-family="Roboto" font-size="10.00"> attributes_</text>
<text text-anchor="middle" x="856.5" y="-149" font-family="Roboto" font-size="10.00">networkAttributes_</text>
</g>
<!-- Node13&#45;&gt;Node5 -->
<g id="edge14" class="edge">
<title>Node13&#45;&gt;Node5</title>
<path fill="none" stroke="#9a32cd" stroke-dasharray="5,2" d="M769.71,-27.99C817.29,-33.79 872.69,-48.58 910,-84 987.47,-157.53 991.58,-302.48 991.23,-341.26"/>
<polygon fill="#9a32cd" stroke="#9a32cd" points="770.26,-24.53 759.94,-26.92 769.5,-31.49 770.26,-24.53"/>
<text text-anchor="middle" x="856.5" y="-87" font-family="Roboto" font-size="10.00"> eventReceivers_</text>
</g>
<!-- Node14&#45;&gt;Node5 -->
<g id="edge16" class="edge">
<title>Node14&#45;&gt;Node5</title>
<path fill="none" stroke="#9a32cd" stroke-dasharray="5,2" d="M796.6,-369.48C849.53,-364.45 908.28,-358.87 947.19,-355.17"/>
<polygon fill="#9a32cd" stroke="#9a32cd" points="796.53,-365.98 786.91,-370.41 797.2,-372.94 796.53,-365.98"/>
<text text-anchor="middle" x="856.5" y="-371" font-family="Roboto" font-size="10.00"> specificEventReceivers_</text>
</g>
<!-- Node15 -->
<g id="node13" class="node">
<title>Node15</title>
<g id="a_node13"><a xlink:href="class_urho3_d_1_1_p_o_d_vector.html" target="_top" xlink:title=" ">
<polygon fill="white" stroke="#666666" points="729,-455 620,-455 620,-425 729,-425 729,-455"/>
<text text-anchor="start" x="628" y="-443" font-family="Roboto" font-size="10.00">Urho3D::PODVector&lt;</text>
<text text-anchor="middle" x="674.5" y="-432" font-family="Roboto" font-size="10.00"> Urho3D::Object * &gt;</text>
</a>
</g>
</g>
<!-- Node15&#45;&gt;Node5 -->
<g id="edge18" class="edge">
<title>Node15&#45;&gt;Node5</title>
<path fill="none" stroke="#9a32cd" stroke-dasharray="5,2" d="M740.32,-427.12C787.84,-416.99 853.62,-401.51 910,-383 929.82,-376.49 951.81,-367.7 967.87,-360.98"/>
<polygon fill="#9a32cd" stroke="#9a32cd" points="739.8,-423.65 730.74,-429.14 741.25,-430.5 739.8,-423.65"/>
<text text-anchor="middle" x="856.5" y="-414" font-family="Roboto" font-size="10.00"> eventSenders_</text>
</g>
<!-- Node16 -->
<g id="node14" class="node">
<title>Node16</title>
<g id="a_node14"><a xlink:href="class_urho3_d_1_1_vector_base.html" target="_top" xlink:title="Vector base class.">
<polygon fill="white" stroke="#666666" points="486,-497.5 380,-497.5 380,-478.5 486,-478.5 486,-497.5"/>
<text text-anchor="middle" x="433" y="-485.5" font-family="Roboto" font-size="10.00">Urho3D::VectorBase</text>
</a>
</g>
</g>
<!-- Node16&#45;&gt;Node15 -->
<g id="edge19" class="edge">
<title>Node16&#45;&gt;Node15</title>
<path fill="none" stroke="#63b8ff" d="M494.7,-475.84C533.24,-468.11 582.66,-458.21 619.77,-450.77"/>
<polygon fill="#63b8ff" stroke="#63b8ff" points="494.23,-472.36 485.11,-477.76 495.6,-479.22 494.23,-472.36"/>
</g>
<!-- Node17 -->
<g id="node15" class="node">
<title>Node17</title>
<g id="a_node15"><a xlink:href="class_urho3_d_1_1_p_o_d_vector.html" target="_top" xlink:title=" ">
<polygon fill="white" stroke="#666666" points="731.5,-503 617.5,-503 617.5,-473 731.5,-473 731.5,-503"/>
<text text-anchor="start" x="625.5" y="-491" font-family="Roboto" font-size="10.00">Urho3D::PODVector&lt;</text>
<text text-anchor="middle" x="674.5" y="-480" font-family="Roboto" font-size="10.00"> Urho3D::HashMap * &gt;</text>
</a>
</g>
</g>
<!-- Node16&#45;&gt;Node17 -->
<g id="edge21" class="edge">
<title>Node16&#45;&gt;Node17</title>
<path fill="none" stroke="#63b8ff" d="M497.49,-488C534.69,-488 581.27,-488 617.17,-488"/>
<polygon fill="#63b8ff" stroke="#63b8ff" points="497.78,-484.5 487.78,-488 497.78,-491.5 497.78,-484.5"/>
</g>
<!-- Node24 -->
<g id="node20" class="node">
<title>Node24</title>
<g id="a_node20"><a xlink:href="class_urho3_d_1_1_vector.html" target="_top" xlink:title=" ">
<polygon fill="white" stroke="#666666" points="750.5,-551 598.5,-551 598.5,-521 750.5,-521 750.5,-551"/>
<text text-anchor="start" x="606.5" y="-539" font-family="Roboto" font-size="10.00">Urho3D::Vector&lt; Urho3D</text>
<text text-anchor="middle" x="674.5" y="-528" font-family="Roboto" font-size="10.00">::SharedPtr&lt; WorkerThread &gt; &gt;</text>
</a>
</g>
</g>
<!-- Node16&#45;&gt;Node24 -->
<g id="edge31" class="edge">
<title>Node16&#45;&gt;Node24</title>
<path fill="none" stroke="#63b8ff" d="M494.88,-500.2C526.38,-506.51 565.11,-514.28 598.44,-520.96"/>
<polygon fill="#63b8ff" stroke="#63b8ff" points="495.6,-496.78 485.11,-498.24 494.23,-503.64 495.6,-496.78"/>
</g>
<!-- Node17&#45;&gt;Node5 -->
<g id="edge20" class="edge">
<title>Node17&#45;&gt;Node5</title>
<path fill="none" stroke="#9a32cd" stroke-dasharray="5,2" d="M742.8,-479.76C791.71,-471.57 858.16,-455.75 910,-426 940.92,-408.26 969.67,-376.7 983.08,-360.78"/>
<polygon fill="#9a32cd" stroke="#9a32cd" points="742.51,-476.26 733.19,-481.3 743.62,-483.18 742.51,-476.26"/>
<text text-anchor="middle" x="856.5" y="-469" font-family="Roboto" font-size="10.00"> eventDataMaps_</text>
</g>
<!-- Node18&#45;&gt;Node5 -->
<g id="edge22" class="edge">
<title>Node18&#45;&gt;Node5</title>
<path fill="none" stroke="#9a32cd" stroke-dasharray="5,2" d="M742.48,-808.42C757.79,-805.46 773.04,-799.91 785,-790 802.54,-775.46 785.62,-756.73 803,-742 839.98,-710.67 875.36,-754.89 910,-721 937.02,-694.56 980.87,-416.97 989.5,-360.86"/>
<polygon fill="#9a32cd" stroke="#9a32cd" points="742.22,-804.92 732.87,-809.91 743.29,-811.84 742.22,-804.92"/>
<text text-anchor="middle" x="856.5" y="-745" font-family="Roboto" font-size="10.00"> eventHandler_</text>
</g>
<!-- Node23 -->
<g id="node19" class="node">
<title>Node23</title>
<g id="a_node19"><a xlink:href="class_urho3_d_1_1_linked_list.html" target="_top" xlink:title=" ">
<polygon fill="white" stroke="#666666" points="1056,-908 928,-908 928,-878 1056,-878 1056,-908"/>
<text text-anchor="start" x="936" y="-896" font-family="Roboto" font-size="10.00">Urho3D::LinkedList</text>
<text text-anchor="middle" x="992" y="-885" font-family="Roboto" font-size="10.00">&lt; Urho3D::EventHandler &gt;</text>
</a>
</g>
</g>
<!-- Node18&#45;&gt;Node23 -->
<g id="edge29" class="edge">
<title>Node18&#45;&gt;Node23</title>
<path fill="none" stroke="#9a32cd" stroke-dasharray="5,2" d="M724.02,-821.92C780.3,-836.9 873,-861.58 933.02,-877.56"/>
<polygon fill="#9a32cd" stroke="#9a32cd" points="724.96,-818.55 714.39,-819.36 723.16,-825.31 724.96,-818.55"/>
<text text-anchor="middle" x="856.5" y="-873" font-family="Roboto" font-size="10.00"> head_</text>
</g>
<!-- Node21&#45;&gt;Node5 -->
<g id="edge24" class="edge">
<title>Node21&#45;&gt;Node5</title>
<path fill="none" stroke="#9a32cd" stroke-dasharray="5,2" d="M755.5,-280.16C801.32,-288.17 859.56,-300.13 910,-316 931.48,-322.76 955,-333.3 971.13,-341.04"/>
<polygon fill="#9a32cd" stroke="#9a32cd" points="756.37,-276.76 745.92,-278.52 755.18,-283.66 756.37,-276.76"/>
<text text-anchor="middle" x="856.5" y="-319" font-family="Roboto" font-size="10.00"> objectCategories_</text>
</g>
<!-- Node22&#45;&gt;Node5 -->
<g id="edge26" class="edge">
<title>Node22&#45;&gt;Node5</title>
<path fill="none" stroke="#9a32cd" stroke-dasharray="5,2" d="M764.17,-328.3C808.08,-331.65 861.87,-336.08 910,-341 922.12,-342.24 935.24,-343.77 947.32,-345.27"/>
<polygon fill="#9a32cd" stroke="#9a32cd" points="764.69,-324.83 754.45,-327.57 764.16,-331.81 764.69,-324.83"/>
<text text-anchor="middle" x="856.5" y="-344" font-family="Roboto" font-size="10.00"> globalVars_</text>
</g>
<!-- Node23&#45;&gt;Node2 -->
<g id="edge28" class="edge">
<title>Node23&#45;&gt;Node2</title>
<path fill="none" stroke="#9a32cd" stroke-dasharray="5,2" d="M916.58,-901.14C818.58,-908.98 642.47,-913.04 504,-861 479.34,-851.73 455.87,-831.04 443.36,-818.74"/>
<polygon fill="#9a32cd" stroke="#9a32cd" points="916.67,-904.64 926.34,-900.32 916.08,-897.67 916.67,-904.64"/>
<text text-anchor="middle" x="674.5" y="-908" font-family="Roboto" font-size="10.00"> eventHandlers_</text>
</g>
<!-- Node24&#45;&gt;Node1 -->
<g id="edge30" class="edge">
<title>Node24&#45;&gt;Node1</title>
<path fill="none" stroke="#9a32cd" stroke-dasharray="5,2" d="M716.39,-556.46C763.27,-579.99 842.38,-619.9 910,-655 931.62,-666.22 956.33,-679.39 972.71,-688.17"/>
<polygon fill="#9a32cd" stroke="#9a32cd" points="718.18,-553.45 707.67,-552.09 715.04,-559.7 718.18,-553.45"/>
<text text-anchor="middle" x="856.5" y="-658" font-family="Roboto" font-size="10.00"> threads_</text>
</g>
<!-- Node25 -->
<g id="node21" class="node">
<title>Node25</title>
<g id="a_node21"><a xlink:href="class_urho3_d_1_1_list.html" target="_top" xlink:title=" ">
<polygon fill="white" stroke="#666666" points="730.5,-732.5 618.5,-732.5 618.5,-691.5 730.5,-691.5 730.5,-732.5"/>
<text text-anchor="start" x="626.5" y="-720.5" font-family="Roboto" font-size="10.00">Urho3D::List&lt; Urho3D</text>
<text text-anchor="start" x="626.5" y="-709.5" font-family="Roboto" font-size="10.00">::SharedPtr&lt; Urho3D::</text>
<text text-anchor="middle" x="674.5" y="-698.5" font-family="Roboto" font-size="10.00">WorkItem &gt; &gt;</text>
</a>
</g>
</g>
<!-- Node25&#45;&gt;Node1 -->
<g id="edge32" class="edge">
<title>Node25&#45;&gt;Node1</title>
<path fill="none" stroke="#9a32cd" stroke-dasharray="5,2" d="M742.22,-703.97C761.78,-701.95 783.22,-700.06 803,-699 848.63,-696.56 900.58,-696.49 938.29,-696.93"/>
<polygon fill="#9a32cd" stroke="#9a32cd" points="742.03,-700.47 732.46,-705.01 742.77,-707.44 742.03,-700.47"/>
<text text-anchor="middle" x="856.5" y="-713" font-family="Roboto" font-size="10.00"> poolItems_</text>
<text text-anchor="middle" x="856.5" y="-702" font-family="Roboto" font-size="10.00">workItems_</text>
</g>
<!-- Node26&#45;&gt;Node25 -->
<g id="edge33" class="edge">
<title>Node26&#45;&gt;Node25</title>
<path fill="none" stroke="#63b8ff" d="M474.07,-654.56C499.69,-663.07 533.67,-674.09 564,-683 581.55,-688.15 600.8,-693.39 618.2,-697.97"/>
<polygon fill="#63b8ff" stroke="#63b8ff" points="475.32,-651.29 464.73,-651.44 473.1,-657.93 475.32,-651.29"/>
</g>
<!-- Node28 -->
<g id="node24" class="node">
<title>Node28</title>
<g id="a_node24"><a xlink:href="class_urho3_d_1_1_list.html" target="_top" xlink:title=" ">
<polygon fill="white" stroke="#666666" points="730.5,-781 618.5,-781 618.5,-751 730.5,-751 730.5,-781"/>
<text text-anchor="start" x="626.5" y="-769" font-family="Roboto" font-size="10.00">Urho3D::List&lt; Urho3D</text>
<text text-anchor="middle" x="674.5" y="-758" font-family="Roboto" font-size="10.00">::WorkItem * &gt;</text>
</a>
</g>
</g>
<!-- Node26&#45;&gt;Node28 -->
<g id="edge38" class="edge">
<title>Node26&#45;&gt;Node28</title>
<path fill="none" stroke="#63b8ff" d="M451.33,-658.69C474.75,-681.52 518.79,-720.82 564,-742 580.83,-749.89 600.34,-755.23 618.19,-758.83"/>
<polygon fill="#63b8ff" stroke="#63b8ff" points="454.04,-656.45 444.48,-651.88 449.11,-661.41 454.04,-656.45"/>
</g>
<!-- Node27 -->
<g id="node23" class="node">
<title>Node27</title>
<g id="a_node23"><a xlink:href="struct_urho3_d_1_1_list_node_base.html" target="_top" xlink:title="Doubly&#45;linked list node base class.">
<polygon fill="white" stroke="#666666" points="296.5,-551.5 179.5,-551.5 179.5,-532.5 296.5,-532.5 296.5,-551.5"/>
<text text-anchor="middle" x="238" y="-539.5" font-family="Roboto" font-size="10.00">Urho3D::ListNodeBase</text>
</a>
</g>
</g>
<!-- Node27&#45;&gt;Node26 -->
<g id="edge34" class="edge">
<title>Node27&#45;&gt;Node26</title>
<path fill="none" stroke="#9a32cd" stroke-dasharray="5,2" d="M268.38,-557.07C308.31,-577.55 378.63,-613.62 412.58,-631.04"/>
<polygon fill="#9a32cd" stroke="#9a32cd" points="270.05,-554 259.56,-552.55 266.86,-560.22 270.05,-554"/>
<text text-anchor="middle" x="339" y="-617" font-family="Roboto" font-size="10.00"> head_</text>
<text text-anchor="middle" x="339" y="-606" font-family="Roboto" font-size="10.00">tail_</text>
</g>
<!-- Node27&#45;&gt;Node27 -->
<g id="edge35" class="edge">
<title>Node27&#45;&gt;Node27</title>
<path fill="none" stroke="#9a32cd" stroke-dasharray="5,2" d="M220.07,-562.93C222.32,-566.79 228.29,-569.5 238,-569.5 255.75,-569.5 261.02,-560.44 253.81,-551.87"/>
<polygon fill="#9a32cd" stroke="#9a32cd" points="223.46,-563.83 221.9,-553.35 216.59,-562.52 223.46,-563.83"/>
<text text-anchor="middle" x="238" y="-583.5" font-family="Roboto" font-size="10.00"> next_</text>
<text text-anchor="middle" x="238" y="-572.5" font-family="Roboto" font-size="10.00">prev_</text>
</g>
<!-- Node28&#45;&gt;Node1 -->
<g id="edge37" class="edge">
<title>Node28&#45;&gt;Node1</title>
<path fill="none" stroke="#9a32cd" stroke-dasharray="5,2" d="M742.16,-772.62C790.13,-775.07 855.68,-773.61 910,-755 938.96,-745.08 966.81,-721.4 981.09,-707.89"/>
<polygon fill="#9a32cd" stroke="#9a32cd" points="742.36,-769.12 732.18,-772.03 741.95,-776.11 742.36,-769.12"/>
<text text-anchor="middle" x="856.5" y="-775" font-family="Roboto" font-size="10.00"> queue_</text>
</g>
<!-- Node29 -->
<g id="node25" class="node">
<title>Node29</title>
<g id="a_node25"><a xlink:href="class_urho3_d_1_1_mutex.html" target="_top" xlink:title="Operating system mutual exclusion primitive.">
<polygon fill="white" stroke="#666666" points="716,-673.5 633,-673.5 633,-654.5 716,-654.5 716,-673.5"/>
<text text-anchor="middle" x="674.5" y="-661.5" font-family="Roboto" font-size="10.00">Urho3D::Mutex</text>
</a>
</g>
</g>
<!-- Node29&#45;&gt;Node1 -->
<g id="edge39" class="edge">
<title>Node29&#45;&gt;Node1</title>
<path fill="none" stroke="#9a32cd" stroke-dasharray="5,2" d="M727.61,-665.77C775.27,-667.86 847.64,-672.24 910,-681 922.66,-682.78 936.31,-685.38 948.73,-688.01"/>
<polygon fill="#9a32cd" stroke="#9a32cd" points="727.99,-662.28 717.86,-665.36 727.7,-669.27 727.99,-662.28"/>
<text text-anchor="middle" x="856.5" y="-684" font-family="Roboto" font-size="10.00"> queueMutex_</text>
</g>
</g>
</svg>
