<?xml version="1.0" encoding="UTF-8" standalone="no"?>
<!DOCTYPE svg PUBLIC "-//W3C//DTD SVG 1.1//EN"
 "http://www.w3.org/Graphics/SVG/1.1/DTD/svg11.dtd">
<!-- Generated by graphviz version 7.0.3 (0)
 -->
<!-- Title: Urho3D::ScriptInstance::AddEventHandler Pages: 1 -->
<svg width="637pt" height="278pt"
 viewBox="0.00 0.00 637.00 278.00" xmlns="http://www.w3.org/2000/svg" xmlns:xlink="http://www.w3.org/1999/xlink">
<g id="graph0" class="graph" transform="scale(1 1) rotate(0) translate(4 274)">
<title>Urho3D::ScriptInstance::AddEventHandler</title>
<!-- Node1 -->
<g id="node1" class="node">
<title>Node1</title>
<g id="a_node1"><a xlink:title="Add a scripted event handler for a specific sender.">
<polygon fill="#999999" stroke="#666666" points="118,-138 0,-138 0,-108 118,-108 118,-138"/>
<text text-anchor="start" x="8" y="-126" font-family="Roboto" font-size="10.00">Urho3D::ScriptInstance</text>
<text text-anchor="middle" x="59" y="-115" font-family="Roboto" font-size="10.00">::AddEventHandler</text>
</a>
</g>
</g>
<!-- Node2 -->
<g id="node2" class="node">
<title>Node2</title>
<g id="a_node2"><a xlink:href="class_urho3_d_1_1_script_instance.html#ac0fba962b1f4f55d422f98c9518f3f9a" target="_top" xlink:title="Handle an event in script.">
<polygon fill="white" stroke="#666666" points="278.5,-186 160.5,-186 160.5,-156 278.5,-156 278.5,-186"/>
<text text-anchor="start" x="168.5" y="-174" font-family="Roboto" font-size="10.00">Urho3D::ScriptInstance</text>
<text text-anchor="middle" x="219.5" y="-163" font-family="Roboto" font-size="10.00">::HandleScriptEvent</text>
</a>
</g>
</g>
<!-- Node1&#45;&gt;Node2 -->
<g id="edge1" class="edge">
<title>Node1&#45;&gt;Node2</title>
<path fill="none" stroke="#63b8ff" d="M111.02,-138.45C125.59,-142.86 141.61,-147.72 156.75,-152.3"/>
<polygon fill="#63b8ff" stroke="#63b8ff" points="155.54,-155.59 166.12,-155.14 157.57,-148.89 155.54,-155.59"/>
</g>
<!-- Node8 -->
<g id="node8" class="node">
<title>Node8</title>
<g id="a_node8"><a xlink:href="class_urho3_d_1_1_object.html#a7d9d061f4cf32f5fd5531e11a72834b6" target="_top" xlink:title="Subscribe to an event that can be sent by any sender.">
<polygon fill="white" stroke="#666666" points="285,-114 154,-114 154,-84 285,-84 285,-114"/>
<text text-anchor="start" x="162" y="-102" font-family="Roboto" font-size="10.00">Urho3D::Object::Subscribe</text>
<text text-anchor="middle" x="219.5" y="-91" font-family="Roboto" font-size="10.00">ToEvent</text>
</a>
</g>
</g>
<!-- Node1&#45;&gt;Node8 -->
<g id="edge7" class="edge">
<title>Node1&#45;&gt;Node8</title>
<path fill="none" stroke="#63b8ff" d="M118.12,-114.2C126.08,-112.99 134.34,-111.74 142.56,-110.5"/>
<polygon fill="#63b8ff" stroke="#63b8ff" points="142.84,-114 152.2,-109.04 141.79,-107.08 142.84,-114"/>
</g>
<!-- Node3 -->
<g id="node3" class="node">
<title>Node3</title>
<g id="a_node3"><a xlink:href="class_urho3_d_1_1_object.html#a94327944766d5984af37cf128bd870ca" target="_top" xlink:title="Return active event handler. Null outside event handling.">
<polygon fill="white" stroke="#666666" points="453.5,-270 328.5,-270 328.5,-240 453.5,-240 453.5,-270"/>
<text text-anchor="start" x="336.5" y="-258" font-family="Roboto" font-size="10.00">Urho3D::Object::GetEvent</text>
<text text-anchor="middle" x="391" y="-247" font-family="Roboto" font-size="10.00">Handler</text>
</a>
</g>
</g>
<!-- Node2&#45;&gt;Node3 -->
<g id="edge2" class="edge">
<title>Node2&#45;&gt;Node3</title>
<path fill="none" stroke="#63b8ff" d="M243.32,-186.45C263.22,-199.48 293.19,-218.03 321,-231 324.28,-232.53 327.68,-234.01 331.14,-235.45"/>
<polygon fill="#63b8ff" stroke="#63b8ff" points="329.62,-238.61 340.21,-239.02 332.19,-232.1 329.62,-238.61"/>
</g>
<!-- Node5 -->
<g id="node5" class="node">
<title>Node5</title>
<g id="a_node5"><a xlink:href="class_urho3_d_1_1_event_handler.html#a123d775998ca76a3e683498a65d153f1" target="_top" xlink:title="Return userdata.">
<polygon fill="white" stroke="#666666" points="447.5,-222 334.5,-222 334.5,-192 447.5,-192 447.5,-222"/>
<text text-anchor="start" x="342.5" y="-210" font-family="Roboto" font-size="10.00">Urho3D::EventHandler</text>
<text text-anchor="middle" x="391" y="-199" font-family="Roboto" font-size="10.00">::GetUserData</text>
</a>
</g>
</g>
<!-- Node2&#45;&gt;Node5 -->
<g id="edge4" class="edge">
<title>Node2&#45;&gt;Node5</title>
<path fill="none" stroke="#63b8ff" d="M278.83,-183.39C293.1,-186.42 308.48,-189.69 323.12,-192.8"/>
<polygon fill="#63b8ff" stroke="#63b8ff" points="322.14,-196.17 332.65,-194.82 323.6,-189.32 322.14,-196.17"/>
</g>
<!-- Node6 -->
<g id="node6" class="node">
<title>Node6</title>
<g id="a_node6"><a xlink:href="class_urho3_d_1_1_component.html#aafa7952d0f225edde3387da0c91a9356" target="_top" xlink:title=" ">
<polygon fill="white" stroke="#666666" points="446.5,-174 335.5,-174 335.5,-144 446.5,-144 446.5,-174"/>
<text text-anchor="start" x="343.5" y="-162" font-family="Roboto" font-size="10.00">Urho3D::Component::</text>
<text text-anchor="middle" x="391" y="-151" font-family="Roboto" font-size="10.00">IsEnabledEffective</text>
</a>
</g>
</g>
<!-- Node2&#45;&gt;Node6 -->
<g id="edge5" class="edge">
<title>Node2&#45;&gt;Node6</title>
<path fill="none" stroke="#63b8ff" d="M278.83,-166.87C293.41,-165.84 309.14,-164.72 324.06,-163.67"/>
<polygon fill="#63b8ff" stroke="#63b8ff" points="324.03,-167.18 333.76,-162.98 323.54,-160.2 324.03,-167.18"/>
</g>
<!-- Node4 -->
<g id="node4" class="node">
<title>Node4</title>
<g id="a_node4"><a xlink:href="class_urho3_d_1_1_context.html#ab453809b2c77fe1c412137525a1f6b0b" target="_top" xlink:title="Return active event handler. Set by Object. Null outside event handling.">
<polygon fill="white" stroke="#666666" points="629,-270 497,-270 497,-240 629,-240 629,-270"/>
<text text-anchor="start" x="505" y="-258" font-family="Roboto" font-size="10.00">Urho3D::Context::GetEvent</text>
<text text-anchor="middle" x="563" y="-247" font-family="Roboto" font-size="10.00">Handler</text>
</a>
</g>
</g>
<!-- Node3&#45;&gt;Node4 -->
<g id="edge3" class="edge">
<title>Node3&#45;&gt;Node4</title>
<path fill="none" stroke="#63b8ff" d="M453.85,-255C464.1,-255 474.84,-255 485.4,-255"/>
<polygon fill="#63b8ff" stroke="#63b8ff" points="485.24,-258.5 495.24,-255 485.24,-251.5 485.24,-258.5"/>
</g>
<!-- Node7 -->
<g id="node7" class="node">
<title>Node7</title>
<g id="a_node7"><a xlink:href="class_urho3_d_1_1_node.html#a36ffa108037ab29617bf178fcb4ec1da" target="_top" xlink:title=" ">
<polygon fill="white" stroke="#666666" points="627,-168.5 499,-168.5 499,-149.5 627,-149.5 627,-168.5"/>
<text text-anchor="middle" x="563" y="-156.5" font-family="Roboto" font-size="10.00">Urho3D::Node::IsEnabled</text>
</a>
</g>
</g>
<!-- Node6&#45;&gt;Node7 -->
<g id="edge6" class="edge">
<title>Node6&#45;&gt;Node7</title>
<path fill="none" stroke="#63b8ff" d="M446.72,-159C459.69,-159 473.74,-159 487.42,-159"/>
<polygon fill="#63b8ff" stroke="#63b8ff" points="487.28,-162.5 497.28,-159 487.28,-155.5 487.28,-162.5"/>
</g>
<!-- Node9 -->
<g id="node9" class="node">
<title>Node9</title>
<g id="a_node9"><a xlink:href="class_urho3_d_1_1_context.html#ae3e0c5db85e2395f3d34941003c816ad" target="_top" xlink:title="Add event receiver.">
<polygon fill="white" stroke="#666666" points="459,-126 323,-126 323,-96 459,-96 459,-126"/>
<text text-anchor="start" x="331" y="-114" font-family="Roboto" font-size="10.00">Urho3D::Context::AddEvent</text>
<text text-anchor="middle" x="391" y="-103" font-family="Roboto" font-size="10.00">Receiver</text>
</a>
</g>
</g>
<!-- Node8&#45;&gt;Node9 -->
<g id="edge8" class="edge">
<title>Node8&#45;&gt;Node9</title>
<path fill="none" stroke="#63b8ff" d="M285.06,-103.57C293.59,-104.17 302.4,-104.8 311.12,-105.42"/>
<polygon fill="#63b8ff" stroke="#63b8ff" points="310.79,-108.9 321.01,-106.12 311.28,-101.92 310.79,-108.9"/>
</g>
<!-- Node10 -->
<g id="node10" class="node">
<title>Node10</title>
<g id="a_node10"><a xlink:href="class_urho3_d_1_1_object.html#ad9d3702ab78a9d8a8ddad6aae7144abb" target="_top" xlink:title="Find the first event handler with specific sender.">
<polygon fill="white" stroke="#666666" points="461,-78 321,-78 321,-48 461,-48 461,-78"/>
<text text-anchor="start" x="329" y="-66" font-family="Roboto" font-size="10.00">Urho3D::Object::FindSpecific</text>
<text text-anchor="middle" x="391" y="-55" font-family="Roboto" font-size="10.00">EventHandler</text>
</a>
</g>
</g>
<!-- Node8&#45;&gt;Node10 -->
<g id="edge9" class="edge">
<title>Node8&#45;&gt;Node10</title>
<path fill="none" stroke="#63b8ff" d="M285.06,-85.29C293.04,-83.59 301.27,-81.85 309.45,-80.11"/>
<polygon fill="#63b8ff" stroke="#63b8ff" points="310,-83.57 319.05,-78.07 308.54,-76.72 310,-83.57"/>
</g>
<!-- Node12 -->
<g id="node12" class="node">
<title>Node12</title>
<g id="a_node12"><a xlink:href="class_urho3_d_1_1_event_handler.html#abe76f0245895dadac146b7a4b7d78713" target="_top" xlink:title="Set sender and event type.">
<polygon fill="white" stroke="#666666" points="455,-30 327,-30 327,0 455,0 455,-30"/>
<text text-anchor="start" x="335" y="-18" font-family="Roboto" font-size="10.00">Urho3D::EventHandler</text>
<text text-anchor="middle" x="391" y="-7" font-family="Roboto" font-size="10.00">::SetSenderAndEventType</text>
</a>
</g>
</g>
<!-- Node8&#45;&gt;Node12 -->
<g id="edge11" class="edge">
<title>Node8&#45;&gt;Node12</title>
<path fill="none" stroke="#63b8ff" d="M243.32,-83.55C263.22,-70.52 293.19,-51.97 321,-39 324.28,-37.47 327.68,-35.99 331.14,-34.55"/>
<polygon fill="#63b8ff" stroke="#63b8ff" points="332.19,-37.9 340.21,-30.98 329.62,-31.39 332.19,-37.9"/>
</g>
<!-- Node11 -->
<g id="node11" class="node">
<title>Node11</title>
<g id="a_node11"><a xlink:href="class_urho3_d_1_1_event_handler.html#a18d3379ef44dac87304f2b118e36c83e" target="_top" xlink:title="Return event sender. Null if the handler is non&#45;specific.">
<polygon fill="white" stroke="#666666" points="619.5,-78 506.5,-78 506.5,-48 619.5,-48 619.5,-78"/>
<text text-anchor="start" x="514.5" y="-66" font-family="Roboto" font-size="10.00">Urho3D::EventHandler</text>
<text text-anchor="middle" x="563" y="-55" font-family="Roboto" font-size="10.00">::GetSender</text>
</a>
</g>
</g>
<!-- Node10&#45;&gt;Node11 -->
<g id="edge10" class="edge">
<title>Node10&#45;&gt;Node11</title>
<path fill="none" stroke="#63b8ff" d="M461.15,-63C472.27,-63 483.76,-63 494.84,-63"/>
<polygon fill="#63b8ff" stroke="#63b8ff" points="494.67,-66.5 504.67,-63 494.67,-59.5 494.67,-66.5"/>
</g>
</g>
</svg>
