<?xml version="1.0" encoding="UTF-8" standalone="no"?>
<!DOCTYPE svg PUBLIC "-//W3C//DTD SVG 1.1//EN"
 "http://www.w3.org/Graphics/SVG/1.1/DTD/svg11.dtd">
<!-- Generated by graphviz version 7.0.3 (0)
 -->
<!-- Title: Urho3D::ConstraintMouse2D::SetDampingRatio Pages: 1 -->
<svg width="662pt" height="248pt"
 viewBox="0.00 0.00 662.00 248.00" xmlns="http://www.w3.org/2000/svg" xmlns:xlink="http://www.w3.org/1999/xlink">
<g id="graph0" class="graph" transform="scale(1 1) rotate(0) translate(4 244)">
<title>Urho3D::ConstraintMouse2D::SetDampingRatio</title>
<!-- Node1 -->
<g id="node1" class="node">
<title>Node1</title>
<g id="a_node1"><a xlink:title=" ">
<polygon fill="#999999" stroke="#666666" points="136,-102 0,-102 0,-72 136,-72 136,-102"/>
<text text-anchor="start" x="8" y="-90" font-family="Roboto" font-size="10.00">Urho3D::ConstraintMouse2</text>
<text text-anchor="middle" x="68" y="-79" font-family="Roboto" font-size="10.00">D::SetDampingRatio</text>
</a>
</g>
</g>
<!-- Node1&#45;&gt;Node1 -->
<g id="edge12" class="edge">
<title>Node1&#45;&gt;Node1</title>
<path fill="none" stroke="#63b8ff" d="M39.88,-102.28C33.62,-111.41 43,-120 68,-120 81.67,-120 90.67,-117.43 95,-113.61"/>
<polygon fill="#63b8ff" stroke="#63b8ff" points="98.47,-114.08 95.98,-103.78 91.5,-113.39 98.47,-114.08"/>
</g>
<!-- Node2 -->
<g id="node2" class="node">
<title>Node2</title>
<g id="a_node2"><a xlink:href="class_urho3_d_1_1_component.html#aaf87acb64001774c62f0784254f9b291" target="_top" xlink:title="Mark for attribute check on the next network update.">
<polygon fill="white" stroke="#666666" points="283.5,-159 172.5,-159 172.5,-129 283.5,-129 283.5,-159"/>
<text text-anchor="start" x="180.5" y="-147" font-family="Roboto" font-size="10.00">Urho3D::Component::</text>
<text text-anchor="middle" x="228" y="-136" font-family="Roboto" font-size="10.00">MarkNetworkUpdate</text>
</a>
</g>
</g>
<!-- Node1&#45;&gt;Node2 -->
<g id="edge1" class="edge">
<title>Node1&#45;&gt;Node2</title>
<path fill="none" stroke="#63b8ff" d="M111.76,-102.43C130.81,-109.3 153.46,-117.47 173.62,-124.74"/>
<polygon fill="#63b8ff" stroke="#63b8ff" points="172.19,-127.95 182.79,-128.05 174.57,-121.36 172.19,-127.95"/>
</g>
<!-- Node8 -->
<g id="node8" class="node">
<title>Node8</title>
<g id="a_node8"><a xlink:href="class_urho3_d_1_1_constraint2_d.html#a6b020a0b52d60cf6f05f584f85801c58" target="_top" xlink:title="Recreate joint.">
<polygon fill="white" stroke="#666666" points="284,-78 172,-78 172,-48 284,-48 284,-78"/>
<text text-anchor="start" x="180" y="-66" font-family="Roboto" font-size="10.00">Urho3D::Constraint2D</text>
<text text-anchor="middle" x="228" y="-55" font-family="Roboto" font-size="10.00">::RecreateJoint</text>
</a>
</g>
</g>
<!-- Node1&#45;&gt;Node8 -->
<g id="edge8" class="edge">
<title>Node1&#45;&gt;Node8</title>
<path fill="none" stroke="#63b8ff" d="M136.46,-76.75C144.45,-75.54 152.59,-74.3 160.55,-73.09"/>
<polygon fill="#63b8ff" stroke="#63b8ff" points="160.81,-76.59 170.17,-71.63 159.76,-69.67 160.81,-76.59"/>
</g>
<!-- Node3 -->
<g id="node3" class="node">
<title>Node3</title>
<g id="a_node3"><a xlink:href="class_urho3_d_1_1_component.html#a2c22f727341671a0420934f249ffe059" target="_top" xlink:title="Return the scene the node belongs to.">
<polygon fill="white" stroke="#666666" points="449.5,-240 338.5,-240 338.5,-210 449.5,-210 449.5,-240"/>
<text text-anchor="start" x="346.5" y="-228" font-family="Roboto" font-size="10.00">Urho3D::Component::</text>
<text text-anchor="middle" x="394" y="-217" font-family="Roboto" font-size="10.00">GetScene</text>
</a>
</g>
</g>
<!-- Node2&#45;&gt;Node3 -->
<g id="edge2" class="edge">
<title>Node2&#45;&gt;Node3</title>
<path fill="none" stroke="#63b8ff" d="M250.22,-159.37C268.15,-171.83 294.85,-189.2 320,-201 323.32,-202.56 326.77,-204.06 330.28,-205.5"/>
<polygon fill="#63b8ff" stroke="#63b8ff" points="328.94,-208.73 339.53,-209.07 331.47,-202.2 328.94,-208.73"/>
</g>
<!-- Node5 -->
<g id="node5" class="node">
<title>Node5</title>
<g id="a_node5"><a xlink:href="class_urho3_d_1_1_component.html#a8f1388c232ca01b7c7328c761aae6e76" target="_top" xlink:title=" ">
<polygon fill="white" stroke="#666666" points="449.5,-192 338.5,-192 338.5,-162 449.5,-162 449.5,-192"/>
<text text-anchor="start" x="346.5" y="-180" font-family="Roboto" font-size="10.00">Urho3D::Component::</text>
<text text-anchor="middle" x="394" y="-169" font-family="Roboto" font-size="10.00">IsReplicated</text>
</a>
</g>
</g>
<!-- Node2&#45;&gt;Node5 -->
<g id="edge4" class="edge">
<title>Node2&#45;&gt;Node5</title>
<path fill="none" stroke="#63b8ff" d="M283.61,-154.99C297.57,-157.8 312.72,-160.85 327.18,-163.76"/>
<polygon fill="#63b8ff" stroke="#63b8ff" points="326.09,-167.11 336.59,-165.65 327.47,-160.24 326.09,-167.11"/>
</g>
<!-- Node7 -->
<g id="node7" class="node">
<title>Node7</title>
<g id="a_node7"><a xlink:href="class_urho3_d_1_1_scene.html#a00b724dfff718639b9de12d71139499c" target="_top" xlink:title="Mark for attribute check on the next network update.">
<polygon fill="white" stroke="#666666" points="468,-126 320,-126 320,-96 468,-96 468,-126"/>
<text text-anchor="start" x="328" y="-114" font-family="Roboto" font-size="10.00">Urho3D::Scene::MarkNetwork</text>
<text text-anchor="middle" x="394" y="-103" font-family="Roboto" font-size="10.00">Update</text>
</a>
</g>
</g>
<!-- Node2&#45;&gt;Node7 -->
<g id="edge6" class="edge">
<title>Node2&#45;&gt;Node7</title>
<path fill="none" stroke="#63b8ff" d="M283.61,-133.01C291.64,-131.39 300.07,-129.7 308.54,-128"/>
<polygon fill="#63b8ff" stroke="#63b8ff" points="309.06,-131.46 318.17,-126.06 307.68,-124.6 309.06,-131.46"/>
</g>
<!-- Node4 -->
<g id="node4" class="node">
<title>Node4</title>
<g id="a_node4"><a xlink:href="class_urho3_d_1_1_node.html#ad3742cda838a2b291daa44d3ab00de56" target="_top" xlink:title=" ">
<polygon fill="white" stroke="#666666" points="642,-234.5 516,-234.5 516,-215.5 642,-215.5 642,-234.5"/>
<text text-anchor="middle" x="579" y="-222.5" font-family="Roboto" font-size="10.00">Urho3D::Node::GetScene</text>
</a>
</g>
</g>
<!-- Node3&#45;&gt;Node4 -->
<g id="edge3" class="edge">
<title>Node3&#45;&gt;Node4</title>
<path fill="none" stroke="#63b8ff" d="M449.91,-225C467,-225 486.14,-225 504.3,-225"/>
<polygon fill="#63b8ff" stroke="#63b8ff" points="504.24,-228.5 514.24,-225 504.24,-221.5 504.24,-228.5"/>
</g>
<!-- Node6 -->
<g id="node6" class="node">
<title>Node6</title>
<g id="a_node6"><a xlink:href="class_urho3_d_1_1_scene.html#a97fb1222bd2f38e6c1c433c0b7e54d40" target="_top" xlink:title="Return whether the specified id is a replicated id.">
<polygon fill="white" stroke="#666666" points="654,-186.5 504,-186.5 504,-167.5 654,-167.5 654,-186.5"/>
<text text-anchor="middle" x="579" y="-174.5" font-family="Roboto" font-size="10.00">Urho3D::Scene::IsReplicatedID</text>
</a>
</g>
</g>
<!-- Node5&#45;&gt;Node6 -->
<g id="edge5" class="edge">
<title>Node5&#45;&gt;Node6</title>
<path fill="none" stroke="#63b8ff" d="M449.91,-177C463.2,-177 477.72,-177 492.07,-177"/>
<polygon fill="#63b8ff" stroke="#63b8ff" points="491.99,-180.5 501.99,-177 491.99,-173.5 491.99,-180.5"/>
</g>
<!-- Node7&#45;&gt;Node7 -->
<g id="edge7" class="edge">
<title>Node7&#45;&gt;Node7</title>
<path fill="none" stroke="#63b8ff" d="M364.82,-126.28C358.34,-135.41 368.06,-144 394,-144 408.18,-144 417.52,-141.43 422.01,-137.61"/>
<polygon fill="#63b8ff" stroke="#63b8ff" points="425.48,-138.09 423.02,-127.78 418.51,-137.37 425.48,-138.09"/>
</g>
<!-- Node9 -->
<g id="node9" class="node">
<title>Node9</title>
<g id="a_node9"><a xlink:href="class_urho3_d_1_1_constraint2_d.html#a5bd16c56eb8593d219bb77c676c2d531" target="_top" xlink:title="Create joint.">
<polygon fill="white" stroke="#666666" points="450,-78 338,-78 338,-48 450,-48 450,-78"/>
<text text-anchor="start" x="346" y="-66" font-family="Roboto" font-size="10.00">Urho3D::Constraint2D</text>
<text text-anchor="middle" x="394" y="-55" font-family="Roboto" font-size="10.00">::CreateJoint</text>
</a>
</g>
</g>
<!-- Node8&#45;&gt;Node9 -->
<g id="edge9" class="edge">
<title>Node8&#45;&gt;Node9</title>
<path fill="none" stroke="#63b8ff" d="M284.07,-63C297.65,-63 312.34,-63 326.41,-63"/>
<polygon fill="#63b8ff" stroke="#63b8ff" points="326.01,-66.5 336.01,-63 326.01,-59.5 326.01,-66.5"/>
</g>
<!-- Node11 -->
<g id="node11" class="node">
<title>Node11</title>
<g id="a_node11"><a xlink:href="class_urho3_d_1_1_constraint2_d.html#a96753482a7b07d8a9cd15c55c22d1079" target="_top" xlink:title="Release joint.">
<polygon fill="white" stroke="#666666" points="450,-30 338,-30 338,0 450,0 450,-30"/>
<text text-anchor="start" x="346" y="-18" font-family="Roboto" font-size="10.00">Urho3D::Constraint2D</text>
<text text-anchor="middle" x="394" y="-7" font-family="Roboto" font-size="10.00">::ReleaseJoint</text>
</a>
</g>
</g>
<!-- Node8&#45;&gt;Node11 -->
<g id="edge11" class="edge">
<title>Node8&#45;&gt;Node11</title>
<path fill="none" stroke="#63b8ff" d="M281.79,-47.55C297.01,-43.09 313.77,-38.19 329.56,-33.57"/>
<polygon fill="#63b8ff" stroke="#63b8ff" points="330.24,-37.02 338.85,-30.85 328.27,-30.3 330.24,-37.02"/>
</g>
<!-- Node10 -->
<g id="node10" class="node">
<title>Node10</title>
<g id="a_node10"><a xlink:href="class_urho3_d_1_1_constraint2_d.html#acb84b297b4881b1c7c549e8468f26105" target="_top" xlink:title="Return joint def.">
<polygon fill="white" stroke="#666666" points="635,-78 523,-78 523,-48 635,-48 635,-78"/>
<text text-anchor="start" x="531" y="-66" font-family="Roboto" font-size="10.00">Urho3D::Constraint2D</text>
<text text-anchor="middle" x="579" y="-55" font-family="Roboto" font-size="10.00">::GetJointDef</text>
</a>
</g>
</g>
<!-- Node9&#45;&gt;Node10 -->
<g id="edge10" class="edge">
<title>Node9&#45;&gt;Node10</title>
<path fill="none" stroke="#63b8ff" d="M450.4,-63C469.66,-63 491.46,-63 511.53,-63"/>
<polygon fill="#63b8ff" stroke="#63b8ff" points="511.27,-66.5 521.27,-63 511.27,-59.5 511.27,-66.5"/>
</g>
</g>
</svg>
