<?xml version="1.0" encoding="UTF-8" standalone="no"?>
<!DOCTYPE svg PUBLIC "-//W3C//DTD SVG 1.1//EN"
 "http://www.w3.org/Graphics/SVG/1.1/DTD/svg11.dtd">
<!-- Generated by graphviz version 7.0.3 (0)
 -->
<!-- Title: Urho3D::LuaScriptInstance::ApplyAttributes Pages: 1 -->
<svg width="456pt" height="110pt"
 viewBox="0.00 0.00 456.00 110.00" xmlns="http://www.w3.org/2000/svg" xmlns:xlink="http://www.w3.org/1999/xlink">
<g id="graph0" class="graph" transform="scale(1 1) rotate(0) translate(4 106)">
<title>Urho3D::LuaScriptInstance::ApplyAttributes</title>
<!-- Node1 -->
<g id="node1" class="node">
<title>Node1</title>
<g id="a_node1"><a xlink:title="Apply attribute changes that can not be applied immediately. Called after scene load or a network upd...">
<polygon fill="#999999" stroke="#666666" points="134,-54 0,-54 0,-24 134,-24 134,-54"/>
<text text-anchor="start" x="8" y="-42" font-family="Roboto" font-size="10.00">Urho3D::LuaScriptInstance</text>
<text text-anchor="middle" x="67" y="-31" font-family="Roboto" font-size="10.00">::ApplyAttributes</text>
</a>
</g>
</g>
<!-- Node2 -->
<g id="node2" class="node">
<title>Node2</title>
<g id="a_node2"><a xlink:href="class_urho3_d_1_1_lua_function.html#aaebe8556aab514240aae0a06f82c2629" target="_top" xlink:title="Begin function call. When a script object is given then pass it as self argument (first parameter) to...">
<polygon fill="white" stroke="#666666" points="278,-78 170,-78 170,-48 278,-48 278,-78"/>
<text text-anchor="start" x="178" y="-66" font-family="Roboto" font-size="10.00">Urho3D::LuaFunction</text>
<text text-anchor="middle" x="224" y="-55" font-family="Roboto" font-size="10.00">::BeginCall</text>
</a>
</g>
</g>
<!-- Node1&#45;&gt;Node2 -->
<g id="edge1" class="edge">
<title>Node1&#45;&gt;Node2</title>
<path fill="none" stroke="#63b8ff" d="M134.18,-49.25C142.24,-50.49 150.46,-51.77 158.49,-53.01"/>
<polygon fill="#63b8ff" stroke="#63b8ff" points="157.76,-56.44 168.18,-54.51 158.83,-49.52 157.76,-56.44"/>
</g>
<!-- Node5 -->
<g id="node5" class="node">
<title>Node5</title>
<g id="a_node5"><a xlink:href="class_urho3_d_1_1_lua_function.html#a10c1b2a030d1763e524b5fd50e4afd8b" target="_top" xlink:title="End call and actually execute the function. The return values, if any, are still left in the stack wh...">
<polygon fill="white" stroke="#666666" points="278,-30 170,-30 170,0 278,0 278,-30"/>
<text text-anchor="start" x="178" y="-18" font-family="Roboto" font-size="10.00">Urho3D::LuaFunction</text>
<text text-anchor="middle" x="224" y="-7" font-family="Roboto" font-size="10.00">::EndCall</text>
</a>
</g>
</g>
<!-- Node1&#45;&gt;Node5 -->
<g id="edge4" class="edge">
<title>Node1&#45;&gt;Node5</title>
<path fill="none" stroke="#63b8ff" d="M134.18,-28.75C142.24,-27.51 150.46,-26.23 158.49,-24.99"/>
<polygon fill="#63b8ff" stroke="#63b8ff" points="158.83,-28.48 168.18,-23.49 157.76,-21.56 158.83,-28.48"/>
</g>
<!-- Node3 -->
<g id="node3" class="node">
<title>Node3</title>
<g id="a_node3"><a xlink:href="class_urho3_d_1_1_lua_script_instance.html#a3516536d2ba9fac5b5f8e708de85fb70" target="_top" xlink:title="Return Lua reference to script object.">
<polygon fill="white" stroke="#666666" points="448,-102 314,-102 314,-72 448,-72 448,-102"/>
<text text-anchor="start" x="322" y="-90" font-family="Roboto" font-size="10.00">Urho3D::LuaScriptInstance</text>
<text text-anchor="middle" x="381" y="-79" font-family="Roboto" font-size="10.00">::GetScriptObjectRef</text>
</a>
</g>
</g>
<!-- Node2&#45;&gt;Node3 -->
<g id="edge2" class="edge">
<title>Node2&#45;&gt;Node3</title>
<path fill="none" stroke="#63b8ff" d="M278.34,-71.26C286.17,-72.47 294.36,-73.74 302.55,-75.01"/>
<polygon fill="#63b8ff" stroke="#63b8ff" points="301.77,-78.43 312.19,-76.5 302.84,-71.51 301.77,-78.43"/>
</g>
<!-- Node4 -->
<g id="node4" class="node">
<title>Node4</title>
<g id="a_node4"><a xlink:href="class_urho3_d_1_1_lua_function.html#aec2f70c0be7886a14ec8417235a15e48" target="_top" xlink:title="Check that function is valid.">
<polygon fill="white" stroke="#666666" points="435,-54 327,-54 327,-24 435,-24 435,-54"/>
<text text-anchor="start" x="335" y="-42" font-family="Roboto" font-size="10.00">Urho3D::LuaFunction</text>
<text text-anchor="middle" x="381" y="-31" font-family="Roboto" font-size="10.00">::IsValid</text>
</a>
</g>
</g>
<!-- Node2&#45;&gt;Node4 -->
<g id="edge3" class="edge">
<title>Node2&#45;&gt;Node4</title>
<path fill="none" stroke="#63b8ff" d="M278.34,-54.74C290.28,-52.89 303.06,-50.91 315.39,-49"/>
<polygon fill="#63b8ff" stroke="#63b8ff" points="315.72,-52.5 325.06,-47.51 314.65,-45.58 315.72,-52.5"/>
</g>
</g>
</svg>
