<?xml version="1.0" encoding="UTF-8" standalone="no"?>
<!DOCTYPE svg PUBLIC "-//W3C//DTD SVG 1.1//EN"
 "http://www.w3.org/Graphics/SVG/1.1/DTD/svg11.dtd">
<!-- Generated by graphviz version 7.0.3 (0)
 -->
<!-- Title: Urho3D::XMLFile::Save Pages: 1 -->
<svg width="288pt" height="182pt"
 viewBox="0.00 0.00 288.00 182.00" xmlns="http://www.w3.org/2000/svg" xmlns:xlink="http://www.w3.org/1999/xlink">
<g id="graph0" class="graph" transform="scale(1 1) rotate(0) translate(4 178)">
<title>Urho3D::XMLFile::Save</title>
<!-- Node1 -->
<g id="node1" class="node">
<title>Node1</title>
<g id="a_node1"><a xlink:title="Save resource with default indentation (one tab). Return true if successful.">
<polygon fill="#999999" stroke="#666666" points="280,-96.5 164,-96.5 164,-77.5 280,-77.5 280,-96.5"/>
<text text-anchor="middle" x="222" y="-84.5" font-family="Roboto" font-size="10.00">Urho3D::XMLFile::Save</text>
</a>
</g>
</g>
<!-- Node1&#45;&gt;Node1 -->
<g id="edge1" class="edge">
<title>Node1&#45;&gt;Node1</title>
<path fill="none" stroke="#63b8ff" d="M250.33,-107.6C247.07,-111.63 237.62,-114.5 222,-114.5 194.23,-114.5 185.98,-105.44 197.26,-96.87"/>
<polygon fill="#63b8ff" stroke="#63b8ff" points="253.71,-106.67 247.22,-98.3 247.08,-108.9 253.71,-106.67"/>
</g>
<!-- Node2 -->
<g id="node2" class="node">
<title>Node2</title>
<g id="a_node2"><a xlink:href="class_urho3_d_1_1_object_animation.html#afced8f1fb7812b395e4d2b7db94e046a" target="_top" xlink:title="Save resource. Return true if successful.">
<polygon fill="white" stroke="#666666" points="128,-174 0,-174 0,-144 128,-144 128,-174"/>
<text text-anchor="start" x="8" y="-162" font-family="Roboto" font-size="10.00">Urho3D::ObjectAnimation</text>
<text text-anchor="middle" x="64" y="-151" font-family="Roboto" font-size="10.00">::Save</text>
</a>
</g>
</g>
<!-- Node1&#45;&gt;Node2 -->
<g id="edge2" class="edge">
<title>Node1&#45;&gt;Node2</title>
<path fill="none" stroke="#63b8ff" d="M193.15,-102.42C174.88,-112.27 150.33,-125.02 128,-135 121.48,-137.91 114.49,-140.8 107.63,-143.51"/>
<polygon fill="#63b8ff" stroke="#63b8ff" points="194.68,-105.57 201.79,-97.72 191.33,-99.42 194.68,-105.57"/>
</g>
<!-- Node3 -->
<g id="node3" class="node">
<title>Node3</title>
<g id="a_node3"><a xlink:href="class_urho3_d_1_1_value_animation.html#ad4b9ad26ed97281b82c9aa862806c83e" target="_top" xlink:title="Save resource. Return true if successful.">
<polygon fill="white" stroke="#666666" points="126,-126 2,-126 2,-96 126,-96 126,-126"/>
<text text-anchor="start" x="10" y="-114" font-family="Roboto" font-size="10.00">Urho3D::ValueAnimation</text>
<text text-anchor="middle" x="64" y="-103" font-family="Roboto" font-size="10.00">::Save</text>
</a>
</g>
</g>
<!-- Node1&#45;&gt;Node3 -->
<g id="edge3" class="edge">
<title>Node1&#45;&gt;Node3</title>
<path fill="none" stroke="#63b8ff" d="M152.5,-97.54C143.81,-98.87 134.97,-100.24 126.4,-101.55"/>
<polygon fill="#63b8ff" stroke="#63b8ff" points="152.95,-101.01 162.3,-96.03 151.89,-94.09 152.95,-101.01"/>
</g>
<!-- Node4 -->
<g id="node4" class="node">
<title>Node4</title>
<g id="a_node4"><a xlink:href="class_urho3_d_1_1_particle_effect2_d.html#a787e6c47e1657a095821750a372ed37b" target="_top" xlink:title="Save resource. Return true if successful.">
<polygon fill="white" stroke="#666666" points="126.5,-78 1.5,-78 1.5,-48 126.5,-48 126.5,-78"/>
<text text-anchor="start" x="9.5" y="-66" font-family="Roboto" font-size="10.00">Urho3D::ParticleEffect2D</text>
<text text-anchor="middle" x="64" y="-55" font-family="Roboto" font-size="10.00">::Save</text>
</a>
</g>
</g>
<!-- Node1&#45;&gt;Node4 -->
<g id="edge4" class="edge">
<title>Node1&#45;&gt;Node4</title>
<path fill="none" stroke="#63b8ff" d="M152.67,-76.49C144.1,-75.17 135.38,-73.83 126.92,-72.53"/>
<polygon fill="#63b8ff" stroke="#63b8ff" points="151.89,-79.91 162.3,-77.97 152.95,-72.99 151.89,-79.91"/>
</g>
<!-- Node5 -->
<g id="node5" class="node">
<title>Node5</title>
<g id="a_node5"><a xlink:href="class_urho3_d_1_1_shader_precache.html#aacd7319ad7fb136e8d7f3884e12fec87" target="_top" xlink:title="Destruct. Write the collected shaders to XML.">
<polygon fill="white" stroke="#666666" points="127.5,-30 0.5,-30 0.5,0 127.5,0 127.5,-30"/>
<text text-anchor="start" x="8.5" y="-18" font-family="Roboto" font-size="10.00">Urho3D::ShaderPrecache</text>
<text text-anchor="middle" x="64" y="-7" font-family="Roboto" font-size="10.00">::~ShaderPrecache</text>
</a>
</g>
</g>
<!-- Node1&#45;&gt;Node5 -->
<g id="edge5" class="edge">
<title>Node1&#45;&gt;Node5</title>
<path fill="none" stroke="#63b8ff" d="M193.15,-71.58C174.88,-61.73 150.33,-48.98 128,-39 121.48,-36.09 114.49,-33.2 107.63,-30.49"/>
<polygon fill="#63b8ff" stroke="#63b8ff" points="191.33,-74.58 201.79,-76.28 194.68,-68.43 191.33,-74.58"/>
</g>
</g>
</svg>
