<?xml version="1.0" encoding="UTF-8" standalone="no"?>
<!DOCTYPE svg PUBLIC "-//W3C//DTD SVG 1.1//EN"
 "http://www.w3.org/Graphics/SVG/1.1/DTD/svg11.dtd">
<!-- Generated by graphviz version 7.0.3 (0)
 -->
<!-- Title: Urho3D::AnimationState::SetWeight Pages: 1 -->
<svg width="249pt" height="51pt"
 viewBox="0.00 0.00 249.00 50.50" xmlns="http://www.w3.org/2000/svg" xmlns:xlink="http://www.w3.org/1999/xlink">
<g id="graph0" class="graph" transform="scale(1 1) rotate(0) translate(4 46.5)">
<title>Urho3D::AnimationState::SetWeight</title>
<!-- Node1 -->
<g id="node1" class="node">
<title>Node1</title>
<g id="a_node1"><a xlink:title=" ">
<polygon fill="#999999" stroke="#666666" points="122,-30 0,-30 0,0 122,0 122,-30"/>
<text text-anchor="start" x="8" y="-18" font-family="Roboto" font-size="10.00">Urho3D::AnimationState</text>
<text text-anchor="middle" x="61" y="-7" font-family="Roboto" font-size="10.00">::SetWeight</text>
</a>
</g>
</g>
<!-- Node2 -->
<g id="node2" class="node">
<title>Node2</title>
<g id="a_node2"><a xlink:href="_math_defs_8h.html#a937fef228b452d2488ce13d78f0bd810" target="_top" xlink:title=" ">
<polygon fill="white" stroke="#666666" points="241,-24.5 158,-24.5 158,-5.5 241,-5.5 241,-24.5"/>
<text text-anchor="middle" x="199.5" y="-12.5" font-family="Roboto" font-size="10.00">Urho3D::Clamp</text>
</a>
</g>
</g>
<!-- Node1&#45;&gt;Node2 -->
<g id="edge1" class="edge">
<title>Node1&#45;&gt;Node2</title>
<path fill="none" stroke="#63b8ff" d="M122.27,-15C130.33,-15 138.54,-15 146.45,-15"/>
<polygon fill="#63b8ff" stroke="#63b8ff" points="146.24,-18.5 156.24,-15 146.24,-11.5 146.24,-18.5"/>
</g>
<!-- Node2&#45;&gt;Node2 -->
<g id="edge2" class="edge">
<title>Node2&#45;&gt;Node2</title>
<path fill="none" stroke="#63b8ff" d="M177.82,-24.87C167.93,-33.44 175.15,-42.5 199.5,-42.5 212.81,-42.5 221.01,-39.79 224.08,-35.93"/>
<polygon fill="#63b8ff" stroke="#63b8ff" points="227.49,-35.12 221.57,-26.33 220.72,-36.89 227.49,-35.12"/>
</g>
</g>
</svg>
