<?xml version="1.0" encoding="UTF-8" standalone="no"?>
<!DOCTYPE svg PUBLIC "-//W3C//DTD SVG 1.1//EN"
 "http://www.w3.org/Graphics/SVG/1.1/DTD/svg11.dtd">
<!-- Generated by graphviz version 7.0.3 (0)
 -->
<!-- Title: /var/dev/u3d/stable/Source/Urho3D/IK Pages: 1 -->
<svg width="158pt" height="133pt"
 viewBox="0.00 0.00 158.00 133.00" xmlns="http://www.w3.org/2000/svg" xmlns:xlink="http://www.w3.org/1999/xlink">
<g id="graph0" class="graph" transform="scale(1 1) rotate(0) translate(4 129)">
<title>/var/dev/u3d/stable/Source/Urho3D/IK</title>
<g id="clust1" class="cluster">
<title>clusterdir_362bf5f31771e0c1f8e0073d174ce5c9</title>
<g id="a_clust1"><a xlink:href="dir_362bf5f31771e0c1f8e0073d174ce5c9.html" target="_top" xlink:title="Urho3D">
<polygon fill="#daedff" stroke="#7f7f7f" stroke-dasharray="5,2" points="8,-8 8,-117 142,-117 142,-8 8,-8"/>
<text text-anchor="middle" x="75" y="-105" font-family="Roboto" font-size="10.00">Urho3D</text>
</a>
</g>
</g>
<!-- dir_14b99b9b32e5a2080c42bc04eaa61b59 -->
<g id="node1" class="node">
<title>dir_14b99b9b32e5a2080c42bc04eaa61b59</title>
<g id="a_node1"><a xlink:href="dir_14b99b9b32e5a2080c42bc04eaa61b59.html" target="_top" xlink:title="Graphics">
<polygon fill="#4ea9ff" stroke="red" points="71.5,-35 16.5,-35 16.5,-16 71.5,-16 71.5,-35"/>
<text text-anchor="middle" x="44" y="-23" font-family="Roboto" font-size="10.00">Graphics</text>
</a>
</g>
</g>
<!-- dir_c56c3397f44a51d151132c71687ac69b -->
<g id="node2" class="node">
<title>dir_c56c3397f44a51d151132c71687ac69b</title>
<g id="a_node2"><a xlink:href="dir_c56c3397f44a51d151132c71687ac69b.html" target="_top" xlink:title="Scene">
<polygon fill="#4ea9ff" stroke="#404040" points="134,-35 90,-35 90,-16 134,-16 134,-35"/>
<text text-anchor="middle" x="112" y="-23" font-family="Roboto" font-size="10.00">Scene</text>
</a>
</g>
</g>
<!-- dir_565407b4a15dc4826dc6efef772354ea -->
<g id="node3" class="node">
<title>dir_565407b4a15dc4826dc6efef772354ea</title>
<g id="a_node3"><a xlink:href="dir_565407b4a15dc4826dc6efef772354ea.html" target="_top" xlink:title="IK">
<polygon fill="#daedff" stroke="#404040" stroke-width="2" points="92.5,-90 63.5,-90 63.5,-71 92.5,-71 92.5,-90"/>
<text text-anchor="middle" x="78" y="-78" font-family="Roboto" font-size="10.00">IK</text>
</a>
</g>
</g>
<!-- dir_565407b4a15dc4826dc6efef772354ea&#45;&gt;dir_14b99b9b32e5a2080c42bc04eaa61b59 -->
<g id="edge1" class="edge">
<title>dir_565407b4a15dc4826dc6efef772354ea&#45;&gt;dir_14b99b9b32e5a2080c42bc04eaa61b59</title>
<path fill="none" stroke="#63b8ff" d="M72.39,-70.75C67.88,-63.73 61.41,-53.64 55.79,-44.87"/>
<polygon fill="#63b8ff" stroke="#63b8ff" points="58.9,-43.24 50.55,-36.72 53.01,-47.02 58.9,-43.24"/>
<g id="a_edge1&#45;headlabel"><a xlink:href="dir_000013_000012.html" target="_top" xlink:title="2">
<text text-anchor="middle" x="62.41" y="-40.96" font-family="Roboto" font-size="10.00" fill="#63b8ff">2</text>
</a>
</g>
</g>
<!-- dir_565407b4a15dc4826dc6efef772354ea&#45;&gt;dir_c56c3397f44a51d151132c71687ac69b -->
<g id="edge2" class="edge">
<title>dir_565407b4a15dc4826dc6efef772354ea&#45;&gt;dir_c56c3397f44a51d151132c71687ac69b</title>
<path fill="none" stroke="#63b8ff" d="M83.61,-70.75C88.12,-63.73 94.59,-53.64 100.21,-44.87"/>
<polygon fill="#63b8ff" stroke="#63b8ff" points="102.99,-47.02 105.45,-36.72 97.1,-43.24 102.99,-47.02"/>
<g id="a_edge2&#45;headlabel"><a xlink:href="dir_000013_000025.html" target="_top" xlink:title="5">
<text text-anchor="middle" x="104.26" y="-47.81" font-family="Roboto" font-size="10.00" fill="#63b8ff">5</text>
</a>
</g>
</g>
</g>
</svg>
