<?xml version="1.0" encoding="UTF-8" standalone="no"?>
<!DOCTYPE svg PUBLIC "-//W3C//DTD SVG 1.1//EN"
 "http://www.w3.org/Graphics/SVG/1.1/DTD/svg11.dtd">
<!-- Generated by graphviz version 7.0.3 (0)
 -->
<!-- Title: /var/dev/u3d/stable/Source/Urho3D/Graphics/OpenGL Pages: 1 -->
<svg width="114pt" height="117pt"
 viewBox="0.00 0.00 113.50 117.00" xmlns="http://www.w3.org/2000/svg" xmlns:xlink="http://www.w3.org/1999/xlink">
<g id="graph0" class="graph" transform="scale(1 1) rotate(0) translate(4 113)">
<title>/var/dev/u3d/stable/Source/Urho3D/Graphics/OpenGL</title>
<g id="clust1" class="cluster">
<title>clusterdir_14b99b9b32e5a2080c42bc04eaa61b59</title>
<g id="a_clust1"><a xlink:href="dir_14b99b9b32e5a2080c42bc04eaa61b59.html" target="_top" xlink:title="Graphics">
<polygon fill="#daedff" stroke="#7f7f7f" stroke-dasharray="5,2" points="11.5,-47 11.5,-101 79.5,-101 79.5,-47 11.5,-47"/>
<text text-anchor="middle" x="45.5" y="-89" font-family="Roboto" font-size="10.00">Graphics</text>
</a>
</g>
</g>
<!-- dir_0c12cd772d3927f587681ebc70b781b7 -->
<g id="node1" class="node">
<title>dir_0c12cd772d3927f587681ebc70b781b7</title>
<g id="a_node1"><a xlink:href="dir_0c12cd772d3927f587681ebc70b781b7.html" target="_top" xlink:title="OpenGL">
<polygon fill="#daedff" stroke="#404040" stroke-width="2" points="71,-74 20,-74 20,-55 71,-55 71,-74"/>
<text text-anchor="middle" x="45.5" y="-62" font-family="Roboto" font-size="10.00">OpenGL</text>
</a>
</g>
</g>
<!-- dir_161200c2dbb1562d663a5635483f45fd -->
<g id="node2" class="node">
<title>dir_161200c2dbb1562d663a5635483f45fd</title>
<g id="a_node2"><a xlink:href="dir_161200c2dbb1562d663a5635483f45fd.html" target="_top" xlink:title="IO">
<polygon fill="#daedff" stroke="#7f7f7f" points="29,-19 0,-19 0,0 29,0 29,-19"/>
<text text-anchor="middle" x="14.5" y="-7" font-family="Roboto" font-size="10.00">IO</text>
</a>
</g>
</g>
<!-- dir_0c12cd772d3927f587681ebc70b781b7&#45;&gt;dir_161200c2dbb1562d663a5635483f45fd -->
<g id="edge1" class="edge">
<title>dir_0c12cd772d3927f587681ebc70b781b7&#45;&gt;dir_161200c2dbb1562d663a5635483f45fd</title>
<path fill="none" stroke="#63b8ff" d="M40.38,-54.75C36.32,-47.81 30.51,-37.86 25.41,-29.16"/>
<polygon fill="#63b8ff" stroke="#63b8ff" points="28.56,-27.61 20.49,-20.75 22.52,-31.15 28.56,-27.61"/>
<g id="a_edge1&#45;headlabel"><a xlink:href="dir_000021_000015.html" target="_top" xlink:title="1">
<text text-anchor="middle" x="32.07" y="-25.48" font-family="Roboto" font-size="10.00" fill="#63b8ff">1</text>
</a>
</g>
</g>
<!-- dir_eafd862b540987c6fd4625dbd2029ad8 -->
<g id="node3" class="node">
<title>dir_eafd862b540987c6fd4625dbd2029ad8</title>
<g id="a_node3"><a xlink:href="dir_eafd862b540987c6fd4625dbd2029ad8.html" target="_top" xlink:title="Resource">
<polygon fill="#daedff" stroke="#7f7f7f" points="105.5,-19 47.5,-19 47.5,0 105.5,0 105.5,-19"/>
<text text-anchor="middle" x="76.5" y="-7" font-family="Roboto" font-size="10.00">Resource</text>
</a>
</g>
</g>
<!-- dir_0c12cd772d3927f587681ebc70b781b7&#45;&gt;dir_eafd862b540987c6fd4625dbd2029ad8 -->
<g id="edge2" class="edge">
<title>dir_0c12cd772d3927f587681ebc70b781b7&#45;&gt;dir_eafd862b540987c6fd4625dbd2029ad8</title>
<path fill="none" stroke="#63b8ff" d="M50.62,-54.75C54.68,-47.81 60.49,-37.86 65.59,-29.16"/>
<polygon fill="#63b8ff" stroke="#63b8ff" points="68.48,-31.15 70.51,-20.75 62.44,-27.61 68.48,-31.15"/>
<g id="a_edge2&#45;headlabel"><a xlink:href="dir_000021_000024.html" target="_top" xlink:title="6">
<text text-anchor="middle" x="69.88" y="-31.88" font-family="Roboto" font-size="10.00" fill="#63b8ff">6</text>
</a>
</g>
</g>
</g>
</svg>
