<?xml version="1.0" encoding="UTF-8" standalone="no"?>
<!DOCTYPE svg PUBLIC "-//W3C//DTD SVG 1.1//EN"
 "http://www.w3.org/Graphics/SVG/1.1/DTD/svg11.dtd">
<!-- Generated by graphviz version 7.0.3 (0)
 -->
<!-- Title: /var/dev/u3d/stable/Source/Urho3D/Physics2D Pages: 1 -->
<svg width="158pt" height="133pt"
 viewBox="0.00 0.00 158.00 133.00" xmlns="http://www.w3.org/2000/svg" xmlns:xlink="http://www.w3.org/1999/xlink">
<g id="graph0" class="graph" transform="scale(1 1) rotate(0) translate(4 129)">
<title>/var/dev/u3d/stable/Source/Urho3D/Physics2D</title>
<g id="clust1" class="cluster">
<title>clusterdir_362bf5f31771e0c1f8e0073d174ce5c9</title>
<g id="a_clust1"><a xlink:href="dir_362bf5f31771e0c1f8e0073d174ce5c9.html" target="_top" xlink:title="Urho3D">
<polygon fill="#daedff" stroke="#7f7f7f" stroke-dasharray="5,2" points="8,-8 8,-117 142,-117 142,-8 8,-8"/>
<text text-anchor="middle" x="75" y="-105" font-family="Roboto" font-size="10.00">Urho3D</text>
</a>
</g>
</g>
<!-- dir_14b99b9b32e5a2080c42bc04eaa61b59 -->
<g id="node1" class="node">
<title>dir_14b99b9b32e5a2080c42bc04eaa61b59</title>
<g id="a_node1"><a xlink:href="dir_14b99b9b32e5a2080c42bc04eaa61b59.html" target="_top" xlink:title="Graphics">
<polygon fill="#4ea9ff" stroke="red" points="71.5,-35 16.5,-35 16.5,-16 71.5,-16 71.5,-35"/>
<text text-anchor="middle" x="44" y="-23" font-family="Roboto" font-size="10.00">Graphics</text>
</a>
</g>
</g>
<!-- dir_c56c3397f44a51d151132c71687ac69b -->
<g id="node2" class="node">
<title>dir_c56c3397f44a51d151132c71687ac69b</title>
<g id="a_node2"><a xlink:href="dir_c56c3397f44a51d151132c71687ac69b.html" target="_top" xlink:title="Scene">
<polygon fill="#4ea9ff" stroke="#404040" points="134,-35 90,-35 90,-16 134,-16 134,-35"/>
<text text-anchor="middle" x="112" y="-23" font-family="Roboto" font-size="10.00">Scene</text>
</a>
</g>
</g>
<!-- dir_285a0cbd349607d69f0f2ca3837a8e0a -->
<g id="node3" class="node">
<title>dir_285a0cbd349607d69f0f2ca3837a8e0a</title>
<g id="a_node3"><a xlink:href="dir_285a0cbd349607d69f0f2ca3837a8e0a.html" target="_top" xlink:title="Physics2D">
<polygon fill="#daedff" stroke="#404040" stroke-width="2" points="106,-90 44,-90 44,-71 106,-71 106,-90"/>
<text text-anchor="middle" x="75" y="-78" font-family="Roboto" font-size="10.00">Physics2D</text>
</a>
</g>
</g>
<!-- dir_285a0cbd349607d69f0f2ca3837a8e0a&#45;&gt;dir_14b99b9b32e5a2080c42bc04eaa61b59 -->
<g id="edge1" class="edge">
<title>dir_285a0cbd349607d69f0f2ca3837a8e0a&#45;&gt;dir_14b99b9b32e5a2080c42bc04eaa61b59</title>
<path fill="none" stroke="#63b8ff" d="M69.88,-70.75C65.82,-63.81 60.01,-53.86 54.91,-45.16"/>
<polygon fill="#63b8ff" stroke="#63b8ff" points="58.06,-43.61 49.99,-36.75 52.02,-47.15 58.06,-43.61"/>
<g id="a_edge1&#45;headlabel"><a xlink:href="dir_000023_000012.html" target="_top" xlink:title="1">
<text text-anchor="middle" x="61.57" y="-41.48" font-family="Roboto" font-size="10.00" fill="#63b8ff">1</text>
</a>
</g>
</g>
<!-- dir_285a0cbd349607d69f0f2ca3837a8e0a&#45;&gt;dir_c56c3397f44a51d151132c71687ac69b -->
<g id="edge2" class="edge">
<title>dir_285a0cbd349607d69f0f2ca3837a8e0a&#45;&gt;dir_c56c3397f44a51d151132c71687ac69b</title>
<path fill="none" stroke="#63b8ff" d="M81.11,-70.75C86.01,-63.73 93.05,-53.64 99.17,-44.87"/>
<polygon fill="#63b8ff" stroke="#63b8ff" points="102.04,-46.89 104.89,-36.68 96.3,-42.88 102.04,-46.89"/>
<g id="a_edge2&#45;headlabel"><a xlink:href="dir_000023_000025.html" target="_top" xlink:title="10">
<text text-anchor="middle" x="103.17" y="-47.72" font-family="Roboto" font-size="10.00" fill="#63b8ff">10</text>
</a>
</g>
</g>
</g>
</svg>
