<?xml version="1.0" encoding="UTF-8" standalone="no"?>
<!DOCTYPE svg PUBLIC "-//W3C//DTD SVG 1.1//EN"
 "http://www.w3.org/Graphics/SVG/1.1/DTD/svg11.dtd">
<!-- Generated by graphviz version 7.0.3 (0)
 -->
<!-- Title: Graph Legend Pages: 1 -->
<svg width="508pt" height="159pt"
 viewBox="0.00 0.00 507.50 159.00" xmlns="http://www.w3.org/2000/svg" xmlns:xlink="http://www.w3.org/1999/xlink">
<g id="graph0" class="graph" transform="scale(1 1) rotate(0) translate(4 155)">
<title>Graph Legend</title>
<!-- Node9 -->
<g id="node1" class="node">
<title>Node9</title>
<g id="a_node1"><a xlink:title=" ">
<polygon fill="#999999" stroke="#666666" points="291.5,-19 235.5,-19 235.5,0 291.5,0 291.5,-19"/>
<text text-anchor="middle" x="263.5" y="-7" font-family="Roboto" font-size="10.00">Inherited</text>
</a>
</g>
</g>
<!-- Node10 -->
<g id="node2" class="node">
<title>Node10</title>
<g id="a_node2"><a xlink:href="url.html" xlink:title=" ">
<polygon fill="white" stroke="#666666" points="65,-85 0,-85 0,-66 65,-66 65,-85"/>
<text text-anchor="middle" x="32.5" y="-73" font-family="Roboto" font-size="10.00">PublicBase</text>
</a>
</g>
</g>
<!-- Node10&#45;&gt;Node9 -->
<g id="edge1" class="edge">
<title>Node10&#45;&gt;Node9</title>
<path fill="none" stroke="#63b8ff" d="M75.59,-62.56C122.28,-49.63 195.41,-29.36 235.28,-18.32"/>
<polygon fill="#63b8ff" stroke="#63b8ff" points="74.78,-59.15 66.08,-65.2 76.65,-65.9 74.78,-59.15"/>
</g>
<!-- Node11 -->
<g id="node3" class="node">
<title>Node11</title>
<g id="a_node3"><a xlink:href="url.html" xlink:title=" ">
<polygon fill="#fff0f0" stroke="red" points="63,-151 2,-151 2,-132 63,-132 63,-151"/>
<text text-anchor="middle" x="32.5" y="-139" font-family="Roboto" font-size="10.00">Truncated</text>
</a>
</g>
</g>
<!-- Node11&#45;&gt;Node10 -->
<g id="edge2" class="edge">
<title>Node11&#45;&gt;Node10</title>
<path fill="none" stroke="#63b8ff" d="M32.5,-120.18C32.5,-108.44 32.5,-94.27 32.5,-85.32"/>
<polygon fill="#63b8ff" stroke="#63b8ff" points="29,-120.09 32.5,-130.09 36,-120.09 29,-120.09"/>
</g>
<!-- Node13 -->
<g id="node4" class="node">
<title>Node13</title>
<polygon fill="white" stroke="#666666" points="164,-85 83,-85 83,-66 164,-66 164,-85"/>
<text text-anchor="middle" x="123.5" y="-73" font-family="Roboto" font-size="10.00">ProtectedBase</text>
</g>
<!-- Node13&#45;&gt;Node9 -->
<g id="edge3" class="edge">
<title>Node13&#45;&gt;Node9</title>
<path fill="none" stroke="darkgreen" d="M153.17,-60.94C180.63,-48.38 220.66,-30.08 244.2,-19.32"/>
<polygon fill="darkgreen" stroke="darkgreen" points="151.98,-57.63 144.34,-64.97 154.89,-64 151.98,-57.63"/>
</g>
<!-- Node14 -->
<g id="node5" class="node">
<title>Node14</title>
<polygon fill="white" stroke="#666666" points="250.5,-85 182.5,-85 182.5,-66 250.5,-66 250.5,-85"/>
<text text-anchor="middle" x="216.5" y="-73" font-family="Roboto" font-size="10.00">PrivateBase</text>
</g>
<!-- Node14&#45;&gt;Node9 -->
<g id="edge4" class="edge">
<title>Node14&#45;&gt;Node9</title>
<path fill="none" stroke="#8b1a1a" d="M229.8,-56.4C238.7,-44.27 250.03,-28.84 257.02,-19.32"/>
<polygon fill="#8b1a1a" stroke="#8b1a1a" points="227.03,-54.25 223.93,-64.38 232.67,-58.39 227.03,-54.25"/>
</g>
<!-- Node15 -->
<g id="node6" class="node">
<title>Node15</title>
<g id="a_node6"><a xlink:title=" ">
<polygon fill="#e0e0e0" stroke="#999999" points="354,-85 269,-85 269,-66 354,-66 354,-85"/>
<text text-anchor="middle" x="311.5" y="-73" font-family="Roboto" font-size="10.00">Undocumented</text>
</a>
</g>
</g>
<!-- Node15&#45;&gt;Node9 -->
<g id="edge5" class="edge">
<title>Node15&#45;&gt;Node9</title>
<path fill="none" stroke="#63b8ff" d="M297.92,-56.4C288.83,-44.27 277.26,-28.84 270.12,-19.32"/>
<polygon fill="#63b8ff" stroke="#63b8ff" points="295.12,-58.49 303.92,-64.39 300.72,-54.29 295.12,-58.49"/>
</g>
<!-- Node16 -->
<g id="node7" class="node">
<title>Node16</title>
<polygon fill="white" stroke="#666666" points="441,-85 372,-85 372,-66 441,-66 441,-85"/>
<text text-anchor="middle" x="406.5" y="-73" font-family="Roboto" font-size="10.00">Templ&lt; int &gt;</text>
</g>
<!-- Node16&#45;&gt;Node9 -->
<g id="edge6" class="edge">
<title>Node16&#45;&gt;Node9</title>
<path fill="none" stroke="#63b8ff" d="M376.19,-60.94C348.14,-48.38 307.25,-30.08 283.21,-19.32"/>
<polygon fill="#63b8ff" stroke="#63b8ff" points="374.68,-64.09 385.23,-64.98 377.54,-57.7 374.68,-64.09"/>
</g>
<!-- Node17 -->
<g id="node8" class="node">
<title>Node17</title>
<polygon fill="white" stroke="#666666" points="439,-151 374,-151 374,-132 439,-132 439,-151"/>
<text text-anchor="middle" x="406.5" y="-139" font-family="Roboto" font-size="10.00">Templ&lt; T &gt;</text>
</g>
<!-- Node17&#45;&gt;Node16 -->
<g id="edge7" class="edge">
<title>Node17&#45;&gt;Node16</title>
<path fill="none" stroke="orange" stroke-dasharray="5,2" d="M406.5,-120.18C406.5,-108.44 406.5,-94.27 406.5,-85.32"/>
<polygon fill="orange" stroke="orange" points="403,-120.09 406.5,-130.09 410,-120.09 403,-120.09"/>
<text text-anchor="middle" x="419.5" y="-106" font-family="Roboto" font-size="10.00">&lt; int &gt;</text>
</g>
<!-- Node18 -->
<g id="node9" class="node">
<title>Node18</title>
<polygon fill="white" stroke="#666666" points="499.5,-85 459.5,-85 459.5,-66 499.5,-66 499.5,-85"/>
<text text-anchor="middle" x="479.5" y="-73" font-family="Roboto" font-size="10.00">Used</text>
</g>
<!-- Node18&#45;&gt;Node9 -->
<g id="edge8" class="edge">
<title>Node18&#45;&gt;Node9</title>
<path fill="none" stroke="#9a32cd" stroke-dasharray="5,2" d="M448.23,-65.23C406.2,-52.78 332.1,-30.82 291.7,-18.85"/>
<polygon fill="#9a32cd" stroke="#9a32cd" points="447.15,-68.56 457.73,-68.05 449.13,-61.85 447.15,-68.56"/>
<text text-anchor="middle" x="414" y="-40" font-family="Roboto" font-size="10.00">m_usedClass</text>
</g>
</g>
</svg>
