<?xml version="1.0" encoding="UTF-8" standalone="no"?>
<!DOCTYPE svg PUBLIC "-//W3C//DTD SVG 1.1//EN"
 "http://www.w3.org/Graphics/SVG/1.1/DTD/svg11.dtd">
<!-- Generated by graphviz version 7.0.3 (0)
 -->
<!-- Title: Urho3D::Spriter::Folder Pages: 1 -->
<svg width="280pt" height="160pt"
 viewBox="0.00 0.00 280.00 160.00" xmlns="http://www.w3.org/2000/svg" xmlns:xlink="http://www.w3.org/1999/xlink">
<g id="graph0" class="graph" transform="scale(1 1) rotate(0) translate(4 156)">
<title>Urho3D::Spriter::Folder</title>
<!-- Node1 -->
<g id="node1" class="node">
<title>Node1</title>
<g id="a_node1"><a xlink:title="Folder.">
<polygon fill="#999999" stroke="#666666" points="183.5,-19 66.5,-19 66.5,0 183.5,0 183.5,-19"/>
<text text-anchor="middle" x="125" y="-7" font-family="Roboto" font-size="10.00">Urho3D::Spriter::Folder</text>
</a>
</g>
</g>
<!-- Node2 -->
<g id="node2" class="node">
<title>Node2</title>
<g id="a_node2"><a xlink:href="class_urho3_d_1_1_string.html" target="_top" xlink:title="String class.">
<polygon fill="white" stroke="#666666" points="80,-90.5 0,-90.5 0,-71.5 80,-71.5 80,-90.5"/>
<text text-anchor="middle" x="40" y="-78.5" font-family="Roboto" font-size="10.00">Urho3D::String</text>
</a>
</g>
</g>
<!-- Node2&#45;&gt;Node1 -->
<g id="edge1" class="edge">
<title>Node2&#45;&gt;Node1</title>
<path fill="none" stroke="#9a32cd" stroke-dasharray="5,2" d="M59.33,-64.19C76.26,-50.35 100.24,-30.74 114.05,-19.45"/>
<polygon fill="#9a32cd" stroke="#9a32cd" points="57.46,-61.2 51.94,-70.24 61.89,-66.62 57.46,-61.2"/>
<text text-anchor="middle" x="106" y="-40" font-family="Roboto" font-size="10.00"> name_</text>
</g>
<!-- Node2&#45;&gt;Node2 -->
<g id="edge2" class="edge">
<title>Node2&#45;&gt;Node2</title>
<path fill="none" stroke="#9a32cd" stroke-dasharray="5,2" d="M91.74,-85.69C95.62,-84.64 98,-83.08 98,-81 98,-77.3 90.47,-75.24 80.39,-74.81"/>
<polygon fill="#9a32cd" stroke="#9a32cd" points="91.34,-82.21 81.89,-87 92.26,-89.15 91.34,-82.21"/>
<text text-anchor="middle" x="116" y="-78.5" font-family="Roboto" font-size="10.00"> EMPTY</text>
</g>
<!-- Node3 -->
<g id="node3" class="node">
<title>Node3</title>
<g id="a_node3"><a xlink:href="class_urho3_d_1_1_p_o_d_vector.html" target="_top" xlink:title=" ">
<polygon fill="white" stroke="#666666" points="272,-96 152,-96 152,-66 272,-66 272,-96"/>
<text text-anchor="start" x="160" y="-84" font-family="Roboto" font-size="10.00">Urho3D::PODVector&lt;</text>
<text text-anchor="middle" x="212" y="-73" font-family="Roboto" font-size="10.00"> Urho3D::Spriter::File * &gt;</text>
</a>
</g>
</g>
<!-- Node3&#45;&gt;Node1 -->
<g id="edge3" class="edge">
<title>Node3&#45;&gt;Node1</title>
<path fill="none" stroke="#9a32cd" stroke-dasharray="5,2" d="M185.27,-58.64C168.75,-45.45 148.44,-29.22 136.11,-19.38"/>
<polygon fill="#9a32cd" stroke="#9a32cd" points="182.79,-61.15 192.79,-64.65 187.16,-55.68 182.79,-61.15"/>
<text text-anchor="middle" x="183.5" y="-40" font-family="Roboto" font-size="10.00"> files_</text>
</g>
<!-- Node4 -->
<g id="node4" class="node">
<title>Node4</title>
<g id="a_node4"><a xlink:href="class_urho3_d_1_1_vector_base.html" target="_top" xlink:title="Vector base class.">
<polygon fill="white" stroke="#666666" points="265,-152 159,-152 159,-133 265,-133 265,-152"/>
<text text-anchor="middle" x="212" y="-140" font-family="Roboto" font-size="10.00">Urho3D::VectorBase</text>
</a>
</g>
</g>
<!-- Node4&#45;&gt;Node3 -->
<g id="edge4" class="edge">
<title>Node4&#45;&gt;Node3</title>
<path fill="none" stroke="#63b8ff" d="M212,-121.46C212,-113.23 212,-103.89 212,-96.36"/>
<polygon fill="#63b8ff" stroke="#63b8ff" points="208.5,-121.21 212,-131.21 215.5,-121.21 208.5,-121.21"/>
</g>
</g>
</svg>
