<?xml version="1.0" encoding="UTF-8" standalone="no"?>
<!DOCTYPE svg PUBLIC "-//W3C//DTD SVG 1.1//EN"
 "http://www.w3.org/Graphics/SVG/1.1/DTD/svg11.dtd">
<!-- Generated by graphviz version 7.0.3 (0)
 -->
<!-- Title: Urho3D::ColorFrame Pages: 1 -->
<svg width="208pt" height="283pt"
 viewBox="0.00 0.00 208.00 283.00" xmlns="http://www.w3.org/2000/svg" xmlns:xlink="http://www.w3.org/1999/xlink">
<g id="graph0" class="graph" transform="scale(1 1) rotate(0) translate(4 279)">
<title>Urho3D::ColorFrame</title>
<!-- Node1 -->
<g id="node1" class="node">
<title>Node1</title>
<g id="a_node1"><a xlink:title=" ">
<polygon fill="#999999" stroke="#666666" points="125.5,-19 18.5,-19 18.5,0 125.5,0 125.5,-19"/>
<text text-anchor="middle" x="72" y="-7" font-family="Roboto" font-size="10.00">Urho3D::ColorFrame</text>
</a>
</g>
</g>
<!-- Node2 -->
<g id="node2" class="node">
<title>Node2</title>
<g id="a_node2"><a xlink:href="class_urho3_d_1_1_color.html" target="_top" xlink:title="RGBA color.">
<polygon fill="white" stroke="#666666" points="112,-141.5 32,-141.5 32,-122.5 112,-122.5 112,-141.5"/>
<text text-anchor="middle" x="72" y="-129.5" font-family="Roboto" font-size="10.00">Urho3D::Color</text>
</a>
</g>
</g>
<!-- Node2&#45;&gt;Node1 -->
<g id="edge1" class="edge">
<title>Node2&#45;&gt;Node1</title>
<path fill="none" stroke="#9a32cd" stroke-dasharray="5,2" d="M72,-111.05C72,-84.49 72,-38.66 72,-19.41"/>
<polygon fill="#9a32cd" stroke="#9a32cd" points="68.5,-110.82 72,-120.82 75.5,-110.82 68.5,-110.82"/>
<text text-anchor="middle" x="87.5" y="-40" font-family="Roboto" font-size="10.00"> color_</text>
</g>
<!-- Node2&#45;&gt;Node2 -->
<g id="edge3" class="edge">
<title>Node2&#45;&gt;Node2</title>
<path fill="none" stroke="#9a32cd" stroke-dasharray="5,2" d="M94.16,-146.47C111.82,-152.17 130,-147.34 130,-132 130,-113.65 103.98,-110.35 83.96,-122.11"/>
<polygon fill="#9a32cd" stroke="#9a32cd" points="95.9,-143.41 85.34,-142.51 93.03,-149.8 95.9,-143.41"/>
<text text-anchor="middle" x="165" y="-190" font-family="Roboto" font-size="10.00"> BLACK</text>
<text text-anchor="middle" x="165" y="-179" font-family="Roboto" font-size="10.00">BLUE</text>
<text text-anchor="middle" x="165" y="-168" font-family="Roboto" font-size="10.00">CYAN</text>
<text text-anchor="middle" x="165" y="-157" font-family="Roboto" font-size="10.00">GRAY</text>
<text text-anchor="middle" x="165" y="-146" font-family="Roboto" font-size="10.00">GREEN</text>
<text text-anchor="middle" x="165" y="-135" font-family="Roboto" font-size="10.00">MAGENTA</text>
<text text-anchor="middle" x="165" y="-124" font-family="Roboto" font-size="10.00">RED</text>
<text text-anchor="start" x="130" y="-113" font-family="Roboto" font-size="10.00">TRANSPARENT</text>
<text text-anchor="middle" x="165" y="-102" font-family="Roboto" font-size="10.00">_BLACK</text>
<text text-anchor="middle" x="165" y="-91" font-family="Roboto" font-size="10.00">WHITE</text>
<text text-anchor="middle" x="165" y="-80" font-family="Roboto" font-size="10.00">YELLOW</text>
<text text-anchor="middle" x="165" y="-69" font-family="Roboto" font-size="10.00">...</text>
</g>
<!-- Node3 -->
<g id="node3" class="node">
<title>Node3</title>
<g id="a_node3"><a xlink:href="struct_urho3_d_1_1_color_1_1_channel_mask.html" target="_top" xlink:title="Mask describing color channels.">
<polygon fill="white" stroke="#666666" points="144,-275 0,-275 0,-256 144,-256 144,-275"/>
<text text-anchor="middle" x="72" y="-263" font-family="Roboto" font-size="10.00">Urho3D::Color::ChannelMask</text>
</a>
</g>
</g>
<!-- Node3&#45;&gt;Node2 -->
<g id="edge2" class="edge">
<title>Node3&#45;&gt;Node2</title>
<path fill="none" stroke="#9a32cd" stroke-dasharray="5,2" d="M72,-244.74C72,-215.72 72,-162.75 72,-141.83"/>
<polygon fill="#9a32cd" stroke="#9a32cd" points="68.5,-244.36 72,-254.36 75.5,-244.36 68.5,-244.36"/>
<text text-anchor="middle" x="86" y="-230" font-family="Roboto" font-size="10.00"> ABGR</text>
<text text-anchor="middle" x="86" y="-219" font-family="Roboto" font-size="10.00">ARGB</text>
</g>
</g>
</svg>
