<?xml version="1.0" encoding="UTF-8" standalone="no"?>
<!DOCTYPE svg PUBLIC "-//W3C//DTD SVG 1.1//EN"
 "http://www.w3.org/Graphics/SVG/1.1/DTD/svg11.dtd">
<!-- Generated by graphviz version 7.0.3 (0)
 -->
<!-- Title: Urho3D::BatchQueue Pages: 1 -->
<svg width="927pt" height="437pt"
 viewBox="0.00 0.00 927.00 437.00" xmlns="http://www.w3.org/2000/svg" xmlns:xlink="http://www.w3.org/1999/xlink">
<g id="graph0" class="graph" transform="scale(1 1) rotate(0) translate(4 433)">
<title>Urho3D::BatchQueue</title>
<!-- Node1 -->
<g id="node1" class="node">
<title>Node1</title>
<g id="a_node1"><a xlink:title="Queue that contains both instanced and non&#45;instanced draw calls.">
<polygon fill="#999999" stroke="#666666" points="919,-225 812,-225 812,-206 919,-206 919,-225"/>
<text text-anchor="middle" x="865.5" y="-213" font-family="Roboto" font-size="10.00">Urho3D::BatchQueue</text>
</a>
</g>
</g>
<!-- Node2 -->
<g id="node2" class="node">
<title>Node2</title>
<g id="a_node2"><a xlink:href="class_urho3_d_1_1_hash_map.html" target="_top" xlink:title=" ">
<polygon fill="white" stroke="#666666" points="674,-414 535,-414 535,-373 674,-373 674,-414"/>
<text text-anchor="start" x="543" y="-402" font-family="Roboto" font-size="10.00">Urho3D::HashMap&lt; Urho3D</text>
<text text-anchor="start" x="543" y="-391" font-family="Roboto" font-size="10.00">::BatchGroupKey, Urho3D</text>
<text text-anchor="middle" x="604.5" y="-380" font-family="Roboto" font-size="10.00">::BatchGroup &gt;</text>
</a>
</g>
</g>
<!-- Node2&#45;&gt;Node1 -->
<g id="edge1" class="edge">
<title>Node2&#45;&gt;Node1</title>
<path fill="none" stroke="#9a32cd" stroke-dasharray="5,2" d="M685.25,-388.25C721.51,-382.41 763.11,-370.51 794,-346.5 835.8,-314.01 855.86,-249.55 862.2,-225.16"/>
<polygon fill="#9a32cd" stroke="#9a32cd" points="685.07,-384.74 675.68,-389.65 686.09,-391.66 685.07,-384.74"/>
<text text-anchor="middle" x="745" y="-388.5" font-family="Roboto" font-size="10.00"> batchGroups_</text>
</g>
<!-- Node3 -->
<g id="node3" class="node">
<title>Node3</title>
<g id="a_node3"><a xlink:href="class_urho3_d_1_1_hash_base.html" target="_top" xlink:title="Hash set/map base class.">
<polygon fill="white" stroke="#666666" points="491,-349 391,-349 391,-330 491,-330 491,-349"/>
<text text-anchor="middle" x="441" y="-337" font-family="Roboto" font-size="10.00">Urho3D::HashBase</text>
</a>
</g>
</g>
<!-- Node3&#45;&gt;Node2 -->
<g id="edge2" class="edge">
<title>Node3&#45;&gt;Node2</title>
<path fill="none" stroke="#63b8ff" d="M482.42,-353.02C500.12,-358.93 521.29,-366.01 540.95,-372.58"/>
<polygon fill="#63b8ff" stroke="#63b8ff" points="483.65,-349.74 473.06,-349.88 481.43,-356.37 483.65,-349.74"/>
</g>
<!-- Node7 -->
<g id="node7" class="node">
<title>Node7</title>
<g id="a_node7"><a xlink:href="class_urho3_d_1_1_hash_map.html" target="_top" xlink:title=" ">
<polygon fill="white" stroke="#666666" points="678,-354.5 531,-354.5 531,-324.5 678,-324.5 678,-354.5"/>
<text text-anchor="start" x="539" y="-342.5" font-family="Roboto" font-size="10.00">Urho3D::HashMap&lt; unsigned,</text>
<text text-anchor="middle" x="604.5" y="-331.5" font-family="Roboto" font-size="10.00"> unsigned &gt;</text>
</a>
</g>
</g>
<!-- Node3&#45;&gt;Node7 -->
<g id="edge10" class="edge">
<title>Node3&#45;&gt;Node7</title>
<path fill="none" stroke="#63b8ff" d="M502.68,-339.5C511.82,-339.5 521.32,-339.5 530.69,-339.5"/>
<polygon fill="#63b8ff" stroke="#63b8ff" points="502.85,-336 492.85,-339.5 502.85,-343 502.85,-336"/>
</g>
<!-- Node8 -->
<g id="node8" class="node">
<title>Node8</title>
<g id="a_node8"><a xlink:href="class_urho3_d_1_1_hash_map.html" target="_top" xlink:title=" ">
<polygon fill="white" stroke="#666666" points="677,-306.5 532,-306.5 532,-276.5 677,-276.5 677,-306.5"/>
<text text-anchor="start" x="540" y="-294.5" font-family="Roboto" font-size="10.00">Urho3D::HashMap&lt; unsigned</text>
<text text-anchor="middle" x="604.5" y="-283.5" font-family="Roboto" font-size="10.00"> short, unsigned short &gt;</text>
</a>
</g>
</g>
<!-- Node3&#45;&gt;Node8 -->
<g id="edge12" class="edge">
<title>Node3&#45;&gt;Node8</title>
<path fill="none" stroke="#63b8ff" d="M486.26,-326.35C506.48,-320.34 530.57,-313.18 551.63,-306.92"/>
<polygon fill="#63b8ff" stroke="#63b8ff" points="485.5,-322.92 476.91,-329.12 487.5,-329.63 485.5,-322.92"/>
</g>
<!-- Node4 -->
<g id="node4" class="node">
<title>Node4</title>
<g id="a_node4"><a xlink:href="struct_urho3_d_1_1_hash_node_base.html" target="_top" xlink:title="Hash set/map node base class.">
<polygon fill="white" stroke="#666666" points="306,-378 181,-378 181,-359 306,-359 306,-378"/>
<text text-anchor="middle" x="243.5" y="-366" font-family="Roboto" font-size="10.00">Urho3D::HashNodeBase</text>
</a>
</g>
</g>
<!-- Node4&#45;&gt;Node3 -->
<g id="edge3" class="edge">
<title>Node4&#45;&gt;Node3</title>
<path fill="none" stroke="#9a32cd" stroke-dasharray="5,2" d="M317.72,-357.64C342.04,-354.03 368.52,-350.1 390.6,-346.83"/>
<polygon fill="#9a32cd" stroke="#9a32cd" points="317.23,-354.17 307.85,-359.1 318.26,-361.1 317.23,-354.17"/>
<text text-anchor="middle" x="347" y="-381.5" font-family="Roboto" font-size="10.00"> head_</text>
<text text-anchor="middle" x="347" y="-370.5" font-family="Roboto" font-size="10.00">ptrs_</text>
<text text-anchor="middle" x="347" y="-359.5" font-family="Roboto" font-size="10.00">tail_</text>
</g>
<!-- Node4&#45;&gt;Node4 -->
<g id="edge4" class="edge">
<title>Node4&#45;&gt;Node4</title>
<path fill="none" stroke="#9a32cd" stroke-dasharray="5,2" d="M226.99,-389.43C229.06,-393.29 234.56,-396 243.5,-396 259.85,-396 264.7,-386.94 258.06,-378.37"/>
<polygon fill="#9a32cd" stroke="#9a32cd" points="230.39,-390.31 228.68,-379.86 223.5,-389.1 230.39,-390.31"/>
<text text-anchor="middle" x="243.5" y="-421" font-family="Roboto" font-size="10.00"> down_</text>
<text text-anchor="middle" x="243.5" y="-410" font-family="Roboto" font-size="10.00">next_</text>
<text text-anchor="middle" x="243.5" y="-399" font-family="Roboto" font-size="10.00">prev_</text>
</g>
<!-- Node5 -->
<g id="node5" class="node">
<title>Node5</title>
<g id="a_node5"><a xlink:href="struct_urho3_d_1_1_allocator_block.html" target="_top" xlink:title="Allocator memory block.">
<polygon fill="white" stroke="#666666" points="303.5,-312 183.5,-312 183.5,-293 303.5,-293 303.5,-312"/>
<text text-anchor="middle" x="243.5" y="-300" font-family="Roboto" font-size="10.00">Urho3D::AllocatorBlock</text>
</a>
</g>
</g>
<!-- Node5&#45;&gt;Node3 -->
<g id="edge5" class="edge">
<title>Node5&#45;&gt;Node3</title>
<path fill="none" stroke="#9a32cd" stroke-dasharray="5,2" d="M308.34,-314.58C335.07,-319.64 365.66,-325.43 390.62,-330.15"/>
<polygon fill="#9a32cd" stroke="#9a32cd" points="309.11,-311.17 298.63,-312.75 307.81,-318.04 309.11,-311.17"/>
<text text-anchor="middle" x="347" y="-327.5" font-family="Roboto" font-size="10.00"> allocator_</text>
</g>
<!-- Node5&#45;&gt;Node5 -->
<g id="edge8" class="edge">
<title>Node5&#45;&gt;Node5</title>
<path fill="none" stroke="#9a32cd" stroke-dasharray="5,2" d="M226.99,-323.43C229.06,-327.29 234.56,-330 243.5,-330 259.85,-330 264.7,-320.94 258.06,-312.37"/>
<polygon fill="#9a32cd" stroke="#9a32cd" points="230.39,-324.31 228.68,-313.86 223.5,-323.1 230.39,-324.31"/>
<text text-anchor="middle" x="243.5" y="-333" font-family="Roboto" font-size="10.00"> next_</text>
</g>
<!-- Node6 -->
<g id="node6" class="node">
<title>Node6</title>
<g id="a_node6"><a xlink:href="struct_urho3_d_1_1_allocator_node.html" target="_top" xlink:title="Allocator node.">
<polygon fill="white" stroke="#666666" points="120,-312 0,-312 0,-293 120,-293 120,-312"/>
<text text-anchor="middle" x="60" y="-300" font-family="Roboto" font-size="10.00">Urho3D::AllocatorNode</text>
</a>
</g>
</g>
<!-- Node6&#45;&gt;Node5 -->
<g id="edge6" class="edge">
<title>Node6&#45;&gt;Node5</title>
<path fill="none" stroke="#9a32cd" stroke-dasharray="5,2" d="M131.5,-302.5C148.6,-302.5 166.72,-302.5 183.25,-302.5"/>
<polygon fill="#9a32cd" stroke="#9a32cd" points="131.94,-299 121.94,-302.5 131.94,-306 131.94,-299"/>
<text text-anchor="middle" x="150.5" y="-305.5" font-family="Roboto" font-size="10.00"> free_</text>
</g>
<!-- Node6&#45;&gt;Node6 -->
<g id="edge7" class="edge">
<title>Node6&#45;&gt;Node6</title>
<path fill="none" stroke="#9a32cd" stroke-dasharray="5,2" d="M43.94,-323.43C45.95,-327.29 51.3,-330 60,-330 75.91,-330 80.63,-320.94 74.17,-312.37"/>
<polygon fill="#9a32cd" stroke="#9a32cd" points="47.34,-324.31 45.58,-313.86 40.44,-323.13 47.34,-324.31"/>
<text text-anchor="middle" x="60" y="-333" font-family="Roboto" font-size="10.00"> next_</text>
</g>
<!-- Node7&#45;&gt;Node1 -->
<g id="edge9" class="edge">
<title>Node7&#45;&gt;Node1</title>
<path fill="none" stroke="#9a32cd" stroke-dasharray="5,2" d="M689.1,-334.34C723.52,-329.24 762.6,-319.37 794,-300.5 825.55,-281.54 849.43,-243.21 859.4,-225.23"/>
<polygon fill="#9a32cd" stroke="#9a32cd" points="689.04,-330.82 679.6,-335.63 689.98,-337.75 689.04,-330.82"/>
<text text-anchor="middle" x="745" y="-334.5" font-family="Roboto" font-size="10.00"> shaderRemapping_</text>
</g>
<!-- Node8&#45;&gt;Node1 -->
<g id="edge11" class="edge">
<title>Node8&#45;&gt;Node1</title>
<path fill="none" stroke="#9a32cd" stroke-dasharray="5,2" d="M688.3,-276.6C721.59,-269.59 760.06,-260.16 794,-248.5 812.28,-242.22 832.13,-232.66 846.1,-225.44"/>
<polygon fill="#9a32cd" stroke="#9a32cd" points="687.79,-273.13 678.7,-278.58 689.2,-279.99 687.79,-273.13"/>
<text text-anchor="middle" x="745" y="-288.5" font-family="Roboto" font-size="10.00"> geometryRemapping_</text>
<text text-anchor="middle" x="745" y="-277.5" font-family="Roboto" font-size="10.00">materialRemapping_</text>
</g>
<!-- Node9 -->
<g id="node9" class="node">
<title>Node9</title>
<g id="a_node9"><a xlink:href="class_urho3_d_1_1_p_o_d_vector.html" target="_top" xlink:title=" ">
<polygon fill="white" stroke="#666666" points="659,-258.5 550,-258.5 550,-228.5 659,-228.5 659,-258.5"/>
<text text-anchor="start" x="558" y="-246.5" font-family="Roboto" font-size="10.00">Urho3D::PODVector&lt;</text>
<text text-anchor="middle" x="604.5" y="-235.5" font-family="Roboto" font-size="10.00"> Urho3D::Batch &gt;</text>
</a>
</g>
</g>
<!-- Node9&#45;&gt;Node1 -->
<g id="edge13" class="edge">
<title>Node9&#45;&gt;Node1</title>
<path fill="none" stroke="#9a32cd" stroke-dasharray="5,2" d="M670.85,-236.44C714.51,-231.72 771.18,-225.59 811.92,-221.18"/>
<polygon fill="#9a32cd" stroke="#9a32cd" points="670.55,-232.95 660.98,-237.5 671.3,-239.91 670.55,-232.95"/>
<text text-anchor="middle" x="745" y="-236.5" font-family="Roboto" font-size="10.00"> batches_</text>
</g>
<!-- Node10 -->
<g id="node10" class="node">
<title>Node10</title>
<g id="a_node10"><a xlink:href="class_urho3_d_1_1_vector_base.html" target="_top" xlink:title="Vector base class.">
<polygon fill="white" stroke="#666666" points="494,-205 388,-205 388,-186 494,-186 494,-205"/>
<text text-anchor="middle" x="441" y="-193" font-family="Roboto" font-size="10.00">Urho3D::VectorBase</text>
</a>
</g>
</g>
<!-- Node10&#45;&gt;Node9 -->
<g id="edge14" class="edge">
<title>Node10&#45;&gt;Node9</title>
<path fill="none" stroke="#63b8ff" d="M486.26,-208.65C506.48,-214.66 530.57,-221.82 551.63,-228.08"/>
<polygon fill="#63b8ff" stroke="#63b8ff" points="487.5,-205.37 476.91,-205.88 485.5,-212.08 487.5,-205.37"/>
</g>
<!-- Node11 -->
<g id="node11" class="node">
<title>Node11</title>
<g id="a_node11"><a xlink:href="class_urho3_d_1_1_p_o_d_vector.html" target="_top" xlink:title=" ">
<polygon fill="white" stroke="#666666" points="659,-210.5 550,-210.5 550,-180.5 659,-180.5 659,-210.5"/>
<text text-anchor="start" x="558" y="-198.5" font-family="Roboto" font-size="10.00">Urho3D::PODVector&lt;</text>
<text text-anchor="middle" x="604.5" y="-187.5" font-family="Roboto" font-size="10.00"> Urho3D::Batch * &gt;</text>
</a>
</g>
</g>
<!-- Node10&#45;&gt;Node11 -->
<g id="edge16" class="edge">
<title>Node10&#45;&gt;Node11</title>
<path fill="none" stroke="#63b8ff" d="M505.86,-195.5C520.37,-195.5 535.63,-195.5 549.67,-195.5"/>
<polygon fill="#63b8ff" stroke="#63b8ff" points="505.95,-192 495.95,-195.5 505.95,-199 505.95,-192"/>
</g>
<!-- Node12 -->
<g id="node12" class="node">
<title>Node12</title>
<g id="a_node12"><a xlink:href="class_urho3_d_1_1_p_o_d_vector.html" target="_top" xlink:title=" ">
<polygon fill="white" stroke="#666666" points="665.5,-162.5 543.5,-162.5 543.5,-132.5 665.5,-132.5 665.5,-162.5"/>
<text text-anchor="start" x="551.5" y="-150.5" font-family="Roboto" font-size="10.00">Urho3D::PODVector&lt;</text>
<text text-anchor="middle" x="604.5" y="-139.5" font-family="Roboto" font-size="10.00"> Urho3D::BatchGroup * &gt;</text>
</a>
</g>
</g>
<!-- Node10&#45;&gt;Node12 -->
<g id="edge18" class="edge">
<title>Node10&#45;&gt;Node12</title>
<path fill="none" stroke="#63b8ff" d="M486.26,-182.35C506.48,-176.34 530.57,-169.18 551.63,-162.92"/>
<polygon fill="#63b8ff" stroke="#63b8ff" points="485.5,-178.92 476.91,-185.12 487.5,-185.63 485.5,-178.92"/>
</g>
<!-- Node11&#45;&gt;Node1 -->
<g id="edge15" class="edge">
<title>Node11&#45;&gt;Node1</title>
<path fill="none" stroke="#9a32cd" stroke-dasharray="5,2" d="M670.64,-198.2C706.99,-199.98 753.06,-202.7 794,-206.5 799.77,-207.04 805.8,-207.68 811.8,-208.37"/>
<polygon fill="#9a32cd" stroke="#9a32cd" points="670.87,-194.7 660.71,-197.72 670.53,-201.7 670.87,-194.7"/>
<text text-anchor="middle" x="745" y="-209.5" font-family="Roboto" font-size="10.00"> sortedBatches_</text>
</g>
<!-- Node12&#45;&gt;Node1 -->
<g id="edge17" class="edge">
<title>Node12&#45;&gt;Node1</title>
<path fill="none" stroke="#9a32cd" stroke-dasharray="5,2" d="M677.04,-157.72C712.66,-163.77 756.1,-172.61 794,-184.5 811.86,-190.1 831.27,-198.85 845.19,-205.63"/>
<polygon fill="#9a32cd" stroke="#9a32cd" points="677.7,-154.28 667.26,-156.1 676.56,-161.19 677.7,-154.28"/>
<text text-anchor="middle" x="745" y="-187.5" font-family="Roboto" font-size="10.00"> sortedBatchGroups_</text>
</g>
<!-- Node13 -->
<g id="node13" class="node">
<title>Node13</title>
<g id="a_node13"><a xlink:href="class_urho3_d_1_1_string.html" target="_top" xlink:title="String class.">
<polygon fill="white" stroke="#666666" points="644.5,-85 564.5,-85 564.5,-66 644.5,-66 644.5,-85"/>
<text text-anchor="middle" x="604.5" y="-73" font-family="Roboto" font-size="10.00">Urho3D::String</text>
</a>
</g>
</g>
<!-- Node13&#45;&gt;Node1 -->
<g id="edge19" class="edge">
<title>Node13&#45;&gt;Node1</title>
<path fill="none" stroke="#9a32cd" stroke-dasharray="5,2" d="M655.72,-83.43C695.68,-91.5 751.72,-106.86 794,-134.5 823.49,-153.78 847.86,-188.74 858.6,-205.72"/>
<polygon fill="#9a32cd" stroke="#9a32cd" points="656.61,-80.04 646.13,-81.58 655.29,-86.91 656.61,-80.04"/>
<text text-anchor="middle" x="745" y="-148.5" font-family="Roboto" font-size="10.00"> psExtraDefines_</text>
<text text-anchor="middle" x="745" y="-137.5" font-family="Roboto" font-size="10.00">vsExtraDefines_</text>
</g>
<!-- Node13&#45;&gt;Node13 -->
<g id="edge20" class="edge">
<title>Node13&#45;&gt;Node13</title>
<path fill="none" stroke="#9a32cd" stroke-dasharray="5,2" d="M588.17,-96.43C590.21,-100.29 595.66,-103 604.5,-103 620.67,-103 625.47,-93.94 618.9,-85.37"/>
<polygon fill="#9a32cd" stroke="#9a32cd" points="591.57,-97.31 589.84,-86.86 584.67,-96.11 591.57,-97.31"/>
<text text-anchor="middle" x="604.5" y="-106" font-family="Roboto" font-size="10.00"> EMPTY</text>
</g>
<!-- Node14 -->
<g id="node14" class="node">
<title>Node14</title>
<g id="a_node14"><a xlink:href="class_urho3_d_1_1_string_hash.html" target="_top" xlink:title="32&#45;bit hash value for a string.">
<polygon fill="white" stroke="#666666" points="656.5,-19 552.5,-19 552.5,0 656.5,0 656.5,-19"/>
<text text-anchor="middle" x="604.5" y="-7" font-family="Roboto" font-size="10.00">Urho3D::StringHash</text>
</a>
</g>
</g>
<!-- Node14&#45;&gt;Node1 -->
<g id="edge21" class="edge">
<title>Node14&#45;&gt;Node1</title>
<path fill="none" stroke="#9a32cd" stroke-dasharray="5,2" d="M667.86,-11.75C707.95,-16.22 758.9,-27.93 794,-57.5 842.01,-97.95 858.62,-177.66 863.1,-205.57"/>
<polygon fill="#9a32cd" stroke="#9a32cd" points="668.4,-8.29 658.1,-10.8 667.72,-15.26 668.4,-8.29"/>
<text text-anchor="start" x="698" y="-82.5" font-family="Roboto" font-size="10.00"> psExtraDefinesHash</text>
<text text-anchor="middle" x="745" y="-71.5" font-family="Roboto" font-size="10.00">_</text>
<text text-anchor="middle" x="745" y="-60.5" font-family="Roboto" font-size="10.00">vsExtraDefinesHash_</text>
</g>
<!-- Node14&#45;&gt;Node14 -->
<g id="edge22" class="edge">
<title>Node14&#45;&gt;Node14</title>
<path fill="none" stroke="#9a32cd" stroke-dasharray="5,2" d="M588.17,-30.43C590.21,-34.29 595.66,-37 604.5,-37 620.67,-37 625.47,-27.94 618.9,-19.37"/>
<polygon fill="#9a32cd" stroke="#9a32cd" points="591.57,-31.31 589.84,-20.86 584.67,-30.11 591.57,-31.31"/>
<text text-anchor="middle" x="604.5" y="-40" font-family="Roboto" font-size="10.00"> ZERO</text>
</g>
</g>
</svg>
