<?xml version="1.0" encoding="UTF-8" standalone="no"?>
<!DOCTYPE svg PUBLIC "-//W3C//DTD SVG 1.1//EN"
 "http://www.w3.org/Graphics/SVG/1.1/DTD/svg11.dtd">
<!-- Generated by graphviz version 7.0.3 (0)
 -->
<!-- Title: Urho3D::BatchGroup Pages: 1 -->
<svg width="1123pt" height="979pt"
 viewBox="0.00 0.00 1123.00 978.80" xmlns="http://www.w3.org/2000/svg" xmlns:xlink="http://www.w3.org/1999/xlink">
<g id="graph0" class="graph" transform="scale(1 1) rotate(0) translate(4 974.8)">
<title>Urho3D::BatchGroup</title>
<!-- Node1 -->
<g id="node1" class="node">
<title>Node1</title>
<g id="a_node1"><a xlink:title="Instanced 3D geometry draw call.">
<polygon fill="#999999" stroke="#666666" points="1115,-686.52 1009,-686.52 1009,-667.52 1115,-667.52 1115,-686.52"/>
<text text-anchor="middle" x="1062" y="-674.52" font-family="Roboto" font-size="10.00">Urho3D::BatchGroup</text>
</a>
</g>
</g>
<!-- Node2 -->
<g id="node2" class="node">
<title>Node2</title>
<g id="a_node2"><a xlink:href="struct_urho3_d_1_1_batch.html" target="_top" xlink:title="Queued 3D geometry draw call.">
<polygon fill="white" stroke="#666666" points="972,-603.52 892,-603.52 892,-584.52 972,-584.52 972,-603.52"/>
<text text-anchor="middle" x="932" y="-591.52" font-family="Roboto" font-size="10.00">Urho3D::Batch</text>
</a>
</g>
</g>
<!-- Node2&#45;&gt;Node1 -->
<g id="edge1" class="edge">
<title>Node2&#45;&gt;Node1</title>
<path fill="none" stroke="#63b8ff" d="M957.75,-610.06C983.84,-626.98 1024.1,-653.09 1045.83,-667.18"/>
<polygon fill="#63b8ff" stroke="#63b8ff" points="959.75,-607.19 949.46,-604.69 955.94,-613.06 959.75,-607.19"/>
</g>
<!-- Node3 -->
<g id="node3" class="node">
<title>Node3</title>
<g id="a_node3"><a xlink:href="class_urho3_d_1_1_geometry.html" target="_top" xlink:title="Defines one or more vertex buffers, an index buffer and a draw range.">
<polygon fill="white" stroke="#666666" points="719,-819.52 621,-819.52 621,-800.52 719,-800.52 719,-819.52"/>
<text text-anchor="middle" x="670" y="-807.52" font-family="Roboto" font-size="10.00">Urho3D::Geometry</text>
</a>
</g>
</g>
<!-- Node3&#45;&gt;Node2 -->
<g id="edge2" class="edge">
<title>Node3&#45;&gt;Node2</title>
<path fill="none" stroke="#9a32cd" stroke-dasharray="5,2" d="M704.62,-795.51C747.76,-775.65 823.09,-736.6 874,-686.02 899.46,-660.72 918.66,-621.96 926.77,-603.91"/>
<polygon fill="#9a32cd" stroke="#9a32cd" points="703.43,-792.21 695.76,-799.52 706.31,-798.59 703.43,-792.21"/>
<text text-anchor="middle" x="813" y="-773.02" font-family="Roboto" font-size="10.00"> geometry_</text>
</g>
<!-- Node4 -->
<g id="node4" class="node">
<title>Node4</title>
<g id="a_node4"><a xlink:href="class_urho3_d_1_1_object.html" target="_top" xlink:title=" ">
<polygon fill="#fff0f0" stroke="red" points="94.5,-675.52 11.5,-675.52 11.5,-656.52 94.5,-656.52 94.5,-675.52"/>
<text text-anchor="middle" x="53" y="-663.52" font-family="Roboto" font-size="10.00">Urho3D::Object</text>
</a>
</g>
</g>
<!-- Node4&#45;&gt;Node3 -->
<g id="edge3" class="edge">
<title>Node4&#45;&gt;Node3</title>
<path fill="none" stroke="#63b8ff" d="M94.65,-679.41C136.14,-692.75 202.56,-713.18 261,-727.02 404.71,-761.05 444.32,-751.88 588,-786.02 604.84,-790.02 623.36,-795.43 638.44,-800.1"/>
<polygon fill="#63b8ff" stroke="#63b8ff" points="95.93,-676.15 85.33,-676.4 93.77,-682.81 95.93,-676.15"/>
</g>
<!-- Node46 -->
<g id="node11" class="node">
<title>Node46</title>
<g id="a_node11"><a xlink:href="class_urho3_d_1_1_resource.html" target="_top" xlink:title=" ">
<polygon fill="#fff0f0" stroke="red" points="401,-329.52 305,-329.52 305,-310.52 401,-310.52 401,-329.52"/>
<text text-anchor="middle" x="353" y="-317.52" font-family="Roboto" font-size="10.00">Urho3D::Resource</text>
</a>
</g>
</g>
<!-- Node4&#45;&gt;Node46 -->
<g id="edge12" class="edge">
<title>Node4&#45;&gt;Node46</title>
<path fill="none" stroke="#63b8ff" d="M60.47,-645.46C80.06,-586.83 144.64,-417.89 261,-338.02 273.75,-329.27 289.73,-324.55 304.73,-322.07"/>
<polygon fill="#63b8ff" stroke="#63b8ff" points="57.2,-644.19 57.44,-654.79 63.86,-646.36 57.2,-644.19"/>
</g>
<!-- Node26 -->
<g id="node5" class="node">
<title>Node26</title>
<g id="a_node5"><a xlink:href="class_urho3_d_1_1_vector.html" target="_top" xlink:title=" ">
<polygon fill="white" stroke="#666666" points="444,-900.02 262,-900.02 262,-870.02 444,-870.02 444,-900.02"/>
<text text-anchor="start" x="270" y="-888.02" font-family="Roboto" font-size="10.00">Urho3D::Vector&lt; Urho3D</text>
<text text-anchor="middle" x="353" y="-877.02" font-family="Roboto" font-size="10.00">::SharedPtr&lt; Urho3D::VertexBuffer &gt; &gt;</text>
</a>
</g>
</g>
<!-- Node26&#45;&gt;Node3 -->
<g id="edge4" class="edge">
<title>Node26&#45;&gt;Node3</title>
<path fill="none" stroke="#9a32cd" stroke-dasharray="5,2" d="M455.62,-870.76C497.1,-863.81 545.26,-854.26 588,-842.02 608.64,-836.1 631.3,-826.9 647.4,-819.88"/>
<polygon fill="#9a32cd" stroke="#9a32cd" points="455.19,-867.29 445.89,-872.37 456.32,-874.2 455.19,-867.29"/>
<text text-anchor="middle" x="525.5" y="-871.02" font-family="Roboto" font-size="10.00"> vertexBuffers_</text>
</g>
<!-- Node18 -->
<g id="node6" class="node">
<title>Node18</title>
<g id="a_node6"><a xlink:href="class_urho3_d_1_1_vector_base.html" target="_top" xlink:title="Vector base class.">
<polygon fill="white" stroke="#666666" points="106,-870.52 0,-870.52 0,-851.52 106,-851.52 106,-870.52"/>
<text text-anchor="middle" x="53" y="-858.52" font-family="Roboto" font-size="10.00">Urho3D::VectorBase</text>
</a>
</g>
</g>
<!-- Node18&#45;&gt;Node26 -->
<g id="edge5" class="edge">
<title>Node18&#45;&gt;Node26</title>
<path fill="none" stroke="#63b8ff" d="M117.71,-866.15C159.68,-869.53 215.27,-874 261.77,-877.75"/>
<polygon fill="#63b8ff" stroke="#63b8ff" points="118.01,-862.66 107.76,-865.35 117.44,-869.64 118.01,-862.66"/>
</g>
<!-- Node63 -->
<g id="node8" class="node">
<title>Node63</title>
<g id="a_node8"><a xlink:href="class_urho3_d_1_1_p_o_d_vector.html" target="_top" xlink:title=" ">
<polygon fill="white" stroke="#666666" points="417.5,-852.02 288.5,-852.02 288.5,-822.02 417.5,-822.02 417.5,-852.02"/>
<text text-anchor="start" x="296.5" y="-840.02" font-family="Roboto" font-size="10.00">Urho3D::PODVector&lt;</text>
<text text-anchor="middle" x="353" y="-829.02" font-family="Roboto" font-size="10.00"> Urho3D::VertexElement &gt;</text>
</a>
</g>
</g>
<!-- Node18&#45;&gt;Node63 -->
<g id="edge8" class="edge">
<title>Node18&#45;&gt;Node63</title>
<path fill="none" stroke="#63b8ff" d="M117.63,-855.89C167.91,-851.84 237.78,-846.21 288.13,-842.16"/>
<polygon fill="#63b8ff" stroke="#63b8ff" points="117.44,-852.39 107.76,-856.69 118.01,-859.37 117.44,-852.39"/>
</g>
<!-- Node85 -->
<g id="node13" class="node">
<title>Node85</title>
<g id="a_node13"><a xlink:href="class_urho3_d_1_1_vector.html" target="_top" xlink:title=" ">
<polygon fill="white" stroke="#666666" points="415.5,-640.02 290.5,-640.02 290.5,-610.02 415.5,-610.02 415.5,-640.02"/>
<text text-anchor="start" x="298.5" y="-628.02" font-family="Roboto" font-size="10.00">Urho3D::Vector&lt; Urho3D</text>
<text text-anchor="middle" x="353" y="-617.02" font-family="Roboto" font-size="10.00">::TechniqueEntry &gt;</text>
</a>
</g>
</g>
<!-- Node18&#45;&gt;Node85 -->
<g id="edge16" class="edge">
<title>Node18&#45;&gt;Node85</title>
<path fill="none" stroke="#63b8ff" d="M67.07,-842.07C96.62,-800.69 172.91,-701.81 261,-650.02 270.04,-644.7 280.25,-640.48 290.47,-637.14"/>
<polygon fill="#63b8ff" stroke="#63b8ff" points="64.35,-839.86 61.45,-850.05 70.07,-843.88 64.35,-839.86"/>
</g>
<!-- Node180 -->
<g id="node25" class="node">
<title>Node180</title>
<g id="a_node25"><a xlink:href="class_urho3_d_1_1_p_o_d_vector.html" target="_top" xlink:title=" ">
<polygon fill="white" stroke="#666666" points="874,-905.02 752,-905.02 752,-875.02 874,-875.02 874,-905.02"/>
<text text-anchor="start" x="760" y="-893.02" font-family="Roboto" font-size="10.00">Urho3D::PODVector&lt;</text>
<text text-anchor="middle" x="813" y="-882.02" font-family="Roboto" font-size="10.00"> Urho3D::InstanceData &gt;</text>
</a>
</g>
</g>
<!-- Node18&#45;&gt;Node180 -->
<g id="edge34" class="edge">
<title>Node18&#45;&gt;Node180</title>
<path fill="none" stroke="#63b8ff" d="M78.87,-876.94C116.51,-899.98 190.99,-941.57 261,-957.02 446.62,-997.96 673.31,-936.03 767.59,-905.45"/>
<polygon fill="#63b8ff" stroke="#63b8ff" points="80.89,-874.07 70.55,-871.76 77.2,-880.02 80.89,-874.07"/>
</g>
<!-- Node27 -->
<g id="node7" class="node">
<title>Node27</title>
<g id="a_node7"><a xlink:href="class_urho3_d_1_1_shared_ptr.html" target="_top" xlink:title=" ">
<polygon fill="white" stroke="orangered" points="411,-804.02 295,-804.02 295,-774.02 411,-774.02 411,-804.02"/>
<text text-anchor="start" x="303" y="-792.02" font-family="Roboto" font-size="10.00">Urho3D::SharedPtr&lt;</text>
<text text-anchor="middle" x="353" y="-781.02" font-family="Roboto" font-size="10.00"> Urho3D::IndexBuffer &gt;</text>
</a>
</g>
</g>
<!-- Node27&#45;&gt;Node3 -->
<g id="edge6" class="edge">
<title>Node27&#45;&gt;Node3</title>
<path fill="none" stroke="#9a32cd" stroke-dasharray="5,2" d="M422.85,-789.11C469.55,-789.73 532.61,-791.65 588,-797.02 598.63,-798.05 609.99,-799.59 620.73,-801.26"/>
<polygon fill="#9a32cd" stroke="#9a32cd" points="422.9,-785.61 412.86,-789 422.82,-792.61 422.9,-785.61"/>
<text text-anchor="middle" x="525.5" y="-800.02" font-family="Roboto" font-size="10.00"> indexBuffer_</text>
</g>
<!-- Node63&#45;&gt;Node3 -->
<g id="edge7" class="edge">
<title>Node63&#45;&gt;Node3</title>
<path fill="none" stroke="#9a32cd" stroke-dasharray="5,2" d="M428.95,-830.59C488.4,-825.5 569.71,-818.53 620.78,-814.15"/>
<polygon fill="#9a32cd" stroke="#9a32cd" points="428.92,-827.08 419.25,-831.42 429.52,-834.06 428.92,-827.08"/>
<text text-anchor="middle" x="525.5" y="-830.02" font-family="Roboto" font-size="10.00"> rawElements_</text>
</g>
<!-- Node38 -->
<g id="node9" class="node">
<title>Node38</title>
<g id="a_node9"><a xlink:href="class_urho3_d_1_1_shared_array_ptr.html" target="_top" xlink:title=" ">
<polygon fill="white" stroke="orangered" points="414,-948.02 292,-948.02 292,-918.02 414,-918.02 414,-948.02"/>
<text text-anchor="start" x="300" y="-936.02" font-family="Roboto" font-size="10.00">Urho3D::SharedArrayPtr</text>
<text text-anchor="middle" x="353" y="-925.02" font-family="Roboto" font-size="10.00">&lt; unsigned char &gt;</text>
</a>
</g>
</g>
<!-- Node38&#45;&gt;Node3 -->
<g id="edge9" class="edge">
<title>Node38&#45;&gt;Node3</title>
<path fill="none" stroke="#9a32cd" stroke-dasharray="5,2" d="M425.32,-927.49C473.42,-921.48 537.13,-908.98 588,-883.02 619.36,-867.01 647.91,-835.72 661.18,-819.81"/>
<polygon fill="#9a32cd" stroke="#9a32cd" points="425.09,-923.99 415.57,-928.63 425.91,-930.94 425.09,-923.99"/>
<text text-anchor="middle" x="525.5" y="-935.02" font-family="Roboto" font-size="10.00"> rawIndexData_</text>
<text text-anchor="middle" x="525.5" y="-924.02" font-family="Roboto" font-size="10.00">rawVertexData_</text>
</g>
<!-- Node84 -->
<g id="node10" class="node">
<title>Node84</title>
<g id="a_node10"><a xlink:href="class_urho3_d_1_1_material.html" target="_top" xlink:title="Describes how to render 3D geometries.">
<polygon fill="#fff0f0" stroke="red" points="715.5,-500.52 624.5,-500.52 624.5,-481.52 715.5,-481.52 715.5,-500.52"/>
<text text-anchor="middle" x="670" y="-488.52" font-family="Roboto" font-size="10.00">Urho3D::Material</text>
</a>
</g>
</g>
<!-- Node84&#45;&gt;Node2 -->
<g id="edge10" class="edge">
<title>Node84&#45;&gt;Node2</title>
<path fill="none" stroke="#9a32cd" stroke-dasharray="5,2" d="M706.57,-505.11C759.9,-526.23 859.25,-565.59 905.76,-584.02"/>
<polygon fill="#9a32cd" stroke="#9a32cd" points="707.92,-501.88 697.34,-501.45 705.35,-508.39 707.92,-501.88"/>
<text text-anchor="middle" x="813" y="-572.02" font-family="Roboto" font-size="10.00"> material_</text>
</g>
<!-- Node46&#45;&gt;Node84 -->
<g id="edge11" class="edge">
<title>Node46&#45;&gt;Node84</title>
<path fill="none" stroke="#63b8ff" d="M412.79,-311.2C465.93,-306.83 542.56,-310.07 588,-355.02 623.84,-390.47 574.18,-427.91 606,-467.02 610.95,-473.1 617.62,-477.64 624.78,-481.03"/>
<polygon fill="#63b8ff" stroke="#63b8ff" points="412.63,-307.7 403.01,-312.13 413.29,-314.67 412.63,-307.7"/>
</g>
<!-- Node47 -->
<g id="node12" class="node">
<title>Node47</title>
<g id="a_node12"><a xlink:href="class_urho3_d_1_1_string.html" target="_top" xlink:title="String class.">
<polygon fill="white" stroke="#666666" points="93,-221.52 13,-221.52 13,-202.52 93,-202.52 93,-221.52"/>
<text text-anchor="middle" x="53" y="-209.52" font-family="Roboto" font-size="10.00">Urho3D::String</text>
</a>
</g>
</g>
<!-- Node47&#45;&gt;Node84 -->
<g id="edge20" class="edge">
<title>Node47&#45;&gt;Node84</title>
<path fill="none" stroke="#9a32cd" stroke-dasharray="5,2" d="M65.14,-231.67C77.61,-252.54 99.33,-285.65 124,-309.02 176.54,-358.78 193.92,-369.86 261,-397.02 338.32,-428.32 363.72,-415.26 445,-434.02 517.06,-450.65 534.25,-458.12 606,-476.02 612.65,-477.68 619.71,-479.4 626.61,-481.05"/>
<polygon fill="#9a32cd" stroke="#9a32cd" points="68.17,-229.92 60.11,-223.05 62.12,-233.45 68.17,-229.92"/>
<text text-anchor="start" x="304.5" y="-459.02" font-family="Roboto" font-size="10.00"> pixelShaderDefines</text>
<text text-anchor="middle" x="353" y="-448.02" font-family="Roboto" font-size="10.00">_</text>
<text text-anchor="middle" x="353" y="-437.02" font-family="Roboto" font-size="10.00">vertexShaderDefines_</text>
</g>
<!-- Node47&#45;&gt;Node46 -->
<g id="edge13" class="edge">
<title>Node47&#45;&gt;Node46</title>
<path fill="none" stroke="#9a32cd" stroke-dasharray="5,2" d="M83.73,-227.05C123.3,-246.54 195.88,-280.45 261,-301.02 275,-305.44 290.55,-309.12 304.77,-312.02"/>
<polygon fill="#9a32cd" stroke="#9a32cd" points="85.35,-223.95 74.83,-222.64 82.23,-230.22 85.35,-223.95"/>
<text text-anchor="middle" x="183.5" y="-297.02" font-family="Roboto" font-size="10.00"> name_</text>
</g>
<!-- Node47&#45;&gt;Node47 -->
<g id="edge14" class="edge">
<title>Node47&#45;&gt;Node47</title>
<path fill="none" stroke="#9a32cd" stroke-dasharray="5,2" d="M29.84,-232.95C32.73,-236.81 40.45,-239.52 53,-239.52 75.94,-239.52 82.75,-230.45 73.43,-221.88"/>
<polygon fill="#9a32cd" stroke="#9a32cd" points="33.21,-233.9 32.21,-223.35 26.41,-232.22 33.21,-233.9"/>
<text text-anchor="middle" x="53" y="-242.52" font-family="Roboto" font-size="10.00"> EMPTY</text>
</g>
<!-- Node177 -->
<g id="node23" class="node">
<title>Node177</title>
<g id="a_node23"><a xlink:href="class_urho3_d_1_1_pass.html" target="_top" xlink:title="Material rendering pass, which defines shaders and render state.">
<polygon fill="#fff0f0" stroke="red" points="564,-73.52 487,-73.52 487,-54.52 564,-54.52 564,-73.52"/>
<text text-anchor="middle" x="525.5" y="-61.52" font-family="Roboto" font-size="10.00">Urho3D::Pass</text>
</a>
</g>
</g>
<!-- Node47&#45;&gt;Node177 -->
<g id="edge30" class="edge">
<title>Node47&#45;&gt;Node177</title>
<path fill="none" stroke="#9a32cd" stroke-dasharray="5,2" d="M55.3,-191.13C58.92,-153.19 72.59,-73.67 124,-39.02 245.6,42.96 438.01,-26.78 502.57,-54.16"/>
<polygon fill="#9a32cd" stroke="#9a32cd" points="51.84,-190.52 54.54,-200.77 58.82,-191.08 51.84,-190.52"/>
<text text-anchor="middle" x="183.5" y="-163.02" font-family="Roboto" font-size="10.00"> name_</text>
<text text-anchor="start" x="124" y="-152.02" font-family="Roboto" font-size="10.00">pixelShaderDefineExcludes</text>
<text text-anchor="middle" x="183.5" y="-141.02" font-family="Roboto" font-size="10.00">_</text>
<text text-anchor="start" x="124" y="-130.02" font-family="Roboto" font-size="10.00">pixelShaderDefines</text>
<text text-anchor="middle" x="183.5" y="-119.02" font-family="Roboto" font-size="10.00">_</text>
<text text-anchor="start" x="124" y="-108.02" font-family="Roboto" font-size="10.00">pixelShaderName</text>
<text text-anchor="middle" x="183.5" y="-97.02" font-family="Roboto" font-size="10.00">_</text>
<text text-anchor="start" x="124" y="-86.02" font-family="Roboto" font-size="10.00">vertexShaderDefine</text>
<text text-anchor="middle" x="183.5" y="-75.02" font-family="Roboto" font-size="10.00">Excludes_</text>
<text text-anchor="start" x="124" y="-64.02" font-family="Roboto" font-size="10.00">vertexShaderDefines</text>
<text text-anchor="middle" x="183.5" y="-53.02" font-family="Roboto" font-size="10.00">_</text>
<text text-anchor="middle" x="183.5" y="-42.02" font-family="Roboto" font-size="10.00">vertexShaderName_</text>
</g>
<!-- Node43 -->
<g id="node24" class="node">
<title>Node43</title>
<g id="a_node24"><a xlink:href="class_urho3_d_1_1_shader_variation.html" target="_top" xlink:title="Vertex or pixel shader on the GPU.">
<polygon fill="#fff0f0" stroke="red" points="588,-173.52 463,-173.52 463,-154.52 588,-154.52 588,-173.52"/>
<text text-anchor="middle" x="525.5" y="-161.52" font-family="Roboto" font-size="10.00">Urho3D::ShaderVariation</text>
</a>
</g>
</g>
<!-- Node47&#45;&gt;Node43 -->
<g id="edge32" class="edge">
<title>Node47&#45;&gt;Node43</title>
<path fill="none" stroke="#9a32cd" stroke-dasharray="5,2" d="M104.36,-199.93C146.06,-190.5 207.02,-178.01 261,-172.02 329.69,-164.39 409.02,-162.97 462.54,-163.1"/>
<polygon fill="#9a32cd" stroke="#9a32cd" points="103.84,-196.46 94.87,-202.11 105.4,-203.29 103.84,-196.46"/>
<text text-anchor="middle" x="183.5" y="-232.02" font-family="Roboto" font-size="10.00"> compilerOutput_</text>
<text text-anchor="middle" x="183.5" y="-221.02" font-family="Roboto" font-size="10.00">definesClipPlane_</text>
<text text-anchor="middle" x="183.5" y="-210.02" font-family="Roboto" font-size="10.00">defines_</text>
<text text-anchor="middle" x="183.5" y="-199.02" font-family="Roboto" font-size="10.00">name_</text>
</g>
<!-- Node85&#45;&gt;Node84 -->
<g id="edge15" class="edge">
<title>Node85&#45;&gt;Node84</title>
<path fill="none" stroke="#9a32cd" stroke-dasharray="5,2" d="M427.01,-612.82C494.34,-601.48 584.42,-586.04 588,-584.02 624.36,-563.49 652.33,-520.28 663.59,-500.84"/>
<polygon fill="#9a32cd" stroke="#9a32cd" points="426.77,-609.31 417.49,-614.42 427.93,-616.21 426.77,-609.31"/>
<text text-anchor="middle" x="525.5" y="-608.02" font-family="Roboto" font-size="10.00"> techniques_</text>
</g>
<!-- Node86 -->
<g id="node14" class="node">
<title>Node86</title>
<g id="a_node14"><a xlink:href="class_urho3_d_1_1_hash_map.html" target="_top" xlink:title=" ">
<polygon fill="white" stroke="orangered" points="421.5,-388.52 284.5,-388.52 284.5,-347.52 421.5,-347.52 421.5,-388.52"/>
<text text-anchor="start" x="292.5" y="-376.52" font-family="Roboto" font-size="10.00">Urho3D::HashMap&lt; Texture</text>
<text text-anchor="start" x="292.5" y="-365.52" font-family="Roboto" font-size="10.00">Unit, Urho3D::SharedPtr</text>
<text text-anchor="middle" x="353" y="-354.52" font-family="Roboto" font-size="10.00">&lt; Urho3D::Texture &gt; &gt;</text>
</a>
</g>
</g>
<!-- Node86&#45;&gt;Node84 -->
<g id="edge17" class="edge">
<title>Node86&#45;&gt;Node84</title>
<path fill="none" stroke="#9a32cd" stroke-dasharray="5,2" d="M433.33,-358.19C483.46,-356.51 546.4,-363.37 588,-400.02 611.14,-420.4 585.33,-444.14 606,-467.02 611.49,-473.1 618.69,-477.65 626.25,-481.05"/>
<polygon fill="#9a32cd" stroke="#9a32cd" points="433.2,-354.69 423.38,-358.66 433.53,-361.69 433.2,-354.69"/>
<text text-anchor="middle" x="525.5" y="-403.02" font-family="Roboto" font-size="10.00"> textures_</text>
</g>
<!-- Node87 -->
<g id="node15" class="node">
<title>Node87</title>
<g id="a_node15"><a xlink:href="class_urho3_d_1_1_hash_map.html" target="_top" xlink:title=" ">
<polygon fill="white" stroke="orangered" points="422.5,-292.52 283.5,-292.52 283.5,-251.52 422.5,-251.52 422.5,-292.52"/>
<text text-anchor="start" x="291.5" y="-280.52" font-family="Roboto" font-size="10.00">Urho3D::HashMap&lt; Urho3D</text>
<text text-anchor="start" x="291.5" y="-269.52" font-family="Roboto" font-size="10.00">::StringHash, Urho3D::</text>
<text text-anchor="middle" x="353" y="-258.52" font-family="Roboto" font-size="10.00">MaterialShaderParameter &gt;</text>
</a>
</g>
</g>
<!-- Node87&#45;&gt;Node84 -->
<g id="edge18" class="edge">
<title>Node87&#45;&gt;Node84</title>
<path fill="none" stroke="#9a32cd" stroke-dasharray="5,2" d="M434.16,-257.04C485.12,-252.48 548.68,-256.81 588,-296.02 615.05,-323 582.7,-436.73 606,-467.02 610.71,-473.14 617.18,-477.7 624.19,-481.1"/>
<polygon fill="#9a32cd" stroke="#9a32cd" points="433.92,-253.54 424.34,-258.06 434.64,-260.5 433.92,-253.54"/>
<text text-anchor="middle" x="525.5" y="-299.02" font-family="Roboto" font-size="10.00"> shaderParameters_</text>
</g>
<!-- Node88 -->
<g id="node16" class="node">
<title>Node88</title>
<g id="a_node16"><a xlink:href="class_urho3_d_1_1_hash_map.html" target="_top" xlink:title=" ">
<polygon fill="white" stroke="orangered" points="445,-233.02 261,-233.02 261,-181.02 445,-181.02 445,-233.02"/>
<text text-anchor="start" x="269" y="-221.02" font-family="Roboto" font-size="10.00">Urho3D::HashMap&lt; Urho3D</text>
<text text-anchor="start" x="269" y="-210.02" font-family="Roboto" font-size="10.00">::StringHash, Urho3D::</text>
<text text-anchor="start" x="269" y="-199.02" font-family="Roboto" font-size="10.00">SharedPtr&lt; Urho3D::ShaderParameter</text>
<text text-anchor="middle" x="353" y="-188.02" font-family="Roboto" font-size="10.00">AnimationInfo &gt; &gt;</text>
</a>
</g>
</g>
<!-- Node88&#45;&gt;Node84 -->
<g id="edge19" class="edge">
<title>Node88&#45;&gt;Node84</title>
<path fill="none" stroke="#9a32cd" stroke-dasharray="5,2" d="M456.67,-189.79C502.98,-188.15 554.64,-195.91 588,-230.02 624.93,-267.78 574.4,-424.69 606,-467.02 610.62,-473.21 617.05,-477.8 624.04,-481.21"/>
<polygon fill="#9a32cd" stroke="#9a32cd" points="456.65,-186.29 446.85,-190.3 457.02,-193.28 456.65,-186.29"/>
<text text-anchor="start" x="463.5" y="-244.02" font-family="Roboto" font-size="10.00"> shaderParameterAnimation</text>
<text text-anchor="middle" x="525.5" y="-233.02" font-family="Roboto" font-size="10.00">Infos_</text>
</g>
<!-- Node89 -->
<g id="node17" class="node">
<title>Node89</title>
<g id="a_node17"><a xlink:href="struct_urho3_d_1_1_bias_parameters.html" target="_top" xlink:title="Depth bias parameters. Used both by lights (for shadow mapping) and materials.">
<polygon fill="white" stroke="#666666" points="415.5,-591.52 290.5,-591.52 290.5,-572.52 415.5,-572.52 415.5,-591.52"/>
<text text-anchor="middle" x="353" y="-579.52" font-family="Roboto" font-size="10.00">Urho3D::BiasParameters</text>
</a>
</g>
</g>
<!-- Node89&#45;&gt;Node84 -->
<g id="edge21" class="edge">
<title>Node89&#45;&gt;Node84</title>
<path fill="none" stroke="#9a32cd" stroke-dasharray="5,2" d="M427.03,-575.31C474.1,-569.37 536.01,-558.49 588,-539.02 613.56,-529.44 640.24,-511.93 655.71,-500.92"/>
<polygon fill="#9a32cd" stroke="#9a32cd" points="426.71,-571.82 417.2,-576.5 427.55,-578.77 426.71,-571.82"/>
<text text-anchor="middle" x="525.5" y="-572.02" font-family="Roboto" font-size="10.00"> depthBias_</text>
</g>
<!-- Node90 -->
<g id="node18" class="node">
<title>Node90</title>
<g id="a_node18"><a xlink:href="class_urho3_d_1_1_shared_ptr.html" target="_top" xlink:title=" ">
<polygon fill="white" stroke="orangered" points="405,-554.02 301,-554.02 301,-524.02 405,-524.02 405,-554.02"/>
<text text-anchor="start" x="309" y="-542.02" font-family="Roboto" font-size="10.00">Urho3D::SharedPtr&lt;</text>
<text text-anchor="middle" x="353" y="-531.02" font-family="Roboto" font-size="10.00"> Urho3D::XMLFile &gt;</text>
</a>
</g>
</g>
<!-- Node90&#45;&gt;Node84 -->
<g id="edge22" class="edge">
<title>Node90&#45;&gt;Node84</title>
<path fill="none" stroke="#9a32cd" stroke-dasharray="5,2" d="M416.49,-530.95C463.69,-524.67 530.02,-515.47 588,-506.02 599.72,-504.11 612.35,-501.86 624.07,-499.69"/>
<polygon fill="#9a32cd" stroke="#9a32cd" points="416.18,-527.46 406.72,-532.24 417.09,-534.4 416.18,-527.46"/>
<text text-anchor="middle" x="525.5" y="-527.02" font-family="Roboto" font-size="10.00"> loadXMLFile_</text>
</g>
<!-- Node91 -->
<g id="node19" class="node">
<title>Node91</title>
<g id="a_node19"><a xlink:href="class_urho3_d_1_1_shared_ptr.html" target="_top" xlink:title=" ">
<polygon fill="white" stroke="orangered" points="405.5,-506.02 300.5,-506.02 300.5,-476.02 405.5,-476.02 405.5,-506.02"/>
<text text-anchor="start" x="308.5" y="-494.02" font-family="Roboto" font-size="10.00">Urho3D::SharedPtr&lt;</text>
<text text-anchor="middle" x="353" y="-483.02" font-family="Roboto" font-size="10.00"> Urho3D::JSONFile &gt;</text>
</a>
</g>
</g>
<!-- Node91&#45;&gt;Node84 -->
<g id="edge23" class="edge">
<title>Node91&#45;&gt;Node84</title>
<path fill="none" stroke="#9a32cd" stroke-dasharray="5,2" d="M417.14,-491.02C478.56,-491.02 570.29,-491.02 624.45,-491.02"/>
<polygon fill="#9a32cd" stroke="#9a32cd" points="417.18,-487.52 407.18,-491.02 417.18,-494.52 417.18,-487.52"/>
<text text-anchor="middle" x="525.5" y="-494.02" font-family="Roboto" font-size="10.00"> loadJSONFile_</text>
</g>
<!-- Node112 -->
<g id="node20" class="node">
<title>Node112</title>
<g id="a_node20"><a xlink:href="class_urho3_d_1_1_matrix3x4.html" target="_top" xlink:title="3x4 matrix for scene node transform calculations.">
<polygon fill="white" stroke="#666666" points="402.5,-677.52 303.5,-677.52 303.5,-658.52 402.5,-658.52 402.5,-677.52"/>
<text text-anchor="middle" x="353" y="-665.52" font-family="Roboto" font-size="10.00">Urho3D::Matrix3x4</text>
</a>
</g>
</g>
<!-- Node112&#45;&gt;Node2 -->
<g id="edge24" class="edge">
<title>Node112&#45;&gt;Node2</title>
<path fill="none" stroke="#9a32cd" stroke-dasharray="5,2" d="M414.03,-660.32C532.28,-645.15 792.48,-611.78 891.6,-599.07"/>
<polygon fill="#9a32cd" stroke="#9a32cd" points="413.67,-656.83 404.2,-661.58 414.56,-663.78 413.67,-656.83"/>
<text text-anchor="middle" x="670" y="-637.02" font-family="Roboto" font-size="10.00"> worldTransform_</text>
</g>
<!-- Node112&#45;&gt;Node112 -->
<g id="edge25" class="edge">
<title>Node112&#45;&gt;Node112</title>
<path fill="none" stroke="#9a32cd" stroke-dasharray="5,2" d="M322.61,-688.61C326.11,-692.65 336.24,-695.52 353,-695.52 382.79,-695.52 391.64,-686.45 379.54,-677.88"/>
<polygon fill="#9a32cd" stroke="#9a32cd" points="325.86,-689.9 325.95,-679.31 319.28,-687.53 325.86,-689.9"/>
<text text-anchor="middle" x="353" y="-709.52" font-family="Roboto" font-size="10.00"> IDENTITY</text>
<text text-anchor="middle" x="353" y="-698.52" font-family="Roboto" font-size="10.00">ZERO</text>
</g>
<!-- Node152 -->
<g id="node21" class="node">
<title>Node152</title>
<g id="a_node21"><a xlink:href="class_urho3_d_1_1_zone.html" target="_top" xlink:title="Component that describes global rendering properties.">
<polygon fill="#fff0f0" stroke="red" points="708.5,-680.52 631.5,-680.52 631.5,-661.52 708.5,-661.52 708.5,-680.52"/>
<text text-anchor="middle" x="670" y="-668.52" font-family="Roboto" font-size="10.00">Urho3D::Zone</text>
</a>
</g>
</g>
<!-- Node112&#45;&gt;Node152 -->
<g id="edge27" class="edge">
<title>Node112&#45;&gt;Node152</title>
<path fill="none" stroke="#9a32cd" stroke-dasharray="5,2" d="M414.01,-668.59C478.06,-669.2 577.57,-670.15 631.38,-670.66"/>
<polygon fill="#9a32cd" stroke="#9a32cd" points="414.42,-665.09 404.39,-668.5 414.35,-672.09 414.42,-665.09"/>
<text text-anchor="middle" x="525.5" y="-673.02" font-family="Roboto" font-size="10.00"> inverseWorld_</text>
</g>
<!-- Node152&#45;&gt;Node2 -->
<g id="edge26" class="edge">
<title>Node152&#45;&gt;Node2</title>
<path fill="none" stroke="#9a32cd" stroke-dasharray="5,2" d="M720.23,-673.16C762.81,-673.14 825.05,-668.53 874,-646.02 895.18,-636.28 913.9,-615.75 923.72,-603.61"/>
<polygon fill="#9a32cd" stroke="#9a32cd" points="720.32,-669.66 710.29,-673.06 720.25,-676.66 720.32,-669.66"/>
<text text-anchor="middle" x="813" y="-674.02" font-family="Roboto" font-size="10.00"> zone_</text>
</g>
<!-- Node164 -->
<g id="node22" class="node">
<title>Node164</title>
<g id="a_node22"><a xlink:href="struct_urho3_d_1_1_light_batch_queue.html" target="_top" xlink:title="Queue for light related draw calls.">
<polygon fill="#fff0f0" stroke="red" points="734,-357.52 606,-357.52 606,-338.52 734,-338.52 734,-357.52"/>
<text text-anchor="middle" x="670" y="-345.52" font-family="Roboto" font-size="10.00">Urho3D::LightBatchQueue</text>
</a>
</g>
</g>
<!-- Node164&#45;&gt;Node2 -->
<g id="edge28" class="edge">
<title>Node164&#45;&gt;Node2</title>
<path fill="none" stroke="#9a32cd" stroke-dasharray="5,2" d="M736.47,-336.95C780.41,-333.4 836.85,-336.9 874,-369.02 907.68,-398.14 925.69,-544.66 929.98,-584.18"/>
<polygon fill="#9a32cd" stroke="#9a32cd" points="736.14,-333.47 726.52,-337.91 736.81,-340.44 736.14,-333.47"/>
<text text-anchor="middle" x="813" y="-372.02" font-family="Roboto" font-size="10.00"> lightQueue_</text>
</g>
<!-- Node177&#45;&gt;Node2 -->
<g id="edge29" class="edge">
<title>Node177&#45;&gt;Node2</title>
<path fill="none" stroke="#9a32cd" stroke-dasharray="5,2" d="M544.88,-81.82C559.36,-97.1 578.61,-120.48 588,-145.02 605.6,-191.04 573.57,-328.92 606,-366.02 644.33,-409.86 678.54,-376.24 734,-394.02 798.47,-414.68 826.57,-405.71 874,-454.02 911.69,-492.4 925.57,-559.09 929.6,-584.13"/>
<polygon fill="#9a32cd" stroke="#9a32cd" points="547.59,-79.58 538.08,-74.9 542.59,-84.48 547.59,-79.58"/>
<text text-anchor="middle" x="670" y="-397.02" font-family="Roboto" font-size="10.00"> pass_</text>
</g>
<!-- Node43&#45;&gt;Node2 -->
<g id="edge31" class="edge">
<title>Node43&#45;&gt;Node2</title>
<path fill="none" stroke="#9a32cd" stroke-dasharray="5,2" d="M582.62,-180.34C584.59,-182.04 586.4,-183.93 588,-186.02 618.24,-225.48 575.1,-370.07 606,-409.02 643.13,-455.81 678.68,-427.48 734,-450.02 798.43,-476.26 820.3,-475.79 874,-520.02 897.03,-538.99 916.4,-568.92 925.48,-584.25"/>
<polygon fill="#9a32cd" stroke="#9a32cd" points="584.59,-177.45 574.34,-174.77 580.69,-183.26 584.59,-177.45"/>
<text text-anchor="middle" x="670" y="-464.02" font-family="Roboto" font-size="10.00"> pixelShader_</text>
<text text-anchor="middle" x="670" y="-453.02" font-family="Roboto" font-size="10.00">vertexShader_</text>
</g>
<!-- Node180&#45;&gt;Node1 -->
<g id="edge33" class="edge">
<title>Node180&#45;&gt;Node1</title>
<path fill="none" stroke="#9a32cd" stroke-dasharray="5,2" d="M840.32,-867.32C893.53,-821.43 1012.06,-719.22 1049.46,-686.97"/>
<polygon fill="#9a32cd" stroke="#9a32cd" points="838.2,-864.53 832.91,-873.71 842.77,-869.83 838.2,-864.53"/>
<text text-anchor="middle" x="932" y="-825.02" font-family="Roboto" font-size="10.00"> instances_</text>
</g>
</g>
</svg>
