<?xml version="1.0" encoding="UTF-8" standalone="no"?>
<!DOCTYPE svg PUBLIC "-//W3C//DTD SVG 1.1//EN"
 "http://www.w3.org/Graphics/SVG/1.1/DTD/svg11.dtd">
<!-- Generated by graphviz version 7.0.3 (0)
 -->
<!-- Title: Urho3D::ResourceRefList Pages: 1 -->
<svg width="302pt" height="149pt"
 viewBox="0.00 0.00 301.50 149.00" xmlns="http://www.w3.org/2000/svg" xmlns:xlink="http://www.w3.org/1999/xlink">
<g id="graph0" class="graph" transform="scale(1 1) rotate(0) translate(4 145)">
<title>Urho3D::ResourceRefList</title>
<!-- Node1 -->
<g id="node1" class="node">
<title>Node1</title>
<g id="a_node1"><a xlink:title="List of typed resource references.">
<polygon fill="#999999" stroke="#666666" points="204.5,-19 77.5,-19 77.5,0 204.5,0 204.5,-19"/>
<text text-anchor="middle" x="141" y="-7" font-family="Roboto" font-size="10.00">Urho3D::ResourceRefList</text>
</a>
</g>
</g>
<!-- Node2 -->
<g id="node2" class="node">
<title>Node2</title>
<g id="a_node2"><a xlink:href="class_urho3_d_1_1_string_hash.html" target="_top" xlink:title="32&#45;bit hash value for a string.">
<polygon fill="white" stroke="#666666" points="104,-85 0,-85 0,-66 104,-66 104,-85"/>
<text text-anchor="middle" x="52" y="-73" font-family="Roboto" font-size="10.00">Urho3D::StringHash</text>
</a>
</g>
</g>
<!-- Node2&#45;&gt;Node1 -->
<g id="edge1" class="edge">
<title>Node2&#45;&gt;Node1</title>
<path fill="none" stroke="#9a32cd" stroke-dasharray="5,2" d="M73.71,-58.89C90.99,-46.46 114.56,-29.51 128.73,-19.32"/>
<polygon fill="#9a32cd" stroke="#9a32cd" points="71.68,-56.04 65.6,-64.72 75.77,-61.72 71.68,-56.04"/>
<text text-anchor="middle" x="113.5" y="-40" font-family="Roboto" font-size="10.00"> type_</text>
</g>
<!-- Node2&#45;&gt;Node2 -->
<g id="edge2" class="edge">
<title>Node2&#45;&gt;Node2</title>
<path fill="none" stroke="#9a32cd" stroke-dasharray="5,2" d="M115.43,-79.22C119.52,-78.35 122,-77.11 122,-75.5 122,-72.71 114.59,-71.03 104.2,-70.47"/>
<polygon fill="#9a32cd" stroke="#9a32cd" points="115.23,-75.72 105.71,-80.36 116.04,-82.67 115.23,-75.72"/>
<text text-anchor="middle" x="136" y="-73" font-family="Roboto" font-size="10.00"> ZERO</text>
</g>
<!-- Node3 -->
<g id="node3" class="node">
<title>Node3</title>
<g id="a_node3"><a xlink:href="class_urho3_d_1_1_vector.html" target="_top" xlink:title=" ">
<polygon fill="white" stroke="#666666" points="293.5,-85 168.5,-85 168.5,-66 293.5,-66 293.5,-85"/>
<text text-anchor="middle" x="231" y="-73" font-family="Roboto" font-size="10.00">Urho3D::Vector&lt; String &gt;</text>
</a>
</g>
</g>
<!-- Node3&#45;&gt;Node1 -->
<g id="edge3" class="edge">
<title>Node3&#45;&gt;Node1</title>
<path fill="none" stroke="#9a32cd" stroke-dasharray="5,2" d="M209.54,-59.24C192.02,-46.78 167.87,-29.61 153.41,-19.32"/>
<polygon fill="#9a32cd" stroke="#9a32cd" points="207.07,-61.78 217.25,-64.72 211.13,-56.08 207.07,-61.78"/>
<text text-anchor="middle" x="209.5" y="-40" font-family="Roboto" font-size="10.00"> names_</text>
</g>
<!-- Node4 -->
<g id="node4" class="node">
<title>Node4</title>
<g id="a_node4"><a xlink:href="class_urho3_d_1_1_vector_base.html" target="_top" xlink:title="Vector base class.">
<polygon fill="white" stroke="#666666" points="284,-141 178,-141 178,-122 284,-122 284,-141"/>
<text text-anchor="middle" x="231" y="-129" font-family="Roboto" font-size="10.00">Urho3D::VectorBase</text>
</a>
</g>
</g>
<!-- Node4&#45;&gt;Node3 -->
<g id="edge4" class="edge">
<title>Node4&#45;&gt;Node3</title>
<path fill="none" stroke="#63b8ff" d="M231,-110.11C231,-101.52 231,-91.97 231,-85.25"/>
<polygon fill="#63b8ff" stroke="#63b8ff" points="227.5,-110.07 231,-120.07 234.5,-110.07 227.5,-110.07"/>
</g>
</g>
</svg>
