<?xml version="1.0" encoding="UTF-8" standalone="no"?>
<!DOCTYPE svg PUBLIC "-//W3C//DTD SVG 1.1//EN"
 "http://www.w3.org/Graphics/SVG/1.1/DTD/svg11.dtd">
<!-- Generated by graphviz version 7.0.3 (0)
 -->
<!-- Title: Urho3D::PhysicsRaycastResult2D Pages: 1 -->
<svg width="2006pt" height="763pt"
 viewBox="0.00 0.00 2006.00 763.28" xmlns="http://www.w3.org/2000/svg" xmlns:xlink="http://www.w3.org/1999/xlink">
<g id="graph0" class="graph" transform="scale(1 1) rotate(0) translate(4 759.28)">
<title>Urho3D::PhysicsRaycastResult2D</title>
<!-- Node1 -->
<g id="node1" class="node">
<title>Node1</title>
<g id="a_node1"><a xlink:title="2D Physics raycast hit.">
<polygon fill="#999999" stroke="#666666" points="1998,-563.5 1836,-563.5 1836,-544.5 1998,-544.5 1998,-563.5"/>
<text text-anchor="middle" x="1917" y="-551.5" font-family="Roboto" font-size="10.00">Urho3D::PhysicsRaycastResult2D</text>
</a>
</g>
</g>
<!-- Node2 -->
<g id="node2" class="node">
<title>Node2</title>
<g id="a_node2"><a xlink:href="class_urho3_d_1_1_vector2.html" target="_top" xlink:title="Two&#45;dimensional vector.">
<polygon fill="white" stroke="#666666" points="1092,-516.5 1003,-516.5 1003,-497.5 1092,-497.5 1092,-516.5"/>
<text text-anchor="middle" x="1047.5" y="-504.5" font-family="Roboto" font-size="10.00">Urho3D::Vector2</text>
</a>
</g>
</g>
<!-- Node2&#45;&gt;Node1 -->
<g id="edge1" class="edge">
<title>Node2&#45;&gt;Node1</title>
<path fill="none" stroke="#9a32cd" stroke-dasharray="5,2" d="M1076.49,-522C1118.55,-543.1 1201.11,-579 1276,-579 1276,-579 1276,-579 1716.5,-579 1767.29,-579 1824.79,-570.92 1864.97,-563.95"/>
<polygon fill="#9a32cd" stroke="#9a32cd" points="1078.31,-519 1067.81,-517.55 1075.11,-525.23 1078.31,-519"/>
<text text-anchor="middle" x="1490" y="-593" font-family="Roboto" font-size="10.00"> normal_</text>
<text text-anchor="middle" x="1490" y="-582" font-family="Roboto" font-size="10.00">position_</text>
</g>
<!-- Node2&#45;&gt;Node2 -->
<g id="edge2" class="edge">
<title>Node2&#45;&gt;Node2</title>
<path fill="none" stroke="#9a32cd" stroke-dasharray="5,2" d="M1028.06,-527.93C1030.5,-531.79 1036.97,-534.5 1047.5,-534.5 1066.75,-534.5 1072.46,-525.44 1064.64,-516.87"/>
<polygon fill="#9a32cd" stroke="#9a32cd" points="1031.45,-528.85 1030.05,-518.35 1024.59,-527.43 1031.45,-528.85"/>
<text text-anchor="middle" x="1047.5" y="-592.5" font-family="Roboto" font-size="10.00"> DOWN</text>
<text text-anchor="middle" x="1047.5" y="-581.5" font-family="Roboto" font-size="10.00">LEFT</text>
<text text-anchor="middle" x="1047.5" y="-570.5" font-family="Roboto" font-size="10.00">ONE</text>
<text text-anchor="middle" x="1047.5" y="-559.5" font-family="Roboto" font-size="10.00">RIGHT</text>
<text text-anchor="middle" x="1047.5" y="-548.5" font-family="Roboto" font-size="10.00">UP</text>
<text text-anchor="middle" x="1047.5" y="-537.5" font-family="Roboto" font-size="10.00">ZERO</text>
</g>
<!-- Node100 -->
<g id="node22" class="node">
<title>Node100</title>
<g id="a_node22"><a xlink:href="class_urho3_d_1_1_physics_world2_d.html" target="_top" xlink:title="2D physics simulation world component. Should be added only to the root scene node.">
<polygon fill="#fff0f0" stroke="red" points="1341,-507.5 1213,-507.5 1213,-488.5 1341,-488.5 1341,-507.5"/>
<text text-anchor="middle" x="1277" y="-495.5" font-family="Roboto" font-size="10.00">Urho3D::PhysicsWorld2D</text>
</a>
</g>
</g>
<!-- Node2&#45;&gt;Node100 -->
<g id="edge33" class="edge">
<title>Node2&#45;&gt;Node100</title>
<path fill="none" stroke="#9a32cd" stroke-dasharray="5,2" d="M1103.62,-504.82C1136.6,-503.51 1178.62,-501.85 1212.91,-500.5"/>
<polygon fill="#9a32cd" stroke="#9a32cd" points="1103.73,-501.31 1093.88,-505.2 1104.01,-508.31 1103.73,-501.31"/>
<text text-anchor="middle" x="1157" y="-508" font-family="Roboto" font-size="10.00"> gravity_</text>
</g>
<!-- Node3 -->
<g id="node3" class="node">
<title>Node3</title>
<g id="a_node3"><a xlink:href="class_urho3_d_1_1_rigid_body2_d.html" target="_top" xlink:title="2D rigid body component.">
<polygon fill="white" stroke="#666666" points="1771,-522.5 1660,-522.5 1660,-503.5 1771,-503.5 1771,-522.5"/>
<text text-anchor="middle" x="1715.5" y="-510.5" font-family="Roboto" font-size="10.00">Urho3D::RigidBody2D</text>
</a>
</g>
</g>
<!-- Node3&#45;&gt;Node1 -->
<g id="edge3" class="edge">
<title>Node3&#45;&gt;Node1</title>
<path fill="none" stroke="#9a32cd" stroke-dasharray="5,2" d="M1775.96,-525.22C1805.2,-531.23 1839.99,-538.38 1867.58,-544.05"/>
<polygon fill="#9a32cd" stroke="#9a32cd" points="1777.03,-521.87 1766.53,-523.28 1775.62,-528.72 1777.03,-521.87"/>
<text text-anchor="middle" x="1803.5" y="-536" font-family="Roboto" font-size="10.00"> body_</text>
</g>
<!-- Node4 -->
<g id="node4" class="node">
<title>Node4</title>
<g id="a_node4"><a xlink:href="class_urho3_d_1_1_component.html" target="_top" xlink:title=" ">
<polygon fill="white" stroke="#666666" points="1101,-442.5 994,-442.5 994,-423.5 1101,-423.5 1101,-442.5"/>
<text text-anchor="middle" x="1047.5" y="-430.5" font-family="Roboto" font-size="10.00">Urho3D::Component</text>
</a>
</g>
</g>
<!-- Node4&#45;&gt;Node3 -->
<g id="edge4" class="edge">
<title>Node4&#45;&gt;Node3</title>
<path fill="none" stroke="#63b8ff" d="M1112.6,-439.2C1209.13,-448.72 1397.49,-468.07 1557,-489 1591.14,-493.48 1629.33,-499.28 1659.55,-504.05"/>
<polygon fill="#63b8ff" stroke="#63b8ff" points="1113.09,-435.73 1102.8,-438.23 1112.41,-442.7 1113.09,-435.73"/>
</g>
<!-- Node4&#45;&gt;Node100 -->
<g id="edge32" class="edge">
<title>Node4&#45;&gt;Node100</title>
<path fill="none" stroke="#63b8ff" d="M1093.86,-445.96C1137.22,-458.35 1201.65,-476.76 1241.12,-488.03"/>
<polygon fill="#63b8ff" stroke="#63b8ff" points="1095.08,-442.67 1084.51,-443.29 1093.16,-449.4 1095.08,-442.67"/>
</g>
<!-- Node5 -->
<g id="node5" class="node">
<title>Node5</title>
<g id="a_node5"><a xlink:href="class_urho3_d_1_1_animatable.html" target="_top" xlink:title="Base class for animatable object, an animatable object can be set animation on it&#39;s attributes,...">
<polygon fill="white" stroke="#666666" points="485,-126.5 381,-126.5 381,-107.5 485,-107.5 485,-126.5"/>
<text text-anchor="middle" x="433" y="-114.5" font-family="Roboto" font-size="10.00">Urho3D::Animatable</text>
</a>
</g>
</g>
<!-- Node5&#45;&gt;Node4 -->
<g id="edge5" class="edge">
<title>Node5&#45;&gt;Node4</title>
<path fill="none" stroke="#63b8ff" d="M496.5,-116.98C548.33,-119 622.97,-126.7 683,-152 846.18,-220.77 999.7,-381.58 1037.6,-423.09"/>
<polygon fill="#63b8ff" stroke="#63b8ff" points="496.77,-113.49 486.66,-116.67 496.54,-120.49 496.77,-113.49"/>
</g>
<!-- Node44 -->
<g id="node10" class="node">
<title>Node44</title>
<g id="a_node10"><a xlink:href="class_urho3_d_1_1_node.html" target="_top" xlink:title="Scene node that may contain components and child nodes.">
<polygon fill="white" stroke="#666666" points="781,-476.5 701,-476.5 701,-457.5 781,-457.5 781,-476.5"/>
<text text-anchor="middle" x="741" y="-464.5" font-family="Roboto" font-size="10.00">Urho3D::Node</text>
</a>
</g>
</g>
<!-- Node5&#45;&gt;Node44 -->
<g id="edge11" class="edge">
<title>Node5&#45;&gt;Node44</title>
<path fill="none" stroke="#63b8ff" d="M457.53,-133.64C475.72,-146.87 501.22,-166.21 522,-185 530.63,-192.8 529.94,-198.16 540,-204 596.58,-236.86 639.95,-189.73 683,-239 708,-267.61 688.02,-373.3 701,-409 707.8,-427.7 721.89,-446.25 731.14,-457.16"/>
<polygon fill="#63b8ff" stroke="#63b8ff" points="459.64,-130.85 449.48,-127.85 455.55,-136.53 459.64,-130.85"/>
</g>
<!-- Node6 -->
<g id="node6" class="node">
<title>Node6</title>
<g id="a_node6"><a xlink:href="class_urho3_d_1_1_serializable.html" target="_top" xlink:title="Base class for objects with automatic serialization through attributes.">
<polygon fill="#fff0f0" stroke="red" points="141.5,-67.5 36.5,-67.5 36.5,-48.5 141.5,-48.5 141.5,-67.5"/>
<text text-anchor="middle" x="89" y="-55.5" font-family="Roboto" font-size="10.00">Urho3D::Serializable</text>
</a>
</g>
</g>
<!-- Node6&#45;&gt;Node5 -->
<g id="edge6" class="edge">
<title>Node6&#45;&gt;Node5</title>
<path fill="none" stroke="#63b8ff" d="M152.94,-68.86C218.46,-80.16 319.85,-97.65 380.69,-108.15"/>
<polygon fill="#63b8ff" stroke="#63b8ff" points="153.88,-65.47 143.43,-67.22 152.69,-72.37 153.88,-65.47"/>
</g>
<!-- Node36 -->
<g id="node7" class="node">
<title>Node36</title>
<g id="a_node7"><a xlink:href="class_urho3_d_1_1_shared_ptr.html" target="_top" xlink:title=" ">
<polygon fill="white" stroke="orangered" points="157.5,-30 20.5,-30 20.5,0 157.5,0 157.5,-30"/>
<text text-anchor="start" x="28.5" y="-18" font-family="Roboto" font-size="10.00">Urho3D::SharedPtr&lt;</text>
<text text-anchor="middle" x="89" y="-7" font-family="Roboto" font-size="10.00"> Urho3D::ObjectAnimation &gt;</text>
</a>
</g>
</g>
<!-- Node36&#45;&gt;Node5 -->
<g id="edge7" class="edge">
<title>Node36&#45;&gt;Node5</title>
<path fill="none" stroke="#9a32cd" stroke-dasharray="5,2" d="M169.16,-25.61C215.67,-33.2 275.13,-45.24 326,-63 359.54,-74.71 395.86,-95.06 416.08,-107.16"/>
<polygon fill="#9a32cd" stroke="#9a32cd" points="169.85,-22.18 159.42,-24.07 168.75,-29.09 169.85,-22.18"/>
<text text-anchor="middle" x="261" y="-66" font-family="Roboto" font-size="10.00"> objectAnimation_</text>
</g>
<!-- Node42 -->
<g id="node8" class="node">
<title>Node42</title>
<g id="a_node8"><a xlink:href="class_urho3_d_1_1_hash_set.html" target="_top" xlink:title=" ">
<polygon fill="white" stroke="orangered" points="152.5,-175 25.5,-175 25.5,-145 152.5,-145 152.5,-175"/>
<text text-anchor="start" x="33.5" y="-163" font-family="Roboto" font-size="10.00">Urho3D::HashSet&lt; const</text>
<text text-anchor="middle" x="89" y="-152" font-family="Roboto" font-size="10.00"> Urho3D::AttributeInfo * &gt;</text>
</a>
</g>
</g>
<!-- Node42&#45;&gt;Node5 -->
<g id="edge8" class="edge">
<title>Node42&#45;&gt;Node5</title>
<path fill="none" stroke="#9a32cd" stroke-dasharray="5,2" d="M164,-146C174.71,-144.18 185.63,-142.46 196,-141 259.42,-132.1 332.87,-125.16 380.76,-121.08"/>
<polygon fill="#9a32cd" stroke="#9a32cd" points="163.68,-142.5 154.42,-147.65 164.87,-149.4 163.68,-142.5"/>
<text text-anchor="middle" x="261" y="-144" font-family="Roboto" font-size="10.00"> animatedNetworkAttributes_</text>
</g>
<!-- Node43 -->
<g id="node9" class="node">
<title>Node43</title>
<g id="a_node9"><a xlink:href="class_urho3_d_1_1_hash_map.html" target="_top" xlink:title=" ">
<polygon fill="white" stroke="orangered" points="178,-126.5 0,-126.5 0,-85.5 178,-85.5 178,-126.5"/>
<text text-anchor="start" x="8" y="-114.5" font-family="Roboto" font-size="10.00">Urho3D::HashMap&lt; Urho3D</text>
<text text-anchor="start" x="8" y="-103.5" font-family="Roboto" font-size="10.00">::String, Urho3D::SharedPtr</text>
<text text-anchor="middle" x="89" y="-92.5" font-family="Roboto" font-size="10.00">&lt; Urho3D::AttributeAnimationInfo &gt; &gt;</text>
</a>
</g>
</g>
<!-- Node43&#45;&gt;Node5 -->
<g id="edge9" class="edge">
<title>Node43&#45;&gt;Node5</title>
<path fill="none" stroke="#9a32cd" stroke-dasharray="5,2" d="M189.69,-104.44C231.78,-104.3 281.3,-104.8 326,-107 343.82,-107.88 363.26,-109.51 380.58,-111.21"/>
<polygon fill="#9a32cd" stroke="#9a32cd" points="189.8,-100.94 179.82,-104.49 189.84,-107.94 189.8,-100.94"/>
<text text-anchor="middle" x="261" y="-110" font-family="Roboto" font-size="10.00"> attributeAnimationInfos_</text>
</g>
<!-- Node44&#45;&gt;Node4 -->
<g id="edge10" class="edge">
<title>Node44&#45;&gt;Node4</title>
<path fill="none" stroke="#9a32cd" stroke-dasharray="5,2" d="M786.69,-454.43C790.83,-453.51 794.98,-452.68 799,-452 865.51,-440.79 943.19,-436.19 993.54,-434.3"/>
<polygon fill="#9a32cd" stroke="#9a32cd" points="786.22,-450.94 777.31,-456.67 787.85,-457.75 786.22,-450.94"/>
<text text-anchor="middle" x="887.5" y="-455" font-family="Roboto" font-size="10.00"> node_</text>
</g>
<!-- Node44&#45;&gt;Node44 -->
<g id="edge14" class="edge">
<title>Node44&#45;&gt;Node44</title>
<path fill="none" stroke="#9a32cd" stroke-dasharray="5,2" d="M718.01,-487.93C720.89,-491.79 728.55,-494.5 741,-494.5 763.76,-494.5 770.52,-485.44 761.27,-476.87"/>
<polygon fill="#9a32cd" stroke="#9a32cd" points="721.38,-488.88 720.37,-478.34 714.59,-487.22 721.38,-488.88"/>
<text text-anchor="middle" x="741" y="-497.5" font-family="Roboto" font-size="10.00"> parent_</text>
</g>
<!-- Node46 -->
<g id="node12" class="node">
<title>Node46</title>
<g id="a_node12"><a xlink:href="class_urho3_d_1_1_scene.html" target="_top" xlink:title="Root scene node, represents the whole scene.">
<polygon fill="#fff0f0" stroke="red" points="1088.5,-479.5 1006.5,-479.5 1006.5,-460.5 1088.5,-460.5 1088.5,-479.5"/>
<text text-anchor="middle" x="1047.5" y="-467.5" font-family="Roboto" font-size="10.00">Urho3D::Scene</text>
</a>
</g>
</g>
<!-- Node44&#45;&gt;Node46 -->
<g id="edge16" class="edge">
<title>Node44&#45;&gt;Node46</title>
<path fill="none" stroke="#63b8ff" d="M792.73,-478.24C794.84,-478.53 796.94,-478.79 799,-479 877.24,-487.15 897.49,-483.99 976,-479 985.85,-478.37 996.43,-477.26 1006.32,-476.02"/>
<polygon fill="#63b8ff" stroke="#63b8ff" points="793.31,-474.79 782.88,-476.64 792.19,-481.7 793.31,-474.79"/>
</g>
<!-- Node45 -->
<g id="node11" class="node">
<title>Node45</title>
<g id="a_node11"><a xlink:href="class_urho3_d_1_1_matrix3x4.html" target="_top" xlink:title="3x4 matrix for scene node transform calculations.">
<polygon fill="white" stroke="#666666" points="482.5,-519.5 383.5,-519.5 383.5,-500.5 482.5,-500.5 482.5,-519.5"/>
<text text-anchor="middle" x="433" y="-507.5" font-family="Roboto" font-size="10.00">Urho3D::Matrix3x4</text>
</a>
</g>
</g>
<!-- Node45&#45;&gt;Node44 -->
<g id="edge12" class="edge">
<title>Node45&#45;&gt;Node44</title>
<path fill="none" stroke="#9a32cd" stroke-dasharray="5,2" d="M494.37,-505.68C545.02,-501.47 619.13,-493.93 683,-482 690.34,-480.63 698.13,-478.82 705.52,-476.93"/>
<polygon fill="#9a32cd" stroke="#9a32cd" points="494.17,-502.19 484.49,-506.48 494.74,-509.16 494.17,-502.19"/>
<text text-anchor="middle" x="611.5" y="-505" font-family="Roboto" font-size="10.00"> worldTransform_</text>
</g>
<!-- Node45&#45;&gt;Node45 -->
<g id="edge13" class="edge">
<title>Node45&#45;&gt;Node45</title>
<path fill="none" stroke="#9a32cd" stroke-dasharray="5,2" d="M402.16,-530.6C405.71,-534.63 415.99,-537.5 433,-537.5 463.23,-537.5 472.21,-528.44 459.93,-519.87"/>
<polygon fill="#9a32cd" stroke="#9a32cd" points="405.41,-531.88 405.55,-521.29 398.84,-529.49 405.41,-531.88"/>
<text text-anchor="middle" x="433" y="-551.5" font-family="Roboto" font-size="10.00"> IDENTITY</text>
<text text-anchor="middle" x="433" y="-540.5" font-family="Roboto" font-size="10.00">ZERO</text>
</g>
<!-- Node46&#45;&gt;Node44 -->
<g id="edge15" class="edge">
<title>Node46&#45;&gt;Node44</title>
<path fill="none" stroke="#9a32cd" stroke-dasharray="5,2" d="M994.91,-468.39C988.54,-468.24 982.12,-468.1 976,-468 907.56,-466.88 827.84,-466.8 781.34,-466.88"/>
<polygon fill="#9a32cd" stroke="#9a32cd" points="994.64,-471.89 1004.73,-468.65 994.82,-464.89 994.64,-471.89"/>
<text text-anchor="middle" x="887.5" y="-471" font-family="Roboto" font-size="10.00"> scene_</text>
</g>
<!-- Node27 -->
<g id="node13" class="node">
<title>Node27</title>
<g id="a_node13"><a xlink:href="class_urho3_d_1_1_hash_map.html" target="_top" xlink:title=" ">
<polygon fill="white" stroke="orangered" points="511,-704 355,-704 355,-674 511,-674 511,-704"/>
<text text-anchor="start" x="363" y="-692" font-family="Roboto" font-size="10.00">Urho3D::HashMap&lt; StringHash,</text>
<text text-anchor="middle" x="433" y="-681" font-family="Roboto" font-size="10.00"> Variant &gt;</text>
</a>
</g>
</g>
<!-- Node27&#45;&gt;Node44 -->
<g id="edge29" class="edge">
<title>Node27&#45;&gt;Node44</title>
<path fill="none" stroke="#9a32cd" stroke-dasharray="5,2" d="M504.66,-670.83C516.43,-668.04 528.53,-665.33 540,-663 603.09,-650.21 634.01,-681.76 683,-640 734.02,-596.5 739.63,-506.41 740.05,-476.72"/>
<polygon fill="#9a32cd" stroke="#9a32cd" points="503.89,-667.41 494.99,-673.15 505.53,-674.22 503.89,-667.41"/>
<text text-anchor="middle" x="611.5" y="-666" font-family="Roboto" font-size="10.00"> vars_</text>
</g>
<!-- Node27&#45;&gt;Node46 -->
<g id="edge17" class="edge">
<title>Node27&#45;&gt;Node46</title>
<path fill="none" stroke="#9a32cd" stroke-dasharray="5,2" d="M522.81,-693.79C571.17,-693.9 631.48,-689.91 683,-674 836.88,-626.47 847.92,-555.82 994,-488 1000.38,-485.04 1007.39,-482.3 1014.15,-479.9"/>
<polygon fill="#9a32cd" stroke="#9a32cd" points="522.96,-690.29 512.93,-693.7 522.9,-697.29 522.96,-690.29"/>
<text text-anchor="middle" x="741" y="-670" font-family="Roboto" font-size="10.00"> smoothingData_</text>
</g>
<!-- Node76 -->
<g id="node14" class="node">
<title>Node76</title>
<g id="a_node14"><a xlink:href="class_urho3_d_1_1_vector3.html" target="_top" xlink:title="Three&#45;dimensional vector.">
<polygon fill="white" stroke="#666666" points="477.5,-279.5 388.5,-279.5 388.5,-260.5 477.5,-260.5 477.5,-279.5"/>
<text text-anchor="middle" x="433" y="-267.5" font-family="Roboto" font-size="10.00">Urho3D::Vector3</text>
</a>
</g>
</g>
<!-- Node76&#45;&gt;Node44 -->
<g id="edge18" class="edge">
<title>Node76&#45;&gt;Node44</title>
<path fill="none" stroke="#9a32cd" stroke-dasharray="5,2" d="M462.46,-285.35C527.29,-320.33 680.55,-403.09 683,-405 703.3,-420.82 722.63,-444.19 732.73,-457.26"/>
<polygon fill="#9a32cd" stroke="#9a32cd" points="464.29,-282.36 453.83,-280.7 460.97,-288.52 464.29,-282.36"/>
<text text-anchor="middle" x="611.5" y="-419" font-family="Roboto" font-size="10.00"> position_</text>
<text text-anchor="middle" x="611.5" y="-408" font-family="Roboto" font-size="10.00">scale_</text>
</g>
<!-- Node76&#45;&gt;Node76 -->
<g id="edge19" class="edge">
<title>Node76&#45;&gt;Node76</title>
<path fill="none" stroke="#9a32cd" stroke-dasharray="5,2" d="M402.16,-290.6C405.71,-294.63 415.99,-297.5 433,-297.5 463.23,-297.5 472.21,-288.44 459.93,-279.87"/>
<polygon fill="#9a32cd" stroke="#9a32cd" points="405.41,-291.88 405.55,-281.29 398.84,-289.49 405.41,-291.88"/>
<text text-anchor="middle" x="433" y="-377.5" font-family="Roboto" font-size="10.00"> BACK</text>
<text text-anchor="middle" x="433" y="-366.5" font-family="Roboto" font-size="10.00">DOWN</text>
<text text-anchor="middle" x="433" y="-355.5" font-family="Roboto" font-size="10.00">FORWARD</text>
<text text-anchor="middle" x="433" y="-344.5" font-family="Roboto" font-size="10.00">LEFT</text>
<text text-anchor="middle" x="433" y="-333.5" font-family="Roboto" font-size="10.00">ONE</text>
<text text-anchor="middle" x="433" y="-322.5" font-family="Roboto" font-size="10.00">RIGHT</text>
<text text-anchor="middle" x="433" y="-311.5" font-family="Roboto" font-size="10.00">UP</text>
<text text-anchor="middle" x="433" y="-300.5" font-family="Roboto" font-size="10.00">ZERO</text>
</g>
<!-- Node77 -->
<g id="node15" class="node">
<title>Node77</title>
<g id="a_node15"><a xlink:href="class_urho3_d_1_1_quaternion.html" target="_top" xlink:title="Rotation represented as a four&#45;dimensional normalized vector.">
<polygon fill="white" stroke="#666666" points="484.5,-213.5 381.5,-213.5 381.5,-194.5 484.5,-194.5 484.5,-213.5"/>
<text text-anchor="middle" x="433" y="-201.5" font-family="Roboto" font-size="10.00">Urho3D::Quaternion</text>
</a>
</g>
</g>
<!-- Node77&#45;&gt;Node44 -->
<g id="edge20" class="edge">
<title>Node77&#45;&gt;Node44</title>
<path fill="none" stroke="#9a32cd" stroke-dasharray="5,2" d="M473.92,-217.46C540.72,-240.33 669.21,-285.96 683,-303 713.06,-340.15 683.27,-364.62 701,-409 708.38,-427.48 722.31,-446.09 731.37,-457.07"/>
<polygon fill="#9a32cd" stroke="#9a32cd" points="475.4,-214.27 464.8,-214.35 473.14,-220.89 475.4,-214.27"/>
<text text-anchor="middle" x="611.5" y="-317" font-family="Roboto" font-size="10.00"> rotation_</text>
<text text-anchor="middle" x="611.5" y="-306" font-family="Roboto" font-size="10.00">worldRotation_</text>
</g>
<!-- Node77&#45;&gt;Node77 -->
<g id="edge21" class="edge">
<title>Node77&#45;&gt;Node77</title>
<path fill="none" stroke="#9a32cd" stroke-dasharray="5,2" d="M402.16,-224.6C405.71,-228.63 415.99,-231.5 433,-231.5 463.23,-231.5 472.21,-222.44 459.93,-213.87"/>
<polygon fill="#9a32cd" stroke="#9a32cd" points="405.41,-225.88 405.55,-215.29 398.84,-223.49 405.41,-225.88"/>
<text text-anchor="middle" x="433" y="-234.5" font-family="Roboto" font-size="10.00"> IDENTITY</text>
</g>
<!-- Node78 -->
<g id="node16" class="node">
<title>Node78</title>
<g id="a_node16"><a xlink:href="class_urho3_d_1_1_vector.html" target="_top" xlink:title=" ">
<polygon fill="white" stroke="#666666" points="522,-482 344,-482 344,-452 522,-452 522,-482"/>
<text text-anchor="start" x="352" y="-470" font-family="Roboto" font-size="10.00">Urho3D::Vector&lt; Urho3D</text>
<text text-anchor="middle" x="433" y="-459" font-family="Roboto" font-size="10.00">::SharedPtr&lt; Urho3D::Component &gt; &gt;</text>
</a>
</g>
</g>
<!-- Node78&#45;&gt;Node44 -->
<g id="edge22" class="edge">
<title>Node78&#45;&gt;Node44</title>
<path fill="none" stroke="#9a32cd" stroke-dasharray="5,2" d="M533.33,-467C590.3,-467 658.63,-467 700.68,-467"/>
<polygon fill="#9a32cd" stroke="#9a32cd" points="533.61,-463.5 523.61,-467 533.61,-470.5 533.61,-463.5"/>
<text text-anchor="middle" x="611.5" y="-470" font-family="Roboto" font-size="10.00"> components_</text>
</g>
<!-- Node21 -->
<g id="node17" class="node">
<title>Node21</title>
<g id="a_node17"><a xlink:href="class_urho3_d_1_1_vector_base.html" target="_top" xlink:title="Vector base class.">
<polygon fill="white" stroke="#666666" points="142,-476.5 36,-476.5 36,-457.5 142,-457.5 142,-476.5"/>
<text text-anchor="middle" x="89" y="-464.5" font-family="Roboto" font-size="10.00">Urho3D::VectorBase</text>
</a>
</g>
</g>
<!-- Node21&#45;&gt;Node78 -->
<g id="edge23" class="edge">
<title>Node21&#45;&gt;Node78</title>
<path fill="none" stroke="#63b8ff" d="M153.7,-467C207.24,-467 284.31,-467 343.78,-467"/>
<polygon fill="#63b8ff" stroke="#63b8ff" points="153.83,-463.5 143.83,-467 153.83,-470.5 153.83,-463.5"/>
</g>
<!-- Node79 -->
<g id="node18" class="node">
<title>Node79</title>
<g id="a_node18"><a xlink:href="class_urho3_d_1_1_vector.html" target="_top" xlink:title=" ">
<polygon fill="white" stroke="#666666" points="508.5,-434 357.5,-434 357.5,-404 508.5,-404 508.5,-434"/>
<text text-anchor="start" x="365.5" y="-422" font-family="Roboto" font-size="10.00">Urho3D::Vector&lt; Urho3D</text>
<text text-anchor="middle" x="433" y="-411" font-family="Roboto" font-size="10.00">::SharedPtr&lt; Urho3D::Node &gt; &gt;</text>
</a>
</g>
</g>
<!-- Node21&#45;&gt;Node79 -->
<g id="edge25" class="edge">
<title>Node21&#45;&gt;Node79</title>
<path fill="none" stroke="#63b8ff" d="M153.46,-458.09C211.12,-450 296.23,-438.06 357.18,-429.5"/>
<polygon fill="#63b8ff" stroke="#63b8ff" points="153.23,-454.59 143.81,-459.45 154.2,-461.52 153.23,-454.59"/>
</g>
<!-- Node80 -->
<g id="node19" class="node">
<title>Node80</title>
<g id="a_node19"><a xlink:href="class_urho3_d_1_1_vector.html" target="_top" xlink:title=" ">
<polygon fill="white" stroke="#666666" points="519,-656 347,-656 347,-626 519,-626 519,-656"/>
<text text-anchor="start" x="355" y="-644" font-family="Roboto" font-size="10.00">Urho3D::Vector&lt; Urho3D</text>
<text text-anchor="middle" x="433" y="-633" font-family="Roboto" font-size="10.00">::WeakPtr&lt; Urho3D::Component &gt; &gt;</text>
</a>
</g>
</g>
<!-- Node21&#45;&gt;Node80 -->
<g id="edge27" class="edge">
<title>Node21&#45;&gt;Node80</title>
<path fill="none" stroke="#63b8ff" d="M112.95,-483.43C156.21,-513.73 253.6,-578.8 344,-617 351.44,-620.14 359.41,-622.99 367.4,-625.53"/>
<polygon fill="#63b8ff" stroke="#63b8ff" points="115.05,-480.63 104.86,-477.72 111.01,-486.35 115.05,-480.63"/>
</g>
<!-- Node159 -->
<g id="node24" class="node">
<title>Node159</title>
<g id="a_node24"><a xlink:href="class_urho3_d_1_1_vector.html" target="_top" xlink:title=" ">
<polygon fill="white" stroke="#666666" points="683,-195.5 540,-195.5 540,-154.5 683,-154.5 683,-195.5"/>
<text text-anchor="start" x="548" y="-183.5" font-family="Roboto" font-size="10.00">Urho3D::Vector&lt; Urho3D</text>
<text text-anchor="start" x="548" y="-172.5" font-family="Roboto" font-size="10.00">::WeakPtr&lt; Urho3D::Collision</text>
<text text-anchor="middle" x="611.5" y="-161.5" font-family="Roboto" font-size="10.00">Shape2D &gt; &gt;</text>
</a>
</g>
</g>
<!-- Node21&#45;&gt;Node159 -->
<g id="edge36" class="edge">
<title>Node21&#45;&gt;Node159</title>
<path fill="none" stroke="#63b8ff" d="M100.27,-447.25C129.6,-393.22 219.75,-243.12 344,-185 405.44,-156.26 483.84,-157.14 539.66,-163.15"/>
<polygon fill="#63b8ff" stroke="#63b8ff" points="97.26,-445.45 95.65,-455.92 103.44,-448.74 97.26,-445.45"/>
</g>
<!-- Node160 -->
<g id="node25" class="node">
<title>Node160</title>
<g id="a_node25"><a xlink:href="class_urho3_d_1_1_vector.html" target="_top" xlink:title=" ">
<polygon fill="white" stroke="#666666" points="976,-740 799,-740 799,-710 976,-710 976,-740"/>
<text text-anchor="start" x="807" y="-728" font-family="Roboto" font-size="10.00">Urho3D::Vector&lt; Urho3D</text>
<text text-anchor="middle" x="887.5" y="-717" font-family="Roboto" font-size="10.00">::WeakPtr&lt; Urho3D::Constraint2D &gt; &gt;</text>
</a>
</g>
</g>
<!-- Node21&#45;&gt;Node160 -->
<g id="edge38" class="edge">
<title>Node21&#45;&gt;Node160</title>
<path fill="none" stroke="#63b8ff" d="M101.82,-486.39C133.49,-536.18 225.96,-667.81 344,-713 495.98,-771.19 689.88,-756.31 799.92,-740.48"/>
<polygon fill="#63b8ff" stroke="#63b8ff" points="104.91,-484.73 96.64,-478.1 98.97,-488.44 104.91,-484.73"/>
</g>
<!-- Node79&#45;&gt;Node44 -->
<g id="edge24" class="edge">
<title>Node79&#45;&gt;Node44</title>
<path fill="none" stroke="#9a32cd" stroke-dasharray="5,2" d="M520.09,-427.71C568.24,-433.26 629.23,-441.41 683,-452 690.13,-453.4 697.69,-455.18 704.89,-457.02"/>
<polygon fill="#9a32cd" stroke="#9a32cd" points="520.6,-424.25 510.27,-426.6 519.81,-431.2 520.6,-424.25"/>
<text text-anchor="middle" x="611.5" y="-455" font-family="Roboto" font-size="10.00"> children_</text>
</g>
<!-- Node80&#45;&gt;Node44 -->
<g id="edge26" class="edge">
<title>Node80&#45;&gt;Node44</title>
<path fill="none" stroke="#9a32cd" stroke-dasharray="5,2" d="M530.69,-628.07C590.14,-618.47 659.32,-603.8 683,-585 718.99,-556.42 733.67,-499.48 738.27,-476.72"/>
<polygon fill="#9a32cd" stroke="#9a32cd" points="530.16,-624.61 520.83,-629.62 531.25,-631.52 530.16,-624.61"/>
<text text-anchor="middle" x="611.5" y="-629" font-family="Roboto" font-size="10.00"> listeners_</text>
</g>
<!-- Node81 -->
<g id="node20" class="node">
<title>Node81</title>
<g id="a_node20"><a xlink:href="class_urho3_d_1_1_unique_ptr.html" target="_top" xlink:title=" ">
<polygon fill="white" stroke="orangered" points="487.5,-608 378.5,-608 378.5,-578 487.5,-578 487.5,-608"/>
<text text-anchor="start" x="386.5" y="-596" font-family="Roboto" font-size="10.00">Urho3D::UniquePtr&lt;</text>
<text text-anchor="middle" x="433" y="-585" font-family="Roboto" font-size="10.00"> Urho3D::NodeImpl &gt;</text>
</a>
</g>
</g>
<!-- Node81&#45;&gt;Node44 -->
<g id="edge28" class="edge">
<title>Node81&#45;&gt;Node44</title>
<path fill="none" stroke="#9a32cd" stroke-dasharray="5,2" d="M498.85,-581.39C551.03,-570.17 624.96,-549.94 683,-517 702.23,-506.08 720.77,-487.96 731.24,-476.79"/>
<polygon fill="#9a32cd" stroke="#9a32cd" points="498.28,-577.93 489.21,-583.4 499.72,-584.78 498.28,-577.93"/>
<text text-anchor="middle" x="611.5" y="-573" font-family="Roboto" font-size="10.00"> impl_</text>
</g>
<!-- Node99 -->
<g id="node21" class="node">
<title>Node99</title>
<g id="a_node21"><a xlink:href="class_urho3_d_1_1_weak_ptr.html" target="_top" xlink:title=" ">
<polygon fill="white" stroke="#666666" points="1557,-528 1423,-528 1423,-498 1557,-498 1557,-528"/>
<text text-anchor="start" x="1431" y="-516" font-family="Roboto" font-size="10.00">Urho3D::WeakPtr&lt; Urho3D</text>
<text text-anchor="middle" x="1490" y="-505" font-family="Roboto" font-size="10.00">::PhysicsWorld2D &gt;</text>
</a>
</g>
</g>
<!-- Node99&#45;&gt;Node3 -->
<g id="edge30" class="edge">
<title>Node99&#45;&gt;Node3</title>
<path fill="none" stroke="#9a32cd" stroke-dasharray="5,2" d="M1568.73,-513C1598.68,-513 1632.23,-513 1659.59,-513"/>
<polygon fill="#9a32cd" stroke="#9a32cd" points="1568.97,-509.5 1558.97,-513 1568.97,-516.5 1568.97,-509.5"/>
<text text-anchor="middle" x="1608.5" y="-516" font-family="Roboto" font-size="10.00"> physicsWorld_</text>
</g>
<!-- Node100&#45;&gt;Node99 -->
<g id="edge31" class="edge">
<title>Node100&#45;&gt;Node99</title>
<path fill="none" stroke="#9a32cd" stroke-dasharray="5,2" d="M1352.54,-499.12C1369.78,-499.72 1388.05,-500.63 1405,-502 1410.72,-502.46 1416.64,-503.04 1422.58,-503.69"/>
<polygon fill="#9a32cd" stroke="#9a32cd" points="1352.99,-495.63 1342.89,-498.81 1352.77,-502.63 1352.99,-495.63"/>
<text text-anchor="middle" x="1382" y="-505" font-family="Roboto" font-size="10.00"> ptr_</text>
</g>
<!-- Node9 -->
<g id="node23" class="node">
<title>Node9</title>
<g id="a_node23"><a xlink:href="struct_urho3_d_1_1_ref_count.html" target="_top" xlink:title="Reference count structure.">
<polygon fill="white" stroke="#666666" points="1325,-544.5 1229,-544.5 1229,-525.5 1325,-525.5 1325,-544.5"/>
<text text-anchor="middle" x="1277" y="-532.5" font-family="Roboto" font-size="10.00">Urho3D::RefCount</text>
</a>
</g>
</g>
<!-- Node9&#45;&gt;Node99 -->
<g id="edge34" class="edge">
<title>Node9&#45;&gt;Node99</title>
<path fill="none" stroke="#9a32cd" stroke-dasharray="5,2" d="M1336.47,-528.9C1363.19,-526.12 1394.98,-522.8 1422.6,-519.92"/>
<polygon fill="#9a32cd" stroke="#9a32cd" points="1336.44,-525.39 1326.86,-529.91 1337.17,-532.35 1336.44,-525.39"/>
<text text-anchor="middle" x="1382" y="-528" font-family="Roboto" font-size="10.00"> refCount_</text>
</g>
<!-- Node159&#45;&gt;Node3 -->
<g id="edge35" class="edge">
<title>Node159&#45;&gt;Node3</title>
<path fill="none" stroke="#9a32cd" stroke-dasharray="5,2" d="M685.12,-201.98C788.15,-272.95 764.78,-395 886.5,-395 886.5,-395 886.5,-395 1491,-395 1583.58,-395 1675.38,-475.16 1704.79,-503.34"/>
<polygon fill="#9a32cd" stroke="#9a32cd" points="687.35,-199.25 677.05,-196.73 683.53,-205.12 687.35,-199.25"/>
<text text-anchor="middle" x="1157" y="-398" font-family="Roboto" font-size="10.00"> collisionShapes_</text>
</g>
<!-- Node160&#45;&gt;Node3 -->
<g id="edge37" class="edge">
<title>Node160&#45;&gt;Node3</title>
<path fill="none" stroke="#9a32cd" stroke-dasharray="5,2" d="M987.61,-718.1C1120.68,-706.41 1362.82,-676.57 1557,-605 1614.64,-583.75 1675.37,-541.87 1701.4,-522.84"/>
<polygon fill="#9a32cd" stroke="#9a32cd" points="987.43,-714.6 977.77,-718.94 988.03,-721.57 987.43,-714.6"/>
<text text-anchor="middle" x="1277" y="-692" font-family="Roboto" font-size="10.00"> constraints_</text>
</g>
</g>
</svg>
