<?xml version="1.0" encoding="UTF-8" standalone="no"?>
<!DOCTYPE svg PUBLIC "-//W3C//DTD SVG 1.1//EN"
 "http://www.w3.org/Graphics/SVG/1.1/DTD/svg11.dtd">
<!-- Generated by graphviz version 7.0.3 (0)
 -->
<!-- Title: Urho3D::Spriter::Animation Pages: 1 -->
<svg width="529pt" height="164pt"
 viewBox="0.00 0.00 529.00 163.50" xmlns="http://www.w3.org/2000/svg" xmlns:xlink="http://www.w3.org/1999/xlink">
<g id="graph0" class="graph" transform="scale(1 1) rotate(0) translate(4 159.5)">
<title>Urho3D::Spriter::Animation</title>
<!-- Node1 -->
<g id="node1" class="node">
<title>Node1</title>
<g id="a_node1"><a xlink:title="Animation.">
<polygon fill="#999999" stroke="#666666" points="521,-78.5 387,-78.5 387,-59.5 521,-59.5 521,-78.5"/>
<text text-anchor="middle" x="454" y="-66.5" font-family="Roboto" font-size="10.00">Urho3D::Spriter::Animation</text>
</a>
</g>
</g>
<!-- Node2 -->
<g id="node2" class="node">
<title>Node2</title>
<g id="a_node2"><a xlink:href="class_urho3_d_1_1_string.html" target="_top" xlink:title="String class.">
<polygon fill="white" stroke="#666666" points="254.5,-126.5 174.5,-126.5 174.5,-107.5 254.5,-107.5 254.5,-126.5"/>
<text text-anchor="middle" x="214.5" y="-114.5" font-family="Roboto" font-size="10.00">Urho3D::String</text>
</a>
</g>
</g>
<!-- Node2&#45;&gt;Node1 -->
<g id="edge1" class="edge">
<title>Node2&#45;&gt;Node1</title>
<path fill="none" stroke="#9a32cd" stroke-dasharray="5,2" d="M266.23,-106.75C306.79,-98.55 363.3,-87.13 403.52,-79"/>
<polygon fill="#9a32cd" stroke="#9a32cd" points="265.58,-103.31 256.47,-108.72 266.96,-110.17 265.58,-103.31"/>
<text text-anchor="middle" x="336.5" y="-101" font-family="Roboto" font-size="10.00"> name_</text>
</g>
<!-- Node2&#45;&gt;Node2 -->
<g id="edge2" class="edge">
<title>Node2&#45;&gt;Node2</title>
<path fill="none" stroke="#9a32cd" stroke-dasharray="5,2" d="M198.53,-137.93C200.52,-141.79 205.85,-144.5 214.5,-144.5 230.32,-144.5 235.02,-135.44 228.59,-126.87"/>
<polygon fill="#9a32cd" stroke="#9a32cd" points="201.93,-138.81 200.16,-128.36 195.03,-137.63 201.93,-138.81"/>
<text text-anchor="middle" x="214.5" y="-147.5" font-family="Roboto" font-size="10.00"> EMPTY</text>
</g>
<!-- Node3 -->
<g id="node3" class="node">
<title>Node3</title>
<g id="a_node3"><a xlink:href="class_urho3_d_1_1_p_o_d_vector.html" target="_top" xlink:title=" ">
<polygon fill="white" stroke="#666666" points="278.5,-89.5 150.5,-89.5 150.5,-48.5 278.5,-48.5 278.5,-89.5"/>
<text text-anchor="start" x="158.5" y="-77.5" font-family="Roboto" font-size="10.00">Urho3D::PODVector&lt;</text>
<text text-anchor="start" x="158.5" y="-66.5" font-family="Roboto" font-size="10.00"> Urho3D::Spriter::Mainline</text>
<text text-anchor="middle" x="214.5" y="-55.5" font-family="Roboto" font-size="10.00">Key * &gt;</text>
</a>
</g>
</g>
<!-- Node3&#45;&gt;Node1 -->
<g id="edge3" class="edge">
<title>Node3&#45;&gt;Node1</title>
<path fill="none" stroke="#9a32cd" stroke-dasharray="5,2" d="M289.99,-69C320.91,-69 356.5,-69 386.52,-69"/>
<polygon fill="#9a32cd" stroke="#9a32cd" points="290.35,-65.5 280.35,-69 290.35,-72.5 290.35,-65.5"/>
<text text-anchor="middle" x="336.5" y="-72" font-family="Roboto" font-size="10.00"> mainlineKeys_</text>
</g>
<!-- Node4 -->
<g id="node4" class="node">
<title>Node4</title>
<g id="a_node4"><a xlink:href="class_urho3_d_1_1_vector_base.html" target="_top" xlink:title="Vector base class.">
<polygon fill="white" stroke="#666666" points="106,-50.5 0,-50.5 0,-31.5 106,-31.5 106,-50.5"/>
<text text-anchor="middle" x="53" y="-38.5" font-family="Roboto" font-size="10.00">Urho3D::VectorBase</text>
</a>
</g>
</g>
<!-- Node4&#45;&gt;Node3 -->
<g id="edge4" class="edge">
<title>Node4&#45;&gt;Node3</title>
<path fill="none" stroke="#63b8ff" d="M117.27,-52.11C128.05,-54 139.24,-55.96 150.02,-57.86"/>
<polygon fill="#63b8ff" stroke="#63b8ff" points="118.17,-48.71 107.72,-50.43 116.96,-55.61 118.17,-48.71"/>
</g>
<!-- Node5 -->
<g id="node5" class="node">
<title>Node5</title>
<g id="a_node5"><a xlink:href="class_urho3_d_1_1_p_o_d_vector.html" target="_top" xlink:title=" ">
<polygon fill="white" stroke="#666666" points="286,-30 143,-30 143,0 286,0 286,-30"/>
<text text-anchor="start" x="151" y="-18" font-family="Roboto" font-size="10.00">Urho3D::PODVector&lt;</text>
<text text-anchor="middle" x="214.5" y="-7" font-family="Roboto" font-size="10.00"> Urho3D::Spriter::Timeline * &gt;</text>
</a>
</g>
</g>
<!-- Node4&#45;&gt;Node5 -->
<g id="edge6" class="edge">
<title>Node4&#45;&gt;Node5</title>
<path fill="none" stroke="#63b8ff" d="M117.35,-30.67C125.65,-29.32 134.2,-27.93 142.61,-26.56"/>
<polygon fill="#63b8ff" stroke="#63b8ff" points="117.03,-27.18 107.72,-32.24 118.15,-34.09 117.03,-27.18"/>
</g>
<!-- Node5&#45;&gt;Node1 -->
<g id="edge5" class="edge">
<title>Node5&#45;&gt;Node1</title>
<path fill="none" stroke="#9a32cd" stroke-dasharray="5,2" d="M294.67,-33C332.87,-41.69 377.25,-51.78 409.28,-59.06"/>
<polygon fill="#9a32cd" stroke="#9a32cd" points="295.56,-29.61 285.03,-30.81 294.01,-36.44 295.56,-29.61"/>
<text text-anchor="middle" x="336.5" y="-52" font-family="Roboto" font-size="10.00"> timelines_</text>
</g>
</g>
</svg>
