<?xml version="1.0" encoding="UTF-8" standalone="no"?>
<!DOCTYPE svg PUBLIC "-//W3C//DTD SVG 1.1//EN"
 "http://www.w3.org/Graphics/SVG/1.1/DTD/svg11.dtd">
<!-- Generated by graphviz version 7.0.3 (0)
 -->
<!-- Title: Urho3D::NavigationGeometryInfo Pages: 1 -->
<svg width="1617pt" height="653pt"
 viewBox="0.00 0.00 1617.00 652.50" xmlns="http://www.w3.org/2000/svg" xmlns:xlink="http://www.w3.org/1999/xlink">
<g id="graph0" class="graph" transform="scale(1 1) rotate(0) translate(4 648.5)">
<title>Urho3D::NavigationGeometryInfo</title>
<!-- Node1 -->
<g id="node1" class="node">
<title>Node1</title>
<g id="a_node1"><a xlink:title="Description of a navigation mesh geometry component, with transform and bounds information.">
<polygon fill="#999999" stroke="#666666" points="1609,-499.5 1446,-499.5 1446,-480.5 1609,-480.5 1609,-499.5"/>
<text text-anchor="middle" x="1527.5" y="-487.5" font-family="Roboto" font-size="10.00">Urho3D::NavigationGeometryInfo</text>
</a>
</g>
</g>
<!-- Node2 -->
<g id="node2" class="node">
<title>Node2</title>
<g id="a_node2"><a xlink:href="class_urho3_d_1_1_component.html" target="_top" xlink:title=" ">
<polygon fill="white" stroke="#666666" points="1352,-461.5 1245,-461.5 1245,-442.5 1352,-442.5 1352,-461.5"/>
<text text-anchor="middle" x="1298.5" y="-449.5" font-family="Roboto" font-size="10.00">Urho3D::Component</text>
</a>
</g>
</g>
<!-- Node2&#45;&gt;Node1 -->
<g id="edge1" class="edge">
<title>Node2&#45;&gt;Node1</title>
<path fill="none" stroke="#9a32cd" stroke-dasharray="5,2" d="M1363.48,-456.6C1384.16,-458.58 1407.13,-461.32 1428,-465 1449.72,-468.83 1473.71,-474.88 1492.58,-480.07"/>
<polygon fill="#9a32cd" stroke="#9a32cd" points="1364.04,-453.13 1353.77,-455.71 1363.41,-460.1 1364.04,-453.13"/>
<text text-anchor="middle" x="1399" y="-468" font-family="Roboto" font-size="10.00"> component_</text>
</g>
<!-- Node3 -->
<g id="node3" class="node">
<title>Node3</title>
<g id="a_node3"><a xlink:href="class_urho3_d_1_1_animatable.html" target="_top" xlink:title="Base class for animatable object, an animatable object can be set animation on it&#39;s attributes,...">
<polygon fill="white" stroke="#666666" points="771,-412.5 667,-412.5 667,-393.5 771,-393.5 771,-412.5"/>
<text text-anchor="middle" x="719" y="-400.5" font-family="Roboto" font-size="10.00">Urho3D::Animatable</text>
</a>
</g>
</g>
<!-- Node3&#45;&gt;Node2 -->
<g id="edge2" class="edge">
<title>Node3&#45;&gt;Node2</title>
<path fill="none" stroke="#63b8ff" d="M769.86,-416.07C782.46,-419.82 795.85,-424.21 808,-429 816.32,-432.28 817.33,-435.82 826,-438 973.91,-475.24 1156.17,-465.7 1244.51,-457.74"/>
<polygon fill="#63b8ff" stroke="#63b8ff" points="771.08,-412.78 760.5,-413.36 769.14,-419.5 771.08,-412.78"/>
</g>
<!-- Node42 -->
<g id="node13" class="node">
<title>Node42</title>
<g id="a_node13"><a xlink:href="class_urho3_d_1_1_node.html" target="_top" xlink:title="Scene node that may contain components and child nodes.">
<polygon fill="white" stroke="#666666" points="1083.5,-269.5 1003.5,-269.5 1003.5,-250.5 1083.5,-250.5 1083.5,-269.5"/>
<text text-anchor="middle" x="1043.5" y="-257.5" font-family="Roboto" font-size="10.00">Urho3D::Node</text>
</a>
</g>
</g>
<!-- Node3&#45;&gt;Node42 -->
<g id="edge14" class="edge">
<title>Node3&#45;&gt;Node42</title>
<path fill="none" stroke="#63b8ff" d="M782.15,-395.11C791.22,-392.41 800.13,-388.81 808,-384 818.78,-377.41 815.14,-368.46 826,-362 883.16,-328 914.71,-366.03 973,-334 1001.88,-318.13 1025.65,-285.96 1036.37,-269.77"/>
<polygon fill="#63b8ff" stroke="#63b8ff" points="781.36,-391.7 772.55,-397.59 783.11,-398.48 781.36,-391.7"/>
</g>
<!-- Node4 -->
<g id="node4" class="node">
<title>Node4</title>
<g id="a_node4"><a xlink:href="class_urho3_d_1_1_serializable.html" target="_top" xlink:title="Base class for objects with automatic serialization through attributes.">
<polygon fill="white" stroke="#666666" points="410.5,-384.5 305.5,-384.5 305.5,-365.5 410.5,-365.5 410.5,-384.5"/>
<text text-anchor="middle" x="358" y="-372.5" font-family="Roboto" font-size="10.00">Urho3D::Serializable</text>
</a>
</g>
</g>
<!-- Node4&#45;&gt;Node3 -->
<g id="edge3" class="edge">
<title>Node4&#45;&gt;Node3</title>
<path fill="none" stroke="#63b8ff" d="M422.04,-379.92C491.63,-385.34 602.32,-393.98 666.78,-399.01"/>
<polygon fill="#63b8ff" stroke="#63b8ff" points="422.57,-376.45 412.33,-379.16 422.02,-383.43 422.57,-376.45"/>
</g>
<!-- Node5 -->
<g id="node5" class="node">
<title>Node5</title>
<g id="a_node5"><a xlink:href="class_urho3_d_1_1_object.html" target="_top" xlink:title=" ">
<polygon fill="#fff0f0" stroke="red" points="105.5,-410.5 22.5,-410.5 22.5,-391.5 105.5,-391.5 105.5,-410.5"/>
<text text-anchor="middle" x="64" y="-398.5" font-family="Roboto" font-size="10.00">Urho3D::Object</text>
</a>
</g>
</g>
<!-- Node5&#45;&gt;Node4 -->
<g id="edge4" class="edge">
<title>Node5&#45;&gt;Node4</title>
<path fill="none" stroke="#63b8ff" d="M117.11,-396.36C170.18,-391.63 252.02,-384.35 305.04,-379.63"/>
<polygon fill="#63b8ff" stroke="#63b8ff" points="117.07,-392.85 107.42,-397.22 117.69,-399.82 117.07,-392.85"/>
</g>
<!-- Node27 -->
<g id="node6" class="node">
<title>Node27</title>
<g id="a_node6"><a xlink:href="class_urho3_d_1_1_unique_ptr.html" target="_top" xlink:title=" ">
<polygon fill="white" stroke="orangered" points="126.5,-373 1.5,-373 1.5,-343 126.5,-343 126.5,-373"/>
<text text-anchor="start" x="9.5" y="-361" font-family="Roboto" font-size="10.00">Urho3D::UniquePtr&lt;</text>
<text text-anchor="middle" x="64" y="-350" font-family="Roboto" font-size="10.00"> Urho3D::NetworkState &gt;</text>
</a>
</g>
</g>
<!-- Node27&#45;&gt;Node4 -->
<g id="edge5" class="edge">
<title>Node27&#45;&gt;Node4</title>
<path fill="none" stroke="#9a32cd" stroke-dasharray="5,2" d="M138.11,-362.26C190.2,-365.29 258.95,-369.29 305.4,-372"/>
<polygon fill="#9a32cd" stroke="#9a32cd" points="138.62,-358.78 128.44,-361.69 138.22,-365.77 138.62,-358.78"/>
<text text-anchor="middle" x="198.5" y="-372" font-family="Roboto" font-size="10.00"> networkState_</text>
</g>
<!-- Node32 -->
<g id="node7" class="node">
<title>Node32</title>
<g id="a_node7"><a xlink:href="class_urho3_d_1_1_unique_ptr.html" target="_top" xlink:title=" ">
<polygon fill="white" stroke="orangered" points="117.5,-325 10.5,-325 10.5,-295 117.5,-295 117.5,-325"/>
<text text-anchor="start" x="18.5" y="-313" font-family="Roboto" font-size="10.00">Urho3D::UniquePtr&lt;</text>
<text text-anchor="middle" x="64" y="-302" font-family="Roboto" font-size="10.00"> Urho3D::HashMap &gt;</text>
</a>
</g>
</g>
<!-- Node32&#45;&gt;Node4 -->
<g id="edge6" class="edge">
<title>Node32&#45;&gt;Node4</title>
<path fill="none" stroke="#9a32cd" stroke-dasharray="5,2" d="M128.46,-322.75C164.47,-330.13 210.33,-339.75 251,-349 273.17,-354.04 297.85,-360.07 317.81,-365.05"/>
<polygon fill="#9a32cd" stroke="#9a32cd" points="129.6,-319.41 119.1,-320.84 128.2,-326.27 129.6,-319.41"/>
<text text-anchor="middle" x="198.5" y="-352" font-family="Roboto" font-size="10.00"> instanceDefaultValues_</text>
</g>
<!-- Node34 -->
<g id="node8" class="node">
<title>Node34</title>
<g id="a_node8"><a xlink:href="class_urho3_d_1_1_shared_ptr.html" target="_top" xlink:title=" ">
<polygon fill="white" stroke="#666666" points="426.5,-446 289.5,-446 289.5,-416 426.5,-416 426.5,-446"/>
<text text-anchor="start" x="297.5" y="-434" font-family="Roboto" font-size="10.00">Urho3D::SharedPtr&lt;</text>
<text text-anchor="middle" x="358" y="-423" font-family="Roboto" font-size="10.00"> Urho3D::ObjectAnimation &gt;</text>
</a>
</g>
</g>
<!-- Node34&#45;&gt;Node3 -->
<g id="edge7" class="edge">
<title>Node34&#45;&gt;Node3</title>
<path fill="none" stroke="#9a32cd" stroke-dasharray="5,2" d="M438.28,-424.82C507.83,-419.39 606.92,-411.66 666.59,-407.01"/>
<polygon fill="#9a32cd" stroke="#9a32cd" points="438.15,-421.32 428.46,-425.58 438.7,-428.29 438.15,-421.32"/>
<text text-anchor="middle" x="538.5" y="-426" font-family="Roboto" font-size="10.00"> objectAnimation_</text>
</g>
<!-- Node35 -->
<g id="node9" class="node">
<title>Node35</title>
<g id="a_node9"><a xlink:href="class_urho3_d_1_1_object_animation.html" target="_top" xlink:title="Object animation class, an object animation include one or more attribute animations and theirs wrap ...">
<polygon fill="#fff0f0" stroke="red" points="128,-447.5 0,-447.5 0,-428.5 128,-428.5 128,-447.5"/>
<text text-anchor="middle" x="64" y="-435.5" font-family="Roboto" font-size="10.00">Urho3D::ObjectAnimation</text>
</a>
</g>
</g>
<!-- Node35&#45;&gt;Node34 -->
<g id="edge8" class="edge">
<title>Node35&#45;&gt;Node34</title>
<path fill="none" stroke="#9a32cd" stroke-dasharray="5,2" d="M139.79,-436.21C185.86,-435.1 244.46,-433.7 289.19,-432.63"/>
<polygon fill="#9a32cd" stroke="#9a32cd" points="139.79,-432.71 129.87,-436.44 139.95,-439.7 139.79,-432.71"/>
<text text-anchor="middle" x="198.5" y="-439" font-family="Roboto" font-size="10.00"> ptr_</text>
</g>
<!-- Node40 -->
<g id="node10" class="node">
<title>Node40</title>
<g id="a_node10"><a xlink:href="class_urho3_d_1_1_hash_set.html" target="_top" xlink:title=" ">
<polygon fill="white" stroke="#666666" points="421.5,-207 294.5,-207 294.5,-177 421.5,-177 421.5,-207"/>
<text text-anchor="start" x="302.5" y="-195" font-family="Roboto" font-size="10.00">Urho3D::HashSet&lt; const</text>
<text text-anchor="middle" x="358" y="-184" font-family="Roboto" font-size="10.00"> Urho3D::AttributeInfo * &gt;</text>
</a>
</g>
</g>
<!-- Node40&#45;&gt;Node3 -->
<g id="edge9" class="edge">
<title>Node40&#45;&gt;Node3</title>
<path fill="none" stroke="#9a32cd" stroke-dasharray="5,2" d="M432.95,-205.89C490.22,-220.53 567.12,-249.37 612,-304 635.13,-332.16 604.12,-358.34 630,-384 639.77,-393.68 653.22,-398.95 666.67,-401.7"/>
<polygon fill="#9a32cd" stroke="#9a32cd" points="433.78,-202.49 423.24,-203.51 432.12,-209.29 433.78,-202.49"/>
<text text-anchor="middle" x="538.5" y="-307" font-family="Roboto" font-size="10.00"> animatedNetworkAttributes_</text>
</g>
<!-- Node10 -->
<g id="node11" class="node">
<title>Node10</title>
<g id="a_node11"><a xlink:href="class_urho3_d_1_1_hash_base.html" target="_top" xlink:title="Hash set/map base class.">
<polygon fill="#fff0f0" stroke="red" points="114,-111.5 14,-111.5 14,-92.5 114,-92.5 114,-111.5"/>
<text text-anchor="middle" x="64" y="-99.5" font-family="Roboto" font-size="10.00">Urho3D::HashBase</text>
</a>
</g>
</g>
<!-- Node10&#45;&gt;Node40 -->
<g id="edge10" class="edge">
<title>Node10&#45;&gt;Node40</title>
<path fill="none" stroke="#63b8ff" d="M108.09,-115.28C161.1,-131.62 250.92,-159.3 306.93,-176.57"/>
<polygon fill="#63b8ff" stroke="#63b8ff" points="109.4,-112.02 98.81,-112.42 107.34,-118.71 109.4,-112.02"/>
</g>
<!-- Node41 -->
<g id="node12" class="node">
<title>Node41</title>
<g id="a_node12"><a xlink:href="class_urho3_d_1_1_hash_map.html" target="_top" xlink:title=" ">
<polygon fill="white" stroke="#666666" points="447,-320.5 269,-320.5 269,-279.5 447,-279.5 447,-320.5"/>
<text text-anchor="start" x="277" y="-308.5" font-family="Roboto" font-size="10.00">Urho3D::HashMap&lt; Urho3D</text>
<text text-anchor="start" x="277" y="-297.5" font-family="Roboto" font-size="10.00">::String, Urho3D::SharedPtr</text>
<text text-anchor="middle" x="358" y="-286.5" font-family="Roboto" font-size="10.00">&lt; Urho3D::AttributeAnimationInfo &gt; &gt;</text>
</a>
</g>
</g>
<!-- Node10&#45;&gt;Node41 -->
<g id="edge12" class="edge">
<title>Node10&#45;&gt;Node41</title>
<path fill="none" stroke="#63b8ff" d="M88.53,-118.38C104.66,-129.59 126.59,-144.76 146,-158 209.65,-201.42 284.57,-251.62 325.81,-279.19"/>
<polygon fill="#63b8ff" stroke="#63b8ff" points="90.75,-115.67 80.54,-112.83 86.76,-121.41 90.75,-115.67"/>
</g>
<!-- Node45 -->
<g id="node16" class="node">
<title>Node45</title>
<g id="a_node16"><a xlink:href="class_urho3_d_1_1_hash_map.html" target="_top" xlink:title=" ">
<polygon fill="white" stroke="#666666" points="612,-76 465,-76 465,-46 612,-46 612,-76"/>
<text text-anchor="start" x="473" y="-64" font-family="Roboto" font-size="10.00">Urho3D::HashMap&lt; unsigned,</text>
<text text-anchor="middle" x="538.5" y="-53" font-family="Roboto" font-size="10.00"> Urho3D::Node * &gt;</text>
</a>
</g>
</g>
<!-- Node10&#45;&gt;Node45 -->
<g id="edge21" class="edge">
<title>Node10&#45;&gt;Node45</title>
<path fill="none" stroke="#63b8ff" d="M125.35,-90.87C132.3,-89.8 139.29,-88.81 146,-88 256.76,-74.64 386.01,-67.33 464.77,-63.79"/>
<polygon fill="#63b8ff" stroke="#63b8ff" points="124.95,-87.39 115.64,-92.44 126.07,-94.3 124.95,-87.39"/>
</g>
<!-- Node46 -->
<g id="node17" class="node">
<title>Node46</title>
<g id="a_node17"><a xlink:href="class_urho3_d_1_1_hash_map.html" target="_top" xlink:title=" ">
<polygon fill="white" stroke="#666666" points="973,-30 826,-30 826,0 973,0 973,-30"/>
<text text-anchor="start" x="834" y="-18" font-family="Roboto" font-size="10.00">Urho3D::HashMap&lt; unsigned,</text>
<text text-anchor="middle" x="899.5" y="-7" font-family="Roboto" font-size="10.00"> Urho3D::Component * &gt;</text>
</a>
</g>
</g>
<!-- Node10&#45;&gt;Node46 -->
<g id="edge23" class="edge">
<title>Node10&#45;&gt;Node46</title>
<path fill="none" stroke="#63b8ff" d="M100.11,-88C114.18,-82.88 130.66,-77.5 146,-74 390.51,-18.26 689.98,-12.88 825.59,-13.72"/>
<polygon fill="#63b8ff" stroke="#63b8ff" points="98.97,-84.69 90.83,-91.47 101.42,-91.24 98.97,-84.69"/>
</g>
<!-- Node25 -->
<g id="node18" class="node">
<title>Node25</title>
<g id="a_node18"><a xlink:href="class_urho3_d_1_1_hash_map.html" target="_top" xlink:title=" ">
<polygon fill="white" stroke="#666666" points="797,-117 641,-117 641,-87 797,-87 797,-117"/>
<text text-anchor="start" x="649" y="-105" font-family="Roboto" font-size="10.00">Urho3D::HashMap&lt; StringHash,</text>
<text text-anchor="middle" x="719" y="-94" font-family="Roboto" font-size="10.00"> Variant &gt;</text>
</a>
</g>
</g>
<!-- Node10&#45;&gt;Node25 -->
<g id="edge25" class="edge">
<title>Node10&#45;&gt;Node25</title>
<path fill="none" stroke="#63b8ff" d="M125.76,-102C244.92,-102 509.09,-102 640.56,-102"/>
<polygon fill="#63b8ff" stroke="#63b8ff" points="125.86,-98.5 115.86,-102 125.86,-105.5 125.86,-98.5"/>
</g>
<!-- Node41&#45;&gt;Node3 -->
<g id="edge11" class="edge">
<title>Node41&#45;&gt;Node3</title>
<path fill="none" stroke="#9a32cd" stroke-dasharray="5,2" d="M458.41,-316.81C506.61,-327.49 564.24,-344.11 612,-369 621.23,-373.81 620.64,-379.44 630,-384 641.38,-389.55 654.37,-393.49 666.81,-396.28"/>
<polygon fill="#9a32cd" stroke="#9a32cd" points="459.33,-313.43 448.81,-314.74 457.85,-320.27 459.33,-313.43"/>
<text text-anchor="middle" x="538.5" y="-372" font-family="Roboto" font-size="10.00"> attributeAnimationInfos_</text>
</g>
<!-- Node42&#45;&gt;Node2 -->
<g id="edge13" class="edge">
<title>Node42&#45;&gt;Node2</title>
<path fill="none" stroke="#9a32cd" stroke-dasharray="5,2" d="M1066.28,-276.53C1117.28,-315.24 1243.27,-410.84 1284.33,-442"/>
<polygon fill="#9a32cd" stroke="#9a32cd" points="1068.68,-273.96 1058.6,-270.7 1064.45,-279.53 1068.68,-273.96"/>
<text text-anchor="middle" x="1170.5" y="-399" font-family="Roboto" font-size="10.00"> node_</text>
</g>
<!-- Node42&#45;&gt;Node42 -->
<g id="edge17" class="edge">
<title>Node42&#45;&gt;Node42</title>
<path fill="none" stroke="#9a32cd" stroke-dasharray="5,2" d="M1020.96,-280.93C1023.78,-284.79 1031.29,-287.5 1043.5,-287.5 1065.82,-287.5 1072.45,-278.44 1063.38,-269.87"/>
<polygon fill="#9a32cd" stroke="#9a32cd" points="1024.33,-281.88 1023.26,-271.34 1017.52,-280.24 1024.33,-281.88"/>
<text text-anchor="middle" x="1043.5" y="-290.5" font-family="Roboto" font-size="10.00"> parent_</text>
</g>
<!-- Node44 -->
<g id="node15" class="node">
<title>Node44</title>
<g id="a_node15"><a xlink:href="class_urho3_d_1_1_scene.html" target="_top" xlink:title="Root scene node, represents the whole scene.">
<polygon fill="#fff0f0" stroke="red" points="1339.5,-114.5 1257.5,-114.5 1257.5,-95.5 1339.5,-95.5 1339.5,-114.5"/>
<text text-anchor="middle" x="1298.5" y="-102.5" font-family="Roboto" font-size="10.00">Urho3D::Scene</text>
</a>
</g>
</g>
<!-- Node42&#45;&gt;Node44 -->
<g id="edge19" class="edge">
<title>Node42&#45;&gt;Node44</title>
<path fill="none" stroke="#63b8ff" d="M1095.22,-255.36C1134.31,-249.66 1188.08,-237.01 1227,-209 1262.06,-183.77 1285.06,-135.36 1293.68,-114.71"/>
<polygon fill="#63b8ff" stroke="#63b8ff" points="1094.8,-251.88 1085.35,-256.68 1095.73,-258.82 1094.8,-251.88"/>
</g>
<!-- Node43 -->
<g id="node14" class="node">
<title>Node43</title>
<g id="a_node14"><a xlink:href="class_urho3_d_1_1_matrix3x4.html" target="_top" xlink:title="3x4 matrix for scene node transform calculations.">
<polygon fill="white" stroke="#666666" points="768.5,-457.5 669.5,-457.5 669.5,-438.5 768.5,-438.5 768.5,-457.5"/>
<text text-anchor="middle" x="719" y="-445.5" font-family="Roboto" font-size="10.00">Urho3D::Matrix3x4</text>
</a>
</g>
</g>
<!-- Node43&#45;&gt;Node1 -->
<g id="edge35" class="edge">
<title>Node43&#45;&gt;Node1</title>
<path fill="none" stroke="#9a32cd" stroke-dasharray="5,2" d="M780.16,-457.91C795.11,-460.14 811.11,-462.34 826,-464 1049.3,-488.93 1314.86,-491.43 1445.58,-490.88"/>
<polygon fill="#9a32cd" stroke="#9a32cd" points="780.89,-454.48 770.47,-456.43 779.83,-461.4 780.89,-454.48"/>
<text text-anchor="middle" x="1170.5" y="-492" font-family="Roboto" font-size="10.00"> transform_</text>
</g>
<!-- Node43&#45;&gt;Node42 -->
<g id="edge15" class="edge">
<title>Node43&#45;&gt;Node42</title>
<path fill="none" stroke="#9a32cd" stroke-dasharray="5,2" d="M779.64,-437.19C789.91,-433.33 799.87,-428.1 808,-421 822.38,-408.44 810.77,-393.5 826,-382 878.77,-342.15 916.87,-393.96 973,-359 1008.12,-337.13 1030.34,-290.29 1038.72,-269.87"/>
<polygon fill="#9a32cd" stroke="#9a32cd" points="778.74,-433.8 770.34,-440.26 780.93,-440.45 778.74,-433.8"/>
<text text-anchor="middle" x="899.5" y="-385" font-family="Roboto" font-size="10.00"> worldTransform_</text>
</g>
<!-- Node43&#45;&gt;Node43 -->
<g id="edge16" class="edge">
<title>Node43&#45;&gt;Node43</title>
<path fill="none" stroke="#9a32cd" stroke-dasharray="5,2" d="M686.63,-468.6C690.36,-472.63 701.15,-475.5 719,-475.5 750.73,-475.5 760.15,-466.44 747.26,-457.87"/>
<polygon fill="#9a32cd" stroke="#9a32cd" points="689.89,-469.87 690.2,-459.28 683.36,-467.37 689.89,-469.87"/>
<text text-anchor="middle" x="719" y="-489.5" font-family="Roboto" font-size="10.00"> IDENTITY</text>
<text text-anchor="middle" x="719" y="-478.5" font-family="Roboto" font-size="10.00">ZERO</text>
</g>
<!-- Node44&#45;&gt;Node42 -->
<g id="edge18" class="edge">
<title>Node44&#45;&gt;Node42</title>
<path fill="none" stroke="#9a32cd" stroke-dasharray="5,2" d="M1262.7,-119.39C1224.64,-135.84 1162.6,-164.84 1114,-198 1090.49,-214.04 1066.46,-237.33 1053.73,-250.32"/>
<polygon fill="#9a32cd" stroke="#9a32cd" points="1264.02,-122.63 1271.84,-115.48 1261.27,-116.19 1264.02,-122.63"/>
<text text-anchor="middle" x="1170.5" y="-201" font-family="Roboto" font-size="10.00"> scene_</text>
</g>
<!-- Node45&#45;&gt;Node44 -->
<g id="edge20" class="edge">
<title>Node45&#45;&gt;Node44</title>
<path fill="none" stroke="#9a32cd" stroke-dasharray="5,2" d="M623.86,-62.89C711.27,-65.13 851.78,-69.54 973,-77 1075.44,-83.31 1195.73,-94.74 1257.08,-100.87"/>
<polygon fill="#9a32cd" stroke="#9a32cd" points="624.02,-59.39 613.93,-62.64 623.84,-66.39 624.02,-59.39"/>
<text text-anchor="middle" x="899.5" y="-91" font-family="Roboto" font-size="10.00"> localNodes_</text>
<text text-anchor="middle" x="899.5" y="-80" font-family="Roboto" font-size="10.00">replicatedNodes_</text>
</g>
<!-- Node46&#45;&gt;Node44 -->
<g id="edge22" class="edge">
<title>Node46&#45;&gt;Node44</title>
<path fill="none" stroke="#9a32cd" stroke-dasharray="5,2" d="M984.35,-7.55C1052.8,-4.94 1150.38,-9.32 1227,-45 1252.94,-57.08 1276.89,-81.37 1289.08,-95.05"/>
<polygon fill="#9a32cd" stroke="#9a32cd" points="984.55,-4.04 974.71,-7.98 984.86,-11.03 984.55,-4.04"/>
<text text-anchor="middle" x="1043.5" y="-25" font-family="Roboto" font-size="10.00"> localComponents_</text>
<text text-anchor="middle" x="1043.5" y="-14" font-family="Roboto" font-size="10.00">replicatedComponents_</text>
</g>
<!-- Node25&#45;&gt;Node42 -->
<g id="edge34" class="edge">
<title>Node25&#45;&gt;Node42</title>
<path fill="none" stroke="#9a32cd" stroke-dasharray="5,2" d="M808.38,-114.88C878.54,-125.39 966.02,-139.25 973,-144 1012.2,-170.69 1032.81,-227.48 1039.76,-250.26"/>
<polygon fill="#9a32cd" stroke="#9a32cd" points="809.19,-111.46 798.78,-113.45 808.15,-118.39 809.19,-111.46"/>
<text text-anchor="middle" x="899.5" y="-147" font-family="Roboto" font-size="10.00"> vars_</text>
</g>
<!-- Node25&#45;&gt;Node44 -->
<g id="edge24" class="edge">
<title>Node25&#45;&gt;Node44</title>
<path fill="none" stroke="#9a32cd" stroke-dasharray="5,2" d="M808.5,-102.46C935.55,-103.12 1164.5,-104.31 1257.05,-104.79"/>
<polygon fill="#9a32cd" stroke="#9a32cd" points="808.82,-98.96 798.8,-102.41 808.78,-105.96 808.82,-98.96"/>
<text text-anchor="middle" x="1043.5" y="-107" font-family="Roboto" font-size="10.00"> smoothingData_</text>
</g>
<!-- Node74 -->
<g id="node19" class="node">
<title>Node74</title>
<g id="a_node19"><a xlink:href="class_urho3_d_1_1_vector3.html" target="_top" xlink:title="Three&#45;dimensional vector.">
<polygon fill="white" stroke="#666666" points="763.5,-538.5 674.5,-538.5 674.5,-519.5 763.5,-519.5 763.5,-538.5"/>
<text text-anchor="middle" x="719" y="-526.5" font-family="Roboto" font-size="10.00">Urho3D::Vector3</text>
</a>
</g>
</g>
<!-- Node74&#45;&gt;Node42 -->
<g id="edge26" class="edge">
<title>Node74&#45;&gt;Node42</title>
<path fill="none" stroke="#9a32cd" stroke-dasharray="5,2" d="M774.58,-520.69C786.13,-517.5 797.88,-513.09 808,-507 818.25,-500.84 816.88,-494.74 826,-487 885.14,-436.84 920.61,-450.18 973,-393 1008.73,-354.01 1031.49,-293.22 1039.39,-269.73"/>
<polygon fill="#9a32cd" stroke="#9a32cd" points="773.96,-517.24 765.09,-523.03 775.64,-524.03 773.96,-517.24"/>
<text text-anchor="middle" x="899.5" y="-501" font-family="Roboto" font-size="10.00"> position_</text>
<text text-anchor="middle" x="899.5" y="-490" font-family="Roboto" font-size="10.00">scale_</text>
</g>
<!-- Node74&#45;&gt;Node74 -->
<g id="edge27" class="edge">
<title>Node74&#45;&gt;Node74</title>
<path fill="none" stroke="#9a32cd" stroke-dasharray="5,2" d="M686.63,-549.6C690.36,-553.63 701.15,-556.5 719,-556.5 750.73,-556.5 760.15,-547.44 747.26,-538.87"/>
<polygon fill="#9a32cd" stroke="#9a32cd" points="689.89,-550.87 690.2,-540.28 683.36,-548.37 689.89,-550.87"/>
<text text-anchor="middle" x="719" y="-636.5" font-family="Roboto" font-size="10.00"> BACK</text>
<text text-anchor="middle" x="719" y="-625.5" font-family="Roboto" font-size="10.00">DOWN</text>
<text text-anchor="middle" x="719" y="-614.5" font-family="Roboto" font-size="10.00">FORWARD</text>
<text text-anchor="middle" x="719" y="-603.5" font-family="Roboto" font-size="10.00">LEFT</text>
<text text-anchor="middle" x="719" y="-592.5" font-family="Roboto" font-size="10.00">ONE</text>
<text text-anchor="middle" x="719" y="-581.5" font-family="Roboto" font-size="10.00">RIGHT</text>
<text text-anchor="middle" x="719" y="-570.5" font-family="Roboto" font-size="10.00">UP</text>
<text text-anchor="middle" x="719" y="-559.5" font-family="Roboto" font-size="10.00">ZERO</text>
</g>
<!-- Node97 -->
<g id="node25" class="node">
<title>Node97</title>
<g id="a_node25"><a xlink:href="class_urho3_d_1_1_bounding_box.html" target="_top" xlink:title=" ">
<polygon fill="white" stroke="#666666" points="1227,-543.5 1114,-543.5 1114,-524.5 1227,-524.5 1227,-543.5"/>
<text text-anchor="middle" x="1170.5" y="-531.5" font-family="Roboto" font-size="10.00">Urho3D::BoundingBox</text>
</a>
</g>
</g>
<!-- Node74&#45;&gt;Node97 -->
<g id="edge37" class="edge">
<title>Node74&#45;&gt;Node97</title>
<path fill="none" stroke="#9a32cd" stroke-dasharray="5,2" d="M775.29,-529.61C861.48,-530.57 1026.94,-532.41 1113.54,-533.38"/>
<polygon fill="#9a32cd" stroke="#9a32cd" points="775.47,-526.12 765.43,-529.51 775.39,-533.12 775.47,-526.12"/>
<text text-anchor="middle" x="899.5" y="-545" font-family="Roboto" font-size="10.00"> max_</text>
<text text-anchor="middle" x="899.5" y="-534" font-family="Roboto" font-size="10.00">min_</text>
</g>
<!-- Node75 -->
<g id="node20" class="node">
<title>Node75</title>
<g id="a_node20"><a xlink:href="class_urho3_d_1_1_quaternion.html" target="_top" xlink:title="Rotation represented as a four&#45;dimensional normalized vector.">
<polygon fill="white" stroke="#666666" points="770.5,-346.5 667.5,-346.5 667.5,-327.5 770.5,-327.5 770.5,-346.5"/>
<text text-anchor="middle" x="719" y="-334.5" font-family="Roboto" font-size="10.00">Urho3D::Quaternion</text>
</a>
</g>
</g>
<!-- Node75&#45;&gt;Node42 -->
<g id="edge28" class="edge">
<title>Node75&#45;&gt;Node42</title>
<path fill="none" stroke="#9a32cd" stroke-dasharray="5,2" d="M781.63,-324.59C790.52,-322.54 799.52,-320.32 808,-318 816.13,-315.77 817.81,-313.99 826,-312 890.26,-296.38 909.36,-306.97 973,-289 990.11,-284.17 1008.66,-276.28 1022.28,-269.96"/>
<polygon fill="#9a32cd" stroke="#9a32cd" points="780.96,-321.15 771.97,-326.76 782.49,-327.98 780.96,-321.15"/>
<text text-anchor="middle" x="899.5" y="-326" font-family="Roboto" font-size="10.00"> rotation_</text>
<text text-anchor="middle" x="899.5" y="-315" font-family="Roboto" font-size="10.00">worldRotation_</text>
</g>
<!-- Node75&#45;&gt;Node75 -->
<g id="edge29" class="edge">
<title>Node75&#45;&gt;Node75</title>
<path fill="none" stroke="#9a32cd" stroke-dasharray="5,2" d="M686.63,-357.6C690.36,-361.63 701.15,-364.5 719,-364.5 750.73,-364.5 760.15,-355.44 747.26,-346.87"/>
<polygon fill="#9a32cd" stroke="#9a32cd" points="689.89,-358.87 690.2,-348.28 683.36,-356.37 689.89,-358.87"/>
<text text-anchor="middle" x="719" y="-367.5" font-family="Roboto" font-size="10.00"> IDENTITY</text>
</g>
<!-- Node76 -->
<g id="node21" class="node">
<title>Node76</title>
<g id="a_node21"><a xlink:href="class_urho3_d_1_1_vector.html" target="_top" xlink:title=" ">
<polygon fill="white" stroke="orangered" points="808,-309 630,-309 630,-279 808,-279 808,-309"/>
<text text-anchor="start" x="638" y="-297" font-family="Roboto" font-size="10.00">Urho3D::Vector&lt; Urho3D</text>
<text text-anchor="middle" x="719" y="-286" font-family="Roboto" font-size="10.00">::SharedPtr&lt; Urho3D::Component &gt; &gt;</text>
</a>
</g>
</g>
<!-- Node76&#45;&gt;Node42 -->
<g id="edge30" class="edge">
<title>Node76&#45;&gt;Node42</title>
<path fill="none" stroke="#9a32cd" stroke-dasharray="5,2" d="M819.76,-278.75C821.86,-278.49 823.94,-278.24 826,-278 887.81,-270.77 959.88,-265.38 1003.31,-262.47"/>
<polygon fill="#9a32cd" stroke="#9a32cd" points="819.41,-275.27 809.93,-280.01 820.3,-282.21 819.41,-275.27"/>
<text text-anchor="middle" x="899.5" y="-281" font-family="Roboto" font-size="10.00"> components_</text>
</g>
<!-- Node77 -->
<g id="node22" class="node">
<title>Node77</title>
<g id="a_node22"><a xlink:href="class_urho3_d_1_1_vector.html" target="_top" xlink:title=" ">
<polygon fill="white" stroke="orangered" points="794.5,-261 643.5,-261 643.5,-231 794.5,-231 794.5,-261"/>
<text text-anchor="start" x="651.5" y="-249" font-family="Roboto" font-size="10.00">Urho3D::Vector&lt; Urho3D</text>
<text text-anchor="middle" x="719" y="-238" font-family="Roboto" font-size="10.00">::SharedPtr&lt; Urho3D::Node &gt; &gt;</text>
</a>
</g>
</g>
<!-- Node77&#45;&gt;Node42 -->
<g id="edge31" class="edge">
<title>Node77&#45;&gt;Node42</title>
<path fill="none" stroke="#9a32cd" stroke-dasharray="5,2" d="M806.18,-240.17C855.23,-238.14 917.73,-237.72 973,-244 983.95,-245.24 995.69,-247.56 1006.34,-250.05"/>
<polygon fill="#9a32cd" stroke="#9a32cd" points="806.32,-236.66 796.49,-240.61 806.63,-243.66 806.32,-236.66"/>
<text text-anchor="middle" x="899.5" y="-247" font-family="Roboto" font-size="10.00"> children_</text>
</g>
<!-- Node78 -->
<g id="node23" class="node">
<title>Node78</title>
<g id="a_node23"><a xlink:href="class_urho3_d_1_1_vector.html" target="_top" xlink:title=" ">
<polygon fill="white" stroke="orangered" points="805,-213 633,-213 633,-183 805,-183 805,-213"/>
<text text-anchor="start" x="641" y="-201" font-family="Roboto" font-size="10.00">Urho3D::Vector&lt; Urho3D</text>
<text text-anchor="middle" x="719" y="-190" font-family="Roboto" font-size="10.00">::WeakPtr&lt; Urho3D::Component &gt; &gt;</text>
</a>
</g>
</g>
<!-- Node78&#45;&gt;Node42 -->
<g id="edge32" class="edge">
<title>Node78&#45;&gt;Node42</title>
<path fill="none" stroke="#9a32cd" stroke-dasharray="5,2" d="M816.61,-199.45C864.48,-202.3 922.67,-208.97 973,-224 992.92,-229.95 1013.86,-241.65 1027.48,-250.1"/>
<polygon fill="#9a32cd" stroke="#9a32cd" points="816.99,-195.97 806.81,-198.93 816.61,-202.96 816.99,-195.97"/>
<text text-anchor="middle" x="899.5" y="-227" font-family="Roboto" font-size="10.00"> listeners_</text>
</g>
<!-- Node79 -->
<g id="node24" class="node">
<title>Node79</title>
<g id="a_node24"><a xlink:href="class_urho3_d_1_1_unique_ptr.html" target="_top" xlink:title=" ">
<polygon fill="white" stroke="orangered" points="773.5,-165 664.5,-165 664.5,-135 773.5,-135 773.5,-165"/>
<text text-anchor="start" x="672.5" y="-153" font-family="Roboto" font-size="10.00">Urho3D::UniquePtr&lt;</text>
<text text-anchor="middle" x="719" y="-142" font-family="Roboto" font-size="10.00"> Urho3D::NodeImpl &gt;</text>
</a>
</g>
</g>
<!-- Node79&#45;&gt;Node42 -->
<g id="edge33" class="edge">
<title>Node79&#45;&gt;Node42</title>
<path fill="none" stroke="#9a32cd" stroke-dasharray="5,2" d="M784.92,-154.34C848.78,-159.48 941.2,-169.48 973,-186 1002.25,-201.19 1025.85,-233.67 1036.45,-250.08"/>
<polygon fill="#9a32cd" stroke="#9a32cd" points="785.49,-150.87 775.25,-153.58 784.95,-157.85 785.49,-150.87"/>
<text text-anchor="middle" x="899.5" y="-189" font-family="Roboto" font-size="10.00"> impl_</text>
</g>
<!-- Node97&#45;&gt;Node1 -->
<g id="edge36" class="edge">
<title>Node97&#45;&gt;Node1</title>
<path fill="none" stroke="#9a32cd" stroke-dasharray="5,2" d="M1238.7,-526.6C1290.48,-520.79 1363.82,-512.31 1428,-504 1437.68,-502.75 1447.88,-501.36 1457.91,-499.97"/>
<polygon fill="#9a32cd" stroke="#9a32cd" points="1238.39,-523.11 1228.84,-527.7 1239.17,-530.07 1238.39,-523.11"/>
<text text-anchor="middle" x="1298.5" y="-528" font-family="Roboto" font-size="10.00"> boundingBox_</text>
</g>
</g>
</svg>
