<?xml version="1.0" encoding="UTF-8" standalone="no"?>
<!DOCTYPE svg PUBLIC "-//W3C//DTD SVG 1.1//EN"
 "http://www.w3.org/Graphics/SVG/1.1/DTD/svg11.dtd">
<!-- Generated by graphviz version 7.0.3 (0)
 -->
<!-- Title: Urho3D::ResourceRef Pages: 1 -->
<svg width="310pt" height="93pt"
 viewBox="0.00 0.00 310.00 93.00" xmlns="http://www.w3.org/2000/svg" xmlns:xlink="http://www.w3.org/1999/xlink">
<g id="graph0" class="graph" transform="scale(1 1) rotate(0) translate(4 89)">
<title>Urho3D::ResourceRef</title>
<!-- Node1 -->
<g id="node1" class="node">
<title>Node1</title>
<g id="a_node1"><a xlink:title="Typed resource reference.">
<polygon fill="#999999" stroke="#666666" points="185.5,-19 74.5,-19 74.5,0 185.5,0 185.5,-19"/>
<text text-anchor="middle" x="130" y="-7" font-family="Roboto" font-size="10.00">Urho3D::ResourceRef</text>
</a>
</g>
</g>
<!-- Node2 -->
<g id="node2" class="node">
<title>Node2</title>
<g id="a_node2"><a xlink:href="class_urho3_d_1_1_string_hash.html" target="_top" xlink:title="32&#45;bit hash value for a string.">
<polygon fill="white" stroke="#666666" points="104,-85 0,-85 0,-66 104,-66 104,-85"/>
<text text-anchor="middle" x="52" y="-73" font-family="Roboto" font-size="10.00">Urho3D::StringHash</text>
</a>
</g>
</g>
<!-- Node2&#45;&gt;Node1 -->
<g id="edge1" class="edge">
<title>Node2&#45;&gt;Node1</title>
<path fill="none" stroke="#9a32cd" stroke-dasharray="5,2" d="M71.45,-58.54C86.56,-46.14 106.95,-29.42 119.25,-19.32"/>
<polygon fill="#9a32cd" stroke="#9a32cd" points="69.53,-55.59 64.02,-64.64 73.97,-61 69.53,-55.59"/>
<text text-anchor="middle" x="108.5" y="-40" font-family="Roboto" font-size="10.00"> type_</text>
</g>
<!-- Node2&#45;&gt;Node2 -->
<g id="edge2" class="edge">
<title>Node2&#45;&gt;Node2</title>
<path fill="none" stroke="#9a32cd" stroke-dasharray="5,2" d="M115.43,-79.89C119.52,-78.86 122,-77.4 122,-75.5 122,-72.21 114.59,-70.24 104.2,-69.57"/>
<polygon fill="#9a32cd" stroke="#9a32cd" points="115.13,-76.4 105.7,-81.23 116.09,-83.33 115.13,-76.4"/>
<text text-anchor="middle" x="136" y="-73" font-family="Roboto" font-size="10.00"> ZERO</text>
</g>
<!-- Node3 -->
<g id="node3" class="node">
<title>Node3</title>
<g id="a_node3"><a xlink:href="class_urho3_d_1_1_string.html" target="_top" xlink:title="String class.">
<polygon fill="white" stroke="#666666" points="248,-85 168,-85 168,-66 248,-66 248,-85"/>
<text text-anchor="middle" x="208" y="-73" font-family="Roboto" font-size="10.00">Urho3D::String</text>
</a>
</g>
</g>
<!-- Node3&#45;&gt;Node1 -->
<g id="edge3" class="edge">
<title>Node3&#45;&gt;Node1</title>
<path fill="none" stroke="#9a32cd" stroke-dasharray="5,2" d="M188.55,-58.54C173.44,-46.14 153.05,-29.42 140.75,-19.32"/>
<polygon fill="#9a32cd" stroke="#9a32cd" points="186.03,-61 195.98,-64.64 190.47,-55.59 186.03,-61"/>
<text text-anchor="middle" x="189" y="-40" font-family="Roboto" font-size="10.00"> name_</text>
</g>
<!-- Node3&#45;&gt;Node3 -->
<g id="edge4" class="edge">
<title>Node3&#45;&gt;Node3</title>
<path fill="none" stroke="#9a32cd" stroke-dasharray="5,2" d="M259.74,-80.12C263.62,-79.09 266,-77.55 266,-75.5 266,-71.86 258.47,-69.82 248.39,-69.4"/>
<polygon fill="#9a32cd" stroke="#9a32cd" points="259.35,-76.64 249.89,-81.41 260.26,-83.58 259.35,-76.64"/>
<text text-anchor="middle" x="284" y="-73" font-family="Roboto" font-size="10.00"> EMPTY</text>
</g>
</g>
</svg>
