<?xml version="1.0" encoding="UTF-8" standalone="no"?>
<!DOCTYPE svg PUBLIC "-//W3C//DTD SVG 1.1//EN"
 "http://www.w3.org/Graphics/SVG/1.1/DTD/svg11.dtd">
<!-- Generated by graphviz version 7.0.3 (0)
 -->
<!-- Title: Urho3D::AsyncProgress Pages: 1 -->
<svg width="2156pt" height="451pt"
 viewBox="0.00 0.00 2156.00 450.50" xmlns="http://www.w3.org/2000/svg" xmlns:xlink="http://www.w3.org/1999/xlink">
<g id="graph0" class="graph" transform="scale(1 1) rotate(0) translate(4 446.5)">
<title>Urho3D::AsyncProgress</title>
<!-- Node1 -->
<g id="node1" class="node">
<title>Node1</title>
<g id="a_node1"><a xlink:title="Asynchronous loading progress of a scene.">
<polygon fill="#999999" stroke="#666666" points="2148,-238 2027,-238 2027,-219 2148,-219 2148,-238"/>
<text text-anchor="middle" x="2087.5" y="-226" font-family="Roboto" font-size="10.00">Urho3D::AsyncProgress</text>
</a>
</g>
</g>
<!-- Node2 -->
<g id="node2" class="node">
<title>Node2</title>
<g id="a_node2"><a xlink:href="class_urho3_d_1_1_shared_ptr.html" target="_top" xlink:title=" ">
<polygon fill="white" stroke="#666666" points="1242,-362.5 1138,-362.5 1138,-332.5 1242,-332.5 1242,-362.5"/>
<text text-anchor="start" x="1146" y="-350.5" font-family="Roboto" font-size="10.00">Urho3D::SharedPtr&lt;</text>
<text text-anchor="middle" x="1190" y="-339.5" font-family="Roboto" font-size="10.00"> Urho3D::File &gt;</text>
</a>
</g>
</g>
<!-- Node2&#45;&gt;Node1 -->
<g id="edge1" class="edge">
<title>Node2&#45;&gt;Node1</title>
<path fill="none" stroke="#9a32cd" stroke-dasharray="5,2" d="M1253.72,-346.05C1308.85,-344.91 1391.24,-343.5 1463,-343.5 1463,-343.5 1463,-343.5 1865,-343.5 1955.99,-343.5 2046.75,-266.12 2076.43,-238.3"/>
<polygon fill="#9a32cd" stroke="#9a32cd" points="1253.82,-342.55 1243.9,-346.26 1253.97,-349.55 1253.82,-342.55"/>
<text text-anchor="middle" x="1595" y="-346.5" font-family="Roboto" font-size="10.00"> file_</text>
</g>
<!-- Node3 -->
<g id="node3" class="node">
<title>Node3</title>
<g id="a_node3"><a xlink:href="class_urho3_d_1_1_file.html" target="_top" xlink:title="File opened either through the filesystem or from within a package file.">
<polygon fill="white" stroke="#666666" points="914.5,-379 844.5,-379 844.5,-360 914.5,-360 914.5,-379"/>
<text text-anchor="middle" x="879.5" y="-367" font-family="Roboto" font-size="10.00">Urho3D::File</text>
</a>
</g>
</g>
<!-- Node3&#45;&gt;Node2 -->
<g id="edge2" class="edge">
<title>Node3&#45;&gt;Node2</title>
<path fill="none" stroke="#9a32cd" stroke-dasharray="5,2" d="M926.43,-366.22C982.96,-362.19 1078.67,-355.37 1137.6,-351.17"/>
<polygon fill="#9a32cd" stroke="#9a32cd" points="926.23,-362.73 916.5,-366.93 926.72,-369.71 926.23,-362.73"/>
<text text-anchor="middle" x="981" y="-366.5" font-family="Roboto" font-size="10.00"> ptr_</text>
</g>
<!-- Node4 -->
<g id="node4" class="node">
<title>Node4</title>
<g id="a_node4"><a xlink:href="class_urho3_d_1_1_object.html" target="_top" xlink:title=" ">
<polygon fill="white" stroke="#666666" points="773,-306 690,-306 690,-287 773,-287 773,-306"/>
<text text-anchor="middle" x="731.5" y="-294" font-family="Roboto" font-size="10.00">Urho3D::Object</text>
</a>
</g>
</g>
<!-- Node4&#45;&gt;Node3 -->
<g id="edge3" class="edge">
<title>Node4&#45;&gt;Node3</title>
<path fill="none" stroke="#63b8ff" d="M762.42,-311.46C791.22,-325.86 833.96,-347.23 858.75,-359.62"/>
<polygon fill="#63b8ff" stroke="#63b8ff" points="764.36,-308.52 753.85,-307.17 761.23,-314.78 764.36,-308.52"/>
</g>
<!-- Node33 -->
<g id="node14" class="node">
<title>Node33</title>
<g id="a_node14"><a xlink:href="class_urho3_d_1_1_resource.html" target="_top" xlink:title=" ">
<polygon fill="#fff0f0" stroke="red" points="927.5,-279 831.5,-279 831.5,-260 927.5,-260 927.5,-279"/>
<text text-anchor="middle" x="879.5" y="-267" font-family="Roboto" font-size="10.00">Urho3D::Resource</text>
</a>
</g>
</g>
<!-- Node4&#45;&gt;Node33 -->
<g id="edge16" class="edge">
<title>Node4&#45;&gt;Node33</title>
<path fill="none" stroke="#63b8ff" d="M784.48,-286.89C799.67,-284.08 816.19,-281.02 831.08,-278.27"/>
<polygon fill="#63b8ff" stroke="#63b8ff" points="783.85,-283.44 774.66,-288.7 785.13,-290.33 783.85,-283.44"/>
</g>
<!-- Node5 -->
<g id="node5" class="node">
<title>Node5</title>
<g id="a_node5"><a xlink:href="class_urho3_d_1_1_ref_counted.html" target="_top" xlink:title="Base class for intrusively reference&#45;counted objects. These are noncopyable and non&#45;assignable.">
<polygon fill="white" stroke="#666666" points="285,-289 178,-289 178,-270 285,-270 285,-289"/>
<text text-anchor="middle" x="231.5" y="-277" font-family="Roboto" font-size="10.00">Urho3D::RefCounted</text>
</a>
</g>
</g>
<!-- Node5&#45;&gt;Node4 -->
<g id="edge4" class="edge">
<title>Node5&#45;&gt;Node4</title>
<path fill="none" stroke="#63b8ff" d="M296.71,-282.26C298.83,-282.34 300.93,-282.42 303,-282.5 444.92,-287.84 613.38,-293.02 689.53,-295.29"/>
<polygon fill="#63b8ff" stroke="#63b8ff" points="296.88,-278.76 286.75,-281.86 296.6,-285.76 296.88,-278.76"/>
</g>
<!-- Node7 -->
<g id="node7" class="node">
<title>Node7</title>
<g id="a_node7"><a xlink:href="class_urho3_d_1_1_context.html" target="_top" xlink:title="Urho3D execution context. Provides access to subsystems, object factories and attributes,...">
<polygon fill="#fff0f0" stroke="red" points="551.5,-268 462.5,-268 462.5,-249 551.5,-249 551.5,-268"/>
<text text-anchor="middle" x="507" y="-256" font-family="Roboto" font-size="10.00">Urho3D::Context</text>
</a>
</g>
</g>
<!-- Node5&#45;&gt;Node7 -->
<g id="edge7" class="edge">
<title>Node5&#45;&gt;Node7</title>
<path fill="none" stroke="#63b8ff" d="M296.44,-274.59C347.33,-270.68 417.22,-265.32 462,-261.88"/>
<polygon fill="#63b8ff" stroke="#63b8ff" points="296.45,-271.08 286.74,-275.34 296.98,-278.06 296.45,-271.08"/>
</g>
<!-- Node6 -->
<g id="node6" class="node">
<title>Node6</title>
<g id="a_node6"><a xlink:href="struct_urho3_d_1_1_ref_count.html" target="_top" xlink:title="Reference count structure.">
<polygon fill="white" stroke="#666666" points="96,-289 0,-289 0,-270 96,-270 96,-289"/>
<text text-anchor="middle" x="48" y="-277" font-family="Roboto" font-size="10.00">Urho3D::RefCount</text>
</a>
</g>
</g>
<!-- Node6&#45;&gt;Node5 -->
<g id="edge5" class="edge">
<title>Node6&#45;&gt;Node5</title>
<path fill="none" stroke="#9a32cd" stroke-dasharray="5,2" d="M107.69,-279.5C130.24,-279.5 155.81,-279.5 177.76,-279.5"/>
<polygon fill="#9a32cd" stroke="#9a32cd" points="107.73,-276 97.73,-279.5 107.73,-283 107.73,-276"/>
<text text-anchor="middle" x="137" y="-282.5" font-family="Roboto" font-size="10.00"> refCount_</text>
</g>
<!-- Node30 -->
<g id="node11" class="node">
<title>Node30</title>
<g id="a_node11"><a xlink:href="class_urho3_d_1_1_shared_array_ptr.html" target="_top" xlink:title=" ">
<polygon fill="white" stroke="#666666" points="425,-388.5 303,-388.5 303,-358.5 425,-358.5 425,-388.5"/>
<text text-anchor="start" x="311" y="-376.5" font-family="Roboto" font-size="10.00">Urho3D::SharedArrayPtr</text>
<text text-anchor="middle" x="364" y="-365.5" font-family="Roboto" font-size="10.00">&lt; unsigned char &gt;</text>
</a>
</g>
</g>
<!-- Node6&#45;&gt;Node30 -->
<g id="edge12" class="edge">
<title>Node6&#45;&gt;Node30</title>
<path fill="none" stroke="#9a32cd" stroke-dasharray="5,2" d="M93.19,-292.73C150.58,-309.91 250.59,-339.85 311.4,-358.05"/>
<polygon fill="#9a32cd" stroke="#9a32cd" points="94.34,-289.42 83.76,-289.9 92.33,-296.13 94.34,-289.42"/>
<text text-anchor="middle" x="137" y="-315.5" font-family="Roboto" font-size="10.00"> refCount_</text>
</g>
<!-- Node42 -->
<g id="node20" class="node">
<title>Node42</title>
<g id="a_node20"><a xlink:href="class_urho3_d_1_1_weak_ptr.html" target="_top" xlink:title=" ">
<polygon fill="white" stroke="#666666" points="1394,-250.5 1260,-250.5 1260,-220.5 1394,-220.5 1394,-250.5"/>
<text text-anchor="start" x="1268" y="-238.5" font-family="Roboto" font-size="10.00">Urho3D::WeakPtr&lt; Urho3D</text>
<text text-anchor="middle" x="1327" y="-227.5" font-family="Roboto" font-size="10.00">::XMLFile &gt;</text>
</a>
</g>
</g>
<!-- Node6&#45;&gt;Node42 -->
<g id="edge27" class="edge">
<title>Node6&#45;&gt;Node42</title>
<path fill="none" stroke="#9a32cd" stroke-dasharray="5,2" d="M76.55,-264.53C111.36,-247.05 173.6,-220.5 230.5,-220.5 230.5,-220.5 230.5,-220.5 1073.5,-220.5 1136.74,-220.5 1208.72,-225.25 1259.61,-229.4"/>
<polygon fill="#9a32cd" stroke="#9a32cd" points="75.3,-261.24 68.01,-268.93 78.51,-267.46 75.3,-261.24"/>
<text text-anchor="middle" x="731.5" y="-223.5" font-family="Roboto" font-size="10.00"> refCount_</text>
</g>
<!-- Node7&#45;&gt;Node4 -->
<g id="edge6" class="edge">
<title>Node7&#45;&gt;Node4</title>
<path fill="none" stroke="#9a32cd" stroke-dasharray="5,2" d="M562.87,-259.81C592,-261.36 628.23,-264.63 660,-271.5 676.12,-274.99 693.6,-281.17 707.12,-286.51"/>
<polygon fill="#9a32cd" stroke="#9a32cd" points="563.35,-256.33 553.19,-259.36 563.02,-263.32 563.35,-256.33"/>
<text text-anchor="middle" x="624.5" y="-274.5" font-family="Roboto" font-size="10.00"> context_</text>
</g>
<!-- Node25 -->
<g id="node8" class="node">
<title>Node25</title>
<g id="a_node8"><a xlink:href="class_urho3_d_1_1_linked_list.html" target="_top" xlink:title=" ">
<polygon fill="white" stroke="orangered" points="571,-354.5 443,-354.5 443,-324.5 571,-324.5 571,-354.5"/>
<text text-anchor="start" x="451" y="-342.5" font-family="Roboto" font-size="10.00">Urho3D::LinkedList</text>
<text text-anchor="middle" x="507" y="-331.5" font-family="Roboto" font-size="10.00">&lt; Urho3D::EventHandler &gt;</text>
</a>
</g>
</g>
<!-- Node25&#45;&gt;Node4 -->
<g id="edge8" class="edge">
<title>Node25&#45;&gt;Node4</title>
<path fill="none" stroke="#9a32cd" stroke-dasharray="5,2" d="M582.38,-325.43C607.08,-320.72 634.73,-315.42 660,-310.5 669.55,-308.64 679.83,-306.61 689.5,-304.7"/>
<polygon fill="#9a32cd" stroke="#9a32cd" points="581.91,-321.95 572.74,-327.26 583.22,-328.83 581.91,-321.95"/>
<text text-anchor="middle" x="624.5" y="-326.5" font-family="Roboto" font-size="10.00"> eventHandlers_</text>
</g>
<!-- Node26 -->
<g id="node9" class="node">
<title>Node26</title>
<g id="a_node9"><a xlink:href="class_urho3_d_1_1_abstract_file.html" target="_top" xlink:title="A common root class for objects that implement both Serializer and Deserializer.">
<polygon fill="#fff0f0" stroke="red" points="785,-392 678,-392 678,-373 785,-373 785,-392"/>
<text text-anchor="middle" x="731.5" y="-380" font-family="Roboto" font-size="10.00">Urho3D::AbstractFile</text>
</a>
</g>
</g>
<!-- Node26&#45;&gt;Node3 -->
<g id="edge9" class="edge">
<title>Node26&#45;&gt;Node3</title>
<path fill="none" stroke="#63b8ff" d="M796.42,-376.81C812.81,-375.35 829.83,-373.83 844.08,-372.56"/>
<polygon fill="#63b8ff" stroke="#63b8ff" points="796.37,-373.3 786.72,-377.67 796.99,-380.27 796.37,-373.3"/>
</g>
<!-- Node27 -->
<g id="node10" class="node">
<title>Node27</title>
<g id="a_node10"><a xlink:href="class_urho3_d_1_1_deserializer.html" target="_top" xlink:title=" ">
<polygon fill="white" stroke="#666666" points="560.5,-392 453.5,-392 453.5,-373 560.5,-373 560.5,-392"/>
<text text-anchor="middle" x="507" y="-380" font-family="Roboto" font-size="10.00">Urho3D::Deserializer</text>
</a>
</g>
</g>
<!-- Node27&#45;&gt;Node26 -->
<g id="edge10" class="edge">
<title>Node27&#45;&gt;Node26</title>
<path fill="none" stroke="#63b8ff" d="M571.81,-382.5C605.37,-382.5 646.01,-382.5 677.76,-382.5"/>
<polygon fill="#63b8ff" stroke="#63b8ff" points="572.24,-379 562.24,-382.5 572.24,-386 572.24,-379"/>
</g>
<!-- Node30&#45;&gt;Node3 -->
<g id="edge11" class="edge">
<title>Node30&#45;&gt;Node3</title>
<path fill="none" stroke="#9a32cd" stroke-dasharray="5,2" d="M410.6,-392.82C421.06,-396.42 432.27,-399.63 443,-401.5 592.75,-427.56 635.06,-426.45 785,-401.5 810.22,-397.3 837.75,-387.15 856.37,-379.4"/>
<polygon fill="#9a32cd" stroke="#9a32cd" points="412.04,-389.62 401.45,-389.49 409.65,-396.2 412.04,-389.62"/>
<text text-anchor="middle" x="624.5" y="-434.5" font-family="Roboto" font-size="10.00"> inputBuffer_</text>
<text text-anchor="middle" x="624.5" y="-423.5" font-family="Roboto" font-size="10.00">readBuffer_</text>
</g>
<!-- Node31 -->
<g id="node12" class="node">
<title>Node31</title>
<g id="a_node12"><a xlink:href="class_urho3_d_1_1_shared_ptr.html" target="_top" xlink:title=" ">
<polygon fill="white" stroke="#666666" points="1516,-310.5 1412,-310.5 1412,-280.5 1516,-280.5 1516,-310.5"/>
<text text-anchor="start" x="1420" y="-298.5" font-family="Roboto" font-size="10.00">Urho3D::SharedPtr&lt;</text>
<text text-anchor="middle" x="1464" y="-287.5" font-family="Roboto" font-size="10.00"> Urho3D::XMLFile &gt;</text>
</a>
</g>
</g>
<!-- Node31&#45;&gt;Node1 -->
<g id="edge13" class="edge">
<title>Node31&#45;&gt;Node1</title>
<path fill="none" stroke="#9a32cd" stroke-dasharray="5,2" d="M1527.85,-298.05C1617.87,-300.55 1788.42,-300.99 1931,-276.5 1978.2,-268.39 2031.07,-249.98 2061.4,-238.46"/>
<polygon fill="#9a32cd" stroke="#9a32cd" points="1528.09,-294.56 1517.99,-297.76 1527.89,-301.55 1528.09,-294.56"/>
<text text-anchor="middle" x="1726.5" y="-300.5" font-family="Roboto" font-size="10.00"> xmlFile_</text>
</g>
<!-- Node32 -->
<g id="node13" class="node">
<title>Node32</title>
<g id="a_node13"><a xlink:href="class_urho3_d_1_1_x_m_l_file.html" target="_top" xlink:title="XML document resource.">
<polygon fill="white" stroke="#666666" points="1117.5,-290 1027.5,-290 1027.5,-271 1117.5,-271 1117.5,-290"/>
<text text-anchor="middle" x="1072.5" y="-278" font-family="Roboto" font-size="10.00">Urho3D::XMLFile</text>
</a>
</g>
</g>
<!-- Node32&#45;&gt;Node31 -->
<g id="edge14" class="edge">
<title>Node32&#45;&gt;Node31</title>
<path fill="none" stroke="#9a32cd" stroke-dasharray="5,2" d="M1128.94,-282.64C1204.4,-285.54 1338.39,-290.7 1411.65,-293.52"/>
<polygon fill="#9a32cd" stroke="#9a32cd" points="1129.44,-279.15 1119.31,-282.26 1129.17,-286.15 1129.44,-279.15"/>
<text text-anchor="middle" x="1190" y="-289.5" font-family="Roboto" font-size="10.00"> ptr_</text>
</g>
<!-- Node32&#45;&gt;Node42 -->
<g id="edge26" class="edge">
<title>Node32&#45;&gt;Node42</title>
<path fill="none" stroke="#9a32cd" stroke-dasharray="5,2" d="M1114.72,-267.37C1122.41,-265.2 1130.41,-263.13 1138,-261.5 1178.1,-252.87 1223.67,-246.48 1259.89,-242.2"/>
<polygon fill="#9a32cd" stroke="#9a32cd" points="1113.84,-263.98 1105.23,-270.14 1115.81,-270.7 1113.84,-263.98"/>
<text text-anchor="middle" x="1190" y="-264.5" font-family="Roboto" font-size="10.00"> ptr_</text>
</g>
<!-- Node33&#45;&gt;Node32 -->
<g id="edge15" class="edge">
<title>Node33&#45;&gt;Node32</title>
<path fill="none" stroke="#63b8ff" d="M939.11,-272.88C967.45,-274.51 1000.93,-276.44 1027.12,-277.94"/>
<polygon fill="#63b8ff" stroke="#63b8ff" points="939.41,-269.39 929.22,-272.31 939.01,-276.38 939.41,-269.39"/>
</g>
<!-- Node37 -->
<g id="node17" class="node">
<title>Node37</title>
<g id="a_node17"><a xlink:href="class_urho3_d_1_1_j_s_o_n_file.html" target="_top" xlink:title="JSON document resource.">
<polygon fill="white" stroke="#666666" points="1120,-182 1025,-182 1025,-163 1120,-163 1120,-182"/>
<text text-anchor="middle" x="1072.5" y="-170" font-family="Roboto" font-size="10.00">Urho3D::JSONFile</text>
</a>
</g>
</g>
<!-- Node33&#45;&gt;Node37 -->
<g id="edge20" class="edge">
<title>Node33&#45;&gt;Node37</title>
<path fill="none" stroke="#63b8ff" d="M909.93,-254.55C949.44,-234.49 1018.51,-199.41 1052.08,-182.36"/>
<polygon fill="#63b8ff" stroke="#63b8ff" points="908.55,-251.33 901.21,-258.98 911.72,-257.57 908.55,-251.33"/>
</g>
<!-- Node35 -->
<g id="node15" class="node">
<title>Node35</title>
<g id="a_node15"><a xlink:href="class_urho3_d_1_1_unique_ptr.html" target="_top" xlink:title=" ">
<polygon fill="white" stroke="#666666" points="937,-327.5 822,-327.5 822,-297.5 937,-297.5 937,-327.5"/>
<text text-anchor="start" x="830" y="-315.5" font-family="Roboto" font-size="10.00">Urho3D::UniquePtr&lt;</text>
<text text-anchor="middle" x="879.5" y="-304.5" font-family="Roboto" font-size="10.00"> pugi::xml_document &gt;</text>
</a>
</g>
</g>
<!-- Node35&#45;&gt;Node32 -->
<g id="edge17" class="edge">
<title>Node35&#45;&gt;Node32</title>
<path fill="none" stroke="#9a32cd" stroke-dasharray="5,2" d="M948.64,-301.08C974.71,-296.72 1003.75,-291.85 1027.05,-287.95"/>
<polygon fill="#9a32cd" stroke="#9a32cd" points="948.07,-297.63 938.78,-302.74 949.22,-304.53 948.07,-297.63"/>
<text text-anchor="middle" x="981" y="-301.5" font-family="Roboto" font-size="10.00"> document_</text>
</g>
<!-- Node36 -->
<g id="node16" class="node">
<title>Node36</title>
<g id="a_node16"><a xlink:href="class_urho3_d_1_1_shared_ptr.html" target="_top" xlink:title=" ">
<polygon fill="white" stroke="#666666" points="1779,-195.5 1674,-195.5 1674,-165.5 1779,-165.5 1779,-195.5"/>
<text text-anchor="start" x="1682" y="-183.5" font-family="Roboto" font-size="10.00">Urho3D::SharedPtr&lt;</text>
<text text-anchor="middle" x="1726.5" y="-172.5" font-family="Roboto" font-size="10.00"> Urho3D::JSONFile &gt;</text>
</a>
</g>
</g>
<!-- Node36&#45;&gt;Node1 -->
<g id="edge18" class="edge">
<title>Node36&#45;&gt;Node1</title>
<path fill="none" stroke="#9a32cd" stroke-dasharray="5,2" d="M1790.36,-184.88C1830.66,-188.05 1884.04,-192.94 1931,-199.5 1967.58,-204.61 2008.65,-212.35 2039.39,-218.56"/>
<polygon fill="#9a32cd" stroke="#9a32cd" points="1790.84,-181.41 1780.6,-184.13 1790.3,-188.39 1790.84,-181.41"/>
<text text-anchor="middle" x="1864" y="-202.5" font-family="Roboto" font-size="10.00"> jsonFile_</text>
</g>
<!-- Node37&#45;&gt;Node36 -->
<g id="edge19" class="edge">
<title>Node37&#45;&gt;Node36</title>
<path fill="none" stroke="#9a32cd" stroke-dasharray="5,2" d="M1131.68,-173.21C1257.6,-174.76 1553.71,-178.39 1673.67,-179.86"/>
<polygon fill="#9a32cd" stroke="#9a32cd" points="1131.95,-169.72 1121.9,-173.09 1131.86,-176.72 1131.95,-169.72"/>
<text text-anchor="middle" x="1327" y="-178.5" font-family="Roboto" font-size="10.00"> ptr_</text>
</g>
<!-- Node38 -->
<g id="node18" class="node">
<title>Node38</title>
<g id="a_node18"><a xlink:href="class_urho3_d_1_1_j_s_o_n_value.html" target="_top" xlink:title="JSON value class.">
<polygon fill="#fff0f0" stroke="red" points="931.5,-163 827.5,-163 827.5,-144 931.5,-144 931.5,-163"/>
<text text-anchor="middle" x="879.5" y="-151" font-family="Roboto" font-size="10.00">Urho3D::JSONValue</text>
</a>
</g>
</g>
<!-- Node38&#45;&gt;Node37 -->
<g id="edge21" class="edge">
<title>Node38&#45;&gt;Node37</title>
<path fill="none" stroke="#9a32cd" stroke-dasharray="5,2" d="M943.04,-159.72C969.58,-162.36 999.99,-165.39 1024.55,-167.83"/>
<polygon fill="#9a32cd" stroke="#9a32cd" points="943.74,-156.27 933.44,-158.77 943.05,-163.24 943.74,-156.27"/>
<text text-anchor="middle" x="981" y="-168.5" font-family="Roboto" font-size="10.00"> root_</text>
</g>
<!-- Node38&#45;&gt;Node38 -->
<g id="edge22" class="edge">
<title>Node38&#45;&gt;Node38</title>
<path fill="none" stroke="#9a32cd" stroke-dasharray="5,2" d="M866.16,-174.76C867.96,-178.44 872.4,-181 879.5,-181 892.86,-181 896.83,-171.94 891.4,-163.37"/>
<polygon fill="#9a32cd" stroke="#9a32cd" points="869.63,-175.23 867.41,-164.87 862.69,-174.35 869.63,-175.23"/>
<text text-anchor="middle" x="879.5" y="-184" font-family="Roboto" font-size="10.00"> EMPTY</text>
</g>
<!-- Node41 -->
<g id="node19" class="node">
<title>Node41</title>
<g id="a_node19"><a xlink:href="class_urho3_d_1_1_x_m_l_element.html" target="_top" xlink:title="Element in an XML file.">
<polygon fill="white" stroke="#666666" points="1919.5,-238 1808.5,-238 1808.5,-219 1919.5,-219 1919.5,-238"/>
<text text-anchor="middle" x="1864" y="-226" font-family="Roboto" font-size="10.00">Urho3D::XMLElement</text>
</a>
</g>
</g>
<!-- Node41&#45;&gt;Node1 -->
<g id="edge23" class="edge">
<title>Node41&#45;&gt;Node1</title>
<path fill="none" stroke="#9a32cd" stroke-dasharray="5,2" d="M1931.08,-228.5C1961.38,-228.5 1997.03,-228.5 2026.54,-228.5"/>
<polygon fill="#9a32cd" stroke="#9a32cd" points="1931.27,-225 1921.27,-228.5 1931.27,-232 1931.27,-225"/>
<text text-anchor="middle" x="1979" y="-231.5" font-family="Roboto" font-size="10.00"> xmlElement_</text>
</g>
<!-- Node41&#45;&gt;Node41 -->
<g id="edge24" class="edge">
<title>Node41&#45;&gt;Node41</title>
<path fill="none" stroke="#9a32cd" stroke-dasharray="5,2" d="M1843.59,-249.43C1846.14,-253.29 1852.95,-256 1864,-256 1884.21,-256 1890.22,-246.94 1882,-238.37"/>
<polygon fill="#9a32cd" stroke="#9a32cd" points="1846.97,-250.36 1845.67,-239.85 1840.13,-248.87 1846.97,-250.36"/>
<text text-anchor="middle" x="1864" y="-259" font-family="Roboto" font-size="10.00"> EMPTY</text>
</g>
<!-- Node42&#45;&gt;Node41 -->
<g id="edge25" class="edge">
<title>Node42&#45;&gt;Node41</title>
<path fill="none" stroke="#9a32cd" stroke-dasharray="5,2" d="M1405.48,-232.24C1444.1,-230.78 1491.5,-229.22 1534,-228.5 1630.52,-226.86 1742.98,-227.39 1808.27,-227.93"/>
<polygon fill="#9a32cd" stroke="#9a32cd" points="1405.69,-228.73 1395.83,-232.62 1405.96,-235.73 1405.69,-228.73"/>
<text text-anchor="middle" x="1595" y="-231.5" font-family="Roboto" font-size="10.00"> file_</text>
</g>
<!-- Node43 -->
<g id="node21" class="node">
<title>Node43</title>
<g id="a_node21"><a xlink:href="class_urho3_d_1_1_x_path_result_set.html" target="_top" xlink:title="XPath query result set.">
<polygon fill="white" stroke="#666666" points="1656,-267 1534,-267 1534,-248 1656,-248 1656,-267"/>
<text text-anchor="middle" x="1595" y="-255" font-family="Roboto" font-size="10.00">Urho3D::XPathResultSet</text>
</a>
</g>
</g>
<!-- Node42&#45;&gt;Node43 -->
<g id="edge29" class="edge">
<title>Node42&#45;&gt;Node43</title>
<path fill="none" stroke="#9a32cd" stroke-dasharray="5,2" d="M1405.72,-241.93C1446.6,-245.31 1495.94,-249.39 1533.86,-252.53"/>
<polygon fill="#9a32cd" stroke="#9a32cd" points="1406.2,-238.46 1395.95,-241.12 1405.62,-245.43 1406.2,-238.46"/>
<text text-anchor="middle" x="1464" y="-253.5" font-family="Roboto" font-size="10.00"> file_</text>
</g>
<!-- Node43&#45;&gt;Node41 -->
<g id="edge28" class="edge">
<title>Node43&#45;&gt;Node41</title>
<path fill="none" stroke="#9a32cd" stroke-dasharray="5,2" d="M1667.53,-249.73C1711.79,-244.92 1767.73,-238.85 1808.41,-234.43"/>
<polygon fill="#9a32cd" stroke="#9a32cd" points="1667.32,-246.23 1657.76,-250.79 1668.08,-253.19 1667.32,-246.23"/>
<text text-anchor="middle" x="1726.5" y="-251.5" font-family="Roboto" font-size="10.00"> xpathResultSet_</text>
</g>
<!-- Node44 -->
<g id="node22" class="node">
<title>Node44</title>
<g id="a_node22"><a xlink:href="class_urho3_d_1_1_hash_set.html" target="_top" xlink:title=" ">
<polygon fill="white" stroke="#666666" points="1931,-143.5 1797,-143.5 1797,-113.5 1931,-113.5 1931,-143.5"/>
<text text-anchor="start" x="1805" y="-131.5" font-family="Roboto" font-size="10.00">Urho3D::HashSet&lt; Urho3D</text>
<text text-anchor="middle" x="1864" y="-120.5" font-family="Roboto" font-size="10.00">::StringHash &gt;</text>
</a>
</g>
</g>
<!-- Node44&#45;&gt;Node1 -->
<g id="edge30" class="edge">
<title>Node44&#45;&gt;Node1</title>
<path fill="none" stroke="#9a32cd" stroke-dasharray="5,2" d="M1942.46,-141.2C1964.67,-146.59 1988.44,-154.12 2009,-164.5 2037.04,-178.66 2063.96,-204.55 2077.48,-218.67"/>
<polygon fill="#9a32cd" stroke="#9a32cd" points="1943.35,-137.82 1932.82,-138.99 1941.79,-144.64 1943.35,-137.82"/>
<text text-anchor="middle" x="1979" y="-167.5" font-family="Roboto" font-size="10.00"> resources_</text>
</g>
<!-- Node9 -->
<g id="node23" class="node">
<title>Node9</title>
<g id="a_node23"><a xlink:href="class_urho3_d_1_1_hash_base.html" target="_top" xlink:title="Hash set/map base class.">
<polygon fill="white" stroke="#666666" points="1645,-107 1545,-107 1545,-88 1645,-88 1645,-107"/>
<text text-anchor="middle" x="1595" y="-95" font-family="Roboto" font-size="10.00">Urho3D::HashBase</text>
</a>
</g>
</g>
<!-- Node9&#45;&gt;Node44 -->
<g id="edge31" class="edge">
<title>Node9&#45;&gt;Node44</title>
<path fill="none" stroke="#63b8ff" d="M1656.68,-104.55C1698.47,-109.4 1753.98,-115.84 1796.89,-120.82"/>
<polygon fill="#63b8ff" stroke="#63b8ff" points="1657.12,-101.07 1646.79,-103.4 1656.32,-108.03 1657.12,-101.07"/>
</g>
<!-- Node10 -->
<g id="node24" class="node">
<title>Node10</title>
<g id="a_node24"><a xlink:href="struct_urho3_d_1_1_hash_node_base.html" target="_top" xlink:title="Hash set/map node base class.">
<polygon fill="white" stroke="#666666" points="1389.5,-19 1264.5,-19 1264.5,0 1389.5,0 1389.5,-19"/>
<text text-anchor="middle" x="1327" y="-7" font-family="Roboto" font-size="10.00">Urho3D::HashNodeBase</text>
</a>
</g>
</g>
<!-- Node10&#45;&gt;Node9 -->
<g id="edge32" class="edge">
<title>Node10&#45;&gt;Node9</title>
<path fill="none" stroke="#9a32cd" stroke-dasharray="5,2" d="M1384.33,-22C1422.11,-31.06 1472.69,-44.5 1516,-60.5 1536.95,-68.24 1559.93,-79.5 1575.49,-87.57"/>
<polygon fill="#9a32cd" stroke="#9a32cd" points="1385.54,-18.69 1375,-19.8 1383.93,-25.5 1385.54,-18.69"/>
<text text-anchor="middle" x="1464" y="-85.5" font-family="Roboto" font-size="10.00"> head_</text>
<text text-anchor="middle" x="1464" y="-74.5" font-family="Roboto" font-size="10.00">ptrs_</text>
<text text-anchor="middle" x="1464" y="-63.5" font-family="Roboto" font-size="10.00">tail_</text>
</g>
<!-- Node10&#45;&gt;Node10 -->
<g id="edge33" class="edge">
<title>Node10&#45;&gt;Node10</title>
<path fill="none" stroke="#9a32cd" stroke-dasharray="5,2" d="M1302.68,-30.43C1305.72,-34.29 1313.83,-37 1327,-37 1351.08,-37 1358.23,-27.94 1348.45,-19.37"/>
<polygon fill="#9a32cd" stroke="#9a32cd" points="1306.05,-31.39 1305.17,-20.83 1299.27,-29.63 1306.05,-31.39"/>
<text text-anchor="middle" x="1327" y="-62" font-family="Roboto" font-size="10.00"> down_</text>
<text text-anchor="middle" x="1327" y="-51" font-family="Roboto" font-size="10.00">next_</text>
<text text-anchor="middle" x="1327" y="-40" font-family="Roboto" font-size="10.00">prev_</text>
</g>
<!-- Node11 -->
<g id="node25" class="node">
<title>Node11</title>
<g id="a_node25"><a xlink:href="struct_urho3_d_1_1_allocator_block.html" target="_top" xlink:title="Allocator memory block.">
<polygon fill="#fff0f0" stroke="red" points="1387,-107 1267,-107 1267,-88 1387,-88 1387,-107"/>
<text text-anchor="middle" x="1327" y="-95" font-family="Roboto" font-size="10.00">Urho3D::AllocatorBlock</text>
</a>
</g>
</g>
<!-- Node11&#45;&gt;Node9 -->
<g id="edge34" class="edge">
<title>Node11&#45;&gt;Node9</title>
<path fill="none" stroke="#9a32cd" stroke-dasharray="5,2" d="M1398.77,-97.5C1444.78,-97.5 1503.62,-97.5 1544.62,-97.5"/>
<polygon fill="#9a32cd" stroke="#9a32cd" points="1398.88,-94 1388.88,-97.5 1398.88,-101 1398.88,-94"/>
<text text-anchor="middle" x="1464" y="-100.5" font-family="Roboto" font-size="10.00"> allocator_</text>
</g>
<!-- Node11&#45;&gt;Node11 -->
<g id="edge35" class="edge">
<title>Node11&#45;&gt;Node11</title>
<path fill="none" stroke="#9a32cd" stroke-dasharray="5,2" d="M1302.68,-118.43C1305.72,-122.29 1313.83,-125 1327,-125 1351.08,-125 1358.23,-115.94 1348.45,-107.37"/>
<polygon fill="#9a32cd" stroke="#9a32cd" points="1306.05,-119.39 1305.17,-108.83 1299.27,-117.63 1306.05,-119.39"/>
<text text-anchor="middle" x="1327" y="-128" font-family="Roboto" font-size="10.00"> next_</text>
</g>
</g>
</svg>
