<?xml version="1.0" encoding="UTF-8" standalone="no"?>
<!DOCTYPE svg PUBLIC "-//W3C//DTD SVG 1.1//EN"
 "http://www.w3.org/Graphics/SVG/1.1/DTD/svg11.dtd">
<!-- Generated by graphviz version 7.0.3 (0)
 -->
<!-- Title: Urho3D::CustomGeometryVertex Pages: 1 -->
<svg width="470pt" height="173pt"
 viewBox="0.00 0.00 470.00 173.00" xmlns="http://www.w3.org/2000/svg" xmlns:xlink="http://www.w3.org/1999/xlink">
<g id="graph0" class="graph" transform="scale(1 1) rotate(0) translate(4 169)">
<title>Urho3D::CustomGeometryVertex</title>
<!-- Node1 -->
<g id="node1" class="node">
<title>Node1</title>
<g id="a_node1"><a xlink:title=" ">
<polygon fill="#999999" stroke="#666666" points="297.5,-19 135.5,-19 135.5,0 297.5,0 297.5,-19"/>
<text text-anchor="middle" x="216.5" y="-7" font-family="Roboto" font-size="10.00">Urho3D::CustomGeometryVertex</text>
</a>
</g>
</g>
<!-- Node2 -->
<g id="node2" class="node">
<title>Node2</title>
<g id="a_node2"><a xlink:href="class_urho3_d_1_1_vector3.html" target="_top" xlink:title="Three&#45;dimensional vector.">
<polygon fill="white" stroke="#666666" points="89,-130.5 0,-130.5 0,-111.5 89,-111.5 89,-130.5"/>
<text text-anchor="middle" x="44.5" y="-118.5" font-family="Roboto" font-size="10.00">Urho3D::Vector3</text>
</a>
</g>
</g>
<!-- Node2&#45;&gt;Node1 -->
<g id="edge1" class="edge">
<title>Node2&#45;&gt;Node1</title>
<path fill="none" stroke="#9a32cd" stroke-dasharray="5,2" d="M67.37,-104.85C92.86,-88.03 135.39,-60.2 172.5,-37 182.03,-31.04 192.84,-24.53 201.36,-19.45"/>
<polygon fill="#9a32cd" stroke="#9a32cd" points="65.53,-101.86 59.12,-110.29 69.39,-107.7 65.53,-101.86"/>
<text text-anchor="middle" x="192.5" y="-51" font-family="Roboto" font-size="10.00"> normal_</text>
<text text-anchor="middle" x="192.5" y="-40" font-family="Roboto" font-size="10.00">position_</text>
</g>
<!-- Node2&#45;&gt;Node2 -->
<g id="edge2" class="edge">
<title>Node2&#45;&gt;Node2</title>
<path fill="none" stroke="#9a32cd" stroke-dasharray="5,2" d="M72.95,-133.75C90.42,-136.76 107,-132.51 107,-121 107,-107.1 82.82,-103.79 62.1,-111.06"/>
<polygon fill="#9a32cd" stroke="#9a32cd" points="74.12,-130.44 63.56,-131.32 72.36,-137.21 74.12,-130.44"/>
<text text-anchor="middle" x="130.5" y="-157" font-family="Roboto" font-size="10.00"> BACK</text>
<text text-anchor="middle" x="130.5" y="-146" font-family="Roboto" font-size="10.00">DOWN</text>
<text text-anchor="middle" x="130.5" y="-135" font-family="Roboto" font-size="10.00">FORWARD</text>
<text text-anchor="middle" x="130.5" y="-124" font-family="Roboto" font-size="10.00">LEFT</text>
<text text-anchor="middle" x="130.5" y="-113" font-family="Roboto" font-size="10.00">ONE</text>
<text text-anchor="middle" x="130.5" y="-102" font-family="Roboto" font-size="10.00">RIGHT</text>
<text text-anchor="middle" x="130.5" y="-91" font-family="Roboto" font-size="10.00">UP</text>
<text text-anchor="middle" x="130.5" y="-80" font-family="Roboto" font-size="10.00">ZERO</text>
</g>
<!-- Node3 -->
<g id="node3" class="node">
<title>Node3</title>
<g id="a_node3"><a xlink:href="class_urho3_d_1_1_vector2.html" target="_top" xlink:title="Two&#45;dimensional vector.">
<polygon fill="white" stroke="#666666" points="261,-130.5 172,-130.5 172,-111.5 261,-111.5 261,-130.5"/>
<text text-anchor="middle" x="216.5" y="-118.5" font-family="Roboto" font-size="10.00">Urho3D::Vector2</text>
</a>
</g>
</g>
<!-- Node3&#45;&gt;Node1 -->
<g id="edge3" class="edge">
<title>Node3&#45;&gt;Node1</title>
<path fill="none" stroke="#9a32cd" stroke-dasharray="5,2" d="M216.5,-99.73C216.5,-75.67 216.5,-36.62 216.5,-19.28"/>
<polygon fill="#9a32cd" stroke="#9a32cd" points="213,-99.53 216.5,-109.53 220,-99.53 213,-99.53"/>
<text text-anchor="middle" x="241" y="-45.5" font-family="Roboto" font-size="10.00"> texCoord_</text>
</g>
<!-- Node3&#45;&gt;Node3 -->
<g id="edge4" class="edge">
<title>Node3&#45;&gt;Node3</title>
<path fill="none" stroke="#9a32cd" stroke-dasharray="5,2" d="M244.95,-133.75C262.42,-136.76 279,-132.51 279,-121 279,-107.1 254.82,-103.79 234.1,-111.06"/>
<polygon fill="#9a32cd" stroke="#9a32cd" points="246.12,-130.44 235.56,-131.32 244.36,-137.21 246.12,-130.44"/>
<text text-anchor="middle" x="295.5" y="-146" font-family="Roboto" font-size="10.00"> DOWN</text>
<text text-anchor="middle" x="295.5" y="-135" font-family="Roboto" font-size="10.00">LEFT</text>
<text text-anchor="middle" x="295.5" y="-124" font-family="Roboto" font-size="10.00">ONE</text>
<text text-anchor="middle" x="295.5" y="-113" font-family="Roboto" font-size="10.00">RIGHT</text>
<text text-anchor="middle" x="295.5" y="-102" font-family="Roboto" font-size="10.00">UP</text>
<text text-anchor="middle" x="295.5" y="-91" font-family="Roboto" font-size="10.00">ZERO</text>
</g>
<!-- Node4 -->
<g id="node4" class="node">
<title>Node4</title>
<g id="a_node4"><a xlink:href="class_urho3_d_1_1_vector4.html" target="_top" xlink:title="Four&#45;dimensional vector.">
<polygon fill="white" stroke="#666666" points="419,-130.5 330,-130.5 330,-111.5 419,-111.5 419,-130.5"/>
<text text-anchor="middle" x="374.5" y="-118.5" font-family="Roboto" font-size="10.00">Urho3D::Vector4</text>
</a>
</g>
</g>
<!-- Node4&#45;&gt;Node1 -->
<g id="edge5" class="edge">
<title>Node4&#45;&gt;Node1</title>
<path fill="none" stroke="#9a32cd" stroke-dasharray="5,2" d="M356.4,-103.67C336.17,-85.91 301.97,-57.34 269.5,-37 259.04,-30.45 246.74,-24.21 236.62,-19.44"/>
<polygon fill="#9a32cd" stroke="#9a32cd" points="353.97,-106.19 363.77,-110.22 358.62,-100.96 353.97,-106.19"/>
<text text-anchor="middle" x="319.5" y="-45.5" font-family="Roboto" font-size="10.00"> tangent_</text>
</g>
<!-- Node4&#45;&gt;Node4 -->
<g id="edge6" class="edge">
<title>Node4&#45;&gt;Node4</title>
<path fill="none" stroke="#9a32cd" stroke-dasharray="5,2" d="M402.95,-133.75C420.42,-136.76 437,-132.51 437,-121 437,-107.1 412.82,-103.79 392.1,-111.06"/>
<polygon fill="#9a32cd" stroke="#9a32cd" points="404.12,-130.44 393.56,-131.32 402.36,-137.21 404.12,-130.44"/>
<text text-anchor="middle" x="449.5" y="-124" font-family="Roboto" font-size="10.00"> ONE</text>
<text text-anchor="middle" x="449.5" y="-113" font-family="Roboto" font-size="10.00">ZERO</text>
</g>
</g>
</svg>
