<?xml version="1.0" encoding="UTF-8" standalone="no"?>
<!DOCTYPE svg PUBLIC "-//W3C//DTD SVG 1.1//EN"
 "http://www.w3.org/Graphics/SVG/1.1/DTD/svg11.dtd">
<!-- Generated by graphviz version 7.0.3 (0)
 -->
<!-- Title: Urho3D::BackgroundLoadItem Pages: 1 -->
<svg width="1364pt" height="864pt"
 viewBox="0.00 0.00 1364.00 864.00" xmlns="http://www.w3.org/2000/svg" xmlns:xlink="http://www.w3.org/1999/xlink">
<g id="graph0" class="graph" transform="scale(1 1) rotate(0) translate(4 860)">
<title>Urho3D::BackgroundLoadItem</title>
<!-- Node1 -->
<g id="node1" class="node">
<title>Node1</title>
<g id="a_node1"><a xlink:title="Queue item for background loading of a resource.">
<polygon fill="#999999" stroke="#666666" points="1356,-133 1206,-133 1206,-114 1356,-114 1356,-133"/>
<text text-anchor="middle" x="1281" y="-121" font-family="Roboto" font-size="10.00">Urho3D::BackgroundLoadItem</text>
</a>
</g>
</g>
<!-- Node2 -->
<g id="node2" class="node">
<title>Node2</title>
<g id="a_node2"><a xlink:href="class_urho3_d_1_1_shared_ptr.html" target="_top" xlink:title=" ">
<polygon fill="white" stroke="#666666" points="1113,-714.5 1007,-714.5 1007,-684.5 1113,-684.5 1113,-714.5"/>
<text text-anchor="start" x="1015" y="-702.5" font-family="Roboto" font-size="10.00">Urho3D::SharedPtr&lt;</text>
<text text-anchor="middle" x="1060" y="-691.5" font-family="Roboto" font-size="10.00"> Urho3D::Resource &gt;</text>
</a>
</g>
</g>
<!-- Node2&#45;&gt;Node1 -->
<g id="edge1" class="edge">
<title>Node2&#45;&gt;Node1</title>
<path fill="none" stroke="#9a32cd" stroke-dasharray="5,2" d="M1116.38,-677.8C1119.15,-675.58 1121.72,-673.16 1124,-670.5 1272.45,-497.3 1280.01,-191.29 1280.07,-133.18"/>
<polygon fill="#9a32cd" stroke="#9a32cd" points="1114.54,-674.82 1108.23,-683.33 1118.47,-680.61 1114.54,-674.82"/>
<text text-anchor="middle" x="1165" y="-650.5" font-family="Roboto" font-size="10.00"> resource_</text>
</g>
<!-- Node3 -->
<g id="node3" class="node">
<title>Node3</title>
<g id="a_node3"><a xlink:href="class_urho3_d_1_1_resource.html" target="_top" xlink:title=" ">
<polygon fill="white" stroke="#666666" points="762.5,-756 666.5,-756 666.5,-737 762.5,-737 762.5,-756"/>
<text text-anchor="middle" x="714.5" y="-744" font-family="Roboto" font-size="10.00">Urho3D::Resource</text>
</a>
</g>
</g>
<!-- Node3&#45;&gt;Node2 -->
<g id="edge2" class="edge">
<title>Node3&#45;&gt;Node2</title>
<path fill="none" stroke="#9a32cd" stroke-dasharray="5,2" d="M774.23,-738.46C839.57,-729.52 944.15,-715.21 1006.75,-706.65"/>
<polygon fill="#9a32cd" stroke="#9a32cd" points="773.83,-734.99 764.4,-739.81 774.78,-741.92 773.83,-734.99"/>
<text text-anchor="middle" x="910.5" y="-732.5" font-family="Roboto" font-size="10.00"> ptr_</text>
</g>
<!-- Node4 -->
<g id="node4" class="node">
<title>Node4</title>
<g id="a_node4"><a xlink:href="class_urho3_d_1_1_object.html" target="_top" xlink:title=" ">
<polygon fill="white" stroke="#666666" points="502.5,-623 419.5,-623 419.5,-604 502.5,-604 502.5,-623"/>
<text text-anchor="middle" x="461" y="-611" font-family="Roboto" font-size="10.00">Urho3D::Object</text>
</a>
</g>
</g>
<!-- Node4&#45;&gt;Node3 -->
<g id="edge3" class="edge">
<title>Node4&#45;&gt;Node3</title>
<path fill="none" stroke="#63b8ff" d="M481.92,-630.44C495.26,-641.29 513.52,-655.22 531,-665.5 559.46,-682.24 646.62,-718.92 689.36,-736.59"/>
<polygon fill="#63b8ff" stroke="#63b8ff" points="484.25,-627.83 474.32,-624.15 479.79,-633.22 484.25,-627.83"/>
</g>
<!-- Node20 -->
<g id="node19" class="node">
<title>Node20</title>
<g id="a_node19"><a xlink:href="class_urho3_d_1_1_event_handler.html" target="_top" xlink:title="Internal helper class for invoking event handler functions.">
<polygon fill="#fff0f0" stroke="red" points="771,-623 658,-623 658,-604 771,-604 771,-623"/>
<text text-anchor="middle" x="714.5" y="-611" font-family="Roboto" font-size="10.00">Urho3D::EventHandler</text>
</a>
</g>
</g>
<!-- Node4&#45;&gt;Node20 -->
<g id="edge27" class="edge">
<title>Node4&#45;&gt;Node20</title>
<path fill="none" stroke="#9a32cd" stroke-dasharray="5,2" d="M514.3,-613.5C556.15,-613.5 614.72,-613.5 657.52,-613.5"/>
<polygon fill="#9a32cd" stroke="#9a32cd" points="514.48,-610 504.48,-613.5 514.48,-617 514.48,-610"/>
<text text-anchor="middle" x="558.5" y="-627.5" font-family="Roboto" font-size="10.00"> receiver_</text>
<text text-anchor="middle" x="558.5" y="-616.5" font-family="Roboto" font-size="10.00">sender_</text>
</g>
<!-- Node5 -->
<g id="node5" class="node">
<title>Node5</title>
<g id="a_node5"><a xlink:href="class_urho3_d_1_1_ref_counted.html" target="_top" xlink:title="Base class for intrusively reference&#45;counted objects. These are noncopyable and non&#45;assignable.">
<polygon fill="white" stroke="#666666" points="318,-532 211,-532 211,-513 318,-513 318,-532"/>
<text text-anchor="middle" x="264.5" y="-520" font-family="Roboto" font-size="10.00">Urho3D::RefCounted</text>
</a>
</g>
</g>
<!-- Node5&#45;&gt;Node4 -->
<g id="edge4" class="edge">
<title>Node5&#45;&gt;Node4</title>
<path fill="none" stroke="#63b8ff" d="M296.91,-537.2C336.81,-555.86 404.59,-587.57 438.84,-603.6"/>
<polygon fill="#63b8ff" stroke="#63b8ff" points="298.6,-534.12 288.06,-533.05 295.63,-540.46 298.6,-534.12"/>
</g>
<!-- Node7 -->
<g id="node7" class="node">
<title>Node7</title>
<g id="a_node7"><a xlink:href="class_urho3_d_1_1_context.html" target="_top" xlink:title="Urho3D execution context. Provides access to subsystems, object factories and attributes,...">
<polygon fill="#fff0f0" stroke="red" points="1104.5,-388 1015.5,-388 1015.5,-369 1104.5,-369 1104.5,-388"/>
<text text-anchor="middle" x="1060" y="-376" font-family="Roboto" font-size="10.00">Urho3D::Context</text>
</a>
</g>
</g>
<!-- Node5&#45;&gt;Node7 -->
<g id="edge7" class="edge">
<title>Node5&#45;&gt;Node7</title>
<path fill="none" stroke="#63b8ff" d="M320.53,-510.02C387.37,-495.08 503.62,-469.8 604,-451.5 769.48,-421.34 812.17,-421.71 978,-393.5 990.13,-391.44 1003.24,-389.07 1015.32,-386.83"/>
<polygon fill="#63b8ff" stroke="#63b8ff" points="319.91,-506.57 310.92,-512.18 321.44,-513.4 319.91,-506.57"/>
</g>
<!-- Node6 -->
<g id="node6" class="node">
<title>Node6</title>
<g id="a_node6"><a xlink:href="struct_urho3_d_1_1_ref_count.html" target="_top" xlink:title="Reference count structure.">
<polygon fill="white" stroke="#666666" points="108,-532 12,-532 12,-513 108,-513 108,-532"/>
<text text-anchor="middle" x="60" y="-520" font-family="Roboto" font-size="10.00">Urho3D::RefCount</text>
</a>
</g>
</g>
<!-- Node6&#45;&gt;Node5 -->
<g id="edge5" class="edge">
<title>Node6&#45;&gt;Node5</title>
<path fill="none" stroke="#9a32cd" stroke-dasharray="5,2" d="M119.98,-522.5C148.64,-522.5 182.81,-522.5 210.62,-522.5"/>
<polygon fill="#9a32cd" stroke="#9a32cd" points="119.99,-519 109.99,-522.5 119.99,-526 119.99,-519"/>
<text text-anchor="middle" x="161" y="-525.5" font-family="Roboto" font-size="10.00"> refCount_</text>
</g>
<!-- Node7&#45;&gt;Node4 -->
<g id="edge6" class="edge">
<title>Node7&#45;&gt;Node4</title>
<path fill="none" stroke="#9a32cd" stroke-dasharray="5,2" d="M1050.75,-398.79C1038.9,-425.07 1014.4,-470.03 978,-491.5 833.85,-576.54 763.41,-484.49 604,-535.5 553.37,-551.7 500.1,-586.5 475.68,-603.6"/>
<polygon fill="#9a32cd" stroke="#9a32cd" points="1053.85,-400.45 1054.58,-389.88 1047.41,-397.69 1053.85,-400.45"/>
<text text-anchor="middle" x="714.5" y="-538.5" font-family="Roboto" font-size="10.00"> context_</text>
</g>
<!-- Node8 -->
<g id="node8" class="node">
<title>Node8</title>
<g id="a_node8"><a xlink:href="class_urho3_d_1_1_hash_map.html" target="_top" xlink:title=" ">
<polygon fill="white" stroke="#666666" points="805.5,-275 623.5,-275 623.5,-234 805.5,-234 805.5,-275"/>
<text text-anchor="start" x="631.5" y="-263" font-family="Roboto" font-size="10.00">Urho3D::HashMap&lt; Urho3D</text>
<text text-anchor="start" x="631.5" y="-252" font-family="Roboto" font-size="10.00">::StringHash, Urho3D::</text>
<text text-anchor="middle" x="714.5" y="-241" font-family="Roboto" font-size="10.00">SharedPtr&lt; Urho3D::ObjectFactory &gt; &gt;</text>
</a>
</g>
</g>
<!-- Node8&#45;&gt;Node7 -->
<g id="edge8" class="edge">
<title>Node8&#45;&gt;Node7</title>
<path fill="none" stroke="#9a32cd" stroke-dasharray="5,2" d="M817.01,-272.76C866.88,-283.81 927.06,-300.33 978,-323.5 1004.61,-335.6 1032.03,-356.27 1047.16,-368.53"/>
<polygon fill="#9a32cd" stroke="#9a32cd" points="817.87,-269.36 807.35,-270.66 816.38,-276.2 817.87,-269.36"/>
<text text-anchor="middle" x="910.5" y="-326.5" font-family="Roboto" font-size="10.00"> factories_</text>
</g>
<!-- Node9 -->
<g id="node9" class="node">
<title>Node9</title>
<g id="a_node9"><a xlink:href="class_urho3_d_1_1_hash_base.html" target="_top" xlink:title="Hash set/map base class.">
<polygon fill="white" stroke="#666666" points="511,-205 411,-205 411,-186 511,-186 511,-205"/>
<text text-anchor="middle" x="461" y="-193" font-family="Roboto" font-size="10.00">Urho3D::HashBase</text>
</a>
</g>
</g>
<!-- Node9&#45;&gt;Node8 -->
<g id="edge9" class="edge">
<title>Node9&#45;&gt;Node8</title>
<path fill="none" stroke="#63b8ff" d="M515.57,-208.07C547.14,-215.47 587.89,-225.03 624.21,-233.55"/>
<polygon fill="#63b8ff" stroke="#63b8ff" points="516.39,-204.66 505.85,-205.79 514.79,-211.48 516.39,-204.66"/>
</g>
<!-- Node13 -->
<g id="node13" class="node">
<title>Node13</title>
<g id="a_node13"><a xlink:href="class_urho3_d_1_1_hash_map.html" target="_top" xlink:title=" ">
<polygon fill="white" stroke="#666666" points="789,-216 640,-216 640,-175 789,-175 789,-216"/>
<text text-anchor="start" x="648" y="-204" font-family="Roboto" font-size="10.00">Urho3D::HashMap&lt; Urho3D</text>
<text text-anchor="start" x="648" y="-193" font-family="Roboto" font-size="10.00">::StringHash, Urho3D::</text>
<text text-anchor="middle" x="714.5" y="-182" font-family="Roboto" font-size="10.00">SharedPtr&lt; Urho3D::Object &gt; &gt;</text>
</a>
</g>
</g>
<!-- Node9&#45;&gt;Node13 -->
<g id="edge17" class="edge">
<title>Node9&#45;&gt;Node13</title>
<path fill="none" stroke="#63b8ff" d="M522.49,-195.5C557.79,-195.5 602.58,-195.5 639.91,-195.5"/>
<polygon fill="#63b8ff" stroke="#63b8ff" points="522.9,-192 512.9,-195.5 522.9,-199 522.9,-192"/>
</g>
<!-- Node14 -->
<g id="node14" class="node">
<title>Node14</title>
<g id="a_node14"><a xlink:href="class_urho3_d_1_1_hash_map.html" target="_top" xlink:title=" ">
<polygon fill="white" stroke="#666666" points="795.5,-157 633.5,-157 633.5,-116 795.5,-116 795.5,-157"/>
<text text-anchor="start" x="641.5" y="-145" font-family="Roboto" font-size="10.00">Urho3D::HashMap&lt; Urho3D</text>
<text text-anchor="start" x="641.5" y="-134" font-family="Roboto" font-size="10.00">::StringHash, Urho3D::</text>
<text text-anchor="middle" x="714.5" y="-123" font-family="Roboto" font-size="10.00">Vector&lt; Urho3D::AttributeInfo &gt; &gt;</text>
</a>
</g>
</g>
<!-- Node9&#45;&gt;Node14 -->
<g id="edge19" class="edge">
<title>Node9&#45;&gt;Node14</title>
<path fill="none" stroke="#63b8ff" d="M515.53,-182.94C549.68,-174.93 594.6,-164.39 633.01,-155.38"/>
<polygon fill="#63b8ff" stroke="#63b8ff" points="514.79,-179.52 505.85,-185.21 516.39,-186.34 514.79,-179.52"/>
</g>
<!-- Node15 -->
<g id="node15" class="node">
<title>Node15</title>
<g id="a_node15"><a xlink:href="class_urho3_d_1_1_hash_map.html" target="_top" xlink:title=" ">
<polygon fill="white" stroke="#666666" points="798,-97.5 631,-97.5 631,-45.5 798,-45.5 798,-97.5"/>
<text text-anchor="start" x="639" y="-85.5" font-family="Roboto" font-size="10.00">Urho3D::HashMap&lt; Urho3D</text>
<text text-anchor="start" x="639" y="-74.5" font-family="Roboto" font-size="10.00">::StringHash, Urho3D::</text>
<text text-anchor="start" x="639" y="-63.5" font-family="Roboto" font-size="10.00">SharedPtr&lt; Urho3D::EventReceiver</text>
<text text-anchor="middle" x="714.5" y="-52.5" font-family="Roboto" font-size="10.00">Group &gt; &gt;</text>
</a>
</g>
</g>
<!-- Node9&#45;&gt;Node15 -->
<g id="edge21" class="edge">
<title>Node9&#45;&gt;Node15</title>
<path fill="none" stroke="#63b8ff" d="M484.07,-179.2C511.18,-159.78 559.11,-127.34 604,-106.5 612.51,-102.55 621.58,-98.87 630.73,-95.5"/>
<polygon fill="#63b8ff" stroke="#63b8ff" points="482.34,-176.14 476.29,-184.84 486.44,-181.81 482.34,-176.14"/>
</g>
<!-- Node16 -->
<g id="node16" class="node">
<title>Node16</title>
<g id="a_node16"><a xlink:href="class_urho3_d_1_1_hash_map.html" target="_top" xlink:title=" ">
<polygon fill="white" stroke="#666666" points="825,-404.5 604,-404.5 604,-352.5 825,-352.5 825,-404.5"/>
<text text-anchor="start" x="612" y="-392.5" font-family="Roboto" font-size="10.00">Urho3D::HashMap&lt; Urho3D</text>
<text text-anchor="start" x="612" y="-381.5" font-family="Roboto" font-size="10.00">::Object *, Urho3D::HashMap</text>
<text text-anchor="start" x="612" y="-370.5" font-family="Roboto" font-size="10.00">&lt; Urho3D::StringHash, Urho3D</text>
<text text-anchor="middle" x="714.5" y="-359.5" font-family="Roboto" font-size="10.00">::SharedPtr&lt; Urho3D::EventReceiverGroup &gt; &gt; &gt;</text>
</a>
</g>
</g>
<!-- Node9&#45;&gt;Node16 -->
<g id="edge23" class="edge">
<title>Node9&#45;&gt;Node16</title>
<path fill="none" stroke="#63b8ff" d="M475.04,-214.49C497.62,-245.9 547.07,-308.57 604,-342.5 609.84,-345.98 616.07,-349.18 622.47,-352.09"/>
<polygon fill="#63b8ff" stroke="#63b8ff" points="478.18,-212.86 469.55,-206.7 472.45,-216.89 478.18,-212.86"/>
</g>
<!-- Node23 -->
<g id="node21" class="node">
<title>Node23</title>
<g id="a_node21"><a xlink:href="class_urho3_d_1_1_hash_map.html" target="_top" xlink:title=" ">
<polygon fill="white" stroke="#666666" points="784,-334 645,-334 645,-293 784,-293 784,-334"/>
<text text-anchor="start" x="653" y="-322" font-family="Roboto" font-size="10.00">Urho3D::HashMap&lt; Urho3D</text>
<text text-anchor="start" x="653" y="-311" font-family="Roboto" font-size="10.00">::String, Urho3D::Vector</text>
<text text-anchor="middle" x="714.5" y="-300" font-family="Roboto" font-size="10.00">&lt; Urho3D::StringHash &gt; &gt;</text>
</a>
</g>
</g>
<!-- Node9&#45;&gt;Node23 -->
<g id="edge31" class="edge">
<title>Node9&#45;&gt;Node23</title>
<path fill="none" stroke="#63b8ff" d="M483.95,-211.91C510.95,-231.41 558.77,-263.78 604,-283.5 616.83,-289.09 630.96,-293.89 644.69,-297.9"/>
<polygon fill="#63b8ff" stroke="#63b8ff" points="486.35,-209.33 476.22,-206.25 482.22,-214.98 486.35,-209.33"/>
</g>
<!-- Node28 -->
<g id="node25" class="node">
<title>Node28</title>
<g id="a_node25"><a xlink:href="class_urho3_d_1_1_hash_set.html" target="_top" xlink:title=" ">
<polygon fill="white" stroke="#666666" points="978,-41 843,-41 843,0 978,0 978,-41"/>
<text text-anchor="start" x="851" y="-29" font-family="Roboto" font-size="10.00">Urho3D::HashSet&lt; Urho3D</text>
<text text-anchor="start" x="851" y="-18" font-family="Roboto" font-size="10.00">::Pair&lt; Urho3D::StringHash,</text>
<text text-anchor="middle" x="910.5" y="-7" font-family="Roboto" font-size="10.00"> Urho3D::StringHash &gt; &gt;</text>
</a>
</g>
</g>
<!-- Node9&#45;&gt;Node28 -->
<g id="edge39" class="edge">
<title>Node9&#45;&gt;Node28</title>
<path fill="none" stroke="#63b8ff" d="M472.33,-175.8C492.25,-140.21 539.74,-66.14 604,-36.5 680.08,-1.41 778.4,-3.49 842.66,-10.25"/>
<polygon fill="#63b8ff" stroke="#63b8ff" points="469.47,-173.73 467.77,-184.19 475.62,-177.08 469.47,-173.73"/>
</g>
<!-- Node10 -->
<g id="node10" class="node">
<title>Node10</title>
<g id="a_node10"><a xlink:href="struct_urho3_d_1_1_hash_node_base.html" target="_top" xlink:title="Hash set/map node base class.">
<polygon fill="white" stroke="#666666" points="327,-230 202,-230 202,-211 327,-211 327,-230"/>
<text text-anchor="middle" x="264.5" y="-218" font-family="Roboto" font-size="10.00">Urho3D::HashNodeBase</text>
</a>
</g>
</g>
<!-- Node10&#45;&gt;Node9 -->
<g id="edge10" class="edge">
<title>Node10&#45;&gt;Node9</title>
<path fill="none" stroke="#9a32cd" stroke-dasharray="5,2" d="M338.56,-211.11C362.63,-208.02 388.81,-204.65 410.67,-201.84"/>
<polygon fill="#9a32cd" stroke="#9a32cd" points="338.28,-207.62 328.81,-212.36 339.17,-214.56 338.28,-207.62"/>
<text text-anchor="middle" x="368" y="-235.5" font-family="Roboto" font-size="10.00"> head_</text>
<text text-anchor="middle" x="368" y="-224.5" font-family="Roboto" font-size="10.00">ptrs_</text>
<text text-anchor="middle" x="368" y="-213.5" font-family="Roboto" font-size="10.00">tail_</text>
</g>
<!-- Node10&#45;&gt;Node10 -->
<g id="edge11" class="edge">
<title>Node10&#45;&gt;Node10</title>
<path fill="none" stroke="#9a32cd" stroke-dasharray="5,2" d="M246.13,-241.43C248.43,-245.29 254.55,-248 264.5,-248 282.69,-248 288.09,-238.94 280.7,-230.37"/>
<polygon fill="#9a32cd" stroke="#9a32cd" points="249.52,-242.34 248.01,-231.85 242.65,-240.99 249.52,-242.34"/>
<text text-anchor="middle" x="264.5" y="-273" font-family="Roboto" font-size="10.00"> down_</text>
<text text-anchor="middle" x="264.5" y="-262" font-family="Roboto" font-size="10.00">next_</text>
<text text-anchor="middle" x="264.5" y="-251" font-family="Roboto" font-size="10.00">prev_</text>
</g>
<!-- Node11 -->
<g id="node11" class="node">
<title>Node11</title>
<g id="a_node11"><a xlink:href="struct_urho3_d_1_1_allocator_block.html" target="_top" xlink:title="Allocator memory block.">
<polygon fill="white" stroke="#666666" points="324.5,-164 204.5,-164 204.5,-145 324.5,-145 324.5,-164"/>
<text text-anchor="middle" x="264.5" y="-152" font-family="Roboto" font-size="10.00">Urho3D::AllocatorBlock</text>
</a>
</g>
</g>
<!-- Node11&#45;&gt;Node9 -->
<g id="edge12" class="edge">
<title>Node11&#45;&gt;Node9</title>
<path fill="none" stroke="#9a32cd" stroke-dasharray="5,2" d="M323.6,-166.75C352.03,-172.74 385.84,-179.87 412.68,-185.52"/>
<polygon fill="#9a32cd" stroke="#9a32cd" points="324.57,-163.38 314.06,-164.74 323.13,-170.22 324.57,-163.38"/>
<text text-anchor="middle" x="368" y="-183.5" font-family="Roboto" font-size="10.00"> allocator_</text>
</g>
<!-- Node11&#45;&gt;Node11 -->
<g id="edge15" class="edge">
<title>Node11&#45;&gt;Node11</title>
<path fill="none" stroke="#9a32cd" stroke-dasharray="5,2" d="M246.13,-175.43C248.43,-179.29 254.55,-182 264.5,-182 282.69,-182 288.09,-172.94 280.7,-164.37"/>
<polygon fill="#9a32cd" stroke="#9a32cd" points="249.52,-176.34 248.01,-165.85 242.65,-174.99 249.52,-176.34"/>
<text text-anchor="middle" x="264.5" y="-185" font-family="Roboto" font-size="10.00"> next_</text>
</g>
<!-- Node12 -->
<g id="node12" class="node">
<title>Node12</title>
<g id="a_node12"><a xlink:href="struct_urho3_d_1_1_allocator_node.html" target="_top" xlink:title="Allocator node.">
<polygon fill="white" stroke="#666666" points="120,-164 0,-164 0,-145 120,-145 120,-164"/>
<text text-anchor="middle" x="60" y="-152" font-family="Roboto" font-size="10.00">Urho3D::AllocatorNode</text>
</a>
</g>
</g>
<!-- Node12&#45;&gt;Node11 -->
<g id="edge13" class="edge">
<title>Node12&#45;&gt;Node11</title>
<path fill="none" stroke="#9a32cd" stroke-dasharray="5,2" d="M131.76,-154.5C155.38,-154.5 181.45,-154.5 204.11,-154.5"/>
<polygon fill="#9a32cd" stroke="#9a32cd" points="131.9,-151 121.9,-154.5 131.9,-158 131.9,-151"/>
<text text-anchor="middle" x="161" y="-157.5" font-family="Roboto" font-size="10.00"> free_</text>
</g>
<!-- Node12&#45;&gt;Node12 -->
<g id="edge14" class="edge">
<title>Node12&#45;&gt;Node12</title>
<path fill="none" stroke="#9a32cd" stroke-dasharray="5,2" d="M42.07,-175.43C44.32,-179.29 50.29,-182 60,-182 77.75,-182 83.02,-172.94 75.81,-164.37"/>
<polygon fill="#9a32cd" stroke="#9a32cd" points="45.46,-176.33 43.9,-165.85 38.59,-175.02 45.46,-176.33"/>
<text text-anchor="middle" x="60" y="-185" font-family="Roboto" font-size="10.00"> next_</text>
</g>
<!-- Node13&#45;&gt;Node7 -->
<g id="edge16" class="edge">
<title>Node13&#45;&gt;Node7</title>
<path fill="none" stroke="#9a32cd" stroke-dasharray="5,2" d="M800.59,-216.39C874.34,-234.72 970.43,-259.27 978,-264.5 1018.14,-292.26 1045.18,-346.7 1054.95,-368.82"/>
<polygon fill="#9a32cd" stroke="#9a32cd" points="801.44,-212.99 790.89,-213.98 799.75,-219.79 801.44,-212.99"/>
<text text-anchor="middle" x="910.5" y="-267.5" font-family="Roboto" font-size="10.00"> subsystems_</text>
</g>
<!-- Node14&#45;&gt;Node7 -->
<g id="edge18" class="edge">
<title>Node14&#45;&gt;Node7</title>
<path fill="none" stroke="#9a32cd" stroke-dasharray="5,2" d="M806.78,-151.22C871.72,-163.26 951.89,-181.79 978,-203.5 1032.58,-248.87 1052.31,-339.11 1057.48,-368.79"/>
<polygon fill="#9a32cd" stroke="#9a32cd" points="807.63,-147.82 797.17,-149.47 806.38,-154.7 807.63,-147.82"/>
<text text-anchor="middle" x="910.5" y="-217.5" font-family="Roboto" font-size="10.00"> attributes_</text>
<text text-anchor="middle" x="910.5" y="-206.5" font-family="Roboto" font-size="10.00">networkAttributes_</text>
</g>
<!-- Node15&#45;&gt;Node7 -->
<g id="edge20" class="edge">
<title>Node15&#45;&gt;Node7</title>
<path fill="none" stroke="#9a32cd" stroke-dasharray="5,2" d="M809.57,-76.33C864.95,-83.88 932.77,-101.99 978,-144.5 1046.29,-208.68 1057.01,-333.24 1058.69,-368.81"/>
<polygon fill="#9a32cd" stroke="#9a32cd" points="810.18,-72.88 799.82,-75.1 809.3,-79.82 810.18,-72.88"/>
<text text-anchor="middle" x="910.5" y="-147.5" font-family="Roboto" font-size="10.00"> eventReceivers_</text>
</g>
<!-- Node16&#45;&gt;Node7 -->
<g id="edge22" class="edge">
<title>Node16&#45;&gt;Node7</title>
<path fill="none" stroke="#9a32cd" stroke-dasharray="5,2" d="M836.58,-378.5C898.55,-378.5 970.19,-378.5 1015.05,-378.5"/>
<polygon fill="#9a32cd" stroke="#9a32cd" points="836.64,-375 826.64,-378.5 836.64,-382 836.64,-375"/>
<text text-anchor="middle" x="910.5" y="-381.5" font-family="Roboto" font-size="10.00"> specificEventReceivers_</text>
</g>
<!-- Node17 -->
<g id="node17" class="node">
<title>Node17</title>
<g id="a_node17"><a xlink:href="class_urho3_d_1_1_p_o_d_vector.html" target="_top" xlink:title=" ">
<polygon fill="white" stroke="orangered" points="769,-585.5 660,-585.5 660,-555.5 769,-555.5 769,-585.5"/>
<text text-anchor="start" x="668" y="-573.5" font-family="Roboto" font-size="10.00">Urho3D::PODVector&lt;</text>
<text text-anchor="middle" x="714.5" y="-562.5" font-family="Roboto" font-size="10.00"> Urho3D::Object * &gt;</text>
</a>
</g>
</g>
<!-- Node17&#45;&gt;Node7 -->
<g id="edge24" class="edge">
<title>Node17&#45;&gt;Node7</title>
<path fill="none" stroke="#9a32cd" stroke-dasharray="5,2" d="M780.7,-566.28C853.17,-561.09 962.15,-551.59 978,-540.5 1032.36,-502.47 1052.14,-417.08 1057.41,-388.23"/>
<polygon fill="#9a32cd" stroke="#9a32cd" points="780.64,-562.78 770.91,-566.97 781.13,-569.76 780.64,-562.78"/>
<text text-anchor="middle" x="910.5" y="-564.5" font-family="Roboto" font-size="10.00"> eventSenders_</text>
</g>
<!-- Node19 -->
<g id="node18" class="node">
<title>Node19</title>
<g id="a_node18"><a xlink:href="class_urho3_d_1_1_p_o_d_vector.html" target="_top" xlink:title=" ">
<polygon fill="white" stroke="orangered" points="771.5,-490.5 657.5,-490.5 657.5,-460.5 771.5,-460.5 771.5,-490.5"/>
<text text-anchor="start" x="665.5" y="-478.5" font-family="Roboto" font-size="10.00">Urho3D::PODVector&lt;</text>
<text text-anchor="middle" x="714.5" y="-467.5" font-family="Roboto" font-size="10.00"> Urho3D::HashMap * &gt;</text>
</a>
</g>
</g>
<!-- Node19&#45;&gt;Node7 -->
<g id="edge25" class="edge">
<title>Node19&#45;&gt;Node7</title>
<path fill="none" stroke="#9a32cd" stroke-dasharray="5,2" d="M783.21,-478.62C837.9,-478.69 915.72,-473.14 978,-446.5 1009.06,-433.21 1037.32,-403.9 1050.75,-388.46"/>
<polygon fill="#9a32cd" stroke="#9a32cd" points="783.45,-475.12 773.42,-478.54 783.39,-482.12 783.45,-475.12"/>
<text text-anchor="middle" x="910.5" y="-479.5" font-family="Roboto" font-size="10.00"> eventDataMaps_</text>
</g>
<!-- Node20&#45;&gt;Node7 -->
<g id="edge26" class="edge">
<title>Node20&#45;&gt;Node7</title>
<path fill="none" stroke="#9a32cd" stroke-dasharray="5,2" d="M782.75,-611.51C850.28,-608.22 948.43,-599.51 978,-576.5 1041.02,-527.46 1055.32,-421.14 1058.28,-388.34"/>
<polygon fill="#9a32cd" stroke="#9a32cd" points="782.7,-608.01 772.87,-611.96 783.02,-615 782.7,-608.01"/>
<text text-anchor="middle" x="910.5" y="-610.5" font-family="Roboto" font-size="10.00"> eventHandler_</text>
</g>
<!-- Node25 -->
<g id="node22" class="node">
<title>Node25</title>
<g id="a_node22"><a xlink:href="class_urho3_d_1_1_linked_list.html" target="_top" xlink:title=" ">
<polygon fill="white" stroke="#666666" points="1124,-661.5 996,-661.5 996,-631.5 1124,-631.5 1124,-661.5"/>
<text text-anchor="start" x="1004" y="-649.5" font-family="Roboto" font-size="10.00">Urho3D::LinkedList</text>
<text text-anchor="middle" x="1060" y="-638.5" font-family="Roboto" font-size="10.00">&lt; Urho3D::EventHandler &gt;</text>
</a>
</g>
</g>
<!-- Node20&#45;&gt;Node25 -->
<g id="edge33" class="edge">
<title>Node20&#45;&gt;Node25</title>
<path fill="none" stroke="#9a32cd" stroke-dasharray="5,2" d="M782.73,-617.63C835.83,-621.19 911.77,-626.95 978,-634.5 983.79,-635.16 989.8,-635.92 995.82,-636.72"/>
<polygon fill="#9a32cd" stroke="#9a32cd" points="783.14,-614.15 772.93,-616.98 782.68,-621.13 783.14,-614.15"/>
<text text-anchor="middle" x="910.5" y="-637.5" font-family="Roboto" font-size="10.00"> head_</text>
</g>
<!-- Node22 -->
<g id="node20" class="node">
<title>Node22</title>
<g id="a_node20"><a xlink:href="class_urho3_d_1_1_string_hash.html" target="_top" xlink:title="32&#45;bit hash value for a string.">
<polygon fill="white" stroke="#666666" points="513,-723 409,-723 409,-704 513,-704 513,-723"/>
<text text-anchor="middle" x="461" y="-711" font-family="Roboto" font-size="10.00">Urho3D::StringHash</text>
</a>
</g>
</g>
<!-- Node22&#45;&gt;Node3 -->
<g id="edge36" class="edge">
<title>Node22&#45;&gt;Node3</title>
<path fill="none" stroke="#9a32cd" stroke-dasharray="5,2" d="M524.42,-723.56C526.64,-723.88 528.84,-724.2 531,-724.5 576.83,-730.91 629.29,-737.12 666.17,-741.3"/>
<polygon fill="#9a32cd" stroke="#9a32cd" points="525.12,-720.13 514.71,-722.11 524.08,-727.05 525.12,-720.13"/>
<text text-anchor="middle" x="558.5" y="-734.5" font-family="Roboto" font-size="10.00"> nameHash_</text>
</g>
<!-- Node22&#45;&gt;Node20 -->
<g id="edge28" class="edge">
<title>Node22&#45;&gt;Node20</title>
<path fill="none" stroke="#9a32cd" stroke-dasharray="5,2" d="M486.7,-697.55C514.28,-680.41 560.74,-653.47 604,-637.5 620.98,-631.23 640.07,-626.35 657.5,-622.68"/>
<polygon fill="#9a32cd" stroke="#9a32cd" points="484.98,-694.5 478.38,-702.79 488.71,-700.42 484.98,-694.5"/>
<text text-anchor="middle" x="558.5" y="-674.5" font-family="Roboto" font-size="10.00"> eventType_</text>
</g>
<!-- Node22&#45;&gt;Node22 -->
<g id="edge29" class="edge">
<title>Node22&#45;&gt;Node22</title>
<path fill="none" stroke="#9a32cd" stroke-dasharray="5,2" d="M444.49,-734.43C446.56,-738.29 452.06,-741 461,-741 477.35,-741 482.2,-731.94 475.56,-723.37"/>
<polygon fill="#9a32cd" stroke="#9a32cd" points="447.89,-735.31 446.18,-724.86 441,-734.1 447.89,-735.31"/>
<text text-anchor="middle" x="461" y="-744" font-family="Roboto" font-size="10.00"> ZERO</text>
</g>
<!-- Node23&#45;&gt;Node7 -->
<g id="edge30" class="edge">
<title>Node23&#45;&gt;Node7</title>
<path fill="none" stroke="#9a32cd" stroke-dasharray="5,2" d="M795.35,-328.61C863.83,-341.57 959.93,-359.75 1015.2,-370.21"/>
<polygon fill="#9a32cd" stroke="#9a32cd" points="796.15,-325.2 785.67,-326.78 794.85,-332.08 796.15,-325.2"/>
<text text-anchor="middle" x="910.5" y="-366.5" font-family="Roboto" font-size="10.00"> objectCategories_</text>
</g>
<!-- Node25&#45;&gt;Node4 -->
<g id="edge32" class="edge">
<title>Node25&#45;&gt;Node4</title>
<path fill="none" stroke="#9a32cd" stroke-dasharray="5,2" d="M984.49,-653.68C881.47,-661.75 690.23,-670.09 531,-639.5 514.15,-636.26 496.04,-629.29 482.6,-623.38"/>
<polygon fill="#9a32cd" stroke="#9a32cd" points="984.5,-657.19 994.18,-652.89 983.93,-650.21 984.5,-657.19"/>
<text text-anchor="middle" x="714.5" y="-664.5" font-family="Roboto" font-size="10.00"> eventHandlers_</text>
</g>
<!-- Node26 -->
<g id="node23" class="node">
<title>Node26</title>
<g id="a_node23"><a xlink:href="class_urho3_d_1_1_string.html" target="_top" xlink:title="String class.">
<polygon fill="white" stroke="#666666" points="501,-827 421,-827 421,-808 501,-808 501,-827"/>
<text text-anchor="middle" x="461" y="-815" font-family="Roboto" font-size="10.00">Urho3D::String</text>
</a>
</g>
</g>
<!-- Node26&#45;&gt;Node3 -->
<g id="edge34" class="edge">
<title>Node26&#45;&gt;Node3</title>
<path fill="none" stroke="#9a32cd" stroke-dasharray="5,2" d="M512.52,-805C535.07,-799.29 561.93,-792.28 586,-785.5 619.09,-776.18 656.69,-764.55 682.44,-756.42"/>
<polygon fill="#9a32cd" stroke="#9a32cd" points="511.8,-801.57 502.96,-807.41 513.51,-808.36 511.8,-801.57"/>
<text text-anchor="middle" x="558.5" y="-803.5" font-family="Roboto" font-size="10.00"> name_</text>
</g>
<!-- Node26&#45;&gt;Node26 -->
<g id="edge35" class="edge">
<title>Node26&#45;&gt;Node26</title>
<path fill="none" stroke="#9a32cd" stroke-dasharray="5,2" d="M444.49,-838.43C446.56,-842.29 452.06,-845 461,-845 477.35,-845 482.2,-835.94 475.56,-827.37"/>
<polygon fill="#9a32cd" stroke="#9a32cd" points="447.89,-839.31 446.18,-828.86 441,-838.1 447.89,-839.31"/>
<text text-anchor="middle" x="461" y="-848" font-family="Roboto" font-size="10.00"> EMPTY</text>
</g>
<!-- Node27 -->
<g id="node24" class="node">
<title>Node27</title>
<g id="a_node24"><a xlink:href="class_urho3_d_1_1_timer.html" target="_top" xlink:title="Low&#45;resolution operating system timer.">
<polygon fill="white" stroke="#666666" points="501.5,-790 420.5,-790 420.5,-771 501.5,-771 501.5,-790"/>
<text text-anchor="middle" x="461" y="-778" font-family="Roboto" font-size="10.00">Urho3D::Timer</text>
</a>
</g>
</g>
<!-- Node27&#45;&gt;Node3 -->
<g id="edge37" class="edge">
<title>Node27&#45;&gt;Node3</title>
<path fill="none" stroke="#9a32cd" stroke-dasharray="5,2" d="M513.07,-773.6C557.86,-767.54 622.46,-758.81 666.12,-752.91"/>
<polygon fill="#9a32cd" stroke="#9a32cd" points="512.79,-770.1 503.35,-774.91 513.73,-777.04 512.79,-770.1"/>
<text text-anchor="middle" x="558.5" y="-773.5" font-family="Roboto" font-size="10.00"> useTimer_</text>
</g>
<!-- Node28&#45;&gt;Node1 -->
<g id="edge38" class="edge">
<title>Node28&#45;&gt;Node1</title>
<path fill="none" stroke="#9a32cd" stroke-dasharray="5,2" d="M989.05,-42.18C1067.67,-64.15 1185.83,-97.18 1244.43,-113.56"/>
<polygon fill="#9a32cd" stroke="#9a32cd" points="990.26,-38.88 979.69,-39.56 988.38,-45.62 990.26,-38.88"/>
<text text-anchor="middle" x="1060" y="-93.5" font-family="Roboto" font-size="10.00"> dependencies_</text>
<text text-anchor="middle" x="1060" y="-82.5" font-family="Roboto" font-size="10.00">dependents_</text>
</g>
</g>
</svg>
