<?xml version="1.0" encoding="UTF-8" standalone="no"?>
<!DOCTYPE svg PUBLIC "-//W3C//DTD SVG 1.1//EN"
 "http://www.w3.org/Graphics/SVG/1.1/DTD/svg11.dtd">
<!-- Generated by graphviz version 7.0.3 (0)
 -->
<!-- Title: Urho3D::NavAreaStub Pages: 1 -->
<svg width="174pt" height="239pt"
 viewBox="0.00 0.00 174.00 239.00" xmlns="http://www.w3.org/2000/svg" xmlns:xlink="http://www.w3.org/1999/xlink">
<g id="graph0" class="graph" transform="scale(1 1) rotate(0) translate(4 235)">
<title>Urho3D::NavAreaStub</title>
<!-- Node1 -->
<g id="node1" class="node">
<title>Node1</title>
<g id="a_node1"><a xlink:title="Navigation area stub.">
<polygon fill="#999999" stroke="#666666" points="112.5,-19 0.5,-19 0.5,0 112.5,0 112.5,-19"/>
<text text-anchor="middle" x="56.5" y="-7" font-family="Roboto" font-size="10.00">Urho3D::NavAreaStub</text>
</a>
</g>
</g>
<!-- Node2 -->
<g id="node2" class="node">
<title>Node2</title>
<g id="a_node2"><a xlink:href="class_urho3_d_1_1_bounding_box.html" target="_top" xlink:title=" ">
<polygon fill="white" stroke="#666666" points="113,-85 0,-85 0,-66 113,-66 113,-85"/>
<text text-anchor="middle" x="56.5" y="-73" font-family="Roboto" font-size="10.00">Urho3D::BoundingBox</text>
</a>
</g>
</g>
<!-- Node2&#45;&gt;Node1 -->
<g id="edge1" class="edge">
<title>Node2&#45;&gt;Node1</title>
<path fill="none" stroke="#9a32cd" stroke-dasharray="5,2" d="M56.5,-54.18C56.5,-42.44 56.5,-28.27 56.5,-19.32"/>
<polygon fill="#9a32cd" stroke="#9a32cd" points="53,-54.09 56.5,-64.09 60,-54.09 53,-54.09"/>
<text text-anchor="middle" x="76.5" y="-40" font-family="Roboto" font-size="10.00"> bounds_</text>
</g>
<!-- Node3 -->
<g id="node3" class="node">
<title>Node3</title>
<g id="a_node3"><a xlink:href="class_urho3_d_1_1_vector3.html" target="_top" xlink:title="Three&#45;dimensional vector.">
<polygon fill="white" stroke="#666666" points="101,-196.5 12,-196.5 12,-177.5 101,-177.5 101,-196.5"/>
<text text-anchor="middle" x="56.5" y="-184.5" font-family="Roboto" font-size="10.00">Urho3D::Vector3</text>
</a>
</g>
</g>
<!-- Node3&#45;&gt;Node2 -->
<g id="edge2" class="edge">
<title>Node3&#45;&gt;Node2</title>
<path fill="none" stroke="#9a32cd" stroke-dasharray="5,2" d="M56.5,-165.73C56.5,-141.67 56.5,-102.62 56.5,-85.28"/>
<polygon fill="#9a32cd" stroke="#9a32cd" points="53,-165.53 56.5,-175.53 60,-165.53 53,-165.53"/>
<text text-anchor="middle" x="70" y="-117" font-family="Roboto" font-size="10.00"> max_</text>
<text text-anchor="middle" x="70" y="-106" font-family="Roboto" font-size="10.00">min_</text>
</g>
<!-- Node3&#45;&gt;Node3 -->
<g id="edge3" class="edge">
<title>Node3&#45;&gt;Node3</title>
<path fill="none" stroke="#9a32cd" stroke-dasharray="5,2" d="M84.95,-199.75C102.42,-202.76 119,-198.51 119,-187 119,-173.1 94.82,-169.79 74.1,-177.06"/>
<polygon fill="#9a32cd" stroke="#9a32cd" points="86.12,-196.44 75.56,-197.32 84.36,-203.21 86.12,-196.44"/>
<text text-anchor="middle" x="142.5" y="-223" font-family="Roboto" font-size="10.00"> BACK</text>
<text text-anchor="middle" x="142.5" y="-212" font-family="Roboto" font-size="10.00">DOWN</text>
<text text-anchor="middle" x="142.5" y="-201" font-family="Roboto" font-size="10.00">FORWARD</text>
<text text-anchor="middle" x="142.5" y="-190" font-family="Roboto" font-size="10.00">LEFT</text>
<text text-anchor="middle" x="142.5" y="-179" font-family="Roboto" font-size="10.00">ONE</text>
<text text-anchor="middle" x="142.5" y="-168" font-family="Roboto" font-size="10.00">RIGHT</text>
<text text-anchor="middle" x="142.5" y="-157" font-family="Roboto" font-size="10.00">UP</text>
<text text-anchor="middle" x="142.5" y="-146" font-family="Roboto" font-size="10.00">ZERO</text>
</g>
</g>
</svg>
