<?xml version="1.0" encoding="UTF-8" standalone="no"?>
<!DOCTYPE svg PUBLIC "-//W3C//DTD SVG 1.1//EN"
 "http://www.w3.org/Graphics/SVG/1.1/DTD/svg11.dtd">
<!-- Generated by graphviz version 7.0.3 (0)
 -->
<!-- Title: Urho3D::RenderTargetInfo Pages: 1 -->
<svg width="301pt" height="151pt"
 viewBox="0.00 0.00 300.50 151.00" xmlns="http://www.w3.org/2000/svg" xmlns:xlink="http://www.w3.org/1999/xlink">
<g id="graph0" class="graph" transform="scale(1 1) rotate(0) translate(4 147)">
<title>Urho3D::RenderTargetInfo</title>
<!-- Node1 -->
<g id="node1" class="node">
<title>Node1</title>
<g id="a_node1"><a xlink:title="Rendertarget definition.">
<polygon fill="#999999" stroke="#666666" points="183.5,-19 52.5,-19 52.5,0 183.5,0 183.5,-19"/>
<text text-anchor="middle" x="118" y="-7" font-family="Roboto" font-size="10.00">Urho3D::RenderTargetInfo</text>
</a>
</g>
</g>
<!-- Node2 -->
<g id="node2" class="node">
<title>Node2</title>
<g id="a_node2"><a xlink:href="class_urho3_d_1_1_string.html" target="_top" xlink:title="String class.">
<polygon fill="white" stroke="#666666" points="80,-119.5 0,-119.5 0,-100.5 80,-100.5 80,-119.5"/>
<text text-anchor="middle" x="40" y="-107.5" font-family="Roboto" font-size="10.00">Urho3D::String</text>
</a>
</g>
</g>
<!-- Node2&#45;&gt;Node1 -->
<g id="edge1" class="edge">
<title>Node2&#45;&gt;Node1</title>
<path fill="none" stroke="#9a32cd" stroke-dasharray="5,2" d="M53.98,-91.34C70.74,-70.18 98.16,-35.55 110.98,-19.36"/>
<polygon fill="#9a32cd" stroke="#9a32cd" points="51.33,-89.06 47.86,-99.07 56.81,-93.41 51.33,-89.06"/>
<text text-anchor="middle" x="111" y="-51" font-family="Roboto" font-size="10.00"> name_</text>
<text text-anchor="middle" x="111" y="-40" font-family="Roboto" font-size="10.00">tag_</text>
</g>
<!-- Node2&#45;&gt;Node2 -->
<g id="edge2" class="edge">
<title>Node2&#45;&gt;Node2</title>
<path fill="none" stroke="#9a32cd" stroke-dasharray="5,2" d="M73.12,-121.54C86.62,-122.26 98,-118.41 98,-110 98,-99.34 79.72,-96.01 62.02,-100.01"/>
<polygon fill="#9a32cd" stroke="#9a32cd" points="73.91,-118.12 63.52,-120.2 72.94,-125.05 73.91,-118.12"/>
<text text-anchor="middle" x="116" y="-107.5" font-family="Roboto" font-size="10.00"> EMPTY</text>
</g>
<!-- Node3 -->
<g id="node3" class="node">
<title>Node3</title>
<g id="a_node3"><a xlink:href="class_urho3_d_1_1_vector2.html" target="_top" xlink:title="Two&#45;dimensional vector.">
<polygon fill="white" stroke="#666666" points="241.5,-119.5 152.5,-119.5 152.5,-100.5 241.5,-100.5 241.5,-119.5"/>
<text text-anchor="middle" x="197" y="-107.5" font-family="Roboto" font-size="10.00">Urho3D::Vector2</text>
</a>
</g>
</g>
<!-- Node3&#45;&gt;Node1 -->
<g id="edge3" class="edge">
<title>Node3&#45;&gt;Node1</title>
<path fill="none" stroke="#9a32cd" stroke-dasharray="5,2" d="M182.84,-91.34C165.87,-70.18 138.09,-35.55 125.11,-19.36"/>
<polygon fill="#9a32cd" stroke="#9a32cd" points="180.06,-93.47 189.04,-99.08 185.52,-89.09 180.06,-93.47"/>
<text text-anchor="middle" x="167.5" y="-45.5" font-family="Roboto" font-size="10.00"> size_</text>
</g>
<!-- Node3&#45;&gt;Node3 -->
<g id="edge4" class="edge">
<title>Node3&#45;&gt;Node3</title>
<path fill="none" stroke="#9a32cd" stroke-dasharray="5,2" d="M231.83,-121.49C246.75,-122.41 259.5,-118.57 259.5,-110 259.5,-99.34 239.81,-96.01 220.73,-100.01"/>
<polygon fill="#9a32cd" stroke="#9a32cd" points="232.61,-118.07 222.23,-120.19 231.67,-125 232.61,-118.07"/>
<text text-anchor="middle" x="276" y="-135" font-family="Roboto" font-size="10.00"> DOWN</text>
<text text-anchor="middle" x="276" y="-124" font-family="Roboto" font-size="10.00">LEFT</text>
<text text-anchor="middle" x="276" y="-113" font-family="Roboto" font-size="10.00">ONE</text>
<text text-anchor="middle" x="276" y="-102" font-family="Roboto" font-size="10.00">RIGHT</text>
<text text-anchor="middle" x="276" y="-91" font-family="Roboto" font-size="10.00">UP</text>
<text text-anchor="middle" x="276" y="-80" font-family="Roboto" font-size="10.00">ZERO</text>
</g>
</g>
</svg>
