<?xml version="1.0" encoding="UTF-8" standalone="no"?>
<!DOCTYPE svg PUBLIC "-//W3C//DTD SVG 1.1//EN"
 "http://www.w3.org/Graphics/SVG/1.1/DTD/svg11.dtd">
<!-- Generated by graphviz version 7.0.3 (0)
 -->
<!-- Title: Urho3D::AttributeHandle Pages: 1 -->
<svg width="1580pt" height="1072pt"
 viewBox="0.00 0.00 1580.00 1072.16" xmlns="http://www.w3.org/2000/svg" xmlns:xlink="http://www.w3.org/1999/xlink">
<g id="graph0" class="graph" transform="scale(1 1) rotate(0) translate(4 1068.16)">
<title>Urho3D::AttributeHandle</title>
<!-- Node1 -->
<g id="node1" class="node">
<title>Node1</title>
<g id="a_node1"><a xlink:title=" ">
<polygon fill="#999999" stroke="#666666" points="1572,-955.66 1448,-955.66 1448,-936.66 1572,-936.66 1572,-955.66"/>
<text text-anchor="middle" x="1510" y="-943.66" font-family="Roboto" font-size="10.00">Urho3D::AttributeHandle</text>
</a>
</g>
</g>
<!-- Node2 -->
<g id="node2" class="node">
<title>Node2</title>
<g id="a_node2"><a xlink:href="struct_urho3_d_1_1_attribute_info.html" target="_top" xlink:title="Description of an automatically serializable variable.">
<polygon fill="white" stroke="#666666" points="1315,-955.66 1205,-955.66 1205,-936.66 1315,-936.66 1315,-955.66"/>
<text text-anchor="middle" x="1260" y="-943.66" font-family="Roboto" font-size="10.00">Urho3D::AttributeInfo</text>
</a>
</g>
</g>
<!-- Node2&#45;&gt;Node1 -->
<g id="edge1" class="edge">
<title>Node2&#45;&gt;Node1</title>
<path fill="none" stroke="#9a32cd" stroke-dasharray="5,2" d="M1326.75,-946.16C1364.27,-946.16 1410.99,-946.16 1447.73,-946.16"/>
<polygon fill="#9a32cd" stroke="#9a32cd" points="1326.94,-942.67 1316.94,-946.16 1326.94,-949.67 1326.94,-942.67"/>
<text text-anchor="middle" x="1381.5" y="-960.16" font-family="Roboto" font-size="10.00"> attributeInfo_</text>
<text text-anchor="middle" x="1381.5" y="-949.16" font-family="Roboto" font-size="10.00">networkAttributeInfo_</text>
</g>
<!-- Node3 -->
<g id="node3" class="node">
<title>Node3</title>
<g id="a_node3"><a xlink:href="class_urho3_d_1_1_string.html" target="_top" xlink:title="String class.">
<polygon fill="white" stroke="#666666" points="245.5,-853.66 165.5,-853.66 165.5,-834.66 245.5,-834.66 245.5,-853.66"/>
<text text-anchor="middle" x="205.5" y="-841.66" font-family="Roboto" font-size="10.00">Urho3D::String</text>
</a>
</g>
</g>
<!-- Node3&#45;&gt;Node2 -->
<g id="edge2" class="edge">
<title>Node3&#45;&gt;Node2</title>
<path fill="none" stroke="#9a32cd" stroke-dasharray="5,2" d="M256.59,-855.13C312.31,-866.36 405.14,-882.16 486,-882.16 486,-882.16 486,-882.16 1065,-882.16 1133.09,-882.16 1208.17,-918.16 1241.46,-936.16"/>
<polygon fill="#9a32cd" stroke="#9a32cd" points="257.6,-851.77 247.1,-853.19 256.19,-858.62 257.6,-851.77"/>
<text text-anchor="middle" x="785" y="-885.16" font-family="Roboto" font-size="10.00"> name_</text>
</g>
<!-- Node3&#45;&gt;Node3 -->
<g id="edge3" class="edge">
<title>Node3&#45;&gt;Node3</title>
<path fill="none" stroke="#9a32cd" stroke-dasharray="5,2" d="M191.28,-865.42C193.2,-869.11 197.94,-871.66 205.5,-871.66 219.74,-871.66 223.97,-862.6 218.18,-854.03"/>
<polygon fill="#9a32cd" stroke="#9a32cd" points="194.75,-865.91 192.62,-855.53 187.81,-864.98 194.75,-865.91"/>
<text text-anchor="middle" x="205.5" y="-874.66" font-family="Roboto" font-size="10.00"> EMPTY</text>
</g>
<!-- Node11 -->
<g id="node10" class="node">
<title>Node11</title>
<g id="a_node10"><a xlink:href="struct_urho3_d_1_1_resource_ref.html" target="_top" xlink:title="Typed resource reference.">
<polygon fill="white" stroke="#666666" points="542.5,-853.66 431.5,-853.66 431.5,-834.66 542.5,-834.66 542.5,-853.66"/>
<text text-anchor="middle" x="487" y="-841.66" font-family="Roboto" font-size="10.00">Urho3D::ResourceRef</text>
</a>
</g>
</g>
<!-- Node3&#45;&gt;Node11 -->
<g id="edge14" class="edge">
<title>Node3&#45;&gt;Node11</title>
<path fill="none" stroke="#9a32cd" stroke-dasharray="5,2" d="M257.26,-844.16C306.39,-844.16 380.65,-844.16 431.13,-844.16"/>
<polygon fill="#9a32cd" stroke="#9a32cd" points="257.47,-840.67 247.47,-844.16 257.47,-847.67 257.47,-840.67"/>
<text text-anchor="middle" x="338.5" y="-847.16" font-family="Roboto" font-size="10.00"> name_</text>
</g>
<!-- Node21 -->
<g id="node17" class="node">
<title>Node21</title>
<g id="a_node17"><a xlink:href="union_urho3_d_1_1_variant_value.html" target="_top" xlink:title="Union for the possible variant values. Objects exceeding the VARIANT_VALUE_SIZE are allocated on the ...">
<polygon fill="#fff0f0" stroke="red" points="840,-557.66 730,-557.66 730,-538.66 840,-538.66 840,-557.66"/>
<text text-anchor="middle" x="785" y="-545.66" font-family="Roboto" font-size="10.00">Urho3D::VariantValue</text>
</a>
</g>
</g>
<!-- Node3&#45;&gt;Node21 -->
<g id="edge39" class="edge">
<title>Node3&#45;&gt;Node21</title>
<path fill="none" stroke="#9a32cd" stroke-dasharray="5,2" d="M224.39,-826.73C257.78,-795.17 333.13,-728.59 409,-693.16 473.57,-663.02 497.34,-678.5 565,-656.16 632.5,-633.88 649.01,-626.1 712,-593.16 732.64,-582.37 755.23,-567.76 769.5,-558.16"/>
<polygon fill="#9a32cd" stroke="#9a32cd" points="222.37,-823.81 217.56,-833.25 227.21,-828.87 222.37,-823.81"/>
<text text-anchor="middle" x="487" y="-696.16" font-family="Roboto" font-size="10.00"> string_</text>
</g>
<!-- Node4 -->
<g id="node4" class="node">
<title>Node4</title>
<g id="a_node4"><a xlink:href="class_urho3_d_1_1_shared_ptr.html" target="_top" xlink:title=" ">
<polygon fill="white" stroke="#666666" points="1003,-1026.16 858,-1026.16 858,-996.16 1003,-996.16 1003,-1026.16"/>
<text text-anchor="start" x="866" y="-1014.16" font-family="Roboto" font-size="10.00">Urho3D::SharedPtr&lt;</text>
<text text-anchor="middle" x="930.5" y="-1003.16" font-family="Roboto" font-size="10.00"> Urho3D::AttributeAccessor &gt;</text>
</a>
</g>
</g>
<!-- Node4&#45;&gt;Node2 -->
<g id="edge4" class="edge">
<title>Node4&#45;&gt;Node2</title>
<path fill="none" stroke="#9a32cd" stroke-dasharray="5,2" d="M1014.55,-994.68C1075.73,-982.54 1156.95,-966.42 1208.62,-956.16"/>
<polygon fill="#9a32cd" stroke="#9a32cd" points="1013.98,-991.23 1004.86,-996.61 1015.35,-998.09 1013.98,-991.23"/>
<text text-anchor="middle" x="1064" y="-995.16" font-family="Roboto" font-size="10.00"> accessor_</text>
</g>
<!-- Node5 -->
<g id="node5" class="node">
<title>Node5</title>
<g id="a_node5"><a xlink:href="class_urho3_d_1_1_attribute_accessor.html" target="_top" xlink:title="Abstract base class for invoking attribute accessors.">
<polygon fill="white" stroke="#666666" points="554.5,-977.66 419.5,-977.66 419.5,-958.66 554.5,-958.66 554.5,-977.66"/>
<text text-anchor="middle" x="487" y="-965.66" font-family="Roboto" font-size="10.00">Urho3D::AttributeAccessor</text>
</a>
</g>
</g>
<!-- Node5&#45;&gt;Node4 -->
<g id="edge5" class="edge">
<title>Node5&#45;&gt;Node4</title>
<path fill="none" stroke="#9a32cd" stroke-dasharray="5,2" d="M565.91,-960.75C637.88,-955.91 747.33,-953.62 840,-973.16 861.31,-977.66 883.87,-987.27 901.01,-995.71"/>
<polygon fill="#9a32cd" stroke="#9a32cd" points="565.93,-957.24 556.2,-961.44 566.42,-964.23 565.93,-957.24"/>
<text text-anchor="middle" x="647.5" y="-962.16" font-family="Roboto" font-size="10.00"> ptr_</text>
</g>
<!-- Node6 -->
<g id="node6" class="node">
<title>Node6</title>
<g id="a_node6"><a xlink:href="class_urho3_d_1_1_ref_counted.html" target="_top" xlink:title="Base class for intrusively reference&#45;counted objects. These are noncopyable and non&#45;assignable.">
<polygon fill="#fff0f0" stroke="red" points="259,-952.66 152,-952.66 152,-933.66 259,-933.66 259,-952.66"/>
<text text-anchor="middle" x="205.5" y="-940.66" font-family="Roboto" font-size="10.00">Urho3D::RefCounted</text>
</a>
</g>
</g>
<!-- Node6&#45;&gt;Node5 -->
<g id="edge6" class="edge">
<title>Node6&#45;&gt;Node5</title>
<path fill="none" stroke="#63b8ff" d="M270.66,-948.9C315.13,-952.88 374.21,-958.17 419.24,-962.19"/>
<polygon fill="#63b8ff" stroke="#63b8ff" points="271.18,-945.44 260.91,-948.03 270.56,-952.41 271.18,-945.44"/>
</g>
<!-- Node22 -->
<g id="node18" class="node">
<title>Node22</title>
<g id="a_node18"><a xlink:href="class_urho3_d_1_1_weak_ptr.html" target="_top" xlink:title=" ">
<polygon fill="white" stroke="orangered" points="554,-940.16 420,-940.16 420,-910.16 554,-910.16 554,-940.16"/>
<text text-anchor="start" x="428" y="-928.16" font-family="Roboto" font-size="10.00">Urho3D::WeakPtr&lt; Urho3D</text>
<text text-anchor="middle" x="487" y="-917.16" font-family="Roboto" font-size="10.00">::RefCounted &gt;</text>
</a>
</g>
</g>
<!-- Node6&#45;&gt;Node22 -->
<g id="edge25" class="edge">
<title>Node6&#45;&gt;Node22</title>
<path fill="none" stroke="#9a32cd" stroke-dasharray="5,2" d="M270.76,-936.42C275.91,-935.96 281.04,-935.54 286,-935.16 330.55,-931.81 380.77,-929.31 419.74,-927.64"/>
<polygon fill="#9a32cd" stroke="#9a32cd" points="270.64,-932.92 261,-937.32 271.28,-939.89 270.64,-932.92"/>
<text text-anchor="middle" x="338.5" y="-938.16" font-family="Roboto" font-size="10.00"> ptr_</text>
</g>
<!-- Node8 -->
<g id="node7" class="node">
<title>Node8</title>
<g id="a_node7"><a xlink:href="class_urho3_d_1_1_variant.html" target="_top" xlink:title="Variable that supports a fixed set of types.">
<polygon fill="white" stroke="#666666" points="1107,-557.66 1021,-557.66 1021,-538.66 1107,-538.66 1107,-557.66"/>
<text text-anchor="middle" x="1064" y="-545.66" font-family="Roboto" font-size="10.00">Urho3D::Variant</text>
</a>
</g>
</g>
<!-- Node8&#45;&gt;Node2 -->
<g id="edge7" class="edge">
<title>Node8&#45;&gt;Node2</title>
<path fill="none" stroke="#9a32cd" stroke-dasharray="5,2" d="M1074.65,-567.97C1109.6,-639.66 1228.76,-884.13 1254.2,-936.31"/>
<polygon fill="#9a32cd" stroke="#9a32cd" points="1077.99,-566.82 1070.46,-559.36 1071.69,-569.89 1077.99,-566.82"/>
<text text-anchor="middle" x="1156" y="-797.16" font-family="Roboto" font-size="10.00"> defaultValue_</text>
</g>
<!-- Node8&#45;&gt;Node8 -->
<g id="edge8" class="edge">
<title>Node8&#45;&gt;Node8</title>
<path fill="none" stroke="#9a32cd" stroke-dasharray="5,2" d="M1047.67,-569.1C1049.71,-572.95 1055.16,-575.66 1064,-575.66 1080.17,-575.66 1084.97,-566.6 1078.4,-558.03"/>
<polygon fill="#9a32cd" stroke="#9a32cd" points="1051.07,-569.98 1049.34,-559.52 1044.17,-568.78 1051.07,-569.98"/>
<text text-anchor="middle" x="1064" y="-578.66" font-family="Roboto" font-size="10.00"> EMPTY</text>
</g>
<!-- Node9 -->
<g id="node8" class="node">
<title>Node9</title>
<g id="a_node8"><a xlink:href="class_urho3_d_1_1_p_o_d_vector.html" target="_top" xlink:title=" ">
<polygon fill="white" stroke="#666666" points="541.5,-148.16 432.5,-148.16 432.5,-118.16 541.5,-118.16 541.5,-148.16"/>
<text text-anchor="start" x="440.5" y="-136.16" font-family="Roboto" font-size="10.00">Urho3D::PODVector&lt;</text>
<text text-anchor="middle" x="487" y="-125.16" font-family="Roboto" font-size="10.00"> unsigned char &gt;</text>
</a>
</g>
</g>
<!-- Node9&#45;&gt;Node8 -->
<g id="edge9" class="edge">
<title>Node9&#45;&gt;Node8</title>
<path fill="none" stroke="#9a32cd" stroke-dasharray="5,2" d="M553.3,-132.19C600.01,-134.07 663.02,-142.04 712,-168.16 891.88,-264.11 1028.73,-488.69 1057.43,-538.33"/>
<polygon fill="#9a32cd" stroke="#9a32cd" points="553.42,-128.7 543.31,-131.89 553.2,-135.69 553.42,-128.7"/>
<text text-anchor="middle" x="785" y="-263.16" font-family="Roboto" font-size="10.00"> emptyBuffer</text>
</g>
<!-- Node9&#45;&gt;Node21 -->
<g id="edge43" class="edge">
<title>Node9&#45;&gt;Node21</title>
<path fill="none" stroke="#9a32cd" stroke-dasharray="5,2" d="M552.15,-146.63C556.95,-149.5 561.33,-152.97 565,-157.16 596.45,-193.14 550.5,-228.13 583,-263.16 623.18,-306.47 669.52,-254.11 712,-295.16 783.91,-364.67 785.48,-500.41 784.43,-538.19"/>
<polygon fill="#9a32cd" stroke="#9a32cd" points="553.71,-143.5 543.2,-142.21 550.62,-149.78 553.71,-143.5"/>
<text text-anchor="middle" x="647.5" y="-298.16" font-family="Roboto" font-size="10.00"> buffer_</text>
</g>
<!-- Node10 -->
<g id="node9" class="node">
<title>Node10</title>
<g id="a_node9"><a xlink:href="class_urho3_d_1_1_vector_base.html" target="_top" xlink:title="Vector base class.">
<polygon fill="white" stroke="#666666" points="106,-89.66 0,-89.66 0,-70.66 106,-70.66 106,-89.66"/>
<text text-anchor="middle" x="53" y="-77.66" font-family="Roboto" font-size="10.00">Urho3D::VectorBase</text>
</a>
</g>
</g>
<!-- Node10&#45;&gt;Node9 -->
<g id="edge10" class="edge">
<title>Node10&#45;&gt;Node9</title>
<path fill="none" stroke="#63b8ff" d="M109.86,-92.33C120.82,-94.47 132.24,-96.53 143,-98.16 244.64,-113.59 364.29,-124.07 432.03,-129.3"/>
<polygon fill="#63b8ff" stroke="#63b8ff" points="110.64,-88.92 100.15,-90.39 109.27,-95.78 110.64,-88.92"/>
</g>
<!-- Node14 -->
<g id="node13" class="node">
<title>Node14</title>
<g id="a_node13"><a xlink:href="class_urho3_d_1_1_vector.html" target="_top" xlink:title=" ">
<polygon fill="white" stroke="#666666" points="268,-89.66 143,-89.66 143,-70.66 268,-70.66 268,-89.66"/>
<text text-anchor="middle" x="205.5" y="-77.66" font-family="Roboto" font-size="10.00">Urho3D::Vector&lt; String &gt;</text>
</a>
</g>
</g>
<!-- Node10&#45;&gt;Node14 -->
<g id="edge18" class="edge">
<title>Node10&#45;&gt;Node14</title>
<path fill="none" stroke="#63b8ff" d="M117.68,-80.16C125.92,-80.16 134.34,-80.16 142.54,-80.16"/>
<polygon fill="#63b8ff" stroke="#63b8ff" points="117.73,-76.67 107.73,-80.16 117.73,-83.67 117.73,-76.67"/>
</g>
<!-- Node20 -->
<g id="node16" class="node">
<title>Node20</title>
<g id="a_node16"><a xlink:href="class_urho3_d_1_1_vector.html" target="_top" xlink:title="Vector template class.">
<polygon fill="white" stroke="#666666" points="391,-25.66 286,-25.66 286,-6.66 391,-6.66 391,-25.66"/>
<text text-anchor="middle" x="338.5" y="-13.66" font-family="Roboto" font-size="10.00">Urho3D::Vector&lt; T &gt;</text>
</a>
</g>
</g>
<!-- Node10&#45;&gt;Node20 -->
<g id="edge22" class="edge">
<title>Node10&#45;&gt;Node20</title>
<path fill="none" stroke="#63b8ff" d="M109.36,-67.67C163.2,-55.51 243.92,-37.29 293.51,-26.09"/>
<polygon fill="#63b8ff" stroke="#63b8ff" points="108.76,-64.22 99.77,-69.83 110.3,-71.04 108.76,-64.22"/>
</g>
<!-- Node11&#45;&gt;Node8 -->
<g id="edge11" class="edge">
<title>Node11&#45;&gt;Node8</title>
<path fill="none" stroke="#9a32cd" stroke-dasharray="5,2" d="M554.26,-845.66C600.1,-844.52 661.67,-838.6 712,-818.16 869.79,-754.11 1017.3,-598.77 1054.19,-558.06"/>
<polygon fill="#9a32cd" stroke="#9a32cd" points="554.41,-842.15 544.47,-845.82 554.53,-849.15 554.41,-842.15"/>
<text text-anchor="middle" x="785" y="-813.16" font-family="Roboto" font-size="10.00"> emptyResourceRef</text>
</g>
<!-- Node11&#45;&gt;Node21 -->
<g id="edge44" class="edge">
<title>Node11&#45;&gt;Node21</title>
<path fill="none" stroke="#9a32cd" stroke-dasharray="5,2" d="M553.26,-834.38C557.52,-832.14 561.5,-829.43 565,-826.16 584.75,-807.77 563.44,-786.76 583,-768.16 625.89,-727.39 667.78,-774.49 712,-735.16 767.37,-685.92 780.45,-589.17 783.28,-558.05"/>
<polygon fill="#9a32cd" stroke="#9a32cd" points="552.11,-831.06 544.3,-838.22 554.87,-837.5 552.11,-831.06"/>
<text text-anchor="middle" x="647.5" y="-771.16" font-family="Roboto" font-size="10.00"> resourceRef_</text>
</g>
<!-- Node12 -->
<g id="node11" class="node">
<title>Node12</title>
<g id="a_node11"><a xlink:href="class_urho3_d_1_1_string_hash.html" target="_top" xlink:title="32&#45;bit hash value for a string.">
<polygon fill="white" stroke="#666666" points="257.5,-672.66 153.5,-672.66 153.5,-653.66 257.5,-653.66 257.5,-672.66"/>
<text text-anchor="middle" x="205.5" y="-660.66" font-family="Roboto" font-size="10.00">Urho3D::StringHash</text>
</a>
</g>
</g>
<!-- Node12&#45;&gt;Node11 -->
<g id="edge12" class="edge">
<title>Node12&#45;&gt;Node11</title>
<path fill="none" stroke="#9a32cd" stroke-dasharray="5,2" d="M223.15,-681.1C255.55,-714.9 330.8,-788.03 409,-826.16 415.91,-829.53 423.48,-832.29 431.09,-834.54"/>
<polygon fill="#9a32cd" stroke="#9a32cd" points="225.97,-679 216.55,-674.14 220.88,-683.81 225.97,-679"/>
<text text-anchor="middle" x="338.5" y="-819.16" font-family="Roboto" font-size="10.00"> type_</text>
</g>
<!-- Node12&#45;&gt;Node12 -->
<g id="edge13" class="edge">
<title>Node12&#45;&gt;Node12</title>
<path fill="none" stroke="#9a32cd" stroke-dasharray="5,2" d="M191.28,-684.42C193.2,-688.11 197.94,-690.66 205.5,-690.66 219.74,-690.66 223.97,-681.6 218.18,-673.03"/>
<polygon fill="#9a32cd" stroke="#9a32cd" points="194.75,-684.91 192.62,-674.53 187.81,-683.98 194.75,-684.91"/>
<text text-anchor="middle" x="205.5" y="-693.66" font-family="Roboto" font-size="10.00"> ZERO</text>
</g>
<!-- Node13 -->
<g id="node12" class="node">
<title>Node13</title>
<g id="a_node12"><a xlink:href="struct_urho3_d_1_1_resource_ref_list.html" target="_top" xlink:title="List of typed resource references.">
<polygon fill="white" stroke="#666666" points="550.5,-99.66 423.5,-99.66 423.5,-80.66 550.5,-80.66 550.5,-99.66"/>
<text text-anchor="middle" x="487" y="-87.66" font-family="Roboto" font-size="10.00">Urho3D::ResourceRefList</text>
</a>
</g>
</g>
<!-- Node12&#45;&gt;Node13 -->
<g id="edge16" class="edge">
<title>Node12&#45;&gt;Node13</title>
<path fill="none" stroke="#9a32cd" stroke-dasharray="5,2" d="M264.84,-647.13C265.94,-646.2 267,-645.21 268,-644.16 270.66,-641.39 406.26,-111.86 409,-109.16 413.12,-105.11 417.96,-101.87 423.18,-99.29"/>
<polygon fill="#9a32cd" stroke="#9a32cd" points="263.23,-643.99 256.84,-652.44 267.1,-649.83 263.23,-643.99"/>
<text text-anchor="middle" x="338.5" y="-580.16" font-family="Roboto" font-size="10.00"> type_</text>
</g>
<!-- Node13&#45;&gt;Node8 -->
<g id="edge15" class="edge">
<title>Node13&#45;&gt;Node8</title>
<path fill="none" stroke="#9a32cd" stroke-dasharray="5,2" d="M562.04,-91.79C679.37,-98.88 904.75,-131.94 1003,-278.16 1061.65,-365.45 1063.86,-500.99 1063.28,-538.34"/>
<polygon fill="#9a32cd" stroke="#9a32cd" points="562.38,-88.3 552.2,-91.25 561.99,-95.29 562.38,-88.3"/>
<text text-anchor="middle" x="785" y="-155.16" font-family="Roboto" font-size="10.00"> emptyResourceRefList</text>
</g>
<!-- Node13&#45;&gt;Node21 -->
<g id="edge45" class="edge">
<title>Node13&#45;&gt;Node21</title>
<path fill="none" stroke="#9a32cd" stroke-dasharray="5,2" d="M560.47,-105.3C562.05,-106.5 563.57,-107.79 565,-109.16 585.96,-129.38 565.18,-149.13 583,-172.16 623.71,-224.8 672.42,-194.67 712,-248.16 782.4,-343.32 784.91,-497.76 784.28,-538.21"/>
<polygon fill="#9a32cd" stroke="#9a32cd" points="562.39,-102.38 552.03,-100.17 558.75,-108.36 562.39,-102.38"/>
<text text-anchor="middle" x="647.5" y="-251.16" font-family="Roboto" font-size="10.00"> resourceRefList_</text>
</g>
<!-- Node14&#45;&gt;Node13 -->
<g id="edge17" class="edge">
<title>Node14&#45;&gt;Node13</title>
<path fill="none" stroke="#9a32cd" stroke-dasharray="5,2" d="M279.53,-82.78C324.08,-84.37 380.44,-86.39 423.02,-87.91"/>
<polygon fill="#9a32cd" stroke="#9a32cd" points="279.81,-79.29 269.7,-82.43 279.56,-86.28 279.81,-79.29"/>
<text text-anchor="middle" x="338.5" y="-90.16" font-family="Roboto" font-size="10.00"> names_</text>
</g>
<!-- Node14&#45;&gt;Node21 -->
<g id="edge40" class="edge">
<title>Node14&#45;&gt;Node21</title>
<path fill="none" stroke="#9a32cd" stroke-dasharray="5,2" d="M250.89,-67.33C320.08,-49.59 456.88,-23.67 565,-60.16 642.82,-86.43 669.32,-101.99 712,-172.16 736.15,-211.87 721.49,-229.48 730,-275.16 749.2,-378.23 774.65,-502.73 781.96,-538.26"/>
<polygon fill="#9a32cd" stroke="#9a32cd" points="250.23,-63.89 241.45,-69.82 252.01,-70.66 250.23,-63.89"/>
<text text-anchor="middle" x="487" y="-63.16" font-family="Roboto" font-size="10.00"> stringVector_</text>
</g>
<!-- Node15 -->
<g id="node14" class="node">
<title>Node15</title>
<g id="a_node14"><a xlink:href="class_urho3_d_1_1_hash_map.html" target="_top" xlink:title="Hash map template class.">
<polygon fill="white" stroke="#666666" points="712,-1010.66 583,-1010.66 583,-991.66 712,-991.66 712,-1010.66"/>
<text text-anchor="middle" x="647.5" y="-998.66" font-family="Roboto" font-size="10.00">Urho3D::HashMap&lt; T, U &gt;</text>
</a>
</g>
</g>
<!-- Node15&#45;&gt;Node8 -->
<g id="edge19" class="edge">
<title>Node15&#45;&gt;Node8</title>
<path fill="none" stroke="#9a32cd" stroke-dasharray="5,2" d="M723.65,-989.28C805.25,-972.28 933.22,-932.89 1003,-846.16 1040.3,-799.81 1058.44,-603.9 1062.24,-557.87"/>
<polygon fill="#9a32cd" stroke="#9a32cd" points="723.05,-985.83 713.94,-991.24 724.44,-992.7 723.05,-985.83"/>
<text text-anchor="middle" x="785" y="-990.16" font-family="Roboto" font-size="10.00"> emptyVariantMap</text>
</g>
<!-- Node16 -->
<g id="node15" class="node">
<title>Node16</title>
<g id="a_node15"><a xlink:href="class_urho3_d_1_1_hash_base.html" target="_top" xlink:title="Hash set/map base class.">
<polygon fill="#fff0f0" stroke="red" points="255.5,-1032.66 155.5,-1032.66 155.5,-1013.66 255.5,-1013.66 255.5,-1032.66"/>
<text text-anchor="middle" x="205.5" y="-1020.66" font-family="Roboto" font-size="10.00">Urho3D::HashBase</text>
</a>
</g>
</g>
<!-- Node16&#45;&gt;Node15 -->
<g id="edge20" class="edge">
<title>Node16&#45;&gt;Node15</title>
<path fill="none" stroke="#63b8ff" d="M266.94,-1020.14C349.84,-1016 498.15,-1008.58 582.75,-1004.35"/>
<polygon fill="#63b8ff" stroke="#63b8ff" points="267.02,-1016.63 257.2,-1020.63 267.37,-1023.63 267.02,-1016.63"/>
</g>
<!-- Node37 -->
<g id="node25" class="node">
<title>Node37</title>
<g id="a_node25"><a xlink:href="class_urho3_d_1_1_hash_map.html" target="_top" xlink:title=" ">
<polygon fill="white" stroke="#666666" points="565,-1064.16 409,-1064.16 409,-1034.16 565,-1034.16 565,-1064.16"/>
<text text-anchor="start" x="417" y="-1052.16" font-family="Roboto" font-size="10.00">Urho3D::HashMap&lt; StringHash,</text>
<text text-anchor="middle" x="487" y="-1041.16" font-family="Roboto" font-size="10.00"> Variant &gt;</text>
</a>
</g>
</g>
<!-- Node16&#45;&gt;Node37 -->
<g id="edge42" class="edge">
<title>Node16&#45;&gt;Node37</title>
<path fill="none" stroke="#63b8ff" d="M267.14,-1028.81C308.65,-1032.67 364.03,-1037.82 408.7,-1041.97"/>
<polygon fill="#63b8ff" stroke="#63b8ff" points="267.61,-1025.33 257.33,-1027.89 266.97,-1032.3 267.61,-1025.33"/>
</g>
<!-- Node20&#45;&gt;Node8 -->
<g id="edge21" class="edge">
<title>Node20&#45;&gt;Node8</title>
<path fill="none" stroke="#9a32cd" stroke-dasharray="5,2" d="M402.33,-7.58C536.35,6.78 850.48,18.65 1003,-158.16 1054.34,-217.69 1061.85,-483.93 1062.85,-538.41"/>
<polygon fill="#9a32cd" stroke="#9a32cd" points="402.13,-4.08 392.58,-8.67 402.91,-11.04 402.13,-4.08"/>
<text text-anchor="middle" x="647.5" y="-28.16" font-family="Roboto" font-size="10.00"> emptyStringVector</text>
<text text-anchor="middle" x="647.5" y="-17.16" font-family="Roboto" font-size="10.00">emptyVariantVector</text>
</g>
<!-- Node21&#45;&gt;Node8 -->
<g id="edge23" class="edge">
<title>Node21&#45;&gt;Node8</title>
<path fill="none" stroke="#9a32cd" stroke-dasharray="5,2" d="M851.9,-548.16C904.14,-548.16 975.58,-548.16 1020.51,-548.16"/>
<polygon fill="#9a32cd" stroke="#9a32cd" points="851.91,-544.67 841.91,-548.16 851.91,-551.67 851.91,-544.67"/>
<text text-anchor="middle" x="930.5" y="-551.16" font-family="Roboto" font-size="10.00"> value_</text>
</g>
<!-- Node22&#45;&gt;Node21 -->
<g id="edge24" class="edge">
<title>Node22&#45;&gt;Node21</title>
<path fill="none" stroke="#9a32cd" stroke-dasharray="5,2" d="M526.43,-904.35C583.44,-872.79 686.44,-812.95 712,-779.16 766.74,-706.8 780.36,-592.1 783.29,-558.02"/>
<polygon fill="#9a32cd" stroke="#9a32cd" points="525.09,-901.09 518.02,-908.98 528.46,-907.22 525.09,-901.09"/>
<text text-anchor="middle" x="647.5" y="-872.16" font-family="Roboto" font-size="10.00"> weakPtr_</text>
</g>
<!-- Node23 -->
<g id="node19" class="node">
<title>Node23</title>
<g id="a_node19"><a xlink:href="class_urho3_d_1_1_vector2.html" target="_top" xlink:title="Two&#45;dimensional vector.">
<polygon fill="white" stroke="#666666" points="250,-551.66 161,-551.66 161,-532.66 250,-532.66 250,-551.66"/>
<text text-anchor="middle" x="205.5" y="-539.66" font-family="Roboto" font-size="10.00">Urho3D::Vector2</text>
</a>
</g>
</g>
<!-- Node23&#45;&gt;Node21 -->
<g id="edge26" class="edge">
<title>Node23&#45;&gt;Node21</title>
<path fill="none" stroke="#9a32cd" stroke-dasharray="5,2" d="M261.6,-542.74C372.2,-543.89 620.05,-546.46 729.86,-547.6"/>
<polygon fill="#9a32cd" stroke="#9a32cd" points="261.93,-539.24 251.89,-542.64 261.86,-546.24 261.93,-539.24"/>
<text text-anchor="middle" x="487" y="-549.16" font-family="Roboto" font-size="10.00"> vector2_</text>
</g>
<!-- Node23&#45;&gt;Node23 -->
<g id="edge27" class="edge">
<title>Node23&#45;&gt;Node23</title>
<path fill="none" stroke="#9a32cd" stroke-dasharray="5,2" d="M191.28,-563.42C193.2,-567.11 197.94,-569.66 205.5,-569.66 219.74,-569.66 223.97,-560.6 218.18,-552.03"/>
<polygon fill="#9a32cd" stroke="#9a32cd" points="194.75,-563.91 192.62,-553.53 187.81,-562.98 194.75,-563.91"/>
<text text-anchor="middle" x="205.5" y="-627.66" font-family="Roboto" font-size="10.00"> DOWN</text>
<text text-anchor="middle" x="205.5" y="-616.66" font-family="Roboto" font-size="10.00">LEFT</text>
<text text-anchor="middle" x="205.5" y="-605.66" font-family="Roboto" font-size="10.00">ONE</text>
<text text-anchor="middle" x="205.5" y="-594.66" font-family="Roboto" font-size="10.00">RIGHT</text>
<text text-anchor="middle" x="205.5" y="-583.66" font-family="Roboto" font-size="10.00">UP</text>
<text text-anchor="middle" x="205.5" y="-572.66" font-family="Roboto" font-size="10.00">ZERO</text>
</g>
<!-- Node26 -->
<g id="node22" class="node">
<title>Node26</title>
<g id="a_node22"><a xlink:href="class_urho3_d_1_1_rect.html" target="_top" xlink:title=" ">
<polygon fill="white" stroke="#666666" points="524,-596.66 450,-596.66 450,-577.66 524,-577.66 524,-596.66"/>
<text text-anchor="middle" x="487" y="-584.66" font-family="Roboto" font-size="10.00">Urho3D::Rect</text>
</a>
</g>
</g>
<!-- Node23&#45;&gt;Node26 -->
<g id="edge33" class="edge">
<title>Node23&#45;&gt;Node26</title>
<path fill="none" stroke="#9a32cd" stroke-dasharray="5,2" d="M226.55,-559.29C241.75,-571.09 263.77,-585.75 286,-592.16 341.4,-608.14 409.05,-601.29 449.76,-594.51"/>
<polygon fill="#9a32cd" stroke="#9a32cd" points="228.76,-556.57 218.78,-553.01 224.36,-562.02 228.76,-556.57"/>
<text text-anchor="middle" x="338.5" y="-616.16" font-family="Roboto" font-size="10.00"> max_</text>
<text text-anchor="middle" x="338.5" y="-605.16" font-family="Roboto" font-size="10.00">min_</text>
</g>
<!-- Node24 -->
<g id="node20" class="node">
<title>Node24</title>
<g id="a_node20"><a xlink:href="class_urho3_d_1_1_vector3.html" target="_top" xlink:title="Three&#45;dimensional vector.">
<polygon fill="white" stroke="#666666" points="531.5,-405.66 442.5,-405.66 442.5,-386.66 531.5,-386.66 531.5,-405.66"/>
<text text-anchor="middle" x="487" y="-393.66" font-family="Roboto" font-size="10.00">Urho3D::Vector3</text>
</a>
</g>
</g>
<!-- Node24&#45;&gt;Node21 -->
<g id="edge28" class="edge">
<title>Node24&#45;&gt;Node21</title>
<path fill="none" stroke="#9a32cd" stroke-dasharray="5,2" d="M517.45,-411.29C577.9,-442.33 714.53,-512.49 764.89,-538.35"/>
<polygon fill="#9a32cd" stroke="#9a32cd" points="519.26,-408.28 508.77,-406.83 516.06,-414.51 519.26,-408.28"/>
<text text-anchor="middle" x="647.5" y="-511.16" font-family="Roboto" font-size="10.00"> vector3_</text>
</g>
<!-- Node24&#45;&gt;Node24 -->
<g id="edge29" class="edge">
<title>Node24&#45;&gt;Node24</title>
<path fill="none" stroke="#9a32cd" stroke-dasharray="5,2" d="M460.64,-417.1C463.94,-420.95 472.72,-423.66 487,-423.66 513.1,-423.66 520.85,-414.6 510.25,-406.03"/>
<polygon fill="#9a32cd" stroke="#9a32cd" points="464,-418.06 463.34,-407.49 457.27,-416.17 464,-418.06"/>
<text text-anchor="middle" x="487" y="-503.66" font-family="Roboto" font-size="10.00"> BACK</text>
<text text-anchor="middle" x="487" y="-492.66" font-family="Roboto" font-size="10.00">DOWN</text>
<text text-anchor="middle" x="487" y="-481.66" font-family="Roboto" font-size="10.00">FORWARD</text>
<text text-anchor="middle" x="487" y="-470.66" font-family="Roboto" font-size="10.00">LEFT</text>
<text text-anchor="middle" x="487" y="-459.66" font-family="Roboto" font-size="10.00">ONE</text>
<text text-anchor="middle" x="487" y="-448.66" font-family="Roboto" font-size="10.00">RIGHT</text>
<text text-anchor="middle" x="487" y="-437.66" font-family="Roboto" font-size="10.00">UP</text>
<text text-anchor="middle" x="487" y="-426.66" font-family="Roboto" font-size="10.00">ZERO</text>
</g>
<!-- Node25 -->
<g id="node21" class="node">
<title>Node25</title>
<g id="a_node21"><a xlink:href="class_urho3_d_1_1_vector4.html" target="_top" xlink:title="Four&#45;dimensional vector.">
<polygon fill="white" stroke="#666666" points="531.5,-328.66 442.5,-328.66 442.5,-309.66 531.5,-309.66 531.5,-328.66"/>
<text text-anchor="middle" x="487" y="-316.66" font-family="Roboto" font-size="10.00">Urho3D::Vector4</text>
</a>
</g>
</g>
<!-- Node25&#45;&gt;Node21 -->
<g id="edge30" class="edge">
<title>Node25&#45;&gt;Node21</title>
<path fill="none" stroke="#9a32cd" stroke-dasharray="5,2" d="M531.39,-332.73C579.89,-349.59 658.6,-382.27 712,-431.16 747.18,-463.38 771.34,-516.67 780.22,-538.44"/>
<polygon fill="#9a32cd" stroke="#9a32cd" points="532.66,-329.46 522.07,-329.56 530.41,-336.09 532.66,-329.46"/>
<text text-anchor="middle" x="647.5" y="-434.16" font-family="Roboto" font-size="10.00"> vector4_</text>
</g>
<!-- Node25&#45;&gt;Node25 -->
<g id="edge31" class="edge">
<title>Node25&#45;&gt;Node25</title>
<path fill="none" stroke="#9a32cd" stroke-dasharray="5,2" d="M460.64,-340.1C463.94,-343.95 472.72,-346.66 487,-346.66 513.1,-346.66 520.85,-337.6 510.25,-329.03"/>
<polygon fill="#9a32cd" stroke="#9a32cd" points="464,-341.06 463.34,-330.49 457.27,-339.17 464,-341.06"/>
<text text-anchor="middle" x="487" y="-360.66" font-family="Roboto" font-size="10.00"> ONE</text>
<text text-anchor="middle" x="487" y="-349.66" font-family="Roboto" font-size="10.00">ZERO</text>
</g>
<!-- Node26&#45;&gt;Node21 -->
<g id="edge32" class="edge">
<title>Node26&#45;&gt;Node21</title>
<path fill="none" stroke="#9a32cd" stroke-dasharray="5,2" d="M535.48,-582.99C580.92,-578.73 651.33,-571.43 712,-562.16 719.68,-560.99 727.79,-559.58 735.68,-558.12"/>
<polygon fill="#9a32cd" stroke="#9a32cd" points="535.34,-579.49 525.71,-583.89 535.99,-586.46 535.34,-579.49"/>
<text text-anchor="middle" x="647.5" y="-581.16" font-family="Roboto" font-size="10.00"> rect_</text>
</g>
<!-- Node26&#45;&gt;Node26 -->
<g id="edge34" class="edge">
<title>Node26&#45;&gt;Node26</title>
<path fill="none" stroke="#9a32cd" stroke-dasharray="5,2" d="M460.64,-608.1C463.94,-611.95 472.72,-614.66 487,-614.66 513.1,-614.66 520.85,-605.6 510.25,-597.03"/>
<polygon fill="#9a32cd" stroke="#9a32cd" points="464,-609.06 463.34,-598.49 457.27,-607.17 464,-609.06"/>
<text text-anchor="middle" x="487" y="-639.66" font-family="Roboto" font-size="10.00"> FULL</text>
<text text-anchor="middle" x="487" y="-628.66" font-family="Roboto" font-size="10.00">POSITIVE</text>
<text text-anchor="middle" x="487" y="-617.66" font-family="Roboto" font-size="10.00">ZERO</text>
</g>
<!-- Node27 -->
<g id="node23" class="node">
<title>Node27</title>
<g id="a_node23"><a xlink:href="class_urho3_d_1_1_int_vector2.html" target="_top" xlink:title="Two&#45;dimensional vector with integer values.">
<polygon fill="white" stroke="#666666" points="537.5,-732.66 436.5,-732.66 436.5,-713.66 537.5,-713.66 537.5,-732.66"/>
<text text-anchor="middle" x="487" y="-720.66" font-family="Roboto" font-size="10.00">Urho3D::IntVector2</text>
</a>
</g>
</g>
<!-- Node27&#45;&gt;Node21 -->
<g id="edge35" class="edge">
<title>Node27&#45;&gt;Node21</title>
<path fill="none" stroke="#9a32cd" stroke-dasharray="5,2" d="M549.39,-722.87C606.56,-721.44 686.66,-716.15 712,-698.16 761.23,-663.22 778.07,-585.36 782.59,-557.94"/>
<polygon fill="#9a32cd" stroke="#9a32cd" points="549.36,-719.37 539.44,-723.08 549.51,-726.36 549.36,-719.37"/>
<text text-anchor="middle" x="647.5" y="-724.16" font-family="Roboto" font-size="10.00"> intVector2_</text>
</g>
<!-- Node27&#45;&gt;Node27 -->
<g id="edge36" class="edge">
<title>Node27&#45;&gt;Node27</title>
<path fill="none" stroke="#9a32cd" stroke-dasharray="5,2" d="M460.64,-744.1C463.94,-747.95 472.72,-750.66 487,-750.66 513.1,-750.66 520.85,-741.6 510.25,-733.03"/>
<polygon fill="#9a32cd" stroke="#9a32cd" points="464,-745.06 463.34,-734.49 457.27,-743.17 464,-745.06"/>
<text text-anchor="middle" x="487" y="-808.66" font-family="Roboto" font-size="10.00"> DOWN</text>
<text text-anchor="middle" x="487" y="-797.66" font-family="Roboto" font-size="10.00">LEFT</text>
<text text-anchor="middle" x="487" y="-786.66" font-family="Roboto" font-size="10.00">ONE</text>
<text text-anchor="middle" x="487" y="-775.66" font-family="Roboto" font-size="10.00">RIGHT</text>
<text text-anchor="middle" x="487" y="-764.66" font-family="Roboto" font-size="10.00">UP</text>
<text text-anchor="middle" x="487" y="-753.66" font-family="Roboto" font-size="10.00">ZERO</text>
</g>
<!-- Node28 -->
<g id="node24" class="node">
<title>Node28</title>
<g id="a_node24"><a xlink:href="class_urho3_d_1_1_int_vector3.html" target="_top" xlink:title="Three&#45;dimensional vector with integer values.">
<polygon fill="white" stroke="#666666" points="537.5,-185.66 436.5,-185.66 436.5,-166.66 537.5,-166.66 537.5,-185.66"/>
<text text-anchor="middle" x="487" y="-173.66" font-family="Roboto" font-size="10.00">Urho3D::IntVector3</text>
</a>
</g>
</g>
<!-- Node28&#45;&gt;Node21 -->
<g id="edge37" class="edge">
<title>Node28&#45;&gt;Node21</title>
<path fill="none" stroke="#9a32cd" stroke-dasharray="5,2" d="M496.63,-196.57C510.35,-226.43 540.05,-281.55 583,-310.16 631.91,-342.74 668.21,-299.97 712,-339.16 773.77,-394.45 782.56,-505.23 783.8,-538.5"/>
<polygon fill="#9a32cd" stroke="#9a32cd" points="499.87,-195.26 492.63,-187.53 493.47,-198.09 499.87,-195.26"/>
<text text-anchor="middle" x="647.5" y="-342.16" font-family="Roboto" font-size="10.00"> intVector3_</text>
</g>
<!-- Node28&#45;&gt;Node28 -->
<g id="edge38" class="edge">
<title>Node28&#45;&gt;Node28</title>
<path fill="none" stroke="#9a32cd" stroke-dasharray="5,2" d="M460.64,-197.1C463.94,-200.95 472.72,-203.66 487,-203.66 513.1,-203.66 520.85,-194.6 510.25,-186.03"/>
<polygon fill="#9a32cd" stroke="#9a32cd" points="464,-198.06 463.34,-187.49 457.27,-196.17 464,-198.06"/>
<text text-anchor="middle" x="487" y="-283.66" font-family="Roboto" font-size="10.00"> BACK</text>
<text text-anchor="middle" x="487" y="-272.66" font-family="Roboto" font-size="10.00">DOWN</text>
<text text-anchor="middle" x="487" y="-261.66" font-family="Roboto" font-size="10.00">FORWARD</text>
<text text-anchor="middle" x="487" y="-250.66" font-family="Roboto" font-size="10.00">LEFT</text>
<text text-anchor="middle" x="487" y="-239.66" font-family="Roboto" font-size="10.00">ONE</text>
<text text-anchor="middle" x="487" y="-228.66" font-family="Roboto" font-size="10.00">RIGHT</text>
<text text-anchor="middle" x="487" y="-217.66" font-family="Roboto" font-size="10.00">UP</text>
<text text-anchor="middle" x="487" y="-206.66" font-family="Roboto" font-size="10.00">ZERO</text>
</g>
<!-- Node37&#45;&gt;Node2 -->
<g id="edge46" class="edge">
<title>Node37&#45;&gt;Node2</title>
<path fill="none" stroke="#9a32cd" stroke-dasharray="5,2" d="M576.71,-1053.55C698.44,-1057.23 923.11,-1055.64 1107,-1007.16 1143.29,-997.6 1152.2,-994.2 1187,-980.16 1205.2,-972.82 1225.37,-963.17 1239.71,-956.02"/>
<polygon fill="#9a32cd" stroke="#9a32cd" points="576.88,-1050.05 566.77,-1053.22 576.65,-1057.05 576.88,-1050.05"/>
<text text-anchor="middle" x="930.5" y="-1049.16" font-family="Roboto" font-size="10.00"> metadata_</text>
</g>
<!-- Node37&#45;&gt;Node21 -->
<g id="edge41" class="edge">
<title>Node37&#45;&gt;Node21</title>
<path fill="none" stroke="#9a32cd" stroke-dasharray="5,2" d="M524.32,-1027.38C538.94,-1016.92 554.73,-1003.16 565,-987.16 582.58,-959.77 559.92,-939.12 583,-916.16 624.88,-874.5 670.91,-926.6 712,-884.16 714.98,-881.09 770.48,-613.49 781.94,-558.12"/>
<polygon fill="#9a32cd" stroke="#9a32cd" points="522.5,-1024.39 516.21,-1032.92 526.44,-1030.18 522.5,-1024.39"/>
<text text-anchor="middle" x="647.5" y="-919.16" font-family="Roboto" font-size="10.00"> variantMap_</text>
</g>
</g>
</svg>
